<?xml version="1.0" encoding="iso-8859-1"?><svg height="200px" viewBox="0.0 0.0 24.0 24.0" width="200px" xmlns="http://www.w3.org/2000/svg"><path animation_id="0" d="M0.0 0.0 L24.0 0.0 L24.0 24.0 L0.0 24.0 L0.0 0.0" fill="black" fill-opacity="1.0" filling="0"/>
<path animation_id="1" d="M22.94116973876953 22.91900634765625 L22.94116973876953 1.0808687210083008 L1.0588302612304688 1.0808687210083008 L1.0588302612304688 22.91900634765625 L22.94116973876953 22.91900634765625 L22.94116973876953 22.91900634765625" fill="black" fill-opacity="1.0" filling="0"/>
<path animation_id="2" d="M14.076698303222656 9.35391902923584 C14.076698303222656 9.35391902923584 15.851709365844727 8.985494613647461 17.158063888549805 6.808317184448242 L19.100666046142578 6.808317184448242 L19.100666046142578 21.679636001586914 L16.488203048706055 21.679636001586914 L16.488203048706055 9.789454460144043 C16.488203048706055 9.789454460144043 15.048123359680176 10.660274505615234 14.612587928771973 10.727261543273926 L14.076698303222656 9.35391902923584 L14.076698303222656 9.35391902923584 M8.943037033081055 4.15887451171875 L9.51777458190918 4.15887451171875 L9.227914810180664 3.4901323318481445 L8.943037033081055 4.15887451171875" fill="black" fill-opacity="1.0" filling="0"/>
<path animation_id="3" d="M5.267882823944092 2.2532529830932617 L5.267882823944092 5.669551372528076 L19.201021194458008 5.669551372528076 L19.201021194458008 2.2532529830932617 L5.267882823944092 2.2532529830932617 M6.827242851257324 4.148416042327881 C6.709705829620361 4.171947956085205 6.53987455368042 4.153645038604736 6.474506855010986 4.153645038604736 L6.474506855010986 4.9739155769348145 C6.432671546936035 4.9713006019592285 6.396190166473389 4.966071128845215 6.359584331512451 4.966071128845215 C6.320488452911377 4.966071128845215 6.2812676429748535 4.9713006019592285 6.244661808013916 4.9739155769348145 L6.244661808013916 3.1869516372680664 L6.712320327758789 3.1869516372680664 C7.2190752029418945 3.1869516372680664 7.386416435241699 3.299384117126465 7.386416435241699 3.615389823913574 C7.386291980743408 3.9316444396972656 7.195542812347412 4.075328350067139 6.827242851257324 4.148416042327881 M9.969868659973145 4.966196060180664 C9.92031478881836 4.966196060180664 9.875864028930664 4.971425533294678 9.831413269042969 4.9740400314331055 C9.755587577819824 4.757143974304199 9.661582946777344 4.506381511688232 9.557119369506836 4.2685675621032715 L8.893482208251953 4.2685675621032715 C8.802091598510742 4.498412609100342 8.708087921142578 4.728382110595703 8.634875297546387 4.9740400314331055 C8.598394393920898 4.971425533294678 8.569632530212402 4.966196060180664 8.53825569152832 4.966196060180664 C8.504264831542969 4.966196060180664 8.475626945495605 4.971425533294678 8.446866035461426 4.9740400314331055 L9.262031555175781 3.147854804992676 L9.322044372558594 3.147854804992676 L10.105833053588867 4.9740400314331055 C10.056029319763184 4.971425533294678 10.01419448852539 4.966196060180664 9.969868659973145 4.966196060180664 L9.969868659973145 4.966196060180664 M11.605179786682129 5.005416393280029 C11.477184295654297 5.005416393280029 11.268132209777832 4.950632095336914 11.179356575012207 4.853888034820557 C11.205503463745117 4.778185844421387 11.218576431274414 4.699744701385498 11.229035377502441 4.621304035186768 L11.255183219909668 4.621304035186768 C11.35703182220459 4.788520336151123 11.474568367004395 4.893108367919922 11.678391456604004 4.893108367919922 C11.890058517456055 4.893108367919922 12.041585922241211 4.718048095703125 12.041585922241211 4.511610507965088 C12.041585922241211 4.025649070739746 11.223930358886719 4.239930629730225 11.223930358886719 3.6495046615600586 C11.223930358886719 3.3124570846557617 11.490382194519043 3.147854804992676 11.803897857666016 3.147854804992676 C11.929278373718262 3.147854804992676 12.080806732177734 3.1869516372680664 12.17755126953125 3.2732372283935547 C12.146174430847168 3.341094970703125 12.127996444702148 3.414306640625 12.107078552246094 3.487393379211426 L12.080806732177734 3.487393379211426 C12.026022911071777 3.3463239669799805 11.911100387573242 3.2601633071899414 11.756957054138184 3.2601633071899414 C11.576666831970215 3.2601633071899414 11.427753448486328 3.3803157806396484 11.427753448486328 3.5658349990844727 C11.427753448486328 4.046566963195801 12.250762939453125 3.8532028198242188 12.250762939453125 4.409637451171875 C12.250638008117676 4.783290863037109 11.960530281066895 5.005416393280029 11.605179786682129 5.005416393280029 L11.605179786682129 5.005416393280029 M14.682687759399414 3.343709945678711 A4.551204681396484 4.551204681396484 0.0 0 0 14.136712074279785 3.312333106994629 L14.136712074279785 4.979145050048828 C14.094877243041992 4.976530075073242 14.058395385742188 4.971425533294678 14.0216646194458 4.971425533294678 C13.982568740844727 4.971425533294678 13.943347930908203 4.976654529571533 13.906867027282715 4.979145050048828 L13.906867027282715 3.3124570846557617 C13.642781257629395 3.3124570846557617 13.48353385925293 3.328145980834961 13.334620475769043 3.3438339233398438 C13.337109565734863 3.3176870346069336 13.342339515686035 3.2916650772094727 13.342339515686035 3.265517234802246 C13.342339515686035 3.239370346069336 13.33698558807373 3.2159624099731445 13.334620475769043 3.187075614929199 L14.682561874389648 3.187075614929199 C14.680072784423828 3.2158374786376953 14.674842834472656 3.239370346069336 14.674842834472656 3.265517234802246 C14.674842834472656 3.2916650772094727 14.680196762084961 3.3176870346069336 14.682687759399414 3.343709945678711 L14.682687759399414 3.343709945678711 M16.127124786376953 4.9740400314331055 C16.085289001464844 4.971425533294678 16.04880714416504 4.966196060180664 16.01207733154297 4.966196060180664 C15.972982406616211 4.966196060180664 15.933761596679688 4.971425533294678 15.897279739379883 4.9740400314331055 L15.897279739379883 3.1869516372680664 C15.933761596679688 3.189565658569336 15.972856521606445 3.194796562194824 16.01207733154297 3.194796562194824 C16.04880714416504 3.194796562194824 16.085289001464844 3.189565658569336 16.127124786376953 3.1869516372680664 L16.127124786376953 4.9740400314331055 L17.832534790039062 5.005291938781738 C17.70466423034668 5.005291938781738 17.49573516845703 4.950507164001465 17.40671157836914 4.853763580322266 C17.4329833984375 4.778061389923096 17.4458065032959 4.699620246887207 17.456266403198242 4.621179580688477 L17.48253631591797 4.621179580688477 C17.584386825561523 4.788395881652832 17.701923370361328 4.892983913421631 17.905622482299805 4.892983913421631 C18.117162704467773 4.892983913421631 18.26894187927246 4.717923164367676 18.26894187927246 4.511486053466797 C18.26894187927246 4.025524616241455 17.451160430908203 4.239805698394775 17.451160430908203 3.649380683898926 C17.451160430908203 3.312333106994629 17.717737197875977 3.147730827331543 18.0311279296875 3.147730827331543 C18.156633377075195 3.147730827331543 18.308162689208984 3.186826705932617 18.4046573638916 3.2731122970581055 C18.373281478881836 3.340970039367676 18.3551025390625 3.414181709289551 18.334184646606445 3.487269401550293 L18.308162689208984 3.487269401550293 C18.253253936767578 3.3461990356445312 18.138206481933594 3.260038375854492 17.98394012451172 3.260038375854492 C17.80377197265625 3.260038375854492 17.65485954284668 3.380190849304199 17.65485954284668 3.5657100677490234 C17.65485954284668 4.04644250869751 18.477745056152344 3.853078842163086 18.477745056152344 4.409512996673584 C18.477745056152344 4.783166408538818 18.187637329101562 5.005167484283447 17.832286834716797 5.005167484283447 L16.127124786376953 4.9740400314331055 L16.127124786376953 4.9740400314331055" fill="black" fill-opacity="1.0" filling="0"/>
<path animation_id="4" d="M6.850650787353516 3.291539192199707 C6.738342761993408 3.2810802459716797 6.552823543548584 3.2836952209472656 6.474506855010986 3.2889251708984375 L6.474506855010986 4.051795959472656 C6.539749622344971 4.059640407562256 6.6443376541137695 4.059640407562256 6.7331132888793945 4.051795959472656 C6.994334697723389 4.025649070739746 7.145863056182861 3.8610477447509766 7.145863056182861 3.6285877227783203 C7.1459879875183105 3.450911521911621 7.0570878982543945 3.309843063354492 6.850650787353516 3.291539192199707 L6.850650787353516 3.291539192199707" fill="black" fill-opacity="1.0" filling="0"/>
<path animation_id="5" d="M7.612401485443115 5.317935466766357 C7.612401485443115 5.317935466766357 8.232086181640625 8.751042366027832 12.251385688781738 8.751042366027832 C16.270435333251953 8.751042366027832 16.705720901489258 5.301126956939697 16.705720901489258 5.301126956939697 L7.612401485443115 5.317935466766357 L7.612401485443115 5.317935466766357" fill="black" fill-opacity="1.0" filling="0"/>
<path animation_id="6" d="M7.9975104331970215 11.581274032592773 C7.9975104331970215 11.581274032592773 13.423395156860352 10.743946075439453 13.440204620361328 16.588682174682617 C13.457013130187988 22.43329429626465 6.908921241760254 23.689350128173828 4.447238922119141 19.28481674194336 L5.786963939666748 18.363943099975586 C5.786963939666748 18.363943099975586 7.374214172363281 20.953123092651367 9.755961418151855 19.301624298095703 C11.012015342712402 18.430803298950195 10.275042533874512 15.098176956176758 10.275042533874512 15.098176956176758 C10.275042533874512 15.098176956176758 9.739152908325195 13.473697662353516 8.51659107208252 13.473697662353516 L5.234389781951904 13.473697662353516 L5.234389781951904 6.70783805847168 L12.446616172790527 6.70783805847168 L12.446616172790527 8.181535720825195 L7.958413600921631 8.181535720825195 L7.9975104331970215 11.581274032592773 L7.9975104331970215 11.581274032592773" fill="black" fill-opacity="1.0" filling="0"/></svg>