<?xml version="1.0" encoding="iso-8859-1"?><svg height="200px" viewBox="0.0 0.0 24.0 24.0" width="200px" xmlns="http://www.w3.org/2000/svg"><path animation_id="0" d="M0.0 0.0 L24.0 0.0 L24.0 24.0 L0.0 24.0 L0.0 0.0" fill="black" fill-opacity="1.0" filling="0"/>
<path animation_id="1" d="M22.357467651367188 1.0588302612304688 C22.357467651367188 10.138330459594727 18.877296447753906 18.80794334411621 12.020792961120605 22.94116973876953 C5.5881218910217285 18.80794334411621 1.5520143508911133 10.443877220153809 1.6422834396362305 1.0588302612304688 L22.357467651367188 1.0588302612304688" fill="black" fill-opacity="1.0" filling="0"/>
<path animation_id="2" d="M21.732303619384766 1.7257051467895508 C21.732303619384766 10.152151107788086 18.49530029296875 18.203449249267578 12.111311912536621 22.0311279296875 C6.129988670349121 18.203449249267578 2.3717870712280273 10.437028884887695 2.448235511779785 1.7257051467895508 L21.732303619384766 1.7257051467895508" fill="black" fill-opacity="1.0" filling="0"/>
<path animation_id="3" d="M17.161426544189453 9.20737075805664 L17.161426544189453 12.402913093566895 L13.458756446838379 12.402913093566895 L13.500591278076172 12.722405433654785 C14.771711349487305 12.611218452453613 14.806449890136719 13.048870086669922 15.02869987487793 13.889435768127441 L15.02869987487793 16.59876823425293 C13.465728759765625 17.335119247436523 11.659589767456055 17.432235717773438 10.284131050109863 16.59876823425293 C9.269874572753906 16.105459213256836 8.401543617248535 13.576791763305664 8.505759239196777 11.701300621032715 C8.43628215789795 10.1589994430542 8.839195251464844 8.234825134277344 9.506070137023926 7.1997761726379395 C10.534147262573242 5.727075099945068 11.708273887634277 5.504825115203857 13.549150466918945 5.75484037399292 C15.278964042663574 6.220257759094238 16.411130905151367 7.547158241271973 16.897342681884766 9.20737075805664 L17.161426544189453 9.20737075805664 L17.161426544189453 9.20737075805664" fill="black" fill-opacity="1.0" filling="0"/>
<path animation_id="4" d="M7.852705001831055 15.39699935913086 L7.852705001831055 15.952685356140137 L15.459379196166992 15.952685356140137 L15.459379196166992 15.39699935913086 L12.91016674041748 15.39699935913086 L12.243043899536133 14.334059715270996 L11.416422843933105 14.334059715270996 L10.791259765625 15.39699935913086 L9.936749458312988 15.39699935913086 L9.582518577575684 14.257735252380371 L8.679325103759766 14.257735252380371 L8.290356636047363 15.39699935913086 L7.852705001831055 15.39699935913086" fill="black" fill-opacity="1.0" filling="0"/>
<path animation_id="5" d="M12.23619556427002 14.22996997833252 L11.416422843933105 14.222872734069824 L11.416422843933105 13.167030334472656 L9.957666397094727 12.472390174865723 L9.478303909301758 13.26427173614502 L9.158811569213867 12.291727066040039 L9.832658767700195 11.131669044494629 L10.464794158935547 11.583141326904297 L10.187013626098633 12.006848335266113 L11.416547775268555 12.576480865478516 L11.416547775268555 11.992902755737305 L12.236319541931152 11.992902755737305 L12.236319541931152 12.96557331085205 L13.44493579864502 13.521260261535645 C13.521260261535645 13.458756446838379 13.584012985229492 13.361515045166016 13.695199966430664 13.354541778564453 L13.67428207397461 13.076760292053223 L14.007719039916992 13.076760292053223 L14.021539688110352 13.278092384338379 C14.209052085876465 13.278092384338379 14.348129272460938 13.368487358093262 14.417481422424316 13.458756446838379 L14.63998031616211 13.312830924987793 L14.83434009552002 13.590736389160156 L14.605241775512695 13.743509292602539 C14.653924942016602 13.875615119934082 14.625910758972168 14.028388023376465 14.605241775512695 14.125630378723145 L14.876174926757812 14.24366569519043 L14.751167297363281 14.521446228027344 L14.494179725646973 14.403411865234375 C14.43167495727539 14.479736328125 14.327336311340332 14.577102661132812 14.21627426147461 14.61868953704834 L14.27168083190918 14.917387962341309 L13.917574882507324 14.924360275268555 L13.903754234313965 14.681193351745605 C13.73691177368164 14.646455764770508 13.598082542419434 14.590798377990723 13.486895561218262 14.49355697631836 L13.299134254455566 14.660400390625 L13.104775428771973 14.410260200500488 L13.306106567382812 14.208803176879883 L13.278341293334961 13.979580879211426 L12.236319541931152 13.500218391418457 L12.236319541931152 14.22996997833252 L12.23619556427002 14.22996997833252 L12.23619556427002 14.22996997833252" fill="black" fill-opacity="1.0" filling="0"/>
<path animation_id="6" d="M7.852705001831055 15.952685356140137 L15.466476440429688 15.952685356140137 L15.466476440429688 16.432174682617188 L7.852705001831055 16.432174682617188 L7.852705001831055 15.952685356140137 L7.852705001831055 15.952685356140137" fill="black" fill-opacity="1.0" filling="0"/>
<path animation_id="7" d="M17.231029510498047 5.046255588531494 L17.231029510498047 9.214343070983887 L16.946025848388672 9.214343070983887 C16.543359756469727 8.012575149536133 15.89715576171875 7.137272357940674 15.146984100341797 6.532902240753174 C14.341032028198242 5.928531646728516 13.424266815185547 5.650750160217285 12.493432998657227 5.650750160217285 C11.569445610046387 5.650750160217285 10.819149017333984 5.873124599456787 10.180041313171387 6.421839237213135 C9.603436470031738 6.915021896362305 9.144991874694824 7.686110973358154 8.915769577026367 8.610097885131836 C8.686546325683594 9.492249488830566 8.512855529785156 10.478740692138672 8.512855529785156 11.465230941772461 A12.252754211425781 12.252754211425781 0.0 0 0 8.915769577026367 14.59117317199707 C9.200522422790527 15.466476440429688 9.66594123840332 16.12637710571289 10.242545127868652 16.571001052856445 C10.881653785705566 16.952999114990234 11.569320678710938 17.168399810791016 12.375147819519043 17.168399810791016 C12.666998863220215 17.168399810791016 13.014256477355957 17.168399810791016 13.299010276794434 17.11971664428711 C13.597833633422852 17.057212829589844 14.737222671508789 16.765485763549805 15.028824806213379 16.59876823425293 L15.028824806213379 14.021539688110352 C15.028824806213379 13.597833633422852 14.806573867797852 13.201767921447754 14.723153114318848 13.055843353271484 C14.674469947814941 12.958600997924805 14.598145484924316 12.875303268432617 14.417481422424316 12.79885482788086 C14.167466163635254 12.687667846679688 14.111809730529785 12.729378700256348 13.806387901306152 12.729378700256348 L13.493618965148926 12.729378700256348 L13.500716209411621 12.312520027160645 L18.61333465576172 12.340410232543945 L18.61333465576172 12.618191719055176 C18.154891967773438 12.673722267150879 17.8631649017334 12.729378700256348 17.689472198486328 12.777936935424805 C17.51578140258789 12.889123916625977 17.40471839904785 13.055718421936035 17.349063873291016 13.222436904907227 C17.28656005859375 13.326651573181152 17.231151580810547 13.604557037353516 17.231151580810547 14.042208671569824 L17.231151580810547 16.78615379333496 C16.480981826782227 17.119592666625977 15.612525939941406 17.390525817871094 14.744070053100586 17.439083099365234 C13.938118934631348 17.598953247070312 13.014256477355957 17.716991424560547 12.090518951416016 17.716991424560547 C10.937310218811035 17.716991424560547 9.95081901550293 17.55027198791504 9.144991874694824 17.279212951660156 C8.394820213317871 17.008281707763672 7.707028388977051 16.57075309753418 7.1234517097473145 16.07059669494629 C6.4843430519104 15.58426284790039 6.025897979736328 14.979891777038574 5.741020202636719 14.313017845153809 C5.275602340698242 13.493370056152344 5.101911544799805 12.562410354614258 5.101911544799805 11.576044082641602 C5.101911544799805 9.762933731079102 5.741020202636719 8.227728843688965 7.060947418212891 6.970304489135742 C8.339164733886719 5.713005065917969 10.006349563598633 5.046006679534912 12.034862518310547 5.046006679534912 C12.611343383789062 5.046006679534912 13.18122386932373 5.108510494232178 13.709145545959473 5.2127251625061035 C13.938243865966797 5.268256187438965 14.403660774230957 5.379443645477295 14.980265617370605 5.601818084716797 C15.612525939941406 5.8170952796936035 15.959783554077148 5.928406715393066 16.070972442626953 5.928406715393066 C16.244661331176758 5.928406715393066 16.362821578979492 5.872875690460205 16.543485641479492 5.761688709259033 C16.65467071533203 5.601942539215088 16.82823944091797 5.379568099975586 16.946149826049805 5.046131134033203 L17.231029510498047 5.046131134033203 L17.231029510498047 5.046255588531494 L17.231029510498047 5.046255588531494" fill="black" fill-opacity="1.0" filling="0"/>
<path animation_id="8" d="M10.798232078552246 6.532902240753174 L11.722094535827637 6.532902240753174 L11.722094535827637 6.963581085205078 C11.68050765991211 6.991346836090088 11.659589767456055 7.019112586975098 11.652617454528809 7.046877861022949 C11.638672828674316 7.081616401672363 11.638672828674316 7.137272357940674 11.638672828674316 7.227541923522949 L11.638672828674316 7.512419700622559 C11.701176643371582 7.415177822113037 11.749860763549805 7.345701694488525 11.78447437286377 7.297142505645752 C11.888689041137695 7.137396812438965 11.944344520568848 7.005416393280029 11.944344520568848 6.894228935241699 L11.944344520568848 6.533026695251465 L12.770964622497559 6.533026695251465 L12.770964622497559 6.963705539703369 C12.715558052062988 6.984498977661133 12.680695533752441 7.005416393280029 12.666874885559082 7.019237041473389 C12.659777641296387 7.026209354400635 12.632136344909668 7.0608229637146 12.597273826599121 7.1234517097473145 L12.284753799438477 7.630579948425293 L12.638859748840332 8.332191467285156 C12.666874885559082 8.380874633789062 12.680695533752441 8.40864086151123 12.687542915344238 8.42246150970459 C12.722281455993652 8.471145629882812 12.7571439743042 8.50588321685791 12.812799453735352 8.533649444580078 L12.812799453735352 8.96432876586914 L11.944344520568848 8.96432876586914 L11.944344520568848 8.665629386901855 C11.944344520568848 8.582207679748535 11.937372207641602 8.51970386505127 11.923551559448242 8.478117942810059 C11.909730911254883 8.436407089233398 11.881840705871582 8.380874633789062 11.840254783630371 8.297453880310059 L11.645770072937012 7.908360958099365 L11.63879680633545 8.269563674926758 C11.63879680633545 8.346012115478516 11.63879680633545 8.408515930175781 11.652742385864258 8.450102806091309 C11.659714698791504 8.491813659667969 11.68050765991211 8.519579887390137 11.722219467163086 8.533400535583496 L11.722219467163086 8.964078903198242 L10.798356056213379 8.964078903198242 L10.798356056213379 8.533400535583496 C10.833094596862793 8.505634307861328 10.853887557983398 8.484716415405273 10.860859870910645 8.463922500610352 C10.874680519104004 8.443130493164062 10.874680519104004 8.401419639587402 10.874680519104004 8.33194351196289 L10.874680519104004 7.192927837371826 C10.874680519104004 7.1234517097473145 10.874680519104004 7.081740856170654 10.860859870910645 7.04700231552124 C10.853887557983398 7.012264251708984 10.826122283935547 6.984498977661133 10.798356056213379 6.963705539703369 L10.798356056213379 6.532902240753174 L10.798232078552246 6.532902240753174 L10.798232078552246 6.532902240753174 M12.972546577453613 8.102846145629883 L13.715744018554688 8.102846145629883 L13.715744018554688 8.207059860229492 A0.10072838515043259 0.10072838515043259 0.0 0 1 13.701923370361328 8.255743026733398 C13.701923370361328 8.32521915435791 13.709020614624023 8.38075065612793 13.72968864440918 8.415489196777344 C13.75060749053955 8.46417236328125 13.799290657043457 8.484966278076172 13.861794471740723 8.484966278076172 C13.903629302978516 8.484966278076172 13.945216178894043 8.471145629882812 13.972981452941895 8.436407089233398 C14.000747680664062 8.401668548583984 14.014816284179688 8.353109359741211 14.014816284179688 8.290481567382812 L14.014816284179688 8.207183837890625 C13.986802101135254 8.109942436218262 13.88956069946289 8.033493995666504 13.722966194152832 7.998754501342773 C13.549274444580078 7.957169055938721 13.410198211669922 7.9154582023620605 13.312954902648926 7.8737473487854 C13.153209686279297 7.811243534088135 13.04911994934082 7.714001655578613 12.993463516235352 7.588869094848633 C12.95187759399414 7.498474597930908 12.930959701538086 7.366494655609131 12.930959701538086 7.1997761726379395 C12.930959701538086 6.949635982513428 13.007533073425293 6.769096851348877 13.160305976867676 6.6440887451171875 C13.306232452392578 6.532902240753174 13.507564544677734 6.4843430519104 13.778497695922852 6.4843430519104 C14.111933708190918 6.4843430519104 14.424577713012695 6.56764030456543 14.709456443786621 6.734358787536621 L14.709456443786621 7.310963153839111 L14.000871658325195 7.310963153839111 L14.000871658325195 7.22766637802124 C14.000871658325195 7.15818977355957 13.987051010131836 7.109506130218506 13.973106384277344 7.067920207977295 C13.952188491821289 7.033182144165039 13.917698860168457 7.012264251708984 13.86901569366455 7.012264251708984 C13.806511878967285 7.012264251708984 13.764677047729492 7.026209354400635 13.73691177368164 7.0539751052856445 A0.17032933235168457 0.17032933235168457 0.0 0 0 13.702173233032227 7.15818977355957 C13.702173233032227 7.21372127532959 13.709270477294922 7.255431652069092 13.729938507080078 7.283321857452393 C13.757953643798828 7.32490873336792 13.813360214233398 7.3527984619140625 13.903754234313965 7.380564212799072 A4.090145111083984 4.090145111083984 0.0 0 0 14.181411743164062 7.463860988616943 C14.292598724365234 7.498599052429199 14.382991790771484 7.5333380699157715 14.44549560546875 7.561103343963623 C14.556683540344238 7.623607158660889 14.63998031616211 7.686110973358154 14.688663482666016 7.7625603675842285 C14.758015632629395 7.866774559020996 14.785656929016113 8.019547462463379 14.785656929016113 8.214032173156738 C14.785656929016113 8.332191467285156 14.771836280822754 8.436407089233398 14.744070053100586 8.526676177978516 C14.716304779052734 8.617070198059082 14.667745590209961 8.693394660949707 14.605241775512695 8.769844055175781 C14.528918266296387 8.846168518066406 14.417481422424316 8.908797264099121 14.285750389099121 8.950508117675781 C14.153645515441895 8.992094039916992 14.000747680664062 9.013011932373047 13.834153175354004 9.013011932373047 C13.681130409240723 9.013011932373047 13.535578727722168 8.999066352844238 13.403473854064941 8.96432876586914 C13.2366304397583 8.92261791229248 13.090705871582031 8.853139877319336 12.972795486450195 8.762870788574219 L12.972795486450195 8.102846145629883 L12.972546577453613 8.102846145629883 L12.972546577453613 8.102846145629883 M5.087965965270996 2.2883644104003906 L5.900765419006348 2.2883644104003906 L5.900765419006348 2.6635122299194336 C5.866027355194092 2.691277503967285 5.845109939575195 2.712071418762207 5.83826208114624 2.7398366928100586 C5.831289291381836 2.7677268981933594 5.824441432952881 2.8162851333618164 5.824441432952881 2.899582862854004 L5.824441432952881 3.149724006652832 C5.8869452476501465 3.0664262771606445 5.928656101226807 3.0037975311279297 5.956421852111816 2.9552392959594727 C6.046691417694092 2.823258399963379 6.095375061035156 2.7052230834960938 6.095375061035156 2.601008415222168 L6.095375061035156 2.2883644104003906 L6.8247528076171875 2.2883644104003906 L6.8247528076171875 2.6635122299194336 C6.776069641113281 2.684305191040039 6.7484283447265625 2.6982507705688477 6.734358787536621 2.719043731689453 C6.727385997772217 2.726016044616699 6.706592559814453 2.753781318664551 6.671854496002197 2.8093128204345703 L6.40092134475708 3.2539377212524414 L6.706592559814453 3.872128486633301 C6.734358787536621 3.913839340209961 6.7483038902282715 3.9416046142578125 6.755151748657227 3.955425262451172 C6.782917499542236 3.9901647567749023 6.817655563354492 4.024901390075684 6.859366416931152 4.0458197593688965 L6.859366416931152 4.4278154373168945 L6.095125675201416 4.4278154373168945 L6.095125675201416 4.163855075836182 A0.852891743183136 0.852891743183136 0.0 0 0 6.081305027008057 4.0041093826293945 C6.067484378814697 3.9625234603881836 6.046566963195801 3.913839340209961 6.004856109619141 3.844363212585449 L5.831164836883545 3.496980667114258 L5.824192523956299 3.8165969848632812 C5.824192523956299 3.886073112487793 5.831164836883545 3.9346323013305664 5.838013172149658 3.9763431549072266 C5.844985485076904 4.011082172393799 5.865902900695801 4.031874656677246 5.900516986846924 4.0458197593688965 L5.900516986846924 4.4278154373168945 L5.087717056274414 4.4278154373168945 L5.087717056274414 4.0458197593688965 C5.115482807159424 4.025026798248291 5.13640022277832 4.0041093826293945 5.143248558044434 3.9902877807617188 C5.15022087097168 3.9694957733154297 5.157193660736084 3.927783966064453 5.157193660736084 3.872128486633301 L5.157193660736084 2.864969253540039 A0.5154703259468079 0.5154703259468079 0.0 0 0 5.143248558044434 2.739961624145508 C5.136275768280029 2.71219539642334 5.115482807159424 2.6844301223754883 5.087717056274414 2.663637161254883 L5.087717056274414 2.2883644104003906 L5.087965965270996 2.2883644104003906 L5.087965965270996 2.2883644104003906 M8.241798400878906 2.2883644104003906 L8.519579887390137 3.6777687072753906 C8.540496826171875 3.802776336669922 8.561290740966797 3.879225730895996 8.561290740966797 3.9069910049438477 C8.582083702087402 3.9765920639038086 8.6168212890625 4.025150299072266 8.665504455566406 4.0459442138671875 L8.665504455566406 4.4279398918151855 L7.817966938018799 4.4279398918151855 L7.817966938018799 4.0459442138671875 C7.866650104522705 4.031999111175537 7.894415855407715 3.997260093688965 7.894415855407715 3.934756278991699 L7.894415855407715 3.8652801513671875 L7.567826747894287 3.8652801513671875 L7.554006099700928 3.934756278991699 C7.554006099700928 3.9694957733154297 7.567826747894287 3.997260093688965 7.581772327423096 4.018054485321045 A0.08815290033817291 0.08815290033817291 0.0 0 0 7.644275665283203 4.0458197593688965 L7.644275665283203 4.4278154373168945 L6.907925128936768 4.4278154373168945 L6.907925128936768 4.0458197593688965 C6.935690879821777 4.031874656677246 6.956483840942383 3.9971370697021484 6.970429420471191 3.9625234603881836 C6.9774017333984375 3.920811653137207 6.991222381591797 3.872128486633301 7.005167484283447 3.802776336669922 L7.290045738220215 2.2883644104003906 L8.241798400878906 2.2883644104003906 L8.241798400878906 2.2883644104003906 M7.831912040710449 3.4485464096069336 L7.713876724243164 2.816411018371582 L7.609662055969238 3.4485464096069336 L7.831912040710449 3.4485464096069336 L7.831912040710449 3.4485464096069336 M8.623794555664062 2.2883644104003906 L10.47164249420166 2.2883644104003906 L10.47164249420166 3.2539377212524414 L9.999377250671387 3.2539377212524414 L9.999377250671387 2.892735481262207 C9.999377250671387 2.851024627685547 9.99240493774414 2.823258399963379 9.985432624816895 2.802340507507324 C9.971611976623535 2.7607545852661133 9.936749458312988 2.7398366928100586 9.888190269470215 2.7398366928100586 L9.881217956542969 3.8652801513671875 C9.881217956542969 3.927783966064453 9.888190269470215 3.9694957733154297 9.895038604736328 3.9902877807617188 C9.90898323059082 4.011082172393799 9.922928810119629 4.031874656677246 9.957542419433594 4.0458197593688965 L9.957542419433594 4.4278154373168945 L9.144742965698242 4.4278154373168945 L9.144742965698242 4.0458197593688965 C9.17948055267334 4.031874656677246 9.193426132202148 4.0041093826293945 9.207246780395508 3.9693708419799805 C9.214219093322754 3.9416046142578125 9.214219093322754 3.8998937606811523 9.214219093322754 3.8581838607788086 L9.214219093322754 2.7397117614746094 C9.165535926818848 2.7397117614746094 9.130922317504883 2.753657341003418 9.116976737976074 2.7814226150512695 C9.103032112121582 2.809189796447754 9.096183776855469 2.8508987426757812 9.096183776855469 2.906431198120117 L9.096183776855469 3.2538137435913086 L8.623794555664062 3.2538137435913086 L8.623794555664062 2.2883644104003906 L8.623794555664062 2.2883644104003906 M10.596776008605957 3.8167219161987305 L10.596776008605957 2.899707794189453 C10.596776008605957 2.6565399169921875 10.666252136230469 2.489821434020996 10.805204391479492 2.3857316970825195 C10.93021297454834 2.2884883880615234 11.124696731567383 2.239805221557617 11.402603149414062 2.239805221557617 C11.666563034057617 2.239805221557617 11.868020057678223 2.2884883880615234 11.993151664733887 2.3787593841552734 C12.12525749206543 2.48284912109375 12.19448471069336 2.6565399169921875 12.19448471069336 2.899707794189453 L12.19448471069336 3.8167219161987305 C12.19448471069336 4.0459442138671875 12.131980895996094 4.212662696838379 12.006972312927246 4.316877365112305 C11.881964683532715 4.4210920333862305 11.68050765991211 4.476623058319092 11.402603149414062 4.476623058319092 C11.11784839630127 4.476623058319092 10.91639232635498 4.4210920333862305 10.791259765625 4.316877365112305 C10.659278869628906 4.212662696838379 10.596776008605957 4.0459442138671875 10.596776008605957 3.8167219161987305 L10.596776008605957 3.8167219161987305 M11.527485847473145 3.844487190246582 L11.527485847473145 2.8789148330688477 C11.527485847473145 2.823383331298828 11.520637512207031 2.7885208129882812 11.506692886352539 2.7607545852661133 C11.485899925231934 2.726016044616699 11.45116138458252 2.7052230834960938 11.402478218078613 2.7052230834960938 C11.353795051574707 2.7052230834960938 11.319181442260742 2.719167709350586 11.298262596130371 2.7539072036743164 C11.277469635009766 2.7886438369750977 11.27049732208252 2.823383331298828 11.27049732208252 2.8789148330688477 L11.27049732208252 3.844487190246582 C11.27049732208252 3.8931703567504883 11.277469635009766 3.934882164001465 11.298262596130371 3.962646484375 C11.319055557250977 3.9973859786987305 11.353795051574707 4.011331081390381 11.402478218078613 4.011331081390381 C11.444064140319824 4.011331081390381 11.471954345703125 3.990536689758301 11.49274730682373 3.962646484375 C11.513665199279785 3.934882164001465 11.527485847473145 3.8931703567504883 11.527485847473145 3.844487190246582 L11.527485847473145 3.844487190246582 M12.326464653015137 2.2883644104003906 L13.167154312133789 2.2883644104003906 L13.167154312133789 2.6635122299194336 C13.118471145629883 2.684305191040039 13.090580940246582 2.719043731689453 13.090580940246582 2.7677268981933594 L13.090580940246582 2.7954931259155273 L13.174002647399902 3.4555187225341797 L13.403349876403809 2.2883644104003906 L13.813111305236816 2.2883644104003906 L14.04918098449707 3.4484214782714844 L14.118782043457031 2.8370790481567383 L14.118782043457031 2.781548500061035 C14.118782043457031 2.7468090057373047 14.118782043457031 2.726016044616699 14.104961395263672 2.712071418762207 C14.097864151000977 2.691277503967285 14.07719612121582 2.677332878112793 14.04930591583252 2.6635122299194336 L14.04930591583252 2.2883644104003906 L14.771836280822754 2.2883644104003906 L14.771836280822754 2.6635122299194336 C14.737346649169922 2.6982507705688477 14.709332466125488 2.7398366928100586 14.702484130859375 2.7954931259155273 C14.688663482666016 2.8441762924194336 14.68156623840332 2.892735481262207 14.674469947814941 2.9205007553100586 L14.396812438964844 4.4279398918151855 L13.750732421875 4.4279398918151855 L13.563220024108887 3.4068355560302734 L13.347818374633789 4.4279398918151855 L12.722654342651367 4.4279398918151855 L12.43790054321289 2.899707794189453 C12.424079895019531 2.823383331298828 12.410135269165039 2.7746992111206055 12.39631462097168 2.7469348907470703 C12.38249397277832 2.719167709350586 12.36120319366455 2.691277503967285 12.326464653015137 2.663637161254883 L12.326464653015137 2.2883644104003906 L12.326464653015137 2.2883644104003906 M14.889871597290039 2.2883644104003906 L15.709643363952637 2.2883644104003906 L15.709643363952637 2.6635122299194336 C15.674904823303223 2.684305191040039 15.653987884521484 2.712071418762207 15.647139549255371 2.7329893112182617 C15.640042304992676 2.753781318664551 15.63306999206543 2.8024654388427734 15.63306999206543 2.8719425201416016 L15.63306999206543 3.8236942291259766 C15.63306999206543 3.9001426696777344 15.640167236328125 3.948701858520508 15.647139549255371 3.9694957733154297 A0.3486272692680359 0.3486272692680359 0.0 0 0 15.709643363952637 4.052792072296143 L15.709643363952637 4.4279398918151855 L14.896967887878418 4.4279398918151855 L14.889871597290039 4.0459442138671875 C14.91763687133789 4.031999111175537 14.938554763793945 4.011205673217773 14.94527816772461 3.983440399169922 C14.959348678588867 3.955674171447754 14.966195106506348 3.92093563079834 14.966195106506348 3.879349708557129 L14.966195106506348 2.823507308959961 A0.308784157037735 0.308784157037735 0.0 0 0 14.952374458312988 2.7331132888793945 C14.94527816772461 2.705348014831543 14.924609184265137 2.6844301223754883 14.889871597290039 2.663637161254883 L14.889871597290039 2.2883644104003906 M16.800350189208984 3.0733985900878906 L16.800350189208984 2.8789148330688477 C16.800350189208984 2.816411018371582 16.793251037597656 2.7677268981933594 16.772335052490234 2.7469348907470703 C16.751665115356445 2.719167709350586 16.723649978637695 2.7052230834960938 16.675090789794922 2.7052230834960938 C16.59876823425293 2.7052230834960938 16.55718231201172 2.7607545852661133 16.55718231201172 2.8789148330688477 L16.55718231201172 3.844487190246582 C16.55718231201172 3.9069910049438477 16.571001052856445 3.955674171447754 16.5919189453125 3.9765920639038086 C16.612586975097656 3.9973859786987305 16.640602111816406 4.011331081390381 16.68218994140625 4.011331081390381 C16.72377586364746 4.011331081390381 16.758512496948242 3.9973859786987305 16.77943229675293 3.969618797302246 C16.793251037597656 3.934882164001465 16.800350189208984 3.9001426696777344 16.800350189208984 3.8446121215820312 L16.800350189208984 3.5319671630859375 L17.446304321289062 3.5319671630859375 L17.446304321289062 4.24055290222168 C17.342214584350586 4.330822467803955 17.210235595703125 4.393326282501221 17.050365447998047 4.428064346313477 C16.932205200195312 4.455954551696777 16.80719757080078 4.476747989654541 16.68218994140625 4.476747989654541 C16.411256790161133 4.476747989654541 16.209924697875977 4.4212164878845215 16.077817916870117 4.31002950668335 C15.952811241149902 4.205814838409424 15.88333511352539 4.032123565673828 15.88333511352539 3.795928955078125 L15.88333511352539 2.858121871948242 C15.88333511352539 2.663637161254883 15.945838928222656 2.510739326477051 16.06399917602539 2.413496971130371 C16.189006805419922 2.295461654663086 16.390338897705078 2.239805221557617 16.661272048950195 2.239805221557617 C16.814294815063477 2.239805221557617 16.960094451904297 2.267571449279785 17.105770111083984 2.316255569458008 C17.237876892089844 2.3579654693603516 17.34893798828125 2.406649589538574 17.446182250976562 2.4760007858276367 L17.446182250976562 3.0733985900878906 L16.800350189208984 3.0733985900878906 L16.800350189208984 3.0733985900878906 M17.640790939331055 2.2883644104003906 L19.245595932006836 2.2883644104003906 L19.245595932006836 3.010894775390625 L18.634252548217773 3.010894775390625 L18.634252548217773 2.9414186477661133 C18.634252548217773 2.858121871948242 18.61333465576172 2.8024654388427734 18.5855712890625 2.7746992111206055 C18.557804107666016 2.7539072036743164 18.49530029296875 2.739961624145508 18.391084671020508 2.739961624145508 L18.391084671020508 3.1220827102661133 L18.80794334411621 3.1220827102661133 L18.80794334411621 3.5389404296875 L18.391084671020508 3.5389404296875 L18.391084671020508 3.9765920639038086 C18.495426177978516 3.9765920639038086 18.55792999267578 3.962646484375 18.5855712890625 3.934882164001465 C18.61333465576172 3.914088249206543 18.634252548217773 3.8515844345092773 18.634252548217773 3.754218101501465 L18.634252548217773 3.650003433227539 L19.245595932006836 3.650003433227539 L19.245595932006836 4.428064346313477 L17.640790939331055 4.428064346313477 L17.640790939331055 4.0460686683654785 C17.668556213378906 4.032123565673828 17.68262481689453 4.004358291625977 17.69644546508789 3.9765920639038086 C17.70329475402832 3.941854476928711 17.71026611328125 3.9069910049438477 17.71026611328125 3.8654050827026367 L17.71026611328125 2.8373279571533203 C17.71026611328125 2.7886438369750977 17.703168869018555 2.754030227661133 17.69644546508789 2.7331132888793945 C17.689350128173828 2.705348014831543 17.668432235717773 2.6844301223754883 17.640790939331055 2.663637161254883 L17.640790939331055 2.2883644104003906" fill="black" fill-opacity="1.0" filling="0"/></svg>