<?xml version="1.0" encoding="iso-8859-1"?><svg height="200px" viewBox="0.0 0.0 24.0 24.0" width="200px" xmlns="http://www.w3.org/2000/svg"><path animation_id="0" d="M0.0 0.0 L24.0 0.0 L24.0 24.0 L0.0 24.0 L0.0 0.0" fill="black" fill-opacity="1.0" filling="0"/>
<path animation_id="1" d="M13.402104377746582 10.838199615478516 C13.48042106628418 10.534396171569824 13.519516944885254 10.093133926391602 13.500093460083008 9.534333229064941 C13.48042106628418 8.975533485412598 13.411816596984863 8.553943634033203 13.313827514648438 8.259851455688477 C13.17636775970459 7.906991481781006 12.951005935668945 7.573678493499756 12.617568016052246 7.269626140594482 C12.284380912780762 6.965697765350342 11.980452537536621 6.8089399337768555 11.715744972229004 6.8089399337768555 L8.696009635925293 6.8089399337768555 L8.99010181427002 7.436344146728516 C8.803834915161133 7.25978946685791 8.588059425354004 7.112743854522705 8.352860450744629 6.98537015914917 C8.117537498474121 6.87754487991333 7.9215593338012695 6.8186516761779785 7.745129108428955 6.8186516761779785 L4.764739036560059 6.8186516761779785 L4.843180179595947 7.063811779022217 C4.470522403717041 6.789267539978027 3.980327606201172 6.652057647705078 3.3724708557128906 6.652057647705078 C3.1077632904052734 6.652057647705078 2.843179702758789 6.720662593841553 2.5685110092163086 6.857996940612793 C2.3039283752441406 6.995206356048584 2.0684804916381836 7.181473255157471 1.8528289794921875 7.42650842666626 C1.3724708557128906 7.955923557281494 1.1273117065429688 8.583328247070312 1.1273117065429688 9.289299011230469 C1.1273117065429688 10.014816284179688 1.186079978942871 10.60300064086914 1.303741455078125 11.034427642822266 C1.40185546875 11.416796684265137 1.5782861709594727 11.809002876281738 1.8331565856933594 12.201083183288574 C1.9508190155029297 12.377513885498047 2.235074043273926 12.671606063842773 2.686173439025879 13.112744331359863 C3.107638359069824 13.5048246383667 3.3429622650146484 13.769657135009766 3.40185546875 13.916703224182129 C3.519516944885254 14.16186237335205 3.529353141784668 14.407022476196289 3.431239128112793 14.63238525390625 C3.3332509994506836 14.84803581237793 3.1763687133789062 14.955986022949219 2.96071720123291 14.955986022949219 C2.823383331298828 14.916765213012695 2.5685110092163086 14.720537185668945 2.1764307022094727 14.377513885498047 L1.058706283569336 13.279586791992188 L1.392019271850586 16.299196243286133 C1.6176300048828125 16.583454132080078 1.8528289794921875 16.818777084350586 2.127248764038086 17.00516700744629 C2.4508495330810547 17.230655670166016 2.76448917388916 17.348316192626953 3.058582305908203 17.348316192626953 C3.8625411987304688 17.348316192626953 4.568387508392334 16.877668380737305 5.166407108306885 15.956048965454102 C5.146859645843506 16.12276840209961 5.088090896606445 16.318744659423828 4.98997688293457 16.524559020996094 L4.813546657562256 16.897218704223633 L7.872377872467041 16.897218704223633 L7.666438579559326 16.416858673095703 C7.558613300323486 16.17169952392578 7.509556293487549 15.9658842086792 7.509556293487549 15.789329528808594 L7.509556293487549 12.828612327575684 C8.17618179321289 12.760007858276367 8.715433120727539 12.387474060058594 9.10763931274414 11.730560302734375 L9.10763931274414 15.808877944946289 C9.10763931274414 15.985431671142578 8.999813079833984 16.348129272460938 8.77432632446289 16.887380599975586 L11.833406448364258 16.887380599975586 L11.627467155456543 16.35796546936035 C11.549150466918945 16.152027130126953 11.500093460083008 15.9658842086792 11.48042106628418 15.808877944946289 C11.598082542419434 16.11280632019043 11.706032752990723 16.328582763671875 11.794185638427734 16.446243286132812 C11.951067924499512 16.63238525390625 12.166719436645508 16.789390563964844 12.441262245178223 16.916641235351562 C12.676461219787598 17.014755249023438 12.872689247131348 17.063812255859375 13.029571533203125 17.063812255859375 C13.244973182678223 17.063812255859375 13.460748672485352 17.005043029785156 13.676399230957031 16.897218704223633 L18.05876922607422 16.897218704223633 C17.872501373291016 16.318744659423828 17.774513244628906 15.916828155517578 17.754840850830078 15.681504249572754 C17.745128631591797 15.514785766601562 17.764801025390625 15.093195915222168 17.823694229125977 14.41673469543457 L18.02938461303711 15.220569610595703 C18.117660522460938 15.53445816040039 18.21565055847168 15.789204597473145 18.313640594482422 15.985431671142578 C18.588184356689453 16.514848709106445 19.0096492767334 16.808940887451172 19.578411102294922 16.877544403076172 L19.921558380126953 16.897218704223633 C19.931270599365234 16.622549057006836 19.950942993164062 16.40702247619629 19.980453491210938 16.240304946899414 L20.2744197845459 14.41673469543457 C20.30380630493164 15.348067283630371 20.28413200378418 15.946086883544922 20.225486755371094 16.210918426513672 L20.0 16.897218704223633 L22.9410457611084 16.897218704223633 C22.784162521362305 16.5734920501709 22.676462173461914 16.20108413696289 22.587934494018555 15.769657135009766 C22.558799743652344 15.602938652038574 22.460561752319336 14.32845687866211 22.313640594482422 11.955924034118652 C22.156757354736328 9.612774848937988 22.088153839111328 8.32845687866211 22.088153839111328 8.102970123291016 C22.088153839111328 7.857934474945068 22.225364685058594 7.436344146728516 22.51957893371582 6.8186516761779785 L19.82344627380371 6.8186516761779785 L19.303741455078125 10.063749313354492 L18.54896354675293 6.8186516761779785 L13.421402931213379 6.8186516761779785 C13.705659866333008 7.475565433502197 13.843117713928223 7.906867027282715 13.843117713928223 8.102970123291016 L13.843117713928223 15.602938652038574 L12.813672065734863 12.161738395690918 C13.0686674118042 11.818589210510254 13.264646530151367 11.377450942993164 13.402104377746582 10.838199615478516 L13.402104377746582 10.838199615478516 M16.254871368408203 7.495112895965576 C16.362571716308594 7.720600128173828 16.402042388916016 7.916703224182129 16.402042388916016 8.083296775817871 L16.07856559753418 15.39699935913086 L16.137210845947266 8.102846145629883 C16.1370849609375 7.897030353546143 16.176555633544922 7.700927734375 16.254871368408203 7.495112895965576 L16.254871368408203 7.495112895965576 M3.499969482421875 9.916704177856445 C3.303865432739258 9.730436325073242 3.2548093795776367 9.524621963500977 3.3529233932495117 9.269625663757324 C3.3823070526123047 9.181472778320312 3.4410762786865234 9.093194961547852 3.499969482421875 9.034302711486816 C3.5685739517211914 8.965822219848633 3.627467155456543 8.93631362915039 3.6862363815307617 8.93631362915039 C3.784348487854004 8.975533485412598 3.9607791900634766 9.093194961547852 4.186266899108887 9.25991439819336 C4.35298490524292 9.387287139892578 4.627404689788818 9.612774848937988 5.000062465667725 9.946212768554688 L5.000062465667725 7.367615222930908 C5.147233009338379 7.7402729988098145 5.215713024139404 8.004980087280273 5.215713024139404 8.161738395690918 L5.215713024139404 11.730436325073242 C4.823507785797119 11.18134880065918 4.254871368408203 10.573492050170898 3.499969482421875 9.916704177856445 L3.499969482421875 9.916704177856445" fill="black" fill-opacity="1.0" filling="0"/>
<path animation_id="2" d="M1.5882463455200195 9.28917407989502 C1.5882463455200195 10.22050666809082 1.6863603591918945 10.926352500915527 1.882338523864746 11.377326965332031 C1.9804515838623047 11.62236213684082 2.137209892272949 11.867522239685059 2.343149185180664 12.112556457519531 C2.5097427368164062 12.318371772766113 2.7549028396606445 12.573368072509766 3.078378677368164 12.877296447753906 C3.499969482421875 13.269500732421875 3.7450037002563477 13.553881645202637 3.8234453201293945 13.720351219177246 C3.8920507431030273 13.877233505249023 3.9215593338012695 14.043951988220215 3.9215593338012695 14.240055084228516 C3.9215593338012695 14.426197052001953 3.8920507431030273 14.61246395111084 3.8234453201293945 14.779182434082031 C3.647014617919922 15.191061019897461 3.3723459243774414 15.387163162231445 2.96071720123291 15.387163162231445 C2.715557098388672 15.387163162231445 2.2842559814453125 15.102782249450684 1.6567268371582031 14.514473915100098 L1.8331565856933594 16.151653289794922 A3.48502779006958 3.48502779006958 0.0 0 0 2.3135156631469727 16.602752685546875 C2.5880603790283203 16.80856704711914 2.833218574523926 16.916391372680664 3.058582305908203 16.916391372680664 C3.499720573425293 16.916391372680664 3.9115982055664062 16.749921798706055 4.2841315269470215 16.416484832763672 C4.725269317626953 16.014442443847656 5.01936149597168 15.455644607543945 5.146984100341797 14.72028923034668 C5.244973182678223 13.886944770812988 5.225300312042236 13.18122386932373 5.088090896606445 12.612462997436523 C4.999813079833984 12.338044166564941 4.803710460662842 12.004731178283691 4.509618759155273 11.602814674377441 C4.156757831573486 11.151715278625488 3.7253313064575195 10.69090461730957 3.2056283950805664 10.220382690429688 C3.009524345397949 10.053664207458496 2.8919878005981445 9.857561111450195 2.8527679443359375 9.641910552978516 C2.813547134399414 9.455643653869629 2.842930793762207 9.269376754760742 2.931208610534668 9.073274612426758 C3.009650230407715 8.906679153442383 3.1174755096435547 8.759509086608887 3.2546844482421875 8.651683807373047 C3.401730537414551 8.534022331237793 3.548776626586914 8.47525405883789 3.6859865188598633 8.47525405883789 C3.8428688049316406 8.47525405883789 4.136960983276367 8.641847610473633 4.568387508392334 8.965448379516602 L4.548839092254639 7.386914253234863 C4.244910717010498 7.200647830963135 3.872377395629883 7.112370491027832 3.401730537414551 7.112370491027832 C2.91153621673584 7.112370491027832 2.4899463653564453 7.318184852600098 2.127248764038086 7.730062961578369 C1.7646760940551758 8.161738395690918 1.5882463455200195 8.671606063842773 1.5882463455200195 9.28917407989502 L1.5882463455200195 9.28917407989502 M7.78434944152832 10.083297729492188 C7.78434944152832 10.357841491699219 7.745129108428955 10.691028594970703 7.666687488555908 11.073522567749023 C7.568698406219482 11.553881645202637 7.4313645362854 11.975471496582031 7.254933834075928 12.33816909790039 C8.549088478088379 12.200834274291992 9.205876350402832 11.347942352294922 9.205876350402832 9.759696960449219 C9.205876350402832 8.828363418579102 9.009899139404297 8.151777267456055 8.617692947387695 7.710639476776123 C8.352985382080078 7.416547775268555 8.068605422973633 7.269501209259033 7.745129108428955 7.269501209259033 L5.460748672485352 7.269501209259033 L5.460748672485352 7.308722019195557 C5.558862209320068 7.59310245513916 5.607919216156006 7.857810020446777 5.607919216156006 8.102846145629883 L5.607919216156006 15.818589210510254 C5.607919216156006 15.945838928222656 5.558862209320068 16.142066955566406 5.4805450439453125 16.406898498535156 L5.470709323883057 16.436033248901367 L7.215837478637695 16.436033248901367 L7.196290016174316 16.37726402282715 C7.098300457000732 16.092884063720703 7.059080123901367 15.896906852722168 7.059080123901367 15.788955688476562 L7.059080123901367 8.39681339263916 C7.539189338684082 8.63238525390625 7.78434944152832 9.191184997558594 7.78434944152832 10.083297729492188 M9.421527862548828 7.269626140594482 L9.431364059448242 7.308846473693848 C9.529478073120117 7.612774848937988 9.568573951721191 7.877482891082764 9.568573951721191 8.093133926391602 L9.568573951721191 15.808753967285156 C9.568573951721191 15.936126708984375 9.529478073120117 16.132354736328125 9.441201210021973 16.39706039428711 L9.431364059448242 16.42644691467285 L11.176492691040039 16.42644691467285 L11.156820297241211 16.377389907836914 C11.0686674118042 16.102846145629883 11.019610404968262 15.906866073608398 11.019610404968262 15.789080619812012 L10.970553398132324 12.99508285522461 L11.480297088623047 14.465666770935059 C11.833281517028809 15.465603828430176 12.058768272399902 16.034364700317383 12.156882286071777 16.161863327026367 C12.25487232208252 16.299072265625 12.41175365447998 16.40702247619629 12.627405166625977 16.495176315307617 C12.8037109375 16.5734920501709 12.931333541870117 16.612712860107422 13.029447555541992 16.612712860107422 L13.303990364074707 16.54410743713379 C13.441201210021973 16.49505043029785 13.568573951721191 16.4361572265625 13.676275253295898 16.367551803588867 L13.725456237792969 16.24017906188965 C13.607794761657715 16.142189025878906 13.519516944885254 16.034364700317383 13.470584869384766 15.906866073608398 C13.411691665649414 15.799041748046875 13.215713500976562 15.142127990722656 12.85289192199707 13.936251640319824 L12.303804397583008 12.073461532592773 A8.644462585449219 8.644462585449219 0.0 0 0 12.63724136352539 11.603063583374023 C12.7352294921875 11.426508903503418 12.843180656433105 11.132416725158691 12.96071720123291 10.700989723205566 C13.117599487304688 10.11280632019043 13.117599487304688 9.36761474609375 12.96071720123291 8.455955505371094 C12.901824951171875 8.152026176452637 12.725519180297852 7.867646217346191 12.431550979614258 7.612774848937988 C12.166719436645508 7.3872880935668945 11.92155933380127 7.269626140594482 11.715744972229004 7.269626140594482 L9.421527862548828 7.269626140594482 L9.421527862548828 7.269626140594482 M11.715744972229004 10.0343656539917 C11.69607162475586 10.897092819213867 11.460747718811035 11.436344146728516 11.019610404968262 11.651995658874512 L11.019610404968262 8.37751293182373 C11.499969482421875 8.73037338256836 11.735292434692383 9.279337882995605 11.715744972229004 10.0343656539917 M15.676275253295898 8.102970123291016 C15.676275253295898 7.897030353546143 15.754840850830078 7.622611045837402 15.901886940002441 7.269626140594482 L14.097989082336426 7.269626140594482 C14.235198974609375 7.661707401275635 14.303679466247559 7.936251163482666 14.303679466247559 8.102970123291016 L14.303679466247559 15.818714141845703 L14.225362777709961 16.12251853942871 C14.17618179321289 16.289112091064453 14.127372741699219 16.387102127075195 14.088153839111328 16.4361572265625 L15.793811798095703 16.4361572265625 L15.833157539367676 16.367551803588867 C15.72520637512207 16.142066955566406 15.676025390625 15.955799102783203 15.676025390625 15.818714141845703 L15.676025390625 8.102970123291016 L15.676275253295898 8.102970123291016 L15.676275253295898 8.102970123291016 M16.77457618713379 7.80875301361084 C16.813671112060547 8.034364700317383 16.82350730895996 8.22050666809082 16.82350730895996 8.367677688598633 L16.480358123779297 15.818714141845703 C16.480358123779297 16.00485610961914 16.431425094604492 16.210796356201172 16.333438873291016 16.4361572265625 L17.441076278686523 16.4361572265625 C17.313701629638672 16.151901245117188 17.264522552490234 15.789204597473145 17.27448272705078 15.357778549194336 L17.597957611083984 10.995081901550293 C17.951066970825195 13.07352352142334 18.23532485961914 14.504887580871582 18.470521926879883 15.279462814331055 C18.588184356689453 15.681504249572754 18.754777908325195 15.965760231018066 18.96084213256836 16.151901245117188 C19.108013153076172 16.279399871826172 19.30398941040039 16.367551803588867 19.549150466918945 16.41673469543457 C19.598081588745117 15.642158508300781 19.90201187133789 13.838261604309082 20.47077178955078 10.995206832885742 L20.735355377197266 15.818839073181152 C20.735355377197266 15.97559642791748 20.686424255371094 16.181411743164062 20.59814453125 16.436281204223633 L22.323476791381836 16.436281204223633 C22.235198974609375 16.230466842651367 22.17655372619629 16.044200897216797 22.146923065185547 15.857934951782227 C22.107826232910156 15.681504249572754 22.019550323486328 14.397186279296875 21.852954864501953 11.995268821716309 C21.70578384399414 9.642284393310547 21.62746810913086 8.338293075561523 21.62746810913086 8.103094100952148 C21.62746810913086 7.877607345581055 21.686359405517578 7.603063106536865 21.81373405456543 7.269750595092773 L20.215776443481445 7.269750595092773 L19.382431030273438 12.309033393859863 L18.186267852783203 7.269750595092773 L16.617692947387695 7.269750595092773 C16.676586151123047 7.39712381362915 16.72539520263672 7.573554039001465 16.77457618713379 7.80875301361084 L16.77457618713379 7.80875301361084" fill="black" fill-opacity="1.0" filling="0"/></svg>