<?xml version="1.0" encoding="iso-8859-1"?><svg height="200px" viewBox="0.0 0.0 24.0 24.0" width="200px" xmlns="http://www.w3.org/2000/svg"><path animation_id="0" d="M0.0 0.0 L24.0 0.0 L24.0 24.0 L0.0 24.0 L0.0 0.0" fill="black" fill-opacity="1.0" filling="0"/>
<path animation_id="1" d="M12.0 19.080869674682617 C18.042457580566406 19.080869674682617 22.94116973876953 15.910478591918945 22.94116973876953 12.0 C22.94116973876953 8.089398384094238 18.042457580566406 4.919130802154541 12.0 4.919130802154541 C5.957417964935303 4.919130802154541 1.0588302612304688 8.089398384094238 1.0588302612304688 12.0 C1.0588302612304688 15.910478591918945 5.957417964935303 19.080869674682617 12.0 19.080869674682617 L12.0 19.080869674682617" fill="black" fill-opacity="1.0" filling="0"/>
<path animation_id="2" d="M12.0 18.67671012878418 C17.804893493652344 18.67671012878418 22.510738372802734 15.687480926513672 22.510738372802734 12.0 C22.510738372802734 8.312520027160645 17.804893493652344 5.323164939880371 12.0 5.323164939880371 C6.1951069831848145 5.323164939880371 1.4892606735229492 8.312520027160645 1.4892606735229492 12.0 C1.4891366958618164 15.687480926513672 6.1951069831848145 18.67671012878418 12.0 18.67671012878418" fill="black" fill-opacity="1.0" filling="0"/>
<path animation_id="3" d="M11.273859024047852 6.4152398109436035 C12.075204849243164 6.4152398109436035 13.3490629196167 6.538504600524902 14.150283813476562 6.538504600524902 C15.218576431274414 6.538504600524902 15.691091537475586 6.312519550323486 15.79368782043457 6.312519550323486 C16.081430435180664 6.312519550323486 16.389467239379883 7.0315632820129395 16.389467239379883 7.113863945007324 C16.389467239379883 7.237128734588623 16.122392654418945 7.750731468200684 15.691091537475586 8.346510887145996 C15.280084609985352 8.901201248168945 15.094066619873047 8.91029167175293 14.499533653259277 8.983378410339355 C14.029509544372559 9.041150093078613 13.912718772888184 9.195792198181152 13.694328308105469 10.11766242980957 C13.387661933898926 11.413310050964355 13.066675186157227 12.875553131103516 12.89161491394043 13.871631622314453 C12.573243141174316 15.683371543884277 12.527050018310547 17.24260711669922 12.527050018310547 17.24260711669922 C12.527050018310547 17.427379608154297 12.506629943847656 17.468467712402344 12.403785705566406 17.468467712402344 C12.054659843444824 17.468467712402344 10.544979095458984 17.120712280273438 10.309282302856445 17.042396545410156 C9.931146621704102 16.917139053344727 9.650751113891602 16.420595169067383 9.650751113891602 16.194608688354492 C9.650751113891602 16.153520584106445 9.732926368713379 16.194608688354492 10.472515106201172 12.660897254943848 C11.047874450683594 9.907737731933594 11.273859024047852 9.394135475158691 11.273859024047852 9.127062797546387 C11.273859024047852 8.921621322631836 11.212226867675781 8.839320182800293 10.94515323638916 8.839320182800293 C10.858245849609375 8.839320182800293 10.310900688171387 8.870945930480957 9.931893348693848 8.904314041137695 C9.192305564880371 8.969308853149414 8.911162376403809 8.674966812133789 8.911162376403809 8.017431259155273 C8.911162376403809 7.955799102783203 9.342589378356934 6.866837024688721 9.630206108093262 6.661396026611328 C9.794683456420898 6.559049129486084 10.20556640625 6.4152398109436035 11.273859024047852 6.4152398109436035 L11.273859024047852 6.4152398109436035" fill="black" fill-opacity="1.0" filling="0"/>
<path animation_id="4" d="M9.73454475402832 6.888003349304199 C9.700304985046387 6.905185699462891 9.408454895019531 7.308597564697266 9.312705993652344 7.66855525970459 C9.293780326843262 7.739899158477783 9.237503051757812 7.928905010223389 9.392019271850586 7.969245910644531 C9.761564254760742 8.065492630004883 10.92846965789795 7.990288734436035 11.50345516204834 8.070721626281738 C11.702173233032227 8.098487854003906 11.834028244018555 8.169333457946777 11.751852989196777 8.533400535583496 C11.454024314880371 9.850961685180664 10.104339599609375 14.886883735656738 10.104339599609375 15.907240867614746 C10.104339599609375 16.071592330932617 10.207059860229492 16.174314498901367 10.289236068725586 16.21540069580078 C10.33032512664795 16.23607063293457 11.501462936401367 16.482601165771484 11.54255199432373 16.482601165771484 C11.692336082458496 16.482601165771484 11.772147178649902 16.383615493774414 11.806386947631836 16.078689575195312 C12.223620414733887 12.36257266998291 12.779057502746582 10.498910903930664 13.207494735717773 8.81167984008789 C13.289671897888184 8.487580299377441 13.429994583129883 8.238062858581543 13.74400806427002 8.205690383911133 C14.063499450683594 8.172819137573242 14.547220230102539 8.187512397766113 14.87094497680664 8.017930030822754 C15.158687591552734 7.874120712280273 15.65162181854248 6.990724086761475 15.65162181854248 6.8467912673950195 C15.65162181854248 6.785158634185791 15.590113639831543 6.723526477813721 15.52835750579834 6.723526477813721 C15.425761222839355 6.723526477813721 15.507938385009766 6.826246738433838 13.782108306884766 6.826246738433838 C13.535578727722168 6.826246738433838 12.34389591217041 6.661893844604492 11.460498809814453 6.661893844604492 C10.741331100463867 6.662018299102783 9.939986228942871 6.764739036560059 9.73454475402832 6.888003349304199 L9.73454475402832 6.888003349304199" fill="black" fill-opacity="1.0" filling="0"/>
<path animation_id="5" d="M4.894228935241699 13.1214599609375 C5.2921624183654785 13.03442668914795 5.8291730880737305 13.81186580657959 6.238187313079834 13.81186580657959 C6.40254020690918 13.81186580657959 6.695013523101807 13.72968864440918 6.695013523101807 13.565336227416992 C6.695013523101807 13.277843475341797 4.044574737548828 12.455954551696777 4.044574737548828 10.97677993774414 C4.044574737548828 9.846728324890137 5.5238752365112305 8.98387622833252 7.660586833953857 8.98387622833252 C9.222063064575195 8.98387622833252 9.879474639892578 9.538567543029785 9.879474639892578 10.237067222595215 C9.879474639892578 11.326028823852539 9.139886856079102 11.860175132751465 8.626283645629883 11.860175132751465 C7.722343444824219 11.860175132751465 7.845483779907227 11.243852615356445 7.352549076080322 11.243852615356445 C7.249829292297363 11.243852615356445 7.0443878173828125 11.346572875976562 7.0443878173828125 11.46983814239502 C7.0443878173828125 11.777999877929688 9.181098937988281 12.35323429107666 9.181098937988281 13.852954864501953 C9.181098937988281 15.122580528259277 7.970864772796631 16.255868911743164 6.462677955627441 16.255868911743164 C5.105397701263428 16.255868911743164 3.284566879272461 15.167901992797852 3.284566879272461 13.68860149383545 C3.2844419479370117 13.401107788085938 4.854136943817139 13.130175590515137 4.894228935241699 13.1214599609375 L4.894228935241699 13.1214599609375" fill="black" fill-opacity="1.0" filling="0"/>
<path animation_id="6" d="M4.679698467254639 13.482538223266602 C3.775758743286133 13.482538223266602 3.631824493408203 13.893295288085938 3.631824493408203 13.975472450256348 C3.631824493408203 14.900080680847168 4.758264541625977 15.556869506835938 5.934757232666016 15.556869506835938 C6.643715858459473 15.556869506835938 7.394384860992432 15.302745819091797 7.90773868560791 14.859366416931152 C8.346510887145996 14.480234146118164 8.603872299194336 13.954679489135742 8.603872299194336 13.420656204223633 C8.603872299194336 12.167590141296387 5.892049789428711 11.584759712219238 5.892049789428711 11.050613403320312 C5.892049789428711 10.794123649597168 6.492685317993164 10.605989456176758 6.975285053253174 10.605989456176758 C7.834775447845459 10.605989456176758 7.2316508293151855 10.99632740020752 8.151529312133789 10.99632740020752 C8.416982650756836 10.99632740020752 8.81429386138916 10.92398738861084 9.05223274230957 10.639108657836914 C9.19504451751709 10.468156814575195 9.26115894317627 10.220755577087402 9.26115894317627 9.866275787353516 C9.26115894317627 9.53757095336914 8.445496559143066 9.270498275756836 7.62373161315918 9.270498275756836 C6.668243885040283 9.270498275756836 5.952935695648193 9.420408248901367 5.437215805053711 9.672538757324219 C4.651933193206787 10.056652069091797 4.330324172973633 10.6384859085083 4.330324172973633 10.975658416748047 C4.330324172973633 12.51659107208252 7.062815189361572 12.968437194824219 7.062815189361572 13.564465522766113 C7.062815189361572 13.872626304626465 6.605241775512695 14.200336456298828 5.859179496765137 14.200336456298828 C5.02994441986084 14.20071029663086 5.13179349899292 13.482538223266602 4.679698467254639 13.482538223266602 L4.679698467254639 13.482538223266602" fill="black" fill-opacity="1.0" filling="0"/>
<path animation_id="7" d="M14.468156814575195 14.307912826538086 C14.604619026184082 13.43783950805664 15.157069206237793 11.013633728027344 15.157069206237793 10.689535140991211 C15.157069206237793 10.405030250549316 15.007284164428711 9.984436988830566 14.951627731323242 9.693706512451172 C14.938928604125977 9.627466201782227 14.907800674438477 9.436966896057129 15.09481430053711 9.330262184143066 C15.444313049316406 9.130548477172852 16.22536277770996 8.758264541625977 17.458009719848633 8.758264541625977 C19.327648162841797 8.758264541625977 20.765735626220703 9.826682090759277 20.765735626220703 11.5730562210083 C20.765735626220703 13.134407997131348 19.36861228942871 14.428812026977539 17.97161293029785 14.428812026977539 C17.704538345336914 14.428812026977539 17.51976776123047 14.36705493927002 17.35541343688965 14.36705493927002 C17.026582717895508 14.36705493927002 16.944408416748047 14.757641792297363 16.944408416748047 15.908111572265625 C16.944408416748047 16.072463989257812 16.903318405151367 16.11355209350586 16.800722122192383 16.11355209350586 C15.743635177612305 16.11355209350586 14.782295227050781 15.338728904724121 14.492186546325684 14.779680252075195 C14.395941734313965 14.594408988952637 14.448982238769531 14.430181503295898 14.468156814575195 14.307912826538086 L14.468156814575195 14.307912826538086" fill="black" fill-opacity="1.0" filling="0"/>
<path animation_id="8" d="M15.473199844360352 9.439332008361816 C15.20176887512207 9.614145278930664 15.259167671203613 9.915582656860352 15.28469181060791 10.010210037231445 C15.339351654052734 10.212288856506348 15.42501449584961 10.451970100402832 15.42501449584961 10.605989456176758 C15.42501449584961 10.91415023803711 14.685550689697266 14.242545127868652 14.685550689697266 14.509618759155273 C14.685550689697266 14.591794967651367 14.849903106689453 15.2490816116333 15.815601348876953 15.2490816116333 C16.282262802124023 15.2490816116333 16.14019775390625 14.017805099487305 16.278902053833008 13.553881645202637 C16.311025619506836 13.445931434631348 16.355724334716797 13.312830924987793 16.667747497558594 13.432485580444336 C16.8787899017334 13.513416290283203 17.176990509033203 13.626097679138184 17.62348175048828 13.626097679138184 C19.000186920166016 13.626097679138184 20.109569549560547 12.578224182128906 20.109569549560547 11.09917163848877 C20.109569549560547 9.743136405944824 19.123451232910156 9.024092674255371 17.39762306213379 9.024092674255371 C16.331693649291992 9.023967742919922 15.827803611755371 9.210857391357422 15.473199844360352 9.439332008361816 L15.473199844360352 9.439332008361816" fill="black" fill-opacity="1.0" filling="0"/>
<path animation_id="9" d="M16.700864791870117 11.777750968933105 C16.700864791870117 11.256054878234863 16.749549865722656 10.918384552001953 16.82686996459961 10.69974422454834 C16.968685150146484 10.298449516296387 17.20039939880371 10.298449516296387 17.517026901245117 10.298449516296387 C18.359458923339844 10.298449516296387 18.71368980407715 10.769968032836914 18.71368980407715 11.171387672424316 C18.71368980407715 11.917201042175293 18.25748634338379 12.24105167388916 17.837265014648438 12.276412010192871 C17.172882080078125 12.331818580627441 16.700864791870117 12.085911750793457 16.700864791870117 11.777750968933105" fill="black" fill-opacity="1.0" filling="0"/>
<path animation_id="10" d="M18.32048797607422 11.488763809204102 C18.32048797607422 11.303866386413574 18.150531768798828 11.180601119995117 17.773517608642578 11.180601119995117 C17.562223434448242 11.180601119995117 17.436965942382812 11.386042594909668 17.436965942382812 11.632572174072266 C17.436965942382812 11.838013648986816 17.539812088012695 11.961277961730957 17.745378494262695 11.961277961730957 C18.032747268676758 11.961277961730957 18.32048797607422 11.735292434692383 18.32048797607422 11.488763809204102" fill="black" fill-opacity="1.0" filling="0"/></svg>