<?xml version="1.0" encoding="iso-8859-1"?><svg height="200px" viewBox="0.0 0.0 24.0 24.0" width="200px" xmlns="http://www.w3.org/2000/svg"><path animation_id="0" d="M0.0 0.0 L24.0 0.0 L24.0 24.0 L0.0 24.0 L0.0 0.0" fill="black" fill-opacity="1.0" filling="0"/>
<path animation_id="1" d="M12.172571182250977 15.477557182312012 C12.172571182250977 14.974040031433105 12.743821144104004 14.566518783569336 13.44929313659668 14.566518783569336 C14.154516220092773 14.566518783569336 14.726016998291016 14.974040031433105 14.726016998291016 15.477557182312012 C14.726016998291016 15.980077743530273 14.154516220092773 16.388221740722656 13.44929313659668 16.388221740722656 C12.743821144104004 16.388221740722656 12.172571182250977 15.980077743530273 12.172571182250977 15.477557182312012 L12.172571182250977 15.477557182312012" fill="black" fill-opacity="1.0" filling="0"/>
<path animation_id="2" d="M1.0701618194580078 15.77326774597168 C1.0701618194580078 16.0557804107666 1.2006473541259766 16.233083724975586 1.4103221893310547 16.233083724975586 C1.6196231842041016 16.233083724975586 1.7501087188720703 16.05565643310547 1.7501087188720703 15.77326774597168 L1.7501087188720703 15.572060585021973 L1.4862737655639648 15.572060585021973 L1.4862737655639648 15.805267333984375 C1.4862737655639648 15.846853256225586 1.4862737655639648 15.95032024383545 1.4103221893310547 15.95032024383545 C1.3339967727661133 15.95032024383545 1.3339967727661133 15.846853256225586 1.3339967727661133 15.805267333984375 L1.3339967727661133 15.018614768981934 C1.3339967727661133 14.964826583862305 1.3339967727661133 14.873560905456543 1.4103221893310547 14.873560905456543 C1.4862737655639648 14.873560905456543 1.4862737655639648 14.964826583862305 1.4862737655639648 15.018614768981934 L1.4862737655639648 15.197908401489258 L1.7501087188720703 15.197908401489258 L1.7501087188720703 15.050488471984863 C1.7501087188720703 14.740086555480957 1.6067981719970703 14.59067440032959 1.4103221893310547 14.59067440032959 C1.2135963439941406 14.59067440032959 1.0701618194580078 14.740086555480957 1.0701618194580078 15.050488471984863 L1.0701618194580078 15.77326774597168 L1.0701618194580078 15.77326774597168 M2.336798667907715 16.207183837890625 L2.600635528564453 16.207183837890625 L2.6281518936157227 15.924299240112305 L2.813173294067383 15.924299240112305 L2.8374528884887695 16.207183837890625 L3.1143627166748047 16.207183837890625 L2.899333953857422 14.616572380065918 L2.5494613647460938 14.616572380065918 L2.336798667907715 16.207183837890625 L2.336798667907715 16.207183837890625 M2.722654342651367 14.863225936889648 L2.725518226623535 14.863225936889648 L2.787400245666504 15.641910552978516 L2.6551713943481445 15.641910552978516 L2.722654342651367 14.863225936889648 M3.7014265060424805 16.207183837890625 L3.965137481689453 16.207183837890625 L3.965137481689453 15.520264625549316 L4.014069557189941 15.520264625549316 C4.088401794433594 15.520264625549316 4.114299774169922 15.559858322143555 4.114299774169922 15.65162181854248 L4.114299774169922 15.906493186950684 C4.114299774169922 16.01207733154297 4.114299774169922 16.155513763427734 4.144555568695068 16.207183837890625 L4.4055280685424805 16.207183837890625 C4.375396728515625 16.155513763427734 4.378261089324951 16.01207733154297 4.378261089324951 15.906493186950684 L4.378261089324951 15.625723838806152 C4.378261089324951 15.492374420166016 4.317997932434082 15.39874267578125 4.225113391876221 15.372844696044922 L4.225113391876221 15.368860244750977 C4.365312099456787 15.309469223022461 4.384237289428711 15.187823295593262 4.384237289428711 15.000808715820312 C4.384237289428711 14.714312553405762 4.285252094268799 14.616572380065918 4.049679756164551 14.616572380065918 L3.701549530029297 14.616572380065918 L3.701549530029297 16.207183837890625 L3.7014265060424805 16.207183837890625 L3.7014265060424805 16.207183837890625 M3.965137481689453 14.88713264465332 L4.016933441162109 14.88713264465332 C4.119903087615967 14.88713264465332 4.119903087615967 14.951005935668945 4.119903087615967 15.0624418258667 C4.119903087615967 15.165909767150879 4.119903087615967 15.249579429626465 4.029882907867432 15.249579429626465 L3.965137481689453 15.249579429626465 L3.965137481689453 14.88713264465332 M5.844736576080322 16.207183837890625 L6.109070301055908 16.207183837890625 L6.136089324951172 15.924299240112305 L6.321235179901123 15.924299240112305 L6.345390319824219 16.207183837890625 L6.622673034667969 16.207183837890625 L6.407395839691162 14.616572380065918 L6.057399272918701 14.616572380065918 L5.844736576080322 16.207183837890625 M6.230592250823975 14.863225936889648 L6.233455657958984 14.863225936889648 L6.295337200164795 15.641910552978516 L6.163605690002441 15.641910552978516 L6.230592250823975 14.863225936889648 M7.2092390060424805 15.77326774597168 C7.2092390060424805 16.0557804107666 7.339725017547607 16.233083724975586 7.549026012420654 16.233083724975586 C7.758700370788574 16.233083724975586 7.889186382293701 16.05565643310547 7.889186382293701 15.77326774597168 L7.889186382293701 14.616572380065918 L7.624977111816406 14.616572380065918 L7.624977111816406 15.777252197265625 C7.624977111816406 15.862666130065918 7.624977111816406 15.938617706298828 7.549026012420654 15.938617706298828 C7.472950458526611 15.938617706298828 7.472950458526611 15.862666130065918 7.472950458526611 15.777252197265625 L7.472950458526611 14.616572380065918 L7.2091145515441895 14.616572380065918 L7.2091145515441895 15.77326774597168 L7.2092390060424805 15.77326774597168 L7.2092390060424805 15.77326774597168 M8.788644790649414 14.88713264465332 L8.830230712890625 14.88713264465332 C8.900579452514648 14.88713264465332 8.940546989440918 14.929092407226562 8.940546989440918 15.02247428894043 L8.940546989440918 15.801033020019531 C8.940546989440918 15.894415855407715 8.900579452514648 15.936375617980957 8.830230712890625 15.936375617980957 L8.788644790649414 15.936375617980957 L8.788644790649414 14.88713264465332 M8.52468490600586 16.207183837890625 L8.917512893676758 16.207183837890625 C9.056838989257812 16.207183837890625 9.204383850097656 16.08964729309082 9.204383850097656 15.799165725708008 L9.204383850097656 15.042769432067871 C9.204383850097656 14.797983169555664 9.142999649047852 14.616572380065918 8.917512893676758 14.616572380065918 L8.52468490600586 14.616572380065918 L8.52468490600586 16.207183837890625 M9.848844528198242 16.207183837890625 L10.11268138885498 16.207183837890625 L10.11268138885498 14.61694622039795 L9.848844528198242 14.61694622039795 L9.848844528198242 16.207183837890625 M11.020482063293457 15.018489837646484 C11.020482063293457 14.964702606201172 11.020482063293457 14.873435974121094 11.096931457519531 14.873435974121094 C11.172882080078125 14.873435974121094 11.172882080078125 14.964702606201172 11.172882080078125 15.018489837646484 L11.172882080078125 15.805143356323242 C11.172882080078125 15.846729278564453 11.172882080078125 15.950197219848633 11.096931457519531 15.950197219848633 C11.020482063293457 15.950197219848633 11.020482063293457 15.846729278564453 11.020482063293457 15.805143356323242 L11.020482063293457 15.018489837646484 L11.020482063293457 15.018489837646484 M10.756770133972168 15.77326774597168 C10.756770133972168 16.0557804107666 10.887256622314453 16.233083724975586 11.096931457519531 16.233083724975586 C11.306231498718262 16.233083724975586 11.436717987060547 16.05565643310547 11.436717987060547 15.77326774597168 L11.436717987060547 15.050488471984863 C11.436717987060547 14.740086555480957 11.293157577514648 14.59067440032959 11.096931457519531 14.59067440032959 C10.900080680847168 14.59067440032959 10.756770133972168 14.740086555480957 10.756770133972168 15.050488471984863 L10.756770133972168 15.77326774597168 L10.756770133972168 15.77326774597168" fill="black" fill-opacity="1.0" filling="0"/>
<path animation_id="3" d="M13.677643775939941 15.323040962219238 C13.677643775939941 15.40061092376709 13.626595497131348 15.589740753173828 13.621988296508789 15.582021713256836 L13.507190704345703 15.331134796142578 C13.611778259277344 15.23538589477539 13.697068214416504 15.086223602294922 13.697068214416504 14.923115730285645 C13.697068214416504 14.704103469848633 13.5608549118042 14.616447448730469 13.397248268127441 14.616447448730469 C13.228288650512695 14.616447448730469 13.096931457519531 14.73398494720459 13.096931457519531 14.948888778686523 C13.096931457519531 15.074146270751953 13.157691955566406 15.195791244506836 13.206872940063477 15.295150756835938 C13.047874450683594 15.392890930175781 12.966071128845215 15.621614456176758 12.966071128845215 15.757081985473633 C12.966071128845215 15.876611709594727 12.979020118713379 16.23295783996582 13.30336856842041 16.23295783996582 C13.400361061096191 16.23295783996582 13.501836776733398 16.190874099731445 13.572558403015137 16.10931968688965 L13.613397598266602 16.207061767578125 L13.903505325317383 16.207061767578125 L13.749610900878906 15.868517875671387 C13.849842071533203 15.72707462310791 13.89528751373291 15.504327774047852 13.908610343933105 15.322916030883789 L13.677643775939941 15.322916030883789 L13.677643775939941 15.323040962219238 L13.677643775939941 15.323040962219238 M13.470584869384766 15.888315200805664 C13.437963485717773 15.922181129455566 13.395380973815918 15.950197219848633 13.350930213928223 15.950197219848633 C13.273859024047852 15.950197219848633 13.228163719177246 15.858930587768555 13.228163719177246 15.775259971618652 C13.228163719177246 15.6697998046875 13.26103401184082 15.61613655090332 13.316691398620605 15.538068771362305 L13.470584869384766 15.888315200805664 L13.470584869384766 15.888315200805664 M13.408329963684082 14.851522445678711 C13.456265449523926 14.851522445678711 13.473946571350098 14.889123916625977 13.473946571350098 14.94092082977295 C13.473946571350098 15.010894775390625 13.431364059448242 15.060449600219727 13.39874267578125 15.098052024841309 C13.383676528930664 15.066551208496094 13.339600563049316 14.986988067626953 13.339600563049316 14.933324813842773 C13.339849472045898 14.881529808044434 13.360767364501953 14.851522445678711 13.408329963684082 14.851522445678711 L13.408329963684082 14.851522445678711" fill="black" fill-opacity="1.0" filling="0"/>
<path animation_id="4" d="M15.512419700622559 16.207183837890625 L15.88644790649414 16.207183837890625 C16.121646881103516 16.207183837890625 16.191869735717773 16.00199317932129 16.191869735717773 15.735292434692383 C16.191869735717773 15.534085273742676 16.147668838500977 15.40061092376709 16.0186767578125 15.368860244750977 L16.0186767578125 15.365249633789062 C16.146299362182617 15.305484771728516 16.16335678100586 15.157940864562988 16.16335678100586 14.990724563598633 C16.16335678100586 14.717923164367676 16.070222854614258 14.616572380065918 15.877856254577637 14.616572380065918 L15.51229476928711 14.616572380065918 L15.51229476928711 16.207183837890625 L15.512419700622559 16.207183837890625 M15.776256561279297 15.504451751708984 L15.836270332336426 15.504451751708984 C15.917948722839355 15.504451751708984 15.928157806396484 15.61003589630127 15.928157806396484 15.71947956085205 C15.928157806396484 15.87673568725586 15.917948722839355 15.936375617980957 15.830666542053223 15.936375617980957 L15.776131629943848 15.936375617980957 L15.776131629943848 15.504451751708984 L15.776256561279297 15.504451751708984 L15.776256561279297 15.504451751708984 M15.776256561279297 14.88713264465332 L15.834900856018066 14.88713264465332 C15.899395942687988 14.88713264465332 15.916828155517578 14.948888778686523 15.916828155517578 15.060449600219727 C15.916828155517578 15.159933090209961 15.90786361694336 15.245595932006836 15.825188636779785 15.245595932006836 L15.776256561279297 15.245595932006836 L15.776256561279297 14.88713264465332 L15.776256561279297 14.88713264465332 M16.827491760253906 16.207183837890625 L17.42725372314453 16.207183837890625 L17.42725372314453 15.900392532348633 L17.091825485229492 15.900392532348633 L17.091825485229492 15.546037673950195 L17.37421417236328 15.546037673950195 L17.37421417236328 15.239495277404785 L17.091825485229492 15.239495277404785 L17.091825485229492 14.923115730285645 L17.414306640625 14.923115730285645 L17.414306640625 14.616572380065918 L16.827491760253906 14.616572380065918 L16.827491760253906 16.207183837890625 L16.827491760253906 16.207183837890625 M18.23121452331543 15.578036308288574 L18.23121452331543 16.207183837890625 L18.49505043029785 16.207183837890625 L18.49505043029785 15.552138328552246 L18.710203170776367 14.616572380065918 L18.4420108795166 14.616572380065918 L18.36444091796875 15.153831481933594 L18.361576080322266 15.153831481933594 L18.288612365722656 14.616572380065918 L18.015687942504883 14.616572380065918 L18.23121452331543 15.578036308288574 L18.23121452331543 15.578036308288574 M19.562847137451172 15.018489837646484 C19.562847137451172 14.964702606201172 19.562847137451172 14.873435974121094 19.6389217376709 14.873435974121094 C19.71474838256836 14.873435974121094 19.71474838256836 14.964702606201172 19.71474838256836 15.018489837646484 L19.71474838256836 15.805143356323242 C19.71474838256836 15.846729278564453 19.71474838256836 15.950197219848633 19.6389217376709 15.950197219848633 C19.562847137451172 15.950197219848633 19.562847137451172 15.846729278564453 19.562847137451172 15.805143356323242 L19.562847137451172 15.018489837646484 L19.562847137451172 15.018489837646484 M19.29901123046875 15.77326774597168 C19.29901123046875 16.0557804107666 19.42962074279785 16.233083724975586 19.6389217376709 16.233083724975586 C19.848098754882812 16.233083724975586 19.978710174560547 16.05565643310547 19.978710174560547 15.77326774597168 L19.978710174560547 15.050488471984863 C19.978710174560547 14.740086555480957 19.83527374267578 14.59067440032959 19.6389217376709 14.59067440032959 C19.44244384765625 14.59067440032959 19.29901123046875 14.740086555480957 19.29901123046875 15.050488471984863 L19.29901123046875 15.77326774597168 L19.29901123046875 15.77326774597168 M20.614330291748047 16.207183837890625 L20.86945343017578 16.207183837890625 L20.86945343017578 15.223806381225586 L20.872440338134766 15.223806381225586 L21.086223602294922 16.207183837890625 L21.37309455871582 16.207183837890625 L21.37309455871582 14.616572380065918 L21.11797332763672 14.616572380065918 L21.11797332763672 15.554255485534668 L21.11486053466797 15.554255485534668 L20.902820587158203 14.616572380065918 L20.614330291748047 14.616572380065918 L20.614330291748047 16.207183837890625 M22.272926330566406 14.88713264465332 L22.314510345458984 14.88713264465332 C22.384735107421875 14.88713264465332 22.42495346069336 14.929092407226562 22.42495346069336 15.02247428894043 L22.42495346069336 15.801033020019531 C22.42495346069336 15.894415855407715 22.384859085083008 15.936375617980957 22.314510345458984 15.936375617980957 L22.272926330566406 15.936375617980957 L22.272926330566406 14.88713264465332 M22.008590698242188 16.207183837890625 L22.40179443359375 16.207183837890625 C22.541118621826172 16.207183837890625 22.688541412353516 16.08964729309082 22.688541412353516 15.799165725708008 L22.688541412353516 15.042769432067871 C22.688541412353516 14.797983169555664 22.627281188964844 14.616572380065918 22.40179443359375 14.616572380065918 L22.008590698242188 14.616572380065918 L22.008590698242188 16.207183837890625 M5.464608192443848 7.929527759552002 L6.540496826171875 7.929527759552002 L6.540496826171875 13.196165084838867 L5.464608192443848 13.196165084838867 L5.464608192443848 7.929527759552002 M13.436345100402832 9.144866943359375 L14.51223373413086 9.144866943359375 L14.51223373413086 13.196165084838867 L13.436345100402832 13.196165084838867 L13.436345100402832 9.144866943359375 M22.71717643737793 10.405404090881348 L22.71717643737793 13.210732460021973 L21.641286849975586 13.210732460021973 L21.641286849975586 10.23121452331543 C21.641286849975586 9.995641708374023 21.549898147583008 9.843366622924805 21.4887638092041 9.756086349487305 C21.428001403808594 9.669301986694336 21.201271057128906 9.529975891113281 20.983379364013672 9.529975891113281 C20.765735626220703 9.529975891113281 20.52157211303711 9.643155097961426 20.412874221801758 9.813236236572266 C20.303680419921875 9.982818603515625 20.286373138427734 10.148540496826172 20.286373138427734 10.318246841430664 L20.286373138427734 13.210857391357422 L19.210235595703125 13.210857391357422 L19.210235595703125 9.734794616699219 L19.25406265258789 9.734794616699219 C19.441076278686523 9.73691177368164 19.56869888305664 9.57890796661377 19.6947021484375 9.490008354187012 C19.866151809692383 9.36948299407959 19.98480987548828 9.299259185791016 20.262592315673828 9.182096481323242 C20.578224182128906 9.049243927001953 20.872190475463867 9.048372268676758 21.139015197753906 9.050862312316895 C21.391395568847656 9.052854537963867 21.878726959228516 9.132415771484375 22.27716064453125 9.428251266479492 C22.61507797241211 9.67913818359375 22.71717643737793 10.030879020690918 22.71717643737793 10.405404090881348 L22.71717643737793 10.405404090881348 M13.319180488586426 8.256739616394043 C13.319180488586426 7.900392532348633 13.605179786682129 7.611778736114502 13.958040237426758 7.611778736114502 C14.310901641845703 7.611778736114502 14.596402168273926 7.900268077850342 14.596402168273926 8.256739616394043 C14.596402168273926 8.613210678100586 14.310901641845703 8.90207290649414 13.958040237426758 8.90207290649414 C13.605179786682129 8.90207290649414 13.319180488586426 8.613210678100586 13.319180488586426 8.256739616394043 M12.943410873413086 9.068169593811035 L12.943410873413086 9.512544631958008 C12.750295639038086 9.51901912689209 12.534645080566406 9.624853134155273 12.427192687988281 9.711386680603027 C12.356969833374023 9.768287658691406 12.160120010375977 9.888315200805664 12.16211223602295 10.479113578796387 L12.16211223602295 13.210732460021973 L11.086098670959473 13.210732460021973 L11.086098670959473 9.734794616699219 L11.180228233337402 9.734794616699219 C11.276225090026855 9.72968864440918 11.334121704101562 9.673909187316895 11.42177677154541 9.60679817199707 C11.536948204040527 9.518645286560059 11.720725059509277 9.378820419311523 12.01120662689209 9.245222091674805 C12.301936149597168 9.111871719360352 12.72290325164795 9.044761657714844 12.943410873413086 9.068169593811035 L12.943410873413086 9.068169593811035 M10.256988525390625 9.640292167663574 C10.03062915802002 9.344829559326172 9.711137771606445 9.14088249206543 9.22293472290039 9.08273696899414 C8.712196350097656 9.021726608276367 8.167217254638672 9.159809112548828 7.945340156555176 9.29764175415039 C7.691215991973877 9.455270767211914 7.271369457244873 9.706904411315918 7.242358207702637 10.328332901000977 L8.264458656311035 10.328332901000977 C8.264458656311035 10.078690528869629 8.309656143188477 9.87051010131836 8.462055206298828 9.709768295288086 C8.599514961242676 9.56508731842041 8.828612327575684 9.472949981689453 9.100915908813477 9.55898666381836 C9.416547775268555 9.65797233581543 9.447674751281738 10.051173210144043 9.385793685913086 10.203449249267578 C9.316192626953125 10.375521659851074 9.228163719177246 10.467658996582031 9.118595123291016 10.534770011901855 C8.856377601623535 10.694764137268066 8.633380889892578 10.755401611328125 8.37813663482666 10.830853462219238 C8.238560676574707 10.872190475463867 7.701674461364746 11.043392181396484 7.515408515930176 11.156072616577148 C7.302496910095215 11.284940719604492 7.055593490600586 11.528731346130371 6.992591857910156 11.87038516998291 C6.931582450866699 12.200958251953125 7.021602630615234 12.61993408203125 7.236630916595459 12.852269172668457 C7.451534748077393 13.084480285644531 7.689970970153809 13.239619255065918 8.084667205810547 13.305110931396484 C8.505634307861328 13.374711990356445 8.851272583007812 13.334122657775879 9.281081199645996 13.229782104492188 C9.622113227844238 13.146734237670898 9.825064659118652 13.11660385131836 10.050924301147461 13.098798751831055 C10.239557266235352 13.084604263305664 10.37328052520752 13.11336612701416 10.442756652832031 13.148477554321289 L10.442756652832031 10.807570457458496 C10.442756652832031 10.314138412475586 10.46989917755127 9.917698860168457 10.256988525390625 9.640292167663574 L10.256988525390625 9.640292167663574 M9.409201622009277 11.963643074035645 C9.409201622009277 12.161115646362305 9.342962265014648 12.544107437133789 9.124322891235352 12.706966400146484 C8.930336952209473 12.85164737701416 8.601507186889648 12.863724708557129 8.450352668762207 12.77694034576416 C8.267696380615234 12.67148208618164 8.066488265991211 12.463798522949219 8.05553150177002 12.108696937561035 C8.04308032989502 11.69657039642334 8.216398239135742 11.486148834228516 8.328705787658691 11.388782501220703 C8.458693504333496 11.275976181030273 8.606611251831055 11.186328887939453 8.85114860534668 11.080744743347168 C9.106891632080078 10.970429420471191 9.287056922912598 10.854137420654297 9.408952713012695 10.755650520324707 L9.408952713012695 11.963643074035645 L9.409201622009277 11.963643074035645 L9.409201622009277 11.963643074035645 M3.24920654296875 9.155450820922852 C2.931581497192383 9.127435684204102 2.6866703033447266 9.265268325805664 2.5086231231689453 9.538442611694336 C2.2749176025390625 9.898027420043945 2.1865148544311523 10.383615493774414 2.1865148544311523 10.84542179107666 C2.1865148544311523 11.246342658996582 2.177675247192383 11.559734344482422 2.351864814758301 12.099981307983398 C2.5611658096313477 12.748428344726562 2.9971981048583984 12.79736042022705 3.083857536315918 12.805827140808105 C3.3537940979003906 12.831725120544434 3.5929784774780273 12.657910346984863 3.69345760345459 12.500903129577637 C3.83303165435791 12.283011436462402 3.92018985748291 12.038971900939941 3.9287805557250977 11.725456237792969 L4.991720199584961 11.725456237792969 C4.985619068145752 12.073834419250488 4.794123649597168 12.486210823059082 4.532777309417725 12.747681617736816 C4.271182537078857 13.009027481079102 3.8705101013183594 13.330013275146484 3.1533336639404297 13.337109565734863 C2.5347700119018555 13.34321117401123 2.1190309524536133 13.137271881103516 1.7157440185546875 12.753284454345703 C1.310464859008789 12.367801666259766 1.0223493576049805 11.698811531066895 1.0624418258666992 10.819149017333984 C1.0971803665161133 10.052791595458984 1.4235200881958008 9.526241302490234 1.7940616607666016 9.163917541503906 C2.1863908767700195 8.780426979064941 2.7177982330322266 8.658781051635742 3.0923242568969727 8.641100883483887 C3.4668493270874023 8.623669624328613 3.9468345642089844 8.76150131225586 4.2685675621032715 8.989727973937988 C4.637365341186523 9.251198768615723 4.971549987792969 9.709768295288086 4.9744133949279785 10.104961395263672 L3.911349296569824 10.104961395263672 C3.905745506286621 9.695573806762695 3.6265954971313477 9.188072204589844 3.24920654296875 9.155450820922852 L3.24920654296875 9.155450820922852 M16.875429153442383 9.054472923278809 C15.793562889099121 9.054472923278809 14.916890144348145 9.914213180541992 14.92074966430664 11.19379997253418 C14.9253568649292 12.452095031738281 15.793562889099121 13.336860656738281 16.875429153442383 13.337982177734375 C18.027393341064453 13.339351654052734 18.816286087036133 12.452095031738281 18.81753158569336 11.19379997253418 C18.818777084350586 9.914213180541992 17.95766830444336 9.054472923278809 16.875429153442383 9.054472923278809 M16.867210388183594 12.861233711242676 C16.27068328857422 12.86048698425293 16.0311279296875 12.091141700744629 16.029258728027344 11.190935134887695 C16.02726936340332 10.20382308959961 16.305545806884766 9.531595230102539 16.867210388183594 9.53271484375 C17.425512313842773 9.533586502075195 17.704788208007812 10.203573226928711 17.704788208007812 11.190935134887695 C17.705162048339844 12.090767860412598 17.462739944458008 12.862106323242188 16.867210388183594 12.861233711242676 L16.867210388183594 12.861233711242676" fill="black" fill-opacity="1.0" filling="0"/>
<path animation_id="5" d="M22.57735252380371 8.411504745483398 L22.58009147644043 8.411504745483398 A0.3621988296508789 0.3621988296508789 0.0 0 1 22.94116973876953 8.773205757141113 L22.94116973876953 8.7758207321167 A0.36157628893852234 0.36157628893852234 0.0 0 1 22.835086822509766 9.030193328857422 A0.36157628893852234 0.36157628893852234 0.0 0 1 22.57897186279297 9.1368989944458 L22.576231002807617 9.1368989944458 A0.36307039856910706 0.36307039856910706 0.0 0 1 22.215652465820312 8.774700164794922 L22.215652465820312 8.771961212158203 A0.3603312075138092 0.3603312075138092 0.0 0 1 22.321731567382812 8.517961502075195 C22.321731567382812 8.517961502075195 22.321483612060547 8.517961502075195 22.321731567382812 8.517836570739746 L22.321731567382812 8.517961502075195 L22.321731567382812 8.517836570739746 A0.36269688606262207 0.36269688606262207 0.0 0 1 22.57735252380371 8.411504745483398 L22.57735252380371 8.411504745483398 M22.57735252380371 9.082612037658691 L22.57984161376953 9.082612037658691 A0.3071655333042145 0.3071655333042145 0.0 0 0 22.795989990234375 8.992466926574707 A0.30729004740715027 0.30729004740715027 0.0 0 0 22.88650894165039 8.774700164794922 L22.88650894165039 8.772085189819336 A0.3065429627895355 0.3065429627895355 0.0 0 0 22.796489715576172 8.555936813354492 A0.30729004740715027 0.30729004740715027 0.0 0 0 22.57909393310547 8.46554183959961 L22.57660675048828 8.46554183959961 A0.3070410490036011 0.3070410490036011 0.0 0 0 22.360206604003906 8.555562019348145 A0.30753907561302185 0.30753907561302185 0.0 0 0 22.26968765258789 8.772956848144531 L22.26968765258789 8.775321960449219 C22.269935607910156 8.859739303588867 22.304676055908203 8.93643856048584 22.35995864868164 8.991720199584961 C22.41536521911621 9.047749519348145 22.49268341064453 9.082488059997559 22.57735252380371 9.082612037658691 L22.57735252380371 9.082612037658691" fill="black" fill-opacity="1.0" filling="0"/>
<path animation_id="6" d="M22.75801658630371 9.006661415100098 C22.762622833251953 8.962958335876465 22.750045776367188 8.874183654785156 22.739587783813477 8.845047950744629 A0.10247152298688889 0.10247152298688889 0.0 0 0 22.69949722290039 8.790885925292969 C22.733112335205078 8.769594192504883 22.761253356933594 8.731867790222168 22.761253356933594 8.673723220825195 C22.761253356933594 8.573616981506348 22.687541961669922 8.55020809173584 22.640851974487305 8.55020809173584 L22.405654907226562 8.550457000732422 L22.405654907226562 9.006412506103516 L22.45794677734375 9.006412506103516 L22.45794677734375 8.810434341430664 L22.61507797241211 8.8099365234375 C22.648197174072266 8.811553955078125 22.68044662475586 8.844300270080566 22.689037322998047 8.879910469055176 C22.696758270263672 8.912158966064453 22.703105926513672 8.974786758422852 22.701488494873047 9.006661415100098 L22.75801658630371 9.006661415100098 L22.75801658630371 9.006661415100098 M22.45794677734375 8.590923309326172 L22.616945266723633 8.590923309326172 C22.66077423095703 8.590550422668457 22.705223083496094 8.61993408203125 22.70472526550293 8.676586151123047 C22.704227447509766 8.73759651184082 22.659029006958008 8.769096374511719 22.616945266723633 8.767851829528809 L22.45794677734375 8.767851829528809 L22.45794677734375 8.590923309326172" fill="black" fill-opacity="1.0" filling="0"/></svg>