<?xml version="1.0" encoding="iso-8859-1"?><svg height="200px" viewBox="0.0 0.0 24.0 24.0" width="200px" xmlns="http://www.w3.org/2000/svg"><path animation_id="0" d="M0.0 0.0 L24.0 0.0 L24.0 24.0 L0.0 24.0 L0.0 0.0" fill="black" fill-opacity="1.0" filling="0"/>
<path animation_id="1" d="M20.08205223083496 0.3528604507446289 L3.987175941467285 0.3528604507446289 L3.987175941467285 17.92168426513672 L20.08205223083496 17.92168426513672 L20.08205223083496 0.3528604507446289" fill="black" fill-opacity="1.0" filling="0"/>
<path animation_id="2" d="M4.361576080322266 22.170703887939453 C4.361576080322266 22.434289932250977 4.458320617675781 22.664134979248047 4.651808738708496 22.860858917236328 C4.84517240524292 23.057086944580078 5.067920207977295 23.155574798583984 5.320799827575684 23.155574798583984 C5.596713066101074 23.155574798583984 5.8291730880737305 23.05783462524414 6.019921779632568 22.863475799560547 C6.210670471191406 22.66849136352539 6.30554723739624 22.425201416015625 6.30554723739624 22.134220123291016 C6.30554723739624 21.86017608642578 6.209674835205078 21.627716064453125 6.017182350158691 21.436967849731445 C5.824690341949463 21.245346069335938 5.594845771789551 21.14947509765625 5.326028823852539 21.14947509765625 C5.06256628036499 21.14947509765625 4.836331844329834 21.24895668029785 4.646454811096191 21.44829559326172 C4.456577301025391 21.647388458251953 4.361576080322266 21.888687133789062 4.361576080322266 22.170703887939453 M4.382992267608643 23.231029510498047 L4.382992267608643 23.582393646240234 L3.863039970397949 23.582393646240234 L3.863039970397949 19.79754638671875 L4.377638339996338 19.79754638671875 L4.377638339996338 21.06891632080078 C4.516092777252197 20.928592681884766 4.668617248535156 20.823009490966797 4.833717346191406 20.754032135009766 C4.999688625335693 20.68467903137207 5.178858757019043 20.650190353393555 5.373218059539795 20.650190353393555 C5.5914835929870605 20.650190353393555 5.7857184410095215 20.686424255371094 5.9569196701049805 20.75838851928711 C6.127248764038086 20.83035659790039 6.2842559814453125 20.941295623779297 6.428064346313477 21.09207534790039 A1.4395817518234253 1.4395817518234253 0.0 0 1 6.734981060028076 21.570192337036133 C6.8059515953063965 21.75035858154297 6.841436862945557 21.94036102294922 6.841436862945557 22.13970184326172 C6.841436862945557 22.570877075195312 6.699495792388916 22.930335998535156 6.415613651275635 23.21670913696289 C6.130859851837158 23.503456115722656 5.77326774597168 23.647140502929688 5.342090606689453 23.647140502929688 A1.2949012517929077 1.2949012517929077 0.0 0 1 4.823133945465088 23.54155731201172 C4.661520481109619 23.471332550048828 4.514225482940674 23.367738723754883 4.382992267608643 23.231029510498047 L4.382992267608643 23.231029510498047 M9.69021987915039 23.582393646240234 L9.196911811828613 23.582393646240234 L9.196911811828613 23.262901306152344 C9.094067573547363 23.39251708984375 8.97951889038086 23.489011764526367 8.851771354675293 23.55201530456543 C8.724895477294922 23.61501693725586 8.582083702087402 23.647140502929688 8.424203872680664 23.647140502929688 C8.063873291015625 23.647140502929688 7.785345554351807 23.535329818725586 7.587499141693115 23.31183624267578 C7.389653205871582 23.088092803955078 7.291165828704834 22.774200439453125 7.291165828704834 22.368797302246094 L7.291165828704834 20.722904205322266 L7.805765151977539 20.722904205322266 L7.805765151977539 22.220382690429688 C7.805765151977539 22.52916717529297 7.860798358917236 22.760007858276367 7.969869136810303 22.91415023803711 C8.078939437866211 23.06854248046875 8.24229621887207 23.145862579345703 8.460436820983887 23.145862579345703 C8.596153259277344 23.145862579345703 8.716802597045898 23.113739013671875 8.8223876953125 23.050739288330078 C8.927971839904785 22.987735748291016 9.0122652053833 22.897342681884766 9.074270248413086 22.779306411743164 C9.112494468688965 22.706592559814453 9.139886856079102 22.61956024169922 9.155948638916016 22.519329071044922 C9.172757148742676 22.418228149414062 9.180850982666016 22.25674057006836 9.180850982666016 22.033245086669922 L9.180850982666016 20.7227783203125 L9.690094947814941 20.7227783203125 L9.690094947814941 23.582393646240234 L9.69021987915039 23.582393646240234 L9.69021987915039 23.582393646240234 M10.3147611618042 23.582393646240234 L10.3147611618042 19.79754638671875 L10.824005126953125 19.79754638671875 L10.824005126953125 23.582393646240234 L10.3147611618042 23.582393646240234 M11.437963485717773 23.582393646240234 L11.437963485717773 19.79754638671875 L11.947208404541016 19.79754638671875 L11.947208404541016 23.582393646240234 L11.437963485717773 23.582393646240234 M12.94876480102539 22.134220123291016 C12.94876480102539 22.423583984375 13.044636726379395 22.665878295898438 13.236257553100586 22.861858367919922 C13.427130699157715 23.05783462524414 13.661334037780762 23.155574798583984 13.939115524291992 23.155574798583984 C14.191994667053223 23.155574798583984 14.4144926071167 23.057086944580078 14.608105659484863 22.860858917236328 C14.800474166870117 22.664134979248047 14.897217750549316 22.434289932250977 14.897217750549316 22.170703887939453 C14.897217750549316 21.89030647277832 14.801344871520996 21.65000343322754 14.61072063446045 21.449417114257812 C14.419099807739258 21.249706268310547 14.191994667053223 21.149600982666016 13.928406715393066 21.149600982666016 C13.657723426818848 21.149600982666016 13.427255630493164 21.244476318359375 13.236257553100586 21.435348510742188 C13.044636726379395 21.625972747802734 12.94876480102539 21.85942840576172 12.94876480102539 22.134220123291016 M14.871319770812988 23.582393646240234 L14.871319770812988 23.231029510498047 C14.739961624145508 23.367738723754883 14.592916488647461 23.471332550048828 14.431426048278809 23.54155731201172 A1.2982630729675293 1.2982630729675293 0.0 0 1 13.91222095489502 23.647140502929688 C13.483036041259766 23.647140502929688 13.12631607055664 23.503456115722656 12.841437339782715 23.21670913696289 C12.557680130004883 22.930213928222656 12.415614128112793 22.570751190185547 12.415614128112793 22.13970184326172 C12.415614128112793 21.93836784362793 12.451099395751953 21.747745513916016 12.522069931030273 21.56745147705078 A1.4266326427459717 1.4266326427459717 0.0 0 1 12.826247215270996 21.09207534790039 C12.969930648803711 20.941295623779297 13.127062797546387 20.83035659790039 13.297266960144043 20.75838851928711 C13.468467712402344 20.686424255371094 13.66282844543457 20.650190353393555 13.88109302520752 20.650190353393555 C14.077071189880371 20.650190353393555 14.257238388061523 20.68467903137207 14.421464920043945 20.754032135009766 C14.58631706237793 20.82313346862793 14.736351013183594 20.928592681884766 14.87106990814209 21.06891632080078 L14.87106990814209 20.722904205322266 L15.391022682189941 20.722904205322266 L15.391022682189941 23.58251953125 L14.871319770812988 23.58251953125 L14.871319770812988 23.582393646240234 L14.871319770812988 23.582393646240234 M16.503890991210938 23.582393646240234 L15.98929214477539 23.582393646240234 L15.98929214477539 20.7227783203125 L16.483470916748047 20.7227783203125 L16.483470916748047 21.048372268676758 C16.590923309326172 20.919754028320312 16.70895767211914 20.825624465942383 16.838573455810547 20.766231536865234 C16.967191696166992 20.706592559814453 17.115360260009766 20.676462173461914 17.281206130981445 20.676462173461914 C17.655731201171875 20.676462173461914 17.943099975585938 20.786651611328125 18.1435604095459 21.00666046142578 C18.343273162841797 21.226547241210938 18.44338035583496 21.54242706298828 18.44338035583496 21.95318603515625 L18.44338035583496 23.582271575927734 L17.926166534423828 23.582271575927734 L17.926166534423828 22.06499481201172 C17.926166534423828 21.761438369750977 17.87026023864746 21.536325454711914 17.757579803466797 21.389902114868164 C17.6448974609375 21.243480682373047 17.4700870513916 21.170516967773438 17.23426628112793 21.170516967773438 C16.977651596069336 21.170516967773438 16.79237937927246 21.256553649902344 16.67708396911621 21.428749084472656 C16.561540603637695 21.601943969726562 16.503890991210938 21.885700225830078 16.503890991210938 22.28301239013672 L16.503890991210938 23.582393646240234 L16.503890991210938 23.582393646240234 M19.219697952270508 23.582393646240234 L19.219697952270508 21.19043731689453 L18.814044952392578 21.19043731689453 L18.814044952392578 20.722904205322266 L19.219697952270508 20.722904205322266 L19.219697952270508 19.79754638671875 L19.73168182373047 19.79754638671875 L19.73168182373047 20.722904205322266 L20.136959075927734 20.722904205322266 L20.136959075927734 21.19043731689453 L19.73168182373047 21.19043731689453 L19.73168182373047 23.582393646240234 L19.219697952270508 23.582393646240234 M16.782047271728516 6.27603816986084 C16.543485641479492 6.142563819885254 14.477121353149414 5.6452717781066895 13.886446952819824 5.504700183868408 C12.659777641296387 4.486335277557373 11.289796829223633 4.756645679473877 10.793625831604004 4.88065767288208 C10.334433555603027 4.995455265045166 9.757081985473633 5.367615222930908 9.547656059265137 5.50968074798584 L9.481666564941406 5.459129810333252 C9.481666564941406 5.459129810333252 9.131793975830078 3.977712631225586 8.164726257324219 3.319180488586426 A1.9890432357788086 1.9890432357788086 0.0 0 0 8.064994812011719 3.2558059692382812 C8.184274673461914 2.1972227096557617 8.455331802368164 0.8953495025634766 8.687044143676758 0.3527364730834961 L7.8991475105285645 0.3527364730834961 C7.600323677062988 1.0487451553344727 7.324285984039307 2.0692272186279297 7.081740856170654 2.9711761474609375 A2.5412437915802 2.5412437915802 0.0 0 0 6.258233547210693 3.080744743347168 C6.014318943023682 2.2386856079101562 5.722218990325928 1.2802085876464844 5.408205509185791 0.3527364730834961 L4.372782230377197 0.3527364730834961 A174.05938720703125 174.05938720703125 0.0 0 1 5.069165229797363 2.5035181045532227 C4.773579120635986 2.495424270629883 4.410633087158203 2.5444812774658203 4.008591175079346 2.7019853591918945 C4.001494407653809 2.7046003341674805 3.9943971633911133 2.7067174911499023 3.987175941467285 2.7090835571289062 L3.987175941467285 7.630952835083008 C4.0555315017700195 7.636431694030762 4.129863739013672 7.636929512023926 4.213534355163574 7.629334926605225 C4.7771897315979 7.578160762786865 5.128556251525879 7.35852575302124 5.205627918243408 7.128307342529297 C5.262528896331787 7.177862167358398 5.31557035446167 7.229160308837891 5.369980812072754 7.280582904815674 C4.926726341247559 7.914959907531738 4.382992267608643 8.677955627441406 3.987175941467285 9.371599197387695 L3.987175941467285 11.853826522827148 C4.601257801055908 12.595280647277832 5.549399375915527 13.239619255065918 6.273548126220703 13.847600936889648 C6.944904804229736 14.411504745483398 9.68399429321289 16.64620590209961 11.249330520629883 17.92168426513672 L11.403473854064941 17.92168426513672 C9.931021690368652 16.52779769897461 7.2127251625061035 13.946834564208984 6.580713748931885 13.299010276794434 C6.08964729309082 12.795866012573242 4.64321756362915 11.38367748260498 4.470896244049072 10.827117919921875 C4.328705787658691 10.368300437927246 5.67938756942749 8.603374481201172 6.57511043548584 7.801531791687012 C6.886384963989258 7.806761264801025 7.247961521148682 7.7496113777160645 7.604184150695801 7.613397121429443 C7.710888385772705 7.572558403015137 7.814480781555176 7.525368690490723 7.913465976715088 7.480669975280762 C7.810870170593262 7.696943759918213 7.721471786499023 7.906617641448975 7.69781494140625 8.024154663085938 C7.652369022369385 8.250140190124512 7.2768473625183105 9.81859016418457 8.270185470581055 11.14001178741455 C8.526676177978516 11.694079399108887 8.944779396057129 12.58756160736084 9.205129623413086 13.094565391540527 C9.601693153381348 13.866650581359863 11.747369766235352 15.353545188903809 12.748054504394531 16.105459213256836 C13.289671897888184 16.512357711791992 14.625163078308105 17.291913986206055 15.73653793334961 17.921558380126953 L16.09164047241211 17.921558380126953 C14.989727973937988 17.144371032714844 13.536575317382812 16.108821868896484 12.982257843017578 15.666314125061035 C11.206873893737793 14.248770713806152 10.009711265563965 13.382058143615723 9.627218246459961 12.769968032836914 C9.5110502243042 12.584199905395508 9.389654159545898 12.321733474731445 9.27672290802002 12.0465669631958 C9.308348655700684 12.066240310668945 9.340347290039062 12.085911750793457 9.372968673706055 12.105086326599121 C10.212538719177246 12.599763870239258 10.999813079833984 12.987112998962402 11.736289024353027 13.205503463745117 C13.480545043945312 14.488078117370605 16.001867294311523 16.313140869140625 16.48110580444336 16.500652313232422 C17.545289993286133 16.91726303100586 18.388097763061523 15.82120418548584 18.388097763061523 15.82120418548584 C18.388097763061523 15.82120418548584 17.369110107421875 16.56004524230957 16.773826599121094 16.207807540893555 C16.405902862548828 15.990413665771484 14.867709159851074 14.4486083984375 13.745003700256348 13.301002502441406 C14.246903419494629 13.164789199829102 14.717923164367676 12.885637283325195 15.158812522888184 12.431427001953125 C15.524124145507812 12.054908752441406 15.773641586303711 11.662578582763672 15.925294876098633 11.252817153930664 C16.95499038696289 12.499035835266113 18.32160758972168 14.204569816589355 18.43927001953125 14.614704132080078 C18.625537872314453 15.263774871826172 18.467784881591797 15.52474594116211 18.467784881591797 15.52474594116211 C18.467784881591797 15.52474594116211 19.024465560913086 15.238000869750977 18.871442794799805 14.409014701843262 C18.767850875854492 13.8474760055542 17.0594539642334 11.238374710083008 16.08404541015625 9.781734466552734 C15.973605155944824 8.831850051879883 15.50843620300293 7.793189525604248 14.832347869873047 6.645458698272705 A5.1204633712768555 5.1204633712768555 0.0 0 0 14.603748321533203 6.292847156524658 C15.253564834594727 6.4464921951293945 16.229223251342773 6.68916130065918 16.444623947143555 6.808192729949951 C16.77432632446289 6.990101337432861 17.910478591918945 7.822449207305908 19.50146484375 9.444313049316406 C19.638423919677734 9.58388900756836 19.840253829956055 9.77638053894043 20.08167839050293 10.000249862670898 L20.08167839050293 9.463362693786621 C19.148229598999023 8.474382400512695 17.047874450683594 6.4245781898498535 16.782047271728516 6.27603816986084 L16.782047271728516 6.27603816986084" fill="black" fill-opacity="1.0" filling="0"/>
<path animation_id="3" d="M11.821080207824707 3.037663459777832 C12.256240844726562 3.4149293899536133 12.805827140808105 3.6386728286743164 13.480172157287598 3.8380136489868164 C14.339040756225586 4.091763496398926 18.661893844604492 5.1366496086120605 18.661893844604492 5.1366496086120605 C18.661893844604492 5.1366496086120605 14.073087692260742 3.6806325912475586 12.937060356140137 3.058955192565918 C12.268318176269531 2.693145751953125 11.301624298095703 1.2921619415283203 10.33468246459961 0.3529853820800781 L9.348690032958984 0.3529853820800781 C10.13148307800293 1.016871452331543 11.483160018920898 2.744692802429199 11.821080207824707 3.037663459777832 L11.821080207824707 3.037663459777832" fill="black" fill-opacity="1.0" filling="0"/>
<path animation_id="4" d="M17.016498565673828 5.807632923126221 C16.777687072753906 5.674158096313477 14.711324691772461 5.176866054534912 14.120650291442871 5.03641939163208 C12.893980026245117 4.0179290771484375 11.523999214172363 4.288364887237549 11.027952194213867 4.412376403808594 C10.568760871887207 4.527174472808838 9.991409301757812 4.899333953857422 9.781984329223633 5.041399955749512 L9.71586799621582 4.990848541259766 C9.71586799621582 4.990848541259766 9.366121292114258 3.5094308853149414 8.399053573608398 2.851024627685547 A2.050675392150879 2.050675392150879 0.0 0 0 8.299321174621582 2.7875242233276367 C8.39183235168457 1.9663820266723633 8.57560920715332 0.9990663528442383 8.761627197265625 0.3528604507446289 L7.951441287994385 0.3528604507446289 C7.722094535827637 0.9967002868652344 7.5084357261657715 1.787088394165039 7.315943717956543 2.502894401550293 C6.962709426879883 2.4899463653564453 6.6627655029296875 2.5601701736450195 6.492436408996582 2.61246395111084 C6.289361000061035 1.9115982055664062 6.053041458129883 1.1301755905151367 5.798418998718262 0.3528604507446289 L4.761501789093018 0.3528604507446289 C4.943285942077637 0.9074277877807617 5.1273112297058105 1.4802961349487305 5.30336856842041 2.035236358642578 C5.007781982421875 2.0272674560546875 4.644835948944092 2.076324462890625 4.242794036865234 2.233705520629883 C4.165847301483154 2.263835906982422 4.079437255859375 2.26669979095459 3.987175941467285 2.2482728958129883 L3.987175941467285 7.115856647491455 C4.108821392059326 7.157069206237793 4.2561163902282715 7.178484916687012 4.447861671447754 7.161053657531738 C5.011393070220947 7.109755516052246 5.362759113311768 6.890244960784912 5.439955711364746 6.6599016189575195 C5.501463413238525 6.713690280914307 5.558488845825195 6.769096851348877 5.617506504058838 6.8246283531188965 C5.078503131866455 7.585258483886719 4.389092922210693 8.534022331237793 3.987175941467285 9.326775550842285 L3.987175941467285 11.146486282348633 C4.585444927215576 12.03672981262207 5.710390567779541 12.855630874633789 6.5228166580200195 13.537819862365723 C7.205005645751953 14.111063003540039 9.895162582397461 16.56764030456543 11.373591423034668 17.92168426513672 L11.528731346130371 17.92168426513672 C10.149038314819336 16.421466827392578 7.473946571350098 13.51764965057373 6.830106258392334 12.857623100280762 C6.3390398025512695 12.354229927062988 4.8926100730896 10.94216537475586 4.7202887535095215 10.38560676574707 C4.580962657928467 9.936126708984375 5.846106052398682 8.175185203552246 6.730125427246094 7.330262184143066 C7.058332920074463 7.34769344329834 7.451534748077393 7.292784690856934 7.838386535644531 7.144991397857666 C7.945091247558594 7.104152679443359 8.048683166503906 7.0569634437561035 8.147793769836426 7.012264251708984 C8.045196533203125 7.228537559509277 7.955799102783203 7.438087463378906 7.93214225769043 7.55574893951416 C7.8866963386535645 7.781734466552734 7.511175155639648 9.350183486938477 8.504638671875 10.671606063842773 C8.761127471923828 11.22567367553711 9.179231643676758 12.119155883789062 9.439581871032715 12.626283645629883 C9.836145401000977 13.398368835449219 11.906991004943848 14.944780349731445 12.907800674438477 15.696694374084473 C13.49411678314209 16.1370849609375 14.955612182617188 17.154329299926758 16.065492630004883 17.921558380126953 L16.27753257751465 17.921558380126953 C15.180352210998535 17.031314849853516 13.63170051574707 15.775758743286133 13.049492835998535 15.31096363067627 C11.2739839553833 13.89341926574707 10.244039535522461 12.913653373718262 9.86154556274414 12.301563262939453 C9.745377540588379 12.11579418182373 9.623980522155762 11.853327751159668 9.5110502243042 11.578036308288574 C9.542675971984863 11.597833633422852 9.574674606323242 11.617257118225098 9.607420921325684 11.636556625366211 C10.40117073059082 12.104214668273926 11.148353576660156 12.47662353515625 11.850090980529785 12.700366973876953 C13.60107135772705 14.0465669631958 16.241050720214844 16.044574737548828 16.731868743896484 16.236942291259766 C17.796052932739258 16.653553009033203 18.388469696044922 15.821080207824707 18.388469696044922 15.821080207824707 C18.388469696044922 15.821080207824707 17.59011459350586 16.188756942749023 16.994585037231445 15.836893081665039 C16.62441635131836 15.618003845214844 15.072278022766113 14.017929077148438 13.951690673828125 12.839445114135742 C14.464048385620117 12.706219673156738 14.944655418395996 12.42557430267334 15.393513679504395 11.962896347045898 C15.75197696685791 11.593351364135742 15.999004364013672 11.208492279052734 16.151779174804688 10.806822776794434 C17.16466522216797 12.057149887084961 18.509742736816406 13.753968238830566 18.674097061157227 14.146049499511719 C18.941543579101562 14.783913612365723 18.46840476989746 15.524621963500977 18.46840476989746 15.524621963500977 C18.46840476989746 15.524621963500977 19.373716354370117 15.051361083984375 19.10626983642578 13.940235137939453 C18.973045349121094 13.387287139892578 17.288179397583008 10.790637016296387 16.321109771728516 9.329266548156738 C16.214157104492188 8.37502384185791 15.747245788574219 7.331133842468262 15.06729793548584 6.176928520202637 A5.122953414916992 5.122953414916992 0.0 0 0 14.838947296142578 5.824192523956299 C15.48851490020752 5.977962017059326 16.46417236328125 6.22050666809082 16.679574966430664 6.339538097381592 C17.00927734375 6.521446704864502 18.145427703857422 7.529477596282959 19.736412048339844 9.151342391967773 C19.828052520751953 9.244599342346191 19.945589065551758 9.364875793457031 20.082427978515625 9.504949569702148 L20.082427978515625 8.918134689331055 C19.070659637451172 7.838013172149658 17.26165771484375 5.944717884063721 17.016498565673828 5.807632923126221 L17.016498565673828 5.807632923126221" fill="black" fill-opacity="1.0" filling="0"/>
<path animation_id="5" d="M12.039469718933105 2.6452102661132812 C12.474756240844727 3.0224742889404297 13.005914688110352 3.2358837127685547 13.659341812133789 3.495486259460449 C14.494179725646973 3.826931953430176 18.661893844604492 5.1366496086120605 18.661893844604492 5.1366496086120605 C18.661893844604492 5.1366496086120605 14.219635963439941 3.3234148025512695 13.171263694763184 2.5905494689941406 C12.653054237365723 2.2283506393432617 11.89391803741455 1.2122268676757812 11.09020709991455 0.3529853820800781 L10.045321464538574 0.3529853820800781 C10.808815002441406 1.1675281524658203 11.762187004089355 2.4047813415527344 12.039469718933105 2.6452102661132812" fill="black" fill-opacity="1.0" filling="0"/>
<path animation_id="6" d="M10.469277381896973 10.145054817199707 C10.850899696350098 9.683372497558594 11.590113639831543 9.658594131469727 12.287243843078613 10.318620681762695 C12.890120506286621 10.889248847961426 13.114736557006836 11.742264747619629 12.853141784667969 12.075204849243164 C12.591172218322754 12.408018112182617 11.48353385925293 12.607109069824219 10.764490127563477 11.985930442810059 C10.133474349975586 11.440827369689941 9.988296508789062 10.727012634277344 10.469277381896973 10.145054817199707 L10.469277381896973 10.145054817199707" fill="black" fill-opacity="1.0" filling="0"/>
<path animation_id="7" d="M9.988296508789062 9.658594131469727 L13.114860534667969 9.658594131469727 L13.114860534667969 12.607109069824219 L9.988296508789062 12.607109069824219 L9.988296508789062 9.658594131469727" fill="black" fill-opacity="1.0" filling="0"/>
<path animation_id="8" d="M9.988296508789062 9.658594131469727 L13.114860534667969 9.658594131469727 L13.114860534667969 12.607109069824219 L9.988296508789062 12.607109069824219 L9.988296508789062 9.658594131469727" fill="black" fill-opacity="1.0" filling="0"/>
<path animation_id="9" d="M15.130423545837402 8.399800300598145 C14.717301368713379 7.787711143493652 14.445869445800781 6.901076793670654 14.415738105773926 6.609724044799805 C14.415738105773926 6.609724044799805 15.656477928161621 6.143062114715576 16.16061782836914 7.2793378829956055 C16.664758682250977 8.415489196777344 16.048559188842773 9.28207778930664 16.048559188842773 9.28207778930664 C16.048559188842773 9.28207778930664 15.517026901245117 8.972545623779297 15.130423545837402 8.399800300598145 L15.130423545837402 8.399800300598145" fill="black" fill-opacity="1.0" filling="0"/>
<path animation_id="10" d="M14.415613174438477 6.143062114715576 L16.664508819580078 6.143062114715576 L16.664508819580078 9.28207778930664 L14.415613174438477 9.28207778930664 L14.415613174438477 6.143062114715576" fill="black" fill-opacity="1.0" filling="0"/>
<path animation_id="11" d="M14.415613174438477 6.143062114715576 L16.664508819580078 6.143062114715576 L16.664508819580078 9.28207778930664 L14.415613174438477 9.28207778930664 L14.415613174438477 6.143062114715576" fill="black" fill-opacity="1.0" filling="0"/></svg>