<?xml version="1.0" encoding="iso-8859-1"?><svg height="200px" viewBox="0.0 0.0 24.0 24.0" width="200px" xmlns="http://www.w3.org/2000/svg"><path animation_id="0" d="M0.0 0.0 L24.0 0.0 L24.0 24.0 L0.0 24.0 L0.0 0.0" fill="black" fill-opacity="1.0" filling="0"/>
<path animation_id="1" d="M1.411691665649414 19.817718505859375 L4.99782133102417 19.817718505859375 L4.99782133102417 19.114736557006836 L1.411691665649414 19.114736557006836 L1.411691665649414 19.817718505859375 M14.560543060302734 19.817718505859375 L18.4981632232666 19.817718505859375 L18.4981632232666 19.114736557006836 L14.560543060302734 19.114736557006836 L14.560543060302734 19.817718505859375 L14.560543060302734 19.817718505859375 M1.411691665649414 22.138206481933594 L4.99782133102417 22.138206481933594 L4.99782133102417 21.435100555419922 L1.411691665649414 21.435100555419922 L1.411691665649414 22.138206481933594" fill="black" fill-opacity="1.0" filling="0"/>
<path animation_id="2" d="M1.411691665649414 22.020915985107422 L2.3492507934570312 22.020915985107422 L2.3492507934570312 19.583267211914062 L1.411691665649414 19.583267211914062 L1.411691665649414 22.020915985107422 L1.411691665649414 22.020915985107422 M16.107452392578125 22.138206481933594 L17.044885635375977 22.138206481933594 L17.044885635375977 19.583267211914062 L16.107452392578125 19.583267211914062 L16.107452392578125 22.138206481933594" fill="black" fill-opacity="1.0" filling="0"/>
<path animation_id="3" d="M1.411691665649414 20.96607208251953 L4.810309410095215 20.96607208251953 L4.810309410095215 20.26296615600586 L1.411691665649414 20.26296615600586 L1.411691665649414 20.96607208251953 M7.247836589813232 20.404033660888672 L9.50968074798584 20.404033660888672 L9.50968074798584 21.419536590576172 C9.50968074798584 21.419536590576172 9.521385192871094 22.138080596923828 8.454957962036133 22.138080596923828 L6.110938549041748 22.138080596923828 C6.110938549041748 22.138080596923828 5.255431652069092 22.09238624572754 5.255431652069092 21.350929260253906 L5.255431652069092 19.902259826660156 C5.255431652069092 19.902259826660156 5.243852615356445 19.12631607055664 6.2750420570373535 19.12631607055664 L8.607109069824219 19.12631607055664 C8.607109069824219 19.12631607055664 9.50955581665039 19.103404998779297 9.50955581665039 19.753719329833984 L9.50955581665039 20.11878204345703 L8.536886215209961 20.11878204345703 C8.536886215209961 20.11878204345703 8.536886215209961 19.833778381347656 8.196974754333496 19.833778381347656 L6.673597812652588 19.833778381347656 C6.673597812652588 19.833778381347656 6.310153961181641 19.844985961914062 6.310153961181641 20.18738555908203 L6.310153961181641 21.180103302001953 C6.310153961181641 21.180103302001953 6.2751665115356445 21.385046005249023 6.626657485961914 21.385046005249023 L8.208803176879883 21.385046005249023 C8.208803176879883 21.385046005249023 8.525182723999023 21.396499633789062 8.525182723999023 21.191184997558594 L8.525182723999023 21.03143882751465 L7.247836589813232 21.03143882751465 L7.247836589813232 20.404033660888672 L7.247836589813232 20.404033660888672 M12.861233711242676 19.114736557006836 L11.396501541137695 19.114736557006836 L9.732304573059082 22.10321807861328 L10.845670700073242 22.10321807861328 L11.103281021118164 21.62273406982422 L13.189441680908203 21.62273406982422 L13.517524719238281 22.114673614501953 L14.560543060302734 22.114673614501953 L12.861233711242676 19.114736557006836 M11.454896926879883 20.942913055419922 L12.134719848632812 19.817718505859375 L12.802465438842773 20.942913055419922 L11.454896926879883 20.942913055419922 M19.5765438079834 21.16541290283203 L18.638858795166016 21.16541290283203 L18.638858795166016 21.58737564086914 C18.638858795166016 21.58737564086914 18.650564193725586 22.126502990722656 19.400733947753906 22.126502990722656 L21.908485412597656 22.126502990722656 C21.908485412597656 22.126502990722656 22.58843421936035 22.19672393798828 22.58843421936035 21.528732299804688 L22.58843421936035 20.82550048828125 C22.58843421936035 20.82550048828125 22.541494369506836 20.345264434814453 21.82655906677246 20.345264434814453 C21.11187171936035 20.345264434814453 19.728816986083984 20.239681243896484 19.728816986083984 20.239681243896484 C19.728816986083984 20.239681243896484 19.623233795166016 20.227977752685547 19.623233795166016 20.063873291015625 C19.623233795166016 20.063873291015625 19.553009033203125 19.829421997070312 19.86963653564453 19.829421997070312 L21.33437156677246 19.829421997070312 C21.33437156677246 19.829421997070312 21.5454158782959 19.911598205566406 21.5454158782959 20.075576782226562 L22.506256103515625 20.075576782226562 L22.506256103515625 19.723960876464844 C22.506256103515625 19.723960876464844 22.459566116333008 19.13814353942871 21.67428207397461 19.13814353942871 L19.52960205078125 19.13814353942871 C19.52960205078125 19.13814353942871 18.662391662597656 19.00927734375 18.662391662597656 19.876487731933594 L18.650440216064453 20.251758575439453 C18.650440216064453 20.251758575439453 18.650440216064453 20.90792465209961 19.306978225708008 20.90792465209961 L21.463239669799805 21.013259887695312 C21.463239669799805 21.013259887695312 21.627094268798828 21.04849624633789 21.627094268798828 21.271244049072266 C21.627094268798828 21.271244049072266 21.650625228881836 21.51740074157715 21.345703125 21.51740074157715 L19.82244873046875 21.482412338256836 C19.822574615478516 21.482040405273438 19.5765438079834 21.505447387695312 19.5765438079834 21.16541290283203 L19.5765438079834 21.16541290283203 M3.1810998916625977 16.095375061035156 L2.598393440246582 14.53651237487793 L2.9172630310058594 14.419099807739258 L3.371225357055664 15.650750160217285 L3.679013252258301 15.537198066711426 L3.4156761169433594 14.822511672973633 L3.6795120239257812 14.725269317626953 L3.934756278991699 15.418042182922363 L4.319616794586182 15.276225090026855 L3.8781042098999023 14.077569961547852 L4.196974754333496 13.96015739440918 L4.785158634185791 15.519268035888672 L3.1810998916625977 16.095375061035156 L3.1810998916625977 16.095375061035156 M2.3805017471313477 14.0216646194458 L2.317500114440918 13.723340034484863 L3.671170234680176 13.503705024719238 L3.4634876251220703 12.290730476379395 L2.123514175415039 12.5200777053833 L2.0720911026000977 12.219759941101074 L3.3427133560180664 12.001992225646973 C3.3427133560180664 12.001992225646973 3.7633066177368164 11.882587432861328 3.812737464904785 12.17132568359375 L4.034240245819092 13.465106010437012 C4.034240245819092 13.465106010437012 4.080557823181152 13.74276351928711 3.6416616439819336 13.817717552185059 L2.3805017471313477 14.0216646194458 M3.1833410263061523 10.409387588500977 L3.196537971496582 10.340036392211914 C3.2919139862060547 9.83353042602539 3.048123359680176 9.799290657043457 3.048123359680176 9.799290657043457 L2.5297889709472656 9.701799392700195 C2.2650814056396484 9.651745796203613 2.173068046569824 10.07545280456543 2.173068046569824 10.07545280456543 L1.921060562133789 11.411442756652832 L3.5909852981567383 11.726451873779297 L3.6583452224731445 11.369607925415039 L3.047999382019043 11.25406265258789 L3.1154823303222656 10.897217750549316 L3.8654050827026367 10.335055351257324 L3.965386390686035 9.805391311645508 L3.1833410263061523 10.409387588500977 L3.1833410263061523 10.409387588500977 M2.7902631759643555 11.229035377502441 L2.285874366760254 11.12133502960205 L2.4558305740356445 10.22063159942627 C2.4558305740356445 10.22063159942627 2.4896974563598633 10.040963172912598 2.7199153900146484 10.084543228149414 C2.7199153900146484 10.084543228149414 3.0009336471557617 10.112432479858398 2.9715490341186523 10.26844310760498 L2.7902631759643555 11.229035377502441 L2.7902631759643555 11.229035377502441 M13.510552406311035 3.0177431106567383 L13.580402374267578 3.0247154235839844 C14.093507766723633 3.0760135650634766 14.105957984924316 2.836332321166992 14.105957984924316 2.836332321166992 L14.156757354736328 2.3255929946899414 C14.183030128479004 2.0648698806762695 13.752848625183105 2.009960174560547 13.752848625183105 2.009960174560547 L12.399925231933594 1.8751163482666016 L12.23557186126709 3.5208864212036133 L12.59689998626709 3.556870460510254 L12.656913757324219 2.9552392959594727 L13.018240928649902 2.991347312927246 L13.645148277282715 3.673161506652832 L14.181909561157227 3.726700782775879 L13.510552406311035 3.0177431106567383 L13.510552406311035 3.0177431106567383 M12.659404754638672 2.7036046981811523 L12.72140884399414 2.2054405212402344 L13.63306999206543 2.2964582443237305 C13.63306999206543 2.2964582443237305 13.815227508544922 2.314760208129883 13.792816162109375 2.5417423248291016 C13.792816162109375 2.5417423248291016 13.789952278137207 2.816411018371582 13.63182544708252 2.800722122192383 L12.659404754638672 2.7036046981811523 M6.43802547454834 3.452779769897461 L5.5369486808776855 4.220133304595947 C5.188943386077881 4.5165910720825195 5.385295391082764 4.765112400054932 5.385295391082764 4.765112400054932 L6.031251907348633 5.523376941680908 C6.335055828094482 5.8804707527160645 6.654672145843506 5.532465934753418 6.654672145843506 5.532465934753418 L7.484529972076416 4.826122283935547 C7.868020057678223 4.499408721923828 7.64701509475708 4.239805698394775 7.64701509475708 4.239805698394775 L7.072153568267822 3.5284814834594727 C6.775820255279541 3.180352210998535 6.43802547454834 3.452779769897461 6.43802547454834 3.452779769897461 L6.43802547454834 3.452779769897461 M7.391770362854004 4.518583297729492 L6.410384178161621 5.354292392730713 L5.703791618347168 4.524311065673828 L6.685301780700684 3.688352584838867 L7.391770362854004 4.518583297729492 L7.391770362854004 4.518583297729492 M2.9967002868652344 7.510179042816162 L2.5413684844970703 8.602502822875977 C2.365311622619629 9.024341583251953 2.6531782150268555 9.157069206237793 2.6531782150268555 9.157069206237793 L3.5725584030151367 9.54030990600586 C4.005105018615723 9.720600128173828 4.132353782653809 9.26601505279541 4.132353782653809 9.26601505279541 L4.5518269538879395 8.259976387023926 C4.745689392089844 7.7949323654174805 4.431177616119385 7.663574695587158 4.431177616119385 7.663574695587158 L3.59621524810791 7.290169715881348 C3.1746253967285156 7.1142377853393555 2.9967002868652344 7.510179042816162 2.9967002868652344 7.510179042816162 L2.9967002868652344 7.510179042816162 M4.329951286315918 8.027641296386719 L3.833904266357422 9.217580795288086 L2.8279895782470703 8.798108100891113 L3.3240365982055664 7.608168125152588 L4.329951286315918 8.027641296386719 M3.634688377380371 6.756147861480713 C3.634688377380371 6.756147861480713 3.4227724075317383 6.574737071990967 3.6040592193603516 6.344394207000732 L4.365312099456787 5.377451419830322 C4.365312099456787 5.377451419830322 4.555686950683594 5.154454231262207 4.747307300567627 5.305235862731934 L5.030068874359131 5.527859210968018 L4.798107624053955 5.822573661804199 L4.5611653327941895 5.6359333992004395 L3.901388168334961 6.473759651184082 L4.731619358062744 7.127435684204102 L5.391272068023682 6.289609909057617 L5.108510494232178 6.066862106323242 L5.3404717445373535 5.7721476554870605 L5.705534934997559 6.059391498565674 C5.705534934997559 6.059391498565674 5.881715774536133 6.21278715133667 5.6930832862854 6.4524688720703125 L4.910290718078613 7.446928024291992 C4.910290718078613 7.446928024291992 4.755276203155518 7.623233795166016 4.547220230102539 7.474444389343262 L3.634688377380371 6.756147861480713 L3.634688377380371 6.756147861480713 M7.431861877441406 2.8828983306884766 C7.431861877441406 2.8828983306884766 7.629708290100098 2.809438705444336 7.959783554077148 2.924236297607422 L9.319181442260742 3.4187889099121094 L8.91452407836914 2.3313207626342773 L9.27709674835205 2.196600914001465 L9.873747825622559 3.8001623153686523 C9.873747825622559 3.8001623153686523 9.68399429321289 3.995767593383789 9.419535636901855 3.856440544128418 L7.980825424194336 3.316441535949707 L8.369047164916992 4.359833240509033 L8.028637886047363 4.486335277557373 L7.431861877441406 2.8828983306884766 L7.431861877441406 2.8828983306884766 M9.808131217956543 1.986429214477539 L11.726202964782715 1.8619194030761719 L11.746499061584473 2.1769285202026367 L10.974661827087402 2.2272300720214844 L11.064434051513672 3.60555362701416 L10.72514533996582 3.627592086791992 L10.634875297546387 2.237565040588379 L9.828052520751953 2.2901077270507812 L9.808131217956543 1.986429214477539 L9.808131217956543 1.986429214477539 M17.88271141052246 3.780613899230957 L16.653675079345703 4.989479064941406 L17.80439567565918 6.159123420715332 L18.044448852539062 5.922804355621338 L17.150222778320312 5.013758659362793 L18.13907814025879 4.041213035583496 L17.88271141052246 3.780613899230957 L17.88271141052246 3.780613899230957 M21.894290924072266 12.260101318359375 L20.194110870361328 11.97696590423584 L19.92417335510254 13.595592498779297 L20.25686264038086 13.650875091552734 L20.466289520263672 12.393077850341797 L21.834152221679688 12.620929718017578 L21.894290924072266 12.260101318359375 L21.894290924072266 12.260101318359375 M20.85563087463379 7.348565101623535 L20.25860595703125 6.23270845413208 C20.25860595703125 6.23270845413208 20.105213165283203 5.9661335945129395 19.841997146606445 6.106829643249512 L18.766357421875 6.682562828063965 C18.766357421875 6.682562828063965 18.630393981933594 6.792006492614746 18.75564956665039 7.026209354400635 L19.394508361816406 8.219883918762207 C19.394508361816406 8.219883918762207 19.508808135986328 8.466289520263672 19.715496063232422 8.355724334716797 L20.34925079345703 8.016435623168945 L19.869888305664062 7.120961666107178 L19.63593292236328 7.246218204498291 L19.92317771911621 7.783353328704834 L19.57878303527832 7.967876434326172 L19.025836944580078 6.934694766998291 L19.96227264404297 6.433169364929199 L20.522815704345703 7.480296611785889 L20.38523292541504 7.553757190704346 L20.554941177368164 7.87063455581665 L20.87156867980957 7.701052665710449 C20.871692657470703 7.701052665710449 20.98574447631836 7.590985298156738 20.85563087463379 7.348565101623535 L20.85563087463379 7.348565101623535 M20.177425384521484 11.051982879638672 L20.178173065185547 11.395380973815918 L21.901763916015625 11.392268180847168 L21.901264190673828 11.048746109008789 L20.177425384521484 11.051982879638672 L20.177425384521484 11.051982879638672 M21.048744201660156 15.784972190856934 L21.556495666503906 14.711572647094727 L19.998132705688477 13.974226951599121 L19.44369125366211 15.146610260009766 C19.44369125366211 15.146610260009766 19.102783203125 15.851834297180176 19.93413543701172 16.249393463134766 C20.66351318359375 16.598892211914062 21.048744201660156 15.784972190856934 21.048744201660156 15.784972190856934 M19.788084030151367 15.204755783081055 L20.12799644470215 14.486210823059082 L21.08373260498047 14.938304901123047 L20.77220916748047 15.59634017944336 C20.77220916748047 15.59634017944336 20.53626251220703 16.095375061035156 20.088899612426758 15.881093978881836 C19.578908920288086 15.637178421020508 19.788084030151367 15.204755783081055 19.788084030151367 15.204755783081055 L19.788084030151367 15.204755783081055 M16.655420303344727 3.081989288330078 L15.62236213684082 2.504762649536133 C15.223308563232422 2.2820138931274414 15.058706283569336 2.5525741577148438 15.058706283569336 2.5525741577148438 L14.572869300842285 3.4221506118774414 C14.344518661499023 3.8312902450561523 14.781548500061035 4.009836673736572 14.781548500061035 4.009836673736572 L15.733176231384277 4.54136848449707 C16.17306900024414 4.7870259284973145 16.339412689208984 4.489447593688965 16.339412689208984 4.489447593688965 L16.805578231811523 3.7029199600219727 C17.028451919555664 3.3041152954101562 16.655420303344727 3.081989288330078 16.655420303344727 3.081989288330078 L16.655420303344727 3.081989288330078 M15.989043235778809 4.347382545471191 L14.86359977722168 3.718857765197754 L15.395007133483887 2.767353057861328 L16.520450592041016 3.3962526321411133 L15.989043235778809 4.347382545471191 M21.41741943359375 8.641225814819336 L21.46996307373047 8.941293716430664 L20.109569549560547 9.113988876342773 L20.274917602539062 10.333063125610352 L21.622114181518555 10.150781631469727 L21.662952423095703 10.452219009399414 L20.385482788085938 10.6262845993042 C20.385482788085938 10.6262845993042 19.961153030395508 10.730499267578125 19.92168426513672 10.440266609191895 L19.745378494262695 9.140010833740234 C19.745378494262695 9.140010833740234 19.708396911621094 8.860984802246094 20.150035858154297 8.800971031188965 L21.41741943359375 8.641225814819336 L21.41741943359375 8.641225814819336" fill="black" fill-opacity="1.0" filling="0"/>
<path animation_id="4" d="M5.751478672027588 15.582145690917969 L5.751478672027588 5.511672496795654 L18.066862106323242 5.511672496795654 L18.066862106323242 15.582145690917969 L5.751478672027588 15.582145690917969" fill="black" fill-opacity="1.0" filling="0"/>
<path animation_id="5" d="M16.660276412963867 15.582145690917969 C17.538442611694336 14.51845932006836 18.066862106323242 13.15395736694336 18.066862106323242 11.66718578338623 C18.066862106323242 8.267571449279785 15.308722496032715 5.511548042297363 11.90910816192627 5.511548042297363 C8.50600814819336 5.511548042297363 5.751478672027588 8.267571449279785 5.751478672027588 11.66718578338623 C5.751478672027588 13.115234375 6.250638008117676 14.446990013122559 7.0887131690979 15.498723983764648 L11.905497550964355 12.248147964477539 L16.660276412963867 15.582145690917969" fill="black" fill-opacity="1.0" filling="0"/>
<path animation_id="6" d="M18.400920867919922 11.762808799743652 C18.400920867919922 15.393762588500977 15.492249488830566 18.33717155456543 11.904252052307129 18.33717155456543 C8.316130638122559 18.33717155456543 5.407458305358887 15.393638610839844 5.407458305358887 11.762808799743652 C5.407458305358887 8.131979942321777 8.316130638122559 5.188445568084717 11.904252052307129 5.188445568084717 C15.492249488830566 5.188445568084717 18.400920867919922 8.131979942321777 18.400920867919922 11.762808799743652 L18.400920867919922 11.762808799743652" fill="none" filling="0" stroke="black" stroke-opacity="1.0" stroke-width=".3"/>
<path animation_id="7" d="M1.4474258422851562 19.16229820251465 L5.933262825012207 16.2557430267334 A7.477557182312012 7.477557182312012 0.0 0 1 4.369420528411865 11.669053077697754 C4.369420528411865 7.516279697418213 7.742887496948242 4.149660587310791 11.904252052307129 4.149660587310791 C16.065866470336914 4.149660587310791 19.439083099365234 7.516279697418213 19.439083099365234 11.669053077697754 C19.439083099365234 13.441450119018555 18.82450294494629 15.07028579711914 17.796924591064453 16.355724334716797 L22.137706756591797 19.284568786621094" fill="none" filling="0" stroke="black" stroke-opacity="1.0" stroke-width=".3"/>
<path animation_id="8" d="M13.029321670532227 9.512171745300293 L11.904376983642578 12.199962615966797 L10.904314994812012 9.605926513671875 M11.904252052307129 12.247152328491211 L9.154081344604492 12.247152328491211 L11.904252052307129 12.247152328491211" fill="none" filling="0" stroke="black" stroke-opacity="1.0" stroke-width=".3"/>
<path animation_id="9" d="M14.96694278717041 11.997137069702148 L14.6541748046875 12.028264045715332 L14.6541748046875 12.184648513793945 L15.654485702514648 12.278279304504395 L15.529478073120117 12.434663772583008 L15.654485702514648 12.590799331665039 L16.15439224243164 12.309407234191895 L17.810745239257812 12.372159004211426 L17.56072998046875 12.028264045715332 L15.498101234436035 11.872252464294434 L15.216958045959473 11.590861320495605 L14.5919189453125 11.559609413146973 L14.6541748046875 11.684617042541504 L14.810309410095215 11.684617042541504 L14.96694278717041 11.997137069702148" fill="black" fill-opacity="1.0" filling="0"/>
<path animation_id="10" d="M14.373156547546387 10.996949195861816 L11.904252052307129 12.247152328491211 L14.6541748046875 12.309407234191895" fill="none" filling="0" stroke="black" stroke-opacity="1.0" stroke-width=".3"/>
<path animation_id="11" d="M14.685799598693848 10.966071128845215 L15.060823440551758 10.996949195861816 L15.310590744018555 10.809438705444336 L15.373093605041504 10.996949195861816 L15.498101234436035 10.996949195861816 L15.873000144958496 10.528170585632324 L16.248023986816406 10.622050285339355 L16.404407501220703 10.465790748596191 L16.310527801513672 10.247152328491211 L16.935815811157227 9.684617042541504 L16.81056022644043 9.590736389160156 L16.404407501220703 9.590736389160156 L15.310590744018555 10.340784072875977 L14.185644149780273 10.340784072875977 L13.966756820678711 10.528170585632324 L14.5919189453125 10.74693489074707 L14.373156547546387 10.996949195861816 L14.685799598693848 10.966071128845215 L14.685799598693848 10.966071128845215 M11.904252052307129 6.434414863586426 L11.779244422912598 6.715682029724121 L11.654236793518066 8.121895790100098 L10.11903190612793 9.286931991577148 L10.11903190612793 9.380813598632812 L10.591670989990234 9.434601783752441 L10.84168529510498 9.371973037719727 L11.12282943725586 9.52835750579834 L11.591856956481934 9.52835750579834 L11.716864585876465 9.434601783752441 L11.904252052307129 9.684617042541504 L12.18564510345459 9.371973037719727 L12.279275894165039 9.465728759765625 L12.810434341430664 9.52835750579834 L13.060574531555176 9.309593200683594 L13.310589790344238 9.496980667114258 L13.716740608215332 9.465728759765625 L12.154267311096191 8.121895790100098 L11.998132705688477 6.715682029724121 L11.904252052307129 6.434414863586426 L11.904252052307129 6.434414863586426 M6.9040656089782715 9.247089385986328 L6.435286521911621 9.340846061706543 L6.3415303230285645 9.496980667114258 L7.46660041809082 10.059639930725098 L7.560356140136719 10.465790748596191 L7.935379981994629 10.653302192687988 L8.310403823852539 10.528170585632324 L8.716554641723633 10.528170585632324 L9.122953414916992 10.684555053710938 L9.279088973999023 10.55954647064209 L9.24783706665039 10.215900421142578 L9.748117446899414 10.122143745422363 L8.872814178466797 9.622113227844238 L8.591546058654785 9.747119903564453 L8.372782707214355 9.590736389160156 L8.24789810180664 9.684617042541504 L8.029135704040527 9.747119903564453 L6.9040656089782715 9.247089385986328 L6.9040656089782715 9.247089385986328 M6.247774600982666 11.840876579284668 L8.27902603149414 11.840876579284668 L8.310403823852539 11.74712085723877 L8.029135704040527 11.715993881225586 L8.154142379760742 11.559609413146973 L8.529166221618652 11.559609413146973 L8.841686248779297 11.122206687927246 L9.21670913696289 11.122206687927246 L9.029197692871094 11.49710464477539 L9.21670913696289 11.74712085723877 L8.997945785522461 11.809749603271484 L8.935441970825195 11.9658842086792 L9.122953414916992 12.028264045715332 L9.122953414916992 12.153271675109863 L7.497977256774902 12.372159004211426 L6.247774600982666 12.215775489807129 L5.9665069580078125 12.059640884399414 L6.247774600982666 11.840876579284668" fill="black" fill-opacity="1.0" filling="0"/>
<path animation_id="12" d="M11.904252052307129 12.247152328491211 L9.466849327087402 10.590923309326172" fill="none" filling="0" stroke="black" stroke-opacity="1.0" stroke-width=".3"/>
<path animation_id="13" d="M16.647327423095703 15.626969337463379 A6.1318559646606445 6.1318559646606445 0.0 0 0 18.053165435791016 11.710515022277832 C18.053165435791016 8.31027889251709 15.296395301818848 5.553757190704346 11.896159172058105 5.553757190704346 C8.495922088623047 5.553757190704346 5.739276885986328 8.310403823852539 5.739276885986328 11.710515022277832 A6.131606578826904 6.131606578826904 0.0 0 0 7.077632427215576 15.54379653930664 L11.892423629760742 12.290730476379395 L16.647327423095703 15.626969337463379 L16.647327423095703 15.626969337463379" fill="none" filling="0" stroke="black" stroke-opacity="1.0" stroke-width=".3"/></svg>