<?xml version="1.0" encoding="iso-8859-1"?><svg height="200px" viewBox="0.0 0.0 24.0 24.0" width="200px" xmlns="http://www.w3.org/2000/svg"><path animation_id="0" d="M0.0 0.0 L24.0 0.0 L24.0 24.0 L0.0 24.0 L0.0 0.0" fill="black" fill-opacity="1.0" filling="0"/>
<path animation_id="1" d="M6.526925563812256 13.379444122314453 L6.079561710357666 13.379444122314453 L6.079561710357666 11.425885200500488 L6.064620494842529 11.425885200500488 L5.632073879241943 13.379444122314453 L5.154952526092529 13.379444122314453 L4.722405910491943 11.425885200500488 L4.722405910491943 13.379444122314453 L4.260100841522217 13.379444122314453 L4.260100841522217 11.038162231445312 L4.975907802581787 11.038162231445312 L5.393513202667236 12.887256622314453 L5.408454418182373 12.887256622314453 L5.826059818267822 11.038162231445312 L6.526925563812256 11.038162231445312 L6.526925563812256 13.379444122314453 L6.526925563812256 13.379444122314453 M8.689286231994629 11.455642700195312 L7.451534748077393 11.455642700195312 L7.451534748077393 11.947830200195312 L8.584946632385254 11.947830200195312 L8.584946632385254 12.365311622619629 L7.451534748077393 12.365311622619629 L7.451534748077393 12.96196174621582 L8.748926162719727 12.96196174621582 L8.748926162719727 13.379444122314453 L6.9742889404296875 13.379444122314453 L6.9742889404296875 11.038162231445312 L8.689286231994629 11.038162231445312 L8.689286231994629 11.455642700195312 M9.598954200744629 12.067234992980957 L9.598954200744629 11.455642700195312 L10.210421562194824 11.455642700195312 C10.493680953979492 11.455642700195312 10.553445816040039 11.634688377380371 10.553445816040039 11.753969192504883 C10.553445816040039 11.977588653564453 10.434165954589844 12.067234992980957 10.18053913116455 12.067234992980957 L9.598954200744629 12.067234992980957 L9.598954200744629 12.067234992980957 M9.121832847595215 13.379444122314453 L9.599079132080078 13.379444122314453 L9.599079132080078 12.469651222229004 L10.106082916259766 12.469651222229004 C10.464048385620117 12.469651222229004 10.493805885314941 12.589056015014648 10.493805885314941 12.902322769165039 C10.493805885314941 13.140883445739746 10.508747100830078 13.260039329528809 10.538504600524902 13.379444122314453 L11.07539176940918 13.379444122314453 L11.07539176940918 13.319803237915039 C10.971051216125488 13.275104522705078 10.971051216125488 13.185582160949707 10.971051216125488 12.857499122619629 C10.971051216125488 12.41001033782959 10.866588592529297 12.350495338439941 10.67272663116455 12.26097297668457 C10.911287307739258 12.186266899108887 11.04550838470459 11.962647438049316 11.04550838470459 11.709145545959473 C11.04550838470459 11.50034236907959 10.926227569580078 11.03803825378418 10.299943923950195 11.03803825378418 L9.121832847595215 11.03803825378418 L9.121832847595215 13.379444122314453 L9.121832847595215 13.379444122314453 M11.418415069580078 11.038162231445312 L11.910602569580078 11.038162231445312 L11.910602569580078 13.379444122314453 L11.418415069580078 13.379444122314453 L11.418415069580078 11.038162231445312 M12.149162292480469 11.038162231445312 L12.67098331451416 11.038162231445312 C12.969308853149414 12.320612907409668 12.999066352844238 12.484841346740723 13.043766021728516 12.753284454345703 C13.088464736938477 12.514474868774414 13.118471145629883 12.275914192199707 13.371849060058594 11.038162231445312 L13.878852844238281 11.038162231445312 C14.162361145019531 12.320612907409668 14.177177429199219 12.454833984375 14.236818313598633 12.753284454345703 C14.281517028808594 12.529540061950684 14.3115234375 12.335554122924805 14.624666213989258 11.038162231445312 L15.116602897644043 11.038162231445312 L14.460437774658203 13.379444122314453 L13.983315467834473 13.379444122314453 C13.744754791259766 12.231090545654297 13.700056076049805 12.007346153259277 13.625349998474121 11.560107231140137 C13.550644874572754 12.007471084594727 13.505945205688477 12.171574592590332 13.26738452911377 13.379444122314453 L12.80508041381836 13.379444122314453 L12.149162292480469 11.038162231445312 L12.149162292480469 11.038162231445312 M15.71325397491455 12.216273307800293 C15.71325397491455 11.559983253479004 16.086036682128906 11.396003723144531 16.339662551879883 11.396003723144531 C16.60810661315918 11.396003723144531 16.98088836669922 11.560107231140137 16.98088836669922 12.216273307800293 C16.98088836669922 12.857499122619629 16.60810661315918 13.021478652954102 16.339662551879883 13.021478652954102 C16.086036682128906 13.021478652954102 15.71325397491455 12.857623100280762 15.71325397491455 12.216273307800293 M15.22131633758545 12.216273307800293 C15.22131633758545 13.304986953735352 16.026519775390625 13.438959121704102 16.339662551879883 13.438959121704102 C16.652803421020508 13.438959121704102 17.458009719848633 13.304986953735352 17.458009719848633 12.216273307800293 C17.458009719848633 11.112619400024414 16.652803421020508 10.978397369384766 16.339662551879883 10.978397369384766 C16.026519775390625 10.978397369384766 15.22131633758545 11.112619400024414 15.22131633758545 12.216273307800293 L15.22131633758545 12.216273307800293 M18.218765258789062 12.216273307800293 C18.218765258789062 11.559983253479004 18.59154510498047 11.396003723144531 18.84492301940918 11.396003723144531 C19.113367080688477 11.396003723144531 19.486148834228516 11.560107231140137 19.486148834228516 12.216273307800293 C19.486148834228516 12.857499122619629 19.113367080688477 13.021478652954102 18.84492301940918 13.021478652954102 C18.59154510498047 13.021478652954102 18.218765258789062 12.857623100280762 18.218765258789062 12.216273307800293 M17.726577758789062 12.216273307800293 C17.726577758789062 13.304986953735352 18.546846389770508 13.438959121704102 18.84492301940918 13.438959121704102 C19.15818977355957 13.438959121704102 19.97846031188965 13.304986953735352 19.97846031188965 12.216273307800293 C19.97846031188965 11.112619400024414 19.15818977355957 10.978397369384766 18.84492301940918 10.978397369384766 C18.546846389770508 10.978397369384766 17.726577758789062 11.112619400024414 17.726577758789062 12.216273307800293 L17.726577758789062 12.216273307800293 M20.82861328125 11.455642700195312 L21.290668487548828 11.455642700195312 C21.499595642089844 11.455642700195312 21.827552795410156 11.50034236907959 21.827552795410156 12.18639087677002 C21.827552795410156 12.574238777160645 21.69333267211914 12.976778984069824 21.290668487548828 12.976778984069824 L20.82861328125 12.976778984069824 L20.82861328125 11.455642700195312 M20.351242065429688 13.379444122314453 L21.350433349609375 13.379444122314453 C22.12600326538086 13.379444122314453 22.319740295410156 12.663761138916016 22.319740295410156 12.156758308410645 C22.319740295410156 11.709269523620605 22.155635833740234 11.038162231445312 21.38031578063965 11.038162231445312 L20.351116180419922 11.038162231445312 L20.351116180419922 13.379444122314453 L20.351242065429688 13.379444122314453 L20.351242065429688 13.379444122314453 M10.538504600524902 13.871631622314453 L10.911287307739258 13.871631622314453 L10.911287307739258 14.751541137695312 L10.538504600524902 14.751541137695312 L10.538504600524902 13.871631622314453 M11.224554061889648 13.871631622314453 L11.77638053894043 13.871631622314453 L12.074581146240234 14.468156814575195 L12.08964729309082 14.468156814575195 L12.08964729309082 13.871631622314453 L12.417606353759766 13.871631622314453 L12.417606353759766 14.751541137695312 L11.880719184875488 14.751541137695312 L11.567453384399414 14.125007629394531 L11.552637100219727 14.125007629394531 L11.552637100219727 14.751541137695312 L11.224554061889648 14.751541137695312 L11.224554061889648 13.871631622314453 M13.118471145629883 14.065492630004883 L13.222809791564941 14.065492630004883 C13.386914253234863 14.065492630004883 13.491253852844238 14.140198707580566 13.491253852844238 14.30405330657959 C13.491253852844238 14.483098030090332 13.386914253234863 14.557679176330566 13.222809791564941 14.557679176330566 L13.118471145629883 14.557679176330566 L13.118471145629883 14.065492630004883 M12.745688438415527 14.751541137695312 L13.282450675964355 14.751541137695312 C13.565959930419922 14.751541137695312 13.655232429504395 14.721658706665039 13.759820938110352 14.632135391235352 C13.849344253540039 14.57249641418457 13.878976821899414 14.453091621398926 13.878976821899414 14.318869590759277 C13.878976821899414 14.184897422790527 13.834278106689453 14.08030891418457 13.774637222290039 14.005851745605469 C13.655232429504395 13.886446952819824 13.476436614990234 13.871631622314453 13.222809791564941 13.871631622314453 L12.745688438415527 13.871631622314453 L12.745688438415527 14.751541137695312 M14.162485122680664 13.871631622314453 L14.52020263671875 13.871631622314453 L14.52020263671875 14.348751068115234 C14.52020263671875 14.527796745300293 14.57996654510498 14.57249641418457 14.699247360229492 14.57249641418457 C14.81865119934082 14.57249641418457 14.878292083740234 14.527796745300293 14.878292083740234 14.348751068115234 L14.878292083740234 13.871631622314453 L15.221441268920898 13.871631622314453 L15.221441268920898 14.393450736999512 C15.221441268920898 14.52767276763916 15.206375122070312 14.587312698364258 15.146735191345215 14.647077560424805 C15.057212829589844 14.736599922180176 14.893108367919922 14.781299591064453 14.699247360229492 14.781299591064453 C14.490568161010742 14.781299591064453 14.34128189086914 14.736599922180176 14.252007484436035 14.647077560424805 C14.192243576049805 14.587312698364258 14.162485122680664 14.52767276763916 14.162485122680664 14.393450736999512 L14.162485122680664 13.871631622314453 L14.162485122680664 13.871631622314453 M15.89229965209961 14.468156814575195 C15.89229965209961 14.527796745300293 15.907115936279297 14.557679176330566 15.93699836730957 14.587312698364258 C15.952064514160156 14.602378845214844 15.996639251708984 14.617195129394531 16.041337966918945 14.617195129394531 C16.116043090820312 14.617195129394531 16.205442428588867 14.602378845214844 16.205442428588867 14.52767276763916 C16.205442428588867 14.512855529785156 16.190624237060547 14.497790336608887 16.190624237060547 14.482973098754883 C16.130859375 14.423334121704102 15.71325397491455 14.378634452819824 15.594099044799805 14.27429485321045 C15.534334182739258 14.244412422180176 15.519392013549805 14.169707298278809 15.519392013549805 14.125007629394531 C15.519392013549805 13.931146621704102 15.698437690734863 13.841748237609863 16.056278228759766 13.841748237609863 C16.443878173828125 13.841748237609863 16.563282012939453 13.946087837219238 16.563282012939453 14.125007629394531 L16.190500259399414 14.125007629394531 C16.190500259399414 14.08030891418457 16.175434112548828 14.050551414489746 16.145801544189453 14.03548526763916 C16.11591911315918 14.005851745605469 16.086036682128906 14.005851745605469 16.041213989257812 14.005851745605469 C15.95193862915039 14.005851745605469 15.922057151794434 14.03548526763916 15.922057151794434 14.08030891418457 C15.922057151794434 14.095375061035156 15.922057151794434 14.110191345214844 15.936874389648438 14.125007629394531 C15.996513366699219 14.184772491455078 16.399179458618164 14.214530944824219 16.518585205078125 14.318869590759277 C16.563282012939453 14.36381721496582 16.593040466308594 14.40864086151123 16.593040466308594 14.497915267944336 C16.593040466308594 14.662018775939941 16.44400405883789 14.781423568725586 16.026397705078125 14.781423568725586 C15.549275398254395 14.781423568725586 15.519392013549805 14.632135391235352 15.519392013549805 14.468156814575195 L15.89229965209961 14.468156814575195 L15.89229965209961 14.468156814575195 M17.100168228149414 14.08030891418457 L16.816783905029297 14.08030891418457 L16.816783905029297 13.871631622314453 L17.77127456665039 13.871631622314453 L17.77127456665039 14.08030891418457 L17.48801612854004 14.08030891418457 L17.48801612854004 14.751541137695312 L17.100168228149414 14.751541137695312 L17.100168228149414 14.08030891418457 L17.100168228149414 14.08030891418457 M18.41262435913086 14.050675392150879 L18.546846389770508 14.050675392150879 C18.636367797851562 14.050675392150879 18.695886611938477 14.08030891418457 18.695886611938477 14.155014038085938 C18.695886611938477 14.229721069335938 18.636245727539062 14.259354591369629 18.546846389770508 14.259354591369629 L18.41262435913086 14.259354591369629 L18.41262435913086 14.050675392150879 L18.41262435913086 14.050675392150879 M18.025028228759766 14.751541137695312 L18.41262435913086 14.751541137695312 L18.41262435913086 14.438274383544922 L18.516963958740234 14.438274383544922 C18.651185989379883 14.438274383544922 18.66600227355957 14.453091621398926 18.681068420410156 14.557679176330566 L18.71070098876953 14.751541137695312 L19.08373260498047 14.751541137695312 L19.039033889770508 14.453215599060059 C19.023967742919922 14.36394214630127 18.94951057434082 14.334059715270996 18.874929428100586 14.334059715270996 L18.874929428100586 14.318994522094727 C18.979270935058594 14.304178237915039 19.053974151611328 14.229721069335938 19.053974151611328 14.110316276550293 C19.053974151611328 13.91645336151123 18.904937744140625 13.871755599975586 18.666128158569336 13.871755599975586 L18.025150299072266 13.871755599975586 L18.025150299072266 14.751541137695312 L18.025028228759766 14.751541137695312 L18.025028228759766 14.751541137695312 M19.367116928100586 13.871631622314453 L19.739898681640625 13.871631622314453 L19.739898681640625 14.751541137695312 L19.367116928100586 14.751541137695312 L19.367116928100586 13.871631622314453 M20.08279800415039 13.871631622314453 L20.932952880859375 13.871631622314453 L20.932952880859375 14.050675392150879 L20.440765380859375 14.050675392150879 L20.440765380859375 14.214530944824219 L20.90306854248047 14.214530944824219 L20.90306854248047 14.40864086151123 L20.440765380859375 14.40864086151123 L20.440765380859375 14.57249641418457 L20.947769165039062 14.57249641418457 L20.947769165039062 14.751541137695312 L20.08279800415039 14.751541137695312 L20.08279800415039 13.871631622314453 M21.58911895751953 14.468156814575195 C21.58911895751953 14.527796745300293 21.60393524169922 14.557679176330566 21.618999481201172 14.587312698364258 C21.64863395690918 14.602378845214844 21.678640365600586 14.617195129394531 21.723339080810547 14.617195129394531 C21.812862396240234 14.617195129394531 21.88744354248047 14.602378845214844 21.88744354248047 14.52767276763916 C21.88744354248047 14.512855529785156 21.88744354248047 14.497790336608887 21.872377395629883 14.482973098754883 C21.827678680419922 14.423334121704102 21.39525604248047 14.378634452819824 21.27585220336914 14.27429485321045 C21.23115348815918 14.244412422180176 21.216211318969727 14.169707298278809 21.216211318969727 14.125007629394531 C21.216211318969727 13.931146621704102 21.39525604248047 13.841748237609863 21.753097534179688 13.841748237609863 C22.125879287719727 13.841748237609863 22.24503517150879 13.946087837219238 22.24503517150879 14.125007629394531 L21.887317657470703 14.125007629394531 C21.887317657470703 14.08030891418457 21.857437133789062 14.050551414489746 21.842620849609375 14.03548526763916 C21.81273651123047 14.005851745605469 21.767913818359375 14.005851745605469 21.723215103149414 14.005851745605469 C21.648509979248047 14.005851745605469 21.603809356689453 14.03548526763916 21.603809356689453 14.08030891418457 C21.603809356689453 14.095375061035156 21.618877410888672 14.110191345214844 21.618877410888672 14.125007629394531 C21.678516387939453 14.184772491455078 22.095996856689453 14.214530944824219 22.215402603149414 14.318869590759277 C22.24503517150879 14.36381721496582 22.289859771728516 14.40864086151123 22.289859771728516 14.497915267944336 C22.289859771728516 14.662018775939941 22.12600326538086 14.781423568725586 21.723215103149414 14.781423568725586 C21.231027603149414 14.781423568725586 21.216211318969727 14.632135391235352 21.201396942138672 14.468156814575195 L21.58911895751953 14.468156814575195 L21.58911895751953 14.468156814575195" fill="black" fill-opacity="1.0" filling="0"/>
<path animation_id="2" d="M2.6047439575195312 11.440827369689941 L2.6942663192749023 11.798792839050293 L1.5907363891601562 11.798792839050293 L1.6802597045898438 11.440827369689941 L2.6047439575195312 11.440827369689941 M3.8873186111450195 12.827616691589355 L3.5144119262695312 11.798667907714844 L2.6942663192749023 11.798667907714844 L3.111872673034668 13.126066207885742 C3.1715126037597656 13.289920806884766 3.29091739654541 13.424266815185547 3.544419288635254 13.424266815185547 C3.7532215118408203 13.424266815185547 3.9321422576904297 13.260163307189941 3.9321422576904297 13.03666877746582 C3.9321422576904297 13.006661415100098 3.9170761108398438 12.917139053344727 3.8873186111450195 12.827616691589355 M1.6802597045898438 11.440827369689941 L2.142563819885254 10.113553047180176 L2.157504081726074 10.113553047180176 L2.604867935180664 11.440827369689941 L3.3952560424804688 11.440827369689941 L2.754030227661133 9.695947647094727 C2.664632797241211 9.427504539489746 2.4557056427001953 9.218701362609863 2.142563819885254 9.218701362609863 C1.8442392349243164 9.218701362609863 1.6206188201904297 9.427504539489746 1.5310964584350586 9.695947647094727 L0.9046878814697266 11.440827369689941 L1.6802597045898438 11.440827369689941 L1.6802597045898438 11.440827369689941 M0.7704668045043945 11.798667907714844 L0.39756011962890625 12.827616691589355 C0.36780261993408203 12.917139053344727 0.3528604507446289 13.006661415100098 0.3528604507446289 13.036543846130371 C0.3528604507446289 13.260039329528809 0.5319061279296875 13.424142837524414 0.7555255889892578 13.424142837524414 C0.9942102432250977 13.424142837524414 1.1134910583496094 13.289920806884766 1.1731300354003906 13.125941276550293 L1.5907363891601562 11.798543930053711 L0.7704668045043945 11.798543930053711 L0.7704668045043945 11.798667907714844 L0.7704668045043945 11.798667907714844" fill="black" fill-opacity="1.0" filling="0"/>
<path animation_id="3" d="M23.348690032958984 13.215588569641113 L23.49797821044922 12.76810073852539 L23.647014617919922 12.76810073852539 L23.647014617919922 13.379444122314453 L23.557491302490234 13.379444122314453 L23.557491302490234 12.887256622314453 L23.378448486328125 13.379444122314453 L23.31880760192871 13.379444122314453 L23.13976287841797 12.887256622314453 L23.13976287841797 13.379444122314453 L23.035175323486328 13.379444122314453 L23.035175323486328 12.76810073852539 L23.184459686279297 12.76810073852539 L23.348690032958984 13.215588569641113 L23.348690032958984 13.215588569641113 M22.946273803710938 12.857623100280762 L22.767229080200195 12.857623100280762 L22.767229080200195 13.379444122314453 L22.67770767211914 13.379444122314453 L22.67770767211914 12.857623100280762 L22.498661041259766 12.857623100280762 L22.498661041259766 12.76810073852539 L22.946151733398438 12.76810073852539 L22.946151733398438 12.857623100280762 L22.946273803710938 12.857623100280762 L22.946273803710938 12.857623100280762" fill="black" fill-opacity="1.0" filling="0"/></svg>