<?xml version="1.0" encoding="iso-8859-1"?><svg height="200px" viewBox="0.0 0.0 24.0 24.0" width="200px" xmlns="http://www.w3.org/2000/svg"><path animation_id="0" d="M0.0 0.0 L24.0 0.0 L24.0 24.0 L0.0 24.0 L0.0 0.0" fill="black" fill-opacity="1.0" filling="0"/>
<path animation_id="1" d="M4.529415130615234 16.989728927612305 L12.15451717376709 22.94116973876953 L19.47556495666504 16.99172019958496 L19.47556495666504 1.064558982849121 L4.529415130615234 1.0588302612304688 C4.529415130615234 1.0588302612304688 4.517836093902588 16.98026466369629 4.529415130615234 16.989728927612305" fill="black" fill-opacity="1.0" filling="0"/>
<path animation_id="2" d="M12.15264892578125 10.862354278564453 L12.150656700134277 16.602752685546875 L12.150656700134277 10.862354278564453 L12.15264892578125 10.862354278564453 M12.150656700134277 22.343399047851562 L18.997695922851562 16.676212310791016 L12.15264892578125 10.862354278564453 L12.150656700134277 16.602752685546875 L12.150656700134277 22.343399047851562 L12.150656700134277 22.343399047851562 M12.150656700134277 16.602874755859375 L12.148664474487305 22.34539031982422 L5.082736492156982 16.68218994140625 L12.150531768798828 10.862478256225586 L12.150531768798828 16.602874755859375 L12.150656700134277 16.602874755859375 M12.148664474487305 22.34539031982422 L12.150656700134277 22.343399047851562 L12.150656700134277 16.602874755859375 L12.148664474487305 22.34539031982422 L12.148664474487305 22.34539031982422" fill="black" fill-opacity="1.0" filling="0"/>
<path animation_id="3" d="M5.082861423492432 16.682064056396484 L5.077009677886963 3.0923242568969727 L12.15264892578125 3.0961837768554688 L12.15264892578125 10.862354278564453 L5.082861423492432 16.682064056396484 L5.082861423492432 16.682064056396484" fill="black" fill-opacity="1.0" filling="0"/>
<path animation_id="4" d="M12.15264892578125 10.862354278564453 L12.15264892578125 3.0961837768554688 L18.995704650878906 3.1000442504882812 L18.997695922851562 16.67633819580078 L12.15264892578125 10.862354278564453 L12.15264892578125 10.862354278564453" fill="black" fill-opacity="1.0" filling="0"/>
<path animation_id="5" d="M13.121957778930664 4.789143085479736 L17.999378204345703 4.789143085479736 L17.999378204345703 5.650002956390381 L13.121957778930664 5.650002956390381 L13.121957778930664 4.789143085479736 L13.121957778930664 4.789143085479736" fill="black" fill-opacity="1.0" filling="0"/>
<path animation_id="6" d="M17.140260696411133 5.450787544250488 L17.140260696411133 5.396625518798828 C17.190561294555664 5.396625518798828 17.231151580810547 5.379194259643555 17.262279510498047 5.3463239669799805 C17.295150756835938 5.313328742980957 17.310714721679688 5.2670111656188965 17.310714721679688 5.205130100250244 C17.310714721679688 5.166407108306885 17.304861068725586 5.1335368156433105 17.291290283203125 5.104526042938232 A0.14941169321537018 0.14941169321537018 0.0 0 0 17.229284286499023 5.036792755126953 A0.16920873522758484 0.16920873522758484 0.0 0 0 17.140260696411133 5.013509273529053 L17.140260696411133 4.959347724914551 C17.186702728271484 4.959347724914551 17.229284286499023 4.969059467315674 17.266263961791992 4.990350723266602 C17.302993774414062 5.011641502380371 17.33188247680664 5.040652751922607 17.351428985595703 5.077383041381836 C17.370601654052734 5.116105556488037 17.380313873291016 5.158687591552734 17.380313873291016 5.205130100250244 C17.380313873291016 5.253439903259277 17.36861228942871 5.296021938323975 17.349435806274414 5.334744453430176 A0.2061881422996521 0.2061881422996521 0.0 0 1 17.262405395507812 5.4199090003967285 C17.223682403564453 5.441075801849365 17.182842254638672 5.450787544250488 17.140260696411133 5.450787544250488 L17.140260696411133 5.450787544250488 M17.140260696411133 4.959347724914551 L17.140260696411133 5.013509273529053 C17.09381866455078 5.013509273529053 17.0532283782959 5.029073238372803 17.02035903930664 5.05795955657959 C16.985618591308594 5.088962554931641 16.968063354492188 5.14113187789917 16.968063354492188 5.210857391357422 C16.968063354492188 5.268878936767578 16.985618591308594 5.313328742980957 17.016498565673828 5.3463239669799805 C17.04936981201172 5.379194259643555 17.090206146240234 5.396625518798828 17.140260696411133 5.396625518798828 L17.140260696411133 5.450787544250488 C17.091825485229492 5.450787544250488 17.051237106323242 5.439208507537842 17.012638092041016 5.417917251586914 A0.21776753664016724 0.21776753664016724 0.0 0 1 16.92946434020996 5.328892707824707 A0.25549399852752686 0.25549399852752686 0.0 0 1 16.90057945251465 5.210857391357422 C16.90057945251465 5.131544589996338 16.92174530029297 5.069663047790527 16.96818733215332 5.025213241577148 C17.012638092041016 4.98063850402832 17.068790435791016 4.959347724914551 17.140260696411133 4.959347724914551 L17.140260696411133 4.959347724914551 M15.662205696105957 5.450787544250488 L15.662205696105957 5.396625518798828 C15.710639953613281 5.396625518798828 15.751229286193848 5.379194259643555 15.784099578857422 5.3463239669799805 C15.817220687866211 5.313328742980957 15.832534790039062 5.2670111656188965 15.832534790039062 5.205130100250244 C15.832534790039062 5.166407108306885 15.826683044433594 5.1335368156433105 15.811367988586426 5.104526042938232 C15.797796249389648 5.075515270233154 15.778247833251953 5.052231788635254 15.751354217529297 5.036792755126953 C15.72446060180664 5.021353244781494 15.695199966430664 5.013509273529053 15.66232967376709 5.013509273529053 L15.66232967376709 4.959347724914551 C15.708772659301758 4.959347724914551 15.749361991882324 4.969059467315674 15.786092758178711 4.990350723266602 C15.824814796447754 5.011641502380371 15.851958274841309 5.040652751922607 15.871257781982422 5.077383041381836 C15.890680313110352 5.116105556488037 15.900392532348633 5.158687591552734 15.900392532348633 5.205130100250244 C15.900392532348633 5.253439903259277 15.890680313110352 5.296021938323975 15.871257781982422 5.334744453430176 C15.850090980529785 5.373467445373535 15.820955276489258 5.400485992431641 15.784225463867188 5.4199090003967285 A0.25026458501815796 0.25026458501815796 0.0 0 1 15.662205696105957 5.450787544250488 L15.662205696105957 5.450787544250488 M15.94646167755127 5.441075801849365 L15.94646167755127 5.383054733276367 L16.203947067260742 5.07937479019165 C16.221254348754883 5.058084011077881 16.238685607910156 5.038784980773926 16.256240844726562 5.023345947265625 L15.97559642791748 5.023345947265625 L15.97559642791748 4.967191696166992 L16.335554122924805 4.967191696166992 L16.335554122924805 5.023345947265625 L16.05291748046875 5.35230016708374 L16.022037506103516 5.385170936584473 L16.34302520751953 5.385170936584473 L16.34302520751953 5.441075801849365 L15.94646167755127 5.441075801849365 M16.093631744384766 4.938056468963623 L16.140073776245117 4.847164630889893 L16.221254348754883 4.847164630889893 L16.145925521850586 4.938056468963623 L16.093631744384766 4.938056468963623 M16.41287612915039 5.441075801849365 L16.41287612915039 4.967067718505859 L16.48247528076172 4.967067718505859 L16.74556541442871 5.3404717445373535 L16.74556541442871 4.967067718505859 L16.80956268310547 4.967067718505859 L16.80956268310547 5.441075801849365 L16.7417049407959 5.441075801849365 L16.476871490478516 5.069663047790527 L16.476871490478516 5.441075801849365 L16.41287612915039 5.441075801849365 L16.41287612915039 5.441075801849365 M15.662205696105957 4.959347724914551 L15.662205696105957 5.013509273529053 C15.613771438598633 5.013509273529053 15.575173377990723 5.029073238372803 15.54030990600586 5.05795955657959 C15.507439613342285 5.088962554931641 15.490007400512695 5.14113187789917 15.490007400512695 5.210857391357422 C15.490007400512695 5.268878936767578 15.505571365356445 5.313328742980957 15.538442611694336 5.3463239669799805 C15.57131290435791 5.379194259643555 15.611903190612793 5.396625518798828 15.660337448120117 5.396625518798828 L15.66232967376709 5.396625518798828 L15.66232967376709 5.450787544250488 C15.613895416259766 5.450787544250488 15.57143783569336 5.439208507537842 15.534707069396973 5.417917251586914 C15.497977256774902 5.396625518798828 15.468841552734375 5.3656229972839355 15.449542999267578 5.328892707824707 A0.2755400836467743 0.2755400836467743 0.0 0 1 15.422274589538574 5.210857391357422 C15.422274589538574 5.131544589996338 15.44369125366211 5.069663047790527 15.488140106201172 5.025213241577148 C15.532590866088867 4.98063850402832 15.590737342834473 4.959347724914551 15.662205696105957 4.959347724914551 M14.571002006530762 5.450787544250488 L14.571002006530762 5.396625518798828 C14.62130355834961 5.396625518798828 14.661894798278809 5.379194259643555 14.694765090942383 5.3463239669799805 C14.727635383605957 5.313328742980957 14.743199348449707 5.2670111656188965 14.743199348449707 5.205130100250244 C14.743199348449707 5.166407108306885 14.735479354858398 5.1335368156433105 14.721782684326172 5.104526042938232 A0.145676389336586 0.145676389336586 0.0 0 0 14.662018775939941 5.036792755126953 A0.17555873095989227 0.17555873095989227 0.0 0 0 14.572994232177734 5.013509273529053 L14.571002006530762 5.013509273529053 L14.571002006530762 4.959347724914551 C14.617444038391113 4.959347724914551 14.660026550292969 4.969059467315674 14.696757316589355 4.990350723266602 C14.733487129211426 5.011641502380371 14.762373924255371 5.040652751922607 14.78192138671875 5.077383041381836 C14.801344871520996 5.116105556488037 14.810808181762695 5.158687591552734 14.810808181762695 5.205130100250244 C14.810808181762695 5.253439903259277 14.801344871520996 5.296021938323975 14.779929161071777 5.334744453430176 A0.1856440305709839 0.1856440305709839 0.0 0 1 14.692896842956543 5.4199090003967285 A0.2390587031841278 0.2390587031841278 0.0 0 1 14.571002006530762 5.450787544250488 L14.571002006530762 5.450787544250488 M15.132041931152344 5.255307197570801 L15.132041931152344 5.199153423309326 L15.3428373336792 5.199153423309326 L15.3428373336792 5.375334739685059 A0.322355717420578 0.322355717420578 0.0 0 1 15.242358207702637 5.4313645362854 A0.3361763060092926 0.3361763060092926 0.0 0 1 15.135902404785156 5.450663089752197 C15.087469100952148 5.450663089752197 15.043018341064453 5.439083576202393 15.00242805480957 5.4197845458984375 A0.19025088846683502 0.19025088846683502 0.0 0 1 14.91153621673584 5.332627773284912 C14.890119552612305 5.295897483825684 14.880657196044922 5.253315448760986 14.880657196044922 5.206872940063477 C14.880657196044922 5.160430908203125 14.890119552612305 5.1178483963012695 14.91153621673584 5.077134132385254 C14.930959701538086 5.036543846130371 14.959970474243164 5.007408142089844 14.998568534851074 4.988109588623047 C15.037166595458984 4.968810558319092 15.081740379333496 4.9590983390808105 15.132041931152344 4.9590983390808105 C15.166780471801758 4.9590983390808105 15.199901580810547 4.9648261070251465 15.22878646850586 4.976530075073242 C15.259665489196777 4.986117362976074 15.281081199645996 5.001681327819824 15.298388481140137 5.022972106933594 C15.315943717956543 5.042271614074707 15.327522277832031 5.067422389984131 15.33711051940918 5.100292682647705 L15.277345657348633 5.115856647491455 A0.16260972619056702 0.16260972619056702 0.0 0 0 15.248210906982422 5.057835102081299 A0.1126813143491745 0.1126813143491745 0.0 0 0 15.20002555847168 5.024964332580566 A0.18489697575569153 0.18489697575569153 0.0 0 0 15.132166862487793 5.013260364532471 C15.101289749145508 5.013260364532471 15.074021339416504 5.017119884490967 15.052854537963867 5.026832103729248 A0.1522754281759262 0.1522754281759262 0.0 0 0 14.998568534851074 5.0597028732299805 A0.18427442014217377 0.18427442014217377 0.0 0 0 14.967689514160156 5.108137130737305 A0.21814106404781342 0.21814106404781342 0.0 0 0 14.94826602935791 5.202888488769531 C14.94826602935791 5.245471477508545 14.955986022949219 5.280333995819092 14.971674919128418 5.309219837188721 C14.986988067626953 5.338231086730957 15.010396957397461 5.357529640197754 15.039283752441406 5.373093605041504 C15.068168640136719 5.38654088973999 15.099296569824219 5.392392158508301 15.132166862487793 5.392392158508301 C15.161053657531738 5.392392158508301 15.190313339233398 5.388532638549805 15.21733283996582 5.376953601837158 C15.24435043334961 5.367241382598877 15.265766143798828 5.3556623458862305 15.279338836669922 5.343957901000977 L15.279338836669922 5.254933834075928 L15.132041931152344 5.254933834075928 L15.132041931152344 5.255307197570801 L15.132041931152344 5.255307197570801 M14.04669189453125 4.967067718505859 L14.069849967956543 4.967067718505859 C14.114299774169922 4.967067718505859 14.147171020507812 4.9709272384643555 14.170578002929688 4.98063850402832 A0.10633131861686707 0.10633131861686707 0.0 0 1 14.22673225402832 5.025213241577148 C14.240055084228516 5.046504497528076 14.247899055480957 5.071655750274658 14.247899055480957 5.096681594848633 A0.11728817224502563 0.11728817224502563 0.0 0 1 14.21316146850586 5.181846618652344 C14.189752578735352 5.205130100250244 14.155014038085938 5.220569133758545 14.106704711914062 5.226296424865723 C14.124261856079102 5.234015941619873 14.137832641601562 5.241735458374023 14.147294998168945 5.249579906463623 C14.166718482971191 5.2670111656188965 14.184274673461914 5.288302421569824 14.201581001281738 5.313328742980957 L14.288614273071289 5.441075801849365 L14.20544147491455 5.441075801849365 L14.139824867248535 5.342464447021484 C14.120401382446289 5.31532096862793 14.104837417602539 5.2921624183654785 14.091390609741211 5.278590679168701 A0.13098426163196564 0.13098426163196564 0.0 0 0 14.058270454406738 5.245720386505127 C14.054659843444824 5.243728160858154 14.050675392150879 5.2418599128723145 14.046815872192383 5.2398681640625 L14.046815872192383 5.175994396209717 L14.056527137756348 5.175994396209717 C14.087406158447266 5.175994396209717 14.110565185546875 5.174127101898193 14.127996444702148 5.168274879455566 A0.0745813325047493 0.0745813325047493 0.0 0 0 14.166718482971191 5.1392645835876465 A0.08553819358348846 0.08553819358348846 0.0 0 0 14.180290222167969 5.096681594848633 A0.0710950642824173 0.0710950642824173 0.0 0 0 14.153022766113281 5.040652751922607 C14.13571548461914 5.02708101272583 14.108572959899902 5.01936149597168 14.071842193603516 5.01936149597168 L14.046815872192383 5.01936149597168 L14.046815872192383 4.967067718505859 L14.04669189453125 4.967067718505859 M14.571002006530762 4.959347724914551 L14.571002006530762 5.013509273529053 C14.52455997467041 5.013509273529053 14.483969688415527 5.029073238372803 14.451099395751953 5.05795955657959 C14.41611099243164 5.088962554931641 14.400797843933105 5.14113187789917 14.400797843933105 5.210857391357422 C14.400797843933105 5.268878936767578 14.41611099243164 5.313328742980957 14.44923210144043 5.3463239669799805 C14.482102394104004 5.379194259643555 14.52269172668457 5.396625518798828 14.571126937866211 5.396625518798828 L14.571126937866211 5.450787544250488 C14.524683952331543 5.450787544250488 14.482102394104004 5.439208507537842 14.445371627807617 5.417917251586914 C14.40864086151123 5.396625518798828 14.379505157470703 5.3656229972839355 14.360206604003906 5.328892707824707 A0.2527547776699066 0.2527547776699066 0.0 0 1 14.331071853637695 5.210857391357422 C14.331071853637695 5.131544589996338 14.354479789733887 5.069663047790527 14.398929595947266 5.025213241577148 C14.443379402160645 4.98063850402832 14.501276969909668 4.959347724914551 14.571002006530762 4.959347724914551 L14.571002006530762 4.959347724914551 M13.84735107421875 5.441075801849365 L13.84735107421875 4.967067718505859 L14.046815872192383 4.967067718505859 L14.046815872192383 5.01936149597168 L13.913341522216797 5.01936149597168 L13.913341522216797 5.175994396209717 L14.046815872192383 5.175994396209717 L14.046815872192383 5.2398681640625 C14.040963172912598 5.238000392913818 14.033244132995605 5.234140396118164 14.027393341064453 5.234140396118164 C14.019672393798828 5.23214864730835 14.008218765258789 5.23214864730835 13.99066162109375 5.23214864730835 L13.913341522216797 5.23214864730835 L13.913341522216797 5.441075801849365 L13.84735107421875 5.441075801849365 M17.38803482055664 1.9159564971923828 L17.38803482055664 1.8695135116577148 L17.54653549194336 1.8695135116577148 L17.391895294189453 1.569570541381836 L17.38803482055664 1.573430061340332 L17.38803482055664 1.4535274505615234 L17.484779357910156 1.2754783630371094 L17.49810028076172 1.2754783630371094 L17.87748146057129 1.9894161224365234 C17.914213180541992 2.057149887084961 17.943099975585938 2.0997323989868164 17.966506958007812 2.1170387268066406 C17.983814239501953 2.130610466003418 18.009090423583984 2.1383304595947266 18.039968490600586 2.140322685241699 L18.039968490600586 2.1636056900024414 L17.533212661743164 2.1636056900024414 L17.533212661743164 2.140322685241699 L17.554380416870117 2.140322685241699 C17.594968795776367 2.140322685241699 17.624229431152344 2.136463165283203 17.639543533325195 2.126750946044922 C17.651248931884766 2.1190309524536133 17.657100677490234 2.1093196868896484 17.657100677490234 2.0977401733398438 C17.657100677490234 2.0900211334228516 17.655107498168945 2.0821762084960938 17.653240203857422 2.072589874267578 A1.8795990943908691 1.8795990943908691 0.0 0 1 17.629833221435547 2.0242795944213867 L17.573928833007812 1.9159564971923828 L17.38803482055664 1.9159564971923828 L17.38803482055664 1.9159564971923828 M18.328208923339844 1.701176643371582 L18.29147720336914 1.701176643371582 L18.210296630859375 1.455519676208496 A0.3192429840564728 0.3192429840564728 0.0 0 1 18.194732666015625 1.3703536987304688 C18.194732666015625 1.3433361053466797 18.206438064575195 1.320052146911621 18.227853775024414 1.3026208877563477 A0.12326464802026749 0.12326464802026749 0.0 0 1 18.309032440185547 1.2736101150512695 C18.34576416015625 1.2736101150512695 18.372783660888672 1.2833223342895508 18.39419937133789 1.3026208877563477 C18.413372039794922 1.3239126205444336 18.423084259033203 1.3433361053466797 18.423084259033203 1.3664941787719727 C18.423084259033203 1.3859176635742188 18.417232513427734 1.4149284362792969 18.405776977539062 1.455519676208496 L18.328208923339844 1.701176643371582 M18.701736450195312 1.701176643371582 L18.663013458251953 1.701176643371582 L18.585693359375 1.455519676208496 C18.57212257385254 1.4167957305908203 18.56627082824707 1.3877859115600586 18.56627082824707 1.368361473083496 C18.56627082824707 1.3432111740112305 18.577974319458008 1.3219194412231445 18.601009368896484 1.3026208877563477 C18.62441635131836 1.2833223342895508 18.65131187438965 1.2736101150512695 18.684181213378906 1.2736101150512695 C18.721160888671875 1.2736101150512695 18.748180389404297 1.2851896286010742 18.767353057861328 1.3046131134033203 C18.78677749633789 1.3239126205444336 18.796489715576172 1.3452033996582031 18.796489715576172 1.3664941787719727 C18.796489715576172 1.3820581436157227 18.790637969970703 1.410944938659668 18.77706527709961 1.455519676208496 L18.701736450195312 1.701176643371582 M6.139202117919922 1.2949018478393555 C6.233953952789307 1.2968940734863281 6.30554723739624 1.3046131134033203 6.3539814949035645 1.316192626953125 C6.413870811462402 1.3297643661499023 6.460437297821045 1.3567829132080078 6.499159812927246 1.3973731994628906 C6.535890102386475 1.43609619140625 6.553321361541748 1.4825372695922852 6.553321361541748 1.5348320007324219 C6.553321361541748 1.5987052917480469 6.526302814483643 1.6509990692138672 6.470149040222168 1.6934566497802734 C6.435286521911621 1.7204761505126953 6.384984016418457 1.739898681640625 6.321110725402832 1.7533464431762695 L6.572745323181152 2.047438621520996 C6.605615615844727 2.086160659790039 6.630766868591309 2.1093196868896484 6.6443376541137695 2.1190309524536133 C6.6656293869018555 2.1326026916503906 6.688787937164307 2.140322685241699 6.717923641204834 2.140322685241699 L6.717923641204834 2.1636056900024414 L6.387101173400879 2.1636056900024414 L6.139451026916504 1.873373031616211 L6.139451026916504 1.7147483825683594 A0.2863723933696747 0.2863723933696747 0.0 0 0 6.1858930587768555 1.7050361633300781 A0.14318619668483734 0.14318619668483734 0.0 0 0 6.2690653800964355 1.6470146179199219 C6.290356636047363 1.6180047988891602 6.300068378448486 1.581273078918457 6.300068378448486 1.5348320007324219 C6.300068378448486 1.4690914154052734 6.2807698249816895 1.4206562042236328 6.243914604187012 1.3877859115600586 A0.2147793173789978 0.2147793173789978 0.0 0 0 6.139451026916504 1.3470706939697266 L6.139451026916504 1.2949018478393555 L6.139202117919922 1.2949018478393555 M17.38803482055664 1.4535274505615234 L17.38803482055664 1.573430061340332 L17.229284286499023 1.869389533996582 L17.38803482055664 1.869389533996582 L17.38803482055664 1.9158315658569336 L17.202266693115234 1.9158315658569336 L17.159683227539062 2.000995635986328 C17.144119262695312 2.0300073623657227 17.136276245117188 2.0531654357910156 17.136276245117188 2.0707225799560547 C17.136276245117188 2.0958728790283203 17.147979736328125 2.1133041381835938 17.173255920410156 2.1248836517333984 C17.18657684326172 2.1326026916503906 17.221689224243164 2.136587142944336 17.275602340698242 2.1404476165771484 L17.275602340698242 2.1637306213378906 L16.927349090576172 2.1637306213378906 L16.927349090576172 2.140322685241699 A0.15563717484474182 0.15563717484474182 0.0 0 0 17.01824188232422 2.10159969329834 C17.043516159057617 2.0803089141845703 17.07439422607422 2.037726402282715 17.109132766723633 1.9699926376342773 L17.38803482055664 1.4535274505615234 L17.38803482055664 1.4535274505615234 M6.901575088500977 1.9662580490112305 C6.938305377960205 1.9662580490112305 6.967316150665283 1.9778375625610352 6.992467403411865 1.9972610473632812 C7.017618179321289 2.018551826477051 7.031189918518066 2.043703079223633 7.031189918518066 2.0747060775756836 C7.031189918518066 2.1037168502807617 7.017618179321289 2.1288671493530273 6.992467403411865 2.1501588821411133 C6.967316150665283 2.1694583892822266 6.936437606811523 2.181161880493164 6.901575088500977 2.181161880493164 C6.86671257019043 2.181161880493164 6.83583402633667 2.1694583892822266 6.810683250427246 2.1501588821411133 A0.09512544423341751 0.09512544423341751 0.0 0 1 6.773952484130859 2.0747060775756836 C6.773952484130859 2.043703079223633 6.785656452178955 2.018551826477051 6.810683250427246 1.9972610473632812 C6.835709571838379 1.9778375625610352 6.86671257019043 1.9662580490112305 6.901575088500977 1.9662580490112305 M8.155263900756836 1.627716064453125 L8.524933815002441 2.0108327865600586 C8.577102661132812 2.0649938583374023 8.621553421020508 2.101724624633789 8.658407211303711 2.121148109436035 C8.687418937683105 2.134718894958496 8.716428756713867 2.1404476165771484 8.745439529418945 2.1404476165771484 L8.745439529418945 2.1637306213378906 L8.199838638305664 2.1637306213378906 L8.199838638305664 2.140322685241699 C8.234701156616211 2.1384544372558594 8.25599193572998 2.1326026916503906 8.265704154968262 2.126750946044922 C8.27728271484375 2.121023178100586 8.281268119812012 2.1133041381835938 8.281268119812012 2.1034669876098633 C8.281268119812012 2.08603572845459 8.257984161376953 2.051298141479492 8.211542129516602 2.002863883972168 L7.969744682312012 1.751230239868164 L7.9310221672058105 1.7783727645874023 L7.9310221672058105 2.0144433975219727 C7.9310221672058105 2.060885429382324 7.934881687164307 2.0879039764404297 7.940733432769775 2.099607467651367 C7.946585655212402 2.111186981201172 7.958164691925049 2.120899200439453 7.9755964279174805 2.1286191940307617 C7.993027687072754 2.136338233947754 8.022038459777832 2.1401987075805664 8.060760498046875 2.1401987075805664 L8.060760498046875 2.1634817123413086 L7.530349254608154 2.1634817123413086 L7.530349254608154 2.140322685241699 L7.567080020904541 2.140322685241699 C7.596090316772461 2.140322685241699 7.621366024017334 2.136463165283203 7.638672828674316 2.126750946044922 A0.05391271784901619 0.05391271784901619 0.0 0 0 7.669675827026367 2.095747947692871 C7.675403118133545 2.08603572845459 7.67938756942749 2.059018135070801 7.67938756942749 2.0145673751831055 L7.67938756942749 1.4438152313232422 C7.67938756942749 1.3993644714355469 7.675527572631836 1.3703536987304688 7.669675827026367 1.3586511611938477 C7.665816307067871 1.3489389419555664 7.654111862182617 1.339350700378418 7.636805057525635 1.3296394348144531 A0.17443814873695374 0.17443814873695374 0.0 0 0 7.567080020904541 1.3180599212646484 L7.530349254608154 1.3180599212646484 L7.530349254608154 1.2949018478393555 L8.052667617797852 1.2949018478393555 L8.052667617797852 1.3181848526000977 C8.017805099487305 1.3181848526000977 7.990786552429199 1.3220453262329102 7.971487522125244 1.331756591796875 A0.06349996477365494 0.06349996477365494 0.0 0 0 7.940484046936035 1.3607673645019531 C7.934757232666016 1.3723468780517578 7.93077278137207 1.399489402770996 7.93077278137207 1.443939208984375 L7.93077278137207 1.7148733139038086 L8.319741249084473 1.4536514282226562 C8.373902320861816 1.4169206619262695 8.401045799255371 1.3879108428955078 8.401045799255371 1.3664941787719727 C8.401045799255371 1.3490629196166992 8.39133358001709 1.3354911804199219 8.368051528930664 1.3277721405029297 C8.356471061706543 1.3220453262329102 8.329328536987305 1.320052146911621 8.282886505126953 1.3180599212646484 L8.282886505126953 1.2949018478393555 L8.693021774291992 1.2949018478393555 L8.693021774291992 1.3181848526000977 A0.2825126051902771 0.2825126051902771 0.0 0 0 8.607856750488281 1.3336238861083984 C8.586565017700195 1.3433361053466797 8.538130760192871 1.3723468780517578 8.462678909301758 1.4226484298706055 L8.155263900756836 1.627716064453125 M8.92523193359375 1.9662580490112305 C8.96208667755127 1.9662580490112305 8.992964744567871 1.9778375625610352 9.018240928649902 1.9972610473632812 A0.09612152725458145 0.09612152725458145 0.0 0 1 9.054970741271973 2.0747060775756836 A0.09512544423341751 0.09512544423341751 0.0 0 1 9.018240928649902 2.1501588821411133 A0.14941169321537018 0.14941169321537018 0.0 0 1 8.92523193359375 2.181161880493164 C8.890493392944336 2.181161880493164 8.859491348266602 2.1694583892822266 8.836332321166992 2.1501588821411133 C8.81118106842041 2.1288671493530273 8.797609329223633 2.1037168502807617 8.797609329223633 2.0747060775756836 C8.797609329223633 2.043703079223633 8.81118106842041 2.018551826477051 8.836332321166992 1.9972610473632812 C8.859491348266602 1.9778375625610352 8.890493392944336 1.9662580490112305 8.92523193359375 1.9662580490112305 M10.264209747314453 1.2736101150512695 L10.273921966552734 1.5638418197631836 L10.240926742553711 1.5638418197631836 A0.2689410448074341 0.2689410448074341 0.0 0 0 10.130610466003418 1.3896541595458984 C10.072589874267578 1.3452033996582031 10.008716583251953 1.3220453262329102 9.940982818603516 1.3220453262329102 C9.888813018798828 1.3220453262329102 9.846231460571289 1.3336238861083984 9.817219734191895 1.3567829132080078 C9.786216735839844 1.38006591796875 9.770777702331543 1.4070854187011719 9.770777702331543 1.4380884170532227 C9.770777702331543 1.4575109481811523 9.776504516601562 1.474818229675293 9.786341667175293 1.4883899688720703 C9.801780700683594 1.5096807479858398 9.825064659118652 1.529104232788086 9.857934951782227 1.5484027862548828 C9.883085250854492 1.5639667510986328 9.939114570617676 1.588994026184082 10.02627182006836 1.623856544494629 C10.15015983581543 1.6741580963134766 10.231338500976562 1.7206001281738281 10.273921966552734 1.7650508880615234 C10.31650447845459 1.8096256256103516 10.33779525756836 1.8617944717407227 10.33779525756836 1.917947769165039 C10.33779525756836 1.9914093017578125 10.304924011230469 2.053290367126465 10.235323905944824 2.1055850982666016 C10.167591094970703 2.157878875732422 10.080557823181152 2.1850223541259766 9.976094245910645 2.1850223541259766 C9.943099975585938 2.1850223541259766 9.910228729248047 2.1830291748046875 9.881217956542969 2.177302360534668 C9.85220718383789 2.171574592590332 9.815476417541504 2.159870147705078 9.770902633666992 2.1444311141967773 A0.21340970695018768 0.21340970695018768 0.0 0 0 9.711013793945312 2.1328516006469727 A0.0884019136428833 0.0884019136428833 0.0 0 0 9.66843032836914 2.1444311141967773 A0.10645583271980286 0.10645583271980286 0.0 0 0 9.631576538085938 2.185145378112793 L9.602689743041992 2.185145378112793 L9.602689743041992 1.8561906814575195 L9.631576538085938 1.8561906814575195 C9.65485954284668 1.949075698852539 9.697442054748535 2.0186758041381836 9.763182640075684 2.067110061645508 C9.827056884765625 2.1155452728271484 9.89665699005127 2.1405715942382812 9.972110748291016 2.1405715942382812 C10.030131340026855 2.1405715942382812 10.074706077575684 2.126999855041504 10.109444618225098 2.1018495559692383 C10.144307136535645 2.0747060775756836 10.161738395690918 2.043828010559082 10.161738395690918 2.0109567642211914 A0.10247152298688889 0.10247152298688889 0.0 0 0 10.140447616577148 1.9510679244995117 C10.128868103027344 1.9316444396972656 10.107576370239258 1.9123449325561523 10.080557823181152 1.894913673400879 C10.055407524108887 1.8774824142456055 10.006973266601562 1.8561906814575195 9.939239501953125 1.8271808624267578 C9.844488143920898 1.7884578704833984 9.774887084960938 1.7555875778198242 9.734171867370605 1.7284440994262695 C9.69158935546875 1.701425552368164 9.65871810913086 1.6704225540161133 9.637428283691406 1.6355600357055664 A0.18614207208156586 0.18614207208156586 0.0 0 1 9.602689743041992 1.5252447128295898 C9.602689743041992 1.455643653869629 9.633567810058594 1.3956298828125 9.695573806762695 1.3471956253051758 C9.757454872131348 1.2988853454589844 9.83489990234375 1.2737350463867188 9.92778491973877 1.2737350463867188 C9.962522506713867 1.2737350463867188 9.99551773071289 1.2775945663452148 10.026395797729492 1.285313606262207 C10.051547050476074 1.2891731262207031 10.080557823181152 1.2988853454589844 10.1154203414917 1.312333106994629 C10.150283813476562 1.327897071838379 10.175310134887695 1.3336238861083984 10.188881874084473 1.3336238861083984 C10.20245361328125 1.3336238861083984 10.212163925170898 1.3297643661499023 10.219884872436523 1.3239126205444336 C10.227603912353516 1.316192626953125 10.235447883605957 1.300628662109375 10.241175651550293 1.2736101150512695 L10.264209747314453 1.2736101150512695 L10.264209747314453 1.2736101150512695 M10.598892211914062 1.9662580490112305 C10.635746955871582 1.9662580490112305 10.666625022888184 1.9778375625610352 10.691776275634766 1.9972610473632812 A0.09624603390693665 0.09624603390693665 0.0 0 1 10.728631019592285 2.0747060775756836 A0.0952499508857727 0.0952499508857727 0.0 0 1 10.691776275634766 2.1501588821411133 C10.666625022888184 2.1694583892822266 10.635746955871582 2.181161880493164 10.598892211914062 2.181161880493164 C10.564153671264648 2.181161880493164 10.533150672912598 2.1694583892822266 10.507999420166016 2.1501588821411133 C10.484716415405273 2.1288671493530273 10.471269607543945 2.1037168502807617 10.471269607543945 2.0747060775756836 C10.471269607543945 2.043703079223633 10.484841346740723 2.018551826477051 10.507999420166016 1.9972610473632812 A0.14692148566246033 0.14692148566246033 0.0 0 1 10.598892211914062 1.9662580490112305 L10.598892211914062 1.9662580490112305 M11.463736534118652 1.701176643371582 L11.427006721496582 1.701176643371582 L11.345701217651367 1.455519676208496 A0.3192429840564728 0.3192429840564728 0.0 0 1 11.330138206481934 1.3703536987304688 C11.330138206481934 1.3433361053466797 11.341717720031738 1.320052146911621 11.36313247680664 1.3026208877563477 A0.12338915467262268 0.12338915467262268 0.0 0 1 11.444313049316406 1.2736101150512695 C11.481043815612793 1.2736101150512695 11.508187294006348 1.2833223342895508 11.529478073120117 1.3026208877563477 C11.548900604248047 1.3239126205444336 11.558488845825195 1.3433361053466797 11.558488845825195 1.3664941787719727 C11.558488845825195 1.3859176635742188 11.552637100219727 1.4149284362792969 11.541057586669922 1.455519676208496 L11.463736534118652 1.701176643371582 M11.837141036987305 1.701176643371582 L11.798418998718262 1.701176643371582 L11.72097396850586 1.455519676208496 C11.707402229309082 1.4167957305908203 11.701550483703613 1.3877859115600586 11.701550483703613 1.368361473083496 C11.701550483703613 1.3432111740112305 11.71325397491455 1.3219194412231445 11.73641300201416 1.3026208877563477 C11.759696006774902 1.2833223342895508 11.786715507507324 1.2736101150512695 11.819585800170898 1.2736101150512695 C11.856315612792969 1.2736101150512695 11.883459091186523 1.2851896286010742 11.90275764465332 1.3046131134033203 C11.922181129455566 1.3239126205444336 11.931769371032715 1.3452033996582031 11.931769371032715 1.3664941787719727 C11.931769371032715 1.3820581436157227 11.92591667175293 1.410944938659668 11.912469863891602 1.455519676208496 L11.837141036987305 1.701176643371582 M13.64228343963623 1.2949018478393555 L13.64228343963623 1.3181848526000977 A0.12699992954730988 0.12699992954730988 0.0 0 0 13.591981887817383 1.331756591796875 A0.09960779547691345 0.09960779547691345 0.0 0 0 13.557243347167969 1.3664941787719727 C13.553382873535156 1.3723468780517578 13.537819862365723 1.405217170715332 13.508810043334961 1.4651060104370117 L13.179729461669922 2.184896469116211 L13.148852348327637 2.184896469116211 L12.889622688293457 1.6237316131591797 L12.60312557220459 2.184896469116211 L12.574238777160645 2.184896469116211 L12.22984504699707 1.474818229675293 C12.195106506347656 1.403223991394043 12.169831275939941 1.3586511611938477 12.156384468078613 1.3450794219970703 C12.142812728881836 1.3296394348144531 12.119404792785645 1.3199272155761719 12.08466625213623 1.3180599212646484 L12.08466625213623 1.2949018478393555 L12.539376258850098 1.2949018478393555 L12.539376258850098 1.3181848526000977 C12.504638671875 1.3181848526000977 12.479362487792969 1.3239126205444336 12.467658996582031 1.331756591796875 C12.45620346069336 1.3394765853881836 12.448484420776367 1.3510551452636719 12.448484420776367 1.3627595901489258 C12.448484420776367 1.3801908493041992 12.462055206298828 1.4130611419677734 12.48720645904541 1.4652299880981445 L12.69214916229248 1.888936996459961 L12.858743667602539 1.558115005493164 L12.81429386138916 1.4652299880981445 A0.7794310450553894 0.7794310450553894 0.0 0 0 12.760007858276367 1.3646268844604492 C12.74643611907959 1.3490629196166992 12.731121063232422 1.335616111755371 12.715558052062988 1.3297643661499023 C12.698001861572266 1.3220453262329102 12.672974586486816 1.3181848526000977 12.640229225158691 1.3181848526000977 L12.640229225158691 1.2949018478393555 L13.14897632598877 1.2949018478393555 L13.14897632598877 1.3181848526000977 C13.114238739013672 1.3181848526000977 13.08896255493164 1.320176124572754 13.073647499084473 1.3259048461914062 A0.0606362447142601 0.0606362447142601 0.0 0 0 13.046380043029785 1.3394765853881836 A0.0398431159555912 0.0398431159555912 0.0 0 0 13.038784980773926 1.3646268844604492 C13.038784980773926 1.3743391036987305 13.050240516662598 1.4033498764038086 13.07352352142334 1.455519676208496 L13.262903213500977 1.8676462173461914 L13.435348510742188 1.4941167831420898 C13.452654838562012 1.4553947448730469 13.464235305786133 1.4283761978149414 13.468218803405762 1.414804458618164 C13.472204208374023 1.4012327194213867 13.474071502685547 1.3877859115600586 13.474071502685547 1.376082420349121 A0.0536637008190155 0.0536637008190155 0.0 0 0 13.452654838562012 1.3334989547729492 C13.439083099365234 1.323786735534668 13.410073280334473 1.3180599212646484 13.36948299407959 1.3180599212646484 L13.36948299407959 1.2949018478393555 L13.64228343963623 1.2949018478393555 L13.64228343963623 1.2949018478393555 M14.087406158447266 1.3452033996582031 L14.087406158447266 1.6993093490600586 L14.108572959899902 1.6993093490600586 C14.176430702209473 1.6993093490600586 14.222872734069824 1.6818780899047852 14.253750801086426 1.6471385955810547 C14.282636642456055 1.6122760772705078 14.30218505859375 1.5601072311401367 14.311897277832031 1.494241714477539 L14.340784072875977 1.494241714477539 L14.340784072875977 1.9489507675170898 L14.311897277832031 1.9489507675170898 C14.304178237915039 1.8986492156982422 14.292473793029785 1.8580589294433594 14.271306991577148 1.827056884765625 C14.251882553100586 1.7960538864135742 14.228475570678711 1.7747621536254883 14.201457023620605 1.7631826400756836 C14.176430702209473 1.751479148864746 14.137707710266113 1.74761962890625 14.087406158447266 1.74761962890625 L14.087406158447266 1.9914093017578125 C14.087406158447266 2.0397186279296875 14.091266632080078 2.0688533782958984 14.095126152038574 2.0803089141845703 A0.05528232827782631 0.05528232827782631 0.0 0 0 14.122143745422363 2.105459213256836 C14.13571548461914 2.1131792068481445 14.156882286071777 2.1170387268066406 14.187760353088379 2.1170387268066406 L14.24976634979248 2.1170387268066406 C14.348503112792969 2.1170387268066406 14.425823211669922 2.0977401733398438 14.485837936401367 2.059018135070801 C14.545601844787598 2.022287368774414 14.58631706237793 1.964141845703125 14.613459587097168 1.8868207931518555 L14.642345428466797 1.8868207931518555 L14.593911170959473 2.1634817123413086 L13.68860149383545 2.1634817123413086 L13.68860149383545 2.140322685241699 L13.723340034484863 2.140322685241699 C13.752225875854492 2.140322685241699 13.777626037597656 2.136463165283203 13.79680061340332 2.126750946044922 A0.05627840384840965 0.05627840384840965 0.0 0 0 13.825935363769531 2.095747947692871 C13.831787109375 2.08603572845459 13.83539867401123 2.059018135070801 13.83539867401123 2.0145673751831055 L13.83539867401123 1.4438152313232422 C13.83539867401123 1.403223991394043 13.833405494689941 1.3799419403076172 13.831787109375 1.3703536987304688 A0.06524310261011124 0.06524310261011124 0.0 0 0 13.802652359008789 1.3354911804199219 C13.783477783203125 1.3239126205444336 13.756210327148438 1.3180599212646484 13.723340034484863 1.3180599212646484 L13.68860149383545 1.3180599212646484 L13.68860149383545 1.2949018478393555 L14.565025329589844 1.2949018478393555 L14.565025329589844 1.552138328552246 L14.536139488220215 1.552138328552246 C14.520575523376465 1.488265037536621 14.501152038574219 1.4438152313232422 14.474133491516113 1.4167957305908203 C14.447114944458008 1.3896541595458984 14.408516883850098 1.368361473083496 14.3580904006958 1.3567829132080078 C14.328954696655273 1.3470706939697266 14.274669647216797 1.3452033996582031 14.195356369018555 1.3452033996582031 L14.087406158447266 1.3452033996582031 L14.087406158447266 1.3452033996582031 M15.712507247924805 1.85980224609375 L15.671916961669922 2.1636056900024414 L14.74519157409668 2.1636056900024414 L14.74519157409668 2.140322685241699 L14.779929161071777 2.140322685241699 C14.810808181762695 2.140322685241699 14.836082458496094 2.136463165283203 14.853389739990234 2.1287431716918945 A0.06387349963188171 0.06387349963188171 0.0 0 0 14.882525444030762 2.0977401733398438 C14.888376235961914 2.0880279541015625 14.890119552612305 2.057149887084961 14.890119552612305 2.008716583251953 L14.890119552612305 1.8462305068969727 L14.74519157409668 1.9429750442504883 L14.74519157409668 1.8829612731933594 L14.890119552612305 1.7843494415283203 L14.890119552612305 1.4535274505615234 C14.890119552612305 1.4050922393798828 14.888376235961914 1.376082420349121 14.882525444030762 1.364501953125 C14.876673698425293 1.3509302139282227 14.864969253540039 1.3432111740112305 14.849405288696289 1.3334989547729492 C14.834091186523438 1.325779914855957 14.810683250427246 1.3219194412231445 14.779805183410645 1.3219194412231445 L14.74506664276123 1.3219194412231445 L14.74506664276123 1.2949018478393555 L15.302248001098633 1.2949018478393555 L15.302248001098633 1.3220453262329102 L15.251945495605469 1.3220453262329102 C15.217207908630371 1.3220453262329102 15.192180633544922 1.3277721405029297 15.174625396728516 1.3374834060668945 C15.159061431884766 1.3490629196166992 15.149599075317383 1.3607673645019531 15.14573860168457 1.376206398010254 C15.143746376037598 1.383925437927246 15.141879081726074 1.4090766906738281 15.141879081726074 1.4536514282226562 L15.141879081726074 1.621988296508789 L15.321795463562012 1.5059452056884766 L15.321795463562012 1.5639667510986328 L15.141879081726074 1.682002067565918 L15.141879081726074 1.997385025024414 C15.141879081726074 2.043828010559082 15.14573860168457 2.07283878326416 15.153583526611328 2.086409568786621 C15.159185409545898 2.097989082336426 15.172758102416992 2.107701301574707 15.190313339233398 2.113553047180176 C15.198033332824707 2.1155452728271484 15.229035377502441 2.1174135208129883 15.283197402954102 2.1174135208129883 L15.368362426757812 2.1174135208129883 C15.445682525634766 2.1174135208129883 15.509431838989258 2.0981130599975586 15.561725616455078 2.0593910217285156 C15.614019393920898 2.0206680297851562 15.654610633850098 1.9549274444580078 15.68362045288086 1.860051155090332 L15.712507247924805 1.860051155090332 L15.712507247924805 1.85980224609375 L15.712507247924805 1.85980224609375 M16.16534996032715 1.2949018478393555 L16.68181610107422 1.834650993347168 L16.68181610107422 1.459254264831543 C16.68181610107422 1.4070854187011719 16.674095153808594 1.3722219467163086 16.65454864501953 1.3547897338867188 C16.629520416259766 1.3296394348144531 16.588930130004883 1.3160676956176758 16.530784606933594 1.3180599212646484 L16.530784606933594 1.2949018478393555 L16.87704849243164 1.2949018478393555 L16.87704849243164 1.3181848526000977 C16.832595825195312 1.3220453262329102 16.803585052490234 1.327897071838379 16.788021087646484 1.335616111755371 A0.0971175953745842 0.0971175953745842 0.0 0 0 16.751291275024414 1.3723468780517578 C16.743572235107422 1.3897781372070312 16.739587783813477 1.418787956237793 16.739587783813477 1.4593791961669922 L16.739587783813477 2.1850223541259766 L16.712570190429688 2.1850223541259766 L16.002490997314453 1.4593791961669922 L16.002490997314453 2.012700080871582 C16.002490997314453 2.0630016326904297 16.018054962158203 2.0958728790283203 16.045072555541992 2.1152963638305664 A0.17431363463401794 0.17431363463401794 0.0 0 0 16.139949798583984 2.1404476165771484 L16.165224075317383 2.1404476165771484 L16.165224075317383 2.1637306213378906 L15.791695594787598 2.1637306213378906 L15.791695594787598 2.140322685241699 C15.849841117858887 2.140322685241699 15.89043140411377 2.130610466003418 15.913590431213379 2.111311912536621 C15.935006141662598 2.092013359069824 15.94646167755127 2.0591421127319336 15.94646167755127 2.012700080871582 L15.94646167755127 1.3993644714355469 L15.925294876098633 1.376206398010254 C15.902135848999023 1.3529224395751953 15.882711410522461 1.3374834060668945 15.865280151367188 1.3297643661499023 C15.849966049194336 1.3220453262329102 15.824690818786621 1.3181848526000977 15.791820526123047 1.3181848526000977 L15.791820526123047 1.2949018478393555 L16.16534996032715 1.2949018478393555 L16.16534996032715 1.2949018478393555 M5.980576515197754 1.7669181823730469 L5.980576515197754 2.012700080871582 C5.980576515197754 2.0591421127319336 5.982568740844727 2.088153839111328 5.990288257598877 2.0997323989868164 A0.07470584660768509 0.07470584660768509 0.0 0 0 6.0270185470581055 2.130735397338867 C6.044450283050537 2.136587142944336 6.0773210525512695 2.1404476165771484 6.125630855560303 2.1404476165771484 L6.125630855560303 2.1637306213378906 L5.587748050689697 2.1637306213378906 L5.587748050689697 2.140322685241699 C5.6361823081970215 2.140322685241699 5.668928623199463 2.136463165283203 5.686359882354736 2.1287431716918945 A0.08180290460586548 0.08180290460586548 0.0 0 0 5.723090648651123 2.0997323989868164 C5.730810165405273 2.088153839111328 5.732677459716797 2.0591421127319336 5.732677459716797 2.012700080871582 L5.732677459716797 1.4476747512817383 C5.732677459716797 1.399240493774414 5.730810165405273 1.370229721069336 5.723090648651123 1.3586511611938477 A0.06225487217307091 0.06225487217307091 0.0 0 0 5.686359882354736 1.3296394348144531 C5.668928623199463 1.3219194412231445 5.6360578536987305 1.3180599212646484 5.587748050689697 1.3180599212646484 L5.587748050689697 1.2949018478393555 L6.139202117919922 1.2949018478393555 L6.139202117919922 1.3470706939697266 A0.47014880180358887 0.47014880180358887 0.0 0 0 6.0617570877075195 1.341343879699707 L5.980452060699463 1.341343879699707 L5.980452060699463 1.7224674224853516 L6.024901866912842 1.7224674224853516 C6.069351673126221 1.7224674224853516 6.10807466506958 1.7204761505126953 6.139077663421631 1.7147483825683594 L6.139077663421631 1.873373031616211 L6.048185348510742 1.7669181823730469 L5.980576515197754 1.7669181823730469 L5.980576515197754 1.7669181823730469 M14.487829208374023 2.991720199584961 L14.487829208374023 2.947145462036133 C14.495424270629883 2.937434196472168 14.505136489868164 2.927846908569336 14.514847755432129 2.918135643005371 C14.543733596801758 2.8833961486816406 14.565150260925293 2.8446741104125977 14.57685375213623 2.802091598510742 C14.543733596801758 2.8195228576660156 14.514847755432129 2.8311023712158203 14.487829208374023 2.8349618911743164 L14.487829208374023 2.8059520721435547 L14.489821434020996 2.8059520721435547 C14.503144264221191 2.8059520721435547 14.518708229064941 2.802091598510742 14.536264419555664 2.798232078552246 C14.553570747375488 2.79250431060791 14.569134712219238 2.7847843170166016 14.582457542419434 2.7750730514526367 C14.588308334350586 2.744070053100586 14.592168807983398 2.718918800354004 14.592168807983398 2.699620246887207 C14.592168807983398 2.676337242126465 14.58631706237793 2.651185989379883 14.57685375213623 2.6241674423217773 A0.15389403700828552 0.15389403700828552 0.0 0 0 14.536264419555664 2.5604190826416016 A0.09076759964227676 0.09076759964227676 0.0 0 0 14.487829208374023 2.5391273498535156 L14.487829208374023 2.5158443450927734 C14.536264419555664 2.5158443450927734 14.57685375213623 2.5314083099365234 14.609724044799805 2.566145896911621 C14.65230655670166 2.606861114501953 14.673473358154297 2.657038688659668 14.673473358154297 2.719043731689453 C14.673473358154297 2.7732057571411133 14.656166076660156 2.823507308959961 14.625288009643555 2.8718175888061523 C14.594160079956055 2.9182586669921875 14.549711227416992 2.9589738845825195 14.493680953979492 2.9898529052734375 C14.491813659667969 2.9897279739379883 14.489821434020996 2.991720199584961 14.487829208374023 2.991720199584961 L14.487829208374023 2.991720199584961 M15.112868309020996 2.921995162963867 L15.072029113769531 3.016871452331543 L14.72962760925293 3.016871452331543 L14.72962760925293 3.0032997131347656 C14.830355644226074 2.9258546829223633 14.901823997497559 2.862105369567871 14.942415237426758 2.813671112060547 C14.983004570007324 2.763369560241699 15.00442123413086 2.718918800354004 15.00442123413086 2.6782045364379883 A0.09761563688516617 0.09761563688516617 0.0 0 0 14.969681739807129 2.600884437561035 A0.1160430759191513 0.1160430759191513 0.0 0 0 14.88850212097168 2.5718727111816406 C14.861234664916992 2.5718727111816406 14.83421516418457 2.5777244567871094 14.8129243850708 2.593165397644043 A0.11542052775621414 0.11542052775621414 0.0 0 0 14.762622833251953 2.6551713943481445 L14.745315551757812 2.6551713943481445 C14.753034591674805 2.6105966567993164 14.772334098815918 2.575857162475586 14.801469802856445 2.5507068634033203 C14.830355644226074 2.527423858642578 14.867086410522461 2.5158443450927734 14.911661148071289 2.5158443450927734 C14.95810317993164 2.5158443450927734 14.998692512512207 2.527423858642578 15.029571533203125 2.5545663833618164 C15.060698509216309 2.5797176361083984 15.07800579071045 2.6105966567993164 15.07800579071045 2.6454591751098633 C15.07800579071045 2.6686172485351562 15.07028579711914 2.6937685012817383 15.056838989257812 2.718918800354004 C15.035423278808594 2.7576417922973633 15.00068473815918 2.8000993728637695 14.954243659973145 2.8446741104125977 C14.882774353027344 2.9105396270751953 14.838199615478516 2.9491376876831055 14.820768356323242 2.962709426879883 L14.97179889678955 2.962709426879883 C15.002677917480469 2.962709426879883 15.023843765258789 2.962709426879883 15.037415504455566 2.9588499069213867 A0.0658656507730484 0.0658656507730484 0.0 0 0 15.07028579711914 2.947270393371582 A0.08466662466526031 0.08466662466526031 0.0 0 0 15.097553253173828 2.922119140625 L15.112868309020996 2.922119140625 L15.112868309020996 2.921995162963867 M15.251945495605469 2.5737409591674805 L15.393263816833496 2.515719413757324 L15.406835556030273 2.515719413757324 L15.406835556030273 2.931706428527832 C15.406835556030273 2.9587249755859375 15.408827781677246 2.976156234741211 15.410696029663086 2.982008934020996 C15.414555549621582 2.9897279739379883 15.42040729522705 2.9935874938964844 15.428003311157227 2.997572898864746 C15.437713623046875 3.001432418823242 15.455269813537598 3.0032997131347656 15.480297088623047 3.0032997131347656 L15.480297088623047 3.016871452331543 L15.26165771484375 3.016871452331543 L15.26165771484375 3.0032997131347656 C15.288676261901855 3.0032997131347656 15.308099746704102 3.001307487487793 15.315943717956543 2.997572898864746 C15.323663711547852 2.9937124252319336 15.329265594482422 2.9898529052734375 15.331258773803711 2.9840002059936523 C15.335118293762207 2.978273391723633 15.33711051940918 2.960841178894043 15.33711051940918 2.9318313598632812 L15.33711051940918 2.66475772857666 C15.33711051940918 2.6298952102661133 15.335118293762207 2.6067352294921875 15.333250999450684 2.597024917602539 A0.028139201924204826 0.028139201924204826 0.0 0 0 15.321795463562012 2.5795936584472656 A0.03311959281563759 0.03311959281563759 0.0 0 0 15.302371978759766 2.5737409591674805 C15.292659759521484 2.5737409591674805 15.277345657348633 2.577601432800293 15.257922172546387 2.585320472717285 L15.251945495605469 2.5737409591674805 L15.251945495605469 2.5737409591674805 M14.487829208374023 2.515719413757324 L14.487829208374023 2.5390024185180664 L14.478116989135742 2.5390024185180664 A0.09425388276576996 0.09425388276576996 0.0 0 0 14.410260200500488 2.5680131912231445 C14.392952919006348 2.587312698364258 14.383240699768066 2.6164474487304688 14.383240699768066 2.6551713943481445 C14.383240699768066 2.705471992492676 14.39494514465332 2.7460622787475586 14.419971466064453 2.7750730514526367 A0.1004793643951416 0.1004793643951416 0.0 0 0 14.487829208374023 2.8059520721435547 L14.487829208374023 2.8349618911743164 A0.21179106831550598 0.21179106831550598 0.0 0 1 14.454710006713867 2.8388214111328125 C14.414119720458984 2.8388214111328125 14.37938117980957 2.8252506256103516 14.350370407104492 2.798107147216797 A0.13795679807662964 0.13795679807662964 0.0 0 1 14.30592155456543 2.691775321960449 C14.30592155456543 2.64919376373291 14.321235656738281 2.610470771789551 14.350370407104492 2.577601432800293 C14.385233879089355 2.5351428985595703 14.429807662963867 2.515719413757324 14.487829208374023 2.515719413757324 M14.487829208374023 2.947145462036133 L14.487829208374023 2.991596221923828 A0.2891116440296173 0.2891116440296173 0.0 0 1 14.3426513671875 3.0283260345458984 L14.31762409210205 3.0283260345458984 L14.31762409210205 3.014754295349121 C14.354354858398438 3.0127620697021484 14.389093399047852 3.007035255432129 14.421963691711426 2.991471290588379 C14.443379402160645 2.982008934020996 14.466538429260254 2.966568946838379 14.487829208374023 2.947145462036133 L14.487829208374023 2.947145462036133 M13.400361061096191 3.014878273010254 L13.400361061096191 2.982008934020996 C13.419784545898438 2.9781484603881836 13.444811820983887 2.966444969177246 13.474071502685547 2.9452781677246094 L13.474071502685547 2.8195228576660156 A0.6483222246170044 0.6483222246170044 0.0 0 0 13.400361061096191 2.846541404724121 L13.400361061096191 2.821390151977539 C13.42177677154541 2.813671112060547 13.44680404663086 2.805826187133789 13.474071502685547 2.798107147216797 L13.474071502685547 2.7846603393554688 C13.474071502685547 2.7517900466918945 13.468218803405762 2.7285070419311523 13.454647064208984 2.714935302734375 C13.442943572998047 2.7033557891845703 13.425761222839355 2.6975040435791016 13.400361061096191 2.6975040435791016 L13.400361061096191 2.6762123107910156 L13.413932800292969 2.6762123107910156 C13.448671340942383 2.6762123107910156 13.477931022644043 2.680072784423828 13.49909782409668 2.6896591186523438 A0.08441760390996933 0.08441760390996933 0.0 0 1 13.537819862365723 2.7245216369628906 C13.541680335998535 2.7361011505126953 13.543672561645508 2.7573928833007812 13.543672561645508 2.7883949279785156 L13.543672561645508 2.902571678161621 C13.543672561645508 2.9335737228393555 13.545663833618164 2.9528722763061523 13.547532081604004 2.9605932235717773 C13.547532081604004 2.966320037841797 13.5513916015625 2.972172737121582 13.553382873535156 2.9741640090942383 C13.557243347167969 2.976032257080078 13.561103820800781 2.978024482727051 13.56508731842041 2.978024482727051 C13.569072723388672 2.978024482727051 13.57455062866211 2.978024482727051 13.576542854309082 2.976032257080078 A0.28886258602142334 0.28886258602142334 0.0 0 0 13.611529350280762 2.9490127563476562 L13.611529350280762 2.970304489135742 C13.580402374267578 3.005167007446289 13.54952335357666 3.0244665145874023 13.520638465881348 3.0244665145874023 C13.50706672668457 3.0244665145874023 13.495362281799316 3.0206069946289062 13.487517356872559 3.010894775390625 C13.478055953979492 3.003175735473633 13.47419548034668 2.9896039962768555 13.47419548034668 2.970304489135742 C13.437091827392578 2.9935874938964844 13.412065505981445 3.0090274810791016 13.400361061096191 3.014878273010254 L13.400361061096191 3.014878273010254 M13.936375617980957 2.5737409591674805 L14.0776948928833 2.515719413757324 L14.091266632080078 2.515719413757324 L14.091266632080078 2.931706428527832 C14.091266632080078 2.9587249755859375 14.093257904052734 2.976156234741211 14.095126152038574 2.982008934020996 C14.09898567199707 2.9897279739379883 14.102720260620117 2.9935874938964844 14.112432479858398 2.997572898864746 C14.12015151977539 3.001432418823242 14.137707710266113 3.0032997131347656 14.164726257324219 3.0032997131347656 L14.164726257324219 3.016871452331543 L13.946087837219238 3.016871452331543 L13.946087837219238 3.0032997131347656 C13.973106384277344 3.0032997131347656 13.990537643432617 3.001307487487793 13.998381614685059 2.997572898864746 A0.0312519446015358 0.0312519446015358 0.0 0 0 14.0156888961792 2.9840002059936523 C14.019548416137695 2.978273391723633 14.019548416137695 2.960841178894043 14.019548416137695 2.9318313598632812 L14.019548416137695 2.66475772857666 C14.019548416137695 2.6298952102661133 14.019548416137695 2.6067352294921875 14.0156888961792 2.597024917602539 A0.03797547146677971 0.03797547146677971 0.0 0 0 14.0062255859375 2.5795936584472656 A0.03311959281563759 0.03311959281563759 0.0 0 0 13.986802101135254 2.5737409591674805 C13.97509765625 2.5737409591674805 13.961775779724121 2.577601432800293 13.942352294921875 2.585320472717285 L13.936375617980957 2.5737409591674805 L13.936375617980957 2.5737409591674805 M13.400361061096191 2.676337242126465 L13.400361061096191 2.6976280212402344 A0.07420781254768372 0.07420781254768372 0.0 0 0 13.357778549194336 2.709207534790039 C13.348316192626953 2.718918800354004 13.342464447021484 2.7266387939453125 13.342464447021484 2.738218307495117 L13.342464447021484 2.759510040283203 A0.033368613570928574 0.033368613570928574 0.0 0 1 13.332752227783203 2.7846603393554688 A0.03884704038500786 0.03884704038500786 0.0 0 1 13.305733680725098 2.79437255859375 A0.03697939217090607 0.03697939217090607 0.0 0 1 13.280458450317383 2.7846603393554688 C13.272738456726074 2.77880859375 13.270746231079102 2.7690963745117188 13.270746231079102 2.759510040283203 C13.270746231079102 2.738218307495117 13.282450675964355 2.718918800354004 13.30772590637207 2.7014875411987305 C13.330760955810547 2.6860485076904297 13.361639022827148 2.676337242126465 13.400361061096191 2.676337242126465 L13.400361061096191 2.676337242126465 M13.400361061096191 2.821390151977539 L13.400361061096191 2.846541404724121 A0.013696071691811085 0.013696071691811085 0.0 0 0 13.390898704528809 2.850400924682617 A0.12114798277616501 0.12114798277616501 0.0 0 0 13.342464447021484 2.8833961486816406 A0.061258796602487564 0.061258796602487564 0.0 0 0 13.326900482177734 2.922119140625 C13.326900482177734 2.9395503997802734 13.332752227783203 2.953122138977051 13.34632396697998 2.9647016525268555 C13.357778549194336 2.97628116607666 13.371350288391113 2.982132911682129 13.388906478881836 2.982132911682129 L13.400361061096191 2.982132911682129 L13.400361061096191 3.0150041580200195 L13.398368835449219 3.0150041580200195 A0.14604993164539337 0.14604993164539337 0.0 0 1 13.348316192626953 3.0247154235839844 C13.321048736572266 3.0247154235839844 13.299881935119629 3.016996383666992 13.282450675964355 3.001432418823242 C13.265019416809082 2.985868453979492 13.25543212890625 2.9647016525268555 13.25543212890625 2.9394264221191406 C13.25543212890625 2.921995162963867 13.259291648864746 2.9085474014282227 13.268754959106445 2.896843910217285 C13.280458450317383 2.8794126510620117 13.299881935119629 2.8639726638793945 13.328768730163574 2.850400924682617 C13.34632396697998 2.8408145904541016 13.36948299407959 2.8311023712158203 13.400361061096191 2.821390151977539 L13.400361061096191 2.821390151977539 M12.33642578125 3.026582717895508 L12.33642578125 2.9588499069213867 C12.351740837097168 2.9645767211914062 12.369296073913574 2.968562126159668 12.388470649719238 2.968562126159668 C12.413745880126953 2.968562126159668 12.436904907226562 2.962709426879883 12.456328392028809 2.9511308670043945 C12.475502967834473 2.9394264221191406 12.491065979003906 2.918135643005371 12.50277042388916 2.889248847961426 L12.516093254089355 2.896967887878418 C12.510489463806152 2.9299631118774414 12.492934226989746 2.9589738845825195 12.464048385620117 2.9859933853149414 C12.43491268157959 3.0150041580200195 12.400050163269043 3.0285749435424805 12.355600357055664 3.0285749435424805 C12.349872589111328 3.0284500122070312 12.342028617858887 3.026582717895508 12.33642578125 3.026582717895508 L12.33642578125 3.026582717895508 M12.33642578125 2.809811592102051 L12.33642578125 2.7885208129882812 L12.427192687988281 2.7885208129882812 C12.425200462341309 2.7672290802001953 12.423582077026367 2.753657341003418 12.417730331420898 2.744070053100586 A0.06947644054889679 0.06947644054889679 0.0 0 0 12.386603355407715 2.713067054748535 A0.09462740272283554 0.09462740272283554 0.0 0 0 12.34215259552002 2.7014875411987305 L12.336549758911133 2.7014875411987305 L12.336549758911133 2.676337242126465 C12.346012115478516 2.676337242126465 12.355724334716797 2.674344062805176 12.365436553955078 2.674344062805176 C12.409886360168457 2.674344062805176 12.446616172790527 2.687915802001953 12.473634719848633 2.711075782775879 C12.50277042388916 2.7362260818481445 12.516218185424805 2.7690963745117188 12.516218185424805 2.809687614440918 L12.33642578125 2.809687614440918 L12.33642578125 2.809811592102051 L12.33642578125 2.809811592102051 M12.682686805725098 2.745938301086426 C12.729129791259766 2.699496269226074 12.773579597473145 2.676337242126465 12.81429386138916 2.676337242126465 C12.835460662841797 2.676337242126465 12.854884147644043 2.680196762084961 12.870198249816895 2.6897850036621094 C12.885762214660645 2.6975040435791016 12.897466659545898 2.713067054748535 12.90717887878418 2.734233856201172 C12.91278076171875 2.747805595397949 12.916640281677246 2.770963668823242 12.916640281677246 2.7999753952026367 L12.916640281677246 2.9431610107421875 C12.916640281677246 2.962460517883301 12.918632507324219 2.978024482727051 12.922492980957031 2.9857444763183594 A0.035111747682094574 0.035111747682094574 0.0 0 0 12.938056945800781 2.9993152618408203 C12.94390869140625 3.003175735473633 12.957231521606445 3.005167007446289 12.976778984069824 3.005167007446289 L12.976778984069824 3.0167465209960938 L12.781298637390137 3.0167465209960938 L12.781298637390137 3.005167007446289 L12.791010856628418 3.005167007446289 A0.0900205448269844 0.0900205448269844 0.0 0 0 12.829732894897461 2.9974470138549805 C12.83558464050293 2.991596221923828 12.841437339782715 2.9857444763183594 12.843304634094238 2.976156234741211 C12.845296859741211 2.972296714782715 12.845296859741211 2.96071720123291 12.845296859741211 2.9432859420776367 L12.845296859741211 2.805826187133789 C12.845296859741211 2.7768163681030273 12.841437339782715 2.753657341003418 12.831725120544434 2.7400856018066406 C12.822013854980469 2.7265148162841797 12.8066987991333 2.7206621170043945 12.785283088684082 2.7206621170043945 C12.750544548034668 2.7206621170043945 12.717674255371094 2.7362260818481445 12.68293571472168 2.767104148864746 L12.68293571472168 2.9431610107421875 C12.68293571472168 2.9644527435302734 12.684927940368652 2.978024482727051 12.688788414001465 2.9837512969970703 A0.03772645443677902 0.03772645443677902 0.0 0 0 12.704102516174316 2.9993152618408203 C12.711822509765625 3.003175735473633 12.725519180297852 3.005167007446289 12.746685028076172 3.005167007446289 L12.746685028076172 3.0167465209960938 L12.553321838378906 3.0167465209960938 L12.553321838378906 3.005167007446289 L12.560916900634766 3.005167007446289 C12.582332611083984 3.005167007446289 12.595904350280762 2.9993152618408203 12.601755142211914 2.991596221923828 C12.60935115814209 2.981884002685547 12.613210678100586 2.966444969177246 12.613210678100586 2.9431610107421875 L12.613210678100586 2.8193979263305664 C12.613210678100586 2.778684616088867 12.611218452453613 2.755525588989258 12.60935115814209 2.7458133697509766 C12.6073579788208 2.738093376159668 12.603498458862305 2.730374336242676 12.59988784790039 2.728382110595703 C12.596028327941895 2.7245216369628906 12.59017562866211 2.722529411315918 12.582332611083984 2.722529411315918 C12.574487686157227 2.722529411315918 12.564776420593262 2.7245216369628906 12.553445816040039 2.728382110595703 L12.54759407043457 2.714810371398926 L12.665504455566406 2.676088333129883 L12.683060646057129 2.676088333129883 L12.683060646057129 2.745938301086426 L12.682686805725098 2.745938301086426 L12.682686805725098 2.745938301086426 M13.108261108398438 2.502147674560547 C13.119965553283691 2.502147674560547 13.129427909851074 2.506007194519043 13.137147903442383 2.511859893798828 A0.031127436086535454 0.031127436086535454 0.0 0 1 13.15071964263916 2.5388784408569336 C13.15071964263916 2.548590660095215 13.146859169006348 2.556309700012207 13.137147903442383 2.5640296936035156 A0.03922056779265404 0.03922056779265404 0.0 0 1 13.108261108398438 2.575733184814453 A0.0398431159555912 0.0398431159555912 0.0 0 1 13.077383041381836 2.5640296936035156 C13.067671775817871 2.556309700012207 13.063811302185059 2.548590660095215 13.063811302185059 2.5388784408569336 A0.031127436086535454 0.031127436086535454 0.0 0 1 13.077383041381836 2.511859893798828 A0.04830978065729141 0.04830978065729141 0.0 0 1 13.108261108398438 2.502147674560547 M13.143123626708984 2.676337242126465 L13.143123626708984 2.9432859420776367 C13.143123626708984 2.9625844955444336 13.145115852355957 2.976156234741211 13.14897632598877 2.9838762283325195 A0.03013135865330696 0.03013135865330696 0.0 0 0 13.16454029083252 2.9994401931762695 C13.172134399414062 3.0032997131347656 13.183714866638184 3.0052919387817383 13.203262329101562 3.0052919387817383 L13.203262329101562 3.016871452331543 L13.011641502380371 3.016871452331543 L13.011641502380371 3.0052919387817383 C13.031064987182617 3.0052919387817383 13.044511795043945 3.0032997131347656 13.05036449432373 2.9994401931762695 A0.03013135865330696 0.03013135865330696 0.0 0 0 13.06592845916748 2.9838762283325195 C13.069787979125977 2.976156234741211 13.07178020477295 2.9625844955444336 13.07178020477295 2.9432859420776367 L13.07178020477295 2.813671112060547 C13.07178020477295 2.77880859375 13.07178020477295 2.7556495666503906 13.067920684814453 2.743946075439453 C13.06592845916748 2.7362260818481445 13.064061164855957 2.730499267578125 13.058208465576172 2.7285070419311523 C13.054348945617676 2.7246475219726562 13.048497200012207 2.722654342651367 13.040901184082031 2.722654342651367 A0.09661956131458282 0.09661956131458282 0.0 0 0 13.01176643371582 2.7285070419311523 L13.005914688110352 2.714935302734375 L13.12407398223877 2.6762123107910156 L13.143123626708984 2.6762123107910156 L13.143123626708984 2.676337242126465 L13.143123626708984 2.676337242126465 M12.33642578125 2.676337242126465 L12.33642578125 2.7014875411987305 A0.0847911387681961 0.0847911387681961 0.0 0 0 12.278279304504395 2.724771499633789 C12.258855819702148 2.740335464477539 12.24939250946045 2.761502265930176 12.24540901184082 2.7886438369750977 L12.336301803588867 2.7886438369750977 L12.336301803588867 2.8099365234375 L12.24540901184082 2.8099365234375 C12.24540901184082 2.8602380752563477 12.258731842041016 2.8989601135253906 12.287991523742676 2.9261035919189453 C12.303306579589844 2.941542625427246 12.318869590759277 2.951253890991211 12.33642578125 2.9589738845825195 L12.33642578125 3.026707649230957 A0.16198717057704926 0.16198717057704926 0.0 0 1 12.235697746276855 2.980264663696289 C12.200958251953125 2.9492626190185547 12.185395240783691 2.908672332763672 12.185395240783691 2.8563785552978516 C12.185395240783691 2.798356056213379 12.200958251953125 2.753781318664551 12.235697746276855 2.722903251647949 C12.264707565307617 2.6976280212402344 12.297577857971191 2.6821889877319336 12.33642578125 2.676337242126465 L12.33642578125 2.676337242126465 M11.54504108428955 3.0284500122070312 L11.54504108428955 3.001307487487793 L11.558612823486328 3.001307487487793 A0.09512544423341751 0.09512544423341751 0.0 0 0 11.628213882446289 2.972296714782715 C11.645645141601562 2.952998161315918 11.655357360839844 2.9200029373168945 11.655357360839844 2.873560905456543 C11.655357360839844 2.813671112060547 11.639793395996094 2.7672290802001953 11.608915328979492 2.734233856201172 A0.09587249904870987 0.09587249904870987 0.0 0 0 11.54504108428955 2.699496269226074 L11.54504108428955 2.6762123107910156 C11.604930877685547 2.6762123107910156 11.651372909545898 2.6936445236206055 11.688227653503418 2.732241630554199 C11.719230651855469 2.76511287689209 11.73466968536377 2.801966667175293 11.73466968536377 2.8444252014160156 C11.73466968536377 2.8754281997680664 11.724958419799805 2.9044389724731445 11.709518432617188 2.9353179931640625 C11.692087173461914 2.966320037841797 11.668929100036621 2.9894790649414062 11.639793395996094 3.0050430297851562 A0.24702732264995575 0.24702732264995575 0.0 0 1 11.54504108428955 3.0284500122070312 L11.54504108428955 3.0284500122070312 M12.131233215332031 2.9162683486938477 L12.125381469726562 3.016871452331543 L11.782979965209961 3.016871452331543 L11.782979965209961 3.0052919387817383 L12.040216445922852 2.7111997604370117 L11.914462089538574 2.7111997604370117 C11.885451316833496 2.7111997604370117 11.868020057678223 2.7131919860839844 11.860300064086914 2.715059280395508 A0.04743821546435356 0.04743821546435356 0.0 0 0 11.839009284973145 2.7324905395507812 A0.09998132288455963 0.09998132288455963 0.0 0 0 11.8255615234375 2.7769412994384766 L11.808130264282227 2.7769412994384766 L11.8101224899292 2.6860485076904297 L12.1370849609375 2.6860485076904297 L12.1370849609375 2.699620246887207 L11.877856254577637 2.9937124252319336 L12.017182350158691 2.9937124252319336 C12.048185348510742 2.9937124252319336 12.067483901977539 2.991720199584961 12.07906436920166 2.9859933853149414 A0.04569507762789726 0.04569507762789726 0.0 0 0 12.104339599609375 2.9647016525268555 C12.110191345214844 2.956981658935547 12.113801956176758 2.9414186477661133 12.11579418182373 2.916391372680664 L12.131233215332031 2.916391372680664 L12.131233215332031 2.9162683486938477 L12.131233215332031 2.9162683486938477 M11.972607612609863 2.5331506729125977 C11.98617935180664 2.5331506729125977 11.995891571044922 2.5370101928710938 12.003610610961914 2.5447301864624023 A0.03137645497918129 0.03137645497918129 0.0 0 1 12.017182350158691 2.5718727111816406 A0.034738220274448395 0.034738220274448395 0.0 0 1 12.003610610961914 2.600884437561035 C11.995891571044922 2.6086034774780273 11.98617935180664 2.61246395111084 11.972607612609863 2.61246395111084 C11.959036827087402 2.61246395111084 11.949324607849121 2.6086034774780273 11.939737319946289 2.600884437561035 A0.034738220274448395 0.034738220274448395 0.0 0 1 11.926166534423828 2.5718727111816406 C11.926166534423828 2.560293197631836 11.930026054382324 2.5525741577148438 11.939737319946289 2.5447301864624023 A0.0485587976872921 0.0485587976872921 0.0 0 1 11.972607612609863 2.5331506729125977 M11.54504108428955 2.676337242126465 L11.54504108428955 2.699620246887207 L11.531469345092773 2.699620246887207 A0.09549897909164429 0.09549897909164429 0.0 0 0 11.487020492553711 2.7111997604370117 A0.07234016060829163 0.07234016060829163 0.0 0 0 11.450289726257324 2.7499217987060547 A0.1644773632287979 0.1644773632287979 0.0 0 0 11.434725761413574 2.823383331298828 C11.434725761413574 2.8716936111450195 11.446305274963379 2.9142751693725586 11.469588279724121 2.9491376876831055 C11.488887786865234 2.9801406860351562 11.5140380859375 2.997572898864746 11.54504108428955 3.001307487487793 L11.54504108428955 3.0284500122070312 L11.541181564331055 3.0284500122070312 C11.481292724609375 3.0284500122070312 11.434849739074707 3.0071592330932617 11.39998722076416 2.9684362411499023 C11.370976448059082 2.9335737228393555 11.355538368225098 2.896843910217285 11.355538368225098 2.854262351989746 C11.355538368225098 2.823258399963379 11.365249633789062 2.79437255859375 11.382680892944336 2.763369560241699 C11.40011215209961 2.734358787536621 11.423271179199219 2.7111997604370117 11.452406883239746 2.6976280212402344 C11.481167793273926 2.6821889877319336 11.512046813964844 2.676337242126465 11.54504108428955 2.676337242126465 L11.54504108428955 2.676337242126465 M10.869701385498047 3.014878273010254 L10.869701385498047 2.982008934020996 C10.888999938964844 2.9781484603881836 10.91415023803711 2.966444969177246 10.943285942077637 2.9452781677246094 L10.943285942077637 2.8195228576660156 C10.90842342376709 2.8311023712158203 10.883272171020508 2.8388214111328125 10.869701385498047 2.846541404724121 L10.869701385498047 2.821390151977539 C10.890992164611816 2.813671112060547 10.91415023803711 2.805826187133789 10.943285942077637 2.798107147216797 L10.943285942077637 2.7846603393554688 C10.943285942077637 2.7517900466918945 10.935566902160645 2.7285070419311523 10.92386245727539 2.714935302734375 C10.912282943725586 2.7033557891845703 10.89285945892334 2.6975040435791016 10.869701385498047 2.6975040435791016 L10.869701385498047 2.6762123107910156 L10.883272171020508 2.6762123107910156 C10.918135643005371 2.6762123107910156 10.94515323638916 2.680072784423828 10.968437194824219 2.6896591186523438 C10.985868453979492 2.6973791122436523 10.99744701385498 2.7089576721191406 11.005167007446289 2.7245216369628906 C11.011018753051758 2.7361011505126953 11.012887001037598 2.7573928833007812 11.012887001037598 2.7883949279785156 L11.012887001037598 2.902571678161621 C11.012887001037598 2.9335737228393555 11.012887001037598 2.9528722763061523 11.014754295349121 2.9605932235717773 C11.016622543334961 2.966320037841797 11.018614768981934 2.972172737121582 11.02247428894043 2.9741640090942383 C11.026333808898926 2.976032257080078 11.030193328857422 2.978024482727051 11.034178733825684 2.978024482727051 C11.03803825378418 2.978024482727051 11.041897773742676 2.978024482727051 11.045757293701172 2.976032257080078 A0.291352778673172 0.291352778673172 0.0 0 0 11.080620765686035 2.9490127563476562 L11.080620765686035 2.970304489135742 C11.047750473022461 3.005167007446289 11.018614768981934 3.0244665145874023 10.987735748291016 3.0244665145874023 C10.974164009094238 3.0244665145874023 10.962584495544434 3.0206069946289062 10.954741477966309 3.010894775390625 C10.947021484375 3.003175735473633 10.943161010742188 2.9896039962768555 10.943161010742188 2.970304489135742 C10.904563903808594 2.9935874938964844 10.881403923034668 3.0090274810791016 10.869701385498047 3.014878273010254 L10.869701385498047 3.014878273010254 M11.245098114013672 2.502147674560547 L11.245098114013672 2.722654342651367 L11.318682670593262 2.6704845428466797 L11.318682670593262 2.7014875411987305 L11.245098114013672 2.753657341003418 L11.245098114013672 2.9432859420776367 C11.245098114013672 2.966568946838379 11.247090339660645 2.980015754699707 11.248957633972168 2.985868453979492 A0.024154890328645706 0.024154890328645706 0.0 0 0 11.264396667480469 2.997572898864746 C11.274107933044434 3.0032997131347656 11.289546966552734 3.0052919387817383 11.306978225708008 3.0052919387817383 L11.306978225708008 3.016871452331543 L11.109630584716797 3.016871452331543 L11.109630584716797 3.0052919387817383 L11.119342803955078 3.0052919387817383 A0.06997447460889816 0.06997447460889816 0.0 0 0 11.156072616577148 2.997572898864746 C11.161925315856934 2.995579719543457 11.16578483581543 2.9898529052734375 11.169644355773926 2.9840002059936523 C11.173503875732422 2.978273391723633 11.175496101379395 2.962709426879883 11.175496101379395 2.9395503997802734 L11.175496101379395 2.8022165298461914 L11.094191551208496 2.8563785552978516 L11.094191551208496 2.8273677825927734 L11.175496101379395 2.771212577819824 L11.175496101379395 2.641598701477051 C11.175496101379395 2.604867935180664 11.173503875732422 2.5835771560668945 11.171636581420898 2.5738658905029297 A0.03137645497918129 0.03137645497918129 0.0 0 0 11.14262580871582 2.5525741577148438 A0.08055780827999115 0.08055780827999115 0.0 0 0 11.113615989685059 2.560293197631836 L11.109755516052246 2.546722412109375 L11.231650352478027 2.502272605895996 L11.245098114013672 2.502272605895996 L11.245098114013672 2.502147674560547 L11.245098114013672 2.502147674560547 M10.869701385498047 2.676337242126465 L10.869701385498047 2.6976280212402344 C10.850400924682617 2.6976280212402344 10.836830139160156 2.7014875411987305 10.827117919921875 2.709207534790039 C10.81553840637207 2.718918800354004 10.809686660766602 2.7266387939453125 10.809686660766602 2.738218307495117 L10.811678886413574 2.759510040283203 A0.033368613570928574 0.033368613570928574 0.0 0 1 10.801966667175293 2.7846603393554688 C10.7942476272583 2.7903881072998047 10.78640365600586 2.79437255859375 10.774824142456055 2.79437255859375 C10.76324462890625 2.79437255859375 10.755525588989258 2.790513038635254 10.749672889709473 2.7846603393554688 A0.03137645497918129 0.03137645497918129 0.0 0 1 10.738093376159668 2.759510040283203 C10.738093376159668 2.738218307495117 10.751665115356445 2.718918800354004 10.776816368103027 2.7014875411987305 C10.80009937286377 2.6860485076904297 10.829110145568848 2.676337242126465 10.869701385498047 2.676337242126465 L10.869701385498047 2.676337242126465 M10.869701385498047 2.821390151977539 L10.869701385498047 2.846541404724121 A0.026645084843039513 0.026645084843039513 0.0 0 0 10.858121871948242 2.850400924682617 A0.13820581138134003 0.13820581138134003 0.0 0 0 10.80981159210205 2.8833961486816406 A0.0588931068778038 0.0588931068778038 0.0 0 0 10.796239852905273 2.922119140625 C10.796239852905273 2.9395503997802734 10.802092552185059 2.953122138977051 10.813671112060547 2.9647016525268555 C10.827117919921875 2.97628116607666 10.840690612792969 2.982132911682129 10.856253623962402 2.982132911682129 L10.869701385498047 2.982132911682129 L10.869701385498047 3.0150041580200195 L10.865840911865234 3.0150041580200195 A0.1369607150554657 0.1369607150554657 0.0 0 1 10.81740665435791 3.0247154235839844 A0.09910975396633148 0.09910975396633148 0.0 0 1 10.749672889709473 3.001432418823242 C10.7322416305542 2.985868453979492 10.724522590637207 2.9647016525268555 10.724522590637207 2.9394264221191406 C10.724522590637207 2.921995162963867 10.728382110595703 2.9085474014282227 10.736101150512695 2.896843910217285 C10.74780559539795 2.8794126510620117 10.769096374511719 2.8639726638793945 10.798107147216797 2.850400924682617 C10.81553840637207 2.8408145904541016 10.838822364807129 2.8311023712158203 10.869701385498047 2.821390151977539 L10.869701385498047 2.821390151977539 M9.424516677856445 3.0284500122070312 L9.424516677856445 3.001307487487793 L9.439955711364746 3.001307487487793 A0.08790387213230133 0.08790387213230133 0.0 0 0 9.507688522338867 2.972296714782715 C9.52511978149414 2.952998161315918 9.534708023071289 2.9200029373168945 9.534708023071289 2.873560905456543 C9.534708023071289 2.813671112060547 9.519268035888672 2.7672290802001953 9.490257263183594 2.734233856201172 A0.09587249904870987 0.09587249904870987 0.0 0 0 9.424516677856445 2.699496269226074 L9.424516677856445 2.6762123107910156 L9.426383972167969 2.6762123107910156 C9.484405517578125 2.6762123107910156 9.53283977508545 2.6936445236206055 9.569570541381836 2.732241630554199 C9.598581314086914 2.76511287689209 9.614019393920898 2.801966667175293 9.614019393920898 2.8444252014160156 C9.614019393920898 2.8754281997680664 9.606300354003906 2.9044389724731445 9.588869094848633 2.9353179931640625 A0.16161364316940308 0.16161364316940308 0.0 0 1 9.519268035888672 3.0050430297851562 A0.23880968987941742 0.23880968987941742 0.0 0 1 9.424516677856445 3.0284500122070312 L9.424516677856445 3.0284500122070312 M9.788208961486816 2.502147674560547 L9.788208961486816 2.8329696655273438 L9.888813018798828 2.755525588989258 C9.910104751586914 2.738093376159668 9.921683311462402 2.7285070419311523 9.925543785095215 2.7245216369628906 C9.927536010742188 2.7206621170043945 9.929403305053711 2.718794822692871 9.929403305053711 2.714810371398926 C9.929403305053711 2.7108259201049805 9.925543785095215 2.707090377807617 9.921683311462402 2.703230857849121 C9.917823791503906 2.699371337890625 9.910104751586914 2.6975040435791016 9.89840030670166 2.6975040435791016 L9.89840030670166 2.685924530029297 L10.068729400634766 2.685924530029297 L10.068729400634766 2.6975040435791016 A0.17057834565639496 0.17057834565639496 0.0 0 0 10.01070785522461 2.7052230834960938 A0.1907489150762558 0.1907489150762558 0.0 0 0 9.958414077758789 2.7362260818481445 L9.857809066772461 2.813671112060547 L9.958414077758789 2.921995162963867 C9.987424850463867 2.951004981994629 10.006848335266113 2.9704294204711914 10.016559600830078 2.9781484603881836 C10.030007362365723 2.9897279739379883 10.04171085357666 2.997572898864746 10.051298141479492 3.001432418823242 C10.0590181350708 3.003424644470215 10.070722579956055 3.0052919387817383 10.088028907775879 3.0052919387817383 L10.088028907775879 3.016871452331543 L9.89852523803711 3.016871452331543 L9.89852523803711 3.0052919387817383 C9.910104751586914 3.0032997131347656 9.915956497192383 3.0032997131347656 9.919815063476562 2.9994401931762695 A0.01058332808315754 0.01058332808315754 0.0 0 0 9.925668716430664 2.9897279739379883 C9.925668716430664 2.9838762283325195 9.919815063476562 2.9742889404296875 9.90823745727539 2.9625844955444336 L9.788208961486816 2.8329696655273438 L9.788208961486816 2.9432859420776367 C9.788208961486816 2.9645767211914062 9.790201187133789 2.9781484603881836 9.794061660766602 2.985868453979492 C9.797921180725098 2.991720199584961 9.801780700683594 2.997572898864746 9.809625625610352 2.9994401931762695 C9.815352439880371 3.0032997131347656 9.830791473388672 3.0032997131347656 9.85220718383789 3.0052919387817383 L9.85220718383789 3.016871452331543 L9.652867317199707 3.016871452331543 L9.652867317199707 3.0052919387817383 C9.672290802001953 3.0052919387817383 9.687729835510254 3.0032997131347656 9.697442054748535 2.997572898864746 A0.02652057632803917 0.02652057632803917 0.0 0 0 9.711013793945312 2.985868453979492 C9.714873313903809 2.9781484603881836 9.716740608215332 2.9645767211914062 9.716740608215332 2.9452781677246094 L9.716740608215332 2.641598701477051 C9.716740608215332 2.6028757095336914 9.716740608215332 2.5797176361083984 9.71474838256836 2.5718727111816406 C9.712881088256836 2.562161445617676 9.709020614624023 2.55643367767334 9.705036163330078 2.554441452026367 A0.032497044652700424 0.032497044652700424 0.0 0 0 9.685737609863281 2.548590660095215 A0.08765485882759094 0.08765485882759094 0.0 0 0 9.6605863571167 2.554441452026367 L9.652867317199707 2.542738914489746 L9.769034385681152 2.502147674560547 L9.788208961486816 2.502147674560547 M10.672351837158203 2.9162683486938477 L10.66650104522705 3.016871452331543 L10.320239067077637 3.016871452331543 L10.320239067077637 3.0052919387817383 L10.581460952758789 2.7111997604370117 L10.4518461227417 2.7111997604370117 C10.424827575683594 2.7111997604370117 10.40739631652832 2.7131919860839844 10.397685050964355 2.715059280395508 A0.06013820692896843 0.06013820692896843 0.0 0 0 10.376392364501953 2.7324905395507812 A0.08030878007411957 0.08030878007411957 0.0 0 0 10.364813804626465 2.7769412994384766 L10.347382545471191 2.7769412994384766 L10.349374771118164 2.6860485076904297 L10.678329467773438 2.6860485076904297 L10.678329467773438 2.699620246887207 L10.415240287780762 2.9937124252319336 L10.55830192565918 2.9937124252319336 C10.589303970336914 2.9937124252319336 10.608604431152344 2.991720199584961 10.620306968688965 2.9859933853149414 A0.053290169686079025 0.053290169686079025 0.0 0 0 10.645459175109863 2.9647016525268555 C10.64931869506836 2.956981658935547 10.653178215026855 2.9414186477661133 10.6571626663208 2.916391372680664 L10.672351837158203 2.916391372680664 L10.672351837158203 2.9162683486938477 L10.672351837158203 2.9162683486938477 M9.056838989257812 2.676337242126465 L9.056838989257812 2.749797821044922 C9.089709281921387 2.699496269226074 9.122579574584961 2.676337242126465 9.157442092895508 2.676337242126465 C9.172882080078125 2.676337242126465 9.186452865600586 2.680196762084961 9.196165084838867 2.687915802001953 C9.205876350402832 2.6956357955932617 9.211729049682617 2.705348014831543 9.211729049682617 2.714935302734375 C9.211729049682617 2.7245216369628906 9.207869529724121 2.7323665618896484 9.200149536132812 2.7400856018066406 A0.037352923303842545 0.037352923303842545 0.0 0 1 9.174999237060547 2.749797821044922 C9.163419723510742 2.749797821044922 9.153707504272461 2.745938301086426 9.140135765075684 2.7362260818481445 A0.05839507281780243 0.05839507281780243 0.0 0 0 9.113117218017578 2.7246475219726562 A0.02390587143599987 0.02390587143599987 0.0 0 0 9.095685958862305 2.7323665618896484 A0.18278031051158905 0.18278031051158905 0.0 0 0 9.056962966918945 2.7808008193969727 L9.056962966918945 2.9394264221191406 C9.056962966918945 2.9588499069213867 9.058956146240234 2.972421646118164 9.064682960510254 2.982008934020996 A0.04171076416969299 0.04171076416969299 0.0 0 0 9.0841064453125 2.997572898864746 A0.10757642239332199 0.10757642239332199 0.0 0 0 9.124696731567383 3.0052919387817383 L9.124696731567383 3.016871452331543 L8.92348861694336 3.016871452331543 L8.92348861694336 3.0052919387817383 C8.944779396057129 3.0052919387817383 8.958351135253906 3.001432418823242 8.967939376831055 2.995579719543457 A0.02789018303155899 0.02789018303155899 0.0 0 0 8.983503341674805 2.9781484603881836 C8.985494613647461 2.9742889404296875 8.985494613647461 2.9625844955444336 8.985494613647461 2.9432859420776367 L8.985494613647461 2.813671112060547 C8.985494613647461 2.774949073791504 8.985494613647461 2.7517900466918945 8.983503341674805 2.743946075439453 A0.03050488792359829 0.03050488792359829 0.0 0 0 8.97179889678955 2.7285070419311523 C8.967939376831055 2.7246475219726562 8.962211608886719 2.722654342651367 8.954367637634277 2.722654342651367 A0.09774015098810196 0.09774015098810196 0.0 0 0 8.923364639282227 2.7285070419311523 L8.919504165649414 2.714935302734375 L9.0375394821167 2.6762123107910156 L9.056838989257812 2.6762123107910156 L9.056838989257812 2.676337242126465 M9.424516677856445 2.676337242126465 L9.424516677856445 2.699620246887207 L9.412936210632324 2.699620246887207 A0.10284504294395447 0.10284504294395447 0.0 0 0 9.366494178771973 2.7111997604370117 A0.0796862319111824 0.0796862319111824 0.0 0 0 9.329764366149902 2.7499217987060547 C9.320052146911621 2.769221305847168 9.316316604614258 2.79437255859375 9.316316604614258 2.823383331298828 C9.316316604614258 2.8716936111450195 9.327896118164062 2.9142751693725586 9.349187850952148 2.9491376876831055 C9.368611335754395 2.9801406860351562 9.3956298828125 2.997572898864746 9.424640655517578 3.001307487487793 L9.424640655517578 3.0284500122070312 L9.420781135559082 3.0284500122070312 C9.36275863647461 3.0284500122070312 9.314449310302734 3.0071592330932617 9.279462814331055 2.9684362411499023 C9.25057601928711 2.9335737228393555 9.23501205444336 2.896843910217285 9.23501205444336 2.854262351989746 C9.23501205444336 2.823258399963379 9.24472427368164 2.79437255859375 9.262155532836914 2.763369560241699 C9.281454086303711 2.734358787536621 9.30473804473877 2.7111997604370117 9.333747863769531 2.6976280212402344 A0.18925480544567108 0.18925480544567108 0.0 0 1 9.424516677856445 2.676337242126465 L9.424516677856445 2.676337242126465" fill="black" fill-opacity="1.0" filling="0"/></svg>