<?xml version="1.0" encoding="iso-8859-1"?><svg height="200px" viewBox="0.0 0.0 24.0 24.0" width="200px" xmlns="http://www.w3.org/2000/svg"><path animation_id="0" d="M14.676480293273926 7.8105597496032715 L14.698559761047363 7.8105597496032715 C14.13696002960205 8.276159286499023 13.523519515991211 8.677440643310547 12.890880584716797 9.040319442749023 C11.842559814453125 9.634559631347656 10.713600158691406 10.10591983795166 9.526079177856445 10.32863998413086 C7.982399940490723 10.614720344543457 6.438719749450684 10.897919654846191 4.895040035247803 11.184000015258789 C4.55519962310791 11.242560386657715 4.261439800262451 11.457599639892578 4.051199436187744 11.723520278930664 C3.7027196884155273 12.168000221252441 3.3532791137695312 12.612480163574219 3.0028791427612305 13.056000709533691 C2.6438398361206055 13.52064037322998 2.108159065246582 13.847040176391602 1.5273590087890625 13.9420804977417 C2.0956802368164062 13.152959823608398 2.665919303894043 12.366720199584961 3.2342395782470703 11.578559875488281 C3.7583999633789062 10.828800201416016 4.570559501647949 10.291199684143066 5.459519863128662 10.079999923706055 C8.071680068969727 9.437759399414062 10.684800148010254 8.798399925231934 13.29695987701416 8.156160354614258 C13.756799697875977 8.041919708251953 14.21951961517334 7.935359954833984 14.676480293273926 7.8105597496032715 L14.676480293273926 7.8105597496032715 M1.3603191375732422 14.413439750671387 C1.6022396087646484 14.322239875793457 1.8652801513671875 14.347200393676758 2.1187191009521484 14.347200393676758 C2.325119972229004 14.963520050048828 2.53439998626709 15.577919960021973 2.755199432373047 16.18943977355957 L2.3231992721557617 16.18943977355957 C2.213759422302246 16.16352081298828 2.097599983215332 16.114559173583984 2.0390396118164062 16.01375961303711 C1.9948797225952148 15.928319931030273 1.972799301147461 15.833280563354492 1.9411191940307617 15.743040084838867 C1.6703996658325195 15.741120338439941 1.400639533996582 15.741120338439941 1.130880355834961 15.74015998840332 C1.2028799057006836 15.603839874267578 1.3161592483520508 15.482880592346191 1.4659194946289062 15.435840606689453 C1.5801591873168945 15.395520210266113 1.7020797729492188 15.39072036743164 1.8211193084716797 15.384960174560547 C1.7558393478393555 15.196800231933594 1.691518783569336 15.00864028930664 1.6262397766113281 14.820480346679688 C1.3439998626708984 15.213119506835938 1.0809593200683594 15.618240356445312 0.7910394668579102 16.006080627441406 C0.7103996276855469 16.120319366455078 0.5721588134765625 16.17024040222168 0.4387187957763672 16.18943977355957 L-9.5367431640625e-07 16.18943977355957 C0.38783931732177734 15.650880813598633 0.7699193954467773 15.10752010345459 1.1558399200439453 14.568000793457031 C1.2067193984985352 14.496000289916992 1.2777595520019531 14.442239761352539 1.3603191375732422 14.413439750671387 L1.3603191375732422 14.413439750671387 M4.1155195236206055 14.478719711303711 C4.278719902038574 14.370240211486816 4.481279373168945 14.346240043640137 4.673279762268066 14.346240043640137 C4.992959499359131 14.346240043640137 5.3126397132873535 14.34335994720459 5.633279800415039 14.350080490112305 C5.799359321594238 14.355839729309082 5.9884796142578125 14.424960136413574 6.056640148162842 14.589119911193848 C6.128640174865723 14.788800239562988 6.101759433746338 15.013440132141113 6.016319751739502 15.204480171203613 C5.957759380340576 15.332159996032715 5.836799621582031 15.4137601852417 5.723519802093506 15.488639831542969 C5.817599773406982 15.52992057800293 5.948159694671631 15.563520431518555 5.966399669647217 15.682559967041016 C5.982719898223877 15.853440284729004 5.926079750061035 16.021440505981445 5.899199485778809 16.18943977355957 L5.722559452056885 16.18943977355957 C5.609279632568359 16.16160011291504 5.4863996505737305 16.12224006652832 5.418240070343018 16.021440505981445 C5.359679698944092 15.939840316772461 5.3817596435546875 15.830400466918945 5.336639881134033 15.743040084838867 C5.286719799041748 15.668160438537598 5.185919761657715 15.663360595703125 5.105279445648193 15.657600402832031 C4.903679370880127 15.652800559997559 4.702079772949219 15.654720306396484 4.500479698181152 15.651840209960938 C4.570559501647949 15.492480278015137 4.7059197425842285 15.360960006713867 4.876799583435059 15.315839767456055 C5.034239768981934 15.26591968536377 5.21183967590332 15.32256031036377 5.361599922180176 15.242879867553711 C5.464319705963135 15.169919967651367 5.492159366607666 15.03264045715332 5.5017595291137695 14.915519714355469 C5.51039981842041 14.839679718017578 5.480639934539795 14.744640350341797 5.394239902496338 14.732160568237305 C5.244479656219482 14.706239700317383 5.090879440307617 14.722559928894043 4.940159320831299 14.71776008605957 C4.814399719238281 14.721600532531738 4.6723198890686035 14.704319953918457 4.567679405212402 14.787839889526367 C4.487040042877197 14.845439910888672 4.463039875030518 14.946240425109863 4.443840026855469 15.036479949951172 C4.403519630432129 15.242879867553711 4.378559589385986 15.453120231628418 4.341119766235352 15.660480499267578 C4.314239978790283 15.803520202636719 4.259519577026367 15.94752025604248 4.15295934677124 16.05023956298828 C4.070399761199951 16.12704086303711 3.9609594345092773 16.167360305786133 3.852479934692383 16.188480377197266 L3.654719352722168 16.188480377197266 C3.729599952697754 15.77184009552002 3.7977590560913086 15.354240417480469 3.877439498901367 14.938560485839844 C3.9091196060180664 14.768640518188477 3.96575927734375 14.584320068359375 4.1155195236206055 14.478719711303711 L4.1155195236206055 14.478719711303711 M10.750080108642578 14.43455982208252 C10.913280487060547 14.357760429382324 11.097599983215332 14.344320297241211 11.275199890136719 14.345279693603516 C11.612159729003906 14.345279693603516 11.950080871582031 14.34335994720459 12.287040710449219 14.350080490112305 C12.443519592285156 14.355839729309082 12.624959945678711 14.388480186462402 12.714240074157715 14.532480239868164 C12.817919731140137 14.695680618286133 12.763199806213379 14.896320343017578 12.734399795532227 15.072959899902344 C12.682559967041016 15.327360153198242 12.662400245666504 15.590400695800781 12.577919960021973 15.838080406188965 C12.510719299316406 16.033920288085938 12.324480056762695 16.172161102294922 12.119999885559082 16.190401077270508 L10.649280548095703 16.190401077270508 C10.517759323120117 16.16352081298828 10.386240005493164 16.083839416503906 10.3372802734375 15.953280448913574 C10.2806396484375 15.78816032409668 10.31808090209961 15.610560417175293 10.345919609069824 15.443519592285156 C10.386240005493164 15.228480339050293 10.411199569702148 15.00864028930664 10.478400230407715 14.799360275268555 C10.527359962463379 14.654399871826172 10.606080055236816 14.50271987915039 10.750080108642578 14.43455982208252 M11.237759590148926 14.738880157470703 C11.155200004577637 14.754240036010742 11.090880393981934 14.81760025024414 11.057280540466309 14.892480850219727 C10.98624038696289 15.052800178527832 10.979519844055176 15.23136043548584 10.944000244140625 15.401280403137207 C10.930560111999512 15.517439842224121 10.87775993347168 15.647040367126465 10.940159797668457 15.757440567016602 C11.015040397644043 15.846719741821289 11.14463996887207 15.84000015258789 11.250240325927734 15.842880249023438 C11.44320011138916 15.838080406188965 11.638080596923828 15.85536003112793 11.829119682312012 15.827520370483398 C11.94048023223877 15.815040588378906 12.03264045715332 15.72096061706543 12.048959732055664 15.611519813537598 C12.087359428405762 15.405119895935059 12.128640174865723 15.19968032836914 12.161280632019043 14.99232006072998 C12.17184066772461 14.914560317993164 12.168959617614746 14.815680503845215 12.097919464111328 14.76576042175293 C11.992319107055664 14.712960243225098 11.869440078735352 14.721600532531738 11.755200386047363 14.718719482421875 C11.584319114685059 14.723520278930664 11.408639907836914 14.705280303955078 11.237759590148926 14.738880157470703 M14.901119232177734 14.345279693603516 C15.421440124511719 14.345279693603516 15.942719459533691 14.344320297241211 16.46303939819336 14.345279693603516 C16.63391876220703 14.348159790039062 16.82784080505371 14.366400718688965 16.94976043701172 14.500800132751465 C17.064960479736328 14.646719932556152 17.047679901123047 14.846400260925293 17.01696014404297 15.018239974975586 C16.964160919189453 15.30720043182373 16.944000244140625 15.607680320739746 16.818241119384766 15.877440452575684 C16.739519119262695 16.05023956298828 16.560001373291016 16.15488052368164 16.379520416259766 16.18943977355957 L15.168000221252441 16.18943977355957 C15.235199928283691 16.07904052734375 15.308159828186035 15.960960388183594 15.431039810180664 15.906240463256836 C15.649919509887695 15.793920516967773 15.904319763183594 15.87936019897461 16.132801055908203 15.811200141906738 C16.223041534423828 15.782400131225586 16.292160034179688 15.70560073852539 16.319040298461914 15.61631965637207 C16.370880126953125 15.451200485229492 16.38719940185547 15.277440071105957 16.422719955444336 15.108480453491211 C16.438079833984375 15.010560035705566 16.462080001831055 14.897279739379883 16.4006404876709 14.809920310974121 C16.344959259033203 14.730239868164062 16.23744010925293 14.729280471801758 16.150081634521484 14.722559928894043 C15.90719985961914 14.716800689697266 15.66528034210205 14.718719482421875 15.42240047454834 14.718719482421875 C15.370559692382812 15.014400482177734 15.320640563964844 15.310080528259277 15.26688003540039 15.6048002243042 C15.234240531921387 15.762240409851074 15.186240196228027 15.927360534667969 15.070080757141113 16.044479370117188 C14.988480567932129 16.126079559326172 14.87615966796875 16.16543960571289 14.76576042175293 16.18943977355957 L14.578559875488281 16.18943977355957 C14.68511962890625 15.575039863586426 14.793600082397461 14.960639953613281 14.901119232177734 14.345279693603516 M17.352001190185547 14.556480407714844 C17.46816062927246 14.404800415039062 17.670719146728516 14.36736011505127 17.85024070739746 14.35200023651123 C18.14784049987793 14.339519500732422 18.4454402923584 14.348159790039062 18.743040084838867 14.346240043640137 C18.92639923095703 14.349120140075684 19.115520477294922 14.333760261535645 19.291200637817383 14.395200729370117 C19.39776039123535 14.428800582885742 19.474559783935547 14.525760650634766 19.501440048217773 14.632320404052734 C19.553279876708984 14.815680503845215 19.48896026611328 15.001919746398926 19.46303939819336 15.184320449829102 C19.416000366210938 15.420480728149414 19.401599884033203 15.666240692138672 19.304641723632812 15.888959884643555 C19.23072052001953 16.057920455932617 19.056961059570312 16.164480209350586 18.878400802612305 16.190401077270508 L17.399999618530273 16.190401077270508 C17.274240493774414 16.16160011291504 17.137920379638672 16.09632110595703 17.091840744018555 15.967679977416992 C17.01888084411621 15.766080856323242 17.081279754638672 15.552000045776367 17.112960815429688 15.348480224609375 C17.1648006439209 15.077760696411133 17.184959411621094 14.78495979309082 17.352001190185547 14.556480407714844 M17.983680725097656 14.739839553833008 C17.910720825195312 14.757120132446289 17.838720321655273 14.803200721740723 17.810880661010742 14.875200271606445 C17.737918853759766 15.049920082092285 17.72640037536621 15.241920471191406 17.690879821777344 15.425280570983887 C17.676481246948242 15.523200988769531 17.642881393432617 15.624959945678711 17.674560546875 15.722880363464355 C17.69856071472168 15.797760009765625 17.784000396728516 15.824640274047852 17.854080200195312 15.832320213317871 C18.01344108581543 15.848640441894531 18.172800064086914 15.83903980255127 18.333120346069336 15.840960502624512 C18.459840774536133 15.837120056152344 18.600000381469727 15.850560188293457 18.708480834960938 15.770880699157715 C18.787200927734375 15.71328067779541 18.80160140991211 15.609600067138672 18.818880081176758 15.520319938659668 C18.849599838256836 15.341760635375977 18.88800048828125 15.165120124816895 18.91391944885254 14.986559867858887 C18.924480438232422 14.90880012512207 18.919681549072266 14.810880661010742 18.847681045532227 14.762880325317383 C18.741119384765625 14.711040496826172 18.617280960083008 14.720640182495117 18.5020809173584 14.71776008605957 C18.329280853271484 14.723520278930664 18.153600692749023 14.704319953918457 17.983680725097656 14.739839553833008 L17.983680725097656 14.739839553833008 M19.558080673217773 14.345279693603516 C19.74720001220703 14.349120140075684 19.942081451416016 14.338560104370117 20.122562408447266 14.404800415039062 C20.23103904724121 14.444160461425781 20.29056167602539 14.552639961242676 20.325119018554688 14.655360221862793 C20.44896125793457 15.021120071411133 20.570880889892578 15.386880874633789 20.694721221923828 15.752639770507812 C20.937599182128906 15.408000946044922 21.18048095703125 15.063360214233398 21.423362731933594 14.718719482421875 C21.5020809173584 14.615039825439453 21.56256103515625 14.4835205078125 21.68832015991211 14.430719375610352 C21.88800048828125 14.341440200805664 22.112640380859375 14.34335994720459 22.32672119140625 14.346240043640137 C21.942720413208008 14.891519546508789 21.557762145996094 15.436800003051758 21.17184066772461 15.981120109558105 C21.090240478515625 16.102081298828125 20.949119567871094 16.16543960571289 20.809921264648438 16.18943977355957 L20.217601776123047 16.18943977355957 C19.983360290527344 15.579839706420898 19.77983856201172 14.959680557250977 19.558080673217773 14.345279693603516 M22.679039001464844 14.392319679260254 C22.90176010131836 14.32800006866455 23.135040283203125 14.347200393676758 23.3635196685791 14.347200393676758 C23.581439971923828 14.953920364379883 23.784961700439453 15.56447982788086 24.0 16.172161102294922 L24.0 16.18943977355957 L23.567039489746094 16.18943977355957 C23.46432113647461 16.16352081298828 23.360639572143555 16.114559173583984 23.29920196533203 16.025279998779297 C23.250240325927734 15.936960220336914 23.230079650878906 15.837120056152344 23.19647979736328 15.743040084838867 C22.925762176513672 15.743040084838867 22.6560001373291 15.74496078491211 22.386240005493164 15.74015998840332 C22.43903923034668 15.64896011352539 22.494720458984375 15.553919792175293 22.587839126586914 15.49728012084961 C22.73183822631836 15.402239799499512 22.909439086914062 15.38976001739502 23.076480865478516 15.385919570922852 C23.011199951171875 15.196800231933594 22.945919036865234 15.007680892944336 22.879680633544922 14.818559646606445 C22.6416015625 15.1593599319458 22.40928077697754 15.504960060119629 22.16543960571289 15.841919898986816 C22.09632110595703 15.932160377502441 22.040639877319336 16.03775978088379 21.943679809570312 16.102081298828125 C21.865921020507812 16.152000427246094 21.775680541992188 16.176000595092773 21.685440063476562 16.18943977355957 L21.253440856933594 16.18943977355957 C21.644161224365234 15.648000717163086 22.032962799072266 15.104640007019043 22.4150390625 14.556480407714844 C22.47936248779297 14.471039772033691 22.57823944091797 14.421119689941406 22.679039001464844 14.392319679260254 L22.679039001464844 14.392319679260254 M3.3311996459960938 14.512319564819336 C3.4627199172973633 14.39136028289795 3.648959159851074 14.364480018615723 3.8188791275024414 14.35200023651123 C3.744959831237793 14.796480178833008 3.6662397384643555 15.23904037475586 3.5808000564575195 15.68064022064209 C3.5587196350097656 15.787200927734375 3.5222396850585938 15.893760681152344 3.4559993743896484 15.981120109558105 C3.3724794387817383 16.099201202392578 3.2342395782470703 16.164480209350586 3.0950393676757812 16.18943977355957 L2.906879425048828 16.18943977355957 C2.978879928588867 15.789119720458984 3.047999382019043 15.388800621032715 3.119999885559082 14.988480567932129 C3.153599739074707 14.81760025024414 3.205439567565918 14.639039993286133 3.3311996459960938 14.512319564819336 L3.3311996459960938 14.512319564819336 M7.482240200042725 14.460479736328125 C7.661759376525879 14.357760429382324 7.8796796798706055 14.333760261535645 8.080320358276367 14.374080657958984 C8.207039833068848 14.400959968566895 8.32800006866455 14.492159843444824 8.356800079345703 14.623680114746094 C8.447040557861328 14.977920532226562 8.52672004699707 15.336000442504883 8.612159729003906 15.691200256347656 C8.820479393005371 15.337920188903809 9.029759407043457 14.983680725097656 9.237119674682617 14.630400657653809 C9.29088020324707 14.534400939941406 9.37440013885498 14.455680847167969 9.479040145874023 14.417280197143555 C9.63167953491211 14.360639572143555 9.7958402633667 14.34335994720459 9.95711898803711 14.366400718688965 C10.084799766540527 14.385600090026855 10.219200134277344 14.454719543457031 10.26431941986084 14.584320068359375 C10.32863998413086 14.763839721679688 10.273919105529785 14.955840110778809 10.244159698486328 15.136320114135742 C10.18175983428955 15.487680435180664 10.121280670166016 15.83903980255127 10.052159309387207 16.190401077270508 L9.88800048828125 16.190401077270508 C9.77280044555664 16.162559509277344 9.65664005279541 16.102081298828125 9.599040031433105 15.993600845336914 C9.538559913635254 15.880319595336914 9.550079345703125 15.74783992767334 9.56544017791748 15.624959945678711 C9.599040031433105 15.38976001739502 9.645119667053223 15.15648078918457 9.686399459838867 14.923200607299805 C9.478079795837402 15.264960289001465 9.272640228271484 15.607680320739746 9.066240310668945 15.950400352478027 C8.985599517822266 16.086719512939453 8.835840225219727 16.166400909423828 8.683199882507324 16.190401077270508 L8.38655948638916 16.190401077270508 C8.2675199508667 16.167360305786133 8.14367961883545 16.107839584350586 8.08799934387207 15.994560241699219 C8.042879104614258 15.894720077514648 8.023679733276367 15.786239624023438 7.995840072631836 15.681600570678711 C7.936319828033447 15.426239967346191 7.871039867401123 15.173760414123535 7.803840160369873 14.920320510864258 C7.761600017547607 15.155519485473633 7.723199844360352 15.391679763793945 7.67903995513916 15.626880645751953 C7.648319721221924 15.785280227661133 7.592639923095703 15.949440002441406 7.468799591064453 16.05984115600586 C7.38815975189209 16.136640548706055 7.278719902038574 16.172161102294922 7.172159671783447 16.191360473632812 L6.988799571990967 16.191360473632812 C7.072319984436035 15.77280044555664 7.1347198486328125 15.34943962097168 7.21343994140625 14.929920196533203 C7.2547197341918945 14.752320289611816 7.323840141296387 14.562240600585938 7.482240200042725 14.460479736328125 L7.482240200042725 14.460479736328125 M13.068480491638184 14.552639961242676 C13.196159362792969 14.395200729370117 13.410240173339844 14.366400718688965 13.600319862365723 14.35200023651123 C13.527359962463379 14.764800071716309 13.45248031616211 15.177600860595703 13.384319305419922 15.591360092163086 C13.368959426879883 15.672000885009766 13.375680923461914 15.789119720458984 13.469759941101074 15.816960334777832 C13.72991943359375 15.885120391845703 14.019840240478516 15.781439781188965 14.266559600830078 15.913919448852539 C14.372159957885742 15.965760231018066 14.402880668640137 16.086719512939453 14.433600425720215 16.18943977355957 L13.115519523620605 16.18943977355957 C12.957119941711426 16.160640716552734 12.797760009765625 16.045440673828125 12.779520034790039 15.875519752502441 C12.760319709777832 15.657600402832031 12.824640274047852 15.444480895996094 12.853440284729004 15.23136043548584 C12.89568042755127 14.999040603637695 12.913919448852539 14.742719650268555 13.068480491638184 14.552639961242676 L13.068480491638184 14.552639961242676" fill="black" fill-opacity="1.0" filling="0"/>
<path animation_id="1" d="M5.131199836730957 11.551680564880371 C6.6518402099609375 11.302080154418945 8.172479629516602 11.05247974395752 9.692159652709961 10.80288028717041 C9.040319442749023 11.33568000793457 8.308799743652344 11.775360107421875 7.518719673156738 12.069120407104492 C7.088640213012695 12.227519989013672 6.639359474182129 12.33407974243164 6.182399749755859 12.379199981689453 C5.384639739990234 12.463680267333984 4.5878400802612305 12.54911994934082 3.790079116821289 12.633600234985352 C3.9791994094848633 12.401280403137207 4.165440082550049 12.16703987121582 4.355519771575928 11.935680389404297 C4.549439907073975 11.708160400390625 4.839359283447266 11.585280418395996 5.131199836730957 11.551680564880371 L5.131199836730957 11.551680564880371" fill="black" fill-opacity="1.0" filling="0"/>
<path animation_id="2" d="M3.446399688720703 13.065600395202637 C4.424639701843262 12.975359916687012 5.403840065002441 12.887040138244629 6.383039951324463 12.803520202636719 C5.752319812774658 13.35360050201416 4.9641594886779785 13.75200080871582 4.124159336090088 13.830719947814941 C3.5884790420532227 13.86240005493164 3.05087947845459 13.875840187072754 2.5132789611816406 13.888319969177246 C2.8809595108032227 13.68671989440918 3.1795196533203125 13.38528060913086 3.446399688720703 13.065600395202637 L3.446399688720703 13.065600395202637" fill="black" fill-opacity="1.0" filling="0"/></svg>