<?xml version="1.0" encoding="iso-8859-1"?><svg height="200px" viewBox="0.0 0.0 24.0 24.0" width="200px" xmlns="http://www.w3.org/2000/svg"><path animation_id="0" d="M0.0 0.0 L24.0 0.0 L24.0 24.0 L0.0 24.0 L0.0 0.0" fill="black" fill-opacity="1.0" filling="0"/>
<path animation_id="1" d="M5.475191593170166 13.914337158203125 C5.136275768280029 13.914337158203125 1.3831787109375 13.938491821289062 1.0925731658935547 13.938491821289062 C0.947270393371582 13.62373161315918 1.310464859008789 11.49287223815918 1.4316129684448242 11.00865364074707 C1.4316129684448242 11.00865364074707 1.5690717697143555 9.859552383422852 3.0539751052856445 10.015812873840332 C3.5140380859375 10.064247131347656 5.475316047668457 10.814791679382324 5.475316047668457 10.814791679382324 L5.475316047668457 11.783352851867676 C5.475316047668457 11.783352851867676 4.676336765289307 11.468592643737793 4.288862705230713 11.105398178100586 C3.90151309967041 10.742202758789062 2.779804229736328 10.662516593933105 2.5454769134521484 10.935815811157227 C2.400174140930176 11.105398178100586 2.4728879928588867 13.015875816345215 2.4728879928588867 13.139264106750488 C2.4728879928588867 13.308722496032715 3.635186195373535 12.485464096069336 5.5238752365112305 13.526739120483398 L5.475191593170166 13.914337158203125 L5.475191593170166 13.914337158203125" fill="black" fill-opacity="1.0" filling="0"/>
<path animation_id="2" d="M9.397871017456055 11.105522155761719 L7.097553730010986 11.105522155761719 C7.097553730010986 11.105522155761719 6.395318508148193 11.129676818847656 6.177426338195801 11.710888862609863 C5.959534168243408 12.291975021362305 6.007968425750732 13.405839920043945 6.007968425750732 13.405839920043945 C6.056402683258057 13.769034385681152 6.395318508148193 13.96277141571045 6.928095817565918 13.986927032470703 C7.556994438171387 14.015439987182617 8.477743148803711 13.986927032470703 9.058830261230469 13.96277141571045 C9.640043258666992 13.938616752624512 10.0032377243042 13.648011207580566 10.148540496826172 13.236381530761719 C10.293843269348145 12.824627876281738 10.269563674926758 12.509867668151855 10.317998886108398 11.952935218811035 C10.366433143615723 11.396003723144531 9.833780288696289 11.105522155761719 9.397871017456055 11.105522155761719 M9.397871017456055 11.856191635131836 C9.397871017456055 11.856191635131836 9.34644889831543 12.759509086608887 9.252567291259766 12.994210243225098 C9.155698776245117 13.236381530761719 8.96208667755127 13.212102890014648 8.96208667755127 13.212102890014648 C8.96208667755127 13.212102890014648 7.388159275054932 13.284815788269043 7.194422245025635 13.260661125183105 C7.000685214996338 13.236506462097168 6.9039411544799805 13.163792610168457 6.9039411544799805 12.994210243225098 C6.9039411544799805 12.824627876281738 7.049243927001953 11.856191635131836 7.049243927001953 11.856191635131836 C7.073398590087891 11.638298988342285 7.291415214538574 11.541306495666504 7.460873126983643 11.541306495666504 C7.630331039428711 11.541306495666504 8.865218162536621 11.56558609008789 9.131669998168945 11.541306495666504 C9.397871017456055 11.517151832580566 9.422150611877441 11.783477783203125 9.397871017456055 11.856191635131836 M10.761003494262695 13.97074031829834 L11.083982467651367 11.097429275512695 L14.941667556762695 11.097429275512695 C15.39251708984375 11.097429275512695 15.749984741210938 11.581646919250488 15.701675415039062 11.856191635131836 C15.653241157531738 12.130486488342285 15.459503173828125 13.938616752624512 15.459503173828125 13.938616752624512 L14.504762649536133 13.970865249633789 C14.504762649536133 13.970865249633789 14.732865333557129 12.179045677185059 14.765236854553223 11.90462589263916 C14.765236854553223 11.90462589263916 14.797609329223633 11.646392822265625 14.571624755859375 11.630206108093262 C14.345640182495117 11.614020347595215 13.860300064086914 11.614020347595215 13.860300064086914 11.614020347595215 L13.58700180053711 13.938616752624512 L12.666749954223633 13.938616752624512 C12.666749954223633 13.938616752624512 12.879039764404297 12.065990447998047 12.892860412597656 11.840005874633789 C12.906681060791016 11.614020347595215 12.763992309570312 11.614020347595215 12.714312553405762 11.614020347595215 L11.955425262451172 11.614020347595215 L11.682002067565918 13.938616752624512 L10.761003494262695 13.97074031829834 L10.761003494262695 13.97074031829834 M17.21758270263672 13.97074031829834 L16.249267578125 13.97074031829834 L16.636619567871094 11.097429275512695 C16.636619567871094 11.097429275512695 17.57430076599121 11.129552841186523 17.493370056152344 11.775383949279785 L17.21758270263672 13.97074031829834 L17.21758270263672 13.97074031829834 M22.09276008605957 11.097429275512695 L21.30050277709961 11.097429275512695 L20.148788452148438 12.036480903625488 L19.59185791015625 11.420282363891602 C19.414306640625 11.17823600769043 19.041025161743164 11.097429275512695 19.041025161743164 11.097429275512695 L18.105709075927734 11.097429275512695 L19.45128631591797 12.605241775512695 L17.816099166870117 13.938491821289062 L18.654300689697266 13.97074031829834 L19.80887794494629 13.005914688110352 L20.64134979248047 13.938491821289062 L21.868019104003906 13.938491821289062 L20.501773834228516 12.4269437789917 L22.09276008605957 11.097429275512695 L22.09276008605957 11.097429275512695 M22.501026153564453 12.318122863769531 A0.43951940536499023 0.43951940536499023 0.0 0 1 22.06088638305664 11.877856254577637 C22.059391021728516 11.635435104370117 22.257362365722656 11.437589645385742 22.501026153564453 11.437589645385742 A0.44126251339912415 0.44126251339912415 0.0 0 1 22.94116973876953 11.877856254577637 C22.94116973876953 12.12152099609375 22.74319839477539 12.316752433776855 22.501026153564453 12.318122863769531 M22.49978256225586 11.488638877868652 A0.387972354888916 0.387972354888916 0.0 0 0 22.111934661865234 11.879100799560547 A0.38722530007362366 0.38722530007362366 0.0 0 0 22.501026153564453 12.266949653625488 A0.38909295201301575 0.38909295201301575 0.0 0 0 22.890119552612305 11.877856254577637 A0.3902135491371155 0.3902135491371155 0.0 0 0 22.49978256225586 11.488638877868652 L22.49978256225586 11.488638877868652 M22.33642578125 11.622735977172852 L22.553321838378906 11.622735977172852 C22.628524780273438 11.622735977172852 22.701364517211914 11.636805534362793 22.707714080810547 11.746499061584473 C22.710205078125 11.809002876281738 22.69115447998047 11.832036018371582 22.64371681213379 11.867646217346191 C22.693519592285156 11.899520874023438 22.69476318359375 11.907240867614746 22.70261001586914 11.991533279418945 C22.707714080810547 12.055282592773438 22.698747634887695 12.065492630004883 22.72551918029785 12.107576370239258 L22.65155792236328 12.107576370239258 L22.64134979248047 12.046442031860352 C22.631139755249023 11.989043235778809 22.659154891967773 11.89964485168457 22.558425903320312 11.89964485168457 L22.398929595947266 11.89964485168457 L22.398929595947266 12.107576370239258 L22.33642578125 12.107576370239258 L22.33642578125 11.622735977172852 M22.3988037109375 11.677519798278809 L22.3988037109375 11.844612121582031 L22.554441452026367 11.844612121582031 C22.59677505493164 11.844612121582031 22.637615203857422 11.833157539367676 22.64371681213379 11.77065372467041 C22.652929306030273 11.687729835510254 22.592914581298828 11.677519798278809 22.554441452026367 11.677519798278809 L22.3988037109375 11.677519798278809" fill="black" fill-opacity="1.0" filling="0"/></svg>