<?xml version="1.0" encoding="iso-8859-1"?><svg height="200px" viewBox="0.0 0.0 24.0 24.0" width="200px" xmlns="http://www.w3.org/2000/svg"><path animation_id="0" d="M0.0 0.0 L24.0 0.0 L24.0 24.0 L0.0 24.0 L0.0 0.0" fill="black" fill-opacity="1.0" filling="0"/>
<path animation_id="1" d="M1.0588302612304688 12.956982612609863 L1.7369108200073242 14.313017845153809 L14.866338729858398 19.552637100219727 L22.941295623779297 14.066488265991211 L22.324846267700195 13.203636169433594 C21.441574096679688 8.42607307434082 18.113178253173828 5.344082832336426 14.126626968383789 4.635622024536133 C7.166282653808594 3.58251953125 2.635622024536133 7.024342060089111 1.0588302612304688 12.956982612609863 L1.0588302612304688 12.956982612609863" fill="black" fill-opacity="1.0" filling="0"/>
<path animation_id="2" d="M20.6790771484375 12.645708084106445 C20.735729217529297 12.836830139160156 20.776569366455078 13.028202056884766 20.812801361083984 13.219324111938477 L21.90300750732422 13.219324111938477 C21.89030647277832 12.964452743530273 21.83303451538086 12.709331512451172 21.749984741210938 12.454212188720703 A7.821702003479004 7.821702003479004 0.0 0 1 20.6790771484375 12.645708084106445 M18.703977584838867 12.85102367401123 C19.19977569580078 12.825250625610352 19.69569969177246 12.788768768310547 20.191495895385742 12.736474990844727 C20.223369598388672 12.899457931518555 20.24964141845703 13.062317848205566 20.268070220947266 13.225300788879395 L18.895973205566406 13.225300788879395 L18.703977584838867 12.85102367401123 M19.314823150634766 10.09898567199707 L18.301937103271484 12.022162437438965 L18.381746292114258 12.204319953918457 C18.93183135986328 12.194608688354492 19.481666564941406 12.160492897033691 20.031749725341797 12.090518951416016 C19.855194091796875 11.410944938659668 19.612525939941406 10.748054504394531 19.314823150634766 10.09898567199707 L19.314823150634766 10.09898567199707 M18.415739059448242 7.811741828918457 C19.42538833618164 9.083857536315918 20.178794860839844 10.4578218460083 20.54385757446289 12.033742904663086 C20.913528442382812 11.95393180847168 21.270248413085938 11.874244689941406 21.579280853271484 11.794683456420898 C20.963333129882812 10.265953063964844 20.150531768798828 8.85102367401123 18.927846908569336 7.686609268188477 L18.415739059448242 7.811741828918457 L18.415739059448242 7.811741828918457 M16.37552261352539 7.9988789558410645 C16.505884170532227 8.30978012084961 16.643962860107422 8.620556831359863 16.72452163696289 8.93145751953125 L17.33536720275879 9.460872650146484 L17.574674606323242 8.913652420043945 L18.646080017089844 8.916516304016113 C18.410633087158203 8.561538696289062 18.181161880493164 8.263587951660156 17.89752960205078 7.9086103439331055 C17.371723175048828 7.9758453369140625 16.869325637817383 7.996016025543213 16.37552261352539 7.9988789558410645 L16.37552261352539 7.9988789558410645 M4.734856605529785 9.69034481048584 C3.953433036804199 10.852394104003906 3.4903812408447266 12.014318466186523 3.1721343994140625 13.176492691040039 L5.0955610275268555 13.176492691040039 C5.349187850952148 12.187885284423828 5.602938652038574 11.199650764465332 5.856813907623291 10.211169242858887 C5.482786655426025 10.08964729309082 5.108758926391602 9.904376029968262 4.734856605529785 9.69034481048584 L4.734856605529785 9.69034481048584 M1.5292282104492188 13.136276245117188 C1.6759014129638672 11.97559642791748 2.0727128982543945 10.65865707397461 3.332378387451172 8.848783493041992 C3.622112274169922 9.053228378295898 3.9176998138427734 9.251945495605469 4.254000186920166 9.409823417663574 C3.5242481231689453 10.665379524230957 2.9639549255371094 11.92093563079834 2.651185989379883 13.17636775970459 L1.5292282104492188 13.136276245117188 M3.7213478088378906 8.35373306274414 L4.654672145843506 8.928842544555664 C5.6070475578308105 7.681379795074463 6.843926906585693 6.651061534881592 8.314014434814453 5.817593097686768 L7.849841594696045 5.484031677246094 C6.256365776062012 6.1063313484191895 4.866214275360107 7.041399955749512 3.7213478088378906 8.35373306274414 L3.7213478088378906 8.35373306274414 M5.099297046661377 9.129302978515625 A7.336113929748535 7.336113929748535 0.0 0 0 6.005478858947754 9.568822860717773 L6.1983442306518555 8.908422470092773 L7.488016128540039 8.905684471130371 L8.001245498657227 9.35703182220459 L7.4479241371154785 7.122580051422119 L9.37745189666748 7.121335029602051 L9.682003021240234 7.379069805145264 L10.331819534301758 6.805079936981201 C9.829297065734863 6.587810516357422 9.326900482177734 6.349997043609619 8.824503898620605 6.098114013671875 C7.334619998931885 6.789267539978027 6.174811840057373 7.852331638336182 5.099297046661377 9.129302978515625 M10.788395881652832 6.985494613647461 L10.023283004760742 7.701798915863037 L10.104463577270508 7.781360626220703 L10.595281600952148 10.163480758666992 L11.17014217376709 7.1237006187438965 L10.788395881652832 6.985494613647461 L10.788395881652832 6.985494613647461 M14.65492057800293 12.62317180633545 L14.65492057800293 12.89647102355957 L15.172882080078125 12.901326179504395 L15.523002624511719 13.126813888549805 L15.523002624511719 12.642346382141113 L14.65492057800293 12.62317180633545 L14.65492057800293 12.62317180633545 M15.532093048095703 10.795119285583496 L14.670734405517578 10.797734260559082 L14.673846244812012 10.923364639282227 L15.083358764648438 10.926103591918945 L15.539563179016113 11.285065650939941 L15.532093048095703 10.795119285583496 M15.846105575561523 7.9823198318481445 C15.230405807495117 7.9816975593566895 14.559671401977539 7.9123454093933105 13.863910675048828 7.811741828918457 L13.622611999511719 8.912407875061035 L15.2149658203125 8.918134689331055 L15.522380828857422 9.20313835144043 L15.527485847473145 8.919256210327148 L16.229597091674805 8.919256210327148 C16.123016357421875 8.581958770751953 15.992654800415039 8.299695014953613 15.846105575561523 7.9823198318481445 L15.846105575561523 7.9823198318481445 M8.495922088623047 5.257050514221191 C8.640975952148438 5.344456195831299 8.797111511230469 5.431986331939697 8.94216537475586 5.519517421722412 C9.599079132080078 5.222685813903809 10.323974609375 4.993836879730225 11.099919319152832 4.816037178039551 C10.301313400268555 4.850401878356934 9.453028678894043 4.9650750160217285 8.495922088623047 5.257050514221191 M9.430991172790527 5.787088394165039 C9.885576248168945 6.002988338470459 10.34028434753418 6.197970390319824 10.794994354248047 6.36257266998291 C11.432733535766602 5.87063455581665 12.198095321655273 5.413559436798096 13.118098258972168 4.998568058013916 C11.864907264709473 5.045010566711426 10.632759094238281 5.278964042663574 9.430991172790527 5.787088394165039 M13.58687686920166 5.254311561584473 L13.195792198181152 7.054348945617676 C12.573243141174316 6.906057357788086 11.950446128845215 6.743946075439453 11.327771186828613 6.575733184814453 C12.020917892456055 6.015315055847168 12.773953437805176 5.574799060821533 13.58687686920166 5.254311561584473 L13.58687686920166 5.254311561584473 M14.133599281311035 5.381062030792236 C14.743448257446289 6.002988338470459 15.177614212036133 6.683683395385742 15.547657012939453 7.385544776916504 C14.943534851074219 7.333624362945557 14.340036392211914 7.262902736663818 13.736164093017578 7.151092529296875 L14.133599281311035 5.381062030792236 M16.59988784790039 6.051547050476074 C17.04538345336914 6.401917457580566 17.494863510131836 6.782045841217041 17.96190071105957 7.304862022399902 A3.466351270675659 3.466351270675659 0.0 0 0 18.372905731201172 7.22430419921875 C17.765798568725586 6.736599922180176 17.17474937438965 6.345763683319092 16.59988784790039 6.051547050476074 L16.59988784790039 6.051547050476074 M17.423147201538086 7.364253520965576 C16.982755661010742 7.408205509185791 16.5423641204834 7.420158386230469 16.10172462463379 7.385544776916504 C15.7225923538208 6.679325580596924 15.25667667388916 6.031002998352051 14.759136199951172 5.403598308563232 C15.723464012145996 5.8387603759765625 16.596527099609375 6.535391807556152 17.423147201538086 7.364253520965576" fill="black" fill-opacity="1.0" filling="0"/>
<path animation_id="3" d="M1.5945959091186523 13.216211318969727 L2.086409568786621 13.90475082397461 L14.824005126953125 19.068666458129883 L22.39768409729004 14.0032377243042 L21.856815338134766 13.265392303466797 L14.332192420959473 18.13422203063965 L1.5945959091186523 13.216211318969727 L1.5945959091186523 13.216211318969727" fill="black" fill-opacity="1.0" filling="0"/>
<path animation_id="4" d="M16.719043731689453 8.912656784057617 L16.69501304626465 10.869451522827148 L17.331632614135742 9.46361255645752 L16.719043731689453 8.912656784057617 M15.209611892700195 8.9191312789917 L15.527983665466309 9.209736824035645 L15.527983665466309 10.789889335632324 L14.662765502929688 10.789889335632324 L14.650314331054688 10.924484252929688 L13.90587043762207 10.924484252929688 L13.909730911254883 10.232832908630371 L15.209487915039062 10.232832908630371 L15.209487915039062 8.9191312789917 L15.209611892700195 8.9191312789917 L15.209611892700195 8.9191312789917 M15.082488059997559 10.938429832458496 L15.54068374633789 11.285563468933105 L15.521509170532227 12.633630752563477 L14.652555465698242 12.625661849975586 L14.652555465698242 12.907302856445312 L13.891676902770996 12.915520668029785 L13.891676902770996 12.12201976776123 L15.103405952453613 12.118160247802734 L15.082488059997559 10.938429832458496 M12.830605506896973 14.166345596313477 L13.485526084899902 14.715184211730957 L15.92591667175293 14.715184211730957 L15.899395942687988 14.370540618896484 L16.29720687866211 14.741829872131348 L17.54964828491211 14.741829872131348 L17.500717163085938 14.145801544189453 L18.20693588256836 14.688539505004883 L19.63929557800293 14.688539505004883 L18.286373138427734 12.036356925964355 L19.579904556274414 9.543174743652344 L18.873188018798828 8.915395736694336 L17.570194244384766 11.479300498962402 L18.869949340820312 14.078689575195312 L17.500591278076172 14.078689575195312 L16.721410751342773 12.212040901184082 L16.7479305267334 14.10521125793457 L15.52785873413086 14.10521125793457 L15.52785873413086 13.123701095581055 L15.182967185974121 12.919629096984863 L15.182967185974121 14.166220664978027 L12.830605506896973 14.166220664978027 L12.830605506896973 14.166345596313477 M13.008155822753906 7.102907657623291 L13.85681438446045 7.792566776275635 L13.606051445007324 8.93643856048584 L12.67148208618164 8.93643856048584 L12.673722267150879 12.949760437011719 L11.920562744140625 15.90910816192627 L10.116914749145508 15.90910816192627 L9.447674751281738 15.28481674194336 L11.132914543151855 15.28481674194336 L13.008155822753906 7.102907657623291 L13.008155822753906 7.102907657623291 M9.37433910369873 7.129427909851074 L10.090394020080566 7.7659220695495605 L10.594408988952637 10.206188201904297 L10.249642372131348 11.877357482910156 L9.37433910369873 7.129427909851074 L9.37433910369873 7.129427909851074 M7.482662200927734 14.097118377685547 L8.215153694152832 14.695138931274414 L9.309843063354492 14.695138931274414 L8.013198852539062 9.353421211242676 L7.491128921508789 8.93320083618164 L8.711199760437012 14.105460166931152 L7.482662200927734 14.097118377685547 M4.8917388916015625 14.105335235595703 L5.634439468383789 14.715184211730957 L6.854510307312012 14.715184211730957 L7.0380377769470215 13.812239646911621 L7.438087463378906 13.804021835327148 L7.2955241203308105 13.2057523727417 L6.347382545471191 13.2057523727417 L6.139824390411377 14.096993446350098 L4.8917388916015625 14.105335235595703 L4.8917388916015625 14.105335235595703 M6.8218889236450195 10.608354568481445 L6.5097432136535645 12.08528995513916 L7.113615036010742 12.08528995513916 L6.8218889236450195 10.608354568481445" fill="black" fill-opacity="1.0" filling="0"/></svg>