<?xml version="1.0" encoding="iso-8859-1"?><svg height="200px" viewBox="0.0 0.0 24.0 24.0" width="200px" xmlns="http://www.w3.org/2000/svg"><path animation_id="0" d="M0.0 0.0 L24.0 0.0 L24.0 24.0 L0.0 24.0 L0.0 0.0" fill="black" fill-opacity="1.0" filling="0"/>
<path animation_id="1" d="M2.8329696655273438 10.663762092590332 L2.177924156188965 10.663762092590332 L1.0588302612304688 12.027143478393555 L2.3315696716308594 13.389404296875 L2.8329696655273438 13.389404296875 L2.8324718475341797 13.388906478881836 L2.9524993896484375 13.388906478881836 L2.9524993896484375 12.930585861206055 L2.540994644165039 12.930585861206055 L1.9653854370117188 12.027143478393555 L2.8329696655273438 10.663762092590332 L2.8329696655273438 10.663762092590332 M3.5027074813842773 10.663762092590332 L4.157629013061523 10.663762092590332 L5.276723384857178 12.027143478393555 L4.0041093826293945 13.389404296875 L3.5027074813842773 13.389404296875 L3.50345516204834 13.388906478881836 L3.3831796646118164 13.388906478881836 L3.3831796646118164 12.930585861206055 L3.794309616088867 12.930585861206055 L4.370541095733643 12.027143478393555 L3.5027074813842773 10.663762092590332 L3.5027074813842773 10.663762092590332" fill="black" fill-opacity="1.0" filling="0"/>
<path animation_id="2" d="M3.4324846267700195 12.04482364654541 L3.4324846267700195 12.661147117614746 L2.9040651321411133 12.661147117614746 L2.9040651321411133 12.04482364654541 L2.3268375396728516 12.04482364654541 L2.7389659881591797 11.397871017456055 L3.6001996994018555 11.397871017456055 L4.008715629577637 12.04482364654541 L3.4324846267700195 12.04482364654541 L3.4324846267700195 12.04482364654541 M10.116291999816895 10.61246395111084 L10.772832870483398 10.61246395111084 L10.772832870483398 13.392143249511719 L10.148290634155273 13.393762588500977 L9.511299133300781 12.366059303283691 L9.511299133300781 13.392143249511719 L8.85426139831543 13.392143249511719 L8.85426139831543 10.61246395111084 L9.360393524169922 10.612836837768555 L10.116291999816895 11.919692039489746 L10.116291999816895 10.61246395111084 L10.116291999816895 10.61246395111084 M11.875117301940918 12.800971031188965 L12.66351318359375 12.800971031188965 L12.66351318359375 12.493058204650879 L12.345888137817383 12.493058204650879 L12.345888137817383 11.99427318572998 L13.3113374710083 11.99427318572998 L13.3113374710083 13.39426040649414 L11.22878646850586 13.39426040649414 L11.22878646850586 10.612961769104004 L13.311461448669434 10.612961769104004 L13.311461448669434 11.510801315307617 L12.663637161254883 11.510801315307617 L12.663637161254883 11.206250190734863 L11.87524127960205 11.206250190734863 L11.87524127960205 12.800971031188965 L11.875117301940918 12.800971031188965 M20.3551025390625 10.610595703125 L21.189067840576172 10.612836837768555 L21.7629337310791 11.492374420166016 L22.290605545043945 10.603872299194336 L22.94116973876953 10.603872299194336 L22.106578826904297 12.059266090393066 L22.106578826904297 13.396501541137695 L21.456016540527344 13.396501541137695 L21.456016540527344 12.059266090393066 L20.97478675842285 11.333374977111816 L20.97478675842285 13.396501541137695 L20.316253662109375 13.398120880126953 L19.520263671875 12.12700080871582 L19.520263671875 13.396501541137695 L18.869823455810547 13.396501541137695 L18.869823455810547 10.612961769104004 L19.55313491821289 10.612836837768555 L20.35833740234375 11.87984848022461 L20.3551025390625 10.610595703125 L20.3551025390625 10.610595703125 M15.60866641998291 13.386540412902832 L15.60866641998291 12.872440338134766 L15.838760375976562 12.872440338134766 C15.691091537475586 12.643840789794922 15.605552673339844 12.310900688171387 15.605552673339844 12.019298553466797 C15.605552673339844 11.71947956085205 15.696321487426758 11.440827369689941 15.8504638671875 11.208741188049316 L15.137895584106445 11.208741188049316 L15.137895584106445 13.3864164352417 L14.4859619140625 13.3864164352417 L14.4859619140625 11.208741188049316 L13.943472862243652 11.208741188049316 L13.943472862243652 10.605864524841309 L17.434850692749023 10.602005004882812 L17.44817352294922 10.605864524841309 C18.070720672607422 10.770964622497559 18.527671813964844 11.344705581665039 18.527671813964844 12.019298553466797 C18.520824432373047 12.384112358093262 18.384735107421875 12.695635795593262 18.293468475341797 12.872440338134766 L18.513851165771484 12.872440338134766 L18.513851165771484 13.386540412902832 L17.349933624267578 13.386540412902832 L17.349933624267578 12.868082046508789 L17.561227798461914 12.868082046508789 L17.815601348876953 12.4269437789917 L18.068979263305664 11.986428260803223 L17.815601348876953 11.546286582946777 L17.561227798461914 11.105149269104004 L16.546972274780273 11.105149269104004 L16.2930965423584 11.546286582946777 L16.039470672607422 11.986428260803223 L16.2930965423584 12.4269437789917 L16.546972274780273 12.868082046508789 L16.758512496948242 12.868082046508789 L16.758512496948242 13.386540412902832 L15.60866641998291 13.386540412902832 M8.430679321289062 10.603748321533203 L8.430679321289062 13.396501541137695 L7.21832799911499 13.396501541137695 L6.495175361633301 12.526925086975098 L6.495175361633301 13.396501541137695 L5.846728801727295 13.396501541137695 L5.846728801727295 10.603748321533203 L6.495175361633301 10.603748321533203 L6.495175361633301 11.633442878723145 L7.246840476989746 10.603748321533203 L8.430679321289062 10.603748321533203 L8.430679321289062 10.603748321533203 M7.780863285064697 11.128307342529297 L7.781485557556152 12.87156867980957 L7.112743854522705 12.062503814697266 L7.780863285064697 11.128307342529297" fill="black" fill-opacity="1.0" filling="0"/></svg>