<?xml version="1.0" encoding="iso-8859-1"?><svg height="200px" viewBox="0.0 0.0 24.0 24.0" width="200px" xmlns="http://www.w3.org/2000/svg"><path animation_id="0" d="M0.0 24.0 L24.0 24.0 L24.0 0.0 L0.0 0.0 L0.0 24.0" fill="black" fill-opacity="1.0" filling="0"/>
<path animation_id="1" d="M7.666065216064453 18.819149017333984 C6.103219032287598 17.781734466552734 5.411816120147705 16.440141677856445 5.60530424118042 14.7942476272583 L5.60530424118042 7.049368381500244 L18.329328536987305 7.049368381500244 L18.384611129760742 14.849655151367188 C18.412376403808594 15.3615140914917 18.343149185180664 15.887069702148438 18.177053451538086 16.42644691467285 C17.859054565429688 17.408205032348633 17.25057601928711 18.19659996032715 16.35161590576172 18.819149017333984 C13.6822509765625 19.980825424194336 12.243914604187012 20.948890686035156 12.036480903625488 21.723464965820312 L11.981199264526367 21.723464965820312 C11.773890495300293 21.004173278808594 10.335430145263672 20.036357879638672 7.666065216064453 18.819149017333984 L7.666065216064453 18.819149017333984 M16.517711639404297 19.234142303466797 C18.24652862548828 18.04469871520996 18.965574264526367 16.55107879638672 18.689037322998047 14.739089965820312 L18.689037322998047 6.606736183166504 L5.301126956939697 6.606736183166504 L5.301126956939697 14.711324691772461 C5.052107334136963 16.481727600097656 5.785221099853516 17.989166259765625 7.4863972663879395 19.23401641845703 C8.883272171020508 19.82855224609375 9.989542007446289 20.437278747558594 10.833344459533691 21.087345123291016 C11.400361061096191 21.54379653930664 11.787710189819336 21.917076110839844 11.9813232421875 22.23544692993164 L12.036605834960938 22.23544692993164 C12.244038581848145 21.889686584472656 12.617444038391113 21.502212524414062 13.184585571289062 21.073524475097656 C14.028139114379883 20.395816802978516 15.148478507995605 19.787338256835938 16.517711639404297 19.234142303466797 L16.517711639404297 19.234142303466797 M12.133349418640137 5.998132228851318 C12.241300582885742 5.8901824951171875 12.169955253601074 5.252817153930664 12.230093955993652 4.227853298187256 L12.35460376739502 2.111809730529785 C12.38124942779541 1.6598396301269531 11.744505882263184 1.6302061080932617 11.704538345336914 2.070223808288574 C11.682998657226562 2.308037757873535 11.712258338928223 3.010148048400879 11.801406860351562 4.186391353607178 L11.939737319946289 6.012077331542969 L12.036480903625488 6.095001220703125 L12.133349418640137 5.998132228851318 L12.133349418640137 5.998132228851318 M11.345078468322754 5.970491409301758 C11.387909889221191 6.0583953857421875 11.530723571777344 6.114673614501953 11.49722957611084 6.012077331542969 L11.026956558227539 4.5736165046691895 L10.43229866027832 2.429931640625 C10.318371772766113 2.019049644470215 9.470833778381348 2.1251325607299805 9.740771293640137 2.6788272857666016 L11.345078468322754 5.970491409301758 L11.345078468322754 5.970491409301758 M11.663201332092285 6.0397186279296875 L11.787710189819336 6.053414821624756 L11.372719764709473 2.2363195419311523 C11.325282096862793 1.7985429763793945 10.508125305175781 1.6986865997314453 10.708834648132324 2.429931640625 L11.289796829223633 4.545975685119629 L11.663201332092285 6.0397186279296875 M8.938554763793945 3.370354652404785 L11.123700141906738 6.053539276123047 C11.176243782043457 6.117910861968994 11.23052978515625 6.0419602394104 11.206748962402344 5.998256683349609 L9.53321361541748 2.9140262603759766 C9.169769287109375 2.244039535522461 8.553694725036621 2.8978404998779297 8.938554763793945 3.370354652404785 M10.51534652709961 6.0397186279296875 C10.667372703552246 6.053414821624756 10.764241218566895 6.025773525238037 10.777937889099121 5.956670761108398 L9.920438766479492 4.877918243408203 L8.744817733764648 3.4118165969848633 C8.42544937133789 3.0135087966918945 7.77662992477417 3.4073333740234375 8.080931663513184 3.8128623962402344 C8.189130783081055 3.9571685791015625 8.522815704345703 4.281765460968018 9.104401588439941 4.794869899749756 L10.51534652709961 6.0397186279296875 L10.51534652709961 6.0397186279296875 M14.318620681762695 2.6788272857666016 C14.5889310836792 2.1194047927856445 13.712382316589355 2.0234079360961914 13.613272666931152 2.429931640625 C13.513666152954102 2.8385725021362305 13.35254955291748 3.564713478088379 13.032434463500977 4.5736165046691895 L12.575982093811035 6.012077331542969 C12.546473503112793 6.105210781097412 12.684306144714355 6.061134338378906 12.728133201599121 5.970491409301758 L14.318620681762695 2.6788272857666016 M12.382369041442871 6.0397186279296875 C12.511237144470215 5.541679859161377 12.64035415649414 5.04388952255249 12.76947021484375 4.545975685119629 L13.364253044128418 2.429931640625 C13.364253044128418 1.869638442993164 12.935690879821777 1.710017204284668 12.672725677490234 2.2363195419311523 L12.257610321044922 6.053539276123047 L12.382369041442871 6.0397186279296875 L12.382369041442871 6.0397186279296875 M15.134657859802246 3.370354652404785 C15.522256851196289 2.8974666595458984 14.935690879821777 2.184523582458496 14.539999008178711 2.9139013290405273 L12.86658763885498 5.998132228851318 C12.838573455810547 6.049679756164551 12.874307632446289 6.1283698081970215 12.935690879821777 6.053414821624756 L15.134657859802246 3.370354652404785 L15.134657859802246 3.370354652404785 M13.557866096496582 6.0397186279296875 L14.954865455627441 4.794745445251465 C15.533960342407227 4.278777599334717 15.879724502563477 3.9637680053710938 15.978336334228516 3.812737464904785 C16.256614685058594 3.387038230895996 15.609413146972656 3.017369270324707 15.300753593444824 3.411691665649414 L14.1527738571167 4.877793788909912 L13.281454086303711 5.956546306610107 C13.30909538269043 6.025773525238037 13.405839920043945 6.053539276123047 13.557866096496582 6.0397186279296875" fill="black" fill-opacity="1.0" filling="0"/>
<path animation_id="2" d="M11.99514389038086 20.796987533569336 C12.451472282409668 20.285127639770508 13.66843032836914 19.565959930419922 15.674034118652344 18.6669979095459 C16.946523666381836 18.086284637451172 17.665691375732422 17.200897216796875 17.831539154052734 16.025524139404297 L17.845359802246094 7.478055477142334 L6.144804954528809 7.478055477142334 L6.158625602722168 16.025524139404297 C6.324597358703613 17.20077133178711 7.043765068054199 18.07234001159668 8.316254615783691 18.6669979095459 C10.321484565734863 19.566083908081055 11.538691520690918 20.285127639770508 11.99514389038086 20.796987533569336 M10.87480640411377 9.193052291870117 L10.459939956665039 9.151590347290039 C10.224740982055664 9.013259887695312 10.058893203735352 8.944032669067383 9.948204040527344 8.944032669067383 L9.782232284545898 8.902570724487305 L9.58862018585205 8.902570724487305 L9.478055953979492 8.847289085388184 L9.353546142578125 8.819647789001465 L9.381062507629395 8.750544548034668 L9.381062507629395 8.695137977600098 L8.952251434326172 8.625910758972168 L8.509742736816406 8.695137977600098 C7.984187602996826 8.778060913085938 7.624603271484375 8.999439239501953 7.417045593261719 9.345203399658203 C7.181971073150635 9.677021980285645 6.87754487991333 9.8845796585083 6.490443706512451 9.953682899475098 L6.490443706512451 7.934508323669434 L17.499469757080078 7.934508323669434 L17.499469757080078 9.953682899475098 C17.11237144470215 9.870759010314941 16.807819366455078 9.663326263427734 16.57286834716797 9.345203399658203 C16.365436553955078 8.999439239501953 16.00585174560547 8.778060913085938 15.494117736816406 8.695137977600098 L15.051485061645508 8.625910758972168 L14.636618614196777 8.695137977600098 L14.636618614196777 8.750544548034668 L14.650439262390137 8.819647789001465 L14.51210880279541 8.847289085388184 L14.415489196777344 8.902570724487305 L14.221752166748047 8.902570724487305 L14.04183578491211 8.944032669067383 C13.945216178894043 8.944032669067383 13.792940139770508 9.013259887695312 13.571810722351074 9.151590347290039 L13.115358352661133 9.193052291870117 C12.866463661193848 8.708958625793457 12.645085334777832 8.418477058410645 12.437651634216309 8.349374771118164 C12.341032028198242 8.501524925231934 12.313141822814941 8.736599922180176 12.341032028198242 9.05472183227539 L12.341032028198242 9.787836074829102 C12.520699501037598 10.092013359069824 12.672974586486816 10.257984161376953 12.7695951461792 10.271804809570312 C12.88040828704834 10.119653701782227 12.88040828704834 9.953682899475098 12.7695951461792 9.801531791687012 L12.47923755645752 9.414306640625 L12.534520149230957 9.359024047851562 L12.47923755645752 9.262155532836914 C12.520699501037598 9.248334884643555 12.548465728759766 9.193052291870117 12.548465728759766 9.096308708190918 C12.548465728759766 8.999439239501953 12.576106071472168 8.957853317260742 12.645085334777832 8.97179889678955 L12.89410400390625 9.497354507446289 L12.977152824401855 9.787836074829102 L13.087717056274414 9.99514389038086 C13.046380043029785 10.147294998168945 13.101661682128906 10.257984161376953 13.225923538208008 10.341032028198242 L13.405839920043945 10.631389617919922 C13.543920516967773 10.949511528015137 13.779244422912598 11.23999309539795 14.111186981201172 11.516529083251953 L14.99620246887207 12.180415153503418 L15.037789344787598 12.387847900390625 L15.093070983886719 12.54012393951416 C15.106891632080078 12.830729484558105 15.245222091674805 13.0933198928833 15.521634101867676 13.314698219299316 L16.268692016601562 13.784971237182617 L16.35161590576172 13.978584289550781 L16.42084312438965 14.213783264160156 C16.489944458007812 14.642470359802246 16.476125717163086 14.93282699584961 16.365436553955078 15.098922729492188 L16.379257202148438 15.292535781860352 L16.448484420776367 15.430866241455078 C16.531532287597656 15.403100967407227 16.57286834716797 15.306356430053711 16.57286834716797 15.154329299926758 C16.835710525512695 15.001805305480957 16.891117095947266 14.822137832641602 16.72514533996582 14.600883483886719 C16.517711639404297 14.310527801513672 16.448484420776367 14.061508178710938 16.517711639404297 13.881839752197266 C16.517711639404297 13.702173233032227 16.434663772583008 13.56371784210205 16.268815994262695 13.466974258422852 L15.81236457824707 13.121211051940918 C15.784598350524902 13.09344482421875 15.77077865600586 13.038287162780762 15.784598350524902 12.968935012817383 L15.729440689086914 12.830854415893555 C15.687854766845703 12.568014144897461 15.7569580078125 12.318994522094727 15.923053741455078 12.097616195678711 L15.438959121704102 11.516654014587402 C15.162174224853516 11.309220314025879 14.98250675201416 11.129552841186523 14.885763168334961 10.977277755737305 L14.636743545532227 10.81130599975586 C14.51223373413086 10.714561462402344 14.429309844970703 10.617692947387695 14.415613174438477 10.493183135986328 L14.19435977935791 10.133723258972168 C14.069849967956543 9.98144817352295 14.014443397521973 9.829421997070312 14.000747680664062 9.704912185668945 L14.249517440795898 9.649629592895508 L14.650688171386719 9.5389404296875 C15.02421760559082 9.414430618286133 15.286684036254883 9.262279510498047 15.43908405303955 9.05484676361084 C15.729564666748047 8.999564170837402 16.019922256469727 9.110128402709961 16.282638549804688 9.386789321899414 C16.65591812133789 9.746374130249023 16.904937744140625 9.939986228942871 17.001680374145508 9.98144817352295 C17.0155029296875 10.022910118103027 17.181598663330078 10.064496040344238 17.499595642089844 10.119778633117676 L17.499595642089844 15.873373985290527 C17.430492401123047 16.868953704833984 16.780427932739258 17.6573486328125 15.521759033203125 18.224491119384766 C13.5855073928833 19.178733825683594 12.41001033782959 19.828800201416016 11.99514389038086 20.202329635620117 C11.58015251159668 19.828800201416016 10.404657363891602 19.178733825683594 8.468280792236328 18.224491119384766 C7.237377643585205 17.671295166015625 6.587437152862549 16.896718978881836 6.4905686378479 15.88731861114502 L6.4905686378479 10.119653701782227 C6.808690547943115 10.064372062683105 6.9746623039245605 10.022785186767578 6.98848295211792 9.9813232421875 L7.721471786499023 9.386665344238281 C7.984312057495117 9.110004425048828 8.260848045349121 8.999439239501953 8.551329612731934 9.05472183227539 C8.703479766845703 9.262155532836914 8.980016708374023 9.414306640625 9.353546142578125 9.538816452026367 L9.740646362304688 9.649505615234375 L10.017183303833008 9.704787254333496 C10.003362655639648 9.829297065734863 9.934259414672852 9.9813232421875 9.823570251464844 10.133599281311035 L9.588495254516602 10.493059158325195 C9.574674606323242 10.617568969726562 9.505447387695312 10.714312553405762 9.380937576293945 10.81118106842041 L9.104401588439941 10.977152824401855 C9.007658004760742 11.129303932189941 8.827865600585938 11.309096336364746 8.551204681396484 11.516529083251953 L8.080931663513184 12.097491264343262 C8.260723114013672 12.318745613098145 8.316130638122559 12.567765235900879 8.260723114013672 12.830729484558105 L8.21926212310791 12.968810081481934 L8.177800178527832 13.121086120605469 L7.735167980194092 13.466849327087402 C7.555376052856445 13.563592910766602 7.472452163696289 13.702048301696777 7.472452163696289 13.881715774536133 C7.541555404663086 14.061383247375488 7.486272811889648 14.310402870178223 7.278839588165283 14.600759506225586 C7.112743854522705 14.822013854980469 7.154329776763916 15.001805305480957 7.417045593261719 15.154205322265625 C7.417045593261719 15.306232452392578 7.458507061004639 15.402976036071777 7.541555404663086 15.430741310119629 L7.624603271484375 15.292411804199219 L7.624603271484375 15.098798751831055 C7.513914108276367 14.932703018188477 7.500093460083008 14.642345428466797 7.583016872406006 14.213658332824707 L7.666065216064453 13.978459358215332 L7.735167980194092 13.784847259521484 L8.495798110961914 13.314573287963867 C8.758638381958008 13.0933198928833 8.897092819213867 12.830605506896973 8.897092819213867 12.539999008178711 L8.966196060180664 12.387722969055176 L9.007781982421875 12.180290222167969 L9.878976821899414 11.51640510559082 C10.224740982055664 11.2398681640625 10.459939956665039 10.949387550354004 10.584449768066406 10.631264686584473 C10.570504188537598 10.534521102905273 10.639731407165527 10.437652587890625 10.778061866760254 10.34090805053711 C10.902571678161621 10.25786018371582 10.9440336227417 10.147171020507812 10.916267395019531 9.995019912719727 L11.026956558227539 9.787711143493652 L11.096308708190918 9.49722957611084 L11.358899116516113 8.971673965454102 C11.428252220153809 8.95772933959961 11.455642700195312 8.99931526184082 11.455642700195312 9.096183776855469 L11.5110502243042 9.262031555175781 L11.455642700195312 9.35890007019043 L11.5110502243042 9.41418170928955 L11.248334884643555 9.801406860351562 C11.123700141906738 9.953557968139648 11.123700141906738 10.119529724121094 11.220568656921387 10.27168083190918 C11.317438125610352 10.25786018371582 11.41418170928955 10.188756942749023 11.49722957611084 10.091888427734375 L11.649380683898926 9.787711143493652 L11.663201332092285 9.054597854614258 C11.677021026611328 8.736474990844727 11.649380683898926 8.5014009475708 11.56633186340332 8.349249839782715 C11.358899116516113 8.418477058410645 11.123700141906738 8.708958625793457 10.87480640411377 9.193052291870117 L10.87480640411377 9.193052291870117" fill="black" fill-opacity="1.0" filling="0"/>
<path animation_id="3" d="M14.360082626342773 16.41262435913086 C14.56764030456543 16.440141677856445 14.761253356933594 16.633880615234375 14.941044807434082 16.979766845703125 C15.079126358032227 17.325281143188477 15.632572174072266 17.435970306396484 16.600759506225586 17.297889709472656 C16.323848724365234 16.979766845703125 14.788769721984863 14.614580154418945 11.99514389038086 10.174936294555664 L8.053415298461914 17.297889709472656 L9.436469078063965 17.297889709472656 L12.050426483154297 12.387722969055176 L13.848471641540527 15.181597709655762 L13.765548706054688 15.29228687286377 L11.441947937011719 15.27846622467041 L10.87480640411377 16.41262435913086 L14.360082626342773 16.41262435913086 L14.360082626342773 16.41262435913086" fill="black" fill-opacity="1.0" filling="0"/></svg>