<?xml version="1.0" encoding="iso-8859-1"?><svg height="200px" viewBox="0.0 0.0 24.0 24.0" width="200px" xmlns="http://www.w3.org/2000/svg"><path animation_id="0" d="M0.0 0.0 L24.0 0.0 L24.0 24.0 L0.0 24.0 L0.0 0.0" fill="black" fill-opacity="1.0" filling="0"/>
<path animation_id="1" d="M2.97316837310791 10.298574447631836 L0.3528604507446289 11.363008499145508 L3.405590057373047 11.363008499145508 L2.97316837310791 10.298574447631836 M3.513914108276367 11.629459381103516 L0.40079689025878906 11.629459381103516 L0.5741147994995117 12.05590534210205 L3.6871070861816406 12.05590534210205 L3.513914108276367 11.629459381103516 M3.795431137084961 12.32260513305664 L0.6824378967285156 12.32260513305664 L0.8556308746337891 12.748926162719727 L3.4988479614257812 12.748926162719727 C3.587125778198242 12.748926162719727 3.6312026977539062 12.815539360046387 3.6312026977539062 12.88215160369873 C3.6312026977539062 12.94876480102539 3.587125778198242 13.015377044677734 3.4988479614257812 13.015377044677734 L0.963953971862793 13.015377044677734 L1.137272834777832 13.441947937011719 L3.112494468688965 13.441947937011719 C3.200772285461426 13.441947937011719 3.2448482513427734 13.508560180664062 3.2448482513427734 13.575172424316406 C3.2448482513427734 13.641661643981934 3.200772285461426 13.708273887634277 3.112494468688965 13.708273887634277 L1.2454710006713867 13.708273887634277 L1.418787956237793 14.134844779968262 L2.726016044616699 14.134844779968262 C2.8142948150634766 14.134844779968262 2.858494758605957 14.201457023620605 2.858494758605957 14.267945289611816 C2.858494758605957 14.33455753326416 2.8142948150634766 14.40117073059082 2.726016044616699 14.40117073059082 L1.5271120071411133 14.40117073059082 L1.7004289627075195 14.827740669250488 L2.339662551879883 14.827740669250488 C2.4279403686523438 14.827740669250488 2.4720163345336914 14.894353866577148 2.4720163345336914 14.960966110229492 C2.4720163345336914 15.027579307556152 2.4279403686523438 15.094191551208496 2.339662551879883 15.094191551208496 L1.808629035949707 15.094191551208496 L2.041461944580078 15.66718578338623 L6.324721813201904 13.927038192749023 L5.776007175445557 12.576231002807617 L4.164726734161377 13.230903625488281 L3.795431137084961 12.32260513305664 L3.795431137084961 12.32260513305664" fill="black" fill-opacity="1.0" filling="0"/>
<path animation_id="2" d="M3.7498598098754883 13.853078842163086 L7.9813232421875 12.133973121643066 L4.062503814697266 12.133973121643066 C3.974350929260254 12.133973121643066 3.930150032043457 12.067359924316406 3.930150032043457 12.000747680664062 C3.930150032043457 11.934134483337402 3.974350929260254 11.867522239685059 4.062503814697266 11.867522239685059 L7.933387279510498 11.867522239685059 L7.760069847106934 11.441076278686523 L4.4491071701049805 11.441076278686523 C4.3608293533325195 11.441076278686523 4.316628456115723 11.374463081359863 4.316628456115723 11.30785083770752 C4.316628456115723 11.24123764038086 4.3608293533325195 11.174625396728516 4.4491071701049805 11.174625396728516 L7.651995658874512 11.174625396728516 L7.478677749633789 10.748178482055664 L4.835460186004639 10.748178482055664 C4.747182846069336 10.748178482055664 4.70310640335083 10.68156623840332 4.70310640335083 10.614953994750977 C4.70310640335083 10.548341751098633 4.747182846069336 10.481728553771973 4.835460186004639 10.481728553771973 L7.370354175567627 10.481728553771973 L7.197037220001221 10.055282592773438 L5.221938610076904 10.055282592773438 C5.133785724639893 10.055282592773438 5.089584827423096 9.988669395446777 5.089584827423096 9.922057151794434 C5.089584827423096 9.855443954467773 5.133785724639893 9.78883171081543 5.221938610076904 9.78883171081543 L7.088962554931641 9.78883171081543 L6.915644645690918 9.362385749816895 L5.60841703414917 9.362385749816895 C5.520139694213867 9.362385749816895 5.47593879699707 9.295772552490234 5.47593879699707 9.22916030883789 C5.47593879699707 9.16254711151123 5.520139694213867 9.095934867858887 5.60841703414917 9.095934867858887 L6.807321548461914 9.095934867858887 L6.634128570556641 8.669488906860352 L5.994894981384277 8.669488906860352 C5.906617641448975 8.669488906860352 5.862541198730469 8.602876663208008 5.862541198730469 8.536263465881348 C5.862541198730469 8.469651222229004 5.906617641448975 8.403038024902344 5.994894981384277 8.403038024902344 L6.525928974151611 8.403038024902344 L6.29309606552124 7.829919815063477 L2.009836196899414 9.569694519042969 L3.7498598098754883 13.853078842163086 L3.7498598098754883 13.853078842163086" fill="black" fill-opacity="1.0" filling="0"/>
<path animation_id="3" d="M9.447425842285156 13.642781257629395 C9.447425842285156 13.769283294677734 9.427254676818848 13.893046379089355 9.386914253234863 14.013572692871094 C9.34595012664795 14.134844779968262 9.288427352905273 14.23656940460205 9.213098526000977 14.318869590759277 C9.109880447387695 14.429807662963867 8.994832992553711 14.51397705078125 8.867833137512207 14.571002006530762 C8.740833282470703 14.628026962280273 8.58307933807373 14.656539916992188 8.394447326660156 14.656539916992188 L7.9792070388793945 14.656539916992188 L7.9792070388793945 15.57753849029541 L7.311959743499756 15.817468643188477 L7.311959743499756 13.029945373535156 L7.95517635345459 12.750295639038086 L8.409886360168457 12.750295639038086 C8.574736595153809 12.750295639038086 8.713067054748535 12.765859603881836 8.826247215270996 12.796239852905273 A0.9350681900978088 0.9350681900978088 0.0 0 1 9.12581729888916 12.93631362915039 A0.727385938167572 0.727385938167572 0.0 0 1 9.364875793457031 13.222809791564941 C9.420158386230469 13.339476585388184 9.447425842285156 13.479549407958984 9.447425842285156 13.642781257629395 L9.447425842285156 13.642781257629395 M8.757516860961914 13.65971565246582 C8.757516860961914 13.579904556274414 8.737969398498535 13.511299133300781 8.698748588562012 13.453527450561523 C8.659029960632324 13.395878791809082 8.613335609436035 13.35566234588623 8.561165809631348 13.333001136779785 A0.5739899277687073 0.5739899277687073 0.0 0 0 8.35771656036377 13.282450675964355 A6.786652565002441 6.786652565002441 0.0 0 0 8.093755722045898 13.277968406677246 L7.9792070388793945 13.277968406677246 L7.9792070388793945 14.12513256072998 L8.170205116271973 14.12513256072998 C8.28350830078125 14.12513256072998 8.377264022827148 14.117413520812988 8.450849533081055 14.102472305297852 C8.524310111999512 14.086908340454102 8.586067199707031 14.056402206420898 8.635871887207031 14.01108169555664 C8.67857837677002 13.970242500305176 8.710079193115234 13.922306060791016 8.729004859924316 13.8659029006958 C8.748054504394531 13.809375762939453 8.757516860961914 13.740646362304688 8.757516860961914 13.65971565246582 L8.757516860961914 13.65971565246582 M11.011393547058105 14.096495628356934 L10.955612182617188 14.096495628356934 C10.928967475891113 14.086161613464355 10.886136054992676 14.078316688537598 10.82686996459961 14.073834419250488 A1.7083982229232788 1.7083982229232788 0.0 0 0 10.679076194763184 14.06611442565918 C10.590176582336426 14.06611442565918 10.511237144470215 14.072589874267578 10.44300651550293 14.084916114807129 C10.374773979187012 14.097864151000977 10.301189422607422 14.119155883789062 10.222373962402344 14.149785041809082 L10.222373962402344 15.57766342163086 L9.596588134765625 15.57766342163086 L9.596588134765625 13.445184707641602 L10.222373962402344 13.445184707641602 L10.222373962402344 13.758326530456543 C10.359957695007324 13.629334449768066 10.479860305786133 13.543672561645508 10.581833839416504 13.500965118408203 C10.683932304382324 13.458881378173828 10.777563095092773 13.437464714050293 10.86359977722168 13.437464714050293 C10.885513305664062 13.437464714050293 10.910415649414062 13.438212394714355 10.938304901123047 13.439457893371582 C10.966195106506348 13.440826416015625 10.990474700927734 13.442693710327148 11.01126766204834 13.44530963897705 L11.01126766204834 14.096495628356934 L11.011393547058105 14.096495628356934 M13.177862167358398 14.51210880279541 C13.177862167358398 14.862728118896484 13.084728240966797 15.139513969421387 12.897466659545898 15.341094970703125 C12.710453033447266 15.543298721313477 12.447861671447754 15.644400596618652 12.109569549560547 15.644400596618652 C11.770902633666992 15.644400596618652 11.508187294006348 15.543298721313477 11.321297645568848 15.341094970703125 C11.134532928466797 15.139513969421387 11.040777206420898 14.862728118896484 11.040777206420898 14.51210880279541 C11.040777206420898 14.159497261047363 11.13515567779541 13.881964683532715 11.323165893554688 13.680383682250977 C11.511175155639648 13.479549407958984 11.773392677307129 13.37832260131836 12.109569549560547 13.37832260131836 C12.44997787475586 13.37832260131836 12.713440895080566 13.480047225952148 12.899209022521973 13.6822509765625 C13.08547592163086 13.885326385498047 13.177862167358398 14.161364555358887 13.177862167358398 14.51210880279541 L13.177862167358398 14.51210880279541 M12.407894134521484 15.030567169189453 C12.448982238769531 14.976156234741211 12.479113578796387 14.910663604736328 12.499284744262695 14.83421516418457 C12.519454956054688 14.757766723632812 12.530162811279297 14.651434898376465 12.530162811279297 14.515968322753906 C12.530162811279297 14.390836715698242 12.519454956054688 14.285750389099121 12.49853801727295 14.200959205627441 C12.477869033813477 14.11591911315918 12.448982238769531 14.048559188842773 12.411504745483398 13.997385025024414 C12.374774932861328 13.945589065551758 12.330324172973633 13.909232139587402 12.278030395507812 13.8878173828125 A0.42906057834625244 0.42906057834625244 0.0 0 0 12.109444618225098 13.855443954467773 C12.048933029174805 13.855443954467773 11.99564266204834 13.863786697387695 11.948702812194824 13.881964683532715 C11.901264190673828 13.899520874023438 11.856813430786133 13.93513011932373 11.814107894897461 13.988296508789062 C11.775508880615234 14.037601470947266 11.745253562927246 14.105585098266602 11.72271728515625 14.19124698638916 C11.700181007385254 14.2774076461792 11.688974380493164 14.38573169708252 11.688974380493164 14.515968322753906 C11.688974380493164 14.632635116577148 11.698437690734863 14.733736038208008 11.717985153198242 14.819398880004883 C11.73815631866455 14.904314994812012 11.766668319702148 14.972919464111328 11.805143356323242 15.024839401245117 C11.841873168945312 15.074644088745117 11.88644790649414 15.11037826538086 11.937994003295898 15.133039474487305 C11.989665985107422 15.15644645690918 12.048434257507324 15.167279243469238 12.114299774169922 15.167279243469238 C12.1712007522583 15.167279243469238 12.225237846374512 15.15694522857666 12.276784896850586 15.136152267456055 A0.2978273034095764 0.2978273034095764 0.0 0 0 12.407894134521484 15.030567169189453 M15.26925277709961 13.445060729980469 L14.516342163085938 15.57753849029541 L13.807757377624512 15.57753849029541 L13.060200691223145 13.445060729980469 L13.722094535827637 13.445060729980469 L14.174188613891602 14.911163330078125 L14.620930671691895 13.445060729980469 L15.26925277709961 13.445060729980469 L15.26925277709961 13.445060729980469 M16.43790054321289 15.021477699279785 L16.43790054321289 14.576977729797363 C16.35373306274414 14.584697723388672 16.261844635009766 14.5951566696167 16.16335678100586 14.608105659484863 C16.064868927001953 14.62167739868164 15.990163803100586 14.63724136352539 15.939114570617676 14.654672622680664 C15.876859664916992 14.676088333129883 15.82867431640625 14.707962036132812 15.79617691040039 14.748678207397461 C15.763057708740234 14.790264129638672 15.746374130249023 14.844051361083984 15.746374130249023 14.91141128540039 C15.746374130249023 14.955488204956055 15.749984741210938 14.991844177246094 15.757081985473633 15.019610404968262 C15.764179229736328 15.047625541687012 15.78136157989502 15.074146270751953 15.809375762939453 15.099421501159668 C15.836145401000977 15.124696731567383 15.867522239685059 15.143497467041016 15.904998779296875 15.15520191192627 C15.941728591918945 15.16752815246582 15.999876022338867 15.173379898071289 16.078689575195312 15.173379898071289 C16.140945434570312 15.173379898071289 16.204444885253906 15.159185409545898 16.269065856933594 15.131917953491211 A0.5914213061332703 0.5914213061332703 0.0 0 0 16.43790054321289 15.021477699279785 M16.43790054321289 15.351428985595703 C16.404781341552734 15.379318237304688 16.36269760131836 15.41293716430664 16.31289291381836 15.452530860900879 C16.263090133666992 15.491377830505371 16.216150283813477 15.522504806518555 16.172321319580078 15.545166015625 A0.8261221647262573 0.8261221647262573 0.0 0 1 15.981199264526367 15.612525939941406 A0.9894789457321167 0.9894789457321167 0.0 0 1 15.764054298400879 15.634688377380371 C15.578535079956055 15.634688377380371 15.423147201538086 15.57181167602539 15.297889709472656 15.446678161621094 C15.172882080078125 15.320799827575684 15.110627174377441 15.160804748535156 15.110627174377441 14.966444969177246 C15.110627174377441 14.810184478759766 15.142501831054688 14.683185577392578 15.206001281738281 14.584697723388672 C15.270248413085938 14.48546314239502 15.36014461517334 14.407644271850586 15.477184295654297 14.35062026977539 C15.592729568481445 14.294341087341309 15.736910820007324 14.253501892089844 15.908360481262207 14.229347229003906 A6.78789758682251 6.78789758682251 0.0 0 1 16.441635131835938 14.176305770874023 L16.441635131835938 14.164478302001953 C16.441635131835938 14.047189712524414 16.397809982299805 13.965511322021484 16.309406280517578 13.920811653137207 C16.22162628173828 13.876112937927246 16.09176254272461 13.853452682495117 15.920313835144043 13.853452682495117 C15.817220687866211 13.853452682495117 15.707277297973633 13.873498916625977 15.590612411499023 13.913091659545898 C15.473199844360352 13.953309059143066 15.389528274536133 13.983689308166504 15.338479995727539 14.005105972290039 L15.281081199645996 14.005105972290039 L15.281081199645996 13.490382194519043 C15.346697807312012 13.471580505371094 15.454771995544434 13.448920249938965 15.603561401367188 13.423022270202637 A2.600510597229004 2.600510597229004 0.0 0 1 16.051048278808594 13.384175300598145 C16.40677261352539 13.384175300598145 16.663637161254883 13.443815231323242 16.821516036987305 13.56371784210205 C16.980016708374023 13.683621406555176 17.05883026123047 13.871007919311523 17.05883026123047 14.126875877380371 L17.05883026123047 15.577414512634277 L16.438274383544922 15.577414512634277 L16.438274383544922 15.351428985595703 L16.43790054321289 15.351428985595703 M18.723899841308594 14.096495628356934 L18.668245315551758 14.096495628356934 C18.6414737701416 14.086161613464355 18.598644256591797 14.078316688537598 18.539377212524414 14.073834419250488 A1.7010520696640015 1.7010520696640015 0.0 0 0 18.391708374023438 14.06611442565918 C18.302684783935547 14.06611442565918 18.22386932373047 14.072589874267578 18.155637741088867 14.084916114807129 C18.08753204345703 14.097864151000977 18.01382064819336 14.119155883789062 17.935131072998047 14.149785041809082 L17.935131072998047 15.57766342163086 L17.309219360351562 15.57766342163086 L17.309219360351562 13.445184707641602 L17.935131072998047 13.445184707641602 L17.935131072998047 13.758326530456543 C18.07271385192871 13.629334449768066 18.192615509033203 13.543672561645508 18.29458999633789 13.500965118408203 C18.39668846130371 13.458881378173828 18.490320205688477 13.437464714050293 18.576480865478516 13.437464714050293 C18.5983943939209 13.437464714050293 18.623172760009766 13.438212394714355 18.651185989379883 13.439457893371582 C18.679201126098633 13.440826416015625 18.703479766845703 13.442693710327148 18.72414779663086 13.44530963897705 L18.72414779663086 14.096495628356934 L18.723899841308594 14.096495628356934 L18.723899841308594 14.096495628356934 M20.722156524658203 15.57753849029541 L20.09699249267578 15.57753849029541 L20.09699249267578 15.3552885055542 C19.989044189453125 15.451784133911133 19.888065338134766 15.522504806518555 19.794435501098633 15.567826271057129 C19.7005558013916 15.613895416259766 19.592105865478516 15.636680603027344 19.46933937072754 15.636680603027344 C19.232025146484375 15.636680603027344 19.04152488708496 15.536823272705078 18.899333953857422 15.336488723754883 C18.756771087646484 15.136276245117188 18.68579864501953 14.866588592529297 18.68579864501953 14.527547836303711 C18.68579864501953 14.346759796142578 18.709333419799805 14.186017990112305 18.757518768310547 14.04606819152832 C18.805702209472656 13.90599536895752 18.871318817138672 13.786092758178711 18.95499038696289 13.686235427856445 A0.8235074281692505 0.8235074281692505 0.0 0 1 19.241485595703125 13.465230941772461 C19.354293823242188 13.412812232971191 19.466476440429688 13.386167526245117 19.57903289794922 13.386167526245117 C19.695947647094727 13.386167526245117 19.79132080078125 13.399739265441895 19.866275787353516 13.427005767822266 C19.940982818603516 13.45427417755127 20.01805305480957 13.488513946533203 20.097118377685547 13.530722618103027 L20.097118377685547 12.842432975769043 L20.72228240966797 12.622549057006836 L20.72228240966797 15.57753849029541 L20.722156524658203 15.57753849029541 L20.722156524658203 15.57753849029541 M20.09687042236328 14.989106178283691 L20.09687042236328 13.942975044250488 A0.5820831060409546 0.5820831060409546 0.0 0 0 19.957294464111328 13.898898124694824 A0.7243976593017578 0.7243976593017578 0.0 0 0 19.824068069458008 13.88594913482666 C19.65896987915039 13.88594913482666 19.535703659057617 13.941729545593262 19.453901290893555 14.053913116455078 C19.371475219726562 14.165971755981445 19.330387115478516 14.321484565734863 19.330387115478516 14.519952774047852 C19.330387115478516 14.728631019592285 19.36301040649414 14.880284309387207 19.42962074279785 14.9749116897583 C19.4952392578125 15.068916320800781 19.6015682220459 15.116230010986328 19.747495651245117 15.116230010986328 C19.803895950317383 15.116230010986328 19.864410400390625 15.104525566101074 19.927907943725586 15.081242561340332 A0.6270310282707214 0.6270310282707214 0.0 0 0 20.09687042236328 14.989106178283691 M21.648883819580078 15.57753849029541 L21.023221969604492 15.57753849029541 L21.023221969604492 13.445060729980469 L21.648883819580078 13.445060729980469 L21.648883819580078 15.57753849029541 M21.666189193725586 13.141132354736328 L21.00591468811035 13.141132354736328 L21.00591468811035 12.622549057006836 L21.666189193725586 12.622549057006836 L21.666189193725586 13.141132354736328 M23.647140502929688 14.901575088500977 C23.647140502929688 15.122082710266113 23.55687141418457 15.299633026123047 23.375957489013672 15.43435287475586 C23.195541381835938 15.569196701049805 22.948143005371094 15.636680603027344 22.63375473022461 15.636680603027344 C22.460063934326172 15.636680603027344 22.302806854248047 15.618502616882324 22.161739349365234 15.583390235900879 C22.019920349121094 15.547780990600586 21.9066162109375 15.508809089660645 21.820581436157227 15.465479850769043 L21.820581436157227 14.9034423828125 L21.87822914123535 14.9034423828125 C21.90960693359375 14.927473068237305 21.945838928222656 14.953993797302246 21.986677169799805 14.98263168334961 C22.027767181396484 15.010520935058594 22.086410522460938 15.041648864746094 22.161739349365234 15.074644088745117 C22.226482391357422 15.103778839111328 22.299819946289062 15.12843132019043 22.382244110107422 15.149225234985352 A1.042893648147583 1.042893648147583 0.0 0 0 22.646331787109375 15.180974960327148 C22.76909637451172 15.180974960327148 22.85986328125 15.166033744812012 22.919132232666016 15.136276245117188 C22.97777557373047 15.106518745422363 23.007408142089844 15.0624418258667 23.007408142089844 15.004046440124512 C23.007408142089844 14.952125549316406 22.990102767944336 14.914525032043457 22.955114364624023 14.891241073608398 C22.920875549316406 14.867834091186523 22.854385375976562 14.845296859741211 22.757144927978516 14.823881149291992 A2.432920455932617 2.432920455932617 0.0 0 0 22.569135665893555 14.786901473999023 A1.9312705993652344 1.9312705993652344 0.0 0 1 22.352487564086914 14.738218307495117 C22.175186157226562 14.68779182434082 22.043455123901367 14.608604431152344 21.95804214477539 14.501774787902832 C21.87200355529785 14.394820213317871 21.829421997070312 14.261844635009766 21.829421997070312 14.102472305297852 C21.829421997070312 13.8970308303833 21.918445587158203 13.726452827453613 22.09624671936035 13.590363502502441 C22.27379608154297 13.45427417755127 22.516963958740234 13.386167526245117 22.82525062561035 13.386167526245117 C22.971176147460938 13.386167526245117 23.111248016357422 13.402353286743164 23.24472427368164 13.434850692749023 C23.37869644165039 13.467223167419434 23.483036041259766 13.501587867736816 23.558490753173828 13.538567543029785 L23.558490753173828 14.077818870544434 L23.504451751708984 14.077818870544434 A1.2285375595092773 1.2285375595092773 0.0 0 0 23.187824249267578 13.907364845275879 A1.0457574129104614 1.0457574129104614 0.0 0 0 22.82724380493164 13.841997146606445 C22.72626495361328 13.841997146606445 22.641475677490234 13.857561111450195 22.572120666503906 13.887941360473633 C22.50326919555664 13.917698860168457 22.468778610229492 13.961153030395508 22.468778610229492 14.01693344116211 C22.468778610229492 14.067484855651855 22.484342575073242 14.105709075927734 22.51572036743164 14.132976531982422 C22.547096252441406 14.159622192382812 22.620805740356445 14.186141967773438 22.73622703552246 14.212787628173828 C22.800472259521484 14.226359367370605 22.86845588684082 14.240055084228516 22.94216537475586 14.253625869750977 C23.015626907348633 14.266575813293457 23.089834213256836 14.283384323120117 23.163917541503906 14.303430557250977 C23.328269958496094 14.35012149810791 23.44991683959961 14.424079895019531 23.528730392456055 14.524435043334961 C23.60791778564453 14.625411987304688 23.647140502929688 14.751291275024414 23.647140502929688 14.901575088500977 L23.647140502929688 14.901575088500977" fill="black" fill-opacity="1.0" filling="0"/></svg>