<?xml version="1.0" encoding="iso-8859-1"?><svg height="200px" viewBox="0.0 0.0 24.0 24.0" width="200px" xmlns="http://www.w3.org/2000/svg"><path animation_id="0" d="M0.0 0.0 L24.0 0.0 L24.0 24.0 L0.0 24.0 L0.0 0.0" fill="black" fill-opacity="1.0" filling="0"/>
<path animation_id="1" d="M9.807632446289062 15.308597564697266 L10.085040092468262 15.308597564697266 C10.249642372131348 15.308597564697266 10.457572937011719 15.334620475769043 10.457572937011719 15.611903190612793 C10.457572937011719 15.871879577636719 10.232211112976074 15.923924446105957 10.085040092468262 15.923924446105957 L9.989665985107422 15.923924446105957 L9.989665985107422 16.37452507019043 L9.807632446289062 16.37452507019043 L9.807632446289062 15.308597564697266 M9.989542007446289 15.793811798095703 L10.084916114807129 15.793811798095703 C10.188881874084473 15.793811798095703 10.275540351867676 15.742015838623047 10.275540351867676 15.611903190612793 C10.275540351867676 15.473323822021484 10.206188201904297 15.438461303710938 10.084916114807129 15.438461303710938 L9.989542007446289 15.438461303710938 L9.989542007446289 15.793811798095703 M10.908174514770508 15.308597564697266 L11.124820709228516 15.308597564697266 L11.488763809204102 16.37452507019043 L11.306854248046875 16.37452507019043 L11.211480140686035 16.088525772094727 L10.821516036987305 16.088525772094727 L10.734857559204102 16.37452507019043 L10.544231414794922 16.37452507019043 L10.908174514770508 15.308597564697266 L10.908174514770508 15.308597564697266 M10.864845275878906 15.94994831085205 L11.168149948120117 15.94994831085205 L11.020855903625488 15.482040405273438 L11.012140274047852 15.482040405273438 L10.864845275878906 15.94994831085205 M11.748739242553711 15.308597564697266 L12.077942848205566 15.308597564697266 C12.277408599853516 15.308597564697266 12.424703598022461 15.377949714660645 12.424703598022461 15.585881233215332 C12.424703598022461 15.759323120117188 12.320612907409668 15.811367988586426 12.208056449890137 15.837141036987305 C12.355475425720215 15.871879577636719 12.372657775878906 15.967253684997559 12.398680686950684 16.079811096191406 L12.468032836914062 16.37452507019043 L12.277408599853516 16.37452507019043 L12.234079360961914 16.149038314819336 C12.190749168395996 15.975845336914062 12.173316955566406 15.915084838867188 12.008715629577637 15.915084838867188 L11.93077278137207 15.915084838867188 L11.93077278137207 16.374401092529297 L11.748739242553711 16.374401092529297 L11.748739242553711 15.308597564697266 M11.930647850036621 15.785221099853516 L12.008591651916504 15.785221099853516 C12.121397018432617 15.785221099853516 12.233954429626465 15.767664909362793 12.233954429626465 15.603063583374023 C12.233954429626465 15.499221801757812 12.18190860748291 15.438461303710938 12.077818870544434 15.438461303710938 L11.930523872375488 15.438461303710938 L11.930523872375488 15.785221099853516 L11.930647850036621 15.785221099853516 M12.805827140808105 15.308597564697266 L12.987859725952148 15.308597564697266 L12.987859725952148 16.37452507019043 L12.805827140808105 16.37452507019043 L12.805827140808105 15.308597564697266 M13.97572135925293 15.482040405273438 C13.90636920928955 15.45601749420166 13.811119079589844 15.421278953552246 13.70702838897705 15.421278953552246 C13.611654281616211 15.421278953552246 13.542427062988281 15.45601749420166 13.542427062988281 15.5513916015625 C13.542427062988281 15.742015838623047 14.053789138793945 15.767789840698242 14.053789138793945 16.088525772094727 C14.053789138793945 16.28799057006836 13.88918685913086 16.39183235168457 13.66369915008545 16.39183235168457 C13.52511978149414 16.39183235168457 13.395256042480469 16.357341766357422 13.360393524169922 16.34850311279297 L13.360393524169922 16.166593551635742 C13.4297456741333 16.20108413696289 13.533835411071777 16.270435333251953 13.66369915008545 16.270435333251953 C13.811119079589844 16.270435333251953 13.854324340820312 16.183900833129883 13.854324340820312 16.114547729492188 C13.854324340820312 15.880595207214355 13.34321117401123 15.871879577636719 13.34321117401123 15.568573951721191 C13.34321117401123 15.377949714660645 13.507813453674316 15.291290283203125 13.70702838897705 15.291290283203125 C13.828426361083984 15.291290283203125 13.932516098022461 15.308597564697266 13.97572135925293 15.317314147949219 L13.97572135925293 15.482040405273438 L13.97572135925293 15.482040405273438 M0.6828117370605469 14.199464797973633 L0.6828117370605469 14.251509666442871 L1.7313079833984375 14.251509666442871 C2.4679079055786133 14.251509666442871 2.7885208129882812 13.826931953430176 2.7885208129882812 13.35877513885498 C2.7885208129882812 12.934196472167969 2.511237144470215 12.587686538696289 2.1212730407714844 12.492311477661133 L2.1212730407714844 12.475005149841309 C2.3812484741210938 12.353608131408691 2.623793601989746 12.093755722045898 2.623793601989746 11.781734466552734 C2.623793601989746 11.287803649902344 2.2772836685180664 10.984498977661133 1.7313079833984375 10.984498977661133 L0.6828117370605469 10.984498977661133 L0.6828117370605469 11.036418914794922 L0.890742301940918 11.079748153686523 L0.890742301940918 14.156135559082031 L0.6828117370605469 14.199464797973633 M1.6187515258789062 11.114486694335938 C2.060635566711426 11.114486694335938 2.1820335388183594 11.426383972167969 2.1820335388183594 11.781734466552734 C2.1820335388183594 12.1370849609375 1.9653854370117188 12.448982238769531 1.6100358963012695 12.448982238769531 L1.376082420349121 12.448982238769531 L1.376082420349121 11.114486694335938 L1.6187515258789062 11.114486694335938 M1.6100358963012695 12.578845977783203 C2.0952491760253906 12.578845977783203 2.285999298095703 12.942912101745605 2.285999298095703 13.35877513885498 C2.285999298095703 13.774887084960938 2.1474199295043945 14.121397018432617 1.6100358963012695 14.121397018432617 L1.376082420349121 14.121397018432617 L1.376082420349121 12.578845977783203 L1.6100358963012695 12.578845977783203 L1.6100358963012695 12.578845977783203 M5.405590534210205 12.61370849609375 C5.405590534210205 13.896035194396973 5.015626430511475 14.260101318359375 4.3223557472229 14.260101318359375 C3.629084587097168 14.260101318359375 3.239121437072754 13.896035194396973 3.239121437072754 12.61370849609375 C3.239121437072754 11.331133842468262 3.629084587097168 10.967191696166992 4.3223557472229 10.967191696166992 C5.015626430511475 10.967191696166992 5.405590534210205 11.331133842468262 5.405590534210205 12.61370849609375 L5.405590534210205 12.61370849609375 M4.3223557472229 11.0624418258667 C3.9411067962646484 11.0624418258667 3.767789840698242 11.695075988769531 3.767789840698242 12.613584518432617 C3.767789840698242 13.532092094421387 3.9411067962646484 14.164602279663086 4.3223557472229 14.164602279663086 C4.703604698181152 14.164602279663086 4.8855133056640625 13.532092094421387 4.8855133056640625 12.613584518432617 C4.8856377601623535 11.695075988769531 4.703604698181152 11.0624418258667 4.3223557472229 11.0624418258667 L4.3223557472229 11.0624418258667 M20.535640716552734 12.61370849609375 C20.535640716552734 13.896035194396973 20.145551681518555 14.260101318359375 19.452531814575195 14.260101318359375 C18.759260177612305 14.260101318359375 18.369171142578125 13.896035194396973 18.369171142578125 12.61370849609375 C18.369171142578125 11.331133842468262 18.759260177612305 10.967191696166992 19.452531814575195 10.967191696166992 C20.145551681518555 10.967191696166992 20.535640716552734 11.331133842468262 20.535640716552734 12.61370849609375 M19.45240592956543 11.0624418258667 C19.071157455444336 11.0624418258667 18.897714614868164 11.695075988769531 18.897714614868164 12.613584518432617 C18.897714614868164 13.532092094421387 19.071157455444336 14.164602279663086 19.45240592956543 14.164602279663086 C19.83353042602539 14.164602279663086 20.006847381591797 13.532092094421387 20.006847381591797 12.613584518432617 C20.006973266601562 11.695075988769531 19.83353042602539 11.0624418258667 19.45240592956543 11.0624418258667 L19.45240592956543 11.0624418258667 M7.069289684295654 14.268815994262695 C8.161115646362305 14.268815994262695 8.03984260559082 13.488887786865234 8.03984260559082 12.61370849609375 L8.03984260559082 11.079873085021973 L8.247774124145508 11.036543846130371 L8.247774124145508 10.984622955322266 L7.355288982391357 10.984622955322266 L7.355288982391357 11.036543846130371 L7.563220024108887 11.079873085021973 L7.563220024108887 12.61370849609375 C7.563220024108887 13.376331329345703 7.641162872314453 14.173442840576172 7.069289684295654 14.173442840576172 C6.488700866699219 14.173442840576172 6.57535982131958 13.376331329345703 6.57535982131958 12.61370849609375 L6.57535982131958 11.079873085021973 L6.783290863037109 11.036543846130371 L6.783290863037109 10.984622955322266 L5.882089614868164 10.984622955322266 L5.882089614868164 11.036543846130371 L6.090020656585693 11.079873085021973 L6.090020656585693 12.61370849609375 C6.090145111083984 13.488887786865234 5.968872547149658 14.268815994262695 7.069289684295654 14.268815994262695 L7.069289684295654 14.268815994262695 M9.27896499633789 12.61370849609375 C9.27896499633789 13.532217025756836 9.460872650146484 14.164726257324219 9.842246055603027 14.164726257324219 C10.093631744384766 14.164726257324219 10.232211112976074 14.034862518310547 10.388221740722656 13.714125633239746 L10.466164588928223 13.722841262817383 L10.388221740722656 14.147419929504395 C10.275540351867676 14.207931518554688 10.102222442626953 14.268815994262695 9.842246055603027 14.268815994262695 C9.14897632598877 14.268815994262695 8.759136199951172 13.896035194396973 8.759136199951172 12.61370849609375 C8.759136199951172 11.331133842468262 9.14897632598877 10.967191696166992 9.842246055603027 10.967191696166992 C10.102222442626953 10.967191696166992 10.275540351867676 11.019112586975098 10.388221740722656 11.079873085021973 L10.466164588928223 11.504451751708984 L10.388221740722656 11.513043403625488 C10.232211112976074 11.192429542541504 10.093631744384766 11.0624418258667 9.842246055603027 11.0624418258667 C9.460997581481934 11.0624418258667 9.27896499633789 11.695075988769531 9.27896499633789 12.61370849609375 L9.27896499633789 12.61370849609375 M15.136898040771484 12.691776275634766 C15.006786346435547 12.596402168273926 14.772832870483398 12.578970909118652 14.409014701843262 12.578970909118652 L14.409014701843262 14.121521949768066 C14.972172737121582 14.121521949768066 15.136898040771484 14.13882827758789 15.28419303894043 13.818216323852539 L15.362011909484863 13.826931953430176 L15.28419303894043 14.251509666442871 L13.715620040893555 14.251509666442871 L13.715620040893555 14.199464797973633 L13.923551559448242 14.147419929504395 L13.923551559448242 11.079873085021973 L13.715620040893555 11.036543846130371 L13.715620040893555 10.984622955322266 L15.249330520629883 10.984622955322266 L15.327398300170898 11.40061092376709 L15.249330520629883 11.417917251586914 C15.101911544799805 11.097304344177246 14.972047805786133 11.114611625671387 14.408889770507812 11.114611625671387 L14.408889770507812 12.44910717010498 C14.77270793914795 12.44910717010498 15.006661415100098 12.431550979614258 15.136774063110352 12.336549758911133 L15.154081344604492 12.336549758911133 L15.154081344604492 12.691900253295898 L15.136898040771484 12.691900253295898 L15.136898040771484 12.691776275634766 L15.136898040771484 12.691776275634766 M12.459192276000977 12.61370849609375 L12.459192276000977 14.156135559082031 L12.251261711120605 14.199464797973633 L12.251261711120605 14.251509666442871 L13.143747329711914 14.251509666442871 L13.143747329711914 14.199464797973633 L12.93593978881836 14.156135559082031 L12.93593978881836 11.079873085021973 L13.143747329711914 11.036543846130371 L13.143747329711914 10.984498977661133 L12.251261711120605 10.984498977661133 L12.251261711120605 11.036543846130371 L12.459192276000977 11.079873085021973 L12.459192276000977 12.448982238769531 L11.471456527709961 12.448982238769531 L11.471456527709961 11.079873085021973 L11.670672416687012 11.036543846130371 L11.670672416687012 10.984498977661133 L10.778186798095703 10.984498977661133 L10.778186798095703 11.036543846130371 L10.986117362976074 11.079873085021973 L10.986117362976074 14.156135559082031 L10.778186798095703 14.199464797973633 L10.778186798095703 14.251509666442871 L11.670672416687012 14.251509666442871 L11.670672416687012 14.199464797973633 L11.471456527709961 14.156135559082031 L11.471456527709961 12.61370849609375 L12.459192276000977 12.61370849609375 L12.459192276000977 12.61370849609375 M16.731494903564453 11.114486694335938 C17.207870483398438 11.114486694335938 17.303241729736328 11.452406883239746 17.303241729736328 11.807632446289062 C17.303241729736328 12.19747257232666 17.078006744384766 12.509493827819824 16.731494903564453 12.509493827819824 L16.48882484436035 12.509493827819824 L16.48882484436035 11.114486694335938 L16.731494903564453 11.114486694335938 M17.207870483398438 12.561663627624512 C17.485401153564453 12.431550979614258 17.762561798095703 12.1370849609375 17.762561798095703 11.807757377624512 C17.762561798095703 11.374463081359863 17.493867874145508 10.984622955322266 16.85251808166504 10.984622955322266 L15.804145812988281 10.984622955322266 L15.804145812988281 11.036543846130371 L16.00336265563965 11.079873085021973 L16.00336265563965 14.147419929504395 L15.804145812988281 14.199464797973633 L15.804145812988281 14.251509666442871 L16.696632385253906 14.251509666442871 L16.696632385253906 14.199464797973633 L16.48870086669922 14.147419929504395 L16.48870086669922 12.630890846252441 L16.696632385253906 12.630890846252441 C16.861234664916992 12.925604820251465 17.31183433532715 13.722841262817383 17.48527717590332 13.973978042602539 C17.563095092773438 14.095375061035156 17.623857498168945 14.207931518554688 17.788583755493164 14.225486755371094 C17.953184127807617 14.242794036865234 18.057025909423828 14.251509666442871 18.308534622192383 14.251509666442871 L18.308534622192383 14.190749168395996 C18.03984260559082 14.190749168395996 17.441822052001953 12.986242294311523 17.207870483398438 12.578970909118652 L17.207870483398438 12.561663627624512 L17.207870483398438 12.561663627624512 M21.436843872070312 14.121397018432617 L21.705286026000977 14.182157516479492 L21.705286026000977 14.251509666442871 L20.994709014892578 14.251509666442871 L20.994709014892578 14.182157516479492 L21.26340103149414 14.121397018432617 L21.26340103149414 11.911722183227539 C21.26340103149414 11.348440170288086 21.28070831298828 11.183838844299316 20.960094451904297 11.036543846130371 L20.960094451904297 10.984622955322266 L21.557865142822266 10.984622955322266 L22.875179290771484 13.211729049682617 L22.875179290771484 11.114486694335938 L22.597896575927734 11.053850173950195 L22.597896575927734 10.984498977661133 L23.316940307617188 10.984498977661133 L23.316940307617188 11.053850173950195 L23.039657592773438 11.114486694335938 L23.039657592773438 14.259976387023926 L22.918258666992188 14.259976387023926 L21.436594009399414 11.76442813873291 L21.436594009399414 14.121397018432617 L21.436843872070312 14.121397018432617 L21.436843872070312 14.121397018432617 M11.72271728515625 8.523563385009766 L11.272115707397461 8.748802185058594 L11.263400077819824 8.930834770202637 L11.731432914733887 8.930834770202637 L11.72271728515625 8.523563385009766 L11.72271728515625 8.523563385009766 M11.280831336975098 8.332815170288086 L11.714125633239746 8.116167068481445 L11.72271728515625 8.43678092956543 L11.272115707397461 8.662142753601074 L11.280831336975098 8.332815170288086 L11.280831336975098 8.332815170288086 M11.289422988891602 7.509556293487549 L11.696694374084473 7.310340881347656 L11.70541000366211 7.622237205505371 L11.289422988891602 7.83029317855835 L11.289422988891602 7.509556293487549 M11.298138618469238 7.102284908294678 L11.696694374084473 6.903069496154785 L11.696694374084473 7.2149658203125 L11.298138618469238 7.4230217933654785 L11.298138618469238 7.102284908294678 M11.306854248046875 6.71244478225708 L11.688103675842285 6.521696090698242 L11.688103675842285 6.807694911956787 L11.298138618469238 7.007034778594971 L11.306854248046875 6.71244478225708 L11.306854248046875 6.71244478225708 M11.766046524047852 9.008777618408203 L11.774637222290039 9.069415092468262 L11.913341522216797 9.130050659179688 L11.913341522216797 9.199402809143066 L11.081491470336914 9.199402809143066 L11.081491470336914 9.130050659179688 L11.22878646850586 9.069415092468262 L11.237378120422363 9.008777618408203 L11.766046524047852 9.008777618408203 L11.766046524047852 9.008777618408203 M11.506070137023926 5.8198347091674805 C11.549524307250977 5.863163948059082 11.670796394348145 6.001743316650391 11.670796394348145 6.166469573974609 L11.3241605758667 6.166469573974609 C11.3241605758667 6.001743316650391 11.4454345703125 5.863163948059082 11.488763809204102 5.8198347091674805 C11.471456527709961 5.793936729431152 11.4454345703125 5.733175754547119 11.4454345703125 5.6639485359191895 C11.4454345703125 5.568573951721191 11.497354507446289 5.490630626678467 11.497354507446289 5.490630626678467 C11.497354507446289 5.490630626678467 11.549399375915527 5.568573951721191 11.549399375915527 5.6639485359191895 C11.549399375915527 5.733175754547119 11.523377418518066 5.793936729431152 11.506070137023926 5.8198347091674805 L11.506070137023926 5.8198347091674805" fill="black" fill-opacity="1.0" filling="0"/>
<path animation_id="2" d="M11.679388046264648 6.322480201721191 C11.843989372253418 6.305173397064209 12.381124496459961 6.357093811035156 12.381124496459961 6.877047061920166 C12.381124496459961 7.128431797027588 12.216522216796875 7.475067138671875 11.705286026000977 7.709021091461182 L11.280707359313965 7.925667762756348 L11.280707359313965 8.237565040588379 L11.714001655578613 8.020917892456055 L11.705286026000977 7.795555114746094 C12.025897979736328 7.665567398071289 12.77121353149414 7.388283729553223 12.77121353149414 6.859615325927734 C12.77121353149414 6.305048942565918 12.234079360961914 6.235697269439697 11.852705001831055 6.235697269439697 L11.09020709991455 6.235697269439697 L11.09020709991455 6.296333312988281 L11.315444946289062 6.331071376800537 L11.306854248046875 6.616946220397949 L11.688103675842285 6.426321506500244 L11.679388046264648 6.322480201721191 L11.679388046264648 6.322480201721191 M11.913341522216797 9.710638999938965 C12.433170318603516 9.710638999938965 12.840564727783203 9.407333374023438 12.840564727783203 8.800722122192383 C12.840564727783203 8.202825546264648 12.468032836914062 7.890805244445801 11.991284370422363 7.890805244445801 L11.991284370422363 7.821577548980713 C12.831725120544434 7.8041462898254395 13.308473587036133 8.133474349975586 13.308473587036133 8.800722122192383 C13.308473587036133 9.138642311096191 13.13528060913086 9.797298431396484 12.0 9.797298431396484 L10.85612964630127 9.797298431396484 L10.85612964630127 9.745377540588379 L11.081491470336914 9.710638999938965 L11.081491470336914 9.277345657348633 L11.913341522216797 9.277345657348633 L11.913341522216797 9.710638999938965" fill="black" fill-opacity="1.0" filling="0"/></svg>