<?xml version="1.0" encoding="iso-8859-1"?><svg height="200px" viewBox="0.0 0.0 24.0 24.0" width="200px" xmlns="http://www.w3.org/2000/svg"><path animation_id="0" d="M0.0 0.0 L24.0 0.0 L24.0 24.0 L0.0 24.0 L0.0 0.0" fill="black" fill-opacity="1.0" filling="0"/>
<path animation_id="1" d="M1.1207122802734375 9.520512580871582 L2.4464921951293945 9.520512580871582 L2.1868896484375 10.802216529846191 C2.1593732833862305 10.954117774963379 2.120525360107422 11.106019973754883 2.070845603942871 11.270124435424805 C2.35821533203125 10.905559539794922 2.6340036392211914 10.741455078125 3.003424644470215 10.741455078125 C3.488637924194336 10.741455078125 3.802901268005371 11.08771800994873 3.802901268005371 11.65286636352539 C3.802901268005371 11.798667907714844 3.791820526123047 11.998754501342773 3.7532215118408203 12.228724479675293 L3.4775571823120117 13.89528751373291 L2.1537694931030273 13.89528751373291 L2.4133729934692383 12.356222152709961 C2.4355344772338867 12.229098320007324 2.441014289855957 12.126128196716309 2.441014289855957 12.059515953063965 C2.441014289855957 11.950570106506348 2.374650001525879 11.871879577636719 2.2752914428710938 11.871879577636719 C2.0598888397216797 11.871879577636719 1.9660091400146484 12.101848602294922 1.8940420150756836 12.537632942199707 L1.6676836013793945 13.89528751373291 L0.3528604507446289 13.89528751373291 L1.1207122802734375 9.520512580871582 M5.624727725982666 11.93961238861084 C5.795928478240967 11.93961238861084 5.900890350341797 12.060636520385742 5.900890350341797 12.284380912780762 C5.900890350341797 12.568387031555176 5.735167980194092 12.773953437805176 5.530722618103027 12.773953437805176 C5.348440647125244 12.773953437805176 5.226919174194336 12.635124206542969 5.226919174194336 12.405280113220215 C5.226919174194336 12.133100509643555 5.403723239898682 11.93961238861084 5.624727725982666 11.93961238861084 L5.624727725982666 11.93961238861084 M3.588869094848633 14.636991500854492 L4.887007713317871 14.636991500854492 L4.956234931945801 13.952936172485352 C4.972794532775879 13.855692863464355 5.000435829162598 13.746498107910156 5.000435829162598 13.606673240661621 C5.000435829162598 13.557991027832031 4.994957447052002 13.509431838989258 4.989354133605957 13.460748672485352 C5.215837478637695 13.837390899658203 5.442320823669434 14.001619338989258 5.779368877410889 14.001619338989258 C6.18215799331665 14.001619338989258 6.524061679840088 13.801033973693848 6.7998504638671875 13.387785911560059 C7.047998428344727 13.023221015930176 7.18595552444458 12.53838062286377 7.18595552444458 12.072713851928711 C7.18595552444458 11.277844429016113 6.744692802429199 10.73137092590332 6.149038314819336 10.73137092590332 C5.8235697746276855 10.73137092590332 5.574923992156982 10.883272171020508 5.35391902923584 11.198904037475586 L5.416796684265137 10.82811450958252 L4.179419040679932 10.82811450958252 L3.588869094848633 14.636991500854492 L3.588869094848633 14.636991500854492" fill="black" fill-opacity="1.0" filling="0"/>
<path animation_id="2" d="M7.468966007232666 13.580775260925293 L7.677769184112549 13.580775260925293 C7.780364990234375 13.580775260925293 7.874120712280273 13.595841407775879 7.874120712280273 13.781111717224121 C7.874120712280273 13.951566696166992 7.798045635223389 13.999752044677734 7.679512023925781 13.999752044677734 L7.468966007232666 13.999752044677734 L7.468966007232666 13.580775260925293 L7.468966007232666 13.580775260925293 M7.356160640716553 14.584449768066406 L7.468966007232666 14.584449768066406 L7.468966007232666 14.08030891418457 L7.684741497039795 14.08030891418457 C7.904003143310547 14.08030891418457 7.986802577972412 13.981821060180664 7.986802577972412 13.763182640075684 C7.986802577972412 13.512171745300293 7.81211519241333 13.500343322753906 7.7060322761535645 13.500343322753906 L7.356036186218262 13.500343322753906 L7.356036186218262 14.584449768066406 L7.356160640716553 14.584449768066406 L7.356160640716553 14.584449768066406 M8.692399024963379 13.580775260925293 L8.924983024597168 13.580775260925293 C9.058084487915039 13.580775260925293 9.127311706542969 13.609413146972656 9.127311706542969 13.757828712463379 C9.127311706542969 13.939239501953125 9.04737663269043 13.976716995239258 8.876922607421875 13.976716995239258 L8.692399024963379 13.976716995239258 L8.692399024963379 13.580775260925293 L8.692399024963379 13.580775260925293 M8.90705394744873 14.05739974975586 C9.153458595275879 14.05739974975586 9.11647891998291 14.266575813293457 9.1182222366333 14.31326675415039 C9.119965553283691 14.372159957885742 9.125319480895996 14.552823066711426 9.135902404785156 14.584449768066406 L9.243354797363281 14.584449768066406 C9.2398681640625 14.542364120483398 9.230903625488281 14.500031471252441 9.230903625488281 14.457947731018066 C9.230903625488281 14.069352149963379 9.220319747924805 14.051298141479492 9.041897773742676 14.01992130279541 L9.041897773742676 14.017058372497559 C9.21372127532959 13.984188079833984 9.240117073059082 13.894291877746582 9.240117073059082 13.759323120117188 C9.240117073059082 13.568946838378906 9.178484916687012 13.500343322753906 8.931955337524414 13.500343322753906 L8.5794677734375 13.500343322753906 L8.5794677734375 14.584449768066406 L8.69227409362793 14.584449768066406 L8.69227409362793 14.057523727416992 L8.90705394744873 14.057523727416992 L8.90705394744873 14.05739974975586 L8.90705394744873 14.05739974975586 M10.028636932373047 13.500343322753906 L10.028636932373047 14.584449768066406 L9.915831565856934 14.584449768066406 L9.915831565856934 13.500343322753906 L10.028636932373047 13.500343322753906 M10.735230445861816 14.584449768066406 L10.735230445861816 13.500343322753906 L10.908174514770508 13.500343322753906 L11.4267578125 14.453091621398926 L11.430368423461914 14.450227737426758 L11.430368423461914 13.500591278076172 L11.543049812316895 13.500591278076172 L11.543049812316895 14.584449768066406 L11.371849060058594 14.584449768066406 L10.851522445678711 13.622113227844238 L10.84803581237793 13.625101089477539 L10.84803581237793 14.584449768066406 L10.735230445861816 14.584449768066406 L10.735230445861816 14.584449768066406 M12.447114944458008 13.580775260925293 L12.136089324951172 13.580775260925293 L12.136089324951172 13.500343322753906 L12.871194839477539 13.500343322753906 L12.871194839477539 13.580775260925293 L12.559920310974121 13.580775260925293 L12.559920310974121 14.584449768066406 L12.447114944458008 14.584449768066406 L12.447114944458008 13.580775260925293 L12.447114944458008 13.580775260925293 M15.498101234436035 13.77513599395752 C15.494739532470703 13.641411781311035 15.455768585205078 13.560107231140137 15.282699584960938 13.560107231140137 C15.145116806030273 13.560107231140137 15.05845832824707 13.60069751739502 15.05845832824707 13.728445053100586 C15.05845832824707 13.88918685913086 15.153831481933594 13.89354419708252 15.299508094787598 13.982320785522461 C15.457137107849121 14.078316688537598 15.617879867553711 14.107078552246094 15.617879867553711 14.317375183105469 C15.617879867553711 14.510988235473633 15.501587867736816 14.605117797851562 15.278341293334961 14.605117797851562 C15.028575897216797 14.605117797851562 14.917014122009277 14.491564750671387 14.927473068237305 14.279773712158203 L15.044387817382812 14.279773712158203 C15.044387817382812 14.399925231933594 15.055095672607422 14.524683952331543 15.283695220947266 14.524683952331543 C15.43248462677002 14.524683952331543 15.504949569702148 14.457075119018555 15.504949569702148 14.332317352294922 C15.504949569702148 14.18514633178711 15.389902114868164 14.143061637878418 15.205130577087402 14.047064781188965 C14.95810317993164 13.917698860168457 14.947395324707031 13.853203773498535 14.94565200805664 13.745003700256348 C14.94390869140625 13.557243347167969 15.083234786987305 13.479674339294434 15.29141616821289 13.479674339294434 C15.556496620178223 13.479674339294434 15.61314868927002 13.618751525878906 15.61314868927002 13.77513599395752 L15.498101234436035 13.77513599395752 L15.498101234436035 13.77513599395752 M16.857250213623047 13.500343322753906 L16.857250213623047 13.580775260925293 L16.3922061920166 13.580775260925293 L16.3922061920166 13.985931396484375 L16.836082458496094 13.985931396484375 L16.836082458496094 14.066488265991211 L16.3922061920166 14.066488265991211 L16.3922061920166 14.503890991210938 L16.869577407836914 14.503890991210938 L16.869577407836914 14.584449768066406 L16.27964973449707 14.584449768066406 L16.27964973449707 13.500343322753906 L16.857250213623047 13.500343322753906 L16.857250213623047 13.500343322753906 M17.594968795776367 13.580775260925293 L17.827430725097656 13.580775260925293 C17.960655212402344 13.580775260925293 18.030006408691406 13.609413146972656 18.030006408691406 13.757828712463379 C18.030006408691406 13.939239501953125 17.949947357177734 13.976716995239258 17.779495239257812 13.976716995239258 L17.594968795776367 13.976716995239258 L17.594968795776367 13.580775260925293 L17.594968795776367 13.580775260925293 M17.80950164794922 14.05739974975586 C18.0560302734375 14.05739974975586 18.018924713134766 14.266575813293457 18.02079200744629 14.31326675415039 C18.022537231445312 14.372159957885742 18.027891159057617 14.552823066711426 18.038349151611328 14.584449768066406 L18.14605140686035 14.584449768066406 C18.142438888549805 14.542364120483398 18.13359832763672 14.500031471252441 18.13359832763672 14.457947731018066 C18.13359832763672 14.069352149963379 18.12289047241211 14.051298141479492 17.94434356689453 14.01992130279541 L17.94434356689453 14.017058372497559 C18.11629295349121 13.984188079833984 18.14281463623047 13.894291877746582 18.14281463623047 13.759323120117188 C18.14281463623047 13.568946838378906 18.081056594848633 13.500343322753906 17.834651947021484 13.500343322753906 L17.482040405273438 13.500343322753906 L17.482040405273438 14.584449768066406 L17.594844818115234 14.584449768066406 L17.594844818115234 14.057523727416992 L17.80950164794922 14.057523727416992 L17.80950164794922 14.05739974975586 L17.80950164794922 14.05739974975586 M19.433979034423828 13.500343322753906 L19.54342269897461 13.500343322753906 L19.1903133392334 14.584199905395508 L19.048995971679688 14.584199905395508 L18.69426727294922 13.500343322753906 L18.814044952392578 13.500343322753906 L19.116106033325195 14.469650268554688 L19.119842529296875 14.469650268554688 L19.433979034423828 13.500343322753906 L19.433979034423828 13.500343322753906 M20.704849243164062 13.500343322753906 L20.704849243164062 13.580775260925293 L20.239931106567383 13.580775260925293 L20.239931106567383 13.985931396484375 L20.683433532714844 13.985931396484375 L20.683433532714844 14.066488265991211 L20.239931106567383 14.066488265991211 L20.239931106567383 14.503890991210938 L20.717052459716797 14.503890991210938 L20.717052459716797 14.584449768066406 L20.126998901367188 14.584449768066406 L20.126998901367188 13.500343322753906 L20.704849243164062 13.500343322753906 L20.704849243164062 13.500343322753906 M21.44244384765625 13.580775260925293 L21.675155639648438 13.580775260925293 C21.808130264282227 13.580775260925293 21.877483367919922 13.609413146972656 21.877483367919922 13.757828712463379 C21.877483367919922 13.939239501953125 21.797672271728516 13.976716995239258 21.627220153808594 13.976716995239258 L21.44244384765625 13.976716995239258 L21.44244384765625 13.580775260925293 L21.44244384765625 13.580775260925293 M21.657100677490234 14.05739974975586 C21.903505325317383 14.05739974975586 21.866527557373047 14.266575813293457 21.868144989013672 14.31326675415039 C21.870136260986328 14.372159957885742 21.875240325927734 14.552823066711426 21.885948181152344 14.584449768066406 L21.99340057373047 14.584449768066406 C21.989789962768555 14.542364120483398 21.98094940185547 14.500031471252441 21.98094940185547 14.457947731018066 C21.98094940185547 14.069352149963379 21.970489501953125 14.051298141479492 21.79194450378418 14.01992130279541 L21.79194450378418 14.017058372497559 C21.96364402770996 13.984188079833984 21.990163803100586 13.894291877746582 21.990163803100586 13.759323120117188 C21.990163803100586 13.568946838378906 21.92840576171875 13.500343322753906 21.682003021240234 13.500343322753906 L21.329391479492188 13.500343322753906 L21.329391479492188 14.584449768066406 L21.442195892333984 14.584449768066406 L21.442195892333984 14.057523727416992 L21.657100677490234 14.057523727416992 L21.657100677490234 14.05739974975586 L21.657100677490234 14.05739974975586 M23.193052291870117 13.77513599395752 C23.18968963623047 13.641411781311035 23.150718688964844 13.560107231140137 22.977649688720703 13.560107231140137 C22.840068817138672 13.560107231140137 22.75341033935547 13.60069751739502 22.75341033935547 13.728445053100586 C22.75341033935547 13.88918685913086 22.84878158569336 13.89354419708252 22.99445915222168 13.982320785522461 C23.152088165283203 14.078316688537598 23.31283187866211 14.107078552246094 23.31283187866211 14.317375183105469 C23.31283187866211 14.510988235473633 23.1962890625 14.605117797851562 22.97329330444336 14.605117797851562 C22.723526000976562 14.605117797851562 22.61196517944336 14.491564750671387 22.622425079345703 14.279773712158203 L22.739337921142578 14.279773712158203 C22.739337921142578 14.399925231933594 22.750045776367188 14.524683952331543 22.97864532470703 14.524683952331543 C23.127437591552734 14.524683952331543 23.199901580810547 14.457075119018555 23.199901580810547 14.332317352294922 C23.199901580810547 14.18514633178711 23.084854125976562 14.143061637878418 22.900081634521484 14.047064781188965 C22.653053283691406 13.917698860168457 22.642345428466797 13.853203773498535 22.640602111816406 13.745003700256348 C22.63886070251465 13.557243347167969 22.778186798095703 13.479674339294434 22.986366271972656 13.479674339294434 C23.251449584960938 13.479674339294434 23.308101654052734 13.618751525878906 23.308101654052734 13.77513599395752 L23.193052291870117 13.77513599395752 L23.193052291870117 13.77513599395752 M13.893046379089355 13.719853401184082 A0.26047438383102417 0.26047438383102417 0.0 1 0 13.893046379089355 14.240303993225098 A0.26047438383102417 0.26047438383102417 0.0 0 0 13.893046379089355 13.719853401184082" fill="black" fill-opacity="1.0" filling="0"/>
<path animation_id="3" d="M7.306605339050293 12.368797302246094 C7.041524410247803 13.340596199035645 6.317873477935791 14.013696670532227 5.798418998718262 14.013696670532227 C5.388283729553223 14.013696670532227 5.155450344085693 13.749113082885742 5.155450344085693 13.450912475585938 C5.155450344085693 13.240988731384277 5.299632549285889 13.075390815734863 5.504575729370117 13.075390815734863 C5.73180627822876 13.075390815734863 5.853701114654541 13.197036743164062 5.853701114654541 13.43435287475586 C5.853701114654541 13.737907409667969 5.875864028930664 13.793065071105957 5.9697442054748535 13.793065071105957 C6.041586399078369 13.793065071105957 6.146548271179199 13.638672828674316 6.207308769226074 13.417792320251465 L7.135404109954834 9.956172943115234 C7.146485805511475 9.91209602355957 7.157442569732666 9.851211547851562 7.157442569732666 9.818216323852539 C7.157442569732666 9.757454872131348 7.12432336807251 9.729938507080078 7.052480697631836 9.707776069641113 C6.953122615814209 9.67478084564209 6.881279945373535 9.669178009033203 6.881279945373535 9.591981887817383 C6.881279945373535 9.509307861328125 6.936437606811523 9.487144470214844 7.058084011077881 9.487268447875977 C7.251447677612305 9.487268447875977 7.450289726257324 9.506319046020508 7.643653392791748 9.506319046020508 C7.837017059326172 9.506319046020508 8.035859107971191 9.487268447875977 8.229223251342773 9.487144470214844 C8.3396635055542 9.487144470214844 8.38386344909668 9.509307861328125 8.38386344909668 9.56994342803955 C8.38386344909668 9.691340446472168 8.301064491271973 9.67478084564209 8.168462753295898 9.707776069641113 C8.080184936523438 9.729938507080078 7.9972615242004395 9.834775924682617 7.953060150146484 9.98941707611084 L7.306605339050293 12.368797302246094 L7.306605339050293 12.368797302246094 M9.286808013916016 10.754528999328613 C9.286808013916016 10.978771209716797 9.14885139465332 11.312333106994629 9.011019706726074 11.470833778381348 C8.856502532958984 11.640291213989258 8.69102954864502 11.68411922454834 8.492436408996582 11.68411922454834 C8.602752685546875 11.301375389099121 8.823383331298828 10.579468727111816 9.143372535705566 10.579468727111816 C9.231650352478027 10.579593658447266 9.286808013916016 10.639731407165527 9.286808013916016 10.754528999328613 L9.286808013916016 10.754528999328613 M7.608790397644043 12.155512809753418 C7.608790397644043 12.651808738708496 7.912594318389893 13.05484676361084 8.431924819946289 13.05484676361084 C9.226171493530273 13.05484676361084 9.661831855773926 12.183029174804688 9.661831855773926 12.089398384094238 C9.661831855773926 12.045196533203125 9.639793395996094 12.023283958435059 9.59011459350586 12.023283958435059 C9.529478073120117 12.023283958435059 9.44667911529541 12.232708930969238 9.264644622802734 12.41486644744873 C9.143248558044434 12.541617393493652 8.955862045288086 12.690406799316406 8.779306411743164 12.690406799316406 C8.558675765991211 12.690406799316406 8.40428352355957 12.50289535522461 8.40428352355957 12.194360733032227 C8.40428352355957 12.072962760925293 8.437402725219727 11.946087837219238 8.459441184997559 11.874370574951172 C8.674593925476074 11.874370574951172 8.867584228515625 11.857561111450195 9.132415771484375 11.79057502746582 C9.689472198486328 11.646143913269043 9.948577880859375 11.394509315490723 9.948577880859375 10.968063354492188 C9.948577880859375 10.612587928771973 9.645272254943848 10.389715194702148 9.30336856842041 10.389715194702148 C8.4207181930542 10.389591217041016 7.608790397644043 11.290419578552246 7.608790397644043 12.155512809753418 L7.608790397644043 12.155512809753418 M10.033866882324219 10.684555053710938 L10.094502449035645 10.475004196166992 L10.491439819335938 10.475004196166992 L10.744941711425781 9.79007625579834 C10.77245807647705 9.71823501586914 10.794621467590332 9.7071533203125 10.866214752197266 9.7071533203125 L11.389902114868164 9.7071533203125 C11.456141471862793 9.7071533203125 11.478179931640625 9.729190826416016 11.478179931640625 9.762434959411621 C11.478179931640625 9.801158905029297 11.400983810424805 9.994397163391113 11.257673263549805 10.475004196166992 L11.698686599731445 10.475004196166992 L11.632572174072266 10.695511817932129 L11.180601119995117 10.695511817932129 C10.64035415649414 12.296209335327148 10.612712860107422 12.406648635864258 10.612712860107422 12.511486053466797 C10.612712860107422 12.544854164123535 10.634875297546387 12.594409942626953 10.684430122375488 12.594409942626953 C10.7725830078125 12.594409942626953 10.904936790466309 12.417855262756348 11.004171371459961 12.268816947937012 C11.131047248840332 12.081055641174316 11.147481918334961 12.003735542297363 11.20263957977295 12.003735542297363 C11.235758781433105 12.003735542297363 11.263276100158691 12.025897979736328 11.263276100158691 12.070099830627441 C11.263276100158691 12.114175796508789 10.866339683532715 13.05472183227539 10.171823501586914 13.05472183227539 C9.918196678161621 13.05472183227539 9.818963050842285 12.895723342895508 9.818963050842285 12.660026550292969 C9.818963050842285 12.494926452636719 9.868517875671387 12.235447883605957 10.414243698120117 10.684430122375488 L10.033866882324219 10.684430122375488 L10.033866882324219 10.684555053710938 L10.033866882324219 10.684555053710938" fill="black" fill-opacity="1.0" filling="0"/>
<path animation_id="4" d="M12.998817443847656 9.799290657043457 C13.020980834960938 9.727697372436523 13.0375394821167 9.678017616271973 13.225175857543945 9.678017616271973 C13.622984886169434 9.678017616271973 13.766793251037598 9.953557968139648 13.766793251037598 10.256614685058594 C13.766793251037598 10.95635986328125 13.269500732421875 12.796737670898438 12.474008560180664 12.796737670898438 C12.26408576965332 12.796737670898438 12.197722434997559 12.74158000946045 12.197722434997559 12.609227180480957 C12.197722434997559 12.488078117370605 12.241922378540039 12.361452102661133 12.297204971313477 12.173940658569336 L12.998817443847656 9.799290657043457 L12.998817443847656 9.799290657043457 M11.369359016418457 12.397435188293457 C11.302994728088379 12.617942810058594 11.247712135314941 12.744941711425781 11.059951782226562 12.767105102539062 C10.877793312072754 12.789017677307129 10.844550132751465 12.860735893249512 10.844550132751465 12.893856048583984 C10.844550132751465 12.953246116638184 10.866588592529297 12.986740112304688 10.98263168334961 12.986740112304688 C11.159310340881348 12.986740112304688 11.302994728088379 12.969432830810547 11.557119369506836 12.969432830810547 C12.186888694763184 12.969432830810547 12.44101333618164 12.986740112304688 12.739463806152344 12.986740112304688 C13.844488143920898 12.986740112304688 14.609102249145508 11.882089614868164 14.609102249145508 10.725020408630371 C14.609102249145508 9.97559642791748 14.154890060424805 9.488016128540039 13.335989952087402 9.488016128540039 C12.905061721801758 9.488016128540039 12.617816925048828 9.50532341003418 12.418974876403809 9.50532341003418 C12.3085355758667 9.50532341003418 12.032248497009277 9.488016128540039 11.894166946411133 9.488016128540039 C11.794808387756348 9.488016128540039 11.750482559204102 9.50469970703125 11.745004653930664 9.583017349243164 C11.733922958374023 9.694578170776367 11.943846702575684 9.655731201171875 12.032248497009277 9.711137771606445 C12.07097053527832 9.738655090332031 12.093132972717285 9.782730102539062 12.093132972717285 9.83241081237793 C12.093132972717285 9.881964683532715 12.087531089782715 9.959160804748535 12.065492630004883 10.025275230407715 L11.369359016418457 12.397435188293457" fill="black" fill-opacity="1.0" filling="0"/>
<path animation_id="5" d="M15.071281433105469 10.860735893249512 C15.071281433105469 10.82226276397705 15.049118995666504 10.800224304199219 15.021727561950684 10.800224304199219 C14.955363273620605 10.800224304199219 14.822761535644531 10.926851272583008 14.695884704589844 11.10265827178955 C14.574239730834961 11.27859115600586 14.546598434448242 11.322668075561523 14.496918678283691 11.322668075561523 A0.06113428249955177 0.06113428249955177 0.0 0 1 14.436158180236816 11.262280464172363 C14.436158180236816 11.091826438903809 14.93320083618164 10.389715194702148 15.513914108276367 10.389715194702148 C15.741020202636719 10.389715194702148 15.868517875671387 10.4951753616333 15.868517875671387 10.678204536437988 C15.868517875671387 10.87729549407959 15.696819305419922 11.344705581665039 15.519268035888672 11.806511878967285 C15.353172302246094 12.246529579162598 15.303367614746094 12.356471061706543 15.303367614746094 12.460935592651367 C15.303367614746094 12.505011558532715 15.325531005859375 12.526801109313965 15.369731903076172 12.526801109313965 C15.441947937011719 12.526801109313965 15.569445610046387 12.389341354370117 15.663450241088867 12.25736141204834 C15.824193000793457 12.031874656677246 15.824193000793457 11.94944953918457 15.896159172058105 11.94944953918457 C15.923924446105957 11.94944953918457 15.951566696166992 11.960405349731445 15.951566696166992 11.998880386352539 C15.951566696166992 12.22984504699707 15.347444534301758 13.05472183227539 14.80059814453125 13.05472183227539 C14.612836837768555 13.05472183227539 14.4859619140625 12.939176559448242 14.4859619140625 12.719168663024902 C14.4859619140625 12.262964248657227 15.071281433105469 11.003548622131348 15.071281433105469 10.860735893249512 L15.071281433105469 10.860735893249512 M16.17867088317871 9.727697372436523 C16.17867088317871 9.965262413024902 15.990163803100586 10.224864959716797 15.74089527130127 10.224864959716797 C15.491626739501953 10.224864959716797 15.336488723754883 10.108821868896484 15.336488723754883 9.849218368530273 C15.336488723754883 9.589615821838379 15.5359525680542 9.36313247680664 15.801656723022461 9.36313247680664 C16.051298141479492 9.363256454467773 16.17867088317871 9.473572731018066 16.17867088317871 9.727697372436523" fill="black" fill-opacity="1.0" filling="0"/>
<path animation_id="6" d="M15.878602981567383 12.968437194824219 C16.348129272460938 11.347569465637207 16.447612762451172 11.033431053161621 16.447612762451172 10.895723342895508 C16.447612762451172 10.873684883117676 16.4364070892334 10.851646423339844 16.403411865234375 10.851646423339844 C16.364688873291016 10.851646423339844 16.270933151245117 10.912282943725586 16.154890060424805 11.083110809326172 C16.055408477783203 11.23189926147461 16.016809463500977 11.331133842468262 15.961527824401855 11.331133842468262 C15.928407669067383 11.331133842468262 15.900766372680664 11.308971405029297 15.900766372680664 11.27049732208252 C15.900766372680664 11.20438289642334 15.983689308166504 11.077631950378418 16.105335235595703 10.9066801071167 C16.2930965423584 10.642221450805664 16.580215454101562 10.38871955871582 16.84529685974121 10.38871955871582 C17.02770233154297 10.38871955871582 17.110626220703125 10.504512786865234 17.110626220703125 10.65865707397461 C17.110626220703125 10.862603187561035 17.01114273071289 11.198780059814453 16.944778442382812 11.441325187683105 L16.95598602294922 11.452406883239746 C17.116230010986328 11.121583938598633 17.375707626342773 10.38871955871582 17.81584930419922 10.38871955871582 C18.052169799804688 10.38871955871582 18.11255645751953 10.581584930419922 18.11255645751953 10.768972396850586 C18.11255645751953 11.016996383666992 17.958911895751953 11.347569465637207 17.717113494873047 11.347569465637207 C17.58525848388672 11.347569465637207 17.50818634033203 11.281455039978027 17.50818634033203 11.176741600036621 C17.50818634033203 11.094066619873047 17.519393920898438 11.02247428894043 17.519393920898438 10.972670555114746 C17.519393920898438 10.94515323638916 17.513790130615234 10.906431198120117 17.480669021606445 10.906431198120117 C17.364627838134766 10.906431198120117 16.933700561523438 11.612152099609375 16.530536651611328 12.968437194824219 L15.878602981567383 12.968437194824219 L15.878602981567383 12.968437194824219" fill="black" fill-opacity="1.0" filling="0"/>
<path animation_id="7" d="M19.395753860473633 10.754528999328613 C19.395753860473633 10.978771209716797 19.257923126220703 11.312333106994629 19.119964599609375 11.470833778381348 C18.965574264526367 11.640291213989258 18.799976348876953 11.68411922454834 18.601505279541016 11.68411922454834 C18.711698532104492 11.301375389099121 18.932205200195312 10.579468727111816 19.2523193359375 10.579468727111816 C19.34059715270996 10.579593658447266 19.395753860473633 10.639731407165527 19.395753860473633 10.754528999328613 M17.71761131286621 12.155512809753418 C17.71761131286621 12.651808738708496 18.021541595458984 13.05484676361084 18.540746688842773 13.05484676361084 C19.334993362426758 13.05484676361084 19.77077865600586 12.183029174804688 19.77077865600586 12.089398384094238 C19.77077865600586 12.045196533203125 19.748615264892578 12.023283958435059 19.699060440063477 12.023283958435059 C19.6385498046875 12.023283958435059 19.55587387084961 12.232708930969238 19.373716354370117 12.41486644744873 C19.2523193359375 12.541617393493652 19.064931869506836 12.690406799316406 18.888376235961914 12.690406799316406 C18.667869567871094 12.690406799316406 18.513355255126953 12.50289535522461 18.513355255126953 12.194360733032227 C18.513355255126953 12.072962760925293 18.546472549438477 11.946087837219238 18.568511962890625 11.874370574951172 C18.783540725708008 11.874370574951172 18.976530075073242 11.857561111450195 19.241363525390625 11.79057502746582 C19.798294067382812 11.646143913269043 20.05752182006836 11.394509315490723 20.05752182006836 10.968063354492188 C20.05752182006836 10.612587928771973 19.75421905517578 10.389715194702148 19.412315368652344 10.389715194702148 C18.529788970947266 10.389591217041016 17.71761131286621 11.290419578552246 17.71761131286621 12.155512809753418 L17.71761131286621 12.155512809753418" fill="black" fill-opacity="1.0" filling="0"/>
<path animation_id="8" d="M21.433853149414062 10.38871955871582 C21.693580627441406 10.38871955871582 21.969619750976562 10.543111801147461 21.969619750976562 10.829483985900879 C21.969619750976562 11.027703285217285 21.864782333374023 11.242358207702637 21.616260528564453 11.242358207702637 C21.40633773803711 11.242358207702637 21.32876968383789 11.104775428771973 21.32876968383789 10.829483985900879 C21.32876968383789 10.653302192687988 21.306854248046875 10.60922622680664 21.262653350830078 10.60922622680664 C21.008529663085938 10.60922622680664 20.588558197021484 11.644150733947754 20.588558197021484 12.194857597351074 C20.588558197021484 12.569133758544922 20.710205078125 12.690281867980957 20.87605094909668 12.690281867980957 C21.12457275390625 12.690281867980957 21.428377151489258 12.371039390563965 21.560855865478516 12.128743171691895 C21.616260528564453 12.01855182647705 21.63817596435547 11.974600791931152 21.687978744506836 11.974600791931152 C21.721099853515625 11.974600791931152 21.748741149902344 12.002116203308105 21.748741149902344 12.035112380981445 C21.748741149902344 12.117786407470703 21.627094268798828 12.387474060058594 21.433853149414062 12.602252960205078 C21.17412567138672 12.88924789428711 20.83172607421875 13.05484676361084 20.538877487182617 13.05484676361084 C20.018428802490234 13.05484676361084 19.81348419189453 12.712444305419922 19.81348419189453 12.200336456298828 C19.813608169555664 11.352425575256348 20.533401489257812 10.38871955871582 21.433853149414062 10.38871955871582 L21.433853149414062 10.38871955871582" fill="black" fill-opacity="1.0" filling="0"/>
<path animation_id="9" d="M21.982318878173828 10.684555053710938 L22.043081283569336 10.475004196166992 L22.440017700195312 10.475004196166992 L22.69339370727539 9.79007625579834 C22.721160888671875 9.71823501586914 22.742950439453125 9.7071533203125 22.81479263305664 9.7071533203125 L23.338356018066406 9.7071533203125 C23.40447235107422 9.7071533203125 23.426631927490234 9.729190826416016 23.426631927490234 9.762434959411621 C23.426631927490234 9.801158905029297 23.349559783935547 9.994397163391113 23.206127166748047 10.475004196166992 L23.64726448059082 10.475004196166992 L23.58115005493164 10.695511817932129 L23.12905502319336 10.695511817932129 C22.588932037353516 12.296209335327148 22.56116485595703 12.406648635864258 22.56116485595703 12.511486053466797 C22.56116485595703 12.544854164123535 22.583328247070312 12.594409942626953 22.632883071899414 12.594409942626953 C22.721160888671875 12.594409942626953 22.853389739990234 12.417855262756348 22.95262336730957 12.268816947937012 C23.079376220703125 12.081055641174316 23.095809936523438 12.003735542297363 23.151092529296875 12.003735542297363 C23.18421173095703 12.003735542297363 23.211605072021484 12.025897979736328 23.211605072021484 12.070099830627441 C23.211605072021484 12.114175796508789 22.814666748046875 13.05472183227539 22.12015151977539 13.05472183227539 C21.866527557373047 13.05472183227539 21.767292022705078 12.895723342895508 21.767292022705078 12.660026550292969 C21.767292022705078 12.494926452636719 21.81684684753418 12.235447883605957 22.362571716308594 10.684430122375488 L21.982318878173828 10.684430122375488 L21.982318878173828 10.684555053710938 L21.982318878173828 10.684555053710938" fill="black" fill-opacity="1.0" filling="0"/></svg>