<?xml version="1.0" encoding="iso-8859-1"?><svg height="200px" viewBox="0.0 0.0 24.0 24.0" width="200px" xmlns="http://www.w3.org/2000/svg"><path animation_id="0" d="M0.0 0.0 L24.0 0.0 L24.0 24.0 L0.0 24.0 L0.0 0.0" fill="black" fill-opacity="1.0" filling="0"/>
<path animation_id="1" d="M0.3528604507446289 13.974226951599121 L23.647140502929688 13.974226951599121 L23.647140502929688 15.178733825683594 L0.3528604507446289 15.178733825683594 L0.3528604507446289 13.974226951599121 L0.3528604507446289 13.974226951599121" fill="black" fill-opacity="1.0" filling="0"/>
<path animation_id="2" d="M1.4771833419799805 14.88401985168457 L1.1278095245361328 14.88401985168457 L1.0797481536865234 15.035797119140625 L0.766357421875 15.035797119140625 L1.1393890380859375 14.116540908813477 L1.4738216400146484 14.116540908813477 L1.847102165222168 15.035797119140625 L1.525991439819336 15.035797119140625 L1.4771833419799805 14.88401985168457 M1.4129362106323242 14.685052871704102 L1.303243637084961 14.354852676391602 L1.1941728591918945 14.685052871704102 L1.4129362106323242 14.685052871704102 M1.9453401565551758 14.116540908813477 L2.2521324157714844 14.116540908813477 L2.2521324157714844 14.809313774108887 L2.73087215423584 14.809313774108887 L2.73087215423584 15.035673141479492 L1.9453401565551758 15.035673141479492 L1.9453401565551758 14.116540908813477 L1.9453401565551758 14.116540908813477 M3.4801712036132812 14.116540908813477 L3.7863407135009766 14.116540908813477 L3.7863407135009766 14.664632797241211 C3.7863407135009766 14.718918800354004 3.777127265930176 14.770217895507812 3.7588253021240234 14.818527221679688 A0.3270871043205261 0.3270871043205261 0.0 0 1 3.6729135513305664 14.945029258728027 A0.3485027849674225 0.3485027849674225 0.0 0 1 3.5498971939086914 15.021352767944336 C3.4902572631835938 15.041523933410645 3.418912887573242 15.051982879638672 3.335118293762207 15.051982879638672 C3.286932945251465 15.051982879638672 3.234140396118164 15.048870086669922 3.1771154403686523 15.042520523071289 C3.119964599609375 15.036170959472656 3.0724029541015625 15.023843765258789 3.0340538024902344 15.005291938781738 A0.3585880696773529 0.3585880696773529 0.0 0 1 2.9285945892333984 14.925729751586914 A0.2855008542537689 0.2855008542537689 0.0 0 1 2.8633508682250977 14.819896697998047 C2.8444252014160156 14.761253356933594 2.8348379135131836 14.709456443786621 2.8348379135131836 14.664508819580078 L2.8348379135131836 14.116416931152344 L3.141007423400879 14.116416931152344 L3.141007423400879 14.67770767211914 C3.141007423400879 14.727760314941406 3.1560726165771484 14.766980171203613 3.185831069946289 14.795120239257812 C3.2159624099731445 14.823383331298828 3.2574243545532227 14.83745288848877 3.310837745666504 14.83745288848877 C3.363506317138672 14.83745288848877 3.405092239379883 14.82363224029541 3.4352245330810547 14.795618057250977 C3.464982032775879 14.76810073852539 3.480048179626465 14.728507041931152 3.480048179626465 14.67770767211914 L3.480048179626465 14.116540908813477 L3.4801712036132812 14.116540908813477 L3.4801712036132812 14.116540908813477 M3.9861793518066406 14.116540908813477 L4.389715671539307 14.116540908813477 L4.545477390289307 14.6758394241333 L4.700616359710693 14.116540908813477 L5.102658271789551 14.116540908813477 L5.102658271789551 15.035797119140625 L4.852144718170166 15.035797119140625 L4.852144718170166 14.334931373596191 L4.657784938812256 15.035797119140625 L4.431053161621094 15.035797119140625 L4.237315654754639 14.334931373596191 L4.237315654754639 15.035797119140625 L3.986055374145508 15.035797119140625 L3.986055374145508 14.116540908813477 L3.9861793518066406 14.116540908813477 M5.310589790344238 14.116540908813477 L5.618003845214844 14.116540908813477 L5.618003845214844 15.035797119140625 L5.310589790344238 15.035797119140625 L5.310589790344238 14.116540908813477 M5.839756011962891 14.116540908813477 L6.126253128051758 14.116540908813477 L6.499906539916992 14.625039100646973 L6.499906539916992 14.116540908813477 L6.789018630981445 14.116540908813477 L6.789018630981445 15.035797119140625 L6.499906539916992 15.035797119140625 L6.128120422363281 14.531158447265625 L6.128120422363281 15.035797119140625 L5.8396315574646 15.035797119140625 L5.8396315574646 14.116540908813477 L5.839756011962891 14.116540908813477 M7.005043029785156 14.116540908813477 L7.312457084655762 14.116540908813477 L7.312457084655762 15.035797119140625 L7.005043029785156 15.035797119140625 L7.005043029785156 14.116540908813477 M7.945340156555176 14.116540908813477 L8.252754211425781 14.116540908813477 L8.252754211425781 14.616323471069336 C8.252754211425781 14.721160888671875 8.242544174194336 14.800847053527832 8.22249984741211 14.855880737304688 C8.2023286819458 14.910539627075195 8.162236213684082 14.956981658935547 8.101350784301758 14.995206832885742 C8.040590286254883 15.032933235168457 7.96289587020874 15.052106857299805 7.868144512176514 15.052106857299805 C7.767789840698242 15.052106857299805 7.6900954246521 15.039656639099121 7.635186195373535 15.01438045501709 A0.2825126051902771 0.2825126051902771 0.0 0 1 7.507688522338867 14.904438972473145 C7.477557182312012 14.85600471496582 7.459752082824707 14.796488761901855 7.454522609710693 14.725393295288086 L7.747618675231934 14.688414573669434 C7.747992515563965 14.728755950927734 7.751976490020752 14.75888729095459 7.759073734283447 14.778684616088867 A0.09786465764045715 0.09786465764045715 0.0 0 0 7.795555114746094 14.826122283935547 C7.8072590827941895 14.83434009552002 7.823943614959717 14.838324546813965 7.845608234405518 14.838324546813965 C7.879848003387451 14.838324546813965 7.904999256134033 14.826372146606445 7.921185493469238 14.802839279174805 C7.936997890472412 14.779306411743164 7.945215702056885 14.739338874816895 7.945215702056885 14.68343448638916 L7.945215702056885 14.116540908813477 L7.945340156555176 14.116540908813477 L7.945340156555176 14.116540908813477 M9.102907180786133 14.116540908813477 L9.409076690673828 14.116540908813477 L9.409076690673828 14.664632797241211 C9.409076690673828 14.718918800354004 9.399739265441895 14.770217895507812 9.381560325622559 14.818527221679688 A0.3270871043205261 0.3270871043205261 0.0 0 1 9.295648574829102 14.945029258728027 A0.34738218784332275 0.34738218784332275 0.0 0 1 9.172632217407227 15.021352767944336 C9.112993240356445 15.041523933410645 9.041647911071777 15.051982879638672 8.957853317260742 15.051982879638672 C8.909543991088867 15.051982879638672 8.856876373291016 15.048870086669922 8.799851417541504 15.042520523071289 C8.742700576782227 15.036170959472656 8.695137977600098 15.023843765258789 8.65678882598877 15.005291938781738 C8.618315696716309 14.986615180969238 8.583203315734863 14.960094451904297 8.551329612731934 14.925729751586914 C8.519454956054688 14.891365051269531 8.497665405273438 14.85612964630127 8.4859619140625 14.819896697998047 C8.46716022491455 14.761253356933594 8.457573890686035 14.709456443786621 8.457573890686035 14.664508819580078 L8.457573890686035 14.116416931152344 L8.76374340057373 14.116416931152344 L8.76374340057373 14.67770767211914 C8.76374340057373 14.727760314941406 8.77880859375 14.766980171203613 8.80856704711914 14.795120239257812 C8.83869743347168 14.823383331298828 8.880159378051758 14.83745288848877 8.933574676513672 14.83745288848877 C8.986241340637207 14.83745288848877 9.027828216552734 14.82363224029541 9.05795955657959 14.795618057250977 C9.087717056274414 14.76810073852539 9.102783203125 14.728507041931152 9.102783203125 14.67770767211914 L9.102783203125 14.116540908813477 L9.102907180786133 14.116540908813477 L9.102907180786133 14.116540908813477 M9.608790397644043 14.116540908813477 L10.012327194213867 14.116540908813477 L10.168088912963867 14.6758394241333 L10.323227882385254 14.116540908813477 L10.725269317626953 14.116540908813477 L10.725269317626953 15.035797119140625 L10.47475528717041 15.035797119140625 L10.47475528717041 14.334931373596191 L10.280396461486816 15.035797119140625 L10.053664207458496 15.035797119140625 L9.8599271774292 14.334931373596191 L9.8599271774292 15.035797119140625 L9.608665466308594 15.035797119140625 L9.608665466308594 14.116540908813477 L9.608790397644043 14.116540908813477 L9.608790397644043 14.116540908813477 M10.867708206176758 14.731494903564453 L11.15955924987793 14.714686393737793 C11.165909767150879 14.758513450622559 11.178857803344727 14.792007446289062 11.198282241821289 14.815165519714355 C11.229659080505371 14.852394104003906 11.274979591369629 14.870572090148926 11.333623886108398 14.870572090148926 C11.377450942993164 14.870572090148926 11.411069869995117 14.861358642578125 11.434849739074707 14.842060089111328 C11.458382606506348 14.823134422302246 11.470211029052734 14.800971984863281 11.470211029052734 14.775944709777832 C11.470211029052734 14.752412796020508 11.459129333496094 14.730997085571289 11.436469078063965 14.711946487426758 C11.41380786895752 14.693270683288574 11.361639022827148 14.67546558380127 11.279336929321289 14.65865707397461 C11.144742965698242 14.63064193725586 11.048870086669922 14.59378719329834 10.991596221923828 14.547220230102539 C10.933698654174805 14.500778198242188 10.904812812805176 14.441636085510254 10.904812812805176 14.369669914245605 C10.904812812805176 14.322480201721191 10.919629096984863 14.277780532836914 10.949262619018555 14.235696792602539 C10.978771209716797 14.193861961364746 11.023221015930176 14.16074275970459 11.082488059997559 14.136712074279785 C11.142003059387207 14.11268138885498 11.223183631896973 14.100728988647461 11.32652759552002 14.100728988647461 C11.453526496887207 14.100728988647461 11.550271034240723 14.122642517089844 11.616884231567383 14.166345596313477 C11.683496475219727 14.20992374420166 11.722966194152832 14.279399871826172 11.735790252685547 14.37452507019043 L11.446678161621094 14.390337944030762 C11.438959121704102 14.349000930786133 11.422897338867188 14.318869590759277 11.398119926452637 14.299819946289062 C11.373591423034668 14.281392097473145 11.339600563049316 14.271804809570312 11.296395301818848 14.271804809570312 C11.260537147521973 14.271804809570312 11.23376750946045 14.278653144836426 11.215713500976562 14.292722702026367 C11.197659492492676 14.306792259216309 11.188694953918457 14.323850631713867 11.188694953918457 14.34402084350586 C11.188694953918457 14.358588218688965 11.196040153503418 14.371538162231445 11.210982322692871 14.383365631103516 C11.225549697875977 14.395566940307617 11.259665489196777 14.406524658203125 11.31407642364502 14.417107582092285 C11.448172569274902 14.443877220153809 11.544046401977539 14.470895767211914 11.60194206237793 14.49828815460205 C11.659964561462402 14.525556564331055 11.70229721069336 14.55954647064209 11.728693008422852 14.600137710571289 C11.754965782165527 14.640478134155273 11.768411636352539 14.685924530029297 11.768411636352539 14.736351013183594 C11.768411636352539 14.795244216918945 11.750482559204102 14.849405288696289 11.715371131896973 14.899085998535156 C11.680258750915527 14.948888778686523 11.631077766418457 14.986615180969238 11.567702293395996 15.012388229370117 C11.504700660705566 15.03791332244873 11.424890518188477 15.050862312316895 11.328892707824707 15.050862312316895 C11.160181999206543 15.050862312316895 11.043143272399902 15.020979881286621 10.978273391723633 14.960344314575195 C10.9129056930542 14.90082836151123 10.876174926757812 14.824378967285156 10.867708206176758 14.731494903564453 L10.867708206176758 14.731494903564453 M11.923551559448242 14.116540908813477 L12.230093955993652 14.116540908813477 L12.230093955993652 14.463798522949219 L12.551827430725098 14.116540908813477 L12.959596633911133 14.116540908813477 L12.597771644592285 14.463301658630371 L12.975658416748047 15.035797119140625 L12.597771644592285 15.035797119140625 L12.388595581054688 14.657660484313965 L12.230093955993652 14.81130599975586 L12.230093955993652 15.035797119140625 L11.923551559448242 15.035797119140625 L11.923551559448242 14.116540908813477 L11.923551559448242 14.116540908813477 M13.089584350585938 14.116540908813477 L13.39699935913086 14.116540908813477 L13.39699935913086 15.035797119140625 L13.089584350585938 15.035797119140625 L13.089584350585938 14.116540908813477 M14.082550048828125 15.035797119140625 L14.082550048828125 14.116540908813477 L14.59366226196289 14.116540908813477 C14.688539505004883 14.116540908813477 14.761253356933594 14.124136924743652 14.811057090759277 14.139451026916504 C14.861109733581543 14.154268264770508 14.901575088500977 14.182282447814941 14.932453155517578 14.223121643066406 C14.963083267211914 14.263711929321289 14.978398323059082 14.313390731811523 14.978398323059082 14.371662139892578 C14.978398323059082 14.422959327697754 14.966444969177246 14.466787338256836 14.943161010742188 14.503767013549805 A0.2681939899921417 0.2681939899921417 0.0 0 1 14.846417427062988 14.594036102294922 C14.820145606994629 14.608604431152344 14.784162521362305 14.620805740356445 14.738716125488281 14.630019187927246 C14.775446891784668 14.641474723815918 14.80196762084961 14.652929306030273 14.81877613067627 14.664011001586914 C14.82998275756836 14.671606063842773 14.846292495727539 14.687542915344238 14.867958068847656 14.712196350097656 C14.889373779296875 14.736973762512207 14.903691291809082 14.756023406982422 14.910788536071777 14.769346237182617 L15.059080123901367 15.035921096801758 L14.712570190429688 15.035921096801758 L14.548714637756348 14.754777908325195 C14.528045654296875 14.718794822692871 14.509368896484375 14.695013999938965 14.493059158325195 14.684056282043457 A0.1367117017507553 0.1367117017507553 0.0 0 0 14.417854309082031 14.66288948059082 L14.390836715698242 14.66288948059082 L14.390836715698242 15.035921096801758 L14.082550048828125 15.035921096801758 L14.082550048828125 15.035797119140625 L14.082550048828125 15.035797119140625 M14.39058780670166 14.488824844360352 L14.519952774047852 14.488824844360352 C14.533773422241211 14.488824844360352 14.561040878295898 14.484965324401855 14.601133346557617 14.476374626159668 A0.08217643201351166 0.08217643201351166 0.0 0 0 14.670111656188965 14.394198417663574 C14.670111656188965 14.364564895629883 14.65990161895752 14.341903686523438 14.639482498168945 14.326090812683105 C14.619312286376953 14.310029983520508 14.581087112426758 14.3020601272583 14.525181770324707 14.3020601272583 L14.390462875366211 14.3020601272583 L14.390462875366211 14.488824844360352 L14.39058780670166 14.488824844360352 L14.39058780670166 14.488824844360352 M15.768038749694824 14.88401985168457 L15.418540000915527 14.88401985168457 L15.370354652404785 15.035797119140625 L15.057087898254395 15.035797119140625 L15.430119514465332 14.116540908813477 L15.764552116394043 14.116540908813477 L16.137832641601562 15.035797119140625 L15.816596984863281 15.035797119140625 L15.768038749694824 14.88401985168457 L15.768038749694824 14.88401985168457 M15.703791618347168 14.685052871704102 L15.593849182128906 14.354852676391602 L15.484903335571289 14.685052871704102 L15.703791618347168 14.685052871704102 M16.240304946899414 14.116540908813477 L16.696008682250977 14.116540908813477 C16.785531997680664 14.116540908813477 16.858245849609375 14.127996444702148 16.913652420043945 14.150283813476562 C16.96881103515625 14.173192977905273 17.014629364013672 14.20544147491455 17.050613403320312 14.247526168823242 C17.08684539794922 14.2898588180542 17.112869262695312 14.338915824890137 17.129179000854492 14.39494514465332 C17.145488739013672 14.451099395751953 17.153459548950195 14.510490417480469 17.153459548950195 14.572994232177734 C17.153459548950195 14.671232223510742 17.14150619506836 14.747307777404785 17.117225646972656 14.801593780517578 A0.3726576566696167 0.3726576566696167 0.0 0 1 17.016746520996094 14.937559127807617 C16.973915100097656 14.974040031433105 16.92797088623047 14.998568534851074 16.878665924072266 15.010769844055176 A0.7707152962684631 0.7707152962684631 0.0 0 1 16.696008682250977 15.035797119140625 L16.240304946899414 15.035797119140625 L16.240304946899414 14.116540908813477 L16.240304946899414 14.116540908813477 M16.546846389770508 14.324971199035645 L16.546846389770508 14.82686996459961 L16.622051239013672 14.82686996459961 C16.686298370361328 14.82686996459961 16.73174285888672 14.820270538330078 16.75876235961914 14.807197570800781 C16.785781860351562 14.794123649597168 16.80719757080078 14.770964622497559 16.822511672973633 14.738343238830566 C16.837825775146484 14.705472946166992 16.845670700073242 14.65230655670166 16.845670700073242 14.578596115112305 C16.845670700073242 14.481354713439941 16.8283634185791 14.414742469787598 16.794124603271484 14.378759384155273 C16.7598819732666 14.342775344848633 16.70298194885254 14.324971199035645 16.62342071533203 14.324971199035645 L16.546846389770508 14.324971199035645 L16.546846389770508 14.324971199035645 M17.3270263671875 14.116540908813477 L17.63443946838379 14.116540908813477 L17.63443946838379 15.035797119140625 L17.3270263671875 15.035797119140625 L17.3270263671875 14.116540908813477 M18.267446517944336 14.116540908813477 L18.57486343383789 14.116540908813477 L18.57486343383789 14.616323471069336 C18.57486343383789 14.721160888671875 18.564651489257812 14.800847053527832 18.54448127746582 14.855880737304688 C18.524311065673828 14.910539627075195 18.48421859741211 14.956981658935547 18.42333221435547 14.995206832885742 C18.362573623657227 15.032933235168457 18.285003662109375 15.052106857299805 18.190126419067383 15.052106857299805 C18.08989715576172 15.052106857299805 18.01207733154297 15.039656639099121 17.957170486450195 15.01438045501709 A0.2821390926837921 0.2821390926837921 0.0 0 1 17.829795837402344 14.904438972473145 C17.799663543701172 14.85600471496582 17.7818603515625 14.796488761901855 17.776504516601562 14.725393295288086 L18.069602966308594 14.688414573669434 C18.070098876953125 14.728755950927734 18.073959350585938 14.75888729095459 18.08130645751953 14.778684616088867 A0.0971175953745842 0.0971175953745842 0.0 0 0 18.117786407470703 14.826122283935547 C18.12948989868164 14.83434009552002 18.146299362182617 14.838324546813965 18.16783905029297 14.838324546813965 C18.20207977294922 14.838324546813965 18.227230072021484 14.826372146606445 18.243417739868164 14.802839279174805 C18.25922966003418 14.779306411743164 18.267446517944336 14.739338874816895 18.267446517944336 14.68343448638916 L18.267446517944336 14.116540908813477 M19.353918075561523 14.88401985168457 L19.00442123413086 14.88401985168457 L18.956233978271484 15.035797119140625 L18.642969131469727 15.035797119140625 L19.016000747680664 14.116540908813477 L19.350433349609375 14.116540908813477 L19.723712921142578 15.035797119140625 L19.402725219726562 15.035797119140625 L19.353918075561523 14.88401985168457 L19.353918075561523 14.88401985168457 M19.289794921875 14.685052871704102 L19.179855346679688 14.354852676391602 L19.070907592773438 14.685052871704102 L19.289794921875 14.685052871704102 M19.65697479248047 14.116540908813477 L20.589305877685547 14.116540908813477 L20.589305877685547 14.343647003173828 L20.276287078857422 14.343647003173828 L20.276287078857422 15.035797119140625 L19.969619750976562 15.035797119140625 L19.969619750976562 14.343647003173828 L19.656850814819336 14.343647003173828 L19.656850814819336 14.116540908813477 L19.65697479248047 14.116540908813477 M20.641599655151367 14.576604843139648 C20.641599655151367 14.426569938659668 20.687044143676758 14.30978012084961 20.77706527709961 14.226484298706055 C20.867584228515625 14.142812728881836 20.993213653564453 14.100976943969727 21.154205322265625 14.100976943969727 C21.31955337524414 14.100976943969727 21.44680404663086 14.14206600189209 21.53620147705078 14.224242210388184 C21.62547492980957 14.306169509887695 21.67042350769043 14.42121696472168 21.67042350769043 14.569258689880371 C21.67042350769043 14.676462173461914 21.65074920654297 14.764739036560059 21.611530303955078 14.833344459533691 A0.40303805470466614 0.40303805470466614 0.0 0 1 21.44232177734375 14.993836402893066 C21.368362426757812 15.032310485839844 21.276723861694336 15.051236152648926 21.16653060913086 15.051236152648926 C21.05472183227539 15.051236152648926 20.961963653564453 15.034675598144531 20.888626098632812 15.001930236816406 C20.815166473388672 14.968561172485352 20.75589942932129 14.91651725769043 20.710079193115234 14.845046997070312 C20.66425895690918 14.773578643798828 20.641599655151367 14.684181213378906 20.641599655151367 14.576604843139648 L20.641599655151367 14.576604843139648 M20.94876480102539 14.577850341796875 C20.94876480102539 14.670734405517578 20.967191696166992 14.737346649169922 21.004173278808594 14.777936935424805 C21.041648864746094 14.818527221679688 21.092449188232422 14.838698387145996 21.15644645690918 14.838698387145996 C21.222312927246094 14.838698387145996 21.273237228393555 14.81877613067627 21.30946922302246 14.779306411743164 C21.3454532623291 14.739463806152344 21.363754272460938 14.668119430541992 21.363754272460938 14.565275192260742 C21.363754272460938 14.478740692138672 21.345077514648438 14.415738105773926 21.307104110717773 14.375646591186523 C21.26962661743164 14.335803031921387 21.218578338623047 14.31588077545166 21.15370750427246 14.31588077545166 C21.092199325561523 14.31588077545166 21.042272567749023 14.336051940917969 21.004919052124023 14.37689208984375 C20.967191696166992 14.417356491088867 20.94876480102539 14.484467506408691 20.94876480102539 14.577850341796875 L20.94876480102539 14.577850341796875 M21.839508056640625 15.035797119140625 L21.839508056640625 14.116540908813477 L22.35062026977539 14.116540908813477 C22.44549560546875 14.116540908813477 22.517959594726562 14.124136924743652 22.56801414489746 14.139451026916504 C22.618066787719727 14.154268264770508 22.658531188964844 14.182282447814941 22.68916130065918 14.223121643066406 C22.72003936767578 14.263711929321289 22.735355377197266 14.313390731811523 22.735355377197266 14.371662139892578 C22.735355377197266 14.422959327697754 22.723403930664062 14.466787338256836 22.700119018554688 14.503767013549805 A0.2681939899921417 0.2681939899921417 0.0 0 1 22.603374481201172 14.594036102294922 C22.576854705810547 14.608604431152344 22.541118621826172 14.620805740356445 22.49567413330078 14.630019187927246 C22.532154083251953 14.641474723815918 22.558673858642578 14.652929306030273 22.575733184814453 14.664011001586914 C22.586938858032227 14.671606063842773 22.603248596191406 14.687542915344238 22.624666213989258 14.712196350097656 A0.3486272692680359 0.3486272692680359 0.0 0 1 22.66774559020996 14.769346237182617 L22.816036224365234 15.035921096801758 L22.469528198242188 15.035921096801758 L22.30567169189453 14.754777908325195 C22.285003662109375 14.718794822692871 22.266326904296875 14.695013999938965 22.250015258789062 14.684056282043457 A0.1367117017507553 0.1367117017507553 0.0 0 0 22.17481231689453 14.66288948059082 L22.14779281616211 14.66288948059082 L22.14779281616211 15.035921096801758 L21.839508056640625 15.035921096801758 L21.839508056640625 15.035797119140625 L21.839508056640625 15.035797119140625 M22.147668838500977 14.488824844360352 L22.277034759521484 14.488824844360352 C22.290855407714844 14.488824844360352 22.317874908447266 14.484965324401855 22.35796356201172 14.476374626159668 A0.08217643201351166 0.08217643201351166 0.0 0 0 22.42719268798828 14.394198417663574 C22.42719268798828 14.364564895629883 22.41698455810547 14.341903686523438 22.396564483642578 14.326090812683105 C22.376392364501953 14.310029983520508 22.33816909790039 14.3020601272583 22.282264709472656 14.3020601272583 L22.147544860839844 14.3020601272583 L22.147544860839844 14.488824844360352 L22.147668838500977 14.488824844360352 L22.147668838500977 14.488824844360352 M22.926353454589844 14.116540908813477 L23.233768463134766 14.116540908813477 L23.233768463134766 15.035797119140625 L22.926353454589844 15.035797119140625 L22.926353454589844 14.116540908813477" fill="black" fill-opacity="1.0" filling="0"/>
<path animation_id="3" d="M23.299135208129883 8.895598411560059 L23.299135208129883 12.963083267211914 C23.299135208129883 13.103404998779297 23.31980323791504 13.385046005249023 23.616260528564453 13.395256042480469 L23.60916519165039 13.641661643981934 L21.691463470458984 13.641661643981934 L21.691463470458984 13.416671752929688 C21.8504638671875 13.350557327270508 21.990787506103516 13.291664123535156 21.990787506103516 12.963083267211914 L21.990787506103516 10.400921821594238 C21.990787506103516 10.171574592590332 21.87362289428711 9.824440956115723 21.549152374267578 9.758949279785156 L23.299135208129883 8.895598411560059 L23.299135208129883 8.895598411560059 M17.25817108154297 8.995330810546875 L17.25817108154297 10.281018257141113 L17.982818603515625 10.281018257141113 L17.894290924072266 10.58307933807373 L17.26539421081543 10.58307933807373 L17.258047103881836 12.735105514526367 C17.257051467895508 12.987985610961914 17.514785766601562 13.191308975219727 17.97547149658203 13.133910179138184 C17.83104133605957 13.448795318603516 17.487144470214844 13.66718578338623 17.07028579711914 13.672290802001953 C16.59291648864746 13.677892684936523 16.253252029418945 13.440328598022461 16.10458755493164 13.093942642211914 C15.989043235778809 12.824503898620605 15.982942581176758 12.48646068572998 15.982942581176758 12.164976119995117 L15.982942581176758 10.58307933807373 L15.629085540771484 10.58307933807373 L17.25817108154297 8.995330810546875 L17.25817108154297 8.995330810546875 M12.117288589477539 11.115110397338867 C11.856315612792969 10.614456176757812 11.260786056518555 10.791882514953613 11.262778282165527 11.200149536132812 L11.271120071411133 12.870945930480957 C11.273237228393555 13.288053512573242 11.865280151367188 13.398368835449219 12.117288589477539 12.950508117675781 L12.117288589477539 11.115110397338867 M13.423022270202637 9.0748929977417 L13.423022270202637 12.841312408447266 C13.423022270202637 13.237503051757812 13.393388748168945 13.372221946716309 13.768536567687988 13.452654838562012 L13.768536567687988 13.632572174072266 L12.08479118347168 13.633567810058594 L12.068605422973633 13.359771728515625 C11.806138038635254 13.589118003845215 11.594347953796387 13.721596717834473 11.17811107635498 13.708024978637695 C10.437652587890625 13.683745384216309 10.033369064331055 12.742077827453613 10.063250541687012 11.967752456665039 C10.103218078613281 10.928842544555664 10.964950561523438 9.803524017333984 12.076823234558105 10.631389617919922 C12.038473129272461 10.191619873046875 11.946709632873535 9.971735954284668 11.677146911621094 9.735417366027832 L13.423022270202637 9.0748929977417 L13.423022270202637 9.0748929977417 M7.837764263153076 10.312644004821777 L7.853950023651123 10.702857971191406 C8.102222442626953 10.469402313232422 8.400921821594238 10.295336723327637 8.78005313873291 10.312768936157227 C9.623482704162598 10.351366996765137 9.870759010314941 11.017742156982422 9.870759010314941 11.653862953186035 L9.870759010314941 12.927099227905273 C9.870759010314941 13.179231643676758 9.897154808044434 13.296022415161133 9.948826789855957 13.35703182220459 C10.00124454498291 13.419037818908691 10.110441207885742 13.458632469177246 10.276162147521973 13.47544002532959 L10.276162147521973 13.641536712646484 L8.622549057006836 13.641536712646484 L8.605365753173828 11.397994995117188 C8.602752685546875 11.05746078491211 8.429309844970703 10.924734115600586 8.292472839355469 10.91464900970459 C8.070596694946289 10.898338317871094 7.954802989959717 10.984622955322266 7.8458571434021 11.174749374389648 L7.8458571434021 12.92697525024414 C7.8458571434021 13.171886444091797 7.871506214141846 13.294901847839355 7.923924446105957 13.360269546508789 C7.976841449737549 13.426135063171387 8.073211669921875 13.458507537841797 8.215651512145996 13.475316047668457 L8.215651512145996 13.641411781311035 L6.227853298187256 13.641411781311035 L6.227853298187256 13.475316047668457 C6.385357856750488 13.460997581481934 6.448982238769531 13.457510948181152 6.515843868255615 13.382182121276855 C6.5612897872924805 13.331133842468262 6.584324359893799 13.179107666015625 6.584324359893799 12.92697525024414 L6.584324359893799 11.560107231140137 C6.584324359893799 11.455020904541016 6.467409610748291 11.091452598571777 6.203324317932129 11.06107234954834 L7.837764263153076 10.312644004821777 L7.837764263153076 10.312644004821777 M2.047189712524414 10.753283500671387 L2.047189712524414 12.983378410339355 C2.047189712524414 13.203262329101562 2.0704727172851562 13.341094970703125 2.1176624298095703 13.396750450134277 C2.181036949157715 13.471456527709961 2.2934694290161133 13.510552406311035 2.4520950317382812 13.516155242919922 L2.4520950317382812 13.641661643981934 L0.45533180236816406 13.641661643981934 L0.45533180236816406 13.502832412719727 C0.512232780456543 13.49411678314209 0.5570564270019531 13.481417655944824 0.5900516510009766 13.46485710144043 C0.6509370803833008 13.43372917175293 0.6938924789428711 13.389654159545898 0.7177982330322266 13.33349895477295 C0.7405834197998047 13.277345657348633 0.7524127960205078 13.16130256652832 0.7524127960205078 12.983378410339355 L0.7524127960205078 10.753283500671387 L0.3980579376220703 10.753283500671387 C0.5028953552246094 10.485214233398438 0.7835397720336914 10.134221076965332 1.0842313766479492 9.815227508544922 C1.3368606567382812 9.547158241271973 1.6182537078857422 9.317686080932617 1.901139259338379 9.162298202514648 C2.0946273803710938 9.055967330932617 2.288863182067871 8.975658416748047 2.475253105163574 8.975658416748047 C2.9324541091918945 8.975658416748047 3.3384790420532227 9.212600708007812 3.3384790420532227 9.655855178833008 C3.3384790420532227 9.912593841552734 3.071157455444336 10.052294731140137 2.842184066772461 10.052294731140137 C2.664881706237793 10.052294731140137 2.48284912109375 9.943347930908203 2.4141197204589844 9.755836486816406 C2.3605804443359375 9.609786987304688 2.2803964614868164 9.411566734313965 2.009960174560547 9.411566734313965 C1.7299385070800781 9.444188117980957 1.7474937438964844 9.555749893188477 1.710017204284668 9.61750602722168 C1.560978889465332 9.86279010772705 1.866276741027832 10.269813537597656 2.047189712524414 10.475876808166504 L2.61246395111084 10.475876808166504 L2.61246395111084 10.753408432006836 L2.047189712524414 10.753408432006836 L2.047189712524414 10.753283500671387 L2.047189712524414 10.753283500671387 M4.382867813110352 10.271804809570312 C4.711822032928467 10.271804809570312 5.018614292144775 10.344643592834473 5.301998615264893 10.491689682006836 C5.585258483886719 10.63861083984375 5.800161838531494 10.847911834716797 5.947581768035889 11.118844985961914 C6.094627857208252 11.389031410217285 6.168710708618164 11.684990882873535 6.168710708618164 12.007596015930176 C6.168710708618164 12.472265243530273 6.032248497009277 12.859989166259766 5.759571552276611 13.172384262084961 C5.42962121963501 13.550271034240723 4.975907802581787 13.739774703979492 4.395318508148193 13.739774703979492 C3.8259363174438477 13.739774703979492 3.386789321899414 13.566083908081055 3.0796241760253906 13.221315383911133 C2.771836280822754 12.875802040100098 2.6179418563842773 12.476000785827637 2.6179418563842773 12.0219144821167 C2.6179418563842773 11.552387237548828 2.7750730514526367 11.143622398376465 3.0892105102539062 10.795119285583496 C3.4037227630615234 10.445870399475098 3.8355226516723633 10.271804809570312 4.382867813110352 10.271804809570312 L4.382867813110352 10.271804809570312 M4.376891136169434 10.510116577148438 L4.409512996673584 10.510116577148438 A0.47400858998298645 0.47400858998298645 0.0 0 1 4.8821516036987305 10.982879638671875 L4.8821516036987305 13.02857494354248 A0.47413310408592224 0.47413310408592224 0.0 0 1 4.409512996673584 13.501338005065918 L4.376891136169434 13.501338005065918 A0.47413310408592224 0.47413310408592224 0.0 0 1 3.904252052307129 13.02857494354248 L3.904252052307129 10.982879638671875 A0.47400858998298645 0.47400858998298645 0.0 0 1 4.376891136169434 10.510116577148438 M15.504327774047852 10.261096954345703 L15.505073547363281 12.927224159240723 C15.505073547363281 13.166781425476074 15.467845916748047 13.392143249511719 15.823445320129395 13.475564956665039 L15.823445320129395 13.641661643981934 L13.923925399780273 13.641661643981934 L13.923925399780273 13.475564956665039 C14.259478569030762 13.376081466674805 14.243417739868164 13.203636169433594 14.243417739868164 12.927224159240723 L14.243417739868164 11.560107231140137 C14.243417739868164 11.455020904541016 14.119155883789062 11.017867088317871 13.85531997680664 10.9873628616333 L15.504327774047852 10.261096954345703 M14.827117919921875 8.821391105651855 C15.242233276367188 8.821391105651855 15.457013130187988 9.140135765075684 15.450413703918457 9.453900337219238 C15.444064140319824 9.757953643798828 15.22916030883789 10.075078964233398 14.827117919921875 10.075078964233398 C14.420221328735352 10.075078964233398 14.196850776672363 9.74836540222168 14.197223663330078 9.439457893371582 C14.19759750366211 9.130548477172852 14.422212600708008 8.821391105651855 14.827117919921875 8.821391105651855 M19.81896209716797 12.95511531829834 L19.81896209716797 11.689722061157227 C19.462989807128906 11.798543930053711 19.06804656982422 12.382617950439453 19.26987648010254 12.871941566467285 C19.36861228942871 13.111747741699219 19.667434692382812 13.038536071777344 19.81896209716797 12.95511531829834 M19.944469451904297 13.18122386932373 C19.75459098815918 13.419784545898438 19.366371154785156 13.615513801574707 18.98686408996582 13.621366500854492 C18.556682586669922 13.627716064453125 18.10869789123535 13.341716766357422 18.10869789123535 12.762248992919922 C18.10869789123535 12.570379257202148 18.19797134399414 12.310402870178223 18.481977462768555 12.085040092468262 C18.786901473999023 11.843117713928223 19.285688400268555 11.594347953796387 19.907489776611328 11.381685256958008 C19.907489776611328 11.261656761169434 19.93525505065918 11.019734382629395 19.90064239501953 10.816783905029297 C19.866151809692383 10.615201950073242 19.762310028076172 10.43976879119873 19.54467010498047 10.440889358520508 C19.069787979125977 10.443503379821777 19.18956756591797 11.053352355957031 19.13565444946289 11.236257553100586 C19.09892463684082 11.361265182495117 19.000686645507812 11.56832504272461 18.730749130249023 11.56832504272461 C18.323850631713867 11.56832504272461 18.270435333251953 11.293532371520996 18.26308822631836 11.138766288757324 C18.231464385986328 10.478864669799805 19.12494659423828 10.183154106140137 19.838138580322266 10.212663650512695 C20.387723922729492 10.235447883605957 20.96843719482422 10.508498191833496 21.11872100830078 10.89771556854248 C21.15644645690918 10.995579719543457 21.17337989807129 11.221441268920898 21.17337989807129 11.573927879333496 L21.17337989807129 12.843802452087402 C21.17337989807129 13.081117630004883 21.25991439819336 13.330137252807617 21.60605239868164 13.252817153930664 C21.230403900146484 13.756086349487305 20.276660919189453 13.69918441772461 19.944469451904297 13.18122386932373 L19.944469451904297 13.18122386932373" fill="black" fill-opacity="1.0" filling="0"/></svg>