<?xml version="1.0" encoding="iso-8859-1"?><svg height="200px" viewBox="0.0 0.0 24.0 24.0" width="200px" xmlns="http://www.w3.org/2000/svg"><path animation_id="0" d="M0.0 24.0 L24.0 24.0 L24.0 0.0 L0.0 0.0 L0.0 24.0" fill="black" fill-opacity="1.0" filling="0"/>
<path animation_id="1" d="M0.3527364730834961 13.487642288208008 L0.3527364730834961 11.716989517211914 C0.3527364730834961 11.42924690246582 0.44972896575927734 11.180228233337402 0.6432170867919922 10.969432830810547 C0.8365812301635742 10.758139610290527 1.0935688018798828 10.652804374694824 1.4131851196289062 10.652804374694824 L1.4460563659667969 10.652804374694824 C1.6105337142944336 10.652804374694824 1.767664909362793 10.688539505004883 1.917698860168457 10.759634017944336 C2.084916114807129 10.841188430786133 2.221503257751465 10.964452743530273 2.327834129333496 11.129427909851074 C2.433793067932129 11.294528007507324 2.486957550048828 11.498723983764648 2.486957550048828 11.741891860961914 L2.486957550048828 13.487642288208008 L1.6170082092285156 13.487642288208008 L1.6170082092285156 12.631139755249023 L1.3550395965576172 12.631139755249023 L1.3550395965576172 11.924298286437988 L1.6170082092285156 11.924298286437988 L1.6170082092285156 11.66232967376709 C1.6170082092285156 11.59621524810791 1.5980825424194336 11.544543266296387 1.5608549118041992 11.506692886352539 C1.5230035781860352 11.469463348388672 1.4738216400146484 11.450538635253906 1.4131851196289062 11.450538635253906 C1.3615140914916992 11.450538635253906 1.3168144226074219 11.469463348388672 1.2790889739990234 11.506692886352539 C1.2417354583740234 11.544543266296387 1.2228097915649414 11.59621524810791 1.2228097915649414 11.66232967376709 L1.2228097915649414 13.487642288208008 L0.3527364730834961 13.487642288208008 M2.8383235931396484 10.699495315551758 L3.710141181945801 10.699495315551758 L3.710141181945801 12.547470092773438 C3.710141181945801 12.667869567871094 3.774886131286621 12.73448371887207 3.90462589263916 12.747307777404785 C4.0363569259643555 12.73585319519043 4.102471828460693 12.668742179870605 4.102471828460693 12.547470092773438 L4.102471828460693 10.699495315551758 L4.966320514678955 10.699495315551758 L4.966320514678955 12.547470092773438 C4.966320514678955 12.73572826385498 4.921123027801514 12.904438972473145 4.830604553222656 13.055219650268555 C4.74021053314209 13.20625114440918 4.612961769104004 13.323912620544434 4.44885778427124 13.408578872680664 C4.28537654876709 13.493743896484375 4.108821392059326 13.535703659057617 3.919940948486328 13.535703659057617 L3.90462589263916 13.535703659057617 C3.6988115310668945 13.535703659057617 3.5144119262695312 13.49411678314209 3.351801872253418 13.410447120666504 A0.9317063689231873 0.9317063689231873 0.0 0 1 2.970553398132324 13.053975105285645 A0.9542427062988281 0.9542427062988281 0.0 0 1 2.8716936111450195 12.815414428710938 A0.9898524284362793 0.9898524284362793 0.0 0 1 2.838449478149414 12.557430267333984 L2.838449478149414 10.699495315551758 L2.8383235931396484 10.699495315551758 L2.8383235931396484 10.699495315551758 M5.636929512023926 13.487642288208008 L5.636929512023926 11.499346733093262 L5.178609371185303 11.499346733093262 L5.178609371185303 10.706966400146484 L6.9650750160217285 10.706966400146484 L6.9650750160217285 11.499346733093262 L6.499408721923828 11.499346733093262 L6.499408721923828 13.487642288208008 L5.636929512023926 13.487642288208008 L5.636929512023926 13.487642288208008 M7.096930980682373 12.075950622558594 C7.096930980682373 11.85718822479248 7.154579162597656 11.638050079345703 7.2698750495910645 11.41878890991211 C7.384673118591309 11.199028968811035 7.550769329071045 11.016622543334961 7.766918182373047 10.870945930480957 C7.982693195343018 10.725393295288086 8.235198974609375 10.652804374694824 8.523937225341797 10.652804374694824 C8.804831504821777 10.652804374694824 9.05484676361084 10.717923164367676 9.273611068725586 10.848658561706543 C9.492374420166016 10.97939395904541 9.663326263427734 11.159310340881348 9.787213325500488 11.388533592224121 C9.910975456237793 11.617630958557129 9.97260856628418 11.85805892944336 9.97260856628418 12.110689163208008 C9.97260856628418 12.314014434814453 9.932392120361328 12.503393173217773 9.852331161499023 12.679698944091797 C9.771774291992188 12.855755805969238 9.664446830749512 13.003922462463379 9.5297269821167 13.124198913574219 A1.592604160308838 1.592604160308838 0.0 0 1 9.06592845916748 13.422773361206055 A1.3708523511886597 1.3708523511886597 0.0 0 1 8.80358600616455 13.505447387695312 A1.2106082439422607 1.2106082439422607 0.0 0 1 8.549586296081543 13.535578727722168 L8.504886627197266 13.535578727722168 C8.280644416809082 13.535578727722168 8.060885429382324 13.476934432983398 7.844736576080322 13.359272956848145 A1.4318621158599854 1.4318621158599854 0.0 0 1 7.300878047943115 12.836705207824707 C7.164913177490234 12.612712860107422 7.096930980682373 12.359334945678711 7.096930980682373 12.075950622558594 L7.096930980682373 12.075950622558594 M7.984187602996826 12.11081314086914 C7.984187602996826 12.274170875549316 8.038349151611328 12.405529022216797 8.147294998168945 12.505011558532715 C8.200336456298828 12.554193496704102 8.258108139038086 12.59254264831543 8.320239067077637 12.619810104370117 A0.5752350091934204 0.5752350091934204 0.0 0 0 8.519952774047852 12.656539916992188 C8.599017143249512 12.656539916992188 8.671606063842773 12.644089698791504 8.737720489501953 12.618813514709473 A0.6076075434684753 0.6076075434684753 0.0 0 0 8.922119140625 12.505011558532715 C9.031064987182617 12.408018112182617 9.085227966308594 12.271306991577148 9.085227966308594 12.095250129699707 C9.085227966308594 11.920811653137207 9.031438827514648 11.78559398651123 8.925107955932617 11.689722061157227 C8.818277359008789 11.593724250793457 8.687044143676758 11.546162605285645 8.531906127929688 11.546162605285645 A0.5498350262641907 0.5498350262641907 0.0 0 0 8.147294998168945 11.696321487426758 C8.038349151611328 11.796551704406738 7.984187602996826 11.9347562789917 7.984187602996826 12.11081314086914 L7.984187602996826 12.11081314086914" fill="black" fill-opacity="1.0" filling="0"/>
<path animation_id="2" d="M10.744816780090332 13.941231727600098 C10.773205757141113 13.766420364379883 10.796737670898438 13.116106033325195 10.816783905029297 11.991657257080078 L10.1029691696167 11.938865661621094 L10.816783905029297 11.316441535949707 L10.793998718261719 10.352612495422363 C10.727510452270508 10.333561897277832 10.476872444152832 10.306543350219727 10.041959762573242 10.2711820602417 A21.9189453125 21.9189453125 0.0 0 0 10.861732482910156 9.607669830322266 C11.194048881530762 9.659092903137207 11.55749225616455 9.690717697143555 11.952188491821289 9.702422142028809 C12.469900131225586 9.69208812713623 13.00740909576416 9.648758888244629 13.56521224975586 9.57318115234375 C13.38952922821045 9.77139949798584 13.238622665405273 9.932889938354492 13.111747741699219 10.0590181350708 C12.985743522644043 10.185271263122559 12.867335319519043 10.271929740905762 12.755898475646973 10.318994522094727 C12.62167739868164 10.373903274536133 12.409761428833008 10.409138679504395 12.11903190612793 10.424702644348145 C11.882213592529297 10.408516883850098 11.70852279663086 10.400423049926758 11.598331451416016 10.400423049926758 L11.598331451416016 11.30461311340332 L13.122954368591309 11.204133987426758 C12.96021842956543 11.422150611877441 12.833592414855957 11.583639144897461 12.742825508117676 11.68860149383545 C12.651434898376465 11.792815208435059 12.558674812316895 11.868392944335938 12.462430000305176 11.91533374786377 C12.332316398620605 11.974724769592285 12.14194107055664 12.012202262878418 11.891925811767578 12.027765274047852 C11.817842483520508 12.019548416137695 11.720226287841797 12.01606273651123 11.598331451416016 12.01606273651123 L11.610782623291016 13.3831787109375 L10.744816780090332 13.941231727600098 L10.744816780090332 13.941231727600098 M14.672601699829102 10.089024543762207 C14.58743667602539 10.161738395690918 14.503020286560059 10.234451293945312 14.41922378540039 10.306418418884277 A1.9850587844848633 1.9850587844848633 0.0 0 1 14.15887451171875 10.495673179626465 C14.069601058959961 10.549336433410645 13.98007869720459 10.578597068786621 13.892298698425293 10.582331657409668 C13.721969604492188 10.569134712219238 13.581398963928223 10.443628311157227 13.472078323364258 10.206437110900879 L14.174064636230469 9.642782211303711 C14.318869590759277 9.908485412597656 14.485090255737305 10.057523727416992 14.672601699829102 10.089024543762207 L14.672601699829102 10.089024543762207 M13.720476150512695 13.888190269470215 L13.720476150512695 13.277594566345215 C13.720476150512695 12.502272605895996 13.70590877532959 12.012825012207031 13.677643775939941 11.809500694274902 C13.657474517822266 11.633318901062012 13.581398963928223 11.545289993286133 13.44979190826416 11.545289993286133 C13.404096603393555 11.545289993286133 13.332130432128906 11.565088272094727 13.233892440795898 11.604059219360352 L13.212475776672363 11.46971321105957 C13.291291236877441 11.415427207946777 13.420158386230469 11.317687034606934 13.598705291748047 11.17686653137207 C13.776754379272461 11.036667823791504 13.912469863891602 10.936064720153809 14.005105972290039 10.876673698425293 C14.097989082336426 10.817157745361328 14.179044723510742 10.787151336669922 14.247526168823242 10.787151336669922 C14.383988380432129 10.787151336669922 14.463550567626953 10.925854682922363 14.485090255737305 11.204009056091309 C14.51397705078125 11.493868827819824 14.527921676635742 11.924797058105469 14.527921676635742 12.495922088623047 C14.536264419555664 12.680695533752441 14.540372848510742 12.96432876586914 14.540372848510742 13.347818374633789 L13.720476150512695 13.888190269470215 L13.720476150512695 13.888190269470215 M16.651185989379883 12.3145112991333 C16.681068420410156 12.237441062927246 16.695510864257812 12.145801544189453 16.695510864257812 12.039220809936523 C16.695510864257812 11.860922813415527 16.638858795166016 11.719106674194336 16.525182723999023 11.61501693725586 C16.41162872314453 11.510054588317871 16.283510208129883 11.458009719848633 16.140945434570312 11.458009719848633 C16.023283004760742 11.458009719848633 15.917325019836426 11.506319046020508 15.825188636779785 11.603312492370605 C15.73330020904541 11.700181007385254 15.683371543884277 11.812488555908203 15.675652503967285 11.939363479614258 C15.689598083496094 12.10832405090332 15.794808387756348 12.257112503051758 15.992155075073242 12.386478424072266 C16.083545684814453 12.437776565551758 16.28699493408203 12.48907470703125 16.604122161865234 12.539252281188965 C16.921247482299805 12.589802742004395 17.158063888549805 12.63238525390625 17.314573287963867 12.666251182556152 C17.47182846069336 12.699869155883789 17.62335968017578 12.771836280822754 17.77077865600586 12.881902694702148 C17.91832160949707 12.992094039916992 17.99240493774414 13.151092529296875 17.99240493774414 13.360518455505371 C17.972232818603516 13.567453384399414 17.87673568725586 13.774637222290039 17.704914093017578 13.98057746887207 C17.533212661743164 14.18626594543457 17.31594467163086 14.371163368225098 17.0528564453125 14.535516738891602 A3.7979207038879395 3.7979207038879395 0.0 0 1 16.226110458374023 14.9253568649292 C15.937496185302734 15.019984245300293 15.674904823303223 15.067919731140137 15.43746566772461 15.067919731140137 C15.038660049438477 15.047998428344727 14.826122283935547 14.916641235351562 14.801219940185547 14.674967765808105 C14.801219940185547 14.620681762695312 14.81927490234375 14.567266464233398 14.855257034301758 14.51522159576416 C14.891241073608398 14.462926864624023 14.951005935668945 14.397809028625488 15.034551620483398 14.319990158081055 C15.118968963623047 14.241424560546875 15.316441535949707 14.062255859375 15.627218246459961 13.781859397888184 L15.731059074401855 13.888315200805664 A0.6301438212394714 0.6301438212394714 0.0 0 0 15.637552261352539 14.139326095581055 C15.64240837097168 14.258980751037598 15.707527160644531 14.34576416015625 15.832908630371094 14.400050163269043 C15.958165168762207 14.45358943939209 16.097990036010742 14.480732917785645 16.251632690429688 14.480732917785645 C16.400423049926758 14.480732917785645 16.549463272094727 14.444002151489258 16.696880340576172 14.371288299560547 C16.84492301940918 14.298076629638672 16.964702606201172 14.204693794250488 17.056962966918945 14.09089183807373 C17.14885139465332 13.977339744567871 17.194671630859375 13.866151809692383 17.194671630859375 13.758451461791992 C17.194671630859375 13.494864463806152 16.974414825439453 13.330387115478516 16.53476905822754 13.26601505279541 C16.394197463989258 13.253314971923828 16.2432918548584 13.240241050720215 16.0813045501709 13.22492790222168 A3.2668867111206055 3.2668867111206055 0.0 0 1 15.58824634552002 13.13951301574707 C15.421278953552246 13.097678184509277 15.275228500366211 13.026707649230957 15.150594711303711 12.92523193359375 C15.02670669555664 12.824752807617188 14.958227157592773 12.689784049987793 14.94565200805664 12.5200777053833 C14.94565200805664 12.394571304321289 15.002552032470703 12.234576225280762 15.115981101989746 12.040091514587402 C15.229658126831055 11.846354484558105 15.377949714660645 11.653365135192871 15.559858322143555 11.461620330810547 C15.742637634277344 11.270124435424805 15.934383392333984 11.112245559692383 16.135217666625977 10.987486839294434 C16.336673736572266 10.862728118896484 16.519454956054688 10.800224304199219 16.68492889404297 10.800224304199219 C16.738964080810547 10.800224304199219 16.810932159423828 10.815787315368652 16.90095329284668 10.846541404724121 C16.97503662109375 10.846541404724121 17.03243637084961 10.850152969360352 17.07265281677246 10.858992576599121 C17.221439361572266 10.853140830993652 17.428375244140625 10.836955070495605 17.69432830810547 10.810558319091797 C17.960281372070312 10.783415794372559 18.12563133239746 10.767976760864258 18.190750122070312 10.764366149902344 L17.692211151123047 11.423271179199219 L17.28792953491211 11.446305274963379 L17.28792953491211 11.56956958770752 C17.28792953491211 11.852829933166504 17.10166358947754 12.12513256072998 16.729251861572266 12.385855674743652 L16.651185989379883 12.3145112991333 L16.651185989379883 12.3145112991333 M19.56346893310547 10.089024543762207 C19.478179931640625 10.161738395690918 19.39388656616211 10.234451293945312 19.31009292602539 10.306418418884277 A1.9850587844848633 1.9850587844848633 0.0 0 1 19.049741744995117 10.495673179626465 C18.960344314575195 10.549336433410645 18.87094497680664 10.578597068786621 18.783042907714844 10.582331657409668 C18.612836837768555 10.569134712219238 18.472265243530273 10.443628311157227 18.362821578979492 10.206437110900879 L19.064931869506836 9.642782211303711 C19.20973777770996 9.908485412597656 19.37583351135254 10.057523727416992 19.56346893310547 10.089024543762207 L19.56346893310547 10.089024543762207 M18.611467361450195 13.888190269470215 L18.611467361450195 13.277594566345215 C18.611467361450195 12.502272605895996 18.596899032592773 12.012825012207031 18.568635940551758 11.809500694274902 C18.548465728759766 11.633318901062012 18.472389221191406 11.545289993286133 18.340784072875977 11.545289993286133 C18.295087814331055 11.545289993286133 18.222997665405273 11.565088272094727 18.12488555908203 11.604059219360352 L18.103343963623047 11.46971321105957 C18.182283401489258 11.415427207946777 18.311025619506836 11.317687034606934 18.489696502685547 11.17686653137207 C18.66774559020996 11.036667823791504 18.80333709716797 10.936064720153809 18.89609718322754 10.876673698425293 C18.98897933959961 10.817157745361328 19.06991195678711 10.787151336669922 19.138517379760742 10.787151336669922 C19.274856567382812 10.787151336669922 19.35441780090332 10.925854682922363 19.375957489013672 11.204009056091309 C19.40496826171875 11.493868827819824 19.418912887573242 11.924797058105469 19.418912887573242 12.495922088623047 C19.42713165283203 12.680695533752441 19.431364059448242 12.96432876586914 19.431364059448242 13.347818374633789 L18.611467361450195 13.888190269470215 L18.611467361450195 13.888190269470215 M22.168087005615234 13.14262580871582 C22.080184936523438 13.227044105529785 21.976966857910156 13.325282096862793 21.857934951782227 13.439083099365234 A2.724397897720337 2.724397897720337 0.0 0 1 21.463363647460938 13.74886417388916 C21.319305419921875 13.841997146606445 21.182842254638672 13.888190269470215 21.054847717285156 13.888190269470215 C20.85488510131836 13.888190269470215 20.665754318237305 13.81983470916748 20.487083435058594 13.683372497558594 C20.308286666870117 13.546161651611328 20.16510009765625 13.369855880737305 20.057771682739258 13.154953002929688 C19.9504451751709 12.939301490783691 19.89715576171875 12.724024772644043 19.89715576171875 12.508996963500977 A1.4651061296463013 1.4651061296463013 0.0 0 1 20.04532241821289 11.903380393981934 A1.9115980863571167 1.9115980863571167 0.0 0 1 20.408143997192383 11.389528274536133 A2.769594669342041 2.769594669342041 0.0 0 1 20.91551971435547 10.9873628616333 C21.103281021118164 10.869950294494629 21.293657302856445 10.81118106842041 21.486024856567383 10.81118106842041 C21.62036895751953 10.81118106842041 21.739402770996094 10.839818000793457 21.842620849609375 10.896967887878418 C21.945714950561523 10.954367637634277 22.024654388427734 11.028450012207031 22.080059051513672 11.119466781616211 C22.134719848632812 11.210359573364258 22.162487030029297 11.302994728088379 22.162487030029297 11.397622108459473 C22.162487030029297 11.463736534118652 22.143810272216797 11.52823257446289 22.107078552246094 11.592853546142578 A1.6312021017074585 1.6312021017074585 0.0 0 1 21.912593841552734 11.81672191619873 C21.837265014648438 11.889434814453125 21.749237060546875 11.962772369384766 21.647388458251953 12.037726402282715 C21.54553985595703 12.11268138885498 21.453401565551758 12.177053451538086 21.37110137939453 12.230093955993652 C21.289546966552734 12.282886505126953 21.15582275390625 12.367926597595215 20.97092628479004 12.48471736907959 L20.88302230834961 12.372657775878906 C20.938430786132812 12.333810806274414 20.99097442626953 12.294590950012207 21.042892456054688 12.257112503051758 C21.094192504882812 12.219883918762207 21.142004013061523 12.180290222167969 21.18558120727539 12.13845443725586 C21.22916030883789 12.096370697021484 21.26514434814453 12.050177574157715 21.29415512084961 11.998880386352539 C21.323287963867188 11.948204040527344 21.33711051940918 11.893296241760254 21.33711051940918 11.83365535736084 C21.33711051940918 11.72446060180664 21.29216194152832 11.628961563110352 21.201396942138672 11.546037673950195 C21.110626220703125 11.463861465454102 21.008155822753906 11.422025680541992 20.893856048583984 11.422025680541992 C20.682687759399414 11.422025680541992 20.564403533935547 11.571063995361328 20.539501190185547 11.868268966674805 C20.539501190185547 12.090643882751465 20.588558197021484 12.300691604614258 20.687419891357422 12.497416496276855 C20.785905838012695 12.694889068603516 20.918758392333984 12.851771354675293 21.084854125976562 12.970678329467773 C21.251073837280273 13.089086532592773 21.42987060546875 13.150594711303711 21.620121002197266 13.154330253601074 C21.805641174316406 13.141256332397461 21.96078109741211 13.094067573547363 22.08541488647461 13.014007568359375 L22.168087005615234 13.14262580871582 L22.168087005615234 13.14262580871582 M22.777936935424805 13.876485824584961 C22.799602508544922 13.19018840789795 22.81068229675293 12.597148895263672 22.81068229675293 12.09711742401123 C22.81068229675293 11.54018497467041 22.799602508544922 10.929465293884277 22.777936935424805 10.265205383300781 C22.772459030151367 10.056029319763184 22.749549865722656 9.911473274230957 22.708087921142578 9.832160949707031 C22.667247772216797 9.752848625183105 22.606983184814453 9.713254928588867 22.528045654296875 9.713254928588867 C22.478864669799805 9.713254928588867 22.407520294189453 9.73454475402832 22.312768936157227 9.777873992919922 L22.240055084228516 9.642782211303711 C22.32223129272461 9.587747573852539 22.459442138671875 9.487144470214844 22.649192810058594 9.341841697692871 C22.839445114135742 9.196538925170898 22.986366271972656 9.092324256896973 23.089458465576172 9.028450965881348 C23.192554473876953 8.963829040527344 23.280582427978516 8.932329177856445 23.353172302246094 8.932329177856445 C23.418291091918945 8.932329177856445 23.465354919433594 8.961588859558105 23.493743896484375 9.02110481262207 C23.52225685119629 9.080619812011719 23.536075592041016 9.179605484008789 23.536075592041016 9.319056510925293 A68.90083312988281 68.90083312988281 0.0 0 0 23.56521224975586 11.260537147521973 C23.57492446899414 11.592977523803711 23.586627960205078 11.934258460998535 23.6011962890625 12.2836332321167 C23.61576271057129 12.63375473022461 23.63107681274414 12.976655006408691 23.64689064025879 13.312830924987793 L22.777936935424805 13.876485824584961 L22.777936935424805 13.876485824584961" fill="black" fill-opacity="1.0" filling="0"/></svg>