<?xml version="1.0" encoding="iso-8859-1"?><svg height="200px" viewBox="0.0 0.0 24.0 24.0" width="200px" xmlns="http://www.w3.org/2000/svg"><path animation_id="0" d="M23.38947296142578 10.526315689086914 C23.380451202392578 10.559398651123047 23.353384017944336 10.586465835571289 23.32631492614746 10.586465835571289 C23.26917266845703 10.586465835571289 23.157894134521484 10.691729545593262 23.157894134521484 10.742856979370117 C23.157894134521484 10.763910293579102 23.1368408203125 10.809022903442383 23.112781524658203 10.83909797668457 C23.05563735961914 10.914285659790039 23.05563735961914 11.019548416137695 23.112781524658203 11.067668914794922 C23.1368408203125 11.088722229003906 23.157894134521484 11.124812126159668 23.157894134521484 11.145864486694336 C23.157894134521484 11.236090660095215 23.398496627807617 11.398496627807617 23.53082847595215 11.398496627807617 C23.630075454711914 11.398496627807617 23.843608856201172 11.28721809387207 23.882705688476562 11.21503734588623 C23.897743225097656 11.181955337524414 23.930828094482422 11.1578950881958 23.95488739013672 11.1578950881958 C23.990978240966797 11.1578950881958 24.0 11.112781524658203 24.0 10.947368621826172 C24.0 10.781954765319824 23.990978240966797 10.736842155456543 23.95488739013672 10.736842155456543 C23.930828094482422 10.736842155456543 23.897743225097656 10.709774017333984 23.87969970703125 10.679698944091797 C23.864662170410156 10.646615982055664 23.813533782958984 10.601503372192383 23.76541519165039 10.577444076538086 C23.72030258178711 10.556390762329102 23.687217712402344 10.52030086517334 23.693233489990234 10.5022554397583 C23.69624137878418 10.478195190429688 23.6511287689209 10.466165542602539 23.5518798828125 10.466165542602539 C23.43157958984375 10.466165542602539 23.401504516601562 10.475188255310059 23.38947296142578 10.526315689086914 L23.38947296142578 10.526315689086914 M23.338346481323242 10.947368621826172 C23.338346481323242 11.190977096557617 23.29924774169922 11.27819538116455 23.251127243041992 11.148872375488281 C23.233081817626953 11.106766700744629 23.20601463317871 11.064661979675293 23.190977096557617 11.052631378173828 C23.172931671142578 11.043608665466309 23.157894134521484 10.995489120483398 23.157894134521484 10.947368621826172 C23.157894134521484 10.899248123168945 23.172931671142578 10.851127624511719 23.190977096557617 10.8421049118042 C23.20601463317871 10.83007526397705 23.233081817626953 10.787969589233398 23.251127243041992 10.745864868164062 C23.29924774169922 10.616540908813477 23.338346481323242 10.70375919342041 23.338346481323242 10.947368621826172 M23.63308334350586 10.800000190734863 C23.645112991333008 10.863158226013184 23.581954956054688 10.887218475341797 23.491729736328125 10.854135513305664 C23.43157958984375 10.83007526397705 23.428571701049805 10.818044662475586 23.458646774291992 10.778947830200195 C23.50676727294922 10.72180461883545 23.62105369567871 10.736842155456543 23.63308334350586 10.800000190734863 L23.63308334350586 10.800000190734863 M23.87969970703125 10.947368621826172 C23.87969970703125 11.118797302246094 23.876693725585938 11.127819061279297 23.807518005371094 11.127819061279297 C23.76541519165039 11.127819061279297 23.71729278564453 11.09774398803711 23.690227508544922 11.055639266967773 C23.645112991333008 10.989473342895508 23.645112991333008 10.980451583862305 23.699249267578125 10.932331085205078 C23.732330322265625 10.90225601196289 23.76541519165039 10.854135513305664 23.774436950683594 10.824060440063477 C23.786468505859375 10.790977478027344 23.813533782958984 10.76691722869873 23.83759307861328 10.76691722869873 C23.870677947998047 10.76691722869873 23.87969970703125 10.812029838562012 23.87969970703125 10.947368621826172 M23.62105369567871 11.133834838867188 C23.711278915405273 11.260149955749512 23.68421173095703 11.308270454406738 23.53383445739746 11.308270454406738 L23.395488739013672 11.308270454406738 L23.41353416442871 11.193984985351562 C23.446617126464844 11.010526657104492 23.44962501525879 11.001503944396973 23.515790939331055 11.037593841552734 C23.548871994018555 11.052631378173828 23.59699249267578 11.09774398803711 23.62105369567871 11.133834838867188 M0.0 12.07218074798584 L0.0 13.383459091186523 L0.31278133392333984 13.383459091186523 C0.4842100143432617 13.383459091186523 0.6436080932617188 13.389473915100098 0.6676692962646484 13.398496627807617 C0.6887216567993164 13.407519340515137 0.7338342666625977 13.395488739013672 0.7669172286987305 13.371428489685059 C0.8210515975952148 13.332330703735352 0.8270673751831055 13.28721809387207 0.8330831527709961 12.872180938720703 C0.8360891342163086 12.619548797607422 0.8511276245117188 12.399999618530273 0.8661651611328125 12.38496208190918 C0.8842096328735352 12.366917610168457 0.9383459091186523 12.363909721374512 0.9894733428955078 12.375940322875977 C1.085714340209961 12.396992683410645 1.1578941345214844 12.478195190429688 1.2781953811645508 12.700752258300781 C1.314286231994629 12.769925117492676 1.3714284896850586 12.875187873840332 1.4075183868408203 12.932331085205078 C1.4406013488769531 12.989473342895508 1.5067672729492188 13.109774589538574 1.5518798828125 13.196992874145508 C1.5969924926757812 13.284210205078125 1.6451129913330078 13.362405776977539 1.6601505279541016 13.371428489685059 C1.67218017578125 13.380451202392578 1.882706642150879 13.386466026306152 2.1263160705566406 13.389473915100098 C2.5654125213623047 13.392480850219727 2.5714282989501953 13.392480850219727 2.5804500579833984 13.326315879821777 C2.586465835571289 13.290225982666016 2.5714282989501953 13.236089706420898 2.550374984741211 13.209022521972656 C2.526315689086914 13.181955337524414 2.4721803665161133 13.088722229003906 2.430074691772461 13.007518768310547 C2.237593650817871 12.625563621520996 2.177443504333496 12.526315689086914 2.078195571899414 12.424059867858887 C2.018045425415039 12.363909721374512 1.942856788635254 12.300751686096191 1.909773826599121 12.282707214355469 C1.8556394577026367 12.252631187438965 1.8616533279418945 12.243609428405762 2.0 12.171428680419922 C2.288722038269043 12.027068138122559 2.4060144424438477 11.831579208374023 2.4060144424438477 11.506767272949219 C2.4060144424438477 11.239097595214844 2.3398494720458984 11.082706451416016 2.171428680419922 10.953383445739746 C1.960902214050293 10.793985366821289 1.9187965393066406 10.787969589233398 0.9263153076171875 10.77593994140625 L0.0 10.763910293579102 L0.0 12.07218074798584 M1.4165410995483398 11.35939884185791 C1.5278186798095703 11.42556381225586 1.569925308227539 11.539849281311035 1.5187969207763672 11.657142639160156 C1.4917287826538086 11.72631549835205 1.4496240615844727 11.75338363647461 1.3112783432006836 11.795488357543945 C1.1007518768310547 11.861654281616211 0.9233083724975586 11.86466121673584 0.8721799850463867 11.804511070251465 C0.8330831527709961 11.756390571594238 0.8210515975952148 11.398496627807617 0.857142448425293 11.341353416442871 C0.8902254104614258 11.28721809387207 1.3172922134399414 11.302255630493164 1.4165410995483398 11.35939884185791 L1.4165410995483398 11.35939884185791 M2.8721799850463867 10.796992301940918 C2.8541345596313477 10.824060440063477 2.84812068939209 13.353384017944336 2.8661651611328125 13.371428489685059 C2.8812026977539062 13.386466026306152 3.639097213745117 13.392480850219727 3.6571426391601562 13.377443313598633 C3.6691722869873047 13.365413665771484 3.6751880645751953 12.249624252319336 3.6691722869873047 10.83308219909668 C3.6691722869873047 10.76691722869873 3.6631574630737305 10.76691722869873 3.281203269958496 10.76691722869873 C3.0586471557617188 10.76691722869873 2.8842105865478516 10.778947830200195 2.8721799850463867 10.796992301940918 L2.8721799850463867 10.796992301940918 M4.159398078918457 10.800000190734863 C4.108270645141602 10.851127624511719 4.102255344390869 13.338345527648926 4.150375843048096 13.36842155456543 C4.168421268463135 13.380451202392578 4.532330513000488 13.386466026306152 4.965413570404053 13.386466026306152 C5.924811840057373 13.386466026306152 5.9909772872924805 13.371428489685059 6.267668724060059 13.09774398803711 C6.541353225708008 12.83007526397705 6.616541385650635 12.643609046936035 6.637593746185303 12.17443561553955 C6.649623870849609 11.92781925201416 6.643608570098877 11.822556495666504 6.604511260986328 11.711277961730957 C6.577443599700928 11.633082389831543 6.556390762329102 11.539849281311035 6.556390762329102 11.500751495361328 C6.556390762329102 11.464661598205566 6.535338401794434 11.419548988342285 6.51127815246582 11.398496627807617 C6.487217903137207 11.377443313598633 6.466165065765381 11.338345527648926 6.466165065765381 11.311278343200684 C6.466165065765381 11.196992874145508 6.132330417633057 10.914285659790039 5.906766414642334 10.836090087890625 C5.70827054977417 10.769925117492676 4.216541290283203 10.739849090576172 4.159398078918457 10.800000190734863 L4.159398078918457 10.800000190734863 M5.5428571701049805 11.458646774291992 C5.714285373687744 11.563909530639648 5.747368335723877 11.66315746307373 5.747368335723877 12.093233108520508 C5.750375747680664 12.433082580566406 5.7413530349731445 12.493232727050781 5.687218189239502 12.580451011657715 C5.612030029296875 12.70375919342041 5.536842346191406 12.742856979370117 5.323307991027832 12.76691722869873 C5.100751876831055 12.790977478027344 5.046616554260254 12.787969589233398 5.019548416137695 12.760902404785156 C5.004510879516602 12.745864868164062 4.992481231689453 12.445113182067871 4.992481231689453 12.090225219726562 C4.989473342895508 11.533834457397461 4.99548864364624 11.440601348876953 5.037593841552734 11.410526275634766 C5.103759288787842 11.362405776977539 5.431579113006592 11.392480850219727 5.5428571701049805 11.458646774291992 L5.5428571701049805 11.458646774291992 M6.857142925262451 10.845112800598145 C6.818044662475586 10.944360733032227 6.821052551269531 12.186466217041016 6.860150337219238 12.360901832580566 C6.878195285797119 12.436090469360352 6.902255535125732 12.550375938415527 6.914285182952881 12.616540908813477 C6.950376033782959 12.78496265411377 7.019548416137695 12.90526294708252 7.160902500152588 13.0496244430542 C7.2932329177856445 13.181955337524414 7.386466026306152 13.236089706420898 7.639097690582275 13.326315879821777 C7.8706769943237305 13.407519340515137 8.481203079223633 13.413534164428711 8.739850044250488 13.335338592529297 C8.956390380859375 13.269172668457031 9.203007698059082 13.112781524658203 9.323307991027832 12.96842098236084 C9.467668533325195 12.790977478027344 9.600000381469727 12.303759574890137 9.503759384155273 12.297744750976562 L9.263157844543457 12.297744750976562 C8.90526294708252 12.297744750976562 8.90225601196289 12.297744750976562 8.90225601196289 12.345864295959473 C8.90225601196289 12.454134941101074 8.778946876525879 12.631579399108887 8.661653518676758 12.691729545593262 C8.562406539916992 12.742856979370117 8.484210968017578 12.751879692077637 8.180450439453125 12.751879692077637 C7.843608379364014 12.751879692077637 7.810526371002197 12.745864868164062 7.696240425109863 12.676692008972168 C7.569924831390381 12.595488548278809 7.518796920776367 12.505263328552246 7.518796920776367 12.363909721374512 C7.518796920776367 12.222556114196777 7.566917419433594 12.207518577575684 8.0 12.213533401489258 C8.243609428405762 12.216541290283203 8.406015396118164 12.207518577575684 8.427067756652832 12.186466217041016 C8.463157653808594 12.150376319885254 8.4481201171875 11.747368812561035 8.409022331237793 11.708271026611328 C8.396992683410645 11.696240425109863 8.195488929748535 11.68120288848877 7.963909149169922 11.678194999694824 C7.651127338409424 11.675188064575195 7.533834457397461 11.66315746307373 7.515789031982422 11.633082389831543 C7.485713958740234 11.584962844848633 7.500751495361328 11.434586524963379 7.5428571701049805 11.392480850219727 C7.560902118682861 11.374436378479004 7.798495769500732 11.362405776977539 8.186466217041016 11.365413665771484 C8.667669296264648 11.371428489685059 8.809021949768066 11.362405776977539 8.854135513305664 11.329322814941406 C8.911277770996094 11.28721809387207 8.914285659790039 11.251128196716309 8.90526294708252 10.83308219909668 L8.90225601196289 10.76691722869873 L6.887217998504639 10.76691722869873 L6.857142925262451 10.845112800598145 M11.178947448730469 10.787969589233398 C11.166916847229004 10.796992301940918 11.1578950881958 11.190977096557617 11.1578950881958 11.657142639160156 C11.1578950881958 12.372932434082031 11.148872375488281 12.52932357788086 11.109774589538574 12.631579399108887 C11.055639266967773 12.760902404785156 10.992481231689453 12.812029838562012 10.881202697753906 12.812029838562012 C10.754887580871582 12.809022903442383 10.682706832885742 12.715789794921875 10.658646583557129 12.526315689086914 C10.64060115814209 12.369924545288086 10.619548797607422 12.306766510009766 10.580451011657715 12.297744750976562 C10.559398651123047 12.291728973388672 10.396992683410645 12.288722038269043 10.219548225402832 12.294736862182617 L9.894737243652344 12.303759574890137 L9.894737243652344 12.535338401794434 C9.897744178771973 12.818044662475586 9.927820205688477 12.965413093566895 10.015037536621094 13.091729164123535 C10.216541290283203 13.386466026306152 10.745863914489746 13.533834457397461 11.209022521972656 13.428571701049805 C11.735339164733887 13.30526351928711 11.948871612548828 13.064661979675293 11.984962463378906 12.541353225708008 C12.024060249328613 12.006014823913574 12.036090850830078 10.932331085205078 12.003007888793945 10.84812068939209 L11.969924926757812 10.76691722869873 L11.584962844848633 10.76691722869873 C11.371428489685059 10.76691722869873 11.187970161437988 10.77593994140625 11.178947448730469 10.787969589233398 L11.178947448730469 10.787969589233398 M12.932331085205078 10.90526294708252 C12.899248123168945 10.983458518981934 12.872180938720703 11.061654090881348 12.872180938720703 11.079699516296387 C12.872180938720703 11.09774398803711 12.851127624511719 11.139849662780762 12.827067375183105 11.16992473602295 C12.803008079528809 11.203007698059082 12.781954765319824 11.254135131835938 12.781954765319824 11.28721809387207 C12.781954765319824 11.317293167114258 12.763909339904785 11.380451202392578 12.739850044250488 11.422555923461914 C12.715788841247559 11.467669486999512 12.676692008972168 11.563909530639648 12.64661693572998 11.639098167419434 C12.619548797607422 11.714285850524902 12.577444076538086 11.813533782958984 12.553382873535156 11.858646392822266 C12.52932357788086 11.906766891479492 12.51127815246582 11.963910102844238 12.51127815246582 11.984962463378906 C12.51127815246582 12.006014823913574 12.493232727050781 12.06315803527832 12.469173431396484 12.111278533935547 C12.445112228393555 12.156391143798828 12.403007507324219 12.252631187438965 12.378947257995605 12.321805000305176 C12.351880073547363 12.3939847946167 12.309774398803711 12.508270263671875 12.282706260681152 12.57744312286377 C12.258646965026855 12.64962387084961 12.216541290283203 12.745864868164062 12.19248104095459 12.790977478027344 C12.168420791625977 12.83909797668457 12.150376319885254 12.896240234375 12.150376319885254 12.917293548583984 C12.150376319885254 12.938345909118652 12.132330894470215 12.995489120483398 12.108270645141602 13.043608665466309 C12.00601577758789 13.251128196716309 11.972932815551758 13.35037612915039 12.003007888793945 13.371428489685059 C12.045112609863281 13.395488739013672 12.800000190734863 13.395488739013672 12.83909797668457 13.36842155456543 C12.857142448425293 13.35939884185791 12.872180938720703 13.332330703735352 12.872180938720703 13.311278343200684 C12.872180938720703 13.221052169799805 12.998497009277344 12.992481231689453 13.046616554260254 12.992481231689453 C13.527819633483887 12.983458518981934 13.80751895904541 12.989473342895508 13.858646392822266 13.004510879516602 C13.897744178771973 13.016541481018066 13.930827140808105 13.058646202087402 13.939849853515625 13.106766700744629 C13.972932815551758 13.260150909423828 14.051128387451172 13.383459091186523 14.117293357849121 13.383459091186523 C14.52932357788086 13.392480850219727 14.85714340209961 13.386466026306152 14.881202697753906 13.371428489685059 C14.911277770996094 13.353384017944336 14.890226364135742 13.260150909423828 14.809022903442383 13.067668914794922 C14.772933006286621 12.983458518981934 14.739850044250488 12.887218475341797 14.628571510314941 12.59248161315918 C14.604511260986328 12.523308753967285 14.562406539916992 12.427067756652832 14.538345336914062 12.38195514678955 C14.514286041259766 12.333834648132324 14.496240615844727 12.276691436767578 14.496240615844727 12.25563907623291 C14.496240615844727 12.234586715698242 14.478195190429688 12.177443504333496 14.45413589477539 12.12932300567627 C14.430074691772461 12.084210395812988 14.39097785949707 11.99097728729248 14.366917610168457 11.924812316894531 C14.288722038269043 11.711277961730957 14.219548225402832 11.536842346191406 14.180451393127441 11.443609237670898 C14.159398078918457 11.392480850219727 14.123308181762695 11.299247741699219 14.096240997314453 11.23308277130127 C14.003007888793945 10.980451583862305 13.94285774230957 10.8421049118042 13.915789604187012 10.803007125854492 C13.894737243652344 10.77593994140625 13.762406349182129 10.76691722869873 13.440601348876953 10.76691722869873 L12.995489120483398 10.76691722869873 L12.932331085205078 10.90526294708252 M13.503759384155273 11.669173240661621 C13.503759384155273 11.702255249023438 13.521804809570312 11.780450820922852 13.54586410522461 11.840601921081543 C13.639098167419434 12.105262756347656 13.684210777282715 12.258646965026855 13.684210777282715 12.324811935424805 C13.684210777282715 12.39097785949707 13.675188064575195 12.3939847946167 13.452630996704102 12.38496208190918 L13.218045234680176 12.375940322875977 L13.22406005859375 12.267669677734375 C13.230074882507324 12.159398078918457 13.353384017944336 11.75338363647461 13.413534164428711 11.639098167419434 C13.452630996704102 11.566917419433594 13.503759384155273 11.584962844848633 13.503759384155273 11.669173240661621 L13.503759384155273 11.669173240661621 M15.127819061279297 10.818044662475586 C15.118797302246094 11.239097595214844 15.130826950073242 13.365413665771484 15.139849662780762 13.377443313598633 C15.16090202331543 13.395488739013672 15.91278076171875 13.389473915100098 15.930828094482422 13.371428489685059 C15.939849853515625 13.365413665771484 15.942856788635254 13.16992473602295 15.942856788635254 12.938345909118652 C15.936842918395996 12.436090469360352 15.933834075927734 12.442105293273926 16.249624252319336 12.4481201171875 C16.484210968017578 12.451128005981445 16.824060440063477 12.3939847946167 16.992481231689453 12.321805000305176 C17.127819061279297 12.261653900146484 17.24210548400879 12.150376319885254 17.32631492614746 11.99097728729248 C17.416540145874023 11.813533782958984 17.4195499420166 11.347368240356445 17.329322814941406 11.175939559936523 C17.254135131835938 11.037593841552734 17.094738006591797 10.890225410461426 16.992481231689453 10.869173049926758 C16.950374603271484 10.857142448425293 16.85112762451172 10.83308219909668 16.76992416381836 10.809022903442383 C16.658647537231445 10.778947830200195 16.421052932739258 10.76691722869873 15.87368392944336 10.76691722869873 C15.184962272644043 10.76691722869873 15.127819061279297 10.769925117492676 15.127819061279297 10.818044662475586 L15.127819061279297 10.818044662475586 M16.32781982421875 11.338345527648926 C16.577444076538086 11.410526275634766 16.658647537231445 11.654135704040527 16.478195190429688 11.786466598510742 C16.40300750732422 11.840601921081543 16.3488712310791 11.855639457702637 16.192481994628906 11.852631568908691 C16.084209442138672 11.852631568908691 15.984962463378906 11.843608856201172 15.969924926757812 11.834586143493652 C15.95188045501709 11.82556438446045 15.939849853515625 11.729323387145996 15.939849853515625 11.621052742004395 C15.939849853515625 11.335338592529297 16.04511260986328 11.257143020629883 16.32781982421875 11.338345527648926 M17.984962463378906 10.90526294708252 C17.951881408691406 10.983458518981934 17.92481231689453 11.055639266967773 17.92481231689453 11.067668914794922 C17.92481231689453 11.082706451416016 17.906768798828125 11.130826950073242 17.882705688476562 11.178947448730469 C17.84060287475586 11.257143020629883 17.79849624633789 11.368420600891113 17.693233489990234 11.654135704040527 C17.669174194335938 11.720300674438477 17.630075454711914 11.813533782958984 17.606016159057617 11.858646392822266 C17.581954956054688 11.906766891479492 17.56390953063965 11.963910102844238 17.56390953063965 11.984962463378906 C17.56390953063965 12.006014823913574 17.545866012573242 12.06315803527832 17.521804809570312 12.111278533935547 C17.497743606567383 12.156391143798828 17.455638885498047 12.252631187438965 17.431577682495117 12.321805000305176 C17.404512405395508 12.3939847946167 17.36240577697754 12.508270263671875 17.335338592529297 12.57744312286377 C17.311277389526367 12.64962387084961 17.26917266845703 12.745864868164062 17.245113372802734 12.790977478027344 C17.221052169799805 12.83909797668457 17.203006744384766 12.896240234375 17.203006744384766 12.917293548583984 C17.203006744384766 12.938345909118652 17.18496322631836 12.995489120483398 17.16090202331543 13.043608665466309 C17.05864715576172 13.251128196716309 17.025562286376953 13.35037612915039 17.05563735961914 13.371428489685059 C17.09774398803711 13.395488739013672 17.852630615234375 13.395488739013672 17.89173126220703 13.36842155456543 C17.909774780273438 13.35939884185791 17.92481231689453 13.332330703735352 17.92481231689453 13.311278343200684 C17.92481231689453 13.221052169799805 18.051128387451172 12.992481231689453 18.099246978759766 12.992481231689453 C18.577444076538086 12.983458518981934 18.860149383544922 12.989473342895508 18.911277770996094 13.004510879516602 C18.956390380859375 13.019548416137695 18.986465454101562 13.073683738708496 19.02255630493164 13.187970161437988 C19.046615600585938 13.27819538116455 19.082706451416016 13.35939884185791 19.09774398803711 13.36842155456543 C19.1368408203125 13.392480850219727 19.894737243652344 13.395488739013672 19.933834075927734 13.371428489685059 C19.963909149169922 13.353384017944336 19.942855834960938 13.260150909423828 19.861656188964844 13.067668914794922 C19.825565338134766 12.983458518981934 19.79248046875 12.887218475341797 19.681203842163086 12.59248161315918 C19.657142639160156 12.523308753967285 19.61503791809082 12.427067756652832 19.590978622436523 12.38195514678955 C19.566917419433594 12.333834648132324 19.548871994018555 12.276691436767578 19.548871994018555 12.25563907623291 C19.548871994018555 12.234586715698242 19.53082847595215 12.177443504333496 19.50676727294922 12.12932300567627 C19.48270606994629 12.084210395812988 19.440601348876953 11.984962463378906 19.41353416442871 11.909774780273438 C19.383459091186523 11.834586143493652 19.3443603515625 11.738346099853516 19.320301055908203 11.693233489990234 C19.296239852905273 11.651127815246582 19.278196334838867 11.590977668762207 19.278196334838867 11.563909530639648 C19.278196334838867 11.536842346191406 19.260150909423828 11.476691246032715 19.2360897064209 11.434586524963379 C19.2120304107666 11.389473915100098 19.172931671142578 11.299247741699219 19.14887237548828 11.23308277130127 C19.05864715576172 10.992481231689453 18.995487213134766 10.8421049118042 18.968421936035156 10.803007125854492 C18.947368621826172 10.77593994140625 18.81503677368164 10.76691722869873 18.493234634399414 10.76691722869873 L18.048118591308594 10.76691722869873 L17.984962463378906 10.90526294708252 M18.5563907623291 11.669173240661621 C18.5563907623291 11.702255249023438 18.57443618774414 11.780450820922852 18.59849739074707 11.840601921081543 C18.691730499267578 12.105262756347656 18.73684310913086 12.258646965026855 18.73684310913086 12.324811935424805 C18.73684310913086 12.39097785949707 18.727819442749023 12.3939847946167 18.50526237487793 12.38496208190918 L18.270675659179688 12.375940322875977 L18.276691436767578 12.270676612854004 C18.285715103149414 12.06315803527832 18.47218132019043 11.56090259552002 18.526315689086914 11.593984603881836 C18.544361114501953 11.603007316589355 18.5563907623291 11.639098167419434 18.5563907623291 11.669173240661621 L18.5563907623291 11.669173240661621 M20.117294311523438 10.84812068939209 C20.084209442138672 10.935338020324707 20.090225219726562 13.335338592529297 20.12631607055664 13.36842155456543 C20.150375366210938 13.392480850219727 20.86917495727539 13.398496627807617 20.893234252929688 13.374436378479004 C20.90225601196289 13.365413665771484 20.90827178955078 13.088722229003906 20.905261993408203 12.760902404785156 C20.90225601196289 12.430075645446777 20.90827178955078 12.138345718383789 20.920299530029297 12.111278533935547 C20.93834686279297 12.060150146484375 20.94436264038086 12.06315803527832 21.01052474975586 12.123308181762695 C21.049625396728516 12.159398078918457 21.082706451416016 12.20150375366211 21.082706451416016 12.216541290283203 C21.082706451416016 12.231578826904297 21.163909912109375 12.354887008666992 21.26315689086914 12.490225791931152 C21.67218017578125 13.043608665466309 21.80451202392578 13.236089706420898 21.80451202392578 13.260150909423828 C21.80451202392578 13.272180557250977 21.831581115722656 13.308270454406738 21.861656188964844 13.338345527648926 C21.91278076171875 13.380451202392578 21.978946685791016 13.389473915100098 22.30375862121582 13.389473915100098 C22.51127815246582 13.386466026306152 22.688722610473633 13.383459091186523 22.69473648071289 13.377443313598633 C22.712783813476562 13.356390953063965 22.709774017333984 10.827067375183105 22.691730499267578 10.796992301940918 C22.679698944091797 10.778947830200195 22.5233097076416 10.76691722869873 22.318796157836914 10.76691722869873 C22.048118591308594 10.76691722869873 21.95488739013672 10.77593994140625 21.927818298339844 10.809022903442383 C21.900753021240234 10.83909797668457 21.89173126220703 11.028571128845215 21.897743225097656 11.455638885498047 C21.900753021240234 11.789473533630371 21.894737243652344 12.07218074798584 21.882705688476562 12.08120346069336 C21.861656188964844 12.102255821228027 21.71729278564453 11.9458646774292 21.71428680419922 11.900752067565918 C21.71428680419922 11.888721466064453 21.654136657714844 11.792481422424316 21.578948974609375 11.690225601196289 C21.20601463317871 11.178947448730469 21.082706451416016 11.004510879516602 21.082706451416016 10.992481231689453 C21.082706451416016 10.983458518981934 21.05864715576172 10.9503755569458 21.031578063964844 10.920300483703613 C21.001502990722656 10.887218475341797 20.959400177001953 10.83909797668457 20.93834686279297 10.815037727355957 C20.90827178955078 10.77593994140625 20.830074310302734 10.76691722869873 20.52330780029297 10.76691722869873 L20.150375366210938 10.76691722869873 L20.117294311523438 10.84812068939209 M9.593984603881836 11.28721809387207 C9.554887771606445 11.308270454406738 9.500751495361328 11.35939884185791 9.476692199707031 11.404511451721191 C9.437593460083008 11.473684310913086 9.437593460083008 11.494736671447754 9.473684310913086 11.563909530639648 C9.497743606567383 11.60902214050293 9.5518798828125 11.66315746307373 9.596992492675781 11.687217712402344 C9.711277961730957 11.74436092376709 9.87969970703125 11.675188064575195 9.900752067565918 11.563909530639648 C9.927820205688477 11.422555923461914 9.891729354858398 11.335338592529297 9.786465644836426 11.290225982666016 C9.666165351867676 11.239097595214844 9.687217712402344 11.239097595214844 9.593984603881836 11.28721809387207 L9.593984603881836 11.28721809387207" fill="black" fill-opacity="1.0" filling="0"/>
<path animation_id="1" d="M9.245112419128418 11.729323387145996 C9.178947448730469 11.756390571594238 9.082706451416016 11.885714530944824 9.082706451416016 11.9458646774292 C9.085714340209961 11.966917037963867 9.112781524658203 12.018045425415039 9.145864486694336 12.060150146484375 C9.196991920471191 12.12030029296875 9.239097595214844 12.13533878326416 9.341353416442871 12.13533878326416 C9.503759384155273 12.13533878326416 9.542856216430664 12.096240997314453 9.542856216430664 11.93684196472168 C9.542856216430664 11.75338363647461 9.413534164428711 11.660150527954102 9.245112419128418 11.729323387145996 L9.245112419128418 11.729323387145996 M9.957895278930664 11.75338363647461 C9.903759002685547 11.79849624633789 9.885714530944824 11.840601921081543 9.885714530944824 11.93684196472168 C9.885714530944824 12.099247932434082 9.924812316894531 12.13533878326416 10.093233108520508 12.13533878326416 C10.20150375366211 12.13533878326416 10.240601539611816 12.12030029296875 10.285714149475098 12.060150146484375 C10.363909721374512 11.960902214050293 10.360901832580566 11.900752067565918 10.279699325561523 11.80751895904541 C10.186466217041016 11.702255249023438 10.051128387451172 11.68120288848877 9.957895278930664 11.75338363647461 L9.957895278930664 11.75338363647461" fill="black" fill-opacity="1.0" filling="0"/></svg>