<?xml version="1.0" encoding="iso-8859-1"?><svg height="200px" viewBox="0.0 0.0 24.0 24.0" width="200px" xmlns="http://www.w3.org/2000/svg"><path animation_id="0" d="M0.0 0.0 L24.0 0.0 L24.0 24.0 L0.0 24.0 L0.0 0.0" fill="black" fill-opacity="1.0" filling="0"/>
<path animation_id="1" d="M16.968313217163086 12.252381324768066 C17.111000061035156 12.257112503051758 17.179853439331055 12.307787895202637 17.179853439331055 12.41623592376709 C17.179853439331055 12.568014144897461 17.024715423583984 12.702982902526855 16.85015296936035 12.702982902526855 C16.596527099609375 12.702982902526855 16.42432975769043 12.464422225952148 16.42432975769043 12.117412567138672 C16.42432975769043 11.74139404296875 16.58917999267578 11.473821640014648 16.820518493652344 11.473821640014648 C16.94353485107422 11.473821640014648 17.074146270751953 11.531718254089355 17.1896915435791 11.637677192687988 C17.258792877197266 11.70267105102539 17.295772552490234 11.75334644317627 17.371849060058594 11.888315200805664 L17.544294357299805 11.828052520751953 L17.396625518798828 11.288178443908691 L17.243852615356445 11.288178443908691 L17.20687484741211 11.358152389526367 C17.103530883789062 11.293033599853516 16.928966522216797 11.247214317321777 16.78615379333496 11.247214317321777 C16.301189422607422 11.247214317321777 15.961527824401855 11.596713066101074 15.961527824401855 12.093132972717285 C15.961527824401855 12.353484153747559 16.060012817382812 12.601755142211914 16.220008850097656 12.746312141418457 C16.350370407104492 12.864471435546875 16.547344207763672 12.937185287475586 16.741580963134766 12.937185287475586 C16.859739303588867 12.937185287475586 16.99034881591797 12.910664558410645 17.07887840270996 12.869202613830566 C17.115856170654297 12.852269172668457 17.150096893310547 12.833094596862793 17.243728637695312 12.78005313873291 L17.298015594482422 12.91776180267334 L17.56135368347168 12.91776180267334 L17.56135368347168 12.466662406921387 C17.56135368347168 12.375147819519043 17.56869888305664 12.338915824890137 17.590736389160156 12.317251205444336 C17.612897872924805 12.293220520019531 17.694080352783203 12.264209747314453 17.731060028076172 12.264209747314453 L17.750732421875 12.264209747314453 L17.750732421875 12.068978309631348 L16.96818733215332 12.068978309631348 L16.96818733215332 12.252381324768066 L16.968313217163086 12.252381324768066 L16.968313217163086 12.252381324768066 M19.318683624267578 12.334309577941895 L19.153831481933594 12.247525215148926 C18.98897933959961 12.536762237548828 18.777191162109375 12.683808326721191 18.531034469604492 12.683808326721191 C18.457324981689453 12.683808326721191 18.408018112182617 12.666874885559082 18.39071273803711 12.64035415649414 C18.381000518798828 12.621054649353027 18.381000518798828 12.621054649353027 18.381000518798828 12.466787338256836 L18.381000518798828 11.683496475219727 C18.381000518798828 11.594223022460938 18.388347625732422 11.5606050491333 18.410385131835938 11.534085273742676 C18.434913635253906 11.507563591003418 18.504016876220703 11.485774993896484 18.56801414489746 11.48340892791748 L18.59503173828125 11.480918884277344 L18.59503173828125 11.288178443908691 L17.743633270263672 11.288178443908691 L17.743633270263672 11.480918884277344 L17.770654678344727 11.48340892791748 C17.837017059326172 11.485774993896484 17.90338134765625 11.507563591003418 17.928281784057617 11.534085273742676 C17.95044708251953 11.5606050491333 17.95766830444336 11.594223022460938 17.95766830444336 11.683496475219727 L17.95766830444336 12.498163223266602 C17.95766830444336 12.589677810668945 17.950321197509766 12.623420715332031 17.928281784057617 12.649941444396973 C17.903507232666016 12.676461219787598 17.834651947021484 12.698250770568848 17.770654678344727 12.700615882873535 L17.743633270263672 12.702982902526855 L17.743633270263672 12.89584732055664 L19.067546844482422 12.89584732055664 L19.318683624267578 12.334309577941895 L19.318683624267578 12.334309577941895 M20.44101333618164 11.288302421569824 L20.06673812866211 11.288302421569824 L19.589366912841797 12.409014701843262 C19.493370056152344 12.630766868591309 19.449045181274414 12.671730995178223 19.269376754760742 12.702982902526855 L19.269376754760742 12.89584732055664 L20.01519012451172 12.89584732055664 L20.01519012451172 12.702982902526855 C19.82070541381836 12.674220085144043 19.798542022705078 12.664383888244629 19.798542022705078 12.608977317810059 C19.798542022705078 12.592168807983398 19.80613899230957 12.558425903320312 19.81821632385254 12.527050018310547 L19.897029876708984 12.324721336364746 L20.413745880126953 12.324721336364746 L20.48770523071289 12.527050018310547 C20.502521514892578 12.568014144897461 20.51223373413086 12.606736183166504 20.51223373413086 12.625910758972168 C20.51223373413086 12.671730995178223 20.463050842285156 12.69090461730957 20.310401916503906 12.702982902526855 L20.310401916503906 12.89584732055664 L21.191434860229492 12.89584732055664 L21.191434860229492 12.702982902526855 C21.009275436401367 12.671730995178223 21.00205421447754 12.664383888244629 20.913528442382812 12.43790054321289 L20.44101333618164 11.288302421569824 M19.97335433959961 12.11977767944336 L20.157878875732422 11.661831855773926 L20.334932327270508 12.11977767944336 L19.97335433959961 12.11977767944336 M22.244911193847656 11.363008499145508 C22.148914337158203 11.293157577514648 21.998756408691406 11.247339248657227 21.85843276977539 11.247339248657227 C21.498973846435547 11.247339248657227 21.238374710083008 11.46660041809082 21.238374710083008 11.770278930664062 C21.238374710083008 11.917325019836426 21.299882888793945 12.040216445922852 21.410572052001953 12.117412567138672 C21.49424171447754 12.172819137573242 21.543546676635742 12.189753532409668 21.838760375976562 12.261968612670898 L22.07756805419922 12.319865226745605 C22.25723648071289 12.363319396972656 22.30878448486328 12.401793479919434 22.30878448486328 12.488576889038086 C22.30878448486328 12.6138334274292 22.180912017822266 12.705348014831543 22.003612518310547 12.705348014831543 C21.83626937866211 12.705348014831543 21.666563034057617 12.63064193725586 21.548402786254883 12.50538444519043 C21.482040405273438 12.435410499572754 21.437713623046875 12.372906684875488 21.373592376708984 12.261968612670898 L21.191434860229492 12.319865226745605 L21.393264770507812 12.922866821289062 L21.535953521728516 12.922866821289062 L21.568077087402344 12.8066987991333 C21.671419143676758 12.886260986328125 21.83626937866211 12.937309265136719 22.001245498657227 12.937309265136719 C22.390090942382812 12.937309265136719 22.683185577392578 12.69090461730957 22.683185577392578 12.36082935333252 C22.683185577392578 12.213783264160156 22.616573333740234 12.08354663848877 22.508373260498047 12.01369571685791 C22.434415817260742 11.965510368347168 22.363195419311523 11.94135570526123 22.16373062133789 11.888440132141113 L21.942228317260742 11.830666542053223 C21.905250549316406 11.823320388793945 21.865901947021484 11.81373405456543 21.826683044433594 11.806511878967285 C21.681255340576172 11.772769927978516 21.617258071899414 11.726949691772461 21.617258071899414 11.652244567871094 C21.617258071899414 11.551018714904785 21.728195190429688 11.478677749633789 21.883085250854492 11.478677749633789 C22.016063690185547 11.478677749633789 22.166095733642578 11.543671607971191 22.257362365722656 11.642533302307129 C22.299196243286133 11.68586254119873 22.328582763671875 11.72446060180664 22.407394409179688 11.83054256439209 L22.579593658447266 11.767913818359375 L22.41984748840332 11.288302421569824 L22.274669647216797 11.288302421569824 L22.244911193847656 11.363008499145508 L22.244911193847656 11.363008499145508" fill="black" fill-opacity="1.0" filling="0"/>
<path animation_id="2" d="M2.0653676986694336 12.257610321044922 C2.2080564498901367 12.26234245300293 2.2770347595214844 12.31289291381836 2.2770347595214844 12.421465873718262 C2.2770347595214844 12.573243141174316 2.1218948364257812 12.708211898803711 1.9472084045410156 12.708211898803711 C1.6937055587768555 12.708211898803711 1.5215091705322266 12.469651222229004 1.5215091705322266 12.122517585754395 C1.5215091705322266 11.746499061584473 1.6863603591918945 11.47905158996582 1.9178237915039062 11.47905158996582 C2.040839195251465 11.47905158996582 2.17132568359375 11.536823272705078 2.2869958877563477 11.642906188964844 C2.3558483123779297 11.707900047302246 2.392828941345215 11.758576393127441 2.46915340423584 11.893545150756836 L2.6413497924804688 11.833281517028809 L2.493680953979492 11.293407440185547 L2.3410329818725586 11.293407440185547 L2.304178237915039 11.363381385803223 C2.200834274291992 11.298262596130371 2.026021957397461 11.252443313598633 1.8833341598510742 11.252443313598633 C1.398493766784668 11.252443313598633 1.0588302612304688 11.60194206237793 1.0588302612304688 12.098362922668457 C1.0588302612304688 12.358713150024414 1.157318115234375 12.606985092163086 1.3173131942749023 12.751541137695312 C1.447798728942871 12.869576454162598 1.6446495056152344 12.942289352416992 1.8390083312988281 12.942289352416992 C1.9571685791015625 12.942289352416992 2.0875301361083984 12.915769577026367 2.1761817932128906 12.874432563781738 C2.21303653717041 12.857499122619629 2.247526168823242 12.838324546813965 2.3410329818725586 12.785158157348633 L2.3951940536499023 12.922990798950195 L2.65853214263916 12.922990798950195 L2.65853214263916 12.471892356872559 C2.65853214263916 12.380252838134766 2.6660032272338867 12.344144821166992 2.6880407333374023 12.322481155395508 C2.710203170776367 12.298325538635254 2.791508674621582 12.269314765930176 2.828362464904785 12.269314765930176 L2.8480358123779297 12.269314765930176 L2.8480358123779297 12.07420825958252 L2.0653676986694336 12.07420825958252 L2.0653676986694336 12.257610321044922 L2.0653676986694336 12.257610321044922 M3.6922121047973633 11.252568244934082 C3.1753721237182617 11.252568244934082 2.798853874206543 11.614144325256348 2.798853874206543 12.113055229187012 C2.798853874206543 12.390337944030762 2.9046878814697266 12.609600067138672 3.1212100982666016 12.768723487854004 C3.278715133666992 12.88924789428711 3.4485464096069336 12.94253921508789 3.660212516784668 12.94253921508789 C4.179419040679932 12.94253921508789 4.5708770751953125 12.571001052856445 4.5708770751953125 12.084044456481934 C4.5708770751953125 11.818963050842285 4.479736328125 11.614144325256348 4.292722702026367 11.457386016845703 C4.13272762298584 11.322418212890625 3.923551559448242 11.252568244934082 3.6922121047973633 11.252568244934082 L3.6922121047973633 11.252568244934082 M3.6947031021118164 11.491128921508789 C3.9530601501464844 11.491128921508789 4.108199119567871 11.71524715423584 4.108199119567871 12.088900566101074 C4.108199119567871 12.455207824707031 3.935877799987793 12.703604698181152 3.6798858642578125 12.703604698181152 C3.5618505477905273 12.703604698181152 3.443690299987793 12.645708084106445 3.3796920776367188 12.554193496704102 C3.305858612060547 12.45047664642334 3.261532783508301 12.276909828186035 3.261532783508301 12.10346794128418 C3.261532783508301 11.739401817321777 3.4363441467285156 11.491128921508789 3.6947031021118164 11.491128921508789 L3.6947031021118164 11.491128921508789 M5.818714141845703 12.161239624023438 C6.069725513458252 12.105709075927734 6.219884395599365 11.939488410949707 6.219884395599365 11.7225923538208 C6.219884395599365 11.573180198669434 6.131233215332031 11.433357238769531 5.9983811378479 11.3707275390625 C5.880221843719482 11.317687034606934 5.732553482055664 11.293532371520996 5.506070137023926 11.293532371520996 L4.580713748931885 11.293532371520996 L4.580713748931885 11.486397743225098 L4.634875297546387 11.491252899169922 C4.689036846160889 11.493742942810059 4.743198871612549 11.510552406311035 4.762871265411377 11.532217025756836 C4.787524223327637 11.558737754821777 4.794869899749756 11.592480659484863 4.794869899749756 11.681628227233887 L4.794869899749756 12.513105392456055 C4.794869899749756 12.602378845214844 4.787524223327637 12.636120796203613 4.762871265411377 12.662640571594238 C4.743198871612549 12.684306144714355 4.689036846160889 12.701239585876465 4.634875297546387 12.703604698181152 L4.580713748931885 12.708335876464844 L4.580713748931885 12.901201248168945 L5.4322357177734375 12.901201248168945 L5.4322357177734375 12.708335876464844 L5.3780741691589355 12.705845832824707 C5.250078201293945 12.696258544921875 5.218079090118408 12.660150527954102 5.218079090118408 12.512980461120605 L5.218079090118408 12.20942497253418 L5.328892707824707 12.20942497253418 L5.845732688903809 12.901201248168945 L6.404407978057861 12.901201248168945 L6.404407978057861 12.708335876464844 C6.261719703674316 12.693892478942871 6.215028285980225 12.667372703552246 6.121397495269775 12.54448127746582 L5.818714141845703 12.161239624023438 L5.818714141845703 12.161239624023438 M5.218203544616699 11.985308647155762 L5.218203544616699 11.616509437561035 C5.218203544616699 11.565834999084473 5.223184108734131 11.5513916015625 5.245222091674805 11.539314270019531 C5.274730682373047 11.522380828857422 5.326402187347412 11.51279354095459 5.397871017456055 11.51279354095459 C5.476561069488525 11.51279354095459 5.533213138580322 11.520015716552734 5.575048446655273 11.532093048095703 C5.6735358238220215 11.563344955444336 5.732553482055664 11.64539623260498 5.732553482055664 11.746623039245605 C5.732553482055664 11.828550338745117 5.690718173980713 11.89852523803711 5.616883754730225 11.939488410949707 C5.557741641998291 11.973231315612793 5.488887786865234 11.985308647155762 5.373218059539795 11.985308647155762 L5.218203544616699 11.985308647155762 M7.541555404663086 11.669550895690918 L7.354417324066162 11.669550895690918 C7.3495612144470215 11.893669128417969 7.312581539154053 11.932267189025879 7.108261585235596 11.927411079406738 L7.041773319244385 11.927411079406738 L7.041773319244385 11.727324485778809 C7.041773319244385 11.602066993713379 7.0442633628845215 11.577912330627441 7.063936233520508 11.5513916015625 C7.086098670959473 11.522504806518555 7.16727876663208 11.505571365356445 7.2829484939575195 11.505571365356445 C7.521633625030518 11.505571365356445 7.718608379364014 11.621241569519043 7.888314723968506 11.859926223754883 L8.050800323486328 11.782731056213379 L7.81211519241333 11.293407440185547 L6.404407978057861 11.293407440185547 L6.404407978057861 11.486272811889648 L6.438897132873535 11.488638877868652 C6.5004048347473145 11.491128921508789 6.564403057098389 11.515159606933594 6.588931083679199 11.539314270019531 C6.611093997955322 11.565710067749023 6.618439674377441 11.597086906433105 6.618439674377441 11.688725471496582 L6.618439674377441 12.503393173217773 C6.618439674377441 12.59739875793457 6.611093997955322 12.628774642944336 6.588931083679199 12.655294418334961 C6.564403057098389 12.679450035095215 6.492934226989746 12.703604698181152 6.438897132873535 12.705845832824707 L6.404407978057861 12.708335876464844 L6.404407978057861 12.901201248168945 L7.8515849113464355 12.901201248168945 L8.117412567138672 12.344393730163574 L7.947581768035889 12.264832496643066 C7.733424663543701 12.568387031555176 7.529228687286377 12.689037322998047 7.233891487121582 12.689037322998047 C7.130424499511719 12.689037322998047 7.068915843963623 12.66973876953125 7.054224014282227 12.633630752563477 C7.0443878173828125 12.607109069824219 7.041897773742676 12.575733184814453 7.041897773742676 12.419100761413574 L7.041897773742676 12.141816139221191 L7.086223125457764 12.141816139221191 C7.20438289642334 12.141816139221191 7.253564357757568 12.153894424438477 7.2855634689331055 12.194857597351074 C7.317562103271484 12.238311767578125 7.342215538024902 12.308161735534668 7.354417324066162 12.402167320251465 L7.541555404663086 12.402167320251465 L7.541555404663086 11.669550895690918 L7.541555404663086 11.669550895690918 M8.905061721801758 11.293532371520996 L8.191247940063477 11.293532371520996 L8.191247940063477 11.486397743225098 L8.218389511108398 11.488763809204102 C8.282387733459473 11.491252899169922 8.351242065429688 11.512918472290039 8.375895500183105 11.53943920135498 C8.39805793762207 11.565834999084473 8.405404090881348 11.597210884094238 8.405404090881348 11.688850402832031 L8.405404090881348 12.503517150878906 C8.405404090881348 12.597522735595703 8.39805793762207 12.628898620605469 8.375895500183105 12.65541934967041 C8.351242065429688 12.681940078735352 8.282387733459473 12.703729629516602 8.218389511108398 12.70596981048584 L8.191247940063477 12.708460807800293 L8.191247940063477 12.901326179504395 L8.843429565429688 12.901326179504395 L8.843429565429688 12.708460807800293 L8.816410064697266 12.70596981048584 C8.752412796020508 12.703604698181152 8.683558464050293 12.681940078735352 8.658905029296875 12.65541934967041 C8.63674259185791 12.628898620605469 8.629396438598633 12.5951566696167 8.629396438598633 12.503517150878906 L8.629396438598633 11.659964561462402 L9.385046005249023 12.901201248168945 L9.682873725891113 12.901201248168945 L9.682873725891113 11.688850402832031 C9.682873725891113 11.599701881408691 9.69021987915039 11.565958976745605 9.712382316589355 11.53943920135498 C9.73691177368164 11.512918472290039 9.803399085998535 11.491252899169922 9.869887351989746 11.488763809204102 L9.896905899047852 11.486397743225098 L9.896905899047852 11.293532371520996 L9.24472427368164 11.293532371520996 L9.24472427368164 11.486397743225098 L9.271742820739746 11.488763809204102 C9.338231086730957 11.491252899169922 9.404594421386719 11.512918472290039 9.429247856140137 11.53943920135498 C9.451410293579102 11.565834999084473 9.458756446838379 11.597210884094238 9.458756446838379 11.688850402832031 L9.458756446838379 12.221502304077148 L8.905061721801758 11.293532371520996 L8.905061721801758 11.293532371520996 M11.124945640563965 11.681504249572754 C11.124945640563965 11.52960205078125 11.15196418762207 11.498226165771484 11.29228687286377 11.488638877868652 L11.339102745056152 11.486272811889648 L11.339102745056152 11.293407440185547 L10.487456321716309 11.293407440185547 L10.487456321716309 11.486272811889648 L10.541617393493652 11.491128921508789 C10.595779418945312 11.493618965148926 10.649941444396973 11.510427474975586 10.6696138381958 11.532093048095703 C10.694266319274902 11.558612823486328 10.70161247253418 11.592354774475098 10.70161247253418 11.681504249572754 L10.70161247253418 12.35634708404541 C10.70161247253418 12.47923755645752 10.686796188354492 12.544357299804688 10.65230655670166 12.594907760620117 C10.605615615844727 12.660026550292969 10.51210880279541 12.703479766845703 10.420967102050781 12.703479766845703 C10.297951698303223 12.703479766845703 10.172321319580078 12.631139755249023 10.172321319580078 12.563655853271484 C10.172321319580078 12.549212455749512 10.177301406860352 12.537135124206543 10.19448471069336 12.520201683044434 C10.241175651550293 12.46716022491455 10.258481979370117 12.42383098602295 10.258481979370117 12.366059303283691 C10.258481979370117 12.259851455688477 10.179668426513672 12.185270309448242 10.071468353271484 12.185270309448242 C9.931270599365234 12.185270309448242 9.829919815063477 12.2960844039917 9.829919815063477 12.455207824707031 C9.829919815063477 12.737222671508789 10.096121788024902 12.942414283752441 10.465292930603027 12.942414283752441 C10.706592559814453 12.942414283752441 10.930461883544922 12.855381965637207 11.04115104675293 12.72028923034668 C11.112494468688965 12.631139755249023 11.124820709228516 12.573243141174316 11.124820709228516 12.332316398620605 L11.124820709228516 11.681504249572754 L11.124945640563965 11.681504249572754 M12.448982238769531 11.368237495422363 C12.352985382080078 11.298262596130371 12.202827453613281 11.252568244934082 12.062627792358398 11.252568244934082 C11.703293800354004 11.252568244934082 11.442445755004883 11.471954345703125 11.442445755004883 11.775632858276367 C11.442445755004883 11.922679901123047 11.503952980041504 12.045571327209473 11.614767074584961 12.122642517089844 C11.698437690734863 12.178049087524414 11.747618675231934 12.194982528686523 12.042956352233887 12.267322540283203 L12.281641006469727 12.32521915435791 C12.461308479309082 12.368548393249512 12.512856483459473 12.407147407531738 12.512856483459473 12.493805885314941 C12.512856483459473 12.619186401367188 12.384984970092773 12.710701942443848 12.207682609558105 12.710701942443848 C12.0403413772583 12.710701942443848 11.87051010131836 12.635995864868164 11.752474784851074 12.51073932647705 C11.685986518859863 12.440764427185059 11.641660690307617 12.37813663482666 11.57766342163086 12.267322540283203 L11.395505905151367 12.32521915435791 L11.597335815429688 12.928220748901367 L11.740023612976074 12.928220748901367 L11.772022247314453 12.811928749084473 C11.8753662109375 12.89161491394043 12.040216445922852 12.94253921508789 12.205192565917969 12.94253921508789 C12.594036102294922 12.94253921508789 12.887131690979004 12.696258544921875 12.887131690979004 12.366183280944824 C12.887131690979004 12.219013214111328 12.82051944732666 12.088900566101074 12.712320327758789 12.019049644470215 C12.638360977172852 11.97074031829834 12.56714153289795 11.946709632873535 12.367677688598633 11.893793106079102 L12.146174430847168 11.835896492004395 C12.1091947555542 11.82867431640625 12.06985092163086 11.819087982177734 12.030630111694336 11.81174087524414 C11.885326385498047 11.777999877929688 11.821329116821289 11.732303619384766 11.821329116821289 11.65747356414795 C11.821329116821289 11.55624771118164 11.93214225769043 11.483907699584961 12.08703327178955 11.483907699584961 C12.220008850097656 11.483907699584961 12.37004280090332 11.548900604248047 12.461308479309082 11.647762298583984 C12.503144264221191 11.691216468811035 12.532527923583984 11.729689598083496 12.611343383789062 11.835771560668945 L12.783539772033691 11.773143768310547 L12.623794555664062 11.293532371520996 L12.47836685180664 11.293532371520996 L12.448982238769531 11.368237495422363 L12.448982238769531 11.368237495422363 M14.12015151977539 11.857437133789062 L14.218639373779297 11.76579761505127 C14.454710006713867 11.553756713867188 14.543485641479492 11.505571365356445 14.75751781463623 11.471830368041992 L14.75751781463623 11.293407440185547 L13.945340156555176 11.293407440185547 L13.945340156555176 11.486272811889648 L13.979829788208008 11.486272811889648 C14.068355560302734 11.486272811889648 14.105335235595703 11.500715255737305 14.105335235595703 11.536823272705078 C14.105335235595703 11.558488845825195 14.105335235595703 11.558488845825195 14.026520729064941 11.633193969726562 L13.623109817504883 12.009214401245117 L13.623109817504883 11.68860149383545 C13.623109817504883 11.531968116760254 13.645272254943848 11.507813453674316 13.810123443603516 11.488638877868652 L13.822324752807617 11.486272811889648 L13.822324752807617 11.293407440185547 L12.985494613647461 11.293407440185547 L12.985494613647461 11.486272811889648 L13.012762069702148 11.488638877868652 C13.079126358032227 11.491128921508789 13.145490646362305 11.51279354095459 13.170143127441406 11.539314270019531 C13.192305564880371 11.565710067749023 13.199775695800781 11.597086906433105 13.199775695800781 11.688725471496582 L13.199775695800781 12.503393173217773 C13.199775695800781 12.59739875793457 13.192181587219238 12.628774642944336 13.170143127441406 12.655294418334961 C13.145614624023438 12.681815147399902 13.076760292053223 12.703604698181152 13.012762069702148 12.705845832824707 L12.985494613647461 12.708335876464844 L12.985494613647461 12.901201248168945 L13.822324752807617 12.901201248168945 L13.822324752807617 12.708335876464844 L13.810123443603516 12.705845832824707 C13.650127410888672 12.691527366638184 13.623109817504883 12.662516593933105 13.623109817504883 12.503393173217773 L13.623109817504883 12.281765937805176 L13.81983470916748 12.1154203414917 L14.068355560302734 12.517836570739746 C14.080806732177734 12.53962516784668 14.093133926391602 12.558799743652344 14.105335235595703 12.575733184814453 C14.127497673034668 12.604619979858398 14.134968757629395 12.623918533325195 14.134968757629395 12.640727996826172 C14.134968757629395 12.686546325683594 14.085662841796875 12.705720901489258 13.945340156555176 12.708211898803711 L13.945340156555176 12.901077270507812 L14.858494758605957 12.901077270507812 L14.858494758605957 12.708211898803711 C14.678827285766602 12.681690216064453 14.636991500854492 12.650314331054688 14.472017288208008 12.394821166992188 L14.12015151977539 11.857437133789062 L14.12015151977539 11.857437133789062 M15.171014785766602 12.503393173217773 C15.171014785766602 12.594907760620117 15.163668632507324 12.628774642944336 15.141630172729492 12.655294418334961 C15.117101669311523 12.681815147399902 15.047998428344727 12.703604698181152 14.984001159667969 12.705845832824707 L14.956981658935547 12.708335876464844 L14.956981658935547 12.901201248168945 L15.808629035949707 12.901201248168945 L15.808629035949707 12.708335876464844 L15.783851623535156 12.705845832824707 C15.719853401184082 12.703479766845703 15.64863395690918 12.679450035095215 15.624105453491211 12.65280532836914 C15.60194206237793 12.628774642944336 15.59447193145752 12.592666625976562 15.59447193145752 12.503393173217773 L15.59447193145752 11.688725471496582 C15.59447193145752 11.599576950073242 15.602066993713379 11.565834999084473 15.624105453491211 11.539314270019531 C15.64863395690918 11.51279354095459 15.714997291564941 11.491128921508789 15.783851623535156 11.488638877868652 L15.808629035949707 11.486272811889648 L15.808629035949707 11.293407440185547 L14.956981658935547 11.293407440185547 L14.956981658935547 11.486272811889648 L14.984001159667969 11.488638877868652 C15.050613403320312 11.491128921508789 15.11697769165039 11.51279354095459 15.141630172729492 11.539314270019531 C15.163793563842773 11.565710067749023 15.171014785766602 11.599576950073242 15.171014785766602 11.688725471496582 L15.171014785766602 12.503393173217773" fill="none" filling="0" stroke="black" stroke-opacity="1.0" stroke-width=".3"/>
<path animation_id="3" d="M2.7471837997436523 12.119653701782227 L2.8749303817749023 12.119653701782227 L2.8697004318237305 12.236693382263184 L2.7578907012939453 12.236817359924316 L2.7471837997436523 12.119653701782227" fill="black" fill-opacity="1.0" filling="0"/>
<path animation_id="4" d="M2.989230155944824 11.759323120117188 C3.0762624740600586 11.757205963134766 3.1520891189575195 11.925169944763184 3.1581897735595703 12.133349418640137 C3.1641664505004883 12.341405868530273 3.0981760025024414 12.512980461120605 3.011018753051758 12.514972686767578 C2.92398738861084 12.517213821411133 2.8480358123779297 12.349125862121582 2.8420591354370117 12.141070365905762 C2.83608341217041 11.933013916015625 2.90219783782959 11.761563301086426 2.989230155944824 11.759323120117188 M6.355475425720215 12.748801231384277 C6.390711784362793 12.751666069030762 6.422461986541748 12.752038955688477 6.450974464416504 12.750420570373535 L6.475627422332764 12.85600471496582 L6.323102951049805 12.85600471496582 L6.355475425720215 12.748801231384277" fill="black" fill-opacity="1.0" filling="0"/>
<path animation_id="5" d="M14.770465850830078 12.855879783630371 L15.102409362792969 12.855879783630371 L15.102409362792969 12.946398735046387 L14.770465850830078 12.946398735046387 L14.770465850830078 12.855879783630371" fill="black" fill-opacity="1.0" filling="0"/>
<path animation_id="6" d="M14.78989028930664 12.741331100463867 L15.040653228759766 12.741331100463867 L15.040653228759766 12.855879783630371 L14.78989028930664 12.855879783630371 L14.78989028930664 12.741331100463867" fill="black" fill-opacity="1.0" filling="0"/>
<path animation_id="7" d="M14.758264541625977 12.640727996826172 C14.902944564819336 12.686173439025879 15.068044662475586 12.653427124023438 15.08896255493164 12.635995864868164 L15.09207534790039 12.731993675231934 C15.005043029785156 12.758513450622559 14.896346092224121 12.77083969116211 14.757641792297363 12.734731674194336 L14.758264541625977 12.640727996826172 L14.758264541625977 12.640727996826172 M22.787525177001953 11.05347728729248 C22.698997497558594 11.05347728729248 22.629398345947266 11.123950004577637 22.629398345947266 11.213347434997559 C22.629398345947266 11.300878524780273 22.699371337890625 11.372844696044922 22.785781860351562 11.372844696044922 C22.871566772460938 11.372844696044922 22.94116973876953 11.301375389099121 22.94116973876953 11.213347434997559 C22.94116973876953 11.12581729888916 22.871566772460938 11.05347728729248 22.787525177001953 11.05347728729248 L22.787525177001953 11.05347728729248 M22.78702735900879 11.072900772094727 C22.8597412109375 11.072900772094727 22.920251846313477 11.13652515411377 22.920251846313477 11.213471412658691 C22.920251846313477 11.29091739654541 22.8597412109375 11.353545188903809 22.785282135009766 11.353545188903809 C22.711076736450195 11.353545188903809 22.650066375732422 11.290419578552246 22.650066375732422 11.213471412658691 C22.650066375732422 11.134657859802246 22.7105770111084 11.072900772094727 22.78702735900879 11.072900772094727 L22.78702735900879 11.072900772094727 M22.738094329833984 11.226296424865723 L22.779680252075195 11.226296424865723 C22.79785919189453 11.226296424865723 22.802841186523438 11.22729206085205 22.80956268310547 11.231401443481445 C22.818527221679688 11.237378120422363 22.82101821899414 11.24435043334961 22.823631286621094 11.272490501403809 C22.82487678527832 11.290419578552246 22.825376510620117 11.29228687286377 22.827991485595703 11.299135208129883 L22.857872009277344 11.299135208129883 C22.853763580322266 11.293157577514648 22.85251808166504 11.290419578552246 22.851024627685547 11.287555694580078 C22.849531173706055 11.283447265625 22.849281311035156 11.2802095413208 22.847412109375 11.259042739868164 C22.844799041748047 11.231401443481445 22.840564727783203 11.2244291305542 22.823631286621094 11.215214729309082 C22.84380340576172 11.206499099731445 22.853763580322266 11.192678451538086 22.853763580322266 11.172384262084961 A0.047064680606126785 0.047064680606126785 0.0 0 0 22.834339141845703 11.132789611816406 C22.82413101196289 11.12531852722168 22.8162841796875 11.124074935913086 22.79051399230957 11.124074935913086 L22.712696075439453 11.124074935913086 L22.712696075439453 11.299135208129883 L22.73796844482422 11.299135208129883 L22.73796844482422 11.226296424865723 L22.738094329833984 11.226296424865723 L22.738094329833984 11.226296424865723 M22.738094329833984 11.206001281738281 L22.738094329833984 11.146486282348633 L22.78789710998535 11.146486282348633 A0.08466662466526031 0.08466662466526031 0.0 0 1 22.812177658081055 11.148353576660156 C22.822139739990234 11.150718688964844 22.828487396240234 11.160804748535156 22.828487396240234 11.174251556396484 C22.828487396240234 11.188072204589844 22.822139739990234 11.198158264160156 22.80956268310547 11.202764511108398 C22.802715301513672 11.205130577087402 22.795244216918945 11.206001281738281 22.773828506469727 11.206001281738281 L22.738094329833984 11.206001281738281" fill="black" fill-opacity="1.0" filling="0"/></svg>