<?xml version="1.0" encoding="iso-8859-1"?><svg height="200px" viewBox="0.0 0.0 24.0 24.0" width="200px" xmlns="http://www.w3.org/2000/svg"><path animation_id="0" d="M0.0 24.0 L24.0 24.0 L24.0 0.0 L0.0 0.0 L0.0 24.0" fill="black" fill-opacity="1.0" filling="0"/>
<path animation_id="1" d="M21.323787689208984 16.611095428466797 C19.318683624267578 17.479799270629883 16.753908157348633 18.003360748291016 13.967876434326172 18.003360748291016 C10.785656929016113 18.003360748291016 7.89217472076416 17.320301055908203 5.791570663452148 16.220134735107422 C3.6414127349853516 15.093942642211914 2.308037757873535 13.523003578186035 2.308037757873535 11.779742240905762 C2.308037757873535 10.031003952026367 3.6386728286743164 8.461806297302246 5.784972190856934 7.337608337402344 C6.8791632652282715 6.764489650726318 8.189005851745605 6.305422306060791 9.642906188964844 5.996762752532959 C8.43665599822998 7.148726940155029 7.723090648651123 8.564652442932129 7.723090648651123 10.093008041381836 C7.723090648651123 13.926290512084961 12.239432334899902 17.062564849853516 17.77326774597168 17.062564849853516 C19.021976470947266 17.06269073486328 20.218887329101562 16.902446746826172 21.323787689208984 16.611095428466797 L21.323787689208984 16.611095428466797" fill="black" fill-opacity="1.0" filling="0"/>
<path animation_id="2" d="M11.688725471496582 14.702360153198242 C11.809500694274902 14.80059814453125 11.907115936279297 14.867709159851074 11.982319831848145 14.904687881469727 A0.5216958522796631 0.5216958522796631 0.0 0 0 12.21166706085205 14.959348678588867 C12.334558486938477 14.959348678588867 12.444499969482422 14.915519714355469 12.540994644165039 14.827740669250488 C12.637490272521973 14.739213943481445 12.685426712036133 14.624914169311523 12.685426712036133 14.483845710754395 C12.685426712036133 14.377513885498047 12.6541748046875 14.289361000061035 12.59067440032959 14.218016624450684 C12.52642822265625 14.14816665649414 12.404034614562988 14.079437255859375 12.22374439239502 14.011829376220703 C11.86552906036377 13.876112937927246 11.686982154846191 13.671170234680176 11.686982154846191 13.395380973815918 C11.686982154846191 13.218079566955566 11.75060749053955 13.067048072814941 11.877108573913574 12.942289352416992 C12.004234313964844 12.818029403686523 12.156135559082031 12.75577449798584 12.333561897277832 12.75577449798584 C12.479113578796387 12.75577449798584 12.629396438598633 12.809562683105469 12.783663749694824 12.918259620666504 L12.783663749694824 13.2244291305542 C12.685426712036133 13.133038520812988 12.60449504852295 13.070783615112305 12.540994644165039 13.03666877746582 A0.42333313822746277 0.42333313822746277 0.0 0 0 12.338790893554688 12.985868453979492 C12.220258712768555 12.985868453979492 12.12152099609375 13.026209831237793 12.04345417022705 13.107763290405273 C11.964888572692871 13.189192771911621 11.925667762756348 13.283321380615234 11.925667762756348 13.390399932861328 C11.925667762756348 13.498848915100098 11.960904121398926 13.584510803222656 12.031375885009766 13.647015571594238 C12.101724624633789 13.709768295288086 12.229596138000488 13.778621673583984 12.41499137878418 13.854198455810547 C12.526552200317383 13.899396896362305 12.616697311401367 13.945091247558594 12.68480396270752 13.991409301757812 C12.753035545349121 14.037601470947266 12.810185432434082 14.103218078613281 12.855879783630371 14.187636375427246 C12.901450157165527 14.272801399230957 12.92398738861084 14.369047164916992 12.92398738861084 14.477246284484863 C12.92398738861084 14.679326057434082 12.854012489318848 14.849281311035156 12.714312553405762 14.986740112304688 C12.574363708496094 15.124322891235352 12.408641815185547 15.192928314208984 12.216896057128906 15.192928314208984 C12.049803733825684 15.192928314208984 11.87362289428711 15.128183364868164 11.688725471496582 14.998817443847656 L11.688725471496582 14.702360153198242 M14.202204704284668 14.986615180969238 C14.03062915802002 15.124198913574219 13.863164901733398 15.192804336547852 13.699807167053223 15.192804336547852 C13.50793743133545 15.192804336547852 13.35254955291748 15.115981101989746 13.234140396118164 14.9624605178833 C13.115607261657715 14.80806827545166 13.05659008026123 14.607358932495117 13.05659008026123 14.360331535339355 C13.05659008026123 14.105460166931152 13.117849349975586 13.899271965026855 13.2398681640625 13.741393089294434 C13.362260818481445 13.584261894226074 13.517151832580566 13.505696296691895 13.704912185668945 13.505696296691895 C13.870759010314941 13.505696296691895 14.003486633300781 13.568697929382324 14.104090690612793 13.695573806762695 C14.204693794250488 13.822698593139648 14.254871368408203 13.983440399169922 14.254871368408203 14.17755126953125 L14.254871368408203 14.28213882446289 L13.275104522705078 14.28213882446289 L13.275104522705078 14.365311622619629 C13.275104522705078 14.57498550415039 13.31843376159668 14.73398494720459 13.40621280670166 14.840690612792969 C13.493370056152344 14.948142051696777 13.595717430114746 15.001432418823242 13.713005065917969 15.001432418823242 C13.875988006591797 15.001432418823242 14.038846969604492 14.911909103393555 14.2023286819458 14.732739448547363 L14.2023286819458 14.986615180969238 L14.202204704284668 14.986615180969238 L14.202204704284668 14.986615180969238 M14.0278902053833 14.101724624633789 C14.023283004760742 13.967005729675293 13.989043235778809 13.866276741027832 13.925045013427734 13.799415588378906 C13.860176086425781 13.732553482055664 13.785221099853516 13.698686599731445 13.699807167053223 13.698686599731445 C13.612525939941406 13.698686599731445 13.53147029876709 13.732428550720215 13.456514358520508 13.799415588378906 C13.38180923461914 13.866276741027832 13.328269958496094 13.967005729675293 13.297018051147461 14.101724624633789 L14.0278902053833 14.101724624633789 L14.0278902053833 14.101724624633789 M15.445558547973633 13.542924880981445 L15.602689743041992 13.542924880981445 L15.602689743041992 15.2490816116333 C15.602689743041992 15.466974258422852 15.54379653930664 15.637428283691406 15.425263404846191 15.760194778442383 C15.306854248046875 15.883210182189941 15.164788246154785 15.94446849822998 14.998443603515625 15.94446849822998 C14.853389739990234 15.94446849822998 14.696258544921875 15.88731861114502 14.528045654296875 15.771773338317871 L14.528045654296875 15.519890785217285 C14.691527366638184 15.676523208618164 14.845919609069824 15.75508975982666 14.990225791931152 15.75508975982666 C15.109880447387695 15.75508975982666 15.206375122070312 15.708149909973145 15.279711723327637 15.614767074584961 C15.353172302246094 15.521135330200195 15.389528274536133 15.399365425109863 15.389528274536133 15.248957633972168 L15.389528274536133 14.902196884155273 C15.333499908447266 14.986615180969238 15.271617889404297 15.050239562988281 15.205254554748535 15.092323303222656 A0.39220571517944336 0.39220571517944336 0.0 0 1 14.990225791931152 15.155823707580566 C14.82686996459961 15.155823707580566 14.690406799316406 15.076760292053223 14.582457542419434 14.91900634765625 C14.473884582519531 14.76075553894043 14.420096397399902 14.571748733520508 14.420096397399902 14.351615905761719 C14.420096397399902 14.114797592163086 14.480109214782715 13.914835929870605 14.600883483886719 13.750732421875 C14.721658706665039 13.587374687194824 14.864845275878906 13.505821228027344 15.030692100524902 13.505821228027344 C15.101787567138672 13.505821228027344 15.167030334472656 13.52088737487793 15.227168083190918 13.552014350891113 C15.286684036254883 13.583142280578613 15.340970039367676 13.629334449768066 15.389528274536133 13.691839218139648 L15.445558547973633 13.542924880981445 L15.445558547973633 13.542924880981445 M15.389528274536133 13.888439178466797 C15.340970039367676 13.828426361083984 15.290170669555664 13.783851623535156 15.237627029418945 13.754467010498047 A0.3399116098880768 0.3399116098880768 0.0 0 0 15.06991195678711 13.710390090942383 C14.94565200805664 13.710390090942383 14.843554496765137 13.770901679992676 14.76324462890625 13.891800880432129 C14.68343448638916 14.012700080871582 14.642969131469727 14.166096687316895 14.642969131469727 14.35335922241211 C14.642969131469727 14.525057792663574 14.678204536437988 14.67048454284668 14.748178482055664 14.789640426635742 C14.818153381347656 14.908547401428223 14.912158966064453 14.968188285827637 15.030692100524902 14.968188285827637 C15.133537292480469 14.968188285827637 15.219075202941895 14.921497344970703 15.28730583190918 14.827865600585938 C15.355538368225098 14.734233856201172 15.389528274536133 14.612836837768555 15.389528274536133 14.463798522949219 L15.389528274536133 13.888439178466797 L15.389528274536133 13.888439178466797 M16.750545501708984 13.542924880981445 L16.961837768554688 13.542924880981445 L16.961837768554688 15.155948638916016 L16.750545501708984 15.155948638916016 L16.750545501708984 14.934196472167969 C16.690406799316406 15.020233154296875 16.62504005432129 15.084480285644531 16.554067611694336 15.128307342529297 A0.43204882740974426 0.43204882740974426 0.0 0 1 16.323974609375 15.193053245544434 C16.186017990112305 15.193053245544434 16.078441619873047 15.1463623046875 16.000995635986328 15.052730560302734 C15.924173355102539 14.959098815917969 15.885451316833496 14.833842277526855 15.885451316833496 14.677207946777344 L15.885451316833496 13.543049812316895 L16.09524917602539 13.543049812316895 L16.09524917602539 14.677207946777344 C16.09524917602539 14.783913612365723 16.117786407470703 14.864969253540039 16.162734985351562 14.918010711669922 C16.207931518554688 14.97179889678955 16.276037216186523 14.998941421508789 16.366308212280273 14.998941421508789 C16.478866577148438 14.998941421508789 16.571250915527344 14.951005935668945 16.64309310913086 14.855755805969238 C16.71468734741211 14.760380744934082 16.750545501708984 14.637864112854004 16.750545501708984 14.487581253051758 L16.750545501708984 13.542924880981445 L16.750545501708984 13.542924880981445 M17.486896514892578 13.781485557556152 C17.537696838378906 13.689099311828613 17.594348907470703 13.619747161865234 17.656726837158203 13.574051856994629 A0.3432733714580536 0.3432733714580536 0.0 0 1 17.862417221069336 13.505945205688477 C17.917699813842773 13.505945205688477 17.97397804260254 13.518147468566895 18.029884338378906 13.542924880981445 L18.029884338378906 13.74276351928711 C17.964763641357422 13.717986106872559 17.909109115600586 13.705036163330078 17.864036560058594 13.705036163330078 C17.7573299407959 13.705036163330078 17.66706085205078 13.755338668823242 17.594844818115234 13.855817794799805 C17.52263069152832 13.956546783447266 17.486896514892578 14.071468353271484 17.486896514892578 14.201332092285156 L17.486896514892578 15.155823707580566 L17.278839111328125 15.155823707580566 L17.278839111328125 13.542924880981445 L17.46834373474121 13.542924880981445 L17.486896514892578 13.781485557556152 L17.486896514892578 13.781485557556152 M18.758264541625977 13.505945205688477 C18.935813903808594 13.505945205688477 19.083484649658203 13.582767486572266 19.202016830444336 13.736536979675293 C19.32042694091797 13.890681266784668 19.37932014465332 14.094752311706543 19.37932014465332 14.348875999450684 A1.2234327793121338 1.2234327793121338 0.0 0 1 19.30946922302246 14.764490127563477 C19.262653350830078 14.894353866577148 19.189815521240234 14.998941421508789 19.091577529907227 15.076262474060059 C18.99333953857422 15.154329299926758 18.879535675048828 15.193053245544434 18.749549865722656 15.193053245544434 C18.556682586669922 15.193053245544434 18.404531478881836 15.113988876342773 18.293718338012695 14.954492568969727 C18.182283401489258 14.79574203491211 18.126750946044922 14.596277236938477 18.126750946044922 14.357217788696289 C18.126750946044922 14.166345596313477 18.161863327026367 14.00174331665039 18.23196029663086 13.86303997039795 C18.301937103271484 13.72396183013916 18.387348175048828 13.629584312438965 18.488576889038086 13.580028533935547 C18.589677810668945 13.530722618103027 18.679075241088867 13.505945205688477 18.758264541625977 13.505945205688477 L18.758264541625977 13.505945205688477 M18.77220916748047 13.705036163330078 C18.63064193725586 13.705036163330078 18.524932861328125 13.765298843383789 18.453962326049805 13.884952545166016 C18.38286781311035 14.004358291625977 18.347009658813477 14.167341232299805 18.347009658813477 14.373529434204102 C18.347009658813477 14.551079750061035 18.382244110107422 14.699371337890625 18.452220916748047 14.819025039672852 C18.522193908691406 14.938679695129395 18.620433807373047 14.998692512512207 18.746810913085938 14.998692512512207 C18.866586685180664 14.998692512512207 18.964702606201172 14.942788124084473 19.042022705078125 14.8316011428833 C19.11946678161621 14.720662117004395 19.157691955566406 14.558550834655762 19.157691955566406 14.34526538848877 C19.157691955566406 14.14194107055664 19.12009048461914 13.984685897827148 19.044511795043945 13.872751235961914 C18.968685150146484 13.761190414428711 18.877918243408203 13.705036163330078 18.77220916748047 13.705036163330078 M19.52997589111328 14.803959846496582 C19.688228607177734 14.932329177856445 19.838634490966797 14.997074127197266 19.98169708251953 14.997074127197266 C20.09276008605957 14.997074127197266 20.184024810791016 14.96881103515625 20.256240844726562 14.913154602050781 C20.328330993652344 14.85724925994873 20.36418914794922 14.786154747009277 20.36418914794922 14.700616836547852 C20.36418914794922 14.638113021850586 20.34065818786621 14.586814880371094 20.292598724365234 14.544731140136719 C20.24466323852539 14.503144264221191 20.151527404785156 14.462056159973145 20.01419448852539 14.421464920043945 C19.844985961914062 14.370914459228516 19.721097946166992 14.312270164489746 19.643280029296875 14.247152328491211 C19.56583595275879 14.181286811828613 19.526615142822266 14.090518951416016 19.526615142822266 13.974599838256836 C19.526615142822266 13.841623306274414 19.57915687561035 13.730188369750977 19.684242248535156 13.639918327331543 C19.788955688476562 13.550395965576172 19.9189453125 13.505945205688477 20.073711395263672 13.505945205688477 C20.19734764099121 13.505945205688477 20.338916778564453 13.549772262573242 20.49666976928711 13.637552261352539 L20.49666976928711 13.878105163574219 C20.362573623657227 13.760942459106445 20.224369049072266 13.701799392700195 20.083545684814453 13.701799392700195 C19.986427307128906 13.701799392700195 19.906742095947266 13.727821350097656 19.844364166259766 13.779866218566895 C19.781360626220703 13.831912994384766 19.750232696533203 13.894415855407715 19.750232696533203 13.96762752532959 C19.750232696533203 14.030131340026855 19.77849769592285 14.080931663513184 19.83514976501465 14.12015151977539 C19.890056610107422 14.16074275970459 19.981821060180664 14.199464797973633 20.110689163208008 14.235198974609375 C20.42669677734375 14.323476791381836 20.584449768066406 14.473260879516602 20.584449768066406 14.685799598693848 C20.584449768066406 14.829235076904297 20.526676177978516 14.949387550354004 20.4111328125 15.04687786102295 C20.29558563232422 15.14461898803711 20.155263900756836 15.193053245544434 19.990537643432617 15.193053245544434 C19.8380126953125 15.193053245544434 19.684865951538086 15.144120216369629 19.530101776123047 15.046380043029785 L19.530101776123047 14.803959846496582 L19.52997589111328 14.803959846496582 L19.52997589111328 14.803959846496582" fill="black" fill-opacity="1.0" filling="0"/>
<path animation_id="3" d="M13.967876434326172 17.516029357910156 C15.520886421203613 17.516029357910156 17.00130844116211 17.350433349609375 18.348129272460938 17.051111221313477 C18.157878875732422 17.05883026123047 17.96638298034668 17.062814712524414 17.773391723632812 17.062814712524414 C12.239557266235352 17.062814712524414 7.723215103149414 13.926539421081543 7.723215103149414 10.093257904052734 C7.723215103149414 8.836581230163574 8.20544147491455 7.655979633331299 9.047127723693848 6.635373115539551 C7.915333271026611 6.923986911773682 6.889497756958008 7.308846473693848 6.009587287902832 7.769657135009766 C4.025275707244873 8.808815002441406 2.7952442169189453 10.227478981018066 2.7952442169189453 11.779742240905762 C2.7952442169189453 13.326900482177734 4.028015613555908 14.74693489074707 6.016061782836914 15.788209915161133 C8.051547050476074 16.854263305664062 10.865094184875488 17.516029357910156 13.967876434326172 17.516029357910156" fill="black" fill-opacity="1.0" filling="0"/>
<path animation_id="4" d="M9.939488410949707 8.364688873291016 L9.618751525878906 10.31600570678711 L10.274045944213867 10.31600570678711 L9.939488410949707 8.364688873291016 L9.939488410949707 8.364688873291016 M16.07271385192871 9.29851245880127 L16.18427276611328 9.29851245880127 C16.295835494995117 9.29851245880127 16.393325805664062 9.242732048034668 16.449106216430664 9.103281021118164 C16.519081115722656 8.977899551391602 16.5606689453125 8.768848419189453 16.5606689453125 8.504140853881836 C16.5606689453125 8.21129322052002 16.518957138061523 8.002366065979004 16.449106216430664 7.8629150390625 C16.393325805664062 7.723464012145996 16.29595947265625 7.653738498687744 16.18427276611328 7.653738498687744 L15.598954200744629 7.653738498687744 L15.598954200744629 9.298636436462402 L16.07271385192871 9.298636436462402 L16.07271385192871 9.29851245880127 M16.07271385192871 6.859241962432861 L16.18427276611328 6.859241962432861 C16.5048885345459 6.859241962432861 16.755897521972656 6.998692512512207 16.965076446533203 7.291415214538574 C17.160057067871094 7.584137439727783 17.257549285888672 7.974350929260254 17.257549285888672 8.47612476348877 C17.257549285888672 8.99184513092041 17.16018295288086 9.396127700805664 16.951005935668945 9.674905776977539 C16.74182891845703 9.953682899475098 16.47699737548828 10.093133926391602 16.142438888549805 10.093133926391602 L15.599078178405762 10.093133926391602 L15.599078178405762 12.1839017868042 L14.901948928833008 12.1839017868042 L14.901948928833008 6.859241962432861 L16.07271385192871 6.859241962432861 L16.07271385192871 6.859241962432861 M9.939488410949707 11.208118438720703 L9.46548080444336 11.208118438720703 L9.298138618469238 12.1839017868042 L8.559422492980957 12.1839017868042 L9.50706672668457 6.859241962432861 L10.399303436279297 6.859241962432861 L11.333250999450684 12.1839017868042 L10.594533920288086 12.1839017868042 L10.427068710327148 11.208118438720703 L9.939488410949707 11.208118438720703 L9.939488410949707 11.208118438720703 M13.730934143066406 9.382182121276855 L13.131669998168945 12.1839017868042 L12.922369003295898 12.1839017868042 L12.26719856262207 9.29851245880127 L12.26719856262207 12.1839017868042 L11.556496620178223 12.1839017868042 L11.556496620178223 6.859241962432861 L12.448484420776367 6.859241962432861 L13.034177780151367 9.535453796386719 L13.5917329788208 6.859241962432861 L14.441884994506836 6.859241962432861 L14.441884994506836 12.1839017868042 L13.731059074401855 12.1839017868042 L13.731059074401855 9.382182121276855 L13.730934143066406 9.382182121276855 L13.730934143066406 9.382182121276855" fill="black" fill-opacity="1.0" filling="0"/></svg>