<?xml version="1.0" encoding="iso-8859-1"?><svg height="200px" viewBox="0.0 0.0 24.0 24.0" width="200px" xmlns="http://www.w3.org/2000/svg"><path animation_id="0" d="M0.0 0.0 L24.0 0.0 L24.0 24.0 L0.0 24.0 L0.0 0.0" fill="black" fill-opacity="1.0" filling="0"/>
<path animation_id="1" d="M8.845296859741211 14.105335235595703 L15.161551475524902 14.105335235595703 C15.45551872253418 14.105335235595703 15.698064804077148 14.345640182495117 15.698064804077148 14.639607429504395 A0.538006603717804 0.538006603717804 0.0 0 1 15.161551475524902 15.176118850708008 L8.845296859741211 15.176118850708008 A0.536637008190155 0.536637008190155 0.0 0 1 8.308784484863281 14.639607429504395 C8.308784484863281 14.345640182495117 8.54896354675293 14.105335235595703 8.845296859741211 14.105335235595703 M21.16130256652832 14.668741226196289 C21.16130256652832 14.668741226196289 20.519329071044922 14.439892768859863 20.018802642822266 14.363569259643555 C20.018802642822266 14.363569259643555 20.09487533569336 14.18626594543457 20.09487533569336 14.07607650756836 L20.09487533569336 9.25717544555664 C20.09487533569336 9.25717544555664 20.128618240356445 9.025959968566895 19.91757583618164 8.781298637390137 L21.670673370361328 8.781298637390137 C21.670673370361328 8.781298637390137 22.667247772216797 8.781298637390137 22.680570602416992 10.529788970947266 C22.689537048339844 11.643031120300293 22.337173461914062 11.78447437286377 22.19585418701172 11.934882164001465 C22.19585418701172 11.934882164001465 22.406648635864258 12.244662284851074 22.467533111572266 12.601507186889648 C22.525930404663086 12.956358909606934 22.78167152404785 14.677831649780273 22.78167152404785 14.677831649780273 C22.78167152404785 14.677831649780273 22.806201934814453 15.05036449432373 22.940921783447266 15.218701362609863 C22.940921783447266 15.218701362609863 22.180042266845703 14.888999938964844 21.670547485351562 14.77880859375 C21.670547485351562 14.77880859375 21.49324607849121 13.371475219726562 21.459503173828125 12.915769577026367 C21.425886154174805 12.457822799682617 21.365373611450195 12.253875732421875 21.078004837036133 12.195480346679688 L21.078004837036133 14.228973388671875 C21.0781307220459 14.228849411010742 21.05111312866211 14.415115356445312 21.16130256652832 14.668741226196289 M19.751602172851562 13.034801483154297 L19.751602172851562 14.31637954711914 C19.751602172851562 14.31637954711914 18.763992309570312 13.988545417785645 17.65971565246582 13.804520606994629 C17.65971565246582 13.804520606994629 17.792192459106445 13.488141059875488 17.792192459106445 13.205378532409668 L17.792192459106445 9.117973327636719 C17.792192459106445 9.117973327636719 17.805517196655273 8.983253479003906 17.70677947998047 8.781298637390137 L19.605554580688477 8.781298637390137 L19.605554580688477 9.636556625366211 C19.605554580688477 9.636556625366211 19.410322189331055 9.427878379821777 18.73249053955078 9.427878379821777 L18.73249053955078 10.902571678161621 L19.15221405029297 10.902571678161621 C19.15221405029297 10.902571678161621 19.450786590576172 10.913777351379395 19.614517211914062 10.709456443786621 L19.614517211914062 11.885575294494629 C19.614517211914062 11.885575294494629 19.493370056152344 11.708273887634277 19.138891220092773 11.708273887634277 L18.73249053955078 11.708273887634277 L18.73249053955078 13.11349105834961 C18.732616424560547 13.11336612701416 19.305110931396484 13.369234085083008 19.751602172851562 13.034801483154297 L19.751602172851562 13.034801483154297 M17.01114273071289 13.647388458251953 C17.01114273071289 13.647388458251953 16.43653106689453 13.494864463806152 15.87984848022461 13.465728759765625 C15.87984848022461 13.465728759765625 16.014320373535156 13.283820152282715 16.014320373535156 13.068418502807617 L16.014320373535156 9.470335006713867 C16.014320373535156 9.470335006713867 15.592355728149414 9.441201210021973 15.316441535949707 9.78683853149414 L15.316441535949707 8.781298637390137 L17.567577362060547 8.781298637390137 L17.567577362060547 9.79817008972168 C17.567577362060547 9.79817008972168 17.352176666259766 9.470459938049316 16.865219116210938 9.470459938049316 L16.865219116210938 13.160430908203125 C16.865219116210938 13.160305976867676 16.836082458496094 13.425387382507324 17.01114273071289 13.647388458251953 L17.01114273071289 13.647388458251953 M15.709145545959473 13.445558547973633 C15.709145545959473 13.445558547973633 14.849530220031738 13.351180076599121 14.57560920715332 13.331009864807129 C14.57560920715332 13.331009864807129 14.746062278747559 13.119965553283691 14.687666893005371 12.909046173095703 L14.57560920715332 12.237813949584961 L13.933635711669922 12.237813949584961 L13.843864440917969 12.861857414245605 C13.843864440917969 12.861857414245605 13.81684684753418 13.182842254638672 13.978584289550781 13.303990364074707 C13.978584289550781 13.297142028808594 13.29403018951416 13.24783706665039 12.977401733398438 13.250202178955078 C12.977401733398438 13.250202178955078 13.091951370239258 12.875179290771484 13.125443458557129 12.646329879760742 C13.159186363220215 12.419722557067871 13.695698738098145 9.165038108825684 13.695698738098145 9.165038108825684 C13.695698738098145 9.165038108825684 13.742887496948242 8.987735748291016 13.587997436523438 8.781174659729004 L15.024466514587402 8.781174659729004 C15.024466514587402 8.781174659729004 14.923489570617676 8.978647232055664 14.93008804321289 9.15831470489502 L15.554130554199219 12.888875007629395 C15.554255485534668 12.888999938964844 15.621614456176758 13.317687034606934 15.709145545959473 13.445558547973633 L15.709145545959473 13.445558547973633 M7.714001655578613 10.583702087402344 L8.00796890258789 10.583702087402344 C8.153894424438477 10.583702087402344 8.295337677001953 10.554566383361816 8.407520294189453 10.40864086151123 L8.407520294189453 11.622984886169434 C8.407520294189453 11.622984886169434 8.3177490234375 11.427753448486328 8.021415710449219 11.427753448486328 L7.713876724243164 11.427753448486328 L7.713876724243164 12.666749954223633 C7.713876724243164 12.666749954223633 8.227852821350098 12.77880859375 8.71269416809082 12.27155590057373 L8.71269416809082 13.488141059875488 C8.71269416809082 13.488141059875488 7.341218948364258 13.62061882019043 6.640976428985596 13.741766929626465 C6.640976428985596 13.741766929626465 6.76660680770874 13.234514236450195 6.76660680770874 12.920251846313477 L6.76660680770874 9.380563735961914 C6.76660680770874 9.380563735961914 6.753159523010254 9.106767654418945 6.557928085327148 8.781298637390137 L8.459192276000977 8.781298637390137 L8.459192276000977 9.829545974731445 C8.459192276000977 9.829545974731445 8.295337677001953 9.575920104980469 8.086658477783203 9.575920104980469 L7.714001655578613 9.575920104980469 L7.714001655578613 10.583702087402344 L7.714001655578613 10.583702087402344 M12.950508117675781 12.146050453186035 L12.802465438842773 13.254685401916504 C12.802465438842773 13.254685401916504 11.527609825134277 13.254685401916504 10.980015754699707 13.295025825500488 C10.980015754699707 13.295025825500488 11.119093894958496 12.940422058105469 11.119093894958496 12.653054237365723 L11.119093894958496 9.34022331237793 C11.119093894958496 9.34022331237793 11.092199325561523 9.016995429992676 10.919380187988281 8.781298637390137 L12.822760581970215 8.781298637390137 L12.822760581970215 9.638797760009766 C12.822760581970215 9.638797760009766 12.629894256591797 9.41878890991211 12.432173728942871 9.41878890991211 L12.068605422973633 9.41878890991211 L12.068605422973633 10.471518516540527 L12.398680686950684 10.471518516540527 C12.542365074157715 10.471518516540527 12.685924530029297 10.4423828125 12.795991897583008 10.296457290649414 L12.795991897583008 11.510676383972168 C12.795991897583008 11.510676383972168 12.70596981048584 11.315444946289062 12.412002563476562 11.315444946289062 L12.068605422973633 11.315444946289062 L12.068605422973633 12.410882949829102 C12.06835651397705 12.410882949829102 12.65865707397461 12.509618759155273 12.950508117675781 12.146050453186035 L12.950508117675781 12.146050453186035 M10.039344787597656 13.418540000915527 C10.039344787597656 13.418540000915527 9.190936088562012 13.44991683959961 8.83620834350586 13.476934432983398 C8.83620834350586 13.476934432983398 8.957480430603027 13.108758926391602 8.957480430603027 12.868704795837402 L8.957480430603027 9.360393524169922 C8.957480430603027 9.360393524169922 8.96196174621582 9.059577941894531 8.690281867980957 8.781298637390137 L10.723899841308594 8.781298637390137 L10.723899841308594 9.658967971801758 C10.723899841308594 9.658967971801758 10.600510597229004 9.504077911376953 10.40739631652832 9.504077911376953 L9.89341926574707 9.504077911376953 L9.89341926574707 10.576977729797363 L10.342277526855469 10.576977729797363 C10.488203048706055 10.576977729797363 10.629646301269531 10.547842979431152 10.741829872131348 10.401917457580566 L10.741829872131348 11.61613655090332 C10.741829872131348 11.61613655090332 10.652057647705078 11.420905113220215 10.357965469360352 11.420905113220215 L9.893295288085938 11.420905113220215 L9.893295288085938 12.873187065124512 C9.89341926574707 12.873187065124512 9.873249053955078 13.171761512756348 10.039344787597656 13.418540000915527 L10.039344787597656 13.418540000915527 M6.483969688415527 12.433170318603516 L6.483969688415527 13.748490333557129 C6.483969688415527 13.730436325073242 4.807321548461914 14.02664566040039 4.306792259216309 14.203947067260742 C4.306792259216309 14.203947067260742 4.506505966186523 13.687853813171387 4.506505966186523 13.310713768005371 L4.506505966186523 9.380439758300781 C4.506505966186523 9.380439758300781 4.484094142913818 8.974164009094238 4.246155738830566 8.781174659729004 L6.299943923950195 8.781174659729004 L6.299943923950195 9.773268699645996 C6.299943923950195 9.773268699645996 6.1541428565979 9.589242935180664 5.891427993774414 9.589242935180664 L5.476187229156494 9.589242935180664 L5.476187229156494 10.781049728393555 L5.89815092086792 10.781049728393555 C6.041835784912109 10.781049728393555 6.185395240783691 10.751914024353027 6.295337200164795 10.603748321533203 L6.295337200164795 11.820332527160645 C6.295337200164795 11.820332527160645 6.205565929412842 11.625101089477539 5.911473751068115 11.625101089477539 L5.476062774658203 11.625101089477539 L5.476062774658203 12.964950561523438 C5.476187229156494 12.96507453918457 5.960904121398926 13.041399002075195 6.483969688415527 12.433170318603516 M3.0633134841918945 14.543111801147461 C2.4842185974121094 14.731868743896484 1.9028825759887695 14.929340362548828 1.323786735534668 15.111000061035156 L1.323786735534668 9.349187850952148 C1.323786735534668 9.140385627746582 1.2407398223876953 8.95187759399414 1.058955192565918 8.781298637390137 L2.798480987548828 8.781298637390137 C3.395505905151367 8.781298637390137 4.037477493286133 9.043889999389648 4.066737174987793 10.121397018432617 C4.077942848205566 10.59054946899414 3.9590368270874023 10.978771209716797 3.6492557525634766 11.349063873291016 C3.927535057067871 11.58251953125 4.228350639343262 12.146050453186035 4.199215888977051 12.671107292175293 C4.156384468078613 13.393762588500977 3.9633941650390625 14.253750801086426 3.0633134841918945 14.543111801147461 L3.0633134841918945 14.543111801147461" fill="black" fill-opacity="1.0" filling="0"/>
<path animation_id="2" d="M21.0467529296875 11.099919319152832 L21.0467529296875 9.714997291564941 C21.0467529296875 9.479300498962402 21.29353141784668 9.461370468139648 21.401355743408203 9.625226020812988 C21.67976188659668 10.053913116455078 21.699932098388672 10.740833282470703 21.44194793701172 11.133536338806152 C21.37209701538086 11.241362571716309 21.0467529296875 11.378323554992676 21.0467529296875 11.099919319152832 M14.447737693786621 11.481541633605957 L14.232335090637207 10.206562042236328 L14.04606819152832 11.481541633605957 L14.447737693786621 11.481541633605957 M2.3965635299682617 10.828363418579102 L2.3965635299682617 9.757704734802246 C2.3965635299682617 9.528855323791504 2.623295783996582 9.517524719238281 2.71530818939209 9.575920104980469 C3.0206069946289062 9.766669273376465 3.074395179748535 10.630891799926758 2.762497901916504 10.888999938964844 C2.578348159790039 11.041648864746094 2.3965635299682617 10.960841178894043 2.3965635299682617 10.828363418579102 L2.3965635299682617 10.828363418579102 M2.448235511779785 13.69918441772461 L2.448235511779785 12.112183570861816 C2.448235511779785 11.995393753051758 2.706343650817871 11.977463722229004 2.793874740600586 12.058395385742188 C3.0026769638061523 12.260226249694824 3.0969314575195312 12.619436264038086 3.065554618835449 12.93145751953125 C3.036294937133789 13.259291648864746 2.881403923034668 13.625101089477539 2.448235511779785 13.69918441772461 L2.448235511779785 13.69918441772461 M8.845296859741211 14.233207702636719 L15.161551475524902 14.233207702636719 A0.40776941180229187 0.40776941180229187 0.0 0 1 15.567951202392578 14.639607429504395 C15.567951202392578 14.864097595214844 15.386042594909668 15.048123359680176 15.161551475524902 15.048123359680176 L8.845296859741211 15.048123359680176 C8.620805740356445 15.048123359680176 8.439022064208984 14.863972663879395 8.439022064208984 14.639607429504395 A0.4076448976993561 0.4076448976993561 0.0 0 1 8.845296859741211 14.233207702636719" fill="black" fill-opacity="1.0" filling="0"/>
<path animation_id="3" d="M13.783352851867676 14.643964767456055 C13.783352851867676 14.807819366455078 13.861919403076172 14.924609184265137 13.96501350402832 14.924609184265137 C14.079562187194824 14.924609184265137 14.149163246154785 14.78989028930664 14.149163246154785 14.643964767456055 C14.149163246154785 14.44873332977295 14.052667617797852 14.354604721069336 13.967503547668457 14.354604721069336 C13.884330749511719 14.354604721069336 13.783352851867676 14.440017700195312 13.783352851867676 14.643964767456055 M13.74525260925293 14.742949485778809 L13.725082397460938 14.742949485778809 C13.70267105102539 14.79885482788086 13.695947647094727 14.805703163146973 13.608292579650879 14.805703163146973 L13.486895561218262 14.805703163146973 L13.617257118225098 14.679947853088379 C13.711386680603027 14.592416763305664 13.711386680603027 14.529664993286133 13.711386680603027 14.507003784179688 C13.711386680603027 14.383739471435547 13.610408782958984 14.354479789733887 13.561103820800781 14.354479789733887 C13.446554183959961 14.354479789733887 13.397248268127441 14.47338581085205 13.381684303283691 14.520575523376465 L13.404096603393555 14.520575523376465 C13.433231353759766 14.453215599060059 13.484779357910156 14.446367263793945 13.502832412719727 14.446367263793945 C13.588247299194336 14.446367263793945 13.59932804107666 14.529540061950684 13.59932804107666 14.551952362060547 C13.59932804107666 14.648447036743164 13.502832412719727 14.75403118133545 13.370230674743652 14.895350456237793 L13.370230674743652 14.913403511047363 L13.709270477294922 14.913403511047363 L13.74525260925293 14.742949485778809 L13.74525260925293 14.742949485778809 M13.166158676147461 14.354604721069336 C13.035797119140625 14.354604721069336 12.98200798034668 14.42420482635498 12.98200798034668 14.500529289245605 C12.98200798034668 14.567889213562012 13.03355598449707 14.61732006072998 13.094067573547363 14.650812149047852 C13.040279388427734 14.668867111206055 12.972919464111328 14.700119018554688 12.972919464111328 14.787773132324219 C12.972919464111328 14.877544403076172 13.053601264953613 14.924734115600586 13.141256332397461 14.924734115600586 C13.258047103881836 14.924734115600586 13.334371566772461 14.861980438232422 13.334371566772461 14.760879516601562 C13.334371566772461 14.68480396270752 13.28033447265625 14.626408576965332 13.210857391357422 14.586068153381348 C13.255805015563965 14.570255279541016 13.320799827575684 14.541119575500488 13.320799827575684 14.473760604858398 C13.320799827575684 14.426321029663086 13.289422988891602 14.354604721069336 13.166158676147461 14.354604721069336 L13.166158676147461 14.354604721069336 M12.901077270507812 14.895474433898926 C12.822511672973633 14.895474433898926 12.813547134399414 14.873063087463379 12.813547134399414 14.819149017333984 L12.813547134399414 14.354728698730469 L12.800224304199219 14.354728698730469 L12.595904350280762 14.444499969482422 L12.595904350280762 14.464670181274414 C12.62292194366455 14.45346450805664 12.649941444396973 14.444499969482422 12.663264274597168 14.444499969482422 C12.694640159606934 14.444499969482422 12.694640159606934 14.480484008789062 12.694640159606934 14.500654220581055 L12.694640159606934 14.812675476074219 C12.694640159606934 14.864222526550293 12.692399024963379 14.895599365234375 12.59814453125 14.895599365234375 L12.59814453125 14.913652420043945 L12.901201248168945 14.913652420043945 L12.901201248168945 14.895474433898926 L12.901077270507812 14.895474433898926 L12.901077270507812 14.895474433898926 M11.812613487243652 14.385980606079102 C11.848596572875977 14.388221740722656 11.884454727172852 14.388221740722656 11.884454727172852 14.442133903503418 L11.884454727172852 14.837080001831055 C11.884454727172852 14.886384963989258 11.857561111450195 14.888875961303711 11.812613487243652 14.893232345581055 L11.812613487243652 14.913403511047363 L12.286124229431152 14.913403511047363 L12.3177490234375 14.74506664276123 L12.295088768005371 14.74506664276123 C12.24354076385498 14.868579864501953 12.160368919372559 14.888751029968262 12.084293365478516 14.888751029968262 C12.030256271362305 14.888751029968262 12.014568328857422 14.879786491394043 12.014568328857422 14.843803405761719 L12.014568328857422 14.646330833435059 C12.09537410736084 14.646330833435059 12.13584041595459 14.670859336853027 12.144804954528809 14.772085189819336 L12.167217254638672 14.772085189819336 L12.167217254638672 14.49828815460205 L12.144804954528809 14.49828815460205 C12.133598327636719 14.599265098571777 12.093257904052734 14.619436264038086 12.014568328857422 14.619436264038086 L12.014568328857422 14.430928230285645 C12.014568328857422 14.39494514465332 12.030256271362305 14.392704010009766 12.075204849243164 14.392704010009766 C12.183029174804688 14.392704010009766 12.241300582885742 14.412875175476074 12.259353637695312 14.527423858642578 L12.279524803161621 14.527423858642578 L12.279524803161621 14.363569259643555 L11.812613487243652 14.363569259643555 L11.812613487243652 14.385980606079102 L11.812613487243652 14.385980606079102 M11.745253562927246 14.78989028930664 C11.67789363861084 14.866214752197266 11.617257118225098 14.890992164611816 11.554380416870117 14.890992164611816 C11.5297269821167 14.890992164611816 11.464609146118164 14.877420425415039 11.430990219116211 14.819025039672852 C11.399614334106445 14.767478942871094 11.39513111114502 14.688912391662598 11.39513111114502 14.6417236328125 C11.39513111114502 14.502645492553711 11.426508903503418 14.379132270812988 11.545538902282715 14.379132270812988 C11.639793395996094 14.379132270812988 11.7071533203125 14.4735107421875 11.73641300201416 14.545228004455566 L11.756583213806152 14.545228004455566 L11.756583213806152 14.354604721069336 L11.734046936035156 14.354604721069336 C11.725082397460938 14.374773979187012 11.718358993530273 14.392827987670898 11.69594669342041 14.392827987670898 C11.675777435302734 14.392827987670898 11.612898826599121 14.352487564086914 11.538816452026367 14.352487564086914 C11.368237495422363 14.352487564086914 11.251447677612305 14.480359077453613 11.251447677612305 14.644088745117188 C11.251447677612305 14.796863555908203 11.354790687561035 14.929340362548828 11.543298721313477 14.929340362548828 C11.648757934570312 14.929340362548828 11.71163558959961 14.877544403076172 11.77003002166748 14.810184478759766 L11.745253562927246 14.78989028930664 L11.745253562927246 14.78989028930664 M10.638734817504883 14.913403511047363 L10.822759628295898 14.913403511047363 L10.822759628295898 14.893232345581055 C10.762124061584473 14.886384963989258 10.744194984436035 14.873063087463379 10.744194984436035 14.812551498413086 L10.744194984436035 14.489323616027832 L10.746560096740723 14.489323616027832 L11.107887268066406 14.929216384887695 L11.13254165649414 14.929216384887695 L11.13254165649414 14.44873332977295 C11.13254165649414 14.410757064819336 11.137022972106934 14.392827987670898 11.195418357849121 14.385980606079102 L11.195418357849121 14.363569259643555 L11.020358085632324 14.363569259643555 L11.020358085632324 14.385980606079102 C11.08535099029541 14.39058780670166 11.09668254852295 14.417356491088867 11.09668254852295 14.464546203613281 L11.09668254852295 14.711324691772461 L11.094441413879395 14.711324691772461 L10.811678886413574 14.363569259643555 L10.641100883483887 14.363569259643555 L10.641100883483887 14.385980606079102 C10.650066375732422 14.385980606079102 10.663637161254883 14.388221740722656 10.708459854125977 14.444375991821289 L10.708459854125977 14.828115463256836 C10.708459854125977 14.88215160369873 10.68604850769043 14.888875961303711 10.638859748840332 14.893232345581055 L10.638859748840332 14.913403511047363 L10.638734817504883 14.913403511047363 L10.638734817504883 14.913403511047363 M10.609475135803223 14.893232345581055 C10.564651489257812 14.890992164611816 10.53091049194336 14.888875961303711 10.53091049194336 14.837080001831055 L10.53091049194336 14.442133903503418 C10.53091049194336 14.388096809387207 10.571374893188477 14.385980606079102 10.609475135803223 14.385980606079102 L10.609475135803223 14.363569259643555 L10.324472427368164 14.363569259643555 L10.324472427368164 14.385980606079102 C10.362571716308594 14.388221740722656 10.400796890258789 14.388221740722656 10.400796890258789 14.442133903503418 L10.400796890258789 14.837080001831055 C10.400796890258789 14.886384963989258 10.369420051574707 14.89111614227295 10.324472427368164 14.893232345581055 L10.324472427368164 14.913403511047363 L10.609475135803223 14.913403511047363 L10.609475135803223 14.893232345581055 M10.250389099121094 14.527547836303711 L10.250389099121094 14.352487564086914 L10.225736618041992 14.352487564086914 C10.221254348754883 14.368051528930664 10.216772079467773 14.379257202148438 10.198843002319336 14.379257202148438 C10.174188613891602 14.379257202148438 10.136089324951172 14.352487564086914 10.070846557617188 14.352487564086914 C9.918196678161621 14.352487564086914 9.891427993774414 14.46242904663086 9.891427993774414 14.511735916137695 C9.891427993774414 14.549960136413574 9.891427993774414 14.619436264038086 10.030505180358887 14.686796188354492 L10.08665943145752 14.713814735412598 C10.138330459594727 14.738343238830566 10.176430702209473 14.756397247314453 10.176430702209473 14.812551498413086 C10.176430702209473 14.821516036987305 10.171948432922363 14.902322769165039 10.075328826904297 14.902322769165039 C9.972110748291016 14.902322769165039 9.924921035766602 14.810184478759766 9.909232139587402 14.729378700256348 L9.8845796585083 14.729378700256348 L9.8845796585083 14.929216384887695 L9.909232139587402 14.929216384887695 C9.911598205566406 14.918010711669922 9.915956497192383 14.902196884155273 9.931768417358398 14.902196884155273 C9.958662986755371 14.902196884155273 9.994646072387695 14.929216384887695 10.070846557617188 14.929216384887695 C10.221254348754883 14.929216384887695 10.272926330566406 14.830480575561523 10.272926330566406 14.76063060760498 C10.272926330566406 14.670859336853027 10.212288856506348 14.623668670654297 10.183030128479004 14.610347747802734 L10.064123153686523 14.549835205078125 C9.996763229370117 14.516093254089355 9.981075286865234 14.49828815460205 9.981075286865234 14.455456733703613 C9.981075286865234 14.401668548583984 10.025898933410645 14.37689208984375 10.068604469299316 14.37689208984375 C10.162858963012695 14.37689208984375 10.212288856506348 14.471269607543945 10.227977752685547 14.527423858642578 L10.250389099121094 14.527423858642578 L10.250389099121094 14.527547836303711 L10.250389099121094 14.527547836303711" fill="black" fill-opacity="1.0" filling="0"/>
<path animation_id="4" d="M14.021166801452637 14.73398494720459 C14.021166801452637 14.787773132324219 14.014318466186523 14.839320182800293 14.009961128234863 14.85724925994873 C14.005602836608887 14.873063087463379 13.996638298034668 14.902196884155273 13.967378616333008 14.902196884155273 C13.92454719543457 14.902196884155273 13.911224365234375 14.850650787353516 13.911224365234375 14.73386001586914 L13.911224365234375 14.54759407043457 C13.911224365234375 14.480234146118164 13.911224365234375 14.37689208984375 13.96501350402832 14.37689208984375 C14.0032377243042 14.37689208984375 14.021166801452637 14.424079895019531 14.021166801452637 14.54759407043457 L14.021166801452637 14.73398494720459 M13.069664001464844 14.787773132324219 C13.069664001464844 14.727261543273926 13.087468147277832 14.702608108520508 13.112245559692383 14.666625022888184 C13.168399810791016 14.702608108520508 13.21994686126709 14.736226081848145 13.21994686126709 14.80358600616455 C13.21994686126709 14.825997352600098 13.21994686126709 14.900080680847168 13.148228645324707 14.900080680847168 C13.094191551208496 14.900080680847168 13.069664001464844 14.846044540405273 13.069664001464844 14.787773132324219 M13.085227012634277 14.444375991821289 C13.085227012634277 14.410757064819336 13.112245559692383 14.379257202148438 13.152586936950684 14.379257202148438 C13.213098526000977 14.379257202148438 13.224553108215332 14.43541145324707 13.224553108215332 14.47799301147461 C13.224553108215332 14.527547836303711 13.210981369018555 14.545352935791016 13.190811157226562 14.57012939453125 C13.183963775634766 14.567889213562012 13.085227012634277 14.520700454711914 13.085227012634277 14.444375991821289" fill="black" fill-opacity="1.0" filling="0"/></svg>