<?xml version="1.0" encoding="iso-8859-1"?><svg height="200px" viewBox="0.0 0.0 24.0 24.0" width="200px" xmlns="http://www.w3.org/2000/svg"><path animation_id="0" d="M0.0 0.0 L24.0 0.0 L24.0 24.0 L0.0 24.0 L0.0 0.0" fill="black" fill-opacity="1.0" filling="0"/>
<path animation_id="1" d="M9.010770797729492 8.299072265625 L9.968624114990234 8.299072265625 L9.968624114990234 12.714312553405762 L9.010770797729492 12.714312553405762 L9.010770797729492 8.299072265625 M12.025525093078613 8.299072265625 L11.067670822143555 8.299072265625 L11.067670822143555 12.714312553405762 L12.025525093078613 12.714312553405762 L12.025525093078613 9.211231231689453 C13.488887786865234 9.983440399169922 14.410135269165039 11.174002647399902 14.410135269165039 12.714312553405762 L15.388158798217773 12.714312553405762 C15.388158798217773 10.943161010742188 14.214530944824219 9.471207618713379 12.531781196594238 8.583453178405762 L12.025525093078613 8.299072265625 L12.025525093078613 8.299072265625 M15.367740631103516 9.768412590026855 L15.367740631103516 9.211231231689453 C16.831478118896484 9.983440399169922 17.752349853515625 11.174002647399902 17.752349853515625 12.714312553405762 L18.73037338256836 12.714312553405762 C18.73037338256836 10.943161010742188 17.556745529174805 9.471207618713379 15.873995780944824 8.583453178405762 L15.367740631103516 8.299072265625 L14.410135269165039 8.299072265625 L14.410135269165039 9.768287658691406 L15.367740631103516 9.768287658691406 L15.367740631103516 9.768412590026855 L15.367740631103516 9.768412590026855 M18.72751235961914 9.768412590026855 L18.72751235961914 9.04849624633789 L20.064495086669922 9.044511795043945 C21.210609436035156 9.042146682739258 20.872066497802734 9.899396896362305 20.872066497802734 9.899396896362305 C20.68579864501953 10.286497116088867 20.031875610351562 10.201208114624023 20.031875610351562 10.201208114624023 C20.58071517944336 10.84716510772705 21.04326820373535 11.818465232849121 21.04326820373535 12.714436531066895 L22.021291732788086 12.714436531066895 C22.021291732788086 11.98493480682373 21.754093170166016 11.234639167785645 21.381935119628906 10.606861114501953 L21.379070281982422 10.602128982543945 C21.904376983642578 10.360455513000488 21.930400848388672 10.086783409118652 21.930400848388672 9.68399429321289 C21.930400848388672 9.280956268310547 21.82904815673828 8.316130638122559 20.09164047241211 8.300068855285645 L20.09164047241211 8.29919719696045 L17.752225875854492 8.29919719696045 L17.752225875854492 9.768412590026855 L18.72751235961914 9.768412590026855 L18.72751235961914 9.768412590026855 M4.237066745758057 8.273423194885254 L8.296208381652832 8.273423194885254 L8.296208381652832 8.609724044799805 L4.237066745758057 8.609724044799805 L4.237066745758057 8.273423194885254 M4.48098087310791 13.93089771270752 C4.48098087310791 14.075203895568848 4.492187023162842 14.07918930053711 4.550333499908447 14.087530136108398 L4.577725410461426 14.091639518737793 C4.5861921310424805 14.101101875305176 4.585196018218994 14.125381469726562 4.57511043548584 14.13098430633545 A3.405963897705078 3.405963897705078 0.0 0 0 4.243292331695557 14.13098430633545 C4.233331203460693 14.125381469726562 4.232086658477783 14.101101875305176 4.240677356719971 14.091639518737793 L4.267945289611816 14.087530136108398 C4.3262152671813965 14.079313278198242 4.337296962738037 14.075203895568848 4.337296962738037 13.93089771270752 L4.337296962738037 13.424266815185547 C4.337296962738037 13.279959678649902 4.326340198516846 13.275976181030273 4.267945289611816 13.267633438110352 L4.240677356719971 13.263649940490723 C4.232086658477783 13.254061698913574 4.233331203460693 13.229534149169922 4.243292331695557 13.22430419921875 A3.488638401031494 3.488638401031494 0.0 0 0 4.57511043548584 13.22430419921875 C4.585196018218994 13.229534149169922 4.5861921310424805 13.254061698913574 4.577725410461426 13.263649940490723 L4.550333499908447 13.267633438110352 C4.492187023162842 13.275851249694824 4.48098087310791 13.279959678649902 4.48098087310791 13.424266815185547 L4.48098087310791 13.93089771270752 M5.446678638458252 13.895411491394043 C5.446678638458252 13.936375617980957 5.446678638458252 14.103841781616211 5.450538635253906 14.135093688964844 A0.04482350870966911 0.04482350870966911 0.0 0 1 5.408454418182373 14.154143333435059 C5.388532638549805 14.125505447387695 5.3526740074157715 14.07918930053711 5.263525009155273 13.96762752532959 L4.973666191101074 13.604059219360352 C4.893232822418213 13.50469970703125 4.853514194488525 13.453028678894043 4.832472324371338 13.432235717773438 C4.828612327575684 13.432235717773438 4.828612327575684 13.447425842285156 4.828612327575684 13.519516944885254 L4.828612327575684 13.785096168518066 C4.828612327575684 13.887319564819336 4.82985782623291 14.012575149536133 4.851024150848389 14.053415298461914 C4.862229824066162 14.073959350585938 4.883272171020508 14.081927299499512 4.914275169372559 14.087406158447266 L4.941418170928955 14.09151554107666 C4.952624320983887 14.100976943969727 4.95137882232666 14.126875877380371 4.938803672790527 14.130859375 A2.3893420696258545 2.3893420696258545 0.0 0 0 4.797609806060791 14.126875877380371 C4.745689392089844 14.126875877380371 4.712071418762207 14.128120422363281 4.6688666343688965 14.130859375 C4.658905506134033 14.124011993408203 4.6565399169921875 14.100976943969727 4.666376113891602 14.09151554107666 L4.693768501281738 14.084667205810547 C4.717300891876221 14.080557823181152 4.739588260650635 14.075078964233398 4.7483038902282715 14.053291320800781 C4.764365196228027 14.010956764221191 4.764365196228027 13.892548561096191 4.764365196228027 13.784971237182617 L4.764365196228027 13.462367057800293 C4.764365196228027 13.356035232543945 4.765485763549805 13.334495544433594 4.72340202331543 13.294528007507324 C4.709954738616943 13.282450675964355 4.6749677658081055 13.271368980407715 4.657909393310547 13.26738452911377 L4.639233112335205 13.26340103149414 C4.630517482757568 13.255183219909668 4.631762504577637 13.228039741516113 4.644089221954346 13.224055290222168 C4.691153526306152 13.22928524017334 4.759384632110596 13.228039741516113 4.7903876304626465 13.228039741516113 C4.816410541534424 13.228039741516113 4.846292972564697 13.226670265197754 4.8759260177612305 13.224055290222168 C4.896968364715576 13.282575607299805 5.031937122344971 13.45414924621582 5.075515270233154 13.505945205688477 L5.199153423309326 13.65299129486084 C5.2511982917785645 13.715620040893555 5.366369724273682 13.8599271774292 5.378696441650391 13.868268966674805 C5.382431983947754 13.864035606384277 5.382431983947754 13.857187271118164 5.382431983947754 13.83552360534668 L5.382431983947754 13.56994342803955 C5.382431983947754 13.467720985412598 5.3811869621276855 13.342589378356934 5.3588995933532715 13.301749229431152 C5.347817897796631 13.281205177307129 5.327896595001221 13.273236274719238 5.29689359664917 13.267633438110352 L5.268505096435547 13.263649940490723 C5.257299423217773 13.254061698913574 5.258420467376709 13.228288650512695 5.270995616912842 13.22430419921875 C5.319180965423584 13.226919174194336 5.3650007247924805 13.228288650512695 5.413434982299805 13.228288650512695 C5.466724872589111 13.228288650512695 5.4990973472595215 13.226919174194336 5.5435471534729 13.22430419921875 C5.553259372711182 13.231027603149414 5.55574893951416 13.254061698913574 5.545913219451904 13.263649940490723 L5.51740026473999 13.27049732208252 C5.493867874145508 13.274481773376465 5.472950458526611 13.279959678649902 5.464109897613525 13.301874160766602 C5.446678638458252 13.343957901000977 5.446678638458252 13.462615966796875 5.446678638458252 13.570068359375 L5.446678638458252 13.895411491394043 L5.446678638458252 13.895411491394043 M6.025773525238037 13.228163719177246 C6.10496187210083 13.228163719177246 6.174314022064209 13.226795196533203 6.200212001800537 13.224180221557617 C6.200212001800537 13.253937721252441 6.200212001800537 13.356160163879395 6.202826499938965 13.420158386230469 C6.197845935821533 13.430991172790527 6.17568302154541 13.433854103088379 6.163107872009277 13.425512313842773 C6.150781631469727 13.34644889831543 6.13110876083374 13.307103157043457 6.083919525146484 13.293407440185547 C6.050426959991455 13.283820152282715 6.019423961639404 13.282575607299805 5.979954242706299 13.282575607299805 L5.916703224182129 13.282575607299805 C5.864782810211182 13.282575607299805 5.864782810211182 13.285313606262207 5.864782810211182 13.361639022827148 L5.864782810211182 13.605304718017578 C5.864782810211182 13.63929557800293 5.866027355194092 13.642159461975098 5.894540309906006 13.642159461975098 L5.96737813949585 13.642159461975098 C6.075203895568848 13.642159461975098 6.095001220703125 13.639419555664062 6.106206893920898 13.582145690917969 L6.116168022155762 13.535951614379883 C6.123638153076172 13.526365280151367 6.147046089172363 13.526365280151367 6.153396129608154 13.537446022033691 C6.152026653289795 13.572558403015137 6.1495361328125 13.623109817504883 6.1495361328125 13.67341136932373 C6.1495361328125 13.72396183013916 6.152026653289795 13.773018836975098 6.153396129608154 13.815103530883789 C6.147046089172363 13.826184272766113 6.123638153076172 13.826184272766113 6.116168022155762 13.816597938537598 L6.106206893920898 13.763556480407715 C6.095001220703125 13.706157684326172 6.075203895568848 13.703417778015137 5.96737813949585 13.703417778015137 L5.894540309906006 13.703417778015137 C5.866027355194092 13.703417778015137 5.864782810211182 13.706157684326172 5.864782810211182 13.740397453308105 L5.864782810211182 13.931021690368652 C5.864782810211182 14.075328826904297 5.875739574432373 14.079313278198242 5.934134483337402 14.084916114807129 L5.986179351806641 14.091764450073242 C5.994894981384277 14.101226806640625 5.993650436401367 14.125505447387695 5.983564853668213 14.131109237670898 A5.336238861083984 5.336238861083984 0.0 0 0 5.794185638427734 14.127124786376953 C5.739650249481201 14.127124786376953 5.683994293212891 14.12837028503418 5.62684440612793 14.131109237670898 C5.616759300231934 14.125505447387695 5.615887641906738 14.101226806640625 5.624478816986084 14.091764450073242 L5.6516218185424805 14.087654113769531 C5.709768295288086 14.079437255859375 5.720973968505859 14.075328826904297 5.720973968505859 13.931021690368652 L5.720973968505859 13.424391746520996 C5.720973968505859 13.280084609985352 5.709768295288086 13.276100158691406 5.6516218185424805 13.26651382446289 L5.635560035705566 13.263773918151855 C5.62684440612793 13.254186630249023 5.628089427947998 13.229658126831055 5.638050556182861 13.2244291305542 C5.681379795074463 13.227044105529785 5.737159729003906 13.228413581848145 5.791570663452148 13.228413581848145 L6.025773525238037 13.228413581848145 L6.025773525238037 13.228163719177246 L6.025773525238037 13.228163719177246 M7.152586936950684 13.680259704589844 C7.152586936950684 13.948452949523926 6.966943264007568 14.148665428161621 6.716678142547607 14.148665428161621 C6.436779975891113 14.148665428161621 6.275664806365967 13.932143211364746 6.275664806365967 13.689722061157227 C6.275664806365967 13.411941528320312 6.459067344665527 13.20612621307373 6.719044208526611 13.20612621307373 C7.005167484283447 13.20612621307373 7.152586936950684 13.432235717773438 7.152586936950684 13.680259704589844 L7.152586936950684 13.680259704589844 M6.444126605987549 13.650253295898438 C6.444126605987549 13.838386535644531 6.517088890075684 14.094253540039062 6.729004383087158 14.094253540039062 C6.8700737953186035 14.094253540039062 6.9840006828308105 13.9783353805542 6.9840006828308105 13.704663276672363 C6.9840006828308105 13.499221801757812 6.899707794189453 13.260786056518555 6.702857494354248 13.260786056518555 C6.579094886779785 13.260786056518555 6.444126605987549 13.36014461517334 6.444126605987549 13.650253295898438 L6.444126605987549 13.650253295898438 M7.34171724319458 13.432235717773438 C7.34171724319458 13.301749229431152 7.340472221374512 13.285439491271973 7.282201290130615 13.278715133666992 L7.249953746795654 13.274481773376465 C7.241238117218018 13.264894485473633 7.241238117218018 13.243354797363281 7.2513227462768555 13.236381530761719 A2.9684367179870605 2.9684367179870605 0.0 0 1 7.53607702255249 13.224180221557617 C7.632696151733398 13.224180221557617 7.716989517211914 13.237627029418945 7.771524906158447 13.270373344421387 C7.834775447845459 13.307103157043457 7.8805952072143555 13.371225357055664 7.8805952072143555 13.469339370727539 C7.8805952072143555 13.59447193145752 7.792566776275635 13.657099723815918 7.73180627822876 13.684492111206055 C7.724335193634033 13.688477516174316 7.726825714111328 13.699434280395508 7.73180627822876 13.707776069641113 C7.830791473388672 13.891551971435547 7.892796993255615 14.007222175598145 7.950943470001221 14.060263633728027 C7.985681533813477 14.093009948730469 8.021665573120117 14.101226806640625 8.036605834960938 14.102472305297852 C8.042707443237305 14.107950210571289 8.042707443237305 14.123140335083008 8.039220809936523 14.129988670349121 C8.024279594421387 14.13397216796875 8.000747680664062 14.137957572937012 7.957542419433594 14.137957572937012 C7.8385114669799805 14.137957572937012 7.774139404296875 14.084916114807129 7.698562145233154 13.958290100097656 C7.664944648742676 13.901140213012695 7.630455493927002 13.826184272766113 7.6008219718933105 13.773143768310547 C7.5785346031188965 13.732304573059082 7.564713954925537 13.726701736450195 7.5239996910095215 13.726701736450195 C7.486771106719971 13.726701736450195 7.485525608062744 13.728196144104004 7.485525608062744 13.756832122802734 L7.485525608062744 13.931021690368652 C7.485525608062744 14.075328826904297 7.496607303619385 14.079313278198242 7.555002689361572 14.087654113769531 L7.582021236419678 14.091764450073242 C7.5907368659973145 14.101226806640625 7.589491844177246 14.125505447387695 7.579530715942383 14.131109237670898 A3.480919122695923 3.480919122695923 0.0 0 0 7.24758768081665 14.131109237670898 C7.237875938415527 14.125505447387695 7.234015941619873 14.101226806640625 7.245222091674805 14.091764450073242 L7.272365093231201 14.087654113769531 C7.330511093139648 14.079437255859375 7.341841697692871 14.075328826904297 7.341841697692871 13.931021690368652 L7.341841697692871 13.432235717773438 L7.34171724319458 13.432235717773438 L7.34171724319458 13.432235717773438 M7.485401153564453 13.628463745117188 C7.485401153564453 13.672165870666504 7.485401153564453 13.674905776977539 7.544917106628418 13.674905776977539 C7.666313648223877 13.674905776977539 7.722094535827637 13.609538078308105 7.722094535827637 13.480047225952148 C7.722094535827637 13.37259578704834 7.658843517303467 13.278715133666992 7.551018238067627 13.278715133666992 C7.48664665222168 13.278715133666992 7.485401153564453 13.282699584960938 7.485401153564453 13.345327377319336 L7.485401153564453 13.628463745117188" fill="black" fill-opacity="1.0" filling="0"/>
<path animation_id="2" d="M9.08149242401123 14.091639518737793 C9.093818664550781 14.096993446350098 9.092449188232422 14.125381469726562 9.078876495361328 14.13098430633545 A3.2518210411071777 3.2518210411071777 0.0 0 0 8.761751174926758 14.13098430633545 C8.751790046691895 14.125381469726562 8.746933937072754 14.099732398986816 8.759260177612305 14.091639518737793 L8.792754173278809 14.08479118347168 C8.842184066772461 14.076449394226074 8.846043586730957 14.065616607666016 8.846043586730957 13.973106384277344 L8.846043586730957 13.542799949645996 L8.846043586730957 13.416173934936523 L8.843429565429688 13.416173934936523 C8.810060501098633 13.49087905883789 8.792754173278809 13.531843185424805 8.769221305847168 13.586379051208496 L8.662640571594238 13.82606029510498 C8.620556831359863 13.921309471130371 8.558675765991211 14.072464942932129 8.536388397216797 14.136587142944336 C8.531282424926758 14.141817092895508 8.512855529785156 14.141817092895508 8.504140853881836 14.136587142944336 C8.483098983764648 14.062877655029297 8.429807662963867 13.929652214050293 8.401419639587402 13.86154556274414 L8.290979385375977 13.599825859069824 A6.225736141204834 6.225736141204834 0.0 0 1 8.21926212310791 13.41604995727539 L8.216771125793457 13.41604995727539 C8.214157104492188 13.482662200927734 8.2117919921875 13.588869094848633 8.209300994873047 13.646142959594727 A11.300504684448242 11.300504684448242 0.0 0 0 8.204444885253906 13.96190071105957 C8.204444885253906 14.051920890808105 8.20544147491455 14.073834419250488 8.258731842041016 14.08342170715332 L8.299695014953613 14.09151554107666 C8.30841064453125 14.099607467651367 8.30841064453125 14.125256538391113 8.298450469970703 14.130859375 A2.063499927520752 2.063499927520752 0.0 0 0 8.168336868286133 14.126875877380371 C8.128868103027344 14.126875877380371 8.084044456481934 14.128120422363281 8.035859107971191 14.130859375 C8.024652481079102 14.124011993408203 8.024652481079102 14.098238945007324 8.031999588012695 14.09151554107666 L8.053290367126465 14.088651657104492 C8.11268138885498 14.080681800842285 8.122393608093262 14.060138702392578 8.129863739013672 13.977090835571289 C8.139824867248535 13.891427993774414 8.142439842224121 13.802901268005371 8.148415565490723 13.66108512878418 C8.153271675109863 13.568573951721191 8.160741806030273 13.455768585205078 8.160741806030273 13.37259578704834 C8.160741806030273 13.308597564697266 8.142314910888672 13.279959678649902 8.093879699707031 13.271618843078613 L8.051795959472656 13.263649940490723 C8.044450759887695 13.254061698913574 8.045695304870605 13.228288650512695 8.056652069091797 13.22430419921875 C8.093879699707031 13.226919174194336 8.127373695373535 13.228288650512695 8.173192977905273 13.228288650512695 C8.216646194458008 13.228288650512695 8.259851455688477 13.228288650512695 8.305671691894531 13.22430419921875 C8.310901641845703 13.30598258972168 8.342775344848633 13.376704216003418 8.373778343200684 13.450165748596191 L8.510116577148438 13.764677047729492 C8.5200777053833 13.787836074829102 8.552326202392578 13.855941772460938 8.568511962890625 13.887319564819336 C8.588184356689453 13.847724914550781 8.605615615844727 13.809625625610352 8.632759094238281 13.745502471923828 L8.749299049377441 13.484031677246094 C8.788768768310547 13.394135475158691 8.828487396240234 13.313827514648438 8.849529266357422 13.224055290222168 C8.883148193359375 13.226670265197754 8.923986434936523 13.228039741516113 8.951129913330078 13.228039741516113 C9.003050804138184 13.228039741516113 9.046380043029785 13.226670265197754 9.081242561340332 13.224055290222168 C9.09481430053711 13.22928524017334 9.097305297851562 13.255183219909668 9.084853172302246 13.26340103149414 L9.044013977050781 13.270248413085938 C8.989479064941406 13.278467178344727 8.977151870727539 13.30162525177002 8.977151870727539 13.373841285705566 C8.977151870727539 13.575172424316406 8.97951889038086 13.776754379272461 8.988234519958496 13.97821044921875 C8.99197006225586 14.069352149963379 9.00554084777832 14.079063415527344 9.045259475708008 14.084543228149414 L9.08149242401123 14.091639518737793 L9.08149242401123 14.091639518737793" fill="black" fill-opacity="1.0" filling="0"/>
<path animation_id="3" d="M9.384300231933594 13.793313980102539 C9.35217571258545 13.793313980102539 9.353421211242676 13.793313980102539 9.342214584350586 13.83004379272461 L9.291415214538574 13.993401527404785 C9.266637802124023 14.073834419250488 9.271742820739746 14.077943801879883 9.317313194274902 14.084667205810547 L9.353421211242676 14.09151554107666 C9.362136840820312 14.100976943969727 9.360767364501953 14.125256538391113 9.35080623626709 14.130859375 C9.311211585998535 14.128120422363281 9.270373344421387 14.128120422363281 9.21944808959961 14.126875877380371 C9.178733825683594 14.126875877380371 9.140260696411133 14.128120422363281 9.096930503845215 14.130859375 C9.088338851928711 14.124011993408203 9.086970329284668 14.103592872619629 9.095685958862305 14.09151554107666 L9.132913589477539 14.084667205810547 C9.168773651123047 14.079063415527344 9.182344436645508 14.066986083984375 9.201021194458008 14.021913528442383 C9.215837478637695 13.986553192138672 9.23551082611084 13.929527282714844 9.26165771484375 13.855817794799805 L9.43124008178711 13.370977401733398 C9.447301864624023 13.327274322509766 9.458632469177246 13.294528007507324 9.454647064208984 13.271368980407715 C9.498226165771484 13.261906623840332 9.5389404296875 13.206002235412598 9.541431427001953 13.206002235412598 C9.551515579223633 13.206002235412598 9.557493209838867 13.210359573364258 9.56247329711914 13.217206954956055 C9.582145690917969 13.278467178344727 9.598455429077148 13.342464447021484 9.618253707885742 13.403722763061523 L9.796550750732422 13.974226951599121 C9.825064659118652 14.06536865234375 9.831289291381836 14.075078964233398 9.894416809082031 14.087281227111816 L9.913091659545898 14.091390609741211 C9.922928810119629 14.100852966308594 9.922928810119629 14.124011993408203 9.914337158203125 14.130735397338867 A2.807570219039917 2.807570219039917 0.0 0 0 9.75334644317627 14.126750946044922 C9.700056076049805 14.126750946044922 9.64552116394043 14.129490852355957 9.602315902709961 14.130735397338867 C9.592230796813965 14.123887062072754 9.591110229492188 14.099483489990234 9.598581314086914 14.091390609741211 L9.625972747802734 14.087281227111816 C9.670547485351562 14.081803321838379 9.674033164978027 14.073834419250488 9.65797233581543 14.01506519317627 L9.599825859069824 13.829919815063477 C9.587499618530273 13.79318904876709 9.58376407623291 13.79318904876709 9.549150466918945 13.79318904876709 L9.384300231933594 13.79318904876709 L9.384300231933594 13.793313980102539 M9.53283977508545 13.7320556640625 C9.567453384399414 13.7320556640625 9.572558403015137 13.729315757751465 9.562597274780273 13.696569442749023 L9.510677337646484 13.53321361541748 C9.489635467529297 13.461121559143066 9.48216438293457 13.435099601745605 9.47606372833252 13.425637245178223 L9.473447799682617 13.425637245178223 C9.468591690063477 13.435099601745605 9.458632469177246 13.469464302062988 9.436220169067383 13.53321361541748 L9.384175300598145 13.692461013793945 C9.370479583740234 13.7320556640625 9.374214172363281 13.7320556640625 9.403971672058105 13.7320556640625 L9.53283977508545 13.7320556640625 L9.53283977508545 13.7320556640625 M10.146049499511719 13.342589378356934 C10.146049499511719 13.285439491271973 10.144804954528809 13.282699584960938 10.112557411193848 13.282699584960938 L10.043081283569336 13.282699584960938 C9.929154396057129 13.282699584960938 9.895785331726074 13.297516822814941 9.849966049194336 13.40795612335205 C9.8412504196167 13.416173934936523 9.815227508544922 13.411941528320312 9.810247421264648 13.398493766784668 C9.831289291381836 13.324908256530762 9.849966049194336 13.240490913391113 9.85843276977539 13.192803382873535 C9.86104679107666 13.188819885253906 9.8659029006958 13.18744945526123 9.87225341796875 13.18744945526123 C9.877233505249023 13.18744945526123 9.882088661193848 13.188819885253906 9.8845796585083 13.192803382873535 C9.890680313110352 13.226919174194336 9.908112525939941 13.228288650512695 9.99240493774414 13.228288650512695 L10.497790336608887 13.228288650512695 C10.558426856994629 13.228288650512695 10.577102661132812 13.22430419921875 10.591919898986816 13.192803382873535 A0.03237253054976463 0.03237253054976463 0.0 0 1 10.606861114501953 13.18744945526123 C10.614331245422363 13.18744945526123 10.620431900024414 13.1900634765625 10.622922897338867 13.194297790527344 C10.610347747802734 13.250078201293945 10.600635528564453 13.367366790771484 10.604246139526367 13.410820007324219 C10.59801959991455 13.421527862548828 10.577102661132812 13.424266815185547 10.565773010253906 13.414804458618164 C10.549711227416992 13.308597564697266 10.526054382324219 13.282699584960938 10.393575668334961 13.282699584960938 L10.323102951049805 13.282699584960938 C10.290855407714844 13.282699584960938 10.28973388671875 13.285439491271973 10.28973388671875 13.342589378356934 L10.28973388671875 13.93089771270752 C10.28973388671875 14.075203895568848 10.30081558227539 14.07918930053711 10.35896110534668 14.086036682128906 L10.403660774230957 14.091639518737793 C10.412127494812012 14.101101875305176 10.411130905151367 14.125381469726562 10.40117073059082 14.13098430633545 A4.6693644523620605 4.6693644523620605 0.0 0 0 10.219137191772461 14.126999855041504 C10.164602279663086 14.126999855041504 10.10645580291748 14.12824535369873 10.027018547058105 14.13098430633545 C10.017058372497559 14.125381469726562 10.016061782836914 14.098362922668457 10.024653434753418 14.091639518737793 L10.076573371887207 14.08479118347168 C10.134719848632812 14.07918930053711 10.146049499511719 14.075203895568848 10.146049499511719 13.93089771270752 L10.146049499511719 13.342589378356934 L10.146049499511719 13.342589378356934 M10.917139053344727 13.93089771270752 C10.917139053344727 14.075203895568848 10.928345680236816 14.07918930053711 10.986490249633789 14.087530136108398 L11.013633728027344 14.091639518737793 C11.022225379943848 14.101101875305176 11.02110481262207 14.125381469726562 11.01126766204834 14.13098430633545 A3.418415069580078 3.418415069580078 0.0 0 0 10.679076194763184 14.13098430633545 C10.669364929199219 14.125381469726562 10.668119430541992 14.101101875305176 10.67671012878418 14.091639518737793 L10.703853607177734 14.087530136108398 C10.762248039245605 14.079313278198242 10.773205757141113 14.075203895568848 10.773205757141113 13.93089771270752 L10.773205757141113 13.424266815185547 C10.773205757141113 13.279959678649902 10.762248039245605 13.275976181030273 10.703853607177734 13.267633438110352 L10.67671012878418 13.263649940490723 C10.66799545288086 13.254061698913574 10.66923999786377 13.229534149169922 10.679076194763184 13.22430419921875 A3.493743419647217 3.493743419647217 0.0 0 0 11.01126766204834 13.22430419921875 C11.020979881286621 13.229534149169922 11.022225379943848 13.254061698913574 11.013633728027344 13.263649940490723 L10.986490249633789 13.267633438110352 C10.928345680236816 13.275851249694824 10.917139053344727 13.279959678649902 10.917139053344727 13.424266815185547 L10.917139053344727 13.93089771270752 M11.983190536499023 13.680259704589844 C11.983190536499023 13.948452949523926 11.797173500061035 14.148665428161621 11.547282218933105 14.148665428161621 C11.267135620117188 14.148665428161621 11.106268882751465 13.932143211364746 11.106268882751465 13.689722061157227 C11.106268882751465 13.411941528320312 11.289671897888184 13.20612621307373 11.54964828491211 13.20612621307373 C11.835771560668945 13.20612621307373 11.983190536499023 13.432235717773438 11.983190536499023 13.680259704589844 L11.983190536499023 13.680259704589844 M11.274482727050781 13.650253295898438 C11.274482727050781 13.838386535644531 11.34769344329834 14.094253540039062 11.559609413146973 14.094253540039062 C11.700678825378418 14.094253540039062 11.814729690551758 13.9783353805542 11.814729690551758 13.704663276672363 C11.814729690551758 13.499221801757812 11.730436325073242 13.260786056518555 11.533461570739746 13.260786056518555 C11.40982437133789 13.260786056518555 11.274482727050781 13.36014461517334 11.274482727050781 13.650253295898438 L11.274482727050781 13.650253295898438 M12.853639602661133 13.895411491394043 C12.853639602661133 13.936375617980957 12.853639602661133 14.103841781616211 12.857250213623047 14.135093688964844 A0.04482350870966911 0.04482350870966911 0.0 0 1 12.815165519714355 14.154143333435059 C12.795493125915527 14.125505447387695 12.759260177612305 14.07918930053711 12.670236587524414 13.96762752532959 L12.380376815795898 13.604059219360352 C12.299944877624512 13.50469970703125 12.259977340698242 13.453028678894043 12.239058494567871 13.432235717773438 C12.235447883605957 13.432235717773438 12.235447883605957 13.447425842285156 12.235447883605957 13.519516944885254 L12.235447883605957 13.785096168518066 C12.235447883605957 13.887319564819336 12.236693382263184 14.012575149536133 12.257610321044922 14.053415298461914 C12.268816947937012 14.073959350585938 12.289983749389648 14.081927299499512 12.32086181640625 14.087406158447266 L12.348130226135254 14.09151554107666 C12.359334945678711 14.100976943969727 12.3580904006958 14.126875877380371 12.3456392288208 14.130859375 A2.396688222885132 2.396688222885132 0.0 0 0 12.204319953918457 14.126875877380371 C12.152275085449219 14.126875877380371 12.11890697479248 14.128120422363281 12.07545280456543 14.130859375 C12.065616607666016 14.124011993408203 12.063126564025879 14.100976943969727 12.073086738586426 14.09151554107666 L12.100106239318848 14.084667205810547 C12.123639106750488 14.080557823181152 12.146050453186035 14.075078964233398 12.154766082763672 14.053291320800781 C12.170827865600586 14.010956764221191 12.170827865600586 13.892548561096191 12.170827865600586 13.784971237182617 L12.170827865600586 13.462367057800293 C12.170827865600586 13.356035232543945 12.172073364257812 13.334495544433594 12.129987716674805 13.294528007507324 C12.116416931152344 13.282450675964355 12.08155345916748 13.271368980407715 12.064247131347656 13.26738452911377 L12.045571327209473 13.26340103149414 C12.03722858428955 13.255183219909668 12.038224220275879 13.228039741516113 12.050676345825195 13.224055290222168 C12.097865104675293 13.22928524017334 12.165722846984863 13.228039741516113 12.196600914001465 13.228039741516113 C12.222872734069824 13.228039741516113 12.2525053024292 13.226670265197754 12.28226375579834 13.224055290222168 C12.303430557250977 13.282575607299805 12.438399314880371 13.45414924621582 12.481728553771973 13.505945205688477 L12.605490684509277 13.65299129486084 C12.657785415649414 13.715620040893555 12.772831916809082 13.8599271774292 12.785407066345215 13.868268966674805 C12.788768768310547 13.864035606384277 12.788768768310547 13.857187271118164 12.788768768310547 13.83552360534668 L12.788768768310547 13.56994342803955 C12.788768768310547 13.467720985412598 12.787525177001953 13.342589378356934 12.765237808227539 13.301749229431152 C12.754280090332031 13.281205177307129 12.734358787536621 13.273236274719238 12.703729629516602 13.267633438110352 L12.675092697143555 13.263649940490723 C12.664134979248047 13.254061698913574 12.665380477905273 13.228288650512695 12.677581787109375 13.22430419921875 C12.7260160446167 13.226919174194336 12.771961212158203 13.228288650512695 12.820145606994629 13.228288650512695 C12.873435974121094 13.228288650512695 12.905808448791504 13.226919174194336 12.9502592086792 13.22430419921875 C12.96021842956543 13.231027603149414 12.9624605178833 13.254061698913574 12.95274829864502 13.263649940490723 L12.924112319946289 13.27049732208252 C12.900952339172363 13.274481773376465 12.879661560058594 13.279959678649902 12.871070861816406 13.301874160766602 C12.853763580322266 13.343957901000977 12.853763580322266 13.462615966796875 12.853763580322266 13.570068359375 L12.853763580322266 13.895411491394043 L12.853639602661133 13.895411491394043 L12.853639602661133 13.895411491394043 M14.371163368225098 14.091639518737793 C14.38386344909668 14.096993446350098 14.382369995117188 14.125381469726562 14.368673324584961 14.13098430633545 A3.2602875232696533 3.2602875232696533 0.0 0 0 14.05154800415039 14.13098430633545 C14.04183578491211 14.125381469726562 14.036730766296387 14.099732398986816 14.049057006835938 14.091639518737793 L14.082674980163574 14.08479118347168 C14.131980895996094 14.076449394226074 14.135964393615723 14.065616607666016 14.135964393615723 13.973106384277344 L14.135964393615723 13.542799949645996 L14.135964393615723 13.416173934936523 L14.133474349975586 13.416173934936523 C14.09985637664795 13.49087905883789 14.082674980163574 13.531843185424805 14.0590181350708 13.586379051208496 L13.952561378479004 13.82606029510498 C13.910228729248047 13.921309471130371 13.848222732543945 14.072464942932129 13.82606029510498 14.136587142944336 C13.82120418548584 14.141817092895508 13.802652359008789 14.141817092895508 13.793936729431152 14.136587142944336 C13.772769927978516 14.062877655029297 13.719480514526367 13.929652214050293 13.691091537475586 13.86154556274414 L13.580900192260742 13.599825859069824 A5.9600324630737305 5.9600324630737305 0.0 0 1 13.508934020996094 13.41604995727539 L13.50644302368164 13.41604995727539 C13.50395393371582 13.482662200927734 13.501338005065918 13.588869094848633 13.49909782409668 13.646142959594727 C13.496482849121094 13.729191780090332 13.493992805480957 13.85033893585205 13.493992805480957 13.96190071105957 C13.493992805480957 14.051920890808105 13.495237350463867 14.073834419250488 13.548528671264648 14.08342170715332 L13.589366912841797 14.09151554107666 C13.598082542419434 14.099607467651367 13.598082542419434 14.125256538391113 13.588122367858887 14.130859375 A2.057772636413574 2.057772636413574 0.0 0 0 13.458008766174316 14.126875877380371 C13.418415069580078 14.126875877380371 13.373841285705566 14.128120422363281 13.325531005859375 14.130859375 C13.314325332641602 14.124011993408203 13.314325332641602 14.098238945007324 13.321920394897461 14.09151554107666 L13.342838287353516 14.088651657104492 C13.402477264404297 14.080681800842285 13.41243839263916 14.060138702392578 13.419660568237305 13.977090835571289 C13.429620742797852 13.891427993774414 13.432110786437988 13.802901268005371 13.438337326049805 13.66108512878418 C13.443192481994629 13.568573951721191 13.450787544250488 13.455768585205078 13.450787544250488 13.37259578704834 C13.450787544250488 13.308597564697266 13.432110786437988 13.279959678649902 13.383925437927246 13.271618843078613 L13.341592788696289 13.263649940490723 C13.33399772644043 13.254061698913574 13.335491180419922 13.228288650512695 13.346697807312012 13.22430419921875 C13.383925437927246 13.226919174194336 13.417170524597168 13.228288650512695 13.462989807128906 13.228288650512695 C13.50656795501709 13.228288650512695 13.549772262573242 13.228288650512695 13.595717430114746 13.22430419921875 C13.600573539733887 13.30598258972168 13.632696151733398 13.376704216003418 13.663824081420898 13.450165748596191 L13.800286293029785 13.764677047729492 C13.809998512268066 13.787836074829102 13.842121124267578 13.855941772460938 13.85843276977539 13.887319564819336 C13.878105163574219 13.847724914550781 13.895411491394043 13.809625625610352 13.922928810119629 13.745502471923828 L14.039220809936523 13.484031677246094 C14.078814506530762 13.394135475158691 14.11853313446045 13.313827514648438 14.139700889587402 13.224055290222168 C14.173317909240723 13.226670265197754 14.213907241821289 13.228039741516113 14.241299629211426 13.228039741516113 C14.293344497680664 13.228039741516113 14.336673736572266 13.226670265197754 14.371163368225098 13.224055290222168 C14.384984016418457 13.22928524017334 14.387226104736328 13.255183219909668 14.37502384185791 13.26340103149414 L14.333935737609863 13.270248413085938 C14.279648780822754 13.278467178344727 14.267073631286621 13.30162525177002 14.267073631286621 13.373841285705566 C14.267073631286621 13.575172424316406 14.269688606262207 13.776754379272461 14.278280258178711 13.97821044921875 C14.281890869140625 14.069352149963379 14.295835494995117 14.079063415527344 14.335180282592773 14.084543228149414 L14.371163368225098 14.091639518737793 L14.371163368225098 14.091639518737793" fill="black" fill-opacity="1.0" filling="0"/>
<path animation_id="4" d="M14.673971176147461 13.793313980102539 C14.642097473144531 13.793313980102539 14.64309310913086 13.793313980102539 14.631887435913086 13.83004379272461 L14.58133602142334 13.993401527404785 C14.556558609008789 14.073834419250488 14.56141471862793 14.077943801879883 14.607358932495117 14.084667205810547 L14.64309310913086 14.09151554107666 C14.651808738708496 14.100976943969727 14.650439262390137 14.125256538391113 14.640602111816406 14.130859375 C14.601008415222168 14.128120422363281 14.56017017364502 14.128120422363281 14.509244918823242 14.126875877380371 C14.468406677246094 14.126875877380371 14.430181503295898 14.128120422363281 14.386478424072266 14.130859375 C14.378260612487793 14.124011993408203 14.377016067504883 14.103592872619629 14.385482788085938 14.09151554107666 L14.422710418701172 14.084667205810547 C14.458694458007812 14.079063415527344 14.472017288208008 14.066986083984375 14.490568161010742 14.021913528442383 C14.505634307861328 13.986553192138672 14.525306701660156 13.929527282714844 14.551578521728516 13.855817794799805 L14.721036911010742 13.370977401733398 C14.73709774017334 13.327274322509766 14.748553276062012 13.294528007507324 14.74456787109375 13.271368980407715 C14.787897109985352 13.261906623840332 14.828737258911133 13.206002235412598 14.831351280212402 13.206002235412598 C14.841063499450684 13.206002235412598 14.84716510772705 13.210359573364258 14.852519035339355 13.217206954956055 C14.872190475463867 13.278467178344727 14.888252258300781 13.342464447021484 14.908174514770508 13.403722763061523 L15.086472511291504 13.974226951599121 C15.114985466003418 14.06536865234375 15.12096118927002 14.075078964233398 15.184212684631348 14.087281227111816 L15.20263957977295 14.091390609741211 C15.212600708007812 14.100852966308594 15.212600708007812 14.124011993408203 15.204133987426758 14.130735397338867 A2.804581880569458 2.804581880569458 0.0 0 0 15.043142318725586 14.126750946044922 C14.989852905273438 14.126750946044922 14.935441970825195 14.129490852355957 14.892112731933594 14.130735397338867 C14.88215160369873 14.123887062072754 14.880657196044922 14.099483489990234 14.888252258300781 14.091390609741211 L14.915271759033203 14.087281227111816 C14.960219383239746 14.081803321838379 14.96395492553711 14.073834419250488 14.947644233703613 14.01506519317627 L14.889497756958008 13.829919815063477 C14.877046585083008 13.79318904876709 14.873435974121094 13.79318904876709 14.838698387145996 13.79318904876709 L14.673971176147461 13.79318904876709 L14.673971176147461 13.793313980102539 L14.673971176147461 13.793313980102539 M14.822761535644531 13.7320556640625 C14.85724925994873 13.7320556640625 14.862354278564453 13.729315757751465 14.852643013000488 13.696569442749023 L14.800349235534668 13.53321361541748 C14.779182434082031 13.461121559143066 14.771836280822754 13.435099601745605 14.765859603881836 13.425637245178223 L14.7633695602417 13.425637245178223 C14.758264541625977 13.435099601745605 14.748553276062012 13.469464302062988 14.725893020629883 13.53321361541748 L14.673846244812012 13.692461013793945 C14.66027545928955 13.7320556640625 14.664134979248047 13.7320556640625 14.693768501281738 13.7320556640625 L14.822761535644531 13.7320556640625 L14.822761535644531 13.7320556640625 M16.01145362854004 13.895411491394043 C16.01145362854004 13.936375617980957 16.01145362854004 14.103841781616211 16.015066146850586 14.135093688964844 A0.04420095682144165 0.04420095682144165 0.0 0 1 15.973230361938477 14.154143333435059 C15.953309059143066 14.125505447387695 15.917325019836426 14.07918930053711 15.828052520751953 13.96762752532959 L15.538193702697754 13.604059219360352 C15.457884788513184 13.50469970703125 15.418042182922363 13.453028678894043 15.397124290466309 13.432235717773438 C15.393263816833496 13.432235717773438 15.393263816833496 13.447425842285156 15.393263816833496 13.519516944885254 L15.393263816833496 13.785096168518066 C15.393263816833496 13.887319564819336 15.394758224487305 14.012575149536133 15.41567611694336 14.053415298461914 C15.426881790161133 14.073959350585938 15.44804859161377 14.081927299499512 15.478926658630371 14.087406158447266 L15.506195068359375 14.09151554107666 C15.517400741577148 14.100976943969727 15.516155242919922 14.126875877380371 15.503704071044922 14.130859375 A2.396688222885132 2.396688222885132 0.0 0 0 15.362386703491211 14.126875877380371 C15.310340881347656 14.126875877380371 15.276971817016602 14.128120422363281 15.233518600463867 14.130859375 C15.223806381225586 14.124011993408203 15.221067428588867 14.100976943969727 15.23102855682373 14.09151554107666 L15.258295059204102 14.084667205810547 C15.281827926635742 14.080557823181152 15.304239273071289 14.075078964233398 15.312830924987793 14.053291320800781 C15.329141616821289 14.010956764221191 15.329141616821289 13.892548561096191 15.329141616821289 13.784971237182617 L15.329141616821289 13.462367057800293 C15.329141616821289 13.356035232543945 15.330387115478516 13.334495544433594 15.288053512573242 13.294528007507324 C15.274482727050781 13.282450675964355 15.2398681640625 13.271368980407715 15.222685813903809 13.26738452911377 L15.204010009765625 13.26340103149414 C15.195293426513672 13.255183219909668 15.196414947509766 13.228039741516113 15.209114074707031 13.224055290222168 C15.256053924560547 13.22928524017334 15.3241605758667 13.228039741516113 15.355039596557617 13.228039741516113 C15.381311416625977 13.228039741516113 15.410944938659668 13.226670265197754 15.440702438354492 13.224055290222168 C15.461620330810547 13.282575607299805 15.596837997436523 13.45414924621582 15.640167236328125 13.505945205688477 L15.764179229736328 13.65299129486084 C15.816224098205566 13.715620040893555 15.93127155303955 13.8599271774292 15.943596839904785 13.868268966674805 C15.947208404541016 13.864035606384277 15.947208404541016 13.857187271118164 15.947208404541016 13.83552360534668 L15.947208404541016 13.56994342803955 C15.947208404541016 13.467720985412598 15.945963859558105 13.342589378356934 15.923675537109375 13.301749229431152 C15.912718772888184 13.281205177307129 15.892797470092773 13.273236274719238 15.861918449401855 13.267633438110352 L15.833406448364258 13.263649940490723 C15.822199821472168 13.254061698913574 15.823445320129395 13.228288650512695 15.835895538330078 13.22430419921875 C15.88408088684082 13.226919174194336 15.930274963378906 13.228288650512695 15.97821044921875 13.228288650512695 C16.031749725341797 13.228288650512695 16.063873291015625 13.226919174194336 16.10857391357422 13.22430419921875 C16.118532180786133 13.231027603149414 16.12077522277832 13.254061698913574 16.11106300354004 13.263649940490723 L16.082550048828125 13.27049732208252 C16.059017181396484 13.274481773376465 16.037851333618164 13.279959678649902 16.029010772705078 13.301874160766602 C16.01170539855957 13.343957901000977 16.01170539855957 13.462615966796875 16.01170539855957 13.570068359375 L16.01170539855957 13.895411491394043 L16.01145362854004 13.895411491394043 L16.01145362854004 13.895411491394043 M16.39594268798828 13.793313980102539 C16.36381721496582 13.793313980102539 16.365312576293945 13.793313980102539 16.35385513305664 13.83004379272461 L16.303306579589844 13.993401527404785 C16.278278350830078 14.073834419250488 16.283384323120117 14.077943801879883 16.32908058166504 14.084667205810547 L16.365312576293945 14.09151554107666 C16.3735294342041 14.100976943969727 16.372657775878906 14.125256538391113 16.36269760131836 14.130859375 C16.323102951049805 14.128120422363281 16.282262802124023 14.128120422363281 16.231338500976562 14.126875877380371 C16.190500259399414 14.126875877380371 16.152027130126953 14.128120422363281 16.10857391357422 14.130859375 C16.10010528564453 14.124011993408203 16.098861694335938 14.103592872619629 16.107576370239258 14.09151554107666 L16.144805908203125 14.084667205810547 C16.180538177490234 14.079063415527344 16.194110870361328 14.066986083984375 16.212913513183594 14.021913528442383 C16.22772789001465 13.986553192138672 16.247400283813477 13.929527282714844 16.273422241210938 13.855817794799805 L16.443130493164062 13.370977401733398 C16.459192276000977 13.327274322509766 16.47039794921875 13.294528007507324 16.466663360595703 13.271368980407715 C16.510242462158203 13.261906623840332 16.550830841064453 13.206002235412598 16.553447723388672 13.206002235412598 C16.563156127929688 13.206002235412598 16.569507598876953 13.210359573364258 16.574363708496094 13.217206954956055 C16.594036102294922 13.278467178344727 16.610347747802734 13.342464447021484 16.630268096923828 13.403722763061523 L16.80856704711914 13.974226951599121 C16.837080001831055 14.06536865234375 16.843055725097656 14.075078964233398 16.906307220458984 14.087281227111816 L16.924983978271484 14.091390609741211 C16.934696197509766 14.100852966308594 16.934696197509766 14.124011993408203 16.926227569580078 14.130735397338867 A2.804581880569458 2.804581880569458 0.0 0 0 16.765235900878906 14.126750946044922 C16.711946487426758 14.126750946044922 16.65728759765625 14.129490852355957 16.613956451416016 14.130735397338867 C16.60399627685547 14.123887062072754 16.602752685546875 14.099483489990234 16.610347747802734 14.091390609741211 L16.637615203857422 14.087281227111816 C16.68231201171875 14.081803321838379 16.68579864501953 14.073834419250488 16.66973876953125 14.01506519317627 L16.611591339111328 13.829919815063477 C16.599140167236328 13.79318904876709 16.595531463623047 13.79318904876709 16.560791015625 13.79318904876709 L16.39594268798828 13.79318904876709 L16.39594268798828 13.793313980102539 L16.39594268798828 13.793313980102539 M16.54473114013672 13.7320556640625 C16.579219818115234 13.7320556640625 16.584325790405273 13.729315757751465 16.574363708496094 13.696569442749023 L16.522319793701172 13.53321361541748 C16.501401901245117 13.461121559143066 16.493804931640625 13.435099601745605 16.487579345703125 13.425637245178223 L16.48533821105957 13.425637245178223 C16.479984283447266 13.435099601745605 16.470273971557617 13.469464302062988 16.448110580444336 13.53321361541748 L16.395816802978516 13.692461013793945 C16.382246017456055 13.7320556640625 16.386104583740234 13.7320556640625 16.415739059448242 13.7320556640625 L16.54473114013672 13.7320556640625 M17.69644546508789 13.985432624816895 C17.69644546508789 14.032995223999023 17.702795028686523 14.068355560302734 17.726327896118164 14.080681800842285 C17.729938507080078 14.086036682128906 17.729938507080078 14.096993446350098 17.72483253479004 14.101101875305176 A0.242794007062912 0.242794007062912 0.0 0 0 17.665443420410156 14.111933708190918 C17.588619232177734 14.13098430633545 17.49573516845703 14.148665428161621 17.425138473510742 14.148665428161621 C17.276350021362305 14.148665428161621 17.136526107788086 14.105087280273438 17.04364013671875 13.999004364013672 C16.970430374145508 13.915831565856934 16.934446334838867 13.801406860351562 16.934446334838867 13.686983108520508 C16.934446334838867 13.572558403015137 16.970430374145508 13.455768585205078 17.04849624633789 13.367241859436035 C17.136526107788086 13.264894485473633 17.271493911743164 13.20625114440918 17.44369125366211 13.20625114440918 C17.5018367767334 13.20625114440918 17.565088272094727 13.217455863952637 17.60854148864746 13.226919174194336 A0.44823506474494934 0.44823506474494934 0.0 0 0 17.687604904174805 13.239121437072754 C17.68910026550293 13.279959678649902 17.69781494140625 13.349437713623047 17.703914642333984 13.455768585205078 C17.69781494140625 13.469339370727539 17.670299530029297 13.470584869384766 17.664321899414062 13.458383560180664 C17.637054443359375 13.326277732849121 17.549026489257812 13.260910034179688 17.4265079498291 13.260910034179688 C17.20836639404297 13.260910034179688 17.1030330657959 13.434103965759277 17.1030330657959 13.66544246673584 C17.1030330657959 13.774388313293457 17.125444412231445 13.891427993774414 17.192306518554688 13.978584289550781 C17.259416580200195 14.065741539001465 17.358402252197266 14.094502449035645 17.431364059448242 14.094502449035645 C17.491004943847656 14.094502449035645 17.5267391204834 14.083670616149902 17.541555404663086 14.063126564025879 C17.549150466918945 14.050924301147461 17.553010940551758 14.026395797729492 17.553010940551758 13.977339744567871 L17.553010940551758 13.928282737731934 C17.553010940551758 13.831663131713867 17.551515579223633 13.823446273803711 17.468591690063477 13.808380126953125 L17.424142837524414 13.800411224365234 C17.41542625427246 13.790823936462402 17.41542625427246 13.767664909362793 17.42538833618164 13.760942459106445 C17.473573684692383 13.763680458068848 17.53308868408203 13.764925956726074 17.61850357055664 13.764925956726074 C17.674407958984375 13.764925956726074 17.71649169921875 13.763680458068848 17.769533157348633 13.760942459106445 C17.7822322845459 13.767788887023926 17.783103942871094 13.790823936462402 17.77214813232422 13.800411224365234 L17.749736785888672 13.80439567565918 C17.70404052734375 13.811244010925293 17.69644546508789 13.823446273803711 17.69644546508789 13.906494140625 L17.69644546508789 13.985432624816895 L17.69644546508789 13.985432624816895 M17.939861297607422 13.424142837524414 C17.939861297607422 13.27983570098877 17.928905487060547 13.275851249694824 17.87051010131836 13.266263961791992 L17.85083770751953 13.263525009155273 C17.842121124267578 13.253937721252441 17.843242645263672 13.229409217834473 17.853328704833984 13.224180221557617 C17.9002685546875 13.226795196533203 17.958663940429688 13.228163719177246 18.013072967529297 13.228163719177246 L18.249643325805664 13.228163719177246 C18.328954696655273 13.228163719177246 18.400672912597656 13.226795196533203 18.41673469543457 13.224180221557617 C18.422088623046875 13.247213363647461 18.42918586730957 13.354915618896484 18.436904907226562 13.413434982299805 C18.431550979614258 13.424266815185547 18.40677261352539 13.427005767822266 18.39706039428711 13.41878890991211 C18.377140045166016 13.339725494384766 18.35858917236328 13.30598258972168 18.318994522094727 13.294776916503906 C18.290481567382812 13.285563468933105 18.25362777709961 13.282699584960938 18.21976089477539 13.282699584960938 L18.136837005615234 13.282699584960938 C18.083547592163086 13.282699584960938 18.083547592163086 13.285439491271973 18.083547592163086 13.363008499145508 L18.083547592163086 13.593351364135742 C18.083547592163086 13.62858772277832 18.085041046142578 13.630082130432129 18.113178253173828 13.630082130432129 L18.172821044921875 13.630082130432129 C18.280521392822266 13.630082130432129 18.30168914794922 13.62858772277832 18.310279846191406 13.570192337036133 L18.318994522094727 13.523750305175781 C18.328954696655273 13.514287948608398 18.352611541748047 13.514287948608398 18.35858917236328 13.525368690490723 C18.357341766357422 13.56197452545166 18.354976654052734 13.611032485961914 18.354976654052734 13.661334037780762 C18.354976654052734 13.71325397491455 18.357467651367188 13.760942459106445 18.35858917236328 13.80439567565918 C18.35248565673828 13.813858032226562 18.328954696655273 13.813858032226562 18.318994522094727 13.805890083312988 L18.310279846191406 13.751354217529297 C18.30181121826172 13.693955421447754 18.2806453704834 13.6914644241333 18.172821044921875 13.6914644241333 L18.113178253173828 13.6914644241333 C18.084915161132812 13.6914644241333 18.083547592163086 13.694080352783203 18.083547592163086 13.728196144104004 L18.083547592163086 13.901264190673828 C18.083547592163086 13.970616340637207 18.08616065979004 14.019672393798828 18.104713439941406 14.042832374572754 C18.119529724121094 14.061882019042969 18.140697479248047 14.072713851928711 18.244787216186523 14.072713851928711 C18.40216636657715 14.07545280456543 18.429061889648438 14.03598403930664 18.472640991210938 13.925543785095215 C18.483596801757812 13.916080474853516 18.50501251220703 13.92031478881836 18.51223373413086 13.933760643005371 C18.504886627197266 13.990910530090332 18.477493286132812 14.094502449035645 18.460187911987305 14.131234169006348 A7.577164649963379 7.577164649963379 0.0 0 0 18.154268264770508 14.127248764038086 L18.012950897216797 14.127248764038086 C17.95841407775879 14.127248764038086 17.882837295532227 14.128494262695312 17.827180862426758 14.131234169006348 C17.817218780517578 14.125630378723145 17.815975189208984 14.101350784301758 17.824689865112305 14.091888427734375 L17.870386123657227 14.086285591125488 C17.92877960205078 14.079437255859375 17.93973731994629 14.07545280456543 17.93973731994629 13.931146621704102 L17.93973731994629 13.424142837524414 L17.939861297607422 13.424142837524414 L17.939861297607422 13.424142837524414 M19.585756301879883 14.091639518737793 C19.598207473754883 14.096993446350098 19.596961975097656 14.125381469726562 19.583267211914062 14.13098430633545 A3.2568013668060303 3.2568013668060303 0.0 0 0 19.26589012145996 14.13098430633545 C19.256179809570312 14.125381469726562 19.251075744628906 14.099732398986816 19.263648986816406 14.091639518737793 L19.29701805114746 14.08479118347168 C19.346572875976562 14.076449394226074 19.350309371948242 14.065616607666016 19.350309371948242 13.973106384277344 L19.350309371948242 13.542799949645996 L19.350309371948242 13.416173934936523 L19.34781837463379 13.416173934936523 C19.314199447631836 13.49087905883789 19.29701805114746 13.531843185424805 19.273611068725586 13.586379051208496 L19.16690444946289 13.82606029510498 C19.124820709228516 13.921309471130371 19.062814712524414 14.072464942932129 19.0404052734375 14.136587142944336 C19.03554916381836 14.141817092895508 19.016996383666992 14.141817092895508 19.00827980041504 14.136587142944336 C18.98711395263672 14.062877655029297 18.933822631835938 13.929652214050293 18.90543556213379 13.86154556274414 L18.795242309570312 13.599825859069824 A6.225736141204834 6.225736141204834 0.0 0 1 18.723526000976562 13.41604995727539 L18.720911026000977 13.41604995727539 C18.718669891357422 13.482662200927734 18.716054916381836 13.588869094848633 18.71331787109375 13.646142959594727 C18.711074829101562 13.729191780090332 18.70846176147461 13.85033893585205 18.70846176147461 13.96190071105957 C18.70846176147461 14.051920890808105 18.70995330810547 14.073834419250488 18.763120651245117 14.08342170715332 L18.8037109375 14.09151554107666 C18.81242561340332 14.099607467651367 18.81242561340332 14.125256538391113 18.802715301513672 14.130859375 A2.063499927520752 2.063499927520752 0.0 0 0 18.6726016998291 14.126875877380371 C18.633007049560547 14.126875877380371 18.588184356689453 14.128120422363281 18.540122985839844 14.130859375 C18.52891731262207 14.124011993408203 18.52891731262207 14.098238945007324 18.536514282226562 14.09151554107666 L18.557430267333984 14.088651657104492 C18.617069244384766 14.080681800842285 18.626781463623047 14.060138702392578 18.634252548217773 13.977090835571289 C18.64421272277832 13.891427993774414 18.646703720092773 13.802901268005371 18.652681350708008 13.66108512878418 C18.657785415649414 13.568573951721191 18.665130615234375 13.455768585205078 18.665130615234375 13.37259578704834 C18.665130615234375 13.308597564697266 18.646703720092773 13.279959678649902 18.598268508911133 13.271618843078613 L18.556184768676758 13.263649940490723 C18.54859161376953 13.254061698913574 18.550085067749023 13.228288650512695 18.561290740966797 13.22430419921875 C18.598268508911133 13.226919174194336 18.631515502929688 13.228288650512695 18.677581787109375 13.228288650512695 C18.720911026000977 13.228288650512695 18.76436424255371 13.228288650512695 18.81031036376953 13.22430419921875 C18.815166473388672 13.30598258972168 18.847288131713867 13.376704216003418 18.878416061401367 13.450165748596191 L19.014631271362305 13.764677047729492 C19.024341583251953 13.787836074829102 19.05671501159668 13.855941772460938 19.072776794433594 13.887319564819336 C19.092449188232422 13.847724914550781 19.110004425048828 13.809625625610352 19.137271881103516 13.745502471923828 L19.253812789916992 13.484031677246094 C19.293407440185547 13.394135475158691 19.333126068115234 13.313827514648438 19.354293823242188 13.224055290222168 C19.38766098022461 13.226670265197754 19.428499221801758 13.228039741516113 19.455642700195312 13.228039741516113 C19.507688522338867 13.228039741516113 19.551267623901367 13.226670265197754 19.585756301879883 13.224055290222168 C19.599079132080078 13.22928524017334 19.601818084716797 13.255183219909668 19.589366912841797 13.26340103149414 L19.548526763916016 13.270248413085938 C19.49399185180664 13.278467178344727 19.481666564941406 13.30162525177002 19.481666564941406 13.373841285705566 C19.481666564941406 13.575172424316406 19.484155654907227 13.776754379272461 19.492874145507812 13.97821044921875 C19.496482849121094 14.069352149963379 19.51017951965332 14.079063415527344 19.549774169921875 14.084543228149414 L19.585756301879883 14.091639518737793 L19.585756301879883 14.091639518737793 M19.77837371826172 13.424142837524414 C19.77837371826172 13.27983570098877 19.767166137695312 13.275851249694824 19.709020614624023 13.266263961791992 L19.689098358154297 13.263525009155273 C19.680633544921875 13.253937721252441 19.68150520324707 13.229409217834473 19.69158935546875 13.224180221557617 C19.738779067993164 13.226795196533203 19.796924591064453 13.228163719177246 19.851337432861328 13.228163719177246 L20.088153839111328 13.228163719177246 C20.167217254638672 13.228163719177246 20.239181518554688 13.226795196533203 20.255245208740234 13.224180221557617 C20.260101318359375 13.247213363647461 20.267696380615234 13.354915618896484 20.274917602539062 13.413434982299805 C20.270061492919922 13.424266815185547 20.245285034179688 13.427005767822266 20.23532485961914 13.41878890991211 C20.215652465820312 13.339725494384766 20.196849822998047 13.30598258972168 20.15750503540039 13.294776916503906 C20.128868103027344 13.285563468933105 20.091888427734375 13.282699584960938 20.058271408081055 13.282699584960938 L19.9753475189209 13.282699584960938 C19.92205810546875 13.282699584960938 19.92205810546875 13.285439491271973 19.92205810546875 13.363008499145508 L19.92205810546875 13.593351364135742 C19.92205810546875 13.62858772277832 19.923051834106445 13.630082130432129 19.951690673828125 13.630082130432129 L20.011329650878906 13.630082130432129 C20.11903190612793 13.630082130432129 20.139949798583984 13.62858772277832 20.148788452148438 13.570192337036133 L20.15750503540039 13.523750305175781 C20.167217254638672 13.514287948608398 20.190872192382812 13.514287948608398 20.196849822998047 13.525368690490723 C20.195606231689453 13.56197452545166 20.193241119384766 13.611032485961914 20.193241119384766 13.661334037780762 C20.193241119384766 13.71325397491455 20.195728302001953 13.760942459106445 20.196849822998047 13.80439567565918 C20.190750122070312 13.813858032226562 20.167217254638672 13.813858032226562 20.15750503540039 13.805890083312988 L20.148788452148438 13.751354217529297 C20.14007568359375 13.693955421447754 20.119155883789062 13.6914644241333 20.011329650878906 13.6914644241333 L19.951690673828125 13.6914644241333 C19.923051834106445 13.6914644241333 19.92205810546875 13.694080352783203 19.92205810546875 13.728196144104004 L19.92205810546875 13.901264190673828 C19.92205810546875 13.970616340637207 19.92454719543457 14.019672393798828 19.942974090576172 14.042832374572754 C19.95779037475586 14.061882019042969 19.978958129882812 14.072713851928711 20.08279800415039 14.072713851928711 C20.240428924560547 14.07545280456543 20.2675724029541 14.03598403930664 20.310901641845703 13.925543785095215 C20.322105407714844 13.916080474853516 20.343273162841797 13.92031478881836 20.350496292114258 13.933760643005371 C20.343149185180664 13.990910530090332 20.31600570678711 14.094502449035645 20.298450469970703 14.131234169006348 A7.577164649963379 7.577164649963379 0.0 0 0 19.992530822753906 14.127248764038086 L19.851211547851562 14.127248764038086 C19.796674728393555 14.127248764038086 19.721097946166992 14.128494262695312 19.665691375732422 14.131234169006348 C19.655731201171875 14.125630378723145 19.65448570251465 14.101350784301758 19.663076400756836 14.091888427734375 L19.709020614624023 14.086285591125488 C19.767166137695312 14.079437255859375 19.77837371826172 14.07545280456543 19.77837371826172 13.931146621704102 L19.77837371826172 13.424142837524414 M21.167652130126953 13.895411491394043 C21.167652130126953 13.936375617980957 21.167652130126953 14.103841781616211 21.1712646484375 14.135093688964844 A0.04482350870966911 0.04482350870966911 0.0 0 1 21.129180908203125 14.154143333435059 C21.109506607055664 14.125505447387695 21.073524475097656 14.07918930053711 20.984249114990234 13.96762752532959 L20.69439125061035 13.604059219360352 C20.61395835876465 13.50469970703125 20.57423973083496 13.453028678894043 20.553321838378906 13.432235717773438 C20.549461364746094 13.432235717773438 20.549461364746094 13.447425842285156 20.549461364746094 13.519516944885254 L20.549461364746094 13.785096168518066 C20.549461364746094 13.887319564819336 20.550704956054688 14.012575149536133 20.571874618530273 14.053415298461914 C20.583080291748047 14.073959350585938 20.60399627685547 14.081927299499512 20.63512420654297 14.087406158447266 L20.66214370727539 14.09151554107666 C20.67359733581543 14.100976943969727 20.672103881835938 14.126875877380371 20.659900665283203 14.130859375 A2.4112555980682373 2.4112555980682373 0.0 0 0 20.518333435058594 14.126875877380371 C20.466537475585938 14.126875877380371 20.433170318603516 14.128120422363281 20.38971519470215 14.130859375 C20.3800048828125 14.124011993408203 20.37726593017578 14.100976943969727 20.387226104736328 14.09151554107666 L20.414493560791016 14.084667205810547 C20.438024520874023 14.080557823181152 20.460189819335938 14.075078964233398 20.46902847290039 14.053291320800781 C20.485090255737305 14.010956764221191 20.485090255737305 13.892548561096191 20.485090255737305 13.784971237182617 L20.485090255737305 13.462367057800293 C20.485090255737305 13.356035232543945 20.486583709716797 13.334495544433594 20.444252014160156 13.294528007507324 C20.430679321289062 13.282450675964355 20.395816802978516 13.271368980407715 20.37863540649414 13.26738452911377 L20.360206604003906 13.26340103149414 C20.351491928100586 13.255183219909668 20.352611541748047 13.228039741516113 20.365062713623047 13.224055290222168 C20.412002563476562 13.22928524017334 20.48036003112793 13.228039741516113 20.5112361907959 13.228039741516113 C20.537261962890625 13.228039741516113 20.567142486572266 13.226670265197754 20.596900939941406 13.224055290222168 C20.617816925048828 13.282575607299805 20.752784729003906 13.45414924621582 20.796363830566406 13.505945205688477 L20.920127868652344 13.65299129486084 C20.972171783447266 13.715620040893555 21.087467193603516 13.8599271774292 21.099794387817383 13.868268966674805 C21.103404998779297 13.864035606384277 21.103404998779297 13.857187271118164 21.103404998779297 13.83552360534668 L21.103404998779297 13.56994342803955 C21.103404998779297 13.467720985412598 21.10215950012207 13.342589378356934 21.079872131347656 13.301749229431152 C21.06891632080078 13.281205177307129 21.048994064331055 13.273236274719238 21.017866134643555 13.267633438110352 L20.989355087280273 13.263649940490723 C20.978397369384766 13.254061698913574 20.979393005371094 13.228288650512695 20.99197006225586 13.22430419921875 C21.04015350341797 13.226919174194336 21.08584976196289 13.228288650512695 21.13428497314453 13.228288650512695 C21.18757438659668 13.228288650512695 21.219945907592773 13.226919174194336 21.26439666748047 13.22430419921875 C21.274606704711914 13.231027603149414 21.27684783935547 13.254061698913574 21.26688575744629 13.263649940490723 L21.238374710083008 13.27049732208252 C21.214839935302734 13.274481773376465 21.193923950195312 13.279959678649902 21.185083389282227 13.301874160766602 C21.16777801513672 13.343957901000977 21.16777801513672 13.462615966796875 21.16777801513672 13.570068359375 L21.16777801513672 13.895411491394043 L21.167652130126953 13.895411491394043 L21.167652130126953 13.895411491394043 M21.648883819580078 13.342589378356934 C21.648883819580078 13.285439491271973 21.647388458251953 13.282699584960938 21.615264892578125 13.282699584960938 L21.545665740966797 13.282699584960938 C21.431861877441406 13.282699584960938 21.398494720458984 13.297516822814941 21.352798461914062 13.40795612335205 C21.343833923339844 13.416173934936523 21.317811965942383 13.411941528320312 21.312955856323242 13.398493766784668 C21.333873748779297 13.324908256530762 21.352798461914062 13.240490913391113 21.361141204833984 13.192803382873535 C21.363754272460938 13.188819885253906 21.368858337402344 13.18744945526123 21.374961853027344 13.18744945526123 C21.379817962646484 13.18744945526123 21.384674072265625 13.188819885253906 21.387413024902344 13.192803382873535 C21.393512725830078 13.226919174194336 21.410945892333984 13.228288650512695 21.495113372802734 13.228288650512695 L22.000499725341797 13.228288650512695 C22.061260223388672 13.228288650512695 22.079811096191406 13.22430419921875 22.094627380371094 13.192803382873535 C22.099733352661133 13.1900634765625 22.104589462280273 13.18744945526123 22.109695434570312 13.18744945526123 C22.11703872680664 13.18744945526123 22.12326431274414 13.1900634765625 22.125755310058594 13.194297790527344 C22.113056182861328 13.250078201293945 22.103343963623047 13.367366790771484 22.107078552246094 13.410820007324219 C22.10097885131836 13.421527862548828 22.079811096191406 13.424266815185547 22.068605422973633 13.414804458618164 C22.05254364013672 13.308597564697266 22.029010772705078 13.282699584960938 21.896408081054688 13.282699584960938 L21.82593536376953 13.282699584960938 C21.793563842773438 13.282699584960938 21.792566299438477 13.285439491271973 21.792566299438477 13.342589378356934 L21.792566299438477 13.93089771270752 C21.792566299438477 14.075203895568848 21.803524017333984 14.07918930053711 21.861671447753906 14.086036682128906 L21.906368255615234 14.091639518737793 C21.914836883544922 14.101101875305176 21.913963317871094 14.125381469726562 21.903879165649414 14.13098430633545 C21.831912994384766 14.12824535369873 21.776256561279297 14.126999855041504 21.72171974182129 14.126999855041504 C21.667186737060547 14.126999855041504 21.608915328979492 14.12824535369873 21.52960205078125 14.13098430633545 C21.5198917388916 14.125381469726562 21.518646240234375 14.098362922668457 21.527362823486328 14.091639518737793 L21.579158782958984 14.08479118347168 C21.63730239868164 14.07918930053711 21.648757934570312 14.075203895568848 21.648757934570312 13.93089771270752 L21.648757934570312 13.342589378356934 L21.648883819580078 13.342589378356934 L21.648883819580078 13.342589378356934 M4.237066745758057 11.422648429870605 C5.0380377769470215 11.433231353759766 5.576542377471924 11.884330749511719 5.624104976654053 12.683932304382324 L7.950320720672607 12.683932304382324 C7.950320720672607 10.58743667602539 6.333686351776123 9.106019973754883 4.2371907234191895 9.106019973754883 L4.2371907234191895 11.422648429870605 L4.237066745758057 11.422648429870605 L4.237066745758057 11.422648429870605" fill="black" fill-opacity="1.0" filling="0"/>
<path animation_id="5" d="M13.897902488708496 15.306605339050293 C7.48838996887207 15.791072845458984 2.18813419342041 14.801717758178711 2.059267044067383 13.097055435180664 C2.006598472595215 12.402789115905762 2.5879344940185547 11.785221099853516 3.79941463470459 11.210484504699707 C3.79941463470459 11.210484504699707 0.9962024688720703 12.139078140258789 1.0588302612304688 13.279088973999023 C1.144369125366211 14.830853462219238 6.018427848815918 16.045696258544922 11.845234870910645 15.605304718017578 A31.388532638549805 31.388532638549805 0.0 0 0 14.976655006408691 15.211853981018066 C14.621926307678223 15.247214317321777 14.261968612670898 15.279212951660156 13.897902488708496 15.306605339050293 M16.05814552307129 15.286311149597168 C15.977838516235352 15.466476440429688 16.152774810791016 15.488887786865234 16.27168083190918 15.488887786865234 C16.505386352539062 15.488887786865234 16.680694580078125 15.408827781677246 16.695510864257812 15.408827781677246 C16.706966400146484 15.408827781677246 16.705970764160156 15.420158386230469 16.703481674194336 15.425512313842773 C16.696134567260742 15.444313049316406 16.685300827026367 15.44792366027832 16.640478134155273 15.462740898132324 C16.586441040039062 15.481292724609375 16.358339309692383 15.544419288635254 16.1431884765625 15.544419288635254 C15.994646072387695 15.544419288635254 15.825063705444336 15.55002212524414 15.9002685546875 15.364253997802734 C15.933636665344238 15.282574653625488 16.17892074584961 14.942788124084473 16.58942985534668 14.942788124084473 C16.748926162719727 14.942788124084473 16.75141716003418 14.987237930297852 16.685300827026367 15.150718688964844 C16.69264793395996 15.150718688964844 16.702110290527344 15.154454231262207 16.696258544921875 15.169271469116211 C16.69090461730957 15.182220458984375 16.686548233032227 15.184212684631348 16.620681762695312 15.195293426513672 L16.05814552307129 15.286311149597168 M16.47077178955078 15.180601119995117 C16.552200317382812 15.167652130126953 16.566768646240234 15.15818977355957 16.585819244384766 15.111872673034668 C16.622051239013672 15.022848129272461 16.58606719970703 14.9873628616333 16.5043888092041 14.9873628616333 C16.344892501831055 14.9873628616333 16.148914337158203 15.09518814086914 16.081056594848633 15.2398681640625 L16.47077178955078 15.180601119995117 M16.846542358398438 15.394136428833008 C16.855506896972656 15.394136428833008 16.977153778076172 15.489012718200684 17.147857666015625 15.489012718200684 C17.225675582885742 15.489012718200684 17.32129669189453 15.477806091308594 17.373966217041016 15.347818374633789 C17.40770721435547 15.264147758483887 17.28307342529297 15.260412216186523 17.158063888549805 15.252941131591797 C17.032808303833008 15.245471000671387 16.911287307739258 15.234514236450195 16.950382232666016 15.137895584106445 C17.02110481262207 14.963457107543945 17.349933624267578 14.916890144348145 17.48004913330078 14.916890144348145 C17.593101501464844 14.916890144348145 17.65074920654297 14.944780349731445 17.6264705657959 15.004171371459961 C17.620620727539062 15.019112586975098 17.600448608398438 15.050613403320312 17.58737564086914 15.050613403320312 C17.57081413269043 15.050613403320312 17.527984619140625 14.972421646118164 17.33686065673828 14.972421646118164 C17.26439666748047 14.972421646118164 17.133039474487305 14.989355087280273 17.09556007385254 15.082239151000977 C17.067546844482422 15.150843620300293 17.192554473876953 15.15818977355957 17.306108474731445 15.171138763427734 C17.439332962036133 15.186080932617188 17.552885055541992 15.208616256713867 17.514537811279297 15.303243637084961 C17.437713623046875 15.492623329162598 17.14922332763672 15.544544219970703 17.01213836669922 15.544544219970703 C16.827991485595703 15.544544219970703 16.787899017333984 15.511175155639648 16.819522857666016 15.433107376098633 C16.831478118896484 15.403348922729492 16.84069061279297 15.394136428833008 16.846542358398438 15.394136428833008 L16.846542358398438 15.394136428833008 M17.810745239257812 15.286311149597168 C17.73031234741211 15.466476440429688 17.905122756958008 15.488887786865234 18.023780822753906 15.488887786865234 C18.257986068725586 15.488887786865234 18.43329429626465 15.408827781677246 18.448110580444336 15.408827781677246 C18.459068298339844 15.408827781677246 18.458568572998047 15.420158386230469 18.456079483032227 15.425512313842773 C18.448486328125 15.444313049316406 18.43790054321289 15.44792366027832 18.3928279876709 15.462740898132324 C18.33854103088379 15.481292724609375 18.110689163208008 15.544419288635254 17.895286560058594 15.544419288635254 C17.746747970581055 15.544419288635254 17.577415466308594 15.55002212524414 17.652616500854492 15.364253997802734 C17.685985565185547 15.282574653625488 17.931270599365234 14.942788124084473 18.341529846191406 14.942788124084473 C18.50152587890625 14.942788124084473 18.503767013549805 14.987237930297852 18.43752670288086 15.150718688964844 C18.444873809814453 15.150718688964844 18.454586029052734 15.154454231262207 18.448486328125 15.169271469116211 C18.443130493164062 15.182220458984375 18.43877410888672 15.184212684631348 18.37315559387207 15.195293426513672 L17.810745239257812 15.286311149597168 L17.810745239257812 15.286311149597168 M18.223121643066406 15.180601119995117 C18.304550170898438 15.167652130126953 18.319368362426758 15.15818977355957 18.338417053222656 15.111872673034668 C18.374401092529297 15.022848129272461 18.338417053222656 14.9873628616333 18.256738662719727 14.9873628616333 C18.097244262695312 14.9873628616333 17.90138816833496 15.09518814086914 17.833406448364258 15.2398681640625 L18.223121643066406 15.180601119995117 L18.223121643066406 15.180601119995117 M19.25991439819336 14.931831359863281 C19.332380294799805 14.931831359863281 19.374711990356445 14.968935012817383 19.39488410949707 15.024590492248535 C19.433107376098633 15.016996383666992 19.470958709716797 15.006163597106934 19.503082275390625 14.991222381591797 L19.45352554321289 15.154579162597656 C19.40222930908203 15.327274322509766 19.372596740722656 15.483160018920898 19.41318702697754 15.483160018920898 C19.426259994506836 15.483160018920898 19.425886154174805 15.489012718200684 19.422149658203125 15.498101234436035 C19.414554595947266 15.516653060913086 19.294279098510742 15.561352729797363 19.27211570739746 15.561352729797363 C19.255308151245117 15.561352729797363 19.247339248657227 15.5576171875 19.296146392822266 15.336612701416016 C19.12880516052246 15.46099853515625 18.927474975585938 15.531469345092773 18.75876235961914 15.531469345092773 C18.652681350708008 15.531469345092773 18.535764694213867 15.503704071044922 18.589305877685547 15.371724128723145 C18.672849655151367 15.165660858154297 19.059206008911133 14.931831359863281 19.25991439819336 14.931831359863281 L19.25991439819336 14.931831359863281 M19.344955444335938 15.037664413452148 A0.22934694588184357 0.22934694588184357 0.0 0 0 19.19442367553711 14.9873628616333 C19.016124725341797 14.9873628616333 18.815290451049805 15.152710914611816 18.745563507080078 15.325531005859375 C18.70198631286621 15.433107376098633 18.790512084960938 15.475813865661621 18.857126235961914 15.475813865661621 C19.02981948852539 15.475813865661621 19.246219635009766 15.34943675994873 19.287057876586914 15.299384117126465 C19.297765731811523 15.2864351272583 19.3143253326416 15.251073837280273 19.324037551879883 15.227043151855469 C19.33910369873047 15.189815521240234 19.36587142944336 15.054224014282227 19.344955444335938 15.037664413452148 L19.344955444335938 15.037664413452148 M20.163230895996094 15.015501976013184 C20.191246032714844 14.946647644042969 20.268817901611328 14.874307632446289 20.31886863708496 14.874307632446289 C20.326465606689453 14.874307632446289 20.331321716308594 14.87592601776123 20.326839447021484 14.887256622314453 C20.325841903686523 14.889248847961426 20.265331268310547 15.093320846557617 20.35335922241211 15.110129356384277 C20.37203598022461 15.113615989685059 20.375022888183594 15.115608215332031 20.37253189086914 15.121210098266602 C20.364564895629883 15.141754150390625 20.31102752685547 15.154703140258789 20.270187377929688 15.154703140258789 C20.1997127532959 15.154703140258789 20.155139923095703 15.117599487304688 20.158374786376953 15.060076713562012 L19.991533279418945 15.210359573364258 C19.941730499267578 15.254809379577637 19.78920555114746 15.388657569885254 19.731060028076172 15.490755081176758 C19.718109130859375 15.513042449951172 19.712383270263672 15.518521308898926 19.702795028686523 15.518521308898926 C19.684616088867188 15.518521308898926 19.635435104370117 15.511300086975098 19.646642684936523 15.483283996582031 C19.65349006652832 15.46672534942627 19.74176788330078 15.299508094787598 19.782358169555664 15.19940185546875 C19.830541610717773 15.080620765686035 19.84872055053711 15.008155822753906 19.85843276977539 14.984001159667969 C19.86739730834961 14.961713790893555 19.88445472717285 14.956235885620117 19.905122756958008 14.956235885620117 C19.93313980102539 14.956235885620117 19.985557556152344 14.982133865356445 19.97123908996582 15.017244338989258 C19.948577880859375 15.07302474975586 19.85083770751953 15.245719909667969 19.79269027709961 15.351677894592285 L19.795181274414062 15.355413436889648 C19.899272918701172 15.230778694152832 20.027891159057617 15.128806114196777 20.153894424438477 15.024839401245117 L20.163230895996094 15.015501976013184 L20.163230895996094 15.015501976013184 M20.725021362304688 15.488887786865234 C20.923736572265625 15.488887786865234 21.112369537353516 15.37558364868164 21.142127990722656 15.37558364868164 C21.147979736328125 15.37558364868164 21.15644645690918 15.377450942993164 21.151092529296875 15.390400886535645 C21.129180908203125 15.444437980651855 20.823009490966797 15.544419288635254 20.563282012939453 15.544419288635254 C20.399925231933594 15.544419288635254 20.278778076171875 15.503704071044922 20.336923599243164 15.36064338684082 C20.43790054321289 15.111747741699219 20.869701385498047 14.916765213012695 21.08522605895996 14.916765213012695 C21.142627716064453 14.916765213012695 21.250823974609375 14.92971420288086 21.218204498291016 15.009525299072266 C21.211355209350586 15.026333808898926 21.2021427154541 15.045010566711426 21.189067840576172 15.045010566711426 C21.1778621673584 15.045010566711426 21.094688415527344 14.998568534851074 20.946151733398438 14.998568534851074 C20.78640365600586 14.998568534851074 20.57361602783203 15.115358352661133 20.502147674560547 15.291789054870605 C20.43441390991211 15.45913028717041 20.60051155090332 15.488887786865234 20.725021362304688 15.488887786865234 L20.725021362304688 15.488887786865234 M21.39836883544922 15.37558364868164 L21.400859832763672 15.379194259643555 C21.512420654296875 15.236257553100586 21.813236236572266 14.942788124084473 21.963768005371094 14.942788124084473 C22.06586456298828 14.942788124084473 22.053041458129883 15.011517524719238 22.001245498657227 15.258544921875 C21.952810287475586 15.486896514892578 21.967254638671875 15.548029899597168 22.004356384277344 15.557367324829102 C22.010957717895508 15.559359550476074 22.013322830200195 15.566581726074219 22.01045799255371 15.574052810668945 C22.002241134643555 15.59447193145752 21.893295288085938 15.65784740447998 21.854074478149414 15.65784740447998 C21.835399627685547 15.65784740447998 21.830293655395508 15.642906188964844 21.8380126953125 15.587126731872559 L21.883211135864258 15.251073837280273 C21.902881622314453 15.097179412841797 21.91583251953125 15.024590492248535 21.869388580322266 15.024590492248535 C21.79132080078125 15.024590492248535 21.459129333496094 15.312333106994629 21.328022003173828 15.544544219970703 C21.295398712158203 15.542675971984863 21.261159896850586 15.535205841064453 21.241735458374023 15.514785766601562 C21.315446853637695 15.360892295837402 21.369857788085938 15.230653762817383 21.588993072509766 14.690530776977539 C21.689971923828125 14.441636085510254 21.700429916381836 14.356223106384277 21.715496063232422 14.31911849975586 A0.02477743849158287 0.02477743849158287 0.0 0 1 21.738155364990234 14.304302215576172 C21.773391723632812 14.304302215576172 21.858806610107422 14.341529846191406 21.84374237060547 14.378634452819824 C21.827178955078125 14.419473648071289 21.73728370666504 14.627405166625977 21.506195068359375 15.138143539428711 L21.39836883544922 15.37558364868164 L21.39836883544922 15.37558364868164" fill="black" fill-opacity="1.0" filling="0"/>
<path animation_id="6" d="M15.197783470153809 14.512481689453125 C15.203137397766113 14.498910903930664 15.216211318969727 14.484965324401855 15.230155944824219 14.484965324401855 C15.247712135314941 14.484965324401855 15.317438125610352 14.510490417480469 15.297764778137207 14.563157081604004 C15.42613410949707 14.549337387084961 15.55624771118164 14.531906127929688 15.73965072631836 14.531906127929688 C16.113927841186523 14.531906127929688 16.266326904296875 14.598145484924316 16.201705932617188 14.757890701293945 C16.130237579345703 14.933450698852539 15.830666542053223 15.177114486694336 15.29851245880127 15.177114486694336 L15.296770095825195 15.180974960327148 L15.462118148803711 15.383801460266113 C15.665193557739258 15.633318901062012 15.9688720703125 15.917574882507324 16.033369064331055 15.917574882507324 C16.062503814697266 15.917574882507324 16.070348739624023 15.917574882507324 16.06648826599121 15.927286148071289 C16.05988883972168 15.942726135253906 15.938119888305664 16.02664566040039 15.88769245147705 16.02664566040039 C15.868020057678223 16.02664566040039 15.841499328613281 16.005229949951172 15.793562889099121 15.950695037841797 L15.117973327636719 15.208242416381836 C15.097304344177246 15.182967185974121 15.086596488952637 15.165411949157715 15.088339805603027 15.161551475524902 C15.092199325561523 15.151840209960938 15.154205322265625 15.105148315429688 15.199028968811035 15.105148315429688 C15.222436904907227 15.105148315429688 15.294154167175293 15.130423545837402 15.381685256958008 15.130423545837402 C15.726700782775879 15.130423545837402 15.95393180847168 14.954865455627441 16.013944625854492 14.8066987991333 C16.088401794433594 14.623544692993164 15.800411224365234 14.578596115112305 15.660089492797852 14.578596115112305 C15.535329818725586 14.578596115112305 15.404470443725586 14.598020553588867 15.271493911743164 14.623544692993164 C15.178857803344727 14.828115463256836 15.096681594848633 15.011393547058105 15.014256477355957 15.214095115661621 C14.889497756958008 15.52213191986084 14.843554496765137 15.674158096313477 14.8316011428833 15.703542709350586 C14.821142196655273 15.728816986083984 14.815040588378906 15.734794616699219 14.78951644897461 15.734794616699219 C14.733114242553711 15.734794616699219 14.656042098999023 15.71337890625 14.678827285766602 15.65660285949707 C14.686796188354492 15.637178421020508 14.697006225585938 15.611903190612793 14.713814735412598 15.574674606323242 L15.148353576660156 14.642843246459961 C14.957230567932129 14.691652297973633 14.904190063476562 14.730623245239258 14.866961479187012 14.730623245239258 A0.04283135384321213 0.04283135384321213 0.0 0 1 14.832223892211914 14.668368339538574 C14.847040176391602 14.63114070892334 14.876298904418945 14.621428489685059 15.17076587677002 14.578596115112305 L15.197783470153809 14.512481689453125 L15.197783470153809 14.512481689453125 M4.236195087432861 11.537446975708008 L4.236195087432861 12.685426712036133 L5.505696773529053 12.685426712036133 C5.484405517578125 11.992280960083008 4.989230155944824 11.556745529174805 4.236195087432861 11.537446975708008" fill="black" fill-opacity="1.0" filling="0"/>
<path animation_id="7" d="M4.236444473266602 8.769719123840332 L8.296083450317383 8.769719123840332 L8.296083450317383 12.688663482666016 L8.073461532592773 12.688663482666016 C8.073461532592773 10.482101440429688 6.443628311157227 8.972545623779297 4.237066745758057 8.972545623779297 L4.237066745758057 12.688663482666016 L4.236444473266602 12.688663482666016 L4.236444473266602 8.769719123840332" fill="black" fill-opacity="1.0" filling="0"/></svg>