<?xml version="1.0" encoding="iso-8859-1"?><svg height="200px" viewBox="0.0 0.0 24.0 24.0" width="200px" xmlns="http://www.w3.org/2000/svg"><path animation_id="0" d="M1.6584930419921875 9.493535995483398 C1.6584930419921875 9.50691032409668 1.516718864440918 9.710209846496582 1.3455190658569336 9.945608139038086 C1.1716442108154297 10.178332328796387 0.8854217529296875 10.568881034851074 0.7088718414306641 10.812305450439453 C0.532322883605957 11.058403968811035 0.3022737503051758 11.374053001403809 0.19527339935302734 11.518502235412598 C0.09094905853271484 11.662951469421387 0.010699272155761719 11.788676261901855 0.016050338745117188 11.799375534057617 C0.024074554443359375 11.812750816345215 0.35309886932373047 11.820775985717773 0.7463216781616211 11.820775985717773 L1.4605436325073242 11.820775985717773 L1.519392967224121 11.74052619934082 L1.580918312072754 11.660276412963867 L3.6085596084594727 11.660276412963867 L3.6647348403930664 11.74052619934082 L3.7209091186523438 11.820775985717773 L4.443156719207764 11.820775985717773 C4.964779376983643 11.820775985717773 5.162728309631348 11.812750816345215 5.162728309631348 11.791351318359375 C5.162728309631348 11.772625923156738 5.042353630065918 11.596076965332031 4.895229339599609 11.395452499389648 C4.748105049133301 11.194828033447266 4.485955715179443 10.836380004882812 4.312081336975098 10.600980758666992 C4.140882968902588 10.362907409667969 3.8947839736938477 10.023183822631836 3.766385078430176 9.846633911132812 C3.6353092193603516 9.670084953308105 3.530984878540039 9.512260437011719 3.530984878540039 9.496210098266602 C3.530984878540039 9.474810600280762 3.255460739135742 9.466785430908203 2.5947389602661133 9.466785430908203 C1.9928665161132812 9.466785430908203 1.6584930419921875 9.477485656738281 1.6584930419921875 9.493535995483398 L1.6584930419921875 9.493535995483398 M2.8033885955810547 10.550155639648438 C3.00936222076416 10.839055061340332 3.0762367248535156 10.946054458618164 3.0762367248535156 10.970129013061523 C3.0762367248535156 10.983504295349121 2.859562873840332 10.99152946472168 2.5947389602661133 10.99152946472168 C2.2255897521972656 10.99152946472168 2.113241195678711 10.983504295349121 2.113241195678711 10.956754684448242 C2.113241195678711 10.924654960632324 2.177440643310547 10.828354835510254 2.3941144943237305 10.523406028747559 C2.4476146697998047 10.448506355285645 2.5064640045166016 10.368256568908691 2.522515296936035 10.341506958007812 C2.5412397384643555 10.317432403564453 2.573338508605957 10.298707008361816 2.5947389602661133 10.301382064819336 C2.6161394119262695 10.306732177734375 2.7097644805908203 10.419081687927246 2.8033885955810547 10.550155639648438 M5.419527530670166 9.565759658813477 C5.398127555847168 9.696834564208984 5.398127555847168 11.7218017578125 5.419527530670166 11.777976036071777 C5.435576915740967 11.815425872802734 5.601426124572754 11.820775985717773 7.037895679473877 11.820775985717773 C8.757913589477539 11.820775985717773 8.707088470458984 11.823451042175293 9.00936222076416 11.681676864624023 C9.148462295532227 11.617476463317871 9.41061019897461 11.358002662658691 9.472135543823242 11.22960376739502 C9.595185279846191 10.970129013061523 9.603209495544434 10.935354232788086 9.603209495544434 10.675880432128906 C9.603209495544434 10.386981964111328 9.568435668945312 10.25858211517334 9.423985481262207 10.036558151245117 C9.2634859085083 9.793134689331055 9.00668716430664 9.605884552001953 8.7686128616333 9.563085556030273 C8.704413414001465 9.552385330200195 8.666963577270508 9.528310775756836 8.666963577270508 9.50691032409668 C8.666963577270508 9.472135543823242 8.447614669799805 9.466785430908203 7.051270484924316 9.466785430908203 L5.4382524490356445 9.466785430908203 L5.419527530670166 9.565759658813477 M8.057066917419434 10.338831901550293 C8.198841094970703 10.405706405639648 8.252340316772461 10.4993314743042 8.252340316772461 10.681230545043945 C8.252340316772461 10.828354835510254 8.246990203857422 10.841730117797852 8.148015975952148 10.927330017089844 L8.041016578674316 11.018279075622559 L7.399019241333008 11.01292896270752 L6.75434684753418 11.004903793334961 L6.746321678161621 10.686580657958984 C6.74364709854126 10.510031700134277 6.746321678161621 10.349532127380371 6.75167179107666 10.330806732177734 C6.773071765899658 10.274632453918457 7.939366340637207 10.279982566833496 8.057066917419434 10.338831901550293 L8.057066917419434 10.338831901550293 M9.496210098266602 9.498885154724121 C9.496210098266602 9.549710273742676 9.571109771728516 9.662059783935547 9.876058578491211 10.076683044433594 C10.025857925415039 10.282657623291016 10.296031951904297 10.651805877685547 10.472580909729004 10.89522933959961 C10.649130821228027 11.138653755187988 10.87115478515625 11.443602561950684 10.967453956604004 11.572001457214355 L11.141328811645508 11.807400703430176 L12.080249786376953 11.815425872802734 L13.016495704650879 11.820775985717773 L13.190370559692383 11.580026626586914 C13.399019241333008 11.291128158569336 13.931341171264648 10.558180809020996 14.249666213989258 10.124833106994629 C14.597414016723633 9.656709671020508 14.656264305114746 9.565759658813477 14.65893840789795 9.512260437011719 C14.65893840789795 9.469460487365723 14.605439186096191 9.466785430908203 13.88319206237793 9.466785430908203 C13.281319618225098 9.466785430908203 13.107444763183594 9.474810600280762 13.107444763183594 9.498885154724121 C13.107444763183594 9.517610549926758 12.997770309448242 9.678110122680664 12.86669635772705 9.854659080505371 C12.73562240600586 10.031208038330078 12.593847274780273 10.223807334899902 12.551048278808594 10.282657623291016 C12.25947380065918 10.689255714416504 12.106999397277832 10.884530067443848 12.080249786376953 10.884530067443848 C12.061524391174316 10.884530067443848 11.946499824523926 10.745429992675781 11.820775032043457 10.574231147766113 C11.697725296020508 10.403031349182129 11.473027229309082 10.09540843963623 11.323226928710938 9.892108917236328 C11.170753479003906 9.686134338378906 11.047703742980957 9.50691032409668 11.047703742980957 9.493535995483398 C11.047703742980957 9.477485656738281 10.769505500793457 9.466785430908203 10.271957397460938 9.466785430908203 C9.670083999633789 9.466785430908203 9.496210098266602 9.474810600280762 9.496210098266602 9.498885154724121 L9.496210098266602 9.498885154724121 M15.541685104370117 9.493535995483398 C15.541685104370117 9.520285606384277 15.327686309814453 9.830583572387695 15.014711380004883 10.25590705871582 C14.747213363647461 10.619706153869629 14.212215423583984 11.352652549743652 14.043691635131836 11.590726852416992 C13.971466064453125 11.692376136779785 13.917966842651367 11.786001205444336 13.92599105834961 11.799375534057617 C13.934017181396484 11.810075759887695 14.2576904296875 11.820775985717773 14.645564079284668 11.820775985717773 L15.349085807800293 11.820775985717773 L15.415960311889648 11.74052619934082 L15.48551082611084 11.660276412963867 L17.510475158691406 11.660276412963867 L17.569326400756836 11.74052619934082 L17.63085174560547 11.820775985717773 L18.334373474121094 11.820775985717773 C18.719572067260742 11.820775985717773 19.04324722290039 11.812750816345215 19.053945541381836 11.804725646972656 C19.072669982910156 11.786001205444336 19.051271438598633 11.753901481628418 18.67142105102539 11.232277870178223 C18.51359748840332 11.018279075622559 18.323673248291016 10.75345516204834 18.243423461914062 10.643780708312988 C18.16317367553711 10.534106254577637 18.0294246673584 10.346857070922852 17.943824768066406 10.229157447814941 C17.502450942993164 9.62193489074707 17.440927505493164 9.530984878540039 17.440927505493164 9.498885154724121 C17.440927505493164 9.474810600280762 17.23227882385254 9.466785430908203 16.49130630493164 9.466785430908203 C15.900134086608887 9.466785430908203 15.541685104370117 9.477485656738281 15.541685104370117 9.493535995483398 L15.541685104370117 9.493535995483398 M16.531431198120117 10.328131675720215 C16.66785430908203 10.49130630493164 16.959428787231445 10.908604621887207 16.959428787231445 10.943379402160645 C16.959428787231445 10.98885440826416 16.91930389404297 10.99152946472168 16.49130630493164 10.99152946472168 C16.047258377075195 10.99152946472168 16.023181915283203 10.98885440826416 16.023181915283203 10.940704345703125 C16.023181915283203 10.887205123901367 16.445831298828125 10.296031951904297 16.4832820892334 10.296031951904297 C16.493980407714844 10.296031951904297 16.515380859375 10.312082290649414 16.531431198120117 10.328131675720215 M19.318769454956055 10.63575553894043 L19.326793670654297 11.807400703430176 L20.63753890991211 11.807400703430176 L20.65091323852539 11.101203918457031 C20.658939361572266 10.606330871582031 20.672313690185547 10.392332077026367 20.693714141845703 10.384306907653809 C20.712438583374023 10.37895679473877 20.7525634765625 10.419081687927246 20.787338256835938 10.475255966186523 C20.822113037109375 10.531431198120117 20.942489624023438 10.702630996704102 21.057512283325195 10.857779502868652 C21.16986083984375 11.01292896270752 21.298261642456055 11.186803817749023 21.341060638427734 11.24565315246582 C21.383861541748047 11.304502487182617 21.493534088134766 11.456977844238281 21.587160110473633 11.585376739501953 L21.758359909057617 11.820775985717773 L22.860454559326172 11.820775985717773 C23.839500427246094 11.820775985717773 23.965225219726562 11.815425872802734 23.978599548339844 11.777976036071777 C24.0 11.7218017578125 24.0 9.696834564208984 23.978599548339844 9.565759658813477 L23.959875106811523 9.466785430908203 L22.68390655517578 9.466785430908203 L22.68390655517578 10.21310806274414 C22.68390655517578 10.625055313110352 22.67320442199707 10.967453956604004 22.65983009338379 10.975479125976562 C22.649131774902344 10.983504295349121 22.483280181884766 10.777530670166016 22.293357849121094 10.520730972290039 C22.103431701660156 10.26125717163086 21.860008239746094 9.929558753967285 21.75568389892578 9.785109519958496 C21.648685455322266 9.637985229492188 21.560409545898438 9.50691032409668 21.560409545898438 9.493535995483398 C21.560409545898438 9.477485656738281 21.164512634277344 9.466785430908203 20.436914443969727 9.466785430908203 L19.313419342041016 9.466785430908203 L19.318769454956055 10.63575553894043 M2.8622379302978516 12.288898468017578 C2.795363426208496 12.323674201965332 2.7231388092041016 12.363799095153809 2.7017383575439453 12.37449836730957 C2.608114242553711 12.425323486328125 2.2764158248901367 12.658047676086426 2.13999080657959 12.767722129821777 C2.0597410202026367 12.834596633911133 1.8805179595947266 12.971020698547363 1.7440919876098633 13.069995880126953 C0.04814910888671875 14.316540718078613 0.0 14.35399055480957 0.0 14.418190002441406 C0.0 14.466339111328125 0.03209972381591797 14.469015121459961 0.703521728515625 14.469015121459961 C1.3776187896728516 14.466339111328125 1.4070444107055664 14.463665008544922 1.5006685256958008 14.407489776611328 C1.6370935440063477 14.327239990234375 1.9286670684814453 14.126616477966309 2.1667404174804688 13.950067520141602 C2.4797143936157227 13.72001838684082 2.760587692260742 13.524744033813477 2.854212760925293 13.473918914794922 C3.0548362731933594 13.36424446105957 3.36513614654541 13.436469078063965 3.6058855056762695 13.64779281616211 C3.6593847274780273 13.695942878723145 3.758358955383301 13.776192665100098 3.8252334594726562 13.827017784118652 C3.892108917236328 13.875167846679688 3.9589834213256836 13.928667068481445 3.9723587036132812 13.944716453552246 C4.0124831199646 13.990192413330078 4.253232002258301 14.182790756225586 4.360231876373291 14.25501537322998 C4.435132026672363 14.308515548706055 4.485955715179443 14.321889877319336 4.627730369567871 14.321889877319336 C4.7802042961120605 14.321889877319336 4.817655086517334 14.311190605163574 4.9219794273376465 14.23629093170166 C4.988853931427002 14.190815925598145 5.085154056549072 14.110566139221191 5.138653755187988 14.062416076660156 C5.192153453826904 14.014266967773438 5.331252574920654 13.888542175292969 5.446277141571045 13.786892890930176 C5.812750816345215 13.457868576049805 6.457422733306885 12.87472152709961 6.548372745513916 12.789121627807617 C6.692821979522705 12.652697563171387 6.663397312164307 12.63664722442627 6.238073825836182 12.628622055053711 C5.804725646972656 12.620597839355469 5.777975559234619 12.628622055053711 5.497101783752441 12.855996131896973 C4.932679176330566 13.313419342041016 4.697280406951904 13.348194122314453 4.304056644439697 13.035221099853516 C4.210432052612305 12.962995529174805 4.0766825675964355 12.855996131896973 4.00178337097168 12.797146797180176 C3.9268836975097656 12.740972518920898 3.7717342376708984 12.61257266998291 3.6567087173461914 12.51359748840332 C3.541685104370117 12.414623260498047 3.3999109268188477 12.307623863220215 3.3410606384277344 12.278199195861816 C3.1966114044189453 12.203299522399902 3.0173873901367188 12.205974578857422 2.8622379302978516 12.288898468017578 L2.8622379302978516 12.288898468017578 M7.289344310760498 12.746321678161621 C6.7061967849731445 12.885421752929688 6.307623863220215 13.118144989013672 6.037449836730957 13.476593971252441 C5.756575584411621 13.843067169189453 5.810075759887695 14.196166038513184 6.173874378204346 14.37539005279541 C6.339723587036133 14.458314895629883 6.556397914886475 14.49576473236084 6.874721050262451 14.49576473236084 C7.12082052230835 14.49576473236084 7.52741813659668 14.455639839172363 7.575568675994873 14.426214218139648 C7.591618061065674 14.415514945983887 7.650467872619629 14.396790504455566 7.701292514801025 14.386090278625488 C7.875166893005371 14.35131549835205 8.041016578674316 14.287115097045898 8.359339714050293 14.131965637207031 C8.477039337158203 14.075791358947754 8.578689575195312 14.0249662399292 8.586713790893555 14.019617080688477 C8.594738960266113 14.016942024230957 8.65091323852539 14.086491584777832 8.707088470458984 14.174766540527344 C8.77396297454834 14.279090881347656 8.854212760925293 14.362014770507812 8.934462547302246 14.410164833068848 C9.046812057495117 14.477039337158203 9.073562622070312 14.482389450073242 9.375835418701172 14.482389450073242 C9.720909118652344 14.479714393615723 9.817209243774414 14.458314895629883 10.119482040405273 14.305840492248535 C10.53945541381836 14.09451675415039 10.863129615783691 13.786892890930176 11.004903793334961 13.457868576049805 L11.055728912353516 13.345519065856934 L11.24832820892334 13.345519065856934 C11.352652549743652 13.345519065856934 11.448951721191406 13.353544235229492 11.456976890563965 13.36156940460205 C11.48105239868164 13.38564395904541 11.435577392578125 13.463218688964844 11.293803215026855 13.637092590332031 C11.22425365447998 13.72269344329834 11.12527847290039 13.845742225646973 11.071778297424316 13.909942626953125 C11.020954132080078 13.974142074584961 10.962103843688965 14.078466415405273 10.943379402160645 14.14266586303711 C10.913954734802246 14.2416410446167 10.916629791259766 14.271065711975098 10.959429740905762 14.35399055480957 C11.020954132080078 14.477039337158203 11.12527847290039 14.51716423034668 11.395452499389648 14.5198392868042 C11.802050590515137 14.525189399719238 12.106999397277832 14.415514945983887 12.596522331237793 14.089166641235352 C12.877395629882812 13.901917457580566 12.962995529174805 13.835042953491211 13.449843406677246 13.415069580078125 C13.682567596435547 13.217120170593262 13.744091987609863 13.176995277404785 13.821667671203613 13.174320220947266 C13.936691284179688 13.171645164489746 13.968791961669922 13.22782039642334 13.875167846679688 13.262594223022461 C13.837717056274414 13.275969505310059 13.730717658996582 13.36156940460205 13.637092590332031 13.449844360351562 C13.457868576049805 13.615693092346191 13.294694900512695 13.891217231750488 13.294694900512695 14.027641296386719 C13.294694900512695 14.185465812683105 13.423093795776367 14.329916000366211 13.637092590332031 14.412839889526367 C13.754793167114258 14.460989952087402 13.837717056274414 14.469015121459961 14.139989852905273 14.469015121459961 C14.479714393615723 14.469015121459961 14.565314292907715 14.458314895629883 14.966562271118164 14.35934066772461 C15.057512283325195 14.337940216064453 15.097637176513672 14.343290328979492 15.234061241149902 14.396790504455566 C15.48551082611084 14.501114845275879 15.88140869140625 14.533214569091797 16.40570640563965 14.49843978881836 C17.06375503540039 14.450289726257324 17.43825340270996 14.367364883422852 17.406152725219727 14.273740768432617 C17.400802612304688 14.2576904296875 17.2884521484375 14.228265762329102 17.157379150390625 14.209541320800781 C16.56888198852539 14.126616477966309 16.493980407714844 14.110566139221191 16.170307159423828 14.014266967773438 C15.870708465576172 13.923316955566406 15.755683898925781 13.840392112731934 15.798482894897461 13.749443054199219 C15.811858177185059 13.72269344329834 15.916183471679688 13.59964370727539 16.031208038330078 13.476593971252441 C16.210432052612305 13.286669731140137 16.317432403564453 13.12884521484375 16.317432403564453 13.053945541381836 C16.317432403564453 13.043245315551758 16.301382064819336 13.01114559173584 16.27998161315918 12.984395980834961 C16.247882843017578 12.938920974731445 16.19438362121582 12.928220748901367 15.950958251953125 12.912171363830566 C15.793134689331055 12.904146194458008 15.541685104370117 12.882746696472168 15.394560813903809 12.864021301269531 C15.097637176513672 12.831921577453613 14.672313690185547 12.84797191619873 14.370039939880371 12.906821250915527 C14.12126636505127 12.954971313476562 13.89924144744873 12.952296257019043 13.7628173828125 12.904146194458008 C13.607667922973633 12.84797191619873 13.36691951751709 12.853321075439453 13.24654483795166 12.917521476745605 C13.193044662475586 12.944271087646484 13.064645767211914 13.048595428466797 12.960320472717285 13.147570610046387 C12.411948204040527 13.671868324279785 11.887650489807129 14.006241798400879 11.810075759887695 13.88051700592041 C11.78065013885498 13.832366943359375 11.860899925231934 13.728042602539062 12.211323738098145 13.358894348144531 C12.403923034667969 13.155594825744629 12.569772720336914 12.973695755004883 12.580471992492676 12.952296257019043 C12.593847274780273 12.930895805358887 12.596522331237793 12.885421752929688 12.588497161865234 12.84797191619873 C12.572447776794434 12.786446571350098 12.559072494506836 12.783771514892578 12.385198593139648 12.783771514892578 C12.283549308776855 12.783771514892578 12.152473449707031 12.799821853637695 12.098974227905273 12.821221351623535 C12.042799949645996 12.839946746826172 11.92509937286377 12.880071640014648 11.836825370788574 12.904146194458008 C11.748551368713379 12.930895805358887 11.630850791931152 12.968345642089844 11.574676513671875 12.98707103729248 C11.518502235412598 13.00847053527832 11.36870288848877 13.024520874023438 11.22425365447998 13.024520874023438 C10.994203567504883 13.024520874023438 10.967453956604004 13.019170761108398 10.87115478515625 12.949621200561523 C10.659830093383789 12.799821853637695 10.552830696105957 12.770397186279297 10.218457221984863 12.770397186279297 C9.886758804321289 12.773072242736816 9.76370906829834 12.802496910095215 9.397235870361328 12.973695755004883 C9.180562019348145 13.075345039367676 8.878288269042969 13.358894348144531 8.720463752746582 13.607667922973633 C8.618814468383789 13.770842552185059 8.586713790893555 13.800267219543457 8.469015121459961 13.848417282104492 C8.01961612701416 14.0249662399292 7.746767520904541 14.075791358947754 7.329469203948975 14.062416076660156 C7.035220623016357 14.054391860961914 6.979045391082764 14.046366691589355 6.864021301269531 13.987516403198242 C6.773071765899658 13.939367294311523 6.716897010803223 13.888542175292969 6.679447174072266 13.816317558288574 C6.625946998596191 13.714668273925781 6.625946998596191 13.711993217468262 6.676772117614746 13.62104320526123 C6.799821376800537 13.39099407196045 7.225144863128662 13.185020446777344 7.578242778778076 13.185020446777344 C7.749443054199219 13.185020446777344 7.89121675491333 13.24654483795166 7.89121675491333 13.318769454956055 C7.89121675491333 13.428443908691406 7.671867370605469 13.546143531799316 7.361569404602051 13.59964370727539 C7.144895076751709 13.639768600463867 7.088720321655273 13.671868324279785 7.088720321655273 13.757467269897461 C7.088720321655273 13.845742225646973 7.2171196937561035 13.907266616821289 7.401694297790527 13.907266616821289 C7.677217960357666 13.90459156036377 8.217565536499023 13.778867721557617 8.297815322875977 13.698617935180664 C8.316539764404297 13.679893493652344 8.343290328979492 13.666518211364746 8.359339714050293 13.666518211364746 C8.39411449432373 13.666518211364746 8.61346435546875 13.439144134521484 8.661613464355469 13.353544235229492 C8.744538307189941 13.201069831848145 8.658939361572266 13.01382064819336 8.450289726257324 12.882746696472168 C8.188140869140625 12.722247123718262 7.653142929077148 12.658047676086426 7.289344310760498 12.746321678161621 L7.289344310760498 12.746321678161621 M15.300935745239258 13.259920120239258 C15.357110023498535 13.305395126342773 15.359786033630371 13.313419342041016 15.319661140441895 13.38831901550293 C15.258136749267578 13.50334358215332 14.99331283569336 13.73874282836914 14.798038482666016 13.848417282104492 C14.58938980102539 13.966116905212402 14.284440040588379 14.00089168548584 14.164066314697266 13.923316955566406 C14.008916854858398 13.821667671203613 14.148015975952148 13.586268424987793 14.458314895629883 13.431118965148926 C14.677663803100586 13.321444511413574 14.7686128616333 13.289344787597656 14.961212158203125 13.2518949508667 C15.196611404418945 13.203744888305664 15.234061241149902 13.206419944763184 15.300935745239258 13.259920120239258 L15.300935745239258 13.259920120239258 M10.338831901550293 13.292019844055176 C10.370931625366211 13.329469680786133 10.37895679473877 13.36424446105957 10.365581512451172 13.417743682861328 C10.346856117248535 13.495319366455078 10.103433609008789 13.7467679977417 10.047258377075195 13.7467679977417 C10.028532981872559 13.7467679977417 10.00178337097168 13.76014232635498 9.985733032226562 13.776192665100098 C9.932232856750488 13.829692840576172 9.678109169006348 13.907266616821289 9.560409545898438 13.907266616821289 C9.27151107788086 13.907266616821289 9.300936698913574 13.669193267822266 9.616584777832031 13.436469078063965 C9.865358352661133 13.24921989440918 10.23450756072998 13.176995277404785 10.338831901550293 13.292019844055176 L10.338831901550293 13.292019844055176 M18.12037467956543 13.9794921875 C18.064199447631836 14.065091133117676 17.973251342773438 14.196166038513184 17.91707420349121 14.271065711975098 C17.86090087890625 14.345965385437012 17.815425872802734 14.420865058898926 17.815425872802734 14.436914443969727 C17.815425872802734 14.485065460205078 18.04279899597168 14.477039337158203 18.082923889160156 14.428890228271484 C18.12572479248047 14.37806510925293 18.25412368774414 14.37806510925293 18.296924591064453 14.428890228271484 C18.334373474121094 14.47169017791748 18.551048278808594 14.485065460205078 18.575122833251953 14.444940567016602 C18.583147048950195 14.431565284729004 18.572446823120117 14.297815322875977 18.551048278808594 14.145340919494629 C18.529647827148438 13.992866516113281 18.510923385620117 13.85911750793457 18.510923385620117 13.845742225646973 C18.510923385620117 13.835042953491211 18.44672203063965 13.827017784118652 18.366472244262695 13.827017784118652 L18.22202491760254 13.827017784118652 L18.12037467956543 13.9794921875 M18.80249786376953 13.942042350769043 C18.73562240600586 14.11591625213623 18.67142105102539 14.345965385437012 18.67142105102539 14.410164833068848 C18.67142105102539 14.466339111328125 18.684797286987305 14.469015121459961 18.885421752929688 14.469015121459961 C19.185020446777344 14.469015121459961 19.324119567871094 14.394115447998047 19.409717559814453 14.177440643310547 C19.500667572021484 13.947391510009766 19.377620697021484 13.827017784118652 19.045921325683594 13.827017784118652 L18.84529685974121 13.827017784118652 L18.80249786376953 13.942042350769043 M19.14756965637207 14.123941421508789 C19.15291976928711 14.174766540527344 19.136871337890625 14.206865310668945 19.09139633178711 14.23629093170166 C19.01382064819336 14.287115097045898 18.992420196533203 14.273740768432617 18.992420196533203 14.174766540527344 C18.992420196533203 14.038341522216797 19.131519317626953 13.990192413330078 19.14756965637207 14.123941421508789 L19.14756965637207 14.123941421508789 M19.706642150878906 13.896567344665527 C19.602317810058594 13.966116905212402 19.500667572021484 14.148015975952148 19.500667572021484 14.265715599060059 C19.500667572021484 14.300490379333496 19.524744033813477 14.35934066772461 19.556842803955078 14.39946460723877 C19.60499382019043 14.458314895629883 19.631744384765625 14.469015121459961 19.760143280029297 14.469015121459961 C20.01694107055664 14.469015121459961 20.206867218017578 14.297815322875977 20.206867218017578 14.062416076660156 C20.206867218017578 13.88051700592041 20.15069007873535 13.827017784118652 19.958091735839844 13.827017784118652 C19.84039306640625 13.827017784118652 19.784217834472656 13.843067169189453 19.706642150878906 13.896567344665527 L19.706642150878906 13.896567344665527 M19.95006561279297 14.099865913391113 C19.960765838623047 14.188140869140625 19.872493743896484 14.297815322875977 19.808292388916016 14.273740768432617 C19.717342376708984 14.23629093170166 19.818992614746094 13.992866516113281 19.91529083251953 14.02229118347168 C19.928667068481445 14.027641296386719 19.94471549987793 14.062416076660156 19.95006561279297 14.099865913391113 M20.329914093017578 13.90459156036377 C20.28711700439453 14.006241798400879 20.311189651489258 14.041016578674316 20.42621421813965 14.041016578674316 C20.477039337158203 14.041016578674316 20.51716423034668 14.054391860961914 20.51716423034668 14.073116302490234 C20.51716423034668 14.089166641235352 20.44493865966797 14.172090530395508 20.356664657592773 14.26036548614502 C20.268390655517578 14.345965385437012 20.1961669921875 14.428890228271484 20.1961669921875 14.442264556884766 C20.1961669921875 14.458314895629883 20.252338409423828 14.469015121459961 20.3192138671875 14.469015121459961 C20.423540115356445 14.469015121459961 20.455638885498047 14.455639839172363 20.527864456176758 14.38074016571045 C20.57333755493164 14.332590103149414 20.69906234741211 14.201516151428223 20.806062698364258 14.089166641235352 C20.910388946533203 13.9794921875 20.998661041259766 13.875167846679688 20.998661041259766 13.85644245147705 C20.998661041259766 13.837717056274414 20.899688720703125 13.827017784118652 20.68033790588379 13.827017784118652 L20.362014770507812 13.827017784118652 L20.329914093017578 13.90459156036377" fill="black" fill-opacity="1.0" filling="0"/></svg>