<?xml version="1.0" encoding="iso-8859-1"?><svg height="200px" viewBox="0.0 0.0 24.0 24.0" width="200px" xmlns="http://www.w3.org/2000/svg"><path animation_id="0" d="M0.0 0.0 L24.0 0.0 L24.0 24.0 L0.0 24.0 L0.0 0.0" fill="black" fill-opacity="1.0" filling="0"/>
<path animation_id="1" d="M21.171512603759766 17.3956298828125 C21.585384368896484 17.3956298828125 21.82904815673828 17.103282928466797 21.902259826660156 16.71368980407715 L23.436717987060547 7.115856647491455 C23.436717987060547 6.823507785797119 23.217580795288086 6.6043701171875 22.925357818603516 6.6043701171875 L2.8042078018188477 6.6043701171875 C2.438772201538086 6.6043701171875 2.146547317504883 6.82363224029541 2.0978641510009766 7.189067840576172 L0.5631580352783203 16.884143829345703 C0.5631580352783203 17.17649269104004 0.7824192047119141 17.395505905151367 1.0746431350708008 17.395505905151367 L21.171512603759766 17.395505905151367 L21.171512603759766 17.3956298828125" fill="black" fill-opacity="1.0" filling="0"/>
<path animation_id="2" d="M9.405714988708496 7.676150321960449 L8.918508529663086 10.696757316589355 L5.581274032592773 10.696757316589355 L6.092884540557861 7.676150321960449 L3.535080909729004 7.676150321960449 L2.0491809844970703 16.396812438964844 L4.606860637664795 16.396812438964844 L5.215837478637695 12.840564727783203 L8.553196907043457 12.840564727783203 L7.944095611572266 16.396812438964844 L10.477495193481445 16.396812438964844 L11.963394165039062 7.676150321960449 L9.405714988708496 7.676150321960449 L9.405714988708496 7.676150321960449 M18.077693939208984 7.676150321960449 L13.2057523727417 7.676150321960449 L12.86484432220459 9.698063850402832 L17.663576126098633 9.698063850402832 C18.540496826171875 9.698063850402832 18.906057357788086 9.941604614257812 18.711200714111328 11.062192916870117 L18.41884994506836 12.88924789428711 C18.24814796447754 13.814854621887207 17.80962371826172 14.37514877319336 16.859865188598633 14.37514877319336 L14.642969131469727 14.37514877319336 L15.251945495605469 10.696881294250488 L12.694391250610352 10.696881294250488 L11.744256973266602 16.39693832397461 L16.93282699584961 16.39693832397461 C19.588123321533203 16.39693832397461 20.635498046875 15.276598930358887 21.025339126586914 12.88924789428711 L21.34196662902832 11.062192916870117 C21.756084442138672 8.601755142211914 20.73311424255371 7.676150321960449 18.077693939208984 7.676150321960449 L18.077693939208984 7.676150321960449" fill="black" fill-opacity="1.0" filling="0"/></svg>