<?xml version="1.0" encoding="iso-8859-1"?><svg height="200px" viewBox="0.0 0.0 24.0 24.0" width="200px" xmlns="http://www.w3.org/2000/svg"><path animation_id="0" d="M0.0 0.0 L24.0 0.0 L24.0 24.0 L0.0 24.0 L0.0 0.0" fill="black" fill-opacity="1.0" filling="0"/>
<path animation_id="1" d="M9.198406219482422 6.865467071533203 C9.144866943359375 6.5040154457092285 9.117973327636719 6.088900089263916 9.117973327636719 5.693954944610596 C9.292037963867188 5.325779438018799 9.586627960205078 6.256241321563721 10.075203895568848 6.256241321563721 C10.075203895568848 6.283010959625244 10.262716293334961 5.640291213989258 10.416609764099121 5.546660423278809 C10.470149040222168 5.660462379455566 10.630765914916992 6.597646713256836 11.025835990905762 6.477121353149414 C11.260163307189941 6.403536319732666 11.340472221374512 5.124945640563965 11.53458309173584 5.720724582672119 C11.708647727966309 5.9884209632873535 11.681877136230469 6.550831317901611 12.143684387207031 6.550831317901611 C12.270809173583984 6.283010959625244 12.759634017944336 5.647139549255371 13.074395179748535 5.526614189147949 C13.04737663269043 5.526614189147949 13.295150756835938 6.376766681671143 13.295150756835938 6.524061679840088 C14.071593284606934 6.524061679840088 14.634127616882324 5.325779438018799 15.390400886535645 5.158438682556152 C15.390400886535645 5.667185306549072 15.243230819702148 6.209425449371338 15.243230819702148 6.698126316070557 C15.53769588470459 7.287181854248047 16.30081558227539 6.664633274078369 16.82973289489746 6.651310443878174 C17.097427368164062 6.945775985717773 16.34090805053711 7.709021091461182 16.073211669921875 8.164228439331055 C16.146923065185547 8.190998077392578 16.293968200683594 8.532403945922852 16.856502532958984 8.70646858215332 C16.82973289489746 8.927348136901855 16.05303955078125 9.148228645324707 15.832160949707031 9.148228645324707 C15.832160949707031 9.496357917785645 16.7224063873291 10.071966171264648 16.956857681274414 10.420096397399902 L16.929840087890625 10.44686508178711 C16.829608917236328 10.714686393737793 15.463985443115234 10.319741249084473 15.58426284790039 10.714686393737793 C15.510801315307617 11.05609130859375 16.494678497314453 11.276971817016602 16.628774642944336 11.504575729370117 C15.530847549438477 11.504575729370117 15.832160949707031 12.113801956176758 16.120027542114258 12.455207824707031 C16.15339469909668 12.495424270629883 16.9030704498291 13.553009986877441 16.5417423248291 13.506194114685059 C16.22050666809082 13.506194114685059 15.785221099853516 13.211605072021484 15.390275955200195 13.211605072021484 C15.390275955200195 13.211605072021484 15.34333610534668 13.258544921875 15.316566467285156 13.258544921875 C15.323413848876953 13.820830345153809 15.497479438781738 14.811554908752441 15.34333610534668 14.952250480651855 C15.015501976013184 15.11959171295166 14.707464218139648 13.921309471130371 14.707464218139648 14.068604469299316 L14.660773277282715 14.068604469299316 C14.218888282775879 13.88109302520752 13.837390899658203 15.45427417755127 13.562846183776855 15.414182662963867 L13.51590633392334 15.414182662963867 C13.342090606689453 15.146486282348633 13.295150756835938 14.610845565795898 13.147730827331543 14.262716293334961 C13.147730827331543 14.242670059204102 12.853265762329102 13.700429916381836 12.732864379882812 13.774015426635742 C12.465167999267578 13.947955131530762 12.290979385375977 14.905434608459473 11.90275764465332 14.905434608459473 C11.829172134399414 14.630891799926758 11.755463600158691 14.262716293334961 11.635062217712402 14.0216646194458 C11.293656349182129 14.0216646194458 10.905434608459473 14.242545127868652 10.563904762268066 14.36307144165039 C10.470149040222168 14.389840126037598 10.470149040222168 13.633443832397461 10.470149040222168 13.532964706420898 C10.470149040222168 13.613397598266602 10.36307144165039 13.251821517944336 10.349623680114746 13.238373756408691 C9.834153175354004 13.238373756408691 9.117849349975586 14.389840126037598 8.609101295471191 14.389840126037598 C8.609101295471191 14.095375061035156 8.903692245483398 13.405839920043945 8.903692245483398 13.138018608093262 C8.635995864868164 13.138018608093262 7.330511093139648 13.693582534790039 7.377451419830322 13.325407028198242 C7.430990695953369 13.325407028198242 8.220880508422852 12.455207824707031 8.24105167388916 12.16061782836914 C8.247774124145508 12.127124786376953 8.361576080322266 12.033493995666504 8.388346672058105 12.033493995666504 C8.000123977661133 11.83938217163086 7.538193225860596 11.979954719543457 7.732304573059082 11.638547897338867 C8.401668548583984 11.497977256774902 7.926414966583252 11.61177921295166 8.508747100830078 11.350682258605957 C8.167341232299805 11.176617622375488 6.94228982925415 10.58756160736084 7.21683406829834 10.440266609191895 L8.482101440429688 10.319741249084473 C8.897092819213867 10.366557121276855 8.535640716552734 10.152400016784668 8.267820358276367 9.931519508361816 C8.127249717712402 9.87798023223877 7.149847507476807 9.442818641662598 7.2035112380981445 9.369234085083008 C7.324037075042725 9.174999237060547 8.120650291442871 9.295523643493652 8.361576080322266 9.241984367370605 C8.361576080322266 8.853763580322266 7.5782856941223145 8.847040176391602 7.5782856941223145 8.505634307861328 C7.678765296936035 8.505634307861328 8.314760208129883 8.385108947753906 8.314760208129883 8.29147720336914 C8.488700866699219 8.29147720336914 7.685488700866699 7.6487579345703125 7.685488700866699 7.52835750579834 L8.341530799865723 7.52835750579834 C8.508871078491211 7.019610404968262 8.167465209960938 6.577724933624268 8.415115356445312 6.550955772399902 C8.602627754211426 6.738342761993408 9.198406219482422 6.631139755249023 9.198406219482422 6.865467071533203 L9.198406219482422 6.865467071533203" fill="black" fill-opacity="1.0" filling="0"/>
<path animation_id="2" d="M9.004295349121094 7.990163326263428 C8.944032669067383 9.221939086914062 8.984125137329102 10.88215160369873 9.258668899536133 12.073710441589355 C9.379195213317871 12.6292724609375 10.10209846496582 12.636120796203613 10.584199905395508 12.736351013183594 C11.280333518981934 12.897092819213867 12.418353080749512 13.024216651916504 13.134532928466797 12.96395492553711 C13.676773071289062 12.930460929870605 14.15887451171875 12.769719123840332 14.580464363098145 12.508871078491211 C14.881778717041016 12.361452102661133 14.961962699890137 11.350682258605957 14.96881103515625 10.66787052154541 C14.975409507751465 9.764178276062012 15.296894073486328 8.565896987915039 15.069290161132812 7.668804168701172 C15.009027481079102 7.227043628692627 13.181472778320312 7.434601306915283 12.371413230895996 7.474693775177002 L10.249393463134766 7.668804168701172 C9.499719619750977 7.735790729522705 9.084604263305664 7.588495254516602 9.004295349121094 7.990163326263428 L9.004295349121094 7.990163326263428" fill="black" fill-opacity="1.0" filling="0"/>
<path animation_id="3" d="M11.989914894104004 8.699745178222656 C11.64850902557373 8.860363006591797 12.083671569824219 9.188445091247559 12.083671569824219 9.335615158081055 C10.905434608459473 9.496357917785645 9.800909042358398 9.168275833129883 8.977401733398438 9.087965965270996 C8.495424270629883 9.168399810791016 8.776567459106445 9.623482704162598 9.024216651916504 9.777501106262207 C9.901140213012695 9.797548294067383 11.126191139221191 9.616759300231934 11.936250686645508 9.623482704162598 C12.096993446350098 9.924671173095703 12.043329238891602 10.125630378723145 12.264334678649902 10.76822566986084 C12.458444595336914 11.323787689208984 12.732989311218262 12.200834274291992 12.900205612182617 12.803337097167969 C12.933822631835938 12.910415649414062 12.993837356567383 12.843429565429688 12.987237930297852 12.790014266967773 C12.886758804321289 12.187512397766113 12.792878150939941 11.605055809020996 12.752786636352539 11.009275436401367 C12.739463806152344 10.949012756347656 12.799726486206055 10.888751029968262 12.84666633605957 10.995954513549805 C12.89335823059082 11.323911666870117 13.43559741973877 12.421838760375977 13.522754669189453 12.696258544921875 C13.562846183776855 12.749797821044922 13.609786987304688 12.729751586914062 13.596464157104492 12.68293571472168 C13.368860244750977 11.705534934997559 12.913653373718262 10.346634864807129 12.980514526367188 9.295523643493652 C13.756957054138184 8.733238220214844 14.238934516906738 8.686298370361328 15.035673141479492 7.822822570800781 C15.176243782043457 7.80277681350708 14.948639869689941 7.314075946807861 14.433294296264648 7.367615222930908 C14.04494857788086 7.775882720947266 13.141256332397461 9.074644088745117 12.391583442687988 9.181721687316895 C12.257610321044922 9.054472923278809 12.317997932434082 8.6260347366333 11.989914894104004 8.699745178222656 L11.989914894104004 8.699745178222656" fill="black" fill-opacity="1.0" filling="0"/>
<path animation_id="4" d="M10.02178955078125 12.502023696899414 C10.01506519317627 12.776567459106445 14.714437484741211 13.559733390808105 14.794745445251465 12.602502822875977 L15.12282943725586 8.78005313873291 C15.162920951843262 8.391708374023438 15.10265827178955 7.795928478240967 14.921995162963867 7.655357360839844 C13.348814010620117 6.912282943725586 9.144991874694824 7.501463413238525 9.051236152648926 7.882960796356201 C8.90394115447998 9.128183364868164 9.780862808227539 9.657099723815918 10.02178955078125 12.502023696899414 M8.810185432434082 7.588495254516602 C8.56253433227539 9.208492279052734 9.492996215820312 11.089709281921387 9.720600128173828 12.743074417114258 C9.794310569763184 13.084480285644531 14.96208667755127 14.04183578491211 15.062566757202148 12.850152969360352 L15.424142837524414 8.6260347366333 C15.491004943847656 7.882960796356201 15.470833778381348 7.595094680786133 15.203137397766113 7.387660980224609 C13.402353286743164 6.530785083770752 11.267010688781738 7.093070983886719 9.299010276794434 7.367615222930908 C8.923986434936523 7.300628662109375 8.923986434936523 7.494739532470703 8.810185432434082 7.588495254516602 L8.810185432434082 7.588495254516602 M2.0556564331054688 16.699371337890625 C2.0556564331054688 16.766357421875 2.0689783096313477 16.813173294067383 2.0958728790283203 16.846790313720703 C2.1293649673461914 16.886882781982422 2.1694583892822266 16.913652420043945 2.216398239135742 16.913652420043945 C2.2498912811279297 16.913652420043945 2.2766599655151367 16.90032958984375 2.283384323120117 16.893606185913086 C2.2901077270507812 16.880285263061523 2.3034305572509766 16.853389739990234 2.3034305572509766 16.819896697998047 L2.3034305572509766 16.47861671447754 C2.3034305572509766 16.438398361206055 2.2901077270507812 16.418352127075195 2.283384323120117 16.404905319213867 C2.2766599655151367 16.38486099243164 2.2566146850585938 16.378135681152344 2.2231216430664062 16.378135681152344 C2.1763057708740234 16.378135681152344 2.1293649673461914 16.398181915283203 2.1025962829589844 16.438274383544922 C2.069103240966797 16.478490829467773 2.0557804107666016 16.525306701660156 2.0557804107666016 16.59229278564453 L2.0557804107666016 16.699371337890625 L2.0556564331054688 16.699371337890625 L2.0556564331054688 16.699371337890625 M1.7745132446289062 16.933700561523438 L1.7745132446289062 16.893606185913086 L1.8548221588134766 16.893606185913086 L1.8548221588134766 16.003236770629883 L1.7745132446289062 16.003236770629883 L1.7745132446289062 15.956422805786133 C1.8213281631469727 15.956422805786133 1.8615446090698242 15.949699401855469 1.9083614349365234 15.949699401855469 C1.9551773071289062 15.949699401855469 2.0019922256469727 15.942975997924805 2.0556564331054688 15.942975997924805 L2.0556564331054688 16.45172119140625 C2.0757017135620117 16.404905319213867 2.1091957092285156 16.378135681152344 2.1426877975463867 16.36481475830078 C2.1694583892822266 16.344642639160156 2.209549903869629 16.331195831298828 2.256490707397461 16.331195831298828 C2.336798667907715 16.331195831298828 2.397061347961426 16.36481475830078 2.4573240280151367 16.418228149414062 C2.5041399002075195 16.478490829467773 2.5376338958740234 16.55207633972168 2.5376338958740234 16.639108657836914 C2.5376338958740234 16.732864379882812 2.5041399002075195 16.80644989013672 2.4573240280151367 16.859989166259766 C2.397061347961426 16.926849365234375 2.336798667907715 16.940298080444336 2.256490707397461 16.940298080444336 A0.485588014125824 0.485588014125824 0.0 0 1 2.1426877975463867 16.92697525024414 C2.1091957092285156 16.913652420043945 2.0757017135620117 16.880159378051758 2.0556564331054688 16.84666633605957 L2.0556564331054688 16.933574676513672 L1.7745132446289062 16.933574676513672 L1.7745132446289062 16.933700561523438 M3.7894535064697266 16.933700561523438 L3.7894535064697266 16.893606185913086 L3.869887351989746 16.893606185913086 L3.869887351989746 16.404905319213867 L3.7894535064697266 16.404905319213867 L3.7894535064697266 16.358091354370117 C3.8296709060668945 16.358091354370117 3.883209228515625 16.351367950439453 3.930026054382324 16.344642639160156 C3.976841926574707 16.344642639160156 4.03050422668457 16.344642639160156 4.070597171783447 16.33131980895996 L4.070597171783447 16.492061614990234 C4.097366809844971 16.44512176513672 4.11741304397583 16.405031204223633 4.150906085968018 16.371538162231445 C4.184398651123047 16.344642639160156 4.217892169952393 16.33131980895996 4.257984638214111 16.33131980895996 C4.284753799438477 16.33131980895996 4.318246841430664 16.344642639160156 4.35174036026001 16.371538162231445 C4.371786117553711 16.391582489013672 4.378509998321533 16.418352127075195 4.378509998321533 16.458446502685547 C4.378509998321533 16.485214233398438 4.378509998321533 16.512109756469727 4.35174036026001 16.532154083251953 C4.338418006896973 16.558923721313477 4.304924488067627 16.56564712524414 4.2780303955078125 16.56564712524414 C4.257984638214111 16.56564712524414 4.231215000152588 16.558923721313477 4.21116828918457 16.53887939453125 C4.191122531890869 16.51883316040039 4.184398651123047 16.492061614990234 4.184398651123047 16.471893310546875 C4.184398651123047 16.458568572998047 4.184398651123047 16.44512176513672 4.191122531890869 16.438398361206055 C4.197721481323242 16.418352127075195 4.197721481323242 16.418352127075195 4.197721481323242 16.41162872314453 L4.197721481323242 16.404905319213867 L4.191122531890869 16.404905319213867 C4.164352893829346 16.404905319213867 4.150906085968018 16.42495346069336 4.11741304397583 16.47861671447754 A0.3050488829612732 0.3050488829612732 0.0 0 0 4.07719612121582 16.625911712646484 L4.07719612121582 16.893606185913086 L4.184274196624756 16.893606185913086 L4.184274196624756 16.933700561523438 L3.7894535064697266 16.933700561523438 L3.7894535064697266 16.933700561523438 M5.690718173980713 16.09686851501465 C5.690718173980713 16.070098876953125 5.697441101074219 16.03672981262207 5.717487335205078 16.030006408691406 C5.7375335693359375 16.00311279296875 5.764303207397461 15.996513366699219 5.797921180725098 15.996513366699219 C5.817966938018799 15.996513366699219 5.851459980010986 16.00311279296875 5.864907264709473 16.030006408691406 C5.884953022003174 16.03672981262207 5.89840030670166 16.070098876953125 5.89840030670166 16.09686851501465 C5.89840030670166 16.13048553466797 5.884953022003174 16.150531768798828 5.864907264709473 16.170578002929688 A0.10770092904567719 0.10770092904567719 0.0 0 1 5.791321754455566 16.204072952270508 C5.764552116394043 16.204072952270508 5.7376580238342285 16.19074821472168 5.717612266540527 16.170578002929688 C5.69756555557251 16.150409698486328 5.690718173980713 16.13048553466797 5.690718173980713 16.09686851501465 M5.596961975097656 16.933700561523438 L5.596961975097656 16.893606185913086 L5.690718173980713 16.893606185913086 L5.690718173980713 16.404905319213867 L5.596961975097656 16.404905319213867 L5.596961975097656 16.358091354370117 C5.643777847290039 16.358091354370117 5.70404052734375 16.351367950439453 5.750980377197266 16.344642639160156 C5.8045196533203125 16.344642639160156 5.851459980010986 16.344642639160156 5.898275852203369 16.33131980895996 L5.898275852203369 16.89373207092285 L5.991907119750977 16.89373207092285 L5.991907119750977 16.933822631835938 L5.596961975097656 16.933822631835938 L5.596961975097656 16.933700561523438 L5.596961975097656 16.933700561523438 M7.611903190612793 16.85326385498047 A0.17306853830814362 0.17306853830814362 0.0 0 1 7.5181474685668945 16.92697525024414 A0.614331066608429 0.614331066608429 0.0 0 1 7.3910231590271 16.940298080444336 C7.35080623626709 16.940298080444336 7.303990364074707 16.933574676513672 7.277220726013184 16.920251846313477 C7.257174968719482 16.893482208251953 7.237128734588623 16.85326385498047 7.237128734588623 16.813173294067383 C7.237128734588623 16.74631118774414 7.270622253417969 16.699371337890625 7.337483882904053 16.659278869628906 C7.404345512390137 16.61918830871582 7.498225688934326 16.599140167236328 7.612028121948242 16.599140167236328 L7.612028121948242 16.45172119140625 C7.612028121948242 16.418228149414062 7.60530424118042 16.391582489013672 7.591856956481934 16.38486099243164 C7.5851335525512695 16.371538162231445 7.551640510559082 16.371538162231445 7.5182719230651855 16.371538162231445 L7.458009243011475 16.371538162231445 C7.4446868896484375 16.37826156616211 7.4446868896484375 16.38486099243164 7.4446868896484375 16.405031204223633 C7.4446868896484375 16.405031204223633 7.4446868896484375 16.411754608154297 7.451410293579102 16.431800842285156 C7.458134174346924 16.451845169067383 7.464732646942139 16.465293884277344 7.464732646942139 16.478740692138672 C7.464732646942139 16.505508422851562 7.458009243011475 16.53227996826172 7.437963008880615 16.545602798461914 A0.13559110462665558 0.13559110462665558 0.0 0 1 7.364377975463867 16.56564712524414 C7.3308844566345215 16.56564712524414 7.31083869934082 16.558923721313477 7.297391891479492 16.545602798461914 A0.1022224947810173 0.1022224947810173 0.0 0 1 7.270622253417969 16.478740692138672 C7.270622253417969 16.431800842285156 7.297391891479492 16.391706466674805 7.350931167602539 16.371662139892578 C7.391147613525391 16.34476661682129 7.464732646942139 16.331445693969727 7.551764965057373 16.331445693969727 C7.591981410980225 16.331445693969727 7.632198333740234 16.338293075561523 7.66569185256958 16.34476661682129 C7.699184417724609 16.34476661682129 7.719230651855469 16.35821533203125 7.739276885986328 16.36493682861328 C7.759322643280029 16.371662139892578 7.779368877410889 16.38498306274414 7.792816162109375 16.405031204223633 C7.799539089202881 16.418352127075195 7.806262969970703 16.451845169067383 7.806262969970703 16.4987850189209 L7.806262969970703 16.813297271728516 C7.806262969970703 16.826622009277344 7.806262969970703 16.840068817138672 7.812986373901367 16.84691619873047 C7.8197102546691895 16.853513717651367 7.8264336585998535 16.86023712158203 7.846479892730713 16.86023712158203 C7.853203296661377 16.86023712158203 7.85980224609375 16.86023712158203 7.866525650024414 16.853389739990234 C7.873249530792236 16.846790313720703 7.879848003387451 16.846790313720703 7.886571884155273 16.846790313720703 L7.8932952880859375 16.846790313720703 C7.8932952880859375 16.853389739990234 7.90001916885376 16.86011505126953 7.90001916885376 16.86011505126953 C7.90001916885376 16.880159378051758 7.8866963386535645 16.900205612182617 7.853203296661377 16.92697525024414 C7.8197102546691895 16.933700561523438 7.792940616607666 16.940298080444336 7.75944709777832 16.940298080444336 C7.725954055786133 16.940298080444336 7.699184417724609 16.933574676513672 7.672414779663086 16.92697525024414 C7.6453962326049805 16.913652420043945 7.631949424743652 16.886882781982422 7.611903190612793 16.85326385498047 M7.611903190612793 16.639232635498047 L7.591732501983643 16.639232635498047 C7.538193225860596 16.639232635498047 7.491377830505371 16.645957946777344 7.477930545806885 16.66600227355957 C7.4511613845825195 16.686050415039062 7.437714099884033 16.712818145751953 7.437714099884033 16.75975799560547 C7.437714099884033 16.80657386779785 7.4444379806518555 16.833345413208008 7.457760334014893 16.853389739990234 C7.471083164215088 16.87356185913086 7.484529972076416 16.880285263061523 7.5180230140686035 16.880285263061523 C7.544792652130127 16.880285263061523 7.57156229019165 16.87356185913086 7.5850090980529785 16.846790313720703 C7.598456382751465 16.826622009277344 7.611778736114502 16.799850463867188 7.611778736114502 16.766357421875 L7.611778736114502 16.639232635498047 L7.611903190612793 16.639232635498047 L7.611903190612793 16.639232635498047 M9.104775428771973 16.893606185913086 L9.198530197143555 16.893606185913086 L9.198530197143555 16.404905319213867 L9.091452598571777 16.404905319213867 L9.091452598571777 16.358091354370117 C9.138267517089844 16.358091354370117 9.198530197143555 16.358091354370117 9.252069473266602 16.351367950439453 C9.299010276794434 16.344518661499023 9.359148025512695 16.344518661499023 9.406088829040527 16.331195831298828 L9.406088829040527 16.485088348388672 C9.43285846710205 16.438274383544922 9.473074913024902 16.39145851135254 9.50656795501709 16.37141227722168 C9.546785354614258 16.344518661499023 9.58687686920166 16.331195831298828 9.647140502929688 16.331195831298828 C9.707401275634766 16.331195831298828 9.754218101501465 16.344518661499023 9.780987739562988 16.37141227722168 C9.801158905029297 16.404905319213867 9.81447982788086 16.465044021606445 9.81447982788086 16.55207633972168 L9.81447982788086 16.893482208251953 L9.90151309967041 16.893482208251953 L9.90151309967041 16.933574676513672 L9.540061950683594 16.933574676513672 L9.540061950683594 16.893482208251953 L9.613770484924316 16.893482208251953 L9.613770484924316 16.478490829467773 C9.613770484924316 16.451597213745117 9.613770484924316 16.431550979614258 9.600324630737305 16.418228149414062 C9.59360122680664 16.404905319213867 9.580278396606445 16.404905319213867 9.553507804870605 16.404905319213867 C9.520014762878418 16.404905319213867 9.479798316955566 16.42495346069336 9.459752082824707 16.47176742553711 C9.42625904083252 16.51198387145996 9.40621280670166 16.56552505493164 9.40621280670166 16.61233901977539 L9.40621280670166 16.893606185913086 L9.473199844360352 16.893606185913086 L9.473199844360352 16.933700561523438 L9.105024337768555 16.933700561523438 L9.105024337768555 16.893606185913086 L9.104775428771973 16.893606185913086 L9.104775428771973 16.893606185913086 M13.522878646850586 16.893606185913086 L13.603187561035156 16.893606185913086 L13.603187561035156 16.003236770629883 L13.50955581665039 16.003236770629883 L13.50955581665039 15.956422805786133 C13.563095092773438 15.956422805786133 13.616510391235352 15.949699401855469 13.67029857635498 15.949699401855469 C13.716989517211914 15.949699401855469 13.770777702331543 15.942975997924805 13.810869216918945 15.942975997924805 L13.810869216918945 16.893606185913086 L13.904501914978027 16.893606185913086 L13.904501914978027 16.933700561523438 L13.523003578186035 16.933700561523438 L13.523003578186035 16.893606185913086 L13.522878646850586 16.893606185913086 L13.522878646850586 16.893606185913086 M15.203137397766113 16.09686851501465 C15.203137397766113 16.070098876953125 15.21670913696289 16.03672981262207 15.230155944824219 16.030006408691406 C15.250078201293945 16.00311279296875 15.276847839355469 15.996513366699219 15.310465812683105 15.996513366699219 C15.343833923339844 15.996513366699219 15.364005088806152 16.00311279296875 15.384174346923828 16.030006408691406 C15.404096603393555 16.03672981262207 15.417543411254883 16.070098876953125 15.417543411254883 16.09686851501465 C15.417543411254883 16.13048553466797 15.404221534729004 16.150531768798828 15.384174346923828 16.170578002929688 C15.357405662536621 16.190624237060547 15.343833923339844 16.204072952270508 15.310465812683105 16.204072952270508 A0.11019112169742584 0.11019112169742584 0.0 0 1 15.230155944824219 16.170578002929688 C15.21670913696289 16.150531768798828 15.203137397766113 16.13048553466797 15.203137397766113 16.09686851501465 M15.109506607055664 16.933700561523438 L15.109506607055664 16.893606185913086 L15.203137397766113 16.893606185913086 L15.203137397766113 16.404905319213867 L15.109506607055664 16.404905319213867 L15.109506607055664 16.358091354370117 C15.163045883178711 16.358091354370117 15.21670913696289 16.351367950439453 15.263400077819824 16.344642639160156 C15.316939353942871 16.344642639160156 15.363879203796387 16.344642639160156 15.4172945022583 16.33131980895996 L15.4172945022583 16.89373207092285 L15.511175155639648 16.89373207092285 L15.511175155639648 16.933822631835938 L15.109506607055664 16.933822631835938 L15.109506607055664 16.933700561523438 L15.109506607055664 16.933700561523438 M16.802963256835938 16.813173294067383 L16.802963256835938 16.404905319213867 L16.71617889404297 16.404905319213867 L16.71617889404297 16.358091354370117 L16.802963256835938 16.358091354370117 L16.802963256835938 16.163856506347656 C16.802963256835938 16.170578002929688 16.8165340423584 16.170578002929688 16.83658218383789 16.17717742919922 L16.94365882873535 16.17717742919922 C16.963829040527344 16.170454025268555 16.98400115966797 16.163856506347656 17.003921508789062 16.163856506347656 L17.003921508789062 16.358091354370117 L17.117725372314453 16.358091354370117 L17.117725372314453 16.404905319213867 L17.003921508789062 16.404905319213867 L17.003921508789062 16.86011505126953 C17.01076889038086 16.866836547851562 17.024093627929688 16.873435974121094 17.04426383972168 16.873435974121094 C17.071033477783203 16.873435974121094 17.084354400634766 16.86011505126953 17.097803115844727 16.84666633605957 C17.104400634765625 16.833219528198242 17.11112403869629 16.81304931640625 17.117725372314453 16.79300308227539 L17.151342391967773 16.79300308227539 C17.151342391967773 16.83981704711914 17.12457275390625 16.880035400390625 17.091079711914062 16.913528442382812 C17.057708740234375 16.933574676513672 17.004045486450195 16.940298080444336 16.94365882873535 16.940298080444336 C16.890121459960938 16.940298080444336 16.850027084350586 16.933574676513672 16.830106735229492 16.92697525024414 C16.809810638427734 16.913652420043945 16.802963256835938 16.866836547851562 16.802963256835938 16.813173294067383 L16.802963256835938 16.813173294067383 M18.47002410888672 16.813173294067383 L18.47002410888672 16.404905319213867 L18.382991790771484 16.404905319213867 L18.382991790771484 16.358091354370117 L18.47002410888672 16.358091354370117 L18.47002410888672 16.163856506347656 C18.47662353515625 16.170578002929688 18.489946365356445 16.170578002929688 18.503643035888672 16.17717742919922 L18.61719512939453 16.17717742919922 C18.637367248535156 16.170454025268555 18.650814056396484 16.163856506347656 18.664134979248047 16.163856506347656 L18.664134979248047 16.358091354370117 L18.7847843170166 16.358091354370117 L18.7847843170166 16.404905319213867 L18.66400909423828 16.404905319213867 L18.66400909423828 16.813173294067383 C18.66400909423828 16.826496124267578 18.67085838317871 16.846790313720703 18.67733383178711 16.86011505126953 C18.67733383178711 16.866836547851562 18.6975040435791 16.873435974121094 18.710948944091797 16.873435974121094 C18.737720489501953 16.873435974121094 18.75104331970215 16.86011505126953 18.764490127563477 16.84666633605957 C18.771337509155273 16.833219528198242 18.777812957763672 16.81304931640625 18.78466033935547 16.79300308227539 L18.81802749633789 16.79300308227539 C18.81802749633789 16.83981704711914 18.791259765625 16.880035400390625 18.758014678955078 16.913528442382812 C18.724397659301758 16.933574676513672 18.670982360839844 16.940298080444336 18.61719512939453 16.940298080444336 C18.55718231201172 16.940298080444336 18.523563385009766 16.933574676513672 18.496795654296875 16.92697525024414 C18.47662353515625 16.913652420043945 18.47002410888672 16.866836547851562 18.47002410888672 16.813173294067383 L18.47002410888672 16.813173294067383 M20.02975845336914 16.893606185913086 L20.110069274902344 16.893606185913086 L20.110069274902344 16.003236770629883 L20.016433715820312 16.003236770629883 L20.016433715820312 15.956422805786133 C20.069974899291992 15.956422805786133 20.123390197753906 15.949699401855469 20.17692756652832 15.949699401855469 C20.22386932373047 15.949699401855469 20.277408599853516 15.942975997924805 20.32434844970703 15.942975997924805 L20.32434844970703 16.893606185913086 L20.417980194091797 16.893606185913086 L20.417980194091797 16.933700561523438 L20.029882431030273 16.933700561523438 L20.029882431030273 16.893606185913086 L20.02975845336914 16.893606185913086 L20.02975845336914 16.893606185913086 M21.897403717041016 16.56552505493164 L22.084915161132812 16.56552505493164 L22.084915161132812 16.458446502685547 C22.084915161132812 16.42495346069336 22.078067779541016 16.404905319213867 22.06474494934082 16.38486099243164 C22.051422119140625 16.371538162231445 22.018054962158203 16.371538162231445 21.98443603515625 16.371538162231445 C21.957666397094727 16.371538162231445 21.937496185302734 16.371538162231445 21.924175262451172 16.38486099243164 C21.904003143310547 16.404905319213867 21.897403717041016 16.42495346069336 21.897403717041016 16.458446502685547 L21.897403717041016 16.56552505493164 L21.897403717041016 16.56552505493164 M22.258731842041016 16.739587783813477 L22.299072265625 16.752910614013672 C22.27205467224121 16.819772720336914 22.231962203979492 16.873435974121094 22.19186782836914 16.90680503845215 C22.138330459594727 16.933574676513672 22.078067779541016 16.940298080444336 22.004356384277344 16.940298080444336 C21.897403717041016 16.940298080444336 21.817096710205078 16.92697525024414 21.756832122802734 16.873435974121094 C21.689971923828125 16.813173294067383 21.662952423095703 16.739587783813477 21.662952423095703 16.652555465698242 C21.662952423095703 16.558799743652344 21.689971923828125 16.47861671447754 21.756832122802734 16.418228149414062 C21.817096710205078 16.364688873291016 21.897403717041016 16.331195831298828 21.997882843017578 16.331195831298828 C22.084915161132812 16.331195831298828 22.158626556396484 16.358091354370117 22.2053165435791 16.404905319213867 C22.25885772705078 16.45172119140625 22.285751342773438 16.518707275390625 22.285751342773438 16.60573959350586 L22.285751342773438 16.61233901977539 L21.897403717041016 16.61233901977539 L21.897403717041016 16.766357421875 C21.897403717041016 16.826496124267578 21.904003143310547 16.866836547851562 21.924175262451172 16.886882781982422 C21.94434356689453 16.913652420043945 21.97771453857422 16.92037582397461 22.018054962158203 16.92037582397461 C22.078067779541016 16.92037582397461 22.12500762939453 16.907054901123047 22.165225982666016 16.880285263061523 C22.2053165435791 16.846790313720703 22.232086181640625 16.799850463867188 22.258731842041016 16.739587783813477 L22.258731842041016 16.739587783813477 M2.631389617919922 18.6541748046875 L2.658158302307129 18.667495727539062 C2.6381120681762695 18.72763442993164 2.611342430114746 18.774574279785156 2.5644025802612305 18.801345825195312 C2.524311065673828 18.8348388671875 2.477370262145996 18.8414363861084 2.417107582092285 18.8414363861084 C2.336798667907715 18.8414363861084 2.263214111328125 18.821392059326172 2.202951431274414 18.767850875854492 C2.149412155151367 18.714187622070312 2.1159181594848633 18.654050827026367 2.1159181594848633 18.567018508911133 C2.1159181594848633 18.48658561706543 2.149412155151367 18.42644691467285 2.209549903869629 18.366182327270508 C2.2698135375976562 18.319368362426758 2.343522071838379 18.285749435424805 2.430429458618164 18.285749435424805 C2.4974164962768555 18.285749435424805 2.5442323684692383 18.299198150634766 2.5777244567871094 18.325965881347656 C2.6246652603149414 18.35273551940918 2.6379880905151367 18.392953872680664 2.6379880905151367 18.43304443359375 C2.6379880905151367 18.459814071655273 2.6312646865844727 18.479862213134766 2.6178178787231445 18.493183135986328 C2.597771644592285 18.513229370117188 2.577601432800293 18.520076751708984 2.550830841064453 18.520076751708984 C2.5240612030029297 18.520076751708984 2.5040159225463867 18.513229370117188 2.483844757080078 18.493183135986328 A0.0849156454205513 0.0849156454205513 0.0 0 1 2.4570751190185547 18.43304443359375 A0.06100977584719658 0.06100977584719658 0.0 0 1 2.483844757080078 18.379507064819336 C2.4971675872802734 18.359336853027344 2.5040159225463867 18.345888137817383 2.5040159225463867 18.345888137817383 C2.5040159225463867 18.33916473388672 2.4972915649414062 18.325843811035156 2.483844757080078 18.325843811035156 L2.4303054809570312 18.325843811035156 C2.3968124389648438 18.325843811035156 2.3700428009033203 18.325843811035156 2.3499975204467773 18.345888137817383 C2.336674690246582 18.359210968017578 2.3298263549804688 18.412874221801758 2.3298263549804688 18.479736328125 L2.3298263549804688 18.65380096435547 C2.3298263549804688 18.713939666748047 2.336549758911133 18.760879516601562 2.356595993041992 18.77432632446289 C2.3699188232421875 18.79437255859375 2.403411865234375 18.807819366455078 2.4369049072265625 18.807819366455078 C2.483719825744629 18.807819366455078 2.523937225341797 18.794496536254883 2.5507068634033203 18.76772689819336 C2.584573745727539 18.7479305267334 2.6179418563842773 18.707714080810547 2.631389617919922 18.6541748046875 L2.631389617919922 18.6541748046875 M4.304924488067627 18.567142486572266 C4.304924488067627 18.486709594726562 4.338418006896973 18.419845581054688 4.398555755615234 18.366308212280273 C4.458818435668945 18.31949234008789 4.532528400421143 18.28587532043457 4.619436264038086 18.28587532043457 C4.7265143394470215 18.28587532043457 4.800224304199219 18.31949234008789 4.853763580322266 18.366308212280273 C4.920749664306641 18.419971466064453 4.947519302368164 18.486833572387695 4.947519302368164 18.567142486572266 C4.947519302368164 18.6541748046875 4.920749664306641 18.721036911010742 4.853763580322266 18.767976760864258 C4.800224304199219 18.821514129638672 4.726639270782471 18.841562271118164 4.619436264038086 18.841562271118164 C4.532403945922852 18.841562271118164 4.458818435668945 18.821514129638672 4.398555755615234 18.767976760864258 C4.338418006896973 18.721036911010742 4.304924488067627 18.6541748046875 4.304924488067627 18.567142486572266 M4.626284122467041 18.326215744018555 C4.5861921310424805 18.326215744018555 4.559422492980957 18.33293914794922 4.539251804351807 18.359708786010742 C4.525928974151611 18.386478424072266 4.519081115722656 18.45346450805664 4.519081115722656 18.5672664642334 L4.519081115722656 18.620805740356445 C4.519081115722656 18.70783805847168 4.52580451965332 18.76150131225586 4.539251804351807 18.78154754638672 C4.559422492980957 18.808319091796875 4.5860676765441895 18.81504249572754 4.626284122467041 18.81504249572754 C4.666500568389893 18.81504249572754 4.699994087219238 18.80171775817871 4.713316440582275 18.78154754638672 C4.726639270782471 18.754653930664062 4.733362197875977 18.68779182434082 4.733362197875977 18.587312698364258 L4.733362197875977 18.51360321044922 C4.733362197875977 18.43329429626465 4.726639270782471 18.379878997802734 4.713316440582275 18.352985382080078 C4.693270206451416 18.326215744018555 4.666500568389893 18.326215744018555 4.626284122467041 18.326215744018555 M7.183465480804443 18.28587532043457 L7.183465480804443 18.79474639892578 L7.277220726013184 18.79474639892578 L7.277220726013184 18.8348388671875 L7.143373489379883 18.8348388671875 C7.089834213256836 18.8348388671875 7.049617290496826 18.8348388671875 6.996078014373779 18.841562271118164 L6.996078014373779 18.707714080810547 C6.969308376312256 18.76137924194336 6.942538738250732 18.79474639892578 6.909046173095703 18.814790725708008 C6.868953704833984 18.8348388671875 6.828737258911133 18.841562271118164 6.78192138671875 18.841562271118164 C6.7484283447265625 18.841562271118164 6.728382110595703 18.8348388671875 6.701488494873047 18.8348388671875 A0.10458818078041077 0.10458818078041077 0.0 0 1 6.64794921875 18.79474639892578 C6.641225337982178 18.788021087646484 6.627902507781982 18.774700164794922 6.627902507781982 18.761253356933594 C6.621179580688477 18.7479305267334 6.621179580688477 18.721036911010742 6.621179580688477 18.69426727294922 L6.621179580688477 18.34613800048828 L6.540870666503906 18.34613800048828 L6.540870666503906 18.312644958496094 C6.594409942626953 18.312644958496094 6.641349792480469 18.30592155456543 6.681441783905029 18.299320220947266 C6.728257179260254 18.299320220947266 6.768474102020264 18.292598724365234 6.808566093444824 18.28587532043457 L6.808566093444824 18.714313507080078 C6.808566093444824 18.74108123779297 6.808566093444824 18.761253356933594 6.8218889236450195 18.767976760864258 C6.828612804412842 18.78129768371582 6.84205961227417 18.78129768371582 6.862105369567871 18.78129768371582 A0.09163916856050491 0.09163916856050491 0.0 0 0 6.949138164520264 18.72763442993164 C6.982631206512451 18.687543869018555 6.995953559875488 18.647327423095703 6.995953559875488 18.593788146972656 L6.995953559875488 18.34613800048828 L6.902322292327881 18.34613800048828 L6.902322292327881 18.312644958496094 C6.942414283752441 18.312644958496094 6.989354133605957 18.312644958496094 7.036170482635498 18.30592155456543 C7.07638692855835 18.29944610595703 7.1299262046813965 18.292722702026367 7.183465480804443 18.28587532043457 L7.183465480804443 18.28587532043457 M8.830230712890625 18.79474639892578 L8.917263984680176 18.79474639892578 L8.917263984680176 18.34613800048828 L8.816908836364746 18.34613800048828 L8.816908836364746 18.312644958496094 C8.863724708557129 18.312644958496094 8.917263984680176 18.312644958496094 8.957480430603027 18.30592155456543 C9.004295349121094 18.299198150634766 9.051111221313477 18.292598724365234 9.104775428771973 18.285749435424805 L9.104775428771973 18.433170318603516 C9.13154411315918 18.37963104248047 9.15831470489502 18.339412689208984 9.19180679321289 18.326091766357422 C9.225300788879395 18.299320220947266 9.272116661071777 18.28587532043457 9.318931579589844 18.28587532043457 C9.379195213317871 18.28587532043457 9.41256332397461 18.299320220947266 9.439457893371582 18.326091766357422 C9.466226577758789 18.34613800048828 9.472949981689453 18.406524658203125 9.472949981689453 18.486709594726562 L9.472949981689453 18.79474639892578 L9.546660423278809 18.79474639892578 L9.546660423278809 18.8348388671875 L9.21857738494873 18.8348388671875 L9.21857738494873 18.79474639892578 L9.29216194152832 18.79474639892578 L9.29216194152832 18.419845581054688 A0.12699992954730988 0.12699992954730988 0.0 0 0 9.278840065002441 18.366182327270508 C9.272116661071777 18.352861404418945 9.258793830871582 18.34613800048828 9.238622665405273 18.34613800048828 C9.205129623413086 18.34613800048828 9.171636581420898 18.366182327270508 9.144991874694824 18.413124084472656 C9.1182222366333 18.446617126464844 9.104775428771973 18.493431091308594 9.104775428771973 18.546972274780273 L9.104775428771973 18.79462242126465 L9.165038108825684 18.79462242126465 L9.165038108825684 18.834712982177734 L8.830230712890625 18.834712982177734 L8.830230712890625 18.79474639892578 L8.830230712890625 18.79474639892578 M11.139762878417969 18.8348388671875 L11.139762878417969 18.64060401916504 L11.166531562805176 18.64060401916504 C11.179854393005371 18.69426727294922 11.206748962402344 18.74108123779297 11.240117073059082 18.767850875854492 C11.266886711120605 18.801345825195312 11.313826560974121 18.814666748046875 11.367365837097168 18.814666748046875 C11.400859832763672 18.814666748046875 11.434351921081543 18.80794334411621 11.460997581481934 18.787899017333984 A0.07408329844474792 0.07408329844474792 0.0 0 0 11.494490623474121 18.720911026000977 C11.494490623474121 18.68741798400879 11.460997581481934 18.6607723236084 11.3739652633667 18.654050827026367 L11.327149391174316 18.654050827026367 C11.260163307189941 18.64060401916504 11.206624031066895 18.620433807373047 11.179854393005371 18.593788146972656 C11.153084754943848 18.567018508911133 11.139762878417969 18.533649444580078 11.139762878417969 18.479984283447266 C11.139762878417969 18.42644691467285 11.153084754943848 18.372905731201172 11.186577796936035 18.339412689208984 C11.226794242858887 18.30592155456543 11.267010688781738 18.285749435424805 11.327149391174316 18.285749435424805 C11.353919982910156 18.285749435424805 11.3739652633667 18.292598724365234 11.394135475158691 18.292598724365234 C11.420905113220215 18.299320220947266 11.440951347351074 18.312644958496094 11.461122512817383 18.319368362426758 L11.48789119720459 18.292598724365234 L11.507938385009766 18.292598724365234 L11.51466178894043 18.446491241455078 L11.48789119720459 18.446491241455078 A0.25213223695755005 0.25213223695755005 0.0 0 0 11.427628517150879 18.346012115478516 C11.400859832763672 18.325965881347656 11.374089241027832 18.325965881347656 11.33399772644043 18.325965881347656 C11.293905258178711 18.325965881347656 11.267010688781738 18.325965881347656 11.246965408325195 18.339290618896484 C11.226794242858887 18.352611541748047 11.206748962402344 18.379507064819336 11.206748962402344 18.399551391601562 C11.206748962402344 18.43304443359375 11.260287284851074 18.446367263793945 11.347320556640625 18.45969009399414 C11.360642433166504 18.45969009399414 11.374089241027832 18.466415405273438 11.374089241027832 18.466415405273438 C11.454399108886719 18.47313690185547 11.501214027404785 18.493183135986328 11.527983665466309 18.526552200317383 C11.554753303527832 18.546722412109375 11.574799537658691 18.593538284301758 11.574799537658691 18.65380096435547 C11.574799537658691 18.713939666748047 11.554753303527832 18.760879516601562 11.514535903930664 18.79437255859375 C11.481043815612793 18.827865600585938 11.427504539489746 18.841188430786133 11.367240905761719 18.841188430786133 C11.333748817443848 18.841188430786133 11.306978225708008 18.841188430786133 11.2802095413208 18.83446502685547 C11.260163307189941 18.827739715576172 11.233393669128418 18.821142196655273 11.21322250366211 18.807695388793945 L11.166407585144043 18.83446502685547 L11.139762878417969 18.83446502685547 L11.139762878417969 18.8348388671875 L11.139762878417969 18.8348388671875 M13.395753860473633 18.50015640258789 L13.569819450378418 18.50015640258789 L13.569819450378418 18.39980125427246 C13.569819450378418 18.366182327270508 13.562971115112305 18.34613800048828 13.54964828491211 18.332815170288086 C13.53632640838623 18.326091766357422 13.50955581665039 18.326091766357422 13.482787132263184 18.326091766357422 C13.456016540527344 18.326091766357422 13.435847282409668 18.326091766357422 13.422524452209473 18.339412689208984 C13.402353286743164 18.35273551940918 13.395753860473633 18.372905731201172 13.395753860473633 18.399675369262695 L13.395753860473633 18.50015640258789 L13.395753860473633 18.50015640258789 M13.723837852478027 18.6541748046875 L13.757205963134766 18.667495727539062 C13.737284660339355 18.734357833862305 13.703666687011719 18.774574279785156 13.66357421875 18.801345825195312 C13.616634368896484 18.8348388671875 13.563095092773438 18.8414363861084 13.489510536193848 18.8414363861084 C13.395878791809082 18.8414363861084 13.329017639160156 18.821392059326172 13.268754959106445 18.774574279785156 C13.215215682983398 18.72763442993164 13.188445091247559 18.654050827026367 13.188445091247559 18.573741912841797 C13.188445091247559 18.493431091308594 13.215215682983398 18.42644691467285 13.268754959106445 18.366182327270508 C13.329017639160156 18.319368362426758 13.402477264404297 18.285749435424805 13.489510536193848 18.285749435424805 C13.56994342803955 18.285749435424805 13.630082130432129 18.312644958496094 13.683870315551758 18.35273551940918 C13.72396183013916 18.399675369262695 13.750732421875 18.459814071655273 13.750732421875 18.54024887084961 L13.750732421875 18.546972274780273 L13.395878791809082 18.546972274780273 L13.395878791809082 18.68082046508789 C13.395878791809082 18.734357833862305 13.402477264404297 18.767850875854492 13.422648429870605 18.787899017333984 C13.4359712600708 18.80794334411621 13.469588279724121 18.814666748046875 13.502957344055176 18.814666748046875 C13.563220024108887 18.814666748046875 13.596837997436523 18.801345825195312 13.636930465698242 18.774574279785156 C13.676897048950195 18.754528045654297 13.703666687011719 18.714435577392578 13.723837852478027 18.6541748046875 L13.723837852478027 18.6541748046875 M15.350433349609375 18.79474639892578 L15.4172945022583 18.79474639892578 L15.4172945022583 17.991409301757812 L15.336986541748047 17.991409301757812 L15.336986541748047 17.944591522216797 L15.470708847045898 17.944591522216797 C15.517648696899414 17.944591522216797 15.571187973022461 17.937870025634766 15.611530303955078 17.937870025634766 L15.611530303955078 18.79474639892578 L15.691838264465332 18.79474639892578 L15.691838264465332 18.8348388671875 L15.350433349609375 18.8348388671875 L15.350433349609375 18.79474639892578 M17.244848251342773 18.79474639892578 L17.325281143188477 18.79474639892578 L17.325281143188477 17.991409301757812 L17.244848251342773 17.991409301757812 L17.244848251342773 17.944591522216797 L17.378822326660156 17.944591522216797 C17.425762176513672 17.944591522216797 17.47245216369629 17.937870025634766 17.512542724609375 17.937870025634766 L17.512542724609375 18.79474639892578 L17.599576950073242 18.79474639892578 L17.599576950073242 18.8348388671875 L17.24472427368164 18.8348388671875 L17.24472427368164 18.79474639892578 L17.244848251342773 18.79474639892578 L17.244848251342773 18.79474639892578 M19.199527740478516 18.567142486572266 C19.199527740478516 18.486709594726562 19.233142852783203 18.419845581054688 19.286558151245117 18.366308212280273 C19.34682273864746 18.31949234008789 19.4205322265625 18.28587532043457 19.514163970947266 18.28587532043457 C19.6077938079834 18.28587532043457 19.68150520324707 18.31949234008789 19.748615264892578 18.366308212280273 C19.802154541015625 18.419971466064453 19.835397720336914 18.486833572387695 19.835397720336914 18.567142486572266 C19.835397720336914 18.6541748046875 19.80202865600586 18.721036911010742 19.748615264892578 18.767976760864258 C19.68150520324707 18.821514129638672 19.6077938079834 18.841562271118164 19.514163970947266 18.841562271118164 C19.4205322265625 18.841562271118164 19.34682273864746 18.821514129638672 19.286558151245117 18.767976760864258 C19.233142852783203 18.721036911010742 19.199527740478516 18.6541748046875 19.199527740478516 18.567142486572266 M19.521011352539062 18.326215744018555 C19.474071502685547 18.326215744018555 19.453901290893555 18.33293914794922 19.433979034423828 18.359708786010742 C19.420658111572266 18.386478424072266 19.413806915283203 18.45346450805664 19.413806915283203 18.5672664642334 L19.413806915283203 18.620805740356445 C19.413806915283203 18.70783805847168 19.420658111572266 18.76150131225586 19.433979034423828 18.78154754638672 C19.453901290893555 18.808319091796875 19.474071502685547 18.81504249572754 19.521011352539062 18.81504249572754 C19.56110382080078 18.81504249572754 19.587873458862305 18.80171775817871 19.601318359375 18.78154754638672 C19.614643096923828 18.754653930664062 19.621490478515625 18.68779182434082 19.621490478515625 18.587312698364258 L19.621490478515625 18.51360321044922 C19.621490478515625 18.43329429626465 19.614643096923828 18.379878997802734 19.601318359375 18.352985382080078 C19.58115005493164 18.326215744018555 19.56110382080078 18.326215744018555 19.521011352539062 18.326215744018555 M21.455520629882812 18.8348388671875 L21.455520629882812 18.79474639892578 L21.52922821044922 18.79474639892578 L21.52922821044922 18.34613800048828 L21.455520629882812 18.34613800048828 L21.455520629882812 18.312644958496094 C21.4891357421875 18.312644958496094 21.53582763671875 18.30592155456543 21.576168060302734 18.299320220947266 C21.622859954833984 18.299320220947266 21.6697998046875 18.292598724365234 21.70989227294922 18.28587532043457 L21.70989227294922 18.43329429626465 C21.73006248474121 18.393203735351562 21.749984741210938 18.352861404418945 21.78360366821289 18.326215744018555 C21.81037139892578 18.29944610595703 21.84386444091797 18.285999298095703 21.877233505249023 18.285999298095703 C21.904003143310547 18.285999298095703 21.937496185302734 18.29944610595703 21.957666397094727 18.326215744018555 C21.98443603515625 18.33953857421875 21.99103546142578 18.366308212280273 21.99103546142578 18.399927139282227 C21.99103546142578 18.43341827392578 21.98443603515625 18.45346450805664 21.96426773071289 18.4735107421875 C21.94434356689453 18.486833572387695 21.924175262451172 18.500282287597656 21.897403717041016 18.500282287597656 A0.09898524731397629 0.09898524731397629 0.0 0 1 21.837141036987305 18.4735107421875 A0.08217643201351166 0.08217643201351166 0.0 0 1 21.81037139892578 18.413372039794922 C21.81037139892578 18.40005111694336 21.81037139892578 18.393325805664062 21.81722068786621 18.379878997802734 C21.81722068786621 18.366432189941406 21.82381820678711 18.359708786010742 21.82381820678711 18.359708786010742 C21.82381820678711 18.352985382080078 21.82381820678711 18.352985382080078 21.81722068786621 18.352985382080078 C21.81722068786621 18.352985382080078 21.81722068786621 18.346263885498047 21.81037139892578 18.346263885498047 C21.79705047607422 18.346263885498047 21.776752471923828 18.373031616210938 21.750110626220703 18.419971466064453 C21.730186462402344 18.460063934326172 21.716739654541016 18.506879806518555 21.716739654541016 18.55381965637207 L21.716739654541016 18.794870376586914 L21.81037139892578 18.794870376586914 L21.81037139892578 18.8349609375 L21.455520629882812 18.8349609375 L21.455520629882812 18.8348388671875 L21.455520629882812 18.8348388671875" fill="black" fill-opacity="1.0" filling="0"/>
<path animation_id="5" d="M0.8440513610839844 17.449169158935547 L23.20288848876953 17.449169158935547 L23.20288848876953 17.542924880981445 L0.8440513610839844 17.542924880981445 L0.8440513610839844 17.449169158935547" fill="black" fill-opacity="1.0" filling="0"/>
<path animation_id="6" d="M23.470584869384766 17.308597564697266 L23.155948638916016 17.308597564697266 L23.155948638916016 17.690095901489258 L23.470584869384766 17.690095901489258 L23.470584869384766 17.308597564697266 M0.8440513610839844 17.308597564697266 L0.5294151306152344 17.308597564697266 L0.5294151306152344 17.690095901489258 L0.8440513610839844 17.690095901489258 L0.8440513610839844 17.308597564697266" fill="black" fill-opacity="1.0" filling="0"/></svg>