<?xml version="1.0" encoding="iso-8859-1"?><svg height="200px" viewBox="0.0 0.0 24.0 24.0" width="200px" xmlns="http://www.w3.org/2000/svg"><path animation_id="0" d="M0.0 0.0 L24.0 0.0 L24.0 24.0 L0.0 24.0 L0.0 0.0" fill="black" fill-opacity="1.0" filling="0"/>
<path animation_id="1" d="M1.0588302612304688 15.85805892944336 L22.94116973876953 15.85805892944336 L22.94116973876953 8.14194107055664 L1.0588302612304688 8.14194107055664 L1.0588302612304688 15.85805892944336" fill="black" fill-opacity="1.0" filling="0"/>
<path animation_id="2" d="M9.663450241088867 11.035049438476562 L9.663450241088867 13.162174224853516 M8.073086738586426 12.402416229248047 L8.832845687866211 12.402416229248047 M9.096183776855469 12.402416229248047 L9.91657829284668 12.402416229248047" fill="none" filling="0" stroke="black" stroke-opacity="1.0" stroke-width=".3"/>
<path animation_id="3" d="M8.616697311401367 10.472887992858887 C8.58432388305664 10.386602401733398 8.634750366210938 10.366058349609375 8.722779273986816 10.375397682189941 C8.788022994995117 10.388594627380371 8.83297061920166 10.361949920654297 8.857498168945312 10.295212745666504 C8.899333953857422 10.191370964050293 8.984872817993164 10.190376281738281 9.003673553466797 10.303803443908691 C9.018240928649902 10.380502700805664 9.062442779541016 10.439643859863281 9.149723052978516 10.472887992858887 A0.37016746401786804 0.37016746401786804 0.0 0 1 9.330262184143066 10.621926307678223 C9.408952713012695 10.680072784423828 9.46348762512207 10.755401611328125 9.464981079101562 10.868330955505371 C9.46796989440918 10.942663192749023 9.478303909301758 11.01799201965332 9.499345779418945 11.094690322875977 C9.524995803833008 11.286684036254883 9.533960342407227 11.487144470214844 9.542302131652832 11.687854766845703 C9.59447193145752 12.395691871643066 9.56396770477295 13.114362716674805 9.40011215209961 13.85096263885498 C9.385046005249023 13.927908897399902 9.351179122924805 14.002241134643555 9.298636436462402 14.073834419250488 C9.27983570098877 14.09089183807373 9.266387939453125 14.089149475097656 9.25841999053955 14.068729400634766 C9.24161148071289 14.024155616760254 9.214219093322754 13.998257637023926 9.176118850708008 13.991035461425781 C9.158065795898438 13.993152618408203 9.15084457397461 13.981945991516113 9.154330253601074 13.957293510437012 C9.165410995483398 13.860051155090332 9.177738189697266 13.76268482208252 9.199651718139648 13.66531753540039 C9.210981369018555 13.612401962280273 9.214343070983887 13.559484481811523 9.209736824035645 13.506691932678223 C9.160679817199707 13.682499885559082 9.095810890197754 13.69955825805664 9.020108222961426 13.607794761657715 C8.952375411987305 13.523625373840332 8.908672332763672 13.498351097106934 8.88924789428711 13.531968116760254 C8.839942932128906 13.574426651000977 8.684430122375488 13.528979301452637 8.694640159606934 13.336114883422852 C8.644960403442383 13.343833923339844 8.622051239013672 13.316940307617188 8.625785827636719 13.255183219909668 C8.63724136352539 13.080121994018555 8.659154891967773 12.905061721801758 8.684181213378906 12.730125427246094 C8.755151748657227 11.956048011779785 8.73261547088623 11.203636169433594 8.616697311401367 10.472887992858887 L8.616697311401367 10.472887992858887 M10.617071151733398 13.310713768005371 C11.090580940246582 13.310713768005371 11.476686477661133 12.924610137939453 11.476686477661133 12.451099395751953 C11.476686477661133 11.977712631225586 11.090580940246582 11.591608047485352 10.617071151733398 11.591608047485352 C10.143560409545898 11.591608047485352 9.757454872131348 11.977837562561035 9.757454872131348 12.451099395751953 C9.757579803466797 12.924734115600586 10.143684387207031 13.310713768005371 10.617071151733398 13.310713768005371 M9.448920249938965 10.28537654876709 C9.399863243103027 10.246529579162598 9.407831192016602 10.190749168395996 9.49586009979248 10.164477348327637 C10.098487854003906 10.003735542297363 10.714437484741211 9.963768005371094 11.340597152709961 10.014692306518555 C11.378074645996094 10.021166801452637 11.4048433303833 10.039220809936523 11.408329963684082 10.082425117492676 A0.08466662466526031 0.08466662466526031 0.0 0 0 11.448421478271484 10.153271675109863 C11.477682113647461 10.168959617614746 11.480669975280762 10.204569816589355 11.476062774658203 10.245657920837402 C11.662827491760254 10.248520851135254 11.858556747436523 10.239059448242188 12.008964538574219 10.291851043701172 C12.1091947555542 10.351366996765137 12.041959762573242 10.470771789550781 11.978211402893066 10.464296340942383 L11.611654281616211 10.47039794921875 C11.592977523803711 10.52592945098877 11.519890785217285 10.526800155639648 11.43908405303955 10.51970386505127 C11.361639022827148 10.510614395141602 11.350183486938477 10.543609619140625 11.368237495422363 10.602875709533691 C11.384673118591309 10.652555465698242 11.412064552307129 10.684056282043457 11.445184707641602 10.713813781738281 C11.507065773010254 10.747556686401367 11.49274730682373 10.838947296142578 11.4421968460083 10.833842277526855 L10.921497344970703 10.818403244018555 C10.917014122009277 10.84716510772705 10.9004545211792 10.857125282287598 10.878417015075684 10.858494758605957 C10.418601989746094 10.881155014038086 9.966009140014648 10.908921241760254 9.578535079956055 10.981759071350098 C9.530224800109863 10.99134635925293 9.516653060913086 10.921247482299805 9.541555404663086 10.873933792114258 C9.569321632385254 10.831850051879883 9.56521224975586 10.77706527709961 9.563095092773438 10.723028182983398 C9.555998802185059 10.651808738708496 9.510677337646484 10.625536918640137 9.467597007751465 10.596651077270508 C9.40671157836914 10.55830192565918 9.410571098327637 10.507750511169434 9.458382606506348 10.44873332977295 C9.5297269821167 10.384486198425293 9.510053634643555 10.332192420959473 9.448920249938965 10.28537654876709 L9.448920249938965 10.28537654876709" fill="black" fill-opacity="1.0" filling="0"/>
<path animation_id="4" d="M6.2596025466918945 13.409201622009277 L6.2596025466918945 13.67776870727539 L5.967751979827881 13.67776870727539 L5.967751979827881 13.086721420288086 C5.967751979827881 12.989977836608887 5.9977593421936035 12.908548355102539 6.057772636413574 12.842806816101074 C6.123638153076172 12.769221305847168 6.211666584014893 12.732366561889648 6.322106838226318 12.732366561889648 C6.421839237213135 12.732366561889648 6.503268241882324 12.76063060760498 6.56602144241333 12.816658973693848 C6.639606952667236 12.881528854370117 6.676336765289307 12.9749116897583 6.676336765289307 13.096931457519531 L6.676336765289307 13.67776870727539 L6.384486198425293 13.67776870727539 L6.384486198425293 13.409201622009277 L6.2596025466918945 13.409201622009277 L6.2596025466918945 13.409201622009277 M6.2596025466918945 13.159311294555664 L6.384610652923584 13.159311294555664 L6.384610652923584 13.066426277160645 A0.062130365520715714 0.062130365520715714 0.0 0 0 6.322231292724609 13.00255298614502 A0.0641225129365921 0.0641225129365921 0.0 0 0 6.279399871826172 13.019237518310547 A0.05851957947015762 0.05851957947015762 0.0 0 0 6.259727478027344 13.066426277160645 L6.259727478027344 13.159311294555664 L6.2596025466918945 13.159311294555664 M5.321172714233398 13.403349876403809 L5.321172714233398 13.67776870727539 L5.039531707763672 13.67776870727539 L5.039531707763672 13.044636726379395 C5.039531707763672 12.977899551391602 5.062690734863281 12.908921241760254 5.113615036010742 12.841312408447266 C5.174127101898193 12.760879516601562 5.255431652069092 12.722156524658203 5.3531718254089355 12.722156524658203 L5.373467445373535 12.722156524658203 C5.46348762512207 12.722156524658203 5.545166015625 12.751168251037598 5.618128776550293 12.809313774108887 C5.691215991973877 12.867460250854492 5.727697372436523 12.945900917053223 5.727697372436523 13.044636726379395 L5.727697372436523 13.072278022766113 C5.727697372436523 13.159311294555664 5.70242166519165 13.23538589477539 5.649380683898926 13.297390937805176 C5.5883708000183105 13.368736267089844 5.510801315307617 13.403473854064941 5.395754337310791 13.403473854064941 L5.321172714233398 13.403473854064941 L5.321172714233398 13.403349876403809 L5.321172714233398 13.403349876403809 M5.321172714233398 13.143123626708984 L5.385669231414795 13.142004013061523 C5.408952713012695 13.142004013061523 5.415925025939941 13.134407997131348 5.430866241455078 13.119592666625977 A0.07333623617887497 0.07333623617887497 0.0 0 0 5.453402519226074 13.066426277160645 A0.07171761244535446 0.07171761244535446 0.0 0 0 5.438959121704102 13.021478652954102 C5.4292473793029785 13.00877857208252 5.414181709289551 13.002676963806152 5.393886566162109 13.002676963806152 C5.3648762702941895 13.002676963806152 5.344207286834717 13.010396003723145 5.334371089935303 13.027329444885254 C5.324908256530762 13.043392181396484 5.3212971687316895 13.073772430419922 5.3212971687316895 13.117350578308105 L5.321172714233398 13.143123626708984 L5.321172714233398 13.143123626708984 M4.786154270172119 13.014132499694824 L4.643840312957764 13.014132499694824 C4.603250026702881 13.014132499694824 4.574612617492676 13.021478652954102 4.558177471160889 13.035921096801758 L4.547967433929443 13.056341171264648 C4.540247917175293 13.071904182434082 4.539251804351807 13.093070983886719 4.539251804351807 13.117225646972656 L4.539251804351807 13.67776870727539 L4.247400760650635 13.67776870727539 L4.247400760650635 13.02434253692627 C4.247400760650635 12.947892189025879 4.276412010192871 12.883397102355957 4.334433555603027 12.831103324890137 C4.392579078674316 12.77893352508545 4.471020698547363 12.752660751342773 4.569756507873535 12.752660751342773 L4.786029815673828 12.752660751342773 L4.786029815673828 13.014132499694824 L4.786154270172119 13.014132499694824 L4.786154270172119 13.014132499694824 M3.015127182006836 13.311959266662598 L2.957355499267578 13.311959266662598 L2.957355499267578 13.690966606140137 L2.67720890045166 13.690966606140137 L2.67720890045166 12.739712715148926 L2.957355499267578 12.739712715148926 L2.957355499267578 13.072278022766113 L3.027703285217285 13.072278022766113 A0.485588014125824 0.485588014125824 0.0 0 1 3.4898834228515625 12.732242584228516 A0.4852144718170166 0.4852144718170166 0.0 0 1 3.9742259979248047 13.21670913696289 A0.4853389859199524 0.4853389859199524 0.0 0 1 3.4898834228515625 13.70105266571045 A0.48608604073524475 0.48608604073524475 0.0 0 1 3.015127182006836 13.311959266662598 L3.015127182006836 13.311959266662598 M3.4900083541870117 13.021353721618652 C3.5975847244262695 13.021353721618652 3.685239791870117 13.10913372039795 3.685239791870117 13.216585159301758 C3.685239791870117 13.324036598205566 3.5975847244262695 13.411691665649414 3.4900083541870117 13.411691665649414 C3.3825559616088867 13.411691665649414 3.2947769165039062 13.324036598205566 3.2947769165039062 13.216585159301758 C3.2947769165039062 13.10913372039795 3.3825559616088867 13.021353721618652 3.4900083541870117 13.021353721618652" fill="black" fill-opacity="1.0" filling="0"/>
<path animation_id="5" d="M6.725144863128662 11.800162315368652 L6.6687421798706055 11.989789962768555 C6.657536029815674 12.037726402282715 6.645956516265869 12.071343421936035 6.634003639221191 12.090643882751465 C6.617941856384277 12.121895790100098 6.599639415740967 12.139948844909668 6.578721523284912 12.144680976867676 C6.623544692993164 12.152026176452637 6.658033847808838 12.171574592590332 6.682064533233643 12.203573226928711 C6.699744701385498 12.228350639343262 6.708460807800293 12.260848045349121 6.708460807800293 12.30081558227539 L6.708460807800293 12.564901351928711 L6.467160701751709 12.564901351928711 L6.467160701751709 12.325966835021973 C6.467160701751709 12.302061080932617 6.461682319641113 12.285749435424805 6.450850009918213 12.277283668518066 C6.4401421546936035 12.268941879272461 6.4149909019470215 12.261096954345703 6.375895023345947 12.253875732421875 L6.375895023345947 12.564776420593262 L6.1345953941345215 12.564776420593262 L6.1345953941345215 11.80003833770752 L6.375895023345947 11.80003833770752 L6.375895023345947 12.086907386779785 C6.383116245269775 12.086907386779785 6.393700122833252 12.074830055236816 6.407271385192871 12.050925254821777 C6.414493083953857 12.0341157913208 6.420718669891357 12.01369571685791 6.425449848175049 11.989789962768555 L6.482350826263428 11.800162315368652 L6.725144863128662 11.800162315368652 L6.725144863128662 11.800162315368652 M5.984685897827148 12.564901351928711 L5.743260860443115 12.564901351928711 L5.743260860443115 12.26234245300293 L5.631700038909912 12.26234245300293 L5.631700038909912 12.564901351928711 L5.390400409698486 12.564901351928711 L5.390400409698486 11.800162315368652 L5.631700038909912 11.800162315368652 L5.631700038909912 12.06798267364502 L5.743260860443115 12.06798267364502 L5.743260860443115 11.800162315368652 L5.984685897827148 11.800162315368652 L5.984685897827148 12.564901351928711 M4.897217273712158 12.342775344848633 L4.897217273712158 12.564901351928711 L4.655917644500732 12.564901351928711 L4.655917644500732 12.076199531555176 C4.655917644500732 11.996140480041504 4.680694580078125 11.92902946472168 4.730374336242676 11.874619483947754 C4.784785270690918 11.813858985900879 4.857498645782471 11.783477783203125 4.948889255523682 11.783477783203125 C5.031314373016357 11.783477783203125 5.098425388336182 11.806635856628418 5.15047025680542 11.853078842163086 C5.211355209350586 11.906742095947266 5.241735458374023 11.983938217163086 5.241735458374023 12.08479118347168 L5.241735458374023 12.564901351928711 L5.000435829162598 12.564901351928711 L5.000435829162598 12.342775344848633 L4.897217273712158 12.342775344848633 L4.897217273712158 12.342775344848633 M4.897217273712158 12.136338233947754 L5.000560283660889 12.136338233947754 L5.000560283660889 12.059640884399414 A0.051048994064331055 0.051048994064331055 0.0 0 0 4.985494613647461 12.02178955078125 A0.049305859953165054 0.049305859953165054 0.0 0 0 4.949013710021973 12.006723403930664 A0.05353919044137001 0.05353919044137001 0.0 0 0 4.9135284423828125 12.020544052124023 A0.0485587976872921 0.0485587976872921 0.0 0 0 4.897341728210449 12.059515953063965 L4.897341728210449 12.136338233947754 L4.897217273712158 12.136338233947754 L4.897217273712158 12.136338233947754 M4.163356781005859 12.044449806213379 C4.388096809387207 12.03984260559082 4.4620561599731445 12.060262680053711 4.500030994415283 12.187263488769531 A0.7346075177192688 0.7346075177192688 0.0 0 1 4.505634307861328 12.370416641235352 C4.488950252532959 12.522941589355469 4.423457622528076 12.566146850585938 4.217020511627197 12.566021919250488 C4.021291732788086 12.564403533935547 3.9251699447631836 12.538505554199219 3.9220571517944336 12.345763206481934 L3.9220571517944336 11.791695594787598 L4.48745584487915 11.791695594787598 L4.48745584487915 11.9813232421875 L4.163356781005859 11.9813232421875 L4.163356781005859 12.044449806213379 L4.163356781005859 12.044449806213379 M4.210546493530273 12.358713150024414 A0.04768722876906395 0.04768722876906395 0.0 0 0 4.210546493530273 12.263338088989258 C4.184398651123047 12.263338088989258 4.162858486175537 12.284753799438477 4.162858486175537 12.311025619506836 C4.162858486175537 12.337296485900879 4.184398651123047 12.358713150024414 4.210546493530273 12.358713150024414 L4.210546493530273 12.358713150024414 M19.826183319091797 11.810994148254395 L19.77077865600586 11.997011184692383 C19.75982093811035 12.044076919555664 19.74836540222168 12.07719612121582 19.73653793334961 12.09587287902832 C19.72097396850586 12.12650203704834 19.702795028686523 12.144183158874512 19.6825008392334 12.148913383483887 C19.726329803466797 12.156010627746582 19.76007080078125 12.175186157226562 19.783601760864258 12.206562042236328 C19.80091094970703 12.230841636657715 19.809375762939453 12.262715339660645 19.809375762939453 12.301936149597168 L19.809375762939453 12.561041831970215 L19.57280731201172 12.561041831970215 L19.57280731201172 12.326713562011719 C19.57280731201172 12.303181648254395 19.567703247070312 12.287368774414062 19.556995391845703 12.279026985168457 C19.54653549194336 12.270809173583984 19.52200698852539 12.263089179992676 19.48353385925293 12.25599193572998 L19.48353385925293 12.560916900634766 L19.246715545654297 12.560916900634766 L19.246715545654297 11.810994148254395 L19.48353385925293 11.810994148254395 L19.48353385925293 12.092387199401855 C19.490631103515625 12.092387199401855 19.50109100341797 12.080557823181152 19.514163970947266 12.057149887084961 C19.52126121520996 12.040715217590332 19.527236938476562 12.020668983459473 19.532217025756836 11.997137069702148 L19.587873458862305 11.811119079589844 L19.826183319091797 11.811119079589844 L19.826183319091797 11.810994148254395 M19.08696937561035 12.442009925842285 C19.08696937561035 12.484342575073242 19.07476806640625 12.517461776733398 19.05048942565918 12.541492462158203 C19.02621078491211 12.565523147583008 18.996702194213867 12.577351570129395 18.96221160888672 12.577351570129395 C18.936187744140625 12.577351570129395 18.910415649414062 12.570255279541016 18.88439178466797 12.556185722351074 A0.14443129301071167 0.14443129301071167 0.0 0 1 18.824378967285156 12.492560386657715 L18.70086669921875 12.25599193572998 L18.70086669921875 12.560916900634766 L18.464298248291016 12.560916900634766 L18.464298248291016 11.929901123046875 C18.464298248291016 11.89217472076416 18.47699737548828 11.862043380737305 18.502023696899414 11.839258193969727 C18.527050018310547 11.816473007202148 18.556930541992188 11.805143356323242 18.59154510498047 11.805143356323242 C18.620433807373047 11.805143356323242 18.647451400756836 11.812613487243652 18.672725677490234 11.827428817749023 C18.696134567260742 11.840005874633789 18.71692657470703 11.862791061401367 18.734981536865234 11.895661354064941 L18.85052490234375 12.140446662902832 L18.85052490234375 11.810994148254395 L19.087095260620117 11.810994148254395 L19.087095260620117 12.442009925842285 L19.08696937561035 12.442009925842285 L19.08696937561035 12.442009925842285 M17.973480224609375 12.343025207519531 L17.973480224609375 12.560916900634766 L17.736909866333008 12.560916900634766 L17.736909866333008 12.08167839050293 C17.736909866333008 12.0032377243042 17.76119041442871 11.937372207641602 17.809873580932617 11.883956909179688 C17.8631649017334 11.82431697845459 17.934633255004883 11.794434547424316 18.024154663085938 11.794434547424316 C18.10483741760254 11.794434547424316 18.170825958251953 11.817220687866211 18.22187614440918 11.862666130065918 C18.281517028808594 11.91520881652832 18.311397552490234 11.991035461425781 18.311397552490234 12.089896202087402 L18.311397552490234 12.560792922973633 L18.074831008911133 12.560792922973633 L18.074831008911133 12.342900276184082 L17.973480224609375 12.342900276184082 L17.973480224609375 12.343025207519531 L17.973480224609375 12.343025207519531 M17.973480224609375 12.140572547912598 L18.074581146240234 12.140572547912598 L18.074581146240234 12.065367698669434 A0.05042644590139389 0.05042644590139389 0.0 0 0 18.024030685424805 12.013571739196777 A0.05266762152314186 0.05266762152314186 0.0 0 0 17.98929214477539 12.027018547058105 A0.047936249524354935 0.047936249524354935 0.0 0 0 17.973480224609375 12.065367698669434 L17.973480224609375 12.140572547912598 L17.973480224609375 12.140572547912598 M17.214218139648438 12.560916900634766 L16.977651596069336 12.560916900634766 L16.977651596069336 12.055780410766602 C16.977651596069336 11.979704856872559 17.00267791748047 11.91844654083252 17.05260467529297 11.8721284866333 C17.102161407470703 11.825810432434082 17.17026710510254 11.802652359008789 17.256677627563477 11.802652359008789 L17.267385482788086 11.802652359008789 C17.344207763671875 11.802652359008789 17.408702850341797 11.828550338745117 17.460498809814453 11.880346298217773 C17.505199432373047 11.926539421081543 17.527610778808594 11.97957992553711 17.527610778808594 12.039220809936523 C17.527610778808594 12.09101676940918 17.510303497314453 12.130611419677734 17.475812911987305 12.158003807067871 C17.507938385009766 12.174562454223633 17.533212661743164 12.200709342956543 17.551143646240234 12.236444473266602 C17.569194793701172 12.272054672241211 17.578161239624023 12.308784484863281 17.578161239624023 12.346510887145996 C17.578161239624023 12.402913093566895 17.561601638793945 12.452468872070312 17.527610778808594 12.493681907653809 C17.490381240844727 12.5387544631958 17.440826416015625 12.560792922973633 17.38043975830078 12.560792922973633 L17.214218139648438 12.560792922973633 L17.214218139648438 12.560916900634766 L17.214218139648438 12.560916900634766 M17.214218139648438 12.36892318725586 L17.25306510925293 12.36892318725586 C17.2831974029541 12.36829948425293 17.331382751464844 12.357343673706055 17.33188247680664 12.318371772766113 C17.33262825012207 12.276163101196289 17.288799285888672 12.25599193572998 17.25655174255371 12.25599193572998 L17.214218139648438 12.25599193572998 L17.214218139648438 12.36892318725586 L17.214218139648438 12.36892318725586 M17.214218139648438 12.098237991333008 L17.252941131591797 12.097989082336426 A0.04955487698316574 0.04955487698316574 0.0 0 0 17.282573699951172 12.084044456481934 C17.2894229888916 12.077569961547852 17.293283462524414 12.065990447998047 17.29552459716797 12.05117416381836 C17.29552459716797 12.039345741271973 17.292163848876953 12.028637886047363 17.285064697265625 12.019298553466797 C17.277969360351562 12.009961128234863 17.268505096435547 12.005228996276855 17.25655174255371 12.005228996276855 C17.237876892089844 12.005228996276855 17.223682403564453 12.011579513549805 17.219074249267578 12.026022911071777 C17.214218139648438 12.040590286254883 17.214218139648438 12.059764862060547 17.214218139648438 12.098237991333008 L17.214218139648438 12.098237991333008" fill="black" fill-opacity="1.0" filling="0"/>
<path animation_id="6" d="M20.889373779296875 13.37247085571289 L20.889373779296875 13.644773483276367 L20.59366226196289 13.644773483276367 L20.59366226196289 13.045757293701172 C20.59366226196289 12.947643280029297 20.624042510986328 12.86534309387207 20.684804916381836 12.798605918884277 C20.751415252685547 12.724024772644043 20.840938568115234 12.686795234680176 20.952499389648438 12.686795234680176 C21.053600311279297 12.686795234680176 21.136152267456055 12.715309143066406 21.19977569580078 12.772210121154785 C21.274232864379883 12.837950706481934 21.311586380004883 12.932578086853027 21.311586380004883 13.0562162399292 L21.311586380004883 13.644898414611816 L21.01587677001953 13.644898414611816 L21.01587677001953 13.37259578704834 L20.889373779296875 13.37259578704834 L20.889373779296875 13.37247085571289 M20.889373779296875 13.117849349975586 L21.016124725341797 13.119342803955078 L21.016124725341797 13.025213241577148 A0.06374899297952652 0.06374899297952652 0.0 0 0 20.997697830200195 12.97889518737793 A0.06113428249955177 0.06113428249955177 0.0 0 0 20.952747344970703 12.960593223571777 A0.06524310261011124 0.06524310261011124 0.0 0 0 20.909420013427734 12.97752571105957 A0.059017620980739594 0.059017620980739594 0.0 0 0 20.889497756958008 13.025338172912598 L20.889497756958008 13.117849349975586 L20.889373779296875 13.117849349975586 L20.889373779296875 13.117849349975586 M19.96215057373047 13.32777214050293 L19.96215057373047 13.644773483276367 L19.678142547607422 13.644773483276367 L19.678142547607422 13.025213241577148 C19.678142547607422 12.904562950134277 19.711883544921875 12.815165519714355 19.77949333190918 12.757392883300781 C19.837390899658203 12.710328102111816 19.9193172454834 12.686795234680176 20.025400161743164 12.686795234680176 C20.13434600830078 12.686795234680176 20.22013282775879 12.719666481018066 20.282886505126953 12.785407066345215 C20.336923599243164 12.842308044433594 20.363819122314453 12.910540580749512 20.363819122314453 12.989977836608887 C20.363819122314453 13.032185554504395 20.356098175048828 13.069290161132812 20.34090805053711 13.101163864135742 A0.1540185511112213 0.1540185511112213 0.0 0 1 20.275291442871094 13.172508239746094 C20.348005294799805 13.195169448852539 20.384239196777344 13.254934310913086 20.384239196777344 13.352051734924316 L20.384239196777344 13.644898414611816 L20.09001922607422 13.644898414611816 L20.09001922607422 13.415302276611328 C20.09001922607422 13.345452308654785 20.073959350585938 13.333250045776367 20.01905059814453 13.328145027160645 L19.96215057373047 13.32777214050293 L19.96215057373047 13.32777214050293 M19.96215057373047 13.117849349975586 C19.964763641357422 13.117599487304688 20.021913528442383 13.117225646972656 20.024654388427734 13.116727828979492 C20.138206481933594 13.099047660827637 20.11343002319336 12.950010299682617 20.025400161743164 12.950010299682617 C19.98331642150879 12.950010299682617 19.96215057373047 12.992342948913574 19.96215057373047 13.07663631439209 L19.96215057373047 13.117849349975586 M19.464359283447266 13.056092262268066 C19.464359283447266 13.26302719116211 19.416173934936523 13.417543411254883 19.32017707824707 13.519641876220703 C19.235759735107422 13.60991096496582 19.121957778930664 13.655107498168945 18.978771209716797 13.655107498168945 A0.5048869848251343 0.5048869848251343 0.0 0 1 18.6419734954834 13.53147029876709 C18.53788185119629 13.441201210021973 18.485836029052734 13.324036598205566 18.485836029052734 13.179854393005371 L18.485836029052734 13.141505241394043 C18.485836029052734 13.001182556152344 18.540746688842773 12.88837718963623 18.65068817138672 12.803088188171387 C18.746685028076172 12.730374336242676 18.860610961914062 12.69414234161377 18.992094039916992 12.69414234161377 C19.065555572509766 12.69414234161377 19.13503074645996 12.707091331481934 19.200275421142578 12.733113288879395 C19.265392303466797 12.759011268615723 19.318185806274414 12.796613693237305 19.3585262298584 12.845669746398926 L19.15843963623047 13.035299301147461 A0.2689410448074341 0.2689410448074341 0.0 0 0 19.076013565063477 12.97939395904541 L19.02596092224121 12.964826583862305 L18.989229202270508 12.960468292236328 C18.933326721191406 12.960468292236328 18.88638687133789 12.98076343536377 18.848657608032227 13.021478652954102 C18.810684204101562 13.062192916870117 18.79200553894043 13.115856170654297 18.79200553894043 13.182469367980957 C18.79200553894043 13.23849868774414 18.81267547607422 13.28606128692627 18.853763580322266 13.325282096862793 C18.894851684570312 13.364377975463867 18.940048217773438 13.384175300598145 18.989229202270508 13.384175300598145 C19.019609451293945 13.384175300598145 19.04812240600586 13.376081466674805 19.074644088745117 13.359895706176758 C19.101163864135742 13.343708992004395 19.123079299926758 13.318931579589844 19.140758514404297 13.285563468933105 L18.925729751586914 13.285563468933105 L18.925729751586914 13.055967330932617 L19.464359283447266 13.055967330932617 L19.464359283447266 13.056092262268066 L19.464359283447266 13.056092262268066 M18.26408576965332 13.331258773803711 C18.26408576965332 13.43422794342041 18.235198974609375 13.514785766601562 18.17730140686035 13.572558403015137 C18.11554527282715 13.63431453704834 18.026023864746094 13.665193557739258 17.90935707092285 13.665193557739258 C17.800661087036133 13.665193557739258 17.711885452270508 13.630455017089844 17.643030166625977 13.56072998046875 A0.3184959292411804 0.3184959292411804 0.0 0 1 17.550395965576172 13.331133842468262 L17.550395965576172 12.707215309143066 L17.846105575561523 12.707215309143066 L17.846105575561523 13.331133842468262 C17.846105575561523 13.347818374633789 17.851959228515625 13.363631248474121 17.863910675048828 13.378198623657227 C17.87262725830078 13.386042594909668 17.886573791503906 13.391521453857422 17.904998779296875 13.394509315490723 A0.06723526120185852 0.06723526120185852 0.0 0 0 17.947830200195312 13.37745189666748 A0.057274483144283295 0.057274483144283295 0.0 0 0 17.96849822998047 13.331133842468262 L17.96849822998047 12.707215309143066 L18.264209747314453 12.707215309143066 L18.264209747314453 13.331258773803711 L18.26408576965332 13.331258773803711 L18.26408576965332 13.331258773803711 M17.29303550720215 13.362136840820312 C17.29303550720215 13.444562911987305 17.2647705078125 13.512295722961426 17.20836639404297 13.56521224975586 C17.15196418762207 13.618253707885742 17.07825469970703 13.644773483276367 16.98711395263672 13.644773483276367 L16.78989028930664 13.644773483276367 L16.78989028930664 13.37247085571289 L16.895723342895508 13.37247085571289 C16.939924240112305 13.37247085571289 16.968935012817383 13.368112564086914 16.982755661010742 13.359272956848145 C16.992467880249023 13.34956169128418 16.997323989868164 13.325032234191895 16.997323989868164 13.285688400268555 L16.997323989868164 12.707340240478516 L17.29303550720215 12.707340240478516 L17.29303550720215 13.362136840820312 L17.29303550720215 13.362136840820312" fill="black" fill-opacity="1.0" filling="0"/>
<path animation_id="7" d="M7.368984699249268 9.580900192260742 L16.371788024902344 9.580900192260742 L16.371788024902344 14.473760604858398 L7.368984699249268 14.473760604858398 L7.368984699249268 9.580900192260742" fill="none" filling="0" stroke="black" stroke-opacity="1.0" stroke-width=".3"/>
<path animation_id="8" d="M13.204880714416504 12.69214916229248 L13.208740234375 12.69214916229248 C13.216336250305176 12.69214916229248 13.230405807495117 12.701239585876465 13.25107479095459 12.719292640686035 C13.271492958068848 12.737222671508789 13.29041862487793 12.75701904296875 13.306979179382324 12.77893352508545 C13.324036598205566 12.80059814453125 13.332254409790039 12.816784858703613 13.332254409790039 12.82798957824707 L13.332254409790039 12.829732894897461 L13.131420135498047 13.192305564880371 A0.43204882740974426 0.43204882740974426 0.0 0 1 13.099047660827637 13.245595932006836 C13.084480285644531 13.267260551452637 13.077134132385254 13.280956268310547 13.077134132385254 13.28780460357666 C13.077134132385254 13.292909622192383 13.081741333007812 13.30162525177002 13.090954780578613 13.314200401306152 C13.090954780578613 13.33262825012207 13.10141372680664 13.342214584350586 13.121583938598633 13.342214584350586 C13.142501831054688 13.342214584350586 13.161676406860352 13.332752227783203 13.17997932434082 13.314200401306152 C13.212102890014648 13.30162525177002 13.238872528076172 13.291166305541992 13.260661125183105 13.28207778930664 C13.282450675964355 13.272987365722656 13.295648574829102 13.267633438110352 13.299509048461914 13.265517234802246 L13.295648574829102 13.269500732421875 L13.28954792022705 13.2772216796875 C13.28469181060791 13.303243637084961 13.26738452911377 13.329266548156738 13.237751960754395 13.354541778564453 A0.3807508051395416 0.3807508051395416 0.0 0 1 13.130797386169434 13.416921615600586 A0.3132665157318115 0.3132665157318115 0.0 0 1 13.014256477355957 13.441574096679688 C12.976778984069824 13.441574096679688 12.945154190063477 13.430742263793945 12.919878005981445 13.409574508666992 C12.895100593566895 13.38815975189209 12.88215160369873 13.356410026550293 12.88215160369873 13.31395149230957 C12.88215160369873 13.311461448669434 12.882899284362793 13.30585765838623 12.884143829345703 13.296271324157715 C12.885637283325195 13.287181854248047 12.886136054992676 13.280707359313965 12.886136054992676 13.27709674835205 L13.090954780578613 12.846043586730957 A0.057274483144283295 0.057274483144283295 0.0 0 0 13.054472923278809 12.833468437194824 C13.019237518310547 12.833468437194824 12.98561954498291 12.856377601623535 12.952126502990723 12.902322769165039 C12.919007301330566 12.948141098022461 12.868454933166504 13.027953147888184 12.799851417541504 13.141380310058594 C12.731743812561035 13.255058288574219 12.672228813171387 13.34022331237793 12.622300148010254 13.39699935913086 C12.57199764251709 13.453651428222656 12.520699501037598 13.482039451599121 12.46741008758545 13.482039451599121 L12.455207824707031 13.482039451599121 C12.434538841247559 13.459005355834961 12.411131858825684 13.424640655517578 12.384984970092773 13.379817008972168 C12.358962059020996 13.334620475769043 12.345888137817383 13.297765731811523 12.345888137817383 13.269376754760742 A0.0485587976872921 0.0485587976872921 0.0 0 1 12.364067077636719 13.228538513183594 C12.387474060058594 13.189441680908203 12.41001033782959 13.169769287109375 12.432921409606934 13.169769287109375 C12.445122718811035 13.169769287109375 12.478117942810059 13.183216094970703 12.53215503692627 13.210234642028809 C12.543360710144043 13.230903625488281 12.55817699432373 13.240988731384277 12.576604843139648 13.240988731384277 C12.612837791442871 13.240988731384277 12.657785415649414 13.210981369018555 12.711074829101562 13.150469779968262 C12.764116287231445 13.090083122253418 12.829981803894043 13.005914688110352 12.90829849243164 12.897964477539062 C12.986616134643555 12.789641380310059 13.039158821105957 12.721035957336426 13.066551208496094 12.692025184631348 C13.083857536315918 12.67982292175293 13.106642723083496 12.673847198486328 13.135404586791992 12.673847198486328 C13.172259330749512 12.673971176147461 13.19554328918457 12.679947853088379 13.204880714416504 12.69214916229248 L13.204880714416504 12.69214916229248 M13.765921592712402 12.910913467407227 C13.785096168518066 12.898711204528809 13.79991340637207 12.88352108001709 13.809749603271484 12.865965843200684 C13.819709777832031 12.848036766052246 13.824565887451172 12.833966255187988 13.824565887451172 12.823881149291992 C13.824565887451172 12.818402290344238 13.818465232849121 12.816161155700684 13.806387901306152 12.816161155700684 C13.785221099853516 12.816161155700684 13.752848625183105 12.835335731506348 13.708646774291992 12.873559951782227 C13.664446830749512 12.912034034729004 13.615513801574707 12.969681739807129 13.561476707458496 13.046380043029785 C13.652742385864258 13.007160186767578 13.72084903717041 12.96196174621582 13.765921592712402 12.910913467407227 L13.765921592712402 12.910913467407227 M13.873124122619629 13.001307487487793 C13.797921180725098 13.052356719970703 13.689224243164062 13.10103988647461 13.54703426361084 13.146859169006348 C13.549274444580078 13.188819885253906 13.559733390808105 13.22119140625 13.57890796661377 13.244475364685059 C13.59758472442627 13.267509460449219 13.623607635498047 13.278840065002441 13.656477928161621 13.278840065002441 C13.745003700256348 13.278840065002441 13.879972457885742 13.20625114440918 14.06163215637207 13.060699462890625 L14.077943801879883 13.133661270141602 C13.996015548706055 13.234638214111328 13.910104751586914 13.311959266662598 13.819709777832031 13.365249633789062 C13.729440689086914 13.418664932250977 13.648011207580566 13.44530963897705 13.575546264648438 13.44530963897705 C13.511548042297363 13.44530963897705 13.460000991821289 13.42501449584961 13.420656204223633 13.38492202758789 C13.380813598632812 13.344332695007324 13.360891342163086 13.287679672241211 13.360891342163086 13.214468955993652 C13.360891342163086 13.175869941711426 13.368860244750977 13.12457275390625 13.385170936584473 13.060823440551758 C13.395132064819336 13.021478652954102 13.416546821594238 12.980265617370605 13.449418067932129 12.936936378479004 C13.481790542602539 12.893731117248535 13.52088737487793 12.85426139831543 13.566332817077637 12.817780494689941 C13.612277030944824 12.781672477722168 13.659217834472656 12.75403118133545 13.707651138305664 12.734731674194336 C13.774763107299805 12.710453033447266 13.830667495727539 12.698375701904297 13.875740051269531 12.698375701904297 C13.919069290161133 12.698375701904297 13.952312469482422 12.708709716796875 13.975970268249512 12.730125427246094 C13.999377250671387 12.75129222869873 14.011205673217773 12.777688026428223 14.011205673217773 12.80943775177002 C14.011205673217773 12.839818954467773 13.999004364013672 12.872564315795898 13.974724769592285 12.907675743103027 A0.3498723804950714 0.3498723804950714 0.0 0 1 13.873124122619629 13.001307487487793 M14.678827285766602 12.961215019226074 C14.646953582763672 12.974413871765137 14.611218452453613 13.001307487487793 14.570629119873047 13.041648864746094 C14.530536651611328 13.082239151000977 14.486210823059082 13.130797386169434 14.439022064208984 13.18744945526123 A2.505136251449585 2.505136251449585 0.0 0 1 14.348751068115234 13.291788101196289 C14.29035758972168 13.382308006286621 14.241798400878906 13.427878379821777 14.202826499938965 13.427878379821777 C14.170454025268555 13.427878379821777 14.153894424438477 13.393512725830078 14.153894424438477 13.32465934753418 C14.153894424438477 13.313453674316406 14.155637741088867 13.297640800476074 14.1589994430542 13.27659797668457 C14.162361145019531 13.255681037902832 14.164851188659668 13.23849868774414 14.166594505310059 13.225051879882812 C14.166594505310059 13.135902404785156 14.210421562194824 13.028202056884766 14.298200607299805 12.901201248168945 C14.326838493347168 12.861358642578125 14.35024642944336 12.833717346191406 14.367552757263184 12.817780494689941 A0.10658033937215805 0.10658033937215805 0.0 0 1 14.418353080749512 12.788519859313965 A0.4918135106563568 0.4918135106563568 0.0 0 1 14.50277042388916 12.783414840698242 C14.551454544067383 12.783414840698242 14.575485229492188 12.796862602233887 14.575485229492188 12.824006080627441 C14.575485229492188 12.841188430786133 14.565275192260742 12.8631010055542 14.544357299804688 12.889373779296875 C14.523438453674316 12.91601848602295 14.494552612304688 12.948888778686523 14.45657730102539 12.987859725952148 A2.2972049713134766 2.2972049713134766 0.0 0 0 14.385108947753906 13.064558982849121 C14.351739883422852 13.10714054107666 14.334806442260742 13.135031700134277 14.334806442260742 13.147979736328125 C14.334806442260742 13.14897632598877 14.33505630493164 13.150968551635742 14.335554122924805 13.152960777282715 C14.33630084991455 13.15507698059082 14.337297439575195 13.155948638916016 14.338915824890137 13.155948638916016 C14.348627090454102 13.155948638916016 14.364191055297852 13.145115852355957 14.385108947753906 13.123576164245605 C14.404532432556152 13.103653907775879 14.428936004638672 13.078752517700195 14.457572937011719 13.047874450683594 A2.0367302894592285 2.0367302894592285 0.0 0 1 14.648695945739746 12.870448112487793 C14.670360565185547 12.851272583007812 14.71580696105957 12.8191499710083 14.786154747009277 12.773704528808594 C14.856378555297852 12.728506088256836 14.904314994812012 12.702733993530273 14.930336952209473 12.696383476257324 C14.941791534423828 12.696383476257324 14.955612182617188 12.713191986083984 14.972172737121582 12.746561050415039 C14.98873233795166 12.780302047729492 14.996700286865234 12.810807228088379 14.996700286865234 12.838075637817383 A0.05615389347076416 0.05615389347076416 0.0 0 1 14.988981246948242 12.870448112487793 C14.978273391723633 12.887007713317871 14.952749252319336 12.92074966430664 14.912406921386719 12.972421646118164 C14.872066497802734 13.024092674255371 14.84044075012207 13.06854248046875 14.818029403686523 13.106393814086914 C14.795368194580078 13.144245147705078 14.784286499023438 13.177613258361816 14.784286499023438 13.206748962402344 C14.784286499023438 13.208118438720703 14.784785270690918 13.209612846374512 14.786528587341309 13.212475776672363 C14.7880220413208 13.214966773986816 14.788769721984863 13.217206954956055 14.788769721984863 13.219324111938477 C14.812301635742188 13.194671630859375 14.846417427062988 13.156820297241211 14.892112731933594 13.105523109436035 C14.937309265136719 13.054224014282227 14.977775573730469 13.010272026062012 15.013509750366211 12.97329330444336 C15.049243927001953 12.936064720153809 15.086472511291504 12.901700019836426 15.124696731567383 12.870573043823242 C15.145614624023438 12.852394104003906 15.191309928894043 12.820395469665527 15.262155532836914 12.774575233459473 C15.33262825012207 12.728880882263184 15.381061553955078 12.702857971191406 15.406586647033691 12.696507453918457 C15.413683891296387 12.696507453918457 15.422150611877441 12.70422649383545 15.432609558105469 12.720040321350098 C15.44306755065918 12.735604286193848 15.452281951904297 12.754404067993164 15.460125923156738 12.777066230773926 C15.467720985412598 12.799352645874023 15.47158145904541 12.82002067565918 15.47158145904541 12.838199615478516 A0.10496171563863754 0.10496171563863754 0.0 0 1 15.465728759765625 12.870573043823242 C15.453028678894043 12.890493392944336 15.424142837524414 12.9251070022583 15.379693031311035 12.973666191101074 A1.5812736749649048 1.5812736749649048 0.0 0 0 15.277345657348633 13.09344482421875 C15.254186630249023 13.124821662902832 15.2428560256958 13.155200958251953 15.2428560256958 13.184585571289062 A0.024901948869228363 0.024901948869228363 0.0 0 0 15.243852615356445 13.19068717956543 C15.24435043334961 13.193052291870117 15.24484920501709 13.195293426513672 15.24484920501709 13.197036743164062 C15.24484920501709 13.202141761779785 15.246591567993164 13.207246780395508 15.250452041625977 13.21185302734375 C15.254311561584473 13.216585159301758 15.258171081542969 13.21944808959961 15.263151168823242 13.21944808959961 C15.287679672241211 13.21944808959961 15.332254409790039 13.195417404174805 15.396376609802246 13.147481918334961 C15.4608736038208 13.099919319152832 15.508186340332031 13.057336807250977 15.538692474365234 13.020482063293457 L15.566706657409668 13.109382629394531 C15.522504806518555 13.158936500549316 15.474818229675293 13.207494735717773 15.424890518188477 13.25543212890625 A1.151092529296875 1.151092529296875 0.0 0 1 15.267509460449219 13.382680892944336 C15.212849617004395 13.419535636901855 15.165163040161133 13.437589645385742 15.124945640563965 13.437589645385742 C15.069538116455078 13.437589645385742 15.035423278808594 13.401233673095703 15.022350311279297 13.328393936157227 A0.05702546238899231 0.05702546238899231 0.0 0 0 15.01986026763916 13.314449310302734 C15.018614768981934 13.308722496032715 15.017618179321289 13.30473804473877 15.017618179321289 13.302247047424316 C15.017618179321289 13.260786056518555 15.030692100524902 13.205877304077148 15.05671501159668 13.137521743774414 C15.082488059997559 13.069415092468262 15.115110397338867 13.01052188873291 15.153458595275879 12.961339950561523 C15.122082710266113 12.97453784942627 15.086347579956055 13.001806259155273 15.045757293701172 13.042644500732422 C15.005415916442871 13.083857536315918 14.961339950561523 13.132540702819824 14.914897918701172 13.188570976257324 C14.867958068847656 13.244599342346191 14.838324546813965 13.279088973999023 14.8253755569458 13.291788101196289 C14.75577449798584 13.391894340515137 14.700616836547852 13.441699028015137 14.661022186279297 13.441699028015137 C14.617941856384277 13.441699028015137 14.587063789367676 13.391894340515137 14.568138122558594 13.291788101196289 C14.568138122558594 13.28780460357666 14.567889213562012 13.281702995300293 14.567142486572266 13.272987365722656 A0.2689410448074341 0.2689410448074341 0.0 0 1 14.565896987915039 13.2553071975708 C14.565896987915039 13.214966773986816 14.575858116149902 13.16752815246582 14.595032691955566 13.113615036010742 C14.614331245422363 13.059453964233398 14.642345428466797 13.00877857208252 14.678827285766602 12.961215019226074 L14.678827285766602 12.961215019226074 M14.53091049194336 12.669862747192383 C14.473012924194336 12.665878295898438 14.444127082824707 12.654672622680664 14.444127082824707 12.637365341186523 C14.444127082824707 12.613210678100586 14.500778198242188 12.580713272094727 14.614580154418945 12.53962516784668 A3.3847973346710205 3.3847973346710205 0.0 0 1 14.997323036193848 12.427816390991211 C15.138890266418457 12.394695281982422 15.239245414733887 12.378260612487793 15.2988862991333 12.378260612487793 C15.360892295837402 12.406648635864258 15.392019271850586 12.439021110534668 15.392019271850586 12.47525405883789 C15.392019271850586 12.509244918823242 15.373093605041504 12.549835205078125 15.334869384765625 12.597148895263672 C15.257299423217773 12.564652442932129 15.152710914611816 12.548465728759766 15.021602630615234 12.548465728759766 C14.9624605178833 12.548465728759766 14.903194427490234 12.552824020385742 14.844051361083984 12.561539649963379 C14.784411430358887 12.570255279541016 14.727760314941406 12.583826065063477 14.673846244812012 12.602005004882812 C14.61993408203125 12.620182991027832 14.572247505187988 12.64296817779541 14.53091049194336 12.669862747192383 L14.53091049194336 12.669862747192383 M13.575920104980469 10.912282943725586 L13.282201766967773 11.022598266601562 L13.268132209777832 11.028450012207031 C13.246716499328613 11.028450012207031 13.236257553100586 11.013882637023926 13.236257553100586 10.984374046325684 C13.236257553100586 10.958724975585938 13.244973182678223 10.92821979522705 13.262777328491211 10.893856048583984 C13.280832290649414 10.859491348266602 13.300752639770508 10.837203979492188 13.32328987121582 10.82811450958252 C13.379941940307617 10.804830551147461 13.450912475585938 10.768972396850586 13.536824226379395 10.721160888671875 A4.622050762176514 4.622050762176514 0.0 0 1 13.717737197875977 10.623918533325195 C13.752225875854492 10.60748291015625 13.785594940185547 10.598767280578613 13.816970825195312 10.598767280578613 C13.866775512695312 10.598767280578613 13.907489776611328 10.625910758972168 13.938989639282227 10.679574966430664 C13.952810287475586 10.709083557128906 13.9596586227417 10.742949485778809 13.9596586227417 10.781672477722168 C13.9596586227417 10.822386741638184 13.949947357177734 10.864471435546875 13.93027400970459 10.907052993774414 C13.910353660583496 10.949636459350586 13.883832931518555 10.996078491210938 13.849966049194336 11.046504974365234 C13.816349029541016 11.096308708190918 13.794559478759766 11.13029956817627 13.785096168518066 11.147605895996094 L13.430742263793945 11.760319709777832 C13.300877571105957 11.968499183654785 13.236257553100586 12.15439224243164 13.236257553100586 12.318371772766113 C13.236257553100586 12.322232246398926 13.23725414276123 12.330947875976562 13.239121437072754 12.343025207519531 C13.241113662719727 12.3551025390625 13.241984367370605 12.3643159866333 13.241984367370605 12.37016773223877 C13.241984367370605 12.404905319213867 13.22928524017334 12.422462463378906 13.204258918762207 12.422462463378906 C13.18134880065918 12.422462463378906 13.100915908813477 12.376891136169434 12.963456153869629 12.28537654876709 C12.932080268859863 12.265082359313965 12.916516304016113 12.228724479675293 12.916516304016113 12.175435066223145 C12.916516304016113 12.10035514831543 12.937932968139648 12.0032377243042 12.981013298034668 11.884081840515137 C13.024092674255371 11.765049934387207 13.066675186157227 11.666314125061035 13.108634948730469 11.588371276855469 A5.7156195640563965 5.7156195640563965 0.0 0 1 13.303866386413574 11.303243637084961 C13.371973037719727 11.209860801696777 13.430118560791016 11.130423545837402 13.477558135986328 11.064682960510254 C13.52511978149414 10.998941421508789 13.557991027832031 10.948142051696777 13.575920104980469 10.912282943725586 L13.575920104980469 10.912282943725586 M14.580339431762695 11.002303123474121 C14.483098030090332 11.057958602905273 14.380502700805664 11.140260696411133 14.271929740905762 11.248708724975586 A1.7055344581604004 1.7055344581604004 0.0 0 0 14.003735542297363 11.593351364135742 C13.933262825012207 11.714374542236328 13.897902488708496 11.822199821472168 13.897902488708496 11.916703224182129 C13.897902488708496 11.987797737121582 13.921060562133789 12.04793643951416 13.967503547668457 12.096744537353516 C14.020793914794922 12.096744537353516 14.085662841796875 12.074457168579102 14.161613464355469 12.029882431030273 C14.238186836242676 11.98493480682373 14.317998886108398 11.923924446105957 14.402665138244629 11.846479415893555 A2.2657039165496826 2.2657039165496826 0.0 0 0 14.642470359802246 11.588495254516602 A1.9208117723464966 1.9208117723464966 0.0 0 0 14.83658218383789 11.295648574829102 C14.87480640411377 11.200274467468262 14.893980026245117 11.124820709228516 14.893980026245117 11.069165229797363 C14.893980026245117 10.990350723266602 14.865965843200684 10.94527816772461 14.810309410095215 10.932703018188477 L14.795244216918945 10.932703018188477 A0.07918819785118103 0.07918819785118103 0.0 0 0 14.743697166442871 10.95013427734375 A1.0695387125015259 1.0695387125015259 0.0 0 0 14.676337242126465 11.011143684387207 C14.645458221435547 11.040154457092285 14.625039100646973 11.054722785949707 14.615327835083008 11.054722785949707 C14.610471725463867 11.054722785949707 14.604121208190918 11.049866676330566 14.596402168273926 11.039283752441406 A0.09051858633756638 0.09051858633756638 0.0 0 1 14.580339431762695 11.002303123474121 L14.580339431762695 11.002303123474121 M14.705098152160645 10.575483322143555 A0.4059017598628998 0.4059017598628998 0.0 0 1 14.76324462890625 10.572620391845703 A0.29882338643074036 0.29882338643074036 0.0 0 1 14.889995574951172 10.604121208190918 C14.934694290161133 10.625411987304688 14.97142505645752 10.650564193725586 15.000934600830078 10.679574966430664 C15.030069351196289 10.709083557128906 15.045010566711426 10.735230445861816 15.045010566711426 10.75838851928711 C15.045010566711426 10.791259765625 15.01799201965332 10.808317184448242 14.964327812194824 10.808317184448242 C15.004919052124023 10.81553840637207 15.037540435791016 10.841188430786133 15.061071395874023 10.885265350341797 C15.08535099029541 10.929340362548828 15.097304344177246 10.992218017578125 15.097304344177246 11.074519157409668 C15.097304344177246 11.121459007263184 15.094441413879395 11.173752784729004 15.088837623596191 11.23189926147461 C15.069414138793945 11.397000312805176 15.005415916442871 11.5668306350708 14.896470069885254 11.741019248962402 A1.49884831905365 1.49884831905365 0.0 0 1 14.4891996383667 12.174687385559082 C14.326465606689453 12.289361000061035 14.161364555358887 12.346510887145996 13.994023323059082 12.346510887145996 L13.944219589233398 12.346510887145996 C13.833281517028809 12.336798667907715 13.747245788574219 12.2898588180542 13.685737609863281 12.204071044921875 C13.624229431152344 12.11890697479248 13.593101501464844 12.011455535888672 13.593101501464844 11.882213592529297 C13.593101501464844 11.805765151977539 13.604308128356934 11.725456237792969 13.627093315124512 11.640291213989258 C13.649256706237793 11.555127143859863 13.682748794555664 11.470459938049316 13.726825714111328 11.385295867919922 C13.770901679992676 11.300131797790527 13.823570251464844 11.220694541931152 13.884206771850586 11.147605895996094 A1.5098052024841309 1.5098052024841309 0.0 0 1 14.150781631469727 10.883272171020508 A1.9660089015960693 1.9660089015960693 0.0 0 1 14.447737693786621 10.689659118652344 A1.8239432573318481 1.8239432573318481 0.0 0 1 14.705098152160645 10.575483322143555 L14.705098152160645 10.575483322143555" fill="black" fill-opacity="1.0" filling="0"/></svg>