<?xml version="1.0" encoding="iso-8859-1"?><svg height="200px" viewBox="0.0 0.0 24.0 24.0" width="200px" xmlns="http://www.w3.org/2000/svg"><path animation_id="0" d="M9.851916313171387 11.606751441955566 L9.851916313171387 9.105334281921387 L9.381791114807129 9.105334281921387 L8.50954818725586 10.347172737121582 L7.653073787689209 9.10632038116455 L7.167180061340332 9.10632038116455 L7.167180061340332 11.607736587524414 L7.653073787689209 11.607736587524414 L7.653073787689209 9.961809158325195 L8.358753204345703 11.003572463989258 L8.6603422164917 11.003572463989258 L9.365036010742188 9.962794303894043 L9.365036010742188 11.607736587524414 L9.851916313171387 11.606751441955566 M11.110508918762207 11.606751441955566 L11.59738826751709 11.606751441955566 L11.59738826751709 9.105334281921387 L11.110508918762207 9.105334281921387 L11.110508918762207 11.606751441955566 M15.306147575378418 11.35444164276123 L15.306147575378418 10.801527976989746 L14.820253372192383 10.801527976989746 L14.820253372192383 11.120857238769531 L13.34286117553711 11.120857238769531 L13.34286117553711 9.592214584350586 L14.820253372192383 9.592214584350586 L14.820253372192383 9.911543846130371 L15.306147575378418 9.911543846130371 L15.306147575378418 9.357645034790039 C15.306147575378418 9.205863952636719 15.205617904663086 9.105334281921387 15.05482292175293 9.105334281921387 L13.108291625976562 9.105334281921387 C12.9732666015625 9.105334281921387 12.872735977172852 9.205863952636719 12.872735977172852 9.357645034790039 L12.872735977172852 11.353455543518066 C12.872735977172852 11.487495422363281 12.9732666015625 11.605766296386719 13.108291625976562 11.605766296386719 L15.071578025817871 11.605766296386719 C15.205617904663086 11.605766296386719 15.306147575378418 11.504250526428223 15.306147575378418 11.353455543518066 L15.306147575378418 11.35444164276123 M19.015893936157227 11.606751441955566 L18.276702880859375 10.599482536315918 L18.763582229614258 10.599482536315918 A0.24639645218849182 0.24639645218849182 0.0 0 0 19.015893936157227 10.347172737121582 L19.015893936157227 9.340888977050781 C19.015893936157227 9.189109802246094 18.915363311767578 9.088579177856445 18.763582229614258 9.088579177856445 L16.56572723388672 9.088579177856445 L16.56572723388672 11.589996337890625 L17.051620483398438 11.589996337890625 L17.051620483398438 10.582727432250977 L17.655784606933594 10.582727432250977 L18.394973754882812 11.589996337890625 L19.015893936157227 11.589996337890625 L19.015893936157227 11.606751441955566 M17.051620483398438 9.592214584350586 L18.52901268005371 9.592214584350586 L18.52901268005371 10.112603187561035 L17.051620483398438 10.112603187561035 L17.051620483398438 9.592214584350586 M22.724651336669922 11.35444164276123 L22.724651336669922 9.357645034790039 C22.724651336669922 9.205863952636719 22.624122619628906 9.105334281921387 22.47332763671875 9.105334281921387 L20.50806999206543 9.105334281921387 C20.37403106689453 9.105334281921387 20.27349853515625 9.205863952636719 20.27349853515625 9.357645034790039 L20.27349853515625 11.353455543518066 C20.27349853515625 11.487495422363281 20.37403106689453 11.605766296386719 20.50806999206543 11.605766296386719 L22.489097595214844 11.605766296386719 C22.623138427734375 11.605766296386719 22.72366714477539 11.504250526428223 22.72366714477539 11.353455543518066 L22.724651336669922 11.35444164276123 M20.76136589050293 9.592214584350586 L22.23777198791504 9.592214584350586 L22.23777198791504 11.119872093200684 L20.76136589050293 11.119872093200684 L20.76136589050293 9.592214584350586 M9.61734676361084 12.88111400604248 L9.61734676361084 12.378464698791504 L7.167180061340332 12.378464698791504 L7.167180061340332 14.878896713256836 L7.653073787689209 14.878896713256836 L7.653073787689209 13.888381958007812 L9.114697456359863 13.888381958007812 L9.114697456359863 13.385733604431152 L7.653073787689209 13.385733604431152 L7.653073787689209 12.88111400604248 L9.61734676361084 12.88111400604248 M12.738697052001953 14.644327163696289 L12.738697052001953 12.629789352416992 C12.738697052001953 12.478994369506836 12.638166427612305 12.378464698791504 12.487372398376465 12.378464698791504 L10.539855003356934 12.378464698791504 C10.405815124511719 12.378464698791504 10.305285453796387 12.478994369506836 10.305285453796387 12.629789352416992 L10.305285453796387 14.627571105957031 C10.305285453796387 14.761611938476562 10.405815124511719 14.878896713256836 10.539855003356934 14.878896713256836 L12.504127502441406 14.878896713256836 A0.22964148223400116 0.22964148223400116 0.0 0 0 12.738697052001953 14.644327163696289 M10.79216480255127 12.88111400604248 L12.251816749572754 12.88111400604248 L12.251816749572754 14.408771514892578 L10.775409698486328 14.408771514892578 L10.775409698486328 12.88111400604248 L10.79216480255127 12.88111400604248 M16.078845977783203 14.644327163696289 L16.078845977783203 14.09042739868164 L15.591967582702637 14.09042739868164 L15.591967582702637 14.408771514892578 L14.114574432373047 14.408771514892578 L14.114574432373047 12.88111400604248 L15.591967582702637 12.88111400604248 L15.591967582702637 13.200443267822266 L16.078845977783203 13.200443267822266 L16.078845977783203 12.646544456481934 C16.078845977783203 12.495749473571777 15.978317260742188 12.395219802856445 15.8265380859375 12.395219802856445 L13.863249778747559 12.395219802856445 C13.72921085357666 12.395219802856445 13.628681182861328 12.495749473571777 13.628681182861328 12.646544456481934 L13.628681182861328 14.645312309265137 C13.628681182861328 14.779352188110352 13.72921085357666 14.896636962890625 13.863249778747559 14.896636962890625 L15.8265380859375 14.896636962890625 C15.960577011108398 14.879881858825684 16.078845977783203 14.779352188110352 16.078845977783203 14.645312309265137 L16.078845977783203 14.644327163696289 M19.401256561279297 14.644327163696289 L19.401256561279297 12.377479553222656 L18.915363311767578 12.377479553222656 L18.915363311767578 14.392017364501953 L17.437971115112305 14.392017364501953 L17.437971115112305 12.378464698791504 L16.95108985900879 12.378464698791504 L16.95108985900879 14.627571105957031 C16.95108985900879 14.761611938476562 17.051620483398438 14.878896713256836 17.1866455078125 14.878896713256836 L19.149932861328125 14.878896713256836 C19.30072784423828 14.878896713256836 19.401256561279297 14.778366088867188 19.401256561279297 14.644327163696289 L19.401256561279297 14.644327163696289 M22.724651336669922 14.644327163696289 L22.724651336669922 13.653813362121582 A0.24639645218849182 0.24639645218849182 0.0 0 0 22.47332763671875 13.402488708496094 L20.76136589050293 13.402488708496094 L20.76136589050293 12.88111400604248 L22.23777198791504 12.88111400604248 L22.23777198791504 13.149192810058594 L22.724651336669922 13.149192810058594 L22.724651336669922 12.646544456481934 C22.724651336669922 12.49476432800293 22.624122619628906 12.394234657287598 22.47332763671875 12.394234657287598 L20.50806999206543 12.394234657287598 C20.37403106689453 12.394234657287598 20.27349853515625 12.49476432800293 20.27349853515625 12.64555835723877 L20.27349853515625 13.636072158813477 C20.27349853515625 13.770112037658691 20.37403106689453 13.887396812438965 20.50806999206543 13.887396812438965 L22.22003173828125 13.887396812438965 L22.22003173828125 14.407785415649414 L20.744609832763672 14.407785415649414 L20.744609832763672 14.156461715698242 L20.257732391357422 14.156461715698242 L20.257732391357422 14.659111022949219 C20.257732391357422 14.794136047363281 20.358261108398438 14.911420822143555 20.492300033569336 14.911420822143555 L22.456573486328125 14.911420822143555 C22.624122619628906 14.877910614013672 22.724651336669922 14.77738094329834 22.724651336669922 14.643341064453125 L22.724651336669922 14.644327163696289 M23.546630859375 10.045583724975586 C23.295307159423828 10.045583724975586 23.09326171875 9.844524383544922 23.09326171875 9.592214584350586 C23.09326171875 9.339903831481934 23.295307159423828 9.13884449005127 23.546630859375 9.13884449005127 C23.797954559326172 9.13884449005127 24.0 9.340888977050781 24.0 9.592214584350586 C24.0 9.843538284301758 23.798938751220703 10.045583724975586 23.546630859375 10.045583724975586 M23.546630859375 9.172354698181152 C23.312061309814453 9.172354698181152 23.127756118774414 9.357645034790039 23.127756118774414 9.592214584350586 C23.127756118774414 9.826783180236816 23.312061309814453 9.995318412780762 23.546630859375 9.995318412780762 C23.781200408935547 9.995318412780762 23.950721740722656 9.811014175415039 23.950721740722656 9.592214584350586 C23.950721740722656 9.357645034790039 23.782184600830078 9.172354698181152 23.546630859375 9.172354698181152 L23.546630859375 9.172354698181152 M23.664901733398438 9.878033638000488 L23.546630859375 9.625723838806152 L23.44610023498535 9.625723838806152 L23.44610023498535 9.878033638000488 L23.37908172607422 9.878033638000488 L23.37908172607422 9.30639362335205 L23.546630859375 9.30639362335205 C23.681655883789062 9.30639362335205 23.731922149658203 9.357645034790039 23.731922149658203 9.474928855895996 C23.731922149658203 9.558704376220703 23.698410034179688 9.608968734741211 23.613651275634766 9.625723838806152 L23.731922149658203 9.878033638000488 L23.664901733398438 9.878033638000488 M23.445114135742188 9.558704376220703 L23.545644760131836 9.558704376220703 C23.63040542602539 9.558704376220703 23.663915634155273 9.52519416809082 23.663915634155273 9.458173751831055 C23.663915634155273 9.391154289245605 23.63040542602539 9.357645034790039 23.545644760131836 9.357645034790039 L23.461870193481445 9.357645034790039 L23.461870193481445 9.558704376220703 L23.445114135742188 9.558704376220703 M5.790316581726074 9.10632038116455 L5.790316581726074 13.771097183227539 L4.666749000549316 13.771097183227539 L4.666749000549316 10.229887962341309 L1.1235685348510742 10.229887962341309 L1.1235685348510742 9.10632038116455 L5.790316581726074 9.10632038116455" fill="black" fill-opacity="1.0" filling="0"/>
<path animation_id="1" d="M4.6657633781433105 13.771097183227539 L4.6657633781433105 14.895650863647461 L0.0 14.895650863647461 L0.0 10.229887962341309 L1.1245536804199219 10.229887962341309 L1.1245536804199219 13.771097183227539 L4.6657633781433105 13.771097183227539" fill="black" fill-opacity="1.0" filling="0"/></svg>