<?xml version="1.0" encoding="iso-8859-1"?><svg height="200px" viewBox="0.0 0.0 24.0 24.0" width="200px" xmlns="http://www.w3.org/2000/svg"><path animation_id="0" d="M0.0 0.0 L24.0 0.0 L24.0 24.0 L0.0 24.0 L0.0 0.0" fill="black" fill-opacity="1.0" filling="0"/>
<path animation_id="1" d="M9.703292846679688 12.248645782470703 L10.284255981445312 12.248645782470703 A0.09593475610017776 0.09593475610017776 0.0 1 0 10.284255981445312 12.056777000427246 L9.799166679382324 12.056777000427246 A0.09587249904870987 0.09587249904870987 0.0 0 0 9.703292846679688 12.15264892578125 L9.703292846679688 12.248645782470703 M10.364191055297852 13.096183776855469 C10.478989601135254 13.20612621307373 10.374276161193848 13.361763954162598 10.220880508422852 13.29539966583252 C9.866899490356445 13.103778839111328 9.320799827575684 13.31220817565918 9.320799827575684 13.31220817565918 L9.322044372558594 13.31220817565918 C9.010272026062012 13.090954780578613 8.47986125946045 13.31220817565918 8.47986125946045 13.31220817565918 L8.478490829467773 13.31220817565918 C8.180041313171387 13.131046295166016 7.75633430480957 13.266762733459473 7.75633430480957 13.266762733459473 C7.67478084564209 13.302745819091797 7.639420032501221 13.211605072021484 7.704413890838623 13.173628807067871 C7.768038272857666 13.13640022277832 7.874992370605469 13.077631950378418 7.874992370605469 13.077631950378418 L7.890929698944092 13.069912910461426 C7.890929698944092 13.069912910461426 8.363319396972656 12.824254989624023 8.685176849365234 13.10714054107666 C8.685176849365234 13.10714054107666 9.21546459197998 12.81118106842041 9.537943840026855 13.10452651977539 C9.537943840026855 13.10415267944336 10.044200897216797 12.790263175964355 10.364191055297852 13.096183776855469 L10.364191055297852 13.096183776855469" fill="black" fill-opacity="1.0" filling="0"/>
<path animation_id="2" d="M10.28226375579834 12.52592945098877 C10.28226375579834 12.52592945098877 10.253376960754395 12.527422904968262 10.259603500366211 12.56315803527832 C10.26533031463623 12.596028327941895 10.290979385375977 12.66923999786377 10.290979385375977 12.66923999786377 C10.368922233581543 12.896346092224121 10.273548126220703 12.94839096069336 10.273548126220703 12.94839096069336 C9.996265411376953 12.762621879577637 9.552512168884277 13.011143684387207 9.552512168884277 13.011143684387207 C9.175497055053711 12.74319839477539 8.703729629516602 13.013633728027344 8.703729629516602 13.013633728027344 C8.409139633178711 12.78814697265625 8.016186714172363 12.92971420288086 8.016186714172363 12.92971420288086 C7.92616605758667 12.852394104003906 7.910851001739502 12.699121475219727 7.910851001739502 12.699121475219727 C7.861918926239014 12.418725967407227 7.84299373626709 12.334059715270996 7.84299373626709 12.334059715270996 L8.482599258422852 12.334059715270996 L8.482599258422852 12.392704010009766 C8.482599258422852 12.445745468139648 8.525555610656738 12.488576889038086 8.578597068786621 12.488576889038086 L9.60729694366455 12.488576889038086 A0.09587249904870987 0.09587249904870987 0.0 0 0 9.703292846679688 12.392704010009766 L9.703292846679688 12.334059715270996 L10.284255981445312 12.334059715270996 C10.337172508239746 12.334059715270996 10.380252838134766 12.376891136169434 10.380252838134766 12.429932594299316 C10.380252838134766 12.4829740524292 10.336051940917969 12.52592945098877 10.282886505126953 12.52592945098877 L10.28226375579834 12.52592945098877" fill="black" fill-opacity="1.0" filling="0"/>
<path animation_id="3" d="M9.62858772277832 12.50451374053955 C8.67235279083252 11.824939727783203 8.834465026855469 12.517836570739746 8.834465026855469 12.517836570739746 L8.813173294067383 12.52580451965332 C8.172446250915527 11.757828712463379 8.62130355834961 11.137271881103516 8.62130355834961 11.137271881103516 C8.62130355834961 11.137271881103516 8.97578239440918 10.95586109161377 9.791196823120117 10.940048217773438 C9.791196823120117 10.940048217773438 9.116976737976074 11.747618675231934 9.655357360839844 12.493805885314941 L9.62858772277832 12.50451374053955 L9.62858772277832 12.50451374053955 M8.69849967956543 11.21982192993164 C8.69849967956543 11.21982192993164 8.429309844970703 11.694328308105469 8.751790046691895 12.232584953308105 C8.751790046691895 12.232584953308105 8.771089553833008 11.940857887268066 9.386167526245117 12.208803176879883 C9.386167526245117 12.208803176879883 9.175621032714844 11.736910820007324 9.575422286987305 11.054597854614258 C9.575297355651855 11.054597854614258 9.030941009521484 11.077134132385254 8.69849967956543 11.21982192993164 L8.69849967956543 11.21982192993164" fill="black" fill-opacity="1.0" filling="0"/>
<path animation_id="4" d="M9.175497055053711 11.025338172912598 L9.175497055053711 10.70024299621582 C9.175497055053711 10.70024299621582 8.631762504577637 10.630891799926758 8.68779182434082 10.822759628295898 C8.68779182434082 10.822759628295898 8.379256248474121 10.865592002868652 8.189379692077637 10.961339950561523 C8.161115646362305 10.975658416748047 8.167092323303223 11.007035255432129 8.200087547302246 10.998568534851074 C8.200087547302246 10.998568534851074 8.64732551574707 10.876174926757812 9.14897632598877 11.015999794006348 L9.175497055053711 11.025338172912598 L9.175497055053711 11.025338172912598 M8.482475280761719 12.248645782470703 L7.885451316833496 12.248645782470703 A0.09593475610017776 0.09593475610017776 0.0 1 1 7.885451316833496 12.056777000427246 L8.386603355407715 12.056777000427246 A0.09587249904870987 0.09587249904870987 0.0 0 1 8.482475280761719 12.15264892578125 L8.482475280761719 12.248645782470703" fill="black" fill-opacity="1.0" filling="0"/>
<path animation_id="5" d="M8.22187614440918 12.067732810974121 L8.22187614440918 11.755836486816406 C8.22187614440918 11.755836486816406 8.016809463500977 11.728693008422852 7.811492443084717 11.898399353027344 C7.790076732635498 11.916080474853516 7.800784587860107 11.945590019226074 7.828674793243408 11.939861297607422 C7.828674793243408 11.939861297607422 8.057897567749023 11.910477638244629 8.195231437683105 12.062378883361816 L8.22187614440918 12.067732810974121 M10.116291999816895 12.066240310668945 L10.116291999816895 11.75459098815918 C10.116291999816895 11.75459098815918 9.911348342895508 11.727448463439941 9.70590877532959 11.89715576171875 C9.684617042541504 11.914835929870605 9.695323944091797 11.944219589233398 9.723340034484863 11.938492774963379 C9.723340034484863 11.938492774963379 9.952561378479004 11.909233093261719 10.08977222442627 12.061009407043457 L10.116291999816895 12.066240310668945 L10.116291999816895 12.066240310668945" fill="black" fill-opacity="1.0" filling="0"/>
<path animation_id="6" d="M11.251821517944336 11.869389533996582 C11.251821517944336 11.60555362701416 11.202515602111816 11.558737754821777 11.128556251525879 11.558737754821777 C11.08423137664795 11.558737754821777 11.007657051086426 11.543920516967773 11.007657051086426 11.506941795349121 C11.007657051086426 11.472452163696289 11.02247428894043 11.464982032775879 11.10141372680664 11.464982032775879 C11.222187042236328 11.464982032775879 11.342962265014648 11.48477840423584 11.463861465454102 11.48477840423584 C11.584759712219238 11.48477840423584 11.70541000366211 11.464982032775879 11.826309204101562 11.464982032775879 C12.257859230041504 11.464982032775879 12.524186134338379 11.558737754821777 12.524186134338379 11.876859664916992 C12.524186134338379 12.098735809326172 12.346635818481445 12.18016529083252 12.154267311096191 12.229596138000488 L12.154267311096191 12.234452247619629 C12.42296028137207 12.254124641418457 12.65990161895752 12.323226928710938 12.65990161895752 12.703106880187988 C12.65990161895752 12.974288940429688 12.430554389953613 13.181472778320312 11.838635444641113 13.181472778320312 C11.604432106018066 13.181472778320312 11.468717575073242 13.161800384521484 11.357779502868652 13.161800384521484 C11.271493911743164 13.161800384521484 11.234514236450195 13.181472778320312 11.172882080078125 13.181472778320312 C11.116105079650879 13.181472778320312 11.061819076538086 13.181472778320312 11.061819076538086 13.1493501663208 C11.061819076538086 13.100043296813965 11.106268882751465 13.102409362792969 11.148104667663574 13.08273696899414 C11.246716499328613 13.03604507446289 11.251696586608887 12.949760437011719 11.251696586608887 12.84367847442627 L11.251696586608887 11.869389533996582 L11.251821517944336 11.869389533996582 L11.251821517944336 11.869389533996582 M11.626595497131348 12.853141784667969 C11.626595497131348 12.969184875488281 11.633941650390625 13.050613403320312 11.85843276977539 13.050613403320312 C12.102471351623535 13.050613403320312 12.260350227355957 12.939425468444824 12.260350227355957 12.690406799316406 C12.260350227355957 12.362323760986328 12.00635051727295 12.31326675415039 11.722841262817383 12.31326675415039 C11.66855525970459 12.31326675415039 11.62671947479248 12.335429191589355 11.62671947479248 12.404407501220703 L11.62671947479248 12.853141784667969 L11.626595497131348 12.853141784667969 L11.626595497131348 12.853141784667969 M11.626595497131348 12.061633110046387 C11.626595497131348 12.175186157226562 11.70541000366211 12.209673881530762 11.838635444641113 12.209673881530762 C12.026022911071777 12.209673881530762 12.14194107055664 12.138205528259277 12.14194107055664 11.940733909606934 C12.14194107055664 11.748490333557129 12.028512954711914 11.57579517364502 11.801656723022461 11.57579517364502 C11.653738975524902 11.57579517364502 11.626595497131348 11.639918327331543 11.626595497131348 11.758201599121094 L11.626595497131348 12.061633110046387 L11.626595497131348 12.061633110046387 M12.91278076171875 12.352736473083496 C12.91278076171875 12.3082857131958 12.878292083740234 12.290979385375977 12.84367847442627 12.28848934173584 C12.8066987991333 12.285999298095703 12.772210121154785 12.281143188476562 12.772210121154785 12.236693382263184 C12.772210121154785 12.197347640991211 12.8191499710083 12.18240737915039 12.865840911865234 12.17755126953125 C12.937309265136719 12.169955253601074 13.080619812011719 12.118160247802734 13.14698314666748 12.086409568786621 C13.166656494140625 12.076448440551758 13.196290016174316 12.063998222351074 13.220942497253418 12.063998222351074 C13.233393669128418 12.063998222351074 13.240864753723145 12.086409568786621 13.240864753723145 12.118285179138184 L13.240864753723145 12.2836332321167 C13.297516822814941 12.231837272644043 13.405963897705078 12.063998222351074 13.489884376525879 12.063998222351074 C13.585880279541016 12.063998222351074 13.71163558959961 12.18240737915039 13.71163558959961 12.249019622802734 C13.71163558959961 12.305671691894531 13.632820129394531 12.463549613952637 13.56371784210205 12.463549613952637 C13.49461555480957 12.463549613952637 13.42800235748291 12.340285301208496 13.371350288391113 12.340285301208496 C13.289920806884766 12.340285301208496 13.245595932006836 12.404532432556152 13.245595932006836 12.508124351501465 L13.245595932006836 12.912531852722168 C13.245595932006836 13.038287162780762 13.294901847839355 13.065305709838867 13.341592788696289 13.082488059997559 C13.388532638549805 13.099794387817383 13.43783950805664 13.102161407470703 13.43783950805664 13.14188003540039 C13.43783950805664 13.166407585144043 13.430243492126465 13.18122386932373 13.376081466674805 13.18122386932373 C13.284940719604492 13.18122386932373 13.19367504119873 13.161551475524902 13.102534294128418 13.161551475524902 C13.011392593383789 13.161551475524902 12.919878005981445 13.18122386932373 12.828736305236816 13.18122386932373 C12.791757583618164 13.18122386932373 12.774450302124023 13.166407585144043 12.774450302124023 13.14188003540039 C12.774450302124023 13.102285385131836 12.804083824157715 13.092573165893555 12.84355354309082 13.082488059997559 C12.878043174743652 13.072776794433594 12.912656784057617 13.047998428344727 12.912656784057617 12.971549987792969 L12.912656784057617 12.352736473083496 L12.91278076171875 12.352736473083496 L12.91278076171875 12.352736473083496 M14.711822509765625 12.298450469970703 C14.711822509765625 12.249143600463867 14.704476356506348 12.224491119384766 14.684555053710938 12.209673881530762 C14.642719268798828 12.17755126953125 14.524311065673828 12.207184791564941 14.524311065673828 12.150283813476562 C14.524311065673828 12.100977897644043 14.551578521728516 12.088775634765625 14.608229637145996 12.088775634765625 C14.854759216308594 12.088775634765625 14.90655517578125 12.063998222351074 14.970802307128906 12.063998222351074 C15.017494201660156 12.063998222351074 15.044761657714844 12.086409568786621 15.044761657714844 12.1527738571167 L15.044761657714844 12.969184875488281 C15.044761657714844 13.018489837646484 15.057212829589844 13.043142318725586 15.076884269714355 13.05795955657959 C15.118721008300781 13.090083122253418 15.237129211425781 13.060449600219727 15.237129211425781 13.117101669311523 C15.237129211425781 13.156695365905762 15.21982192993164 13.178858757019043 15.153209686279297 13.178858757019043 C14.9066801071167 13.178858757019043 14.854884147644043 13.203386306762695 14.790885925292969 13.203386306762695 C14.743946075439453 13.203386306762695 14.719168663024902 13.18122386932373 14.711822509765625 13.114611625671387 L14.704476356506348 13.020980834960938 L14.699371337890625 13.020980834960938 C14.647575378417969 13.136774063110352 14.44300651550293 13.203386306762695 14.285252571105957 13.203386306762695 C14.05590534210205 13.203386306762695 13.925045013427734 13.070409774780273 13.925045013427734 12.794122695922852 L13.925045013427734 12.298574447631836 C13.925045013427734 12.249268531799316 13.917698860168457 12.224616050720215 13.898027420043945 12.209799766540527 C13.855941772460938 12.177675247192383 13.786839485168457 12.207308769226074 13.786839485168457 12.150407791137695 C13.786839485168457 12.098611831665039 13.809250831604004 12.088900566101074 13.846230506896973 12.088900566101074 C14.080432891845703 12.088900566101074 14.114922523498535 12.064122200012207 14.184025764465332 12.064122200012207 C14.230965614318848 12.064122200012207 14.257984161376953 12.08653450012207 14.257984161376953 12.152898788452148 L14.257984161376953 12.798978805541992 C14.257984161376953 12.937060356140137 14.337048530578613 13.020980834960938 14.475130081176758 13.020980834960938 C14.640229225158691 13.020980834960938 14.711697578430176 12.93955135345459 14.711697578430176 12.779306411743164 L14.711697578430176 12.298450469970703 L14.711822509765625 12.298450469970703 L14.711822509765625 12.298450469970703 M15.460125923156738 12.323102951049805 C15.460125923156738 12.281268119812012 15.425885200500488 12.268816947937012 15.391271591186523 12.263960838317871 C15.354292869567871 12.258855819702148 15.319554328918457 12.253999710083008 15.319554328918457 12.217020988464355 C15.319554328918457 12.187387466430664 15.366495132446289 12.172571182250977 15.413434982299805 12.162734031677246 C15.517026901245117 12.140572547912598 15.595842361450195 12.123390197753906 15.694578170776367 12.086409568786621 C15.714250564575195 12.078815460205078 15.74388313293457 12.063998222351074 15.768536567687988 12.063998222351074 C15.780987739562988 12.063998222351074 15.788209915161133 12.091265678405762 15.788209915161133 12.123390197753906 L15.788209915161133 12.278777122497559 L15.793065071105957 12.278777122497559 C15.899147033691406 12.13584041595459 16.005353927612305 12.063998222351074 16.165597915649414 12.063998222351074 C16.40951156616211 12.063998222351074 16.58457374572754 12.229347229003906 16.58457374572754 12.532652854919434 L16.58457374572754 12.99620246887207 C16.58457374572754 13.050738334655762 16.624168395996094 13.075265884399414 16.658781051635742 13.082488059997559 C16.6981258392334 13.090083122253418 16.72788429260254 13.104899406433105 16.72788429260254 13.14188003540039 C16.72788429260254 13.166407585144043 16.71543312072754 13.18122386932373 16.670984268188477 13.18122386932373 C16.587310791015625 13.18122386932373 16.503393173217773 13.161551475524902 16.41947364807129 13.161551475524902 C16.335554122924805 13.161551475524902 16.251882553100586 13.18122386932373 16.1679630279541 13.18122386932373 C16.13347625732422 13.18122386932373 16.113677978515625 13.173628807067871 16.113677978515625 13.14188003540039 C16.113677978515625 13.104899406433105 16.143062591552734 13.090083122253418 16.182781219482422 13.082488059997559 C16.22947120666504 13.075141906738281 16.251882553100586 13.050613403320312 16.251882553100586 12.99620246887207 L16.251882553100586 12.508124351501465 C16.251882553100586 12.374898910522461 16.197349548339844 12.241798400878906 16.022287368774414 12.241798400878906 C15.847227096557617 12.241798400878906 15.792941093444824 12.374774932861328 15.792941093444824 12.508124351501465 L15.792941093444824 12.937060356140137 C15.792941093444824 13.04065227508545 15.842246055603027 13.067920684814453 15.88918685913086 13.082488059997559 C15.938491821289062 13.097305297851562 15.985182762145996 13.104899406433105 15.985182762145996 13.14188003540039 C15.985182762145996 13.16889762878418 15.967876434326172 13.18122386932373 15.923675537109375 13.18122386932373 C15.832534790039062 13.18122386932373 15.7412691116333 13.161551475524902 15.649879455566406 13.161551475524902 C15.558737754821777 13.161551475524902 15.467472076416016 13.18122386932373 15.376331329345703 13.18122386932373 C15.331880569458008 13.18122386932373 15.322044372558594 13.166407585144043 15.322044372558594 13.14188003540039 C15.322044372558594 13.104899406433105 15.351428985595703 13.090083122253418 15.39114761352539 13.082488059997559 C15.425636291503906 13.075141906738281 15.460000991821289 13.050613403320312 15.460000991821289 12.99620246887207 L15.460000991821289 12.323102951049805 L15.460125923156738 12.323102951049805 L15.460125923156738 12.323102951049805 M17.305858612060547 12.064122200012207 C17.360143661499023 12.064122200012207 17.557493209838867 12.088900566101074 17.557493209838867 12.1652250289917 C17.557493209838867 12.202203750610352 17.56969451904297 12.31326675415039 17.56969451904297 12.347631454467773 C17.56969451904297 12.374898910522461 17.564838409423828 12.402167320251465 17.530349731445312 12.402167320251465 C17.50818634033203 12.402167320251465 17.488513946533203 12.340410232543945 17.44406509399414 12.276163101196289 C17.39986228942871 12.212164878845215 17.330760955810547 12.162858963012695 17.212350845336914 12.162858963012695 C17.140884399414062 12.162858963012695 17.066925048828125 12.187387466430664 17.066925048828125 12.268941879272461 C17.066925048828125 12.458819389343262 17.644025802612305 12.382245063781738 17.644025802612305 12.816286087036133 C17.644025802612305 13.075265884399414 17.444189071655273 13.203386306762695 17.205129623413086 13.203386306762695 A0.9226171970367432 0.9226171970367432 0.0 0 1 17.01761817932129 13.183714866638184 C16.985496520996094 13.17375373840332 16.965822219848633 13.171263694763184 16.948514938354492 13.171263694763184 L16.904314041137695 13.171263694763184 C16.8721923828125 13.171263694763184 16.864721298217773 13.134284019470215 16.864721298217773 13.097305297851562 C16.864721298217773 12.981511116027832 16.85737419128418 12.897590637207031 16.85737419128418 12.826122283935547 C16.85737419128418 12.808815956115723 16.879535675048828 12.793998718261719 16.896718978881836 12.793998718261719 C16.97304344177246 12.793998718261719 16.980640411376953 12.87281322479248 17.01002311706543 12.954242706298828 C17.039657592773438 13.035672187805176 17.093942642211914 13.104775428771973 17.25929069519043 13.104775428771973 C17.340473175048828 13.104775428771973 17.429248809814453 13.052978515625 17.429248809814453 12.961588859558105 C17.429248809814453 12.734980583190918 16.852394104003906 12.84093952178955 16.852394104003906 12.421714782714844 C16.852394104003906 12.145551681518555 17.069290161132812 12.064122200012207 17.305858612060547 12.064122200012207 L17.305858612060547 12.064122200012207 M18.567516326904297 12.453838348388672 C18.57486343383789 12.443877220153809 18.579967498779297 12.433916091918945 18.579967498779297 12.426570892333984 C18.579967498779297 12.359957695007324 18.52817153930664 12.253875732421875 18.471269607543945 12.202079772949219 C18.431922912597656 12.167590141296387 18.39008903503418 12.16510009765625 18.39008903503418 12.128120422363281 C18.39008903503418 12.09599781036377 18.41225242614746 12.086285591125488 18.481231689453125 12.086285591125488 C18.56029510498047 12.086285591125488 18.63661766052246 12.105957984924316 18.71294403076172 12.105957984924316 C18.78951644897461 12.105957984924316 18.868331909179688 12.086285591125488 18.944656372070312 12.086285591125488 C19.011268615722656 12.086285591125488 19.018863677978516 12.10085391998291 19.018863677978516 12.128120422363281 C19.018863677978516 12.16510009765625 18.99408531188965 12.1774263381958 18.952251434326172 12.184772491455078 C18.922618865966797 12.192367553710938 18.895599365234375 12.224367141723633 18.895599365234375 12.246529579162598 C18.895599365234375 12.271058082580566 18.900453567504883 12.30081558227539 18.910165786743164 12.322854042053223 L19.09033203125 12.752038955688477 C19.09518814086914 12.764241218566895 19.1025333404541 12.769346237182617 19.11249542236328 12.769346237182617 C19.119842529296875 12.769346237182617 19.12731170654297 12.761751174926758 19.13216781616211 12.749424934387207 L19.3145751953125 12.389466285705566 C19.32217025756836 12.377015113830566 19.33188247680664 12.322854042053223 19.33188247680664 12.293220520019531 C19.33188247680664 12.249019622802734 19.324535369873047 12.212040901184082 19.29490089416504 12.197223663330078 C19.248210906982422 12.175060272216797 19.179107666015625 12.16510009765625 19.179107666015625 12.128120422363281 C19.179107666015625 12.10085391998291 19.193675994873047 12.086285591125488 19.243104934692383 12.086285591125488 C19.300006866455078 12.086285591125488 19.356658935546875 12.105957984924316 19.413311004638672 12.105957984924316 C19.46759796142578 12.105957984924316 19.524250030517578 12.086285591125488 19.58115005493164 12.086285591125488 C19.61812973022461 12.086285591125488 19.630329132080078 12.09599781036377 19.630329132080078 12.128120422363281 C19.630329132080078 12.16510009765625 19.556371688842773 12.184772491455078 19.499719619750977 12.285999298095703 L19.00417137145996 13.183589935302734 A0.04233331233263016 0.04233331233263016 0.0 0 1 18.969680786132812 13.203262329101562 C18.954864501953125 13.203262329101562 18.942415237426758 13.193550109863281 18.93519401550293 13.178733825683594 L18.656539916992188 12.594409942626953 C18.649194717407227 12.57959270477295 18.6417236328125 12.574487686157227 18.63201141357422 12.574487686157227 C18.62441635131836 12.574487686157227 18.614704132080078 12.582083702087402 18.60474395751953 12.59689998626709 L18.242422103881836 13.183714866638184 C18.234825134277344 13.198530197143555 18.224864959716797 13.203386306762695 18.215152740478516 13.203386306762695 C18.20519256591797 13.203386306762695 18.195480346679688 13.19367504119873 18.18552017211914 13.178858757019043 L17.783477783203125 12.293469429016113 C17.763805389404297 12.25163459777832 17.754093170166016 12.219511032104492 17.729190826416016 12.2023286819458 C17.702173233032227 12.18502140045166 17.65037727355957 12.160492897033691 17.65037727355957 12.128369331359863 C17.65037727355957 12.101102828979492 17.667682647705078 12.089024543762207 17.714374542236328 12.08653450012207 C17.800661087036133 12.0839204788208 17.889434814453125 12.106206893920898 17.975845336914062 12.106206893920898 C18.062255859375 12.106206893920898 18.150907516479492 12.08653450012207 18.237316131591797 12.08653450012207 C18.256988525390625 12.08653450012207 18.276660919189453 12.106206893920898 18.276660919189453 12.123514175415039 C18.276660919189453 12.160492897033691 18.249643325805664 12.177800178527832 18.212661743164062 12.18502140045166 C18.173316955566406 12.192617416381836 18.160865783691406 12.224616050720215 18.160865783691406 12.26408576965332 C18.160865783691406 12.281392097473145 18.16335678100586 12.301064491271973 18.170578002929688 12.323226928710938 L18.345640182495117 12.766980171203613 C18.350744247436523 12.77694034576416 18.355600357055664 12.784287452697754 18.362945556640625 12.784287452697754 C18.36804962158203 12.784287452697754 18.377761840820312 12.779431343078613 18.382617950439453 12.772085189819336 L18.567516326904297 12.453838348388672 L18.567516326904297 12.453838348388672 M19.794435501098633 12.352736473083496 C19.794435501098633 12.3082857131958 19.759944915771484 12.290979385375977 19.725330352783203 12.28848934173584 C19.658720016479492 12.2836332321167 19.65386390686035 12.266325950622559 19.65386390686035 12.236693382263184 C19.65386390686035 12.197347640991211 19.7005558013916 12.18240737915039 19.747495651245117 12.17755126953125 C19.81896209716797 12.169955253601074 19.962024688720703 12.118160247802734 20.028636932373047 12.086409568786621 C20.048309326171875 12.076448440551758 20.07794189453125 12.063998222351074 20.102596282958984 12.063998222351074 C20.122268676757812 12.063998222351074 20.127124786376953 12.09848690032959 20.127124786376953 12.212040901184082 L20.127124786376953 12.932080268859863 C20.127124786376953 13.038163185119629 20.176429748535156 13.065056800842285 20.223369598388672 13.08236312866211 C20.270309448242188 13.09967041015625 20.319368362426758 13.102035522460938 20.319368362426758 13.141754150390625 C20.319368362426758 13.181098937988281 20.287492752075195 13.181098937988281 20.25786018371582 13.181098937988281 C20.166717529296875 13.181098937988281 20.075450897216797 13.16142749786377 19.98406219482422 13.16142749786377 C19.892921447753906 13.16142749786377 19.80165672302246 13.181098937988281 19.710514068603516 13.181098937988281 C19.66843032836914 13.181098937988281 19.65622901916504 13.16142749786377 19.65622901916504 13.141754150390625 C19.65622901916504 13.102161407470703 19.685611724853516 13.092449188232422 19.725330352783203 13.08236312866211 C19.75982093811035 13.072650909423828 19.794435501098633 13.047874450683594 19.794435501098633 12.991222381591797 L19.794435501098633 12.352736473083496 L19.794435501098633 12.352736473083496 M20.14704704284668 11.664694786071777 C20.14704704284668 11.731184005737305 20.023780822753906 11.874370574951172 19.954679489135742 11.874370574951172 C19.885576248168945 11.874370574951172 19.762310028076172 11.731307983398438 19.762310028076172 11.664694786071777 C19.762310028076172 11.595592498779297 19.885576248168945 11.442694664001465 19.954679489135742 11.442694664001465 C20.023780822753906 11.442694664001465 20.14704704284668 11.595592498779297 20.14704704284668 11.664694786071777 M21.077632904052734 13.020980834960938 C21.28244972229004 13.020980834960938 21.356285095214844 12.86795711517334 21.405715942382812 12.86795711517334 C21.423023223876953 12.86795711517334 21.44269371032715 12.88526439666748 21.44269371032715 12.900081634521484 C21.44269371032715 13.020980834960938 21.156696319580078 13.203386306762695 20.882898330688477 13.203386306762695 C20.564777374267578 13.203386306762695 20.352737426757812 12.96432876586914 20.352737426757812 12.653552055358887 C20.352737426757812 12.315756797790527 20.66836929321289 12.064122200012207 20.991596221923828 12.064122200012207 C21.16155242919922 12.064122200012207 21.371227264404297 12.152898788452148 21.371227264404297 12.258855819702148 C21.371227264404297 12.323102951049805 21.327024459838867 12.352736473083496 21.27759552001953 12.387225151062012 C21.250328063964844 12.406898498535156 21.17400360107422 12.46118450164795 21.13951301574707 12.46118450164795 C21.075267791748047 12.46118450164795 21.095064163208008 12.404532432556152 21.063190460205078 12.320612907409668 C21.03355598449707 12.23918342590332 20.957107543945312 12.175186157226562 20.86334991455078 12.175186157226562 C20.693395614624023 12.175186157226562 20.668617248535156 12.347631454467773 20.668617248535156 12.480856895446777 C20.66836929321289 12.712693214416504 20.81130599975586 13.020980834960938 21.077632904052734 13.020980834960938 L21.077632904052734 13.020980834960938 M21.60704803466797 11.612898826599121 C21.60704803466797 11.570940017700195 21.56521224975586 11.558612823486328 21.530723571777344 11.551267623901367 C21.491378784179688 11.541430473327637 21.456764221191406 11.538941383361816 21.456764221191406 11.499471664428711 C21.456764221191406 11.460000991821289 21.503456115722656 11.445184707641602 21.55276107788086 11.442694664001465 C21.629085540771484 11.43285846710205 21.777252197265625 11.381061553955078 21.846229553222656 11.349063873291016 C21.865901947021484 11.341591835021973 21.898025512695312 11.326900482177734 21.915332794189453 11.326900482177734 C21.930150985717773 11.326900482177734 21.939863204956055 11.336736679077148 21.939863204956055 11.447674751281738 L21.939863204956055 12.554815292358398 L22.302433013916016 12.303306579589844 C22.336923599243164 12.281143188476562 22.378759384155273 12.244163513183594 22.378759384155273 12.214529991149902 C22.378759384155273 12.194857597351074 22.346635818481445 12.184897422790527 22.317251205444336 12.184897422790527 C22.275165557861328 12.184897422790527 22.248149871826172 12.155512809753418 22.248149871826172 12.123390197753906 C22.248149871826172 12.100977897644043 22.26034927368164 12.086409568786621 22.307289123535156 12.086409568786621 C22.383615493774414 12.086409568786621 22.460311889648438 12.096121788024902 22.539003372192383 12.096121788024902 C22.615575790405273 12.096121788024902 22.692026138305664 12.086409568786621 22.768348693847656 12.086409568786621 C22.817655563354492 12.086409568786621 22.832597732543945 12.096121788024902 22.832597732543945 12.11093807220459 C22.832597732543945 12.1527738571167 22.812923431396484 12.17755126953125 22.756271362304688 12.184897422790527 C22.696880340576172 12.194857597351074 22.620555877685547 12.219386100769043 22.499656677246094 12.29334545135498 L22.331817626953125 12.396937370300293 L22.67222785949707 12.95187759399414 C22.70671844482422 13.008528709411621 22.74618911743164 13.04550838470459 22.795494079589844 13.087593078613281 C22.854637145996094 13.134284019470215 22.940921783447266 13.094938278198242 22.940921783447266 13.14188003540039 C22.940921783447266 13.171263694763184 22.928468704223633 13.18122386932373 22.866962432861328 13.18122386932373 C22.805206298828125 13.18122386932373 22.743698120117188 13.171263694763184 22.68194007873535 13.171263694763184 C22.620431900024414 13.171263694763184 22.558673858642578 13.18122386932373 22.497169494628906 13.18122386932373 C22.43541145324707 13.18122386932373 22.423208236694336 13.171263694763184 22.3984317779541 13.136774063110352 L22.10010528564453 12.685675621032715 C22.085289001464844 12.663264274597168 22.073087692260742 12.641225814819336 22.063125610351562 12.641225814819336 C22.058269500732422 12.641225814819336 22.045820236206055 12.651185989379883 22.038599014282227 12.65367603302002 L21.939863204956055 12.707962989807129 L21.939863204956055 12.932453155517578 C21.939863204956055 13.038536071777344 21.999004364013672 13.0654296875 22.048309326171875 13.08273696899414 C22.09761619567871 13.100043296813965 22.1494140625 13.102409362792969 22.1494140625 13.142127990722656 C22.1494140625 13.169146537780762 22.132104873657227 13.181472778320312 22.08516502380371 13.181472778320312 C21.989168167114258 13.181472778320312 21.895538330078125 13.161800384521484 21.79916763305664 13.161800384521484 C21.705535888671875 13.161800384521484 21.60928726196289 13.181472778320312 21.515655517578125 13.181472778320312 C21.4763126373291 13.181472778320312 21.459007263183594 13.171512603759766 21.459007263183594 13.142127990722656 C21.459007263183594 13.102534294128418 21.48863983154297 13.092822074890137 21.530473709106445 13.08273696899414 C21.564964294433594 13.075390815734863 21.606800079345703 13.048247337341309 21.606800079345703 12.991596221923828 L21.606800079345703 11.612898826599121 L21.60704803466797 11.612898826599121 L21.60704803466797 11.612898826599121 M1.3833036422729492 12.418601989746094 C1.3506813049316406 12.385979652404785 1.3181848526000977 12.356595993041992 1.3103408813476562 12.356595993041992 C1.3024959564208984 12.356595993041992 1.2978897094726562 12.36120319366455 1.2978897094726562 12.398431777954102 L1.2978897094726562 12.952624320983887 C1.2978897094726562 13.02869987487793 1.3242855072021484 13.086098670959473 1.3988666534423828 13.109506607055664 C1.437713623046875 13.121957778930664 1.4888877868652344 13.118720054626465 1.4888877868652344 13.148353576660156 C1.4888877868652344 13.179231643676758 1.45166015625 13.179231643676758 1.4237689971923828 13.179231643676758 C1.3693580627441406 13.179231643676758 1.3150720596313477 13.166781425476074 1.2607860565185547 13.166781425476074 C1.2065000534057617 13.166781425476074 1.1520881652832031 13.179231643676758 1.0978031158447266 13.179231643676758 C1.0822391510009766 13.179231643676758 1.065180778503418 13.179231643676758 1.065180778503418 13.154455184936523 C1.065180778503418 13.129676818847656 1.0837335586547852 13.121832847595215 1.107015609741211 13.109506607055664 C1.1876983642578125 13.06592845916748 1.2126007080078125 13.020980834960938 1.2126007080078125 12.935690879821777 L1.2126007080078125 12.350370407104492 C1.2126007080078125 12.291478157043457 1.1893177032470703 12.206188201904297 1.131917953491211 12.178173065185547 C1.080744743347168 12.153396606445312 1.058955192565918 12.148540496826172 1.058955192565918 12.123639106750488 C1.058955192565918 12.098735809326172 1.068293571472168 12.098860740661621 1.0791263580322266 12.098860740661621 C1.125692367553711 12.098860740661621 1.1722593307495117 12.10521125793457 1.2189502716064453 12.10521125793457 C1.265517234802246 12.10521125793457 1.3120841979980469 12.098860740661621 1.3586511611938477 12.098860740661621 C1.392765998840332 12.098860740661621 1.4037227630615234 12.10346794128418 1.417668342590332 12.11903190612793 L2.0184268951416016 12.74158000946045 C2.040217399597168 12.763494491577148 2.0618810653686523 12.783414840698242 2.0712203979492188 12.783414840698242 C2.0836706161499023 12.783414840698242 2.085165023803711 12.761751174926758 2.085165023803711 12.74008560180664 L2.085165023803711 12.387722969055176 C2.085165023803711 12.285127639770508 2.078939437866211 12.190499305725098 1.9826936721801758 12.168835639953613 C1.942352294921875 12.159372329711914 1.9003925323486328 12.148415565490723 1.9003925323486328 12.123639106750488 C1.9003925323486328 12.098860740661621 1.929901123046875 12.098860740661621 1.9577913284301758 12.098860740661621 C2.012202262878418 12.098860740661621 2.066488265991211 12.111311912536621 2.120774269104004 12.111311912536621 C2.175185203552246 12.111311912536621 2.229471206665039 12.098860740661621 2.2838821411132812 12.098860740661621 C2.2994461059570312 12.098860740661621 2.316378593444824 12.098860740661621 2.316378593444824 12.123639106750488 C2.316378593444824 12.148415565490723 2.29782772064209 12.15626049041748 2.2745437622070312 12.168835639953613 C2.193861961364746 12.212164878845215 2.1704540252685547 12.257112503051758 2.1704540252685547 12.34252643585205 L2.1704540252685547 13.090829849243164 C2.1704540252685547 13.159186363220215 2.1642274856567383 13.177862167358398 2.145676612854004 13.177862167358398 C2.1286191940307617 13.177862167358398 2.0882768630981445 13.139015197753906 2.0494298934936523 13.100292205810547 L1.3833036422729492 12.418601989746094 L1.3833036422729492 12.418601989746094 M3.103156089782715 12.811429977416992 C3.103156089782715 13.013259887695312 2.9447803497314453 13.193426132202148 2.724398612976074 13.193426132202148 C2.5132293701171875 13.193426132202148 2.320736885070801 13.055344581604004 2.320736885070801 12.83471393585205 C2.320736885070801 12.622175216674805 2.4884519577026367 12.476000785827637 2.7134408950805664 12.476000785827637 C2.8951005935668945 12.476000785827637 3.103156089782715 12.59565544128418 3.103156089782715 12.811429977416992 M2.5302867889404297 12.8066987991333 C2.5302867889404297 12.988358497619629 2.6250391006469727 13.131046295166016 2.7290048599243164 13.131046295166016 C2.86098575592041 13.131046295166016 2.893606185913086 13.008528709411621 2.893606185913086 12.878167152404785 C2.893606185913086 12.680944442749023 2.8113059997558594 12.53825569152832 2.6948890686035156 12.53825569152832 C2.562908172607422 12.53825569152832 2.5302867889404297 12.660897254943848 2.5302867889404297 12.8066987991333 M3.735043525695801 12.623669624328613 C3.735043525695801 12.59254264831543 3.7303123474121094 12.57697868347168 3.717985153198242 12.567765235900879 C3.69158935546875 12.54759407043457 3.617007255554199 12.56627082824707 3.617007255554199 12.530536651611328 C3.617007255554199 12.499408721923828 3.634066581726074 12.491689682006836 3.6697998046875 12.491689682006836 C3.825063705444336 12.491689682006836 3.8575611114501953 12.476125717163086 3.898026466369629 12.476125717163086 C3.927535057067871 12.476125717163086 3.9445934295654297 12.490195274353027 3.9445934295654297 12.53203010559082 L3.9445934295654297 13.045882225036621 C3.9445934295654297 13.077009201049805 3.9523134231567383 13.092573165893555 3.9647645950317383 13.101786613464355 C3.9911603927612305 13.121957778930664 4.065741062164307 13.103529930114746 4.065741062164307 13.139015197753906 C4.065741062164307 13.164041519165039 4.0549092292785645 13.177862167358398 4.012949466705322 13.177862167358398 C3.8576860427856445 13.177862167358398 3.825063705444336 13.193426132202148 3.784722328186035 13.193426132202148 C3.755213737487793 13.193426132202148 3.739649772644043 13.179356575012207 3.735043525695801 13.137521743774414 L3.7303123474121094 13.07837963104248 L3.727198600769043 13.07837963104248 C3.694577217102051 13.151341438293457 3.5657100677490234 13.193426132202148 3.4663515090942383 13.193426132202148 C3.3220443725585938 13.193426132202148 3.239743232727051 13.109506607055664 3.239743232727051 12.935690879821777 L3.239743232727051 12.623669624328613 C3.239743232727051 12.59254264831543 3.2351369857788086 12.57697868347168 3.2226858139038086 12.567765235900879 C3.1962890625 12.54759407043457 3.1528358459472656 12.56627082824707 3.1528358459472656 12.530536651611328 C3.1528358459472656 12.49791431427002 3.166780471801758 12.491689682006836 3.1900644302368164 12.491689682006836 C3.3376083374023438 12.491689682006836 3.3592729568481445 12.476125717163086 3.4027271270751953 12.476125717163086 C3.4322357177734375 12.476125717163086 3.449418067932129 12.490195274353027 3.449418067932129 12.53203010559082 L3.449418067932129 12.93892765045166 C3.449418067932129 13.025711059570312 3.4989728927612305 13.078503608703613 3.586005210876465 13.078503608703613 C3.6899709701538086 13.078503608703613 3.735043525695801 13.027454376220703 3.735043525695801 12.926477432250977 L3.735043525695801 12.623669624328613 L3.735043525695801 12.623669624328613 M4.528170585632324 13.140634536743164 C4.515719890594482 13.162298202514648 4.490942001342773 13.193426132202148 4.476872444152832 13.193426132202148 C4.466040134429932 13.193426132202148 4.44736385345459 13.170018196105957 4.435037136077881 13.146734237670898 L4.154018402099609 12.611218452453613 C4.105833530426025 12.531906127929688 4.057772636413574 12.54136848449707 4.057772636413574 12.51659107208252 C4.057772636413574 12.496419906616211 4.067111015319824 12.490071296691895 4.124509811401367 12.490071296691895 C4.19597864151001 12.490071296691895 4.247151851654053 12.502521514892578 4.298325538635254 12.502521514892578 C4.349623203277588 12.502521514892578 4.402415752410889 12.490071296691895 4.45358943939209 12.490071296691895 C4.486210346221924 12.490071296691895 4.506381511688232 12.494677543640137 4.506381511688232 12.51659107208252 C4.506381511688232 12.533649444580078 4.481603622436523 12.547470092773438 4.45358943939209 12.55207633972168 C4.4178547859191895 12.558425903320312 4.403909683227539 12.581709861755371 4.403909683227539 12.60486888885498 C4.403909683227539 12.628276824951172 4.410134792327881 12.656167030334473 4.4240803718566895 12.684181213378906 L4.542115688323975 12.899832725524902 C4.549835205078125 12.913902282714844 4.560667514801025 12.929465293884277 4.570005416870117 12.929465293884277 C4.585569381713867 12.929465293884277 4.594907760620117 12.907551765441895 4.601132869720459 12.896595001220703 L4.716055393218994 12.70422649383545 C4.731619358062744 12.679450035095215 4.736226558685303 12.657535552978516 4.736226558685303 12.618813514709473 C4.736226558685303 12.58619213104248 4.703729152679443 12.55830192565918 4.67409610748291 12.55195140838623 C4.642968654632568 12.54585075378418 4.613584041595459 12.541243553161621 4.613584041595459 12.516467094421387 C4.613584041595459 12.497790336608887 4.622922420501709 12.489946365356445 4.664882183074951 12.489946365356445 C4.702110290527344 12.489946365356445 4.7393388748168945 12.502397537231445 4.776567459106445 12.502397537231445 C4.8123016357421875 12.502397537231445 4.849530220031738 12.489946365356445 4.886758804321289 12.489946365356445 C4.916267395019531 12.489946365356445 4.922492980957031 12.496295928955078 4.922492980957031 12.516467094421387 C4.922492980957031 12.538130760192871 4.906929016113281 12.541243553161621 4.8944783210754395 12.55195140838623 C4.8759260177612305 12.56751537322998 4.864969730377197 12.58619213104248 4.84330415725708 12.620307922363281 L4.528170585632324 13.140634536743164 L4.528170585632324 13.140634536743164 M5.12270450592041 12.80358600616455 L5.12270450592041 12.862728118896484 C5.12270450592041 12.98387622833252 5.248459339141846 13.084728240966797 5.367988586425781 13.084728240966797 C5.492125034332275 13.084728240966797 5.577538967132568 12.997696876525879 5.588495254516602 12.997696876525879 C5.596214771270752 12.997696876525879 5.604059219360352 13.007160186767578 5.604059219360352 13.015003204345703 C5.604059219360352 13.067795753479004 5.461246490478516 13.193550109863281 5.268754482269287 13.193550109863281 C5.049866199493408 13.193550109863281 4.911660671234131 13.073896408081055 4.911660671234131 12.850401878356934 C4.911660671234131 12.647076606750488 5.052978992462158 12.476125717163086 5.262528896331787 12.476125717163086 C5.413061141967773 12.476125717163086 5.600946426391602 12.581958770751953 5.600946426391602 12.752660751342773 C5.600946426391602 12.788395881652832 5.587001323699951 12.8037109375 5.515532970428467 12.8037109375 L5.12270450592041 12.8037109375 L5.12270450592041 12.80358600616455 L5.12270450592041 12.80358600616455 M5.381933689117432 12.74158000946045 C5.389653205871582 12.74158000946045 5.391272068023682 12.715309143066406 5.391272068023682 12.702857971191406 C5.391272068023682 12.612587928771973 5.34171724319458 12.53825569152832 5.254684925079346 12.53825569152832 C5.159933090209961 12.53825569152832 5.11647891998291 12.639233589172363 5.11647891998291 12.712071418762207 C5.11647891998291 12.736848831176758 5.1335368156433105 12.741456031799316 5.1522135734558105 12.741456031799316 L5.381933689117432 12.741456031799316 L5.381933689117432 12.74158000946045 M6.285501003265381 13.01487922668457 C6.285501003265381 13.055219650268555 6.286994934082031 13.076885223388672 6.315010070800781 13.076885223388672 C6.333561897277832 13.076885223388672 6.356844902038574 13.069165229797363 6.370914459228516 13.069165229797363 C6.387972354888916 13.069165229797363 6.398804664611816 13.073772430419922 6.398804664611816 13.087841987609863 C6.398804664611816 13.115856170654297 6.322729110717773 13.180974960327148 6.210919380187988 13.180974960327148 C6.162858963012695 13.180974960327148 6.100728511810303 13.145240783691406 6.086783409118652 13.097055435180664 C6.023159027099609 13.154455184936523 5.928531646728516 13.1933012008667 5.841499328613281 13.1933012008667 C5.746747016906738 13.1933012008667 5.6737847328186035 13.124945640563965 5.6737847328186035 13.02869987487793 C5.6737847328186035 12.80059814453125 5.914461612701416 12.803462028503418 6.0773210525512695 12.758513450622559 L6.0773210525512695 12.671730995178223 C6.0773210525512695 12.600261688232422 6.019921779632568 12.53825569152832 5.950071334838867 12.53825569152832 C5.909730434417725 12.53825569152832 5.901886463165283 12.55070686340332 5.901886463165283 12.611218452453613 C5.901886463165283 12.632883071899414 5.901886463165283 12.656167030334473 5.889435291290283 12.674967765808105 C5.870759010314941 12.701239585876465 5.779244422912598 12.718297004699707 5.751229763031006 12.718297004699707 C5.7217206954956055 12.718297004699707 5.695324897766113 12.70908260345459 5.695324897766113 12.668742179870605 C5.695324897766113 12.499533653259277 5.925045490264893 12.476125717163086 6.041586399078369 12.476125717163086 C6.221627712249756 12.476125717163086 6.28537654876709 12.571001052856445 6.28537654876709 12.74021053314209 L6.28537654876709 13.01487922668457 L6.285501003265381 13.01487922668457 L6.285501003265381 13.01487922668457 M6.075951099395752 12.826993942260742 C5.989043712615967 12.82550048828125 5.883458614349365 12.890742301940918 5.883458614349365 12.98698902130127 C5.883458614349365 13.044387817382812 5.908360958099365 13.084728240966797 5.970366954803467 13.084728240966797 C6.004482269287109 13.084728240966797 6.075951099395752 13.06605339050293 6.075951099395752 13.019610404968262 L6.075951099395752 12.826993942260742 M6.974911689758301 12.623669624328613 C6.974911689758301 12.59254264831543 6.970180034637451 12.57697868347168 6.9578537940979 12.567765235900879 C6.93145751953125 12.54759407043457 6.856875896453857 12.56627082824707 6.856875896453857 12.530536651611328 C6.856875896453857 12.499408721923828 6.873934268951416 12.491689682006836 6.90966796875 12.491689682006836 C7.064931869506836 12.491689682006836 7.097553730010986 12.476125717163086 7.137894630432129 12.476125717163086 C7.167403221130371 12.476125717163086 7.1845855712890625 12.490195274353027 7.1845855712890625 12.53203010559082 L7.1845855712890625 13.045882225036621 C7.1845855712890625 13.077009201049805 7.192305564880371 13.092573165893555 7.204756736755371 13.101786613464355 C7.231152534484863 13.121957778930664 7.305733680725098 13.103529930114746 7.305733680725098 13.139015197753906 C7.305733680725098 13.164041519165039 7.294901371002197 13.177862167358398 7.252941608428955 13.177862167358398 C7.097678184509277 13.177862167358398 7.065056324005127 13.193426132202148 7.024714946746826 13.193426132202148 C6.995330810546875 13.193426132202148 6.979767322540283 13.179356575012207 6.975160598754883 13.137521743774414 L6.970429420471191 13.07837963104248 L6.967316150665283 13.07837963104248 C6.934694766998291 13.151341438293457 6.8058271408081055 13.193426132202148 6.706468105316162 13.193426132202148 C6.562161445617676 13.193426132202148 6.479860782623291 13.109506607055664 6.479860782623291 12.935690879821777 L6.479860782623291 12.623669624328613 C6.479860782623291 12.59254264831543 6.4751296043396 12.57697868347168 6.462802410125732 12.567765235900879 C6.43640661239624 12.54759407043457 6.392952919006348 12.56627082824707 6.392952919006348 12.530536651611328 C6.392952919006348 12.49791431427002 6.406898021697998 12.491689682006836 6.430181503295898 12.491689682006836 C6.577724933624268 12.491689682006836 6.599390029907227 12.476125717163086 6.642844200134277 12.476125717163086 C6.6723527908325195 12.476125717163086 6.689535140991211 12.490195274353027 6.689535140991211 12.53203010559082 L6.689535140991211 12.93892765045166 C6.689535140991211 13.025711059570312 6.7390899658203125 13.078503608703613 6.826122283935547 13.078503608703613 C6.930088043212891 13.078503608703613 6.975160598754883 13.027454376220703 6.975160598754883 12.926477432250977 L6.975160598754883 12.623669624328613 L6.974911689758301 12.623669624328613 M4.408516883850098 11.322792053222656 C4.376019477844238 11.290170669555664 4.343397617340088 11.260662078857422 4.3355536460876465 11.260662078857422 C4.327834129333496 11.260662078857422 4.323102951049805 11.265268325805664 4.323102951049805 11.302620887756348 L4.323102951049805 11.856813430786133 C4.323102951049805 11.932765007019043 4.349498748779297 11.990413665771484 4.4240803718566895 12.013571739196777 C4.462927341461182 12.025897979736328 4.514101028442383 12.022909164428711 4.514101028442383 12.052419662475586 C4.514101028442383 12.08354663848877 4.476872444152832 12.08354663848877 4.448982238769531 12.08354663848877 C4.394571304321289 12.08354663848877 4.340285301208496 12.071094512939453 4.285874366760254 12.071094512939453 C4.23146390914917 12.071094512939453 4.177177429199219 12.08354663848877 4.122890949249268 12.08354663848877 C4.107327461242676 12.08354663848877 4.090270042419434 12.08354663848877 4.090270042419434 12.058768272399902 C4.090270042419434 12.033742904663086 4.108945846557617 12.025897979736328 4.132229328155518 12.01369571685791 C4.212911605834961 11.970242500305176 4.237813472747803 11.925293922424316 4.237813472747803 11.839756965637207 L4.237813472747803 11.254560470581055 C4.237813472747803 11.195542335510254 4.2145304679870605 11.110129356384277 4.157131671905518 11.082239151000977 C4.105833530426025 11.057336807250977 4.084168434143066 11.052729606628418 4.084168434143066 11.027828216552734 C4.084168434143066 11.00292682647705 4.093506813049316 11.00292682647705 4.104339599609375 11.00292682647705 C4.151030540466309 11.00292682647705 4.19747257232666 11.009151458740234 4.244163990020752 11.009151458740234 C4.290729999542236 11.009151458740234 4.337296962738037 11.00292682647705 4.38386344909668 11.00292682647705 C4.417979717254639 11.00292682647705 4.428936004638672 11.007533073425293 4.442881107330322 11.023096084594727 L5.043640613555908 11.645645141601562 C5.0654296875 11.66731071472168 5.087094306945801 11.687479972839355 5.096432685852051 11.687479972839355 C5.108883857727051 11.687479972839355 5.110377788543701 11.665816307067871 5.110377788543701 11.644026756286621 L5.110377788543701 11.291540145874023 C5.110377788543701 11.189067840576172 5.104152679443359 11.094441413879395 5.007906436920166 11.072651863098145 C4.967565059661865 11.063313484191895 4.925605773925781 11.052480697631836 4.925605773925781 11.027703285217285 C4.925605773925781 11.002801895141602 4.955114364624023 11.002801895141602 4.983004570007324 11.002801895141602 C5.037415504455566 11.002801895141602 5.091701507568359 11.015253067016602 5.1459879875183105 11.015253067016602 C5.2002739906311035 11.015253067016602 5.254684925079346 11.002801895141602 5.308970928192139 11.002801895141602 C5.324534893035889 11.002801895141602 5.341592788696289 11.002801895141602 5.341592788696289 11.027703285217285 C5.341592788696289 11.052480697631836 5.32304048538208 11.060325622558594 5.299632549285889 11.072651863098145 C5.2189507484436035 11.116230010986328 5.195667266845703 11.161177635192871 5.195667266845703 11.246466636657715 L5.195667266845703 11.994771003723145 C5.195667266845703 12.063126564025879 5.189441680908203 12.08155345916748 5.170764923095703 12.08155345916748 C5.153707027435303 12.08155345916748 5.11336612701416 12.042831420898438 5.074519157409668 12.003985404968262 L4.408516883850098 11.322792053222656 L4.408516883850098 11.322792053222656 M5.558737754821777 11.707776069641113 L5.558737754821777 11.766793251037598 C5.558737754821777 11.887941360473633 5.684492111206055 11.988794326782227 5.804021835327148 11.988794326782227 C5.928282260894775 11.988794326782227 6.013571739196777 11.901885986328125 6.024528980255127 11.901885986328125 C6.032248497009277 11.901885986328125 6.040092468261719 11.911225318908691 6.040092468261719 11.918944358825684 C6.040092468261719 11.971736907958984 5.897279262542725 12.097491264343262 5.704787731170654 12.097491264343262 C5.485899448394775 12.097491264343262 5.34769344329834 11.978086471557617 5.34769344329834 11.754467010498047 C5.34769344329834 11.551142692565918 5.489012241363525 11.380315780639648 5.698562145233154 11.380315780639648 C5.849094390869141 11.380315780639648 6.036979675292969 11.485899925231934 6.036979675292969 11.656726837158203 C6.036979675292969 11.692461013793945 6.023034572601318 11.707900047302246 5.951565742492676 11.707900047302246 L5.558737754821777 11.707900047302246 L5.558737754821777 11.707776069641113 L5.558737754821777 11.707776069641113 M5.817966938018799 11.645645141601562 C5.825686454772949 11.645645141601562 5.827304840087891 11.61924934387207 5.827304840087891 11.60679817199707 C5.827304840087891 11.516777992248535 5.777625560760498 11.44232177734375 5.690718173980713 11.44232177734375 C5.59596586227417 11.44232177734375 5.552636623382568 11.543298721313477 5.552636623382568 11.61613655090332 C5.552636623382568 11.640914916992188 5.569694519042969 11.645645141601562 5.5882463455200195 11.645645141601562 L5.817966938018799 11.645645141601562 M6.623794078826904 11.62547492980957 C6.628525257110596 11.61924934387207 6.631513595581055 11.61302375793457 6.631513595581055 11.608417510986328 C6.631513595581055 11.566581726074219 6.5988922119140625 11.499720573425293 6.56315803527832 11.467098236083984 C6.538380146026611 11.4454345703125 6.511983871459961 11.443815231323242 6.511983871459961 11.4205322265625 C6.511983871459961 11.400361061096191 6.525928974151611 11.394135475158691 6.569383144378662 11.394135475158691 C6.619062423706055 11.394135475158691 6.667247772216797 11.406586647033691 6.71530818939209 11.406586647033691 C6.763369560241699 11.406586647033691 6.813173294067383 11.394135475158691 6.861233711242676 11.394135475158691 C6.903193950653076 11.394135475158691 6.907800674438477 11.403473854064941 6.907800674438477 11.4205322265625 C6.907800674438477 11.443815231323242 6.892236709594727 11.451659202575684 6.865965366363525 11.456266403198242 C6.847289085388184 11.460872650146484 6.830230712890625 11.481043815612793 6.830230712890625 11.495113372802734 A0.12450974434614182 0.12450974434614182 0.0 0 0 6.839569091796875 11.543298721313477 L6.952873229980469 11.813360214233398 C6.955861568450928 11.821080207824707 6.960592746734619 11.824193000793457 6.966818332672119 11.824193000793457 C6.971425533294678 11.824193000793457 6.97603178024292 11.81946086883545 6.979269504547119 11.81174087524414 L7.094192028045654 11.58500862121582 C7.098798751831055 11.577289581298828 7.1050238609313965 11.543173789978027 7.1050238609313965 11.524497032165527 C7.1050238609313965 11.496482849121094 7.100417137145996 11.473199844360352 7.081740856170654 11.463985443115234 C7.052231788635254 11.450040817260742 7.008778095245361 11.443815231323242 7.008778095245361 11.4205322265625 C7.008778095245361 11.403473854064941 7.018116474151611 11.394135475158691 7.049119472503662 11.394135475158691 C7.084853649139404 11.394135475158691 7.1205878257751465 11.406586647033691 7.156197547912598 11.406586647033691 C7.190313339233398 11.406586647033691 7.226171970367432 11.394135475158691 7.261906623840332 11.394135475158691 C7.285190105438232 11.394135475158691 7.292909622192383 11.400361061096191 7.292909622192383 11.4205322265625 C7.292909622192383 11.443815231323242 7.246342658996582 11.456266403198242 7.210608005523682 11.519890785217285 L6.898586750030518 12.085040092468262 A0.026769595220685005 0.026769595220685005 0.0 0 1 6.876797676086426 12.097491264343262 C6.867459297180176 12.097491264343262 6.859740257263184 12.091390609741211 6.855133056640625 12.081928253173828 L6.679698467254639 11.714001655578613 C6.6749677658081055 11.704662322998047 6.670361042022705 11.701550483703613 6.664134979248047 11.701550483703613 C6.6595282554626465 11.701550483703613 6.6533026695251465 11.706156730651855 6.647077560424805 11.715496063232422 L6.418850898742676 12.084915161132812 C6.414243698120117 12.09412956237793 6.408018589019775 12.097367286682129 6.401793003082275 12.097367286682129 C6.395692348480225 12.097367286682129 6.389466762542725 12.091265678405762 6.383240699768066 12.081803321838379 L6.130237579345703 11.524497032165527 C6.117785930633545 11.498101234436035 6.111685276031494 11.477806091308594 6.096121311187744 11.467098236083984 C6.079063892364502 11.456266403198242 6.04644250869751 11.440702438354492 6.04644250869751 11.4205322265625 C6.04644250869751 11.403473854064941 6.057274341583252 11.39575481414795 6.086783409118652 11.394135475158691 C6.1411943435668945 11.39251708984375 6.196974754333496 11.406586647033691 6.25138521194458 11.406586647033691 C6.305796146392822 11.406586647033691 6.361576080322266 11.394135475158691 6.415862560272217 11.394135475158691 C6.428313732147217 11.394135475158691 6.440764427185059 11.406586647033691 6.440764427185059 11.417418479919434 C6.440764427185059 11.440702438354492 6.423706531524658 11.451534271240234 6.400423526763916 11.456266403198242 C6.375646114349365 11.460872650146484 6.367802143096924 11.481043815612793 6.367802143096924 11.505820274353027 C6.367802143096924 11.516654014587402 6.369296073913574 11.529229164123535 6.374027729034424 11.543173789978027 L6.484218597412109 11.822574615478516 C6.487331390380859 11.8287992477417 6.490443706512451 11.833406448364258 6.49505090713501 11.833406448364258 C6.498163223266602 11.833406448364258 6.50438928604126 11.830293655395508 6.507501602172852 11.82568645477295 L6.623794078826904 11.62547492980957 L6.623794078826904 11.62547492980957" fill="black" fill-opacity="1.0" filling="0"/></svg>