<?xml version="1.0" encoding="iso-8859-1"?><svg height="200px" viewBox="0.0 0.0 24.0 24.0" width="200px" xmlns="http://www.w3.org/2000/svg"><path animation_id="0" d="M0.0 0.0 L24.0 0.0 L24.0 24.0 L0.0 24.0 L0.0 0.0" fill="black" fill-opacity="1.0" filling="0"/>
<path animation_id="1" d="M23.07613754272461 7.392890453338623 L23.07613754272461 7.176990509033203 L0.9238624572753906 7.176990509033203 L0.9238624572753906 7.392890453338623 L23.07613754272461 7.392890453338623 L23.07613754272461 7.392890453338623 M23.647140502929688 7.747868061065674 L23.644149780273438 7.718359470367432 L23.644149780273438 7.688725471496582 L23.63817596435547 7.662205219268799 L23.63518714904785 7.632571697235107 L23.629335403442383 7.605926990509033 L23.62036895751953 7.579281806945801 L23.611652374267578 7.552636623382568 L23.599700927734375 7.526115894317627 L23.590984344482422 7.4993462562561035 L23.576169967651367 7.475814342498779 L23.56421661376953 7.452157497406006 L23.54939842224121 7.428500175476074 L23.53159523010254 7.407707214355469 L23.517026901245117 7.384050369262695 L23.499221801757812 7.363381862640381 L23.478303909301758 7.345576763153076 L23.45763397216797 7.32490873336792 L23.43995475769043 7.307228088378906 L23.416297912597656 7.2924113273620605 L23.3956298828125 7.274606227874756 L23.371849060058594 7.25978946685791 L23.348190307617188 7.247961521148682 L23.32465934753418 7.233269214630127 L23.297889709472656 7.22430419921875 L23.27136993408203 7.212475776672363 L23.244848251342773 7.2036356925964355 L23.218204498291016 7.194795608520508 L23.19168472290039 7.18881893157959 L23.161924362182617 7.182967185974121 L23.13528060913086 7.179978847503662 L23.105772018432617 7.179978847503662 L23.07613754272461 7.176990509033203 L23.07613754272461 7.392890453338623 L23.111623764038086 7.392890453338623 L23.132291793823242 7.39587926864624 L23.147109985351562 7.398867130279541 L23.164913177490234 7.40185546875 L23.182594299316406 7.407707214355469 L23.19753646850586 7.413559436798096 L23.2152156829834 7.4195356369018555 L23.23003387451172 7.425512313842773 L23.244848251342773 7.434352397918701 L23.259540557861328 7.443192481994629 L23.274356842041016 7.452157497406006 L23.289173126220703 7.460997581481934 L23.301128387451172 7.47282600402832 L23.315692901611328 7.484654426574707 L23.32752227783203 7.496482849121094 L23.3394775390625 7.5083112716674805 L23.351181030273438 7.520139217376709 L23.36313247680664 7.534955978393555 L23.371849060058594 7.549648284912109 L23.380813598632812 7.564465045928955 L23.3896541595459 7.579281806945801 L23.398616790771484 7.5940985679626465 L23.40447235107422 7.608914852142334 L23.410446166992188 7.6265950202941895 L23.416297912597656 7.641412258148193 L23.422151565551758 7.65921688079834 L23.425140380859375 7.6768975257873535 L23.428253173828125 7.691714286804199 L23.43124008178711 7.709394454956055 L23.43124008178711 7.747868061065674 L23.647140502929688 7.747868061065674 L23.647140502929688 7.747868061065674" fill="black" fill-opacity="1.0" filling="0"/>
<path animation_id="2" d="M23.43124008178711 16.252132415771484 L23.647140502929688 16.252132415771484 L23.647140502929688 7.747868061065674 L23.43124008178711 7.747868061065674 L23.43124008178711 16.252132415771484 M23.07613754272461 16.822885513305664 L23.105772018432617 16.82002067565918 L23.13528060913086 16.82002067565918 L23.161924362182617 16.817031860351562 L23.19168472290039 16.81130599975586 L23.218204498291016 16.805204391479492 L23.244848251342773 16.796363830566406 L23.27136993408203 16.787399291992188 L23.297889709472656 16.77569580078125 L23.32465934753418 16.76673126220703 L23.348190307617188 16.751914978027344 L23.371849060058594 16.740211486816406 L23.3956298828125 16.72539520263672 L23.416297912597656 16.707714080810547 L23.43995475769043 16.692771911621094 L23.45763397216797 16.675090789794922 L23.478303909301758 16.654422760009766 L23.499221801757812 16.636619567871094 L23.517026901245117 16.615951538085938 L23.53159523010254 16.592416763305664 L23.54939842224121 16.57149887084961 L23.56421661376953 16.54784393310547 L23.576169967651367 16.524311065673828 L23.590984344482422 16.500404357910156 L23.599700927734375 16.474010467529297 L23.611652374267578 16.44748878479004 L23.62036895751953 16.420719146728516 L23.629335403442383 16.393949508666992 L23.63518714904785 16.367427825927734 L23.63817596435547 16.33779525756836 L23.644149780273438 16.311275482177734 L23.644149780273438 16.28164291381836 L23.647140502929688 16.252132415771484 L23.43124008178711 16.252132415771484 L23.43124008178711 16.290605545043945 L23.428253173828125 16.308284759521484 L23.425140380859375 16.32322883605957 L23.422151565551758 16.34090805053711 L23.416297912597656 16.35871124267578 L23.410446166992188 16.373279571533203 L23.40447235107422 16.39108657836914 L23.398616790771484 16.405902862548828 L23.3896541595459 16.420719146728516 L23.380813598632812 16.435535430908203 L23.371849060058594 16.45035171508789 L23.36313247680664 16.46516990661621 L23.351181030273438 16.479736328125 L23.3394775390625 16.491689682006836 L23.32752227783203 16.50364112854004 L23.315692901611328 16.51534652709961 L23.301128387451172 16.527175903320312 L23.289173126220703 16.539127349853516 L23.274356842041016 16.54784393310547 L23.259540557861328 16.556684494018555 L23.244848251342773 16.56564712524414 L23.23003387451172 16.574613571166992 L23.2152156829834 16.58046531677246 L23.19753646850586 16.586315155029297 L23.182594299316406 16.592416763305664 L23.164913177490234 16.598270416259766 L23.147109985351562 16.601133346557617 L23.132291793823242 16.60399627685547 L23.111623764038086 16.606985092163086 L23.07613754272461 16.606985092163086 L23.07613754272461 16.822885513305664 L23.07613754272461 16.822885513305664 M0.9238624572753906 16.606985092163086 L0.9238624572753906 16.822885513305664 L23.07613754272461 16.822885513305664 L23.07613754272461 16.606985092163086 L0.9238624572753906 16.606985092163086" fill="black" fill-opacity="1.0" filling="0"/>
<path animation_id="3" d="M0.3528604507446289 16.252132415771484 L0.3558492660522461 16.28164291381836 L0.3558492660522461 16.311275482177734 L0.36182498931884766 16.33779525756836 L0.36481380462646484 16.367427825927734 L0.3706655502319336 16.393949508666992 L0.3795051574707031 16.420719146728516 L0.3884706497192383 16.44748878479004 L0.4002981185913086 16.474010467529297 L0.40913963317871094 16.500404357910156 L0.42395591735839844 16.524311065673828 L0.43578433990478516 16.54784393310547 L0.45060157775878906 16.57149887084961 L0.46828174591064453 16.592416763305664 L0.4830970764160156 16.615951538085938 L0.5007781982421875 16.636619567871094 L0.5215721130371094 16.654422760009766 L0.5422401428222656 16.675090789794922 L0.5600452423095703 16.692771911621094 L0.5837020874023438 16.707714080810547 L0.6043701171875 16.72539520263672 L0.6280269622802734 16.740211486816406 L0.6516838073730469 16.751914978027344 L0.6753416061401367 16.76673126220703 L0.7019863128662109 16.77569580078125 L0.7286310195922852 16.787399291992188 L0.7552766799926758 16.796363830566406 L0.7817964553833008 16.805204391479492 L0.8084421157836914 16.81130599975586 L0.8380756378173828 16.817031860351562 L0.864720344543457 16.82002067565918 L0.8942289352416992 16.82002067565918 L0.9238624572753906 16.822885513305664 L0.9238624572753906 16.606985092163086 L0.8882532119750977 16.606985092163086 L0.867584228515625 16.60399627685547 L0.8528919219970703 16.601133346557617 L0.8350868225097656 16.598270416259766 L0.8172826766967773 16.592416763305664 L0.8025894165039062 16.586315155029297 L0.784785270690918 16.58046531677246 L0.7700929641723633 16.574613571166992 L0.7552766799926758 16.56564712524414 L0.7404594421386719 16.556684494018555 L0.7256431579589844 16.54784393310547 L0.7108259201049805 16.539127349853516 L0.6989974975585938 16.527175903320312 L0.6843061447143555 16.51534652709961 L0.6723527908325195 16.50364112854004 L0.6605243682861328 16.491689682006836 L0.6486959457397461 16.479736328125 L0.6369915008544922 16.46516990661621 L0.6280269622802734 16.45035171508789 L0.6191873550415039 16.435535430908203 L0.6102228164672852 16.420719146728516 L0.6015071868896484 16.405902862548828 L0.5955295562744141 16.39108657836914 L0.5895538330078125 16.373279571533203 L0.5837020874023438 16.35871124267578 L0.5777254104614258 16.34090805053711 L0.5747365951538086 16.32322883605957 L0.571873664855957 16.308284759521484 L0.5688848495483398 16.290605545043945 L0.5688848495483398 16.252132415771484 L0.3528604507446289 16.252132415771484 L0.3528604507446289 16.252132415771484" fill="black" fill-opacity="1.0" filling="0"/>
<path animation_id="4" d="M0.5688848495483398 7.747868061065674 L0.3528604507446289 7.747868061065674 L0.3528604507446289 16.252132415771484 L0.5688848495483398 16.252132415771484 L0.5688848495483398 7.747868061065674 M0.9238624572753906 7.176990509033203 L0.8942289352416992 7.179978847503662 L0.864720344543457 7.179978847503662 L0.8380756378173828 7.182967185974121 L0.8084421157836914 7.18881893157959 L0.7817964553833008 7.194795608520508 L0.7552766799926758 7.2036356925964355 L0.7286310195922852 7.212475776672363 L0.7019863128662109 7.22430419921875 L0.6753416061401367 7.233269214630127 L0.6516838073730469 7.247961521148682 L0.6280269622802734 7.25978946685791 L0.6043701171875 7.274606227874756 L0.5837020874023438 7.2924113273620605 L0.5600452423095703 7.307228088378906 L0.5422401428222656 7.32490873336792 L0.5215721130371094 7.345576763153076 L0.5007781982421875 7.363381862640381 L0.4830970764160156 7.384050369262695 L0.46828174591064453 7.407707214355469 L0.45060157775878906 7.428500175476074 L0.43578433990478516 7.452157497406006 L0.42395591735839844 7.475814342498779 L0.40913963317871094 7.4993462562561035 L0.4002981185913086 7.526115894317627 L0.3884706497192383 7.552636623382568 L0.3795051574707031 7.579281806945801 L0.3706655502319336 7.605926990509033 L0.36481380462646484 7.632571697235107 L0.36182498931884766 7.662205219268799 L0.3558492660522461 7.688725471496582 L0.3558492660522461 7.718359470367432 L0.3528604507446289 7.747868061065674 L0.5688848495483398 7.747868061065674 L0.5688848495483398 7.709394454956055 L0.571873664855957 7.691714286804199 L0.5747365951538086 7.6768975257873535 L0.5777254104614258 7.65921688079834 L0.5837020874023438 7.641412258148193 L0.5895538330078125 7.6265950202941895 L0.5955295562744141 7.608914852142334 L0.6015071868896484 7.5940985679626465 L0.6102228164672852 7.579281806945801 L0.6191873550415039 7.564465045928955 L0.6280269622802734 7.549648284912109 L0.6369915008544922 7.534955978393555 L0.6486959457397461 7.520139217376709 L0.6605243682861328 7.5083112716674805 L0.6723527908325195 7.496482849121094 L0.6843061447143555 7.484654426574707 L0.6989974975585938 7.47282600402832 L0.7108259201049805 7.460997581481934 L0.7256431579589844 7.452157497406006 L0.7404594421386719 7.443192481994629 L0.7552766799926758 7.434352397918701 L0.7700929641723633 7.425512313842773 L0.784785270690918 7.4195356369018555 L0.8025894165039062 7.413559436798096 L0.8172826766967773 7.407707214355469 L0.8350868225097656 7.40185546875 L0.8528919219970703 7.398867130279541 L0.867584228515625 7.39587926864624 L0.8882532119750977 7.392890453338623 L0.9238624572753906 7.392890453338623 L0.9238624572753906 7.176990509033203 L0.9238624572753906 7.176990509033203" fill="black" fill-opacity="1.0" filling="0"/>
<path animation_id="5" d="M23.540557861328125 14.778932571411133 L0.4594411849975586 14.778932571411133 L0.4594411849975586 14.991969108581543 L23.540557861328125 14.991969108581543 L23.540557861328125 14.778932571411133 M18.284255981445312 13.12270450592041 L18.284255981445312 13.240864753723145 C18.284255981445312 13.572059631347656 18.337547302246094 13.711137771606445 18.49729347229004 13.808877944946289 C18.668743133544922 13.927038192749023 18.958600997924805 13.9596586227417 19.69818878173828 13.9596586227417 C20.405155181884766 13.9596586227417 20.703977584838867 13.94770622253418 20.843055725097656 13.88283634185791 C21.091327667236328 13.787960052490234 21.186203002929688 13.584012985229492 21.186203002929688 13.166905403137207 C21.186203002929688 12.832721710205078 21.132915496826172 12.672974586486816 20.96121597290039 12.566519737243652 C20.810436248779297 12.468779563903809 20.662639617919922 12.457076072692871 19.878602981567383 12.427441596984863 C19.375957489013672 12.415739059448242 19.17163848876953 12.403909683227539 19.109630584716797 12.386104583740234 C19.032808303833008 12.371288299560547 19.000186920166016 12.3209867477417 19.000186920166016 12.235322952270508 C19.000186920166016 12.063624382019043 19.053478240966797 12.051671981811523 19.665815353393555 12.051671981811523 C20.1804141998291 12.051671981811523 20.266202926635742 12.051671981811523 20.331195831298828 12.096121788024902 C20.38448715209961 12.128743171691895 20.393449783325195 12.158127784729004 20.405155181884766 12.28848934173584 L21.100418090820312 12.28848934173584 L21.100418090820312 12.17008113861084 C21.100418090820312 11.895038604736328 21.04712677001953 11.744132041931152 20.908050537109375 11.646516799926758 C20.736600875854492 11.542924880981445 20.490942001342773 11.510427474975586 19.792816162109375 11.510427474975586 C19.227914810180664 11.510427474975586 18.896718978881836 11.519268035888672 18.754653930664062 11.551889419555664 C18.435161590576172 11.614020347595215 18.305049896240234 11.81809139251709 18.305049896240234 12.267696380615234 C18.305049896240234 12.791259765625 18.467784881591797 12.942289352416992 19.05360221862793 12.962958335876465 L19.248584747314453 12.974662780761719 L19.633319854736328 12.983627319335938 L20.201208114624023 13.004295349121094 C20.437774658203125 13.01624870300293 20.491065979003906 13.048746109008789 20.491065979003906 13.187698364257812 C20.491065979003906 13.400734901428223 20.491065979003906 13.400734901428223 19.71026611328125 13.400734901428223 C19.20450782775879 13.400734901428223 19.118595123291016 13.391770362854004 19.053726196289062 13.347444534301758 C19.000436782836914 13.314823150634766 18.979766845703125 13.273486137390137 18.979766845703125 13.12270450592041 L18.284255981445312 13.12270450592041 L18.284255981445312 13.12270450592041 M15.414928436279297 11.543049812316895 L15.414928436279297 13.915209770202637 L18.05951499938965 13.915209770202637 L18.05951499938965 13.347319602966309 L16.121768951416016 13.347319602966309 L16.121768951416016 12.962834358215332 L17.94110679626465 12.962834358215332 L17.94110679626465 12.436407089233398 L16.121768951416016 12.436407089233398 L16.121768951416016 12.096121788024902 L18.038846969604492 12.096121788024902 L18.038846969604492 11.543049812316895 L15.414928436279297 11.543049812316895 L15.414928436279297 11.543049812316895 M13.379941940307617 12.566519737243652 L13.379941940307617 13.036792755126953 L14.332192420959473 13.036792755126953 L14.332192420959473 13.113615036010742 C14.332192420959473 13.367988586425781 14.3115234375 13.379941940307617 13.465728759765625 13.379941940307617 L13.048622131347656 13.367988586425781 C12.844300270080566 13.367988586425781 12.779431343078613 13.359272956848145 12.714187622070312 13.30598258972168 C12.640229225158691 13.240864753723145 12.619560241699219 13.122579574584961 12.619560241699219 12.71717643737793 C12.619560241699219 12.104837417602539 12.619560241699219 12.096121788024902 13.474320411682129 12.096121788024902 C14.012700080871582 12.096121788024902 14.181286811828613 12.116790771484375 14.258109092712402 12.158127784729004 C14.299695014953613 12.190749168395996 14.311399459838867 12.223245620727539 14.311399459838867 12.362448692321777 L15.039033889770508 12.362448692321777 C15.02733039855957 12.010334014892578 15.006661415100098 11.874244689941406 14.900205612182617 11.755961418151855 C14.752288818359375 11.56371784210205 14.41797924041748 11.510427474975586 13.530597686767578 11.510427474975586 C11.998381614685059 11.510427474975586 11.894913673400879 11.584386825561523 11.894913673400879 12.68467903137207 C11.894913673400879 13.465479850769043 11.936375617980957 13.649131774902344 12.137458801269531 13.787960052490234 C12.338541984558105 13.927038192749023 12.599017143249512 13.9596586227417 13.41243839263916 13.9596586227417 C14.05416202545166 13.9596586227417 14.299819946289062 13.94770622253418 14.548341751098633 13.88283634185791 C14.838199615478516 13.829545974731445 14.986117362976074 13.669800758361816 15.018365859985352 13.391645431518555 C15.02733039855957 13.273486137390137 15.039033889770508 12.865093231201172 15.039033889770508 12.631513595581055 L15.039033889770508 12.566643714904785 L13.379941940307617 12.566643714904785 L13.379941940307617 12.566519737243652 L13.379941940307617 12.566519737243652 M9.939862251281738 12.116790771484375 C10.599390029907227 12.116790771484375 10.68517780303955 12.128743171691895 10.759261131286621 12.223245620727539 C10.821391105651855 12.300068855285645 10.845046997070312 12.436283111572266 10.845046997070312 12.791135787963867 C10.845046997070312 13.08099365234375 10.821391105651855 13.18757438659668 10.735603332519531 13.249829292297363 C10.640975952148438 13.314698219299316 10.52269172668457 13.335491180419922 9.94583797454834 13.335491180419922 L9.939986228942871 13.335491180419922 L9.939986228942871 13.959783554077148 L9.94583797454834 13.959783554077148 C10.930959701538086 13.959783554077148 11.155699729919434 13.936251640319824 11.338977813720703 13.788084030151367 C11.519516944885254 13.649256706237793 11.57268238067627 13.41256332397461 11.57268238067627 12.72638988494873 C11.57268238067627 12.04308032989502 11.519516944885254 11.809375762939453 11.338977813720703 11.67029857635498 C11.155699729919434 11.53134536743164 10.930834770202637 11.510552406311035 9.939986228942871 11.510552406311035 L9.939986228942871 12.116790771484375 L9.939862251281738 12.116790771484375 L9.939862251281738 12.116790771484375 M9.93388557434082 12.116790771484375 L9.939862251281738 12.116790771484375 L9.939862251281738 11.510427474975586 L9.93388557434082 11.510427474975586 C8.948888778686523 11.510427474975586 8.724024772644043 11.531220436096191 8.540746688842773 11.670173645019531 C8.360331535339355 11.80925178527832 8.30704116821289 12.051671981811523 8.30704116821289 12.705348014831543 C8.30704116821289 13.41256332397461 8.360331535339355 13.649131774902344 8.540746688842773 13.787960052490234 C8.724148750305176 13.936002731323242 8.948888778686523 13.9596586227417 9.939862251281738 13.9596586227417 L9.939862251281738 13.335367202758789 C9.345327377319336 13.335367202758789 9.238746643066406 13.326651573181152 9.144120216369629 13.249704360961914 C9.058332443237305 13.175745964050293 9.034675598144531 13.08099365234375 9.034675598144531 12.791010856628418 C9.034675598144531 12.480483055114746 9.046504020690918 12.35323429107666 9.087841033935547 12.267447471618652 C9.161800384521484 12.128743171691895 9.226919174194336 12.116790771484375 9.93388557434082 12.116790771484375 L9.93388557434082 12.116790771484375 M21.65934181213379 15.418042182922363 L21.65934181213379 16.121768951416016 L21.750980377197266 16.121768951416016 L21.750980377197266 15.506816864013672 L21.771648406982422 15.506816864013672 L22.38697624206543 16.121768951416016 L22.549585342407227 16.121768951416016 L22.549585342407227 15.418042182922363 L22.45508575439453 15.418042182922363 L22.45508575439453 16.036231994628906 L22.431427001953125 16.036231994628906 L21.81622314453125 15.418042182922363 L21.65934181213379 15.418042182922363 L21.65934181213379 15.418042182922363 M20.124135971069336 15.500717163085938 C20.274917602539062 15.500717163085938 20.325220108032227 15.503580093383789 20.375646591186523 15.509681701660156 C20.425947189331055 15.518396377563477 20.449604034423828 15.53906536102295 20.45832061767578 15.58065128326416 C20.46143341064453 15.61003589630127 20.470272064208984 15.69594669342041 20.470272064208984 15.772769927978516 C20.470272064208984 15.840876579284668 20.461559295654297 15.917699813842773 20.45832061767578 15.956171989440918 C20.446617126464844 15.994646072387695 20.425947189331055 16.0184268951416 20.384361267089844 16.027143478393555 C20.334308624267578 16.03324317932129 20.239431381225586 16.041959762573242 20.136089324951172 16.041959762573242 C20.132976531982422 16.041959762573242 20.127124786376953 16.039094924926758 20.124135971069336 16.039094924926758 L20.124135971069336 16.130735397338867 L20.17132568359375 16.130735397338867 C20.390464782714844 16.130735397338867 20.470149993896484 16.11006736755371 20.508621215820312 16.068729400634766 C20.547096252441406 16.024280548095703 20.564777374267578 15.94446849822998 20.564777374267578 15.772769927978516 C20.564777374267578 15.71947956085205 20.561912536621094 15.645645141601562 20.55892562866211 15.61003589630127 C20.54697036743164 15.53906536102295 20.535390853881836 15.500591278076172 20.505634307861328 15.471207618713379 C20.46143341064453 15.4267578125 20.387226104736328 15.414804458618164 20.144805908203125 15.414804458618164 L20.124135971069336 15.414804458618164 L20.124135971069336 15.500717163085938 L20.124135971069336 15.500717163085938 M20.091514587402344 15.500717163085938 L20.124135971069336 15.500717163085938 L20.124135971069336 15.414928436279297 C20.059017181396484 15.414928436279297 19.955425262451172 15.418042182922363 19.920066833496094 15.421030044555664 C19.822324752807617 15.426881790161133 19.78683853149414 15.435846328735352 19.74836540222168 15.462367057800293 C19.69806480407715 15.503704071044922 19.680259704589844 15.58077621459961 19.680259704589844 15.767043113708496 C19.680259704589844 15.882338523864746 19.686359405517578 15.947457313537598 19.69507598876953 15.991783142089844 C19.70989227294922 16.051172256469727 19.75733184814453 16.095375061035156 19.81348419189453 16.10732650756836 C19.860673904418945 16.11903190612793 19.964265823364258 16.12799644470215 20.124011993408203 16.130859375 L20.124011993408203 16.039220809936523 C20.073711395263672 16.039220809936523 19.970117568969727 16.036357879638672 19.93463134765625 16.033369064331055 C19.854822158813477 16.030254364013672 19.82518768310547 16.02141571044922 19.80750846862793 16.003734588623047 C19.78683853149414 15.97696590423584 19.778125762939453 15.917948722839355 19.778125762939453 15.761066436767578 C19.778125762939453 15.625101089477539 19.78683853149414 15.556994438171387 19.813608169555664 15.536325454711914 C19.842994689941406 15.509681701660156 19.911100387573242 15.500717163085938 20.091514587402344 15.500717163085938 L20.091514587402344 15.500717163085938 M18.494304656982422 15.418042182922363 L18.494304656982422 16.121768951416016 L18.5859432220459 16.121768951416016 L18.5859432220459 15.418042182922363 L18.494304656982422 15.418042182922363 M16.636619567871094 15.418042182922363 L16.636619567871094 15.500717163085938 L16.99172019958496 15.500717163085938 L16.99172019958496 16.121768951416016 L17.086347579956055 16.121768951416016 L17.086347579956055 15.500717163085938 L17.43821144104004 15.500717163085938 L17.43821144104004 15.418042182922363 L16.636619567871094 15.418042182922363 M15.521385192871094 15.882338523864746 L15.515532493591309 15.914959907531738 C15.515532493591309 16.003734588623047 15.503580093383789 16.02141571044922 15.429746627807617 16.030254364013672 C15.406213760375977 16.033369064331055 15.281827926635742 16.04220962524414 15.210857391357422 16.04220962524414 C15.125069618225098 16.04220962524414 15.03044319152832 16.036357879638672 14.983253479003906 16.030254364013672 C14.92710018157959 16.027393341064453 14.90032958984375 16.006723403930664 14.894477844238281 15.950445175170898 C14.885513305664062 15.917823791503906 14.882525444030762 15.80252742767334 14.882525444030762 15.743510246276855 C14.882525444030762 15.622113227844238 14.894477844238281 15.554130554199219 14.920998573303223 15.533337593078613 C14.950632095336914 15.509805679321289 15.036543846130371 15.500717163085938 15.21982192993164 15.500717163085938 C15.343833923339844 15.500717163085938 15.4267578125 15.506816864013672 15.462242126464844 15.518521308898926 C15.500717163085938 15.536325454711914 15.512544631958008 15.556994438171387 15.512544631958008 15.627964973449707 L15.512544631958008 15.651497840881348 L15.601320266723633 15.651497840881348 C15.598456382751465 15.527485847473145 15.598456382751465 15.506816864013672 15.565834045410156 15.47419548034668 C15.515532493591309 15.429746627807617 15.441574096679688 15.414804458618164 15.228537559509277 15.414804458618164 C15.169395446777344 15.414804458618164 15.077756881713867 15.417917251586914 15.033306121826172 15.420905113220215 C14.92697525024414 15.4267578125 14.88538932800293 15.435722351074219 14.85289192199707 15.462242126464844 C14.805703163146973 15.503580093383789 14.7850341796875 15.586503028869629 14.7850341796875 15.781734466552734 C14.7850341796875 15.95032024383545 14.799601554870605 16.030006408691406 14.841188430786133 16.068729400634766 C14.88538932800293 16.112930297851562 14.962335586547852 16.130735397338867 15.240490913391113 16.130735397338867 C15.459379196166992 16.130735397338867 15.527485847473145 16.112930297851562 15.568822860717773 16.074581146240234 C15.598456382751465 16.04494857788086 15.604308128356934 16.0184268951416 15.610160827636719 15.882213592529297 L15.521385192871094 15.882213592529297 L15.521385192871094 15.882338523864746 L15.521385192871094 15.882338523864746 M12.865093231201172 15.418042182922363 L12.865093231201172 15.764054298400879 C12.868206024169922 15.917699813842773 12.868206024169922 15.92965316772461 12.874058723449707 15.970989227294922 C12.879910469055176 16.04494857788086 12.927348136901855 16.098114013671875 12.989354133605957 16.11006736755371 C13.042644500732422 16.11878204345703 13.137271881103516 16.130735397338867 13.282201766967773 16.130735397338867 C13.397746086120605 16.130735397338867 13.51590633392334 16.11878204345703 13.56334400177002 16.11006736755371 C13.643155097961426 16.09524917602539 13.684741020202637 16.04494857788086 13.693456649780273 15.959036827087402 C13.69955825805664 15.917699813842773 13.69955825805664 15.911847114562988 13.69955825805664 15.764054298400879 L13.69955825805664 15.418042182922363 L13.604681968688965 15.418042182922363 L13.604681968688965 15.764054298400879 C13.601818084716797 15.96812629699707 13.601818084716797 15.979954719543457 13.584012985229492 16.003612518310547 C13.557493209838867 16.030132293701172 13.486522674560547 16.042083740234375 13.261533737182617 16.042083740234375 C13.140385627746582 16.042083740234375 13.063313484191895 16.036231994628906 13.027828216552734 16.02726936340332 C12.9686861038208 16.012451171875 12.959970474243164 15.991783142089844 12.959970474243164 15.855817794799805 L12.959970474243164 15.418166160583496 L12.865093231201172 15.418166160583496 L12.865093231201172 15.418042182922363 L12.865093231201172 15.418042182922363 M11.374338150024414 15.500717163085938 L11.40982437133789 15.500717163085938 C11.581398010253906 15.500717163085938 11.622859954833984 15.503580093383789 11.652368545532227 15.524248123168945 C11.676026344299316 15.53906536102295 11.687854766845703 15.58065128326416 11.687854766845703 15.627840042114258 C11.687854766845703 15.666314125061035 11.679014205932617 15.701799392700195 11.6730375289917 15.71947956085205 C11.652244567871094 15.757952690124512 11.607918739318848 15.766918182373047 11.498475074768066 15.766918182373047 L11.374214172363281 15.766918182373047 L11.374214172363281 15.849592208862305 L11.409699440002441 15.849592208862305 C11.563468933105469 15.852705001831055 11.563468933105469 15.852705001831055 11.596091270446777 15.855693817138672 C11.640416145324707 15.86154556274414 11.66407299041748 15.891178131103516 11.6730375289917 15.935503959655762 C11.676026344299316 15.962274551391602 11.676026344299316 15.962274551391602 11.676026344299316 16.056900024414062 L11.676026344299316 16.121768951416016 L11.77065372467041 16.121768951416016 L11.77065372467041 16.021291732788086 C11.77065372467041 15.899893760681152 11.764801025390625 15.882213592529297 11.73815631866455 15.852705001831055 C11.720352172851562 15.831787109375 11.699557304382324 15.820083618164062 11.664196968078613 15.813982963562012 C11.761812210083008 15.79617691040039 11.78248119354248 15.760692596435547 11.78248119354248 15.630579948425293 C11.78248119354248 15.57143783569336 11.776629447937012 15.5389404296875 11.761688232421875 15.50345516204834 A0.15327148139476776 0.15327148139476776 0.0 0 0 11.640416145324707 15.42663288116455 C11.587125778198242 15.420780181884766 11.587125778198242 15.420780181884766 11.409575462341309 15.417917251586914 L11.374089241027832 15.417917251586914 L11.374089241027832 15.500717163085938 L11.374338150024414 15.500717163085938 L11.374338150024414 15.500717163085938 M11.063811302185059 15.767043113708496 L11.063811302185059 15.500717163085938 L11.374338150024414 15.500717163085938 L11.374338150024414 15.418042182922363 L10.972172737121582 15.418042182922363 L10.972172737121582 16.121768951416016 L11.063811302185059 16.121768951416016 L11.063811302185059 15.849592208862305 L11.374338150024414 15.849592208862305 L11.374338150024414 15.766918182373047 L11.063811302185059 15.766918182373047 L11.063811302185059 15.767043113708496 M9.114486694335938 15.418042182922363 L9.114486694335938 15.500717163085938 L9.469464302062988 15.500717163085938 L9.469464302062988 16.121768951416016 L9.561227798461914 16.121768951416016 L9.561227798461914 15.500717163085938 L9.916080474853516 15.500717163085938 L9.916080474853516 15.418042182922363 L9.114486694335938 15.418042182922363 L9.114486694335938 15.418042182922363 M7.301251411437988 15.903007507324219 C7.2982635498046875 15.917823791503906 7.2982635498046875 15.932640075683594 7.2982635498046875 15.935628890991211 C7.2982635498046875 16.02141571044922 7.313079833984375 16.05988883972168 7.366245269775391 16.092510223388672 C7.407707214355469 16.11903190612793 7.469837665557861 16.130985260009766 7.629459381103516 16.130985260009766 C7.842370986938477 16.130985260009766 7.943099021911621 16.113178253173828 7.999253273010254 16.08964729309082 C8.05540657043457 16.060012817382812 8.082052230834961 16.006723403930664 8.082052230834961 15.917948722839355 C8.082052230834961 15.86465835571289 8.070223808288574 15.826309204101562 8.049554824829102 15.796551704406738 C8.017057418823242 15.749361991882324 7.969620227813721 15.731681823730469 7.866151809692383 15.731681823730469 C7.676772594451904 15.728816986083984 7.676772594451904 15.728816986083984 7.6265950202941895 15.728816986083984 C7.543796539306641 15.728816986083984 7.487642765045166 15.72271728515625 7.455145359039307 15.716865539550781 C7.40783166885376 15.699060440063477 7.393014907836914 15.681379318237305 7.393014907836914 15.613273620605469 C7.393014907836914 15.51578140258789 7.446305274963379 15.495113372802734 7.7154951095581055 15.495113372802734 C7.8041462898254395 15.495113372802734 7.869265079498291 15.503828048706055 7.90773868560791 15.512918472290039 C7.955051898956299 15.527734756469727 7.963892459869385 15.548402786254883 7.963892459869385 15.613397598266602 L7.963892459869385 15.628213882446289 L8.05851936340332 15.628213882446289 C8.05851936340332 15.536574363708496 8.043703079223633 15.501090049743652 8.005229949951172 15.468467712402344 C7.954927444458008 15.429994583129883 7.878105163574219 15.415178298950195 7.721347332000732 15.415178298950195 C7.650376796722412 15.415178298950195 7.555624485015869 15.421278953552246 7.5053229331970215 15.427130699157715 C7.425512313842773 15.436095237731934 7.387038707733154 15.447799682617188 7.351553440093994 15.477432250976562 C7.316068172454834 15.507065773010254 7.2983880043029785 15.5513916015625 7.2983880043029785 15.613397598266602 C7.2983880043029785 15.75832748413086 7.369358539581299 15.811616897583008 7.552761077880859 15.811616897583008 C7.898898124694824 15.811616897583008 7.898898124694824 15.811616897583008 7.934383392333984 15.826433181762695 C7.969869136810303 15.838386535644531 7.984560966491699 15.861918449401855 7.984560966491699 15.927162170410156 C7.984560966491699 15.986303329467773 7.963892459869385 16.02178955078125 7.913590431213379 16.03050422668457 C7.878105163574219 16.042457580566406 7.780489444732666 16.048309326171875 7.688849925994873 16.048309326171875 C7.546784400939941 16.048309326171875 7.463985443115234 16.042457580566406 7.434476852416992 16.03050422668457 C7.398991584777832 16.01593780517578 7.393014907836914 16.001121520996094 7.390151500701904 15.918197631835938 L7.390151500701904 15.903380393981934 L7.301251411437988 15.903380393981934 L7.301251411437988 15.903007507324219 M5.325282096862793 15.418042182922363 L5.325282096862793 16.121768951416016 L5.41405725479126 16.121768951416016 L5.41405725479126 15.506816864013672 L5.437714099884033 15.506816864013672 L6.053041458129883 16.121768951416016 L6.215651035308838 16.121768951416016 L6.215651035308838 15.418042182922363 L6.118035316467285 15.418042182922363 L6.118035316467285 16.036231994628906 L6.097366809844971 16.036231994628906 L5.479176044464111 15.418042182922363 L5.325282096862793 15.418042182922363 L5.325282096862793 15.418042182922363 M3.7900772094726562 15.500717163085938 C3.9408578872680664 15.500717163085938 3.9912843704223633 15.503580093383789 4.041461944580078 15.509681701660156 C4.088775634765625 15.518396377563477 4.115420818328857 15.53906536102295 4.121397495269775 15.58065128326416 C4.127373218536377 15.61003589630127 4.133225440979004 15.69594669342041 4.133225440979004 15.772769927978516 C4.133225440979004 15.840876579284668 4.127373218536377 15.917699813842773 4.121397495269775 15.956171989440918 C4.1125569343566895 15.994646072387695 4.088900089263916 16.0184268951416 4.047438144683838 16.027143478393555 C4.000124454498291 16.03324317932129 3.9053726196289062 16.041959762573242 3.798916816711426 16.041959762573242 C3.795928955078125 16.041959762573242 3.792940139770508 16.039094924926758 3.7900772094726562 16.039094924926758 L3.7900772094726562 16.130735397338867 L3.8373899459838867 16.130735397338867 C4.053290367126465 16.130735397338867 4.133100986480713 16.11006736755371 4.174562931060791 16.068729400634766 C4.21303653717041 16.024280548095703 4.230716705322266 15.94446849822998 4.230716705322266 15.772769927978516 C4.230716705322266 15.71947956085205 4.224864482879639 15.645645141601562 4.221876621246338 15.61003589630127 C4.21303653717041 15.53906536102295 4.201208114624023 15.500591278076172 4.171574592590332 15.471207618713379 C4.127248764038086 15.4267578125 4.050302028656006 15.414804458618164 3.8077573776245117 15.414804458618164 L3.7900772094726562 15.414804458618164 L3.7900772094726562 15.500717163085938 L3.7900772094726562 15.500717163085938 M3.7545909881591797 15.500717163085938 L3.7900772094726562 15.500717163085938 L3.7900772094726562 15.414928436279297 C3.7249584197998047 15.414928436279297 3.621490478515625 15.418042182922363 3.583017349243164 15.421030044555664 C3.488389015197754 15.426881790161133 3.449915885925293 15.435846328735352 3.414430618286133 15.462367057800293 C3.3641281127929688 15.503704071044922 3.343461036682129 15.58077621459961 3.343461036682129 15.767043113708496 C3.343461036682129 15.882338523864746 3.3523006439208984 15.947457313537598 3.361265182495117 15.991783142089844 C3.3730926513671875 16.051172256469727 3.4205322265625 16.095375061035156 3.4766855239868164 16.10732650756836 C3.5239992141723633 16.11903190612793 3.6304550170898438 16.12799644470215 3.790201187133789 16.130859375 L3.790201187133789 16.039220809936523 A3.2795867919921875 3.2795867919921875 0.0 0 1 3.6008214950561523 16.033369064331055 C3.5178985595703125 16.030254364013672 3.491377830505371 16.02141571044922 3.4736976623535156 16.003734588623047 C3.450040817260742 15.97696590423584 3.444064140319824 15.917948722839355 3.444064140319824 15.761066436767578 C3.444064140319824 15.625101089477539 3.45290470123291 15.556994438171387 3.4766855239868164 15.536325454711914 C3.5061941146850586 15.509681701660156 3.5771656036376953 15.500717163085938 3.7545909881591797 15.500717163085938 L3.7545909881591797 15.500717163085938 M2.184025764465332 15.882338523864746 L2.181036949157715 15.914959907531738 C2.181036949157715 16.003734588623047 2.1692094802856445 16.02141571044922 2.0952491760253906 16.030254364013672 C2.0686044692993164 16.033369064331055 1.9443435668945312 16.04220962524414 1.8763618469238281 16.04220962524414 A2.171449899673462 2.171449899673462 0.0 0 1 1.6455202102661133 16.030254364013672 C1.5893669128417969 16.027393341064453 1.5627222061157227 16.006723403930664 1.5567455291748047 15.950445175170898 C1.550893783569336 15.917823791503906 1.5449161529541016 15.80252742767334 1.5449161529541016 15.743510246276855 C1.5449161529541016 15.622113227844238 1.5567455291748047 15.554130554199219 1.5863780975341797 15.533337593078613 C1.6158866882324219 15.509805679321289 1.701674461364746 15.500717163085938 1.8850774765014648 15.500717163085938 C2.00933837890625 15.500717163085938 2.092137336730957 15.506816864013672 2.127622604370117 15.518521308898926 C2.1631078720092773 15.536325454711914 2.177924156188965 15.556994438171387 2.177924156188965 15.627964973449707 L2.177924156188965 15.651497840881348 L2.26669979095459 15.651497840881348 C2.263711929321289 15.527485847473145 2.260723114013672 15.506816864013672 2.228226661682129 15.47419548034668 C2.180912971496582 15.429746627807617 2.106954574584961 15.414804458618164 1.8910531997680664 15.414804458618164 C1.8347759246826172 15.414804458618164 1.7402725219726562 15.417917251586914 1.6958227157592773 15.420905113220215 C1.5893669128417969 15.4267578125 1.550893783569336 15.435722351074219 1.5154075622558594 15.462242126464844 C1.468094825744629 15.503580093383789 1.4473018646240234 15.586503028869629 1.4473018646240234 15.781734466552734 C1.4473018646240234 15.95032024383545 1.4651060104370117 16.030006408691406 1.5065679550170898 16.068729400634766 C1.550893783569336 16.112930297851562 1.6278400421142578 16.130735397338867 1.9028825759887695 16.130735397338867 C2.124758720397949 16.130735397338867 2.1897525787353516 16.112930297851562 2.2312145233154297 16.074581146240234 C2.263711929321289 16.04494857788086 2.2696876525878906 16.0184268951416 2.272676467895508 15.882213592529297 L2.184025764465332 15.882213592529297 L2.184025764465332 15.882338523864746 L2.184025764465332 15.882338523864746" fill="black" fill-opacity="1.0" filling="0"/>
<path animation_id="6" d="M1.4651060104370117 10.853763580322266 L1.4651060104370117 10.794621467590332 C1.4739465713500977 10.617195129394531 1.5686979293823242 10.418975830078125 1.7934379577636719 10.256365776062012 L4.641972541809082 8.221254348754883 C4.751416206359863 8.141443252563477 4.857872009277344 8.147294998168945 4.982132911682129 8.23607063293457 L7.807010173797607 10.244537353515625 L21.67116928100586 10.244537353515625 L21.67116928100586 9.623357772827148 L22.147296905517578 9.623357772827148 L22.147296905517578 10.244537353515625 L22.750669479370117 10.244537353515625 L22.750669479370117 10.720787048339844 L22.147296905517578 10.720787048339844 L22.147296905517578 13.865156173706055 L21.67116928100586 13.865156173706055 L21.67116928100586 10.720662117004395 L7.733051300048828 10.720662117004395 C7.676772594451904 10.720662117004395 7.617754936218262 10.697006225585938 7.570316791534424 10.664508819580078 L4.807694911956787 8.691527366638184 L2.142563819885254 10.59054946899414 C1.9000186920166016 10.762124061584473 2.1721973419189453 11.028326034545898 2.4205942153930664 11.028326034545898 L6.981759548187256 11.028326034545898 L7.055717945098877 11.034302711486816 L7.1296772956848145 11.040154457092285 L7.200647830963135 11.049118995666504 L7.271618366241455 11.069787979125977 L7.345576763153076 11.09344482421875 L7.4195356369018555 11.126066207885742 L7.490506172180176 11.164539337158203 L7.561601161956787 11.21185302734375 L7.6265950202941895 11.262155532836914 L7.691714286804199 11.327149391174316 L7.747868061065674 11.401108741760254 L7.8011579513549805 11.481043815612793 L7.836643218994141 11.569818496704102 L7.869140625 11.67042350769043 L7.886945724487305 11.774015426635742 L7.892796993255615 11.89528751373291 L7.892796993255615 12.951253890991211 L7.878105163574219 13.075515747070312 L7.857311725616455 13.19367504119873 L7.821826457977295 13.309219360351562 L7.765548229217529 13.40994930267334 L7.700554370880127 13.504575729370117 L7.629583835601807 13.581398963928223 L7.549648284912109 13.649505615234375 L7.463985443115234 13.708646774291992 L7.378198623657227 13.756086349487305 L7.289422988891602 13.797423362731934 L7.200772285461426 13.83004379272461 L7.111996650695801 13.856565475463867 L7.023221492767334 13.877233505249023 L6.93743371963501 13.886198043823242 L6.854510307312012 13.894913673400879 L6.774699687957764 13.894913673400879 L6.774699687957764 13.897777557373047 L2.4619312286376953 13.897777557373047 L2.3643150329589844 13.889062881469727 L2.269564628601074 13.87710952758789 L2.177924156188965 13.856440544128418 L2.095126152038574 13.829919815063477 L2.0151901245117188 13.791197776794434 L1.9442195892333984 13.749859809875488 L1.8762378692626953 13.70267105102539 L1.8169708251953125 13.646516799926758 L1.7666692733764648 13.59011459350586 L1.7163667678833008 13.528108596801758 L1.674905776977539 13.462989807128906 L1.6452713012695312 13.398120880126953 L1.6216154098510742 13.330013275146484 L1.6038093566894531 13.264894485473633 L1.5919818878173828 13.190936088562012 L1.5891180038452148 13.119965553283691 L1.5862541198730469 13.119965553283691 L1.5862541198730469 12.528544425964355 L2.0625038146972656 12.454336166381836 L2.0625038146972656 13.140634536743164 L2.0654916763305664 13.161551475524902 L2.0743322372436523 13.188072204589844 L2.0831727981567383 13.211605072021484 L2.097989082336426 13.238373756408691 L2.1128063201904297 13.264894485473633 L2.127622604370117 13.282699584960938 L2.1512794494628906 13.312333106994629 L2.177924156188965 13.333001136779785 L2.2045698165893555 13.353670120239258 L2.234203338623047 13.368487358093262 L2.272676467895508 13.38629150390625 L2.311150550842285 13.401107788085938 L2.355475425720215 13.410073280334473 L2.4057769775390625 13.41878890991211 L2.4707717895507812 13.421651840209961 L6.8250017166137695 13.421651840209961 L6.881155490875244 13.412936210632324 L6.940422534942627 13.406835556030273 L6.996576309204102 13.395132064819336 L7.052854537963867 13.377326965332031 L7.111996650695801 13.356410026550293 L7.165162563323975 13.332877159118652 L7.215464115142822 13.303492546081543 L7.25978946685791 13.273859024047852 L7.29527473449707 13.244226455688477 L7.3307600021362305 13.2057523727417 L7.36039400100708 13.16441535949707 L7.381062030792236 13.123078346252441 L7.398867130279541 13.075639724731445 L7.410695552825928 13.016497611999512 L7.413559436798096 12.94839096069336 L7.416547775268555 12.94839096069336 L7.416547775268555 11.883459091186523 L7.413559436798096 11.82431697845459 L7.407707214355469 11.779991149902344 L7.392890453338623 11.738530158996582 L7.3780741691589355 11.700056076049805 L7.360269069671631 11.67042350769043 L7.336612224578857 11.643777847290039 L7.309967041015625 11.620121002197266 L7.283321857452393 11.596464157104492 L7.247836589813232 11.569818496704102 L7.215339660644531 11.555002212524414 L7.176866054534912 11.537198066711426 L7.138392925262451 11.525369644165039 L7.099918842315674 11.516529083251953 L7.061321258544922 11.510676383972168 L7.025835990905762 11.504700660705566 L2.470895767211914 11.504700660705566 C2.1159181594848633 11.504700660705566 1.6603374481201172 11.327274322509766 1.5095558166503906 11.043267250061035 A0.6392329931259155 0.6392329931259155 0.0 0 1 1.4651060104370117 10.853763580322266 L1.4651060104370117 10.853763580322266" fill="black" fill-opacity="1.0" filling="0"/></svg>