<?xml version="1.0" encoding="iso-8859-1"?><svg height="200px" viewBox="0.0 0.0 24.0 24.0" width="200px" xmlns="http://www.w3.org/2000/svg"><path animation_id="0" d="M0.0 0.0 L24.0 0.0 L24.0 24.0 L0.0 24.0 L0.0 0.0" fill="black" fill-opacity="1.0" filling="0"/>
<path animation_id="1" d="M9.48776626586914 7.967253684997559 L9.517400741577148 7.961277961730957 L9.576915740966797 7.901886463165283 L9.576915740966797 7.8900580406188965 L9.570940017700195 7.8900580406188965 L9.469962120056152 7.949449062347412 L9.48776626586914 7.967253684997559 L9.48776626586914 7.967253684997559 M8.264209747314453 7.545539855957031 A0.5123575925827026 0.5123575925827026 0.0 0 0 8.02664566040039 7.622859954833984 L7.878105163574219 7.682251453399658 L7.789080619812012 7.723837375640869 C7.777252197265625 7.729689598083496 7.705908298492432 7.7534708976745605 7.599079132080078 7.783228874206543 L7.420905590057373 7.860424995422363 L7.284318447113037 7.937620639801025 A0.1301126778125763 0.1301126778125763 0.0 0 1 7.183341026306152 7.9792070388793945 L7.064558029174805 7.997011661529541 C7.0349249839782715 8.050426483154297 6.963581085205078 8.097990036010742 6.856751441955566 8.145551681518555 L6.690531253814697 8.258358001708984 L6.619311332702637 8.287991523742676 C6.601382255554199 8.305795669555664 6.571873664855957 8.317625045776367 6.530162334442139 8.323600769042969 L6.441137790679932 8.394820213317871 L6.369918346405029 8.424578666687012 L6.233331203460693 8.472016334533691 L6.233331203460693 8.531407356262207 C6.233331203460693 8.55506420135498 6.191745281219482 8.572993278503418 6.102596282958984 8.584821701049805 L6.025400161743164 8.63238525390625 L5.983813762664795 8.703604698181152 L5.894664764404297 8.703604698181152 L5.787835597991943 8.733238220214844 L5.769781589508057 8.739339828491211 L5.787586688995361 8.810558319091797 C5.775758266448975 8.840316772460938 5.745999813079834 8.857995986938477 5.686609268188477 8.887755393981934 L5.550022125244141 8.976778984069824 L5.490630626678467 9.006412506103516 L5.449169158935547 9.006412506103516 L5.413434982299805 9.018365859985352 C5.413434982299805 9.059951782226562 5.360020160675049 9.095561981201172 5.270871162414551 9.14897632598877 L5.205627918243408 9.184585571289062 L5.015626430511475 9.333126068115234 L4.700865745544434 9.552885055541992 L4.611841201782227 9.600324630737305 L4.611841201782227 15.717612266540527 L7.9853081703186035 15.717612266540527 C7.824939727783203 15.62858772277832 7.676523685455322 15.509681701660156 7.539812088012695 15.373218536376953 C7.112121105194092 14.945402145385742 6.9043145179748535 14.440640449523926 6.9043145179748535 13.846728324890137 C6.9043145179748535 13.2647705078125 7.112121105194092 12.759883880615234 7.539812088012695 12.332191467285156 C7.955550193786621 11.91657829284668 8.460436820983887 11.708647727966309 9.054348945617676 11.708647727966309 C9.648384094238281 11.708647727966309 10.153022766113281 11.91657829284668 10.568885803222656 12.332191467285156 A2.140197992324829 2.140197992324829 0.0 0 1 10.895474433898926 12.748054504394531 L10.895474433898926 9.808380126953125 L10.806449890136719 9.80252742767334 C10.717425346374512 9.79057502746582 10.64608097076416 9.772769927978516 10.586689949035645 9.731307983398438 L10.438150405883789 9.671792984008789 L10.438150405883789 9.612401962280273 L10.43229866027832 9.600448608398438 L10.349125862121582 9.600448608398438 L10.313515663146973 9.57081413269043 L10.254124641418457 9.523252487182617 L10.224491119384766 9.505447387695312 C10.194732666015625 9.481666564941406 10.170952796936035 9.452033042907715 10.1649751663208 9.40446949005127 L10.141318321228027 9.333250045776367 L10.1649751663208 9.273859024047852 L10.1649751663208 9.196662902832031 L10.170952796936035 9.149101257324219 L10.20071029663086 9.06605339050293 L10.230342864990234 9.006536483764648 L10.271929740905762 8.911535263061523 L10.331320762634277 8.822511672973633 L10.408516883850098 8.739339828491211 L10.461931228637695 8.662142753601074 C10.479736328125 8.632509231567383 10.521322250366211 8.602752685546875 10.580713272094727 8.584946632385254 L10.675714492797852 8.47214126586914 L10.80632495880127 8.383116722106934 L10.877544403076172 8.383116722106934 L10.835958480834961 8.347382545471191 C10.835958480834961 8.305795669555664 10.853763580322266 8.27603816986084 10.895349502563477 8.264334678649902 L10.895349502563477 7.545664310455322 L10.835958480834961 7.5813984870910645 L10.705348014831543 7.622984409332275 L10.628151893615723 7.6644463539123535 C10.628151893615723 7.682375907897949 10.598518371582031 7.700181007385254 10.527174949645996 7.729814052581787 L10.461807250976562 7.783353328704834 L10.378759384155273 7.759571552276611 L10.271804809570312 7.8011579513549805 L10.31339168548584 7.830791473388672 L10.141193389892578 7.931768417358398 L9.903629302978516 8.056403160095215 L9.826433181762695 8.086036682128906 L9.7196044921875 8.157380104064941 L9.51764965057373 8.293967247009277 L9.321670532226562 8.40677261352539 L9.262279510498047 8.4423828125 L9.101661682128906 8.543359756469727 C9.012514114379883 8.573119163513184 8.96507453918457 8.620556831359863 8.947270393371582 8.673971176147461 L8.83434009552002 8.703729629516602 L8.804706573486328 8.739339828491211 L8.769096374511719 8.739339828491211 L8.745315551757812 8.79872989654541 C8.739463806152344 8.810558319091797 8.656291007995605 8.840316772460938 8.531532287597656 8.887755393981934 L8.264209747314453 8.958974838256836 L8.222623825073242 8.958974838256836 L8.175185203552246 8.976778984069824 L8.044450759887695 8.929341316223145 C7.967253684997559 8.899582862854004 7.913839817047119 8.828363418579102 7.8960347175598145 8.739339828491211 L7.943597316741943 8.662142753601074 L7.937620639801025 8.590923309326172 L7.997011661529541 8.543359756469727 L8.044450759887695 8.47214126586914 L8.192866325378418 8.305795669555664 L8.210795402526855 8.264334678649902 L8.299944877624512 8.198966979980469 L8.353358268737793 8.097990036010742 C8.371288299560547 8.06835651397705 8.400921821594238 8.050426483154297 8.44250774383545 8.050426483154297 C8.47214126586914 8.03859806060791 8.62665843963623 7.919816017150879 8.905808448791504 7.682251453399658 L8.91763687133789 7.640665054321289 L9.042271614074707 7.515905857086182 L8.323724746704102 7.515905857086182 L8.264209747314453 7.545539855957031 L8.264209747314453 7.545539855957031 M9.808380126953125 7.789080619812012 C9.814231872558594 7.7534708976745605 9.86777114868164 7.723837375640869 9.956795692443848 7.700056076049805 L10.075576782226562 7.640665054321289 C10.123016357421875 7.59310245513916 10.19435977935791 7.545539855957031 10.259727478027344 7.515905857086182 L9.927162170410156 7.515905857086182 L9.8380126953125 7.59310245513916 L9.719230651855469 7.711884498596191 L9.63605785369873 7.8010334968566895 L9.63605785369873 7.860424995422363 C9.74898910522461 7.860300540924072 9.796550750732422 7.842619895935059 9.808380126953125 7.789080619812012 L9.808380126953125 7.789080619812012 M5.835024356842041 7.515905857086182 L4.611591815948486 7.515905857086182 L4.611591815948486 8.614705085754395 L4.641225337982178 8.602752685546875 L4.736226558685303 8.55518913269043 L4.718421459197998 8.501773834228516 C4.730249881744385 8.454212188720703 4.777812480926514 8.412626266479492 4.866837024688721 8.365062713623047 L4.967813968658447 8.246280670166016 L5.116230010986328 8.10969352722168 C5.151839733123779 8.068231582641602 5.19342565536499 8.050301551818848 5.235012054443359 8.038473129272461 L5.300379753112793 7.991035461425781 L5.35391902923584 7.919816017150879 L5.383676528930664 7.860300540924072 C5.401481628417969 7.830666542053223 5.449044704437256 7.812861919403076 5.520263671875 7.789080619812012 C5.609412670135498 7.6702985763549805 5.680632591247559 7.610907077789307 5.728071212768555 7.610907077789307 L5.775633811950684 7.634564399719238 L5.799290180206299 7.634564399719238 C5.846853256225586 7.640540599822998 5.876486301422119 7.622735500335693 5.888314723968506 7.592978000640869 L5.8645339012146 7.581149578094482 L5.775509357452393 7.610907077789307 C5.74575138092041 7.610907077789307 5.739774703979492 7.604930400848389 5.74575138092041 7.592978000640869 L5.769532680511475 7.581149578094482 L5.835024356842041 7.515905857086182 L5.835024356842041 7.515905857086182 M6.4527177810668945 7.7534708976745605 L6.339911460876465 7.860300540924072 L6.126128673553467 8.038473129272461 L5.924173831939697 8.228475570678711 L5.8173441886901855 8.347257614135742 C5.787586688995361 8.394695281982422 5.740148544311523 8.442258834838867 5.68075704574585 8.495798110961914 L5.668804168701172 8.513603210449219 C5.775882720947266 8.495798110961914 5.83514928817749 8.466164588928223 5.83514928817749 8.412626266479492 L5.936126708984375 8.365062713623047 L5.983689308166504 8.323476791381836 L6.102471828460693 8.287866592407227 L6.215401649475098 8.204694747924805 L6.3638176918029785 8.145302772521973 L6.47064733505249 8.109569549560547 C6.530037879943848 8.097740173339844 6.601257801055908 8.050177574157715 6.666625022888184 7.961153030395508 L6.749797821044922 7.931519985198975 L6.874556541442871 7.878105163574219 L6.957604885101318 7.830542087554932 L7.005043029785156 7.788956165313721 L7.094192028045654 7.759322643280029 L7.361389636993408 7.5751729011535645 L7.521758079528809 7.515657424926758 L6.755649566650391 7.515657424926758 L6.559671401977539 7.640415668487549 L6.4527177810668945 7.7534708976745605 L6.4527177810668945 7.7534708976745605 M10.123140335083008 15.71786117553711 L10.568636894226074 15.373467445373535 L10.895224571228027 14.957605361938477 L10.895224571228027 15.71773624420166 L10.123140335083008 15.71773624420166 L10.123140335083008 15.71786117553711 L10.123140335083008 15.71786117553711 M1.6716680526733398 14.203573226928711 L2.123016357421875 13.294776916503906 L2.3605804443359375 13.294776916503906 L2.3605804443359375 14.346137046813965 L2.2241172790527344 14.346137046813965 L2.2241172790527344 13.383801460266113 L1.7488632202148438 14.346137046813965 L1.588496208190918 14.346137046813965 L1.1371479034423828 13.383801460266113 L1.1371479034423828 14.346137046813965 L0.9886074066162109 14.346137046813965 L0.9886074066162109 13.294776916503906 L1.2321491241455078 13.294776916503906 L1.6716680526733398 14.203573226928711 M3.993899345397949 13.294776916503906 L3.993899345397949 13.425387382507324 L3.370229721069336 13.425387382507324 L3.370229721069336 13.728445053100586 L3.95828914642334 13.728445053100586 L3.95828914642334 13.847102165222168 L3.370229721069336 13.847102165222168 L3.370229721069336 14.203573226928711 L4.0176801681518555 14.203573226928711 L4.0176801681518555 14.346137046813965 L3.233767509460449 14.346137046813965 L3.233767509460449 13.294776916503906 L3.993899345397949 13.294776916503906" fill="black" fill-opacity="1.0" filling="0"/>
<path animation_id="2" d="M5.478677749633789 13.354167938232422 C5.54989767074585 13.371973037719727 5.5974602699279785 13.401606559753418 5.650874614715576 13.443192481994629 L5.769657135009766 13.621490478515625 L5.8172197341918945 13.841374397277832 L5.775758266448975 14.04930591583252 L5.680632591247559 14.215401649475098 L5.502335071563721 14.334308624267578 L5.235136985778809 14.375894546508789 L4.78976583480835 14.375894546508789 L4.78976583480835 13.32465934753418 L5.211479663848877 13.32465934753418 L5.478677749633789 13.354167938232422 L5.478677749633789 13.354167938232422 M5.532217025756836 13.544294357299805 L5.389653205871582 13.47282600402832 L5.175869941711426 13.455021858215332 L4.944282054901123 13.455021858215332 L4.944282054901123 14.24491024017334 L5.1936750411987305 14.24491024017334 L5.413434982299805 14.227106094360352 A0.2893606424331665 0.2893606424331665 0.0 0 0 5.538193225860596 14.15588665008545 L5.627217769622803 14.025275230407715 L5.650999546051025 13.846977233886719 L5.621241569519043 13.668679237365723 L5.532217025756836 13.544294357299805 L5.532217025756836 13.544294357299805 M6.607109546661377 13.294776916503906 L6.755649566650391 13.294776916503906 L6.755649566650391 14.346137046813965 L6.607109546661377 14.346137046813965 L6.607109546661377 13.294776916503906 M8.204818725585938 13.306730270385742 L8.739339828491211 14.351988792419434 L8.567142486572266 14.351988792419434 L8.430554389953613 14.078939437866211 L7.789080619812012 14.078939437866211 L7.646516799926758 14.351988792419434 L7.492125034332275 14.351988792419434 L8.02664566040039 13.306730270385742 L8.204818725585938 13.306730270385742 L8.204818725585938 13.306730270385742 M8.371164321899414 13.947955131530762 L8.1216459274292 13.425387382507324 L7.848471641540527 13.947955131530762 L8.371164321899414 13.947955131530762 M9.903505325317383 13.401606559753418 C9.778746604919434 13.401606559753418 9.677892684936523 13.443192481994629 9.606549263000488 13.514411926269531 C9.541181564331055 13.579780578613281 9.511548042297363 13.692709922790527 9.511548042297363 13.817468643188477 C9.511548042297363 13.948080062866211 9.541181564331055 14.055033683776855 9.606549263000488 14.126253128051758 C9.67776870727539 14.203573226928711 9.784722328186035 14.24491024017334 9.927287101745605 14.24491024017334 C10.00448226928711 14.24491024017334 10.075701713562012 14.227106094360352 10.123265266418457 14.18552017211914 L10.20058536529541 14.03722858428955 L10.372781753540039 14.03722858428955 C10.36082935333252 14.143933296203613 10.31339168548584 14.227106094360352 10.230218887329102 14.274544715881348 C10.152897834777832 14.32223129272461 10.04606819152832 14.3518648147583 9.903505325317383 14.3518648147583 C9.725332260131836 14.3518648147583 9.5887451171875 14.304426193237305 9.499595642089844 14.215152740478516 C9.398618698120117 14.126129150390625 9.351179122924805 13.989542007446289 9.351179122924805 13.817344665527344 C9.351179122924805 13.650999069213867 9.39874267578125 13.52038860321045 9.511548042297363 13.431364059448242 C9.606549263000488 13.336238861083984 9.749113082885742 13.28282356262207 9.91533374786377 13.28282356262207 L10.230094909667969 13.354043960571289 C10.31326675415039 13.401482582092285 10.348875999450684 13.484654426574707 10.36070442199707 13.573927879333496 L10.200336456298828 13.573927879333496 A0.16858619451522827 0.16858619451522827 0.0 0 0 10.111186981201172 13.443068504333496 L9.903505325317383 13.401606559753418 L9.903505325317383 13.401606559753418 M12.142563819885254 14.03722858428955 L12.023656845092773 14.203573226928711 L11.845483779907227 14.316130638122559 L11.619871139526367 14.3518648147583 L11.388283729553223 14.316130638122559 L11.209985733032227 14.203573226928711 L11.091203689575195 14.03722858428955 L11.0437650680542 13.817344665527344 L11.091203689575195 13.603561401367188 L11.209985733032227 13.425262451171875 L11.388283729553223 13.312457084655762 L11.619871139526367 13.28282356262207 L11.845483779907227 13.312457084655762 L12.023656845092773 13.425262451171875 L12.142563819885254 13.603561401367188 L12.19000244140625 13.817344665527344 L12.142563819885254 14.03722858428955 M11.922804832458496 13.520512580871582 C11.84560775756836 13.443192481994629 11.744630813598633 13.401606559753418 11.625848770141602 13.401606559753418 C11.501214027404785 13.401606559753418 11.400236129760742 13.443192481994629 11.323040962219238 13.520512580871582 C11.2398681640625 13.603686332702637 11.204133987426758 13.698561668395996 11.204133987426758 13.817468643188477 C11.204133987426758 13.936375617980957 11.2398681640625 14.037352561950684 11.323040962219238 14.114424705505371 C11.400236129760742 14.19759750366211 11.501214027404785 14.233331680297852 11.619996070861816 14.233331680297852 C11.744630813598633 14.233331680297852 11.84560775756836 14.19759750366211 11.922928810119629 14.114424705505371 C11.99427318572998 14.037352561950684 12.035859107971191 13.936375617980957 12.035859107971191 13.817468643188477 C12.035859107971191 13.698561668395996 11.994148254394531 13.603686332702637 11.922804832458496 13.520512580871582 L11.922804832458496 13.520512580871582 M13.170018196105957 13.431488990783691 C13.122579574584961 13.461121559143066 13.092697143554688 13.514411926269531 13.092697143554688 13.579780578613281 L13.122579574584961 13.633318901062012 L13.170018196105957 13.680757522583008 L13.40758228302002 13.728445053100586 L13.52038860321045 13.740147590637207 L13.793437957763672 13.8412504196167 C13.846977233886719 13.876734733581543 13.87661075592041 13.936375617980957 13.87661075592041 14.019299507141113 C13.87661075592041 14.126253128051758 13.823071479797363 14.203573226928711 13.734046936035156 14.262965202331543 C13.64502239227295 14.316255569458008 13.526116371154785 14.346137046813965 13.377824783325195 14.346137046813965 C13.22928524017334 14.346137046813965 13.122455596923828 14.316255569458008 13.045135498046875 14.262965202331543 C12.96196174621582 14.203573226928711 12.926228523254395 14.126253128051758 12.926228523254395 14.019299507141113 L12.926228523254395 14.00759506225586 L13.07476806640625 14.00759506225586 C13.0808687210083 14.078814506530762 13.110502243041992 14.138206481933594 13.169894218444824 14.173690795898438 C13.223433494567871 14.215277671813965 13.300504684448242 14.233331680297852 13.401357650756836 14.233331680297852 C13.496482849121094 14.233331680297852 13.579655647277832 14.215277671813965 13.626969337463379 14.173690795898438 C13.686609268188477 14.144058227539062 13.716242790222168 14.096620559692383 13.716242790222168 14.03722858428955 L13.698188781738281 13.959908485412598 C13.686484336853027 13.936375617980957 13.656601905822754 13.93027400970459 13.626969337463379 13.918322563171387 L13.448920249938965 13.876734733581543 L13.371599197387695 13.87088394165039 L13.35964584350586 13.87088394165039 L13.092449188232422 13.799664497375488 L12.985743522644043 13.710390090942383 L12.944157600402832 13.573927879333496 C12.944157600402832 13.484654426574707 12.985743522644043 13.401482582092285 13.06281566619873 13.354043960571289 C13.152088165283203 13.306605339050293 13.258793830871582 13.276972770690918 13.407458305358887 13.276972770690918 C13.538069725036621 13.276972770690918 13.64502239227295 13.294776916503906 13.716242790222168 13.342090606689453 C13.793313980102539 13.3956298828125 13.83489990234375 13.472702026367188 13.83489990234375 13.573802947998047 L13.674656867980957 13.573802947998047 C13.674656867980957 13.51416301727295 13.64502239227295 13.460997581481934 13.597335815429688 13.43124008178711 L13.401357650756836 13.383552551269531 L13.170018196105957 13.431488990783691 L13.170018196105957 13.431488990783691 M15.320052146911621 14.203573226928711 L15.777502059936523 13.294776916503906 L16.014816284179688 13.294776916503906 L16.014816284179688 14.346137046813965 L15.872377395629883 14.346137046813965 L15.872377395629883 13.383801460266113 L15.397124290466309 14.346137046813965 L15.242731094360352 14.346137046813965 L14.785531997680664 13.383801460266113 L14.785531997680664 14.346137046813965 L14.636991500854492 14.346137046813965 L14.636991500854492 13.294776916503906 L14.88650894165039 13.294776916503906 L15.320052146911621 14.203573226928711 L15.320052146911621 14.203573226928711 M17.903629302978516 14.025400161743164 L17.78472328186035 14.19759750366211 L17.606674194335938 14.304551124572754 L17.381061553955078 14.346137046813965 L17.149349212646484 14.304551124572754 L16.97130012512207 14.19759750366211 L16.852394104003906 14.025400161743164 L16.804954528808594 13.811616897583008 L16.852394104003906 13.5917329788208 L16.97130012512207 13.413434982299805 L17.149349212646484 13.306730270385742 L17.381061553955078 13.27709674835205 L17.606674194335938 13.306730270385742 L17.78472328186035 13.413434982299805 L17.903629302978516 13.5917329788208 L17.951066970825195 13.811616897583008 L17.903629302978516 14.025400161743164 M17.683744430541992 13.514411926269531 C17.606674194335938 13.431488990783691 17.50569725036621 13.395753860473633 17.386789321899414 13.395753860473633 C17.26203155517578 13.395753860473633 17.161178588867188 13.431488990783691 17.083982467651367 13.514411926269531 C17.000810623168945 13.5917329788208 16.965076446533203 13.692709922790527 16.965076446533203 13.811616897583008 C16.965076446533203 13.93027400970459 17.000810623168945 14.025400161743164 17.083982467651367 14.108572959899902 C17.161052703857422 14.185644149780273 17.26203155517578 14.227230072021484 17.380937576293945 14.227230072021484 C17.50569725036621 14.227230072021484 17.606548309326172 14.185644149780273 17.683744430541992 14.108572959899902 C17.75496482849121 14.025400161743164 17.796550750732422 13.93027400970459 17.796550750732422 13.811616897583008 C17.796676635742188 13.692709922790527 17.755090713500977 13.5917329788208 17.683744430541992 13.514411926269531 M21.229658126831055 16.335554122924805 L21.20002555847168 16.252382278442383 L21.11075210571289 16.216896057128906 L21.021726608276367 16.252382278442383 C20.992095947265625 16.264333724975586 20.980140686035156 16.293968200683594 20.980140686035156 16.335554122924805 A0.08715681731700897 0.08715681731700897 0.0 0 0 21.021726608276367 16.41287612915039 C21.051361083984375 16.430679321289062 21.081119537353516 16.442508697509766 21.11075210571289 16.442508697509766 L21.20002555847168 16.41287612915039 L21.229658126831055 16.335554122924805 M21.288925170898438 16.335554122924805 L21.241485595703125 16.442508697509766 L21.110626220703125 16.484094619750977 C21.05123519897461 16.484094619750977 21.0096492767334 16.47214126586914 20.980018615722656 16.442508697509766 C20.950382232666016 16.41287612915039 20.932579040527344 16.383115768432617 20.932579040527344 16.335554122924805 C20.932579040527344 16.282014846801758 20.950382232666016 16.24652862548828 20.980018615722656 16.216896057128906 L21.110626220703125 16.175310134887695 L21.241485595703125 16.216896057128906 C21.271244049072266 16.24652862548828 21.288925170898438 16.28213882446289 21.288925170898438 16.335554122924805 M21.823444366455078 16.18726348876953 L21.882835388183594 16.18726348876953 L21.882835388183594 16.234703063964844 L21.94247817993164 16.193113327026367 L22.019550323486328 16.175310134887695 L22.120525360107422 16.20494270324707 L22.162111282348633 16.305919647216797 L22.162111282348633 16.472265243530273 L22.10272216796875 16.472265243530273 L22.10272216796875 16.305919647216797 L22.07893943786621 16.24652862548828 L22.001867294311523 16.216896057128906 L21.924549102783203 16.24652862548828 L21.894912719726562 16.31189727783203 L21.894912719726562 16.47214126586914 L21.823692321777344 16.47214126586914 L21.823692321777344 16.18726348876953 L21.823444366455078 16.18726348876953 M22.969806671142578 16.46031379699707 L22.85089874267578 16.484094619750977 L22.732242584228516 16.46031379699707 C22.70261001586914 16.4544620513916 22.696508407592773 16.424827575683594 22.696508407592773 16.383241653442383 L22.755901336669922 16.383241653442383 L22.785531997680664 16.430679321289062 L22.85089874267578 16.4426326751709 L22.93407440185547 16.430679321289062 L22.95187759399414 16.39494514465332 C22.95187759399414 16.37141227722168 22.922245025634766 16.365312576293945 22.874805450439453 16.353607177734375 L22.86285400390625 16.353607177734375 L22.732242584228516 16.312021255493164 L22.70261001586914 16.264333724975586 L22.743946075439453 16.193113327026367 L22.85089874267578 16.175310134887695 L22.963706970214844 16.193113327026367 L22.999439239501953 16.264333724975586 L22.940048217773438 16.264333724975586 L22.9219970703125 16.222747802734375 L22.85077667236328 16.216896057128906 L22.791383743286133 16.222747802734375 L22.77358055114746 16.252382278442383 C22.77358055114746 16.27616310119629 22.803211212158203 16.293968200683594 22.86260414123535 16.305919647216797 L22.880409240722656 16.305919647216797 L22.969682693481445 16.335554122924805 L22.99931526184082 16.353607177734375 L23.011268615722656 16.383241653442383 L22.969806671142578 16.46031379699707 M15.509929656982422 16.252382278442383 C15.486396789550781 16.264333724975586 15.480297088623047 16.293968200683594 15.480297088623047 16.335554122924805 L15.480297088623047 16.472265243530273 L15.409077644348145 16.472265243530273 L15.409077644348145 16.18726348876953 L15.468467712402344 16.18726348876953 L15.468467712402344 16.234703063964844 L15.516155242919922 16.193113327026367 L15.59932804107666 16.175310134887695 L15.617133140563965 16.175310134887695 L15.617133140563965 16.222747802734375 L15.59932804107666 16.222747802734375 L15.509929656982422 16.252382278442383 L15.509929656982422 16.252382278442383 M16.359460830688477 16.252382278442383 L16.28213882446289 16.216896057128906 L16.193113327026367 16.252382278442383 C16.163482666015625 16.264333724975586 16.151527404785156 16.293968200683594 16.151527404785156 16.335554122924805 L16.193113327026367 16.41287612915039 C16.222747802734375 16.430679321289062 16.252506256103516 16.442508697509766 16.28213882446289 16.442508697509766 L16.359460830688477 16.41287612915039 L16.401046752929688 16.335554122924805 L16.359460830688477 16.252382278442383 M16.46031379699707 16.335554122924805 L16.40677261352539 16.442508697509766 L16.282014846801758 16.484094619750977 C16.222625732421875 16.484094619750977 16.1810359954834 16.47214126586914 16.151405334472656 16.442508697509766 C16.109817504882812 16.41287612915039 16.092012405395508 16.383115768432617 16.092012405395508 16.335554122924805 C16.092012405395508 16.282014846801758 16.109817504882812 16.24652862548828 16.151405334472656 16.216896057128906 L16.282014846801758 16.175310134887695 L16.40677261352539 16.216896057128906 C16.43653106689453 16.24652862548828 16.46031379699707 16.28213882446289 16.46031379699707 16.335554122924805 M17.321422576904297 16.05640411376953 L17.321422576904297 16.472265243530273 L17.268131256103516 16.472265243530273 L17.26203155517578 16.430679321289062 L17.202638626098633 16.46031379699707 L17.131420135498047 16.484094619750977 L17.01276206970215 16.442508697509766 C16.982879638671875 16.41287612915039 16.965076446533203 16.383115768432617 16.965076446533203 16.335554122924805 C16.965076446533203 16.282014846801758 16.982879638671875 16.24652862548828 17.01276206970215 16.222747802734375 L17.131420135498047 16.175310134887695 L17.202638626098633 16.18726348876953 L17.26203155517578 16.222747802734375 L17.26203155517578 16.05640411376953 L17.321422576904297 16.05640411376953 L17.321422576904297 16.05640411376953 M17.143497467041016 16.216896057128906 L17.054224014282227 16.24652862548828 L17.030691146850586 16.335554122924805 L17.054224014282227 16.41287612915039 C17.072277069091797 16.430679321289062 17.101911544799805 16.442508697509766 17.143497467041016 16.442508697509766 L17.232521057128906 16.41287612915039 L17.26825714111328 16.335554122924805 L17.232521057128906 16.24652862548828 L17.143497467041016 16.216896057128906 M17.945215225219727 16.18726348876953 L17.945215225219727 16.341655731201172 L17.974849700927734 16.41287612915039 C17.980701446533203 16.430679321289062 18.010334014892578 16.442508697509766 18.04021644592285 16.442508697509766 L18.123390197753906 16.41287612915039 L18.15302276611328 16.341655731201172 L18.15302276611328 16.18726348876953 L18.218141555786133 16.18726348876953 L18.218141555786133 16.424827575683594 L18.230093002319336 16.472265243530273 L18.15887451171875 16.472265243530273 L18.15887451171875 16.424827575683594 L18.099483489990234 16.46031379699707 L18.034116744995117 16.484094619750977 L17.921310424804688 16.442508697509766 C17.891677856445312 16.424701690673828 17.88582420349121 16.394821166992188 17.88582420349121 16.341529846191406 L17.88582420349121 16.1871395111084 L17.945215225219727 16.1871395111084 L17.945215225219727 16.18726348876953 L17.945215225219727 16.18726348876953 M18.842060089111328 16.41287612915039 L18.92523193359375 16.442508697509766 L18.9903507232666 16.424701690673828 L19.01998519897461 16.371164321899414 L19.07962417602539 16.371164321899414 L19.04388999938965 16.454336166381836 L18.93108367919922 16.483970642089844 L18.806325912475586 16.442384719848633 C18.776691436767578 16.412750244140625 18.75278663635254 16.382991790771484 18.75278663635254 16.335430145263672 C18.75278663635254 16.281890869140625 18.776567459106445 16.24640464782715 18.806325912475586 16.222625732421875 L18.93108367919922 16.17518424987793 L19.032062530517578 16.204818725585938 L19.079748153686523 16.276037216186523 L19.02010726928711 16.276037216186523 L18.984622955322266 16.22249984741211 L18.92523193359375 16.21664810180664 L18.842060089111328 16.246280670166016 L18.824254989624023 16.33530616760254 L18.842060089111328 16.41287612915039 L18.842060089111328 16.41287612915039 M19.643901824951172 16.133724212646484 L19.703292846679688 16.104089736938477 L19.703292846679688 16.18726348876953 L19.79256820678711 16.18726348876953 L19.79256820678711 16.222747802734375 L19.703292846679688 16.222747802734375 L19.703292846679688 16.353607177734375 L19.715246200561523 16.430679321289062 L19.7448787689209 16.4426326751709 L19.79256820678711 16.4426326751709 L19.79256820678711 16.472265243530273 L19.762683868408203 16.48421859741211 L19.733051300048828 16.48421859741211 L19.667932510375977 16.460437774658203 C19.655981063842773 16.454586029052734 19.64415168762207 16.430805206298828 19.64415168762207 16.401046752929688 L19.64415168762207 16.222747802734375 L19.566831588745117 16.222747802734375 L19.566831588745117 16.18726348876953 L19.64415168762207 16.18726348876953 L19.64415168762207 16.133724212646484 L19.643901824951172 16.133724212646484 M20.32671356201172 16.18726348876953 L20.386354446411133 16.18726348876953 L20.386354446411133 16.472265243530273 L20.32671356201172 16.472265243530273 L20.32671356201172 16.18726348876953 M20.32671356201172 16.05640411376953 L20.386354446411133 16.05640411376953 L20.386354446411133 16.116043090820312 L20.32671356201172 16.116043090820312 L20.32671356201172 16.05640411376953 M10.259852409362793 16.05640411376953 L10.259852409362793 16.472265243530273 L10.200461387634277 16.472265243530273 L10.200461387634277 16.086036682128906 L10.004358291625977 16.472265243530273 L9.927162170410156 16.472265243530273 L9.737160682678223 16.086036682128906 L9.737160682678223 16.472265243530273 L9.67776870727539 16.472265243530273 L9.67776870727539 16.05640411376953 L9.778746604919434 16.05640411376953 L9.962896347045898 16.41287612915039 L10.164851188659668 16.05640411376953 L10.259852409362793 16.05640411376953 M10.853638648986816 16.222747802734375 L10.984374046325684 16.175310134887695 L11.103157043457031 16.216896057128906 C11.132789611816406 16.24652862548828 11.150594711303711 16.282014846801758 11.150594711303711 16.335554122924805 L11.144742965698242 16.335554122924805 L11.144742965698242 16.341655731201172 L10.865592002868652 16.341655731201172 L10.907177925109863 16.41287612915039 L10.984374046325684 16.442508697509766 L11.0437650680542 16.43055534362793 L11.073522567749023 16.383115768432617 L11.144742965698242 16.383115768432617 L11.091203689575195 16.460187911987305 L10.972421646118164 16.483970642089844 L10.853638648986816 16.442384719848633 L10.806200981140137 16.335430145263672 C10.806200981140137 16.28213882446289 10.824005126953125 16.252382278442383 10.853638648986816 16.222747802734375 L10.853638648986816 16.222747802734375 M12.005976676940918 16.05640411376953 L12.005976676940918 16.472265243530273 L11.95256233215332 16.472265243530273 L11.946585655212402 16.430679321289062 L11.887194633483887 16.46031379699707 L11.815850257873535 16.484094619750977 L11.697068214416504 16.442508697509766 C11.667434692382812 16.41287612915039 11.649630546569824 16.383115768432617 11.649630546569824 16.335554122924805 C11.649630546569824 16.282014846801758 11.667434692382812 16.24652862548828 11.697068214416504 16.222747802734375 L11.815850257873535 16.175310134887695 L11.887194633483887 16.18726348876953 L11.946585655212402 16.222747802734375 L11.946585655212402 16.05640411376953 L12.005976676940918 16.05640411376953 L12.005976676940918 16.05640411376953 M11.08535099029541 16.305919647216797 L11.055718421936035 16.234703063964844 L10.972545623779297 16.216896057128906 L10.907302856445312 16.24652862548828 C10.883522033691406 16.252382278442383 10.877544403076172 16.27616310119629 10.877544403076172 16.305919647216797 L11.08535099029541 16.305919647216797 L11.08535099029541 16.305919647216797 M11.827803611755371 16.216896057128906 L11.738654136657715 16.24652862548828 L11.709020614624023 16.335554122924805 L11.738654136657715 16.41287612915039 L11.827803611755371 16.442508697509766 C11.857437133789062 16.442508697509766 11.887194633483887 16.43055534362793 11.916952133178711 16.41287612915039 L11.95256233215332 16.335554122924805 C11.95256233215332 16.293968200683594 11.946585655212402 16.264333724975586 11.916952133178711 16.24652862548828 C11.893170356750488 16.222747802734375 11.863412857055664 16.216896057128906 11.827803611755371 16.216896057128906 M12.570130348205566 16.05640411376953 L12.629521369934082 16.05640411376953 L12.629521369934082 16.116043090820312 L12.570130348205566 16.116043090820312 L12.570130348205566 16.05640411376953 M12.570130348205566 16.18726348876953 L12.629521369934082 16.18726348876953 L12.629521369934082 16.472265243530273 L12.570130348205566 16.472265243530273 L12.570130348205566 16.18726348876953 M13.496607780456543 16.472265243530273 L13.437215805053711 16.472265243530273 L13.43111515045166 16.430679321289062 L13.377824783325195 16.46031379699707 L13.312457084655762 16.484094619750977 L13.211480140686035 16.4544620513916 L13.169894218444824 16.383241653442383 L13.211480140686035 16.312021255493164 L13.359771728515625 16.293968200683594 L13.430991172790527 16.293968200683594 A0.07956172525882721 0.07956172525882721 0.0 0 0 13.407458305358887 16.234577178955078 L13.342090606689453 16.21677017211914 L13.288551330566406 16.222625732421875 L13.258917808532715 16.264209747314453 L13.199527740478516 16.264209747314453 L13.241113662719727 16.192989349365234 L13.342090606689453 16.17518424987793 L13.449044227600098 16.204818725585938 C13.478677749633789 16.222625732421875 13.490631103515625 16.252256393432617 13.490631103515625 16.293842315673828 L13.490631103515625 16.442384719848633 L13.496607780456543 16.472265243530273 L13.496607780456543 16.472265243530273 M13.312582015991211 16.4426326751709 L13.401606559753418 16.41299819946289 L13.43124008178711 16.341777801513672 L13.43124008178711 16.335678100585938 L13.360020637512207 16.335678100585938 L13.259042739868164 16.341777801513672 L13.229409217834473 16.383365631103516 L13.259042739868164 16.430805206298828 L13.312582015991211 16.4426326751709 M14.832969665527344 16.0744571685791 L14.874556541442871 16.116043090820312 L14.88650894165039 16.175434112548828 L14.84492301940918 16.26445960998535 L14.708459854125977 16.294092178344727 L14.565773010253906 16.294092178344727 L14.565773010253906 16.47239112854004 L14.518333435058594 16.47239112854004 L14.518333435058594 16.05652618408203 L14.708459854125977 16.05652618408203 L14.785531997680664 16.0684814453125 L14.832969665527344 16.0744571685791 M14.827117919921875 16.175310134887695 L14.803337097167969 16.11591911315918 L14.708459854125977 16.103965759277344 L14.565773010253906 16.103965759277344 L14.565773010253906 16.24652862548828 L14.708459854125977 16.24652862548828 L14.803337097167969 16.222747802734375 L14.827117919921875 16.175310134887695 M6.262715816497803 16.472265243530273 L6.262715816497803 16.05640411376953 L6.35174036026001 16.05640411376953 L6.630890846252441 16.41287612915039 L6.630890846252441 16.05640411376953 L6.690282344818115 16.05640411376953 L6.690282344818115 16.472265243530273 L6.607109546661377 16.472265243530273 L6.321982383728027 16.116043090820312 L6.321982383728027 16.472265243530273 L6.262715816497803 16.472265243530273 M7.468343257904053 16.234703063964844 L7.3910231590271 16.216896057128906 L7.319803714752197 16.24652862548828 L7.290169715881348 16.305919647216797 L7.497977256774902 16.305919647216797 L7.468343257904053 16.234703063964844 L7.468343257904053 16.234703063964844 M7.403100490570068 16.175310134887695 L7.5218825340271 16.216896057128906 C7.551516056060791 16.24652862548828 7.5694451332092285 16.282014846801758 7.5694451332092285 16.335554122924805 L7.557492733001709 16.335554122924805 L7.557492733001709 16.341655731201172 L7.284318447113037 16.341655731201172 L7.319928169250488 16.41287612915039 L7.403100490570068 16.442508697509766 L7.462491989135742 16.43055534362793 L7.492249488830566 16.383115768432617 L7.557492733001709 16.383115768432617 L7.50993013381958 16.460187911987305 L7.391147613525391 16.483970642089844 L7.272365093231201 16.442384719848633 L7.224926948547363 16.335430145263672 C7.224926948547363 16.281890869140625 7.24273157119751 16.252256393432617 7.272365093231201 16.222625732421875 L7.403100490570068 16.175310134887695 L7.403100490570068 16.175310134887695 M8.400796890258789 16.18726348876953 L8.531532287597656 16.41287612915039 L8.638360977172852 16.18726348876953 L8.697752952575684 16.18726348876953 L8.561165809631348 16.472265243530273 L8.489945411682129 16.472265243530273 L8.371164321899414 16.222747802734375 L8.24042797088623 16.472265243530273 L8.181037902832031 16.472265243530273 L8.044325828552246 16.18726348876953 L8.103716850280762 16.18726348876953 L8.210670471191406 16.41287612915039 L8.329453468322754 16.18726348876953 L8.400796890258789 16.18726348876953" fill="black" fill-opacity="1.0" filling="0"/></svg>