<?xml version="1.0" encoding="iso-8859-1"?><svg height="200px" viewBox="0.0 0.0 24.0 24.0" width="200px" xmlns="http://www.w3.org/2000/svg"><path animation_id="0" d="M0.0 24.0 L24.0 24.0 L24.0 0.0 L0.0 0.0 L0.0 24.0" fill="black" fill-opacity="1.0" filling="0"/>
<path animation_id="1" d="M9.969619750976562 2.416733741760254 L11.442569732666016 2.416733741760254 L11.89852523803711 1.0143814086914062 L12.35373306274414 2.416733741760254 L13.827678680419922 2.416733741760254 L12.636120796203613 3.2839441299438477 L13.09207534790039 4.685550689697266 L11.89852523803711 3.819087028503418 L10.704351425170898 4.685550689697266 L11.160306930541992 3.2839441299438477 L9.969619750976562 2.416733741760254 L9.969619750976562 2.416733741760254" fill="black" fill-opacity="1.0" filling="0"/>
<path animation_id="2" d="M12.0 5.560729503631592 C14.245906829833984 5.560729503631592 16.284629821777344 6.476498603820801 17.761688232421875 7.9538068771362305 C19.238872528076172 9.430991172790527 20.154766082763672 11.469588279724121 20.154766082763672 13.715495109558105 C20.154766082763672 15.961527824401855 19.238998413085938 18.000123977661133 17.761688232421875 19.477432250976562 C16.284629821777344 20.954492568969727 14.245906829833984 21.870384216308594 12.000123977661133 21.870384216308594 L11.999876022338867 21.870384216308594 C9.754093170166016 21.870384216308594 7.7153706550598145 20.95461654663086 6.238187313079834 19.477184295654297 C4.761003494262695 18.000123977661133 3.8451099395751953 15.961527824401855 3.8451099395751953 13.715495109558105 C3.8451099395751953 11.46971321105957 4.761003494262695 9.430741310119629 6.238187313079834 7.953682899475098 C7.7153706550598145 6.476498603820801 9.754093170166016 5.560729503631592 12.0 5.560729503631592 M12.0 5.887567520141602 C9.84436321258545 5.887567520141602 7.887319087982178 6.766731262207031 6.469277381896973 8.184772491455078 C5.050987243652344 9.602938652038574 4.172072410583496 11.559858322143555 4.171947956085205 13.715495109558105 C4.172072410583496 15.871257781982422 5.051111698150635 17.828176498413086 6.469277381896973 19.246219635009766 C7.887319087982178 20.664508819580078 9.84423828125 21.543546676635742 11.999876022338867 21.543546676635742 L12.000123977661133 21.543546676635742 C14.155637741088867 21.543546676635742 16.1124324798584 20.664384841918945 17.530597686767578 19.246219635009766 C18.94876480102539 17.828176498413086 19.827802658081055 15.871381759643555 19.82792854309082 13.715495109558105 C19.827802658081055 11.559858322143555 18.948640823364258 9.602938652038574 17.530597686767578 8.184897422790527 C16.1124324798584 6.766731262207031 14.155513763427734 5.887567520141602 12.0 5.887567520141602 L12.0 5.887567520141602" fill="black" fill-opacity="1.0" filling="0"/>
<path animation_id="3" d="M12.014568328857422 8.028139114379883 C13.584884643554688 8.028139114379883 15.010272026062012 8.668493270874023 16.043081283569336 9.701301574707031 C17.075763702392578 10.73398494720459 17.71611785888672 12.159372329711914 17.71611785888672 13.72968864440918 L17.71611785888672 13.729938507080078 C17.71611785888672 15.300130844116211 17.075763702392578 16.72551727294922 16.04295539855957 17.75832748413086 C15.010272026062012 18.791135787963867 13.584884643554688 19.431488037109375 12.014692306518555 19.431488037109375 L12.014443397521973 19.431488037109375 C10.44425106048584 19.431488037109375 9.018863677978516 18.791135787963867 7.98605489730835 17.75832748413086 C6.9532470703125 16.72551727294922 6.31301736831665 15.30025577545166 6.31301736831665 13.729938507080078 L6.31301736831665 13.72968864440918 C6.31301736831665 12.159496307373047 6.9532470703125 10.73398494720459 7.98605489730835 9.701301574707031 C9.018863677978516 8.668493270874023 10.44425106048584 8.028139114379883 12.014568328857422 8.028139114379883 L12.014568328857422 8.028139114379883 M12.014568328857422 8.354976654052734 C10.534396171569824 8.354976654052734 9.190811157226562 8.958600044250488 8.217145919799805 9.932267189025879 C7.243478775024414 10.906058311462402 6.63985538482666 12.249642372131348 6.639730930328369 13.72968864440918 L6.639730930328369 13.729938507080078 C6.63985538482666 15.209985733032227 7.243478775024414 16.553569793701172 8.217145919799805 17.527236938476562 C9.19068717956543 18.50090217590332 10.534272193908691 19.10452651977539 12.014443397521973 19.10452651977539 L12.014692306518555 19.10452651977539 C13.49461555480957 19.10452651977539 14.838199615478516 18.50090217590332 15.811990737915039 17.527236938476562 C16.785781860351562 16.553569793701172 17.389404296875 15.209985733032227 17.389404296875 13.729938507080078 L17.389404296875 13.72968864440918 C17.389404296875 12.249642372131348 16.785655975341797 10.906182289123535 15.811990737915039 9.932267189025879 C14.838324546813965 8.958600044250488 13.49461555480957 8.354976654052734 12.014568328857422 8.354976654052734 L12.014568328857422 8.354976654052734" fill="black" fill-opacity="1.0" filling="0"/>
<path animation_id="4" d="M5.923924446105957 14.81865119934082 L6.031625747680664 15.284317970275879 L6.264707565307617 15.297889709472656 L6.361202716827393 15.715620040893555 L4.923737525939941 15.523750305175781 L4.820893287658691 15.078254699707031 L6.028761863708496 14.275540351867676 L6.127373695373535 14.70335578918457 L5.923924446105957 14.81865119934082 M5.657722473144531 14.970304489135742 L5.216211318969727 15.226421356201172 L5.725331783294678 15.261905670166016 L5.657722473144531 14.970304489135742 M5.6639485359191895 14.072962760925293 L5.656975746154785 13.670547485351562 L6.034613609313965 13.66369915008545 L6.041586399078369 14.066364288330078 L5.6639485359191895 14.072962760925293 L5.6639485359191895 14.072962760925293 M6.088277339935303 11.913216590881348 L5.948826789855957 12.370416641235352 L6.1438093185424805 12.498786926269531 L6.018427848815918 12.908797264099121 L4.869576454162598 12.023905754089355 L5.003299236297607 11.586627960205078 L6.450476169586182 11.49548625946045 L6.322231292724609 11.91520881652832 L6.088277339935303 11.913216590881348 L6.088277339935303 11.913216590881348 M5.781983375549316 11.911474227905273 L5.271493911743164 11.91259479522705 L5.6947021484375 12.19797134399414 L5.781983375549316 11.911474227905273 M6.183901309967041 11.148478507995605 L6.3541059494018555 10.78366470336914 L6.696383476257324 10.943285942077637 L6.526302814483643 11.308099746704102 L6.183901309967041 11.148478507995605 M6.141692161560059 9.283073425292969 L6.6084794998168945 8.76498794555664 C6.710079193115234 8.652181625366211 6.813173294067383 8.591794967651367 6.917139053344727 8.583950996398926 C7.021353244781494 8.575982093811035 7.123326778411865 8.616697311401367 7.222436904907227 8.70596981048584 C7.324161529541016 8.7974853515625 7.376330852508545 8.899831771850586 7.3785719871521 9.012638092041016 C7.380813121795654 9.125319480895996 7.325033187866211 9.245097160339355 7.21210241317749 9.3707275390625 L7.058332920074463 9.541305541992188 L7.4326090812683105 9.8783540725708 L7.150719165802002 10.191495895385742 L6.141692161560059 9.283073425292969 L6.141692161560059 9.283073425292969 M6.853763580322266 9.357156753540039 L6.922741889953613 9.280956268310547 C6.976903438568115 9.220817565917969 7.004544734954834 9.169146537780762 7.005416393280029 9.126190185546875 A0.13608916103839874 0.13608916103839874 0.0 0 0 6.958102703094482 9.01736831665039 A0.15015874803066254 0.15015874803066254 0.0 0 0 6.849280834197998 8.976655006408691 C6.808317184448242 8.977899551391602 6.761377334594727 9.007658004760742 6.708958625793457 9.06592845916748 L6.629023551940918 9.154703140258789 L6.853763580322266 9.357156753540039 L6.853763580322266 9.357156753540039 M7.720973968505859 8.60748291015625 C7.5938496589660645 8.42607307434082 7.545290470123291 8.249268531799316 7.5755462646484375 8.077693939208984 C7.605926990509033 7.905745983123779 7.711511135101318 7.75633430480957 7.89192533493042 7.62995719909668 C8.076947212219238 7.50034236907959 8.254497528076172 7.450040340423584 8.424203872680664 7.479300498962402 C8.593788146972656 7.5084357261657715 8.741456031799316 7.6128997802734375 8.86671257019043 7.7916951179504395 C8.95772933959961 7.9216837882995605 9.010272026062012 8.043703079223633 9.024964332580566 8.15750503540039 A0.5686360001564026 0.5686360001564026 0.0 0 1 8.97142505645752 8.484342575073242 C8.920999526977539 8.588557243347168 8.834090232849121 8.683932304382324 8.71082592010498 8.770341873168945 C8.585445404052734 8.858120918273926 8.467535018920898 8.910913467407227 8.357467651367188 8.928593635559082 C8.247400283813477 8.946273803710938 8.136214256286621 8.929590225219727 8.02490234375 8.878789901733398 C7.913217067718506 8.828239440917969 7.811741828918457 8.737720489501953 7.72084903717041 8.607732772827148 L7.720973968505859 8.60748291015625 L7.720973968505859 8.60748291015625 M8.065492630004883 8.36829948425293 C8.144057273864746 8.480607986450195 8.221752166748047 8.546846389770508 8.297578811645508 8.566519737243652 C8.373404502868652 8.586565017700195 8.447612762451172 8.571250915527344 8.519205093383789 8.521073341369629 C8.593164443969727 8.469402313232422 8.633380889892578 8.405404090881348 8.640104293823242 8.329078674316406 C8.646827697753906 8.252754211425781 8.606861114501953 8.152275085449219 8.519828796386719 8.0278902053833 C8.446616172790527 7.923426628112793 8.371786117553711 7.861545085906982 8.296083450317383 7.84274435043335 C8.220008850097656 7.823943614959717 8.145551681518555 7.840129375457764 8.073336601257324 7.89068078994751 C8.004109382629395 7.939115047454834 7.965635776519775 8.002739906311035 7.958040714263916 8.080806732177734 C7.950320720672607 8.159248352050781 7.986303806304932 8.255370140075684 8.065616607666016 8.368548393249512 L8.065492630004883 8.36829948425293 L8.065492630004883 8.36829948425293 M9.379692077636719 7.945962905883789 L9.755711555480957 7.801656246185303 L9.89093017578125 8.15439224243164 L9.515034675598145 8.298699378967285 L9.379692077636719 7.945962905883789 L9.379692077636719 7.945962905883789 M10.60673713684082 7.430866241455078 L10.999565124511719 7.357405185699463 C11.015999794006348 7.420780658721924 11.039656639099121 7.467720985412598 11.070036888122559 7.498225688934326 C11.119466781616211 7.547282695770264 11.184211730957031 7.567204475402832 11.263898849487305 7.55736780166626 C11.323413848876953 7.550022125244141 11.3677396774292 7.530473709106445 11.396252632141113 7.498723983764648 C11.424890518188477 7.4668498039245605 11.437091827392578 7.4326090812683105 11.432609558105469 7.39587926864624 C11.428252220153809 7.360891342163086 11.408951759338379 7.331258296966553 11.375085830688477 7.3076019287109375 C11.341094017028809 7.284069061279297 11.266761779785156 7.266637802124023 11.152213096618652 7.255805492401123 C10.964702606201172 7.237128734588623 10.827740669250488 7.198655605316162 10.741580963134766 7.140135765075684 C10.65492057800293 7.081740856170654 10.604867935180664 6.999813556671143 10.591919898986816 6.894353866577148 A0.35609784722328186 0.35609784722328186 0.0 0 1 10.628026962280273 6.69090461730957 C10.660649299621582 6.624291896820068 10.715059280395508 6.568511962890625 10.791259765625 6.523439407348633 C10.867708206176758 6.478241920471191 10.976156234741211 6.446990013122559 11.116230010986328 6.429932117462158 C11.288302421569824 6.40876579284668 11.423893928527832 6.4245781898498535 11.52200698852539 6.477370262145996 C11.620121002197266 6.530287265777588 11.686360359191895 6.625786304473877 11.720725059509277 6.763245105743408 L11.331258773803711 6.834464073181152 C11.313453674316406 6.775073528289795 11.285812377929688 6.733487129211426 11.24920654296875 6.710204124450684 C11.212600708007812 6.686920642852783 11.16441535949707 6.6787028312683105 11.105647087097168 6.685799598693848 C11.057336807250977 6.691776275634766 11.022100448608398 6.706592559814453 11.000186920166016 6.730125427246094 A0.09512544423341751 0.09512544423341751 0.0 0 0 10.972670555114746 6.8094377517700195 C10.975285530090332 6.830977916717529 10.987984657287598 6.849031925201416 11.010148048400879 6.863724231719971 C11.031811714172363 6.8789143562316895 11.080620765686035 6.88999605178833 11.155823707580566 6.89622163772583 C11.342588424682617 6.912905693054199 11.477806091308594 6.9365620613098145 11.561477661132812 6.967067241668701 C11.645147323608398 6.997447967529297 11.70889663696289 7.040528297424316 11.751728057861328 7.095312595367432 C11.794808387756348 7.150345802307129 11.821080207824707 7.2149658203125 11.830044746398926 7.288302421569824 A0.4317997992038727 0.4317997992038727 0.0 0 1 11.787710189819336 7.53607702255249 C11.748988151550293 7.614767074584961 11.688725471496582 7.678267002105713 11.607793807983398 7.726452350616455 C11.526613235473633 7.774637699127197 11.4205322265625 7.806761264801025 11.290170669555664 7.822822570800781 C11.06107234954834 7.850962162017822 10.896718978881836 7.826184272766113 10.797858238220215 7.748988628387451 C10.698997497558594 7.67166805267334 10.635000228881836 7.565585613250732 10.606611251831055 7.430990695953369 L10.60673713684082 7.430866241455078 L10.60673713684082 7.430866241455078 M13.044636726379395 7.610159873962402 L12.570006370544434 7.552138328552246 L12.477619171142578 7.766419887542725 L12.052044868469238 7.714126110076904 L12.723899841308594 6.429060459136963 L13.177862167358398 6.4848408699035645 L13.518895149230957 7.894291400909424 L13.083359718322754 7.840876579284668 L13.044636726379395 7.610159873962402 L13.044636726379395 7.610159873962402 M12.99308967590332 7.308099269866943 L12.903443336486816 6.805578231811523 L12.696009635925293 7.271867275238037 L12.99308967590332 7.308099269866943 L12.99308967590332 7.308099269866943 M13.880221366882324 7.320675373077393 C13.9596586227417 7.113863945007324 14.07918930053711 6.9746623039245605 14.238186836242676 6.90369176864624 C14.397809028625488 6.83272123336792 14.580714225769043 6.836705684661865 14.78627872467041 6.915644645690918 C14.997198104858398 6.996576309204102 15.138143539428711 7.115607261657715 15.208741188049316 7.272614002227783 C15.279462814331055 7.4294962882995605 15.275477409362793 7.610409259796143 15.197285652160645 7.814356327056885 C15.140384674072266 7.962398529052734 15.0686674118042 8.07420825958252 14.98263168334961 8.150033950805664 A0.568386971950531 0.568386971950531 0.0 0 1 14.68169116973877 8.28836441040039 C14.567018508911133 8.304800033569336 14.439519882202148 8.286248207092285 14.298948287963867 8.232210159301758 C14.156135559082031 8.177427291870117 14.046318054199219 8.109070777893066 13.970117568969727 8.0278902053833 C13.893917083740234 7.946460723876953 13.845483779907227 7.844985485076904 13.825313568115234 7.724335193634033 C13.804893493652344 7.6034369468688965 13.823071479797363 7.468717098236084 13.879972457885742 7.320550441741943 L13.880221366882324 7.320675373077393 L13.880221366882324 7.320675373077393 M14.271183013916016 7.47257661819458 C14.222001075744629 7.600448131561279 14.210546493530273 7.701923847198486 14.236693382263184 7.775758266448975 C14.262591361999512 7.849841594696045 14.316628456115723 7.9027581214904785 14.398306846618652 7.934134483337402 C14.482475280761719 7.966507434844971 14.558052062988281 7.964016914367676 14.625163078308105 7.927037715911865 C14.692150115966797 7.8899335861206055 14.752910614013672 7.800535678863525 14.807446479797363 7.658843517303467 C14.853265762329102 7.539812088012695 14.862604141235352 7.442943572998047 14.835834503173828 7.369731426239014 C14.808940887451172 7.296270847320557 14.75403118133545 7.243478775024414 14.671730041503906 7.211853504180908 C14.592791557312012 7.181597709655762 14.518583297729492 7.185332775115967 14.449604988098145 7.222685813903809 C14.380252838134766 7.260163307189941 14.3207368850708 7.3437089920043945 14.271183013916016 7.47282600402832 L14.271183013916016 7.47257661819458 L14.271183013916016 7.47257661819458 M16.588682174682617 7.973230838775635 L17.162796020507812 8.508995056152344 C17.258544921875 8.59814453125 17.309717178344727 8.690530776977539 17.316938400268555 8.785407066345215 A0.31588122248649597 0.31588122248649597 0.0 0 1 17.229534149169922 9.033431053161621 C17.17487335205078 9.091951370239258 17.10950469970703 9.125319480895996 17.03392791748047 9.133413314819336 C16.98375129699707 9.138642311096191 16.927099227905273 9.127311706542969 16.865219116210938 9.099919319152832 C16.920501708984375 9.183589935302734 16.94565200805664 9.262155532836914 16.94042205810547 9.334993362426758 C16.93494415283203 9.4080810546875 16.902820587158203 9.476561546325684 16.84392738342285 9.539562225341797 A0.3739027678966522 0.3739027678966522 0.0 0 1 16.67870330810547 9.645272254943848 A0.36468902230262756 0.36468902230262756 0.0 0 1 16.48932456970215 9.650999069213867 C16.44997787475586 9.641910552978516 16.400798797607422 9.616634368896484 16.3426513671875 9.574799537658691 C16.26520538330078 9.519516944885254 16.215152740478516 9.481168746948242 16.192615509033203 9.460124969482422 L15.662952423095703 8.966320037841797 L16.588682174682617 7.973230838775635 L16.588682174682617 7.973230838775635 M16.535266876220703 8.651310920715332 L16.668367385864258 8.7758207321167 C16.71617889404297 8.820395469665527 16.75726890563965 8.843180656433105 16.791135787963867 8.844300270080566 C16.825374603271484 8.845172882080078 16.85712432861328 8.829981803894043 16.886011123657227 8.798978805541992 C16.91303062438965 8.770092010498047 16.92460823059082 8.738840103149414 16.920873641967773 8.705223083496094 C16.917139053344727 8.671481132507324 16.892362594604492 8.632759094238281 16.84592056274414 8.58942985534668 L16.710453033447266 8.463176727294922 L16.535266876220703 8.651310920715332 L16.535266876220703 8.651310920715332 M16.171449661254883 9.041523933410645 L16.327709197998047 9.18757438659668 C16.380252838134766 9.2366304397583 16.426321029663086 9.262031555175781 16.465293884277344 9.26340103149414 C16.5043888092041 9.2647705078125 16.53900146484375 9.249829292297363 16.568262100219727 9.218328475952148 A0.1195293515920639 0.1195293515920639 0.0 0 0 16.60225486755371 9.117599487304688 C16.597522735595703 9.07974910736084 16.568262100219727 9.035672187805176 16.514474868774414 8.985494613647461 L16.358837127685547 8.840316772460938 L16.171449661254883 9.041523933410645 L16.171449661254883 9.041523933410645 M17.89790153503418 9.328145980834961 L18.509990692138672 10.27105712890625 L18.266826629638672 10.428936004638672 L17.883583068847656 9.838759422302246 L17.70267105102539 9.956296920776367 L18.05814552307129 10.503767013549805 L17.8258113861084 10.654672622680664 L17.4703369140625 10.107327461242676 L17.2458438873291 10.25287914276123 L17.64041519165039 10.860238075256348 L17.382678985595703 11.027579307556152 L16.759136199951172 10.067484855651855 L17.89790153503418 9.328145980834961 M18.833343505859375 10.904190063476562 L18.947643280029297 11.278715133666992 L18.378883361816406 11.987175941467285 L19.097179412841797 11.767664909362793 L19.212726593017578 12.146050453186035 L17.914710998535156 12.54273796081543 L17.799041748046875 12.16460132598877 L18.36319351196289 11.460623741149902 L17.65037727355957 11.678515434265137 L17.534955978393555 11.301375389099121 L18.833343505859375 10.904190063476562 M19.32154655456543 12.773953437805176 L19.365747451782227 14.047935485839844 L19.03081512451172 14.05988883972168 L19.0158748626709 13.632074356079102 L17.994272232055664 13.667808532714844 L17.97957992553711 13.248583793640137 L19.001306533813477 13.212850570678711 L18.986492156982422 12.785283088684082 L19.32154655456543 12.773953437805176 L19.32154655456543 12.773953437805176 M18.66600227355957 14.417854309082031 C18.881778717041016 14.46741008758545 19.03629493713379 14.566394805908203 19.128681182861328 14.714312553405762 C19.22119140625 14.86223030090332 19.242733001708984 15.044013977050781 19.19317626953125 15.258544921875 C19.142377853393555 15.478677749633789 19.044139862060547 15.634688377380371 18.89846420288086 15.726700782775879 C18.75278663635254 15.818714141845703 18.573368072509766 15.83975601196289 18.360580444335938 15.790699005126953 C18.2059383392334 15.754965782165527 18.085289001464844 15.69955825805664 17.998382568359375 15.624852180480957 A0.5687605142593384 0.5687605142593384 0.0 0 1 17.8193359375 15.346199035644531 C17.78708839416504 15.23501205444336 17.787960052490234 15.10589599609375 17.821826934814453 14.959348678588867 C17.85631561279297 14.810309410095215 17.90860939025879 14.692150115966797 17.97846031188965 14.605241775512695 C18.048559188842773 14.51845932006836 18.142314910888672 14.456453323364258 18.25897979736328 14.419721603393555 C18.375770568847656 14.382742881774902 18.511735916137695 14.381996154785156 18.666378021240234 14.417730331420898 L18.66600227355957 14.417854309082031 L18.66600227355957 14.417854309082031 M18.57000732421875 14.825873374938965 C18.43653106689453 14.795244216918945 18.334434509277344 14.797858238220215 18.26508140563965 14.833842277526855 C18.19523048400879 14.86982536315918 18.150283813476562 14.930834770202637 18.130611419677734 15.015999794006348 C18.11031723022461 15.10402774810791 18.123266220092773 15.178484916687012 18.169334411621094 15.239495277404785 C18.21540069580078 15.300753593444824 18.312271118164062 15.348690032958984 18.460187911987305 15.382929801940918 C18.584571838378906 15.411567687988281 18.681692123413086 15.407209396362305 18.750545501708984 15.3707275390625 C18.819522857666016 15.333748817443848 18.864097595214844 15.271991729736328 18.88401985168457 15.18620491027832 C18.902944564819336 15.103778839111328 18.888999938964844 15.030817031860352 18.842432022094727 14.967565536499023 C18.79549217224121 14.904438972473145 18.704477310180664 14.857000350952148 18.57000732421875 14.825873374938965 L18.57000732421875 14.825873374938965 M7.093818187713623 17.075641632080078 L7.574799537658691 17.71400260925293 L7.395132064819336 17.849468231201172 L7.109631061553955 17.4703369140625 L6.963705539703369 17.580278396606445 L7.207620143890381 17.904253005981445 L7.039033889770508 18.031251907348633 L6.794994831085205 17.70752716064453 L6.45358943939209 17.964763641357422 L6.258109092712402 17.705286026000977 L7.093818187713623 17.075641632080078 L7.093818187713623 17.075641632080078 M8.147793769836426 18.222871780395508 L8.391084671020508 18.434663772583008 L7.9818220138549805 18.90543556213379 A0.526302695274353 0.526302695274353 0.0 0 1 7.845109939575195 19.018489837646484 A0.37826061248779297 0.37826061248779297 0.0 0 1 7.682251453399658 19.06779670715332 C7.624229907989502 19.072153091430664 7.572433948516846 19.065555572509766 7.5274858474731445 19.048372268676758 C7.464982032775879 19.02484130859375 7.400237083435059 18.9841251373291 7.333748817443848 18.926353454589844 C7.295399188995361 18.89273452758789 7.255680561065674 18.853639602661133 7.2149658203125 18.809188842773438 C7.174376010894775 18.764240264892578 7.145489692687988 18.720165252685547 7.129054546356201 18.677831649780273 C7.112246036529541 18.635498046875 7.104152679443359 18.58831024169922 7.104526042938232 18.537012100219727 C7.1047749519348145 18.485713958740234 7.113739490509033 18.440265655517578 7.131544589996338 18.40079689025879 C7.160181999206543 18.337297439575195 7.191433906555176 18.285999298095703 7.224926948547363 18.24740219116211 L7.634190559387207 17.776628494262695 L7.877856254577637 17.988420486450195 L7.458755970001221 18.47064781188965 C7.421403408050537 18.513477325439453 7.404096603393555 18.557680130004883 7.406711101531982 18.60250473022461 C7.409574508666992 18.647451400756836 7.4323601722717285 18.688539505004883 7.474444389343262 18.725269317626953 C7.516528606414795 18.761751174926758 7.560107231140137 18.778560638427734 7.604557037353516 18.775571823120117 C7.6490068435668945 18.772457122802734 7.690593242645264 18.748802185058594 7.7285685539245605 18.70509910583496 L8.147793769836426 18.222871780395508 L8.147793769836426 18.222871780395508 M8.503268241882324 18.52132225036621 L8.764490127563477 18.672351837158203 L8.816286087036133 19.370479583740234 L9.105772018432617 18.869327545166016 L9.369731903076172 19.021852493286133 L8.84666633605957 19.92765998840332 L8.582581520080566 19.775136947631836 L8.530536651611328 19.081865310668945 L8.243291854858398 19.57940673828125 L7.979954719543457 19.427379608154297 L8.503268241882324 18.52132225036621 L8.503268241882324 18.52132225036621 M9.545539855957031 19.102035522460938 L9.990785598754883 19.282201766967773 C10.07856559753418 19.31743621826172 10.144928932189941 19.3582763671875 10.189130783081055 19.403846740722656 C10.2334566116333 19.449542999267578 10.264334678649902 19.5018367767334 10.281765937805176 19.560482025146484 A0.460686057806015 0.460686057806015 0.0 0 1 10.295711517333984 19.746997833251953 A0.7800535559654236 0.7800535559654236 0.0 0 1 10.24366569519043 19.944717407226562 C10.20195484161377 20.048309326171875 10.15762996673584 20.123886108398438 10.110939025878906 20.171573638916016 C10.064247131347656 20.219013214111328 10.012202262878418 20.25374984741211 9.954678535461426 20.275415420532227 C9.897154808044434 20.297080993652344 9.841748237609863 20.30455207824707 9.788457870483398 20.298076629638672 A0.7470584511756897 0.7470584511756897 0.0 0 1 9.599079132080078 20.252132415771484 L9.153707504272461 20.072216033935547 L9.545539855957031 19.102035522460938 M9.756708145141602 19.442943572998047 L9.542302131652832 19.973106384277344 L9.615762710571289 20.00273895263672 C9.678391456604004 20.02801513671875 9.725830078125 20.038970947265625 9.757829666137695 20.036108016967773 C9.789827346801758 20.032747268676758 9.820706367492676 20.016685485839844 9.849592208862305 19.98817253112793 C9.878478050231934 19.959659576416016 9.908734321594238 19.906494140625 9.940235137939453 19.829172134399414 C9.981697082519531 19.726329803466797 9.993401527404785 19.64900779724121 9.97522258758545 19.59770965576172 C9.95704460144043 19.546161651611328 9.908859252929688 19.504575729370117 9.831413269042969 19.47344970703125 L9.756708145141602 19.442943572998047 L9.756708145141602 19.442943572998047 M10.363568305969238 20.17618179321289 L10.666003227233887 20.24603271484375 L10.600510597229004 20.529541015625 L10.298200607299805 20.45969009399414 L10.363568305969238 20.17618179321289 L10.363568305969238 20.17618179321289 M11.249953269958496 20.119529724121094 C11.256926536560059 19.920812606811523 11.297391891479492 19.782978057861328 11.371724128723145 19.706157684326172 C11.445932388305664 19.629335403442383 11.55637264251709 19.593351364135742 11.703043937683105 19.59845733642578 C11.77326774597168 19.6009464263916 11.830915451049805 19.611530303955078 11.875490188598633 19.630329132080078 C11.920064926147461 19.64925765991211 11.956048011779785 19.673412322998047 11.983689308166504 19.702049255371094 C12.01120662689209 19.73068618774414 12.032995223999023 19.760942459106445 12.048185348510742 19.79231834411621 C12.063375473022461 19.82344627380371 12.075701713562012 19.859928131103516 12.084044456481934 19.901016235351562 C12.100728034973145 19.979581832885742 12.10770034790039 20.06125831604004 12.104713439941406 20.145925521850586 C12.098114013671875 20.335554122924805 12.061135292053223 20.4735107421875 11.994024276733398 20.55904769897461 C11.926788330078125 20.644710540771484 11.814480781555176 20.685054779052734 11.657598495483398 20.67945098876953 C11.56956958770752 20.67633819580078 11.498847961425781 20.66002655029297 11.445807456970215 20.630142211914062 A0.3453900218009949 0.3453900218009949 0.0 0 1 11.316690444946289 20.502023696899414 C11.292908668518066 20.462928771972656 11.275104522705078 20.40938949584961 11.263400077819824 20.342029571533203 A1.077880859375 1.077880859375 0.0 0 1 11.249953269958496 20.11977767944336 L11.249953269958496 20.119529724121094 L11.249953269958496 20.119529724121094 M11.538068771362305 20.130237579345703 C11.533461570739746 20.26346206665039 11.54205322265625 20.354976654052734 11.5638427734375 20.40428352355957 C11.58563232421875 20.453838348388672 11.619000434875488 20.479610443115234 11.663575172424316 20.48110580444336 A0.10832347720861435 0.10832347720861435 0.0 0 0 11.74139404296875 20.452842712402344 C11.763681411743164 20.432920455932617 11.78073787689209 20.40054702758789 11.792566299438477 20.356348037719727 C11.80439567565918 20.312145233154297 11.811989784240723 20.242298126220703 11.815227508544922 20.147666931152344 C11.820083618164062 20.009090423583984 11.811616897583008 19.915210723876953 11.789579391479492 19.866525650024414 C11.767789840698242 19.81784439086914 11.733051300048828 19.792816162109375 11.685986518859863 19.79119873046875 C11.638175010681152 19.789453506469727 11.602439880371094 19.812862396240234 11.57940673828125 19.860797882080078 C11.556496620178223 19.908735275268555 11.54255199432373 19.99863052368164 11.537944793701172 20.13048553466797 L11.537944793701172 20.130237579345703 L11.538068771362305 20.130237579345703 L11.538068771362305 20.130237579345703 M13.173255920410156 20.577476501464844 L12.307290077209473 20.683807373046875 A0.5456017255783081 0.5456017255783081 0.0 0 1 12.368050575256348 20.43167495727539 C12.409014701843262 20.34999656677246 12.492560386657715 20.24951934814453 12.618440628051758 20.13011360168457 C12.695137977600098 20.057151794433594 12.743572235107422 20.002490997314453 12.763120651245117 19.96712875366211 C12.782669067382812 19.931644439697266 12.790637016296387 19.899023056030273 12.787026405334473 19.869888305664062 A0.107327401638031 0.107327401638031 0.0 0 0 12.742077827453613 19.79331398010254 A0.12376268953084946 0.12376268953084946 0.0 0 0 12.649816513061523 19.77015495300293 C12.612961769104004 19.774761199951172 12.58444881439209 19.790077209472656 12.563779830932617 19.81585121154785 C12.543235778808594 19.842121124267578 12.532527923583984 19.88520050048828 12.531657218933105 19.944469451904297 L12.239681243896484 19.9566707611084 C12.240926742553711 19.87399673461914 12.253875732421875 19.80788230895996 12.278528213500977 19.75870132446289 C12.303181648254395 19.709518432617188 12.341530799865723 19.669178009033203 12.393699645996094 19.6382999420166 C12.445869445800781 19.607173919677734 12.520450592041016 19.585506439208984 12.617692947387695 19.57355499267578 C12.719168663024902 19.56110382080078 12.799726486206055 19.563095092773438 12.858992576599121 19.57915687561035 A0.287742018699646 0.287742018699646 0.0 0 1 13.073772430419922 19.82481575012207 A0.33269003033638 0.33269003033638 0.0 0 1 13.040403366088867 20.012577056884766 C13.010396003723145 20.074831008911133 12.950383186340332 20.146549224853516 12.861358642578125 20.227603912353516 C12.80806827545166 20.27479362487793 12.772831916809082 20.307912826538086 12.755151748657227 20.326091766357422 A1.144493579864502 1.144493579864502 0.0 0 0 12.693768501281738 20.397560119628906 L13.144369125366211 20.342403411865234 L13.173255920410156 20.577476501464844 L13.173255920410156 20.577476501464844 M13.263773918151855 20.06960105895996 L13.674033164978027 19.96775245666504 L13.728445053100586 20.185894012451172 L13.31843376159668 20.28799057006836 L13.263773918151855 20.06960105895996 M13.832036972045898 19.892425537109375 C13.767416000366211 19.70441436767578 13.755837440490723 19.561227798461914 13.797547340393066 19.462989807128906 C13.839507102966309 19.364501953125 13.929652214050293 19.291290283203125 14.068355560302734 19.243602752685547 C14.134719848632812 19.220693588256836 14.192243576049805 19.209985733032227 14.240801811218262 19.211729049682617 C14.289112091064453 19.213472366333008 14.331319808959961 19.222936630249023 14.367303848266602 19.239994049072266 C14.403287887573242 19.25680160522461 14.434414863586426 19.2772216796875 14.45981502532959 19.30075454711914 C14.485339164733887 19.324535369873047 14.509743690490723 19.35404396057129 14.532279968261719 19.389530181884766 C14.575983047485352 19.456890106201172 14.611841201782227 19.530597686767578 14.639482498168945 19.610782623291016 C14.701114654541016 19.790203094482422 14.716055870056152 19.932266235351562 14.684056282043457 20.036108016967773 C14.651933670043945 20.14019775390625 14.561538696289062 20.218017578125 14.413124084472656 20.269065856933594 C14.329826354980469 20.29770278930664 14.25786018371582 20.307788848876953 14.19759750366211 20.2987003326416 A0.3451410233974457 0.3451410233974457 0.0 0 1 14.0311279296875 20.225486755371094 C13.994895935058594 20.197223663330078 13.959160804748535 20.153770446777344 13.924173355102539 20.095125198364258 A1.0582082271575928 1.0582082271575928 0.0 0 1 13.832036972045898 19.892425537109375 L13.832036972045898 19.892425537109375 M14.104837417602539 19.799041748046875 C14.14829158782959 19.925294876098633 14.189130783081055 20.007471084594727 14.227106094360352 20.045820236206055 C14.265081405639648 20.08416748046875 14.305421829223633 20.096370697021484 14.347631454467773 20.081802368164062 C14.375646591186523 20.07209014892578 14.396439552307129 20.05403709411621 14.410135269165039 20.027515411376953 C14.423831939697266 20.000995635986328 14.428313255310059 19.964515686035156 14.423458099365234 19.9190673828125 C14.418601989746094 19.873374938964844 14.400547981262207 19.80551528930664 14.369669914245605 19.71624183654785 C14.324722290039062 19.584884643554688 14.283010482788086 19.500343322753906 14.245285034179688 19.46286392211914 C14.20730972290039 19.42538833618164 14.165971755981445 19.414182662963867 14.121521949768066 19.42949676513672 C14.076324462890625 19.44506072998047 14.051173210144043 19.479549407958984 14.046815872192383 19.5325927734375 C14.042706489562988 19.58563232421875 14.061756134033203 19.67465591430664 14.104837417602539 19.799165725708008 L14.104837417602539 19.799041748046875 L14.104837417602539 19.799041748046875 M15.34146785736084 18.90070343017578 L15.1119966506958 19.080123901367188 C15.084604263305664 19.049741744995117 15.058955192565918 19.03143882751465 15.035049438476562 19.02633285522461 C15.011143684387207 19.021228790283203 14.987984657287598 19.02533721923828 14.965448379516602 19.038785934448242 C14.925107955932617 19.063064575195312 14.905933380126953 19.1025333404541 14.908049583435059 19.156696319580078 C14.909543991088867 19.19579315185547 14.935193061828613 19.26613998413086 14.985245704650879 19.366867065429688 C14.996700286865234 19.318931579589844 15.014007568359375 19.278093338012695 15.036667823791504 19.244850158691406 A0.3050488829612732 0.3050488829612732 0.0 0 1 15.132665634155273 19.15756607055664 A0.31662827730178833 0.31662827730178833 0.0 0 1 15.386665344238281 19.121583938598633 C15.476311683654785 19.145116806030273 15.547657012939453 19.20139503479004 15.600199699401855 19.288925170898438 C15.635684967041016 19.34781837463379 15.6543607711792 19.41057014465332 15.655606269836426 19.47618865966797 A0.3208616077899933 0.3208616077899933 0.0 0 1 15.606300354003906 19.657100677490234 C15.57181167602539 19.711761474609375 15.517026901245117 19.761688232421875 15.442445755004883 19.806636810302734 C15.352798461914062 19.860424041748047 15.271493911743164 19.888565063476562 15.199028968811035 19.89055633544922 C15.126564025878906 19.892547607421875 15.05360221862793 19.869888305664062 14.981136322021484 19.822200775146484 C14.90842342376709 19.774513244628906 14.838573455810547 19.695201873779297 14.772334098815918 19.584884643554688 C14.675216674804688 19.423145294189453 14.637739181518555 19.284069061279297 14.660773277282715 19.16777801513672 C14.683558464050293 19.051734924316406 14.755525588989258 18.957231521606445 14.87605094909668 18.884767532348633 C14.947271347045898 18.841934204101562 15.008777618408203 18.816160202026367 15.060076713562012 18.80794334411621 A0.3045508563518524 0.3045508563518524 0.0 0 1 15.206872940063477 18.818403244018555 C15.253439903259277 18.833717346191406 15.298262596130371 18.861482620239258 15.341218948364258 18.900829315185547 L15.34146785736084 18.900829315185547 L15.34146785736084 18.90070343017578 L15.34146785736084 18.90070343017578 M15.122580528259277 19.575796127319336 C15.151591300964355 19.624229431152344 15.186826705932617 19.655109405517578 15.227790832519531 19.667932510375977 C15.268754005432129 19.680755615234375 15.307353019714355 19.67639923095703 15.342464447021484 19.655231475830078 A0.12326464802026749 0.12326464802026749 0.0 0 0 15.402105331420898 19.56869888305664 C15.409077644348145 19.530473709106445 15.397747039794922 19.486770629882812 15.368237495422363 19.437339782714844 C15.337981224060059 19.387039184570312 15.303367614746094 19.354915618896484 15.26464557647705 19.342464447021484 A0.12525680661201477 0.12525680661201477 0.0 0 0 15.155574798583984 19.353670120239258 C15.121086120605469 19.374338150024414 15.09967041015625 19.40471839904785 15.091577529907227 19.444562911987305 C15.083608627319336 19.484281539916992 15.094066619873047 19.528356552124023 15.122580528259277 19.575796127319336 M15.673286437988281 19.071407318115234 L16.01531410217285 18.82313346862793 L16.147544860839844 19.005043029785156 L15.805641174316406 19.253314971923828 L15.673286437988281 19.071407318115234 L15.673286437988281 19.071407318115234 M16.22287368774414 18.585693359375 C16.173316955566406 18.600013732910156 16.13048553466797 18.603748321533203 16.09475326538086 18.596899032592773 A0.24179792404174805 0.24179792404174805 0.0 0 1 15.965635299682617 18.524932861328125 C15.904874801635742 18.461931228637695 15.88470458984375 18.381996154785156 15.905497550964355 18.284379959106445 C15.921932220458984 18.20905303955078 15.96812629699707 18.134843826293945 16.0439510345459 18.061382293701172 C16.144554138183594 17.964391708374023 16.237564086914062 17.911598205566406 16.322479248046875 17.903507232666016 C16.407520294189453 17.895286560058594 16.478242874145508 17.92031478881836 16.53439712524414 17.978708267211914 C16.5672664642334 18.012451171875 16.588184356689453 18.053665161132812 16.597522735595703 18.101226806640625 C16.604244232177734 18.136962890625 16.602128982543945 18.18029022216797 16.591171264648438 18.230344772338867 C16.65068817138672 18.21042251586914 16.706218719482422 18.20693588256836 16.757144927978516 18.21988296508789 C16.80819320678711 18.232833862304688 16.852767944335938 18.25860595703125 16.89024543762207 18.29770278930664 C16.92660140991211 18.335430145263672 16.95187759399414 18.378883361816406 16.96607208251953 18.42806625366211 C16.980390548706055 18.477371215820312 16.983503341674805 18.523189544677734 16.975534439086914 18.56527328491211 C16.96756362915039 18.60736083984375 16.94901466369629 18.650936126708984 16.919628143310547 18.69538688659668 C16.89024543762207 18.739837646484375 16.854385375976562 18.782917022705078 16.81167984008789 18.82375717163086 C16.73211669921875 18.900829315185547 16.662017822265625 18.950260162353516 16.601879119873047 18.9720458984375 A0.2857498824596405 0.2857498824596405 0.0 0 1 16.425575256347656 18.981510162353516 A0.3293282687664032 0.3293282687664032 0.0 0 1 16.274045944213867 18.8906192779541 C16.231464385986328 18.846542358398438 16.205690383911133 18.799226760864258 16.19659996032715 18.748802185058594 C16.187511444091797 18.698375701904297 16.19622802734375 18.643714904785156 16.22287368774414 18.585819244384766 L16.22287368774414 18.585693359375 L16.22287368774414 18.585693359375 M16.17406463623047 18.34713363647461 C16.1990909576416 18.37315559387207 16.22785186767578 18.386478424072266 16.259353637695312 18.386728286743164 C16.290855407714844 18.386728286743164 16.320363998413086 18.373779296875 16.347383499145508 18.34787940979004 A0.11044014990329742 0.11044014990329742 0.0 0 0 16.383615493774414 18.26719856262207 C16.383739471435547 18.23681640625 16.371662139892578 18.208803176879883 16.347755432128906 18.18377685546875 C16.322729110717773 18.158002853393555 16.293842315673828 18.144432067871094 16.262466430664062 18.14368438720703 A0.11703915894031525 0.11703915894031525 0.0 0 0 16.177051544189453 18.17892074584961 A0.11554504185914993 0.11554504185914993 0.0 0 0 16.138206481933594 18.26234245300293 C16.13770866394043 18.293468475341797 16.1497859954834 18.321983337402344 16.174190521240234 18.34750747680664 L16.17406463623047 18.34713363647461 L16.17406463623047 18.34713363647461 M16.475751876831055 18.682313919067383 C16.50787353515625 18.71543312072754 16.544231414794922 18.732864379882812 16.584697723388672 18.734357833862305 C16.625288009643555 18.73585319519043 16.658531188964844 18.72414779663086 16.684431076049805 18.69912338256836 C16.709457397460938 18.674842834472656 16.721534729003906 18.642471313476562 16.720787048339844 18.60188102722168 C16.71991539001465 18.561538696289062 16.70360565185547 18.524559020996094 16.671979904174805 18.491689682006836 C16.639856338500977 18.458818435668945 16.603374481201172 18.441139221191406 16.563034057617188 18.439146041870117 C16.52269172668457 18.43715476989746 16.488948822021484 18.449106216430664 16.462553024291992 18.474632263183594 A0.12612837553024292 0.12612837553024292 0.0 0 0 16.42432975769043 18.570877075195312 C16.42495346069336 18.6103458404541 16.4421329498291 18.647327423095703 16.475751876831055 18.682313919067383 L16.475751876831055 18.682313919067383 M16.520450592041016 17.609163284301758 L16.945402145385742 17.0654296875 L17.128183364868164 17.208118438720703 L16.840316772460938 17.576541900634766 L16.948640823364258 17.693084716796875 C16.95635986328125 17.658344268798828 16.967315673828125 17.62572479248047 16.98088836669922 17.59634017944336 C16.99408721923828 17.56695556640625 17.01064682006836 17.539688110351562 17.029571533203125 17.51540756225586 C17.094192504882812 17.4329833984375 17.171388626098633 17.38554573059082 17.261157989501953 17.372844696044922 C17.351181030273438 17.360393524169922 17.434104919433594 17.383800506591797 17.50980567932129 17.44306755065918 C17.563095092773438 17.48465347290039 17.603809356689453 17.537944793701172 17.632322311401367 17.60256576538086 C17.66083526611328 17.66731071472168 17.669178009033203 17.734420776367188 17.65685272216797 17.802900314331055 C17.644775390625 17.871755599975586 17.609163284301758 17.943971633911133 17.550146102905273 18.01979637145996 A0.7175496816635132 0.7175496816635132 0.0 0 1 17.425512313842773 18.14742088317871 A0.36307039856910706 0.36307039856910706 0.0 0 1 17.3021240234375 18.21042251586914 A0.3498723804950714 0.3498723804950714 0.0 0 1 17.18097496032715 18.222373962402344 A0.4594409763813019 0.4594409763813019 0.0 0 1 17.051111221313477 18.18875503540039 L17.20687484741211 17.937122344970703 C17.248334884643555 17.960655212402344 17.287057876586914 17.969745635986328 17.322418212890625 17.963891983032227 C17.357778549194336 17.958288192749023 17.38666534423828 17.94148063659668 17.408702850341797 17.91309356689453 C17.433605194091797 17.88121795654297 17.44232177734375 17.84523582458496 17.434226989746094 17.805889129638672 C17.4265079498291 17.76629638671875 17.39836883544922 17.72757339477539 17.350433349609375 17.690095901489258 C17.301376342773438 17.651622772216797 17.257051467895508 17.63369369506836 17.217954635620117 17.636804580688477 C17.17885971069336 17.640167236328125 17.145488739013672 17.659217834472656 17.11809730529785 17.694202423095703 A0.17232148349285126 0.17232148349285126 0.0 0 0 17.084354400634766 17.77077865600586 C17.080121994018555 17.792192459106445 17.081117630004883 17.82058334350586 17.08721923828125 17.85469627380371 L16.90680503845215 18.027891159057617 L16.520450592041016 17.609163284301758 L16.520450592041016 17.609163284301758 M6.081803321838379 16.13397216796875 C6.227603912353516 16.13397216796875 6.346635341644287 16.252880096435547 6.346635341644287 16.398805618286133 C6.346635341644287 16.54473114013672 6.227603912353516 16.663637161254883 6.081803321838379 16.663637161254883 C5.936002254486084 16.663637161254883 5.8170952796936035 16.54473114013672 5.8170952796936035 16.398805618286133 C5.8170952796936035 16.252880096435547 5.936002254486084 16.13397216796875 6.081803321838379 16.13397216796875 M17.949325561523438 16.13397216796875 C18.095125198364258 16.13397216796875 18.214157104492188 16.252880096435547 18.214157104492188 16.398805618286133 C18.214157104492188 16.54473114013672 18.095125198364258 16.663637161254883 17.949325561523438 16.663637161254883 C17.803524017333984 16.663637161254883 17.684616088867188 16.54473114013672 17.684616088867188 16.398805618286133 C17.684616088867188 16.252880096435547 17.803524017333984 16.13397216796875 17.949325561523438 16.13397216796875" fill="black" fill-opacity="1.0" filling="0"/>
<path animation_id="5" d="M8.525928497314453 8.282637596130371 L9.156322479248047 8.449231147766113 L9.09531307220459 8.680944442749023 L8.465044021606445 8.514474868774414 L8.525928497314453 8.282637596130371 L8.525928497314453 8.282637596130371 M12.6633882522583 6.1099419593811035 C12.96507453918457 5.998754978179932 13.039905548095703 6.059764862060547 13.119965553283691 6.124509811401367 C13.14188003540039 6.142439365386963 13.164913177490234 6.161116123199463 13.267135620117188 6.139948844909668 L13.314948081970215 6.374650001525879 C13.102161407470703 6.418725967407227 13.033804893493652 6.363194942474365 12.968935012817383 6.310402870178223 C12.94390869140625 6.289983749389648 12.920251846313477 6.270933628082275 12.746063232421875 6.335180282592773 L12.6633882522583 6.1099419593811035" fill="black" fill-opacity="1.0" filling="0"/>
<path animation_id="6" d="M10.97453784942627 11.813982963562012 L13.078503608703613 11.813982963562012 L13.645397186279297 11.040029525756836 L13.085600852966309 10.267322540283203 L10.975160598754883 10.267322540283203 L10.447612762451172 11.07339859008789 L10.97453784942627 11.813982963562012 L10.97453784942627 11.813982963562012 M13.417792320251465 12.162361145019531 L14.063874244689941 13.996389389038086 L15.00429630279541 14.344144821166992 L15.598580360412598 13.609786987304688 L14.935815811157227 11.488763809204102 L14.044824600219727 11.306107521057129 L13.417792320251465 12.162361145019531 L13.417792320251465 12.162361145019531 M13.98617935180664 14.479113578796387 L12.241175651550293 15.589491844177246 L12.241175651550293 16.541120529174805 L13.311710357666016 16.984872817993164 L14.872688293457031 15.87349796295166 L14.872688293457031 14.807197570800781 L13.98617935180664 14.479113578796387 L13.98617935180664 14.479113578796387 M11.760692596435547 15.589491844177246 L10.067110061645508 14.511984825134277 L9.098424911499023 14.87916374206543 L9.098424911499023 15.86602783203125 L10.66301441192627 16.98026466369629 L11.760692596435547 16.53962516784668 L11.760692596435547 15.589491844177246 L11.760692596435547 15.589491844177246 M9.916828155517578 14.056029319763184 L10.600635528564453 12.115171432495117 L10.085040092468262 11.390524864196777 L8.990599632263184 11.677146911621094 L8.384611129760742 13.616385459899902 L8.999564170837402 14.404033660888672 L9.916828155517578 14.056029319763184 L9.916828155517578 14.056029319763184 M13.4235200881958 9.915831565856934 L14.082052230834961 10.824877738952637 L15.374338150024414 11.089585304260254 L15.500467300415039 10.99321460723877 A4.492436408996582 4.492436408996582 0.0 0 0 15.130050659179688 10.573492050170898 A4.457075595855713 4.457075595855713 0.0 0 0 13.555252075195312 9.555002212524414 L13.4235200881958 9.915831565856934 L13.4235200881958 9.915831565856934 M11.99252986907959 8.789641380310059 C13.348067283630371 8.789641380310059 14.578348159790039 9.342339515686035 15.46983814239502 10.233829498291016 C16.361080169677734 11.125194549560547 16.913776397705078 12.355475425720215 16.913776397705078 13.710888862609863 C16.913776397705078 15.066675186157227 16.361202239990234 16.29695701599121 15.46983814239502 17.188446044921875 C14.578348159790039 18.079687118530273 13.348067283630371 18.632511138916016 11.992653846740723 18.632511138916016 L11.99252986907959 18.632511138916016 C10.637116432189941 18.632511138916016 9.40671157836914 18.079811096191406 8.515345573425293 17.188196182250977 C7.623980522155762 16.29695701599121 7.071281909942627 15.066675186157227 7.071281909942627 13.711137771606445 L7.071281909942627 13.710888862609863 C7.071281909942627 12.355351448059082 7.623856067657471 11.125194549560547 8.515345573425293 10.233705520629883 C9.40671157836914 9.342339515686035 10.637116432189941 8.789641380310059 11.99252986907959 8.789641380310059 L11.99252986907959 8.789641380310059 M10.444624900817871 9.549399375915527 A4.460187911987305 4.460187911987305 0.0 0 0 8.855009078979492 10.573492050170898 A4.488327503204346 4.488327503204346 0.0 0 0 8.484841346740723 10.99308967590332 L8.797733306884766 11.232522010803223 L9.970616340637207 10.9253568649292 L10.597397804260254 9.968125343322754 L10.444624900817871 9.549399375915527 L10.444624900817871 9.549399375915527 M7.557741641998291 13.942602157592773 A4.411006450653076 4.411006450653076 0.0 0 0 8.271679878234863 16.129989624023438 L8.617941856384277 15.89217472076416 L8.617941856384277 14.692771911621094 L8.015190124511719 13.920936584472656 L7.557741641998291 13.942602157592773 L7.557741641998291 13.942602157592773 M10.777563095092773 17.982444763183594 A4.4248270988464355 4.4248270988464355 0.0 0 0 11.99252986907959 18.15190315246582 L11.992653846740723 18.15190315246582 C12.387598991394043 18.15190315246582 12.77083969116211 18.099609375 13.135778427124023 18.002117156982422 L12.958476066589355 17.3579044342041 L11.999253273010254 16.960094451904297 L10.94216537475586 17.384674072265625 L10.777563095092773 17.982444763183594 L10.777563095092773 17.982444763183594 M15.673162460327148 16.190874099731445 A4.4117536544799805 4.4117536544799805 0.0 0 0 16.427318572998047 13.942602157592773 L15.963395118713379 13.920438766479492 L15.353172302246094 14.674345016479492 L15.353172302246094 15.970989227294922 L15.673162460327148 16.190874099731445 L15.673162460327148 16.190874099731445" fill="black" fill-opacity="1.0" filling="0"/></svg>