<?xml version="1.0" encoding="iso-8859-1"?><svg height="200px" viewBox="0.0 0.0 24.0 24.0" width="200px" xmlns="http://www.w3.org/2000/svg"><path animation_id="0" d="M0.0 0.0 L24.0 0.0 L24.0 24.0 L0.0 24.0 L0.0 0.0" fill="black" fill-opacity="1.0" filling="0"/>
<path animation_id="1" d="M18.1748104095459 3.9107275009155273 C18.244661331176758 3.914462089538574 18.767976760864258 3.630703926086426 18.799976348876953 4.02925968170166 C18.864471435546875 4.822636127471924 19.614145278930664 6.6660027503967285 19.633319854736328 7.384673118591309 C19.633319854736328 7.702546119689941 17.743013381958008 8.229098320007324 17.81410789489746 8.453714370727539 C17.92380142211914 8.661520957946777 22.163230895996094 6.697254657745361 22.591670989990234 7.451534748077393 C23.232025146484375 8.578845977783203 23.714874267578125 9.809375762939453 23.64689064025879 10.930710792541504 C23.628463745117188 11.23675537109375 20.331817626953125 11.636556625366211 20.164478302001953 12.010831832885742 C20.07470703125 12.21129322052002 20.37900733947754 12.885139465332031 20.482101440429688 13.397871017456055 C20.55867576599121 13.779119491577148 20.58283233642578 13.898151397705078 20.380752563476562 13.92454719543457 C14.031749725341797 14.781299591064453 8.551827430725098 16.80333709716797 5.207744598388672 20.181909561157227 C4.7327399253845215 20.216398239135742 4.539251804351807 19.68673324584961 3.992032051086426 19.168773651123047 C3.8392581939697266 19.024093627929688 5.28755521774292 17.52823257446289 5.1300506591796875 17.42227554321289 C4.541866779327393 17.416175842285156 3.3153209686279297 19.099544525146484 2.5454769134521484 19.3585262298584 C2.442133903503418 19.393264770507812 2.205690383911133 18.89410400390625 2.1058340072631836 18.86945152282715 C2.005976676940918 18.84492301940918 1.8311653137207031 19.288677215576172 1.6914644241333008 19.25094985961914 C0.5710020065307617 18.948888778686523 0.16248512268066406 17.567825317382812 0.42171478271484375 17.186826705932617 C2.4243297576904297 14.123887062072754 10.164353370666504 6.361327171325684 18.1748104095459 3.9107275009155273 L18.1748104095459 3.9107275009155273" fill="black" fill-opacity="1.0" filling="0"/>
<path animation_id="2" d="M21.87362289428711 13.706281661987305 L21.87362289428711 15.382307052612305 C21.350309371948242 15.675153732299805 20.73311424255371 15.844362258911133 20.073835372924805 15.844362258911133 C18.185270309448242 15.844362258911133 16.644712448120117 14.45657730102539 16.644712448120117 12.754778861999512 C16.644712448120117 11.053104400634766 18.185270309448242 9.665193557739258 20.073835372924805 9.665193557739258 C20.73311424255371 9.665193557739258 21.350059509277344 9.834402084350586 21.87362289428711 10.127124786376953 L21.87362289428711 11.803274154663086 C21.51740074157715 11.223432540893555 20.846168518066406 10.83122730255127 20.079936981201172 10.83122730255127 C18.942289352416992 10.83122730255127 18.014568328857422 11.695324897766113 18.014568328857422 12.754778861999512 C18.014568328857422 13.814355850219727 18.942289352416992 14.678329467773438 20.079936981201172 14.678329467773438 C20.846168518066406 14.678329467773438 21.517274856567383 14.285999298095703 21.87362289428711 13.706281661987305 M6.361701011657715 10.742327690124512 C5.794434547424316 10.08342170715332 4.954864978790283 9.665068626403809 4.020544052124023 9.665068626403809 C2.3188695907592773 9.665068626403809 0.9309587478637695 11.052854537963867 0.9309587478637695 12.754653930664062 C0.9309587478637695 14.456204414367676 2.3188695907592773 15.84423828125 4.020544052124023 15.84423828125 C4.954740524291992 15.84423828125 5.794559001922607 15.425761222839355 6.361701011657715 14.766980171203613 L6.361701011657715 15.647762298583984 L7.617630481719971 15.647762298583984 L7.617630481719971 9.86167049407959 L6.361701011657715 9.86167049407959 L6.361701011657715 10.742327690124512 L6.361701011657715 10.742327690124512 M14.202577590942383 10.66799545288086 C13.637178421020508 10.052169799804688 12.826122283935547 9.665068626403809 11.927535057067871 9.665068626403809 C10.225860595703125 9.665068626403809 8.837950706481934 11.052979469299316 8.837950706481934 12.754653930664062 C8.837950706481934 14.456204414367676 10.225860595703125 15.84423828125 11.927535057067871 15.84423828125 C12.826122283935547 15.84423828125 13.637428283691406 15.457137107849121 14.202577590942383 14.841312408447266 L14.202577590942383 15.647762298583984 L15.458382606506348 15.647762298583984 L15.458382606506348 5.172383785247803 L14.202577590942383 5.172383785247803 L14.202577590942383 10.66799545288086 L14.202577590942383 10.66799545288086" fill="black" fill-opacity="1.0" filling="0"/>
<path animation_id="3" d="M11.927535057067871 10.685052871704102 C13.067421913146973 10.685052871704102 13.997136116027832 11.61489200592041 13.997136116027832 12.754778861999512 C13.997136116027832 13.894789695739746 13.067421913146973 14.824503898620605 11.927535057067871 14.824503898620605 C10.787524223327637 14.824503898620605 9.857809066772461 13.894789695739746 9.857809066772461 12.754778861999512 C9.857809066772461 11.61489200592041 10.787524223327637 10.685052871704102 11.927535057067871 10.685052871704102" fill="black" fill-opacity="1.0" filling="0"/>
<path animation_id="4" d="M4.0206685066223145 10.685052871704102 C5.160555362701416 10.685052871704102 6.090270042419434 11.61489200592041 6.090270042419434 12.754778861999512 C6.090270042419434 13.894789695739746 5.160555362701416 14.824503898620605 4.0206685066223145 14.824503898620605 C2.8806581497192383 14.824503898620605 1.9509429931640625 13.894789695739746 1.9509429931640625 12.754778861999512 C1.9508190155029297 11.61489200592041 2.8806581497192383 10.685052871704102 4.0206685066223145 10.685052871704102" fill="black" fill-opacity="1.0" filling="0"/>
<path animation_id="5" d="M1.5105514526367188 18.60325050354004 L1.3459501266479492 18.60325050354004 L1.7783727645874023 17.461496353149414 L1.943099021911621 17.461496353149414 L2.375396728515625 18.60325050354004 L2.2107954025268555 18.60325050354004 L2.10159969329834 18.307788848876953 L1.618377685546875 18.307788848876953 L1.5105514526367188 18.60325050354004 L1.5105514526367188 18.60325050354004 M2.0598888397216797 18.178672790527344 L1.8599262237548828 17.616884231567383 L1.659963607788086 18.178672790527344 L2.0598888397216797 18.178672790527344 M3.0094003677368164 17.461496353149414 C3.119093894958496 17.461496353149414 3.197908401489258 17.481666564941406 3.245595932006836 17.522254943847656 C3.293283462524414 17.562847137451172 3.3237876892089844 17.607669830322266 3.3371105194091797 17.65697479248047 C3.3422155380249023 17.67328643798828 3.3455772399902344 17.68984603881836 3.347195625305176 17.706157684326172 C3.348689079284668 17.72271728515625 3.3494367599487305 17.7380313873291 3.3494367599487305 17.752349853515625 C3.3494367599487305 17.821203231811523 3.3300132751464844 17.876113891601562 3.29091739654541 17.917699813842773 C3.2520694732666016 17.959285736083984 3.207869529724121 17.98580551147461 3.1586875915527344 17.997013092041016 L3.1586875915527344 18.001619338989258 L3.1771154403686523 18.004730224609375 A0.110813669860363 0.110813669860363 0.0 0 1 3.195542335510254 18.00933837890625 C3.2468414306640625 18.022659301757812 3.29403018951416 18.050674438476562 3.3371105194091797 18.094005584716797 C3.380190849304199 18.1370849609375 3.401730537414551 18.200462341308594 3.401730537414551 18.284629821777344 C3.401730537414551 18.387226104736328 3.3745880126953125 18.46068572998047 3.3201770782470703 18.504762649536133 A0.39743509888648987 0.39743509888648987 0.0 0 1 3.1401357650756836 18.589427947998047 C3.1134910583496094 18.595779418945312 3.087343215942383 18.599390029907227 3.061695098876953 18.601133346557617 A1.2295336723327637 1.2295336723327637 0.0 0 1 2.990849494934082 18.603374481201172 L2.5077505111694336 18.603374481201172 L2.5077505111694336 17.461620330810547 L3.0094003677368164 17.461620330810547 L3.0094003677368164 17.461496353149414 L3.0094003677368164 17.461496353149414 M2.661520004272461 18.474132537841797 L3.006162643432617 18.474132537841797 C3.064682960510254 18.471891403198242 3.118471145629883 18.458072662353516 3.1677770614624023 18.432546615600586 C3.217082977294922 18.40677261352539 3.241610527038574 18.353485107421875 3.241610527038574 18.272552490234375 C3.241610527038574 18.20270347595215 3.2198219299316406 18.152400970458984 3.176243782043457 18.12177085876465 C3.132664680480957 18.090892791748047 3.066800117492676 18.075576782226562 2.978522300720215 18.075576782226562 L2.661520004272461 18.075576782226562 L2.661520004272461 18.474132537841797 L2.661520004272461 18.474132537841797 M2.661520004272461 17.946210861206055 L2.969308853149414 17.946210861206055 C3.0503644943237305 17.946210861206055 3.1065187454223633 17.93014907836914 3.1377696990966797 17.897777557373047 C3.169022560119629 17.86540412902832 3.186826705932617 17.829919815063477 3.1909351348876953 17.790822982788086 A0.04905683919787407 0.04905683919787407 0.0 0 0 3.192429542541504 17.779369354248047 L3.192429542541504 17.76766586303711 C3.192429542541504 17.757455825805664 3.191682815551758 17.74599838256836 3.1901893615722656 17.73317527770996 A0.14841562509536743 0.14841562509536743 0.0 0 0 3.1786088943481445 17.69233512878418 C3.1682748794555664 17.666812896728516 3.148104667663574 17.64340591430664 3.1178483963012695 17.62236213684082 C3.087592124938965 17.601444244384766 3.039656639099121 17.590984344482422 2.9740400314331055 17.590984344482422 L2.66164493560791 17.590984344482422 L2.66164493560791 17.946210861206055 L2.661520004272461 17.946210861206055 L2.661520004272461 17.946210861206055 M3.518770217895508 17.590862274169922 L3.518770217895508 17.461496353149414 L4.414243698120117 17.461496353149414 L4.414243698120117 17.590862274169922 L4.043453693389893 17.590862274169922 L4.043453693389893 18.60325050354004 L3.889559745788574 18.60325050354004 L3.889559745788574 17.590862274169922 L3.518770217895508 17.590862274169922 M5.054348945617676 18.637117385864258 C4.877918243408203 18.636119842529297 4.743074417114258 18.581708908081055 4.649692058563232 18.4735107421875 C4.556309700012207 18.365062713623047 4.509618759155273 18.218141555786133 4.509618759155273 18.032621383666992 C4.509618759155273 17.848970413208008 4.557056427001953 17.702173233032227 4.652057647705078 17.592479705810547 C4.746933937072754 17.48253631591797 4.881031036376953 17.42787742614746 5.054348945617676 17.42787742614746 C5.228786468505859 17.42787742614746 5.363132953643799 17.48253631591797 5.4575114250183105 17.592479705810547 C5.551889419555664 17.702173233032227 5.599079132080078 17.84909439086914 5.599079132080078 18.032621383666992 C5.599079132080078 18.218141555786133 5.552262783050537 18.365062713623047 5.458258628845215 18.4735107421875 C5.364377975463867 18.581708908081055 5.229782581329346 18.6357479095459 5.054348945617676 18.6357479095459 L5.054348945617676 18.637117385864258 M5.054348945617676 18.507875442504883 C5.1845855712890625 18.507875442504883 5.280831813812256 18.463424682617188 5.342837810516357 18.37489891052246 C5.40496826171875 18.28612518310547 5.435971260070801 18.171825408935547 5.435971260070801 18.03249740600586 C5.435971260070801 17.88271141052246 5.409077167510986 17.774015426635742 5.355288982391357 17.706157684326172 C5.301375865936279 17.6385498046875 5.241611003875732 17.594348907470703 5.175994396209717 17.573928833007812 A0.38722530007362366 0.38722530007362366 0.0 0 0 5.113739490509033 17.560853958129883 A0.5077507495880127 0.5077507495880127 0.0 0 0 5.054473400115967 17.556995391845703 C5.0350494384765625 17.556995391845703 5.009649753570557 17.559486389160156 4.978273391723633 17.564090728759766 A0.33542925119400024 0.33542925119400024 0.0 0 0 4.880533218383789 17.595718383789062 C4.8282389640808105 17.6202449798584 4.780551910400391 17.66556739807129 4.737471103668213 17.731931686401367 C4.694390773773193 17.798046112060547 4.672850608825684 17.89827537536621 4.672850608825684 18.032747268676758 A1.1344082355499268 1.1344082355499268 0.0 0 0 4.675963401794434 18.114173889160156 C4.685177326202393 18.212661743164062 4.717300891876221 18.302932739257812 4.772085189819336 18.385108947753906 C4.826993942260742 18.466785430908203 4.920998573303223 18.507875442504883 5.054348945617676 18.507875442504883 L5.054348945617676 18.507875442504883 M6.854759693145752 18.474132537841797 L6.840939044952393 18.861732482910156 L6.707090854644775 18.861732482910156 L6.707090854644775 18.60325050354004 L5.819211959838867 18.60325050354004 L5.819211959838867 18.861732482910156 L5.68536376953125 18.861732482910156 L5.673037528991699 18.474132537841797 L5.776131629943848 18.474132537841797 A0.8479113578796387 0.8479113578796387 0.0 0 0 5.942227363586426 18.114673614501953 C5.968000888824463 17.98505973815918 5.982817649841309 17.845733642578125 5.986926555633545 17.696943283081055 L5.993027687072754 17.461496353149414 L6.690157413482666 17.461496353149414 L6.690157413482666 18.474132537841797 L6.854759693145752 18.474132537841797 L6.854759693145752 18.474132537841797 M6.145427227020264 17.590862274169922 L6.140820503234863 17.73242950439453 L6.140820503234863 17.74625015258789 A0.05266762152314186 0.05266762152314186 0.0 0 1 6.139202117919922 17.76007080078125 A3.231276750564575 3.231276750564575 0.0 0 1 6.114673614501953 18.07159423828125 C6.1002302169799805 18.189006805419922 6.056652069091797 18.309406280517578 5.983813762664795 18.432422637939453 A0.3988047242164612 0.3988047242164612 0.0 0 0 5.971487522125244 18.452342987060547 C5.96737813949585 18.45969009399414 5.962771415710449 18.466663360595703 5.957666873931885 18.474008560180664 L6.536263465881348 18.474008560180664 L6.536263465881348 17.590736389160156 L6.145427227020264 17.590736389160156 L6.145427227020264 17.590862274169922 M7.516528606414795 17.461496353149414 C7.626222133636475 17.461496353149414 7.705036640167236 17.481666564941406 7.752723693847656 17.522254943847656 C7.800410747528076 17.562847137451172 7.830915927886963 17.607669830322266 7.84423828125 17.65697479248047 C7.849467754364014 17.67328643798828 7.852705001831055 17.68984603881836 7.854323863983154 17.706157684326172 C7.855818271636963 17.72271728515625 7.856689453125 17.7380313873291 7.856689453125 17.752349853515625 C7.856689453125 17.821203231811523 7.837141513824463 17.876113891601562 7.79817008972168 17.917699813842773 C7.759198188781738 17.959285736083984 7.715121746063232 17.98580551147461 7.665816307067871 17.997013092041016 L7.665816307067871 18.001619338989258 L7.684243202209473 18.004730224609375 A0.110813669860363 0.110813669860363 0.0 0 1 7.702670574188232 18.00933837890625 C7.753969192504883 18.022659301757812 7.8011579513549805 18.050674438476562 7.84423828125 18.094005584716797 C7.887319087982178 18.1370849609375 7.9088592529296875 18.200462341308594 7.9088592529296875 18.284629821777344 C7.9088592529296875 18.387226104736328 7.881715774536133 18.46068572998047 7.827305316925049 18.504762649536133 A0.39743509888648987 0.39743509888648987 0.0 0 1 7.647264003753662 18.589427947998047 C7.620619297027588 18.595779418945312 7.5944719314575195 18.599390029907227 7.568822860717773 18.601133346557617 A1.225424885749817 1.225424885749817 0.0 0 1 7.498101234436035 18.603374481201172 L7.01487922668457 18.603374481201172 L7.01487922668457 17.461620330810547 L7.516528606414795 17.461620330810547 L7.516528606414795 17.461496353149414 L7.516528606414795 17.461496353149414 M7.168648719787598 18.474132537841797 L7.513416290283203 18.474132537841797 A0.37726452946662903 0.37726452946662903 0.0 0 0 7.674905300140381 18.432546615600586 C7.724210739135742 18.40677261352539 7.748739719390869 18.353485107421875 7.748739719390869 18.272552490234375 C7.748739719390869 18.20270347595215 7.726950168609619 18.152400970458984 7.6833720207214355 18.12177085876465 C7.639668941497803 18.090892791748047 7.573802947998047 18.075576782226562 7.485650062561035 18.075576782226562 L7.168648719787598 18.075576782226562 L7.168648719787598 18.474132537841797 L7.168648719787598 18.474132537841797 M7.168648719787598 17.946210861206055 L7.476436614990234 17.946210861206055 C7.557492733001709 17.946210861206055 7.613646030426025 17.93014907836914 7.644898414611816 17.897777557373047 C7.676150321960449 17.86540412902832 7.693954944610596 17.829919815063477 7.698063850402832 17.790822982788086 A0.04905683919787407 0.04905683919787407 0.0 0 0 7.699558258056641 17.779369354248047 L7.699558258056641 17.76766586303711 C7.699558258056641 17.757455825805664 7.698811054229736 17.74599838256836 7.697316646575928 17.73317527770996 A0.15289796888828278 0.15289796888828278 0.0 0 0 7.685737609863281 17.69233512878418 C7.675403118133545 17.666812896728516 7.655232906341553 17.64340591430664 7.624977111816406 17.62236213684082 C7.59472131729126 17.601444244384766 7.546784400939941 17.590984344482422 7.481043338775635 17.590984344482422 L7.168648719787598 17.590984344482422 L7.168648719787598 17.946210861206055 L7.168648719787598 17.946210861206055 M8.904438972473145 17.461496353149414 L9.058208465576172 17.461496353149414 L9.058208465576172 18.60325050354004 L8.904438972473145 18.60325050354004 L8.904438972473145 17.678390502929688 L8.29658317565918 18.60325050354004 L8.142688751220703 18.60325050354004 L8.142688751220703 17.461496353149414 L8.29658317565918 17.461496353149414 L8.29658317565918 18.380252838134766 L8.904438972473145 17.461496353149414 M9.489136695861816 18.60325050354004 L9.33524227142334 18.60325050354004 L9.33524227142334 17.461496353149414 L10.063126564025879 17.461496353149414 L10.063126564025879 17.590862274169922 L9.489136695861816 17.590862274169922 L9.489136695861816 18.60325050354004 M10.243167877197266 18.60325050354004 L10.07856559753418 18.60325050354004 L10.510988235473633 17.461496353149414 L10.675589561462402 17.461496353149414 L11.108012199401855 18.60325050354004 L10.94340991973877 18.60325050354004 L10.83421516418457 18.307788848876953 L10.351118087768555 18.307788848876953 L10.243167877197266 18.60325050354004 M10.792505264282227 18.178672790527344 L10.592541694641113 17.616884231567383 L10.392580032348633 18.178672790527344 L10.792505264282227 18.178672790527344 L10.792505264282227 18.178672790527344 M11.123327255249023 17.590862274169922 L11.123327255249023 17.461496353149414 L12.018925666809082 17.461496353149414 L12.018925666809082 17.590862274169922 L11.648011207580566 17.590862274169922 L11.648011207580566 18.60325050354004 L11.494117736816406 18.60325050354004 L11.494117736816406 17.590862274169922 L11.123327255249023 17.590862274169922 M12.93145751953125 17.949325561523438 L12.93145751953125 18.078441619873047 L12.332815170288086 18.078441619873047 L12.332815170288086 18.474132537841797 L13.011517524719238 18.474132537841797 L13.011517524719238 18.60325050354004 L12.178796768188477 18.60325050354004 L12.178796768188477 17.461496353149414 L12.99308967590332 17.461496353149414 L12.99308967590332 17.590862274169922 L12.332815170288086 17.590862274169922 L12.332815170288086 17.949325561523438 L12.93145751953125 17.949325561523438 L12.93145751953125 17.949325561523438 M13.060574531555176 18.469526290893555 L13.082985877990723 18.472389221191406 A0.11205876618623734 0.11205876618623734 0.0 0 0 13.103653907775879 18.474132537841797 C13.190936088562012 18.472888946533203 13.248832702636719 18.424081802368164 13.277470588684082 18.326961517333984 A1.3300131559371948 1.3300131559371948 0.0 0 0 13.329017639160156 17.97995376586914 C13.32951545715332 17.970989227294922 13.329764366149902 17.961774826049805 13.329764366149902 17.952438354492188 L13.340721130371094 17.461496353149414 L14.056154251098633 17.461496353149414 L14.056154251098633 18.60325050354004 L13.902259826660156 18.60325050354004 L13.902259826660156 17.590862274169922 L13.492997169494629 17.590862274169922 L13.482288360595703 17.984560012817383 C13.481292724609375 18.018552780151367 13.479674339294434 18.0560302734375 13.477682113647461 18.09686851501465 A1.1990288496017456 1.1990288496017456 0.0 0 1 13.463861465454102 18.223121643066406 C13.449542045593262 18.319618225097656 13.418664932250977 18.407894134521484 13.371475219726562 18.487953186035156 C13.324285507202148 18.56801414489746 13.243852615356445 18.60785675048828 13.130050659179688 18.60785675048828 A0.394695907831192 0.394695907831192 0.0 0 1 13.096931457519531 18.606361389160156 C13.084978103637695 18.605365753173828 13.073149681091309 18.604122161865234 13.060699462890625 18.60325050354004 L13.060699462890625 18.469526290893555 L13.060574531555176 18.469526290893555 L13.060574531555176 18.469526290893555 M14.48720645904541 17.926292419433594 L14.815040588378906 17.926292419433594 C14.835460662841797 17.926292419433594 14.859989166259766 17.92803382873535 14.888751029968262 17.931644439697266 C14.917511940002441 17.93525505065918 14.947395324707031 17.94210433959961 14.978023529052734 17.95256233215332 C15.030319213867188 17.970989227294922 15.078502655029297 18.00411033630371 15.121957778930664 18.051795959472656 C15.165411949157715 18.099483489990234 15.187324523925781 18.171947479248047 15.187324523925781 18.269439697265625 C15.187324523925781 18.36381721496582 15.166158676147461 18.434040069580078 15.124074935913086 18.480234146118164 C15.081989288330078 18.52642822265625 15.036046028137207 18.55830192565918 14.98574447631836 18.57560920715332 C14.952873229980469 18.588058471679688 14.920873641967773 18.595779418945312 14.889497756958008 18.59876823425293 A0.7881466746330261 0.7881466746330261 0.0 0 1 14.815040588378906 18.603374481201172 L14.333312034606934 18.603374481201172 L14.333312034606934 17.461620330810547 L14.48720645904541 17.461620330810547 L14.48720645904541 17.926292419433594 L14.48720645904541 17.926292419433594 M14.48720645904541 18.474132537841797 L14.796488761901855 18.474132537841797 C14.808691024780273 18.474132537841797 14.824005126953125 18.472888946533203 14.842432975769043 18.47102165222168 C14.860860824584961 18.469154357910156 14.879911422729492 18.463924407958984 14.899582862854004 18.455707550048828 C14.931208610534668 18.444250106811523 14.960592269897461 18.424081802368164 14.987113952636719 18.39494514465332 C15.013883590698242 18.36581039428711 15.027206420898438 18.32223129272461 15.027206420898438 18.26483154296875 C15.027206420898438 18.20842933654785 15.009650230407715 18.15949821472168 14.9749116897583 18.11791229248047 C14.939924240112305 18.076324462890625 14.873809814453125 18.05540657043457 14.77619457244873 18.05540657043457 L14.487081527709961 18.05540657043457 L14.487081527709961 18.474132537841797 L14.48720645904541 18.474132537841797 M16.34439468383789 18.224864959716797 A0.5005291700363159 0.5005291700363159 0.0 0 1 16.33057403564453 18.30168914794922 A0.460686057806015 0.460686057806015 0.0 0 1 16.298202514648438 18.389467239379883 C16.26956558227539 18.450973510742188 16.221378326416016 18.50712776184082 16.153770446777344 18.557804107666016 C16.085912704467773 18.608604431152344 15.986927032470703 18.63412857055664 15.85656452178955 18.63412857055664 C15.840253829956055 18.63412857055664 15.806262969970703 18.631515502929688 15.754467010498047 18.62640953063965 C15.70267105102539 18.621305465698242 15.648011207580566 18.60474395751953 15.590612411499023 18.577228546142578 C15.52076244354248 18.544357299804688 15.457137107849121 18.487953186035156 15.399738311767578 18.408018112182617 C15.342339515686035 18.32771110534668 15.313701629638672 18.209300994873047 15.313701629638672 18.05254364013672 C15.313701629638672 18.031875610351562 15.315694808959961 17.992530822753906 15.319803237915039 17.934133529663086 C15.323911666870117 17.875490188598633 15.338231086730957 17.81348419189453 15.362884521484375 17.74786949157715 C15.393762588500977 17.667808532714844 15.446056365966797 17.5947208404541 15.520015716552734 17.528480529785156 C15.593725204467773 17.462366104125977 15.704538345336914 17.429248809814453 15.85220718383789 17.429248809814453 C15.992778778076172 17.429248809814453 16.09661865234375 17.455768585205078 16.163978576660156 17.508560180664062 C16.231090545654297 17.56135368347168 16.27653694152832 17.620121002197266 16.30019187927246 17.684865951538086 C16.308162689208984 17.707279205322266 16.314512252807617 17.729564666748047 16.318620681762695 17.751728057861328 C16.322479248046875 17.773639678955078 16.32571792602539 17.794559478759766 16.32783317565918 17.813982009887695 L16.170703887939453 17.813982009887695 A0.32347631454467773 0.32347631454467773 0.0 0 0 16.16534996032715 17.775510787963867 A0.23096558451652527 0.23096558451652527 0.0 0 0 16.153894424438477 17.735416412353516 C16.137332916259766 17.691341400146484 16.10595703125 17.65074920654297 16.060012817382812 17.6140193939209 C16.01382064819336 17.577041625976562 15.94446849822998 17.558612823486328 15.852083206176758 17.558612823486328 C15.718857765197754 17.558612823486328 15.622983932495117 17.604806900024414 15.564340591430664 17.696943283081055 C15.505946159362793 17.789329528808594 15.476561546325684 17.905872344970703 15.476561546325684 18.04644203186035 C15.476561546325684 18.16335678100586 15.50843620300293 18.26919174194336 15.572184562683105 18.36406707763672 C15.635684967041016 18.45894432067871 15.732678413391113 18.506629943847656 15.863039016723633 18.506629943847656 C15.963518142700195 18.506629943847656 16.041088104248047 18.477745056152344 16.09524917602539 18.420345306396484 C16.1497859954834 18.362945556640625 16.179916381835938 18.297828674316406 16.186141967773438 18.225112915039062 L16.34439468383789 18.225112915039062 L16.34439468383789 18.224864959716797 L16.34439468383789 18.224864959716797 M17.296894073486328 17.949325561523438 L17.296894073486328 18.078441619873047 L16.6981258392334 18.078441619873047 L16.6981258392334 18.474132537841797 L17.376829147338867 18.474132537841797 L17.376829147338867 18.60325050354004 L16.54448127746582 18.60325050354004 L16.54448127746582 17.461496353149414 L17.358402252197266 17.461496353149414 L17.358402252197266 17.590862274169922 L16.6981258392334 17.590862274169922 L16.6981258392334 17.949325561523438 L17.296894073486328 17.949325561523438 M18.007719039916992 17.461496353149414 C18.136089324951172 17.461496353149414 18.232709884643555 17.48876190185547 18.297828674316406 17.54317283630371 C18.362945556640625 17.59745979309082 18.39556884765625 17.67938804626465 18.39556884765625 17.789329528808594 C18.39556884765625 17.885574340820312 18.367801666259766 17.96949577331543 18.312395095825195 18.04084014892578 C18.256988525390625 18.112308502197266 18.150907516479492 18.14779281616211 17.9937744140625 18.14779281616211 L17.696819305419922 18.14779281616211 L17.696819305419922 18.60325050354004 L17.542924880981445 18.60325050354004 L17.542924880981445 17.461496353149414 L18.007719039916992 17.461496353149414 L18.007719039916992 17.461496353149414 M17.696943283081055 18.0186767578125 L17.977088928222656 18.0186767578125 C18.079687118530273 18.0186767578125 18.148788452148438 17.996763229370117 18.184772491455078 17.95330810546875 C18.22075653076172 17.909481048583984 18.238561630249023 17.85606575012207 18.238561630249023 17.79256820678711 C18.238561630249023 17.71649169921875 18.215028762817383 17.66394805908203 18.16783905029297 17.634687423706055 C18.120649337768555 17.60542869567871 18.05714988708496 17.590862274169922 17.977214813232422 17.590862274169922 L17.697067260742188 17.590862274169922 L17.697067260742188 18.0186767578125 L17.696943283081055 18.0186767578125 L17.696943283081055 18.0186767578125 M19.08796501159668 17.461496353149414 C19.197908401489258 17.461496353149414 19.276473999023438 17.481666564941406 19.32428741455078 17.522254943847656 C19.371973037719727 17.562847137451172 19.402353286743164 17.607669830322266 19.41567611694336 17.65697479248047 C19.420780181884766 17.67328643798828 19.424142837524414 17.68984603881836 19.425636291503906 17.706157684326172 C19.427379608154297 17.72271728515625 19.42812728881836 17.7380313873291 19.42812728881836 17.752349853515625 C19.42812728881836 17.821203231811523 19.408702850341797 17.876113891601562 19.369482040405273 17.917699813842773 C19.33063507080078 17.959285736083984 19.286558151245117 17.98580551147461 19.237253189086914 17.997013092041016 L19.237253189086914 18.001619338989258 L19.255680084228516 18.004730224609375 C19.261783599853516 18.00572967529297 19.268131256103516 18.007221221923828 19.27410888671875 18.00933837890625 C19.325407028198242 18.022659301757812 19.372596740722656 18.050674438476562 19.41567611694336 18.094005584716797 C19.458757400512695 18.1370849609375 19.48042106628418 18.200462341308594 19.48042106628418 18.284629821777344 C19.48042106628418 18.387226104736328 19.453153610229492 18.46068572998047 19.398990631103516 18.504762649536133 A0.3984311819076538 0.3984311819076538 0.0 0 1 19.218826293945312 18.589427947998047 C19.192306518554688 18.595779418945312 19.166034698486328 18.599390029907227 19.14051055908203 18.601133346557617 A1.2289111614227295 1.2289111614227295 0.0 0 1 19.069787979125977 18.603374481201172 L18.586565017700195 18.603374481201172 L18.586565017700195 17.461620330810547 L19.08796501159668 17.461620330810547 L19.08796501159668 17.461496353149414 L19.08796501159668 17.461496353149414 M18.740209579467773 18.474132537841797 L19.084980010986328 18.474132537841797 A0.377638041973114 0.377638041973114 0.0 0 0 19.24646759033203 18.432546615600586 C19.295772552490234 18.40677261352539 19.32042694091797 18.353485107421875 19.32042694091797 18.272552490234375 C19.32042694091797 18.20270347595215 19.298511505126953 18.152400970458984 19.25505828857422 18.12177085876465 C19.21147918701172 18.090892791748047 19.145614624023438 18.075576782226562 19.05733871459961 18.075576782226562 L18.740209579467773 18.075576782226562 L18.740209579467773 18.474132537841797 L18.740209579467773 18.474132537841797 M18.740209579467773 17.946210861206055 L19.04812240600586 17.946210861206055 C19.12905502319336 17.946210861206055 19.185333251953125 17.93014907836914 19.21670913696289 17.897777557373047 C19.24783706665039 17.86540412902832 19.265640258789062 17.829919815063477 19.269750595092773 17.790822982788086 A0.04905683919787407 0.04905683919787407 0.0 0 0 19.271244049072266 17.779369354248047 L19.271244049072266 17.76766586303711 C19.271244049072266 17.757455825805664 19.270496368408203 17.74599838256836 19.269004821777344 17.73317527770996 C19.26750946044922 17.720352172851562 19.263648986816406 17.706655502319336 19.257299423217773 17.69233512878418 C19.247089385986328 17.666812896728516 19.22692108154297 17.64340591430664 19.1965389251709 17.62236213684082 C19.166406631469727 17.601444244384766 19.118471145629883 17.590984344482422 19.052854537963867 17.590984344482422 L18.74033546447754 17.590984344482422 L18.74033546447754 17.946210861206055 L18.740209579467773 17.946210861206055 L18.740209579467773 17.946210861206055 M20.476001739501953 17.461496353149414 L20.629894256591797 17.461496353149414 L20.629894256591797 18.60325050354004 L20.476001739501953 18.60325050354004 L20.476001739501953 17.678390502929688 L19.86802101135254 18.60325050354004 L19.714374542236328 18.60325050354004 L19.714374542236328 17.461496353149414 L19.86802101135254 17.461496353149414 L19.86802101135254 18.380252838134766 L20.476001739501953 17.461496353149414 M21.873123168945312 18.224864959716797 A0.5005291700363159 0.5005291700363159 0.0 0 1 21.827178955078125 18.389467239379883 C21.798294067382812 18.450973510742188 21.750110626220703 18.50712776184082 21.6825008392334 18.557804107666016 C21.614643096923828 18.608604431152344 21.515655517578125 18.63412857055664 21.385543823242188 18.63412857055664 C21.36898422241211 18.63412857055664 21.33499526977539 18.631515502929688 21.283199310302734 18.62640953063965 C21.231403350830078 18.621305465698242 21.176740646362305 18.60474395751953 21.119342803955078 18.577228546142578 C21.04949378967285 18.544357299804688 20.985870361328125 18.487953186035156 20.928470611572266 18.408018112182617 C20.871070861816406 18.32771110534668 20.84243392944336 18.209300994873047 20.84243392944336 18.05254364013672 C20.84243392944336 18.031875610351562 20.844425201416016 17.992530822753906 20.848535537719727 17.934133529663086 C20.852642059326172 17.875490188598633 20.866962432861328 17.81348419189453 20.89161491394043 17.74786949157715 C20.92249298095703 17.667808532714844 20.97478675842285 17.5947208404541 21.048744201660156 17.528480529785156 C21.122705459594727 17.462242126464844 21.23326873779297 17.429248809814453 21.381187438964844 17.429248809814453 C21.521759033203125 17.429248809814453 21.625598907470703 17.455768585205078 21.692710876464844 17.508560180664062 C21.759822845458984 17.56135368347168 21.805267333984375 17.620121002197266 21.82892417907715 17.684865951538086 C21.837141036987305 17.707279205322266 21.843242645263672 17.729564666748047 21.84735107421875 17.751728057861328 C21.851459503173828 17.773639678955078 21.854448318481445 17.794559478759766 21.856565475463867 17.813982009887695 L21.699434280395508 17.813982009887695 A0.32347631454467773 0.32347631454467773 0.0 0 0 21.694080352783203 17.775510787963867 A0.23096558451652527 0.23096558451652527 0.0 0 0 21.68262481689453 17.735416412353516 C21.666065216064453 17.691341400146484 21.634937286376953 17.65074920654297 21.5887451171875 17.6140193939209 C21.542551040649414 17.577041625976562 21.47319984436035 17.558612823486328 21.381061553955078 17.558612823486328 C21.247587203979492 17.558612823486328 21.151716232299805 17.604806900024414 21.093196868896484 17.696943283081055 C21.034801483154297 17.789329528808594 21.005664825439453 17.905872344970703 21.005664825439453 18.04644203186035 C21.005664825439453 18.16335678100586 21.037290573120117 18.26919174194336 21.10103988647461 18.36406707763672 C21.1647891998291 18.45894432067871 21.261531829833984 18.506629943847656 21.391895294189453 18.506629943847656 C21.492374420166016 18.506629943847656 21.569942474365234 18.477745056152344 21.624103546142578 18.420345306396484 C21.678640365600586 18.362945556640625 21.708772659301758 18.297828674316406 21.714998245239258 18.225112915039062 L21.873123168945312 18.225112915039062 L21.873123168945312 18.224864959716797 L21.873123168945312 18.224864959716797" fill="black" fill-opacity="1.0" filling="0"/></svg>