<?xml version="1.0" encoding="iso-8859-1"?><svg height="200px" viewBox="0.0 0.0 24.0 24.0" width="200px" xmlns="http://www.w3.org/2000/svg"><path animation_id="0" d="M20.049819946289062 13.74264144897461 C20.229202270507812 13.727718353271484 20.429840087890625 13.461578369140625 20.537002563476562 13.461578369140625 C20.61194610595703 13.461578369140625 20.76177978515625 13.580196380615234 20.82556915283203 13.622712135314941 C20.898317337036133 13.671220779418945 21.04193115234375 13.781163215637207 21.117889404296875 13.798853874206543 C21.071605682373047 13.867964744567871 20.97939682006836 13.946690559387207 20.903724670410156 13.996939659118652 C20.62729835510254 14.180572509765625 20.607196807861328 14.143421173095703 20.4780216217041 14.045190811157227 L20.192277908325195 13.843753814697266 C20.138391494750977 13.80772876739502 20.081037521362305 13.785272598266602 20.049808502197266 13.742627143859863 L20.049819946289062 13.74264144897461 M21.117218017578125 15.01684284210205 C21.291778564453125 15.006855010986328 21.457761764526367 14.975367546081543 21.586624145507812 14.923392295837402 C21.857643127441406 14.814091682434082 22.104820251464844 14.651859283447266 22.321853637695312 14.459396362304688 C22.674835205078125 14.146402359008789 23.037322998046875 13.613537788391113 23.306602478027344 13.214285850524902 C23.554180145263672 12.847234725952148 24.0 12.448695182800293 23.729251861572266 11.974512100219727 C23.65382194519043 11.842354774475098 23.42013931274414 11.703221321105957 23.290794372558594 11.62597942352295 C23.11056900024414 11.518390655517578 22.98430633544922 11.487687110900879 22.77370834350586 11.557083129882812 C22.36459732055664 11.69190788269043 22.605484008789062 11.58006763458252 22.29886817932129 11.437396049499512 C21.76523208618164 11.189046859741211 21.204463958740234 11.574346542358398 20.82248878479004 11.910680770874023 C20.7679443359375 11.958718299865723 20.747127532958984 11.95683479309082 20.70566749572754 12.018725395202637 L19.95614242553711 11.625208854675293 C19.95614242553711 11.471195220947266 19.94734001159668 11.375104904174805 19.84876823425293 11.264163970947266 C19.681957244873047 11.076493263244629 19.21807289123535 10.725778579711914 18.96303367614746 10.725778579711914 C18.781997680664062 10.725778579711914 18.638427734375 10.867351531982422 18.539655685424805 10.995713233947754 C18.375411987304688 11.209078788757324 18.2681941986084 11.482651710510254 18.360559463500977 11.759248733520508 C18.372587203979492 11.795273780822754 18.37655258178711 11.805274963378906 18.394302368164062 11.837918281555176 C18.425960540771484 11.896056175231934 18.438373565673828 11.892390251159668 18.438373565673828 11.943779945373535 L18.397125244140625 11.977507591247559 C18.266738891601562 11.949045181274414 17.982364654541016 11.494050979614258 17.501462936401367 11.494050979614258 C17.019088745117188 11.494050979614258 16.50933837890625 11.715890884399414 16.114566802978516 11.980989456176758 C16.098873138427734 11.991503715515137 16.101083755493164 11.989078521728516 16.081151962280273 12.003787994384766 L16.03986358642578 12.037458419799805 C15.952476501464844 11.978934288024902 15.872152328491211 11.89522933959961 15.758785247802734 11.868820190429688 C15.799104690551758 11.81379222869873 15.894023895263672 11.800267219543457 15.962491035461426 11.772688865661621 C16.302677154541016 11.635623931884766 16.64942741394043 11.43634033203125 16.90652084350586 11.18017292022705 C16.961849212646484 11.125044822692871 17.001996994018555 11.088677406311035 17.044485092163086 11.018340110778809 C17.259248733520508 10.662817001342773 16.97951316833496 10.347513198852539 16.714527130126953 10.144819259643555 C16.286542892456055 9.817459106445312 16.00519371032715 9.660035133361816 15.489606857299805 9.913191795349121 C15.427472114562988 9.943709373474121 15.356108665466309 9.989906311035156 15.306045532226562 10.029455184936523 L14.985660552978516 10.308663368225098 C14.935940742492676 10.35881233215332 14.879029273986816 10.408119201660156 14.837596893310547 10.460436820983887 L14.54536247253418 10.786541938781738 C14.233682632446289 11.11705493927002 13.913354873657227 11.621756553649902 13.64915657043457 12.007768630981445 C13.603358268737793 12.074681282043457 13.553323745727539 12.122976303100586 13.510209083557129 12.187363624572754 L12.823229789733887 11.675115585327148 C12.395685195922852 11.435983657836914 12.038679122924805 11.793861389160156 11.898703575134277 11.793861389160156 C11.784252166748047 11.793861389160156 11.523390769958496 11.31006145477295 10.984905242919922 11.760732650756836 L10.721304893493652 11.98432731628418 C10.693099021911621 12.007098197937012 10.65162467956543 12.038057327270508 10.624530792236328 12.056191444396973 C10.590618133544922 12.005528450012207 10.52473258972168 11.967477798461914 10.471843719482422 11.927801132202148 L10.148934364318848 11.688583374023438 C9.892111778259277 11.530232429504395 9.627013206481934 11.716104507446289 9.424989700317383 11.868520736694336 C9.211153984069824 12.029853820800781 9.299896240234375 12.009552001953125 8.964617729187012 11.804832458496094 C8.793996810913086 11.700667381286621 8.627898216247559 11.556640625 8.394829750061035 11.700325012207031 C8.249789237976074 11.789766311645508 8.1123685836792 11.936875343322754 8.019916534423828 12.074938774108887 C7.852305889129639 11.962698936462402 7.7010602951049805 11.81289291381836 7.532736301422119 11.700182914733887 C7.636457920074463 11.48403549194336 7.45095682144165 11.091673851013184 7.289252281188965 10.96927547454834 C7.085018157958984 10.814733505249023 6.930034160614014 10.594619750976562 6.63331937789917 10.594619750976562 C6.452682971954346 10.594619750976562 6.18428897857666 10.88040542602539 6.146110534667969 11.04433536529541 C6.057097434997559 11.023605346679688 5.980596542358398 10.95448112487793 5.902512550354004 10.913177490234375 C6.0156941413879395 10.427437782287598 6.064487934112549 10.28567886352539 5.7152419090271 9.826261520385742 C5.679616451263428 9.77940845489502 5.645988941192627 9.741029739379883 5.597452163696289 9.700468063354492 C5.419326305389404 9.551733016967773 5.216005325317383 9.39957332611084 5.0032958984375 9.301501274108887 C4.451028347015381 9.046903610229492 4.392333030700684 8.98314380645752 3.7476425170898438 8.98314380645752 C3.4813032150268555 8.98314380645752 3.1822633743286133 9.050798416137695 2.9770870208740234 9.112018585205078 C2.8526058197021484 9.149142265319824 2.750624656677246 9.178118705749512 2.64215087890625 9.226826667785645 C2.21370792388916 9.419219970703125 1.5739965438842773 9.911108016967773 1.5739965438842773 10.425982475280762 C1.5739965438842773 10.573533058166504 1.6032295227050781 10.7254638671875 1.6511964797973633 10.854710578918457 C1.6851377487182617 10.94617748260498 1.7496261596679688 11.028512954711914 1.8094196319580078 11.108736991882324 C1.8908557891845703 11.218066215515137 2.111241340637207 11.443316459655762 2.248577117919922 11.47531795501709 C2.232640266418457 11.534926414489746 2.246037483215332 11.498473167419434 2.207416534423828 11.54659652709961 L2.042459487915039 11.737662315368652 C1.916351318359375 11.905658721923828 1.7140436172485352 12.080459594726562 1.560328483581543 12.2299222946167 C1.3010377883911133 12.482051849365234 1.0027532577514648 12.665912628173828 0.658329963684082 12.789495468139648 C0.26642608642578125 12.930112838745117 0.0 12.819099426269531 0.0 13.180500984191895 C0.0 13.377615928649902 0.46177196502685547 13.782333374023438 0.6633806228637695 13.903732299804688 C1.1716060638427734 14.209734916687012 1.9623918533325195 13.796442985534668 2.309354782104492 13.447382926940918 C2.3515005111694336 13.40499496459961 2.358433723449707 13.40499496459961 2.401492118835449 13.370896339416504 C2.477450370788574 13.310760498046875 2.6635236740112305 13.068617820739746 2.735772132873535 13.049328804016113 C2.800501823425293 13.327081680297852 3.046182632446289 13.544628143310547 3.2716751098632812 13.693947792053223 C3.9048662185668945 14.113274574279785 4.529012203216553 14.035818099975586 5.19049596786499 13.70517635345459 C5.260974884033203 13.669936180114746 5.335264205932617 13.636665344238281 5.396827220916748 13.592950820922852 L5.748056411743164 13.307093620300293 C5.806893825531006 13.247556686401367 5.854560852050781 13.187691688537598 5.921273708343506 13.143021583557129 C5.956713676452637 13.295095443725586 5.9899420738220215 13.315112113952637 6.085246562957764 13.41003131866455 C6.588349342346191 13.91110897064209 7.052574157714844 14.028199195861816 7.641623020172119 13.607888221740723 L7.682669639587402 13.574004173278809 C8.148478507995605 13.885912895202637 8.417900085449219 14.014602661132812 8.963033676147461 13.711339950561523 C9.248376846313477 13.552574157714844 9.071991920471191 13.603479385375977 9.407299041748047 13.779422760009766 C9.805752754211426 13.988479614257812 10.091238021850586 13.813278198242188 10.437189102172852 13.630230903625488 C10.618624687194824 13.72622013092041 10.77276611328125 13.836334228515625 10.999343872070312 13.836334228515625 C11.275198936462402 13.836334228515625 11.464695930480957 13.501641273498535 11.636429786682129 13.386604309082031 L11.772239685058594 13.531858444213867 C12.13947582244873 13.897412300109863 12.547674179077148 13.861087799072266 12.998973846435547 13.681093215942383 C13.168622970581055 13.613424301147461 13.286185264587402 13.521728515625 13.435276985168457 13.442831993103027 C13.626928329467773 13.729001998901367 14.104778289794922 13.87381362915039 14.428428649902344 13.87381362915039 C14.813599586486816 13.87381362915039 15.086943626403809 13.737319946289062 15.364625930786133 13.57327651977539 C15.52219295501709 13.480182647705078 15.64476203918457 13.338181495666504 15.796321868896484 13.236714363098145 C15.886518478393555 13.297121047973633 15.950292587280273 13.395506858825684 16.050477981567383 13.46975326538086 C16.160335540771484 13.551190376281738 16.22984504699707 13.602652549743652 16.35041618347168 13.675743103027344 C16.990684509277344 14.063895225524902 17.743961334228516 13.925161361694336 18.325977325439453 13.536538124084473 C18.379249572753906 13.500970840454102 18.42574691772461 13.471636772155762 18.483613967895508 13.431831359863281 C18.544349670410156 13.390043258666992 18.589391708374023 13.348610877990723 18.644533157348633 13.311673164367676 L18.8461856842041 13.484806060791016 C19.05130386352539 13.656839370727539 19.37643814086914 13.83179759979248 19.656417846679688 13.855095863342285 C19.551782608032227 14.01134967803955 19.479276657104492 14.113502502441406 19.593427658081055 14.311573028564453 C19.7125301361084 14.518261909484863 20.09747314453125 14.781320571899414 20.324420928955078 14.892261505126953 C20.471601486206055 14.964225769042969 20.669116973876953 15.005200386047363 20.87283706665039 15.01685619354248 L21.117319107055664 15.01685619354248 L21.117218017578125 15.01684284210205 M3.878758430480957 12.449707984924316 C3.7209205627441406 12.449707984924316 3.5578174591064453 12.411572456359863 3.43697452545166 12.329336166381836 C3.3757686614990234 12.287690162658691 3.402918815612793 12.282440185546875 3.316617012023926 12.262323379516602 C3.403475761413574 12.098165512084961 4.034369945526123 11.168131828308105 4.047395706176758 11.119309425354004 L4.084875583648682 11.119309425354004 C4.110456466674805 11.215169906616211 4.435305595397949 11.53154468536377 4.703228950500488 11.53154468536377 C4.872166633605957 11.53154468536377 5.0087175369262695 11.487330436706543 5.152957916259766 11.47531795501709 C5.138762950897217 11.536224365234375 5.100754737854004 11.618061065673828 5.07206392288208 11.675515174865723 C5.033143043518066 11.753484725952148 5.010715007781982 11.783674240112305 4.96291971206665 11.847448348999023 C4.7272114753723145 12.162053108215332 4.287041187286377 12.449722290039062 3.878758430480957 12.449722290039062 L3.878758430480957 12.449707984924316 M16.583826065063477 12.768251419067383 C16.68406867980957 12.584789276123047 17.193777084350586 12.710583686828613 17.676563262939453 12.419177055358887 C18.00827407836914 12.218965530395508 18.14725112915039 11.711040496826172 17.601959228515625 11.617347717285156 C17.172590255737305 11.543543815612793 16.308212280273438 11.926488876342773 16.029590606689453 12.19549560546875 C15.756046295166016 12.459595680236816 15.485897064208984 12.732340812683105 15.869483947753906 13.107381820678711 C16.430797576904297 13.656168937683105 17.432151794433594 13.271383285522461 17.984434127807617 12.83915901184082 C18.30550193786621 12.587857246398926 18.457134246826172 12.41675090789795 18.71872329711914 12.111847877502441 C18.800159454345703 12.016927719116211 18.778087615966797 11.994457244873047 18.963119506835938 11.9944429397583 C19.09239387512207 11.9944429397583 19.174259185791016 12.020709037780762 19.22532081604004 12.112403869628906 C19.16960906982422 12.262765884399414 18.853862762451172 12.450878143310547 18.735244750976562 12.652387619018555 C18.315048217773438 13.366302490234375 19.419170379638672 13.648592948913574 20.0338134765625 12.920495986938477 C20.085603713989258 12.859147071838379 20.22479248046875 12.691108703613281 20.321880340576172 12.702308654785156 C20.40553092956543 12.923578262329102 20.22385025024414 12.990548133850098 20.467178344726562 13.213258743286133 C20.61203384399414 13.345829010009766 20.753833770751953 13.359511375427246 21.00012969970703 13.324870109558105 C21.32952880859375 13.27851676940918 21.434049606323242 13.15803050994873 21.645889282226562 12.996625900268555 C21.73224639892578 12.930839538574219 21.753292083740234 12.879521369934082 21.84809684753418 12.860174179077148 C21.86444854736328 13.08297061920166 21.25048828125 14.022791862487793 20.733375549316406 14.220163345336914 C20.486696243286133 14.314327239990234 20.283302307128906 14.281612396240234 20.01114273071289 14.24978256225586 C20.031402587890625 14.144433975219727 20.08466148376465 14.042694091796875 20.066455841064453 13.930041313171387 C19.862178802490234 13.721697807312012 19.516942977905273 14.051397323608398 19.708765029907227 14.289444923400879 C20.08192253112793 14.752471923828125 20.996917724609375 14.574502944946289 21.482616424560547 14.238354682922363 C21.62413215637207 14.140424728393555 22.130558013916016 13.68580150604248 22.232627868652344 13.565030097961426 L22.44915771484375 13.31241512298584 C22.623790740966797 13.111448287963867 22.90351104736328 12.703407287597656 23.04345703125 12.464203834533691 C23.141529083251953 12.296564102172852 23.323678970336914 11.994686126708984 23.209585189819336 11.763657569885254 C23.069894790649414 11.480796813964844 22.639854431152344 11.796100616455078 22.514446258544922 11.748534202575684 C22.488536834716797 11.738689422607422 22.411394119262695 11.667525291442871 22.387466430664062 11.648478507995605 C21.61508560180664 11.033378601074219 20.72793960571289 12.29338264465332 20.096702575683594 12.608402252197266 C19.710290908813477 12.801237106323242 19.503644943237305 12.563246726989746 19.60367202758789 12.321803092956543 C19.730022430419922 12.01684284210205 20.02005958557129 11.880976676940918 19.863605499267578 11.737220764160156 C19.672468185424805 11.561605453491211 19.29911231994629 11.776926040649414 19.054914474487305 11.738304138183594 C19.055742263793945 11.568353652954102 19.249134063720703 11.422715187072754 19.224123001098633 11.119651794433594 C19.183490753173828 10.628090858459473 18.59157371520996 10.889422416687012 18.456392288208008 11.400872230529785 C18.356779098510742 11.77778148651123 18.656545639038086 11.847206115722656 18.530197143554688 12.01684284210205 C18.418357849121094 12.166947364807129 17.892555236816406 12.651930809020996 17.70967674255371 12.788981437683105 C17.459102630615234 12.976751327514648 17.126991271972656 13.081615447998047 16.80354118347168 12.960415840148926 C16.710376739501953 12.925503730773926 16.600833892822266 12.860688209533691 16.583812713623047 12.768280029296875 L16.583826065063477 12.768251419067383 M3.8225173950195312 10.051212310791016 C4.107531547546387 9.900407791137695 4.499308109283447 9.860716819763184 4.834386348724365 9.938787460327148 C4.834386348724365 10.241907119750977 4.867714881896973 10.26229476928711 4.696109294891357 10.287675857543945 C4.610449314117432 10.300359725952148 4.565123081207275 10.301444053649902 4.486182689666748 10.321374893188477 C4.21469259262085 10.389900207519531 4.368805885314941 10.441719055175781 4.1896538734436035 10.30244255065918 C4.143542289733887 10.26657485961914 4.1170334815979 10.247428894042969 4.070052146911621 10.215927124023438 C4.000827312469482 10.169515609741211 3.854146957397461 10.094398498535156 3.8225173950195312 10.051212310791016 M2.4382448196411133 11.374434471130371 C2.1976003646850586 11.235030174255371 1.8454008102416992 11.063796043395996 1.7472572326660156 10.79631519317627 C1.6858797073364258 10.62908935546875 1.6844673156738281 10.406935691833496 1.7392539978027344 10.236085891723633 C1.7955513000488281 10.060528755187988 1.8864192962646484 9.948902130126953 1.9816389083862305 9.84078598022461 C2.3219242095947266 9.454402923583984 3.0197744369506836 9.09555435180664 3.7850513458251953 9.09555435180664 L3.953688621520996 9.09555435180664 C4.512691020965576 9.09555435180664 5.166940212249756 9.44308853149414 5.166940212249756 9.95751953125 C5.166940212249756 10.096253395080566 5.065414905548096 10.484663009643555 5.089540958404541 10.526266098022461 C5.139804363250732 10.580367088317871 5.2636003494262695 10.612311363220215 5.343838691711426 10.66619873046875 C5.860781192779541 11.013575553894043 5.621120929718018 11.730756759643555 5.693398952484131 11.963126182556152 C5.893095970153809 11.993102073669434 6.1148223876953125 11.868791580200195 6.241514205932617 11.799253463745117 C6.244853496551514 11.618546485900879 6.147265911102295 11.518661499023438 6.179039001464844 11.300872802734375 C6.208043575286865 11.102103233337402 6.455265522003174 10.659920692443848 6.697550296783447 10.717659950256348 C6.845843315124512 10.752985000610352 6.8908562660217285 10.910451889038086 6.8908562660217285 11.081814765930176 C6.8908562660217285 11.304840087890625 6.741549968719482 11.470295906066895 6.746872425079346 11.60888671875 C6.9178786277771 11.690979957580566 7.203121662139893 11.606490135192871 7.361473083496094 11.721611976623535 C7.4726715087890625 11.80246353149414 7.411564826965332 11.892589569091797 7.339202404022217 11.956521034240723 C7.272189140319824 12.015715599060059 7.217660427093506 12.062597274780273 7.155412197113037 12.128454208374023 C6.738568305969238 12.569353103637695 7.38582706451416 12.762972831726074 7.75140905380249 12.499671936035156 C7.933401107788086 12.368613243103027 8.142857551574707 12.112175941467285 8.299453735351562 11.942496299743652 C8.415873527526855 11.81633186340332 8.623589515686035 11.665513038635254 8.769057273864746 11.832011222839355 C8.968084335327148 12.059815406799316 8.43503475189209 12.32534122467041 8.507040977478027 12.543429374694824 C8.613102912902832 12.716347694396973 8.78333854675293 12.573104858398438 8.882680892944336 12.487715721130371 C8.94919490814209 12.430547714233398 8.980440139770508 12.401200294494629 9.04234504699707 12.348468780517578 C9.093178749084473 12.305152893066406 9.150161743164062 12.252635955810547 9.204305648803711 12.210290908813477 L9.541866302490234 11.929085731506348 C9.919632911682129 11.629589080810547 10.367765426635742 11.748106002807617 10.090568542480469 12.140995979309082 C10.019160270690918 12.242177963256836 9.83572769165039 12.419604301452637 9.856201171875 12.562176704406738 C9.984962463378906 12.728531837463379 10.175115585327148 12.56729793548584 10.28423023223877 12.484049797058105 C10.359161376953125 12.42686653137207 10.413405418395996 12.389914512634277 10.477008819580078 12.339380264282227 C10.532821655273438 12.295038223266602 10.606982231140137 12.237897872924805 10.652481079101562 12.196237564086914 C10.83607006072998 12.02811336517334 11.396113395690918 11.445956230163574 11.659428596496582 11.790122985839844 C11.726441383361816 11.877695083618164 11.678118705749512 11.952340126037598 11.658543586730957 12.037630081176758 C11.799603462219238 12.05025577545166 12.620763778686523 11.431831359863281 12.869012832641602 11.873001098632812 C12.99004077911377 12.088064193725586 12.562268257141113 12.33962345123291 12.739952087402344 12.563702583312988 C12.959823608398438 12.840970993041992 13.496254920959473 12.388373374938965 13.628155708312988 12.23033618927002 C13.767745018005371 12.063082695007324 13.885220527648926 11.861230850219727 14.015779495239258 11.68106460571289 C14.420795440673828 11.12220573425293 15.25740909576416 9.90611457824707 15.964916229248047 9.90611457824707 C16.229400634765625 9.90611457824707 16.522308349609375 10.0905179977417 16.522308349609375 10.332332611083984 C16.522308349609375 10.883787155151367 15.762194633483887 11.13327693939209 15.335050582885742 11.257329940795898 C14.804483413696289 11.411415100097656 14.805453300476074 11.326825141906738 14.624174118041992 11.596603393554688 C14.366866111755371 11.979548454284668 14.898146629333496 11.659321784973145 15.177897453308105 11.659321784973145 C15.436290740966797 11.659321784973145 15.66031265258789 11.849531173706055 15.66031265258789 12.093742370605469 C15.66031265258789 12.330320358276367 15.457691192626953 12.479826927185059 15.337675094604492 12.590539932250977 C14.95180606842041 12.946505546569824 14.310026168823242 13.390100479125977 13.753777503967285 13.390100479125977 C13.540526390075684 13.390100479125977 13.39277458190918 13.308948516845703 13.313377380371094 13.170499801635742 C13.184389114379883 12.945577621459961 13.372272491455078 12.832596778869629 13.285444259643555 12.678054809570312 C13.007904052734375 12.747692108154297 12.372272491455078 13.315155029296875 11.879956245422363 13.315155029296875 C11.749597549438477 13.315155029296875 11.639140129089355 13.259199142456055 11.677034378051758 13.112303733825684 C11.723973274230957 12.930355072021484 12.204706192016602 12.557967185974121 12.107545852661133 12.393552780151367 C11.962078094482422 12.14745807647705 11.142542839050293 12.87983512878418 11.021358489990234 12.978107452392578 C10.915138244628906 13.064237594604492 10.636857986450195 13.318150520324707 10.473198890686035 13.328922271728516 C10.066842079162598 13.355673789978027 10.418227195739746 12.934563636779785 10.396770477294922 12.793476104736328 C10.086088180541992 12.85023021697998 9.547317504882812 13.349196434020996 9.106718063354492 13.349196434020996 C8.966928482055664 13.349196434020996 8.856943130493164 13.317252159118652 8.894750595092773 13.156603813171387 C8.921830177307129 13.04165267944336 9.005821228027344 13.011677742004395 8.999757766723633 12.891377449035645 C8.999401092529297 12.884600639343262 8.996589660644531 12.882502555847168 8.994421005249023 12.878351211547852 C8.87951374053955 12.777738571166992 7.9806108474731445 13.710227012634277 7.625672817230225 13.312472343444824 C7.487009525299072 13.157102584838867 7.59505558013916 12.96630859375 7.622961521148682 12.80203628540039 C7.366309642791748 12.815532684326172 6.790700912475586 13.400657653808594 6.408411502838135 13.400657653808594 C6.185587406158447 13.400657653808594 6.0611066818237305 13.27021312713623 6.022114276885986 13.080717086791992 C5.903382778167725 12.503681182861328 7.029590129852295 12.110078811645508 6.889158725738525 11.874114036560059 C6.822259902954102 11.818443298339844 6.741693019866943 11.819684982299805 6.633519649505615 11.810981750488281 C6.441311836242676 11.795516014099121 6.241828441619873 11.995498657226562 6.004251480102539 12.101275444030762 C5.904595375061035 12.145646095275879 5.6606268882751465 12.252878189086914 5.595283508300781 12.31123161315918 C5.5457763671875 12.35544490814209 5.512362480163574 12.419618606567383 5.464624881744385 12.480354309082031 C5.082635402679443 12.966294288635254 4.370147705078125 13.470638275146484 3.691372871398926 13.470638275146484 C3.2245216369628906 13.470638275146484 2.7731809616088867 13.205026626586914 2.7731809616088867 12.712095260620117 C2.7731809616088867 12.529105186462402 2.9066781997680664 12.31344223022461 3.053744316101074 12.293097496032715 C3.1683244705200195 12.277247428894043 3.24710750579834 12.317465782165527 3.318828582763672 12.372323036193848 C3.395172119140625 12.430732727050781 3.4184274673461914 12.461065292358398 3.5265731811523438 12.50253963470459 C3.898617744445801 12.645211219787598 4.317944526672363 12.508588790893555 4.589290618896484 12.336013793945312 C4.928578853607178 12.120207786560059 5.465081691741943 11.530388832092285 5.255768299102783 11.053252220153809 C5.197842597961426 10.921266555786133 5.044242858886719 10.770248413085938 4.906378746032715 10.726449012756348 C4.814169883728027 10.824963569641113 4.6432929039001465 10.942639350891113 4.462698936462402 10.974169731140137 C4.047410011291504 11.046660423278809 4.058681011199951 10.672518730163574 4.33760404586792 10.510400772094727 C4.656446933746338 10.32507038116455 4.956457138061523 10.538307189941406 4.956457138061523 10.10749626159668 C4.956457138061523 9.629859924316406 4.458375453948975 9.39888858795166 3.9724502563476562 9.39888858795166 C3.2946596145629883 9.39888858795166 2.393660545349121 9.858078002929688 2.393660545349121 10.482280731201172 C2.393660545349121 10.758506774902344 2.609978675842285 11.162610054016113 2.8262691497802734 10.873001098632812 C2.9691972732543945 10.681564331054688 3.1521453857421875 10.520801544189453 3.3191709518432617 10.353675842285156 C3.610563278198242 10.062169075012207 3.8627920150756836 10.091202735900879 3.7067384719848633 10.291342735290527 C3.5041589736938477 10.551191329956055 3.320340156555176 10.835763931274414 3.1300888061523438 11.10166072845459 C2.817737579345703 11.53813648223877 2.534006118774414 12.101432800292969 2.1986989974975586 12.53134536743164 C2.071735382080078 12.694119453430176 1.9473543167114258 12.799253463745117 1.8176660537719727 12.936861038208008 C1.7288808822631836 13.031124114990234 1.5076398849487305 13.193798065185547 1.3550243377685547 13.261595726013184 C1.026494026184082 13.407548904418945 0.5586881637573242 13.501055717468262 0.22216796875 13.295194625854492 C0.16915130615234375 13.262779235839844 0.08865547180175781 13.199447631835938 0.11980152130126953 13.095340728759766 C0.1659564971923828 12.940940856933594 0.8775739669799805 12.963540077209473 1.4046030044555664 12.523469924926758 C1.60614013671875 12.355202674865723 2.423320770263672 11.626264572143555 2.438230514526367 11.374520301818848 L2.4382448196411133 11.374434471130371" fill="black" fill-opacity="1.0" filling="0"/>
<path animation_id="1" d="M14.456192970275879 12.18502426147461 C15.097087860107422 12.020195007324219 14.915324211120605 12.697172164916992 14.303049087524414 12.924291610717773 C13.749369621276855 13.129681587219238 13.766460418701172 12.362421989440918 14.456192970275879 12.18502426147461 M14.986931800842285 11.126500129699707 C15.020486831665039 10.893688201904297 15.578391075134277 10.362835884094238 15.779386520385742 10.203128814697266 C15.886276245117188 10.11822509765625 16.033613204956055 10.029183387756348 16.172590255737305 10.143292427062988 C16.51694107055664 10.426025390625 15.091024398803711 11.120621681213379 14.986931800842285 11.126500129699707 L14.986931800842285 11.126500129699707 M2.4382448196411133 11.374448776245117 C2.4233360290527344 11.626193046569824 1.6061553955078125 12.355116844177246 1.404616355895996 12.523398399353027 C0.8775873184204102 12.963469505310059 0.1659698486328125 12.94087028503418 0.11981487274169922 13.095269203186035 C0.08867168426513672 13.199361801147461 0.16916656494140625 13.26270866394043 0.2221822738647461 13.295124053955078 C0.5586881637573242 13.500984191894531 1.0265092849731445 13.407477378845215 1.3550386428833008 13.261524200439453 C1.5076398849487305 13.193726539611816 1.7288951873779297 13.031052589416504 1.8176794052124023 12.936789512634277 C1.9473686218261719 12.799182891845703 2.071749687194824 12.694047927856445 2.1987133026123047 12.53127384185791 C2.53402042388916 12.101361274719238 2.817751884460449 11.538064956665039 3.1301021575927734 11.10158920288086 C3.3203554153442383 10.835692405700684 3.5041732788085938 10.551119804382324 3.706751823425293 10.291271209716797 C3.862807273864746 10.091131210327148 3.6105775833129883 10.062097549438477 3.319185256958008 10.353605270385742 C3.1521596908569336 10.520715713500977 2.9692115783691406 10.681492805480957 2.826282501220703 10.872929573059082 C2.6099929809570312 11.162538528442383 2.393673896789551 10.75844955444336 2.393673896789551 10.482209205627441 C2.393673896789551 9.858020782470703 3.2946739196777344 9.39881706237793 3.9724645614624023 9.39881706237793 C4.458389759063721 9.39881706237793 4.956470966339111 9.629802703857422 4.956470966339111 10.10742473602295 C4.956470966339111 10.53822135925293 4.656460762023926 10.324984550476074 4.337618827819824 10.510329246520996 C4.058681011199951 10.67246150970459 4.047423839569092 11.046589851379395 4.46271276473999 10.974098205566406 C4.643306732177734 10.942567825317383 4.814184665679932 10.824892044067383 4.906393051147461 10.726377487182617 C5.044257164001465 10.770177841186523 5.19785737991333 10.921195983886719 5.255782127380371 11.053180694580078 C5.465081691741943 11.530317306518555 4.928578853607178 12.120122909545898 4.589305400848389 12.335942268371582 C4.317958354949951 12.50853157043457 3.898632049560547 12.645139694213867 3.52658748626709 12.50246810913086 C3.4184417724609375 12.460993766784668 3.395186424255371 12.43066120147705 3.318842887878418 12.372251510620117 C3.247121810913086 12.317394256591797 3.168337821960449 12.277175903320312 3.0537586212158203 12.293025970458984 C2.9066781997680664 12.313371658325195 2.7731943130493164 12.529033660888672 2.7731943130493164 12.712024688720703 C2.7731943130493164 13.204955101013184 3.224536895751953 13.470566749572754 3.691387176513672 13.470566749572754 C4.370161533355713 13.470566749572754 5.0826497077941895 12.966222763061523 5.464638710021973 12.4802827835083 C5.512391090393066 12.419533729553223 5.545790195465088 12.35537338256836 5.595297336578369 12.31116008758545 C5.660640716552734 12.2528076171875 5.904595375061035 12.145575523376465 6.004266262054443 12.101203918457031 C6.241842746734619 11.995428085327148 6.44132661819458 11.79544448852539 6.633533477783203 11.81091022491455 C6.7417073249816895 11.819613456726074 6.8222737312316895 11.81838607788086 6.889172554016113 11.874042510986328 C7.029590129852295 12.110007286071777 5.903397083282471 12.503623962402344 6.022128105163574 13.080645561218262 C6.061120510101318 13.2701416015625 6.185601234436035 13.400586128234863 6.408426284790039 13.400586128234863 C6.790715217590332 13.400586128234863 7.366309642791748 12.815461158752441 7.622975826263428 12.80196475982666 C7.595069408416748 12.96623706817627 7.4870381355285645 13.157032012939453 7.6256866455078125 13.312400817871094 C7.980625629425049 13.710169792175293 8.879528045654297 12.777667999267578 8.994436264038086 12.878279685974121 C8.996604919433594 12.882431983947754 8.999429702758789 12.884529113769531 8.999771118164062 12.891305923461914 C9.005834579467773 13.011606216430664 8.921844482421875 13.041582107543945 8.894765853881836 13.156532287597656 C8.856971740722656 13.317166328430176 8.96694278717041 13.349124908447266 9.106733322143555 13.349124908447266 C9.547330856323242 13.349124908447266 10.086088180541992 12.850172996520996 10.396783828735352 12.793404579162598 C10.418242454528809 12.934477806091309 10.066856384277344 13.355602264404297 10.473213195800781 13.328850746154785 C10.636871337890625 13.31806468963623 10.915166854858398 13.064152717590332 11.021371841430664 12.978035926818848 C11.142558097839355 12.87976360321045 11.962091445922852 12.147387504577637 12.107559204101562 12.393481254577637 C12.204719543457031 12.557896614074707 11.723987579345703 12.930283546447754 11.677048683166504 13.11223316192627 C11.639155387878418 13.259127616882324 11.749610900878906 13.315083503723145 11.87997055053711 13.315083503723145 C12.372272491455078 13.315083503723145 13.007904052734375 12.747621536254883 13.285457611083984 12.677983283996582 C13.372286796569824 12.832525253295898 13.184403419494629 12.945507049560547 13.313392639160156 13.170428276062012 C13.392788887023926 13.308876991271973 13.54054069519043 13.390028953552246 13.753791809082031 13.390028953552246 C14.310053825378418 13.390028953552246 14.95181941986084 12.946434020996094 15.337689399719238 12.590468406677246 C15.457704544067383 12.479741096496582 15.660326957702637 12.330249786376953 15.660326957702637 12.093670845031738 C15.660326957702637 11.84946060180664 15.436304092407227 11.659250259399414 15.177910804748535 11.659250259399414 C14.898160934448242 11.659250259399414 14.3668794631958 11.979476928710938 14.624189376831055 11.596531867980957 C14.805466651916504 11.326767921447754 14.804496765136719 11.411357879638672 15.335063934326172 11.257258415222168 C15.762208938598633 11.13320541381836 16.522321701049805 10.883729934692383 16.522321701049805 10.332261085510254 C16.522321701049805 10.090446472167969 16.229415893554688 9.906044006347656 15.964930534362793 9.906044006347656 C15.25742244720459 9.906044006347656 14.42081069946289 11.1221342086792 14.015792846679688 11.68099308013916 C13.885234832763672 11.86114501953125 13.767759323120117 12.063011169433594 13.628169059753418 12.230264663696289 C13.496269226074219 12.38830280303955 12.959837913513184 12.840899467468262 12.739967346191406 12.563632011413574 C12.562268257141113 12.33955192565918 12.990056037902832 12.087992668151855 12.869028091430664 11.872929573059082 C12.620779037475586 11.43175983428955 11.799617767333984 12.050185203552246 11.65855884552002 12.037558555603027 C11.678133010864258 11.952269554138184 11.726469993591309 11.877623558044434 11.659442901611328 11.790051460266113 C11.39612865447998 11.44589900970459 10.836084365844727 12.028056144714355 10.652494430541992 12.1961669921875 C10.606996536254883 12.237826347351074 10.532835960388184 12.294966697692871 10.477023124694824 12.339308738708496 C10.413419723510742 12.389842987060547 10.359189987182617 12.42679500579834 10.284244537353516 12.483978271484375 C10.175129890441895 12.567227363586426 9.984976768493652 12.728474617004395 9.856215476989746 12.562105178833008 C9.83572769165039 12.419533729553223 10.01917552947998 12.242106437683105 10.090581893920898 12.140924453735352 C10.367778778076172 11.748034477233887 9.919647216796875 11.62950325012207 9.541881561279297 11.929014205932617 L9.204319953918457 12.210219383239746 C9.150177001953125 12.252564430236816 9.093193054199219 12.305082321166992 9.042359352111816 12.348397254943848 C8.980453491210938 12.401128768920898 8.949223518371582 12.430476188659668 8.882695198059082 12.487645149230957 C8.783352851867676 12.573019027709961 8.613131523132324 12.716276168823242 8.507055282592773 12.543357849121094 C8.43503475189209 12.32526969909668 8.968084335327148 12.059743881225586 8.769071578979492 11.831939697265625 C8.623603820800781 11.665456771850586 8.415887832641602 11.81626033782959 8.299468040466309 11.942424774169922 C8.142871856689453 12.112104415893555 7.933414936065674 12.368542671203613 7.751422882080078 12.499600410461426 C7.385841369628906 12.76291561126709 6.738583087921143 12.569281578063965 7.155426979064941 12.12838363647461 C7.217674255371094 12.062540054321289 7.27220344543457 12.015644073486328 7.339216232299805 11.956449508666992 C7.411579608917236 11.892532348632812 7.4726996421813965 11.802392959594727 7.361486911773682 11.721540451049805 C7.203135967254639 11.606432914733887 6.917906761169434 11.690923690795898 6.746886253356934 11.608816146850586 C6.741564750671387 11.47023868560791 6.890870571136475 11.30478286743164 6.890870571136475 11.081744194030762 C6.890870571136475 10.910381317138672 6.845871925354004 10.752928733825684 6.697565078735352 10.717588424682617 C6.455294132232666 10.659849166870117 6.2080583572387695 11.102031707763672 6.179052829742432 11.300802230834961 C6.147280216217041 11.518575668334961 6.244867324829102 11.618460655212402 6.2415289878845215 11.799182891845703 C6.114836692810059 11.868721008300781 5.893095970153809 11.99304485321045 5.693413257598877 11.963055610656738 C5.621135711669922 11.730671882629395 5.860795497894287 11.013504028320312 5.34385347366333 10.66612720489502 C5.263615131378174 10.612239837646484 5.139832973480225 10.580309867858887 5.089555740356445 10.52619457244873 C5.0654296875 10.484591484069824 5.16695499420166 10.096181869506836 5.16695499420166 9.95744800567627 C5.16695499420166 9.443031311035156 4.512705326080322 9.09548282623291 3.953702926635742 9.09548282623291 L3.7850656509399414 9.09548282623291 C3.0197744369506836 9.09548282623291 2.3219385147094727 9.454330444335938 1.9816522598266602 9.840714454650879 C1.8864192962646484 9.948830604553223 1.7955513000488281 10.060442924499512 1.739267349243164 10.236014366149902 C1.6844959259033203 10.406864166259766 1.685908317565918 10.62901782989502 1.7472715377807617 10.796243667602539 C1.8454151153564453 11.063724517822266 2.197628974914551 11.234972953796387 2.4382591247558594 11.374363899230957 L2.4382448196411133 11.374448776245117 M21.973663330078125 11.971644401550293 C22.099456787109375 11.959060668945312 22.233924865722656 12.003003120422363 22.291406631469727 12.08194351196289 C22.44268035888672 12.289688110351562 21.983863830566406 12.727461814880371 21.678348541259766 12.746722221374512 C21.41832733154297 12.763114929199219 21.228103637695312 12.518518447875977 21.40074920654297 12.282511711120605 C21.50263214111328 12.143278121948242 21.710704803466797 11.997939109802246 21.973648071289062 11.971644401550293 L21.973663330078125 11.971644401550293 M16.673967361450195 12.431589126586914 C16.552425384521484 12.109036445617676 17.186086654663086 11.71082592010498 17.449615478515625 11.901577949523926 C17.53367805480957 11.962441444396973 17.556447982788086 12.073569297790527 17.47191619873047 12.15788745880127 C17.29210662841797 12.337311744689941 16.950979232788086 12.47083854675293 16.673967361450195 12.43160343170166 L16.673967361450195 12.431589126586914 M16.583826065063477 12.768265724182129 C16.68406867980957 12.58480453491211 17.193777084350586 12.71059799194336 17.676563262939453 12.419191360473633 C18.00827407836914 12.218979835510254 18.14725112915039 11.711054801940918 17.601959228515625 11.617362022399902 C17.172590255737305 11.543558120727539 16.308212280273438 11.92650318145752 16.029590606689453 12.195509910583496 C15.756046295166016 12.459609985351562 15.485897064208984 12.732355117797852 15.869483947753906 13.107396125793457 C16.430797576904297 13.656182289123535 17.432151794433594 13.271397590637207 17.984434127807617 12.839173316955566 C18.30550193786621 12.587871551513672 18.457134246826172 12.416765213012695 18.71872329711914 12.111862182617188 C18.800159454345703 12.016942024230957 18.778087615966797 11.994471549987793 18.963119506835938 11.994457244873047 C19.09239387512207 11.994457244873047 19.174259185791016 12.020723342895508 19.22532081604004 12.112418174743652 C19.16960906982422 12.26278018951416 18.853862762451172 12.450892448425293 18.735244750976562 12.6524019241333 C18.315048217773438 13.366316795349121 19.419170379638672 13.64860725402832 20.0338134765625 12.920510292053223 C20.085603713989258 12.859161376953125 20.22479248046875 12.691123008728027 20.321880340576172 12.702322959899902 C20.40553092956543 12.923592567443848 20.22385025024414 12.990562438964844 20.467178344726562 13.213273048400879 C20.61203384399414 13.345843315124512 20.753833770751953 13.359525680541992 21.00012969970703 13.324884414672852 C21.32952880859375 13.278531074523926 21.434049606323242 13.158044815063477 21.645889282226562 12.9966402053833 C21.73224639892578 12.930853843688965 21.753292083740234 12.879535675048828 21.84809684753418 12.860189437866211 C21.86444854736328 13.082984924316406 21.25048828125 14.022806167602539 20.733375549316406 14.220178604125977 C20.486696243286133 14.31434154510498 20.283302307128906 14.28162670135498 20.01114273071289 14.249796867370605 C20.031402587890625 14.144448280334473 20.08466148376465 14.042709350585938 20.066455841064453 13.930055618286133 C19.862178802490234 13.721712112426758 19.516942977905273 14.051411628723145 19.708765029907227 14.289459228515625 C20.08192253112793 14.752486228942871 20.996917724609375 14.574517250061035 21.482616424560547 14.23836898803711 C21.62413215637207 14.1404390335083 22.130558013916016 13.685815811157227 22.232627868652344 13.565044403076172 L22.44915771484375 13.312429428100586 C22.623790740966797 13.111462593078613 22.90351104736328 12.703421592712402 23.04345703125 12.464218139648438 C23.141529083251953 12.296578407287598 23.323678970336914 11.99470043182373 23.209585189819336 11.763671875 C23.069894790649414 11.48081111907959 22.639854431152344 11.796114921569824 22.514446258544922 11.74854850769043 C22.488536834716797 11.738703727722168 22.411394119262695 11.667539596557617 22.387466430664062 11.648492813110352 C21.61508560180664 11.033392906188965 20.72793960571289 12.293396949768066 20.096702575683594 12.608416557312012 C19.710290908813477 12.801251411437988 19.503644943237305 12.563261032104492 19.60367202758789 12.321817398071289 C19.730022430419922 12.016857147216797 20.02005958557129 11.880990982055664 19.863605499267578 11.737234115600586 C19.672468185424805 11.561619758605957 19.29911231994629 11.77694034576416 19.054914474487305 11.73831844329834 C19.055742263793945 11.568367958068848 19.249134063720703 11.4227294921875 19.224123001098633 11.11966609954834 C19.183490753173828 10.628105163574219 18.59157371520996 10.889436721801758 18.456392288208008 11.400886535644531 C18.356779098510742 11.777795791625977 18.656545639038086 11.847220420837402 18.530197143554688 12.016857147216797 C18.418357849121094 12.166961669921875 17.892555236816406 12.651945114135742 17.70967674255371 12.788995742797852 C17.459102630615234 12.976765632629395 17.126991271972656 13.081629753112793 16.80354118347168 12.960430145263672 C16.710376739501953 12.925518035888672 16.600833892822266 12.860702514648438 16.583812713623047 12.768294334411621 L16.583826065063477 12.768265724182129" fill="black" fill-opacity="1.0" filling="0"/>
<path animation_id="2" d="M21.973663330078125 11.971644401550293 C21.710718154907227 11.9979248046875 21.502647399902344 12.143263816833496 21.40076446533203 12.282511711120605 C21.228103637695312 12.51850414276123 21.41832733154297 12.763114929199219 21.678359985351562 12.746722221374512 C21.983890533447266 12.727461814880371 22.44269561767578 12.289688110351562 22.29142189025879 12.08194351196289 C22.233924865722656 12.003003120422363 22.099456787109375 11.959060668945312 21.973678588867188 11.971644401550293 L21.973663330078125 11.971644401550293 M14.456192970275879 12.18502426147461 C13.766460418701172 12.362407684326172 13.749369621276855 13.129681587219238 14.303049087524414 12.924291610717773 C14.915324211120605 12.697172164916992 15.097087860107422 12.020209312438965 14.456192970275879 12.18502426147461 M14.986946105957031 11.126500129699707 C15.091038703918457 11.120621681213379 16.516956329345703 10.426025390625 16.172603607177734 10.143292427062988 C16.033626556396484 10.029183387756348 15.88629150390625 10.11822509765625 15.779401779174805 10.203128814697266 C15.578391075134277 10.362835884094238 15.020486831665039 10.893702507019043 14.986946105957031 11.126500129699707 M16.673967361450195 12.431589126586914 C16.950979232788086 12.470824241638184 17.29210662841797 12.337311744689941 17.47191619873047 12.157873153686523 C17.556432723999023 12.073554992675781 17.53367805480957 11.962427139282227 17.449615478515625 11.90156364440918 C17.186086654663086 11.710811614990234 16.552425384521484 12.109036445617676 16.673967361450195 12.431574821472168 L16.673967361450195 12.431589126586914" fill="black" fill-opacity="1.0" filling="0"/></svg>