<?xml version="1.0" encoding="iso-8859-1"?><svg height="200px" viewBox="0.0 0.0 24.0 24.0" width="200px" xmlns="http://www.w3.org/2000/svg"><path animation_id="0" d="M0.0 0.0 L24.0 0.0 L24.0 24.0 L0.0 24.0 L0.0 0.0" fill="black" fill-opacity="1.0" filling="0"/>
<path animation_id="1" d="M1.6018180847167969 11.44169807434082 L1.8271808624267578 11.44169807434082 C2.134469985961914 11.44169807434082 2.400796890258789 11.779742240905762 2.400796890258789 12.169084548950195 C2.400796890258789 12.589056015014648 2.1446800231933594 12.906681060791016 1.8168468475341797 12.906681060791016 L1.6016931533813477 12.906681060791016 L1.6016931533813477 11.44169807434082 L1.6018180847167969 11.44169807434082 L1.6018180847167969 11.44169807434082 M1.8783540725708008 13.050114631652832 C2.1446800231933594 13.050114631652832 2.3290796279907227 12.978397369384766 2.4930591583251953 12.814417839050293 C2.677457809448242 12.64035415649414 2.7799291610717773 12.41499137878418 2.7799291610717773 12.169084548950195 C2.7799291610717773 11.677270889282227 2.380377769470215 11.298262596130371 1.888688087463379 11.298262596130371 L1.0588302612304688 11.298262596130371 L1.0588302612304688 11.410944938659668 L1.2534399032592773 11.410944938659668 L1.2534399032592773 12.937309265136719 L1.0588302612304688 12.937309265136719 L1.0588302612304688 13.0499906539917 L1.8783540725708008 13.0499906539917 L1.8783540725708008 13.050114631652832 L1.8783540725708008 13.050114631652832 M4.531656742095947 13.0808687210083 L4.347382545471191 13.0808687210083 L3.415053367614746 11.779742240905762 L3.415053367614746 12.937309265136719 L3.6302061080932617 12.937309265136719 L3.6302061080932617 13.050114631652832 L3.025712013244629 13.050114631652832 L3.025712013244629 12.937309265136719 L3.2511987686157227 12.937309265136719 L3.2511987686157227 11.544170379638672 L3.169271469116211 11.410944938659668 L2.9745378494262695 11.410944938659668 L2.9745378494262695 11.298262596130371 L3.496980667114258 11.298262596130371 L4.3575921058654785 12.517337799072266 L4.3575921058654785 11.410944938659668 L4.152649402618408 11.410944938659668 L4.152649402618408 11.298262596130371 L4.746933937072754 11.298262596130371 L4.746933937072754 11.410944938659668 L4.531656742095947 11.410944938659668 L4.531656742095947 13.0808687210083 L4.531656742095947 13.0808687210083 M7.1235761642456055 13.050114631652832 L6.334681987762451 13.050114631652832 L6.334681987762451 12.937309265136719 L6.549835205078125 12.937309265136719 L6.549835205078125 11.789952278137207 L5.966009140014648 13.070659637451172 L5.3307600021362305 11.81049633026123 L5.3307600021362305 12.937309265136719 L5.556247234344482 12.937309265136719 L5.556247234344482 13.050114631652832 L4.941542625427246 13.050114631652832 L4.941542625427246 12.937309265136719 L5.166905403137207 12.937309265136719 L5.166905403137207 11.410944938659668 L4.941542625427246 11.410944938659668 L4.941542625427246 11.298262596130371 L5.4126877784729 11.298262596130371 L6.037726879119873 12.527671813964844 L6.59092378616333 11.298262596130371 L7.1235761642456055 11.298262596130371 L7.1235761642456055 11.410944938659668 L6.8982133865356445 11.410944938659668 L6.8982133865356445 12.937309265136719 L7.1235761642456055 12.937309265136719 L7.1235761642456055 13.050114631652832 L7.1235761642456055 13.050114631652832" fill="black" fill-opacity="1.0" filling="0"/>
<path animation_id="2" d="M9.469589233398438 13.050114631652832 L8.824254989624023 13.050114631652832 L8.824254989624023 12.947643280029297 L9.049492835998535 12.947643280029297 L9.049492835998535 11.933512687683105 L8.66027545928955 11.933512687683105 L8.66027545928955 12.076823234558105 L8.557804107666016 12.076823234558105 L8.557804107666016 11.769533157348633 L8.66027545928955 11.769533157348633 L8.66027545928955 11.820706367492676 L9.633567810058594 11.820706367492676 L9.633567810058594 11.769533157348633 L9.735915184020996 11.769533157348633 L9.735915184020996 12.076823234558105 L9.633567810058594 12.076823234558105 L9.633567810058594 11.933512687683105 L9.244226455688477 11.933512687683105 L9.244226455688477 12.947643280029297 L9.469589233398438 12.947643280029297 L9.469589233398438 13.050114631652832 L9.469589233398438 13.050114631652832 M10.862853050231934 13.050114631652832 L9.910104751586914 13.050114631652832 L9.910104751586914 12.947643280029297 L10.115047454833984 12.947643280029297 L10.115047454833984 11.923177719116211 L9.910104751586914 11.923177719116211 L9.910104751586914 11.820706367492676 L10.750170707702637 11.820706367492676 L10.750170707702637 11.769533157348633 L10.842432975769043 11.769533157348633 L10.842432975769043 12.06661319732666 L10.750170707702637 12.06661319732666 L10.750170707702637 11.933512687683105 L10.309656143188477 11.933512687683105 L10.309656143188477 12.374028205871582 L10.647699356079102 12.374028205871582 L10.647699356079102 12.240801811218262 L10.750170707702637 12.240801811218262 L10.750170707702637 12.609476089477539 L10.647699356079102 12.609476089477539 L10.647699356079102 12.476374626159668 L10.309656143188477 12.476374626159668 L10.309656143188477 12.937309265136719 L10.760380744934082 12.937309265136719 L10.760380744934082 12.804208755493164 L10.862853050231934 12.804208755493164 L10.862853050231934 13.050114631652832 M12.266450881958008 12.998817443847656 C12.112805366516113 13.060324668884277 12.010334014892578 13.080744743347168 11.836145401000977 13.080744743347168 C11.436593055725098 13.080744743347168 11.149724006652832 12.81429386138916 11.149724006652832 12.435286521911621 C11.149724006652832 12.056279182434082 11.436593055725098 11.789828300476074 11.85656452178955 11.789828300476074 C11.969245910644531 11.789828300476074 12.040839195251465 11.810372352600098 12.163979530334473 11.87175464630127 L12.163979530334473 11.789828300476074 L12.266325950622559 11.789828300476074 L12.266325950622559 12.09724235534668 L12.163979530334473 12.09724235534668 L12.163979530334473 12.015315055847168 C12.05117416381836 11.933387756347656 11.969245910644531 11.902633666992188 11.846354484558105 11.902633666992188 C11.579903602600098 11.902633666992188 11.375085830688477 12.117786407470703 11.375085830688477 12.41486644744873 C11.375085830688477 12.732366561889648 11.60057258605957 12.967939376831055 11.88731861114502 12.967939376831055 C11.979455947875977 12.967939376831055 12.040839195251465 12.947519302368164 12.163979530334473 12.886012077331543 L12.163979530334473 12.752910614013672 L12.266325950622559 12.752910614013672 L12.266325950622559 12.998817443847656 L12.266450881958008 12.998817443847656 M14.079562187194824 13.050114631652832 L13.475316047668457 13.050114631652832 L13.475316047668457 12.947643280029297 L13.680010795593262 12.947643280029297 L13.680010795593262 12.476374626159668 L12.952624320983887 12.476374626159668 L12.952624320983887 12.947643280029297 L13.147481918334961 12.947643280029297 L13.147481918334961 13.050114631652832 L12.553071975708008 13.050114631652832 L12.553071975708008 12.947643280029297 L12.747930526733398 12.947643280029297 L12.747930526733398 11.923177719116211 L12.553071975708008 11.923177719116211 L12.553071975708008 11.820706367492676 L13.147481918334961 11.820706367492676 L13.147481918334961 11.923177719116211 L12.952624320983887 11.923177719116211 L12.952624320983887 12.374028205871582 L13.680010795593262 12.374028205871582 L13.680010795593262 11.923177719116211 L13.475316047668457 11.923177719116211 L13.475316047668457 11.820706367492676 L14.079562187194824 11.820706367492676 L14.079562187194824 11.923177719116211 L13.885077476501465 11.923177719116211 L13.885077476501465 12.947643280029297 L14.079562187194824 12.947643280029297 L14.079562187194824 13.050114631652832 M15.647139549255371 13.070659637451172 L15.56521224975586 13.070659637451172 L14.796737670898438 12.169084548950195 L14.796737670898438 12.947643280029297 L15.001681327819824 12.947643280029297 L15.001681327819824 13.050114631652832 L14.458694458007812 13.050114631652832 L14.458694458007812 12.947643280029297 L14.663637161254883 12.947643280029297 L14.663637161254883 11.994894981384277 L14.61233901977539 11.933512687683105 L14.428064346313477 11.933512687683105 L14.428064346313477 11.820706367492676 L14.766109466552734 11.820706367492676 L15.513914108276367 12.691527366638184 L15.513914108276367 11.933512687683105 L15.30909538269043 11.933512687683105 L15.30909538269043 11.820706367492676 L15.84162425994873 11.820706367492676 L15.84162425994873 11.933512687683105 L15.647139549255371 11.933512687683105 L15.647139549255371 13.070659637451172 M16.753408432006836 11.90275764465332 C16.968685150146484 11.90275764465332 17.15296173095703 12.13845443725586 17.15296173095703 12.435410499572754 C17.15296173095703 12.732366561889648 16.97889518737793 12.968063354492188 16.753408432006836 12.968063354492188 C16.52817153930664 12.968063354492188 16.35385513305664 12.732366561889648 16.35385513305664 12.435410499572754 C16.35385513305664 12.13845443725586 16.52817153930664 11.90275764465332 16.753408432006836 11.90275764465332 M16.753408432006836 13.0808687210083 C17.09170150756836 13.0808687210083 17.378446578979492 12.783788681030273 17.378446578979492 12.435410499572754 C17.378446578979492 12.087157249450684 17.09170150756836 11.789952278137207 16.753408432006836 11.789952278137207 C16.415363311767578 11.789952278137207 16.118160247802734 12.087157249450684 16.118160247802734 12.435410499572754 C16.118160247802734 12.783788681030273 16.415363311767578 13.0808687210083 16.753408432006836 13.0808687210083 M18.628276824951172 13.050114631652832 L17.68573760986328 13.050114631652832 L17.68573760986328 12.947643280029297 L17.89068031311035 12.947643280029297 L17.89068031311035 11.933512687683105 L17.68573760986328 11.933512687683105 L17.68573760986328 11.820706367492676 L18.289981842041016 11.820706367492676 L18.289981842041016 11.933512687683105 L18.085289001464844 11.933512687683105 L18.085289001464844 12.937309265136719 L18.535890579223633 12.937309265136719 L18.535890579223633 12.783788681030273 L18.628276824951172 12.783788681030273 L18.628276824951172 13.050114631652832 M19.416921615600586 11.90275764465332 C19.64240837097168 11.90275764465332 19.81647300720215 12.13845443725586 19.81647300720215 12.435410499572754 C19.81647300720215 12.732366561889648 19.64240837097168 12.968063354492188 19.416921615600586 12.968063354492188 C19.191682815551758 12.968063354492188 19.017620086669922 12.732366561889648 19.017620086669922 12.435410499572754 C19.017620086669922 12.13845443725586 19.191808700561523 11.90275764465332 19.416921615600586 11.90275764465332 M19.416921615600586 13.0808687210083 C19.75521469116211 13.0808687210083 20.041959762573242 12.783788681030273 20.041959762573242 12.435410499572754 C20.041959762573242 12.087157249450684 19.75521469116211 11.789952278137207 19.416921615600586 11.789952278137207 C19.078876495361328 11.789952278137207 18.792131423950195 12.087157249450684 18.792131423950195 12.435410499572754 C18.792255401611328 12.783788681030273 19.078876495361328 13.0808687210083 19.416921615600586 13.0808687210083 M21.455768585205078 12.998817443847656 C21.26103401184082 13.060324668884277 21.148353576660156 13.080744743347168 21.004919052124023 13.080744743347168 C20.60536766052246 13.080744743347168 20.308162689208984 12.81429386138916 20.308162689208984 12.435286521911621 C20.308162689208984 12.066488265991211 20.60536766052246 11.789828300476074 20.994709014892578 11.789828300476074 C21.09705352783203 11.789828300476074 21.17898178100586 11.810372352600098 21.332752227783203 11.86154556274414 L21.332752227783203 11.789828300476074 L21.424890518188477 11.789828300476074 L21.424890518188477 12.09724235534668 L21.332752227783203 12.09724235534668 L21.332752227783203 11.974350929260254 C21.20998764038086 11.923053741455078 21.127933502197266 11.892423629760742 21.025339126586914 11.892423629760742 C20.748802185058594 11.892423629760742 20.54385757446289 12.117786407470703 20.54385757446289 12.41486644744873 C20.54385757446289 12.742701530456543 20.759136199951172 12.978148460388184 21.076635360717773 12.978148460388184 C21.127933502197266 12.978148460388184 21.168773651123047 12.967939376831055 21.250701904296875 12.947519302368164 L21.250701904296875 12.640104293823242 L21.056217193603516 12.640104293823242 L21.056217193603516 12.547967910766602 L21.650253295898438 12.547967910766602 L21.650253295898438 12.640104293823242 L21.455768585205078 12.640104293823242 L21.455768585205078 12.998817443847656 L21.455768585205078 12.998817443847656 M22.664634704589844 13.050114631652832 L22.060138702392578 13.050114631652832 L22.060138702392578 12.947643280029297 L22.26508331298828 12.947643280029297 L22.26508331298828 12.486584663391113 L21.885948181152344 11.933512687683105 L21.742515563964844 11.933512687683105 L21.742515563964844 11.820706367492676 L22.223995208740234 11.820706367492676 L22.223995208740234 11.933512687683105 L22.111434936523438 11.933512687683105 L22.418851852416992 12.374028205871582 L22.695262908935547 11.933512687683105 L22.55182647705078 11.933512687683105 L22.55182647705078 11.820706367492676 L22.94116973876953 11.820706367492676 L22.94116973876953 11.933512687683105 L22.807945251464844 11.933512687683105 L22.45969009399414 12.496918678283691 L22.45969009399414 12.947643280029297 L22.664634704589844 12.947643280029297 L22.664634704589844 13.050114631652832 L22.664634704589844 13.050114631652832" fill="black" fill-opacity="1.0" filling="0"/>
<path animation_id="3" d="M7.840752124786377 14.607234001159668 L7.840752124786377 9.392766952514648 L7.922679901123047 9.392766952514648 L7.922679901123047 14.607234001159668 L7.840752124786377 14.607234001159668 L7.840752124786377 14.607234001159668" fill="black" fill-opacity="1.0" filling="0"/></svg>