<?xml version="1.0" encoding="iso-8859-1"?><svg height="200px" viewBox="0.0 0.0 24.0 24.0" width="200px" xmlns="http://www.w3.org/2000/svg"><path animation_id="0" d="M11.158761024475098 14.527139663696289 C11.158761024475098 14.52420425415039 11.207698822021484 14.44394588470459 11.267402648925781 14.349006652832031 L11.375064849853516 14.176746368408203 L11.29578685760498 14.172831535339355 L11.216507911682129 14.168916702270508 L11.271317481994629 14.080828666687012 L11.326128005981445 13.992740631103516 L12.04257583618164 13.992740631103516 L11.985807418823242 14.082786560058594 L11.92903995513916 14.172831535339355 L11.584518432617188 14.172831535339355 L11.531665802001953 14.257983207702637 C11.502303123474121 14.304963111877441 11.478814125061035 14.345091819763184 11.478814125061035 14.348028182983398 C11.478814125061035 14.350964546203613 11.5923490524292 14.352922439575195 11.73231029510498 14.352922439575195 L11.985807418823242 14.352922439575195 L12.207984924316406 13.996655464172363 C12.380245208740234 13.719669342041016 12.43211841583252 13.64234733581543 12.438970565795898 13.650177001953125 C12.443863868713379 13.655071258544922 12.570123672485352 13.85571575164795 12.718893051147461 14.094531059265137 L12.990007400512695 14.529097557067871 L12.89409065246582 14.531054496765137 C12.841238021850586 14.532033920288086 12.794257164001465 14.532033920288086 12.789362907409668 14.530076026916504 C12.784469604492188 14.528118133544922 12.756086349487305 14.48798942565918 12.726723670959473 14.440031051635742 L12.672892570495605 14.352922439575195 L12.509440422058105 14.352922439575195 C12.419395446777344 14.352922439575195 12.346967697143555 14.34998607635498 12.34892463684082 14.346071243286133 C12.34990406036377 14.342155456542969 12.374373435974121 14.302026748657227 12.402755737304688 14.256025314331055 L12.453651428222656 14.172831535339355 L12.505524635314941 14.170873641967773 L12.55739974975586 14.168916702270508 L12.497695922851562 14.072998046875 C12.464417457580566 14.020145416259766 12.435054779052734 13.977081298828125 12.43211841583252 13.977081298828125 C12.429183006286621 13.977081298828125 12.34892463684082 14.102360725402832 12.253006935119629 14.255046844482422 L12.079767227172852 14.533012390136719 L11.618775367736816 14.533012390136719 C11.366257667541504 14.533012390136719 11.158761024475098 14.530076026916504 11.158761024475098 14.527139663696289 L11.158761024475098 14.527139663696289 M0.0 13.793075561523438 L0.0 13.632559776306152 L5.500590801239014 13.632559776306152 C8.52591609954834 13.632559776306152 11.001182556152344 13.635496139526367 11.000204086303711 13.638432502746582 C11.000204086303711 13.641368865966797 10.956159591674805 13.712817192077637 10.904285430908203 13.796990394592285 L10.808368682861328 13.949675559997559 L5.4046735763549805 13.95163345336914 L0.0009784698486328125 13.953590393066406 L0.0 13.793075561523438 M13.109416007995605 13.802863121032715 C13.058520317077637 13.719669342041016 13.013498306274414 13.64822006225586 13.0105619430542 13.64234733581543 C13.006647109985352 13.634517669677734 14.106765747070312 13.632559776306152 18.502344131469727 13.632559776306152 L23.999019622802734 13.632559776306152 L23.999019622802734 13.953590393066406 L13.203375816345215 13.953590393066406 L13.109416007995605 13.802863121032715 M11.444558143615723 13.802863121032715 C11.447493553161621 13.796990394592285 11.472940444946289 13.756861686706543 11.500346183776855 13.712817192077637 L11.550262451171875 13.632559776306152 L12.284326553344727 13.632559776306152 L12.2441987991333 13.69715690612793 C12.221686363220215 13.732392311096191 12.19721794128418 13.773500442504883 12.188409805297852 13.787202835083008 L12.173728942871094 13.812650680541992 L11.805716514587402 13.812650680541992 C11.515027046203613 13.812650680541992 11.440642356872559 13.81069278717041 11.444558143615723 13.802863121032715 L11.444558143615723 13.802863121032715 M15.411442756652832 13.127523422241211 C15.203947067260742 13.096202850341797 15.017984390258789 13.018881797790527 14.874107360839844 12.904367446899414 C14.610823631286621 12.694914817810059 14.460095405578613 12.367032051086426 14.461073875427246 12.003914833068848 C14.462052345275879 11.729864120483398 14.549161911010742 11.478324890136719 14.716527938842773 11.269850730895996 C14.944578170776367 10.986011505126953 15.336078643798828 10.840177536010742 15.774559020996094 10.875412940979004 C16.102441787719727 10.901839256286621 16.35789680480957 11.00754451751709 16.541902542114258 11.194486618041992 C16.88544464111328 11.542922019958496 16.922637939453125 12.194771766662598 16.626073837280273 12.641082763671875 C16.46360206604004 12.88479232788086 16.208147048950195 13.052159309387207 15.896903991699219 13.1167573928833 C15.796092987060547 13.138289451599121 15.519104957580566 13.14416217803955 15.411442756652832 13.127523422241211 L15.411442756652832 13.127523422241211 M15.914522171020508 12.979731559753418 C15.939969062805176 12.972880363464355 15.994778633117676 12.950368881225586 16.035886764526367 12.929815292358398 C16.162147521972656 12.867175102233887 16.268829345703125 12.745809555053711 16.33342742919922 12.593124389648438 C16.427387237548828 12.368989944458008 16.44892120361328 11.97259521484375 16.380407333374023 11.706374168395996 C16.293298721313477 11.363810539245605 16.080909729003906 11.124015808105469 15.788262367248535 11.035928726196289 C15.694302558898926 11.00754451751709 15.516169548034668 11.000693321228027 15.417314529418945 11.020268440246582 C15.11488151550293 11.081930160522461 14.930874824523926 11.297255516052246 14.873128890991211 11.659394264221191 C14.855511665344238 11.77097225189209 14.849637985229492 11.938338279724121 14.860404968261719 12.050895690917969 C14.887809753417969 12.343542098999023 14.988621711730957 12.585293769836426 15.153051376342773 12.754618644714355 C15.269523620605469 12.87402629852295 15.402633666992188 12.947432518005371 15.565107345581055 12.982667922973633 C15.658088684082031 13.002243041992188 15.838178634643555 13.000285148620605 15.914522171020508 12.979731559753418 L15.914522171020508 12.979731559753418 M18.932994842529297 13.126544952392578 C18.89776039123535 13.110884666442871 17.808408737182617 12.020553588867188 17.523591995239258 11.71518325805664 L17.31609535217285 11.493005752563477 L17.314138412475586 11.54683780670166 C17.310222625732422 11.633946418762207 17.343502044677734 12.792789459228516 17.35133171081543 12.848578453063965 C17.367969512939453 12.966029167175293 17.398311614990234 13.01986026763916 17.457035064697266 13.0364990234375 C17.473674774169922 13.041393280029297 17.520654678344727 13.047266006469727 17.56078338623047 13.050201416015625 L17.633211135864258 13.055095672607422 L17.633211135864258 13.100118637084961 L16.85803985595703 13.100118637084961 L16.85803985595703 13.076627731323242 C16.85803985595703 13.054117202758789 16.859018325805664 13.05313777923584 16.895231246948242 13.05313777923584 C16.953956604003906 13.05313777923584 17.02442741394043 13.039435386657715 17.04595947265625 13.022796630859375 C17.07630157470703 13.000285148620605 17.091960906982422 12.957220077514648 17.10076904296875 12.875004768371582 C17.11251449584961 12.763427734375 17.133068084716797 11.325639724731445 17.123281478881836 11.247339248657227 C17.10272789001465 11.064311981201172 17.04595947265625 10.998735427856445 16.888381958007812 10.976224899291992 L16.825740814208984 10.967415809631348 L16.825740814208984 10.908690452575684 L17.025405883789062 10.908690452575684 C17.22115707397461 10.908690452575684 17.22507095336914 10.908690452575684 17.243667602539062 10.926307678222656 C17.25443458557129 10.936095237731934 17.33958625793457 11.025161743164062 17.43354606628418 11.124015808105469 C17.527507781982422 11.222869873046875 17.74576759338379 11.447004318237305 17.918027877807617 11.621222496032715 C18.25178337097168 11.958891868591309 18.363361358642578 12.074385643005371 18.641326904296875 12.363117218017578 C18.737245559692383 12.462949752807617 18.819461822509766 12.545165061950684 18.82435417175293 12.545165061950684 C18.833162307739258 12.545165061950684 18.831205368041992 12.406182289123535 18.810651779174805 11.566411972045898 C18.798906326293945 11.088781356811523 18.795970916748047 11.059418678283691 18.75486183166504 11.015374183654785 C18.722564697265625 10.98013973236084 18.690265655517578 10.96937370300293 18.61294174194336 10.965457916259766 L18.540515899658203 10.961543083190918 L18.540515899658203 10.908690452575684 L19.276538848876953 10.908690452575684 L19.276538848876953 10.9635009765625 L19.218791961669922 10.9635009765625 C19.123851776123047 10.9635009765625 19.083724975585938 10.98503303527832 19.055339813232422 11.049631118774414 C19.034786224365234 11.095632553100586 19.03087043762207 11.20916748046875 19.014232635498047 12.247624397277832 C19.007381439208984 12.689042091369629 18.999549865722656 13.0648832321167 18.99759292602539 13.083479881286621 C18.99367904663086 13.113821029663086 18.978017807006836 13.141225814819336 18.96431541442871 13.140247344970703 C18.963336944580078 13.139267921447754 18.94865608215332 13.13339614868164 18.932994842529297 13.126544952392578 L18.932994842529297 13.126544952392578 M0.016637802124023438 13.077607154846191 C0.016637802124023438 13.055095672607422 0.016637802124023438 13.055095672607422 0.07732200622558594 13.049222946166992 C0.2182626724243164 13.0364990234375 0.2251129150390625 13.016923904418945 0.23685741424560547 12.579421997070312 C0.2466449737548828 12.231964111328125 0.23979473114013672 11.143590927124023 0.22805023193359375 11.083887100219727 C0.2123889923095703 11.006566047668457 0.1634511947631836 10.971330642700195 0.06361865997314453 10.964479446411133 L0.0009784698486328125 10.960564613342285 L0.0009784698486328125 10.90771198272705 L0.37877655029296875 10.90771198272705 C0.9014310836791992 10.90771198272705 1.0041999816894531 10.918478012084961 1.1441621780395508 10.987969398498535 C1.2596540451049805 11.044736862182617 1.3399124145507812 11.144570350646973 1.3634033203125 11.258105278015137 C1.3780841827392578 11.327596664428711 1.3692750930786133 11.447983741760254 1.3448066711425781 11.517475128173828 C1.3125076293945312 11.608498573303223 1.2792291641235352 11.65743637084961 1.1764602661132812 11.760205268859863 C1.0903310775756836 11.847314834594727 1.0825004577636719 11.857102394104004 1.0981597900390625 11.861017227172852 C1.1079473495483398 11.863953590393066 1.1568851470947266 11.886465072631836 1.2058229446411133 11.910933494567871 C1.4015731811523438 12.009787559509277 1.5278329849243164 12.147791862487793 1.5826425552368164 12.324946403503418 C1.6061334609985352 12.400309562683105 1.6080913543701172 12.54418659210205 1.5875368118286133 12.62248706817627 C1.5190238952636719 12.875984191894531 1.3125076293945312 13.041393280029297 1.0022430419921875 13.088373184204102 C0.9435176849365234 13.097182273864746 0.831939697265625 13.100118637084961 0.4717578887939453 13.100118637084961 L0.015659332275390625 13.100118637084961 L0.016637802124023438 13.077607154846191 M0.9807100296020508 12.973858833312988 C1.1745033264160156 12.933730125427246 1.2733573913574219 12.767342567443848 1.2469310760498047 12.528526306152344 C1.2214841842651367 12.300477027893066 1.113821029663086 12.118429183959961 0.9425392150878906 12.015660285949707 C0.8877286911010742 11.982382774353027 0.8153018951416016 11.965744018554688 0.6939363479614258 11.959871292114258 C0.5989961624145508 11.954977035522461 0.5970392227172852 11.954977035522461 0.5872516632080078 11.97259521484375 C0.5745277404785156 11.997063636779785 0.5813789367675781 12.80747127532959 0.5950822830200195 12.85151481628418 C0.6078052520751953 12.891643524169922 0.6440200805664062 12.930793762207031 0.6841487884521484 12.947432518005371 C0.7653837203979492 12.980710983276367 0.8955583572387695 12.99245548248291 0.9807100296020508 12.973858833312988 L0.9807100296020508 12.973858833312988 M0.8818559646606445 11.82578182220459 C0.9327516555786133 11.808164596557617 0.9738588333129883 11.774887084960938 1.0061578750610352 11.72594928741455 C1.0413932800292969 11.672118186950684 1.0560741424560547 11.631988525390625 1.0668401718139648 11.554667472839355 C1.0991401672363281 11.334447860717773 0.9836463928222656 11.103462219238281 0.8133430480957031 11.043758392333984 C0.7555961608886719 11.023204803466797 0.6185712814331055 11.023204803466797 0.598017692565918 11.043758392333984 C0.5852947235107422 11.056482315063477 0.584315299987793 11.082908630371094 0.584315299987793 11.438196182250977 C0.584315299987793 11.805228233337402 0.5852947235107422 11.818930625915527 0.5999755859375 11.829696655273438 C0.6224861145019531 11.845356941223145 0.8290033340454102 11.843400001525879 0.8818559646606445 11.82578182220459 L0.8818559646606445 11.82578182220459 M1.5346851348876953 13.077607154846191 C1.5346851348876953 13.055095672607422 1.5356636047363281 13.055095672607422 1.5875368118286133 13.050201416015625 C1.6893272399902344 13.040413856506348 1.7578401565551758 12.991476058959961 1.8106927871704102 12.890665054321289 C1.8263521194458008 12.861302375793457 2.0113372802734375 12.40911865234375 2.223726272583008 11.886465072631836 C2.4351367950439453 11.362832069396973 2.613269805908203 10.926307678222656 2.619142532348633 10.915541648864746 C2.6250152587890625 10.904775619506836 2.636760711669922 10.889115333557129 2.64556884765625 10.881285667419434 C2.659271240234375 10.868561744689941 2.6651439666748047 10.867583274841309 2.6808042526245117 10.875412940979004 C2.7111454010009766 10.889115333557129 2.699399948120117 10.861710548400879 3.0448999404907227 11.71518325805664 C3.47457218170166 12.769299507141113 3.509807586669922 12.85151481628418 3.5763635635375977 12.939602851867676 C3.612576484680176 12.987561225891113 3.6634721755981445 13.026711463928223 3.7016429901123047 13.03747844696045 C3.7173032760620117 13.04237174987793 3.754495620727539 13.04824447631836 3.783858299255371 13.050201416015625 C3.8357324600219727 13.055095672607422 3.8367109298706055 13.056074142456055 3.8367109298706055 13.077607154846191 L3.8367109298706055 13.100118637084961 L3.108518600463867 13.100118637084961 L3.108518600463867 13.076627731323242 C3.108518600463867 13.055095672607422 3.110476493835449 13.05313777923584 3.1349449157714844 13.05313777923584 C3.1682233810424805 13.05313777923584 3.1907339096069336 13.03062629699707 3.1829042434692383 13.005179405212402 C3.1672439575195312 12.955263137817383 2.9431095123291016 12.383670806884766 2.9352798461914062 12.374862670898438 C2.9284286499023438 12.367032051086426 2.8599157333374023 12.36507511138916 2.585865020751953 12.367032051086426 L2.2442798614501953 12.368989944458008 L2.164022445678711 12.57257080078125 C2.0700626373291016 12.809429168701172 2.04559326171875 12.883813858032227 2.0397214889526367 12.943517684936523 C2.032869338989258 13.01986026763916 2.0690832138061523 13.054117202758789 2.1601076126098633 13.054117202758789 C2.1914281845092773 13.054117202758789 2.193385124206543 13.055095672607422 2.193385124206543 13.077607154846191 L2.193385124206543 13.101097106933594 L1.5356636047363281 13.101097106933594 L1.5346851348876953 13.077607154846191 M2.8716611862182617 12.21336841583252 C2.8745975494384766 12.205537796020508 2.690591812133789 11.689735412597656 2.6093549728393555 11.476366996765137 C2.60152530670166 11.456791877746582 2.5985889434814453 11.454834938049316 2.59075927734375 11.464622497558594 C2.5750980377197266 11.482239723205566 2.309856414794922 12.199665069580078 2.3147506713867188 12.212389945983887 C2.320622444152832 12.228049278259277 2.864809989929199 12.22902774810791 2.8716611862182617 12.21336841583252 L2.8716611862182617 12.21336841583252 M4.064760684967041 13.076627731323242 C4.064760684967041 13.054117202758789 4.065739631652832 13.05313777923584 4.101953029632568 13.05313777923584 C4.166551113128662 13.05313777923584 4.230169773101807 13.039435386657715 4.249744892120361 13.020838737487793 C4.274213790893555 12.99832820892334 4.2898736000061035 12.9533052444458 4.300640106201172 12.876962661743164 C4.306512355804443 12.833897590637207 4.310427665710449 12.537335395812988 4.313364028930664 11.939316749572754 L4.3172783851623535 11.064311981201172 L4.228212356567383 11.064311981201172 C4.006035327911377 11.065291404724121 3.7642831802368164 11.078014373779297 3.7310056686401367 11.091717720031738 C3.69283390045166 11.107377052307129 3.6527061462402344 11.15925121307373 3.6233434677124023 11.233636856079102 C3.606703758239746 11.273765563964844 3.6018104553222656 11.280616760253906 3.582235336303711 11.282573699951172 L3.5597238540649414 11.284531593322754 L3.554830551147461 11.184699058532715 C3.551894187927246 11.129888534545898 3.549936294555664 11.033970832824707 3.549936294555664 10.973288536071777 C3.549936294555664 10.846050262451172 3.5470008850097656 10.84996509552002 3.6164913177490234 10.876391410827637 C3.688920021057129 10.903797149658203 3.8093061447143555 10.908690452575684 4.489539623260498 10.908690452575684 C5.168793678283691 10.908690452575684 5.290159225463867 10.903797149658203 5.362586975097656 10.876391410827637 C5.434035778045654 10.848986625671387 5.430120944976807 10.838220596313477 5.429141998291016 11.032013893127441 C5.429141998291016 11.12597370147705 5.427184581756592 11.22091293334961 5.424248218536377 11.243424415588379 C5.419354438781738 11.281595230102539 5.4173970222473145 11.284531593322754 5.398800373077393 11.284531593322754 C5.38118314743042 11.284531593322754 5.375310897827148 11.277680397033691 5.355735778808594 11.233636856079102 C5.320500373840332 11.152400016784668 5.290159225463867 11.112271308898926 5.251008987426758 11.094654083251953 C5.221646308898926 11.081930160522461 5.187390327453613 11.078014373779297 5.026874542236328 11.072142601013184 C4.923126697540283 11.068227767944336 4.797846794128418 11.065291404724121 4.749887466430664 11.065291404724121 L4.661799907684326 11.065291404724121 L4.661799907684326 11.795440673828125 C4.661799907684326 12.532441139221191 4.668651103973389 12.827046394348145 4.6852898597717285 12.921985626220703 C4.702907562255859 13.01986026763916 4.730312347412109 13.04237174987793 4.8458051681518555 13.051180839538574 L4.912360668182373 13.056074142456055 L4.912360668182373 13.101097106933594 L4.064760684967041 13.101097106933594 L4.064760684967041 13.076627731323242 M6.03792667388916 13.076627731323242 C6.03792667388916 13.054117202758789 6.038905143737793 13.05313777923584 6.0751190185546875 13.05313777923584 C6.095672607421875 13.05313777923584 6.133844375610352 13.049222946166992 6.159291744232178 13.045308113098145 C6.197463035583496 13.039435386657715 6.211165428161621 13.032584190368652 6.230740547180176 13.011051177978516 C6.28359317779541 12.954283714294434 6.287508487701416 12.86815357208252 6.288486957550049 11.879612922668457 L6.288486957550049 11.062355041503906 L6.051628589630127 11.068227767944336 C5.800089359283447 11.07409954071045 5.71689510345459 11.080950736999512 5.687532424926758 11.100525856018066 C5.659149169921875 11.119122505187988 5.617063045501709 11.1817626953125 5.597487926483154 11.235593795776367 C5.580848693847656 11.281595230102539 5.5779128074646 11.284531593322754 5.554422378540039 11.284531593322754 L5.528975009918213 11.284531593322754 L5.528975009918213 11.196443557739258 C5.528975009918213 11.14848518371582 5.527017593383789 11.052567481994629 5.524081230163574 10.984054565429688 L5.5191874504089355 10.859752655029297 L5.5456132888793945 10.863667488098145 C5.5602946281433105 10.865625381469727 5.586720943450928 10.873455047607422 5.604338645935059 10.879327774047852 C5.667957305908203 10.903797149658203 5.808897972106934 10.90771198272705 6.465641021728516 10.90771198272705 C7.1409807205200195 10.90771198272705 7.262346267700195 10.902817726135254 7.334774017333984 10.875412940979004 C7.356306076049805 10.867583274841309 7.38273286819458 10.860732078552246 7.393499374389648 10.860732078552246 C7.411116600036621 10.860732078552246 7.412095069885254 10.862689018249512 7.407201290130615 10.890094757080078 C7.404265403747559 10.905754089355469 7.402307987213135 11.00167179107666 7.402307987213135 11.101505279541016 L7.402307987213135 11.283553123474121 L7.376860618591309 11.283553123474121 C7.352391719818115 11.283553123474121 7.350433826446533 11.280616760253906 7.329880237579346 11.230700492858887 C7.299538612365723 11.156314849853516 7.256474018096924 11.102483749389648 7.218302249908447 11.089759826660156 C7.187961101531982 11.079972267150879 6.911952972412109 11.066269874572754 6.726968288421631 11.065291404724121 L6.642795562744141 11.065291404724121 L6.6457319259643555 11.967700958251953 C6.648667812347412 12.909261703491211 6.649647235870361 12.926878929138184 6.682924270629883 12.99245548248291 C6.7034783363342285 13.032584190368652 6.7328410148620605 13.044329643249512 6.822885990142822 13.051180839538574 L6.8933563232421875 13.056074142456055 L6.8933563232421875 13.101097106933594 L6.03792667388916 13.101097106933594 L6.03792667388916 13.076627731323242 M7.658740997314453 13.074670791625977 L7.658740997314453 13.04824447631836 L7.719423770904541 13.039435386657715 C7.770318984985352 13.03160572052002 7.783042907714844 13.026711463928223 7.801638603210449 13.007136344909668 C7.853513240814209 12.950368881225586 7.856449127197266 12.905345916748047 7.860363960266113 12.047958374023438 C7.864279270172119 11.297255516052246 7.8593854904174805 11.088781356811523 7.838831901550293 11.048652648925781 C7.810447692871094 10.993842124938965 7.750744342803955 10.9635009765625 7.673422336578369 10.9635009765625 L7.635251045227051 10.9635009765625 L7.635251045227051 10.908690452575684 L8.449573516845703 10.908690452575684 L8.449573516845703 10.961543083190918 L8.383018493652344 10.965457916259766 C8.299823760986328 10.970352172851562 8.272418975830078 10.98503303527832 8.245992660522461 11.037885665893555 L8.226417541503906 11.077035903930664 L8.226417541503906 11.902124404907227 C8.226417541503906 12.77419376373291 8.226417541503906 12.78006649017334 8.261652946472168 12.849557876586914 C8.278291702270508 12.882835388183594 8.332122802734375 12.914155006408691 8.398677825927734 12.927857398986816 C8.429019927978516 12.934708595275879 8.507320404052734 12.938624382019043 8.625748634338379 12.938624382019043 C8.849884033203125 12.938624382019043 8.895885467529297 12.929815292358398 8.962440490722656 12.871089935302734 C8.993760108947754 12.843685150146484 9.030952453613281 12.775172233581543 9.044654846191406 12.720361709594727 C9.052485466003418 12.68806266784668 9.056400299072266 12.684147834777832 9.07597541809082 12.684147834777832 C9.09750747680664 12.684147834777832 9.098485946655273 12.686105728149414 9.098485946655273 12.715468406677246 C9.098485946655273 12.766363143920898 9.068145751953125 12.982667922973633 9.055421829223633 13.026711463928223 C9.032910346984863 13.101097106933594 9.094572067260742 13.095224380493164 8.329187393188477 13.097182273864746 L7.65776252746582 13.099139213562012 L7.658740997314453 13.074670791625977 M9.287385940551758 13.077607154846191 C9.287385940551758 13.056074142456055 9.28836441040039 13.055095672607422 9.33926010131836 13.050201416015625 C9.407772064208984 13.043350219726562 9.434199333190918 13.028669357299805 9.45181655883789 12.988540649414062 C9.486072540283203 12.910240173339844 9.487051010131836 12.892622947692871 9.487051010131836 11.965744018554688 L9.487051010131836 11.08486557006836 L9.467475891113281 11.045716285705566 C9.441049575805664 10.992863655090332 9.396027565002441 10.970352172851562 9.309897422790527 10.965457916259766 L9.248235702514648 10.961543083190918 L9.248235702514648 10.908690452575684 L9.863871574401855 10.908690452575684 C10.410993576049805 10.908690452575684 10.485380172729492 10.90771198272705 10.533337593078613 10.895966529846191 C10.562700271606445 10.889115333557129 10.589127540588379 10.884222030639648 10.591084480285645 10.886178970336914 C10.593042373657227 10.888136863708496 10.585212707519531 10.986990928649902 10.573467254638672 11.106398582458496 L10.552912712097168 11.323681831359863 L10.53235912322998 11.323681831359863 C10.512784004211426 11.323681831359863 10.511805534362793 11.320745468139648 10.502996444702148 11.257126808166504 C10.491251945495605 11.17099666595459 10.469718933105469 11.130867004394531 10.422739028930664 11.107377052307129 C10.365971565246582 11.078993797302246 10.307246208190918 11.072142601013184 10.076260566711426 11.067248344421387 L9.858977317810059 11.062355041503906 L9.858977317810059 11.458749771118164 C9.858977317810059 11.677011489868164 9.861913681030273 11.856122970581055 9.864850044250488 11.858080863952637 C9.867786407470703 11.860038757324219 9.992088317871094 11.85905933380127 10.140857696533203 11.856122970581055 C10.394355773925781 11.851229667663574 10.412952423095703 11.849271774291992 10.442314147949219 11.833612442016602 C10.459931373596191 11.824803352355957 10.482442855834961 11.808164596557617 10.492230415344238 11.796419143676758 C10.502996444702148 11.785653114318848 10.519636154174805 11.77586555480957 10.530402183532715 11.77586555480957 C10.548998832702637 11.77586555480957 10.54997730255127 11.776844024658203 10.545083999633789 11.82088851928711 C10.542146682739258 11.845356941223145 10.534317970275879 11.943232536315918 10.5274658203125 12.038171768188477 C10.511805534362793 12.249582290649414 10.512784004211426 12.245667457580566 10.489294052124023 12.245667457580566 C10.468740463256836 12.245667457580566 10.46091079711914 12.232942581176758 10.46091079711914 12.198686599731445 C10.46091079711914 12.147791862487793 10.443292617797852 12.094939231872559 10.415887832641602 12.064598083496094 C10.36988639831543 12.013702392578125 10.342480659484863 12.008809089660645 10.084091186523438 12.00489330291748 L9.859956741333008 12.000978469848633 L9.854084014892578 12.313200950622559 C9.846254348754883 12.772235870361328 9.853105545043945 12.844663619995117 9.91183090209961 12.897516250610352 C9.928468704223633 12.913176536560059 9.956852912902832 12.929815292358398 9.974470138549805 12.933730125427246 C10.091920852661133 12.96505069732666 10.351289749145508 12.963092803955078 10.452101707458496 12.929815292358398 C10.531380653381348 12.903388977050781 10.580318450927734 12.828024864196777 10.612617492675781 12.681212425231934 C10.616531372070312 12.663594245910645 10.62142562866211 12.659679412841797 10.641980171203613 12.659679412841797 L10.666449546813965 12.659679412841797 L10.661555290222168 12.72427749633789 C10.650788307189941 12.85738754272461 10.625340461730957 13.03062629699707 10.613595962524414 13.055095672607422 C10.606744766235352 13.068798065185547 10.593042373657227 13.084458351135254 10.582275390625 13.089351654052734 C10.568573951721191 13.096202850341797 10.385546684265137 13.098160743713379 9.924553871154785 13.098160743713379 L9.286407470703125 13.098160743713379 L9.287385940551758 13.077607154846191 M10.955181121826172 13.078585624694824 C10.955181121826172 13.057052612304688 10.956159591674805 13.057052612304688 11.019779205322266 13.04824447631836 C11.076545715332031 13.040413856506348 11.086333274841309 13.0364990234375 11.105908393859863 13.015945434570312 C11.157782554626465 12.958198547363281 11.16071891784668 12.910240173339844 11.164633750915527 12.051874160766602 C11.168548583984375 11.305085182189941 11.163655281066895 11.087801933288574 11.143101692199707 11.048652648925781 C11.113739013671875 10.991884231567383 11.055013656616211 10.9635009765625 10.969862937927246 10.9635009765625 L10.923860549926758 10.9635009765625 L10.923860549926758 10.908690452575684 L11.562986373901367 10.908690452575684 C12.131641387939453 10.908690452575684 12.207984924316406 10.90771198272705 12.248113632202148 10.895966529846191 C12.273560523986816 10.889115333557129 12.296072959899902 10.885200500488281 12.298029899597168 10.887158393859863 C12.301944732666016 10.891073226928711 12.27747631072998 11.174911499023438 12.264752388000488 11.278658866882324 C12.260836601257324 11.312915802001953 12.258879661560059 11.315852165222168 12.238326072692871 11.315852165222168 C12.216793060302734 11.315852165222168 12.216793060302734 11.314872741699219 12.211898803710938 11.257126808166504 C12.204070091247559 11.161209106445312 12.182536125183105 11.128910064697266 12.109129905700684 11.095632553100586 C12.072916984558105 11.078993797302246 12.054320335388184 11.078014373779297 11.809632301330566 11.071163177490234 C11.604093551635742 11.065291404724121 11.547327041625977 11.066269874572754 11.5375394821167 11.07409954071045 C11.527751922607422 11.082908630371094 11.525793075561523 11.135761260986328 11.525793075561523 11.469515800476074 C11.525793075561523 11.77097225189209 11.527751922607422 11.856122970581055 11.5355806350708 11.85905933380127 C11.55319881439209 11.865910530090332 12.069001197814941 11.855144500732422 12.100321769714355 11.847314834594727 C12.116960525512695 11.843400001525879 12.145344734191895 11.82578182220459 12.163941383361816 11.80914306640625 C12.20211124420166 11.773907661437988 12.23049545288086 11.768035888671875 12.23049545288086 11.796419143676758 C12.23049545288086 11.806206703186035 12.221686363220215 11.906039237976074 12.210920333862305 12.017617225646973 C12.200154304504395 12.129195213317871 12.19134521484375 12.22413444519043 12.19134521484375 12.227070808410645 C12.19134521484375 12.23000717163086 12.181557655334473 12.232942581176758 12.168834686279297 12.232942581176758 C12.14730167388916 12.232942581176758 12.146323204040527 12.230985641479492 12.137514114379883 12.172260284423828 C12.12576961517334 12.096896171569824 12.105216026306152 12.063618659973145 12.049426078796387 12.03327751159668 C12.009297370910645 12.01174545288086 12.001466751098633 12.009787559509277 11.874229431152344 12.00489330291748 C11.708821296691895 11.997063636779785 11.554177284240723 11.996085166931152 11.5375394821167 12.002936363220215 C11.526771545410156 12.006851196289062 11.52481460571289 12.045022964477539 11.52481460571289 12.349414825439453 C11.52481460571289 12.84074878692627 11.536559104919434 12.963092803955078 11.58549690246582 13.011051177978516 C11.61388111114502 13.03747844696045 11.636392593383789 13.044329643249512 11.72643756866455 13.052159309387207 L11.797886848449707 13.058032035827637 L11.797886848449707 13.103055000305176 L10.955181121826172 13.103055000305176 L10.955181121826172 13.078585624694824 M12.591655731201172 13.077607154846191 C12.591655731201172 13.056074142456055 12.593612670898438 13.055095672607422 12.639615058898926 13.049222946166992 C12.76880931854248 13.034542083740234 12.77566146850586 13.010072708129883 12.788384437561035 12.567676544189453 C12.798171997070312 12.212389945983887 12.791321754455566 11.144570350646973 12.77957534790039 11.083887100219727 C12.763916015625 11.005586624145508 12.714978218078613 10.971330642700195 12.611230850219727 10.964479446411133 C12.549569129943848 10.960564613342285 12.545654296875 10.959585189819336 12.545654296875 10.942947387695312 L12.545654296875 10.925329208374023 L12.935197830200195 10.918478012084961 C13.149544715881348 10.914563179016113 13.368785858154297 10.912605285644531 13.422616958618164 10.91358470916748 C13.601728439331055 10.917499542236328 13.7172212600708 10.94098949432373 13.829777717590332 10.994820594787598 C13.99127197265625 11.073121070861816 14.095998764038086 11.247339248657227 14.095998764038086 11.437216758728027 C14.095998764038086 11.645691871643066 14.00203800201416 11.822845458984375 13.787691116333008 12.017617225646973 C13.753435134887695 12.048937797546387 13.72309398651123 12.078300476074219 13.722115516662598 12.081236839294434 C13.721137046813965 12.084173202514648 13.802371978759766 12.191835403442383 13.90318489074707 12.318094253540039 C14.294685363769531 12.808449745178223 14.411157608032227 12.93177318572998 14.551118850708008 13.001264572143555 C14.601036071777344 13.02573299407959 14.694995880126953 13.052159309387207 14.735124588012695 13.052159309387207 C14.751762390136719 13.052159309387207 14.75469970703125 13.056074142456055 14.75469970703125 13.07564926147461 L14.75469970703125 13.099139213562012 L14.545246124267578 13.099139213562012 C14.208555221557617 13.099139213562012 14.157660484313965 13.082500457763672 14.00203800201416 12.927857398986816 C13.906121253967285 12.832919120788574 13.810202598571777 12.708617210388184 13.58704662322998 12.39247989654541 C13.520492553710938 12.2985200881958 13.458830833435059 12.216304779052734 13.450021743774414 12.211410522460938 C13.439255714416504 12.204559326171875 13.388360977172852 12.200644493103027 13.285592079162598 12.198686599731445 L13.136820793151855 12.19575023651123 L13.136820793151855 12.5167818069458 C13.137800216674805 13.011051177978516 13.143672943115234 13.029647827148438 13.316911697387695 13.047266006469727 L13.399127006530762 13.055095672607422 L13.399127006530762 13.100118637084961 L12.591655731201172 13.100118637084961 L12.591655731201172 13.077607154846191 M13.45785140991211 12.059703826904297 C13.530280113220215 12.050895690917969 13.578239440917969 12.026426315307617 13.630111694335938 11.970637321472168 C13.680027961730957 11.9168062210083 13.720158576965332 11.835569381713867 13.74071216583252 11.749439239501953 C13.759307861328125 11.667223930358887 13.760286331176758 11.484197616577148 13.74071216583252 11.406875610351562 C13.679049491882324 11.158272743225098 13.481342315673828 11.01928997039795 13.226866722106934 11.0466947555542 C13.187716484069824 11.050609588623047 13.15052318572998 11.058440208435059 13.144651412963867 11.064311981201172 C13.13486385345459 11.073121070861816 13.132905960083008 11.135761260986328 13.132905960083008 11.54683780670166 L13.132905960083008 12.019575119018555 L13.155417442321777 12.031320571899414 C13.205333709716797 12.056767463684082 13.356060981750488 12.071449279785156 13.45785140991211 12.059703826904297 L13.45785140991211 12.059703826904297 M19.928386688232422 13.076627731323242 C19.928386688232422 13.054117202758789 19.929365158081055 13.05313777923584 19.965579986572266 13.05313777923584 C19.986133575439453 13.05313777923584 20.024303436279297 13.049222946166992 20.04975128173828 13.045308113098145 C20.087923049926758 13.039435386657715 20.101627349853516 13.032584190368652 20.12120246887207 13.011051177978516 C20.174053192138672 12.9533052444458 20.17797088623047 12.875984191894531 20.17894744873047 11.883528709411621 L20.17894744873047 11.062355041503906 L19.942089080810547 11.068227767944336 C19.680763244628906 11.07409954071045 19.605398178100586 11.080950736999512 19.57603645324707 11.102483749389648 C19.547651290893555 11.123037338256836 19.501651763916016 11.194486618041992 19.48501205444336 11.24244499206543 C19.472288131713867 11.280616760253906 19.46935272216797 11.283553123474121 19.444883346557617 11.283553123474121 L19.419435501098633 11.283553123474121 L19.419435501098633 11.178826332092285 C19.419435501098633 11.121079444885254 19.417478561401367 11.026141166687012 19.414541244506836 10.966436386108398 L19.409648895263672 10.858774185180664 L19.43607521057129 10.862689018249512 C19.450756072998047 10.864646911621094 19.478160858154297 10.872476577758789 19.495779037475586 10.879327774047852 C19.55841827392578 10.902817726135254 19.70033836364746 10.90771198272705 20.355121612548828 10.90771198272705 C21.03046226501465 10.90771198272705 21.15182876586914 10.903797149658203 21.224254608154297 10.876391410827637 C21.24578857421875 10.868561744689941 21.272212982177734 10.861710548400879 21.282981872558594 10.861710548400879 C21.30059814453125 10.861710548400879 21.301576614379883 10.863667488098145 21.296682357788086 10.902817726135254 C21.29374885559082 10.925329208374023 21.291790008544922 11.020268440246582 21.291790008544922 11.114228248596191 L21.291790008544922 11.284531593322754 L21.266342163085938 11.284531593322754 C21.24187469482422 11.284531593322754 21.239917755126953 11.281595230102539 21.219362258911133 11.23167896270752 C21.18902015686035 11.157293319702148 21.14595603942871 11.103462219238281 21.107784271240234 11.090738296508789 C21.077442169189453 11.080950736999512 20.801435470581055 11.067248344421387 20.6164493560791 11.066269874572754 L20.532278060913086 11.066269874572754 L20.535215377807617 11.96084976196289 C20.538148880004883 12.902410507202148 20.53912925720215 12.926878929138184 20.57338523864746 12.995391845703125 C20.592960357666016 13.034542083740234 20.623302459716797 13.046286582946777 20.713348388671875 13.05313777923584 L20.783817291259766 13.058032035827637 L20.783817291259766 13.103055000305176 L19.93034553527832 13.103055000305176 L19.928386688232422 13.076627731323242 M22.159944534301758 13.077607154846191 C22.159944534301758 13.056074142456055 22.16092300415039 13.055095672607422 22.21279525756836 13.050201416015625 C22.290117263793945 13.043350219726562 22.341991424560547 13.01496696472168 22.365482330322266 12.967986106872559 L22.384078979492188 12.930793762207031 L22.384078979492188 11.082908630371094 L22.364501953125 11.043758392333984 C22.339054107666016 10.993842124938965 22.29403305053711 10.96937370300293 22.214752197265625 10.9635009765625 L22.16092300415039 10.959585189819336 L22.16092300415039 10.906732559204102 L22.975242614746094 10.906732559204102 L22.975242614746094 10.961543083190918 L22.93707275390625 10.961543083190918 C22.83919906616211 10.961543083190918 22.780471801757812 11.00265121459961 22.761878967285156 11.08486557006836 C22.7462158203125 11.151421546936035 22.7462158203125 12.863260269165039 22.761878967285156 12.929815292358398 C22.77949333190918 13.007136344909668 22.823535919189453 13.038456916809082 22.929243087768555 13.050201416015625 C22.972309112548828 13.055095672607422 22.974266052246094 13.056074142456055 22.974266052246094 13.077607154846191 L22.974266052246094 13.100118637084961 L22.159944534301758 13.100118637084961 L22.159944534301758 13.077607154846191 M23.193506240844727 13.076627731323242 C23.193506240844727 13.055095672607422 23.195463180541992 13.05313777923584 23.218955993652344 13.05313777923584 C23.254188537597656 13.05313777923584 23.33053207397461 13.032584190368652 23.354022979736328 13.016923904418945 C23.364788055419922 13.010072708129883 23.381427764892578 12.989519119262695 23.390235900878906 12.971901893615723 C23.41568374633789 12.921006202697754 23.42155647277832 12.69393539428711 23.41764259338379 11.85905933380127 C23.413726806640625 11.066269874572754 23.413726806640625 11.05746078491211 23.37555503845215 11.016353607177734 C23.350107192993164 10.987969398498535 23.301170349121094 10.96839427947998 23.245380401611328 10.964479446411133 L23.192527770996094 10.960564613342285 L23.192527770996094 10.90771198272705 L23.999019622802734 10.90771198272705 L23.999019622802734 10.960564613342285 L23.9451904296875 10.965457916259766 C23.84633445739746 10.973288536071777 23.80033302307129 11.012438774108887 23.787609100341797 11.0985689163208 C23.78271484375 11.128910064697266 23.780757904052734 11.493005752563477 23.78271484375 12.040128707885742 C23.78467559814453 12.890665054321289 23.78565216064453 12.934708595275879 23.799354553222656 12.966029167175293 C23.80718421936035 12.984625816345215 23.82382583618164 13.006157875061035 23.835569381713867 13.01496696472168 C23.86003875732422 13.032584190368652 23.936382293701172 13.054117202758789 23.974552154541016 13.054117202758789 C23.9980411529541 13.054117202758789 24.0 13.056074142456055 24.0 13.077607154846191 L24.0 13.101097106933594 L23.193506240844727 13.101097106933594 L23.193506240844727 13.076627731323242 M0.0009784698486328125 10.214755058288574 L0.0009784698486328125 10.054239273071289 L3.931650161743164 10.054239273071289 C6.807226181030273 10.054239273071289 7.862321376800537 10.052281379699707 7.862321376800537 10.045430183410645 C7.862321376800537 10.040536880493164 7.834916591644287 10.008237838745117 7.802618026733398 9.973002433776855 C7.723338603973389 9.888830184936523 7.695933818817139 9.831083297729492 7.692018985748291 9.743974685668945 C7.689082145690918 9.688185691833496 7.692018985748291 9.674483299255371 7.7106146812438965 9.632396697998047 C7.736063003540039 9.574649810791016 7.790872573852539 9.521797180175781 7.853513240814209 9.492435455322266 L7.89853572845459 9.471881866455078 L8.577790260314941 9.469923973083496 L9.257044792175293 9.467966079711914 L9.257044792175293 9.756698608398438 L8.85771369934082 9.756698608398438 L8.85771369934082 10.375269889831543 L8.535703659057617 10.375269889831543 L8.535703659057617 9.756698608398438 L8.316463470458984 9.756698608398438 C8.16084098815918 9.756698608398438 8.097222328186035 9.759634971618652 8.097222328186035 9.765506744384766 C8.097222328186035 9.770401000976562 8.123648643493652 9.80270004272461 8.1559476852417 9.836956024169922 C8.229353904724121 9.91525650024414 8.256758689880371 9.95440673828125 8.273397445678711 10.006280899047852 C8.291015625 10.061090469360352 8.286121368408203 10.16092300415039 8.26361083984375 10.212797164916992 C8.24109935760498 10.263692855834961 8.182374000549316 10.32437515258789 8.129521369934082 10.349822998046875 L8.085476875305176 10.371355056762695 L4.043227672576904 10.373312950134277 L0.0009784698486328125 10.375269889831543 L0.0009784698486328125 10.214755058288574 M9.143508911132812 10.338077545166016 C9.149381637573242 10.317523956298828 9.212021827697754 10.113943099975586 9.281513214111328 9.885893821716309 L9.408751487731934 9.470902442932129 L9.923575401306152 9.470902442932129 L10.063536643981934 9.917213439941406 C10.13987922668457 10.162880897521973 10.203498840332031 10.366461753845215 10.203498840332031 10.36939811706543 C10.203498840332031 10.373312950134277 10.129114151000977 10.375269889831543 10.037110328674316 10.373312950134277 L9.870722770690918 10.371355056762695 L9.851147651672363 10.308714866638184 L9.831572532653809 10.246074676513672 L9.51249885559082 10.246074676513672 L9.492923736572266 10.310672760009766 L9.473348617553711 10.375269889831543 L9.132742881774902 10.375269889831543 L9.143508911132812 10.338077545166016 M9.755229949951172 9.989641189575195 C9.75327205657959 9.984747886657715 9.734675407409668 9.927980422973633 9.71510124206543 9.864360809326172 C9.694547653198242 9.800742149353027 9.676929473876953 9.748868942260742 9.674972534179688 9.748868942260742 C9.673014640808105 9.748868942260742 9.655397415161133 9.800742149353027 9.635822296142578 9.864360809326172 C9.616247177124023 9.927980422973633 9.598628997802734 9.983769416809082 9.596672058105469 9.989641189575195 C9.593735694885254 9.997471809387207 9.613310813903809 9.999429702758789 9.67595100402832 9.999429702758789 C9.738591194152832 9.999429702758789 9.758166313171387 9.997471809387207 9.755229949951172 9.989641189575195 L9.755229949951172 9.989641189575195 M10.273968696594238 9.92112922668457 L10.273968696594238 9.466987609863281 L10.632192611694336 9.468944549560547 L10.990416526794434 9.470902442932129 L11.045226097106934 9.496350288391113 C11.109823226928711 9.526691436767578 11.167570114135742 9.579544067382812 11.195954322814941 9.635333061218262 C11.211613655090332 9.665674209594727 11.217486381530762 9.690143585205078 11.219444274902344 9.739080429077148 C11.226295471191406 9.854574203491211 11.193017959594727 9.927001953125 11.106887817382812 9.988662719726562 C11.079482078552246 10.008237838745117 11.056970596313477 10.026834487915039 11.056970596313477 10.029769897460938 C11.056970596313477 10.052281379699707 11.081439971923828 10.054239273071289 11.317319869995117 10.054239273071289 L11.558093070983887 10.054239273071289 L11.558093070983887 10.375269889831543 L11.265445709228516 10.375269889831543 C10.878837585449219 10.375269889831543 10.908201217651367 10.384078979492188 10.737897872924805 10.215733528137207 L10.634149551391602 10.112964630126953 L10.634149551391602 10.375269889831543 L10.273968696594238 10.375269889831543 L10.273968696594238 9.92112922668457 M10.864156723022461 9.834019660949707 C10.89254093170166 9.821295738220215 10.906243324279785 9.784103393554688 10.891562461853027 9.75767707824707 C10.872965812683105 9.723421096801758 10.849475860595703 9.717548370361328 10.741812705993652 9.717548370361328 L10.641980171203613 9.717548370361328 L10.641980171203613 9.842828750610352 L10.743769645690918 9.842828750610352 C10.80151653289795 9.842828750610352 10.852412223815918 9.838913917541504 10.864156723022461 9.834019660949707 L10.864156723022461 9.834019660949707 M11.985807418823242 10.36939811706543 C11.980913162231445 10.360589027404785 11.705883979797363 9.479711532592773 11.705883979797363 9.472860336303711 C11.705883979797363 9.469923973083496 11.78809928894043 9.466987609863281 11.889890670776367 9.466987609863281 L12.073895454406738 9.466987609863281 L12.101300239562988 9.555074691772461 C12.115982055664062 9.603034019470215 12.132619857788086 9.657844543457031 12.138492584228516 9.676441192626953 C12.143385887145996 9.695036888122559 12.150238037109375 9.70776081085205 12.15219497680664 9.705802917480469 C12.154153823852539 9.703845977783203 12.170791625976562 9.65001392364502 12.189388275146484 9.586395263671875 L12.22266674041748 9.470902442932129 L12.414501190185547 9.468944549560547 L12.60633659362793 9.466987609863281 L12.644508361816406 9.588353157043457 C12.665061950683594 9.654908180236816 12.684637069702148 9.706781387329102 12.68757438659668 9.703845977783203 C12.690509796142578 9.700909614562988 12.70812702178955 9.646099090576172 12.726723670959473 9.582480430603027 L12.760980606079102 9.466987609863281 L13.107458114624023 9.466987609863281 L13.100606918334961 9.492435455322266 C13.096692085266113 9.50613784790039 13.034051895141602 9.709718704223633 12.961625099182129 9.944619178771973 L12.830471992492676 10.371355056762695 L12.673871040344238 10.373312950134277 L12.517271041870117 10.375269889831543 L12.46833324432373 10.212797164916992 C12.440927505493164 10.123730659484863 12.416459083557129 10.045430183410645 12.413522720336914 10.038578987121582 C12.409607887268066 10.03172779083252 12.39394760131836 10.069899559020996 12.370457649230957 10.14428424835205 C12.34990406036377 10.208882331848145 12.325435638427734 10.286203384399414 12.315648078918457 10.315566062927246 L12.298029899597168 10.370376586914062 L12.144366264343262 10.372333526611328 C12.059213638305664 10.375269889831543 11.987765312194824 10.373312950134277 11.985807418823242 10.36939811706543 L11.985807418823242 10.36939811706543 M12.992944717407227 10.365482330322266 C12.994901657104492 10.359609603881836 13.057541847229004 10.15602970123291 13.132905960083008 9.911341667175293 L13.268952369689941 9.466987609863281 L13.781818389892578 9.466987609863281 L13.820968627929688 9.590310096740723 C13.926674842834473 9.924064636230469 14.064678192138672 10.367440223693848 14.064678192138672 10.371355056762695 C14.064678192138672 10.373312950134277 13.989315032958984 10.375269889831543 13.898290634155273 10.375269889831543 L13.731903076171875 10.375269889831543 L13.71232795715332 10.310672760009766 L13.692752838134766 10.246074676513672 L13.371721267700195 10.246074676513672 L13.351167678833008 10.308714866638184 L13.33061408996582 10.371355056762695 L13.160310745239258 10.373312950134277 C13.024264335632324 10.375269889831543 12.990007400512695 10.373312950134277 12.992944717407227 10.365482330322266 L12.992944717407227 10.365482330322266 M13.60955810546875 9.989641189575195 C13.60955810546875 9.976917266845703 13.541046142578125 9.755720138549805 13.535173416137695 9.750825881958008 C13.530280113220215 9.745931625366211 13.530280113220215 9.745931625366211 13.493086814880371 9.866318702697754 C13.476448059082031 9.920149803161621 13.459809303283691 9.972023963928223 13.456872940063477 9.9818115234375 C13.451001167297363 9.999429702758789 13.451979637145996 9.999429702758789 13.530280113220215 9.999429702758789 C13.589005470275879 9.999429702758789 13.60955810546875 9.997471809387207 13.60955810546875 9.989641189575195 L13.60955810546875 9.989641189575195 M14.173319816589355 9.92112922668457 L14.173319816589355 9.466987609863281 L14.516861915588379 9.466987609863281 C14.80950927734375 9.466987609863281 14.866277694702148 9.468944549560547 14.902490615844727 9.479711532592773 C15.05517578125 9.524734497070312 15.138370513916016 9.638269424438477 15.126625061035156 9.78508186340332 C15.11977481842041 9.879042625427246 15.077688217163086 9.946576118469238 14.99449348449707 10.000408172607422 C14.919130325317383 10.049345016479492 14.93968391418457 10.054239273071289 15.232331275939941 10.054239273071289 C15.367398262023926 10.054239273071289 15.480934143066406 10.052281379699707 15.482892036437988 10.049345016479492 C15.485827445983887 10.046409606933594 15.460380554199219 10.014110565185547 15.427102088928223 9.976917266845703 C15.355653762817383 9.8986177444458 15.338035583496094 9.870233535766602 15.320419311523438 9.812487602233887 C15.295949935913086 9.728314399719238 15.309652328491211 9.648056983947754 15.36054801940918 9.581501007080078 C15.396760940551758 9.53354263305664 15.437870025634766 9.504179954528809 15.499530792236328 9.483626365661621 C15.543574333190918 9.468944549560547 15.564127922058105 9.467966079711914 15.861668586730957 9.467966079711914 L16.176828384399414 9.467966079711914 L16.176828384399414 9.756698608398438 L15.945840835571289 9.756698608398438 C15.78043270111084 9.756698608398438 15.714856147766113 9.759634971618652 15.714856147766113 9.765506744384766 C15.714856147766113 9.770401000976562 15.746176719665527 9.806614875793457 15.784347534179688 9.8467435836792 C15.825455665588379 9.889808654785156 15.86264705657959 9.936788558959961 15.874393463134766 9.961257934570312 C15.945840835571289 10.108070373535156 15.891031265258789 10.278373718261719 15.749112129211426 10.347865104675293 L15.70311164855957 10.370376586914062 L15.276374816894531 10.370376586914062 C14.875086784362793 10.370376586914062 14.847681045532227 10.36939811706543 14.810487747192383 10.355694770812988 C14.779168128967285 10.343950271606445 14.746869087219238 10.316545486450195 14.655845642089844 10.22747802734375 L14.540351867675781 10.113943099975586 L14.540351867675781 10.375269889831543 L14.172341346740723 10.375269889831543 L14.173319816589355 9.92112922668457 M14.78308391571045 9.82423210144043 C14.79384994506836 9.814444541931152 14.799721717834473 9.799763679504395 14.799721717834473 9.78018856048584 C14.799721717834473 9.728314399719238 14.784062385559082 9.721463203430176 14.653887748718262 9.718526840209961 L14.541330337524414 9.715591430664062 L14.541330337524414 9.842828750610352 L14.653887748718262 9.839892387390137 C14.751762390136719 9.839892387390137 14.768402099609375 9.836956024169922 14.78308391571045 9.82423210144043 M15.897883415222168 10.337099075317383 C15.957587242126465 10.273479461669922 15.989885330200195 10.190285682678223 15.989885330200195 10.099262237548828 L15.989885330200195 10.054239273071289 L24.0 10.054239273071289 L24.0 10.375269889831543 L15.86264705657959 10.375269889831543 L15.897883415222168 10.337099075317383" fill="black" fill-opacity="1.0" filling="0"/></svg>