<?xml version="1.0" encoding="iso-8859-1"?><svg height="200px" viewBox="0.0 0.0 24.0 24.0" width="200px" xmlns="http://www.w3.org/2000/svg"><path animation_id="0" d="M0.0 0.0 L24.0 0.0 L24.0 24.0 L0.0 24.0 L0.0 0.0" fill="black" fill-opacity="1.0" filling="0"/>
<path animation_id="1" d="M8.464795112609863 8.907551765441895 C9.323912620544434 7.050115585327148 11.066924095153809 5.051235675811768 13.032933235168457 4.927846431732178 C13.829297065734863 4.877793788909912 14.514349937438965 5.2985124588012695 14.518583297729492 6.01394510269165 C14.52194595336914 6.577476501464844 13.86415958404541 7.018116474151611 13.379941940307617 7.351428985595703 C13.128307342529297 7.524621486663818 12.971176147460938 7.723712921142578 12.95947265625 7.933387279510498 C12.9502592086792 8.096494674682617 13.029072761535645 8.265829086303711 13.21994686126709 8.43441390991211 C14.083545684814453 9.197285652160645 14.936562538146973 9.46535587310791 15.013385772705078 10.794123649597168 C15.126191139221191 12.747681617736816 13.220693588256836 13.888439178466797 11.23227310180664 13.89354419708252 C9.623233795166016 13.897777557373047 7.97982931137085 12.895349502563477 7.9819464683532715 11.257797241210938 C7.983938694000244 9.72097396850586 9.300379753112793 8.730249404907227 10.997821807861328 8.720413208007812 C12.341156005859375 8.71269416809082 13.501587867736816 9.46971321105957 13.504201889038086 10.664632797241211 C13.506817817687988 11.722468376159668 12.461931228637695 12.544979095458984 11.353545188903809 12.560792922973633 C10.404158592224121 12.574238777160645 9.455768585205078 12.023656845092773 9.459752082824707 11.044137954711914 C9.463113784790039 10.219261169433594 10.12201976776123 9.651870727539062 10.974786758422852 9.634688377380371 C11.782979965209961 9.618377685546875 12.398804664611816 10.1649751663208 12.356222152709961 10.794621467590332 C12.352113723754883 10.854511260986328 12.255121231079102 10.861483573913574 12.24989128112793 10.798604965209961 C12.206562042236328 10.280271530151367 11.608043670654297 9.886198043823242 10.965946197509766 9.915956497192383 C10.314885139465332 9.946087837219238 9.851709365844727 10.380252838134766 9.855568885803223 11.020979881286621 C9.859428405761719 11.67029857635498 10.560791969299316 12.274419784545898 11.36811351776123 12.252381324768066 C12.190375328063965 12.22996997833252 13.076885223388672 11.493121147155762 13.063188552856445 10.690032958984375 C13.046878814697266 9.726825714111328 11.922430038452148 9.101288795471191 10.99495792388916 9.106767654418945 C9.470087051391602 9.115732192993164 8.461433410644531 10.083919525146484 8.440017700195312 11.192928314208984 C8.41499137878418 12.488576889038086 9.93575382232666 13.327274322509766 11.192928314208984 13.335491180419922 C12.827740669250488 13.346075057983398 14.276162147521973 12.279648780822754 14.289484977722168 10.846417427062988 C14.30094051361084 9.635560035705566 13.61613655090332 9.4297456741333 12.9004545211792 8.695635795593262 C12.677706718444824 8.46716022491455 12.583329200744629 8.204818725585938 12.601133346557617 7.948951244354248 C12.621054649353027 7.659092426300049 12.784785270690918 7.3777008056640625 13.067296981811523 7.163917064666748 C13.484155654907227 6.848658561706543 14.008716583251953 6.574488162994385 14.015937805175781 6.02776575088501 C14.021291732788086 5.635560035705566 13.617879867553711 5.31843376159668 13.074520111083984 5.299508094787598 C10.919878005981445 5.224802494049072 9.45103645324707 7.351304531097412 8.55083179473877 8.929216384887695 C8.462055206298828 9.065305709838867 8.391708374023438 9.067546844482422 8.464795112609863 8.907551765441895 L8.464795112609863 8.907551765441895" fill="black" fill-opacity="1.0" filling="0"/>
<path animation_id="2" d="M14.909295082092285 4.801843166351318 C14.798107147216797 4.801843166351318 14.698251724243164 4.843055725097656 14.623544692993164 4.918632984161377 A0.41337233781814575 0.41337233781814575 0.0 0 0 14.502396583557129 5.2098612785339355 C14.502396583557129 5.317686557769775 14.544731140136719 5.418788433074951 14.622300148010254 5.496731758117676 C14.701363563537598 5.5756707191467285 14.801469802856445 5.618128776550293 14.909295082092285 5.618128776550293 C15.015999794006348 5.618128776550293 15.120588302612305 5.574550151824951 15.200647354125977 5.495611190795898 C15.277220726013184 5.421154499053955 15.318309783935547 5.322044372558594 15.318309783935547 5.209986209869385 C15.318309783935547 5.099918842315674 15.276225090026855 4.996576309204102 15.200647354125977 4.920998573303223 A0.4055282473564148 0.4055282473564148 0.0 0 0 14.909295082092285 4.801843166351318 L14.909295082092285 4.801843166351318 M15.235136985778809 5.208740711212158 C15.235136985778809 5.298761367797852 15.202764511108398 5.376579761505127 15.14150619506836 5.436717987060547 A0.3262155055999756 0.3262155055999756 0.0 0 1 14.910539627075195 5.5333380699157715 C14.82375717163086 5.5333380699157715 14.743697166442871 5.499969005584717 14.681442260742188 5.437714099884033 C14.619187355041504 5.37545919418335 14.585819244384766 5.294279098510742 14.585819244384766 5.208740711212158 C14.585819244384766 5.123077869415283 14.620307922363281 5.040777206420898 14.682561874389648 4.9775261878967285 C14.742326736450195 4.916391849517822 14.821391105651855 4.884143829345703 14.910415649414062 4.884143829345703 A0.3187449276447296 0.3187449276447296 0.0 0 1 15.140508651733398 4.979891777038574 A0.32123512029647827 0.32123512029647827 0.0 0 1 15.235136985778809 5.208740711212158 L15.235136985778809 5.208740711212158 M14.914897918701172 4.979767322540283 L14.733736038208008 4.979767322540283 L14.733736038208008 5.421030044555664 L14.872564315795898 5.421030044555664 L14.872564315795898 5.25206995010376 L14.885887145996094 5.25206995010376 L14.964950561523438 5.421030044555664 L15.115981101989746 5.421030044555664 L15.019485473632812 5.228662014007568 C15.077134132385254 5.208740711212158 15.108262062072754 5.165287017822266 15.108262062072754 5.109755516052246 C15.108262062072754 5.026458263397217 15.042769432067871 4.979767322540283 14.914897918701172 4.979767322540283 L14.914897918701172 4.979767322540283 M14.893732070922852 5.0664262771606445 C14.942663192749023 5.0664262771606445 14.965946197509766 5.0819902420043945 14.965946197509766 5.1175994873046875 C14.965946197509766 5.15196418762207 14.943784713745117 5.170889377593994 14.901451110839844 5.170889377593994 L14.872564315795898 5.170889377593994 L14.872564315795898 5.0664262771606445 L14.893732070922852 5.0664262771606445 M8.375770568847656 8.759136199951172 C9.234888076782227 6.901699542999268 10.977899551391602 4.902944564819336 12.94390869140625 4.779431343078613 C13.740273475646973 4.7295026779174805 14.425325393676758 5.15022087097168 14.429558753967285 5.865529537200928 C14.432920455932617 6.429185390472412 13.77513599395752 6.869700908660889 13.29091739654541 7.2031378746032715 C13.03928279876709 7.376330852508545 12.88215160369873 7.5752973556518555 12.870448112487793 7.784972190856934 C12.861233711242676 7.948079586029053 12.940049171447754 8.117412567138672 13.130922317504883 8.285999298095703 C13.994522094726562 9.048995018005371 14.847786903381348 9.31706428527832 14.924360275268555 10.645708084106445 C15.037166595458984 12.599266052246094 13.131918907165527 13.740147590637207 11.143248558044434 13.74525260925293 C9.534209251403809 13.749361991882324 7.890805244445801 12.747058868408203 7.892921447753906 11.109381675720215 C7.894914150238037 9.572558403015137 9.211356163024902 8.581958770751953 10.908796310424805 8.571998596191406 C12.252132415771484 8.564153671264648 13.41256332397461 9.321297645568848 13.415178298950195 10.516217231750488 C13.417792320251465 11.574052810668945 12.372906684875488 12.396688461303711 11.264521598815918 12.412376403808594 C10.315258979797363 12.425823211669922 9.366743087768555 11.875117301940918 9.3707275390625 10.895599365234375 C9.374090194702148 10.070722579956055 10.032995223999023 9.50333023071289 10.885762214660645 9.486148834228516 C11.693955421447754 9.469837188720703 12.309656143188477 10.016435623168945 12.267073631286621 10.64608097076416 C12.263213157653809 10.705970764160156 12.165971755981445 10.712943077087402 12.160741806030273 10.650066375732422 C12.117412567138672 10.131731986999512 11.51889419555664 9.737658500671387 10.876797676086426 9.767291069030762 C10.225736618041992 9.797423362731934 9.76255989074707 10.231588363647461 9.766420364379883 10.872315406799316 C9.770279884338379 11.521634101867676 10.47176742553711 12.125630378723145 11.278964042663574 12.103840827941895 C12.101226806640625 12.081429481506348 12.987735748291016 11.344456672668457 12.974039077758789 10.54136848449707 C12.95772933959961 9.578161239624023 11.833281517028809 8.95274829864502 10.905808448791504 8.958102226257324 C9.381062507629395 8.967066764831543 8.372407913208008 9.93525505065918 8.350993156433105 11.04426383972168 C8.325966835021973 12.339787483215332 9.846728324890137 13.178609848022461 11.103778839111328 13.186827659606934 C12.738592147827148 13.197410583496094 14.187013626098633 12.13098430633545 14.200461387634277 10.697876930236816 C14.212163925170898 9.486895561218262 13.527112007141113 9.281081199645996 12.811429977416992 8.547096252441406 C12.588682174682617 8.318620681762695 12.494552612304688 8.056279182434082 12.51210880279541 7.800410747528076 C12.53203010559082 7.510427951812744 12.695760726928711 7.229160308837891 12.978273391723633 7.015377521514893 C13.395132064819336 6.700118541717529 13.91969108581543 6.425948143005371 13.926912307739258 5.879225730895996 C13.932267189025879 5.486895561218262 13.529104232788086 5.169769287109375 12.985494613647461 5.150968074798584 C10.830978393554688 5.076262474060059 9.36201286315918 7.20276403427124 8.461806297302246 8.78055191040039 C8.37315559387207 8.917014122009277 8.302682876586914 8.919256210327148 8.375770568847656 8.759136199951172 L8.375770568847656 8.759136199951172" fill="black" fill-opacity="1.0" filling="0"/>
<path animation_id="3" d="M2.5712509155273438 10.881403923034668 L2.5309104919433594 11.208990097045898 L3.249704360961914 11.569445610046387 L3.249081611633301 11.574799537658691 L2.463550567626953 11.75645923614502 L2.4245786666870117 12.073336601257324 L3.4374656677246094 12.197347640991211 L3.4609975814819336 12.005852699279785 L2.6130857467651367 11.90201187133789 L3.500093460083008 11.689099311828613 L3.5215091705322266 11.515159606933594 L2.707339286804199 11.092448234558105 L3.56072998046875 11.19691276550293 L3.5842628479003906 11.005415916442871 L2.5712509155273438 10.881403923034668 L2.5712509155273438 10.881403923034668 M3.7722721099853516 10.063998222351074 L3.7320547103881836 10.252755165100098 L3.380190849304199 10.178174018859863 L3.3308849334716797 10.409387588500977 L3.6410388946533203 10.679326057434082 L3.5945968627929688 10.897217750549316 L3.2638978958129883 10.599390029907227 C3.1931772232055664 10.702484130859375 3.105771064758301 10.765734672546387 2.924485206604004 10.727510452270508 C2.728631019592285 10.685924530029297 2.620431900024414 10.572745323181152 2.666501045227051 10.356223106384277 L2.7738285064697266 9.852580070495605 L3.7722721099853516 10.063998222351074 L3.7722721099853516 10.063998222351074 M3.226919174194336 10.145676612854004 L2.8977155685424805 10.07595157623291 L2.8401918411254883 10.352612495422363 C2.816908836364746 10.46155834197998 2.8495302200317383 10.511486053466797 2.969432830810547 10.536886215209961 C3.1000442504882812 10.56452751159668 3.1459875106811523 10.525680541992188 3.1680259704589844 10.422088623046875 L3.226919174194336 10.145676612854004 M3.660088539123535 9.174375534057617 L3.7209739685058594 9.194048881530762 C3.8297958374023438 9.229284286499023 3.8414993286132812 9.290169715881348 3.7863407135009766 9.459503173828125 C3.729938507080078 9.632572174072266 3.659092903137207 9.656726837158203 3.3804397583007812 9.566457748413086 C3.088961601257324 9.471954345703125 3.057461738586426 9.418913841247559 3.1138648986816406 9.245844841003418 C3.169022560119629 9.07663631439209 3.20749568939209 9.041897773742676 3.3607664108276367 9.081616401672363 L3.4197845458984375 8.900703430175781 C3.191807746887207 8.843927383422852 3.057710647583008 8.873311042785645 2.9532470703125 9.193799018859863 C2.8492813110351562 9.512918472290039 2.9661951065063477 9.642284393310547 3.300504684448242 9.750606536865234 C3.712632179260254 9.884081840515137 3.8432416915893555 9.826433181762695 3.9468345642089844 9.508560180664062 C4.043329238891602 9.212724685668945 3.999502182006836 9.082860946655273 3.7766294479370117 9.010520935058594 L3.7196044921875 8.992094039916992 L3.660088539123535 9.174375534057617 L3.660088539123535 9.174375534057617 M3.617007255554199 8.8004732131958 C4.033369064331055 8.976655006408691 4.145551681518555 8.950383186340332 4.289236545562744 8.612837791442871 C4.422835350036621 8.298948287963867 4.375895023345947 8.17580795288086 3.958165168762207 7.999004364013672 C3.598207473754883 7.846604347229004 3.4611215591430664 7.890556335449219 3.3270254135131836 8.205565452575684 C3.191807746887207 8.523065567016602 3.257051467895508 8.648198127746582 3.617007255554199 8.8004732131958 M3.7147483825683594 8.626408576965332 C3.4111928939819336 8.49791431427002 3.4014816284179688 8.458444595336914 3.481292724609375 8.270809173583984 C3.5584888458251953 8.089523315429688 3.5969619750976562 8.06163215637207 3.900517463684082 8.19000244140625 C4.190250873565674 8.312644004821777 4.2145304679870605 8.359832763671875 4.1347198486328125 8.547470092773438 C4.054784774780273 8.734856605529785 4.010707855224609 8.751665115356445 3.7147483825683594 8.626408576965332 L3.7147483825683594 8.626408576965332 M4.100728511810303 6.7974853515625 L3.653614044189453 7.539189338684082 L4.528419494628906 8.063251495361328 L4.629521369934082 7.895536422729492 L3.89840030670166 7.4575114250183105 L4.143311023712158 7.051111698150635 L4.874431610107422 7.489136695861816 L4.975533962249756 7.3214216232299805 L4.100728511810303 6.7974853515625 M4.48284912109375 6.51185941696167 L4.778434753417969 6.1063313484191895 L4.647202014923096 6.011330604553223 L4.237937927246094 6.572869777679443 L5.063562393188477 7.170889377593994 L5.475191593170166 6.6059889793396 L5.345078945159912 6.51185941696167 L5.047126770019531 6.92062520980835 L4.8156633377075195 6.752910614013672 L5.096681594848633 6.3671793937683105 L4.978771209716797 6.281765460968018 L4.697752475738525 6.667496681213379 L4.48284912109375 6.51185941696167 L4.48284912109375 6.51185941696167 M5.557118892669678 6.483969688415527 L5.6884765625 6.338666915893555 L5.439457416534424 6.115046977996826 L5.610782623291016 5.925294399261475 C5.79032564163208 5.726452350616455 5.801531791687012 5.608541488647461 5.5939741134643555 5.422150611877441 C5.386416435241699 5.235883712768555 5.256427764892578 5.296520233154297 5.089584827423096 5.481292247772217 L4.798730373382568 5.803275108337402 L5.557118892669678 6.483969688415527 L5.557118892669678 6.483969688415527 M5.317811012268066 6.005852222442627 L5.052480697631836 5.767665386199951 L5.213970184326172 5.588869094848633 C5.303243637084961 5.4900078773498535 5.364626884460449 5.482911109924316 5.473946571350098 5.581149578094482 C5.574176788330078 5.671045303344727 5.5684494972229 5.7281951904296875 5.479176044464111 5.827055931091309 L5.317811012268066 6.005852222442627 L5.317811012268066 6.005852222442627 M5.752350330352783 5.0254621505737305 L6.120027542114258 4.683558940887451 L6.009462833404541 4.565274238586426 L5.50034236907959 5.038660049438477 L6.196227550506592 5.782855033874512 L6.708335876464844 5.306605339050293 L6.5987677574157715 5.189441680908203 L6.227977752685547 5.534084320068359 L6.032870769500732 5.325406551361084 L6.3826189041137695 5.000186920166016 L6.283259868621826 4.893855571746826 L5.933511734008789 5.2189507484436035 L5.752350330352783 5.0254621505737305 L5.752350330352783 5.0254621505737305 M6.8248772621154785 5.205877304077148 L6.981635093688965 5.088215351104736 L6.779929161071777 4.821390628814697 L6.984498977661133 4.66762113571167 C7.198780059814453 4.5066304206848145 7.23239803314209 4.392952919006348 7.064309597015381 4.170578479766846 C6.896097183227539 3.9482040405273438 6.757019519805908 3.9829416275024414 6.557928085327148 4.132603168487549 L6.210794925689697 4.393450736999512 L6.8248772621154785 5.205877304077148 L6.8248772621154785 5.205877304077148 M6.681441783905029 4.691153526306152 L6.466538429260254 4.406898021697998 L6.659154891967773 4.2622175216674805 C6.765735149383545 4.182033538818359 6.827367305755615 4.186764717102051 6.9158935546875 4.303928375244141 C6.997074127197266 4.411255836486816 6.98063850402832 4.466289043426514 6.874058723449707 4.546349048614502 L6.681441783905029 4.691153526306152 M8.055904388427734 4.151403903961182 L8.207557678222656 4.289609909057617 L8.381498336791992 4.193488121032715 L7.584137439727783 3.4708337783813477 L7.332627773284912 3.609786033630371 L7.5307230949401855 4.663637161254883 L7.708273887634277 4.565523147583008 L7.669800281524658 4.364689350128174 L8.055904388427734 4.151403903961182 L8.055904388427734 4.151403903961182 M7.945838451385498 4.0459442138671875 L7.638423919677734 4.21589994430542 L7.533959865570068 3.669426918029785 L7.945838451385498 4.0459442138671875 M8.474756240844727 4.137707710266113 L8.953869819641113 3.9350051879882812 C9.126937866210938 3.8617944717407227 9.174375534057617 3.7192306518554688 9.098176002502441 3.540433883666992 C9.021478652954102 3.3602685928344727 8.883646011352539 3.290294647216797 8.708087921142578 3.364626884460449 L8.410882949829102 3.4903812408447266 L8.318744659423828 3.2741079330444336 L8.795368194580078 3.0724029541015625 L8.731992721557617 2.923738479614258 L8.075950622558594 3.20127010345459 L8.474756240844727 4.137707710266113 L8.474756240844727 4.137707710266113 M8.590799331665039 3.913092613220215 L8.474132537841797 3.639171600341797 L8.709955215454102 3.5393142700195312 C8.814044952392578 3.495237350463867 8.871941566467285 3.506070137023926 8.917512893676758 3.616758346557617 C8.96395492553711 3.725581169128418 8.931831359863281 3.768660545349121 8.820269584655762 3.8158493041992188 L8.590799331665039 3.913092613220215 M9.910726547241211 3.4201583862304688 L10.030256271362305 3.586751937866211 L10.220382690429688 3.528855323791504 L9.591110229492188 2.6566638946533203 L9.316192626953125 2.740459442138672 L9.290169715881348 3.812363624572754 L9.484280586242676 3.753096580505371 L9.488513946533203 3.5486526489257812 L9.910726547241211 3.4201583862304688 L9.910726547241211 3.4201583862304688 M9.825064659118652 3.294154167175293 L9.488887786865234 3.396625518798828 L9.500716209411621 2.8404407501220703 L9.825064659118652 3.294154167175293 M10.572247505187988 3.480297088623047 L10.768349647521973 3.456266403198242 L10.66475772857666 2.6149539947509766 L10.964950561523438 2.57822322845459 L10.944157600402832 2.409637451171875 L10.15439224243164 2.506256103515625 L10.175185203552246 2.6748428344726562 L10.468530654907227 2.638983726501465 L10.572247505187988 3.480297088623047 L10.572247505187988 3.480297088623047 M11.182344436645508 3.382929801940918 L11.702795028686523 3.37384033203125 C11.888065338134766 3.370603561401367 11.990911483764648 3.2546844482421875 11.987548828125 3.0604496002197266 C11.984187126159668 2.866213798522949 11.877233505249023 2.7499217987060547 11.689224243164062 2.753159523010254 L11.3677396774292 2.7586374282836914 L11.360767364501953 2.3634443283081055 L11.164664268493652 2.3668060302734375 L11.182344436645508 3.382929801940918 M11.37570858001709 3.217829704284668 L11.370478630065918 2.920376777648926 L11.62671947479248 2.9158935546875 C11.739774703979492 2.9139013290405273 11.789453506469727 2.947021484375 11.791446685791016 3.0651817321777344 C11.793438911437988 3.1833410263061523 11.750358581542969 3.211231231689453 11.631824493408203 3.2132225036621094 L11.37570858001709 3.217829704284668 M12.343025207519531 2.346510887145996 L12.146797180175781 2.349872589111328 L12.16460132598877 3.3657474517822266 L12.36082935333252 3.3623857498168945 L12.343025207519531 2.346510887145996 L12.343025207519531 2.346510887145996 M12.836954116821289 2.5693836212158203 L13.115358352661133 2.6034984588623047 C13.209985733032227 2.6150779724121094 13.248832702636719 2.645832061767578 13.237005233764648 2.741455078125 C13.222187995910645 2.8628530502319336 13.17375373840332 2.8761749267578125 13.050738334655762 2.86098575592041 L12.804581642150879 2.8309783935546875 L12.836954116821289 2.5693836212158203 L12.836954116821289 2.5693836212158203 M12.78677749633789 2.975285530090332 L13.067920684814453 3.0097732543945312 C13.180228233337402 3.023469924926758 13.221315383911133 3.058582305908203 13.207744598388672 3.1677770614624023 C13.194173812866211 3.2797107696533203 13.126564979553223 3.3043642044067383 12.997820854187012 3.2885513305664062 L12.751666069030762 3.2585439682006836 L12.78677749633789 2.975285530090332 M12.540247917175293 3.3953800201416016 L13.075763702392578 3.4608726501464844 C13.271742820739746 3.484903335571289 13.37882137298584 3.3844242095947266 13.400858879089355 3.2064990997314453 C13.416671752929688 3.0770092010498047 13.367116928100586 2.988856315612793 13.26103401184082 2.9581031799316406 L13.262030601501465 2.951253890991211 C13.368361473083496 2.9355669021606445 13.420781135559082 2.8543853759765625 13.43547248840332 2.73709774017334 C13.45738697052002 2.559048652648926 13.365249633789062 2.471144676208496 13.183838844299316 2.4489822387695312 L12.664633750915527 2.3854827880859375 L12.540247917175293 3.3953800201416016 M14.180788040161133 3.5083112716674805 L14.197099685668945 3.7125072479248047 L14.390213012695312 3.7605676651000977 L14.301189422607422 2.689908027648926 L14.022287368774414 2.6205568313598633 L13.446430206298828 3.525991439819336 L13.643404960632324 3.574923515319824 L13.752599716186523 3.401979446411133 L14.180788040161133 3.5083112716674805 L14.180788040161133 3.5083112716674805 M14.172445297241211 3.3562850952148438 L13.831289291381836 3.271493911743164 L14.128743171691895 2.800847053527832 L14.172445297241211 3.3562850952148438 L14.172445297241211 3.3562850952148438 M14.899333953857422 3.336611747741699 L15.062939643859863 2.952749252319336 L14.88227653503418 2.8762998580932617 L14.483470916748047 3.8128623962402344 L14.664134979248047 3.889310836791992 L14.83434009552002 3.4891366958618164 L15.040029525756836 3.5762929916381836 C14.90842342376709 3.9307727813720703 14.954367637634277 4.024279594421387 15.26613998413086 4.157629013061523 C15.579654693603516 4.290232181549072 15.705286026000977 4.245782375335693 15.882338523864746 3.8294219970703125 C16.037975311279297 3.4642343521118164 15.989541053771973 3.3346195220947266 15.673909187316895 3.199650764465332 C15.358028411865234 3.0658035278320312 15.247339248657227 3.1342830657958984 15.104900360107422 3.42364501953125 L14.899333953857422 3.336611747741699 L14.899333953857422 3.336611747741699 M15.251945495605469 3.586130142211914 C15.379318237304688 3.287430763244629 15.423147201538086 3.274855613708496 15.60866641998291 3.353421211242676 C15.79368782043457 3.4333572387695312 15.819958686828613 3.4723281860351562 15.689598083496094 3.7714004516601562 C15.56247329711914 4.070348262786865 15.517898559570312 4.080931663513184 15.331880569458008 4.003735065460205 C15.146112442016602 3.925045967102051 15.124820709228516 3.885077476501465 15.251945495605469 3.586130142211914 M15.814480781555176 4.411504745483398 L16.9092960357666 5.175869941711426 L16.774076461791992 5.3684868812561035 L16.923612594604492 5.47282600402832 L17.154829025268555 5.143248558044434 L17.080121994018555 5.091078758239746 L17.56944465637207 4.394446849822998 L17.408702850341797 4.282388210296631 L16.91938018798828 4.978895664215088 L16.575733184814453 4.7389655113220215 L17.064807891845703 4.042333602905273 L16.90406608581543 3.930150032043457 L16.41499137878418 4.626657485961914 L16.071094512939453 4.386727333068848 L16.5604190826416 3.6902198791503906 L16.399677276611328 3.5779123306274414 L15.814480781555176 4.411504745483398 L15.814480781555176 4.411504745483398 M18.463924407958984 5.250824928283691 L17.767913818359375 5.994894981384277 L17.62447738647461 5.861545085906982 L18.08342170715332 5.3707275390625 C18.10483741760254 5.347942352294922 18.15688133239746 5.2922868728637695 18.217891693115234 5.248832702636719 C18.13222885131836 5.280707359313965 18.090518951416016 5.295523643493652 18.04183578491211 5.31370210647583 L17.319555282592773 5.578160762786865 L17.114360809326172 5.3874125480651855 L17.810123443603516 4.64321756362915 L17.953807830810547 4.776691913604736 L17.49660873413086 5.265392780303955 C17.47519302368164 5.288302421569824 17.423147201538086 5.343957901000977 17.361888885498047 5.3874125480651855 C17.447673797607422 5.3555378913879395 17.48950958251953 5.340721130371094 17.537944793701172 5.322542667388916 L18.258731842041016 5.0600762367248535 L18.463924407958984 5.250824928283691 L18.463924407958984 5.250824928283691 M19.240116119384766 6.194982528686523 L18.445619583129883 6.836207389831543 L18.322357177734375 6.684180736541748 L18.846418380737305 6.261096954345703 C18.869823455810547 6.242295742034912 18.931331634521484 6.192492485046387 18.996702194213867 6.15887451171875 C18.908672332763672 6.17755126953125 18.863723754882812 6.187511920928955 18.814292907714844 6.197845935821533 L18.059890747070312 6.361202716827393 L17.883087158203125 6.143684387207031 L18.677581787109375 5.502459526062012 L18.800846099853516 5.654485702514648 L18.27927589416504 6.075577735900879 C18.25586700439453 6.094378471374512 18.194610595703125 6.1439337730407715 18.129987716674805 6.176928520202637 C18.2182674407959 6.158002853393555 18.262964248657227 6.14829158782959 18.312395095825195 6.1379570960998535 L19.063312530517578 5.977339267730713 L19.240116119384766 6.194982528686523 M18.990848541259766 5.793065071105957 C19.075763702392578 5.897528648376465 19.16889762878418 5.949946880340576 19.290668487548828 5.8515849113464355 L19.21359634399414 5.7565836906433105 C19.16466522216797 5.795928478240967 19.138267517089844 5.791072845458984 19.080869674682617 5.720351219177246 C19.028575897216797 5.655979633331299 19.029321670532227 5.628961086273193 19.07825469970703 5.589740753173828 L18.998443603515625 5.491626739501953 C18.876548767089844 5.58998966217041 18.908424377441406 5.69183874130249 18.990848541259766 5.793065071105957 L18.990848541259766 5.793065071105957 M19.5947208404541 7.547033309936523 L19.466102600097656 7.615264892578125 L19.55512809753418 7.781983375549316 C19.60816764831543 7.881591320037842 19.599576950073242 7.95231294631958 19.499719619750977 8.005105018615723 C19.398618698120117 8.058769226074219 19.34122085571289 8.02303409576416 19.257299423217773 7.866027355194092 C19.15619659423828 7.676523685455322 19.197036743164062 7.6456451416015625 19.313453674316406 7.580775737762451 L19.227169036865234 7.418912887573242 L19.189939498901367 7.4387102127075195 C18.968685150146484 7.5559983253479 19.00031089782715 7.711511135101318 19.12108612060547 7.938243389129639 C19.278467178344727 8.233331680297852 19.405094146728516 8.264583587646484 19.586753845214844 8.168336868286133 C19.703540802001953 8.106456756591797 19.74313735961914 8.042333602905273 19.712507247924805 7.909357070922852 L19.717363357543945 7.906867027282715 C19.79779624938965 7.985681533813477 19.87051010131836 7.988794803619385 19.996763229370117 7.921808242797852 C20.155513763427734 7.837639808654785 20.166221618652344 7.684243202209473 20.04220962524414 7.451534748077393 C19.909730911254883 7.2032623291015625 19.804645538330078 7.142003536224365 19.578659057617188 7.2418599128723145 L19.66619110107422 7.406088352203369 C19.775634765625 7.351180076599121 19.82381820678711 7.3687357902526855 19.905498504638672 7.522256374359131 C19.981075286865234 7.66382360458374 19.974599838256836 7.724210739135742 19.87611198425293 7.776505470275879 C19.788333892822266 7.8230719566345215 19.725830078125 7.792940616607666 19.668928146362305 7.686235427856445 L19.5947208404541 7.547033309936523 L19.5947208404541 7.547033309936523 M19.806262969970703 8.938305854797363 L19.652618408203125 9.074145317077637 L19.730186462402344 9.25680160522461 L20.53439712524414 8.541617393493652 L20.422088623046875 8.27778148651123 L19.350183486938477 8.363943099975586 L19.429746627807617 8.550333023071289 L19.634065628051758 8.533150672912598 L19.806262969970703 8.938305854797363 L19.806262969970703 8.938305854797363 M19.923051834106445 8.840191841125488 L19.785594940185547 8.517586708068848 L20.341529846191406 8.471145629882812 L19.923051834106445 8.840191841125488 L19.923051834106445 8.840191841125488 M20.623920440673828 9.284193992614746 L20.710453033447266 9.550395965576172 C20.74008560180664 9.640913963317871 20.72850799560547 9.688850402832031 20.636493682861328 9.718732833862305 C20.519702911376953 9.756584167480469 20.487455368041992 9.718483924865723 20.44898223876953 9.600946426391602 L20.37240982055664 9.365747451782227 L20.623920440673828 9.284193992614746 L20.623920440673828 9.284193992614746 M20.233829498291016 9.410696029663086 L20.321359634399414 9.679387092590332 C20.356348037719727 9.786590576171875 20.341779708862305 9.838510513305664 20.2366943359375 9.872502326965332 C20.129241943359375 9.907364845275879 20.078441619873047 9.85681438446045 20.038223266601562 9.734046936035156 L19.961652755737305 9.498848915100098 L20.233829498291016 9.410696029663086 L20.233829498291016 9.410696029663086 M19.747743606567383 9.365249633789062 L19.914587020874023 9.876859664916992 C19.975597381591797 10.064247131347656 20.112058639526367 10.118409156799316 20.283260345458984 10.063126564025879 C20.407520294189453 10.022785186767578 20.46691131591797 9.940732955932617 20.450103759765625 9.832036972045898 L20.456453323364258 9.829919815063477 C20.51584243774414 9.919318199157715 20.61184310913086 9.932516098022461 20.724397659301758 9.896035194396973 C20.895349502563477 9.840627670288086 20.936439514160156 9.720102310180664 20.880035400390625 9.54703426361084 L20.71829605102539 9.050987243652344 L19.747743606567383 9.365249633789062 L19.747743606567383 9.365249633789062 M20.561416625976562 10.198966979980469 C20.116168975830078 10.277283668518066 20.036357879638672 10.360206604003906 20.100107192993164 10.721534729003906 C20.159744262695312 11.057212829589844 20.266202926635742 11.135030746459961 20.713191986083984 11.056466102600098 C21.098175048828125 10.98885726928711 21.189319610595703 10.877544403076172 21.12955093383789 10.540496826171875 C21.069414138793945 10.20071029663086 20.946521759033203 10.131234169006348 20.561416625976562 10.198966979980469 M20.57448959350586 10.39805793762207 C20.899085998535156 10.34090805053711 20.929092407226562 10.36879825592041 20.964576721191406 10.569507598876953 C20.998817443847656 10.763493537902832 20.981884002685547 10.807819366455078 20.657163619995117 10.864969253540039 C20.34713363647461 10.919504165649414 20.300939559936523 10.893108367919922 20.265453338623047 10.692399024963379 C20.229969024658203 10.491689682006836 20.25786018371582 10.453713417053223 20.57448959350586 10.39805793762207 L20.57448959350586 10.39805793762207 M20.3739013671875 11.301749229431152 L20.368549346923828 11.2244291305542 L19.96613311767578 11.252568244934082 L19.979084014892578 11.435473442077637 L20.21453094482422 11.419037818908691 L20.259479522705078 12.062753677368164 L20.024280548095703 12.079188346862793 L20.03697967529297 12.260724067687988 L20.439395904541016 12.232584953308105 L20.43304443359375 12.141816139221191 L21.283945083618164 12.082550048828125 L21.232398986816406 11.348067283630371 L20.8034610748291 11.377949714660645 C20.576480865478516 11.391022682189941 20.46367645263672 11.375832557678223 20.3739013671875 11.301749229431152 L20.3739013671875 11.301749229431152 M21.078380584716797 11.549399375915527 L21.102909088134766 11.899023056030273 L20.419349670410156 11.946585655212402 L20.388469696044922 11.507563591003418 C20.477493286132812 11.572184562683105 20.610471725463867 11.58189582824707 20.81653594970703 11.567577362060547 L21.078380584716797 11.549399375915527 L21.078380584716797 11.549399375915527" fill="black" fill-opacity="1.0" filling="0"/>
<path animation_id="4" d="M3.9926538467407227 18.03386688232422 C3.9926538467407227 18.726638793945312 3.92330265045166 19.252193450927734 3.783477783203125 19.61028480529785 C3.6448984146118164 19.96986961364746 3.4423208236694336 20.148788452148438 3.176990509033203 20.148788452148438 C3.0253372192382812 20.148788452148438 2.8919878005981445 20.088775634765625 2.775570869445801 19.96849822998047 A0.9038162231445312 0.9038162231445312 0.0 0 1 2.7387170791625977 19.927783966064453 C2.8413124084472656 20.013322830200195 2.956234931945801 20.0560302734375 3.083981513977051 20.0560302734375 C3.3493127822875977 20.0560302734375 3.551889419555664 19.876983642578125 3.690593719482422 19.51752471923828 C3.8261852264404297 19.170143127441406 3.8954124450683594 18.66562843322754 3.8995208740234375 18.003734588623047 L3.9926538467407227 18.003734588623047 L3.9926538467407227 18.03386688232422 M3.8068857192993164 17.848098754882812 C3.8068857192993164 18.540870666503906 3.7376575469970703 19.06642723083496 3.5977087020874023 19.424640655517578 C3.4591293334960938 19.784099578857422 3.2565526962280273 19.963146209716797 2.991098403930664 19.963146209716797 C2.839569091796875 19.963146209716797 2.706094741821289 19.903133392333984 2.589801788330078 19.782855987548828 C2.47475528717041 19.663822174072266 2.375396728515625 19.4887638092041 2.293095588684082 19.258544921875 C2.2120399475097656 19.02845001220703 2.1479177474975586 18.743446350097656 2.1035919189453125 18.405031204223633 A9.655232429504395 9.655232429504395 0.0 0 1 2.024404525756836 17.088714599609375 C2.0297584533691406 16.448734283447266 2.10159969329834 15.800909042358398 2.251260757446289 15.221939086914062 C2.4062747955322266 14.622549057006836 2.64608097076416 14.32260513305664 2.975534439086914 14.32260513305664 C3.212101936340332 14.32260513305664 3.355910301208496 14.505634307861328 3.4042205810546875 14.870199203491211 L3.4263830184936523 14.870199203491211 L3.618502616882324 14.344642639160156 L3.725705146789551 14.344642639160156 L3.725705146789551 16.484716415405273 L3.469463348388672 16.484716415405273 C3.469463348388672 16.259727478027344 3.4521570205688477 15.991036415100098 3.3376083374023438 15.789703369140625 A0.3568449318408966 0.3568449318408966 0.0 0 0 3.1833410263061523 15.756584167480469 C2.97939395904541 15.756584167480469 2.830355644226074 15.883459091186523 2.734980583190918 16.1370849609375 C2.6408519744873047 16.391956329345703 2.59378719329834 16.784162521362305 2.59378719329834 17.314823150634766 C2.59378719329834 17.68735694885254 2.613459587097168 17.976219177246094 2.6526803970336914 18.181533813476562 C2.68032169342041 18.322107315063477 2.7199153900146484 18.43578338623047 2.772085189819336 18.524311065673828 C2.8494062423706055 18.566768646240234 2.9402971267700195 18.588058471679688 3.0447616577148438 18.588058471679688 C3.2133474349975586 18.588058471679688 3.3362388610839844 18.52916717529297 3.412064552307129 18.41162872314453 C3.4539003372192383 18.35024642944336 3.4865217208862305 18.270435333251953 3.510178565979004 18.17107582092285 C3.5349559783935547 18.070348739624023 3.5467844009399414 17.954055786132812 3.5467844009399414 17.81796646118164 L3.8068857192993164 17.81796646118164 L3.8068857192993164 17.848098754882812 L3.8068857192993164 17.848098754882812 M3.297764778137207 15.727822303771973 C3.2198219299316406 15.622859954833984 3.120089530944824 15.570815086364746 2.9976959228515625 15.570815086364746 C2.7937488555908203 15.570815086364746 2.6448354721069336 15.6976900100708 2.5493364334106445 15.951192855834961 C2.4552078247070312 16.206188201904297 2.40814208984375 16.598270416259766 2.40814208984375 17.12905502319336 C2.40814208984375 17.501712799072266 2.4276914596557617 17.790451049804688 2.4669113159179688 17.99576759338379 C2.5075016021728516 18.202327728271484 2.5741147994995117 18.351242065429688 2.6682443618774414 18.446741104125977 C2.683932304382324 18.462181091308594 2.7004919052124023 18.476375579833984 2.7177982330322266 18.489322662353516 C2.6462059020996094 18.394695281982422 2.59378719329834 18.26197052001953 2.559795379638672 18.088651657104492 C2.5205745697021484 17.883459091186523 2.5010271072387695 17.594348907470703 2.5010271072387695 17.221939086914062 C2.5010271072387695 16.691152572631836 2.547966957092285 16.298948287963867 2.642096519470215 16.044076919555664 C2.737595558166504 15.79057502746582 2.8865089416503906 15.663700103759766 3.090456008911133 15.663700103759766 C3.1688966751098633 15.663824081420898 3.237751007080078 15.685114860534668 3.297764778137207 15.727822303771973 L3.297764778137207 15.727822303771973 M3.818714141845703 14.530410766601562 L3.9115982055664062 14.530410766601562 L3.9115982055664062 16.670360565185547 L3.6553573608398438 16.670360565185547 C3.6553573608398438 16.63861083984375 3.6548585891723633 16.607730865478516 3.6539878845214844 16.57760238647461 L3.818714141845703 16.57760238647461 L3.818714141845703 14.530410766601562 L3.818714141845703 14.530410766601562 M20.910789489746094 15.673410415649414 C21.673412322998047 15.673410415649414 21.673660278320312 14.26358699798584 21.67416000366211 13.820208549499512 L21.581024169921875 13.820208549499512 C21.57766342163086 14.339786529541016 21.53333854675293 15.580527305603027 20.818153381347656 15.580527305603027 C20.685176849365234 15.580527305603027 20.575485229492188 15.53769588470459 20.484716415405273 15.464609146118164 C20.590301513671875 15.592977523803711 20.728879928588867 15.673410415649414 20.910789489746094 15.673410415649414 L20.910789489746094 15.673410415649414 M20.495174407958984 14.228102684020996 C20.431427001953125 14.107327461242676 20.411006927490234 13.956795692443848 20.408143997192383 13.820208549499512 L20.320114135742188 13.820208549499512 C20.331321716308594 13.953682899475098 20.363693237304688 14.09089183807373 20.43927001953125 14.194732666015625 C20.270309448242188 14.073709487915039 20.226734161376953 13.838760375976562 20.222373962402344 13.634439468383789 L19.96190071105957 13.634439468383789 C19.962398529052734 14.077818870544434 19.962646484375 15.487642288208008 20.725269317626953 15.487642288208008 C21.48764419555664 15.487642288208008 21.487892150878906 14.077818870544434 21.48838996887207 13.634439468383789 L21.227916717529297 13.634439468383789 C21.221813201904297 13.924423217773438 21.13677215576172 14.276288032531738 20.725269317626953 14.276288032531738 C20.633132934570312 14.276288032531738 20.557430267333984 14.258855819702148 20.495174407958984 14.228102684020996 L20.495174407958984 14.228102684020996 M21.97572135925293 20.045570373535156 L21.30909538269043 20.045570373535156 L21.30909538269043 19.95281219482422 L21.882713317871094 19.95281219482422 L21.882713317871094 18.938430786132812 L21.975595474243164 18.938430786132812 L21.975595474243164 20.045570373535156 L21.97572135925293 20.045570373535156 M21.17001724243164 19.859928131103516 A0.7964888215065002 0.7964888215065002 0.0 0 1 21.144245147705078 19.904376983642578 C21.056964874267578 20.044574737548828 20.943161010742188 20.118907928466797 20.79262924194336 20.118907928466797 C20.665504455566406 20.118907928466797 20.561664581298828 20.06499481201172 20.481355667114258 19.95779037475586 C20.544357299804688 20.00311279296875 20.617069244384766 20.025897979736328 20.699745178222656 20.025897979736328 C20.850276947021484 20.025897979736328 20.964080810546875 19.951814651489258 21.051361083984375 19.811492919921875 C21.072776794433594 19.777502059936523 21.09705352783203 19.7318058013916 21.12332534790039 19.67391014099121 L21.12332534790039 19.34234046936035 C21.06182098388672 19.52400016784668 21.003173828125 19.647014617919922 20.958477020263672 19.718732833862305 C20.87119483947754 19.858930587768555 20.75739288330078 19.93313980102539 20.606861114501953 19.93313980102539 C20.261844635009766 19.93313980102539 20.089399337768555 19.538318634033203 20.089399337768555 18.75004768371582 L20.089399337768555 17.130422592163086 C20.089399337768555 17.107887268066406 20.08864974975586 17.087095260620117 20.0869083404541 17.068044662475586 A0.6546722054481506 0.6546722054481506 0.0 0 0 20.03847312927246 17.066425323486328 L19.90761375427246 17.066425323486328 L19.90761375427246 16.973541259765625 L19.945589065551758 16.973541259765625 C19.998132705688477 16.973541259765625 20.040964126586914 16.978397369384766 20.073461532592773 16.987735748291016 A0.14816659688949585 0.14816659688949585 0.0 0 0 20.044824600219727 16.930335998535156 C20.016185760498047 16.897716522216797 19.951940536499023 16.880657196044922 19.852706909179688 16.880657196044922 L19.721845626831055 16.880657196044922 L19.721845626831055 15.880720138549805 L20.43441390991211 15.880720138549805 L20.43441390991211 18.486085891723633 C20.43441390991211 18.608726501464844 20.455333709716797 18.693893432617188 20.495922088623047 18.742328643798828 C20.511486053466797 18.761003494262695 20.532901763916016 18.776193618774414 20.560169219970703 18.78777313232422 C20.538257598876953 18.738094329833984 20.527299880981445 18.668493270874023 20.527299880981445 18.578845977783203 L20.527299880981445 16.066364288330078 L20.620182037353516 16.066364288330078 L20.620182037353516 18.671730041503906 C20.620182037353516 18.723899841308594 20.623794555664062 18.76909637451172 20.631389617919922 18.807819366455078 C20.661022186279297 18.81279945373535 20.694889068603516 18.815540313720703 20.73249053955078 18.815540313720703 C20.8289852142334 18.815540313720703 20.918010711669922 18.789766311645508 20.99246597290039 18.73448371887207 C21.065677642822266 18.680072784423828 21.09967041015625 18.608976364135742 21.09967041015625 18.526676177978516 L21.09967041015625 17.13054847717285 C21.09967041015625 17.107763290405273 21.098922729492188 17.08684539794922 21.097679138183594 17.067920684814453 A0.7709643244743347 0.7709643244743347 0.0 0 0 21.051485061645508 17.066551208496094 L20.918010711669922 17.066551208496094 L20.918010711669922 16.97366714477539 L20.958599090576172 16.97366714477539 C21.011394500732422 16.97366714477539 21.053478240966797 16.978023529052734 21.085351943969727 16.986116409301758 C21.07825469970703 16.9592227935791 21.069042205810547 16.939552307128906 21.05783462524414 16.92660140991211 C21.03281021118164 16.897838592529297 20.970306396484375 16.880783081054688 20.86571502685547 16.880783081054688 L20.73249053955078 16.880783081054688 L20.73249053955078 15.880844116210938 L21.452781677246094 15.880844116210938 L21.452781677246094 18.484840393066406 C21.452781677246094 18.602378845214844 21.46585464477539 18.67422103881836 21.49050521850586 18.703107833862305 C21.503828048706055 18.718669891357422 21.52574348449707 18.730749130249023 21.55587387084961 18.73971176147461 L21.559484481811523 18.74070930480957 C21.550270080566406 18.702484130859375 21.5454158782959 18.64844512939453 21.5454158782959 18.577600479125977 L21.5454158782959 16.06648826599121 L21.63829803466797 16.06648826599121 L21.63829803466797 18.67048454284668 C21.63829803466797 18.70061683654785 21.639297485351562 18.727760314941406 21.640914916992188 18.751789093017578 C21.65386199951172 18.752412796020508 21.667932510375977 18.75278663635254 21.682750701904297 18.75278663635254 L21.789703369140625 18.75278663635254 L21.789703369140625 19.860050201416016 L21.17001724243164 19.860050201416016 L21.17001724243164 19.859928131103516 L21.17001724243164 19.859928131103516 M20.005477905273438 20.045570373535156 L19.33885383605957 20.045570373535156 L19.33885383605957 19.95281219482422 L19.9124698638916 19.95281219482422 L19.9124698638916 18.938430786132812 L20.005355834960938 18.938430786132812 L20.005355834960938 20.045570373535156 L20.005477905273438 20.045570373535156 M19.19977569580078 19.859928131103516 A0.7964888215065002 0.7964888215065002 0.0 0 1 19.17400360107422 19.904376983642578 C19.086721420288086 20.044574737548828 18.972919464111328 20.118907928466797 18.8223876953125 20.118907928466797 C18.695262908935547 20.118907928466797 18.59154510498047 20.06499481201172 18.511112213134766 19.95779037475586 C18.574113845825195 20.00311279296875 18.646827697753906 20.025897979736328 18.729751586914062 20.025897979736328 C18.880035400390625 20.025897979736328 18.99383544921875 19.951814651489258 19.081119537353516 19.811492919921875 C19.1025333404541 19.777502059936523 19.126813888549805 19.7318058013916 19.153085708618164 19.67391014099121 L19.153085708618164 19.34234046936035 C19.091577529907227 19.52400016784668 19.03318214416504 19.647014617919922 18.988483428955078 19.718732833862305 C18.900951385498047 19.858930587768555 18.787151336669922 19.93313980102539 18.63686752319336 19.93313980102539 C18.291851043701172 19.93313980102539 18.119155883789062 19.538318634033203 18.119155883789062 18.75004768371582 L18.119155883789062 17.130422592163086 C18.119155883789062 17.107887268066406 18.118410110473633 17.087095260620117 18.116914749145508 17.068044662475586 A0.6663761734962463 0.6663761734962463 0.0 0 0 18.068233489990234 17.066425323486328 L17.93737030029297 17.066425323486328 L17.93737030029297 16.973541259765625 L17.9753475189209 16.973541259765625 C18.027891159057617 16.973541259765625 18.070720672607422 16.978397369384766 18.10346794128418 16.987735748291016 A0.15190188586711884 0.15190188586711884 0.0 0 0 18.074581146240234 16.930335998535156 C18.045944213867188 16.897716522216797 17.98169708251953 16.880657196044922 17.882463455200195 16.880657196044922 L17.751604080200195 16.880657196044922 L17.751604080200195 15.880720138549805 L18.46417236328125 15.880720138549805 L18.46417236328125 18.486085891723633 C18.46417236328125 18.60885238647461 18.485090255737305 18.693893432617188 18.525680541992188 18.742328643798828 C18.541244506835938 18.761003494262695 18.562660217285156 18.776193618774414 18.589927673339844 18.78777313232422 C18.568262100219727 18.73797035217285 18.557056427001953 18.668493270874023 18.557056427001953 18.578845977783203 L18.557056427001953 16.066364288330078 L18.649940490722656 16.066364288330078 L18.649940490722656 18.671730041503906 C18.649940490722656 18.723899841308594 18.65355110168457 18.76909637451172 18.661148071289062 18.807819366455078 C18.690780639648438 18.81279945373535 18.724645614624023 18.815540313720703 18.762248992919922 18.815540313720703 C18.858745574951172 18.815540313720703 18.947769165039062 18.789766311645508 19.022476196289062 18.73448371887207 C19.09543800354004 18.680072784423828 19.12942886352539 18.608976364135742 19.12942886352539 18.526676177978516 L19.12942886352539 17.13054847717285 C19.12942886352539 17.107763290405273 19.128681182861328 17.08684539794922 19.1274356842041 17.067920684814453 A0.7647388577461243 0.7647388577461243 0.0 0 0 19.08124351501465 17.066551208496094 L18.948017120361328 17.066551208496094 L18.948017120361328 16.97366714477539 L18.988359451293945 16.97366714477539 C19.04115104675293 16.97366714477539 19.083234786987305 16.978023529052734 19.115108489990234 16.986116409301758 C19.108013153076172 16.9592227935791 19.098798751831055 16.939552307128906 19.08759307861328 16.92660140991211 C19.06256675720215 16.897838592529297 19.000062942504883 16.880783081054688 18.895475387573242 16.880783081054688 L18.762248992919922 16.880783081054688 L18.762248992919922 15.880844116210938 L19.4825382232666 15.880844116210938 L19.4825382232666 18.484840393066406 C19.4825382232666 18.602378845214844 19.4956111907959 18.67422103881836 19.5205135345459 18.703107833862305 C19.533586502075195 18.718669891357422 19.555747985839844 18.730749130249023 19.58563232421875 18.73971176147461 L19.58924102783203 18.74070930480957 C19.580028533935547 18.702484130859375 19.575422286987305 18.64844512939453 19.575422286987305 18.577600479125977 L19.575422286987305 16.06648826599121 L19.668058395385742 16.06648826599121 L19.668058395385742 18.67048454284668 C19.668058395385742 18.70061683654785 19.66905403137207 18.727760314941406 19.670671463012695 18.751789093017578 C19.68362045288086 18.752412796020508 19.697689056396484 18.75278663635254 19.712507247924805 18.75278663635254 L19.819711685180664 18.75278663635254 L19.819711685180664 19.860050201416016 L19.19977569580078 19.860050201416016 L19.19977569580078 19.859928131103516 L19.19977569580078 19.859928131103516 M17.793190002441406 20.045570373535156 L16.90406608581543 20.045570373535156 L16.90406608581543 19.95281219482422 L17.700305938720703 19.95281219482422 L17.700305938720703 18.93942642211914 C17.72856903076172 18.943784713745117 17.759695053100586 18.94627571105957 17.793190002441406 18.94627571105957 L17.793190002441406 20.045570373535156 L17.793190002441406 20.045570373535156 M16.557804107666016 18.061260223388672 L16.514474868774414 18.061260223388672 L16.514474868774414 18.646953582763672 C16.514474868774414 18.732616424560547 16.52132225036621 18.799352645874023 16.53439712524414 18.846542358398438 A0.15314698219299316 0.15314698219299316 0.0 0 1 16.501773834228516 18.833965301513672 L16.50787353515625 19.859928131103516 L15.608541488647461 19.859928131103516 L15.608541488647461 18.76835060119629 L15.727448463439941 18.76050567626953 C15.83975601196289 18.76050567626953 15.91035270690918 18.743446350097656 15.939240455627441 18.70821189880371 C15.969121932983398 18.674345016479492 15.983689308166504 18.584075927734375 15.983689308166504 18.437652587890625 L15.983689308166504 15.67154312133789 C15.983689308166504 15.64863395690918 15.982942581176758 15.627716064453125 15.981447219848633 15.608541488647461 A0.6281516551971436 0.6281516551971436 0.0 0 0 15.942975997924805 15.607544898986816 L15.793936729431152 15.607544898986816 L15.793936729431152 15.51466178894043 L15.850090980529785 15.51466178894043 C15.899271965026855 15.51466178894043 15.939114570617676 15.518521308898926 15.96949577331543 15.525991439819336 C15.962646484375 15.499346733093262 15.953433990478516 15.479923248291016 15.94148063659668 15.467596054077148 C15.918072700500488 15.437589645385742 15.85656452178955 15.42177677154541 15.757330894470215 15.42177677154541 L15.608292579650879 15.42177677154541 L15.608292579650879 14.421839714050293 L16.328332901000977 14.421839714050293 L16.328332901000977 17.6075439453125 L16.421215057373047 17.6075439453125 L16.421215057373047 14.60748291015625 L16.514101028442383 14.60748291015625 L16.514101028442383 17.492624282836914 L16.7348575592041 17.1527099609375 L16.776691436767578 17.083358764648438 L16.80682373046875 17.025835037231445 A0.08130486309528351 0.08130486309528351 0.0 0 0 16.83035659790039 16.964326858520508 C16.83035659790039 16.91863250732422 16.785903930664062 16.8912410736084 16.695636749267578 16.880657196044922 L16.57672882080078 16.880657196044922 L16.57672882080078 15.880720138549805 L17.503454208374023 15.880720138549805 L17.503454208374023 16.880657196044922 C17.44194793701172 16.880657196044922 17.389904022216797 16.886011123657227 17.34395980834961 16.896347045898438 C17.29975700378418 16.90692901611328 17.26028823852539 16.919878005981445 17.227664947509766 16.938180923461914 C17.195045471191406 16.956485748291016 17.13739776611328 17.024465560913086 17.05497169494629 17.144742965698242 L16.679698944091797 17.710763931274414 L16.760007858276367 17.83489990234375 L17.147857666015625 17.237627029418945 C17.227169036865234 17.115360260009766 17.28767967224121 17.04936981201172 17.3205509185791 17.03106689453125 C17.353172302246094 17.012887954711914 17.392269134521484 16.99968910217285 17.436843872070312 16.98923110961914 A0.7149349451065063 0.7149349451065063 0.0 0 1 17.59634017944336 16.973541259765625 L17.59634017944336 16.066364288330078 L17.689224243164062 16.066364288330078 L17.689224243164062 17.066425323486328 C17.627716064453125 17.066425323486328 17.575422286987305 17.0716552734375 17.529726028442383 17.082115173339844 A0.45346447825431824 0.45346447825431824 0.0 0 0 17.41318702697754 17.123950958251953 C17.380563735961914 17.142127990722656 17.320053100585938 17.208242416381836 17.240739822387695 17.33051109313965 L16.836830139160156 17.953683853149414 L17.217206954956055 18.542240142822266 L17.23538589477539 18.56452751159668 L17.25505828857422 18.587936401367188 L17.28519058227539 18.619312286376953 C17.290294647216797 18.624540328979492 17.301998138427734 18.636367797851562 17.321670532226562 18.65591812133789 C17.34134292602539 18.67422103881836 17.358152389526367 18.688663482666016 17.37272071838379 18.69912338256836 C17.426259994506836 18.73958969116211 17.504575729370117 18.76050567626953 17.606674194335938 18.76050567626953 L17.606674194335938 19.859928131103516 L16.764490127563477 19.859928131103516 L16.764490127563477 18.76050567626953 L16.780302047729492 18.76050567626953 C16.89535140991211 18.76050567626953 16.90580940246582 18.723899841308594 16.90580940246582 18.64931869506836 C16.90580940246582 18.636367797851562 16.89024543762207 18.601009368896484 16.86011505126953 18.542240142822266 L16.797361373901367 18.440265655517578 L16.557804107666016 18.061260223388672 L16.557804107666016 18.061260223388672 M16.441635131835938 18.7535343170166 C16.42856216430664 18.706344604492188 16.421714782714844 18.639732360839844 16.421714782714844 18.553945541381836 L16.421714782714844 17.96837615966797 L16.499034881591797 17.96837615966797 L16.440141677856445 17.875490188598633 L16.328704833984375 17.875490188598633 L16.328704833984375 18.4610595703125 C16.328704833984375 18.5734920501709 16.340660095214844 18.653301239013672 16.36269760131836 18.698997497558594 C16.38037872314453 18.726016998291016 16.406400680541992 18.744319915771484 16.441635131835938 18.7535343170166 L16.441635131835938 18.7535343170166 M16.594783782958984 18.926851272583008 C16.619062423706055 18.939800262451172 16.649940490722656 18.94627571105957 16.68716812133789 18.94627571105957 L16.693769454956055 20.045570373535156 L15.794185638427734 20.045570373535156 L15.794185638427734 19.95281219482422 L16.60088348388672 19.95281219482422 L16.594783782958984 18.926851272583008 M15.587748527526855 18.497791290283203 C15.587748527526855 18.661148071289062 15.580028533935547 18.811555862426758 15.564215660095215 18.95013427734375 C15.549897193908691 19.087467193603516 15.520015716552734 19.238998413085938 15.476686477661133 19.402477264404297 C15.377450942993164 19.87959861755371 15.199651718139648 20.118907928466797 14.944655418395996 20.118907928466797 C14.809686660766602 20.118907928466797 14.694889068603516 20.059267044067383 14.600510597229004 19.940235137939453 A0.40141940116882324 0.40141940116882324 0.0 0 0 14.852020263671875 20.025897979736328 C15.106891632080078 20.025897979736328 15.28469181060791 19.78671646118164 15.383801460266113 19.309595108032227 C15.427130699157715 19.146236419677734 15.457013130187988 18.994583129882812 15.471332550048828 18.85737419128418 C15.484031677246094 18.745439529418945 15.49150276184082 18.62578582763672 15.493992805480957 18.497791290283203 L15.587748527526855 18.497791290283203 L15.587748527526855 18.497791290283203 M15.217207908630371 16.04606819152832 C15.242233276367188 16.063127517700195 15.265143394470215 16.083297729492188 15.285812377929688 16.106830596923828 C15.356285095214844 16.190624237060547 15.413932800292969 16.33293914794922 15.458507537841797 16.53825569152832 C15.483283996582031 16.670360565185547 15.504202842712402 16.8037109375 15.518521308898926 16.938304901123047 C15.534334182739258 17.0716552734375 15.54205322265625 17.229907989501953 15.54205322265625 17.410198211669922 L15.54205322265625 17.54093360900879 L15.288427352905273 17.54093360900879 A2.584822416305542 2.584822416305542 0.0 0 1 15.27410888671875 17.44817352294922 L15.449169158935547 17.44817352294922 L15.449169158935547 17.31743812561035 C15.449169158935547 17.13702392578125 15.441449165344238 16.978771209716797 15.425636291503906 16.845422744750977 A5.090829849243164 5.090829849243164 0.0 0 0 15.365622520446777 16.44549560546875 C15.32640266418457 16.26445960998535 15.27672290802002 16.132104873657227 15.217207908630371 16.04606819152832 L15.217207908630371 16.04606819152832 M15.04862117767334 17.01836585998535 A0.3984311819076538 0.3984311819076538 0.0 0 0 14.958849906921387 17.0090274810791 C14.805828094482422 17.0090274810791 14.698873519897461 17.105770111083984 14.637365341186523 17.300504684448242 C14.599390029907227 17.44306755065918 14.57996654510498 17.70055389404297 14.57996654510498 18.070472717285156 C14.57996654510498 18.335927963256836 14.59677505493164 18.54373550415039 14.629521369934082 18.695510864257812 C14.639232635498047 18.734233856201172 14.650688171386719 18.76909637451172 14.664508819580078 18.80034828186035 C14.695138931274414 18.810558319091797 14.72900390625 18.815662384033203 14.765236854553223 18.815662384033203 C14.875179290771484 18.815662384033203 14.956110954284668 18.778932571411133 15.009899139404297 18.704477310180664 C15.062192916870117 18.62989616394043 15.102533340454102 18.499282836914062 15.133910179138184 18.312395095825195 L15.40185546875 18.312395095825195 C15.40185546875 18.475751876831055 15.394136428833008 18.62615966796875 15.378447532653809 18.76461410522461 C15.363879203796387 18.90207290649414 15.33399772644043 19.053478240966797 15.290668487548828 19.21695899963379 C15.191433906555176 19.694080352783203 15.013633728027344 19.933387756347656 14.75888729095459 19.933387756347656 C14.309032440185547 19.933387756347656 14.084293365478516 19.273237228393555 14.084293365478516 17.95293426513672 C14.084293365478516 16.516216278076172 14.324846267700195 15.797422409057617 14.804582595825195 15.797422409057617 C14.93008804321289 15.797422409057617 15.028077125549316 15.839258193969727 15.100044250488281 15.92155933380127 C15.170516967773438 16.005229949951172 15.22791576385498 16.147668838500977 15.272490501403809 16.352985382080078 C15.29726791381836 16.485088348388672 15.318184852600098 16.618438720703125 15.332503318786621 16.753036499023438 C15.348316192626953 16.886384963989258 15.356036186218262 17.044513702392578 15.356036186218262 17.224925994873047 L15.356036186218262 17.355663299560547 L15.102409362792969 17.355663299560547 C15.088090896606445 17.271991729736328 15.080245971679688 17.209239959716797 15.080245971679688 17.168773651123047 A0.7555251121520996 0.7555251121520996 0.0 0 0 15.04862117767334 17.01836585998535 L15.04862117767334 17.01836585998535 M14.607234001159668 18.773578643798828 C14.577352523803711 18.728008270263672 14.553695678710938 18.670982360839844 14.536761283874512 18.602378845214844 C14.503890991210938 18.450725555419922 14.48720645904541 18.242794036865234 14.48720645904541 17.97746467590332 C14.48720645904541 17.607421875 14.506630897521973 17.349933624267578 14.54460620880127 17.207494735717773 C14.60611343383789 17.01276206970215 14.713315963745117 16.9158935546875 14.866090774536133 16.9158935546875 C14.92710018157959 16.9158935546875 14.977899551391602 16.92660140991211 15.018863677978516 16.948017120361328 A0.2320861518383026 0.2320861518383026 0.0 0 0 14.986490249633789 16.901575088500977 C14.939301490783691 16.849157333374023 14.868828773498535 16.823009490966797 14.773454666137695 16.823009490966797 C14.62043285369873 16.823009490966797 14.513229370117188 16.919754028320312 14.45172119140625 17.11461067199707 C14.413745880126953 17.25717544555664 14.394323348999023 17.514537811279297 14.394323348999023 17.884578704833984 C14.394323348999023 18.14990997314453 14.411380767822266 18.35784149169922 14.443877220153809 18.50949478149414 C14.476000785827637 18.63798713684082 14.530410766601562 18.726016998291016 14.607234001159668 18.773578643798828 L14.607234001159668 18.773578643798828 M13.994272232055664 18.341032028198242 C13.994272232055664 18.930585861206055 13.936873435974121 19.378944396972656 13.820457458496094 19.684865951538086 C13.7041654586792 19.99203109741211 13.532964706420898 20.14493179321289 13.305360794067383 20.14493179321289 C13.161925315856934 20.14493179321289 13.04102611541748 20.083297729492188 12.943037033081055 19.96053123474121 A0.42881155014038086 0.42881155014038086 0.0 0 0 13.212724685668945 20.052169799804688 C13.440079689025879 20.052169799804688 13.61128044128418 19.89914894104004 13.727572441101074 19.591981887817383 C13.844114303588867 19.286060333251953 13.901389122009277 18.83770179748535 13.901389122009277 18.24814796447754 C13.901389122009277 17.68735694885254 13.854448318481445 17.275602340698242 13.760318756103516 17.0155029296875 C13.726326942443848 16.92162322998047 13.684990882873535 16.844051361083984 13.636805534362793 16.782169342041016 C13.646267890930176 16.789390563964844 13.655731201171875 16.796987533569336 13.665068626403809 16.805204391479492 C13.742140769958496 16.874557495117188 13.804893493652344 16.97503662109375 13.853327751159668 17.108509063720703 C13.947332382202148 17.368362426757812 13.994272232055664 17.780241012573242 13.994272232055664 18.341032028198242 L13.994272232055664 18.341032028198242 M13.566705703735352 14.661768913269043 C13.760318756103516 14.807944297790527 13.857063293457031 15.127685546875 13.857063293457031 15.621989250183105 C13.857063293457031 15.913590431213379 13.824440956115723 16.1370849609375 13.757579803466797 16.293842315673828 C13.70404052734375 16.42096710205078 13.615763664245605 16.533899307250977 13.492997169494629 16.632261276245117 C13.56371784210205 16.700990676879883 13.621864318847656 16.7972354888916 13.667309761047363 16.922616958618164 C13.76144027709961 17.182720184326172 13.808629035949707 17.594470977783203 13.808629035949707 18.155263900756836 C13.808629035949707 18.744693756103516 13.750981330871582 19.19317626953125 13.63481330871582 19.498973846435547 C13.518271446228027 19.806262969970703 13.347070693969727 19.95916175842285 13.11971664428711 19.95916175842285 C12.910540580749512 19.95916175842285 12.74954891204834 19.828426361083984 12.63724136352539 19.56832504272461 C12.524933815002441 19.3080997467041 12.46865463256836 18.936935424804688 12.46865463256836 18.454586029052734 L12.46865463256836 16.126502990722656 C12.46865463256836 15.821950912475586 12.480359077453613 15.563096046447754 12.502646446228027 15.348690032958984 C12.526053428649902 15.134408950805664 12.562660217285156 14.953993797302246 12.613584518432617 14.808815002441406 C12.714312553405762 14.525181770324707 12.871070861816406 14.383988380432129 13.085600852966309 14.383988380432129 C13.476436614990234 14.383988380432129 13.671170234680176 14.734357833862305 13.671170234680176 15.436344146728516 C13.671170234680176 15.727822303771973 13.638548851013184 15.95131778717041 13.571935653686523 16.108200073242188 C13.50532341003418 16.266326904296875 13.38492202758789 16.40229034423828 13.21110725402832 16.515844345092773 C13.272614479064941 16.515844345092773 13.329266548156738 16.528793334960938 13.381560325622559 16.553943634033203 C13.514039039611816 16.452220916748047 13.608416557312012 16.334434509277344 13.664819717407227 16.200958251953125 C13.73143196105957 16.044076919555664 13.764054298400879 15.820582389831543 13.764054298400879 15.529104232788086 C13.764178276062012 15.121459007263184 13.698561668395996 14.83247184753418 13.566705703735352 14.661768913269043 L13.566705703735352 14.661768913269043 M13.331258773803711 15.609288215637207 A0.3448919951915741 0.3448919951915741 0.0 0 0 13.24783706665039 15.599701881408691 C13.151092529296875 15.599701881408691 13.071282386779785 15.642906188964844 13.01002311706543 15.730436325073242 C12.953620910644531 15.819461822509766 12.926103591918945 15.943596839904785 12.926103591918945 16.10172462463379 L12.926103591918945 16.57249641418457 C12.960344314575195 16.527921676635742 12.998319625854492 16.48110580444336 13.039905548095703 16.432296752929688 A1.5949698686599731 1.5949698686599731 0.0 0 0 13.30785083770752 16.007469177246094 C13.337733268737793 15.915956497192383 13.353546142578125 15.837514877319336 13.353546142578125 15.773391723632812 A0.5403723120689392 0.5403723120689392 0.0 0 0 13.331258773803711 15.609288215637207 L13.331258773803711 15.609288215637207 M12.833468437194824 16.70198631286621 L12.833468437194824 16.00896453857422 C12.833468437194824 15.850712776184082 12.860984802246094 15.726576805114746 12.917139053344727 15.637802124023438 C12.978397369384766 15.550146102905273 13.058208465576172 15.507065773010254 13.154953002929688 15.507065773010254 C13.212102890014648 15.507065773010254 13.260786056518555 15.518521308898926 13.30162525177002 15.541430473327637 A0.30094006657600403 0.30094006657600403 0.0 0 0 13.27659797668457 15.505571365356445 C13.225549697875977 15.444189071655273 13.154953002929688 15.414182662963867 13.062067985534668 15.414182662963867 C12.965323448181152 15.414182662963867 12.885762214660645 15.45738697052002 12.824254989624023 15.544917106628418 C12.76810073852539 15.633817672729492 12.740583419799805 15.757952690124512 12.740583419799805 15.916080474853516 L12.740583419799805 16.861234664916992 C12.764739036560059 16.81167984008789 12.79561710357666 16.75876235961914 12.833468437194824 16.70198631286621 M13.347070693969727 16.96843719482422 A0.19784598052501678 0.19784598052501678 0.0 0 0 13.301376342773438 16.963083267211914 C13.216461181640625 16.963083267211914 13.136774063110352 17.021976470947266 13.062067985534668 17.142127990722656 C13.012514114379883 17.23501205444336 12.976032257080078 17.347320556640625 12.953620910644531 17.47942543029785 A3.3648757934570312 3.3648757934570312 0.0 0 0 12.934196472167969 17.721223831176758 A6.938679218292236 6.938679218292236 0.0 0 0 12.926228523254395 18.084667205810547 C12.926228523254395 18.370914459228516 12.943285942077637 18.58009147644043 12.977276802062988 18.71207046508789 C12.982880592346191 18.740585327148438 12.990848541259766 18.767478942871094 13.002055168151855 18.79300308227539 C13.038287162780762 18.80682373046875 13.077631950378418 18.813920974731445 13.11971664428711 18.813920974731445 C13.369234085083008 18.813920974731445 13.49474048614502 18.586441040039062 13.49474048614502 18.13285255432129 C13.49474048614502 17.683246612548828 13.46361255645752 17.344579696655273 13.400609970092773 17.117225646972656 A0.9811367988586426 0.9811367988586426 0.0 0 0 13.347070693969727 16.96843719482422 L13.347070693969727 16.96843719482422 M12.944406509399414 18.764116287231445 A0.37826061248779297 0.37826061248779297 0.0 0 1 12.884393692016602 18.61943817138672 C12.850401878356934 18.48733139038086 12.833592414855957 18.27828025817871 12.833592414855957 17.991907119750977 C12.833592414855957 17.849342346191406 12.83608341217041 17.727947235107422 12.841312408447266 17.628461837768555 C12.846417427062988 17.52785873413086 12.853015899658203 17.44817352294922 12.860984802246094 17.386789321899414 C12.883148193359375 17.254684448242188 12.919629096984863 17.14225196838379 12.969432830810547 17.04949188232422 C13.043889999389648 16.929216384887695 13.123576164245605 16.870447158813477 13.208491325378418 16.870447158813477 C13.244226455688477 16.870447158813477 13.27709674835205 16.879287719726562 13.307476997375488 16.897092819213867 C13.254685401916504 16.817157745361328 13.190936088562012 16.777563095092773 13.115856170654297 16.777563095092773 C13.030691146850586 16.777563095092773 12.951005935668945 16.836456298828125 12.876548767089844 16.956607818603516 C12.826993942260742 17.04936981201172 12.790263175964355 17.161800384521484 12.76810073852539 17.29390525817871 A3.342339515686035 3.342339515686035 0.0 0 0 12.748428344726562 17.535703659057617 A6.969183921813965 6.969183921813965 0.0 0 0 12.74070930480957 17.899023056030273 C12.74070930480957 18.185394287109375 12.757765769958496 18.394447326660156 12.791757583618164 18.526552200317383 A0.38224491477012634 0.38224491477012634 0.0 0 0 12.908049583435059 18.73697280883789 C12.919629096984863 18.746932983398438 12.931706428527832 18.756023406982422 12.944406509399414 18.764116287231445 L12.944406509399414 18.764116287231445 M12.294839859008789 18.04681396484375 C12.294839859008789 18.490070343017578 12.267322540283203 18.869077682495117 12.212413787841797 19.181472778320312 C12.157753944396973 19.4952392578125 12.076573371887207 19.734420776367188 11.96812629699707 19.900392532348633 C11.8596773147583 20.066364288330078 11.728941917419434 20.148666381835938 11.578534126281738 20.148666381835938 C11.460623741149902 20.148666381835938 11.354665756225586 20.090269088745117 11.26041316986084 19.974102020263672 C11.330013275146484 20.028636932373047 11.405092239379883 20.055904388427734 11.485651016235352 20.055904388427734 C11.636058807373047 20.055904388427734 11.766793251037598 19.973604202270508 11.87524127960205 19.80750846862793 C11.983814239501953 19.641536712646484 12.064745903015137 19.402353286743164 12.11977767944336 19.08858871459961 C12.1744384765625 18.776193618774414 12.20195484161377 18.39706039428711 12.20195484161377 17.954055786132812 C12.20195484161377 17.641536712646484 12.183775901794434 17.35404396057129 12.148415565490723 17.08721923828125 C12.113180160522461 16.821887969970703 12.065990447998047 16.60225486755371 12.007221221923828 16.429807662963867 C11.947208404541016 16.258853912353516 11.87847900390625 16.126253128051758 11.802278518676758 16.031999588012695 C11.825312614440918 16.0500545501709 11.847848892211914 16.071094512939453 11.869887351989746 16.09524917602539 C11.956172943115234 16.19074821472168 12.033244132995605 16.333065032958984 12.099981307983398 16.52269172668457 C12.15887451171875 16.695388793945312 12.206063270568848 16.914897918701172 12.241300582885742 17.18022918701172 C12.276660919189453 17.446802139282227 12.294839859008789 17.73454475402832 12.294839859008789 18.04681396484375 L12.294839859008789 18.04681396484375 M11.687605857849121 17.025835037231445 A0.3379194438457489 0.3379194438457489 0.0 0 0 11.578534126281738 17.008901596069336 C11.468717575073242 17.008901596069336 11.389031410217285 17.0532283782959 11.337981224060059 17.143497467041016 C11.285687446594238 17.224428176879883 11.250327110290527 17.32777214050293 11.230778694152832 17.453277587890625 A3.1847100257873535 3.1847100257873535 0.0 0 0 11.211231231689453 17.680757522583008 A6.1834025382995605 6.1834025382995605 0.0 0 0 11.203387260437012 18.019298553466797 C11.203387260437012 18.359086990356445 11.219075202941895 18.590675354003906 11.24920654296875 18.71207046508789 C11.257424354553223 18.74319839477539 11.26725959777832 18.771711349487305 11.278342247009277 18.797733306884766 C11.310714721679688 18.80856704711914 11.34632396697998 18.813920974731445 11.38504695892334 18.813920974731445 C11.528855323791504 18.813920974731445 11.629459381103516 18.7354793548584 11.689598083496094 18.579967498779297 C11.749734878540039 18.42432975769043 11.779867172241211 18.1497859954834 11.779867172241211 17.757705688476562 C11.779867172241211 17.417917251586914 11.751105308532715 17.177364349365234 11.692336082458496 17.036170959472656 A0.26097241044044495 0.26097241044044495 0.0 0 1 11.687605857849121 17.025835037231445 L11.687605857849121 17.025835037231445 M11.220319747924805 18.771087646484375 A0.5204507112503052 0.5204507112503052 0.0 0 1 11.156197547912598 18.61943817138672 C11.126066207885742 18.497791290283203 11.11037826538086 18.266450881958008 11.11037826538086 17.926664352416992 C11.11037826538086 17.794559478759766 11.112992286682129 17.680757522583008 11.1182222366333 17.587997436523438 C11.123451232910156 17.495237350463867 11.129925727844238 17.41941261291504 11.137894630432129 17.360517501831055 C11.157443046569824 17.23501205444336 11.192678451538086 17.131793975830078 11.244973182678223 17.050861358642578 C11.296022415161133 16.96059226989746 11.37570858001709 16.9161434173584 11.485526084899902 16.9161434173584 C11.549773216247559 16.9161434173584 11.605179786682129 16.93071174621582 11.652244567871094 16.960220336914062 C11.592105865478516 16.86882781982422 11.505946159362793 16.823257446289062 11.392765998840332 16.823257446289062 C11.282949447631836 16.823257446289062 11.203262329101562 16.867584228515625 11.15208911895752 16.957977294921875 C11.099919319152832 17.038909912109375 11.064558029174805 17.14225196838379 11.045010566711426 17.26763343811035 A3.109506368637085 3.109506368637085 0.0 0 0 11.025338172912598 17.495113372802734 A6.185145854949951 6.185145854949951 0.0 0 0 11.017494201660156 17.833778381347656 C11.017494201660156 18.173566818237305 11.033182144165039 18.405031204223633 11.063188552856445 18.526552200317383 C11.094565391540527 18.64421272277832 11.146859169006348 18.725767135620117 11.220319747924805 18.771087646484375 L11.220319747924805 18.771087646484375 M10.62167739868164 20.045570373535156 L9.671295166015625 20.045570373535156 L9.671295166015625 19.95281219482422 L10.528792381286621 19.95281219482422 L10.528792381286621 18.942415237426758 L10.62167739868164 18.942415237426758 L10.62167739868164 20.045570373535156 M9.741766929626465 17.954803466796875 L9.611778259277344 18.748802185058594 C9.65797233581543 18.738590240478516 9.689970016479492 18.721782684326172 9.707776069641113 18.69912338256836 C9.730063438415527 18.66774559020996 9.741766929626465 18.603622436523438 9.741766929626465 18.503019332885742 L9.741766929626465 17.954803466796875 L9.741766929626465 17.954803466796875 M9.485526084899902 19.519515991210938 L9.399364471435547 20.04569435119629 L9.250327110290527 20.04569435119629 L9.234514236450195 19.95293617248535 L9.306605339050293 19.95293617248535 L9.741890907287598 17.295024871826172 L9.741890907287598 16.635000228881836 L9.21372127532959 19.859928131103516 L9.064682960510254 19.859928131103516 L8.966817855834961 19.287307739257812 L8.966817855834961 20.045570373535156 L7.986303806304932 20.045570373535156 L7.986303806304932 19.95281219482422 L8.873934745788574 19.95281219482422 L8.873934745788574 18.74444580078125 L8.698748588562012 17.720600128173828 L8.698748588562012 18.7161808013916 C8.698748588562012 18.73025131225586 8.698997497558594 18.74382209777832 8.699745178222656 18.75652313232422 L8.780925750732422 18.75652313232422 L8.780925750732422 19.85980224609375 L7.800535678863525 19.85980224609375 L7.800535678863525 18.760379791259766 L7.93388557434082 18.75652313232422 C8.02925968170166 18.75652313232422 8.090767860412598 18.740833282470703 8.12214469909668 18.708087921142578 C8.152275085449219 18.67671012878418 8.167963027954102 18.60736083984375 8.167963027954102 18.50289535522461 L8.167963027954102 17.13154411315918 A0.7756956815719604 0.7756956815719604 0.0 0 0 8.165597915649414 17.06779670715332 A0.6665006875991821 0.6665006875991821 0.0 0 0 8.119653701782227 17.066301345825195 L7.986303806304932 17.066301345825195 L7.986303806304932 16.973419189453125 L8.026769638061523 16.973419189453125 C8.078316688537598 16.973419189453125 8.120027542114258 16.9781494140625 8.152151107788086 16.98723793029785 A0.14816659688949585 0.14816659688949585 0.0 0 0 8.123514175415039 16.930213928222656 C8.094752311706543 16.8974666595459 8.031999588012695 16.88053321838379 7.934010028839111 16.88053321838379 L7.800535678863525 16.88053321838379 L7.800535678863525 15.880595207214355 L8.685426712036133 15.880595207214355 L9.171761512756348 18.72900390625 L9.205005645751953 18.472763061523438 L8.7942476272583 16.066238403320312 L8.871194839477539 16.066238403320312 L9.238373756408691 18.21664810180664 L9.541804313659668 15.880595207214355 L10.436033248901367 15.880595207214355 L10.436033248901367 16.876672744750977 L10.38249397277832 16.88053321838379 L10.344518661499023 16.88053321838379 C10.235945701599121 16.88053321838379 10.168088912963867 16.894977569580078 10.136712074279785 16.924983978271484 C10.10658073425293 16.9536190032959 10.09089183807373 17.022972106933594 10.09089183807373 17.131420135498047 L10.09089183807373 18.487083435058594 C10.09089183807373 18.59951400756836 10.10533618927002 18.672725677490234 10.135342597961426 18.70684242248535 C10.148914337158203 18.722156524658203 10.170578002929688 18.73410987854004 10.200211524963379 18.742328643798828 C10.189130783081055 18.70298194885254 10.18377685546875 18.648944854736328 10.18377685546875 18.579967498779297 L10.18377685546875 17.22430419921875 C10.18377685546875 17.115856170654297 10.199464797973633 17.046504974365234 10.229471206665039 17.017868041992188 C10.260848999023438 16.987735748291016 10.32883071899414 16.973419189453125 10.437403678894043 16.973419189453125 L10.47525405883789 16.973419189453125 L10.528918266296387 16.969558715820312 L10.528918266296387 16.066238403320312 L10.621801376342773 16.066238403320312 L10.621801376342773 17.062442779541016 L10.568138122558594 17.066301345825195 L10.530162811279297 17.066301345825195 C10.421714782714844 17.066301345825195 10.353732109069824 17.08061981201172 10.322356224060059 17.110626220703125 C10.292348861694336 17.139389038085938 10.276660919189453 17.208742141723633 10.276660919189453 17.317188262939453 L10.276660919189453 18.672849655151367 C10.276660919189453 18.70298194885254 10.277532577514648 18.73025131225586 10.279648780822754 18.754777908325195 C10.294963836669922 18.755773544311523 10.311399459838867 18.756397247314453 10.32883071899414 18.756397247314453 L10.436033248901367 18.756397247314453 L10.436033248901367 19.859678268432617 L9.485650062561035 19.859678268432617 L9.485650062561035 19.519515991210938 L9.485526084899902 19.519515991210938 L9.485526084899902 19.519515991210938 M8.617568016052246 18.742826461791992 A0.522318422794342 0.522318422794342 0.0 0 1 8.60573959350586 18.623294830322266 L8.60573959350586 17.17786407470703 L8.512855529785156 16.635000228881836 L8.512855529785156 18.530536651611328 C8.512855529785156 18.61159324645996 8.52468490600586 18.670360565185547 8.546846389770508 18.70709228515625 C8.561040878295898 18.721782684326172 8.58444881439209 18.73386001586914 8.617568016052246 18.742826461791992 L8.617568016052246 18.742826461791992 M7.718234539031982 17.9815731048584 C7.718234539031982 19.38280487060547 7.5025835037231445 20.083545684814453 7.069787502288818 20.083545684814453 C6.941791534423828 20.083545684814453 6.840814590454102 20.03150177001953 6.765984058380127 19.928157806396484 C6.825623989105225 19.969743728637695 6.89597225189209 19.99066162109375 6.976903438568115 19.99066162109375 C7.409574508666992 19.99066162109375 7.625350475311279 19.2900447845459 7.625350475311279 17.888689041137695 C7.625350475311279 16.957605361938477 7.5182719230651855 16.355724334716797 7.304114818572998 16.082426071166992 C7.580153465270996 16.291601181030273 7.718234539031982 16.924484252929688 7.718234539031982 17.9815731048584 L7.718234539031982 17.9815731048584 M6.634626388549805 19.804147720336914 L6.634626388549805 20.147666931152344 C6.634626388549805 20.236446380615234 6.635746479034424 20.306791305541992 6.638361930847168 20.359086990356445 C6.6536760330200195 20.360082626342773 6.669613838195801 20.36070442199707 6.686796188354492 20.36070442199707 L6.786154270172119 20.36070442199707 L6.786154270172119 21.46796989440918 L5.732553482055664 21.46796989440918 L5.732553482055664 20.368549346923828 L5.851459980010986 20.360828399658203 C5.988794326782227 20.360828399658203 6.067111015319824 20.33331298828125 6.084168910980225 20.279773712158203 C6.102471828460693 20.22610855102539 6.111560821533203 20.109817504882812 6.111560821533203 19.930648803710938 L6.111560821533203 17.13839340209961 C6.111560821533203 17.112991333007812 6.110689163208008 17.089710235595703 6.108821392059326 17.06854248046875 A0.776567280292511 0.776567280292511 0.0 0 0 6.052916526794434 17.066551208496094 L5.9181976318359375 17.066551208496094 L5.9181976318359375 16.97366714477539 L5.9599080085754395 16.97366714477539 C6.015937328338623 16.97366714477539 6.060760498046875 16.978771209716797 6.095125675201416 16.98885726928711 A0.15165287256240845 0.15165287256240845 0.0 0 0 6.065741062164307 16.930461883544922 C6.034364700317383 16.897716522216797 5.969121932983398 16.880783081054688 5.867023468017578 16.880783081054688 L5.732429027557373 16.880783081054688 L5.732429027557373 15.880844116210938 L6.433044910430908 15.880844116210938 L6.433044910430908 16.454710006713867 C6.4945526123046875 16.20768165588379 6.558550834655762 16.040342330932617 6.625288009643555 15.95131778717041 C6.690655708312988 15.863786697387695 6.779555797576904 15.819336891174316 6.889248847961426 15.819336891174316 C7.318060398101807 15.819336891174316 7.532466411590576 16.478116989135742 7.532466411590576 17.795804977416992 C7.532466411590576 19.197162628173828 7.31681489944458 19.89790153503418 6.884019374847412 19.89790153503418 C6.784909725189209 19.89790153503418 6.701736927032471 19.866525650024414 6.634626388549805 19.804147720336914 L6.634626388549805 19.804147720336914 M6.552200794219971 20.34539031982422 C6.545228481292725 20.297950744628906 6.541742324829102 20.201332092285156 6.541742324829102 20.05466079711914 L6.541742324829102 19.67951202392578 C6.513976573944092 19.62236213684082 6.483845233917236 19.528108596801758 6.44885778427124 19.395877838134766 L6.44885778427124 19.961776733398438 C6.44885778427124 20.14082145690918 6.454086780548096 20.245532989501953 6.464421272277832 20.276784896850586 C6.475751876831055 20.309158325195312 6.505011558532715 20.33194351196289 6.552200794219971 20.34539031982422 L6.552200794219971 20.34539031982422 M6.8790388107299805 20.546348571777344 L6.971922874450684 20.546348571777344 L6.971922874450684 21.653614044189453 L5.9181976318359375 21.653614044189453 L5.9181976318359375 21.56072998046875 L6.8790388107299805 21.56072998046875 L6.8790388107299805 20.546348571777344 M7.122828960418701 17.025463104248047 A0.34202826023101807 0.34202826023101807 0.0 0 0 7.013758659362793 17.008901596069336 C6.8790388107299805 17.008901596069336 6.779804706573486 17.07825469970703 6.718297004699707 17.215465545654297 C6.662018299102783 17.360517501831055 6.634626388549805 17.593101501464844 6.634626388549805 17.912220001220703 L6.634626388549805 18.019298553466797 C6.634626388549805 18.180166244506836 6.638486385345459 18.32260513305664 6.64769983291626 18.446866989135742 C6.656913757324219 18.56975746154785 6.671232223510742 18.6666259765625 6.689535140991211 18.735729217529297 C6.695262432098389 18.756023406982422 6.702484130859375 18.775571823120117 6.711448669433594 18.79462242126465 C6.744568347930908 18.80756950378418 6.779555797576904 18.814044952392578 6.816161632537842 18.814044952392578 C6.969183921813965 18.814044952392578 7.07638692855835 18.72900390625 7.137770175933838 18.557804107666016 C7.186204433441162 18.411380767822266 7.210981845855713 18.14990997314453 7.210981845855713 17.772022247314453 C7.210981845855713 17.42302131652832 7.183589935302734 17.177364349365234 7.1273112297058105 17.036170959472656 L7.122828960418701 17.025463104248047 L7.122828960418701 17.025463104248047 M6.6561665534973145 18.766231536865234 A0.4019174575805664 0.4019174575805664 0.0 0 1 6.596526145935059 18.642969131469727 C6.57822322845459 18.573741912841797 6.563780307769775 18.47699737548828 6.554691314697266 18.35410499572754 A5.880097389221191 5.880097389221191 0.0 0 1 6.5416178703308105 17.926664352416992 L6.5416178703308105 17.819461822509766 C6.5416178703308105 17.500465393066406 6.569133758544922 17.267759323120117 6.625288009643555 17.122581481933594 C6.686796188354492 16.985370635986328 6.786154270172119 16.9161434173584 6.920749664306641 16.9161434173584 C6.98537015914917 16.9161434173584 7.0411505699157715 16.93071174621582 7.088339805603027 16.95984649658203 C7.029197692871094 16.86870574951172 6.941916465759277 16.823257446289062 6.8278656005859375 16.823257446289062 C6.693270206451416 16.823257446289062 6.593911647796631 16.892610549926758 6.532403945922852 17.02981948852539 C6.476249694824219 17.174997329711914 6.44885778427124 17.407583236694336 6.44885778427124 17.726577758789062 L6.44885778427124 17.833778381347656 C6.44885778427124 17.994522094726562 6.4527177810668945 18.1370849609375 6.461806774139404 18.261220932006836 C6.471020698547363 18.384111404418945 6.485339164733887 18.480979919433594 6.5036420822143555 18.550085067749023 C6.523190021514893 18.61943817138672 6.5611653327941895 18.68094253540039 6.617319583892822 18.737098693847656 C6.630019664764404 18.747806549072266 6.642844200134277 18.757518768310547 6.6561665534973145 18.766231536865234 M5.695947647094727 18.04681396484375 C5.695947647094727 18.490070343017578 5.66855525970459 18.869077682495117 5.613646030426025 19.181472778320312 C5.558737754821777 19.4952392578125 5.477681636810303 19.734420776367188 5.369109630584717 19.900392532348633 C5.2606611251831055 20.066364288330078 5.1299262046813965 20.148666381835938 4.979642868041992 20.148666381835938 C4.861732006072998 20.148666381835938 4.755774021148682 20.090269088745117 4.661520481109619 19.974102020263672 C4.730997085571289 20.028636932373047 4.8060760498046875 20.055904388427734 4.886758804321289 20.055904388427734 C5.037042140960693 20.055904388427734 5.167777061462402 19.973604202270508 5.2762250900268555 19.80750846862793 C5.3847975730896 19.641536712646484 5.465728759765625 19.402353286743164 5.520637512207031 19.08858871459961 C5.5755462646484375 18.776193618774414 5.603063106536865 18.39706039428711 5.603063106536865 17.954055786132812 C5.603063106536865 17.641536712646484 5.5847601890563965 17.35404396057129 5.549399375915527 17.08721923828125 C5.514163017272949 16.821887969970703 5.466974258422852 16.60225486755371 5.408205509185791 16.429807662963867 C5.348066806793213 16.258853912353516 5.2794623374938965 16.126253128051758 5.2032623291015625 16.031999588012695 C5.226296424865723 16.0500545501709 5.248832702636719 16.071094512939453 5.270995616912842 16.09524917602539 C5.357280731201172 16.19074821472168 5.434352397918701 16.333065032958984 5.501089572906494 16.52269172668457 C5.559858322143555 16.695388793945312 5.6069231033325195 16.914897918701172 5.642283916473389 17.18022918701172 C5.6776442527771 17.446802139282227 5.695947647094727 17.73454475402832 5.695947647094727 18.04681396484375 L5.695947647094727 18.04681396484375 M5.0887131690979 17.025835037231445 A0.3379194438457489 0.3379194438457489 0.0 0 0 4.979642868041992 17.008901596069336 C4.743074417114258 17.008901596069336 4.662142753601074 17.259540557861328 4.632011413574219 17.453277587890625 A3.103156328201294 3.103156328201294 0.0 0 0 4.612339019775391 17.680757522583008 A6.1834025382995605 6.1834025382995605 0.0 0 0 4.604494571685791 18.019298553466797 C4.604494571685791 18.359086990356445 4.620182991027832 18.590675354003906 4.6503143310546875 18.71207046508789 C4.65853214263916 18.74319839477539 4.668243885040283 18.771711349487305 4.679450035095215 18.797733306884766 C4.711822032928467 18.80856704711914 4.747307300567627 18.813920974731445 4.786029815673828 18.813920974731445 C4.9299635887146 18.813920974731445 5.0348005294799805 18.737098693847656 5.090580940246582 18.579967498779297 C5.156820297241211 18.393949508666992 5.1941728591918945 18.098735809326172 5.196040630340576 17.80340003967285 C5.197908401489258 17.5080623626709 5.16441535949707 17.212600708007812 5.0887131690979 17.025835037231445 L5.0887131690979 17.025835037231445 M4.621428489685059 18.771087646484375 A0.5204507112503052 0.5204507112503052 0.0 0 1 4.557305812835693 18.61943817138672 C4.527298927307129 18.497791290283203 4.511486053466797 18.266450881958008 4.511486053466797 17.926664352416992 C4.511486053466797 17.794559478759766 4.514101028442383 17.680757522583008 4.5193305015563965 17.587997436523438 C4.52455997467041 17.495237350463867 4.531158447265625 17.41941261291504 4.539002895355225 17.360517501831055 C4.569258689880371 17.166656494140625 4.6501898765563965 16.9161434173584 4.886758804321289 16.9161434173584 C4.950881004333496 16.9161434173584 5.006288051605225 16.93071174621582 5.053352355957031 16.960220336914062 C4.9933390617370605 16.86882781982422 4.906929016113281 16.823257446289062 4.793874263763428 16.823257446289062 C4.42395544052124 16.823257446289062 4.414368152618408 17.438337326049805 4.406275272369385 17.68561363220215 C4.395567893981934 18.012575149536133 4.41934871673584 18.3492488861084 4.464421272277832 18.526676177978516 C4.4945526123046875 18.644588470458984 4.547967433929443 18.725767135620117 4.621428489685059 18.771087646484375 L4.621428489685059 18.771087646484375 M12.109070777893066 17.86117172241211 C12.109070777893066 18.304302215576172 12.081803321838379 18.683433532714844 12.026769638061523 18.995704650878906 C11.971860885620117 19.309595108032227 11.8908052444458 19.54865264892578 11.782357215881348 19.71474838256836 C11.673785209655762 19.880720138549805 11.543049812316895 19.96302032470703 11.392765998840332 19.96302032470703 C11.218825340270996 19.96302032470703 11.071157455444336 19.836145401000977 10.94839096069336 19.584012985229492 C10.864596366882324 19.404844284057617 10.80059814453125 19.182594299316406 10.757392883300781 18.917264938354492 A6.744070529937744 6.744070529937744 0.0 0 1 10.715682983398438 18.46242904663086 A8.399676322937012 8.399676322937012 0.0 0 1 10.696009635925293 17.875490188598633 L10.696009635925293 17.787960052490234 C10.696009635925293 17.56832504272461 10.702609062194824 17.37346839904785 10.715682983398438 17.203636169433594 C10.727385520935059 17.033679962158203 10.74954891204834 16.867584228515625 10.779680252075195 16.704227447509766 C10.833344459533691 16.404905319213867 10.914399147033691 16.173442840576172 11.021602630615234 16.010086059570312 C11.128805160522461 15.846729278564453 11.2555570602417 15.76567268371582 11.40061092376709 15.76567268371582 C11.502584457397461 15.76567268371582 11.596713066101074 15.814107894897461 11.684244155883789 15.9094820022583 C11.770528793334961 16.00485610961914 11.847599983215332 16.147294998168945 11.914338111877441 16.336925506591797 C11.973231315612793 16.509492874145508 12.020295143127441 16.729129791259766 12.05553150177002 16.99445915222168 C12.090767860412598 17.261157989501953 12.109070777893066 17.54865264892578 12.109070777893066 17.86117172241211 L12.109070777893066 17.86117172241211 M5.510179042816162 17.86117172241211 C5.510179042816162 18.304302215576172 5.482786655426025 18.683433532714844 5.42775297164917 18.995704650878906 C5.372844696044922 19.309595108032227 5.291788578033447 19.54865264892578 5.183341026306152 19.71474838256836 C5.07476806640625 19.880720138549805 4.944157600402832 19.96302032470703 4.793749809265137 19.96302032470703 C4.61993408203125 19.96302032470703 4.472140789031982 19.836145401000977 4.349249839782715 19.584012985229492 C4.2655792236328125 19.404844284057617 4.2014570236206055 19.182594299316406 4.158376216888428 18.917264938354492 A6.899832248687744 6.899832248687744 0.0 0 1 4.116541385650635 18.46242904663086 A8.478864669799805 8.478864669799805 0.0 0 1 4.0969929695129395 17.875490188598633 L4.0969929695129395 17.787960052490234 C4.0969929695129395 17.56832504272461 4.103592395782471 17.37346839904785 4.116541385650635 17.203636169433594 A4.452468395233154 4.452468395233154 0.0 0 1 4.180663585662842 16.704227447509766 C4.234202861785889 16.404905319213867 4.315383434295654 16.173442840576172 4.422461986541748 16.010086059570312 C4.529540061950684 15.846729278564453 4.6564154624938965 15.76567268371582 4.801469326019287 15.76567268371582 C4.903442859649658 15.76567268371582 4.997572422027588 15.814107894897461 5.085102558135986 15.9094820022583 C5.171387672424316 16.00485610961914 5.248459339141846 16.147294998168945 5.315196514129639 16.336925506591797 C5.37408971786499 16.509492874145508 5.421154499053955 16.729129791259766 5.456390857696533 16.99445915222168 C5.491876125335693 17.261157989501953 5.510179042816162 17.54865264892578 5.510179042816162 17.86117172241211 L5.510179042816162 17.86117172241211" fill="black" fill-opacity="1.0" filling="0"/></svg>