<?xml version="1.0" encoding="iso-8859-1"?><svg height="200px" viewBox="0.0 0.0 24.0 24.0" width="200px" xmlns="http://www.w3.org/2000/svg"><path animation_id="0" d="M0.0 0.0 L24.0 0.0 L24.0 24.0 L0.0 24.0 L0.0 0.0" fill="black" fill-opacity="1.0" filling="0"/>
<path animation_id="1" d="M23.647140502929688 15.450164794921875 L10.83732795715332 15.450164794921875 L10.83732795715332 15.30598258972168 L23.647140502929688 15.30598258972168 L23.647140502929688 15.450164794921875 L23.647140502929688 15.450164794921875 M5.081491947174072 15.450164794921875 L0.3528604507446289 15.450164794921875 L0.3528604507446289 15.30598258972168 L5.081491947174072 15.30598258972168 L5.081491947174072 15.450164794921875 L5.081491947174072 15.450164794921875" fill="black" fill-opacity="1.0" filling="0"/>
<path animation_id="2" d="M8.007844924926758 14.079562187194824 L9.480669975280762 14.079562187194824 C10.100728988647461 14.079562187194824 10.720911979675293 13.924671173095703 11.127934455871582 13.653240203857422 C12.096868515014648 13.033182144165039 12.290730476379395 12.025400161743164 12.290730476379395 11.560232162475586 C12.290730476379395 10.940173149108887 12.019423484802246 9.971114158630371 11.127934455871582 9.428500175476074 C10.720911979675293 9.157193183898926 10.100728988647461 9.002179145812988 9.480669975280762 9.002179145812988 L8.007844924926758 9.002179145812988 L8.007844924926758 14.079562187194824 L8.007844924926758 14.079562187194824 M8.511734962463379 9.467348098754883 L9.248210906982422 9.467348098754883 C9.984685897827148 9.467348098754883 10.469152450561523 9.564216613769531 10.914773941040039 9.85494613647461 C11.438087463378906 10.24242115020752 11.786839485168457 10.862603187561035 11.786839485168457 11.540932655334473 C11.786839485168457 12.412999153137207 11.302371978759766 12.936189651489258 10.992342948913574 13.207494735717773 C10.410881996154785 13.614643096923828 9.713254928588867 13.614643096923828 9.248210906982422 13.614643096923828 L8.511734962463379 13.614643096923828 L8.511734962463379 9.467348098754883 L8.511734962463379 9.467348098754883 M17.52300262451172 14.079562187194824 L18.02689552307129 14.079562187194824 L18.02689552307129 12.025400161743164 L18.91838264465332 12.025400161743164 C19.61613655090332 12.025400161743164 19.945589065551758 11.928531646728516 20.236194610595703 11.734794616699219 C20.6043701171875 11.482911109924316 20.87580108642578 11.056466102600098 20.87580108642578 10.5138521194458 C20.87580108642578 9.990537643432617 20.6043701171875 9.544792175292969 20.236194610595703 9.292909622192383 C19.945589065551758 9.118595123291016 19.61613655090332 9.002304077148438 18.91838264465332 9.002304077148438 L17.52300262451172 9.002304077148438 L17.52300262451172 14.079562187194824 L17.52300262451172 14.079562187194824 M18.02689552307129 9.467348098754883 L18.76349449157715 9.467348098754883 C19.286558151245117 9.467348098754883 19.48042106628418 9.467348098754883 19.771276473999023 9.583639144897461 C20.158626556396484 9.777377128601074 20.352487564086914 10.126253128051758 20.352487564086914 10.5138521194458 C20.352487564086914 10.901326179504395 20.158626556396484 11.250203132629395 19.771276473999023 11.444064140319824 C19.48042106628418 11.579654693603516 19.286558151245117 11.579654693603516 18.76349449157715 11.579654693603516 L18.02689552307129 11.579654693603516 L18.02689552307129 9.467348098754883 M0.8180294036865234 16.560293197631836 L0.44972896575927734 18.091140747070312 L0.6823139190673828 18.091140747070312 L0.7404594421386719 17.800535202026367 L1.0699129104614258 17.800535202026367 L1.1280584335327148 18.091140747070312 L1.360642433166504 18.091140747070312 L0.992466926574707 16.560293197631836 L0.8180294036865234 16.560293197631836 M1.0311899185180664 17.626096725463867 L0.7793073654174805 17.626096725463867 L0.9148979187011719 16.85077667236328 L0.992466926574707 17.412811279296875 L1.0311899185180664 17.626096725463867 L1.0311899185180664 17.626096725463867 M1.6706714630126953 16.560293197631836 L1.6706714630126953 16.734607696533203 L1.942103385925293 16.734607696533203 L1.942103385925293 18.091140747070312 L2.174563407897949 18.091140747070312 L2.174563407897949 16.734607696533203 L2.426569938659668 16.734607696533203 L2.426569938659668 16.560293197631836 L1.6706714630126953 16.560293197631836 L1.6706714630126953 16.560293197631836 M2.465291976928711 16.560293197631836 L2.465291976928711 18.091140747070312 L3.0660524368286133 18.091140747070312 L3.0660524368286133 17.916702270507812 L2.6978769302368164 17.916702270507812 L2.6978769302368164 17.393390655517578 L3.0273303985595703 17.393390655517578 L3.0273303985595703 17.219074249267578 L2.6978769302368164 17.219074249267578 L2.6978769302368164 16.734607696533203 L3.0660524368286133 16.734607696533203 L3.0660524368286133 16.560293197631836 L2.465291976928711 16.560293197631836 L2.465291976928711 16.560293197631836 M3.104900360107422 16.560293197631836 L3.4149293899536133 17.316068649291992 L3.0854759216308594 18.091140747070312 L3.3373594284057617 18.091140747070312 L3.4730749130249023 17.703542709350586 C3.4923744201660156 17.645395278930664 3.5117979049682617 17.587249755859375 3.5117979049682617 17.509681701660156 C3.531221389770508 17.626222610473633 3.569944381713867 17.722965240478516 3.60866641998291 17.81995964050293 L3.7250823974609375 18.091140747070312 L3.9382429122924805 18.091140747070312 L3.6280899047851562 17.316068649291992 L3.9382429122924805 16.560293197631836 L3.7250823974609375 16.560293197631836 L3.5893659591674805 16.909046173095703 L3.531221389770508 17.102907180786133 C3.5117979049682617 17.02533721923828 3.4730749130249023 16.9285945892334 3.434351921081543 16.831478118896484 L3.3374834060668945 16.560293197631836 L3.104900360107422 16.560293197631836 L3.104900360107422 16.560293197631836" fill="black" fill-opacity="1.0" filling="0"/>
<path animation_id="3" d="M4.306293964385986 16.560293197631836 L3.9381189346313477 18.091140747070312 L4.151279449462891 18.091140747070312 L4.209425449371338 17.800535202026367 L4.538877964019775 17.800535202026367 L4.616447925567627 18.091140747070312 L4.829608917236328 18.091140747070312 L4.480731964111328 16.560293197631836 L4.306293964385986 16.560293197631836 M4.5194549560546875 17.626096725463867 L4.24827241897583 17.626096725463867 L4.383987903594971 16.85077667236328 L4.461433410644531 17.412811279296875 L4.5194549560546875 17.626096725463867 M5.430367946624756 16.598892211914062 C5.3529229164123535 16.560169219970703 5.27535343170166 16.540746688842773 5.197783470153809 16.540746688842773 C4.9459004402160645 16.540746688842773 4.810184955596924 16.715059280395508 4.810184955596924 16.9283447265625 C4.810184955596924 17.335243225097656 5.294651985168457 17.393264770507812 5.294651985168457 17.703418731689453 C5.294651985168457 17.81995964050293 5.236506462097168 17.916702270507812 5.081491947174072 17.916702270507812 C5.003921985626221 17.916702270507812 4.945775985717773 17.877981185913086 4.868330955505371 17.83913230895996 L4.868330955505371 18.032995223999023 C4.9459004402160645 18.091140747070312 5.023345947265625 18.110565185546875 5.120214462280273 18.110565185546875 C5.372097492218018 18.110565185546875 5.507812976837158 17.936250686645508 5.507812976837158 17.703418731689453 C5.507812976837158 17.509557723999023 5.430243492126465 17.412811279296875 5.275228977203369 17.257673263549805 L5.10091495513916 17.102783203125 C5.062067985534668 17.044635772705078 5.042768955230713 16.986492156982422 5.042768955230713 16.928468704223633 C5.042768955230713 16.812175750732422 5.120214462280273 16.734607696533203 5.236506462097168 16.734607696533203 C5.314075946807861 16.734607696533203 5.372221946716309 16.754032135009766 5.430367946624756 16.792755126953125 L5.430367946624756 16.598892211914062 L5.430367946624756 16.598892211914062 M6.011828422546387 18.091140747070312 L6.244288444519043 18.091140747070312 L6.244288444519043 16.560293197631836 L6.011828422546387 16.560293197631836 L6.011828422546387 18.091140747070312 M6.61246395111084 16.909046173095703 L6.631886959075928 16.909046173095703 L7.019485950469971 18.091140747070312 L7.232646465301514 18.091140747070312 L7.232646465301514 16.560293197631836 L7.000062465667725 16.560293197631836 L7.000062465667725 17.102783203125 L7.058208465576172 17.722965240478516 L6.651310443878174 16.560293197631836 L6.438149929046631 16.560293197631836 L6.438149929046631 18.091140747070312 L6.67073392868042 18.091140747070312 L6.67073392868042 17.529104232788086 L6.631886959075928 17.006038665771484 L6.61246395111084 16.909046173095703 M7.949697971343994 16.598892211914062 A0.5368859767913818 0.5368859767913818 0.0 0 0 7.69781494140625 16.540746688842773 C7.445931434631348 16.540746688842773 7.329639911651611 16.715059280395508 7.329639911651611 16.9283447265625 C7.329639911651611 17.335243225097656 7.794683456420898 17.393264770507812 7.794683456420898 17.703418731689453 C7.794683456420898 17.81995964050293 7.736537933349609 17.916702270507812 7.6008219718933105 17.916702270507812 C7.523252487182617 17.916702270507812 7.445806980133057 17.877981185913086 7.387660980224609 17.83913230895996 L7.387660980224609 18.032995223999023 C7.445806980133057 18.091140747070312 7.542675495147705 18.110565185546875 7.620245456695557 18.110565185546875 C7.872128486633301 18.110565185546875 8.027267456054688 17.936250686645508 8.027267456054688 17.703418731689453 C8.027267456054688 17.509557723999023 7.930399417877197 17.412811279296875 7.775384902954102 17.257673263549805 L7.620369911193848 17.102783203125 C7.5622239112854 17.044635772705078 7.542800426483154 16.986492156982422 7.542800426483154 16.928468704223633 C7.542800426483154 16.812175750732422 7.620369911193848 16.734607696533203 7.755960941314697 16.734607696533203 C7.833530902862549 16.734607696533203 7.891676902770996 16.754032135009766 7.949822425842285 16.792755126953125 L7.949822425842285 16.598892211914062 L7.949697971343994 16.598892211914062 L7.949697971343994 16.598892211914062 M7.988420486450195 16.560293197631836 L7.988420486450195 16.734607696533203 L8.259727478027344 16.734607696533203 L8.259727478027344 18.091140747070312 L8.472888946533203 18.091140747070312 L8.472888946533203 16.734607696533203 L8.744194030761719 16.734607696533203 L8.744194030761719 16.560293197631836 L7.988420486450195 16.560293197631836 L7.988420486450195 16.560293197631836 M8.783041954040527 18.091140747070312 L9.015625953674316 18.091140747070312 L9.015625953674316 17.33536720275879 L9.325655937194824 18.091140747070312 L9.558238983154297 18.091140747070312 L9.248210906982422 17.35478973388672 C9.422648429870605 17.316068649291992 9.480793952941895 17.102907180786133 9.480793952941895 16.947893142700195 C9.480793952941895 16.560293197631836 9.228911399841309 16.560293197631836 9.054472923278809 16.560293197631836 L8.783166885375977 16.560293197631836 L8.783166885375977 18.091140747070312 L8.783041954040527 18.091140747070312 L8.783041954040527 18.091140747070312 M9.015625953674316 17.23849868774414 L9.015625953674316 16.734607696533203 L9.054348945617676 16.734607696533203 C9.228787422180176 16.734607696533203 9.248210906982422 16.85089874267578 9.248210906982422 17.006038665771484 C9.248085975646973 17.14150619506836 9.1900634765625 17.257673263549805 9.015625953674316 17.23849868774414 L9.015625953674316 17.23849868774414 M9.655107498168945 16.560293197631836 L9.655107498168945 17.626222610473633 C9.655107498168945 17.897403717041016 9.674530982971191 18.110689163208008 10.042706489562988 18.110689163208008 C10.430306434631348 18.110689163208008 10.410881996154785 17.839258193969727 10.410881996154785 17.64552116394043 L10.410881996154785 16.5604190826416 L10.197721481323242 16.5604190826416 L10.197721481323242 17.70366668701172 C10.197721481323242 17.83938217163086 10.178422927856445 17.91695213317871 10.023283004760742 17.91695213317871 C9.926414489746094 17.91695213317871 9.868268966674805 17.878231048583984 9.868268966674805 17.684494018554688 L9.868268966674805 16.560543060302734 L9.655107498168945 16.560543060302734 L9.655107498168945 16.560293197631836 L9.655107498168945 16.560293197631836 M10.662765502929688 16.560293197631836 L10.527174949645996 18.091140747070312 L10.740335464477539 18.091140747070312 L10.81790542602539 17.044761657714844 L11.031064987182617 18.091140747070312 L11.186080932617188 18.091140747070312 L11.360517501831055 17.257673263549805 L11.399240493774414 17.044761657714844 L11.399240493774414 17.23849868774414 L11.418540000915527 17.529104232788086 L11.457386016845703 18.091140747070312 L11.689970970153809 18.091140747070312 L11.515532493591309 16.560293197631836 L11.321671485900879 16.560293197631836 L11.186080932617188 17.23849868774414 L11.108510971069336 17.606674194335938 L11.108510971069336 17.664819717407227 L10.856627464294434 16.560293197631836 L10.662765502929688 16.560293197631836 L10.662765502929688 16.560293197631836 M11.786839485168457 16.560293197631836 L11.786839485168457 18.091140747070312 L12.387474060058594 18.091140747070312 L12.387474060058594 17.916702270507812 L12.019423484802246 17.916702270507812 L12.019423484802246 17.393390655517578 L12.348876953125 17.393390655517578 L12.348876953125 17.219074249267578 L12.019423484802246 17.219074249267578 L12.019423484802246 16.734607696533203 L12.387474060058594 16.734607696533203 L12.387474060058594 16.560293197631836 L11.786839485168457 16.560293197631836 L11.786839485168457 16.560293197631836 M12.678328514099121 16.909046173095703 L13.06592845916748 18.091140747070312 L13.27896499633789 18.091140747070312 L13.27896499633789 16.560293197631836 L13.06592845916748 16.560293197631836 L13.06592845916748 17.102783203125 L13.104650497436523 17.722965240478516 L12.71705150604248 16.560293197631836 L12.504015922546387 16.560293197631836 L12.504015922546387 18.091140747070312 L12.71705150604248 18.091140747070312 L12.71705150604248 17.529104232788086 L12.678328514099121 17.006038665771484 L12.678328514099121 16.909046173095703 M13.337109565734863 16.560293197631836 L13.337109565734863 16.734607696533203 L13.589118003845215 16.734607696533203 L13.589118003845215 18.091140747070312 L13.821826934814453 18.091140747070312 L13.821826934814453 16.734607696533203 L14.073460578918457 16.734607696533203 L14.073460578918457 16.560293197631836 L13.337109565734863 16.560293197631836" fill="black" fill-opacity="1.0" filling="0"/>
<path animation_id="4" d="M14.65492057800293 16.598892211914062 A0.536637008190155 0.536637008190155 0.0 0 0 14.403038024902344 16.540746688842773 C14.151155471801758 16.540746688842773 14.034862518310547 16.715059280395508 14.034862518310547 16.9283447265625 C14.034862518310547 17.335243225097656 14.500031471252441 17.393264770507812 14.500031471252441 17.703418731689453 C14.500031471252441 17.81995964050293 14.441884994506836 17.916702270507812 14.306169509887695 17.916702270507812 C14.22860050201416 17.916702270507812 14.151030540466309 17.877981185913086 14.092884063720703 17.83913230895996 L14.092884063720703 18.032995223999023 C14.151030540466309 18.091140747070312 14.248023986816406 18.110565185546875 14.32534408569336 18.110565185546875 C14.577227592468262 18.110565185546875 14.732490539550781 17.936250686645508 14.732490539550781 17.703418731689453 C14.732490539550781 17.509557723999023 14.635746955871582 17.412811279296875 14.500031471252441 17.257673263549805 L14.325469017028809 17.102783203125 C14.267322540283203 17.044635772705078 14.267322540283203 16.986492156982422 14.267322540283203 16.928468704223633 C14.267322540283203 16.812175750732422 14.325469017028809 16.734607696533203 14.461183547973633 16.734607696533203 C14.538753509521484 16.734607696533203 14.59689998626709 16.754032135009766 14.655046463012695 16.792755126953125 L14.655046463012695 16.598892211914062 L14.65492057800293 16.598892211914062 L14.65492057800293 16.598892211914062 M15.081242561340332 16.560293197631836 L15.081242561340332 16.734607696533203 L15.35267448425293 16.734607696533203 L15.35267448425293 18.091140747070312 L15.58513355255127 18.091140747070312 L15.58513355255127 16.734607696533203 L15.837017059326172 16.734607696533203 L15.837017059326172 16.560293197631836 L15.081242561340332 16.560293197631836 M15.875988960266113 16.560293197631836 L15.875988960266113 18.091140747070312 L16.47662353515625 18.091140747070312 L16.47662353515625 17.916702270507812 L16.108448028564453 17.916702270507812 L16.108448028564453 17.393390655517578 L16.43790054321289 17.393390655517578 L16.43790054321289 17.219074249267578 L16.108448028564453 17.219074249267578 L16.108448028564453 16.734607696533203 L16.47662353515625 16.734607696533203 L16.47662353515625 16.560293197631836 L15.875988960266113 16.560293197631836 L15.875988960266113 16.560293197631836 M17.232397079467773 16.579469680786133 C17.174251556396484 16.540746688842773 17.116106033325195 16.540746688842773 17.038536071777344 16.540746688842773 C16.592790603637695 16.540746688842773 16.554067611694336 17.044635772705078 16.554067611694336 17.35466766357422 C16.554067611694336 17.664695739746094 16.612215042114258 18.11043930053711 17.057960510253906 18.11043930053711 C17.135528564453125 18.11043930053711 17.193675994873047 18.11043930053711 17.23227310180664 18.071718215942383 L17.23227310180664 17.89715576171875 C17.19355010986328 17.916580200195312 17.15470314025879 17.916580200195312 17.0965576171875 17.916580200195312 C16.805952072143555 17.916580200195312 16.786527633666992 17.548404693603516 16.786527633666992 17.335119247436523 C16.786527633666992 17.14125633239746 16.786527633666992 16.73448371887207 17.0965576171875 16.73448371887207 C17.15470314025879 16.73448371887207 17.19355010986328 16.753908157348633 17.23227310180664 16.77320671081543 L17.23227310180664 16.579469680786133 L17.232397079467773 16.579469680786133 L17.232397079467773 16.579469680786133 M17.348690032958984 16.560293197631836 L17.348690032958984 18.091140747070312 L17.561973571777344 18.091140747070312 L17.561973571777344 17.33536720275879 L17.891427993774414 17.33536720275879 L17.891427993774414 18.091140747070312 L18.123886108398438 18.091140747070312 L18.123886108398438 16.560293197631836 L17.891427993774414 16.560293197631836 L17.891427993774414 17.160930633544922 L17.561973571777344 17.160930633544922 L17.561973571777344 16.560293197631836 L17.348690032958984 16.560293197631836 M18.4921875 16.909046173095703 L18.51161003112793 16.909046173095703 L18.89896011352539 18.091140747070312 L19.112245559692383 18.091140747070312 L19.112245559692383 16.560293197631836 L18.879785537719727 16.560293197631836 L18.879785537719727 17.102783203125 L18.93793296813965 17.722965240478516 L18.530784606933594 16.560293197631836 L18.3177490234375 16.560293197631836 L18.3177490234375 18.091140747070312 L18.550209045410156 18.091140747070312 L18.550209045410156 17.529104232788086 L18.51161003112793 17.006038665771484 L18.4921875 16.909046173095703 L18.4921875 16.909046173095703 M19.693706512451172 16.540870666503906 C19.267385482788086 16.540870666503906 19.267385482788086 17.044761657714844 19.267385482788086 17.33536720275879 C19.267385482788086 17.60679817199707 19.267385482788086 18.110689163208008 19.693706512451172 18.110689163208008 C20.139450073242188 18.110689163208008 20.139450073242188 17.60679817199707 20.139450073242188 17.33536720275879 C20.139450073242188 17.044761657714844 20.139450073242188 16.540870666503906 19.693706512451172 16.540870666503906 M19.693706512451172 16.734607696533203 C19.86802101135254 16.734607696533203 19.906742095947266 17.006038665771484 19.906742095947266 17.335243225097656 C19.906742095947266 17.64527130126953 19.86802101135254 17.916702270507812 19.693706512451172 17.916702270507812 C19.519393920898438 17.916702270507812 19.499845504760742 17.64527130126953 19.499845504760742 17.335243225097656 C19.499845504760742 17.006038665771484 19.519393920898438 16.734607696533203 19.693706512451172 16.734607696533203 M20.294342041015625 16.560293197631836 L20.294342041015625 18.091140747070312 L20.895225524902344 18.091140747070312 L20.895225524902344 17.916702270507812 L20.507625579833984 17.916702270507812 L20.507625579833984 16.560293197631836 L20.294342041015625 16.560293197631836 L20.294342041015625 16.560293197631836 M21.360267639160156 16.540870666503906 C20.91452407836914 16.540870666503906 20.91452407836914 17.044761657714844 20.91452407836914 17.33536720275879 C20.91452407836914 17.60679817199707 20.91452407836914 18.110689163208008 21.360267639160156 18.110689163208008 C21.786590576171875 18.110689163208008 21.786590576171875 17.60679817199707 21.786590576171875 17.33536720275879 C21.786590576171875 17.044761657714844 21.786590576171875 16.540870666503906 21.360267639160156 16.540870666503906 M21.360267639160156 16.734607696533203 C21.534832000732422 16.734607696533203 21.55413055419922 17.006038665771484 21.55413055419922 17.335243225097656 C21.55413055419922 17.64527130126953 21.534954071044922 17.916702270507812 21.360267639160156 17.916702270507812 C21.185955047607422 17.916702270507812 21.147232055664062 17.64527130126953 21.147232055664062 17.335243225097656 C21.147232055664062 17.006038665771484 21.185832977294922 16.734607696533203 21.360267639160156 16.734607696533203 M22.34850311279297 17.277219772338867 L22.34850311279297 17.451534271240234 L22.5423641204834 17.451534271240234 L22.5423641204834 17.548526763916016 C22.5423641204834 17.916702270507812 22.42607307434082 17.916702270507812 22.34850311279297 17.916702270507812 C22.251758575439453 17.916702270507812 22.135467529296875 17.858556747436523 22.135467529296875 17.335243225097656 C22.135467529296875 16.96706771850586 22.154890060424805 16.734607696533203 22.34850311279297 16.734607696533203 C22.48421859741211 16.734607696533203 22.503643035888672 16.83135223388672 22.5423641204834 16.928468704223633 L22.73622703552246 16.85089874267578 C22.678081512451172 16.657039642333984 22.581336975097656 16.540870666503906 22.329328536987305 16.540870666503906 C21.941730499267578 16.540870666503906 21.90300750732422 16.909046173095703 21.90300750732422 17.33536720275879 C21.90300750732422 17.761688232421875 21.961153030395508 18.110689163208008 22.34850311279297 18.110689163208008 C22.794248580932617 18.110689163208008 22.75564956665039 17.60679817199707 22.75564956665039 17.316192626953125 L22.75564956665039 17.277345657348633 L22.34850311279297 17.277345657348633 L22.34850311279297 17.277219772338867 L22.34850311279297 17.277219772338867 M22.775074005126953 16.560293197631836 L23.104276657104492 17.43235969543457 L23.104276657104492 18.091140747070312 L23.337112426757812 18.091140747070312 L23.337112426757812 17.43235969543457 L23.647140502929688 16.560293197631836 L23.395130157470703 16.560293197631836 L23.259540557861328 17.064184188842773 L23.22081756591797 17.277219772338867 L23.00753402709961 16.560293197631836 L22.775074005126953 16.560293197631836 L22.775074005126953 16.560293197631836 M13.608541488647461 14.079562187194824 L16.689908981323242 14.079562187194824 L16.689908981323242 13.614643096923828 L14.112432479858398 13.614643096923828 L14.112432479858398 9.002179145812988 L13.608541488647461 9.002179145812988 L13.608541488647461 14.079562187194824 L13.608541488647461 14.079562187194824" fill="black" fill-opacity="1.0" filling="0"/>
<path animation_id="5" d="M2.6083545684814453 11.172758102416992 C2.6083545684814453 9.714624404907227 3.2016429901123047 8.392951965332031 4.162236213684082 7.43584680557251 A5.29378080368042 5.29378080368042 0.0 0 1 7.910851001739502 5.889559745788574 C10.825748443603516 5.889559745788574 13.194048881530762 8.25786018371582 13.194048881530762 11.172758102416992 C13.194048881530762 12.214157104492188 12.896595001220703 13.179107666015625 12.3829927444458 13.992280006408691 A5.317935466766357 5.317935466766357 0.0 0 1 10.178049087524414 15.949450492858887 L10.076075553894043 15.971611976623535 C9.659839630126953 15.960905075073242 8.632136344909668 15.956048965454102 7.655481815338135 15.960407257080078 C6.864471435546875 15.963768005371094 6.104836940765381 15.973480224609375 5.730685710906982 15.990785598754883 L5.624229907989502 15.968624114990234 A5.304986476898193 5.304986476898193 0.0 0 1 2.6083545684814453 11.172758102416992 L2.6083545684814453 11.172758102416992 M3.058706283569336 11.172758102416992 C3.058706283569336 12.12948989868164 3.3311338424682617 13.018115997314453 3.8015308380126953 13.7661714553833 A4.854510307312012 4.854510307312012 0.0 0 0 5.767167091369629 15.537944793701172 C6.157256126403809 15.52213191986084 6.890120506286621 15.513416290283203 7.653862953186035 15.509929656982422 C8.59677505493164 15.505821228027344 9.585756301879883 15.509929656982422 10.03287124633789 15.519641876220703 A4.864595890045166 4.864595890045166 0.0 0 0 12.003361701965332 13.753097534179688 C12.472265243530273 13.010396003723145 12.743821144104004 12.127622604370117 12.743821144104004 11.172633171081543 C12.743821144104004 8.506257057189941 10.577352523803711 6.339787006378174 7.910975456237793 6.339787006378174 C6.568511962890625 6.339787006378174 5.3559112548828125 6.880533218383789 4.478989124298096 7.754093647003174 C3.6009464263916016 8.628898620605469 3.058706283569336 9.8380126953125 3.058706283569336 11.172758102416992 L3.058706283569336 11.172758102416992" fill="black" fill-opacity="1.0" filling="0"/>
<path animation_id="6" d="M20.759510040283203 9.002179145812988 L20.759510040283203 9.060324668884277 L20.87580108642578 9.060324668884277 L20.87580108642578 9.467348098754883 L20.933948516845703 9.467348098754883 L20.933948516845703 9.060324668884277 L21.069664001464844 9.060324668884277 L21.069664001464844 9.002179145812988 L20.759510040283203 9.002179145812988 M21.185832977294922 9.060324668884277 L21.3021240234375 9.467348098754883 L21.360267639160156 9.467348098754883 L21.49598503112793 9.060324668884277 L21.49598503112793 9.467348098754883 L21.554004669189453 9.467348098754883 L21.554004669189453 9.002179145812988 L21.45726203918457 9.002179145812988 L21.34096908569336 9.409201622009277 L21.224552154541016 9.002179145812988 L21.127811431884766 9.002179145812988 L21.127811431884766 9.467348098754883 L21.185832977294922 9.467348098754883 L21.185832977294922 9.060324668884277 L21.185832977294922 9.060324668884277" fill="black" fill-opacity="1.0" filling="0"/></svg>