<?xml version="1.0" encoding="iso-8859-1"?><svg height="200px" viewBox="0.0 0.0 24.0 24.0" width="200px" xmlns="http://www.w3.org/2000/svg"><path animation_id="0" d="M0.0 0.0 L24.0 0.0 L24.0 24.0 L0.0 24.0 L0.0 0.0" fill="black" fill-opacity="1.0" filling="0"/>
<path animation_id="1" d="M13.409823417663574 7.821328639984131 L13.252443313598633 7.729689598083496 L13.363880157470703 7.867272853851318 L13.409823417663574 7.821328639984131 M13.567203521728516 7.91969108581543 L13.534333229064941 7.867272853851318 L13.580277442932129 7.90001916885376 L13.567203521728516 7.91969108581543 M13.252569198608398 7.91969108581543 C13.19367504119873 7.959036350250244 13.291913032531738 7.971985340118408 13.285439491271973 8.011455535888672 C13.285313606262207 7.9787092208862305 13.291913032531738 7.939363956451416 13.252569198608398 7.91969108581543 L13.252569198608398 7.91969108581543 M13.331258773803711 7.965635776519775 L13.409823417663574 8.057398796081543 L13.422897338867188 7.9983811378479 C13.455768585205078 8.004980087280273 13.482039451599121 8.037726402282715 13.521136283874512 8.024652481079102 C13.468966484069824 7.971985340118408 13.383552551269531 7.959036350250244 13.331258773803711 7.965635776519775 L13.331258773803711 7.965635776519775 M13.646018981933594 7.9787092208862305 C13.646018981933594 7.9983811378479 13.639419555664062 8.00485610961914 13.626346588134766 8.011455535888672 L13.600074768066406 7.9787092208862305 L13.646018981933594 7.9787092208862305 M12.918134689331055 8.18190860748291 L12.892112731933594 8.23432731628418 L12.98375129699707 8.280271530151367 C12.970678329467773 8.306418418884277 12.9378080368042 8.293220520019531 12.918134689331055 8.293220520019531 C12.996950149536133 8.352362632751465 12.9378080368042 8.49654483795166 13.062317848205566 8.43752670288086 C12.970678329467773 8.352362632751465 13.069165229797363 8.23432731628418 12.918134689331055 8.18190860748291 L12.918134689331055 8.18190860748291 M13.331258773803711 8.293220520019531 C13.259042739868164 8.293220520019531 13.344207763671875 8.306418418884277 13.344207763671875 8.280271530151367 L13.331258773803711 8.293220520019531 M4.9929656982421875 8.326091766357422 L4.927348613739014 8.404781341552734 L4.9929656982421875 8.326091766357422 M7.306979179382324 8.326091766357422 C6.939924240112305 8.58183479309082 6.539999008178711 8.850526809692383 6.205690383911133 9.17823600769043 C5.746871471405029 9.512544631958008 5.419037342071533 10.023906707763672 5.130673408508301 10.515470504760742 C4.704600811004639 11.45290470123291 4.272054195404053 12.462430000305176 4.409637451171875 13.550644874572754 C4.350619792938232 12.816534996032715 4.665256023406982 12.115047454833984 4.86845588684082 11.4267578125 C5.3077263832092285 10.168212890625 6.323725700378418 9.184834480285645 7.39874267578125 8.450601577758789 L7.411816120147705 8.391583442687988 C7.405216693878174 8.345888137817383 7.3527984619140625 8.313017845153809 7.306979179382324 8.326091766357422 M13.344207763671875 8.92261791229248 L13.363880157470703 8.92261791229248 L13.363880157470703 8.988234519958496 L13.344207763671875 8.988234519958496 L13.344207763671875 8.92261791229248 M13.488638877868652 14.58619213104248 C13.560606002807617 14.533897399902344 13.534333229064941 14.428936004638672 13.626222610473633 14.39631462097168 C13.521260261535645 14.39631462097168 13.567203521728516 14.533897399902344 13.488638877868652 14.58619213104248 M13.501587867736816 14.415987014770508 L13.455892562866211 14.494677543640137 L13.501587867736816 14.415987014770508 M13.331258773803711 14.776567459106445 C13.409823417663574 14.855257034301758 13.232770919799805 14.953495979309082 13.252443313598633 15.045259475708008 L13.390027046203613 14.776567459106445 L13.37707805633545 14.789640426635742 C13.370479583740234 14.769968032836914 13.344207763671875 14.776567459106445 13.331258773803711 14.776567459106445 L13.331258773803711 14.776567459106445 M13.232770919799805 15.07800579071045 L13.186827659606934 15.156820297241211 L13.232770919799805 15.07800579071045 M12.66911506652832 15.484405517578125 L12.734731674194336 15.359895706176758 L12.636244773864746 15.451534271240234 L12.66911506652832 15.484405517578125 M12.98375129699707 15.55002212524414 L12.950881004333496 15.687605857849121 L13.029696464538574 15.563096046447754 C13.016622543334961 15.563096046447754 12.990350723266602 15.569694519042969 12.98375129699707 15.55002212524414 M12.288987159729004 15.65485954284668 C12.269314765930176 15.615514755249023 12.328083038330078 15.609039306640625 12.354354858398438 15.563096046447754 C12.321608543395996 15.589366912841797 12.34128189086914 15.65485954284668 12.288987159729004 15.65485954284668 M12.603747367858887 15.687605857849121 L12.636369705200195 15.62858772277832 L12.636369705200195 15.65485954284668 L12.603747367858887 15.687605857849121 M9.81759262084961 8.20805549621582 L9.797921180725098 8.221254348754883 L9.87661075592041 8.221254348754883 C9.857063293457031 8.221254348754883 9.830667495727539 8.23432731628418 9.81759262084961 8.20805549621582 M10.00759506225586 6.267696380615234 C10.269688606262207 6.313640117645264 10.420594215393066 6.628276348114014 10.623793601989746 6.739712715148926 C10.630393028259277 6.8182783126831055 10.597522735595703 6.955986022949219 10.715557098388672 6.943037033081055 C10.9253568649292 7.231401443481445 10.886011123657227 7.63792610168457 10.7942476272583 7.965510845184326 C10.577850341796875 8.122891426086426 10.302558898925781 8.00485610961914 10.040216445922852 7.998256683349609 C9.312705993652344 8.090020179748535 8.378758430480957 8.067359924316406 7.696943759918213 8.467036247253418 L7.647637844085693 8.391583442687988 L7.634564399719238 8.450601577758789 C7.547904968261719 8.511734962463379 7.460623741149902 8.562909126281738 7.220195293426514 8.818652153015137 C7.075515270233154 8.813297271728516 7.153707504272461 8.888128280639648 6.860984802246094 9.10527229309082 C6.716802597045898 9.167403221130371 6.72464656829834 9.169021606445312 6.609599590301514 9.26738452911377 C6.495175361633301 9.283446311950684 5.523252487182617 10.286123275756836 5.3592729568481445 10.76150131225586 C5.19529390335083 11.236506462097168 5.046380043029785 11.541181564331055 4.861233711242676 12.044698715209961 C4.701736927032471 12.478988647460938 4.580713748931885 12.861109733581543 4.636493682861328 12.909046173095703 C4.611218452453613 13.024092674255371 4.514598846435547 13.377949714660645 4.577974319458008 13.789205551147461 C4.5893049240112305 13.862541198730469 4.560542583465576 13.796052932739258 4.592292785644531 14.024279594421387 C4.635497570037842 14.334059715270996 4.778559684753418 14.514598846435547 4.860238075256348 14.695262908935547 C4.94228982925415 14.875179290771484 5.163045406341553 15.25680160522461 5.52835750579834 15.626845359802246 C5.906368732452393 16.009586334228516 6.22498893737793 16.155637741088867 6.473261833190918 16.388595581054688 C6.630019664764404 16.536264419555664 7.783353328704834 16.781299591064453 8.078316688537598 16.781299591064453 C8.139575958251953 16.781299591064453 8.092386245727539 16.891117095947266 8.1652250289917 16.909420013427734 C8.222002029418945 16.923738479614258 8.445869445800781 16.925979614257812 8.508373260498047 16.94664764404297 C8.755151748657227 17.0283260345459 8.992964744567871 17.06194496154785 9.280084609985352 17.082487106323242 C9.73330020904541 17.11486053466797 10.062752723693848 17.041399002075195 10.062752723693848 17.041399002075195 C10.062752723693848 17.041399002075195 10.497042655944824 17.024715423583984 10.975285530090332 16.71406364440918 C11.021976470947266 16.683433532714844 11.113739967346191 16.594409942626953 11.217331886291504 16.55095672607422 C11.313453674316406 16.510862350463867 11.419785499572754 16.304550170898438 11.50968074798584 16.26483154296875 C11.580900192260742 16.23370361328125 11.576292991638184 16.548839569091797 11.614144325256348 16.524311065673828 C11.694578170776367 16.471393585205078 11.850090980529785 16.266576766967773 11.943222999572754 16.184024810791016 C12.016186714172363 16.119653701782227 12.091390609741211 16.0498046875 12.166095733642578 15.980701446533203 A7.480545520782471 7.480545520782471 0.0 0 1 12.389591217041016 15.780116081237793 C12.462055206298828 15.718608856201172 12.53215503692627 15.663326263427734 12.59677505493164 15.621614456176758 C12.843180656433105 15.461620330810547 12.473012924194336 15.29216194152832 12.677083969116211 15.16005802154541 C13.04550838470459 14.921995162963867 13.308597564697266 14.752786636352539 13.337359428405762 14.73709774017334 C13.363631248474121 14.769968032836914 13.599700927734375 14.068480491638184 13.599700927734375 14.068480491638184 L13.894415855407715 13.740646362304688 C14.012575149536133 13.799664497375488 13.829048156738281 13.262155532836914 13.940608978271484 13.295025825500488 L14.005976676940918 13.203262329101562 L13.992903709411621 13.268754959106445 C14.1370849609375 13.248956680297852 14.1370849609375 13.032683372497559 14.196227073669434 12.901700019836426 L14.097989082336426 12.954118728637695 C14.104588508605957 12.934446334838867 14.091390609741211 12.927846908569336 14.084916114807129 12.921372413635254 C14.065242767333984 12.973790168762207 14.025774002075195 12.973790168762207 14.00610065460205 13.032808303833008 C13.986429214477539 13.045882225036621 14.052045822143555 12.934446334838867 14.071718215942383 12.888626098632812 L14.019174575805664 12.888626098632812 L14.071718215942383 12.796862602233887 L14.071718215942383 12.888626098632812 L14.097989082336426 12.855755805969238 L14.130610466003418 12.888626098632812 C14.183154106140137 12.718173027038574 14.281392097473145 12.573989868164062 14.3207368850708 12.403536796569824 C14.202826499938965 12.423209190368652 14.222249984741211 12.685550689697266 14.097989082336426 12.685550689697266 C14.097989082336426 12.600261688232422 14.235572814941406 12.600261688232422 14.176555633544922 12.541243553161621 L14.3207368850708 12.193985939025879 L14.275042533874512 12.180912971496582 L14.28799057006836 12.167839050292969 L14.32086181640625 12.194110870361328 L14.353732109069824 12.148042678833008 L14.275167465209961 12.102346420288086 C14.314262390136719 12.036855697631836 14.307788848876953 11.91209602355957 14.412625312805176 11.853202819824219 C14.386353492736816 11.80738353729248 14.353732109069824 11.85980224609375 14.320985794067383 11.866276741027832 C14.360331535339355 11.767913818359375 14.334059715270996 11.479549407958984 14.399552345275879 11.328767776489258 L14.36693000793457 11.250078201293945 C14.458569526672363 11.191060066223145 14.334059715270996 11.053352355957031 14.353857040405273 10.968188285827637 C14.281641960144043 11.020606994628906 14.281641960144043 11.118844985961914 14.353857040405273 11.158313751220703 L14.334184646606445 11.145240783691406 L14.307912826538086 11.20425796508789 C14.288240432739258 11.250203132629395 14.353857040405273 11.014256477355957 14.229347229003906 11.145240783691406 L14.24229621887207 10.968188285827637 L14.275415420532227 11.000933647155762 C14.314512252807617 10.968188285827637 14.314512252807617 10.889497756958008 14.275415420532227 10.856751441955566 C14.308037757873535 10.797734260559082 14.327709197998047 10.955239295959473 14.36705493927002 10.856751441955566 C14.2554931640625 10.791259765625 14.327709197998047 10.660025596618652 14.307912826538086 10.561788558959961 L14.196475982666016 10.561788558959961 C14.215900421142578 10.424080848693848 14.170205116271973 10.168461799621582 14.11766242980957 10.043827056884766 C14.11766242980957 9.991409301757812 14.071966171264648 9.899645805358887 14.071966171264648 9.853825569152832 C13.92778491973877 9.820955276489258 14.019423484802246 9.735790252685547 13.914586067199707 9.66369915008545 C13.921185493469238 9.67029857635498 13.92765998840332 9.683372497558594 13.940858840942383 9.676773071289062 C13.986553192138672 9.617755889892578 13.862043380737305 9.53258991241455 13.914586067199707 9.506319046020508 L13.862043380737305 9.46049976348877 C13.835771560668945 9.473572731018066 13.855443954467773 9.512918472290039 13.848969459533691 9.539189338684082 C13.79007625579834 9.591609001159668 13.842370986938477 9.375333786010742 13.737533569335938 9.427629470825195 L13.704663276672363 9.38180923461914 L13.783477783203125 9.34893798828125 C13.724335670471191 9.25057601928711 13.71786117553711 9.158811569213867 13.61302375793457 9.099794387817383 L13.61302375793457 9.158936500549316 C13.599949836730957 9.139264106750488 13.567079544067383 9.126190185546875 13.580153465270996 9.099794387817383 L13.599825859069824 9.112993240356445 C13.645770072937012 9.06057357788086 13.599825859069824 8.988483428955078 13.580153465270996 8.94253921508789 C13.540807723999023 8.883646011352539 13.521011352539062 8.988607406616211 13.488513946533203 8.968810081481934 C13.560481071472168 8.863724708557129 13.337484359741211 8.850774765014648 13.390027046203613 8.75253677368164 L13.37707805633545 8.70659351348877 L13.390027046203613 8.719666481018066 C13.403100967407227 8.713067054748535 13.409699440002441 8.70659351348877 13.409699440002441 8.686796188354492 C13.383427619934082 8.627778053283691 13.318059921264648 8.667247772216797 13.285189628601074 8.673847198486328 L13.285189628601074 8.785283088684082 C13.27859115600586 8.726264953613281 13.232646942138672 8.726264953613281 13.219573020935059 8.732864379882812 C13.331133842468262 8.595280647277832 13.069040298461914 8.43790054321289 13.095063209533691 8.28052043914795 L12.970553398132324 8.123140335083008 C13.055967330932617 8.083795547485352 12.990226745605469 8.195231437683105 13.049367904663086 8.214903831481934 L13.173877716064453 8.28052043914795 L13.186827659606934 8.201830863952637 L13.252443313598633 8.28052043914795 L13.29838752746582 8.247650146484375 L13.127933502197266 7.965760231018066 C13.265517234802246 8.037975311279297 13.265517234802246 8.254124641418457 13.422897338867188 8.136214256286621 L13.390027046203613 8.090394020080566 C13.46224308013916 8.044450759887695 13.560481071472168 8.214903831481934 13.534209251403809 8.07732105255127 C13.560481071472168 8.083919525146484 13.63929557800293 8.07732105255127 13.645770072937012 8.136338233947754 C13.63917064666748 8.162485122680664 13.560357093811035 8.142937660217285 13.580153465270996 8.20195484161377 C13.619499206542969 8.241175651550293 13.717737197875977 8.26097297668457 13.704663276672363 8.20195484161377 C13.724335670471191 8.22810173034668 13.757205963134766 8.234701156616211 13.783477783203125 8.234701156616211 C13.842370986938477 8.149412155151367 13.704663276672363 8.156010627746582 13.704663276672363 8.07732105255127 C13.803150177001953 8.057647705078125 13.855443954467773 8.175683975219727 13.914586067199707 8.214903831481934 C13.914586067199707 8.234577178955078 13.914586067199707 8.25424861907959 13.894664764404297 8.260848045349121 C13.966880798339844 8.293469429016113 14.019423484802246 8.431302070617676 14.11766242980957 8.450849533081055 C14.124261856079102 8.516467094421387 14.196475982666016 8.562286376953125 14.242172241210938 8.5951566696167 L14.275291442871094 8.562286376953125 C14.41922378540039 8.693394660949707 14.471768379211426 8.896595001220703 14.557181358337402 9.02110481262207 C14.530660629272461 9.053976058959961 14.609475135803223 9.086596488952637 14.602875709533691 9.126066207885742 C14.668493270874023 9.165287017822266 14.668493270874023 9.302994728088379 14.760255813598633 9.34893798828125 L14.779929161071777 9.427504539489746 L14.747058868408203 9.427504539489746 C14.81927490234375 9.597957611083984 14.937185287475586 9.807757377624512 15.015750885009766 9.97821044921875 L15.042021751403809 9.97821044921875 C14.996078491210938 10.076573371887207 15.074892044067383 10.181411743164062 15.061695098876953 10.260101318359375 C15.081367492675781 10.40440845489502 15.21247673034668 10.522318840026855 15.18620491027832 10.686172485351562 C15.251821517944336 10.89597225189209 15.245347023010254 11.243354797363281 15.310714721679688 11.47282600402832 L15.278093338012695 11.505696296691895 C15.291166305541992 11.512170791625977 15.297764778137207 11.52524471282959 15.310714721679688 11.518770217895508 L15.310714721679688 11.55151653289795 L15.297764778137207 11.538442611694336 C15.330387115478516 11.800660133361816 15.179605484008789 12.030132293701172 15.232148170471191 12.194110870361328 A0.09375584125518799 0.09375584125518799 0.0 0 0 15.173006057739258 12.30542278289795 L15.186080932617188 12.32521915435791 L15.218951225280762 12.259602546691895 C15.192678451538086 12.233331680297852 15.218951225280762 12.508871078491211 15.140384674072266 12.43005657196045 C15.127311706542969 12.475875854492188 15.094441413879395 12.547967910766602 15.140384674072266 12.574238777160645 L15.107514381408691 12.574238777160645 C15.048372268676758 12.633255958557129 15.054971694946289 12.679201126098633 15.074644088745117 12.7446928024292 C15.153209686279297 12.797111511230469 15.186080932617188 12.66600227355957 15.218826293945312 12.61993408203125 C15.218826293945312 12.482475280761719 15.34333610534668 12.338293075561523 15.297640800476074 12.181037902832031 L15.356534004211426 12.22673225402832 C15.317188262939453 12.4889497756958 15.258295059204102 12.784038543701172 15.172882080078125 13.046255111694336 C15.232024192810059 13.111747741699219 14.733736038208008 14.245906829833984 14.648571968078613 14.258980751037598 C14.504388809204102 14.481852531433105 14.484716415405273 14.70460033416748 14.353607177734375 14.934072494506836 C13.940732955932617 15.806014060974121 13.298138618469238 16.455081939697266 12.511486053466797 17.01213836669922 C12.229596138000488 17.057960510253906 12.023283958435059 17.418540954589844 11.741145133972168 17.45128631591797 C11.518645286560059 17.615140914916992 11.210484504699707 17.671045303344727 10.941667556762695 17.72309112548828 C10.17431354522705 17.874370574951172 9.584386825561523 17.871009826660156 8.830604553222656 17.811866760253906 C8.758264541625977 17.73317527770996 8.696258544921875 17.883956909179688 8.624167442321777 17.79891586303711 L8.578348159790039 17.76604652404785 L8.545477867126465 17.72022819519043 L8.171948432922363 17.674283981323242 C8.178546905517578 17.648012161254883 8.152151107788086 17.641536712646484 8.139202117919922 17.621864318847656 C8.112930297851562 17.615264892578125 8.106331825256348 17.641536712646484 8.093257904052734 17.65460968017578 C5.989043712615967 17.294029235839844 4.127373218536377 15.589740753173828 3.5307235717773438 13.56396770477295 C3.4323606491088867 13.157691955566406 3.314450263977051 12.705348014831543 3.386540412902832 12.292348861694336 L3.4194107055664062 12.429932594299316 C3.484903335571289 12.371039390563965 3.412811279296875 12.3052978515625 3.478428840637207 12.246280670166016 C3.4194107055664062 12.20058536529541 3.471830368041992 12.134968757629395 3.4324846267700195 12.06922721862793 C3.393263816833496 12.128369331359863 3.458756446838379 12.25287914276123 3.373467445373535 12.259353637695312 C3.373467445373535 11.872627258300781 3.4063377380371094 11.544917106628418 3.5308475494384766 11.204009056091309 C3.6292104721069336 11.046628952026367 3.537446975708008 10.856627464294434 3.701300621032715 10.699247360229492 C3.779867172241211 10.541866302490234 3.786590576171875 10.338666915893555 3.924173355102539 10.214157104492188 C3.8324098587036133 10.024030685424805 4.029135704040527 9.932267189025879 4.107825756072998 9.755213737487793 C4.435535430908203 9.184834480285645 4.750296115875244 8.568760871887207 5.274730682373047 8.123015403747559 C5.700803279876709 7.690344333648682 6.1989665031433105 7.310216426849365 6.677582263946533 6.988981246948242 C6.795492649078369 6.90369176864624 6.920126914978027 6.772707462310791 7.070908546447754 6.739961624145508 C7.529726505279541 6.425325393676758 8.113304138183594 6.320363998413086 8.690032958984375 6.24827241897583 L8.722779273986816 6.215526103973389 C9.116106033325195 6.208927631378174 9.516031265258789 6.110564708709717 9.90275764465332 6.169582366943359 C9.935627937316895 6.202203750610352 9.968374252319336 6.248023509979248 10.00759506225586 6.267696380615234 L10.00759506225586 6.267696380615234" fill="black" fill-opacity="1.0" filling="0"/>
<path animation_id="2" d="M9.771774291992188 11.390524864196777 L10.097366333007812 10.784411430358887 C10.120027542114258 10.741082191467285 10.14194107055664 10.698250770568848 10.16335678100586 10.656291007995605 C10.37141227722168 10.24727725982666 10.526427268981934 9.895411491394043 10.74631118774414 9.473323822021484 C10.720040321350098 9.407831192016602 10.844674110412598 9.355413436889648 10.838074684143066 9.270124435424805 C10.923240661621094 9.25045108795166 10.923240661621094 9.191433906555176 10.916765213012695 9.132540702819824 C11.008404731750488 9.126066207885742 11.001930236816406 8.994708061218262 11.041275024414062 8.975284576416016 L11.041275024414062 8.922741889953613 C11.054472923278809 8.942414283752441 11.074146270751953 8.942414283752441 11.093693733215332 8.942414283752441 C11.185457229614258 8.778558731079102 11.297018051147461 8.62117862701416 11.37558364868164 8.450849533081055 C11.34943675994873 8.404905319213867 11.323040962219238 8.365561485290527 11.342713356018066 8.326340675354004 C11.395256996154785 8.31326675415039 11.441200256347656 8.28052043914795 11.500093460083008 8.28052043914795 C11.56558609008789 8.4640474319458 11.460872650146484 8.686920166015625 11.408329963684082 8.83122730255127 C11.06094741821289 9.61128044128418 10.451348304748535 11.040278434753418 10.38573169708252 11.223806381225586 C10.27653694152832 11.407458305358887 10.162858963012695 11.69345760345459 10.228475570678711 11.584386825561523 C10.293968200683594 11.475067138671875 9.743509292602539 12.613459587097168 9.468218803405762 13.111747741699219 C9.441947937011719 13.360891342163086 9.22567367553711 13.53134536743164 9.140385627746582 13.754094123840332 C10.0776948928833 13.760692596435547 10.975907325744629 13.629584312438965 11.860922813415527 13.56396770477295 C12.005105018615723 13.505074501037598 12.175683975219727 13.557368278503418 12.352487564086914 13.518271446228027 C12.686920166015625 13.40671157836914 13.191682815551758 13.48527717590332 13.480172157287598 13.328145027160645 C13.506194114685059 13.361016273498535 13.545539855957031 13.341218948364258 13.578410148620605 13.347818374633789 L13.61128044128418 13.315072059631348 L13.61128044128418 13.347818374633789 C13.729191780090332 13.40671157836914 13.840627670288086 13.29539966583252 13.951939582824707 13.328145027160645 L14.017556190490723 13.236506462097168 L14.00448226928711 13.301998138427734 C14.148665428161621 13.282326698303223 15.335243225097656 13.06592845916748 15.400859832763672 13.046255111694336 L15.400859832763672 13.06592845916748 C15.453402519226074 13.111747741699219 15.505696296691895 13.013384819030762 15.558239936828613 13.06592845916748 C15.558239936828613 13.079001426696777 15.564839363098145 13.08547592163086 15.57766342163086 13.091951370239258 L15.636804580688477 13.091951370239258 C15.63045597076416 13.105148315429688 15.617133140563965 13.111747741699219 15.62373161315918 13.124945640563965 C15.83365535736084 13.091951370239258 16.108821868896484 13.157816886901855 16.33194351196289 13.046255111694336 L16.364566802978516 13.079126358032227 L17.433109283447266 12.908672332763672 L17.433109283447266 12.921745300292969 C17.570690155029297 12.928220748901367 17.78061294555664 12.915146827697754 17.9379940032959 12.875802040100098 C17.9379940032959 12.921745300292969 17.990537643432617 12.928220748901367 18.029632568359375 12.921745300292969 C18.055906295776367 12.908672332763672 18.042707443237305 12.875802040100098 18.042707443237305 12.856128692626953 C18.154142379760742 12.856128692626953 18.298574447631836 12.797111511230469 18.357341766357422 12.810309410095215 L18.455829620361328 12.75129222869873 L18.42296028137207 12.829981803894043 C18.82935905456543 12.843055725097656 19.314449310302734 12.810309410095215 19.759944915771484 12.731618881225586 C19.766544342041016 12.711947441101074 19.74027442932129 12.698748588562012 19.727325439453125 12.685800552368164 L19.635684967041016 12.698748588562012 C19.707651138305664 12.672601699829102 19.773269653320312 12.593912124633789 19.85183334350586 12.61993408203125 L19.79269027709961 12.718421936035156 C20.002614974975586 12.75129222869873 20.21216583251953 12.731494903564453 20.422088623046875 12.672601699829102 L20.120525360107422 12.672601699829102 C20.094253540039062 12.692275047302246 20.16646957397461 12.633255958557129 20.1993408203125 12.63985538482666 C20.317249298095703 12.698748588562012 20.46143341064453 12.593912124633789 20.59254264831543 12.63985538482666 C20.612213134765625 12.725020408630371 20.730125427246094 12.672601699829102 20.769596099853516 12.685675621032715 L20.782669067382812 12.672601699829102 C20.769596099853516 12.672601699829102 20.808940887451172 12.718421936035156 20.84803581237793 12.698748588562012 L20.84803581237793 12.731618881225586 C20.907176971435547 12.75129222869873 21.011890411376953 12.77083969116211 21.064434051513672 12.718545913696289 C21.05783462524414 12.698873519897461 21.03156280517578 12.698873519897461 21.018489837646484 12.698873519897461 C21.051361083984375 12.66612720489502 21.09730339050293 12.698873519897461 21.130050659179688 12.718545913696289 C21.261159896850586 12.672725677490234 21.48390769958496 12.744817733764648 21.55587387084961 12.653054237365723 C21.5887451171875 12.6200590133667 21.634689331054688 12.653054237365723 21.660961151123047 12.672725677490234 C21.62161636352539 12.698873519897461 21.608417510986328 12.66612720489502 21.569072723388672 12.698873519897461 C21.851211547851562 12.790637016296387 21.942848205566406 12.66612720489502 22.2115421295166 12.685924530029297 C22.329702377319336 12.685924530029297 22.401668548583984 12.758015632629395 22.513103485107422 12.685924530029297 C22.729503631591797 12.679325103759766 22.893234252929688 12.76461410522461 23.142501831054688 12.75141716003418 C23.083358764648438 12.731743812561035 23.07028579711914 12.77756404876709 23.031064987182617 12.797235488891602 L23.06368637084961 12.843180656433105 C23.01799201965332 12.948017120361328 22.873809814453125 12.836581230163574 22.814666748046875 12.888999938964844 L22.840938568115234 12.921870231628418 L22.231338500976562 12.934819221496582 C22.067485809326172 12.967690467834473 21.94944953918457 13.00691032409668 21.792194366455078 13.000436782836914 L21.805267333984375 13.046255111694336 C21.484031677246094 13.091951370239258 21.162796020507812 13.144618034362793 20.84803581237793 13.190438270568848 L21.005416870117188 13.203511238098145 C20.61881446838379 13.177240371704102 20.284381866455078 13.24920654296875 19.904003143310547 13.269003868103027 C20.04183578491211 13.32142162322998 20.21216583251953 13.262404441833496 20.376018524169922 13.28207778930664 L20.376018524169922 13.301749229431152 L20.579345703125 13.301749229431152 C20.264707565307617 13.380439758300781 19.963146209716797 13.327896118164062 19.64838409423828 13.406462669372559 C19.615764617919922 13.387038230895996 19.497852325439453 13.341094970703125 19.478179931640625 13.42625904083252 C19.465106964111328 13.452530860900879 19.432235717773438 13.439332962036133 19.41256332397461 13.439332962036133 L19.458507537841797 13.40633773803711 L19.242109298706055 13.40633773803711 C19.235511779785156 13.426135063171387 19.229036331176758 13.485028266906738 19.274980545043945 13.5048246383667 C19.29465103149414 13.5048246383667 19.307849884033203 13.47855281829834 19.334121704101562 13.485028266906738 C19.301252365112305 13.531097412109375 19.22256088256836 13.531097412109375 19.163667678833008 13.550644874572754 C19.15707015991211 13.485028266906738 19.301252365112305 13.498226165771484 19.22256088256836 13.426135063171387 C19.143997192382812 13.412936210632324 19.078378677368164 13.445682525634766 19.006412506103516 13.459005355834961 L19.065305709838867 13.485028266906738 L19.006412506103516 13.485028266906738 L19.019487380981445 13.472078323364258 C18.960344314575195 13.412936210632324 18.862106323242188 13.452530860900879 18.783414840698242 13.439332962036133 L18.737472534179688 13.485028266906738 C18.757143020629883 13.498226165771484 18.750545501708984 13.518022537231445 18.750545501708984 13.537694931030273 C18.639108657836914 13.570316314697266 18.514598846435547 13.583515167236328 18.409637451171875 13.64240837097168 C18.350744247436523 13.635808944702148 18.285375595092773 13.61626148223877 18.232833862304688 13.64240837097168 C18.21976089477539 13.721097946166992 18.324474334716797 13.695075988769531 18.344268798828125 13.721097946166992 C18.154142379760742 13.780241012573242 17.964141845703125 13.799788475036621 17.747743606567383 13.832658767700195 L17.78061294555664 13.786714553833008 C17.760942459106445 13.760442733764648 17.728069305419922 13.773641586303711 17.701799392700195 13.773641586303711 C17.774015426635742 13.760567665100098 17.905122756958008 13.649131774902344 17.964141845703125 13.753968238830566 C18.11492347717285 13.68860149383545 18.19348907470703 13.622984886169434 18.331071853637695 13.5638427734375 L18.232833862304688 13.583639144897461 C18.331071853637695 13.491751670837402 18.455829620361328 13.557243347167969 18.567018508911133 13.537819862365723 C18.62615966796875 13.518147468566895 18.691776275634766 13.518147468566895 18.737472534179688 13.472204208374023 C18.56041717529297 13.439457893371582 18.475378036499023 13.478801727294922 18.278528213500977 13.439457893371582 C18.16061782836914 13.498475074768066 17.990413665771484 13.45913028717041 17.904998779296875 13.537819862365723 C17.833032608032227 13.445931434631348 17.747617721557617 13.570441246032715 17.649381637573242 13.550768852233887 C17.69507598876953 13.576915740966797 17.76081657409668 13.56371784210205 17.806760787963867 13.56371784210205 C17.833032608032227 13.64240837097168 17.937870025634766 13.56371784210205 17.996889114379883 13.56371784210205 C17.94434356689453 13.740771293640137 17.72134780883789 13.64240837097168 17.603437423706055 13.695075988769531 C17.610034942626953 13.668804168701172 17.583763122558594 13.66220474243164 17.570566177368164 13.64240837097168 C17.40671157836914 13.786714553833008 17.164167404174805 13.681878089904785 16.97403907775879 13.799788475036621 L17.098548889160156 13.819584846496582 C17.08547592163086 13.819584846496582 17.0594539642334 13.812987327575684 17.0528564453125 13.832658767700195 L17.072277069091797 13.852331161499023 C17.275602340698242 13.799664497375488 17.452655792236328 13.786714553833008 17.649381637573242 13.773517608642578 L17.669052124023438 13.81946086883545 C17.59683609008789 13.799664497375488 17.472328186035156 13.871755599975586 17.41318702697754 13.81946086883545 C17.151092529296875 13.884828567504883 16.842931747436523 14.016186714172363 16.580713272094727 13.93089771270752 C16.46280288696289 13.963644027709961 16.364315032958984 14.048808097839355 16.220134735107422 14.035734176635742 C16.213533401489258 14.022785186767578 16.22673225402832 14.016310691833496 16.23320770263672 14.009587287902832 C16.161239624023438 13.989914894104004 16.056154251098633 14.1340970993042 15.95131778717041 14.035734176635742 C15.925045013427734 14.094877243041992 15.905373573303223 14.042333602905273 15.872751235961914 14.035734176635742 C15.558115005493164 14.160493850708008 15.249954223632812 14.186515808105469 14.915519714355469 14.2587308883667 C14.830355644226074 14.173442840576172 14.74506664276123 14.278280258178711 14.65990161895752 14.291601181030273 C14.641847610473633 14.31949234008789 13.622237205505371 14.388469696044922 13.40048599243164 14.48733139038086 C13.297142028808594 14.533150672912598 13.293780326843262 14.48733139038086 13.162672996520996 14.544855117797852 C13.008030891418457 14.550581932067871 13.123327255249023 14.442756652832031 12.816908836364746 14.574612617492676 C12.674593925476074 14.636369705200195 12.623794555664062 14.568885803222656 12.47039794921875 14.634377479553223 C12.427566528320312 14.652804374694824 12.621428489685059 14.669488906860352 12.25474739074707 14.682437896728516 C11.99688720703125 14.741580963134766 12.181286811828613 14.79885482788086 11.811491966247559 14.804084777832031 C11.746000289916992 14.80495548248291 11.810994148254395 14.84865951538086 11.648136138916016 14.839445114135742 C11.529229164123535 14.833344459533691 11.522256851196289 14.855631828308105 11.453153610229492 14.893232345581055 C11.366619110107422 14.939924240112305 11.375832557678223 14.960592269897461 11.328643798828125 15.026084899902344 C11.319554328918457 15.03878402709961 11.507439613342285 15.100417137145996 11.49909782409668 15.112619400024414 C11.480297088623047 15.138766288757324 11.5855073928833 15.165037155151367 11.512918472290039 15.188570022583008 C11.370354652404785 15.234390258789062 11.010894775390625 15.26925277709961 10.959721565246582 15.26925277709961 C10.882774353027344 15.269874572753906 10.905933380126953 15.30038070678711 10.778310775756836 15.270248413085938 C10.543734550476074 15.27983570098877 10.389840126037598 15.380439758300781 10.06213092803955 15.335367202758789 C9.977339744567871 15.308099746704102 9.581522941589355 15.510552406311035 9.499221801757812 15.484654426574707 C9.438212394714355 15.465479850769043 9.380439758300781 15.458880424499512 9.325779914855957 15.407957077026367 C9.28282356262207 15.367740631103516 9.258047103881836 15.336238861083984 9.219199180603027 15.28469181060791 C9.136524200439453 15.175745964050293 8.997696876525879 15.117226600646973 8.93282699584961 15.016372680664062 C8.860363006591797 14.903691291809082 8.847786903381348 14.70522403717041 8.79574203491211 14.704227447509766 C8.638360977172852 14.587187767028809 8.6820650100708 14.420345306396484 8.567142486572266 14.30218505859375 C8.463176727294922 13.999377250671387 8.476250648498535 13.856938362121582 8.614705085754395 13.595841407775879 C8.674593925476074 13.506817817687988 8.770341873168945 13.33200454711914 8.866338729858398 13.105523109436035 C8.945900917053223 12.985868453979492 9.009276390075684 12.88837718963623 9.049492835998535 12.818402290344238 C9.08983325958252 12.749300003051758 9.783975601196289 11.397124290466309 9.771774291992188 11.390524864196777 L9.771774291992188 11.390524864196777" fill="black" fill-opacity="1.0" filling="0"/>
<path animation_id="3" d="M5.467596054077148 10.652804374694824 L5.5242486000061035 10.596028327941895 L5.589491367340088 10.498537063598633 L5.6864848136901855 10.401046752929688 L5.792193412780762 10.279523849487305 L5.905497074127197 10.173815727233887 L6.035111904144287 10.05241870880127 L6.164975643157959 9.914213180541992 L6.278652667999268 9.817219734191895 L6.53825569152832 9.622237205505371 L6.667994976043701 9.5576171875 L6.757143974304199 9.484280586242676 L6.862977027893066 9.435721397399902 L7.025088787078857 9.378946304321289 L7.179356575012207 9.338231086730957 L7.357529640197754 9.305858612060547 L7.527983665466309 9.273486137390137 L7.739152431488037 9.265268325805664 L7.925667762756348 9.273486137390137 L8.079561233520508 9.298014640808105 L8.201581954956055 9.3303861618042 L8.388097763061523 9.378946304321289 L8.558053016662598 9.435721397399902 L8.67982292175293 9.492622375488281 L8.793624877929688 9.549274444580078 L8.947395324707031 9.646890640258789 L9.110004425048828 9.768287658691406 L9.2398681640625 9.857312202453613 L9.369606971740723 9.979455947875977 L9.46660041809082 10.076822280883789 L9.572308540344238 10.173815727233887 L9.677644729614258 10.279523849487305 L9.77513599395752 10.39320182800293 L9.856066703796387 10.50638198852539 L9.961775779724121 10.636245727539062 L10.034863471984863 10.74195384979248 L10.07545280456543 10.83110237121582 L10.132229804992676 10.912406921386719 L10.213160514831543 11.042146682739258 L10.294341087341309 11.155450820922852 L10.351242065429688 11.252692222595215 L10.39183235168457 11.374836921691895 L10.440266609191895 11.496233940124512 L10.480981826782227 11.617754936218262 L10.505012512207031 11.70727825164795 L10.537757873535156 11.788208961486816 L10.505012512207031 11.8287992477417 L10.448235511779785 11.86117172241211 L10.407894134521484 11.812737464904785 L10.375272750854492 11.731307983398438 L10.318869590759277 11.66668701171875 L10.278030395507812 11.617754936218262 L10.237565040588379 11.601569175720215 L10.132229804992676 11.561352729797363 L10.018675804138184 11.512295722961426 L9.921060562133789 11.480048179626465 L9.832160949707031 11.431488037109375 L9.718358993530273 11.366495132446289 L9.531843185424805 11.179854393005371 L9.474942207336426 11.106891632080078 L9.434228897094727 11.042146682739258 L9.345203399658203 10.928594589233398 L9.174749374389648 10.68517780303955 L9.085600852966309 10.539252281188965 L9.028823852539062 10.4578218460083 L8.955737113952637 10.425450325012207 L8.850526809692383 10.425450325012207 L8.753035545349121 10.433418273925781 L8.590923309326172 10.4578218460083 L8.40428352355957 10.51472282409668 L8.282387733459473 10.571499824523926 L8.120152473449707 10.644462585449219 L7.966009140014648 10.74195384979248 L7.852331638336182 10.83110237121582 L7.763182640075684 10.920251846313477 L7.666189193725586 11.001556396484375 L7.592604160308838 11.082488059997559 L7.5119218826293945 11.163668632507324 L7.455020904541016 11.228413581848145 L7.430617332458496 11.252692222595215 L7.4957356452941895 11.261159896850586 L7.633318901062012 11.277220726013184 L7.771524906158447 11.293532371520996 L7.90126371383667 11.301874160766602 L8.047188758850098 11.301874160766602 L8.193115234375 11.293532371520996 L8.339164733886719 11.285189628601074 L8.517961502075195 11.269003868103027 L8.671730041503906 11.236631393432617 L8.809686660766602 11.212102890014648 L8.988109588623047 11.163668632507324 L9.117849349975586 11.123078346252441 L9.263898849487305 11.074519157409668 L9.361265182495117 11.033803939819336 L9.393637657165527 11.02558708190918 L9.434228897094727 11.098549842834473 L9.434228897094727 11.163668632507324 L9.401979446411133 11.220444679260254 L9.361265182495117 11.277220726013184 L9.329017639160156 11.366495132446289 L9.296769142150879 11.431488037109375 L9.288302421569824 11.496233940124512 L9.30461311340332 11.569320678710938 L9.312830924987793 11.634315490722656 L9.369606971740723 11.723464012145996 L9.418166160583496 11.788208961486816 L9.442569732666016 11.877357482910156 L9.458756446838379 11.95032024383545 L9.458756446838379 12.072216033935547 L9.426383972167969 12.161489486694336 L9.369606971740723 12.266824722290039 L9.231525421142578 12.49393081665039 L9.15071964263916 12.534520149230957 L8.89896011352539 12.559048652648926 L8.614953994750977 12.54273796081543 L8.315134048461914 12.49393081665039 L7.974226474761963 12.404905319213867 L7.6739091873168945 12.291104316711426 L7.422773361206055 12.169706344604492 L7.2033867835998535 12.056154251098633 L6.935940265655518 11.909979820251465 L6.854635238647461 11.869389533996582 L6.765361309051514 11.788208961486816 L6.684180736541748 11.723464012145996 L6.489696979522705 11.658346176147461 L6.351615905761719 11.625972747802734 L6.1895036697387695 11.504451751708984 L6.07570219039917 11.3988676071167 L5.897528648376465 11.228413581848145 L5.767789840698242 11.090704917907715 L5.662454128265381 10.99321460723877 L5.581149578094482 10.879661560058594 L5.5405592918396 10.790513038635254 L5.492000579833984 10.725767135620117 L5.467596054077148 10.652804374694824 L5.467596054077148 10.652804374694824" fill="black" fill-opacity="1.0" filling="0"/>
<path animation_id="4" d="M11.666189193725586 9.758700370788574 C12.197098731994629 9.686111450195312 12.793624877929688 9.712881088256836 13.331382751464844 9.680010795593262 C13.423022270202637 9.725456237792969 13.514785766601562 9.771774291992188 13.567329406738281 9.870137214660645 C13.580402374267578 10.027517318725586 13.626471519470215 10.132229804992676 13.521385192871094 10.263463020324707 C13.501712799072266 10.70211124420166 13.364004135131836 11.154953002929688 13.396875381469727 11.619996070861816 C13.456016540527344 11.699060440063477 13.600199699401855 11.764801025390625 13.567329406738281 11.902384757995605 C13.442819595336914 11.987175941467285 13.364004135131836 11.980576515197754 13.265766143798828 12.092387199401855 L13.141256332397461 12.138330459594727 C12.538130760192871 12.131731033325195 11.954678535461426 12.131731033325195 11.318807601928711 12.151030540466309 C11.292535781860352 12.190749168395996 11.253314971923828 12.21004867553711 11.20749568939209 12.197347640991211 C11.109132766723633 12.092387199401855 11.076262474060059 11.954554557800293 11.050115585327148 11.823196411132812 C11.233642578125 11.174749374389648 11.318807601928711 10.492934226989746 11.52213191986084 9.857187271118164 C11.410571098327637 9.778497695922852 11.587624549865723 9.699807167053223 11.456515312194824 9.62061882019043 C11.535080909729004 9.67341136932373 11.60069751739502 9.67341136932373 11.666189193725586 9.758700370788574 L11.666189193725586 9.758700370788574 M12.374152183532715 10.184773445129395 L12.374152183532715 10.171699523925781 C12.223370552062988 10.256988525390625 12.059515953063965 10.204320907592773 11.902135848999023 10.217144966125488 C11.86926555633545 10.682936668395996 11.646392822265625 11.069663047790527 11.666065216064453 11.554380416870117 C12.059391975402832 11.462491035461426 12.439643859863281 11.469588279724121 12.859241485595703 11.430243492126465 C12.9378080368042 10.997074127197266 12.931208610534668 10.630393028259277 13.062317848205566 10.217020034790039 L12.374152183532715 10.184773445129395 L12.374152183532715 10.184773445129395" fill="black" fill-opacity="1.0" filling="0"/>
<path animation_id="5" d="M12.767602920532227 10.781298637390137 C12.872440338134766 10.898836135864258 12.701986312866211 10.984498977661133 12.66911506652832 11.08273696899414 C12.51833438873291 11.233518600463867 12.308660507202148 11.298761367797852 12.105460166931152 11.286185264587402 C11.921808242797852 11.089460372924805 11.856315612792969 10.814168930053711 11.948079109191895 10.578099250793457 L11.902260780334473 10.532154083251953 C11.980950355529785 10.499408721923828 12.098984718322754 10.486335754394531 12.072713851928711 10.361701011657715 C12.393824577331543 10.308784484863281 12.577476501464844 10.597646713256836 12.767602920532227 10.781298637390137 L12.767602920532227 10.781298637390137" fill="black" fill-opacity="1.0" filling="0"/></svg>