<?xml version="1.0" encoding="iso-8859-1"?><svg height="200px" viewBox="0.0 0.0 24.0 24.0" width="200px" xmlns="http://www.w3.org/2000/svg"><path animation_id="0" d="M14.904502868652344 15.512669563293457 L14.624921798706055 15.260104179382324 C16.47832489013672 13.206910133361816 18.2952880859375 12.356858253479004 18.810470581054688 12.143874168395996 C18.828691482543945 11.95413589477539 18.838115692138672 11.761884689331055 18.838115692138672 11.567119598388672 C18.838115692138672 8.482303619384766 16.529842376708984 5.936544418334961 13.546806335449219 5.562094211578369 C13.335707664489746 5.675183296203613 12.694241523742676 6.062198638916016 12.239371299743652 6.796648979187012 C11.66952896118164 7.716439723968506 11.342199325561523 8.665130615234375 11.33842945098877 8.674554824829102 C11.319581031799316 8.73549747467041 10.833298683166504 10.30994701385498 10.25654411315918 11.344083786010742 C9.749528884887695 12.254449844360352 8.926492691040039 13.730889320373535 7.390995025634766 13.730889320373535 C7.304922103881836 13.730889320373535 7.216964244842529 13.725863456726074 7.126492977142334 13.716439247131348 C7.993508815765381 15.997695922851562 10.200000762939453 17.619266510009766 12.785340309143066 17.619266510009766 C15.781570434570312 17.619266510009766 18.269529342651367 15.441675186157227 18.752670288085938 12.58240795135498 C18.085445404052734 12.891517639160156 16.494659423828125 13.750994682312012 14.904502868652344 15.512669563293457" fill="black" fill-opacity="1.0" filling="0"/>
<path animation_id="1" d="M9.927330017089844 11.160627365112305 C10.483980178833008 10.161674499511719 10.975288391113281 8.574030876159668 10.979686737060547 8.558324813842773 C10.995393753051758 8.512460708618164 11.325236320495605 7.555602073669434 11.918325424194336 6.598114967346191 C12.228691101074219 6.0967535972595215 12.611937522888184 5.744293212890625 12.91916275024414 5.516230583190918 C12.874555587768555 5.5149736404418945 12.829947471618652 5.514345645904541 12.785340309143066 5.514345645904541 C9.44293212890625 5.514345645904541 6.733193874359131 8.22408390045166 6.733193874359131 11.566492080688477 C6.733193874359131 12.177172660827637 6.824294090270996 12.767119407653809 6.99267053604126 13.323141098022461 C8.638115882873535 13.539266586303711 9.399581909179688 12.108062744140625 9.927330017089844 11.160627365112305 L9.927330017089844 11.160627365112305" fill="black" fill-opacity="1.0" filling="0"/>
<path animation_id="2" d="M16.466386795043945 15.541570663452148 L13.068062782287598 14.212774276733398 L10.059896469116211 15.967538833618164 L7.853403568267822 15.113717079162598 L9.5367431640625e-07 18.485652923583984 L24.0 18.464920043945312 L18.01068115234375 14.653193473815918 L16.466386795043945 15.541570663452148" fill="black" fill-opacity="1.0" filling="0"/>
<path animation_id="3" d="M10.059896469116211 15.967538833618164 L7.853403568267822 15.113717079162598 L9.5367431640625e-07 18.485652923583984 M16.466386795043945 15.541570663452148 L13.068062782287598 14.212774276733398 L10.059896469116211 15.967538833618164 L5.780105113983154 18.464920043945312 M24.0 18.464920043945312 L18.01068115234375 14.653193473815918 L16.466386795043945 15.541570663452148 M16.466386795043945 15.541570663452148 L14.952878952026367 16.412355422973633" fill="black" fill-opacity="1.0" filling="0"/></svg>