<?xml version="1.0" encoding="iso-8859-1"?><svg height="200px" viewBox="0.0 0.0 24.0 24.0" width="200px" xmlns="http://www.w3.org/2000/svg"><path animation_id="0" d="M0.0 0.0 L24.0 0.0 L24.0 24.0 L0.0 24.0 L0.0 0.0" fill="black" fill-opacity="1.0" filling="0"/>
<path animation_id="1" d="M1.5212602615356445 10.31600570678711 C4.4148664474487305 4.306169509887695 8.120277404785156 7.411193370819092 8.465044021606445 5.796426773071289 L4.030006408691406 14.263835906982422 C3.6229848861694336 15.05347728729248 15.671419143676758 0.23171234130859375 9.683870315551758 8.908049583435059 C3.7075271606445312 17.582271575927734 4.752910614013672 16.350120544433594 3.936624526977539 17.495487213134766 C3.1337852478027344 18.640975952148438 12.194857597351074 7.907240390777588 11.81236457824707 8.632261276245117 L6.512233257293701 18.640975952148438 C4.285874366760254 22.85799789428711 18.531780242919922 4.728879928588867 16.25412368774414 4.728879928588867 C13.967752456665039 4.728879928588867 11.114113807678223 12.955986022949219 10.546847343444824 13.941356658935547 C9.968624114990234 14.94216537475586 13.758575439453125 12.58009147644043 18.00896644592285 7.1331634521484375 C22.257112503051758 1.6750297546386719 9.977588653564453 17.566707611083984 9.775260925292969 18.480857849121094 C9.570566177368164 19.381559371948242 13.40945053100586 15.115732192993164 13.40945053100586 15.111249923706055 C13.40945053100586 15.115732192993164 16.031749725341797 10.883147239685059 17.9934024810791 9.219573020935059 C16.031625747680664 10.883147239685059 12.693270683288574 18.053913116455078 12.693270683288574 18.04943084716797 C12.693270683288574 18.053913116455078 21.93251609802246 8.743572235107422 20.32434844970703 8.743572235107422 C18.720787048339844 8.743572235107422 14.830604553222656 17.958288192749023 14.830604553222656 18.799102783203125 C14.830604553222656 19.650875091552734 21.051734924316406 10.331693649291992 22.306045532226562 11.73965072631836 C23.562847137451172 13.19193172454834 17.550893783569336 18.799102783203125 17.550893783569336 18.799102783203125" fill="none" filling="0" stroke="black" stroke-opacity="1.0" stroke-width=".3"/>
<path animation_id="2" d="M9.699434280395508 13.803399085998535 L10.713689804077148 13.803399085998535 L10.713689804077148 14.53514289855957 L9.699434280395508 14.53514289855957 L9.699434280395508 13.803399085998535 M14.986366271972656 8.830106735229492 L16.95250129699707 8.830106735229492 L16.95250129699707 14.699745178222656 L14.986366271972656 14.699745178222656 L14.986366271972656 8.830106735229492" fill="black" fill-opacity="1.0" filling="0"/>
<path animation_id="3" d="M9.735042572021484 11.855070114135742 L9.74836540222168 15.627218246459961 L9.735042572021484 15.627218246459961 C7.657722473144531 15.627218246459961 5.96289587020874 13.934632301330566 5.96289587020874 11.855070114135742 C5.96289587020874 9.777626037597656 7.657722473144531 8.082923889160156 9.735042572021484 8.082923889160156 L9.735042572021484 11.855070114135742" fill="black" fill-opacity="1.0" filling="0"/>
<path animation_id="4" d="M9.732802391052246 11.855070114135742 L9.741641998291016 14.277158737182617 L9.732802391052246 14.277158737182617 C8.396065711975098 14.277158737182617 7.308473110198975 13.189566612243652 7.308473110198975 11.855070114135742 C7.308473110198975 10.520575523376465 8.396065711975098 9.430741310119629 9.732802391052246 9.430741310119629 L9.732802391052246 11.855070114135742" fill="black" fill-opacity="1.0" filling="0"/>
<path animation_id="5" d="M9.714997291564941 8.082798957824707 L11.832409858703613 8.082798957824707 L10.475751876831055 9.437339782714844 L9.714997291564941 9.430741310119629 L9.714997291564941 8.082798957824707 M9.741766929626465 14.272801399230957 L10.517960548400879 14.272801399230957 L11.859179496765137 15.62497615814209 L9.741766929626465 15.62497615814209 L9.741766929626465 14.272801399230957" fill="black" fill-opacity="1.0" filling="0"/>
<path animation_id="6" d="M16.449853897094727 11.855070114135742 L16.43429183959961 8.082923889160156 L16.449853897094727 8.082923889160156 C18.52717399597168 8.082923889160156 20.222126007080078 9.777750015258789 20.222126007080078 11.855070114135742 C20.222126007080078 13.934632301330566 18.52717399597168 15.627218246459961 16.449853897094727 15.627218246459961 L16.449853897094727 11.855070114135742" fill="black" fill-opacity="1.0" filling="0"/>
<path animation_id="7" d="M16.45209503173828 11.855070114135742 L16.312021255493164 9.4329833984375 L16.45209503173828 9.4329833984375 C17.78883171081543 9.4329833984375 18.87642478942871 10.52269172668457 18.87642478942871 11.855070114135742 C18.87642478942871 13.191682815551758 17.788955688476562 14.279399871826172 16.45209503173828 14.279399871826172 L16.43429183959961 14.279399871826172 L16.45209503173828 11.855070114135742" fill="black" fill-opacity="1.0" filling="0"/>
<path animation_id="8" d="M16.46977424621582 15.627218246459961 L14.323476791381836 15.627218246459961 L15.680258750915527 14.274917602539062 L16.46977424621582 14.279399871826172 L16.46977424621582 15.627218246459961 M16.443004608154297 9.439457893371582 L15.666812896728516 9.439457893371582 L14.32571792602539 8.087282180786133 L16.443004608154297 8.087282180786133 L16.443004608154297 9.439457893371582" fill="black" fill-opacity="1.0" filling="0"/>
<path animation_id="9" d="M14.348005294799805 8.073959350585938 L18.13347625732422 11.859553337097168 L14.361452102661133 15.63170051574707 L13.10714054107666 14.379505157470703 L15.626969337463379 11.859553337097168 L14.374773979187012 10.60499382019043 L11.854697227478027 13.125070571899414 L10.575733184814453 11.846230506896973 L14.348005294799805 8.073959350585938 L14.348005294799805 8.073959350585938" fill="black" fill-opacity="1.0" filling="0"/>
<path animation_id="10" d="M11.854697227478027 15.63170051574707 L8.069103240966797 11.846230506896973 L11.843616485595703 8.073959350585938 L13.095934867858887 9.326153755187988 L10.575733184814453 11.846230506896973 L11.828052520751953 13.100666999816895 L14.348005294799805 10.580713272094727 L15.626969337463379 11.859553337097168 L11.854697227478027 15.63170051574707 L11.854697227478027 15.63170051574707" fill="black" fill-opacity="1.0" filling="0"/>
<path animation_id="11" d="M7.650999546051025 7.110876083374023 L6.997074127197266 7.110876083374023 C6.932578086853027 7.110876083374023 6.874805450439453 7.09967041015625 6.832596778869629 7.073025226593018 C6.78814697265625 7.046380043029785 6.7546539306640625 7.015252590179443 6.736973762512207 6.97291898727417 A0.18913030624389648 0.18913030624389648 0.0 0 1 6.705846309661865 6.86845588684082 L6.705846309661865 6.517088890075684 A0.1992155909538269 0.1992155909538269 0.0 0 1 6.7392144203186035 6.401419162750244 C6.770341873168945 6.367926597595215 6.801469326019287 6.341405868530273 6.834837913513184 6.31463623046875 C6.874929904937744 6.292473316192627 6.901575088500977 6.283508777618408 6.928220272064209 6.283508777618408 L7.6421589851379395 6.283508777618408 L7.6421589851379395 6.479238033294678 L7.088215351104736 6.479238033294678 C7.065927982330322 6.479238033294678 7.046006679534912 6.485836982727051 7.028326511383057 6.4948015213012695 C7.006039142608643 6.50588321685791 6.988234043121338 6.525928974151611 6.974911689758301 6.543734073638916 C6.9615888595581055 6.557056427001953 6.959347724914551 6.577103137969971 6.959347724914551 6.594907760620117 L6.959347724914551 6.784038066864014 C6.959347724914551 6.801843166351318 6.959347724914551 6.819647789001465 6.970429420471191 6.8374528884887695 A0.08640976250171661 0.08640976250171661 0.0 0 0 7.012637615203857 6.879661560058594 C7.030442714691162 6.8886260986328125 7.052730083465576 6.897590637207031 7.077134132385254 6.897590637207031 L7.650875091552734 6.897590637207031 L7.650875091552734 7.110876083374023 L7.650999546051025 7.110876083374023 L7.650999546051025 7.110876083374023 M8.905435562133789 6.859615325927734 C8.905435562133789 6.906306266784668 8.894353866577148 6.94851541519165 8.867584228515625 6.986366271972656 C8.843180656433105 7.02869987487793 8.805329322814941 7.055345058441162 8.774202346801758 7.082114219665527 C8.734109878540039 7.102035999298096 8.702981948852539 7.1110005378723145 8.676336288452148 7.1110005378723145 L8.026894569396973 7.1110005378723145 C7.973479747772217 7.1110005378723145 7.92454719543457 7.099794864654541 7.88445520401001 7.073149681091309 C7.846728801727295 7.046504974365234 7.811119079589844 7.01313591003418 7.788707256317139 6.973043918609619 A0.29708024859428406 0.29708024859428406 0.0 0 1 7.759820938110352 6.850650787353516 L7.759820938110352 6.543858528137207 C7.759820938110352 6.506007671356201 7.759820938110352 6.47039794921875 7.777625560760498 6.441511631011963 A0.32995083928108215 0.32995083928108215 0.0 0 1 7.9154582023620605 6.301313877105713 C7.946585655212402 6.283508777618408 7.9754719734191895 6.283508777618408 7.9977593421936035 6.283508777618408 L8.638360977172852 6.283508777618408 C8.667247772216797 6.283508777618408 8.702857971191406 6.290232181549072 8.74506664276123 6.312395095825195 C8.7850341796875 6.323476314544678 8.825125694274902 6.359086513519287 8.860735893249512 6.399178504943848 C8.889622688293457 6.441387176513672 8.905186653137207 6.4948015213012695 8.905186653137207 6.557056427001953 L8.905186653137207 6.859615325927734 L8.905435562133789 6.859615325927734 M8.65865707397461 6.78167200088501 L8.65865707397461 6.614829063415527 C8.65865707397461 6.577103137969971 8.64969253540039 6.548216342926025 8.623046875 6.525928974151611 C8.600760459899902 6.5036420822143555 8.563034057617188 6.485836982727051 8.511734962463379 6.485836982727051 L8.1403226852417 6.485836982727051 C8.122517585754395 6.485836982727051 8.104713439941406 6.4948015213012695 8.089273452758789 6.50588321685791 A0.09400485455989838 0.09400485455989838 0.0 0 0 8.033617973327637 6.545975685119629 A0.07370977103710175 0.07370977103710175 0.0 0 0 8.011330604553223 6.603747844696045 L8.011330604553223 6.759384632110596 C8.011330604553223 6.801593780517578 8.018054962158203 6.83272123336792 8.042458534240723 6.859490871429443 C8.058021545410156 6.8883771896362305 8.089149475097656 6.897341728210449 8.129117012023926 6.897341728210449 L8.545103073120117 6.897341728210449 C8.578473091125488 6.897341728210449 8.600634574890137 6.8883771896362305 8.629645347595215 6.870696544647217 C8.64969253540039 6.855133056640625 8.65865707397461 6.826246738433838 8.65865707397461 6.78167200088501 L8.65865707397461 6.78167200088501 M10.193239212036133 6.935193061828613 C10.193239212036133 6.957480430603027 10.188756942749023 6.986241817474365 10.173192977905273 7.015252590179443 A0.23345577716827393 0.23345577716827393 0.0 0 1 10.09985637664795 7.108634948730469 C10.070846557617188 7.130797386169434 10.022037506103516 7.142003536224365 9.968624114990234 7.142003536224365 C9.917449951171875 7.142003536224365 9.877482414245605 7.1331634521484375 9.848471641540527 7.119716167449951 C9.826184272766113 7.108634948730469 9.792940139770508 7.075266361236572 9.768412590026855 7.037415504455566 L9.363631248474121 6.545851230621338 C9.350308418273926 6.528046131134033 9.332379341125488 6.5192060470581055 9.332379341125488 6.516964435577393 C9.321297645568848 6.505758762359619 9.314573287963867 6.505758762359619 9.303492546081543 6.505758762359619 C9.294528007507324 6.505758762359619 9.285688400268555 6.505758762359619 9.281205177307129 6.516964435577393 C9.27236557006836 6.52580451965332 9.265642166137695 6.528046131134033 9.265642166137695 6.543609619140625 L9.265642166137695 7.110751628875732 L9.02546215057373 7.110751628875732 L9.02546215057373 6.450102806091309 C9.02546215057373 6.436779975891113 9.02546215057373 6.423333168029785 9.038784980773926 6.401170253753662 C9.04102611541748 6.381124496459961 9.056589126586914 6.358837127685547 9.072153091430664 6.341156959533691 C9.094316482543945 6.321110725402832 9.11660385131836 6.298823833465576 9.145614624023438 6.283259868621826 C9.174500465393066 6.2654547691345215 9.20562744140625 6.263214111328125 9.2523193359375 6.263214111328125 C9.303492546081543 6.263214111328125 9.347943305969238 6.2654547691345215 9.372346878051758 6.283259868621826 C9.40795612335205 6.301064491271973 9.430118560791016 6.323227405548096 9.44792366027832 6.341156959533691 L9.857187271118164 6.819274425506592 C9.868268966674805 6.837079048156738 9.881715774536133 6.850401878356934 9.88607406616211 6.854884147644043 A0.09126564115285873 0.09126564115285873 0.0 0 0 9.919442176818848 6.859366416931152 C9.935006141662598 6.859366416931152 9.943845748901367 6.859366416931152 9.946087837219238 6.850401878356934 C9.952810287475586 6.841561794281006 9.952810287475586 6.832596778869629 9.952810287475586 6.817032814025879 L9.952810287475586 6.283259868621826 L10.193114280700684 6.283259868621826 L10.193114280700684 6.935193061828613 L10.193239212036133 6.935193061828613 M11.285314559936523 6.479238033294678 L10.660274505615234 6.479238033294678 A0.07694701850414276 0.07694701850414276 0.0 0 0 10.602378845214844 6.50588321685791 C10.586814880371094 6.525928974151611 10.577974319458008 6.543734073638916 10.577974319458008 6.557056427001953 L10.582456588745117 6.597024440765381 L11.274107933044434 6.597024440765381 L11.274107933044434 6.7994771003723145 L10.582456588745117 6.7994771003723145 L10.582456588745117 7.110876083374023 L10.33779525756836 7.110876083374023 L10.33779525756836 6.50588321685791 C10.33779525756836 6.468156814575195 10.346759796142578 6.4370293617248535 10.377762794494629 6.401419162750244 C10.397809028625488 6.367926597595215 10.433418273925781 6.341405868530273 10.471269607543945 6.31463623046875 C10.50899600982666 6.292473316192627 10.549087524414062 6.283508777618408 10.586938858032227 6.283508777618408 L11.285314559936523 6.283508777618408 L11.285314559936523 6.479238033294678 L11.285314559936523 6.479238033294678 M12.357343673706055 7.110876083374023 L11.661209106445312 7.110876083374023 C11.614518165588379 7.110876083374023 11.570068359375 7.09967041015625 11.529975891113281 7.073025226593018 C11.489883422851562 7.046380043029785 11.456515312194824 7.015252590179443 11.436593055725098 6.97291898727417 A0.20195479691028595 0.20195479691028595 0.0 0 1 11.40310001373291 6.859490871429443 L11.40310001373291 6.5102410316467285 C11.40310001373291 6.476872444152832 11.41878890991211 6.4369049072265625 11.443192481994629 6.407894134521484 C11.476561546325684 6.367802143096924 11.507689476013184 6.341156959533691 11.547780990600586 6.314511775970459 C11.587748527526855 6.292348861694336 11.623357772827148 6.283384323120117 11.647887229919434 6.283384323120117 L12.337421417236328 6.283384323120117 L12.337421417236328 6.468032360076904 L11.725706100463867 6.468032360076904 C11.712258338928223 6.468032360076904 11.694578170776367 6.470273494720459 11.683371543884277 6.479113578796387 A0.17767541110515594 0.17767541110515594 0.0 0 0 11.652244567871094 6.505758762359619 C11.64103889465332 6.52580451965332 11.64103889465332 6.537010669708252 11.64103889465332 6.548091888427734 L11.64103889465332 6.59689998626709 L12.330573081970215 6.59689998626709 L12.330573081970215 6.7905120849609375 L11.643280029296875 6.7905120849609375 L11.643280029296875 6.855008602142334 C11.643280029296875 6.870572090148926 11.656726837158203 6.8883771896362305 11.674407005310059 6.897341728210449 A0.08964701741933823 0.08964701741933823 0.0 0 0 11.725581169128418 6.915146827697754 L12.357218742370605 6.915146827697754 L12.357218742370605 7.110876083374023 L12.357343673706055 7.110876083374023 L12.357343673706055 7.110876083374023 M13.402851104736328 7.110876083374023 L12.755525588989258 7.110876083374023 C12.688913345336914 7.110876083374023 12.63101577758789 7.09967041015625 12.588682174682617 7.073025226593018 A0.2340783178806305 0.2340783178806305 0.0 0 1 12.490942001342773 6.97291898727417 A0.20730872452259064 0.20730872452259064 0.0 0 1 12.462055206298828 6.86845588684082 L12.462055206298828 6.517088890075684 C12.462055206298828 6.476996898651123 12.471020698547363 6.4370293617248535 12.502148628234863 6.401419162750244 C12.528668403625488 6.367926597595215 12.559796333312988 6.341405868530273 12.59328842163086 6.31463623046875 C12.63101577758789 6.292473316192627 12.657785415649414 6.283508777618408 12.684430122375488 6.283508777618408 L13.398120880126953 6.283508777618408 L13.398120880126953 6.479238033294678 L12.85114860534668 6.479238033294678 C12.824378967285156 6.479238033294678 12.8066987991333 6.485836982727051 12.77743911743164 6.4948015213012695 C12.764365196228027 6.50588321685791 12.746561050415039 6.525928974151611 12.73535442352295 6.543734073638916 A0.08553819358348846 0.08553819358348846 0.0 0 0 12.715433120727539 6.594907760620117 L12.715433120727539 6.784038066864014 C12.715433120727539 6.801843166351318 12.717674255371094 6.819647789001465 12.72638988494873 6.8374528884887695 C12.739712715148926 6.855257511138916 12.755276679992676 6.870820999145508 12.773080825805664 6.879661560058594 C12.793251991271973 6.8886260986328125 12.811056137084961 6.897590637207031 12.833094596862793 6.897590637207031 L13.402602195739746 6.897590637207031 L13.402602195739746 7.110876083374023 L13.402851104736328 7.110876083374023 L13.402851104736328 7.110876083374023 M14.454833984375 7.110876083374023 L13.807507514953613 7.110876083374023 C13.74089527130127 7.110876083374023 13.685239791870117 7.09967041015625 13.636306762695312 7.073025226593018 A0.29222434759140015 0.29222434759140015 0.0 0 1 13.54068374633789 6.97291898727417 C13.52511978149414 6.937309265136719 13.50955581665039 6.9040656089782715 13.50955581665039 6.86845588684082 L13.50955581665039 6.517088890075684 C13.50955581665039 6.476996898651123 13.527360916137695 6.4370293617248535 13.549399375915527 6.401419162750244 C13.578286170959473 6.367926597595215 13.611654281616211 6.341405868530273 13.645272254943848 6.31463623046875 C13.680757522583008 6.292473316192627 13.711884498596191 6.283508777618408 13.738655090332031 6.283508777618408 L14.452592849731445 6.283508777618408 L14.452592849731445 6.479238033294678 L13.898649215698242 6.479238033294678 C13.876485824584961 6.479238033294678 13.858806610107422 6.485836982727051 13.838635444641113 6.4948015213012695 C13.816473007202148 6.50588321685791 13.798791885375977 6.525928974151611 13.783227920532227 6.543734073638916 C13.77202320098877 6.557056427001953 13.769906997680664 6.577103137969971 13.769906997680664 6.594907760620117 L13.769906997680664 6.784038066864014 C13.769906997680664 6.801843166351318 13.769906997680664 6.819647789001465 13.780862808227539 6.8374528884887695 C13.789827346801758 6.855257511138916 13.801033973693848 6.870820999145508 13.820955276489258 6.879661560058594 C13.840877532958984 6.8886260986328125 13.863288879394531 6.897590637207031 13.885451316833496 6.897590637207031 L14.45495891571045 6.897590637207031 L14.45495891571045 7.110876083374023 L14.454833984375 7.110876083374023 L14.454833984375 7.110876083374023 M14.835086822509766 7.110876083374023 L14.592666625976562 7.110876083374023 L14.592666625976562 6.283384323120117 L14.835086822509766 6.283384323120117 L14.835086822509766 7.110876083374023 M16.109691619873047 6.859615325927734 C16.109691619873047 6.906306266784668 16.09164047241211 6.94851541519165 16.071718215942383 6.986366271972656 C16.042831420898438 7.02869987487793 16.007221221923828 7.055345058441162 15.973978042602539 7.082114219665527 C15.936001777648926 7.102035999298096 15.904874801635742 7.1110005378723145 15.875988960266113 7.1110005378723145 L15.228910446166992 7.1110005378723145 C15.173255920410156 7.1110005378723145 15.126564025878906 7.099794864654541 15.086347579956055 7.073149681091309 C15.04862117767334 7.046504974365234 15.010769844055176 7.01313591003418 14.990724563598633 6.973043918609619 C14.968561172485352 6.928593635559082 14.955238342285156 6.8885016441345215 14.955238342285156 6.850650787353516 L14.955238342285156 6.543858528137207 C14.955238342285156 6.506007671356201 14.959596633911133 6.47039794921875 14.977401733398438 6.441511631011963 C14.992965698242188 6.410384178161621 15.010769844055176 6.381497859954834 15.039656639099121 6.359210968017578 C15.05982780456543 6.3391642570495605 15.086347579956055 6.314760684967041 15.117475509643555 6.301313877105713 C15.1463623046875 6.283508777618408 15.177489280700684 6.283508777618408 15.197783470153809 6.283508777618408 L15.83813762664795 6.283508777618408 C15.869514465332031 6.283508777618408 15.904998779296875 6.290232181549072 15.94509220123291 6.312395095825195 C15.987424850463867 6.323476314544678 16.025150299072266 6.359086513519287 16.056278228759766 6.399178504943848 C16.09176254272461 6.441387176513672 16.109817504882812 6.4948015213012695 16.109817504882812 6.557056427001953 L16.109817504882812 6.859615325927734 L16.109691619873047 6.859615325927734 L16.109691619873047 6.859615325927734 M15.860424995422363 6.78167200088501 L15.860424995422363 6.614829063415527 C15.860424995422363 6.577103137969971 15.851459503173828 6.548216342926025 15.827055931091309 6.525928974151611 C15.80252742767334 6.5036420822143555 15.760443687438965 6.485836982727051 15.709145545959473 6.485836982727051 L15.342215538024902 6.485836982727051 C15.324410438537598 6.485836982727051 15.308847427368164 6.4948015213012695 15.284317970275879 6.50588321685791 C15.271245002746582 6.5103654861450195 15.246591567993164 6.528170585632324 15.228910446166992 6.545975685119629 C15.213098526000977 6.563780307769775 15.213098526000977 6.58158540725708 15.213098526000977 6.603747844696045 L15.213098526000977 6.759384632110596 C15.213098526000977 6.801593780517578 15.222063064575195 6.83272123336792 15.244474411010742 6.859490871429443 C15.262280464172363 6.8883771896362305 15.291166305541992 6.897341728210449 15.331008911132812 6.897341728210449 L15.742513656616211 6.897341728210449 C15.778247833251953 6.897341728210449 15.80252742767334 6.8883771896362305 15.82929801940918 6.870696544647217 C15.851459503173828 6.855133056640625 15.860424995422363 6.826246738433838 15.860424995422363 6.78167200088501 M17.39289093017578 6.935193061828613 C17.39289093017578 6.957480430603027 17.38828468322754 6.986241817474365 17.37272071838379 7.015252590179443 C17.352798461914062 7.055220603942871 17.334993362426758 7.0819902420043945 17.30175018310547 7.108634948730469 C17.266014099121094 7.130797386169434 17.223682403564453 7.142003536224365 17.16827392578125 7.142003536224365 C17.117225646972656 7.142003536224365 17.07925033569336 7.1331634521484375 17.04812240600586 7.119716167449951 C17.028202056884766 7.108634948730469 16.997074127197266 7.075266361236572 16.970304489135742 7.037415504455566 L16.56564712524414 6.545851230621338 C16.55008316040039 6.528046131134033 16.53451919555664 6.5192060470581055 16.53203010559082 6.516964435577393 C16.5233154296875 6.505758762359619 16.514225006103516 6.505758762359619 16.503143310546875 6.505758762359619 C16.494428634643555 6.505758762359619 16.48533821105957 6.505758762359619 16.480981826782227 6.516964435577393 C16.474132537841797 6.52580451965332 16.472015380859375 6.528046131134033 16.472015380859375 6.543609619140625 L16.472015380859375 7.110751628875732 L16.22735595703125 7.110751628875732 L16.22735595703125 6.450102806091309 C16.22735595703125 6.436779975891113 16.22735595703125 6.423333168029785 16.23855972290039 6.401170253753662 C16.242919921875 6.381124496459961 16.25848388671875 6.358837127685547 16.27653694152832 6.341156959533691 C16.289609909057617 6.321110725402832 16.31426239013672 6.298823833465576 16.34750747680664 6.283259868621826 C16.37427520751953 6.2654547691345215 16.407520294189453 6.263214111328125 16.45209503173828 6.263214111328125 C16.503143310546875 6.263214111328125 16.55008316040039 6.2654547691345215 16.574363708496094 6.283259868621826 C16.60325050354004 6.301064491271973 16.630020141601562 6.323227405548096 16.647825241088867 6.341156959533691 L17.05708885192871 6.819274425506592 C17.070409774780273 6.837079048156738 17.07925033569336 6.850401878356934 17.088214874267578 6.854884147644043 C17.09942054748535 6.859366416931152 17.108137130737305 6.859366416931152 17.117101669311523 6.859366416931152 C17.13702392578125 6.859366416931152 17.145986557006836 6.859366416931152 17.14822769165039 6.850401878356934 C17.154829025268555 6.841561794281006 17.154829025268555 6.832596778869629 17.154829025268555 6.817032814025879 L17.154829025268555 6.283259868621826 L17.39289093017578 6.283259868621826 L17.39289093017578 6.935193061828613 M18.48944854736328 7.110876083374023 L17.802154541015625 7.110876083374023 C17.753223419189453 7.110876083374023 17.704164505004883 7.09967041015625 17.666439056396484 7.073025226593018 C17.63306999206543 7.046380043029785 17.592979431152344 7.015252590179443 17.575298309326172 6.97291898727417 A0.1887567788362503 0.1887567788362503 0.0 0 1 17.53956413269043 6.859490871429443 L17.53956413269043 6.5102410316467285 C17.53956413269043 6.476872444152832 17.555126190185547 6.4369049072265625 17.577537536621094 6.407894134521484 C17.608665466308594 6.367802143096924 17.648757934570312 6.341156959533691 17.68424415588379 6.314511775970459 C17.721969604492188 6.292348861694336 17.75982093811035 6.283384323120117 17.78883171081543 6.283384323120117 L18.476125717163086 6.283384323120117 L18.476125717163086 6.468032360076904 L17.866649627685547 6.468032360076904 A0.07844113558530807 0.07844113558530807 0.0 0 0 17.822200775146484 6.479113578796387 C17.810993194580078 6.48571252822876 17.797672271728516 6.496918678283691 17.78883171081543 6.505758762359619 C17.77986717224121 6.52580451965332 17.77326774597168 6.537010669708252 17.77326774597168 6.548091888427734 L17.77326774597168 6.59689998626709 L18.471641540527344 6.59689998626709 L18.471641540527344 6.7905120849609375 L17.781982421875 6.7905120849609375 L17.781982421875 6.855008602142334 C17.781982421875 6.870572090148926 17.793190002441406 6.8883771896362305 17.8131103515625 6.897341728210449 A0.08728133141994476 0.08728133141994476 0.0 0 0 17.866649627685547 6.915146827697754 L18.48944854736328 6.915146827697754 L18.48944854736328 7.110876083374023 L18.48944854736328 7.110876083374023 M19.685861587524414 6.986241817474365 C19.685861587524414 7.021851539611816 19.67253875732422 7.055220603942871 19.654733657836914 7.073025226593018 C19.62821388244629 7.09967041015625 19.603687286376953 7.110876083374023 19.568201065063477 7.110876083374023 L18.591796875 7.110876083374023 L18.591796875 6.906181812286377 L19.37247085571289 6.906181812286377 C19.390275955200195 6.906181812286377 19.407957077026367 6.9039411544799805 19.421403884887695 6.8951005935668945 A0.055904876440763474 0.055904876440763474 0.0 0 0 19.441326141357422 6.850526332855225 A0.05976467579603195 0.05976467579603195 0.0 0 0 19.43260955810547 6.81715726852417 C19.42364501953125 6.810558795928955 19.41704559326172 6.801593780517578 19.40148162841797 6.799352645874023 C19.390275955200195 6.7905120849609375 19.379070281982422 6.7905120849609375 19.359149932861328 6.7905120849609375 L18.774076461791992 6.7905120849609375 A0.1196538656949997 0.1196538656949997 0.0 0 1 18.694019317626953 6.761626243591309 A0.14206562936306 0.14206562936306 0.0 0 1 18.647327423095703 6.721534252166748 C18.631763458251953 6.699371337890625 18.623046875 6.68156623840332 18.623046875 6.6658782958984375 L18.623046875 6.399054050445557 C18.623046875 6.376642227172852 18.63861083984375 6.352238178253174 18.662891387939453 6.323351860046387 C18.689659118652344 6.298948287963867 18.72514533996582 6.283384323120117 18.765235900878906 6.283384323120117 L19.637054443359375 6.283384323120117 L19.637054443359375 6.479113578796387 L18.914276123046875 6.479113578796387 C18.9030704498291 6.479113578796387 18.89410400390625 6.48571252822876 18.885387420654297 6.496918678283691 C18.872066497802734 6.505758762359619 18.872066497802734 6.52580451965332 18.872066497802734 6.537010669708252 C18.872066497802734 6.548091888427734 18.87642478942871 6.563655853271484 18.885387420654297 6.57697868347168 C18.896347045898438 6.594783306121826 18.914276123046875 6.59689998626709 18.941043853759766 6.59689998626709 L19.53470802307129 6.59689998626709 C19.58600425720215 6.59689998626709 19.621490478515625 6.614704608917236 19.643901824951172 6.63699197769165 C19.67253875732422 6.6658782958984375 19.68598747253418 6.701488494873047 19.68598747253418 6.741580009460449 L19.68598747253418 6.986241817474365 L19.685861587524414 6.986241817474365 L19.685861587524414 6.986241817474365 M6.236444473266602 17.571063995361328 L5.564713954925537 17.571063995361328 C5.4957356452941895 17.571063995361328 5.437838554382324 17.559982299804688 5.386789798736572 17.528730392456055 C5.342339992523193 17.50221061706543 5.313328742980957 17.464235305786133 5.284567356109619 17.426633834838867 C5.271244525909424 17.388656616210938 5.255680561065674 17.346324920654297 5.255680561065674 17.31532096862793 L5.255680561065674 16.948265075683594 C5.255680561065674 16.910415649414062 5.2734856605529785 16.868207931518555 5.300130844116211 16.832595825195312 C5.32465934753418 16.79262924194336 5.357903480529785 16.76150131225586 5.398119926452637 16.741580963134766 C5.4292473793029785 16.71480941772461 5.466974258422852 16.705846786499023 5.489261150360107 16.705846786499023 L6.227728843688965 16.705846786499023 L6.227728843688965 16.910539627075195 L5.65610408782959 16.910539627075195 C5.64054012298584 16.910539627075195 5.613895416259766 16.915021896362305 5.5914835929870605 16.928468704223633 A0.1385793536901474 0.1385793536901474 0.0 0 0 5.538193225860596 16.977401733398438 A0.10994210839271545 0.10994210839271545 0.0 0 0 5.520388603210449 17.033056259155273 L5.520388603210449 17.228660583496094 C5.520388603210449 17.246593475341797 5.527112007141113 17.262157440185547 5.535952568054199 17.28656005859375 C5.547033309936523 17.3021240234375 5.560356140136719 17.319927215576172 5.582643508911133 17.328767776489258 C5.602689743041992 17.33773422241211 5.622611045837402 17.346572875976562 5.642657279968262 17.346572875976562 L6.236444473266602 17.346572875976562 L6.236444473266602 17.571063995361328 L6.236444473266602 17.571063995361328 M7.546535968780518 17.306480407714844 C7.546535968780518 17.35541343688965 7.526489734649658 17.39762306213379 7.506443500518799 17.44207191467285 C7.475316047668457 17.48216438293457 7.439830780029297 17.51117515563965 7.401979923248291 17.533212661743164 A0.17057834565639496 0.17057834565639496 0.0 0 1 7.301874160766602 17.571063995361328 L6.630144119262695 17.571063995361328 C6.574612617492676 17.571063995361328 6.523439407348633 17.559982299804688 6.483346939086914 17.528730392456055 A0.30604493618011475 0.30604493618011475 0.0 0 1 6.383240699768066 17.422149658203125 C6.356595993041992 17.375457763671875 6.347755432128906 17.337608337402344 6.347755432128906 17.301998138427734 L6.347755432128906 16.972795486450195 C6.347755432128906 16.93730926513672 6.356595993041992 16.901575088500977 6.369918346405029 16.870447158813477 C6.387723445892334 16.841562271118164 6.407769680023193 16.810434341430664 6.432173252105713 16.790388107299805 C6.4610595703125 16.76150131225586 6.485588073730469 16.741455078125 6.518956661224365 16.73037338256836 C6.550084114074707 16.71480941772461 6.574488162994385 16.705846786499023 6.605615615844727 16.705846786499023 L7.270622253417969 16.705846786499023 C7.295150279998779 16.705846786499023 7.333001613616943 16.71480941772461 7.379568099975586 16.732616424560547 C7.4196600914001465 16.752660751342773 7.4573869705200195 16.783788681030273 7.495237827301025 16.82375717163086 C7.526365280151367 16.870447158813477 7.546411514282227 16.9283447265625 7.546411514282227 16.994956970214844 L7.546411514282227 17.306480407714844 L7.546535968780518 17.306480407714844 M7.29066801071167 17.228538513183594 L7.29066801071167 17.050613403320312 C7.29066801071167 17.01512908935547 7.281827926635742 16.986116409301758 7.252817153930664 16.954866409301758 C7.226171970367432 16.93494415283203 7.183838844299316 16.91938018798828 7.13054895401001 16.91938018798828 L6.748054504394531 16.91938018798828 C6.736973762512207 16.91938018798828 6.714686393737793 16.926103591918945 6.690157413482666 16.93730926513672 C6.670111656188965 16.946025848388672 6.64794921875 16.96395492553711 6.636867523193359 16.979393005371094 A0.08964701741933823 0.08964701741933823 0.0 0 0 6.612339019775391 17.03729248046875 L6.612339019775391 17.208492279052734 C6.612339019775391 17.24646759033203 6.621304035186768 17.27759552001953 6.645707607269287 17.301998138427734 C6.667994976043701 17.33536720275879 6.696881294250488 17.346324920654297 6.7390899658203125 17.346324920654297 L7.166158676147461 17.346324920654297 C7.1972856521606445 17.346324920654297 7.232770919799805 17.337608337402344 7.252817153930664 17.319679260253906 C7.281827926635742 17.301998138427734 7.29066801071167 17.26862907409668 7.29066801071167 17.228538513183594 L7.29066801071167 17.228538513183594 M8.876548767089844 17.38654136657715 C8.876548767089844 17.406585693359375 8.872066497802734 17.437713623046875 8.85426139831543 17.47319984436035 C8.836456298828125 17.50221061706543 8.812052726745605 17.539936065673828 8.776442527770996 17.559982299804688 A0.21739402413368225 0.21739402413368225 0.0 0 1 8.647451400756836 17.599950790405273 C8.589553833007812 17.599950790405273 8.549586296081543 17.59322738647461 8.520699501037598 17.57766342163086 A0.28512731194496155 0.28512731194496155 0.0 0 1 8.4361572265625 17.491004943847656 L8.015812873840332 16.979393005371094 C8.002490997314453 16.966197967529297 7.98468542098999 16.95499038696289 7.98468542098999 16.948265075683594 C7.973604202270508 16.93942642211914 7.96476411819458 16.93730926513672 7.949075698852539 16.93730926513672 C7.946834564208984 16.93730926513672 7.935753345489502 16.93942642211914 7.933511734008789 16.948265075683594 C7.917948246002197 16.95499038696289 7.915707111358643 16.96395492553711 7.915707111358643 16.972795486450195 L7.915707111358643 17.571063995361328 L7.662205219268799 17.571063995361328 L7.662205219268799 16.879287719726562 C7.662205219268799 16.868207931518555 7.666687488555908 16.854883193969727 7.675527572631836 16.82823944091797 C7.684492111206055 16.8103084564209 7.693332672119141 16.790388107299805 7.71337890625 16.768224716186523 C7.7311835289001465 16.741580963134766 7.760069847106934 16.73037338256836 7.78883171081543 16.710453033447266 C7.8199591636657715 16.69713020324707 7.857810020446777 16.68368148803711 7.897902011871338 16.68368148803711 C7.955799102783203 16.68368148803711 7.998007774353027 16.697006225585938 8.026894569396973 16.71480941772461 C8.058021545410156 16.732616424560547 8.084667205810547 16.752660751342773 8.102471351623535 16.7725830078125 L8.522815704345703 17.26203155517578 C8.538379669189453 17.286434173583984 8.549461364746094 17.295400619506836 8.560667037963867 17.301998138427734 C8.571748733520508 17.301998138427734 8.580713272094727 17.306480407714844 8.589553833007812 17.306480407714844 C8.607358932495117 17.306480407714844 8.620681762695312 17.301998138427734 8.620681762695312 17.29527473449707 C8.62292194366455 17.286434173583984 8.629521369934082 17.2774715423584 8.629521369934082 17.259788513183594 L8.629521369934082 16.705846786499023 L8.876424789428711 16.705846786499023 L8.876424789428711 17.38654136657715 L8.876548767089844 17.38654136657715 M10.455705642700195 16.919506072998047 L10.004358291625977 16.919506072998047 L10.004358291625977 17.571063995361328 L9.755213737487793 17.571063995361328 L9.755213737487793 16.705846786499023 L10.455705642700195 16.705846786499023 L10.455705642700195 16.919506072998047 M9.695075988769531 17.571063995361328 L9.441450119018555 17.571063995361328 L9.441450119018555 16.914897918701172 L8.992218017578125 16.914897918701172 L8.992218017578125 16.705720901489258 L9.695075988769531 16.705720901489258 L9.695075988769531 17.571063995361328 L9.695075988769531 17.571063995361328 M10.81603717803955 17.571063995361328 L10.569134712219238 17.571063995361328 L10.569134712219238 16.705846786499023 L10.81603717803955 16.705846786499023 L10.81603717803955 17.571063995361328 M12.161614418029785 17.38654136657715 C12.161614418029785 17.406585693359375 12.161614418029785 17.437713623046875 12.143808364868164 17.47319984436035 C12.121397018432617 17.50221061706543 12.101475715637207 17.539936065673828 12.065990447998047 17.559982299804688 C12.032621383666992 17.584386825561523 11.983814239501953 17.599950790405273 11.930274963378906 17.599950790405273 C11.876859664916992 17.599950790405273 11.836892127990723 17.59322738647461 11.810246467590332 17.57766342163086 A0.31837141513824463 0.31837141513824463 0.0 0 1 11.723464012145996 17.491004943847656 L11.300878524780273 16.979393005371094 C11.285314559936523 16.966197967529297 11.280831336975098 16.95499038696289 11.271866798400879 16.948265075683594 C11.265268325805664 16.93942642211914 11.247587203979492 16.93730926513672 11.240739822387695 16.93730926513672 C11.23189926147461 16.93730926513672 11.225175857543945 16.93942642211914 11.216211318969727 16.948265075683594 C11.207246780395508 16.95499038696289 11.207246780395508 16.96395492553711 11.207246780395508 16.972795486450195 L11.207246780395508 17.571063995361328 L10.95150375366211 17.571063995361328 L10.95150375366211 16.879287719726562 C10.95150375366211 16.868207931518555 10.95150375366211 16.854883193969727 10.964826583862305 16.82823944091797 C10.969308853149414 16.8103084564209 10.98263168334961 16.790388107299805 11.002552032470703 16.768224716186523 C11.020358085632324 16.741580963134766 11.042645454406738 16.73037338256836 11.078254699707031 16.710453033447266 C11.109257698059082 16.69713020324707 11.144867897033691 16.68368148803711 11.187200546264648 16.68368148803711 C11.242732048034668 16.68368148803711 11.28282356262207 16.697006225585938 11.31843376159668 16.71480941772461 C11.34956169128418 16.732616424560547 11.374089241027832 16.752660751342773 11.391895294189453 16.7725830078125 L11.812239646911621 17.26203155517578 C11.827803611755371 17.286434173583984 11.838884353637695 17.295400619506836 11.847848892211914 17.301998138427734 C11.856813430786133 17.301998138427734 11.865654945373535 17.306480407714844 11.885700225830078 17.306480407714844 C11.896781921386719 17.306480407714844 11.905746459960938 17.301998138427734 11.907987594604492 17.29527473449707 C11.907987594604492 17.286434173583984 11.914587020874023 17.2774715423584 11.914587020874023 17.259788513183594 L11.914587020874023 16.705846786499023 L12.161365509033203 16.705846786499023 L12.161365509033203 17.38654136657715 L12.161614418029785 17.38654136657715 L12.161614418029785 17.38654136657715 M13.302620887756348 17.571063995361328 L12.582083702087402 17.571063995361328 C12.530784606933594 17.571063995361328 12.490942001342773 17.559982299804688 12.44425106048584 17.528730392456055 C12.406275749206543 17.50221061706543 12.375147819519043 17.46660041809082 12.346261024475098 17.424266815185547 A0.25387537479400635 0.25387537479400635 0.0 0 1 12.315134048461914 17.306480407714844 L12.315134048461914 16.946025848388672 C12.315134048461914 16.910415649414062 12.326340675354004 16.868207931518555 12.357467651367188 16.832595825195312 C12.388595581054688 16.79922866821289 12.424079895019531 16.76810073852539 12.462055206298828 16.741580963134766 C12.504388809204102 16.71480941772461 12.544232368469238 16.705846786499023 12.571001052856445 16.705846786499023 L13.284940719604492 16.705846786499023 L13.284940719604492 16.897218704223633 L12.653178215026855 16.897218704223633 A0.06785780936479568 0.06785780936479568 0.0 0 0 12.61109447479248 16.910415649414062 C12.597771644592285 16.91938018798828 12.582207679748535 16.93494415283203 12.573119163513184 16.939302444458008 C12.562161445617676 16.954866409301758 12.562161445617676 16.972795486450195 12.562161445617676 16.986116409301758 L12.562161445617676 17.037166595458984 L13.280583381652832 17.037166595458984 L13.280583381652832 17.228412628173828 L12.568760871887207 17.228412628173828 L12.568760871887207 17.301876068115234 C12.568760871887207 17.319679260253906 12.573119163513184 17.335243225097656 12.597646713256836 17.34619903564453 C12.613210678100586 17.357406616210938 12.637490272521973 17.3641300201416 12.653054237365723 17.3641300201416 L13.302620887756348 17.3641300201416 L13.302620887756348 17.571063995361328 L13.302620887756348 17.571063995361328 M14.632759094238281 17.38654136657715 C14.632759094238281 17.406585693359375 14.630268096923828 17.437713623046875 14.610347747802734 17.47319984436035 C14.592541694641113 17.50221061706543 14.568013191223145 17.539936065673828 14.539127349853516 17.559982299804688 C14.499283790588379 17.584386825561523 14.454710006713867 17.599950790405273 14.396812438964844 17.599950790405273 C14.343522071838379 17.599950790405273 14.303430557250977 17.59322738647461 14.276660919189453 17.57766342163086 A0.31139886379241943 0.31139886379241943 0.0 0 1 14.192243576049805 17.491004943847656 L13.771774291992188 16.979393005371094 C13.753968238830566 16.966197967529297 13.745003700256348 16.95499038696289 13.738405227661133 16.948265075683594 C13.731557846069336 16.93942642211914 13.720600128173828 16.93730926513672 13.71163558959961 16.93730926513672 C13.698312759399414 16.93730926513672 13.698312759399414 16.93942642211914 13.684866905212402 16.948265075683594 A0.04781174287199974 0.04781174287199974 0.0 0 0 13.67615032196045 16.972795486450195 L13.67615032196045 17.571063995361328 L13.422524452209473 17.571063995361328 L13.422524452209473 16.879287719726562 C13.422524452209473 16.868207931518555 13.422524452209473 16.854883193969727 13.431488990783691 16.82823944091797 C13.440204620361328 16.8103084564209 13.455768585205078 16.790388107299805 13.471331596374512 16.768224716186523 C13.489385604858398 16.741580963134766 13.515782356262207 16.73037338256836 13.544793128967285 16.710453033447266 C13.575920104980469 16.69713020324707 13.611405372619629 16.68368148803711 13.653738975524902 16.68368148803711 C13.71163558959961 16.68368148803711 13.753968238830566 16.697006225585938 13.782855033874512 16.71480941772461 C13.81622314453125 16.732616424560547 13.840503692626953 16.752660751342773 13.8629150390625 16.7725830078125 L14.285625457763672 17.26203155517578 C14.298948287963867 17.286434173583984 14.307788848876953 17.295400619506836 14.316753387451172 17.301998138427734 C14.327709197998047 17.301998138427734 14.343522071838379 17.306480407714844 14.35012149810791 17.306480407714844 C14.363444328308105 17.306480407714844 14.37689208984375 17.301998138427734 14.37689208984375 17.29527473449707 C14.383490562438965 17.286434173583984 14.38560676574707 17.2774715423584 14.38560676574707 17.259788513183594 L14.38560676574707 16.705846786499023 L14.632635116577148 16.705846786499023 L14.632635116577148 17.38654136657715 L14.632759094238281 17.38654136657715 L14.632759094238281 17.38654136657715 M16.2117919921875 16.919506072998047 L15.764801025390625 16.919506072998047 L15.764801025390625 17.571063995361328 L15.511175155639648 17.571063995361328 L15.511175155639648 16.705846786499023 L16.2117919921875 16.705846786499023 L16.2117919921875 16.919506072998047 M15.457884788513184 17.571063995361328 L15.197659492492676 17.571063995361328 L15.197659492492676 16.914897918701172 L14.750420570373535 16.914897918701172 L14.750420570373535 16.705720901489258 L15.457884788513184 16.705720901489258 L15.457884788513184 17.571063995361328 L15.457884788513184 17.571063995361328 M17.497478485107422 17.571063995361328 L17.22604751586914 17.571063995361328 L17.22604751586914 17.506568908691406 A0.08977152407169342 0.08977152407169342 0.0 0 1 17.183713912963867 17.55101776123047 C17.165908813476562 17.56209945678711 17.145986557006836 17.570940017700195 17.1280574798584 17.570940017700195 L16.423084259033203 17.570940017700195 C16.4052791595459 17.570940017700195 16.382991790771484 17.56209945678711 16.36518669128418 17.559858322143555 C16.345264434814453 17.54205322265625 16.329700469970703 17.528606414794922 16.318496704101562 17.51540756225586 C16.305173873901367 17.499969482421875 16.298572540283203 17.47307586669922 16.298572540283203 17.450788497924805 L16.298572540283203 17.288427352905273 L16.298572540283203 17.183963775634766 C16.298572540283203 17.139389038085938 16.30978012084961 17.09929656982422 16.336301803588867 17.066051483154297 C16.360828399658203 17.041648864746094 16.391956329345703 17.028202056884766 16.425325393676758 17.028202056884766 L17.097055435180664 17.028202056884766 C17.128183364868164 17.028202056884766 17.157068252563477 17.03704071044922 17.179481506347656 17.050487518310547 C17.197284698486328 17.063812255859375 17.2149658203125 17.081615447998047 17.226173400878906 17.09942054748535 L17.226173400878906 17.023845672607422 C17.226173400878906 17.006038665771484 17.223682403564453 16.988359451293945 17.2149658203125 16.977153778076172 A0.10035485029220581 0.10035485029220581 0.0 0 0 17.16827392578125 16.93730926513672 C17.154953002929688 16.926103591918945 17.128183364868164 16.91938018798828 17.106019973754883 16.91938018798828 L16.305173873901367 16.91938018798828 L16.305173873901367 16.705720901489258 L17.2149658203125 16.705720901489258 C17.25269317626953 16.705720901489258 17.292783737182617 16.71468734741211 17.321670532226562 16.73249053955078 C17.36176300048828 16.75253677368164 17.39289093017578 16.776941299438477 17.419660568237305 16.808069229125977 C17.4395809173584 16.83695411682129 17.466352462768555 16.86808204650879 17.47942543029785 16.897092819213867 C17.490631103515625 16.928220748901367 17.497478485107422 16.954866409301758 17.497478485107422 16.979270935058594 L17.497478485107422 17.571063995361328 M17.179481506347656 17.301998138427734 A0.04606860503554344 0.04606860503554344 0.0 0 0 17.166156768798828 17.26862907409668 C17.157194137573242 17.26190757751465 17.146238327026367 17.250699996948242 17.137271881103516 17.2463436126709 C17.123950958251953 17.2463436126709 17.115110397338867 17.241859436035156 17.106143951416016 17.241859436035156 L16.61009979248047 17.241859436035156 C16.59229278564453 17.241859436035156 16.574613571166992 17.2463436126709 16.56589698791504 17.26190757751465 C16.559049606323242 17.2774715423584 16.552574157714844 17.288551330566406 16.552574157714844 17.297391891479492 C16.552574157714844 17.31532096862793 16.559173583984375 17.335243225097656 16.57038116455078 17.33748435974121 C16.57909393310547 17.34856605529785 16.59254264831543 17.355289459228516 16.603748321533203 17.355289459228516 L17.12419891357422 17.355289459228516 C17.13079833984375 17.355289459228516 17.13976287841797 17.34856605529785 17.15756607055664 17.33748435974121 C17.16827392578125 17.328643798828125 17.179481506347656 17.31532096862793 17.179481506347656 17.301998138427734 M18.589677810668945 17.571063995361328 L17.853328704833984 17.571063995361328 C17.813236236572266 17.571063995361328 17.77326774597168 17.559982299804688 17.735416412353516 17.528730392456055 A0.4491066634654999 0.4491066634654999 0.0 0 1 17.644275665283203 17.426633834838867 C17.617753982543945 17.395381927490234 17.60879135131836 17.364253997802734 17.60879135131836 17.346324920654297 L17.60879135131836 16.705720901489258 L17.853452682495117 16.705720901489258 L17.853452682495117 17.22181510925293 C17.853452682495117 17.255306243896484 17.857810974121094 17.27971076965332 17.875865936279297 17.301998138427734 C17.891427993774414 17.319805145263672 17.90923309326172 17.337608337402344 17.931270599365234 17.348690032958984 C17.958040237426758 17.357528686523438 17.969247817993164 17.364253997802734 17.98480987548828 17.364253997802734 L18.58980369567871 17.364253997802734 L18.58980369567871 17.571063995361328 L18.589677810668945 17.571063995361328 L18.589677810668945 17.571063995361328 M19.67253875732422 17.571063995361328 L18.954116821289062 17.571063995361328 C18.9030704498291 17.571063995361328 18.85637855529785 17.559982299804688 18.816286087036133 17.528730392456055 C18.77644157409668 17.50221061706543 18.745315551757812 17.46660041809082 18.716304779052734 17.424266815185547 C18.69849967956543 17.386417388916016 18.685178756713867 17.346324920654297 18.685178756713867 17.306480407714844 L18.685178756713867 16.946025848388672 C18.685178756713867 16.910415649414062 18.69849967956543 16.868207931518555 18.727262496948242 16.832595825195312 C18.758390426635742 16.79922866821289 18.794124603271484 16.76810073852539 18.833965301513672 16.741580963134766 C18.876298904418945 16.71480941772461 18.914276123046875 16.705846786499023 18.940919876098633 16.705846786499023 L19.65460968017578 16.705846786499023 L19.65460968017578 16.897218704223633 L19.029571533203125 16.897218704223633 C19.0096492767334 16.897218704223633 18.991846084594727 16.901575088500977 18.98063850402832 16.910415649414062 C18.969432830810547 16.91938018798828 18.953868865966797 16.93494415283203 18.945154190063477 16.939302444458008 A0.09960779547691345 0.09960779547691345 0.0 0 0 18.93183135986328 16.986116409301758 L18.93183135986328 17.037166595458984 L19.652368545532227 17.037166595458984 L19.652368545532227 17.228412628173828 L18.936187744140625 17.228412628173828 L18.936187744140625 17.301876068115234 C18.936187744140625 17.319679260253906 18.945154190063477 17.335243225097656 18.969558715820312 17.34619903564453 C18.982879638671875 17.357406616210938 19.007532119750977 17.3641300201416 19.029571533203125 17.3641300201416 L19.67253875732422 17.3641300201416 L19.67253875732422 17.571063995361328 L19.67253875732422 17.571063995361328 M20.913776397705078 17.437713623046875 C20.913776397705078 17.47319984436035 20.893856048583984 17.502334594726562 20.87580108642578 17.528730392456055 C20.855880737304688 17.559982299804688 20.824752807617188 17.571063995361328 20.78702735900879 17.571063995361328 L19.77924346923828 17.571063995361328 L19.77924346923828 17.35541343688965 L20.586814880371094 17.35541343688965 C20.602378845214844 17.35541343688965 20.617942810058594 17.348690032958984 20.633506774902344 17.3398494720459 C20.649070739746094 17.33536720275879 20.65778350830078 17.319805145263672 20.65778350830078 17.295400619506836 C20.65778350830078 17.28656005859375 20.65778350830078 17.27099609375 20.649070739746094 17.26203155517578 C20.637863159179688 17.255306243896484 20.62889862060547 17.24646759033203 20.617942810058594 17.237627029418945 C20.602378845214844 17.233144760131836 20.586814880371094 17.228660583496094 20.5732421875 17.228660583496094 L19.959409713745117 17.228660583496094 C19.92828369140625 17.228660583496094 19.908361434936523 17.221939086914062 19.886199951171875 17.208616256713867 C19.85943031311035 17.193178176879883 19.841747283935547 17.177488327026367 19.830541610717773 17.15308380126953 A0.07196663320064545 0.07196663320064545 0.0 0 1 19.810619354248047 17.106393814086914 L19.810619354248047 16.828489303588867 C19.810619354248047 16.808441162109375 19.82369613647461 16.781797409057617 19.8504638671875 16.750669479370117 C19.877233505249023 16.72165870666504 19.910476684570312 16.70609474182129 19.95505142211914 16.70609474182129 L20.86260223388672 16.70609474182129 L20.86260223388672 16.910789489746094 L20.112930297851562 16.910789489746094 A0.047189194709062576 0.047189194709062576 0.0 0 0 20.07520294189453 16.92871856689453 C20.066238403320312 16.939800262451172 20.06399917602539 16.955364227294922 20.06399917602539 16.973169326782227 C20.06399917602539 16.986492156982422 20.066238403320312 16.997447967529297 20.081802368164062 17.013137817382812 C20.095125198364258 17.02869987487793 20.112930297851562 17.037540435791016 20.139699935913086 17.037540435791016 L20.746932983398438 17.037540435791016 C20.80483055114746 17.037540435791016 20.842557907104492 17.050861358642578 20.871444702148438 17.081989288330078 C20.893856048583984 17.106393814086914 20.913776397705078 17.14200210571289 20.913776397705078 17.184337615966797 L20.913776397705078 17.437713623046875" fill="black" fill-opacity="1.0" filling="0"/></svg>