<?xml version="1.0" encoding="iso-8859-1"?><svg height="200px" viewBox="0.0 0.0 24.0 24.0" width="200px" xmlns="http://www.w3.org/2000/svg"><path animation_id="0" d="M0.0 0.0 L24.0 0.0 L24.0 24.0 L0.0 24.0 L0.0 0.0" fill="black" fill-opacity="1.0" filling="0"/>
<path animation_id="1" d="M9.073274612426758 8.061384201049805 L9.015003204345703 9.063188552856445 L11.446678161621094 8.809810638427734 L11.513665199279785 9.735790252685547 L11.664694786071777 9.742265701293945 L11.665069580078125 9.759073257446289 L11.86117172241211 9.750606536865234 L12.058146476745605 9.759073257446289 L12.05851936340332 9.742265701293945 L12.20681095123291 9.735790252685547 L12.273672103881836 8.809810638427734 L14.70522403717041 9.063188552856445 L14.647201538085938 8.061384201049805 L17.023345947265625 5.824815273284912 L16.56900978088379 5.41717004776001 L16.863351821899414 3.8795995712280273 L15.55276107788086 4.08342170715332 L14.982008934020996 3.4165477752685547 L13.630703926086426 4.642470359802246 L13.878229141235352 1.7070283889770508 L12.92037582397461 2.132229804992676 L11.875864028930664 0.39830684661865234 L11.874743461608887 0.3529853820800781 L11.861669540405273 0.3746500015258789 L11.848596572875977 0.3529853820800781 L11.8474760055542 0.3981819152832031 L10.800224304199219 2.132229804992676 L9.842121124267578 1.7070283889770508 L10.08964729309082 4.642470359802246 L8.73834228515625 3.4165477752685547 L8.167590141296387 4.08342170715332 L6.857249736785889 3.8795995712280273 L7.148353576660156 5.41717004776001 L6.697005748748779 5.824815273284912 L9.073274612426758 8.061384201049805 M19.0093994140625 22.71518325805664 L19.0093994140625 19.10141372680664 A19.67042350769043 19.67042350769043 0.0 0 1 17.75147819519043 19.36338233947754 L17.75147819519043 19.558488845825195 C17.905872344970703 19.573057174682617 18.01070785522461 19.61090850830078 18.0688533782959 19.669178009033203 C18.1242618560791 19.727447509765625 18.153520584106445 19.8380126953125 18.153520584106445 19.99825668334961 L18.153520584106445 20.740957260131836 C18.031251907348633 20.635997772216797 17.908859252929688 20.56029510498047 17.78945541381836 20.51372718811035 A1.0752661228179932 1.0752661228179932 0.0 0 0 17.550643920898438 20.452592849731445 A0.8769221305847168 0.8769221305847168 0.0 0 0 17.39911651611328 20.44089126586914 C17.00616455078125 20.44089126586914 16.682687759399414 20.595279693603516 16.42644691467285 20.898212432861328 C16.17032814025879 21.204010009765625 16.04220962524414 21.594223022460938 16.04220962524414 22.068729400634766 C16.04220962524414 22.52605438232422 16.152896881103516 22.90157699584961 16.37415313720703 23.190065383911133 C16.59540557861328 23.478303909301758 16.880905151367188 23.623855590820312 17.22455406188965 23.623855590820312 A0.9475191831588745 0.9475191831588745 0.0 0 0 17.550643920898438 23.568572998046875 A0.9967005252838135 0.9967005252838135 0.0 0 0 17.72234344482422 23.49287223815918 C17.87673568725586 23.40845489501953 18.019548416137695 23.28033447265625 18.153520584106445 23.11149787902832 L18.153520584106445 23.623979568481445 A28.487829208374023 28.487829208374023 0.0 0 1 18.829111099243164 23.46660041809082 C19.027080535888672 23.42302131652832 19.21944808959961 23.385169982910156 19.402725219726562 23.353172302246094 L19.402725219726562 23.16379165649414 C19.254186630249023 23.149227142333984 19.15221405029297 23.114364624023438 19.09406852722168 23.053104400634766 C19.038536071777344 22.991844177246094 19.0093994140625 22.88127899169922 19.0093994140625 22.71518325805664 L19.0093994140625 22.71518325805664 M18.147544860839844 22.66849136352539 C18.071718215942383 22.817033767700195 17.987300872802734 22.927722930908203 17.891178131103516 22.997695922851562 C17.795181274414062 23.070533752441406 17.68735694885254 23.105398178100586 17.56209945678711 23.105398178100586 L17.550395965576172 23.105398178100586 C17.36998176574707 23.102535247802734 17.22430419921875 23.006412506103516 17.11946678161621 22.820022583007812 C17.011518478393555 22.63064193725586 16.956235885620117 22.36581039428711 16.956235885620117 22.02216339111328 C16.956235885620117 21.64352798461914 17.014381408691406 21.355289459228516 17.127933502197266 21.154205322265625 C17.230031967163086 20.97951889038086 17.369855880737305 20.883398056030273 17.550395965576172 20.862977981567383 C17.576417922973633 20.857126235961914 17.602691650390625 20.857126235961914 17.62896156311035 20.857126235961914 C17.768787384033203 20.857126235961914 17.88233757019043 20.900829315185547 17.969619750976562 20.985370635986328 C18.060138702392578 21.072650909423828 18.118160247802734 21.195045471191406 18.14742088317871 21.352176666259766 L18.14742088317871 22.66849136352539 L18.147544860839844 22.66849136352539 L18.147544860839844 22.66849136352539 M4.3177490234375 22.991844177246094 C4.093506813049316 23.125816345214844 3.869264602661133 23.19268035888672 3.6421585083007812 23.19268035888672 C3.2402420043945312 23.19268035888672 2.9258546829223633 23.029571533203125 2.695760726928711 22.703479766845703 C2.4656667709350586 22.37738800048828 2.352113723754883 21.92877960205078 2.352113723754883 21.352176666259766 C2.352113723754883 20.79885482788086 2.4656667709350586 20.35622215270996 2.695760726928711 20.02141571044922 C2.922865867614746 19.689472198486328 3.2257986068725586 19.5205135345459 3.598456382751465 19.5205135345459 C3.869264602661133 19.5205135345459 4.10807466506958 19.607919692993164 4.3177490234375 19.779741287231445 C4.521571159362793 19.95156478881836 4.678827285766602 20.193241119384766 4.786652565002441 20.504886627197266 L5.040030002593994 20.504886627197266 L4.964327812194824 19.24098777770996 L4.7109503746032715 19.243854522705078 C4.696383476257324 19.328393936157227 4.678951740264893 19.38654136657715 4.658656597137451 19.40982437133789 C4.638236999511719 19.43609619140625 4.600386142730713 19.447799682617188 4.550831317901611 19.447799682617188 C4.5071282386779785 19.447799682617188 4.358712673187256 19.403972625732422 4.105210781097412 19.319679260253906 C3.8518333435058594 19.23227310180664 3.6188764572143555 19.18857192993164 3.4063377380371094 19.18857192993164 C3.0801219940185547 19.18857192993164 2.7714624404907227 19.26140785217285 2.480234146118164 19.403972625732422 C2.1890058517456055 19.546659469604492 1.9356279373168945 19.75359535217285 1.7229652404785156 20.01556396484375 C1.5598583221435547 20.222248077392578 1.4317378997802734 20.449356079101562 1.3473196029663086 20.69401741027832 A2.292722463607788 2.292722463607788 0.0 0 0 1.2162113189697266 21.46286392211914 C1.2162113189697266 21.79194450378418 1.2803335189819336 22.091888427734375 1.4084548950195312 22.371536254882812 C1.536574363708496 22.648197174072266 1.7229652404785156 22.892736434936523 1.9704904556274414 23.105398178100586 A2.2394323348999023 2.2394323348999023 0.0 0 0 2.6490697860717773 23.50432586669922 C2.899582862854004 23.597583770751953 3.1558237075805664 23.647014617919922 3.4177932739257812 23.647014617919922 C3.773143768310547 23.647014617919922 4.099359035491943 23.559608459472656 4.390462875366211 23.387786865234375 C4.684554576873779 23.215961456298828 4.952499866485596 22.953994750976562 5.2000250816345215 22.6043701171875 L4.969931125640869 22.394697189331055 C4.757517337799072 22.65691375732422 4.539127349853516 22.857872009277344 4.3177490234375 22.991844177246094 L4.3177490234375 22.991844177246094 M22.681690216064453 23.047252655029297 A0.5113614797592163 0.5113614797592163 0.0 0 1 22.591421127319336 23.090953826904297 A0.3722841441631317 0.3722841441631317 0.0 0 1 22.492435455322266 23.10552215576172 C22.439891815185547 23.10552215576172 22.401918411254883 23.082237243652344 22.378883361816406 23.035547256469727 C22.358463287353516 22.988981246948242 22.346759796142578 22.907428741455078 22.346759796142578 22.788022994995117 L22.346759796142578 21.54167938232422 C22.346759796142578 21.145490646362305 22.247774124145508 20.868953704833984 22.055408477783203 20.70584487915039 C21.86042594909668 20.545726776123047 21.53719711303711 20.46417236328125 21.07713508605957 20.46417236328125 L21.03629493713379 20.46417236328125 C20.678081512451172 20.467037200927734 20.39556884765625 20.531158447265625 20.19174575805664 20.650562286376953 C19.976343154907227 20.7728328704834 19.87150764465332 20.941791534423828 19.87150764465332 21.15719223022461 C19.87150764465332 21.27659797668457 19.906494140625 21.369857788085938 19.982194900512695 21.4454345703125 C20.057771682739258 21.521137237548828 20.15675926208496 21.559110641479492 20.276165008544922 21.559110641479492 C20.392704010009766 21.559110641479492 20.494802474975586 21.526987075805664 20.573368072509766 21.462989807128906 C20.654796600341797 21.398868560791016 20.695636749267578 21.323287963867188 20.695636749267578 21.232894897460938 C20.695636749267578 21.19803237915039 20.68978500366211 21.15134048461914 20.68393325805664 21.098922729492188 C20.678081512451172 21.046504974365234 20.678081512451172 21.011642456054688 20.678081512451172 20.997074127197266 C20.678081512451172 20.927101135253906 20.71306610107422 20.868953704833984 20.782917022705078 20.82525062561035 C20.847164154052734 20.78154754638672 20.934444427490234 20.761127471923828 21.03629493713379 20.758264541625977 C21.04500961303711 20.755401611328125 21.05671501159668 20.755401611328125 21.0654296875 20.755401611328125 C21.21670913696289 20.755401611328125 21.33051109313965 20.79623794555664 21.406089782714844 20.874805450439453 C21.478801727294922 20.95635986328125 21.51677703857422 21.078754425048828 21.51677703857422 21.244600296020508 L21.51677703857422 21.681503295898438 C21.34196662902832 21.716365814208984 21.18197250366211 21.754343032836914 21.03629493713379 21.792194366455078 C20.625537872314453 21.9000186920166 20.32285499572754 22.022411346435547 20.130733489990234 22.153396606445312 C19.87150764465332 22.33380889892578 19.740398406982422 22.572620391845703 19.740398406982422 22.869701385498047 C19.740398406982422 23.099796295166016 19.816225051879883 23.28319549560547 19.96750259399414 23.42302131652832 C20.116043090820312 23.559856414794922 20.317001342773438 23.62970733642578 20.57037925720215 23.62970733642578 C20.733612060546875 23.62970733642578 20.887754440307617 23.594844818115234 21.03629493713379 23.530723571777344 C21.047998428344727 23.524871826171875 21.059703826904297 23.519020080566406 21.074270248413086 23.513166427612305 C21.231403350830078 23.43746566772461 21.38865852355957 23.320924758911133 21.540185928344727 23.16366958618164 C21.563594818115234 23.30635643005371 21.62161636352539 23.41704559326172 21.71474838256836 23.4956111907959 C21.807880401611328 23.574302673339844 21.930150985717773 23.612152099609375 22.08167839050293 23.612152099609375 C22.20693588256836 23.612152099609375 22.329204559326172 23.580154418945312 22.45159912109375 23.513166427612305 C22.573989868164062 23.446182250976562 22.684555053710938 23.355911254882812 22.783538818359375 23.23650550842285 L22.681690216064453 23.047252655029297 L22.681690216064453 23.047252655029297 M21.51677703857422 22.79374885559082 C21.420780181884766 22.91315460205078 21.3273983001709 23.00342559814453 21.23712921142578 23.06468391418457 C21.170269012451172 23.105398178100586 21.103404998779297 23.134658813476562 21.03629493713379 23.14611053466797 C21.010025024414062 23.148977279663086 20.983753204345703 23.151966094970703 20.95772933959961 23.151966094970703 C20.841188430786133 23.151966094970703 20.74494171142578 23.111248016357422 20.66936492919922 23.02670669555664 C20.596651077270508 22.942291259765625 20.55867576599121 22.8345890045166 20.55867576599121 22.703479766845703 C20.55867576599121 22.528793334960938 20.634502410888672 22.380128860473633 20.785781860351562 22.263835906982422 A1.1121211051940918 1.1121211051940918 0.0 0 1 21.03629493713379 22.118160247802734 C21.167404174804688 22.05988883972168 21.3273983001709 22.01045799255371 21.51677703857422 21.963768005371094 L21.51677703857422 22.79374885559082 L21.51677703857422 22.79374885559082 M8.409388542175293 23.090829849243164 C8.377388954162598 23.099546432495117 8.345266342163086 23.105398178100586 8.310403823852539 23.105398178100586 C8.260848045349121 23.105398178100586 8.222996711730957 23.082115173339844 8.199714660644531 23.035423278808594 C8.176429748535156 22.98885726928711 8.164726257324219 22.907302856445312 8.164726257324219 22.78789710998535 L8.164726257324219 21.541555404663086 C8.164726257324219 21.14536476135254 8.068729400634766 20.86882972717285 7.873498439788818 20.70572280883789 C7.681379795074463 20.54560089111328 7.355164527893066 20.464046478271484 6.8951005935668945 20.464046478271484 L6.857249736785889 20.464046478271484 C6.499034881591797 20.46691131591797 6.216522693634033 20.531034469604492 6.009711742401123 20.650440216064453 C5.797173976898193 20.772708892822266 5.689348220825195 20.941665649414062 5.689348220825195 21.15707015991211 C5.689348220825195 21.276473999023438 5.727199554443359 21.369731903076172 5.802901268005371 21.445310592651367 C5.878603458404541 21.521011352539062 5.974724769592285 21.55898666381836 6.09412956237793 21.55898666381836 C6.213409900665283 21.55898666381836 6.312519550323486 21.52686309814453 6.394073486328125 21.46286392211914 C6.472763538360596 21.39874267578125 6.5134782791137695 21.323165893554688 6.5134782791137695 21.232772827148438 C6.5134782791137695 21.19791030883789 6.51061487197876 21.15121841430664 6.504762649536133 21.098798751831055 C6.499034881591797 21.04637908935547 6.496047019958496 21.011516571044922 6.496047019958496 20.9969482421875 C6.496047019958496 20.92697525024414 6.531033992767334 20.86882972717285 6.603872776031494 20.82512664794922 C6.667994976043701 20.78142547607422 6.75241231918335 20.761005401611328 6.857249736785889 20.758140563964844 C6.865965366363525 20.75527572631836 6.874680995941162 20.75527572631836 6.883396625518799 20.75527572631836 C7.0377888679504395 20.75527572631836 7.151341915130615 20.79611587524414 7.224055290222168 20.87468147277832 C7.29689359664917 20.956233978271484 7.334744453430176 21.078628540039062 7.334744453430176 21.244476318359375 L7.334744453430176 21.681381225585938 C7.162920951843262 21.716243743896484 7.002801418304443 21.75421714782715 6.857249736785889 21.792068481445312 C6.443628311157227 21.89989471435547 6.1438093185424805 22.02228546142578 5.951565742492676 22.153270721435547 C5.689472675323486 22.33368682861328 5.561352252960205 22.57249641418457 5.561352252960205 22.86957550048828 C5.561352252960205 23.09967041015625 5.634066104888916 23.28307342529297 5.785594463348389 23.422897338867188 C5.936997890472412 23.559734344482422 6.1379570960998535 23.62958526611328 6.391334533691406 23.62958526611328 C6.551578044891357 23.62958526611328 6.708709716796875 23.594722747802734 6.85737419128418 23.530597686767578 L6.892236709594727 23.513042449951172 C7.052356243133545 23.437339782714844 7.2067484855651855 23.320798873901367 7.361140251159668 23.163543701171875 C7.384423732757568 23.306232452392578 7.442694664001465 23.416919708251953 7.53582763671875 23.495487213134766 C7.629085540771484 23.574176788330078 7.748490333557129 23.612028121948242 7.8997697830200195 23.612028121948242 C8.02502727508545 23.612028121948242 8.150283813476562 23.580028533935547 8.272552490234375 23.513042449951172 C8.394820213317871 23.446056365966797 8.502646446228027 23.35578727722168 8.601631164550781 23.23638153076172 L8.49978256225586 23.04700469970703 A0.42532527446746826 0.42532527446746826 0.0 0 1 8.409388542175293 23.090829849243164 L8.409388542175293 23.090829849243164 M7.334744453430176 22.79374885559082 C7.241611003875732 22.91315460205078 7.148353576660156 23.00342559814453 7.055220603942871 23.06468391418457 C6.991097450256348 23.105398178100586 6.924111366271973 23.134658813476562 6.857249736785889 23.14611053466797 C6.830977916717529 23.148977279663086 6.804831027984619 23.151966094970703 6.778559684753418 23.151966094970703 C6.662018299102783 23.151966094970703 6.56602144241333 23.111248016357422 6.49031925201416 23.02670669555664 C6.414617538452148 22.942291259765625 6.379630088806152 22.8345890045166 6.379630088806152 22.703479766845703 C6.379630088806152 22.528793334960938 6.455332279205322 22.380128860473633 6.606736183166504 22.263835906982422 C6.670858383178711 22.211292266845703 6.755151748657227 22.161861419677734 6.857249736785889 22.118160247802734 C6.988234043121338 22.05988883972168 7.145489692687988 22.01045799255371 7.334744453430176 21.963768005371094 L7.334744453430176 22.79374885559082 L7.334744453430176 22.79374885559082 M11.991284370422363 22.86957550048828 L11.991284370422363 21.53582763671875 C11.991284370422363 21.17176055908203 11.92143440246582 20.898090362548828 11.778621673583984 20.71169662475586 C11.635933876037598 20.528169631958008 11.423396110534668 20.435035705566406 11.143746376037598 20.435035705566406 C10.986490249633789 20.435035705566406 10.829235076904297 20.475753784179688 10.671978950500488 20.55730628967285 C10.517711639404297 20.638734817504883 10.369171142578125 20.758140563964844 10.229347229003906 20.91826057434082 L10.063375473022461 21.098798751831055 L10.092386245727539 20.440641403198242 A10.565275192260742 10.565275192260742 0.0 0 1 9.50706672668457 20.583328247070312 C9.30909538269043 20.627031326293945 9.099421501159668 20.667869567871094 8.875179290771484 20.705596923828125 L8.875179290771484 20.90058135986328 C9.026582717895508 20.912282943725586 9.131420135498047 20.95013427734375 9.186826705932617 21.008403778076172 C9.242109298706055 21.06667709350586 9.268381118774414 21.1772403717041 9.268381118774414 21.340347290039062 L9.268381118774414 22.86920166015625 C9.268381118774414 23.032310485839844 9.242109298706055 23.14287567138672 9.186826705932617 23.20114517211914 C9.131420135498047 23.259416580200195 9.026582717895508 23.29726791381836 8.875179290771484 23.308971405029297 L8.875179290771484 23.527362823486328 L10.520575523376465 23.527362823486328 L10.520575523376465 23.308971405029297 C10.369171142578125 23.29726791381836 10.267197608947754 23.259416580200195 10.211915969848633 23.20114517211914 C10.156633377075195 23.14287567138672 10.127497673034668 23.032310485839844 10.127497673034668 22.86920166015625 L10.127497673034668 21.468467712402344 C10.22361946105957 21.328643798828125 10.32260513305664 21.217954635620117 10.433294296264648 21.142253875732422 C10.543983459472656 21.06667709350586 10.654672622680664 21.02869987487793 10.76822566986084 21.02869987487793 C10.896346092224121 21.02869987487793 10.986615180969238 21.072528839111328 11.044885635375977 21.15395736694336 C11.103157043457031 21.23849868774414 11.132291793823242 21.369483947753906 11.132291793823242 21.553009033203125 L11.132291793823242 22.86920166015625 C11.132291793823242 23.03803825378418 11.106143951416016 23.148727416992188 11.050737380981445 23.20699691772461 C10.995454788208008 23.26526641845703 10.890618324279785 23.297393798828125 10.733363151550293 23.308971405029297 L10.733363151550293 23.527362823486328 L12.381622314453125 23.527362823486328 L12.381622314453125 23.308971405029297 C12.230093955993652 23.29726791381836 12.131109237670898 23.259416580200195 12.075826644897461 23.20114517211914 C12.02042007446289 23.14324951171875 11.991284370422363 23.03255844116211 11.991284370422363 22.86957550048828 L11.991284370422363 22.86957550048828 M15.55276107788086 23.090829849243164 A0.3722841441631317 0.3722841441631317 0.0 0 1 15.453775405883789 23.105398178100586 C15.401232719421387 23.105398178100586 15.363506317138672 23.082115173339844 15.34022331237793 23.035423278808594 C15.319803237915039 22.98885726928711 15.308099746704102 22.907302856445312 15.308099746704102 22.78789710998535 L15.308099746704102 21.541555404663086 C15.308099746704102 21.14536476135254 15.209114074707031 20.86882972717285 15.016746520996094 20.70572280883789 C14.82176399230957 20.54560089111328 14.498537063598633 20.464046478271484 14.038474082946777 20.464046478271484 L13.997633934020996 20.464046478271484 C13.639419555664062 20.46691131591797 13.35703182220459 20.531034469604492 13.153084754943848 20.650440216064453 C12.93768310546875 20.772708892822266 12.832845687866211 20.941665649414062 12.832845687866211 21.15707015991211 C12.832845687866211 21.276473999023438 12.867833137512207 21.369731903076172 12.943534851074219 21.445310592651367 C13.01936149597168 21.521011352539062 13.11834716796875 21.55898666381836 13.237751960754395 21.55898666381836 C13.354291915893555 21.55898666381836 13.456141471862793 21.52686309814453 13.534708023071289 21.46286392211914 C13.61613655090332 21.39874267578125 13.656975746154785 21.323165893554688 13.656975746154785 21.232772827148438 C13.656975746154785 21.19791030883789 13.654112815856934 21.15121841430664 13.648260116577148 21.098798751831055 C13.64240837097168 21.04637908935547 13.639544486999512 21.011516571044922 13.639544486999512 20.9969482421875 C13.639544486999512 20.92697525024414 13.674531936645508 20.86882972717285 13.744630813598633 20.82512664794922 C13.808629035949707 20.78142547607422 13.895910263061523 20.761005401611328 13.997758865356445 20.758140563964844 C14.006474494934082 20.75527572631836 14.018178939819336 20.75527572631836 14.026893615722656 20.75527572631836 C14.178422927856445 20.75527572631836 14.291975975036621 20.79611587524414 14.367552757263184 20.87468147277832 C14.440266609191895 20.956233978271484 14.478241920471191 21.078628540039062 14.478241920471191 21.244476318359375 L14.478241920471191 21.681381225585938 C14.303679466247559 21.716243743896484 14.14343547821045 21.75421714782715 13.997758865356445 21.792068481445312 C13.587250709533691 21.89989471435547 13.284317970275879 22.02228546142578 13.09220027923584 22.153270721435547 C12.83297061920166 22.33368682861328 12.701861381530762 22.57249641418457 12.701861381530762 22.86957550048828 C12.701861381530762 23.09967041015625 12.777688026428223 23.28307342529297 12.929216384887695 23.422897338867188 C13.077507019042969 23.559734344482422 13.278467178344727 23.62958526611328 13.531843185424805 23.62958526611328 C13.695075988769531 23.62958526611328 13.84921932220459 23.594722747802734 13.997758865356445 23.530597686767578 C14.009462356567383 23.52474594116211 14.024030685424805 23.51889419555664 14.035734176635742 23.513042449951172 C14.193114280700684 23.437339782714844 14.35012149810791 23.320798873901367 14.501649856567383 23.163543701171875 C14.525057792663574 23.306232452392578 14.58307933807373 23.416919708251953 14.676212310791016 23.495487213134766 C14.7695951461792 23.574176788330078 14.891862869262695 23.612028121948242 15.043142318725586 23.612028121948242 C15.168399810791016 23.612028121948242 15.290668487548828 23.580028533935547 15.413061141967773 23.513042449951172 C15.535454750061035 23.446056365966797 15.646018981933594 23.35578727722168 15.745004653930664 23.23638153076172 L15.643155097961426 23.04700469970703 A0.49642035365104675 0.49642035365104675 0.0 0 1 15.55276107788086 23.090829849243164 L15.55276107788086 23.090829849243164 M14.478116989135742 22.79374885559082 C14.382121086120605 22.91315460205078 14.288863182067871 23.00342559814453 14.198718070983887 23.06468391418457 C14.131607055664062 23.105398178100586 14.06474494934082 23.134658813476562 13.997633934020996 23.14611053466797 C13.971611976623535 23.148977279663086 13.945340156555176 23.151966094970703 13.919069290161133 23.151966094970703 C13.802528381347656 23.151966094970703 13.706530570983887 23.111248016357422 13.633567810058594 23.02670669555664 C13.557991027832031 22.942291259765625 13.520014762878418 22.8345890045166 13.520014762878418 22.703479766845703 C13.520014762878418 22.528793334960938 13.595841407775879 22.380128860473633 13.747121810913086 22.263835906982422 C13.814231872558594 22.211292266845703 13.898649215698242 22.161861419677734 13.997633934020996 22.118160247802734 C14.128743171691895 22.05988883972168 14.288987159729004 22.01045799255371 14.478116989135742 21.963768005371094 L14.478116989135742 22.79374885559082 L14.478116989135742 22.79374885559082" fill="black" fill-opacity="1.0" filling="0"/>
<path animation_id="2" d="M7.0290727615356445 17.54317283630371 C7.133910655975342 17.627716064453125 7.017369270324707 17.924673080444336 7.151341915130615 17.924673080444336 L13.895785331726074 17.901264190673828 L13.954180717468262 17.901264190673828 L13.916204452514648 17.356782913208008 A0.19174499809741974 0.19174499809741974 0.0 0 0 13.895785331726074 17.286808013916016 C13.814355850219727 17.11212158203125 13.502832412719727 17.030567169189453 13.48527717590332 16.82973289489746 C13.313329696655273 14.491191864013672 13.453153610229492 12.141194343566895 13.435721397399902 9.799788475036621 L10.08964729309082 9.799788475036621 C9.96451473236084 9.991907119750977 9.952810287475586 10.204569816589355 10.022661209106445 10.425948143005371 C10.32260513305664 10.635622024536133 10.526427268981934 10.822013854980469 10.631264686584473 10.982133865356445 L10.631264686584473 16.812175750732422 L10.43043041229248 17.10041618347168 C10.43043041229248 17.10041618347168 10.040092468261719 17.21110725402832 9.87710952758789 17.123701095581055 C9.690717697143555 17.02770233154297 9.504326820373535 16.914026260375977 9.507190704345703 16.61993408203125 L9.530597686767578 12.033369064331055 C9.495611190795898 11.366495132446289 9.323787689208984 10.836456298828125 8.951129913330078 10.507377624511719 C8.257984161376953 9.767788887023926 7.21832799911499 9.421154022216797 5.832160949707031 9.470709800720215 C5.718608379364014 9.470709800720215 5.60505485534668 9.473572731018066 5.491502285003662 9.476561546325684 C4.16348123550415 9.517400741577148 2.9899768829345703 9.750357627868652 1.99688720703125 10.210421562194824 C1.9823198318481445 10.76947021484375 1.964888572692871 11.328643798828125 1.9503211975097656 11.887816429138184 C2.3142623901367188 11.890680313110352 2.6811933517456055 11.89653205871582 3.045259475708008 11.899520874023438 C3.650999069213867 11.081242561340332 4.600261211395264 10.711324691772461 5.491377830505371 10.868579864501953 C5.966009140014648 10.95013427734375 6.426197052001953 11.18309211730957 6.807694911956787 11.579157829284668 C6.88040828704834 11.657722473144531 6.85139799118042 11.943099021911621 6.819274425506592 12.045072555541992 C6.793127059936523 12.12961483001709 6.64458703994751 12.222747802734375 6.560044765472412 12.243167877197266 A71.24410247802734 71.24410247802734 0.0 0 0 5.491377830505371 12.473261833190918 C4.358588218688965 12.723775863647461 3.6071720123291016 12.918758392333984 3.0829858779907227 13.204133987426758 C1.827927589416504 13.783602714538574 1.3124570846557617 14.596277236938477 1.306605339050293 15.57181167602539 C1.551142692565918 17.330760955810547 2.634502410888672 18.05889320373535 4.192492485046387 18.210172653198242 C4.687542915344238 18.22461700439453 5.115607261657715 18.172197341918945 5.49125337600708 18.070348739624023 A3.4617443084716797 3.4617443084716797 0.0 0 0 6.647326469421387 17.51988983154297 C6.749424457550049 17.444313049316406 6.9299635887146 17.46460723876953 7.0290727615356445 17.54317283630371 L7.0290727615356445 17.54317283630371 M4.1343464851379395 15.906618118286133 C4.08192777633667 15.743510246276855 4.08192777633667 15.568822860717773 4.1343464851379395 15.379568099975586 C4.428438186645508 14.698125839233398 4.8914899826049805 14.24976634979248 5.491377830505371 13.987549781799316 C5.88445520401001 13.815725326538086 6.335927486419678 13.725580215454102 6.836830139160156 13.705036163330078 C6.85426139831543 14.368922233581543 6.868829250335693 15.035797119140625 6.886260509490967 15.702795028686523 C6.388221263885498 16.12500762939453 5.916578769683838 16.422088623046875 5.491377830505371 16.52692413330078 C4.9584760665893555 16.660898208618164 4.495424270629883 16.49778938293457 4.1343464851379395 15.906618118286133 M22.690406799316406 17.190811157226562 C22.690406799316406 17.190811157226562 22.571002960205078 17.20836639404297 22.40777015686035 17.123825073242188 C22.22150421142578 17.027828216552734 22.034988403320312 16.91415023803711 22.03809928894043 16.620058059692383 L22.061260223388672 12.033493995666504 C22.02627182006836 11.366619110107422 21.854572296142578 10.836580276489258 21.481792449951172 10.507501602172852 C20.788768768310547 9.767913818359375 19.749114990234375 9.421278953552246 18.362945556640625 9.470833778381348 C18.249393463134766 9.470833778381348 18.135841369628906 9.473697662353516 18.022287368774414 9.476685523986816 C16.69426727294922 9.517524719238281 15.520637512207031 9.750482559204102 14.530660629272461 10.210545539855957 C14.513104438781738 10.7695951461792 14.495673179626465 11.328767776489258 14.48110580444336 11.887941360473633 C14.845171928405762 11.8908052444458 15.212102890014648 11.89665699005127 15.579032897949219 11.89964485168457 C16.181907653808594 11.081367492675781 17.131046295166016 10.711448669433594 18.022287368774414 10.868704795837402 C18.496917724609375 10.950258255004883 18.957107543945312 11.183216094970703 19.338603973388672 11.5792818069458 C19.414182662963867 11.65784740447998 19.382183074951172 11.943222999572754 19.350059509277344 12.045196533203125 C19.324037551879883 12.129738807678223 19.175495147705078 12.222872734069824 19.091079711914062 12.243291854858398 A70.9468994140625 70.9468994140625 0.0 0 0 18.022287368774414 12.473386764526367 C16.892236709594727 12.723899841308594 16.13808250427246 12.918882369995117 15.614019393920898 13.204258918762207 C14.591670989990234 13.676025390625 14.061756134033203 14.305173873901367 13.895660400390625 15.047750473022461 A2.397186040878296 2.397186040878296 0.0 0 0 13.840503692626953 15.571935653686523 C13.855071067810059 15.682624816894531 13.872377395629883 15.793313980102539 13.895660400390625 15.898026466369629 C14.221752166748047 17.421031951904297 15.267509460449219 18.070472717285156 16.723400115966797 18.210296630859375 C17.218578338623047 18.22473907470703 17.646516799926758 18.172321319580078 18.022287368774414 18.070472717285156 A3.4617443084716797 3.4617443084716797 0.0 0 0 19.178361892700195 17.520015716552734 C19.280208587646484 17.44443702697754 19.46074867248535 17.464733123779297 19.559858322143555 17.54342269897461 C19.664695739746094 17.62796401977539 19.548154830932617 17.9249210357666 19.682126998901367 17.9249210357666 L22.661148071289062 17.962772369384766 L22.690406799316406 17.190811157226562 L22.690406799316406 17.190811157226562 M18.022287368774414 16.52692413330078 C17.489261627197266 16.660898208618164 17.029071807861328 16.49778938293457 16.665130615234375 15.906618118286133 C16.612836837768555 15.743510246276855 16.612836837768555 15.568822860717773 16.665130615234375 15.379568099975586 C16.959346771240234 14.698125839233398 17.42239761352539 14.24976634979248 18.022287368774414 13.987549781799316 C18.415239334106445 13.815725326538086 18.866838455200195 13.725580215454102 19.36761474609375 13.705036163330078 C19.38517189025879 14.368922233581543 19.402603149414062 15.035797119140625 19.417171478271484 15.702795028686523 C18.919132232666016 16.12500762939453 18.447364807128906 16.42221450805664 18.022287368774414 16.52692413330078 L18.022287368774414 16.52692413330078" fill="black" fill-opacity="1.0" filling="0"/></svg>