<?xml version="1.0" encoding="iso-8859-1"?><svg height="200px" viewBox="0.0 0.0 24.0 24.0" width="200px" xmlns="http://www.w3.org/2000/svg"><path animation_id="0" d="M0.0 0.0 L24.0 0.0 L24.0 24.0 L0.0 24.0 L0.0 0.0" fill="black" fill-opacity="1.0" filling="0"/>
<path animation_id="1" d="M19.153831481933594 8.916267395019531 L19.53757095336914 8.63674259185791 L17.177738189697266 6.277034282684326 L16.938928604125977 6.358089923858643 C11.852581024169922 8.08030891418457 6.680445671081543 6.375521659851074 6.629148006439209 6.358089923858643 L6.39008903503418 6.27753210067749 L6.211915493011475 6.455705642700195 L4.03087854385376 8.63674259185791 L4.4147419929504395 8.916267395019531 C5.443939685821533 9.666314125061035 5.443939685821533 11.548900604248047 5.443939685821533 12.352487564086914 C5.443939685821533 14.163232803344727 5.182219982147217 14.70783805847168 4.951877117156982 15.188072204589844 C4.766232967376709 15.575298309326172 4.590798854827881 15.940982818603516 4.590798854827881 16.729251861572266 C4.590798854827881 19.364999771118164 6.336300849914551 20.046566009521484 8.184399604797363 20.768348693847656 C9.335865020751953 21.217830657958984 10.526302337646484 21.682998657226562 11.49722957611084 22.653926849365234 L11.784099578857422 22.94116973876953 L12.0714693069458 22.653926849365234 C13.042022705078125 21.682998657226562 14.23295783996582 21.217954635620117 15.383926391601562 20.768348693847656 C17.23189926147461 20.046443939208984 18.977401733398438 19.364999771118164 18.977401733398438 16.729251861572266 C18.977401733398438 15.940982818603516 18.80234146118164 15.575298309326172 18.6168212890625 15.188446044921875 C18.38623046875 14.70783805847168 18.1246337890625 14.163232803344727 18.1246337890625 12.352487564086914 C18.124385833740234 11.548900604248047 18.124385833740234 9.666439056396484 19.153831481933594 8.916267395019531 L19.153831481933594 8.916267395019531" fill="black" fill-opacity="1.0" filling="0"/>
<path animation_id="2" d="M17.124448776245117 6.5067548751831055 L17.003049850463867 6.547967433929443 C11.848222732543945 8.293469429016113 6.616946220397949 6.565523147583008 6.5647759437561035 6.547967433929443 L6.443877696990967 6.5070037841796875 L4.338168621063232 8.612711906433105 L4.532403945922852 8.754653930664062 C5.643777847290039 9.564340591430664 5.643777847290039 11.518272399902344 5.643777847290039 12.352487564086914 C5.643777847290039 14.208803176879883 5.372221946716309 14.775197982788086 5.132167339324951 15.275104522705078 C4.956608295440674 15.64103889465332 4.791134834289551 15.986553192138672 4.791134834289551 16.72937774658203 C4.791134834289551 19.228164672851562 6.474755764007568 19.88582420349121 8.257237434387207 20.581958770751953 C9.427753448486328 21.038909912109375 10.638361930847168 21.511798858642578 11.63879680633545 22.51223373413086 L11.783975601196289 22.657909393310547 L11.929901123046875 22.51223373413086 C12.930460929870605 21.511798858642578 14.140571594238281 21.038909912109375 15.310465812683105 20.581958770751953 C17.09344482421875 19.885700225830078 18.777313232421875 19.228164672851562 18.777313232421875 16.72937774658203 C18.777313232421875 15.986553192138672 18.611217498779297 15.641162872314453 18.435659408569336 15.275104522705078 C18.195606231689453 14.775197982788086 17.92454719543457 14.208928108215332 17.92454719543457 12.352487564086914 C17.92454719543457 11.518272399902344 17.92454719543457 9.564465522766113 19.03567123413086 8.754653930664062 L19.23015785217285 8.612711906433105 L17.124448776245117 6.5067548751831055 L17.124448776245117 6.5067548751831055" fill="black" fill-opacity="1.0" filling="0"/>
<path animation_id="3" d="M17.069290161132812 6.742825031280518 L18.91477394104004 8.588059425354004 C17.718608856201172 9.459627151489258 17.718608856201172 11.462491035461426 17.718608856201172 12.352362632751465 C17.718608856201172 15.6166353225708 18.571250915527344 15.060200691223145 18.571250915527344 16.729129791259766 C18.571250915527344 20.604869842529297 14.417232513427734 19.732927322387695 11.784099578857422 22.366432189941406 C9.150968551635742 19.732927322387695 4.996700763702393 20.604869842529297 4.996700763702393 16.729129791259766 C4.996700763702393 15.060200691223145 5.849966049194336 15.616510391235352 5.849966049194336 12.352362632751465 C5.849966049194336 11.462491035461426 5.849966049194336 9.459627151489258 4.653924942016602 8.588059425354004 L6.498910427093506 6.742825031280518 C6.498661518096924 6.742825031280518 11.783975601196289 8.532403945922852 17.069290161132812 6.742825031280518 L17.069290161132812 6.742825031280518" fill="black" fill-opacity="1.0" filling="0"/>
<path animation_id="4" d="M12.757641792297363 11.564464569091797 L13.564340591430664 11.564464569091797 L13.564340591430664 11.036046028137207 L14.454586029052734 11.036046028137207 L14.454586029052734 10.118035316467285 L12.757641792297363 10.118035316467285 L12.757641792297363 8.671481132507324 L10.810433387756348 8.671481132507324 L10.810433387756348 10.118035316467285 L9.11349105834961 10.118035316467285 L9.11349105834961 11.036046028137207 L10.00361156463623 11.036046028137207 L10.00361156463623 11.564464569091797 L11.22754192352295 11.564464569091797 L11.22754192352295 13.026209831237793 C11.011143684387207 13.311710357666016 10.866090774536133 13.826309204101562 10.866090774536133 14.415738105773926 C10.866090774536133 15.004919052124023 11.011143684387207 15.519641876220703 11.22754192352295 15.805267333984375 L11.22754192352295 16.905309677124023 C9.725580215454102 16.905309677124023 10.977277755737305 13.094440460205078 9.28033447265625 13.094440460205078 C9.92018985748291 13.734296798706055 9.46174430847168 15.182095527648926 9.419535636901855 15.987298965454102 C9.419535636901855 17.211355209350586 10.44873332977295 17.795429229736328 11.22754192352295 17.795429229736328 L11.22754192352295 18.073585510253906 L9.642034530639648 18.073585510253906 L9.642034530639648 19.01936149597168 L11.22754192352295 19.01936149597168 L11.22754192352295 19.412687301635742 C10.883397102355957 19.56521224975586 10.650439262390137 19.854822158813477 10.650439262390137 20.187761306762695 C10.650439262390137 20.679203033447266 11.15818977355957 21.077754974365234 11.783975601196289 21.077754974365234 C12.409886360168457 21.077754974365234 12.91763687133789 20.679203033447266 12.91763687133789 20.187761306762695 C12.91763687133789 19.854822158813477 12.68467903137207 19.56521224975586 12.340285301208496 19.412687301635742 L12.340285301208496 19.01936149597168 L13.925792694091797 19.01936149597168 L13.925792694091797 18.073585510253906 L12.340285301208496 18.073585510253906 L12.340285301208496 17.795429229736328 C13.119217872619629 17.795429229736328 14.14829158782959 17.211355209350586 14.14829158782959 15.987298965454102 C14.10645580291748 15.181970596313477 13.647637367248535 13.734171867370605 14.287368774414062 13.094440460205078 C12.59067440032959 13.094440460205078 13.842370986938477 16.905309677124023 12.340161323547363 16.905309677124023 L12.340161323547363 15.805267333984375 C12.556558609008789 15.519641876220703 12.701737403869629 15.004919052124023 12.701737403869629 14.415738105773926 C12.701737403869629 13.826309204101562 12.556558609008789 13.311710357666016 12.340161323547363 13.026209831237793 L12.340161323547363 11.564464569091797 L12.757641792297363 11.564464569091797 L12.757641792297363 11.564464569091797" fill="black" fill-opacity="1.0" filling="0"/>
<path animation_id="5" d="M5.981945991516113 1.1560726165771484 L8.125133514404297 3.7761306762695312 L8.125133514404297 1.9627714157104492 C8.125133514404297 1.7070283889770508 8.087779998779297 1.5338354110717773 8.013571739196777 1.443939208984375 C7.911349296569824 1.322169303894043 7.739650249481201 1.2635250091552734 7.4993462562561035 1.2675094604492188 L7.4993462562561035 1.1560726165771484 L8.931831359863281 1.1560726165771484 L8.931831359863281 1.2673845291137695 C8.748054504394531 1.2906675338745117 8.624540328979492 1.3204259872436523 8.561538696289062 1.3572807312011719 C8.498537063598633 1.3938865661621094 8.449356079101562 1.4537763595581055 8.414119720458984 1.5364503860473633 C8.378883361816406 1.6194982528686523 8.361576080322266 1.7615642547607422 8.361576080322266 1.9627714157104492 L8.361576080322266 5.495611190795898 L8.25287914276123 5.495611190795898 L5.315694808959961 1.9611530303955078 L5.315694808959961 4.661271572113037 C5.315694808959961 4.90680456161499 5.37259578704834 5.072402477264404 5.487393379211426 5.158438682556152 C5.601693630218506 5.244225978851318 5.732926368713379 5.287057399749756 5.8807196617126465 5.287057399749756 L5.983315944671631 5.287057399749756 L5.983315944671631 5.398244380950928 L4.43951940536499 5.398244380950928 L4.43951940536499 5.287057399749756 C4.678080081939697 5.285065174102783 4.844425201416016 5.236880302429199 4.938429832458496 5.142501354217529 C5.032310485839844 5.048122882843018 5.079250335693359 4.887629985809326 5.079250335693359 4.661271572113037 L5.079250335693359 1.6646957397460938 L4.9869890213012695 1.5533838272094727 C4.8948516845703125 1.4390830993652344 4.813546657562256 1.3638801574707031 4.742700576782227 1.3277721405029297 C4.6723527908325195 1.2916641235351562 4.5706281661987305 1.2717418670654297 4.43802547454834 1.2673845291137695 L4.43802547454834 1.1560726165771484 L5.981945991516113 1.1560726165771484 L5.981945991516113 1.1560726165771484 M11.491128921508789 5.287057399749756 L11.491128921508789 5.398244380950928 L9.223931312561035 5.398244380950928 L9.223931312561035 5.287057399749756 L9.368237495422363 5.287057399749756 C9.494241714477539 5.287057399749756 9.595592498779297 5.265267848968506 9.672538757324219 5.22119140625 C9.728196144104004 5.191807746887207 9.770777702331543 5.141879081726074 9.80078411102295 5.070534706115723 C9.82419204711914 5.020357131958008 9.836021423339844 4.8883771896362305 9.836021423339844 4.6750922203063965 L9.836021423339844 1.8793506622314453 C9.836021423339844 1.6619558334350586 9.82419204711914 1.525991439819336 9.80078411102295 1.471456527709961 C9.777377128601074 1.4170446395874023 9.729440689086914 1.3696069717407227 9.658096313476562 1.3286428451538086 C9.586254119873047 1.2878046035766602 9.489884376525879 1.2673845291137695 9.368237495422363 1.2673845291137695 L9.223931312561035 1.2673845291137695 L9.223931312561035 1.1560726165771484 L11.491004943847656 1.1560726165771484 L11.491004943847656 1.2673845291137695 L11.347569465637207 1.2673845291137695 C11.222436904907227 1.2673845291137695 11.121086120605469 1.2895479202270508 11.044636726379395 1.3334989547729492 C10.989355087280273 1.3628835678100586 10.946025848388672 1.4130611419677734 10.91415023803711 1.4841556549072266 C10.890743255615234 1.5343332290649414 10.878914833068848 1.665940284729004 10.878914833068848 1.8793506622314453 L10.878914833068848 4.6750922203063965 C10.878914833068848 4.89285945892334 10.89111614227295 5.028824329376221 10.915519714355469 5.083234786987305 C10.94029712677002 5.137521266937256 10.988109588623047 5.185208320617676 11.058831214904785 5.226047515869141 C11.13017463684082 5.2667622566223145 11.226296424865723 5.287057399749756 11.347444534301758 5.287057399749756 L11.491128921508789 5.287057399749756 M14.736226081848145 1.0588302612304688 L14.770964622497559 2.470522880554199 L14.638734817504883 2.470522880554199 C14.576231002807617 2.1174135208129883 14.423334121704102 1.8334054946899414 14.179792404174805 1.6182537078857422 C13.936375617980957 1.4029760360717773 13.6730375289917 1.2952747344970703 13.389654159545898 1.2952747344970703 C13.170516014099121 1.2952747344970703 12.99670124053955 1.3521757125854492 12.868704795837402 1.4656047821044922 C12.741082191467285 1.5790328979492188 12.677581787109375 1.7096433639526367 12.677581787109375 1.857436180114746 C12.677581787109375 1.9510679244995117 12.70024299621582 2.034364700317383 12.745439529418945 2.1070775985717773 C12.807196617126465 2.2049427032470703 12.90717887878418 2.301936149597168 13.045259475708008 2.3975601196289062 C13.146236419677734 2.4661645889282227 13.379195213317871 2.5880603790283203 13.744132995605469 2.762871742248535 C14.255245208740234 3.0065364837646484 14.600386619567871 3.236631393432617 14.777687072753906 3.453277587890625 C14.954243659973145 3.6701736450195312 15.042021751403809 3.9183216094970703 15.042021751403809 4.197721481323242 C15.042021751403809 4.552200794219971 14.899333953857422 4.857000350952148 14.615203857421875 5.112619400024414 C14.330946922302246 5.367988586425781 13.969992637634277 5.495486736297607 13.53283977508545 5.495486736297607 A1.8053913116455078 1.8053913116455078 0.0 0 1 13.142501831054688 5.454896450042725 C13.020855903625488 5.42775297164917 12.866962432861328 5.376455307006836 12.682686805725098 5.301251411437988 C12.580340385437012 5.259416103363037 12.494926452636719 5.238373756408691 12.429059982299805 5.238373756408691 C12.372408866882324 5.238373756408691 12.31326675415039 5.259665012359619 12.251510620117188 5.301998615264893 C12.189006805419922 5.344331741333008 12.138703346252441 5.408703327178955 12.10023021697998 5.495611190795898 L11.989043235778809 5.495611190795898 L11.989043235778809 3.8891868591308594 L12.10023021697998 3.8891868591308594 C12.194360733032227 4.3391642570495605 12.376766204833984 4.682437896728516 12.645458221435547 4.918632984161377 C12.914897918701172 5.15507698059082 13.205254554748535 5.2731122970581055 13.516529083251953 5.2731122970581055 C13.75633430480957 5.2731122970581055 13.948452949523926 5.2096123695373535 14.09089183807373 5.082736492156982 C14.233331680297852 4.955861568450928 14.304676055908203 4.80806827545166 14.304676055908203 4.639358043670654 C14.304676055908203 4.539376258850098 14.276909828186035 4.44263219833374 14.222249984741211 4.349000930786133 C14.167591094970703 4.255494117736816 14.08479118347168 4.166469573974609 13.972732543945312 4.082176685333252 C13.861296653747559 3.9977588653564453 13.663201332092285 3.8878164291381836 13.379817008972168 3.7527236938476562 C12.982755661010742 3.5632200241088867 12.697504043579102 3.401979446411133 12.525306701660156 3.268630027770996 C12.35335922241211 3.13515567779541 12.220382690429688 2.9862422943115234 12.12824535369873 2.8217649459838867 C12.035112380981445 2.6569128036499023 11.989168167114258 2.4757518768310547 11.989168167114258 2.2777814865112305 C11.989168167114258 1.9403600692749023 12.116167068481445 1.6527423858642578 12.371662139892578 1.4153022766113281 C12.626283645629883 1.1777372360229492 12.947021484375 1.0588302612304688 13.334620475769043 1.0588302612304688 C13.47544002532959 1.0588302612304688 13.612774848937988 1.0757646560668945 13.74587631225586 1.1091327667236328 C13.846853256225586 1.1344079971313477 13.96937084197998 1.1809749603271484 14.113553047180176 1.2489566802978516 C14.257735252380371 1.3169403076171875 14.359708786010742 1.3508062362670898 14.417107582092285 1.3508062362670898 C14.472515106201172 1.3508062362670898 14.516093254089355 1.334371566772461 14.548465728759766 1.300877571105957 C14.580589294433594 1.2672605514526367 14.610969543457031 1.1865777969360352 14.638734817504883 1.058706283569336 L14.736226081848145 1.058706283569336 L14.736226081848145 1.0588302612304688 L14.736226081848145 1.0588302612304688 M18.024778366088867 4.181286334991455 L16.503393173217773 4.181286334991455 L16.313018798828125 4.597522258758545 C16.25300407409668 4.737346649169922 16.22249984741211 4.85289192199707 16.22249984741211 4.944033145904541 C16.22249984741211 5.064807415008545 16.272052764892578 5.153707027435303 16.37041664123535 5.211106300354004 C16.42781639099121 5.244848728179932 16.570255279541016 5.2701239585876465 16.7972354888916 5.287181854248047 L16.7972354888916 5.398368835449219 L15.35080623626709 5.398368835449219 L15.35080623626709 5.287181854248047 C15.506443977355957 5.2640228271484375 15.635062217712402 5.2002739906311035 15.736040115356445 5.095437049865723 C15.835771560668945 4.990724086761475 15.96003246307373 4.7742018699646 16.108074188232422 4.446367263793945 L17.661956787109375 1.058955192565918 L17.723962783813477 1.058955192565918 L19.292037963867188 4.540870666503906 C19.441574096679688 4.875552654266357 19.565086364746094 5.086348056793213 19.661457061767578 5.172882080078125 C19.733673095703125 5.238498687744141 19.83626937866211 5.276723384857178 19.969371795654297 5.287181854248047 L19.969371795654297 5.398368835449219 L17.86465835571289 5.398368835449219 L17.86465835571289 5.287181854248047 L17.95144271850586 5.287181854248047 C18.12002944946289 5.287181854248047 18.239185333251953 5.2637739181518555 18.307910919189453 5.217207431793213 C18.354854583740234 5.183341026306152 18.378135681152344 5.134532928466797 18.378135681152344 5.070784091949463 C18.378135681152344 5.032559394836426 18.372034072875977 4.993463516235352 18.35896110534668 4.952873229980469 C18.354854583740234 4.933947563171387 18.322729110717773 4.85426139831543 18.26271629333496 4.714312553405762 L18.024778366088867 4.181286334991455 M17.92180824279785 3.951690673828125 L17.274234771728516 2.502645492553711 L16.608354568481445 3.951690673828125 L17.92180824279785 3.951690673828125" fill="black" fill-opacity="1.0" filling="0"/>
<path animation_id="6" d="M5.66693639755249 1.471456527709961 L7.809998512268066 4.091514587402344 L7.809998512268066 2.2781553268432617 C7.809998512268066 2.022287368774414 7.772644996643066 1.8492183685302734 7.69781494140625 1.759073257446289 C7.595716953277588 1.637552261352539 7.424640655517578 1.5786590576171875 7.184087753295898 1.5827674865722656 L7.184087753295898 1.471456527709961 L8.616697311401367 1.471456527709961 L8.616697311401367 1.5827674865722656 C8.432920455932617 1.6060514450073242 8.309531211853027 1.6358089447021484 8.246405601501465 1.6725397109985352 C8.183526992797852 1.7092695236206055 8.134346008300781 1.7690343856811523 8.098984718322754 1.8518333435058594 C8.063873291015625 1.9348812103271484 8.046442031860352 2.077071189880371 8.046442031860352 2.2782793045043945 L8.046442031860352 5.811119079589844 L7.937745094299316 5.811119079589844 L5.000560283660889 2.2764110565185547 L5.000560283660889 4.976405143737793 C5.000560283660889 5.221814155578613 5.057585716247559 5.387536525726318 5.172259330749512 5.473448276519775 C5.286559104919434 5.559484958648682 5.417917251586914 5.602315902709961 5.565211772918701 5.602315902709961 L5.668306350708008 5.602315902709961 L5.668306350708008 5.713627815246582 L4.124385356903076 5.713627815246582 L4.124385356903076 5.602315902709961 C4.362946033477783 5.600323677062988 4.529540061950684 5.552138328552246 4.623295783996582 5.457760334014893 C4.71717643737793 5.363506317138672 4.764116287231445 5.202888488769531 4.764116287231445 4.976405143737793 L4.764116287231445 1.9800786972045898 L4.671481132507324 1.8687667846679688 C4.579717636108398 1.7544660568237305 4.498537063598633 1.6792631149291992 4.4276909828186035 1.6431550979614258 C4.357342720031738 1.6070470809936523 4.255494117736816 1.5870018005371094 4.123015403747559 1.5826435089111328 L4.123015403747559 1.4713315963745117 L5.66693639755249 1.4713315963745117 L5.66693639755249 1.471456527709961 M11.175870895385742 5.602315902709961 L11.175870895385742 5.713627815246582 L8.908921241760254 5.713627815246582 L8.908921241760254 5.602315902709961 L9.05310344696045 5.602315902709961 C9.179107666015625 5.602315902709961 9.280458450317383 5.580402374267578 9.357405662536621 5.536450386047363 C9.413061141967773 5.507065773010254 9.455643653869629 5.456888675689697 9.485526084899902 5.385793685913086 C9.508934020996094 5.335616111755371 9.52076244354248 5.203760147094727 9.52076244354248 4.990350723266602 L9.52076244354248 2.194608688354492 C9.52076244354248 1.9770898818969727 9.508934020996094 1.8411264419555664 9.485526084899902 1.7867145538330078 C9.462118148803711 1.7324285507202148 9.414306640625 1.684865951538086 9.342962265014648 1.6439027786254883 C9.271244049072266 1.603062629699707 9.174749374389648 1.5826435089111328 9.052978515625 1.5826435089111328 L8.908797264099121 1.5826435089111328 L8.908797264099121 1.4713315963745117 L11.175870895385742 1.4713315963745117 L11.175870895385742 1.5826435089111328 L11.032435417175293 1.5826435089111328 C10.906929016113281 1.5826435089111328 10.806076049804688 1.6048059463500977 10.729503631591797 1.6486330032348633 C10.67422103881836 1.6780176162719727 10.630891799926758 1.7281951904296875 10.599141120910645 1.7992897033691406 C10.57560920715332 1.8494672775268555 10.563780784606934 1.9811992645263672 10.563780784606934 2.1944847106933594 L10.563780784606934 4.990350723266602 C10.563780784606934 5.208117961883545 10.575982093811035 5.344207286834717 10.600386619567871 5.398368835449219 C10.62479019165039 5.452779769897461 10.672601699829102 5.50034236907959 10.74382209777832 5.541182041168213 C10.815165519714355 5.582021236419678 10.911163330078125 5.60219144821167 11.032310485839844 5.60219144821167 L11.175870895385742 5.60219144821167 L11.175870895385742 5.602315902709961 M14.420469284057617 1.3740901947021484 L14.455207824707031 2.7859058380126953 L14.323102951049805 2.7859058380126953 C14.261346817016602 2.4327964782714844 14.108323097229004 2.148540496826172 13.863910675048828 1.933262825012207 C13.620742797851562 1.7181100845336914 13.357156753540039 1.6105337142944336 13.073772430419922 1.6105337142944336 C12.854634284973145 1.6105337142944336 12.681815147399902 1.6673097610473633 12.554068565368652 1.7807388305664062 C12.426197052001953 1.8941669464111328 12.361701011657715 2.02490234375 12.361701011657715 2.172696113586426 C12.361701011657715 2.2664499282836914 12.384361267089844 2.3497486114501953 12.429558753967285 2.42246150970459 C12.49206256866455 2.5202016830444336 12.592293739318848 2.617070198059082 12.729378700256348 2.7128190994262695 C12.830355644226074 2.7814226150512695 13.063313484191895 2.9034423828125 13.428251266479492 3.0782546997070312 C13.939613342285156 3.321920394897461 14.284753799438477 3.5520143508911133 14.46280288696289 3.7685365676879883 C14.638361930847168 3.985431671142578 14.726140975952148 4.233580112457275 14.726140975952148 4.5131049156188965 C14.726140975952148 4.867459297180176 14.584573745727539 5.172383785247803 14.300317764282227 5.42775297164917 C14.016061782836914 5.6832475662231445 13.654361724853516 5.8108696937561035 13.217206954956055 5.8108696937561035 C13.07974910736084 5.8108696937561035 12.950010299682617 5.797173976898193 12.827616691589355 5.770279884338379 C12.705099105834961 5.742763042449951 12.55207633972168 5.69183874130249 12.36705493927002 5.6163859367370605 C12.264458656311035 5.574674606323242 12.17929458618164 5.553632736206055 12.113180160522461 5.553632736206055 C12.057523727416992 5.553632736206055 11.998505592346191 5.574923992156982 11.935877799987793 5.617257595062256 C11.873995780944824 5.659715175628662 11.823694229125977 5.724086284637451 11.784598350524902 5.810994625091553 L11.673286437988281 5.810994625091553 L11.673286437988281 4.2045698165893555 L11.784598350524902 4.2045698165893555 C11.879349708557129 4.654298782348633 12.061009407043457 4.997447967529297 12.330573081970215 5.233891487121582 C12.599514961242676 5.470335960388184 12.889373779296875 5.588495254516602 13.200648307800293 5.588495254516602 C13.441450119018555 5.588495254516602 13.632572174072266 5.52499532699585 13.77501106262207 5.398119926452637 C13.917698860168457 5.271244525909424 13.989043235778809 5.123326778411865 13.989043235778809 4.954740524291992 C13.989043235778809 4.854635238647461 13.962024688720703 4.7580156326293945 13.907364845275879 4.664259433746338 C13.852705955505371 4.5707526206970215 13.769283294677734 4.481603622436523 13.656850814819336 4.397186279296875 C13.545663833618164 4.312892913818359 13.348067283630371 4.203075408935547 13.06418514251709 4.067733287811279 C12.666874885559082 3.878354072570801 12.381622314453125 3.7169904708862305 12.209673881530762 3.58376407623291 C12.037602424621582 3.450289726257324 11.904874801635742 3.301375389099121 11.81236457824707 3.1367740631103516 C11.719728469848633 2.972296714782715 11.673286437988281 2.791010856628418 11.673286437988281 2.5930395126342773 C11.673286437988281 2.255618095397949 11.801033020019531 1.968001365661621 12.055655479431152 1.7304372787475586 C12.31027889251709 1.4928712844848633 12.631388664245605 1.3740901947021484 13.018987655639648 1.3740901947021484 C13.160554885864258 1.3740901947021484 13.297142028808594 1.3908977508544922 13.430243492126465 1.4242677688598633 C13.530972480773926 1.4495420455932617 13.653489112854004 1.4962329864501953 13.797672271728516 1.5642156600952148 C13.942102432250977 1.6321983337402344 14.043827056884766 1.6660642623901367 14.101226806640625 1.6660642623901367 C14.156882286071777 1.6660642623901367 14.201208114624023 1.6493806838989258 14.233331680297852 1.6158866882324219 C14.265703201293945 1.5823945999145508 14.295087814331055 1.5018367767333984 14.323102951049805 1.3740901947021484 L14.420469284057617 1.3740901947021484 L14.420469284057617 1.3740901947021484 M17.709020614624023 4.496669769287109 L16.188756942749023 4.496669769287109 L15.997634887695312 4.912781238555908 C15.9376220703125 5.052605628967285 15.907365798950195 5.168150424957275 15.907365798950195 5.259291648864746 C15.907365798950195 5.380190372467041 15.956546783447266 5.468966007232666 16.054784774780273 5.526115894317627 C16.113178253173828 5.5601067543029785 16.254621505737305 5.585631847381592 16.481603622436523 5.602440357208252 L16.481603622436523 5.713752269744873 L15.035173416137695 5.713752269744873 L15.035173416137695 5.602440357208252 C15.191807746887207 5.579156875610352 15.319430351257324 5.515284061431885 15.42040729522705 5.410571098327637 C15.521385192871094 5.305858135223389 15.644649505615234 5.089584827423096 15.792442321777344 4.761626243591309 L17.34756851196289 1.3742141723632812 L17.4083309173584 1.3742141723632812 L18.97690200805664 4.856129169464111 C19.126937866210938 5.1906867027282715 19.24945640563965 5.401357173919678 19.34607696533203 5.48814058303833 C19.419038772583008 5.553757190704346 19.52163314819336 5.591981410980225 19.653738021850586 5.602440357208252 L19.653738021850586 5.713752269744873 L17.55002212524414 5.713752269744873 L17.55002212524414 5.602440357208252 L17.636306762695312 5.602440357208252 C17.805517196655273 5.602440357208252 17.924049377441406 5.579156875610352 17.992530822753906 5.532465934753418 C18.039470672607422 5.49872350692749 18.06300163269043 5.449666976928711 18.06300163269043 5.386042594909668 C18.06300163269043 5.347817897796631 18.056652069091797 5.308722019195557 18.0438289642334 5.268380641937256 C18.039470672607422 5.24920654296875 18.007347106933594 5.169769287109375 17.94733238220215 5.029571056365967 L17.709020614624023 4.496669769287109 L17.709020614624023 4.496669769287109 M17.606426239013672 4.267073631286621 L16.958850860595703 2.8180294036865234 L16.293720245361328 4.267073631286621 L17.606426239013672 4.267073631286621" fill="black" fill-opacity="1.0" filling="0"/>
<path animation_id="7" d="M8.29770278930664 15.867023468017578 C9.447674751281738 15.867023468017578 7.8900580406188965 11.34196662902832 7.8900580406188965 10.915644645690918 C7.8900580406188965 11.34196662902832 6.332316875457764 15.867023468017578 7.48191499710083 15.867023468017578 C7.6487579345703125 15.867023468017578 7.333748817443848 16.479114532470703 7.333748817443848 16.66463279724121 L7.333748817443848 18.500530242919922 L8.446367263793945 18.500530242919922 L8.446367263793945 16.66463279724121 C8.446367263793945 16.479114532470703 8.130860328674316 15.867023468017578 8.29770278930664 15.867023468017578 M15.270622253417969 15.867023468017578 C14.120650291442871 15.867023468017578 15.678391456604004 11.34196662902832 15.678391456604004 10.915644645690918 C15.678391456604004 11.34196662902832 17.236007690429688 15.867023468017578 16.086410522460938 15.867023468017578 C15.919567108154297 15.867023468017578 16.234451293945312 16.479114532470703 16.234451293945312 16.66463279724121 L16.234451293945312 18.500530242919922 L15.121832847595215 18.500530242919922 L15.121832847595215 16.66463279724121 C15.122082710266113 16.479114532470703 15.43746566772461 15.867023468017578 15.270622253417969 15.867023468017578 L15.270622253417969 15.867023468017578" fill="black" fill-opacity="1.0" filling="0"/></svg>