<?xml version="1.0" encoding="iso-8859-1"?><svg height="200px" viewBox="0.0 0.0 24.0 24.0" width="200px" xmlns="http://www.w3.org/2000/svg"><path animation_id="0" d="M0.0 0.0 L24.0 0.0 L24.0 24.0 L0.0 24.0 L0.0 0.0" fill="black" fill-opacity="1.0" filling="0"/>
<path animation_id="1" d="M2.893482208251953 10.570130348205566 L3.7574548721313477 11.987175941467285 L2.893482208251953 13.4670991897583 L2.0516719818115234 11.974724769592285 L2.893482208251953 10.570130348205566 L2.893482208251953 10.570130348205566" fill="black" fill-opacity="1.0" filling="0"/>
<path animation_id="2" d="M2.0720911026000977 13.461869239807129 L2.8947267532348633 11.975845336914062 L2.8151655197143555 11.838760375976562 L1.9924049377441406 13.324908256530762 L2.0720911026000977 13.461869239807129 M1.917947769165039 13.19193172454834 L2.731743812561035 11.695324897766113 L2.669862747192383 11.568822860717773 L1.847102165222168 13.054970741271973 L1.917947769165039 13.19193172454834 L1.917947769165039 13.19193172454834 M1.789454460144043 12.933698654174805 L2.612089157104492 11.447674751281738 L2.532528877258301 11.321173667907715 L1.709768295288086 12.796737670898438 L1.789454460144043 12.933698654174805 L1.789454460144043 12.933698654174805 M1.6353111267089844 12.643465995788574 L2.45794677734375 11.178484916687012 L2.378384590148926 11.030941009521484 L1.5556249618530273 12.506381034851074 L1.6353111267089844 12.643465995788574 L1.6353111267089844 12.643465995788574 M1.4678459167480469 12.396438598632812 L2.2993221282958984 10.920873641967773 L2.219758987426758 10.783913612365723 L1.3881597518920898 12.269937515258789 L1.4678459167480469 12.396438598632812 L1.4678459167480469 12.396438598632812 M1.3277721405029297 12.113801956176758 L2.141568183898926 10.669862747192383 L2.070845603942871 10.532901763916016 L1.2038850784301758 11.976716995239258 L1.3277721405029297 12.113801956176758 L1.3277721405029297 12.113801956176758 M0.3989295959472656 12.020792961120605 L1.2632761001586914 10.645459175109863 L1.217331886291504 10.563904762268066 L0.3528604507446289 11.939363479614258 L0.3989295959472656 12.020792961120605 L0.3989295959472656 12.020792961120605 M0.5370111465454102 12.25599193572998 L1.4013566970825195 10.860238075256348 L1.3554134368896484 10.778684616088867 L0.49106693267822266 12.164228439331055 L0.5370111465454102 12.25599193572998 L0.5370111465454102 12.25599193572998 M0.6826868057250977 12.505510330200195 L1.5470342636108398 11.099546432495117 L1.501089096069336 11.007906913757324 L0.6367425918579102 12.413870811462402 L0.6826868057250977 12.505510330200195 L0.6826868057250977 12.505510330200195" fill="black" fill-opacity="1.0" filling="0"/>
<path animation_id="3" d="M0.8191499710083008 12.722779273986816 L1.2696256637573242 12.050301551818848 L1.214468002319336 11.968873023986816 L0.7822942733764648 12.651310920715332 L0.8191499710083008 12.722779273986816 M0.9842491149902344 12.978273391723633 L1.4072093963623047 12.31600570678711 L1.3520517349243164 12.224367141723633 L0.9290914535522461 12.896719932556152 L0.9842491149902344 12.978273391723633 L0.9842491149902344 12.978273391723633 M1.1098804473876953 13.216336250305176 L1.569570541381836 12.53389835357666 L1.5145368576049805 12.432048797607422 L1.0638113021850586 13.134905815124512 L1.1098804473876953 13.216336250305176 M1.2452220916748047 13.452157020568848 L1.6773958206176758 12.779804229736328 L1.6314506530761719 12.688040733337402 L1.1808509826660156 13.360518455505371 L1.2452220916748047 13.452157020568848 M13.993027687072754 13.313453674316406 L13.993027687072754 11.023344993591309 L14.460437774658203 11.023344993591309 L14.460437774658203 13.313453674316406 L13.993027687072754 13.313453674316406 M12.094005584716797 13.313453674316406 L12.094005584716797 11.023344993591309 L13.697068214416504 11.023344993591309 L13.697068214416504 11.433730125427246 L12.561663627624512 11.433730125427246 L12.561663627624512 12.378385543823242 L12.771462440490723 11.977463722229004 L13.554006576538086 11.977463722229004 L13.554006576538086 12.359334945678711 L12.561663627624512 12.359334945678711 L12.561663627624512 13.313453674316406 L12.094005584716797 13.313453674316406 M11.177987098693848 13.313453674316406 L11.177987098693848 11.023344993591309 L11.645645141601562 11.023344993591309 L11.645645141601562 13.313453674316406 L11.177987098693848 13.313453674316406 M9.108261108398438 11.624478340148926 C9.108261108398438 11.261905670166016 9.42314624786377 11.023344993591309 9.718981742858887 11.023344993591309 L10.74942398071289 11.023344993591309 L10.74942398071289 11.386042594909668 L9.919318199157715 11.386042594909668 C9.671170234680176 11.424142837524414 9.614019393920898 11.510054588317871 9.57579517364502 11.672290802001953 L9.57579517364502 12.626533508300781 C9.57579517364502 12.87468147277832 9.728445053100586 12.893731117248535 9.814355850219727 12.893731117248535 L10.739961624145508 12.893731117248535 L10.5014009475708 13.313577651977539 C10.215152740478516 13.304115295410156 9.957542419433594 13.313577651977539 9.671295166015625 13.313577651977539 C9.299134254455566 13.313577651977539 9.127311706542969 13.036917686462402 9.108386039733887 12.702982902526855 L9.108386039733887 11.624478340148926 L9.108261108398438 11.624478340148926 L9.108261108398438 11.624478340148926 M14.873560905456543 11.23675537109375 C14.873560905456543 10.601381301879883 15.27361011505127 10.54261302947998 15.591484069824219 10.54261302947998 L16.897342681884766 10.54261302947998 L16.897342681884766 10.954492568969727 L15.732553482055664 10.954492568969727 C15.438586235046387 10.989727973937988 15.344207763671875 11.072029113769531 15.356160163879395 11.283944129943848 L15.356160163879395 12.483969688415527 C15.356160163879395 12.483969688415527 15.33262825012207 12.848783493041992 15.697317123413086 12.848783493041992 L16.838573455810547 12.848783493041992 L16.614830017089844 13.2958984375 L15.52076244354248 13.2958984375 C15.061819076538086 13.2958984375 14.897217750549316 13.013509750366211 14.873684883117676 12.601755142211914 L14.873684883117676 11.23675537109375 L14.873560905456543 11.23675537109375 M6.721035957336426 13.317935943603516 L7.522505283355713 11.027828216552734 L8.075950622558594 11.027828216552734 L8.896595001220703 13.317935943603516 L8.362199783325195 13.317935943603516 L8.219137191772461 12.859864234924316 L7.379443645477295 12.859864234924316 L7.217207431793213 13.317935943603516 L6.721035957336426 13.317935943603516 M7.799290180206299 11.552637100219727 L7.446180820465088 12.67857837677002 L7.589366912841797 12.46865463256836 L8.095125198364258 12.46865463256836 L7.799290180206299 11.552637100219727 L7.799290180206299 11.552637100219727 M19.6382999420166 13.298263549804688 L19.6382999420166 11.008155822753906 L20.983875274658203 11.008155822753906 C21.384674072265625 10.97005558013916 21.52785873413086 11.246716499328613 21.508684158325195 11.447052001953125 L21.508684158325195 12.048185348510742 C21.508684158325195 12.258108139038086 21.327524185180664 12.391708374023438 21.127185821533203 12.382245063781738 L21.537445068359375 13.240988731384277 L21.537445068359375 13.298138618469238 L21.02210235595703 13.298138618469238 L20.61184310913086 12.410758018493652 L20.106082916259766 12.410758018493652 L20.106082916259766 13.298138618469238 L19.6382999420166 13.298138618469238 L19.6382999420166 13.298263549804688 L19.6382999420166 13.298263549804688 M20.105833053588867 12.420469284057617 L20.306171417236328 12.019548416137695 L20.69750213623047 12.019548416137695 C20.916889190673828 12.019548416137695 21.03143882751465 12.057772636413574 21.04115104675293 11.704788208007812 C21.050613403320312 11.466227531433105 21.01251220703125 11.418540000915527 20.706966400146484 11.418540000915527 L20.105833053588867 11.418540000915527 L20.105833053588867 12.420469284057617 L20.105833053588867 12.420469284057617 M4.947145938873291 13.317935943603516 L4.947145938873291 10.541244506835938 L6.349872589111328 10.541244506835938 C6.855631351470947 10.522193908691406 6.92236852645874 10.827367782592773 6.912781238555908 11.047002792358398 L6.912781238555908 11.791322708129883 C6.845919609069824 12.106206893920898 6.731370449066162 12.172944068908691 6.464296817779541 12.22063159942627 L5.405092716217041 12.22063159942627 L5.405092716217041 13.317935943603516 L4.947145938873291 13.317935943603516 L4.947145938873291 13.317935943603516 M5.405092716217041 12.201457023620605 L5.662703037261963 11.800785064697266 L6.025275230407715 11.800785064697266 C6.473759651184082 11.800785064697266 6.426072597503662 11.848472595214844 6.435535430908203 11.39998722076416 C6.426072597503662 11.104276657104492 6.51185941696167 11.008777618408203 5.968000888824463 11.027828216552734 L5.405092716217041 11.027828216552734 L5.405092716217041 12.201457023620605 M21.927536010742188 13.298263549804688 L21.927536010742188 10.998568534851074 L23.177488327026367 10.998568534851074 C23.540061950683594 10.960344314575195 23.664073944091797 11.237253189086914 23.64514923095703 11.43746566772461 L23.64514923095703 12.048185348510742 C23.64514923095703 12.258108139038086 23.463985443115234 12.439518928527832 23.282575607299805 12.401294708251953 L22.414119720458984 12.401294708251953 L22.414119720458984 13.298138618469238 L21.927536010742188 13.298138618469238 L21.927536010742188 13.298263549804688 L21.927536010742188 13.298263549804688 M22.41424560546875 12.382245063781738 L22.62441635131836 12.000622749328613 L22.901203155517578 12.000622749328613 C23.225425720214844 12.000622749328613 23.225425720214844 12.029135704040527 23.225425720214844 11.723837852478027 C23.225425720214844 11.48527717590332 23.273361206054688 11.389777183532715 22.87256622314453 11.408951759338379 L22.41436767578125 11.408951759338379 L22.41436767578125 12.382245063781738 L22.41424560546875 12.382245063781738 M17.604806900024414 11.697317123413086 L17.604806900024414 12.651559829711914 C17.623981475830078 12.832845687866211 17.681129455566406 12.909170150756836 17.881591796875 12.899582862854004 L18.50189971923828 12.899582862854004 C18.768972396850586 12.899582862854004 18.740461349487305 12.842308044433594 18.768972396850586 12.661022186279297 L18.768972396850586 11.7163667678833 C18.759510040283203 11.554130554199219 18.664134979248047 11.439705848693848 18.4921875 11.411069869995117 L17.872127532958984 11.411069869995117 C17.766918182373047 11.430243492126465 17.642906188964844 11.468343734741211 17.604806900024414 11.697317123413086 L17.604806900024414 11.697317123413086 M17.16578483581543 11.525618553161621 L17.16578483581543 12.804208755493164 C17.204010009765625 13.214592933654785 17.404346466064453 13.262279510498047 17.614269256591797 13.329141616821289 L18.740461349487305 13.329141616821289 C19.016996383666992 13.281330108642578 19.169645309448242 13.138267517089844 19.217330932617188 12.842432975769043 L19.217330932617188 11.582892417907715 C19.207870483398438 11.23936939239502 18.978771209716797 11.058084487915039 18.64483642578125 11.029446601867676 L17.709766387939453 11.029446601867676 C17.45203399658203 11.019859313964844 17.184959411621094 11.23936939239502 17.16578483581543 11.525618553161621" fill="black" fill-opacity="1.0" filling="0"/></svg>