<?xml version="1.0" encoding="iso-8859-1"?><svg height="200px" viewBox="0.0 0.0 24.0 24.0" width="200px" xmlns="http://www.w3.org/2000/svg"><path animation_id="0" d="M0.0 0.0 L24.0 0.0 L24.0 24.0 L0.0 24.0 L0.0 0.0" fill="black" fill-opacity="1.0" filling="0"/>
<path animation_id="1" d="M11.999876022338867 23.647140502929688 C10.131980895996094 22.73199462890625 8.20506763458252 21.31108856201172 6.674345016479492 19.674283981323242 C5.290543556213379 18.19448471069336 4.210172653198242 16.476871490478516 3.605179786682129 14.43366813659668 C3.3498106002807617 13.570816040039062 3.182842254638672 12.653552055358887 3.1204633712768555 11.678640365600586 C3.8422460556030273 11.270621299743652 5.476561069488525 10.44300651550293 6.062005996704102 8.980887413024902 L7.105273246765137 8.981884002685547 C6.737222194671631 8.777936935424805 5.709892749786377 7.5973358154296875 5.733922481536865 6.145053863525391 C5.764801025390625 4.291726589202881 6.854136943817139 3.720102310180664 6.834962368011475 2.191370964050293 C6.828487873077393 1.681753158569336 6.754777908325195 1.081491470336914 6.406399726867676 0.3528604507446289 C7.14735746383667 0.7033557891845703 7.639420032501221 1.0071592330932617 8.72028923034668 1.0102720260620117 C9.999876022338867 1.0140066146850586 10.383116722106934 0.5056333541870117 11.999876022338867 0.4797353744506836 C13.616510391235352 0.5056333541870117 14.0 1.0141315460205078 15.279586791992188 1.0103960037231445 C16.36033058166504 1.007284164428711 16.85251808166504 0.7034807205200195 17.593475341796875 0.35310935974121094 C17.24497413635254 1.0816164016723633 17.171262741088867 1.6818780899047852 17.165037155151367 2.191495895385742 C17.145614624023438 3.720226287841797 18.235074996948242 4.291851043701172 18.265953063964844 6.145178318023682 C18.289981842041016 7.5974602699279785 17.262529373168945 8.778060913085938 16.894601821899414 8.982132911682129 L17.937870025634766 8.9811372756958 C18.523439407348633 10.443254470825195 20.157629013061523 11.270747184753418 20.879411697387695 11.678890228271484 C20.817157745361328 12.653800964355469 20.650066375732422 13.571063995361328 20.394695281982422 14.433792114257812 C19.789703369140625 16.47699737548828 18.709457397460938 18.194610595703125 17.325531005859375 19.674407958984375 C15.794684410095215 21.31108856201172 13.868019104003906 22.73199462890625 11.999876022338867 23.647140502929688 L11.999876022338867 23.647140502929688" fill="black" fill-opacity="1.0" filling="0"/>
<path animation_id="2" d="M11.999876022338867 23.148601531982422 C9.54068374633789 21.827430725097656 7.127809524536133 19.92765998840332 5.5218825340271 17.48727035522461 C4.45819616317749 15.87088394165039 3.748366355895996 14.017058372497559 3.6136465072631836 11.93712329864502 C4.283384323120117 11.549524307250977 5.717612266540527 10.808815002441406 6.343522548675537 9.409574508666992 L7.19342565536499 9.407085418701172 L7.526614189147949 9.115358352661133 L7.5242486000061035 8.747058868408203 C7.151839733123779 8.542986869812012 6.163730621337891 7.457635879516602 6.1860175132751465 6.078067779541016 C6.210297107696533 4.5802154541015625 7.291165828704834 3.830044746398926 7.2860612869262695 2.2200088500976562 C7.2854390144348145 2.0334930419921875 7.2792134284973145 1.5754222869873047 7.18284273147583 1.1947956085205078 C7.699807167053223 1.398493766784668 8.309406280517578 1.4641103744506836 8.782793045043945 1.4637365341186523 C9.925293922424316 1.4627408981323242 10.868704795837402 0.9354419708251953 11.999876022338867 0.9293403625488281 C13.131046295166016 0.9364385604858398 14.074457168579102 1.4637365341186523 15.217082977294922 1.4647331237792969 C15.690343856811523 1.4651060104370117 16.299943923950195 1.399489402770996 16.816783905029297 1.195791244506836 C16.720539093017578 1.576542854309082 16.71443748474121 2.034489631652832 16.71368980407715 2.2210044860839844 C16.708585739135742 3.8311643600463867 17.78957748413086 4.58133602142334 17.813858032226562 6.079063892364502 C17.836021423339844 7.45863151550293 16.847911834716797 8.543983459472656 16.475627899169922 8.748054504394531 L16.47313690185547 9.116354942321777 L16.806324005126953 9.4080810546875 L17.65622901916504 9.410447120666504 C18.28213882446289 10.809686660766602 19.71624183654785 11.550395011901855 20.386228561401367 11.938117980957031 C20.251510620117188 14.018054008483887 19.54167938232422 15.871755599975586 18.47799301147461 17.48801612854004 C16.872066497802734 19.92865753173828 14.459192276000977 21.82830047607422 11.999876022338867 23.148601531982422 L11.999876022338867 23.148601531982422" fill="black" fill-opacity="1.0" filling="0"/>
<path animation_id="3" d="M11.999876022338867 22.41611099243164 C9.774761199951172 21.258544921875 7.494863986968994 19.388282775878906 5.982568740844727 17.037166595458984 C5.060324668884277 15.603312492370605 4.423333168029785 13.990537643432617 4.258358001708984 12.251510620117188 C4.660524368286133 12.030505180358887 5.802029609680176 11.45228099822998 6.598518371582031 10.198718070983887 L11.999876022338867 11.42663288116455 L17.401107788085938 10.198095321655273 C18.197721481323242 11.451534271240234 19.33922576904297 12.029882431030273 19.741518020629883 12.250762939453125 C19.306108474731445 16.8414363861084 15.582145690917969 20.55182647705078 11.999876022338867 22.41611099243164 L11.999876022338867 22.41611099243164" fill="black" fill-opacity="1.0" filling="0"/>
<path animation_id="4" d="M10.501898765563965 20.20220375061035 L8.501524925231934 18.247026443481445 L8.503268241882324 13.597335815429688 L7.699931621551514 13.597335815429688 L7.699931621551514 12.035112380981445 L11.462740898132324 12.034364700317383 L11.463363647460938 13.597335815429688 L10.730499267578125 13.597335815429688 L10.729876518249512 17.53956413269043 C10.729751586914062 18.101600646972656 11.06592845916748 18.431053161621094 11.65174674987793 18.424951553344727 L12.348004341125488 18.4239559173584 C12.933822631835938 18.43030548095703 13.270124435424805 18.100479125976562 13.269875526428223 17.53856658935547 L13.26912784576416 13.596339225769043 L12.53638744354248 13.596339225769043 L12.537135124206543 12.033493995666504 L16.299694061279297 12.034364700317383 L16.299694061279297 13.596339225769043 L15.496482849121094 13.596339225769043 L15.498226165771484 18.246280670166016 L13.498102188110352 20.201457977294922 L10.501898765563965 20.20220375061035" fill="black" fill-opacity="1.0" filling="0"/>
<path animation_id="5" d="M11.999876022338867 3.753096580505371 C10.641100883483887 2.7933759689331055 9.585009574890137 2.4681568145751953 8.643964767456055 2.346261978149414 C9.395008087158203 1.8226985931396484 10.79736042022705 1.2767229080200195 11.999876022338867 1.3338727951049805 C13.202391624450684 1.2768468856811523 14.604743957519531 1.8226985931396484 15.35578727722168 2.346261978149414 C14.414867401123047 2.4681568145751953 13.35877513885498 2.7933759689331055 11.999876022338867 3.753096580505371" fill="black" fill-opacity="1.0" filling="0"/>
<path animation_id="6" d="M11.999876022338867 10.120400428771973 L9.779742240905762 9.617132186889648 C10.150283813476562 9.384424209594727 10.870572090148926 8.390338897705078 10.818278312683105 7.362759113311768 C10.297453880310059 7.736786842346191 9.64552116394043 7.9600324630737305 9.007160186767578 7.962771415710449 C7.943348407745361 7.967378616333008 6.965822219848633 7.389778137207031 6.9649505615234375 6.008466720581055 C6.964078903198242 4.791259288787842 7.9602813720703125 4.480359077453613 7.937745094299316 3.4321117401123047 C7.934010028839111 3.2605371475219727 7.9027581214904785 3.0689163208007812 7.835024356842041 2.8500280380249023 C9.771774291992188 2.8003482818603516 11.072900772094727 3.763681411743164 11.999876022338867 4.764489650726318 C12.926850318908691 3.763681411743164 14.228102684020996 2.8003482818603516 16.164852142333984 2.8500280380249023 C16.096994400024414 3.0689163208007812 16.065866470336914 3.2605371475219727 16.062255859375 3.4321117401123047 C16.039844512939453 4.480359077453613 17.03592300415039 4.791259288787842 17.035173416137695 6.008466720581055 C17.03392791748047 7.389902591705322 16.056652069091797 7.967378616333008 14.992716789245605 7.962771415710449 C14.354354858398438 7.9600324630737305 13.70267105102539 7.736786842346191 13.181722640991211 7.362759113311768 C13.129427909851074 8.390462875366211 13.849468231201172 9.384424209594727 14.220132827758789 9.617132186889648 L11.999876022338867 10.120400428771973 L11.999876022338867 10.120400428771973" fill="black" fill-opacity="1.0" filling="0"/>
<path animation_id="7" d="M9.473821640014648 4.450102806091309 C10.188756942749023 4.450102806091309 10.771711349487305 5.017493724822998 10.771711349487305 5.71312952041626 C10.771711349487305 6.40876579284668 10.18863296508789 6.976156234741211 9.473821640014648 6.976156234741211 C8.759011268615723 6.976156234741211 8.175932884216309 6.40876579284668 8.175932884216309 5.71312952041626 C8.175932884216309 5.017493724822998 8.759011268615723 4.450102806091309 9.473821640014648 4.450102806091309 L9.473821640014648 4.450102806091309 M14.526054382324219 4.450102806091309 C13.811367988586426 4.450102806091309 13.228163719177246 5.017493724822998 13.228163719177246 5.71312952041626 C13.228163719177246 6.40876579284668 13.811367988586426 6.976156234741211 14.526054382324219 6.976156234741211 C15.240988731384277 6.976156234741211 15.823943138122559 6.40876579284668 15.823943138122559 5.71312952041626 C15.823943138122559 5.017493724822998 15.240988731384277 4.450102806091309 14.526054382324219 4.450102806091309" fill="black" fill-opacity="1.0" filling="0"/>
<path animation_id="8" d="M11.999876022338867 10.40739631652832 L7.6612091064453125 9.419535636901855 L7.379817008972168 9.684617042541504 L6.9868645668029785 9.684617042541504 L6.8279900550842285 9.924671173095703 L11.999876022338867 11.10228443145752 L17.171886444091797 9.923550605773926 L17.013137817382812 9.683372497558594 L16.620058059692383 9.683372497558594 L16.338790893554688 9.418415069580078 L11.999876022338867 10.40739631652832" fill="black" fill-opacity="1.0" filling="0"/></svg>