<?xml version="1.0" encoding="iso-8859-1"?><svg height="200px" viewBox="0.0 0.0 24.0 24.0" width="200px" xmlns="http://www.w3.org/2000/svg"><path animation_id="0" d="M0.0 0.0 L24.0 0.0 L24.0 24.0 L0.0 24.0 L0.0 0.0" fill="black" fill-opacity="1.0" filling="0"/>
<path animation_id="1" d="M1.7646760940551758 14.271183013916016 L1.7646760940551758 10.59553050994873 L2.855381965637207 10.59553050994873 L3.871506690979004 12.299072265625 C3.901388168334961 12.358713150024414 3.9312705993652344 12.418477058410645 3.961153030395508 12.508249282836914 C4.005977153778076 12.597771644592285 4.035859107971191 12.702359199523926 4.080682277679443 12.822013854980469 C4.065741062164307 12.762248992919922 4.065741062164307 12.687542915344238 4.050800323486328 12.612837791442871 L4.050800323486328 10.595654487609863 L5.141505241394043 10.595654487609863 L5.141505241394043 14.271306991577148 L4.050800323486328 14.271306991577148 L3.0496177673339844 12.568014144897461 C3.004794120788574 12.523065567016602 2.9749107360839844 12.448359489440918 2.9450292587280273 12.358588218688965 C2.900205612182617 12.269065856933594 2.8703231811523438 12.164477348327637 2.8254995346069336 12.04482364654541 C2.8404407501220703 12.119528770446777 2.855381965637207 12.17929458618164 2.855381965637207 12.253999710083008 L2.855381965637207 14.271183013916016 L1.7646760940551758 14.271183013916016 L1.7646760940551758 14.271183013916016 M6.187511920928955 11.701176643371582 L7.128805637359619 11.701176643371582 C7.113863945007324 11.536823272705078 7.069165229797363 11.40235424041748 6.994334697723389 11.32764720916748 C6.904688358306885 11.238000869750977 6.800099849700928 11.208118438720703 6.650688171386719 11.208118438720703 C6.50127649307251 11.208118438720703 6.396687984466553 11.252941131591797 6.321982383728027 11.32764720916748 C6.247276306152344 11.4172945022583 6.202452659606934 11.551765441894531 6.187511920928955 11.701176643371582 L6.187511920928955 11.701176643371582 M7.069165229797363 12.552824020385742 L8.070223808288574 12.552824020385742 C7.995518207550049 12.85164737701416 7.831164836883545 13.060823440551758 7.592106342315674 13.225175857543945 C7.3530473709106445 13.374463081359863 7.02421760559082 13.449418067932129 6.620805740356445 13.449418067932129 C6.157629489898682 13.449418067932129 5.799041271209717 13.314948081970215 5.544917106628418 13.060823440551758 C5.275976181030273 12.806947708129883 5.141505241394043 12.463300704956055 5.141505241394043 12.029882431030273 C5.141505241394043 11.566706657409668 5.275976181030273 11.22305965423584 5.544917106628418 10.953993797302246 C5.8139824867248535 10.699993133544922 6.187511920928955 10.565524101257324 6.650688171386719 10.565524101257324 C7.128805637359619 10.565524101257324 7.487518310546875 10.699993133544922 7.75633430480957 10.98387622833252 C8.025400161743164 11.2677583694458 8.159746170043945 11.671294212341309 8.159746170043945 12.17929458618164 L8.159746170043945 12.239058494567871 L6.187511920928955 12.239058494567871 C6.202452659606934 12.418228149414062 6.247276306152344 12.537881851196289 6.321982383728027 12.642470359802246 C6.4116291999816895 12.731993675231934 6.531158924102783 12.77694034576416 6.680570125579834 12.77694034576416 C6.770217418670654 12.77694034576416 6.859864711761475 12.76187515258789 6.9345703125 12.71717643737793 C6.99445915222168 12.672477722167969 7.03928279876709 12.62752914428711 7.069165229797363 12.552824020385742 L7.069165229797363 12.552824020385742" fill="black" fill-opacity="1.0" filling="0"/>
<path animation_id="2" d="M8.996576309204102 9.7288179397583 L8.996576309204102 10.714935302734375 L9.53445816040039 10.714935302734375 L9.53445816040039 11.461993217468262 L8.996576309204102 11.461993217468262 L8.996576309204102 12.388346672058105 C8.996576309204102 12.508000373840332 9.011517524719238 12.567765235900879 9.026458740234375 12.612587928771973 C9.056341171264648 12.67235279083252 9.116106033325195 12.702110290527344 9.190811157226562 12.702110290527344 C9.265517234802246 12.702110290527344 9.370104789733887 12.672477722167969 9.504575729370117 12.627405166625977 L9.579280853271484 13.329764366149902 C9.325282096862793 13.374463081359863 9.101163864135742 13.40446949005127 8.891863822937012 13.40446949005127 C8.65280532836914 13.40446949005127 8.458569526672363 13.374588012695312 8.353981018066406 13.314948081970215 C8.234452247619629 13.239992141723633 8.144804954528809 13.150594711303711 8.085040092468262 13.016124725341797 C8.040216445922852 12.881653785705566 8.010334014892578 12.672477722167969 8.010334014892578 12.373653411865234 L8.010334014892578 11.462118148803711 L7.636805057525635 11.462118148803711 L7.636805057525635 10.715059280395508 L8.010334014892578 10.715059280395508 L8.010334014892578 10.236942291259766 L8.996576309204102 9.7288179397583 L8.996576309204102 9.7288179397583" fill="black" fill-opacity="1.0" filling="0"/>
<path animation_id="3" d="M9.50469970703125 13.449542045593262 L9.50469970703125 9.803524017333984 L12.194235801696777 9.803524017333984 L12.194235801696777 10.730001449584961 L10.655295372009277 10.730001449584961 L10.655295372009277 11.28282356262207 L11.880471229553223 11.28282356262207 L11.880471229553223 12.164477348327637 L10.655295372009277 12.164477348327637 L10.655295372009277 13.449542045593262 L9.50469970703125 13.449542045593262" fill="black" fill-opacity="1.0" filling="0"/>
<path animation_id="4" d="M12.791881561279297 12.04482364654541 C12.791881561279297 12.298948287963867 12.836581230163574 12.478117942810059 12.89647102355957 12.5827054977417 C12.971176147460938 12.702110290527344 13.075888633728027 12.747058868408203 13.225300788879395 12.747058868408203 C13.389654159545898 12.747058868408203 13.494241714477539 12.702110290527344 13.568946838378906 12.5827054977417 C13.628711700439453 12.478117942810059 13.65871810913086 12.298948287963867 13.65871810913086 12.04482364654541 C13.65871810913086 11.805765151977539 13.628836631774902 11.626470565795898 13.568946838378906 11.521883010864258 C13.494241714477539 11.4172945022583 13.389778137207031 11.35753059387207 13.225300788879395 11.35753059387207 C13.07601261138916 11.35753059387207 12.971176147460938 11.4172945022583 12.89647102355957 11.521883010864258 C12.836705207824707 11.626470565795898 12.791881561279297 11.805765151977539 12.791881561279297 12.04482364654541 M11.746000289916992 12.04482364654541 C11.746000289916992 11.611530303955078 11.86552906036377 11.252941131591797 12.134594917297363 10.998817443847656 C12.403536796569824 10.744816780090332 12.76200008392334 10.610347747802734 13.225300788879395 10.610347747802734 C13.68860149383545 10.610347747802734 14.06213092803955 10.744816780090332 14.31600570678711 10.998817443847656 C14.58494758605957 11.252941131591797 14.719417572021484 11.611530303955078 14.719417572021484 12.04482364654541 C14.719417572021484 12.493058204650879 14.58494758605957 12.85164737701416 14.31600570678711 13.105772018432617 C14.06213092803955 13.35964584350586 13.68860149383545 13.49411678314209 13.225300788879395 13.49411678314209 C12.76200008392334 13.49411678314209 12.403536796569824 13.35964584350586 12.134594917297363 13.105772018432617 C11.86552906036377 12.851771354675293 11.746000289916992 12.493058204650879 11.746000289916992 12.04482364654541" fill="black" fill-opacity="1.0" filling="0"/>
<path animation_id="5" d="M14.554940223693848 13.40446949005127 L14.554940223693848 10.715059280395508 L15.526240348815918 10.715059280395508 L15.526240348815918 11.193177223205566 C15.586005210876465 10.998817443847656 15.690593719482422 10.864347457885742 15.825063705444336 10.774824142456055 C15.944717407226562 10.68517780303955 16.123886108398438 10.64035415649414 16.333065032958984 10.64035415649414 L16.437652587890625 10.64035415649414 L16.437652587890625 11.701300621032715 L16.318246841430664 11.701300621032715 C16.288366317749023 11.686360359191895 16.25848388671875 11.686360359191895 16.213659286499023 11.686360359191895 C16.00423240661621 11.686360359191895 15.85494613647461 11.746124267578125 15.750358581542969 11.835771560668945 C15.6605863571167 11.940360069274902 15.600821495056152 12.089771270751953 15.600821495056152 12.299072265625 L15.600821495056152 13.404594421386719 L14.554940223693848 13.404594421386719 L14.554940223693848 13.40446949005127" fill="black" fill-opacity="1.0" filling="0"/>
<path animation_id="6" d="M18.17107582092285 12.343771934509277 L19.21695899963379 12.343771934509277 C19.201892852783203 12.702235221862793 19.06742286682129 12.986242294311523 18.813547134399414 13.195417404174805 C18.55942153930664 13.389778137207031 18.215776443481445 13.494241714477539 17.79754638671875 13.494241714477539 C17.319181442260742 13.494241714477539 16.960718154907227 13.359771728515625 16.691776275634766 13.10589599609375 C16.40802001953125 12.851771354675293 16.273300170898438 12.493058204650879 16.273300170898438 12.044947624206543 C16.273300170898438 11.611654281616211 16.40802001953125 11.253066062927246 16.67671012878418 10.998941421508789 C16.94565200805664 10.744941711425781 17.319181442260742 10.610471725463867 17.782482147216797 10.610471725463867 C18.200958251953125 10.610471725463867 18.544605255126953 10.715059280395508 18.798480987548828 10.924360275268555 C19.06742286682129 11.118596076965332 19.201892852783203 11.387537002563477 19.21695899963379 11.731184005737305 L18.17107582092285 11.731184005737305 C18.1560115814209 11.611654281616211 18.111312866210938 11.507065773010254 18.051422119140625 11.447301864624023 C17.991533279418945 11.387537002563477 17.902135848999023 11.357654571533203 17.782482147216797 11.357654571533203 C17.633193969726562 11.357654571533203 17.51354217529297 11.417418479919434 17.43883514404297 11.52200698852539 C17.379070281982422 11.641536712646484 17.334247589111328 11.805889129638672 17.334247589111328 12.044947624206543 C17.334247589111328 12.299072265625 17.378944396972656 12.463425636291504 17.43883514404297 12.582830429077148 C17.51354217529297 12.702235221862793 17.618003845214844 12.747182846069336 17.76766586303711 12.747182846069336 C17.887069702148438 12.747182846069336 17.991657257080078 12.717300415039062 18.051422119140625 12.642595291137695 C18.126129150390625 12.582830429077148 18.1560115814209 12.478241920471191 18.17107582092285 12.343771934509277 L18.17107582092285 12.343771934509277" fill="black" fill-opacity="1.0" filling="0"/>
<path animation_id="7" d="M20.26296615600586 11.746000289916992 L21.204381942749023 11.746000289916992 C21.189319610595703 11.581646919250488 21.14461898803711 11.462118148803711 21.054847717285156 11.37247085571289 C20.980140686035156 11.297764778137207 20.875675201416016 11.252941131591797 20.72626495361328 11.252941131591797 C20.57672882080078 11.252941131591797 20.47214126586914 11.297764778137207 20.397436141967773 11.387412071228027 C20.307788848876953 11.477059364318848 20.277780532836914 11.596589088439941 20.26296615600586 11.746000289916992 M21.144495010375977 12.597646713256836 L22.14567756652832 12.597646713256836 C22.07097053527832 12.89647102355957 21.9066162109375 13.120712280273438 21.667308807373047 13.270000457763672 C21.413433074951172 13.419535636901855 21.09967041015625 13.494241714477539 20.696258544921875 13.494241714477539 C20.232959747314453 13.494241714477539 19.874244689941406 13.359771728515625 19.62036895751953 13.10589599609375 C19.351428985595703 12.851771354675293 19.21695899963379 12.508124351501465 19.21695899963379 12.074830055236816 C19.21695899963379 11.626595497131348 19.351428985595703 11.268007278442383 19.62036895751953 10.998941421508789 C19.889310836791992 10.744941711425781 20.262840270996094 10.610471725463867 20.72614288330078 10.610471725463867 C21.20425796508789 10.610471725463867 21.562721252441406 10.759882926940918 21.831663131713867 11.0437650680542 C22.100605010986328 11.32764720916748 22.23507308959961 11.716117858886719 22.23507308959961 12.22411823272705 L22.23507308959961 12.283882141113281 L20.262840270996094 12.283882141113281 C20.262840270996094 12.463300704956055 20.307540893554688 12.597646713256836 20.39731216430664 12.687294006347656 C20.486831665039062 12.777066230773926 20.591670989990234 12.82176399230957 20.756023406982422 12.82176399230957 C20.84554672241211 12.82176399230957 20.93519401550293 12.806947708129883 21.009899139404297 12.76200008392334 C21.069913864135742 12.732117652893066 21.114612579345703 12.672477722167969 21.144495010375977 12.597646713256836 L21.144495010375977 12.597646713256836" fill="black" fill-opacity="1.0" filling="0"/></svg>