<?xml version="1.0" encoding="iso-8859-1"?><svg height="200px" viewBox="0.0 0.0 24.0 24.0" width="200px" xmlns="http://www.w3.org/2000/svg"><path animation_id="0" d="M9.612264633178711 8.741077423095703 L10.934133529663086 8.741077423095703 L10.934133529663086 11.245619773864746 L10.962361335754395 11.245619773864746 C11.264113426208496 10.756976127624512 11.79364013671875 10.456197738647461 12.367941856384277 10.4445161819458 C13.772549629211426 10.4445161819458 14.12686538696289 11.235885620117188 14.12686538696289 12.426346778869629 L14.12686538696289 15.38546371459961 L12.804996490478516 15.38546371459961 L12.804996490478516 12.669694900512695 C12.804996490478516 11.878325462341309 12.573328018188477 11.487021446228027 11.957170486450195 11.487021446228027 C11.24172592163086 11.487021446228027 10.934133529663086 11.887085914611816 10.934133529663086 12.864373207092285 L10.934133529663086 15.38643741607666 L9.612264633178711 15.38643741607666 L9.612264633178711 8.741077423095703 M15.852691650390625 9.830305099487305 L14.531797409057617 9.830305099487305 L14.531797409057617 8.742050170898438 L15.85171890258789 8.742050170898438 L15.852691650390625 9.830305099487305 M14.531797409057617 10.574951171875 L15.85171890258789 10.574951171875 L15.85171890258789 15.38643741607666 L14.530823707580566 15.38643741607666 L14.531797409057617 10.574951171875 M16.25859832763672 10.574951171875 L17.515249252319336 10.574951171875 L17.515249252319336 11.468526840209961 L17.53277015686035 11.468526840209961 C17.775144577026367 10.863076210021973 18.426345825195312 10.4445161819458 19.069759368896484 10.4445161819458 C19.1622314453125 10.4445161819458 19.274171829223633 10.463010787963867 19.356910705566406 10.491239547729492 L19.356910705566406 11.720635414123535 C19.201168060302734 11.68948745727539 19.042505264282227 11.67391300201416 18.88286781311035 11.67391300201416 C17.915313720703125 11.67391300201416 17.580467224121094 12.37183666229248 17.580467224121094 13.21868896484375 L17.580467224121094 15.38643741607666 L16.25762367248535 15.38643741607666 L16.25762367248535 10.574951171875 L16.25859832763672 10.574951171875 M20.521087646484375 13.301427841186523 C20.55807876586914 14.139519691467285 20.967878341674805 14.521089553833008 21.70376205444336 14.521089553833008 C22.234262466430664 14.521089553833008 22.661582946777344 14.195976257324219 22.74626922607422 13.897144317626953 L23.910446166992188 13.897144317626953 C23.53860855102539 15.033095359802246 22.74626922607422 15.51687240600586 21.65801239013672 15.51687240600586 C20.141464233398438 15.51687240600586 19.201168060302734 14.474367141723633 19.201168060302734 12.986047744750977 C19.201168060302734 11.543478012084961 20.196949005126953 10.4445161819458 21.65801239013672 10.4445161819458 C23.296236038208008 10.4445161819458 24.087604522705078 11.821868896484375 23.994159698486328 13.301427841186523 L20.521087646484375 13.301427841186523 M22.67131805419922 12.465282440185547 C22.549644470214844 11.7946138381958 22.261516571044922 11.440298080444336 21.619077682495117 11.440298080444336 C20.78098487854004 11.440298080444336 20.53958511352539 12.091499328613281 20.521087646484375 12.464308738708496 L22.67131805419922 12.464308738708496 L22.67131805419922 12.465282440185547 M9.26962947845459 8.72939682006836 C9.00389289855957 8.412070274353027 8.25827407836914 8.354640007019043 7.175859451293945 8.6447114944458 C6.92277717590332 8.606748580932617 6.666774749755859 8.586307525634766 6.41077184677124 8.58338737487793 C5.380921363830566 8.58436107635498 4.291693687438965 9.063270568847656 4.001621723175049 10.05807876586914 C3.8741073608398438 10.139843940734863 3.7475662231445312 10.222582817077637 3.6200523376464844 10.311161994934082 C0.05937671661376953 12.75730037689209 -0.24918842315673828 14.336145401000977 0.11972808837890625 14.872485160827637 C0.5431547164916992 15.489616394042969 1.9399747848510742 15.475015640258789 3.5801429748535156 14.85009765625 L3.553860664367676 14.817975044250488 C2.264113426208496 15.224853515625 1.1943540573120117 15.17618465423584 0.8663206100463867 14.701168060302734 C0.5577554702758789 14.252433776855469 0.7096042633056641 12.708630561828613 3.8059701919555664 10.580791473388672 C4.902011394500732 9.827384948730469 6.11972713470459 9.245295524597168 7.126216411590576 8.958144187927246 C6.150876045227051 9.337767601013184 4.990590572357178 10.029850959777832 3.96755313873291 10.881570816040039 L3.948084831237793 10.898118019104004 C4.098961353302002 11.905580520629883 5.007138252258301 12.244321823120117 5.908500671386719 12.482803344726562 C6.885788440704346 12.743673324584961 7.881570339202881 12.864373207092285 7.881570339202881 13.580791473388672 C7.881570339202881 14.260220527648926 7.099935054779053 14.409149169921875 6.587929725646973 14.409149169921875 C5.805321216583252 14.409149169921875 5.1161580085754395 14.064568519592285 5.1161580085754395 13.180727005004883 L3.7027902603149414 13.180727005004883 C3.684295654296875 14.818948745727539 5.060675144195557 15.544127464294434 6.531472682952881 15.544127464294434 C8.337118148803711 15.544127464294434 9.29591178894043 14.632057189941406 9.29591178894043 13.413368225097656 C9.29591178894043 11.905580520629883 7.80564546585083 11.59798812866211 7.322842121124268 11.477287292480469 C5.656391620635986 11.049967765808105 5.340038299560547 10.983777046203613 5.340038299560547 10.472744941711426 C5.340038299560547 9.914016723632812 5.880271911621094 9.719338417053223 6.345554828643799 9.719338417053223 C7.043477535247803 9.719338417053223 7.610966682434082 9.923750877380371 7.657689571380615 10.723880767822266 L9.073003768920898 10.723880767822266 C9.073003768920898 9.717391967773438 8.525957107543945 9.110967636108398 7.757948875427246 8.812135696411133 C8.532770156860352 8.640817642211914 8.98442554473877 8.717716217041016 9.192731857299805 9.020441055297852 C9.30077838897705 9.178131103515625 9.31537914276123 9.363075256347656 9.213172912597656 9.59182357788086 L9.241401672363281 9.620052337646484 C9.41563892364502 9.307592391967773 9.482803344726562 8.98539924621582 9.26962947845459 8.72939682006836" fill="black" fill-opacity="1.0" filling="0"/></svg>