<?xml version="1.0" encoding="iso-8859-1"?><svg height="200px" viewBox="0.0 0.0 24.0 24.0" width="200px" xmlns="http://www.w3.org/2000/svg"><path animation_id="0" d="M0.0 0.0 L24.0 0.0 L24.0 24.0 L0.0 24.0 L0.0 0.0" fill="black" fill-opacity="1.0" filling="0"/>
<path animation_id="1" d="M0.3528604507446289 8.858120918273926 L2.389092445373535 8.858120918273926 C3.370105743408203 8.858120918273926 4.165349006652832 9.63431453704834 4.165349006652832 10.591919898986816 C4.165349006652832 11.549524307250977 3.370105743408203 12.325468063354492 2.389092445373535 12.325468063354492 L1.8876924514770508 12.325468063354492 L4.615950107574463 15.124322891235352 L3.537446975708008 15.124322891235352 L0.3528604507446289 11.716615676879883 L2.3229780197143555 11.716615676879883 C2.9360647201538086 11.716615676879883 3.433107376098633 11.240614891052246 3.433107376098633 10.653428077697754 C3.433107376098633 10.066364288330078 2.9360647201538086 9.590238571166992 2.3229780197143555 9.590238571166992 L0.3528604507446289 9.590238571166992 L0.3528604507446289 8.858120918273926 M5.41866397857666 8.858120918273926 L6.20369815826416 8.858120918273926 L6.20369815826416 15.124322891235352 L5.41866397857666 15.124322891235352 L5.41866397857666 8.858120918273926 M10.18514633178711 15.124322891235352 L9.473199844360352 15.124322891235352 L7.016870975494385 8.858120918273926 L7.801905155181885 8.858120918273926 C7.801905155181885 8.858120918273926 9.709643363952637 13.79381275177002 9.8753662109375 14.20556640625 L11.8783540725708 8.858120918273926 L12.6633882522583 8.858120918273926 L10.18514633178711 15.124322891235352 L10.18514633178711 15.124322891235352 M16.856252670288086 8.858120918273926 L16.856252670288086 9.590363502502441 L14.314512252807617 9.590363502502441 L14.314512252807617 11.593351364135742 L16.609600067138672 11.593351364135742 L16.609600067138672 12.255245208740234 L14.314512252807617 12.255245208740234 L14.314512252807617 14.392081260681152 L16.856252670288086 14.392081260681152 L16.856252670288086 15.124322891235352 L13.564714431762695 15.124322891235352 L13.564714431762695 8.858120918273926 L16.856252670288086 8.858120918273926 L16.856252670288086 8.858120918273926 M19.778125762939453 8.75253677368164 C20.820144653320312 8.75253677368164 21.41156768798828 9.32640266418457 21.41156768798828 9.32640266418457 L21.048744201660156 9.90014362335205 C21.048744201660156 9.90014362335205 20.644088745117188 9.449542045593262 19.742887496948242 9.449542045593262 C18.841686248779297 9.449542045593262 18.577600479125977 9.977588653564453 18.577600479125977 10.375397682189941 C18.577600479125977 11.920811653137207 21.728321075439453 11.160430908203125 21.728321075439453 13.367490768432617 C21.728321075439453 14.60312557220459 20.679203033447266 15.229783058166504 19.654983520507812 15.229783058166504 C18.50737762451172 15.229783058166504 17.70466423034668 14.51534652709961 17.70466423034668 14.51534652709961 L18.092012405395508 13.958911895751953 C18.092012405395508 13.958911895751953 18.90518569946289 14.585569381713867 19.637428283691406 14.585569381713867 C20.369421005249023 14.585569381713867 20.97852325439453 14.152400016784668 20.97852325439453 13.45551872253418 C20.97852325439453 11.698935508728027 17.845359802246094 12.741082191467285 17.845359802246094 10.445744514465332 C17.84523582458496 9.245346069335938 18.90481185913086 8.75253677368164 19.778125762939453 8.75253677368164 L19.778125762939453 8.75253677368164 M22.56104278564453 14.71717643737793 C22.56104278564453 15.039656639099121 22.817157745361328 15.247587203979492 23.104026794433594 15.247587203979492 C23.390899658203125 15.247587203979492 23.647014617919922 15.039656639099121 23.647014617919922 14.71717643737793 C23.647014617919922 14.396190643310547 23.390899658203125 14.189752578735352 23.104026794433594 14.189752578735352 C22.817157745361328 14.189752578735352 22.56104278564453 14.396190643310547 22.56104278564453 14.71717643737793 M22.705223083496094 14.71717643737793 C22.705223083496094 14.476873397827148 22.88202667236328 14.303056716918945 23.104026794433594 14.303056716918945 C23.323165893554688 14.303056716918945 23.50283432006836 14.476873397827148 23.50283432006836 14.71717643737793 C23.50283432006836 14.958849906921387 23.323165893554688 15.134284019470215 23.104026794433594 15.134284019470215 C22.88202667236328 15.134284019470215 22.705223083496094 14.95897388458252 22.705223083496094 14.71717643737793 M22.893482208251953 15.012638092041016 L23.01064682006836 15.012638092041016 L23.01064682006836 14.759758949279785 L23.084354400634766 14.759758949279785 L23.228538513183594 15.012638092041016 L23.35155487060547 15.012638092041016 L23.193052291870117 14.753907203674316 C23.28083038330078 14.746809959411621 23.348690032958984 14.70460033416748 23.348690032958984 14.595654487609863 C23.348690032958984 14.467036247253418 23.26526641845703 14.420345306396484 23.116729736328125 14.420345306396484 L22.893482208251953 14.420345306396484 L22.893482208251953 15.012638092041016 M23.010770797729492 14.51223373413086 L23.109756469726562 14.51223373413086 C23.163543701171875 14.51223373413086 23.231399536132812 14.522193908691406 23.231399536132812 14.585943222045898 C23.231399536132812 14.657909393310547 23.18209457397461 14.66787052154541 23.11560821533203 14.66787052154541 L23.010770797729492 14.66787052154541 L23.010770797729492 14.51223373413086 L23.010770797729492 14.51223373413086" fill="black" fill-opacity="1.0" filling="0"/></svg>