<?xml version="1.0" encoding="iso-8859-1"?><svg height="200px" viewBox="0.0 0.0 24.0 24.0" width="200px" xmlns="http://www.w3.org/2000/svg"><path animation_id="0" d="M0.0 23.999065399169922 L24.0 23.999065399169922 L24.0 0.0009336471557617188 L0.0 0.0009336471557617188 L0.0 23.999065399169922" fill="black" fill-opacity="1.0" filling="0"/>
<path animation_id="1" d="M16.13571548461914 11.108696937561035 L16.75502586364746 12.21982192993164 L15.624229431152344 12.025712013244629 L16.58942985534668 14.779991149902344 L14.875303268432617 13.349000930786133 L14.659278869628906 14.679388046264648 L13.636432647705078 13.751541137695312 L13.44929313659668 16.117475509643555 L12.772210121154785 14.03928279876709 L12.620929718017578 13.967315673828125 L10.89597225189209 16.91583251953125 L11.184087753295898 13.320115089416504 L8.630890846252441 15.290731430053711 L9.804893493652344 12.32764720916748 L8.263587951660156 12.687355995178223 L9.084604263305664 11.285002708435059 L8.119529724121094 10.371724128723145 L9.905621528625488 10.263898849487305 L16.13571548461914 11.108696937561035 L16.13571548461914 11.108696937561035" fill="black" fill-opacity="1.0" filling="0"/>
<path animation_id="2" d="M16.81902503967285 9.499533653259277 L12.947270393371582 5.726016044616699 L9.168150901794434 9.591670989990234 L13.039531707763672 13.365062713623047 L16.81902503967285 9.499533653259277 L16.81902503967285 9.499533653259277" fill="black" fill-opacity="1.0" filling="0"/>
<path animation_id="3" d="M17.176990509033203 9.47176742553711 L13.305484771728516 5.698250770568848 L9.526241302490234 9.563779830932617 L13.397871017456055 13.337297439575195 L17.176990509033203 9.47176742553711" fill="black" fill-opacity="1.0" filling="0"/>
<path animation_id="4" d="M16.67671012878418 7.420220851898193 L16.922866821289062 7.438149929046631 L16.100479125976562 11.147668838500977 L14.204071998596191 11.195605278015137 L14.294092178344727 10.83004379272461 L14.023906707763672 10.82431697845459 L13.729814529418945 11.219758987426758 L11.7071533203125 11.273673057556152 L16.67671012878418 7.420220851898193 L16.67671012878418 7.420220851898193" fill="black" fill-opacity="1.0" filling="0"/>
<path animation_id="5" d="M14.924111366271973 8.1995267868042 C15.941854476928711 8.569320678710938 17.066801071166992 8.045384407043457 17.43721580505371 7.029384613037109 C17.807632446289062 6.013260364532471 17.28307342529297 4.889933109283447 16.265579223632812 4.520139694213867 C15.247587203979492 4.150345802307129 14.122891426086426 4.674407005310059 13.752225875854492 5.690406799316406 C13.381933212280273 6.706157207489014 13.906618118286133 7.829732894897461 14.924111366271973 8.1995267868042 L14.924111366271973 8.1995267868042" fill="black" fill-opacity="1.0" filling="0"/>
<path animation_id="6" d="M13.829297065734863 5.290107727050781 A2.126875638961792 2.126875638961792 0.0 0 0 14.580963134765625 5.8826494216918945 C15.561227798461914 6.348565101623535 16.6978759765625 6.008902549743652 17.119840621948242 5.124011993408203 M17.531593322753906 6.145240783691406 L13.653365135192871 6.744754791259766 M15.204506874084473 4.42339563369751 L15.866401672363281 8.29527473449707 M14.165224075317383 7.706593036651611 A2.1289923191070557 2.1289923191070557 0.0 0 1 14.781423568725586 7.058394908905029 C15.632323265075684 6.4740705490112305 16.738094329833984 6.587250232696533 17.32266616821289 7.294589996337891" fill="none" filling="0" stroke="black" stroke-opacity="1.0" stroke-width=".3"/>
<path animation_id="7" d="M13.242109298706055 4.97074031829834 L8.854510307312012 9.51024055480957 L13.242109298706055 4.97074031829834 L13.242109298706055 4.97074031829834" fill="black" fill-opacity="1.0" filling="0"/>
<path animation_id="8" d="M10.878789901733398 8.223184585571289 L12.043205261230469 7.060636520385742 L11.779119491577148 6.71312952041626 L11.515159606933594 6.641163349151611 L11.20301342010498 6.725082874298096 L10.686796188354492 7.863724231719971 L10.698749542236328 8.187324523925781 L10.878789901733398 8.223184585571289 M13.515158653259277 2.617630958557129 L13.66369915008545 2.650003433227539 L13.807882308959961 2.805765151977539 L14.047935485839844 2.8896846771240234 L14.263835906982422 3.009587287902832 L14.323850631713867 3.081554412841797 C14.097491264343262 3.4879531860351562 14.033493041992188 3.565523147583008 13.555624961853027 3.69277286529541 L13.43547248840332 3.908299446105957 L13.567702293395996 4.040278911590576 L13.831787109375 4.23214864730835 L14.119653701782227 4.435846328735352 L14.29957103729248 4.615638256072998 L14.563655853271484 4.831164836883545 L14.815787315368652 5.130984306335449 L14.959721565246582 5.298698902130127 L15.067919731140137 5.478490829467773 L15.104401588439941 6.101911544799805 L15.008404731750488 6.161800384521484 L14.888252258300781 6.12581729888916 L14.804332733154297 6.173753261566162 L14.660150527954102 6.269626140594482 L14.468031883239746 6.425387382507324 L14.324098587036133 6.449418067932129 L14.071966171264648 6.34146785736084 L13.77189826965332 6.089833736419678 L13.568076133728027 5.946025371551514 L13.315694808959961 5.958102703094482 L13.123825073242188 5.958102703094482 L12.82375717163086 5.982008457183838 L12.583702087402344 5.922119140625 L12.319616317749023 5.778310775756836 L12.151528358459473 5.6463303565979 L12.007471084594727 5.538380146026611 L11.8753662109375 5.466537952423096 L13.515158653259277 2.617630958557129 L13.515158653259277 2.617630958557129" fill="black" fill-opacity="1.0" filling="0"/>
<path animation_id="9" d="M10.494802474975586 8.486895561218262 L10.278653144836426 8.187324523925781 L10.218639373779297 7.779804706573486 L10.182655334472656 7.408267498016357 L10.194608688354492 7.144556045532227 C10.194608688354492 7.144556045532227 10.134719848632812 6.928905010223389 10.146672248840332 6.8929219245910645 C10.158625602722168 6.856938362121582 10.08653450012207 6.55425500869751 10.08653450012207 6.55425500869751 L9.992903709411621 6.3499345779418945 L10.02664566040039 6.065927982330322 L10.08653450012207 5.799228191375732 L10.290606498718262 5.442632675170898 L10.518708229064941 5.023158550262451 L10.674842834472656 4.795430660247803 L10.770964622497559 4.507812976837158 L10.98686408996582 4.256054401397705 L11.094939231872559 4.004295825958252 L11.335118293762207 3.7168025970458984 L11.43111515045166 3.4530906677246094 L11.43111515045166 3.2972049713134766 L11.167030334472656 3.057522773742676 L10.974910736083984 2.6740341186523438 L10.974910736083984 2.27846622467041 L10.98686408996582 1.9308347702026367 L11.058955192565918 1.667123794555664 C11.058955192565918 1.667123794555664 11.107016563415527 1.6793251037597656 11.142999649047852 1.6793251037597656 C11.178982734680176 1.6793251037597656 11.26302719116211 1.6914024353027344 11.26302719116211 1.6914024353027344 L11.39513111114502 1.7991037368774414 L11.563096046447754 2.0029258728027344 L11.721595764160156 2.1359024047851562 L11.85843276977539 2.099919319152832 L11.92330265045166 1.930959701538086 L11.935379981994629 1.6313886642456055 L11.959285736083984 1.4995336532592773 L12.007471084594727 1.403660774230957 L12.131980895996094 1.4456195831298828 L12.163357734680176 1.6313886642456055 L12.211543083190918 1.8710708618164062 L12.28350830078125 1.9909734725952148 L12.4515962600708 2.134657859802246 L12.631513595581055 2.2065000534057617 L12.823631286621094 2.23052978515625 L12.955737113952637 2.1825942993164062 L13.099919319152832 1.9787712097167969 L13.207620620727539 1.8349618911743164 L13.29838752746582 1.8156633377075195 L13.315694808959961 1.9308347702026367 L13.327896118164062 2.23052978515625 L13.520014762878418 2.27846622467041 L13.591981887817383 2.5301008224487305 L10.494802474975586 8.486895561218262 L10.494802474975586 8.486895561218262" fill="black" fill-opacity="1.0" filling="0"/>
<path animation_id="10" d="M17.94085693359375 7.111560821533203 C18.030630111694336 7.111560821533203 18.113554000854492 7.132354259490967 18.203449249267578 7.1665940284729 C18.120525360107422 7.18041467666626 18.023780822753906 7.201207637786865 17.933761596679688 7.256365776062012 C18.009836196899414 7.394446849822998 18.168960571289062 7.477370738983154 18.265705108642578 7.622299671173096 C18.106704711914062 7.580962657928467 17.9753475189209 7.477370738983154 17.829919815063477 7.429060935974121 C17.719478607177734 7.394446849822998 17.67116928100586 7.532528400421143 17.553382873535156 7.567017078399658 C17.594968795776367 7.477370738983154 17.588123321533203 7.387598991394043 17.64340591430664 7.284006595611572 C17.525991439819336 7.2080559730529785 17.345951080322266 7.159745693206787 17.24920654296875 7.090767860412598 A1.8788520097732544 1.8788520097732544 0.0 0 1 17.64340591430664 7.090767860412598 C17.726327896118164 7.028637409210205 17.62273597717285 6.904252052307129 17.691837310791016 6.835273742675781 C17.767913818359375 6.911349296569824 17.80925178527832 7.056403160095215 17.94085693359375 7.111560821533203 L17.94085693359375 7.111560821533203" fill="black" fill-opacity="1.0" filling="0"/>
<path animation_id="11" d="M11.665193557739258 11.297577857971191 L11.161053657531738 11.297577857971191 L11.31706428527832 10.620494842529297 L9.996639251708984 10.656229019165039 L10.224740982055664 9.37987995147705 L12.013322830200195 7.49816370010376 L13.465728759765625 7.456203460693359 L13.837888717651367 7.4502272605896 L13.417917251586914 9.098238945007324 L13.693831443786621 9.09226131439209 L11.665193557739258 11.297577857971191 L11.665193557739258 11.297577857971191" fill="black" fill-opacity="1.0" filling="0"/>
<path animation_id="12" d="M11.939737319946289 10.993401527404785 L11.543547630310059 10.975471496582031 L11.701176643371582 10.319181442260742 L10.368673324584961 10.355164527893066 L10.535266876220703 9.514723777770996 L12.173691749572754 7.838199615478516 L13.362136840820312 7.811305522918701 L12.97939395904541 9.44736385345459 L13.357778549194336 9.44736385345459 L11.939737319946289 10.993401527404785" fill="black" fill-opacity="1.0" filling="0"/>
<path animation_id="13" d="M11.527112007141113 9.49965763092041 L12.373404502868652 8.690717697143555 L12.125879287719727 9.474257469177246 L11.527112007141113 9.49965763092041" fill="black" fill-opacity="1.0" filling="0"/>
<path animation_id="14" d="M9.366619110107422 13.75403118133545 L14.558177947998047 8.200398445129395 L9.366619110107422 13.75403118133545" fill="black" fill-opacity="1.0" filling="0"/>
<path animation_id="15" d="M13.333747863769531 9.43229866027832 L13.410073280334473 9.43229866027832 L13.410073280334473 9.373903274536133 L13.333747863769531 9.373903274536133 L13.333747863769531 9.43229866027832" fill="black" fill-opacity="1.0" filling="0"/>
<path animation_id="16" d="M12.085164070129395 10.893046379089355 L14.462056159973145 8.358152389526367 L14.624292373657227 8.412065505981445 L12.247152328491211 11.018925666809082 L12.085164070129395 10.893046379089355 L12.085164070129395 10.893046379089355" fill="black" fill-opacity="1.0" filling="0"/>
<path animation_id="17" d="M7.928033351898193 11.218764305114746 C8.021665573120117 11.218764305114746 8.108075141906738 11.240303993225098 8.201705932617188 11.276287078857422 C8.115296363830566 11.290605545043945 8.014442443847656 11.312270164489746 7.920812129974365 11.369793891906738 C8.0 11.513602256774902 8.165722846984863 11.59988784790039 8.26657485961914 11.751043319702148 C8.100852966308594 11.70783805847168 7.964016914367676 11.59988784790039 7.812737464904785 11.549586296081543 C7.697566032409668 11.513602256774902 7.647139549255371 11.657411575317383 7.524746417999268 11.693394660949707 C7.567951679229736 11.59988784790039 7.560729503631592 11.506381034851074 7.618377685546875 11.398555755615234 C7.4958600997924805 11.319367408752441 7.308597564697266 11.269065856933594 7.207744598388672 11.197223663330078 A1.950818657875061 1.950818657875061 0.0 0 1 7.618377685546875 11.197223663330078 C7.704787731170654 11.132478713989258 7.596713066101074 11.0029878616333 7.668679714202881 10.931022644042969 C7.747992515563965 11.010210037231445 7.791197299957275 11.161240577697754 7.928033351898193 11.218764305114746" fill="black" fill-opacity="1.0" filling="0"/>
<path animation_id="18" d="M12.924236297607422 7.000000476837158 C12.984000205993652 7.000000476837158 13.039531707763672 7.013820648193359 13.099296569824219 7.0367302894592285 C13.04413890838623 7.0459442138671875 12.97939395904541 7.060013771057129 12.919629096984863 7.096619606018066 C12.970428466796875 7.188756942749023 13.076262474060059 7.243914604187012 13.140883445739746 7.340659141540527 C13.034801483154297 7.312893390655518 12.947270393371582 7.243914604187012 12.850525856018066 7.211666584014893 C12.776567459106445 7.188756942749023 12.744443893432617 7.28064489364624 12.66600227355957 7.30380392074585 C12.693768501281738 7.244039058685303 12.689162254333496 7.184150218963623 12.7260160446167 7.115047454833984 C12.647700309753418 7.064371585845947 12.527796745300293 7.032248020172119 12.463176727294922 6.986179828643799 A1.2529414892196655 1.2529414892196655 0.0 0 1 12.7260160446167 6.986179828643799 C12.781174659729004 6.944717884063721 12.712196350097656 6.861918926239014 12.758389472961426 6.815974712371826 C12.808939933776855 6.866525650024414 12.836705207824707 6.9631452560424805 12.924236297607422 7.000000476837158 L12.924236297607422 7.000000476837158 M13.086846351623535 11.649442672729492 C13.161800384521484 11.649442672729492 13.231027603149414 11.666749954223633 13.30598258972168 11.695511817932129 C13.236879348754883 11.706966400146484 13.156197547912598 11.724272727966309 13.081242561340332 11.770341873168945 C13.14449405670166 11.885388374328613 13.2772216796875 11.95449161529541 13.357778549194336 12.075390815734863 C13.225300788879395 12.040777206420898 13.115856170654297 11.95449161529541 12.99495792388916 11.914275169372559 C12.902820587158203 11.885513305664062 12.862479209899902 12.000560760498047 12.764365196228027 12.029322624206543 C12.79885482788086 11.95449161529541 12.793251991271973 11.879785537719727 12.83932113647461 11.793251991271973 C12.741331100463867 11.730125427246094 12.591546058654785 11.689784049987793 12.51073932647705 11.6322603225708 A1.5581148862838745 1.5581148862838745 0.0 0 1 12.83932113647461 11.6322603225708 C12.90842342376709 11.580464363098145 12.822013854980469 11.476872444152832 12.879412651062012 11.41934871673584 C12.943161964416504 11.482725143432617 12.97752571105957 11.603498458862305 13.086846351623535 11.649442672729492 L13.086846351623535 11.649442672729492" fill="black" fill-opacity="1.0" filling="0"/>
<path animation_id="19" d="M10.716802597045898 10.71026611328125 L6.7771897315979 14.457012176513672 L10.716802597045898 10.71026611328125" fill="black" fill-opacity="1.0" filling="0"/>
<path animation_id="20" d="M9.690469741821289 15.378633499145508 C9.765548706054688 15.378633499145508 9.834527015686035 15.396066665649414 9.909481048583984 15.424702644348145 C9.840377807617188 15.436158180236816 9.75957202911377 15.45346450805664 9.684741020202637 15.499408721923828 C9.748117446899414 15.614580154418945 9.880596160888672 15.68355941772461 9.96127700805664 15.804333686828613 C9.8287992477417 15.76996898651123 9.719354629516602 15.68355941772461 9.598331451416016 15.643217086791992 C9.506070137023926 15.614580154418945 9.465853691101074 15.72950267791748 9.367864608764648 15.75838851928711 C9.402477264404297 15.68355941772461 9.396626472473145 15.608853340148926 9.442943572998047 15.522443771362305 C9.344829559326172 15.459192276000977 9.195169448852539 15.418851852416992 9.114362716674805 15.361327171325684 A1.5579904317855835 1.5579904317855835 0.0 0 1 9.442943572998047 15.361327171325684 C9.512046813964844 15.309531211853027 9.425512313842773 15.205940246582031 9.483160018920898 15.148540496826172 C9.54641056060791 15.211791038513184 9.581024169921875 15.332566261291504 9.690469741821289 15.378633499145508 L9.690469741821289 15.378633499145508 M12.409388542175293 10.950072288513184 L15.302248001098633 7.767851829528809 L16.514848709106445 7.743945598602295 L15.78260612487793 10.8721284866333 L14.612090110778809 10.890058517456055 L14.72016429901123 10.512544631958008 L13.867770195007324 10.524497032165527 L13.54964828491211 10.932018280029297 L12.409388542175293 10.950072288513184" fill="black" fill-opacity="1.0" filling="0"/>
<path animation_id="21" d="M15.362386703491211 8.726701736450195 L14.474008560180664 9.739462852478027 L15.092448234558105 9.745439529418945 L15.362386703491211 8.726701736450195 M15.850712776184082 8.291166305541992 C15.925667762756348 8.291166305541992 15.994646072387695 8.308473587036133 16.06960105895996 8.337359428405762 C16.000497817993164 8.348814010620117 15.919816017150879 8.365996360778809 15.84486198425293 8.412065505981445 C15.908360481262207 8.527112007141113 16.04084014892578 8.596090316772461 16.121646881103516 8.716989517211914 C15.989169120788574 8.682499885559082 15.879724502563477 8.596090316772461 15.758576393127441 8.55587387084961 C15.666189193725586 8.527112007141113 15.626097679138184 8.642159461975098 15.527983665466309 8.670921325683594 C15.56247329711914 8.596090316772461 15.556869506835938 8.521384239196777 15.602938652038574 8.435098648071289 C15.504949569702148 8.371849060058594 15.35516357421875 8.331506729125977 15.274606704711914 8.2739839553833 A1.572558045387268 1.572558045387268 0.0 0 1 15.602938652038574 8.2739839553833 C15.672041893005371 8.222187995910645 15.585881233215332 8.118595123291016 15.643280029296875 8.06107234954834 C15.706655502319336 8.1244478225708 15.7412691116333 8.245222091674805 15.850712776184082 8.291166305541992 L15.850712776184082 8.291166305541992 M12.224616050720215 9.851397514343262 C12.299321174621582 9.851397514343262 12.368548393249512 9.868703842163086 12.443504333496094 9.897466659545898 C12.374401092529297 9.908920288085938 12.293718338012695 9.926103591918945 12.218764305114746 9.972171783447266 C12.28226375579834 10.0873441696167 12.414742469787598 10.156322479248047 12.49530029296875 10.277095794677734 C12.362821578979492 10.242607116699219 12.253377914428711 10.156322479248047 12.132478713989258 10.116105079650879 C12.040091514587402 10.0873441696167 11.999876022338867 10.202390670776367 11.901885986328125 10.23102855682373 C11.936375617980957 10.156322479248047 11.930647850036621 10.081491470336914 11.976841926574707 9.995205879211426 C11.878851890563965 9.931831359863281 11.7290678024292 9.891738891601562 11.648385047912598 9.834091186523438 A1.573803186416626 1.573803186416626 0.0 0 1 11.976841926574707 9.834091186523438 C12.045944213867188 9.782294273376465 11.959534645080566 9.678827285766602 12.017182350158691 9.62130355834961 C12.08030891418457 9.684555053710938 12.114923477172852 9.80545425415039 12.224616050720215 9.851397514343262 L12.224616050720215 9.851397514343262" fill="black" fill-opacity="1.0" filling="0"/>
<path animation_id="22" d="M12.305049896240234 1.2369422912597656 C12.254497528076172 1.4382743835449219 12.254497528076172 1.6971302032470703 12.305049896240234 1.8913650512695312 C12.47799301147461 2.020730972290039 12.636244773864746 2.2149658203125 12.895474433898926 2.135777473449707 C13.068418502807617 1.9776506423950195 13.140385627746582 1.747431755065918 13.104401588439941 1.546224594116211 C13.205378532409668 1.4957971572875977 13.377949714660645 1.4957971572875977 13.486148834228516 1.546224594116211 C13.594098091125488 1.5893049240112305 13.536450386047363 1.7043514251708984 13.551017761230469 1.7906370162963867 C13.413808822631836 1.8841438293457031 13.327523231506348 2.0567140579223633 13.413808822631836 2.207744598388672 C13.586752891540527 2.22928524017334 13.62995719909668 2.40185546875 13.65871810913086 2.5528860092163086 C13.860548973083496 2.711136817932129 14.047811508178711 2.9124698638916016 14.314388275146484 2.926913261413574 C14.40067195892334 2.840627670288086 14.43665599822998 2.7398996353149414 14.415365219116211 2.617630958557129 L14.48733139038086 2.617630958557129 C14.42246150970459 2.653614044189453 14.45844554901123 2.7326784133911133 14.451099395751953 2.790325164794922 L14.48733139038086 2.8261842727661133 C14.523314476013184 2.797422409057617 14.537633895874023 2.7398996353149414 14.58806037902832 2.754218101501465 C14.61669635772705 2.87661075592041 14.42246150970459 2.9124698638916016 14.451099395751953 3.0347375869750977 L14.624292373657227 3.171450614929199 C14.537757873535156 3.200087547302246 14.48733139038086 3.1282453536987305 14.415365219116211 3.0994834899902344 C14.19921588897705 3.4590673446655273 13.831912994384766 3.761127471923828 13.450165748596191 3.86173152923584 C14.076573371887207 4.329141616821289 14.9624605178833 4.782357215881348 15.214716911315918 5.58756160736084 C15.142501831054688 5.623669624328613 15.222063064575195 5.681192874908447 15.243354797363281 5.724273204803467 C15.193053245544434 5.896968364715576 15.221939086914062 6.119840621948242 15.041772842407227 6.2061262130737305 C14.998692512512207 6.198904514312744 14.926726341247559 6.234887599945068 14.89784049987793 6.177488327026367 C14.832969665527344 6.3715996742248535 14.638361930847168 6.443565845489502 14.48733139038086 6.5513916015625 C14.364813804626465 6.508062362670898 14.271183013916016 6.544169902801514 14.141568183898926 6.486522197723389 C13.795804977416992 6.443441390991211 13.666439056396484 5.789018154144287 13.241362571716309 6.033555507659912 C12.679574012756348 6.055095672607422 12.290730476379395 5.932951927185059 11.894539833068848 5.551702976226807 C11.678515434265137 6.0191121101379395 11.829670906066895 6.580152988433838 12.031375885009766 7.004358291625977 C11.930523872375488 7.522069454193115 11.599203109741211 7.931955814361572 11.167155265808105 8.313079833984375 L10.893357276916504 7.9679388999938965 C11.037540435791016 7.931955814361572 11.080620765686035 7.730747699737549 11.203137397766113 7.622797966003418 C11.303991317749023 7.687542915344238 11.433605194091797 7.687542915344238 11.548776626586914 7.730747699737549 C11.584884643554688 7.687542915344238 11.649630546569824 7.651559352874756 11.649630546569824 7.5868144035339355 C11.599203109741211 7.4502272605896 11.440827369689941 7.572371482849121 11.375957489013672 7.486210823059082 L11.339974403381348 7.522069454193115 C11.325654983520508 7.478989124298096 11.26788330078125 7.486210823059082 11.239120483398438 7.486210823059082 C11.282325744628906 7.356720447540283 11.26788330078125 7.169831275939941 11.411940574645996 7.105086326599121 C11.570442199707031 7.306418418884277 11.714499473571777 7.025898456573486 11.894539833068848 7.069103240966797 C11.930647850036621 7.025898456573486 11.988171577453613 6.997136116027832 11.959285736083984 6.932516098022461 L11.894539833068848 6.867646217346191 L11.85843276977539 6.8964080810546875 C11.822449684143066 6.824441432952881 11.77189826965332 6.910726547241211 11.721595764160156 6.8964080810546875 C11.39749813079834 6.8964080810546875 11.08771800994873 6.795679569244385 10.893233299255371 6.587125778198242 C10.936562538146973 6.227665901184082 10.9004545211792 5.8824005126953125 11.20301342010498 5.688290119171143 C11.332627296447754 5.896719455718994 11.375832557678223 6.134034633636475 11.548652648925781 6.313827037811279 C11.699932098388672 6.2347636222839355 11.721595764160156 6.026209354400635 11.757579803466797 5.860860347747803 C11.74313735961914 5.760132312774658 11.894415855407715 5.551578521728516 11.78621768951416 5.450850009918213 C11.743012428283691 5.558799743652344 11.55574893951416 5.666500568389893 11.649380683898926 5.7958664894104 C11.613397598266602 5.875054836273193 11.584635734558105 5.961339473724365 11.548527717590332 6.03330659866333 C11.598954200744629 5.7958664894104 11.022847175598145 5.623420715332031 11.303742408752441 5.378883361816406 L11.411691665649414 5.033742427825928 C11.598954200744629 5.026520729064941 11.606175422668457 5.3572187423706055 11.78621768951416 5.2781548500061035 C11.735915184020996 5.1128058433532715 11.462118148803711 5.033742427825928 11.51266860961914 4.825063705444336 C11.57019329071045 4.796302318572998 11.598954200744629 4.6884765625 11.6854887008667 4.724460124969482 C11.908734321594238 4.853950500488281 11.671045303344727 5.184648036956787 11.894290924072266 5.314138412475586 L11.858183860778809 5.342899799346924 C12.059764862060547 5.623420715332031 12.391209602355957 5.8822760581970215 12.758638381958008 5.96856164932251 C13.032185554504395 5.939799785614014 13.356160163879395 6.026084899902344 13.586627960205078 5.896595001220703 C13.831787109375 6.11959171295166 14.055033683776855 6.457635402679443 14.378883361816406 6.450289726257324 C13.975472450256348 6.162547588348389 13.788208961486816 5.666376113891602 13.485898971557617 5.2780303955078125 L13.514785766601562 5.242047309875488 C13.766669273376465 5.572869300842285 13.975346565246582 5.846168041229248 14.314138412475586 6.105148792266846 C14.436407089233398 6.1842122077941895 14.587686538696289 6.24895715713501 14.724647521972656 6.176990985870361 C14.839942932128906 5.8821516036987305 15.156571388244629 6.414306163787842 15.106393814086914 5.968437194824219 C15.01986026763916 5.92523193359375 14.897466659545898 5.83894681930542 14.897466659545898 5.723899841308594 C14.911785125732422 5.616074085235596 15.005415916442871 5.508373737335205 15.070161819458008 5.450725555419922 C14.566020965576172 4.53744649887085 13.572184562683105 4.062939643859863 12.722281455993652 3.588308334350586 C12.549586296081543 3.5163421630859375 12.383988380432129 3.588308334350586 12.239806175231934 3.4803590774536133 C12.21116828918457 3.5163421630859375 12.153271675109863 3.5307846069335938 12.167839050292969 3.588308334350586 L12.102970123291016 3.5163421630859375 C12.340534210205078 3.4731369018554688 12.189504623413086 3.2501401901245117 12.131607055664062 3.1350927352905273 C12.088525772094727 2.9480791091918945 12.059640884399414 2.6820030212402344 12.167839050292969 2.516653060913086 C12.254124641418457 2.430368423461914 12.362323760986328 2.3943843841552734 12.477619171142578 2.408702850341797 C12.758513450622559 2.6389217376708984 12.628649711608887 3.0271434783935547 12.758513450622559 3.307663917541504 C12.945775985717773 3.127871513366699 12.952873229980469 2.8258113861083984 13.169021606445312 2.653240203857422 C13.291291236877441 2.552511215209961 13.442569732666016 2.6820030212402344 13.485898971557617 2.789952278137207 C13.550768852233887 2.8402538299560547 13.485898971557617 2.962522506713867 13.586627960205078 2.998380661010742 C13.680508613586426 2.9697446823120117 13.752225875854492 2.904874801635742 13.860424995422363 2.926539421081543 C13.946958541870117 3.0128250122070312 13.982942581176758 3.120650291442871 13.968374252319336 3.2429189682006836 C13.810123443603516 3.33642578125 13.637178421020508 3.487455368041992 13.44991683959961 3.3795061111450195 C13.327398300170898 3.4659156799316406 13.284069061279297 3.588184356689453 13.205005645751953 3.688788414001465 C13.586503982543945 3.7750730514526367 13.975472450256348 3.595280647277832 14.206188201904297 3.307663917541504 C14.162858963012695 3.1710758209228516 14.44375228881836 3.0774450302124023 14.242172241210938 2.962522506713867 C14.018925666809082 2.904874801635742 13.759448051452637 2.8330326080322266 13.622735977172852 2.6172571182250977 L13.514785766601562 2.6172571182250977 C13.572184562683105 2.5309715270996094 13.572184562683105 2.3943843841552734 13.514785766601562 2.3079748153686523 C13.38492202758789 2.322418212890625 13.233643531799316 2.3654985427856445 13.169021606445312 2.4806699752807617 C13.399364471435547 2.3153209686279297 13.346572875976562 1.6560420989990234 13.274606704711914 1.7878971099853516 C13.106517791748047 1.775944709777832 13.075390815734863 2.1713876724243164 12.895225524902344 2.2361326217651367 C12.643342018127441 2.2218141555786133 12.405404090881348 2.1713876724243164 12.239806175231934 1.9268512725830078 C12.203822135925293 1.7615013122558594 12.167839050292969 1.6104717254638672 12.131607055664062 1.4451227188110352 C11.771524429321289 1.366058349609375 12.016435623168945 1.7830419540405273 11.894166946411133 1.9268512725830078 C11.937372207641602 1.962834358215332 11.894166946411133 2.056340217590332 11.85805892944336 2.099421501159668 C11.82929801940918 2.164290428161621 11.76442813873291 2.128307342529297 11.721222877502441 2.135404586791992 C11.48353385925293 2.006039619445801 11.375459671020508 1.5458507537841797 11.029820442199707 1.7184209823608398 C11.094565391540527 1.7902641296386719 11.022598266601562 1.8837699890136719 10.993712425231934 1.962834358215332 C10.964950561523438 2.4735727310180664 10.964950561523438 3.034364700317383 11.440329551696777 3.2716798782348633 C11.562721252441406 3.22860050201416 11.519516944885254 3.3795061111450195 11.61314868927002 3.415614128112793 C11.555500030517578 3.501774787902832 11.591484069824219 3.6600265502929688 11.584386825561523 3.72464656829834 C11.48353385925293 3.8613576889038086 11.605926513671875 3.9979467391967773 11.61314868927002 4.134657382965088 L11.440329551696777 4.27846622467041 C11.325157165527344 4.249704360961914 11.303492546081543 4.113117218017578 11.23862361907959 4.033928871154785 C11.346696853637695 3.9836273193359375 11.260287284851074 3.9333248138427734 11.23862361907959 3.8613576889038086 C11.137894630432129 3.9979467391967773 10.986490249633789 4.156197547912598 11.029820442199707 4.307227611541748 L11.20263957977295 4.170516014099121 L11.303492546081543 4.307227611541748 C11.173752784729004 4.415177822113037 11.029820442199707 4.688352108001709 10.857125282287598 4.479798316955566 L10.7850341796875 4.551764965057373 C10.821017265319824 4.594969749450684 10.871444702148438 4.602066993713379 10.921870231628418 4.623607158660889 C10.986615180969238 4.724335670471191 10.792255401611328 4.803399085998535 10.957854270935059 4.861047267913818 C10.986615180969238 4.824939250946045 11.044387817382812 4.8106207847595215 11.02994441986084 4.760318756103516 C11.02994441986084 4.760318756103516 11.433231353759766 5.105335235595703 11.13079833984375 5.314013957977295 L11.13079833984375 5.378758907318115 C11.022723197937012 5.371412754058838 10.993836402893066 5.206188201904297 10.957854270935059 5.105460166931152 C10.950756072998047 5.011952877044678 10.986615180969238 4.896905899047852 10.921870231628418 4.824939250946045 C10.91464900970459 4.896905899047852 10.792255401611328 4.968873023986816 10.892984390258789 5.0336174964904785 C10.734607696533203 5.141443252563477 10.892984390258789 5.285252094268799 10.892984390258789 5.414617538452148 C10.93631362915039 5.457822322845459 10.93631362915039 5.515346050262451 10.993836402893066 5.551329135894775 C10.921870231628418 5.688040733337402 10.72016429901123 5.831850051879883 10.648198127746582 6.004420280456543 C10.662641525268555 6.018738746643066 10.691277503967285 6.033182144165039 10.684181213378906 6.069040775299072 C10.554566383361816 5.9396748542785645 10.417730331420898 5.702359676361084 10.439270973205566 5.515346050262451 C10.46093463897705 5.328456401824951 10.518458366394043 5.119902610778809 10.72016429901123 5.0336174964904785 L10.612215042114258 4.932889461517334 C10.424951553344727 5.127124786376953 10.28799057006836 5.414617538452148 10.201581001281738 5.688040733337402 C10.446492195129395 5.8821516036987305 10.698500633239746 6.191308975219727 10.749051094055176 6.52213191986084 C10.777812004089355 6.579780101776123 10.72016429901123 6.615638256072998 10.684181213378906 6.658843517303467 C10.640975952148438 6.6516218185424805 10.569009780883789 6.680383682250977 10.547345161437988 6.622859954833984 C10.525680541992188 6.637054443359375 10.511237144470215 6.665940284729004 10.47525405883789 6.658843517303467 L10.374401092529297 6.550893306732178 L10.403162956237793 6.52213191986084 C10.302309036254883 6.320799350738525 10.215900421142578 6.090705394744873 10.093507766723633 5.932578086853027 C10.086161613464355 6.069040775299072 9.963891983032227 6.205752372741699 10.057523727416992 6.3495612144470215 C9.999876022338867 6.450289726257324 10.158251762390137 6.550893306732178 10.201457023620605 6.658843517303467 L10.547220230102539 6.968001365661621 C10.439146041870117 7.083048343658447 10.201457023620605 7.147793292999268 10.165472984313965 7.349125385284424 C10.266326904296875 7.52891731262207 10.374401092529297 7.306045055389404 10.475129127502441 7.277283191680908 C10.648073196411133 7.155014991760254 10.720040321350098 6.93214225769043 10.892735481262207 6.867272853851318 C10.979269027709961 6.975222587585449 11.202515602111816 7.082923889160156 11.06555461883545 7.241300106048584 C10.792007446289062 7.521696090698242 10.647948265075684 7.931581974029541 10.266201972961426 8.075514793395996 C10.352612495422363 8.132913589477539 10.244661331176758 8.269750595092773 10.374276161193848 8.312705993652344 C10.489448547363281 8.226546287536621 10.611966133117676 8.147357940673828 10.719915390014648 8.039531707763672 L11.094441413879395 8.348814010620117 L10.647948265075684 8.65797233581543 C10.208553314208984 8.399115562438965 10.158127784729004 7.917263507843018 10.129364967346191 7.449853897094727 C10.093382835388184 7.385108947753906 9.985307693481445 7.449853897094727 9.99240493774414 7.349125385284424 L10.129364967346191 7.277283191680908 C10.071842193603516 7.190998077392578 9.95380687713623 7.277283191680908 9.8845796585083 7.176555156707764 C9.99875545501709 7.164975166320801 10.093382835388184 7.212413787841797 10.093382835388184 7.068729400634766 L9.823819160461426 7.043827533721924 C9.88856315612793 6.957542419433594 10.079437255859375 7.040340900421143 10.093880653381348 6.8965325355529785 C10.029010772705078 6.76704216003418 9.760692596435547 6.922554969787598 9.748117446899414 6.831787586212158 C9.751728057861328 6.7562103271484375 10.029010772705078 6.88931131362915 10.093880653381348 6.759945392608643 C10.014567375183105 6.57293176651001 9.58065128326416 6.769781589508057 9.683372497558594 6.659217357635498 C9.722467422485352 6.6487579345703125 10.013945579528809 6.614393711090088 10.029010772705078 6.587250232696533 C9.95704460144043 6.400361061096191 9.704912185668945 6.522504806518555 9.539189338684082 6.486522197723389 C9.640167236328125 6.393139839172363 9.94260025024414 6.544169902801514 9.992903709411621 6.3499345779418945 C9.920936584472656 6.2061262130737305 9.74089527130127 6.328394412994385 9.64726448059082 6.241984844207764 C9.712133407592773 6.14138126373291 10.014567375183105 6.321173191070557 9.992903709411621 6.069414138793945 C9.920936584472656 5.932951927185059 9.74089527130127 6.055095672607422 9.64726448059082 5.968810558319092 C9.784100532531738 5.940048694610596 9.964265823364258 6.026334285736084 10.057897567749023 5.896843910217285 C9.95704460144043 5.788893699645996 9.755338668823242 5.839320182800293 9.683372497558594 5.724148750305176 C9.834527015686035 5.666625499725342 10.093880653381348 6.004669666290283 10.093880653381348 5.688290119171143 C10.000249862670898 5.594658374786377 9.863412857055664 5.594658374786377 9.748117446899414 5.551578521728516 C9.856191635131836 5.422088146209717 10.152400016784668 5.7358527183532715 10.165847778320312 5.493058681488037 C10.029010772705078 5.565149784088135 9.841748237609863 5.362697124481201 9.784100532531738 5.4148664474487305 L9.792194366455078 5.340285301208496 C9.918196678161621 5.385233402252197 10.093880653381348 5.458071231842041 10.20182991027832 5.450850009918213 C10.165847778320312 5.299943923950195 9.94260025024414 5.386104583740234 9.885077476501465 5.2782793045043945 C9.999252319335938 5.308908939361572 10.1154203414917 5.328705787658691 10.230716705322266 5.343024253845215 C10.295462608337402 5.156010627746582 10.014567375183105 5.271057605743408 9.913715362548828 5.156010627746582 C9.94260025024414 5.148913860321045 9.912842750549316 5.132603168487549 9.927287101745605 5.147046089172363 C10.030754089355469 5.0616326332092285 10.360331535339355 5.335803031921387 10.374773979187012 5.069725513458252 C10.317126274108887 5.012202262878418 10.230716705322266 5.041212558746338 10.165847778320312 5.033866882324219 C10.21627426147461 4.9475812911987305 10.41797924041748 5.069725513458252 10.475502967834473 4.933138370513916 C10.403535842895508 4.767789363861084 10.1370849609375 4.8396315574646 10.057897567749023 4.688601016998291 C10.21627426147461 4.760692596435547 10.425201416015625 4.825188159942627 10.576355934143066 4.796426773071289 C10.576355934143066 4.631077766418457 10.374773979187012 4.681504249572754 10.26669979095459 4.623856544494629 L10.26669979095459 4.5879974365234375 C10.425201416015625 4.544792175292969 10.605242729187012 4.825188159942627 10.684430122375488 4.5879974365234375 C10.59801959991455 4.47282600402832 10.425201416015625 4.523252010345459 10.374773979187012 4.415427207946777 C10.475627899169922 4.458507061004639 10.59801959991455 4.458507061004639 10.684430122375488 4.552013874053955 L10.785283088684082 4.4512858390808105 C10.749300003051758 4.365000247955322 10.64122486114502 4.336238861083984 10.54759407043457 4.307476997375488 C10.569134712219238 4.257050037384033 10.72763442993164 4.257050037384033 10.785283088684082 4.307476997375488 C10.806822776794434 4.35055685043335 10.85737419128418 4.3434600830078125 10.893233299255371 4.3434600830078125 C10.907676696777344 4.329017162322998 10.936562538146973 4.307476997375488 10.922119140625 4.278715133666992 C10.835709571838379 4.1779866218566895 10.720413208007812 4.1779866218566895 10.61246395111084 4.13490629196167 C10.72763442993164 4.063064098358154 11.022972106933594 4.372221946716309 10.994086265563965 4.106144905090332 C10.907676696777344 4.005416393280029 10.785283088684082 4.005416393280029 10.684430122375488 3.962336540222168 C10.792505264282227 3.9119091033935547 10.951005935668945 4.15644645690918 11.066052436828613 3.998194694519043 L10.785283088684082 3.861607551574707 C10.9004545211792 3.890493392944336 11.030193328857422 3.962460517883301 11.131047248840332 3.897714614868164 C11.044636726379395 3.782668113708496 10.907676696777344 3.83297061920166 10.821267127990723 3.725020408630371 C10.979766845703125 3.681939125061035 11.159808158874512 3.962460517883301 11.238996505737305 3.725020408630371 C11.131047248840332 3.6459569931030273 11.008404731750488 3.602876663208008 10.893233299255371 3.552450180053711 C11.030193328857422 3.4878292083740234 11.217456817626953 3.717923164367676 11.339849472045898 3.588557243347168 C11.282201766967773 3.4301815032958984 11.07339859008789 3.480607032775879 10.95810317993164 3.3798789978027344 C11.08771800994873 3.3798789978027344 11.282201766967773 3.5238122940063477 11.339849472045898 3.416111946105957 C11.217456817626953 3.3872251510620117 11.123825073242188 3.28662109375 10.994086265563965 3.2721786499023438 C11.094939231872559 3.264956474304199 11.289422988891602 3.3872251510620117 11.411815643310547 3.344144821166992 C11.311087608337402 3.1858930587768555 10.965324401855469 3.2434167861938477 11.066052436828613 3.0348634719848633 C10.814044952392578 2.6392955780029297 10.965324401855469 2.164788246154785 10.922119140625 1.7189197540283203 L10.684430122375488 1.8627281188964844 C10.705970764160156 1.6901578903198242 10.9004545211792 1.7764434814453125 10.95810317993164 1.6181907653808594 C10.871692657470703 1.4959230422973633 10.749300003051758 1.4599390029907227 10.61246395111084 1.4814786911010742 C10.792505264282227 1.4599390029907227 11.044636726379395 1.4527177810668945 11.167030334472656 1.5822076797485352 C11.476686477661133 1.5463495254516602 11.55587387084961 1.9059333801269531 11.757579803466797 2.0640602111816406 C11.937621116638184 1.8338422775268555 11.851210594177246 1.4456195831298828 11.822449684143066 1.1723213195800781 C11.959161758422852 1.0427064895629883 12.218515396118164 1.107452392578125 12.305049896240234 1.2369422912597656 L12.305049896240234 1.2369422912597656" fill="black" fill-opacity="1.0" filling="0"/>
<path animation_id="23" d="M11.61352252960205 2.3444557189941406 L11.61352252960205 2.4090776443481445 C11.505571365356445 2.3875370025634766 11.476686477661133 2.517026901245117 11.440702438354492 2.5816469192504883 C11.433481216430664 2.624852180480957 11.469463348388672 2.696819305419922 11.411815643310547 2.7254562377929688 C11.42625904083252 2.7398996353149414 11.455020904541016 2.754218101501465 11.440702438354492 2.790325164794922 L11.411815643310547 2.8261842727661133 C11.469463348388672 2.8549461364746094 11.433481216430664 2.9196910858154297 11.440702438354492 2.9628963470458984 L11.375832557678223 3.0347375869750977 C11.260662078857422 3.013197898864746 11.260662078857422 2.898026466369629 11.20301342010498 2.8261842727661133 C11.253439903259277 2.7326784133911133 11.094939231872559 2.596090316772461 11.20301342010498 2.4810428619384766 C11.08771800994873 2.3227920532226562 11.174127578735352 2.1717605590820312 11.20301342010498 1.999190330505371 C11.433481216430664 1.9488897323608398 11.519890785217285 2.193301200866699 11.61352252960205 2.3444557189941406 L11.61352252960205 2.3444557189941406 M12.650688171386719 2.3444557189941406 L12.650688171386719 2.4450597763061523 C12.463425636291504 2.315694808959961 12.254497528076172 2.013509750366211 12.031375885009766 2.1717605590820312 C12.002614974975586 2.250948905944824 11.937745094299316 2.308347702026367 11.959161758422852 2.4090776443481445 C11.930523872375488 2.423520088195801 11.908859252929688 2.3947582244873047 11.894415855407715 2.3804397583007812 C11.851210594177246 2.215090751647949 11.980825424194336 2.092698097229004 12.103219032287598 2.035299301147461 C12.326713562011719 2.04239559173584 12.456328392028809 2.265392303466797 12.650688171386719 2.3444557189941406 L12.650688171386719 2.3444557189941406" fill="black" fill-opacity="1.0" filling="0"/>
<path animation_id="24" d="M12.585694313049316 2.7254562377929688 C12.621926307678223 2.9052486419677734 12.369793891906738 2.9124698638916016 12.412999153137207 3.0994834899902344 L12.412999153137207 3.415987014770508 C12.254497528076172 3.272054672241211 12.189753532409668 3.0491819381713867 12.16808795928955 2.8261842727661133 C12.211417198181152 2.7326784133911133 12.204071044921875 2.57442569732666 12.34078311920166 2.5528860092163086 C12.463425636291504 2.509805679321289 12.585694313049316 2.6105337142944336 12.585694313049316 2.7254562377929688 M13.450165748596191 2.9628963470458984 C13.363880157470703 3.2145299911499023 13.284317970275879 3.559671401977539 12.96744155883789 3.6171951293945312 C12.975035667419434 3.4374027252197266 13.234016418457031 3.423084259033203 13.140385627746582 3.2432918548583984 C13.234016418457031 3.171450614929199 13.118720054626465 3.085041046142578 13.068418502807617 3.0347375869750977 C13.06107234954834 2.8189620971679688 13.457510948181152 2.5816469192504883 13.450165748596191 2.9628963470458984" fill="black" fill-opacity="1.0" filling="0"/>
<path animation_id="25" d="M11.822449684143066 4.451410293579102 L11.584759712219238 4.5881218910217285 L11.440702438354492 4.415551662445068 C11.462242126464844 4.300379753112793 11.599078178405762 4.350681781768799 11.649505615234375 4.24298095703125 C11.74313735961914 4.293282508850098 11.7288179397583 4.393887042999268 11.822449684143066 4.451410293579102 L11.822449684143066 4.451410293579102 M11.51279354095459 4.652866840362549 C11.433481216430664 4.767913818359375 11.347071647644043 4.890057563781738 11.2677583694458 4.998007774353027 C11.224678039550781 4.861420631408691 11.07339859008789 4.7247090339660645 11.131047248840332 4.5881218910217285 L11.339849472045898 4.379443645477295 L11.51279354095459 4.652866840362549 L11.51279354095459 4.652866840362549 M13.205378532409668 4.933262825012207 L13.241362571716309 4.897279739379883 L13.277345657348633 4.933262825012207 C13.378073692321777 4.9117231369018555 13.579904556274414 4.9477057456970215 13.658843040466309 5.03399133682251 C13.486148834228516 5.0555315017700195 13.24123764038086 4.904500961303711 13.032434463500977 4.998007774353027 C12.91016674041748 5.026770114898682 13.032434463500977 5.184896945953369 12.895474433898926 5.170578479766846 C12.881155967712402 5.069849967956543 12.924112319946289 4.990786552429199 12.996451377868652 4.933262825012207 C13.097305297851562 4.976343154907227 13.140385627746582 4.839756011962891 13.205378532409668 4.933262825012207 M14.796987533569336 5.724273204803467 C14.753658294677734 5.767477989196777 14.753658294677734 5.832222938537598 14.696009635925293 5.861109733581543 C14.609724044799805 5.875428199768066 14.494428634643555 5.861109733581543 14.48733139038086 5.76038122177124 L14.523314476013184 5.48720645904541 C14.573616027832031 5.501400470733643 14.58806037902832 5.443877220153809 14.624292373657227 5.41499137878418 C14.580714225769043 5.2928466796875 14.508747100830078 5.156135082244873 14.379132270812988 5.105833530426025 C14.415365219116211 5.026770114898682 14.465417861938477 5.1130547523498535 14.523314476013184 5.105833530426025 C14.696009635925293 5.278404235839844 14.753658294677734 5.4941792488098145 14.796987533569336 5.724273204803467 M12.086409568786621 1.4141197204589844 C12.255619049072266 1.4141197204589844 12.392827987670898 1.334681510925293 12.392827987670898 1.2369422912597656 C12.392827987670898 1.1390771865844727 12.255619049072266 1.0597648620605469 12.086409568786621 1.0597648620605469 C11.917325019836426 1.0597648620605469 11.779991149902344 1.1390771865844727 11.779991149902344 1.2369422912597656 C11.779991149902344 1.334681510925293 11.917325019836426 1.4141197204589844 12.086409568786621 1.4141197204589844 M13.298263549804688 1.8156633377075195 C13.443441390991211 1.8619804382324219 13.582767486572266 1.8316011428833008 13.609538078308105 1.7476806640625 C13.636306762695312 1.6638860702514648 13.540434837341309 1.558426856994629 13.39550495147705 1.511983871459961 C13.25057601928711 1.4655418395996094 13.111249923706055 1.496047019958496 13.084230422973633 1.5797176361083984 C13.057461738586426 1.6638860702514648 13.15333366394043 1.7693462371826172 13.298263549804688 1.8156633377075195" fill="black" fill-opacity="1.0" filling="0"/>
<path animation_id="26" d="M12.565274238586426 3.1451778411865234 C12.589802742004395 3.1451778411865234 12.609724998474121 3.113801956176758 12.609724998474121 3.0752038955688477 C12.609724998474121 3.0366058349609375 12.589802742004395 3.0052289962768555 12.565274238586426 3.0052289962768555 C12.540496826171875 3.0052289962768555 12.520575523376465 3.0366058349609375 12.520575523376465 3.0752038955688477 C12.520575523376465 3.113801956176758 12.540496826171875 3.1451778411865234 12.565274238586426 3.1451778411865234 M12.975035667419434 3.2312145233154297 C12.995953559875488 3.2312145233154297 13.013011932373047 3.205690383911133 13.013011932373047 3.174189567565918 C13.013011932373047 3.142563819885254 12.995953559875488 3.116914749145508 12.975035667419434 3.116914749145508 C12.953620910644531 3.116914749145508 12.936562538146973 3.142563819885254 12.936562538146973 3.174189567565918 C12.936562538146973 3.205690383911133 12.953620910644531 3.2312145233154297 12.975035667419434 3.2312145233154297 M11.792691230773926 5.989479064941406 L11.819709777832031 5.764739036560059 L11.869140625 5.60748291015625 L11.896283149719238 5.571499824523926 L12.013322830200195 5.6658782958984375 L11.792691230773926 5.989479064941406 L11.792691230773926 5.989479064941406" fill="black" fill-opacity="1.0" filling="0"/>
<path animation_id="27" d="M6.21926212310791 19.418354034423828 L6.922244071960449 17.291851043701172 L7.36039400100708 17.291851043701172 L7.59932804107666 19.418354034423828 L7.170392036437988 19.418354034423828 L7.149847507476807 19.13770866394043 L6.720911502838135 19.13770866394043 L6.640976428985596 19.418354034423828 L6.21926212310791 19.418354034423828 M7.067795753479004 17.93282699584961 L6.851273536682129 18.694826126098633 L7.123326778411865 18.694826126098633 L7.067795753479004 17.93282699584961 L7.067795753479004 17.93282699584961 M8.32584285736084 19.418354034423828 L7.895038604736328 19.418354034423828 L7.979455947875977 18.64452362060547 L7.637801170349121 17.291851043701172 L8.11977767944336 17.291851043701172 L8.267447471618652 18.012514114379883 L8.572495460510254 17.291851043701172 L9.047127723693848 17.291851043701172 L8.411628723144531 18.632946014404297 L8.32584285736084 19.418354034423828 L8.32584285736084 19.418354034423828" fill="black" fill-opacity="1.0" filling="0"/>
<path animation_id="28" d="M10.119405746459961 18.606300354003906 L10.123016357421875 18.606300354003906 L10.414368629455566 17.291851043701172 L10.830604553222656 17.291851043701172 L10.271804809570312 19.418354034423828 L9.848347663879395 19.418354034423828 L9.831413269042969 18.183837890625 L9.827802658081055 18.183837890625 L9.54342269897461 19.418354034423828 L9.119965553283691 19.418354034423828 L9.025213241577148 17.291851043701172 L9.441325187683105 17.291851043701172 L9.445807456970215 18.606300354003906 L9.449542045593262 18.606300354003906 L9.749859809875488 17.291851043701172 L10.105957984924316 17.291851043701172 L10.119405746459961 18.606300354003906 L10.119405746459961 18.606300354003906 M10.502272605895996 19.418354034423828 L11.205254554748535 17.291851043701172 L11.643404006958008 17.291851043701172 L11.882338523864746 19.418354034423828 L11.453277587890625 19.418354034423828 L11.43285846710205 19.13770866394043 L11.00379753112793 19.13770866394043 L10.92398738861084 19.418354034423828 L10.502272605895996 19.418354034423828 M11.350682258605957 17.93282699584961 L11.134408950805664 18.694826126098633 L11.40633773803711 18.694826126098633 L11.350682258605957 17.93282699584961 M12.004607200622559 19.418354034423828 L12.236693382263184 17.291851043701172 L12.667372703552246 17.291851043701172 L12.435410499572754 19.418354034423828 L12.004607200622559 19.418354034423828 L12.004607200622559 19.418354034423828 M12.678328514099121 19.418354034423828 L12.91029167175293 17.291851043701172 L13.340970993041992 17.291851043701172 L13.163294792175293 18.922306060791016 L13.754715919494629 18.922306060791016 L13.700429916381836 19.418354034423828 L12.678328514099121 19.418354034423828 L12.678328514099121 19.418354034423828 M13.859678268432617 19.418354034423828 L14.09151554107666 17.291851043701172 L14.522443771362305 17.291851043701172 L14.344642639160156 18.922306060791016 L14.936064720153809 18.922306060791016 L14.881778717041016 19.418354034423828 L13.859678268432617 19.418354034423828 L13.859678268432617 19.418354034423828 M15.040902137756348 19.418354034423828 L15.273112297058105 17.291851043701172 L16.344518661499023 17.291851043701172 L16.290605545043945 17.788021087646484 L15.649754524230957 17.788021087646484 L15.616510391235352 18.092323303222656 L16.15850067138672 18.092323303222656 L16.104339599609375 18.5884952545166 L15.562223434448242 18.5884952545166 L15.525991439819336 18.922306060791016 L16.192119598388672 18.922306060791016 L16.13808250427246 19.418354034423828 L15.040902137756348 19.418354034423828 L15.040902137756348 19.418354034423828 M7.399489879608154 22.87411880493164 L7.023345947265625 22.87411880493164 L7.032061576843262 22.589740753173828 C6.915395736694336 22.77389144897461 6.736351013183594 22.94210433959961 6.456701755523682 22.94210433959961 C6.001369953155518 22.94210433959961 5.644773483276367 22.465728759765625 5.754342555999756 21.46068572998047 C5.854572772979736 20.539810180664062 6.279773712158203 19.907054901123047 6.856502532958984 19.907054901123047 C7.284567356109619 19.907054901123047 7.589366912841797 20.267635345458984 7.583888530731201 20.97634506225586 L7.029571056365967 20.97634506225586 C7.01313591003418 20.74002456665039 6.92062520980835 20.611778259277344 6.769844055175781 20.611778259277344 C6.53962516784668 20.611778259277344 6.394197940826416 20.94808006286621 6.3387908935546875 21.45657730102539 C6.294341564178467 21.86496925354004 6.33306360244751 22.237377166748047 6.627529144287109 22.237377166748047 C6.74618673324585 22.237377166748047 6.911535739898682 22.105148315429688 6.963082790374756 21.905061721801758 L6.705721378326416 21.905061721801758 L6.773828029632568 21.280271530151367 L7.57318115234375 21.280271530151367 L7.399489879608154 22.87411880493164 L7.399489879608154 22.87411880493164 M7.754093647003174 22.866151809692383 L8.067981719970703 19.983253479003906 L8.652057647705078 19.983253479003906 L8.33816909790039 22.866151809692383 L7.754093647003174 22.866151809692383 M9.373217582702637 21.86111068725586 L9.263773918151855 22.86602783203125 L8.67982292175293 22.86602783203125 L8.993837356567383 19.983253479003906 L9.835148811340332 19.983253479003906 C10.42918586730957 19.983253479003906 10.596152305603027 20.24335479736328 10.53514289855957 20.80402183532715 C10.499034881591797 21.136337280273438 10.376891136169434 21.416610717773438 10.1589994430542 21.508621215820312 C10.334806442260742 21.620681762695312 10.440889358520508 21.692895889282227 10.377513885498047 22.273487091064453 C10.336673736572266 22.649755477905273 10.315258979797363 22.777999877929688 10.384486198425293 22.777999877929688 L10.374898910522461 22.866151809692383 L9.783477783203125 22.866151809692383 C9.775508880615234 22.80202865600586 9.780738830566406 22.617877960205078 9.808629035949707 22.361515045166016 C9.849592208862305 21.98512077331543 9.823570251464844 21.86111068725586 9.55126667022705 21.86111068725586 L9.373217582702637 21.86111068725586 M9.442071914672852 21.22847557067871 L9.672290802001953 21.22847557067871 C9.852954864501953 21.22847557067871 9.957417488098145 21.156259536743164 9.979207038879395 20.95604705810547 C10.00136947631836 20.751728057861328 9.912842750549316 20.655731201171875 9.776754379272461 20.655731201171875 L9.504575729370117 20.655731201171875 L9.442071914672852 21.22847557067871 L9.442071914672852 21.22847557067871 M10.481230735778809 22.866151809692383 L11.433730125427246 19.98337745666504 L12.027765274047852 19.98337745666504 L12.352238655090332 22.866151809692383 L11.770777702331543 22.866151809692383 L11.742888450622559 22.485774993896484 L11.16130256652832 22.485774993896484 L11.052979469299316 22.866151809692383 L10.481230735778809 22.866151809692383 M11.631202697753906 20.852083206176758 L11.338106155395508 21.88513946533203 L11.706780433654785 21.88513946533203 L11.631202697753906 20.852083206176758 M12.562535285949707 22.866151809692383 L12.876548767089844 19.983253479003906 L14.262467384338379 19.983253479003906 L14.189254760742188 20.655855178833008 L13.387287139892578 20.655855178833008 L13.330262184143066 21.1804141998291 L13.968624114990234 21.1804141998291 L13.895536422729492 21.853015899658203 L13.256925582885742 21.853015899658203 L13.146734237670898 22.866151809692383 L12.562535285949707 22.866151809692383 L12.562535285949707 22.866151809692383 M14.421963691711426 21.06822967529297 L14.540122985839844 19.983253479003906 L14.834464073181152 19.983253479003906 L14.716428756713867 21.06822967529297 L14.421963691711426 21.06822967529297 L14.421963691711426 21.06822967529297 M16.04258155822754 20.819957733154297 C16.0435791015625 20.7198543548584 16.018054962158203 20.65996551513672 15.97957992553711 20.623855590820312 C15.941605567932129 20.587749481201172 15.891303062438965 20.571687698364258 15.834403038024902 20.571687698364258 C15.70578384399414 20.571687698364258 15.64228343963623 20.63170051574707 15.630828857421875 20.735916137695312 C15.583640098571777 21.1684627532959 16.637615203857422 20.9000186920166 16.5233154296875 21.94913673400879 C16.45060157775879 22.617755889892578 16.070972442626953 22.94210433959961 15.581274032592773 22.94210433959961 C15.111000061035156 22.94210433959961 14.852394104003906 22.497726440429688 14.896967887878418 21.977277755737305 L15.45601749420166 21.977277755737305 C15.457013130187988 22.08136749267578 15.48353385925293 22.157318115234375 15.527734756469727 22.20525360107422 C15.56956958770752 22.253314971923828 15.62871265411377 22.277469635009766 15.68586254119873 22.277469635009766 C15.831787109375 22.277469635009766 15.936625480651855 22.201393127441406 15.951440811157227 22.065181732177734 C15.999128341674805 21.628772735595703 14.941791534423828 21.929092407226562 15.061695098876953 20.828052520751953 C15.128307342529297 20.21533966064453 15.48851490020752 19.907054901123047 15.934009552001953 19.907054901123047 C16.42918586730957 19.907054901123047 16.609848022460938 20.315570831298828 16.596900939941406 20.819957733154297 L16.04258155822754 20.819957733154297 L16.04258155822754 20.819957733154297" fill="black" fill-opacity="1.0" filling="0"/></svg>