<?xml version="1.0" encoding="iso-8859-1"?><svg height="200px" viewBox="0.0 0.0 24.0 24.0" width="200px" xmlns="http://www.w3.org/2000/svg"><path animation_id="0" d="M0.0 0.0 L24.0 0.0 L24.0 24.0 L0.0 24.0 L0.0 0.0" fill="black" fill-opacity="1.0" filling="0"/>
<path animation_id="1" d="M1.0588302612304688 1.3591480255126953 L22.94116973876953 1.3591480255126953 L22.94116973876953 22.64109992980957 L1.0588302612304688 22.64109992980957 L1.0588302612304688 1.3591480255126953" fill="black" fill-opacity="1.0" filling="0"/>
<path animation_id="2" d="M1.614767074584961 2.3152589797973633 L22.274169921875 2.3152589797973633 L22.274169921875 21.840503692626953 L1.614767074584961 21.840503692626953 L1.614767074584961 2.3152589797973633" fill="black" fill-opacity="1.0" filling="0"/>
<path animation_id="3" d="M2.9713001251220703 20.928592681884766 L3.2159624099731445 20.928592681884766 L3.2159624099731445 20.239181518554688 L3.7274484634399414 20.239181518554688 L3.7274484634399414 20.928592681884766 L3.9719858169555664 20.928592681884766 L3.9719858169555664 19.371973037719727 L3.7274484634399414 19.371973037719727 L3.7274484634399414 19.994522094726562 L3.2159624099731445 19.994522094726562 L3.2159624099731445 19.371973037719727 L2.9713001251220703 19.371973037719727 L2.9713001251220703 20.928592681884766 M4.528046131134033 20.239181518554688 C4.528046131134033 20.083545684814453 4.594783306121826 19.97235870361328 4.728133201599121 19.97235870361328 C4.861482620239258 19.97235870361328 4.928220272064209 20.083545684814453 4.928220272064209 20.239181518554688 L4.528046131134033 20.239181518554688 M5.083981990814209 20.617319107055664 C4.995081901550293 20.68393325805664 4.906057357788086 20.72850799560547 4.794869899749756 20.72850799560547 C4.639233112335205 20.72850799560547 4.528046131134033 20.617319107055664 4.528046131134033 20.439395904541016 L5.150719165802002 20.439395904541016 C5.150719165802002 20.03909683227539 5.061694622039795 19.750232696533203 4.728133201599121 19.750232696533203 C4.439021587371826 19.750232696533203 4.30554723739624 20.017059326171875 4.30554723739624 20.35062026977539 C4.30554723739624 20.72850799560547 4.483471393585205 20.951005935668945 4.7725830078125 20.951005935668945 C4.905932903289795 20.951005935668945 4.994957447052002 20.90655517578125 5.083857536315918 20.861980438232422 L5.083857536315918 20.617319107055664 L5.083981990814209 20.617319107055664 L5.083981990814209 20.617319107055664 M5.46199369430542 20.928592681884766 L5.706655025482178 20.928592681884766 L5.706655025482178 19.77227020263672 L5.46199369430542 19.77227020263672 L5.46199369430542 20.928592681884766 M5.46199369430542 19.572059631347656 L5.706655025482178 19.572059631347656 L5.706655025482178 19.282949447631836 L5.46199369430542 19.282949447631836 L5.46199369430542 19.572059631347656 M6.084666728973389 20.928592681884766 L6.307041168212891 20.928592681884766 L6.307041168212891 20.372657775878906 C6.307041168212891 20.217021942138672 6.329328536987305 19.97235870361328 6.4849653244018555 19.97235870361328 C6.61831521987915 19.97235870361328 6.61831521987915 20.12799644470215 6.61831521987915 20.239181518554688 L6.61831521987915 20.928592681884766 L6.862977027893066 20.928592681884766 L6.862977027893066 20.372657775878906 C6.862977027893066 20.217021942138672 6.8851399421691895 19.97235870361328 7.0409016609191895 19.97235870361328 C7.174376010894775 19.97235870361328 7.174376010894775 20.12799644470215 7.174376010894775 20.239181518554688 L7.174376010894775 20.928592681884766 L7.419037342071533 20.928592681884766 L7.419037342071533 20.19485855102539 C7.419037342071533 19.9501953125 7.35230016708374 19.75010871887207 7.1299262046813965 19.75010871887207 C7.018738746643066 19.75010871887207 6.8852643966674805 19.816722869873047 6.840814590454102 19.9501953125 C6.7963643074035645 19.816722869873047 6.707464218139648 19.75010871887207 6.5739898681640625 19.75010871887207 C6.4850897789001465 19.75010871887207 6.373903274536133 19.794559478759766 6.307041168212891 19.927907943725586 L6.284754276275635 19.927907943725586 L6.284754276275635 19.77227020263672 L6.084666728973389 19.77227020263672 L6.084666728973389 20.928592681884766 L6.084666728973389 20.928592681884766 M7.930399417877197 20.43927001953125 L8.397435188293457 20.43927001953125 L8.397435188293457 20.19485855102539 L7.930399417877197 20.19485855102539 L7.930399417877197 20.43927001953125 L7.930399417877197 20.43927001953125 M8.953371047973633 20.928592681884766 L9.198033332824707 20.928592681884766 L9.198033332824707 19.616634368896484 L9.553757667541504 19.616634368896484 L9.553757667541504 19.371973037719727 L8.597522735595703 19.371973037719727 L8.597522735595703 19.616634368896484 L8.953371047973633 19.616634368896484 L8.953371047973633 20.928592681884766 L8.953371047973633 20.928592681884766 M9.820706367492676 20.928592681884766 L10.043081283569336 20.928592681884766 L10.043081283569336 19.77227020263672 L9.820706367492676 19.77227020263672 L9.820706367492676 20.928592681884766 M9.820706367492676 19.572059631347656 L10.043081283569336 19.572059631347656 L10.043081283569336 19.282949447631836 L9.820706367492676 19.282949447631836 L9.820706367492676 19.572059631347656 M10.576728820800781 20.239181518554688 C10.599016189575195 20.083545684814453 10.665629386901855 19.97235870361328 10.799103736877441 19.97235870361328 C10.932578086853027 19.97235870361328 10.977028846740723 20.083545684814453 10.999190330505371 20.239181518554688 L10.576728820800781 20.239181518554688 M11.154953002929688 20.617319107055664 C11.06592845916748 20.68393325805664 10.954741477966309 20.72850799560547 10.84355354309082 20.72850799560547 C10.710203170776367 20.72850799560547 10.599016189575195 20.617319107055664 10.576728820800781 20.439395904541016 L11.221565246582031 20.439395904541016 C11.221565246582031 20.03909683227539 11.132665634155273 19.750232696533203 10.776816368103027 19.750232696533203 C10.509992599487305 19.750232696533203 10.354230880737305 20.017059326171875 10.354230880737305 20.35062026977539 C10.354230880737305 20.72850799560547 10.532154083251953 20.951005935668945 10.843428611755371 20.951005935668945 C10.95461654663086 20.951005935668945 11.065803527832031 20.90655517578125 11.154827117919922 20.861980438232422 L11.154827117919922 20.617319107055664 L11.154953002929688 20.617319107055664 M11.532963752746582 20.928592681884766 L11.777502059936523 20.928592681884766 L11.777502059936523 20.506134033203125 C11.777502059936523 20.328083038330078 11.777502059936523 20.038970947265625 11.955425262451172 20.038970947265625 C11.999876022338867 20.038970947265625 12.044325828552246 20.038970947265625 12.06661319732666 20.061384201049805 L12.06661319732666 19.75010871887207 L11.999876022338867 19.75010871887207 C11.84423828125 19.75010871887207 11.755338668823242 19.927907943725586 11.755338668823242 20.038970947265625 L11.733051300048828 20.038970947265625 L11.733051300048828 19.77214813232422 L11.532963752746582 19.77214813232422 L11.532963752746582 20.928592681884766 L11.532963752746582 20.928592681884766 M13.334246635437012 20.617319107055664 C13.289796829223633 20.68393325805664 13.201021194458008 20.706344604492188 13.1119966506958 20.706344604492188 C13.000809669494629 20.706344604492188 12.911910057067871 20.617319107055664 12.911910057067871 20.483844757080078 C12.911910057067871 20.372657775878906 12.978522300720215 20.283756256103516 13.067546844482422 20.239181518554688 L13.334246635437012 20.617319107055664 M13.1119966506958 19.9501953125 C13.067546844482422 19.883333206176758 13.000809669494629 19.816722869873047 13.000809669494629 19.72769546508789 C13.000809669494629 19.61651039123535 13.067421913146973 19.572059631347656 13.134035110473633 19.572059631347656 C13.223058700561523 19.572059631347656 13.289671897888184 19.61651039123535 13.289671897888184 19.72769546508789 C13.289671897888184 19.816722869873047 13.178609848022461 19.905746459960938 13.1119966506958 19.9501953125 L13.1119966506958 19.9501953125 M13.245471000671387 20.105833053588867 C13.401107788085938 20.016809463500977 13.489884376525879 19.905746459960938 13.489884376525879 19.705533981323242 C13.489884376525879 19.438461303710938 13.312084197998047 19.349811553955078 13.134159088134766 19.349811553955078 C12.956358909606934 19.349811553955078 12.75627326965332 19.460996627807617 12.75627326965332 19.705533981323242 C12.75627326965332 19.883333206176758 12.845296859741211 19.9501953125 12.93407154083252 20.06125831604004 C12.733985900878906 20.172447204589844 12.667247772216797 20.30592155456543 12.667247772216797 20.50600814819336 C12.667247772216797 20.795120239257812 12.867335319519043 20.95075798034668 13.1119966506958 20.95075798034668 C13.245471000671387 20.95075798034668 13.356658935546875 20.883895874023438 13.445682525634766 20.772708892822266 L13.534459114074707 20.9283447265625 L13.84598159790039 20.9283447265625 L13.623482704162598 20.617069244384766 C13.712507247924805 20.46143341064453 13.779119491577148 20.28338623046875 13.779119491577148 20.083297729492188 L13.556870460510254 20.083297729492188 C13.556870460510254 20.194732666015625 13.534459114074707 20.327960968017578 13.490008354187012 20.41698455810547 L13.245471000671387 20.105833053588867 L13.245471000671387 20.105833053588867 M14.69090461730957 19.616634368896484 L14.779680252075195 19.616634368896484 C14.913154602050781 19.616634368896484 15.024341583251953 19.683246612548828 15.024341583251953 19.861297607421875 C15.024341583251953 20.03909683227539 14.913154602050781 20.083545684814453 14.779680252075195 20.083545684814453 L14.69090461730957 20.083545684814453 L14.69090461730957 19.616634368896484 M14.446243286132812 20.928592681884766 L14.69090461730957 20.928592681884766 L14.69090461730957 20.328208923339844 L14.802092552185059 20.328208923339844 C15.068916320800781 20.328208923339844 15.269003868103027 20.194982528686523 15.269003868103027 19.838884353637695 C15.269003868103027 19.460996627807617 15.024341583251953 19.371973037719727 14.757641792297363 19.371973037719727 L14.446367263793945 19.371973037719727 L14.446367263793945 20.928592681884766 L14.446243286132812 20.928592681884766 M15.647139549255371 20.928592681884766 L15.869389533996582 20.928592681884766 L15.869389533996582 19.994522094726562 L16.091888427734375 19.994522094726562 L16.091888427734375 19.77227020263672 L15.869389533996582 19.77227020263672 L15.869389533996582 19.638797760009766 C15.869389533996582 19.55002212524414 15.891801834106445 19.460996627807617 15.980826377868652 19.460996627807617 C16.025026321411133 19.460996627807617 16.06960105895996 19.48316192626953 16.092012405395508 19.505447387695312 L16.11417579650879 19.260784149169922 C16.069725036621094 19.238374710083008 15.980950355529785 19.238374710083008 15.936126708984375 19.238374710083008 C15.736289024353027 19.238374710083008 15.647263526916504 19.394012451171875 15.647263526916504 19.61651039123535 L15.647263526916504 19.77214813232422 L15.469215393066406 19.77214813232422 L15.469215393066406 19.99439811706543 L15.647263526916504 19.99439811706543 L15.647263526916504 20.928592681884766 L15.647139549255371 20.928592681884766 L15.647139549255371 20.928592681884766 M16.35871124267578 20.928592681884766 L16.603374481201172 20.928592681884766 L16.603374481201172 19.260784149169922 L16.35871124267578 19.260784149169922 L16.35871124267578 20.928592681884766 M17.025711059570312 20.083545684814453 C17.114736557006836 20.01693344116211 17.203760147094727 19.97235870361328 17.314823150634766 19.97235870361328 C17.44829750061035 19.97235870361328 17.514911651611328 20.038970947265625 17.514911651611328 20.217021942138672 L17.381685256958008 20.217021942138672 C17.292659759521484 20.217021942138672 17.1591854095459 20.217021942138672 17.070161819458008 20.283634185791016 C16.981136322021484 20.328083038330078 16.91452407836914 20.43927001953125 16.91452407836914 20.617319107055664 C16.91452407836914 20.817407608032227 17.070161819458008 20.951005935668945 17.248210906982422 20.951005935668945 C17.337234497070312 20.951005935668945 17.470458984375 20.884143829345703 17.515033721923828 20.750919342041016 C17.515033721923828 20.795368194580078 17.515033721923828 20.862106323242188 17.537446975708008 20.92871856689453 L17.737533569335938 20.92871856689453 L17.737533569335938 20.661893844604492 L17.737533569335938 20.239307403564453 C17.737533569335938 19.90587043762207 17.60405731201172 19.750232696533203 17.337234497070312 19.750232696533203 C17.225799560546875 19.750232696533203 17.114736557006836 19.7946834564209 17.025711059570312 19.83901023864746 L17.025711059570312 20.083545684814453 M17.13714599609375 20.595157623291016 C17.13714599609375 20.41710662841797 17.292783737182617 20.395069122314453 17.403972625732422 20.395069122314453 L17.515159606933594 20.395069122314453 C17.515159606933594 20.483844757080078 17.492996215820312 20.5728702545166 17.4707088470459 20.617319107055664 C17.426259994506836 20.68393325805664 17.35952377319336 20.72850799560547 17.292909622192383 20.72850799560547 C17.203760147094727 20.728382110595703 17.13714599609375 20.68393325805664 17.13714599609375 20.595157623291016 M18.093257904052734 20.928592681884766 L18.315507888793945 20.928592681884766 L18.315507888793945 20.350496292114258 C18.315507888793945 20.217021942138672 18.359956741333008 19.97235870361328 18.538005828857422 19.97235870361328 C18.69364356994629 19.97235870361328 18.69364356994629 20.172447204589844 18.69364356994629 20.306045532226562 L18.69364356994629 20.928592681884766 L18.9158935546875 20.928592681884766 L18.9158935546875 20.19485855102539 C18.9158935546875 19.9501953125 18.827119827270508 19.75010871887207 18.6046199798584 19.75010871887207 C18.493431091308594 19.75010871887207 18.382369995117188 19.794559478759766 18.315507888793945 19.927907943725586 L18.315507888793945 19.77227020263672 L18.093257904052734 19.77227020263672 L18.093257904052734 20.928592681884766 M19.249704360961914 20.01693344116211 L19.6944522857666 20.01693344116211 L19.227540969848633 20.68393325805664 L19.227540969848633 20.928592681884766 L19.983566284179688 20.928592681884766 L19.983566284179688 20.68393325805664 L19.51640510559082 20.68393325805664 L19.961153030395508 20.01693344116211 L19.961153030395508 19.77227020263672 L19.249704360961914 19.77227020263672 L19.249704360961914 20.01693344116211 M20.472888946533203 20.239181518554688 C20.472888946533203 20.083545684814453 20.539501190185547 19.97235870361328 20.672975540161133 19.97235870361328 C20.80620002746582 19.97235870361328 20.85077476501465 20.083545684814453 20.873062133789062 20.239181518554688 L20.472888946533203 20.239181518554688 M21.028823852539062 20.617319107055664 C20.939800262451172 20.68393325805664 20.85077476501465 20.72850799560547 20.717300415039062 20.72850799560547 C20.584075927734375 20.72850799560547 20.472888946533203 20.617319107055664 20.472888946533203 20.439395904541016 L21.095436096191406 20.439395904541016 C21.095436096191406 20.03909683227539 21.006412506103516 19.750232696533203 20.65068817138672 19.750232696533203 C20.38386344909668 19.750232696533203 20.228225708007812 20.017059326171875 20.228225708007812 20.35062026977539 C20.228225708007812 20.72850799560547 20.406028747558594 20.951005935668945 20.717300415039062 20.951005935668945 C20.85077476501465 20.951005935668945 20.939800262451172 20.90655517578125 21.028823852539062 20.861980438232422 L21.028823852539062 20.617319107055664 M16.847911834716797 6.896345615386963 L12.355849266052246 9.854074478149414 L12.355849266052246 5.784473896026611 C14.023656845092773 5.851211071014404 15.580278396606445 6.25138521194458 16.847911834716797 6.896345615386963 L16.847911834716797 6.896345615386963 M17.314823150634766 7.163169860839844 L12.355849266052246 10.43229866027832 L12.355849266052246 12.878540992736816 L19.004919052124023 8.519828796386719 C18.538131713867188 8.008217811584473 17.982194900512695 7.563593864440918 17.314823150634766 7.163169860839844 L17.314823150634766 7.163169860839844 M19.31631851196289 8.897714614868164 L12.355973243713379 13.456514358520508 L12.355973243713379 15.836020469665527 L20.18377685546875 10.698997497558594 C20.02801513671875 10.05416202545166 19.738903045654297 9.453776359558105 19.31631851196289 8.897714614868164 L19.31631851196289 8.897714614868164 M20.27267837524414 11.232771873474121 L12.355849266052246 16.41436767578125 L12.355849266052246 17.5262393951416 C16.781047821044922 17.370601654052734 20.29483985900879 14.813297271728516 20.29483985900879 11.655357360839844 C20.29483985900879 11.521883010864258 20.27267837524414 11.366246223449707 20.27267837524414 11.232771873474121 M3.6384239196777344 11.988919258117676 C5.77326774597168 13.790201187133789 8.75316047668457 14.568636894226074 11.577414512634277 11.810994148254395 L11.577414512634277 17.5262393951416 C7.3077263832092285 17.392641067504883 3.8830862045288086 14.990973472595215 3.6384239196777344 11.988919258117676 L3.6384239196777344 11.988919258117676" fill="black" fill-opacity="1.0" filling="0"/>
<path animation_id="4" d="M7.1298017501831055 10.298823356628418 C6.6627655029296875 10.565648078918457 6.351491451263428 11.099420547485352 6.351491451263428 11.677644729614258 C6.351491451263428 12.567017555236816 7.0630645751953125 13.278840065002441 7.952561855316162 13.278840065002441 C8.819896697998047 13.278840065002441 9.53147029876709 12.567017555236816 9.53147029876709 11.677644729614258 C9.53147029876709 11.121707916259766 9.242359161376953 10.610222816467285 8.819896697998047 10.343273162841797 C9.753844261169434 10.454460144042969 10.710203170776367 10.765859603881836 11.577414512634277 11.388533592224121 L11.577414512634277 5.784473896026611 C7.396750450134277 5.917948246002197 4.038722515106201 8.208429336547852 3.6607112884521484 11.121583938598633 C4.661396026611328 10.743572235107422 5.884579658508301 10.387723922729492 7.1298017501831055 10.298823356628418 L7.1298017501831055 10.298823356628418" fill="black" fill-opacity="1.0" filling="0"/>
<path animation_id="5" d="M3.7496109008789062 9.008903503417969 L3.7274484634399414 3.560605049133301 L7.774762153625488 5.895661354064941 C5.528730869293213 6.25138521194458 3.7496109008789062 9.008903503417969 3.7496109008789062 9.008903503417969 L3.7496109008789062 9.008903503417969" fill="black" fill-opacity="1.0" filling="0"/></svg>