<?xml version="1.0" encoding="iso-8859-1"?><svg height="200px" viewBox="0.0 0.0 24.0 24.0" width="200px" xmlns="http://www.w3.org/2000/svg"><path animation_id="0" d="M0.0 0.0 L24.0 0.0 L24.0 24.0 L0.0 24.0 L0.0 0.0" fill="black" fill-opacity="1.0" filling="0"/>
<path animation_id="1" d="M8.466911315917969 11.283073425292969 C9.032559394836426 10.582830429077148 9.897777557373047 10.138206481933594 10.862853050231934 10.138206481933594 C12.559920310974121 10.138206481933594 13.935379028320312 11.505322456359863 13.935379028320312 13.205877304077148 C13.935379028320312 14.206313133239746 13.447301864624023 15.095561027526855 12.715309143066406 15.651248931884766 C13.38068962097168 15.095561027526855 13.802278518676758 14.261968612670898 13.802278518676758 13.328269958496094 C13.802278518676758 11.650003433227539 12.426819801330566 10.282761573791504 10.740833282470703 10.282761573791504 C9.842370986938477 10.282761573791504 9.032559394836426 10.671730041503906 8.466911315917969 11.283073425292969 L8.466911315917969 11.283073425292969" fill="black" fill-opacity="1.0" filling="0"/>
<path animation_id="2" d="M2.5769777297973633 6.181286334991455 C4.606860637664795 3.647014617919922 7.723837375640869 2.0242795944213867 11.217829704284668 2.0242795944213867 C17.340721130371094 2.0242795944213867 22.31015396118164 7.00379753112793 22.31015396118164 13.128307342529297 C22.31015396118164 16.74070930480957 20.579715728759766 19.941852569580078 17.91757583618164 21.964763641357422 L17.91757583618164 21.975971221923828 C20.313392639160156 19.95293617248535 21.83303451538086 16.9407958984375 21.83303451538086 13.572932243347168 C21.83303451538086 7.492996692657471 16.886011123657227 2.569009780883789 10.785283088684082 2.569009780883789 C7.535205364227295 2.56888484954834 4.595778942108154 3.95828914642334 2.5769777297973633 6.181286334991455 L2.5769777297973633 6.181286334991455" fill="black" fill-opacity="1.0" filling="0"/>
<path animation_id="3" d="M6.2596025466918945 12.116665840148926 A0.5780987739562988 0.5780987739562988 0.0 0 1 6.470273494720459 12.272303581237793 L6.470273494720459 11.594347953796387 L6.9583516120910645 11.594347953796387 L6.9583516120910645 13.506070137023926 L6.492436408996582 13.506070137023926 L6.492436408996582 13.31718921661377 C6.42582368850708 13.394883155822754 6.337172508239746 13.46161937713623 6.248396873474121 13.494989395141602 C6.159746170043945 13.539438247680664 6.0488080978393555 13.550519943237305 5.915707111358643 13.550519943237305 C5.704912185668945 13.550519943237305 5.516404151916504 13.483906745910645 5.372221946716309 13.350557327270508 C5.228039741516113 13.217206954956055 5.150345802307129 13.05048942565918 5.150345802307129 12.83932113647461 C5.150345802307129 12.71705150604248 5.161427021026611 12.605865478515625 5.205752849578857 12.51696491241455 C5.238996505737305 12.416858673095703 5.305484771728516 12.316877365112305 5.4164228439331055 12.216896057128906 C5.538442134857178 12.105584144592285 5.715993404388428 12.061259269714355 5.9600324630737305 12.061259269714355 C6.07097053527832 12.061135292053223 6.170827388763428 12.072216033935547 6.2596025466918945 12.116665840148926 L6.2596025466918945 12.116665840148926 M6.370541095733643 13.128183364868164 C6.448235511779785 13.05036449432373 6.481479167938232 12.9502592086792 6.481479167938232 12.816908836364746 C6.481479167938232 12.650190353393555 6.4371538162231445 12.527920722961426 6.337296962738037 12.472390174865723 C6.24852180480957 12.416733741760254 6.159870624542236 12.383365631103516 6.060014247894287 12.383365631103516 C5.926913261413574 12.383365631103516 5.815974712371826 12.427816390991211 5.749361991882324 12.505634307861328 C5.682749271392822 12.583453178405762 5.649505138397217 12.694640159606934 5.649505138397217 12.805702209472656 C5.649505138397217 12.93905258178711 5.682749271392822 13.050240516662598 5.749361991882324 13.128059387207031 C5.815974712371826 13.2057523727417 5.926788806915283 13.239246368408203 6.060014247894287 13.239246368408203 C6.192989826202393 13.239370346069336 6.303928375244141 13.205877304077148 6.370541095733643 13.128183364868164 M7.878976345062256 12.439021110534668 C7.812488079071045 12.494552612304688 7.779244422912598 12.561290740966797 7.757081508636475 12.661396026611328 L8.511362075805664 12.661396026611328 C8.511362075805664 12.60573959350586 8.500155448913574 12.572371482849121 8.48907470703125 12.527920722961426 C8.466911315917969 12.494552612304688 8.43366813659668 12.461308479309082 8.37813663482666 12.416733741760254 C8.322729110717773 12.383365631103516 8.245035171508789 12.36120319366455 8.1340970993042 12.36120319366455 C8.02315902709961 12.36120319366455 7.934508323669434 12.383490562438965 7.878976345062256 12.439021110534668 L7.878976345062256 12.439021110534668 M8.555686950683594 12.116665840148926 C8.677706718444824 12.161115646362305 8.77756404876709 12.227852821350098 8.855133056640625 12.316628456115723 C8.93282699584961 12.40565299987793 8.977151870727539 12.483471870422363 8.988234519958496 12.561290740966797 C9.010396003723145 12.62790298461914 9.010396003723145 12.694640159606934 9.021478652954102 12.739089965820312 L9.021478652954102 12.905808448791504 L7.745875358581543 12.905808448791504 C7.745875358581543 12.972546577453613 7.756957054138184 13.028077125549316 7.790201187133789 13.083732604980469 C7.8234453201293945 13.128183364868164 7.867895603179932 13.172632217407227 7.934383392333984 13.205877304077148 C7.989789962768555 13.239370346069336 8.067483901977539 13.261533737182617 8.167341232299805 13.261533737182617 C8.26719856262207 13.261533737182617 8.333685874938965 13.239246368408203 8.389217376708984 13.205877304077148 C8.43354320526123 13.172508239746094 8.466911315917969 13.139264106750488 8.500155448913574 13.09468936920166 L8.99931526184082 13.09468936920166 C8.988234519958496 13.172508239746094 8.910664558410645 13.272614479064941 8.77743911743164 13.383676528930664 C8.65541934967041 13.505821228027344 8.444623947143555 13.561601638793945 8.15626049041748 13.561601638793945 C8.03424072265625 13.561601638793945 7.923302173614502 13.539314270019531 7.8234453201293945 13.517151832580566 C7.723588943481445 13.483782768249512 7.601568698883057 13.428251266479492 7.4573869705200195 13.339351654052734 C7.324285984039307 13.250327110290527 7.257673263549805 13.072526931762695 7.257673263549805 12.816908836364746 C7.257673263549805 12.572371482849121 7.335367202758789 12.383490562438965 7.501712322235107 12.250016212463379 C7.668056964874268 12.116665840148926 7.878851890563965 12.050052642822266 8.133973121643066 12.050052642822266 C8.289485931396484 12.050052642822266 8.43366813659668 12.072216033935547 8.555686950683594 12.116665840148926 M9.842370986938477 13.506070137023926 L9.354291915893555 13.506070137023926 L9.354291915893555 11.594347953796387 L9.842370986938477 11.594347953796387 L9.842370986938477 13.506070137023926 M10.130735397338867 12.372283935546875 L10.130735397338867 12.105460166931152 L10.385855674743652 12.105460166931152 L10.385855674743652 11.70541000366211 L10.873809814453125 11.70541000366211 L10.873809814453125 12.105460166931152 L11.17325496673584 12.105460166931152 L11.17325496673584 12.372283935546875 L10.873809814453125 12.372283935546875 L10.873809814453125 13.116976737976074 C10.873809814453125 13.172508239746094 10.88489055633545 13.217082977294922 10.89597225189209 13.228163719177246 C10.918135643005371 13.239370346069336 10.97366714477539 13.25045108795166 11.07339859008789 13.25045108795166 L11.173130989074707 13.25045108795166 L11.173130989074707 13.52823257446289 L10.940173149108887 13.52823257446289 C10.818153381347656 13.52823257446289 10.718297004699707 13.52823257446289 10.651808738708496 13.505945205688477 C10.574114799499512 13.494864463806152 10.5076265335083 13.472577095031738 10.463176727294922 13.428251266479492 C10.407769203186035 13.394758224487305 10.38560676574707 13.328145027160645 10.38560676574707 13.239246368408203 L10.38560676574707 12.372159004211426 L10.130735397338867 12.372159004211426 L10.130735397338867 12.372283935546875 M12.515719413757324 12.816908836364746 C12.482351303100586 12.839195251464844 12.44910717010498 12.850276947021484 12.4269437789917 12.850276947021484 C12.393575668334961 12.861482620239258 12.349125862121582 12.872564315795898 12.293718338012695 12.883769989013672 L12.182780265808105 12.894851684570312 C12.083047866821289 12.905933380126953 11.99427318572998 12.928220748901367 11.938865661621094 12.961463928222656 C11.872377395629883 12.98375129699707 11.850090980529785 13.03928279876709 11.850090980529785 13.106019973754883 C11.850090980529785 13.172632217407227 11.872377395629883 13.217206954956055 11.916703224182129 13.239370346069336 C11.961029052734375 13.272738456726074 12.016560554504395 13.283696174621582 12.083047866821289 13.283696174621582 C12.182780265808105 13.283696174621582 12.27155590057373 13.272614479064941 12.33816909790039 13.228163719177246 C12.404532432556152 13.194795608520508 12.44910717010498 13.161551475524902 12.471145629882812 13.116976737976074 C12.50451374053955 13.072650909423828 12.515594482421875 13.016871452331543 12.515594482421875 12.961339950561523 L12.515594482421875 12.816908836364746 L12.515719413757324 12.816908836364746 L12.515719413757324 12.816908836364746 M12.216024398803711 12.650314331054688 C12.304800033569336 12.639233589172363 12.371413230895996 12.628026962280273 12.426819801330566 12.605865478515625 C12.482226371765137 12.594782829284668 12.515594482421875 12.561539649963379 12.515594482421875 12.50588321685791 C12.515594482421875 12.450227737426758 12.482226371765137 12.416858673095703 12.437776565551758 12.394571304321289 C12.382369041442871 12.372283935546875 12.304800033569336 12.36120319366455 12.20506763458252 12.36120319366455 C12.083047866821289 12.36120319366455 12.005353927612305 12.372283935546875 11.971985816955566 12.416733741760254 C11.92765998840332 12.450227737426758 11.905372619628906 12.494552612304688 11.883210182189941 12.550084114074707 L11.4172945022583 12.550084114074707 C11.4172945022583 12.494552612304688 11.428376197814941 12.438897132873535 11.450538635253906 12.383365631103516 C11.472701072692871 12.338915824890137 11.52823257446289 12.272178649902344 11.617008209228516 12.18327808380127 C11.705658912658691 12.094378471374512 11.905372619628906 12.061135292053223 12.215900421142578 12.061135292053223 C12.426694869995117 12.061135292053223 12.604246139526367 12.08342170715332 12.759385108947754 12.15003490447998 C12.914772987365723 12.216772079467773 12.992342948913574 12.327959060668945 12.992342948913574 12.494677543640137 L12.992342948913574 13.150594711303711 L13.003549575805664 13.317313194274902 C13.003549575805664 13.361639022827148 13.014505386352539 13.395007133483887 13.025711059570312 13.40621280670166 C13.047874450683594 13.428500175476074 13.069912910461426 13.439581871032715 13.103281021118164 13.450663566589355 L13.103281021118164 13.506070137023926 L12.571001052856445 13.506070137023926 C12.559796333312988 13.483906745910645 12.548839569091797 13.450663566589355 12.537632942199707 13.428376197814941 L12.52642822265625 13.339476585388184 C12.460063934326172 13.394883155822754 12.382245063781738 13.450663566589355 12.282513618469238 13.494989395141602 A1.061819076538086 1.061819076538086 0.0 0 1 11.938616752624512 13.550519943237305 C11.772272109985352 13.550519943237305 11.639171600341797 13.517151832580566 11.52823257446289 13.450538635253906 C11.4172945022583 13.372719764709473 11.36188793182373 13.272614479064941 11.36188793182373 13.128183364868164 C11.36188793182373 12.961339950561523 11.42850112915039 12.839195251464844 11.561601638793945 12.783539772033691 C11.6947021484375 12.716802597045898 11.861047744750977 12.683433532714844 12.049554824829102 12.661396026611328 L12.216024398803711 12.650314331054688 L12.216024398803711 12.650314331054688 M15.54379653930664 12.094503402709961 L16.07607650756836 12.094503402709961 L15.399614334106445 13.506070137023926 L14.889373779296875 13.506070137023926 L14.22374439239502 12.094503402709961 L14.767353057861328 12.094503402709961 L15.155699729919434 13.139264106750488 L15.54379653930664 12.094503402709961 L15.54379653930664 12.094503402709961 M16.841686248779297 11.91657829284668 L16.353607177734375 11.91657829284668 L16.353607177734375 11.583141326904297 L16.841686248779297 11.583141326904297 L16.841686248779297 11.91657829284668 M16.353607177734375 12.094503402709961 L16.841686248779297 12.094503402709961 L16.841686248779297 13.506070137023926 L16.353607177734375 13.506070137023926 L16.353607177734375 12.094503402709961 M17.129802703857422 12.372283935546875 L17.129802703857422 12.105460166931152 L17.38492202758789 12.105460166931152 L17.38492202758789 11.70541000366211 L17.873249053955078 11.70541000366211 L17.873249053955078 12.105460166931152 L18.172571182250977 12.105460166931152 L18.172571182250977 12.372283935546875 L17.873249053955078 12.372283935546875 L17.873249053955078 13.116976737976074 C17.873249053955078 13.172508239746094 17.873249053955078 13.217082977294922 17.89541244506836 13.228163719177246 C17.91757583618164 13.239370346069336 17.97298240661621 13.25045108795166 18.07296371459961 13.25045108795166 L18.172571182250977 13.25045108795166 L18.172571182250977 13.52823257446289 L17.939613342285156 13.52823257446289 C17.817594528198242 13.52823257446289 17.71786117553711 13.52823257446289 17.640291213989258 13.505945205688477 C17.573678970336914 13.494864463806152 17.50706672668457 13.472577095031738 17.462739944458008 13.428251266479492 C17.40733528137207 13.394758224487305 17.38492202758789 13.328145027160645 17.38492202758789 13.239246368408203 L17.38492202758789 12.372159004211426 L17.129802703857422 12.372159004211426 L17.129802703857422 12.372283935546875 M19.503829956054688 12.816908836364746 C19.481416702270508 12.839195251464844 19.44817352294922 12.850276947021484 19.415054321289062 12.850276947021484 C19.392641067504883 12.861482620239258 19.34844207763672 12.872564315795898 19.281827926635742 12.883769989013672 L19.182096481323242 12.894851684570312 C19.071157455444336 12.905933380126953 18.99333953857422 12.928220748901367 18.93793296813965 12.961463928222656 C18.87156867980957 12.98375129699707 18.849407196044922 13.03928279876709 18.849407196044922 13.106019973754883 C18.849407196044922 13.172632217407227 18.87156867980957 13.217206954956055 18.915769577026367 13.239370346069336 C18.960220336914062 13.272738456726074 19.015750885009766 13.283696174621582 19.08211326599121 13.283696174621582 C19.182096481323242 13.283696174621582 19.270872116088867 13.272614479064941 19.337236404418945 13.228163719177246 C19.403846740722656 13.194795608520508 19.44817352294922 13.161551475524902 19.470460891723633 13.116976737976074 C19.49262237548828 13.072650909423828 19.503829956054688 13.016871452331543 19.503829956054688 12.961339950561523 L19.503829956054688 12.816908836364746 M19.21533966064453 12.650314331054688 C19.304115295410156 12.639233589172363 19.370479583740234 12.628026962280273 19.425886154174805 12.605865478515625 C19.481292724609375 12.594782829284668 19.514659881591797 12.561539649963379 19.514659881591797 12.50588321685791 C19.514659881591797 12.450227737426758 19.481292724609375 12.416858673095703 19.425886154174805 12.394571304321289 C19.381685256958008 12.372283935546875 19.30398941040039 12.36120319366455 19.192928314208984 12.36120319366455 C19.081989288330078 12.36120319366455 19.00442123413086 12.372283935546875 18.960220336914062 12.416733741760254 C18.926851272583008 12.450227737426758 18.89360809326172 12.494552612304688 18.882400512695312 12.550084114074707 L18.41673469543457 12.550084114074707 C18.41673469543457 12.494552612304688 18.427690505981445 12.438897132873535 18.449851989746094 12.383365631103516 C18.472265243530273 12.338915824890137 18.527671813964844 12.272178649902344 18.6164493560791 12.18327808380127 C18.704975128173828 12.094378471374512 18.90481185913086 12.061135292053223 19.215463638305664 12.061135292053223 C19.415178298950195 12.061135292053223 19.603561401367188 12.08342170715332 19.758949279785156 12.15003490447998 C19.91408920288086 12.216772079467773 19.99165916442871 12.327959060668945 19.99165916442871 12.494677543640137 L19.99165916442871 13.150594711303711 L20.002864837646484 13.317313194274902 C20.002864837646484 13.361639022827148 20.002864837646484 13.395007133483887 20.025026321411133 13.40621280670166 C20.047439575195312 13.428500175476074 20.069477081298828 13.439581871032715 20.10284423828125 13.450663566589355 L20.10284423828125 13.506070137023926 L19.570316314697266 13.506070137023926 C19.55936050415039 13.483906745910645 19.548154830932617 13.450663566589355 19.536949157714844 13.428376197814941 L19.525991439819336 13.339476585388184 C19.45937728881836 13.394883155822754 19.38180923461914 13.450663566589355 19.281827926635742 13.494989395141602 A1.0595779418945312 1.0595779418945312 0.0 0 1 18.93793296813965 13.550519943237305 C18.771587371826172 13.550519943237305 18.63861083984375 13.517151832580566 18.51646614074707 13.450538635253906 C18.41673469543457 13.372719764709473 18.3610782623291 13.272614479064941 18.3610782623291 13.128183364868164 C18.3610782623291 12.961339950561523 18.427690505981445 12.839195251464844 18.560916900634766 12.783539772033691 C18.693893432617188 12.716802597045898 18.86023712158203 12.683433532714844 19.04874610900879 12.661396026611328 L19.21533966064453 12.650314331054688 M20.92348861694336 13.506070137023926 L20.435409545898438 13.506070137023926 L20.435409545898438 11.594347953796387 L20.92348861694336 11.594347953796387 L20.92348861694336 13.506070137023926" fill="black" fill-opacity="1.0" filling="0"/>
<path animation_id="4" d="M3.1426258087158203 13.68399429321289 L20.912282943725586 13.68399429321289" fill="none" filling="0" stroke="black" stroke-opacity="1.0" stroke-width=".3"/></svg>