<?xml version="1.0" encoding="iso-8859-1"?><svg height="200px" viewBox="0.0 0.0 24.0 24.0" width="200px" xmlns="http://www.w3.org/2000/svg"><path animation_id="0" d="M0.0 0.0 L24.0 0.0 L24.0 24.0 L0.0 24.0 L0.0 0.0" fill="black" fill-opacity="1.0" filling="0"/>
<path animation_id="1" d="M3.210857391357422 9.343460083007812 C2.6905317306518555 9.609164237976074 2.3031816482543945 9.885825157165527 2.0153141021728516 10.184647560119629 C1.5503959655761719 10.682811737060547 1.2846918106079102 11.247339248657227 1.2846918106079102 11.756583213806152 C1.2846918106079102 11.845109939575195 1.2957725524902344 11.944842338562012 1.306854248046875 12.022287368774414 C1.417668342590332 12.553694725036621 1.5947208404541016 12.819273948669434 1.8271808624267578 13.029696464538574 C2.2921009063720703 13.461370468139648 2.8344640731811523 13.494490623474121 2.8566274642944336 13.494490623474121 C2.923114776611328 13.494490623474121 2.9894790649414062 13.450289726257324 2.9894790649414062 13.372719764709473 C2.9894790649414062 13.295150756835938 2.9452781677246094 13.261906623840332 2.8898706436157227 13.250825881958008 C2.867708206176758 13.23974323272705 2.546722412109375 13.18446159362793 2.247899055480957 12.752786636352539 C2.1150474548339844 12.586689949035645 1.993276596069336 12.354229927062988 1.9378700256347656 11.844985961914062 C1.8271808624267578 11.014754295349121 2.447114944458008 10.051671981811523 3.3879098892211914 9.553632736206055 C4.074207782745361 9.177240371704102 5.004046440124512 9.055468559265137 5.87847900390625 9.188321113586426 C6.763991832733154 9.34333610534668 7.206872940063477 9.553632736206055 7.749237537384033 10.095996856689453 C8.269439697265625 10.62740421295166 8.612587928771973 11.535080909729004 8.612587928771973 12.398431777954102 C8.612587928771973 12.442631721496582 8.612587928771973 12.487082481384277 8.601631164550781 12.520326614379883 C8.590550422668457 12.985121726989746 8.479736328125 13.85980224609375 7.904127597808838 14.61246395111084 C7.22891092300415 15.520139694213867 6.099856853485107 15.974102973937988 4.57224702835083 15.974102973937988 C3.930150032043457 15.974102973937988 3.3212966918945312 15.985182762145996 2.922865867614746 15.996265411376953 C4.107327461242676 15.387412071228027 4.859989166259766 13.649505615234375 5.435722351074219 12.343274116516113 C5.590612411499023 11.966880798339844 5.7345452308654785 11.634937286376953 5.867397308349609 11.391271591186523 C6.487331390380859 10.21789264678955 7.195667266845703 10.173566818237305 7.217830181121826 10.173566818237305 C7.2731122970581055 10.173566818237305 7.317437648773193 10.118160247802734 7.317437648773193 10.073958396911621 C7.317437648773193 10.00759506225586 7.262155532836914 9.963269233703613 7.217830181121826 9.963269233703613 C7.151341915130615 9.963269233703613 6.276909351348877 9.874743461608887 5.347071170806885 10.749175071716309 C5.003921985626221 11.070161819458008 4.704974174499512 11.557243347167969 4.450351715087891 12.177177429199219 C4.007595539093018 13.261906623840332 3.6422834396362305 14.103218078613281 3.3433351516723633 14.678827285766602 C3.1108760833740234 15.143746376037598 2.823134422302246 15.630828857421875 2.468904495239258 15.807881355285645 C2.070347785949707 16.018177032470703 1.6165103912353516 15.99614143371582 1.6165103912353516 15.99614143371582 C1.605428695678711 15.99614143371582 1.5389404296875 15.99614143371582 1.4947395324707031 16.040342330932617 C1.4725770950317383 16.062503814697266 1.4505386352539062 16.095623016357422 1.4505386352539062 16.151029586791992 C1.4505386352539062 16.21739387512207 1.4727020263671875 16.261844635009766 1.4947395324707031 16.28388214111328 C1.5389404296875 16.31712532043457 1.5832653045654297 16.31712532043457 1.605428695678711 16.31712532043457 C1.6165103912353516 16.31712532043457 2.468904495239258 16.339290618896484 4.638486385345459 16.339290618896484 C6.476000785827637 16.339290618896484 7.837514877319336 15.907613754272461 8.678827285766602 15.066301345825195 C9.464733123779297 14.302434921264648 9.630828857421875 13.339351654052734 9.630828857421875 12.675216674804688 C9.630828857421875 11.712258338928223 9.243354797363281 10.738093376159668 8.579219818115234 10.073834419250488 C7.815476894378662 9.310091972351074 7.106891632080078 9.000061988830566 5.900392532348633 8.867335319519043 C4.9929656982421875 8.77880859375 3.9856815338134766 8.955986022949219 3.210857391357422 9.343460083007812 L3.210857391357422 9.343460083007812 M12.486957550048828 11.413434982299805 L12.498163223266602 11.413434982299805 C11.313702583312988 11.413434982299805 10.073958396911621 12.509244918823242 9.71972942352295 13.84872055053711 C9.531595230102539 14.568262100219727 9.63120174407959 15.265642166137695 9.996514320373535 15.730560302734375 C10.295336723327637 16.11791229248047 10.738219261169434 16.328332901000977 11.247339248657227 16.328332901000977 C12.42059326171875 16.328332901000977 13.671544075012207 15.232397079467773 14.025650024414062 13.892922401428223 C14.213907241821289 13.162423133850098 14.114424705505371 12.476125717163086 13.749113082885742 12.000123977661133 C13.450165748596191 11.623732566833496 13.00740909576416 11.413434982299805 12.486957550048828 11.413434982299805 L12.486957550048828 11.413434982299805 M10.837701797485352 15.940858840942383 C10.693768501281738 15.874370574951172 10.594160079956055 15.741518020629883 10.538878440856934 15.553383827209473 C10.361701011657715 15.022100448608398 10.516715049743652 14.169707298278809 10.915146827697754 13.383801460266113 C11.468592643737793 12.276784896850586 12.420469284057617 11.535204887390137 12.92971420288086 11.800785064697266 C13.0624418258667 11.86727237701416 13.151217460632324 11.989043235778809 13.217580795288086 12.177177429199219 C13.383676528930664 12.708460807800293 13.228538513183594 13.56072998046875 12.830230712890625 14.357841491699219 C12.25474739074707 15.47593879699707 11.346822738647461 16.206562042236328 10.837701797485352 15.940858840942383 L10.837701797485352 15.940858840942383 M21.054847717285156 11.468717575073242 C20.34650993347168 11.490880012512207 18.97391700744629 11.966755867004395 18.287616729736328 13.693706512451172 C17.922056198120117 14.61246395111084 18.088151931762695 15.210235595703125 18.298574447631836 15.564464569091797 C18.59739875793457 16.051424026489258 19.09543800354004 16.272802352905273 19.460996627807617 16.31712532043457 C20.844425201416016 16.472015380859375 21.929279327392578 14.74519157409668 21.962648391723633 14.689908981323242 C21.995765686035156 14.634626388549805 21.98480987548828 14.535018920898438 21.896284103393555 14.479736328125 C21.796550750732422 14.42432975769043 21.708026885986328 14.468530654907227 21.674779891967773 14.523937225341797 C21.674779891967773 14.535018920898438 20.73386001586914 16.007221221923828 19.63817596435547 15.98505973815918 C19.206501007080078 15.973978042602539 18.99620246887207 15.697192192077637 18.962833404541016 15.099546432495117 L18.962833404541016 15.022100448608398 C18.962833404541016 14.667745590209961 19.073522567749023 14.302558898925781 19.128931045532227 14.16958236694336 C19.494239807128906 14.19174575805664 21.365001678466797 14.258109092712402 22.006973266601562 12.929839134216309 C22.17306900024414 12.575608253479004 22.17306900024414 12.221502304077148 21.98480987548828 11.933636665344238 C21.796550750732422 11.63481330871582 21.442195892333984 11.468717575073242 21.054847717285156 11.468717575073242 L21.054847717285156 11.468717575073242 M20.81130599975586 11.82294750213623 C21.021602630615234 11.745502471923828 21.19865608215332 11.767664909362793 21.353546142578125 11.86727237701416 C21.442073822021484 11.922554969787598 21.508684158325195 12.01120662689209 21.519641876220703 12.121770858764648 C21.553009033203125 12.298948287963867 21.497478485107422 12.61993408203125 21.06580352783203 13.173379898071289 C20.490196228027344 13.892797470092773 19.560232162475586 13.870759010314941 19.26140785217285 13.848596572875977 C19.726577758789062 12.586814880371094 20.368549346923828 11.966755867004395 20.81130599975586 11.82294750213623 L20.81130599975586 11.82294750213623" fill="black" fill-opacity="1.0" filling="0"/>
<path animation_id="2" d="M17.169395446777344 11.56832504272461 C17.136028289794922 11.623732566833496 17.113988876342773 11.69021987915039 17.113988876342773 11.745502471923828 C17.113988876342773 11.811989784240723 17.136150360107422 11.86727237701416 17.169395446777344 11.922554969787598 C17.224803924560547 11.989043235778809 17.313329696655273 12.000123977661133 17.37969398498535 12.000123977661133 C17.390649795532227 12.000123977661133 17.423892974853516 12.000123977661133 17.446056365966797 12.01120662689209 C17.7006778717041 12.099732398986816 17.789203643798828 12.465044021606445 17.800411224365234 12.80819320678711 C17.811368942260742 12.996326446533203 17.722843170166016 13.649505615234375 17.62310791015625 13.870759010314941 C17.02533721923828 15.176990509033203 16.095623016357422 16.073585510253906 15.42040729522705 15.974102973937988 C15.287679672241211 15.95193862915039 15.210110664367676 15.89653205871582 15.16578483581543 15.808006286621094 C15.010894775390625 15.50918197631836 15.209985733032227 14.822885513305664 15.68598747253418 13.915209770202637 C15.818964004516602 13.67166805267334 16.449853897094727 12.431924819946289 16.073585510253906 11.778745651245117 C15.951690673828125 11.546286582946777 15.719230651855469 11.424515724182129 15.387039184570312 11.402478218078613 C14.435161590576172 11.347195625305176 14.069974899291992 12.033369064331055 14.047811508178711 12.06661319732666 C14.025400161743164 12.121895790100098 14.025400161743164 12.199339866638184 14.092012405395508 12.25487232208252 C14.18053913116455 12.321235656738281 14.25786018371582 12.277033805847168 14.291228294372559 12.243789672851562 C14.302434921264648 12.232708930969238 14.778310775756836 11.657100677490234 15.232148170471191 11.756708145141602 C15.276350021362305 11.767789840698242 15.29851245880127 11.778870582580566 15.309718132019043 11.82307243347168 C15.464609146118164 12.188383102416992 14.877793312072754 13.395007133483887 14.68978500366211 13.782357215881348 C14.512481689453125 14.158624649047852 14.047811508178711 15.265642166137695 14.44611930847168 15.874494552612305 C14.623420715332031 16.16236114501953 14.944406509399414 16.30629539489746 15.398119926452637 16.31737518310547 C17.036418914794922 16.361576080322266 18.088027954101562 13.815601348876953 18.23196029663086 13.129427909851074 C18.23196029663086 13.096183776855469 18.453216552734375 12.16634464263916 18.121273040771484 11.690343856811523 C18.010581970214844 11.524248123168945 17.855445861816406 11.435722351074219 17.66731071472168 11.402478218078613 C17.346446990966797 11.358152389526367 17.213722229003906 11.491004943847656 17.169395446777344 11.56832504272461 L17.169395446777344 11.56832504272461 M22.316627502441406 15.08858871459961 L22.361080169677734 15.08858871459961 C22.427444458007812 15.08858871459961 22.493804931640625 15.08858871459961 22.493804931640625 15.166033744812012 C22.493804931640625 15.210235595703125 22.449604034423828 15.254560470581055 22.394073486328125 15.254560470581055 L22.316505432128906 15.254560470581055 L22.316505432128906 15.08858871459961 L22.316627502441406 15.08858871459961 L22.316627502441406 15.08858871459961 M22.27242660522461 15.47593879699707 L22.316627502441406 15.47593879699707 L22.316627502441406 15.287679672241211 L22.38323974609375 15.287679672241211 L22.515968322753906 15.47593879699707 L22.571125030517578 15.47593879699707 L22.438400268554688 15.287679672241211 C22.47176742553711 15.276598930358887 22.538131713867188 15.243478775024414 22.538131713867188 15.165909767150879 C22.538131713867188 15.110627174377441 22.515968322753906 15.088464736938477 22.482725143432617 15.066301345825195 C22.460561752319336 15.044013977050781 22.41636085510254 15.044013977050781 22.361080169677734 15.044013977050781 L22.27230453491211 15.044013977050781 L22.27230453491211 15.47593879699707 L22.27242660522461 15.47593879699707 M22.394197463989258 14.91141128540039 C22.20594024658203 14.91141128540039 22.06200408935547 15.066425323486328 22.06200408935547 15.265642166137695 C22.06200408935547 15.464982032775879 22.20594024658203 15.619997024536133 22.394197463989258 15.619997024536133 C22.571250915527344 15.619997024536133 22.71518325805664 15.464982032775879 22.71518325805664 15.265642166137695 C22.715309143066406 15.066425323486328 22.571250915527344 14.91141128540039 22.394197463989258 14.91141128540039 M22.394197463989258 14.944531440734863 C22.549087524414062 14.944531440734863 22.68194007873535 15.088464736938477 22.68194007873535 15.265518188476562 C22.68194007873535 15.442694664001465 22.549213409423828 15.586503028869629 22.394197463989258 15.586503028869629 C22.22810173034668 15.586503028869629 22.106456756591797 15.442694664001465 22.106456756591797 15.265518188476562 C22.106578826904297 15.08858871459961 22.22810173034668 14.944531440734863 22.394197463989258 14.944531440734863" fill="black" fill-opacity="1.0" filling="0"/>
<path animation_id="3" d="M11.19193172454834 9.520512580871582 C11.19193172454834 9.520512580871582 12.0 9.830418586730957 12.95187759399414 10.350619316101074 C14.49044418334961 11.214095115661621 15.763556480407715 11.20301342010498 16.48309898376465 10.184647560119629 C16.958972930908203 9.520512580871582 17.335491180419922 8.745564460754395 17.97746467590332 8.490942001342773 C17.97746467590332 8.490942001342773 17.87773323059082 8.413496971130371 17.822574615478516 8.34700870513916 C17.689598083496094 8.21428108215332 17.5015869140625 8.070348739624023 17.3021240234375 8.059142112731934 C16.68218994140625 8.003859519958496 16.18415069580078 8.823009490966797 16.007221221923828 8.723401069641113 C15.763556480407715 8.590550422668457 16.516216278076172 7.948453426361084 15.708149909973145 7.339725017547607 C14.778434753417969 6.6312642097473145 12.830355644226074 8.424453735351562 11.667932510375977 8.169831275939941 C11.667932510375977 8.169831275939941 12.199339866638184 8.811928749084473 13.461121559143066 8.911535263061523 C14.092137336730957 8.955862045288086 14.081056594848633 9.099794387817383 14.081056594848633 9.15507698059082 C14.092262268066406 9.786216735839844 11.19193172454834 9.520512580871582 11.19193172454834 9.520512580871582" fill="black" fill-opacity="1.0" filling="0"/></svg>