<?xml version="1.0" encoding="iso-8859-1"?><svg height="200px" viewBox="0.0 0.0 24.0 24.0" width="200px" xmlns="http://www.w3.org/2000/svg"><path animation_id="0" d="M0.0 0.0 L24.0 0.0 L24.0 24.0 L0.0 24.0 L0.0 0.0" fill="black" fill-opacity="1.0" filling="0"/>
<path animation_id="1" d="M3.4604997634887695 15.732927322387695 L9.339725494384766 4.734732151031494 L13.014132499694824 4.734732151031494 L15.016372680664062 15.732927322387695 L3.4604997634887695 15.732927322387695" fill="black" fill-opacity="1.0" filling="0"/>
<path animation_id="2" d="M11.46846866607666 15.732927322387695 L11.46846866607666 8.130486488342285 L9.289050102233887 8.130486488342285 L9.289050102233887 15.732927322387695 L11.46846866607666 15.732927322387695 L11.46846866607666 15.732927322387695" fill="black" fill-opacity="1.0" filling="0"/>
<path animation_id="3" d="M14.813547134399414 13.2493314743042 L14.813547134399414 11.08273696899414 L6.767602920532227 11.08273696899414 L6.767602920532227 13.2493314743042 L14.813547134399414 13.2493314743042 L14.813547134399414 13.2493314743042" fill="black" fill-opacity="1.0" filling="0"/>
<path animation_id="4" d="M3.3591480255126953 17.620742797851562 L3.3718490600585938 17.950197219848633 L3.8914270401000977 17.950197219848633 L3.6633262634277344 16.379009246826172 L2.991720199584961 16.379009246826172 L2.2187633514404297 17.950197219848633 L2.738218307495117 17.950197219848633 L2.864969253540039 17.620742797851562 L3.3591480255126953 17.620742797851562 L3.3591480255126953 17.620742797851562 M3.3338727951049805 17.304241180419922 L3.004420280456543 17.304241180419922 L3.143871307373047 16.97478675842285 C3.1818466186523438 16.873435974121094 3.2198219299316406 16.77195930480957 3.2704973220825195 16.645334243774414 L3.2958974838256836 16.645334243774414 C3.2958974838256836 16.772085189819336 3.2958974838256836 16.873435974121094 3.3085975646972656 16.97478675842285 L3.3338727951049805 17.304241180419922 M4.512233257293701 17.950321197509766 L4.79101037979126 16.366432189941406 L4.334806442260742 16.366432189941406 L4.056029319763184 17.950321197509766 L4.512233257293701 17.950321197509766 M4.664134979248047 18.49505043029785 L5.1203389167785645 18.49505043029785 L5.234389781951904 17.886821746826172 C5.285065174102783 17.925045013427734 5.32304048538208 17.937620162963867 5.361140251159668 17.9628963470459 C5.424516201019287 17.975597381591797 5.475191593170166 17.975597381591797 5.538567066192627 17.975597381591797 C5.703293323516846 17.975597381591797 5.842619895935059 17.925045013427734 5.944095611572266 17.83626937866211 C6.058021545410156 17.734920501708984 6.134097099304199 17.570194244384766 6.172196865081787 17.36736488342285 C6.210172653198242 17.139265060424805 6.172196865081787 16.98723793029785 6.096121311187744 16.898462295532227 C6.020171165466309 16.809688568115234 5.8934197425842285 16.759136199951172 5.766668796539307 16.759136199951172 C5.690593242645264 16.759136199951172 5.627217769622803 16.77183723449707 5.563967227935791 16.797361373901367 C5.50059175491333 16.809810638427734 5.462616443634033 16.83533477783203 5.411940574645996 16.860610961914062 L5.424640655517578 16.784534454345703 L4.9684367179870605 16.784534454345703 L4.664134979248047 18.49505043029785 L4.664134979248047 18.49505043029785 M5.361140251159668 17.16478729248047 C5.399116039276123 17.139265060424805 5.437215805053711 17.126564025878906 5.462367057800293 17.113988876342773 C5.513166904449463 17.101287841796875 5.551142692565918 17.088714599609375 5.576542377471924 17.088714599609375 C5.627217769622803 17.088714599609375 5.67789363861084 17.10141372680664 5.690593242645264 17.15196418762207 C5.715993404388428 17.190189361572266 5.715993404388428 17.266014099121094 5.703293323516846 17.38006591796875 C5.67789363861084 17.494117736816406 5.652617931365967 17.5576171875 5.627217769622803 17.59546661376953 C5.589242458343506 17.63344383239746 5.525866985321045 17.658720016479492 5.487891674041748 17.658720016479492 C5.449915885925293 17.658720016479492 5.411940574645996 17.646018981933594 5.373840808868408 17.63344383239746 C5.335740566253662 17.620868682861328 5.297889709472656 17.60816764831543 5.285190105438232 17.5828914642334 L5.361140251159668 17.16478729248047 M7.527734756469727 17.950321197509766 L7.654485702514648 17.22804069519043 C7.679885387420654 17.076013565063477 7.6673102378845215 16.949386596679688 7.616510391235352 16.885887145996094 C7.5658345222473145 16.809810638427734 7.464483737945557 16.77183723449707 7.325157642364502 16.77183723449707 C7.249082088470459 16.77183723449707 7.173130989074707 16.784534454345703 7.109755516052246 16.809810638427734 C7.033804416656494 16.82276153564453 6.957729339599609 16.860610961914062 6.894353866577148 16.89858627319336 L6.881653785705566 16.89858627319336 L6.970304489135742 16.36655616760254 L6.514225482940674 16.36655616760254 L6.235448360443115 17.95044708251953 L6.691651821136475 17.95044708251953 L6.8184027671813965 17.228164672851562 A0.5206997990608215 0.5206997990608215 0.0 0 1 6.9578537940979 17.152090072631836 C6.995829105377197 17.139389038085938 7.046504974365234 17.126813888549805 7.084604740142822 17.126813888549805 C7.135279655456543 17.126813888549805 7.160680294036865 17.139514923095703 7.173255443572998 17.165037155151367 C7.18595552444458 17.215587615966797 7.18595552444458 17.278839111328125 7.160555362701416 17.380313873291016 L7.059204578399658 17.95056915283203 L7.527734756469727 17.95056915283203 L7.527734756469727 17.950321197509766 L7.527734756469727 17.950321197509766 M8.984996795654297 17.950321197509766 L8.984996795654297 17.937620162963867 C8.959720611572266 17.9249210357666 8.959720611572266 17.874120712280273 8.972296714782715 17.78534507751465 L9.073647499084473 17.240615844726562 C9.13702392578125 16.860485076904297 8.908921241760254 16.771711349487305 8.566768646240234 16.771711349487305 C8.161364555358887 16.771711349487305 7.983938694000244 16.949262619018555 7.895163059234619 17.11386489868164 L8.35136604309082 17.151840209960938 C8.389341354370117 17.08858871459961 8.440017700195312 17.025089263916016 8.515969276428223 17.025089263916016 C8.604743957519531 17.025089263916016 8.630019187927246 17.08858871459961 8.617444038391113 17.177114486694336 L8.617444038391113 17.21533966064453 C7.97123908996582 17.27859115600586 7.768411636352539 17.41816520690918 7.7304368019104 17.646018981933594 C7.6924614906311035 17.848844528198242 7.831787586212158 17.98817253112793 8.148540496826172 17.98817253112793 C8.31326675415039 17.98817253112793 8.42731761932373 17.937620162963867 8.503393173217773 17.899396896362305 C8.503393173217773 17.9249210357666 8.516093254089355 17.950197219848633 8.516093254089355 17.9628963470459 L8.984996795654297 17.950321197509766 L8.984996795654297 17.950321197509766 M8.528793334960938 17.658720016479492 A0.7121956944465637 0.7121956944465637 0.0 0 1 8.30081558227539 17.696943283081055 C8.23744010925293 17.696943283081055 8.199464797973633 17.671667098999023 8.212164878845215 17.60816764831543 C8.224864959716797 17.532093048095703 8.326215744018555 17.468841552734375 8.566892623901367 17.45614242553711 L8.528793334960938 17.658720016479492 M11.645894050598145 16.379131317138672 L11.151591300964355 16.379131317138672 L11.050239562988281 16.987363815307617 L10.429433822631836 16.987363815307617 L10.543485641479492 16.379131317138672 L10.061881065368652 16.379131317138672 L9.783227920532227 17.950321197509766 L10.264708518981934 17.950321197509766 L10.378634452819824 17.304241180419922 L10.986988067626953 17.304241180419922 L10.872937202453613 17.950321197509766 L11.366992950439453 17.950321197509766 L11.645894050598145 16.379131317138672 L11.645894050598145 16.379131317138672 M13.026832580566406 17.38006591796875 C13.09033203125 16.949386596679688 12.849529266357422 16.77183723449707 12.44412612915039 16.77183723449707 C12.038599014282227 16.77183723449707 11.721844673156738 16.949386596679688 11.658470153808594 17.38006591796875 C11.595094680786133 17.709518432617188 11.74712085723877 17.975597381591797 12.228724479675293 17.975597381591797 C12.684927940368652 17.975597381591797 12.951005935668945 17.73479461669922 13.014256477355957 17.38006591796875 L13.026832580566406 17.38006591796875 L13.026832580566406 17.38006591796875 M12.279275894165039 17.696943283081055 C12.1652250289917 17.696943283081055 12.089149475097656 17.595592498779297 12.127249717712402 17.38006591796875 C12.1652250289917 17.15196418762207 12.279275894165039 17.050737380981445 12.393326759338379 17.050737380981445 C12.494677543640137 17.050737380981445 12.583453178405762 17.151840209960938 12.545352935791016 17.38006591796875 C12.507377624511719 17.5828914642334 12.38075065612793 17.696943283081055 12.279275894165039 17.696943283081055 M15.104775428771973 17.950321197509766 L15.231526374816895 17.240739822387695 C15.269750595092773 17.050861358642578 15.244226455688477 16.936811447143555 15.193550109863281 16.87331199645996 C15.142999649047852 16.7974853515625 15.041523933410645 16.77195930480957 14.927473068237305 16.77195930480957 C14.838698387145996 16.77195930480957 14.749921798706055 16.78466033935547 14.67409610748291 16.8099365234375 C14.598020553588867 16.848159790039062 14.534769058227539 16.886011123657227 14.471269607543945 16.924236297607422 L14.458569526672363 16.924236297607422 C14.445869445800781 16.873435974121094 14.408019065856934 16.848159790039062 14.38249397277832 16.822885513305664 C14.33194351196289 16.78466033935547 14.255743026733398 16.772085189819336 14.167216300964355 16.772085189819336 C14.078441619873047 16.772085189819336 13.989665985107422 16.784786224365234 13.926414489746094 16.810060501098633 C13.85033893585205 16.83558464050293 13.786839485168457 16.87356185913086 13.723588943481445 16.91141128540039 L13.710888862609863 16.91141128540039 L13.736164093017578 16.797611236572266 L13.279959678649902 16.797611236572266 L13.077383041381836 17.95056915283203 L13.533337593078613 17.95056915283203 L13.660088539123535 17.24098777770996 C13.698312759399414 17.203014373779297 13.736164093017578 17.177488327026367 13.774139404296875 17.15221405029297 C13.824939727783203 17.139514923095703 13.8629150390625 17.126937866210938 13.888190269470215 17.126937866210938 C13.926414489746094 17.126937866210938 13.951690673828125 17.139636993408203 13.964265823364258 17.165163040161133 C13.97696590423584 17.20313835144043 13.97696590423584 17.266263961791992 13.964265823364258 17.38043975830078 L13.8629150390625 17.950695037841797 L14.31911849975586 17.950695037841797 L14.445869445800781 17.241113662719727 C14.483845710754395 17.20313835144043 14.52194595336914 17.177614212036133 14.559921264648438 17.1523380279541 C14.610471725463867 17.139636993408203 14.648695945739746 17.12706184387207 14.673971176147461 17.12706184387207 C14.711946487426758 17.12706184387207 14.737222671508789 17.13976287841797 14.749797821044922 17.165287017822266 C14.762746810913086 17.203262329101562 14.762746810913086 17.266389846801758 14.749797821044922 17.36786460876465 L14.648695945739746 17.95081901550293 L15.104775428771973 17.95081901550293 L15.104775428771973 17.950321197509766 L15.104775428771973 17.950321197509766 M16.70136260986328 17.468841552734375 C16.739587783813477 17.253440856933594 16.71406364440918 17.063438415527344 16.587310791015625 16.924110412597656 C16.486209869384766 16.809810638427734 16.333934783935547 16.77183723449707 16.14393424987793 16.77183723449707 C15.928531646728516 16.77183723449707 15.751229286193848 16.822635650634766 15.624479293823242 16.911163330078125 C15.472203254699707 17.02521514892578 15.383676528930664 17.1900634765625 15.35840129852295 17.36736488342285 C15.32017707824707 17.582767486572266 15.35840129852295 17.73479461669922 15.459503173828125 17.83626937866211 C15.560853958129883 17.937620162963867 15.738405227661133 17.975597381591797 15.928407669067383 17.975597381591797 C16.13123321533203 17.975597381591797 16.283260345458984 17.925045013427734 16.409887313842773 17.86154556274414 A0.7738280892372131 0.7738280892372131 0.0 0 0 16.66326332092285 17.620742797851562 L16.181785583496094 17.59546661376953 C16.13123321533203 17.67154312133789 16.067733764648438 17.722219467163086 15.979207992553711 17.722219467163086 C15.852456092834473 17.722219467163086 15.801656723022461 17.64614486694336 15.801656723022461 17.468841552734375 L16.70136260986328 17.468841552734375 L16.70136260986328 17.468841552734375 M15.83975601196289 17.25331687927246 C15.903255462646484 17.088714599609375 15.992032051086426 17.02521514892578 16.0931339263916 17.02521514892578 C16.19448471069336 17.02521514892578 16.24540901184082 17.088714599609375 16.257984161376953 17.25331687927246 L15.83975601196289 17.25331687927246 L15.83975601196289 17.25331687927246 M18.513229370117188 17.35478973388672 C18.44997787475586 17.544668197631836 18.335927963256836 17.671667098999023 18.17107582092285 17.671667098999023 C17.9937744140625 17.671667098999023 17.879722595214844 17.519393920898438 17.943222045898438 17.1772403717041 C18.0064754486084 16.822635650634766 18.145801544189453 16.670486450195312 18.348628997802734 16.670486450195312 C18.513229370117188 16.670486450195312 18.564029693603516 16.77183723449707 18.576730728149414 16.962087631225586 L19.070907592773438 16.924110412597656 C19.070907592773438 16.505884170532227 18.779308319091797 16.35385513305664 18.41187858581543 16.35385513305664 C18.19659996032715 16.35385513305664 17.993900299072266 16.404407501220703 17.829174041748047 16.51845932006836 C17.63904571533203 16.657785415649414 17.499719619750977 16.860610961914062 17.448795318603516 17.15196418762207 C17.398242950439453 17.494117736816406 17.461746215820312 17.709644317626953 17.601072311401367 17.83626937866211 C17.727821350097656 17.950321197509766 17.93039894104004 17.988296508789062 18.120525360107422 17.988296508789062 C18.44997787475586 17.988296508789062 18.83010482788086 17.823694229125977 18.994709014892578 17.40534210205078 L18.513229370117188 17.35478973388672 L18.513229370117188 17.35478973388672 M20.337919235229492 17.950321197509766 L20.337919235229492 17.937620162963867 C20.312644958496094 17.9249210357666 20.312644958496094 17.874120712280273 20.325220108032227 17.78534507751465 L20.426570892333984 17.240615844726562 C20.489822387695312 16.860485076904297 20.26171875 16.771711349487305 19.919815063476562 16.771711349487305 C19.514163970947266 16.771711349487305 19.33686065673828 16.949262619018555 19.235511779785156 17.11386489868164 L19.691715240478516 17.151840209960938 C19.729690551757812 17.08858871459961 19.780241012573242 17.025089263916016 19.869016647338867 17.025089263916016 C19.95779037475586 17.025089263916016 19.98306655883789 17.08858871459961 19.970367431640625 17.177114486694336 L19.957666397094727 17.21533966064453 C19.324161529541016 17.27859115600586 19.121334075927734 17.41816520690918 19.083484649658203 17.646018981933594 C19.045509338378906 17.848844528198242 19.184833526611328 17.98817253112793 19.50146484375 17.98817253112793 C19.66631317138672 17.98817253112793 19.78011703491211 17.937620162963867 19.84361457824707 17.899396896362305 L19.85631561279297 17.899396896362305 C19.85631561279297 17.9249210357666 19.85631561279297 17.950197219848633 19.869016647338867 17.9628963470459 L20.337919235229492 17.950321197509766 L20.337919235229492 17.950321197509766 M19.881715774536133 17.658720016479492 A0.7728319764137268 0.7728319764137268 0.0 0 1 19.653614044189453 17.696943283081055 C19.590362548828125 17.696943283081055 19.55251121520996 17.671667098999023 19.55251121520996 17.60816764831543 C19.56521224975586 17.532093048095703 19.666563034057617 17.468841552734375 19.919940948486328 17.45614242553711 L19.881715774536133 17.658720016479492 M21.174251556396484 16.89858627319336 L21.199527740478516 16.7974853515625 L20.743324279785156 16.7974853515625 L20.528045654296875 17.95044708251953 L20.9969482421875 17.95044708251953 L21.11075210571289 17.26613998413086 C21.16155242919922 17.228164672851562 21.199527740478516 17.1903133392334 21.250078201293945 17.165037155151367 C21.300878524780273 17.126813888549805 21.338851928710938 17.114238739013672 21.376829147338867 17.114238739013672 C21.402355194091797 17.114238739013672 21.44032859802246 17.126937866210938 21.452903747558594 17.139514923095703 C21.478179931640625 17.15221405029297 21.49112892150879 17.165037155151367 21.503704071044922 17.177488327026367 L21.60480499267578 16.797611236572266 C21.59210777282715 16.78466033935547 21.566831588745117 16.78466033935547 21.541555404663086 16.772085189819336 C21.516281127929688 16.772085189819336 21.491004943847656 16.759384155273438 21.465478897094727 16.759384155273438 C21.40222930908203 16.759384155273438 21.35167694091797 16.78466033935547 21.313453674316406 16.8099365234375 C21.262901306152344 16.835460662841797 21.22467803955078 16.860736846923828 21.186702728271484 16.898712158203125 L21.174251556396484 16.898712158203125 L21.174251556396484 16.89858627319336 L21.174251556396484 16.89858627319336 M22.92274284362793 17.468841552734375 C22.960716247558594 17.253440856933594 22.948017120361328 17.063438415527344 22.808692932128906 16.924110412597656 C22.707340240478516 16.809810638427734 22.555313110351562 16.77183723449707 22.365310668945312 16.77183723449707 C22.14990997314453 16.77183723449707 21.984935760498047 16.822635650634766 21.858306884765625 16.911163330078125 C21.706281661987305 17.02521514892578 21.617755889892578 17.1900634765625 21.579654693603516 17.36736488342285 C21.54167938232422 17.582767486572266 21.579654693603516 17.73479461669922 21.693706512451172 17.83626937866211 C21.79505729675293 17.937620162963867 21.959781646728516 17.975597381591797 22.162609100341797 17.975597381591797 C22.352737426757812 17.975597381591797 22.51746368408203 17.925045013427734 22.631513595581055 17.86154556274414 C22.75826644897461 17.78546905517578 22.84691619873047 17.696943283081055 22.89759063720703 17.620742797851562 L22.41611099243164 17.59546661376953 C22.352859497070312 17.67154312133789 22.28936004638672 17.722219467163086 22.20071029663086 17.722219467163086 C22.086660385131836 17.722219467163086 22.036108016967773 17.64614486694336 22.036108016967773 17.468841552734375 L22.92274284362793 17.468841552734375 L22.92274284362793 17.468841552734375 M22.073711395263672 17.25331687927246 C22.137210845947266 17.088714599609375 22.225984573364258 17.02521514892578 22.32708740234375 17.02521514892578 C22.415863037109375 17.02521514892578 22.47936248779297 17.088714599609375 22.4919376373291 17.25331687927246 L22.073711395263672 17.25331687927246" fill="black" fill-opacity="1.0" filling="0"/></svg>