<?xml version="1.0" encoding="iso-8859-1"?><svg height="200px" viewBox="0.0 0.0 24.0 24.0" width="200px" xmlns="http://www.w3.org/2000/svg"><path animation_id="0" d="M0.0 12.0 L0.0 17.880001068115234 L24.0 17.880001068115234 L24.0 6.119999885559082 L0.0 6.119999885559082 L0.0 12.0 M16.042665481567383 8.453332901000977 C16.157333374023438 8.474666595458984 16.261333465576172 8.503999710083008 16.277334213256836 8.520000457763672 C16.290668487548828 8.533332824707031 16.31999969482422 8.546667098999023 16.338666915893555 8.546667098999023 C16.360000610351562 8.546667098999023 16.413333892822266 8.573333740234375 16.461334228515625 8.60533332824707 C16.746665954589844 8.808000564575195 16.88800048828125 8.97599983215332 17.002666473388672 9.25333309173584 C17.069332122802734 9.41866683959961 17.079999923706055 9.472000122070312 17.079999923706055 9.733333587646484 C17.079999923706055 10.208000183105469 16.994667053222656 10.800000190734863 16.885334014892578 11.066666603088379 C16.738666534423828 11.432000160217285 16.402666091918945 11.786666870117188 16.029333114624023 11.973333358764648 C15.717333793640137 12.130666732788086 15.602665901184082 12.146666526794434 14.781332969665527 12.146666526794434 C14.208000183105469 12.146666526794434 14.02400016784668 12.154666900634766 14.007999420166016 12.178667068481445 C13.986666679382324 12.213333129882812 13.978667259216309 12.28266716003418 13.922666549682617 12.813333511352539 C13.904000282287598 12.981332778930664 13.874666213989258 13.221332550048828 13.858667373657227 13.34666633605957 L13.826666831970215 13.573333740234375 L12.25333309173584 13.573333740234375 L12.256000518798828 13.50666618347168 C12.266666412353516 13.34666633605957 12.298666954040527 13.045333862304688 12.333333015441895 12.786666870117188 C12.405333518981934 12.248000144958496 12.432000160217285 12.02400016784668 12.453332901000977 11.800000190734863 C12.46399974822998 11.674666404724121 12.48799991607666 11.482666969299316 12.501333236694336 11.373332977294922 C12.562666893005371 10.95199966430664 12.592000007629395 10.711999893188477 12.613333702087402 10.49333381652832 C12.690666198730469 9.639999389648438 12.81066608428955 9.314666748046875 13.184000015258789 8.935999870300293 C13.447999954223633 8.669333457946777 13.704000473022461 8.527999877929688 14.066666603088379 8.453332901000977 C14.309332847595215 8.399999618530273 15.773333549499512 8.399999618530273 16.042665481567383 8.453332901000977 L16.042665481567383 8.453332901000977 M4.573333263397217 8.498666763305664 C4.5920000076293945 8.517333030700684 4.578666687011719 8.661333084106445 4.493333339691162 9.333333015441895 C4.389333248138428 10.162666320800781 4.389333248138428 10.14133358001709 4.437333106994629 10.213333129882812 L4.480000019073486 10.279999732971191 L5.591999530792236 10.279999732971191 L5.6533331871032715 10.213333129882812 C5.696000099182129 10.168000221252441 5.71733283996582 10.109333038330078 5.725333213806152 10.008000373840332 C5.736000061035156 9.86400032043457 5.783999919891357 9.490666389465332 5.853332996368408 9.013333320617676 C5.874666690826416 8.866666793823242 5.8933329582214355 8.696000099182129 5.8933329582214355 8.631999969482422 C5.8933329582214355 8.53600025177002 5.9039998054504395 8.514666557312012 5.9626665115356445 8.49333381652832 C6.047999858856201 8.458666801452637 7.3333330154418945 8.458666801452637 7.383999824523926 8.490666389465332 C7.418666839599609 8.51200008392334 7.418666839599609 8.554666519165039 7.389333248138428 8.778666496276855 C7.37066650390625 8.922666549682617 7.34666633605957 9.146666526794434 7.3333330154418945 9.279999732971191 C7.319999694824219 9.410666465759277 7.296000003814697 9.597332954406738 7.2826666831970215 9.693333625793457 C7.266666412353516 9.78933334350586 7.237332820892334 10.021333694458008 7.2133331298828125 10.213333129882812 C7.192000389099121 10.402667045593262 7.159999847412109 10.661333084106445 7.1439995765686035 10.786666870117188 C7.042666912078857 11.597332954406738 6.99733304977417 11.968000411987305 6.930666446685791 12.546667098999023 C6.917333126068115 12.67199993133545 6.895999908447266 12.84000015258789 6.88266658782959 12.920000076293945 C6.869333267211914 13.0 6.850666522979736 13.162667274475098 6.839999675750732 13.27733325958252 C6.813333034515381 13.613333702087402 6.88533353805542 13.58666706085205 6.053333282470703 13.58666706085205 C5.658666610717773 13.58666706085205 5.330666542053223 13.576000213623047 5.322666645050049 13.562666893005371 C5.301333427429199 13.527999877929688 5.343999862670898 13.082666397094727 5.442666530609131 12.35200023651123 C5.493333339691162 11.973333358764648 5.503999710083008 11.67199993133545 5.4666666984558105 11.626667022705078 C5.440000057220459 11.594666481018066 5.3386664390563965 11.58666706085205 4.866666316986084 11.58666706085205 C4.359999656677246 11.58666706085205 4.296000003814697 11.592000007629395 4.2586669921875 11.634666442871094 C4.210666179656982 11.687999725341797 4.136000156402588 12.144000053405762 4.050666332244873 12.933333396911621 C4.037333011627197 13.064000129699707 4.010666370391846 13.263999938964844 3.9920005798339844 13.373332977294922 L3.9573326110839844 13.573333740234375 L3.2186670303344727 13.58133316040039 C2.5813331604003906 13.58666706085205 2.4773330688476562 13.58133316040039 2.4639997482299805 13.546667098999023 C2.456000328063965 13.525333404541016 2.4666662216186523 13.39466667175293 2.490666389465332 13.256000518798828 C2.5146665573120117 13.119999885559082 2.5333328247070312 12.960000038146973 2.5333328247070312 12.904000282287598 C2.5333328247070312 12.845333099365234 2.5493335723876953 12.680000305175781 2.5733327865600586 12.533333778381348 C2.6346664428710938 12.104000091552734 2.6693334579467773 11.829333305358887 2.6933326721191406 11.573333740234375 C2.7039995193481445 11.4399995803833 2.727999687194824 11.256000518798828 2.7413330078125 11.15999984741211 C2.7813329696655273 10.917333602905273 2.8293333053588867 10.546667098999023 2.8533334732055664 10.293333053588867 C2.8773326873779297 10.061333656311035 2.9200000762939453 9.733333587646484 2.9653329849243164 9.440000534057617 C2.978666305541992 9.336000442504883 3.002666473388672 9.138666152954102 3.013333320617676 8.997333526611328 C3.037332534790039 8.71733283996582 3.0826663970947266 8.517333030700684 3.1279993057250977 8.48799991607666 C3.1653337478637695 8.46399974822998 4.549333095550537 8.474666595458984 4.573333263397217 8.498666763305664 L4.573333263397217 8.498666763305664 M9.37066650390625 8.482666969299316 C9.423999786376953 8.503999710083008 9.426666259765625 8.669333457946777 9.373332977294922 8.960000038146973 C9.35200023651123 9.077333450317383 9.333333015441895 9.226666450500488 9.333333015441895 9.290666580200195 C9.333333015441895 9.354666709899902 9.314666748046875 9.527999877929688 9.288000106811523 9.677332878112793 C9.237333297729492 9.994667053222656 9.250666618347168 10.06933307647705 9.373332977294922 10.191999435424805 L9.461333274841309 10.279999732971191 L10.010666847229004 10.279999732971191 C10.557332992553711 10.279999732971191 10.559999465942383 10.279999732971191 10.583999633789062 10.218666076660156 C10.597332954406738 10.186666488647461 10.62933349609375 9.968000411987305 10.65333366394043 9.733333587646484 C10.677332878112793 9.498666763305664 10.714666366577148 9.181333541870117 10.736000061035156 9.026666641235352 C10.757332801818848 8.871999740600586 10.773333549499512 8.704000473022461 10.773333549499512 8.65333366394043 C10.773333549499512 8.474666595458984 10.75200080871582 8.479999542236328 11.538666725158691 8.472000122070312 C12.106666564941406 8.466667175292969 12.263999938964844 8.472000122070312 12.3013334274292 8.501333236694336 C12.34666633605957 8.533332824707031 12.349333763122559 8.554666519165039 12.322667121887207 8.736000061035156 C12.256000518798828 9.208000183105469 12.232000350952148 9.399999618530273 12.213333129882812 9.586666107177734 C12.202667236328125 9.696000099182129 12.1813325881958 9.869333267211914 12.16533374786377 9.973333358764648 C12.119999885559082 10.25333309173584 12.074666023254395 10.616000175476074 12.053333282470703 10.826666831970215 C12.032000541687012 11.02400016784668 11.997333526611328 11.298666954040527 11.933333396911621 11.733333587646484 C11.909333229064941 11.880000114440918 11.893333435058594 12.034667015075684 11.893333435058594 12.077333450317383 C11.893333435058594 12.399999618530273 11.58133316040039 12.949333190917969 11.250666618347168 13.208000183105469 C11.015999794006348 13.389333724975586 10.885334014892578 13.456000328063965 10.613333702087402 13.53600025177002 C10.453332901000977 13.583999633789062 10.336000442504883 13.58666706085205 9.047999382019043 13.58666706085205 C7.952000141143799 13.58666706085205 7.6533331871032715 13.578666687011719 7.650666236877441 13.552000045776367 C7.642666816711426 13.458666801452637 7.661333084106445 13.25333309173584 7.693333148956299 13.026666641235352 C7.714666366577148 12.88800048828125 7.738667011260986 12.687999725341797 7.746666431427002 12.58666706085205 C7.776000022888184 12.27733325958252 7.6533331871032715 12.306666374206543 8.922666549682617 12.306666374206543 C9.890666961669922 12.306666374206543 10.039999961853027 12.3013334274292 10.114665985107422 12.263999938964844 C10.293333053588867 12.173333168029785 10.362667083740234 12.0426664352417 10.37600040435791 11.773333549499512 L10.386666297912598 11.600000381469727 L9.600000381469727 11.583999633789062 C8.898666381835938 11.570666313171387 8.794666290283203 11.562666893005371 8.645333290100098 11.514666557312012 C8.229333877563477 11.37600040435791 7.941332817077637 11.095999717712402 7.794666290283203 10.693333625793457 C7.736000061035156 10.53066635131836 7.730666637420654 10.082666397094727 7.781332969665527 9.666666030883789 C7.799999713897705 9.51200008392334 7.832000255584717 9.242666244506836 7.853332996368408 9.066666603088379 C7.877333164215088 8.890666961669922 7.893333435058594 8.706666946411133 7.893333435058594 8.658666610717773 C7.893333435058594 8.607999801635742 7.914666175842285 8.552000045776367 7.946666717529297 8.520000457763672 C7.99733304977417 8.46933364868164 8.034666061401367 8.466667175292969 8.663999557495117 8.466667175292969 C9.029333114624023 8.466667175292969 9.34666633605957 8.474666595458984 9.37066650390625 8.482666969299316 L9.37066650390625 8.482666969299316 M21.570667266845703 8.485333442687988 C21.62933349609375 8.498666763305664 21.631999969482422 8.51200008392334 21.618667602539062 8.637332916259766 C21.610668182373047 8.711999893188477 21.59200096130371 8.898666381835938 21.576000213623047 9.053333282470703 C21.560001373291016 9.208000183105469 21.535999298095703 9.397333145141602 21.520000457763672 9.477333068847656 C21.506668090820312 9.557332992553711 21.49333381652832 9.677332878112793 21.49333381652832 9.749333381652832 C21.49333381652832 9.850666046142578 21.482666015625 9.885333061218262 21.442665100097656 9.90666675567627 C21.408000946044922 9.922666549682617 20.98666763305664 9.933333396911621 20.256000518798828 9.933333396911621 L19.1200008392334 9.933333396911621 L19.07466697692871 10.002666473388672 C19.042665481567383 10.050666809082031 19.029333114624023 10.130666732788086 19.029333114624023 10.263999938964844 L19.02666664123535 10.453332901000977 L20.06133270263672 10.461333274841309 L21.093334197998047 10.466666221618652 L21.093334197998047 10.607999801635742 C21.093334197998047 10.682666778564453 21.07466697692871 10.853333473205566 21.053333282470703 10.986666679382324 C21.032001495361328 11.11733341217041 21.01333236694336 11.293333053588867 21.01333236694336 11.37600040435791 C21.01333236694336 11.46933364868164 21.0 11.538666725158691 20.978668212890625 11.557332992553711 C20.95199966430664 11.576000213623047 20.615999221801758 11.589333534240723 19.904001235961914 11.592000007629395 L18.866666793823242 11.600000381469727 L18.842666625976562 11.834667205810547 C18.82666778564453 12.008000373840332 18.82933235168457 12.077333450317383 18.85333251953125 12.106666564941406 C18.882665634155273 12.14133358001709 19.04800033569336 12.146666526794434 20.029333114624023 12.146666526794434 L21.17333221435547 12.146666526794434 L21.17333221435547 12.312000274658203 C21.17333221435547 12.405333518981934 21.154666900634766 12.573333740234375 21.133333206176758 12.687999725341797 C21.11199951171875 12.802666664123535 21.093334197998047 12.954666137695312 21.093334197998047 13.021332740783691 C21.093334197998047 13.154666900634766 21.03466796875 13.50666618347168 21.002666473388672 13.557332992553711 C20.989334106445312 13.578666687011719 20.624000549316406 13.58666706085205 19.682666778564453 13.58666706085205 C18.482666015625 13.58666706085205 18.368000030517578 13.583999633789062 18.224000930786133 13.53600025177002 C18.13599967956543 13.509333610534668 18.02400016784668 13.461333274841309 17.97333335876465 13.429333686828613 C17.922666549682617 13.399999618530273 17.855998992919922 13.362667083740234 17.82400131225586 13.349333763122559 C17.738666534423828 13.312000274658203 17.512001037597656 13.050666809082031 17.4320011138916 12.895999908447266 C17.28533363342285 12.610666275024414 17.250667572021484 12.330666542053223 17.30666732788086 11.893333435058594 C17.32266616821289 11.776000022888184 17.352001190185547 11.541333198547363 17.373332977294922 11.373332977294922 C17.39466667175293 11.205333709716797 17.423999786376953 10.957332611083984 17.440000534057617 10.826666831970215 C17.458667755126953 10.693333625793457 17.482666015625 10.477333068847656 17.49599838256836 10.34666633605957 C17.562665939331055 9.677332878112793 17.67733383178711 9.386666297912598 18.01066780090332 9.031999588012695 C18.29599952697754 8.730667114257812 18.631999969482422 8.562666893005371 19.1200008392334 8.485333442687988 C19.23200035095215 8.466667175292969 21.501333236694336 8.466667175292969 21.570667266845703 8.485333442687988 L21.570667266845703 8.485333442687988 M12.554666519165039 14.192000389099121 C12.527999877929688 14.197333335876465 12.479999542236328 14.197333335876465 12.447999954223633 14.192000389099121 C12.41333293914795 14.186666488647461 12.434666633605957 14.181333541870117 12.49333381652832 14.181333541870117 C12.552000045776367 14.178667068481445 12.578666687011719 14.184000015258789 12.554666519165039 14.192000389099121 M13.77066707611084 14.229333877563477 C13.855998992919922 14.296000480651855 13.861332893371582 14.392000198364258 13.784000396728516 14.46933364868164 C13.714666366577148 14.538666725158691 13.607999801635742 14.527999877929688 13.541333198547363 14.437333106994629 C13.498666763305664 14.381333351135254 13.496000289916992 14.357333183288574 13.522666931152344 14.301332473754883 C13.549333572387695 14.242667198181152 13.626667022705078 14.181333541870117 13.682665824890137 14.176000595092773 C13.693333625793457 14.173333168029785 13.730667114257812 14.197333335876465 13.77066707611084 14.229333877563477 L13.77066707611084 14.229333877563477 M3.7013330459594727 14.293333053588867 C3.7066659927368164 14.338666915893555 3.6933326721191406 14.421333312988281 3.674666404724121 14.479999542236328 L3.6399993896484375 14.58666706085205 L3.25333309173584 14.600000381469727 L2.866666793823242 14.613333702087402 L2.866666793823242 14.74666690826416 L3.167999267578125 14.75200080871582 C3.3333330154418945 14.754666328430176 3.48799991607666 14.762666702270508 3.509333610534668 14.770666122436523 C3.554666519165039 14.78933334350586 3.559999465942383 14.949333190917969 3.5146665573120117 14.99466609954834 C3.493332862854004 15.016000747680664 3.378666877746582 15.026666641235352 3.1706666946411133 15.026666641235352 C2.8479995727539062 15.026666641235352 2.7733335494995117 15.050666809082031 2.810666084289551 15.146666526794434 C2.8213329315185547 15.178667068481445 2.8879995346069336 15.186666488647461 3.1786670684814453 15.186666488647461 C3.373332977294922 15.186666488647461 3.546666145324707 15.197333335876465 3.565333366394043 15.208000183105469 C3.5893335342407227 15.223999977111816 3.5920000076293945 15.27733325958252 3.5786666870117188 15.399999618530273 L3.559999465942383 15.573333740234375 L3.0746660232543945 15.58133316040039 C2.62399959564209 15.58666706085205 2.5839996337890625 15.583999633789062 2.496000289916992 15.53066635131836 C2.287999153137207 15.407999992370605 2.2559995651245117 15.256000518798828 2.3359994888305664 14.74666690826416 C2.37600040435791 14.48799991607666 2.383999824523926 14.466667175292969 2.479999542236328 14.373332977294922 C2.6373329162597656 14.218667030334473 2.7226667404174805 14.199999809265137 3.239999771118164 14.208000183105469 L3.6933326721191406 14.213333129882812 L3.7013330459594727 14.293333053588867 M5.189333438873291 14.269333839416504 C5.303999900817871 14.354666709899902 5.368000030517578 14.456000328063965 5.368000030517578 14.552000045776367 C5.368000030517578 14.685333251953125 5.314666748046875 15.21066665649414 5.277332782745361 15.410666465759277 L5.248000144958496 15.58666706085205 L4.765333652496338 15.58666706085205 L4.783999443054199 15.35200023651123 C4.794666290283203 15.223999977111816 4.813333034515381 15.069334030151367 4.826666355133057 15.013333320617676 C4.869333267211914 14.837333679199219 4.858666896820068 14.634666442871094 4.810666561126709 14.616000175476074 C4.733333110809326 14.58666706085205 4.46133279800415 14.600000381469727 4.432000160217285 14.634666442871094 C4.415999889373779 14.65333366394043 4.397333145141602 14.743999481201172 4.386666297912598 14.84000015258789 C4.36799955368042 15.032000541687012 4.325333595275879 15.365333557128906 4.303999423980713 15.501333236694336 L4.290666103363037 15.589333534240723 L4.045333385467529 15.58133316040039 L3.8000001907348633 15.573333740234375 L3.807999610900879 15.413333892822266 C3.810666084289551 15.325333595275879 3.8319997787475586 15.104000091552734 3.8533334732055664 14.920000076293945 C3.874666213989258 14.736000061035156 3.8986663818359375 14.517333030700684 3.9093332290649414 14.432000160217285 C3.933333396911621 14.192000389099121 3.9200000762939453 14.194665908813477 4.562666416168213 14.205333709716797 C5.072000026702881 14.213333129882812 5.122666835784912 14.218667030334473 5.189333438873291 14.269333839416504 L5.189333438873291 14.269333839416504 M6.927999496459961 14.365333557128906 C6.938666820526123 14.58133316040039 6.9066667556762695 14.600000381469727 6.490666389465332 14.600000381469727 C6.141333103179932 14.600000381469727 6.079999923706055 14.610666275024414 6.079999923706055 14.669333457946777 C6.079999923706055 14.733333587646484 6.191999912261963 14.757333755493164 6.4639997482299805 14.75200080871582 C6.607999801635742 14.749333381652832 6.736000061035156 14.75200080871582 6.749333381652832 14.762666702270508 C6.76533317565918 14.770666122436523 6.7733330726623535 14.832000732421875 6.76800012588501 14.895999908447266 L6.759999752044678 15.013333320617676 L6.413333415985107 15.026666641235352 L6.066666603088379 15.039999961853027 L6.058666229248047 15.112000465393066 L6.050666332244873 15.184000015258789 L6.431999683380127 15.192000389099121 L6.813333034515381 15.199999809265137 L6.813333034515381 15.34666633605957 C6.810666561126709 15.600000381469727 6.839999675750732 15.58666706085205 6.301333427429199 15.58666706085205 C5.85866641998291 15.58666706085205 5.818666458129883 15.58133316040039 5.71999979019165 15.525333404541016 C5.6533331871032715 15.48799991607666 5.594666481018066 15.426666259765625 5.562666893005371 15.360000610351562 C5.517333030700684 15.263999938964844 5.514666557312012 15.232000350952148 5.543999671936035 15.037333488464355 C5.559999942779541 14.920000076293945 5.573333263397217 14.773333549499512 5.573333263397217 14.711999893188477 C5.573333263397217 14.503999710083008 5.736000061035156 14.288000106811523 5.938666343688965 14.226666450500488 C5.978666305541992 14.213333129882812 6.2186665534973145 14.205333709716797 6.4666666984558105 14.208000183105469 L6.920000076293945 14.213333129882812 L6.927999496459961 14.365333557128906 M8.343999862670898 14.226666450500488 C8.445333480834961 14.25333309173584 8.58133316040039 14.392000198364258 8.60533332824707 14.48799991607666 C8.631999969482422 14.592000961303711 8.594666481018066 14.83466625213623 8.53066635131836 14.962667465209961 C8.498666763305664 15.029333114624023 8.432000160217285 15.109333038330078 8.383999824523926 15.141332626342773 C8.298666954040527 15.197333335876465 8.269332885742188 15.250666618347168 8.314666748046875 15.272000312805176 C8.349333763122559 15.288000106811523 8.533332824707031 15.525333404541016 8.533332824707031 15.557332992553711 C8.533332824707031 15.576000213623047 8.450666427612305 15.58666706085205 8.266666412353516 15.58666706085205 L8.002666473388672 15.58666706085205 L7.890666484832764 15.399999618530273 C7.829333305358887 15.296000480651855 7.759999752044678 15.21066665649414 7.736000061035156 15.21066665649414 C7.610666275024414 15.199999809265137 7.573333263397217 15.23466682434082 7.573333263397217 15.365333557128906 C7.573333263397217 15.410666465759277 7.562666893005371 15.479999542236328 7.546666622161865 15.520000457763672 C7.519999980926514 15.58666706085205 7.517333030700684 15.589333534240723 7.2746663093566895 15.58133316040039 L7.026666641235352 15.573333740234375 L7.029333591461182 15.49333381652832 C7.034666061401367 15.338666915893555 7.119999885559082 14.666666984558105 7.149333477020264 14.552000045776367 C7.183999538421631 14.432000160217285 7.306666374206543 14.301332473754883 7.450666427612305 14.237333297729492 C7.549333572387695 14.194665908813477 8.205333709716797 14.186666488647461 8.343999862670898 14.226666450500488 M10.23466682434082 14.232000350952148 C10.261333465576172 14.266666412353516 10.23466682434082 14.514666557312012 10.199999809265137 14.573333740234375 C10.189332962036133 14.589333534240723 10.02400016784668 14.600000381469727 9.78933334350586 14.600000381469727 C9.509333610534668 14.600000381469727 9.383999824523926 14.610666275024414 9.349333763122559 14.634666442871094 C9.314666748046875 14.658666610717773 9.293333053588867 14.733333587646484 9.272000312805176 14.885334014892578 C9.232000350952148 15.18933391571045 9.23466682434082 15.18933391571045 9.498666763305664 15.181333541870117 L9.720000267028809 15.173333168029785 L9.727999687194824 15.09333324432373 C9.74666690826416 14.885334014892578 9.7413330078125 14.890666961669922 9.967999458312988 14.898667335510254 L10.173333168029785 14.90666675567627 L10.167999267578125 15.026666641235352 C10.16533374786377 15.09333324432373 10.152000427246094 15.242667198181152 10.141332626342773 15.360000610351562 L10.119999885559082 15.573333740234375 L9.570666313171387 15.58133316040039 L9.02400016784668 15.58666706085205 L8.909333229064941 15.50666618347168 C8.757332801818848 15.39466667175293 8.7413330078125 15.336000442504883 8.760000228881836 14.973333358764648 C8.7839994430542 14.543999671936035 8.84000015258789 14.399999618530273 9.0426664352417 14.274665832519531 C9.141332626342773 14.213333129882812 9.186666488647461 14.208000183105469 9.72266674041748 14.202667236328125 C10.082666397094727 14.199999809265137 10.213333129882812 14.208000183105469 10.23466682434082 14.232000350952148 L10.23466682434082 14.232000350952148 M10.962666511535645 14.41866683959961 C10.954666137695312 14.613333702087402 10.957332611083984 14.62399959564209 11.02400016784668 14.666666984558105 C11.106666564941406 14.72266674041748 11.35200023651123 14.709333419799805 11.389333724975586 14.650666236877441 C11.402667045593262 14.62933349609375 11.41333293914795 14.552000045776367 11.41333293914795 14.474666595458984 C11.41333293914795 14.399999618530273 11.423999786376953 14.306666374206543 11.4399995803833 14.269333839416504 C11.46399974822998 14.202667236328125 11.472000122070312 14.199999809265137 11.706666946411133 14.199999809265137 C11.890666961669922 14.199999809265137 11.952000617980957 14.208000183105469 11.962666511535645 14.237333297729492 C11.970666885375977 14.2586669921875 11.9573335647583 14.37600040435791 11.935999870300293 14.498666763305664 C11.91200065612793 14.62399959564209 11.893333435058594 14.776000022888184 11.893333435058594 14.842666625976562 C11.893333435058594 15.058667182922363 11.821332931518555 15.322667121887207 11.7413330078125 15.407999992370605 C11.58133316040039 15.573333740234375 11.520000457763672 15.589333534240723 10.965333938598633 15.58133316040039 L10.466666221618652 15.573333740234375 L10.458666801452637 15.453332901000977 C10.447999954223633 15.2586669921875 10.453332901000977 15.256000518798828 10.890666961669922 15.239999771118164 C11.125333786010742 15.232000350952148 11.290666580200195 15.2160005569458 11.306666374206543 15.197333335876465 C11.325333595275879 15.178667068481445 11.333333015441895 15.138667106628418 11.32800006866455 15.104000091552734 C11.319999694824219 15.042667388916016 11.312000274658203 15.039999961853027 11.018667221069336 15.032000541687012 C10.696000099182129 15.02400016784668 10.631999969482422 15.002666473388672 10.514666557312012 14.869333267211914 C10.461333274841309 14.807999610900879 10.456000328063965 14.767999649047852 10.453332901000977 14.552000045776367 C10.453332901000977 14.199999809265137 10.456000328063965 14.197333335876465 10.7413330078125 14.205333709716797 L10.973333358764648 14.213333129882812 L10.962666511535645 14.41866683959961 M14.472000122070312 14.27733325958252 C14.514666557312012 14.333333969116211 14.514666557312012 14.362667083740234 14.464000701904297 14.434666633605957 C14.41866683959961 14.498666763305664 14.298666954040527 14.514666557312012 14.245333671569824 14.461333274841309 C14.226666450500488 14.442667007446289 14.213333129882812 14.389333724975586 14.213333129882812 14.341333389282227 C14.213333129882812 14.272000312805176 14.226666450500488 14.245333671569824 14.274665832519531 14.226666450500488 C14.34666633605957 14.199999809265137 14.429332733154297 14.218667030334473 14.472000122070312 14.27733325958252 L14.472000122070312 14.27733325958252 M12.373332977294922 14.24799919128418 C12.373332977294922 14.28266716003418 12.341333389282227 14.306666374206543 12.314666748046875 14.290666580200195 C12.288000106811523 14.274665832519531 12.312000274658203 14.226666450500488 12.349333763122559 14.226666450500488 C12.362667083740234 14.226666450500488 12.373332977294922 14.237333297729492 12.373332977294922 14.24799919128418 L12.373332977294922 14.24799919128418 M15.09333324432373 14.279999732971191 C15.130667686462402 14.349333763122559 15.106666564941406 14.432000160217285 15.037334442138672 14.46933364868164 C14.922666549682617 14.53066635131836 14.791999816894531 14.35200023651123 14.885334014892578 14.2586669921875 C14.938667297363281 14.205333709716797 15.061332702636719 14.218667030334473 15.09333324432373 14.279999732971191 L15.09333324432373 14.279999732971191 M15.680000305175781 14.285333633422852 C15.725334167480469 14.336000442504883 15.727999687194824 14.349333763122559 15.695999145507812 14.397333145141602 C15.674666404724121 14.432000160217285 15.631999969482422 14.453332901000977 15.584000587463379 14.453332901000977 C15.520000457763672 14.453332901000977 15.504000663757324 14.440000534057617 15.498666763305664 14.378666877746582 C15.482666015625 14.23466682434082 15.584000587463379 14.184000015258789 15.680000305175781 14.285333633422852 L15.680000305175781 14.285333633422852 M16.269332885742188 14.296000480651855 C16.30666732788086 14.343999862670898 16.282665252685547 14.402667045593262 16.202667236328125 14.450666427612305 C16.165332794189453 14.474666595458984 16.14666748046875 14.466667175292969 16.104000091552734 14.416000366210938 C16.055999755859375 14.357333183288574 16.055999755859375 14.349333763122559 16.095998764038086 14.303999900817871 C16.152000427246094 14.242667198181152 16.221332550048828 14.239999771118164 16.269332885742188 14.296000480651855 M16.810667037963867 14.312000274658203 C16.832000732421875 14.34666633605957 16.82666778564453 14.37066650390625 16.78933334350586 14.410666465759277 C16.736000061035156 14.46933364868164 16.67733383178711 14.458666801452637 16.65333366394043 14.383999824523926 C16.618667602539062 14.274665832519531 16.749332427978516 14.213333129882812 16.810667037963867 14.312000274658203 M17.341333389282227 14.312000274658203 C17.354665756225586 14.354666709899902 17.314666748046875 14.440000534057617 17.280000686645508 14.440000534057617 C17.266666412353516 14.440000534057617 17.237335205078125 14.421333312988281 17.213333129882812 14.397333145141602 C17.181333541870117 14.365333557128906 17.178667068481445 14.34666633605957 17.202667236328125 14.317333221435547 C17.239999771118164 14.272000312805176 17.325332641601562 14.269333839416504 17.341333389282227 14.312000274658203 L17.341333389282227 14.312000274658203 M17.82400131225586 14.296000480651855 C17.882665634155273 14.317333221435547 17.877334594726562 14.378666877746582 17.81333351135254 14.413333892822266 C17.773334503173828 14.434666633605957 17.757333755493164 14.429333686828613 17.736000061035156 14.392000198364258 C17.717334747314453 14.357333183288574 17.717334747314453 14.333333969116211 17.738666534423828 14.312000274658203 C17.775999069213867 14.274665832519531 17.770668029785156 14.274665832519531 17.82400131225586 14.296000480651855 L17.82400131225586 14.296000480651855 M12.490666389465332 14.322667121887207 C12.554666519165039 14.34666633605957 12.543999671936035 14.458666801452637 12.474666595458984 14.474666595458984 C12.399999618530273 14.496000289916992 12.373332977294922 14.477333068847656 12.373332977294922 14.402667045593262 C12.373332977294922 14.312000274658203 12.405333518981934 14.290666580200195 12.490666389465332 14.322667121887207 L12.490666389465332 14.322667121887207 M18.35733413696289 14.330666542053223 C18.3786678314209 14.365333557128906 18.301332473754883 14.421333312988281 18.253334045410156 14.402667045593262 C18.18666648864746 14.378666877746582 18.205333709716797 14.306666374206543 18.277334213256836 14.306666374206543 C18.314666748046875 14.306666374206543 18.349332809448242 14.317333221435547 18.35733413696289 14.330666542053223 L18.35733413696289 14.330666542053223 M18.82666778564453 14.34666633605957 C18.82666778564453 14.368000030517578 18.80266571044922 14.386667251586914 18.773334503173828 14.386667251586914 C18.744001388549805 14.386667251586914 18.720001220703125 14.368000030517578 18.720001220703125 14.34666633605957 C18.720001220703125 14.325333595275879 18.744001388549805 14.306666374206543 18.773334503173828 14.306666374206543 C18.80266571044922 14.306666374206543 18.82666778564453 14.325333595275879 18.82666778564453 14.34666633605957 M19.27466583251953 14.354666709899902 C19.280000686645508 14.373332977294922 19.266666412353516 14.386667251586914 19.242666244506836 14.386667251586914 C19.218666076660156 14.386667251586914 19.200000762939453 14.368000030517578 19.200000762939453 14.343999862670898 C19.200000762939453 14.298666954040527 19.2586669921875 14.306666374206543 19.27466583251953 14.354666709899902 L19.27466583251953 14.354666709899902 M19.733333587646484 14.34666633605957 C19.733333587646484 14.368000030517578 19.71466636657715 14.386667251586914 19.69333267211914 14.386667251586914 C19.650667190551758 14.386667251586914 19.639999389648438 14.354666709899902 19.672000885009766 14.325333595275879 C19.701332092285156 14.293333053588867 19.733333587646484 14.303999900817871 19.733333587646484 14.34666633605957 M12.2586669921875 14.458666801452637 C12.250666618347168 14.485333442687988 12.245333671569824 14.46399974822998 12.245333671569824 14.413333892822266 C12.245333671569824 14.362667083740234 12.250666618347168 14.341333389282227 12.2586669921875 14.365333557128906 C12.263999938964844 14.392000198364258 12.263999938964844 14.434666633605957 12.2586669921875 14.458666801452637 M13.749332427978516 14.869333267211914 C13.789332389831543 14.949333190917969 13.789332389831543 14.9573335647583 13.738666534423828 15.02400016784668 C13.672000885009766 15.114665985107422 13.567999839782715 15.128000259399414 13.496000289916992 15.050666809082031 C13.386666297912598 14.933333396911621 13.456000328063965 14.786666870117188 13.616000175476074 14.786666870117188 C13.687999725341797 14.786666870117188 13.711999893188477 14.802666664123535 13.749332427978516 14.869333267211914 L13.749332427978516 14.869333267211914 M14.378666877746582 14.832000732421875 C14.469332695007324 14.914666175842285 14.407999992370605 15.079999923706055 14.285333633422852 15.079999923706055 C14.213333129882812 15.079999923706055 14.133333206176758 15.00533390045166 14.133333206176758 14.938667297363281 C14.133333206176758 14.810667037963867 14.282666206359863 14.743999481201172 14.378666877746582 14.832000732421875 M14.992000579833984 14.832000732421875 C15.055999755859375 14.887999534606934 15.053333282470703 14.978667259216309 14.984001159667969 15.039999961853027 C14.933333396911621 15.08799934387207 14.925333976745605 15.08799934387207 14.858667373657227 15.04800033569336 C14.76533317565918 14.989334106445312 14.754666328430176 14.93066692352295 14.82933235168457 14.850666046142578 C14.90133285522461 14.776000022888184 14.925333976745605 14.770666122436523 14.992000579833984 14.832000732421875 L14.992000579833984 14.832000732421875 M15.61066722869873 14.86400032043457 C15.701333045959473 14.965333938598633 15.589332580566406 15.09333324432373 15.466667175292969 15.026666641235352 C15.399999618530273 14.992000579833984 15.39466667175293 14.880000114440918 15.461333274841309 14.842666625976562 C15.527999877929688 14.802666664123535 15.5600004196167 14.807999610900879 15.61066722869873 14.86400032043457 L15.61066722869873 14.86400032043457 M16.18666648864746 14.880000114440918 C16.24533462524414 14.949333190917969 16.20800018310547 15.013333320617676 16.106666564941406 15.013333320617676 C16.029333114624023 15.013333320617676 16.01066780090332 15.002666473388672 16.005332946777344 14.949333190917969 C15.98933219909668 14.847999572753906 16.119998931884766 14.797332763671875 16.18666648864746 14.880000114440918 M16.730667114257812 14.874666213989258 C16.770668029785156 14.903999328613281 16.775999069213867 14.920000076293945 16.749332427978516 14.967999458312988 C16.711999893188477 15.039999961853027 16.624000549316406 15.042667388916016 16.586666107177734 14.97599983215332 C16.56800079345703 14.93600082397461 16.570667266845703 14.914666175842285 16.602664947509766 14.88266658782959 C16.65333366394043 14.832000732421875 16.66933250427246 14.829333305358887 16.730667114257812 14.874666213989258 M17.27199935913086 14.920000076293945 C17.28533363342285 14.989334106445312 17.237335205078125 15.034666061401367 17.17599868774414 15.013333320617676 C17.138668060302734 15.002666473388672 17.119998931884766 14.973333358764648 17.119998931884766 14.93066692352295 C17.119998931884766 14.872000694274902 17.130666732788086 14.86400032043457 17.192001342773438 14.872000694274902 C17.23200035095215 14.87733268737793 17.269332885742188 14.898667335510254 17.27199935913086 14.920000076293945 M17.773334503173828 14.933333396911621 C17.773334503173828 14.967999458312988 17.75200080871582 14.989334106445312 17.71466636657715 14.99466609954834 C17.66933250427246 15.002666473388672 17.65333366394043 14.989334106445312 17.65333366394043 14.952000617980957 C17.65333366394043 14.925333976745605 17.661333084106445 14.893333435058594 17.672000885009766 14.88266658782959 C17.706666946411133 14.847999572753906 17.773334503173828 14.880000114440918 17.773334503173828 14.933333396911621 L17.773334503173828 14.933333396911621 M18.277334213256836 14.890666961669922 C18.301332473754883 14.927999496459961 18.266666412353516 15.0 18.226667404174805 15.0 C18.178667068481445 15.0 18.152000427246094 14.954666137695312 18.17066764831543 14.90666675567627 C18.18666648864746 14.861332893371582 18.256000518798828 14.853333473205566 18.277334213256836 14.890666961669922 M18.746665954589844 14.933333396911621 C18.746665954589844 14.954666137695312 18.72800064086914 14.973333358764648 18.706666946411133 14.973333358764648 C18.685333251953125 14.973333358764648 18.666667938232422 14.954666137695312 18.666667938232422 14.933333396911621 C18.666667938232422 14.91200065612793 18.685333251953125 14.893333435058594 18.706666946411133 14.893333435058594 C18.72800064086914 14.893333435058594 18.746665954589844 14.91200065612793 18.746665954589844 14.933333396911621 M19.226667404174805 14.920000076293945 C19.226667404174805 14.933333396911621 19.20800018310547 14.946666717529297 19.18666648864746 14.946666717529297 C19.165332794189453 14.946666717529297 19.14666748046875 14.933333396911621 19.14666748046875 14.920000076293945 C19.14666748046875 14.903999328613281 19.165332794189453 14.893333435058594 19.18666648864746 14.893333435058594 C19.20800018310547 14.893333435058594 19.226667404174805 14.903999328613281 19.226667404174805 14.920000076293945 M13.664000511169434 15.405333518981934 C13.75200080871582 15.53066635131836 13.682665824890137 15.666666984558105 13.53066635131836 15.666666984558105 C13.432000160217285 15.666666984558105 13.386666297912598 15.610666275024414 13.386666297912598 15.496000289916992 C13.386666297912598 15.35200023651123 13.583999633789062 15.288000106811523 13.664000511169434 15.405333518981934 L13.664000511169434 15.405333518981934 M14.34666633605957 15.461333274841309 C14.381333351135254 15.525333404541016 14.381333351135254 15.53600025177002 14.32266616821289 15.597332954406738 C14.242666244506836 15.682666778564453 14.149333000183105 15.685333251953125 14.095999717712402 15.607999801635742 C14.034666061401367 15.522666931152344 14.042665481567383 15.46399974822998 14.122666358947754 15.402667045593262 C14.205333709716797 15.338666915893555 14.288000106811523 15.360000610351562 14.34666633605957 15.461333274841309 M14.933333396911621 15.426666259765625 C14.997333526611328 15.490666389465332 15.0 15.527999877929688 14.941332817077637 15.592000961303711 C14.885334014892578 15.65333366394043 14.794666290283203 15.65333366394043 14.73599910736084 15.589333534240723 C14.687999725341797 15.53600025177002 14.701333045959473 15.461333274841309 14.77066707611084 15.407999992370605 C14.832000732421875 15.360000610351562 14.872000694274902 15.365333557128906 14.933333396911621 15.426666259765625 L14.933333396911621 15.426666259765625 M15.522665977478027 15.426666259765625 C15.589332580566406 15.46399974822998 15.58666706085205 15.538666725158691 15.520000457763672 15.600000381469727 C15.474666595458984 15.640000343322754 15.455999374389648 15.642666816711426 15.399999618530273 15.618667602539062 C15.319999694824219 15.58133316040039 15.309332847595215 15.46933364868164 15.381333351135254 15.429333686828613 C15.440000534057617 15.39466667175293 15.458666801452637 15.39466667175293 15.522665977478027 15.426666259765625 L15.522665977478027 15.426666259765625 M16.082666397094727 15.426666259765625 C16.154666900634766 15.466667175292969 16.149333953857422 15.58133316040039 16.07466697692871 15.610666275024414 C16.037334442138672 15.62399959564209 16.0 15.62399959564209 15.981332778930664 15.607999801635742 C15.938667297363281 15.573333740234375 15.935998916625977 15.474666595458984 15.978667259216309 15.432000160217285 C16.018667221069336 15.392000198364258 16.018667221069336 15.392000198364258 16.082666397094727 15.426666259765625 L16.082666397094727 15.426666259765625 M16.67733383178711 15.48799991607666 C16.701332092285156 15.527999877929688 16.695999145507812 15.543999671936035 16.65333366394043 15.576000213623047 C16.626667022705078 15.597332954406738 16.589332580566406 15.610666275024414 16.576000213623047 15.60533332824707 C16.53066635131836 15.589333534240723 16.498666763305664 15.514666557312012 16.514667510986328 15.46933364868164 C16.538667678833008 15.410666465759277 16.637332916259766 15.423999786376953 16.67733383178711 15.48799991607666 L16.67733383178711 15.48799991607666 M17.194665908813477 15.514666557312012 C17.202667236328125 15.576000213623047 17.194665908813477 15.58666706085205 17.13599967956543 15.58666706085205 C17.06133270263672 15.58666706085205 17.037334442138672 15.541333198547363 17.07200050354004 15.472000122070312 C17.109333038330078 15.399999618530273 17.184001922607422 15.426666259765625 17.194665908813477 15.514666557312012 M17.706666946411133 15.466667175292969 C17.75200080871582 15.520000457763672 17.720001220703125 15.58666706085205 17.65333366394043 15.58666706085205 C17.624000549316406 15.58666706085205 17.59200096130371 15.567999839782715 17.583999633789062 15.546667098999023 C17.56800079345703 15.50666618347168 17.61333465576172 15.426666259765625 17.65333366394043 15.426666259765625 C17.66400146484375 15.426666259765625 17.687999725341797 15.445333480834961 17.706666946411133 15.466667175292969 M18.20800018310547 15.514666557312012 C18.218666076660156 15.567999839782715 18.141332626342773 15.60533332824707 18.104000091552734 15.567999839782715 C18.066665649414062 15.53066635131836 18.106666564941406 15.447999954223633 18.157333374023438 15.458666801452637 C18.181333541870117 15.46399974822998 18.202667236328125 15.48799991607666 18.20800018310547 15.514666557312012 M18.685333251953125 15.496000289916992 C18.706666946411133 15.552000045776367 18.650667190551758 15.607999801635742 18.610668182373047 15.567999839782715 C18.576000213623047 15.533332824707031 18.597333908081055 15.453332901000977 18.639999389648438 15.453332901000977 C18.6560001373291 15.453332901000977 18.674667358398438 15.472000122070312 18.685333251953125 15.496000289916992 L18.685333251953125 15.496000289916992 M19.14666748046875 15.520000457763672 C19.14666748046875 15.541333198547363 19.128000259399414 15.5600004196167 19.106666564941406 15.5600004196167 C19.064001083374023 15.5600004196167 19.053333282470703 15.527999877929688 19.08533477783203 15.498666763305664 C19.114665985107422 15.466667175292969 19.14666748046875 15.477333068847656 19.14666748046875 15.520000457763672" fill="black" fill-opacity="1.0" filling="0"/>
<path animation_id="1" d="M14.397334098815918 9.813333511352539 C14.34666633605957 9.845333099365234 14.285333633422852 9.903999328613281 14.261333465576172 9.938666343688965 C14.208000183105469 10.01866626739502 14.133333206176758 10.434666633605957 14.133333206176758 10.645333290100098 L14.133333206176758 10.813333511352539 L14.661333084106445 10.813333511352539 C15.24799919128418 10.813333511352539 15.272000312805176 10.808000564575195 15.402666091918945 10.637332916259766 C15.477334022521973 10.53600025177002 15.48799991607666 10.501333236694336 15.504000663757324 10.27733325958252 C15.525333404541016 9.978666305541992 15.498666763305664 9.87733268737793 15.373332977294922 9.800000190734863 C15.295999526977539 9.751999855041504 15.242666244506836 9.74666690826416 14.890666961669922 9.749333381652832 C14.520000457763672 9.749333381652832 14.48799991607666 9.754667282104492 14.397334098815918 9.813333511352539 L14.397334098815918 9.813333511352539 M7.701333045959473 14.578666687011719 C7.642666816711426 14.62399959564209 7.610666275024414 14.800000190734863 7.6533331871032715 14.826666831970215 C7.71999979019165 14.866666793823242 7.973333358764648 14.847999572753906 8.029333114624023 14.797332763671875 C8.085333824157715 14.74666690826416 8.095999717712402 14.626667022705078 8.047999382019043 14.578666687011719 C8.00533390045166 14.53600025177002 7.754666328430176 14.538666725158691 7.701333045959473 14.578666687011719" fill="black" fill-opacity="1.0" filling="0"/></svg>