<?xml version="1.0" encoding="iso-8859-1"?><svg height="200px" viewBox="0.0 0.0 24.0 24.0" width="200px" xmlns="http://www.w3.org/2000/svg"><path animation_id="0" d="M22.979576110839844 9.208898544311523 C23.173931121826172 7.906692981719971 23.282833099365234 6.538424015045166 23.294445037841797 5.107812404632568 A24.347900390625 24.347900390625 0.0 0 1 22.066082000732422 4.995077133178711 C17.42465591430664 4.454849720001221 14.073822975158691 2.7832107543945312 12.001973152160645 0.0 C9.751211166381836 3.028183937072754 5.984498977661133 4.734658718109131 0.7055540084838867 5.107812404632568 C0.7638387680053711 11.65401554107666 2.793074607849121 16.78516387939453 6.793036937713623 20.489761352539062 C8.25848388671875 21.85036277770996 9.996186256408691 23.020328521728516 12.001973152160645 24.0 C13.448028564453125 23.296419143676758 14.750234603881836 22.48788070678711 15.920427322387695 21.582164764404297 C19.815319061279297 18.569425582885742 22.167091369628906 14.437337875366211 22.979576110839844 9.208898544311523" fill="black" fill-opacity="1.0" filling="0"/>
<path animation_id="1" d="M12.001973152160645 0.8124837875366211 C13.315902709960938 2.402390480041504 15.080774307250977 3.6074180603027344 17.28091812133789 4.415956497192383 L4.635508060455322 17.23610496520996 C2.4626474380493164 14.095186233520508 1.3235692977905273 10.207958221435547 1.2187261581420898 5.574311256408691 C6.132182598114014 5.142873287200928 9.720096588134766 3.552967071533203 12.001973152160645 0.8124837875366211 L12.001973152160645 0.8124837875366211 M22.785221099853516 5.6559319496154785 C22.750160217285156 6.8920745849609375 22.64914894104004 8.077712059020996 22.466516494750977 9.208898544311523 C21.6229190826416 14.503399848937988 19.158411026000977 18.623876571655273 15.08066177368164 21.58205223083496 C14.136053085327148 22.26624298095703 13.11760139465332 22.884258270263672 12.001860618591309 23.440155029296875 C10.143756866455078 22.510990142822266 8.526680946350098 21.403255462646484 7.1466875076293945 20.12810516357422 L21.61908531188965 5.453797340393066 C22.000019073486328 5.504415512084961 22.388729095458984 5.539363861083984 22.785221099853516 5.574311256408691 L22.785221099853516 5.6559319496154785 L22.785221099853516 5.6559319496154785" fill="black" fill-opacity="1.0" filling="0"/>
<path animation_id="2" d="M10.870786666870117 6.180715084075928 L10.820281028747559 6.231220245361328 C10.878564834594727 6.308895111083984 10.901901245117188 6.359513282775879 10.894123077392578 6.382849216461182 C10.894123077392578 6.417910099029541 10.878564834594727 6.4450788497924805 10.859062194824219 6.476193904876709 C10.828060150146484 6.495584487915039 10.769775390625 6.534591197967529 10.676430702209473 6.577205181121826 C10.57530689239502 6.612265586853027 10.49763298034668 6.639435291290283 10.431570053100586 6.6705498695373535 C10.346003532409668 6.721055507659912 10.276106834411621 6.771561145782471 10.217823028564453 6.8337907791137695 C10.031246185302734 7.020367622375488 9.938014030456543 7.238059997558594 9.938014030456543 7.475142002105713 C9.938014030456543 7.696667194366455 10.0156888961792 7.88335657119751 10.182875633239746 8.050543785095215 A0.7982788681983948 0.7982788681983948 0.0 0 0 10.51330280303955 8.252565383911133 C10.626038551330566 8.287625312805176 10.758163452148438 8.295291900634766 10.894235610961914 8.271955490112305 C11.042032241821289 8.260343551635742 11.251832008361816 8.202058792114258 11.5201416015625 8.108715057373047 C11.73005485534668 8.042652130126953 11.877737998962402 7.999812126159668 11.971083641052246 7.9920334815979 C12.064428329467773 7.984254360198975 12.145936012268066 7.984254360198975 12.208165168762207 8.007591247558594 A0.38656944036483765 0.38656944036483765 0.0 0 1 12.390796661376953 8.108602523803711 C12.468585014343262 8.186388969421387 12.499698638916016 8.287400245666504 12.491920471191406 8.415693283081055 C12.491920471191406 8.555597305297852 12.433635711669922 8.676111221313477 12.32473373413086 8.792680740356445 C12.180883407592773 8.936529159545898 11.986528396606445 9.006425857543945 11.749444961547852 9.006425857543945 C11.508417129516602 9.02198314666748 11.259610176086426 8.944195747375488 11.006970405578613 8.777122497558594 L10.944740295410156 8.843185424804688 L11.714497566223145 9.605050086975098 L11.776615142822266 9.538987159729004 C11.749444961547852 9.480703353881836 11.733887672424316 9.426252365112305 11.741666793823242 9.375746726989746 C11.757224082946777 9.325242042541504 11.776615142822266 9.282402038574219 11.800064086914062 9.259065628051758 C11.82723331451416 9.235730171203613 11.877737998962402 9.2085599899292 11.943800926208496 9.173612594604492 C12.064314842224121 9.13088607788086 12.165326118469238 9.080266952514648 12.239280700683594 9.029762268066406 C12.305230140686035 8.99086856842041 12.375351905822754 8.944195747375488 12.441414833068848 8.878132820129395 C12.64749526977539 8.668220520019531 12.748505592346191 8.43891716003418 12.748505592346191 8.18627643585205 C12.771729469299316 7.933524131774902 12.690109252929688 7.719777584075928 12.519089698791504 7.548645496368408 C12.383018493652344 7.408740997314453 12.215944290161133 7.3387322425842285 12.029254913330078 7.315508842468262 C11.850569725036621 7.296005725860596 11.582259178161621 7.3387322425842285 11.232440948486328 7.459359169006348 C10.972023010253906 7.540979385375977 10.808782577514648 7.595430850982666 10.727161407470703 7.6264328956604 C10.622204780578613 7.634212017059326 10.52502727508545 7.634212017059326 10.447239875793457 7.6264328956604 C10.396734237670898 7.603096961975098 10.34622859954834 7.575926780700684 10.295723915100098 7.525421619415283 C10.225714683532715 7.451580047607422 10.19471263885498 7.358234882354736 10.202378273010254 7.253278732299805 C10.202378273010254 7.128818988800049 10.252997398376465 7.020029544830322 10.361785888671875 6.918906211853027 C10.482187271118164 6.790613174438477 10.664932250976562 6.720717430114746 10.886569023132324 6.705159664154053 C11.108094215393066 6.705159664154053 11.310229301452637 6.7712225914001465 11.496918678283691 6.907294273376465 L11.562981605529785 6.841230869293213 L10.870786666870117 6.180715084075928 L10.870786666870117 6.180715084075928 M7.259535789489746 10.884370803833008 C7.341156005859375 11.164179801940918 7.469449043273926 11.401375770568848 7.663804531097412 11.591785430908203 C7.842602729797363 11.778474807739258 8.068073272705078 11.90654182434082 8.32465934753418 11.972718238830566 C8.577298164367676 12.034947395324707 8.837830543518066 12.027169227600098 9.094303131103516 11.949381828308105 C9.346942901611328 11.879486083984375 9.584137916564941 11.735635757446289 9.805663108825684 11.510165214538574 C9.972737312316895 11.346811294555664 10.089530944824219 11.171958923339844 10.151647567749023 10.985382080078125 C10.217710494995117 10.822141647338867 10.252657890319824 10.612228393554688 10.252657890319824 10.375032424926758 L10.081525802612305 10.196234703063965 C10.09325122833252 10.44504165649414 10.073747634887695 10.66273307800293 10.023241996765137 10.833752632141113 C9.98051643371582 11.00093936920166 9.894948959350586 11.14467716217041 9.77060317993164 11.265191078186035 C9.607248306274414 11.432376861572266 9.440174102783203 11.517830848693848 9.272989273071289 11.541167259216309 C9.09419059753418 11.560669898986816 8.899834632873535 11.517830848693848 8.705366134643555 11.409041404724121 C8.518789291381836 11.307917594909668 8.332212448120117 11.164067268371582 8.145635604858398 10.977490425109863 C7.966837406158447 10.79869270324707 7.826932430267334 10.5965576171875 7.733587741851807 10.386645317077637 C7.671470642089844 10.2155122756958 7.648134231567383 10.044492721557617 7.683195114135742 9.877418518066406 C7.721975803375244 9.683063507080078 7.799763202667236 9.52365493774414 7.928056240081787 9.403141021728516 C8.071907043457031 9.251625061035156 8.254537582397461 9.165946960449219 8.468283653259277 9.142723083496094 C8.693754196166992 9.130998611450195 8.92317008972168 9.185449600219727 9.160253524780273 9.325467109680176 L9.210758209228516 9.274961471557617 L8.491620063781738 8.559656143188477 L8.44111442565918 8.610274314880371 C8.476062774658203 8.668558120727539 8.499399185180664 8.72695541381836 8.5032320022583 8.777347564697266 C8.5032320022583 8.827853202819824 8.491620063781738 8.862913131713867 8.468171119689941 8.893916130065918 C8.441001892089844 8.913307189941406 8.359380722045898 8.956146240234375 8.238866806030273 9.022209167480469 C8.001672744750977 9.115553855895996 7.8152079582214355 9.232122421264648 7.671358108520508 9.375972747802734 A1.4000600576400757 1.4000600576400757 0.0 0 0 7.290424823760986 10.064108848571777 C7.201138496398926 10.340197563171387 7.197305679321289 10.612228393554688 7.259535789489746 10.884370803833008 L7.259535789489746 10.884370803833008 M11.166152954101562 9.61711311340332 C11.096144676208496 9.554883003234863 11.014524459838867 9.523881912231445 10.92129135131836 9.531546592712402 C10.812389373779297 9.523881912231445 10.726936340332031 9.562662124633789 10.664706230163574 9.63255786895752 C10.59864330291748 9.69873332977295 10.563694953918457 9.784187316894531 10.563694953918457 9.885197639465332 C10.563694953918457 9.97076416015625 10.59864330291748 10.052384376525879 10.664706230163574 10.114614486694336 C10.74238109588623 10.196234703063965 10.820168495178223 10.231182098388672 10.905734062194824 10.231182098388672 C11.006745338439941 10.231182098388672 11.096144676208496 10.196122169494629 11.166152954101562 10.130171775817871 C11.232215881347656 10.064108848571777 11.267163276672363 9.97854232788086 11.267163276672363 9.877531051635742 C11.275054931640625 9.784299850463867 11.236162185668945 9.69873332977295 11.166152954101562 9.61711311340332 L11.166152954101562 9.61711311340332 M13.129213333129883 7.646274089813232 C13.210947036743164 7.7278947830200195 13.288620948791504 7.762842655181885 13.374187469482422 7.762842655181885 C13.475198745727539 7.762842655181885 13.56076431274414 7.7278947830200195 13.634605407714844 7.661831378936768 C13.700669288635254 7.595768451690674 13.735729217529297 7.510202407836914 13.735729217529297 7.409191608428955 C13.743395805358887 7.3158464431762695 13.704614639282227 7.230393886566162 13.634605407714844 7.152606010437012 C13.56076431274414 7.086543560028076 13.483089447021484 7.059261322021484 13.389744758605957 7.067039966583252 C13.280841827392578 7.059261322021484 13.195388793945312 7.094209671020508 13.129213333129883 7.164217948913574 A0.36188042163848877 0.36188042163848877 0.0 0 0 13.028202056884766 7.416857719421387 C13.028202056884766 7.502424240112305 13.066983222961426 7.584044456481934 13.129213333129883 7.646274089813232 L13.129213333129883 7.646274089813232 M14.015539169311523 15.797828674316406 C13.805625915527344 15.595693588256836 13.576321601867676 15.459622383117676 13.323569297790527 15.397392272949219 C13.059317588806152 15.31577205657959 12.791007995605469 15.323551177978516 12.53836727142334 15.432453155517578 C12.332287788391113 15.502348899841309 12.102983474731445 15.66175651550293 11.850343704223633 15.914396286010742 L10.944515228271484 16.827890396118164 L10.995134353637695 16.878509521484375 L11.057250022888184 16.81244659423828 C11.115534782409668 16.74626922607422 11.173932075500488 16.719100952148438 11.236048698425293 16.711322784423828 C11.290499687194824 16.691932678222656 11.333227157592773 16.691932678222656 11.36817455291748 16.711322784423828 C11.40323543548584 16.719100952148438 11.477076530456543 16.76960563659668 11.581920623779297 16.878509521484375 L12.923020362854004 18.215662002563477 C13.027976989746094 18.316673278808594 13.086260795593262 18.390626907348633 13.094039916992188 18.43718719482422 C13.109597206115723 18.47608184814453 13.109597206115723 18.518808364868164 13.101818084716797 18.57720375061035 A0.6129419803619385 0.6129419803619385 0.0 0 1 12.985137939453125 18.74044418334961 L12.923020362854004 18.806396484375 L12.981304168701172 18.857013702392578 L13.887020111083984 17.951297760009766 C14.023091316223145 17.81139373779297 14.116323471069336 17.706436157226562 14.166829109191895 17.640262603759766 C14.275619506835938 17.473186492919922 14.353405952453613 17.325504302978516 14.396245956420898 17.17770767211914 C14.431193351745605 17.033857345581055 14.454642295837402 16.886173248291016 14.462308883666992 16.73454475402832 C14.454529762268066 16.590694427490234 14.411690711975098 16.43128776550293 14.345626831054688 16.260154724121094 C14.268178939819336 16.093307495117188 14.159276008605957 15.941679000854492 14.015539169311523 15.797828674316406 L14.015539169311523 15.797828674316406 M12.736669540405273 15.856112480163574 C12.973751068115234 15.922174453735352 13.22255802154541 16.085529327392578 13.490755081176758 16.35372543334961 C13.813404083251953 16.676374435424805 13.98836898803711 16.97185516357422 14.023317337036133 17.243885040283203 C14.042707443237305 17.43824005126953 13.972811698913574 17.62481689453125 13.805625915527344 17.799781799316406 C13.755119323730469 17.85028648376465 13.7122802734375 17.877456665039062 13.677332878112793 17.90090560913086 C13.64238452911377 17.90090560913086 13.611156463623047 17.89301300048828 13.591766357421875 17.885234832763672 C13.56076431274414 17.877456665039062 13.506312370300293 17.826950073242188 13.424692153930664 17.749162673950195 L11.834786415100098 16.15937042236328 C12.001973152160645 15.99229621887207 12.138044357299805 15.891173362731934 12.246833801269531 15.856112480163574 C12.390571594238281 15.79004955291748 12.553924560546875 15.79004955291748 12.736669540405273 15.856112480163574 M15.072883605957031 16.32261085510254 C15.150558471679688 16.404342651367188 15.232403755187988 16.439178466796875 15.317745208740234 16.439178466796875 C15.418755531311035 16.439178466796875 15.504433631896973 16.404232025146484 15.570384979248047 16.33816909790039 A0.3831873834133148 0.3831873834133148 0.0 0 0 15.67534065246582 16.085529327392578 C15.683119773864746 15.992183685302734 15.648172378540039 15.906730651855469 15.570384979248047 15.828943252563477 C15.504433631896973 15.762880325317383 15.42664623260498 15.735597610473633 15.33330249786377 15.739543914794922 C15.22439956665039 15.735597610473633 15.138946533203125 15.770545959472656 15.072771072387695 15.840555191040039 C15.006708145141602 15.906617164611816 14.971759796142578 15.992183685302734 14.971759796142578 16.09319496154785 C14.971759796142578 16.178760528564453 15.006820678710938 16.260379791259766 15.072883605957031 16.32261085510254 L15.072883605957031 16.32261085510254 M16.77935791015625 11.094285011291504 L16.721073150634766 11.043778419494629 L15.908590316772461 11.86392879486084 L16.686012268066406 13.768705368041992 L14.777403831481934 12.987336158752441 L13.949475288391113 13.819210052490234 L13.999868392944336 13.869715690612793 L14.06593132019043 13.807598114013672 C14.124327659606934 13.741535186767578 14.182611465454102 13.710420608520508 14.244729995727539 13.706587791442871 A0.3334710896015167 0.3334710896015167 0.0 0 1 14.369075775146484 13.706587791442871 C14.40413761138916 13.722145080566406 14.470087051391602 13.780428886413574 14.575157165527344 13.885385513305664 L15.865638732910156 15.172033309936523 C15.951203346252441 15.257599830627441 16.001710891723633 15.30810546875 16.021100997924805 15.331440925598145 A0.23674418032169342 0.23674418032169342 0.0 0 1 16.07171630859375 15.482958793640137 C16.079383850097656 15.52568531036377 16.06393814086914 15.576303482055664 16.044437408447266 15.634588241577148 C16.02899169921875 15.68509292602539 15.993931770324707 15.739543914794922 15.943424224853516 15.79004955291748 L15.92786693572998 15.797828674316406 L15.978486061096191 15.856112480163574 L16.670455932617188 15.164254188537598 L16.619949340820312 15.109916687011719 C16.526718139648438 15.203147888183594 16.441152572631836 15.257713317871094 16.3673095703125 15.265378952026367 A0.32039380073547363 0.32039380073547363 0.0 0 1 16.157398223876953 15.214873313903809 C16.13800811767578 15.207094192504883 16.071943283081055 15.152643203735352 15.970932006835938 15.05163288116455 L14.532655715942383 13.613354682922363 L17.172016143798828 14.662921905517578 L17.210908889770508 14.627973556518555 L16.13800811767578 11.992446899414062 L17.642459869384766 13.496787071228027 C17.747417449951172 13.597797393798828 17.805700302124023 13.667806625366211 17.813480377197266 13.722257614135742 C17.83692741394043 13.75720500946045 17.844594955444336 13.800045013427734 17.821258544921875 13.834993362426758 A0.48250722885131836 0.48250722885131836 0.0 0 1 17.704689025878906 14.021570205688477 L17.642459869384766 14.08763313293457 L17.700855255126953 14.138138771057129 L18.758089065551758 13.08090591430664 L18.707584381103516 13.030288696289062 L18.641521453857422 13.092517852783203 C18.583234786987305 13.150802612304688 18.524951934814453 13.185750007629395 18.46272087097168 13.197474479675293 C18.412216186523438 13.209086418151855 18.36937713623047 13.209086418151855 18.330595016479492 13.197474479675293 C18.295536041259766 13.174139022827148 18.229585647583008 13.115741729736328 18.132293701171875 13.014730453491211 L16.783416748046875 11.669797897338867 C16.686237335205078 11.568787574768066 16.627954483032227 11.50261116027832 16.604618072509766 11.467663764953613 A0.36075305938720703 0.36075305938720703 0.0 0 1 16.604618072509766 11.339370727539062 C16.612396240234375 11.281086921691895 16.6473445892334 11.22269058227539 16.713520050048828 11.16057300567627 L16.77935791015625 11.094285011291504 L16.77935791015625 11.094285011291504 M19.344987869262695 12.412047386169434 C19.352767944335938 12.31486988067627 19.317819595336914 12.229303359985352 19.24397850036621 12.159407615661621 C19.173969268798828 12.085566520690918 19.096181869506836 12.058396339416504 18.999004364013672 12.066062927246094 C18.894046783447266 12.066062927246094 18.80859375 12.101123809814453 18.74241828918457 12.171019554138184 C18.676467895507812 12.237082481384277 18.641407012939453 12.322648048400879 18.641407012939453 12.423772811889648 C18.641407012939453 12.509224891662598 18.676467895507812 12.590845108032227 18.74241828918457 12.653188705444336 C18.820205688476562 12.734808921813965 18.901824951171875 12.769757270812988 18.98739242553711 12.769757270812988 C19.088401794433594 12.769757270812988 19.173969268798828 12.734696388244629 19.24397850036621 12.672579765319824 A0.38555485010147095 0.38555485010147095 0.0 0 0 19.344987869262695 12.412047386169434 L19.344987869262695 12.412047386169434" fill="black" fill-opacity="1.0" filling="0"/></svg>