<?xml version="1.0" encoding="iso-8859-1"?><svg height="200px" viewBox="0.0 0.0 24.0 24.0" width="200px" xmlns="http://www.w3.org/2000/svg"><path animation_id="0" d="M0.0 0.0 L24.0 0.0 L24.0 24.0 L0.0 24.0 L0.0 0.0" fill="black" fill-opacity="1.0" filling="0"/>
<path animation_id="1" d="M22.077320098876953 18.88638687133789 A0.8640976548194885 0.8640976548194885 0.0 0 0 22.94116973876953 18.022411346435547 L22.94116973876953 5.977712631225586 A0.8638486266136169 0.8638486266136169 0.0 0 0 22.077320098876953 5.113863945007324 L1.9226799011230469 5.113863945007324 A0.8638486266136169 0.8638486266136169 0.0 0 0 1.0588302612304688 5.977712631225586 L1.0588302612304688 18.022287368774414 A0.8640976548194885 0.8640976548194885 0.0 0 0 1.9226799011230469 18.886260986328125 L22.077320098876953 18.886260986328125 L22.077320098876953 18.88638687133789 L22.077320098876953 18.88638687133789" fill="black" fill-opacity="1.0" filling="0"/>
<path animation_id="2" d="M22.044822692871094 18.646329879760742 A0.6562908291816711 0.6562908291816711 0.0 0 0 22.701114654541016 17.990039825439453 L22.701114654541016 5.998132228851318 A0.6564153432846069 0.6564153432846069 0.0 0 0 22.044822692871094 5.34171724319458 L1.9432239532470703 5.34171724319458 A0.6564153432846069 0.6564153432846069 0.0 0 0 1.2866840362548828 5.998132228851318 L1.2866840362548828 17.989913940429688 A0.6564153432846069 0.6564153432846069 0.0 0 0 1.9432239532470703 18.64620590209961 L22.044822692871094 18.64620590209961 L22.044822692871094 18.646329879760742 L22.044822692871094 18.646329879760742" fill="black" fill-opacity="1.0" filling="0"/>
<path animation_id="3" d="M5.8010334968566895 13.017618179321289 L6.594783306121826 13.017618179321289 C7.301126956939697 13.017618179321289 7.491626739501953 13.512046813964844 7.491626739501953 13.834650993347168 C7.491626739501953 14.45495891571045 7.069165229797363 14.963208198547363 6.166096210479736 14.963208198547363 L5.389030933380127 14.963208198547363 L5.389030933380127 14.914026260375977 C5.539563179016113 14.886260032653809 5.585631847381592 14.877046585083008 5.637801170349121 14.68667221069336 L6.003610610961914 13.389030456542969 C6.012824535369873 13.3552885055542 6.037353038787842 13.260163307189941 6.037353038787842 13.198655128479004 C6.037353038787842 13.094316482543945 5.957542419433594 13.079001426696777 5.800909042358398 13.066551208496094 L5.800909042358398 13.017618179321289 L5.8010334968566895 13.017618179321289 L5.8010334968566895 13.017618179321289 M8.16061782836914 14.646953582763672 C8.040840148925781 14.828115463256836 7.905745983123779 14.997074127197266 7.733673572540283 14.997074127197266 C7.589366912841797 14.997074127197266 7.589366912841797 14.861856460571289 7.589366912841797 14.8066987991333 C7.589366912841797 14.662267684936523 7.83203649520874 13.900641441345215 7.83203649520874 13.81447982788086 C7.83203649520874 13.749984741210938 7.80750846862793 13.73466968536377 7.638548374176025 13.73466968536377 L7.638548374176025 13.6854887008667 C7.755338191986084 13.67913818359375 8.010210037231445 13.630082130432129 8.129987716674805 13.608665466308594 L8.139202117919922 13.614767074584961 L7.869016170501709 14.603748321533203 C7.856689453125 14.646828651428223 7.8198347091674805 14.7695951461792 7.8198347091674805 14.806573867797852 C7.8198347091674805 14.827990531921387 7.841250419616699 14.852519035339355 7.869016170501709 14.852519035339355 C7.90587043762207 14.852519035339355 7.994894981384277 14.791259765625 8.120774269104004 14.612961769104004 L8.16061782836914 14.646953582763672 L8.16061782836914 14.646953582763672 M8.099234580993652 13.2802095413208 C8.022536277770996 13.2802095413208 7.951815128326416 13.227914810180664 7.951815128326416 13.120463371276855 C7.951815128326416 13.013011932373047 8.022536277770996 12.95461654663086 8.096246719360352 12.95461654663086 C8.197596549987793 12.95461654663086 8.249767303466797 13.055967330932617 8.249767303466797 13.123576164245605 C8.249767303466797 13.184959411621094 8.200709342956543 13.2802095413208 8.099234580993652 13.2802095413208 M9.604059219360352 14.643715858459473 C9.450538635253906 14.849405288696289 9.342962265014648 14.990973472595215 9.177115440368652 14.990973472595215 C9.035797119140625 14.990973472595215 9.029696464538574 14.89858627319336 9.029696464538574 14.809562683105469 C9.029696464538574 14.735852241516113 9.256925582885742 13.986677169799805 9.256925582885742 13.863786697387695 C9.256925582885742 13.808380126953125 9.23849868774414 13.765298843383789 9.18010425567627 13.765298843383789 C9.032559394836426 13.765298843383789 8.839195251464844 14.02938461303711 8.728631019592285 14.201332092285156 C8.587312698364258 14.413372993469238 8.547345161437988 14.545476913452148 8.421465873718262 14.963208198547363 L8.191123008728027 14.963208198547363 C8.286373138427734 14.616198539733887 8.492063522338867 13.897279739379883 8.492063522338867 13.832907676696777 C8.492063522338867 13.786714553833008 8.461309432983398 13.752848625183105 8.295461654663086 13.752848625183105 L8.295461654663086 13.703916549682617 C8.461309432983398 13.6730375289917 8.627156257629395 13.64240837097168 8.79300308227539 13.608541488647461 L8.802216529846191 13.614643096923828 L8.60573959350586 14.256614685058594 L8.611841201782227 14.262716293334961 C8.756147384643555 14.03561019897461 9.038661003112793 13.608541488647461 9.293656349182129 13.608541488647461 C9.434974670410156 13.608541488647461 9.505696296691895 13.6822509765625 9.505696296691895 13.811367988586426 C9.505696296691895 13.943472862243652 9.25991439819336 14.701862335205078 9.25991439819336 14.794123649597168 C9.25991439819336 14.840316772460938 9.302870750427246 14.846417427062988 9.30909538269043 14.846417427062988 C9.370479583740234 14.846417427062988 9.447301864624023 14.748178482055664 9.560978889465332 14.603748321533203 L9.604059219360352 14.643715858459473 L9.604059219360352 14.643715858459473 M10.6882905960083 14.665380477905273 C10.654547691345215 14.714561462402344 10.37502384185791 14.997074127197266 10.06785774230957 14.997074127197266 C9.745377540588379 14.997074127197266 9.647140502929688 14.75751781463623 9.647140502929688 14.563904762268066 C9.647140502929688 14.124759674072266 10.132353782653809 13.608665466308594 10.565524101257324 13.608665466308594 C10.722156524658203 13.608665466308594 10.817281723022461 13.68237590789795 10.817281723022461 13.817593574523926 C10.817281723022461 14.060263633728027 10.528543472290039 14.309032440185547 10.031003952026367 14.379630088806152 L9.945091247558594 14.392081260681152 C9.929652214050293 14.45657730102539 9.914337158203125 14.51783561706543 9.914337158203125 14.579343795776367 C9.914337158203125 14.7882719039917 10.074084281921387 14.858743667602539 10.203075408935547 14.858743667602539 C10.368922233581543 14.858743667602539 10.497915267944336 14.75440502166748 10.651558876037598 14.628400802612305 L10.6882905960083 14.665380477905273 L10.6882905960083 14.665380477905273 M10.78939151763916 14.963332176208496 L11.038162231445312 14.066488265991211 C11.068792343139648 13.952936172485352 11.087343215942383 13.848347663879395 11.087343215942383 13.820581436157227 C11.087343215942383 13.777750015258789 11.072029113769531 13.728693962097168 10.97677993774414 13.728693962097168 C10.943037033081055 13.728693962097168 10.909170150756836 13.737658500671387 10.875428199768066 13.74400806427002 L10.875428199768066 13.691713333129883 C11.032060623168945 13.67029857635498 11.213347434997559 13.630206108093262 11.351428985595703 13.60879135131836 L11.360642433166504 13.614891052246094 L11.210235595703125 14.226234436035156 L11.216336250305176 14.232335090637207 L11.240863800048828 14.170827865600586 C11.342215538024902 13.968250274658203 11.575671195983887 13.60879135131836 11.769159317016602 13.60879135131836 C11.83988094329834 13.60879135131836 11.91657829284668 13.654983520507812 11.91657829284668 13.759323120117188 C11.91657829284668 13.919069290161133 11.806014060974121 13.919069290161133 11.772272109985352 13.919069290161133 C11.640167236328125 13.919069290161133 11.686235427856445 13.808380126953125 11.612525939941406 13.808380126953125 C11.5172758102417 13.808380126953125 11.333126068115234 14.149287223815918 11.308597564697266 14.195480346679688 C11.191807746887207 14.416485786437988 11.14885139465332 14.554691314697266 11.022972106933594 14.963208198547363 L10.78939151763916 14.963208198547363 L10.78939151763916 14.963332176208496 L10.78939151763916 14.963332176208496 M11.777376174926758 14.514847755432129 C11.798792839050293 14.650066375732422 11.847973823547363 14.932453155517578 12.096619606018066 14.932453155517578 C12.26856803894043 14.932453155517578 12.31787395477295 14.7850341796875 12.31787395477295 14.683932304382324 C12.31787395477295 14.48110580444336 11.952313423156738 14.186391830444336 11.952313423156738 13.949823379516602 C11.952313423156738 13.854697227478027 11.995393753051758 13.608915328979492 12.320737838745117 13.608915328979492 C12.458819389343262 13.608915328979492 12.520450592041016 13.661209106445312 12.612587928771973 13.661209106445312 C12.66488265991211 13.661209106445312 12.683309555053711 13.630331039428711 12.698624610900879 13.605802536010742 L12.741456031799316 13.605802536010742 L12.680197715759277 14.03287124633789 L12.63101577758789 14.03287124633789 C12.615700721740723 13.857810974121094 12.541991233825684 13.679512023925781 12.342401504516602 13.679512023925781 C12.274792671203613 13.679512023925781 12.176554679870605 13.707277297973633 12.176554679870605 13.857810974121094 C12.176554679870605 14.051422119140625 12.551080703735352 14.324722290039062 12.551080703735352 14.585693359375 C12.551080703735352 14.920500755310059 12.265579223632812 14.997447967529297 12.093381881713867 14.997447967529297 C12.001494407653809 14.997447967529297 11.87847900390625 14.93905258178711 11.789579391479492 14.93905258178711 C11.746623039245605 14.93905258178711 11.734296798706055 14.969681739807129 11.715868949890137 15.003548622131348 L11.66668701171875 15.003548622131348 L11.728195190429688 14.51522159576416 L11.777376174926758 14.51522159576416 L11.777376174926758 14.514847755432129 L11.777376174926758 14.514847755432129 M15.15520191192627 13.525867462158203 C15.149100303649902 13.440079689025879 15.121459007263184 13.028326034545898 14.682188987731934 13.028326034545898 C14.06785774230957 13.028326034545898 13.754715919494629 13.771525382995605 13.754715919494629 14.223121643066406 C13.754715919494629 14.625536918640137 13.923426628112793 14.880409240722656 14.288987159729004 14.880409240722656 C14.636245727539062 14.880409240722656 14.851024627685547 14.662267684936523 14.998568534851074 14.51783561706543 L15.050862312316895 14.560916900634766 C14.937061309814453 14.696133613586426 14.663762092590332 15.018614768981934 14.215277671813965 15.018614768981934 C13.859054565429688 15.018614768981934 13.410571098327637 14.80358600616455 13.410571098327637 14.18937873840332 C13.410571098327637 13.596464157104492 13.954304695129395 12.91776180267334 14.657660484313965 12.91776180267334 C14.878665924072266 12.91776180267334 15.066177368164062 12.991471290588379 15.136774063110352 12.991471290588379 C15.22604751586914 12.991471290588379 15.244226455688477 12.954740524291992 15.259540557861328 12.924112319946289 L15.324286460876465 12.924112319946289 L15.210484504699707 13.535205841064453 L15.15520191192627 13.525867462158203 L15.15520191192627 13.525867462158203 M15.852581024169922 14.613085746765137 C15.69594669342041 14.849405288696289 15.576292991638184 14.997074127197266 15.385669708251953 14.997074127197266 C15.250700950622559 14.997074127197266 15.238249778747559 14.892486572265625 15.238249778747559 14.8066987991333 C15.238249778747559 14.74195384979248 15.683496475219727 13.138891220092773 15.683496475219727 13.074270248413086 C15.683496475219727 12.99445915222168 15.5546293258667 12.99445915222168 15.474818229675293 12.997696876525879 L15.474818229675293 12.948515892028809 A4.378260612487793 4.378260612487793 0.0 0 0 15.95393180847168 12.865592002868652 L15.969246864318848 12.88090705871582 L15.505447387695312 14.65903091430664 C15.499346733093262 14.686796188354492 15.474818229675293 14.769720077514648 15.474818229675293 14.803461074829102 C15.474818229675293 14.82188892364502 15.474818229675293 14.864969253540039 15.52076244354248 14.864969253540039 C15.597585678100586 14.864969253540039 15.662080764770508 14.778932571411133 15.812613487243652 14.585320472717285 L15.852581024169922 14.613085746765137 L15.852581024169922 14.613085746765137 M17.244600296020508 14.631637573242188 C17.051237106323242 14.911038398742676 16.97130012512207 14.991098403930664 16.817781448364258 14.991098403930664 C16.679698944091797 14.991098403930664 16.673349380493164 14.87729549407959 16.673349380493164 14.831351280212402 C16.673349380493164 14.775944709777832 16.7348575592041 14.51783561706543 16.80545425415039 14.266202926635742 L16.796239852905273 14.266202926635742 C16.587562561035156 14.613210678100586 16.360206604003906 14.997198104858398 16.083669662475586 14.997198104858398 C15.973230361938477 14.997198104858398 15.914959907531738 14.951005935668945 15.914959907531738 14.815787315368652 C15.914959907531738 14.680818557739258 16.14816665649414 13.906742095947266 16.14816665649414 13.823819160461426 C16.14816665649414 13.734794616699219 16.089773178100586 13.734794616699219 15.96401596069336 13.734794616699219 L15.96401596069336 13.691713333129883 A4.001369953155518 4.001369953155518 0.0 0 0 16.424579620361328 13.60879135131836 L16.433792114257812 13.614891052246094 L16.15439224243164 14.729876518249512 C16.145177841186523 14.769720077514648 16.15439224243164 14.83421516418457 16.218887329101562 14.83421516418457 C16.350994110107422 14.83421516418457 16.54448127746582 14.545601844787598 16.648818969726562 14.38573169708252 C16.799352645874023 14.158624649047852 16.866960525512695 13.96501350402832 16.986614227294922 13.636432647705078 L17.213970184326172 13.636432647705078 L16.97130012512207 14.554691314697266 C16.953121185302734 14.616198539733887 16.912906646728516 14.751167297363281 16.912906646728516 14.797361373901367 C16.912906646728516 14.812675476074219 16.916017532348633 14.846541404724121 16.94988441467285 14.846541404724121 C17.008281707763672 14.846541404724121 17.094316482543945 14.739089965820312 17.20176887512207 14.603872299194336 L17.244600296020508 14.631637573242188 L17.244600296020508 14.631637573242188 M17.527236938476562 12.936064720153809 A6.746560573577881 6.746560573577881 0.0 0 0 17.99726104736328 12.865592002868652 L18.012575149536133 12.88090705871582 A33.1776123046875 33.1776123046875 0.0 0 1 17.74724578857422 13.822946548461914 L17.753345489501953 13.82606029510498 C17.85469627380371 13.666314125061035 18.012327194213867 13.512544631958008 18.288862228393555 13.512544631958008 C18.503643035888672 13.512544631958008 18.642223358154297 13.755961418151855 18.642223358154297 13.980202674865723 C18.642223358154297 14.46554183959961 18.129365921020508 14.996949195861816 17.659217834472656 14.996949195861816 C17.496482849121094 14.996949195861816 17.260162353515625 14.901575088500977 17.260162353515625 14.833966255187988 L17.260162353515625 14.82176399230957 L17.67776870727539 13.28294849395752 C17.699434280395508 13.197160720825195 17.72694969177246 13.120214462280273 17.72694969177246 13.077258110046387 C17.72694969177246 13.00678539276123 17.705533981323242 12.991222381591797 17.527236938476562 12.988234519958496 L17.527236938476562 12.936064720153809 L17.527236938476562 12.936064720153809 M4.765236854553223 17.2774715423584 C4.915644645690918 17.249954223632812 4.961838245391846 17.240739822387695 5.014007568359375 17.050365447998047 L5.379817008972168 15.764677047729492 C5.398244380950928 15.703418731689453 5.413559436798096 15.629708290100098 5.413559436798096 15.574300765991211 C5.413559436798096 15.466849327087402 5.3306355476379395 15.457511901855469 5.198530673980713 15.4421968460083 L5.198530673980713 15.393014907836914 L5.957169055938721 15.393014907836914 L5.957169055938721 15.4421968460083 C5.806761264801025 15.469962120056152 5.757579803466797 15.47593879699707 5.705285549163818 15.669550895690918 L5.339475631713867 16.958227157592773 C5.321048736572266 17.019485473632812 5.305733680725098 17.08099365234375 5.305733680725098 17.15470314025879 C5.305733680725098 17.252941131591797 5.382556438446045 17.262157440185547 5.5146613121032715 17.2774715423584 L5.5146613121032715 17.3267765045166 L4.765236854553223 17.3267765045166 L4.765236854553223 17.2774715423584 L4.765236854553223 17.2774715423584 M7.1237006187438965 17.007282257080078 C6.970180034637451 17.212974548339844 6.862603664398193 17.354291915893555 6.696881294250488 17.354291915893555 C6.555562973022461 17.354291915893555 6.549337387084961 17.262157440185547 6.549337387084961 17.17313003540039 C6.549337387084961 17.09942054748535 6.776691913604736 16.349998474121094 6.776691913604736 16.22710609436035 C6.776691913604736 16.171947479248047 6.7581400871276855 16.128868103027344 6.699869632720947 16.128868103027344 C6.552449703216553 16.128868103027344 6.358961582183838 16.392953872680664 6.248396873474121 16.56490135192871 C6.107078552246094 16.776941299438477 6.067111015319824 16.909046173095703 5.9412312507629395 17.3267765045166 L5.710888385772705 17.3267765045166 C5.806138515472412 16.97951889038086 6.011828422546387 16.260848999023438 6.011828422546387 16.196475982666016 C6.011828422546387 16.150283813476562 5.981074333190918 16.116416931152344 5.815352439880371 16.116416931152344 L5.815352439880371 16.067235946655273 C5.981198787689209 16.036605834960938 6.147046089172363 16.005727767944336 6.312892913818359 15.9721097946167 L6.322106838226318 15.97821044921875 L6.1255059242248535 16.62018394470215 L6.131606578826904 16.626283645629883 C6.275913715362549 16.398929595947266 6.558550834655762 15.9721097946167 6.813422203063965 15.9721097946167 C6.954740524291992 15.9721097946167 7.0253376960754395 16.045818328857422 7.0253376960754395 16.174686431884766 C7.0253376960754395 16.306793212890625 6.779680252075195 17.0654296875 6.779680252075195 17.157691955566406 C6.779680252075195 17.203636169433594 6.822636127471924 17.20973777770996 6.828861713409424 17.20973777770996 C6.890244960784912 17.20973777770996 6.967067241668701 17.111499786376953 7.080620288848877 16.967315673828125 L7.1237006187438965 17.007282257080078 L7.1237006187438965 17.007282257080078 M7.9413557052612305 16.110441207885742 L7.6833720207214355 16.110441207885742 L7.413061141967773 17.133289337158203 C7.4100728034973145 17.142501831054688 7.4100728034973145 17.148603439331055 7.4100728034973145 17.15781593322754 C7.4100728034973145 17.185333251953125 7.425512313842773 17.209861755371094 7.459254264831543 17.209861755371094 C7.520761966705322 17.209861755371094 7.628213882446289 17.0656795501709 7.705036640167236 16.96744155883789 L7.745004177093506 16.98885726928711 C7.5883708000183105 17.22542381286621 7.468592643737793 17.360393524169922 7.308846473693848 17.360393524169922 C7.247463226318359 17.360393524169922 7.161427021026611 17.32976531982422 7.161427021026611 17.237627029418945 C7.161427021026611 17.191682815551758 7.219821929931641 17.00417137145996 7.232024192810059 16.95499038696289 L7.453153610229492 16.110441207885742 L7.225798606872559 16.110441207885742 C7.2228102684021 16.092012405395508 7.2228102684021 16.076698303222656 7.232024192810059 16.061260223388672 C7.250326633453369 16.033493041992188 7.336363315582275 16.01207733154297 7.388657093048096 15.98443603515625 C7.4900078773498535 15.93214225769043 7.637427806854248 15.794060707092285 7.723464012145996 15.686485290527344 C7.735790729522705 15.671170234680176 7.747992515563965 15.643404006958008 7.775633811950684 15.649505615234375 C7.797173976898193 15.643404006958008 7.803275108337402 15.671170234680176 7.797173976898193 15.695697784423828 L7.711261749267578 16.01207733154297 L7.9569196701049805 16.01207733154297 L7.9413557052612305 16.110441207885742 L7.9413557052612305 16.110441207885742 M8.89335823059082 17.02869987487793 C8.859491348266602 17.077880859375 8.579967498779297 17.360393524169922 8.27292537689209 17.360393524169922 C7.950320720672607 17.360393524169922 7.852082252502441 17.12083625793457 7.852082252502441 16.927473068237305 C7.852082252502441 16.488327026367188 8.337297439575195 15.972234725952148 8.770341873168945 15.972234725952148 C8.92697525024414 15.972234725952148 9.022224426269531 16.045944213867188 9.022224426269531 16.181161880493164 C9.022224426269531 16.423583984375 8.733487129211426 16.672353744506836 8.235946655273438 16.743200302124023 L8.149909973144531 16.755401611328125 C8.134594917297363 16.820146560668945 8.119279861450195 16.881404876708984 8.119279861450195 16.942913055419922 C8.119279861450195 17.151840209960938 8.278902053833008 17.222312927246094 8.407894134521484 17.222312927246094 C8.57374095916748 17.222312927246094 8.702733993530273 17.11797332763672 8.856377601623535 16.991968154907227 L8.89335823059082 17.02869987487793 L8.89335823059082 17.02869987487793 M9.006287574768066 17.3267765045166 L9.255058288574219 16.429931640625 C9.285812377929688 16.316131591796875 9.304363250732422 16.2117919921875 9.304363250732422 16.184024810791016 C9.304363250732422 16.140945434570312 9.288924217224121 16.091888427734375 9.193799018859863 16.091888427734375 C9.160057067871094 16.091888427734375 9.126315116882324 16.10110092163086 9.092449188232422 16.10720443725586 L9.092449188232422 16.055158615112305 C9.2490816116333 16.033493041992188 9.430243492126465 15.993650436401367 9.568449020385742 15.972234725952148 L9.577662467956543 15.978336334228516 L9.427254676818848 16.58942985534668 L9.433356285095215 16.595779418945312 L9.457884788513184 16.534271240234375 C9.559235572814941 16.331445693969727 9.792567253112793 15.972234725952148 9.986055374145508 15.972234725952148 C10.056652069091797 15.972234725952148 10.133599281311035 16.018177032470703 10.133599281311035 16.12276840209961 C10.133599281311035 16.282262802124023 10.02303409576416 16.282262802124023 9.989167213439941 16.282262802124023 C9.857063293457031 16.282262802124023 9.903131484985352 16.171823501586914 9.829421997070312 16.171823501586914 C9.734171867370605 16.171823501586914 9.549897193908691 16.51272964477539 9.525368690490723 16.55867576599121 C9.408703804016113 16.779682159423828 9.365623474121094 16.918136596679688 9.239744186401367 17.326650619506836 L9.006287574768066 17.326650619506836 L9.006287574768066 17.3267765045166 L9.006287574768066 17.3267765045166 M11.470459938049316 17.007282257080078 C11.316939353942871 17.212974548339844 11.209362983703613 17.354291915893555 11.043516159057617 17.354291915893555 C10.902196884155273 17.354291915893555 10.89597225189209 17.262157440185547 10.89597225189209 17.17313003540039 C10.89597225189209 17.09942054748535 11.123327255249023 16.349998474121094 11.123327255249023 16.22710609436035 C11.123327255249023 16.171947479248047 11.104900360107422 16.128868103027344 11.046504974365234 16.128868103027344 C10.89908504486084 16.128868103027344 10.705596923828125 16.392953872680664 10.595032691955566 16.56490135192871 C10.453838348388672 16.776941299438477 10.413870811462402 16.909046173095703 10.28799057006836 17.3267765045166 L10.057523727416992 17.3267765045166 C10.1527738571167 16.97951889038086 10.358588218688965 16.260848999023438 10.358588218688965 16.196475982666016 C10.358588218688965 16.150283813476562 10.327834129333496 16.116416931152344 10.1619873046875 16.116416931152344 L10.1619873046875 16.067235946655273 C10.327834129333496 16.036605834960938 10.493680953979492 16.005727767944336 10.659528732299805 15.9721097946167 L10.668741226196289 15.97821044921875 L10.47214126586914 16.62018394470215 L10.47836685180664 16.626283645629883 C10.622673988342285 16.398929595947266 10.90531063079834 15.9721097946167 11.160181999206543 15.9721097946167 C11.30150032043457 15.9721097946167 11.372221946716309 16.045818328857422 11.372221946716309 16.174686431884766 C11.372221946716309 16.306793212890625 11.126440048217773 17.0654296875 11.126440048217773 17.157691955566406 C11.126440048217773 17.203636169433594 11.169395446777344 17.20973777770996 11.17562198638916 17.20973777770996 C11.237004280090332 17.20973777770996 11.313826560974121 17.111499786376953 11.427379608154297 16.967315673828125 L11.470459938049316 17.007282257080078 L11.470459938049316 17.007282257080078 M12.880159378051758 17.01936149597168 C12.69588565826416 17.246715545654297 12.591297149658203 17.357406616210938 12.459192276000977 17.357406616210938 C12.330324172973633 17.357406616210938 12.330324172973633 17.277345657348633 12.330324172973633 17.225299835205078 C12.330324172973633 17.154579162597656 12.3456392288208 17.08696937561035 12.394821166992188 16.899707794189453 L12.38871955871582 16.893606185913086 C12.133848190307617 17.268131256103516 11.971114158630371 17.36026954650879 11.786839485168457 17.36026954650879 C11.479673385620117 17.36026954650879 11.470459938049316 17.08696937561035 11.470459938049316 16.99794578552246 C11.470459938049316 16.546348571777344 11.940360069274902 15.972234725952148 12.348876953125 15.972234725952148 C12.48098087310791 15.972234725952148 12.582083702087402 16.052043914794922 12.591297149658203 16.13808250427246 L12.597646713256836 16.13808250427246 L12.628276824951172 16.00286293029785 L12.637490272521973 15.993650436401367 L12.824752807617188 15.972234725952148 L12.846417427062988 15.981447219848633 C12.837203025817871 16.018177032470703 12.554566383361816 17.065553665161133 12.554566383361816 17.160680770874023 C12.554566383361816 17.182344436645508 12.572994232177734 17.20077133178711 12.597646713256836 17.20077133178711 C12.643590927124023 17.20077133178711 12.705099105834961 17.123950958251953 12.843304634094238 16.988733291625977 L12.880159378051758 17.01936149597168 L12.880159378051758 17.01936149597168 M13.655482292175293 16.110441207885742 L13.397746086120605 16.110441207885742 L13.127311706542969 17.133289337158203 C13.124198913574219 17.142501831054688 13.124198913574219 17.148603439331055 13.124198913574219 17.15781593322754 C13.124198913574219 17.185333251953125 13.139761924743652 17.209861755371094 13.173379898071289 17.209861755371094 C13.234888076782227 17.209861755371094 13.342339515686035 17.0656795501709 13.419286727905273 16.96744155883789 L13.45913028717041 16.98885726928711 C13.302495956420898 17.22542381286621 13.18259334564209 17.360393524169922 13.023097038269043 17.360393524169922 C12.961588859558105 17.360393524169922 12.875428199768066 17.32976531982422 12.875428199768066 17.237627029418945 C12.875428199768066 17.191682815551758 12.93407154083252 17.00417137145996 12.946149826049805 16.95499038696289 L13.167154312133789 16.110441207885742 L12.940049171447754 16.110441207885742 C12.936936378479004 16.092012405395508 12.936936378479004 16.076698303222656 12.946149826049805 16.061260223388672 C12.964576721191406 16.033493041992188 13.05048942565918 16.01207733154297 13.102783203125 15.98443603515625 C13.204133987426758 15.93214225769043 13.351553916931152 15.794060707092285 13.437589645385742 15.686485290527344 C13.44979190826416 15.671170234680176 13.462118148803711 15.643404006958008 13.489635467529297 15.649505615234375 C13.511299133300781 15.643404006958008 13.517400741577148 15.671170234680176 13.511299133300781 15.695697784423828 L13.425262451171875 16.01207733154297 L13.671170234680176 16.01207733154297 L13.655482292175293 16.110441207885742 L13.655482292175293 16.110441207885742 M14.30081558227539 17.01039695739746 C14.180912017822266 17.191558837890625 14.045944213867188 17.360393524169922 13.873747825622559 17.360393524169922 C13.729564666748047 17.360393524169922 13.729564666748047 17.22542381286621 13.729564666748047 17.170019149780273 C13.729564666748047 17.025835037231445 13.972234725952148 16.264209747314453 13.972234725952148 16.178050994873047 C13.972234725952148 16.11355209350586 13.94770622253418 16.098237991333008 13.778621673583984 16.098237991333008 L13.778621673583984 16.049057006835938 C13.895411491394043 16.042707443237305 14.15015983581543 15.993650436401367 14.270061492919922 15.972234725952148 L14.27902603149414 15.978336334228516 L14.008840560913086 16.967315673828125 C13.996638298034668 17.01039695739746 13.9596586227417 17.133163452148438 13.9596586227417 17.169893264770508 C13.9596586227417 17.191558837890625 13.981075286865234 17.216087341308594 14.008840560913086 17.216087341308594 C14.045819282531738 17.216087341308594 14.134844779968262 17.154579162597656 14.260724067687988 16.976530075073242 L14.30081558227539 17.01039695739746 L14.30081558227539 17.01039695739746 M14.239307403564453 15.643528938293457 C14.162734985351562 15.643528938293457 14.091888427734375 15.591235160827637 14.091888427734375 15.484031677246094 C14.091888427734375 15.376580238342285 14.162610054016113 15.318184852600098 14.236319541931152 15.318184852600098 C14.33767032623291 15.318184852600098 14.389715194702148 15.419286727905273 14.389715194702148 15.486896514892578 C14.389840126037598 15.548402786254883 14.340784072875977 15.643528938293457 14.239307403564453 15.643528938293457 M15.701799392700195 16.426820755004883 C15.701799392700195 16.80445671081543 15.281081199645996 17.360393524169922 14.811057090759277 17.360393524169922 C14.48546314239502 17.360393524169922 14.347258567810059 17.17313003540039 14.347258567810059 16.918258666992188 C14.347258567810059 16.466663360595703 14.801717758178711 15.972234725952148 15.250203132629395 15.972234725952148 C15.60679817199707 15.972234725952148 15.701799392700195 16.22399139404297 15.701799392700195 16.426820755004883" fill="black" fill-opacity="1.0" filling="0"/>
<path animation_id="4" d="M17.027952194213867 17.007282257080078 C16.874557495117188 17.212974548339844 16.76698112487793 17.354291915893555 16.60088348388672 17.354291915893555 C16.459815979003906 17.354291915893555 16.45346450805664 17.262157440185547 16.45346450805664 17.17313003540039 C16.45346450805664 17.09942054748535 16.68082046508789 16.349998474121094 16.68082046508789 16.22710609436035 C16.68082046508789 16.171947479248047 16.662391662597656 16.128868103027344 16.60399627685547 16.128868103027344 C16.45657730102539 16.128868103027344 16.263090133666992 16.392953872680664 16.152400970458984 16.56490135192871 C16.01108169555664 16.776941299438477 15.971238136291504 16.909046173095703 15.845234870910645 17.3267765045166 L15.61489200592041 17.3267765045166 C15.71026611328125 16.97951889038086 15.915956497192383 16.260848999023438 15.915956497192383 16.196475982666016 C15.915956497192383 16.150283813476562 15.885326385498047 16.116416931152344 15.71947956085205 16.116416931152344 L15.71947956085205 16.067235946655273 C15.885326385498047 16.036605834960938 16.051172256469727 16.005727767944336 16.21702003479004 15.9721097946167 L16.22598648071289 15.97821044921875 L16.029508590698242 16.62018394470215 L16.035860061645508 16.626283645629883 C16.18004035949707 16.398929595947266 16.462678909301758 15.9721097946167 16.71755027770996 15.9721097946167 C16.858867645263672 15.9721097946167 16.929590225219727 16.045818328857422 16.929590225219727 16.174686431884766 C16.929590225219727 16.306793212890625 16.68368148803711 17.0654296875 16.68368148803711 17.157691955566406 C16.68368148803711 17.203636169433594 16.726764678955078 17.20973777770996 16.732864379882812 17.20973777770996 C16.79437255859375 17.20973777770996 16.871196746826172 17.111499786376953 16.9847469329834 16.967315673828125 L17.027952194213867 17.007282257080078 L17.027952194213867 17.007282257080078 M18.449604034423828 17.01936149597168 C18.26545524597168 17.246715545654297 18.160991668701172 17.357406616210938 18.028884887695312 17.357406616210938 C17.900020599365234 17.357406616210938 17.900020599365234 17.277345657348633 17.900020599365234 17.225299835205078 C17.900020599365234 17.154579162597656 17.915332794189453 17.08696937561035 17.964515686035156 16.899707794189453 L17.95841407775879 16.893606185913086 C17.70329475402832 17.268131256103516 17.54068374633789 17.36026954650879 17.356285095214844 17.36026954650879 C17.049118041992188 17.36026954650879 17.039905548095703 17.08696937561035 17.039905548095703 16.99794578552246 C17.039905548095703 16.546348571777344 17.509929656982422 15.972234725952148 17.91832160949707 15.972234725952148 C18.050552368164062 15.972234725952148 18.152027130126953 16.052043914794922 18.160991668701172 16.13808250427246 L18.167341232299805 16.13808250427246 L18.19797134399414 16.00286293029785 L18.207183837890625 15.993650436401367 L18.394447326660156 15.972234725952148 L18.415863037109375 15.981447219848633 C18.406898498535156 16.018177032470703 18.1242618560791 17.065553665161133 18.1242618560791 17.160680770874023 C18.1242618560791 17.182344436645508 18.142688751220703 17.20077133178711 18.167341232299805 17.20077133178711 C18.213285446166992 17.20077133178711 18.27479362487793 17.123950958251953 18.413000106811523 16.988733291625977 L18.449604034423828 17.01936149597168 L18.449604034423828 17.01936149597168 M19.03567123413086 17.060449600219727 C18.879039764404297 17.296770095825195 18.81927490234375 17.36026954650879 18.628774642944336 17.36026954650879 C18.49355697631836 17.36026954650879 18.48110580444336 17.255929946899414 18.48110580444336 17.169893264770508 C18.48110580444336 17.105398178100586 18.92660140991211 15.50208568572998 18.92660140991211 15.437713623046875 C18.92660140991211 15.357903480529785 18.7974853515625 15.357903480529785 18.717674255371094 15.360892295837402 L18.717674255371094 15.311710357666016 A4.252505779266357 4.252505779266357 0.0 0 0 19.196788787841797 15.22878646850586 L19.21210289001465 15.244101524353027 L18.748302459716797 17.02247428894043 C18.742202758789062 17.05023956298828 18.717674255371094 17.133163452148438 18.717674255371094 17.166906356811523 C18.717674255371094 17.18508529663086 18.717674255371094 17.228164672851562 18.76361846923828 17.228164672851562 C18.84044075012207 17.228164672851562 18.845048904418945 17.226173400878906 18.995580673217773 17.032684326171875 L19.03567123413086 17.060449600219727 M19.256179809570312 15.448172569274902 C19.256179809570312 15.295897483825684 19.37969207763672 15.183589935302734 19.525619506835938 15.183589935302734 C19.670297622680664 15.183589935302734 19.793811798095703 15.295897483825684 19.793811798095703 15.448172569274902 C19.793811798095703 15.601818084716797 19.670297622680664 15.714250564575195 19.525619506835938 15.714250564575195 C19.37969207763672 15.714250564575195 19.256179809570312 15.60194206237793 19.256179809570312 15.448172569274902" fill="black" fill-opacity="1.0" filling="0"/>
<path animation_id="5" d="M19.525619506835938 15.670048713684082 C19.645771026611328 15.670048713684082 19.740398406982422 15.575920104980469 19.740398406982422 15.448297500610352 C19.740398406982422 15.322792053222656 19.645771026611328 15.22791576385498 19.525619506835938 15.22791576385498 C19.404220581054688 15.22791576385498 19.30946922302246 15.322792053222656 19.30946922302246 15.448297500610352 C19.30946922302246 15.575920104980469 19.40434455871582 15.670048713684082 19.525619506835938 15.670048713684082" fill="black" fill-opacity="1.0" filling="0"/>
<path animation_id="6" d="M19.469465255737305 15.60194206237793 L19.42327117919922 15.60194206237793 L19.42327117919922 15.296022415161133 L19.539813995361328 15.296022415161133 C19.612030029296875 15.296022415161133 19.647762298583984 15.322792053222656 19.647762298583984 15.383054733276367 C19.647762298583984 15.437713623046875 19.613521575927734 15.461620330810547 19.568449020385742 15.467223167419434 L19.65548324584961 15.60194206237793 L19.603687286376953 15.60194206237793 L19.52300262451172 15.469463348388672 L19.469465255737305 15.469463348388672 L19.469465255737305 15.60194206237793 L19.469465255737305 15.60194206237793" fill="black" fill-opacity="1.0" filling="0"/>
<path animation_id="7" d="M19.524869918823242 15.429994583129883 C19.56421661376953 15.429994583129883 19.599327087402344 15.427130699157715 19.599327087402344 15.3801908493042 C19.599327087402344 15.342215538024902 19.565086364746094 15.335243225097656 19.53271484375 15.335243225097656 L19.469465255737305 15.335243225097656 L19.469465255737305 15.430119514465332 L19.524869918823242 15.430119514465332 L19.524869918823242 15.429994583129883 L19.524869918823242 15.429994583129883" fill="black" fill-opacity="1.0" filling="0"/>
<path animation_id="8" d="M13.775633811950684 12.32571792602539 C15.45290470123291 12.32571792602539 16.812549591064453 10.966071128845215 16.812549591064453 9.288800239562988 C16.812549591064453 7.61152982711792 15.45290470123291 6.251758575439453 13.775633811950684 6.251758575439453 L9.936624526977539 6.251758575439453 C8.259353637695312 6.251758575439453 6.899583339691162 7.61152982711792 6.899583339691162 9.288800239562988 C6.899583339691162 10.966071128845215 8.259353637695312 12.32571792602539 9.936624526977539 12.32571792602539 L13.775633811950684 12.32571792602539" fill="black" fill-opacity="1.0" filling="0"/>
<path animation_id="9" d="M9.936624526977539 12.257859230041504 C11.576292991638184 12.257859230041504 12.905808448791504 10.92846965789795 12.905808448791504 9.288800239562988 C12.905808448791504 7.6490068435668945 11.576417922973633 6.319616794586182 9.936624526977539 6.319616794586182 C8.296831130981445 6.319616794586182 6.967440605163574 7.6490068435668945 6.967440605163574 9.288800239562988 C6.967440605163574 10.92846965789795 8.296707153320312 12.257859230041504 9.936624526977539 12.257859230041504 L9.936624526977539 12.257859230041504" fill="black" fill-opacity="1.0" filling="0"/>
<path animation_id="10" d="M9.337234497070312 7.574550151824951 C8.629148483276367 7.822200298309326 8.121148109436035 8.496171951293945 8.121148109436035 9.288800239562988 C8.121148109436035 10.082674026489258 8.630890846252441 10.757641792297363 9.340970993041992 11.004171371459961 L9.337234497070312 7.574550151824951 L9.337234497070312 7.574550151824951 M11.75197696685791 9.288800239562988 C11.75197696685791 10.082674026489258 11.242358207702637 10.757641792297363 10.532154083251953 11.004171371459961 L10.535890579223633 7.574674606323242 C11.243976593017578 7.822200298309326 11.75197696685791 8.496171951293945 11.75197696685791 9.288800239562988" fill="black" fill-opacity="1.0" filling="0"/>
<path animation_id="11" d="M6.003361701965332 14.465790748596191 C5.9757208824157715 14.566893577575684 5.935877799987793 14.70211124420166 5.935877799987793 14.751291275024414 C5.935877799987793 14.852643013000488 6.009587287902832 14.871194839477539 6.153893947601318 14.871194839477539 C7.121459484100342 14.871194839477539 7.150719165802002 13.985307693481445 7.150719165802002 13.797796249389648 C7.150719165802002 13.487517356872559 7.106269359588623 13.109880447387695 6.562659740447998 13.109880447387695 C6.387598514556885 13.109880447387695 6.375396728515625 13.155824661254883 6.363070487976074 13.198904991149902 L6.003361701965332 14.465790748596191 L6.003361701965332 14.465790748596191 M9.966506958007812 14.324472427368164 C10.599265098571777 14.195605278015137 10.614580154418945 13.826931953430176 10.614580154418945 13.80240249633789 C10.614580154418945 13.737658500671387 10.583826065063477 13.679387092590332 10.507003784179688 13.679387092590332 C10.341156959533691 13.679387092590332 10.132353782653809 13.915956497192383 10.018675804138184 14.18937873840332 L9.966506958007812 14.324472427368164 M18.168960571289062 13.675403594970703 C17.830915451049805 13.675403594970703 17.56658172607422 14.279523849487305 17.524248123168945 14.824877738952637 C17.522504806518555 14.846541404724121 17.524248123168945 14.926227569580078 17.668432235717773 14.926227569580078 C18.089399337768555 14.926227569580078 18.381000518798828 14.278155326843262 18.381000518798828 14.020170211791992 C18.381000518798828 13.925168991088867 18.362573623657227 13.675403594970703 18.168960571289062 13.675403594970703 L18.168960571289062 13.675403594970703 M8.171574592590332 16.687667846679688 C8.804208755493164 16.558799743652344 8.819522857666016 16.190128326416016 8.819522857666016 16.165597915649414 C8.819522857666016 16.10110092163086 8.788893699645996 16.042831420898438 8.712071418762207 16.042831420898438 C8.546099662780762 16.042831420898438 8.337297439575195 16.279399871826172 8.22374439239502 16.552824020385742 L8.171574592590332 16.687667846679688 M11.912718772888184 17.209861755371094 C12.238187789916992 17.209861755371094 12.539252281188965 16.54647445678711 12.539252281188965 16.24565887451172 C12.539252281188965 16.098237991333008 12.453215599060059 16.039966583251953 12.364191055297852 16.039966583251953 C12.00485610961914 16.039966583251953 11.72844409942627 16.715559005737305 11.72844409942627 16.991968154907227 C11.72844409942627 17.154579162597656 11.829670906066895 17.209861755371094 11.912718772888184 17.209861755371094 M14.605366706848145 17.01039695739746 C14.605366706848145 17.18520736694336 14.697504043579102 17.2958984375 14.851024627685547 17.2958984375 C15.20114517211914 17.2958984375 15.443940162658691 16.660276412963867 15.443940162658691 16.331445693969727 C15.443940162658691 16.171947479248047 15.376331329345703 16.03672981262207 15.228910446166992 16.03672981262207 C14.884765625 16.03672981262207 14.605366706848145 16.647825241088867 14.605366706848145 17.01039695739746 M17.48216438293457 17.209861755371094 C17.807756423950195 17.209861755371094 18.108821868896484 16.54647445678711 18.108821868896484 16.24565887451172 C18.108821868896484 16.098237991333008 18.022785186767578 16.039966583251953 17.933761596679688 16.039966583251953 C17.57430076599121 16.039966583251953 17.297889709472656 16.715559005737305 17.297889709472656 16.991968154907227 C17.297889709472656 17.154579162597656 17.399242401123047 17.209861755371094 17.48216438293457 17.209861755371094 L17.48216438293457 17.209861755371094" fill="black" fill-opacity="1.0" filling="0"/></svg>