<?xml version="1.0" encoding="iso-8859-1"?><svg height="200px" viewBox="0.0 0.0 24.0 24.0" width="200px" xmlns="http://www.w3.org/2000/svg"><path animation_id="0" d="M0.0 0.0 L24.0 0.0 L24.0 24.0 L0.0 24.0 L0.0 0.0" fill="black" fill-opacity="1.0" filling="0"/>
<path animation_id="1" d="M5.071655750274658 12.673971176147461 C5.4477996826171875 12.673971176147461 5.730062961578369 12.360456466674805 5.730062961578369 12.015687942504883 C5.730062961578369 11.670921325683594 5.4479241371154785 11.357281684875488 5.071655750274658 11.357281684875488 C4.726763725280762 11.357281684875488 4.444624423980713 11.670796394348145 4.444624423980713 12.015687942504883 C4.444624423980713 12.360580444335938 4.726763725280762 12.673971176147461 5.071655750274658 12.673971176147461 L5.071655750274658 12.673971176147461" fill="black" fill-opacity="1.0" filling="0"/>
<path animation_id="2" d="M5.071655750274658 13.301127433776855 C5.792691230773926 13.301127433776855 6.356969356536865 12.736723899841309 6.356969356536865 12.015687942504883 C6.356969356536865 11.294651985168457 5.792691230773926 10.730374336242676 5.071655750274658 10.730374336242676 C4.381996154785156 10.730374336242676 3.7863407135009766 11.294651985168457 3.7863407135009766 12.015687942504883 C3.7863407135009766 12.736723899841309 4.381996154785156 13.301127433776855 5.071655750274658 13.301127433776855 L5.071655750274658 13.301127433776855 M1.0588302612304688 12.015687942504883 L8.332067489624023 12.015687942504883 M20.58980369567871 12.015687942504883 L22.94116973876953 12.015687942504883 M5.071655750274658 7.877482891082764 L5.071655750274658 16.12251853942871" fill="none" filling="0" stroke="black" stroke-opacity="1.0" stroke-width=".3"/>
<path animation_id="3" d="M6.639108657836914 15.05671501159668 L9.868144035339355 8.91203498840332 L11.498350143432617 11.890307426452637 L13.034676551818848 8.91203498840332 L14.445371627807617 11.545414924621582 L15.009525299072266 13.395007133483887 L13.097305297851562 13.395007133483887 L12.564278602600098 12.673971176147461 L14.225984573364258 12.673971176147461 L13.06592845916748 10.416858673095703 L11.874619483947754 12.673971176147461 L13.253937721252441 15.025338172912598 L12.313516616821289 15.025338172912598 L11.498350143432617 13.395007133483887 L10.651933670043945 15.025338172912598 L9.774139404296875 15.025338172912598 L11.059453010559082 12.705348014831543 L9.868144035339355 10.448235511779785 L8.739587783813477 12.642595291137695 L10.40117073059082 12.642595291137695 L9.93089771270752 13.395007133483887 L8.363319396972656 13.395007133483887 L7.54827880859375 15.025338172912598 L6.639108657836914 15.05671501159668 L6.639108657836914 15.05671501159668 M19.430118560791016 9.601818084716797 C18.897092819213867 9.194297790527344 18.23880958557129 8.943410873413086 17.51777458190918 8.943410873413086 C16.796737670898438 8.943410873413086 16.138206481933594 9.194173812866211 15.605428695678711 9.601818084716797 L19.430118560791016 9.601818084716797" fill="black" fill-opacity="1.0" filling="0"/>
<path animation_id="4" d="M19.86876678466797 10.00933837890625 L18.83421516418457 10.00933837890625 C19.523876190185547 10.448235511779785 19.99414825439453 11.200647354125977 19.99414825439453 12.078441619873047 C19.99414825439453 13.457759857177734 18.896968841552734 14.555065155029297 17.51752471923828 14.555065155029297 C16.169334411621094 14.555065155029297 15.072029113769531 13.457884788513184 15.072029113769531 12.078441619873047 C15.072029113769531 11.200647354125977 15.51092529296875 10.448235511779785 16.200586318969727 10.00933837890625 L15.166033744812012 10.00933837890625 C14.664384841918945 10.573616027832031 14.382245063781738 11.294651985168457 14.382245063781738 12.078441619873047 C14.382245063781738 13.834029197692871 15.792941093444824 15.24472427368164 17.517398834228516 15.24472427368164 A3.157567262649536 3.157567262649536 0.0 0 0 20.683683395385742 12.078441619873047 C20.68393325805664 11.294651985168457 20.37041664123535 10.573616027832031 19.86876678466797 10.00933837890625 L19.86876678466797 10.00933837890625" fill="black" fill-opacity="1.0" filling="0"/></svg>