<?xml version="1.0" encoding="iso-8859-1"?><svg height="200px" viewBox="0.0 0.0 24.0 24.0" width="200px" xmlns="http://www.w3.org/2000/svg"><path animation_id="0" d="M0.0 24.0 L24.0 24.0 L24.0 0.0 L0.0 0.0 L0.0 24.0" fill="black" fill-opacity="1.0" filling="0"/>
<path animation_id="1" d="M1.0588302612304688 12.909916877746582 L22.94116973876953 12.909916877746582 L22.94116973876953 11.089709281921387 L1.0588302612304688 11.089709281921387 L1.0588302612304688 12.909916877746582 L1.0588302612304688 12.909916877746582" fill="black" fill-opacity="1.0" filling="0"/>
<path animation_id="2" d="M4.664633274078369 12.717300415039062 L4.772334098815918 12.717300415039062 L4.772334098815918 12.77121353149414 L4.466040134429932 12.77121353149414 L4.466040134429932 12.717300415039062 L4.563406944274902 12.717300415039062 L4.563406944274902 11.791695594787598 L4.466040134429932 11.791695594787598 L4.466040134429932 11.737783432006836 L4.664633274078369 11.737783432006836 L4.664633274078369 11.790077209472656 L4.6595282554626465 11.845358848571777 L4.6660027503967285 11.848472595214844 C4.680445671081543 11.803400039672852 4.703729152679443 11.771275520324707 4.7357282638549805 11.752349853515625 C4.767851829528809 11.73342514038086 4.801718235015869 11.723090171813965 4.837701797485352 11.720849990844727 L4.854136943817139 11.720849990844727 C4.943037033081055 11.720849990844727 5.011144161224365 11.756957054138184 5.058581829071045 11.82929801940918 C5.106019973754883 11.90151309967041 5.1296772956848145 11.988919258117676 5.1296772956848145 12.091265678405762 C5.1296772956848145 12.201083183288574 5.104650497436523 12.290605545043945 5.054722309112549 12.359583854675293 C5.004793643951416 12.428936004638672 4.938305377960205 12.463425636291504 4.855506896972656 12.463425636291504 A0.2975783050060272 0.2975783050060272 0.0 0 1 4.824130058288574 12.461806297302246 A0.18414990603923798 0.18414990603923798 0.0 0 1 4.791383743286133 12.455705642700195 A0.18664009869098663 0.18664009869098663 0.0 0 1 4.718421459197998 12.418850898742676 C4.695262432098389 12.400299072265625 4.677831172943115 12.372657775878906 4.6658782958984375 12.335803031921387 L4.6594038009643555 12.338666915893555 L4.664508819580078 12.377264022827148 L4.664508819580078 12.717300415039062 L4.664633274078369 12.717300415039062 L4.664633274078369 12.717300415039062 M4.664633274078369 12.163606643676758 C4.664633274078369 12.234452247619629 4.680196762084961 12.291229248046875 4.711448669433594 12.334309577941895 C4.7425761222839355 12.377513885498047 4.78167200088501 12.399053573608398 4.828737258911133 12.399053573608398 C4.877420425415039 12.399053573608398 4.920998573303223 12.375895500183105 4.959347724914551 12.329702377319336 C4.99782133102417 12.283757209777832 5.016995429992676 12.204694747924805 5.016995429992676 12.093132972717285 C5.016995429992676 11.986553192138672 4.999813079833984 11.910602569580078 4.9650750160217285 11.86552906036377 C4.930585861206055 11.820456504821777 4.892735004425049 11.794808387756348 4.851771354675293 11.78870677947998 C4.847413539886475 11.78870677947998 4.84355354309082 11.788333892822266 4.839569091796875 11.787836074829102 C4.835585117340088 11.787337303161621 4.832098484039307 11.787088394165039 4.828737258911133 11.787088394165039 C4.779181957244873 11.787088394165039 4.7393388748168945 11.809375762939453 4.70958137512207 11.853950500488281 C4.679574012756348 11.898649215698242 4.664633274078369 11.954678535461426 4.664633274078369 12.022411346435547 L4.664633274078369 12.163606643676758 L4.664633274078369 12.163606643676758 M5.371973037719727 12.39444637298584 L5.480918884277344 12.39444637298584 L5.480918884277344 12.448234558105469 L5.205379009246826 12.448234558105469 L5.205379009246826 12.39444637298584 L5.302745819091797 12.39444637298584 L5.4898834228515625 12.097740173339844 L5.302745819091797 11.791695594787598 L5.205379009246826 11.791695594787598 L5.205379009246826 11.737783432006836 L5.500093460083008 11.737783432006836 L5.500093460083008 11.791695594787598 L5.420656204223633 11.791695594787598 L5.550146579742432 12.002242088317871 L5.6833720207214355 11.791695594787598 L5.589740753173828 11.791695594787598 L5.589740753173828 11.737783432006836 L5.851211071014404 11.737783432006836 L5.851211071014404 11.791695594787598 L5.752599239349365 11.791695594787598 L5.5846357345581055 12.057648658752441 L5.789578914642334 12.39444637298584 L5.8805952072143555 12.39444637298584 L5.8805952072143555 12.448234558105469 L5.578160762786865 12.448234558105469 L5.578160762786865 12.39444637298584 L5.671667575836182 12.39444637298584 L5.5243730545043945 12.153022766113281 L5.371973037719727 12.39444637298584 L5.371973037719727 12.39444637298584 M6.4432549476623535 11.859428405761719 L6.4432549476623535 11.791695594787598 L6.345763683319092 11.791695594787598 L6.345763683319092 11.737783432006836 L6.641848087310791 11.737783432006836 L6.641848087310791 11.791695594787598 L6.544356822967529 11.791695594787598 L6.544356822967529 12.39444637298584 L6.641848087310791 12.39444637298584 L6.641848087310791 12.448234558105469 L6.345763683319092 12.448234558105469 L6.345763683319092 12.39444637298584 L6.4432549476623535 12.39444637298584 L6.4432549476623535 11.945465087890625 L6.140820503234863 12.32833194732666 L6.140820503234863 12.39444637298584 L6.238187313079834 12.39444637298584 L6.238187313079834 12.448234558105469 L5.942227363586426 12.448234558105469 L5.942227363586426 12.39444637298584 L6.0395941734313965 12.39444637298584 L6.0395941734313965 11.791695594787598 L5.942227363586426 11.791695594787598 L5.942227363586426 11.737783432006836 L6.238187313079834 11.737783432006836 L6.238187313079834 11.791695594787598 L6.140820503234863 11.791695594787598 L6.140820503234863 12.245284080505371 L6.4432549476623535 11.859428405761719 L6.4432549476623535 11.859428405761719 M6.842931270599365 12.39444637298584 L6.940298080444336 12.39444637298584 L6.940298080444336 11.791695594787598 L6.775073528289795 11.791695594787598 L6.775073528289795 11.951565742492676 L6.70335578918457 11.951565742492676 L6.70335578918457 11.737907409667969 L7.278590679168701 11.737907409667969 L7.278590679168701 11.951565742492676 L7.206872940063477 11.951565742492676 L7.206872940063477 11.791695594787598 L7.041524410247803 11.791695594787598 L7.041524410247803 12.39444637298584 L7.1390156745910645 12.39444637298584 L7.1390156745910645 12.448234558105469 L6.842931270599365 12.448234558105469 L6.842931270599365 12.39444637298584 M7.464359283447266 12.108448028564453 C7.463612079620361 12.19448471069336 7.477432727813721 12.259353637695312 7.506070137023926 12.302931785583496 C7.534707069396973 12.346635818481445 7.5660834312438965 12.376020431518555 7.600199222564697 12.391334533691406 C7.612277030944824 12.396438598632812 7.624105453491211 12.400299072265625 7.6360578536987305 12.403038024902344 C7.648135662078857 12.405529022216797 7.65921688079834 12.406898498535156 7.669426918029785 12.406898498535156 C7.712133407592773 12.406898498535156 7.750607013702393 12.397311210632324 7.784722805023193 12.378385543823242 C7.818963050842285 12.35945987701416 7.852206707000732 12.330324172973633 7.884704113006592 12.291478157043457 L7.917948246002197 12.333064079284668 C7.891552448272705 12.369918823242188 7.855693340301514 12.400672912597656 7.8103718757629395 12.425325393676758 A0.30753907561302185 0.30753907561302185 0.0 0 1 7.669426918029785 12.463798522949219 L7.661707401275635 12.463798522949219 C7.653240203857422 12.463798522949219 7.644649028778076 12.463425636291504 7.6360578536987305 12.463051795959473 A0.16435286402702332 0.16435286402702332 0.0 0 1 7.610533714294434 12.459192276000977 C7.545539855957031 12.448858261108398 7.486023902893066 12.414617538452148 7.431737422943115 12.356222152709961 C7.377575874328613 12.29770278930664 7.350432872772217 12.209052085876465 7.350432872772217 12.090145111083984 C7.350432872772217 11.969120979309082 7.379941463470459 11.877482414245605 7.4388346672058105 11.81485366821289 C7.497727870941162 11.752349853515625 7.563468933105469 11.721098899841309 7.6360578536987305 11.721098899841309 L7.646392345428467 11.721098899841309 C7.714748382568359 11.724211692810059 7.777252197265625 11.754093170166016 7.834028720855713 11.810994148254395 C7.890929698944092 11.867895126342773 7.918819427490234 11.958414077758789 7.917948246002197 12.082426071166992 L7.917948246002197 12.108572959899902 L7.464359283447266 12.108572959899902 L7.464359283447266 12.108448028564453 L7.464359283447266 12.108448028564453 M7.805266857147217 12.059266090393066 C7.805266857147217 11.969993591308594 7.790948390960693 11.90288257598877 7.762186527252197 11.857686042785645 C7.733673572540283 11.812613487243652 7.702297210693359 11.784972190856934 7.668181896209717 11.774637222290039 A0.10894602537155151 0.10894602537155151 0.0 0 0 7.632322788238525 11.768536567687988 C7.583639621734619 11.768536567687988 7.543422698974609 11.794683456420898 7.5117974281311035 11.846978187561035 C7.480172157287598 11.899147033691406 7.464359283447266 11.964763641357422 7.464359283447266 12.043703079223633 L7.464359283447266 12.059142112731934 L7.805266857147217 12.059142112731934 L7.805266857147217 12.059266090393066 L7.805266857147217 12.059266090393066 M8.112805366516113 11.791695594787598 L8.0154390335083 11.791695594787598 L8.0154390335083 11.737783432006836 L8.301189422607422 11.737783432006836 L8.301189422607422 11.791695594787598 L8.214032173156738 11.791695594787598 L8.214032173156738 12.108448028564453 L8.463922500610352 11.791695594787598 L8.376766204833984 11.791695594787598 L8.376766204833984 11.737783432006836 L8.63686752319336 11.737783432006836 L8.63686752319336 11.791695594787598 L8.539501190185547 11.791695594787598 L8.36518669128418 12.008466720581055 L8.535640716552734 12.28213882446289 C8.555313110351562 12.312768936157227 8.574736595153809 12.339164733886719 8.593912124633789 12.361327171325684 C8.613086700439453 12.383365631103516 8.632883071899414 12.39444637298584 8.653552055358887 12.39444637298584 L8.686796188354492 12.39444637298584 L8.686796188354492 12.448234558105469 A0.013073522597551346 0.013073522597551346 0.0 0 0 8.682313919067383 12.448982238769531 A0.0099607789888978 0.0099607789888978 0.0 0 1 8.677831649780273 12.449853897094727 A0.21440577507019043 0.21440577507019043 0.0 0 1 8.618938446044922 12.463674545288086 L8.609973907470703 12.463674545288086 C8.599638938903809 12.463674545288086 8.589926719665527 12.462553977966309 8.580465316772461 12.460686683654785 A0.07308722287416458 0.07308722287416458 0.0 0 1 8.553569793701172 12.448234558105469 A0.12201955169439316 0.12201955169439316 0.0 0 1 8.511983871459961 12.413745880126953 A0.696382999420166 0.696382999420166 0.0 0 1 8.463922500610352 12.346884727478027 L8.302433967590332 12.088650703430176 L8.214032173156738 12.197722434997559 L8.214032173156738 12.394571304321289 L8.31139850616455 12.394571304321289 L8.31139850616455 12.448359489440918 L8.0154390335083 12.448359489440918 L8.0154390335083 12.394571304321289 L8.112805366516113 12.394571304321289 L8.112805366516113 11.791695594787598 L8.112805366516113 11.791695594787598 M8.862354278564453 12.39444637298584 L8.959845542907715 12.39444637298584 L8.959845542907715 11.791695594787598 L8.7944974899292 11.791695594787598 L8.7944974899292 11.951565742492676 L8.722654342651367 11.951565742492676 L8.722654342651367 11.737907409667969 L9.298014640808105 11.737907409667969 L9.298014640808105 11.951565742492676 L9.226296424865723 11.951565742492676 L9.226296424865723 11.791695594787598 L9.06107234954834 11.791695594787598 L9.06107234954834 12.39444637298584 L9.15831470489502 12.39444637298584 L9.15831470489502 12.448234558105469 L8.86223030090332 12.448234558105469 L8.86223030090332 12.39444637298584 L8.862354278564453 12.39444637298584 L8.862354278564453 12.39444637298584 M9.702919960021973 12.320612907409668 L9.708148956298828 12.28525161743164 L9.877233505249023 11.793313980102539 L9.759323120117188 11.791695594787598 L9.759323120117188 11.737783432006836 L10.034863471984863 11.737783432006836 L10.034863471984863 11.791695594787598 L9.934881210327148 11.791695594787598 L9.670920372009277 12.572620391845703 C9.669178009033203 12.576729774475098 9.667684555053711 12.581585884094238 9.665815353393555 12.587312698364258 A0.10072838515043259 0.10072838515043259 0.0 0 1 9.659341812133789 12.603374481201172 A0.9462740421295166 0.9462740421295166 0.0 0 1 9.597211837768555 12.749424934387207 C9.57455062866211 12.791508674621582 9.542302131652832 12.812675476074219 9.500467300415039 12.812675476074219 A0.10122642666101456 0.10122642666101456 0.0 0 1 9.489011764526367 12.811928749084473 A0.06810683012008667 0.06810683012008667 0.0 0 0 9.477432250976562 12.810932159423828 A0.13795679807662964 0.13795679807662964 0.0 0 1 9.437091827392578 12.794870376586914 A0.15314698219299316 0.15314698219299316 0.0 0 1 9.40048599243164 12.764863967895508 L9.44667911529541 12.648073196411133 C9.452654838562012 12.661272048950195 9.46037483215332 12.673598289489746 9.46971321105957 12.684927940368652 C9.47917652130127 12.696134567260742 9.489385604858398 12.701861381530762 9.500467300415039 12.701861381530762 A0.0884019136428833 0.0884019136428833 0.0 0 0 9.550519943237305 12.688165664672852 C9.564216613769531 12.678827285766602 9.57567024230957 12.659777641296387 9.585134506225586 12.631264686584473 L9.649131774902344 12.448110580444336 L9.405714988708496 11.791695594787598 L9.315943717956543 11.791695594787598 L9.315943717956543 11.737783432006836 L9.619499206542969 11.737783432006836 L9.619499206542969 11.791695594787598 L9.504201889038086 11.791695594787598 L9.688726425170898 12.28525161743164 L9.69644546508789 12.320612907409668 L9.702919960021973 12.320612907409668 M10.255245208740234 12.717300415039062 L10.362821578979492 12.717300415039062 L10.362821578979492 12.77121353149414 L10.056527137756348 12.77121353149414 L10.056527137756348 12.717300415039062 L10.154019355773926 12.717300415039062 L10.154019355773926 11.791695594787598 L10.056527137756348 11.791695594787598 L10.056527137756348 11.737783432006836 L10.255245208740234 11.737783432006836 L10.255245208740234 11.790077209472656 L10.250140190124512 11.845358848571777 L10.256490707397461 11.848472595214844 C10.27105712890625 11.803400039672852 10.294341087341309 11.771275520324707 10.326339721679688 11.752349853515625 C10.358339309692383 11.73342514038086 10.39233112335205 11.723090171813965 10.428189277648926 11.720849990844727 L10.444748878479004 11.720849990844727 C10.533524513244629 11.720849990844727 10.601631164550781 11.756957054138184 10.64919376373291 11.82929801940918 C10.696632385253906 11.90151309967041 10.720413208007812 11.988919258117676 10.720413208007812 12.091265678405762 C10.720413208007812 12.201083183288574 10.69538688659668 12.290605545043945 10.645459175109863 12.359583854675293 C10.595405578613281 12.428936004638672 10.52904224395752 12.463425636291504 10.44611930847168 12.463425636291504 A0.2975783050060272 0.2975783050060272 0.0 0 1 10.414742469787598 12.461806297302246 A0.18278031051158905 0.18278031051158905 0.0 0 1 10.382121086120605 12.455705642700195 A0.1871381551027298 0.1871381551027298 0.0 0 1 10.309033393859863 12.418850898742676 C10.285999298095703 12.400299072265625 10.26844310760498 12.372657775878906 10.256490707397461 12.335803031921387 L10.250140190124512 12.338666915893555 L10.255245208740234 12.377264022827148 L10.255245208740234 12.717300415039062 L10.255245208740234 12.717300415039062 M10.255245208740234 12.163606643676758 C10.255245208740234 12.234452247619629 10.270808219909668 12.291229248046875 10.301936149597168 12.334309577941895 C10.3331880569458 12.377513885498047 10.372283935546875 12.399053573608398 10.419224739074707 12.399053573608398 C10.467907905578613 12.399053573608398 10.511486053466797 12.375895500183105 10.549960136413574 12.329702377319336 C10.588308334350586 12.283757209777832 10.6076078414917 12.204694747924805 10.6076078414917 12.093132972717285 C10.6076078414917 11.986553192138672 10.590300559997559 11.910602569580078 10.555686950683594 11.86552906036377 C10.521073341369629 11.820456504821777 10.483346939086914 11.794808387756348 10.442258834838867 11.78870677947998 A0.09338230639696121 0.09338230639696121 0.0 0 1 10.430180549621582 11.787836074829102 A0.08528917282819748 0.08528917282819748 0.0 0 0 10.419224739074707 11.787088394165039 C10.369668960571289 11.787088394165039 10.329950332641602 11.809375762939453 10.300068855285645 11.853950500488281 C10.270186424255371 11.898649215698242 10.255245208740234 11.954678535461426 10.255245208740234 12.022411346435547 L10.255245208740234 12.163606643676758 L10.255245208740234 12.163606643676758 M11.020233154296875 12.39444637298584 L11.117599487304688 12.39444637298584 L11.117599487304688 12.448234558105469 L10.821516036987305 12.448234558105469 L10.821516036987305 12.39444637298584 L10.91900634765625 12.39444637298584 L10.91900634765625 11.791695594787598 L10.821516036987305 11.791695594787598 L10.821516036987305 11.737783432006836 L11.117599487304688 11.737783432006836 L11.117599487304688 11.791695594787598 L11.020233154296875 11.791695594787598 L11.020233154296875 12.059266090393066 L11.320052146911621 12.059266090393066 L11.320052146911621 11.791695594787598 L11.222685813903809 11.791695594787598 L11.222685813903809 11.737783432006836 L11.518645286560059 11.737783432006836 L11.518645286560059 11.791695594787598 L11.421278953552246 11.791695594787598 L11.421278953552246 12.39444637298584 L11.518645286560059 12.39444637298584 L11.518645286560059 12.448234558105469 L11.222685813903809 12.448234558105469 L11.222685813903809 12.39444637298584 L11.320052146911621 12.39444637298584 L11.320052146911621 12.108448028564453 L11.020233154296875 12.108448028564453 L11.020233154296875 12.39444637298584 M12.201581954956055 12.39444637298584 L12.201581954956055 12.448234558105469 L12.006848335266113 12.448234558105469 L12.006848335266113 12.383614540100098 C11.993151664733887 12.401045799255371 11.976716995239258 12.415489196777344 11.957542419433594 12.426694869995117 A0.23432733118534088 0.23432733118534088 0.0 0 1 11.899271965026855 12.451347351074219 C11.885575294494629 12.45545768737793 11.872252464294434 12.458444595336914 11.859428405761719 12.460561752319336 A0.23445184528827667 0.23445184528827667 0.0 0 1 11.823569297790527 12.463549613952637 C11.756085395812988 12.463549613952637 11.702919960021973 12.43976879119873 11.66407299041748 12.39195728302002 A0.2492685168981552 0.2492685168981552 0.0 0 1 11.605802536010742 12.22984504699707 C11.605802536010742 12.220507621765137 11.606175422668457 12.211044311523438 11.607047080993652 12.201333045959473 C11.607918739318848 12.191620826721191 11.609662055969238 12.182158470153809 11.612152099609375 12.172819137573242 C11.621739387512207 12.122642517089844 11.644649505615234 12.076448440551758 11.681504249572754 12.034489631652832 C11.718234062194824 11.99240493774414 11.768660545349121 11.971487998962402 11.832658767700195 11.971487998962402 L11.845483779907227 11.971487998962402 C11.849716186523438 11.971487998962402 11.854074478149414 11.971985816955566 11.858307838439941 11.972982406616211 C11.88644790649414 11.975969314575195 11.913590431213379 11.984312057495117 11.939737319946289 11.997634887695312 C11.96575927734375 12.010831832885742 11.988171577453613 12.031375885009766 12.006972312927246 12.059142112731934 L12.006972312927246 11.948328018188477 C12.006972312927246 11.883708000183105 11.993525505065918 11.838386535644531 11.966631889343262 11.812239646911621 A0.13135777413845062 0.13135777413845062 0.0 0 0 11.872377395629883 11.773018836975098 C11.865654945373535 11.773018836975098 11.846978187561035 11.775882720947266 11.81672191619873 11.781485557556152 C11.786341667175293 11.787088394165039 11.7537202835083 11.806386947631836 11.718607902526855 11.839133262634277 L11.71163558959961 11.845234870910645 A0.06711074709892273 0.06711074709892273 0.0 0 0 11.70578384399414 11.851459503173828 L11.66992473602295 11.791446685791016 L11.678266525268555 11.784598350524902 L11.686609268188477 11.777626037597656 C11.714001655578613 11.757081985473633 11.742140769958496 11.742513656616211 11.771151542663574 11.733798027038574 C11.800287246704102 11.725082397460938 11.833157539367676 11.720725059509277 11.869887351989746 11.720725059509277 C11.964639663696289 11.720725059509277 12.026022911071777 11.745377540588379 12.053912162780762 11.79455852508545 C12.08167839050293 11.843740463256836 12.09724235534668 11.898151397705078 12.100604057312012 11.957542419433594 C12.101351737976074 11.970864295959473 12.101973533630371 11.98443603515625 12.101973533630371 11.99825668334961 L12.101973533630371 12.394073486328125 L12.201581954956055 12.394073486328125 L12.201581954956055 12.39444637298584 L12.201581954956055 12.39444637298584 M12.006848335266113 12.159248352050781 C11.99738597869873 12.127373695373535 11.98182201385498 12.098984718322754 11.96003246307373 12.073710441589355 C11.938243865966797 12.048434257507324 11.910727500915527 12.036108016967773 11.877357482910156 12.036108016967773 A0.15190188586711884 0.15190188586711884 0.0 0 0 11.75633430480957 12.090643882751465 C11.725207328796387 12.12700080871582 11.709518432617188 12.174064636230469 11.709518432617188 12.231339454650879 C11.709518432617188 12.279648780822754 11.72446060180664 12.319741249084473 11.754467010498047 12.352113723754883 C11.78434944152832 12.38448715209961 11.819709777832031 12.400547981262207 11.860798835754395 12.400547981262207 L11.86901569366455 12.400547981262207 A0.1543920785188675 0.1543920785188675 0.0 0 0 11.953060150146484 12.362945556640625 C11.97696590423584 12.342900276184082 11.994894981384277 12.316503524780273 12.006848335266113 12.283757209777832 L12.006848335266113 12.159248352050781 L12.006848335266113 12.159248352050781 M12.767975807189941 12.39444637298584 L12.86534309387207 12.39444637298584 L12.86534309387207 12.448234558105469 L12.569382667541504 12.448234558105469 L12.569382667541504 12.39444637298584 L12.666749954223633 12.39444637298584 L12.666749954223633 12.113055229187012 L12.564278602600098 12.113055229187012 L12.451472282409668 12.354354858398438 C12.436033248901367 12.387225151062012 12.418725967407227 12.41175365447998 12.399551391601562 12.428189277648926 C12.380376815795898 12.444623947143555 12.360456466674805 12.45495891571045 12.340036392211914 12.458943367004395 A0.06051173433661461 0.06051173433661461 0.0 0 1 12.323974609375 12.46280288696289 C12.318495750427246 12.463176727294922 12.313141822814941 12.463549613952637 12.307912826538086 12.463549613952637 C12.294341087341309 12.463549613952637 12.281517028808594 12.461931228637695 12.270061492919922 12.458943367004395 A0.27267634868621826 0.27267634868621826 0.0 0 1 12.23731517791748 12.448110580444336 L12.23731517791748 12.394322395324707 L12.265704154968262 12.394322395324707 A0.06374899297952652 0.06374899297952652 0.0 0 0 12.298948287963867 12.385108947753906 A0.1161675974726677 0.1161675974726677 0.0 0 0 12.32845687866211 12.358962059020996 C12.33953857421875 12.345763206481934 12.350868225097656 12.329453468322754 12.362323760986328 12.310527801513672 C12.373778343200684 12.291478157043457 12.385979652404785 12.269314765930176 12.398804664611816 12.24366569519043 C12.399676322937012 12.241549491882324 12.400672912597656 12.239806175231934 12.401419639587402 12.238187789916992 A0.07719603925943375 0.07719603925943375 0.0 0 0 12.403909683227539 12.232833862304688 L12.409014701843262 12.221378326416016 A0.610471248626709 0.610471248626709 0.0 0 1 12.447985649108887 12.1527738571167 A0.11542052775621414 0.11542052775621414 0.0 0 1 12.498661994934082 12.111311912536621 L12.497292518615723 12.103591918945312 A0.04768722876906395 0.04768722876906395 0.0 0 0 12.489198684692383 12.104339599609375 A0.05428624898195267 0.05428624898195267 0.0 0 1 12.480856895446777 12.105086326599121 A0.018925480544567108 0.018925480544567108 0.0 0 1 12.472514152526855 12.106829643249512 L12.4642972946167 12.106829643249512 C12.42233657836914 12.106829643249512 12.384860038757324 12.091265678405762 12.352113723754883 12.060636520385742 A0.15177737176418304 0.15177737176418304 0.0 0 1 12.302807807922363 11.945341110229492 C12.302807807922363 11.934134483337402 12.303555488586426 11.92018985748291 12.304924964904785 11.903879165649414 C12.306169509887695 11.887443542480469 12.31015396118164 11.870012283325195 12.317002296447754 11.851584434509277 C12.328207969665527 11.822823524475098 12.349249839782715 11.796675682067871 12.380501747131348 11.773143768310547 C12.411628723144531 11.749610900878906 12.461806297302246 11.737783432006836 12.531034469604492 11.737783432006836 L12.865592002868652 11.737783432006836 L12.865592002868652 11.791695594787598 L12.768224716186523 11.791695594787598 L12.768224716186523 12.39444637298584 L12.767975807189941 12.39444637298584 M12.543734550476074 11.791695594787598 C12.504388809204102 11.791695594787598 12.475626945495605 11.799788475036621 12.457200050354004 11.8163480758667 A0.13272738456726074 0.13272738456726074 0.0 0 0 12.419473648071289 11.870136260986328 A0.14318619668483734 0.14318619668483734 0.0 0 0 12.41175365447998 11.906244277954102 A0.34588807821273804 0.34588807821273804 0.0 0 0 12.410385131835938 11.9347562789917 C12.410385131835938 11.982817649841309 12.425698280334473 12.015687942504883 12.456452369689941 12.033119201660156 C12.48720645904541 12.050676345825195 12.524933815002441 12.059391975402832 12.569258689880371 12.059391975402832 L12.6666259765625 12.059391975402832 L12.6666259765625 11.791820526123047 L12.543734550476074 11.791820526123047 L12.543734550476074 11.791695594787598 L12.543734550476074 11.791695594787598 M15.524497032165527 12.39444637298584 L15.524497032165527 12.448234558105469 L15.329889297485352 12.448234558105469 L15.329889297485352 12.383614540100098 C15.316192626953125 12.401045799255371 15.29975700378418 12.415489196777344 15.280582427978516 12.426694869995117 A0.2340783178806305 0.2340783178806305 0.0 0 1 15.222063064575195 12.451347351074219 A0.31127434968948364 0.31127434968948364 0.0 0 1 15.182469367980957 12.460561752319336 A0.23445184528827667 0.23445184528827667 0.0 0 1 15.146610260009766 12.463549613952637 C15.079126358032227 12.463549613952637 15.025835990905762 12.43976879119873 14.987113952636719 12.39195728302002 A0.2492685168981552 0.2492685168981552 0.0 0 1 14.928842544555664 12.22984504699707 C14.928842544555664 12.220507621765137 14.929216384887695 12.211044311523438 14.93008804321289 12.201333045959473 C14.930959701538086 12.191620826721191 14.932703018188477 12.182158470153809 14.935193061828613 12.172819137573242 C14.944655418395996 12.122642517089844 14.967689514160156 12.076448440551758 15.00442123413086 12.034489631652832 C15.04115104675293 11.99240493774414 15.091577529907227 11.971487998962402 15.155699729919434 11.971487998962402 L15.168523788452148 11.971487998962402 C15.172882080078125 11.971487998962402 15.177114486694336 11.971985816955566 15.18134880065918 11.972982406616211 C15.209736824035645 11.975969314575195 15.236631393432617 11.984312057495117 15.262778282165527 11.997634887695312 C15.288800239562988 12.010831832885742 15.311212539672852 12.031375885009766 15.330013275146484 12.059142112731934 L15.330013275146484 11.948328018188477 C15.330013275146484 11.883708000183105 15.316566467285156 11.838386535644531 15.2896728515625 11.812239646911621 A0.13135777413845062 0.13135777413845062 0.0 0 0 15.195418357849121 11.773018836975098 C15.188570022583008 11.773018836975098 15.170018196105957 11.775882720947266 15.139762878417969 11.781485557556152 C15.109506607055664 11.787088394165039 15.076760292053223 11.806386947631836 15.041648864746094 11.839133262634277 L15.034675598144531 11.845234870910645 C15.032559394836426 11.84735107421875 15.030567169189453 11.849343299865723 15.028948783874512 11.851459503173828 L14.992965698242188 11.791446685791016 L15.001307487487793 11.784598350524902 C15.004171371459961 11.781983375549316 15.007159233093262 11.779742240905762 15.009525299072266 11.777626037597656 C15.037041664123535 11.757081985473633 15.065056800842285 11.742513656616211 15.094191551208496 11.733798027038574 C15.123202323913574 11.725082397460938 15.156197547912598 11.720725059509277 15.192928314208984 11.720725059509277 C15.287679672241211 11.720725059509277 15.349063873291016 11.745377540588379 15.376829147338867 11.79455852508545 C15.404470443725586 11.843740463256836 15.420158386230469 11.898151397705078 15.4235200881958 11.957542419433594 C15.42439079284668 11.970864295959473 15.424765586853027 11.98443603515625 15.424765586853027 11.99825668334961 L15.424765586853027 12.394073486328125 L15.524497032165527 12.394073486328125 L15.524497032165527 12.39444637298584 L15.524497032165527 12.39444637298584 M15.329764366149902 12.159248352050781 C15.320301055908203 12.127373695373535 15.304737091064453 12.098984718322754 15.282949447631836 12.073710441589355 C15.261159896850586 12.048434257507324 15.233642578125 12.036108016967773 15.200398445129395 12.036108016967773 C15.150843620300293 12.036108016967773 15.11037826538086 12.05428695678711 15.07925033569336 12.090643882751465 C15.047998428344727 12.12700080871582 15.032435417175293 12.174064636230469 15.032435417175293 12.231339454650879 C15.032435417175293 12.279648780822754 15.047375679016113 12.319741249084473 15.077134132385254 12.352113723754883 C15.10714054107666 12.38448715209961 15.142501831054688 12.400547981262207 15.183589935302734 12.400547981262207 L15.191807746887207 12.400547981262207 A0.15526364743709564 0.15526364743709564 0.0 0 0 15.27585220336914 12.362945556640625 C15.299633026123047 12.342900276184082 15.317687034606934 12.316503524780273 15.32964038848877 12.283757209777832 L15.32964038848877 12.159248352050781 L15.329764366149902 12.159248352050781 L15.329764366149902 12.159248352050781 M16.108821868896484 11.942352294921875 L16.051172256469727 11.942352294921875 C16.050302505493164 11.890058517456055 16.034738540649414 11.85170841217041 16.004358291625977 11.827055931091309 A0.18141070008277893 0.18141070008277893 0.0 0 0 15.903754234313965 11.78559398651123 A0.03884704038500786 0.03884704038500786 0.0 0 0 15.892797470092773 11.783975601196289 L15.881840705871582 11.783975601196289 A0.12488327920436859 0.12488327920436859 0.0 0 0 15.811367988586426 11.808629035949707 C15.786714553833008 11.82606029510498 15.764054298400879 11.856813430786133 15.743510246276855 11.900890350341797 C15.722966194152832 11.944966316223145 15.712756156921387 12.008964538574219 15.712756156921387 12.093132972717285 C15.712756156921387 12.18639087677002 15.730935096740723 12.260101318359375 15.767167091369629 12.314387321472168 C15.803524017333984 12.368797302246094 15.848970413208008 12.395816802978516 15.903754234313965 12.395816802978516 C15.94222640991211 12.395816802978516 15.977961540222168 12.389217376708984 16.01070785522461 12.375895500183105 C16.043703079223633 12.36269760131836 16.07545280456543 12.341156005859375 16.1062068939209 12.311274528503418 L16.140819549560547 12.365062713623047 A0.28848907351493835 0.28848907351493835 0.0 0 1 16.10869598388672 12.391084671020508 A0.4057772755622864 0.4057772755622864 0.0 0 1 16.020917892456055 12.44113826751709 A0.2911037802696228 0.2911037802696228 0.0 0 1 15.904998779296875 12.463425636291504 C15.819461822509766 12.463425636291504 15.747245788574219 12.429683685302734 15.688352584838867 12.362074851989746 C15.629459381103516 12.294341087341309 15.599950790405273 12.205192565917969 15.599950790405273 12.094503402709961 C15.599950790405273 11.979704856872559 15.628837585449219 11.888689041137695 15.686485290527344 11.821702003479004 C15.744132995605469 11.754467010498047 15.81062126159668 11.720849990844727 15.885700225830078 11.720849990844727 C15.920811653137207 11.720849990844727 15.950695037841797 11.726700782775879 15.975472450256348 11.738530158996582 A0.2664508521556854 0.2664508521556854 0.0 0 1 16.04084014892578 11.780987739562988 L16.0498046875 11.805516242980957 L16.056154251098633 11.80252742767334 L16.051048278808594 11.777874946594238 L16.051048278808594 11.737907409667969 L16.10869598388672 11.737907409667969 L16.10869598388672 11.942352294921875 L16.108821868896484 11.942352294921875 L16.108821868896484 11.942352294921875 M16.352237701416016 12.39444637298584 L16.44960594177246 12.39444637298584 L16.44960594177246 11.791695594787598 L16.284379959106445 11.791695594787598 L16.284379959106445 11.951565742492676 L16.212663650512695 11.951565742492676 L16.212663650512695 11.737907409667969 L16.787899017333984 11.737907409667969 L16.787899017333984 11.951565742492676 L16.71617889404297 11.951565742492676 L16.71617889404297 11.791695594787598 L16.55095672607422 11.791695594787598 L16.55095672607422 12.39444637298584 L16.64832305908203 12.39444637298584 L16.64832305908203 12.448234558105469 L16.352237701416016 12.448234558105469 L16.352237701416016 12.39444637298584 L16.352237701416016 12.39444637298584 M16.973791122436523 12.108448028564453 C16.972919464111328 12.19448471069336 16.986740112304688 12.259353637695312 17.015377044677734 12.302931785583496 C17.04388999938965 12.346635818481445 17.07539176940918 12.376020431518555 17.10950469970703 12.391334533691406 C17.1214599609375 12.396438598632812 17.13353729248047 12.400299072265625 17.145488739013672 12.403038024902344 C17.157318115234375 12.405529022216797 17.16864776611328 12.406898498535156 17.178733825683594 12.406898498535156 C17.221439361572266 12.406898498535156 17.25991439819336 12.397311210632324 17.294153213500977 12.378385543823242 C17.32839584350586 12.35945987701416 17.36163902282715 12.330324172973633 17.394136428833008 12.291478157043457 L17.42750358581543 12.333064079284668 A0.31625473499298096 0.31625473499298096 0.0 0 1 17.319927215576172 12.425325393676758 A0.30753907561302185 0.30753907561302185 0.0 0 1 17.17885971069336 12.463798522949219 L17.171262741088867 12.463798522949219 C17.162796020507812 12.463798522949219 17.154205322265625 12.463425636291504 17.14573860168457 12.463051795959473 A0.16360580921173096 0.16360580921173096 0.0 0 1 17.12009048461914 12.459192276000977 C17.055095672607422 12.448858261108398 16.995580673217773 12.414617538452148 16.941293716430664 12.356222152709961 C16.886882781982422 12.29770278930664 16.859989166259766 12.209052085876465 16.859989166259766 12.090145111083984 C16.859989166259766 11.969120979309082 16.889373779296875 11.877482414245605 16.94839096069336 11.81485366821289 C17.007282257080078 11.752349853515625 17.073150634765625 11.721098899841309 17.14573860168457 11.721098899841309 L17.155948638916016 11.721098899841309 C17.22430419921875 11.724211692810059 17.286808013916016 11.754093170166016 17.34370994567871 11.810994148254395 C17.40048599243164 11.867895126342773 17.428375244140625 11.958414077758789 17.427629470825195 12.082426071166992 L17.427629470825195 12.108572959899902 L16.973791122436523 12.108572959899902 L16.973791122436523 12.108448028564453 L16.973791122436523 12.108448028564453 M17.314573287963867 12.059266090393066 C17.314573287963867 11.969993591308594 17.30038070678711 11.90288257598877 17.271617889404297 11.857686042785645 C17.243106842041016 11.812613487243652 17.211727142333984 11.784972190856934 17.177488327026367 11.774637222290039 A0.11044014990329742 0.11044014990329742 0.0 0 0 17.14150619506836 11.768536567687988 C17.092823028564453 11.768536567687988 17.05260467529297 11.794683456420898 17.020978927612305 11.846978187561035 C16.98935317993164 11.899147033691406 16.97366714477539 11.964763641357422 16.97366714477539 12.043703079223633 L16.97366714477539 12.059142112731934 L17.314573287963867 12.059142112731934 L17.314573287963867 12.059266090393066 L17.314573287963867 12.059266090393066 M17.719356536865234 12.717300415039062 L17.82693099975586 12.717300415039062 L17.82693099975586 12.77121353149414 L17.520885467529297 12.77121353149414 L17.520885467529297 12.717300415039062 L17.61812973022461 12.717300415039062 L17.61812973022461 11.791695594787598 L17.520885467529297 11.791695594787598 L17.520885467529297 11.737783432006836 L17.719356536865234 11.737783432006836 L17.719356536865234 11.790077209472656 L17.714374542236328 11.845358848571777 L17.720726013183594 11.848472595214844 C17.73516845703125 11.803400039672852 17.758575439453125 11.771275520324707 17.790573120117188 11.752349853515625 C17.822574615478516 11.73342514038086 17.856563568115234 11.723090171813965 17.892423629760742 11.720849990844727 L17.90898323059082 11.720849990844727 C17.997882843017578 11.720849990844727 18.066116333007812 11.756957054138184 18.113304138183594 11.82929801940918 C18.160865783691406 11.90151309967041 18.18452262878418 11.988919258117676 18.18452262878418 12.091265678405762 C18.18452262878418 12.201083183288574 18.15949821472168 12.290605545043945 18.109569549560547 12.359583854675293 C18.05951499938965 12.428936004638672 17.99302864074707 12.463425636291504 17.910104751586914 12.463425636291504 C17.89989471435547 12.463425636291504 17.889434814453125 12.46292781829834 17.878726959228516 12.461806297302246 A0.1870136260986328 0.1870136260986328 0.0 0 1 17.846105575561523 12.455705642700195 C17.820457458496094 12.449480056762695 17.796302795410156 12.437278747558594 17.773019790649414 12.418850898742676 C17.749984741210938 12.400299072265625 17.73242950439453 12.372657775878906 17.720476150512695 12.335803031921387 L17.714126586914062 12.338666915893555 L17.719106674194336 12.377264022827148 L17.719106674194336 12.717300415039062 L17.719356536865234 12.717300415039062 L17.719356536865234 12.717300415039062 M17.719356536865234 12.163606643676758 C17.719356536865234 12.234452247619629 17.734920501708984 12.291229248046875 17.76604652404785 12.334309577941895 C17.79742431640625 12.377513885498047 17.836395263671875 12.399053573608398 17.88333511352539 12.399053573608398 C17.93214225769043 12.399053573608398 17.975597381591797 12.375895500183105 18.014068603515625 12.329702377319336 C18.05254364013672 12.283757209777832 18.071718215942383 12.204694747924805 18.071718215942383 12.093132972717285 C18.071718215942383 11.986553192138672 18.054410934448242 11.910602569580078 18.019922256469727 11.86552906036377 C17.985309600830078 11.820456504821777 17.947458267211914 11.794808387756348 17.906618118286133 11.78870677947998 A0.09736662358045578 0.09736662358045578 0.0 0 1 17.894290924072266 11.787836074829102 A0.08379505574703217 0.08379505574703217 0.0 0 0 17.88333511352539 11.787088394165039 C17.833904266357422 11.787088394165039 17.79405975341797 11.809375762939453 17.764179229736328 11.853950500488281 C17.734420776367188 11.898649215698242 17.719356536865234 11.954678535461426 17.719356536865234 12.022411346435547 L17.719356536865234 12.163606643676758 L17.719356536865234 12.163606643676758 M18.808691024780273 11.942352294921875 L18.75104331970215 11.942352294921875 C18.750171661376953 11.890058517456055 18.73448371887207 11.85170841217041 18.7043514251709 11.827055931091309 A0.18215776979923248 0.18215776979923248 0.0 0 0 18.603622436523438 11.78559398651123 A0.03934508189558983 0.03934508189558983 0.0 0 0 18.592792510986328 11.783975601196289 L18.58183479309082 11.783975601196289 A0.11803524196147919 0.11803524196147919 0.0 0 0 18.549213409423828 11.789453506469727 A0.12264209985733032 0.12264209985733032 0.0 0 0 18.51123809814453 11.808629035949707 C18.48658561706543 11.82606029510498 18.46380043029785 11.856813430786133 18.44338035583496 11.900890350341797 C18.422834396362305 11.944966316223145 18.41250228881836 12.008964538574219 18.41250228881836 12.093132972717285 C18.41250228881836 12.18639087677002 18.430679321289062 12.260101318359375 18.4670352935791 12.314387321472168 C18.503267288208008 12.368797302246094 18.54871368408203 12.395816802978516 18.603500366210938 12.395816802978516 C18.6419734954834 12.395816802978516 18.677581787109375 12.389217376708984 18.710453033447266 12.375895500183105 A0.2975783050060272 0.2975783050060272 0.0 0 0 18.805950164794922 12.311274528503418 L18.840564727783203 12.365062713623047 A0.28848907351493835 0.28848907351493835 0.0 0 1 18.808441162109375 12.391084671020508 A0.4137458801269531 0.4137458801269531 0.0 0 1 18.720787048339844 12.44113826751709 C18.686174392700195 12.455954551696777 18.647327423095703 12.463425636291504 18.6046199798584 12.463425636291504 C18.519207000732422 12.463425636291504 18.447114944458008 12.429683685302734 18.388221740722656 12.362074851989746 C18.32908058166504 12.294341087341309 18.299694061279297 12.205192565917969 18.299694061279297 12.094503402709961 C18.299694061279297 11.979704856872559 18.32845687866211 11.888689041137695 18.386104583740234 11.821702003479004 C18.443878173828125 11.754467010498047 18.51024055480957 11.720849990844727 18.585445404052734 11.720849990844727 C18.620433807373047 11.720849990844727 18.650314331054688 11.726700782775879 18.675216674804688 11.738530158996582 A0.2704351544380188 0.2704351544380188 0.0 0 1 18.740585327148438 11.780987739562988 L18.749549865722656 11.805516242980957 L18.756023406982422 11.80252742767334 L18.750919342041016 11.777874946594238 L18.750919342041016 11.737907409667969 L18.80856704711914 11.737907409667969 L18.80856704711914 11.942352294921875 L18.808691024780273 11.942352294921875 L18.808691024780273 11.942352294921875 M19.03554916381836 11.791695594787598 L18.93805694580078 11.791695594787598 L18.93805694580078 11.737783432006836 L19.22393035888672 11.737783432006836 L19.22393035888672 11.791695594787598 L19.136775970458984 11.791695594787598 L19.136775970458984 12.108448028564453 L19.38666534423828 11.791695594787598 L19.29950714111328 11.791695594787598 L19.29950714111328 11.737783432006836 L19.559608459472656 11.737783432006836 L19.559608459472656 11.791695594787598 L19.462242126464844 11.791695594787598 L19.288053512573242 12.008466720581055 L19.458507537841797 12.28213882446289 C19.478055953979492 12.312768936157227 19.497478485107422 12.339164733886719 19.51677703857422 12.361327171325684 C19.53607749938965 12.383365631103516 19.55587387084961 12.39444637298584 19.576417922973633 12.39444637298584 L19.609661102294922 12.39444637298584 L19.609661102294922 12.448234558105469 A0.013073522597551346 0.013073522597551346 0.0 0 0 19.605178833007812 12.448982238769531 A0.0099607789888978 0.0099607789888978 0.0 0 1 19.600698471069336 12.449853897094727 A0.21714499592781067 0.21714499592781067 0.0 0 1 19.54180335998535 12.463674545288086 L19.532840728759766 12.463674545288086 C19.52263069152832 12.463674545288086 19.512792587280273 12.462553977966309 19.503456115722656 12.460686683654785 A0.07370977103710175 0.07370977103710175 0.0 0 1 19.476436614990234 12.448234558105469 A0.1230156272649765 0.1230156272649765 0.0 0 1 19.434850692749023 12.413745880126953 A0.696382999420166 0.696382999420166 0.0 0 1 19.386789321899414 12.346884727478027 L19.22530174255371 12.088650703430176 L19.136898040771484 12.197722434997559 L19.136898040771484 12.394571304321289 L19.234142303466797 12.394571304321289 L19.234142303466797 12.448359489440918 L18.938182830810547 12.448359489440918 L18.938182830810547 12.394571304321289 L19.03567123413086 12.394571304321289 L19.03567123413086 11.791695594787598 L19.03554916381836 11.791695594787598 L19.03554916381836 11.791695594787598 M20.266822814941406 12.39444637298584 L20.266822814941406 12.448234558105469 L20.07209014892578 12.448234558105469 L20.07209014892578 12.383614540100098 C20.058395385742188 12.401045799255371 20.041959762573242 12.415489196777344 20.022659301757812 12.426694869995117 C20.003610610961914 12.438026428222656 19.98406219482422 12.446118354797363 19.96438980102539 12.451347351074219 A0.31127434968948364 0.31127434968948364 0.0 0 1 19.92479705810547 12.460561752319336 A0.235696941614151 0.235696941614151 0.0 0 1 19.888938903808594 12.463549613952637 C19.821453094482422 12.463549613952637 19.768163681030273 12.43976879119873 19.729440689086914 12.39195728302002 A0.2492685168981552 0.2492685168981552 0.0 0 1 19.67116928100586 12.22984504699707 C19.67116928100586 12.220507621765137 19.67154312133789 12.211044311523438 19.672414779663086 12.201333045959473 C19.67328643798828 12.191620826721191 19.675029754638672 12.182158470153809 19.677518844604492 12.172819137573242 C19.686859130859375 12.122642517089844 19.71001625061035 12.076448440551758 19.746746063232422 12.034489631652832 C19.783477783203125 11.99240493774414 19.833904266357422 11.971487998962402 19.898027420043945 11.971487998962402 L19.910850524902344 11.971487998962402 A0.057274483144283295 0.057274483144283295 0.0 0 1 19.923675537109375 11.972982406616211 C19.951940536499023 11.975969314575195 19.978958129882812 11.984312057495117 20.00510597229004 11.997634887695312 C20.0311279296875 12.010831832885742 20.053539276123047 12.031375885009766 20.07234001159668 12.059142112731934 L20.07234001159668 11.948328018188477 C20.07234001159668 11.883708000183105 20.05889320373535 11.838386535644531 20.031875610351562 11.812239646911621 A0.13110876083374023 0.13110876083374023 0.0 0 0 19.937746047973633 11.773018836975098 C19.930896759033203 11.773018836975098 19.91234588623047 11.775882720947266 19.882089614868164 11.781485557556152 C19.85183334350586 11.787088394165039 19.819087982177734 11.806386947631836 19.783977508544922 11.839133262634277 L19.776878356933594 11.845234870910645 A0.08678329735994339 0.08678329735994339 0.0 0 0 19.77115249633789 11.851459503173828 L19.735292434692383 11.791446685791016 L19.743635177612305 11.784598350524902 C19.746498107910156 11.781983375549316 19.74936294555664 11.779742240905762 19.75185203552246 11.777626037597656 C19.77912139892578 11.757081985473633 19.807382583618164 11.742513656616211 19.836519241333008 11.733798027038574 C19.86540412902832 11.725082397460938 19.898277282714844 11.720725059509277 19.93525505065918 11.720725059509277 C20.030006408691406 11.720725059509277 20.091266632080078 11.745377540588379 20.11903190612793 11.79455852508545 C20.14679718017578 11.843740463256836 20.16236114501953 11.898151397705078 20.165847778320312 11.957542419433594 C20.166717529296875 11.970864295959473 20.167091369628906 11.98443603515625 20.167091369628906 11.99825668334961 L20.167091369628906 12.394073486328125 L20.266822814941406 12.394073486328125 L20.266822814941406 12.39444637298584 L20.266822814941406 12.39444637298584 M20.07209014892578 12.159248352050781 C20.0626277923584 12.127373695373535 20.04706573486328 12.098984718322754 20.02527618408203 12.073710441589355 C20.00348663330078 12.048434257507324 19.975969314575195 12.036108016967773 19.942602157592773 12.036108016967773 C19.893171310424805 12.036108016967773 19.852706909179688 12.05428695678711 19.821578979492188 12.090643882751465 C19.790325164794922 12.12700080871582 19.774761199951172 12.174064636230469 19.774761199951172 12.231339454650879 C19.774761199951172 12.279648780822754 19.789703369140625 12.319741249084473 19.819459915161133 12.352113723754883 C19.849342346191406 12.38448715209961 19.884828567504883 12.400547981262207 19.925792694091797 12.400547981262207 L19.93413543701172 12.400547981262207 A0.15650874376296997 0.15650874376296997 0.0 0 0 20.018178939819336 12.362945556640625 C20.04183578491211 12.342900276184082 20.05988883972168 12.316503524780273 20.07196617126465 12.283757209777832 L20.07196617126465 12.159248352050781 L20.07209014892578 12.159248352050781 L20.07209014892578 12.159248352050781 M20.833221435546875 12.39444637298584 L20.930587768554688 12.39444637298584 L20.930587768554688 12.448234558105469 L20.634628295898438 12.448234558105469 L20.634628295898438 12.39444637298584 L20.731868743896484 12.39444637298584 L20.731868743896484 12.113055229187012 L20.6292724609375 12.113055229187012 L20.51671600341797 12.354354858398438 C20.501277923583984 12.387225151062012 20.483844757080078 12.41175365447998 20.46479606628418 12.428189277648926 A0.13023719191551208 0.13023719191551208 0.0 0 1 20.405155181884766 12.458943367004395 A0.05851957947015762 0.05851957947015762 0.0 0 1 20.389217376708984 12.46280288696289 C20.38361358642578 12.463176727294922 20.37826156616211 12.463549613952637 20.37315559387207 12.463549613952637 C20.359458923339844 12.463549613952637 20.346885681152344 12.461931228637695 20.335304260253906 12.458943367004395 A0.2635871469974518 0.2635871469974518 0.0 0 1 20.302684783935547 12.448110580444336 L20.302684783935547 12.394322395324707 L20.330821990966797 12.394322395324707 A0.06486958265304565 0.06486958265304565 0.0 0 0 20.364315032958984 12.385108947753906 A0.12239307910203934 0.12239307910203934 0.0 0 0 20.393699645996094 12.358962059020996 C20.404781341552734 12.345763206481934 20.41611099243164 12.329453468322754 20.427566528320312 12.310527801513672 C20.439146041870117 12.291478157043457 20.451223373413086 12.269314765930176 20.46417236328125 12.24366569519043 L20.466663360595703 12.238187789916992 A0.04320488125085831 0.04320488125085831 0.0 0 0 20.469276428222656 12.232833862304688 C20.470897674560547 12.228724479675293 20.472639083862305 12.225113868713379 20.474382400512695 12.221378326416016 C20.476123809814453 12.217642784118652 20.477619171142578 12.21428108215332 20.479488372802734 12.21116828918457 A0.585195779800415 0.585195779800415 0.0 0 1 20.513355255126953 12.1527738571167 A0.11542052775621414 0.11542052775621414 0.0 0 1 20.564029693603516 12.111311912536621 L20.562660217285156 12.103591918945312 A0.05055095627903938 0.05055095627903938 0.0 0 0 20.554317474365234 12.104339599609375 A0.04893232882022858 0.04893232882022858 0.0 0 1 20.54622459411621 12.105086326599121 A0.019672540947794914 0.019672540947794914 0.0 0 1 20.53788185119629 12.106829643249512 L20.529415130615234 12.106829643249512 C20.48770523071289 12.106829643249512 20.450227737426758 12.091265678405762 20.417356491088867 12.060636520385742 A0.15177737176418304 0.15177737176418304 0.0 0 1 20.36804962158203 11.945341110229492 C20.36804962158203 11.934134483337402 20.368675231933594 11.92018985748291 20.369918823242188 11.903879165649414 A0.19797049462795258 0.19797049462795258 0.0 0 1 20.382244110107422 11.851584434509277 C20.393325805664062 11.822823524475098 20.414493560791016 11.796675682067871 20.44574737548828 11.773143768310547 C20.47687339782715 11.749610900878906 20.527050018310547 11.737783432006836 20.59627914428711 11.737783432006836 L20.930835723876953 11.737783432006836 L20.930835723876953 11.791695594787598 L20.83346939086914 11.791695594787598 L20.83346939086914 12.39444637298584 L20.833221435546875 12.39444637298584 L20.833221435546875 12.39444637298584 M20.608978271484375 11.791695594787598 C20.56963348388672 11.791695594787598 20.54062271118164 11.799788475036621 20.522443771362305 11.8163480758667 A0.1318558156490326 0.1318558156490326 0.0 0 0 20.48459243774414 11.870136260986328 A0.13808129727840424 0.13808129727840424 0.0 0 0 20.47687339782715 11.906244277954102 A0.4121272563934326 0.4121272563934326 0.0 0 0 20.47550392150879 11.9347562789917 C20.47550392150879 11.982817649841309 20.490942001342773 12.015687942504883 20.521697998046875 12.033119201660156 C20.552326202392578 12.050676345825195 20.59005355834961 12.059391975402832 20.634502410888672 12.059391975402832 L20.73174476623535 12.059391975402832 L20.73174476623535 11.791820526123047 L20.608978271484375 11.791820526123047 L20.608978271484375 11.791695594787598 L20.608978271484375 11.791695594787598 M3.63742733001709 11.894042015075684 L4.040341377258301 11.894042015075684 L3.8454837799072266 11.332254409790039 L3.63742733001709 11.894042015075684 L3.63742733001709 11.894042015075684 M3.5876245498657227 12.042831420898438 L3.4963579177856445 12.2803955078125 C3.6268444061279297 12.2803955078125 3.719853401184082 12.30716609954834 3.774886131286621 12.360705375671387 L3.873249053955078 12.288738250732422 L3.89404296875 12.313017845153809 L3.661707878112793 12.501524925231934 L3.6203699111938477 12.501524925231934 A0.24877047538757324 0.24877047538757324 0.0 0 0 3.5704421997070312 12.4642972946167 A0.5067546963691711 0.5067546963691711 0.0 0 0 3.5081872940063477 12.437278747558594 A0.40652433037757874 0.40652433037757874 0.0 0 0 3.3794431686401367 12.414617538452148 C3.3176870346069336 12.414617538452148 3.262653350830078 12.434538841247559 3.214095115661621 12.474382400512695 C3.166531562805176 12.513229370117188 3.141879081726074 12.569881439208984 3.140011787414551 12.644089698791504 C3.140011787414551 12.717798233032227 3.1686477661132812 12.773579597473145 3.2260475158691406 12.811056137084961 C3.284940719604492 12.84977912902832 3.354914665222168 12.868953704833984 3.4358463287353516 12.868953704833984 A0.7445682883262634 0.7445682883262634 0.0 0 0 3.5877485275268555 12.852394104003906 L3.5977087020874023 12.893731117248535 C3.532341957092285 12.901948928833008 3.4829111099243164 12.906057357788086 3.449666976928711 12.906057357788086 C3.359895706176758 12.906057357788086 3.280707359313965 12.886260986328125 3.212101936340332 12.846293449401855 C3.1432485580444336 12.8066987991333 3.108883857727051 12.739587783813477 3.108883857727051 12.643840789794922 C3.108883857727051 12.545477867126465 3.1454896926879883 12.461433410644531 3.2189512252807617 12.392081260681152 C3.261159896850586 12.352362632751465 3.300504684448242 12.32409954071045 3.336362838745117 12.30716609954834 C3.3724708557128906 12.289236068725586 3.4126882553100586 12.2803955078125 3.456888198852539 12.2803955078125 L3.6944541931152344 11.65037727355957 C3.668306350708008 11.605304718017578 3.633816719055176 11.58251953125 3.5911102294921875 11.58251953125 C3.5406837463378906 11.58251953125 3.501089096069336 11.610782623291016 3.472079277038574 11.66718578338623 L3.449915885925293 11.655108451843262 C3.465479850769043 11.575298309326172 3.4932451248168945 11.519890785217285 3.532590866088867 11.489261627197266 C3.571561813354492 11.457635879516602 3.610034942626953 11.44169807434082 3.647886276245117 11.44169807434082 C3.688103675842285 11.44169807434082 3.723712921142578 11.452032089233398 3.754715919494629 11.472701072692871 L3.825188636779785 11.302994728088379 C3.7879600524902344 11.268878936767578 3.739151954650879 11.251696586608887 3.6788902282714844 11.251696586608887 L3.668306350708008 11.251696586608887 C3.616635322570801 11.251696586608887 3.5616016387939453 11.28282356262207 3.503331184387207 11.344331741333008 L3.479175567626953 11.332254409790039 C3.507314682006836 11.255805969238281 3.5464115142822266 11.195293426513672 3.595966339111328 11.150096893310547 C3.647014617919922 11.110254287719727 3.697068214416504 11.09020709991455 3.746000289916992 11.09020709991455 C3.798792839050293 11.09020709991455 3.8482227325439453 11.11162281036377 3.89404296875 11.154330253601074 L3.923426628112793 11.09020709991455 L3.9439706802368164 11.09020709991455 C3.958040237426758 11.173877716064453 3.983814239501953 11.27099609375 4.0214152336120605 11.38180923461914 L4.314013481140137 12.228350639343262 C4.335055828094482 12.299944877624512 4.3640666007995605 12.34526538848877 4.400174617767334 12.365062713623047 L4.448359966278076 12.33194351196289 L4.465542316436768 12.356471061706543 L4.377762794494629 12.435286521911621 L4.30380392074585 12.5014009475708 L4.269314765930176 12.5014009475708 C4.251260757446289 12.479486465454102 4.23146390914917 12.444499969482422 4.209425449371338 12.395940780639648 A0.8466662764549255 0.8466662764549255 0.0 0 1 4.174687385559082 12.300939559936523 A1.1437464952468872 1.1437464952468872 0.0 0 0 4.160617828369141 12.256490707397461 C4.15426778793335 12.237689971923828 4.149411678314209 12.221129417419434 4.145427227020264 12.207557678222656 L4.117537498474121 12.116665840148926 L4.095499515533447 12.042707443237305 L3.5876245498657227 12.042707443237305 L3.5876245498657227 12.042831420898438 L3.5876245498657227 12.042831420898438 M13.567578315734863 11.836145401000977 L13.50706672668457 11.836145401000977 A0.0761999636888504 0.0761999636888504 0.0 0 0 13.439955711364746 11.871630668640137 A0.17555873095989227 0.17555873095989227 0.0 0 0 13.415800094604492 11.96625804901123 L13.373093605041504 11.96625804901123 A0.36082923412323 0.36082923412323 0.0 0 1 13.359024047851562 11.860922813415527 C13.359024047851562 11.810994148254395 13.370479583740234 11.769035339355469 13.393637657165527 11.734918594360352 C13.416671752929688 11.703293800354004 13.446430206298828 11.687355995178223 13.483160018920898 11.687355995178223 L13.567702293395996 11.687355995178223 L13.567702293395996 11.53445816040039 C13.567702293395996 11.475564956665039 13.581274032592773 11.424640655517578 13.60879135131836 11.381560325622559 C13.63493824005127 11.337234497070312 13.669675827026367 11.304862022399902 13.712133407592773 11.28419303894043 L14.040714263916016 11.089958190917969 L14.064372062683105 11.089958190917969 C14.105460166931152 11.115856170654297 14.13584041595459 11.142749786376953 14.155637741088867 11.170516967773438 C14.173192977905273 11.197783470153809 14.181784629821777 11.231526374816895 14.181784629821777 11.272115707397461 L14.181784629821777 11.365124702453613 L14.286746978759766 11.288800239562988 L14.286746978759766 11.14623737335205 L14.281267166137695 11.127436637878418 L14.27603816986084 11.115234375 C14.27603816986084 11.098424911499023 14.285501480102539 11.090083122253418 14.303929328918457 11.090083122253418 C14.321235656738281 11.090083122253418 14.32970142364502 11.098424911499023 14.32970142364502 11.115234375 L14.323102951049805 11.136027336120605 L14.31961727142334 11.146361351013184 L14.31961727142334 11.25991439819336 L14.565399169921875 11.09020709991455 L14.582830429077148 11.09020709991455 L14.724023818969727 11.214468002319336 L14.794621467590332 11.159061431884766 L14.816659927368164 11.187698364257812 L14.667247772216797 11.30785083770752 L14.667247772216797 12.24105167388916 C14.667247772216797 12.276535987854004 14.695884704589844 12.319243431091309 14.753283500671387 12.369172096252441 L14.808317184448242 12.32584285736084 L14.820145606994629 12.352611541748047 L14.71717643737793 12.445247650146484 C14.672353744506836 12.4827241897583 14.645458221435547 12.5014009475708 14.636245727539062 12.5014009475708 C14.622549057006836 12.5014009475708 14.59677505493164 12.474382400512695 14.558799743652344 12.420843124389648 C14.536388397216797 12.392330169677734 14.524435043334961 12.35373306274414 14.52269172668457 12.305173873901367 L14.52269172668457 11.836145401000977 L14.319741249084473 11.836145401000977 L14.319741249084473 12.344269752502441 L14.386602401733398 12.288613319396973 L14.407022476196289 12.317127227783203 L14.181784629821777 12.5014009475708 L14.155637741088867 12.5014009475708 L14.109443664550781 12.46778392791748 A0.4763742685317993 0.4763742685317993 0.0 0 0 14.040590286254883 12.424454689025879 A0.14580091834068298 0.14580091834068298 0.0 0 0 13.976468086242676 12.410385131835938 L13.969992637634277 12.410385131835938 C13.944344520568848 12.410385131835938 13.914586067199707 12.426197052001953 13.880471229553223 12.457822799682617 L13.856316566467285 12.429059982299805 L14.037103652954102 12.2803955078125 L14.037103652954102 11.836270332336426 L13.842495918273926 11.836270332336426 L13.842495918273926 12.247401237487793 C13.842495918273926 12.297952651977539 13.825935363769531 12.352362632751465 13.792816162109375 12.41063404083252 C13.758077621459961 12.471145629882812 13.6914644241333 12.501524925231934 13.593101501464844 12.501524925231934 C13.554628372192383 12.501524925231934 13.499845504760742 12.491190910339355 13.42812728881836 12.47089672088623 C13.35254955291748 12.451223373413086 13.307103157043457 12.44163703918457 13.291788101196289 12.44163703918457 C13.249082565307617 12.44163703918457 13.217580795288086 12.454585075378418 13.197160720825195 12.480856895446777 C13.176492691040039 12.5076265335083 13.166158676147461 12.546846389770508 13.166158676147461 12.598767280578613 C13.166158676147461 12.679698944091797 13.194671630859375 12.744443893432617 13.25219440460205 12.793127059936523 C13.281330108642578 12.81740665435791 13.314698219299316 12.836830139160156 13.352424621582031 12.850525856018066 C13.389654159545898 12.865716934204102 13.429869651794434 12.873311042785645 13.472577095031738 12.873311042785645 C13.555500984191895 12.873311042785645 13.621490478515625 12.861607551574707 13.670547485351562 12.83869743347168 L13.694951057434082 12.869202613830566 C13.64502239227295 12.896843910217285 13.570940017700195 12.910415649414062 13.472577095031738 12.910415649414062 C13.426135063171387 12.910415649414062 13.384175300598145 12.90356731414795 13.346946716308594 12.889995574951172 A0.3309468924999237 0.3309468924999237 0.0 0 1 13.2366304397583 12.829981803894043 C13.169894218444824 12.781174659729004 13.13652515411377 12.704352378845215 13.13652515411377 12.599017143249512 L13.13652515411377 12.590550422668457 C13.13652515411377 12.492436408996582 13.161800384521484 12.417231559753418 13.212226867675781 12.365311622619629 C13.261533737182617 12.314262390136719 13.320425987243652 12.288987159729004 13.38815975189209 12.288987159729004 C13.425138473510742 12.288987159729004 13.475564956665039 12.298450469970703 13.539562225341797 12.317500114440918 C13.600074768066406 12.338541984558105 13.643777847290039 12.348876953125 13.670173645019531 12.348876953125 C13.764178276062012 12.348876953125 13.811244010925293 12.296582221984863 13.811244010925293 12.191869735717773 L13.811244010925293 11.27273941040039 A0.18514598906040192 0.18514598906040192 0.0 0 0 13.737533569335938 11.328145980834961 C13.720600128173828 11.348814964294434 13.71200942993164 11.37707805633545 13.71200942993164 11.412812232971191 L13.71200942993164 12.02664566040039 C13.71200942993164 12.144058227539062 13.657099723815918 12.219137191772461 13.54641056060791 12.251385688781738 L13.529229164123535 12.220756530761719 C13.554753303527832 12.210546493530273 13.567578315734863 12.193985939025879 13.567578315734863 12.17132568359375 L13.567578315734863 11.836145401000977 L13.567578315734863 11.836145401000977 M14.037103652954102 11.687479972839355 L14.037103652954102 11.35703182220459 A0.10209798812866211 0.10209798812866211 0.0 0 0 14.012700080871582 11.287181854248047 A0.7642408013343811 0.7642408013343811 0.0 0 0 13.978584289550781 11.255805969238281 C13.977837562561035 11.254809379577637 13.969743728637695 11.249579429626465 13.955177307128906 11.23999309539795 L13.916703224182129 11.214468002319336 L13.842495918273926 11.255805969238281 L13.842495918273926 11.687479972839355 L14.037103652954102 11.687479972839355 M14.522567749023438 11.687479972839355 L14.522567749023438 11.311461448669434 L14.428064346313477 11.23501205444336 L14.31961727142334 11.30772590637207 L14.31961727142334 11.687355995178223 L14.522567749023438 11.687355995178223 L14.522567749023438 11.687479972839355 L14.522567749023438 11.687479972839355 M14.181659698486328 12.292348861694336 L14.28662109375 12.356595993041992 L14.28662109375 11.336488723754883 L14.181659698486328 11.41256332397461 L14.181659698486328 12.292348861694336 L14.181659698486328 12.292348861694336" fill="black" fill-opacity="1.0" filling="0"/>
<path animation_id="3" d="M3.424266815185547 12.623047828674316 L20.795867919921875 12.623047828674316" fill="none" filling="0" stroke="black" stroke-opacity="1.0" stroke-width=".3"/></svg>