<?xml version="1.0" encoding="iso-8859-1"?><svg height="200px" viewBox="0.0 0.0 24.0 24.0" width="200px" xmlns="http://www.w3.org/2000/svg"><path animation_id="0" d="M11.7022123336792 0.03020954132080078 C10.807768821716309 0.051788330078125 9.938140869140625 0.1704721450805664 9.103039741516113 0.3776283264160156 L10.644847869873047 5.225318431854248 L8.483726501464844 0.5491809844970703 C7.515914440155029 0.8448114395141602 6.600971221923828 1.2602043151855469 5.754001140594482 1.7759389877319336 L8.762093544006348 5.023556232452393 L5.352634429931641 2.0327272415161133 C4.392375469207764 2.6714611053466797 3.529221534729004 3.4450626373291016 2.78798770904541 4.329796314239502 L6.677576541900635 6.121919631958008 L2.4923572540283203 4.6977152824401855 C1.7327814102172852 5.680632591247559 1.1220998764038086 6.784390926361084 0.695918083190918 7.974464416503906 L3.136486053466797 8.362883567810059 L0.5308389663696289 8.474014282226562 C0.185577392578125 9.589641571044922 0.0 10.775400161743164 0.0 12.004316329956055 C0.0 12.2977876663208 0.010788917541503906 12.590181350708008 0.031289100646972656 12.878259658813477 L4.436612129211426 11.388238906860352 L0.10897254943847656 13.618413925170898 C0.3236827850341797 15.205538749694824 0.8502073287963867 16.69447898864746 1.624887466430664 18.02157974243164 L8.739435195922852 11.455133438110352 L2.073727607727051 18.734760284423828 C3.009171485900879 20.106094360351562 4.222981929779053 21.27459144592285 5.633159637451172 22.158245086669922 C5.928790092468262 21.52706527709961 10.634058952331543 11.48642349243164 10.621111869812012 11.477791786193848 L6.512497901916504 22.657794952392578 C8.005754470825195 23.426002502441406 9.681352615356445 23.891027450561523 11.45621395111084 23.969791412353516 L12.01078987121582 11.455133438110352 L12.566445350646973 23.968711853027344 C14.348858833312988 23.885631561279297 16.03093147277832 23.414134979248047 17.527423858642578 22.637296676635742 L13.400467872619629 11.432476043701172 L18.35820960998535 22.162561416625977 C19.78457260131836 21.27135467529297 21.010250091552734 20.087753295898438 21.951087951660156 18.698074340820312 L15.305880546569824 11.432476043701172 L22.392375946044922 17.992446899414062 C23.164899826049805 16.661033630371094 23.688186645507812 15.166696548461914 23.89750099182129 13.57525634765625 L19.586048126220703 11.342924118041992 L23.969791412353516 12.862075805664062 C23.990291595458984 12.576155662536621 24.0 12.29023551940918 24.001079559326172 12.004316329956055 C24.001079559326172 10.82287311553955 23.82952880859375 9.680273056030273 23.50908088684082 8.602409362792969 L18.152132034301758 8.317567825317383 L23.256610870361328 7.843912601470947 C22.833663940429688 6.705627918243408 22.241323471069336 5.648264408111572 21.511959075927734 4.703110218048096 L19.54180908203125 5.135766506195068 L21.20122528076172 4.3168487548828125 C20.463226318359375 3.4385900497436523 19.604389190673828 2.670382499694824 18.650602340698242 2.034884452819824 L15.262722969055176 5.001977443695068 L18.24492073059082 1.7759389877319336 C17.4044246673584 1.2634410858154297 16.495954513549805 0.8502063751220703 15.535696029663086 0.5556535720825195 L13.378889083862305 5.225318431854248 L14.926093101501465 0.3851814270019531 C14.088833808898926 0.17586708068847656 13.217047691345215 0.05394554138183594 12.320446968078613 0.03128814697265625 L12.033448219299316 5.247976303100586 L11.7022123336792 0.03020954132080078" fill="black" fill-opacity="1.0" filling="0"/>
<path animation_id="1" d="M15.193670272827148 11.006293296813965 L16.583349227905273 11.006293296813965 L16.560691833496094 9.437511444091797 L19.11562728881836 11.27495002746582 L19.92267608642578 10.199244499206543 L17.411977767944336 8.294910430908203 L19.944255828857422 6.412155628204346 L19.18252182006836 5.381765365600586 L16.583349227905273 7.196547031402588 L16.583349227905273 5.583527565002441 L15.193670272827148 5.583527565002441 L15.193670272827148 11.006293296813965 M8.874303817749023 11.006293296813965 L8.874303817749023 5.583527565002441 L7.395073413848877 5.583527565002441 L7.395073413848877 8.070490837097168 L3.943535804748535 5.583527565002441 L3.943535804748535 11.006293296813965 L5.512318134307861 11.006293296813965 L5.512318134307861 8.586225509643555 L8.874303817749023 11.006293296813965" fill="black" fill-opacity="1.0" filling="0"/>
<path animation_id="2" d="M12.067974090576172 5.560869216918945 C10.576874732971191 5.560869216918945 9.367380142211914 6.781154155731201 9.367380142211914 8.284120559692383 C9.367380142211914 9.787088394165039 10.576874732971191 11.007372856140137 12.067974090576172 11.007372856140137 C13.559072494506836 11.007372856140137 14.76856803894043 9.787088394165039 14.76856803894043 8.284120559692383 C14.76856803894043 8.0802001953125 14.745908737182617 7.881675720214844 14.703831672668457 7.690702438354492 L12.057184219360352 7.690702438354492 L12.057184219360352 8.990828514099121 L13.132889747619629 8.990828514099121 C12.93112850189209 9.37601089477539 12.600972175598145 9.644667625427246 11.967631340026855 9.640352249145508 C11.258767127990723 9.541089057922363 10.780795097351074 9.097643852233887 10.785110473632812 8.204278945922852 C10.877900123596191 6.851285457611084 12.469340324401855 6.732601642608643 13.154468536376953 7.488940238952637 L14.340227127075195 6.814600944519043 C13.859018325805664 6.060420513153076 13.020681381225586 5.560869216918945 12.067974090576172 5.560869216918945 L12.067974090576172 5.560869216918945" fill="black" fill-opacity="1.0" filling="0"/></svg>