<?xml version="1.0" encoding="iso-8859-1"?><svg height="200px" viewBox="0.0 0.0 24.0 24.0" width="200px" xmlns="http://www.w3.org/2000/svg"><path animation_id="0" d="M3.313509941101074 10.620055198669434 L5.791428089141846 8.142157554626465 L8.266348838806152 10.617057800292969 L5.788430690765381 13.094996452331543 L3.313509941101074 10.620055198669434" fill="black" fill-opacity="1.0" filling="0"/>
<path animation_id="1" d="M23.00992202758789 10.552882194519043 C23.03947639465332 10.552882194519043 23.06903076171875 10.565547943115234 23.09014129638672 10.586658477783203 C23.111251831054688 10.607769012451172 23.123918533325195 10.637323379516602 23.123918533325195 10.666877746582031 L23.123918533325195 13.369009971618652 C23.123918533325195 13.398564338684082 23.111251831054688 13.428118705749512 23.09014129638672 13.44922924041748 C23.06903076171875 13.47033977508545 23.03947639465332 13.483006477355957 23.00992202758789 13.483006477355957 L19.526704788208008 13.483006477355957 C19.497150421142578 13.483006477355957 19.46759605407715 13.47033977508545 19.44648551940918 13.44922924041748 C19.42537498474121 13.428118705749512 19.412708282470703 13.398564338684082 19.412708282470703 13.369009971618652 L19.412708282470703 10.666877746582031 C19.412708282470703 10.637323379516602 19.42537498474121 10.607769012451172 19.44648551940918 10.586658477783203 C19.46759605407715 10.565547943115234 19.497150421142578 10.552882194519043 19.526704788208008 10.552882194519043 L23.00992202758789 10.552882194519043 M22.252058029174805 11.165083885192871 L20.282455444335938 11.165083885192871 C20.263458251953125 11.165083885192871 20.242347717285156 11.173527717590332 20.227569580078125 11.188304901123047 C20.212791442871094 11.203082084655762 20.204347610473633 11.222082138061523 20.204347610473633 11.243191719055176 L20.204347610473633 12.799029350280762 C20.204347610473633 12.818028450012207 20.212791442871094 12.839138984680176 20.227569580078125 12.85391616821289 C20.242347717285156 12.868693351745605 20.2613468170166 12.877138137817383 20.282455444335938 12.877138137817383 L22.252058029174805 12.877138137817383 C22.27105712890625 12.877138137817383 22.29216766357422 12.868693351745605 22.306943893432617 12.85391616821289 C22.32172393798828 12.839138984680176 22.330167770385742 12.82013988494873 22.330167770385742 12.799029350280762 L22.330167770385742 11.243191719055176 C22.330167770385742 11.22419261932373 22.32172393798828 11.203082084655762 22.306943893432617 11.188304901123047 C22.29216766357422 11.173527717590332 22.27316665649414 11.165083885192871 22.252058029174805 11.165083885192871 L22.252058029174805 11.165083885192871 M19.015832901000977 10.55077075958252 L15.48617172241211 10.55077075958252 C15.456618309020996 10.55077075958252 15.42706298828125 10.563436508178711 15.403841972351074 10.58454704284668 C15.382731437683105 10.605657577514648 15.370064735412598 10.635211944580078 15.370064735412598 10.664766311645508 L15.370064735412598 11.046865463256836 C15.370064735412598 11.076419830322266 15.382731437683105 11.105974197387695 15.403841972351074 11.127084732055664 C15.424952507019043 11.148195266723633 15.454505920410156 11.160861015319824 15.48617172241211 11.160861015319824 L17.56343650817871 11.160861015319824 L15.391175270080566 13.360566139221191 C15.378509521484375 13.375343322753906 15.370064735412598 13.394342422485352 15.372176170349121 13.41545295715332 C15.372176170349121 13.434452056884766 15.380620002746582 13.453452110290527 15.395397186279297 13.468229293823242 C15.410175323486328 13.480895042419434 15.429174423217773 13.489339828491211 15.448173522949219 13.489339828491211 L18.977832794189453 13.489339828491211 C19.007389068603516 13.489339828491211 19.036941528320312 13.476673126220703 19.05805206298828 13.455562591552734 C19.07916259765625 13.434452056884766 19.09183120727539 13.404897689819336 19.09183120727539 13.375343322753906 L19.09183120727539 12.993245124816895 C19.09183120727539 12.963689804077148 19.07916259765625 12.934135437011719 19.05805206298828 12.91302490234375 C19.036941528320312 12.891914367675781 19.007389068603516 12.87924861907959 18.977832794189453 12.87924861907959 L16.900569915771484 12.87924861907959 L19.072830200195312 10.677433013916016 C19.08549690246582 10.6626558303833 19.09394073486328 10.643655776977539 19.09183120727539 10.622546195983887 C19.09183120727539 10.603546142578125 19.083385467529297 10.58454704284668 19.068607330322266 10.569769859313965 C19.053831100463867 10.557104110717773 19.034832000732422 10.55077075958252 19.015832901000977 10.55077075958252 L19.015832901000977 10.55077075958252 M14.238547325134277 10.671099662780762 C14.238547325134277 10.641545295715332 14.251213073730469 10.611990928649902 14.272323608398438 10.590880393981934 C14.293434143066406 10.569769859313965 14.322988510131836 10.557104110717773 14.352543830871582 10.557104110717773 L14.918302536010742 10.557104110717773 C14.947856903076172 10.557104110717773 14.977411270141602 10.569769859313965 14.99852180480957 10.590880393981934 C15.019632339477539 10.611990928649902 15.03229808807373 10.641545295715332 15.03229808807373 10.671099662780762 L15.03229808807373 13.3732328414917 C15.03229808807373 13.402787208557129 15.019632339477539 13.432341575622559 14.99852180480957 13.453452110290527 C14.977411270141602 13.47456169128418 14.947856903076172 13.487228393554688 14.918302536010742 13.487228393554688 L14.352543830871582 13.487228393554688 C14.322988510131836 13.487228393554688 14.293434143066406 13.47456169128418 14.272323608398438 13.453452110290527 C14.251213073730469 13.432341575622559 14.238547325134277 13.402787208557129 14.238547325134277 13.3732328414917 L14.238547325134277 10.671099662780762 M10.976988792419434 12.752586364746094 L10.976988792419434 12.324045181274414 L13.780450820922852 12.324045181274414 C13.810006141662598 12.324045181274414 13.839559555053711 12.311378479003906 13.86067008972168 12.290267944335938 C13.881780624389648 12.269157409667969 13.894447326660156 12.239603042602539 13.894447326660156 12.21004867553711 L13.894447326660156 11.827950477600098 C13.894447326660156 11.798396110534668 13.881780624389648 11.768840789794922 13.86067008972168 11.747730255126953 C13.839559555053711 11.7266206741333 13.810006141662598 11.713953971862793 13.780450820922852 11.713953971862793 L10.976988792419434 11.713953971862793 L10.976988792419434 11.2453031539917 C10.976988792419434 11.226304054260254 10.985433578491211 11.205193519592285 11.00020980834961 11.19041633605957 C11.01498794555664 11.175639152526855 11.033987045288086 11.167194366455078 11.055097579956055 11.167194366455078 L11.141650199890137 11.165083885192871 L13.782563209533691 11.165083885192871 C13.812116622924805 11.165083885192871 13.84167194366455 11.152417182922363 13.86278247833252 11.131306648254395 C13.883893013000488 11.110196113586426 13.89655876159668 11.080641746520996 13.89655876159668 11.051087379455566 L13.89655876159668 10.668989181518555 C13.89655876159668 10.639433860778809 13.883893013000488 10.609879493713379 13.86278247833252 10.588769912719727 C13.84167194366455 10.567659378051758 13.812116622924805 10.55499267578125 13.782563209533691 10.55499267578125 L10.299345970153809 10.55499267578125 C10.269790649414062 10.55499267578125 10.240236282348633 10.567659378051758 10.219125747680664 10.588769912719727 C10.198015213012695 10.609879493713379 10.185348510742188 10.639433860778809 10.185348510742188 10.668989181518555 L10.185348510742188 13.371121406555176 C10.185348510742188 13.400675773620605 10.198015213012695 13.430230140686035 10.219125747680664 13.451340675354004 C10.240236282348633 13.472451210021973 10.269790649414062 13.485116958618164 10.299345970153809 13.485116958618164 L13.782563209533691 13.485116958618164 C13.812116622924805 13.485116958618164 13.84167194366455 13.472451210021973 13.86278247833252 13.451340675354004 C13.883893013000488 13.430230140686035 13.89655876159668 13.400675773620605 13.89655876159668 13.371121406555176 L13.89655876159668 12.989023208618164 C13.89655876159668 12.959467887878418 13.883893013000488 12.929913520812988 13.86278247833252 12.908803939819336 C13.84167194366455 12.887693405151367 13.812116622924805 12.87502670288086 13.782563209533691 12.87502670288086 L11.133206367492676 12.87502670288086 L11.052986145019531 12.872915267944336 C11.033987045288086 12.872915267944336 11.012877464294434 12.864471435546875 10.998099327087402 12.84969425201416 C10.983322143554688 12.834917068481445 10.974878311157227 12.815917015075684 10.974878311157227 12.794806480407715 L10.976988792419434 12.752586364746094 M23.710784912109375 10.55077075958252 C23.55034637451172 10.55077075958252 23.421573638916016 10.679544448852539 23.421573638916016 10.839982986450195 C23.421573638916016 11.000422477722168 23.55034637451172 11.129196166992188 23.710784912109375 11.129196166992188 C23.871227264404297 11.129196166992188 24.0 11.000422477722168 24.0 10.839982986450195 C24.0 10.679544448852539 23.871227264404297 10.55077075958252 23.710784912109375 10.55077075958252 M23.710784912109375 11.103862762451172 C23.565126419067383 11.103862762451172 23.44690704345703 10.985645294189453 23.44690704345703 10.839982986450195 C23.44690704345703 10.694321632385254 23.565126419067383 10.576103210449219 23.710784912109375 10.576103210449219 C23.856449127197266 10.576103210449219 23.974666595458984 10.694321632385254 23.974666595458984 10.839982986450195 C23.974666595458984 10.985645294189453 23.856449127197266 11.103862762451172 23.710784912109375 11.103862762451172" fill="black" fill-opacity="1.0" filling="0"/>
<path animation_id="2" d="M23.632678985595703 10.711210250854492 L23.738231658935547 10.711210250854492 C23.753005981445312 10.711210250854492 23.765674591064453 10.7133207321167 23.77411651611328 10.71754264831543 C23.79100799560547 10.725987434387207 23.79945182800293 10.740764617919922 23.79945182800293 10.763985633850098 C23.79945182800293 10.785096168518066 23.79311752319336 10.799873352050781 23.782562255859375 10.808317184448242 C23.7698974609375 10.81676197052002 23.75511932373047 10.82098388671875 23.7340087890625 10.82098388671875 L23.634788513183594 10.82098388671875 L23.634788513183594 10.711210250854492 L23.632678985595703 10.711210250854492 M23.632678985595703 10.994089126586914 L23.632678985595703 10.856871604919434 L23.731895446777344 10.856871604919434 C23.74878692626953 10.856871604919434 23.763561248779297 10.858983039855957 23.7698974609375 10.863204956054688 C23.784671783447266 10.869538307189941 23.79311752319336 10.884315490722656 23.79311752319336 10.905426025390625 L23.79522705078125 10.95820140838623 C23.79522705078125 10.970867156982422 23.797340393066406 10.9793119430542 23.797340393066406 10.98353385925293 C23.797340393066406 10.98775577545166 23.79945182800293 10.99197769165039 23.801563262939453 10.994089126586914 L23.854337692260742 10.994089126586914 L23.854337692260742 10.98775577545166 C23.848003387451172 10.985645294189453 23.843782424926758 10.9793119430542 23.839561462402344 10.968756675720215 C23.837448120117188 10.962423324584961 23.837448120117188 10.9539794921875 23.837448120117188 10.941312789916992 L23.835338592529297 10.899092674255371 C23.835338592529297 10.88009262084961 23.83111572265625 10.867426872253418 23.824783325195312 10.858983039855957 C23.818450927734375 10.85053825378418 23.810007095336914 10.844204902648926 23.797340393066406 10.839982986450195 C23.812118530273438 10.833649635314941 23.822673797607422 10.823094367980957 23.83111572265625 10.810428619384766 C23.839561462402344 10.797761917114258 23.843782424926758 10.782984733581543 23.843782424926758 10.763985633850098 C23.843782424926758 10.728097915649414 23.82900619506836 10.702765464782715 23.79945182800293 10.68798828125 C23.784671783447266 10.681654930114746 23.763561248779297 10.677433013916016 23.738231658935547 10.677433013916016 L23.590457916259766 10.677433013916016 L23.590457916259766 10.994089126586914 L23.632678985595703 10.994089126586914" fill="black" fill-opacity="1.0" filling="0"/>
<path animation_id="3" d="M0.0 12.250749588012695 L0.692631721496582 11.558116912841797 L4.702068328857422 15.567553520202637 L4.009436130523682 16.26018524169922 L0.0 12.250749588012695" fill="black" fill-opacity="1.0" filling="0"/>
<path animation_id="4" d="M9.397931098937988 11.747730255126953 L9.397931098937988 12.45492935180664 L8.6907320022583 12.45492935180664 L8.6907320022583 13.162128448486328 L7.9835333824157715 13.162128448486328 L7.9835333824157715 13.869327545166016 L7.276334762573242 13.869327545166016 L7.276334762573242 14.576525688171387 L6.569136142730713 14.576525688171387 L6.569136142730713 15.285835266113281 L5.861937522888184 15.285835266113281 L5.861937522888184 15.993033409118652 L5.154738903045654 15.993033409118652 L5.154738903045654 16.700231552124023 L4.447540283203125 16.700231552124023 L4.008443355560303 16.26113510131836 L4.702975749969482 15.56871509552002 L8.958833694458008 11.310745239257812 L9.397931098937988 11.747730255126953" fill="black" fill-opacity="1.0" filling="0"/>
<path animation_id="5" d="M5.792273044586182 9.13215160369873 L6.286256313323975 8.638167381286621 L6.780240535736084 9.13215160369873 L6.286256313323975 9.626134872436523 L6.782351016998291 10.12222957611084 L7.276334762573242 9.628246307373047 L7.772429466247559 10.124340057373047 L7.278445243835449 10.618324279785156 L7.772429466247559 11.11230754852295 L8.266412734985352 10.618324279785156 L8.762507438659668 11.11230754852295 L4.702975749969482 15.171838760375977 L0.8904361724853516 11.361410140991211 C0.8819913864135742 11.25374698638916 0.9009914398193359 11.14608383178711 0.9474344253540039 11.051087379455566 C0.9938764572143555 10.9539794921875 1.065652847290039 10.871648788452148 1.1564273834228516 10.814650535583496 C1.247201919555664 10.755541801452637 1.3506431579589844 10.721765518188477 1.4583063125610352 10.71754264831543 C1.6081905364990234 10.711210250854492 1.747518539428711 10.649989128112793 1.8530702590942383 10.544437408447266 C1.958622932434082 10.438885688781738 2.019843101501465 10.297445297241211 2.0261764526367188 10.149672508239746 C2.0325088500976562 9.999788284301758 2.0937299728393555 9.86046028137207 2.199281692504883 9.754908561706543 C2.30483341217041 9.649356842041016 2.446272850036621 9.588135719299316 2.594045639038086 9.581803321838379 C2.743929862976074 9.575469970703125 2.883258819580078 9.514249801635742 2.9888105392456055 9.408697128295898 C3.094363212585449 9.303145408630371 3.155583381652832 9.16170597076416 3.1619157791137695 9.013933181762695 C3.1682491302490234 8.864048957824707 3.2294692993164062 8.724720001220703 3.3350210189819336 8.619168281555176 C3.4405736923217773 8.513616561889648 3.5820131301879883 8.452396392822266 3.729785919189453 8.446063041687012 C3.8796701431274414 8.439729690551758 4.018998622894287 8.378509521484375 4.124550819396973 8.272957801818848 C4.2301025390625 8.16740608215332 4.291322708129883 8.025965690612793 4.297656059265137 7.878192901611328 C4.301877975463867 7.770529747009277 4.3356547355651855 7.667088985443115 4.394764423370361 7.576314449310303 C4.453873157501221 7.485539436340332 4.536203384399414 7.413763999938965 4.631200313568115 7.367321014404297 C4.728308200836182 7.320878028869629 4.835971832275391 7.299767971038818 4.941523551940918 7.3103227615356445 L5.781717777252197 8.150517463684082 L5.287734031677246 8.644500732421875 L5.792273044586182 9.13215160369873 L5.296178340911865 9.628246307373047 L4.802194595336914 9.13215160369873 L4.306100368499756 9.628246307373047 L4.800083637237549 10.12222957611084 L4.303988933563232 10.618324279785156 L3.8100051879882812 10.124340057373047 L3.3139114379882812 10.620434761047363 L3.807894706726074 11.114418029785156 L4.303988933563232 10.618324279785156 L4.797972679138184 11.11230754852295 L4.301877975463867 11.608402252197266 L4.797972679138184 12.104496955871582 L5.294066905975342 11.608402252197266 L5.790161609649658 12.104496955871582 L5.294066905975342 12.600591659545898 L5.788051128387451 13.094574928283691 L6.284145832061768 12.598480224609375 L5.790161609649658 12.104496955871582 L6.286256313323975 11.608402252197266 L6.780240535736084 12.102385520935059 L7.276334762573242 11.606290817260742 L6.782351016998291 11.11230754852295 L6.286256313323975 11.608402252197266 L5.790161609649658 11.11230754852295 L5.294066905975342 11.608402252197266 L4.797972679138184 11.11230754852295 L5.294066905975342 10.616212844848633 L5.790161609649658 11.11230754852295 L6.286256313323975 10.616212844848633 L5.790161609649658 10.120118141174316 L5.294066905975342 10.616212844848633 L4.800083637237549 10.12222957611084 L5.296178340911865 9.626134872436523 L5.790161609649658 10.120118141174316 L6.286256313323975 10.616212844848633 L6.782351016998291 11.11230754852295 L7.278445243835449 10.616212844848633 L6.782351016998291 10.120118141174316 L6.286256313323975 10.616212844848633 L5.790161609649658 10.120118141174316 L6.286256313323975 9.6240234375 L5.792273044586182 9.13215160369873" fill="black" fill-opacity="1.0" filling="0"/>
<path animation_id="6" d="M8.762507438659668 11.11230754852295 L4.702975749969482 15.171838760375977 L0.8904361724853516 11.361410140991211 L0.6919984817504883 11.557737350463867 L4.702975749969482 15.56871509552002 L8.958833694458008 11.310745239257812 L8.762507438659668 11.11230754852295" fill="black" fill-opacity="1.0" filling="0"/></svg>