<?xml version="1.0" encoding="iso-8859-1"?><svg height="200px" viewBox="0.0 0.0 24.0 24.0" width="200px" xmlns="http://www.w3.org/2000/svg"><path animation_id="0" d="M0.0 0.0 L24.0 0.0 L24.0 24.0 L0.0 24.0 L0.0 0.0" fill="black" fill-opacity="1.0" filling="0"/>
<path animation_id="1" d="M11.993027687072754 17.934633255004883 L17.533960342407227 22.94116973876953 L17.533960342407227 1.0588302612304688 L6.466164588928223 1.0588302612304688 L6.466164588928223 22.94116973876953 L11.993027687072754 17.934633255004883 L11.993027687072754 17.934633255004883" fill="black" fill-opacity="1.0" filling="0"/>
<path animation_id="2" d="M13.342962265014648 11.325033187866211 L13.342962265014648 11.170267105102539 C13.511672973632812 11.170267105102539 13.610159873962402 11.170267105102539 13.610159873962402 10.987486839294434 C13.610159873962402 10.81877613067627 11.908485412597656 8.399800300598145 11.697566032409668 8.048309326171875 L10.34750747680664 9.257797241210938 L10.34750747680664 10.91726303100586 C10.34750747680664 11.043889999389648 10.389715194702148 11.142251968383789 10.741331100463867 11.170391082763672 L10.741331100463867 11.325157165527344 L7.900641441345215 11.325157165527344 L7.900641441345215 11.170391082763672 C8.238187789916992 11.142251968383789 8.280271530151367 11.043889999389648 8.280271530151367 10.91726303100586 L8.280271530151367 4.490194797515869 C8.280271530151367 4.3635687828063965 8.238187789916992 4.2652058601379395 7.900641441345215 4.251136302947998 L7.900641441345215 4.082425117492676 L10.741331100463867 4.082425117492676 L10.741331100463867 4.251136302947998 C10.389715194702148 4.2652058601379395 10.34750747680664 4.3635687828063965 10.34750747680664 4.490194797515869 L10.34750747680664 6.97939395904541 L10.44599437713623 6.97939395904541 C11.556994438171387 5.8965325355529785 13.146236419677734 4.574612617492676 13.146236419677734 4.419847011566162 C13.146236419677734 4.265081405639648 13.047749519348145 4.265081405639648 12.906929016113281 4.251136302947998 L12.906929016113281 4.082425117492676 L16.40876579284668 4.082425117492676 L16.40876579284668 4.251136302947998 C16.04320526123047 4.2652058601379395 15.972732543945312 4.377762794494629 15.635186195373535 4.687045097351074 L13.244475364685059 6.74021053314209 L16.05714988708496 10.94515323638916 C16.212039947509766 11.17014217376709 16.32434844970703 11.17014217376709 16.493183135986328 11.17014217376709 L16.493183135986328 11.324908256530762 L13.342962265014648 11.324908256530762 L13.342962265014648 11.325033187866211 L13.342962265014648 11.325033187866211 M8.40689754486084 13.77189826965332 L8.561663627624512 14.123514175415039 C8.589802742004395 14.165722846984863 8.688165664672852 14.362571716308594 8.702235221862793 14.404781341552734 L8.702235221862793 14.418850898742676 L8.392827987670898 14.432796478271484 L8.378758430480957 14.418850898742676 L8.294341087341309 14.207931518554688 L8.139699935913086 13.814106941223145 L8.069476127624512 14.123514175415039 L8.013198852539062 14.418850898742676 L7.999128818511963 14.432796478271484 L7.717861175537109 14.432796478271484 L7.703791618347168 14.418850898742676 L7.830417633056641 13.940608978271484 L7.858557224273682 13.785967826843262 C7.914835453033447 13.54690933227539 7.928780555725098 13.490631103515625 7.970989227294922 13.265642166137695 L7.9850592613220215 13.251572608947754 L8.266326904296875 13.251572608947754 L8.266326904296875 13.265642166137695 L8.139699935913086 13.771774291992188 L8.40689754486084 13.476436614990234 C8.491315841674805 13.364004135131836 8.519454956054688 13.321796417236328 8.57560920715332 13.265642166137695 L8.589677810668945 13.251572608947754 L8.885015487670898 13.251572608947754 L8.89908504486084 13.265642166137695 C8.870945930480957 13.279586791992188 8.786528587341309 13.378073692321777 8.758513450622559 13.40621280670166 L8.40689754486084 13.77189826965332 L8.40689754486084 13.77189826965332 M9.095934867858887 14.418975830078125 L9.081865310668945 14.432920455932617 L8.786528587341309 14.432920455932617 L8.786528587341309 14.418975830078125 L8.842806816101074 14.193861961364746 L8.927224159240723 13.842370986938477 C8.983503341674805 13.589241981506348 8.997447967529297 13.5048246383667 9.053851127624512 13.265766143798828 L9.053851127624512 13.251696586608887 L9.349187850952148 13.251696586608887 L9.36313247680664 13.265766143798828 C9.292909622192383 13.54703426361084 9.2647705078125 13.617257118225098 9.208492279052734 13.912593841552734 L9.152213096618652 14.151652336120605 L9.095934867858887 14.418975830078125 L9.095934867858887 14.418975830078125 M10.319367408752441 14.418975830078125 L10.3052978515625 14.432920455932617 L10.094378471374512 14.432920455932617 L10.08030891418457 14.418975830078125 L9.995891571044922 14.23607063293457 L9.728693962097168 13.617257118225098 L9.630206108093262 14.151652336120605 L9.573927879333496 14.418850898742676 L9.573927879333496 14.432796478271484 L9.334869384765625 14.432796478271484 L9.320799827575684 14.418850898742676 L9.419286727905273 14.039095878601074 L9.489509582519531 13.743759155273438 C9.545788764953613 13.490631103515625 9.545788764953613 13.434476852416992 9.587997436523438 13.265642166137695 L9.587997436523438 13.251572608947754 L9.84112548828125 13.251572608947754 L9.855195045471191 13.265642166137695 L9.939613342285156 13.462491989135742 L10.052169799804688 13.715620040893555 C10.136463165283203 13.89840030670166 10.136463165283203 13.912469863891602 10.17879581451416 14.010832786560059 L10.277158737182617 13.5608549118042 L10.333436965942383 13.265642166137695 L10.34750747680664 13.251572608947754 L10.57249641418457 13.251572608947754 L10.57249641418457 13.265642166137695 L10.474008560180664 13.715620040893555 L10.417730331420898 13.940608978271484 L10.319367408752441 14.418975830078125 L10.319367408752441 14.418975830078125 M11.641412734985352 13.856316566467285 C11.62734317779541 13.940732955932617 11.599203109741211 14.039220809936523 11.571187973022461 14.123514175415039 A8.01556396484375 8.01556396484375 0.0 0 1 11.528980255126953 14.362571716308594 L11.514910697937012 14.376517295837402 C11.402478218078613 14.432796478271484 11.275851249694824 14.44686508178711 11.149225234985352 14.44686508178711 C10.966444969177246 14.44686508178711 10.867958068847656 14.404657363891602 10.797609329223633 14.362447738647461 C10.657038688659668 14.264084815979004 10.614829063415527 14.109319686889648 10.614829063415527 13.954679489135742 C10.614829063415527 13.743759155273438 10.741455078125 13.237378120422363 11.317935943603516 13.237378120422363 C11.500715255737305 13.237378120422363 11.613273620605469 13.279586791992188 11.68362045288086 13.321796417236328 L11.6976900100708 13.335865020751953 L11.62734317779541 13.5608549118042 L11.599203109741211 13.5608549118042 C11.585257530212402 13.532715797424316 11.571063995361328 13.518645286560059 11.528980255126953 13.490631103515625 C11.50084114074707 13.476561546325684 11.430492401123047 13.4484224319458 11.332005500793457 13.4484224319458 C10.994584083557129 13.4484224319458 10.91016674041748 13.814106941223145 10.91016674041748 13.954679489135742 C10.91016674041748 14.010832786560059 10.924236297607422 14.095250129699707 10.980390548706055 14.151528358459473 C11.022598266601562 14.207807540893555 11.092947006225586 14.221752166748047 11.163294792175293 14.221752166748047 C11.219573020935059 14.221752166748047 11.247712135314941 14.221752166748047 11.275726318359375 14.207807540893555 L11.303866386413574 14.109319686889648 C11.317935943603516 13.99688720703125 11.332005500793457 13.968624114990234 11.346075057983398 13.856191635131836 L11.36014461517334 13.842247009277344 L11.641412734985352 13.842247009277344 L11.641412734985352 13.856316566467285 L11.641412734985352 13.856316566467285 M11.71163558959961 14.33455753326416 L11.767913818359375 14.123638153076172 L11.796052932739258 14.123638153076172 C11.8101224899292 14.151778221130371 11.824193000793457 14.165847778320312 11.866401672363281 14.193861961364746 C11.950695037841797 14.23607063293457 12.021041870117188 14.250140190124512 12.063251495361328 14.250140190124512 C12.175683975219727 14.250140190124512 12.274170875549316 14.179792404174805 12.274170875549316 14.095375061035156 C12.274170875549316 14.010956764221191 12.189753532409668 13.968748092651367 12.119528770446777 13.926788330078125 L12.063251495361328 13.89852523803711 C11.978833198547363 13.856316566467285 11.85233211517334 13.786092758178711 11.85233211517334 13.603187561035156 C11.85233211517334 13.54703426361084 11.880471229553223 13.448546409606934 11.936749458312988 13.364129066467285 C12.035237312316895 13.265766143798828 12.161863327026367 13.223557472229004 12.302433967590332 13.223557472229004 C12.485339164733887 13.223557472229004 12.597646713256836 13.293780326843262 12.63998031616211 13.321920394897461 L12.65404987335205 13.335989952087402 L12.597646713256836 13.53283977508545 L12.569632530212402 13.54690933227539 A0.10956857353448868 0.10956857353448868 0.0 0 0 12.513229370117188 13.490631103515625 C12.457076072692871 13.4484224319458 12.400921821594238 13.434476852416992 12.330573081970215 13.434476852416992 C12.218016624450684 13.434476852416992 12.147668838500977 13.490631103515625 12.147668838500977 13.560978889465332 C12.147668838500977 13.645397186279297 12.203822135925293 13.673535346984863 12.31637954711914 13.72968864440918 L12.344393730163574 13.743759155273438 C12.442880630493164 13.800037384033203 12.569632530212402 13.870386123657227 12.569632530212402 14.053041458129883 C12.569632530212402 14.250015258789062 12.428812026977539 14.44686508178711 12.07732105255127 14.44686508178711 C11.992902755737305 14.44686508178711 11.908609390258789 14.432796478271484 11.838262557983398 14.418726921081543 L11.725706100463867 14.362447738647461 L11.71163558959961 14.33455753326416 M13.84921932220459 14.418975830078125 L13.835148811340332 14.432920455932617 L13.497603416442871 14.432920455932617 L13.483782768249512 14.418975830078125 L13.497603416442871 14.179792404174805 L13.511672973632812 13.575172424316406 C13.469588279724121 13.701799392700195 13.45551872253418 13.729814529418945 13.385170936584473 13.87051010131836 L13.286684036254883 14.10956859588623 C13.216461181640625 14.278280258178711 13.202265739440918 14.306418418884277 13.160181999206543 14.418975830078125 L13.146112442016602 14.432920455932617 L12.80856704711914 14.432920455932617 L12.7944974899292 14.418975830078125 L12.7944974899292 13.575048446655273 C12.7944974899292 13.40633773803711 12.780427932739258 13.378198623657227 12.780427932739258 13.265766143798828 L12.7944974899292 13.265766143798828 L13.075888633728027 13.251696586608887 L13.089709281921387 13.251696586608887 L13.075888633728027 13.518895149230957 L13.075888633728027 13.800286293029785 C13.061819076538086 13.98306655883789 13.061819076538086 14.039345741271973 13.061819076538086 14.165971755981445 L13.314948081970215 13.533088684082031 L13.427255630493164 13.265890121459961 L13.441325187683105 13.251821517944336 L13.75060749053955 13.251821517944336 L13.764677047729492 13.265890121459961 L13.75060749053955 13.533088684082031 L13.75060749053955 13.954928398132324 C13.75060749053955 14.067359924316406 13.75060749053955 14.081554412841797 13.736536979675293 14.165847778320312 L13.975845336914062 13.603187561035156 L14.102347373962402 13.265766143798828 L14.116416931152344 13.251696586608887 L14.369544982910156 13.251696586608887 L14.369544982910156 13.265766143798828 L14.200834274291992 13.645397186279297 L13.989790916442871 14.10956859588623 L13.84921932220459 14.418975830078125 L13.84921932220459 14.418975830078125 M15.10091495513916 13.251696586608887 C15.129179000854492 13.757953643798828 15.142999649047852 13.89852523803711 15.185333251953125 14.418975830078125 L15.171263694763184 14.432920455932617 L14.890119552612305 14.432920455932617 L14.890119552612305 14.418975830078125 L14.87605094909668 14.23607063293457 L14.87605094909668 14.109443664550781 L14.524435043334961 14.109443664550781 L14.468281745910645 14.22187614440918 L14.38386344909668 14.418850898742676 L14.369794845581055 14.432796478271484 L14.102596282958984 14.432796478271484 L14.102596282958984 14.404657363891602 C14.172820091247559 14.278030395507812 14.187013626098633 14.250015258789062 14.313390731811523 14.02490234375 L14.51036548614502 13.659217834472656 C14.594783782958984 13.504575729370117 14.637116432189941 13.420158386230469 14.721409797668457 13.265517234802246 L14.721409797668457 13.251447677612305 L15.10091495513916 13.251447677612305 L15.10091495513916 13.251696586608887 M14.622797966003418 13.912593841552734 L14.87592601776123 13.912593841552734 L14.861856460571289 13.715744018554688 L14.861856460571289 13.434476852416992 L14.622797966003418 13.912593841552734 M15.832160949707031 14.418975830078125 L15.81809139251709 14.432920455932617 L15.536949157714844 14.432920455932617 L15.522878646850586 14.418975830078125 C15.550893783569336 14.306418418884277 15.579032897949219 14.20805549621582 15.607295989990234 14.095375061035156 L15.649381637573242 13.926788330078125 L15.537073135375977 13.603187561035156 L15.410322189331055 13.265766143798828 L15.42439079284668 13.265766143798828 L15.733673095703125 13.251696586608887 L15.733673095703125 13.265766143798828 C15.790077209472656 13.476561546325684 15.803897857666016 13.532964706420898 15.860424995422363 13.715744018554688 L16.015066146850586 13.5048246383667 C16.029136657714844 13.462615966796875 16.12762451171875 13.321920394897461 16.155637741088867 13.265766143798828 L16.169708251953125 13.251696586608887 L16.436904907226562 13.251696586608887 L16.436904907226562 13.265766143798828 L16.282262802124023 13.476561546325684 L15.930647850036621 13.940732955932617 L15.874494552612305 14.193861961364746 L15.832160949707031 14.418975830078125 L15.832160949707031 14.418975830078125 M8.195854187011719 15.529975891113281 L8.252132415771484 15.248708724975586 L8.67409610748291 15.248708724975586 L8.716179847717285 15.05173397064209 L8.027143478393555 15.05173397064209 L7.788084506988525 16.247028350830078 L8.491190910339355 16.247028350830078 L8.533400535583496 16.05017852783203 L8.097492218017578 16.05017852783203 L8.153769493103027 15.726825714111328 L8.463051795959473 15.726825714111328 L8.505260467529297 15.529975891113281 L8.195854187011719 15.529975891113281 L8.195854187011719 15.529975891113281 M9.110004425048828 15.487767219543457 L9.053726196289062 15.05173397064209 L8.758389472961426 15.05173397064209 L8.927224159240723 15.628337860107422 L8.505260467529297 16.247028350830078 L8.814666748046875 16.247028350830078 L9.039655685424805 15.811119079589844 L9.053726196289062 15.811119079589844 L9.095934867858887 16.247028350830078 L9.405342102050781 16.247028350830078 L9.22256088256836 15.628337860107422 L9.630331039428711 15.05173397064209 L9.334993362426758 15.05173397064209 L9.110004425048828 15.487767219543457 M10.64296817779541 15.05173397064209 L10.361577033996582 15.05173397064209 L10.277283668518066 15.529975891113281 L9.85531997680664 15.529975891113281 L9.95380687713623 15.05173397064209 L9.686609268188477 15.05173397064209 L9.447549819946289 16.247028350830078 L9.71474838256836 16.247028350830078 L9.813111305236816 15.726825714111328 L10.235074996948242 15.726825714111328 L10.122518539428711 16.247028350830078 L10.389715194702148 16.247028350830078 L10.64296817779541 15.05173397064209 M10.825748443603516 16.247028350830078 L11.078877449035645 15.05173397064209 L10.811554908752441 15.05173397064209 L10.558550834655762 16.247028350830078 L10.825748443603516 16.247028350830078 M11.725706100463867 15.600199699401855 C11.866401672363281 15.586254119873047 11.978833198547363 15.501836776733398 12.006972312927246 15.347071647644043 C12.049181938171387 15.122082710266113 11.908609390258789 15.05173397064209 11.613273620605469 15.05173397064209 L11.233518600463867 15.05173397064209 L10.994460105895996 16.24715232849121 L11.430368423461914 16.24715232849121 C11.697566032409668 16.24715232849121 11.894539833068848 16.162734985351562 11.950695037841797 15.909730911254883 C11.978833198547363 15.741020202636719 11.922554969787598 15.642533302307129 11.725706100463867 15.61439323425293 L11.725706100463867 15.600199699401855 M11.458507537841797 15.248708724975586 L11.599078178405762 15.248708724975586 C11.71163558959961 15.248708724975586 11.753844261169434 15.290792465209961 11.739774703979492 15.389280319213867 C11.71163558959961 15.473697662353516 11.655357360839844 15.529975891113281 11.542800903320312 15.529975891113281 L11.402229309082031 15.529975891113281 L11.458507537841797 15.248708724975586 M11.374214172363281 15.726825714111328 L11.514785766601562 15.726825714111328 C11.641412734985352 15.726825714111328 11.6976900100708 15.797049522399902 11.683496475219727 15.895536422729492 C11.655357360839844 16.00796890258789 11.571063995361328 16.05017852783203 11.444437980651855 16.05017852783203 L11.303742408752441 16.05017852783203 L11.374214172363281 15.726825714111328 L11.374214172363281 15.726825714111328 M12.260101318359375 16.247028350830078 L12.513229370117188 15.05173397064209 L12.232086181640625 15.05173397064209 L11.993027687072754 16.247028350830078 L12.260101318359375 16.247028350830078 M13.314948081970215 15.05173397064209 L12.569632530212402 15.05173397064209 L12.527298927307129 15.248708724975586 L12.766357421875 15.248708724975586 L12.569632530212402 16.247028350830078 L12.836705207824707 16.247028350830078 L13.033679962158203 15.248708724975586 L13.286808013916016 15.248708724975586 L13.314948081970215 15.05173397064209 L13.314948081970215 15.05173397064209 M13.413310050964355 16.247028350830078 L13.652493476867676 15.05173397064209 L13.385295867919922 15.05173397064209 L13.146236419677734 16.247028350830078 L13.413310050964355 16.247028350830078 M13.624354362487793 15.64240837097168 C13.539937019348145 16.06437110900879 13.708771705627441 16.275291442871094 14.018054008483887 16.275291442871094 C14.327336311340332 16.275291442871094 14.580589294433594 16.06437110900879 14.664881706237793 15.64240837097168 C14.749175071716309 15.220443725585938 14.580464363098145 15.023594856262207 14.271183013916016 15.023594856262207 C13.96190071105957 15.023594856262207 13.708771705627441 15.220443725585938 13.624354362487793 15.64240837097168 M14.228849411010742 15.220443725585938 C14.355599403381348 15.220443725585938 14.454087257385254 15.318931579589844 14.383739471435547 15.64240837097168 C14.327336311340332 15.9658842086792 14.186765670776367 16.078441619873047 14.060263633728027 16.078441619873047 C13.933511734008789 16.078441619873047 13.8350248336792 15.9658842086792 13.905372619628906 15.64240837097168 C13.96190071105957 15.318931579589844 14.102472305297852 15.220443725585938 14.228849411010742 15.220443725585938 L14.228849411010742 15.220443725585938 M15.382307052612305 15.923675537109375 C15.368237495422363 15.769035339355469 15.311834335327148 15.473697662353516 15.227417945861816 15.05173397064209 L14.861856460571289 15.05173397064209 L14.622797966003418 16.24715232849121 L14.861856460571289 16.24715232849121 C14.960344314575195 15.811243057250977 15.00242805480957 15.51590633392334 15.030567169189453 15.37520980834961 L15.044637680053711 15.37520980834961 C15.05845832824707 15.51590633392334 15.100790023803711 15.811243057250977 15.185208320617676 16.24715232849121 L15.550769805908203 16.24715232849121 L15.790077209472656 15.05173397064209 L15.550769805908203 15.05173397064209 A57.23115539550781 57.23115539550781 0.0 0 0 15.382307052612305 15.923675537109375 L15.382307052612305 15.923675537109375 M16.56340789794922 15.318931579589844 C16.577476501464844 15.15022087097168 16.478988647460938 15.023594856262207 16.2681941986084 15.023594856262207 C16.141443252563477 15.023594856262207 16.04320526123047 15.065803527832031 15.958911895751953 15.122082710266113 C15.888439178466797 15.17823600769043 15.846354484558105 15.248708724975586 15.832160949707031 15.332877159118652 C15.803897857666016 15.4454345703125 15.832160949707031 15.529850959777832 15.874494552612305 15.586130142211914 C15.902509689331055 15.628213882446289 15.958911895751953 15.684493064880371 16.029136657714844 15.726700782775879 C16.0993595123291 15.782855987548828 16.12762451171875 15.796924591064453 16.155637741088867 15.825188636779785 C16.183900833129883 15.853326797485352 16.197969436645508 15.89541244506836 16.183900833129883 15.9376220703125 C16.183900833129883 15.965760231018066 16.169830322265625 16.007844924926758 16.141569137573242 16.022037506103516 C16.11355209350586 16.05017852783203 16.08541488647461 16.064247131347656 16.043331146240234 16.064247131347656 C15.958911895751953 16.064247131347656 15.944843292236328 16.00796890258789 15.944843292236328 15.9376220703125 L15.677644729614258 15.951690673828125 C15.663575172424316 16.134471893310547 15.747867584228516 16.26097297668457 16.001121520996094 16.26097297668457 A0.5226919054985046 0.5226919054985046 0.0 0 0 16.324596405029297 16.148540496826172 C16.409015655517578 16.07831573486328 16.45134735107422 15.99389934539795 16.46516990661621 15.9094820022583 C16.493431091308594 15.796924591064453 16.46516990661621 15.712507247924805 16.423084259033203 15.67029857635498 C16.394821166992188 15.614144325256348 16.338666915893555 15.586005210876465 16.268444061279297 15.529726028442383 C16.212289810180664 15.487518310546875 16.184024810791016 15.473448753356934 16.141693115234375 15.44530963897705 C16.099607467651367 15.403100967407227 16.08553695678711 15.360892295837402 16.099607467651367 15.318682670593262 C16.099607467651367 15.290419578552246 16.113677978515625 15.262404441833496 16.141693115234375 15.248459815979004 C16.15576171875 15.234390258789062 16.184024810791016 15.220195770263672 16.226110458374023 15.220195770263672 C16.282512664794922 15.220195770263672 16.29658317565918 15.276473999023438 16.29658317565918 15.33262825012207 L16.56340789794922 15.318931579589844 L16.56340789794922 15.318931579589844" fill="black" fill-opacity="1.0" filling="0"/></svg>