<?xml version="1.0" encoding="iso-8859-1"?><svg height="200px" viewBox="0.0 0.0 24.0 24.0" width="200px" xmlns="http://www.w3.org/2000/svg"><path animation_id="0" d="M0.0 0.0 L24.0 0.0 L24.0 24.0 L0.0 24.0 L0.0 0.0" fill="black" fill-opacity="1.0" filling="0"/>
<path animation_id="1" d="M2.4010467529296875 5.165535926818848 L23.337360382080078 5.165535926818848 L23.337360382080078 19.861297607421875 L2.4010467529296875 19.861297607421875 L2.4010467529296875 5.165535926818848" fill="black" fill-opacity="1.0" filling="0"/>
<path animation_id="2" d="M1.4548959732055664 19.015750885009766 L22.49181365966797 19.015750885009766 L22.49181365966797 4.13895320892334 L1.4548959732055664 4.13895320892334 L1.4548959732055664 19.015750885009766" fill="black" fill-opacity="1.0" filling="0"/>
<path animation_id="3" d="M21.38454818725586 10.922990798950195 C21.38454818725586 10.03722858428955 20.67982292175293 9.312457084655762 19.794185638427734 9.312457084655762 C18.90854835510254 9.312457084655762 18.18377685546875 10.03722858428955 18.18377685546875 10.922990798950195 L18.18377685546875 14.687542915344238 C18.18377685546875 15.573180198669434 18.908424377441406 16.29795265197754 19.794185638427734 16.29795265197754 C20.679948806762695 16.29795265197754 21.38454818725586 15.5733060836792 21.38454818725586 14.687542915344238 L21.38454818725586 10.922990798950195 M11.097553253173828 13.962896347045898 C11.842370986938477 13.962896347045898 12.42607307434082 13.379070281982422 12.42607307434082 12.63412857055664 C12.42607307434082 11.9094820022583 11.842370986938477 11.305609703063965 11.097553253173828 11.305609703063965 C10.372906684875488 11.305609703063965 9.76891040802002 11.909605979919434 9.76891040802002 12.63412857055664 C9.76891040802002 13.378946304321289 10.372906684875488 13.962896347045898 11.097553253173828 13.962896347045898" fill="black" fill-opacity="1.0" filling="0"/>
<path animation_id="4" d="M19.914960861206055 5.4070844650268555 L12.36581039428711 5.4070844650268555 C11.117724418640137 5.4070844650268555 10.75527572631836 5.769532680511475 9.748739242553711 6.71555757522583 C9.024092674255371 7.400112152099609 3.4477996826171875 12.97640609741211 3.0854759216308594 13.338728904724121 C2.018551826477051 14.40552806854248 2.702981948852539 15.452530860900879 3.004918098449707 15.754218101501465 C3.6491317749023438 16.418601989746094 4.514723300933838 16.539501190185547 5.219324111938477 15.85494613647461 C5.561601161956787 15.492623329162598 11.318931579589844 9.73516845703125 12.043703079223633 9.050738334655762 C12.62752914428711 8.487082481384277 13.090580940246582 8.829360008239746 13.090580940246582 9.775384902954102 L13.090580940246582 14.667247772216797 C13.090580940246582 15.55313491821289 13.815227508544922 16.277904510498047 14.701238632202148 16.277904510498047 C15.58687686920166 16.277904510498047 16.311649322509766 15.553258895874023 16.311649322509766 14.667247772216797 L16.311649322509766 9.634563446044922 C16.311649322509766 9.070907592773438 16.452716827392578 8.829360008239746 16.996204376220703 8.829360008239746 L19.472328186035156 8.829360008239746 C20.66002655029297 8.829360008239746 21.586130142211914 8.18514633178711 21.586130142211914 7.037664413452148 C21.585880279541016 6.071468830108643 20.76050567626953 5.4070844650268555 19.914960861206055 5.4070844650268555 L19.914960861206055 5.4070844650268555" fill="black" fill-opacity="1.0" filling="0"/>
<path animation_id="5" d="M19.81435775756836 8.366432189941406 C20.49890899658203 8.366432189941406 21.082611083984375 7.80277681350708 21.082611083984375 7.098176002502441 C21.082611083984375 6.393575191497803 20.49890899658203 5.829920291900635 19.81435775756836 5.829920291900635 C19.109880447387695 5.829920291900635 18.525928497314453 6.393575191497803 18.525928497314453 7.098176002502441 C18.525928497314453 7.802652359008789 19.10975456237793 8.366432189941406 19.81435775756836 8.366432189941406" fill="black" fill-opacity="1.0" filling="0"/>
<path animation_id="6" d="M6.4271931648254395 7.238996505737305 C6.4271931648254395 6.77594518661499 6.789516448974609 6.413746356964111 7.252568244934082 6.413746356964111 C7.695449352264404 6.413746356964111 8.05777359008789 6.776069641113281 8.05777359008789 7.238996505737305 C8.05777359008789 7.681877613067627 7.695449352264404 8.064371109008789 7.252568244934082 8.064371109008789 C6.789516448974609 8.064496040344238 6.4271931648254395 7.681877613067627 6.4271931648254395 7.238996505737305 L6.4271931648254395 7.238996505737305 M7.977339267730713 7.238996505737305 A0.72165846824646 0.72165846824646 0.0 0 0 7.252692699432373 6.514349937438965 A0.72165846824646 0.72165846824646 0.0 0 0 6.527921676635742 7.238996505737305 A0.7217829823493958 0.7217829823493958 0.0 0 0 7.252692699432373 7.9637675285339355 A0.72165846824646 0.72165846824646 0.0 0 0 7.977339267730713 7.238996505737305 M7.655232906341553 7.702048301696777 L7.514287948608398 7.702048301696777 L7.252568244934082 7.2792134284973145 L7.051235675811768 7.2792134284973145 L7.051235675811768 7.702048301696777 L6.950507640838623 7.702048301696777 L6.950507640838623 6.77594518661499 L7.333001613616943 6.77594518661499 C7.413434982299805 6.77594518661499 7.493992328643799 6.77594518661499 7.574550151824951 6.816286087036133 C7.634937763214111 6.856502532958984 7.675278663635254 6.937060356140137 7.675278663635254 7.017618179321289 C7.675278663635254 7.198780059814453 7.5343337059021 7.259166717529297 7.373342990875244 7.2793378829956055 L7.655232906341553 7.702048301696777 L7.655232906341553 7.702048301696777 M7.23239803314209 7.178609371185303 C7.3531718254089355 7.178609371185303 7.55450439453125 7.198780059814453 7.55450439453125 7.017618179321289 C7.55450439453125 6.876673221588135 7.433729648590088 6.856626987457275 7.312955379486084 6.856626987457275 L7.051235675811768 6.856626987457275 L7.051235675811768 7.178733825683594 L7.23239803314209 7.178733825683594 L7.23239803314209 7.178609371185303 L7.23239803314209 7.178609371185303" fill="black" fill-opacity="1.0" filling="0"/></svg>