<?xml version="1.0" encoding="iso-8859-1"?><svg height="200px" viewBox="0.0 0.0 24.0 24.0" width="200px" xmlns="http://www.w3.org/2000/svg"><path animation_id="0" d="M0.0 0.0 L24.0 0.0 L24.0 24.0 L0.0 24.0 L0.0 0.0" fill="black" fill-opacity="1.0" filling="0"/>
<path animation_id="1" d="M7.470460414886475 10.485713005065918 C7.339102268218994 10.372657775878906 7.188196659088135 10.269438743591309 7.008155345916748 10.269438743591309 C6.779431343078613 10.269438743591309 6.613957405090332 10.421839714050293 6.613957405090332 10.657785415649414 C6.613957405090332 10.864221572875977 6.779431343078613 11.0313138961792 6.9837517738342285 11.0313138961792 C7.178360462188721 11.0313138961792 7.324410438537598 10.932951927185059 7.470335960388184 10.829732894897461 L7.416796684265137 11.901388168334961 C7.2221879959106445 11.965261459350586 7.003174781799316 12.024279594421387 6.784162521362305 12.024279594421387 C5.947207927703857 12.024279594421387 5.348689556121826 11.547407150268555 5.348689556121826 10.672477722167969 C5.348689556121826 9.900765419006348 5.908236503601074 9.296146392822266 6.681940078735352 9.296146392822266 C6.944655895233154 9.296146392822266 7.217207431793213 9.345327377319336 7.470211505889893 9.428749084472656 L7.470211505889893 10.485713005065918 L7.470460414886475 10.485713005065918 M7.684741497039795 7.9788336753845215 L8.940173149108887 7.9788336753845215 L8.940173149108887 11.965386390686035 L7.684741497039795 11.965386390686035 L7.684741497039795 7.9788336753845215 M10.409263610839844 9.355164527893066 L10.409263610839844 10.70211124420166 C10.409263610839844 10.854511260986328 10.418975830078125 11.016622543334961 10.623420715332031 11.016622543334961 C10.827740669250488 11.016622543334961 10.83745288848877 10.854386329650879 10.83745288848877 10.70211124420166 L10.83745288848877 9.355164527893066 L12.083296775817871 9.355164527893066 L12.083296775817871 10.82985782623291 C12.083296775817871 11.655730247497559 11.372719764709473 12.02440357208252 10.623420715332031 12.02440357208252 C9.87399673461914 12.02440357208252 9.163543701171875 11.655730247497559 9.163543701171875 10.82985782623291 L9.163543701171875 9.355164527893066 L10.409263610839844 9.355164527893066 M12.262964248657227 7.9788336753845215 L13.518271446228027 7.9788336753845215 L13.518271446228027 9.079998016357422 L13.459877014160156 9.704290390014648 L13.503705024719238 9.704290390014648 C13.679014205932617 9.463362693786621 13.990288734436035 9.296396255493164 14.282388687133789 9.296396255493164 C15.012388229370117 9.296396255493164 15.357778549194336 10.03374195098877 15.357778549194336 10.682561874389648 C15.357778549194336 11.306854248046875 14.987860679626465 12.024528503417969 14.28724479675293 12.024528503417969 C13.951441764831543 12.024528503417969 13.65473461151123 11.842619895935059 13.44530963897705 11.577165603637695 L13.416173934936523 11.577165603637695 L13.44045352935791 11.965510368347168 L12.262964248657227 11.965510368347168 L12.262964248657227 7.9788336753845215 M13.474569320678711 10.657909393310547 C13.474569320678711 10.854511260986328 13.586379051208496 11.031438827514648 13.795804977416992 11.031438827514648 C13.990288734436035 11.031438827514648 14.121894836425781 10.82500171661377 14.121894836425781 10.647948265075684 C14.121894836425781 10.466164588928223 13.985432624816895 10.289236068725586 13.795804977416992 10.289236068725586 C13.586379051208496 10.289236068725586 13.474569320678711 10.466164588928223 13.474569320678711 10.657909393310547 M2.966444969177246 14.600759506225586 L2.937185287475586 14.600759506225586 C2.7084598541259766 14.846417427062988 2.5040159225463867 15.003673553466797 2.148789405822754 15.003673553466797 C1.4480476379394531 15.003673553466797 1.0588302612304688 14.285999298095703 1.0588302612304688 13.651870727539062 C1.0588302612304688 12.993339538574219 1.453028678894043 12.275415420532227 2.1829042434692383 12.275415420532227 C2.4943037033081055 12.275415420532227 2.752288818359375 12.388470649719238 2.937185287475586 12.644089698791504 L2.966320037841797 12.644089698791504 L2.927349090576172 12.334558486938477 L4.158500671386719 12.334558486938477 L4.158500671386719 14.944904327392578 L2.927349090576172 14.944904327392578 L2.966444969177246 14.600759506225586 L2.966444969177246 14.600759506225586 M2.6306419372558594 14.01070785522461 C2.869077682495117 14.01070785522461 2.966444969177246 13.818838119506836 2.966444969177246 13.617506980895996 C2.966444969177246 13.415925025939941 2.830106735229492 13.268506050109863 2.6306419372558594 13.268506050109863 C2.4310531616210938 13.268506050109863 2.304551124572754 13.43559741973877 2.304551124572754 13.627218246459961 C2.304551124572754 13.83365535736084 2.4019174575805664 14.01070785522461 2.6306419372558594 14.01070785522461 M7.346573352813721 16.02116584777832 L6.0910162925720215 16.02116584777832 L6.0910162925720215 15.003673553466797 L6.149411678314209 14.585943222045898 L6.115420818328857 14.585943222045898 C5.974226474761963 14.841561317443848 5.633567810058594 15.003673553466797 5.351428985595703 15.003673553466797 C4.645832061767578 15.003673553466797 4.266326427459717 14.231837272644043 4.266326427459717 13.617506980895996 C4.266326427459717 12.963581085205078 4.616572380065918 12.275415420532227 5.34171724319458 12.275415420532227 C5.6678080558776855 12.275415420532227 6.008342266082764 12.447612762451172 6.1495361328125 12.747431755065918 L6.188507556915283 12.747431755065918 L6.1495361328125 12.334558486938477 L7.346697807312012 12.334558486938477 L7.346697807312012 16.02116584777832 L7.346573352813721 16.02116584777832 L7.346573352813721 16.02116584777832 M5.502335071563721 13.642034530639648 C5.502335071563721 13.838510513305664 5.614268779754639 14.01556396484375 5.8235697746276855 14.01556396484375 C6.018178462982178 14.01556396484375 6.1495361328125 13.809125900268555 6.1495361328125 13.632074356079102 C6.1495361328125 13.450165748596191 6.013322830200195 13.273362159729004 5.8235697746276855 13.273362159729004 C5.614268779754639 13.273362159729004 5.502335071563721 13.450165748596191 5.502335071563721 13.642034530639648 M8.782045364379883 12.334433555603027 L8.782045364379883 13.681380271911621 C8.782045364379883 13.83365535736084 8.791757583618164 13.995766639709473 8.996078491210938 13.995766639709473 C9.200398445129395 13.995766639709473 9.210234642028809 13.83353042602539 9.210234642028809 13.681380271911621 L9.210234642028809 12.334433555603027 L10.455954551696777 12.334433555603027 L10.455954551696777 13.809125900268555 C10.455954551696777 14.635000228881836 9.745502471923828 15.003673553466797 8.996078491210938 15.003673553466797 C8.246654510498047 15.003673553466797 7.536325931549072 14.635000228881836 7.536325931549072 13.809125900268555 L7.536325931549072 12.334433555603027 L8.782045364379883 12.334433555603027 L8.782045364379883 12.334433555603027 M12.455581665039062 14.600759506225586 L12.426445960998535 14.600759506225586 C12.197846412658691 14.846417427062988 11.993400573730469 15.003673553466797 11.638175010681152 15.003673553466797 C10.937434196472168 15.003673553466797 10.54809284210205 14.285999298095703 10.54809284210205 13.651870727539062 C10.54809284210205 12.993339538574219 10.942290306091309 12.275415420532227 11.67216682434082 12.275415420532227 C11.983565330505371 12.275415420532227 12.241549491882324 12.388470649719238 12.426321983337402 12.644089698791504 L12.45545768737793 12.644089698791504 L12.416609764099121 12.334558486938477 L13.647886276245117 12.334558486938477 L13.647886276245117 14.944904327392578 L12.416609764099121 14.944904327392578 L12.455581665039062 14.600759506225586 L12.455581665039062 14.600759506225586 M12.120027542114258 14.01070785522461 C12.358339309692383 14.01070785522461 12.455581665039062 13.818838119506836 12.455581665039062 13.617506980895996 C12.455581665039062 13.415925025939941 12.319367408752441 13.268506050109863 12.120027542114258 13.268506050109863 C11.920437812805176 13.268506050109863 11.793936729431152 13.43559741973877 11.793936729431152 13.627218246459961 C11.793936729431152 13.83365535736084 11.891178131103516 14.01070785522461 12.120027542114258 14.01070785522461 M15.969867706298828 13.56334400177002 C15.838262557983398 13.484779357910156 15.745875358581543 13.420781135559082 15.585383415222168 13.420781135559082 C15.259291648864746 13.420781135559082 15.093942642211914 13.617506980895996 15.093942642211914 13.941978454589844 L15.093942642211914 14.944904327392578 L13.838386535644531 14.944904327392578 L13.838386535644531 12.334433555603027 L15.093942642211914 12.334433555603027 L15.064806938171387 12.683433532714844 L15.093942642211914 12.683433532714844 C15.317687034606934 12.339288711547852 15.54653549194336 12.265704154968262 15.969867706298828 12.275415420532227 L15.969867706298828 13.56334400177002 L15.969867706298828 13.56334400177002 M16.085289001464844 12.334433555603027 L17.340845108032227 12.334433555603027 L17.340845108032227 14.944780349731445 L16.085289001464844 14.944780349731445 L16.085289001464844 12.334433555603027 M18.85401153564453 12.334433555603027 L18.85401153564453 13.681380271911621 C18.85401153564453 13.83365535736084 18.863723754882812 13.995766639709473 19.06804656982422 13.995766639709473 C19.27236557006836 13.995766639709473 19.28207778930664 13.83353042602539 19.28207778930664 13.681380271911621 L19.28207778930664 12.334433555603027 L20.52791976928711 12.334433555603027 L20.52791976928711 13.809125900268555 C20.52791976928711 14.635000228881836 19.81759262084961 15.003673553466797 19.06804656982422 15.003673553466797 C18.318496704101562 15.003673553466797 17.60816764831543 14.635000228881836 17.60816764831543 13.809125900268555 L17.60816764831543 12.334433555603027 L18.85401153564453 12.334433555603027 M20.829360961914062 13.927038192749023 L20.907176971435547 13.976219177246094 C21.08224105834961 14.084418296813965 21.33536720275879 14.217269897460938 21.549400329589844 14.217269897460938 C21.632076263427734 14.217269897460938 21.734420776367188 14.17306900024414 21.734420776367188 14.074706077575684 C21.734420776367188 13.932143211364746 21.583391189575195 13.927038192749023 21.481292724609375 13.912469863891602 C21.062816619873047 13.853327751159668 20.673473358154297 13.68150520324707 20.673473358154297 13.189690589904785 C20.673473358154297 12.536014556884766 21.325654983520508 12.275290489196777 21.88034439086914 12.275290489196777 C22.201332092285156 12.275290489196777 22.600387573242188 12.339288711547852 22.882774353027344 12.49654483795166 L22.576107025146484 13.219075202941895 C22.41561508178711 13.101163864135742 22.201332092285156 13.002925872802734 21.997135162353516 13.002925872802734 C21.91931915283203 13.002925872802734 21.81722068786621 13.027454376220703 21.81722068786621 13.12083625793457 C21.81722068786621 13.24870777130127 21.953433990478516 13.25841999053955 22.12874412536621 13.28792953491211 C22.576231002807617 13.36188793182373 22.94116973876953 13.518895149230957 22.94116973876953 14.04494857788086 C22.94116973876953 14.72340202331543 22.27454376220703 15.003548622131348 21.690467834472656 15.003548622131348 C21.281951904296875 15.003548622131348 20.882898330688477 14.875677108764648 20.50812530517578 14.713440895080566 L20.829360961914062 13.927038192749023 L20.829360961914062 13.927038192749023" fill="black" fill-opacity="1.0" filling="0"/>
<path animation_id="2" d="M16.70746612548828 12.200211524963379 C17.848970413208008 12.200211524963379 18.774574279785156 11.274606704711914 18.774574279785156 10.132976531982422 C18.774574279785156 8.991470336914062 17.848970413208008 8.065865516662598 16.70746612548828 8.065865516662598 C15.565710067749023 8.065865516662598 14.640105247497559 8.991470336914062 14.640105247497559 10.132976531982422 C14.640105247497559 11.274730682373047 15.565710067749023 12.200211524963379 16.70746612548828 12.200211524963379 L16.70746612548828 12.200211524963379" fill="black" fill-opacity="1.0" filling="0"/></svg>