<?xml version="1.0" encoding="iso-8859-1"?><svg height="200px" viewBox="0.0 0.0 24.0 24.0" width="200px" xmlns="http://www.w3.org/2000/svg"><path animation_id="0" d="M0.0 0.0 L24.0 0.0 L24.0 24.0 L0.0 24.0 L0.0 0.0" fill="black" fill-opacity="1.0" filling="0"/>
<path animation_id="1" d="M2.2589797973632812 12.677581787109375 C3.0011825561523438 11.873746871948242 3.634937286376953 11.490132331848145 4.294838905334473 11.025214195251465 C4.323850154876709 11.004295349121094 4.3452653884887695 10.943285942077637 4.299695014953613 10.876797676086426 C4.273174285888672 10.838074684143066 4.204320430755615 10.825748443603516 4.133100986480713 10.867834091186523 C3.411940574645996 11.301126480102539 2.569507598876953 11.957916259765625 1.9133405685424805 12.677955627441406 C1.8955364227294922 12.697379112243652 1.7969245910644531 12.809064865112305 1.7275724411010742 12.768723487854004 C1.6704225540161133 12.73535442352295 1.697566032409668 12.677955627441406 1.697566032409668 12.677955627441406 C2.400920867919922 11.805765151977539 3.4216527938842773 11.077383041381836 4.25449800491333 10.567391395568848 C4.2901082038879395 10.544855117797852 4.3353047370910645 10.484841346740723 4.306169509887695 10.418975830078125 C4.28687047958374 10.372408866882324 4.215651035308838 10.346883773803711 4.136462688446045 10.38884449005127 C3.271617889404297 10.847786903381348 2.063126564025879 11.85805892944336 1.348067283630371 12.678454399108887 C1.3031187057495117 12.730000495910645 1.3635053634643555 12.657535552978516 1.3216705322265625 12.708584785461426 C1.3216705322265625 12.708584785461426 1.2475872039794922 12.789143562316895 1.1745004653930664 12.750544548034668 C1.1745004653930664 12.750544548034668 1.0919504165649414 12.687542915344238 1.1680259704589844 12.597522735595703 A9.455892562866211 9.455892562866211 0.0 0 1 1.4521570205688477 12.277158737182617 C2.0790634155273438 11.608043670654297 2.8197717666625977 10.997945785522461 3.5425519943237305 10.543734550476074 C3.6265954971313477 10.491315841674805 3.602315902709961 10.416360855102539 3.5911102294921875 10.395318031311035 C3.5634689331054688 10.34439468383789 3.49722957611084 10.31588077545166 3.4164228439331055 10.362323760986328 C2.900827407836914 10.662641525268555 1.8632888793945312 11.544543266296387 1.4536514282226562 11.94758129119873 C1.3968753814697266 12.003361701965332 1.3527984619140625 12.050052642822266 1.3232898712158203 12.08466625213623 C1.3232898712158203 12.08466625213623 1.2607860565185547 12.140945434570312 1.1987800598144531 12.120650291442871 C1.1141128540039062 12.093008995056152 1.1509685516357422 11.998132705688477 1.185831069946289 11.958786964416504 C1.2680072784423828 11.86602783203125 1.4491691589355469 11.694204330444336 1.4491691589355469 11.694204330444336 C1.876112937927246 11.283695220947266 2.3446435928344727 10.889995574951172 2.8368301391601562 10.517711639404297 C2.848160743713379 10.510116577148438 2.8883771896362305 10.449356079101562 2.830355644226074 10.378260612487793 C2.7877731323242188 10.326090812683105 2.705845832824707 10.348254203796387 2.6524314880371094 10.381248474121094 C2.3488759994506836 10.568885803222656 1.8286752700805664 10.976654052734375 1.4502897262573242 11.315444946289062 C1.411442756652832 11.350308418273926 1.373342514038086 11.387412071228027 1.3378572463989258 11.42040729522705 C1.297515869140625 11.457884788513184 1.2290363311767578 11.494739532470703 1.1794805526733398 11.456390380859375 C1.107015609741211 11.40048599243164 1.179605484008789 11.321422576904297 1.205378532409668 11.286932945251465 C1.2747306823730469 11.194297790527344 1.3768281936645508 11.133910179138184 1.459254264831543 11.058955192565918 L0.35323429107666016 11.058955192565918 L0.35323429107666016 13.605179786682129 L3.115856170654297 13.605179786682129 L3.115856170654297 12.678328514099121 L3.0319366455078125 12.738592147827148 C2.9899768829345703 12.768599510192871 2.944406509399414 12.803959846496582 2.880782127380371 12.767105102539062 C2.858370780944824 12.754155158996582 2.8050804138183594 12.724522590637207 2.8491573333740234 12.678328514099121 C3.2890491485595703 12.218016624450684 3.800037384033203 11.812862396240234 4.301313877105713 11.472452163696289 C4.315881252288818 11.461869239807129 4.361949920654297 11.403348922729492 4.3255934715271 11.340472221374512 C4.286621570587158 11.272988319396973 4.201083660125732 11.291041374206543 4.176804065704346 11.307476997375488 C3.559110641479492 11.715371131896973 2.49654483795166 12.677830696105957 2.49654483795166 12.677830696105957 C2.457697868347168 12.716802597045898 2.326714515686035 12.808939933776855 2.2776565551757812 12.7850341796875 C2.2044448852539062 12.749673843383789 2.2589797973632812 12.677581787109375 2.2589797973632812 12.677581787109375 L2.2589797973632812 12.677581787109375" fill="black" fill-opacity="1.0" filling="0"/>
<path animation_id="2" d="M5.857560634613037 11.497479438781738 C5.861171722412109 11.190064430236816 5.68561315536499 11.179107666015625 5.68561315536499 11.179107666015625 C5.619498252868652 11.157443046569824 5.593226909637451 11.170516967773438 5.506319046020508 11.160804748535156 L5.503828525543213 11.06592845916748 L6.556558609008789 11.06592845916748 L6.567515850067139 11.168149948120117 L6.446741104125977 11.175496101379395 C6.260100841522217 11.179107666015625 6.197845935821533 11.329141616821289 6.197845935821533 11.497479438781738 L6.197845935821533 13.473572731018066 L6.772458553314209 13.473572731018066 C7.182344913482666 13.44804859161377 7.248210430145264 13.382182121276855 7.358027935028076 13.298014640808105 C7.43111515045166 13.232149124145508 7.504326820373535 13.052730560302734 7.588620185852051 12.888128280639648 L7.669053554534912 12.888128280639648 L7.460499286651611 13.605429649353027 L5.605179786682129 13.605429649353027 L5.612401485443115 13.495611190795898 L5.68561315536499 13.48091983795166 C5.810122966766357 13.382182121276855 5.857560634613037 13.334495544433594 5.857560634613037 13.052854537963867 L5.857560634613037 11.497479438781738 M14.587063789367676 11.192678451538086 L14.78989028930664 11.192678451538086 C15.166780471801758 11.192678451538086 15.351677894592285 11.435473442077637 15.351677894592285 11.801406860351562 C15.351677894592285 11.834028244018555 15.349187850952148 11.87038516998291 15.344331741333008 11.899147033691406 C15.300753593444824 12.156384468078613 15.094066619873047 12.31787395477295 14.837080001831055 12.34128189086914 C14.797236442565918 12.344892501831055 14.753658294677734 12.344892501831055 14.710079193115234 12.34128189086914 C14.695760726928711 12.34128189086914 14.724647521972656 12.420968055725098 14.724647521972656 12.420968055725098 C14.880533218383789 12.431924819946289 14.934819221496582 12.460810661315918 15.224678039550781 12.424578666687012 C15.275477409362793 12.417231559753418 15.347942352294922 12.39195728302002 15.424142837524414 12.34128189086914 C15.555500030517578 12.253750801086426 15.699433326721191 12.109319686889648 15.743012428283691 11.90288257598877 C15.752225875854492 11.859055519104004 15.757330894470215 11.815975189208984 15.757330894470215 11.7723970413208 C15.760941505432129 11.540559768676758 15.594347953796387 11.297764778137207 15.427628517150879 11.192678451538086 C15.315570831298828 11.152835845947266 15.1306734085083 11.065803527832031 14.757392883300781 11.065803527832031 L13.866151809692383 11.065803527832031 L13.866151809692383 11.192678451538086 L14.050924301147461 11.192678451538086 C14.050924301147461 11.192678451538086 14.242794036865234 11.21807861328125 14.250140190124512 11.431737899780273 L14.246529579162598 13.069415092468262 C14.246529579162598 13.362883567810059 14.137832641601562 13.493370056152344 14.029135704040527 13.493370056152344 L13.891551971435547 13.493370056152344 L13.884206771850586 13.60567855834961 L14.945900917053223 13.60567855834961 L14.956857681274414 13.493370056152344 L14.79001522064209 13.493370056152344 C14.750171661376953 13.493370056152344 14.587187767028809 13.457138061523438 14.587187767028809 13.051236152648926 L14.587187767028809 11.192678451538086 L14.587063789367676 11.192678451538086 M18.666749954223633 11.907115936279297 C18.52206802368164 11.404470443725586 18.080930709838867 11.014007568359375 17.346698760986328 11.014007568359375 C16.69227409362793 11.014007568359375 16.177427291870117 11.364377975463867 16.001619338989258 11.907115936279297 A1.4174189567565918 1.4174189567565918 0.0 0 0 15.932764053344727 12.344768524169922 L15.932764053344727 12.348254203796387 C15.936375617980957 13.046131134033203 16.464420318603516 13.66096019744873 17.346572875976562 13.66096019744873 C18.098735809326172 13.66096019744873 18.695510864257812 13.111249923706055 18.720787048339844 12.348254203796387 L18.720787048339844 12.301313400268555 A1.4324846267700195 1.4324846267700195 0.0 0 0 18.666749954223633 11.907115936279297 L18.666749954223633 11.907115936279297 M18.290481567382812 12.406150817871094 C18.290481567382812 13.133038520812988 17.856689453125 13.465728759765625 17.40459442138672 13.465728759765625 C16.721284866333008 13.465728759765625 16.439395904541016 12.869078636169434 16.399303436279297 12.348254203796387 A1.8414990901947021 1.8414990901947021 0.0 0 1 16.3922061920166 12.207308769226074 C16.3922061920166 12.095250129699707 16.404159545898438 11.994148254394531 16.421092987060547 11.907115936279297 C16.529541015625 11.346696853637695 16.952749252319336 11.187573432922363 17.2960205078125 11.187573432922363 C17.812986373901367 11.187573432922363 18.098735809326172 11.502209663391113 18.22187614440918 11.903504371643066 C18.264707565307617 12.043578147888184 18.286745071411133 12.196352005004883 18.290481567382812 12.348254203796387 C18.29098129272461 12.366308212280273 18.290481567382812 12.387972831726074 18.290481567382812 12.406150817871094 L18.290481567382812 12.406150817871094 M19.651870727539062 11.190313339233398 L19.860300064086914 11.190313339233398 C20.176677703857422 11.190313339233398 20.3739013671875 11.3615140914917 20.3739013671875 11.689099311828613 C20.3739013671875 11.756085395812988 20.36269760131836 11.83054256439209 20.329204559326172 11.901264190673828 C20.258731842041016 12.046442031860352 20.09861183166504 12.169208526611328 19.759944915771484 12.15439224243164 L19.74873924255371 12.23619556427002 C19.849220275878906 12.284629821777344 19.89752960205078 12.299570083618164 19.89752960205078 12.299570083618164 C19.923551559448242 12.314387321472168 19.94596290588379 12.329204559326172 19.97198486328125 12.355351448059082 C20.042709350585938 12.418601989746094 20.12077522277832 12.530162811279297 20.23632049560547 12.738716125488281 L20.571125030517578 13.274606704711914 C20.656787872314453 13.390027046203613 20.734981536865234 13.457013130187988 20.794620513916016 13.509182929992676 C20.861482620239258 13.561227798461914 21.01425552368164 13.650626182556152 21.244972229003906 13.650626182556152 C21.501712799072266 13.650626182556152 21.617008209228516 13.527859687805176 21.650625228881836 13.483036041259766 C21.650625228881836 13.483036041259766 21.64303207397461 13.40496826171875 21.65423583984375 13.390027046203613 C21.59459686279297 13.442195892333984 21.457012176513672 13.486770629882812 21.300628662109375 13.457013130187988 C21.207496643066406 13.442195892333984 21.163043975830078 13.3864164352417 21.133037567138672 13.36761474609375 C20.954492568969727 13.192803382873535 20.876300811767578 13.069912910461426 20.746187210083008 12.868953704833984 C20.69028091430664 12.7944974899292 20.593414306640625 12.563779830932617 20.422212600708008 12.440889358520508 A0.5329017043113708 0.5329017043113708 0.0 0 0 20.31812286376953 12.355226516723633 C20.195356369018555 12.273299217224121 20.098487854003906 12.273299217224121 20.150531768798828 12.273299217224121 C20.3924560546875 12.273299217224121 20.65292739868164 12.135716438293457 20.753408432006836 11.901139259338379 C20.779430389404297 11.83788776397705 20.794498443603516 11.767167091369629 20.794498443603516 11.688974380493164 C20.794498443603516 11.439581871032715 20.656665802001953 11.253564834594727 20.470521926879883 11.175372123718262 C20.347755432128906 11.141754150390625 20.165348052978516 11.067421913146973 19.852828979492188 11.067421913146973 L18.88128089904785 11.067421913146973 L18.88128089904785 11.190189361572266 L19.071157455444336 11.190189361572266 C19.071157455444336 11.190189361572266 19.27933692932129 11.223681449890137 19.2831974029541 11.443316459655762 L19.2831974029541 13.05472183227539 C19.2831974029541 13.356285095214844 19.175247192382812 13.493867874145508 19.04874610900879 13.493867874145508 L18.907176971435547 13.493867874145508 L18.89958381652832 13.60555362701416 L20.038599014282227 13.60555362701416 L20.04220962524414 13.512420654296875 L19.85980224609375 13.493867874145508 C19.85980224609375 13.493867874145508 19.6513729095459 13.453028678894043 19.6513729095459 13.03604507446289 L19.6513729095459 11.190313339233398 L19.651870727539062 11.190313339233398 L19.651870727539062 11.190313339233398 M22.316879272460938 13.071904182434082 C22.316879272460938 13.36624526977539 22.207931518554688 13.482538223266602 22.080806732177734 13.48975944519043 L21.95368194580078 13.48975944519043 L21.95368194580078 13.606051445007324 L23.047500610351562 13.606051445007324 L23.047500610351562 13.48975944519043 L22.923988342285156 13.486148834228516 C22.873186111450195 13.486148834228516 22.69849967956543 13.431612968444824 22.684181213378906 13.071904182434082 L22.687541961669922 11.182095527648926 L23.058456420898438 11.182095527648926 C23.06580352783203 11.182095527648926 23.240116119384766 11.182095527648926 23.407207489013672 11.29838752746582 C23.54167938232422 11.418291091918945 23.53433609008789 11.50918197631836 23.552635192871094 11.567328453063965 C23.559982299804688 11.58189582824707 23.64726448059082 11.574674606323242 23.64726448059082 11.574674606323242 L23.57455062866211 10.942290306091309 L23.48727035522461 10.949511528015137 C23.472702026367188 10.949511528015137 23.498226165771484 11.065803527832031 23.30561065673828 11.065803527832031 L21.6884765625 11.065803527832031 C21.506816864013672 11.065803527832031 21.47768211364746 11.065803527832031 21.45215606689453 10.960468292236328 L21.35055923461914 10.95312213897705 L21.25966453552246 11.58189582824707 L21.354293823242188 11.58189582824707 C21.405092239379883 11.42924690246582 21.470584869384766 11.309345245361328 21.561477661132812 11.240242004394531 C21.674034118652344 11.182095527648926 21.82680892944336 11.182095527648926 22.07022476196289 11.182095527648926 L22.317251205444336 11.182095527648926 L22.317251205444336 13.071904182434082 L22.316879272460938 13.071904182434082 L22.316879272460938 13.071904182434082 M13.548901557922363 13.500093460083008 C13.420283317565918 13.485401153564453 13.368985176086426 13.283197402954102 13.368985176086426 13.283197402954102 L13.288053512573242 12.327959060668945 L13.251323699951172 11.879724502563477 L13.2182035446167 11.490257263183594 C13.200024604797363 11.243976593017578 13.2182035446167 11.165037155151367 13.442445755004883 11.165037155151367 L13.44979190826416 11.062068939208984 L12.733362197875977 11.065803527832031 L12.810434341430664 11.172384262084961 L12.498163223266602 11.879724502563477 L12.005727767944336 13.000311851501465 L11.726576805114746 12.327959060668945 L11.542800903320312 11.879724502563477 L11.212102890014648 11.065803527832031 L10.554441452026367 11.065803527832031 L10.550830841064453 11.163169860839844 C10.686671257019043 11.163169860839844 10.778684616088867 11.170516967773438 10.804333686828613 11.192554473876953 C10.866836547851562 11.26601505279541 10.855755805969238 11.391022682189941 10.855755805969238 11.391022682189941 L10.763991355895996 12.327834129333496 L10.672103881835938 13.272116661071777 C10.642719268798828 13.437464714050293 10.52144718170166 13.496232986450195 10.422212600708008 13.496232986450195 L10.36394214630127 13.494490623474121 C10.219261169433594 13.483657836914062 10.121770858764648 13.418540000915527 10.049429893493652 13.281081199645996 L9.68411922454834 12.348130226135254 L9.101911544799805 10.87281322479248 C9.09468936920166 10.854635238647461 9.011517524719238 10.952374458312988 8.950010299682617 10.992093086242676 C8.895723342895508 11.028326034545898 8.72950267791748 11.096931457519531 8.72950267791748 11.096931457519531 C8.70783805847168 11.075265884399414 8.769221305847168 11.20176887512207 8.776442527770996 11.245222091674805 L7.988047122955322 13.281081199645996 C7.988047122955322 13.281081199645996 7.883209705352783 13.494490623474121 7.756708145141602 13.49087905883789 L7.586751937866211 13.49087905883789 L7.586751937866211 13.606673240661621 L8.501524925231934 13.606673240661621 L8.501524925231934 13.49087905883789 L8.295461654663086 13.49087905883789 C8.129117012023926 13.49087905883789 8.172571182250977 13.310091972351074 8.179792404174805 13.281081199645996 L8.454710006713867 12.546972274780273 L9.29353141784668 12.546972274780273 L9.59011459350586 13.259415626525879 C9.593725204467773 13.273859024047852 9.640665054321289 13.487144470214844 9.394883155822754 13.490755081176758 L9.24298095703125 13.490755081176758 L9.24298095703125 13.606549263000488 L11.168149948120117 13.606424331665039 L11.168149948120117 13.499969482421875 L10.977028846740723 13.499969482421875 C10.892486572265625 13.499969482421875 10.83732795715332 13.426383972167969 10.852144241333008 13.26103401184082 L11.010148048400879 11.59310245513916 L11.135030746459961 11.879724502563477 L11.326028823852539 12.327959060668945 L11.880844116210938 13.606673240661621 C11.880844116210938 13.606673240661621 12.218888282775879 12.908548355102539 12.498163223266602 12.327959060668945 C12.577227592468262 12.163606643676758 12.652556419372559 12.004607200622559 12.714811325073242 11.879724502563477 A7.2922868728637695 7.2922868728637695 0.0 0 0 12.869202613830566 11.552762031555176 L12.891366004943848 11.879724502563477 L12.916889190673828 12.327959060668945 L12.97939395904541 13.283197402954102 C12.97939395904541 13.283197402954102 12.990599632263184 13.5110502243042 12.70024299621582 13.5110502243042 L12.615575790405273 13.5110502243042 L12.615575790405273 13.606673240661621 L13.688477516174316 13.606673240661621 L13.688477516174316 13.50519847869873 L13.548901557922363 13.500093460083008 L13.548901557922363 13.500093460083008 M8.520824432373047 12.347631454467773 L8.863225936889648 11.469588279724121 L9.183340072631836 12.347631454467773 L8.520824432373047 12.347631454467773 L8.520824432373047 12.347631454467773" fill="black" fill-opacity="1.0" filling="0"/></svg>