<?xml version="1.0" encoding="iso-8859-1"?><svg height="200px" viewBox="0.0 0.0 24.0 24.0" width="200px" xmlns="http://www.w3.org/2000/svg"><path animation_id="0" d="M0.0 0.0 L24.0 0.0 L24.0 24.0 L0.0 24.0 L0.0 0.0" fill="black" fill-opacity="1.0" filling="0"/>
<path animation_id="1" d="M9.006412506103516 10.77619457244873 L7.830666542053223 10.77619457244873 L8.430554389953613 9.528481483459473 L9.006412506103516 10.77619457244873 M6.402913570404053 11.904003143310547 L7.278715133666992 11.904003143310547 L7.56670618057251 11.316068649291992 L9.270373344421387 11.316068649291992 L9.54641056060791 11.904003143310547 L10.494178771972656 11.904003143310547 L8.970428466796875 8.964576721191406 L7.9506940841674805 8.964576721191406 L6.402913570404053 11.904003143310547 M10.878167152404785 8.964576721191406 L11.730062484741211 8.964576721191406 L11.730062484741211 11.904003143310547 L10.878167152404785 11.904003143310547 L10.878167152404785 8.964576721191406 M12.378011703491211 8.964576721191406 L13.229907035827637 8.964576721191406 L13.229907035827637 11.904003143310547 L12.378011703491211 11.904003143310547 L12.378011703491211 8.964576721191406 M13.937746047973633 8.964576721191406 L15.245347023010254 8.964576721191406 L16.10944366455078 11.148229598999023 L17.02110481262207 8.964576721191406 L18.292972564697266 8.964576721191406 L18.292972564697266 11.904003143310547 L17.489011764526367 11.904003143310547 L17.489011764526367 9.504451751708984 L16.517213821411133 11.904003143310547 L15.641287803649902 11.904003143310547 L14.669488906860352 9.504451751708984 L14.657660484313965 9.504451751708984 L14.657660484313965 11.904003143310547 L13.937746047973633 11.904003143310547 L13.937746047973633 8.964576721191406 L13.937746047973633 8.964576721191406 M10.542240142822266 12.227977752685547 L10.842184066772461 12.227977752685547 L10.734233856201172 13.319927215576172 L10.434289932250977 13.319927215576172 L10.542240142822266 12.227977752685547 M11.070161819458008 12.707962989807129 C11.070161819458008 12.659777641296387 11.082239151000977 12.61196517944336 11.082239151000977 12.5640287399292 L11.346199035644531 12.5640287399292 C11.346199035644531 12.60001277923584 11.346199035644531 12.64794921875 11.334121704101562 12.69588565826416 L11.346199035644531 12.69588565826416 C11.430119514465332 12.587935447692871 11.538193702697754 12.528046607971191 11.670173645019531 12.528046607971191 C11.922057151794434 12.528046607971191 12.006101608276367 12.683932304382324 11.994148254394531 12.888004302978516 L11.946211814880371 13.319927215576172 L11.67029857635498 13.319927215576172 L11.706281661987305 12.92398738861084 C11.718234062194824 12.803834915161133 11.6822509765625 12.719916343688965 11.550271034240723 12.719916343688965 C11.44232177734375 12.719916343688965 11.334370613098145 12.815912246704102 11.322293281555176 12.98375129699707 L11.286311149597168 13.319803237915039 L11.010396957397461 13.319803237915039 L11.070161819458008 12.707962989807129 L11.070161819458008 12.707962989807129 M12.198095321655273 12.5640287399292 L12.378011703491211 12.5640287399292 L12.389965057373047 12.407894134521484 L12.677830696105957 12.299944877624512 L12.653800964355469 12.5640287399292 L12.881902694702148 12.5640287399292 L12.869949340820312 12.743945121765137 L12.641847610473633 12.743945121765137 L12.617816925048828 12.98375129699707 C12.605865478515625 13.091702461242676 12.605865478515625 13.139886856079102 12.713814735412598 13.139886856079102 C12.749797821044922 13.139886856079102 12.785781860351562 13.139886856079102 12.833966255187988 13.127684593200684 L12.8099365234375 13.319803237915039 C12.785905838012695 13.319803237915039 12.71393871307373 13.331756591796875 12.617816925048828 13.331756591796875 C12.413995742797852 13.331756591796875 12.306044578552246 13.24783706665039 12.329951286315918 13.067920684814453 L12.365934371948242 12.743945121765137 L12.186017990112305 12.743945121765137 L12.198095321655273 12.5640287399292 M13.289671897888184 12.852020263671875 C13.313702583312988 12.767851829528809 13.361639022827148 12.683932304382324 13.481790542602539 12.683932304382324 C13.577788352966309 12.683932304382324 13.649629592895508 12.731867790222168 13.649629592895508 12.852020263671875 L13.289671897888184 12.852020263671875 M13.925667762756348 13.007906913757324 C13.949698448181152 12.708087921142578 13.853700637817383 12.528046607971191 13.493743896484375 12.528046607971191 C13.25368881225586 12.528046607971191 13.025835990905762 12.65990161895752 12.989852905273438 12.947768211364746 C12.965822219848633 13.24783706665039 13.169769287109375 13.343708992004395 13.42177677154541 13.343708992004395 C13.613646507263184 13.343708992004395 13.817717552185059 13.331756591796875 13.901762008666992 13.091826438903809 L13.601693153381348 13.091826438903809 C13.589740753173828 13.140010833740234 13.553757667541504 13.187823295593262 13.433605194091797 13.187823295593262 C13.325655937194824 13.187823295593262 13.265766143798828 13.127809524536133 13.265766143798828 13.007906913757324 L13.925667762756348 13.007906913757324 L13.925667762756348 13.007906913757324 M14.17755126953125 12.719916343688965 L14.17755126953125 12.5640287399292 L14.45358943939209 12.5640287399292 C14.45358943939209 12.61196517944336 14.441636085510254 12.671979904174805 14.441636085510254 12.719916343688965 C14.525556564331055 12.575982093811035 14.597522735595703 12.551827430725098 14.77743911743164 12.551827430725098 L14.753408432006836 12.791881561279297 L14.681442260742188 12.791881561279297 C14.537508964538574 12.791881561279297 14.429558753967285 12.875802040100098 14.41760540008545 13.031936645507812 L14.381622314453125 13.319803237915039 L14.105585098266602 13.319803237915039 L14.17755126953125 12.719916343688965 M14.957479476928711 12.707962989807129 C14.969681739807129 12.659777641296387 14.969681739807129 12.61196517944336 14.969681739807129 12.5640287399292 L15.233518600463867 12.5640287399292 L15.233518600463867 12.69588565826416 C15.317438125610352 12.587935447692871 15.42538833618164 12.528046607971191 15.55749225616455 12.528046607971191 C15.821578025817871 12.528046607971191 15.893545150756836 12.683932304382324 15.88146686553955 12.888004302978516 L15.83353042602539 13.319927215576172 L15.55749225616455 13.319927215576172 L15.593475341796875 12.92398738861084 C15.61750602722168 12.803834915161133 15.569445610046387 12.719916343688965 15.449542999267578 12.719916343688965 C15.32964038848877 12.719916343688965 15.221689224243164 12.815912246704102 15.209487915039062 12.98375129699707 L15.173503875732422 13.319803237915039 L14.897466659545898 13.319803237915039 L14.957479476928711 12.707962989807129 L14.957479476928711 12.707962989807129 M16.709333419799805 12.98375129699707 C16.69713020324707 13.067920684814453 16.64931869506836 13.175869941711426 16.469276428222656 13.175869941711426 C16.385108947753906 13.175869941711426 16.349124908447266 13.151839256286621 16.349124908447266 13.103903770446777 C16.361328125 13.043889999389648 16.409137725830078 12.98375129699707 16.58917999267578 12.98375129699707 L16.709333419799805 12.98375129699707 M16.433292388916016 12.78005313873291 C16.433292388916016 12.731867790222168 16.469276428222656 12.684057235717773 16.577226638793945 12.684057235717773 C16.685176849365234 12.684057235717773 16.733112335205078 12.720040321350098 16.721160888671875 12.839942932128906 L16.51708984375 12.839942932128906 C16.253252029418945 12.839942932128906 16.08516502380371 12.924112319946289 16.061134338378906 13.104028701782227 C16.049182891845703 13.25991439819336 16.15713119506836 13.343833923339844 16.361202239990234 13.343833923339844 C16.48110580444336 13.343833923339844 16.61308479309082 13.30785083770752 16.685176849365234 13.19990062713623 L16.69713020324707 13.19990062713623 C16.685176849365234 13.235883712768555 16.685176849365234 13.2958984375 16.685176849365234 13.320053100585938 L16.94901466369629 13.320053100585938 C16.94901466369629 13.260039329528809 16.96121597290039 13.19990062713623 16.96121597290039 13.15196418762207 L16.996950149536133 12.864097595214844 C17.020978927612305 12.600261688232422 16.865093231201172 12.528295516967773 16.58917999267578 12.528295516967773 C16.39731216430664 12.528295516967773 16.181411743164062 12.588059425354004 16.145427703857422 12.78017807006836 L16.433292388916016 12.78017807006836 L16.433292388916016 12.78005313873291 L16.433292388916016 12.78005313873291 M17.201021194458008 12.5640287399292 L17.369110107421875 12.5640287399292 L17.393138885498047 12.407894134521484 L17.681007385253906 12.299944877624512 L17.645023345947266 12.5640287399292 L17.884828567504883 12.5640287399292 L17.861047744750977 12.743945121765137 L17.632946014404297 12.743945121765137 L17.609163284301758 12.98375129699707 C17.596961975097656 13.091702461242676 17.596961975097656 13.139886856079102 17.717113494873047 13.139886856079102 C17.740894317626953 13.139886856079102 17.77712631225586 13.139886856079102 17.825063705444336 13.127684593200684 L17.80103302001953 13.319803237915039 C17.777252197265625 13.319803237915039 17.705036163330078 13.331756591796875 17.621116638183594 13.331756591796875 C17.405216217041016 13.331756591796875 17.309097290039062 13.24783706665039 17.32129669189453 13.067920684814453 L17.357280731201172 12.743945121765137 L17.177364349365234 12.743945121765137 L17.201021194458008 12.5640287399292 M18.08890151977539 12.5640287399292 L18.364938735961914 12.5640287399292 L18.292972564697266 13.319803237915039 L18.01693344116211 13.319803237915039 L18.08890151977539 12.5640287399292 L18.08890151977539 12.5640287399292 M18.388967514038086 12.443877220153809 L18.08890151977539 12.443877220153809 L18.112930297851562 12.227977752685547 L18.412750244140625 12.227977752685547 L18.388967514038086 12.443877220153809 M18.856876373291016 12.93593978881836 C18.86882972717285 12.78005313873291 18.97677993774414 12.69588565826416 19.1087589263916 12.69588565826416 C19.240739822387695 12.69588565826416 19.32465934753418 12.78005313873291 19.312829971313477 12.93593978881836 C19.288801193237305 13.091826438903809 19.180727005004883 13.175994873046875 19.06094741821289 13.175994873046875 C18.928842544555664 13.175869941711426 18.83284568786621 13.091702461242676 18.856876373291016 12.93593978881836 M18.556808471679688 12.93593978881836 C18.54485321044922 13.115856170654297 18.628774642944336 13.343708992004395 19.036792755126953 13.343708992004395 C19.444562911987305 13.343708992004395 19.588621139526367 13.115856170654297 19.600698471069336 12.93593978881836 C19.624479293823242 12.756023406982422 19.528730392456055 12.528170585632324 19.120712280273438 12.528170585632324 C18.71294403076172 12.528046607971191 18.58083724975586 12.755898475646973 18.556808471679688 12.93593978881836 M19.852706909179688 12.707962989807129 L19.852706909179688 12.5640287399292 L20.128742218017578 12.5640287399292 C20.116540908813477 12.60001277923584 20.116540908813477 12.64794921875 20.116540908813477 12.69588565826416 C20.20071029663086 12.587935447692871 20.320613861083984 12.528046607971191 20.440515518188477 12.528046607971191 C20.704601287841797 12.528046607971191 20.78852081298828 12.683932304382324 20.764739990234375 12.888004302978516 L20.716552734375 13.319927215576172 L20.45271873474121 13.319927215576172 L20.48870086669922 12.92398738861084 C20.500654220581055 12.803834915161133 20.45271873474121 12.719916343688965 20.332565307617188 12.719916343688965 C20.22461700439453 12.719916343688965 20.11666488647461 12.815912246704102 20.09276008605957 12.98375129699707 L20.056777954101562 13.319803237915039 L19.780738830566406 13.319803237915039 L19.852706909179688 12.707962989807129 L19.852706909179688 12.707962989807129 M21.592479705810547 12.98375129699707 C21.580278396606445 13.067920684814453 21.532466888427734 13.175869941711426 21.35242462158203 13.175869941711426 C21.280458450317383 13.175869941711426 21.23252296447754 13.151839256286621 21.244476318359375 13.103903770446777 C21.244476318359375 13.043889999389648 21.29241180419922 12.98375129699707 21.472328186035156 12.98375129699707 L21.592479705810547 12.98375129699707 L21.592479705810547 12.98375129699707 M21.316442489624023 12.78005313873291 C21.328393936157227 12.731867790222168 21.364377975463867 12.684057235717773 21.460372924804688 12.684057235717773 C21.56832504272461 12.684057235717773 21.616260528564453 12.720040321350098 21.60430908203125 12.839942932128906 L21.412437438964844 12.839942932128906 C21.136402130126953 12.839942932128906 20.96843719482422 12.924112319946289 20.944530487060547 13.104028701782227 C20.932329177856445 13.25991439819336 21.040401458740234 13.343833923339844 21.24435043334961 13.343833923339844 C21.376455307006836 13.343833923339844 21.496234893798828 13.30785083770752 21.580154418945312 13.19990062713623 C21.580154418945312 13.235883712768555 21.568201065063477 13.2958984375 21.568201065063477 13.320053100585938 L21.84423828125 13.320053100585938 C21.84423828125 13.260039329528809 21.84423828125 13.19990062713623 21.856189727783203 13.15196418762207 L21.88022232055664 12.864097595214844 C21.904003143310547 12.600261688232422 21.74811553955078 12.528295516967773 21.47220230102539 12.528295516967773 C21.28033447265625 12.528295516967773 21.064434051513672 12.588059425354004 21.02845001220703 12.78017807006836 L21.316442489624023 12.78017807006836 L21.316442489624023 12.78005313873291 L21.316442489624023 12.78005313873291 M22.228351593017578 12.227977752685547 L22.504140853881836 12.227977752685547 L22.384239196777344 13.319927215576172 L22.108200073242188 13.319927215576172 L22.228351593017578 12.227977752685547" fill="black" fill-opacity="1.0" filling="0"/>
<path animation_id="2" d="M5.695075988769531 8.964576721191406 L1.4357213973999023 8.964576721191406 L1.4357213973999023 13.319927215576172 L5.790947914123535 13.319927215576172 L5.790947914123535 8.964576721191406 L5.695075988769531 8.964576721191406 L5.695075988769531 8.964576721191406 M4.759260177612305 12.275914192199707 L5.587125778198242 12.275914192199707 L5.587125778198242 13.127809524536133 L4.759260177612305 13.127809524536133 L4.759260177612305 12.275914192199707 M5.587125778198242 12.084044456481934 L4.567266464233398 12.084044456481934 L4.567266464233398 13.127809524536133 L3.7153711318969727 13.127809524536133 L3.7153711318969727 11.244101524353027 L5.587001323699951 11.244101524353027 L5.587001323699951 12.084044456481934 L5.587125778198242 12.084044456481934 L5.587125778198242 12.084044456481934 M5.587125778198242 11.040154457092285 L3.5114240646362305 11.040154457092285 L3.5114240646362305 13.127684593200684 L2.7075891494750977 13.127684593200684 L2.7075891494750977 10.236319541931152 L5.587125778198242 10.236319541931152 L5.587125778198242 11.040154457092285 M5.587125778198242 10.04432487487793 L2.5155954360961914 10.04432487487793 L2.5155954360961914 13.127684593200684 L1.627716064453125 13.127684593200684 L1.627716064453125 9.168523788452148 L5.587001323699951 9.168523788452148 L5.587001323699951 10.04432487487793 L5.587125778198242 10.04432487487793 L5.587125778198242 10.04432487487793" fill="black" fill-opacity="1.0" filling="0"/>
<path animation_id="3" d="M2.047687530517578 14.351739883422852 L2.0236568450927734 14.351739883422852 C2.0117034912109375 14.303803443908691 2.0236568450927734 14.267571449279785 1.939737319946289 14.267571449279785 L1.7837257385253906 14.267571449279785 L1.7837257385253906 14.747556686401367 C1.7837257385253906 14.807570457458496 1.8197097778320312 14.819523811340332 1.8797235488891602 14.819523811340332 L1.8797235488891602 14.831476211547852 L1.5918569564819336 14.831476211547852 L1.5918569564819336 14.819523811340332 C1.6397933959960938 14.819523811340332 1.6878538131713867 14.807570457458496 1.6878538131713867 14.747556686401367 L1.6878538131713867 14.267571449279785 L1.5557498931884766 14.267571449279785 C1.459752082824707 14.267571449279785 1.459752082824707 14.291601181030273 1.4358463287353516 14.351739883422852 L1.4118156433105469 14.351739883422852 L1.4238929748535156 14.207807540893555 L1.4479236602783203 14.207807540893555 C1.4598770141601562 14.231588363647461 1.4839067459106445 14.231588363647461 1.5079374313354492 14.231588363647461 L1.9637680053710938 14.231588363647461 C1.999751091003418 14.231588363647461 2.0358591079711914 14.231588363647461 2.0358591079711914 14.207807540893555 L2.0598888397216797 14.207807540893555 L2.047687530517578 14.351739883422852 L2.047687530517578 14.351739883422852 M2.155636787414551 14.303803443908691 C2.155636787414551 14.255619049072266 2.1436843872070312 14.255619049072266 2.107701301574707 14.243790626525879 L2.107701301574707 14.231588363647461 C2.1436843872070312 14.219635963439941 2.191619873046875 14.195605278015137 2.20369815826416 14.195605278015137 C2.2156505584716797 14.1836519241333 2.2276039123535156 14.1836519241333 2.2276039123535156 14.1836519241333 C2.2396812438964844 14.1836519241333 2.2396812438964844 14.1836519241333 2.2396812438964844 14.195605278015137 L2.2396812438964844 14.51957893371582 C2.2516345977783203 14.507625579833984 2.311648368835449 14.44786262512207 2.395566940307617 14.44786262512207 C2.479611396789551 14.44786262512207 2.5275468826293945 14.495798110961914 2.5275468826293945 14.579717636108398 L2.5275468826293945 14.783788681030273 C2.5275468826293945 14.819772720336914 2.5515785217285156 14.819772720336914 2.575608253479004 14.819772720336914 L2.5995140075683594 14.819772720336914 L2.5995140075683594 14.83172607421875 L2.3836145401000977 14.83172607421875 L2.3836145401000977 14.819772720336914 L2.395566940307617 14.819772720336914 C2.4435033798217773 14.819772720336914 2.4435033798217773 14.807819366455078 2.4435033798217773 14.723774909973145 L2.4435033798217773 14.62790298461914 C2.4435033798217773 14.555686950683594 2.4435033798217773 14.495798110961914 2.347506523132324 14.495798110961914 C2.2994461059570312 14.495798110961914 2.263463020324707 14.531781196594238 2.239556312561035 14.543733596801758 L2.239556312561035 14.783788681030273 C2.239556312561035 14.819772720336914 2.263463020324707 14.819772720336914 2.2874937057495117 14.819772720336914 L2.3115234375 14.819772720336914 L2.3115234375 14.83172607421875 L2.0835466384887695 14.83172607421875 L2.0835466384887695 14.819772720336914 L2.107576370239258 14.819772720336914 C2.1316070556640625 14.819772720336914 2.155512809753418 14.819772720336914 2.155512809753418 14.783788681030273 L2.155512809753418 14.303803443908691 L2.155636787414551 14.303803443908691 L2.155636787414551 14.303803443908691 M2.7314939498901367 14.56764030456543 C2.743448257446289 14.507625579833984 2.791508674621582 14.47164249420166 2.8513975143432617 14.47164249420166 C2.911412239074707 14.47164249420166 2.935441017150879 14.507625579833984 2.935441017150879 14.555562973022461 C2.935441017150879 14.555562973022461 2.935441017150879 14.567764282226562 2.911412239074707 14.567764282226562 L2.7314939498901367 14.567764282226562 L2.7314939498901367 14.56764030456543 M3.0194854736328125 14.603623390197754 L3.0314388275146484 14.591670989990234 L3.0314388275146484 14.579468727111816 C3.0314388275146484 14.483595848083496 2.935441017150879 14.447612762451172 2.851522445678711 14.447612762451172 C2.779555320739746 14.447612762451172 2.6475753784179688 14.495548248291016 2.6475753784179688 14.663512229919434 C2.6475753784179688 14.711448669433594 2.683558464050293 14.855381965637207 2.839569091796875 14.855381965637207 C2.923489570617676 14.855381965637207 2.983626365661621 14.807446479797363 3.0315628051757812 14.747432708740234 L3.0196104049682617 14.735479354858398 C2.983626365661621 14.771462440490723 2.935689926147461 14.795244216918945 2.8756771087646484 14.795244216918945 C2.8037099838256836 14.795244216918945 2.743697166442871 14.735479354858398 2.731743812561035 14.651309967041016 L2.731743812561035 14.603374481201172 L3.0194854736328125 14.603374481201172 L3.0194854736328125 14.603623390197754 L3.0194854736328125 14.603623390197754 M3.559359550476074 14.507625579833984 L3.6913394927978516 14.507625579833984 C3.7752599716186523 14.507625579833984 3.7752599716186523 14.45969009399414 3.7752599716186523 14.435660362243652 L3.799290657043457 14.435660362243652 C3.799290657043457 14.45969009399414 3.787337303161621 14.495673179626465 3.787337303161621 14.531656265258789 C3.787337303161621 14.555438041687012 3.799290657043457 14.603623390197754 3.799290657043457 14.627654075622559 L3.7752599716186523 14.627654075622559 C3.7752599716186523 14.543485641479492 3.739276885986328 14.543485641479492 3.6673107147216797 14.543485641479492 L3.559359550476074 14.543485641479492 L3.559359550476074 14.687417984008789 C3.559359550476074 14.783415794372559 3.559359550476074 14.807570457458496 3.6673107147216797 14.807570457458496 L3.727323532104492 14.807570457458496 C3.8233213424682617 14.807570457458496 3.871257781982422 14.795368194580078 3.907240867614746 14.699620246887207 L3.9312705993652344 14.699620246887207 C3.9191932678222656 14.747556686401367 3.907240867614746 14.795493125915527 3.8952865600585938 14.831476211547852 L3.367365837097168 14.831476211547852 L3.367365837097168 14.819523811340332 C3.4514102935791016 14.819523811340332 3.4633636474609375 14.795493125915527 3.4633636474609375 14.711572647094727 L3.4633636474609375 14.33953857421875 C3.4633636474609375 14.267571449279785 3.439332962036133 14.267571449279785 3.367365837097168 14.255619049072266 L3.367365837097168 14.231588363647461 C3.427379608154297 14.243790626525879 3.4993467330932617 14.243790626525879 3.571436882019043 14.243790626525879 C3.6674346923828125 14.243790626525879 3.7634315490722656 14.243790626525879 3.859304428100586 14.231588363647461 L3.859304428100586 14.363693237304688 L3.8352737426757812 14.363693237304688 C3.8233213424682617 14.291726112365723 3.7752599716186523 14.267696380615234 3.6793880462646484 14.267696380615234 L3.559359550476074 14.267696380615234 L3.559359550476074 14.507625579833984 L3.559359550476074 14.507625579833984 M4.0393452644348145 14.555438041687012 C4.0393452644348145 14.531656265258789 4.027392387390137 14.519454956054688 3.9793310165405273 14.507501602172852 L3.9793310165405273 14.483719825744629 C4.015439510345459 14.471518516540527 4.06325101852417 14.45969009399414 4.111311912536621 14.447737693786621 L4.111311912536621 14.507501602172852 C4.171325206756592 14.471518516540527 4.21926212310791 14.447737693786621 4.291228294372559 14.447737693786621 C4.375272274017334 14.447737693786621 4.411255836486816 14.495673179626465 4.411255836486816 14.56764030456543 L4.411255836486816 14.783540725708008 C4.411255836486816 14.819523811340332 4.435286521911621 14.819523811340332 4.459316253662109 14.819523811340332 L4.471269607543945 14.819523811340332 L4.471269607543945 14.831476211547852 L4.255244731903076 14.831476211547852 L4.255244731903076 14.819523811340332 L4.279275417327881 14.819523811340332 C4.3033061027526855 14.819523811340332 4.327211856842041 14.819523811340332 4.327211856842041 14.783540725708008 L4.327211856842041 14.56764030456543 C4.327211856842041 14.519454956054688 4.291228294372559 14.495673179626465 4.231215000152588 14.495673179626465 C4.1952314376831055 14.495673179626465 4.147170543670654 14.507625579833984 4.11118745803833 14.531656265258789 L4.11118745803833 14.783540725708008 C4.11118745803833 14.819523811340332 4.135218143463135 14.819523811340332 4.171200752258301 14.819523811340332 L4.183154106140137 14.819523811340332 L4.183154106140137 14.831476211547852 L3.9672536849975586 14.831476211547852 L3.9672536849975586 14.819523811340332 L3.9792070388793945 14.819523811340332 C4.015315055847168 14.819523811340332 4.039220809936523 14.819523811340332 4.039220809936523 14.783540725708008 L4.039220809936523 14.555438041687012 L4.0393452644348145 14.555438041687012 L4.0393452644348145 14.555438041687012 M4.663263320922852 14.73572826385498 C4.663263320922852 14.78366470336914 4.699246883392334 14.807695388793945 4.723277568817139 14.807695388793945 C4.747307300567627 14.807695388793945 4.771213531494141 14.795493125915527 4.795243740081787 14.78366470336914 L4.807197093963623 14.795618057250977 C4.771213531494141 14.819647789001465 4.735229969024658 14.855631828308105 4.675216197967529 14.855631828308105 C4.615202903747559 14.855631828308105 4.579219341278076 14.819647789001465 4.579219341278076 14.771711349487305 L4.579219341278076 14.507625579833984 L4.5192060470581055 14.507625579833984 L4.5192060470581055 14.495673179626465 C4.567142009735107 14.45969009399414 4.603250026702881 14.435660362243652 4.651185989379883 14.363569259643555 L4.6631388664245605 14.363569259643555 L4.6631388664245605 14.459566116333008 L4.807072639465332 14.459566116333008 L4.807072639465332 14.507501602172852 L4.6631388664245605 14.507501602172852 L4.6631388664245605 14.73572826385498 L4.663263320922852 14.73572826385498 L4.663263320922852 14.73572826385498 M4.9391770362854 14.56764030456543 C4.951129913330078 14.507625579833984 4.999190807342529 14.47164249420166 5.059204578399658 14.47164249420166 C5.119093418121338 14.47164249420166 5.143124103546143 14.507625579833984 5.143124103546143 14.555562973022461 C5.143124103546143 14.555562973022461 5.143124103546143 14.567764282226562 5.119093418121338 14.567764282226562 L4.9391770362854 14.567764282226562 L4.9391770362854 14.56764030456543 M5.227168083190918 14.603623390197754 L5.227168083190918 14.591670989990234 C5.239120960235596 14.591670989990234 5.239120960235596 14.579468727111816 5.239120960235596 14.579468727111816 C5.227168083190918 14.483595848083496 5.143124103546143 14.447612762451172 5.059204578399658 14.447612762451172 C4.9871134757995605 14.447612762451172 4.855257511138916 14.495548248291016 4.855257511138916 14.663512229919434 C4.855257511138916 14.711448669433594 4.891241073608398 14.855381965637207 5.047251224517822 14.855381965637207 C5.131170749664307 14.855381965637207 5.191184997558594 14.807446479797363 5.239245414733887 14.747432708740234 L5.227293014526367 14.735479354858398 C5.191309452056885 14.771462440490723 5.143248558044434 14.795244216918945 5.083359241485596 14.795244216918945 C5.011268615722656 14.795244216918945 4.939301490783691 14.735479354858398 4.939301490783691 14.651309967041016 L4.939301490783691 14.603374481201172 L5.227168083190918 14.603374481201172 L5.227168083190918 14.603623390197754 L5.227168083190918 14.603623390197754 M5.287057399749756 14.819523811340332 L5.311087608337402 14.819523811340332 C5.347071170806885 14.819523811340332 5.3590240478515625 14.819523811340332 5.3590240478515625 14.783540725708008 L5.3590240478515625 14.543485641479492 C5.3590240478515625 14.519454956054688 5.32304048538208 14.507501602172852 5.311087608337402 14.507501602172852 L5.311087608337402 14.495548248291016 C5.383054733276367 14.471518516540527 5.430990695953369 14.447612762451172 5.430990695953369 14.447612762451172 C5.443068027496338 14.447612762451172 5.443068027496338 14.447612762451172 5.443068027496338 14.459566116333008 L5.443068027496338 14.531532287597656 C5.467098712921143 14.495548248291016 5.5150346755981445 14.447612762451172 5.575048446655273 14.447612762451172 C5.599079132080078 14.447612762451172 5.635062217712402 14.459566116333008 5.635062217712402 14.495548248291016 C5.635062217712402 14.507501602172852 5.611031532287598 14.531532287597656 5.587001323699951 14.531532287597656 C5.551018238067627 14.531532287597656 5.551018238067627 14.507501602172852 5.5150346755981445 14.507501602172852 C5.503081798553467 14.507501602172852 5.443068027496338 14.531532287597656 5.443068027496338 14.579468727111816 L5.443068027496338 14.783540725708008 C5.443068027496338 14.819523811340332 5.467098712921143 14.819523811340332 5.491128921508789 14.819523811340332 L5.551018238067627 14.819523811340332 L5.551018238067627 14.831476211547852 L5.287057399749756 14.831476211547852 L5.287057399749756 14.819523811340332 M6.0910162925720215 14.663637161254883 C6.0910162925720215 14.735603332519531 6.031002998352051 14.819523811340332 5.935006141662598 14.819523811340332 C5.874992370605469 14.819523811340332 5.839008808135986 14.783540725708008 5.827055931091309 14.759510040283203 L5.827055931091309 14.531656265258789 C5.851086616516113 14.519454956054688 5.887070178985596 14.495673179626465 5.923052787780762 14.495673179626465 C6.031002998352051 14.495673179626465 6.0910162925720215 14.579593658447266 6.0910162925720215 14.663637161254883 M5.827055931091309 14.831476211547852 C5.851086616516113 14.84367847442627 5.887070178985596 14.85550594329834 5.923052787780762 14.85550594329834 C6.0550336837768555 14.85550594329834 6.174936771392822 14.747556686401367 6.174936771392822 14.627654075622559 C6.174936771392822 14.531656265258789 6.0910162925720215 14.447737693786621 5.9829421043396 14.447737693786621 C5.923052787780762 14.447737693786621 5.863039493560791 14.483719825744629 5.827055931091309 14.507501602172852 L5.827055931091309 14.447737693786621 C5.827055931091309 14.435535430908203 5.827055931091309 14.435535430908203 5.815103054046631 14.435535430908203 C5.815103054046631 14.435535430908203 5.815103054046631 14.447737693786621 5.803025722503662 14.447737693786621 C5.767042636871338 14.45969009399414 5.7310590744018555 14.471518516540527 5.6831231117248535 14.483719825744629 L5.6831231117248535 14.507501602172852 C5.719106197357178 14.519454956054688 5.743136405944824 14.507501602172852 5.743136405944824 14.579468727111816 L5.743136405944824 14.98748779296875 C5.743136405944824 14.99944019317627 5.743136405944824 15.011268615722656 5.7071533203125 15.011268615722656 L5.671169757843018 15.011268615722656 L5.671169757843018 15.035298347473145 L5.923052787780762 15.035298347473145 L5.923052787780762 15.011268615722656 L5.874992370605469 15.011268615722656 C5.851086616516113 15.011268615722656 5.827055931091309 15.011268615722656 5.827055931091309 14.98748779296875 L5.827055931091309 14.831476211547852 L5.827055931091309 14.831476211547852 M6.222997188568115 14.819523811340332 L6.258980751037598 14.819523811340332 C6.282886028289795 14.819523811340332 6.3069167137146 14.819523811340332 6.3069167137146 14.783540725708008 L6.3069167137146 14.543485641479492 C6.3069167137146 14.519454956054688 6.258980751037598 14.507501602172852 6.246902942657471 14.507501602172852 L6.246902942657471 14.495548248291016 C6.318869590759277 14.471518516540527 6.3669304847717285 14.447612762451172 6.379007816314697 14.447612762451172 L6.379007816314697 14.531532287597656 C6.4149909019470215 14.495548248291016 6.450974464416504 14.447612762451172 6.510988235473633 14.447612762451172 C6.535018444061279 14.447612762451172 6.571002006530762 14.459566116333008 6.571002006530762 14.495548248291016 C6.571002006530762 14.507501602172852 6.559049129486084 14.531532287597656 6.523065567016602 14.531532287597656 C6.499034881591797 14.531532287597656 6.499034881591797 14.507501602172852 6.463051795959473 14.507501602172852 C6.439146041870117 14.507501602172852 6.379132270812988 14.531532287597656 6.379132270812988 14.579468727111816 L6.379132270812988 14.783540725708008 C6.379132270812988 14.819523811340332 6.403038024902344 14.819523811340332 6.427068710327148 14.819523811340332 L6.486957550048828 14.819523811340332 L6.486957550048828 14.831476211547852 L6.223121643066406 14.831476211547852 L6.223121643066406 14.819523811340332 L6.222997188568115 14.819523811340332 L6.222997188568115 14.819523811340332 M6.618937969207764 14.819523811340332 L6.642968654632568 14.819523811340332 C6.666998863220215 14.819523811340332 6.69090461730957 14.819523811340332 6.69090461730957 14.783540725708008 L6.69090461730957 14.555438041687012 C6.69090461730957 14.519454956054688 6.666998863220215 14.507501602172852 6.630890846252441 14.495673179626465 L6.630890846252441 14.483719825744629 A1.07327401638031 1.07327401638031 0.0 0 0 6.7389655113220215 14.447737693786621 L6.762871742248535 14.447737693786621 L6.762871742248535 14.78366470336914 C6.762871742248535 14.819647789001465 6.786901473999023 14.819647789001465 6.822885036468506 14.819647789001465 L6.834837913513184 14.819647789001465 L6.834837913513184 14.8316011428833 L6.618937969207764 14.8316011428833 L6.618937969207764 14.819523811340332 M6.726888179779053 14.315756797790527 C6.702981948852539 14.315756797790527 6.678951740264893 14.291726112365723 6.678951740264893 14.267571449279785 C6.678951740264893 14.243790626525879 6.702981948852539 14.231588363647461 6.726888179779053 14.231588363647461 C6.750918388366699 14.231588363647461 6.774948596954346 14.243790626525879 6.774948596954346 14.267571449279785 C6.774948596954346 14.291601181030273 6.750918388366699 14.315756797790527 6.726888179779053 14.315756797790527 M6.918881893157959 14.711572647094727 C6.930835247039795 14.771587371826172 6.978895664215088 14.819523811340332 7.050862789154053 14.819523811340332 C7.110876083374023 14.819523811340332 7.134906768798828 14.795493125915527 7.134906768798828 14.759510040283203 C7.134906768798828 14.663637161254883 6.906929016113281 14.687542915344238 6.906929016113281 14.555438041687012 C6.906929016113281 14.507501602172852 6.954989910125732 14.447737693786621 7.0629401206970215 14.447737693786621 C7.098923206329346 14.447737693786621 7.146984100341797 14.447737693786621 7.182967185974121 14.471518516540527 L7.194920063018799 14.555438041687012 L7.170889377593994 14.555438041687012 C7.158936977386475 14.507501602172852 7.122953414916992 14.471518516540527 7.050862789154053 14.471518516540527 C7.01487922668457 14.471518516540527 6.978895664215088 14.495548248291016 6.978895664215088 14.531532287597656 C6.978895664215088 14.62752914428711 7.206872940063477 14.603499412536621 7.206872940063477 14.735603332519531 C7.206872940063477 14.795368194580078 7.158936977386475 14.85550594329834 7.038909435272217 14.85550594329834 C6.990972995758057 14.85550594329834 6.942912578582764 14.843554496765137 6.906929016113281 14.819523811340332 L6.906929016113281 14.723526000976562 L6.918881893157959 14.711572647094727 L6.918881893157959 14.711572647094727 M7.362759113311768 14.56764030456543 C7.374711990356445 14.507625579833984 7.422773361206055 14.47164249420166 7.482662200927734 14.47164249420166 A0.08217643201351166 0.08217643201351166 0.0 0 1 7.56670618057251 14.555562973022461 C7.56670618057251 14.555562973022461 7.56670618057251 14.567764282226562 7.542675495147705 14.567764282226562 L7.362759113311768 14.567764282226562 L7.362759113311768 14.56764030456543 M7.650750160217285 14.603623390197754 L7.650750160217285 14.579468727111816 C7.650750160217285 14.483595848083496 7.566830635070801 14.447612762451172 7.482786655426025 14.447612762451172 C7.410820007324219 14.447612762451172 7.278839588165283 14.495548248291016 7.278839588165283 14.663512229919434 C7.278839588165283 14.711448669433594 7.314823150634766 14.855381965637207 7.470833778381348 14.855381965637207 C7.554753303527832 14.855381965637207 7.614767074584961 14.807446479797363 7.662827491760254 14.747432708740234 L7.650875091552734 14.735479354858398 C7.602938652038574 14.771462440490723 7.566955089569092 14.795244216918945 7.506941318511963 14.795244216918945 C7.4230217933654785 14.795244216918945 7.363008499145508 14.735479354858398 7.363008499145508 14.651309967041016 L7.363008499145508 14.603374481201172 L7.650750160217285 14.603374481201172 L7.650750160217285 14.603623390197754 L7.650750160217285 14.603623390197754 M8.64657974243164 14.387723922729492 L8.622673034667969 14.387723922729492 C8.610595703125 14.291726112365723 8.526676177978516 14.255619049072266 8.406648635864258 14.255619049072266 C8.286622047424316 14.255619049072266 8.118658065795898 14.315631866455078 8.118658065795898 14.519454956054688 C8.118658065795898 14.699620246887207 8.262715339660645 14.819523811340332 8.418601989746094 14.819523811340332 C8.526552200317383 14.819523811340332 8.610595703125 14.759510040283203 8.622673034667969 14.675589561462402 L8.64657974243164 14.675589561462402 L8.622673034667969 14.807695388793945 C8.586565017700195 14.831476211547852 8.466662406921387 14.855631828308105 8.406648635864258 14.855631828308105 C8.166719436645508 14.855631828308105 8.01070785522461 14.723526000976562 8.01070785522461 14.531656265258789 C8.01070785522461 14.351739883422852 8.202701568603516 14.219635963439941 8.394571304321289 14.219635963439941 C8.478615760803223 14.219635963439941 8.56253433227539 14.24366569519043 8.634501457214355 14.267571449279785 L8.64657974243164 14.387723922729492 M8.814542770385742 14.639607429504395 C8.814542770385742 14.56764030456543 8.850526809692383 14.471518516540527 8.958476066589355 14.471518516540527 C9.066551208496094 14.471518516540527 9.102534294128418 14.579468727111816 9.102534294128418 14.651434898376465 C9.102534294128418 14.72340202331543 9.066551208496094 14.831351280212402 8.970428466796875 14.831351280212402 C8.862479209899902 14.831476211547852 8.814542770385742 14.711572647094727 8.814542770385742 14.639607429504395 L8.814542770385742 14.639607429504395 M8.718545913696289 14.651559829711914 C8.718545913696289 14.771711349487305 8.838573455810547 14.855631828308105 8.970428466796875 14.855631828308105 C9.102534294128418 14.855631828308105 9.198406219482422 14.759634017944336 9.198406219482422 14.639731407165527 C9.198406219482422 14.51957893371582 9.09045696258545 14.44786262512207 8.958476066589355 14.44786262512207 C8.814542770385742 14.447737693786621 8.718545913696289 14.543609619140625 8.718545913696289 14.651559829711914 L8.718545913696289 14.651559829711914 M9.330512046813965 14.555438041687012 C9.330512046813965 14.531656265258789 9.318558692932129 14.519454956054688 9.270498275756836 14.507501602172852 L9.270498275756836 14.483719825744629 C9.318558692932129 14.471518516540527 9.354541778564453 14.45969009399414 9.402477264404297 14.447737693786621 L9.414430618286133 14.447737693786621 L9.414430618286133 14.507501602172852 C9.462491989135742 14.471518516540527 9.522505760192871 14.447737693786621 9.58239459991455 14.447737693786621 C9.666439056396484 14.447737693786621 9.702422142028809 14.495673179626465 9.702422142028809 14.56764030456543 L9.702422142028809 14.783540725708008 C9.702422142028809 14.819523811340332 9.726451873779297 14.819523811340332 9.750357627868652 14.819523811340332 L9.774388313293457 14.819523811340332 L9.774388313293457 14.831476211547852 L9.558488845825195 14.831476211547852 L9.558488845825195 14.819523811340332 L9.570441246032715 14.819523811340332 C9.606424331665039 14.819523811340332 9.618377685546875 14.819523811340332 9.618377685546875 14.783540725708008 L9.618377685546875 14.56764030456543 C9.618377685546875 14.519454956054688 9.58239459991455 14.495673179626465 9.522380828857422 14.495673179626465 C9.498351097106934 14.495673179626465 9.438337326049805 14.507625579833984 9.414306640625 14.531656265258789 L9.414306640625 14.783540725708008 C9.414306640625 14.819523811340332 9.426383972167969 14.819523811340332 9.462367057800293 14.819523811340332 L9.474320411682129 14.819523811340332 L9.474320411682129 14.831476211547852 L9.25841999053955 14.831476211547852 L9.25841999053955 14.819523811340332 L9.282450675964355 14.819523811340332 C9.306356430053711 14.819523811340332 9.3303861618042 14.819523811340332 9.3303861618042 14.783540725708008 L9.3303861618042 14.555438041687012 L9.330512046813965 14.555438041687012 L9.330512046813965 14.555438041687012 M9.954429626464844 14.73572826385498 C9.954429626464844 14.78366470336914 9.990412712097168 14.807695388793945 10.014318466186523 14.807695388793945 C10.050302505493164 14.807695388793945 10.062255859375 14.795493125915527 10.086285591125488 14.78366470336914 L10.110315322875977 14.795618057250977 C10.07420825958252 14.819647789001465 10.02627182006836 14.855631828308105 9.966382026672363 14.855631828308105 C9.90636920928955 14.855631828308105 9.870386123657227 14.819647789001465 9.870386123657227 14.771711349487305 L9.870386123657227 14.507625579833984 L9.810371398925781 14.507625579833984 L9.810371398925781 14.495673179626465 C9.858308792114258 14.45969009399414 9.894291877746582 14.435660362243652 9.942352294921875 14.363569259643555 L9.954429626464844 14.363569259643555 L9.954429626464844 14.459566116333008 L10.110315322875977 14.459566116333008 L10.110315322875977 14.507501602172852 L9.954429626464844 14.507501602172852 L9.954429626464844 14.73572826385498 L9.954429626464844 14.73572826385498 M10.230342864990234 14.603623390197754 L10.230342864990234 14.651559829711914 C10.24242115020752 14.73572826385498 10.302309036254883 14.795493125915527 10.386353492736816 14.795493125915527 C10.434289932250977 14.795493125915527 10.482351303100586 14.771711349487305 10.518333435058594 14.73572826385498 L10.530411720275879 14.7476806640625 C10.482351303100586 14.807695388793945 10.42246150970459 14.855631828308105 10.350494384765625 14.855631828308105 C10.182531356811523 14.855631828308105 10.146547317504883 14.711697578430176 10.146547317504883 14.663762092590332 C10.146547317504883 14.495673179626465 10.290481567382812 14.44786262512207 10.350494384765625 14.44786262512207 C10.434414863586426 14.44786262512207 10.530411720275879 14.483845710754395 10.530411720275879 14.579717636108398 L10.530411720275879 14.5919189453125 L10.518333435058594 14.603872299194336 L10.230342864990234 14.603872299194336 L10.230342864990234 14.603623390197754 L10.230342864990234 14.603623390197754 M10.410260200500488 14.56764030456543 A0.05229409039020538 0.05229409039020538 0.0 0 0 10.446243286132812 14.555438041687012 C10.446243286132812 14.507501602172852 10.410260200500488 14.471518516540527 10.350245475769043 14.471518516540527 C10.29023265838623 14.471518516540527 10.24229621887207 14.507501602172852 10.230218887329102 14.56751537322998 L10.410260200500488 14.56751537322998 L10.410260200500488 14.56764030456543 M10.650190353393555 14.555438041687012 C10.650190353393555 14.531656265258789 10.638236999511719 14.519454956054688 10.590300559997559 14.507501602172852 L10.590300559997559 14.483719825744629 C10.638236999511719 14.471518516540527 10.67422103881836 14.45969009399414 10.722280502319336 14.447737693786621 L10.734233856201172 14.447737693786621 L10.734233856201172 14.507501602172852 C10.7942476272583 14.471518516540527 10.842184066772461 14.447737693786621 10.91415023803711 14.447737693786621 C10.998194694519043 14.447737693786621 11.022225379943848 14.495673179626465 11.022225379943848 14.56764030456543 L11.022225379943848 14.783540725708008 C11.022225379943848 14.819523811340332 11.046131134033203 14.819523811340332 11.082114219665527 14.819523811340332 L11.094066619873047 14.819523811340332 L11.094066619873047 14.831476211547852 L10.878167152404785 14.831476211547852 L10.878167152404785 14.819523811340332 L10.890119552612305 14.819523811340332 C10.926103591918945 14.819523811340332 10.938180923461914 14.819523811340332 10.938180923461914 14.783540725708008 L10.938180923461914 14.56764030456543 C10.938180923461914 14.519454956054688 10.91415023803711 14.495673179626465 10.854137420654297 14.495673179626465 C10.818153381347656 14.495673179626465 10.770217895507812 14.507625579833984 10.734233856201172 14.531656265258789 L10.734233856201172 14.783540725708008 C10.734233856201172 14.819523811340332 10.758264541625977 14.819523811340332 10.782170295715332 14.819523811340332 L10.806200981140137 14.819523811340332 L10.806200981140137 14.831476211547852 L10.590300559997559 14.831476211547852 L10.590300559997559 14.819523811340332 L10.602253913879395 14.819523811340332 C10.62615966796875 14.819523811340332 10.650190353393555 14.819523811340332 10.650190353393555 14.783540725708008 L10.650190353393555 14.555438041687012 L10.650190353393555 14.555438041687012 M11.274107933044434 14.73572826385498 C11.274107933044434 14.78366470336914 11.310215950012207 14.807695388793945 11.346199035644531 14.807695388793945 C11.370105743408203 14.807695388793945 11.394135475158691 14.795493125915527 11.418166160583496 14.78366470336914 L11.430119514465332 14.795618057250977 C11.394135475158691 14.819647789001465 11.346199035644531 14.855631828308105 11.298138618469238 14.855631828308105 C11.22617244720459 14.855631828308105 11.202141761779785 14.819647789001465 11.202141761779785 14.771711349487305 L11.202141761779785 14.507625579833984 L11.130050659179688 14.507625579833984 L11.130050659179688 14.495673179626465 C11.17811107635498 14.45969009399414 11.214095115661621 14.435660362243652 11.262030601501465 14.363569259643555 L11.2739839553833 14.363569259643555 L11.2739839553833 14.459566116333008 L11.429994583129883 14.459566116333008 L11.429994583129883 14.507501602172852 L11.2739839553833 14.507501602172852 L11.2739839553833 14.73572826385498 L11.274107933044434 14.73572826385498 M12.221877098083496 14.723526000976562 C12.31787395477295 14.555438041687012 12.413995742797852 14.399552345275879 12.49791431427002 14.231588363647461 C12.521944999694824 14.243790626525879 12.557928085327148 14.243790626525879 12.58183479309082 14.243790626525879 C12.605865478515625 14.243790626525879 12.641847610473633 14.231588363647461 12.66600227355957 14.231588363647461 L12.66600227355957 14.255619049072266 C12.641971588134766 14.255619049072266 12.617816925048828 14.255619049072266 12.594036102294922 14.267571449279785 C12.58183479309082 14.279773712158203 12.58183479309082 14.291601181030273 12.58183479309082 14.315756797790527 C12.58183479309082 14.45969009399414 12.594036102294922 14.603623390197754 12.594036102294922 14.73572826385498 C12.594036102294922 14.795493125915527 12.605989456176758 14.819647789001465 12.701986312866211 14.819647789001465 L12.701986312866211 14.8316011428833 L12.389965057373047 14.8316011428833 L12.389965057373047 14.819647789001465 C12.425948143005371 14.819647789001465 12.44997787475586 14.819647789001465 12.461931228637695 14.807695388793945 C12.4859619140625 14.795493125915527 12.49791431427002 14.78366470336914 12.49791431427002 14.7476806640625 L12.4859619140625 14.339662551879883 L12.245906829833984 14.759634017944336 C12.233954429626465 14.78366470336914 12.20992374420166 14.819647789001465 12.20992374420166 14.843803405761719 L12.185893058776855 14.843803405761719 C12.101973533630371 14.675714492797852 12.005976676940918 14.51957893371582 11.898026466369629 14.3518648147583 L11.898026466369629 14.723650932312012 C11.898026466369629 14.759634017944336 11.898026466369629 14.78366470336914 11.909979820251465 14.795618057250977 C11.934009552001953 14.807819366455078 11.957916259765625 14.819647789001465 11.99389934539795 14.819647789001465 L11.99389934539795 14.8316011428833 L11.730062484741211 14.8316011428833 L11.730062484741211 14.819647789001465 C11.802029609680176 14.819647789001465 11.84996509552002 14.795618057250977 11.84996509552002 14.687542915344238 C11.862043380737305 14.56764030456543 11.862043380737305 14.447737693786621 11.862043380737305 14.327585220336914 C11.862043380737305 14.303803443908691 11.862043380737305 14.279648780822754 11.84996509552002 14.267571449279785 C11.838013648986816 14.267571449279785 11.813982963562012 14.255619049072266 11.777999877929688 14.255619049072266 L11.777999877929688 14.231588363647461 C11.813982963562012 14.243790626525879 11.84996509552002 14.243790626525879 11.886073112487793 14.243790626525879 C11.909979820251465 14.243790626525879 11.934009552001953 14.231588363647461 11.945962905883789 14.231588363647461 L12.221877098083496 14.723526000976562 L12.221877098083496 14.723526000976562 M13.025835990905762 14.759510040283203 C12.989852905273438 14.783540725708008 12.965822219848633 14.807695388793945 12.917885780334473 14.807695388793945 C12.869949340820312 14.807695388793945 12.845918655395508 14.78366470336914 12.845918655395508 14.7476806640625 C12.845918655395508 14.687666893005371 12.97802448272705 14.663762092590332 13.025835990905762 14.651684761047363 L13.025835990905762 14.759510040283203 L13.025835990905762 14.759510040283203 M13.181722640991211 14.783540725708008 C13.169769287109375 14.795493125915527 13.157940864562988 14.807570457458496 13.14573860168457 14.807570457458496 C13.121957778930664 14.807570457458496 13.109755516052246 14.795368194580078 13.109755516052246 14.759385108947754 L13.109755516052246 14.519330024719238 C13.109755516052246 14.471393585205078 13.025835990905762 14.447612762451172 12.977899551391602 14.447612762451172 C12.941916465759277 14.447612762451172 12.92971420288086 14.459566116333008 12.893731117248535 14.471393585205078 C12.82176399230957 14.507377624511719 12.773828506469727 14.519330024719238 12.773828506469727 14.567391395568848 C12.773828506469727 14.579343795776367 12.773828506469727 14.591422080993652 12.797609329223633 14.591422080993652 C12.821640014648438 14.591422080993652 12.845794677734375 14.579219818115234 12.845794677734375 14.55518913269043 C12.845794677734375 14.50725269317627 12.8817777633667 14.495424270629883 12.92971420288086 14.495424270629883 C12.989728927612305 14.495424270629883 13.025711059570312 14.519206047058105 13.025711059570312 14.567391395568848 L13.025711059570312 14.615327835083008 C12.809812545776367 14.687294006347656 12.761626243591309 14.699495315551758 12.761626243591309 14.771462440490723 C12.761626243591309 14.807446479797363 12.809812545776367 14.855381965637207 12.86982536315918 14.855381965637207 C12.929590225219727 14.855381965637207 12.977775573730469 14.819398880004883 13.025711059570312 14.783415794372559 C13.025711059570312 14.819398880004883 13.049741744995117 14.855381965637207 13.085724830627441 14.855381965637207 C13.133661270141602 14.855381965637207 13.157691955566406 14.831351280212402 13.19367504119873 14.807446479797363 L13.181722640991211 14.783540725708008 L13.181722640991211 14.783540725708008 M13.313827514648438 14.555438041687012 C13.313827514648438 14.531656265258789 13.301874160766602 14.519454956054688 13.253812789916992 14.507501602172852 L13.253812789916992 14.483719825744629 C13.289796829223633 14.471518516540527 13.337982177734375 14.45969009399414 13.385918617248535 14.447737693786621 L13.385918617248535 14.507501602172852 C13.445931434631348 14.471518516540527 13.493867874145508 14.447737693786621 13.565834999084473 14.447737693786621 C13.649754524230957 14.447737693786621 13.685737609863281 14.495673179626465 13.685737609863281 14.56764030456543 L13.685737609863281 14.783540725708008 C13.685737609863281 14.819523811340332 13.709768295288086 14.819523811340332 13.733922958374023 14.819523811340332 L13.757953643798828 14.819523811340332 L13.757953643798828 14.831476211547852 L13.529851913452148 14.831476211547852 L13.529851913452148 14.819523811340332 L13.553881645202637 14.819523811340332 C13.577912330627441 14.819523811340332 13.601818084716797 14.819523811340332 13.601818084716797 14.783540725708008 L13.601818084716797 14.56764030456543 C13.601818084716797 14.519454956054688 13.565834999084473 14.495673179626465 13.505821228027344 14.495673179626465 C13.469837188720703 14.495673179626465 13.421900749206543 14.507625579833984 13.385918617248535 14.531656265258789 L13.385918617248535 14.783540725708008 C13.385918617248535 14.819523811340332 13.40994930267334 14.819523811340332 13.445931434631348 14.819523811340332 L13.457884788513184 14.819523811340332 L13.457884788513184 14.831476211547852 L13.241984367370605 14.831476211547852 L13.241984367370605 14.819523811340332 L13.26601505279541 14.819523811340332 C13.289796829223633 14.819523811340332 13.31395149230957 14.819523811340332 13.31395149230957 14.783540725708008 L13.31395149230957 14.555438041687012 L13.313827514648438 14.555438041687012 L13.313827514648438 14.555438041687012 M14.081803321838379 14.759510040283203 C14.045819282531738 14.783540725708008 14.009836196899414 14.807695388793945 13.961651802062988 14.807695388793945 C13.925667762756348 14.807695388793945 13.889684677124023 14.78366470336914 13.889684677124023 14.7476806640625 C13.889684677124023 14.687666893005371 14.02178955078125 14.663762092590332 14.081803321838379 14.651684761047363 L14.081803321838379 14.759510040283203 M14.237689018249512 14.783540725708008 C14.225736618041992 14.795493125915527 14.213658332824707 14.807570457458496 14.189752578735352 14.807570457458496 C14.17755126953125 14.807570457458496 14.153770446777344 14.795368194580078 14.153770446777344 14.759385108947754 L14.153770446777344 14.519330024719238 C14.153770446777344 14.471393585205078 14.081803321838379 14.447612762451172 14.033617973327637 14.447612762451172 C13.997633934020996 14.447612762451172 13.973854064941406 14.459566116333008 13.937746047973633 14.471393585205078 C13.865778923034668 14.507377624511719 13.829545974731445 14.519330024719238 13.829545974731445 14.567391395568848 C13.829545974731445 14.579343795776367 13.829545974731445 14.591422080993652 13.841748237609863 14.591422080993652 C13.865778923034668 14.591422080993652 13.901762008666992 14.579219818115234 13.901762008666992 14.55518913269043 C13.901762008666992 14.50725269317627 13.937746047973633 14.495424270629883 13.973729133605957 14.495424270629883 C14.045695304870605 14.495424270629883 14.08167839050293 14.519206047058105 14.08167839050293 14.567391395568848 L14.08167839050293 14.615327835083008 C13.85357666015625 14.687294006347656 13.817593574523926 14.699495315551758 13.817593574523926 14.771462440490723 C13.817593574523926 14.807446479797363 13.85357666015625 14.855381965637207 13.925543785095215 14.855381965637207 C13.985556602478027 14.855381965637207 14.033493041992188 14.819398880004883 14.08167839050293 14.783415794372559 C14.08167839050293 14.819398880004883 14.093631744384766 14.855381965637207 14.141443252563477 14.855381965637207 C14.1774263381958 14.855381965637207 14.213409423828125 14.831351280212402 14.23744010925293 14.807446479797363 L14.23744010925293 14.783540725708008 L14.237689018249512 14.783540725708008 L14.237689018249512 14.783540725708008 M14.681442260742188 14.9034423828125 C14.681442260742188 14.987611770629883 14.561538696289062 14.99944019317627 14.50152587890625 14.99944019317627 C14.429558753967285 14.99944019317627 14.369669914245605 14.975409507751465 14.369669914245605 14.915519714355469 C14.369669914245605 14.831351280212402 14.46554183959961 14.831351280212402 14.537508964538574 14.831351280212402 C14.585693359375 14.831476211547852 14.681442260742188 14.84367847442627 14.681442260742188 14.9034423828125 L14.681442260742188 14.9034423828125 M14.753408432006836 14.47164249420166 L14.693643569946289 14.47164249420166 C14.645708084106445 14.47164249420166 14.62167739868164 14.45969009399414 14.597646713256836 14.45969009399414 C14.561664581298828 14.447737693786621 14.537633895874023 14.447737693786621 14.501649856567383 14.447737693786621 C14.381747245788574 14.447737693786621 14.30978012084961 14.507501602172852 14.30978012084961 14.579593658447266 C14.30978012084961 14.627779006958008 14.34576416015625 14.663762092590332 14.405776977539062 14.687542915344238 A0.26097241044044495 0.26097241044044495 0.0 0 1 14.321609497070312 14.73572826385498 L14.321609497070312 14.759510040283203 C14.321609497070312 14.795493125915527 14.369794845581055 14.831476211547852 14.405776977539062 14.831476211547852 L14.405776977539062 14.84367847442627 C14.34576416015625 14.84367847442627 14.285625457763672 14.879661560058594 14.285625457763672 14.939550399780273 C14.285625457763672 14.987735748291016 14.357592582702637 15.035548210144043 14.477744102478027 15.035548210144043 C14.693643569946289 15.035548210144043 14.753532409667969 14.9034423828125 14.753532409667969 14.867459297180176 C14.753532409667969 14.807695388793945 14.693768501281738 14.783540725708008 14.609600067138672 14.783540725708008 L14.477744102478027 14.783540725708008 C14.405776977539062 14.783540725708008 14.405776977539062 14.759510040283203 14.405776977539062 14.735603332519531 C14.405776977539062 14.72340202331543 14.417730331420898 14.711572647094727 14.429558753967285 14.699620246887207 L14.489572525024414 14.699620246887207 C14.609475135803223 14.699620246887207 14.669488906860352 14.627654075622559 14.669488906860352 14.56751537322998 C14.669488906860352 14.543485641479492 14.669488906860352 14.519330024719238 14.645708084106445 14.507501602172852 L14.753408432006836 14.507501602172852 L14.753408432006836 14.47164249420166 L14.753408432006836 14.47164249420166 M14.597522735595703 14.579593658447266 C14.597522735595703 14.627779006958008 14.561538696289062 14.675589561462402 14.489572525024414 14.675589561462402 C14.429558753967285 14.675589561462402 14.40565299987793 14.61557674407959 14.40565299987793 14.56764030456543 C14.40565299987793 14.519454956054688 14.429433822631836 14.47164249420166 14.489572525024414 14.47164249420166 C14.561538696289062 14.47164249420166 14.597522735595703 14.531656265258789 14.597522735595703 14.579593658447266 M14.885513305664062 14.56764030456543 C14.897466659545898 14.507625579833984 14.933698654174805 14.47164249420166 15.005664825439453 14.47164249420166 C15.05360221862793 14.47164249420166 15.089585304260254 14.507625579833984 15.089585304260254 14.555562973022461 C15.089585304260254 14.555562973022461 15.089585304260254 14.567764282226562 15.06555461883545 14.567764282226562 L14.885513305664062 14.567764282226562 L14.885513305664062 14.56764030456543 L14.885513305664062 14.56764030456543 M15.161551475524902 14.603623390197754 L15.173503875732422 14.591670989990234 L15.173503875732422 14.579468727111816 C15.173503875732422 14.483595848083496 15.089585304260254 14.447612762451172 15.005664825439453 14.447612762451172 C14.933698654174805 14.447612762451172 14.801593780517578 14.495548248291016 14.801593780517578 14.663512229919434 C14.801593780517578 14.711448669433594 14.825624465942383 14.855381965637207 14.993463516235352 14.855381965637207 C15.077631950378418 14.855381965637207 15.137395858764648 14.807446479797363 15.18558120727539 14.747432708740234 L15.161551475524902 14.735479354858398 C15.125568389892578 14.771462440490723 15.089585304260254 14.795244216918945 15.029446601867676 14.795244216918945 C14.945528030395508 14.795244216918945 14.885513305664062 14.735479354858398 14.885513305664062 14.651309967041016 C14.873560905456543 14.615327835083008 14.873560905456543 14.603374481201172 14.885513305664062 14.603374481201172 L15.161551475524902 14.603374481201172 L15.161551475524902 14.603623390197754 L15.161551475524902 14.603623390197754 M15.293532371520996 14.555438041687012 C15.293532371520996 14.519454956054688 15.281330108642578 14.507501602172852 15.245347023010254 14.495673179626465 L15.245347023010254 14.483719825744629 C15.293532371520996 14.471518516540527 15.353296279907227 14.447737693786621 15.353296279907227 14.447737693786621 L15.377326965332031 14.447737693786621 L15.377326965332031 14.507625579833984 C15.43734073638916 14.47164249420166 15.48527717590332 14.44786262512207 15.557243347167969 14.44786262512207 C15.605179786682129 14.44786262512207 15.653241157531738 14.47164249420166 15.665193557739258 14.507625579833984 C15.713129043579102 14.483845710754395 15.761190414428711 14.44786262512207 15.833281517028809 14.44786262512207 C15.929153442382812 14.44786262512207 15.953185081481934 14.507625579833984 15.953185081481934 14.567764282226562 L15.953185081481934 14.78366470336914 C15.953185081481934 14.819647789001465 15.977214813232422 14.819647789001465 16.013198852539062 14.819647789001465 L16.025150299072266 14.819647789001465 L16.025150299072266 14.8316011428833 L15.80925178527832 14.8316011428833 L15.80925178527832 14.819647789001465 L15.833281517028809 14.819647789001465 C15.857312202453613 14.819647789001465 15.881217956542969 14.819647789001465 15.881217956542969 14.78366470336914 L15.881217956542969 14.591794967651367 C15.881217956542969 14.543609619140625 15.86926555633545 14.495798110961914 15.785221099853516 14.495798110961914 C15.749237060546875 14.495798110961914 15.689348220825195 14.51957893371582 15.665318489074707 14.531781196594238 L15.665318489074707 14.78366470336914 C15.665318489074707 14.819647789001465 15.689348220825195 14.819647789001465 15.72533130645752 14.819647789001465 L15.737284660339355 14.819647789001465 L15.737284660339355 14.8316011428833 L15.521385192871094 14.8316011428833 L15.521385192871094 14.819647789001465 L15.545414924621582 14.819647789001465 C15.569196701049805 14.819647789001465 15.593351364135742 14.819647789001465 15.593351364135742 14.78366470336914 L15.593351364135742 14.591794967651367 C15.593351364135742 14.543609619140625 15.581398010253906 14.495798110961914 15.497354507446289 14.495798110961914 C15.461371421813965 14.495798110961914 15.401481628417969 14.51957893371582 15.377450942993164 14.531781196594238 L15.377450942993164 14.78366470336914 C15.377450942993164 14.819647789001465 15.401481628417969 14.819647789001465 15.42538833618164 14.819647789001465 L15.449418067932129 14.819647789001465 L15.449418067932129 14.8316011428833 L15.233518600463867 14.8316011428833 L15.233518600463867 14.819647789001465 L15.245471000671387 14.819647789001465 C15.281455039978027 14.819647789001465 15.293656349182129 14.819647789001465 15.293656349182129 14.78366470336914 L15.293656349182129 14.555438041687012 L15.293532371520996 14.555438041687012 L15.293532371520996 14.555438041687012 M16.157381057739258 14.56764030456543 C16.169334411621094 14.507625579833984 16.21739387512207 14.47164249420166 16.27728271484375 14.47164249420166 C16.337297439575195 14.47164249420166 16.361452102661133 14.507625579833984 16.361452102661133 14.555562973022461 C16.361452102661133 14.555562973022461 16.361452102661133 14.567764282226562 16.337421417236328 14.567764282226562 L16.157381057739258 14.567764282226562 L16.157381057739258 14.56764030456543 L16.157381057739258 14.56764030456543 M16.445247650146484 14.603623390197754 L16.445247650146484 14.579468727111816 C16.445247650146484 14.483595848083496 16.361328125 14.447612762451172 16.277158737182617 14.447612762451172 C16.20519256591797 14.447612762451172 16.07333755493164 14.495548248291016 16.07333755493164 14.663512229919434 C16.07333755493164 14.711448669433594 16.10931968688965 14.855381965637207 16.26520538330078 14.855381965637207 C16.349124908447266 14.855381965637207 16.409137725830078 14.807446479797363 16.457077026367188 14.747432708740234 L16.44512176513672 14.735479354858398 C16.409137725830078 14.771462440490723 16.361202239990234 14.795244216918945 16.301189422607422 14.795244216918945 C16.229223251342773 14.795244216918945 16.157255172729492 14.735479354858398 16.157255172729492 14.651309967041016 L16.157255172729492 14.603374481201172 L16.445247650146484 14.603374481201172 L16.445247650146484 14.603623390197754 L16.445247650146484 14.603623390197754 M16.57735252380371 14.555438041687012 C16.57735252380371 14.531656265258789 16.565149307250977 14.519454956054688 16.517337799072266 14.507501602172852 L16.517337799072266 14.483719825744629 C16.565275192260742 14.471518516540527 16.60125732421875 14.45969009399414 16.649442672729492 14.447737693786621 L16.661396026611328 14.447737693786621 L16.661396026611328 14.507501602172852 C16.70958137512207 14.471518516540527 16.769346237182617 14.447737693786621 16.829483032226562 14.447737693786621 C16.913402557373047 14.447737693786621 16.949386596679688 14.495673179626465 16.949386596679688 14.56764030456543 L16.949386596679688 14.783540725708008 C16.949386596679688 14.819523811340332 16.973419189453125 14.819523811340332 16.997323989868164 14.819523811340332 L17.02135467529297 14.819523811340332 L17.02135467529297 14.831476211547852 L16.80545425415039 14.831476211547852 L16.80545425415039 14.819523811340332 L16.817405700683594 14.819523811340332 C16.8414363861084 14.819523811340332 16.865591049194336 14.819523811340332 16.865591049194336 14.783540725708008 L16.865591049194336 14.56764030456543 C16.865591049194336 14.519454956054688 16.829608917236328 14.495673179626465 16.769594192504883 14.495673179626465 C16.745813369750977 14.495673179626465 16.68567657470703 14.507625579833984 16.661643981933594 14.531656265258789 L16.661643981933594 14.783540725708008 C16.661643981933594 14.819523811340332 16.673599243164062 14.819523811340332 16.70983123779297 14.819523811340332 L16.721782684326172 14.819523811340332 L16.721782684326172 14.831476211547852 L16.505884170532227 14.831476211547852 L16.505884170532227 14.819523811340332 L16.5296630859375 14.819523811340332 C16.553695678710938 14.819523811340332 16.577850341796875 14.819523811340332 16.577850341796875 14.783540725708008 L16.577850341796875 14.555438041687012 L16.57735252380371 14.555438041687012 L16.57735252380371 14.555438041687012 M17.201021194458008 14.73572826385498 C17.201021194458008 14.78366470336914 17.237003326416016 14.807695388793945 17.261035919189453 14.807695388793945 C17.297019958496094 14.807695388793945 17.308971405029297 14.795493125915527 17.3330020904541 14.78366470336914 L17.357032775878906 14.795618057250977 C17.321048736572266 14.819647789001465 17.272863388061523 14.855631828308105 17.213098526000977 14.855631828308105 C17.15308380126953 14.855631828308105 17.117101669311523 14.819647789001465 17.117101669311523 14.771711349487305 L17.117101669311523 14.507625579833984 L17.05708885192871 14.507625579833984 L17.05708885192871 14.495673179626465 C17.10527229309082 14.45969009399414 17.14125633239746 14.435660362243652 17.189191818237305 14.363569259643555 L17.20114517211914 14.363569259643555 L17.20114517211914 14.459566116333008 L17.357280731201172 14.459566116333008 L17.357280731201172 14.507501602172852 L17.20114517211914 14.507501602172852 L17.20114517211914 14.73572826385498 L17.201021194458008 14.73572826385498 L17.201021194458008 14.73572826385498 M17.968996047973633 14.327585220336914 L18.076946258544922 14.579468727111816 L17.87287712097168 14.579468727111816 L17.968996047973633 14.327585220336914 L17.968996047973633 14.327585220336914 M18.01693344116211 14.207682609558105 L18.004980087280273 14.207682609558105 C17.99302864074707 14.231464385986328 17.968996047973633 14.24366569519043 17.94496726989746 14.255619049072266 L17.94496726989746 14.267571449279785 C17.94496726989746 14.303803443908691 17.933013916015625 14.327585220336914 17.921186447143555 14.351739883422852 L17.789081573486328 14.651559829711914 L17.753097534179688 14.759510040283203 C17.729068756103516 14.807695388793945 17.717113494873047 14.807695388793945 17.657100677490234 14.819523811340332 L17.657100677490234 14.831476211547852 L17.89715576171875 14.831476211547852 L17.89715576171875 14.819523811340332 L17.873125076293945 14.819523811340332 C17.837142944335938 14.807570457458496 17.801158905029297 14.819523811340332 17.801158905029297 14.771587371826172 C17.801158905029297 14.747556686401367 17.813358306884766 14.711572647094727 17.82518768310547 14.675589561462402 L17.848970413208008 14.61557674407959 L18.08902359008789 14.61557674407959 L18.137210845947266 14.73572826385498 C18.14916229248047 14.7476806640625 18.160991668701172 14.771711349487305 18.160991668701172 14.78366470336914 C18.160991668701172 14.807695388793945 18.12500762939453 14.819647789001465 18.101226806640625 14.819647789001465 L18.08902359008789 14.819647789001465 L18.08902359008789 14.8316011428833 L18.35310935974121 14.8316011428833 L18.35310935974121 14.819647789001465 C18.317127227783203 14.819647789001465 18.281143188476562 14.807695388793945 18.26894187927246 14.795618057250977 C18.256988525390625 14.771836280822754 18.221004486083984 14.699745178222656 18.20917510986328 14.663762092590332 L18.01693344116211 14.207682609558105 L18.01693344116211 14.207682609558105 M18.412874221801758 14.711572647094727 C18.436904907226562 14.771587371826172 18.472888946533203 14.819523811340332 18.544979095458984 14.819523811340332 C18.604991912841797 14.819523811340332 18.62889862060547 14.795493125915527 18.62889862060547 14.759510040283203 C18.62889862060547 14.663637161254883 18.401044845581055 14.687542915344238 18.401044845581055 14.555438041687012 C18.401044845581055 14.507501602172852 18.44898223876953 14.447737693786621 18.569133758544922 14.447737693786621 C18.592914581298828 14.447737693786621 18.641101837158203 14.447737693786621 18.677085876464844 14.471518516540527 L18.689037322998047 14.555438041687012 L18.66525650024414 14.555438041687012 C18.653053283691406 14.507501602172852 18.617069244384766 14.471518516540527 18.557056427001953 14.471518516540527 C18.50912094116211 14.471518516540527 18.47313690185547 14.495548248291016 18.47313690185547 14.531532287597656 C18.47313690185547 14.62752914428711 18.713191986083984 14.603499412536621 18.713191986083984 14.735603332519531 C18.713191986083984 14.795368194580078 18.653179168701172 14.85550594329834 18.533275604248047 14.85550594329834 C18.49729347229004 14.85550594329834 18.449106216430664 14.843554496765137 18.413124084472656 14.819523811340332 L18.40117073059082 14.723526000976562 L18.412874221801758 14.711572647094727 L18.412874221801758 14.711572647094727 M18.79686164855957 14.711572647094727 C18.820892333984375 14.771587371826172 18.856876373291016 14.819523811340332 18.928966522216797 14.819523811340332 C18.98897933959961 14.819523811340332 19.01288604736328 14.795493125915527 19.01288604736328 14.759510040283203 C19.01288604736328 14.663637161254883 18.796987533569336 14.687542915344238 18.796987533569336 14.555438041687012 C18.796987533569336 14.507501602172852 18.832971572875977 14.447737693786621 18.953123092651367 14.447737693786621 C18.97690200805664 14.447737693786621 19.025089263916016 14.447737693786621 19.061073303222656 14.471518516540527 L19.07302474975586 14.555438041687012 L19.048995971679688 14.555438041687012 C19.03704071044922 14.507501602172852 19.00105857849121 14.471518516540527 18.941043853759766 14.471518516540527 C18.893108367919922 14.471518516540527 18.857126235961914 14.495548248291016 18.857126235961914 14.531532287597656 C18.857126235961914 14.62752914428711 19.097179412841797 14.603499412536621 19.097179412841797 14.735603332519531 C19.097179412841797 14.795368194580078 19.037166595458984 14.85550594329834 18.917015075683594 14.85550594329834 C18.881031036376953 14.85550594329834 18.83309555053711 14.843554496765137 18.79711151123047 14.819523811340332 L18.785158157348633 14.723526000976562 L18.79686164855957 14.711572647094727 L18.79686164855957 14.711572647094727 M19.2647705078125 14.639607429504395 C19.2647705078125 14.56764030456543 19.30075454711914 14.471518516540527 19.396873474121094 14.471518516540527 C19.504825592041016 14.471518516540527 19.55276107788086 14.579468727111816 19.55276107788086 14.651434898376465 C19.55276107788086 14.72340202331543 19.51677703857422 14.831351280212402 19.408828735351562 14.831351280212402 C19.312829971313477 14.831476211547852 19.2647705078125 14.711572647094727 19.2647705078125 14.639607429504395 L19.2647705078125 14.639607429504395 M19.16889762878418 14.651559829711914 C19.16889762878418 14.771711349487305 19.27684783935547 14.855631828308105 19.420780181884766 14.855631828308105 C19.54068374633789 14.855631828308105 19.64863395690918 14.759634017944336 19.64863395690918 14.639731407165527 C19.64863395690918 14.51957893371582 19.54068374633789 14.44786262512207 19.396751403808594 14.44786262512207 C19.2647705078125 14.447737693786621 19.16889762878418 14.543609619140625 19.16889762878418 14.651559829711914 M20.104713439941406 14.759510040283203 C20.056777954101562 14.807695388793945 19.984560012817383 14.85550594329834 19.912841796875 14.85550594329834 C19.804645538330078 14.85550594329834 19.708772659301758 14.759510040283203 19.708772659301758 14.675589561462402 C19.708772659301758 14.543485641479492 19.816722869873047 14.447737693786621 19.960655212402344 14.447737693786621 C20.008590698242188 14.447737693786621 20.09276008605957 14.45969009399414 20.09276008605957 14.507501602172852 C20.09276008605957 14.519454956054688 20.080556869506836 14.543485641479492 20.056777954101562 14.543485641479492 C20.008590698242188 14.543485641479492 20.020793914794922 14.471518516540527 19.924671173095703 14.471518516540527 C19.82855224609375 14.471518516540527 19.79256820678711 14.555438041687012 19.79256820678711 14.61545181274414 C19.79256820678711 14.711448669433594 19.852581024169922 14.783540725708008 19.960655212402344 14.783540725708008 C20.02066993713379 14.783540725708008 20.056652069091797 14.771587371826172 20.09276008605957 14.747556686401367 L20.104713439941406 14.759510040283203 L20.104713439941406 14.759510040283203 M20.152523040771484 14.819523811340332 L20.176555633544922 14.819523811340332 C20.200584411621094 14.819523811340332 20.224491119384766 14.819523811340332 20.224491119384766 14.783540725708008 L20.224491119384766 14.555438041687012 C20.224491119384766 14.519454956054688 20.212539672851562 14.507501602172852 20.16472625732422 14.495673179626465 L20.16472625732422 14.483719825744629 C20.212661743164062 14.471518516540527 20.27267837524414 14.447737693786621 20.27267837524414 14.447737693786621 L20.296459197998047 14.447737693786621 C20.296459197998047 14.447737693786621 20.308658599853516 14.447737693786621 20.308658599853516 14.45969009399414 L20.308658599853516 14.78366470336914 C20.308658599853516 14.819647789001465 20.320613861083984 14.819647789001465 20.356597900390625 14.819647789001465 L20.368549346923828 14.819647789001465 L20.368549346923828 14.8316011428833 L20.15264892578125 14.8316011428833 L20.15264892578125 14.819523811340332 L20.152523040771484 14.819523811340332 L20.152523040771484 14.819523811340332 M20.260601043701172 14.315756797790527 C20.23681640625 14.315756797790527 20.212661743164062 14.291726112365723 20.212661743164062 14.267571449279785 C20.212661743164062 14.243790626525879 20.2366943359375 14.231588363647461 20.260601043701172 14.231588363647461 C20.284629821777344 14.231588363647461 20.30878448486328 14.243790626525879 20.30878448486328 14.267571449279785 C20.308658599853516 14.291601181030273 20.284629821777344 14.315756797790527 20.260601043701172 14.315756797790527 M20.704601287841797 14.759510040283203 C20.668617248535156 14.783540725708008 20.632633209228516 14.807695388793945 20.584449768066406 14.807695388793945 C20.548465728759766 14.807695388793945 20.512481689453125 14.78366470336914 20.512481689453125 14.7476806640625 C20.512481689453125 14.687666893005371 20.644588470458984 14.663762092590332 20.704601287841797 14.651684761047363 L20.704601287841797 14.759510040283203 M20.86048698425293 14.783540725708008 C20.848535537719727 14.795493125915527 20.836456298828125 14.807570457458496 20.824504852294922 14.807570457458496 C20.800474166870117 14.807570457458496 20.78852081298828 14.795368194580078 20.78852081298828 14.759385108947754 L20.78852081298828 14.519330024719238 C20.78852081298828 14.471393585205078 20.704601287841797 14.447612762451172 20.656414031982422 14.447612762451172 C20.620433807373047 14.447612762451172 20.608478546142578 14.459566116333008 20.572494506835938 14.471393585205078 C20.50052833557129 14.507377624511719 20.452592849731445 14.519330024719238 20.452592849731445 14.567391395568848 C20.452592849731445 14.579343795776367 20.452592849731445 14.591422080993652 20.46454620361328 14.591422080993652 C20.488576889038086 14.591422080993652 20.524559020996094 14.579219818115234 20.524559020996094 14.55518913269043 C20.524559020996094 14.50725269317627 20.560543060302734 14.495424270629883 20.608478546142578 14.495424270629883 C20.66849136352539 14.495424270629883 20.70447540283203 14.519206047058105 20.70447540283203 14.567391395568848 L20.70447540283203 14.615327835083008 C20.47637367248535 14.687294006347656 20.440391540527344 14.699495315551758 20.440391540527344 14.771462440490723 C20.440391540527344 14.807446479797363 20.47637367248535 14.855381965637207 20.54833984375 14.855381965637207 C20.608356475830078 14.855381965637207 20.656291961669922 14.819398880004883 20.70447540283203 14.783415794372559 C20.70447540283203 14.819398880004883 20.72825813293457 14.855381965637207 20.76449203491211 14.855381965637207 C20.80022430419922 14.855381965637207 20.836206436157227 14.831351280212402 20.860363006591797 14.807446479797363 L20.860363006591797 14.783540725708008 L20.86048698425293 14.783540725708008 L20.86048698425293 14.783540725708008 M21.064558029174805 14.73572826385498 C21.064558029174805 14.78366470336914 21.100540161132812 14.807695388793945 21.12457275390625 14.807695388793945 C21.148353576660156 14.807695388793945 21.172508239746094 14.795493125915527 21.19654083251953 14.78366470336914 L21.208492279052734 14.795618057250977 C21.172508239746094 14.819647789001465 21.12457275390625 14.855631828308105 21.076385498046875 14.855631828308105 C21.00442123413086 14.855631828308105 20.980514526367188 14.819647789001465 20.980514526367188 14.771711349487305 L20.980514526367188 14.507625579833984 L20.90854835510254 14.507625579833984 L20.90854835510254 14.495673179626465 C20.968311309814453 14.45969009399414 20.99246597290039 14.435660362243652 21.052480697631836 14.363569259643555 L21.064434051513672 14.363569259643555 L21.064434051513672 14.459566116333008 L21.2083683013916 14.459566116333008 L21.2083683013916 14.507501602172852 L21.064434051513672 14.507501602172852 L21.064434051513672 14.73572826385498 L21.064558029174805 14.73572826385498 M21.41256332397461 14.267571449279785 C21.41256332397461 14.243790626525879 21.388532638549805 14.231588363647461 21.364377975463867 14.231588363647461 C21.34059715270996 14.231588363647461 21.316442489624023 14.243790626525879 21.316442489624023 14.267571449279785 C21.316442489624023 14.291601181030273 21.328393936157227 14.315756797790527 21.364377975463867 14.315756797790527 A0.051920562982559204 0.051920562982559204 0.0 0 0 21.41256332397461 14.267571449279785 M21.256427764892578 14.831476211547852 L21.472328186035156 14.831476211547852 L21.472328186035156 14.819523811340332 L21.44854736328125 14.819523811340332 C21.424514770507812 14.819523811340332 21.400360107421875 14.819523811340332 21.400360107421875 14.783540725708008 L21.400360107421875 14.459566116333008 C21.400360107421875 14.447612762451172 21.400360107421875 14.447612762451172 21.388408660888672 14.447612762451172 L21.376455307006836 14.447612762451172 C21.376455307006836 14.447612762451172 21.316442489624023 14.471393585205078 21.268505096435547 14.483595848083496 L21.268505096435547 14.495548248291016 C21.304489135742188 14.507501602172852 21.316442489624023 14.519330024719238 21.316442489624023 14.555314064025879 L21.316442489624023 14.783415794372559 C21.316442489624023 14.819398880004883 21.304489135742188 14.819398880004883 21.268505096435547 14.819398880004883 L21.256303787231445 14.819398880004883 L21.256303787231445 14.831476211547852 L21.256427764892578 14.831476211547852 L21.256427764892578 14.831476211547852 M21.628463745117188 14.639607429504395 C21.628463745117188 14.56764030456543 21.664447784423828 14.471518516540527 21.772396087646484 14.471518516540527 C21.88034439086914 14.471518516540527 21.91632843017578 14.579468727111816 21.91632843017578 14.651434898376465 C21.91632843017578 14.72340202331543 21.88034439086914 14.831351280212402 21.784225463867188 14.831351280212402 C21.67639923095703 14.831476211547852 21.628463745117188 14.711572647094727 21.628463745117188 14.639607429504395 L21.628463745117188 14.639607429504395 M21.532466888427734 14.651559829711914 C21.532466888427734 14.771711349487305 21.64041519165039 14.855631828308105 21.78434944152832 14.855631828308105 C21.904251098632812 14.855631828308105 22.012451171875 14.759634017944336 22.012451171875 14.639731407165527 C22.012451171875 14.51957893371582 21.904251098632812 14.44786262512207 21.772396087646484 14.44786262512207 C21.628463745117188 14.447737693786621 21.532466888427734 14.543609619140625 21.532466888427734 14.651559829711914 M22.14430809020996 14.555438041687012 C22.14430809020996 14.531656265258789 22.132354736328125 14.519454956054688 22.08454132080078 14.507501602172852 L22.08454132080078 14.483719825744629 C22.120525360107422 14.471518516540527 22.1684627532959 14.45969009399414 22.216398239135742 14.447737693786621 L22.216398239135742 14.507501602172852 C22.276411056518555 14.471518516540527 22.32434844970703 14.447737693786621 22.396316528320312 14.447737693786621 C22.480484008789062 14.447737693786621 22.516468048095703 14.495673179626465 22.516468048095703 14.56764030456543 L22.516468048095703 14.783540725708008 C22.516468048095703 14.819523811340332 22.54024887084961 14.819523811340332 22.564403533935547 14.819523811340332 L22.58843421936035 14.819523811340332 L22.58843421936035 14.831476211547852 L22.360332489013672 14.831476211547852 L22.360332489013672 14.819523811340332 L22.384361267089844 14.819523811340332 C22.40839385986328 14.819523811340332 22.432296752929688 14.819523811340332 22.432296752929688 14.783540725708008 L22.432296752929688 14.56764030456543 C22.432296752929688 14.519454956054688 22.396316528320312 14.495673179626465 22.33642578125 14.495673179626465 C22.312395095825195 14.495673179626465 22.252256393432617 14.507625579833984 22.21627426147461 14.531656265258789 L22.21627426147461 14.783540725708008 C22.21627426147461 14.819523811340332 22.24030303955078 14.819523811340332 22.276287078857422 14.819523811340332 L22.288238525390625 14.819523811340332 L22.288238525390625 14.831476211547852 L22.072341918945312 14.831476211547852 L22.072341918945312 14.819523811340332 L22.096370697021484 14.819523811340332 C22.12040138244629 14.819523811340332 22.14430809020996 14.819523811340332 22.14430809020996 14.783540725708008 L22.14430809020996 14.555438041687012 L22.14430809020996 14.555438041687012" fill="black" fill-opacity="1.0" filling="0"/></svg>