<?xml version="1.0" encoding="iso-8859-1"?><svg height="200px" viewBox="0.0 0.0 24.0 24.0" width="200px" xmlns="http://www.w3.org/2000/svg"><path animation_id="0" d="M0.0 0.0 L24.0 0.0 L24.0 24.0 L0.0 24.0 L0.0 0.0" fill="black" fill-opacity="1.0" filling="0"/>
<path animation_id="1" d="M1.3937625885009766 3.802776336669922 C3.3240365982055664 3.951814651489258 5.150594711303711 3.878354072570801 6.884019374847412 3.508061408996582 C8.61233901977539 3.138890266418457 10.256240844726562 2.473385810852051 11.828176498413086 1.4378385543823242 L12.002614974975586 1.322916030883789 L12.175310134887695 1.4402046203613281 C13.696196556091309 2.474506378173828 15.313826560974121 3.139139175415039 17.040653228759766 3.5079383850097656 C18.77432632446289 3.878230094909668 20.625911712646484 3.951690673828125 22.60611343383789 3.802652359008789 L22.940921783447266 3.777376174926758 L22.940921783447266 4.114673614501953 C22.940921783447266 7.237751483917236 22.454833984375 10.013696670532227 21.569568634033203 12.434289932250977 A19.1529598236084 19.1529598236084 0.0 0 1 20.578845977783203 14.68978500366211 C18.669864654541016 18.362323760986328 15.716117858886719 21.01736831665039 12.12650203704834 22.619312286376953 L11.997011184692383 22.676959991455078 L11.869389533996582 22.618066787719727 L11.86926555633545 22.617816925048828 L11.869389533996582 22.617568969726562 C10.968437194824219 22.215402603149414 10.109817504882812 21.748491287231445 9.300006866455078 21.217330932617188 A17.279836654663086 17.279836654663086 0.0 0 1 7.003424167633057 19.418540954589844 C3.332254409790039 16.003612518310547 1.0588302612304688 10.87605094909668 1.0588302612304688 4.114549160003662 L1.0588302612304688 3.7768783569335938 L1.3937625885009766 3.802776336669922 L1.3937625885009766 3.802776336669922 M7.01313591003418 4.117039680480957 C5.314200401306152 4.479985237121582 3.54205322265625 4.569507598876953 1.684617042541504 4.4502272605896 C1.7582025527954102 10.858867645263672 3.940359115600586 15.719355583190918 7.427628517150879 18.96295738220215 A16.65168571472168 16.65168571472168 0.0 0 0 9.641411781311035 20.69613265991211 A17.571563720703125 17.571563720703125 0.0 0 0 11.999876022338867 21.994522094726562 C15.40496826171875 20.444252014160156 18.20693588256836 17.90275764465332 20.026145935058594 14.40254020690918 A18.460187911987305 18.460187911987305 0.0 0 0 20.984996795654297 12.222623825073242 C21.81373405456543 9.957168579101562 22.28213882446289 7.364129066467285 22.315509796142578 4.449728965759277 C20.41013526916504 4.569756507873535 18.613086700439453 4.480483055114746 16.911785125732422 4.117164134979248 C15.169395446777344 3.7450037002563477 13.534955978393555 3.086472511291504 11.997509956359863 2.072589874267578 C10.413124084472656 3.086472511291504 8.755400657653809 3.7450037002563477 7.01313591003418 4.117039680480957 L7.01313591003418 4.117039680480957" fill="black" fill-opacity="1.0" filling="0"/>
<path animation_id="2" d="M2.813173294067383 4.155014514923096 L1.233144760131836 4.1099419593811035 C1.2890491485595703 7.027703762054443 1.9204387664794922 9.86279010772705 2.813173294067383 12.660524368286133 L2.813173294067383 4.155014514923096 M4.2015814781188965 4.199962615966797 L8.089273452758789 3.479922294616699 L8.089273452758789 19.90587043762207 C6.554193019866943 18.675838470458984 5.258420467376709 17.265892028808594 4.2015814781188965 15.675652503967285 L4.2015814781188965 4.199962615966797 L4.2015814781188965 4.199962615966797 M9.477682113647461 3.074892997741699 L11.976841926574707 1.7249574661254883 L14.476000785827637 2.984996795654297 L14.476000785827637 21.03118896484375 L11.976841926574707 22.38137435913086 L9.477682113647461 21.03118896484375 L9.477682113647461 3.074892997741699 M15.864533424377441 3.480048179626465 L19.752351760864258 4.1099419593811035 L19.752351760864258 15.54080867767334 L15.864533424377441 20.041213989257812 L15.864533424377441 3.480048179626465" fill="black" fill-opacity="1.0" filling="0"/>
<path animation_id="3" d="M11.976094245910645 6.9345703125 C14.554068565368652 6.9345703125 16.656539916992188 9.037166595458984 16.656539916992188 11.61501693725586 C16.656539916992188 14.19299030303955 14.553943634033203 16.295461654663086 11.976094245910645 16.295461654663086 C9.398120880126953 16.295461654663086 7.2955241203308105 14.192865371704102 7.2955241203308105 11.61501693725586 C7.2955241203308105 9.037166595458984 9.398120880126953 6.9345703125 11.976094245910645 6.9345703125" fill="black" fill-opacity="1.0" filling="0"/>
<path animation_id="4" d="M11.976094245910645 6.778559684753418 C13.30822467803955 6.778559684753418 14.517337799072266 7.321671009063721 15.393263816833496 8.197721481323242 C16.269189834594727 9.073772430419922 16.812427520751953 10.282886505126953 16.812427520751953 11.614767074584961 L16.812427520751953 11.61501693725586 C16.812427520751953 12.947021484375 16.269189834594727 14.156135559082031 15.393263816833496 15.032061576843262 C14.517337799072266 15.908236503601074 13.30822467803955 16.45122528076172 11.976218223571777 16.45122528076172 L11.975969314575195 16.45122528076172 C10.643964767456055 16.45122528076172 9.434850692749023 15.908236503601074 8.558799743652344 15.032061576843262 C7.682749271392822 14.156135559082031 7.139761924743652 12.947021484375 7.139637470245361 11.615140914916992 L7.139637470245361 11.61501693725586 C7.139637470245361 10.283010482788086 7.682749271392822 9.073896408081055 8.558799743652344 8.197846412658691 C9.434850692749023 7.321919918060303 10.643964767456055 6.77880859375 11.975845336914062 6.778684139251709 L11.976094245910645 6.778684139251709 L11.976094245910645 6.778559684753418 L11.976094245910645 6.778559684753418 M11.976218223571777 7.090456485748291 L11.975969314575195 7.090456485748291 C10.730125427246094 7.090456485748291 9.599079132080078 7.598705291748047 8.779431343078613 8.418228149414062 C7.959783554077148 9.237875938415527 7.451534748077393 10.369047164916992 7.451534748077393 11.61489200592041 L7.451534748077393 11.61501693725586 C7.451534748077393 12.860860824584961 7.959783554077148 13.991907119750977 8.779431343078613 14.811678886413574 C9.599079132080078 15.631202697753906 10.730125427246094 16.139450073242188 11.976094245910645 16.139450073242188 L11.976344108581543 16.139450073242188 C13.222187995910645 16.139450073242188 14.35323429107666 15.631202697753906 15.172758102416992 14.811678886413574 C15.99252986907959 13.991907119750977 16.500778198242188 12.860860824584961 16.500778198242188 11.61501693725586 L16.500778198242188 11.614767074584961 C16.500530242919922 10.368922233581543 15.99252986907959 9.237875938415527 15.173006057739258 8.418228149414062 C14.353109359741211 7.598580837249756 13.222063064575195 7.090456485748291 11.976218223571777 7.090456485748291" fill="black" fill-opacity="1.0" filling="0"/>
<path animation_id="5" d="M10.124883651733398 8.06673812866211 C8.711199760437012 8.853763580322266 7.967503070831299 10.150033950805664 7.980327606201172 11.732054710388184 C8.064122200012207 13.327896118164062 8.94876480102539 14.539501190185547 10.120899200439453 15.142127990722656 L10.120899200439453 14.299695014953613 C9.090083122253418 13.541680335998535 8.55506420135498 12.421340942382812 8.744568824768066 11.112868309020996 C8.908174514770508 10.190749168395996 9.363256454467773 9.43372917175293 10.12475872039795 8.913154602050781 L10.124883651733398 8.06673812866211 L10.124883651733398 8.06673812866211 M13.930523872375488 8.12948989868164 L13.930523872375488 15.089958190917969 C15.170516967773438 14.325095176696777 15.964265823364258 13.198780059814453 15.962274551391602 11.477059364318848 C15.904128074645996 10.081927299499512 15.189441680908203 8.910041809082031 13.930523872375488 8.12948989868164" fill="black" fill-opacity="1.0" filling="0"/>
<path animation_id="6" d="M14.650812149047852 9.762310981750488 L14.645458221435547 13.458008766174316 C14.98686408996582 12.979144096374512 15.204755783081055 12.340036392211914 15.226421356201172 11.548527717590332 C15.207993507385254 10.796363830566406 14.97765064239502 10.235821723937988 14.650812149047852 9.762310981750488 L14.650812149047852 9.762310981750488" fill="black" fill-opacity="1.0" filling="0"/>
<path animation_id="7" d="M12.660648345947266 9.328021049499512 L13.458756446838379 9.328021049499512 L13.458756446838379 7.904750347137451 C12.458569526672363 7.511548042297363 11.441325187683105 7.52213191986084 10.483844757080078 7.904750347137451 L10.483844757080078 11.365249633789062 C10.392081260681152 12.309033393859863 12.48098087310791 11.745004653930664 12.660648345947266 12.43354320526123 L12.660648345947266 14.781672477722168 C12.187387466430664 14.882400512695312 11.713876724243164 14.874556541442871 11.240365982055664 14.77706527709961 L11.241860389709473 13.838885307312012 L10.483719825744629 13.838885307312012 L10.483719825744629 15.306729316711426 C11.482538223266602 15.701924324035645 12.474008560180664 15.689473152160645 13.458632469177246 15.30598258972168 L13.458632469177246 12.090767860412598 C13.424142837524414 11.006163597106934 11.125194549560547 11.5235013961792 11.245595932006836 10.857748031616211 L11.23999309539795 8.428438186645508 C11.698188781738281 8.315010070800781 12.17269515991211 8.321110725402832 12.660524368286133 8.417356491088867 L12.660648345947266 9.328021049499512 L12.660648345947266 9.328021049499512 M21.140634536743164 4.155014514923096 L22.571250915527344 4.1099419593811035 C22.602378845214844 7.196414470672607 22.065616607666016 10.069103240966797 21.140634536743164 12.795493125915527 L21.140634536743164 4.155014514923096" fill="black" fill-opacity="1.0" filling="0"/></svg>