<?xml version="1.0" encoding="iso-8859-1"?><svg height="200px" viewBox="0.0 0.0 24.0 24.0" width="200px" xmlns="http://www.w3.org/2000/svg"><path animation_id="0" d="M0.0 0.0 L24.0 0.0 L24.0 24.0 L0.0 24.0 L0.0 0.0" fill="black" fill-opacity="1.0" filling="0"/>
<path animation_id="1" d="M6.200959205627441 11.91520881652832 L6.20058536529541 11.863412857055664 L6.255618572235107 11.863412857055664 C6.340035915374756 11.863412857055664 6.392828464508057 11.843740463256836 6.412999153137207 11.80439567565918 C6.43329381942749 11.765049934387207 6.443752765655518 11.692834854125977 6.443752765655518 11.588371276855469 L6.443752765655518 10.1340970993042 L5.830542087554932 10.1340970993042 L5.830542087554932 11.588371276855469 C5.830542087554932 11.710639953613281 5.844362735748291 11.78746223449707 5.8713812828063965 11.817842483520508 C5.898773670196533 11.848222732543945 5.950196266174316 11.863412857055664 6.025150775909424 11.863412857055664 L6.077818393707275 11.863412857055664 L6.077818393707275 11.91520881652832 L5.170018196105957 11.91520881652832 L5.170018196105957 11.863412857055664 L5.225051403045654 11.863412857055664 C5.300628662109375 11.863412857055664 5.351428985595703 11.84735107421875 5.376081943511963 11.815975189208984 C5.400734901428223 11.784224510192871 5.413186073303223 11.708148956298828 5.413186073303223 11.588371276855469 L5.413186073303223 10.336549758911133 C5.413186073303223 10.223495483398438 5.401730537414551 10.149287223815918 5.378696441650391 10.114797592163086 C5.3556623458862305 10.079935073852539 5.303990364074707 10.062628746032715 5.225051403045654 10.062628746032715 L5.170018196105957 10.062628746032715 L5.170018196105957 10.01070785522461 L7.107016563415527 10.01070785522461 L7.107016563415527 10.062628746032715 L7.061071872711182 10.062628746032715 C6.97939395904541 10.062628746032715 6.92523193359375 10.080432891845703 6.899956703186035 10.116043090820312 C6.87418270111084 10.151652336120605 6.861358165740967 10.225362777709961 6.861358165740967 10.336549758911133 L6.861358165740967 11.588371276855469 C6.861358165740967 11.710639953613281 6.8759260177612305 11.78746223449707 6.904937267303467 11.817842483520508 C6.933947563171387 11.848222732543945 6.987736225128174 11.863412857055664 7.066052436828613 11.863412857055664 L7.106891632080078 11.863412857055664 L7.106891632080078 11.91520881652832 L6.200959205627441 11.91520881652832 M7.865529537200928 11.052729606628418 L7.865156173706055 11.581274032592773 C7.865156173706055 11.68399429321289 7.870883464813232 11.74886417388916 7.882338523864746 11.775632858276367 C7.893918037414551 11.802278518676758 7.914461612701416 11.82381820678711 7.943846225738525 11.83938217163086 C7.973230838775635 11.85531997680664 8.027517318725586 11.863412857055664 8.10595703125 11.863412857055664 L8.10595703125 11.91520881652832 L7.223806381225586 11.91520881652832 L7.223806381225586 11.863412857055664 C7.303865909576416 11.863412857055664 7.3586506843566895 11.85531997680664 7.387038707733154 11.838884353637695 C7.415426731109619 11.822574615478516 7.435722351074219 11.801033020019531 7.447176933288574 11.775135040283203 C7.45863151550293 11.74886417388916 7.464483737945557 11.683869361877441 7.464483737945557 11.581149101257324 L7.464483737945557 10.344892501831055 C7.464483737945557 10.241923332214355 7.458755970001221 10.177053451538086 7.447176933288574 10.150407791137695 A0.13036170601844788 0.13036170601844788 0.0 0 0 7.386416435241699 10.08653450012207 C7.357405185699463 10.070722579956055 7.302994728088379 10.062503814697266 7.223806381225586 10.062503814697266 L7.223806381225586 10.010583877563477 L7.980327606201172 10.010583877563477 C8.229596138000488 10.010583877563477 8.40876579284668 10.059515953063965 8.516839981079102 10.156633377075195 C8.625040054321289 10.253750801086426 8.679325103759766 10.375646591186523 8.679325103759766 10.521820068359375 C8.679325103759766 10.645210266113281 8.644213676452637 10.751167297363281 8.57461166381836 10.839071273803711 C8.504638671875 10.927224159240723 8.408018112182617 10.987237930297852 8.285002708435059 11.01923656463623 C8.202577590942383 11.041399955749512 8.062379837036133 11.052979469299316 7.865031719207764 11.052979469299316 L7.865529537200928 11.052729606628418 L7.865529537200928 11.052729606628418 M7.865529537200928 10.120027542114258 L7.865156173706055 10.94340991973877 C7.8931708335876465 10.94527816772461 7.914710998535156 10.946274757385254 7.929403305053711 10.946274757385254 C8.033493995666504 10.946274757385254 8.113801956176758 10.912158012390137 8.169955253601074 10.844301223754883 C8.226110458374023 10.776567459106445 8.254497528076172 10.671232223510742 8.254497528076172 10.528918266296387 C8.254497528076172 10.387723922729492 8.226110458374023 10.283882141113281 8.169955253601074 10.218639373779297 C8.113926887512207 10.153146743774414 8.029508590698242 10.120027542114258 7.917948246002197 10.120027542114258 L7.865529537200928 10.120027542114258 L7.865529537200928 10.120027542114258 M9.756832122802734 9.983689308166504 C10.033244132995605 9.97260856628418 10.25786018371582 10.061134338378906 10.43055534362793 10.249393463134766 C10.603623390197754 10.437776565551758 10.690032958984375 10.673473358154297 10.690032958984375 10.955986022949219 C10.690032958984375 11.197659492492676 10.625536918640137 11.410446166992188 10.49654483795166 11.593973159790039 C10.325841903686523 11.837141036987305 10.084667205810547 11.959161758422852 9.77314281463623 11.959161758422852 C9.460997581481934 11.959161758422852 9.219075202941895 11.842743873596191 9.04849624633789 11.610658645629883 C8.914026260375977 11.427130699157715 8.846417427062988 11.20923900604248 8.846417427062988 10.957479476928711 C8.846417427062988 10.674967765808105 8.934320449829102 10.438896179199219 9.109257698059082 10.250264167785645 C9.284566879272461 10.06163215637207 9.500467300415039 9.972981452941895 9.756584167480469 9.984188079833984 L9.756832122802734 9.983689308166504 M9.772147178649902 10.073709487915039 C9.613272666931152 10.073709487915039 9.492374420166016 10.162610054016113 9.409574508666992 10.340659141540527 C9.342339515686035 10.486708641052246 9.308597564697266 10.696881294250488 9.308597564697266 10.97005558013916 C9.308597564697266 11.294651985168457 9.360518455505371 11.535329818725586 9.464608192443848 11.690592765808105 C9.536948204040527 11.799290657043457 9.638921737670898 11.8537015914917 9.769407272338867 11.8537015914917 C9.857312202453613 11.8537015914917 9.93089771270752 11.830044746398926 9.989665985107422 11.783352851867676 C10.06474494934082 11.723712921142578 10.123140335083008 11.627716064453125 10.16510009765625 11.496482849121094 C10.206934928894043 11.364875793457031 10.227852821350098 11.192803382873535 10.227852821350098 10.9811372756958 C10.227852821350098 10.729503631591797 10.206562042236328 10.540745735168457 10.163980484008789 10.415863037109375 C10.121397018432617 10.290979385375977 10.066612243652344 10.2023286819458 10.000497817993164 10.15127944946289 A0.36170080304145813 0.36170080304145813 0.0 0 0 9.772147178649902 10.073709487915039 L9.772147178649902 10.073709487915039 M12.096868515014648 12.647201538085938 L12.60312557220459 9.999626159667969 L13.362385749816895 9.999626159667969 L13.362385749816895 10.109070777893066 L13.302371978759766 10.109070777893066 C13.247213363647461 10.109070777893066 13.202640533447266 10.130237579345703 13.170143127441406 10.171574592590332 C13.147233009338379 10.198843002319336 13.128805160522461 10.245906829833984 13.114984512329102 10.310651779174805 C13.105273246765137 10.357467651367188 13.100168228149414 10.481852531433105 13.100168228149414 10.68032169342041 L13.100168228149414 13.328518867492676 C13.100168228149414 13.533462524414062 13.105273246765137 13.662454605102539 13.114984512329102 13.71325397491455 C13.125194549560547 13.764801979064941 13.14586353302002 13.809998512268066 13.176990509033203 13.848471641540527 C13.208367347717285 13.886695861816406 13.250202178955078 13.906119346618652 13.302495956420898 13.906119346618652 L13.362510681152344 13.906119346618652 L13.362510681152344 14.015812873840332 L12.388346672058105 14.015812873840332 L12.388346672058105 13.906119346618652 L12.448858261108398 13.906119346618652 C12.504015922546387 13.906119346618652 12.548340797424316 13.885202407836914 12.581087112426758 13.844612121582031 C12.603996276855469 13.817095756530762 12.622424125671387 13.769407272338867 12.636244773864746 13.702298164367676 C12.645956993103027 13.655356407165527 12.65106201171875 13.53010082244873 12.65106201171875 13.328518867492676 L12.65106201171875 10.352237701416016 L11.935503959655762 14.015937805175781 L11.902509689331055 14.015937805175781 L11.175745964050293 10.378883361816406 L11.175745964050293 13.207620620727539 C11.175745964050293 13.404594421386719 11.178359985351562 13.5264892578125 11.182718276977539 13.571935653686523 C11.194297790527344 13.670422554016113 11.220444679260254 13.751603126525879 11.26041316986084 13.813360214233398 C11.30038070678711 13.875117301940918 11.36313247680664 13.906245231628418 11.448172569274902 13.906245231628418 L11.448172569274902 14.015937805175781 L10.809686660766602 14.015937805175781 L10.809686660766602 13.906245231628418 L10.828986167907715 13.906245231628418 C10.870074272155762 13.907987594604492 10.908921241760254 13.893793106079102 10.944406509399414 13.86415958404541 C10.980015754699707 13.833780288696289 11.007657051086426 13.792194366455078 11.025712013244629 13.741393089294434 C11.043889999389648 13.68984603881836 11.058457374572754 13.617132186889648 11.068293571472168 13.524249076843262 C11.070161819458008 13.503081321716309 11.071157455444336 13.402229309082031 11.071157455444336 13.222436904907227 L11.071157455444336 10.680445671081543 C11.071157455444336 10.477246284484863 11.066052436828613 10.350619316101074 11.0562162399292 10.300565719604492 C11.04600715637207 10.250638961791992 11.025338172912598 10.205191612243652 10.994086265563965 10.166967391967773 C10.962833404541016 10.128743171691895 10.921122550964355 10.109195709228516 10.868828773498535 10.109195709228516 L10.809562683105469 10.109195709228516 L10.809562683105469 9.999752044677734 L11.571935653686523 9.999752044677734 L12.096868515014648 12.647201538085938 M13.546785354614258 11.96899700164795 L13.546536445617676 12.598642349243164 L13.592728614807129 12.598642349243164 C13.61800479888916 12.444002151489258 13.678516387939453 12.319741249084473 13.773143768310547 12.227603912353516 C13.867770195007324 12.135467529296875 13.982070922851562 12.089024543762207 14.115047454833984 12.089024543762207 C14.278653144836426 12.089024543762207 14.404158592224121 12.163232803344727 14.491066932678223 12.311773300170898 C14.578348159790039 12.460311889648438 14.625536918640137 12.657535552978516 14.63238525390625 12.902944564819336 L13.937122344970703 12.902944564819336 L13.937122344970703 13.030069351196289 L14.63238525390625 13.030069351196289 C14.63238525390625 13.314573287963867 14.586938858032227 13.529104232788086 14.495424270629883 13.672290802001953 C14.40428352355957 13.815476417541504 14.273174285888672 13.887568473815918 14.103716850280762 13.887568473815918 C13.996265411376953 13.887568473815918 13.907489776611328 13.866151809692383 13.837639808654785 13.823819160461426 C13.768038749694824 13.781485557556152 13.686359405517578 13.70590877532959 13.592728614807129 13.597211837768555 L13.533586502075195 13.655107498168945 C13.637676239013672 13.799041748046875 13.741766929626465 13.895660400390625 13.844861030578613 13.943472862243652 C13.948204040527344 13.991409301757812 14.064496040344238 14.015937805175781 14.193114280700684 14.015937805175781 C14.454336166381836 14.015937805175781 14.669488906860352 13.919193267822266 14.837825775146484 13.726078033447266 C15.006163597106934 13.532465934753418 15.090456008911133 13.288551330566406 15.090456008911133 12.995580673217773 C15.090456008911133 12.776193618774414 15.04550838470459 12.587312698364258 14.95573616027832 12.429184913635254 C14.865715980529785 12.270684242248535 14.753907203674316 12.154143333435059 14.620930671691895 12.080184936523438 C14.48770523071289 12.0062255859375 14.351739883422852 11.96899700164795 14.213783264160156 11.96899700164795 C14.100231170654297 11.96899700164795 13.973230361938477 11.997758865356445 13.83315658569336 12.055780410766602 C13.772893905639648 12.080557823181152 13.729814529418945 12.093008995056152 13.70528507232666 12.093008995056152 C13.652493476867676 12.093008995056152 13.614518165588379 12.051671981811523 13.592728614807129 11.96899700164795 L13.546785354614258 11.96899700164795 L13.546785354614258 11.96899700164795 M15.243230819702148 12.013446807861328 L16.146923065185547 12.01382064819336 L16.146923065185547 12.067234992980957 L16.117536544799805 12.067234992980957 C16.032373428344727 12.067234992980957 15.97497272491455 12.08479118347168 15.946584701538086 12.11977767944336 C15.91832160949707 12.154766082763672 15.903754234313965 12.221877098083496 15.903754234313965 12.319616317749023 L15.903754234313965 12.904190063476562 C16.023408889770508 12.904190063476562 16.10097885131836 12.899832725524902 16.136960983276367 12.890618324279785 C16.17269515991211 12.881404876708984 16.20606231689453 12.854884147644043 16.236692428588867 12.811305046081543 C16.267322540283203 12.767477989196777 16.29695701599121 12.68293571472168 16.324970245361328 12.55817699432373 C16.358339309692383 12.41175365447998 16.390588760375977 12.302061080932617 16.421714782714844 12.228849411010742 C16.452842712402344 12.155885696411133 16.495922088623047 12.097491264343262 16.550830841064453 12.055033683776855 C16.60573959350586 12.012202262878418 16.675090789794922 11.990537643432617 16.757766723632812 11.990537643432617 C16.839445114135742 11.990537643432617 16.90543556213379 12.016809463500977 16.954740524291992 12.068854331970215 C17.004045486450195 12.121646881103516 17.029197692871094 12.186266899108887 17.029197692871094 12.263213157653809 C17.029197692871094 12.322854042053223 17.012638092041016 12.370416641235352 16.979642868041992 12.404532432556152 C16.946523666381836 12.43927001953125 16.90443992614746 12.456826210021973 16.855133056640625 12.456826210021973 C16.757892608642578 12.456826210021973 16.70534896850586 12.393077850341797 16.69775390625 12.266450881958008 C16.69438934326172 12.203200340270996 16.674345016479492 12.171076774597168 16.63861083984375 12.171076774597168 C16.600387573242188 12.171076774597168 16.567392349243164 12.195853233337402 16.54037094116211 12.244786262512207 C16.512855529785156 12.293469429016113 16.48322296142578 12.381747245788574 16.451597213745117 12.50912094116211 C16.421466827392578 12.633131980895996 16.394695281982422 12.726513862609863 16.372533798217773 12.788270950317383 A0.43603312969207764 0.43603312969207764 0.0 0 1 16.27765655517578 12.944905281066895 C16.332191467285156 12.959970474243164 16.37415313720703 12.98063850402832 16.403661727905273 13.005167007446289 C16.43304443359375 13.03044319152832 16.460063934326172 13.063313484191895 16.483970642089844 13.10265827178955 C16.50750160217285 13.142252922058105 16.558923721313477 13.243977546691895 16.637117385864258 13.406587600708008 L16.813920974731445 13.761688232421875 C16.8414363861084 13.814231872558594 16.873933792114258 13.853825569152832 16.911911010742188 13.878852844238281 C16.949634552001953 13.904376029968262 16.996078491210938 13.917574882507324 17.049741744995117 13.917574882507324 L17.049741744995117 13.970865249633789 L16.468280792236328 13.970865249633789 L16.11106300354004 13.220444679260254 C16.070222854614258 13.136027336120605 16.039844512939453 13.084230422973633 16.020793914794922 13.06679916381836 C16.00174331665039 13.049367904663086 15.962397575378418 13.038536071777344 15.903630256652832 13.035921096801758 L15.903630256652832 13.698063850402832 C15.903630256652832 13.792691230773926 15.920936584472656 13.852705955505371 15.955425262451172 13.878727912902832 C15.989666938781738 13.904501914978027 16.053913116455078 13.917574882507324 16.14679718017578 13.917574882507324 L16.14679718017578 13.970865249633789 L15.2431058883667 13.970865249633789 L15.2431058883667 13.917574882507324 C15.3428373336792 13.915831565856934 15.408205032348633 13.899147033691406 15.439332962036133 13.868019104003906 C15.470459938049316 13.83664321899414 15.486272811889648 13.769283294677734 15.486272811889648 13.666439056396484 L15.486272811889648 12.357343673706055 C15.486272811889648 12.243043899536133 15.473821640014648 12.165722846984863 15.449294090270996 12.12650203704834 C15.424516677856445 12.086907386779785 15.36811351776123 12.067111015319824 15.280333518981934 12.067111015319824 L15.2431058883667 12.067111015319824 L15.2431058883667 12.013446807861328 L15.243230819702148 12.013446807861328 L15.243230819702148 12.013446807861328 M18.775447845458984 11.96899700164795 L18.775447845458984 12.647201538085938 L18.725643157958984 12.647201538085938 C18.68816375732422 12.47039794921875 18.617942810058594 12.334433555603027 18.51572036743164 12.240303993225098 C18.413372039794922 12.145925521850586 18.297080993652344 12.098735809326172 18.167217254638672 12.098735809326172 C18.059267044067383 12.098735809326172 17.959535598754883 12.133973121643066 17.869016647338867 12.204319953918457 C17.778247833251953 12.274295806884766 17.712135314941406 12.366557121276855 17.670299530029297 12.47986125946045 C17.61676025390625 12.625039100646973 17.58986473083496 12.787026405334473 17.58986473083496 12.964826583862305 C17.58986473083496 13.14013671875 17.60953712463379 13.299633026123047 17.648757934570312 13.443192481994629 C17.687854766845703 13.587374687194824 17.74948501586914 13.69607162475586 17.832908630371094 13.769782066345215 C17.916828155517578 13.843242645263672 18.02527618408203 13.880221366882324 18.158252716064453 13.880221366882324 C18.267446517944336 13.880221366882324 18.367677688598633 13.853203773498535 18.45832061767578 13.799539566040039 C18.549089431762695 13.745502471923828 18.645334243774414 13.652369499206543 18.746063232421875 13.52088737487793 L18.746063232421875 13.68984603881836 C18.648820877075195 13.804145812988281 18.54759407043457 13.887069702148438 18.442134857177734 13.938616752624512 C18.33679962158203 13.989914894104004 18.213285446166992 14.015937805175781 18.072465896606445 14.015937805175781 C17.88744354248047 14.015937805175781 17.72271728515625 13.973854064941406 17.579282760620117 13.89043140411377 C17.435348510742188 13.806760787963867 17.324161529541016 13.686359405517578 17.24609375 13.529603004455566 A1.1112494468688965 1.1112494468688965 0.0 0 1 17.128929138183594 13.02869987487793 C17.128929138183594 12.841935157775879 17.172508239746094 12.66488265991211 17.259042739868164 12.497790336608887 C17.34532928466797 12.329951286315918 17.462615966796875 12.199838638305664 17.609663009643555 12.10770034790039 C17.756832122802734 12.0154390335083 17.913341522216797 11.969120979309082 18.078815460205078 11.969120979309082 C18.200834274291992 11.969120979309082 18.330076217651367 11.999004364013672 18.465667724609375 12.05864429473877 C18.544233322143555 12.093132972717285 18.594036102294922 12.110689163208008 18.61545181274414 12.110689163208008 A0.09213721007108688 0.09213721007108688 0.0 0 0 18.686174392700195 12.076947212219238 C18.706592559814453 12.054535865783691 18.719791412353516 12.018302917480469 18.72551727294922 11.969245910644531 L18.775447845458984 11.969245910644531 L18.775447845458984 11.96899700164795 L18.775447845458984 11.96899700164795" fill="black" fill-opacity="1.0" filling="0"/>
<path animation_id="2" d="M21.649629592895508 10.022412300109863 L13.771774291992188 10.021913528442383 C13.711262702941895 10.021913528442383 13.614643096923828 10.079562187194824 13.614643096923828 10.203697204589844 C13.614643096923828 10.327834129333496 13.71163558959961 10.385482788085938 13.771774291992188 10.385482788085938 L19.107515335083008 10.385482788085938 C20.00759506225586 10.385482788085938 20.74170684814453 11.11971664428711 20.74170684814453 12.019797325134277 C20.74170684814453 12.920002937316895 20.00759506225586 13.654236793518066 19.107515335083008 13.654236793518066 C19.055967330932617 13.656229019165039 18.94017219543457 13.700429916381836 18.93631362915039 13.834402084350586 C18.932703018188477 13.968374252319336 19.027080535888672 14.013572692871094 19.107765197753906 14.01730728149414 L21.649755477905273 14.01730728149414 C22.749923706054688 14.01730728149414 23.64726448059082 13.119965553283691 23.64726448059082 12.019797325134277 C23.64726448059082 10.919629096984863 22.749797821044922 10.022412300109863 21.649629592895508 10.022412300109863 L21.649629592895508 10.022412300109863 M2.350370407104492 14.01680850982666 L10.52194595336914 14.01730728149414 C10.582456588745117 14.01730728149414 10.678951263427734 13.9596586227417 10.678951263427734 13.83539867401123 C10.678951263427734 13.711386680603027 10.582082748413086 13.653738975524902 10.52194595336914 13.653738975524902 L4.8926100730896 13.653738975524902 C3.99252986907959 13.653738975524902 3.258419990539551 12.919629096984863 3.258419990539551 12.019298553466797 C3.258419990539551 11.119218826293945 3.99252986907959 10.385108947753906 4.8926100730896 10.385108947753906 C4.944033145904541 10.382991790771484 5.0599517822265625 10.338791847229004 5.063686847686768 10.204818725585938 C5.067422389984131 10.070846557617188 4.97291898727417 10.025774002075195 4.892361164093018 10.021913528442383 L2.350370407104492 10.021913528442383 C1.2502021789550781 10.021913528442383 0.3528604507446289 10.919255256652832 0.3528604507446289 12.019298553466797 C0.3528604507446289 13.119467735290527 1.2503271102905273 14.01680850982666 2.350370407104492 14.01680850982666 L2.350370407104492 14.01680850982666" fill="black" fill-opacity="1.0" filling="0"/></svg>