<?xml version="1.0" encoding="iso-8859-1"?><svg height="200px" viewBox="0.0 0.0 24.0 24.0" width="200px" xmlns="http://www.w3.org/2000/svg"><path animation_id="0" d="M0.0 0.0 L24.0 0.0 L24.0 24.0 L0.0 24.0 L0.0 0.0" fill="black" fill-opacity="1.0" filling="0"/>
<path animation_id="1" d="M7.328768253326416 14.242794036865234 L7.328768253326416 9.571561813354492 L8.431550979614258 9.571561813354492 L8.431550979614258 13.301002502441406 L9.744879722595215 13.301002502441406 L9.744879722595215 14.242794036865234 L7.328768253326416 14.242794036865234 L7.328768253326416 14.242794036865234 M12.76810073852539 13.747121810913086 C12.532652854919434 14.1806640625 12.111560821533203 14.354106903076172 11.467223167419434 14.354106903076172 C10.847662925720215 14.354106903076172 10.463550567626953 14.193114280700684 10.228102684020996 13.77189826965332 C10.017431259155273 13.40011215209961 10.005105018615723 12.854884147644043 10.005105018615723 12.086658477783203 L10.005105018615723 9.571561813354492 L11.095437049865723 9.571561813354492 L11.095437049865723 12.495798110961914 C11.095437049865723 13.140010833740234 11.107887268066406 13.487020492553711 11.491999626159668 13.487020492553711 C11.863661766052246 13.487020492553711 11.863661766052246 13.152338027954102 11.863661766052246 12.557555198669434 L11.863661766052246 9.571561813354492 L12.941667556762695 9.571561813354492 L12.941667556762695 12.545103073120117 C12.941667556762695 13.02857494354248 12.929341316223145 13.42488956451416 12.76810073852539 13.747121810913086 L12.76810073852539 13.747121810913086 M15.58077621459961 10.959222793579102 C15.58077621459961 11.405341148376465 15.407334327697754 11.603561401367188 14.949013710021973 11.603561401367188 C14.911785125732422 11.603561401367188 14.86223030090332 11.603561401367188 14.812551498413086 11.591110229492188 L14.812551498413086 10.426445960998535 L14.899333953857422 10.426445960998535 C15.370105743408203 10.426445960998535 15.58077621459961 10.56265926361084 15.58077621459961 10.959222793579102 L15.58077621459961 10.959222793579102 M16.68355941772461 11.021228790283203 C16.68355941772461 10.438896179199219 16.48533821105957 10.005229949951172 16.150781631469727 9.794559478759766 C15.816099166870117 9.596339225769043 15.370105743408203 9.571561813354492 14.7880220413208 9.571561813354492 L13.710017204284668 9.571561813354492 L13.710017204284668 14.255245208740234 L14.812551498413086 14.255245208740234 L14.812551498413086 12.458569526672363 L15.19678783416748 12.458569526672363 C16.175559997558594 12.458569526672363 16.68355941772461 11.962896347045898 16.68355941772461 11.021228790283203 M20.029010772705078 13.747121810913086 C19.806015014648438 14.1806640625 19.384796142578125 14.354106903076172 18.715557098388672 14.354106903076172 C18.108322143554688 14.354106903076172 17.711885452270508 14.193114280700684 17.488887786865234 13.77189826965332 C17.265892028808594 13.40011215209961 17.265892028808594 12.854884147644043 17.265892028808594 12.086658477783203 L17.265892028808594 9.571561813354492 L18.356098175048828 9.571561813354492 L18.356098175048828 12.495798110961914 C18.356098175048828 13.140010833740234 18.368799209594727 13.487020492553711 18.75278663635254 13.487020492553711 C19.111997604370117 13.487020492553711 19.12432289123535 13.152338027954102 19.12432289123535 12.557555198669434 L19.12432289123535 9.571561813354492 L20.22710418701172 9.571561813354492 L20.22710418701172 12.545103073120117 C20.227230072021484 13.02857494354248 20.20245361328125 13.42488956451416 20.029010772705078 13.747121810913086 L20.029010772705078 13.747121810913086 M22.246902465820312 14.354106903076172 C21.30535888671875 14.354106903076172 20.83446502685547 13.87088394165039 20.83446502685547 12.904438972473145 L20.83446502685547 12.656664848327637 L21.838138580322266 12.656664848327637 L21.838138580322266 12.792878150939941 C21.838138580322266 13.276349067687988 21.937122344970703 13.499346733093262 22.234577178955078 13.499346733093262 C22.47002410888672 13.499346733093262 22.60636329650879 13.325655937194824 22.60636329650879 13.04065227508545 C22.60636329650879 12.656664848327637 22.35858917236328 12.545103073120117 21.999130249023438 12.309656143188477 C21.602689743041992 12.03722858428955 21.30535888671875 11.863661766052246 21.13191795349121 11.615887641906738 C20.983129501342773 11.405217170715332 20.89647102355957 11.120339393615723 20.89647102355957 10.773330688476562 C20.89647102355957 9.955550193786621 21.404470443725586 9.460000991821289 22.222000122070312 9.460000991821289 C23.126689910888672 9.460000991821289 23.609786987304688 9.94322395324707 23.609786987304688 10.810558319091797 L23.609786987304688 10.959222793579102 L22.63101577758789 10.959222793579102 L22.63101577758789 10.897217750549316 C22.63101577758789 10.488327026367188 22.494552612304688 10.277656555175781 22.259227752685547 10.277656555175781 C22.061010360717773 10.277656555175781 21.912471771240234 10.426321029663086 21.912471771240234 10.68654727935791 C21.912471771240234 11.02110481262207 22.197223663330078 11.144991874694824 22.593910217285156 11.405217170715332 C22.965450286865234 11.640665054321289 23.262901306152344 11.814107894897461 23.44892120361328 12.086658477783203 C23.585132598876953 12.284878730773926 23.647140502929688 12.557430267333984 23.647140502929688 12.892112731933594 C23.647140502929688 13.83365535736084 23.151466369628906 14.354106903076172 22.246902465820312 14.354106903076172 L22.246902465820312 14.354106903076172 M3.6116533279418945 15.184337615966797 L2.9054346084594727 14.354106903076172 L2.8063249588012695 14.354106903076172 L2.6328840255737305 13.672663688659668 L2.137209892272949 13.747121810913086 L1.307103157043457 13.920562744140625 L1.1335363388061523 13.747121810913086 L0.6998691558837891 13.647886276245117 L0.6255369186401367 13.40011215209961 L0.3900890350341797 13.189566612243652 L0.3528604507446289 12.830106735229492 L0.5264272689819336 12.619560241699219 L0.6007595062255859 12.594782829284668 L0.7989788055419922 12.557555198669434 L1.307103157043457 11.863785743713379 L1.220320701599121 11.764677047729492 L1.3318805694580078 11.516902923583984 L1.1336612701416016 11.343461036682129 L1.678889274597168 10.17879581451416 L1.5797796249389648 8.952126502990723 C1.926788330078125 8.989230155944824 2.100231170654297 9.274232864379883 2.3109006881713867 9.546785354614258 L2.42246150970459 9.695449829101562 L2.8809070587158203 9.695449829101562 L3.3270254135131836 9.100666999816895 L3.5004663467407227 8.927224159240723 L3.6863603591918945 8.81566333770752 L3.996140480041504 9.757329940795898 L4.033244609832764 9.831663131713867 L5.260038375854492 10.389217376708984 L4.91303014755249 10.748553276062012 L4.91303014755249 11.169769287109375 L5.260038375854492 11.516777992248535 L5.396252632141113 11.653116226196289 L5.086472511291504 11.727448463439941 L5.185581684112549 12.346884727478027 L5.3591485023498535 12.76810073852539 L5.012139797210693 12.731121063232422 L5.297142505645752 13.53632640838623 L4.8759260177612305 13.499346733093262 C4.702359199523926 13.78434944152832 5.185581684112549 14.341778755187988 4.8759260177612305 14.354106903076172 L4.2811431884765625 14.378883361816406 L3.760817527770996 15.184337615966797 L3.6116533279418945 15.184337615966797 L3.6116533279418945 15.184337615966797 M3.6487579345703125 14.800349235534668 L3.6487579345703125 14.763120651245117 L3.016871452331543 14.131109237670898 L2.880533218383789 13.573430061340332 L3.2894229888916016 13.647886276245117 C2.707090377807617 13.189441680908203 2.0999813079833984 13.647886276245117 1.4804210662841797 13.709892272949219 L2.4220876693725586 13.251447677612305 L2.5584259033203125 13.152214050292969 L1.0839824676513672 13.536201477050781 L0.9105405807495117 13.437215805053711 L1.1335363388061523 13.437215805053711 L1.2574234008789062 13.325655937194824 L1.4805450439453125 12.904438972473145 L1.4309911727905273 12.829981803894043 L1.195542335510254 12.619436264038086 L1.0839824676513672 12.619436264038086 L1.5795307159423828 11.863661766052246 L1.6167593002319336 11.553881645202637 L1.5795307159423828 11.479549407958984 L1.4308652877807617 11.30598258972168 L1.9264144897460938 10.25287914276123 L1.7900762557983398 9.410198211669922 L2.248520851135254 9.831538200378418 L2.273299217224121 9.90587043762207 L2.3105268478393555 9.980202674865723 L2.979642868041992 9.942975044250488 L3.611530303955078 9.199527740478516 L3.7106399536132812 9.757081985473633 L3.7849721908569336 9.905746459960938 C4.032746315002441 10.215526580810547 4.416858673095703 10.2898588180542 4.726639270782471 10.426072120666504 L4.701861381530762 10.636743545532227 L4.63985538482666 10.859740257263184 L4.838075160980225 11.442072868347168 L4.986739635467529 12.482848167419434 L4.763618469238281 12.420843124389648 L4.937060356140137 13.25107479095459 L4.763618469238281 13.25107479095459 L4.552947998046875 13.498848915100098 L4.4910664558410645 13.920064926147461 L4.515844345092773 14.20506763458252 L4.131731033325195 14.093507766723633 L3.7848472595214844 14.836955070495605 L3.6487579345703125 14.800349235534668 L3.6487579345703125 14.800349235534668 M1.8522071838378906 12.136338233947754 L2.0999813079833984 11.479673385620117 L2.4469900131225586 11.442569732666016 L2.707216262817383 11.306231498718262 L2.94266414642334 11.343461036682129 L2.657660484313965 11.690343856811523 L2.5585508346557617 11.863911628723145 L1.8522071838378906 12.136338233947754 L1.8522071838378906 12.136338233947754" fill="black" fill-opacity="1.0" filling="0"/></svg>