<?xml version="1.0" encoding="iso-8859-1"?><svg height="200px" viewBox="0.0 0.0 24.0 24.0" width="200px" xmlns="http://www.w3.org/2000/svg"><path animation_id="0" d="M0.0 23.999065399169922 L24.0 23.999065399169922 L24.0 0.0009336471557617188 L0.0 0.0009336471557617188 L0.0 23.999065399169922" fill="black" fill-opacity="1.0" filling="0"/>
<path animation_id="1" d="M14.752412796020508 9.711324691772461 L12.928095817565918 11.31911849975586 L12.928095817565918 13.250762939453125 L10.736475944519043 13.250762939453125 L8.257486343383789 15.435410499572754 L12.928095817565918 15.435410499572754 L12.928095817565918 19.427316665649414 L15.236133575439453 17.258108139038086 L15.236133575439453 9.285127639770508 L14.752412796020508 9.711324691772461 M13.693456649780273 9.281765937805176 L10.924983978271484 9.281765937805176 L4.608852386474609 14.848098754882812 L4.608852386474609 17.967193603515625 L14.464048385620117 9.281765937805176 L13.693456649780273 9.281765937805176 L13.693456649780273 9.281765937805176" fill="black" fill-opacity="1.0" filling="0"/>
<path animation_id="2" d="M4.900081157684326 17.322479248046875 L13.693456649780273 9.572869300842285 L11.03492546081543 9.572869300842285 L4.900081157684326 14.979580879211426 L4.900081157684326 17.322479248046875 M13.21944808959961 11.450600624084473 L13.21944808959961 13.541866302490234 L10.846417427062988 13.541866302490234 L9.028326034545898 15.144182205200195 L13.21944808959961 15.144182205200195 L13.21944808959961 18.753969192504883 L14.945029258728027 17.13210678100586 L14.945029258728027 9.929839134216309 L13.21944808959961 11.450600624084473" fill="black" fill-opacity="1.0" filling="0"/>
<path animation_id="3" d="M21.554256439208984 9.452966690063477 L19.903255462646484 9.452966690063477 C19.903255462646484 9.452966690063477 19.922679901123047 9.761377334594727 19.92317771911621 9.766357421875 C19.92168426513672 9.908547401428223 19.760692596435547 10.028326034545898 19.570316314697266 10.028326034545898 L19.279212951660156 10.028326034545898 L19.2772216796875 10.319430351257324 L19.2772216796875 11.27466869354248 L19.838510513305664 11.27466869354248 L19.838510513305664 14.215713500976562 C19.838510513305664 15.050924301147461 20.639358520507812 15.431302070617676 21.382930755615234 15.431302070617676 C21.865901947021484 15.431302070617676 22.47799301147461 15.36394214630127 22.50401496887207 15.361202239990234 L22.762996673583984 15.332441329956055 L22.762996673583984 14.143746376037598 L21.992528915405273 14.143746376037598 C21.864410400390625 14.143746376037598 21.845359802246094 13.966320037841797 21.845359802246094 13.860736846923828 L21.845359802246094 11.274792671203613 L22.940921783447266 11.274792671203613 L22.940921783447266 10.028077125549316 L21.845359802246094 10.028077125549316 L21.845359802246094 9.452966690063477 L21.554256439208984 9.452966690063477 L21.554256439208984 9.452966690063477 M1.0588302612304688 14.06717300415039 L11.007035255432129 5.299819469451904 L8.348627090454102 5.299819469451904 L1.0588302612304688 11.724397659301758 L1.0588302612304688 14.06717300415039 M21.059951782226562 5.747681140899658 C20.125131607055664 5.747681140899658 19.367116928100586 6.516653537750244 19.367116928100586 7.465168476104736 C19.367116928100586 8.413683891296387 20.125131607055664 9.182531356811523 21.059951782226562 9.182531356811523 C21.994770050048828 9.182531356811523 22.752784729003906 8.413683891296387 22.752784729003906 7.465168476104736 C22.752784729003906 6.516653537750244 21.994646072387695 5.747681140899658 21.059951782226562 5.747681140899658 L21.059951782226562 5.747681140899658 M21.059951782226562 8.102534294128418 C20.730499267578125 8.102534294128418 20.463176727294922 7.817157745361328 20.463176727294922 7.465168476104736 C20.463176727294922 7.1130547523498535 20.73037338256836 6.827678680419922 21.059951782226562 6.827678680419922 C21.389652252197266 6.827678680419922 21.656726837158203 7.1130547523498535 21.656726837158203 7.465168476104736 C21.656726837158203 7.817157745361328 21.389652252197266 8.102534294128418 21.059951782226562 8.102534294128418 M8.783166885375977 9.572869300842285 L6.710204124450684 9.572869300842285 L4.8919878005981445 11.175310134887695 L8.783166885375977 11.175310134887695 L8.783166885375977 14.209611892700195 L11.04289436340332 12.218079566955566 L11.04289436340332 5.756646156311035 L8.783166885375977 7.748178958892822 L8.783166885375977 9.572869300842285 M15.200647354125977 5.75863790512085 L14.059142112731934 5.75863790512085 L14.059142112731934 7.781174182891846 C14.042333602905273 7.98848295211792 13.763431549072266 8.153707504272461 13.4205322265625 8.153707504272461 C13.077631950378418 8.153707504272461 12.798978805541992 7.98848295211792 12.782171249389648 7.781174182891846 L12.782171249389648 5.75863790512085 L11.640665054321289 5.75863790512085 L11.640665054321289 7.641847610473633 L11.640914916992188 7.641847610473633 C11.645023345947266 8.387038230895996 12.440266609191895 8.990163803100586 13.4205322265625 8.990163803100586 C14.403535842895508 8.990163803100586 15.200647354125977 8.383926391601562 15.200647354125977 7.635995864868164 C15.200647354125977 7.621801853179932 15.19940185546875 7.60773229598999 15.19865608215332 7.593911647796631 L15.200647354125977 7.593911647796631 L15.200647354125977 5.75863790512085 L15.200647354125977 5.75863790512085 M17.71275520324707 6.628338813781738 L18.808319091796875 6.628338813781738 L18.808319091796875 5.75863790512085 L17.71275520324707 5.75863790512085 L17.71275520324707 5.18352746963501 L16.371788024902344 5.18352746963501 C16.37203598022461 5.190251350402832 16.373031616210938 5.196849822998047 16.373031616210938 5.20369815826416 C16.373031616210938 5.5102410316467285 16.084667205810547 5.758886814117432 15.728816986083984 5.758886814117432 L15.726825714111328 5.758762359619141 L15.726825714111328 6.628338813781738 L16.288366317749023 6.628338813781738 L16.288366317749023 9.490693092346191 C16.288366317749023 9.963207244873047 17.069040298461914 10.12756061553955 17.541431427001953 10.12756061553955 C18.01382064819336 10.12756061553955 18.630146026611328 10.059080123901367 18.630146026611328 10.059080123901367 L18.630146026611328 9.216771125793457 L17.904502868652344 9.216771125793457 C17.76704216003418 9.216771125793457 17.724334716796875 9.084418296813965 17.712631225585938 8.971113204956055 L17.712631225585938 6.628338813781738 L17.71275520324707 6.628338813781738 L17.71275520324707 6.628338813781738" fill="black" fill-opacity="1.0" filling="0"/>
<path animation_id="4" d="M21.554256439208984 10.983565330505371 L22.650066375732422 10.983565330505371 L22.650066375732422 10.319305419921875 L21.554256439208984 10.319305419921875 L21.554256439208984 9.744194984436035 L20.213285446166992 9.744194984436035 C20.213783264160156 9.7509183883667 20.21453094482422 9.75751781463623 20.21453094482422 9.764366149902344 C20.21453094482422 10.070908546447754 19.926166534423828 10.319430351257324 19.570316314697266 10.319430351257324 L19.56832504272461 10.319430351257324 L19.56832504272461 10.983565330505371 L20.129863739013672 10.983565330505371 L20.129863739013672 14.215713500976562 C20.129863739013672 14.934757232666016 20.910539627075195 15.140198707580566 21.382930755615234 15.140198707580566 C21.85531997680664 15.140198707580566 22.471893310546875 15.071718215942383 22.471893310546875 15.071718215942383 L22.471893310546875 14.434850692749023 L21.992528915405273 14.434850692749023 C21.766918182373047 14.434850692749023 21.55413055419922 14.265018463134766 21.55413055419922 13.860611915588379 L21.55413055419922 10.983565330505371 L21.554256439208984 10.983565330505371" fill="black" fill-opacity="1.0" filling="0"/>
<path animation_id="5" d="M17.08099365234375 11.297453880310059 L15.833406448364258 11.297453880310059 L15.833406448364258 15.25412368774414 L17.47145652770996 15.25412368774414 L17.47145652770996 13.588682174682617 C17.56558609008789 13.119155883789062 17.992156982421875 12.77949333190918 18.494552612304688 12.779244422912598 L18.802963256835938 12.786216735839844 L18.79785919189453 12.48838996887207 L18.79785919189453 11.339787483215332 L18.501399993896484 11.322356224060059 L18.5299129486084 11.324223518371582 C18.132976531982422 11.276660919189453 17.735916137695312 11.354853630065918 17.37209701538086 11.546348571777344 L17.37209701538086 11.297577857971191 L17.08099365234375 11.297577857971191 L17.08099365234375 11.297453880310059 L17.08099365234375 11.297453880310059" fill="black" fill-opacity="1.0" filling="0"/>
<path animation_id="6" d="M18.49505043029785 11.613210678100586 C17.969745635986328 11.550209045410156 17.468841552734375 11.752038955688477 17.08099365234375 12.104774475097656 L17.08099365234375 11.588558197021484 L16.124509811401367 11.588558197021484 L16.124509811401367 14.963020324707031 L17.18035125732422 14.963020324707031 L17.18035125732422 13.553445816040039 C17.290294647216797 12.948204040527344 17.83689308166504 12.488016128540039 18.49505043029785 12.488016128540039 L18.50675392150879 12.48838996887207 L18.50675392150879 11.613459587097168 C18.502769470214844 11.613459587097168 18.498910903930664 11.6135835647583 18.49505043029785 11.613210678100586" fill="black" fill-opacity="1.0" filling="0"/>
<path animation_id="7" d="M20.39942741394043 17.434911727905273 L20.39942741394043 16.684494018554688 L20.994709014892578 16.684494018554688 C21.27996063232422 16.684494018554688 21.455020904541016 16.809499740600586 21.455020904541016 17.04469871520996 C21.455020904541016 17.20979881286621 21.425140380859375 17.43503761291504 20.944780349731445 17.43503761291504 L20.39942741394043 17.43503761291504 L20.39942741394043 17.434911727905273 M20.20431900024414 16.49424171447754 L20.20431900024414 18.615638732910156 L20.399303436279297 18.615638732910156 L20.399303436279297 17.609973907470703 L20.904687881469727 17.609973907470703 L21.51017951965332 18.615638732910156 L21.785221099853516 18.615638732910156 L21.13976287841797 17.609973907470703 C21.374961853027344 17.57000732421875 21.67017364501953 17.47488021850586 21.67017364501953 17.074581146240234 C21.660213470458984 16.75944709777832 21.560230255126953 16.49424171447754 20.98487091064453 16.49424171447754 L20.20431900024414 16.49424171447754 M20.8597412109375 15.723650932312012 C20.124385833740234 15.723650932312012 19.148727416992188 16.334121704101562 19.10863494873047 17.464670181274414 C19.10863494873047 18.59048843383789 19.919193267822266 19.33094596862793 20.884891510009766 19.350994110107422 C21.770530700683594 19.350994110107422 22.635995864868164 18.670547485351562 22.666004180908203 17.519702911376953 C22.665878295898438 16.884456634521484 22.190750122070312 15.733736038208008 20.8597412109375 15.723650932312012 L20.8597412109375 15.723650932312012 M20.894725799560547 19.165971755981445 C19.994272232055664 19.165971755981445 19.323787689208984 18.430492401123047 19.323787689208984 17.464794158935547 C19.363630294799805 16.614269256591797 20.034116744995117 15.908921241760254 20.874805450439453 15.908921241760254 C21.785221099853516 15.918882369995117 22.430679321289062 16.634315490722656 22.450849533081055 17.514846801757812 C22.450849533081055 18.450664520263672 21.695323944091797 19.155887603759766 20.894725799560547 19.165971755981445" fill="black" fill-opacity="1.0" filling="0"/></svg>