<?xml version="1.0" encoding="iso-8859-1"?><svg height="200px" viewBox="0.0 0.0 24.0 24.0" width="200px" xmlns="http://www.w3.org/2000/svg"><path animation_id="0" d="M0.0 0.0 L24.0 0.0 L24.0 24.0 L0.0 24.0 L0.0 0.0" fill="black" fill-opacity="1.0" filling="0"/>
<path animation_id="1" d="M5.543173789978027 6.686796188354492 L11.599203109741211 0.6307668685913086 A0.6107203364372253 0.6107203364372253 0.0 0 1 12.460311889648438 0.6307668685913086 L18.516342163085938 6.686796188354492 A0.610471248626709 0.610471248626709 0.0 0 1 18.516342163085938 7.547780513763428 L12.460311889648438 13.60381031036377 A0.6107203364372253 0.6107203364372253 0.0 0 1 11.599203109741211 13.60381031036377 L5.543173789978027 7.547780513763428 C5.306480884552002 7.3110880851745605 5.306480884552002 6.923488616943359 5.543173789978027 6.686796188354492" fill="none" filling="0" stroke="black" stroke-opacity="1.0" stroke-width=".3"/>
<path animation_id="2" d="M5.080495834350586 9.293407440185547 L5.080495834350586 10.900080680847168 L11.995518684387207 17.81510353088379 L18.91938018798828 10.900080680847168 L18.91938018798828 9.284442901611328 L12.004358291625977 16.199464797973633 L5.080495834350586 9.293407440185547 M5.080495834350586 11.362260818481445 L5.080495834350586 12.968935012817383 L11.995518684387207 19.883956909179688 L18.91938018798828 12.968935012817383 L18.91938018798828 11.353421211242676 L12.004358291625977 18.268444061279297 L5.080495834350586 11.362260818481445 L5.080495834350586 11.362260818481445" fill="black" fill-opacity="1.0" filling="0"/>
<path animation_id="3" d="M6.155637264251709 6.728133201599121 L11.629085540771484 1.2548093795776367 A0.5519517064094543 0.5519517064094543 0.0 0 1 12.40739631652832 1.2548093795776367 L17.880718231201172 6.728133201599121 A0.5518271923065186 0.5518271923065186 0.0 0 1 17.880718231201172 7.506319046020508 L12.40739631652832 12.979767799377441 A0.5519517064094543 0.5519517064094543 0.0 0 1 11.629085540771484 12.979767799377441 L6.155637264251709 7.506319046020508 A0.5520762205123901 0.5520762205123901 0.0 0 1 6.155637264251709 6.728133201599121" fill="none" filling="0" stroke="black" stroke-opacity="1.0" stroke-width=".3"/>
<path animation_id="4" d="M6.879661560058594 6.77594518661499 L11.680882453918457 1.974848747253418 A0.48396939039230347 0.48396939039230347 0.0 0 1 12.363443374633789 1.974848747253418 L17.16466522216797 6.77594518661499 A0.48409387469291687 0.48409387469291687 0.0 0 1 17.16466522216797 7.45863151550293 L12.363443374633789 12.259727478027344 A0.48396939039230347 0.48396939039230347 0.0 0 1 11.680882453918457 12.259727478027344 L6.879661560058594 7.45863151550293 A0.48434293270111084 0.48434293270111084 0.0 0 1 6.879661560058594 6.77594518661499" fill="black" fill-opacity="1.0" filling="0"/>
<path animation_id="5" d="M10.071966171264648 4.035111904144287 C9.921185493469238 4.1099419593811035 9.736536979675293 4.792255401611328 9.832160949707031 4.938679218292236 C9.657349586486816 5.174625396728516 9.226421356201172 6.312270164489746 10.570629119873047 6.524932861328125 C11.24161148071289 6.6312642097473145 12.101102828979492 6.222997188568115 12.964203834533691 6.625412940979004 C13.81049633026123 7.020357131958008 13.766420364379883 7.369856357574463 13.321670532226562 8.325095176696777 C12.921621322631836 9.183963775634766 11.366992950439453 9.451160430908203 11.534334182739258 8.171948432922363 C11.665567398071289 7.166905403137207 12.368175506591797 7.136151313781738 12.845296859741211 7.044761657714844 C12.450352668762207 6.781050205230713 11.245098114013672 6.805578231811523 10.47525405883789 7.484281063079834 C9.861421585083008 8.025525093078613 9.859304428100586 8.400921821594238 9.76144027709961 8.722779273986816 C9.583391189575195 9.024591445922852 9.26115894317627 9.286931991577148 9.418539047241211 9.40932559967041 L12.779929161071777 9.408703804016113 C13.559858322143555 9.408827781677246 15.408702850341797 9.011143684387207 15.476561546325684 6.976156234741211 C15.535454750061035 5.234015941619873 14.030879020690918 4.696507930755615 13.363258361816406 4.696383476257324 L10.910788536071777 4.697005748748779 C10.490942001342773 4.695885181427002 10.275789260864258 4.33928918838501 10.071966171264648 4.035111904144287 L10.071966171264648 4.035111904144287 M10.883147239685059 6.859241962432861 C10.290730476379395 6.805453777313232 9.785346031188965 6.744070529937744 9.638921737670898 6.439394950866699 C9.484779357910156 6.118159770965576 9.228787422180176 6.264707565307617 9.207869529724121 6.361078262329102 C9.186952590942383 6.457448959350586 9.22293472290039 6.805329322814941 9.10415267944336 6.913154602050781 C8.985245704650879 7.020979881286621 9.077134132385254 7.157442569732666 9.15333366394043 7.258420467376709 C9.229534149169922 7.359522342681885 9.381187438964844 7.468592643737793 9.309219360351562 7.612277030944824 C9.23725414276123 7.755836486816406 9.505945205688477 7.926913261413574 9.609662055969238 7.8172197341918945 C9.71337890625 7.707775592803955 10.130859375 7.04550838470459 10.883147239685059 6.859241962432861 L10.883147239685059 6.859241962432861" fill="black" fill-opacity="1.0" filling="0"/>
<path animation_id="6" d="M5.125319480895996 20.314138412475586 L18.873435974121094 20.314138412475586 L18.873435974121094 21.932891845703125 L5.125319480895996 21.932891845703125 L5.125319480895996 20.314138412475586" fill="black" fill-opacity="1.0" filling="0"/>
<path animation_id="7" d="M5.125319480895996 20.314138412475586 L18.873435974121094 20.314138412475586 L18.873435974121094 23.546783447265625 L5.125319480895996 23.546783447265625 L5.125319480895996 20.314138412475586" fill="none" filling="0" stroke="black" stroke-opacity="1.0" stroke-width=".3"/>
<path animation_id="8" d="M5.820830821990967 20.59988784790039 L6.094503402709961 20.59988784790039 L6.094503402709961 21.00728416442871 L6.361451625823975 20.59988784790039 L6.680196762084961 20.59988784790039 L6.32683801651001 21.09307098388672 L6.689535140991211 21.618253707885742 L6.350744247436523 21.618253707885742 L6.094503402709961 21.2021427154541 L6.094503402709961 21.618253707885742 L5.820830821990967 21.618253707885742 L5.820830821990967 20.59988784790039 M7.19342565536499 20.59988784790039 L7.522878646850586 20.59988784790039 L7.852331638336182 21.618253707885742 L7.560107231140137 21.618253707885742 L7.50968074798584 21.44232177734375 L7.206872940063477 21.44232177734375 L7.154952526092529 21.618253707885742 L6.862852573394775 21.618253707885742 L7.19342565536499 20.59988784790039 M7.258544921875 21.218204498291016 L7.457760334014893 21.218204498291016 L7.358152389526367 20.858741760253906 L7.258544921875 21.218204498291016 L7.258544921875 21.218204498291016 M8.118534088134766 20.59988784790039 L8.960593223571777 20.59988784790039 L8.960593223571777 21.618253707885742 L8.687044143676758 21.618253707885742 L8.687044143676758 20.84429931640625 L8.392081260681152 20.84429931640625 L8.392081260681152 21.618253707885742 L8.118534088134766 21.618253707885742 L8.118534088134766 20.59988784790039 M9.319803237915039 20.59988784790039 L9.724834442138672 20.59988784790039 C9.823944091796875 20.59988784790039 9.898151397705078 20.623170852661133 9.947332382202148 20.66973876953125 C9.996514320373535 20.716304779052734 10.02938461303711 20.76772689819336 10.04619312286377 20.82387924194336 C10.05241870880127 20.84429931640625 10.056777000427246 20.864347457885742 10.059515953063965 20.884267807006836 C10.06213092803955 20.904190063476562 10.063499450683594 20.922866821289062 10.063499450683594 20.94029998779297 C10.063499450683594 20.95772933959961 10.06213092803955 20.97640609741211 10.059515953063965 20.99620246887207 A0.37352922558784485 0.37352922558784485 0.0 0 1 10.04619312286377 21.056591033935547 C10.030256271362305 21.112743377685547 9.997509956359863 21.164413452148438 9.947831153869629 21.21147918701172 C9.898275375366211 21.258544921875 9.823819160461426 21.281951904296875 9.724708557128906 21.281951904296875 L9.593101501464844 21.281951904296875 L9.593101501464844 21.618003845214844 L9.319554328918457 21.618003845214844 L9.319554328918457 20.59988784790039 L9.319803237915039 20.59988784790039 L9.319803237915039 20.59988784790039 M9.593351364135742 21.058208465576172 L9.654485702514648 21.058208465576172 C9.692585945129395 21.058208465576172 9.720476150512695 21.051361083984375 9.738155364990234 21.03778839111328 A0.10558426380157471 0.10558426380157471 0.0 0 0 9.774015426635742 20.99408721923828 C9.777501106262207 20.983503341674805 9.779742240905762 20.97329330444336 9.780613899230957 20.963581085205078 C9.781485557556152 20.953868865966797 9.781984329223633 20.946151733398438 9.781984329223633 20.94029998779297 A0.20668616890907288 0.20668616890907288 0.0 0 0 9.779369354248047 20.905311584472656 A0.1091950461268425 0.1091950461268425 0.0 0 0 9.746125221252441 20.849281311035156 C9.728445053100586 20.83222198486328 9.6979398727417 20.82375717163086 9.654485702514648 20.82375717163086 L9.593351364135742 20.82375717163086 L9.593351364135742 21.058208465576172 L9.593351364135742 21.058208465576172 M10.834589004516602 21.647388458251953 C10.671606063842773 21.647388458251953 10.54759407043457 21.593475341796875 10.462677955627441 21.485898971557617 C10.37763786315918 21.37820053100586 10.33518123626709 21.252567291259766 10.33518123626709 21.1090087890625 C10.33518123626709 20.966445922851562 10.377016067504883 20.841188430786133 10.460685729980469 20.732990264892578 C10.544356346130371 20.62479019165039 10.668991088867188 20.57075309753418 10.834589004516602 20.57075309753418 L10.847786903381348 20.57075309753418 C11.013385772705078 20.57075309753418 11.138019561767578 20.62479019165039 11.221689224243164 20.732990264892578 C11.305360794067383 20.841062545776367 11.347195625305176 20.966445922851562 11.347195625305176 21.1090087890625 C11.347195625305176 21.252567291259766 11.305360794067383 21.377700805664062 11.221689224243164 21.484529495239258 C11.138019561767578 21.591110229492188 11.013385772705078 21.645023345947266 10.847786903381348 21.646018981933594 L10.834589004516602 21.647388458251953 M10.839942932128906 21.40297508239746 C10.848783493041992 21.40297508239746 10.858121871948242 21.40222930908203 10.867834091186523 21.40073585510254 C10.877544403076172 21.399240493774414 10.887256622314453 21.396625518798828 10.896967887878418 21.392765045166016 C10.939550399780273 21.38006591796875 10.978273391723633 21.351802825927734 11.013260841369629 21.307601928710938 C11.048248291015625 21.263525009155273 11.065679550170898 21.197160720825195 11.065679550170898 21.108882904052734 C11.065679550170898 21.020732879638672 11.047999382019043 20.954492568969727 11.012513160705566 20.910289764404297 C10.977152824401855 20.866214752197266 10.938554763793945 20.837825775146484 10.896967887878418 20.82512664794922 C10.887256622314453 20.8223876953125 10.877793312072754 20.819896697998047 10.86845588684082 20.81790542602539 C10.859116554260254 20.8159122467041 10.850028038024902 20.815040588378906 10.841188430786133 20.815040588378906 A0.16522443294525146 0.16522443294525146 0.0 0 0 10.780054092407227 20.82662010192871 C10.739338874816895 20.840068817138672 10.701986312866211 20.868953704833984 10.66787052154541 20.913028717041016 C10.63375473022461 20.957107543945312 10.61669635772705 21.022472381591797 10.61669635772705 21.10863494873047 C10.61669635772705 21.195045471191406 10.63375473022461 21.26028823852539 10.66787052154541 21.304365158081055 C10.701986312866211 21.34844207763672 10.739338874816895 21.37732696533203 10.780054092407227 21.390897750854492 C10.789765357971191 21.394758224487305 10.799726486206055 21.397747039794922 10.8099365234375 21.399614334106445 C10.820145606994629 21.4021053314209 10.830106735229492 21.40297508239746 10.839942932128906 21.40297508239746 L10.839942932128906 21.40297508239746 M12.487455368041992 20.59988784790039 L12.487455368041992 21.618253707885742 L12.213908195495605 21.618253707885742 L12.213908195495605 20.84429931640625 L12.041213035583496 20.84429931640625 L12.041213035583496 21.245845794677734 C12.041213035583496 21.267261505126953 12.040590286254883 21.290420532226562 12.039220809936523 21.315818786621094 A0.5291664004325867 0.5291664004325867 0.0 0 1 12.02925968170166 21.39289093017578 C12.017680168151855 21.452903747558594 11.989168167114258 21.507564544677734 11.943597793579102 21.556495666503906 C11.898026466369629 21.605430603027344 11.81809139251709 21.629955291748047 11.703791618347168 21.629955291748047 L11.690592765808105 21.631450653076172 C11.676399230957031 21.630455017089844 11.663824081420898 21.62970733642578 11.652742385864258 21.629209518432617 C11.641660690307617 21.628711700439453 11.630828857421875 21.62746810913086 11.620245933532715 21.625598907470703 C11.614020347595215 21.624603271484375 11.607793807983398 21.62335968017578 11.601694107055664 21.62198829650879 C11.595592498779297 21.62061882019043 11.588868141174316 21.619373321533203 11.581771850585938 21.618377685546875 L11.581771850585938 21.373964309692383 L11.595094680786133 21.373964309692383 C11.603934288024902 21.376829147338867 11.612525939941406 21.379070281982422 11.620992660522461 21.380565643310547 C11.629334449768066 21.382057189941406 11.638050079345703 21.3831787109375 11.646890640258789 21.384174346923828 C11.704413414001465 21.382183074951172 11.738903045654297 21.359771728515625 11.750482559204102 21.316566467285156 C11.762062072753906 21.273361206054688 11.767789840698242 21.221691131591797 11.767789840698242 21.161678314208984 L11.767789840698242 20.600013732910156 L12.487455368041992 20.600013732910156 L12.487455368041992 20.59988784790039 L12.487455368041992 20.59988784790039 M13.084480285644531 20.59988784790039 L13.413683891296387 20.59988784790039 L13.743136405944824 21.618253707885742 L13.450912475585938 21.618253707885742 L13.400609970092773 21.44232177734375 L13.097553253173828 21.44232177734375 L13.045757293701172 21.618253707885742 L12.753782272338867 21.618253707885742 L13.084480285644531 20.59988784790039 L13.084480285644531 20.59988784790039 M13.1493501663208 21.218204498291016 L13.348814010620117 21.218204498291016 L13.249082565307617 20.858741760253906 L13.1493501663208 21.218204498291016 M14.009587287902832 20.59988784790039 L14.283134460449219 20.59988784790039 L14.283134460449219 21.00728416442871 L14.550084114074707 20.59988784790039 L14.868953704833984 20.59988784790039 L14.515595436096191 21.09307098388672 L14.878168106079102 21.618253707885742 L14.539377212524414 21.618253707885742 L14.283134460449219 21.2021427154541 L14.283134460449219 21.618253707885742 L14.009587287902832 21.618253707885742 L14.009587287902832 20.59988784790039 L14.009587287902832 20.59988784790039 M15.274606704711914 20.84429931640625 L15.069787979125977 20.84429931640625 L15.069787979125977 20.59988784790039 L15.752723693847656 20.59988784790039 L15.752723693847656 20.84429931640625 L15.548154830932617 20.84429931640625 L15.548154830932617 21.618253707885742 L15.274606704711914 21.618253707885742 L15.274606704711914 20.84429931640625 M16.275291442871094 20.59988784790039 L16.604494094848633 20.59988784790039 L16.933948516845703 21.618253707885742 L16.6417236328125 21.618253707885742 L16.591421127319336 21.44232177734375 L16.288366317749023 21.44232177734375 L16.236568450927734 21.618253707885742 L15.944594383239746 21.618253707885742 L16.275291442871094 20.59988784790039 M16.340160369873047 21.218204498291016 L16.53962516784668 21.218204498291016 L16.43989372253418 20.858741760253906 L16.340160369873047 21.218204498291016 L16.340160369873047 21.218204498291016 M17.27062225341797 20.59988784790039 L17.544170379638672 20.59988784790039 L17.701051712036133 21.196414947509766 L17.857685089111328 20.59988784790039 L18.13123321533203 20.59988784790039 L18.266948699951172 21.618253707885742 L18.003860473632812 21.618253707885742 L17.938617706298828 21.06256675720215 L17.791322708129883 21.618253707885742 L17.610532760620117 21.618253707885742 L17.463237762451172 21.06256675720215 L17.397994995117188 21.618253707885742 L17.135154724121094 21.618253707885742 L17.27062225341797 20.59988784790039 M6.516092777252197 23.2332706451416 C6.496171474456787 23.24783706665039 6.476249694824219 23.259790420532227 6.456328392028809 23.269128799438477 C6.43640661239624 23.278465270996094 6.41648530960083 23.286312103271484 6.396563529968262 23.292537689208984 C6.370914459228516 23.30075454711914 6.34551477432251 23.306232452392578 6.320363998413086 23.308847427368164 A0.7083359360694885 0.7083359360694885 0.0 0 1 6.247027397155762 23.312705993652344 L6.232832908630371 23.31432342529297 C6.092386245727539 23.31320571899414 5.97223424911499 23.262405395507812 5.872626781463623 23.161426544189453 C5.773018836975098 23.06057357788086 5.723090648651123 22.91925621032715 5.723090648651123 22.737346649169922 C5.723090648651123 22.547096252441406 5.775259971618652 22.403287887573242 5.87972354888916 22.306167602539062 C5.984063148498535 22.208927154541016 6.1003546714782715 22.160369873046875 6.228475093841553 22.160369873046875 L6.242669582366943 22.160369873046875 A0.478490948677063 0.478490948677063 0.0 0 1 6.3508687019348145 22.17269515991211 A0.4483596086502075 0.4483596086502075 0.0 0 1 6.516092777252197 22.247650146484375 L6.516092777252197 22.56415367126465 L6.501899242401123 22.56415367126465 A0.3605802059173584 0.3605802059173584 0.0 0 0 6.481977462768555 22.54074478149414 A0.6935192942619324 0.6935192942619324 0.0 0 0 6.456328392028809 22.514225006103516 C6.435535430908203 22.494552612304688 6.409636974334717 22.47624969482422 6.378758430480957 22.45969009399414 C6.3478803634643555 22.443130493164062 6.312519550323486 22.434289932250977 6.272676467895508 22.433170318603516 C6.194858074188232 22.435285568237305 6.134097099304199 22.4671630859375 6.090518951416016 22.52916717529297 C6.046940326690674 22.591171264648438 6.025026321411133 22.66351318359375 6.025026321411133 22.746685028076172 C6.025026321411133 22.840190887451172 6.0494303703308105 22.912158966064453 6.098362922668457 22.96258544921875 C6.1472954750061035 23.013011932373047 6.20531702041626 23.039283752441406 6.272676467895508 23.041400909423828 A0.2685675323009491 0.2685675323009491 0.0 0 0 6.405777454376221 23.002429962158203 C6.44425106048584 22.97864532470703 6.476249694824219 22.952003479003906 6.501774787902832 22.922866821289062 L6.515968322753906 22.922866821289062 L6.515968322753906 23.2332706451416 L6.516092777252197 23.2332706451416 L6.516092777252197 23.2332706451416 M7.116105556488037 22.191619873046875 L7.469090461730957 22.191619873046875 L7.822200298309326 23.28307342529297 L7.509057998657227 23.28307342529297 L7.454896450042725 23.094440460205078 L7.1302995681762695 23.094440460205078 L7.07476806640625 23.28307342529297 L6.761626243591309 23.28307342529297 L7.116105556488037 22.191619873046875 M7.185831069946289 22.854385375976562 L7.399365425109863 22.854385375976562 L7.292660236358643 22.469152450561523 L7.185831069946289 22.854385375976562 L7.185831069946289 22.854385375976562 M8.107576370239258 22.191619873046875 L8.541866302490234 22.191619873046875 C8.648198127746582 22.191619873046875 8.727635383605957 22.216522216796875 8.780302047729492 22.266448974609375 C8.83297061920166 22.31637954711914 8.868330955505371 22.37141227722168 8.886384963989258 22.43167495727539 C8.893108367919922 22.453590393066406 8.897839546203613 22.475130081176758 8.900703430175781 22.496543884277344 C8.903568267822266 22.517837524414062 8.904936790466309 22.537757873535156 8.904936790466309 22.556434631347656 C8.904936790466309 22.575111389160156 8.903568267822266 22.59528160095215 8.900703430175781 22.61644744873047 C8.897839546203613 22.637615203857422 8.893108367919922 22.659404754638672 8.886384963989258 22.681194305419922 C8.869327545166016 22.741455078125 8.834216117858887 22.796985626220703 8.781049728393555 22.8472900390625 C8.728008270263672 22.897716522216797 8.648198127746582 22.922866821289062 8.541991233825684 22.922866821289062 L8.401045799255371 22.922866821289062 L8.401045799255371 23.28307342529297 L8.10782527923584 23.28307342529297 L8.10782527923584 22.191619873046875 L8.107576370239258 22.191619873046875 M8.400921821594238 22.682811737060547 L8.466413497924805 22.682811737060547 C8.50725269317627 22.682811737060547 8.537135124206543 22.675464630126953 8.556185722351074 22.661022186279297 A0.11504700779914856 0.11504700779914856 0.0 0 0 8.594658851623535 22.614208221435547 C8.598394393920898 22.602752685546875 8.600760459899902 22.591794967651367 8.601755142211914 22.581462860107422 A0.2340783178806305 0.2340783178806305 0.0 0 0 8.600261688232422 22.519081115722656 A0.11629210412502289 0.11629210412502289 0.0 0 0 8.564652442932129 22.459192276000977 C8.545726776123047 22.44101333618164 8.512980461120605 22.431800842285156 8.466413497924805 22.431800842285156 L8.400921821594238 22.431800842285156 L8.400921821594238 22.682811737060547 L8.400921821594238 22.682811737060547 M9.239992141723633 22.191619873046875 L9.667060852050781 22.191619873046875 C9.67652416229248 22.191619873046875 9.6979398727417 22.192867279052734 9.731059074401855 22.195480346679688 C9.764303207397461 22.198095321655273 9.799415588378906 22.20768165588379 9.836519241333008 22.2242431640625 C9.880096435546875 22.243913650512695 9.92018985748291 22.276161193847656 9.956795692443848 22.32086181640625 C9.993276596069336 22.365436553955078 10.011579513549805 22.431550979614258 10.011579513549805 22.51883316040039 C10.011579513549805 22.614580154418945 9.990910530090332 22.68704605102539 9.94957447052002 22.736351013183594 C9.90823745727539 22.785781860351562 9.8629150390625 22.820892333984375 9.81360912322998 22.841686248779297 A0.021540185436606407 0.021540185436606407 0.0 0 1 9.808006286621094 22.844051361083984 A0.028637241572141647 0.028637241572141647 0.0 0 0 9.802278518676758 22.846542358398438 L10.081305503845215 23.28307342529297 L9.72968864440918 23.28307342529297 L9.53321361541748 22.947893142700195 L9.53321361541748 23.28307342529297 L9.239992141723633 23.28307342529297 L9.239992141723633 22.191619873046875 L9.239992141723633 22.191619873046875 M9.587374687194824 22.682811737060547 C9.63481330871582 22.682811737060547 9.668057441711426 22.67085838317871 9.686983108520508 22.646953582763672 C9.70590877532959 22.623172760009766 9.716367721557617 22.597148895263672 9.718358993530273 22.56900978088379 L9.718358993530273 22.56278419494629 L9.718358993530273 22.556434631347656 L9.718358993530273 22.549461364746094 L9.718358993530273 22.540870666503906 A0.13969993591308594 0.13969993591308594 0.0 0 0 9.685613632202148 22.46591567993164 C9.666687965393066 22.44300651550293 9.633817672729492 22.43167495727539 9.587374687194824 22.43167495727539 L9.53321361541748 22.43167495727539 L9.53321361541748 22.682811737060547 L9.587374687194824 22.682811737060547 L9.587374687194824 22.682811737060547 M10.867834091186523 23.31432342529297 C10.693146705627441 23.31432342529297 10.560294151306152 23.256553649902344 10.469152450561523 23.141132354736328 C10.378135681152344 23.025711059570312 10.332441329956055 22.891117095947266 10.332441329956055 22.737346649169922 C10.332441329956055 22.584447860717773 10.377264976501465 22.450103759765625 10.467036247253418 22.334308624267578 C10.556808471679688 22.21851348876953 10.690282821655273 22.160491943359375 10.867834091186523 22.160491943359375 L10.882027626037598 22.160491943359375 C11.059453010559082 22.160491943359375 11.193177223205566 22.21851348876953 11.28282356262207 22.334308624267578 C11.37247085571289 22.45022964477539 11.4172945022583 22.58457374572754 11.4172945022583 22.737346649169922 C11.4172945022583 22.891117095947266 11.37247085571289 23.02521514892578 11.28282356262207 23.139636993408203 C11.193053245544434 23.253938674926758 11.059453010559082 23.311710357666016 10.882027626037598 23.312705993652344 L10.867834091186523 23.31432342529297 M10.873560905456543 23.052356719970703 C10.883147239685059 23.052356719970703 10.893108367919922 23.051610946655273 10.9034423828125 23.049991607666016 A0.14692148566246033 0.14692148566246033 0.0 0 0 10.934819221496582 23.041522979736328 C10.980390548706055 23.028076171875 11.021852493286133 22.997573852539062 11.05932903289795 22.950258255004883 C11.096806526184082 22.90294647216797 11.115607261657715 22.83209991455078 11.115607261657715 22.737472534179688 C11.115607261657715 22.642845153808594 11.09668254852295 22.57187271118164 11.058582305908203 22.524560928344727 C11.020482063293457 22.477245330810547 10.979269027709961 22.44686508178711 10.934694290161133 22.43341827392578 C10.924236297607422 22.430429458618164 10.914026260375977 22.427692413330078 10.904065132141113 22.42569923400879 C10.894104957580566 22.4237060546875 10.884392738342285 22.422710418701172 10.874930381774902 22.422710418701172 A0.1769283413887024 0.1769283413887024 0.0 0 0 10.809438705444336 22.435035705566406 C10.765734672546387 22.449604034423828 10.725767135620117 22.480484008789062 10.68916130065918 22.52779769897461 C10.652680397033691 22.575111389160156 10.634377479553223 22.644962310791016 10.634377479553223 22.73759651184082 C10.634377479553223 22.830230712890625 10.652555465698242 22.900081634521484 10.68916130065918 22.94739532470703 C10.725767135620117 22.994709014892578 10.765859603881836 23.025585174560547 10.809438705444336 23.04015350341797 A0.17095188796520233 0.17095188796520233 0.0 0 0 10.873560905456543 23.052356719970703 L10.873560905456543 23.052356719970703 M11.758201599121094 22.191619873046875 L12.051547050476074 22.191619873046875 L12.051547050476074 23.021228790283203 L12.350495338439941 23.021228790283203 L12.350495338439941 23.28307342529297 L11.758201599121094 23.28307342529297 L11.758201599121094 22.191619873046875 L11.758201599121094 22.191619873046875 M12.920501708984375 22.191619873046875 L13.273611068725586 22.191619873046875 L13.626720428466797 23.28307342529297 L13.313577651977539 23.28307342529297 L13.259291648864746 23.094440460205078 L12.93469524383545 23.094440460205078 L12.879288673400879 23.28307342529297 L12.566146850585938 23.28307342529297 L12.920501708984375 22.191619873046875 M12.990350723266602 22.854385375976562 L13.20388412475586 22.854385375976562 L13.097180366516113 22.469152450561523 L12.990350723266602 22.854385375976562 M14.660773277282715 23.2332706451416 C14.640851974487305 23.24783706665039 14.620930671691895 23.259790420532227 14.601008415222168 23.269128799438477 A0.45147231221199036 0.45147231221199036 0.0 0 1 14.54136848449707 23.292537689208984 C14.515595436096191 23.30075454711914 14.49031925201416 23.306232452392578 14.465044021606445 23.308847427368164 A0.705970287322998 0.705970287322998 0.0 0 1 14.39183235168457 23.312705993652344 L14.377513885498047 23.31432342529297 C14.237191200256348 23.31320571899414 14.11703872680664 23.262405395507812 14.01730728149414 23.161426544189453 C13.917574882507324 23.06057357788086 13.867770195007324 22.91925621032715 13.867770195007324 22.737346649169922 C13.867770195007324 22.547096252441406 13.920064926147461 22.403287887573242 14.024404525756836 22.306167602539062 C14.128992080688477 22.208927154541016 14.245160102844238 22.160369873046875 14.373405456542969 22.160369873046875 L14.38747501373291 22.160369873046875 A0.48247525095939636 0.48247525095939636 0.0 0 1 14.580589294433594 22.200834274291992 C14.608604431152344 22.213409423828125 14.635249137878418 22.228973388671875 14.660898208618164 22.247650146484375 L14.660898208618164 22.56415367126465 L14.646828651428223 22.56415367126465 A0.5355164408683777 0.5355164408683777 0.0 0 0 14.601133346557617 22.514225006103516 A0.356595903635025 0.356595903635025 0.0 0 0 14.523564338684082 22.45969009399414 A0.23245969414710999 0.23245969414710999 0.0 0 0 14.417481422424316 22.433170318603516 C14.339662551879883 22.435285568237305 14.278902053833008 22.4671630859375 14.235323905944824 22.52916717529297 C14.191495895385742 22.591049194335938 14.16995620727539 22.66351318359375 14.16995620727539 22.746685028076172 C14.16995620727539 22.840190887451172 14.194234848022461 22.912158966064453 14.243167877197266 22.96258544921875 C14.29210090637207 23.013011932373047 14.35012149810791 23.039283752441406 14.417481422424316 23.041400909423828 A0.2689410448074341 0.2689410448074341 0.0 0 0 14.55070686340332 23.002429962158203 C14.589179992675781 22.97864532470703 14.620930671691895 22.952003479003906 14.646703720092773 22.922866821289062 L14.660773277282715 22.922866821289062 L14.660773277282715 23.2332706451416 L14.660773277282715 23.2332706451416 M15.145489692687988 22.453590393066406 L14.926352500915527 22.453590393066406 L14.926352500915527 22.191619873046875 L15.658096313476562 22.191619873046875 L15.658096313476562 22.453590393066406 L15.438711166381836 22.453590393066406 L15.438711166381836 23.28307342529297 L15.145489692687988 23.28307342529297 L15.145489692687988 22.453590393066406 L15.145489692687988 22.453590393066406 M16.218141555786133 22.191619873046875 L16.571250915527344 22.191619873046875 L16.924360275268555 23.28307342529297 L16.611217498779297 23.28307342529297 L16.55693244934082 23.094440460205078 L16.23233413696289 23.094440460205078 L16.176929473876953 23.28307342529297 L15.863786697387695 23.28307342529297 L16.218141555786133 22.191619873046875 L16.218141555786133 22.191619873046875 M16.287866592407227 22.854385375976562 L16.501401901245117 22.854385375976562 L16.394695281982422 22.469152450561523 L16.287866592407227 22.854385375976562 M17.284942626953125 22.191619873046875 L17.578285217285156 22.191619873046875 L17.74625015258789 22.830978393554688 L17.914337158203125 22.191619873046875 L18.207557678222656 22.191619873046875 L18.35273551940918 23.28307342529297 L18.07097053527832 23.28307342529297 L18.001121520996094 22.687541961669922 L17.84311866760254 23.28307342529297 L17.649505615234375 23.28307342529297 L17.491376876831055 22.687541961669922 L17.42165184020996 23.28307342529297 L17.13976287841797 23.28307342529297 L17.284942626953125 22.191619873046875 L17.284942626953125 22.191619873046875" fill="black" fill-opacity="1.0" filling="0"/>
<path animation_id="9" d="M6.516092777252197 23.2332706451416 C6.496171474456787 23.24783706665039 6.476249694824219 23.259790420532227 6.456328392028809 23.269128799438477 C6.43640661239624 23.278465270996094 6.41648530960083 23.286312103271484 6.396563529968262 23.292537689208984 C6.370914459228516 23.30075454711914 6.34551477432251 23.306232452392578 6.320363998413086 23.308847427368164 A0.7077133655548096 0.7077133655548096 0.0 0 1 6.247151851654053 23.312705993652344 L6.23295783996582 23.31432342529297 C6.09251070022583 23.31320571899414 5.972358703613281 23.262405395507812 5.872751235961914 23.161426544189453 C5.773143291473389 23.06057357788086 5.723215103149414 22.91925621032715 5.723215103149414 22.737346649169922 C5.723215103149414 22.547096252441406 5.775384426116943 22.403287887573242 5.879848003387451 22.306167602539062 C5.984187602996826 22.208927154541016 6.1004791259765625 22.160369873046875 6.228600025177002 22.160369873046875 L6.242794036865234 22.160369873046875 A0.478490948677063 0.478490948677063 0.0 0 1 6.3509931564331055 22.172819137573242 A0.43914586305618286 0.43914586305618286 0.0 0 1 6.516217231750488 22.247650146484375 L6.516217231750488 22.56415367126465 L6.501899242401123 22.56415367126465 A0.3605802059173584 0.3605802059173584 0.0 0 0 6.481977462768555 22.54074478149414 A0.6935192942619324 0.6935192942619324 0.0 0 0 6.456328392028809 22.514225006103516 C6.435535430908203 22.494552612304688 6.409636974334717 22.47624969482422 6.378758430480957 22.45969009399414 C6.3478803634643555 22.443130493164062 6.312519550323486 22.434289932250977 6.272676467895508 22.433170318603516 C6.194858074188232 22.435285568237305 6.134097099304199 22.4671630859375 6.090518951416016 22.52916717529297 C6.046940326690674 22.591171264648438 6.025026321411133 22.66351318359375 6.025026321411133 22.746685028076172 C6.025026321411133 22.840190887451172 6.0494303703308105 22.912158966064453 6.098362922668457 22.96258544921875 C6.1472954750061035 23.013011932373047 6.20531702041626 23.039283752441406 6.272676467895508 23.041400909423828 A0.2685675323009491 0.2685675323009491 0.0 0 0 6.405777454376221 23.002429962158203 C6.44425106048584 22.97864532470703 6.476249694824219 22.952003479003906 6.501774787902832 22.922866821289062 L6.515968322753906 22.922866821289062 L6.515968322753906 23.2332706451416 L6.516092777252197 23.2332706451416 L6.516092777252197 23.2332706451416 M7.116105556488037 22.191619873046875 L7.469090461730957 22.191619873046875 L7.822200298309326 23.28307342529297 L7.509057998657227 23.28307342529297 L7.454896450042725 23.094440460205078 L7.1302995681762695 23.094440460205078 L7.07476806640625 23.28307342529297 L6.761626243591309 23.28307342529297 L7.116105556488037 22.191619873046875 L7.116105556488037 22.191619873046875 M7.185831069946289 22.854385375976562 L7.399365425109863 22.854385375976562 L7.292660236358643 22.469152450561523 L7.185831069946289 22.854385375976562 L7.185831069946289 22.854385375976562 M8.107576370239258 22.191619873046875 L8.541741371154785 22.191619873046875 C8.648073196411133 22.191619873046875 8.727635383605957 22.216522216796875 8.780302047729492 22.266448974609375 C8.83297061920166 22.31637954711914 8.868330955505371 22.37141227722168 8.886384963989258 22.43167495727539 A0.450725257396698 0.450725257396698 0.0 0 1 8.904936790466309 22.556434631347656 A0.43105271458625793 0.43105271458625793 0.0 0 1 8.886384963989258 22.681194305419922 C8.869327545166016 22.741455078125 8.834216117858887 22.796985626220703 8.781049728393555 22.8472900390625 C8.728008270263672 22.897716522216797 8.648198127746582 22.922866821289062 8.541866302490234 22.922866821289062 L8.400921821594238 22.922866821289062 L8.400921821594238 23.28307342529297 L8.10770034790039 23.28307342529297 L8.10770034790039 22.191619873046875 L8.107576370239258 22.191619873046875 L8.107576370239258 22.191619873046875 M8.400921821594238 22.682811737060547 L8.466413497924805 22.682811737060547 C8.50725269317627 22.682811737060547 8.537135124206543 22.675464630126953 8.556185722351074 22.661022186279297 A0.11504700779914856 0.11504700779914856 0.0 0 0 8.594658851623535 22.614208221435547 C8.598394393920898 22.602752685546875 8.600760459899902 22.591794967651367 8.601755142211914 22.581462860107422 A0.2340783178806305 0.2340783178806305 0.0 0 0 8.600261688232422 22.519081115722656 A0.11629210412502289 0.11629210412502289 0.0 0 0 8.564652442932129 22.459192276000977 C8.545726776123047 22.44101333618164 8.512855529785156 22.431800842285156 8.466413497924805 22.431800842285156 L8.400921821594238 22.431800842285156 L8.400921821594238 22.682811737060547 L8.400921821594238 22.682811737060547 M9.239992141723633 22.191619873046875 L9.667060852050781 22.191619873046875 C9.67652416229248 22.191619873046875 9.6979398727417 22.192867279052734 9.731184005737305 22.195480346679688 C9.764427185058594 22.198095321655273 9.799539566040039 22.20768165588379 9.836519241333008 22.2242431640625 C9.880221366882324 22.243913650512695 9.92031478881836 22.276161193847656 9.956795692443848 22.32086181640625 C9.993276596069336 22.365436553955078 10.011579513549805 22.431550979614258 10.011579513549805 22.51883316040039 C10.011579513549805 22.614580154418945 9.990910530090332 22.68704605102539 9.94957447052002 22.736351013183594 C9.90823745727539 22.785781860351562 9.8629150390625 22.820892333984375 9.81360912322998 22.841686248779297 A0.021540185436606407 0.021540185436606407 0.0 0 1 9.808006286621094 22.844051361083984 A0.028637241572141647 0.028637241572141647 0.0 0 0 9.802278518676758 22.846542358398438 L10.081305503845215 23.28307342529297 L9.72968864440918 23.28307342529297 L9.53321361541748 22.947893142700195 L9.53321361541748 23.28307342529297 L9.239992141723633 23.28307342529297 L9.239992141723633 22.191619873046875 L9.239992141723633 22.191619873046875 M9.587374687194824 22.682811737060547 C9.63481330871582 22.682811737060547 9.668057441711426 22.67085838317871 9.686983108520508 22.646953582763672 C9.70590877532959 22.623172760009766 9.716367721557617 22.597148895263672 9.718358993530273 22.56900978088379 L9.718358993530273 22.56278419494629 L9.718358993530273 22.556434631347656 L9.718358993530273 22.549461364746094 L9.718358993530273 22.540870666503906 A0.13969993591308594 0.13969993591308594 0.0 0 0 9.685613632202148 22.46591567993164 C9.666687965393066 22.44300651550293 9.633817672729492 22.43167495727539 9.587374687194824 22.43167495727539 L9.53321361541748 22.43167495727539 L9.53321361541748 22.682811737060547 L9.587374687194824 22.682811737060547 L9.587374687194824 22.682811737060547 M10.867834091186523 23.31432342529297 C10.693146705627441 23.31432342529297 10.560294151306152 23.256553649902344 10.469152450561523 23.141132354736328 C10.378011703491211 23.025711059570312 10.332441329956055 22.891117095947266 10.332441329956055 22.737346649169922 C10.332441329956055 22.584447860717773 10.377264976501465 22.450103759765625 10.467036247253418 22.334308624267578 C10.556808471679688 22.21851348876953 10.690282821655273 22.160491943359375 10.867834091186523 22.160491943359375 L10.882027626037598 22.160491943359375 C11.059453010559082 22.160491943359375 11.193177223205566 22.21851348876953 11.28282356262207 22.334308624267578 C11.37247085571289 22.45022964477539 11.4172945022583 22.58457374572754 11.4172945022583 22.737346649169922 C11.4172945022583 22.891117095947266 11.37247085571289 23.02521514892578 11.28282356262207 23.139636993408203 C11.193053245544434 23.253938674926758 11.059453010559082 23.311710357666016 10.882027626037598 23.312705993652344 L10.867834091186523 23.31432342529297 M10.873560905456543 23.052356719970703 C10.883147239685059 23.052356719970703 10.893108367919922 23.051610946655273 10.9034423828125 23.049991607666016 A0.14692148566246033 0.14692148566246033 0.0 0 0 10.934819221496582 23.041522979736328 C10.980390548706055 23.028076171875 11.021852493286133 22.997447967529297 11.05932903289795 22.950258255004883 C11.096806526184082 22.90306854248047 11.115607261657715 22.83209991455078 11.115607261657715 22.737472534179688 C11.115607261657715 22.642845153808594 11.09668254852295 22.57187271118164 11.058582305908203 22.524560928344727 C11.020482063293457 22.477245330810547 10.979269027709961 22.44686508178711 10.934694290161133 22.43341827392578 C10.924236297607422 22.430429458618164 10.914026260375977 22.427692413330078 10.904065132141113 22.42569923400879 C10.894104957580566 22.4237060546875 10.884392738342285 22.422710418701172 10.874930381774902 22.422710418701172 A0.1769283413887024 0.1769283413887024 0.0 0 0 10.809438705444336 22.435035705566406 C10.765734672546387 22.449604034423828 10.725767135620117 22.480484008789062 10.68916130065918 22.52779769897461 C10.652680397033691 22.575111389160156 10.634377479553223 22.644962310791016 10.634377479553223 22.73759651184082 C10.634377479553223 22.830230712890625 10.652680397033691 22.900081634521484 10.68916130065918 22.94739532470703 C10.725767135620117 22.994709014892578 10.765859603881836 23.025585174560547 10.809438705444336 23.04015350341797 A0.17095188796520233 0.17095188796520233 0.0 0 0 10.873560905456543 23.052356719970703 L10.873560905456543 23.052356719970703 M11.758201599121094 22.191619873046875 L12.051423072814941 22.191619873046875 L12.051423072814941 23.02110481262207 L12.350495338439941 23.02110481262207 L12.350495338439941 23.28307342529297 L11.758201599121094 23.28307342529297 L11.758201599121094 22.191619873046875 L11.758201599121094 22.191619873046875 M12.920501708984375 22.191619873046875 L13.273611068725586 22.191619873046875 L13.626720428466797 23.28307342529297 L13.313577651977539 23.28307342529297 L13.259291648864746 23.094440460205078 L12.93469524383545 23.094440460205078 L12.879288673400879 23.28307342529297 L12.566146850585938 23.28307342529297 L12.920501708984375 22.191619873046875 M12.990350723266602 22.854385375976562 L13.20388412475586 22.854385375976562 L13.097180366516113 22.469152450561523 L12.990350723266602 22.854385375976562 M14.660773277282715 23.2332706451416 C14.640851974487305 23.24783706665039 14.620930671691895 23.259790420532227 14.601008415222168 23.269128799438477 A0.45147231221199036 0.45147231221199036 0.0 0 1 14.54136848449707 23.292537689208984 C14.515595436096191 23.30075454711914 14.49031925201416 23.306232452392578 14.465044021606445 23.308847427368164 A0.705970287322998 0.705970287322998 0.0 0 1 14.39183235168457 23.312705993652344 L14.377513885498047 23.31432342529297 C14.237191200256348 23.31320571899414 14.11703872680664 23.262405395507812 14.01730728149414 23.161426544189453 C13.917574882507324 23.06057357788086 13.867770195007324 22.91925621032715 13.867770195007324 22.737346649169922 C13.867770195007324 22.547096252441406 13.920064926147461 22.403287887573242 14.024404525756836 22.306167602539062 C14.128992080688477 22.208927154541016 14.245160102844238 22.160369873046875 14.373405456542969 22.160369873046875 L14.38747501373291 22.160369873046875 A0.48247525095939636 0.48247525095939636 0.0 0 1 14.580589294433594 22.200834274291992 C14.608604431152344 22.213409423828125 14.635249137878418 22.228973388671875 14.660898208618164 22.247650146484375 L14.660898208618164 22.56415367126465 L14.646828651428223 22.56415367126465 A0.5355164408683777 0.5355164408683777 0.0 0 0 14.601133346557617 22.514225006103516 A0.356595903635025 0.356595903635025 0.0 0 0 14.523564338684082 22.45969009399414 A0.23245969414710999 0.23245969414710999 0.0 0 0 14.417481422424316 22.433170318603516 C14.339662551879883 22.435285568237305 14.278902053833008 22.4671630859375 14.235323905944824 22.52916717529297 C14.191495895385742 22.591049194335938 14.16995620727539 22.66351318359375 14.16995620727539 22.746685028076172 C14.16995620727539 22.840190887451172 14.194234848022461 22.912158966064453 14.243167877197266 22.96258544921875 C14.29210090637207 23.013011932373047 14.35012149810791 23.039283752441406 14.417481422424316 23.041400909423828 A0.2689410448074341 0.2689410448074341 0.0 0 0 14.55070686340332 23.002429962158203 C14.589179992675781 22.97864532470703 14.620930671691895 22.952003479003906 14.646703720092773 22.922866821289062 L14.660773277282715 22.922866821289062 L14.660773277282715 23.2332706451416 L14.660773277282715 23.2332706451416 M15.145489692687988 22.453590393066406 L14.926352500915527 22.453590393066406 L14.926352500915527 22.191619873046875 L15.658096313476562 22.191619873046875 L15.658096313476562 22.453590393066406 L15.438711166381836 22.453590393066406 L15.438711166381836 23.28307342529297 L15.145489692687988 23.28307342529297 L15.145489692687988 22.453590393066406 L15.145489692687988 22.453590393066406 M16.218141555786133 22.191619873046875 L16.571250915527344 22.191619873046875 L16.924360275268555 23.28307342529297 L16.611217498779297 23.28307342529297 L16.55693244934082 23.094440460205078 L16.23233413696289 23.094440460205078 L16.176929473876953 23.28307342529297 L15.863786697387695 23.28307342529297 L16.218141555786133 22.191619873046875 L16.218141555786133 22.191619873046875 M16.287866592407227 22.854385375976562 L16.501401901245117 22.854385375976562 L16.394695281982422 22.469152450561523 L16.287866592407227 22.854385375976562 M17.284942626953125 22.191619873046875 L17.578161239624023 22.191619873046875 L17.74625015258789 22.830978393554688 L17.914337158203125 22.191619873046875 L18.207557678222656 22.191619873046875 L18.35273551940918 23.28307342529297 L18.07097053527832 23.28307342529297 L18.001121520996094 22.687541961669922 L17.842992782592773 23.28307342529297 L17.649505615234375 23.28307342529297 L17.491376876831055 22.687541961669922 L17.421527862548828 23.28307342529297 L17.13976287841797 23.28307342529297 L17.284942626953125 22.191619873046875 L17.284942626953125 22.191619873046875" fill="none" filling="0" stroke="black" stroke-opacity="1.0" stroke-width=".3"/></svg>