<?xml version="1.0" encoding="iso-8859-1"?><svg height="200px" viewBox="0.0 0.0 24.0 24.0" width="200px" xmlns="http://www.w3.org/2000/svg"><path animation_id="0" d="M0.0 0.0 L24.0 0.0 L24.0 24.0 L0.0 24.0 L0.0 0.0" fill="black" fill-opacity="1.0" filling="0"/>
<path animation_id="1" d="M2.742825508117676 0.17643070220947266 L21.25717544555664 0.17643070220947266 L21.25717544555664 23.823570251464844 L2.742825508117676 23.823570251464844 L2.742825508117676 0.17643070220947266" fill="black" fill-opacity="1.0" filling="0"/>
<path animation_id="2" d="M9.601818084716797 2.8184032440185547 C9.472328186035156 3.245347023010254 8.984125137329102 5.089335918426514 8.15750503540039 5.089335918426514 C8.15750503540039 4.262591361999512 8.77743911743164 3.535952568054199 9.345203399658203 2.970553398132324 C8.995455741882324 3.0431432723999023 8.15750503540039 3.1748743057250977 7.637427806854248 2.925107955932617 C8.257362365722656 2.6117162704467773 8.879661560058594 2.4458694458007812 9.617630958557129 2.6980018615722656 C9.717611312866211 2.645832061767578 10.221752166748047 2.55954647064209 10.321609497070312 2.6117162704467773 C10.303430557250977 2.6208057403564453 10.364813804626465 2.6730995178222656 10.34202766418457 2.6753406524658203 C10.06972599029541 2.6980018615722656 9.849344253540039 2.743448257446289 9.601818084716797 2.8184032440185547 L9.601818084716797 2.8184032440185547 M8.257486343383789 3.6381750106811523 C7.950943470001221 4.310402870178223 8.198344230651855 5.330012798309326 7.3308844566345215 5.915956020355225 C7.208242893218994 4.984871864318848 7.2605366706848145 4.3285813331604 7.898649215698242 3.6904687881469727 C7.589865207672119 3.7949323654174805 6.499782085418701 3.949324607849121 6.193114757537842 4.0016188621521 C6.422461986541748 3.354416847229004 8.221129417419434 3.052356719970703 8.625288009643555 3.2590417861938477 C8.518583297729492 3.3656225204467773 8.357343673706055 3.4860239028930664 8.257486343383789 3.6381750106811523 L8.257486343383789 3.6381750106811523 M5.243852615356445 5.520761966705322 C5.243852615356445 4.6442131996154785 6.726763725280762 4.031002998352051 7.398991584777832 4.031002998352051 C6.9493865966796875 4.7850341796875 5.9728569984436035 5.168773174285889 5.243852615356445 5.520761966705322 M4.755649566650391 7.151341915130615 C4.944157600402832 6.383738994598389 5.975098133087158 5.191558361053467 6.779057502746582 4.900827884674072 C6.37477445602417 5.745626926422119 5.804893493652344 6.892361164093018 4.755649566650391 7.151341915130615 L4.755649566650391 7.151341915130615 M6.813048839569092 8.039220809936523 C6.290729999542236 6.994583606719971 6.4247026443481445 5.40036153793335 7.017493724822998 4.805329322814941 C7.017493724822998 5.223184108734131 6.992591857910156 5.631949424743652 7.090207576751709 6.126999855041504 C7.233269214630127 6.853763580322266 7.135528564453125 7.389778137207031 6.813048839569092 8.039220809936523 L6.813048839569092 8.039220809936523 M6.029633045196533 6.781174659729004 C6.338418006896973 7.089958667755127 6.506505966186523 7.412438869476318 6.683683395385742 8.00747013092041 C6.833592891693115 8.513976097106934 6.79723596572876 9.145240783691406 6.7449421882629395 9.304239273071289 C6.256739139556885 8.577476501464844 5.7435102462768555 7.816721439361572 6.029633045196533 6.781174659729004 M5.5117974281311035 8.14816665649414 C5.314324855804443 8.577351570129395 5.100790500640869 9.074644088745117 4.791882038116455 9.385793685913086 C4.480731964111328 8.257237434387207 5.2188262939453125 7.16267204284668 5.922804355621338 6.597148895263672 C6.025150775909424 6.971922874450684 5.627716064453125 7.898524761199951 5.5117974281311035 8.14816665649414 M5.659465789794922 10.180788040161133 C5.598082542419434 10.537259101867676 5.3778252601623535 10.925605773925781 5.150843620300293 11.429744720458984 C4.676212310791016 10.587187767028809 5.427877902984619 9.031688690185547 5.666313648223877 8.659278869628906 C5.752599239349365 8.984000205993652 5.748116970062256 9.67428207397461 5.659465789794922 10.180788040161133 M7.051609039306641 10.848409652709961 C6.127373695373535 10.212538719177246 5.757205963134766 9.24746322631836 5.791197299957275 8.343523025512695 C6.209052085876465 8.761377334594727 6.953868865966797 9.869638442993164 7.051609039306641 10.848409652709961 M6.097740173339844 11.566083908081055 C6.540621280670166 11.954429626464844 7.560231685638428 12.63562297821045 7.6646952629089355 13.571188926696777 C7.110627174377441 13.482662200927734 6.136338233947754 12.097367286682129 6.097740173339844 11.566083908081055 M6.075079441070557 11.715868949890137 C6.084168910980225 12.033866882324219 6.009213924407959 12.651559829711914 5.770777702331543 13.267011642456055 C5.491377830505371 12.233704566955566 5.466475963592529 11.461620330810547 5.75484037399292 10.396439552307129 C5.906991481781006 10.802963256835938 6.061507701873779 11.29577350616455 6.075079441070557 11.715868949890137 L6.075079441070557 11.715868949890137 M5.768536567687988 10.062628746032715 C6.2045698165893555 10.319242477416992 6.549710750579834 10.625786781311035 6.7905120849609375 10.9345703125 C7.17201042175293 11.4205322265625 7.399116039276123 11.858806610107422 7.4104461669921875 12.335678100585938 C6.626906394958496 11.865778923034668 5.932017803192139 10.957355499267578 5.768536567687988 10.062628746032715 M6.620058536529541 13.087468147277832 C7.065180778503418 13.235136032104492 8.148415565490723 14.295586585998535 8.1370849609375 14.731619834899902 C7.246840476989746 14.634003639221191 6.74954891204834 13.5576171875 6.620058536529541 13.087468147277832 M6.545104026794434 15.126812934875488 C6.231712818145752 14.813297271728516 6.124883651733398 14.09587287902832 6.1317315101623535 13.739152908325195 C6.138579368591309 13.28954792022705 6.16348123550415 12.842184066772461 6.177177429199219 12.394821166992188 C7.092448711395264 13.5576171875 6.529166221618652 14.32970142364502 6.545104026794434 15.126812934875488 L6.545104026794434 15.126812934875488 M6.9584760665893555 14.827117919921875 C6.863101482391357 14.57498550415039 6.810807704925537 14.236693382263184 6.810807704925537 13.923177719116211 C7.421777248382568 14.343273162841797 7.866774559020996 15.46971321105957 7.714623928070068 16.141817092895508 C7.453526973724365 15.88296127319336 7.112868309020996 15.235758781433105 6.9584760665893555 14.827117919921875 M14.398181915283203 2.8184032440185547 C14.527547836303711 3.245347023010254 15.015874862670898 5.089335918426514 15.84249496459961 5.089335918426514 C15.84249496459961 4.262591361999512 15.222561836242676 3.535952568054199 14.654796600341797 2.970553398132324 C15.004545211791992 3.0431432723999023 15.84249496459961 3.1748743057250977 16.36269760131836 2.925107955932617 C15.742637634277344 2.6117162704467773 15.120214462280273 2.4458694458007812 14.382245063781738 2.6980018615722656 C14.282512664794922 2.645832061767578 13.77812385559082 2.55954647064209 13.678516387939453 2.6117162704467773 C13.696569442749023 2.6208057403564453 13.635187149047852 2.6730995178222656 13.658096313476562 2.6753406524658203 C13.93027400970459 2.6980018615722656 14.150532722473145 2.743448257446289 14.398181915283203 2.8184032440185547 M15.742513656616211 3.6381750106811523 C16.049182891845703 4.310402870178223 15.801656723022461 5.330012798309326 16.668991088867188 5.915956020355225 C16.791759490966797 4.984871864318848 16.739463806152344 4.3285813331604 16.101350784301758 3.6904687881469727 C16.41013526916504 3.7949323654174805 17.500093460083008 3.949324607849121 17.806760787963867 4.0016188621521 C17.577415466308594 3.354416847229004 15.778870582580566 3.052356719970703 15.37446403503418 3.2590417861938477 C15.481292724609375 3.3656225204467773 15.642533302307129 3.4860239028930664 15.742513656616211 3.6381750106811523 M18.756023406982422 5.520761966705322 C18.756023406982422 4.6442131996154785 17.273113250732422 4.031002998352051 16.60088348388672 4.031002998352051 C17.050487518310547 4.7850341796875 18.027143478393555 5.168773174285889 18.756023406982422 5.520761966705322 L18.756023406982422 5.520761966705322 M19.24435043334961 7.151341915130615 C19.055843353271484 6.383738994598389 18.024778366088867 5.191558361053467 17.221067428588867 4.900827884674072 C17.625226974487305 5.745626926422119 18.19523048400879 6.892361164093018 19.24435043334961 7.151341915130615 M17.186702728271484 8.039220809936523 C17.709020614624023 6.994583606719971 17.575050354003906 5.40036153793335 16.98238182067871 4.805329322814941 C16.98238182067871 5.223184108734131 17.007408142089844 5.631949424743652 16.90966796875 6.126999855041504 C16.76673126220703 6.853763580322266 16.86422348022461 7.389778137207031 17.186702728271484 8.039220809936523 M17.970243453979492 6.781174659729004 C17.66145896911621 7.089958667755127 17.493370056152344 7.412438869476318 17.31631851196289 8.00747013092041 C17.166282653808594 8.513976097106934 17.2027645111084 9.145240783691406 17.25505828857422 9.304239273071289 C17.74313735961914 8.577476501464844 18.25649070739746 7.816721439361572 17.970243453979492 6.781174659729004 L17.970243453979492 6.781174659729004 M18.487953186035156 8.14816665649414 C18.68567657470703 8.577351570129395 18.89920997619629 9.074644088745117 19.207992553710938 9.385793685913086 C19.519020080566406 8.257237434387207 18.780925750732422 7.16267204284668 18.076946258544922 6.597148895263672 C17.974849700927734 6.971922874450684 18.372285842895508 7.898524761199951 18.487953186035156 8.14816665649414 L18.487953186035156 8.14816665649414 M18.340408325195312 10.180788040161133 C18.40191650390625 10.537259101867676 18.622051239013672 10.925605773925781 18.84915542602539 11.429744720458984 C19.323787689208984 10.587187767028809 18.57212257385254 9.031688690185547 18.33356285095215 8.659278869628906 C18.247276306152344 8.984000205993652 18.251882553100586 9.67428207397461 18.340408325195312 10.180788040161133 L18.340408325195312 10.180788040161133 M16.94839096069336 10.848409652709961 C17.872751235961914 10.212538719177246 18.242794036865234 9.24746322631836 18.208803176879883 8.343523025512695 C17.790822982788086 8.761377334594727 17.046131134033203 9.869638442993164 16.94839096069336 10.848409652709961 M17.902135848999023 11.566083908081055 C17.45925521850586 11.954429626464844 16.43964385986328 12.63562297821045 16.33530616760254 13.571188926696777 C16.88924789428711 13.482662200927734 17.863536834716797 12.097367286682129 17.902135848999023 11.566083908081055 M17.92479705810547 11.715868949890137 C17.91583251953125 12.033866882324219 17.99066162109375 12.651559829711914 18.229223251342773 13.267011642456055 C18.508373260498047 12.233704566955566 18.53339958190918 11.461620330810547 18.245037078857422 10.396439552307129 C18.09276008605957 10.802963256835938 17.938617706298828 11.29577350616455 17.92479705810547 11.715868949890137 M18.231464385986328 10.062628746032715 C17.795429229736328 10.319242477416992 17.450414657592773 10.625786781311035 17.209611892700195 10.9345703125 C16.828113555908203 11.4205322265625 16.60088348388672 11.858806610107422 16.589553833007812 12.335678100585938 C17.372970581054688 11.865778923034668 18.067983627319336 10.957355499267578 18.231464385986328 10.062628746032715 L18.231464385986328 10.062628746032715 M17.379817962646484 13.087468147277832 C16.934818267822266 13.235136032104492 15.851459503173828 14.295586585998535 15.862791061401367 14.731619834899902 C16.753158569335938 14.634003639221191 17.250450134277344 13.5576171875 17.379817962646484 13.087468147277832 M17.45477294921875 15.126812934875488 C17.768287658691406 14.813297271728516 17.87499237060547 14.09587287902832 17.868144989013672 13.739152908325195 C17.861297607421875 13.28954792022705 17.83626937866211 12.842184066772461 17.82269859313965 12.394821166992188 C16.907550811767578 13.5576171875 17.4707088470459 14.32970142364502 17.45477294921875 15.126812934875488 L17.45477294921875 15.126812934875488 M17.04152488708496 14.827117919921875 C17.136898040771484 14.57498550415039 17.189191818237305 14.236693382263184 17.189191818237305 13.923177719116211 C16.57834815979004 14.343273162841797 16.133100509643555 15.46971321105957 16.28525161743164 16.141817092895508 C16.54647445678711 15.88296127319336 16.887130737304688 15.235758781433105 17.04152488708496 14.827117919921875 L17.04152488708496 14.827117919921875 M12.0 17.72022819519043 C13.984685897827148 16.198593139648438 16.326091766357422 14.858867645263672 16.326091766357422 11.016372680664062 L16.326091766357422 6.560916423797607 L12.794870376586914 5.772894382476807 L12.0 6.381497859954834 L11.205130577087402 5.772894382476807 L7.6739091873168945 6.560916423797607 L7.6739091873168945 11.016497611999512 C7.6737847328186035 14.858867645263672 10.015190124511719 16.198719024658203 12.0 17.72022819519043 L12.0 17.72022819519043" fill="black" fill-opacity="1.0" filling="0"/>
<path animation_id="3" d="M12.0 17.100292205810547 C13.80302619934082 15.72408676147461 15.790077209472656 14.506879806518555 15.790077209472656 10.619062423706055 L15.790077209472656 6.8947272300720215 L12.92199420928955 6.295212745666504 L12.0 6.987860679626465 L11.07800579071045 6.295212745666504 L8.209798812866211 6.8947272300720215 L8.209798812866211 10.619062423706055 C8.209798812866211 14.506879806518555 10.196850776672363 15.72408676147461 12.0 17.100292205810547" fill="black" fill-opacity="1.0" filling="0"/>
<path animation_id="4" d="M11.927286148071289 16.05428695678711 C11.691216468811035 14.622797966003418 13.7412691116333 13.069664001464844 13.7412691116333 11.694204330444336 C13.7412691116333 10.842806816101074 13.193924903869629 10.253376960754395 12.184897422790527 10.066239356994629 C13.14013671875 9.514163970947266 13.655482292175293 8.934196472167969 13.848471641540527 7.9891676902771 C12.72153377532959 8.101475715637207 11.54080867767334 8.157629013061523 10.435161590576172 8.073336601257324 C10.520949363708496 8.335305213928223 10.660649299621582 8.615949630737305 10.80009937286377 8.859241485595703 L10.993338584899902 8.382120132446289 L13.097180366516113 8.382120132446289 C12.785905838012695 9.158687591552734 12.302682876586914 9.645272254943848 11.54068374633789 10.084916114807129 C11.50843620300293 10.113055229187012 11.529975891113281 10.206686019897461 11.572931289672852 10.234701156616211 C12.345763206481934 10.38436222076416 12.818029403686523 10.683807373046875 12.95760440826416 11.619498252868652 C13.129302978515625 12.817033767700195 11.519268035888672 14.360953330993652 11.851958274841309 16.05428695678711 C11.8629150390625 16.129241943359375 11.937994003295898 16.119903564453125 11.927286148071289 16.05428695678711" fill="black" fill-opacity="1.0" filling="0"/>
<path animation_id="5" d="M12.0 0.8552579879760742 L11.962397575378418 0.8571252822875977 C11.691465377807617 2.5131044387817383 9.924921035766602 2.973292350769043 9.91657829284668 5.388159275054932 L14.082674980163574 5.388159275054932 C14.082923889160156 2.9491376876831055 12.242545127868652 2.5255565643310547 12.0 0.8552579879760742 L12.0 0.8552579879760742" fill="black" fill-opacity="1.0" filling="0"/>
<path animation_id="6" d="M12.213410377502441 4.66015100479126 L14.016559600830078 4.66015100479126 C14.059639930725098 4.903069496154785 14.073211669921875 5.098425388336182 14.080060005187988 5.391396522521973 L12.213410377502441 5.386789798736572 L12.213410377502441 5.650252342224121 L12.801718711853027 5.777376651763916 L12.000123977661133 6.551702499389648 L11.198531150817871 5.779617786407471 L11.813982963562012 5.652493476867676 L11.813982963562012 5.386789798736572 L9.917698860168457 5.391396522521973 C9.917698860168457 5.146112442016602 9.942726135253906 4.885015487670898 9.983564376831055 4.66015100479126 L11.813982963562012 4.66015100479126 L11.813982963562012 4.321732997894287 L12.213534355163574 4.321732997894287 L12.213534355163574 4.66015100479126 L12.213410377502441 4.66015100479126 L12.213410377502441 4.66015100479126" fill="black" fill-opacity="1.0" filling="0"/>
<path animation_id="7" d="M4.928593635559082 22.701614379882812 C4.773080825805664 21.90312957763672 6.124136447906494 21.037540435791016 6.124136447906494 20.27068328857422 C6.124136447906494 19.795804977416992 5.764801025390625 19.47008514404297 5.098798751831055 19.36512565612793 C5.729191303253174 19.058334350585938 6.067484378814697 18.73485565185547 6.1956048011779785 18.207433700561523 C5.451783657073975 18.270435333251953 4.823507785797119 18.301937103271484 4.094502925872803 18.25362777709961 C4.151279449462891 18.400672912597656 4.24366569519043 18.556184768676758 4.334059715270996 18.69264793395996 L4.462305068969727 18.425697326660156 L5.699807167053223 18.425697326660156 C5.4959845542907715 18.858619689941406 5.17661714553833 19.129554748535156 4.674469470977783 19.375459671020508 C4.6535515785217285 19.392393112182617 4.668243885040283 19.44269561767578 4.695511817932129 19.459503173828125 C5.206125736236572 19.543670654296875 5.517026901245117 19.70752716064453 5.607420921325684 20.228599548339844 C5.72084903717041 20.89672088623047 4.6599016189575195 21.758203506469727 4.88040828704834 22.701614379882812 C4.886634349822998 22.743572235107422 4.936935901641846 22.73722267150879 4.928593635559082 22.701614379882812 L4.928593635559082 22.701614379882812" fill="none" filling="0" stroke="black" stroke-opacity="1.0" stroke-width=".3"/>
<path animation_id="8" d="M4.928593635559082 22.701614379882812 C4.773080825805664 21.90312957763672 6.124136447906494 21.037540435791016 6.124136447906494 20.27068328857422 C6.124136447906494 19.795804977416992 5.764801025390625 19.47008514404297 5.098798751831055 19.36512565612793 C5.729191303253174 19.058334350585938 6.067484378814697 18.73485565185547 6.1956048011779785 18.207433700561523 C5.451783657073975 18.270435333251953 4.823507785797119 18.301937103271484 4.094502925872803 18.25362777709961 C4.151279449462891 18.400672912597656 4.24366569519043 18.556184768676758 4.334059715270996 18.69264793395996 L4.462305068969727 18.425697326660156 L5.699807167053223 18.425697326660156 C5.4959845542907715 18.858619689941406 5.17661714553833 19.129554748535156 4.674469470977783 19.375459671020508 C4.6535515785217285 19.392393112182617 4.668243885040283 19.44269561767578 4.695511817932129 19.459503173828125 C5.206125736236572 19.543670654296875 5.517026901245117 19.70752716064453 5.607420921325684 20.228599548339844 C5.72084903717041 20.89672088623047 4.6599016189575195 21.758203506469727 4.88040828704834 22.701614379882812 C4.886634349822998 22.743572235107422 4.936935901641846 22.73722267150879 4.928593635559082 22.701614379882812 L4.928593635559082 22.701614379882812" fill="black" fill-opacity="1.0" filling="0"/>
<path animation_id="9" d="M19.905498504638672 21.012264251708984 C19.848846435546875 20.945152282714844 19.78148651123047 20.85463523864746 19.697566986083984 20.741207122802734 C19.619747161865234 20.621429443359375 19.560853958129883 20.529041290283203 19.521011352539062 20.45134735107422 A13.413061141967773 13.413061141967773 0.0 0 1 19.18271827697754 19.715993881225586 A12.453963279724121 12.453963279724121 0.0 0 1 18.88439178466797 18.934322357177734 C18.798357009887695 18.669614791870117 18.73099708557129 18.42806625366211 18.693269729614258 18.207433700561523 L18.674345016479492 18.207433700561523 C18.58606719970703 18.341903686523438 18.453838348388672 18.49729347229004 18.270933151245117 18.67596435546875 A4.159247875213623 4.159247875213623 0.0 0 0 17.659589767456055 19.42812728881836 C17.487144470214844 19.69706916809082 17.39699935913086 19.96600914001465 17.38429832458496 20.239181518554688 C17.38429832458496 20.41573715209961 17.41156768798828 20.564903259277344 17.459877014160156 20.693145751953125 C17.510177612304688 20.821266174316406 17.587997436523438 20.920001983642578 17.690841674804688 20.985244750976562 C17.795928955078125 21.05023956298828 17.922056198120117 21.083980560302734 18.075576782226562 21.083980560302734 C18.29172706604004 21.079872131347656 18.47687339782715 21.03143882751465 18.62590980529785 20.949512481689453 C18.848657608032227 20.821392059326172 19.02521324157715 20.66799545288086 19.15333366394043 20.478864669799805 C19.170143127441406 20.504138946533203 19.214094161987305 20.594533920288086 19.287805557250977 20.754154205322266 C19.359272003173828 20.907426834106445 19.39699935913086 20.997947692871094 19.405466079711914 21.01251220703125 L19.905498504638672 21.01251220703125 L19.905498504638672 21.012264251708984 L19.905498504638672 21.012264251708984 M18.480979919433594 18.675838470458984 C18.548091888427734 19.1087589263916 18.743572235107422 19.663326263427734 19.075515747070312 20.344144821166992 C18.896968841552734 20.594160079956055 18.716304779052734 20.73274040222168 18.52294158935547 20.7537841796875 C18.484966278076172 20.75589942932129 18.432422637939453 20.7601318359375 18.3673038482666 20.7601318359375 C18.262218475341797 20.75589942932129 18.17618179321289 20.745441436767578 18.10906982421875 20.711822509765625 C18.04395294189453 20.678081512451172 17.989166259765625 20.634002685546875 17.953432083129883 20.568885803222656 C17.90935707092285 20.503890991210938 17.886323928833008 20.42184066772461 17.86739730834961 20.325220108032227 C17.850589752197266 20.222248077392578 17.842121124267578 20.096120834350586 17.842121124267578 19.949073791503906 C17.842121124267578 19.822946548461914 17.86328887939453 19.696943283081055 17.901016235351562 19.56247329711914 C17.94085693359375 19.428001403808594 17.995641708374023 19.304115295410156 18.064868927001953 19.182220458984375 A1.5957168340682983 1.5957168340682983 0.0 0 1 18.29172706604004 18.87119483947754 C18.325468063354492 18.83757781982422 18.359086990356445 18.803958892822266 18.394821166992188 18.770217895507812 C18.430553436279297 18.732616424560547 18.457822799682617 18.700990676879883 18.480979919433594 18.675838470458984 L18.480979919433594 18.675838470458984" fill="none" filling="0" stroke="black" stroke-opacity="1.0" stroke-width=".3"/>
<path animation_id="10" d="M19.905498504638672 21.012264251708984 C19.848846435546875 20.945152282714844 19.78148651123047 20.85463523864746 19.697566986083984 20.741207122802734 C19.619747161865234 20.621429443359375 19.560853958129883 20.529041290283203 19.521011352539062 20.45134735107422 A13.413061141967773 13.413061141967773 0.0 0 1 19.18271827697754 19.715993881225586 A12.453963279724121 12.453963279724121 0.0 0 1 18.88439178466797 18.934322357177734 C18.798357009887695 18.669614791870117 18.73099708557129 18.42806625366211 18.693269729614258 18.207433700561523 L18.674345016479492 18.207433700561523 C18.58606719970703 18.341903686523438 18.453838348388672 18.49729347229004 18.270933151245117 18.67596435546875 A4.159247875213623 4.159247875213623 0.0 0 0 17.659589767456055 19.42812728881836 C17.487144470214844 19.69706916809082 17.39699935913086 19.96600914001465 17.38429832458496 20.239181518554688 C17.38429832458496 20.41573715209961 17.41156768798828 20.564903259277344 17.459877014160156 20.693145751953125 C17.510177612304688 20.821266174316406 17.587997436523438 20.920001983642578 17.690841674804688 20.985244750976562 C17.795928955078125 21.05023956298828 17.922056198120117 21.083980560302734 18.075576782226562 21.083980560302734 C18.29172706604004 21.079872131347656 18.47687339782715 21.03143882751465 18.62590980529785 20.949512481689453 C18.848657608032227 20.821392059326172 19.02521324157715 20.66799545288086 19.15333366394043 20.478864669799805 C19.170143127441406 20.504138946533203 19.214094161987305 20.594533920288086 19.287805557250977 20.754154205322266 C19.359272003173828 20.907426834106445 19.39699935913086 20.997947692871094 19.405466079711914 21.01251220703125 L19.905498504638672 21.01251220703125 L19.905498504638672 21.012264251708984 L19.905498504638672 21.012264251708984 M18.480979919433594 18.675838470458984 C18.548091888427734 19.1087589263916 18.743572235107422 19.663326263427734 19.075515747070312 20.344144821166992 C18.896968841552734 20.594160079956055 18.716304779052734 20.73274040222168 18.52294158935547 20.7537841796875 C18.484966278076172 20.75589942932129 18.432422637939453 20.7601318359375 18.3673038482666 20.7601318359375 C18.262218475341797 20.75589942932129 18.17618179321289 20.745441436767578 18.10906982421875 20.711822509765625 C18.04395294189453 20.678081512451172 17.989166259765625 20.634002685546875 17.953432083129883 20.568885803222656 C17.90935707092285 20.503890991210938 17.886323928833008 20.42184066772461 17.86739730834961 20.325220108032227 C17.850589752197266 20.222248077392578 17.842121124267578 20.096120834350586 17.842121124267578 19.949073791503906 C17.842121124267578 19.822946548461914 17.86328887939453 19.696943283081055 17.901016235351562 19.56247329711914 C17.94085693359375 19.428001403808594 17.995641708374023 19.304115295410156 18.064868927001953 19.182220458984375 A1.5957168340682983 1.5957168340682983 0.0 0 1 18.29172706604004 18.87119483947754 C18.325468063354492 18.83757781982422 18.359086990356445 18.803958892822266 18.394821166992188 18.770217895507812 C18.430553436279297 18.732616424560547 18.457822799682617 18.700990676879883 18.480979919433594 18.675838470458984 L18.480979919433594 18.675838470458984" fill="black" fill-opacity="1.0" filling="0"/>
<path animation_id="11" d="M16.571001052856445 20.556310653686523 L16.571001052856445 18.427940368652344 L16.930213928222656 18.427940368652344 C17.03741455078125 18.427940368652344 17.123577117919922 18.451099395751953 17.18869400024414 18.493057250976562 C17.256053924560547 18.53713607788086 17.310588836669922 18.600135803222656 17.350683212280273 18.673721313476562 C17.38429832458496 18.74730682373047 17.424142837524414 18.83757781982422 17.455768585205078 18.951129913330078 L17.57318115234375 18.951129913330078 L17.50196075439453 18.167341232299805 L17.151092529296875 18.289236068725586 L15.606674194335938 18.289236068725586 L15.255805969238281 18.167341232299805 L15.184585571289062 18.951129913330078 L15.310590744018555 18.951129913330078 C15.359024047851562 18.77880859375 15.41567611694336 18.64844512939453 15.491252899169922 18.558177947998047 C15.564714431762695 18.469900131225586 15.674158096313477 18.427940368652344 15.82730484008789 18.427940368652344 L16.186763763427734 18.427940368652344 L16.186763763427734 20.556310653686523 C16.186763763427734 20.655170440673828 16.180416107177734 20.724523544311523 16.15949821472168 20.768598556518555 C16.14057159423828 20.81690788269043 16.12152099609375 20.846416473388672 16.094377517700195 20.858993530273438 A0.3436468839645386 0.3436468839645386 0.0 0 1 15.985182762145996 20.884143829345703 L15.985182762145996 21.012264251708984 L16.76673126220703 21.012264251708984 L16.76673126220703 20.884143829345703 C16.720539093017578 20.880035400390625 16.684803009033203 20.87156867980957 16.661643981933594 20.858993530273438 C16.63412857055664 20.846416473388672 16.613210678100586 20.81690788269043 16.5983943939209 20.768598556518555 C16.579469680786133 20.724397659301758 16.571001052856445 20.65081214904785 16.571001052856445 20.556310653686523 L16.571001052856445 20.556310653686523" fill="none" filling="0" stroke="black" stroke-opacity="1.0" stroke-width=".3"/>
<path animation_id="12" d="M16.571001052856445 20.556310653686523 L16.571001052856445 18.427940368652344 L16.930213928222656 18.427940368652344 C17.03741455078125 18.427940368652344 17.123577117919922 18.451099395751953 17.18869400024414 18.493057250976562 C17.256053924560547 18.53713607788086 17.310588836669922 18.600135803222656 17.350683212280273 18.673721313476562 C17.38429832458496 18.74730682373047 17.424142837524414 18.83757781982422 17.455768585205078 18.951129913330078 L17.57318115234375 18.951129913330078 L17.50196075439453 18.167341232299805 L17.151092529296875 18.289236068725586 L15.606674194335938 18.289236068725586 L15.255805969238281 18.167341232299805 L15.184585571289062 18.951129913330078 L15.310590744018555 18.951129913330078 C15.359024047851562 18.77880859375 15.41567611694336 18.64844512939453 15.491252899169922 18.558177947998047 C15.564714431762695 18.469900131225586 15.674158096313477 18.427940368652344 15.82730484008789 18.427940368652344 L16.186763763427734 18.427940368652344 L16.186763763427734 20.556310653686523 C16.186763763427734 20.655170440673828 16.180416107177734 20.724523544311523 16.15949821472168 20.768598556518555 C16.14057159423828 20.81690788269043 16.12152099609375 20.846416473388672 16.094377517700195 20.858993530273438 A0.3436468839645386 0.3436468839645386 0.0 0 1 15.985182762145996 20.884143829345703 L15.985182762145996 21.012264251708984 L16.76673126220703 21.012264251708984 L16.76673126220703 20.884143829345703 C16.720539093017578 20.880035400390625 16.684803009033203 20.87156867980957 16.661643981933594 20.858993530273438 C16.63412857055664 20.846416473388672 16.613210678100586 20.81690788269043 16.5983943939209 20.768598556518555 C16.579469680786133 20.724397659301758 16.571001052856445 20.65081214904785 16.571001052856445 20.556310653686523 L16.571001052856445 20.556310653686523" fill="black" fill-opacity="1.0" filling="0"/>
<path animation_id="13" d="M13.337359428405762 20.27902603149414 L13.337359428405762 18.74730682373047 C13.34146785736084 18.608604431152344 13.354167938232422 18.522443771362305 13.385793685913086 18.480358123779297 C13.421278953552246 18.444623947143555 13.467720985412598 18.4237060546875 13.534832000732422 18.41947364807129 L13.534832000732422 18.289236068725586 L12.751043319702148 18.289236068725586 L12.751043319702148 18.41947364807129 C12.818402290344238 18.4237060546875 12.868704795837402 18.448856353759766 12.900330543518066 18.480358123779297 C12.931706428527832 18.522443771362305 12.948515892028809 18.608478546142578 12.948515892028809 18.74730682373047 L12.948515892028809 20.55618667602539 C12.948515892028809 20.655046463012695 12.940298080444336 20.724397659301758 12.92348861694336 20.768474578857422 C12.904562950134277 20.816783905029297 12.881404876708984 20.846294403076172 12.858370780944824 20.858867645263672 C12.833094596862793 20.87156867980957 12.79736042022705 20.879911422729492 12.751168251037598 20.884017944335938 L12.751168251037598 21.01214027404785 L13.534955978393555 21.01214027404785 L13.534955978393555 20.884017944335938 C13.488762855529785 20.879911422729492 13.453028678894043 20.871444702148438 13.427753448486328 20.858867645263672 C13.402727127075195 20.846294403076172 13.381560325622559 20.816783905029297 13.366992950439453 20.768474578857422 C13.35217571258545 20.724397659301758 13.337608337402344 20.65081214904785 13.337608337402344 20.55618667602539 L14.44288158416748 19.022476196289062 L14.44288158416748 20.55618667602539 C14.44288158416748 20.655046463012695 14.434414863586426 20.724397659301758 14.415365219116211 20.768474578857422 C14.400797843933105 20.816783905029297 14.379630088806152 20.846294403076172 14.352363586425781 20.858867645263672 C14.329203605651855 20.87156867980957 14.293469429016113 20.879911422729492 14.247276306152344 20.884017944335938 L14.247276306152344 21.01214027404785 L15.031064987182617 21.01214027404785 L15.031064987182617 20.884017944335938 C14.98263168334961 20.879911422729492 14.949138641357422 20.871444702148438 14.92386245727539 20.858867645263672 C14.900704383850098 20.846294403076172 14.877669334411621 20.816783905029297 14.863101959228516 20.768474578857422 C14.841935157775879 20.724397659301758 14.833717346191406 20.65081214904785 14.833717346191406 20.55618667602539 L14.833717346191406 18.74730682373047 C14.833717346191406 18.608604431152344 14.850526809692383 18.522443771362305 14.881902694702148 18.480358123779297 C14.915644645690918 18.444623947143555 14.96382999420166 18.4237060546875 15.031189918518066 18.41947364807129 L15.031189918518066 18.289236068725586 L14.247401237487793 18.289236068725586 L14.247401237487793 18.41947364807129 C14.3147611618042 18.4237060546875 14.365062713623047 18.448856353759766 14.396439552307129 18.480358123779297 C14.425823211669922 18.522443771362305 14.44288158416748 18.608478546142578 14.44288158416748 18.74730682373047 L13.337359428405762 20.27902603149414 L13.337359428405762 20.27902603149414" fill="none" filling="0" stroke="black" stroke-opacity="1.0" stroke-width=".3"/>
<path animation_id="14" d="M13.337359428405762 20.27902603149414 L13.337359428405762 18.74730682373047 C13.34146785736084 18.608604431152344 13.354167938232422 18.522443771362305 13.385793685913086 18.480358123779297 C13.421278953552246 18.444623947143555 13.467720985412598 18.4237060546875 13.534832000732422 18.41947364807129 L13.534832000732422 18.289236068725586 L12.751043319702148 18.289236068725586 L12.751043319702148 18.41947364807129 C12.818402290344238 18.4237060546875 12.868704795837402 18.448856353759766 12.900330543518066 18.480358123779297 C12.931706428527832 18.522443771362305 12.948515892028809 18.608478546142578 12.948515892028809 18.74730682373047 L12.948515892028809 20.55618667602539 C12.948515892028809 20.655046463012695 12.940298080444336 20.724397659301758 12.92348861694336 20.768474578857422 C12.904562950134277 20.816783905029297 12.881404876708984 20.846294403076172 12.858370780944824 20.858867645263672 C12.833094596862793 20.87156867980957 12.79736042022705 20.879911422729492 12.751168251037598 20.884017944335938 L12.751168251037598 21.01214027404785 L13.534955978393555 21.01214027404785 L13.534955978393555 20.884017944335938 C13.488762855529785 20.879911422729492 13.453028678894043 20.871444702148438 13.427753448486328 20.858867645263672 C13.402727127075195 20.846294403076172 13.381560325622559 20.816783905029297 13.366992950439453 20.768474578857422 C13.35217571258545 20.724397659301758 13.337608337402344 20.65081214904785 13.337608337402344 20.55618667602539 L14.44288158416748 19.022476196289062 L14.44288158416748 20.55618667602539 C14.44288158416748 20.655046463012695 14.434414863586426 20.724397659301758 14.415365219116211 20.768474578857422 C14.400797843933105 20.816783905029297 14.379630088806152 20.846294403076172 14.352363586425781 20.858867645263672 C14.329203605651855 20.87156867980957 14.293469429016113 20.879911422729492 14.247276306152344 20.884017944335938 L14.247276306152344 21.01214027404785 L15.031064987182617 21.01214027404785 L15.031064987182617 20.884017944335938 C14.98263168334961 20.879911422729492 14.949138641357422 20.871444702148438 14.92386245727539 20.858867645263672 C14.900704383850098 20.846294403076172 14.877669334411621 20.816783905029297 14.863101959228516 20.768474578857422 C14.841935157775879 20.724397659301758 14.833717346191406 20.65081214904785 14.833717346191406 20.55618667602539 L14.833717346191406 18.74730682373047 C14.833717346191406 18.608604431152344 14.850526809692383 18.522443771362305 14.881902694702148 18.480358123779297 C14.915644645690918 18.444623947143555 14.96382999420166 18.4237060546875 15.031189918518066 18.41947364807129 L15.031189918518066 18.289236068725586 L14.247401237487793 18.289236068725586 L14.247401237487793 18.41947364807129 C14.3147611618042 18.4237060546875 14.365062713623047 18.448856353759766 14.396439552307129 18.480358123779297 C14.425823211669922 18.522443771362305 14.44288158416748 18.608478546142578 14.44288158416748 18.74730682373047 L13.337359428405762 20.27902603149414 L13.337359428405762 20.27902603149414" fill="black" fill-opacity="1.0" filling="0"/>
<path animation_id="15" d="M9.065803527832031 21.012264251708984 L11.790947914123535 21.012264251708984 C12.007346153259277 21.012264251708984 12.164976119995117 21.027080535888672 12.265704154968262 21.060699462890625 C12.33505630493164 21.083858489990234 12.39195728302002 21.125816345214844 12.429558753967285 21.18682861328125 C12.467535018920898 21.256179809570312 12.488451957702637 21.321298599243164 12.488451957702637 21.394882202148438 C12.480234146118164 21.447425842285156 12.465292930603027 21.4893856048584 12.442258834838867 21.52088737487793 C12.410882949829102 21.55238914489746 12.375147819519043 21.569320678710938 12.330822944641113 21.569320678710938 A0.22785283625125885 0.22785283625125885 0.0 0 1 12.21116828918457 21.533588409423828 C12.179543495178223 21.51677703857422 12.124882698059082 21.468467712402344 12.053539276123047 21.395008087158203 A1.1771152019500732 1.1771152019500732 0.0 0 0 11.830791473388672 21.214344024658203 C11.757330894470215 21.174375534057617 11.666936874389648 21.153335571289062 11.553383827209473 21.153335571289062 C11.473573684692383 21.153335571289062 11.391645431518555 21.18271827697754 11.305484771728516 21.226917266845703 C11.223557472229004 21.27522850036621 11.149972915649414 21.346698760986328 11.091203689575195 21.42227554321289 C11.032435417175293 21.504201889038086 11.000808715820312 21.590362548828125 10.992467880249023 21.676525115966797 C10.992467880249023 21.756458282470703 11.005043029785156 21.794185638427734 11.032435417175293 21.794185638427734 C11.059701919555664 21.794185638427734 11.08286190032959 21.771026611328125 11.101787567138672 21.712257385253906 C11.145862579345703 21.60293960571289 11.242607116699219 21.525245666503906 11.395878791809082 21.491626739501953 A0.5144742727279663 0.5144742727279663 0.0 0 1 11.530349731445312 21.47481918334961 C11.587125778198242 21.47481918334961 11.639669418334961 21.48316192626953 11.681628227233887 21.499969482421875 C11.727822303771973 21.521011352539062 11.799290657043457 21.550395965576172 11.904376983642578 21.60293960571289 C12.0094633102417 21.65137481689453 12.108075141906738 21.69121551513672 12.202701568603516 21.729066848754883 C12.240676879882812 21.74587631225586 12.28052043914795 21.752225875854492 12.324597358703613 21.752225875854492 C12.402416229248047 21.752225875854492 12.467535018920898 21.724834442138672 12.528419494628906 21.676647186279297 C12.589428901672363 21.617755889892578 12.625164031982422 21.552637100219727 12.637863159179688 21.47083282470703 C12.644213676452637 21.418167114257812 12.648322105407715 21.369857788085938 12.648322105407715 21.32577896118164 C12.648322105407715 21.23538589477539 12.629396438598633 21.16615867614746 12.593663215637207 21.105274200439453 C12.553818702697754 21.04637908935547 12.497167587280273 20.993837356567383 12.411006927490234 20.941417694091797 C12.381622314453125 20.92037582397461 12.343647003173828 20.903566360473633 12.289111137390137 20.884641647338867 A0.7825437188148499 0.7825437188148499 0.0 0 0 12.190126419067383 20.842681884765625 C12.129365921020508 20.815288543701172 12.097740173339844 20.716552734375 12.097740173339844 20.556808471679688 L12.097740173339844 18.7479305267334 C12.099981307983398 18.60922622680664 12.116665840148926 18.523067474365234 12.143933296203613 18.480979919433594 C12.179667472839355 18.445247650146484 12.225860595703125 18.42432975769043 12.291104316711426 18.420095443725586 L12.291104316711426 18.289859771728516 L11.509556770324707 18.289859771728516 L11.509556770324707 18.420095443725586 C11.576790809631348 18.42432975769043 11.627218246459961 18.449480056762695 11.658719062805176 18.480979919433594 C11.69021987915039 18.523067474365234 11.704912185668945 18.609102249145508 11.704912185668945 18.7479305267334 L11.704912185668945 20.842681884765625 L10.874930381774902 20.842681884765625 L10.874930381774902 18.7479305267334 C10.87903881072998 18.60922622680664 10.891738891601562 18.523067474365234 10.923240661621094 18.480979919433594 C10.956857681274414 18.445247650146484 11.005167007446289 18.42432975769043 11.070286750793457 18.420095443725586 L11.070286750793457 18.289859771728516 L10.288738250732422 18.289859771728516 L10.288738250732422 18.420095443725586 C10.355974197387695 18.42432975769043 10.406400680541992 18.449480056762695 10.43790054321289 18.480979919433594 C10.46728515625 18.523067474365234 10.484094619750977 18.609102249145508 10.484094619750977 18.7479305267334 L10.484094619750977 20.842681884765625 L9.654111862182617 20.842681884765625 L9.654111862182617 18.7479305267334 C9.658345222473145 18.60922622680664 9.670920372009277 18.523067474365234 9.700304985046387 18.480979919433594 C9.736039161682129 18.445247650146484 9.782232284545898 18.42432975769043 9.849468231201172 18.420095443725586 L9.849468231201172 18.289859771728516 L9.065803527832031 18.289859771728516 L9.065803527832031 18.420095443725586 C9.133038520812988 18.42432975769043 9.183465957641602 18.449480056762695 9.217082977294922 18.480979919433594 C9.246467590332031 18.523067474365234 9.26340103149414 18.609102249145508 9.26340103149414 18.7479305267334 L9.26340103149414 20.556808471679688 C9.26340103149414 20.655668258666992 9.255058288574219 20.725021362304688 9.23812484741211 20.76909828186035 C9.219199180603027 20.817407608032227 9.196165084838867 20.84691619873047 9.173006057739258 20.8594913482666 C9.149847030639648 20.872190475463867 9.114112854003906 20.880531311035156 9.065803527832031 20.884641647338867 L9.065803527832031 21.012264251708984 L9.065803527832031 21.012264251708984" fill="none" filling="0" stroke="black" stroke-opacity="1.0" stroke-width=".3"/>
<path animation_id="16" d="M9.065803527832031 21.012264251708984 L11.790947914123535 21.012264251708984 C12.007346153259277 21.012264251708984 12.164976119995117 21.027080535888672 12.265704154968262 21.060699462890625 C12.33505630493164 21.083858489990234 12.39195728302002 21.125816345214844 12.429558753967285 21.18682861328125 C12.467535018920898 21.256179809570312 12.488451957702637 21.321298599243164 12.488451957702637 21.394882202148438 C12.480234146118164 21.447425842285156 12.465292930603027 21.4893856048584 12.442258834838867 21.52088737487793 C12.410882949829102 21.55238914489746 12.375147819519043 21.569320678710938 12.330822944641113 21.569320678710938 A0.22785283625125885 0.22785283625125885 0.0 0 1 12.21116828918457 21.533588409423828 C12.179543495178223 21.51677703857422 12.124882698059082 21.468467712402344 12.053539276123047 21.395008087158203 A1.1771152019500732 1.1771152019500732 0.0 0 0 11.830791473388672 21.214344024658203 C11.757330894470215 21.174375534057617 11.666936874389648 21.153335571289062 11.553383827209473 21.153335571289062 C11.473573684692383 21.153335571289062 11.391645431518555 21.18271827697754 11.305484771728516 21.226917266845703 C11.223557472229004 21.27522850036621 11.149972915649414 21.346698760986328 11.091203689575195 21.42227554321289 C11.032435417175293 21.504201889038086 11.000808715820312 21.590362548828125 10.992467880249023 21.676525115966797 C10.992467880249023 21.756458282470703 11.005043029785156 21.794185638427734 11.032435417175293 21.794185638427734 C11.059701919555664 21.794185638427734 11.08286190032959 21.771026611328125 11.101787567138672 21.712257385253906 C11.145862579345703 21.60293960571289 11.242607116699219 21.525245666503906 11.395878791809082 21.491626739501953 A0.5144742727279663 0.5144742727279663 0.0 0 1 11.530349731445312 21.47481918334961 C11.587125778198242 21.47481918334961 11.639669418334961 21.48316192626953 11.681628227233887 21.499969482421875 C11.727822303771973 21.521011352539062 11.799290657043457 21.550395965576172 11.904376983642578 21.60293960571289 C12.0094633102417 21.65137481689453 12.108075141906738 21.69121551513672 12.202701568603516 21.729066848754883 C12.240676879882812 21.74587631225586 12.28052043914795 21.752225875854492 12.324597358703613 21.752225875854492 C12.402416229248047 21.752225875854492 12.467535018920898 21.724834442138672 12.528419494628906 21.676647186279297 C12.589428901672363 21.617755889892578 12.625164031982422 21.552637100219727 12.637863159179688 21.47083282470703 C12.644213676452637 21.418167114257812 12.648322105407715 21.369857788085938 12.648322105407715 21.32577896118164 C12.648322105407715 21.23538589477539 12.629396438598633 21.16615867614746 12.593663215637207 21.105274200439453 C12.553818702697754 21.04637908935547 12.497167587280273 20.993837356567383 12.411006927490234 20.941417694091797 C12.381622314453125 20.92037582397461 12.343647003173828 20.903566360473633 12.289111137390137 20.884641647338867 A0.7825437188148499 0.7825437188148499 0.0 0 0 12.190126419067383 20.842681884765625 C12.129365921020508 20.815288543701172 12.097740173339844 20.716552734375 12.097740173339844 20.556808471679688 L12.097740173339844 18.7479305267334 C12.099981307983398 18.60922622680664 12.116665840148926 18.523067474365234 12.143933296203613 18.480979919433594 C12.179667472839355 18.445247650146484 12.225860595703125 18.42432975769043 12.291104316711426 18.420095443725586 L12.291104316711426 18.289859771728516 L11.509556770324707 18.289859771728516 L11.509556770324707 18.420095443725586 C11.576790809631348 18.42432975769043 11.627218246459961 18.449480056762695 11.658719062805176 18.480979919433594 C11.69021987915039 18.523067474365234 11.704912185668945 18.609102249145508 11.704912185668945 18.7479305267334 L11.704912185668945 20.842681884765625 L10.874930381774902 20.842681884765625 L10.874930381774902 18.7479305267334 C10.87903881072998 18.60922622680664 10.891738891601562 18.523067474365234 10.923240661621094 18.480979919433594 C10.956857681274414 18.445247650146484 11.005167007446289 18.42432975769043 11.070286750793457 18.420095443725586 L11.070286750793457 18.289859771728516 L10.288738250732422 18.289859771728516 L10.288738250732422 18.420095443725586 C10.355974197387695 18.42432975769043 10.406400680541992 18.449480056762695 10.43790054321289 18.480979919433594 C10.46728515625 18.523067474365234 10.484094619750977 18.609102249145508 10.484094619750977 18.7479305267334 L10.484094619750977 20.842681884765625 L9.654111862182617 20.842681884765625 L9.654111862182617 18.7479305267334 C9.658345222473145 18.60922622680664 9.670920372009277 18.523067474365234 9.700304985046387 18.480979919433594 C9.736039161682129 18.445247650146484 9.782232284545898 18.42432975769043 9.849468231201172 18.420095443725586 L9.849468231201172 18.289859771728516 L9.065803527832031 18.289859771728516 L9.065803527832031 18.420095443725586 C9.133038520812988 18.42432975769043 9.183465957641602 18.449480056762695 9.217082977294922 18.480979919433594 C9.246467590332031 18.523067474365234 9.26340103149414 18.609102249145508 9.26340103149414 18.7479305267334 L9.26340103149414 20.556808471679688 C9.26340103149414 20.655668258666992 9.255058288574219 20.725021362304688 9.23812484741211 20.76909828186035 C9.219199180603027 20.817407608032227 9.196165084838867 20.84691619873047 9.173006057739258 20.8594913482666 C9.149847030639648 20.872190475463867 9.114112854003906 20.880531311035156 9.065803527832031 20.884641647338867 L9.065803527832031 21.012264251708984 L9.065803527832031 21.012264251708984" fill="black" fill-opacity="1.0" filling="0"/>
<path animation_id="17" d="M8.9375581741333 21.012264251708984 C8.88090705871582 20.945152282714844 8.813671112060547 20.85463523864746 8.72962760925293 20.741207122802734 C8.653924942016602 20.621429443359375 8.592915534973145 20.529041290283203 8.553071975708008 20.45134735107422 A13.506817817687988 13.506817817687988 0.0 0 1 8.214778900146484 19.715993881225586 A12.690156936645508 12.690156936645508 0.0 0 1 7.916454315185547 18.934322357177734 C7.83029317855835 18.669614791870117 7.763182640075684 18.42806625366211 7.7252068519592285 18.207433700561523 L7.706281661987305 18.207433700561523 C7.620245456695557 18.341903686523438 7.485774993896484 18.49729347229004 7.302870273590088 18.67596435546875 A4.17593240737915 4.17593240737915 0.0 0 0 6.691402912139893 19.42812728881836 C6.5192060470581055 19.69706916809082 6.428811550140381 19.96600914001465 6.416236400604248 20.239181518554688 C6.416236400604248 20.41573715209961 6.445620536804199 20.564903259277344 6.491813659667969 20.693145751953125 C6.542240142822266 20.821266174316406 6.61993408203125 20.920001983642578 6.722903728485107 20.985244750976562 C6.8279900550842285 21.05023956298828 6.953993797302246 21.083980560302734 7.1073899269104 21.083980560302734 C7.325904369354248 21.079872131347656 7.5086846351623535 21.03143882751465 7.6578474044799805 20.949512481689453 C7.882712364196777 20.821392059326172 8.057149887084961 20.66799545288086 8.185270309448242 20.478864669799805 C8.202079772949219 20.504138946533203 8.246155738830566 20.594533920288086 8.319741249084473 20.754154205322266 C8.391209602355957 20.907426834106445 8.428936004638672 20.997947692871094 8.437402725219727 21.01251220703125 L8.9375581741333 21.01251220703125 L8.9375581741333 21.012264251708984 L8.9375581741333 21.012264251708984 M7.513042449951172 18.675838470458984 C7.580277919769287 19.1087589263916 7.775633811950684 19.663326263427734 8.10969352722168 20.344144821166992 C7.92902946472168 20.594160079956055 7.748241424560547 20.73274040222168 7.555002689361572 20.7537841796875 C7.517151355743408 20.75589942932129 7.4667253494262695 20.7601318359375 7.399489879608154 20.7601318359375 C7.294403553009033 20.75589942932129 7.208242893218994 20.745441436767578 7.141007423400879 20.711822509765625 C7.0758891105651855 20.678081512451172 7.021353244781494 20.634002685546875 6.985494613647461 20.568885803222656 C6.941418170928955 20.503890991210938 6.918259620666504 20.42184066772461 6.899333953857422 20.325220108032227 C6.882525444030762 20.222248077392578 6.874058723449707 20.096120834350586 6.874058723449707 19.949073791503906 C6.874058723449707 19.822946548461914 6.8951005935668945 19.696943283081055 6.934944152832031 19.56247329711914 C6.972794532775879 19.428001403808594 7.027454853057861 19.304115295410156 7.096806526184082 19.182220458984375 A1.5099296569824219 1.5099296569824219 0.0 0 1 7.325779914855957 18.87119483947754 C7.357280731201172 18.83757781982422 7.393014907836914 18.803958892822266 7.426757335662842 18.770217895507812 C7.462615966796875 18.732616424560547 7.4898834228515625 18.700990676879883 7.513042449951172 18.675838470458984 L7.513042449951172 18.675838470458984" fill="none" filling="0" stroke="black" stroke-opacity="1.0" stroke-width=".3"/>
<path animation_id="18" d="M8.9375581741333 21.012264251708984 C8.88090705871582 20.945152282714844 8.813671112060547 20.85463523864746 8.72962760925293 20.741207122802734 C8.653924942016602 20.621429443359375 8.592915534973145 20.529041290283203 8.553071975708008 20.45134735107422 A13.506817817687988 13.506817817687988 0.0 0 1 8.214778900146484 19.715993881225586 A12.690156936645508 12.690156936645508 0.0 0 1 7.916454315185547 18.934322357177734 C7.83029317855835 18.669614791870117 7.763182640075684 18.42806625366211 7.7252068519592285 18.207433700561523 L7.706281661987305 18.207433700561523 C7.620245456695557 18.341903686523438 7.485774993896484 18.49729347229004 7.302870273590088 18.67596435546875 A4.17593240737915 4.17593240737915 0.0 0 0 6.691402912139893 19.42812728881836 C6.5192060470581055 19.69706916809082 6.428811550140381 19.96600914001465 6.416236400604248 20.239181518554688 C6.416236400604248 20.41573715209961 6.445620536804199 20.564903259277344 6.491813659667969 20.693145751953125 C6.542240142822266 20.821266174316406 6.61993408203125 20.920001983642578 6.722903728485107 20.985244750976562 C6.8279900550842285 21.05023956298828 6.953993797302246 21.083980560302734 7.1073899269104 21.083980560302734 C7.325904369354248 21.079872131347656 7.5086846351623535 21.03143882751465 7.6578474044799805 20.949512481689453 C7.882712364196777 20.821392059326172 8.057149887084961 20.66799545288086 8.185270309448242 20.478864669799805 C8.202079772949219 20.504138946533203 8.246155738830566 20.594533920288086 8.319741249084473 20.754154205322266 C8.391209602355957 20.907426834106445 8.428936004638672 20.997947692871094 8.437402725219727 21.01251220703125 L8.9375581741333 21.01251220703125 L8.9375581741333 21.012264251708984 L8.9375581741333 21.012264251708984 M7.513042449951172 18.675838470458984 C7.580277919769287 19.1087589263916 7.775633811950684 19.663326263427734 8.10969352722168 20.344144821166992 C7.92902946472168 20.594160079956055 7.748241424560547 20.73274040222168 7.555002689361572 20.7537841796875 C7.517151355743408 20.75589942932129 7.4667253494262695 20.7601318359375 7.399489879608154 20.7601318359375 C7.294403553009033 20.75589942932129 7.208242893218994 20.745441436767578 7.141007423400879 20.711822509765625 C7.0758891105651855 20.678081512451172 7.021353244781494 20.634002685546875 6.985494613647461 20.568885803222656 C6.941418170928955 20.503890991210938 6.918259620666504 20.42184066772461 6.899333953857422 20.325220108032227 C6.882525444030762 20.222248077392578 6.874058723449707 20.096120834350586 6.874058723449707 19.949073791503906 C6.874058723449707 19.822946548461914 6.8951005935668945 19.696943283081055 6.934944152832031 19.56247329711914 C6.972794532775879 19.428001403808594 7.027454853057861 19.304115295410156 7.096806526184082 19.182220458984375 A1.5099296569824219 1.5099296569824219 0.0 0 1 7.325779914855957 18.87119483947754 C7.357280731201172 18.83757781982422 7.393014907836914 18.803958892822266 7.426757335662842 18.770217895507812 C7.462615966796875 18.732616424560547 7.4898834228515625 18.700990676879883 7.513042449951172 18.675838470458984 L7.513042449951172 18.675838470458984" fill="black" fill-opacity="1.0" filling="0"/></svg>