<?xml version="1.0" encoding="iso-8859-1"?><svg height="200px" viewBox="0.0 0.0 24.0 24.0" width="200px" xmlns="http://www.w3.org/2000/svg"><path animation_id="0" d="M0.0 23.999065399169922 L24.0 23.999065399169922 L24.0 0.0009336471557617188 L0.0 0.0009336471557617188 L0.0 23.999065399169922" fill="black" fill-opacity="1.0" filling="0"/>
<path animation_id="1" d="M17.838634490966797 9.783913612365723 C19.920562744140625 10.470832824707031 21.294527053833008 11.647575378417969 21.294527053833008 12.984188079833984 C21.294527053833008 15.103591918945312 17.84137535095215 16.82207489013672 13.582518577575684 16.82207489013672 C10.426944732666016 16.82207489013672 7.7153706550598145 15.878167152404785 6.521571159362793 14.527236938476562 C7.530100345611572 16.176990509033203 10.739961624145508 17.38349151611328 14.546722412109375 17.38349151611328 C19.161800384521484 17.38349151611328 22.90294647216797 15.61072063446045 22.90294647216797 13.42383098602295 C22.90294647216797 11.790885925292969 20.81690788269043 10.38927936553955 17.838634490966797 9.783913612365723 L17.838634490966797 9.783913612365723" fill="black" fill-opacity="1.0" filling="0"/>
<path animation_id="2" d="M17.826807022094727 9.82002067565918 C19.974349975585938 10.528606414794922 21.256677627563477 11.711448669433594 21.256677627563477 12.984188079833984 C21.256677627563477 15.079312324523926 17.813982009887695 16.78397560119629 13.582518577575684 16.78397560119629 C10.535640716552734 16.78397560119629 7.775259971618652 15.888252258300781 6.550084114074707 14.502086639404297 L6.48907470703125 14.547283172607422 C7.5238752365112305 16.239742279052734 10.837203979492188 17.421714782714844 14.546722412109375 17.421714782714844 C19.175495147705078 17.421714782714844 22.94116973876953 15.628400802612305 22.94116973876953 13.424079895019531 C22.94116973876953 11.8191499710083 20.941295623779297 10.375707626342773 17.84623146057129 9.746437072753906 L17.826807022094727 9.82002067565918 L17.826807022094727 9.82002067565918 M21.332752227783203 12.984188079833984 C21.332752227783203 11.792006492614746 20.24740219116211 10.682003021240234 18.402664184570312 9.949884414672852 C21.132915496826172 10.624105453491211 22.864845275878906 11.956982612609863 22.864845275878906 13.423955917358398 C22.864845275878906 15.586191177368164 19.133411407470703 17.34551429748535 14.546722412109375 17.34551429748535 C11.162796974182129 17.34551429748535 8.119529724121094 16.359521865844727 6.853389739990234 14.904500961303711 C8.220756530761719 16.103281021118164 10.780924797058105 16.86017608642578 13.582518577575684 16.86017608642578 C17.855941772460938 16.86017608642578 21.332752227783203 15.121521949768066 21.332752227783203 12.984188079833984 L21.332752227783203 12.984188079833984 M6.845421314239502 8.130672454833984 L6.595530033111572 6.5850090980529785 L4.706095218658447 6.5850090980529785 L4.309655666351318 7.143435478210449 L5.337732791900635 8.572059631347656 L6.845421314239502 8.130672454833984 M4.307041168212891 7.146921634674072 L1.0588302612304688 11.54323673248291 L3.0386600494384766 11.54323673248291 L4.059515953063965 10.224678039550781 L4.225985527038574 10.224678039550781 L4.228350639343262 9.928096771240234 L2.7031068801879883 9.349872589111328 L4.2015814781188965 8.906618118286133 L4.307041168212891 7.146921634674072 L4.307041168212891 7.146921634674072 M6.847413539886475 8.142501831054688 L5.89068078994751 9.438897132873535 L6.784660816192627 10.803150177001953 L5.237377643585205 10.287554740905762 L5.1906867027282715 10.345452308654785 L5.401854991912842 11.556558609008789 L7.407582759857178 11.556558609008789 L6.847413539886475 8.142501831054688 L6.847413539886475 8.142501831054688 M12.516093254089355 7.949262619018555 L10.390960693359375 7.949262619018555 L10.1806640625 8.841872215270996 L12.29919719696045 8.841872215270996 L11.99825668334961 10.082488059997559 L9.879474639892578 10.082488059997559 L9.530224800109863 11.557555198669434 L7.459378719329834 11.557555198669434 L8.65043830871582 6.580152988433838 L12.846417427062988 6.580152988433838 L12.516093254089355 7.949262619018555 L12.516093254089355 7.949262619018555" fill="black" fill-opacity="1.0" filling="0"/>
<path animation_id="3" d="M17.14685821533203 11.559547424316406 L15.488140106201172 11.545228958129883 L14.304302215576172 9.133474349975586 L13.783103942871094 11.562286376953125 L12.030007362365723 11.557555198669434 L13.200648307800293 6.588371276855469 L14.931707382202148 6.588371276855469 L16.09998321533203 8.867521286010742 L16.685550689697266 6.583639621734619 L18.34762954711914 6.583639621734619 L17.14685821533203 11.559547424316406 L17.14685821533203 11.559547424316406" fill="black" fill-opacity="1.0" filling="0"/>
<path animation_id="4" d="M5.564713954925537 9.452717781066895 L6.2876176834106445 8.527610778808594 L5.167901515960693 8.84909439086914 L4.495548725128174 7.826122283935547 L4.436033248901367 9.059142112731934 L3.350682258605957 9.370914459228516 L4.402415752410889 9.756147384643555 L4.3417792320251465 11.018054008483887 L5.121957778930664 10.019609451293945 L6.19597864151001 10.413061141967773 L5.564713954925537 9.452717781066895 L5.564713954925537 9.452717781066895" fill="black" fill-opacity="1.0" filling="0"/>
<path animation_id="5" d="M4.457448959350586 7.824254512786865 L4.399302959442139 9.030006408691406 L3.2277908325195312 9.366432189941406 L4.362946033477783 9.782294273376465 L4.297952175140381 11.136089324951172 L5.134906768798828 10.064931869506836 L6.291228294372559 10.488638877868652 L5.611654281616211 9.454710006713867 L6.389964580535889 8.458507537841797 L5.1843366622924805 8.804768562316895 L4.463051795959473 7.707340240478516 L4.457448959350586 7.824254512786865 L4.457448959350586 7.824254512786865 M4.4466166496276855 9.095747947692871 L4.472887992858887 9.088277816772461 L4.527797222137451 7.944904327392578 L5.151341915130615 8.89354419708252 L6.185145854949951 8.596713066101074 L5.5177741050720215 9.450850486755371 L6.100604057312012 10.337608337402344 L5.108758926391602 9.974288940429688 L4.385482311248779 10.900018692016602 L4.441760540008545 9.730000495910645 L3.473324775695801 9.375272750854492 L4.4466166496276855 9.095747947692871 L4.4466166496276855 9.095747947692871" fill="black" fill-opacity="1.0" filling="0"/>
<path animation_id="6" d="M10.36705493927002 12.360020637512207 L11.128805160522461 12.360020637512207 L12.468779563903809 14.235759735107422 L12.468779563903809 12.960904121398926 C12.468779563903809 12.8350248336792 12.436904907226562 12.734171867370605 12.372782707214355 12.658345222473145 C12.309033393859863 12.58251953125 12.218639373779297 12.540185928344727 12.101848602294922 12.53147029876709 L12.101848602294922 12.359895706176758 L12.997945785522461 12.359895706176758 L12.997945785522461 12.53147029876709 C12.872689247131348 12.54653549194336 12.782669067382812 12.587997436523438 12.72775936126709 12.656477928161621 C12.672601699829102 12.724958419799805 12.645085334777832 12.826309204101562 12.645085334777832 12.960655212402344 L12.645085334777832 15.095499038696289 L12.45495891571045 15.095499038696289 L10.929465293884277 12.937745094299316 L10.929465293884277 14.43248462677002 C10.929465293884277 14.60368537902832 10.964826583862305 14.72844409942627 11.035673141479492 14.806636810302734 C11.106393814086914 14.884828567504883 11.193426132202148 14.923799514770508 11.296894073486328 14.923799514770508 L11.339351654052734 14.923799514770508 L11.339351654052734 15.095499038696289 L10.348005294799805 15.095499038696289 L10.348005294799805 14.923799514770508 L10.416485786437988 14.923799514770508 C10.5138521194458 14.923799514770508 10.595903396606445 14.880845069885254 10.662516593933105 14.794933319091797 C10.729253768920898 14.709020614624023 10.762497901916504 14.598455429077148 10.762497901916504 14.463238716125488 L10.762497901916504 12.701924324035645 C10.6882905960083 12.588371276855469 10.592916488647461 12.53147029876709 10.4764986038208 12.53147029876709 L10.36705493927002 12.53147029876709 L10.36705493927002 12.360020637512207 L10.36705493927002 12.360020637512207 M14.5919189453125 14.237751960754395 L13.495611190795898 14.237751960754395 C13.498102188110352 14.480669975280762 13.541804313659668 14.659839630126953 13.626720428466797 14.77501106262207 C13.71163558959961 14.890182495117188 13.820581436157227 14.947830200195312 13.953557968139648 14.947830200195312 C14.049430847167969 14.947830200195312 14.139824867248535 14.918445587158203 14.224740982055664 14.859304428100586 C14.309656143188477 14.800162315368652 14.397186279296875 14.693083763122559 14.487081527709961 14.538068771362305 L14.610845565795898 14.62373161315918 C14.517213821411133 14.808256149291992 14.409263610839844 14.940235137939453 14.287368774414062 15.019548416137695 C14.165349006652832 15.098861694335938 14.016683578491211 15.138455390930176 13.841623306274414 15.138455390930176 C13.586503982543945 15.138455390930176 13.38006591796875 15.052169799804688 13.222187995910645 14.879474639892578 C13.064558982849121 14.706655502319336 12.98561954498291 14.48527717590332 12.98561954498291 14.214966773986816 C12.98561954498291 13.944780349731445 13.0654296875 13.719043731689453 13.224678039550781 13.537633895874023 C13.383925437927246 13.356222152709961 13.579032897949219 13.265580177307129 13.809998512268066 13.265580177307129 C13.970491409301758 13.265580177307129 14.108199119567871 13.301937103271484 14.223121643066406 13.374650001525879 C14.337919235229492 13.447239875793457 14.42744255065918 13.553570747375488 14.491564750671387 13.693394660949707 C14.555935859680176 13.833344459533691 14.589305877685547 14.014755249023438 14.5919189453125 14.237751960754395 L14.5919189453125 14.237751960754395 M13.495735168457031 14.070908546447754 L14.02054500579834 14.070908546447754 C14.068979263305664 14.070908546447754 14.103965759277344 14.057586669921875 14.125630378723145 14.030318260192871 C14.147294998168945 14.003050804138184 14.158500671386719 13.953869819641113 14.158500671386719 13.88227653503418 C14.158500671386719 13.739089965820312 14.128618240356445 13.628400802612305 14.068979263305664 13.550084114074707 C14.00933837890625 13.471519470214844 13.933760643005371 13.432422637939453 13.842121124267578 13.432422637939453 C13.734171867370605 13.432422637939453 13.65124797821045 13.485713005065918 13.593600273132324 13.591670036315918 C13.53582763671875 13.697751998901367 13.503206253051758 13.857499122619629 13.495735168457031 14.070908546447754 M14.741456031799316 13.365560531616211 L15.54690933227539 13.365560531616211 L15.54690933227539 13.5325288772583 L15.501214027404785 13.5325288772583 C15.45116138458252 13.5325288772583 15.41604995727539 13.540122985839844 15.396376609802246 13.555313110351562 A0.07171761244535446 0.07171761244535446 0.0 0 0 15.367240905761719 13.614580154418945 C15.367240905761719 13.631762504577637 15.370851516723633 13.649317741394043 15.378447532653809 13.667621612548828 L15.701924324035645 14.466102600097656 L15.98057746887207 13.730623245239258 C15.936500549316406 13.63188648223877 15.902259826660156 13.57498550415039 15.877482414245605 13.560294151306152 C15.849966049194336 13.541866302490234 15.803524017333984 13.532652854919434 15.737658500671387 13.532652854919434 L15.737658500671387 13.365684509277344 L16.609724044799805 13.365684509277344 L16.609724044799805 13.532652854919434 L16.559669494628906 13.532652854919434 C16.50812530517578 13.532652854919434 16.472639083862305 13.540746688842773 16.452966690063477 13.557056427001953 A0.0796862319111824 0.0796862319111824 0.0 0 0 16.4233341217041 13.621927261352539 C16.4233341217041 13.653303146362305 16.431053161621094 13.687045097351074 16.447114944458008 13.722655296325684 L16.750669479370117 14.466226577758789 L17.018863677978516 13.746312141418457 C17.02621078491211 13.725393295288086 17.02981948852539 13.70335578918457 17.02981948852539 13.680071830749512 C17.02981948852539 13.634626388549805 17.018863677978516 13.598767280578613 16.99645233154297 13.572371482849121 A0.10894602537155151 0.10894602537155151 0.0 0 0 16.909420013427734 13.532901763916016 L16.848159790039062 13.532901763916016 L16.848159790039062 13.365934371948242 L17.467845916748047 13.365934371948242 L17.467845916748047 13.532901763916016 C17.336488723754883 13.542613983154297 17.24335479736328 13.620930671691895 17.188446044921875 13.767976760864258 L16.67733383178711 15.153271675109863 L16.559921264648438 15.153271675109863 L16.079437255859375 13.970553398132324 L15.641412734985352 15.153271675109863 L15.513042449951172 15.153271675109863 L14.921123504638672 13.669116020202637 C14.898711204528809 13.616447448730469 14.876424789428711 13.581212043762207 14.853763580322266 13.56315803527832 C14.830853462219238 13.545352935791016 14.793749809265137 13.535266876220703 14.74195384979248 13.532901763916016 L14.74195384979248 13.365560531616211 L14.741456031799316 13.365560531616211 L14.741456031799316 13.365560531616211 M18.70124053955078 13.416111946105957 L18.813297271728516 13.270310401916504 L18.913528442382812 13.270310401916504 L18.946895599365234 13.861233711242676 L18.81342315673828 13.861233711242676 C18.742700576782227 13.703231811523438 18.664384841918945 13.59241771697998 18.578969955444336 13.528419494628906 C18.493183135986328 13.464296340942383 18.389591217041016 13.432297706604004 18.268192291259766 13.432297706604004 C18.162609100341797 13.432297706604004 18.08267593383789 13.454710006713867 18.027891159057617 13.499408721923828 C17.97323226928711 13.544232368469238 17.94596290588379 13.600759506225586 17.94596290588379 13.668867111206055 C17.94596290588379 13.736102104187012 17.966880798339844 13.787026405334473 18.00896644592285 13.82176399230957 C18.050800323486328 13.857748031616211 18.166345596313477 13.896968841552734 18.35547637939453 13.939799308776855 C18.52717399597168 13.978647232055664 18.6414737701416 14.011144638061523 18.698375701904297 14.037042617797852 C18.806325912475586 14.085102081298828 18.890493392944336 14.156696319580078 18.951005935668945 14.251696586608887 C19.011764526367188 14.346697807312012 19.042146682739258 14.457759857177734 19.042146682739258 14.584759712219238 C19.042146682739258 14.745128631591797 18.983753204345703 14.879972457885742 18.86733627319336 14.989043235778809 C18.75104331970215 15.098237991333008 18.59814453125 15.1527738571167 18.408641815185547 15.1527738571167 A0.8052045106887817 0.8052045106887817 0.0 0 1 18.159622192382812 15.116416931152344 C18.085166931152344 15.092137336730957 18.008590698242188 15.049430847167969 17.92902946472168 14.988296508789062 L17.812488555908203 15.143310546875 L17.68362045288086 15.143310546875 L17.655107498168945 14.490382194519043 L17.793190002441406 14.490382194519043 C17.910602569580078 14.820831298828125 18.113428115844727 14.985930442810059 18.40191650390625 14.985930442810059 C18.519330978393555 14.985930442810059 18.609350204467773 14.960655212402344 18.67185401916504 14.909854888916016 C18.734357833862305 14.859179496765137 18.765485763549805 14.798418998718262 18.765485763549805 14.727946281433105 C18.765485763549805 14.663450241088867 18.74581527709961 14.614767074584961 18.706096649169922 14.581274032592773 C18.667621612548828 14.547904968261719 18.56452751159668 14.511921882629395 18.396564483642578 14.473697662353516 C18.21465492248535 14.43285846710205 18.091140747070312 14.397622108459473 18.025897979736328 14.367864608764648 C17.91408920288086 14.319679260253906 17.82967185974121 14.252692222595215 17.77326774597168 14.166906356811523 C17.716615676879883 14.081117630004883 17.688350677490234 13.97752571105957 17.688350677490234 13.856502532958984 C17.688350677490234 13.683683395385742 17.740148544311523 13.541990280151367 17.843740463256836 13.431426048278809 C17.947582244873047 13.32086181640625 18.085662841796875 13.265580177307129 18.25860595703125 13.265580177307129 C18.343772888183594 13.265580177307129 18.419845581054688 13.276909828186035 18.487205505371094 13.299446105957031 C18.5548152923584 13.321982383728027 18.62615966796875 13.360954284667969 18.70124053955078 13.416111946105957 L18.70124053955078 13.416111946105957" fill="black" fill-opacity="1.0" filling="0"/>
<path animation_id="7" d="M10.36705493927002 12.360020637512207 L11.128805160522461 12.360020637512207 L12.468779563903809 14.235759735107422 L12.468779563903809 12.960904121398926 C12.468779563903809 12.8350248336792 12.436904907226562 12.734171867370605 12.372782707214355 12.658345222473145 C12.309033393859863 12.58251953125 12.218639373779297 12.540185928344727 12.101848602294922 12.53147029876709 M12.101724624633789 12.531594276428223 L12.101724624633789 12.360020637512207 L12.997820854187012 12.360020637512207 L12.997820854187012 12.531594276428223 M12.997945785522461 12.531594276428223 C12.872689247131348 12.546660423278809 12.782669067382812 12.588122367858887 12.72775936126709 12.656601905822754 C12.672601699829102 12.725082397460938 12.645085334777832 12.826434135437012 12.645085334777832 12.960779190063477 L12.645085334777832 15.095623970031738 L12.45495891571045 15.095623970031738 L10.929465293884277 12.937870025634766 L10.929465293884277 14.432608604431152 M10.929340362548828 14.432608604431152 C10.929340362548828 14.603809356689453 10.964702606201172 14.728569030761719 11.035548210144043 14.806760787963867 C11.106268882751465 14.884953498840332 11.193302154541016 14.923924446105957 11.296769142150879 14.923924446105957 L11.339226722717285 14.923924446105957 L11.339226722717285 15.095623970031738 L10.348005294799805 15.095623970031738 L10.348005294799805 14.923924446105957 L10.416485786437988 14.923924446105957 C10.5138521194458 14.923924446105957 10.595903396606445 14.880969047546387 10.662516593933105 14.79505729675293 C10.729253768920898 14.709144592285156 10.762497901916504 14.598580360412598 10.762497901916504 14.463363647460938 L10.762497901916504 12.702048301696777 C10.6882905960083 12.588495254516602 10.592916488647461 12.531594276428223 10.4764986038208 12.531594276428223 L10.36705493927002 12.531594276428223 L10.36705493927002 12.360020637512207 M14.5919189453125 14.237751960754395 L13.495611190795898 14.237751960754395 M13.495735168457031 14.237751960754395 C13.498226165771484 14.480669975280762 13.541929244995117 14.659839630126953 13.62684440612793 14.77501106262207 C13.711759567260742 14.890182495117188 13.820706367492676 14.947830200195312 13.953682899475098 14.947830200195312 C14.049554824829102 14.947830200195312 14.139949798583984 14.918445587158203 14.224864959716797 14.859304428100586 C14.30978012084961 14.800162315368652 14.397311210632324 14.693083763122559 14.48720645904541 14.538068771362305 L14.610969543457031 14.62373161315918 C14.517337799072266 14.808256149291992 14.409387588500977 14.940235137939453 14.287492752075195 15.019548416137695 C14.165472984313965 15.098861694335938 14.01680850982666 15.138455390930176 13.841748237609863 15.138455390930176 C13.586627960205078 15.138455390930176 13.380189895629883 15.052169799804688 13.222311973571777 14.879474639892578 C13.064682960510254 14.706655502319336 12.985743522644043 14.48527717590332 12.985743522644043 14.214966773986816 C12.985743522644043 13.944780349731445 13.06555461883545 13.719043731689453 13.224802017211914 13.537633895874023 C13.384051322937012 13.356222152709961 13.579156875610352 13.265580177307129 13.810123443603516 13.265580177307129 C13.970616340637207 13.265580177307129 14.108323097229004 13.301937103271484 14.223246574401855 13.374650001525879 C14.338044166564941 13.447239875793457 14.427566528320312 13.553570747375488 14.491689682006836 13.693394660949707 C14.555935859680176 13.833344459533691 14.589179992675781 14.014755249023438 14.5919189453125 14.237751960754395 M13.495735168457031 14.070908546447754 L14.02054500579834 14.070908546447754 M14.02042007446289 14.070908546447754 C14.068854331970215 14.070908546447754 14.103841781616211 14.057586669921875 14.125505447387695 14.030318260192871 C14.147171020507812 14.003050804138184 14.158376693725586 13.953869819641113 14.158376693725586 13.88227653503418 C14.158376693725586 13.739089965820312 14.128494262695312 13.628400802612305 14.068854331970215 13.550084114074707 C14.009214401245117 13.471519470214844 13.933635711669922 13.432422637939453 13.841997146606445 13.432422637939453 C13.734046936035156 13.432422637939453 13.651124000549316 13.485713005065918 13.593476295471191 13.591670036315918 C13.53582763671875 13.697877883911133 13.503206253051758 13.857623100280762 13.495735168457031 14.071032524108887 M14.741456031799316 13.365560531616211 L15.54690933227539 13.365560531616211 L15.54690933227539 13.5325288772583 L15.501214027404785 13.5325288772583 C15.45116138458252 13.5325288772583 15.41604995727539 13.540122985839844 15.396376609802246 13.555313110351562 A0.07171761244535446 0.07171761244535446 0.0 0 0 15.367240905761719 13.614580154418945 C15.367240905761719 13.631762504577637 15.370851516723633 13.649317741394043 15.378447532653809 13.667621612548828 M15.378447532653809 13.667496681213379 L15.701924324035645 14.465978622436523 L15.98057746887207 13.730498313903809 C15.936500549316406 13.631762504577637 15.902259826660156 13.574861526489258 15.877482414245605 13.560169219970703 C15.849966049194336 13.541742324829102 15.803524017333984 13.5325288772583 15.737658500671387 13.5325288772583 M15.737534523010254 13.5325288772583 L15.737534523010254 13.365560531616211 L16.609600067138672 13.365560531616211 L16.609600067138672 13.5325288772583 L16.559547424316406 13.5325288772583 C16.507999420166016 13.5325288772583 16.472515106201172 13.540621757507324 16.452842712402344 13.55693244934082 A0.0796862319111824 0.0796862319111824 0.0 0 0 16.423208236694336 13.62180233001709 C16.423208236694336 13.653178215026855 16.430927276611328 13.686920166015625 16.446989059448242 13.722530364990234 M16.446989059448242 13.722406387329102 L16.750545501708984 14.465978622436523 L17.018739700317383 13.746062278747559 C17.026084899902344 13.725144386291504 17.029695510864258 13.703106880187988 17.029695510864258 13.67982292175293 C17.029695510864258 13.634377479553223 17.018739700317383 13.598518371582031 16.996326446533203 13.572122573852539 A0.10894602537155151 0.10894602537155151 0.0 0 0 16.9092960357666 13.532652854919434 M16.9092960357666 13.5325288772583 L16.84803581237793 13.5325288772583 L16.84803581237793 13.365560531616211 L17.467721939086914 13.365560531616211 L17.467721939086914 13.5325288772583 M17.46759605407715 13.5325288772583 C17.336238861083984 13.542240142822266 17.243106842041016 13.620556831359863 17.188196182250977 13.767602920532227 M17.188196182250977 13.767478942871094 L16.67708396911621 15.1527738571167 L16.559669494628906 15.1527738571167 L16.07918930053711 13.97005558013916 L15.641162872314453 15.1527738571167 L15.512794494628906 15.1527738571167 L14.920873641967773 13.668618202209473 M14.92074966430664 13.668618202209473 C14.898338317871094 13.615949630737305 14.87605094909668 13.580714225769043 14.853389739990234 13.56265926361084 C14.830480575561523 13.544855117797852 14.793376922607422 13.534769058227539 14.741580963134766 13.532403945922852 M14.741456031799316 13.5325288772583 L14.741456031799316 13.365560531616211 M18.70124053955078 13.416111946105957 L18.813297271728516 13.270310401916504 L18.913528442382812 13.270310401916504 L18.946895599365234 13.861233711242676 L18.81342315673828 13.861233711242676 C18.742700576782227 13.703231811523438 18.664384841918945 13.59241771697998 18.578969955444336 13.528419494628906 C18.493183135986328 13.464296340942383 18.389591217041016 13.432297706604004 18.268192291259766 13.432297706604004 C18.162609100341797 13.432297706604004 18.08267593383789 13.454710006713867 18.027891159057617 13.499408721923828 C17.97323226928711 13.544232368469238 17.94596290588379 13.600759506225586 17.94596290588379 13.668867111206055 C17.94596290588379 13.736102104187012 17.966880798339844 13.787026405334473 18.00896644592285 13.82176399230957 C18.050800323486328 13.857748031616211 18.166345596313477 13.896968841552734 18.35547637939453 13.939799308776855 C18.52717399597168 13.978647232055664 18.6414737701416 14.011144638061523 18.698375701904297 14.037042617797852 C18.806325912475586 14.085102081298828 18.890493392944336 14.156696319580078 18.951005935668945 14.251696586608887 C19.011764526367188 14.346697807312012 19.042146682739258 14.457759857177734 19.042146682739258 14.584759712219238 C19.042146682739258 14.745128631591797 18.983753204345703 14.879972457885742 18.86733627319336 14.989043235778809 C18.75104331970215 15.098237991333008 18.59814453125 15.1527738571167 18.408641815185547 15.1527738571167 A0.8052045106887817 0.8052045106887817 0.0 0 1 18.159622192382812 15.116416931152344 C18.085166931152344 15.092137336730957 18.008590698242188 15.049430847167969 17.92902946472168 14.988296508789062 M17.929153442382812 14.988296508789062 L17.812612533569336 15.143310546875 L17.683744430541992 15.143310546875 L17.65523338317871 14.490382194519043 L17.79331398010254 14.490382194519043 M17.793439865112305 14.490382194519043 C17.910850524902344 14.820831298828125 18.113677978515625 14.985930442810059 18.40216636657715 14.985930442810059 C18.519580841064453 14.985930442810059 18.609600067138672 14.960655212402344 18.672103881835938 14.909854888916016 C18.734607696533203 14.859179496765137 18.765735626220703 14.798418998718262 18.765735626220703 14.727946281433105 C18.765735626220703 14.663450241088867 18.746063232421875 14.614767074584961 18.706344604492188 14.581274032592773 C18.667869567871094 14.547904968261719 18.564775466918945 14.511921882629395 18.396812438964844 14.473697662353516 C18.21490478515625 14.43285846710205 18.091388702392578 14.397622108459473 18.026145935058594 14.367864608764648 C17.914337158203125 14.319679260253906 17.829919815063477 14.252692222595215 17.773517608642578 14.166906356811523 C17.71686553955078 14.081117630004883 17.688600540161133 13.97752571105957 17.688600540161133 13.856502532958984 C17.688600540161133 13.683683395385742 17.74039649963379 13.541990280151367 17.8439884185791 13.431426048278809 C17.947830200195312 13.32086181640625 18.085912704467773 13.265580177307129 18.25885581970215 13.265580177307129 C18.34402084350586 13.265580177307129 18.420095443725586 13.276909828186035 18.487455368041992 13.299446105957031 C18.5548152923584 13.321982383728027 18.626035690307617 13.360830307006836 18.70124053955078 13.416111946105957" fill="none" filling="0" stroke="black" stroke-opacity="1.0" stroke-width=".3"/></svg>