<?xml version="1.0" encoding="iso-8859-1"?><svg height="200px" viewBox="0.0 0.0 24.0 24.0" width="200px" xmlns="http://www.w3.org/2000/svg"><path animation_id="0" d="M0.0 0.0 L24.0 0.0 L24.0 24.0 L0.0 24.0 L0.0 0.0" fill="black" fill-opacity="1.0" filling="0"/>
<path animation_id="1" d="M19.52400016784668 5.9087347984313965 L12.001618385314941 1.0588302612304688 L4.476001262664795 5.9087347984313965 C3.814480781555176 14.159124374389648 6.324223518371582 19.836519241333008 12.001618385314941 22.94116973876953 C17.67913818359375 19.836393356323242 20.185396194458008 14.159124374389648 19.52400016784668 5.9087347984313965 L19.52400016784668 5.9087347984313965" fill="black" fill-opacity="1.0" filling="0"/>
<path animation_id="2" d="M18.85911750793457 11.080869674682617 L5.14735746383667 11.080869674682617 C5.725829601287842 16.186763763427734 8.00933837890625 19.9062442779541 12.001618385314941 22.22324562072754 C15.99389934539795 19.9062442779541 18.28076934814453 16.186763763427734 18.85911750793457 11.080869674682617 L18.85911750793457 11.080869674682617" fill="black" fill-opacity="1.0" filling="0"/>
<path animation_id="3" d="M17.03766441345215 9.16628360748291 L17.03766441345215 9.15955924987793 C17.03766441345215 8.468156814575195 16.79499626159668 7.886447429656982 16.303056716918945 7.394509315490723 C15.817718505859375 6.909295082092285 15.232771873474121 6.666500568389893 14.541244506835938 6.666500568389893 L13.055344581604004 6.666500568389893 L13.055344581604004 5.845483779907227 L14.112432479858398 5.845483779907227 L15.046504974365234 4.911411285400391 L12.1246337890625 4.911411285400391 L12.1246337890625 6.666500568389893 L9.884206771850586 6.666500568389893 L9.884206771850586 5.845483779907227 L10.941293716430664 5.845483779907227 L11.8753662109375 4.911411285400391 L8.953495979309082 4.911411285400391 L8.953495979309082 6.666500568389893 L7.0887131690979 6.666500568389893 L7.0887131690979 15.495361328125 L8.953495979309082 15.495361328125 L8.953495979309082 17.350059509277344 L9.884206771850586 16.415987014770508 L9.884206771850586 15.495237350463867 L12.1246337890625 15.495237350463867 L12.1246337890625 17.349933624267578 L13.055344581604004 16.415863037109375 L13.055344581604004 15.495113372802734 L14.541244506835938 15.495113372802734 C15.232895851135254 15.495113372802734 15.817718505859375 15.252443313598633 16.303056716918945 14.766980171203613 C16.79499626159668 14.278404235839844 17.03766441345215 13.69333267211914 17.03766441345215 13.005167007446289 L17.03766441345215 12.995206832885742 C17.03766441345215 12.307290077209473 16.79499626159668 11.722219467163086 16.303056716918945 11.2368803024292 C16.246654510498047 11.180352210998535 16.19000244140625 11.130548477172852 16.13359832763672 11.080620765686035 C16.19000244140625 11.030817031860352 16.246654510498047 10.980888366699219 16.303056716918945 10.924484252929688 C16.79499626159668 10.4393949508667 17.03766441345215 9.857685089111328 17.03766441345215 9.16628360748291 L17.03766441345215 9.16628360748291 M16.103591918945312 9.15955924987793 L16.103591918945312 9.16628360748291 C16.103591918945312 9.595094680786133 15.954055786132812 9.960779190063477 15.648136138916016 10.266575813293457 L15.644773483276367 10.273299217224121 A9.883210182189941 9.883210182189941 0.0 0 1 14.730623245239258 11.08099365234375 C15.033182144165039 11.31706428527832 15.339102745056152 11.592853546142578 15.644773483276367 11.89541244506836 L15.648136138916016 11.90201187133789 C15.954055786132812 12.201333045959473 16.103591918945312 12.566768646240234 16.103591918945312 12.995580673217773 L16.103591918945312 13.00554084777832 C16.103591918945312 13.43111515045166 15.947208404541016 13.806885719299316 15.644649505615234 14.109070777893066 C15.338977813720703 14.41499137878418 14.973169326782227 14.56452751159668 14.541119575500488 14.56452751159668 L13.055219650268555 14.56452751159668 L13.055219650268555 11.080869674682617 L13.740023612976074 11.080869674682617 L14.67409610748291 10.15015983581543 L13.055219650268555 10.15015983581543 L13.055219650268555 7.60057258605957 L14.541119575500488 7.60057258605957 C14.97329330444336 7.60057258605957 15.338977813720703 7.7468719482421875 15.644649505615234 8.052667617797852 C15.947208404541016 8.358463287353516 16.103591918945312 8.730873107910156 16.103591918945312 9.15955924987793 M9.884206771850586 10.15015983581543 L9.884206771850586 7.60057258605957 L12.1246337890625 7.60057258605957 L12.1246337890625 14.56440258026123 L9.884206771850586 14.56440258026123 L9.884206771850586 11.080869674682617 L10.569009780883789 11.080869674682617 L11.503082275390625 10.15015983581543 L9.884206771850586 10.15015983581543 L9.884206771850586 10.15015983581543 M8.019423484802246 7.60057258605957 L8.953371047973633 7.60057258605957 L8.953371047973633 14.56440258026123 L8.019423484802246 14.56440258026123 L8.019423484802246 7.60057258605957 L8.019423484802246 7.60057258605957" fill="black" fill-opacity="1.0" filling="0"/></svg>