<?xml version="1.0" encoding="iso-8859-1"?><svg height="200px" viewBox="0.0 0.0 24.0 24.0" width="200px" xmlns="http://www.w3.org/2000/svg"><path animation_id="0" d="M11.99468994140625 2.028738021850586 L15.408781051635742 7.950490474700928 L18.822765350341797 13.861726760864258 L5.177182197570801 13.861726760864258 L8.591167449951172 7.950490474700928 L11.99468994140625 2.028738021850586 L11.99468994140625 2.028738021850586" fill="black" fill-opacity="1.0" filling="0"/>
<path animation_id="1" d="M1.8895931243896484 0.0 L22.11040687561035 0.0 L22.11040687561035 24.0 L1.8895931243896484 24.0 L1.8895931243896484 0.0 M4.6718645095825195 21.449748992919922 L4.859565258026123 21.44943618774414 C4.907777786254883 21.443387985229492 4.957515716552734 21.423357009887695 5.004940032958984 21.40753173828125 C5.051576137542725 21.3885498046875 5.071450710296631 21.322357177734375 5.082754611968994 21.275615692138672 C5.096949577331543 21.195960998535156 5.094321250915527 21.113887786865234 5.070398807525635 21.034812927246094 C5.06104040145874 21.012046813964844 5.0513129234313965 20.992015838623047 5.034909248352051 20.972980499267578 C4.9894304275512695 20.935022354125977 4.923709392547607 20.933547973632812 4.868555068969727 20.93212890625 L4.6718645095825195 20.93212890625 L4.6718645095825195 21.449748992919922 L4.6718645095825195 21.449748992919922 M5.536494255065918 20.833232879638672 L5.5584187507629395 20.926189422607422 L5.571247577667236 21.026031494140625 L5.575559139251709 21.133394241333008 L5.572088718414307 21.22735023498535 L5.562414646148682 21.315311431884766 A1.2729953527450562 1.2729953527450562 0.0 0 1 5.534916877746582 21.43660545349121 L5.50815486907959 21.510318756103516 A1.0499634742736816 1.0499634742736816 0.0 0 1 5.457733631134033 21.608217239379883 L5.417196750640869 21.665422439575195 C5.384178638458252 21.704381942749023 5.351686000823975 21.737873077392578 5.308099269866943 21.76526641845703 C5.350003719329834 21.801860809326172 5.3762922286987305 21.851333618164062 5.4022650718688965 21.900861740112305 C5.4303412437438965 21.955120086669922 5.457891464233398 22.01116943359375 5.4777655601501465 22.070053100585938 L5.713415622711182 22.800453186035156 L5.088274955749512 22.800453186035156 L4.833487033843994 22.047393798828125 C4.819448947906494 22.008750915527344 4.805042743682861 21.96942138671875 4.7834858894348145 21.935508728027344 A0.09358713030815125 0.09358713030815125 0.0 0 0 4.754831314086914 21.909799575805664 L4.754831314086914 22.800453186035156 L4.189891338348389 22.800453186035156 L4.189891338348389 20.451522827148438 L5.021501541137695 20.452312469482422 L5.114984512329102 20.45956802368164 L5.19852876663208 20.474445343017578 L5.272452354431152 20.498157501220703 L5.305575847625732 20.51377296447754 L5.336911678314209 20.5318603515625 L5.366880893707275 20.553997039794922 L5.39474630355835 20.57907485961914 L5.420719623565674 20.607255935668945 L5.444799900054932 20.638275146484375 L5.466777324676514 20.67229461669922 L5.487019062042236 20.708675384521484 L5.505789279937744 20.748214721679688 L5.536494255065918 20.833232879638672 L5.536494255065918 20.833232879638672 M3.5122785568237305 20.451522827148438 L4.076324939727783 20.451522827148438 L4.076324939727783 22.800453186035156 L2.986086845397949 22.800453186035156 L2.917999267578125 22.434940338134766 L2.542231559753418 22.434940338134766 L2.47519588470459 22.800453186035156 L1.8963232040405273 22.800453186035156 L2.4489078521728516 20.451522827148438 L3.022627830505371 20.451522827148438 L3.5122785568237305 22.531734466552734 L3.5122785568237305 20.451522827148438 M2.880512237548828 21.867422103881836 L2.731245994567871 21.090755462646484 L2.582611083984375 21.867422103881836 L2.880512237548828 21.867422103881836 M21.247303009033203 21.98708724975586 L21.247303009033203 21.41436767578125 L22.035011291503906 21.41436767578125 L22.035011291503906 22.436832427978516 L21.923599243164062 22.549715042114258 L21.832326889038086 22.63115692138672 L21.745365142822266 22.696773529052734 L21.70293426513672 22.7232723236084 L21.661767959594727 22.745880126953125 L21.62017822265625 22.764965057373047 L21.576961517333984 22.781579971313477 L21.531795501708984 22.795408248901367 L21.485370635986328 22.806869506835938 L21.4368953704834 22.81554412841797 L21.38731575012207 22.82190704345703 L21.33584213256836 22.825637817382812 L21.282634735107422 22.82684898376465 L21.217437744140625 22.824430465698242 L21.154502868652344 22.817859649658203 L21.094303131103516 22.806238174438477 L21.036888122558594 22.790149688720703 L20.982051849365234 22.7691707611084 L20.930315017700195 22.74382781982422 L20.88152503967285 22.713388442993164 L20.836467742919922 22.678791046142578 L20.794139862060547 22.639728546142578 L20.75491714477539 22.596717834472656 L20.718063354492188 22.549400329589844 L20.684097290039062 22.498188018798828 L20.65265655517578 22.442668914794922 L20.623790740966797 22.38336181640625 L20.597503662109375 22.320110321044922 L20.57400131225586 22.253286361694336 L20.552759170532227 22.183094024658203 L20.534252166748047 22.110380172729492 L20.518848419189453 22.035457611083984 L20.506229400634766 21.958276748657227 L20.496450424194336 21.878726959228516 L20.489351272583008 21.796916961669922 L20.48504066467285 21.712635040283203 L20.48383331298828 21.626094818115234 L20.485145568847656 21.535030364990234 L20.48977279663086 21.44659423828125 L20.497447967529297 21.361156463623047 L20.508228302001953 21.278823852539062 L20.52189826965332 21.1988525390625 L20.53893280029297 21.121986389160156 L20.558963775634766 21.047744750976562 L20.582256317138672 20.976608276367188 L20.608333587646484 20.908523559570312 L20.63798713684082 20.844379425048828 L20.6705322265625 20.78412628173828 L20.706283569335938 20.728130340576172 L20.74498176574707 20.67586898803711 L20.787200927734375 20.62755012512207 L20.832365036010742 20.583545684814453 L20.880735397338867 20.543638229370117 L20.922637939453125 20.515247344970703 L20.968120574951172 20.490745544433594 L21.016489028930664 20.47003173828125 L21.067962646484375 20.45362663269043 L21.121959686279297 20.440797805786133 L21.179058074951172 20.43191146850586 L21.23883819580078 20.426496505737305 L21.301193237304688 20.424970626831055 L21.35992431640625 20.426023483276367 L21.41539192199707 20.429283142089844 L21.467548370361328 20.434593200683594 L21.51665496826172 20.44253158569336 L21.562028884887695 20.452625274658203 L21.604721069335938 20.465456008911133 L21.643733978271484 20.480701446533203 L21.67959213256836 20.498947143554688 L21.71213722229004 20.519031524658203 L21.742525100708008 20.541641235351562 L21.771705627441406 20.56671905517578 L21.799413681030273 20.594322204589844 L21.825176239013672 20.62392234802246 L21.849729537963867 20.656047821044922 L21.872549057006836 20.690433502197266 L21.894105911254883 20.727025985717773 L21.932329177856445 20.806365966796875 L21.965084075927734 20.894798278808594 L21.992582321166992 20.992067337036133 L22.024600982666016 21.14801025390625 L21.496044158935547 21.295753479003906 L21.468231201171875 21.183185577392578 A0.5341827273368835 0.5341827273368835 0.0 0 0 21.440996170043945 21.118515014648438 L21.419334411621094 21.085338592529297 A0.24905744194984436 0.24905744194984436 0.0 0 0 21.383371353149414 21.050270080566406 A0.21346278488636017 0.21346278488636017 0.0 0 0 21.342308044433594 21.03018569946289 A0.25378939509391785 0.25378939509391785 0.0 0 0 21.292518615722656 21.023561477661133 L21.265125274658203 21.025348663330078 L21.240571975708008 21.030763626098633 L21.217544555664062 21.039649963378906 L21.195777893066406 21.052532196044922 L21.174116134643555 21.06951332092285 L21.153295516967773 21.091279983520508 L21.133052825927734 21.117938995361328 L21.113862991333008 21.149904251098633 L21.095985412597656 21.186969757080078 L21.080265045166016 21.229873657226562 L21.066699981689453 21.279085159301758 L21.05550193786621 21.334869384765625 L21.046459197998047 21.396541595458984 L21.040203094482422 21.464366912841797 L21.036102294921875 21.538291931152344 L21.036102294921875 21.703067779541016 L21.040203094482422 21.78125 L21.046669006347656 21.852542877197266 L21.05592155456543 21.917213439941406 L21.067331314086914 21.97478485107422 L21.08100128173828 22.025100708007812 L21.096721649169922 22.06831932067871 L21.11459732055664 22.10491180419922 L21.1337890625 22.135618209838867 L21.154346466064453 22.16175079345703 L21.176008224487305 22.183094024658203 L21.198511123657227 22.200077056884766 L21.22201156616211 22.212749481201172 L21.247249603271484 22.22195053100586 L21.27458953857422 22.227521896362305 L21.318649291992188 22.22909927368164 A0.3096787631511688 0.3096787631511688 0.0 0 0 21.37606430053711 22.218795776367188 A0.3338642120361328 0.3338642120361328 0.0 0 0 21.431743621826172 22.194660186767578 C21.470123291015625 22.171844482421875 21.505352020263672 22.144084930419922 21.538528442382812 22.11469268798828 L21.538528442382812 21.986825942993164 L21.247303009033203 21.986825942993164 L21.247303009033203 21.98708724975586 L21.247303009033203 21.98708724975586 M18.964723587036133 20.46277618408203 L19.466991424560547 20.46277618408203 L19.90322494506836 21.468626022338867 L19.90322494506836 20.46277618408203 L20.428361892700195 20.46277618408203 L20.428361892700195 22.789257049560547 L19.922624588012695 22.789257049560547 L19.488967895507812 21.79202651977539 L19.488967895507812 22.789257049560547 L18.964723587036133 22.789257049560547 L18.964723587036133 20.46277618408203 L18.964723587036133 20.46277618408203 M18.27780532836914 20.46277618408203 L18.829021453857422 20.46277618408203 L18.829021453857422 22.789257049560547 L18.27780532836914 22.789257049560547 L18.27780532836914 20.46277618408203 M16.687349319458008 20.46277618408203 L17.189617156982422 20.46277618408203 L17.6258487701416 21.468626022338867 L17.6258487701416 20.46277618408203 L18.151092529296875 20.46277618408203 L18.151092529296875 22.789257049560547 L17.645248413085938 22.789257049560547 L17.211698532104492 21.79202651977539 L17.211698532104492 22.789257049560547 L16.687349319458008 22.789257049560547 L16.687349319458008 20.46277618408203 L16.687349319458008 20.46277618408203 M15.5337553024292 21.63082504272461 L15.535385131835938 21.733299255371094 L15.539801597595215 21.827777862548828 L15.547426223754883 21.91416358947754 L15.5584135055542 21.9921875 L15.571874618530273 22.06222152709961 L15.588226318359375 22.12378692626953 L15.606995582580566 22.176471710205078 L15.628026008605957 22.221370697021484 L15.650739669799805 22.259489059448242 L15.67497730255127 22.291244506835938 L15.699846267700195 22.317062377929688 L15.725713729858398 22.337303161621094 L15.752212524414062 22.352550506591797 L15.780237197875977 22.36332893371582 L15.809995651245117 22.369848251342773 L15.842435836791992 22.372215270996094 L15.876136779785156 22.369848251342773 L15.907052993774414 22.36332893371582 L15.936022758483887 22.35270881652832 L15.962520599365234 22.33798599243164 L15.987863540649414 22.318218231201172 L16.01262664794922 22.293033599853516 L16.036338806152344 22.262012481689453 L16.05831527709961 22.22594451904297 L16.07834815979004 22.181781768798828 L16.096540451049805 22.127626419067383 L16.112260818481445 22.063114166259766 L16.125720977783203 21.9884033203125 L16.136184692382812 21.90375328063965 L16.14385986328125 21.809165954589844 L16.148380279541016 21.70511817932129 L16.15022087097168 21.592025756835938 L16.148380279541016 21.496177673339844 L16.14365005493164 21.408004760742188 L16.13576316833496 21.326984405517578 L16.124984741210938 21.253585815429688 L16.111209869384766 21.187286376953125 L16.094804763793945 21.128398895263672 L16.075931549072266 21.07740020751953 L16.054901123046875 21.034128189086914 L16.03150177001953 20.996746063232422 L16.007055282592773 20.96535873413086 L15.981870651245117 20.939807891845703 L15.955896377563477 20.920141220092773 L15.928977012634277 20.904945373535156 L15.900848388671875 20.8945369720459 L15.870564460754395 20.88812255859375 L15.837493896484375 20.885862350463867 L15.806366920471191 20.88791275024414 L15.77834415435791 20.894275665283203 L15.751845359802246 20.904632568359375 L15.726081848144531 20.91977310180664 L15.700739860534668 20.939910888671875 L15.676187515258789 20.9659366607666 L15.651844024658203 20.997955322265625 L15.628815650939941 21.036705017089844 L15.607362747192383 21.081449508666992 L15.588699340820312 21.13402557373047 L15.572294235229492 21.195541381835938 L15.558730125427246 21.265993118286133 L15.547845840454102 21.344650268554688 L15.540063858032227 21.43203353881836 L15.535543441772461 21.527196884155273 L15.5337553024292 21.63082504272461 L15.5337553024292 21.63082504272461 M15.053569793701172 21.62704086303711 L15.056461334228516 21.492759704589844 L15.06581974029541 21.365468978881836 L15.081119537353516 21.245542526245117 L15.103096961975098 21.132709503173828 L15.13090991973877 21.0269775390625 L15.165611267089844 20.92850112915039 L15.206884384155273 20.8372802734375 L15.25483512878418 20.75347328186035 L15.308515548706055 20.67755126953125 L15.368295669555664 20.611251831054688 L15.43370246887207 20.554521560668945 L15.504942893981934 20.507780075073242 L15.581337928771973 20.471397399902344 L15.662883758544922 20.445476531982422 L15.748847961425781 20.430072784423828 L15.839227676391602 20.425024032592773 L15.931238174438477 20.42986297607422 L16.018726348876953 20.445106506347656 L16.101272583007812 20.47039794921875 L16.179086685180664 20.506202697753906 L16.250747680664062 20.551944732666016 L16.316679000854492 20.607887268066406 L16.37656593322754 20.673240661621094 L16.43056297302246 20.748058319091797 L16.4777774810791 20.830602645874023 L16.518524169921875 20.92045783996582 L16.552804946899414 21.017410278320312 L16.58072280883789 21.12151336669922 L16.602174758911133 21.232711791992188 L16.61758041381836 21.351167678833008 L16.626832962036133 21.476408004760742 L16.62982940673828 21.60895538330078 L16.62851333618164 21.705432891845703 L16.624414443969727 21.797706604003906 L16.61773681640625 21.885509490966797 L16.608482360839844 21.969581604003906 L16.596389770507812 22.049129486083984 L16.581722259521484 22.124629974365234 L16.564056396484375 22.1959228515625 L16.54370880126953 22.26332664489746 L16.52052116394043 22.326366424560547 L16.495073318481445 22.38614845275879 L16.467050552368164 22.442405700683594 L16.436344146728516 22.495771408081055 L16.402854919433594 22.5454044342041 L16.36699676513672 22.591829299926758 L16.32830047607422 22.63473129272461 L16.286922454833984 22.674480438232422 L16.24212646484375 22.71007537841797 L16.19449234008789 22.7410945892334 L16.144176483154297 22.767383575439453 L16.09128189086914 22.7889404296875 L16.03581428527832 22.805450439453125 L15.978399276733398 22.817386627197266 L15.918620109558105 22.824430465698242 L15.856789588928223 22.82684898376465 L15.794169425964355 22.824691772460938 L15.73449420928955 22.818645477294922 L15.676871299743652 22.808656692504883 L15.62171745300293 22.79446029663086 L15.56882381439209 22.776058197021484 L15.518717765808105 22.75345230102539 L15.471084594726562 22.726795196533203 L15.426393508911133 22.695932388305664 L15.383963584899902 22.66028594970703 L15.344425201416016 22.62053680419922 L15.307043075561523 22.57626724243164 L15.272237777709961 22.528053283691406 L15.239376068115234 22.475475311279297 L15.208776473999023 22.418746948242188 L15.180437088012695 22.358020782470703 L15.154149055480957 22.29298210144043 L15.130332946777344 22.223316192626953 L15.109668731689453 22.149656295776367 L15.092318534851074 22.072105407714844 L15.078227996826172 21.991138458251953 L15.067239761352539 21.90585708618164 L15.059457778930664 21.816791534423828 L15.054726600646973 21.72378158569336 L15.053569793701172 21.62704086303711 L15.053569793701172 21.62704086303711 M14.424591064453125 20.46277618408203 L14.975808143615723 20.46277618408203 L14.975808143615723 22.789257049560547 L14.424591064453125 22.789257049560547 L14.424591064453125 20.46277618408203 M12.996912956237793 20.46277618408203 L14.344095230102539 20.46277618408203 L14.344095230102539 21.12203598022461 L13.945455551147461 21.12203598022461 L13.945455551147461 22.789257049560547 L13.39523696899414 22.789257049560547 L13.39523696899414 21.12203598022461 L12.996912956237793 21.12203598022461 L12.996912956237793 20.46277618408203 M12.365778923034668 20.46277618408203 L12.916996955871582 20.46277618408203 L12.916996955871582 22.789257049560547 L12.365778923034668 22.789257049560547 L12.365778923034668 20.46277618408203 M11.39084243774414 20.913043975830078 L11.39084243774414 22.337459564208984 L11.494209289550781 22.33635711669922 C11.53569221496582 22.333518981933594 11.573758125305176 22.32868194580078 11.612507820129395 22.3173770904541 C11.631277084350586 22.310068130493164 11.645315170288086 22.303129196166992 11.660247802734375 22.292402267456055 C11.675284385681152 22.27825927734375 11.685853004455566 22.26511573791504 11.696630477905273 22.249868392944336 C11.711614608764648 22.22557830810547 11.722129821777344 22.202232360839844 11.732593536376953 22.177942276000977 L11.75383472442627 22.114482879638672 L11.770448684692383 22.03304100036621 L11.78327751159668 21.925310134887695 C11.789901733398438 21.828094482421875 11.7928466796875 21.732192993164062 11.793740272521973 21.63397979736328 L11.787798881530762 21.427879333496094 L11.780280113220215 21.338916778564453 L11.770502090454102 21.260051727294922 L11.757935523986816 21.190650939941406 L11.743108749389648 21.13123893737793 L11.726179122924805 21.082237243652344 L11.707986831665039 21.043907165527344 L11.687429428100586 21.012361526489258 L11.664610862731934 20.986072540283203 L11.639111518859863 20.96404457092285 L11.611140251159668 20.946430206298828 L11.579383850097656 20.932235717773438 L11.543421745300293 20.921772003173828 L11.502988815307617 20.915409088134766 L11.39084243774414 20.913043975830078 L11.39084243774414 20.913043975830078 M10.886943817138672 20.46277618408203 L11.592633247375488 20.46277618408203 L11.641582489013672 20.4639835357666 L11.689690589904785 20.468137741088867 L11.7355375289917 20.47486686706543 L11.779702186584473 20.484962463378906 L11.82144832611084 20.497634887695312 L11.86135482788086 20.513511657714844 L11.898841857910156 20.532228469848633 L11.934016227722168 20.554153442382812 L11.966350555419922 20.578285217285156 L11.996687889099121 20.604469299316406 L12.025657653808594 20.63312530517578 L12.05305004119873 20.663986206054688 L12.07891845703125 20.697006225585938 L12.12602710723877 20.769615173339844 L12.166879653930664 20.850635528564453 L12.201475143432617 20.937175750732422 L12.230866432189941 21.029766082763672 L12.25436782836914 21.128398895263672 C12.264252662658691 21.18118667602539 12.27234935760498 21.23334312438965 12.279341697692871 21.285446166992188 C12.285493850708008 21.340232849121094 12.29054069519043 21.39459800720215 12.294221878051758 21.44859504699707 C12.297112464904785 21.50516700744629 12.298848152160645 21.561792373657227 12.299478530883789 21.618417739868164 L12.296113967895508 21.78803253173828 L12.286334991455078 21.938560485839844 L12.269615173339844 22.070003509521484 L12.258626937866211 22.128625869750977 L12.24621868133545 22.182727813720703 L12.216670036315918 22.28057289123535 L12.181863784790039 22.370689392089844 L12.141326904296875 22.4531307220459 L12.09521770477295 22.527790069580078 L12.045005798339844 22.592987060546875 L11.991798400878906 22.647769927978516 L11.963669776916504 22.671010971069336 L11.935067176818848 22.691726684570312 L11.905203819274902 22.709339141845703 L11.875077247619629 22.723955154418945 L11.799681663513184 22.75213623046875 C11.764718055725098 22.762914657592773 11.729911804199219 22.772113800048828 11.693055152893066 22.779529571533203 L11.625125885009766 22.787940979003906 L10.886943817138672 22.789047241210938 L10.886943817138672 20.46277618408203 L10.886943817138672 20.46277618408203 M9.308055877685547 20.46277618408203 L9.810323715209961 20.46277618408203 L10.246502876281738 21.468626022338867 L10.246502876281738 20.46277618408203 L10.771905899047852 20.46277618408203 L10.771905899047852 22.789257049560547 L10.265904426574707 22.789257049560547 L9.83224868774414 21.79202651977539 L9.83224868774414 22.789257049560547 L9.308002471923828 22.789257049560547 L9.308002471923828 20.46277618408203 L9.308055877685547 20.46277618408203 M8.176124572753906 21.630615234375 L8.177438735961914 21.725990295410156 L8.18159294128418 21.813793182373047 L8.18879508972168 21.89397430419922 L8.198890686035156 21.966686248779297 L8.211456298828125 22.03172492980957 L8.226651191711426 22.088876724243164 L8.243844032287598 22.138141632080078 L8.263507843017578 22.17978286743164 L8.2848539352417 22.21495819091797 L8.307356834411621 22.244609832763672 L8.330595970153809 22.268638610839844 L8.354413032531738 22.287460327148438 L8.379229545593262 22.301654815673828 L8.405202865600586 22.311752319335938 L8.432963371276855 22.317798614501953 L8.463089942932129 22.31995391845703 L8.4943208694458 22.317798614501953 L8.523185729980469 22.311752319335938 L8.549894332885742 22.30186653137207 L8.574605941772461 22.288143157958984 L8.598318099975586 22.26968765258789 L8.621241569519043 22.24634552001953 L8.643377304077148 22.21742820739746 L8.663723945617676 22.183883666992188 L8.682336807250977 22.142873764038086 L8.699213027954102 22.092557907104492 L8.713882446289062 22.032514572143555 L8.726343154907227 21.963111877441406 L8.736017227172852 21.884353637695312 L8.743062973022461 21.79654884338379 L8.747426986694336 21.6997013092041 L8.749004364013672 21.594547271728516 L8.747426986694336 21.505481719970703 L8.742958068847656 21.4234619140625 L8.735650062561035 21.34817123413086 L8.72566032409668 21.27987289428711 L8.712882995605469 21.21814727783203 L8.697583198547363 21.16357421875 L8.680075645446777 21.11609649658203 L8.660516738891602 21.075820922851562 L8.638750076293945 21.041015625 L8.615931510925293 21.011890411376953 L8.5925874710083 20.98812484741211 L8.568559646606445 20.96977424621582 L8.543375015258789 20.955684661865234 L8.517454147338867 20.945905685424805 L8.489115715026855 20.939964294433594 L8.458463668823242 20.937965393066406 L8.429492950439453 20.939857482910156 L8.40330982208252 20.94580078125 L8.378599166870117 20.955472946166992 L8.354781150817871 20.96956443786621 L8.331279754638672 20.988176345825195 L8.308355331420898 21.012414932250977 L8.285799980163574 21.042173385620117 L8.264453887939453 21.078136444091797 L8.24442195892334 21.11972427368164 L8.227124214172363 21.168621063232422 L8.211771965026855 21.225875854492188 L8.199206352233887 21.29138946533203 L8.189111709594727 21.36452293395996 L8.182013511657715 21.445755004882812 L8.177543640136719 21.53429412841797 L8.176124572753906 21.630615234375 L8.176124572753906 21.630615234375 M7.674276828765869 21.62704086303711 L7.677221298217773 21.492759704589844 L7.686526775360107 21.365468978881836 L7.701827049255371 21.245542526245117 L7.7238569259643555 21.132709503173828 L7.751722812652588 21.0269775390625 L7.786318302154541 20.92850112915039 L7.827538967132568 20.8372802734375 L7.8753838539123535 20.75347328186035 L7.92917013168335 20.67755126953125 L7.988950252532959 20.611251831054688 L8.054303169250488 20.554521560668945 L8.125650405883789 20.507780075073242 L8.202045440673828 20.471397399902344 L8.283487319946289 20.445476531982422 L8.369555473327637 20.430072784423828 L8.459882736206055 20.425024032592773 L8.551998138427734 20.42986297607422 L8.63938045501709 20.445106506347656 L8.721927642822266 20.47039794921875 L8.799688339233398 20.506202697753906 L8.87135124206543 20.551944732666016 L8.937387466430664 20.607887268066406 L8.997272491455078 20.673240661621094 L9.051321983337402 20.748058319091797 L9.098483085632324 20.830602645874023 L9.13912582397461 20.92045783996582 L9.173458099365234 21.017410278320312 L9.201324462890625 21.12151336669922 L9.222776412963867 21.232711791992188 L9.238286018371582 21.351167678833008 L9.247381210327148 21.476408004760742 L9.250536918640137 21.60895538330078 L9.249221801757812 21.705432891845703 L9.245068550109863 21.797706604003906 L9.238443374633789 21.885509490966797 L9.229084968566895 21.969581604003906 L9.217097282409668 22.049129486083984 L9.2022705078125 22.124629974365234 L9.184762954711914 22.1959228515625 L9.16441535949707 22.26332664489746 L9.141176223754883 22.326366424560547 L9.115833282470703 22.38614845275879 L9.087705612182617 22.442405700683594 L9.057052612304688 22.495771408081055 L9.023456573486328 22.5454044342041 L8.987756729125977 22.591829299926758 L8.949007034301758 22.63473129272461 L8.907629013061523 22.674480438232422 L8.862728118896484 22.71007537841797 L8.81519889831543 22.7410945892334 L8.764829635620117 22.767383575439453 L8.712041854858398 22.7889404296875 L8.65652084350586 22.805450439453125 L8.599159240722656 22.817386627197266 L8.539379119873047 22.824430465698242 L8.47744369506836 22.82684898376465 L8.414876937866211 22.824691772460938 L8.355096817016602 22.818645477294922 L8.297576904296875 22.808656692504883 L8.242424011230469 22.79446029663086 L8.189531326293945 22.776058197021484 L8.139426231384277 22.75345230102539 L8.091632843017578 22.726795196533203 L8.046942710876465 22.695932388305664 L8.004671096801758 22.66028594970703 L7.965132713317871 22.62053680419922 L7.927750587463379 22.57626724243164 L7.8929443359375 22.528053283691406 L7.86013650894165 22.475475311279297 L7.829483985900879 22.418746948242188 L7.801197528839111 22.358020782470703 L7.774909019470215 22.29298210144043 L7.751091957092285 22.223316192626953 L7.730429172515869 22.149656295776367 L7.713130950927734 22.072105407714844 L7.7003021240234375 21.998340606689453 L7.674118995666504 22.141979217529297 L7.645832538604736 22.256229400634766 L7.611236572265625 22.360279083251953 L7.59178352355957 22.408859252929688 L7.570805072784424 22.455127716064453 L7.5479865074157715 22.498714447021484 L7.523853778839111 22.539567947387695 L7.4984588623046875 22.577896118164062 L7.471171855926514 22.614173889160156 L7.442306995391846 22.647560119628906 L7.4119696617126465 22.67831802368164 L7.380213260650635 22.706289291381836 L7.346826553344727 22.731895446777344 L7.310548782348633 22.754711151123047 L7.272325038909912 22.774585723876953 L7.231893539428711 22.791200637817383 L7.189673900604248 22.80481719970703 L7.145194053649902 22.81512451171875 L7.099031448364258 22.822431564331055 L7.051080703735352 22.82684898376465 L7.001658916473389 22.828269958496094 L6.9416680335998535 22.826480865478516 L6.884359359741211 22.821170806884766 L6.829311370849609 22.812284469604492 L6.776734352111816 22.799877166748047 L6.7264180183410645 22.783523559570312 L6.678993225097656 22.76365089416504 L6.6339874267578125 22.740097045898438 L6.5918731689453125 22.712757110595703 L6.551546573638916 22.680421829223633 L6.513217926025391 22.64288330078125 L6.476834774017334 22.600505828857422 L6.4423441886901855 22.55365753173828 L6.409430980682373 22.501869201660156 L6.378305435180664 22.445507049560547 L6.348546504974365 22.3841495513916 L6.320575714111328 22.318008422851562 L6.294654846191406 22.246450424194336 L6.2724151611328125 22.17042350769043 L6.253329753875732 22.089876174926758 L6.238134860992432 22.005069732666016 L6.2260942459106445 21.915794372558594 L6.217682361602783 21.822206497192383 L6.21252965927124 21.724044799804688 L6.211057662963867 21.621519088745117 L6.213739395141602 21.485450744628906 L6.222729682922363 21.357162475585938 L6.237556457519531 21.236392974853516 L6.258692264556885 21.123456954956055 L6.285874843597412 21.01772689819336 L6.319261074066162 20.91977310180664 L6.359272480010986 20.829341888427734 L6.405750751495361 20.747005462646484 L6.458012104034424 20.672557830810547 L6.5165300369262695 20.607519149780273 L6.5808844566345215 20.551788330078125 L6.650812149047852 20.506256103515625 L6.726154804229736 20.47045135498047 L6.806703090667725 20.445056915283203 L6.891772747039795 20.429914474487305 L6.980838298797607 20.42507553100586 L7.0509233474731445 20.427757263183594 L7.1175384521484375 20.436433792114258 L7.180893898010254 20.45089340209961 L7.2409892082214355 20.47144889831543 L7.297404766082764 20.497737884521484 L7.350192070007324 20.53054428100586 L7.3987202644348145 20.56887435913086 L7.4430952072143555 20.613039016723633 L7.483421802520752 20.662250518798828 L7.520594120025635 20.716983795166016 L7.5546112060546875 20.777183532714844 L7.585999965667725 20.842906951904297 L7.614286422729492 20.913728713989258 L7.639680862426758 20.98986053466797 L7.662604808807373 21.071407318115234 L7.6942033767700195 21.20631980895996 L7.199558734893799 21.379085540771484 C7.186046123504639 21.315521240234375 7.1751627922058105 21.2515869140625 7.151765823364258 21.189388275146484 L7.139462947845459 21.162996292114258 C7.115067481994629 21.119251251220703 7.0850982666015625 21.07613754272461 7.034729480743408 21.05663299560547 A0.14137965440750122 0.14137965440750122 0.0 0 0 6.993246078491211 21.049640655517578 L6.965380668640137 21.051794052124023 L6.941563129425049 21.057945251464844 L6.919322967529297 21.068145751953125 L6.897608757019043 21.08318328857422 L6.876420021057129 21.103530883789062 L6.8559675216674805 21.129817962646484 L6.836198806762695 21.162521362304688 L6.817691802978516 21.20206069946289 L6.805072784423828 21.235078811645508 L6.794084072113037 21.27330207824707 L6.784515380859375 21.317100524902344 L6.77005672454834 21.421253204345703 L6.762959003448486 21.546493530273438 L6.763169288635254 21.703960418701172 L6.766534328460693 21.783405303955078 L6.771949291229248 21.85543441772461 L6.779520511627197 21.919788360595703 L6.788931846618652 21.97604751586914 L6.800288677215576 22.024627685546875 L6.813117027282715 22.06474494934082 L6.827470779418945 22.09708023071289 L6.842980861663818 22.12368392944336 L6.859700679779053 22.146291732788086 L6.876735210418701 22.164377212524414 L6.894506454467773 22.178573608398438 L6.912698268890381 22.189037322998047 L6.932257175445557 22.196449279785156 L6.953235149383545 22.20102310180664 L6.976526737213135 22.20270538330078 L6.999555587768555 22.20128631591797 L7.020744323730469 22.19760513305664 L7.039514064788818 22.191295623779297 L7.05696964263916 22.182884216308594 L7.072795391082764 22.172000885009766 L7.087779521942139 22.158279418945312 L7.102238178253174 22.14108657836914 L7.116065979003906 22.12026596069336 L7.142144680023193 22.066375732421875 L7.16585636138916 21.998287200927734 L7.1856255531311035 21.91626739501953 L7.213807106018066 21.744972229003906 L7.697094917297363 21.97431182861328 L7.688209533691406 21.90612030029297 L7.680480480194092 21.817054748535156 L7.675748825073242 21.724044799804688 L7.674276828765869 21.62704086303711 L7.674276828765869 21.62704086303711 M11.99468994140625 1.2642154693603516 C16.883882522583008 1.2642154693603516 20.86701202392578 5.313593864440918 20.86701202392578 10.284385681152344 C20.86701202392578 15.25512409210205 16.883882522583008 19.304607391357422 11.99468994140625 19.304607391357422 C7.115961074829102 19.304607391357422 3.1329345703125 15.255071640014648 3.1329345703125 10.284385681152344 C3.1329345703125 5.313593864440918 7.115961074829102 1.2642154693603516 11.99468994140625 1.2642154693603516 L11.99468994140625 1.2642154693603516" fill="black" fill-opacity="1.0" filling="0"/></svg>