<?xml version="1.0" encoding="iso-8859-1"?><svg height="200px" viewBox="0.0 0.0 24.0 24.0" width="200px" xmlns="http://www.w3.org/2000/svg"><path animation_id="0" d="M0.0 0.0 L24.0 0.0 L24.0 24.0 L0.0 24.0 L0.0 0.0" fill="black" fill-opacity="1.0" filling="0"/>
<path animation_id="1" d="M23.093196868896484 14.312768936157227 C23.20388412475586 14.39183235168457 23.263151168823242 14.498785972595215 23.263151168823242 14.625536918640137 C23.263151168823242 14.724273681640625 23.231525421142578 14.807446479797363 23.16441535949707 14.87480640411377 C23.097055435180664 14.941915512084961 23.00616455078125 14.985494613647461 22.895225524902344 15.01313591003418 A0.6773329973220825 0.6773329973220825 0.0 0 1 23.093196868896484 15.124074935913086 C23.13677406311035 15.171512603759766 23.20388412475586 15.27049732208252 23.290918350219727 15.420780181884766 C23.382057189941406 15.575173377990723 23.449169158935547 15.673909187316895 23.488887786865234 15.713627815246582 C23.528480529785156 15.757205963134766 23.57978057861328 15.784847259521484 23.647140502929688 15.79680061340332 L23.647140502929688 15.84423828125 L23.085102081298828 15.84423828125 C22.998069763183594 15.717487335205078 22.91900634765625 15.594969749450684 22.84778594970703 15.460498809814453 C22.760753631591797 15.309967041015625 22.6975040435791 15.203262329101562 22.64209747314453 15.159683227539062 C22.59851837158203 15.112245559692383 22.531158447265625 15.084480285644531 22.44412612915039 15.084480285644531 L22.44412612915039 15.519766807556152 C22.44412612915039 15.594969749450684 22.45209503173828 15.638423919677734 22.459938049316406 15.673909187316895 C22.464048385620117 15.70578384399414 22.483720779418945 15.73330020904541 22.511486053466797 15.753222465515137 C22.543109893798828 15.776754379272461 22.59054946899414 15.792566299438477 22.649818420410156 15.79680061340332 L22.649818420410156 15.84423828125 L21.846603393554688 15.84423828125 L21.846603393554688 15.79680061340332 C21.91010284423828 15.792691230773926 21.957542419433594 15.765174865722656 21.985183715820312 15.73330020904541 C22.00485610961914 15.693954467773438 22.016809463500977 15.618751525878906 22.016809463500977 15.519766807556152 L22.016809463500977 14.530536651611328 C22.016809463500977 14.427691459655762 22.00485610961914 14.352487564086914 21.985183715820312 14.32086181640625 C21.957416534423828 14.281267166137695 21.90998077392578 14.253501892089844 21.846603393554688 14.249642372131348 L21.846603393554688 14.202204704284668 L22.61819076538086 14.202204704284668 L22.899333953857422 14.229721069335938 C22.974538803100586 14.249517440795898 23.03380584716797 14.273174285888672 23.093196868896484 14.312768936157227 L23.093196868896484 14.312768936157227 M22.820022583007812 14.645210266113281 C22.820022583007812 14.49081802368164 22.76872444152832 14.387972831726074 22.66973876953125 14.332441329956055 C22.622299194335938 14.312768936157227 22.542987823486328 14.30081558227539 22.44412612915039 14.30081558227539 L22.44412612915039 14.985370635986328 L22.483720779418945 14.985370635986328 C22.582706451416016 14.985370635986328 22.657785415649414 14.961837768554688 22.709331512451172 14.91415023803711 C22.780426025390625 14.847040176391602 22.820022583007812 14.755899429321289 22.820022583007812 14.645210266113281 L22.820022583007812 14.645210266113281 M11.50345516204834 8.523812294006348 L11.50345516204834 8.555438041687012 L11.53906536102295 8.555438041687012 L11.562846183776855 8.551578521728516 C11.570690155029297 8.543734550476074 11.578660011291504 8.535765647888184 11.578660011291504 8.523812294006348 L11.578660011291504 8.45657730102539 L11.610284805297852 8.45657730102539 L11.602439880371094 8.424951553344727 L11.578783988952637 8.385357856750488 L11.6697998046875 8.40515422821045 L11.677644729614258 8.424951553344727 L11.74089527130127 8.424951553344727 L11.74089527130127 8.385357856750488 L11.808255195617676 8.397310256958008 L11.816099166870117 8.424951553344727 C11.8596773147583 8.444748878479004 11.895163536071777 8.476374626159668 11.914959907531738 8.523812294006348 L11.914959907531738 8.555438041687012 L11.938616752624512 8.59503173828125 L11.954429626464844 8.630766868591309 L12.017680168151855 8.630766868591309 L12.045445442199707 8.634750366210938 L12.053290367126465 8.642595291137695 L12.053290367126465 8.662391662597656 L12.092884063720703 8.670236587524414 L12.112556457519531 8.670236587524414 L12.112556457519531 8.674220085144043 L12.433045387268066 8.82064437866211 L12.460810661315918 8.832472801208496 L12.472764015197754 8.832472801208496 L12.567889213562012 8.868082046508789 L12.599514961242676 8.868082046508789 L12.658905982971191 8.880035400390625 L12.670858383178711 8.899831771850586 C12.706344604492188 8.907676696777344 12.710204124450684 8.939425468444824 12.690531730651855 8.998693466186523 C12.686671257019043 9.006536483764648 12.67857837677002 9.006536483764648 12.670858383178711 9.006536483764648 L12.670858383178711 9.038162231445312 L12.666749954223633 9.0499906539917 L12.532279014587402 9.069787979125977 L12.508498191833496 9.077631950378418 C12.473012924194336 9.117225646972656 12.429434776306152 9.13702392578125 12.362074851989746 9.13702392578125 L12.362074851989746 9.208242416381836 C12.453215599060059 9.263649940490723 12.55195140838623 9.307103157043457 12.659029960632324 9.354666709899902 L12.67098331451416 9.382431983947754 L12.568138122558594 9.382431983947754 L12.611467361450195 9.44182300567627 L12.631388664245605 9.445682525634766 A0.5907987356185913 0.5907987356185913 0.0 0 1 12.88837718963623 9.67913818359375 C12.88837718963623 9.683122634887695 12.896346092224121 9.683122634887695 12.90829849243164 9.683122634887695 L12.904190063476562 9.702919960021973 L12.837079048156738 9.7225923538208 L12.849032402038574 9.742389678955078 L12.876797676086426 9.75820255279541 C12.904314041137695 9.829421997070312 12.94390869140625 9.89665699005127 12.987486839294434 9.948204040527344 L13.00740909576416 9.960033416748047 L13.00740909576416 9.89665699005127 L13.046753883361816 9.89665699005127 C13.13378620147705 9.888813018798828 13.193177223205566 9.857187271118164 13.224802017211914 9.797796249389648 L13.252569198608398 9.789952278137207 L13.29216194152832 9.758326530456543 L13.319927215576172 9.758326530456543 C13.3831787109375 9.738529205322266 13.430866241455078 9.703044891357422 13.462491989135742 9.659465789794922 L13.490257263183594 9.651496887207031 L13.569321632385254 9.592105865478516 L13.628711700439453 9.564465522766113 L13.699931144714355 9.560481071472168 L13.834402084350586 9.592105865478516 L13.866276741027832 9.603935241699219 L13.866276741027832 9.611778259277344 L13.81859016418457 9.599949836730957 L13.858183860778809 9.611778259277344 L13.866151809692383 9.611778259277344 L13.897777557373047 9.619623184204102 L13.917449951171875 9.619623184204102 L13.925168991088867 9.623607635498047 L13.917449951171875 9.619623184204102 L14.27342414855957 9.722467422485352 L14.388221740722656 9.722467422485352 L14.58619213104248 9.758077621459961 L14.617817878723145 9.758077621459961 L14.685176849365234 9.770030975341797 L14.689037322998047 9.789827346801758 L14.724522590637207 9.789827346801758 C14.756397247314453 9.781984329223633 14.764117240905762 9.801780700683594 14.744443893432617 9.849218368530273 C14.736475944519043 9.857063293457031 14.728631019592285 9.857063293457031 14.724522590637207 9.857063293457031 L14.716802597045898 9.880720138549805 C14.685176849365234 9.936126708984375 14.629770278930664 9.959907531738281 14.550457954406738 9.959907531738281 L14.479238510131836 9.959907531738281 L14.45172119140625 9.955923080444336 L14.412127494812012 9.928157806396484 L14.388345718383789 9.92031478881836 L14.348751068115234 9.896533012390137 L14.31326675415039 9.880720138549805 L14.273672103881836 9.857063293457031 L14.250140190124512 9.849218368530273 L14.21440601348877 9.83726692199707 L14.071842193603516 9.821453094482422 L13.799041748046875 9.821453094482422 L13.775259971618652 9.829297065734863 C13.688227653503418 9.92031478881836 13.597211837768555 9.999502182006836 13.490506172180176 10.066737174987793 L13.490506172180176 10.098362922668457 L13.66046142578125 10.098362922668457 L14.095747947692871 10.391209602355957 L14.21440601348877 10.46242904663086 L14.333063125610352 10.529664993286133 L14.388469696044922 10.553445816040039 C14.428064346313477 10.569258689880371 14.451971054077148 10.589056015014648 14.47164249420166 10.612712860107422 C14.491315841674805 10.660274505615234 14.487456321716309 10.687915802001953 14.44786262512207 10.680072784423828 C14.36082935333252 10.731619834899902 14.281765937805176 10.727510452270508 14.21440601348877 10.668243408203125 L14.20245361328125 10.65243148803711 A1.720351219177246 1.720351219177246 0.0 0 0 14.004731178283691 10.474257469177246 L13.973106384277344 10.47039794921875 L13.933511734008789 10.442632675170898 L13.917698860168457 10.43478775024414 C13.913839340209961 10.403162956237793 13.878105163574219 10.391209602355957 13.834527015686035 10.403162956237793 L13.799041748046875 10.395318031311035 L13.767416000366211 10.371662139892578 L13.759448051452637 10.3518648147583 L13.66046142578125 10.336051940917969 L13.5576171875 10.336051940917969 L13.529851913452148 10.343896865844727 C13.470460891723633 10.391334533691406 13.383427619934082 10.423084259033203 13.28469181060791 10.442756652832031 L13.280583381652832 10.454710006713867 L13.181596755981445 10.474382400512695 L13.146112442016602 10.474382400512695 L13.142252922058105 10.490195274353027 L13.047127723693848 10.509992599487305 L13.043268203735352 10.529788970947266 L12.908797264099121 10.541617393493652 L12.888875007629395 10.549585342407227 A0.5453526973724365 0.5453526973724365 0.0 0 1 12.71891975402832 10.70783805847168 L12.631887435913086 10.747432708740234 L12.628026962280273 10.767229080200195 L12.568635940551758 10.779057502746582 L12.540870666503906 10.791010856628418 C12.508996963500977 10.826621055603027 12.461557388305664 10.846417427062988 12.39444637298584 10.850400924682617 L12.390337944030762 10.870199203491211 L12.330947875976562 10.886011123657227 L12.291353225708008 10.886011123657227 L12.291353225708008 10.905808448791504 L12.192617416381836 10.91763687133789 L12.156882286071777 10.91763687133789 L12.153022766113281 10.937434196472168 L12.085662841796875 10.949262619018555 L11.95517635345459 10.949262619018555 L11.95517635345459 10.969058990478516 L11.610906600952148 10.98885726928711 L11.583141326904297 10.996700286865234 L11.52387523651123 11.036294937133789 C11.444686889648438 11.095685958862305 11.345826148986816 11.13515567779541 11.23501205444336 11.162920951843262 C11.23501205444336 11.166905403137207 11.23501205444336 11.174749374389648 11.227168083190918 11.174749374389648 L11.128307342529297 11.19454574584961 C11.128307342529297 11.202390670776367 11.128307342529297 11.206499099731445 11.124322891235352 11.214344024658203 A0.16024403274059296 0.16024403274059296 0.0 0 1 11.064931869506836 11.22617244720459 L10.989727973937988 11.22617244720459 L10.989727973937988 11.241985321044922 L10.752288818359375 11.261781692504883 L10.728507041931152 11.265766143798828 C10.653302192687988 11.352798461914062 10.550457954406738 11.424017906188965 10.412002563476562 11.48340892791748 L10.404158592224121 11.48340892791748 L10.38436222076416 11.491252899169922 L10.376517295837402 11.49909782409668 L10.38436222076416 11.491252899169922 L10.344767570495605 11.49909782409668 L10.11529541015625 11.570317268371582 L9.897652626037598 11.598082542419434 L9.877856254577637 11.598082542419434 L9.917449951171875 11.590238571166992 L9.830418586730957 11.602066993713379 L9.830418586730957 11.669301986694336 C9.830418586730957 11.681255340576172 9.830418586730957 11.697068214416504 9.8225736618042 11.700927734375 L9.798916816711426 11.740521430969238 L9.791072845458984 11.768287658691406 C9.731681823730469 11.914710998535156 9.652618408203125 12.037353515625 9.553632736206055 12.152151107788086 L9.553632736206055 12.183775901794434 L9.541804313659668 12.191744804382324 C9.494365692138672 12.290730476379395 9.423022270202637 12.353981018066406 9.316192626953125 12.389466285705566 L9.316192626953125 12.42109203338623 L9.308348655700684 12.44101333618164 L9.217331886291504 12.460686683654785 L9.185707092285156 12.460686683654785 L9.110502243041992 12.492311477661133 L9.106517791748047 12.508124351501465 L9.007658004760742 12.528046607971191 L8.99184513092041 12.5200777053833 A0.29384297132492065 0.29384297132492065 0.0 0 1 8.972047805786133 12.42109203338623 L9.007658004760742 12.42109203338623 L9.007658004760742 12.322356224060059 L9.217331886291504 12.322356224060059 L9.217331886291504 12.254996299743652 L9.248956680297852 12.254996299743652 L9.248956680297852 12.215402603149414 L9.316192626953125 12.215402603149414 L9.316192626953125 12.183775901794434 A0.2552449703216553 0.2552449703216553 0.0 0 0 9.474445343017578 12.057025909423828 L9.533835411071777 11.954180717468262 C9.545663833618164 11.918695449829102 9.553632736206055 11.886945724487305 9.553632736206055 11.839507102966309 L9.553632736206055 11.776256561279297 L9.593226432800293 11.776256561279297 L9.593226432800293 11.46361255645752 L9.6605863571167 11.46361255645752 C9.838635444641113 11.400361061096191 9.981075286865234 11.305360794067383 10.09587287902832 11.182718276977539 C10.09985637664795 11.174874305725098 10.09985637664795 11.166905403137207 10.09985637664795 11.162920951843262 L10.09985637664795 11.08771800994873 L10.139451026916504 11.08771800994873 L10.135466575622559 11.063936233520508 C10.115670204162598 11.028326034545898 10.107701301574707 10.996700286865234 10.09985637664795 10.949262619018555 C10.09587287902832 10.949262619018555 10.087904930114746 10.949262619018555 10.087904930114746 10.94527816772461 L10.016684532165527 10.81865119934082 L9.99688720703125 10.779057502746582 L9.981075286865234 10.77121353149414 L9.969121932983398 10.680196762084961 L10.000746726989746 10.612836837768555 C10.056154251098633 10.513976097106934 10.147171020507812 10.430928230285645 10.273797035217285 10.371538162231445 L10.376642227172852 10.371538162231445 L10.376642227172852 10.335927963256836 L10.443877220153809 10.335927963256836 L10.98997688293457 10.19747257232666 L11.096806526184082 10.19747257232666 L11.096806526184082 10.165847778320312 L11.164041519165039 10.165847778320312 L11.164041519165039 10.134221076965332 L11.365872383117676 10.098611831665039 L11.472701072692871 10.066986083984375 C11.61115550994873 9.999752044677734 11.70229721069336 9.928531646728516 11.741766929626465 9.841499328613281 L11.741766929626465 9.619872093200684 L11.718110084533691 9.612027168273926 L11.678515434265137 9.584261894226074 L11.658719062805176 9.580402374267578 L11.642906188964844 9.382556915283203 L11.63792610168457 9.346946716308594 L11.610160827636719 9.307352066040039 L11.610160827636719 9.208492279052734 L11.590362548828125 9.204507827758789 L11.578534126281738 9.06991195678711 L11.562721252441406 9.046131134033203 L11.538941383361816 9.038287162780762 L11.163045883178711 9.038287162780762 L11.163045883178711 9.050114631652832 C11.06418514251709 9.085724830627441 10.977028846740723 9.077880859375 10.897964477539062 9.030318260192871 L10.77133846282959 8.978771209716797 C10.727760314941406 8.970927238464355 10.680445671081543 8.959098815917969 10.648695945739746 8.931333541870117 C10.613085746765137 8.939176559448242 10.589303970336914 8.931333541870117 10.561662673950195 8.919504165649414 L10.46280288696289 8.860114097595215 L10.45495891571045 8.840316772460938 L10.431177139282227 8.828487396240234 L10.36394214630127 8.828487396240234 L10.312395095825195 8.800722122192383 C10.276785850524902 8.80856704711914 10.25300407409668 8.800722122192383 10.225362777709961 8.780925750732422 L10.11454963684082 8.72153377532959 L10.067110061645508 8.662142753601074 L10.047313690185547 8.654298782348633 L10.055158615112305 8.594907760620117 L10.067110061645508 8.63064193725586 L10.165971755981445 8.674220085144043 L10.17393970489502 8.693892478942871 L10.264957427978516 8.690032958984375 L10.27280044555664 8.642595291137695 L10.225362777709961 8.634750366210938 L10.20556640625 8.591172218322754 L10.177925109863281 8.583328247070312 L10.138330459594727 8.523937225341797 L10.197721481323242 8.535890579223633 L10.20556640625 8.555562019348145 C10.276785850524902 8.563530921936035 10.324347496032715 8.60312557220459 10.34402084350586 8.662391662597656 L10.470646858215332 8.761252403259277 L10.549835205078125 8.761252403259277 L10.549835205078125 8.693892478942871 L10.77133846282959 8.899706840515137 L10.988981246948242 8.919504165649414 L10.988981246948242 8.931333541870117 L11.02857494354248 8.931333541870117 L11.02857494354248 8.899706840515137 L11.127436637878418 8.887879371643066 L10.969183921813965 8.753284454345703 L10.925729751586914 8.693892478942871 L11.024590492248535 8.70970630645752 L11.02857494354248 8.72950267791748 L11.285812377929688 8.867958068847656 L11.404470443725586 8.867958068847656 L11.440079689025879 8.848160743713379 L11.404470443725586 8.800722122192383 C11.360892295837402 8.800722122192383 11.325282096862793 8.788893699645996 11.301624298095703 8.761127471923828 L11.234265327453613 8.693767547607422 C11.186826705932617 8.650314331054688 11.143248558044434 8.614705085754395 11.083856582641602 8.590923309326172 L10.957230567932129 8.523688316345215 L10.632759094238281 8.416858673095703 L10.553570747375488 8.377388954162598 L10.514101028442383 8.317997932434082 L10.49031925201416 8.306045532226562 L10.482475280761719 8.286248207092285 L10.462677955627441 8.278404235839844 L10.4112548828125 8.147793769836426 C10.462677955627441 8.159621238708496 10.49031925201416 8.195231437683105 10.482475280761719 8.254622459411621 L10.510241508483887 8.258606910705566 L10.514225006103516 8.286248207092285 L10.60125732421875 8.298076629638672 L10.640851974487305 8.305920600891113 C10.668493270874023 8.313889503479004 10.69227409362793 8.313889503479004 10.719915390014648 8.298076629638672 L10.719915390014648 8.254497528076172 L10.692150115966797 8.238685607910156 L10.648695945739746 8.17929458618164 L10.628898620605469 8.175310134887695 L10.581460952758789 8.11591911315918 L10.648820877075195 8.11591911315918 L10.648820877075195 8.147543907165527 L10.71207046508789 8.187137603759766 L10.719915390014648 8.214903831481934 L10.787275314331055 8.214903831481934 L10.787275314331055 8.147917747497559 L10.84666633605957 8.187512397766113 A1.2048808336257935 1.2048808336257935 0.0 0 0 11.068293571472168 8.43678092956543 L11.186951637268066 8.543609619140625 C11.206748962402344 8.563406944274902 11.234389305114746 8.575235366821289 11.2739839553833 8.591048240661621 C11.301749229431152 8.59503173828125 11.321422576904297 8.59503173828125 11.341218948364258 8.575235366821289 L11.301749229431152 8.472390174865723 L11.2739839553833 8.45657730102539 L11.26613998413086 8.385357856750488 L11.36500072479248 8.476374626159668 L11.36500072479248 8.4921875 C11.372844696044922 8.571250915527344 11.404594421386719 8.63064193725586 11.471830368041992 8.670236587524414 L11.51142406463623 8.68218994140625 C11.543049812316895 8.69401741027832 11.55886173248291 8.674345016479492 11.539190292358398 8.630766868591309 L11.519392013549805 8.614953994750977 L11.50345516204834 8.591172218322754 L11.483658790588379 8.583328247070312 L11.471705436706543 8.523937225341797 L11.50345516204834 8.523937225341797 L11.50345516204834 8.523812294006348 L11.50345516204834 8.523812294006348 M14.004233360290527 9.659590721130371 L13.9845609664917 9.659590721130371 L14.004233360290527 9.659590721130371 M12.1246337890625 8.690032958984375 L12.053414344787598 8.662267684936523 L12.1246337890625 8.690032958984375 L12.1246337890625 8.674220085144043 L12.1246337890625 8.690032958984375 M12.025649070739746 8.959222793579102 L11.998007774353027 8.97889518737793 L12.025649070739746 8.959222793579102 M15.408827781677246 14.202079772949219 L16.180416107177734 14.202079772949219 L16.465417861938477 14.229597091674805 C16.536636352539062 14.249517440795898 16.595779418945312 14.273174285888672 16.65529441833496 14.312768936157227 C16.7659854888916 14.39183235168457 16.82525062561035 14.498785972595215 16.82525062561035 14.625536918640137 C16.82525062561035 14.724273681640625 16.79362678527832 14.807446479797363 16.726266860961914 14.87480640411377 C16.663013458251953 14.941915512084961 16.568138122558594 14.985494613647461 16.457324981689453 15.01313591003418 A0.6305173635482788 0.6305173635482788 0.0 0 1 16.65529441833496 15.124074935913086 C16.70273208618164 15.171512603759766 16.7659854888916 15.27049732208252 16.853015899658203 15.420780181884766 C16.94390869140625 15.575173377990723 17.011268615722656 15.673909187316895 17.050987243652344 15.713627815246582 C17.082612991333008 15.745253562927246 17.12220573425293 15.773018836975098 17.16964340209961 15.784847259521484 C17.220943450927734 15.772894859313965 17.26053810119629 15.753222465515137 17.28830337524414 15.717487335205078 C17.319927215576172 15.673909187316895 17.36736488342285 15.594969749450684 17.415054321289062 15.468219757080078 L17.873994827270508 14.202204704284668 L18.178672790527344 14.202204704284668 L18.594284057617188 15.34956169128418 C18.661396026611328 15.527609825134277 18.71294403076172 15.638423919677734 18.74456787109375 15.693954467773438 C18.780054092407227 15.745253562927246 18.839445114135742 15.776878356933594 18.910663604736328 15.79680061340332 L18.910663604736328 15.84423828125 L18.099609375 15.84423828125 L18.099609375 15.79680061340332 C18.198345184326172 15.792691230773926 18.246030807495117 15.757205963134766 18.246030807495117 15.68586254119873 C18.246030807495117 15.65423583984375 18.229969024658203 15.60679817199707 18.210296630859375 15.547532081604004 L18.107452392578125 15.25866985321045 L17.624727249145508 15.25866985321045 L17.525741577148438 15.519890785217285 C17.49797821044922 15.587000846862793 17.48639678955078 15.638547897338867 17.48639678955078 15.674034118652344 C17.48639678955078 15.75334644317627 17.537696838378906 15.792691230773926 17.6445255279541 15.79680061340332 L17.6445255279541 15.84423828125 L16.647449493408203 15.84423828125 A4.725393772125244 4.725393772125244 0.0 0 1 16.41785430908203 15.460498809814453 C16.330821990966797 15.309967041015625 16.25960350036621 15.203262329101562 16.208179473876953 15.159683227539062 C16.160741806030273 15.112245559692383 16.093381881713867 15.084480285644531 16.010210037231445 15.084480285644531 L16.010210037231445 15.519766807556152 C16.010210037231445 15.594969749450684 16.014320373535156 15.638423919677734 16.02216339111328 15.673909187316895 C16.034114837646484 15.70578384399414 16.053789138793945 15.73330020904541 16.07370948791504 15.753222465515137 A0.2751665413379669 0.2751665413379669 0.0 0 0 16.208179473876953 15.79680061340332 L16.208179473876953 15.84423828125 L15.408827781677246 15.84423828125 L15.408827781677246 15.79680061340332 C15.476187705993652 15.792691230773926 15.519766807556152 15.765174865722656 15.547407150268555 15.73330020904541 C15.575173377990723 15.693954467773438 15.586751937866211 15.618751525878906 15.586751937866211 15.519766807556152 L15.586751937866211 14.530536651611328 C15.586751937866211 14.427691459655762 15.575048446655273 14.352487564086914 15.547407150268555 14.32086181640625 C15.519641876220703 14.281267166137695 15.476187705993652 14.253501892089844 15.408827781677246 14.249642372131348 L15.408827781677246 14.202079772949219 L15.408827781677246 14.202079772949219 M14.617444038391113 14.32086181640625 L14.617444038391113 14.946025848388672 L14.86671257019043 14.946025848388672 C14.953744888305664 14.946025848388672 15.02110481262207 14.934072494506836 15.052730560302734 14.906431198120117 C15.09207534790039 14.87480640411377 15.119840621948242 14.827117919921875 15.131793975830078 14.755899429321289 L15.171387672424316 14.755899429321289 L15.171387672424316 15.258544921875 L15.131793975830078 15.258544921875 C15.119840621948242 15.183341026306152 15.092199325561523 15.131793975830078 15.060574531555176 15.10415267944336 C15.021228790283203 15.080620765686035 14.953868865966797 15.064806938171387 14.862853050231934 15.064806938171387 L14.617444038391113 15.064806938171387 L14.617444038391113 15.519766807556152 C14.617444038391113 15.594969749450684 14.625411987304688 15.638423919677734 14.62939739227295 15.673909187316895 C14.637116432189941 15.70578384399414 14.6571626663208 15.73330020904541 14.68480396270752 15.753222465515137 C14.716428756713867 15.776754379272461 14.756023406982422 15.792566299438477 14.815165519714355 15.79680061340332 L14.815165519714355 15.84423828125 L14.012202262878418 15.84423828125 L14.012202262878418 15.79680061340332 C14.083172798156738 15.792691230773926 14.130859375 15.765174865722656 14.150532722473145 15.73330020904541 C14.174314498901367 15.693954467773438 14.190126419067383 15.618751525878906 14.190126419067383 15.519766807556152 L14.190126419067383 14.530536651611328 L14.182157516479492 14.372283935546875 A0.15339601039886475 0.15339601039886475 0.0 0 0 14.130859375 14.293220520019531 C14.103094100952148 14.269439697265625 14.063499450683594 14.253625869750977 14.012202262878418 14.249642372131348 L14.012202262878418 14.202204704284668 L15.222810745239258 14.202204704284668 L15.25057601928711 14.530536651611328 L15.203137397766113 14.530536651611328 C15.183465003967285 14.45931625366211 15.151840209960938 14.399925231933594 15.10415267944336 14.368300437927246 C15.052854537963867 14.332565307617188 14.973542213439941 14.32086181640625 14.866836547851562 14.32086181640625 L14.617444038391113 14.32086181640625 L14.617444038391113 14.32086181640625 M16.010210037231445 14.30081558227539 L16.010210037231445 14.985370635986328 L16.0498046875 14.985370635986328 C16.14879035949707 14.985370635986328 16.22785186767578 14.961837768554688 16.27130699157715 14.91415023803711 C16.346511840820312 14.847040176391602 16.386104583740234 14.755899429321289 16.386104583740234 14.645210266113281 C16.386104583740234 14.49081802368164 16.330698013305664 14.387972831726074 16.231962203979492 14.332441329956055 C16.188508987426758 14.312768936157227 16.109195709228516 14.30081558227539 16.010210037231445 14.30081558227539 M12.164228439331055 14.372159957885742 C12.15626049041748 14.340534210205078 12.144307136535645 14.312768936157227 12.1246337890625 14.293095588684082 C12.093008995056152 14.26931381225586 12.045571327209473 14.253501892089844 11.998007774353027 14.249517440795898 L11.998007774353027 14.202079772949219 L13.212850570678711 14.202079772949219 L13.240615844726562 14.530410766601562 L13.192928314208984 14.530410766601562 C13.173255920410156 14.459192276000977 13.141630172729492 14.399801254272461 13.094191551208496 14.368175506591797 C13.042644500732422 14.332441329956055 12.963581085205078 14.3207368850708 12.856627464294434 14.3207368850708 L12.6073579788208 14.3207368850708 L12.6073579788208 14.945900917053223 L12.856627464294434 14.945900917053223 C12.943659782409668 14.945900917053223 13.007160186767578 14.933948516845703 13.042644500732422 14.906307220458984 C13.082239151000977 14.87468147277832 13.10589599609375 14.826993942260742 13.121957778930664 14.75577449798584 L13.16130256652832 14.75577449798584 L13.16130256652832 15.25841999053955 L13.121957778930664 15.25841999053955 C13.10589599609375 15.183216094970703 13.08236312866211 15.131669044494629 13.046628952026367 15.10402774810791 C13.007284164428711 15.080495834350586 12.9437837600708 15.064682960510254 12.848907470703125 15.064682960510254 L12.607483863830566 15.064682960510254 L12.607483863830566 15.519641876220703 C12.607483863830566 15.59484577178955 12.611343383789062 15.638298988342285 12.619436264038086 15.673785209655762 C12.627405166625977 15.705658912658691 12.647201538085938 15.733176231384277 12.67098331451416 15.753097534179688 C12.70646858215332 15.776629447937012 12.746187210083008 15.792442321777344 12.80545425415039 15.796676635742188 L12.80545425415039 15.844114303588867 L11.99825668334961 15.844114303588867 L11.99825668334961 15.796676635742188 C12.073461532592773 15.792566299438477 12.117039680480957 15.765049934387207 12.136712074279785 15.733176231384277 C12.164477348327637 15.693830490112305 12.176305770874023 15.618627548217773 12.176305770874023 15.519641876220703 L12.176305770874023 14.530410766601562 L12.164228439331055 14.372159957885742 L12.164228439331055 14.372159957885742 M11.815975189208984 15.032808303833008 C11.815975189208984 15.211106300354004 11.768536567687988 15.369109153747559 11.677519798278809 15.507688522338867 C11.58251953125 15.646018981933594 11.459877014160156 15.753097534179688 11.301624298095703 15.81236457824707 C11.17499828338623 15.855942726135254 11.044387817382812 15.883584022521973 10.897964477539062 15.883584022521973 C10.640851974487305 15.883584022521973 10.431053161621094 15.81236457824707 10.264957427978516 15.673660278320312 C10.075078964233398 15.515532493591309 9.98007869720459 15.297889709472656 9.98007869720459 15.020979881286621 C9.98007869720459 14.75564956665039 10.075078964233398 14.546100616455078 10.25300407409668 14.387723922729492 C10.423208236694336 14.241299629211426 10.640851974487305 14.170080184936523 10.897964477539062 14.162237167358398 C11.15520191192627 14.162237167358398 11.372719764709473 14.233455657958984 11.542924880981445 14.387723922729492 C11.72097396850586 14.546224594116211 11.815975189208984 14.763867378234863 11.815975189208984 15.032808303833008 M20.006725311279297 14.190251350402832 L20.0186767578125 14.62939739227295 L19.979084014892578 14.62939739227295 C19.94745635986328 14.526552200317383 19.908111572265625 14.44723892211914 19.860424041748047 14.399801254272461 C19.78920555114746 14.3207368850708 19.69432830810547 14.281143188476562 19.583389282226562 14.281143188476562 C19.52400016784668 14.281143188476562 19.472702026367188 14.293095588684082 19.433107376098633 14.328581809997559 C19.377700805664062 14.368175506591797 19.35404396057129 14.411754608154297 19.35404396057129 14.471144676208496 C19.35404396057129 14.538504600524902 19.385669708251953 14.597895622253418 19.456890106201172 14.6571626663208 C19.492374420166016 14.684928894042969 19.575546264648438 14.736226081848145 19.702049255371094 14.823259353637695 C19.84062957763672 14.906431198120117 19.939613342285156 14.985494613647461 19.999004364013672 15.060574531555176 C20.078067779541016 15.143746376037598 20.117660522460938 15.250452041625977 20.117660522460938 15.377202033996582 C20.117660522460938 15.51578140258789 20.07022476196289 15.626470565795898 19.97123908996582 15.725456237792969 C19.868392944335938 15.832160949707031 19.721969604492188 15.883708000183105 19.535953521728516 15.883708000183105 C19.436967849731445 15.883708000183105 19.314449310302734 15.863786697387695 19.175745010375977 15.8163480758667 L19.10863494873047 15.80439567565918 C19.077009201049805 15.80439567565918 19.05708885192871 15.82431697845459 19.03741455078125 15.855942726135254 L18.989978790283203 15.855942726135254 L18.989978790283203 15.341592788696289 L19.029321670532227 15.341592788696289 C19.05708885192871 15.460250854492188 19.096681594848633 15.555127143859863 19.15607452392578 15.618627548217773 C19.239246368408203 15.71350383758545 19.345951080322266 15.7569580078125 19.472702026367188 15.7569580078125 C19.543920516967773 15.7569580078125 19.61103057861328 15.737284660339355 19.65460968017578 15.697566032409668 C19.71001625061035 15.65797233581543 19.733922958374023 15.606674194335938 19.733922958374023 15.547282218933105 C19.733922958374023 15.479923248291016 19.702049255371094 15.4205322265625 19.64278221130371 15.36898422241211 L19.39737319946289 15.190935134887695 C19.274856567382812 15.103903770446777 19.175870895385742 15.024839401245117 19.116477966308594 14.961588859558105 C19.041275024414062 14.874556541442871 19.009775161743164 14.763618469238281 19.009775161743164 14.636991500854492 C19.009775161743164 14.486708641052246 19.057212829589844 14.368051528930664 19.15619659423828 14.281018257141113 C19.25518226623535 14.201955795288086 19.377700805664062 14.162361145019531 19.524124145507812 14.162361145019531 C19.59534454345703 14.162361145019531 19.690467834472656 14.18203353881836 19.81298828125 14.213658332824707 L19.9000186920166 14.229471206665039 C19.91969108581543 14.229471206665039 19.94745635986328 14.213658332824707 19.967378616333008 14.190126419067383 L20.006725311279297 14.190126419067383 L20.006725311279297 14.190251350402832 L20.006725311279297 14.190251350402832 M20.323352813720703 14.202079772949219 L21.589616775512695 14.202079772949219 L21.601318359375 14.565896987915039 L21.561975479125977 14.565896987915039 C21.542301177978516 14.471020698547363 21.502582550048828 14.407770156860352 21.45526885986328 14.37203598022461 C21.411691665649414 14.340410232543945 21.332504272460938 14.3207368850708 21.22567367553711 14.3207368850708 L20.920997619628906 14.3207368850708 L20.920997619628906 14.953744888305664 L21.194049835205078 14.953744888305664 C21.276973724365234 14.953744888305664 21.34433364868164 14.941791534423828 21.383926391601562 14.906307220458984 C21.431365966796875 14.882525444030762 21.45514678955078 14.835086822509766 21.462989807128906 14.763742446899414 L21.502582550048828 14.763742446899414 L21.502582550048828 15.262280464172363 L21.462989807128906 15.262280464172363 C21.45526885986328 15.191061019897461 21.431365966796875 15.139762878417969 21.391769409179688 15.1119966506958 C21.352176666259766 15.08423137664795 21.285064697265625 15.072402954101562 21.186080932617188 15.072402954101562 L20.920997619628906 15.072402954101562 L20.920997619628906 15.400983810424805 C20.920997619628906 15.539314270019531 20.940670013427734 15.634439468383789 20.97640609741211 15.678017616271973 C21.015750885009766 15.717363357543945 21.098922729492188 15.737408638000488 21.22567367553711 15.737408638000488 C21.332378387451172 15.737408638000488 21.411691665649414 15.717487335205078 21.462989807128906 15.678017616271973 C21.514537811279297 15.634439468383789 21.561975479125977 15.559110641479492 21.601318359375 15.456266403198242 L21.649005889892578 15.468219757080078 L21.601318359375 15.84423828125 L20.323352813720703 15.84423828125 L20.323352813720703 15.79680061340332 C20.38660430908203 15.792691230773926 20.434289932250977 15.765174865722656 20.461681365966797 15.73330020904541 C20.481605529785156 15.693954467773438 20.49355697631836 15.618751525878906 20.49355697631836 15.519766807556152 L20.49355697631836 14.530536651611328 L20.48558807373047 14.372283935546875 C20.481727600097656 14.340659141540527 20.461807250976562 14.312893867492676 20.44200897216797 14.293220520019531 C20.41424560546875 14.269439697265625 20.374900817871094 14.253625869750977 20.323352813720703 14.249642372131348 L20.323352813720703 14.202079772949219 L20.323352813720703 14.202079772949219 M17.656354904174805 15.143746376037598 L18.06785774230957 15.143746376037598 L17.870136260986328 14.558177947998047 L17.656354904174805 15.143746376037598 M9.936500549316406 11.63792610168457 L9.896905899047852 11.63792610168457 L9.896905899047852 12.01382064819336 C9.896905899047852 12.025649070739746 9.896905899047852 12.033617973327637 9.889062881469727 12.037477493286133 L9.79804515838623 12.116790771484375 L9.762434959411621 12.116790771484375 L9.762434959411621 12.215526580810547 L9.592230796813965 12.215526580810547 L9.592230796813965 12.389591217041016 C9.584386825561523 12.429184913635254 9.604059219360352 12.433170318603516 9.65162181854248 12.409512519836426 C9.659465789794922 12.409512519836426 9.659465789794922 12.401543617248535 9.659465789794922 12.389591217041016 C9.797921180725098 12.314387321472168 9.908734321594238 12.223494529724121 9.995766639709473 12.112556457519531 L9.999752044677734 12.08479118347168 L10.027392387390137 12.045445442199707 L10.035360336303711 12.01369571685791 L10.066986083984375 11.87524127960205 L10.066986083984375 11.62995719909668 L9.936375617980957 11.62995719909668 L9.936375617980957 11.63792610168457 L9.936500549316406 11.63792610168457 L9.936500549316406 11.63792610168457 M4.0209174156188965 14.387972831726074 C4.202950954437256 14.546224594116211 4.297952175140381 14.763992309570312 4.297952175140381 15.032933235168457 C4.297952175140381 15.211231231689453 4.250513553619385 15.369234085083008 4.159497261047363 15.507813453674316 C4.0644965171813965 15.646143913269043 3.941854476928711 15.753222465515137 3.775632858276367 15.812488555908203 A1.146236777305603 1.146236777305603 0.0 0 1 3.372097969055176 15.883708000183105 C3.1149845123291016 15.883708000183105 2.9051856994628906 15.812488555908203 2.7389659881591797 15.673785209655762 C2.549088478088379 15.515657424926758 2.458070755004883 15.298013687133789 2.458070755004883 15.02110481262207 C2.458070755004883 14.75577449798584 2.5489635467529297 14.546224594116211 2.7271366119384766 14.387847900390625 C2.897341728210449 14.241424560546875 3.1149845123291016 14.170205116271973 3.372097969055176 14.162361145019531 C3.637054443359375 14.162485122680664 3.8546972274780273 14.233705520629883 4.0209174156188965 14.387972831726074 L4.0209174156188965 14.387972831726074 M3.696444511413574 14.471144676208496 C3.605428695678711 14.348627090454102 3.498599052429199 14.281267166137695 3.3719730377197266 14.281267166137695 C3.300753593444824 14.281267166137695 3.2295331954956055 14.309032440185547 3.162173271179199 14.360331535339355 C2.996077537536621 14.490942001342773 2.912904739379883 14.708585739135742 2.912904739379883 15.021352767944336 C2.912904739379883 15.262653350830078 2.956483840942383 15.448670387268066 3.055344581604004 15.579156875610352 C3.142500877380371 15.705907821655273 3.249330520629883 15.765174865722656 3.3718490600585938 15.765174865722656 C3.510303497314453 15.765174865722656 3.6289615631103516 15.693954467773438 3.724085807800293 15.547532081604004 C3.803150177001953 15.420780181884766 3.8427438735961914 15.2428560256958 3.8427438735961914 15.025214195251465 C3.8428688049316406 14.787773132324219 3.795431137084961 14.605615615844727 3.696444511413574 14.471144676208496 M4.460187911987305 14.202079772949219 L5.24758768081665 14.202079772949219 L5.24758768081665 14.249517440795898 C5.172383785247803 14.253376960754395 5.12893009185791 14.281143188476562 5.1011643409729 14.3207368850708 C5.081367492675781 14.360082626342773 5.069538593292236 14.431426048278809 5.069538593292236 14.530410766601562 L5.069538593292236 15.179232597351074 C5.069538593292236 15.30199909210205 5.073398590087891 15.389155387878418 5.081367492675781 15.44045352935791 C5.093320369720459 15.495861053466797 5.120961666107178 15.539438247680664 5.152586936950684 15.58687686920166 C5.211977958679199 15.666189193725586 5.299010276794434 15.70578384399414 5.409699440002441 15.70578384399414 C5.536450386047363 15.70578384399414 5.643155574798584 15.65423583984375 5.726203441619873 15.555251121520996 L5.726203441619873 14.530536651611328 C5.726203441619873 14.431550979614258 5.714375019073486 14.360331535339355 5.694577693939209 14.32086181640625 C5.66693639755249 14.281267166137695 5.623358249664307 14.253501892089844 5.548154354095459 14.249642372131348 L5.548154354095459 14.202204704284668 L6.3355536460876465 14.202204704284668 L6.3355536460876465 14.249642372131348 C6.260349750518799 14.253501892089844 6.216896057128906 14.281267166137695 6.1891303062438965 14.32086181640625 C6.169333457946777 14.360206604003906 6.157504558563232 14.431550979614258 6.157504558563232 14.530536651611328 L6.157504558563232 15.51590633392334 C6.157504558563232 15.614642143249512 6.169333457946777 15.68586254119873 6.1891303062438965 15.725581169128418 C6.216896057128906 15.765174865722656 6.260349750518799 15.792691230773926 6.3355536460876465 15.79680061340332 L6.3355536460876465 15.84423828125 L5.726203441619873 15.84423828125 L5.726203441619873 15.678142547607422 C5.575795650482178 15.816473007202148 5.405714988708496 15.883832931518555 5.211853504180908 15.883832931518555 C5.033804416656494 15.883832931518555 4.8913655281066895 15.832284927368164 4.784535884857178 15.73330020904541 C4.7329888343811035 15.673909187316895 4.693519115447998 15.60679817199707 4.673722267150879 15.535579681396484 C4.653924942016602 15.46037483215332 4.638112545013428 15.35753059387207 4.638112545013428 15.218951225280762 L4.638112545013428 14.530536651611328 L4.62615966796875 14.380252838134766 C4.61831521987915 14.348627090454102 4.606362342834473 14.312893867492676 4.578721046447754 14.293220520019531 C4.554940223693848 14.273299217224121 4.515470504760742 14.253625869750977 4.459939002990723 14.249642372131348 L4.459939002990723 14.202079772949219 L4.460187911987305 14.202079772949219 M1.4924983978271484 14.202079772949219 L2.279897689819336 14.202079772949219 L2.279897689819336 14.249517440795898 C2.2046937942504883 14.253376960754395 2.161240577697754 14.281143188476562 2.133474349975586 14.3207368850708 C2.1058340072631836 14.352363586425781 2.0940046310424805 14.42744255065918 2.0940046310424805 14.530410766601562 L2.0940046310424805 15.519641876220703 C2.0940046310424805 15.618627548217773 2.1058340072631836 15.693706512451172 2.133474349975586 15.733176231384277 C2.161240577697754 15.765049934387207 2.2046937942504883 15.792566299438477 2.279897689819336 15.796676635742188 L2.279897689819336 15.844114303588867 L1.4924983978271484 15.844114303588867 L1.4924983978271484 15.796676635742188 C1.5677013397216797 15.792566299438477 1.6111564636230469 15.765049934387207 1.6309528350830078 15.733176231384277 C1.6585941314697266 15.693830490112305 1.6705474853515625 15.618627548217773 1.6705474853515625 15.519641876220703 L1.6705474853515625 15.064682960510254 L0.9583511352539062 15.064682960510254 L0.9583511352539062 15.519641876220703 L0.9741640090942383 15.673785209655762 C0.9781494140625 15.705658912658691 0.9979457855224609 15.733176231384277 1.0177431106567383 15.753097534179688 C1.045384407043457 15.776629447937012 1.0851030349731445 15.792442321777344 1.1364002227783203 15.796676635742188 L1.1364002227783203 15.844114303588867 L0.3528604507446289 15.844114303588867 L0.3528604507446289 15.796676635742188 C0.42407989501953125 15.792566299438477 0.47164344787597656 15.765049934387207 0.4992847442626953 15.733176231384277 C0.5190811157226562 15.693830490112305 0.530909538269043 15.618627548217773 0.530909538269043 15.519641876220703 L0.530909538269043 14.530410766601562 L0.5230646133422852 14.372159957885742 C0.5190811157226562 14.340534210205078 0.4992847442626953 14.312768936157227 0.4796113967895508 14.293095588684082 A0.2544979155063629 0.2544979155063629 0.0 0 0 0.3528604507446289 14.249517440795898 L0.3528604507446289 14.202079772949219 L1.1362762451171875 14.202079772949219 L1.1362762451171875 14.249517440795898 C1.0650568008422852 14.253376960754395 1.017618179321289 14.281143188476562 0.9978208541870117 14.3207368850708 C0.9740390777587891 14.352363586425781 0.9582271575927734 14.42744255065918 0.9582271575927734 14.530410766601562 L0.9582271575927734 14.946025848388672 L1.6705474853515625 14.946025848388672 L1.6705474853515625 14.530410766601562 L1.6585941314697266 14.372159957885742 A0.17568324506282806 0.17568324506282806 0.0 0 0 1.6111564636230469 14.293095588684082 A0.22561165690422058 0.22561165690422058 0.0 0 0 1.4924983978271484 14.249517440795898 L1.4924983978271484 14.202079772949219 L1.4924983978271484 14.202079772949219 M8.769221305847168 14.32086181640625 L8.464546203613281 14.32086181640625 L8.464546203613281 14.953868865966797 L8.733611106872559 14.953868865966797 C8.82064437866211 14.953868865966797 8.887879371643066 14.941915512084961 8.927473068237305 14.906431198120117 C8.967066764831543 14.882649421691895 8.990848541259766 14.835211753845215 9.006661415100098 14.763867378234863 L9.046255111694336 14.763867378234863 L9.046255111694336 15.262404441833496 L9.006661415100098 15.262404441833496 C8.998693466186523 15.191184997558594 8.971052169799805 15.139886856079102 8.93145751953125 15.11212158203125 C8.891863822937012 15.084356307983398 8.828612327575684 15.072526931762695 8.72962760925293 15.072526931762695 L8.464546203613281 15.072526931762695 L8.464546203613281 15.401108741760254 C8.464546203613281 15.539438247680664 8.484342575073242 15.634564399719238 8.515969276428223 15.678142547607422 C8.551578521728516 15.717487335205078 8.634626388549805 15.737534523010254 8.769221305847168 15.737534523010254 C8.868082046508789 15.737534523010254 8.947270393371582 15.717612266540527 9.006661415100098 15.678142547607422 C9.058084487915039 15.634564399719238 9.105522155761719 15.559235572814941 9.145115852355957 15.456390380859375 L9.188570022583008 15.468343734741211 L9.145115852355957 15.844362258911133 L7.863163948059082 15.844362258911133 L7.863163948059082 15.796924591064453 C7.930399417877197 15.792816162109375 7.977837085723877 15.765299797058105 8.001618385314941 15.73342514038086 C8.021415710449219 15.694079399108887 8.03722858428955 15.618875503540039 8.03722858428955 15.519890785217285 L8.03722858428955 14.530660629272461 L8.02938461303711 14.372408866882324 A0.17568324506282806 0.17568324506282806 0.0 0 0 7.9819464683532715 14.293344497680664 C7.958164691925049 14.269563674926758 7.918570518493652 14.253750801086426 7.863288402557373 14.24976634979248 L7.863288402557373 14.2023286819458 L9.129427909851074 14.2023286819458 L9.145240783691406 14.566145896911621 L9.105647087097168 14.566145896911621 C9.08584976196289 14.471269607543945 9.046255111694336 14.408019065856934 8.998817443847656 14.372283935546875 C8.947270393371582 14.340534210205078 8.868206024169922 14.32086181640625 8.769221305847168 14.32086181640625 L8.769221305847168 14.32086181640625 M10.680445671081543 14.360206604003906 C10.514225006103516 14.49081802368164 10.435036659240723 14.708459854125977 10.435036659240723 15.021228790283203 C10.435036659240723 15.262529373168945 10.482475280761719 15.448546409606934 10.573492050170898 15.579032897949219 C10.668493270874023 15.70578384399414 10.77133846282959 15.765049934387207 10.897964477539062 15.765049934387207 C11.036418914794922 15.765049934387207 11.147233009338379 15.693830490112305 11.242234230041504 15.547407150268555 C11.321297645568848 15.420656204223633 11.360892295837402 15.242731094360352 11.360892295837402 15.025089263916016 C11.360892295837402 14.787773132324219 11.313453674316406 14.605615615844727 11.214468002319336 14.471144676208496 C11.127436637878418 14.348627090454102 11.024590492248535 14.281267166137695 10.897964477539062 14.281267166137695 C10.82686996459961 14.281143188476562 10.751665115356445 14.308908462524414 10.680445671081543 14.360206604003906 L10.680445671081543 14.360206604003906 M6.968810558319092 14.328581809997559 C6.921372413635254 14.368175506591797 6.893606662750244 14.411754608154297 6.893606662750244 14.471144676208496 C6.893606662750244 14.538504600524902 6.929216384887695 14.597895622253418 6.992467403411865 14.6571626663208 L7.245720386505127 14.823259353637695 C7.384174823760986 14.906431198120117 7.483160495758057 14.985494613647461 7.542426586151123 15.060574531555176 C7.621615409851074 15.143746376037598 7.6612091064453125 15.250452041625977 7.6612091064453125 15.377202033996582 C7.6612091064453125 15.51578140258789 7.613646030426025 15.626470565795898 7.5147857666015625 15.725456237792969 C7.407956600189209 15.832160949707031 7.265517234802246 15.883708000183105 7.0794997215271 15.883708000183105 C6.98063850402832 15.883708000183105 6.853888034820557 15.863786697387695 6.715433120727539 15.8163480758667 L6.652182102203369 15.80439567565918 C6.616572380065918 15.80439567565918 6.596775054931641 15.82431697845459 6.57697868347168 15.855942726135254 L6.533524036407471 15.855942726135254 L6.533524036407471 15.341592788696289 L6.573118686676025 15.341592788696289 C6.596775054931641 15.460250854492188 6.636369228363037 15.555127143859863 6.695760726928711 15.618627548217773 C6.782793045043945 15.71350383758545 6.889622211456299 15.7569580078125 7.012264251708984 15.7569580078125 C7.087468147277832 15.7569580078125 7.150719165802002 15.737284660339355 7.198281764984131 15.697566032409668 C7.24584436416626 15.65784740447998 7.269501209259033 15.606674194335938 7.269501209259033 15.547282218933105 C7.269501209259033 15.479923248291016 7.24584436416626 15.4205322265625 7.186453342437744 15.36898422241211 L6.941169261932373 15.190935134887695 C6.814542770385742 15.103903770446777 6.71555757522583 15.024839401245117 6.6561665534973145 14.961588859558105 C6.584947109222412 14.874556541442871 6.553321361541748 14.763618469238281 6.553321361541748 14.636991500854492 C6.553321361541748 14.486708641052246 6.59689998626709 14.368051528930664 6.695885181427002 14.281018257141113 C6.794745445251465 14.201955795288086 6.9135284423828125 14.162361145019531 7.067795753479004 14.162361145019531 C7.1390156745910645 14.162361145019531 7.230031967163086 14.18203353881836 7.356657981872559 14.213658332824707 L7.443690776824951 14.229471206665039 C7.46348762512207 14.229471206665039 7.487268924713135 14.213658332824707 7.506941318511963 14.190126419067383 L7.546535968780518 14.190126419067383 L7.562348365783691 14.6292724609375 L7.5149102210998535 14.6292724609375 C7.487144470214844 14.526427268981934 7.4476752281188965 14.447114944458008 7.404096603393555 14.399676322937012 C7.328892707824707 14.320612907409668 7.237875938415527 14.281018257141113 7.1270623207092285 14.281018257141113 C7.067795753479004 14.281143188476562 7.012388706207275 14.293095588684082 6.968810558319092 14.328581809997559 L6.968810558319092 14.328581809997559" fill="black" fill-opacity="1.0" filling="0"/>
<path animation_id="2" d="M13.853950500488281 11.918944358825684 L13.102035522460938 12.215526580810547 L11.899147033691406 12.136587142944336 L10.6882905960083 12.638984680175781 L9.869264602661133 12.55195140838623 L13.066426277160645 11.262030601501465 L15.250452041625977 11.40048599243164 L14.498785972595215 11.697317123413086 L13.180974960327148 11.610284805297852 L12.631139755249023 11.835771560668945 L13.853950500488281 11.918944358825684 L13.853950500488281 11.918944358825684" fill="black" fill-opacity="1.0" filling="0"/></svg>