<?xml version="1.0" encoding="iso-8859-1"?><svg height="200px" viewBox="0.0 0.0 24.0 24.0" width="200px" xmlns="http://www.w3.org/2000/svg"><path animation_id="0" d="M-2.40000057220459 2.682352066040039 L21.600000381469727 2.682352066040039 L21.600000381469727 18.21176528930664 L-2.40000057220459 18.21176528930664 L-2.40000057220459 2.682352066040039" fill="black" fill-opacity="1.0" filling="0"/>
<path animation_id="1" d="M-9.5367431640625e-07 4.235293865203857 L0.37333202362060547 4.337254524230957 C0.4015674591064453 4.294901371002197 0.41411781311035156 4.257254123687744 0.4282341003417969 4.1772541999816895 C0.5364704132080078 4.280783653259277 0.6682338714599609 4.337254524230957 0.8125486373901367 4.337254524230957 C0.9411754608154297 4.337254524230957 1.0494117736816406 4.294901371002197 1.1325483322143555 4.208626747131348 C1.1545085906982422 4.186666011810303 1.1639213562011719 4.174117088317871 1.1937246322631836 4.131763935089111 C1.338038444519043 4.279214859008789 1.4682340621948242 4.337254524230957 1.6407833099365234 4.337254524230957 C1.7647056579589844 4.337254524230957 1.880784034729004 4.299607276916504 1.9513721466064453 4.238430976867676 C2.040782928466797 4.1615681648254395 2.069019317626953 4.069018840789795 2.069019317626953 3.8541173934936523 L2.069019317626953 2.734116554260254 L1.6690196990966797 2.734116554260254 L1.6690196990966797 3.7741165161132812 C1.6690196990966797 3.9623517990112305 1.6470584869384766 3.9984312057495117 1.5403919219970703 3.9984312057495117 C1.4635286331176758 3.9984312057495117 1.3552942276000977 3.9466657638549805 1.2658815383911133 3.866665840148926 L1.2658815383911133 2.734116554260254 L0.8737249374389648 2.734116554260254 L0.8737249374389648 3.7599992752075195 C0.8737249374389648 3.957646369934082 0.845489501953125 4.003137111663818 0.732548713684082 4.003137111663818 C0.6556854248046875 4.003137111663818 0.5505867004394531 3.9623517990112305 0.46117591857910156 3.882352828979492 L0.46117591857910156 2.734116554260254 L0.05803871154785156 2.734116554260254 L0.05803871154785156 3.8337249755859375 C0.05803871154785156 4.059607028961182 0.04235267639160156 4.158431053161621 -9.5367431640625e-07 4.235293865203857" fill="black" fill-opacity="1.0" filling="0"/>
<path animation_id="2" d="M-9.5367431640625e-07 4.235293865203857 C-0.09882450103759766 4.235293865203857 -0.17882442474365234 4.174117088317871 -0.21176528930664062 4.07529354095459 C-0.24000072479248047 3.9921560287475586 -0.2541189193725586 3.880784034729004 -0.2541189193725586 3.723921775817871 C-0.2541189193725586 3.541959762573242 -0.23529529571533203 3.4070587158203125 -0.20235443115234375 3.3270578384399414 C-0.16470623016357422 3.24078369140625 -0.07372665405273438 3.1984310150146484 0.006274223327636719 3.1984310150146484 C0.18509674072265625 3.1984310150146484 0.2619600296020508 3.358430862426758 0.2619600296020508 3.731764793395996 C0.2619600296020508 3.9435291290283203 0.23372554779052734 4.083136558532715 0.17882347106933594 4.153724670410156 C0.13803863525390625 4.203921318054199 0.07372474670410156 4.235293865203857 -9.5367431640625e-07 4.235293865203857 M-0.006275177001953125 4.539607524871826 C0.21803855895996094 4.539607524871826 0.3937244415283203 4.46274471282959 0.5301952362060547 4.302744388580322 C0.6556854248046875 4.1552934646606445 0.7121562957763672 3.9827442169189453 0.7121562957763672 3.7270584106445312 C0.7121562957763672 3.455685615539551 0.6509799957275391 3.27215576171875 0.5145092010498047 3.1168622970581055 C0.3937244415283203 2.9819602966308594 0.2368612289428711 2.898822784423828 -0.006275177001953125 2.898822784423828 C-0.4345111846923828 2.898822784423828 -0.7137260437011719 3.2188234329223633 -0.7137260437011719 3.7145090103149414 C-0.7137260437011719 4.210195541381836 -0.43137359619140625 4.539607524871826 -0.006275177001953125 4.539607524871826" fill="black" fill-opacity="1.0" filling="0"/>
<path animation_id="3" d="M-9.5367431640625e-07 4.235293865203857 L1.1701946258544922 4.235293865203857 L1.1701946258544922 3.9513721466064453 L0.4737253189086914 2.9537248611450195 L1.1968622207641602 2.9537248611450195 L1.098038673400879 2.666666030883789 L-0.06274604797363281 2.666666030883789 L-0.06274604797363281 2.922351837158203 L0.6792144775390625 3.9450979232788086 L-9.5367431640625e-07 3.9450979232788086 L-9.5367431640625e-07 4.235293865203857" fill="black" fill-opacity="1.0" filling="0"/>
<path animation_id="4" d="M-9.5367431640625e-07 4.235293865203857 L0.4125480651855469 4.299607276916504 L0.4125480651855469 2.687058448791504 L-9.5367431640625e-07 2.687058448791504 L-9.5367431640625e-07 4.235293865203857 M0.21176433563232422 4.9521565437316895 C0.34980297088623047 4.9521565437316895 0.46117591857910156 4.837646484375 0.46117591857910156 4.696470260620117 C0.46117591857910156 4.555293560028076 0.3466653823852539 4.440783977508545 0.2054891586303711 4.440783977508545 C0.06745052337646484 4.440783977508545 -0.04706001281738281 4.555293560028076 -0.04706001281738281 4.696470260620117 C-0.04549121856689453 4.839215278625488 0.070587158203125 4.9521565437316895 0.21176433563232422 4.9521565437316895" fill="black" fill-opacity="1.0" filling="0"/>
<path animation_id="5" d="M-9.5367431640625e-07 4.235293865203857 C0.01568603515625 4.149019241333008 0.02196025848388672 4.047058582305908 0.02196025848388672 3.8258819580078125 L0.02196025848388672 2.5976457595825195 C0.02196025848388672 2.3262739181518555 0.025096893310546875 2.2901954650878906 0.05019569396972656 2.246273994445801 C0.06588172912597656 2.218038558959961 0.09882259368896484 2.203921318054199 0.1333322525024414 2.203921318054199 C0.1490192413330078 2.203921318054199 0.1584300994873047 2.203921318054199 0.17882347106933594 2.210195541381836 L0.24941158294677734 1.9639215469360352 C0.17882347106933594 1.9356861114501953 0.09254837036132812 1.9215679168701172 0.0031366348266601562 1.9215679168701172 C-0.17255020141601562 1.9215679168701172 -0.31372642517089844 2.0047054290771484 -0.363922119140625 2.136469841003418 C-0.3952951431274414 2.2164697647094727 -0.4015693664550781 2.2650976181030273 -0.4015693664550781 2.4909791946411133 L-0.4015693664550781 3.667449951171875 C-0.4015693664550781 3.872941017150879 -0.40784358978271484 4.0 -0.42353057861328125 4.141176223754883 L-9.5367431640625e-07 4.235293865203857" fill="black" fill-opacity="1.0" filling="0"/>
<path animation_id="6" d="M-9.5367431640625e-07 4.235293865203857 C0.01568603515625 4.149019241333008 0.02196025848388672 4.047058582305908 0.02196025848388672 3.8258819580078125 L0.02196025848388672 2.5976457595825195 C0.02196025848388672 2.3262739181518555 0.025096893310546875 2.2901954650878906 0.05019569396972656 2.246273994445801 C0.06588172912597656 2.218038558959961 0.09882259368896484 2.203921318054199 0.1333322525024414 2.203921318054199 C0.1490192413330078 2.203921318054199 0.1584300994873047 2.203921318054199 0.17882347106933594 2.210195541381836 L0.24941158294677734 1.9639215469360352 C0.17882347106933594 1.9356861114501953 0.09254837036132812 1.9215679168701172 0.0031366348266601562 1.9215679168701172 C-0.17255020141601562 1.9215679168701172 -0.31372642517089844 2.0047054290771484 -0.363922119140625 2.136469841003418 C-0.3952951431274414 2.2164697647094727 -0.4015693664550781 2.2650976181030273 -0.4015693664550781 2.4909791946411133 L-0.4015693664550781 3.667449951171875 C-0.4015693664550781 3.872941017150879 -0.40784358978271484 4.0 -0.42353057861328125 4.141176223754883 L-9.5367431640625e-07 4.235293865203857" fill="black" fill-opacity="1.0" filling="0"/>
<path animation_id="7" d="M-9.5367431640625e-07 4.235293865203857 L-0.01882457733154297 4.235293865203857 C-0.30588340759277344 4.235293865203857 -0.4031381607055664 4.183529376983643 -0.4031381607055664 3.995293617248535 C-0.4031381607055664 3.8713722229003906 -0.3262748718261719 3.7898035049438477 -0.2211771011352539 3.7898035049438477 C-0.14431476593017578 3.7898035049438477 -0.06745147705078125 3.8305883407592773 -0.006275177001953125 3.898038864135742 L-9.5367431640625e-07 4.235293865203857 M-0.8094120025634766 4.934901714324951 C-0.7074518203735352 4.999215602874756 -0.6650991439819336 5.021176338195801 -0.5537261962890625 5.063529014587402 C-0.40000057220458984 5.127842426300049 -0.26666736602783203 5.156078338623047 -0.12235355377197266 5.156078338623047 C0.1427440643310547 5.156078338623047 0.3247051239013672 5.057254314422607 0.3858814239501953 4.881568431854248 C0.40784263610839844 4.817254543304443 0.41411781311035156 4.767058372497559 0.41411781311035156 4.597646713256836 L0.4047050476074219 4.067450523376465 L0.4047050476074219 4.039215087890625 C0.4047050476074219 3.8698034286499023 0.4329404830932617 3.8054895401000977 0.5521564483642578 3.716078758239746 L0.3325481414794922 3.4650983810424805 C0.2368612289428711 3.5058822631835938 0.1505870819091797 3.576470375061035 0.11137104034423828 3.6564693450927734 C0.053333282470703125 3.6015682220458984 0.04705810546875 3.5952939987182617 0.01568603515625 3.5733327865600586 C-0.06117725372314453 3.518430709838867 -0.17255020141601562 3.487057685852051 -0.3011770248413086 3.487057685852051 C-0.6525497436523438 3.487057685852051 -0.8423538208007812 3.665882110595703 -0.8423538208007812 3.979607582092285 C-0.8423538208007812 4.349803447723389 -0.5866680145263672 4.5207839012146 -0.08470726013183594 4.5207839012146 C-0.05333423614501953 4.5207839012146 -0.03607940673828125 4.5207839012146 0.007842063903808594 4.517646789550781 L0.007842063903808594 4.581960678100586 C0.007842063903808594 4.757646560668945 -0.02666759490966797 4.815685749053955 -0.17725563049316406 4.815685749053955 C-0.30902099609375 4.815685749053955 -0.46431446075439453 4.75137186050415 -0.6321573257446289 4.636862277984619 L-0.8094120025634766 4.934901714324951 L-0.8094120025634766 4.934901714324951" fill="black" fill-opacity="1.0" filling="0"/>
<path animation_id="8" d="M-9.5367431640625e-07 4.235293865203857 C0.018822669982910156 4.298038959503174 -0.012549400329589844 4.327842712402344 -0.04549121856689453 4.359215259552002 C-0.039216041564941406 4.3937249183654785 -0.04862785339355469 4.4188232421875 -0.06117725372314453 4.442352771759033 C-0.023530006408691406 4.511372089385986 0.08156776428222656 4.486274242401123 0.1254892349243164 4.547450542449951 C0.17568588256835938 4.4988226890563965 0.2619600296020508 4.523921012878418 0.33725452423095703 4.4988226890563965 C0.3874502182006836 4.4831366539001465 0.42352867126464844 4.44862699508667 0.47686290740966797 4.443921089172363 C0.5035285949707031 4.414117336273193 0.46901893615722656 4.39058780670166 0.4658823013305664 4.345097541809082 C0.5301952362060547 4.279214859008789 0.5176467895507812 4.1474504470825195 0.6478424072265625 4.1333327293396 C0.6635284423828125 4.10352897644043 0.6760778427124023 4.07372522354126 0.6917638778686523 4.04548978805542 C0.4501953125 4.112940788269043 0.2509794235229492 4.159999847412109 -0.006275177001953125 4.214901924133301 L-9.5367431640625e-07 4.235293865203857 M-2.0141191482543945 4.503529071807861 C-2.169412612915039 4.514509201049805 -2.326274871826172 4.523921012878418 -2.4847068786621094 4.530195236206055 C-2.4800004959106445 4.533332824707031 -2.4941186904907227 4.531764030456543 -2.4847068786621094 4.530195236206055 C-2.483138084411621 4.5568623542785645 -2.473726272583008 4.575685977935791 -2.4878435134887695 4.588234901428223 C-2.5113725662231445 4.610195636749268 -2.549020767211914 4.618038654327393 -2.564706802368164 4.646274089813232 C-2.556863784790039 4.669803619384766 -2.531765937805176 4.710587501525879 -2.5176477432250977 4.727842807769775 C-2.473726272583008 4.790587902069092 -2.508236885070801 4.787450790405273 -2.490981101989746 4.82196044921875 C-2.467452049255371 4.873725414276123 -2.440784454345703 4.920783996582031 -2.4156875610351562 5.008626937866211 C-2.4031381607055664 5.058823108673096 -2.4188241958618164 5.057254314422607 -2.392157554626465 5.069803714752197 C-2.3200016021728516 5.085489749908447 -2.2400007247924805 5.119999408721924 -2.169412612915039 5.121568202972412 C-2.169412612915039 5.057254314422607 -2.1505889892578125 4.931764125823975 -2.133334159851074 4.86745023727417 C-2.117648124694824 4.859607219696045 -2.0988245010375977 4.853332996368408 -2.092550277709961 4.836077690124512 C-2.078432083129883 4.771764278411865 -2.0721569061279297 4.785881996154785 -2.047060012817383 4.723136901855469 C-2.0282363891601562 4.679214954376221 -2.003138542175293 4.569411277770996 -2.0141191482543945 4.503529071807861 M-3.360001564025879 4.682352542877197 C-3.4101972579956055 4.6917643547058105 -3.416471481323242 4.884705543518066 -3.4023542404174805 4.920783996582031 C-3.170196533203125 4.897254467010498 -2.8894128799438477 4.970979690551758 -2.646275520324707 5.024312973022461 C-2.6572561264038086 4.974117279052734 -2.6776485443115234 4.947450637817383 -2.6933345794677734 4.900391578674316 C-2.7168636322021484 4.826666355133057 -2.71529483795166 4.734117031097412 -2.74039363861084 4.682352542877197 C-2.7592172622680664 4.643136978149414 -2.8094120025634766 4.625881671905518 -2.7984323501586914 4.580391883850098 L-2.7623538970947266 4.539607524871826 C-2.894118309020996 4.5427446365356445 -3.025883674621582 4.544313430786133 -3.1576480865478516 4.545881748199463 L-3.207843780517578 4.545881748199463 C-3.1905899047851562 4.563136577606201 -3.1905899047851562 4.596077919006348 -3.2015695571899414 4.616469860076904 C-3.2219619750976562 4.6556854248046875 -3.3207855224609375 4.665097713470459 -3.353726387023926 4.6839213371276855 L-3.360001564025879 4.682352542877197 L-3.360001564025879 4.682352542877197 M-3.92156982421875 4.892548561096191 L-3.935688018798828 4.845489501953125 C-3.9498043060302734 4.799999713897705 -4.003137588500977 4.630588054656982 -4.007844924926758 4.52235221862793 C-4.00941276550293 4.511372089385986 -4.007844924926758 4.530195236206055 -4.007844924926758 4.52235221862793 C-4.153726577758789 4.514509201049805 -4.298040390014648 4.50509786605835 -4.440784454345703 4.494117259979248 C-4.501962661743164 4.4988226890563965 -4.556863784790039 4.500391483306885 -4.586668014526367 4.5568623542785645 C-4.591373443603516 4.577254295349121 -4.599216461181641 4.613333225250244 -4.564706802368164 4.6760783195495605 C-4.486274719238281 4.82352876663208 -4.398431777954102 4.890979766845703 -4.246274948120117 4.964705467224121 C-4.224315643310547 4.975686073303223 -4.202354431152344 4.985097408294678 -4.178825378417969 4.994509220123291 C-4.130197525024414 5.022744655609131 -4.095685958862305 5.036862373352051 -4.026668548583984 5.022744655609131 C-3.9403934478759766 4.991372108459473 -3.86196231842041 4.978823184967041 -3.92156982421875 4.892548561096191 M-6.461177825927734 4.188234806060791 C-6.542745590209961 4.202352523803711 -6.650981903076172 4.180391788482666 -6.688629150390625 4.254117488861084 C-6.69647216796875 4.561567783355713 -6.525491714477539 4.734117031097412 -6.274511337280273 4.847058296203613 C-6.1270599365234375 4.7215681076049805 -6.020393371582031 4.489411354064941 -5.974903106689453 4.288626670837402 C-6.139608383178711 4.258822917938232 -6.301176071166992 4.224313259124756 -6.461177825927734 4.188234806060791 M-1.6564712524414062 4.472156524658203 C-1.6737260818481445 4.473725318908691 -1.689413070678711 4.4752936363220215 -1.7066669464111328 4.47686243057251 C-1.7176475524902344 4.52235221862793 -1.7615690231323242 4.559999942779541 -1.802353858947754 4.567842960357666 C-1.8149032592773438 4.607058525085449 -1.8603925704956055 4.8862738609313965 -1.8603925704956055 4.9364705085754395 C-1.8603925704956055 5.0117645263671875 -1.9027462005615234 5.024312973022461 -1.9309806823730469 5.178039073944092 C-1.6784324645996094 5.245489597320557 -1.4588241577148438 5.3709797859191895 -1.317647933959961 5.57019567489624 C-1.2250986099243164 5.70039176940918 -1.1654911041259766 5.861960411071777 -1.154510498046875 6.05803918838501 C-1.1356878280639648 6.382744789123535 -1.201568603515625 6.629019260406494 -1.3505887985229492 6.782744884490967 C-1.3615694046020508 6.793725490570068 -1.4101972579956055 6.85019588470459 -1.515294075012207 6.858038902282715 C-1.5215692520141602 6.858038902282715 -1.5278444290161133 6.856470584869385 -1.53411865234375 6.853332996368408 C-1.5482358932495117 6.845489978790283 -1.589019775390625 6.80784273147583 -1.6000003814697266 6.804705619812012 C-1.7192163467407227 6.804705619812012 -1.8180408477783203 6.771764755249023 -1.8352947235107422 6.658823013305664 C-1.8368635177612305 6.657254695892334 -1.8368635177612305 6.655685901641846 -1.8352947235107422 6.654117584228516 L-1.8352947235107422 6.649411201477051 C-1.8117656707763672 6.572548866271973 -1.7113733291625977 6.577254295349121 -1.6125497817993164 6.586666107177734 C-1.5701961517333984 6.559999942779541 -1.5545101165771484 6.509803771972656 -1.5137262344360352 6.478431224822998 C-1.4980401992797852 6.465882301330566 -1.476078987121582 6.464313507080078 -1.4588241577148438 6.453332901000977 C-1.4588241577148438 6.453332901000977 -1.4572563171386719 6.451764106750488 -1.4556865692138672 6.451764106750488 C-1.4007844924926758 6.415686130523682 -1.3380393981933594 6.34666633605957 -1.347452163696289 6.265097618103027 C-1.3537263870239258 6.2054901123046875 -1.3537263870239258 6.141176223754883 -1.367844581604004 6.078431129455566 C-1.3929414749145508 5.97333288192749 -1.4525489807128906 5.876078128814697 -1.5294122695922852 5.805490016937256 C-1.6203927993774414 5.7207841873168945 -1.736471176147461 5.675293445587158 -1.8447065353393555 5.695685863494873 C-1.9137258529663086 5.709803581237793 -1.9717655181884766 5.756862163543701 -2.0282363891601562 5.794509410858154 C-2.127058982849121 5.858823299407959 -2.2258834838867188 5.912156581878662 -2.31215763092041 5.992156505584717 C-2.3498048782348633 6.026666641235352 -2.392157554626465 6.0564703941345215 -2.4360790252685547 6.081568241119385 C-2.527059555053711 6.136470317840576 -2.6274518966674805 6.1772541999816895 -2.72784423828125 6.210195541381836 C-2.789020538330078 6.230587959289551 -2.8501968383789062 6.247842788696289 -2.9113731384277344 6.263528823852539 C-3.002354621887207 6.287058353424072 -3.0964717864990234 6.323136806488037 -3.185882568359375 6.335685729980469 C-3.272157669067383 6.348235130310059 -3.366274833679199 6.345097541809082 -3.4541187286376953 6.332549095153809 C-3.4713735580444336 6.329411506652832 -3.488628387451172 6.327842712402344 -3.50588321685791 6.324705600738525 C-3.5701961517333984 6.323136806488037 -3.629805564880371 6.307450771331787 -3.6878433227539062 6.283921241760254 C-3.706666946411133 6.276078224182129 -3.725491523742676 6.268235206604004 -3.7443151473999023 6.258823394775391 C-3.766275405883789 6.246274471282959 -3.788236618041992 6.235293865203857 -3.8101978302001953 6.222744941711426 C-3.995295524597168 6.127058506011963 -4.1741180419921875 6.007843017578125 -4.28392219543457 5.8258819580078125 C-4.29960823059082 5.805490016937256 -4.316862106323242 5.785097599029541 -4.332550048828125 5.763136863708496 L-4.370197296142578 5.711372375488281 C-4.406276702880859 5.659607410430908 -4.442352294921875 5.604705333709717 -4.478431701660156 5.548234939575195 C-4.594511032104492 5.367843151092529 -4.721569061279297 5.203136920928955 -4.804708480834961 5.014901638031006 C-4.883138656616211 4.839215278625488 -4.887844085693359 4.600783824920654 -4.787450790405273 4.459607124328613 C-5.033727645874023 4.434509754180908 -5.276865005493164 4.40313720703125 -5.513727188110352 4.365489482879639 C-5.552942276000977 4.395293712615967 -5.614118576049805 4.3858819007873535 -5.670589447021484 4.359215259552002 C-5.701961517333984 4.3780388832092285 -5.727060317993164 4.40313720703125 -5.749021530151367 4.434509754180908 C-5.89019775390625 4.636862277984619 -5.863531112670898 5.065097332000732 -6.065881729125977 5.187450885772705 C-6.054903030395508 5.273725509643555 -6.020393371582031 5.3992156982421875 -6.021963119506836 5.52470588684082 C-6.023530960083008 5.612548351287842 -6.1113739013671875 5.766274452209473 -5.985883712768555 5.788234710693359 C-5.967060089111328 5.731764316558838 -5.985883712768555 5.701960563659668 -5.985883712768555 5.659607410430908 C-5.885490417480469 5.678431034088135 -5.962352752685547 5.631371974945068 -5.957649230957031 5.590587615966797 C-5.918434143066406 5.560783863067627 -5.857255935668945 5.592156410217285 -5.87451171875 5.658039093017578 C-5.841569900512695 5.70039176940918 -5.924705505371094 5.794509410858154 -5.885490417480469 5.858823299407959 C-5.920001983642578 5.8854899406433105 -5.99372673034668 5.857254505157471 -6.050195693969727 5.854117393493652 C-6.216472625732422 6.050195693969727 -6.07215690612793 6.393725395202637 -5.814901351928711 6.274509429931641 C-5.783529281616211 6.33098030090332 -5.6925506591796875 6.343528747558594 -5.687843322753906 6.421960353851318 C-5.6925506591796875 6.451764106750488 -5.695686340332031 6.481568336486816 -5.7003936767578125 6.512940883636475 C-5.6847076416015625 6.567842960357666 -5.717647552490234 6.575685977935791 -5.7317657470703125 6.600783824920654 C-5.876079559326172 6.622745037078857 -6.028236389160156 6.635293960571289 -6.08784294128418 6.771764755249023 C-6.172550201416016 6.74823522567749 -6.257255554199219 6.7137250900268555 -6.32470703125 6.756078243255615 C-6.348236083984375 6.752940654754639 -6.373334884643555 6.74980354309082 -6.39686393737793 6.745097637176514 C-6.520784378051758 6.660391807556152 -6.635295867919922 6.569411277770996 -6.704315185546875 6.443921089172363 C-6.661960601806641 6.450195789337158 -6.65568733215332 6.4831366539001465 -6.599216461181641 6.47686243057251 C-6.611764907836914 6.426666736602783 -6.661960601806641 6.406274318695068 -6.674510955810547 6.356078147888184 C-6.641571044921875 6.357646465301514 -6.64000129699707 6.384313583374023 -6.605491638183594 6.384313583374023 C-6.611764907836914 6.340392112731934 -6.658824920654297 6.327842712402344 -6.66510009765625 6.283921241760254 C-6.646274566650391 6.287058353424072 -6.629020690917969 6.2886271476745605 -6.610197067260742 6.291764259338379 C-6.616472244262695 6.263528823852539 -6.630588531494141 6.243136882781982 -6.635295867919922 6.214901924133301 C-6.611764907836914 6.163136959075928 -6.614902496337891 6.260391712188721 -6.566274642944336 6.243136882781982 C-6.578824996948242 6.167842864990234 -6.596078872680664 6.192940711975098 -6.550588607788086 6.134901523590088 C-6.746667861938477 5.683136463165283 -6.864315032958984 5.689411640167236 -7.002353668212891 4.90980339050293 C-7.116863250732422 4.52235221862793 -8.105098724365234 4.539607524871826 -8.475296020507812 4.773332595825195 C-8.14902114868164 4.39058780670166 -7.601570129394531 4.302744388580322 -6.911373138427734 4.407842636108398 C-6.930198669433594 4.293333053588867 -6.927059173583984 4.175685882568359 -6.9019622802734375 4.078431129455566 C-7.883922576904297 3.8117637634277344 -8.730981826782227 3.439999580383301 -9.383529663085938 2.988234519958496 C-7.775686264038086 3.664313316345215 -6.1819610595703125 4.214901924133301 -3.1231374740600586 4.2133331298828125 C-0.4188241958618164 4.210195541381836 1.4509801864624023 3.6690196990966797 3.0415687561035156 3.030588150024414 C2.4721555709838867 3.4070587158203125 1.7505874633789062 3.7286272048950195 0.9254894256591797 3.978038787841797 C0.927058219909668 3.9890193939208984 0.9223518371582031 4.051764011383057 0.8862733840942383 4.062744617462158 C0.8705873489379883 4.094117164611816 0.8674497604370117 4.131763935089111 0.8392152786254883 4.1552934646606445 C0.8407831192016602 4.255685806274414 0.8109798431396484 4.396862030029297 0.8784303665161133 4.481568336486816 C0.8909797668457031 4.494117259979248 0.9145088195800781 4.4909796714782715 0.9364700317382812 4.4909796714782715 C0.9443130493164062 4.479999542236328 0.9254894256591797 4.464313507080078 0.927058219909668 4.443921089172363 C0.966273307800293 4.389019012451172 0.9850969314575195 4.3199992179870605 1.047842025756836 4.277647018432617 C1.0635290145874023 4.232156276702881 1.0227441787719727 4.210195541381836 0.9913721084594727 4.183529376983643 C0.9772539138793945 4.172548770904541 0.9458818435668945 4.156862258911133 0.942744255065918 4.149019241333008 C0.934901237487793 4.136470317840576 0.9521560668945312 4.142744541168213 0.9490184783935547 4.130195617675781 C0.9474506378173828 4.125489711761475 0.9380388259887695 4.125489711761475 0.9380388259887695 4.119215488433838 C0.9380388259887695 4.105097770690918 0.9599990844726562 4.097254753112793 0.942744255065918 4.07372522354126 C1.0149011611938477 4.036077976226807 1.0996065139770508 4.037646293640137 1.1482343673706055 4.08784294128418 C1.1639213562011719 4.105097770690918 1.1764698028564453 4.136470317840576 1.1968622207641602 4.1615681648254395 C1.2172536849975586 4.186666011810303 1.2454900741577148 4.203921318054199 1.2517642974853516 4.2211761474609375 C1.2752933502197266 4.287058353424072 1.27215576171875 4.4909796714782715 1.2360773086547852 4.531764030456543 C1.2298040390014648 4.5725483894348145 1.2360773086547852 4.578823089599609 1.2141170501708984 4.618038654327393 C1.2470579147338867 4.600783824920654 1.353724479675293 4.627450466156006 1.433725357055664 4.693333148956299 C1.5043134689331055 4.682352542877197 1.5513725280761719 4.701176166534424 1.5921564102172852 4.730979919433594 C1.6407833099365234 4.7215681076049805 1.6815681457519531 4.702744483947754 1.7160778045654297 4.7137250900268555 C1.733332633972168 4.719999313354492 1.733332633972168 4.737254619598389 1.7458810806274414 4.746666431427002 C1.770979881286621 4.76548957824707 1.7945098876953125 4.810980319976807 1.8007831573486328 4.828234672546387 C1.7694110870361328 4.85019588470459 1.7772541046142578 4.908234596252441 1.8007831573486328 4.942744731903076 C1.830587387084961 4.934901714324951 1.8258819580078125 4.906666278839111 1.8415679931640625 4.890979766845703 C1.8980388641357422 4.934901714324951 1.896470069885254 5.0274505615234375 1.8290185928344727 5.055685520172119 C1.8196067810058594 5.090195655822754 1.8321561813354492 5.129411220550537 1.8478422164916992 5.165489673614502 C1.763136863708496 5.146666526794434 1.731764793395996 5.054117202758789 1.6172542572021484 5.076077938079834 C1.6878423690795898 5.193725109100342 1.7819595336914062 5.278430938720703 1.8525476455688477 5.396078109741211 C1.7223520278930664 5.338038444519043 1.636077880859375 5.218823432922363 1.5215682983398438 5.13882303237915 C1.501175880432129 5.146666526794434 1.5074501037597656 5.171764373779297 1.5043134689331055 5.190587520599365 C1.4901952743530273 5.19529390335083 1.485489845275879 5.187450885772705 1.4760770797729492 5.187450885772705 C1.4823522567749023 5.305098056793213 1.5231361389160156 5.411764144897461 1.5654897689819336 5.507450580596924 C1.4870576858520508 5.455685615539551 1.433725357055664 5.369410991668701 1.4007835388183594 5.256470203399658 C1.3647050857543945 5.248627185821533 1.369410514831543 5.279999732971191 1.345881462097168 5.289411544799805 C1.3270578384399414 5.294117450714111 1.3239212036132812 5.276862144470215 1.3066654205322266 5.279999732971191 C1.2925491333007812 5.28470516204834 1.2894115447998047 5.295685768127441 1.2784309387207031 5.303529262542725 C1.2392148971557617 5.300391674041748 1.2188234329223633 5.270587921142578 1.1670589447021484 5.286273956298828 C1.1576461791992188 5.2423529624938965 1.1152935028076172 5.2423529624938965 1.0807838439941406 5.232940673828125 C1.069803237915039 5.190587520599365 1.0415687561035156 5.171764373779297 1.008626937866211 5.159214973449707 C0.9254894256591797 5.163921356201172 0.8721561431884766 5.232940673828125 0.8015680313110352 5.272156715393066 C0.7278432846069336 5.312941074371338 0.6164693832397461 5.353724956512451 0.5019598007202148 5.369410991668701 C0.3388223648071289 5.391372203826904 0.1819601058959961 5.336470603942871 0.08156776428222656 5.267450332641602 C0.045490264892578125 5.2423529624938965 0.023529052734375 5.207842826843262 -0.01725482940673828 5.178039073944092 C-0.07058906555175781 5.13882303237915 -0.14117717742919922 5.112156391143799 -0.2054901123046875 5.066666126251221 C-0.3231372833251953 4.983529090881348 -0.4345111846923828 4.900391578674316 -0.5945110321044922 4.86588191986084 C-0.6745109558105469 4.848627090454102 -0.7592172622680664 4.826666355133057 -0.8360786437988281 4.836077690124512 C-0.8862752914428711 4.842352867126465 -0.9458827972412109 4.847058296203613 -1.0556869506835938 4.86745023727417 C-0.9756870269775391 4.806273937225342 -0.887843132019043 4.749803066253662 -0.7717657089233398 4.716862678527832 C-0.5647068023681641 4.657254219055176 -0.3388242721557617 4.668234825134277 -0.13019657135009766 4.633725166320801 C-0.14745235443115234 4.603920936584473 -0.2054901123046875 4.599215507507324 -0.2227458953857422 4.552156448364258 C-0.2290201187133789 4.531764030456543 -0.21960830688476562 4.4988226890563965 -0.22588348388671875 4.469018936157227 C-0.2368631362915039 4.412548542022705 -0.25568675994873047 4.276078224182129 -0.24784374237060547 4.263528823852539 C-0.6996078491210938 4.354509353637695 -1.1356878280639648 4.414117336273193 -1.6219615936279297 4.46274471282959 L-1.6564712524414062 4.472156524658203 L-1.6564712524414062 4.472156524658203" fill="black" fill-opacity="1.0" filling="0"/>
<path animation_id="9" d="M-9.5367431640625e-07 4.235293865203857 L-0.05176544189453125 4.801568508148193 L-0.24156951904296875 4.235293865203857 L-0.4015693664550781 4.235293865203857 L-0.5866680145263672 4.80784273147583 L-0.638432502746582 4.235293865203857 L-0.8266677856445312 4.235293865203857 L-0.735687255859375 5.127842426300049 L-0.7325496673583984 5.156078338623047 L-0.5019617080688477 5.156078338623047 L-0.33568763732910156 4.636862277984619 C-0.32941246032714844 4.618038654327393 -0.3231372833251953 4.594509124755859 -0.316864013671875 4.570980072021484 C-0.3105888366699219 4.592940330505371 -0.30588340759277344 4.613333225250244 -0.2996082305908203 4.630588054656982 L-0.1349020004272461 5.154509544372559 L0.10509777069091797 5.154509544372559 L0.19294071197509766 4.235293865203857 L-9.5367431640625e-07 4.235293865203857" fill="black" fill-opacity="1.0" filling="0"/>
<path animation_id="10" d="M-9.5367431640625e-07 4.235293865203857 L0.09097957611083984 5.127842426300049 L0.0941171646118164 5.156078338623047 L0.3247051239013672 5.156078338623047 L0.4909791946411133 4.636862277984619 C0.4972543716430664 4.618038654327393 0.5035285949707031 4.594509124755859 0.5098028182983398 4.5725483894348145 C0.516077995300293 4.594509124755859 0.5207834243774414 4.614901542663574 0.5270576477050781 4.6321563720703125 L0.6901950836181641 5.156078338623047 L0.9301948547363281 5.156078338623047 L1.0196075439453125 4.235293865203857 L0.8266658782958984 4.235293865203857 L0.7749013900756836 4.801568508148193 L0.5850973129272461 4.235293865203857 L0.4250965118408203 4.235293865203857 L0.23843097686767578 4.80784273147583 L0.1882343292236328 4.235293865203857 L-9.5367431640625e-07 4.235293865203857" fill="black" fill-opacity="1.0" filling="0"/>
<path animation_id="11" d="M-9.5367431640625e-07 4.235293865203857 C-0.025098800659179688 4.287058353424072 -0.03294181823730469 4.327842712402344 -0.03294181823730469 4.429803371429443 L-0.03294181823730469 5.007058620452881 L0.16156768798828125 5.007058620452881 L0.16156768798828125 4.461175918579102 C0.16156768798828125 4.396862030029297 0.1662731170654297 4.343528747558594 0.17098045349121094 4.327842712402344 C0.17882347106933594 4.3043131828308105 0.1960773468017578 4.285490036010742 0.2211751937866211 4.271371841430664 C0.24784183502197266 4.257254123687744 0.2839202880859375 4.247842311859131 0.32627391815185547 4.247842311859131 C0.39843082427978516 4.247842311859131 0.4407835006713867 4.266666412353516 0.4596071243286133 4.293333053588867 C0.4721555709838867 4.310587406158447 0.47843074798583984 4.323136806488037 0.4815683364868164 4.3419599533081055 C0.48627376556396484 4.36078405380249 0.4878416061401367 4.3858819007873535 0.4878416061401367 4.426666259765625 L0.4878416061401367 5.007058620452881 L0.6823520660400391 5.007058620452881 L0.6823520660400391 4.429803371429443 C0.6823520660400391 4.357646465301514 0.6792144775390625 4.307450771331787 0.6650981903076172 4.265097618103027 C0.6525478363037109 4.222744941711426 0.6274499893188477 4.189803600311279 0.5945091247558594 4.158431053161621 C0.5270576477050781 4.095685958862305 0.43921470642089844 4.070587635040283 0.3215675354003906 4.070587635040283 L0.3168621063232422 4.070587635040283 C0.1411762237548828 4.070587635040283 0.04235267639160156 4.1474504470825195 -9.5367431640625e-07 4.235293865203857" fill="black" fill-opacity="1.0" filling="0"/>
<path animation_id="12" d="M-9.5367431640625e-07 4.235293865203857 L-0.2854909896850586 4.7058820724487305 C-0.3027458190917969 4.7356858253479 -0.32156944274902344 4.768627166748047 -0.3388242721557617 4.801568508148193 C-0.33725547790527344 4.773332595825195 -0.33725547790527344 4.741960048675537 -0.33725547790527344 4.707450866699219 L-0.32784461975097656 4.235293865203857 L-0.5254907608032227 4.235293865203857 L-0.5254907608032227 5.156078338623047 L-0.32470703125 5.156078338623047 L-0.03764820098876953 4.674509525299072 C-0.023530006408691406 4.650979995727539 -0.009411811828613281 4.627450466156006 0.0031366348266601562 4.603920936584473 C0.001567840576171875 4.6321563720703125 -9.5367431640625e-07 4.661960601806641 -9.5367431640625e-07 4.6917643547058105 L-0.004706382751464844 5.156078338623047 L0.18666648864746094 5.156078338623047 L0.18666648864746094 4.235293865203857 L-9.5367431640625e-07 4.235293865203857" fill="black" fill-opacity="1.0" filling="0"/>
<path animation_id="13" d="M-9.5367431640625e-07 4.235293865203857 L-9.5367431640625e-07 5.157646656036377 L0.19450950622558594 5.157646656036377 L0.19450950622558594 4.235293865203857 L-9.5367431640625e-07 4.235293865203857" fill="black" fill-opacity="1.0" filling="0"/>
<path animation_id="14" d="M-9.5367431640625e-07 4.235293865203857 L-9.5367431640625e-07 4.983529090881348 L-0.2541189193725586 4.983529090881348 L-0.2541189193725586 5.156078338623047 L0.46901893615722656 5.156078338623047 L0.44548988342285156 4.983529090881348 L0.19137191772460938 4.983529090881348 L0.19137191772460938 4.235293865203857 L-9.5367431640625e-07 4.235293865203857" fill="black" fill-opacity="1.0" filling="0"/>
<path animation_id="15" d="M-9.5367431640625e-07 4.235293865203857 L-9.5367431640625e-07 5.157646656036377 L0.19450950622558594 5.157646656036377 L0.19450950622558594 4.235293865203857 L-9.5367431640625e-07 4.235293865203857" fill="black" fill-opacity="1.0" filling="0"/>
<path animation_id="16" d="M-9.5367431640625e-07 4.235293865203857 L-9.5367431640625e-07 5.15294075012207 L0.6023530960083008 5.15294075012207 L0.5741167068481445 4.980391979217529 L0.19450950622558594 4.980391979217529 L0.19450950622558594 4.799999713897705 L0.516077995300293 4.799999713897705 L0.516077995300293 4.627450466156006 L0.1960773468017578 4.627450466156006 L0.1960773468017578 4.412548542022705 L0.6117639541625977 4.412548542022705 L0.6117639541625977 4.235293865203857 L-9.5367431640625e-07 4.235293865203857" fill="black" fill-opacity="1.0" filling="0"/>
<path animation_id="17" d="M-9.5367431640625e-07 4.235293865203857 L-0.02666759490966797 4.249411106109619 L0.05646991729736328 4.407842636108398 L0.08470535278320312 4.392156600952148 C0.17098045349121094 4.345097541809082 0.2509794235229492 4.323136806488037 0.3403921127319336 4.323136806488037 C0.39843082427978516 4.323136806488037 0.43137168884277344 4.330979824066162 0.46117591857910156 4.349803447723389 L0.46274471282958984 4.349803447723389 C0.4988222122192383 4.373332500457764 0.5145092010498047 4.398430824279785 0.5145092010498047 4.429803371429443 C0.5145092010498047 4.456470012664795 0.5066661834716797 4.472156524658203 0.48627376556396484 4.4909796714782715 C0.4658823013305664 4.509803295135498 0.4282341003417969 4.5270586013793945 0.3717641830444336 4.541175842285156 L0.2447052001953125 4.574117183685303 C0.11137104034423828 4.610195636749268 0.017253875732421875 4.709019184112549 0.017253875732421875 4.829803466796875 C0.017253875732421875 4.912940979003906 0.054901123046875 4.986666202545166 0.1176462173461914 5.0352935791015625 C0.1803913116455078 5.085489749908447 0.2666664123535156 5.112156391143799 0.36548900604248047 5.112156391143799 C0.4815683364868164 5.112156391143799 0.6023530960083008 5.080783843994141 0.6839208602905273 5.022744655609131 L0.7074499130249023 5.005489826202393 L0.6164693832397461 4.858038902282715 L0.5898027420043945 4.873725414276123 C0.5176467895507812 4.917646408081055 0.44548988342285156 4.9396071434021 0.3701953887939453 4.9396071434021 C0.31999969482421875 4.9396071434021 0.27921485900878906 4.928627014160156 0.25568580627441406 4.911372184753418 C0.23058795928955078 4.89411735534668 0.21960735321044922 4.875293731689453 0.21960735321044922 4.847058296203613 C0.21960735321044922 4.820391654968262 0.23372554779052734 4.798430919647217 0.27921485900878906 4.779607772827148 C0.3011760711669922 4.768627166748047 0.30274391174316406 4.767058372497559 0.34509754180908203 4.757646560668945 L0.46117591857910156 4.726274013519287 C0.531764030456543 4.709019184112549 0.6023530960083008 4.674509525299072 0.6478424072265625 4.630588054656982 C0.6964702606201172 4.586666107177734 0.7215681076049805 4.5207839012146 0.7215681076049805 4.454901695251465 C0.7215681076049805 4.352940559387207 0.6619606018066406 4.258822917938232 0.5662736892700195 4.205489635467529 C0.5019598007202148 4.1694111824035645 0.42196083068847656 4.152156352996826 0.3325481414794922 4.152156352996826 C0.21490192413330078 4.152156352996826 0.09882259368896484 4.181960582733154 -9.5367431640625e-07 4.235293865203857" fill="black" fill-opacity="1.0" filling="0"/>
<path animation_id="18" d="M-9.5367431640625e-07 4.235293865203857 C-0.07843208312988281 4.3184309005737305 -0.12392234802246094 4.43607759475708 -0.12392234802246094 4.569411277770996 C-0.12392234802246094 4.704313278198242 -0.07529449462890625 4.825097560882568 0.0047054290771484375 4.912940979003906 C0.08470535278320312 4.999215602874756 0.1976461410522461 5.052548885345459 0.3247051239013672 5.052548885345459 C0.4188232421875 5.052548885345459 0.516077995300293 5.0274505615234375 0.5850973129272461 4.977254390716553 L0.5662736892700195 4.9521565437316895 L0.5850973129272461 4.977254390716553 L0.6101961135864258 4.958431243896484 L0.5066661834716797 4.820391654968262 L0.4815683364868164 4.836077690124512 C0.43137168884277344 4.86745023727417 0.38431262969970703 4.881568431854248 0.32627391815185547 4.881568431854248 C0.23372554779052734 4.881568431854248 0.1568622589111328 4.836077690124512 0.1176462173461914 4.754509449005127 C0.09725475311279297 4.710587501525879 0.0862741470336914 4.652548789978027 0.0862741470336914 4.5647053718566895 C0.08784198760986328 4.44862699508667 0.10509777069091797 4.401568412780762 0.15529346466064453 4.345097541809082 C0.20235252380371094 4.294901371002197 0.2603912353515625 4.269803524017334 0.33411693572998047 4.269803524017334 C0.3874502182006836 4.269803524017334 0.442352294921875 4.285490036010742 0.48470592498779297 4.310587406158447 L0.4878416061401367 4.310587406158447 C0.4909791946411133 4.3121562004089355 0.4972543716430664 4.315293788909912 0.5035285949707031 4.3199992179870605 L0.5270576477050781 4.3341169357299805 L0.6274499893188477 4.202352523803711 L0.6023530960083008 4.183529376983643 C0.531764030456543 4.130195617675781 0.426666259765625 4.10352897644043 0.3168621063232422 4.10352897644043 C0.1898031234741211 4.10352897644043 0.0784311294555664 4.152156352996826 -9.5367431640625e-07 4.235293865203857" fill="black" fill-opacity="1.0" filling="0"/>
<path animation_id="19" d="M-9.5367431640625e-07 4.235293865203857 C-0.07058906555175781 4.235293865203857 -0.13647174835205078 4.202352523803711 -0.16313838958740234 4.1615681648254395 C-0.1913738250732422 4.119215488433838 -0.2070598602294922 4.053332805633545 -0.2070598602294922 3.9482345581054688 C-0.2070598602294922 3.832156181335449 -0.18666744232177734 3.7427444458007812 -0.15372562408447266 3.6909799575805664 C-0.12862873077392578 3.6486263275146484 -0.07058906555175781 3.6188230514526367 0.017253875732421875 3.6188230514526367 C0.11294078826904297 3.620391845703125 0.16784286499023438 3.6533336639404297 0.1960773468017578 3.7207841873168945 C0.21803855895996094 3.7725486755371094 0.22431278228759766 3.816470146179199 0.22431278228759766 3.907449722290039 C0.22431278228759766 4.021960258483887 0.21176433563232422 4.08941125869751 0.18509674072265625 4.1396074295043945 C0.1490192413330078 4.208626747131348 0.09097957611083984 4.233725070953369 -9.5367431640625e-07 4.235293865203857 M0.0047054290771484375 4.404705047607422 C0.1505870819091797 4.404705047607422 0.2619600296020508 4.34666633605957 0.33725452423095703 4.255685806274414 C0.40627384185791016 4.174117088317871 0.43450927734375 4.065882205963135 0.43450927734375 3.9247055053710938 C0.43450927734375 3.777254104614258 0.410980224609375 3.679999351501465 0.3403921127319336 3.5952939987182617 C0.26352882385253906 3.4996070861816406 0.16313648223876953 3.454117774963379 0.018822669982910156 3.454117774963379 L0.014117240905761719 3.454117774963379 C-0.12078475952148438 3.452548027038574 -0.21647071838378906 3.4901952743530273 -0.2933340072631836 3.578038215637207 C-0.3780393600463867 3.67215633392334 -0.4172554016113281 3.7866668701171875 -0.41568660736083984 3.9325485229492188 C-0.41568660736083984 4.07529354095459 -0.37647151947021484 4.192940711975098 -0.30431461334228516 4.276078224182129 C-0.2305889129638672 4.359215259552002 -0.12235355377197266 4.404705047607422 0.0047054290771484375 4.404705047607422 L0.0047054290771484375 4.404705047607422" fill="black" fill-opacity="1.0" filling="0"/></svg>