<?xml version="1.0" encoding="iso-8859-1"?><svg height="200px" viewBox="0.0 0.0 24.0 24.0" width="200px" xmlns="http://www.w3.org/2000/svg"><path animation_id="0" d="M19.545358657836914 17.155370712280273 C17.75599479675293 19.2825870513916 15.078206062316895 20.633991241455078 12.075078010559082 20.633991241455078 C9.103232383728027 20.633991241455078 6.450469017028809 19.3076114654541 4.661105155944824 17.21793556213379 L2.5464019775390625 19.770593643188477 C4.930135726928711 22.329509735107422 8.327424049377441 23.93117904663086 12.093847274780273 23.93117904663086 C15.885296821594238 23.93117904663086 19.301355361938477 22.310741424560547 21.6788330078125 19.726797103881836 L19.545358657836914 17.155370712280273" fill="black" fill-opacity="1.0" filling="0"/>
<path animation_id="1" d="M19.545358657836914 17.155370712280273 C17.75599479675293 19.2825870513916 15.078206062316895 20.633991241455078 12.075078010559082 20.633991241455078 C9.103232383728027 20.633991241455078 6.450469017028809 19.3076114654541 4.661105155944824 17.21793556213379 L2.5464019775390625 19.770593643188477 C4.930135726928711 22.329509735107422 8.327424049377441 23.93117904663086 12.093847274780273 23.93117904663086 C15.885296821594238 23.93117904663086 19.301355361938477 22.310741424560547 21.6788330078125 19.726797103881836 L19.545358657836914 17.155370712280273" fill="black" fill-opacity="1.0" filling="0"/>
<path animation_id="2" d="M17.868614196777344 7.388946533203125 L17.868614196777344 18.71324348449707 C17.868614196777344 19.03858184814453 17.662147521972656 19.32638168334961 17.368091583251953 19.432743072509766 L12.112617492675781 21.472366333007812 L6.850886344909668 19.432743072509766 C6.56308650970459 19.32638168334961 6.350365161895752 19.03858184814453 6.350365161895752 18.71324348449707 L6.350365161895752 7.388946533203125 L17.868614196777344 7.388946533203125" fill="black" fill-opacity="1.0" filling="0"/>
<path animation_id="3" d="M17.868614196777344 7.388946533203125 L17.868614196777344 18.71324348449707 C17.868614196777344 19.03858184814453 17.662147521972656 19.32638168334961 17.368091583251953 19.432743072509766 L12.112617492675781 21.472366333007812 L6.850886344909668 19.432743072509766 C6.56308650970459 19.32638168334961 6.350365161895752 19.03858184814453 6.350365161895752 18.71324348449707 L6.350365161895752 7.388946533203125 L17.868614196777344 7.388946533203125 L17.868614196777344 7.388946533203125" fill="black" fill-opacity="1.0" filling="0"/>
<path animation_id="4" d="M6.631908416748047 16.12929916381836 L6.631908416748047 9.153285026550293 L17.593326568603516 9.153285026550293 L17.593326568603516 16.12929916381836 L6.631908416748047 16.12929916381836" fill="black" fill-opacity="1.0" filling="0"/>
<path animation_id="5" d="M17.593326568603516 15.478622436523438 C17.499479293823242 15.635035514831543 17.261730194091797 15.741397857666016 16.9864444732666 15.741397857666016 C16.711156845092773 15.741397857666016 16.467151641845703 15.635035514831543 16.37330436706543 15.478622436523438 C16.279457092285156 15.635035514831543 16.041709899902344 15.741397857666016 15.76016616821289 15.741397857666016 C15.484879493713379 15.741397857666016 15.247132301330566 15.635035514831543 15.153284072875977 15.478622436523438 C15.053180694580078 15.635035514831543 14.821688652038574 15.741397857666016 14.546401977539062 15.741397857666016 C14.264859199523926 15.741397857666016 14.033368110656738 15.635035514831543 13.939519882202148 15.478622436523438 C13.845672607421875 15.635035514831543 13.607924461364746 15.741397857666016 13.332637786865234 15.741397857666016 C13.057351112365723 15.741397857666016 12.819602966308594 15.635035514831543 12.72575569152832 15.478622436523438 C12.625651359558105 15.635035514831543 12.387904167175293 15.741397857666016 12.112617492675781 15.741397857666016 C11.837329864501953 15.741397857666016 11.59958267211914 15.635035514831543 11.499478340148926 15.478622436523438 C11.399374008178711 15.635035514831543 11.167882919311523 15.741397857666016 10.892597198486328 15.741397857666016 C10.6173095703125 15.741397857666016 10.379561424255371 15.635035514831543 10.279458045959473 15.478622436523438 C10.185609817504883 15.635035514831543 9.94786262512207 15.741397857666016 9.666318893432617 15.741397857666016 C9.391032218933105 15.741397857666016 9.153285026550293 15.635035514831543 9.059436798095703 15.478622436523438 C8.96558952331543 15.635035514831543 8.7278413772583 15.741397857666016 8.452554702758789 15.741397857666016 C8.171010971069336 15.741397857666016 7.939520359039307 15.635035514831543 7.839416027069092 15.478622436523438 L7.839416027069092 15.484879493713379 C7.74556827545166 15.641292572021484 7.5078206062316895 15.741397857666016 7.232533931732178 15.741397857666016 C6.950990676879883 15.741397857666016 6.719499588012695 15.635035514831543 6.6193952560424805 15.478622436523438 L6.6193952560424805 15.466110229492188 L6.625651836395264 18.550573348999023 C6.625651836395264 18.863399505615234 6.825860023498535 19.132429122924805 7.101147174835205 19.232532501220703 L12.112617492675781 21.17831039428711 L17.11783218383789 19.232532501220703 C17.393117904663086 19.12617301940918 17.593326568603516 18.863399505615234 17.593326568603516 18.550573348999023 L17.593326568603516 15.466110229492188 L17.593326568603516 15.478622436523438" fill="black" fill-opacity="1.0" filling="0"/>
<path animation_id="6" d="M17.593326568603516 15.153284072875977 C17.499479293823242 15.309697151184082 17.261730194091797 15.416057586669922 16.9864444732666 15.416057586669922 C16.711156845092773 15.416057586669922 16.467151641845703 15.303441047668457 16.37330436706543 15.153284072875977 C16.279457092285156 15.303441047668457 16.041709899902344 15.416057586669922 15.76016616821289 15.416057586669922 C15.484879493713379 15.416057586669922 15.247132301330566 15.303441047668457 15.153284072875977 15.153284072875977 C15.053180694580078 15.309697151184082 14.821688652038574 15.416057586669922 14.546401977539062 15.416057586669922 C14.264859199523926 15.416057586669922 14.033368110656738 15.303441047668457 13.939519882202148 15.153284072875977 C13.845672607421875 15.303441047668457 13.607924461364746 15.416057586669922 13.332637786865234 15.416057586669922 C13.057351112365723 15.416057586669922 12.819602966308594 15.303441047668457 12.72575569152832 15.153284072875977 C12.625651359558105 15.309697151184082 12.387904167175293 15.416057586669922 12.112617492675781 15.416057586669922 C11.837329864501953 15.416057586669922 11.59958267211914 15.303441047668457 11.499478340148926 15.153284072875977 C11.399374008178711 15.303441047668457 11.167882919311523 15.416057586669922 10.892597198486328 15.416057586669922 C10.6173095703125 15.416057586669922 10.379561424255371 15.303441047668457 10.279458045959473 15.153284072875977 C10.185609817504883 15.309697151184082 9.94786262512207 15.416057586669922 9.666318893432617 15.416057586669922 C9.391032218933105 15.416057586669922 9.153285026550293 15.303441047668457 9.059436798095703 15.153284072875977 C8.96558952331543 15.303441047668457 8.7278413772583 15.416057586669922 8.452554702758789 15.416057586669922 C8.171010971069336 15.416057586669922 7.939520359039307 15.303441047668457 7.839416027069092 15.153284072875977 L7.839416027069092 15.159541130065918 C7.74556827545166 15.315954208374023 7.5078206062316895 15.416057586669922 7.232533931732178 15.416057586669922 C6.950990676879883 15.416057586669922 6.719499588012695 15.303441047668457 6.6193952560424805 15.153284072875977 L6.6193952560424805 14.771636962890625 C6.713243007659912 14.92805004119873 6.950990676879883 15.03441047668457 7.232533931732178 15.03441047668457 C7.5078206062316895 15.03441047668457 7.739311695098877 14.92805004119873 7.839416027069092 14.771636962890625 C7.939520359039307 14.92805004119873 8.171010971069336 15.03441047668457 8.452554702758789 15.03441047668457 C8.7278413772583 15.03441047668457 8.96558952331543 14.921792984008789 9.059436798095703 14.771636962890625 C9.153285026550293 14.92805004119873 9.391032218933105 15.03441047668457 9.666318893432617 15.03441047668457 C9.941605567932129 15.03441047668457 10.179352760314941 14.92805004119873 10.279458045959473 14.771636962890625 C10.373305320739746 14.92805004119873 10.611053466796875 15.03441047668457 10.892597198486328 15.03441047668457 C11.167882919311523 15.03441047668457 11.405631065368652 14.921792984008789 11.499478340148926 14.771636962890625 C11.593326568603516 14.92805004119873 11.831073760986328 15.03441047668457 12.112617492675781 15.03441047668457 C12.387904167175293 15.03441047668457 12.625651359558105 14.92805004119873 12.72575569152832 14.771636962890625 C12.819602966308594 14.92805004119873 13.057351112365723 15.03441047668457 13.332637786865234 15.03441047668457 C13.607924461364746 15.03441047668457 13.845672607421875 14.921792984008789 13.939519882202148 14.771636962890625 C14.033368110656738 14.92805004119873 14.271116256713867 15.03441047668457 14.546401977539062 15.03441047668457 C14.821688652038574 15.03441047668457 15.059436798095703 14.92805004119873 15.153284072875977 14.771636962890625 C15.253389358520508 14.92805004119873 15.484879493713379 15.03441047668457 15.76016616821289 15.03441047668457 C16.03545379638672 15.03441047668457 16.27320098876953 14.921792984008789 16.37330436706543 14.771636962890625 C16.467151641845703 14.92805004119873 16.70490074157715 15.03441047668457 16.9864444732666 15.03441047668457 C17.261730194091797 15.03441047668457 17.499479293823242 14.92805004119873 17.593326568603516 14.771636962890625 L17.593326568603516 15.153284072875977 M17.593326568603516 14.465066909790039 C17.499479293823242 14.621479988098145 17.261730194091797 14.727840423583984 16.9864444732666 14.727840423583984 C16.711156845092773 14.727840423583984 16.467151641845703 14.621479988098145 16.37330436706543 14.465066909790039 C16.279457092285156 14.615224838256836 16.041709899902344 14.727840423583984 15.76016616821289 14.727840423583984 C15.484879493713379 14.727840423583984 15.247132301330566 14.621479988098145 15.153284072875977 14.465066909790039 C15.053180694580078 14.621479988098145 14.821688652038574 14.727840423583984 14.546401977539062 14.727840423583984 C14.264859199523926 14.727840423583984 14.033368110656738 14.621479988098145 13.939519882202148 14.465066909790039 C13.845672607421875 14.615224838256836 13.607924461364746 14.727840423583984 13.332637786865234 14.727840423583984 C13.057351112365723 14.727840423583984 12.819602966308594 14.621479988098145 12.72575569152832 14.465066909790039 C12.625651359558105 14.621479988098145 12.387904167175293 14.727840423583984 12.112617492675781 14.727840423583984 C11.837329864501953 14.727840423583984 11.59958267211914 14.621479988098145 11.499478340148926 14.465066909790039 C11.399374008178711 14.615224838256836 11.167882919311523 14.727840423583984 10.892597198486328 14.727840423583984 C10.6173095703125 14.727840423583984 10.379561424255371 14.621479988098145 10.279458045959473 14.465066909790039 C10.185609817504883 14.621479988098145 9.94786262512207 14.727840423583984 9.666318893432617 14.727840423583984 C9.391032218933105 14.727840423583984 9.153285026550293 14.621479988098145 9.059436798095703 14.465066909790039 C8.96558952331543 14.615224838256836 8.7278413772583 14.727840423583984 8.452554702758789 14.727840423583984 C8.171010971069336 14.727840423583984 7.939520359039307 14.621479988098145 7.839416027069092 14.465066909790039 L7.839416027069092 14.47132396697998 C7.74556827545166 14.627737045288086 7.5078206062316895 14.727840423583984 7.232533931732178 14.727840423583984 C6.950990676879883 14.727840423583984 6.719499588012695 14.621479988098145 6.6193952560424805 14.465066909790039 L6.6193952560424805 14.083419799804688 C6.713243007659912 14.23983383178711 6.950990676879883 14.346193313598633 7.232533931732178 14.346193313598633 C7.5078206062316895 14.346193313598633 7.739311695098877 14.23983383178711 7.839416027069092 14.083419799804688 C7.939520359039307 14.23983383178711 8.171010971069336 14.346193313598633 8.452554702758789 14.346193313598633 C8.7278413772583 14.346193313598633 8.96558952331543 14.233575820922852 9.059436798095703 14.083419799804688 C9.153285026550293 14.23983383178711 9.391032218933105 14.346193313598633 9.666318893432617 14.346193313598633 C9.941605567932129 14.346193313598633 10.179352760314941 14.23983383178711 10.279458045959473 14.083419799804688 C10.373305320739746 14.23983383178711 10.611053466796875 14.346193313598633 10.892597198486328 14.346193313598633 C11.167882919311523 14.346193313598633 11.405631065368652 14.233575820922852 11.499478340148926 14.083419799804688 C11.593326568603516 14.23983383178711 11.831073760986328 14.346193313598633 12.10636043548584 14.346193313598633 C12.381647109985352 14.346193313598633 12.619394302368164 14.23983383178711 12.719499588012695 14.083419799804688 C12.813346862792969 14.23983383178711 13.051095008850098 14.346193313598633 13.32638168334961 14.346193313598633 C13.601667404174805 14.346193313598633 13.839415550231934 14.233575820922852 13.933263778686523 14.083419799804688 C14.027111053466797 14.23983383178711 14.264859199523926 14.346193313598633 14.540145874023438 14.346193313598633 C14.81543254852295 14.346193313598633 15.053180694580078 14.23983383178711 15.147027969360352 14.083419799804688 C15.247132301330566 14.23983383178711 15.478622436523438 14.346193313598633 15.753910064697266 14.346193313598633 C16.029197692871094 14.346193313598633 16.266944885253906 14.233575820922852 16.367050170898438 14.083419799804688 C16.46089744567871 14.23983383178711 16.69864273071289 14.346193313598633 16.980186462402344 14.346193313598633 C17.255474090576172 14.346193313598633 17.493221282958984 14.23983383178711 17.58707046508789 14.083419799804688 L17.58707046508789 14.465066909790039" fill="black" fill-opacity="1.0" filling="0"/>
<path animation_id="7" d="M12.919708251953125 18.988529205322266 C12.919708251953125 18.988529205322266 13.457768440246582 19.826902389526367 13.176225662231445 19.589155197143555 C12.969759941101074 19.413970947265625 12.688217163085938 19.00104331970215 12.481751441955566 18.663188934326172 L11.380603790283203 19.094890594482422 C11.380603790283203 19.094890594482422 10.748696327209473 19.86444091796875 10.886340141296387 19.52659034729004 C10.986444473266602 19.2825870513916 11.299270629882812 18.88216781616211 11.555787086486816 18.58185577392578 L10.798748970031738 17.66840362548828 C10.798748970031738 17.66840362548828 9.866527557373047 17.305526733398438 10.235662460327148 17.336809158325195 C10.479665756225586 17.35557746887207 10.98018741607666 17.537015914916992 11.34306526184082 17.680917739868164 L11.974973678588867 16.679874420166016 C11.974973678588867 16.679874420166016 12.031282424926758 15.685088157653809 12.125130653381348 16.041709899902344 C12.187695503234863 16.28571319580078 12.168926239013672 16.817516326904297 12.137642860412598 17.211679458618164 L13.28884220123291 17.493221282958984 C13.28884220123291 17.493221282958984 14.25234603881836 17.242961883544922 13.939519882202148 17.436914443969727 C13.720541954040527 17.574556350708008 13.238790512084961 17.718456268310547 12.850885391235352 17.812305450439453 L12.919708251953125 18.988529205322266" fill="black" fill-opacity="1.0" filling="0"/>
<path animation_id="8" d="M12.919708251953125 18.988529205322266 C12.919708251953125 18.988529205322266 13.457768440246582 19.826902389526367 13.176225662231445 19.589155197143555 C12.969759941101074 19.413970947265625 12.688217163085938 19.00104331970215 12.481751441955566 18.663188934326172 L11.380603790283203 19.094890594482422 C11.380603790283203 19.094890594482422 10.748696327209473 19.86444091796875 10.886340141296387 19.52659034729004 C10.986444473266602 19.2825870513916 11.299270629882812 18.88216781616211 11.555787086486816 18.58185577392578 L10.798748970031738 17.66840362548828 C10.798748970031738 17.66840362548828 9.866527557373047 17.305526733398438 10.235662460327148 17.336809158325195 C10.479665756225586 17.35557746887207 10.98018741607666 17.537015914916992 11.34306526184082 17.680917739868164 L11.974973678588867 16.679874420166016 C11.974973678588867 16.679874420166016 12.031282424926758 15.685088157653809 12.125130653381348 16.041709899902344 C12.187695503234863 16.28571319580078 12.168926239013672 16.817516326904297 12.137642860412598 17.211679458618164 L13.28884220123291 17.493221282958984 C13.28884220123291 17.493221282958984 14.25234603881836 17.242961883544922 13.939519882202148 17.436914443969727 C13.720541954040527 17.574556350708008 13.238790512084961 17.718456268310547 12.850885391235352 17.812305450439453 L12.919708251953125 18.988529205322266 L12.919708251953125 18.988529205322266" fill="black" fill-opacity="1.0" filling="0"/>
<path animation_id="9" d="M12.037538528442383 18.769550323486328 C12.043795585632324 18.788320541381836 12.05630874633789 18.79457664489746 12.06882095336914 18.79457664489746 C12.081335067749023 18.79457664489746 12.093847274780273 18.78206443786621 12.100103378295898 18.769550323486328 C12.112617492675781 18.738269805908203 12.125130653381348 18.675703048706055 12.118873596191406 18.53180503845215 C12.118873596191406 18.53180503845215 12.125130653381348 18.062564849853516 12.475494384765625 18.5693416595459 C13.457768440246582 19.989572525024414 12.05630874633789 19.99582862854004 12.05630874633789 19.99582862854004 L12.06882095336914 19.99582862854004 C12.06882095336914 19.99582862854004 10.667362213134766 19.989572525024414 11.64963436126709 18.5693416595459 C12.0 18.062564849853516 12.006256103515625 18.53180503845215 12.006256103515625 18.53180503845215 C12.012513160705566 18.66944694519043 12.025025367736816 18.738269805908203 12.037538528442383 18.769550323486328" fill="black" fill-opacity="1.0" filling="0"/>
<path animation_id="10" d="M12.037538528442383 18.769550323486328 L12.06882095336914 18.79457664489746 L12.100103378295898 18.769550323486328 C12.112617492675781 18.738269805908203 12.118873596191406 18.675703048706055 12.118873596191406 18.53180503845215 C12.118873596191406 18.53180503845215 12.125130653381348 18.062564849853516 12.475494384765625 18.5693416595459 C13.457768440246582 19.989572525024414 12.05630874633789 19.99582862854004 12.05630874633789 19.99582862854004 L12.06882095336914 19.99582862854004 C12.06882095336914 19.99582862854004 10.667362213134766 19.989572525024414 11.64963436126709 18.5693416595459 C12.0 18.062564849853516 12.006256103515625 18.53180503845215 12.006256103515625 18.53180503845215 C12.018770217895508 18.66944694519043 12.025025367736816 18.738269805908203 12.037538528442383 18.769550323486328" fill="black" fill-opacity="1.0" filling="0"/>
<path animation_id="11" d="M11.318038940429688 18.200206756591797 C11.305526733398438 18.212722778320312 11.299270629882812 18.22523307800293 11.305526733398438 18.237747192382812 C11.311782836914062 18.250261306762695 11.318038940429688 18.262773513793945 11.336809158325195 18.262773513793945 C11.368091583251953 18.262773513793945 11.43691349029541 18.256515502929688 11.568299293518066 18.212722778320312 C11.568299293518066 18.212722778320312 12.018770217895508 18.075077056884766 11.64963436126709 18.563087463378906 C10.604796409606934 19.93952178955078 10.166840553283691 18.61313819885254 10.166840553283691 18.61313819885254 L10.166840553283691 18.619396209716797 C10.166840553283691 18.619396209716797 9.7413969039917 17.280500411987305 11.399374008178711 17.781021118164062 C11.987486839294434 17.95620346069336 11.54327392578125 18.11261749267578 11.54327392578125 18.11261749267578 C11.399374008178711 18.14389991760254 11.34306526184082 18.175182342529297 11.318038940429688 18.200206756591797" fill="black" fill-opacity="1.0" filling="0"/>
<path animation_id="12" d="M11.318038940429688 18.200206756591797 C11.305526733398438 18.212722778320312 11.305526733398438 18.237747192382812 11.305526733398438 18.237747192382812 L11.336809158325195 18.262773513793945 C11.336809158325195 18.262773513793945 11.43691349029541 18.256515502929688 11.568299293518066 18.212722778320312 C11.568299293518066 18.212722778320312 12.018770217895508 18.075077056884766 11.64963436126709 18.563087463378906 C10.604796409606934 19.93952178955078 10.166840553283691 18.61313819885254 10.166840553283691 18.61313819885254 L10.166840553283691 18.619396209716797 C10.166840553283691 18.619396209716797 9.7413969039917 17.280500411987305 11.399374008178711 17.781021118164062 C11.987486839294434 17.95620346069336 11.54327392578125 18.11261749267578 11.54327392578125 18.11261749267578 C11.399374008178711 18.14389991760254 11.34306526184082 18.175182342529297 11.318038940429688 18.200206756591797 L11.318038940429688 18.200206756591797" fill="black" fill-opacity="1.0" filling="0"/>
<path animation_id="13" d="M11.630865097045898 17.330551147460938 C11.618351936340332 17.324295043945312 11.59958267211914 17.324295043945312 11.593326568603516 17.330551147460938 C11.58081340789795 17.336809158325195 11.58081340789795 17.349321365356445 11.58081340789795 17.368091583251953 C11.587069511413574 17.39937400817871 11.612095832824707 17.461938858032227 11.705944061279297 17.574556350708008 C11.705944061279297 17.574556350708008 11.974973678588867 17.95620346069336 11.393117904663086 17.75599479675293 C9.76016616821289 17.18665313720703 10.892597198486328 16.36079216003418 10.892597198486328 16.36079216003418 L10.886340141296387 16.367050170898438 C10.886340141296387 16.367050170898438 12.025025367736816 15.553701400756836 12.062564849853516 17.280500411987305 C12.075078010559082 17.893638610839844 11.793534278869629 17.518247604370117 11.793534278869629 17.518247604370117 C11.712200164794922 17.393117904663086 11.662147521972656 17.349321365356445 11.630865097045898 17.330551147460938" fill="black" fill-opacity="1.0" filling="0"/>
<path animation_id="14" d="M11.630865097045898 17.330551147460938 L11.593326568603516 17.330551147460938 L11.58081340789795 17.368091583251953 C11.58081340789795 17.368091583251953 11.612095832824707 17.461938858032227 11.705944061279297 17.574556350708008 C11.705944061279297 17.574556350708008 11.974973678588867 17.95620346069336 11.393117904663086 17.75599479675293 C9.76016616821289 17.18665313720703 10.892597198486328 16.36079216003418 10.892597198486328 16.36079216003418 L10.886340141296387 16.367050170898438 C10.886340141296387 16.367050170898438 12.025025367736816 15.553701400756836 12.062564849853516 17.280500411987305 C12.075078010559082 17.893638610839844 11.793534278869629 17.518247604370117 11.793534278869629 17.518247604370117 C11.712200164794922 17.393117904663086 11.662147521972656 17.349321365356445 11.630865097045898 17.330551147460938 L11.630865097045898 17.330551147460938" fill="black" fill-opacity="1.0" filling="0"/>
<path animation_id="15" d="M12.556829452514648 17.368091583251953 C12.556829452514648 17.35557746887207 12.556829452514648 17.336809158325195 12.544317245483398 17.330551147460938 C12.531804084777832 17.324295043945312 12.519290924072266 17.324295043945312 12.500521659851074 17.336809158325195 C12.475494384765625 17.349321365356445 12.425443649291992 17.393117904663086 12.344108581542969 17.511991500854492 C12.344108581542969 17.511991500854492 12.062564849853516 17.88738250732422 12.075078010559082 17.27424430847168 C12.112617492675781 15.547445297241211 13.251303672790527 16.36079216003418 13.251303672790527 16.36079216003418 L13.245046615600586 16.354534149169922 C13.245046615600586 16.354534149169922 14.371219635009766 17.18665313720703 12.738268852233887 17.75599479675293 C12.16266918182373 17.95620346069336 12.431699752807617 17.574556350708008 12.431699752807617 17.574556350708008 C12.519290924072266 17.461938858032227 12.550573348999023 17.39937400817871 12.556829452514648 17.368091583251953" fill="black" fill-opacity="1.0" filling="0"/>
<path animation_id="16" d="M12.556829452514648 17.368091583251953 L12.544317245483398 17.330551147460938 L12.500521659851074 17.336809158325195 C12.475494384765625 17.349321365356445 12.425443649291992 17.393117904663086 12.344108581542969 17.511991500854492 C12.344108581542969 17.511991500854492 12.062564849853516 17.88738250732422 12.075078010559082 17.27424430847168 C12.112617492675781 15.547445297241211 13.251303672790527 16.36079216003418 13.251303672790527 16.36079216003418 L13.245046615600586 16.354534149169922 C13.245046615600586 16.354534149169922 14.371219635009766 17.18665313720703 12.738268852233887 17.75599479675293 C12.16266918182373 17.95620346069336 12.431699752807617 17.574556350708008 12.431699752807617 17.574556350708008 C12.519290924072266 17.461938858032227 12.556829452514648 17.368091583251953 12.556829452514648 17.368091583251953 L12.556829452514648 17.368091583251953" fill="black" fill-opacity="1.0" filling="0"/>
<path animation_id="17" d="M12.807090759277344 18.256515502929688 C12.825860023498535 18.256515502929688 12.838373184204102 18.244003295898438 12.838373184204102 18.231491088867188 C12.844630241394043 18.218978881835938 12.838373184204102 18.206464767456055 12.825860023498535 18.193950653076172 C12.800834655761719 18.168926239013672 12.744524955749512 18.13764190673828 12.606882095336914 18.1001033782959 C12.606882095336914 18.1001033782959 12.16266918182373 17.94369125366211 12.750782012939453 17.768508911132812 C14.408759117126465 17.267986297607422 13.983315467834473 18.606882095336914 13.983315467834473 18.606882095336914 L13.983315467834473 18.600624084472656 C13.983315467834473 18.600624084472656 13.54535961151123 19.927005767822266 12.500521659851074 18.550573348999023 C12.125130653381348 18.062564849853516 12.575599670410156 18.200206756591797 12.575599670410156 18.200206756591797 C12.713242530822754 18.256515502929688 12.77580738067627 18.262773513793945 12.807090759277344 18.256515502929688" fill="black" fill-opacity="1.0" filling="0"/>
<path animation_id="18" d="M12.807090759277344 18.256515502929688 L12.838373184204102 18.231491088867188 C12.838373184204102 18.231491088867188 12.838373184204102 18.206464767456055 12.825860023498535 18.193950653076172 C12.800834655761719 18.168926239013672 12.744524955749512 18.13764190673828 12.606882095336914 18.1001033782959 C12.606882095336914 18.1001033782959 12.16266918182373 17.94369125366211 12.750782012939453 17.768508911132812 C14.408759117126465 17.267986297607422 13.983315467834473 18.606882095336914 13.983315467834473 18.606882095336914 L13.983315467834473 18.600624084472656 C13.983315467834473 18.600624084472656 13.54535961151123 19.927005767822266 12.500521659851074 18.550573348999023 C12.125130653381348 18.062564849853516 12.575599670410156 18.200206756591797 12.575599670410156 18.200206756591797 C12.713242530822754 18.256515502929688 12.807090759277344 18.256515502929688 12.807090759277344 18.256515502929688 L12.807090759277344 18.256515502929688" fill="black" fill-opacity="1.0" filling="0"/>
<path animation_id="19" d="M11.11157512664795 16.667362213134766 C11.11157512664795 16.667362213134766 11.005212783813477 16.74243927001953 10.917622566223145 16.767465591430664 C10.823774337768555 16.792491912841797 10.786234855651855 16.861312866210938 10.773722648620605 16.880081176757812 C10.773722648620605 16.880081176757812 10.72367000579834 16.998958587646484 10.686131477355957 16.948904037475586 C10.648591995239258 16.898853302001953 10.72367000579834 16.811262130737305 10.72367000579834 16.811262130737305 C10.736184120178223 16.792491912841797 10.773722648620605 16.723669052124023 10.867569923400879 16.692386627197266 C10.961418151855469 16.667362213134766 11.061522483825684 16.59228515625 11.061522483825684 16.59228515625 C11.061522483825684 16.59228515625 11.161625862121582 16.510948181152344 11.217935562133789 16.435871124267578 C11.274243354797363 16.36079216003418 11.349321365356445 16.342023849487305 11.368091583251953 16.335765838623047 C11.368091583251953 16.335765838623047 11.474452018737793 16.298227310180664 11.511991500854492 16.342023849487305 C11.549530982971191 16.392074584960938 11.418144226074219 16.398330688476562 11.418144226074219 16.398330688476562 C11.399374008178711 16.40458869934082 11.318038940429688 16.423357009887695 11.261731147766113 16.498435974121094 C11.211678504943848 16.586027145385742 11.11157512664795 16.667362213134766 11.11157512664795 16.667362213134766 M13.026068687438965 16.667362213134766 C13.026068687438965 16.667362213134766 12.92596435546875 16.59228515625 12.86965560913086 16.510948181152344 C12.813346862792969 16.435871124267578 12.738268852233887 16.41710090637207 12.719499588012695 16.410842895507812 C12.719499588012695 16.410842895507812 12.588111877441406 16.40458869934082 12.625651359558105 16.354534149169922 C12.663189888000488 16.30448341369629 12.769552230834961 16.348278045654297 12.769552230834961 16.348278045654297 C12.788320541381836 16.348278045654297 12.86965560913086 16.367050170898438 12.919708251953125 16.448383331298828 C12.9760160446167 16.523462295532227 13.076120376586914 16.604795455932617 13.076120376586914 16.604795455932617 C13.076120376586914 16.604795455932617 13.18248176574707 16.67361831665039 13.276329040527344 16.70490074157715 C13.363921165466309 16.736183166503906 13.407716751098633 16.798748016357422 13.413971900939941 16.817516326904297 C13.413971900939941 16.817516326904297 13.482793807983398 16.911365509033203 13.45151138305664 16.96141815185547 C13.413971900939941 17.0114688873291 13.370176315307617 16.892597198486328 13.370176315307617 16.892597198486328 C13.357664108276367 16.87382698059082 13.320124626159668 16.805004119873047 13.226276397705078 16.779979705810547 C13.132429122924805 16.736183166503906 13.026068687438965 16.667362213134766 13.026068687438965 16.667362213134766 M13.620437622070312 18.488008499145508 C13.620437622070312 18.488008499145508 13.664233207702637 18.3691349029541 13.720541954040527 18.294055938720703 C13.78310775756836 18.218978881835938 13.770594596862793 18.13764190673828 13.770594596862793 18.118873596191406 C13.770594596862793 18.118873596191406 13.739312171936035 17.993743896484375 13.79561996459961 18.01251220703125 C13.8519287109375 18.031282424926758 13.8519287109375 18.14389991760254 13.8519287109375 18.14389991760254 C13.8519287109375 18.162668228149414 13.858185768127441 18.244003295898438 13.808133125305176 18.319080352783203 C13.751824378967285 18.394161224365234 13.708029747009277 18.51303482055664 13.708029747009277 18.51303482055664 C13.708029747009277 18.51303482055664 13.676746368408203 18.638164520263672 13.676746368408203 18.732011795043945 C13.676746368408203 18.82585906982422 13.620437622070312 18.888423919677734 13.614181518554688 18.900938034057617 C13.614181518554688 18.900938034057617 13.54535961151123 18.99478530883789 13.495306968688965 18.976015090942383 C13.43899917602539 18.957246780395508 13.539102554321289 18.86965560913086 13.539102554321289 18.86965560913086 C13.551616668701172 18.85088539123535 13.601667404174805 18.79457664489746 13.601667404174805 18.700729370117188 C13.589155197143555 18.61313819885254 13.620437622070312 18.488008499145508 13.620437622070312 18.488008499145508 M12.06882095336914 19.614181518554688 C12.06882095336914 19.614181518554688 12.20020866394043 19.620437622070312 12.287798881530762 19.65172004699707 C12.375391006469727 19.683002471923828 12.450469017028809 19.65172004699707 12.469239234924316 19.645463943481445 C12.469239234924316 19.645463943481445 12.581855773925781 19.576641082763672 12.575599670410156 19.639205932617188 C12.575599670410156 19.695514678955078 12.469239234924316 19.733055114746094 12.469239234924316 19.733055114746094 C12.450469017028809 19.73931121826172 12.375391006469727 19.770593643188477 12.287798881530762 19.73931121826172 C12.20020866394043 19.70802879333496 12.06882095336914 19.701770782470703 12.06882095336914 19.701770782470703 C12.06882095336914 19.701770782470703 11.937435150146484 19.70802879333496 11.84984302520752 19.73931121826172 C11.762251853942871 19.770593643188477 11.687173843383789 19.73931121826172 11.668404579162598 19.733055114746094 C11.668404579162598 19.733055114746094 11.555787086486816 19.695514678955078 11.555787086486816 19.639205932617188 C11.555787086486816 19.576641082763672 11.668404579162598 19.645463943481445 11.668404579162598 19.645463943481445 C11.693429946899414 19.65172004699707 11.762251853942871 19.683002471923828 11.84984302520752 19.65172004699707 C11.937435150146484 19.620437622070312 12.06882095336914 19.614181518554688 12.06882095336914 19.614181518554688 M10.52346134185791 18.488008499145508 C10.52346134185791 18.488008499145508 10.56100082397461 18.61313819885254 10.56100082397461 18.706985473632812 C10.56100082397461 18.80083465576172 10.611053466796875 18.857141494750977 10.623566627502441 18.875911712646484 C10.623566627502441 18.875911712646484 10.72367000579834 18.963504791259766 10.667362213134766 18.98227310180664 C10.611053466796875 19.00104331970215 10.542231559753418 18.907196044921875 10.542231559753418 18.907196044921875 C10.529718399047852 18.888423919677734 10.479665756225586 18.832117080688477 10.479665756225586 18.738269805908203 C10.479665756225586 18.644420623779297 10.448383331298828 18.519290924072266 10.448383331298828 18.519290924072266 C10.448383331298828 18.519290924072266 10.404587745666504 18.40041732788086 10.348278999328613 18.32533836364746 C10.291970252990723 18.250261306762695 10.298227310180664 18.168926239013672 10.298227310180664 18.150156021118164 C10.298227310180664 18.150156021118164 10.298227310180664 18.037538528442383 10.354536056518555 18.018768310546875 C10.410843849182129 18.0 10.379561424255371 18.12512969970703 10.379561424255371 18.12512969970703 C10.379561424255371 18.14389991760254 10.373305320739746 18.22523307800293 10.429614067077637 18.300312042236328 C10.479665756225586 18.3691349029541 10.52346134185791 18.488008499145508 10.52346134185791 18.488008499145508" fill="black" fill-opacity="1.0" filling="0"/>
<path animation_id="20" d="M12.062564849853516 17.66840362548828 C11.887382507324219 17.66840362548828 11.749739646911621 17.812305450439453 11.749739646911621 17.987485885620117 C11.749739646911621 18.162668228149414 11.89363956451416 18.306570053100586 12.062564849853516 18.306570053100586 C12.237748146057129 18.306570053100586 12.381647109985352 18.168926239013672 12.381647109985352 17.987485885620117 C12.381647109985352 17.806047439575195 12.237748146057129 17.66840362548828 12.062564849853516 17.66840362548828" fill="black" fill-opacity="1.0" filling="0"/>
<path animation_id="21" d="M12.062564849853516 17.66840362548828 C11.887382507324219 17.66840362548828 11.749739646911621 17.812305450439453 11.749739646911621 17.987485885620117 C11.749739646911621 18.162668228149414 11.89363956451416 18.306570053100586 12.062564849853516 18.306570053100586 C12.237748146057129 18.306570053100586 12.381647109985352 18.168926239013672 12.381647109985352 17.987485885620117 C12.381647109985352 17.806047439575195 12.237748146057129 17.66840362548828 12.062564849853516 17.66840362548828" fill="black" fill-opacity="1.0" filling="0"/>
<path animation_id="22" d="M12.663189888000488 11.937435150146484 L12.706986427307129 12.788320541381836 L13.426486015319824 12.319082260131836 L13.65172004699707 12.688217163085938 L12.800834655761719 13.18248176574707 L12.800834655761719 13.357664108276367 C12.800834655761719 13.357664108276367 13.789362907409668 13.914493560791016 12.581855773925781 13.8894681930542 L12.581855773925781 13.89572525024414 C12.16266918182373 14.246088981628418 11.762251853942871 13.90198040008545 11.762251853942871 13.90198040008545 C10.554744720458984 13.920750617980957 11.54327392578125 13.370176315307617 11.54327392578125 13.370176315307617 L11.54327392578125 13.188737869262695 L10.792491912841797 12.606882095336914 L10.973930358886719 12.218977928161621 L11.64963436126709 12.794577598571777 L11.687173843383789 11.943690299987793 L12.663189888000488 11.937435150146484" fill="black" fill-opacity="1.0" filling="0"/>
<path animation_id="23" d="M13.557872772216797 12.66944694519043 C14.258602142333984 13.470281600952148 14.771636962890625 12.625651359558105 14.771636962890625 12.625651359558105 C15.65380573272705 12.41292953491211 15.12825870513916 11.787278175354004 15.12825870513916 11.787278175354004 C16.04796600341797 11.186653137207031 14.965588569641113 10.711156845092773 14.965588569641113 10.711156845092773 C14.959332466125488 9.910322189331055 14.277372360229492 9.966631889343262 14.277372360229492 9.966631889343262 C13.564128875732422 9.340980529785156 12.882168769836426 10.035452842712402 12.882168769836426 10.035452842712402 C11.812304496765137 9.147027969360352 10.998957633972168 10.173097610473633 10.998957633972168 10.173097610473633 C10.998957633972168 10.173097610473633 10.316996574401855 9.697601318359375 10.010427474975586 10.442126274108887 C10.010427474975586 10.442126274108887 8.921792984008789 10.410843849182129 9.328466415405273 11.511991500854492 C9.328466415405273 11.511991500854492 8.490093231201172 12.350364685058594 9.584983825683594 12.769552230834961 C9.584983825683594 12.769552230834961 10.166840553283691 13.8519287109375 10.967674255371094 12.819602966308594 C10.967674255371094 12.819602966308594 11.461938858032227 12.850885391235352 11.380603790283203 12.156413078308105 C11.380603790283203 12.156413078308105 12.006256103515625 12.41918659210205 12.594368934631348 12.125130653381348 C12.594368934631348 12.125130653381348 12.782064437866211 12.550573348999023 13.188737869262695 12.312826156616211 C13.188737869262695 12.312826156616211 13.12617301940918 12.588111877441406 13.520334243774414 12.644421577453613 L13.557872772216797 12.66944694519043" fill="black" fill-opacity="1.0" filling="0"/>
<path animation_id="24" d="M13.557872772216797 12.66944694519043 C14.258602142333984 13.470281600952148 14.771636962890625 12.625651359558105 14.771636962890625 12.625651359558105 C15.65380573272705 12.41292953491211 15.12825870513916 11.787278175354004 15.12825870513916 11.787278175354004 C16.04796600341797 11.186653137207031 14.965588569641113 10.711156845092773 14.965588569641113 10.711156845092773 C14.965588569641113 9.910322189331055 14.277372360229492 9.966631889343262 14.277372360229492 9.966631889343262 C13.564128875732422 9.340980529785156 12.882168769836426 10.035452842712402 12.882168769836426 10.035452842712402 C11.812304496765137 9.147027969360352 10.998957633972168 10.173097610473633 10.998957633972168 10.173097610473633 C10.998957633972168 10.173097610473633 10.316996574401855 9.697601318359375 10.010427474975586 10.442126274108887 C10.010427474975586 10.442126274108887 8.921792984008789 10.410843849182129 9.328466415405273 11.511991500854492 C9.328466415405273 11.511991500854492 8.490093231201172 12.350364685058594 9.584983825683594 12.769552230834961 C9.584983825683594 12.769552230834961 10.166840553283691 13.8519287109375 10.967674255371094 12.819602966308594 C10.967674255371094 12.819602966308594 11.461938858032227 12.850885391235352 11.380603790283203 12.156413078308105 C11.380603790283203 12.156413078308105 12.006256103515625 12.41918659210205 12.594368934631348 12.125130653381348 C12.594368934631348 12.125130653381348 12.782064437866211 12.550573348999023 13.188737869262695 12.312826156616211 C13.188737869262695 12.312826156616211 13.12617301940918 12.588111877441406 13.520334243774414 12.644421577453613 L13.557872772216797 12.66944694519043 L13.557872772216797 12.66944694519043" fill="black" fill-opacity="1.0" filling="0"/>
<path animation_id="25" d="M4.204379558563232 19.557872772216797 L4.25443172454834 19.601667404174805 C4.07299280166626 19.927005767822266 4.047966480255127 20.158498764038086 4.173096656799316 20.26485824584961 C4.260688304901123 20.346195220947266 4.379561901092529 20.30865478515625 4.4921793937683105 20.189781188964844 C4.535974979400635 20.139728546142578 4.567257404327393 20.077163696289062 4.567257404327393 20.027111053466797 C4.567257404327393 19.958290100097656 4.517205238342285 19.883211135864258 4.460896968841553 19.770593643188477 C4.354536056518555 19.551616668701172 4.36079216003418 19.376434326171875 4.548487663269043 19.151199340820312 C4.742440223693848 18.932220458984375 4.992701053619385 18.857141494750977 5.149113655090332 18.99478530883789 C5.217935562133789 19.05735206604004 5.25547456741333 19.144943237304688 5.261730670928955 19.257558822631836 L5.386861324310303 19.220020294189453 L5.430656909942627 19.257558822631836 L5.049009323120117 19.720542907714844 L5.005213737487793 19.676746368408203 C5.155370235443115 19.363920211791992 5.186652660369873 19.18248176574707 5.074035167694092 19.08237648010254 C4.986443996429443 19.00729751586914 4.87382698059082 19.032325744628906 4.7737226486206055 19.144943237304688 C4.648592472076416 19.288841247558594 4.723670482635498 19.37017822265625 4.81751823425293 19.551616668701172 C4.867570400238037 19.65172004699707 4.905109405517578 19.726797103881836 4.8863396644592285 19.845672607421875 C4.867570400238037 19.9520320892334 4.8050055503845215 20.070905685424805 4.704900741577148 20.189781188964844 C4.498435974121094 20.427528381347656 4.260688304901123 20.496349334716797 4.091762542724609 20.352449417114258 C4.010427474975586 20.277372360229492 3.9728879928588867 20.189781188964844 3.9728879928588867 20.05213737487793 L3.8227310180664062 20.102188110351562 L3.778937339782715 20.064651489257812 L4.204379558563232 19.557872772216797 M5.637121677398682 19.71428680419922 C5.812304496765137 19.632949829101562 5.956203937530518 19.632949829101562 6.087591648101807 19.720542907714844 C6.218978404998779 19.814390182495117 6.27528715133667 19.945775985717773 6.25651741027832 20.145984649658203 C6.244004249572754 20.3211669921875 6.1564130783081055 20.52137565612793 6.018769264221191 20.72158432006836 C5.8811259269714355 20.92179298400879 5.743483066558838 21.04692268371582 5.574556827545166 21.128257751464844 C5.393117427825928 21.215850830078125 5.230448246002197 21.215850830078125 5.111574172973633 21.128257751464844 C4.986443996429443 21.040666580200195 4.930135726928711 20.90302276611328 4.948904991149902 20.696557998657227 C4.967674732208252 20.502607345581055 5.036496162414551 20.327423095703125 5.180396556854248 20.127216339111328 C5.318039417266846 19.93952178955078 5.474452495574951 19.789363861083984 5.637121677398682 19.71428680419922 L5.637121677398682 19.71428680419922 M5.174139499664307 21.034412384033203 C5.311783313751221 21.128257751464844 5.511991500854492 20.971845626831055 5.793534755706787 20.571426391601562 C6.075078010559082 20.164752960205078 6.150156497955322 19.927005767822266 6.012513160705566 19.826902389526367 C5.8811259269714355 19.733055114746094 5.680917739868164 19.889467239379883 5.393117427825928 20.289884567260742 C5.117831230163574 20.696557998657227 5.042752742767334 20.940563201904297 5.174139499664307 21.034412384033203 M7.0510945320129395 20.502607345581055 L6.988529682159424 20.471324920654297 C6.938477516174316 20.44629669189453 6.913451671600342 20.465068817138672 6.869656085968018 20.546401977539062 L6.481751918792725 21.272157669067383 C6.344108581542969 21.534931182861328 6.3378520011901855 21.69134521484375 6.48800802230835 21.766422271728516 C6.556830406188965 21.797704696655273 6.625651836395264 21.797704696655273 6.6882171630859375 21.766422271728516 C6.788321018218994 21.710113525390625 6.857142925262451 21.597497940063477 6.950990676879883 21.416057586669922 L7.232533931732178 20.89051055908203 C7.313868522644043 20.73409652709961 7.332637786865234 20.65276336669922 7.2262773513793945 20.596454620361328 L7.220020771026611 20.590198516845703 L7.276329517364502 20.483837127685547 L7.607924938201904 20.659019470214844 L7.551616191864014 20.759122848510742 C7.445255279541016 20.72158432006836 7.395203113555908 20.77789306640625 7.313868522644043 20.928050994873047 L7.026069164276123 21.472366333007812 C6.9447340965271 21.628780364990234 6.875912666320801 21.74765396118164 6.782064914703369 21.82898712158203 C6.638164520263672 21.954116821289062 6.494265079498291 21.966632843017578 6.344108581542969 21.879039764404297 C6.106360912322998 21.753910064697266 6.075078010559082 21.528675079345703 6.244004249572754 21.20333480834961 L6.663190841674805 20.415014266967773 C6.706986427307129 20.33367919921875 6.706986427307129 20.302398681640625 6.6569342613220215 20.277372360229492 L6.594369411468506 20.246089935302734 L6.6506781578063965 20.139728546142578 L7.10740327835083 20.383731842041016 L7.0510945320129395 20.502607345581055 M8.321167945861816 21.071949005126953 C8.277372360229492 21.053180694580078 8.25234603881836 21.071949005126953 8.221063613891602 21.15328598022461 L7.789363861083984 22.2481746673584 C7.751824855804443 22.329509735107422 7.751824855804443 22.360790252685547 7.808133602142334 22.385818481445312 L7.870698928833008 22.410844802856445 L7.826902866363525 22.523460388183594 L7.345151424407959 22.329509735107422 L7.388946533203125 22.21689224243164 L7.451511859893799 22.241918563842773 C7.5078206062316895 22.26068687438965 7.526590347290039 22.241918563842773 7.557872772216797 22.154327392578125 L7.995829105377197 21.059436798095703 C8.027112007141113 20.978099822998047 8.027112007141113 20.946819305419922 7.983315944671631 20.928050994873047 C7.883211612701416 20.884254455566406 7.733055114746094 21.021896362304688 7.589155673980713 21.322208404541016 L7.520333290100098 21.297183990478516 L7.770594120025635 20.727840423583984 L8.602710723876953 21.059436798095703 L8.396245956420898 21.641292572021484 L8.333681106567383 21.61626625061035 C8.433785438537598 21.315954208374023 8.421272277832031 21.10948944091797 8.321167945861816 21.071949005126953 M9.040667533874512 22.779979705810547 C9.096976280212402 22.798748016357422 9.115745544433594 22.77372169494629 9.134514808654785 22.68613052368164 L9.272157669067383 22.166839599609375 L8.921792984008789 22.07299041748047 L8.790406227111816 22.58602523803711 C8.765380859375 22.67361831665039 8.771636962890625 22.704898834228516 8.82168960571289 22.71741485595703 L8.890510559082031 22.736183166503906 L8.859228134155273 22.848800659179688 L8.3587064743042 22.71741485595703 L8.389989852905273 22.598541259765625 L8.458810806274414 22.611053466796875 C8.515119552612305 22.62982177734375 8.533889770507812 22.604795455932617 8.552659034729004 22.51720428466797 L8.852972030639648 21.397289276123047 C8.877998352050781 21.309696197509766 8.877998352050781 21.27841567993164 8.82168960571289 21.2596435546875 L8.752867698669434 21.240875244140625 L8.784150123596191 21.128257751464844 L9.284671783447266 21.265901565551758 L9.253389358520508 21.378520965576172 L9.18456745147705 21.35974884033203 C9.12825870513916 21.340980529785156 9.109489440917969 21.372262954711914 9.084463119506836 21.459854125976562 L8.959332466125488 21.929092407226562 L9.309698104858398 22.022939682006836 L9.43482780456543 21.553701400756836 C9.459854125976562 21.466110229492188 9.459854125976562 21.43482780456543 9.403545379638672 21.416057586669922 L9.340980529785156 21.397289276123047 L9.372262954711914 21.284671783447266 L9.872783660888672 21.422313690185547 L9.841501235961914 21.534931182861328 L9.772679328918457 21.516162872314453 C9.716371536254883 21.503650665283203 9.703858375549316 21.528675079345703 9.678832054138184 21.61626625061035 L9.378519058227539 22.736183166503906 C9.353492736816406 22.823772430419922 9.359749794006348 22.855056762695312 9.416058540344238 22.867568969726562 L9.478623390197754 22.886337280273438 L9.447340965270996 22.99895668029785 L8.940563201904297 22.867568969726562 L8.971845626831055 22.748695373535156 L9.040667533874512 22.779979705810547 M10.367048263549805 23.04275131225586 L10.435871124267578 23.049007415771484 C10.467153549194336 23.049007415771484 10.473409652709961 23.036495208740234 10.479665756225586 23.00521469116211 L10.479665756225586 22.942649841308594 L10.45464038848877 22.679874420166016 L10.1105318069458 22.62982177734375 L10.060480117797852 22.74243927001953 C10.047966957092285 22.779979705810547 10.035452842712402 22.823772430419922 10.029196739196777 22.855056762695312 C10.010427474975586 22.955162048339844 10.047966957092285 22.992700576782227 10.148070335388184 23.01772689819336 L10.129301071166992 23.136600494384766 L9.74765396118164 23.080291748046875 L9.766424179077148 22.96141815185547 C9.85401439666748 22.948904037475586 9.910322189331055 22.861312866210938 9.985401153564453 22.68613052368164 L10.485922813415527 21.503650665283203 L10.586027145385742 21.516162872314453 L10.748696327209473 23.00521469116211 C10.754952430725098 23.074033737182617 10.773722648620605 23.105316162109375 10.823774337768555 23.111572265625 L10.805005073547363 23.230445861816406 L10.354536056518555 23.1616268157959 L10.367048263549805 23.04275131225586 L10.367048263549805 23.04275131225586 M10.166840553283691 22.49217987060547 L10.442126274108887 22.53597640991211 L10.385818481445312 21.966632843017578 L10.166840553283691 22.49217987060547 L10.166840553283691 22.49217987060547 M11.374348640441895 22.861312866210938 C11.368091583251953 23.074033737182617 11.393117904663086 23.149112701416016 11.524504661560059 23.15536880493164 L11.524504661560059 23.274242401123047 L11.130343437194824 23.261730194091797 L11.130343437194824 23.14285659790039 C11.255474090576172 23.136600494384766 11.274243354797363 23.0615234375 11.280500411987305 22.855056762695312 L11.305526733398438 21.872783660888672 C11.305526733398438 21.785194396972656 11.299270629882812 21.753910064697266 11.242960929870605 21.74765396118164 L11.174139976501465 21.74765396118164 L11.18039608001709 21.628780364990234 L11.618351936340332 21.641292572021484 L11.806047439575195 22.623565673828125 L12.031282424926758 21.64754867553711 L12.462982177734375 21.660062789916992 L12.45672607421875 21.7789363861084 L12.387904167175293 21.77267837524414 C12.331595420837402 21.77267837524414 12.319082260131836 21.80396270751953 12.319082260131836 21.891551971435547 L12.294055938720703 23.055265426635742 C12.294055938720703 23.149112701416016 12.300312995910645 23.17413902282715 12.356620788574219 23.17413902282715 L12.425443649291992 23.17413902282715 L12.41918659210205 23.293012619018555 L11.912407875061035 23.280500411987305 L11.918664932250977 23.1616268157959 L11.974973678588867 23.1616268157959 C12.031282424926758 23.1616268157959 12.043795585632324 23.136600494384766 12.050052642822266 23.04275131225586 L12.081335067749023 21.81647491455078 L11.749739646911621 23.274242401123047 L11.680917739868164 23.274242401123047 L11.399374008178711 21.810218811035156 L11.374348640441895 22.861312866210938 M13.220020294189453 23.111572265625 L13.307611465454102 23.105316162109375 L13.320124626159668 23.224191665649414 L12.782064437866211 23.280500411987305 L12.769552230834961 23.1616268157959 L12.844630241394043 23.15536880493164 C12.900938034057617 23.149112701416016 12.907195091247559 23.124088287353516 12.900938034057617 23.03023910522461 L12.788320541381836 21.872783660888672 C12.782064437866211 21.785194396972656 12.769552230834961 21.753910064697266 12.706986427307129 21.76016616821289 L12.63190746307373 21.766422271728516 L12.619394302368164 21.64754867553711 L13.213764190673828 21.59123992919922 C13.464024543762207 21.56621551513672 13.601667404174805 21.716371536254883 13.632950782775879 22.01668357849121 C13.664233207702637 22.342021942138672 13.532846450805664 22.498435974121094 13.226276397705078 22.52971839904785 C13.188737869262695 22.53597640991211 13.138686180114746 22.53597640991211 13.08863353729248 22.5422306060791 L13.132429122924805 23.00521469116211 C13.151198387145996 23.092803955078125 13.163711547851562 23.111572265625 13.220020294189453 23.111572265625 L13.220020294189453 23.111572265625 M13.08863353729248 22.410844802856445 C13.101146697998047 22.417098999023438 13.12617301940918 22.417098999023438 13.157455444335938 22.410844802856445 C13.33889389038086 22.392074584960938 13.407716751098633 22.310741424560547 13.382689476013184 22.041709899902344 C13.357664108276367 21.7789363861084 13.28884220123291 21.697601318359375 13.12617301940918 21.716371536254883 C13.038580894470215 21.722627639770508 13.026068687438965 21.741397857666016 13.032325744628906 21.866527557373047 L13.08863353729248 22.410844802856445 M14.433784484863281 21.497392654418945 C14.383731842041016 21.503650665283203 14.377476692199707 21.534931182861328 14.396245956420898 21.62252426147461 L14.633993148803711 22.779979705810547 C14.652763366699219 22.867568969726562 14.67153263092041 22.892595291137695 14.727840423583984 22.880084991455078 L14.796663284301758 22.867568969726562 L14.821688652038574 22.98644256591797 L14.314910888671875 23.092803955078125 L14.289884567260742 22.97393035888672 L14.3587064743042 22.96141815185547 C14.41501522064209 22.948904037475586 14.421272277832031 22.917621612548828 14.402502059936523 22.83003044128418 L14.164754867553711 21.6788330078125 C14.14598560333252 21.59123992919922 14.133471488952637 21.56621551513672 14.083419799804688 21.57872772216797 C13.977058410644531 21.60375213623047 13.927007675170898 21.797704696655273 13.970803260803223 22.123044967651367 L13.90198040008545 22.135555267333984 L13.79561996459961 21.528675079345703 L14.67153263092041 21.34723663330078 L14.821688652038574 21.947860717773438 L14.752867698669434 21.96037483215332 C14.659019470214844 21.63503646850586 14.540145874023438 21.472366333007812 14.433784484863281 21.497392654418945 M15.071949005126953 21.43482780456543 C15.115745544433594 21.24713134765625 15.203336715698242 21.13451385498047 15.353492736816406 21.084461212158203 C15.503649711608887 21.034412384033203 15.641292572021484 21.071949005126953 15.791448593139648 21.20333480834961 C15.922836303710938 21.322208404541016 16.029197692871094 21.509904861450195 16.110530853271484 21.741397857666016 C16.185609817504883 21.972888946533203 16.20438003540039 22.16058349609375 16.166839599609375 22.34827995300293 C16.123044967651367 22.548486709594727 16.029197692871094 22.67361831665039 15.885296821594238 22.71741485595703 C15.741397857666016 22.767465591430664 15.603753089904785 22.723670959472656 15.44734001159668 22.58602523803711 C15.303441047668457 22.454639434814453 15.209593772888184 22.29822540283203 15.134514808654785 22.06047821044922 C15.053180694580078 21.835243225097656 15.03441047668457 21.61626625061035 15.071949005126953 21.43482780456543 L15.071949005126953 21.43482780456543 M15.847758293151855 22.604795455932617 C16.00417137145996 22.554744720458984 16.00417137145996 22.29822540283203 15.847758293151855 21.835243225097656 C15.697601318359375 21.366004943847656 15.547445297241211 21.159542083740234 15.391032218933105 21.209592819213867 C15.234619140625 21.2596435546875 15.234619140625 21.516162872314453 15.391032218933105 21.979145050048828 C15.54118824005127 22.448383331298828 15.69134521484375 22.654850006103516 15.847758293151855 22.604795455932617 M16.667362213134766 22.279457092285156 C16.773723602294922 22.210636138916016 16.76120948791504 22.135555267333984 16.67361831665039 21.954116821289062 L16.26068687438965 21.059436798095703 L16.21689224243164 21.028154373168945 C16.173095703125 20.996871948242188 16.141815185546875 20.971845626831055 16.09176254272461 20.996871948242188 L16.079248428344727 21.003128051757812 L16.029197692871094 20.896766662597656 L16.342021942138672 20.75286865234375 L17.242961883544922 21.459854125976562 L16.9864444732666 20.90302276611328 C16.892597198486328 20.702816009521484 16.842544555664062 20.65276336669922 16.7174129486084 20.70907211303711 L16.667362213134766 20.596454620361328 L17.03023910522461 20.427528381347656 L17.080291748046875 20.533889770507812 C16.980186462402344 20.590198516845703 16.9864444732666 20.66527557373047 17.07403564453125 20.85922622680664 L17.605838775634766 21.997913360595703 L17.524505615234375 22.03545379638672 L16.410844802856445 21.159542083740234 L16.76120948791504 21.91657829284668 C16.848800659179688 22.10427474975586 16.911365509033203 22.16058349609375 17.03023910522461 22.110530853271484 L17.080291748046875 22.21689224243164 L16.723670959472656 22.379562377929688 L16.667362213134766 22.279457092285156 M18.725753784179688 20.05213737487793 L18.66944694519043 20.089675903320312 C18.431699752807617 19.833158493041992 18.281543731689453 19.78310775756836 18.11261749267578 19.901981353759766 C18.043794631958008 19.945775985717773 18.037538528442383 19.96454620361328 18.1001033782959 20.058395385742188 L18.375391006469727 20.458810806274414 C18.38164710998535 20.458810806274414 18.387903213500977 20.452552795410156 18.394161224365234 20.44629669189453 C18.494264602661133 20.37747573852539 18.48175048828125 20.277372360229492 18.375391006469727 20.077163696289062 L18.431699752807617 20.039623260498047 L18.857141494750977 20.659019470214844 L18.80083465576172 20.696557998657227 C18.65693473815918 20.52137565612793 18.563087463378906 20.477581024169922 18.462982177734375 20.546401977539062 L18.450468063354492 20.558914184570312 L18.757038116455078 21.009384155273438 C18.807090759277344 21.084461212158203 18.832117080688477 21.10323143005371 18.88216781616211 21.065692901611328 L18.963504791259766 21.009384155273438 L19.032325744628906 21.10948944091797 L18.58185577392578 21.416057586669922 L18.51303482055664 21.315954208374023 L18.5693416595459 21.27841567993164 C18.619396209716797 21.24713134765625 18.61313819885254 21.215850830078125 18.563087463378906 21.140769958496094 L17.906152725219727 20.18352508544922 C17.856098175048828 20.108444213867188 17.831073760986328 20.089675903320312 17.781021118164062 20.120960235595703 L17.724712371826172 20.158498764038086 L17.65589141845703 20.064651489257812 L18.387903213500977 19.564128875732422 L18.725753784179688 20.05213737487793 M20.045879364013672 20.38998794555664 C19.958290100097656 20.465068817138672 19.845672607421875 20.490093231201172 19.70802879333496 20.465068817138672 C19.50782012939453 20.42127227783203 19.29509735107422 20.28363037109375 19.101146697998047 20.058395385742188 C18.95098876953125 19.883211135864258 18.857141494750977 19.701770782470703 18.81334686279297 19.52033233642578 C18.769550323486328 19.32012367248535 18.807090759277344 19.176223754882812 18.932220458984375 19.076120376586914 C19.00729751586914 19.0135555267334 19.094890594482422 18.988529205322266 19.207508087158203 19.00729751586914 L19.188739776611328 18.86965560913086 L19.232532501220703 18.832117080688477 L19.676746368408203 19.32012367248535 L19.626693725585938 19.376434326171875 C19.33889389038086 19.132429122924805 19.132429122924805 19.05735206604004 19.019811630249023 19.151199340820312 C18.88216781616211 19.27007293701172 18.976015090942383 19.49530792236328 19.301355361938477 19.870698928833008 C19.626693725585938 20.25234603881836 19.826902389526367 20.37747573852539 19.97705841064453 20.246089935302734 C20.089675903320312 20.145984649658203 20.064651489257812 19.9520320892334 19.89572525024414 19.670490264892578 L19.97705841064453 19.65172004699707 C20.202293395996094 19.97705841064453 20.2210636138916 20.23983383178711 20.045879364013672 20.38998794555664" fill="black" fill-opacity="1.0" filling="0"/>
<path animation_id="26" d="M2.5464019775390625 6.594369411468506 L2.802920341491699 7.132429599761963 L2.0709075927734375 7.332637786865234 L2.2961416244506836 7.789363861083984 L3.0281543731689453 7.589155673980713 L3.253389358520508 8.045881271362305 L2.5338897705078125 8.239832878112793 L2.759124755859375 8.690301895141602 L3.4911365509033203 8.490093231201172 L3.722627639770508 8.946819305419922 L2.984358787536621 9.140771865844727 L3.2158498764038086 9.591240882873535 L3.9541187286376953 9.39728832244873 L4.279458045959473 10.029196739196777 C4.41710090637207 9.991657257080078 4.554744720458984 9.941605567932129 4.686131477355957 9.89155387878418 L2.9718456268310547 6.475495338439941 C2.846714973449707 6.531804084777832 2.702815055847168 6.569343090057373 2.5464019775390625 6.594369411468506 M4.554744720458984 6.788321018218994 C4.504692554473877 6.54431676864624 5.0552659034729 6.25651741027832 5.493222236633301 5.899895668029785 L4.911365985870361 4.729927062988281 C4.679874897003174 4.855057239532471 4.4233574867248535 5.0552659034729 4.166840553283691 5.3430657386779785 C4.098018646240234 5.411887168884277 4.035453796386719 5.486965179443359 3.9791440963745117 5.5620436668396 L4.554744720458984 6.788321018218994" fill="black" fill-opacity="1.0" filling="0"/>
<path animation_id="27" d="M5.862356185913086 4.704900741577148 C5.718456745147705 4.510948657989502 5.355578422546387 4.485922813415527 4.905109405517578 4.729927062988281 L5.486965179443359 5.899895668029785 C5.899895668029785 5.568300247192383 6.212721824645996 5.174139499664307 5.862356185913086 4.704900741577148 M2.9718456268310547 6.475495338439941 L4.679874897003174 9.885296821594238 C5.161626815795898 9.685089111328125 5.555787563323975 9.403545379638672 5.687174320220947 9.197080612182617 L4.948904991149902 7.632950782775879 L4.586027145385742 6.857142925262451 C4.567257404327393 6.832116603851318 4.554744720458984 6.807090759277344 4.554744720458984 6.782064914703369 L3.9791440963745117 5.555787563323975 C3.69134521484375 5.918664932250977 3.441084861755371 6.27528715133667 2.9718456268310547 6.475495338439941 M2.5464019775390625 6.594369411468506 C2.3149118423461914 6.631908416748047 2.0458812713623047 6.644421100616455 1.7205419540405273 6.6193952560424805 L2.0771636962890625 7.332637786865234 L2.809175491333008 7.132429599761963 L2.5464019775390625 6.594369411468506 M3.0344104766845703 7.589155673980713 L2.302398681640625 7.789363861083984 L2.527632713317871 8.239832878112793 L3.259645462036133 8.039624214172363 L3.0344104766845703 7.589155673980713 M3.4911365509033203 8.496350288391113 L2.759124755859375 8.696558952331543 L2.984358787536621 9.147027969360352 L3.722627639770508 8.946819305419922 L3.4911365509033203 8.496350288391113 M3.2095937728881836 9.59749698638916 L3.478623390197754 10.135558128356934 C3.735140800476074 10.148070335388184 4.010427474975586 10.10427474975586 4.2732014656066895 10.029196739196777 L3.947861671447754 9.39728832244873 L3.2095937728881836 9.59749698638916" fill="black" fill-opacity="1.0" filling="0"/>
<path animation_id="28" d="M5.480709075927734 5.906152248382568 L5.8060479164123535 6.556830406188965 C6.037539005279541 6.36287784576416 6.287799835205078 6.131386756896973 6.550573348999023 5.912408828735352 L5.943691253662109 4.823774814605713 C6.1564130783081055 5.249217987060547 5.862356185913086 5.605839252471924 5.480709075927734 5.906152248382568" fill="black" fill-opacity="1.0" filling="0"/>
<path animation_id="29" d="M4.586027145385742 6.857142925262451 C4.604796409606934 6.882168769836426 4.629822731018066 6.900938510894775 4.661105155944824 6.92596435546875 C4.986443996429443 7.157455921173096 5.374348163604736 6.919707775115967 5.8060479164123535 6.556830406188965 L5.480709075927734 5.906152248382568 C4.99895715713501 6.300312519073486 4.3858184814453125 6.600625514984131 4.586027145385742 6.857142925262451" fill="black" fill-opacity="1.0" filling="0"/>
<path animation_id="30" d="M4.586027145385742 6.857142925262451 C4.216892719268799 6.387904167175293 6.625651836395264 5.743483066558838 5.862356185913086 4.704900741577148 C5.649635314941406 4.410844802856445 4.9176225662231445 4.498435974121094 4.166840553283691 5.3430657386779785 C3.5787277221679688 5.987486839294434 3.322211265563965 6.757038593292236 1.7205419540405273 6.6193952560424805 L3.478623390197754 10.135558128356934 C4.367049217224121 10.179352760314941 5.449426174163818 9.572471618652344 5.687174320220947 9.203336715698242 L4.586027145385742 6.857142925262451 L4.586027145385742 6.857142925262451 M6.550573348999023 5.912408828735352 C5.79979133605957 6.54431676864624 5.161626815795898 7.282586097717285 4.661105155944824 6.92596435546875 C4.629822731018066 6.900938510894775 4.604796409606934 6.882168769836426 4.586027145385742 6.857142925262451 C4.23566198348999 6.406673908233643 6.444212913513184 5.793534755706787 5.937434673309326 4.823774814605713 L6.550573348999023 5.912408828735352 L6.550573348999023 5.912408828735352" fill="black" fill-opacity="1.0" filling="0"/>
<path animation_id="31" d="M21.453598022460938 6.594369411468506 L21.190824508666992 7.132429599761963 L21.91657829284668 7.332637786865234 L21.69134521484375 7.789363861083984 L20.959331512451172 7.589155673980713 L20.73409652709961 8.045881271362305 L21.466110229492188 8.246089935302734 L21.240875244140625 8.696558952331543 L20.508861541748047 8.496350288391113 L20.277372360229492 8.953076362609863 L21.009384155273438 9.147027969360352 L20.784149169921875 9.59749698638916 L20.045879364013672 9.403545379638672 L19.720542907714844 10.035452842712402 C19.58289909362793 9.99791431427002 19.445255279541016 9.94786262512207 19.31386947631836 9.897809982299805 L21.021896362304688 6.48800802230835 C21.15328598022461 6.531804084777832 21.29092788696289 6.569343090057373 21.453598022460938 6.594369411468506 M19.445255279541016 6.788321018218994 C19.49530792236328 6.54431676864624 18.944732666015625 6.25651741027832 18.506776809692383 5.899895668029785 L19.094890594482422 4.729927062988281 C19.32638168334961 4.855057239532471 19.58289909362793 5.0552659034729 19.83941650390625 5.3430657386779785 C19.901981353759766 5.411887168884277 19.96454620361328 5.486965179443359 20.027111053466797 5.5620436668396 L19.445255279541016 6.788321018218994" fill="black" fill-opacity="1.0" filling="0"/>
<path animation_id="32" d="M18.131385803222656 4.704900741577148 C18.275287628173828 4.510948657989502 18.638164520263672 4.485922813415527 19.088634490966797 4.729927062988281 L18.50052261352539 5.899895668029785 C18.1001033782959 5.568300247192383 17.787277221679688 5.174139499664307 18.131385803222656 4.704900741577148 M21.028154373168945 6.475495338439941 L19.32012367248535 9.885296821594238 C18.84463119506836 9.685089111328125 18.444211959838867 9.403545379638672 18.31282615661621 9.197080612182617 L19.413970947265625 6.850886344909668 C19.432743072509766 6.825860023498535 19.445255279541016 6.8008341789245605 19.445255279541016 6.775808334350586 L20.020854949951172 5.549530506134033 C20.30865478515625 5.918664932250977 20.558914184570312 6.27528715133667 21.028154373168945 6.475495338439941 M21.453598022460938 6.594369411468506 C21.685089111328125 6.631908416748047 21.954116821289062 6.644421100616455 22.279457092285156 6.6193952560424805 L21.922836303710938 7.332637786865234 L21.197078704833984 7.132429599761963 L21.453598022460938 6.594369411468506 M20.96558952331543 7.589155673980713 L21.697601318359375 7.789363861083984 L21.472366333007812 8.239832878112793 L20.740354537963867 8.039624214172363 L20.96558952331543 7.589155673980713 M20.508861541748047 8.496350288391113 L21.240875244140625 8.696558952331543 L21.015640258789062 9.147027969360352 L20.28363037109375 8.953076362609863 L20.508861541748047 8.496350288391113 M20.784149169921875 9.59749698638916 L20.515119552612305 10.135558128356934 C20.258602142333984 10.148070335388184 19.983314514160156 10.10427474975586 19.720542907714844 10.029196739196777 L20.045879364013672 9.39728832244873 L20.784149169921875 9.59749698638916" fill="black" fill-opacity="1.0" filling="0"/>
<path animation_id="33" d="M18.51303482055664 5.906152248382568 L18.18769645690918 6.556830406188965 C17.95620346069336 6.36287784576416 17.712200164794922 6.131386756896973 17.449424743652344 5.912408828735352 L18.05630874633789 4.823774814605713 C17.837329864501953 5.249217987060547 18.13764190673828 5.605839252471924 18.51303482055664 5.906152248382568" fill="black" fill-opacity="1.0" filling="0"/>
<path animation_id="34" d="M19.413970947265625 6.857142925262451 C19.39520263671875 6.882168769836426 19.37017822265625 6.900938510894775 19.33889389038086 6.92596435546875 C19.00729751586914 7.157455921173096 18.625652313232422 6.919707775115967 18.18769645690918 6.556830406188965 L18.51303482055664 5.906152248382568 C18.99478530883789 6.300312519073486 19.60792350769043 6.600625514984131 19.413970947265625 6.857142925262451" fill="black" fill-opacity="1.0" filling="0"/>
<path animation_id="35" d="M19.413970947265625 6.857142925262451 C19.776851654052734 6.387904167175293 17.374347686767578 5.743483066558838 18.13764190673828 4.704900741577148 C18.35662078857422 4.410844802856445 19.08237648010254 4.498435974121094 19.83941650390625 5.3430657386779785 C20.42127227783203 5.987486839294434 20.67778778076172 6.757038593292236 22.279457092285156 6.6193952560424805 L20.515119552612305 10.135558128356934 C19.626693725585938 10.179352760314941 18.544315338134766 9.572471618652344 18.306570053100586 9.203336715698242 L19.413970947265625 6.857142925262451 L19.413970947265625 6.857142925262451 M17.449424743652344 5.912408828735352 C18.200206756591797 6.54431676864624 18.832117080688477 7.282586097717285 19.332637786865234 6.92596435546875 C19.363920211791992 6.900938510894775 19.388946533203125 6.882168769836426 19.407716751098633 6.857142925262451 C19.758079528808594 6.406673908233643 17.549530029296875 5.793534755706787 18.05630874633789 4.823774814605713 L17.449424743652344 5.912408828735352 L17.449424743652344 5.912408828735352" fill="black" fill-opacity="1.0" filling="0"/>
<path animation_id="36" d="M14.196037292480469 5.793534755706787 C14.039624214172363 5.918664932250977 13.764337539672852 6.106360912322998 13.457768440246582 6.287799835205078 L13.457768440246582 8.72158432006836 C13.80187702178955 8.515120506286621 14.152241706848145 8.289885520935059 14.483837127685547 8.10844612121582 L14.483837127685547 5.593326568603516 C14.371219635009766 5.668404579162598 14.271116256713867 5.7372260093688965 14.196037292480469 5.793534755706787 M15.835245132446289 5.136600494384766 L15.791448593139648 5.142857074737549 L15.441083908081055 7.770594120025635 L15.484879493713379 7.764337539672852 C15.766423225402832 7.764337539672852 16.03545379638672 7.858185291290283 16.279457092285156 8.00208568572998 L17.055265426635742 5.61835241317749 C16.68613052368164 5.336809158325195 16.27320098876953 5.136600494384766 15.835245132446289 5.136600494384766 M19.33889389038086 6.92596435546875 C19.0135555267334 7.1511993408203125 18.631906509399414 6.92596435546875 18.200206756591797 6.56308650970459 L17.18665313720703 8.677788734436035 C17.59958267211914 9.03441047668457 17.962461471557617 9.32846736907959 18.306570053100586 9.197080612182617 L19.407716751098633 6.857142925262451 C19.39520263671875 6.882168769836426 19.37017822265625 6.907195091247559 19.33889389038086 6.92596435546875 M4.661105155944824 6.92596435546875 C4.629822731018066 6.900938510894775 4.604796409606934 6.882168769836426 4.586027145385742 6.857142925262451 L5.687174320220947 9.197080612182617 C6.031282901763916 9.32846736907959 6.400417327880859 9.03441047668457 6.807090759277344 8.677788734436035 L5.793534755706787 6.56308650970459 C5.36183500289917 6.92596435546875 4.986443996429443 7.157455921173096 4.661105155944824 6.92596435546875 M12.0 6.919707775115967 C11.899895668029785 6.919707775115967 11.762251853942871 6.882168769836426 11.612095832824707 6.832116603851318 L11.612095832824707 9.27841567993164 C11.75599479675293 9.32846736907959 11.881125450134277 9.359749794006348 12.0 9.359749794006348 C12.118873596191406 9.359749794006348 12.250260353088379 9.32846736907959 12.387904167175293 9.27841567993164 L12.387904167175293 6.832116603851318 C12.237748146057129 6.888425350189209 12.100103378295898 6.919707775115967 12.0 6.919707775115967 M8.158498764038086 5.136600494384766 C7.7205424308776855 5.136600494384766 7.313868522644043 5.336809158325195 6.932221412658691 5.612095832824707 L7.708028793334961 7.995829105377197 C7.952033042907715 7.858185291290283 8.221063613891602 7.758081436157227 8.502607345581055 7.758081436157227 L8.546401977539062 7.764337539672852 L8.202293395996094 5.136600494384766 L8.158498764038086 5.136600494384766 M9.797706604003906 5.793534755706787 C9.722627639770508 5.7372260093688965 9.628779411315918 5.6621479988098145 9.509905815124512 5.587069988250732 L9.509905815124512 8.10844612121582 C9.841501235961914 8.283628463745117 10.191865921020508 8.50886344909668 10.529718399047852 8.72158432006836 L10.529718399047852 6.287799835205078 C10.229405403137207 6.106360912322998 9.954118728637695 5.918664932250977 9.797706604003906 5.793534755706787" fill="black" fill-opacity="1.0" filling="0"/>
<path animation_id="37" d="M10.535974502563477 6.287799835205078 L10.535974502563477 8.72158432006836 C10.917622566223145 8.953076362609863 11.293013572692871 9.172054290771484 11.612095832824707 9.27841567993164 L11.612095832824707 6.832116603851318 C11.293013572692871 6.719499588012695 10.892597198486328 6.506777763366699 10.535974502563477 6.287799835205078 M8.202293395996094 5.136600494384766 L8.546401977539062 7.764337539672852 C8.81543254852295 7.776851177215576 9.153285026550293 7.914494037628174 9.509905815124512 8.10844612121582 L9.509905815124512 5.593326568603516 C9.18456745147705 5.3806047439575195 8.70907211303711 5.149113655090332 8.202293395996094 5.136600494384766 M5.793534755706787 6.56308650970459 L6.807090759277344 8.677788734436035 C7.0823774337768555 8.440041542053223 7.376433849334717 8.177268028259277 7.708028793334961 7.995829105377197 L6.932221412658691 5.612095832824707 C6.519290924072266 5.906152248382568 6.143899917602539 6.27528715133667 5.793534755706787 6.56308650970459 M12.387904167175293 6.832116603851318 L12.387904167175293 9.27841567993164 C12.706986427307129 9.172054290771484 13.082377433776855 8.953076362609863 13.464024543762207 8.72158432006836 L13.464024543762207 6.287799835205078 C13.107402801513672 6.506777763366699 12.706986427307129 6.719499588012695 12.387904167175293 6.832116603851318 M14.483837127685547 5.593326568603516 L14.483837127685547 8.114702224731445 C14.840457916259766 7.920750617980957 15.172054290771484 7.783107280731201 15.44734001159668 7.770594120025635 L15.79770565032959 5.142857074737549 C15.29092788696289 5.149113655090332 14.81543254852295 5.3806047439575195 14.483837127685547 5.593326568603516 M17.067779541015625 5.612095832824707 L16.291969299316406 7.995829105377197 C16.6173095703125 8.177268028259277 16.917621612548828 8.440041542053223 17.192909240722656 8.677788734436035 L18.206464767456055 6.56308650970459 C17.856098175048828 6.27528715133667 17.480709075927734 5.906152248382568 17.067779541015625 5.612095832824707" fill="black" fill-opacity="1.0" filling="0"/>
<path animation_id="38" d="M12.0 9.353492736816406 C12.882168769836426 9.353492736816406 14.56517219543457 7.758081436157227 15.49113655090332 7.758081436157227 C16.723670959472656 7.758081436157227 17.562044143676758 9.478623390197754 18.31282615661621 9.197080612182617 L19.413970947265625 6.857142925262451 C19.39520263671875 6.882168769836426 19.37017822265625 6.900938510894775 19.33889389038086 6.92596435546875 C18.51303482055664 7.5078206062316895 17.336809158325195 5.130343914031982 15.835245132446289 5.130343914031982 C15.134514808654785 5.130343914031982 14.483837127685547 5.568300247192383 14.196037292480469 5.787278175354004 C13.764337539672852 6.131386756896973 12.494264602661133 6.913451671600342 12.0 6.913451671600342 C11.50573444366455 6.913451671600342 10.235662460327148 6.131386756896973 9.797706604003906 5.787278175354004 C9.509905815124512 5.5620436668396 8.859228134155273 5.130343914031982 8.158498764038086 5.130343914031982 C6.663190841674805 5.130343914031982 5.486965179443359 7.5078206062316895 4.661105155944824 6.92596435546875 C4.629822731018066 6.900938510894775 4.604796409606934 6.882168769836426 4.586027145385742 6.857142925262451 L5.687174320220947 9.197080612182617 C6.4379563331604 9.478623390197754 7.276329517364502 7.758081436157227 8.50886344909668 7.758081436157227 C9.43482780456543 7.758081436157227 11.1240873336792 9.353492736816406 12.0 9.353492736816406" fill="black" fill-opacity="1.0" filling="0"/>
<path animation_id="39" d="M12.037538528442383 4.529718399047852 C14.30865478515625 4.529718399047852 16.154327392578125 3.5286760330200195 16.154327392578125 2.302398681640625 C16.154327392578125 1.0698652267456055 14.314910888671875 0.07507801055908203 12.037538528442383 0.07507801055908203 C9.766424179077148 0.07507801055908203 7.920750617980957 1.0761213302612305 7.920750617980957 2.302398681640625 C7.920750617980957 3.5349321365356445 9.766424179077148 4.529718399047852 12.037538528442383 4.529718399047852" fill="black" fill-opacity="1.0" filling="0"/>
<path animation_id="40" d="M12.037538528442383 4.529718399047852 C14.30865478515625 4.529718399047852 16.154327392578125 3.5286760330200195 16.154327392578125 2.302398681640625 C16.154327392578125 1.0698652267456055 14.314910888671875 0.07507801055908203 12.037538528442383 0.07507801055908203 C9.766424179077148 0.07507801055908203 7.920750617980957 1.0761213302612305 7.920750617980957 2.302398681640625 C7.920750617980957 3.5349321365356445 9.766424179077148 4.529718399047852 12.037538528442383 4.529718399047852 L12.037538528442383 4.529718399047852" fill="black" fill-opacity="1.0" filling="0"/>
<path animation_id="41" d="M12.043795585632324 4.166840553283691 C14.064650535583496 4.166840553283691 15.703857421875 3.32846736907959 15.703857421875 2.302398681640625 C15.697601318359375 1.2700729370117188 14.058393478393555 0.4379568099975586 12.043795585632324 0.4379568099975586 C10.022940635681152 0.4379568099975586 8.383732795715332 1.2700729370117188 8.383732795715332 2.302398681640625 C8.383732795715332 3.334723472595215 10.016684532165527 4.166840553283691 12.043795585632324 4.166840553283691" fill="black" fill-opacity="1.0" filling="0"/>
<path animation_id="42" d="M12.043795585632324 4.166840553283691 C14.064650535583496 4.166840553283691 15.703857421875 3.32846736907959 15.703857421875 2.302398681640625 C15.697601318359375 1.2700729370117188 14.058393478393555 0.4379568099975586 12.043795585632324 0.4379568099975586 C10.022940635681152 0.4379568099975586 8.383732795715332 1.2700729370117188 8.383732795715332 2.302398681640625 C8.383732795715332 3.334723472595215 10.016684532165527 4.166840553283691 12.043795585632324 4.166840553283691" fill="black" fill-opacity="1.0" filling="0"/>
<path animation_id="43" d="M12.043795585632324 3.722627639770508 C13.68925952911377 3.722627639770508 15.02189826965332 3.190823554992676 15.02189826965332 2.5276336669921875 C15.02189826965332 1.8706979751586914 13.683002471923828 1.3388948440551758 12.043795585632324 1.3388948440551758 C10.398331642150879 1.3388948440551758 9.065692901611328 1.8706979751586914 9.065692901611328 2.5276336669921875 C9.065692901611328 3.190823554992676 10.398331642150879 3.722627639770508 12.043795585632324 3.722627639770508" fill="black" fill-opacity="1.0" filling="0"/>
<path animation_id="44" d="M12.043795585632324 3.722627639770508 C13.68925952911377 3.722627639770508 15.02189826965332 3.190823554992676 15.02189826965332 2.5276336669921875 C15.02189826965332 1.8706979751586914 13.683002471923828 1.3388948440551758 12.043795585632324 1.3388948440551758 C10.398331642150879 1.3388948440551758 9.065692901611328 1.8706979751586914 9.065692901611328 2.5276336669921875 C9.065692901611328 3.190823554992676 10.398331642150879 3.722627639770508 12.043795585632324 3.722627639770508" fill="black" fill-opacity="1.0" filling="0"/>
<path animation_id="45" d="M12.037538528442383 1.6830024719238281 C10.45464038848877 1.6830024719238281 9.172054290771484 2.9655895233154297 9.172054290771484 4.548487663269043 C9.172054290771484 6.131386756896973 10.45464038848877 7.413972854614258 12.037538528442383 7.413972854614258 L12.0 7.413972854614258 C13.58289909362793 7.413972854614258 14.865485191345215 6.131386756896973 14.865485191345215 4.548487663269043 C14.865485191345215 2.9655895233154297 13.58289909362793 1.6830024719238281 12.0 1.6830024719238281 L12.037538528442383 1.6830024719238281" fill="black" fill-opacity="1.0" filling="0"/>
<path animation_id="46" d="M12.037538528442383 1.6830024719238281 C10.45464038848877 1.6830024719238281 9.172054290771484 2.9655895233154297 9.172054290771484 4.548487663269043 C9.172054290771484 6.131386756896973 10.45464038848877 7.413972854614258 12.037538528442383 7.413972854614258 L12.0 7.413972854614258 C13.58289909362793 7.413972854614258 14.865485191345215 6.131386756896973 14.865485191345215 4.548487663269043 C14.865485191345215 2.9655895233154297 13.58289909362793 1.6830024719238281 12.0 1.6830024719238281 L12.037538528442383 1.6830024719238281 L12.037538528442383 1.6830024719238281" fill="black" fill-opacity="1.0" filling="0"/>
<path animation_id="47" d="M11.555787086486816 6.919707775115967 L10.967674255371094 5.918664932250977 L9.885296821594238 5.743483066558838 L9.616266250610352 6.087591648101807 C9.628779411315918 6.106360912322998 9.63503646850586 6.125130653381348 9.64754867553711 6.137643337249756 L9.69134521484375 6.206464767456055 C10.05422306060791 6.719499588012695 10.573513984680176 7.10740327835083 11.186653137207031 7.295098781585693 L11.299270629882812 7.313868522644043 L11.555787086486816 6.919707775115967 M10.81751823425293 4.154327392578125 L11.280500411987305 5.587069988250732 L12.744524955749512 5.587069988250732 L13.207508087158203 4.154327392578125 L12.012513160705566 3.2846717834472656 L10.81751823425293 4.154327392578125 M12.012513160705566 2.7090721130371094 L12.907195091247559 2.127216339111328 L12.907195091247559 1.8394155502319336 C12.625651359558105 1.7455682754516602 12.331595420837402 1.6892595291137695 12.018770217895508 1.6892595291137695 C11.712200164794922 1.6892595291137695 11.411887168884277 1.7455682754516602 11.130343437194824 1.8394155502319336 L11.130343437194824 2.127216339111328 L12.012513160705566 2.7090721130371094 M10.360793113708496 3.697601318359375 L10.392075538635254 2.5589160919189453 L10.16058349609375 2.377476692199707 C10.035452842712402 2.483837127685547 9.922836303710938 2.596454620361328 9.822731971740723 2.715329170227051 L9.810218811035156 2.727841377258301 C9.484880447387695 3.12825870513916 9.265901565551758 3.616267204284668 9.190823554992676 4.1480712890625 L9.447340965270996 4.260688304901123 L10.360793113708496 3.697601318359375 M13.069864273071289 5.918664932250977 L12.481751441955566 6.919707775115967 L12.738268852233887 7.313868522644043 L12.844630241394043 7.295098781585693 C13.464024543762207 7.10740327835083 14.00208568572998 6.706986427307129 14.3587064743042 6.181439399719238 L14.383731842041016 6.143899917602539 C14.396245956420898 6.125130653381348 14.408759117126465 6.100104331970215 14.421272277832031 6.081334590911865 L14.14598560333252 5.7372260093688965 L13.069864273071289 5.918664932250977 M13.670490264892578 3.697601318359375 L14.57768440246582 4.266944408416748 L14.83420181274414 4.154327392578125 C14.759122848510742 3.616267204284668 14.540145874023438 3.12825870513916 14.208550453186035 2.727841377258301 C14.10844612121582 2.602710723876953 13.989572525024414 2.4900941848754883 13.870697975158691 2.383732795715332 L13.639206886291504 2.5651721954345703 L13.670490264892578 3.697601318359375" fill="black" fill-opacity="1.0" filling="0"/></svg>