<?xml version="1.0" encoding="iso-8859-1"?><svg height="200px" viewBox="0.0 0.0 24.0 24.0" width="200px" xmlns="http://www.w3.org/2000/svg"><path animation_id="0" d="M1.2802324295043945 9.67994213104248 L0.3707456588745117 9.67994213104248 L0.3707456588745117 10.786386489868164 L1.1991310119628906 10.786386489868164 L1.1991310119628906 10.902244567871094 L0.3707456588745117 10.902244567871094 L0.3707456588745117 12.217233657836914 L0.0 12.217233657836914 L0.0 9.56408405303955 L1.2802324295043945 9.56408405303955 L1.2802324295043945 9.67994213104248 M3.284576416015625 12.217233657836914 L2.8443164825439453 12.217233657836914 L2.0275163650512695 10.809557914733887 C2.351919174194336 10.809557914733887 2.566256523132324 10.792179107666016 2.664735794067383 10.751628875732422 C2.8616943359375 10.676321029663086 2.96596622467041 10.502533912658691 2.96596622467041 10.241853713989258 C2.96596622467041 10.073859214782715 2.90224552154541 9.934829711914062 2.7805938720703125 9.836350440979004 C2.658942222595215 9.737871170043945 2.5083274841308594 9.685734748840332 2.334540367126465 9.685734748840332 L1.946415901184082 9.685734748840332 L1.946415901184082 12.217233657836914 L1.575669288635254 12.217233657836914 L1.575669288635254 9.56408405303955 L2.4330196380615234 9.56408405303955 C2.664735794067383 9.56408405303955 2.8616943359375 9.622013092041016 3.023895263671875 9.737871170043945 C3.2034759521484375 9.871108055114746 3.296161651611328 10.04489517211914 3.296161651611328 10.270817756652832 C3.296161651611328 10.473569869995117 3.209268569946289 10.635770797729492 3.041274070739746 10.75742244720459 C2.90224552154541 10.855901718139648 2.7284584045410156 10.919623374938965 2.5083274841308594 10.948588371276855 L3.284576416015625 12.217233657836914 M4.987689971923828 11.37147045135498 L4.419985771179199 10.085445404052734 L3.852280616760254 11.37147045135498 L4.987689971923828 11.37147045135498 M5.787110805511475 12.275162696838379 L5.410572052001953 12.275162696838379 L5.051412105560303 11.48732852935791 L3.800145149230957 11.48732852935791 L3.452570915222168 12.275162696838379 L3.3251266479492188 12.275162696838379 L4.54742956161499 9.506155014038086 L5.787110805511475 12.275162696838379 M7.855177879333496 12.246198654174805 L6.08834171295166 9.986966133117676 L6.08834171295166 12.194062232971191 L5.9724836349487305 12.194062232971191 L5.9724836349487305 9.535120010375977 L6.163649559020996 9.535120010375977 L7.739319801330566 11.493121147155762 L7.739319801330566 9.535120010375977 L7.855177879333496 9.535120010375977 L7.855177879333496 12.246198654174805 M10.61259937286377 11.881245613098145 C10.375091552734375 12.124547958374023 10.027517318725586 12.246198654174805 9.57567024230957 12.246198654174805 C9.187545776367188 12.246198654174805 8.874728202819824 12.118754386901855 8.63722038269043 11.858074188232422 C8.40550422668457 11.60318660736084 8.28964614868164 11.284576416015625 8.28964614868164 10.896451950073242 C8.28964614868164 10.450398445129395 8.428674697875977 10.108616828918457 8.71252727508545 9.871108055114746 C8.973207473754883 9.650978088378906 9.332368850708008 9.535120010375977 9.78421401977539 9.535120010375977 C10.06806755065918 9.535120010375977 10.346126556396484 9.656770706176758 10.606807708740234 9.90007209777832 L10.537291526794434 9.992758750915527 C10.253439903259277 9.790006637573242 9.969587326049805 9.6915283203125 9.685734748840332 9.6915283203125 C9.367125511169434 9.6915283203125 9.118030548095703 9.813179016113281 8.950037002563477 10.062273979187012 C8.799420356750488 10.276611328125 8.724113464355469 10.554670333862305 8.724113464355469 10.884865760803223 C8.724113464355469 11.22664737701416 8.799420356750488 11.510499954223633 8.950037002563477 11.724837303161621 C9.123823165893555 11.973932266235352 9.372919082641602 12.095582962036133 9.703113555908203 12.095582962036133 C10.021723747253418 12.095582962036133 10.299783706665039 11.997103691101074 10.531499862670898 11.800145149230957 L10.61259937286377 11.881245613098145 L10.61259937286377 11.881245613098145 M24.0 12.217233657836914 L22.719768524169922 12.217233657836914 L22.719768524169922 9.56408405303955 L24.0 9.56408405303955 L24.0 9.67994213104248 L23.096309661865234 9.67994213104248 L23.096309661865234 10.786386489868164 L23.918899536132812 10.786386489868164 L23.918899536132812 10.902244567871094 L23.096309661865234 10.902244567871094 L23.096309661865234 12.101375579833984 L24.0 12.101375579833984 L24.0 12.217233657836914 M15.212165832519531 12.211441040039062 L14.771904945373535 12.211441040039062 L13.95510482788086 10.797972679138184 C14.279508590698242 10.797972679138184 14.493844985961914 10.780593872070312 14.592324256896973 10.740043640136719 C14.789283752441406 10.664735794067383 14.893556594848633 10.490948677062988 14.893556594848633 10.230267524719238 C14.893556594848633 10.062273979187012 14.829833984375 9.92324447631836 14.708182334899902 9.824764251708984 C14.586532592773438 9.726284980773926 14.43591594696045 9.674148559570312 14.262128829956055 9.674148559570312 L13.874004364013672 9.674148559570312 L13.874004364013672 12.211441040039062 L13.503259658813477 12.211441040039062 L13.503259658813477 9.552497863769531 L14.366401672363281 9.552497863769531 C14.59811782836914 9.552497863769531 14.795076370239258 9.610426902770996 14.95727825164795 9.726284980773926 C15.136857032775879 9.859521865844727 15.229543685913086 10.033308982849121 15.229543685913086 10.259232521057129 C15.229543685913086 10.461983680725098 15.142650604248047 10.624185562133789 14.97465705871582 10.74583625793457 C14.835626602172852 10.844315528869629 14.661840438842773 10.908037185668945 14.441709518432617 10.937002182006836 L15.212165832519531 12.211441040039062 L15.212165832519531 12.211441040039062 M17.78421401977539 10.879073143005371 C17.78421401977539 10.554670333862305 17.708908081054688 10.270817756652832 17.558292388916016 10.033308982849121 C17.384504318237305 9.761042594909668 17.146995544433594 9.622013092041016 16.834178924560547 9.622013092041016 C16.51556968688965 9.622013092041016 16.272266387939453 9.761042594909668 16.104272842407227 10.04489517211914 C15.959449768066406 10.282403945922852 15.889934539794922 10.566256523132324 15.889934539794922 10.902244567871094 C15.889934539794922 11.220854759216309 15.965243339538574 11.498913764953613 16.12165069580078 11.730629920959473 C16.29543685913086 11.997103691101074 16.532947540283203 12.130340576171875 16.83997344970703 12.130340576171875 C17.152788162231445 12.130340576171875 17.39029884338379 11.991310119628906 17.564085006713867 11.71904468536377 C17.708908081054688 11.48732852935791 17.78421401977539 11.209268569946289 17.78421401977539 10.879073143005371 M18.212890625 10.89065933227539 C18.212890625 11.301955223083496 18.079652786254883 11.637943267822266 17.818973541259766 11.892831802368164 C17.55249786376953 12.147719383239746 17.216510772705078 12.275162696838379 16.805213928222656 12.275162696838379 C16.422882080078125 12.275162696838379 16.104272842407227 12.141925811767578 15.860969543457031 11.881245613098145 C15.617669105529785 11.620564460754395 15.496017456054688 11.296162605285645 15.496017456054688 10.908037185668945 C15.496017456054688 10.50832748413086 15.617669105529785 10.178132057189941 15.8667631149292 9.91165828704834 C16.110065460205078 9.645184516906738 16.43446922302246 9.511947631835938 16.828386306762695 9.511947631835938 C17.233888626098633 9.511947631835938 17.564085006713867 9.639391899108887 17.830556869506836 9.90007209777832 C18.085447311401367 10.154959678649902 18.212890625 10.485156059265137 18.212890625 10.89065933227539 L18.212890625 10.89065933227539 M20.17089080810547 11.533671379089355 C20.17089080810547 11.753801345825195 20.101375579833984 11.921795845031738 19.956554412841797 12.049239158630371 C19.811731338500977 12.17668342590332 19.632150650024414 12.234612464904785 19.406227111816406 12.234612464904785 C19.191890716552734 12.234612464904785 19.012311935424805 12.17668342590332 18.8616943359375 12.055032730102539 C18.705286026000977 11.92758846282959 18.62418556213379 11.753801345825195 18.62418556213379 11.545257568359375 L18.62418556213379 9.552497863769531 L18.994930267333984 9.552497863769531 L18.994930267333984 11.551050186157227 C18.994930267333984 11.701664924621582 19.041275024414062 11.829109191894531 19.139755249023438 11.933381080627441 C19.23823356628418 12.037653923034668 19.359886169433594 12.089790344238281 19.510499954223633 12.089790344238281 C19.666908264160156 12.089790344238281 19.794353485107422 12.037653923034668 19.892831802368164 11.933381080627441 C19.99710464477539 11.829109191894531 20.049240112304688 11.69587230682373 20.049240112304688 11.545257568359375 L20.049240112304688 9.552497863769531 L20.16510009765625 9.552497863769531 L20.16510009765625 11.533671379089355 L20.17089080810547 11.533671379089355 M21.972484588623047 10.218682289123535 C21.972484588623047 10.062273979187012 21.931934356689453 9.934829711914062 21.845041275024414 9.836350440979004 C21.75235366821289 9.726284980773926 21.63070297241211 9.668355941772461 21.480087280273438 9.668355941772461 L21.0745849609375 9.668355941772461 L21.0745849609375 10.769007682800293 L21.480087280273438 10.769007682800293 C21.63070297241211 10.769007682800293 21.75235366821289 10.711078643798828 21.845041275024414 10.601014137268066 C21.92613983154297 10.502533912658691 21.972484588623047 10.375090599060059 21.972484588623047 10.218682289123535 L21.972484588623047 10.218682289123535 M21.0745849609375 10.89065933227539 L21.0745849609375 12.211441040039062 L20.703838348388672 12.211441040039062 L20.703838348388672 9.552497863769531 L21.549602508544922 9.552497863769531 C21.763940811157227 9.552497863769531 21.937728881835938 9.610426902770996 22.082550048828125 9.720492362976074 C22.238956451416016 9.842143058776855 22.314266204833984 10.010137557983398 22.314266204833984 10.218682289123535 C22.314266204833984 10.293990135192871 22.30268096923828 10.357711791992188 22.285301208496094 10.415640830993652 C22.221580505371094 10.606806755065918 22.09992790222168 10.740043640136719 21.931934356689453 10.809557914733887 C21.810283660888672 10.8616943359375 21.63649559020996 10.884865760803223 21.410572052001953 10.884865760803223 L21.24258041381836 10.884865760803223 C21.16727066040039 10.89065933227539 21.10934066772461 10.89065933227539 21.0745849609375 10.89065933227539" fill="black" fill-opacity="1.0" filling="0"/>
<path animation_id="1" d="M13.190442085266113 9.969587326049805 C13.190442085266113 9.853729248046875 13.161477088928223 9.766836166381836 13.109341621398926 9.703113555908203 C13.057205200195312 9.639391899108887 12.970311164855957 9.604634284973145 12.848661422729492 9.604634284973145 C12.477914810180664 9.604634284973145 12.107169151306152 9.859521865844727 11.748008728027344 10.363504409790039 C11.412020683288574 10.832730293273926 11.23823356628418 11.249818801879883 11.23823356628418 11.614771842956543 C11.406227111816406 11.597393035888672 11.562636375427246 11.568428993225098 11.707459449768066 11.522085189819336 C11.887038230895996 11.469948768615723 12.06082534790039 11.388848304748535 12.22882080078125 11.284576416015625 C12.535843849182129 11.104996681213379 12.779146194458008 10.879073143005371 12.952933311462402 10.61259937286377 C13.109341621398926 10.386675834655762 13.190442085266113 10.172338485717773 13.190442085266113 9.969587326049805 L13.190442085266113 9.969587326049805 M10.26502513885498 14.094135284423828 C10.26502513885498 14.3084716796875 10.4098482131958 14.418537139892578 10.705286026000977 14.418537139892578 C10.780594825744629 14.418537139892578 10.844315528869629 14.412744522094727 10.896452903747559 14.395365715026855 C10.948588371276855 14.383779525756836 11.012310981750488 14.366401672363281 11.087617874145508 14.33743667602539 C11.301956176757812 14.244750022888184 11.464156150817871 14.07675552368164 11.568428993225098 13.827661514282227 C11.614771842956543 13.711803436279297 11.672700881958008 13.497465133666992 11.73642349243164 13.173063278198242 C11.203475952148438 13.306300163269043 10.826936721801758 13.445329666137695 10.601014137268066 13.5901517868042 C10.38088321685791 13.73497486114502 10.26502513885498 13.902969360351562 10.26502513885498 14.094135284423828 L10.26502513885498 14.094135284423828 M11.701665878295898 12.246198654174805 C11.95655345916748 12.246198654174805 12.211441040039062 12.118754386901855 12.477914810180664 11.858074188232422 C12.640115737915039 11.70745849609375 12.790731430053711 11.510499954223633 12.935554504394531 11.278783798217773 C12.941347122192383 11.272990226745605 12.952933311462402 11.267197608947754 12.970311164855957 11.255611419677734 C12.999276161193848 11.255611419677734 13.016654968261719 11.267197608947754 13.016654968261719 11.284576416015625 L13.0050687789917 11.307747840881348 C12.91817569732666 11.417813301086426 12.819696426391602 11.59160041809082 12.721217155456543 11.829109191894531 C12.593772888183594 12.124547958374023 12.472122192382812 12.501086235046387 12.350470542907715 12.958725929260254 C12.483707427978516 12.918174743652344 12.622736930847168 12.808110237121582 12.767560005187988 12.640115737915039 C12.900796890258789 12.443157196044922 12.987689971923828 12.32150650024414 13.028240203857422 12.275162696838379 L13.062997817993164 12.257783889770508 L13.086169242858887 12.28095531463623 L13.068791389465332 12.32150650024414 C12.952933311462402 12.477914810180664 12.831281661987305 12.634323120117188 12.715423583984375 12.790731430053711 C12.587980270385742 12.918174743652344 12.466328620910645 12.999276161193848 12.34467887878418 13.028240203857422 C12.280956268310547 13.248371124267578 12.217233657836914 13.427950859069824 12.153512954711914 13.561187744140625 C12.04344654083252 13.798696517944336 11.910210609436035 13.978277206420898 11.753801345825195 14.09992790222168 C11.551050186157227 14.250543594360352 11.35409164428711 14.354815483093262 11.162925720214844 14.42432975769043 C11.000723838806152 14.476466178894043 10.826936721801758 14.505431175231934 10.635771751403809 14.505431175231934 C10.456191062927246 14.505431175231934 10.31716251373291 14.470673561096191 10.218682289123535 14.401158332824707 C10.120203018188477 14.33743667602539 10.06806755065918 14.23316478729248 10.06806755065918 14.094135284423828 C10.06806755065918 13.908761978149414 10.189717292785645 13.729181289672852 10.438812255859375 13.561187744140625 C10.7284574508667 13.37002182006836 11.162925720214844 13.213613510131836 11.742216110229492 13.086169242858887 C11.782766342163086 12.877625465393066 11.8349027633667 12.692252159118652 11.904417037963867 12.535843849182129 C11.9681396484375 12.379435539245605 12.055033683776855 12.263577461242676 12.153512954711914 12.182476997375488 C12.07241153717041 12.228819847106934 11.99710464477539 12.257783889770508 11.92758846282959 12.28095531463623 C11.858074188232422 12.30412769317627 11.776973724365234 12.315712928771973 11.678494453430176 12.315712928771973 C11.429399490356445 12.315712928771973 11.226648330688477 12.257783889770508 11.076031684875488 12.147719383239746 C10.925416946411133 12.037653923034668 10.832730293273926 11.881245613098145 10.786386489868164 11.69587230682373 C10.514120101928711 11.666908264160156 10.305575370788574 11.568428993225098 10.14916706085205 11.400434494018555 C9.992759704589844 11.23823356628418 9.911659240722656 11.018102645874023 9.911659240722656 10.74583625793457 C9.911659240722656 10.4098482131958 10.021723747253418 10.137580871582031 10.236061096191406 9.929037094116211 C10.456191062927246 9.720492362976074 10.763216018676758 9.57567024230957 11.162925720214844 9.494568824768066 L11.180304527282715 9.517740249633789 C10.867487907409668 9.622013092041016 10.62997817993164 9.761042594909668 10.467777252197266 9.934829711914062 C10.270818710327148 10.14916706085205 10.17233943939209 10.427227020263672 10.17233943939209 10.763215065002441 C10.17233943939209 10.98913860321045 10.212889671325684 11.168718338012695 10.28819751739502 11.307747840881348 C10.39246940612793 11.48732852935791 10.554670333862305 11.59160041809082 10.786386489868164 11.614771842956543 L10.774801254272461 11.440984725952148 C10.774801254272461 10.983345031738281 10.960173606872559 10.566256523132324 11.325126647949219 10.178132057189941 C11.73642349243164 9.749456405639648 12.240406036376953 9.535120010375977 12.825489044189453 9.535120010375977 C12.970311164855957 9.535120010375977 13.080377578735352 9.569876670837402 13.14989185333252 9.645184516906738 C13.219406127929688 9.726284980773926 13.259956359863281 9.830556869506836 13.259956359863281 9.969587326049805 C13.259956359863281 10.178132057189941 13.178855895996094 10.404054641723633 13.02244758605957 10.64156436920166 C12.837075233459473 10.919623374938965 12.587980270385742 11.157132148742676 12.263577461242676 11.354090690612793 C12.09558391571045 11.452570915222168 11.916003227233887 11.533671379089355 11.724837303161621 11.59160041809082 C11.568428993225098 11.637943267822266 11.400434494018555 11.666908264160156 11.226648330688477 11.690079689025879 C11.23823356628418 12.06082534790039 11.394641876220703 12.246198654174805 11.701665878295898 12.246198654174805" fill="black" fill-opacity="1.0" filling="0"/></svg>