<?xml version="1.0" encoding="iso-8859-1"?><svg height="200px" viewBox="0.0 0.0 24.0 24.0" width="200px" xmlns="http://www.w3.org/2000/svg"><path animation_id="0" d="M0.0 0.0 L24.0 0.0 L24.0 24.0 L0.0 24.0 L0.0 0.0" fill="black" fill-opacity="1.0" filling="0"/>
<path animation_id="1" d="M16.048683166503906 7.1270623207092285 C16.197969436645508 7.127933979034424 16.30766487121582 7.128307342529297 16.37801170349121 7.128307342529297 L16.59229278564453 7.1270623207092285 L16.572372436523438 7.516404151916504 L16.559669494628906 7.991906642913818 A3.246342658996582 3.246342658996582 0.0 0 1 16.212413787841797 8.060636520385742 C16.109569549560547 8.074332237243652 16.022287368774414 8.081429481506348 15.950071334838867 8.081429481506348 A1.2137210369110107 1.2137210369110107 0.0 0 1 15.590612411499023 8.028512954711914 C15.476311683654785 7.993152141571045 15.378572463989258 7.939986705780029 15.297515869140625 7.868767261505127 A0.6323850154876709 0.6323850154876709 0.0 0 1 15.118097305297852 7.603063106536865 A0.9783975481987 0.9783975481987 0.0 0 1 15.060449600219727 7.266513347625732 C15.060449600219727 7.130921840667725 15.08547592163086 7.002054691314697 15.135778427124023 6.880034923553467 C15.185831069946289 6.7580156326293945 15.255183219909668 6.656789302825928 15.343461036682129 6.576107025146484 C15.431737899780273 6.495673179626465 15.533587455749512 6.4372782707214355 15.648882865905762 6.401045799255371 C15.764179229736328 6.364813804626465 15.888689041137695 6.346759796142578 16.022911071777344 6.346759796142578 C16.098114013671875 6.346759796142578 16.174686431884766 6.351491451263428 16.25275421142578 6.3607048988342285 C16.330821990966797 6.37004280090332 16.422462463378906 6.386852264404297 16.528045654296875 6.411380290985107 C16.529541015625 6.45358943939209 16.532901763916016 6.491813659667969 16.537757873535156 6.525680065155029 C16.42096710205078 6.485339164733887 16.321361541748047 6.457822799682617 16.238935470581055 6.4431304931640625 A1.3264023065567017 1.3264023065567017 0.0 0 0 16.007221221923828 6.4212164878845215 C15.887069702148438 6.4212164878845215 15.772521018981934 6.4401421546936035 15.663575172424316 6.4781174659729 C15.554380416870117 6.515968322753906 15.461993217468262 6.572869777679443 15.386541366577148 6.648695468902588 C15.31096363067627 6.724522113800049 15.253315925598145 6.818028926849365 15.213597297668457 6.929216384887695 C15.17387866973877 7.040403366088867 15.154205322265625 7.154952526092529 15.154205322265625 7.272738456726074 C15.154205322265625 7.384050369262695 15.171512603759766 7.487393379211426 15.206250190734863 7.582892417907715 C15.240988731384277 7.678515911102295 15.293283462524414 7.756708145141602 15.362884521484375 7.817717552185059 C15.43248462677002 7.878727436065674 15.517026901245117 7.925418853759766 15.616759300231934 7.957916259765625 C15.716739654541016 7.990537643432617 15.826433181762695 8.006723403930664 15.945838928222656 8.006723403930664 C15.986678123474121 8.006723403930664 16.031253814697266 8.004358291625977 16.07956314086914 7.999502182006836 C16.12799644470215 7.994646072387695 16.176055908203125 7.988171577453613 16.224241256713867 7.97982931137085 C16.272676467895508 7.971487522125244 16.312021255493164 7.9631452560424805 16.3426513671875 7.954802989959717 C16.3735294342041 7.946585655212402 16.41362190246582 7.934010028839111 16.46379852294922 7.917325973510742 L16.490568161010742 7.20151948928833 L16.345638275146484 7.20151948928833 C16.306793212890625 7.20151948928833 16.26757049560547 7.202016830444336 16.22872543334961 7.202888488769531 L16.045072555541992 7.211479663848877 C16.047563552856445 7.186204433441162 16.048683166503906 7.162423133850098 16.048683166503906 7.140384674072266 L16.048683166503906 7.1270623207092285 L16.048683166503906 7.1270623207092285 M16.94639778137207 8.056528091430664 L16.96457862854004 7.757828712463379 L16.997447967529297 6.828363418579102 L17.001806259155273 6.564154148101807 L17.003049850463867 6.371537208557129 L17.24746322631836 6.372782230377197 L17.52785873413086 6.371537208557129 C17.64415168762207 6.371537208557129 17.72894287109375 6.387101173400879 17.7822322845459 6.417979717254639 C17.83552360534668 6.44885778427124 17.877607345581055 6.493058681488037 17.908485412597656 6.550333499908447 C17.939115524291992 6.607607841491699 17.954429626464844 6.673348903656006 17.954429626464844 6.747681140899658 C17.954429626464844 6.840067386627197 17.931270599365234 6.924858570098877 17.885326385498047 7.001930236816406 A0.4557056725025177 0.4557056725025177 0.0 0 1 17.696819305419922 7.178360462188721 C17.61676025390625 7.2187018394470215 17.52536964416504 7.238996505737305 17.422027587890625 7.238996505737305 C17.408954620361328 7.238996505737305 17.389404296875 7.238124847412109 17.363380432128906 7.236382007598877 L17.954055786132812 8.056528091430664 A1.874494194984436 1.874494194984436 0.0 0 0 17.821826934814453 8.056528091430664 L17.66108512878418 7.81211519241333 L17.19355010986328 7.146859645843506 C17.266014099121094 7.160057544708252 17.329017639160156 7.166780948638916 17.38205909729004 7.166780948638916 C17.44655418395996 7.166780948638916 17.509057998657227 7.15794038772583 17.569320678710938 7.140135765075684 C17.62958335876465 7.122330665588379 17.681379318237305 7.095810413360596 17.724708557128906 7.0603251457214355 C17.768037796020508 7.024839401245117 17.801532745361328 6.980514049530029 17.82518768310547 6.927224636077881 C17.84872055053711 6.873934268951416 17.860673904418945 6.81591272354126 17.860673904418945 6.753159523010254 C17.860673904418945 6.711075305938721 17.855072021484375 6.671978950500488 17.843616485595703 6.635622024536133 C17.83216094970703 6.5992655754089355 17.813982009887695 6.567266464233398 17.788707733154297 6.53962516784668 A0.23594596982002258 0.23594596982002258 0.0 0 0 17.71138572692871 6.480731964111328 A0.38012823462486267 0.38012823462486267 0.0 0 0 17.60953712463379 6.455332279205322 A1.0304425954818726 1.0304425954818726 0.0 0 0 17.477930068969727 6.447238922119141 L17.277843475341797 6.448484420776367 C17.23401641845703 6.448484420776367 17.17786407470703 6.447737216949463 17.10950469970703 6.445993900299072 C17.08099365234375 7.097678184509277 17.064558029174805 7.634439945220947 17.060325622558594 8.056403160095215 A1.335242509841919 1.335242509841919 0.0 0 0 16.94639778137207 8.056528091430664 L16.94639778137207 8.056528091430664 M18.277408599853516 6.371537208557129 A1.4542738199234009 1.4542738199234009 0.0 0 0 18.386354446411133 6.371537208557129 L18.325593948364258 7.384299278259277 L18.322978973388672 7.475689888000488 L18.322978973388672 7.496607303619385 C18.322978973388672 7.595467567443848 18.335678100585938 7.67627477645874 18.361202239990234 7.739276885986328 C18.386478424072266 7.802403450012207 18.427316665649414 7.854697227478027 18.483470916748047 7.8961591720581055 A0.5005291700363159 0.5005291700363159 0.0 0 0 18.66774559020996 7.982568740844727 A0.9300877451896667 0.9300877451896667 0.0 0 0 18.885887145996094 8.006599426269531 C18.96121597290039 8.006599426269531 19.0339298248291 7.9988789558410645 19.10352897644043 7.983191013336182 A0.5530722737312317 0.5530722737312317 0.0 0 0 19.248706817626953 7.930025577545166 C19.283695220947266 7.911224842071533 19.315570831298828 7.887319087982178 19.344581604003906 7.858432769775391 C19.373218536376953 7.8296709060668945 19.39762306213379 7.796924591064453 19.41779136657715 7.760194301605225 C19.437713623046875 7.723588943481445 19.452281951904297 7.684990406036377 19.46137237548828 7.644649028778076 C19.47768211364746 7.565710067749023 19.48838996887207 7.468841552734375 19.493244171142578 7.354417324066162 L19.51640510559082 6.8467912673950195 A12.380003929138184 12.380003929138184 0.0 0 0 19.52785873413086 6.371288299560547 C19.549274444580078 6.372035026550293 19.567455291748047 6.372408866882324 19.582393646240234 6.372408866882324 C19.597335815429688 6.372408866882324 19.615264892578125 6.372035026550293 19.636930465698242 6.371288299560547 L19.605304718017578 6.933075904846191 L19.584884643554688 7.428126811981201 C19.578285217285156 7.5368242263793945 19.565959930419922 7.62684440612793 19.548154830932617 7.698437690734863 A0.5338978171348572 0.5338978171348572 0.0 0 1 19.497852325439453 7.820581912994385 A0.4266948997974396 0.4266948997974396 0.0 0 1 19.421775817871094 7.914337158203125 C19.388160705566406 7.945589065551758 19.34781837463379 7.973230838775635 19.30038070678711 7.997136116027832 A0.6872937679290771 0.6872937679290771 0.0 0 1 19.13353729248047 8.056403160095215 A1.1806014776229858 1.1806014776229858 0.0 0 1 18.890867233276367 8.081055641174316 A1.0574612617492676 1.0574612617492676 0.0 0 1 18.641847610473633 8.053913116455078 A0.6125879287719727 0.6125879287719727 0.0 0 1 18.461681365966797 7.979954719543457 A0.5017743110656738 0.5017743110656738 0.0 0 1 18.327959060668945 7.863786697387695 C18.299320220947266 7.828425884246826 18.276412963867188 7.782357215881348 18.259353637695312 7.72558069229126 C18.242046356201172 7.668804168701172 18.233579635620117 7.600074768066406 18.233579635620117 7.519392490386963 C18.233579635620117 7.446928024291992 18.236196517944336 7.361763000488281 18.241798400878906 7.2638983726501465 L18.273672103881836 6.604619026184082 C18.275915145874023 6.528295040130615 18.277408599853516 6.450600624084473 18.277408599853516 6.371537208557129 L18.277408599853516 6.371537208557129 M19.983814239501953 8.056528091430664 C19.9940242767334 7.916703224182129 20.00273895263672 7.747494220733643 20.010086059570312 7.549150466918945 L20.03075408935547 6.934445858001709 C20.0371036529541 6.723028182983398 20.04046630859375 6.535267353057861 20.04046630859375 6.371537208557129 L20.285377502441406 6.372782230377197 L20.559921264648438 6.371537208557129 C20.639484405517578 6.371537208557129 20.704103469848633 6.3763933181762695 20.7537841796875 6.385731220245361 C20.8034610748291 6.395069599151611 20.84840965270996 6.417356967926025 20.888751983642578 6.452343940734863 C20.928842544555664 6.487331390380859 20.95947265625 6.530287265777588 20.980388641357422 6.581336498260498 C21.00130844116211 6.63238525390625 21.01176643371582 6.686173439025879 21.01176643371582 6.742949485778809 C21.01176643371582 6.844051361083984 20.985992431640625 6.933947563171387 20.93419647216797 7.012637615203857 A0.4726389944553375 0.4726389944553375 0.0 0 1 20.72551727294922 7.188445568084717 C20.63823699951172 7.227168083190918 20.53925323486328 7.246342658996582 20.428564071655273 7.246342658996582 A1.2018924951553345 1.2018924951553345 0.0 0 1 20.22113037109375 7.226421356201172 A1.063686728477478 1.063686728477478 0.0 0 0 20.196352005004883 7.151839733123779 C20.271059036254883 7.165162563323975 20.342525482177734 7.1717610359191895 20.41088104248047 7.1717610359191895 C20.480731964111328 7.1717610359191895 20.54759407043457 7.163792610168457 20.611217498779297 7.147606372833252 C20.675216674804688 7.131420135498047 20.729379653930664 7.104650497436523 20.774574279785156 7.0670485496521 C20.819522857666016 7.029446601867676 20.85488510131836 6.98225736618042 20.879911422729492 6.925605773925781 C20.90518569946289 6.868953704833984 20.917884826660156 6.8091888427734375 20.917884826660156 6.746311187744141 A0.34738218784332275 0.34738218784332275 0.0 0 0 20.895225524902344 6.622299671173096 A0.26234203577041626 0.26234203577041626 0.0 0 0 20.832971572875977 6.524932861328125 C20.80644989013672 6.499782085418701 20.773204803466797 6.480731964111328 20.73274040222168 6.467907428741455 C20.692276000976562 6.45508337020874 20.625038146972656 6.448608875274658 20.530410766601562 6.448608875274658 L20.320240020751953 6.448608875274658 L20.218887329101562 6.44736385345459 L20.146921157836914 6.446118354797363 A38.928348541259766 38.928348541259766 0.0 0 0 20.113554000854492 7.286559104919434 C20.101848602294922 7.650750160217285 20.09624671936035 7.864160060882568 20.09624671936035 7.926663875579834 L20.097490310668945 8.056403160095215 C20.07657241821289 8.055655479431152 20.057647705078125 8.055157661437988 20.04058837890625 8.055157661437988 A1.5638424158096313 1.5638424158096313 0.0 0 0 19.983814239501953 8.056528091430664 L19.983814239501953 8.056528091430664" fill="black" fill-opacity="1.0" filling="0"/>
<path animation_id="2" d="M22.078317642211914 6.346635341644287 C22.195232391357422 6.346635341644287 22.30567169189453 6.364440441131592 22.410011291503906 6.399676322937012 C22.51435089111328 6.43491268157959 22.605243682861328 6.492560863494873 22.682811737060547 6.57224702835083 A0.693892776966095 0.693892776966095 0.0 0 1 22.84915542602539 6.84666633605957 C22.882278442382812 6.94988489151001 22.898712158203125 7.059329032897949 22.898712158203125 7.1752471923828125 C22.898712158203125 7.302621364593506 22.880035400390625 7.425138473510742 22.842308044433594 7.542675495147705 C22.804582595825195 7.660337448120117 22.747928619384766 7.7589497566223145 22.671855926513672 7.8385114669799805 C22.595779418945312 7.9183220863342285 22.500654220581055 7.9787092208862305 22.38660430908203 8.019797325134277 A1.0536013841629028 1.0536013841629028 0.0 0 1 22.027891159057617 8.081429481506348 C21.907737731933594 8.081429481506348 21.792442321777344 8.062254905700684 21.682126998901367 8.024154663085938 C21.57181167602539 7.98605489730835 21.47930145263672 7.929652214050293 21.404842376708984 7.855319976806641 C21.330387115478516 7.780987739562988 21.275978088378906 7.691340446472168 21.24123764038086 7.586503028869629 A1.0405279397964478 1.0405279397964478 0.0 0 1 21.18894386291504 7.256801605224609 C21.18894386291504 7.127809524536133 21.210359573364258 7.002676963806152 21.252941131591797 6.881404876708984 C21.295276641845703 6.7601318359375 21.356781005859375 6.6596527099609375 21.43746566772461 6.5798420906066895 A0.7420780658721924 0.7420780658721924 0.0 0 1 21.726078033447266 6.403536319732666 A1.092074990272522 1.092074990272522 0.0 0 1 22.078317642211914 6.346635341644287 L22.078317642211914 6.346635341644287 M22.073959350585938 6.4212164878845215 C21.961402893066406 6.4212164878845215 21.855072021484375 6.438772678375244 21.75558853149414 6.473759651184082 A0.6401045918464661 0.6401045918464661 0.0 0 0 21.496109008789062 6.6442131996154785 A0.7258918285369873 0.7258918285369873 0.0 0 0 21.33437156677246 6.922244071960449 A1.0868455171585083 1.0868455171585083 0.0 0 0 21.28307342529297 7.256552219390869 C21.28307342529297 7.3661208152771 21.300878524780273 7.471207618713379 21.33686065673828 7.571686744689941 C21.372844696044922 7.672165870666504 21.42538833618164 7.755462646484375 21.494739532470703 7.821328639984131 C21.564340591430664 7.887194633483887 21.645771026611328 7.934632778167725 21.739152908325195 7.9633941650390625 C21.832534790039062 7.992280960083008 21.931270599365234 8.006723403930664 22.034862518310547 8.006723403930664 C22.14430809020996 8.006723403930664 22.247650146484375 7.990786552429199 22.34514045715332 7.958538055419922 A0.6064869165420532 0.6064869165420532 0.0 0 0 22.59851837158203 7.797921180725098 A0.6821889281272888 0.6821889281272888 0.0 0 0 22.755401611328125 7.527859210968018 A1.1006661653518677 1.1006661653518677 0.0 0 0 22.804956436157227 7.194795608520508 C22.804956436157227 7.083608150482178 22.789642333984375 6.9777750968933105 22.75901222229004 6.877295970916748 C22.728382110595703 6.776816368103027 22.67919921875 6.691278457641602 22.611343383789062 6.620805740356445 A0.5895536541938782 0.5895536541938782 0.0 0 0 22.37029266357422 6.468156814575195 A0.9251073598861694 0.9251073598861694 0.0 0 0 22.073959350585938 6.4212164878845215 L22.073959350585938 6.4212164878845215" fill="black" fill-opacity="1.0" filling="0"/>
<path animation_id="3" d="M22.078317642211914 6.346635341644287 C22.195232391357422 6.346635341644287 22.30567169189453 6.364440441131592 22.410011291503906 6.399676322937012 C22.51435089111328 6.43491268157959 22.605243682861328 6.492560863494873 22.682811737060547 6.57224702835083 A0.693892776966095 0.693892776966095 0.0 0 1 22.84915542602539 6.84666633605957 C22.882278442382812 6.94988489151001 22.898712158203125 7.059329032897949 22.898712158203125 7.1752471923828125 C22.898712158203125 7.302621364593506 22.880035400390625 7.425138473510742 22.842308044433594 7.542675495147705 C22.804582595825195 7.660337448120117 22.747928619384766 7.7589497566223145 22.671855926513672 7.8385114669799805 C22.595779418945312 7.9183220863342285 22.500654220581055 7.9787092208862305 22.38660430908203 8.019797325134277 A1.0536013841629028 1.0536013841629028 0.0 0 1 22.027891159057617 8.081429481506348 C21.907737731933594 8.081429481506348 21.792442321777344 8.062254905700684 21.682126998901367 8.024154663085938 C21.57181167602539 7.98605489730835 21.47930145263672 7.929652214050293 21.404842376708984 7.855319976806641 C21.330387115478516 7.780987739562988 21.275978088378906 7.691340446472168 21.24123764038086 7.586503028869629 A1.0405279397964478 1.0405279397964478 0.0 0 1 21.18894386291504 7.256801605224609 C21.18894386291504 7.127809524536133 21.210359573364258 7.002676963806152 21.252941131591797 6.881404876708984 C21.295276641845703 6.7601318359375 21.356781005859375 6.6596527099609375 21.437217712402344 6.5798420906066895 A0.7448172569274902 0.7448172569274902 0.0 0 1 21.726078033447266 6.403536319732666 A1.0909544229507446 1.0909544229507446 0.0 0 1 22.078317642211914 6.346635341644287 M22.073959350585938 6.4212164878845215 C21.961402893066406 6.4212164878845215 21.855072021484375 6.438772678375244 21.75558853149414 6.473759651184082 A0.6401045918464661 0.6401045918464661 0.0 0 0 21.496109008789062 6.6442131996154785 A0.7258918285369873 0.7258918285369873 0.0 0 0 21.33437156677246 6.922244071960449 A1.0868455171585083 1.0868455171585083 0.0 0 0 21.28307342529297 7.256552219390869 C21.28307342529297 7.3661208152771 21.300878524780273 7.471207618713379 21.33686065673828 7.571686744689941 C21.372844696044922 7.672165870666504 21.42538833618164 7.755462646484375 21.494739532470703 7.821328639984131 C21.564340591430664 7.887194633483887 21.645519256591797 7.934632778167725 21.739152908325195 7.9633941650390625 C21.832534790039062 7.992280960083008 21.931270599365234 8.006723403930664 22.034862518310547 8.006723403930664 C22.14430809020996 8.006723403930664 22.247650146484375 7.990786552429199 22.34514045715332 7.958538055419922 A0.6064869165420532 0.6064869165420532 0.0 0 0 22.59851837158203 7.797921180725098 A0.6821889281272888 0.6821889281272888 0.0 0 0 22.755401611328125 7.527859210968018 A1.1006661653518677 1.1006661653518677 0.0 0 0 22.804956436157227 7.194795608520508 C22.804956436157227 7.083608150482178 22.789642333984375 6.9777750968933105 22.75901222229004 6.877295970916748 C22.728382110595703 6.776816368103027 22.67919921875 6.691278457641602 22.611343383789062 6.620805740356445 A0.5895536541938782 0.5895536541938782 0.0 0 0 22.37029266357422 6.468156814575195 A0.9251073598861694 0.9251073598861694 0.0 0 0 22.073959350585938 6.4212164878845215 L22.073959350585938 6.4212164878845215" fill="none" filling="0" stroke="black" stroke-opacity="1.0" stroke-width=".3"/>
<path animation_id="4" d="M5.203012943267822 12.029508590698242 L5.236630916595459 11.356782913208008 L5.275727272033691 10.061259269714355 L5.283197402954102 9.678516387939453 C5.284442901611328 9.584386825561523 5.285065174102783 9.48838996887207 5.285065174102783 9.390399932861328 C5.553632736206055 9.391645431518555 5.809998035430908 9.3923921585083 6.054286479949951 9.3923921585083 L6.725020408630371 9.390399932861328 C6.719790935516357 9.442693710327148 6.717300891876221 9.489011764526367 6.717300891876221 9.529603004455566 A4.573367118835449 4.573367118835449 0.0 0 0 6.344269275665283 9.511921882629395 A35.129180908203125 35.129180908203125 0.0 0 0 5.96737813949585 9.50968074798584 L5.4353485107421875 9.50968074798584 L5.402104377746582 10.623046875 L5.812737464904785 10.628898620605469 C6.162360668182373 10.628898620605469 6.421963691711426 10.626906394958496 6.591670513153076 10.623046875 A1.1991533041000366 1.1991533041000366 0.0 0 0 6.581958770751953 10.757268905639648 L6.238685131072998 10.753408432006836 A17.387163162231445 17.387163162231445 0.0 0 0 5.918446063995361 10.74954891204834 C5.752474784851074 10.74954891204834 5.577663421630859 10.752163887023926 5.393762111663818 10.757268905639648 C5.378696441650391 11.309469223022461 5.371225833892822 11.733674049377441 5.371225833892822 12.029508590698242 C5.339475631713867 12.028264045715332 5.311461448669434 12.02751636505127 5.287181854248047 12.02751636505127 C5.262778282165527 12.027641296386719 5.234763145446777 12.028264045715332 5.203012943267822 12.029508590698242 L5.203012943267822 12.029508590698242" fill="black" fill-opacity="1.0" filling="0"/>
<path animation_id="5" d="M8.473386764526367 9.35068130493164 C8.656913757324219 9.35068130493164 8.830355644226074 9.378447532653809 8.994086265563965 9.43372917175293 A1.070285677909851 1.070285677909851 0.0 0 1 9.42227554321289 9.704290390014648 C9.544170379638672 9.829297065734863 9.63120174407959 9.97248363494873 9.683122634887695 10.134221076965332 C9.735042572021484 10.295960426330566 9.761066436767578 10.467534065246582 9.761066436767578 10.649069786071777 C9.761066436767578 10.848783493041992 9.73143196105957 11.040777206420898 9.672538757324219 11.224926948547363 C9.613397598266602 11.409077644348145 9.524373054504395 11.56371784210205 9.40496826171875 11.688725471496582 C9.285563468933105 11.81373405456543 9.13640022277832 11.908360481262207 8.957480430603027 11.972857475280762 A1.654734492301941 1.654734492301941 0.0 0 1 8.394447326660156 12.069352149963379 C8.205690383911133 12.069352149963379 8.02490234375 12.039469718933105 7.8515849113464355 11.979331016540527 C7.678267002105713 11.919567108154297 7.5333380699157715 11.831414222717285 7.416547775268555 11.71474838256836 C7.29975700378418 11.598207473754883 7.214094638824463 11.45776081085205 7.159683704376221 11.293532371520996 A1.6295835971832275 1.6295835971832275 0.0 0 1 7.077880859375 10.776567459106445 C7.077880859375 10.574239730834961 7.1112494468688965 10.378260612487793 7.177987098693848 10.18813419342041 C7.244724273681641 9.998257637023926 7.341343879699707 9.840627670288086 7.467720985412598 9.715744018554688 C7.5940985679626465 9.590736389160156 7.745253562927246 9.498600006103516 7.921061038970947 9.439457893371582 A1.7197285890579224 1.7197285890579224 0.0 0 1 8.473386764526367 9.35068130493164 L8.473386764526367 9.35068130493164 M8.466787338256836 9.469962120056152 C8.289360046386719 9.469962120056152 8.122268676757812 9.497354507446289 7.965510845184326 9.552139282226562 A1.0141319036483765 1.0141319036483765 0.0 0 0 7.556745529174805 9.818963050842285 A1.1360268592834473 1.1360268592834473 0.0 0 0 7.302247524261475 10.253874778747559 A1.6877295970916748 1.6877295970916748 0.0 0 0 7.221191883087158 10.776816368103027 C7.221191883087158 10.94826602935791 7.249455451965332 11.112494468688965 7.306107521057129 11.269750595092773 C7.362634658813477 11.427006721496582 7.445433616638184 11.557243347167969 7.554753303527832 11.660337448120117 A0.9599701166152954 0.9599701166152954 0.0 0 0 7.939363956451416 11.882587432861328 C8.08653450012207 11.92765998840332 8.241673469543457 11.950196266174316 8.405030250549316 11.950196266174316 C8.577227592468262 11.950196266174316 8.74008560180664 11.925169944763184 8.893731117248535 11.874868392944336 A0.957106351852417 0.957106351852417 0.0 0 0 9.292909622192383 11.623482704162598 C9.405217170715332 11.506319046020508 9.487518310546875 11.365622520446777 9.539562225341797 11.20114517211914 C9.591609001159668 11.036792755126953 9.617755889892578 10.863101959228516 9.617755889892578 10.680072784423828 C9.617755889892578 10.506132125854492 9.59360122680664 10.340534210205078 9.54529094696045 10.183279037475586 C9.49722957611084 10.026022911071777 9.419660568237305 9.892423629760742 9.312954902648926 9.782108306884766 A0.9340720772743225 0.9340720772743225 0.0 0 0 8.93320083618164 9.54342269897461 A1.4587560892105103 1.4587560892105103 0.0 0 0 8.466787338256836 9.469962120056152 L8.466787338256836 9.469962120056152" fill="black" fill-opacity="1.0" filling="0"/>
<path animation_id="6" d="M8.473386764526367 9.35068130493164 C8.656913757324219 9.35068130493164 8.830355644226074 9.378447532653809 8.994086265563965 9.43372917175293 A1.070285677909851 1.070285677909851 0.0 0 1 9.42227554321289 9.704290390014648 C9.544170379638672 9.829297065734863 9.63120174407959 9.97248363494873 9.683122634887695 10.134221076965332 C9.735042572021484 10.295960426330566 9.761066436767578 10.467534065246582 9.761066436767578 10.649069786071777 C9.761066436767578 10.848783493041992 9.73143196105957 11.040777206420898 9.672538757324219 11.224926948547363 C9.613397598266602 11.409201622009277 9.524373054504395 11.5638427734375 9.40496826171875 11.688725471496582 C9.285563468933105 11.81360912322998 9.13640022277832 11.908360481262207 8.957480430603027 11.972857475280762 A1.654734492301941 1.654734492301941 0.0 0 1 8.394447326660156 12.069352149963379 C8.205690383911133 12.069352149963379 8.02490234375 12.039469718933105 7.8515849113464355 11.979331016540527 C7.678267002105713 11.919567108154297 7.5333380699157715 11.831414222717285 7.416547775268555 11.71474838256836 C7.29975700378418 11.598207473754883 7.214094638824463 11.45776081085205 7.159683704376221 11.293532371520996 A1.6295835971832275 1.6295835971832275 0.0 0 1 7.077880859375 10.776567459106445 C7.077880859375 10.574239730834961 7.1112494468688965 10.378260612487793 7.177987098693848 10.18813419342041 C7.244724273681641 9.998257637023926 7.341343879699707 9.840627670288086 7.467720985412598 9.715744018554688 C7.5940985679626465 9.590736389160156 7.745253562927246 9.498600006103516 7.921061038970947 9.439457893371582 A1.7197285890579224 1.7197285890579224 0.0 0 1 8.473386764526367 9.35068130493164 M8.466787338256836 9.469962120056152 C8.289360046386719 9.469962120056152 8.122268676757812 9.497354507446289 7.965510845184326 9.552139282226562 A1.0141319036483765 1.0141319036483765 0.0 0 0 7.556745529174805 9.818963050842285 A1.1360268592834473 1.1360268592834473 0.0 0 0 7.302247524261475 10.253874778747559 A1.6877295970916748 1.6877295970916748 0.0 0 0 7.221191883087158 10.776816368103027 C7.221191883087158 10.94826602935791 7.249455451965332 11.112494468688965 7.306107521057129 11.269750595092773 C7.362634658813477 11.427006721496582 7.445433616638184 11.557243347167969 7.554753303527832 11.660337448120117 A0.9599701166152954 0.9599701166152954 0.0 0 0 7.939363956451416 11.882587432861328 C8.08653450012207 11.92765998840332 8.241673469543457 11.950196266174316 8.405030250549316 11.950196266174316 C8.577227592468262 11.950196266174316 8.74008560180664 11.925169944763184 8.893731117248535 11.874868392944336 A0.957106351852417 0.957106351852417 0.0 0 0 9.292909622192383 11.623482704162598 C9.405217170715332 11.506319046020508 9.487518310546875 11.365622520446777 9.539562225341797 11.20114517211914 C9.591609001159668 11.036792755126953 9.617755889892578 10.863101959228516 9.617755889892578 10.680072784423828 C9.617755889892578 10.506132125854492 9.59360122680664 10.340534210205078 9.54529094696045 10.183279037475586 C9.49722957611084 10.026022911071777 9.419660568237305 9.892423629760742 9.312954902648926 9.782108306884766 A0.9340720772743225 0.9340720772743225 0.0 0 0 8.93320083618164 9.54342269897461 A1.4587560892105103 1.4587560892105103 0.0 0 0 8.466787338256836 9.469962120056152 L8.466787338256836 9.469962120056152" fill="none" filling="0" stroke="black" stroke-opacity="1.0" stroke-width=".3"/>
<path animation_id="7" d="M10.16995620727539 12.029508590698242 L10.210545539855957 11.671916961669922 L10.32260513305664 10.252755165100098 L10.38249397277832 9.390399932861328 A4.055531024932861 4.055531024932861 0.0 0 0 10.6292724609375 9.390399932861328 L10.71406364440918 9.651372909545898 C10.738468170166016 9.722219467163086 10.789142608642578 9.866650581359863 10.866214752197266 10.084543228149414 L11.372844696044922 11.505696296691895 L11.51154899597168 11.880844116210938 L12.528046607971191 9.622486114501953 C12.551204681396484 9.56832504272461 12.582581520080566 9.49100399017334 12.622424125671387 9.390399932861328 A4.00311279296875 4.00311279296875 0.0 0 0 12.87293815612793 9.390399932861328 L12.853265762329102 10.509867668151855 C12.852020263671875 10.762622833251953 12.851272583007812 10.95013427734375 12.851272583007812 11.072526931762695 C12.851272583007812 11.476062774658203 12.855133056640625 11.795182228088379 12.862977027893066 12.029508590698242 C12.829360008239746 12.028264045715332 12.79872989654541 12.02751636505127 12.771836280822754 12.02751636505127 C12.74319839477539 12.02751636505127 12.712693214416504 12.028264045715332 12.68044662475586 12.029508590698242 L12.713565826416016 10.32534408569336 C12.717425346374512 10.12015151977539 12.719417572021484 9.938741683959961 12.719417572021484 9.78123664855957 L12.719417572021484 9.525493621826172 L12.391334533691406 10.247899055480957 L11.607918739318848 12.02938461303711 A2.4491066932678223 2.4491066932678223 0.0 0 0 11.407084465026855 12.02938461303711 L10.565896987915039 9.699932098388672 L10.506132125854492 9.545415878295898 L10.484716415405273 9.77139949798584 C10.479487419128418 9.834527015686035 10.47039794921875 9.962024688720703 10.457448959350586 10.153894424438477 L10.354104995727539 11.575671195983887 C10.35012149810791 11.636307716369629 10.346883773803711 11.697068214416504 10.344269752502441 11.758326530456543 A9.075514793395996 9.075514793395996 0.0 0 0 10.338417053222656 12.029508590698242 C10.305546760559082 12.028264045715332 10.277158737182617 12.02751636505127 10.253128051757812 12.02751636505127 C10.229098320007324 12.02751636505127 10.201457023620605 12.028264045715332 10.16995620727539 12.029508590698242 M13.467472076416016 12.029508590698242 C13.49100399017334 11.680258750915527 13.512420654296875 11.229534149169922 13.531719207763672 10.677083969116211 C13.550893783569336 10.12475872039795 13.560606002807617 9.695823669433594 13.560606002807617 9.390399932861328 C13.845857620239258 9.391645431518555 14.113802909851074 9.3923921585083 14.364564895629883 9.3923921585083 L15.068543434143066 9.390399932861328 C15.063189506530762 9.442693710327148 15.060823440551758 9.489011764526367 15.060823440551758 9.529603004455566 L14.9066801071167 9.516404151916504 C14.867086410522461 9.512046813964844 14.7974853515625 9.509431838989258 14.698749542236328 9.508810043334961 A95.21646118164062 95.21646118164062 0.0 0 0 13.714624404907227 9.50968074798584 L13.675776481628418 10.618066787719727 C13.869389533996582 10.622050285339355 14.046815872192383 10.624043464660645 14.208553314208984 10.624043464660645 C14.400921821594238 10.624043464660645 14.637989044189453 10.622050285339355 14.92037582397461 10.618066787719727 C14.915271759033203 10.6571626663208 14.912158966064453 10.70036792755127 14.910663604736328 10.747307777404785 L14.18626594543457 10.741455078125 C14.101600646972656 10.741455078125 13.929901123046875 10.743448257446289 13.671170234680176 10.747307777404785 L13.630082130432129 11.91035270690918 L14.183279037475586 11.912345886230469 C14.40067195892334 11.912345886230469 14.551204681396484 11.911225318908691 14.63537311553955 11.908859252929688 A9.251572608947754 9.251572608947754 0.0 0 0 14.979766845703125 11.890556335449219 C14.973169326782227 11.942850112915039 14.97005558013916 11.989168167114258 14.97005558013916 12.029633522033691 C14.661894798278809 12.028388977050781 14.436531066894531 12.027641296386719 14.293968200683594 12.027641296386719 L13.467472076416016 12.029508590698242 L13.467472076416016 12.029508590698242 M15.53010082244873 12.029508590698242 L15.57455062866211 11.26788330078125 L15.62858772277832 9.701674461364746 L15.634439468383789 9.390399932861328 C15.665318489074707 9.391645431518555 15.70404052734375 9.3923921585083 15.75023365020752 9.3923921585083 C15.797920227050781 9.3923921585083 15.837265968322754 9.391770362854004 15.868144989013672 9.390399932861328 A10.074084281921387 10.074084281921387 0.0 0 0 16.027393341064453 9.643777847290039 A18.8906192779541 18.8906192779541 0.0 0 0 16.291975021362305 10.028512954711914 L17.27585220336914 11.45925521850586 C17.37558364868164 11.604930877685547 17.477184295654297 11.749361991882324 17.58077621459961 11.892423629760742 L17.663700103759766 9.690094947814941 L17.669551849365234 9.390399932861328 C17.70267105102539 9.391645431518555 17.72869300842285 9.3923921585083 17.74786949157715 9.3923921585083 C17.768037796020508 9.3923921585083 17.794809341430664 9.391770362854004 17.827926635742188 9.390399932861328 L17.792192459106445 9.997509956359863 L17.731931686401367 11.64863395690918 L17.724334716796875 12.029508590698242 A4.469900131225586 4.469900131225586 0.0 0 0 17.605676651000977 12.02751636505127 C17.571935653686523 12.02751636505127 17.532962799072266 12.028264045715332 17.488887786865234 12.029508590698242 L17.138267517089844 11.503704071044922 L15.923799514770508 9.740397453308105 L15.782232284545898 9.545166015625 A8.204943656921387 8.204943656921387 0.0 0 0 15.772521018981934 9.748117446899414 L15.702919006347656 11.557866096496582 L15.693208694458008 12.029633522033691 C15.659589767456055 12.028388977050781 15.632448196411133 12.027641296386719 15.61177921295166 12.027641296386719 C15.591110229492188 12.027641296386719 15.563966751098633 12.028264045715332 15.53010082244873 12.029508590698242 L15.53010082244873 12.029508590698242 M18.90070343017578 12.031500816345215 L18.92934226989746 11.55002212524414 L19.004295349121094 9.511548042297363 C18.68667221069336 9.511548042297363 18.410011291503906 9.516529083251953 18.174562454223633 9.5264892578125 C18.1809139251709 9.47419548034668 18.184024810791016 9.428749084472656 18.184024810791016 9.390399932861328 C18.493806838989258 9.391645431518555 18.813175201416016 9.3923921585083 19.142127990722656 9.3923921585083 L19.691715240478516 9.390399932861328 L19.982818603515625 9.390399932861328 A1.0740211009979248 1.0740211009979248 0.0 0 0 19.973106384277344 9.5264892578125 C19.817718505859375 9.516529083251953 19.58152198791504 9.511548042297363 19.264522552490234 9.511548042297363 L19.1527099609375 9.511548042297363 L19.071033477783203 11.640914916992188 C19.069538116455078 11.670547485351562 19.06879234313965 11.700181007385254 19.06879234313965 11.729814529418945 L19.06879234313965 12.031375885009766 C19.03766441345215 12.030132293701172 19.0096492767334 12.02938461303711 18.984872817993164 12.02938461303711 C18.960968017578125 12.029508590698242 18.933076858520508 12.030256271362305 18.90070343017578 12.031500816345215 L18.90070343017578 12.031500816345215" fill="black" fill-opacity="1.0" filling="0"/>
<path animation_id="8" d="M21.553508758544922 9.35068130493164 C21.73691177368164 9.35068130493164 21.910476684570312 9.378447532653809 22.074207305908203 9.43372917175293 A1.0685425996780396 1.0685425996780396 0.0 0 1 22.502395629882812 9.704290390014648 A1.0817406177520752 1.0817406177520752 0.0 0 1 22.76312255859375 10.134221076965332 C22.815166473388672 10.295960426330566 22.841188430786133 10.467534065246582 22.841188430786133 10.649069786071777 C22.841188430786133 10.848783493041992 22.811553955078125 11.040777206420898 22.752662658691406 11.224926948547363 C22.693519592285156 11.409077644348145 22.6043701171875 11.56371784210205 22.485214233398438 11.688725471496582 C22.36581039428711 11.81360912322998 22.216522216796875 11.908360481262207 22.037479400634766 11.972857475280762 A1.6529914140701294 1.6529914140701294 0.0 0 1 21.474571228027344 12.069352149963379 C21.285812377929688 12.069352149963379 21.105148315429688 12.039469718933105 20.93183135986328 11.979331016540527 C20.75864028930664 11.919567108154297 20.613460540771484 11.831414222717285 20.496793746948242 11.71474838256836 C20.3800048828125 11.598207473754883 20.294464111328125 11.45776081085205 20.240055084228516 11.293532371520996 A1.6295835971832275 1.6295835971832275 0.0 0 1 20.158374786376953 10.776567459106445 C20.158374786376953 10.574239730834961 20.19174575805664 10.378260612487793 20.258358001708984 10.18813419342041 C20.324970245361328 9.998257637023926 20.421714782714844 9.840627670288086 20.547969818115234 9.715744018554688 C20.674468994140625 9.590736389160156 20.82550048828125 9.498600006103516 21.00130844116211 9.439457893371582 A1.7183589935302734 1.7183589935302734 0.0 0 1 21.553508758544922 9.35068130493164 L21.553508758544922 9.35068130493164 M21.547033309936523 9.469962120056152 C21.369483947753906 9.469962120056152 21.202392578125 9.497354507446289 21.04563331604004 9.552139282226562 A1.0132602453231812 1.0132602453231812 0.0 0 0 20.63686752319336 9.818963050842285 A1.1388906240463257 1.1388906240463257 0.0 0 0 20.38249397277832 10.253874778747559 A1.6876050233840942 1.6876050233840942 0.0 0 0 20.301563262939453 10.776816368103027 C20.301563262939453 10.94826602935791 20.32982635498047 11.112494468688965 20.386478424072266 11.269750595092773 C20.442880630493164 11.427006721496582 20.52580451965332 11.557243347167969 20.634998321533203 11.660337448120117 A0.9622113108634949 0.9622113108634949 0.0 0 0 21.019737243652344 11.882587432861328 C21.16690444946289 11.92765998840332 21.322044372558594 11.950196266174316 21.485401153564453 11.950196266174316 C21.657596588134766 11.950196266174316 21.820457458496094 11.925169944763184 21.974225997924805 11.874868392944336 A0.9574799537658691 0.9574799537658691 0.0 0 0 22.373279571533203 11.623482704162598 C22.48558807373047 11.506319046020508 22.567764282226562 11.365622520446777 22.619810104370117 11.20114517211914 C22.671855926513672 11.036792755126953 22.69812774658203 10.863101959228516 22.69812774658203 10.680072784423828 C22.69812774658203 10.506132125854492 22.673847198486328 10.340534210205078 22.625661849975586 10.183279037475586 C22.577476501464844 10.026022911071777 22.50015640258789 9.892423629760742 22.393451690673828 9.782108306884766 A0.9338231086730957 0.9338231086730957 0.0 0 0 22.013572692871094 9.54342269897461 A1.4604992866516113 1.4604992866516113 0.0 0 0 21.547033309936523 9.469962120056152" fill="black" fill-opacity="1.0" filling="0"/>
<path animation_id="9" d="M21.553508758544922 9.35068130493164 C21.73691177368164 9.35068130493164 21.910476684570312 9.378447532653809 22.074207305908203 9.43372917175293 A1.0685425996780396 1.0685425996780396 0.0 0 1 22.502395629882812 9.704290390014648 A1.0817406177520752 1.0817406177520752 0.0 0 1 22.76312255859375 10.134221076965332 C22.815166473388672 10.295960426330566 22.841188430786133 10.467534065246582 22.841188430786133 10.649069786071777 C22.841188430786133 10.848783493041992 22.811553955078125 11.040777206420898 22.752662658691406 11.224926948547363 C22.693519592285156 11.409201622009277 22.6043701171875 11.5638427734375 22.485214233398438 11.688725471496582 C22.36581039428711 11.81360912322998 22.216522216796875 11.908360481262207 22.037479400634766 11.972857475280762 A1.6529914140701294 1.6529914140701294 0.0 0 1 21.474571228027344 12.069352149963379 C21.285812377929688 12.069352149963379 21.105148315429688 12.039469718933105 20.93183135986328 11.979331016540527 C20.75864028930664 11.919567108154297 20.613460540771484 11.831414222717285 20.496793746948242 11.71474838256836 C20.3800048828125 11.598207473754883 20.294464111328125 11.45776081085205 20.240055084228516 11.293532371520996 A1.6295835971832275 1.6295835971832275 0.0 0 1 20.158374786376953 10.776567459106445 C20.158374786376953 10.574239730834961 20.19174575805664 10.378260612487793 20.258358001708984 10.18813419342041 C20.324970245361328 9.998257637023926 20.421714782714844 9.840627670288086 20.547969818115234 9.715744018554688 C20.674468994140625 9.590736389160156 20.82550048828125 9.498600006103516 21.00130844116211 9.439457893371582 A1.7183589935302734 1.7183589935302734 0.0 0 1 21.553508758544922 9.35068130493164 M21.547033309936523 9.469962120056152 C21.369483947753906 9.469962120056152 21.202392578125 9.497354507446289 21.04563331604004 9.552139282226562 A1.0132602453231812 1.0132602453231812 0.0 0 0 20.63686752319336 9.818963050842285 A1.1388906240463257 1.1388906240463257 0.0 0 0 20.38249397277832 10.253874778747559 A1.6876050233840942 1.6876050233840942 0.0 0 0 20.301563262939453 10.776816368103027 C20.301563262939453 10.94826602935791 20.32982635498047 11.112494468688965 20.386478424072266 11.269750595092773 C20.442880630493164 11.427006721496582 20.52580451965332 11.557243347167969 20.634998321533203 11.660337448120117 A0.9622113108634949 0.9622113108634949 0.0 0 0 21.019737243652344 11.882587432861328 C21.16690444946289 11.92765998840332 21.322044372558594 11.950196266174316 21.485401153564453 11.950196266174316 C21.657596588134766 11.950196266174316 21.820457458496094 11.925169944763184 21.974225997924805 11.874868392944336 A0.9574799537658691 0.9574799537658691 0.0 0 0 22.373279571533203 11.623482704162598 C22.48558807373047 11.506319046020508 22.567764282226562 11.365622520446777 22.619810104370117 11.20114517211914 C22.671855926513672 11.036792755126953 22.69812774658203 10.863101959228516 22.69812774658203 10.680072784423828 C22.69812774658203 10.506132125854492 22.673847198486328 10.340534210205078 22.625661849975586 10.183279037475586 C22.577476501464844 10.026022911071777 22.50015640258789 9.892423629760742 22.393451690673828 9.782108306884766 A0.9338231086730957 0.9338231086730957 0.0 0 0 22.013572692871094 9.54342269897461 A1.4604992866516113 1.4604992866516113 0.0 0 0 21.547033309936523 9.469962120056152" fill="none" filling="0" stroke="black" stroke-opacity="1.0" stroke-width=".3"/>
<path animation_id="10" d="M3.7024221420288086 15.777999877929688 C3.691838264465332 15.83054256439209 3.6836204528808594 15.886945724487305 3.6777687072753906 15.946959495544434 C3.450289726257324 15.976591110229492 3.271368980407715 15.997757911682129 3.141007423400879 16.01070785522461 C3.010645866394043 16.023656845092773 2.884392738342285 16.033618927001953 2.7623729705810547 16.040590286254883 C2.6403541564941406 16.047687530517578 2.5393762588500977 16.051298141479492 2.45981502532959 16.051298141479492 C2.2554941177368164 16.051298141479492 2.062379837036133 16.025026321411133 1.8807201385498047 15.971986770629883 C1.6989355087280273 15.919193267822266 1.5440454483032227 15.831663131713867 1.4162988662719727 15.709394454956055 C1.288426399230957 15.58687686920166 1.1969118118286133 15.445558547973633 1.1416301727294922 15.285314559936523 C1.0863475799560547 15.124820709228516 1.058706283569336 14.95187759399414 1.058706283569336 14.766357421875 C1.058706283569336 14.562784194946289 1.091078758239746 14.367552757263184 1.1559486389160156 14.180041313171387 C1.220693588256836 13.992528915405273 1.3163166046142578 13.835647583007812 1.4426946640014648 13.709519386291504 C1.5690717697143555 13.583017349243164 1.7202272415161133 13.488762855529785 1.8960342407226562 13.426507949829102 A1.642408013343811 1.642408013343811 0.0 0 1 2.4503517150878906 13.33262825012207 C2.6442136764526367 13.33262825012207 2.8276166915893555 13.365249633789062 3.0008087158203125 13.430367469787598 C3.1741275787353516 13.495237350463867 3.317188262939453 13.593101501464844 3.4299936294555664 13.723215103149414 C3.5428009033203125 13.853327751159668 3.6231088638305664 13.9970121383667 3.6705474853515625 14.154143333435059 C3.717985153198242 14.311274528503418 3.741766929626465 14.479487419128418 3.741766929626465 14.658533096313477 C3.741766929626465 14.787399291992188 3.7293167114257812 14.91141128540039 3.704289436340332 15.030567169189453 A1.4629894495010376 1.4629894495010376 0.0 0 1 3.598456382751465 15.354541778564453 A1.1554503440856934 1.1554503440856934 0.0 0 1 3.424266815185547 15.621116638183594 A1.1319180727005005 1.1319180727005005 0.0 0 1 3.229783058166504 15.799165725708008 C3.182344436645508 15.833904266357422 3.120089530944824 15.872627258300781 3.0431432723999023 15.914959907531738 A2.7292535305023193 2.7292535305023193 0.0 0 0 3.284069061279297 15.890182495117188 A1.6712943315505981 1.6712943315505981 0.0 0 0 3.472949981689453 15.848596572875977 C3.534832000732422 15.830916404724121 3.6111555099487305 15.80738353729248 3.7024221420288086 15.777999877929688 L3.7024221420288086 15.777999877929688 M2.4466171264648438 13.451908111572266 C2.279648780822754 13.451908111572266 2.121645927429199 13.476934432983398 1.9726085662841797 13.527235984802246 A1.0578348636627197 1.0578348636627197 0.0 0 0 1.5738029479980469 13.771649360656738 C1.4570131301879883 13.884454727172852 1.3657474517822266 14.027018547058105 1.3002557754516602 14.198966979980469 A1.5064433813095093 1.5064433813095093 0.0 0 0 1.202016830444336 14.739338874816895 C1.202016830444336 14.905683517456055 1.223806381225586 15.060325622558594 1.2675094604492188 15.203387260437012 C1.3112115859985352 15.346447944641113 1.3869142532348633 15.47643756866455 1.4949884414672852 15.593973159790039 A0.9574799537658691 0.9574799537658691 0.0 0 0 1.8860740661621094 15.850961685180664 C2.038846969604492 15.905247688293457 2.200709342956543 15.93214225769043 2.3715381622314453 15.93214225769043 C2.547469139099121 15.93214225769043 2.7140626907348633 15.903879165649414 2.8714447021484375 15.847973823547363 A1.0318121910095215 1.0318121910095215 0.0 0 0 3.275104522705078 15.588994026184082 C3.386789321899414 15.472203254699707 3.468592643737793 15.332378387451172 3.5207624435424805 15.169520378112793 C3.5726823806762695 15.006288528442383 3.598705291748047 14.833468437194824 3.598705291748047 14.650314331054688 C3.598705291748047 14.48546314239502 3.577787399291992 14.33144474029541 3.536076545715332 14.188508033752441 A1.066799521446228 1.066799521446228 0.0 0 0 3.3270254135131836 13.798916816711426 C3.229410171508789 13.682126998901367 3.1022844314575195 13.595094680786133 2.945651054382324 13.537944793701172 A1.44331693649292 1.44331693649292 0.0 0 0 2.4466171264648438 13.451908111572266 L2.4466171264648438 13.451908111572266" fill="black" fill-opacity="1.0" filling="0"/>
<path animation_id="11" d="M3.7024221420288086 15.777999877929688 C3.691838264465332 15.83054256439209 3.6836204528808594 15.886945724487305 3.6777687072753906 15.946959495544434 C3.450289726257324 15.976591110229492 3.271368980407715 15.997757911682129 3.141007423400879 16.01070785522461 C3.010645866394043 16.023656845092773 2.884392738342285 16.033618927001953 2.7623729705810547 16.040590286254883 C2.6403541564941406 16.047687530517578 2.5393762588500977 16.051298141479492 2.45981502532959 16.051298141479492 C2.2554941177368164 16.051298141479492 2.062379837036133 16.025026321411133 1.8807201385498047 15.971986770629883 C1.6989355087280273 15.919193267822266 1.5440454483032227 15.831663131713867 1.4162988662719727 15.709394454956055 C1.288426399230957 15.58687686920166 1.1969118118286133 15.445558547973633 1.1416301727294922 15.285314559936523 C1.0863475799560547 15.124820709228516 1.058706283569336 14.95187759399414 1.058706283569336 14.766357421875 C1.058706283569336 14.562784194946289 1.091078758239746 14.367552757263184 1.1559486389160156 14.180041313171387 C1.220693588256836 13.992528915405273 1.3163166046142578 13.835647583007812 1.4426946640014648 13.709519386291504 C1.5690717697143555 13.583017349243164 1.7202272415161133 13.488762855529785 1.8960342407226562 13.426507949829102 A1.642408013343811 1.642408013343811 0.0 0 1 2.4503517150878906 13.33262825012207 C2.6442136764526367 13.33262825012207 2.8276166915893555 13.365249633789062 3.0008087158203125 13.430367469787598 C3.1741275787353516 13.495237350463867 3.317188262939453 13.593101501464844 3.4299936294555664 13.723215103149414 C3.5428009033203125 13.853327751159668 3.6231088638305664 13.9970121383667 3.6705474853515625 14.154143333435059 C3.717985153198242 14.311274528503418 3.741766929626465 14.479487419128418 3.741766929626465 14.658533096313477 C3.741766929626465 14.787399291992188 3.7293167114257812 14.91141128540039 3.704289436340332 15.030567169189453 A1.4629894495010376 1.4629894495010376 0.0 0 1 3.598456382751465 15.354541778564453 A1.1554503440856934 1.1554503440856934 0.0 0 1 3.424266815185547 15.621116638183594 A1.1319180727005005 1.1319180727005005 0.0 0 1 3.229783058166504 15.799165725708008 C3.182344436645508 15.833904266357422 3.120089530944824 15.872627258300781 3.0431432723999023 15.914959907531738 A2.7292535305023193 2.7292535305023193 0.0 0 0 3.284069061279297 15.890182495117188 A1.6712943315505981 1.6712943315505981 0.0 0 0 3.472949981689453 15.848596572875977 C3.534832000732422 15.830916404724121 3.6111555099487305 15.80738353729248 3.7024221420288086 15.777999877929688 M2.4466171264648438 13.451908111572266 C2.279648780822754 13.451908111572266 2.121645927429199 13.476934432983398 1.9726085662841797 13.527235984802246 A1.0578348636627197 1.0578348636627197 0.0 0 0 1.5738029479980469 13.771649360656738 C1.4570131301879883 13.884454727172852 1.3657474517822266 14.027018547058105 1.3002557754516602 14.198966979980469 A1.5064433813095093 1.5064433813095093 0.0 0 0 1.202016830444336 14.739338874816895 C1.202016830444336 14.905683517456055 1.223806381225586 15.060325622558594 1.2675094604492188 15.203387260437012 C1.3112115859985352 15.346447944641113 1.3869142532348633 15.47643756866455 1.4949884414672852 15.593973159790039 A0.9574799537658691 0.9574799537658691 0.0 0 0 1.8860740661621094 15.850961685180664 C2.038846969604492 15.905247688293457 2.200709342956543 15.93214225769043 2.3715381622314453 15.93214225769043 C2.547469139099121 15.93214225769043 2.7140626907348633 15.903879165649414 2.8714447021484375 15.847973823547363 A1.0318121910095215 1.0318121910095215 0.0 0 0 3.275104522705078 15.588994026184082 C3.386789321899414 15.472203254699707 3.468592643737793 15.332378387451172 3.5207624435424805 15.169520378112793 C3.5726823806762695 15.006288528442383 3.598705291748047 14.833468437194824 3.598705291748047 14.650314331054688 C3.598705291748047 14.48546314239502 3.577787399291992 14.33144474029541 3.536076545715332 14.188508033752441 A1.066799521446228 1.066799521446228 0.0 0 0 3.3270254135131836 13.798916816711426 C3.229410171508789 13.682126998901367 3.1022844314575195 13.595094680786133 2.945651054382324 13.537944793701172 A1.44331693649292 1.44331693649292 0.0 0 0 2.4466171264648438 13.451908111572266 L2.4466171264648438 13.451908111572266" fill="none" filling="0" stroke="black" stroke-opacity="1.0" stroke-width=".3"/>
<path animation_id="12" d="M4.2939677238464355 13.372346878051758 C4.3255934715271 13.373592376708984 4.3542304039001465 13.37433910369873 4.379630088806152 13.37433910369873 C4.406275272369385 13.37433910369873 4.435535430908203 13.373592376708984 4.46728515625 13.372346878051758 L4.378634452819824 14.957605361938477 L4.37477445602417 15.100542068481445 L4.37477445602417 15.13341236114502 C4.37477445602417 15.288053512573242 4.394571304321289 15.414804458618164 4.434414863586426 15.513540267944336 A0.5636556148529053 0.5636556148529053 0.0 0 0 4.625910758972168 15.758949279785156 A0.794123113155365 0.794123113155365 0.0 0 0 4.914524078369141 15.894415855407715 C5.019112586975098 15.919443130493164 5.132914066314697 15.93214225769043 5.256178855895996 15.93214225769043 C5.374214172363281 15.93214225769043 5.487767219543457 15.91969108581543 5.596713066101074 15.89541244506836 A0.8709456324577332 0.8709456324577332 0.0 0 0 5.823818683624268 15.812239646911621 A0.6394820809364319 0.6394820809364319 0.0 0 0 5.97385311126709 15.700181007385254 C6.018801212310791 15.654983520507812 6.056900978088379 15.60368537902832 6.088401794433594 15.54653549194336 C6.119778633117676 15.489136695861816 6.142688274383545 15.428874015808105 6.1567583084106445 15.365622520446777 C6.182406902313232 15.241860389709473 6.199090957641602 15.090580940246582 6.206810474395752 14.91141128540039 L6.246155738830566 14.116665840148926 C6.2592291831970215 13.817842483520508 6.265828609466553 13.569694519042969 6.265828609466553 13.37247085571289 C6.298948287963867 13.373716354370117 6.326962471008301 13.374463081359863 6.349997043609619 13.374463081359863 C6.372782230377197 13.374463081359863 6.400796890258789 13.373716354370117 6.4340410232543945 13.37247085571289 L6.383738994598389 14.252506256103516 L6.350744247436523 15.028077125549316 C6.340409755706787 15.198282241821289 6.321235179901123 15.339599609375 6.292971611022949 15.451659202575684 A0.8013446927070618 0.8013446927070618 0.0 0 1 6.2140326499938965 15.643280029296875 C6.180663585662842 15.698686599731445 6.140944957733154 15.747867584228516 6.094752311706543 15.790450096130371 A0.8118035197257996 0.8118035197257996 0.0 0 1 5.904252052307129 15.919816017150879 C5.8234453201293945 15.961153030395508 5.736164093017578 15.992032051086426 5.642532825469971 16.0127010345459 C5.519392490386963 16.038475036621094 5.392392158508301 16.051424026489258 5.261532783508301 16.051424026489258 C5.1177239418029785 16.051424026489258 4.987611293792725 16.037353515625 4.870820999145508 16.008840560913086 A0.9507564306259155 0.9507564306259155 0.0 0 1 4.587934970855713 15.892797470092773 C4.502023696899414 15.840005874633789 4.432173252105713 15.779245376586914 4.378136157989502 15.710888862609863 C4.333188056945801 15.655481338500977 4.297329425811768 15.58326530456543 4.270435333251953 15.494241714477539 C4.243416786193848 15.405217170715332 4.229969501495361 15.297764778137207 4.229969501495361 15.171263694763184 C4.229969501495361 15.057960510253906 4.233953952789307 14.924484252929688 4.241922378540039 14.770964622497559 L4.287991046905518 13.737907409667969 C4.291975498199463 13.61800479888916 4.2939677238464355 13.496232986450195 4.2939677238464355 13.372346878051758 L4.2939677238464355 13.372346878051758 M6.975409507751465 16.01170539855957 C6.998941898345947 15.662205696105957 7.020357131958008 15.211355209350586 7.039656639099121 14.659154891967773 C7.058955669403076 14.106954574584961 7.068542957305908 13.677892684936523 7.068542957305908 13.37247085571289 C7.35391902923584 13.373716354370117 7.621988296508789 13.374463081359863 7.872626781463623 13.374463081359863 L8.576480865478516 13.37247085571289 C8.571250915527344 13.424764633178711 8.568760871887207 13.471207618713379 8.568760871887207 13.511548042297363 L8.414742469787598 13.498226165771484 C8.374898910522461 13.493867874145508 8.305547714233398 13.491378784179688 8.206686973571777 13.490631103515625 C8.10782527923584 13.490133285522461 8.010831832885742 13.489635467529297 7.915956020355225 13.489635467529297 C7.61152982711792 13.489635467529297 7.380564212799072 13.490382194519043 7.222685813903809 13.491626739501953 L7.183714389801025 14.60001277923584 C7.377326965332031 14.603872299194336 7.554877758026123 14.605864524841309 7.716616153717041 14.605864524841309 C7.9088592529296875 14.605864524841309 8.146175384521484 14.603872299194336 8.428314208984375 14.60001277923584 C8.423084259033203 14.639108657836914 8.420095443725586 14.682188987731934 8.418725967407227 14.72912883758545 L7.694079399108887 14.72327709197998 C7.609413146972656 14.72327709197998 7.437838554382324 14.725518226623535 7.178983211517334 14.72912883758545 L7.13801908493042 15.89229965209961 L7.691215991973877 15.894290924072266 C7.908485412597656 15.894290924072266 8.059142112731934 15.893295288085938 8.143310546875 15.890929222106934 C8.227479934692383 15.888564109802246 8.342277526855469 15.882462501525879 8.487580299377441 15.872503280639648 A1.1513415575027466 1.1513415575027466 0.0 0 0 8.47786808013916 16.011829376220703 C8.169706344604492 16.010583877563477 7.944344520568848 16.009836196899414 7.801780700683594 16.009836196899414 L6.975409507751465 16.01170539855957 L6.975409507751465 16.01170539855957 M9.038162231445312 16.01170539855957 L9.067671775817871 15.54379653930664 L9.121085166931152 14.08790397644043 L9.128432273864746 13.674033164978027 L9.13029956817627 13.37247085571289 L9.514411926269531 13.374463081359863 L9.954678535461426 13.37247085571289 C10.137334823608398 13.37247085571289 10.270435333251953 13.396501541137695 10.354104995727539 13.44493579864502 A0.5155948400497437 0.5155948400497437 0.0 0 1 10.551952362060547 13.651870727539062 C10.600137710571289 13.741641998291016 10.62441635131836 13.844239234924316 10.62441635131836 13.960281372070312 A0.7546535730361938 0.7546535730361938 0.0 0 1 10.51534652709961 14.357841491699219 C10.442632675170898 14.478490829467773 10.343273162841797 14.57012939453125 10.217144966125488 14.633380889892578 C10.09101676940918 14.696632385253906 9.946460723876953 14.72825813293457 9.782979965209961 14.72825813293457 C9.762310981750488 14.72825813293457 9.73155689239502 14.727012634277344 9.69034481048584 14.724398612976074 L10.619187355041504 16.011829376220703 A2.7052230834960938 2.7052230834960938 0.0 0 0 10.414368629455566 16.011829376220703 L10.162111282348633 15.62983226776123 L9.428625106811523 14.590176582336426 C9.543174743652344 14.610097885131836 9.642284393310547 14.620058059692383 9.726078033447266 14.620058059692383 A1.050862193107605 1.050862193107605 0.0 0 0 10.021540641784668 14.578472137451172 C10.116789817810059 14.550457954406738 10.198468208312988 14.508871078491211 10.26669979095459 14.453215599060059 A0.5576791763305664 0.5576791763305664 0.0 0 0 10.42507553100586 14.244786262512207 C10.46242904663086 14.161613464355469 10.48110580444336 14.070722579956055 10.48110580444336 13.972359657287598 A0.6100977659225464 0.6100977659225464 0.0 0 0 10.454087257385254 13.788208961486816 C10.435909271240234 13.731307983398438 10.407022476196289 13.681255340576172 10.36705493927002 13.637925148010254 C10.32708740234375 13.594595909118652 10.286123275756836 13.56396770477295 10.244288444519043 13.545788764953613 C10.20245361328125 13.527734756469727 10.148665428161621 13.514411926269531 10.082923889160156 13.506194114685059 A1.633941411972046 1.633941411972046 0.0 0 0 9.874245643615723 13.493494987487793 L9.557119369506836 13.495487213134766 C9.487393379211426 13.495487213134766 9.398618698120117 13.494241714477539 9.290294647216797 13.491626739501953 C9.250327110290527 14.511487007141113 9.227293014526367 15.351552963256836 9.221315383911133 16.01170539855957 C9.188819885253906 16.010459899902344 9.158438682556152 16.00971221923828 9.129800796508789 16.00971221923828 C9.101163864135742 16.00971221923828 9.070659637451172 16.010459899902344 9.038162231445312 16.01170539855957 L9.038162231445312 16.01170539855957 M11.033679962158203 16.01170539855957 C11.057212829589844 15.662205696105957 11.078627586364746 15.211355209350586 11.097803115844727 14.659154891967773 C11.11697769165039 14.106954574584961 11.126688957214355 13.677892684936523 11.126688957214355 13.37247085571289 C11.412064552307129 13.373716354370117 11.680134773254395 13.374463081359863 11.93077278137207 13.374463081359863 L12.634750366210938 13.37247085571289 C12.629396438598633 13.424764633178711 12.627031326293945 13.471207618713379 12.627031326293945 13.511548042297363 L12.472888946533203 13.498226165771484 C12.433294296264648 13.493867874145508 12.363693237304688 13.491378784179688 12.2649564743042 13.490631103515625 C12.165971755981445 13.490133285522461 12.068978309631348 13.489635467529297 11.974102020263672 13.489635467529297 C11.6697998046875 13.489635467529297 11.43871021270752 13.490382194519043 11.280831336975098 13.491626739501953 L11.241860389709473 14.60001277923584 C11.435473442077637 14.603872299194336 11.61302375793457 14.605864524841309 11.774762153625488 14.605864524841309 C11.967129707336426 14.605864524841309 12.204319953918457 14.603872299194336 12.486584663391113 14.60001277923584 A1.3322542905807495 1.3322542905807495 0.0 0 0 12.476872444152832 14.72912883758545 L11.752349853515625 14.72327709197998 C11.667683601379395 14.72327709197998 11.496109008789062 14.725518226623535 11.237253189086914 14.72912883758545 L11.1962890625 15.89229965209961 L11.749485969543457 15.894290924072266 C11.966631889343262 15.894290924072266 12.117412567138672 15.893295288085938 12.201457023620605 15.890929222106934 C12.285500526428223 15.888564109802246 12.400424003601074 15.882462501525879 12.54585075378418 15.872503280639648 A1.1265642642974854 1.1265642642974854 0.0 0 0 12.536138534545898 16.011829376220703 C12.227977752685547 16.010583877563477 12.002614974975586 16.009836196899414 11.860051155090332 16.009836196899414 L11.033679962158203 16.01170539855957 L11.033679962158203 16.01170539855957 M13.610284805297852 16.013572692871094 L13.638921737670898 15.531844139099121 L13.713876724243164 13.493494987487793 C13.396002769470215 13.493494987487793 13.119592666625977 13.498600006103516 12.883894920349121 13.508310317993164 C12.890493392944336 13.456016540527344 12.893606185913086 13.410571098327637 12.893606185913086 13.372346878051758 C13.203386306762695 13.373592376708984 13.522754669189453 13.37433910369873 13.851709365844727 13.37433910369873 L14.40129566192627 13.372346878051758 L14.692399024963379 13.372346878051758 C14.685799598693848 13.423395156860352 14.682687759399414 13.468841552734375 14.682687759399414 13.508310317993164 C14.527299880981445 13.498600006103516 14.29110336303711 13.493494987487793 13.974102020263672 13.493494987487793 L13.862292289733887 13.493494987487793 L13.780613899230957 15.622859954833984 C13.779119491577148 15.652493476867676 13.778373718261719 15.682251930236816 13.778373718261719 15.711885452270508 L13.778373718261719 16.013696670532227 C13.747245788574219 16.012451171875 13.719230651855469 16.01170539855957 13.694453239440918 16.01170539855957 C13.670547485351562 16.01170539855957 13.642532348632812 16.012451171875 13.610284805297852 16.013572692871094" fill="black" fill-opacity="1.0" filling="0"/>
<path animation_id="13" d="M14.600759506225586 16.01170539855957 L15.244226455688477 14.741331100463867 L15.810870170593262 13.615887641906738 L15.928033828735352 13.37247085571289 A2.674469232559204 2.674469232559204 0.0 0 0 16.13571548461914 13.37247085571289 L16.508747100830078 14.435909271240234 L17.076387405395508 16.01170539855957 C17.043018341064453 16.010459899902344 17.01413345336914 16.00971221923828 16.989852905273438 16.00971221923828 C16.964078903198242 16.00971221923828 16.935192108154297 16.010459899902344 16.903318405151367 16.01170539855957 C16.86733627319336 15.88769245147705 16.80022430419922 15.682624816894531 16.701488494873047 15.396875381469727 C16.602752685546875 15.110876083374023 16.52543067932129 14.894975662231445 16.46902847290039 14.749051094055176 L15.385419845581055 14.749051094055176 L14.778186798095703 16.01170539855957 C14.746062278747559 16.010459899902344 14.716428756713867 16.00971221923828 14.68966007232666 16.00971221923828 C14.662516593933105 16.00971221923828 14.632759094238281 16.010459899902344 14.600759506225586 16.01170539855957 L14.600759506225586 16.01170539855957 M15.442071914672852 14.62479019165039 L16.429931640625 14.62479019165039 L16.016559600830078 13.493992805480957 L15.442071914672852 14.62479019165039 L15.442071914672852 14.62479019165039" fill="black" fill-opacity="1.0" filling="0"/>
<path animation_id="14" d="M14.600759506225586 16.01170539855957 L15.244226455688477 14.741331100463867 L15.810870170593262 13.615887641906738 L15.928033828735352 13.37247085571289 A2.674469232559204 2.674469232559204 0.0 0 0 16.13571548461914 13.37247085571289 L16.508747100830078 14.435909271240234 L17.076387405395508 16.01170539855957 C17.043018341064453 16.010459899902344 17.01413345336914 16.00971221923828 16.989852905273438 16.00971221923828 C16.964078903198242 16.00971221923828 16.935192108154297 16.010459899902344 16.903318405151367 16.01170539855957 C16.86733627319336 15.88769245147705 16.80022430419922 15.682624816894531 16.701488494873047 15.396875381469727 C16.602752685546875 15.110876083374023 16.52543067932129 14.894975662231445 16.46902847290039 14.749051094055176 L15.385419845581055 14.749051094055176 L14.778186798095703 16.01170539855957 C14.746062278747559 16.010459899902344 14.716428756713867 16.00971221923828 14.68966007232666 16.00971221923828 C14.662516593933105 16.00971221923828 14.632759094238281 16.010459899902344 14.600759506225586 16.01170539855957 M15.442071914672852 14.62479019165039 L16.429931640625 14.62479019165039 L16.016559600830078 13.493992805480957 L15.442071914672852 14.62479019165039 L15.442071914672852 14.62479019165039" fill="none" filling="0" stroke="black" stroke-opacity="1.0" stroke-width=".3"/>
<path animation_id="15" d="M17.485401153564453 16.01170539855957 L17.52960205078125 15.249828338623047 L17.58388900756836 13.683745384216309 L17.589740753173828 13.37247085571289 C17.620620727539062 13.373716354370117 17.65909194946289 13.374463081359863 17.705533981323242 13.374463081359863 C17.753223419189453 13.374463081359863 17.79256820678711 13.373716354370117 17.82344627380371 13.37247085571289 C17.88719367980957 13.476810455322266 17.940235137939453 13.561227798461914 17.982444763183594 13.625598907470703 C18.0246524810791 13.689970016479492 18.11280632019043 13.818465232849121 18.247276306152344 14.010583877563477 L19.23090362548828 15.441200256347656 C19.33088493347168 15.58687686920166 19.432235717773438 15.731307983398438 19.53582763671875 15.874370574951172 L19.619001388549805 13.672040939331055 L19.624853134155273 13.37247085571289 C19.65772247314453 13.373716354370117 19.68399429321289 13.374463081359863 19.70292091369629 13.374463081359863 C19.723339080810547 13.374463081359863 19.75010871887207 13.373716354370117 19.78322982788086 13.37247085571289 L19.74724578857422 13.979455947875977 L19.686983108520508 15.630704879760742 L19.679386138916016 16.011829376220703 C19.634191513061523 16.010583877563477 19.594472885131836 16.009836196899414 19.56072998046875 16.009836196899414 C19.52711296081543 16.009836196899414 19.488265991210938 16.010583877563477 19.443939208984375 16.011829376220703 L19.093570709228516 15.485774993896484 L17.879100799560547 13.722467422485352 L17.737285614013672 13.527235984802246 C17.73342514038086 13.592853546142578 17.730186462402344 13.66046142578125 17.72757339477539 13.73031234741211 L17.658222198486328 15.540060997009277 L17.648509979248047 16.011829376220703 C17.614891052246094 16.010583877563477 17.58774757385254 16.009836196899414 17.566829681396484 16.009836196899414 A2.028263807296753 2.028263807296753 0.0 0 0 17.485401153564453 16.01170539855957 L17.485401153564453 16.01170539855957" fill="black" fill-opacity="1.0" filling="0"/>
<path animation_id="16" d="M21.65349006652832 13.332503318786621 C21.836891174316406 13.332503318786621 22.01045799255371 13.360269546508789 22.1741886138916 13.41567611694336 C22.337919235229492 13.47108268737793 22.480606079101562 13.561351776123047 22.602378845214844 13.686359405517578 A1.0807446241378784 1.0807446241378784 0.0 0 1 22.863101959228516 14.116043090820312 C22.915145874023438 14.277780532836914 22.94116973876953 14.449481010437012 22.94116973876953 14.63114070892334 C22.94116973876953 14.830853462219238 22.911537170410156 15.022723197937012 22.852642059326172 15.206997871398926 C22.793498992919922 15.39114761352539 22.70435333251953 15.545788764953613 22.58519744873047 15.670796394348145 C22.465791702270508 15.795804023742676 22.316753387451172 15.89043140411377 22.137706756591797 15.954803466796875 A1.6500030755996704 1.6500030755996704 0.0 0 1 21.57455062866211 16.051298141479492 C21.385791778564453 16.051298141479492 21.20513153076172 16.02141571044922 21.031814575195312 15.961527824401855 C20.858619689941406 15.901512145996094 20.71343994140625 15.813484191894531 20.59677505493164 15.696694374084473 C20.479984283447266 15.580154418945312 20.394447326660156 15.43995475769043 20.34003448486328 15.275477409362793 A1.6289609670639038 1.6289609670639038 0.0 0 1 20.258358001708984 14.758513450622559 C20.258358001708984 14.556434631347656 20.29172706604004 14.360206604003906 20.35833740234375 14.170205116271973 C20.424951553344727 13.980202674865723 20.52157211303711 13.822698593139648 20.64794921875 13.697690963745117 C20.77432632446289 13.572683334350586 20.92548179626465 13.480794906616211 21.101289749145508 13.421402931213379 C21.277095794677734 13.36201286315918 21.460872650146484 13.332503318786621 21.65349006652832 13.332503318786621 L21.65349006652832 13.332503318786621 M21.646888732910156 13.451908111572266 C21.46933937072754 13.451908111572266 21.302248001098633 13.47917652130127 21.145490646362305 13.53408432006836 A1.009400486946106 1.009400486946106 0.0 0 0 20.736724853515625 13.800909042358398 A1.1383925676345825 1.1383925676345825 0.0 0 0 20.482349395751953 14.235696792602539 A1.6878540515899658 1.6878540515899658 0.0 0 0 20.40142059326172 14.758763313293457 A1.4443130493164062 1.4443130493164062 0.0 0 0 20.48633575439453 15.251697540283203 C20.54273796081543 15.408827781677246 20.625661849975586 15.5389404296875 20.73485565185547 15.642034530639648 A0.9607172012329102 0.9607172012329102 0.0 0 0 21.119590759277344 15.86428451538086 C21.266761779785156 15.9094820022583 21.42190170288086 15.93214225769043 21.58525848388672 15.93214225769043 C21.75745391845703 15.93214225769043 21.920312881469727 15.907115936279297 22.07408332824707 15.856813430786133 A0.960219144821167 0.960219144821167 0.0 0 0 22.47313690185547 15.605304718017578 C22.585445404052734 15.488140106201172 22.667871475219727 15.347320556640625 22.719667434692383 15.18309211730957 C22.771713256835938 15.018738746643066 22.797985076904297 14.845046997070312 22.797985076904297 14.661894798278809 A1.6871070861816406 1.6871070861816406 0.0 0 0 22.72551918029785 14.16510009765625 C22.67733383178711 14.00796890258789 22.600011825561523 13.874245643615723 22.493309020996094 13.764054298400879 C22.38660430908203 13.653863906860352 22.260101318359375 13.574177742004395 22.11343002319336 13.52524471282959 A1.4663512706756592 1.4663512706756592 0.0 0 0 21.646888732910156 13.451908111572266 L21.646888732910156 13.451908111572266" fill="black" fill-opacity="1.0" filling="0"/>
<path animation_id="17" d="M21.65349006652832 13.332503318786621 C21.836891174316406 13.332503318786621 22.01045799255371 13.360269546508789 22.1741886138916 13.41567611694336 C22.337919235229492 13.47108268737793 22.480606079101562 13.561351776123047 22.602378845214844 13.686359405517578 A1.0807446241378784 1.0807446241378784 0.0 0 1 22.863101959228516 14.116043090820312 C22.915145874023438 14.277780532836914 22.94116973876953 14.449481010437012 22.94116973876953 14.63114070892334 C22.94116973876953 14.830853462219238 22.911537170410156 15.022723197937012 22.852642059326172 15.206997871398926 C22.793498992919922 15.39114761352539 22.70435333251953 15.545788764953613 22.58519744873047 15.670796394348145 C22.465791702270508 15.795804023742676 22.316753387451172 15.89043140411377 22.137706756591797 15.954803466796875 A1.6500030755996704 1.6500030755996704 0.0 0 1 21.57455062866211 16.051298141479492 C21.385791778564453 16.051298141479492 21.20513153076172 16.02141571044922 21.031814575195312 15.961527824401855 C20.858619689941406 15.901512145996094 20.71343994140625 15.813484191894531 20.59677505493164 15.696694374084473 C20.479984283447266 15.580154418945312 20.394447326660156 15.43995475769043 20.34003448486328 15.275477409362793 A1.6289609670639038 1.6289609670639038 0.0 0 1 20.258358001708984 14.758513450622559 C20.258358001708984 14.556434631347656 20.29172706604004 14.360206604003906 20.35833740234375 14.170205116271973 C20.424951553344727 13.980202674865723 20.52157211303711 13.822698593139648 20.64794921875 13.697690963745117 C20.77432632446289 13.572683334350586 20.92548179626465 13.480794906616211 21.101289749145508 13.421402931213379 C21.277095794677734 13.36201286315918 21.460872650146484 13.332503318786621 21.65349006652832 13.332503318786621 M21.646888732910156 13.451908111572266 C21.46933937072754 13.451908111572266 21.302248001098633 13.47917652130127 21.145490646362305 13.53408432006836 A1.009400486946106 1.009400486946106 0.0 0 0 20.736724853515625 13.800909042358398 A1.1383925676345825 1.1383925676345825 0.0 0 0 20.482349395751953 14.235696792602539 A1.6878540515899658 1.6878540515899658 0.0 0 0 20.40142059326172 14.758763313293457 A1.4443130493164062 1.4443130493164062 0.0 0 0 20.48633575439453 15.251697540283203 C20.54273796081543 15.408827781677246 20.625661849975586 15.5389404296875 20.73485565185547 15.642034530639648 A0.9607172012329102 0.9607172012329102 0.0 0 0 21.119590759277344 15.86428451538086 C21.266761779785156 15.9094820022583 21.42190170288086 15.93214225769043 21.58525848388672 15.93214225769043 C21.75745391845703 15.93214225769043 21.920312881469727 15.907115936279297 22.07408332824707 15.856813430786133 A0.960219144821167 0.960219144821167 0.0 0 0 22.47313690185547 15.605304718017578 C22.585445404052734 15.488140106201172 22.667871475219727 15.347320556640625 22.719667434692383 15.18309211730957 C22.771713256835938 15.018738746643066 22.797985076904297 14.845046997070312 22.797985076904297 14.661894798278809 A1.6871070861816406 1.6871070861816406 0.0 0 0 22.72551918029785 14.16510009765625 C22.67733383178711 14.00796890258789 22.600011825561523 13.874245643615723 22.493309020996094 13.764054298400879 C22.38660430908203 13.653863906860352 22.260101318359375 13.574177742004395 22.11343002319336 13.52524471282959 A1.4663512706756592 1.4663512706756592 0.0 0 0 21.646888732910156 13.451908111572266 L21.646888732910156 13.451908111572266" fill="none" filling="0" stroke="black" stroke-opacity="1.0" stroke-width=".3"/>
<path animation_id="18" d="M1.0654296875 6.570379257202148 L14.352861404418945 6.570379257202148" fill="none" filling="0" stroke="black" stroke-opacity="1.0" stroke-width=".3"/>
<path animation_id="19" d="M15.089958190917969 17.653366088867188 L22.839569091796875 17.653366088867188 L15.089958190917969 17.653366088867188 L15.089958190917969 17.653366088867188" fill="black" fill-opacity="1.0" filling="0"/></svg>