<?xml version="1.0" encoding="iso-8859-1"?><svg height="200px" viewBox="0.0 0.0 24.0 24.0" width="200px" xmlns="http://www.w3.org/2000/svg"><path animation_id="0" d="M3.23541259765625 10.792757034301758 L3.23541259765625 10.406438827514648 L1.8350095748901367 10.406438827514648 L1.8350095748901367 9.923541069030762 L1.4004020690917969 9.923541069030762 L1.4004020690917969 10.406438827514648 L0.0 10.406438827514648 L0.0 10.792757034301758 L0.4027853012084961 10.792757034301758 L1.383549690246582 12.20160961151123 L0.061135292053222656 14.076458930969238 L0.5522899627685547 14.076458930969238 L1.6229219436645508 12.543935775756836 L2.6861162185668945 14.076458930969238 L3.1780929565429688 14.076458930969238 L1.8623905181884766 12.201513290405273 L2.8407888412475586 10.792757034301758 L3.23541259765625 10.792757034301758 M1.6229705810546875 11.856917381286621 L0.8880481719970703 10.792757034301758 L2.357891082763672 10.792757034301758 L1.6229705810546875 11.856917381286621 M7.243460655212402 12.917505264282227 L6.433497428894043 12.096579551696777 L6.712273597717285 12.096579551696777 L6.712273597717285 11.710261344909668 L6.181086540222168 11.710261344909668 L6.181086540222168 11.420522689819336 L6.712273597717285 11.420522689819336 L6.712273597717285 11.034205436706543 L5.402897834777832 11.034205436706543 L5.494503021240234 10.792757034301758 L6.712273597717285 10.792757034301758 L6.712273597717285 10.406438827514648 L5.553319931030273 10.406438827514648 L5.553319931030273 9.923541069030762 L5.118712425231934 9.923541069030762 L5.118712425231934 10.406438827514648 L3.959758758544922 10.406438827514648 L3.959758758544922 10.792757034301758 L5.057625770568848 10.792757034301758 L4.966020107269287 11.034205436706543 L3.959758758544922 11.034205436706543 L3.959758758544922 11.420522689819336 L4.804925441741943 11.420522689819336 L4.70356559753418 11.710261344909668 L3.959758758544922 11.710261344909668 L3.959758758544922 12.096579551696777 L4.372973918914795 12.096579551696777 L3.8872270584106445 12.580828666687012 L3.887179374694824 12.580732345581055 L3.5734405517578125 12.917505264282227 L4.19942045211792 12.917505264282227 L4.394366264343262 12.706381797790527 L4.394366264343262 14.076458930969238 L6.374245643615723 14.076458930969238 L6.374245643615723 12.676055908203125 L6.625835418701172 12.917505264282227 L7.243460655212402 12.917505264282227 M5.746479034423828 11.420522689819336 L5.746479034423828 11.710261344909668 L5.140490531921387 11.710261344909668 L5.241851329803467 11.420522689819336 L5.746479034423828 11.420522689819336 M5.814712047576904 12.096579551696777 L6.036217212677002 12.338027954101562 L4.732394218444824 12.338027954101562 L4.991807460784912 12.096579551696777 L5.814712047576904 12.096579551696777 M5.939637660980225 12.724346160888672 L5.939637660980225 13.014084815979004 L4.828973770141602 13.014084815979004 L4.828973770141602 12.724346160888672 L5.939637660980225 12.724346160888672 M4.828973770141602 13.690140724182129 L4.828973770141602 13.400402069091797 L5.939637660980225 13.400402069091797 L5.939637660980225 13.690140724182129 L4.828973770141602 13.690140724182129 M10.816901206970215 10.985915184020996 L9.947686195373535 10.985915184020996 L9.947686195373535 10.116700172424316 L9.561367988586426 10.116700172424316 L9.561367988586426 10.985915184020996 L7.871227264404297 10.985915184020996 L7.871227264404297 11.372233390808105 L9.416499137878418 11.372233390808105 L7.9195170402526855 13.448692321777344 L8.40202808380127 13.448692321777344 L9.561367988586426 11.857207298278809 L9.562237739562988 13.883299827575684 L9.947686195373535 13.883299827575684 L9.947686195373535 11.372233390808105 L10.816901206970215 11.372233390808105 L10.816901206970215 10.985915184020996 M20.571428298950195 10.164989471435547 L18.205230712890625 12.096579551696777 L18.446680068969727 12.38631820678711 L19.460763931274414 11.605279922485352 L19.460763931274414 13.883299827575684 L19.847082138061523 13.883299827575684 L19.847082138061523 11.27951717376709 L20.571428298950195 10.696176528930664 L20.571428298950195 10.164989471435547 M15.40838623046875 10.261569023132324 L16.949697494506836 10.261569023132324 L16.949697494506836 10.647887229919434 L15.40838623046875 10.647887229919434 L15.40838623046875 10.261569023132324 M17.43259620666504 11.275653839111328 L15.018108367919922 11.275653839111328 L15.018108367919922 11.661972045898438 L17.04627799987793 11.661972045898438 L17.04627799987793 11.855131149291992 L15.501006126403809 13.883299827575684 L16.03219223022461 13.883299827575684 L17.43259620666504 11.979331970214844 L17.43259620666504 11.275653839111328 M11.734406471252441 10.406438827514648 L12.941650390625 10.406438827514648 L12.941650390625 10.792757034301758 L11.734406471252441 10.792757034301758 L11.734406471252441 10.406438827514648 M14.148893356323242 11.227364540100098 L12.458752632141113 13.496981620788574 L11.734406471252441 13.496981620788574 L11.734406471252441 13.883299827575684 L12.673787117004395 13.883299827575684 L14.148893356323242 11.903420448303223 L14.148893356323242 11.227364540100098 M21.585514068603516 10.406438827514648 L22.792757034301758 10.406438827514648 L22.792757034301758 10.792757034301758 L21.585514068603516 10.792757034301758 L21.585514068603516 10.406438827514648 M24.0 11.227364540100098 L22.309860229492188 13.496981620788574 L21.585514068603516 13.496981620788574 L21.585514068603516 13.883299827575684 L22.52489471435547 13.883299827575684 L24.0 11.903420448303223 L24.0 11.227364540100098" fill="black" fill-opacity="1.0" filling="0"/></svg>