<?xml version="1.0" encoding="iso-8859-1"?><svg height="200px" viewBox="0.0 0.0 24.0 24.0" width="200px" xmlns="http://www.w3.org/2000/svg"><path animation_id="0" d="M0.0 0.0 L24.0 0.0 L24.0 24.0 L0.0 24.0 L0.0 0.0" fill="black" fill-opacity="1.0" filling="0"/>
<path animation_id="1" d="M2.1053361892700195 15.58563232421875 C1.3778247833251953 14.182655334472656 2.8329696655273438 11.999876022338867 5.4313645362854 10.648695945739746 C7.977837085723877 9.297515869140625 10.680196762084961 9.297515869140625 11.407832145690918 10.648695945739746 C12.135467529296875 12.052044868469238 10.628276824951172 14.28662109375 8.081802368164062 15.637677192687988 C5.535454273223877 16.988981246948242 2.8329696655273438 16.988981246948242 2.1053361892700195 15.58563232421875 L2.1053361892700195 15.58563232421875 M9.27709674835205 15.481790542602539 C12.239432334899902 13.55898666381836 13.330760955810547 10.232832908630371 11.927535057067871 8.310029029846191 C10.472390174865723 6.38722562789917 7.094440937042236 6.439270496368408 4.184149742126465 8.46591567993164 C1.325779914855957 10.492685317993164 0.3903379440307617 14.026520729064941 1.5337114334106445 15.689722061157227 C2.9369354248046875 17.716367721557617 6.314885139465332 17.456640243530273 9.27709674835205 15.481790542602539 L9.27709674835205 15.481790542602539" fill="black" fill-opacity="1.0" filling="0"/>
<path animation_id="2" d="M20.346635818481445 8.050177574157715 C21.333995819091797 9.141630172729492 20.3984317779541 11.688103675842285 18.2679443359375 13.611032485961914 C15.981324195861816 15.58563232421875 13.434725761413574 16.157381057739258 12.343274116516113 14.91016674041748 C11.303991317749023 13.66282844543457 12.44736385345459 11.168523788452148 14.578099250793457 9.297515869140625 C16.656789779663086 7.42650842666626 19.25518226623535 6.802963733673096 20.346635818481445 8.050177574157715 M14.785780906677246 8.46591567993164 C12.135591506958008 10.544731140136719 10.628276824951172 13.71474838256836 12.08354663848877 15.741766929626465 C13.486770629882812 17.66457176208496 16.91651725769043 17.560482025146484 19.774887084960938 15.58563232421875 C22.892986297607422 13.403100967407227 23.51677703857422 10.180912971496582 22.477371215820312 8.362074851989746 C21.281951904296875 6.283135414123535 17.436220169067383 6.439146041870117 14.785780906677246 8.46591567993164" fill="black" fill-opacity="1.0" filling="0"/></svg>