<?xml version="1.0" encoding="iso-8859-1"?><svg height="200px" viewBox="0.0 0.0 24.0 24.0" width="200px" xmlns="http://www.w3.org/2000/svg"><path animation_id="0" d="M22.22191619873047 9.975189208984375 C21.667816162109375 10.126809120178223 21.356306076049805 10.50447940826416 21.356306076049805 11.02549934387207 C21.356306076049805 11.452791213989258 21.57408905029297 11.791868209838867 22.01516342163086 12.048242568969727 C22.18883514404297 12.150240898132324 22.23294448852539 12.172294616699219 22.45623779296875 12.266023635864258 C22.77877426147461 12.40385913848877 22.94693374633789 12.514128684997559 23.06822967529297 12.676774978637695 C23.145418167114258 12.776016235351562 23.159202575683594 12.817367553710938 23.159202575683594 12.946932792663574 C23.159202575683594 13.126119613647461 23.090282440185547 13.239145278930664 22.9221248626709 13.343900680541992 C22.836666107177734 13.396278381347656 22.781530380249023 13.407304763793945 22.610614776611328 13.404548645019531 C22.39007568359375 13.4017915725708 22.257755279541016 13.354928016662598 21.830463409423828 13.117850303649902 C21.684356689453125 13.037904739379883 21.667816162109375 13.032391548156738 21.60992431640625 13.070985794067383 C21.57408905029297 13.095796585083008 21.510684967041016 13.184011459350586 21.466575622558594 13.269469261169434 C21.422468185424805 13.354928016662598 21.37560272216797 13.43211555480957 21.364578247070312 13.440385818481445 C21.314956665039062 13.470709800720215 21.34252166748047 13.561681747436523 21.43073844909668 13.644383430480957 C21.54100799560547 13.7518949508667 21.962783813476562 13.95313549041748 22.180564880371094 14.005514144897461 C22.39007568359375 14.055133819580078 22.88628578186035 14.055133819580078 23.048933029174805 14.008270263671875 C23.396278381347656 13.903514862060547 23.680221557617188 13.699518203735352 23.82632827758789 13.44865608215332 C23.936595916748047 13.261198997497559 24.0 12.95796012878418 23.96416473388672 12.798070907592773 C23.903514862060547 12.525155067443848 23.88146209716797 12.461750984191895 23.79876136779785 12.345968246459961 C23.59200668334961 12.045485496520996 23.332874298095703 11.86905574798584 22.731910705566406 11.618194580078125 C22.285320281982422 11.433494567871094 22.086837768554688 11.237767219543457 22.08407974243164 10.989662170410156 C22.08407974243164 10.835286140441895 22.15024185180664 10.727773666381836 22.30461883544922 10.634045600891113 C22.434185028076172 10.55410099029541 22.76223373413086 10.54858684539795 22.924880981445312 10.620262145996094 C23.12887954711914 10.713990211486816 23.228118896484375 10.76361083984375 23.330120086669922 10.824258804321289 C23.38800811767578 10.860095977783203 23.451412200927734 10.887663841247559 23.473468780517578 10.887663841247559 C23.556171417236328 10.887663841247559 23.82081413269043 10.52377700805664 23.82081413269043 10.407994270324707 C23.82081413269043 10.206753730773926 23.109580993652344 9.925568580627441 22.60785675048828 9.925568580627441 C22.49483299255371 9.925568580627441 22.32115936279297 9.947622299194336 22.22191619873047 9.975189208984375 L22.22191619873047 9.975189208984375 M5.860785961151123 10.04686450958252 C5.8221917152404785 10.082701683044434 5.791867733001709 10.126809120178223 5.791867733001709 10.140592575073242 C5.791867733001709 10.154376029968262 5.745003700256348 10.270158767700195 5.684355735778809 10.396967887878418 C5.62646484375 10.52377700805664 5.538249492645264 10.711233139038086 5.48862886428833 10.818745613098145 C5.439007759094238 10.923501014709473 5.356306076049805 11.10544490814209 5.303928375244141 11.218469619750977 C5.248794078826904 11.33149528503418 5.171606063842773 11.499655723571777 5.130255222320557 11.59062671661377 C5.08890438079834 11.681598663330078 5.003445625305176 11.860785484313965 4.942798137664795 11.990351676940918 C4.882150173187256 12.119916915893555 4.793935775756836 12.307374000549316 4.747071266174316 12.40937328338623 C4.667125701904297 12.585803031921387 4.6092352867126465 12.709855079650879 4.410750865936279 13.139904022216797 C4.36388635635376 13.244659423828125 4.286698818206787 13.407304763793945 4.242591857910156 13.506546974182129 C4.195727348327637 13.605789184570312 4.1350789070129395 13.735355377197266 4.104755878448486 13.798759460449219 C4.0744309425354 13.859407424926758 4.055134296417236 13.939352035522461 4.060647487640381 13.977946281433105 C4.068918228149414 14.041351318359375 4.077188491821289 14.044107437133789 4.344590187072754 14.052377700805664 C4.496209621429443 14.057891845703125 4.647829055786133 14.052377700805664 4.683667182922363 14.044107437133789 C4.741557598114014 14.03032398223877 4.840799331665039 13.856650352478027 5.011715888977051 13.456926345825195 C5.039283275604248 13.390765190124512 5.086147308349609 13.335630416870117 5.116471290588379 13.327360153198242 C5.146795749664307 13.319089889526367 5.543763160705566 13.316333770751953 5.9958648681640625 13.319089889526367 L6.822880744934082 13.327360153198242 L6.883529186248779 13.45141315460205 C6.919365882873535 13.520330429077148 6.9910407066345215 13.671950340270996 7.046175479888916 13.78773307800293 C7.098552703857422 13.906271934509277 7.167470932006836 14.01378345489502 7.1977949142456055 14.03032398223877 C7.2308759689331055 14.04686450958252 7.376981735229492 14.055133819580078 7.547898769378662 14.052377700805664 C7.826326370239258 14.044107437133789 7.845623970031738 14.041351318359375 7.853893756866455 13.98621654510498 C7.859407424926758 13.95313549041748 7.8208136558532715 13.834596633911133 7.768435955047607 13.72432804107666 C7.644383907318115 13.456926345825195 7.512060642242432 13.170228004455566 7.426602363586426 12.982770919799805 C7.161957740783691 12.40385913848877 7.002067565917969 12.053755760192871 6.839421272277832 11.700896263122559 C6.638180732727051 11.268091201782227 6.580289840698242 11.141282081604004 6.516885280609131 10.997932434082031 C6.478291034698486 10.915230751037598 6.412129878997803 10.771881103515625 6.370779037475586 10.680910110473633 C6.213645935058594 10.344590187072754 6.13094425201416 10.154376029968262 6.111647605895996 10.099242210388184 C6.097863674163818 10.052377700805664 5.99310827255249 9.977946281433105 5.940730571746826 9.977946281433105 C5.932460784912109 9.977946281433105 5.896623134613037 10.008270263671875 5.860785961151123 10.04686450958252 L5.860785961151123 10.04686450958252 M5.987595081329346 11.485872268676758 C6.009648323059082 11.513439178466797 6.045485973358154 11.57960033416748 6.070296764373779 11.631978034973145 C6.164024829864502 11.833218574523926 6.2301859855651855 11.982081413269043 6.312887668609619 12.169538497924805 C6.362508773803711 12.274293899536133 6.431426525115967 12.42315673828125 6.467264175415039 12.494831085205078 C6.572019577026367 12.709855079650879 6.580289840698242 12.707098960876465 5.954514026641846 12.707098960876465 C5.494142055511475 12.707098960876465 5.400413513183594 12.70158576965332 5.3893866539001465 12.66574764251709 C5.38111686706543 12.643693923950195 5.408683776855469 12.547208786010742 5.455548286437988 12.45348072052002 C5.5547895431518555 12.243969917297363 5.654031753540039 12.026188850402832 5.733976364135742 11.83873176574707 C5.767057418823242 11.761543273925781 5.811164855957031 11.662302017211914 5.833218574523926 11.618194580078125 C5.85527229309082 11.571330070495605 5.877326488494873 11.513439178466797 5.88559627532959 11.485872268676758 C5.893866539001465 11.461061477661133 5.910407066345215 11.439007759094238 5.924190521240234 11.439007759094238 C5.937973976135254 11.439007759094238 5.965541362762451 11.461061477661133 5.987595081329346 11.485872268676758 L5.987595081329346 11.485872268676758 M0.06064796447753906 10.079944610595703 L0.0 10.129566192626953 L0.008270263671875 12.067540168762207 C0.01654052734375 13.75465202331543 0.02205371856689453 14.008270263671875 0.057890892028808594 14.03032398223877 C0.12405204772949219 14.074431419372559 0.6781530380249023 14.066162109375 0.7167463302612305 14.022053718566895 C0.7360439300537109 13.997243881225586 0.7498273849487305 13.716058731079102 0.7525844573974609 13.17298412322998 L0.7608547210693359 12.362508773803711 L2.6354236602783203 12.362508773803711 L2.64920711517334 13.184011459350586 C2.6602344512939453 13.873190879821777 2.668503761291504 14.008270263671875 2.7043418884277344 14.03032398223877 C2.767746925354004 14.068918228149414 3.3190908432006836 14.066162109375 3.360441207885742 14.024810791015625 C3.385251045227051 14.0 3.393521308898926 13.52584457397461 3.393521308898926 12.059269905090332 C3.393521308898926 10.220537185668945 3.3907651901245117 10.121295928955078 3.343900680541992 10.079944610595703 C3.302549362182617 10.044107437133789 3.23638916015625 10.0330810546875 3.029635429382324 10.0330810546875 C2.6243972778320312 10.0330810546875 2.64920711517334 9.972433090209961 2.640936851501465 10.901447296142578 L2.6354236602783203 11.673328399658203 L1.7808408737182617 11.681598663330078 C1.3121986389160156 11.684355735778809 0.8849067687988281 11.681598663330078 0.8380422592163086 11.673328399658203 L0.7470712661743164 11.65678882598877 L0.7470712661743164 10.887663841247559 C0.7470712661743164 10.226051330566406 0.7415571212768555 10.113025665283203 0.7029628753662109 10.077188491821289 C0.6368017196655273 10.011026382446289 0.1405925750732422 10.01378345489502 0.06064796447753906 10.079944610595703 L0.06064796447753906 10.079944610595703 M8.570640563964844 10.063404083251953 C8.52377700805664 10.088214874267578 8.52101993560791 10.21226692199707 8.52101993560791 12.039972305297852 C8.52101993560791 13.520330429077148 8.529290199279785 14.0 8.55410099029541 14.024810791015625 C8.603721618652344 14.074431419372559 9.166092872619629 14.068918228149414 9.207443237304688 14.022053718566895 C9.226740837097168 13.997243881225586 9.240524291992188 13.732598304748535 9.243281364440918 13.241902351379395 L9.251550674438477 12.500344276428223 L9.585114479064941 12.492074012756348 L9.91592025756836 12.483804702758789 L10.271537780761719 13.195037841796875 C10.464508056640625 13.586492538452148 10.649208068847656 13.942109107971191 10.67953109741211 13.98345947265625 L10.73190975189209 14.060647964477539 L11.076499938964844 14.052377700805664 C11.371468544006348 14.044107437133789 11.429359436035156 14.035837173461914 11.454170227050781 13.997243881225586 C11.476223945617676 13.958648681640625 11.473466873168945 13.931081771850586 11.445899963378906 13.886974334716797 C11.423845291137695 13.851137161254883 11.363198280334473 13.74362564086914 11.313576698303223 13.644383430480957 C11.20606517791748 13.440385818481445 11.090283393859863 13.225361824035645 10.92763614654541 12.92763614654541 C10.781530380249023 12.660234451293945 10.67126178741455 12.45348072052002 10.67126178741455 12.445210456848145 C10.67126178741455 12.439697265625 10.753963470458984 12.387319564819336 10.858717918395996 12.326671600341797 C10.96071720123291 12.266023635864258 11.082013130187988 12.180564880371094 11.128877639770508 12.136457443237305 C11.230875015258789 12.042729377746582 11.415575981140137 11.783597946166992 11.415575981140137 11.733976364135742 C11.415575981140137 11.714679718017578 11.432116508483887 11.681598663330078 11.45141315460205 11.665058135986328 C11.473466873168945 11.64024829864502 11.48449420928955 11.521709442138672 11.48449420928955 11.279117584228516 C11.48449420928955 10.934528350830078 11.48173713684082 10.926258087158203 11.388009071350098 10.736043930053711 C11.211578369140625 10.385940551757812 10.911096572875977 10.154376029968262 10.525156021118164 10.071674346923828 C10.296347618103027 10.024810791015625 8.650586128234863 10.01654052734375 8.570640563964844 10.063404083251953 L8.570640563964844 10.063404083251953 M10.304617881774902 10.725017547607422 C10.461750984191895 10.752584457397461 10.497589111328125 10.771881103515625 10.616127014160156 10.890419960021973 C10.723639488220215 10.997932434082031 10.753963470458984 11.050310134887695 10.770503997802734 11.152308464050293 C10.811854362487793 11.439007759094238 10.71536922454834 11.659544944763184 10.483804702758789 11.802894592285156 C10.387319564819336 11.863542556762695 10.359752655029297 11.86629867553711 9.830462455749512 11.86629867553711 L9.279118537902832 11.86629867553711 L9.265335083007812 11.33425235748291 C9.257064819335938 11.04203987121582 9.259820938110352 10.777395248413086 9.270848274230957 10.747071266174316 C9.290144920349121 10.697449684143066 9.32046890258789 10.694693565368652 9.709166526794434 10.694693565368652 C9.940731048583984 10.694693565368652 10.20813274383545 10.708477020263672 10.304617881774902 10.725017547607422 L10.304617881774902 10.725017547607422 M12.399724960327148 10.082701683044434 C12.35561752319336 10.129566192626953 12.352860450744629 10.30599594116211 12.352860450744629 12.053755760192871 C12.352860450744629 13.776705741882324 12.35837459564209 13.975189208984375 12.396967887878418 14.01654052734375 C12.432805061340332 14.052377700805664 12.496210098266602 14.057891845703125 12.749828338623047 14.052377700805664 L13.055824279785156 14.044107437133789 L13.069607734680176 13.272226333618164 L13.083391189575195 12.500344276428223 L13.41695499420166 12.492074012756348 L13.750517845153809 12.483804702758789 L14.130945205688477 13.23638916015625 C14.337698936462402 13.649896621704102 14.527913093566895 14.005514144897461 14.552722930908203 14.022053718566895 C14.596831321716309 14.060647964477539 15.172985076904297 14.074431419372559 15.258443832397461 14.041351318359375 C15.324604034423828 14.01654052734375 15.310820579528809 13.933838844299316 15.2198486328125 13.765678405761719 C15.095796585083008 13.54238510131836 14.99104118347168 13.346657752990723 14.883528709411621 13.148174285888672 C14.828394889831543 13.048932075500488 14.74569320678711 12.894556045532227 14.696072578430176 12.803584098815918 C14.538938522338867 12.519641876220703 14.530669212341309 12.500344276428223 14.530669212341309 12.458993911743164 C14.530669212341309 12.434183120727539 14.577533721923828 12.39283275604248 14.63542366027832 12.362508773803711 C14.971744537353516 12.186079025268555 15.225362777709961 11.893866539001465 15.308064460754395 11.5933837890625 C15.399036407470703 11.248793601989746 15.343901634216309 10.901447296142578 15.153687477111816 10.5982084274292 C15.068229675292969 10.465885162353516 14.847692489624023 10.267401695251465 14.693316459655762 10.190213203430176 C14.42591381072998 10.049620628356934 14.27429485321045 10.0330810546875 13.32046890258789 10.0330810546875 C12.507237434387207 10.0330810546875 12.441076278686523 10.035837173461914 12.399724960327148 10.082701683044434 L12.399724960327148 10.082701683044434 M14.13370132446289 10.725017547607422 C14.263267517089844 10.747071266174316 14.332184791564941 10.777395248413086 14.417644500732422 10.851826667785645 C14.541696548461914 10.956581115722656 14.640937805175781 11.149552345275879 14.640937805175781 11.28738784790039 C14.640937805175781 11.516195297241211 14.428669929504395 11.794624328613281 14.213645935058594 11.849759101867676 C14.045487403869629 11.891109466552734 13.146795272827148 11.891109466552734 13.102688789367676 11.847002029418945 C13.066850662231445 11.811164855957031 13.055824279785156 10.815988540649414 13.09166145324707 10.760854721069336 C13.102688789367676 10.744314193725586 13.130255699157715 10.722260475158691 13.15230941772461 10.713990211486816 C13.226740837097168 10.686423301696777 13.957271575927734 10.694693565368652 14.13370132446289 10.725017547607422 L14.13370132446289 10.725017547607422 M15.80427360534668 10.079944610595703 C15.79049015045166 10.107511520385742 15.784976959228516 10.148862838745117 15.793246269226074 10.170916557312012 C15.807029724121094 10.206753730773926 16.137836456298828 10.702963829040527 16.501724243164062 11.232254028320312 C16.57339859008789 11.33700942993164 16.741558074951172 11.57960033416748 16.871124267578125 11.769813537597656 L17.10820198059082 12.11440372467041 L17.121986389160156 13.079256057739258 L17.13576889038086 14.044107437133789 L17.44176483154297 14.052377700805664 C17.695383071899414 14.057891845703125 17.758787155151367 14.052377700805664 17.794626235961914 14.01654052734375 C17.833219528198242 13.977946281433105 17.838733673095703 13.859407424926758 17.838733673095703 13.046175003051758 C17.838733673095703 12.141971588134766 17.838733673095703 12.119916915893555 17.89937973022461 12.020675659179688 C17.93246078491211 11.965540885925293 17.96554183959961 11.91592025756836 17.973812103271484 11.907649993896484 C17.99310874938965 11.891109466552734 18.13370132446289 11.689868927001953 18.37904930114746 11.328739166259766 C18.47829246520996 11.185389518737793 18.632667541503906 10.962095260620117 18.7236385345459 10.832529067993164 C19.007583618164062 10.432805061340332 19.189525604248047 10.154376029968262 19.189525604248047 10.121295928955078 C19.189525604248047 10.057890892028809 19.076499938964844 10.0330810546875 18.784286499023438 10.0330810546875 C18.439697265625 10.0330810546875 18.453479766845703 10.024810791015625 18.252241134643555 10.319779396057129 C18.18332290649414 10.419021606445312 18.07305335998535 10.578910827636719 18.004135131835938 10.675395965576172 C17.935218811035156 10.774638175964355 17.86078643798828 10.879393577575684 17.838733673095703 10.915230751037598 C17.816679000854492 10.948311805725098 17.739490509033203 11.05582332611084 17.667816162109375 11.155065536499023 C17.5933837890625 11.254307746887207 17.535493850708008 11.34803581237793 17.535493850708008 11.359062194824219 C17.535493850708008 11.372846603393555 17.516197204589844 11.383872985839844 17.494142532348633 11.383872985839844 C17.455547332763672 11.383872985839844 17.298416137695312 11.188146591186523 17.066850662231445 10.846312522888184 C16.99793243408203 10.744314193725586 16.887664794921875 10.58442497253418 16.81874656677246 10.487939834594727 C16.749828338623047 10.391453742980957 16.675395965576172 10.286699295043945 16.653343200683594 10.250861167907715 C16.501724243164062 10.027566909790039 16.515506744384766 10.0330810546875 16.154376983642578 10.0330810546875 C15.870433807373047 10.0330810546875 15.826327323913574 10.038594245910645 15.80427360534668 10.079944610595703 L15.80427360534668 10.079944610595703 M20.030324935913086 10.077188491821289 C19.740869522094727 10.181943893432617 19.600276947021484 10.529290199279785 19.738113403320312 10.79944896697998 C19.829084396362305 10.978635787963867 20.000001907348633 11.080634117126465 20.209510803222656 11.080634117126465 C20.347347259521484 11.080634117126465 20.363887786865234 11.116471290588379 20.297725677490234 11.276361465454102 C20.23432159423828 11.422467231750488 20.170917510986328 11.480358123779297 20.044109344482422 11.513439178466797 C19.961406707763672 11.535492897033691 19.94762420654297 11.549276351928711 19.94762420654297 11.620950698852539 C19.94762420654297 11.692625999450684 19.95589256286621 11.700896263122559 20.04962158203125 11.709166526794434 C20.190214157104492 11.720192909240723 20.432804107666016 11.601654052734375 20.554101943969727 11.458304405212402 C20.79393768310547 11.179876327514648 20.87939453125 10.7801513671875 20.76912498474121 10.460371971130371 C20.708477020263672 10.281185150146484 20.534805297851562 10.113025665283203 20.36664581298828 10.066161155700684 C20.206756591796875 10.024810791015625 20.170917510986328 10.027566909790039 20.030324935913086 10.077188491821289 L20.030324935913086 10.077188491821289" fill="black" fill-opacity="1.0" filling="0"/></svg>