<?xml version="1.0" encoding="iso-8859-1"?><svg height="200px" viewBox="0.0 0.0 24.0 24.0" width="200px" xmlns="http://www.w3.org/2000/svg"><path animation_id="0" d="M0.0 0.0 L24.0 0.0 L24.0 24.0 L0.0 24.0 L0.0 0.0" fill="black" fill-opacity="1.0" filling="0"/>
<path animation_id="1" d="M1.4245166778564453 12.646952629089355 C1.1203384399414062 12.646952629089355 0.9023227691650391 12.519952774047852 0.7615013122558594 12.519952774047852 C0.6843061447143555 12.519952774047852 0.6208057403564453 12.556185722351074 0.5480918884277344 12.633255958557129 L0.5480918884277344 11.679760932922363 L0.6252880096435547 11.679760932922363 C0.7342348098754883 12.179169654846191 1.0294466018676758 12.44723892211914 1.4380884170532227 12.44723892211914 C1.7604436874389648 12.44723892211914 1.9829425811767578 12.233704566955566 1.9829425811767578 11.956794738769531 C1.9829425811767578 11.666314125061035 1.7921934127807617 11.552637100219727 1.4652299880981445 11.384673118591309 C1.138392448425293 11.212102890014648 0.9294662475585938 11.103157043457031 0.852269172668457 11.039656639099121 C0.64794921875 10.880782127380371 0.5525751113891602 10.708086967468262 0.5525751113891602 10.48110580444336 C0.5525751113891602 10.081554412841797 0.8704471588134766 9.790948867797852 1.3698558807373047 9.790948867797852 C1.6376771926879883 9.790948867797852 1.8193359375 9.8908052444458 1.9419784545898438 9.8908052444458 C1.9919071197509766 9.8908052444458 2.050924301147461 9.872627258300781 2.1326026916503906 9.840877532958984 L2.1326026916503906 10.512855529785156 L2.0644960403442383 10.512855529785156 C1.9509429931640625 10.135964393615723 1.6922111511230469 9.936251640319824 1.3470706939697266 9.936251640319824 C1.0655546188354492 9.936251640319824 0.8838949203491211 10.108821868896484 0.8838949203491211 10.335803031921387 C0.8838949203491211 10.649069786071777 1.1880722045898438 10.762622833251953 1.6649446487426758 11.016871452331543 C2.0735855102539062 11.234764099121094 2.3005666732788086 11.411940574645996 2.3005666732788086 11.820581436157227 C2.30094051361084 12.288240432739258 1.9422273635864258 12.646952629089355 1.4245166778564453 12.646952629089355 L1.4245166778564453 12.646952629089355 M3.2953996658325195 12.646952629089355 C2.9957046508789062 12.646952629089355 2.973043441772461 12.44723892211914 2.973043441772461 12.065741539001465 L2.973043441772461 10.935192108154297 L2.7323665618896484 10.935192108154297 L2.7323665618896484 10.844425201416016 C2.9776506423950195 10.758139610290527 3.154703140258789 10.531158447265625 3.222810745239258 10.204195976257324 L3.2953996658325195 10.204195976257324 L3.2953996658325195 10.794496536254883 L3.744879722595215 10.794496536254883 L3.744879722595215 10.935192108154297 L3.2953996658325195 10.935192108154297 L3.2953996658325195 12.111187934875488 C3.2953996658325195 12.320114135742188 3.3453283309936523 12.419971466064453 3.4861488342285156 12.419971466064453 C3.5542545318603516 12.419971466064453 3.6314516067504883 12.379132270812988 3.7222185134887695 12.306418418884277 L3.7721471786499023 12.374526023864746 C3.6132726669311523 12.556309700012207 3.4542741775512695 12.646952629089355 3.2953996658325195 12.646952629089355 L3.2953996658325195 12.646952629089355 M5.434103488922119 12.60611343383789 L5.316068172454834 12.60611343383789 L5.316068172454834 12.315507888793945 C5.138890743255615 12.533649444580078 4.930088043212891 12.642595291137695 4.712071418762207 12.642595291137695 C4.344269275665283 12.642595291137695 4.171699047088623 12.45172119140625 4.171699047088623 12.065741539001465 L4.171699047088623 11.29838752746582 C4.171699047088623 11.089460372924805 4.162609577178955 11.035049438476562 3.9219322204589844 11.035049438476562 L3.9219322204589844 10.957854270935059 C4.080807209014893 10.917014122009277 4.253377437591553 10.844301223754883 4.444126605987549 10.744443893432617 L4.498661518096924 10.744443893432617 L4.498661518096924 11.925045013427734 C4.498661518096924 12.247401237487793 4.621304035186768 12.410758018493652 4.8664631843566895 12.410758018493652 C5.02085542678833 12.410758018493652 5.166158676147461 12.333685874938965 5.2888007164001465 12.192866325378418 L5.2888007164001465 11.29838752746582 C5.2888007164001465 11.089460372924805 5.2888007164001465 11.035049438476562 5.043640613555908 11.035049438476562 L5.043640613555908 10.957854270935059 C5.202515125274658 10.917014122009277 5.375085353851318 10.844301223754883 5.5658345222473145 10.744443893432617 L5.615763187408447 10.744443893432617 L5.615763187408447 12.174687385559082 C5.615763187408447 12.329079627990723 5.656602382659912 12.374526023864746 5.824565887451172 12.374526023864746 L5.870011806488037 12.374526023864746 L5.870011806488037 12.4515962600708 C5.720102310180664 12.492809295654297 5.574799060821533 12.547221183776855 5.434103488922119 12.60611343383789 L5.434103488922119 12.60611343383789 M7.413808345794678 12.052169799804688 C7.413808345794678 12.238436698913574 7.241362571716309 12.410882949829102 7.018863677978516 12.410882949829102 C6.710079193115234 12.410882949829102 6.437651634216309 12.075079917907715 6.437651634216309 11.616385459899902 C6.437651634216309 11.175870895385742 6.691900730133057 10.876298904418945 6.991720199584961 10.876298904418945 C7.23239803314209 10.876298904418945 7.413932800292969 11.089709281921387 7.413932800292969 11.257673263549805 L7.413932800292969 12.052169799804688 L7.413808345794678 12.052169799804688 L7.413808345794678 12.052169799804688 M7.999626636505127 12.469900131225586 L7.999626636505127 12.388221740722656 C7.981447696685791 12.388221740722656 7.9632697105407715 12.392827987670898 7.949697971343994 12.392827987670898 C7.772644996643066 12.392827987670898 7.7407708168029785 12.311149597167969 7.7407708168029785 12.097616195678711 L7.7407708168029785 9.690967559814453 L7.686235427856445 9.690967559814453 C7.513665199279785 9.777252197265625 7.345701694488525 9.849842071533203 7.168524265289307 9.899894714355469 L7.168524265289307 9.977089881896973 L7.186702728271484 9.977089881896973 C7.404594898223877 9.977089881896973 7.413683891296387 10.040590286254883 7.413683891296387 10.24491024017334 L7.413683891296387 10.976032257080078 C7.291165828704834 10.821640014648438 7.141256332397461 10.748926162719727 6.9460248947143555 10.748926162719727 C6.74170446395874 10.748926162719727 6.528419494628906 10.844301223754883 6.373903274536133 11.021353721618652 C6.205814838409424 11.20749568939209 6.124136447906494 11.43908405303955 6.124136447906494 11.716117858886719 C6.124136447906494 12.274543762207031 6.455581188201904 12.642470359802246 6.8914899826049805 12.642470359802246 C7.123077869415283 12.642470359802246 7.291041374206543 12.542489051818848 7.445433616638184 12.324597358703613 L7.445433616638184 12.615202903747559 L7.554379940032959 12.615202903747559 C7.695324897766113 12.551702499389648 7.840627670288086 12.506381034851074 7.999626636505127 12.469900131225586 L7.999626636505127 12.469900131225586 M8.608105659484863 10.29035758972168 C8.48098087310791 10.29035758972168 8.394695281982422 10.204071998596191 8.394695281982422 10.058769226074219 C8.394695281982422 9.922554969787598 8.494552612304688 9.822698593139648 8.626283645629883 9.822698593139648 C8.758014678955078 9.822698593139648 8.830604553222656 9.899894714355469 8.830604553222656 10.040590286254883 C8.830479621887207 10.195107460021973 8.739712715148926 10.29035758972168 8.608105659484863 10.29035758972168 M8.635248184204102 12.583453178405762 C8.530784606933594 12.583453178405762 8.385482788085938 12.588059425354004 8.212911605834961 12.597023963928223 L8.212911605834961 12.52891731262207 C8.444499969482422 12.524310111999512 8.46716022491455 12.469775199890137 8.46716022491455 12.251883506774902 L8.46716022491455 11.20749568939209 C8.46716022491455 11.053104400634766 8.421714782714844 11.03492546081543 8.208305358886719 11.03044319152832 L8.208305358886719 10.957854270935059 C8.353608131408691 10.926103591918945 8.521696090698242 10.848908424377441 8.726016998291016 10.744443893432617 L8.794122695922852 10.744443893432617 L8.794122695922852 12.252008438110352 C8.794122695922852 12.483471870422363 8.803213119506836 12.519952774047852 9.048372268676758 12.52904224395752 L9.048372268676758 12.597148895263672 A8.362323760986328 8.362323760986328 0.0 0 0 8.635248184204102 12.583453178405762 L8.635248184204102 12.583453178405762 M10.742202758789062 11.766170501708984 C10.742202758789062 12.215775489807129 10.546971321105957 12.460935592651367 10.242670059204102 12.460935592651367 C9.888439178466797 12.460935592651367 9.566083908081055 12.079437255859375 9.566083908081055 11.561850547790527 C9.566083908081055 11.139513969421387 9.806760787963867 10.857996940612793 10.124634742736816 10.857996940612793 C10.460685729980469 10.857996940612793 10.742202758789062 11.22131633758545 10.742202758789062 11.766170501708984 L10.742202758789062 11.766170501708984 M11.041897773742676 11.684493064880371 C11.041897773742676 11.130548477172852 10.674095153808594 10.74456787109375 10.1836519241333 10.74456787109375 C9.647762298583984 10.74456787109375 9.261906623840332 11.148727416992188 9.261906623840332 11.73902702331543 C9.261906623840332 12.279399871826172 9.61613655090332 12.642719268798828 10.124634742736816 12.642719268798828 C10.674095153808594 12.642595291137695 11.041897773742676 12.256614685058594 11.041897773742676 11.684493064880371 L11.041897773742676 11.684493064880371 M12.767354011535645 12.60611343383789 L12.653800964355469 12.60611343383789 L12.653800964355469 12.315507888793945 C12.47214126586914 12.533649444580078 12.263463020324707 12.642595291137695 12.045445442199707 12.642595291137695 C11.6822509765625 12.642595291137695 11.505073547363281 12.45172119140625 11.505073547363281 12.065741539001465 L11.505073547363281 11.29838752746582 C11.505073547363281 11.089460372924805 11.500591278076172 11.035049438476562 11.255308151245117 11.035049438476562 L11.255308151245117 10.957854270935059 C11.41418170928955 10.917014122009277 11.58687686920166 10.844301223754883 11.781983375549316 10.744443893432617 L11.83191204071045 10.744443893432617 L11.83191204071045 11.925045013427734 C11.83191204071045 12.247401237487793 11.959036827087402 12.410758018493652 12.204319953918457 12.410758018493652 C12.358713150024414 12.410758018493652 12.503891944885254 12.333685874938965 12.626533508300781 12.192866325378418 L12.626533508300781 11.29838752746582 C12.626533508300781 11.089460372924805 12.622175216674805 11.035049438476562 12.381373405456543 11.035049438476562 L12.381373405456543 10.957854270935059 C12.535765647888184 10.917014122009277 12.712818145751953 10.844301223754883 12.89908504486084 10.744443893432617 L12.953620910644531 10.744443893432617 L12.953620910644531 12.174687385559082 C12.953620910644531 12.329079627990723 12.989852905273438 12.374526023864746 13.16254711151123 12.374526023864746 L13.203386306762695 12.374526023864746 L13.203386306762695 12.4515962600708 C13.05795955657959 12.492809295654297 12.91278076171875 12.547221183776855 12.767354011535645 12.60611343383789 L12.767354011535645 12.60611343383789 M14.924360275268555 12.583453178405762 C14.824378967285156 12.583453178405762 14.678951263427734 12.588059425354004 14.501898765563965 12.597023963928223 L14.501898765563965 12.52891731262207 C14.733362197875977 12.524310111999512 14.756272315979004 12.469775199890137 14.756272315979004 12.251883506774902 L14.756272315979004 11.357281684875488 C14.756272315979004 11.093942642211914 14.669986724853516 10.975907325744629 14.452095031738281 10.975907325744629 C14.29770278930664 10.975907325744629 14.12961483001709 11.052979469299316 13.961651802062988 11.202888488769531 L13.961651802062988 12.25175952911377 C13.961651802062988 12.483222961425781 13.970616340637207 12.51970386505127 14.211418151855469 12.528793334960938 L14.211418151855469 12.59689998626709 A8.519454956054688 8.519454956054688 0.0 0 0 13.798294067382812 12.583329200744629 C13.693706512451172 12.583329200744629 13.552885055541992 12.587935447692871 13.38056468963623 12.59689998626709 L13.38056468963623 12.528793334960938 C13.612027168273926 12.524186134338379 13.63493824005127 12.469651222229004 13.63493824005127 12.25175952911377 L13.63493824005127 10.154143333435059 C13.63493824005127 9.999752044677734 13.58949089050293 9.977089881896973 13.375957489013672 9.977089881896973 L13.375957489013672 9.899894714355469 C13.58949089050293 9.831787109375 13.757454872131348 9.768163681030273 13.889062881469727 9.690967559814453 L13.961775779724121 9.690967559814453 L13.961775779724121 11.075888633728027 C14.179668426513672 10.857996940612793 14.370292663574219 10.744443893432617 14.592791557312012 10.744443893432617 C14.928842544555664 10.744443893432617 15.083234786987305 10.957854270935059 15.083234786987305 11.389280319213867 L15.083234786987305 12.252008438110352 C15.083234786987305 12.479113578796387 15.096806526184082 12.519952774047852 15.337608337402344 12.52904224395752 L15.337608337402344 12.597148895263672 A8.38075065612793 8.38075065612793 0.0 0 0 14.924360275268555 12.583453178405762 L14.924360275268555 12.583453178405762" fill="black" fill-opacity="1.0" filling="0"/>
<path animation_id="2" d="M15.932391166687012 12.637988090515137 C15.809873580932617 12.637988090515137 15.727822303771973 12.547221183776855 15.727822303771973 12.406524658203125 C15.727822303771973 12.27031135559082 15.832409858703613 12.165722846984863 15.954927444458008 12.165722846984863 C16.082050323486328 12.165722846984863 16.163856506347656 12.247401237487793 16.163856506347656 12.388221740722656 C16.163856506347656 12.547221183776855 16.073211669921875 12.637988090515137 15.932391166687012 12.637988090515137 L15.932391166687012 12.637988090515137" fill="black" fill-opacity="1.0" filling="0"/>
<path animation_id="3" d="M17.39899253845215 12.642595291137695 C16.93568992614746 12.642595291137695 16.613460540771484 12.27466869354248 16.613460540771484 11.716242790222168 C16.613460540771484 11.12594223022461 16.96295928955078 10.74456787109375 17.49424171447754 10.74456787109375 C17.825687408447266 10.74456787109375 18.02564811706543 10.908049583435059 18.02564811706543 11.153209686279297 C18.02564811706543 11.239494323730469 17.975597381591797 11.289422988891602 17.88022232055664 11.289422988891602 C17.76666831970215 11.289422988891602 17.721471786499023 11.262155532836914 17.70752716064453 11.162299156188965 C17.68025779724121 10.976156234741211 17.648632049560547 10.853513717651367 17.435100555419922 10.853513717651367 C17.144493103027344 10.853513717651367 16.899333953857422 11.130548477172852 16.899333953857422 11.561850547790527 C16.899333953857422 12.043205261230469 17.167278289794922 12.342775344848633 17.521385192871094 12.342775344848633 C17.739276885986328 12.342775344848633 17.9435977935791 12.206562042236328 18.075328826904297 11.947830200195312 L18.148040771484375 11.975098609924316 C18.039344787597656 12.397186279296875 17.74873924255371 12.642595291137695 17.39899253845215 12.642595291137695 L17.39899253845215 12.642595291137695 M19.89653205871582 11.766170501708984 C19.89653205871582 12.215775489807129 19.705659866333008 12.460935592651367 19.392393112182617 12.460935592651367 C19.03803825378418 12.460935592651367 18.715805053710938 12.079437255859375 18.715805053710938 11.561850547790527 C18.715805053710938 11.139513969421387 18.95635986328125 10.857996940612793 19.27410888671875 10.857996940612793 C19.614891052246094 10.857996940612793 19.89653205871582 11.22131633758545 19.89653205871582 11.766170501708984 L19.89653205871582 11.766170501708984 M20.196102142333984 11.684493064880371 C20.196102142333984 11.130548477172852 19.83278465270996 10.74456787109375 19.333250045776367 10.74456787109375 C18.7974853515625 10.74456787109375 18.41162872314453 11.148727416992188 18.41162872314453 11.73902702331543 C18.41162872314453 12.279399871826172 18.765735626220703 12.642719268798828 19.274232864379883 12.642719268798828 C19.828176498413086 12.642595291137695 20.196102142333984 12.256614685058594 20.196102142333984 11.684493064880371 L20.196102142333984 11.684493064880371 M23.03866195678711 12.583453178405762 C22.938678741455078 12.583453178405762 22.80259132385254 12.588059425354004 22.625537872314453 12.597023963928223 L22.625537872314453 12.52891731262207 C22.85700225830078 12.524310111999512 22.879661560058594 12.469775199890137 22.879661560058594 12.251883506774902 L22.879661560058594 11.357281684875488 C22.879661560058594 11.093942642211914 22.788894653320312 10.975907325744629 22.570877075195312 10.975907325744629 C22.412128448486328 10.975907325744629 22.271305084228516 11.057585716247559 22.094253540039062 11.198407173156738 L22.094253540039062 12.251883506774902 C22.094253540039062 12.478988647460938 22.10321807861328 12.519828796386719 22.3486270904541 12.52891731262207 L22.3486270904541 12.597023963928223 A8.869949340820312 8.869949340820312 0.0 0 0 21.930896759033203 12.583453178405762 C21.826309204101562 12.583453178405762 21.694828033447266 12.588059425354004 21.51777458190918 12.597023963928223 L21.51777458190918 12.52891731262207 C21.749237060546875 12.524310111999512 21.771896362304688 12.469775199890137 21.771896362304688 12.251883506774902 L21.771896362304688 11.357281684875488 C21.771896362304688 11.098424911499023 21.685611724853516 10.975907325744629 21.472328186035156 10.975907325744629 C21.33611297607422 10.975907325744629 21.19977569580078 11.052979469299316 21.022722244262695 11.189192771911621 L21.022722244262695 12.25175952911377 C21.022722244262695 12.483222961425781 21.027328491210938 12.51970386505127 21.272491455078125 12.528793334960938 L21.272491455078125 12.59689998626709 A8.495174407958984 8.495174407958984 0.0 0 0 20.854759216308594 12.583329200744629 C20.75041961669922 12.583329200744629 20.614208221435547 12.587935447692871 20.44163703918457 12.59689998626709 L20.44163703918457 12.528793334960938 C20.668743133544922 12.524186134338379 20.69601058959961 12.469651222229004 20.69601058959961 12.25175952911377 L20.69601058959961 11.234639167785645 C20.69601058959961 11.075764656066895 20.668743133544922 11.021228790283203 20.50538444519043 11.021228790283203 C20.48247528076172 11.021228790283203 20.45993995666504 11.025835990905762 20.43267059326172 11.025835990905762 L20.43267059326172 10.9440336227417 C20.58706283569336 10.89858627319336 20.741456985473633 10.825997352600098 20.904937744140625 10.744318962097168 L20.98200798034668 10.744318962097168 L20.98200798034668 11.125693321228027 C21.231773376464844 10.88962173461914 21.404470443725586 10.753283500671387 21.622364044189453 10.753283500671387 C21.826683044433594 10.753283500671387 21.990039825439453 10.880409240722656 22.0810546875 11.1119966506958 C22.307912826538086 10.871319770812988 22.507877349853516 10.744194984436035 22.707714080810547 10.744194984436035 C23.04812240600586 10.744194984436035 23.202640533447266 10.95760440826416 23.202640533447266 11.389031410217285 L23.202640533447266 12.25175952911377 C23.202640533447266 12.478864669799805 23.211605072021484 12.51970386505127 23.457014083862305 12.528793334960938 L23.457014083862305 12.59689998626709 A9.219696998596191 9.219696998596191 0.0 0 0 23.03866195678711 12.583453178405762 L23.03866195678711 12.583453178405762" fill="black" fill-opacity="1.0" filling="0"/>
<path animation_id="4" d="M1.5789079666137695 13.882089614868164 C1.5789079666137695 14.041089057922363 1.5017118453979492 14.104588508605957 1.3292665481567383 14.104588508605957 L1.2929096221923828 14.104588508605957 L1.2929096221923828 13.655232429504395 L1.3292665481567383 13.655232429504395 C1.4972295761108398 13.655232429504395 1.5789079666137695 13.718732833862305 1.5789079666137695 13.882089614868164 L1.5789079666137695 13.882089614868164 M1.8060131072998047 13.882089614868164 C1.8060131072998047 13.73691177368164 1.751479148864746 13.623357772827148 1.6470146179199219 13.550644874572754 C1.5426759719848633 13.477931022644043 1.4200334548950195 13.473572731018066 1.270249366760254 13.473572731018066 L1.0748929977416992 13.473572731018066 L1.0748929977416992 14.286248207092285 L1.3018741607666016 14.286248207092285 C1.4336051940917969 14.286248207092285 1.5471582412719727 14.281641960144043 1.6468896865844727 14.209177017211914 C1.751479148864746 14.136463165283203 1.8060131072998047 14.022910118103027 1.8060131072998047 13.882089614868164 L1.8060131072998047 13.882089614868164 M2.8957223892211914 13.754964828491211 C2.8957223892211914 13.827678680419922 2.854884147644043 13.859553337097168 2.759510040283203 13.859553337097168 L2.718545913696289 13.859553337097168 L2.718545913696289 13.646018981933594 L2.7641172409057617 13.646018981933594 C2.854884147644043 13.646018981933594 2.8957223892211914 13.673162460327148 2.8957223892211914 13.754964828491211 L2.8957223892211914 13.754964828491211 M3.1545791625976562 14.286248207092285 L2.9320802688598633 13.959409713745117 C3.0501155853271484 13.932143211364746 3.113615036010742 13.854822158813477 3.113615036010742 13.727697372436523 C3.113615036010742 13.641661643981934 3.0818653106689453 13.573554039001465 3.0228471755981445 13.527983665466309 C2.9547414779663086 13.473447799682617 2.8684558868408203 13.473447799682617 2.7549028396606445 13.473447799682617 L2.5097427368164062 13.473447799682617 L2.5097427368164062 14.286123275756836 L2.718545913696289 14.286123275756836 L2.718545913696289 13.968250274658203 L2.904812812805176 14.286123275756836 L3.1545791625976562 14.286123275756836 L3.1545791625976562 14.286248207092285 L3.1545791625976562 14.286248207092285 M4.162609577178955 14.308908462524414 C4.026396751403809 14.308908462524414 3.9310216903686523 14.277283668518066 3.872004508972168 14.209177017211914 C3.808504104614258 14.136463165283203 3.8038978576660156 14.041089057922363 3.8038978576660156 13.91396427154541 L3.8038978576660156 13.473572731018066 L4.02178955078125 13.473572731018066 L4.02178955078125 13.91396427154541 C4.02178955078125 14.059142112731934 4.0490570068359375 14.122891426086426 4.162485122680664 14.122891426086426 C4.298699378967285 14.122891426086426 4.3033061027526855 14.036605834960938 4.3033061027526855 13.86415958404541 L4.3033061027526855 13.473697662353516 L4.52580451965332 13.473697662353516 L4.52580451965332 13.954928398132324 C4.525928974151611 14.199962615966797 4.421465873718262 14.308908462524414 4.162609577178955 14.308908462524414 M5.742887496948242 14.286248207092285 L5.479424953460693 13.922928810119629 L5.479424953460693 14.286248207092285 L5.261532783508301 14.286248207092285 L5.261532783508301 13.473572731018066 L5.479424953460693 13.473572731018066 L5.479424953460693 13.8412504196167 L5.733673572540283 13.473572731018066 L5.99252986907959 13.473572731018066 L5.692834377288818 13.868517875671387 L6.019797325134277 14.286248207092285 L5.742887496948242 14.286248207092285 L5.742887496948242 14.286248207092285 M7.06418514251709 13.982070922851562 L6.841686248779297 13.982070922851562 L6.923364162445068 13.714125633239746 C6.927970886230469 13.700554847717285 6.937060356140137 13.664321899414062 6.955114364624023 13.605179786682129 C6.968686103820801 13.664321899414062 6.977899551391602 13.700554847717285 6.982381820678711 13.714125633239746 L7.06418514251709 13.982070922851562 L7.06418514251709 13.982070922851562 M7.372969150543213 14.286248207092285 L7.091452598571777 13.473572731018066 L6.814418315887451 13.473572731018066 L6.532902240753174 14.286248207092285 L6.755400657653809 14.286248207092285 L6.796239852905273 14.141069412231445 L7.109631061553955 14.141069412231445 L7.15047025680542 14.286248207092285 L7.372969150543213 14.286248207092285 L7.372969150543213 14.286248207092285 M8.403785705566406 13.754964828491211 C8.403785705566406 13.827678680419922 8.358339309692383 13.859553337097168 8.262964248657227 13.859553337097168 L8.222126007080078 13.859553337097168 L8.222126007080078 13.646018981933594 L8.267447471618652 13.646018981933594 C8.358339309692383 13.646018981933594 8.403785705566406 13.673162460327148 8.403785705566406 13.754964828491211 M8.658034324645996 14.286248207092285 L8.440142631530762 13.959409713745117 C8.55830192565918 13.932143211364746 8.62180233001709 13.854822158813477 8.62180233001709 13.727697372436523 C8.62180233001709 13.641661643981934 8.590051651000977 13.573554039001465 8.531034469604492 13.527983665466309 C8.458444595336914 13.473447799682617 8.372159957885742 13.473447799682617 8.263089179992676 13.473447799682617 L8.018054962158203 13.473447799682617 L8.018054962158203 14.286123275756836 L8.22237491607666 14.286123275756836 L8.22237491607666 13.968250274658203 L8.408515930175781 14.286123275756836 L8.658034324645996 14.286123275756836 L8.658034324645996 14.286248207092285 L8.658034324645996 14.286248207092285 M9.893171310424805 14.286248207092285 L9.584386825561523 13.868517875671387 C9.579780578613281 13.85494613647461 9.552637100219727 13.809625625610352 9.511796951293945 13.723340034484863 C9.52088737487793 13.786839485168457 9.525368690490723 13.8412504196167 9.525368690490723 13.886695861816406 L9.525368690490723 14.286248207092285 L9.311959266662598 14.286248207092285 L9.311959266662598 13.473572731018066 L9.525368690490723 13.473572731018066 L9.829545974731445 13.891303062438965 C9.838635444641113 13.900267601013184 9.8659029006958 13.950196266174316 9.906742095947266 14.036481857299805 A1.1769906282424927 1.1769906282424927 0.0 0 1 9.893171310424805 13.873124122619629 L9.893171310424805 13.473572731018066 L10.10658073425293 13.473572731018066 L10.10658073425293 14.286248207092285 L9.893171310424805 14.286248207092285 M10.84666633605957 14.286248207092285 L10.84666633605957 13.473572731018066 L11.069165229797363 13.473572731018066 L11.069165229797363 14.286248207092285 L10.84666633605957 14.286248207092285 M12.24989128112793 13.982070922851562 L12.031874656677246 13.982070922851562 L12.113553047180176 13.714125633239746 C12.118160247802734 13.700554847717285 12.127373695373535 13.664321899414062 12.14082145690918 13.605179786682129 C12.15439224243164 13.664321899414062 12.16373062133789 13.700554847717285 12.16808795928955 13.714125633239746 L12.24989128112793 13.982070922851562 L12.24989128112793 13.982070922851562 M12.558425903320312 14.286248207092285 L12.277033805847168 13.473572731018066 L11.999876022338867 13.473572731018066 L11.722841262817383 14.286248207092285 L11.940733909606934 14.286248207092285 L11.981573104858398 14.141069412231445 L12.299446105957031 14.141069412231445 L12.340285301208496 14.286248207092285 L12.558425903320312 14.286248207092285 M14.506630897521973 14.304551124572754 C14.265828132629395 14.304551124572754 14.093257904052734 14.127497673034668 14.093257904052734 13.882089614868164 C14.093257904052734 13.636930465698242 14.265953063964844 13.455270767211914 14.506630897521973 13.455270767211914 C14.579095840454102 13.455270767211914 14.642843246459961 13.473447799682617 14.715558052062988 13.505074501037598 L14.715558052062988 13.74587631225586 C14.656414985656738 13.68237590789795 14.597397804260254 13.650501251220703 14.529291152954102 13.650501251220703 C14.397684097290039 13.650501251220703 14.315756797790527 13.74587631225586 14.315756797790527 13.886571884155273 C14.315756797790527 14.009089469909668 14.397684097290039 14.109070777893066 14.529291152954102 14.109070777893066 C14.597397804260254 14.109070777893066 14.656414985656738 14.07719612121582 14.715558052062988 14.013696670532227 L14.715558052062988 14.254249572753906 A0.43951940536499023 0.43951940536499023 0.0 0 1 14.506630897521973 14.304551124572754 M15.764303207397461 13.91396427154541 L15.764303207397461 14.286248207092285 L15.550769805908203 14.286248207092285 L15.550769805908203 13.91396427154541 L15.2647705078125 13.473572731018066 L15.5235013961792 13.473572731018066 L15.628089904785156 13.682499885559082 C15.637054443359375 13.69607162475586 15.650750160217285 13.714125633239746 15.65971565246582 13.75060749053955 C15.664321899414062 13.714125633239746 15.67789363861084 13.69607162475586 15.686982154846191 13.682499885559082 L15.79617691040039 13.473572731018066 L16.045944213867188 13.473572731018066 L15.764303207397461 13.91396427154541 L15.764303207397461 13.91396427154541 M16.86771011352539 13.650626182556152 L16.86771011352539 13.791446685791016 L17.131046295166016 13.791446685791016 L17.131046295166016 13.968500137329102 L16.86771011352539 13.968500137329102 L16.86771011352539 14.286248207092285 L16.654422760009766 14.286248207092285 L16.654422760009766 13.473572731018066 L17.14922332763672 13.473572731018066 L17.14922332763672 13.650626182556152 L16.86771011352539 13.650626182556152 M18.22536277770996 13.754964828491211 C18.22536277770996 13.827678680419922 18.180166244506836 13.859553337097168 18.084543228149414 13.859553337097168 L18.043703079223633 13.859553337097168 L18.043703079223633 13.646018981933594 L18.089149475097656 13.646018981933594 C18.180166244506836 13.646018981933594 18.22536277770996 13.673162460327148 18.22536277770996 13.754964828491211 M18.479736328125 14.286248207092285 L18.261844635009766 13.959409713745117 C18.37514877319336 13.932143211364746 18.443254470825195 13.854822158813477 18.443254470825195 13.727697372436523 C18.443254470825195 13.641661643981934 18.41162872314453 13.573554039001465 18.34787940979004 13.527983665466309 C18.279773712158203 13.473447799682617 18.19348907470703 13.473447799682617 18.080184936523438 13.473447799682617 L17.839508056640625 13.473447799682617 L17.839508056640625 14.286123275756836 L18.0438289642334 14.286123275756836 L18.0438289642334 13.968250274658203 L18.230093002319336 14.286123275756836 L18.479736328125 14.286123275756836 L18.479736328125 14.286248207092285 M19.900890350341797 13.582518577575684 C19.819211959838867 13.500840187072754 19.71026611328125 13.455394744873047 19.59671401977539 13.455394744873047 C19.48316192626953 13.455394744873047 19.369855880737305 13.500840187072754 19.28792953491211 13.582518577575684 C19.20625114440918 13.659590721130371 19.160930633544922 13.764178276062012 19.160930633544922 13.882089614868164 C19.160930633544922 14.013945579528809 19.215463638305664 14.127497673034668 19.319679260253906 14.209177017211914 C19.39699935913086 14.272676467895508 19.49673080444336 14.308908462524414 19.59671401977539 14.308908462524414 C19.71026611328125 14.308908462524414 19.819211959838867 14.263711929321289 19.900890350341797 14.181909561157227 C19.98257064819336 14.104588508605957 20.02801513671875 13.995641708374023 20.02801513671875 13.882089614868164 C20.02801513671875 13.768536567687988 19.98717498779297 13.659590721130371 19.900890350341797 13.582518577575684 M19.59671401977539 14.118284225463867 C19.465106964111328 14.118284225463867 19.383426666259766 14.013945579528809 19.383426666259766 13.882214546203613 C19.383426666259766 13.75060749053955 19.469465255737305 13.641661643981934 19.59671401977539 13.641661643981934 C19.71923065185547 13.641661643981934 19.805641174316406 13.75060749053955 19.805641174316406 13.882214546203613 C19.80551528930664 14.013945579528809 19.71923065185547 14.118284225463867 19.59671401977539 14.118284225463867 M21.467472076416016 14.286248207092285 L21.263151168823242 14.286248207092285 L21.163169860839844 13.941231727600098 C21.154205322265625 13.918571472167969 21.14499282836914 13.882089614868164 21.135902404785156 13.83228588104248 C21.122329711914062 13.873124122619629 21.11772346496582 13.909357070922852 21.10863494873047 13.941231727600098 L21.00865364074707 14.286248207092285 L20.804332733154297 14.286248207092285 L20.5728702545166 13.473572731018066 L20.795368194580078 13.473572731018066 L20.890743255615234 13.86415958404541 C20.899707794189453 13.904999732971191 20.908798217773438 13.94583797454834 20.91340446472168 13.982070922851562 C20.922367095947266 13.941231727600098 20.931583404541016 13.900392532348633 20.94527816772461 13.86415958404541 L21.045257568359375 13.473572731018066 L21.222312927246094 13.473572731018066 L21.32665252685547 13.859553337097168 C21.344829559326172 13.932267189025879 21.349559783935547 13.973106384277344 21.353919982910156 13.97746467590332 C21.36313247680664 13.92765998840332 21.37209701538086 13.886695861816406 21.376829147338867 13.859553337097168 L21.47220230102539 13.473572731018066 L21.6947021484375 13.473572731018066 L21.467472076416016 14.286248207092285 M22.752410888671875 13.982070922851562 L22.53451919555664 13.982070922851562 L22.616199493408203 13.714125633239746 C22.616199493408203 13.700554847717285 22.629772186279297 13.664321899414062 22.64346694946289 13.605179786682129 C22.657039642333984 13.664321899414062 22.6663761138916 13.700554847717285 22.670734405517578 13.714125633239746 L22.752410888671875 13.982070922851562 M23.061321258544922 14.286248207092285 L22.779680252075195 13.473572731018066 L22.50264549255371 13.473572731018066 L22.221254348754883 14.286248207092285 L22.44375228881836 14.286248207092285 L22.48459243774414 14.141069412231445 L22.79785919189453 14.141069412231445 L22.838699340820312 14.286248207092285 L23.061321258544922 14.286248207092285 L23.061321258544922 14.286248207092285" fill="black" fill-opacity="1.0" filling="0"/>
<path animation_id="5" d="M0.3528604507446289 13.02857494354248 L23.647140502929688 13.02857494354248 L0.3528604507446289 13.02857494354248" fill="black" fill-opacity="1.0" filling="0"/>
<path animation_id="6" d="M0.3528604507446289 13.02857494354248 L23.647140502929688 13.02857494354248" fill="none" filling="0" stroke="black" stroke-opacity="1.0" stroke-width=".3"/></svg>