<?xml version="1.0" encoding="iso-8859-1"?><svg height="200px" viewBox="0.0 0.0 24.0 24.0" width="200px" xmlns="http://www.w3.org/2000/svg"><path animation_id="0" d="M0.0 0.0 L24.0 0.0 L24.0 24.0 L0.0 24.0 L0.0 0.0" fill="black" fill-opacity="1.0" filling="0"/>
<path animation_id="1" d="M1.0588302612304688 11.953184127807617 L2.4478607177734375 11.953184127807617 L2.4478607177734375 10.814667701721191 L3.5893659591674805 10.814667701721191 L3.5893659591674805 11.956296920776367 L2.457200050354004 11.956296920776367 L2.457200050354004 13.351428985595703 L1.4048433303833008 13.351428985595703 A0.3470086455345154 0.3470086455345154 0.0 0 1 1.058706283569336 13.005416870117188 L1.058706283569336 11.953184127807617 L1.0588302612304688 11.953184127807617 L1.0588302612304688 11.953184127807617 M1.9226799011230469 10.295960426330566 L2.4466171264648438 10.295960426330566 L2.4466171264648438 10.819896697998047 L1.9226799011230469 10.819896697998047 L1.9226799011230469 10.295960426330566 L1.9226799011230469 10.295960426330566 M3.590487480163574 9.962398529052734 L4.146797180175781 9.962398529052734 A0.30044203996658325 0.30044203996658325 0.0 0 1 4.446367263793945 10.261968612670898 L4.446367263793945 10.818403244018555 L3.590487480163574 10.818403244018555 L3.590487480163574 9.962398529052734 M3.7291908264160156 13.336114883422852 L4.345888137817383 11.274482727050781 L5.096681594848633 11.274482727050781 L5.165411472320557 11.942103385925293 C5.172134876251221 12.013198852539062 5.176990509033203 12.086285591125488 5.180352210998535 12.161738395690918 C5.183589935302734 12.236942291259766 5.185208320617676 12.314760208129883 5.185208320617676 12.395442962646484 L5.679760932922363 11.274482727050781 L6.431550979614258 11.274482727050781 L6.334433078765869 13.336114883422852 L5.64701509475708 13.336114883422852 L5.7374091148376465 12.234950065612793 C5.719604015350342 12.286248207092285 5.69943380355835 12.340285301208496 5.677395343780518 12.395442962646484 C5.6552324295043945 12.450601577758789 5.630704402923584 12.507502555847168 5.6034369468688965 12.565648078918457 L5.245720386505127 13.336114883422852 L4.822262287139893 13.336114883422852 L4.706468105316162 12.265579223632812 C4.70024299621582 12.319616317749023 4.690531253814697 12.373778343200684 4.6785783767700195 12.428936004638672 C4.6660027503967285 12.484841346740723 4.651684284210205 12.541991233825684 4.634750843048096 12.601133346557617 L4.4275665283203125 13.335989952087402 L3.7291908264160156 13.335989952087402 L3.7291908264160156 13.336114883422852 M6.495673179626465 13.336114883422852 L6.877295970916748 11.274482727050781 L7.63481330871582 11.274482727050781 L7.254560470581055 13.336114883422852 L6.495673179626465 13.336114883422852 L6.495673179626465 13.336114883422852 M9.16142749786377 12.576729774475098 L9.022100448608398 13.321796417236328 A1.1493494510650635 1.1493494510650635 0.0 0 1 8.832721710205078 13.374090194702148 A1.0598269701004028 1.0598269701004028 0.0 0 1 8.64483642578125 13.39114761352539 A1.052480936050415 1.052480936050415 0.0 0 1 8.283882141113281 13.330137252807617 A0.960966169834137 0.960966169834137 0.0 0 1 7.9785847663879395 13.151590347290039 A0.8819025158882141 0.8819025158882141 0.0 0 1 7.7469964027404785 12.831103324890137 A1.0142563581466675 1.0142563581466675 0.0 0 1 7.664820194244385 12.424951553344727 C7.664820194244385 12.271058082580566 7.688352108001709 12.127249717712402 7.735915184020996 11.993151664733887 A1.1373965740203857 1.1373965740203857 0.0 0 1 7.947830677032471 11.629334449768066 A1.1000436544418335 1.1000436544418335 0.0 0 1 8.35062026977539 11.329390525817871 C8.508249282836914 11.259665489196777 8.679450035095215 11.225051879882812 8.864471435546875 11.225051879882812 C8.961091041564941 11.225051879882812 9.052978515625 11.235136985778809 9.139886856079102 11.25493335723877 A1.12257981300354 1.12257981300354 0.0 0 1 9.389902114868164 11.343335151672363 L9.261533737182617 12.032248497009277 C9.190438270568848 11.991907119750977 9.121211051940918 11.961526870727539 9.053851127624512 11.94135570526123 C8.986491203308105 11.921185493469238 8.919754028320312 11.911100387573242 8.853389739990234 11.911100387573242 C8.722654342651367 11.911100387573242 8.615949630737305 11.95206356048584 8.532776832580566 12.03424072265625 C8.449604988098145 12.116416931152344 8.408267974853516 12.221502304077148 8.408267974853516 12.350370407104492 C8.408267974853516 12.4580717086792 8.44101333618164 12.544232368469238 8.506381034851074 12.608105659484863 C8.571250915527344 12.672103881835938 8.658781051635742 12.703729629516602 8.768848419189453 12.703729629516602 C8.828861236572266 12.703729629516602 8.89335823059082 12.69277286529541 8.96258544921875 12.670609474182129 A0.8790388107299805 0.8790388107299805 0.0 0 0 9.16142749786377 12.576729774475098 L9.16142749786377 12.576729774475098 M9.302994728088379 13.336114883422852 L9.683247566223145 11.274482727050781 L10.477246284484863 11.274482727050781 C10.774824142456055 11.274482727050781 11.000808715820312 11.326900482177734 11.154953002929688 11.432111740112305 C11.308721542358398 11.537446975708008 11.385668754577637 11.691216468811035 11.385668754577637 11.894042015075684 C11.385668754577637 12.065616607666016 11.34146785736084 12.208429336547852 11.252568244934082 12.321235656738281 C11.164166450500488 12.434289932250977 11.038660049438477 12.508498191833496 10.877669334411621 12.542986869812012 L11.174749374389648 13.335989952087402 L10.410011291503906 13.335989952087402 L10.186017990112305 12.586689949035645 L10.0465669631958 13.335989952087402 L9.302994728088379 13.335989952087402 L9.302994728088379 13.336114883422852 L9.302994728088379 13.336114883422852 M10.257611274719238 12.188383102416992 L10.312893867492676 12.188383102416992 C10.426321029663086 12.188383102416992 10.509992599487305 12.169706344604492 10.563282012939453 12.13272762298584 C10.61669635772705 12.095748901367188 10.643590927124023 12.037851333618164 10.643590927124023 11.96003246307373 C10.643590927124023 11.900018692016602 10.622549057006836 11.856315612792969 10.579717636108398 11.828425407409668 C10.537010192871094 11.800909042358398 10.469152450561523 11.786964416503906 10.375894546508789 11.786964416503906 L10.332690238952637 11.786964416503906 L10.257611274719238 12.188383102416992 M12.614581108093262 11.91097640991211 C12.497416496276855 11.91097640991211 12.399800300598145 11.952811241149902 12.321982383728027 12.036356925964355 C12.243914604187012 12.119528770446777 12.20506763458252 12.223370552062988 12.20506763458252 12.347382545471191 C12.20506763458252 12.456079483032227 12.236444473266602 12.543111801147461 12.298948287963867 12.607109069824219 C12.361452102661133 12.671606063842773 12.444623947143555 12.703604698181152 12.54896354675293 12.703604698181152 C12.66425895690918 12.703604698181152 12.761252403259277 12.660773277282715 12.840067863464355 12.575235366821289 C12.9191312789917 12.490071296691895 12.958476066589355 12.384860038757324 12.958476066589355 12.260101318359375 C12.958476066589355 12.158252716064453 12.926103591918945 12.07408332824707 12.861233711242676 12.009088516235352 C12.796489715576172 11.943721771240234 12.714312553405762 11.91097640991211 12.614581108093262 11.91097640991211 M12.502272605895996 13.39114761352539 C12.35373306274414 13.39114761352539 12.219635009765625 13.370977401733398 12.099359512329102 13.330636024475098 A0.953869104385376 0.953869104385376 0.0 0 1 11.778372764587402 13.148726463317871 A0.8820270299911499 0.8820270299911499 0.0 0 1 11.546660423278809 12.829235076904297 A1.0085289478302002 1.0085289478302002 0.0 0 1 11.464484214782715 12.425076484680176 C11.464484214782715 12.270185470581055 11.488016128540039 12.126004219055176 11.535578727722168 11.992778778076172 A1.1331632137298584 1.1331632137298584 0.0 0 1 11.747618675231934 11.629459381103516 A1.1044014692306519 1.1044014692306519 0.0 0 1 12.149537086486816 11.330013275146484 C12.307663917541504 11.260287284851074 12.47836685180664 11.225175857543945 12.661396026611328 11.225175857543945 C12.97142505645752 11.225175857543945 13.222436904907227 11.314574241638184 13.414057731628418 11.493370056152344 C13.605926513671875 11.672290802001953 13.702173233032227 11.904874801635742 13.702173233032227 12.19137191772461 C13.702173233032227 12.345016479492188 13.678142547607422 12.489323616027832 13.630455017089844 12.624540328979492 A1.1189690828323364 1.1189690828323364 0.0 0 1 13.418913841247559 12.98686408996582 A1.0989230871200562 1.0989230871200562 0.0 0 1 13.01624870300293 13.288426399230957 C12.860238075256348 13.356782913208008 12.689286231994629 13.39114761352539 12.502272605895996 13.39114761352539 L12.502272605895996 13.39114761352539 M14.682936668395996 12.166220664978027 L14.737595558166504 12.166220664978027 C14.846790313720703 12.166220664978027 14.92697525024414 12.149412155151367 14.978896141052246 12.116416931152344 C15.031438827514648 12.083047866821289 15.05746078491211 12.031750679016113 15.05746078491211 11.963394165039062 C15.05746078491211 11.911474227905273 15.035797119140625 11.873995780944824 14.992591857910156 11.84996509552002 C14.949387550354004 11.825936317443848 14.880035400390625 11.813858985900879 14.784411430358887 11.813858985900879 L14.748926162719727 11.813858985900879 L14.682936668395996 12.166220664978027 L14.682936668395996 12.166220664978027 M13.716740608215332 13.336114883422852 L14.096868515014648 11.274482727050781 L14.89111614227295 11.274482727050781 C15.195293426513672 11.274482727050781 15.423147201538086 11.330262184143066 15.574923515319824 11.441325187683105 C15.726451873779297 11.552886009216309 15.802278518676758 11.720102310180664 15.802278518676758 11.943597793579102 C15.802278518676758 12.1839017868042 15.721595764160156 12.370915412902832 15.559609413146973 12.504140853881836 C15.397622108459473 12.637117385864258 15.169271469116211 12.703977584838867 14.875553131103516 12.703977584838867 L14.581584930419922 12.703977584838867 L14.466039657592773 13.335989952087402 L13.716740608215332 13.335989952087402 L13.716740608215332 13.336114883422852 L13.716740608215332 13.336114883422852 M15.746871948242188 13.336114883422852 L16.127248764038086 11.274482727050781 L17.54093360900879 11.274482727050781 L17.4395809173584 11.83353042602539 L16.76810073852539 11.83353042602539 L16.730125427246094 12.032123565673828 L17.362136840820312 12.032123565673828 L17.26651382446289 12.554442405700684 L16.635250091552734 12.554442405700684 L16.594409942626953 12.77694034576416 L17.326900482177734 12.77694034576416 L17.22430419921875 13.335989952087402 L15.746871948242188 13.335989952087402 L15.746871948242188 13.336114883422852 L15.746871948242188 13.336114883422852 M19.04177474975586 12.576729774475098 L18.902446746826172 13.321796417236328 A1.1493494510650635 1.1493494510650635 0.0 0 1 18.71306800842285 13.374090194702148 A1.061694622039795 1.061694622039795 0.0 0 1 18.525306701660156 13.39114761352539 A1.0537259578704834 1.0537259578704834 0.0 0 1 18.164228439331055 13.330137252807617 A0.9562348127365112 0.9562348127365112 0.0 0 1 17.859054565429688 13.151590347290039 A0.8821515440940857 0.8821515440940857 0.0 0 1 17.627342224121094 12.831103324890137 A1.0163730382919312 1.0163730382919312 0.0 0 1 17.545166015625 12.424951553344727 C17.545166015625 12.271058082580566 17.56869888305664 12.127249717712402 17.616384506225586 11.993151664733887 A1.134781837463379 1.134781837463379 0.0 0 1 17.828176498413086 11.629334449768066 A1.100541591644287 1.100541591644287 0.0 0 1 18.231090545654297 11.329390525817871 C18.38871955871582 11.259665489196777 18.559919357299805 11.225051879882812 18.74494171142578 11.225051879882812 A1.2363817691802979 1.2363817691802979 0.0 0 1 19.020233154296875 11.25493335723877 A1.12257981300354 1.12257981300354 0.0 0 1 19.270248413085938 11.343335151672363 L19.14188003540039 12.032248497009277 A1.0117661952972412 1.0117661952972412 0.0 0 0 18.934446334838867 11.94135570526123 A0.6965075135231018 0.6965075135231018 0.0 0 0 18.73386001586914 11.911100387573242 C18.60325050354004 11.911100387573242 18.496543884277344 11.95206356048584 18.413372039794922 12.03424072265625 C18.3302001953125 12.116416931152344 18.288862228393555 12.221502304077148 18.288862228393555 12.350370407104492 C18.288862228393555 12.4580717086792 18.321483612060547 12.544232368469238 18.386852264404297 12.608105659484863 C18.451723098754883 12.672103881835938 18.539377212524414 12.703729629516602 18.649444580078125 12.703729629516602 C18.709457397460938 12.703729629516602 18.773704528808594 12.69277286529541 18.843055725097656 12.670609474182129 A0.8781672120094299 0.8781672120094299 0.0 0 0 19.04177474975586 12.576729774475098 L19.04177474975586 12.576729774475098 M17.982940673828125 13.952810287475586 L18.05739974975586 13.762933731079102 C18.117412567138672 13.786465644836426 18.174190521240234 13.804271697998047 18.227108001708984 13.816473007202148 C18.2803955078125 13.828426361083984 18.32845687866211 13.834650993347168 18.37178611755371 13.834650993347168 C18.413124084472656 13.834650993347168 18.445247650146484 13.82568645477295 18.469276428222656 13.807633399963379 A0.08553819358348846 0.08553819358348846 0.0 0 0 18.505260467529297 13.73466968536377 C18.505260467529297 13.701799392700195 18.487083435058594 13.678516387939453 18.450973510742188 13.663450241088867 C18.414989471435547 13.649131774902344 18.354480743408203 13.641786575317383 18.268815994262695 13.641786575317383 L18.235946655273438 13.641786575317383 L18.340286254882812 13.336114883422852 L18.50812339782715 13.336114883422852 L18.461681365966797 13.465977668762207 C18.571624755859375 13.46796989440918 18.65380096435547 13.489136695861816 18.70821189880371 13.529975891113281 C18.762496948242188 13.570816040039062 18.78989028930664 13.631327629089355 18.78989028930664 13.711137771606445 C18.78989028930664 13.81497859954834 18.75564956665039 13.895660400390625 18.68779182434082 13.952437400817871 C18.619686126708984 14.00933837890625 18.523189544677734 14.037601470947266 18.398181915283203 14.037601470947266 C18.348628997802734 14.037601470947266 18.289485931396484 14.03050422668457 18.220632553100586 14.016435623168945 A2.406773328781128 2.406773328781128 0.0 0 1 17.982940673828125 13.952810287475586 L17.982940673828125 13.952810287475586 M20.102970123291016 12.574238777160645 L20.366310119628906 12.574238777160645 L20.35784149169922 12.35323429107666 A0.9084230661392212 0.9084230661392212 0.0 0 1 20.354976654052734 12.301438331604004 A5.018988132476807 5.018988132476807 0.0 0 1 20.348129272460938 12.078690528869629 C20.348129272460938 12.041213035583496 20.348129272460938 12.012575149536133 20.3486270904541 11.992280960083008 C20.349124908447266 11.972234725952148 20.350120544433594 11.952935218811035 20.351116180419922 11.935131072998047 C20.333812713623047 11.990537643432617 20.31637954711914 12.043828010559082 20.298574447631836 12.094876289367676 C20.28076934814453 12.146174430847168 20.264087677001953 12.191869735717773 20.248271942138672 12.232336044311523 L20.102970123291016 12.574238777160645 L20.102970123291016 12.574238777160645 M18.981884002685547 13.336114883422852 L20.057771682739258 11.274482727050781 L20.872940063476562 11.274482727050781 L21.142127990722656 13.336114883422852 L20.408641815185547 13.336114883422852 L20.39432144165039 13.061819076538086 L19.898773193359375 13.061819076538086 L19.786216735839844 13.336114883422852 L18.981884002685547 13.336114883422852 M21.020233154296875 13.011268615722656 L21.389652252197266 12.471892356872559 C21.471332550048828 12.573243141174316 21.558612823486328 12.6509370803833 21.651994705200195 12.705099105834961 C21.74562644958496 12.75888729095459 21.838510513305664 12.785781860351562 21.931644439697266 12.785781860351562 C21.972980499267578 12.785781860351562 22.005603790283203 12.778061866760254 22.030132293701172 12.763120651245117 C22.05466079711914 12.74817943572998 22.06686019897461 12.728631973266602 22.06686019897461 12.703977584838867 C22.06686019897461 12.66650104522705 22.013322830200195 12.62615966796875 21.90612030029297 12.582830429077148 A1.2074954509735107 1.2074954509735107 0.0 0 1 21.851459503173828 12.560169219970703 C21.675155639648438 12.486957550048828 21.546287536621094 12.40254020690918 21.465978622436523 12.305795669555664 C21.385669708251953 12.209799766540527 21.3458251953125 12.093506813049316 21.3458251953125 11.957293510437012 C21.3458251953125 11.742513656616211 21.42414093017578 11.567079544067383 21.58077621459961 11.430990219116211 C21.737659454345703 11.295524597167969 21.942848205566406 11.227666854858398 22.19597816467285 11.227666854858398 C22.3426513671875 11.227666854858398 22.477869033813477 11.249330520629883 22.601381301879883 11.292535781860352 A1.090331792831421 1.090331792831421 0.0 0 1 22.94116973876953 11.486770629882812 L22.65280532836914 11.99240493774414 C22.569135665893555 11.919443130493164 22.493309020996094 11.864533424377441 22.42495346069336 11.829048156738281 C22.357343673706055 11.793438911437988 22.294090270996094 11.775758743286133 22.236942291259766 11.775758743286133 C22.20245361328125 11.775758743286133 22.1744384765625 11.78385066986084 22.153270721435547 11.800162315368652 A0.07869016379117966 0.07869016379117966 0.0 0 0 22.121646881103516 11.86552906036377 C22.121646881103516 11.911722183227539 22.183650970458984 11.961153030395508 22.307662963867188 12.01369571685791 C22.34028434753418 12.02751636505127 22.36630630493164 12.038971900939941 22.384984970092773 12.047314643859863 C22.54547882080078 12.11977767944336 22.659029006958008 12.200709342956543 22.72589111328125 12.289485931396484 C22.792503356933594 12.379007339477539 22.82587432861328 12.491813659667969 22.82587432861328 12.629396438598633 C22.82587432861328 12.845047950744629 22.742202758789062 13.024840354919434 22.574363708496094 13.169021606445312 C22.406524658203125 13.313204765319824 22.194982528686523 13.385419845581055 21.939863204956055 13.385419845581055 A1.2500778436660767 1.2500778436660767 0.0 0 1 21.463985443115234 13.290045738220215 C21.308223724365234 13.227168083190918 21.160306930541992 13.134284019470215 21.020233154296875 13.011268615722656 L21.020233154296875 13.011268615722656" fill="black" fill-opacity="1.0" filling="0"/>
<path animation_id="2" d="M1.0588302612304688 11.953184127807617 L2.4478607177734375 11.953184127807617 L2.4478607177734375 10.814667701721191 L3.5893659591674805 10.814667701721191 L3.5893659591674805 11.956296920776367 L2.457200050354004 11.956296920776367 L2.457200050354004 13.351428985595703 L1.4048433303833008 13.351428985595703 A0.3470086455345154 0.3470086455345154 0.0 0 1 1.058706283569336 13.005416870117188 L1.058706283569336 11.953184127807617 L1.0588302612304688 11.953184127807617 L1.0588302612304688 11.953184127807617 M1.9226799011230469 10.295960426330566 L2.4466171264648438 10.295960426330566 L2.4466171264648438 10.819896697998047 L1.9226799011230469 10.819896697998047 L1.9226799011230469 10.295960426330566 L1.9226799011230469 10.295960426330566 M3.590487480163574 9.962398529052734 L4.146797180175781 9.962398529052734 A0.30044203996658325 0.30044203996658325 0.0 0 1 4.446367263793945 10.261968612670898 L4.446367263793945 10.818403244018555 L3.590487480163574 10.818403244018555 L3.590487480163574 9.962398529052734" fill="black" fill-opacity="1.0" filling="0"/>
<path animation_id="3" d="M1.0588302612304688 9.962398529052734 L4.4464921951293945 9.962398529052734 L4.4464921951293945 13.351428985595703 L1.0588302612304688 13.351428985595703 L1.0588302612304688 9.962398529052734" fill="black" fill-opacity="1.0" filling="0"/>
<path animation_id="4" d="M1.0588302612304688 9.962398529052734 L4.4464921951293945 9.962398529052734 L4.4464921951293945 13.351428985595703 L1.0588302612304688 13.351428985595703 L1.0588302612304688 9.962398529052734" fill="black" fill-opacity="1.0" filling="0"/></svg>