<?xml version="1.0" encoding="iso-8859-1"?><svg height="200px" viewBox="0.0 0.0 24.0 24.0" width="200px" xmlns="http://www.w3.org/2000/svg"><path animation_id="0" d="M0.0 0.0 L24.0 0.0 L24.0 24.0 L0.0 24.0 L0.0 0.0" fill="black" fill-opacity="1.0" filling="0"/>
<path animation_id="1" d="M4.993836879730225 10.981261253356934 C4.994583606719971 10.873560905456543 4.989230155944824 10.762248039245605 5.019237041473389 10.670859336853027 C5.028201580047607 10.64296817779541 5.039905548095703 10.615949630737305 5.0540995597839355 10.590300559997559 C5.080620288848877 10.541244506835938 5.1235761642456055 10.489821434020996 5.185332775115967 10.443379402160645 C5.249330997467041 10.394571304321289 5.322168827056885 10.368549346923828 5.380564212799072 10.353483200073242 A1.1065181493759155 1.1065181493759155 0.0 0 1 5.566332817077637 10.320985794067383 A3.0766355991363525 3.0766355991363525 0.0 0 1 5.920189380645752 10.308161735534668 L5.920189380645752 9.610782623291016 C5.892796993255615 9.611156463623047 5.865280628204346 9.612401962280273 5.837265968322754 9.61439323425293 C5.778870582580566 9.618751525878906 5.7284440994262695 9.624105453491211 5.659341335296631 9.63493824005127 C5.623482704162598 9.640541076660156 5.580526828765869 9.6481351852417 5.538193225860596 9.658967971801758 A0.9813858270645142 0.9813858270645142 0.0 0 0 5.413808345794678 9.699807167053223 A0.8129240870475769 0.8129240870475769 0.0 0 0 5.074394702911377 9.949698448181152 A0.7906368374824524 0.7906368374824524 0.0 0 0 4.993836879730225 10.073211669921875 L4.993836879730225 9.642782211303711 L3.9797048568725586 9.642782211303711 L3.9797048568725586 11.829919815063477 L4.993836879730225 11.829919815063477 L4.993836879730225 10.981261253356934 L4.993836879730225 10.981261253356934 M6.379132270812988 14.546971321105957 A0.3635684549808502 0.3635684549808502 0.0 0 0 6.31463623046875 14.458818435668945 A0.5002801418304443 0.5002801418304443 0.0 0 0 6.232211112976074 14.394571304321289 A0.8744319081306458 0.8744319081306458 0.0 0 0 6.001743316650391 14.292348861694336 A5.055469036102295 5.055469036102295 0.0 0 0 5.752848148345947 14.22673225402832 C5.685114860534668 14.210671424865723 5.586876392364502 14.188135147094727 5.488887786865234 14.165472984313965 C5.390774250030518 14.142687797546387 5.292784690856934 14.119653701782227 5.235385894775391 14.105709075927734 A1.0072838068008423 1.0072838068008423 0.0 0 1 5.144742488861084 14.080931663513184 A0.5128556489944458 0.5128556489944458 0.0 0 1 5.0631890296936035 14.04619312286377 C5.014380931854248 14.013072967529297 5.005914688110352 13.985681533813477 5.003424167633057 13.952810287475586 C5.001183032989502 13.911224365234375 5.020108699798584 13.87051010131836 5.06879186630249 13.829545974731445 C5.1051483154296875 13.801033973693848 5.137521266937256 13.790326118469238 5.182718276977539 13.783477783203125 C5.208242893218994 13.779617309570312 5.239743709564209 13.776630401611328 5.271244525909424 13.777128219604492 A0.4726389944553375 0.4726389944553375 0.0 0 1 5.447301387786865 13.815601348876953 C5.468592643737793 13.824939727783203 5.481292247772217 13.833281517028809 5.49287223815918 13.84286880493164 C5.556994438171387 13.900516510009766 5.55574893951416 13.955425262451172 5.561227798461914 14.0062255859375 C5.561975002288818 14.0216646194458 5.561601161956787 14.037103652954102 5.560356140136719 14.05241870880127 L6.355973720550537 14.05241870880127 C6.356098175048828 14.02975845336914 6.358089923858643 14.01992130279541 6.355102062225342 13.980950355529785 A0.5768536329269409 0.5768536329269409 0.0 0 0 6.3426513671875 13.898773193359375 C6.3223557472229 13.815601348876953 6.2779059410095215 13.735790252685547 6.1888813972473145 13.655980110168457 A0.6120898723602295 0.6120898723602295 0.0 0 0 6.105210781097412 13.593476295471191 A0.7458133697509766 0.7458133697509766 0.0 0 0 6.009089469909668 13.544418334960938 A1.4001120328903198 1.4001120328903198 0.0 0 0 5.773392200469971 13.470211029052734 A1.3758326768875122 1.3758326768875122 0.0 0 0 5.625226020812988 13.446306228637695 A3.068293571472168 3.068293571472168 0.0 0 0 5.376828670501709 13.427753448486328 A3.297515869140625 3.297515869140625 0.0 0 0 5.128805637359619 13.4297456741333 C5.063562393188477 13.432609558105469 5.02421760559082 13.436345100402832 4.98512077331543 13.441201210021973 C4.869451999664307 13.456265449523926 4.753283977508545 13.480172157287598 4.639358043670654 13.522754669189453 A1.0031750202178955 1.0031750202178955 0.0 0 0 4.434788227081299 13.630579948425293 C4.408018589019775 13.649256706237793 4.388221263885498 13.665691375732422 4.369918346405029 13.683496475219727 C4.2808942794799805 13.771649360656738 4.24366569519043 13.852331161499023 4.227355003356934 13.93699836730957 C4.209300994873047 14.058893203735352 4.220008850097656 14.173690795898438 4.33928918838501 14.289982795715332 C4.361078262329102 14.311150550842285 4.384735107421875 14.330449104309082 4.409885883331299 14.34750747680664 C4.435037136077881 14.364564895629883 4.461806774139404 14.379132270812988 4.4946770668029785 14.394696235656738 A1.6156383752822876 1.6156383752822876 0.0 0 0 4.7262654304504395 14.481354713439941 C4.926103591918945 14.533524513244629 5.12270450592041 14.565773010253906 5.319429874420166 14.614206314086914 C5.3687357902526855 14.628026962280273 5.4291229248046875 14.653552055358887 5.462367057800293 14.669862747192383 A0.19871754944324493 0.19871754944324493 0.0 0 1 5.50345516204834 14.694889068603516 C5.517026901245117 14.704849243164062 5.536574840545654 14.72340202331543 5.552013874053955 14.746187210083008 C5.599701404571533 14.81927490234375 5.579655170440674 14.897466659545898 5.518645763397217 14.951254844665527 C5.502832412719727 14.964577674865723 5.484654426574707 14.9749116897583 5.465978145599365 14.983129501342773 C5.384922027587891 15.015501976013184 5.305983066558838 15.021477699279785 5.217580795288086 15.014131546020508 C5.148602485656738 15.004669189453125 5.076760292053223 14.986490249633789 5.01936149597168 14.928718566894531 A0.2307165563106537 0.2307165563106537 0.0 0 1 4.978771209716797 14.871942520141602 C4.9684367179870605 14.85114860534668 4.961339950561523 14.828612327575684 4.953620433807373 14.797609329223633 C4.9459004402160645 14.766606330871582 4.93743371963501 14.726887702941895 4.930585861206055 14.686920166015625 L4.115295886993408 14.686920166015625 A0.5118595957756042 0.5118595957756042 0.0 0 0 4.113179683685303 14.748678207397461 C4.115171432495117 14.79113483428955 4.116914749145508 14.825748443603516 4.133474826812744 14.877544403076172 C4.142190456390381 14.90406608581543 4.15576171875 14.936811447143555 4.172321319580078 14.967938423156738 A0.5789703130722046 0.5789703130722046 0.0 0 0 4.30380392074585 15.133785247802734 C4.331320285797119 15.157691955566406 4.361825466156006 15.179854393005371 4.393949031829834 15.1995267868042 C4.5005292892456055 15.265766143798828 4.607234001159668 15.290170669555664 4.710328578948975 15.312333106994629 C4.746933937072754 15.320052146911621 4.783789157867432 15.327149391174316 4.850775241851807 15.335491180419922 C4.91776180267334 15.343833923339844 5.014630317687988 15.353172302246094 5.111996650695801 15.357778549194336 C5.2093634605407715 15.362386703491211 5.306854724884033 15.362261772155762 5.404221057891846 15.357405662536621 C5.501587867736816 15.35254955291748 5.598580837249756 15.3428373336792 5.668804168701172 15.33387279510498 C5.739027500152588 15.32465934753418 5.78260612487793 15.315943717956543 5.8255615234375 15.305609703063965 A1.5538815259933472 1.5538815259933472 0.0 0 0 6.068978309631348 15.224802017211914 C6.101724624633789 15.210733413696289 6.125630855560303 15.198406219482422 6.148913383483887 15.184835433959961 C6.194733142852783 15.155948638916016 6.230841159820557 15.135528564453125 6.285003185272217 15.07651138305664 C6.311648368835449 15.046753883361816 6.344144821166992 15.004669189453125 6.368424415588379 14.95810317993164 C6.392703533172607 14.91153621673584 6.408890247344971 14.860610961914062 6.416236400604248 14.808442115783691 C6.423706531524658 14.756272315979004 6.422337532043457 14.702857971191406 6.415489196777344 14.658781051635742 A0.34240180253982544 0.34240180253982544 0.0 0 0 6.379132270812988 14.546971321105957 L6.379132270812988 14.546971321105957 M1.7224674224853516 12.668119430541992 L0.3528604507446289 15.308348655700684 L1.2701234817504883 15.308348655700684 L1.5083112716674805 14.776816368103027 L2.8922367095947266 14.776816368103027 L3.1484785079956055 15.308348655700684 L4.152275562286377 15.308348655700684 L2.7737035751342773 12.668119430541992 L1.7224674224853516 12.668119430541992 L1.7224674224853516 12.668119430541992 M1.748739242553711 14.281018257141113 L2.209425926208496 13.172757148742676 L2.677083969116211 14.281018257141113 L1.748739242553711 14.281018257141113 L1.748739242553711 14.281018257141113 M2.362323760986328 11.82120418548584 A5.575048446655273 5.575048446655273 0.0 0 0 2.6272802352905273 11.799290657043457 C2.7808008193969727 11.783228874206543 2.89908504486084 11.761812210083008 3.0315628051757812 11.723464012145996 A2.194608688354492 2.194608688354492 0.0 0 0 3.2027645111083984 11.665940284729004 C3.2472143173217773 11.648757934570312 3.2732372283935547 11.636058807373047 3.298760414123535 11.62236213684082 C3.3244104385375977 11.60866641998291 3.3494367599487305 11.594098091125488 3.373965263366699 11.578783988952637 C3.398493766784668 11.563468933105469 3.4226484298706055 11.547158241271973 3.454648017883301 11.521384239196777 C3.4866466522216797 11.495611190795898 3.5267391204833984 11.460250854492188 3.5628461837768555 11.421154022216797 C3.6732864379882812 11.300629615783691 3.7469968795776367 11.150470733642578 3.7624359130859375 11.015377044677734 A0.627155601978302 0.627155601978302 0.0 0 0 3.736661911010742 10.742700576782227 A0.6544232368469238 0.6544232368469238 0.0 0 0 3.5213842391967773 10.437527656555176 A1.2500778436660767 1.2500778436660767 0.0 0 0 3.3780746459960938 10.338168144226074 A1.1376456022262573 1.1376456022262573 0.0 0 0 3.21185302734375 10.257362365722656 A1.33847975730896 1.33847975730896 0.0 0 0 3.0446367263793945 10.205690383911133 C2.94577693939209 10.182655334472656 2.872190475463867 10.174812316894531 2.7875242233276367 10.164477348327637 C2.9209985733032227 10.136213302612305 3.071157455444336 10.103841781616211 3.2067480087280273 10.03872299194336 A0.849654495716095 0.849654495716095 0.0 0 0 3.4156761169433594 9.903629302978516 C3.4519081115722656 9.871256828308105 3.484405517578125 9.834775924682617 3.513416290283203 9.795430183410645 C3.542426109313965 9.756210327148438 3.567951202392578 9.714000701904297 3.5887441635131836 9.657099723815918 C3.630703926086426 9.546286582946777 3.6485090255737305 9.3831787109375 3.5963401794433594 9.242483139038086 A0.7212849855422974 0.7212849855422974 0.0 0 0 3.498599052429199 9.061570167541504 C3.4205322265625 8.958227157592773 3.347942352294922 8.90705394744873 3.267758369445801 8.855879783630371 A0.96993088722229 0.96993088722229 0.0 0 0 3.1269378662109375 8.786154747009277 A1.890057921409607 1.890057921409607 0.0 0 0 2.757516860961914 8.68032169342041 A2.219759702682495 2.219759702682495 0.0 0 0 2.555065155029297 8.654672622680664 A5.849467754364014 5.849467754364014 0.0 0 0 2.077071189880371 8.636493682861328 L0.3528604507446289 8.636493682861328 L0.3528604507446289 11.829546928405762 L2.0831727981567383 11.829546928405762 A4.4400177001953125 4.4400177001953125 0.0 0 0 2.362323760986328 11.82120418548584 L2.362323760986328 11.82120418548584 M1.4312400817871094 9.193426132202148 L1.9297761917114258 9.193426132202148 C1.971735954284668 9.193426132202148 2.01369571685791 9.193799018859863 2.0555315017700195 9.197285652160645 C2.172819137573242 9.208492279052734 2.295835494995117 9.227790832519531 2.3899641036987305 9.278715133666992 C2.4172325134277344 9.294528007507324 2.442133903503418 9.314325332641602 2.464048385620117 9.337234497070312 C2.4859609603881836 9.36014461517334 2.504887580871582 9.385918617248535 2.5202016830444336 9.419037818908691 C2.5356407165527344 9.452157974243164 2.547469139099121 9.492498397827148 2.551079750061035 9.533586502075195 A0.31936749815940857 0.31936749815940857 0.0 0 1 2.4784908294677734 9.764427185058594 C2.451970100402832 9.795804977416992 2.418850898742676 9.82170295715332 2.391458511352539 9.838635444641113 A0.3030567169189453 0.3030567169189453 0.0 0 1 2.3199901580810547 9.871007919311523 C2.273174285888672 9.885950088500977 2.236443519592285 9.894416809082031 2.175434112548828 9.89976978302002 A2.51509690284729 2.51509690284729 0.0 0 1 1.9391145706176758 9.909605979919434 L1.4312400817871094 9.909605979919434 L1.4312400817871094 9.193426132202148 L1.4312400817871094 9.193426132202148 M1.4312400817871094 11.245595932006836 L1.4312400817871094 10.478241920471191 L2.005727767944336 10.478241920471191 C2.047562599182129 10.478241920471191 2.089397430419922 10.479362487792969 2.1312332153320312 10.482351303100586 C2.2535018920898438 10.494304656982422 2.3828678131103516 10.50326919555664 2.49530029296875 10.56627082824707 C2.5307846069335938 10.587811470031738 2.562037467956543 10.616572380065918 2.5865659713745117 10.650314331054688 C2.6112184524536133 10.683932304382324 2.629147529602051 10.722280502319336 2.6403541564941406 10.76063060760498 C2.6516847610473633 10.798979759216309 2.6561660766601562 10.837079048156738 2.654547691345215 10.874930381774902 C2.6530532836914062 10.946274757385254 2.6208057403564453 11.025338172912598 2.5795936584472656 11.078129768371582 C2.5609169006347656 11.10265827178955 2.543360710144043 11.118844985961914 2.52455997467041 11.13328742980957 A0.36145180463790894 0.36145180463790894 0.0 0 1 2.389218330383301 11.201021194458008 C2.356595993041992 11.21010971069336 2.3132667541503906 11.219200134277344 2.2696876525878906 11.226421356201172 C2.18190860748291 11.24123764038086 2.0935068130493164 11.246342658996582 2.0058517456054688 11.245471000671387 L1.4312400817871094 11.245471000671387 L1.4312400817871094 11.245595932006836 L1.4312400817871094 11.245595932006836 M20.731868743896484 11.135030746459961 A1.0249642133712769 1.0249642133712769 0.0 0 0 20.860984802246094 11.388906478881836 A0.9761564135551453 0.9761564135551453 0.0 0 0 21.050613403320312 11.590737342834473 C21.12282943725586 11.648136138916016 21.20376205444336 11.694454193115234 21.266016006469727 11.725207328796387 C21.328519821166992 11.755836486816406 21.372344970703125 11.770777702331543 21.416297912597656 11.784723281860352 C21.460372924804688 11.798667907714844 21.504825592041016 11.811367988586426 21.549522399902344 11.822449684143066 C21.594223022460938 11.83353042602539 21.639545440673828 11.84286880493164 21.703418731689453 11.853202819824219 C21.835647583007812 11.875117301940918 22.020793914794922 11.895163536071777 22.18340301513672 11.895038604736328 C22.26682472229004 11.89541244506836 22.35024642944336 11.89229965209961 22.418352127075195 11.888315200805664 A2.3993027210235596 2.3993027210235596 0.0 0 0 22.74618911743164 11.84909439086914 C22.895973205566406 11.81983470916748 23.05497169494629 11.778745651245117 23.21310043334961 11.692710876464844 A1.1999003887176514 1.1999003887176514 0.0 0 0 23.35030746459961 11.607172012329102 C23.390151977539062 11.577787399291992 23.422025680541992 11.548900604248047 23.45103645324707 11.517026901245117 C23.534706115722656 11.42663288116455 23.587249755859375 11.302620887756348 23.610286712646484 11.197908401489258 C23.626596450805664 11.130423545837402 23.639171600341797 11.062565803527832 23.647014617919922 10.994460105895996 L22.61719512939453 10.994460105895996 C22.609600067138672 11.077134132385254 22.606735229492188 11.155948638916016 22.576107025146484 11.240739822387695 C22.56178855895996 11.27535343170166 22.542490005493164 11.308472633361816 22.506505966186523 11.340472221374512 C22.444252014160156 11.39251708984375 22.37104034423828 11.418540000915527 22.303680419921875 11.427628517150879 A0.7027329802513123 0.7027329802513123 0.0 0 1 22.128368377685547 11.430243492126465 C22.05366325378418 11.420282363891602 21.98580551147461 11.409201622009277 21.916080474853516 11.356657981872559 C21.862791061401367 11.31581974029541 21.84000587463379 11.274482727050781 21.817096710205078 11.2368803024292 A0.40864098072052 0.40864098072052 0.0 0 1 21.794185638427734 11.19193172454834 A0.8787897825241089 0.8787897825241089 0.0 0 1 21.744630813598633 11.037789344787598 A0.8405652642250061 0.8405652642250061 0.0 0 1 21.729066848754883 10.939799308776855 A1.9173256158828735 1.9173256158828735 0.0 0 1 21.72146987915039 10.609475135803223 C21.7255802154541 10.55207633972168 21.73242950439453 10.494802474975586 21.738033294677734 10.452716827392578 C21.748491287231445 10.37328052520752 21.75745391845703 10.334806442260742 21.775508880615234 10.278902053833008 A0.8242545127868652 0.8242545127868652 0.0 0 1 21.801532745361328 10.20992374420166 A0.2896096706390381 0.2896096706390381 0.0 0 1 21.86951446533203 10.111311912536621 C21.88333511352539 10.098362922668457 21.903505325317383 10.081305503845215 21.925418853759766 10.066862106323242 C21.94733428955078 10.05241870880127 21.97061538696289 10.04046630859375 21.995269775390625 10.031251907348633 C22.04855728149414 10.010956764221191 22.11691665649414 10.00186824798584 22.189132690429688 10.002490043640137 C22.22872543334961 10.0032377243042 22.2679443359375 10.008217811584473 22.306293487548828 10.017183303833008 C22.344768524169922 10.02627182006836 22.38212013244629 10.039344787597656 22.40938949584961 10.051298141479492 C22.4364070892334 10.063375473022461 22.453214645385742 10.074333190917969 22.468280792236328 10.087157249450684 C22.577476501464844 10.184773445129395 22.566518783569336 10.30081558227539 22.5859432220459 10.40864086151123 L23.581771850585938 10.40864086151123 A0.7394633889198303 0.7394633889198303 0.0 0 0 23.56496238708496 10.234203338623047 A0.41312333941459656 0.41312333941459656 0.0 0 0 23.53134536743164 10.132726669311523 A0.9279711246490479 0.9279711246490479 0.0 0 0 23.435970306396484 9.974475860595703 A0.7642408013343811 0.7642408013343811 0.0 0 0 23.293033599853516 9.829670906066895 C23.238996505737305 9.788208961486816 23.179729461669922 9.754093170166016 23.13079833984375 9.729564666748047 C23.081867218017578 9.705036163330078 23.04401397705078 9.69021987915039 23.00554084777832 9.676025390625 C22.96706771850586 9.661955833435059 22.928468704223633 9.648633003234863 22.876422882080078 9.633941650390625 A2.5043890476226807 2.5043890476226807 0.0 0 0 22.491439819335938 9.55936050415039 A2.228350877761841 2.228350877761841 0.0 0 0 22.271305084228516 9.54529094696045 C22.099607467651367 9.541431427001953 21.8753662109375 9.555376052856445 21.67552947998047 9.605428695678711 C21.575298309326172 9.629583358764648 21.47705841064453 9.66096019744873 21.407581329345703 9.686734199523926 C21.338106155395508 9.712507247924805 21.297142028808594 9.732428550720215 21.257299423217773 9.754343032836914 A1.3276474475860596 1.3276474475860596 0.0 0 0 21.035423278808594 9.907737731933594 C20.965200424194336 9.968498229980469 20.912158966064453 10.030380249023438 20.866214752197266 10.095250129699707 A0.7781859040260315 0.7781859040260315 0.0 0 0 20.78789710998535 10.233207702636719 C20.75676918029785 10.301313400268555 20.716678619384766 10.401793479919434 20.692771911621094 10.50638198852539 C20.668865203857422 10.610969543457031 20.660898208618164 10.719417572021484 20.66849136352539 10.82674503326416 C20.676088333129883 10.934072494506836 20.698997497558594 11.040278434753418 20.731868743896484 11.135030746459961 L20.731868743896484 11.135030746459961 M20.474132537841797 8.63686752319336 L19.45726203918457 8.63686752319336 L19.45726203918457 9.225425720214844 L20.474132537841797 9.225425720214844 L20.474132537841797 8.63686752319336 M17.208616256713867 10.575483322143555 C17.208866119384766 10.555562973022461 17.20911407470703 10.535640716552734 17.213970184326172 10.499408721923828 C17.218826293945312 10.463176727294922 17.22804069519043 10.410633087158203 17.248210906982422 10.362074851989746 C17.26837921142578 10.313515663146973 17.299009323120117 10.269314765930176 17.33748435974121 10.2334566116333 C17.375957489013672 10.19747257232666 17.42165184020996 10.169831275939941 17.456890106201172 10.152524948120117 C17.525741577148438 10.119653701782227 17.56433868408203 10.116168022155762 17.616636276245117 10.105957984924316 C17.700057983398438 10.093008041381836 17.812612533569336 10.088775634765625 17.921310424804688 10.121521949768066 C17.958288192749023 10.132229804992676 17.994522094726562 10.146174430847168 18.025897979736328 10.16335678100586 C18.057525634765625 10.18053913116455 18.084543228149414 10.20071029663086 18.107078552246094 10.224989891052246 C18.182655334472656 10.30392837524414 18.187389373779297 10.407271385192871 18.19361114501953 10.50090217590332 C18.198467254638672 10.94390869140625 18.195356369018555 11.386914253234863 18.196102142333984 11.829919815063477 L19.208988189697266 11.829919815063477 L19.208988189697266 10.526800155639648 C19.210981369018555 10.399801254272461 19.203386306762695 10.273299217224121 19.173505783081055 10.14343547821045 A0.6053663492202759 0.6053663492202759 0.0 0 0 18.962709426879883 9.823944091796875 A1.0019298791885376 1.0019298791885376 0.0 0 0 18.688413619995117 9.667309761047363 A1.1713876724243164 1.1713876724243164 0.0 0 0 18.52817153930664 9.62061882019043 A1.8366433382034302 1.8366433382034302 0.0 0 0 18.145179748535156 9.577912330627441 C18.079811096191406 9.57753849029541 18.014320373535156 9.580402374267578 17.935752868652344 9.590736389160156 C17.857187271118164 9.601070404052734 17.765798568725586 9.619124412536621 17.677520751953125 9.647886276245117 A1.1732553243637085 1.1732553243637085 0.0 0 0 17.425884246826172 9.76567268371582 A1.220818042755127 1.220818042755127 0.0 0 0 17.207992553710938 9.93836784362793 L17.207992553710938 9.64240837097168 L16.18203353881836 9.64240837097168 L16.18203353881836 11.829546928405762 L17.207992553710938 11.829546928405762 C17.208118438720703 11.411815643310547 17.207122802734375 10.993463516235352 17.208616256713867 10.575483322143555 L17.208616256713867 10.575483322143555 M7.154329776763916 8.63686752319336 L6.137583255767822 8.63686752319336 L6.137583255767822 9.225425720214844 L7.154329776763916 9.225425720214844 L7.154329776763916 8.63686752319336 L7.154329776763916 8.63686752319336 M20.474132537841797 9.642657279968262 L19.45726203918457 9.642657279968262 L19.45726203918457 11.829919815063477 L20.474132537841797 11.829919815063477 L20.474132537841797 9.642657279968262 M7.154329776763916 9.642657279968262 L6.137583255767822 9.642657279968262 L6.137583255767822 11.829919815063477 L7.154329776763916 11.829919815063477 L7.154329776763916 9.642657279968262 L7.154329776763916 9.642657279968262 M20.216522216796875 14.68156623840332 C20.20556640625 14.753283500671387 20.21017074584961 14.82686996459961 20.130237579345703 14.9034423828125 A0.33231648802757263 0.33231648802757263 0.0 0 1 19.961652755737305 14.975409507751465 A0.5871879458427429 0.5871879458427429 0.0 0 1 19.815725326538086 14.97765064239502 C19.75347137451172 14.96955680847168 19.697317123413086 14.960344314575195 19.639419555664062 14.916890144348145 C19.594970703125 14.883147239685059 19.57592010498047 14.848907470703125 19.556995391845703 14.81790542602539 A0.5108634829521179 0.5108634829521179 0.0 0 1 19.51515769958496 14.720537185668945 A0.6993712186813354 0.6993712186813354 0.0 0 1 19.483781814575195 14.572247505187988 A1.590113878250122 1.590113878250122 0.0 0 1 19.477432250976562 14.299073219299316 C19.48079490661621 14.25163459777832 19.486398696899414 14.204320907592773 19.491254806518555 14.16958236694336 C19.499969482421875 14.103965759277344 19.50731658935547 14.071966171264648 19.522132873535156 14.025897979736328 A0.6661271452903748 0.6661271452903748 0.0 0 1 19.54404640197754 13.968873023986816 C19.56247329711914 13.92778491973877 19.57592010498047 13.911348342895508 19.600698471069336 13.887319564819336 C19.626968383789062 13.862292289733887 19.668058395385742 13.834153175354004 19.705036163330078 13.82120418548584 C19.774887084960938 13.796426773071289 19.871131896972656 13.787836074829102 19.963768005371094 13.809500694274902 C19.995643615722656 13.816970825195312 20.026769638061523 13.827678680419922 20.04943084716797 13.837763786315918 C20.071842193603516 13.847724914550781 20.085662841796875 13.85681438446045 20.09861183166504 13.867273330688477 C20.156259536743164 13.915209770202637 20.16958236694336 13.97572135925293 20.18103790283203 14.030256271362305 C20.1868896484375 14.060885429382324 20.190998077392578 14.095996856689453 20.196102142333984 14.13322639465332 L21.024341583251953 14.13322639465332 C21.02633285522461 14.109070777893066 21.025339126586914 14.084667205810547 21.020483016967773 14.048559188842773 A0.5752350091934204 0.5752350091934204 0.0 0 0 20.98686408996582 13.916080474853516 A0.6021291017532349 0.6021291017532349 0.0 0 0 20.9036922454834 13.773765563964844 A0.6565398573875427 0.6565398573875427 0.0 0 0 20.783790588378906 13.654236793518066 A0.9191309213638306 0.9191309213638306 0.0 0 0 20.545228958129883 13.527485847473145 A1.3696072101593018 1.3696072101593018 0.0 0 0 20.437774658203125 13.49274730682373 A2.0907676219940186 2.0907676219940186 0.0 0 0 20.117786407470703 13.43111515045166 A1.8406275510787964 1.8406275510787964 0.0 0 0 19.93488121032715 13.419411659240723 C19.792194366455078 13.416173934936523 19.605554580688477 13.427629470825195 19.4394588470459 13.469091415405273 C19.356285095214844 13.489136695861816 19.274356842041016 13.515034675598145 19.216461181640625 13.53632640838623 A0.8669613003730774 0.8669613003730774 0.0 0 0 19.09170150756836 13.592230796813965 A1.1060200929641724 1.1060200929641724 0.0 0 0 18.995704650878906 13.651124000549316 C18.964576721191406 13.672538757324219 18.934696197509766 13.695449829101562 18.907426834106445 13.71910572052002 A0.839320182800293 0.839320182800293 0.0 0 0 18.7666072845459 13.874120712280273 A0.6663761734962463 0.6663761734962463 0.0 0 0 18.701488494873047 13.988296508789062 A1.211106300354004 1.211106300354004 0.0 0 0 18.62242317199707 14.214033126831055 A0.8980887532234192 0.8980887532234192 0.0 0 0 18.60225486755371 14.479113578796387 C18.608354568481445 14.567889213562012 18.62727928161621 14.655668258666992 18.654796600341797 14.734109878540039 C18.682064056396484 14.812551498413086 18.71780014038086 14.881404876708984 18.762248992919922 14.944157600402832 C18.80644989013672 15.00691032409668 18.8597412109375 15.063562393188477 18.919878005981445 15.111124992370605 A1.0214780569076538 1.0214780569076538 0.0 0 0 19.09892463684082 15.222187995910645 C19.150720596313477 15.24746322631836 19.18720245361328 15.25991439819336 19.22393035888672 15.271368980407715 C19.260662078857422 15.282824516296387 19.297391891479492 15.293407440185547 19.334619522094727 15.302496910095215 C19.371849060058594 15.311585426330566 19.409574508666992 15.319430351257324 19.462491989135742 15.327897071838379 C19.572681427001953 15.346075057983398 19.726577758789062 15.362634658813477 19.86179542541504 15.362510681152344 A3.297018051147461 3.297018051147461 0.0 0 0 20.057025909423828 15.35703182220459 A1.99838125705719 1.99838125705719 0.0 0 0 20.32957649230957 15.324410438537598 C20.454086303710938 15.30025577545166 20.58631706237793 15.266263961791992 20.717674255371094 15.195169448852539 A0.9836270213127136 0.9836270213127136 0.0 0 0 20.83172607421875 15.1244478225708 C20.903942108154297 15.071406364440918 20.94428253173828 15.020979881286621 20.978397369384766 14.964452743530273 C21.047252655029297 14.845171928405762 21.06231689453125 14.731245994567871 21.078380584716797 14.617817878723145 L20.222373962402344 14.617817878723145 L20.216522216796875 14.68156623840332 L20.216522216796875 14.68156623840332 M18.383241653442383 13.815227508544922 A0.5048869848251343 0.5048869848251343 0.0 0 0 18.246030807495117 13.649754524230957 A0.8447986245155334 0.8447986245155334 0.0 0 0 18.017681121826172 13.520263671875 C17.88121795654297 13.470833778381348 17.722219467163086 13.447674751281738 17.566083908081055 13.446430206298828 C17.454025268554688 13.445184707641602 17.318309783935547 13.459379196166992 17.177488327026367 13.504326820373535 A0.9793936610221863 0.9793936610221863 0.0 0 0 16.968313217163086 13.601568222045898 A1.0169956684112549 1.0169956684112549 0.0 0 0 16.786903381347656 13.744505882263184 L16.786903381347656 13.499719619750977 L15.933761596679688 13.499719619750977 L15.933761596679688 15.308223724365234 L16.786903381347656 15.308223724365234 C16.787151336669922 14.9624605178833 16.78615379333496 14.616572380065918 16.787399291992188 14.270933151245117 C16.787649154663086 14.254498481750488 16.787899017333984 14.237937927246094 16.791759490966797 14.207931518554688 A0.4694017469882965 0.4694017469882965 0.0 0 1 16.820396423339844 14.094253540039062 C16.837203979492188 14.054286003112793 16.862728118896484 14.017556190490723 16.894601821899414 13.987922668457031 C16.92647933959961 13.958290100097656 16.96457862854004 13.935503959655762 16.99383544921875 13.921185493469238 C17.050987243652344 13.894166946411133 17.083358764648438 13.891303062438965 17.126813888549805 13.882712364196777 C17.196165084838867 13.872004508972168 17.289796829223633 13.868642807006836 17.379941940307617 13.895660400390625 C17.41057014465332 13.904501914978027 17.440702438354492 13.916080474853516 17.46697235107422 13.930150032043457 C17.493244171142578 13.944219589233398 17.515657424926758 13.961028099060059 17.534332275390625 13.981075286865234 C17.61725616455078 14.071468353271484 17.60368537902832 14.185768127441406 17.60854148864746 14.289112091064453 L17.60854148864746 15.308348655700684 L18.450475692749023 15.308348655700684 C18.44997787475586 14.913652420043945 18.452468872070312 14.519330024719238 18.44898223876953 14.124509811401367 C18.44101333618164 14.024404525756836 18.43790054321289 13.92031478881836 18.383241653442383 13.815227508544922 L18.383241653442383 13.815227508544922 M8.831725120544434 14.546971321105957 A0.3635684549808502 0.3635684549808502 0.0 0 0 8.767229080200195 14.458818435668945 A0.5002801418304443 0.5002801418304443 0.0 0 0 8.68480396270752 14.394571304321289 A0.8725642561912537 0.8725642561912537 0.0 0 0 8.454336166381836 14.292348861694336 A4.946274280548096 4.946274280548096 0.0 0 0 8.20544147491455 14.22673225402832 C8.13770866394043 14.210671424865723 8.039469718933105 14.188135147094727 7.9413557052612305 14.165472984313965 A31.173503875732422 31.173503875732422 0.0 0 1 7.687978744506836 14.105709075927734 A1.0207308530807495 1.0207308530807495 0.0 0 1 7.5973358154296875 14.080931663513184 A0.5128556489944458 0.5128556489944458 0.0 0 1 7.515781402587891 14.04619312286377 C7.466974258422852 14.013072967529297 7.45863151550293 13.985681533813477 7.456017017364502 13.952810287475586 C7.453775882720947 13.911224365234375 7.472701072692871 13.87051010131836 7.521509170532227 13.829545974731445 C7.557741641998291 13.801033973693848 7.590114116668701 13.790326118469238 7.635311126708984 13.783477783203125 C7.660711288452148 13.779617309570312 7.692336559295654 13.776630401611328 7.723837375640869 13.777128219604492 A0.4726389944553375 0.4726389944553375 0.0 0 1 7.899894714355469 13.815601348876953 C7.921309947967529 13.824939727783203 7.93388557434082 13.833281517028809 7.945464611053467 13.84286880493164 C8.009588241577148 13.900516510009766 8.008466720581055 13.955425262451172 8.013944625854492 14.0062255859375 C8.014568328857422 14.0216646194458 8.014318466186523 14.037103652954102 8.012948989868164 14.05241870880127 L8.80856704711914 14.05241870880127 C8.80856704711914 14.02975845336914 8.810683250427246 14.01992130279541 8.807694435119629 13.980950355529785 A0.5768536329269409 0.5768536329269409 0.0 0 0 8.795244216918945 13.898773193359375 C8.774948120117188 13.815601348876953 8.730499267578125 13.735790252685547 8.641473770141602 13.655980110168457 A0.6120898723602295 0.6120898723602295 0.0 0 0 8.557804107666016 13.593476295471191 A0.735977053642273 0.735977053642273 0.0 0 0 8.461806297302246 13.544418334960938 A1.4121894836425781 1.4121894836425781 0.0 0 0 8.226110458374023 13.470211029052734 C8.185270309448242 13.461246490478516 8.144057273864746 13.453900337219238 8.077942848205566 13.446306228637695 C8.011828422546387 13.43871021270752 7.920687675476074 13.43061637878418 7.8295464515686035 13.427753448486328 A3.2934072017669678 3.2934072017669678 0.0 0 0 7.5816473960876465 13.4297456741333 A1.6734108924865723 1.6734108924865723 0.0 0 0 7.437838554382324 13.441201210021973 C7.322168827056885 13.456265449523926 7.205877304077148 13.480172157287598 7.091950416564941 13.522754669189453 A1.0054161548614502 1.0054161548614502 0.0 0 0 6.887505531311035 13.630579948425293 C6.86073637008667 13.649256706237793 6.840939044952393 13.665691375732422 6.822636127471924 13.683496475219727 C6.684180736541748 13.821826934814453 6.661396026611328 13.952810287475586 6.6782050132751465 14.082301139831543 C6.690406799316406 14.153894424438477 6.724024295806885 14.22498893737793 6.792130947113037 14.2898588180542 C6.813920497894287 14.311150550842285 6.8375773429870605 14.330449104309082 6.862728118896484 14.34750747680664 C6.887878894805908 14.364564895629883 6.914648532867432 14.379132270812988 6.947519302368164 14.394696235656738 C6.980389595031738 14.410260200500488 7.01936149597168 14.426569938659668 7.058955669403076 14.441511154174805 C7.098425388336182 14.456329345703125 7.138641834259033 14.469650268554688 7.179107666015625 14.481354713439941 C7.379069805145264 14.533524513244629 7.575671195983887 14.565773010253906 7.772272109985352 14.614206314086914 C7.821577548980713 14.628026962280273 7.881965160369873 14.653552055358887 7.91520881652832 14.669862747192383 A0.22474008798599243 0.22474008798599243 0.0 0 1 8.005105018615723 14.746187210083008 C8.052667617797852 14.81927490234375 8.032621383666992 14.897466659545898 7.971736431121826 14.951254844665527 C7.955923557281494 14.964577674865723 7.937620639801025 14.9749116897583 7.919068813323975 14.983129501342773 C7.837888717651367 15.015501976013184 7.759073734283447 15.021477699279785 7.670671463012695 15.014131546020508 C7.601818084716797 15.004669189453125 7.529975891113281 14.986490249633789 7.472452163696289 14.928718566894531 A0.2307165563106537 0.2307165563106537 0.0 0 1 7.431861877441406 14.871942520141602 C7.421527862548828 14.85114860534668 7.414430618286133 14.828612327575684 7.406711101531982 14.797609329223633 C7.398991584777832 14.766606330871582 7.390524864196777 14.726887702941895 7.383676528930664 14.686920166015625 L6.568262577056885 14.686920166015625 A0.5388782024383545 0.5388782024383545 0.0 0 0 6.56602144241333 14.748678207397461 C6.568013668060303 14.79113483428955 6.569756507873535 14.825748443603516 6.5863165855407715 14.877544403076172 C6.595032215118408 14.90406608581543 6.6086039543151855 14.936811447143555 6.625163555145264 14.967938423156738 A0.5789703130722046 0.5789703130722046 0.0 0 0 6.756645679473877 15.133785247802734 C6.784038066864014 15.157691955566406 6.814667224884033 15.179854393005371 6.84666633605957 15.1995267868042 C6.9532470703125 15.265766143798828 7.060075759887695 15.290170669555664 7.163169860839844 15.312333106994629 C7.1997761726379395 15.320052146911621 7.236630916595459 15.327149391174316 7.303617000579834 15.335491180419922 C7.370603084564209 15.343833923339844 7.467596530914307 15.353172302246094 7.564838409423828 15.357778549194336 C7.66208028793335 15.362386703491211 7.759571552276611 15.362261772155762 7.856938362121582 15.357405662536621 A3.5268630981445312 3.5268630981445312 0.0 0 0 8.12152099609375 15.333748817443848 C8.191744804382324 15.32465934753418 8.235198974609375 15.315943717956543 8.278279304504395 15.305609703063965 A1.5511424541473389 1.5511424541473389 0.0 0 0 8.521820068359375 15.224802017211914 A0.6972545385360718 0.6972545385360718 0.0 0 0 8.601631164550781 15.184835433959961 C8.647451400756836 15.155948638916016 8.683558464050293 15.135528564453125 8.737720489501953 15.07651138305664 C8.764490127563477 15.046753883361816 8.796862602233887 15.004669189453125 8.821142196655273 14.95810317993164 C8.845420837402344 14.91153621673584 8.861607551574707 14.860610961914062 8.869078636169434 14.808442115783691 C8.876548767089844 14.756272315979004 8.875054359436035 14.702857971191406 8.868330955505371 14.658781051635742 A0.3514910042285919 0.3514910042285919 0.0 0 0 8.831725120544434 14.546971321105957 L8.831725120544434 14.546971321105957 M15.687729835510254 14.18552017211914 A1.6307041645050049 1.6307041645050049 0.0 0 0 15.661458969116211 13.964639663696289 A0.41337233781814575 0.41337233781814575 0.0 0 0 15.64539623260498 13.903878211975098 C15.632323265075684 13.870012283325195 15.625723838806152 13.847102165222168 15.592853546142578 13.800785064697266 C15.575796127319336 13.777252197265625 15.55002212524414 13.745627403259277 15.521135330200195 13.716865539550781 C15.492249488830566 13.688102722167969 15.46037483215332 13.662579536437988 15.426010131835938 13.640789985656738 A0.9394260048866272 0.9394260048866272 0.0 0 0 15.254560470581055 13.558613777160645 C15.233144760131836 13.550768852233887 15.211729049682617 13.542924880981445 15.170392036437988 13.531097412109375 C15.12905502319336 13.519268035888672 15.068044662475586 13.503331184387207 15.006288528442383 13.490631103515625 C14.944531440734863 13.477931022644043 14.88227653503418 13.468094825744629 14.806449890136719 13.459627151489258 C14.730623245239258 13.451160430908203 14.64109992980957 13.443815231323242 14.551578521728516 13.441450119018555 C14.462056159973145 13.439083099365234 14.372408866882324 13.441201210021973 14.283134460449219 13.4484224319458 C14.193861961364746 13.455643653869629 14.105087280273438 13.467348098754883 14.041461944580078 13.478179931640625 A0.9774014949798584 0.9774014949798584 0.0 0 0 13.90163803100586 13.5110502243042 A1.020357370376587 1.020357370376587 0.0 0 0 13.69034481048584 13.60505485534668 A0.47724583745002747 0.47724583745002747 0.0 0 0 13.61738109588623 13.658470153808594 C13.505945205688477 13.760194778442383 13.481914520263672 13.860300064086914 13.469339370727539 13.954304695129395 A0.5620369911193848 0.5620369911193848 0.0 0 0 13.4670991897583 14.03872299194336 L14.270061492919922 14.03872299194336 A0.6018801331520081 0.6018801331520081 0.0 0 1 14.275415420532227 13.955550193786621 C14.278778076171875 13.908610343933105 14.304551124572754 13.8472261428833 14.350370407104492 13.81373405456543 C14.366682052612305 13.801158905029297 14.384859085083008 13.791072845458984 14.411380767822266 13.782482147216797 C14.437652587890625 13.773890495300293 14.47214126586914 13.766420364379883 14.507003784179688 13.76255989074707 C14.574861526489258 13.753719329833984 14.654422760009766 13.763431549072266 14.705970764160156 13.777128219604492 C14.730997085571289 13.783477783203125 14.74631118774414 13.789703369140625 14.76063060760498 13.797423362731934 C14.79885482788086 13.815725326538086 14.841561317443848 13.86652660369873 14.850899696350098 13.90163803100586 C14.861358642578125 13.931021690368652 14.865467071533203 13.950445175170898 14.868953704833984 13.993650436401367 C14.870697021484375 14.01680850982666 14.87281322479248 14.048683166503906 14.874556541442871 14.080681800842285 C14.87605094909668 14.11268138885498 14.877171516418457 14.144804954528809 14.878168106079102 14.176679611206055 C14.734233856201172 14.181161880493164 14.590300559997559 14.185270309448242 14.446492195129395 14.193613052368164 C14.34514045715332 14.199464797973633 14.24366569519043 14.206562042236328 14.167091369628906 14.213285446166992 C14.090270042419434 14.220132827758789 14.038225173950195 14.226608276367188 13.986677169799805 14.235448837280273 C13.887194633483887 14.251882553100586 13.774139404296875 14.282636642456055 13.694328308105469 14.310527801513672 A0.6636369228363037 0.6636369228363037 0.0 0 0 13.53283977508545 14.390462875366211 A0.5253065824508667 0.5253065824508667 0.0 0 0 13.377700805664062 14.554317474365234 A0.41860175132751465 0.41860175132751465 0.0 0 0 13.327150344848633 14.687169075012207 A0.5051360726356506 0.5051360726356506 0.0 0 0 13.350557327270508 14.956981658935547 A0.5266762375831604 0.5266762375831604 0.0 0 0 13.495735168457031 15.169893264770508 C13.527610778808594 15.198033332824707 13.561601638793945 15.22131633758545 13.597335815429688 15.24161148071289 C13.63306999206543 15.262031555175781 13.670547485351562 15.279711723327637 13.709145545959473 15.293781280517578 C13.74761962890625 15.308099746704102 13.787213325500488 15.31905746459961 13.841374397277832 15.32964038848877 C13.895536422729492 15.34022331237793 13.963892936706543 15.350433349609375 14.032995223999023 15.356036186218262 A1.4941169023513794 1.4941169023513794 0.0 0 0 14.240180015563965 15.358526229858398 C14.309032440185547 15.35441780090332 14.377762794494629 15.345453262329102 14.421340942382812 15.338356018066406 C14.464920043945312 15.331258773803711 14.483346939086914 15.326278686523438 14.501649856567383 15.320674896240234 C14.53962516784668 15.308472633361816 14.566518783569336 15.301251411437988 14.617941856384277 15.275726318359375 C14.644462585449219 15.262529373168945 14.679450035095215 15.2431058883667 14.712320327758789 15.220443725585938 C14.744942665100098 15.197659492492676 14.7755708694458 15.171512603759766 14.80321216583252 15.142875671386719 C14.830853462219238 15.114237785339355 14.85600471496582 15.082860946655273 14.878168106079102 15.049368858337402 C14.888376235961914 15.136027336120605 14.896595001220703 15.222685813903809 14.91639232635498 15.308722496032715 L15.730560302734375 15.308722496032715 C15.699433326721191 15.180601119995117 15.694329261779785 15.052730560302734 15.688725471496582 14.924484252929688 C15.688227653503418 14.677955627441406 15.692087173461914 14.43167495727539 15.687729835510254 14.18552017211914 L15.687729835510254 14.18552017211914 M14.875303268432617 14.586068153381348 A1.1100044250488281 1.1100044250488281 0.0 0 1 14.867958068847656 14.650190353393555 C14.861856460571289 14.692523002624512 14.848783493041992 14.755525588989258 14.813422203063965 14.818901062011719 C14.773330688476562 14.88974666595459 14.706219673156738 14.936437606811523 14.645085334777832 14.961588859558105 A0.4918135106563568 0.4918135106563568 0.0 0 1 14.360082626342773 14.986615180969238 A0.30753907561302185 0.30753907561302185 0.0 0 1 14.276660919189453 14.955986022949219 C14.194234848022461 14.910041809082031 14.145551681518555 14.82998275756836 14.142438888549805 14.765735626220703 A0.21390774846076965 0.21390774846076965 0.0 0 1 14.171574592590332 14.638361930847168 C14.182780265808105 14.619560241699219 14.197348594665527 14.602502822875977 14.210671424865723 14.589056015014648 C14.238934516906738 14.561164855957031 14.263214111328125 14.545974731445312 14.290481567382812 14.531532287597656 C14.342277526855469 14.505260467529297 14.417481422424316 14.487829208374023 14.488451957702637 14.4764986038208 C14.514473915100098 14.472515106201172 14.540745735168457 14.469526290893555 14.579593658447266 14.466663360595703 C14.660524368286133 14.460437774658203 14.776816368103027 14.455954551696777 14.877793312072754 14.457947731018066 C14.877420425415039 14.500404357910156 14.878914833068848 14.543360710144043 14.875303268432617 14.586068153381348 L14.875303268432617 14.586068153381348 M23.647140502929688 14.528419494628906 C23.6445255279541 14.453091621398926 23.643529891967773 14.377513885498047 23.63618278503418 14.302558898925781 A1.7111374139785767 1.7111374139785767 0.0 0 0 23.589242935180664 14.031501770019531 A0.6587810516357422 0.6587810516357422 0.0 0 0 23.552513122558594 13.931021690368652 C23.5136661529541 13.84872055053711 23.45688819885254 13.77015495300293 23.360145568847656 13.68984603881836 A0.8481603264808655 0.8481603264808655 0.0 0 0 23.17001724243164 13.571935653686523 A1.3803150653839111 1.3803150653839111 0.0 0 0 22.898090362548828 13.480794906616211 A2.50887131690979 2.50887131690979 0.0 0 0 22.66313934326172 13.440826416015625 C22.49393081665039 13.419411659240723 22.305919647216797 13.424640655517578 22.160741806030273 13.440079689025879 C22.089275360107422 13.447549819946289 22.032623291015625 13.456265449523926 21.976593017578125 13.46796989440918 A1.654734492301941 1.654734492301941 0.0 0 0 21.654111862182617 13.570192337036133 A0.8906182050704956 0.8906182050704956 0.0 0 0 21.407459259033203 13.727697372436523 C21.371475219726562 13.759820938110352 21.338106155395508 13.79493236541748 21.30946922302246 13.83228588104248 A0.7380937337875366 0.7380937337875366 0.0 0 0 21.235759735107422 13.95069408416748 C21.214839935302734 13.991782188415527 21.197036743164062 14.034738540649414 21.182968139648438 14.07856559753418 A0.9019485712051392 0.9019485712051392 0.0 0 0 21.149349212646484 14.222498893737793 A1.2812052965164185 1.2812052965164185 0.0 0 0 21.134782791137695 14.407644271850586 A1.0166220664978027 1.0166220664978027 0.0 0 0 21.152835845947266 14.60175609588623 C21.1650390625 14.665629386901855 21.183216094970703 14.72825813293457 21.19728660583496 14.770217895507812 C21.211605072021484 14.812052726745605 21.22156524658203 14.832969665527344 21.23227310180664 14.853638648986816 C21.24323081970215 14.874307632446289 21.254684448242188 14.894477844238281 21.267011642456055 14.91415023803711 C21.279212951660156 14.933948516845703 21.292285919189453 14.9532470703125 21.32391357421875 14.98823356628418 C21.35553741455078 15.023221015930176 21.405841827392578 15.07352352142334 21.46174430847168 15.11697769165039 C21.51740074157715 15.160555839538574 21.578535079956055 15.197285652160645 21.64315414428711 15.225799560546875 C21.707775115966797 15.254311561584473 21.775882720947266 15.274730682373047 21.82095718383789 15.287181854248047 C21.865901947021484 15.299633026123047 21.8878173828125 15.304239273071289 21.909481048583984 15.308847427368164 C21.931396484375 15.313453674316406 21.953060150146484 15.318184852600098 22.009960174560547 15.326900482177734 C22.066612243652344 15.335491180419922 22.15850067138672 15.348191261291504 22.250762939453125 15.355413436889648 C22.343151092529297 15.362759590148926 22.43578338623047 15.364502906799316 22.528295516967773 15.361141204833984 A3.408827781677246 3.408827781677246 0.0 0 0 22.780925750732422 15.34146785736084 C22.849031448364258 15.333748817443848 22.892736434936523 15.326776504516602 22.936065673828125 15.318059921264648 A1.5633443593978882 1.5633443593978882 0.0 0 0 23.183589935302734 15.247214317321777 A0.7412065267562866 0.7412065267562866 0.0 0 0 23.3458251953125 15.16018295288086 A0.6642594933509827 0.6642594933509827 0.0 0 0 23.5136661529541 14.990848541259766 A0.5337733030319214 0.5337733030319214 0.0 0 0 23.601694107055664 14.706219673156738 L22.791133880615234 14.706219673156738 C22.792129516601562 14.73261547088623 22.788894653320312 14.759136199951172 22.782669067382812 14.7850341796875 C22.775074005126953 14.826247215270996 22.73697280883789 14.879911422729492 22.69028091430664 14.910788536071777 C22.673723220825195 14.921870231628418 22.655794143676758 14.930834770202637 22.634876251220703 14.939301490783691 C22.613956451416016 14.947769165039062 22.59017562866211 14.955363273620605 22.566020965576172 14.961588859558105 A0.6044948101043701 0.6044948101043701 0.0 0 1 22.417980194091797 14.979766845703125 C22.302433013916016 14.97752571105957 22.172569274902344 14.969931602478027 22.07171630859375 14.852643013000488 A0.3552262783050537 0.3552262783050537 0.0 0 1 22.029632568359375 14.782793045043945 A0.5487144589424133 0.5487144589424133 0.0 0 1 21.97983169555664 14.528543472290039 L23.647140502929688 14.528543472290039 L23.647140502929688 14.528419494628906 L23.647140502929688 14.528419494628906 M21.996389389038086 14.10209846496582 C22.011703491210938 14.029260635375977 22.029508590698242 13.946958541870117 22.123762130737305 13.867273330688477 C22.246280670166016 13.776006698608398 22.414867401123047 13.76567268371582 22.562660217285156 13.808006286621094 C22.606487274169922 13.821328163146973 22.654796600341797 13.844612121582031 22.70123863220215 13.89030647277832 C22.746685028076172 13.935379028320312 22.774200439453125 13.987174987792969 22.789764404296875 14.039843559265137 C22.798233032226562 14.068231582641602 22.80333709716797 14.097989082336426 22.808940887451172 14.122766494750977 C22.814292907714844 14.147543907165527 22.820144653320312 14.167341232299805 22.681068420410156 14.177301406860352 C22.5419921875 14.187262535095215 22.25823211669922 14.187262535095215 21.989665985107422 14.17306900024414 C21.99028968811035 14.149287223815918 21.992279052734375 14.125505447387695 21.996389389038086 14.10209846496582 L21.996389389038086 14.10209846496582 M15.812239646911621 10.024279594421387 A0.6083546280860901 0.6083546280860901 0.0 0 0 15.647139549255371 9.824068069458008 A1.0019298791885376 1.0019298791885376 0.0 0 0 15.372844696044922 9.667434692382812 A1.1713876724243164 1.1713876724243164 0.0 0 0 15.212600708007812 9.620742797851562 A1.8371412754058838 1.8371412754058838 0.0 0 0 14.82935905456543 9.57803726196289 C14.764241218566895 9.577662467956543 14.698749542236328 9.580526351928711 14.620182991027832 9.590861320495605 C14.541617393493652 9.601195335388184 14.449978828430176 9.61924934387207 14.361949920654297 9.648011207580566 A1.1732553243637085 1.1732553243637085 0.0 0 0 14.110316276550293 9.765796661376953 A1.220818042755127 1.220818042755127 0.0 0 0 13.892424583435059 9.938491821289062 L13.892424583435059 9.642532348632812 L12.866214752197266 9.642532348632812 L12.866214752197266 11.829670906066895 L13.892424583435059 11.829670906066895 C13.89267349243164 11.411567687988281 13.891676902770996 10.99321460723877 13.892922401428223 10.575235366821289 C13.893171310424805 10.555314064025879 13.893669128417969 10.535391807556152 13.898275375366211 10.499159812927246 C13.903131484985352 10.46280288696289 13.912593841552734 10.410384178161621 13.932765007019043 10.361825942993164 C13.952686309814453 10.31339168548584 13.983564376831055 10.269065856933594 14.022037506103516 10.233207702636719 C14.060263633728027 10.197223663330078 14.106206893920898 10.16958236694336 14.141443252563477 10.152276039123535 C14.210047721862793 10.119405746459961 14.248895645141602 10.11591911315918 14.301189422607422 10.105709075927734 C14.384611129760742 10.09276008605957 14.497167587280273 10.088526725769043 14.605615615844727 10.121273040771484 C14.642843246459961 10.131980895996094 14.678827285766602 10.145925521850586 14.710453033447266 10.163107872009277 C14.74207878112793 10.180290222167969 14.768847465515137 10.200461387634277 14.791633605957031 10.224740982055664 C14.866961479187012 10.303679466247559 14.871942520141602 10.407022476196289 14.878168106079102 10.500653266906738 C14.883023262023926 10.943658828735352 14.879661560058594 11.386665344238281 14.880657196044922 11.829670906066895 L15.893295288085938 11.829670906066895 C15.892797470092773 11.352425575256348 15.895536422729492 10.875553131103516 15.891303062438965 10.39805793762207 C15.881840705871582 10.277283668518066 15.878105163574219 10.15127944946289 15.812239646911621 10.024279594421387 L15.812239646911621 10.024279594421387 M10.6449613571167 14.56017017364502 C10.639357566833496 14.630891799926758 10.636618614196777 14.69140338897705 10.585071563720703 14.766980171203613 C10.573616027832031 14.783540725708008 10.560791969299316 14.798979759216309 10.531905174255371 14.820892333984375 C10.503020286560059 14.842806816101074 10.458320617675781 14.87094497680664 10.410011291503906 14.890992164611816 C10.361701011657715 14.911038398742676 10.309905052185059 14.922990798950195 10.257735252380371 14.925729751586914 C10.20556640625 14.92846965789795 10.153146743774414 14.922368049621582 10.118035316467285 14.916017532348633 C10.082923889160156 14.909668922424316 10.065242767333984 14.903069496154785 10.04843521118164 14.895100593566895 C10.015937805175781 14.878914833068848 9.986429214477539 14.861358642578125 9.957293510437012 14.825250625610352 A0.3816223740577698 0.3816223740577698 0.0 0 1 9.8908052444458 14.685052871704102 C9.872377395629883 14.605366706848145 9.87798023223877 14.52094841003418 9.87710952758789 14.437776565551758 L9.87710952758789 13.499719619750977 L9.033679962158203 13.499719619750977 C9.033804893493652 13.861296653747559 9.033307075500488 14.223246574401855 9.034177780151367 14.584697723388672 C9.034675598144531 14.63375473022461 9.035423278808594 14.682687759399414 9.037788391113281 14.725893020629883 A0.7601320147514343 0.7601320147514343 0.0 0 0 9.1214599609375 15.045757293701172 A0.4073958992958069 0.4073958992958069 0.0 0 0 9.242483139038086 15.190935134887695 C9.266637802124023 15.209114074707031 9.301376342773438 15.232148170471191 9.337857246398926 15.252070426940918 C9.374214172363281 15.271991729736328 9.412439346313477 15.288925170898438 9.451784133911133 15.302371978759766 C9.491128921508789 15.31581974029541 9.531595230102539 15.326029777526855 9.581024169921875 15.335491180419922 C9.682126998901367 15.354665756225586 9.809250831604004 15.367240905761719 9.925543785095215 15.361886978149414 C9.984685897827148 15.359521865844727 10.04345417022705 15.35342025756836 10.085289001464844 15.347818374633789 C10.164228439331055 15.336986541748047 10.196475982666016 15.326278686523438 10.248645782470703 15.310465812683105 A0.8939799666404724 0.8939799666404724 0.0 0 0 10.444748878479004 15.21982192993164 C10.484467506408691 15.194920539855957 10.521571159362793 15.165535926818848 10.555438041687012 15.132789611816406 C10.589179992675781 15.100168228149414 10.619810104370117 15.063936233520508 10.646455764770508 15.025338172912598 L10.646455764770508 15.308348655700684 L11.491999626159668 15.308348655700684 L11.491999626159668 13.499845504760742 L10.646455764770508 13.499845504760742 C10.645832061767578 13.853327751159668 10.646703720092773 14.206686019897461 10.6449613571167 14.56017017364502 L10.6449613571167 14.56017017364502 M9.505696296691895 11.330511093139648 C9.448920249938965 11.336238861083984 9.392019271850586 11.339226722717285 9.335118293762207 11.339351654052734 C9.278092384338379 11.339351654052734 9.22119140625 11.336736679077148 9.182967185974121 11.33399772644043 C9.111498832702637 11.329141616821289 9.090705871582031 11.323165893554688 9.04812240600586 11.310589790344238 C9.015128135681152 11.299881935119629 8.981386184692383 11.287181854248047 8.950632095336914 11.260786056518555 A0.18514598906040192 0.18514598906040192 0.0 0 1 8.917263984680176 11.222436904907227 C8.87542724609375 11.154081344604492 8.876672744750977 11.05982780456543 8.878416061401367 10.975285530090332 L8.878416061401367 10.164228439331055 L9.505572319030762 10.164228439331055 L9.505572319030762 9.65871810913086 L8.878416061401367 9.65871810913086 L8.878416061401367 8.981760025024414 L7.905745983123779 9.312582015991211 L7.905745983123779 9.65871810913086 L7.342339992523193 9.65871810913086 L7.342339992523193 10.164228439331055 L7.9059953689575195 10.164228439331055 C7.906991481781006 10.474133491516113 7.9027581214904785 10.784037590026855 7.9089837074279785 11.094066619873047 C7.910353183746338 11.145987510681152 7.9120965003967285 11.197783470153809 7.913963794708252 11.240117073059082 C7.91682767868042 11.321920394897461 7.922057151794434 11.378198623657227 7.936500072479248 11.445184707641602 C7.943348407745361 11.47730827331543 7.951815128326416 11.50918197631836 7.9599080085754395 11.533711433410645 A0.37539687752723694 0.37539687752723694 0.0 0 0 8.058395385742188 11.690592765808105 A0.6225486993789673 0.6225486993789673 0.0 0 0 8.140945434570312 11.754093170166016 C8.172944068908691 11.774637222290039 8.20693588256836 11.791695594787598 8.24229621887207 11.804893493652344 C8.27778148651123 11.81809139251709 8.31463623046875 11.827428817749023 8.343398094177246 11.833904266357422 C8.372035026550293 11.840378761291504 8.392579078674316 11.844114303588867 8.412999153137207 11.847599983215332 C8.433418273925781 11.851210594177246 8.453963279724121 11.854697227478027 8.50775146484375 11.860300064086914 C8.561663627624512 11.86602783203125 8.648819923400879 11.873746871948242 8.736226081848145 11.876361846923828 C8.823507308959961 11.878976821899414 8.91103744506836 11.876486778259277 8.989727973937988 11.872501373291016 C9.176118850708008 11.862168312072754 9.334246635437012 11.843865394592285 9.505945205688477 11.829795837402344 L9.505945205688477 11.330511093139648 L9.505696296691895 11.330511093139648 L9.505696296691895 11.330511093139648 M13.357529640197754 14.050053596496582 L13.357529640197754 13.473447799682617 C13.311087608337402 13.47606372833252 13.264646530151367 13.477806091308594 13.2182035446167 13.482911109924316 C13.11336612701416 13.494490623474121 12.96557331085205 13.518895149230957 12.836705207824707 13.595468521118164 A0.6592791080474854 0.6592791080474854 0.0 0 0 12.587437629699707 13.855692863464355 L12.587437629699707 13.499845504760742 L11.744380950927734 13.499845504760742 L11.744380950927734 15.308348655700684 L12.587437629699707 15.308348655700684 C12.587437629699707 15.043392181396484 12.586939811706543 14.778434753417969 12.587935447692871 14.513603210449219 C12.588432312011719 14.411256790161133 12.602005004882812 14.312146186828613 12.681317329406738 14.221378326416016 C12.699496269226074 14.200834274291992 12.722156524658203 14.179917335510254 12.746685028076172 14.161738395690918 C12.811554908752441 14.110939025878906 12.90481185913086 14.085165023803711 12.98063850402832 14.071966171264648 C13.003299713134766 14.06785774230957 13.026334762573242 14.064247131347656 13.063313484191895 14.060636520385742 C13.140883445739746 14.053165435791016 13.257798194885254 14.047562599182129 13.357529640197754 14.050053596496582 L13.357529640197754 14.050053596496582 M12.570379257202148 11.693208694458008 C12.560169219970703 11.584137916564941 12.547221183776855 11.474943161010742 12.544854164123535 11.365373611450195 C12.545103073120117 11.067546844482422 12.550457954406738 10.769720077514648 12.545601844787598 10.472017288208008 A2.0501773357391357 2.0501773357391357 0.0 0 0 12.513727188110352 10.204818725585938 A0.5282948613166809 0.5282948613166809 0.0 0 0 12.494552612304688 10.13135814666748 C12.478739738464355 10.090270042419434 12.470770835876465 10.062752723693848 12.431302070617676 10.006848335266113 C12.410882949829102 9.9783353805542 12.380003929138184 9.939986228942871 12.34526538848877 9.905372619628906 C12.310527801513672 9.870759010314941 12.272054672241211 9.83975601196289 12.230716705322266 9.813360214233398 A1.1146111488342285 1.1146111488342285 0.0 0 0 12.02440357208252 9.713751792907715 A1.2337671518325806 1.2337671518325806 0.0 0 0 11.92330265045166 9.68050765991211 A2.4911909103393555 2.4911909103393555 0.0 0 0 11.48540210723877 9.593974113464355 A3.698437452316284 3.698437452316284 0.0 0 0 11.178982734680176 9.571935653686523 A3.039033889770508 3.039033889770508 0.0 0 0 10.85600471496582 9.580278396606445 C10.748677253723145 9.588869094848633 10.6417236328125 9.603311538696289 10.565149307250977 9.616385459899902 A1.1743758916854858 1.1743758916854858 0.0 0 0 10.396937370300293 9.655980110168457 A1.2280396223068237 1.2280396223068237 0.0 0 0 10.142687797546387 9.769782066345215 A0.5668928623199463 0.5668928623199463 0.0 0 0 9.985307693481445 9.909232139587402 C9.910602569580078 10.005229949951172 9.888439178466797 10.100480079650879 9.876859664916992 10.191994667053223 C9.873124122619629 10.225860595703125 9.87225341796875 10.260101318359375 9.87399673461914 10.294092178344727 L10.839818000793457 10.294092178344727 C10.839445114135742 10.26047420501709 10.842060089111328 10.226981163024902 10.846168518066406 10.193489074707031 C10.850526809692383 10.136837005615234 10.881403923034668 10.062628746032715 10.93631362915039 10.022162437438965 C10.955986022949219 10.006848335266113 10.977899551391602 9.994771003723145 11.009650230407715 9.984312057495117 C11.041399955749512 9.973854064941406 11.08273696899414 9.964887619018555 11.124696731567383 9.96015739440918 C11.20612621307373 9.94957447052002 11.301874160766602 9.96127700805664 11.364004135131836 9.977837562561035 A0.24677830934524536 0.24677830934524536 0.0 0 1 11.477806091308594 10.03685474395752 C11.5110502243042 10.067235946655273 11.527734756469727 10.099109649658203 11.538193702697754 10.12837028503418 C11.550768852233887 10.163980484008789 11.55587387084961 10.187387466430664 11.559734344482422 10.239805221557617 A3.954927444458008 3.954927444458008 0.0 0 1 11.570815086364746 10.461308479309082 C11.397747039794922 10.466663360595703 11.224678039550781 10.47176742553711 11.051858901977539 10.481728553771973 C10.929963111877441 10.488700866699219 10.807944297790527 10.497291564941406 10.715682983398438 10.505509376525879 C10.623420715332031 10.513727188110352 10.560916900634766 10.521571159362793 10.498785972595215 10.532279014587402 C10.379257202148438 10.55207633972168 10.243042945861816 10.589303970336914 10.147171020507812 10.623046875 A0.828985869884491 0.828985869884491 0.0 0 0 10.040216445922852 10.667745590209961 C9.981075286865234 10.699620246887207 9.931644439697266 10.72651481628418 9.865405082702637 10.791757583618164 C9.833032608032227 10.824254035949707 9.795306205749512 10.86845588684082 9.766170501708984 10.918010711669922 C9.737035751342773 10.967565536499023 9.71649169921875 11.022225379943848 9.70541000366211 11.078752517700195 A0.6140820980072021 0.6140820980072021 0.0 0 0 9.733549118041992 11.404719352722168 A0.6468281149864197 0.6468281149864197 0.0 0 0 9.90823745727539 11.662454605102539 C9.94633674621582 11.69644546508789 9.987424850463867 11.724584579467773 10.030505180358887 11.749113082885742 C10.073460578918457 11.773765563964844 10.118409156799316 11.79505729675293 10.164726257324219 11.81236457824707 C10.211169242858887 11.829546928405762 10.258979797363281 11.842743873596191 10.324098587036133 11.855693817138672 C10.389217376708984 11.868517875671387 10.47164249420166 11.88096809387207 10.554566383361816 11.88769245147705 C10.637489318847656 11.894415855407715 10.720787048339844 11.89541244506836 10.803709983825684 11.89043140411377 A2.3133909702301025 2.3133909702301025 0.0 0 0 11.021602630615234 11.8661527633667 C11.074021339416504 11.857686042785645 11.096184730529785 11.851584434509277 11.118097305297852 11.84486198425293 C11.163917541503906 11.830044746398926 11.196165084838867 11.821329116821289 11.25804615020752 11.790326118469238 C11.289796829223633 11.774389266967773 11.332005500793457 11.750856399536133 11.371475219726562 11.723339080810547 C11.410820960998535 11.695822715759277 11.447550773620605 11.664196968078613 11.480918884277344 11.629459381103516 C11.514286994934082 11.594720840454102 11.544419288635254 11.556870460510254 11.570815086364746 11.516529083251953 C11.583141326904297 11.621365547180176 11.593226432800293 11.726078987121582 11.617008209228516 11.830044746398926 L12.596028327941895 11.830044746398926 A3.261657238006592 3.261657238006592 0.0 0 1 12.570379257202148 11.693208694458008 L12.570379257202148 11.693208694458008 M11.568075180053711 10.956483840942383 C11.566083908081055 10.982381820678711 11.562970161437988 11.008155822753906 11.559359550476074 11.033929824829102 A0.595530092716217 0.595530092716217 0.0 0 1 11.494117736816406 11.238000869750977 A0.38187137246131897 0.38187137246131897 0.0 0 1 11.406213760375977 11.342215538024902 C11.296022415161133 11.430368423461914 11.176119804382324 11.452406883239746 11.061944007873535 11.453028678894043 A0.5540683269500732 0.5540683269500732 0.0 0 1 10.948639869689941 11.440951347351074 A0.37178611755371094 0.37178611755371094 0.0 0 1 10.848160743713379 11.403846740722656 C10.748926162719727 11.348191261291504 10.690655708312988 11.251447677612305 10.687045097351074 11.173752784729004 C10.683185577392578 11.124571800231934 10.692025184631348 11.070286750793457 10.722031593322754 11.019734382629395 C10.735603332519531 10.996825218200684 10.753159523010254 10.97628116607666 10.769221305847168 10.959970474243164 A0.3760194182395935 0.3760194182395935 0.0 0 1 10.865218162536621 10.890369415283203 C10.903194427490234 10.870323181152344 10.954367637634277 10.855381965637207 11.009650230407715 10.841935157775879 A1.2002739906311035 1.2002739906311035 0.0 0 1 11.212849617004395 10.811678886413574 C11.309967041015625 10.804208755493164 11.450040817260742 10.798730850219727 11.571187973022461 10.801095962524414 C11.570940017700195 10.85289192199707 11.572558403015137 10.904812812805176 11.568075180053711 10.956483840942383 L11.568075180053711 10.956483840942383" fill="black" fill-opacity="1.0" filling="0"/></svg>