<?xml version="1.0" encoding="iso-8859-1"?><svg height="200px" viewBox="0.0 0.0 24.0 24.0" width="200px" xmlns="http://www.w3.org/2000/svg"><path animation_id="0" d="M3.498340606689453 11.566330909729004 L3.9328784942626953 12.00073528289795 C3.2771663665771484 12.655980110168457 2.62143611907959 13.311205863952637 1.9657058715820312 13.966436386108398 C1.3104658126831055 13.310715675354004 0.6552305221557617 12.654985427856445 0.0 11.999259948730469 L0.0 11.999259948730469 C0.6550111770629883 11.344019889831543 1.3099937438964844 10.688775062561035 1.9650154113769531 10.033563613891602 L2.7108049392700195 10.779071807861328 L24.0 10.779071807861328 L23.78908920288086 11.566330909729004 L22.98756980895996 11.566330909729004 L22.89715576171875 11.903724670410156 L23.211719512939453 11.903724670410156 C23.23033332824707 11.903724670410156 23.24823570251465 11.911128044128418 23.261425018310547 11.924306869506836 A0.07044880837202072 0.07044880837202072 0.0 0 1 23.28199005126953 11.97401237487793 L23.28199005126953 11.974021911621094 C23.28199005126953 11.992660522460938 23.27456283569336 12.010538101196289 23.261425018310547 12.023726463317871 A0.0703631117939949 0.0703631117939949 0.0 0 1 23.211719512939453 12.044303894042969 L22.859498977661133 12.044303894042969 L22.63287353515625 12.890050888061523 C22.63287353515625 12.890050888061523 22.78036880493164 12.804909706115723 22.859403610229492 12.75928020477295 C22.886302947998047 12.743749618530273 22.920677185058594 12.75296688079834 22.936199188232422 12.779862403869629 C22.953384399414062 12.809609413146973 22.975236892700195 12.847516059875488 22.9924259185791 12.87725830078125 C23.007946014404297 12.904158592224121 22.99875831604004 12.938547134399414 22.97185707092285 12.954072952270508 C22.866687774658203 13.01479434967041 22.623016357421875 13.155464172363281 22.564029693603516 13.18953800201416 A0.05639427900314331 0.05639427900314331 0.0 0 1 22.535892486572266 13.197070121765137 L22.102020263671875 13.197070121765137 A0.2811048924922943 0.2811048924922943 0.0 0 1 21.87896728515625 13.087071418762207 A0.2811572551727295 0.2811572551727295 0.0 0 1 21.830402374267578 12.843140602111816 C21.89315414428711 12.60911750793457 21.963855743408203 12.345232963562012 21.963855743408203 12.345232963562012 C21.963855743408203 12.345232963562012 20.380863189697266 13.117318153381348 20.228986740112305 13.191381454467773 A0.056122902780771255 0.056122902780771255 0.0 0 1 20.204322814941406 13.197070121765137 L19.39090347290039 13.197070121765137 C19.373384475708008 13.197070121765137 19.356910705566406 13.188942909240723 19.34624671936035 13.175074577331543 A0.05630382150411606 0.05630382150411606 0.0 0 1 19.33658218383789 13.126283645629883 L19.4436092376709 12.726777076721191 L18.94474983215332 12.908343315124512 C18.94474983215332 12.908343315124512 18.899995803833008 13.075435638427734 18.878570556640625 13.15539264678955 A0.05628953501582146 0.05628953501582146 0.0 0 1 18.824247360229492 13.197070121765137 L18.12566375732422 13.197070121765137 C18.108190536499023 13.197070121765137 18.091670989990234 13.188942909240723 18.081052780151367 13.175074577331543 A0.0561705119907856 0.0561705119907856 0.0 0 1 18.071340560913086 13.126283645629883 C18.119617462158203 12.946041107177734 18.243450164794922 12.483912467956543 18.243450164794922 12.483912467956543 C18.243450164794922 12.483912467956543 17.401084899902344 13.073736190795898 17.279630661010742 13.15878677368164 A0.056265730410814285 0.056265730410814285 0.0 0 1 17.247398376464844 13.168956756591797 L16.54462432861328 13.168956756591797 A0.056275252252817154 0.056275252252817154 0.0 0 1 16.50486946105957 13.152482986450195 C16.46959114074707 13.117218017578125 16.38998794555664 13.037580490112305 16.38998794555664 13.037580490112305 L15.504721641540527 13.14627456665039 A0.281119167804718 0.281119167804718 0.0 0 1 15.258291244506836 13.051664352416992 A0.2811858355998993 0.2811858355998993 0.0 0 1 15.198873519897461 12.794435501098633 C15.26600456237793 12.543963432312012 15.33961009979248 12.269233703613281 15.33961009979248 12.269233703613281 L14.600223541259766 12.269233703613281 C14.346366882324219 12.847554206848145 13.75185775756836 13.195404052734375 13.303845405578613 13.197065353393555 L13.300703048706055 13.197070121765137 L12.389920234680176 13.197070121765137 C12.372447967529297 13.197070121765137 12.355974197387695 13.188942909240723 12.34531021118164 13.175074577331543 A0.0563228614628315 0.0563228614628315 0.0 0 1 12.335597038269043 13.126283645629883 C12.371733665466309 12.9915132522583 12.446813583374023 12.711365699768066 12.446813583374023 12.711365699768066 C12.446813583374023 12.711365699768066 11.738137245178223 13.10417366027832 11.634013175964355 13.161905288696289 A0.05647045373916626 0.05647045373916626 0.0 0 1 11.606732368469238 13.168956756591797 L10.902435302734375 13.168956756591797 C10.887532234191895 13.168956756591797 10.87320327758789 13.163028717041016 10.862632751464844 13.152482986450195 C10.827401161193848 13.117218017578125 10.747749328613281 13.037580490112305 10.747749328613281 13.037580490112305 L9.862533569335938 13.14627456665039 A0.2811620235443115 0.2811620235443115 0.0 0 1 9.61605453491211 13.051664352416992 A0.28116679191589355 0.28116679191589355 0.0 0 1 9.556684494018555 12.794435501098633 C9.617721557617188 12.566506385803223 9.682043075561523 12.326589584350586 9.682043075561523 12.326589584350586 C9.682043075561523 12.326589584350586 8.363906860351562 12.679780960083008 7.996499061584473 12.778233528137207 A0.056218117475509644 0.056218117475509644 0.0 0 1 7.94217586517334 12.763684272766113 A0.056199077516794205 0.056199077516794205 0.0 0 1 7.92760705947876 12.709365844726562 C7.95679235458374 12.600385665893555 8.000974655151367 12.435606956481934 8.000974655151367 12.435606956481934 L7.6905083656311035 12.518787384033203 C7.6905083656311035 12.518787384033203 7.559484958648682 13.007801055908203 7.51992130279541 13.15539264678955 A0.05620383843779564 0.05620383843779564 0.0 0 1 7.465597629547119 13.197070121765137 L6.7670135498046875 13.197070121765137 C6.749540328979492 13.197070121765137 6.733067512512207 13.188942909240723 6.722402572631836 13.175074577331543 A0.0563228614628315 0.0563228614628315 0.0 0 1 6.7126898765563965 13.126283645629883 L6.986067771911621 12.106030464172363 C6.986067771911621 12.106030464172363 5.6547441482543945 13.073298454284668 5.49920129776001 13.186334609985352 A0.05630382150411606 0.05630382150411606 0.0 0 1 5.4661126136779785 13.197070121765137 L5.020242691040039 13.197070121765137 A0.2811048924922943 0.2811048924922943 0.0 0 1 4.797188758850098 13.087071418762207 A0.28102871775627136 0.28102871775627136 0.0 0 1 4.748673915863037 12.843140602111816 L5.090753078460693 11.566330909729004 L3.498340606689453 11.566330909729004 M18.665372848510742 11.913894653320312 A0.056265730410814285 0.056265730410814285 0.0 0 1 18.69760513305664 11.903724670410156 L19.140666961669922 11.903724670410156 C19.158138275146484 11.903724670410156 19.174612045288086 11.911856651306152 19.18527603149414 11.925725936889648 A0.0563228614628315 0.0563228614628315 0.0 0 1 19.194988250732422 11.974512100219727 L19.1224308013916 12.245261192321777 L19.62129020690918 12.063694953918457 C19.62129020690918 12.063694953918457 19.640287399291992 11.992803573608398 19.652997970581055 11.945403099060059 A0.056189555674791336 0.056189555674791336 0.0 0 1 19.707273483276367 11.903724670410156 L20.405906677246094 11.903724670410156 C20.42337989807129 11.903724670410156 20.43985366821289 11.911856651306152 20.450519561767578 11.925725936889648 C20.461135864257812 11.939594268798828 20.464752197265625 11.957624435424805 20.460182189941406 11.974512100219727 C20.39838409423828 12.205230712890625 20.20665740966797 12.920726776123047 20.20665740966797 12.920726776123047 L22.003610610961914 12.044303894042969 L21.69342803955078 12.044303894042969 C21.674766540527344 12.044303894042969 21.656909942626953 12.036900520324707 21.643722534179688 12.023721694946289 A0.07029169797897339 0.07029169797897339 0.0 0 1 21.62310791015625 11.974021911621094 L21.62310791015625 11.974007606506348 C21.62310791015625 11.955368041992188 21.630535125732422 11.937490463256836 21.643722534179688 11.924306869506836 A0.07027740776538849 0.07027740776538849 0.0 0 1 21.69342803955078 11.903724670410156 L22.08211898803711 11.903724670410156 L22.172531127929688 11.566330909729004 L13.56865406036377 11.566330909729004 L13.297418594360352 12.578514099121094 C13.25514030456543 12.737655639648438 13.364215850830078 12.880128860473633 13.510045051574707 12.90507698059082 C13.714055061340332 12.857133865356445 13.969483375549316 12.544434547424316 13.855934143066406 12.216323852539062 A0.11266476660966873 0.11266476660966873 0.0 0 1 13.853458404541016 12.150202751159668 C13.86407470703125 12.109696388244629 13.882356643676758 12.041494369506836 13.896925926208496 11.987080574035645 A0.11250289529561996 0.11250289529561996 0.0 0 1 14.005572319030762 11.903724670410156 L14.639501571655273 11.903724670410156 C14.656355857849121 11.903724670410156 14.672353744506836 11.911299705505371 14.68301773071289 11.924359321594238 A0.05601339787244797 0.05601339787244797 0.0 0 1 14.694587707519531 11.971121788024902 C14.691540718078613 11.98626708984375 14.688254356384277 12.00129222869873 14.684779167175293 12.016189575195312 L15.4074068069458 12.016189575195312 C15.4074068069458 12.016189575195312 15.41778564453125 11.977416038513184 15.426403045654297 11.945403099060059 A0.056189555674791336 0.056189555674791336 0.0 0 1 15.480679512023926 11.903724670410156 L17.52920150756836 11.903724670410156 C17.546676635742188 11.903724670410156 17.56319808959961 11.911856651306152 17.573814392089844 11.925725936889648 C17.5844783782959 11.939594268798828 17.588048934936523 11.957624435424805 17.583526611328125 11.974512100219727 C17.525394439697266 12.191438674926758 17.35366439819336 12.832352638244629 17.35366439819336 12.832352638244629 C17.35366439819336 12.832352638244629 18.521305084228516 12.01478099822998 18.665372848510742 11.913894653320312 L18.665372848510742 11.913894653320312 M12.753615379333496 11.566330909729004 L5.905792236328125 11.566330909729004 L5.5575714111328125 12.865870475769043 C5.5575714111328125 12.865870475769043 6.721973896026611 12.01988410949707 6.867090225219727 11.91446590423584 A0.05623716488480568 0.05623716488480568 0.0 0 1 6.9001312255859375 11.903724670410156 L7.782014846801758 11.903724670410156 C7.799535751342773 11.903724670410156 7.816008567810059 11.911856651306152 7.826625823974609 11.925725936889648 C7.837290287017822 11.939594268798828 7.840860843658447 11.957624435424805 7.836338520050049 11.974512100219727 L7.791347026824951 12.142471313476562 L8.101812362670898 12.059286117553711 L8.132283210754395 11.945403099060059 A0.05628953501582146 0.05628953501582146 0.0 0 1 8.186606407165527 11.903724670410156 L8.885238647460938 11.903724670410156 C8.902711868286133 11.903724670410156 8.919184684753418 11.911856651306152 8.929848670959473 11.925725936889648 C8.94046688079834 11.939594268798828 8.944037437438965 11.957624435424805 8.93951416015625 11.974512100219727 C8.909948348999023 12.084996223449707 8.856101036071777 12.285929679870605 8.856101036071777 12.285929679870605 L9.757648468017578 12.044356346130371 C9.757648468017578 12.044356346130371 9.773073196411133 11.98686695098877 9.78416633605957 11.945403099060059 A0.05624668672680855 0.05624668672680855 0.0 0 1 9.838489532470703 11.903724670410156 L11.887014389038086 11.903724670410156 C11.904486656188965 11.903724670410156 11.92095947265625 11.911856651306152 11.931624412536621 11.925725936889648 A0.0563228614628315 0.0563228614628315 0.0 0 1 11.941336631774902 11.974512100219727 L11.712332725524902 12.829167366027832 L12.537845611572266 12.371576309204102 L12.753615379333496 11.566330909729004 M16.227920532226562 12.213001251220703 L16.08475685119629 12.747211456298828 L16.503250122070312 12.747211456298828 L16.646366119384766 12.213001251220703 L16.227920532226562 12.213001251220703 M10.585731506347656 12.213001251220703 L10.442567825317383 12.747211456298828 L10.861014366149902 12.747211456298828 L11.00417709350586 12.213001251220703 L10.585731506347656 12.213001251220703 M0.8256072998046875 11.434588432312012 L1.1235237121582031 11.434588432312012 L1.1235237121582031 12.565425872802734 L0.8256072998046875 12.565425872802734 L0.8256072998046875 11.434588432312012 M1.3559818267822266 11.434588432312012 L2.0909299850463867 11.434588432312012 L2.0909299850463867 11.677572250366211 L1.6545543670654297 11.677572250366211 L1.6545543670654297 11.875044822692871 L2.027280807495117 11.875044822692871 L2.027280807495117 12.103368759155273 L1.6545543670654297 12.103368759155273 L1.6545543670654297 12.565425872802734 L1.3559856414794922 12.565425872802734 L1.3559818267822266 11.434588432312012 M2.7489795684814453 12.378746032714844 L2.4103755950927734 12.378746032714844 L2.3637847900390625 12.565425872802734 L2.05996036529541 12.565425872802734 L2.4215307235717773 11.434588432312012 L2.745698928833008 11.434588432312012 L3.107269287109375 12.565425872802734 L2.79622745513916 12.565425872802734 L2.7489795684814453 12.378746032714844 M2.686643600463867 12.134220123291016 L2.580338478088379 11.727705001831055 L2.4746875762939453 12.134220123291016 L2.686643600463867 12.134220123291016" fill="black" fill-opacity="1.0" filling="0"/></svg>