<?xml version="1.0" encoding="iso-8859-1"?><svg height="200px" viewBox="0.0 0.0 24.0 24.0" width="200px" xmlns="http://www.w3.org/2000/svg"><path animation_id="0" d="M0.0 0.0 L24.0 0.0 L24.0 24.0 L0.0 24.0 L0.0 0.0" fill="black" fill-opacity="1.0" filling="0"/>
<path animation_id="1" d="M18.917884826660156 15.391022682189941 C18.917884826660156 17.300504684448242 18.1435604095459 19.02521324157715 16.889497756958008 20.272178649902344 C15.635186195373535 21.519515991210938 13.900267601013184 22.28936004638672 11.97957992553711 22.28936004638672 C10.076822280883789 22.28936004638672 8.35024642944336 21.51752471923828 7.100292682647705 20.267322540283203 C5.854074478149414 19.02073097229004 5.081865310668945 17.298015594482422 5.081865310668945 15.391022682189941 L5.081865310668945 1.710515022277832 L18.917762756347656 1.710515022277832 L18.917762756347656 15.391022682189941 L18.917884826660156 15.391022682189941 M16.722780227661133 20.108074188232422 C17.93500518798828 18.902570724487305 18.68355941772461 17.236133575439453 18.68355941772461 15.391022682189941 L18.68355941772461 1.9427251815795898 L5.316566467285156 1.9427251815795898 L5.316566467285156 15.391022682189941 C5.316566467285156 17.2338924407959 6.06325101852417 18.89896011352539 7.268131732940674 20.10421371459961 C8.475378036499023 21.311586380004883 10.142563819885254 22.057273864746094 11.979704856872559 22.057273864746094 C13.83489990234375 22.057147979736328 15.510676383972168 21.31332778930664 16.722780227661133 20.108074188232422" fill="black" fill-opacity="1.0" filling="0"/>
<path animation_id="2" d="M6.295461654663086 14.220382690429688 L6.173815727233887 14.099234580993652 L6.660898208618164 14.099234580993652 L6.782793045043945 13.897403717041016 L6.985743522644043 13.897403717041016 L6.985743522644043 13.170764923095703 L7.59472131729126 13.170764923095703 L7.757205963134766 13.77638053894043 L7.878976345062256 13.77638053894043 L7.878976345062256 13.413061141967773 L7.9601569175720215 13.291913032531738 L7.9601569175720215 12.686422348022461 L7.878976345062256 12.686422348022461 L7.878976345062256 12.605615615844727 L8.366183280944824 12.605615615844727 L8.366183280944824 12.686422348022461 L8.20382308959961 12.686422348022461 L8.20382308959961 13.291913032531738 L8.69102954864502 13.413061141967773 L8.69102954864502 14.220382690429688 L11.452032089233398 14.220382690429688 L11.452032089233398 12.605615615844727 L11.65485954284668 12.605615615844727 L11.65485954284668 14.220382690429688 L16.12114906311035 14.220382690429688 L16.12114906311035 12.605615615844727 L16.283510208129883 12.605615615844727 L16.283510208129883 14.058893203735352 L17.826309204101562 14.058893203735352 L17.42015838623047 14.704849243164062 L17.42015838623047 15.027703285217285 L17.582643508911133 15.027703285217285 L6.539127349853516 15.027703285217285 L6.457947254180908 14.9873628616333 L6.295461654663086 14.50289535522461 L6.295461654663086 14.220382690429688 L6.295461654663086 14.220382690429688" fill="black" fill-opacity="1.0" filling="0"/>
<path animation_id="3" d="M18.23221206665039 6.18664026260376 L18.23221206665039 15.552513122558594 C18.15127944946289 12.161614418029785 15.390400886535645 9.456639289855957 11.979704856872559 9.456639289855957 C8.609848976135254 9.456639289855957 5.808379650115967 12.161614418029785 5.767789840698242 15.552513122558594 L5.767789840698242 6.18664026260376 L18.23221206665039 6.18664026260376" fill="black" fill-opacity="1.0" filling="0"/>
<path animation_id="4" d="M11.979704856872559 21.527484893798828 C8.569133758544922 21.527484893798828 5.767789840698242 18.782169342041016 5.767789840698242 15.391022682189941 L18.23221206665039 15.391022682189941 C18.191495895385742 18.78229522705078 15.430990219116211 21.527484893798828 11.979704856872559 21.527484893798828 L11.979704856872559 21.527484893798828" fill="black" fill-opacity="1.0" filling="0"/>
<path animation_id="5" d="M11.979704856872559 15.310340881347656 L11.979704856872559 20.27591323852539 M10.80234146118164 20.558425903320312 C9.949698448181152 19.42812728881836 9.056465148925781 17.20762062072754 8.893980026245117 15.310340881347656 M13.197784423828125 20.558425903320312 C14.050426483154297 19.42812728881836 14.943534851074219 17.20762062072754 15.106019973754883 15.310340881347656 M6.2144060134887695 18.13633918762207 C7.59472131729126 17.409700393676758 9.624977111816406 16.9656982421875 11.89852523803711 16.9656982421875 C14.294092178344727 16.9656982421875 16.40540313720703 17.450164794921875 17.745128631591797 18.217145919799805 M7.554131031036377 20.154766082763672 C8.528544425964355 19.266639709472656 10.111933708190918 18.701488494873047 11.938990592956543 18.701488494873047 C13.806636810302734 18.701488494873047 15.471456527709961 19.306978225708008 16.445619583129883 20.23544692993164 M9.381187438964844 21.36612319946289 C9.868393898010254 20.80097198486328 10.842930793762207 20.397062301635742 11.979704856872559 20.397062301635742 C13.157193183898926 20.397062301635742 14.131607055664062 20.80097198486328 14.659278869628906 21.406461715698242" fill="none" filling="0" stroke="black" stroke-opacity="1.0" stroke-width=".3"/>
<path animation_id="6" d="M15.106019973754883 2.3918323516845703 L15.106019973754883 5.702172756195068 L16.202327728271484 5.702172756195068 L16.202327728271484 3.199277877807617 L17.136150360107422 3.199277877807617 L17.136150360107422 5.702172756195068 L18.23221206665039 5.702172756195068 L18.23221206665039 2.3918323516845703 L15.106019973754883 2.3918323516845703 L15.106019973754883 2.3918323516845703 M5.767789840698242 5.702172756195068 L6.9045634269714355 5.702172756195068 L6.9045634269714355 3.199277877807617 L7.878976345062256 3.199277877807617 L7.878976345062256 5.702172756195068 L8.9345703125 5.702172756195068 L8.9345703125 2.3918323516845703 L5.767789840698242 2.3918323516845703 L5.767789840698242 5.702172756195068 M13.157193183898926 2.3918323516845703 L14.172197341918945 2.3918323516845703 L14.172197341918945 5.702172756195068 L12.994708061218262 5.702172756195068 L12.994708061218262 4.289361000061035 L12.061009407043457 5.702172756195068 L11.12706184387207 4.289361000061035 L11.12706184387207 5.702172756195068 L9.90898323059082 5.702172756195068 L9.90898323059082 2.3918323516845703 L10.883522033691406 2.3918323516845703 L12.061009407043457 4.289361000061035 L13.157193183898926 2.3918323516845703" fill="black" fill-opacity="1.0" filling="0"/></svg>