<?xml version="1.0" encoding="iso-8859-1"?><svg height="200px" viewBox="0.0 0.0 24.0 24.0" width="200px" xmlns="http://www.w3.org/2000/svg"><path animation_id="0" d="M2.781085968017578 9.400784492492676 C3.166632652282715 9.23923110961914 3.646334648132324 9.35915756225586 3.906008720397949 9.68721866607666 C4.022961139678955 9.830930709838867 4.101259231567383 10.010324478149414 4.113152980804443 10.195663452148438 C4.115135192871094 10.313607215881348 3.9664669036865234 10.390914916992188 3.8693370819091797 10.32550048828125 C3.79202938079834 10.291802406311035 3.7969846725463867 10.193681716918945 3.77121639251709 10.126285552978516 C3.708775520324707 9.874540328979492 3.4748706817626953 9.680280685424805 3.218170166015625 9.656494140625 C2.983274459838867 9.628742218017578 2.741440773010254 9.745695114135742 2.6106138229370117 9.940945625305176 C2.485732078552246 10.122321128845215 2.4678916931152344 10.370100975036621 2.5630388259887695 10.569316864013672 C2.671072006225586 10.803220748901367 2.9297542572021484 10.959817886352539 3.188436508178711 10.939004898071289 C3.3291759490966797 10.94296932220459 3.4451370239257812 10.853768348693848 3.5749740600585938 10.81511402130127 C3.7176952362060547 10.80421257019043 3.799959182739258 10.994507789611816 3.698863983154297 11.090645790100098 C3.354945182800293 11.343381881713867 2.8405532836914062 11.313648223876953 2.519430160522461 11.036134719848633 C2.3469743728637695 10.895395278930664 2.240924835205078 10.69023323059082 2.189387321472168 10.476150512695312 C1.8107776641845703 10.600041389465332 1.4827165603637695 10.864670753479004 1.2854833602905273 11.210572242736816 C1.4004545211791992 11.342391014099121 1.4658679962158203 11.530704498291016 1.3945074081420898 11.700185775756836 C1.3181915283203125 11.94201946258545 1.012925148010254 12.060954093933105 0.7879409790039062 11.954903602600098 C0.555027961730957 11.861738204956055 0.45294189453125 11.555481910705566 0.5738592147827148 11.33842658996582 C0.6462106704711914 11.182820320129395 0.8156929016113281 11.109477996826172 0.9772453308105469 11.090645790100098 C1.2279996871948242 10.625810623168945 1.6730127334594727 10.274953842163086 2.1844310760498047 10.143134117126465 C2.2478628158569336 9.816064834594727 2.4688825607299805 9.522692680358887 2.781085968017578 9.400784492492676 L2.781085968017578 9.400784492492676 M4.1973981857299805 12.055006980895996 C4.466983318328857 11.904356956481934 4.844600200653076 12.110509872436523 4.8505473136901855 12.422713279724121 C4.881271839141846 12.683378219604492 4.647367477416992 12.903407096862793 4.394631385803223 12.90836238861084 C4.139913558959961 13.369234085083008 3.699854850769043 13.723064422607422 3.1904191970825195 13.860830307006836 C3.1329336166381836 14.16807746887207 2.9347095489501953 14.446582794189453 2.6462936401367188 14.575428009033203 C2.255791664123535 14.769688606262207 1.743382453918457 14.656700134277344 1.4728059768676758 14.314764022827148 C1.3558540344238281 14.170059204101562 1.2706165313720703 13.990666389465332 1.2656612396240234 13.802353858947754 C1.2557497024536133 13.646747589111328 1.4926280975341797 13.59719181060791 1.562006950378418 13.727028846740723 C1.6036348342895508 13.839025497436523 1.617508888244629 13.962915420532227 1.690852165222168 14.061036109924316 C1.8504228591918945 14.30286979675293 2.18145751953125 14.412884712219238 2.4530248641967773 14.304852485656738 C2.736485481262207 14.203758239746094 2.9277725219726562 13.886598587036133 2.865330696105957 13.589262962341309 C2.813793182373047 13.279041290283203 2.510509490966797 13.037208557128906 2.195333480834961 13.060004234313965 C2.053603172302246 13.054057121276855 1.9366512298583984 13.145240783691406 1.8058223724365234 13.181912422180176 C1.6482353210449219 13.206689834594727 1.5699357986450195 12.967829704284668 1.7027463912963867 12.889531135559082 C2.056576728820801 12.652652740478516 2.565021514892578 12.694280624389648 2.878215789794922 12.982696533203125 C3.0387773513793945 13.122445106506348 3.136898994445801 13.318686485290527 3.1864547729492188 13.523848533630371 C3.5650634765625 13.396985054016113 3.88916015625 13.129382133483887 4.0893659591674805 12.784472465515137 C3.876275062561035 12.57831859588623 3.9228572845458984 12.182861328125 4.1973981857299805 12.055006980895996 L4.1973981857299805 12.055006980895996" fill="black" fill-opacity="1.0" filling="0"/>
<path animation_id="1" d="M2.7037782669067383 10.232335090637207 C2.734503746032715 9.96473217010498 3.0387773513793945 9.780384063720703 3.291513442993164 9.87255859375 C3.4808177947998047 9.928060531616211 3.59578800201416 10.11538314819336 3.6076812744140625 10.305678367614746 C4.062605857849121 10.557422637939453 4.418417930603027 10.988560676574707 4.55023717880249 11.494032859802246 C4.782159805297852 11.539624214172363 5.004171371459961 11.65261173248291 5.153830051422119 11.83795166015625 C5.394672393798828 12.123394012451172 5.442246437072754 12.552550315856934 5.2737555503845215 12.885566711425781 C5.149865627288818 13.13830280303955 4.909023284912109 13.329588890075684 4.635473728179932 13.395003318786621 C4.565104007720947 13.41185188293457 4.4828410148620605 13.430683135986328 4.418417930603027 13.386082649230957 C4.331199645996094 13.326615333557129 4.328226566314697 13.183894157409668 4.412471771240234 13.122445106506348 C4.499690055847168 13.084781646728516 4.596819877624512 13.074871063232422 4.683047771453857 13.034235000610352 C4.91100549697876 12.926202774047852 5.063638210296631 12.677431106567383 5.050753593444824 12.423704147338867 C5.038860321044922 12.110509872436523 4.7722487449646 11.83200454711914 4.458063125610352 11.814164161682129 C4.196407318115234 11.786413192749023 3.9307861328125 11.939045906066895 3.818789482116699 12.175924301147461 C3.743464469909668 12.335494041442871 3.727606773376465 12.528762817382812 3.8049144744873047 12.690316200256348 C3.845550537109375 12.77357006072998 3.880239486694336 12.859797477722168 3.880239486694336 12.953953742980957 C3.8118515014648438 13.034235000610352 3.6830062866210938 13.085773468017578 3.599752426147461 12.994589805603027 C3.331157684326172 12.627875328063965 3.3916168212890625 12.067891120910645 3.723642349243164 11.759653091430664 C3.8574438095092773 11.62585163116455 4.033863067626953 11.548543930053711 4.213255882263184 11.500970840454102 C4.0893659591674805 11.136238098144531 3.836629867553711 10.809167861938477 3.496675491333008 10.62283706665039 C3.37972354888916 10.656535148620605 3.2796201705932617 10.759612083435059 3.1468095779418945 10.742762565612793 C2.8821802139282227 10.750691413879395 2.657196044921875 10.493000030517578 2.7037782669067383 10.232335090637207 M0.7383852005004883 10.605987548828125 C0.8374977111816406 10.56832504272461 0.9822006225585938 10.577245712280273 1.0168895721435547 10.698162078857422 C1.0595083236694336 10.806194305419922 0.9623785018920898 10.90233325958252 0.8593015670776367 10.91224479675293 C0.5629568099975586 10.962791442871094 0.3231048583984375 11.237332344055176 0.3250885009765625 11.539624214172363 C0.31418514251708984 11.879578590393066 0.6144952774047852 12.18880844116211 0.9544496536254883 12.187817573547363 C1.3062982559204102 12.208630561828613 1.632375717163086 11.891471862792969 1.619492530822754 11.539624214172363 C1.6284122467041016 11.396903038024902 1.5511045455932617 11.273012161254883 1.4995670318603516 11.145157814025879 C1.4569482803344727 10.992525100708008 1.675985336303711 10.885483741760254 1.7760887145996094 11.003427505493164 C2.012967109680176 11.32851505279541 1.9961185455322266 11.806235313415527 1.7532939910888672 12.124385833740234 C1.6085901260375977 12.319636344909668 1.3875694274902344 12.44550895690918 1.153665542602539 12.498038291931152 C1.2795372009277344 12.873673439025879 1.5441675186157227 13.19182300567627 1.8821392059326172 13.395003318786621 C2.0169315338134766 13.286970138549805 2.1983070373535156 13.214618682861328 2.368779182434082 13.278050422668457 C2.6344003677368164 13.356348991394043 2.7602720260620117 13.703241348266602 2.6106138229370117 13.936155319213867 C2.475820541381836 14.170059204101562 2.121990203857422 14.222589492797852 1.9257478713989258 14.038240432739258 C1.8246536254882812 13.954986572265625 1.7860002517700195 13.826141357421875 1.7711334228515625 13.70125961303711 C1.3062982559204102 13.453478813171387 0.9504852294921875 13.014411926269531 0.8147010803222656 12.503984451293945 C0.5877351760864258 12.457402229309082 0.3716707229614258 12.346396446228027 0.22399330139160156 12.164030075073242 C0.01684856414794922 11.91922378540039 -0.05451202392578125 11.567375183105469 0.042618751525878906 11.26111888885498 C0.13677501678466797 10.939004898071289 0.4132966995239258 10.683295249938965 0.7383852005004883 10.605987548828125 L0.7383852005004883 10.605987548828125 M15.776667594909668 11.186784744262695 C15.897583961486816 11.18579387664795 16.01850128173828 11.18579387664795 16.13941764831543 11.18579387664795 C16.13941764831543 11.368160247802734 16.13941764831543 11.551517486572266 16.13941764831543 11.73388385772705 C16.230600357055664 11.73388385772705 16.32178497314453 11.73388385772705 16.412967681884766 11.73388385772705 C16.412967681884766 11.845880508422852 16.413957595825195 11.957877159118652 16.412967681884766 12.069873809814453 C16.32178497314453 12.069873809814453 16.230600357055664 12.069873809814453 16.13941764831543 12.0708646774292 C16.137435913085938 12.46632194519043 16.141399383544922 12.861780166625977 16.137435913085938 13.257237434387207 C16.016517639160156 13.257237434387207 15.89659309387207 13.256246566772461 15.775675773620605 13.254263877868652 C15.776667594909668 12.859797477722168 15.775675773620605 12.465331077575684 15.776667594909668 12.0708646774292 C15.726119995117188 12.069873809814453 15.676563262939453 12.069873809814453 15.626016616821289 12.069873809814453 C15.626016616821289 11.957877159118652 15.626016616821289 11.845880508422852 15.626016616821289 11.73388385772705 C15.675573348999023 11.734874725341797 15.724138259887695 11.73586654663086 15.773694038391113 11.736857414245605 C15.779640197753906 11.553499221801758 15.776667594909668 11.370141983032227 15.776667594909668 11.186784744262695 L15.776667594909668 11.186784744262695 M19.1048526763916 11.18579387664795 C19.224777221679688 11.18579387664795 19.34569549560547 11.18579387664795 19.466611862182617 11.18579387664795 C19.467601776123047 11.368160247802734 19.466611862182617 11.551517486572266 19.467601776123047 11.73388385772705 C19.557796478271484 11.73388385772705 19.648977279663086 11.73388385772705 19.74015998840332 11.734874725341797 C19.74015998840332 11.846871376037598 19.74015998840332 11.958868026733398 19.74015998840332 12.0708646774292 C19.648977279663086 12.0708646774292 19.557796478271484 12.071856498718262 19.466611862182617 12.071856498718262 C19.465620040893555 12.467313766479492 19.467601776123047 12.862771034240723 19.465620040893555 13.257237434387207 C19.344703674316406 13.258228302001953 19.223787307739258 13.258228302001953 19.10287094116211 13.254263877868652 C19.10584259033203 12.860788345336914 19.10287094116211 12.46632194519043 19.1048526763916 12.072847366333008 C19.054306030273438 12.071856498718262 19.00375747680664 12.069873809814453 18.953210830688477 12.068882942199707 C18.953210830688477 11.956886291503906 18.953210830688477 11.845880508422852 18.95420265197754 11.73388385772705 C19.00375747680664 11.73388385772705 19.054306030273438 11.73388385772705 19.10386085510254 11.73388385772705 C19.1048526763916 11.551517486572266 19.10386085510254 11.36915111541748 19.1048526763916 11.18579387664795 M6.182613849639893 11.917241096496582 C6.4472432136535645 11.660540580749512 6.880363464355469 11.632789611816406 7.196530818939209 11.80722713470459 C7.191575050354004 11.966797828674316 7.192566871643066 12.127358436584473 7.194549083709717 12.2869291305542 C7.066694259643555 12.123394012451172 6.873425483703613 11.975717544555664 6.6533966064453125 12.033202171325684 C6.3580427169799805 12.085731506347656 6.219285488128662 12.446499824523926 6.335247039794922 12.70617389678955 C6.406607627868652 12.899442672729492 6.627627372741699 13.013421058654785 6.827834129333496 12.971794128417969 C6.984431266784668 12.94899845123291 7.09246301651001 12.823125839233398 7.194549083709717 12.715093612670898 C7.1935577392578125 12.873673439025879 7.192566871643066 13.031261444091797 7.196530818939209 13.188849449157715 C6.989387035369873 13.304811477661133 6.7396240234375 13.332562446594238 6.511666297912598 13.274085998535156 C6.2064008712768555 13.19578742980957 5.957629203796387 12.917282104492188 5.932851314544678 12.600123405456543 C5.9011359214782715 12.349370002746582 5.992318630218506 12.085731506347656 6.182613849639893 11.917241096496582 L6.182613849639893 11.917241096496582 M8.260994911193848 11.73388385772705 C8.393805503845215 11.695230484008789 8.534543991088867 11.688292503356934 8.671319961547852 11.709105491638184 C8.989469528198242 11.75667953491211 9.266983032226562 12.01734447479248 9.323476791381836 12.336485862731934 C9.35717487335205 12.539665222167969 9.333388328552246 12.75969409942627 9.21841812133789 12.934131622314453 C9.059839248657227 13.187858581542969 8.753582000732422 13.328598022460938 8.457237243652344 13.300846099853516 C8.178731918334961 13.296881675720215 7.924014091491699 13.11847972869873 7.794177532196045 12.876646041870117 C7.697047233581543 12.688333511352539 7.682180404663086 12.463349342346191 7.736691951751709 12.26016902923584 C7.812017440795898 12.014370918273926 8.01618766784668 11.812182426452637 8.260994911193848 11.73388385772705 M8.361098289489746 12.049059867858887 C8.065744400024414 12.153127670288086 7.9993391036987305 12.554532051086426 8.157918930053711 12.796365737915039 C8.317489624023438 13.044145584106445 8.736733436584473 13.039190292358398 8.893330574035645 12.789427757263184 C9.007308959960938 12.602106094360352 8.999380111694336 12.339459419250488 8.858640670776367 12.167003631591797 C8.739706993103027 12.026264190673828 8.52958869934082 11.994548797607422 8.361098289489746 12.049059867858887 M10.313607215881348 11.862730026245117 C10.521742820739746 11.674416542053223 10.862688064575195 11.63179874420166 11.089654922485352 11.812182426452637 C11.244270324707031 11.930126190185547 11.270038604736328 12.139252662658691 11.2730131149292 12.320627212524414 C11.274003982543945 12.632830619812012 11.2730131149292 12.94503402709961 11.2730131149292 13.257237434387207 C11.153087615966797 13.257237434387207 11.032170295715332 13.258228302001953 10.91224479675293 13.258228302001953 C10.908279418945312 12.980713844299316 10.91224479675293 12.70220947265625 10.911253929138184 12.424695014953613 C10.90629768371582 12.321619033813477 10.90629768371582 12.211604118347168 10.854759216308594 12.120421409606934 C10.774478912353516 12.005451202392578 10.606978416442871 12.006442070007324 10.489036560058594 12.051042556762695 C10.351269721984863 12.109519004821777 10.332438468933105 12.277018547058105 10.320545196533203 12.406855583190918 C10.312616348266602 12.690316200256348 10.31955337524414 12.973776817321777 10.317571640014648 13.257237434387207 C10.197646141052246 13.257237434387207 10.077720642089844 13.258228302001953 9.957795143127441 13.260210037231445 C9.950857162475586 12.750774383544922 9.951848030090332 12.241337776184082 9.957795143127441 11.732892990112305 C10.077720642089844 11.734874725341797 10.198637008666992 11.73586654663086 10.318562507629395 11.73586654663086 C10.317571640014648 11.76659107208252 10.315589904785156 11.831013679504395 10.313607215881348 11.862730026245117 L10.313607215881348 11.862730026245117 M11.9212064743042 12.245302200317383 C11.975717544555664 11.997522354125977 12.170968055725098 11.779475212097168 12.421722412109375 11.720999717712402 C12.68238639831543 11.661532402038574 12.994589805603027 11.707123756408691 13.17497444152832 11.920214653015137 C13.336526870727539 12.100598335266113 13.363287925720215 12.352343559265137 13.363287925720215 12.583274841308594 C12.996572494506836 12.585256576538086 12.628866195678711 12.581292152404785 12.262150764465332 12.586248397827148 C12.284947395324707 12.673466682434082 12.301795959472656 12.767622947692871 12.360272407531738 12.838984489440918 C12.478216171264648 12.991616249084473 12.720049858093262 13.023332595825195 12.87763786315918 12.91430950164795 C12.956928253173828 12.853851318359375 13.01044750213623 12.767622947692871 13.068923950195312 12.688333511352539 C13.172000885009766 12.744827270507812 13.276068687438965 12.802312850952148 13.378154754638672 12.860788345336914 C13.264175415039062 13.046128273010254 13.106587409973145 13.22254753112793 12.886557579040527 13.276068687438965 C12.626884460449219 13.334545135498047 12.32161808013916 13.306793212890625 12.123394012451172 13.111542701721191 C11.892463684082031 12.894487380981445 11.851827621459961 12.540656089782715 11.9212064743042 12.245302200317383 M12.284947395324707 12.289902687072754 C12.520834922790527 12.291885375976562 12.756720542907715 12.293867111206055 12.992608070373535 12.288911819458008 C12.942061424255371 12.151145935058594 12.8310546875 12.022299766540527 12.672475814819336 12.025273323059082 C12.495064735412598 11.999504089355469 12.345405578613281 12.133305549621582 12.284947395324707 12.289902687072754 M14.158166885375977 11.930126190185547 C14.418831825256348 11.66252326965332 14.850960731506348 11.637744903564453 15.176047325134277 11.79731559753418 C15.176047325134277 11.958868026733398 15.176047325134277 12.120421409606934 15.177040100097656 12.281973838806152 C15.070988655090332 12.155110359191895 14.938178062438965 12.020318031311035 14.759777069091797 12.024282455444336 C14.525872230529785 12.004460334777832 14.31278133392334 12.19871997833252 14.288993835449219 12.426677703857422 C14.240429878234863 12.677431106567383 14.422795295715332 12.960891723632812 14.688416481018066 12.97575855255127 C14.893577575683594 13.008465766906738 15.05909538269043 12.859797477722168 15.179021835327148 12.713111877441406 C15.177040100097656 12.874664306640625 15.178030014038086 13.036216735839844 15.177040100097656 13.198760986328125 C14.864836692810059 13.355358123779297 14.4555025100708 13.342473983764648 14.186908721923828 13.105595588684082 C13.836051940917969 12.822134971618652 13.825149536132812 12.230435371398926 14.158166885375977 11.930126190185547 L14.158166885375977 11.930126190185547 M17.07305335998535 11.907330513000488 C17.319843292236328 11.63179874420166 17.78765106201172 11.630806922912598 18.04336166381836 11.896428108215332 C18.04336166381836 11.842906951904297 18.04336166381836 11.788395881652832 18.04336166381836 11.734874725341797 C18.164278030395508 11.734874725341797 18.28618621826172 11.73388385772705 18.407102584838867 11.734874725341797 C18.406112670898438 12.242328643798828 18.407102584838867 12.749783515930176 18.407102584838867 13.257237434387207 C18.28618621826172 13.257237434387207 18.16526985168457 13.257237434387207 18.044353485107422 13.256246566772461 C18.044353485107422 13.220565795898438 18.04336166381836 13.150196075439453 18.04336166381836 13.11451530456543 C17.906585693359375 13.227503776550293 17.74007797241211 13.318686485290527 17.556720733642578 13.301837921142578 C17.244518280029297 13.310757637023926 16.97096824645996 13.06694221496582 16.891679763793945 12.77357006072998 C16.812389373779297 12.48019790649414 16.852035522460938 12.13132381439209 17.07305335998535 11.907330513000488 M17.49626350402832 12.04806900024414 C17.184059143066406 12.174932479858398 17.130538940429688 12.638777732849121 17.361469268798828 12.865743637084961 C17.512121200561523 13.02630615234375 17.800537109375 13.012430191040039 17.94325828552246 12.84691333770752 C18.106792449951172 12.662564277648926 18.105802536010742 12.358290672302246 17.954160690307617 12.167003631591797 C17.849102020263672 12.032211303710938 17.65285873413086 11.99256706237793 17.49626350402832 12.04806900024414 M20.2773494720459 12.069873809814453 C20.491432189941406 11.609993934631348 21.226842880249023 11.564401626586914 21.510303497314453 11.97670841217041 C21.63617706298828 12.15213680267334 21.653024673461914 12.375139236450195 21.654016494750977 12.583274841308594 C21.287302017211914 12.58426570892334 20.92058563232422 12.583274841308594 20.553871154785156 12.58426570892334 C20.572702407836914 12.670493125915527 20.591535568237305 12.762667655944824 20.648029327392578 12.835020065307617 C20.762996673583984 12.98963451385498 21.005821228027344 13.024323463439941 21.16440200805664 12.917282104492188 C21.24567413330078 12.855833053588867 21.302169799804688 12.76960563659668 21.364608764648438 12.690316200256348 C21.4657039642334 12.748791694641113 21.566797256469727 12.80429458618164 21.669872283935547 12.860788345336914 C21.557878494262695 13.039190292358398 21.410200119018555 13.212636947631836 21.1990909576416 13.271112442016602 C20.9334716796875 13.34049129486084 20.61532211303711 13.311748504638672 20.412139892578125 13.110550880432129 C20.14255714416504 12.844930648803711 20.12273406982422 12.398926734924316 20.2773494720459 12.069873809814453 M20.57765769958496 12.289902687072754 C20.81255340576172 12.292876243591309 21.04745101928711 12.292876243591309 21.282344818115234 12.289902687072754 C21.235763549804688 12.146190643310547 21.11682891845703 12.016353607177734 20.955276489257812 12.024282455444336 C20.77885627746582 12.00346851348877 20.63613510131836 12.136279106140137 20.57765769958496 12.289902687072754" fill="black" fill-opacity="1.0" filling="0"/>
<path animation_id="2" d="M12.884575843811035 10.760602951049805 C12.999545097351074 10.818087577819824 13.11451530456543 10.876564025878906 13.227503776550293 10.93702220916748 C13.034235000610352 11.11245059967041 12.842948913574219 11.288870811462402 12.64472484588623 11.457361221313477 C12.580302238464355 11.41573429107666 12.514886856079102 11.374107360839844 12.44947338104248 11.333471298217773 C12.594176292419434 11.14317512512207 12.740862846374512 10.951889038085938 12.884575843811035 10.760602951049805 L12.884575843811035 10.760602951049805 M14.71418571472168 14.161139488220215 C14.706256866455078 13.993639945983887 14.882676124572754 13.863802909851074 15.041254997253418 13.906421661376953 C15.11658000946045 13.903448104858398 15.110633850097656 13.980755805969238 15.125500679016113 14.033285140991211 C15.04819393157959 13.990666389465332 14.941152572631836 13.94804859161377 14.86681842803955 14.0194091796875 C14.758785247802734 14.097707748413086 14.784554481506348 14.283047676086426 14.90943717956543 14.328639030456543 C14.982778549194336 14.367292404174805 15.057112693786621 14.314764022827148 15.124509811401367 14.289985656738281 C15.10964298248291 14.3395414352417 15.11955451965332 14.417840003967285 15.045219421386719 14.412884712219238 C14.886640548706055 14.460458755493164 14.703283309936523 14.329629898071289 14.71418571472168 14.161139488220215 M15.657733917236328 13.930208206176758 C15.847037315368652 13.814247131347656 16.11265754699707 14.016435623168945 16.040306091308594 14.22952651977539 C16.001651763916016 14.421804428100586 15.72711181640625 14.485236167907715 15.596282958984375 14.3474702835083 C15.469420433044434 14.233491897583008 15.509065628051758 14.006525039672852 15.657733917236328 13.930208206176758 M15.72116470336914 13.989675521850586 C15.597273826599121 14.037249565124512 15.563576698303223 14.224571228027344 15.675573348999023 14.301878929138184 C15.780631065368652 14.40495491027832 15.977865219116211 14.299896240234375 15.9639892578125 14.157175064086914 C15.970927238464355 14.036258697509766 15.83117961883545 13.945075035095215 15.72116470336914 13.989675521850586 M20.67181396484375 13.909395217895508 C20.69163703918457 13.910386085510254 20.73029327392578 13.911376953125 20.75011444091797 13.911376953125 C20.7511043548584 14.079867362976074 20.7511043548584 14.247367858886719 20.75011444091797 14.415858268737793 C20.73029327392578 14.415858268737793 20.689655303955078 14.416849136352539 20.66983413696289 14.416849136352539 C20.67181396484375 14.247367858886719 20.66983413696289 14.078876495361328 20.67181396484375 13.909395217895508 L20.67181396484375 13.909395217895508" fill="black" fill-opacity="1.0" filling="0"/>
<path animation_id="3" d="M12.503984451293945 14.421804428100586 C12.583274841308594 14.2354736328125 12.673466682434082 14.054098129272461 12.757711410522461 13.87074089050293 C12.84096622467041 14.054098129272461 12.926202774047852 14.237456321716309 13.006484031677246 14.421804428100586 C12.91430950164795 14.440635681152344 12.883584976196289 14.362337112426758 12.852860450744629 14.294940948486328 C12.7894287109375 14.292959213256836 12.725996017456055 14.290976524353027 12.663555145263672 14.289985656738281 C12.624902725219727 14.35341739654541 12.597150802612305 14.440635681152344 12.503984451293945 14.421804428100586 M12.756720542907715 14.063018798828125 C12.734916687011719 14.112574577331543 12.71311092376709 14.162130355834961 12.69229793548584 14.211687088012695 C12.725005149841309 14.211687088012695 12.7894287109375 14.211687088012695 12.821144104003906 14.211687088012695 C12.799339294433594 14.162130355834961 12.777534484863281 14.112574577331543 12.756720542907715 14.063018798828125 L12.756720542907715 14.063018798828125 M19.140533447265625 13.910386085510254 C19.163328170776367 13.910386085510254 19.207929611206055 13.911376953125 19.229732513427734 13.911376953125 C19.228742599487305 14.078876495361328 19.228742599487305 14.247367858886719 19.229732513427734 14.415858268737793 C19.206937789916992 14.415858268737793 19.162338256835938 14.415858268737793 19.140533447265625 14.415858268737793 C19.140533447265625 14.247367858886719 19.140533447265625 14.078876495361328 19.140533447265625 13.910386085510254" fill="black" fill-opacity="1.0" filling="0"/>
<path animation_id="4" d="M19.7788143157959 13.863802909851074 C19.837291717529297 13.991658210754395 19.893783569335938 14.120503425598145 19.951271057128906 14.249349594116211 C20.006771087646484 14.120503425598145 20.066238403320312 13.99264907836914 20.128681182861328 13.865785598754883 C20.16436004638672 14.052116394042969 20.19805908203125 14.238447189331055 20.226802825927734 14.426759719848633 C20.20598793029785 14.421804428100586 20.16436004638672 14.412884712219238 20.14354705810547 14.408920288085938 C20.118770599365234 14.315754890441895 20.107868194580078 14.220606803894043 20.092008590698242 14.126450538635254 C20.047409057617188 14.232500076293945 19.998844146728516 14.338550567626953 19.94829559326172 14.442618370056152 C19.90072250366211 14.338550567626953 19.85413932800293 14.233491897583008 19.809539794921875 14.12744140625 C19.79170036315918 14.221597671508789 19.780797958374023 14.317736625671387 19.7530460357666 14.409911155700684 C19.73223304748535 14.413875579833984 19.69060516357422 14.42081356048584 19.66979217529297 14.423787117004395 C19.703489303588867 14.236465454101562 19.738178253173828 14.049142837524414 19.7788143157959 13.863802909851074 L19.7788143157959 13.863802909851074" fill="black" fill-opacity="1.0" filling="0"/>
<path animation_id="5" d="M13.405904769897461 13.909395217895508 L13.48519515991211 13.909395217895508 C13.486186027526855 14.051125526428223 13.486186027526855 14.192855834960938 13.486186027526855 14.334586143493652 C13.535741806030273 14.334586143493652 13.58629035949707 14.335577011108398 13.636837005615234 14.336568832397461 L13.636837005615234 14.415858268737793 C13.559529304504395 14.415858268737793 13.482222557067871 14.415858268737793 13.405904769897461 14.416849136352539 C13.406896591186523 14.247367858886719 13.405904769897461 14.078876495361328 13.405904769897461 13.909395217895508" fill="black" fill-opacity="1.0" filling="0"/>
<path animation_id="6" d="M16.486310958862305 13.872723579406738 C16.611190795898438 13.990666389465332 16.725170135498047 14.120503425598145 16.846086502075195 14.242411613464355 C16.84807014465332 14.132396697998047 16.84906005859375 14.022382736206055 16.84906005859375 13.912367820739746 L16.929340362548828 13.909395217895508 C16.9283504486084 14.087797164916992 16.93033218383789 14.267189979553223 16.92736053466797 14.445591926574707 C16.803468704223633 14.32665729522705 16.689491271972656 14.196820259094238 16.566591262817383 14.075902938842773 C16.56559944152832 14.18889045715332 16.56559944152832 14.30286979675293 16.56559944152832 14.415858268737793 C16.545778274536133 14.415858268737793 16.506132125854492 14.416849136352539 16.486310958862305 14.416849136352539 C16.485319137573242 14.2354736328125 16.48432731628418 14.054098129272461 16.486310958862305 13.872723579406738 M23.62139129638672 13.922279357910156 C23.799793243408203 13.835061073303223 24.0336971282959 13.997604370117188 23.997026443481445 14.197811126708984 C23.97918701171875 14.422796249389648 23.64617156982422 14.503076553344727 23.52128791809082 14.320710182189941 C23.416229248046875 14.191864013671875 23.47272491455078 13.98868465423584 23.62139129638672 13.922279357910156 M23.658061981201172 13.995622634887695 C23.531200408935547 14.049142837524414 23.519306182861328 14.2394380569458 23.63427734375 14.31278133392334 C23.74428939819336 14.398017883300781 23.920711517333984 14.293950080871582 23.910799026489258 14.159156799316406 C23.917736053466797 14.033285140991211 23.76906967163086 13.939128875732422 23.658061981201172 13.995622634887695 L23.658061981201172 13.995622634887695" fill="black" fill-opacity="1.0" filling="0"/>
<path animation_id="7" d="M17.52996063232422 13.919305801391602 C17.708362579345703 13.836051940917969 17.92938232421875 13.999587059020996 17.89667510986328 14.19483757019043 C17.882801055908203 14.397026062011719 17.609249114990234 14.494155883789062 17.46157455444336 14.36332893371582 C17.311912536621094 14.247367858886719 17.350566864013672 13.983729362487793 17.52996063232422 13.919305801391602 M17.56464958190918 13.99264907836914 C17.44175148010254 14.040223121643066 17.413999557495117 14.220606803894043 17.521041870117188 14.298905372619629 C17.615198135375977 14.395044326782227 17.789634704589844 14.321701049804688 17.809457778930664 14.195829391479492 C17.845138549804688 14.061036109924316 17.689531326293945 13.935164451599121 17.56464958190918 13.99264907836914" fill="black" fill-opacity="1.0" filling="0"/>
<path animation_id="8" d="M18.452695846557617 13.926243782043457 C18.532976150512695 13.883625984191895 18.62415885925293 13.9074125289917 18.707412719726562 13.925252914428711 C18.707412719726562 13.958950996398926 18.707412719726562 13.99264907836914 18.708404541015625 14.026347160339355 C18.630104064941406 13.991658210754395 18.520090103149414 13.947057723999023 18.451702117919922 14.026347160339355 C18.349618911743164 14.109601020812988 18.386289596557617 14.297914505004883 18.514144897460938 14.331612586975098 C18.582530975341797 14.365310668945312 18.647945404052734 14.311790466308594 18.71137809753418 14.291967391967773 C18.709394454956055 14.317736625671387 18.70543098449707 14.371257781982422 18.703449249267578 14.397026062011719 C18.592443466186523 14.428742408752441 18.451702117919922 14.433697700500488 18.372413635253906 14.334586143493652 C18.256452560424805 14.216642379760742 18.30105209350586 13.99264907836914 18.452695846557617 13.926243782043457 L18.452695846557617 13.926243782043457" fill="black" fill-opacity="1.0" filling="0"/>
<path animation_id="9" d="M21.21197509765625 13.910386085510254 L21.495437622070312 13.911376953125 C21.495437622070312 13.931199073791504 21.495437622070312 13.970844268798828 21.495437622070312 13.989675521850586 C21.429031372070312 13.990666389465332 21.363616943359375 13.990666389465332 21.297212600708008 13.99264907836914 C21.298202514648438 14.027338027954102 21.2991943359375 14.062026977539062 21.301176071166992 14.09671688079834 C21.3656005859375 14.09671688079834 21.431015014648438 14.09671688079834 21.49642562866211 14.09671688079834 C21.495437622070312 14.116539001464844 21.492462158203125 14.157175064086914 21.491470336914062 14.17798900604248 C21.42803955078125 14.176998138427734 21.364608764648438 14.176998138427734 21.302169799804688 14.176998138427734 C21.301176071166992 14.22952651977539 21.300186157226562 14.28205680847168 21.2991943359375 14.334586143493652 L21.495437622070312 14.335577011108398 C21.495437622070312 14.355400085449219 21.495437622070312 14.396035194396973 21.495437622070312 14.416849136352539 C21.40127944946289 14.416849136352539 21.307125091552734 14.416849136352539 21.213958740234375 14.417840003967285 C21.209001541137695 14.248357772827148 21.210987091064453 14.078876495361328 21.21197509765625 13.910386085510254 L21.21197509765625 13.910386085510254" fill="black" fill-opacity="1.0" filling="0"/>
<path animation_id="10" d="M21.936485290527344 13.865785598754883 C22.057403564453125 13.990666389465332 22.177330017089844 14.117530822753906 22.297252655029297 14.242411613464355 C22.29824447631836 14.1314058303833 22.29824447631836 14.020400047302246 22.299236297607422 13.910386085510254 L22.377534866333008 13.911376953125 C22.377534866333008 14.088788032531738 22.3795166015625 14.267189979553223 22.376543045043945 14.444600105285645 C22.252653121948242 14.325666427612305 22.139665603637695 14.19483757019043 22.015775680541992 14.075902938842773 C22.01478385925293 14.189882278442383 22.01478385925293 14.303861618041992 22.015775680541992 14.417840003967285 C21.995952606201172 14.416849136352539 21.956308364868164 14.415858268737793 21.936485290527344 14.415858268737793 C21.93549346923828 14.232500076293945 21.93549346923828 14.049142837524414 21.936485290527344 13.865785598754883" fill="black" fill-opacity="1.0" filling="0"/>
<path animation_id="11" d="M22.786869049072266 13.912367820739746 C22.891925811767578 13.911376953125 22.997974395751953 13.911376953125 23.104026794433594 13.910386085510254 C23.104026794433594 13.931199073791504 23.10303497314453 13.971835136413574 23.10204315185547 13.99264907836914 C23.074295043945312 13.99264907836914 23.017799377441406 13.991658210754395 22.990047454833984 13.990666389465332 C22.987075805664062 14.130414962768555 22.996986389160156 14.271154403686523 22.984100341796875 14.41090202331543 C22.964279174804688 14.413875579833984 22.922653198242188 14.42081356048584 22.902828216552734 14.423787117004395 C22.901836395263672 14.280074119567871 22.901836395263672 14.136362075805664 22.900848388671875 13.99264907836914 C22.87210464477539 13.99264907836914 22.815608978271484 13.991658210754395 22.786869049072266 13.990666389465332 C22.786869049072266 13.970844268798828 22.786869049072266 13.932190895080566 22.786869049072266 13.912367820739746 L22.786869049072266 13.912367820739746" fill="black" fill-opacity="1.0" filling="0"/>
<path animation_id="12" d="M15.72116470336914 13.989675521850586 C15.832170486450195 13.945075035095215 15.971918106079102 14.036258697509766 15.9639892578125 14.158166885375977 C15.977865219116211 14.300888061523438 15.780631065368652 14.40495491027832 15.675573348999023 14.30286979675293 C15.563576698303223 14.224571228027344 15.596282958984375 14.037249565124512 15.72116470336914 13.989675521850586 M17.56464958190918 13.99264907836914 C17.688539505004883 13.935164451599121 17.845138549804688 14.061036109924316 17.809457778930664 14.195829391479492 C17.789634704589844 14.321701049804688 17.615198135375977 14.395044326782227 17.521041870117188 14.298905372619629 C17.413999557495117 14.220606803894043 17.44175148010254 14.040223121643066 17.56464958190918 13.99264907836914" fill="black" fill-opacity="1.0" filling="0"/>
<path animation_id="13" d="M23.658061981201172 13.995622634887695 C23.76906967163086 13.939128875732422 23.917736053466797 14.033285140991211 23.91179084777832 14.159156799316406 C23.920711517333984 14.294940948486328 23.745281219482422 14.398017883300781 23.63526725769043 14.31278133392334 C23.519306182861328 14.2394380569458 23.531200408935547 14.049142837524414 23.658061981201172 13.995622634887695 L23.658061981201172 13.995622634887695" fill="black" fill-opacity="1.0" filling="0"/></svg>