<?xml version="1.0" encoding="iso-8859-1"?><svg height="200px" viewBox="0.0 0.0 24.0 24.0" width="200px" xmlns="http://www.w3.org/2000/svg"><path animation_id="0" d="M0.0 0.0 L24.0 0.0 L24.0 24.0 L0.0 24.0 L0.0 0.0" fill="black" fill-opacity="1.0" filling="0"/>
<path animation_id="1" d="M8.130860328674316 8.003984451293945 L7.572185039520264 10.03685474395752 L5.881217956542969 10.03685474395752 L6.4401421546936035 8.003984451293945 L5.075515270233154 8.003984451293945 L3.668306350708008 13.123078346252441 L5.032933235168457 13.123078346252441 L5.579904079437256 11.133785247802734 L7.27074670791626 11.133785247802734 L6.724024295806885 13.123078346252441 L8.088401794433594 13.123078346252441 L9.49598503112793 8.003984451293945 L8.130860328674316 8.003984451293945 L8.130860328674316 8.003984451293945 M10.215900421142578 10.91763687133789 L10.882898330688477 10.91763687133789 L10.494178771972656 12.370291709899902 L9.826807022094727 12.370291709899902 L10.215900421142578 10.91763687133789 M9.64850902557373 10.164477348327637 L8.85600471496582 13.123078346252441 L11.061695098876953 13.123078346252441 L11.854323387145996 10.164477348327637 L9.64850902557373 10.164477348327637 M13.088838577270508 10.91763687133789 L13.739898681640625 10.91763687133789 L13.56508731842041 11.568449974060059 L12.914275169372559 11.568449974060059 L13.088838577270508 10.91763687133789 M12.52094841003418 10.164477348327637 L11.728320121765137 13.123078346252441 L12.497665405273438 13.123078346252441 L12.727012634277344 12.267820358276367 L14.147171020507812 12.267820358276367 L14.710577964782715 10.164477348327637 L12.52094841003418 10.164477348327637 L12.52094841003418 10.164477348327637 M16.470523834228516 10.863848686218262 L15.865280151367188 13.123078346252441 L15.095809936523438 13.123078346252441 L15.687231063842773 10.91763687133789 L15.701176643371582 10.863848686218262 L14.991222381591797 10.863848686218262 L15.178484916687012 10.164477348327637 L17.368362426757812 10.164477348327637 L17.180850982666016 10.863848686218262 L16.470523834228516 10.863848686218262 M18.430553436279297 10.91763687133789 L19.097803115844727 10.91763687133789 L18.70846176147461 12.370291709899902 L18.04121208190918 12.370291709899902 L18.430553436279297 10.91763687133789 M17.863039016723633 10.164477348327637 L17.07053565979004 13.123078346252441 L19.276226043701172 13.123078346252441 L20.068729400634766 10.164477348327637 L17.863039016723633 10.164477348327637 M21.50469970703125 10.164477348327637 L21.212352752685547 11.25667667388916 L21.879474639892578 11.25667667388916 L22.172197341918945 10.164477348327637 L22.94116973876953 10.164477348327637 L22.148914337158203 13.123078346252441 L21.379444122314453 13.123078346252441 L21.67776870727539 12.009587287902832 L21.010520935058594 12.009587287902832 L20.712444305419922 13.123078346252441 L19.942974090576172 13.123078346252441 L20.534147262573242 10.91763687133789 L20.7354793548584 10.164477348327637 L21.50469970703125 10.164477348327637 L21.50469970703125 10.164477348327637" fill="black" fill-opacity="1.0" filling="0"/>
<path animation_id="2" d="M3.2402420043945312 15.318059921264648 L3.4043455123901367 15.318059921264648 L3.1027822494506836 15.593600273132324 L3.2474632263183594 15.89229965209961 L3.089834213256836 15.89229965209961 L2.9695568084716797 15.608417510986328 L2.9678144454956055 15.608417510986328 L2.8847665786743164 15.89229965209961 L2.7494239807128906 15.89229965209961 L2.9209985733032227 15.318059921264648 L3.0564651489257812 15.318059921264648 L2.9817590713500977 15.56247329711914 L2.984250068664551 15.56247329711914 L3.2402420043945312 15.318059921264648 M3.806262969970703 15.797174453735352 C3.716740608215332 15.797174453735352 3.691216468811035 15.733922958374023 3.6981887817382812 15.652742385864258 C3.7059078216552734 15.564215660095215 3.7626848220825195 15.413186073303223 3.903754234313965 15.413186073303223 C4.008715629577637 15.413186073303223 4.018054485321045 15.494365692138672 4.012575149536133 15.5576171875 C4.005105018615723 15.644400596618652 3.9474573135375977 15.797174453735352 3.806262969970703 15.797174453735352 L3.806262969970703 15.797174453735352 M3.7858428955078125 15.908735275268555 C4.041835784912109 15.908735275268555 4.147793292999268 15.681379318237305 4.160368919372559 15.538566589355469 C4.173442363739014 15.389280319213867 4.088401794433594 15.30150032043457 3.9292783737182617 15.30150032043457 C3.672539710998535 15.30150032043457 3.5630950927734375 15.52960205078125 3.5506439208984375 15.671667098999023 C3.544419288635254 15.742264747619629 3.5569944381713867 15.908735275268555 3.7858428955078125 15.908735275268555 M4.620432376861572 15.475440979003906 L4.618813514709473 15.475440979003906 L4.495299816131592 15.89229965209961 L4.359957695007324 15.89229965209961 L4.531656742095947 15.318059921264648 L4.727759838104248 15.318059921264648 L4.74332332611084 15.712507247924805 L4.984623432159424 15.318059921264648 L5.186453342437744 15.318059921264648 L5.014754772186279 15.89229965209961 L4.8792877197265625 15.89229965209961 L5.006163597106934 15.475440979003906 L5.003548622131348 15.475440979003906 L4.747182846069336 15.89229965209961 L4.636493682861328 15.89229965209961 L4.620432376861572 15.475440979003906 L4.620432376861572 15.475440979003906 M5.475067138671875 15.89229965209961 L5.339600086212158 15.89229965209961 L5.5112996101379395 15.318059921264648 L5.998630523681641 15.318059921264648 L5.826931476593018 15.89229965209961 L5.691589832305908 15.89229965209961 L5.8297953605651855 15.429496765136719 L5.613272666931152 15.429496765136719 L5.475067138671875 15.89229965209961 M6.3636932373046875 15.63792610168457 L6.473635196685791 15.63792610168457 C6.528543949127197 15.63792610168457 6.556434154510498 15.657598495483398 6.552200794219971 15.707029342651367 C6.546597957611084 15.770278930664062 6.471145153045654 15.780987739562988 6.449728965759277 15.780987739562988 L6.32086181640625 15.780987739562988 L6.3636932373046875 15.63792610168457 L6.3636932373046875 15.63792610168457 M6.458942890167236 15.318059921264648 L6.323600769042969 15.318059921264648 L6.151902198791504 15.89217472076416 L6.4243292808532715 15.89217472076416 C6.601631164550781 15.89217472076416 6.6880412101745605 15.794684410095215 6.697005748748779 15.692087173461914 C6.711199760437012 15.52960205078125 6.567889213562012 15.5264892578125 6.515470504760742 15.5264892578125 L6.396563529968262 15.5264892578125 L6.458942890167236 15.318059921264648 M7.476312160491943 15.797174453735352 C7.390898704528809 15.797174453735352 7.360767364501953 15.739774703979492 7.3683624267578125 15.652742385864258 C7.38031530380249 15.51578140258789 7.462242603302002 15.413186073303223 7.573927879333496 15.413186073303223 C7.664944648742676 15.413186073303223 7.689970970153809 15.475440979003906 7.682749271392822 15.5576171875 C7.672165870666504 15.678266525268555 7.596090316772461 15.797174453735352 7.476312160491943 15.797174453735352 L7.476312160491943 15.797174453735352 M7.175869941711426 15.535454750061035 L7.240864276885986 15.318059921264648 L7.105522155761719 15.318059921264648 L6.933823108673096 15.89217472076416 L7.069165229797363 15.89217472076416 L7.142376899719238 15.646766662597656 L7.2228102684021 15.646766662597656 L7.220693588256836 15.67154312133789 C7.211355209350586 15.777377128601074 7.255680561065674 15.908609390258789 7.455892562866211 15.908609390258789 C7.676648139953613 15.908609390258789 7.8134846687316895 15.732054710388184 7.830417633056641 15.538442611694336 C7.850339412689209 15.311336517333984 7.656726837158203 15.301376342773438 7.59932804107666 15.301376342773438 C7.403224945068359 15.301376342773438 7.297889709472656 15.42613410949707 7.255556106567383 15.535329818725586 L7.175869941711426 15.535329818725586 L7.175869941711426 15.535454750061035 L7.175869941711426 15.535454750061035 M8.11890697479248 15.429496765136719 L8.1525239944458 15.318059921264648 L8.63412857055664 15.318059921264648 L8.600510597229004 15.429496765136719 L8.427441596984863 15.429496765136719 L8.289236068725586 15.89229965209961 L8.153894424438477 15.89229965209961 L8.292099952697754 15.429496765136719 L8.11890697479248 15.429496765136719 L8.11890697479248 15.429496765136719 M9.254310607910156 15.543546676635742 L9.222312927246094 15.655108451843262 L8.940049171447754 15.655108451843262 L8.902820587158203 15.780863761901855 L9.228662490844727 15.780863761901855 L9.195792198181152 15.89229965209961 L8.733860969543457 15.89229965209961 L8.905684471130371 15.318059921264648 L9.36014461517334 15.318059921264648 L9.327523231506348 15.429496765136719 L9.00740909576416 15.429496765136719 L8.973666191101074 15.543546676635742 L9.254310607910156 15.543546676635742 L9.254310607910156 15.543546676635742 M9.749984741210938 15.429496765136719 L9.856565475463867 15.429496765136719 C9.90910816192627 15.429496765136719 9.939613342285156 15.446056365966797 9.935006141662598 15.499346733093262 C9.931519508361816 15.539688110351562 9.903754234313965 15.584012985229492 9.810247421264648 15.584012985229492 L9.703666687011719 15.584012985229492 L9.749984741210938 15.429496765136719 L9.749984741210938 15.429496765136719 M9.6481351852417 15.318059921264648 L9.476436614990234 15.89217472076416 L9.611903190612793 15.89217472076416 L9.671045303344727 15.695449829101562 L9.799788475036621 15.695449829101562 C10.03685474395752 15.695449829101562 10.075701713562012 15.533711433410645 10.080806732177734 15.47469425201416 C10.093133926391602 15.334370613098145 9.982194900512695 15.318059921264648 9.916454315185547 15.318059921264648 L9.6481351852417 15.318059921264648 L9.6481351852417 15.318059921264648 M10.379008293151855 15.89229965209961 L10.243541717529297 15.89229965209961 L10.415365219116211 15.318059921264648 L10.55070686340332 15.318059921264648 L10.485090255737305 15.533836364746094 L10.695013999938965 15.533836364746094 L10.76075553894043 15.318059921264648 L10.896097183227539 15.318059921264648 L10.724398612976074 15.89229965209961 L10.589056015014648 15.89229965209961 L10.662392616271973 15.64539623260498 L10.452343940734863 15.64539623260498 L10.379008293151855 15.89229965209961 M11.261159896850586 15.63792610168457 L11.371973037719727 15.63792610168457 C11.414555549621582 15.63792610168457 11.455269813537598 15.65037727355957 11.450413703918457 15.707029342651367 C11.44493579864502 15.770278930664062 11.370105743408203 15.780987739562988 11.347195625305176 15.780987739562988 L11.218327522277832 15.780987739562988 L11.261159896850586 15.63792610168457 L11.261159896850586 15.63792610168457 M11.356409072875977 15.318059921264648 L11.221067428588867 15.318059921264648 L11.049242973327637 15.89217472076416 L11.322542190551758 15.89217472076416 C11.500591278076172 15.89217472076416 11.586130142211914 15.794684410095215 11.595218658447266 15.692087173461914 C11.608043670654297 15.545913696289062 11.497354507446289 15.5264892578125 11.413683891296387 15.5264892578125 L11.294528007507324 15.5264892578125 L11.356409072875977 15.318059921264648 M11.754342079162598 15.318059921264648 L11.582643508911133 15.89217472076416 L11.717985153198242 15.89217472076416 L11.889683723449707 15.318059921264648 L11.754342079162598 15.318059921264648 M12.568138122558594 15.318059921264648 L12.714312553405762 15.318059921264648 L12.542613983154297 15.89217472076416 L12.407147407531738 15.89217472076416 L12.518707275390625 15.517400741577148 L12.189006805419922 15.89217472076416 L12.042831420898438 15.89217472076416 L12.214529991149902 15.318059921264648 L12.349997520446777 15.318059921264648 L12.239557266235352 15.688725471496582 L12.568138122558594 15.318059921264648 M12.427192687988281 15.17686653137207 C12.417730331420898 15.201394081115723 12.427441596984863 15.231775283813477 12.487953186035156 15.231775283813477 C12.538006782531738 15.231775283813477 12.561165809631348 15.202390670776367 12.569881439208984 15.17686653137207 L12.660773277282715 15.17686653137207 C12.641100883483887 15.226919174194336 12.589553833007812 15.290170669555664 12.469651222229004 15.290170669555664 C12.32521915435791 15.290170669555664 12.329079627990723 15.207993507385254 12.336176872253418 15.17686653137207 L12.427192687988281 15.17686653137207 M13.841001510620117 15.689722061157227 C13.810371398925781 15.777502059936523 13.72084903717041 15.908859252929688 13.529975891113281 15.908859252929688 C13.360767364501953 15.908859252929688 13.297765731811523 15.804519653320312 13.309219360351562 15.674904823303223 C13.320425987243652 15.546037673950195 13.407458305358887 15.301624298095703 13.675029754638672 15.301624298095703 C13.766918182373047 15.301624298095703 13.906991958618164 15.323040962219238 13.893917083740234 15.471332550048828 C13.89267349243164 15.48540210723877 13.891427993774414 15.499346733093262 13.8878173828125 15.513167381286621 L13.754094123840332 15.513167381286621 C13.755338668823242 15.507564544677734 13.756086349487305 15.50171184539795 13.756584167480469 15.496109008789062 C13.76144027709961 15.438461303710938 13.721845626831055 15.413186073303223 13.659590721130371 15.413186073303223 C13.524124145507812 15.413186073303223 13.46485710144043 15.565710067749023 13.45726203918457 15.654485702514648 C13.44530963897705 15.790699005126953 13.528979301452637 15.797174453735352 13.553757667541504 15.797174453735352 C13.587374687194824 15.797174453735352 13.658345222473145 15.793065071105957 13.706779479980469 15.689722061157227 L13.841001510620117 15.689722061157227 M14.271183013916016 15.687231063842773 L14.412002563476562 15.468094825744629 L14.42121696472168 15.687231063842773 L14.271183013916016 15.687231063842773 M14.386478424072266 15.318059921264648 L13.998879432678223 15.89217472076416 L14.144307136535645 15.89217472076416 L14.213658332824707 15.784723281860352 L14.422088623046875 15.784723281860352 L14.426445960998535 15.89217472076416 L14.566768646240234 15.89217472076416 L14.523438453674316 15.318059921264648 L14.386478424072266 15.318059921264648 L14.386478424072266 15.318059921264648 M14.812052726745605 15.780863761901855 C14.819398880004883 15.781610488891602 14.827367782592773 15.782356262207031 14.834712982177734 15.782356262207031 C14.888999938964844 15.782356262207031 14.952125549316406 15.763681411743164 15.002552032470703 15.591981887817383 L15.082985877990723 15.318184852600098 L15.512170791625977 15.318184852600098 L15.340472221374512 15.89229965209961 L15.205005645751953 15.89229965209961 L15.343086242675781 15.429496765136719 L15.178983688354492 15.429496765136719 L15.117973327636719 15.62983226776123 C15.08584976196289 15.734670639038086 15.016871452331543 15.895661354064941 14.817405700683594 15.895661354064941 C14.804332733154297 15.895661354064941 14.790637016296387 15.89391803741455 14.777563095092773 15.89229965209961 L14.812052726745605 15.780863761901855 L14.812052726745605 15.780863761901855 M15.966382026672363 15.797174453735352 C15.877108573913574 15.797174453735352 15.851335525512695 15.733922958374023 15.85843276977539 15.652742385864258 C15.866151809692383 15.564215660095215 15.923177719116211 15.413186073303223 16.06412124633789 15.413186073303223 C16.16921043395996 15.413186073303223 16.178422927856445 15.494365692138672 16.172819137573242 15.5576171875 C16.16534996032715 15.644400596618652 16.107702255249023 15.797174453735352 15.966382026672363 15.797174453735352 M15.945963859558105 15.908735275268555 C16.20207977294922 15.908735275268555 16.30803680419922 15.681379318237305 16.32048797607422 15.538566589355469 C16.333560943603516 15.389280319213867 16.24877166748047 15.30150032043457 16.089523315429688 15.30150032043457 C15.832783699035645 15.30150032043457 15.723339080810547 15.52960205078125 15.710888862609863 15.671667098999023 C15.704788208007812 15.742264747619629 15.717114448547363 15.908735275268555 15.945963859558105 15.908735275268555 L15.945963859558105 15.908735275268555 M16.655670166015625 15.89229965209961 L16.52020263671875 15.89229965209961 L16.69202423095703 15.318059921264648 L16.827241897583008 15.318059921264648 L16.761627197265625 15.533836364746094 L16.971799850463867 15.533836364746094 L17.03741455078125 15.318059921264648 L17.172882080078125 15.318059921264648 L17.001182556152344 15.89229965209961 L16.8657169342041 15.89229965209961 L16.938928604125977 15.64539623260498 L16.72900390625 15.64539623260498 L16.655670166015625 15.89229965209961 M7.342713356018066 14.463798522949219 C6.939799785614014 14.451597213745117 5.335740566253662 14.336175918579102 4.08317232131958 14.090767860412598 C2.985245704650879 13.875740051269531 2.2308406829833984 13.54379653930664 1.8043947219848633 13.33200454711914 C1.7154951095581055 13.547407150268555 1.5429248809814453 14.06711196899414 1.4468040466308594 14.398306846618652 C1.367863655090332 14.669986724853516 1.0090265274047852 14.613958358764648 1.064682960510254 14.382991790771484 C1.1000432968139648 14.237316131591797 1.3203010559082031 13.521385192871094 1.436966896057129 13.160057067871094 C1.2426080703735352 12.894976615905762 1.4008588790893555 12.301812171936035 1.8060131072998047 12.067234992980957 C1.9001436233520508 11.715993881225586 2.0562782287597656 11.170516967773438 2.1791696548461914 10.781298637390137 C2.308286666870117 10.37328052520752 2.672975540161133 10.453713417053223 2.609102249145508 10.739961624145508 C2.561788558959961 10.952125549316406 2.400423049926758 11.4080810546875 2.2772836685180664 11.838262557983398 C3.015127182006836 11.387288093566895 5.228662014007568 10.62939739227295 5.898275852203369 10.432671546936035 C6.038846969604492 10.391458511352539 6.133349895477295 10.553321838378906 5.934383392333984 10.613085746765137 C5.415925025939941 10.768474578857422 2.0557804107666016 11.887567520141602 1.978708267211914 12.769719123840332 C1.9538068771362305 13.055219650268555 2.9617137908935547 13.44991683959961 4.225736141204834 13.694328308105469 C5.522629737854004 13.945091247558594 7.081118583679199 14.042333602905273 7.4575114250183105 14.042333602905273 C7.832285404205322 14.042333602905273 7.984187602996826 14.089273452758789 7.916329860687256 14.33144474029541 C7.849592208862305 14.557928085327148 7.529104232788086 14.471768379211426 7.342713356018066 14.463798522949219 L7.342713356018066 14.463798522949219 M16.977153778076172 13.409574508666992 C17.066925048828125 12.919754028320312 17.071531295776367 12.159372329711914 16.602874755859375 12.144556045532227 C16.340782165527344 12.136960983276367 16.101974487304688 12.374401092529297 16.061756134033203 12.62317180633545 C16.003860473632812 12.994210243225098 16.214033126831055 13.213098526000977 16.389341354370117 13.35391902923584 C16.474258422851562 13.420781135559082 16.62404441833496 13.494989395141602 16.715682983398438 13.543174743652344 C16.697254180908203 13.62858772277832 16.69090461730957 13.684243202209473 16.66002655029297 13.754715919494629 C16.61794090270996 13.699309349060059 16.522193908691406 13.65473461151123 16.414119720458984 13.65473461151123 C16.298324584960938 13.65473461151123 16.05229377746582 13.797672271728516 15.869887351989746 14.008342742919922 C15.713005065917969 14.099982261657715 15.35703182220459 14.400547981262207 15.095809936523438 14.400547981262207 C15.066177368164062 14.400547981262207 15.0624418258667 14.378385543823242 15.066425323486328 14.356098175048828 C15.08273696899414 14.263214111328125 15.355538368225098 13.936624526977539 15.37520980834961 13.825437545776367 C15.386415481567383 13.762434959411621 15.400236129760742 13.684368133544922 15.32951545715332 13.684368133544922 C15.263151168823242 13.684368133544922 15.139139175415039 13.754840850830078 15.02994441986084 13.932889938354492 C14.978398323059082 13.951566696166992 14.94216537475586 13.988545417785645 14.85612964630127 14.014816284179688 C14.730125427246094 14.055407524108887 14.64483642578125 14.07420825958252 14.515470504760742 14.07420825958252 C14.602005004882812 13.940484046936035 14.710203170776367 13.788208961486816 14.729503631591797 13.721596717834473 C14.746062278747559 13.651124000549316 14.766233444213867 13.576666831970215 14.655046463012695 13.576666831970215 C14.59204387664795 13.576666831970215 14.50326919555664 13.63605785369873 14.458320617675781 13.702919960021973 C14.389715194702148 13.79555606842041 14.085786819458008 14.036108016967773 13.987051010131836 14.108074188232422 C13.793686866760254 14.24864673614502 13.474693298339844 14.408143043518066 13.385170936584473 14.408143043518066 C13.240490913391113 14.408143043518066 13.352798461914062 14.170578002929688 13.356285095214844 14.066737174987793 C13.369234085083008 13.888439178466797 13.308099746704102 13.751354217529297 13.085600852966309 13.751354217529297 C12.885015487670898 13.751354217529297 12.613086700439453 13.902883529663086 12.414119720458984 14.084293365478516 C12.251883506774902 14.178422927856445 11.96937084197998 14.345016479492188 11.677519798278809 14.345016479492188 C11.625723838806152 14.345016479492188 11.636431694030762 14.281765937805176 11.645894050598145 14.229721069335938 C11.6543607711792 14.181784629821777 11.832658767700195 13.906991958618164 11.854323387145996 13.784722328186035 C11.870012283325195 13.695698738098145 11.75197696685791 13.669675827026367 11.703791618347168 13.669675827026367 C11.544419288635254 13.669675827026367 10.972172737121582 14.326215744018555 10.790761947631836 14.345016479492188 C10.737471580505371 14.352612495422363 10.74021053314209 14.274544715881348 10.749300003051758 14.222498893737793 C10.764863967895508 14.133474349975586 10.93593978881836 13.89976978302002 10.95635986328125 13.784722328186035 C10.970678329467773 13.703044891357422 10.956857681274414 13.614020347595215 10.856627464294434 13.614020347595215 C10.61545181274414 13.614020347595215 9.959160804748535 14.380002975463867 9.847724914550781 14.380002975463867 C9.806885719299316 14.380002975463867 9.787088394165039 14.387598991394043 9.80302619934082 14.298574447631836 C9.817842483520508 14.213907241821289 9.96140193939209 13.916080474853516 9.765921592712402 13.947955131530762 C9.72570514678955 13.954803466796875 9.598455429077148 13.954803466796875 9.535453796386719 13.954803466796875 A0.2739214301109314 0.2739214301109314 0.0 0 1 9.354416847229004 13.887941360473633 C9.36686897277832 13.754218101501465 9.370603561401367 13.605802536010742 9.04426383972168 13.605802536010742 C8.910539627075195 13.605802536010742 8.25599193572998 13.972981452941895 8.183154106140137 14.384984016418457 C8.149038314819336 14.578099250793457 8.322481155395508 14.689410209655762 8.44113826751709 14.689410209655762 C8.804706573486328 14.689410209655762 9.189068794250488 14.128868103027344 9.221315383911133 14.095499038696289 C9.280956268310547 14.154890060424805 9.380439758300781 14.180912017822266 9.454771995544434 14.180912017822266 C9.465604782104492 14.180912017822266 9.47718334197998 14.179668426513672 9.488638877868652 14.178422927856445 C9.469962120056152 14.224616050720215 9.455394744873047 14.279773712158203 9.443815231323242 14.345016479492188 C9.412439346313477 14.523065567016602 9.460748672485352 14.689908981323242 9.694951057434082 14.66799545288086 C9.922057151794434 14.641972541809082 10.309157371520996 14.255992889404297 10.53078556060791 14.051796913146973 C10.483844757080078 14.170702934265137 10.409263610839844 14.318994522094727 10.389217376708984 14.434041976928711 C10.36705493927002 14.537882804870605 10.370416641235352 14.645583152770996 10.51522159576416 14.645583152770996 C10.864097595214844 14.645583152770996 11.162050247192383 14.300567626953125 11.397871017456055 14.122268676757812 C11.341591835021973 14.229721069335938 11.281206130981445 14.341156959533691 11.273859024047852 14.381996154785156 C11.253564834594727 14.497042655944824 11.285812377929688 14.693768501281738 11.523252487182617 14.693768501281738 C11.69333267211914 14.693768501281738 11.94272518157959 14.577227592468262 12.159248352050781 14.444997787475586 C12.158252716064453 14.450102806091309 12.156384468078613 14.455456733703613 12.155387878417969 14.460063934326172 C12.131980895996094 14.593538284301758 12.15127944946289 14.671356201171875 12.34875202178955 14.66799545288086 C12.71082592010498 14.656789779663086 12.83297061920166 14.467658996582031 12.98126220703125 14.38560676574707 C13.032559394836426 14.534147262573242 12.98686408996582 14.66799545288086 13.25045108795166 14.66799545288086 C13.420656204223633 14.66799545288086 14.052916526794434 14.250015258789062 14.133474349975586 14.178174018859863 C14.050551414489746 14.289361000061035 13.993650436401367 14.381996154785156 13.982942581176758 14.441511154174805 C13.964016914367676 14.54896354675293 13.960033416748047 14.697379112243652 14.104837417602539 14.697379112243652 C14.227355003356934 14.697379112243652 14.237813949584961 14.637989044189453 14.297204971313477 14.471269607543945 C14.313515663146973 14.41922378540039 14.34700870513916 14.356223106384277 14.384237289428711 14.293220520019531 L14.450600624084473 14.293220520019531 C14.551079750061035 14.293220520019531 14.708834648132324 14.281765937805176 14.849157333374023 14.222498893737793 C14.799103736877441 14.296955108642578 14.746560096740723 14.404158592224121 14.739961624145508 14.441636085510254 C14.718794822692871 14.560294151306152 14.749672889709473 14.682936668395996 15.009400367736816 14.682936668395996 C15.134906768798828 14.682936668395996 15.442071914672852 14.50152587890625 15.678890228271484 14.330821990966797 A0.654921293258667 0.654921293258667 0.0 0 0 15.656477928161621 14.419099807739258 C15.622238159179688 14.612215042114258 15.795555114746094 14.723526000976562 15.914213180541992 14.723526000976562 C16.277782440185547 14.723526000976562 16.62752914428711 14.467161178588867 16.837825775146484 13.92591667175293 C16.892982482910156 13.780987739562988 16.906431198120117 13.725580215454102 16.926849365234375 13.610284805297852 C16.96843719482422 13.628711700439453 16.992219924926758 13.617879867553711 17.029447555541992 13.617879867553711 C17.07028579711914 13.617879867553711 17.11012840270996 13.603062629699707 17.122331619262695 13.532217025756836 C17.132041931152344 13.476436614990234 17.079002380371094 13.439332962036133 16.977153778076172 13.409574508666992 L16.977153778076172 13.409574508666992 M8.963581085205078 14.102720260620117 C8.943534851074219 14.195605278015137 8.730623245239258 14.4144926071167 8.590923309326172 14.407146453857422 C8.547096252441406 14.403535842895508 8.536886215209961 14.355101585388184 8.544107437133789 14.314262390136719 C8.555811882019043 14.247650146484375 8.843055725097656 13.965511322021484 8.94565200805664 13.995268821716309 C8.990972518920898 14.010210037231445 8.970803260803223 14.062005996704102 8.963581085205078 14.102720260620117 M12.631887435913086 14.36705493927002 C12.594409942626953 14.36705493927002 12.541119575500488 14.374650001525879 12.544854164123535 14.333686828613281 C12.554068565368652 14.237191200256348 12.783166885375977 14.05553150177002 12.90481185913086 14.059142112731934 C12.938429832458496 14.059142112731934 12.967066764831543 14.085165023803711 12.961215019226074 14.118284225463867 C12.944406509399414 14.215028762817383 12.709456443786621 14.36705493927002 12.631887435913086 14.36705493927002 L12.631887435913086 14.36705493927002 M16.470273971557617 14.136960983276367 C16.44275665283203 14.2928466796875 16.203449249267578 14.448484420776367 16.06412124633789 14.44113826751709 C16.02004623413086 14.437527656555176 16.010086059570312 14.389093399047852 16.017181396484375 14.348503112792969 C16.028884887695312 14.281641960144043 16.203449249267578 14.007097244262695 16.351987838745117 14.007097244262695 C16.459566116333008 14.007097244262695 16.477371215820312 14.096121788024902 16.470273971557617 14.136960983276367 L16.470273971557617 14.136960983276367 M16.755775451660156 13.316940307617188 C16.63412857055664 13.227914810180664 16.493680953979492 13.057212829589844 16.446243286132812 12.968188285827637 C16.376644134521484 12.834465026855469 16.349002838134766 12.741828918457031 16.36593246459961 12.645458221435547 C16.376644134521484 12.582207679748535 16.431053161621094 12.44113826751709 16.53514289855957 12.44113826751709 C16.758014678955078 12.441262245178223 16.793750762939453 12.997945785522461 16.755775451660156 13.316940307617188 M17.981199264526367 14.719666481018066 C17.71761131286621 14.719666481018066 17.716615676879883 14.493308067321777 17.77252197265625 14.30405330657959 C17.510427474975586 14.526552200317383 17.235633850097656 14.69725513458252 17.009151458740234 14.69725513458252 C16.838449478149414 14.69725513458252 16.76984405517578 14.56004524230957 16.830106735229492 14.408143043518066 C16.911785125732422 14.196600914001465 16.969932556152344 14.118284225463867 17.152587890625 13.840129852294922 C17.233516693115234 13.71786117553711 17.374340057373047 13.676897048950195 17.43099021911621 13.691839218139648 C17.490631103515625 13.714250564575195 17.467472076416016 13.781111717224121 17.455270767211914 13.829297065734863 C17.431489944458008 13.9219331741333 17.22916030883789 14.18552017211914 17.210609436035156 14.289361000061035 C17.205005645751953 14.322729110717773 17.210857391357422 14.3302001953125 17.248085021972656 14.3302001953125 C17.355539321899414 14.3302001953125 17.56247329711914 14.229721069335938 17.74662208557129 14.111311912536621 C17.872127532958984 14.033493041992188 18.003238677978516 13.836519241333008 18.08142852783203 13.832907676696777 C18.305423736572266 13.825562477111816 18.200336456298828 14.022163391113281 18.148290634155273 14.085289001464844 C18.105709075927734 14.137334823608398 18.050800323486328 14.32260513305664 18.038349151611328 14.39320182800293 C18.034488677978516 14.415613174438477 18.044200897216797 14.444997787475586 18.069974899291992 14.444997787475586 C18.288862228393555 14.444997787475586 18.82413101196289 14.180166244506836 18.890243530273438 14.184025764465332 C18.90829849243164 14.187636375427246 18.918758392333984 14.213658332824707 18.91141128540039 14.254000663757324 C18.893856048583984 14.354354858398438 18.148040771484375 14.719666481018066 17.981199264526367 14.719666481018066 L17.981199264526367 14.719666481018066" fill="black" fill-opacity="1.0" filling="0"/>
<path animation_id="3" d="M19.58911895751953 14.482227325439453 C19.6697998046875 14.386353492736816 19.815475463867188 14.163232803344727 19.855443954467773 13.936251640319824 C19.884580612182617 13.769657135009766 19.844736099243164 13.57492446899414 19.674781799316406 13.57492446899414 C19.494117736816406 13.57492446899414 19.294403076171875 13.747867584228516 19.199899673461914 13.83975601196289 C19.246591567993164 13.715993881225586 19.307849884033203 13.52511978149414 19.176494598388672 13.52511978149414 C19.049118041992188 13.52511978149414 18.99308967590332 13.653738975524902 18.9534969329834 13.723837852478027 C18.884891510009766 13.84610652923584 18.017929077148438 15.531719207763672 17.967376708984375 15.818589210510254 C17.958663940429688 15.868392944335938 17.94696044921875 15.99614143371582 18.02452850341797 15.99614143371582 C18.08142852783203 15.99614143371582 18.25362777709961 15.904003143310547 18.30803680419922 15.7976713180542 C18.471269607543945 15.453775405883789 18.577974319458008 15.131296157836914 18.824254989624023 14.698749542236328 C18.88290023803711 14.748054504394531 18.969432830810547 14.759012222290039 19.047250747680664 14.759012222290039 C19.295650482177734 14.759012222290039 19.428375244140625 14.648323059082031 19.58911895751953 14.482227325439453 L19.58911895751953 14.482227325439453 M19.112245559692383 14.58806037902832 C18.975284576416016 14.58806037902832 18.955364227294922 14.39494514465332 19.147233963012695 14.136463165283203 C19.24883270263672 13.999004364013672 19.362884521484375 13.904501914978027 19.464609146118164 13.904501914978027 C19.513290405273438 13.904501914978027 19.55898666381836 13.945091247558594 19.54342269897461 14.010583877563477 C19.522754669189453 14.103965759277344 19.472949981689453 14.21627426147461 19.422027587890625 14.307290077209473 C19.371475219726562 14.398431777954102 19.216585159301758 14.59117317199707 19.112245559692383 14.58806037902832 L19.112245559692383 14.58806037902832" fill="black" fill-opacity="1.0" filling="0"/></svg>