<?xml version="1.0" encoding="iso-8859-1"?><svg height="200px" viewBox="0.0 0.0 24.0 24.0" width="200px" xmlns="http://www.w3.org/2000/svg"><path animation_id="0" d="M0.0 0.0 L24.0 0.0 L24.0 24.0 L0.0 24.0 L0.0 0.0" fill="black" fill-opacity="1.0" filling="0"/>
<path animation_id="1" d="M18.144432067871094 7.928157806396484 L18.917512893676758 7.928157806396484 L19.066301345825195 8.133100509643555 C19.066301345825195 8.133100509643555 19.2523193359375 7.909482002258301 19.690095901489258 7.909482002258301 C20.127872467041016 7.909482002258301 20.239431381225586 8.384611129760742 20.239431381225586 8.579841613769531 L20.239431381225586 9.380813598632812 L19.531719207763672 9.380813598632812 L19.531719207763672 8.775447845458984 C19.531719207763672 8.775447845458984 19.52225685119629 8.487082481384277 19.27099609375 8.487082481384277 C19.019487380981445 8.487082481384277 19.028823852539062 8.756895065307617 19.028823852539062 8.756895065307617 L19.028823852539062 11.075639724731445 C19.028823852539062 11.075639724731445 19.038288116455078 11.168523788452148 19.075515747070312 11.2149658203125 C19.112743377685547 11.2615327835083 19.1591854095459 11.335492134094238 19.1591854095459 11.335492134094238 L18.200336456298828 11.335492134094238 C18.200336456298828 11.335492134094238 18.237565994262695 11.298761367797852 18.27479362487793 11.243230819702148 C18.312021255493164 11.187324523925781 18.302806854248047 11.084853172302246 18.302806854248047 11.084853172302246 L18.302806854248047 8.198344230651855 C18.302806854248047 8.198344230651855 18.293594360351562 8.077072143554688 18.246902465820312 8.030630111694336 L18.144432067871094 7.928157806396484 L18.144432067871094 7.928157806396484 M22.716182708740234 9.65037727355957 C22.716182708740234 9.65037727355957 22.790637969970703 7.87225341796875 21.66394805908203 7.87225341796875 C20.537261962890625 7.87225341796875 20.565025329589844 9.659963607788086 20.565025329589844 9.659963607788086 C20.565025329589844 9.659963607788086 20.57448959350586 11.335243225097656 21.636058807373047 11.335243225097656 C22.697628021240234 11.335243225097656 22.716304779052734 10.014069557189941 22.716304779052734 10.014069557189941 L22.026893615722656 10.014069557189941 C22.026893615722656 10.014069557189941 22.09201431274414 10.786528587341309 21.645397186279297 10.786528587341309 C21.198406219482422 10.786528587341309 21.291540145874023 9.65037727355957 21.291540145874023 9.65037727355957 L22.716182708740234 9.65037727355957 L22.716182708740234 9.65037727355957 M21.617507934570312 8.440017700195312 C21.952810287475586 8.440017700195312 21.91545867919922 9.10141372680664 21.91545867919922 9.10141372680664 L21.31021499633789 9.10141372680664 C21.310091018676758 9.10141372680664 21.28219985961914 8.440017700195312 21.617507934570312 8.440017700195312 M16.7105770111084 7.909357070922852 C15.882089614868164 7.909357070922852 15.611903190612793 8.840564727783203 15.611903190612793 9.678640365600586 C15.611903190612793 10.51646614074707 15.882089614868164 11.335243225097656 16.701114654541016 11.335243225097656 C17.52063751220703 11.335243225097656 17.753345489501953 10.51646614074707 17.753345489501953 9.687729835510254 C17.753345489501953 8.85911750793457 17.53931427001953 7.909357070922852 16.7105770111084 7.909357070922852 L16.7105770111084 7.909357070922852 M16.645458221435547 10.721409797668457 C16.384485244750977 10.721409797668457 16.32883071899414 10.134719848632812 16.32883071899414 9.603935241699219 C16.32883071899414 9.073274612426758 16.412750244140625 8.514598846435547 16.66388702392578 8.514598846435547 C16.915395736694336 8.514598846435547 17.008529663085938 8.719541549682617 17.008529663085938 9.603935241699219 C17.008529663085938 10.488700866699219 16.90605926513672 10.721409797668457 16.645458221435547 10.721409797668457 M11.794309616088867 7.937496185302734 L12.567266464233398 7.937496185302734 L12.678827285766602 8.123763084411621 C12.678827285766602 8.123763084411621 12.837079048156738 8.002739906311035 13.023469924926758 7.946834564208984 C13.209736824035645 7.891178607940674 13.377326965332031 7.900268077850342 13.507688522338867 7.974725246429443 C13.638050079345703 8.049181938171387 13.712632179260254 8.142065048217773 13.712632179260254 8.142065048217773 C13.712632179260254 8.142065048217773 13.861421585083008 8.030630111694336 14.09412956237793 7.965386390686035 C14.326838493347168 7.900268077850342 14.728382110595703 7.8838324546813965 14.904438972473145 8.077072143554688 C15.090456008911133 8.282014846801758 15.07178020477295 8.672850608825684 15.07178020477295 8.672850608825684 L15.07178020477295 11.093568801879883 C15.07178020477295 11.093568801879883 15.086098670959473 11.183341026306152 15.1090087890625 11.224305152893066 C15.141630172729492 11.281455039978027 15.192928314208984 11.335243225097656 15.192928314208984 11.335243225097656 L14.243291854858398 11.335243225097656 C14.243291854858398 11.335243225097656 14.289982795715332 11.27087116241455 14.3177490234375 11.214716911315918 C14.345515251159668 11.158812522888184 14.355226516723633 11.07539176940918 14.355226516723633 11.07539176940918 L14.355226516723633 8.793998718261719 C14.355226516723633 8.793998718261719 14.336549758911133 8.6076078414917 14.122268676757812 8.6076078414917 C13.907987594604492 8.6076078414917 13.852331161499023 8.84990406036377 13.852331161499023 8.84990406036377 L13.852331161499023 11.103281021118164 C13.852331161499023 11.103281021118164 13.86154556274414 11.196165084838867 13.907987594604492 11.233393669128418 C13.954679489135742 11.27087116241455 14.001120567321777 11.335243225097656 14.001120567321777 11.335243225097656 L13.004793167114258 11.335243225097656 C13.004793167114258 11.335243225097656 13.060948371887207 11.27087116241455 13.09792709350586 11.214716911315918 C13.13515567779541 11.158812522888184 13.144866943359375 11.065803527832031 13.144866943359375 11.065803527832031 L13.144866943359375 8.822012901306152 C13.144866943359375 8.822012901306152 13.144866943359375 8.6076078414917 12.902446746826172 8.6076078414917 C12.660524368286133 8.6076078414917 12.632509231567383 8.822012901306152 12.632509231567383 8.822012901306152 L12.632509231567383 11.093693733215332 C12.632509231567383 11.093693733215332 12.632509231567383 11.177489280700684 12.67895221710205 11.233518600463867 C12.725394248962402 11.289671897888184 12.762870788574219 11.335367202758789 12.762870788574219 11.335367202758789 L11.803524017333984 11.335367202758789 C11.803524017333984 11.335367202758789 11.850214958190918 11.289546966552734 11.88731861114502 11.2431058883667 C11.924548149108887 11.1962890625 11.915457725524902 11.112370491027832 11.915457725524902 11.112370491027832 L11.915457725524902 8.160866737365723 C11.915457725524902 8.160866737365723 11.88731861114502 8.05864429473877 11.859428405761719 8.030630111694336 C11.824193000793457 7.995019435882568 11.794309616088867 7.937496185302734 11.794309616088867 7.937496185302734 L11.794309616088867 7.937496185302734 M11.235758781433105 11.177364349365234 C11.198407173156738 11.103281021118164 11.198407173156738 11.010148048400879 11.198407173156738 11.010148048400879 L11.198407173156738 8.756771087646484 C11.198407173156738 8.756771087646484 11.235758781433105 8.188756942749023 10.89111614227295 8.021415710449219 C10.546722412109375 7.853825569152832 10.1370849609375 7.863163948059082 9.904252052307129 7.956172943115234 C9.671419143676758 8.049306869506836 9.634190559387207 8.07719612121582 9.541056632995605 8.06785774230957 C9.44792366027832 8.058769226074219 9.364129066467285 8.03996753692627 9.364129066467285 8.03996753692627 L9.364129066467285 9.110626220703125 L9.922928810119629 9.110626220703125 L9.922928810119629 8.803088188171387 C9.922928810119629 8.803088188171387 9.938118934631348 8.67720890045166 10.053289413452148 8.579717636108398 C10.122642517089844 8.521073341369629 10.248023986816406 8.487580299377441 10.351242065429688 8.523812294006348 C10.509493827819824 8.579717636108398 10.49081802368164 8.747431755065918 10.49081802368164 8.747431755065918 L10.49081802368164 9.12009048461914 C10.49081802368164 9.12009048461914 10.518957138061523 9.240988731384277 10.248770713806152 9.287555694580078 C9.978833198547363 9.334246635437012 9.671544075012207 9.408703804016113 9.466849327087402 9.687853813171387 C9.261906623840332 9.967503547668457 9.112993240356445 10.432671546936035 9.252567291259766 10.851895332336426 C9.3923921585083 11.27099609375 9.587747573852539 11.335367202758789 9.876485824584961 11.335367202758789 C10.16510009765625 11.335367202758789 10.44425106048584 11.149598121643066 10.44425106048584 11.149598121643066 C10.44425106048584 11.149598121643066 10.481603622436523 11.214716911315918 10.509493827819824 11.261283874511719 C10.537508964538574 11.307974815368652 10.593414306640625 11.335367202758789 10.593414306640625 11.335367202758789 L11.347569465637207 11.335367202758789 C11.347444534301758 11.335367202758789 11.273112297058105 11.252195358276367 11.235758781433105 11.177364349365234 L11.235758781433105 11.177364349365234 M10.490692138671875 10.51659107208252 C10.490692138671875 10.51659107208252 10.47226619720459 10.814542770385742 10.183527946472168 10.814542770385742 C9.895038604736328 10.814542770385742 9.92280387878418 10.367552757263184 9.92280387878418 10.367552757263184 C9.92280387878418 10.367552757263184 9.913216590881348 9.98580551147461 10.099607467651367 9.864782333374023 C10.285874366760254 9.744009017944336 10.490692138671875 9.744009017944336 10.490692138671875 9.744009017944336 L10.490692138671875 10.51659107208252 L10.490692138671875 10.51659107208252 M7.697566032409668 6.826371192932129 L8.656539916992188 6.826371192932129 L8.656539916992188 11.028824806213379 C8.656539916992188 11.028824806213379 8.675216674804688 11.177364349365234 8.721908569335938 11.224305152893066 C8.782419204711914 11.28419303894043 8.815040588378906 11.335243225097656 8.815040588378906 11.335243225097656 L7.716366767883301 11.335243225097656 C7.716366767883301 11.335243225097656 7.809873580932617 11.282949447631836 7.837514877319336 11.1870756149292 C7.855942726135254 11.121832847595215 7.855942726135254 11.047002792358398 7.855942726135254 11.047002792358398 L7.855942726135254 7.108883857727051 C7.855942726135254 7.108883857727051 7.846604347229004 6.978522300720215 7.809251308441162 6.941293716430664 C7.751104831695557 6.883022785186768 7.697566032409668 6.826371192932129 7.697566032409668 6.826371192932129 L7.697566032409668 6.826371192932129 M6.273049831390381 6.826371192932129 L7.231899738311768 6.826371192932129 L7.231899738311768 11.028824806213379 C7.231899738311768 11.028824806213379 7.2507004737854 11.177364349365234 7.297142505645752 11.224305152893066 C7.357654094696045 11.28419303894043 7.390524864196777 11.335243225097656 7.390524864196777 11.335243225097656 L6.291726589202881 11.335243225097656 C6.291726589202881 11.335243225097656 6.385357856750488 11.282949447631836 6.412750244140625 11.1870756149292 C6.431302070617676 11.121832847595215 6.431302070617676 11.047002792358398 6.431302070617676 11.047002792358398 L6.431302070617676 7.108883857727051 C6.431302070617676 7.108883857727051 6.421963691711426 6.978522300720215 6.384610652923584 6.941293716430664 C6.326589107513428 6.883022785186768 6.273049831390381 6.826371192932129 6.273049831390381 6.826371192932129 L6.273049831390381 6.826371192932129 M3.5913591384887695 7.946834564208984 L4.475876808166504 7.946834564208984 L4.475876808166504 10.55381965637207 C4.475876808166504 10.55381965637207 4.438647747039795 10.814542770385742 4.689908504486084 10.814542770385742 C4.997323513031006 10.814542770385742 4.978771209716797 10.54448127746582 4.978771209716797 10.54448127746582 L4.978771209716797 8.272801399230957 C4.978771209716797 8.272801399230957 4.988109588623047 8.151529312133789 4.932204246520996 8.08653450012207 L4.820146083831787 7.956048011779785 L5.714126110076904 7.956048011779785 L5.714126110076904 11.000808715820312 C5.714126110076904 11.000808715820312 5.723713397979736 11.103281021118164 5.77949333190918 11.187200546264648 C5.842868804931641 11.281952857971191 5.872502326965332 11.335367202758789 5.872502326965332 11.335367202758789 L5.127684593200684 11.335367202758789 C5.127684593200684 11.335367202758789 5.0440144538879395 11.32640266418457 4.997447967529297 11.2431058883667 C4.950756549835205 11.158812522888184 4.950756549835205 11.149598121643066 4.950756549835205 11.149598121643066 C4.950756549835205 11.149598121643066 4.680819511413574 11.335367202758789 4.345639228820801 11.335367202758789 C4.010458946228027 11.335367202758789 3.9638919830322266 11.1962890625 3.8612966537475586 11.047126770019531 C3.750856399536133 10.886011123657227 3.7590742111206055 10.51659107208252 3.7590742111206055 10.51659107208252 L3.7590742111206055 8.272801399230957 C3.7590742111206055 8.272801399230957 3.7590742111206055 8.142065048217773 3.7031688690185547 8.08653450012207 C3.6304550170898438 8.013571739196777 3.5913591384887695 7.946834564208984 3.5913591384887695 7.946834564208984 L3.5913591384887695 7.946834564208984" fill="black" fill-opacity="1.0" filling="0"/>
<path animation_id="2" d="M1.0588302612304688 6.826371192932129 L3.665816307067871 6.826371192932129 L3.665816307067871 7.6674346923828125 C3.665816307067871 7.6674346923828125 3.6008214950561523 7.518396377563477 3.442445755004883 7.462367057800293 C3.2841930389404297 7.406586647033691 3.181722640991211 7.402104377746582 3.181722640991211 7.402104377746582 L2.744194984436035 7.402104377746582 L2.744194984436035 10.954117774963379 C2.744194984436035 10.954117774963379 2.7535324096679688 11.140509605407715 2.7999753952026367 11.205628395080566 C2.869326591491699 11.302248001098633 2.9211225509643555 11.335243225097656 2.9211225509643555 11.335243225097656 L1.7757577896118164 11.335243225097656 C1.7757577896118164 11.335243225097656 1.8484716415405273 11.293905258178711 1.9062442779541016 11.168274879455566 C1.952810287475586 11.065803527832031 1.952810287475586 10.944655418395996 1.952810287475586 10.944655418395996 L1.952810287475586 7.402228832244873 L1.449915885925293 7.402228832244873 C1.449915885925293 7.402228832244873 1.319554328918457 7.434601306915283 1.2264204025268555 7.490506172180176 C1.1335363388061523 7.546162128448486 1.0588302612304688 7.6674346923828125 1.0588302612304688 7.6674346923828125 L1.0588302612304688 6.826371192932129 M20.236446380615234 8.250514030456543 C20.322481155395508 8.402291297912598 20.349498748779297 8.577476501464844 20.349498748779297 8.668119430541992 L20.349498748779297 9.49087905883789 L19.75558853149414 9.49087905883789 L19.75558853149414 9.604557037353516 L20.463050842285156 9.604557037353516 L20.463050842285156 8.803959846496582 C20.463176727294922 8.669612884521484 20.410633087158203 8.403785705566406 20.236446380615234 8.250514030456543 L20.236446380615234 8.250514030456543 M19.345951080322266 8.594533920288086 C19.281204223632812 8.594533920288086 19.243104934692383 8.616323471069336 19.206125259399414 8.654548645019531 C19.136276245117188 8.726638793945312 19.139015197753906 8.843304634094238 19.139015197753906 8.844176292419434 L19.139015197753906 11.1618013381958 C19.14162826538086 11.186328887939453 19.154081344604492 11.2555570602417 19.180850982666016 11.289422988891602 C19.218578338623047 11.336612701416016 19.264022827148438 11.408702850341797 19.266263961791992 11.411567687988281 L19.287429809570312 11.445184707641602 L18.509742736816406 11.445184707641602 A0.11741269379854202 0.11741269379854202 0.0 0 1 18.499034881591797 11.466476440429688 C18.461559295654297 11.522380828857422 18.526552200317383 11.559110641479492 18.526552200317383 11.559110641479492 L19.28307342529297 11.559110641479492 C19.28307342529297 11.559110641479492 19.33711051940918 11.48540210723877 19.299633026123047 11.438586235046387 C19.26240348815918 11.392019271850586 19.253190994262695 11.299010276794434 19.253190994262695 11.299010276794434 L19.253190994262695 8.980887413024902 C19.253190994262695 8.980887413024902 19.215713500976562 8.71082592010498 19.394508361816406 8.71082592010498 C19.418289184570312 8.71082592010498 19.375083923339844 8.706094741821289 19.394508361816406 8.71082592010498 C19.452655792236328 8.720911026000977 19.454896926879883 8.594533920288086 19.345951080322266 8.594533920288086 L19.345951080322266 8.594533920288086 M19.162548065185547 8.181410789489746 L19.141132354736328 8.152275085449219 L19.131420135498047 8.152275085449219 L19.156696319580078 8.18676471710205 A0.04482350870966911 0.04482350870966911 0.0 0 0 19.162548065185547 8.181410789489746 M21.724336624145508 11.445308685302734 C21.54068374633789 11.445308685302734 21.388782501220703 11.395380973815918 21.261531829833984 11.313328742980957 C21.40982437133789 11.461246490478516 21.60393524169922 11.559235572814941 21.860050201416016 11.559235572814941 C22.921497344970703 11.559235572814941 22.940296173095703 10.237689018249512 22.940296173095703 10.237689018249512 L22.81553840637207 10.237689018249512 C22.77532196044922 10.578597068786621 22.589054107666016 11.445308685302734 21.724336624145508 11.445308685302734 L21.724336624145508 11.445308685302734 M22.826372146606445 9.73965072631836 L22.825376510620117 9.761066436767578 L21.40011215209961 9.761066436767578 C21.392393112182617 9.885202407836914 21.36101722717285 10.55070686340332 21.570816040039062 10.778310775756836 C21.58563232421875 10.794994354248047 21.601943969726562 10.807446479797363 21.61850357055664 10.818403244018555 C21.464859008789062 10.494304656982422 21.515655517578125 9.874618530273438 21.515655517578125 9.874618530273438 L22.940174102783203 9.874618530273438 C22.940174102783203 9.874618530273438 22.982505798339844 8.853887557983398 22.512855529785156 8.35945987701416 C22.857498168945312 8.881653785705566 22.827865600585938 9.701425552368164 22.826372146606445 9.73965072631836 L22.826372146606445 9.73965072631836 M21.722841262817383 8.66425895690918 C21.740520477294922 8.66425895690918 21.70677947998047 8.660897254943848 21.722841262817383 8.66425895690918 C21.761066436767578 8.657910346984863 21.77077865600586 8.653800964355469 21.765674591064453 8.619062423706055 C21.761066436767578 8.585321426391602 21.746746063232422 8.555936813354492 21.688352584838867 8.551204681396484 C21.63095474243164 8.546473503112793 21.600574493408203 8.571001052856445 21.559484481811523 8.61370849609375 C21.425262451171875 8.75403118133545 21.418914794921875 9.081616401672363 21.41990852355957 9.167652130126953 L21.538318634033203 9.167652130126953 C21.554004669189453 8.958974838256836 21.557743072509766 8.66425895690918 21.722841262817383 8.66425895690918 L21.722841262817383 8.66425895690918 M16.75141716003418 8.725643157958984 C16.778682708740234 8.725643157958984 16.800098419189453 8.716054916381836 16.804706573486328 8.68218994140625 C16.809810638427734 8.628898620605469 16.770217895507812 8.624167442321777 16.731992721557617 8.625040054321289 C16.50115203857422 8.631264686584473 16.43889808654785 9.17636775970459 16.43889808654785 9.69208812713623 C16.43889808654785 10.327585220336914 16.49704360961914 10.560667991638184 16.649442672729492 10.636494636535645 C16.55581283569336 10.423333168029785 16.552698135375977 10.181784629821777 16.552698135375977 9.828425407409668 C16.552698135375977 9.297018051147461 16.605989456176758 8.725643157958984 16.75141716003418 8.725643157958984 L16.75141716003418 8.725643157958984" fill="black" fill-opacity="1.0" filling="0"/>
<path animation_id="3" d="M17.863536834716797 9.776006698608398 C17.863536834716797 10.852519035339355 17.482288360595703 11.4454345703125 16.789390563964844 11.4454345703125 C16.579219818115234 11.4454345703125 16.40876579284668 11.393513679504395 16.26993751525879 11.307228088378906 C16.432422637939453 11.465106010437012 16.64682960510254 11.559359550476074 16.925357818603516 11.559359550476074 C17.744632720947266 11.559359550476074 17.977338790893555 10.740335464477539 17.977338790893555 9.911848068237305 C17.977338790893555 9.354541778564453 17.880098342895508 8.742326736450195 17.56421661376953 8.401419639587402 C17.81199073791504 8.791135787963867 17.863536834716797 9.367490768432617 17.863536834716797 9.776006698608398 L17.863536834716797 9.776006698608398 M12.124384880065918 11.445308685302734 A0.10035485029220581 0.10035485029220581 0.0 0 1 12.11143684387207 11.46660041809082 C12.07420825958252 11.51329231262207 12.134843826293945 11.559235572814941 12.134843826293945 11.559235572814941 L12.867086410522461 11.559235572814941 C12.867086410522461 11.559235572814941 12.949511528015137 11.51329231262207 12.903068542480469 11.457386016845703 A0.1317313015460968 0.1317313015460968 0.0 0 1 12.89460277557373 11.445308685302734 L12.124384880065918 11.445308685302734 L12.124384880065918 11.445308685302734 M12.990599632263184 8.717798233032227 C12.776069641113281 8.717798233032227 12.744941711425781 8.89647102355957 12.742825508117676 8.911785125732422 L12.742825508117676 11.181846618652344 C12.742825508117676 11.182843208312988 12.74332332611084 11.258918762207031 12.773454666137695 11.300753593444824 L12.818402290344238 11.354043960571289 C12.89597225189209 11.363879203796387 12.856377601623535 11.257299423217773 12.856377601623535 11.257299423217773 L12.856377601623535 9.046006202697754 C12.856377601623535 9.046006202697754 12.884393692016602 8.831850051879883 13.12631607055664 8.831850051879883 C13.152338027954102 8.831850051879883 13.174750328063965 8.834465026855469 13.195169448852539 8.838946342468262 C13.173504829406738 8.784162521362305 13.120463371276855 8.717798233032227 12.990599632263184 8.717798233032227 L12.990599632263184 8.717798233032227 M15.333126068115234 11.44804859161377 C15.296645164489746 11.419037818908691 15.295897483825684 11.317811965942383 15.295897483825684 11.317811965942383 L15.295897483825684 8.896968841552734 C15.295897483825684 8.896968841552734 15.314325332641602 8.505759239196777 15.128307342529297 8.301189422607422 A0.3538566827774048 0.3538566827774048 0.0 0 0 15.083358764648438 8.260848045349121 C15.193550109863281 8.472390174865723 15.182843208312988 8.748428344726562 15.182095527648926 8.762248992919922 L15.182095527648926 11.181970596313477 C15.182095527648926 11.220070838928223 15.197659492492676 11.274107933044434 15.21060848236084 11.294900894165039 C15.248085021972656 11.354167938232422 15.29527473449707 11.403846740722656 15.30038070678711 11.412688255310059 L15.318557739257812 11.445558547973633 L14.538131713867188 11.445558547973633 C14.428688049316406 11.499844551086426 14.540122985839844 11.559484481811523 14.540122985839844 11.559484481811523 L15.335616111755371 11.559484481811523 C15.335616111755371 11.559235572814941 15.422898292541504 11.51889419555664 15.333126068115234 11.44804859161377 L15.333126068115234 11.44804859161377 M13.31718921661377 11.445308685302734 C13.230903625488281 11.51416301727295 13.323040008544922 11.559235572814941 13.323040008544922 11.559235572814941 L14.127996444702148 11.559235572814941 C14.127996444702148 11.559235572814941 14.178297996520996 11.49461555480957 14.131855964660645 11.457386016845703 C14.127747535705566 11.454150199890137 14.124136924743652 11.449666976928711 14.120401382446289 11.445308685302734 L13.31718921661377 11.445308685302734 L13.31718921661377 11.445308685302734 M14.210421562194824 8.717798233032227 C14.023407936096191 8.717798233032227 13.967752456665039 8.918383598327637 13.962149620056152 8.940919876098633 L13.962149620056152 11.189940452575684 C13.964763641357422 11.21359634399414 13.977962493896484 11.279336929321289 14.010086059570312 11.30461311340332 C14.040963172912598 11.329514503479004 14.040714263916016 11.330138206481934 14.064993858337402 11.330138206481934 C14.103716850280762 11.315569877624512 14.076200485229492 11.22305965423584 14.076200485229492 11.22305965423584 L14.076200485229492 9.073896408081055 C14.076200485229492 9.073896408081055 14.131855964660645 8.831974029541016 14.346137046813965 8.831974029541016 C14.369047164916992 8.831974029541016 14.389217376708984 8.834465026855469 14.407894134521484 8.838324546813965 C14.388221740722656 8.788520812988281 14.33779525756836 8.717798233032227 14.210421562194824 8.717798233032227 L14.210421562194824 8.717798233032227 M12.79387378692627 8.166095733642578 L12.791259765625 8.161489486694336 L12.762621879577637 8.161489486694336 L12.773828506469727 8.18016529083252 C12.779306411743164 8.175932884216309 12.785781860351562 8.171449661254883 12.79387378692627 8.166095733642578 M11.422399520874023 11.234140396118164 L11.422399520874023 8.980887413024902 C11.422399520874023 8.980887413024902 11.452032089233398 8.517088890075684 11.202888488769531 8.304426193237305 C11.326278686523438 8.533025741577148 11.309843063354492 8.829235076904297 11.308721542358398 8.846542358398438 L11.308721542358398 11.098052024841309 C11.308721542358398 11.099047660827637 11.309220314025879 11.187324523925781 11.343585014343262 11.255929946899414 C11.379070281982422 11.327025413513184 11.451534271240234 11.4080810546875 11.452032089233398 11.408827781677246 L11.484903335571289 11.4454345703125 L10.709830284118652 11.4454345703125 C10.717674255371094 11.45925521850586 10.726140975952148 11.473323822021484 10.733487129211426 11.485651016235352 C10.761253356933594 11.532093048095703 10.817157745361328 11.559359550476074 10.817157745361328 11.559359550476074 L11.43161392211914 11.559359550476074 C11.43161392211914 11.559359550476074 11.567328453063965 11.538317680358887 11.459753036499023 11.40173053741455 C11.4080810546875 11.336238861083984 11.422399520874023 11.234140396118164 11.422399520874023 11.234140396118164 L11.422399520874023 11.234140396118164 M10.146797180175781 9.09643268585205 L10.146797180175781 9.027454376220703 C10.146797180175781 9.027454376220703 10.174687385559082 8.821515083312988 10.253128051757812 8.77432632446289 C10.301811218261719 8.745190620422363 10.34526538848877 8.725643157958984 10.398804664611816 8.74021053314209 C10.383489608764648 8.699745178222656 10.335430145263672 8.63562297821045 10.306543350219727 8.633131980895996 C10.258233070373535 8.629023551940918 10.199962615966797 8.638609886169434 10.150532722473145 8.688289642333984 C10.093257904052734 8.730748176574707 10.033120155334473 8.85164737701416 10.033120155334473 8.96831226348877 L10.033120155334473 9.099172592163086 L10.146797180175781 9.09643268585205 L10.146797180175781 9.09643268585205 M10.141817092895508 9.220817565917969 L9.588247299194336 9.220817565917969 L9.588247299194336 9.334620475769043 L10.146797180175781 9.334620475769043 L10.141817092895508 9.220817565917969 M10.146797180175781 10.591670989990234 C10.146797180175781 10.591670989990234 10.110689163208008 10.194857597351074 10.296955108642578 10.074084281921387 C10.377264976501465 10.021540641784668 10.401917457580566 10.025400161743164 10.401917457580566 10.025400161743164 L10.401917457580566 9.90898323059082 C10.401917457580566 9.90898323059082 10.343896865844727 9.877731323242188 10.199962615966797 9.971363067626953 C10.02627182006836 10.084293365478516 10.033120155334473 10.451473236083984 10.033120155334473 10.455207824707031 C10.032995223999023 10.459441184997559 10.044699668884277 10.607358932495117 10.078690528869629 10.694391250610352 C10.087281227111816 10.716678619384766 10.1029691696167 10.733487129211426 10.127373695373535 10.723774909973145 C10.175559043884277 10.704103469848633 10.146797180175781 10.591670989990234 10.146797180175781 10.591670989990234 L10.146797180175781 10.591670989990234 M10.505509376525879 11.402603149414062 A6.166345119476318 6.166345119476318 0.0 0 1 10.451348304748535 11.310464859008789 C10.382245063781738 11.35254955291748 10.21614933013916 11.445308685302734 9.964639663696289 11.445308685302734 C9.836767196655273 11.445308685302734 9.7288179397583 11.431488037109375 9.63618278503418 11.38629150390625 C9.756957054138184 11.5297269821167 9.907862663269043 11.559235572814941 10.100231170654297 11.559235572814941 C10.314138412475586 11.559235572814941 10.448857307434082 11.499471664428711 10.542862892150879 11.446305274963379 A0.1890057921409607 0.1890057921409607 0.0 0 1 10.505509376525879 11.402603149414062 M8.939675331115723 11.439830780029297 L8.943161964416504 11.445308685302734 L8.04793643951416 11.445308685302734 C8.011455535888672 11.519640922546387 8.056403160095215 11.559235572814941 8.056403160095215 11.559235572814941 L8.90481185913086 11.559235572814941 C8.90481185913086 11.559235572814941 9.006038665771484 11.507813453674316 8.945527076721191 11.44804859161377 C8.943534851074219 11.445932388305664 8.941791534423828 11.442569732666016 8.939675331115723 11.439830780029297 M8.825624465942383 11.296769142150879 C8.85164737701416 11.324908256530762 8.879537582397461 11.32764720916748 8.880657196044922 11.330138206481934 C8.904936790466309 11.305733680725098 8.88040828704834 11.252817153930664 8.88040828704834 11.252817153930664 L8.88040828704834 7.0503644943237305 L8.766731262207031 7.0503644943237305 L8.766731262207031 11.115358352661133 C8.772085189819336 11.155450820922852 8.793500900268555 11.261905670166016 8.825624465942383 11.296769142150879 L8.825624465942383 11.296769142150879 M7.515159606933594 11.439830780029297 L7.518645763397217 11.445308685302734 L6.623295783996582 11.445308685302734 C6.586938858032227 11.519640922546387 6.6533026695251465 11.559235572814941 6.6533026695251465 11.559235572814941 L7.480794429779053 11.559235572814941 C7.480794429779053 11.559235572814941 7.5816473960876465 11.507813453674316 7.521135330200195 11.44804859161377 C7.51901912689209 11.445932388305664 7.517275810241699 11.442569732666016 7.515159606933594 11.439830780029297 L7.515159606933594 11.439830780029297 M7.400983810424805 11.296769142150879 C7.44045352935791 11.339475631713867 7.453651428222656 11.309843063354492 7.454896450042725 11.31220817565918 C7.474569320678711 11.291041374206543 7.455892562866211 11.252941131591797 7.455892562866211 11.252941131591797 L7.455892562866211 7.0503644943237305 L7.342339992523193 7.0503644943237305 L7.342339992523193 11.115358352661133 C7.347320079803467 11.155450820922852 7.368984699249268 11.261905670166016 7.400983810424805 11.296769142150879 L7.400983810424805 11.296769142150879 M5.0664262771606445 11.341717720031738 A1.0213534832000732 1.0213534832000732 0.0 0 1 5.028824329376221 11.27037239074707 C4.956982135772705 11.314823150634766 4.720911502838135 11.445308685302734 4.4339165687561035 11.445308685302734 C4.319616794586182 11.445308685302734 4.237564563751221 11.429496765136719 4.174811840057373 11.40322494506836 C4.244537353515625 11.492996215820312 4.338418006896973 11.559235572814941 4.569632053375244 11.559235572814941 C4.816659927368164 11.559235572814941 5.027703762054443 11.458507537841797 5.122206211090088 11.405466079711914 A0.20170578360557556 0.20170578360557556 0.0 0 1 5.0664262771606445 11.341717720031738 L5.0664262771606445 11.341717720031738 M5.93836784362793 11.224554061889648 L5.93836784362793 8.180290222167969 L5.824690341949463 8.180290222167969 L5.824690341949463 11.088961601257324 C5.824690341949463 11.087966918945312 5.834278106689453 11.184959411621094 5.8861985206604 11.262778282165527 C5.94920015335083 11.357281684875488 5.9789581298828125 11.41069507598877 5.980203151702881 11.413061141967773 L5.998256683349609 11.4454345703125 L5.213845729827881 11.4454345703125 L5.2093634605407715 11.44481086730957 L5.22144079208374 11.466849327087402 A0.18302932381629944 0.18302932381629944 0.0 0 0 5.351802825927734 11.559484481811523 L5.968125343322754 11.559484481811523 C5.968125343322754 11.559484481811523 6.066986560821533 11.505820274353027 6.003610610961914 11.411069869995117 C5.94770622253418 11.327149391174316 5.93836784362793 11.224554061889648 5.93836784362793 11.224554061889648 L5.93836784362793 11.224554061889648 M4.5861921310424805 10.64346694946289 L4.585943222045898 10.6449613571167 C4.585818767547607 10.64620590209961 4.571250915527344 10.755899429321289 4.630766868591309 10.824378967285156 C4.649318218231201 10.84542179107666 4.673971652984619 10.860113143920898 4.70335578918457 10.8693265914917 C4.694266319274902 10.819398880004883 4.700118541717529 10.777688026428223 4.700118541717529 10.777688026428223 L4.700118541717529 8.170951843261719 L4.5863165855407715 8.170951843261719 L4.5863165855407715 10.64346694946289 L4.5861921310424805 10.64346694946289 L4.5861921310424805 10.64346694946289 M2.101724624633789 11.445308685302734 C2.051173210144043 11.529104232788086 2.127124786376953 11.559235572814941 2.127124786376953 11.559235572814941 L3.0193614959716797 11.559235572814941 C3.0193614959716797 11.559235572814941 3.0991716384887695 11.529104232788086 3.036046028137207 11.445308685302734 L2.101724624633789 11.445308685302734 M3.405838966369629 7.625848770141602 C3.405838966369629 7.625848770141602 3.5081872940063477 7.630704402923584 3.666438102722168 7.6864848136901855 C3.675776481628418 7.689721584320068 3.6833715438842773 7.694204330444336 3.691838264465332 7.697939395904541 C3.6582212448120117 7.654111862182617 3.6036853790283203 7.599950313568115 3.523252487182617 7.571437835693359 C3.370603561401367 7.517275810241699 3.2699995040893555 7.512295246124268 3.268878936767578 7.512295246124268 L2.8543853759765625 7.512295246124268 L2.8543853759765625 11.042520523071289 C2.8567514419555664 11.091203689575195 2.870945930480957 11.231650352478027 2.9061813354492188 11.280956268310547 C2.950009346008301 11.342464447021484 2.9871129989624023 11.308847427368164 3.0064125061035156 11.324908256530762 A0.6673722267150879 0.6673722267150879 0.0 0 1 2.9680633544921875 11.17811107635498 L2.9680633544921875 7.625848770141602 L3.405838966369629 7.625848770141602 M1.5410566329956055 7.512295246124268 C1.5278596878051758 7.515532970428467 1.410447120666504 7.546908855438232 1.3259048461914062 7.5974602699279785 A0.36854884028434753 0.36854884028434753 0.0 0 0 1.2826995849609375 7.629832744598389 L1.2826995849609375 7.729938507080078 C1.2826995849609375 7.729938507080078 1.3469467163085938 7.698562145233154 1.4502897262573242 7.665193557739258 C1.5706901550292969 7.626470565795898 1.6736602783203125 7.625848770141602 1.6736602783203125 7.625848770141602 L2.0186758041381836 7.625848770141602 L2.0186758041381836 7.512295246124268 L1.5410566329956055 7.512295246124268 L1.5410566329956055 7.512295246124268 M3.889932632446289 7.678391456604004 L3.889932632446289 7.0503644943237305 L3.776007652282715 7.0503644943237305 L3.776007652282715 7.748988628387451 C3.8551950454711914 7.81335973739624 3.889932632446289 7.678391456604004 3.889932632446289 7.678391456604004 M12.904562950134277 13.513540267944336 L13.798791885375977 13.513540267944336 C13.798791885375977 13.513540267944336 13.752100944519043 13.560357093811035 13.73342514038086 13.634689331054688 C13.7196044921875 13.689597129821777 13.742887496948242 13.79318904876709 13.742887496948242 13.79318904876709 L14.115171432495117 15.394634246826172 L14.496918678283691 13.755587577819824 C14.496918678283691 13.755587577819824 14.50638198852539 13.653365135192871 14.478241920471191 13.616510391235352 C14.450475692749023 13.57890796661377 14.413124084472656 13.523003578186035 14.413124084472656 13.523003578186035 L15.268132209777832 13.523003578186035 C15.268132209777832 13.523003578186035 15.204631805419922 13.569570541381836 15.195418357849121 13.634563446044922 A0.291352778673172 0.291352778673172 0.0 0 0 15.204631805419922 13.755587577819824 L15.586379051208496 15.450040817260742 L15.995890617370605 13.718483924865723 C15.995890617370605 13.718483924865723 16.005104064941406 13.653365135192871 15.986678123474121 13.60679817199707 C15.968000411987305 13.560357093811035 15.92155933380127 13.523003578186035 15.92155933380127 13.523003578186035 L16.70360565185547 13.523003578186035 C16.70360565185547 13.523003578186035 16.657161712646484 13.560357093811035 16.629148483276367 13.616510391235352 C16.60088348388672 13.671916961669922 16.5919189453125 13.746623039245605 16.5919189453125 13.746623039245605 L15.930647850036621 16.68853759765625 C15.930647850036621 16.68853759765625 15.92143440246582 16.753908157348633 15.949324607849121 16.8099365234375 C15.977340698242188 16.865591049194336 16.03324317932129 16.948888778686523 16.03324317932129 16.948888778686523 L15.092573165893555 16.948888778686523 C15.092573165893555 16.948888778686523 15.149225234985352 16.863475799560547 15.16752815246582 16.807693481445312 C15.18620491027832 16.751914978027344 15.167279243469238 16.679325103759766 15.167279243469238 16.679325103759766 L14.813173294067383 15.1618013381958 L14.44113826751709 16.698001861572266 C14.44113826751709 16.698001861572266 14.427566528320312 16.77743911743164 14.444997787475586 16.81267547607422 C14.469277381896973 16.861358642578125 14.53402328491211 16.94901466369629 14.53402328491211 16.94901466369629 L13.621615409851074 16.94901466369629 C13.621615409851074 16.94901466369629 13.68536376953125 16.85226821899414 13.712757110595703 16.802839279174805 C13.737035751342773 16.759384155273438 13.714499473571777 16.67023468017578 13.714499473571777 16.67023468017578 L13.02558708190918 13.681380271911621 C13.02558708190918 13.681380271911621 13.007160186767578 13.606922149658203 12.969930648803711 13.579156875610352 C12.932703018188477 13.55126667022705 12.904562950134277 13.513540267944336 12.904562950134277 13.513540267944336 L12.904562950134277 13.513540267944336 M9.981075286865234 13.727697372436523 C9.981075286865234 13.727697372436523 10.06486988067627 13.243852615356445 9.720227241516113 12.778310775756836 C9.375957489013672 12.312768936157227 8.770715713500977 12.368797302246094 8.770715713500977 12.368797302246094 L7.494863986968994 12.368797302246094 C7.494863986968994 12.368797302246094 7.551018238067627 12.43366813659668 7.5974602699279785 12.508249282836914 C7.644026756286621 12.582830429077148 7.653489589691162 12.722405433654785 7.653489589691162 12.722405433654785 L7.653489589691162 16.698001861572266 C7.653489589691162 16.698001861572266 7.662578582763672 16.781797409057617 7.61613655090332 16.85637855529785 C7.569694519042969 16.930835723876953 7.494863986968994 16.948888778686523 7.494863986968994 16.948888778686523 L8.929091453552246 16.948888778686523 C8.929091453552246 16.948888778686523 9.30150032043457 16.977401733398438 9.627466201782227 16.67011260986328 C9.953185081481934 16.362947463989258 9.990412712097168 15.534334182739258 9.990412712097168 15.534334182739258 L9.981075286865234 13.727697372436523 L9.981075286865234 13.727697372436523 M9.152338027954102 13.3926420211792 L9.152338027954102 15.590113639831543 C9.152338027954102 15.590113639831543 9.152338027954102 15.841375350952148 9.07800579071045 16.120651245117188 C9.003423690795898 16.399925231933594 8.87293815612793 16.38137435913086 8.87293815612793 16.38137435913086 L8.509867668151855 16.38137435913086 L8.509867668151855 12.908672332763672 L8.835833549499512 12.908672332763672 C8.835833549499512 12.908672332763672 8.910415649414062 12.89896011352539 9.040653228759766 13.001806259155273 C9.170889854431152 13.104028701782227 9.152338027954102 13.3926420211792 9.152338027954102 13.3926420211792 L9.152338027954102 13.3926420211792 M12.66475772857666 15.264272689819336 C12.66475772857666 15.264272689819336 12.739214897155762 13.485898971557617 11.612525939941406 13.485898971557617 C10.48608684539795 13.485898971557617 10.5138521194458 15.273735046386719 10.5138521194458 15.273735046386719 C10.5138521194458 15.273735046386719 10.523065567016602 16.948888778686523 11.584759712219238 16.948888778686523 C12.645956993103027 16.948888778686523 12.66475772857666 15.627342224121094 12.66475772857666 15.627342224121094 L11.975720405578613 15.627342224121094 C11.975720405578613 15.627342224121094 12.040715217590332 16.400049209594727 11.593973159790039 16.400049209594727 C11.146984100341797 16.400049209594727 11.240117073059082 15.264272689819336 11.240117073059082 15.264272689819336 L12.66475772857666 15.264272689819336 L12.66475772857666 15.264272689819336 M11.566083908081055 14.053913116455078 C11.901264190673828 14.053913116455078 11.864035606384277 14.714810371398926 11.864035606384277 14.714810371398926 L11.259042739868164 14.714810371398926 C11.258918762207031 14.714810371398926 11.230902671813965 14.053913116455078 11.566083908081055 14.053913116455078" fill="black" fill-opacity="1.0" filling="0"/>
<path animation_id="4" d="M14.550581932067871 16.791507720947266 C14.546224594116211 16.81790542602539 14.542613983154297 16.870075225830078 14.553072929382324 16.890867233276367 C14.576231002807617 16.937061309814453 14.639357566833496 17.023096084594727 14.640105247497559 17.023845672607422 L14.665878295898438 17.058956146240234 L13.918072700500488 17.058956146240234 C13.815974235534668 17.127559661865234 13.922679901123047 17.172882080078125 13.922679901123047 17.172882080078125 L14.620805740356445 17.172882080078125 C14.620805740356445 17.172882080078125 14.756770133972168 17.142127990722656 14.66923999786377 17.03666877746582 C14.643964767456055 17.006038665771484 14.664881706237793 16.921871185302734 14.664881706237793 16.921871185302734 L14.973043441772461 15.651995658874512 A97.50433349609375 97.50433349609375 0.0 0 0 14.901326179504395 15.34507942199707 L14.550581932067871 16.791507720947266 L14.550581932067871 16.791507720947266 M16.723400115966797 13.74699592590332 A0.5021477937698364 0.5021477937698364 0.0 0 0 16.70198631286621 13.837390899658203 C16.70123863220215 13.83975601196289 16.040342330932617 16.78167152404785 16.040342330932617 16.78167152404785 C16.040590286254883 16.78055191040039 16.032745361328125 16.839445114135742 16.05739974975586 16.888126373291016 C16.08416748046875 16.941791534423828 16.13907814025879 17.023845672607422 16.139575958251953 17.02459144592285 L16.162734985351562 17.058956146240234 L15.380937576293945 17.058956146240234 C15.280458450317383 17.127559661865234 15.387288093566895 17.172882080078125 15.387288093566895 17.172882080078125 L16.153520584106445 17.172882080078125 C16.153520584106445 17.172882080078125 16.255369186401367 17.151840209960938 16.173442840576172 17.033679962158203 C16.137956619262695 16.982257843017578 16.154766082763672 16.912782669067383 16.154766082763672 16.912782669067383 L16.816036224365234 13.970491409301758 C16.816036224365234 13.970491409301758 16.82550048828125 13.895785331726074 16.85326385498047 13.840129852294922 C16.881031036376953 13.784224510192871 16.842060089111328 13.746871948242188 16.842060089111328 13.746871948242188 L16.723400115966797 13.746871948242188 L16.723400115966797 13.74699592590332 L16.723400115966797 13.74699592590332 M15.313453674316406 13.837017059326172 L15.67478084564209 15.440827369689941 L15.717363357543945 15.261905670166016 L15.428749084472656 13.979704856872559 C15.428749084472656 13.979704856872559 15.410073280334473 13.923925399780273 15.419286727905273 13.858930587768555 C15.428749084472656 13.793686866760254 15.392019271850586 13.74699592590332 15.392019271850586 13.74699592590332 L15.303243637084961 13.74699592590332 C15.300628662109375 13.79680061340332 15.313203811645508 13.836892127990723 15.313453674316406 13.837017059326172 L15.313453674316406 13.837017059326172 M13.852456092834473 13.876860618591309 C13.852456092834473 13.876361846923828 14.124634742736816 15.046380043029785 14.203324317932129 15.385793685913086 L14.244163513183594 15.210484504699707 L13.966630935668945 14.017058372497559 C13.966630935668945 14.017058372497559 13.94322395324707 13.913466453552246 13.957417488098145 13.858930587768555 C13.976094245910645 13.784224510192871 13.942102432250977 13.737658500671387 13.942102432250977 13.737658500671387 L13.84112548828125 13.737658500671387 C13.834650993347168 13.780489921569824 13.846604347229004 13.85096263885498 13.852456092834473 13.876860618591309 L13.852456092834473 13.876860618591309 M9.059951782226562 13.132415771484375 C9.059951782226562 13.132415771484375 9.09531307220459 13.12893009185791 9.159311294555664 13.159186363220215 A0.18228226900100708 0.18228226900100708 0.0 0 0 9.115234375 13.107390403747559 C8.995953559875488 13.013509750366211 8.927099227905273 13.018489837646484 8.926228523254395 13.018738746643066 L8.6200590133667 13.018738746643066 L8.6200590133667 16.447860717773438 L8.733985900878906 16.447860717773438 L8.733985900878906 13.132415771484375 L9.059951782226562 13.132415771484375" fill="black" fill-opacity="1.0" filling="0"/>
<path animation_id="5" d="M9.944219589233398 13.002179145812988 A0.9836270213127136 0.9836270213127136 0.0 0 0 9.863537788391113 12.908049583435059 C10.158376693725586 13.348814010620117 10.095126152038574 13.793686866760254 10.091140747070312 13.817593574523926 L10.100728988647461 15.623607635498047 C10.099109649658203 15.657722473144531 10.059142112731934 16.46454620361328 9.730561256408691 16.77432632446289 C9.401232719421387 17.08473014831543 9.03118896484375 17.060199737548828 9.015625953674316 17.059080123901367 L7.8515849113464355 17.059080123901367 C7.848098278045654 17.066177368164062 7.844612121582031 17.07339859008789 7.840004920959473 17.08049774169922 C7.793563365936279 17.155078887939453 7.8995208740234375 17.17300796508789 7.8995208740234375 17.17300796508789 L9.152835845947266 17.17300796508789 C9.152835845947266 17.17300796508789 9.525617599487305 17.201519012451172 9.851335525512695 16.89410400390625 C10.177053451538086 16.586938858032227 10.214530944824219 15.75832748413086 10.214530944824219 15.75832748413086 L10.205191612243652 13.95206356048584 C10.20506763458252 13.95206356048584 10.288863182067871 13.467720985412598 9.944219589233398 13.002179145812988 L9.944219589233398 13.002179145812988 M11.67291259765625 17.059080123901367 C11.489385604858398 17.059080123901367 11.33698558807373 17.008901596069336 11.210359573364258 16.926849365234375 C11.35840129852295 17.07476806640625 11.552762031555176 17.17300796508789 11.808753967285156 17.17300796508789 C12.870323181152344 17.17300796508789 12.888751029968262 15.851210594177246 12.888751029968262 15.851210594177246 L12.764241218566895 15.851210594177246 C12.724024772644043 16.192243576049805 12.537508964538574 17.059080123901367 11.67291259765625 17.059080123901367 L11.67291259765625 17.059080123901367 M12.774948120117188 15.353545188903809 L12.774202346801758 15.37446403503418 L11.348814964294434 15.37446403503418 C11.340970039367676 15.4985990524292 11.309469223022461 16.164478302001953 11.519268035888672 16.39208221435547 C11.534334182739258 16.40839195251465 11.550643920898438 16.42084312438965 11.567204475402832 16.43167495727539 C11.413683891296387 16.107826232910156 11.464234352111816 15.488265037536621 11.464234352111816 15.488265037536621 L12.888751029968262 15.488265037536621 C12.888751029968262 15.488265037536621 12.931084632873535 14.467658996582031 12.461682319641113 13.972732543945312 C12.806076049804688 14.495050430297852 12.776567459106445 15.315072059631348 12.774948120117188 15.353545188903809 L12.774948120117188 15.353545188903809 M11.668305397033691 14.277905464172363 C11.691963195800781 14.271431922912598 11.652368545532227 14.274169921875 11.668305397033691 14.277905464172363 C11.690095901489258 14.279648780822754 11.707776069641113 14.261470794677734 11.711261749267578 14.232708930969238 C11.7163667678833 14.193986892700195 11.690967559814453 14.1649751663208 11.633691787719727 14.1649751663208 C11.57616901397705 14.1649751663208 11.548900604248047 14.184772491455078 11.50831127166748 14.227478981018066 C11.373591423034668 14.367801666259766 11.3677396774292 14.695511817932129 11.368486404418945 14.781049728393555 L11.486770629882812 14.781049728393555 C11.502584457397461 14.574861526489258 11.520139694213867 14.31762409210205 11.668305397033691 14.277905464172363 L11.668305397033691 14.277905464172363" fill="black" fill-opacity="1.0" filling="0"/></svg>