<?xml version="1.0" encoding="iso-8859-1"?><svg height="200px" viewBox="0.0 0.0 24.0 24.0" width="200px" xmlns="http://www.w3.org/2000/svg"><path animation_id="0" d="M0.0 0.0 L24.0 0.0 L24.0 24.0 L0.0 24.0 L0.0 0.0" fill="black" fill-opacity="1.0" filling="0"/>
<path animation_id="1" d="M22.94116973876953 7.055220603942871 L22.94116973876953 16.944778442382812 L1.0588302612304688 16.944778442382812 L1.0588302612304688 7.055220603942871 L22.94116973876953 7.055220603942871 L22.94116973876953 7.055220603942871" fill="black" fill-opacity="1.0" filling="0"/>
<path animation_id="2" d="M22.670982360839844 7.393762111663818 L22.670982360839844 16.580215454101562 L1.3973731994628906 16.580215454101562 L1.3973731994628906 7.393762111663818 L22.670982360839844 7.393762111663818 L22.670982360839844 7.393762111663818" fill="black" fill-opacity="1.0" filling="0"/>
<path animation_id="3" d="M22.20207977294922 7.862416744232178 L22.20207977294922 16.163604736328125 L1.8661518096923828 16.163604736328125 L1.8661518096923828 7.862416744232178 L22.20207977294922 7.862416744232178" fill="black" fill-opacity="1.0" filling="0"/>
<path animation_id="4" d="M6.415862560272217 8.411628723144531 L6.415862560272217 9.308099746704102 C6.415862560272217 9.308099746704102 6.467658519744873 9.308099746704102 6.563780307769775 9.257797241210938 C7.002801418304443 9.023594856262207 7.659341335296631 9.089211463928223 8.045695304870605 9.417045593261719 C8.162734031677246 9.551764488220215 8.215402603149414 9.721471786499023 8.221254348754883 9.908734321594238 C8.227105140686035 10.558550834655762 8.23295783996582 11.120463371276855 8.209549903869629 11.76442813873291 L8.197846412658691 11.781983375549316 L7.325654983520508 11.770278930664062 C7.302247524261475 11.711760520935059 7.319803714752197 11.653241157531738 7.31395149230957 11.588868141174316 L7.308099269866943 10.025774002075195 C7.28469181060791 9.867646217346191 7.1967878341674805 9.715495109558105 7.038784980773926 9.66282844543457 C6.8983378410339355 9.616012573242188 6.7109503746032715 9.627716064453125 6.588059425354004 9.709643363952637 C6.517836093902588 9.768287658691406 6.447488307952881 9.838510513305664 6.429932117462158 9.926290512084961 C6.412376403808594 10.540995597839355 6.415862560272217 11.768536567687988 6.415862560272217 11.768536567687988 L5.464483737945557 11.768536567687988 L5.464483737945557 9.245471000671387 L4.455332279205322 9.245471000671387 L4.455332279205322 11.768536567687988 L3.398866653442383 11.768536567687988 L3.398866653442383 9.245471000671387 L2.3790082931518555 9.245471000671387 L2.3790082931518555 8.685924530029297 L5.464483737945557 8.685924530029297 L5.464483737945557 8.411504745483398 L6.415862560272217 8.411504745483398 L6.415862560272217 8.411628723144531 L6.415862560272217 8.411628723144531 M13.706530570983887 9.346697807312012 C13.722343444824219 9.356284141540527 13.74886417388916 9.387163162231445 13.771400451660156 9.394883155822754 C13.790326118469238 9.401232719421387 13.804769515991211 9.386665344238281 13.823446273803711 9.375957489013672 C14.233207702636719 9.089086532592773 14.90655517578125 9.053976058959961 15.33387279510498 9.329141616821289 C15.565336227416992 9.48527717590332 15.614269256591797 9.706032752990723 15.62373161315918 9.952810287475586 L15.62373161315918 11.768536567687988 L14.733238220214844 11.768536567687988 L14.733238220214844 9.966506958007812 C14.727385520935059 9.837763786315918 14.678329467773438 9.6979398727417 14.549337387084961 9.645147323608398 C14.420719146728516 9.586627960205078 14.262591361999512 9.592479705810547 14.145427703857422 9.662703514099121 C14.057647705078125 9.72719955444336 13.994895935058594 9.799664497375488 13.977090835571289 9.893295288085938 L13.977090835571289 11.768411636352539 L13.098923683166504 11.768411636352539 L13.094565391540527 9.897403717041016 C13.08149242401123 9.782108306884766 13.003798484802246 9.656975746154785 12.89273452758789 9.610034942626953 C12.75216293334961 9.569071769714355 12.588308334350586 9.57492446899414 12.476872444152832 9.662703514099121 C12.401045799255371 9.72134780883789 12.360331535339355 9.817095756530762 12.342900276184082 9.893295288085938 L12.342900276184082 11.768411636352539 L11.440329551696777 11.768411636352539 L11.440329551696777 9.307975769042969 C11.548527717590332 9.294279098510742 12.096495628356934 9.387661933898926 12.342401504516602 9.288053512573242 C12.740583419799805 9.089211463928223 13.343460083007812 9.04239559173584 13.706530570983887 9.346697807312012 L13.706530570983887 9.346697807312012 M21.369483947753906 9.733051300048828 C21.387039184570312 9.803275108337402 21.42924690246582 9.900890350341797 21.40011215209961 9.971114158630371 L20.613208770751953 9.971114158630371 C20.581336975097656 9.87051010131836 20.555810928344727 9.75645923614502 20.48558807373047 9.68050765991211 C20.345016479492188 9.516653060913086 20.11081314086914 9.52823257446289 19.90612030029297 9.551640510559082 C19.82419204711914 9.580900192260742 19.730562210083008 9.627716064453125 19.68362045288086 9.715495109558105 C19.64863395690918 9.791570663452148 19.64863395690918 9.908610343933105 19.695323944091797 9.973106384277344 C19.753971099853516 10.055033683776855 19.841747283935547 10.084293365478516 19.923675537109375 10.10782527923584 C20.503145217895508 10.289236068725586 21.387163162231445 10.119529724121094 21.568572998046875 10.886384963989258 C21.603809356689453 11.208366394042969 21.51603126525879 11.565461158752441 21.205753326416016 11.735292434692383 C20.731494903564453 11.963519096374512 20.110939025878906 11.916703224182129 19.578411102294922 11.85220718383789 C19.297266006469727 11.799539566040039 19.00454330444336 11.618128776550293 18.88750648498535 11.33711051940918 C18.858369827270508 11.237502098083496 18.820146560668945 11.121832847595215 18.843677520751953 11.004669189453125 L19.644025802612305 11.004669189453125 C19.675899505615234 11.18309211730957 19.74811553955078 11.342962265014648 19.90612030029297 11.430741310119629 C20.152027130126953 11.51266860961914 20.450599670410156 11.53022575378418 20.643714904785156 11.331258773803711 C20.70235824584961 11.24920654296875 20.713939666748047 11.126315116882324 20.690406799316406 11.02683162689209 C20.561786651611328 10.78677749633789 20.316131591796875 10.817157745361328 20.058395385742188 10.7633695602417 C19.61190414428711 10.67534065246582 19.02222442626953 10.716553688049316 18.846668243408203 10.201332092285156 C18.782169342041016 9.93201732635498 18.823259353637695 9.633443832397461 19.028078079223633 9.446304321289062 C19.543174743652344 9.065803527832031 20.374526977539062 9.065803527832031 20.954118728637695 9.305858612060547 C21.11772346496582 9.399364471435547 21.310840606689453 9.545788764953613 21.369483947753906 9.733051300048828 L21.369483947753906 9.733051300048828 M11.07800579071045 9.645272254943848 C10.931706428527832 9.381933212280273 10.674095153808594 9.276473999023438 10.416609764099121 9.200398445129395 C9.895536422729492 9.106767654418945 9.2926607131958 9.077507019042969 8.853514671325684 9.364377975463867 C8.29732894897461 9.826807022094727 8.315010070800781 10.617195129394531 8.502272605895996 11.243478775024414 C8.636991500854492 11.612152099609375 9.005789756774902 11.846354484558105 9.38629150390625 11.869887351989746 C9.93077278137207 11.91085147857666 10.574612617492676 11.945962905883789 10.978647232055664 11.547905921936035 C11.388283729553223 11.050239562988281 11.359024047851562 10.189628601074219 11.07800579071045 9.645272254943848 M10.035983085632324 11.454150199890137 C9.842744827270508 11.489261627197266 9.608541488647461 11.500965118408203 9.46224308013916 11.348814964294434 C9.245720863342285 10.991720199584961 9.286559104919434 10.47662353515625 9.321795463562012 10.066737174987793 C9.351055145263672 9.891179084777832 9.409574508666992 9.69208812713623 9.579280853271484 9.610159873962402 C9.801780700683594 9.522380828857422 10.088651657104492 9.545788764953613 10.23495101928711 9.756584167480469 C10.363693237304688 9.967378616333008 10.346137046813965 10.24242115020752 10.375397682189941 10.494178771972656 C10.352113723754883 10.833717346191406 10.445870399475098 11.319554328918457 10.035983085632324 11.454150199890137 M18.38971710205078 9.393637657165527 L18.220008850097656 9.294029235839844 C17.669675827026367 9.089086532592773 16.926227569580078 9.071531295776367 16.37589454650879 9.294029235839844 C16.118408203125 9.405342102050781 15.906493186950684 9.684243202209473 15.888813018798828 9.971114158630371 L16.668743133544922 9.973106384277344 C16.712322235107422 9.810994148254395 16.74456787109375 9.750606536865234 16.844301223754883 9.656975746154785 C17.014007568359375 9.539937019348145 17.25991439819336 9.52823257446289 17.470458984375 9.569071769714355 C17.56433868408203 9.592479705810547 17.68710708618164 9.662703514099121 17.710763931274414 9.779867172241211 C17.745750427246094 9.891179084777832 17.710763931274414 10.002241134643555 17.616884231567383 10.078316688537598 C17.341842651367188 10.189628601074219 17.014007568359375 10.18377685546875 16.721284866333008 10.248147964477539 C16.45209503173828 10.294963836669922 16.16510009765625 10.30081558227539 15.96625804901123 10.517337799072266 C15.773143768310547 10.728133201599121 15.743759155273438 11.085227012634277 15.855070114135742 11.3428373336792 C15.948701858520508 11.588744163513184 16.187759399414062 11.739151954650879 16.44549560546875 11.768287658691406 C16.48882484436035 11.776131629943848 18.34787940979004 11.768287658691406 18.34787940979004 11.768287658691406 C18.465293884277344 11.746996879577637 18.568885803222656 11.691963195800781 18.587188720703125 11.592977523803711 C18.587188720703125 11.0624418258667 18.587188720703125 10.538006782531738 18.588932037353516 10.002117156982422 C18.56527328491211 9.779867172241211 18.600635528564453 9.52823257446289 18.38971710205078 9.393637657165527 L18.38971710205078 9.393637657165527 M17.61103057861328 11.33711051940918 C17.3829288482666 11.424890518188477 17.078502655029297 11.419037818908691 16.861732482910156 11.313702583312988 C16.76810073852539 11.255058288574219 16.727012634277344 11.167404174804688 16.70360565185547 11.067795753479004 C16.69775390625 10.921497344970703 16.721160888671875 10.769221305847168 16.87331199645996 10.704849243164062 C17.10166358947754 10.593538284301758 17.38280487060547 10.611218452453613 17.640291213989258 10.570130348205566 C17.70889663696289 10.561040878295898 17.727323532104492 10.551952362060547 17.728069305419922 10.628649711608887 C17.72246742248535 10.857125282287598 17.827804565429688 11.173130989074707 17.61103057861328 11.33711051940918 M19.355663299560547 12.064371109008789 L19.355663299560547 13.985183715820312 L20.268817901611328 12.841561317443848 L21.201644897460938 12.844675064086914 L20.31289291381836 14.143560409545898 L21.563095092773438 15.851210594177246 L20.561664581298828 15.851210594177246 L19.355663299560547 14.289982795715332 L19.355663299560547 15.424142837524414 L18.40428352355957 15.424142837524414 L18.40428352355957 12.064371109008789 L19.355663299560547 12.064371109008789 L19.355663299560547 12.064371109008789 M12.120027542114258 12.765361785888672 C12.1961030960083 12.905933380126953 12.22561264038086 13.0873441696167 12.207806587219238 13.245346069335938 C12.207806587219238 13.245346069335938 11.329265594482422 13.247089385986328 11.329764366149902 13.245346069335938 C11.275851249694824 13.08236312866211 11.259540557861328 12.917512893676758 11.159932136535645 12.77694034576416 C11.007657051086426 12.577974319458008 10.750170707702637 12.542986869812012 10.510116577148438 12.59553050994873 C10.135466575622559 12.730249404907227 10.094502449035645 13.140010833740234 10.082799911499023 13.491128921508789 C10.076947212219238 13.947831153869629 10.024279594421387 14.515719413757324 10.281890869140625 14.913777351379395 C10.428189277648926 15.106891632080078 10.679947853088379 15.10103988647461 10.902321815490723 15.071905136108398 C11.083856582641602 15.05434799194336 11.24746322631836 14.868579864501953 11.30025577545166 14.704476356506348 C11.370478630065918 14.599141120910645 11.355039596557617 14.509493827819824 11.377949714660645 14.37514877319336 L12.25611686706543 14.37514877319336 C12.257610321044922 14.472639083862305 12.231339454650879 14.585943222045898 12.231339454650879 14.685426712036133 C12.16684341430664 15.001556396484375 11.926913261413574 15.30025577545166 11.616509437561035 15.411317825317383 C11.066301345825195 15.616260528564453 10.34028434753418 15.616260528564453 9.801780700683594 15.382183074951172 C9.134532928466797 15.024964332580566 9.099296569824219 14.246529579162598 9.099296569824219 13.549772262573242 C9.140260696411133 13.028823852539062 9.36275863647461 12.513602256774902 9.872129440307617 12.273548126220703 C10.39892864227295 12.057149887084961 11.136650085449219 12.092137336730957 11.663451194763184 12.297080039978027 C11.856689453125 12.385108947753906 12.032248497009277 12.566519737243652 12.120027542114258 12.765361785888672 L12.120027542114258 12.765361785888672 M15.129179000854492 13.37433910369873 C14.953371047973633 12.97628116607666 14.531906127929688 12.783166885375977 14.122143745422363 12.765361785888672 C13.630455017089844 12.74195384979248 13.138766288757324 12.747806549072266 12.793375968933105 13.069787979125977 C12.336674690246582 13.57318115234375 12.34252643585205 14.422088623046875 12.594161033630371 15.019112586975098 C12.793375968933105 15.323538780212402 13.132789611816406 15.475813865661621 13.48975944519043 15.504949569702148 C14.022537231445312 15.534085273742676 14.584573745727539 15.563593864440918 14.970927238464355 15.177114486694336 C15.351428985595703 14.703105926513672 15.351428985595703 13.924671173095703 15.129179000854492 13.37433910369873 L15.129179000854492 13.37433910369873 M14.315258979797363 14.820270538330078 C14.286123275756836 14.948888778686523 14.162982940673828 15.060325622558594 14.034364700317383 15.089460372924805 C13.806014060974121 15.118844985961914 13.542675971984863 15.118844985961914 13.40795612335205 14.896346092224121 C13.273486137390137 14.509867668151855 13.29104232788086 14.0590181350708 13.337982177734375 13.63182544708252 C13.372968673706055 13.456265449523926 13.46660041809082 13.245346069335938 13.665816307067871 13.198655128479004 C13.888066291809082 13.17512321472168 14.15750503540039 13.181098937988281 14.268692016601562 13.409201622009277 C14.409138679504395 13.842744827270508 14.414867401123047 14.363569259643555 14.315258979797363 14.820270538330078 L14.315258979797363 14.820270538330078 M18.117162704467773 13.381933212280273 C17.941354751586914 12.98387622833252 17.51988983154297 12.79076099395752 17.11012840270996 12.773205757141113 C16.618438720703125 12.749673843383789 16.126750946044922 12.755400657653809 15.78136157989502 13.077383041381836 C15.32465934753418 13.581024169921875 15.330511093139648 14.429683685302734 15.582145690917969 15.026956558227539 C15.78136157989502 15.331382751464844 16.12077522277832 15.483409881591797 16.477745056152344 15.512794494628906 C17.010520935058594 15.5419282913208 17.572559356689453 15.571187973022461 17.958911895751953 15.184710502624512 C18.339662551879883 14.710826873779297 18.339662551879883 13.932143211364746 18.117162704467773 13.381933212280273 M17.303241729736328 14.827865600585938 C17.27410888671875 14.956732749938965 17.15121841430664 15.067919731140137 17.022350311279297 15.097304344177246 C16.79399871826172 15.126440048217773 16.530662536621094 15.126440048217773 16.39594268798828 14.903940200805664 C16.261470794677734 14.517462730407715 16.27902603149414 14.066862106323242 16.32571792602539 13.639419555664062 C16.36095428466797 13.463861465454102 16.454586029052734 13.253190994262695 16.653553009033203 13.20625114440918 C16.876049041748047 13.182842254638672 17.145240783691406 13.188694953918457 17.256677627563477 13.417045593261719 C17.397125244140625 13.850214958190918 17.402851104736328 14.371163368225098 17.303241729736328 14.827865600585938" fill="black" fill-opacity="1.0" filling="0"/></svg>