<?xml version="1.0" encoding="iso-8859-1"?><svg height="200px" viewBox="0.0 0.0 24.0 24.0" width="200px" xmlns="http://www.w3.org/2000/svg"><path animation_id="0" d="M0.680506706237793 15.22329044342041 L10.891139030456543 15.22329044342041 L10.888101577758789 14.70379638671875 L0.680506706237793 14.70379638671875 L0.680506706237793 15.22329044342041 M16.41721534729004 14.70379638671875 L16.41721534729004 15.22329044342041 L13.148355484008789 15.22329044342041 C13.248607635498047 15.123038291931152 13.312405586242676 14.983290672302246 13.312405586242676 14.831392288208008 C13.312405586242676 14.788860321044922 13.306328773498535 14.752405166625977 13.300253868103027 14.712911605834961 L13.300253868103027 14.70683479309082 L16.41721534729004 14.70379638671875" fill="black" fill-opacity="1.0" filling="0"/>
<path animation_id="1" d="M17.520000457763672 14.70379638671875 L19.68000030517578 14.70379638671875 L19.68000030517578 15.22329044342041 L17.520000457763672 15.22329044342041 L17.520000457763672 14.70379638671875" fill="black" fill-opacity="1.0" filling="0"/>
<path animation_id="2" d="M19.68000030517578 14.70379638671875 L21.84000015258789 14.70379638671875 L21.84000015258789 15.22329044342041 L19.68000030517578 15.22329044342041 L19.68000030517578 14.70379638671875" fill="black" fill-opacity="1.0" filling="0"/>
<path animation_id="3" d="M21.84000015258789 14.70379638671875 L24.0 14.70379638671875 L24.0 15.22329044342041 L21.84000015258789 15.22329044342041 L21.84000015258789 14.70379638671875" fill="black" fill-opacity="1.0" filling="0"/>
<path animation_id="4" d="M5.48354434967041 14.494176864624023 L5.48354434967041 10.596455574035645 L6.212658405303955 10.596455574035645 L6.212658405303955 13.87746810913086 L8.06582260131836 13.87746810913086 L8.06582260131836 14.491138458251953 L5.48354434967041 14.491138458251953 L5.48354434967041 14.494176864624023" fill="black" fill-opacity="1.0" filling="0"/>
<path animation_id="5" d="M7.828861236572266 13.063291549682617 C7.828861236572266 12.628860473632812 7.959493637084961 12.27645492553711 8.223797798156738 12.003037452697754 C8.4881010055542 11.729619979858398 8.837468147277832 11.592910766601562 9.268860816955566 11.592910766601562 C9.724556922912598 11.592910766601562 10.0769624710083 11.723544120788574 10.329113960266113 11.987848281860352 C10.581266403198242 12.249114036560059 10.705822944641113 12.60759449005127 10.705822944641113 13.063291549682617 C10.705822944641113 13.515949249267578 10.578227996826172 13.87746810913086 10.320000648498535 14.14480972290039 C10.064810752868652 14.412152290344238 9.71240520477295 14.545823097229004 9.265823364257812 14.545823097229004 C8.810126304626465 14.545823097229004 8.457721710205078 14.412152290344238 8.202531814575195 14.14177131652832 C7.956455707550049 13.871392250061035 7.828861236572266 13.509873390197754 7.828861236572266 13.063291549682617 L7.828861236572266 13.063291549682617 M8.557974815368652 13.063291549682617 C8.557974815368652 13.69215202331543 8.794937133789062 14.0050630569458 9.271899223327637 14.0050630569458 C9.490633010864258 14.0050630569458 9.663797378540039 13.923038482666016 9.791393280029297 13.758987426757812 C9.918987274169922 13.59493637084961 9.98278522491455 13.364049911499023 9.98278522491455 13.063291549682617 C9.98278522491455 12.443544387817383 9.74582290649414 12.136709213256836 9.271899223327637 12.136709213256836 C9.0531644821167 12.136709213256836 8.880001068115234 12.218733787536621 8.752405166625977 12.382784843444824 C8.621772766113281 12.540760040283203 8.557974815368652 12.768608093261719 8.557974815368652 13.063291549682617 L8.557974815368652 13.063291549682617" fill="black" fill-opacity="1.0" filling="0"/>
<path animation_id="6" d="M10.459747314453125 15.22329044342041 L10.903290748596191 14.70379638671875 C11.146328926086426 14.916455268859863 11.419746398925781 15.022784233093262 11.72050666809082 15.022784233093262 C11.921012878417969 15.022784233093262 12.088101387023926 14.995442390441895 12.218734741210938 14.937721252441406 C12.349367141723633 14.880000114440918 12.413165092468262 14.80405044555664 12.413165092468262 14.70379638671875 C12.413165092468262 14.53670883178711 12.267342567443848 14.451644897460938 11.978734970092773 14.451644897460938 C11.899746894836426 14.451644897460938 11.784303665161133 14.460759162902832 11.62936782836914 14.478986740112305 C11.474431037902832 14.497215270996094 11.358986854553223 14.506328582763672 11.280000686645508 14.506328582763672 C10.800000190734863 14.506328582763672 10.556962013244629 14.342278480529785 10.556962013244629 14.014177322387695 C10.556962013244629 13.920000076293945 10.596456527709961 13.82886028289795 10.678481101989746 13.73772144317627 C10.757468223571777 13.646581649780273 10.851646423339844 13.579747200012207 10.957975387573242 13.537215232849121 C10.617721557617188 13.327594757080078 10.444557189941406 13.026835441589355 10.444557189941406 12.641012191772461 C10.444557189941406 12.337214469909668 10.563037872314453 12.085062980651855 10.796961784362793 11.884556770324707 C11.03088665008545 11.684050559997559 11.322531700134277 11.586834907531738 11.665822982788086 11.586834907531738 C11.933165550231934 11.586834907531738 12.157975196838379 11.635442733764648 12.340253829956055 11.729619979858398 L12.61367130279541 11.425822257995605 L13.096709251403809 11.842025756835938 L12.762532234191895 12.072911262512207 C12.877974510192871 12.239999771118164 12.935696601867676 12.437468528747559 12.935696601867676 12.662278175354004 C12.935696601867676 12.98734188079834 12.832405090332031 13.245569229125977 12.622784614562988 13.4399995803833 C12.413165092468262 13.634429931640625 12.151898384094238 13.731645584106445 11.835949897766113 13.731645584106445 C11.784303665161133 13.731645584106445 11.71746826171875 13.728607177734375 11.635442733764648 13.719493865966797 L11.520000457763672 13.704303741455078 C11.507848739624023 13.704303741455078 11.456202507019043 13.72253131866455 11.371139526367188 13.762024879455566 C11.283038139343262 13.801519393920898 11.240506172180176 13.841012001037598 11.240506172180176 13.88050651550293 C11.240506172180176 13.950379371643066 11.304304122924805 13.986835479736328 11.4349365234375 13.986835479736328 C11.492658615112305 13.986835479736328 11.589873313903809 13.974682807922363 11.726582527160645 13.947341918945312 C11.863290786743164 13.920000076293945 11.978734970092773 13.907848358154297 12.075949668884277 13.907848358154297 C12.756455421447754 13.907848358154297 13.096709251403809 14.166075706481934 13.096709251403809 14.685569763183594 C13.096709251403809 14.974177360534668 12.960000038146973 15.198987007141113 12.686582565307617 15.363038063049316 C12.413165092468262 15.527088165283203 12.085063934326172 15.609113693237305 11.702279090881348 15.609113693237305 C11.246582984924316 15.609113693237305 10.833417892456055 15.481518745422363 10.459747314453125 15.22329044342041 L10.459747314453125 15.22329044342041 M11.161519050598145 12.644050598144531 C11.161519050598145 12.811139106750488 11.210126876831055 12.947848320007324 11.307342529296875 13.048101425170898 C11.404557228088379 13.151391983032227 11.538228034973145 13.199999809265137 11.702279090881348 13.199999809265137 C11.869367599487305 13.199999809265137 11.99696159362793 13.151391983032227 12.085063934326172 13.051138877868652 C12.173165321350098 12.950885772705078 12.218734741210938 12.814177513122559 12.218734741210938 12.641012191772461 C12.218734741210938 12.498228073120117 12.170126914978027 12.376708984375 12.075949668884277 12.27645492553711 C11.978734970092773 12.176202774047852 11.854177474975586 12.127594947814941 11.702279090881348 12.127594947814941 C11.541265487670898 12.127594947814941 11.410633087158203 12.176202774047852 11.310379981994629 12.270380020141602 C11.210126876831055 12.370633125305176 11.161519050598145 12.495189666748047 11.161519050598145 12.644050598144531 L11.161519050598145 12.644050598144531 M13.163544654846191 14.494176864624023 L13.163544654846191 12.19139289855957 L13.169620513916016 11.647594451904297 L13.871392250061035 11.647594451904297 L13.871392250061035 14.494176864624023 L13.163544654846191 14.494176864624023 M13.525063514709473 10.54177188873291 C13.637468338012695 10.54177188873291 13.731645584106445 10.578227996826172 13.810632705688477 10.654176712036133 C13.889620780944824 10.73012638092041 13.929113388061523 10.821266174316406 13.929113388061523 10.927595138549805 C13.929113388061523 11.033924102783203 13.889620780944824 11.125062942504883 13.810632705688477 11.20101261138916 C13.731645584106445 11.276962280273438 13.634430885314941 11.313417434692383 13.525063514709473 11.313417434692383 C13.41265869140625 11.313417434692383 13.318480491638184 11.276962280273438 13.239494323730469 11.20101261138916 C13.160507202148438 11.125062942504883 13.121012687683105 11.033924102783203 13.121012687683105 10.927595138549805 C13.121012687683105 10.821266174316406 13.160507202148438 10.73012638092041 13.239494323730469 10.654176712036133 C13.318480491638184 10.578227996826172 13.41265869140625 10.54177188873291 13.525063514709473 10.54177188873291" fill="black" fill-opacity="1.0" filling="0"/>
<path animation_id="7" d="M16.02835464477539 14.494176864624023 L15.259747505187988 13.567594528198242 L14.567089080810547 14.494176864624023 L13.73772144317627 14.494176864624023 L14.889114379882812 13.035948753356934 L13.831899642944336 11.644556999206543 L14.63392448425293 11.644556999206543 L15.265822410583496 12.51341724395752 L15.970632553100586 11.644556999206543 L16.769620895385742 11.644556999206543 L15.6182279586792 13.035948753356934 L16.87594985961914 14.494176864624023 L16.02835464477539 14.494176864624023" fill="black" fill-opacity="1.0" filling="0"/>
<path animation_id="8" d="M17.3286075592041 14.421265602111816 L17.3286075592041 15.609113693237305 L16.629873275756836 15.609113693237305 L16.629873275756836 11.644556999206543 L17.3286075592041 11.644556999206543 L17.3286075592041 11.835948944091797 C17.504810333251953 11.67189884185791 17.72050666809082 11.592910766601562 17.975696563720703 11.592910766601562 C18.92962074279785 11.592910766601562 19.40962028503418 12.09417724609375 19.40962028503418 13.093670845031738 C19.40962028503418 13.558481216430664 19.278987884521484 13.920000076293945 19.01468276977539 14.169114112854004 C18.75037956237793 14.421265602111816 18.38886070251465 14.545823097229004 17.933164596557617 14.545823097229004 C17.708354949951172 14.545823097229004 17.507848739624023 14.503291130065918 17.3286075592041 14.421265602111816 M17.3286075592041 12.343291282653809 L17.3286075592041 13.841012001037598 C17.45620346069336 13.938227653503418 17.605064392089844 13.986835479736328 17.772151947021484 13.986835479736328 C18.09417724609375 13.986835479736328 18.328102111816406 13.913923263549805 18.46784782409668 13.76810073852539 C18.607595443725586 13.622278213500977 18.680505752563477 13.391392707824707 18.680505752563477 13.075443267822266 C18.680505752563477 12.738227844238281 18.610633850097656 12.501265525817871 18.47088623046875 12.364557266235352 C18.331138610839844 12.227848052978516 18.10025405883789 12.157974243164062 17.775190353393555 12.157974243164062 C17.60810089111328 12.154936790466309 17.459239959716797 12.218733787536621 17.3286075592041 12.343291282653809 L17.3286075592041 12.343291282653809 M21.168607711791992 12.264303207397461 C21.044050216674805 12.18531608581543 20.90734100341797 12.145822525024414 20.758480072021484 12.145822525024414 C20.597469329833984 12.145822525024414 20.451644897460938 12.215696334838867 20.32708740234375 12.355443000793457 C20.202533721923828 12.495189666748047 20.13873291015625 12.665316581726074 20.13873291015625 12.868860244750977 L20.13873291015625 14.491138458251953 L19.439998626708984 14.491138458251953 L19.439998626708984 11.644556999206543 L20.13873291015625 11.644556999206543 L20.13873291015625 11.90582275390625 C20.33620262145996 11.696202278137207 20.59442901611328 11.592910766601562 20.91949462890625 11.592910766601562 C21.159494400024414 11.592910766601562 21.341773986816406 11.62632942199707 21.4693660736084 11.696202278137207 L21.168607711791992 12.264303207397461 M21.104808807373047 13.063291549682617 C21.104808807373047 12.628860473632812 21.235443115234375 12.27645492553711 21.499746322631836 12.003037452697754 C21.764049530029297 11.729619979858398 22.113418579101562 11.592910766601562 22.544811248779297 11.592910766601562 C23.000507354736328 11.592910766601562 23.3529109954834 11.723544120788574 23.605064392089844 11.987848281860352 C23.857215881347656 12.249114036560059 23.98177146911621 12.60759449005127 23.98177146911621 13.063291549682617 C23.98177146911621 13.515949249267578 23.854175567626953 13.87746810913086 23.595947265625 14.14480972290039 C23.34075927734375 14.412152290344238 22.988353729248047 14.545823097229004 22.541772842407227 14.545823097229004 C22.086076736450195 14.545823097229004 21.73366928100586 14.412152290344238 21.47848129272461 14.14177131652832 C21.232404708862305 13.871392250061035 21.104808807373047 13.509873390197754 21.104808807373047 13.063291549682617 L21.104808807373047 13.063291549682617 M21.83392333984375 13.063291549682617 C21.83392333984375 13.69215202331543 22.070886611938477 14.0050630569458 22.547847747802734 14.0050630569458 C22.766582489013672 14.0050630569458 22.939746856689453 13.923038482666016 23.067340850830078 13.758987426757812 C23.19493865966797 13.59493637084961 23.25873374938965 13.364049911499023 23.25873374938965 13.063291549682617 C23.25873374938965 12.443544387817383 23.021772384643555 12.136709213256836 22.547847747802734 12.136709213256836 C22.32911491394043 12.136709213256836 22.155948638916016 12.218733787536621 22.02835464477539 12.382784843444824 C21.897722244262695 12.540760040283203 21.83392333984375 12.768608093261719 21.83392333984375 13.063291549682617 M13.525063514709473 10.313923835754395 C13.673924446105957 10.313923835754395 13.801519393920898 10.365570068359375 13.907848358154297 10.471899032592773 C14.014177322387695 10.578227996826172 14.06582260131836 10.705822944641113 14.06582260131836 10.854683876037598 C14.06582260131836 11.003543853759766 14.014177322387695 11.131138801574707 13.907848358154297 11.237467765808105 C13.801519393920898 11.34379768371582 13.673924446105957 11.395442962646484 13.525063514709473 11.395442962646484 C13.376203536987305 11.395442962646484 13.248607635498047 11.34379768371582 13.142278671264648 11.237467765808105 C13.03594970703125 11.131138801574707 12.98430347442627 11.003543853759766 12.98430347442627 10.854683876037598 C12.98430347442627 10.705822944641113 13.03594970703125 10.578227996826172 13.142278671264648 10.471899032592773 C13.248607635498047 10.368607521057129 13.376203536987305 10.313923835754395 13.525063514709473 10.313923835754395" fill="black" fill-opacity="1.0" filling="0"/>
<path animation_id="9" d="M0.6774692535400391 15.915949821472168 L2.0111398696899414 15.915949821472168 L2.0111398696899414 16.064809799194336 L1.4217729568481445 16.064809799194336 L1.4217729568481445 17.24658203125 L1.2729110717773438 17.24658203125 L1.2729110717773438 16.064809799194336 L0.6774692535400391 16.064809799194336 L0.6774692535400391 15.915949821472168 M3.110886573791504 16.174177169799805 C3.1746835708618164 16.174177169799805 3.226329803466797 16.19544219970703 3.2718992233276367 16.241012573242188 C3.3144311904907227 16.28354263305664 3.338735580444336 16.338228225708008 3.338735580444336 16.39898681640625 L3.338735580444336 16.7878475189209 L2.396963119506836 16.7878475189209 L2.396963119506836 17.024810791015625 C2.396963119506836 17.04607582092285 2.4030380249023438 17.06126594543457 2.4182281494140625 17.076454162597656 C2.4334182739257812 17.091644287109375 2.4486083984375 17.097721099853516 2.4698734283447266 17.097721099853516 L3.338735580444336 17.097721099853516 L3.338735580444336 17.24962043762207 L2.4668359756469727 17.24962043762207 C2.406076431274414 17.24962043762207 2.351393699645996 17.22835350036621 2.3088607788085938 17.182785034179688 C2.266329765319824 17.1402530670166 2.242025375366211 17.085569381713867 2.242025375366211 17.024810791015625 L2.242025375366211 16.39898681640625 C2.242025375366211 16.338228225708008 2.263291358947754 16.28354263305664 2.3088607788085938 16.241012573242188 C2.351393699645996 16.1984806060791 2.406076431274414 16.174177169799805 2.4668359756469727 16.174177169799805 L3.110886573791504 16.174177169799805 M2.396963119506836 16.635948181152344 L3.1837968826293945 16.635948181152344 L3.1837968826293945 16.39898681640625 C3.1837968826293945 16.380760192871094 3.1777219772338867 16.362531661987305 3.162531852722168 16.347341537475586 C3.147341728210449 16.332151412963867 3.132152557373047 16.32607650756836 3.110886573791504 16.32607650756836 L2.4668359756469727 16.32607650756836 C2.4455699920654297 16.32607650756836 2.430379867553711 16.332151412963867 2.415189743041992 16.347341537475586 C2.40000057220459 16.362531661987305 2.393923759460449 16.377721786499023 2.393923759460449 16.39898681640625 L2.393923759460449 16.635948181152344 L2.396963119506836 16.635948181152344 M3.8156967163085938 17.094682693481445 L4.6845574378967285 17.094682693481445 L4.6845574378967285 17.24658203125 L3.8156967163085938 17.24658203125 C3.754937171936035 17.24658203125 3.7002525329589844 17.22531509399414 3.6577224731445312 17.179746627807617 C3.6151905059814453 17.13721466064453 3.5908870697021484 17.082530975341797 3.5908870697021484 17.021772384643555 L3.5908870697021484 16.395950317382812 C3.5908870697021484 16.335189819335938 3.6121530532836914 16.280506134033203 3.6577224731445312 16.237974166870117 C3.7002525329589844 16.19544219970703 3.754937171936035 16.171138763427734 3.8156967163085938 16.171138763427734 L4.681519508361816 16.171138763427734 L4.681519508361816 16.32303810119629 L3.8156967163085938 16.32303810119629 C3.794431686401367 16.32303810119629 3.7792415618896484 16.329113006591797 3.7640514373779297 16.344303131103516 C3.748861312866211 16.359493255615234 3.7427854537963867 16.374683380126953 3.7427854537963867 16.395950317382812 L3.7427854537963867 17.021772384643555 C3.7427854537963867 17.04303741455078 3.748861312866211 17.0582275390625 3.7640514373779297 17.07341766357422 C3.7792415618896484 17.088607788085938 3.794431686401367 17.094682693481445 3.8156967163085938 17.094682693481445 M5.829874038696289 16.174177169799805 C5.8906331062316895 16.174177169799805 5.945316791534424 16.19544219970703 5.987848281860352 16.241012573242188 C6.030379772186279 16.28354263305664 6.054683685302734 16.338228225708008 6.054683685302734 16.39898681640625 L6.054683685302734 17.24962043762207 L5.902784824371338 17.24962043762207 L5.902784824371338 16.39898681640625 C5.902784824371338 16.380760192871094 5.896708965301514 16.362531661987305 5.881519317626953 16.347341537475586 C5.866329669952393 16.332151412963867 5.851139545440674 16.32607650756836 5.829874038696289 16.32607650756836 L5.185823440551758 16.32607650756836 C5.164556980133057 16.32607650756836 5.149367332458496 16.332151412963867 5.134177207946777 16.347341537475586 C5.118987560272217 16.362531661987305 5.112911701202393 16.377721786499023 5.112911701202393 16.39898681640625 L5.112911701202393 17.24962043762207 L4.961012840270996 17.24962043762207 L4.961012840270996 15.824810028076172 L5.112911701202393 15.824810028076172 L5.112911701202393 16.177215576171875 L5.829874038696289 16.177215576171875 L5.829874038696289 16.174177169799805 M7.1665825843811035 16.174177169799805 C7.227342128753662 16.174177169799805 7.2820258140563965 16.19544219970703 7.324557304382324 16.241012573242188 C7.367088794708252 16.28354263305664 7.391392707824707 16.338228225708008 7.391392707824707 16.39898681640625 L7.391392707824707 17.24962043762207 L7.2394938468933105 17.24962043762207 L7.2394938468933105 16.39898681640625 C7.2394938468933105 16.380760192871094 7.233417987823486 16.362531661987305 7.218228340148926 16.347341537475586 C7.203038215637207 16.332151412963867 7.1878485679626465 16.32607650756836 7.1665825843811035 16.32607650756836 L6.522531986236572 16.32607650756836 C6.501266002655029 16.32607650756836 6.4860758781433105 16.332151412963867 6.47088623046875 16.347341537475586 C6.455696105957031 16.362531661987305 6.449620246887207 16.377721786499023 6.449620246887207 16.39898681640625 L6.449620246887207 17.24962043762207 L6.297721862792969 17.24962043762207 L6.297721862792969 16.177215576171875 L7.1665825843811035 16.177215576171875 L7.1665825843811035 16.174177169799805 M7.8805060386657715 16.174177169799805 L8.524557113647461 16.174177169799805 C8.58835506439209 16.174177169799805 8.639999389648438 16.19544219970703 8.685569763183594 16.241012573242188 C8.72810173034668 16.28354263305664 8.752405166625977 16.338228225708008 8.752405166625977 16.39898681640625 L8.752405166625977 17.024810791015625 C8.752405166625977 17.085569381713867 8.731139183044434 17.1402530670166 8.685569763183594 17.182785034179688 C8.643037796020508 17.22531509399414 8.58835506439209 17.24962043762207 8.524557113647461 17.24962043762207 L7.8805060386657715 17.24962043762207 C7.819746971130371 17.24962043762207 7.765063762664795 17.22835350036621 7.722532272338867 17.182785034179688 C7.6800007820129395 17.1402530670166 7.655696392059326 17.085569381713867 7.655696392059326 17.024810791015625 L7.655696392059326 16.39898681640625 C7.655696392059326 16.338228225708008 7.676962375640869 16.28354263305664 7.722532272338867 16.241012573242188 C7.765063762664795 16.19544219970703 7.819746971130371 16.174177169799805 7.8805060386657715 16.174177169799805 M8.524557113647461 16.32607650756836 L7.8805060386657715 16.32607650756836 C7.859241008758545 16.32607650756836 7.844050884246826 16.332151412963867 7.828861236572266 16.347341537475586 C7.813671588897705 16.362531661987305 7.807595252990723 16.377721786499023 7.807595252990723 16.39898681640625 L7.807595252990723 17.024810791015625 C7.807595252990723 17.04607582092285 7.813671588897705 17.06126594543457 7.828861236572266 17.076454162597656 C7.844050884246826 17.091644287109375 7.859241008758545 17.097721099853516 7.8805060386657715 17.097721099853516 L8.524557113647461 17.097721099853516 C8.54278564453125 17.097721099853516 8.561013221740723 17.091644287109375 8.576203346252441 17.076454162597656 C8.591392517089844 17.06126594543457 8.597468376159668 17.04607582092285 8.597468376159668 17.024810791015625 L8.597468376159668 16.39898681640625 C8.597468376159668 16.380760192871094 8.591392517089844 16.362531661987305 8.576203346252441 16.347341537475586 C8.561013221740723 16.332151412963867 8.54278564453125 16.32607650756836 8.524557113647461 16.32607650756836 M9.004556655883789 15.821771621704102 L9.156455993652344 15.821771621704102 L9.156455993652344 17.021772384643555 C9.156455993652344 17.04303741455078 9.162531852722168 17.0582275390625 9.177721977233887 17.07341766357422 C9.192911148071289 17.088607788085938 9.208101272583008 17.094682693481445 9.229368209838867 17.094682693481445 L9.411645889282227 17.094682693481445 L9.411645889282227 17.24658203125 L9.229368209838867 17.24658203125 C9.168607711791992 17.24658203125 9.113924026489258 17.22531509399414 9.071393013000488 17.179746627807617 C9.028861045837402 17.13721466064453 9.004556655883789 17.082530975341797 9.004556655883789 17.021772384643555 L9.004556655883789 15.821771621704102 M9.870379447937012 16.174177169799805 L10.51443099975586 16.174177169799805 C10.578227996826172 16.174177169799805 10.629873275756836 16.19544219970703 10.675442695617676 16.241012573242188 C10.717975616455078 16.28354263305664 10.742279052734375 16.338228225708008 10.742279052734375 16.39898681640625 L10.742279052734375 17.024810791015625 C10.742279052734375 17.085569381713867 10.721012115478516 17.1402530670166 10.675442695617676 17.182785034179688 C10.632911682128906 17.22531509399414 10.578227996826172 17.24962043762207 10.51443099975586 17.24962043762207 L9.870379447937012 17.24962043762207 C9.809619903564453 17.24962043762207 9.754937171936035 17.22835350036621 9.71240520477295 17.182785034179688 C9.66987419128418 17.1402530670166 9.645569801330566 17.085569381713867 9.645569801330566 17.024810791015625 L9.645569801330566 16.39898681640625 C9.645569801330566 16.338228225708008 9.66683578491211 16.28354263305664 9.71240520477295 16.241012573242188 C9.757974624633789 16.19544219970703 9.809619903564453 16.174177169799805 9.870379447937012 16.174177169799805 M10.51443099975586 16.32607650756836 L9.870379447937012 16.32607650756836 C9.849114418029785 16.32607650756836 9.833924293518066 16.332151412963867 9.818735122680664 16.347341537475586 C9.803544998168945 16.362531661987305 9.797468185424805 16.377721786499023 9.797468185424805 16.39898681640625 L9.797468185424805 17.024810791015625 C9.797468185424805 17.04607582092285 9.803544998168945 17.06126594543457 9.818735122680664 17.076454162597656 C9.833924293518066 17.091644287109375 9.849114418029785 17.097721099853516 9.870379447937012 17.097721099853516 L10.51443099975586 17.097721099853516 C10.532658576965332 17.097721099853516 10.550886154174805 17.091644287109375 10.566076278686523 17.076454162597656 C10.581266403198242 17.06126594543457 10.58734130859375 17.04607582092285 10.58734130859375 17.024810791015625 L10.58734130859375 16.39898681640625 C10.58734130859375 16.380760192871094 10.581266403198242 16.362531661987305 10.566076278686523 16.347341537475586 C10.550886154174805 16.332151412963867 10.535696983337402 16.32607650756836 10.51443099975586 16.32607650756836 M12.106328964233398 17.444049835205078 C12.106328964233398 17.507848739624023 12.085063934326172 17.559494018554688 12.04253101348877 17.60506248474121 C12.0 17.647594451904297 11.945317268371582 17.671897888183594 11.884557723999023 17.671897888183594 L11.216202735900879 17.671897888183594 L11.216202735900879 17.5169620513916 L11.884557723999023 17.5169620513916 C11.902785301208496 17.5169620513916 11.921012878417969 17.510887145996094 11.936202049255371 17.495697021484375 C11.95139217376709 17.480506896972656 11.95746898651123 17.465316772460938 11.95746898651123 17.444049835205078 L11.95746898651123 17.24658203125 L11.240506172180176 17.24658203125 C11.179746627807617 17.24658203125 11.1250638961792 17.22531509399414 11.082531929016113 17.179746627807617 C11.039999961853027 17.13721466064453 11.01569652557373 17.082530975341797 11.01569652557373 17.021772384643555 L11.01569652557373 16.395950317382812 C11.01569652557373 16.335189819335938 11.036962509155273 16.280506134033203 11.082531929016113 16.237974166870117 C11.1250638961792 16.19544219970703 11.179746627807617 16.171138763427734 11.240506172180176 16.171138763427734 L11.884557723999023 16.171138763427734 C11.948354721069336 16.171138763427734 12.0 16.19240379333496 12.04253101348877 16.237974166870117 C12.085063934326172 16.280506134033203 12.106328964233398 16.335189819335938 12.106328964233398 16.395950317382812 L12.106328964233398 17.444049835205078 M11.237467765808105 17.094682693481445 L11.881519317626953 17.094682693481445 C11.899746894836426 17.094682693481445 11.917975425720215 17.088607788085938 11.933165550231934 17.07341766357422 C11.948354721069336 17.0582275390625 11.95443058013916 17.04303741455078 11.95443058013916 17.021772384643555 L11.95443058013916 16.395950317382812 C11.95443058013916 16.377721786499023 11.948354721069336 16.359493255615234 11.933165550231934 16.344303131103516 C11.917975425720215 16.329113006591797 11.902785301208496 16.32303810119629 11.881519317626953 16.32303810119629 L11.237467765808105 16.32303810119629 C11.21924114227295 16.32303810119629 11.20101261138916 16.329113006591797 11.185823440551758 16.344303131103516 C11.170633316040039 16.359493255615234 11.164556503295898 16.374683380126953 11.164556503295898 16.395950317382812 L11.164556503295898 17.021772384643555 C11.164556503295898 17.04303741455078 11.170633316040039 17.0582275390625 11.185823440551758 17.07341766357422 C11.20101261138916 17.088607788085938 11.216202735900879 17.094682693481445 11.237467765808105 17.094682693481445 M13.473417282104492 17.44708824157715 C13.473417282104492 17.510887145996094 13.452152252197266 17.562530517578125 13.40962028503418 17.60810089111328 C13.367088317871094 17.650632858276367 13.312405586242676 17.674936294555664 13.251646041870117 17.674936294555664 L12.583291053771973 17.674936294555664 L12.583291053771973 17.520000457763672 L13.251646041870117 17.520000457763672 C13.26987361907959 17.520000457763672 13.288101196289062 17.51392364501953 13.303291320800781 17.498733520507812 C13.318480491638184 17.483543395996094 13.324557304382324 17.468353271484375 13.324557304382324 17.44708824157715 L13.324557304382324 17.24658203125 L12.60759449005127 17.24658203125 C12.546834945678711 17.24658203125 12.492152214050293 17.22531509399414 12.449621200561523 17.179746627807617 C12.407088279724121 17.13721466064453 12.382784843444824 17.082530975341797 12.382784843444824 17.021772384643555 L12.382784843444824 16.177215576171875 L12.534683227539062 16.177215576171875 L12.534683227539062 17.021772384643555 C12.534683227539062 17.04303741455078 12.540760040283203 17.0582275390625 12.555950164794922 17.07341766357422 C12.57114028930664 17.088607788085938 12.586329460144043 17.094682693481445 12.60759449005127 17.094682693481445 L13.251646041870117 17.094682693481445 C13.26987361907959 17.094682693481445 13.288101196289062 17.088607788085938 13.303291320800781 17.07341766357422 C13.318480491638184 17.0582275390625 13.324557304382324 17.04303741455078 13.324557304382324 17.021772384643555 L13.324557304382324 16.177215576171875 L13.476455688476562 16.177215576171875 L13.476455688476562 17.44708824157715 L13.473417282104492 17.44708824157715 M15.709367752075195 16.13772201538086 L15.709367752075195 16.189367294311523 L15.560505867004395 16.189367294311523 L15.560505867004395 16.13772201538086 C15.560505867004395 16.11949348449707 15.554430961608887 16.10126495361328 15.539241790771484 16.086074829101562 C15.524051666259766 16.070884704589844 15.508861541748047 16.064809799194336 15.487595558166504 16.064809799194336 L14.600506782531738 16.064809799194336 C14.58227825164795 16.064809799194336 14.564050674438477 16.070884704589844 14.548860549926758 16.086074829101562 C14.533670425415039 16.10126495361328 14.527595520019531 16.116455078125 14.527595520019531 16.13772201538086 L14.527595520019531 16.435441970825195 C14.527595520019531 16.456708908081055 14.533670425415039 16.471899032592773 14.548860549926758 16.484050750732422 C14.564050674438477 16.49620246887207 14.579240798950195 16.50531578063965 14.600506782531738 16.50531578063965 L15.487595558166504 16.50531578063965 C15.548355102539062 16.50531578063965 15.60303783416748 16.526580810546875 15.645570755004883 16.569114685058594 C15.688100814819336 16.611644744873047 15.709367752075195 16.66329002380371 15.709367752075195 16.727088928222656 L15.709367752075195 17.024810791015625 C15.709367752075195 17.085569381713867 15.688100814819336 17.1402530670166 15.645570755004883 17.182785034179688 C15.60303783416748 17.22531509399414 15.5513916015625 17.24658203125 15.487595558166504 17.24658203125 L14.600506782531738 17.24658203125 C14.53974723815918 17.24658203125 14.485063552856445 17.22531509399414 14.44253158569336 17.182785034179688 C14.399999618530273 17.1402530670166 14.378734588623047 17.088607788085938 14.378734588623047 17.024810791015625 L14.378734588623047 16.973163604736328 L14.527595520019531 16.973163604736328 L14.527595520019531 17.024810791015625 C14.527595520019531 17.04607582092285 14.533670425415039 17.06126594543457 14.548860549926758 17.076454162597656 C14.564050674438477 17.091644287109375 14.579240798950195 17.097721099853516 14.600506782531738 17.097721099853516 L15.487595558166504 17.097721099853516 C15.50582218170166 17.097721099853516 15.524051666259766 17.091644287109375 15.539241790771484 17.076454162597656 C15.554430961608887 17.06126594543457 15.560505867004395 17.04607582092285 15.560505867004395 17.024810791015625 L15.560505867004395 16.727088928222656 C15.560505867004395 16.708860397338867 15.554430961608887 16.69063377380371 15.539241790771484 16.67848014831543 C15.524051666259766 16.66632843017578 15.508861541748047 16.657215118408203 15.487595558166504 16.657215118408203 L14.600506782531738 16.657215118408203 C14.53974723815918 16.657215118408203 14.485063552856445 16.635948181152344 14.44253158569336 16.59341812133789 C14.399999618530273 16.550886154174805 14.378734588623047 16.49924087524414 14.378734588623047 16.435441970825195 L14.378734588623047 16.13772201538086 C14.378734588623047 16.076961517333984 14.399999618530273 16.02227783203125 14.44253158569336 15.979745864868164 C14.485063552856445 15.937214851379395 14.53670883178711 15.915949821472168 14.600506782531738 15.915949821472168 L15.487595558166504 15.915949821472168 C15.548355102539062 15.915949821472168 15.60303783416748 15.937214851379395 15.645570755004883 15.979745864868164 C15.688100814819336 16.02227783203125 15.709367752075195 16.073923110961914 15.709367752075195 16.13772201538086 M17.07645606994629 17.44708824157715 C17.07645606994629 17.510887145996094 17.05518913269043 17.562530517578125 17.012659072875977 17.60810089111328 C16.97012710571289 17.650632858276367 16.915443420410156 17.674936294555664 16.85468292236328 17.674936294555664 L16.186328887939453 17.674936294555664 L16.186328887939453 17.520000457763672 L16.85468292236328 17.520000457763672 C16.87291145324707 17.520000457763672 16.89113998413086 17.51392364501953 16.906330108642578 17.498733520507812 C16.921520233154297 17.483543395996094 16.927593231201172 17.468353271484375 16.927593231201172 17.44708824157715 L16.927593231201172 17.24658203125 L16.21063232421875 17.24658203125 C16.149873733520508 17.24658203125 16.095190048217773 17.22531509399414 16.052658081054688 17.179746627807617 C16.010128021240234 17.13721466064453 15.985822677612305 17.082530975341797 15.985822677612305 17.021772384643555 L15.985822677612305 16.177215576171875 L16.13772201538086 16.177215576171875 L16.13772201538086 17.021772384643555 C16.13772201538086 17.04303741455078 16.143796920776367 17.0582275390625 16.158987045288086 17.07341766357422 C16.174177169799805 17.088607788085938 16.189367294311523 17.094682693481445 16.21063232421875 17.094682693481445 L16.85468292236328 17.094682693481445 C16.87291145324707 17.094682693481445 16.89113998413086 17.088607788085938 16.906330108642578 17.07341766357422 C16.921520233154297 17.0582275390625 16.927593231201172 17.04303741455078 16.927593231201172 17.021772384643555 L16.927593231201172 16.177215576171875 L17.079492568969727 16.177215576171875 L17.079492568969727 17.44708824157715 L17.07645606994629 17.44708824157715 M18.46177101135254 16.39898681640625 L18.46177101135254 16.41417694091797 L18.306835174560547 16.41417694091797 L18.306835174560547 16.39898681640625 C18.306835174560547 16.380760192871094 18.300758361816406 16.362531661987305 18.285568237304688 16.347341537475586 C18.2703800201416 16.332151412963867 18.255189895629883 16.32607650756836 18.233922958374023 16.32607650756836 L17.589874267578125 16.32607650756836 C17.568607330322266 16.32607650756836 17.553417205810547 16.332151412963867 17.538227081298828 16.347341537475586 C17.523038864135742 16.362531661987305 17.5169620513916 16.377721786499023 17.5169620513916 16.39898681640625 L17.5169620513916 16.563037872314453 C17.5169620513916 16.581266403198242 17.523038864135742 16.59949493408203 17.538227081298828 16.614683151245117 C17.553417205810547 16.629873275756836 17.568607330322266 16.635948181152344 17.589874267578125 16.635948181152344 L18.233922958374023 16.635948181152344 C18.29772186279297 16.635948181152344 18.349369049072266 16.657215118408203 18.39493751525879 16.70278549194336 C18.437467575073242 16.745315551757812 18.46177101135254 16.799999237060547 18.46177101135254 16.860759735107422 L18.46177101135254 17.024810791015625 C18.46177101135254 17.085569381713867 18.440505981445312 17.1402530670166 18.39493751525879 17.182785034179688 C18.349369049072266 17.22531509399414 18.29772186279297 17.24962043762207 18.233922958374023 17.24962043762207 L17.589874267578125 17.24962043762207 C17.52911376953125 17.24962043762207 17.474430084228516 17.22835350036621 17.431900024414062 17.182785034179688 C17.389366149902344 17.1402530670166 17.365062713623047 17.085569381713867 17.365062713623047 17.024810791015625 L17.365062713623047 17.009620666503906 L17.5169620513916 17.009620666503906 L17.5169620513916 17.024810791015625 C17.5169620513916 17.04607582092285 17.523038864135742 17.06126594543457 17.538227081298828 17.076454162597656 C17.553417205810547 17.091644287109375 17.568607330322266 17.097721099853516 17.589874267578125 17.097721099853516 L18.233922958374023 17.097721099853516 C18.252151489257812 17.097721099853516 18.2703800201416 17.091644287109375 18.285568237304688 17.076454162597656 C18.300758361816406 17.06126594543457 18.306835174560547 17.04607582092285 18.306835174560547 17.024810791015625 L18.306835174560547 16.860759735107422 C18.306835174560547 16.842531204223633 18.300758361816406 16.824302673339844 18.285568237304688 16.809114456176758 C18.2703800201416 16.79392433166504 18.255189895629883 16.7878475189209 18.233922958374023 16.7878475189209 L17.589874267578125 16.7878475189209 C17.52911376953125 16.7878475189209 17.474430084228516 16.766582489013672 17.431900024414062 16.721012115478516 C17.389366149902344 16.67848014831543 17.365062713623047 16.623798370361328 17.365062713623047 16.563037872314453 L17.365062713623047 16.39898681640625 C17.365062713623047 16.338228225708008 17.386329650878906 16.28354263305664 17.431900024414062 16.241012573242188 C17.474430084228516 16.1984806060791 17.52911376953125 16.174177169799805 17.589874267578125 16.174177169799805 L18.233922958374023 16.174177169799805 C18.29772186279297 16.174177169799805 18.349369049072266 16.19544219970703 18.39493751525879 16.241012573242188 C18.440505981445312 16.286582946777344 18.46177101135254 16.335189819335938 18.46177101135254 16.39898681640625 L18.46177101135254 16.39898681640625 M19.367088317871094 16.32607650756836 L18.902278900146484 16.32607650756836 L18.902278900146484 17.024810791015625 C18.902278900146484 17.04607582092285 18.908353805541992 17.06126594543457 18.92354393005371 17.076454162597656 C18.93873405456543 17.091644287109375 18.95392417907715 17.097721099853516 18.975189208984375 17.097721099853516 L19.367088317871094 17.097721099853516 L19.367088317871094 17.24962043762207 L18.975189208984375 17.24962043762207 C18.911392211914062 17.24962043762207 18.8597469329834 17.22835350036621 18.817214965820312 17.182785034179688 C18.77468490600586 17.1402530670166 18.75341796875 17.085569381713867 18.75341796875 17.024810791015625 L18.75341796875 15.824810028076172 L18.905317306518555 15.824810028076172 L18.905317306518555 16.177215576171875 L19.370126724243164 16.177215576171875 L19.370126724243164 16.32607650756836 L19.367088317871094 16.32607650756836 M20.475950241088867 16.174177169799805 C20.53974723815918 16.174177169799805 20.591392517089844 16.19544219970703 20.636962890625 16.241012573242188 C20.682533264160156 16.286582946777344 20.703798294067383 16.338228225708008 20.703798294067383 16.39898681640625 L20.703798294067383 16.7878475189209 L19.762025833129883 16.7878475189209 L19.762025833129883 17.024810791015625 C19.762025833129883 17.04607582092285 19.76810073852539 17.06126594543457 19.78329086303711 17.076454162597656 C19.798480987548828 17.091644287109375 19.813671112060547 17.097721099853516 19.834936141967773 17.097721099853516 L20.703798294067383 17.097721099853516 L20.703798294067383 17.24962043762207 L19.834936141967773 17.24962043762207 C19.77417755126953 17.24962043762207 19.719493865966797 17.22835350036621 19.67696189880371 17.182785034179688 C19.634429931640625 17.13721466064453 19.610126495361328 17.085569381713867 19.610126495361328 17.024810791015625 L19.610126495361328 16.39898681640625 C19.610126495361328 16.338228225708008 19.631391525268555 16.28354263305664 19.67696189880371 16.241012573242188 C19.722530364990234 16.1984806060791 19.77417755126953 16.174177169799805 19.834936141967773 16.174177169799805 L20.475950241088867 16.174177169799805 M19.758987426757812 16.635948181152344 L20.545822143554688 16.635948181152344 L20.545822143554688 16.39898681640625 C20.545822143554688 16.380760192871094 20.53974723815918 16.362531661987305 20.52455711364746 16.347341537475586 C20.509366989135742 16.332151412963867 20.494176864624023 16.32607650756836 20.472911834716797 16.32607650756836 L19.828859329223633 16.32607650756836 C19.80759620666504 16.32607650756836 19.79240608215332 16.332151412963867 19.7772159576416 16.347341537475586 C19.762025833129883 16.362531661987305 19.755950927734375 16.377721786499023 19.755950927734375 16.39898681640625 L19.755950927734375 16.635948181152344 L19.758987426757812 16.635948181152344 M22.41417694091797 16.174177169799805 C22.47797393798828 16.174177169799805 22.529621124267578 16.19544219970703 22.57215118408203 16.241012573242188 C22.614683151245117 16.28354263305664 22.635948181152344 16.338228225708008 22.635948181152344 16.39898681640625 L22.635948181152344 17.24962043762207 L22.48708724975586 17.24962043762207 L22.48708724975586 16.39898681640625 C22.48708724975586 16.380760192871094 22.481014251708984 16.362531661987305 22.465824127197266 16.347341537475586 C22.450634002685547 16.332151412963867 22.432403564453125 16.32607650756836 22.41417694091797 16.32607650756836 L21.967594146728516 16.32607650756836 C21.94632911682129 16.32607650756836 21.93113899230957 16.332151412963867 21.91594886779785 16.347341537475586 C21.900758743286133 16.362531661987305 21.894683837890625 16.377721786499023 21.894683837890625 16.39898681640625 L21.894683837890625 17.24962043762207 L21.73974609375 17.24962043762207 L21.73974609375 16.39898681640625 C21.73974609375 16.380760192871094 21.73366928100586 16.362531661987305 21.718481063842773 16.347341537475586 C21.703290939331055 16.332151412963867 21.688100814819336 16.32607650756836 21.66683578491211 16.32607650756836 L21.223291397094727 16.32607650756836 C21.205062866210938 16.32607650756836 21.18683624267578 16.332151412963867 21.171646118164062 16.347341537475586 C21.156455993652344 16.362531661987305 21.150379180908203 16.377721786499023 21.150379180908203 16.39898681640625 L21.150379180908203 17.24962043762207 L20.99544334411621 17.24962043762207 L20.99544334411621 16.177215576171875 L22.41417694091797 16.177215576171875 L22.41417694091797 16.174177169799805 M23.99392318725586 16.39898681640625 L23.99392318725586 16.41417694091797 L23.838985443115234 16.41417694091797 L23.838985443115234 16.39898681640625 C23.838985443115234 16.380760192871094 23.83291244506836 16.362531661987305 23.81772232055664 16.347341537475586 C23.802532196044922 16.332151412963867 23.787342071533203 16.32607650756836 23.766075134277344 16.32607650756836 L23.122024536132812 16.32607650756836 C23.100759506225586 16.32607650756836 23.085569381713867 16.332151412963867 23.07037925720215 16.347341537475586 C23.05518913269043 16.362531661987305 23.049114227294922 16.377721786499023 23.049114227294922 16.39898681640625 L23.049114227294922 16.563037872314453 C23.049114227294922 16.581266403198242 23.05518913269043 16.59949493408203 23.07037925720215 16.614683151245117 C23.085569381713867 16.629873275756836 23.100759506225586 16.635948181152344 23.122024536132812 16.635948181152344 L23.766075134277344 16.635948181152344 C23.829872131347656 16.635948181152344 23.881519317626953 16.657215118408203 23.92708969116211 16.70278549194336 C23.969619750976562 16.745315551757812 23.99392318725586 16.799999237060547 23.99392318725586 16.860759735107422 L23.99392318725586 17.024810791015625 C23.99392318725586 17.085569381713867 23.972658157348633 17.1402530670166 23.92708969116211 17.182785034179688 C23.881519317626953 17.22531509399414 23.829872131347656 17.24962043762207 23.766075134277344 17.24962043762207 L23.122024536132812 17.24962043762207 C23.06126594543457 17.24962043762207 23.006582260131836 17.22835350036621 22.96405029296875 17.182785034179688 C22.921520233154297 17.1402530670166 22.897212982177734 17.085569381713867 22.897212982177734 17.024810791015625 L22.897212982177734 17.009620666503906 L23.049114227294922 17.009620666503906 L23.049114227294922 17.024810791015625 C23.049114227294922 17.04607582092285 23.05518913269043 17.06126594543457 23.07037925720215 17.076454162597656 C23.085569381713867 17.091644287109375 23.100759506225586 17.097721099853516 23.122024536132812 17.097721099853516 L23.766075134277344 17.097721099853516 C23.784303665161133 17.097721099853516 23.802532196044922 17.091644287109375 23.81772232055664 17.076454162597656 C23.83291244506836 17.06126594543457 23.838985443115234 17.04607582092285 23.838985443115234 17.024810791015625 L23.838985443115234 16.860759735107422 C23.838985443115234 16.842531204223633 23.83291244506836 16.824302673339844 23.81772232055664 16.809114456176758 C23.802532196044922 16.79392433166504 23.787342071533203 16.7878475189209 23.766075134277344 16.7878475189209 L23.122024536132812 16.7878475189209 C23.06126594543457 16.7878475189209 23.006582260131836 16.766582489013672 22.96405029296875 16.721012115478516 C22.921520233154297 16.67848014831543 22.897212982177734 16.623798370361328 22.897212982177734 16.563037872314453 L22.897212982177734 16.39898681640625 C22.897212982177734 16.338228225708008 22.918479919433594 16.28354263305664 22.96405029296875 16.241012573242188 C23.006582260131836 16.1984806060791 23.06126594543457 16.174177169799805 23.122024536132812 16.174177169799805 L23.766075134277344 16.174177169799805 C23.829872131347656 16.174177169799805 23.881519317626953 16.19544219970703 23.92708969116211 16.241012573242188 C23.972658157348633 16.286582946777344 23.99392318725586 16.335189819335938 23.99392318725586 16.39898681640625 L23.99392318725586 16.39898681640625" fill="black" fill-opacity="1.0" filling="0"/>
<path animation_id="10" d="M6.853671073913574 9.894683837890625 L6.498228073120117 9.894683837890625 C6.577215194702148 10.459747314453125 6.513418197631836 11.003543853759766 6.376709461212158 11.547341346740723 C6.373671054840088 11.532151222229004 6.370633602142334 11.513923645019531 6.370633602142334 11.498734474182129 C6.379746913909912 11.24962043762207 6.391899108886719 10.997467994689941 6.391899108886719 10.7483549118042 C6.391899108886719 10.605569839477539 6.367595195770264 10.46582317352295 6.358481407165527 10.323038101196289 C6.33113956451416 9.93417739868164 6.240000247955322 9.55746841430664 6.100253582000732 9.192911148071289 C5.981772422790527 8.876961708068848 5.81468391418457 8.588354110717773 5.605063438415527 8.324050903320312 C5.362025260925293 8.014177322387695 5.064304351806641 7.762025356292725 4.727088928222656 7.555443286895752 C4.353417873382568 7.324557304382324 3.9493675231933594 7.169620513916016 3.5270891189575195 7.063291072845459 C3.1382274627685547 6.966076374053955 2.740253448486328 6.914430141448975 2.342278480529785 6.89316463470459 C2.317974090576172 6.890126705169678 2.293670654296875 6.89316463470459 2.266329765319824 6.89316463470459 C2.2511396408081055 6.871898651123047 2.2359495162963867 6.853670597076416 2.2207603454589844 6.8384809494018555 C2.2055702209472656 6.823290824890137 2.190380096435547 6.811139106750488 2.172152519226074 6.792911052703857 C2.1873416900634766 6.795949459075928 2.1994943618774414 6.79898738861084 2.21468448638916 6.795949459075928 C2.430379867553711 6.780759334564209 2.643037796020508 6.759493827819824 2.858734130859375 6.7443037033081055 C3.0713930130004883 6.726076126098633 3.281012535095215 6.710886001586914 3.490633964538574 6.6956963539123535 C3.7853164672851562 6.671392440795898 4.083038806915283 6.6501264572143555 4.380760192871094 6.6258225440979 C4.389873504638672 6.6258225440979 4.4020256996154785 6.6258225440979 4.414177417755127 6.637974739074707 C4.274430751800537 6.710886001586914 4.137722015380859 6.783797740936279 3.994936943054199 6.856709003448486 C3.9979753494262695 6.8627848625183105 4.001013278961182 6.868860721588135 4.001013278961182 6.871898651123047 C4.332152366638184 6.902278423309326 4.6632914543151855 6.929620265960693 4.991392612457275 6.9569621086120605 C4.994431018829346 6.963037967681885 4.9974684715271 6.966076374053955 4.9974684715271 6.969113826751709 C4.85772180557251 7.03291130065918 4.721013069152832 7.09670877456665 4.581265926361084 7.160506248474121 C4.584304332733154 7.166582107543945 4.584304332733154 7.172658443450928 4.584304332733154 7.17569637298584 C4.909367561340332 7.209113597869873 5.231392860412598 7.242531776428223 5.553418159484863 7.278987407684326 C5.556456089019775 7.28506326675415 5.556456089019775 7.2881011962890625 5.5594940185546875 7.294177532196045 C5.43797492980957 7.364050388336182 5.319494247436523 7.433924198150635 5.1827850341796875 7.515949249267578 C5.459240913391113 7.55240535736084 5.714430809020996 7.585822582244873 5.969620227813721 7.622278213500977 C5.972658634185791 7.628354549407959 5.972658634185791 7.634429931640625 5.972658634185791 7.640506267547607 L5.5807600021362305 7.822784900665283 C5.577722072601318 7.828860759735107 5.577722072601318 7.834936618804932 5.577722072601318 7.841012954711914 C5.832911491394043 7.910885810852051 6.088101863861084 7.980759620666504 6.340253829956055 8.053670883178711 C6.343291282653809 8.059746742248535 6.343291282653809 8.062784194946289 6.343291282653809 8.06886100769043 C6.194430828094482 8.111392974853516 6.045569896697998 8.153923988342285 5.893671035766602 8.199493408203125 C5.893671035766602 8.205570220947266 5.8906331062316895 8.20860767364502 5.8906331062316895 8.214683532714844 C6.115443229675293 8.28759479522705 6.337215423583984 8.360506057739258 6.562025547027588 8.433418273925781 C6.5650634765625 8.439493179321289 6.5650634765625 8.44556999206543 6.5650634765625 8.448607444763184 C6.440506458282471 8.4881010055542 6.3189873695373535 8.524557113647461 6.176202774047852 8.5701265335083 C6.364557266235352 8.6764554977417 6.537722110748291 8.767595291137695 6.726076126098633 8.873924255371094 C6.592405319213867 8.91645622253418 6.47088623046875 8.955949783325195 6.337215423583984 9.001519203186035 C6.51949405670166 9.141265869140625 6.6896209716796875 9.27189826965332 6.868861198425293 9.411645889282227 C6.7443037033081055 9.432910919189453 6.628861427307129 9.451139450073242 6.501266002655029 9.472404479980469 C6.619747161865234 9.60303783416748 6.732151985168457 9.74278450012207 6.853671073913574 9.894683837890625 L6.853671073913574 9.894683837890625" fill="black" fill-opacity="1.0" filling="0"/>
<path animation_id="11" d="M2.5913925170898438 11.814682960510254 C2.6946840286254883 11.638481140136719 2.782785415649414 11.459239959716797 2.8496198654174805 11.273923873901367 L2.8496198654174805 14.494176864624023 L0.680506706237793 14.494176864624023 L0.680506706237793 13.254683494567871 L1.6344308853149414 13.254683494567871 L1.6344308853149414 12.246075630187988 L1.8956975936889648 12.246075630187988 C2.02329158782959 12.246075630187988 2.150885581970215 12.249114036560059 2.2784814834594727 12.243038177490234 C2.2997474670410156 12.243038177490234 2.3301267623901367 12.227848052978516 2.342278480529785 12.212657928466797 C2.427342414855957 12.078987121582031 2.5154428482055664 11.948354721069336 2.5913925170898438 11.814682960510254 L2.5913925170898438 11.814682960510254 M2.852659225463867 7.962532043457031 L2.852659225463867 9.9281005859375 C2.7675952911376953 9.779240608215332 2.6339244842529297 9.654683113098145 2.4577226638793945 9.560506820678711 C2.3726587295532227 9.657721519470215 2.293670654296875 9.757974624633789 2.208608627319336 9.849113464355469 C2.008101463317871 10.064809799194336 1.7832918167114258 10.250126838684082 1.5068359375 10.359493255615234 C1.4278488159179688 10.389873504638672 1.3458232879638672 10.411139488220215 1.2637977600097656 10.429367065429688 C1.2182283401489258 10.438480377197266 1.203038215637207 10.456708908081055 1.193924903869629 10.49620246887207 C1.1635446548461914 10.623797416687012 1.1210126876831055 10.742278099060059 1.0268363952636719 10.836455345153809 C0.8840513229370117 10.976202964782715 0.7139244079589844 10.988354682922363 0.5346841812133789 10.933670997619629 C0.4405069351196289 10.903290748596191 0.3463287353515625 10.869873046875 0.2582283020019531 10.821266174316406 C0.13974761962890625 10.757468223571777 0.08810138702392578 10.63594913482666 0.060759544372558594 10.511392593383789 C0.0 10.225822448730469 0.05772209167480469 9.961519241333008 0.2460765838623047 9.733671188354492 C0.376708984375 9.578734397888184 0.41620349884033203 9.38430404663086 0.48607635498046875 9.202025413513184 C0.6531648635864258 8.755443572998047 0.8263301849365234 8.311899185180664 1.0724058151245117 7.901772499084473 C1.1210126876831055 7.819746971130371 1.1848106384277344 7.746835708618164 1.2394943237304688 7.667848110198975 C1.2577219009399414 7.640506267547607 1.2789878845214844 7.613164901733398 1.2789878845214844 7.582785129547119 C1.3002538681030273 7.3610124588012695 1.3245573043823242 7.139240741729736 1.3336706161499023 6.920506477355957 C1.339747428894043 6.79898738861084 1.3093671798706055 6.677468776702881 1.2941780090332031 6.552911281585693 C1.41265869140625 6.616709232330322 1.5129117965698242 6.701772212982178 1.6040515899658203 6.802025318145752 C1.6101264953613281 6.79898738861084 1.6162033081054688 6.79898738861084 1.6222782135009766 6.795949459075928 C1.5949373245239258 6.644050598144531 1.5645570755004883 6.489113807678223 1.537215232849121 6.325063228607178 C1.643545150756836 6.397974491119385 1.7498741149902344 6.46784782409668 1.8531646728515625 6.546835422515869 C1.8956975936889648 6.577215194702148 1.935190200805664 6.61063289642334 1.97772216796875 6.644050598144531 C1.97772216796875 6.644050598144531 1.9868364334106445 6.6501264572143555 1.9989871978759766 6.662278652191162 C2.047595977783203 6.701772212982178 2.099241256713867 6.738227844238281 2.1417722702026367 6.780759334564209 C2.217721939086914 6.856709003448486 2.3301267623901367 7.011645793914795 2.363544464111328 7.066329002380371 C2.3665828704833984 7.0724053382873535 2.3665828704833984 7.075442790985107 2.3696203231811523 7.078481197357178 L2.3726587295532227 7.081518650054932 C2.3787336349487305 7.090632915496826 2.4030380249023438 7.090632915496826 2.421266555786133 7.090632915496826 C2.831393241882324 7.130126476287842 3.2384815216064453 7.200000286102295 3.6303796768188477 7.3154425621032715 C4.079999923706055 7.446076393127441 4.505316734313965 7.631392478942871 4.863797664642334 7.9443039894104 C4.8729119300842285 7.9534173011779785 4.882025718688965 7.959493637084961 4.888101577758789 7.965569496154785 L2.852659225463867 7.965569496154785 L2.852659225463867 7.962532043457031" fill="black" fill-opacity="1.0" filling="0"/>
<path animation_id="12" d="M5.595950126647949 8.734177589416504 L3.6212663650512695 8.734177589416504 L3.6212663650512695 14.491138458251953 L3.116962432861328 14.491138458251953 L3.116962432861328 8.226835250854492 L5.173671245574951 8.226835250854492 C5.273924350738525 8.327088356018066 5.3711395263671875 8.433418273925781 5.459240913391113 8.542784690856934 C5.504810810089111 8.603544235229492 5.553418159484863 8.670379638671875 5.595950126647949 8.734177589416504 L5.595950126647949 8.734177589416504" fill="black" fill-opacity="1.0" filling="0"/>
<path animation_id="13" d="M5.9848103523254395 9.505823135375977 L4.392911911010742 9.505823135375977 L4.392911911010742 14.494176864624023 L3.885570526123047 14.494176864624023 L3.885570526123047 8.998480796813965 L5.753924369812012 8.998480796813965 C5.817721843719482 9.113924026489258 5.872405529022217 9.22936725616455 5.921012878417969 9.350886344909668 C5.945316791534424 9.399493217468262 5.966582775115967 9.454176902770996 5.9848103523254395 9.505823135375977 L5.9848103523254395 9.505823135375977" fill="black" fill-opacity="1.0" filling="0"/>
<path animation_id="14" d="M6.188354969024658 10.27746868133545 L5.164556980133057 10.27746868133545 L5.164556980133057 14.494176864624023 L4.657215595245361 14.494176864624023 L4.657215595245361 9.770126342773438 L6.072911739349365 9.770126342773438 C6.118481636047363 9.9281005859375 6.157975196838379 10.086075782775879 6.182278633117676 10.250126838684082 C6.185316562652588 10.256202697753906 6.188354969024658 10.268354415893555 6.188354969024658 10.27746868133545 L6.188354969024658 10.27746868133545" fill="black" fill-opacity="1.0" filling="0"/>
<path animation_id="15" d="M6.440506458282471 6.665316581726074 L7.212152481079102 6.665316581726074 L7.212152481079102 7.436961650848389 L6.440506458282471 7.436961650848389 L6.440506458282471 6.665316581726074" fill="black" fill-opacity="1.0" filling="0"/>
<path animation_id="16" d="M8.752405166625977 7.436961650848389 L9.52405071258545 7.436961650848389 L9.52405071258545 8.20860767364502 L8.752405166625977 8.20860767364502 L8.752405166625977 7.436961650848389" fill="black" fill-opacity="1.0" filling="0"/>
<path animation_id="17" d="M7.980760097503662 6.665316581726074 L8.752405166625977 6.665316581726074 L8.752405166625977 7.436961650848389 L7.980760097503662 7.436961650848389 L7.980760097503662 6.665316581726074" fill="black" fill-opacity="1.0" filling="0"/>
<path animation_id="18" d="M10.295696258544922 9.01063346862793 L11.067342758178711 9.01063346862793 L11.067342758178711 9.782278060913086 L10.295696258544922 9.782278060913086 L10.295696258544922 9.01063346862793" fill="black" fill-opacity="1.0" filling="0"/>
<path animation_id="19" d="M9.52405071258545 6.6258225440979 L10.295696258544922 6.6258225440979 L10.295696258544922 7.397468566894531 L9.52405071258545 7.397468566894531 L9.52405071258545 6.6258225440979" fill="black" fill-opacity="1.0" filling="0"/>
<path animation_id="20" d="M11.835949897766113 7.436961650848389 L12.60759449005127 7.436961650848389 L12.60759449005127 8.20860767364502 L11.835949897766113 8.20860767364502 L11.835949897766113 7.436961650848389" fill="black" fill-opacity="1.0" filling="0"/>
<path animation_id="21" d="M12.60759449005127 8.220759391784668 L13.379240036010742 8.220759391784668 L13.379240036010742 8.99240493774414 L12.60759449005127 8.99240493774414 L12.60759449005127 8.220759391784668" fill="black" fill-opacity="1.0" filling="0"/>
<path animation_id="22" d="M14.150886535644531 8.220759391784668 L14.922532081604004 8.220759391784668 L14.922532081604004 8.99240493774414 L14.150886535644531 8.99240493774414 L14.150886535644531 8.220759391784668" fill="black" fill-opacity="1.0" filling="0"/>
<path animation_id="23" d="M11.06430435180664 9.773164749145508 L11.835949897766113 9.773164749145508 L11.835949897766113 10.54481029510498 L11.06430435180664 10.54481029510498 L11.06430435180664 9.773164749145508" fill="black" fill-opacity="1.0" filling="0"/>
<path animation_id="24" d="M14.919493675231934 8.98936653137207 L15.691140174865723 8.98936653137207 L15.691140174865723 9.76101303100586 L14.919493675231934 9.76101303100586 L14.919493675231934 8.98936653137207" fill="black" fill-opacity="1.0" filling="0"/>
<path animation_id="25" d="M15.703290939331055 7.436961650848389 L16.474937438964844 7.436961650848389 L16.474937438964844 8.20860767364502 L15.703290939331055 8.20860767364502 L15.703290939331055 7.436961650848389" fill="black" fill-opacity="1.0" filling="0"/>
<path animation_id="26" d="M13.379240036010742 7.436961650848389 L14.150886535644531 7.436961650848389 L14.150886535644531 8.20860767364502 L13.379240036010742 8.20860767364502 L13.379240036010742 7.436961650848389" fill="black" fill-opacity="1.0" filling="0"/>
<path animation_id="27" d="M18.03262710571289 8.991645812988281 L18.03262710571289 9.763291358947754 L17.260982513427734 9.763291358947754 L17.260982513427734 8.991645812988281 L18.03262710571289 8.991645812988281" fill="black" fill-opacity="1.0" filling="0"/>
<path animation_id="28" d="M17.25518035888672 9.761741638183594 L17.25518035888672 10.533387184143066 L16.48353385925293 10.533387184143066 L16.48353385925293 9.761741638183594 L17.25518035888672 9.761741638183594" fill="black" fill-opacity="1.0" filling="0"/>
<path animation_id="29" d="M18.808223724365234 7.435898780822754 L18.808223724365234 8.207544326782227 L18.036577224731445 8.207544326782227 L18.036577224731445 7.435898780822754 L18.808223724365234 7.435898780822754" fill="black" fill-opacity="1.0" filling="0"/>
<path animation_id="30" d="M18.808799743652344 9.760526657104492 L18.808799743652344 10.532172203063965 L18.037155151367188 10.532172203063965 L18.037155151367188 9.760526657104492 L18.808799743652344 9.760526657104492" fill="black" fill-opacity="1.0" filling="0"/>
<path animation_id="31" d="M19.578044891357422 8.219149589538574 L19.578044891357422 8.990795135498047 L18.806398391723633 8.990795135498047 L18.806398391723633 8.219149589538574 L19.578044891357422 8.219149589538574" fill="black" fill-opacity="1.0" filling="0"/>
<path animation_id="32" d="M11.06430435180664 8.220759391784668 L11.835949897766113 8.220759391784668 L11.835949897766113 8.99240493774414 L11.06430435180664 8.99240493774414 L11.06430435180664 8.220759391784668" fill="black" fill-opacity="1.0" filling="0"/>
<path animation_id="33" d="M8.752405166625977 9.01063346862793 L9.52405071258545 9.01063346862793 L9.52405071258545 9.782278060913086 L8.752405166625977 9.782278060913086 L8.752405166625977 9.01063346862793" fill="black" fill-opacity="1.0" filling="0"/>
<path animation_id="34" d="M7.980760097503662 9.773164749145508 L8.752405166625977 9.773164749145508 L8.752405166625977 10.54481029510498 L7.980760097503662 10.54481029510498 L7.980760097503662 9.773164749145508" fill="black" fill-opacity="1.0" filling="0"/></svg>