<?xml version="1.0" encoding="iso-8859-1"?><svg height="200px" viewBox="0.0 0.0 24.0 24.0" width="200px" xmlns="http://www.w3.org/2000/svg"><path animation_id="0" d="M11.998030662536621 14.567530632019043 L24.0 2.6184377670288086 L24.0 1.9319067001342773 C24.0 0.8650312423706055 23.134967803955078 0.0 22.06800079345703 0.0 L1.9320001602172852 0.0 C0.8650312423706055 0.0 0.0 0.8650312423706055 0.0 1.9320001602172852 L0.0 16.023000717163086 L6.66253137588501 9.39900016784668 L11.998030662536621 14.567438125610352" fill="black" fill-opacity="1.0" filling="0"/>
<path animation_id="1" d="M6.664499759674072 14.796562194824219 L0.0 21.44690704345703 L0.0 22.067907333374023 C0.0 23.134967803955078 0.8650312423706055 24.0 1.9320001602172852 24.0 L22.06800079345703 24.0 C23.134967803955078 24.0 24.0 23.134967803955078 24.0 22.06800079345703 L24.0 8.11846923828125 L11.998030662536621 20.067468643188477 L6.664499759674072 14.796562194824219" fill="black" fill-opacity="1.0" filling="0"/>
<path animation_id="2" d="M0.0 16.023000717163086 L6.66253137588501 9.39900016784668 L11.998030662536621 14.567438125610352 L24.0 2.618624687194824 L23.998031616210938 8.120061874389648 L11.998030662536621 20.067562103271484 L6.664499759674072 14.796562194824219 L0.0 21.44700050354004 L0.0 16.023000717163086" fill="black" fill-opacity="1.0" filling="0"/>
<path animation_id="3" d="M9.333000183105469 17.434499740600586 L9.333468437194824 11.986030578613281 L6.664499759674072 14.796468734741211 L9.333000183105469 17.434499740600586" fill="black" fill-opacity="1.0" filling="0"/></svg>