<?xml version="1.0" encoding="iso-8859-1"?><svg height="200px" viewBox="0.0 0.0 24.0 24.0" width="200px" xmlns="http://www.w3.org/2000/svg"><path animation_id="0" d="M0.0 23.999065399169922 L24.0 23.999065399169922 L24.0 0.0009336471557617188 L0.0 0.0009336471557617188 L0.0 23.999065399169922" fill="black" fill-opacity="1.0" filling="0"/>
<path animation_id="1" d="M5.362883567810059 9.903817176818848 C6.581958770751953 6.549399375915527 10.51783561706543 3.817530632019043 14.354852676391602 3.604867935180664 C12.105460166931152 6.5914835929870605 8.799726486206055 8.92018985748291 5.362883567810059 9.903817176818848" fill="black" fill-opacity="1.0" filling="0"/>
<path animation_id="2" d="M16.509992599487305 3.7763185501098633 C17.123077392578125 3.9198780059814453 17.67291259765625 4.143746376037598 18.148540496826172 4.4353485107421875 C15.10415267944336 7.288115501403809 11.254684448242188 9.329702377319336 7.397497177124023 9.970553398132324 C7.3717241287231445 9.997696876525879 7.376829147338867 10.005789756774902 7.386665344238281 10.005789756774902 C10.796239852905273 10.646516799926758 13.220817565917969 12.688228607177734 14.27603816986084 15.540745735168457 C13.597086906433105 15.832347869873047 12.891117095947266 16.056093215942383 12.17755126953125 16.199403762817383 C11.613771438598633 13.116168022155762 9.479923248291016 10.81323528289795 6.243914604187012 10.005043029785156 C6.238187313079834 9.979517936706543 6.2465291023254395 9.972171783447266 6.255244731903076 9.970802307128906 C10.05553150177002 9.162734985351562 13.795804977416992 6.85955286026001 16.509992599487305 3.7763185501098633 L16.509992599487305 3.7763185501098633" fill="black" fill-opacity="1.0" filling="0"/>
<path animation_id="3" d="M19.251323699951172 5.381746768951416 A4.075203895568848 4.075203895568848 0.0 0 1 19.88096809387207 6.4226484298706055 C16.694765090942383 8.37247085571289 13.183465957641602 9.64745044708252 9.722219467163086 9.970304489135742 C9.712507247924805 9.970304489135742 9.701799392700195 9.978398323059082 9.698312759399414 9.987984657287598 C12.946024894714355 10.328269958496094 15.56832504272461 11.603249549865723 17.394634246826172 13.552947998046875 A11.220070838928223 11.220070838928223 0.0 0 1 16.039594650268555 14.593600273132324 C14.532652854919434 12.14885139465332 11.939737319946289 10.47718334197998 8.539376258850098 10.00554084777832 C8.529664039611816 10.00554084777832 8.523439407348633 9.997696876525879 8.527050018310547 9.987984657287598 C12.278528213500977 9.49828815460205 16.038597106933594 7.826496124267578 19.251323699951172 5.381746768951416 L19.251323699951172 5.381746768951416" fill="black" fill-opacity="1.0" filling="0"/>
<path animation_id="4" d="M20.155263900756836 7.4117536544799805 C20.274917602539062 8.19990062713623 20.189754486083984 9.071468353271484 19.87051010131836 9.987984657287598 C19.55101776123047 10.904500961303711 19.027828216552734 11.775944709777832 18.358837127685547 12.563718795776367 C16.389591217041016 11.11579418182373 13.875740051269531 10.208616256713867 10.924360275268555 10.005415916442871 C10.914897918701172 10.005415916442871 10.908672332763672 9.99757194519043 10.912282943725586 9.987611770629883 A0.02701861411333084 0.02701861411333084 0.0 0 1 10.93593978881836 9.97018051147461 C14.02975845336914 9.766979217529297 17.17574691772461 8.860051155090332 20.155263900756836 7.4117536544799805 L20.155263900756836 7.4117536544799805 M9.902508735656738 16.371225357055664 C6.2145304679870605 16.158315658569336 4.18377685546875 13.426819801330566 5.304364204406738 10.07215404510498 C8.054784774780273 11.05590534210205 9.736785888671875 13.384486198425293 9.902508735656738 16.371225357055664 M4.132603168487549 19.36829948425293 L3.8677711486816406 17.87505531311035 C3.8429927825927734 17.73386001586914 3.7379074096679688 17.59229278564453 3.5695695877075195 17.591297149658203 L3.112992286682129 17.591297149658203 C2.941791534423828 17.592416763305664 2.7321176528930664 17.644338607788086 2.571748733520508 17.804954528808594 L1.0588302612304688 19.36829948425293 L2.2009592056274414 19.36829948425293 L2.384486198425293 19.098487854003906 L3.102907180786133 19.098487854003906 L3.102907180786133 19.36829948425293 L4.132603168487549 19.36829948425293 M2.5880603790283203 18.798419952392578 L3.102907180786133 18.039531707763672 L3.102907180786133 18.798419952392578 L2.5880603790283203 18.798419952392578 M8.945154190063477 17.98126220703125 L9.526116371154785 17.98126220703125 L9.67341136932373 17.632633209228516 L7.349187850952148 17.632633209228516 L7.2035112380981445 17.98126220703125 L7.87225341796875 17.98126220703125 L7.283695697784424 19.368797302246094 L8.35634708404541 19.368797302246094 L8.945154190063477 17.98126220703125 L8.945154190063477 17.98126220703125 M20.531034469604492 17.650564193725586 C20.441761016845703 17.631389617919922 20.173566818237305 17.582456588745117 19.7757568359375 17.59054946899414 C18.459192276000977 17.55967140197754 17.895910263061523 18.154953002929688 17.855567932128906 18.682125091552734 C17.85706329345703 19.111312866210938 18.334932327270508 19.3553524017334 18.984872817993164 19.402416229248047 C19.016000747680664 19.4046573638916 19.04712677001953 19.406150817871094 19.07825469970703 19.40739631652832 L19.356409072875977 19.40739631652832 A3.0380377769470215 3.0380377769470215 0.0 0 0 19.87735939025879 19.341903686523438 L20.285625457763672 18.926414489746094 C20.022785186767578 18.991409301757812 19.69706916809082 19.02552604675293 19.42962074279785 18.97821044921875 C19.16553497314453 18.93973731994629 18.979019165039062 18.81995964050293 18.979019165039062 18.6075439453125 C18.979019165039062 18.5635929107666 18.991222381591797 18.515533447265625 19.006786346435547 18.47108268737793 C19.17238426208496 18.09070587158203 19.59086036682129 17.985868453979492 19.921184539794922 17.980640411376953 C20.118160247802734 17.97640609741211 20.34165382385254 17.99645233154297 20.531034469604492 18.061321258544922 L20.531034469604492 17.650564193725586 L20.531034469604492 17.650564193725586 M11.226545333862305 17.599140167236328 C10.981759071350098 17.578969955444336 10.097616195678711 17.54410743713379 9.607172012329102 18.048995971679688 C9.459752082824707 18.199899673461914 9.36201286315918 18.40459442138672 9.36201286315918 18.61713409423828 C9.36201286315918 19.005353927612305 9.708646774291992 19.331695556640625 10.441512107849121 19.397933959960938 C10.487580299377441 19.40216636657715 10.533150672912598 19.4052791595459 10.577850341796875 19.407146453857422 L10.829483985900879 19.407146453857422 C11.578036308288574 19.372283935546875 12.087406158447266 19.024154663085938 12.246654510498047 18.647140502929688 C12.288987159729004 18.545663833618164 12.312520027160645 18.439830780029297 12.312520027160645 18.337234497070312 C12.315009117126465 18.000436782836914 12.048683166503906 17.660274505615234 11.226545333862305 17.599140167236328 L11.226545333862305 17.599140167236328 M11.206499099731445 18.567577362060547 C11.052979469299316 18.93600082397461 10.85114860534668 19.042707443237305 10.628026962280273 19.02042007446289 C10.486335754394531 19.002864837646484 10.393077850341797 18.921558380126953 10.393077850341797 18.7511043548584 C10.393077850341797 18.673534393310547 10.409263610839844 18.57990264892578 10.444873809814453 18.468093872070312 C10.552823066711426 18.12531852722168 10.741331100463867 17.898088455200195 11.062192916870117 17.939924240112305 C11.219449043273926 17.960718154907227 11.2864351272583 18.077632904052734 11.2864351272583 18.226295471191406 C11.2864351272583 18.32565689086914 11.25680160522461 18.442943572998047 11.206499099731445 18.567577362060547 L11.206499099731445 18.567577362060547 M14.442383766174316 17.632633209228516 L13.096805572509766 17.632633209228516 C12.960094451904297 17.634252548217773 12.813796043395996 17.739213943481445 12.758264541625977 17.87293815612793 C12.757267951965332 17.87293815612793 12.434041023254395 18.625972747802734 12.254622459411621 19.063377380371094 C12.185519218444824 19.243167877197266 12.28089427947998 19.36829948425293 12.434041023254395 19.36829948425293 L13.652618408203125 19.36829948425293 C14.225860595703125 19.36829948425293 14.830106735229492 19.268442153930664 14.956608772277832 18.963394165039062 C15.082612991333008 18.65834617614746 14.900704383850098 18.520389556884766 14.515968322753906 18.444562911987305 C14.511361122131348 18.44369125366211 14.511859893798828 18.44194793701172 14.517213821411133 18.44194793701172 C14.658034324645996 18.439208984375 15.034427642822266 18.36001968383789 15.147980690002441 18.08547592163086 C15.241487503051758 17.86023712158203 15.177114486694336 17.632633209228516 14.442383766174316 17.632633209228516 L14.442383766174316 17.632633209228516 M13.922928810119629 18.811119079589844 C13.858930587768555 18.965635299682617 13.702422142028809 19.008342742919922 13.50519847869873 19.008342742919922 L13.348067283630371 19.008342742919922 L13.526116371154785 18.589614868164062 L13.689970016479492 18.589614868164062 C13.829048156738281 18.589614868164062 13.99514389038086 18.637178421020508 13.922928810119629 18.811119079589844 M14.156633377075195 18.189067840576172 C14.101974487304688 18.32192039489746 13.964265823364258 18.370603561401367 13.784847259521484 18.370603561401367 L13.618751525878906 18.370603561401367 L13.783103942871094 17.98312759399414 L13.99875545501709 17.98312759399414 C14.152276039123535 17.98312759399414 14.212163925170898 18.055343627929688 14.156633377075195 18.189067840576172 L14.156633377075195 18.189067840576172 M6.73112154006958 18.731433868408203 C6.571499824523926 19.109567642211914 6.301438331604004 19.393699645996094 5.26601505279541 19.40739631652832 L5.143248558044434 19.40739631652832 C4.556807518005371 19.395442962646484 4.159372329711914 19.181285858154297 4.159372329711914 18.858308792114258 C4.159372329711914 18.79779624938965 4.169084548950195 18.728071212768555 4.202203750610352 18.650501251220703 L4.634377479553223 17.63275909423828 L5.707028388977051 17.63275909423828 L5.257673263549805 18.692832946777344 C5.236257553100586 18.745750427246094 5.205503463745117 18.799165725708008 5.205503463745117 18.858308792114258 C5.205503463745117 18.943721771240234 5.248957633972168 19.00971221923828 5.381809234619141 19.021541595458984 C5.605802059173584 19.041587829589844 5.6831231117248535 18.871131896972656 5.729066848754883 18.765422821044922 L6.2083048820495605 17.63275909423828 L7.19218111038208 17.63275909423828 L6.73112154006958 18.731433868408203 L6.73112154006958 18.731433868408203 M21.641286849975586 17.60873031616211 C21.76529884338379 17.5915470123291 21.98617935180664 17.58183479309082 22.18377685546875 17.589305877685547 C22.43130111694336 17.596527099609375 22.69538688659668 17.61781883239746 22.9410457611084 17.67571449279785 L22.9410457611084 18.081615447998047 C22.741207122802734 17.986740112304688 22.55581283569336 17.950010299682617 22.330698013305664 17.948888778686523 C22.07508087158203 17.948888778686523 21.951068878173828 18.000808715820312 21.912471771240234 18.074644088745117 C21.841997146606445 18.203636169433594 22.049678802490234 18.281578063964844 22.134220123291016 18.317811965942383 C22.37963104248047 18.422523498535156 22.913654327392578 18.562847137451172 22.787399291992188 18.941356658935547 C22.642719268798828 19.359956741333008 21.79468536376953 19.398305892944336 21.326154708862305 19.40739631652832 L20.967941284179688 19.40739631652832 C20.80719757080078 19.40142059326172 20.648447036743164 19.38460922241211 20.484466552734375 19.34787940979004 L20.43752670288086 18.898773193359375 C20.688289642333984 18.984188079833984 20.917762756347656 19.031999588012695 21.1840877532959 19.03287124633789 C21.426259994506836 19.03361701965332 21.603809356689453 18.982444763183594 21.620868682861328 18.851707458496094 C21.656850814819336 18.602439880371094 20.65081214904785 18.56110382080078 20.773082733154297 18.069040298461914 C20.851520538330078 17.751541137695312 21.349809646606445 17.631389617919922 21.641286849975586 17.60873031616211 L21.641286849975586 17.60873031616211 M17.82867431640625 19.36829948425293 L17.563344955444336 17.87505531311035 C17.539066314697266 17.73386001586914 17.43372917175293 17.59229278564453 17.2651424407959 17.591297149658203 L16.808940887451172 17.591297149658203 C16.637489318847656 17.592416763305664 16.42781639099121 17.644338607788086 16.26757049560547 17.804954528808594 L14.754528999328613 19.366308212280273 L15.002552032470703 19.368425369262695 L15.896781921386719 19.368425369262695 L16.080184936523438 19.09861183166504 L16.798730850219727 19.09861183166504 L16.798730850219727 19.368425369262695 L17.82867431640625 19.368425369262695 L17.82867431640625 19.36829948425293 L17.82867431640625 19.36829948425293 M16.28375816345215 18.798419952392578 L16.79885482788086 18.039531707763672 L16.79885482788086 18.798419952392578 L16.28375816345215 18.798419952392578" fill="black" fill-opacity="1.0" filling="0"/></svg>