<?xml version="1.0" encoding="iso-8859-1"?><svg height="200px" viewBox="0.0 0.0 24.0 24.0" width="200px" xmlns="http://www.w3.org/2000/svg"><path animation_id="0" d="M8.249238014221191 13.868035316467285 C8.244569778442383 13.815433502197266 8.222787857055664 13.775129318237305 8.183842658996582 13.747098922729492 C8.1448974609375 13.719069480895996 8.09577751159668 13.705018043518066 8.036506652832031 13.705018043518066 C7.984176158905029 13.705018043518066 7.939451694488525 13.71669864654541 7.90223503112793 13.74008560180664 C7.865017890930176 13.763473510742188 7.846421718597412 13.794984817504883 7.846421718597412 13.834720611572266 C7.846421718597412 13.865097045898438 7.8592143058776855 13.891101837158203 7.884799480438232 13.912710189819336 C7.910359859466553 13.934344291687012 7.952787399291992 13.952150344848633 8.012083053588867 13.966176986694336 C8.059745788574219 13.977858543395996 8.101308822631836 13.988378524780273 8.136747360229492 13.997714042663574 C8.172210693359375 14.007074356079102 8.20359992980957 14.015840530395508 8.230913162231445 14.024015426635742 C8.258227348327637 14.03218936920166 8.2826509475708 14.040067672729492 8.304161071777344 14.047674179077148 C8.325647354125977 14.055280685424805 8.346292495727539 14.063726425170898 8.366049766540527 14.073110580444336 C8.40674877166748 14.092966079711914 8.439001083374023 14.121588706970215 8.462833404541016 14.158978462219238 C8.486664772033691 14.196368217468262 8.498568534851074 14.24484634399414 8.498568534851074 14.304437637329102 C8.498568534851074 14.35936164855957 8.487825393676758 14.408432006835938 8.466315269470215 14.451675415039062 A0.33650708198547363 0.33650708198547363 0.0 0 1 8.379138946533203 14.562090873718262 C8.342514038085938 14.592466354370117 8.299790382385254 14.615854263305664 8.250967025756836 14.632226943969727 C8.202142715454102 14.648575782775879 8.149836540222168 14.656749725341797 8.094048500061035 14.656749725341797 C7.783669948577881 14.656749725341797 7.624973297119141 14.536382675170898 7.618009090423584 14.295695304870605 L7.834222316741943 14.295695304870605 C7.83538293838501 14.351755142211914 7.857486248016357 14.395590782165527 7.900481700897217 14.427127838134766 C7.9435014724731445 14.458688735961914 7.998129367828369 14.474469184875488 8.064388275146484 14.474469184875488 C8.092294692993164 14.474469184875488 8.119312286376953 14.471259117126465 8.145465850830078 14.464838027954102 C8.171643257141113 14.458416938781738 8.194881439208984 14.4490327835083 8.215230941772461 14.436782836914062 C8.235555648803711 14.42451000213623 8.251534461975098 14.409914016723633 8.263166427612305 14.392972946166992 C8.274798393249512 14.376007080078125 8.280601501464844 14.357608795166016 8.280601501464844 14.337753295898438 C8.280601501464844 14.273493766784668 8.225406646728516 14.2279052734375 8.114965438842773 14.20103645324707 C8.021961212158203 14.178834915161133 7.951626777648926 14.159842491149902 7.903963565826416 14.144086837768555 C7.856300354003906 14.128281593322754 7.822022438049316 14.11573600769043 7.80110502243042 14.106401443481445 C7.7452921867370605 14.080692291259766 7.704617977142334 14.047377586364746 7.679032802581787 14.006481170654297 C7.653472900390625 13.965584754943848 7.640679836273193 13.913599967956543 7.640679836273193 13.850502014160156 C7.640679836273193 13.803751945495605 7.649397850036621 13.759941101074219 7.666833400726318 13.71904468536377 A0.29835185408592224 0.29835185408592224 0.0 0 1 7.742674350738525 13.613000869750977 C7.775816440582275 13.583216667175293 7.817083358764648 13.559558868408203 7.8664751052856445 13.542024612426758 C7.915891647338867 13.524490356445312 7.972568988800049 13.51572322845459 8.036506652832031 13.51572322845459 C8.09577751159668 13.51572322845459 8.150997161865234 13.52419376373291 8.202142715454102 13.541160583496094 C8.253288269042969 13.558076858520508 8.29806137084961 13.58176040649414 8.336414337158203 13.612135887145996 C8.374767303466797 13.642512321472168 8.405291557312012 13.679308891296387 8.427962303161621 13.722526550292969 C8.45063304901123 13.765745162963867 8.463129997253418 13.814271926879883 8.46545124053955 13.868035316467285 L8.249238014221191 13.868035316467285 M9.073984146118164 14.150211334228516 C9.071662902832031 14.090620040893555 9.054523468017578 14.046488761901855 9.022566795349121 14.017890930175781 C8.990585327148438 13.989243507385254 8.953664779663086 13.974920272827148 8.911829948425293 13.974920272827148 C8.868809700012207 13.974920272827148 8.832210540771484 13.990132331848145 8.801982879638672 14.0205078125 C8.77175521850586 14.050884246826172 8.754319190979004 14.09410285949707 8.749676704406738 14.150211334228516 L9.073984146118164 14.150211334228516 M8.742687225341797 14.283421516418457 C8.746170043945312 14.343012809753418 8.763629913330078 14.390922546386719 8.79499340057373 14.427151679992676 C8.82638168334961 14.463356018066406 8.868242263793945 14.481483459472656 8.920547485351562 14.481483459472656 C8.95425796508789 14.481483459472656 8.984485626220703 14.473283767700195 9.011231422424316 14.45693588256836 C9.037952423095703 14.440587043762207 9.055387496948242 14.418952941894531 9.06353759765625 14.392084121704102 L9.27975082397461 14.392084121704102 C9.255351066589355 14.473876953125 9.21233081817627 14.536974906921387 9.150714874267578 14.581377983093262 C9.08909797668457 14.625782012939453 9.015873908996582 14.64798355102539 8.931018829345703 14.64798355102539 C8.6659574508667 14.64798355102539 8.533438682556152 14.503091812133789 8.533438682556152 14.213310241699219 C8.533438682556152 14.089459419250488 8.566580772399902 13.99072551727295 8.632840156555176 13.917106628417969 C8.69909954071045 13.843487739562988 8.79385757446289 13.80669116973877 8.917065620422363 13.80669116973877 C9.165828704833984 13.80669116973877 9.29022216796875 13.965584754943848 9.29022216796875 14.283421516418457 L8.742687225341797 14.283421516418457 M9.86040210723877 14.113414764404297 C9.854598999023438 14.072518348693848 9.838027000427246 14.040363311767578 9.810713768005371 14.01700210571289 C9.78339958190918 13.99363899230957 9.749961853027344 13.98193359375 9.710448265075684 13.98193359375 C9.688369750976562 13.98193359375 9.667428016662598 13.985736846923828 9.64767074584961 13.993343353271484 C9.627914428710938 14.00094985961914 9.610774993896484 14.01379108428955 9.596229553222656 14.031892776489258 C9.581707954406738 14.050020217895508 9.570075988769531 14.073975563049316 9.561358451843262 14.103757858276367 C9.552640914916992 14.133565902709961 9.548269271850586 14.170066833496094 9.548269271850586 14.213310241699219 C9.548269271850586 14.300955772399902 9.563976287841797 14.365782737731934 9.595365524291992 14.407864570617676 C9.626752853393555 14.449946403503418 9.662784576416016 14.470962524414062 9.703458786010742 14.470962524414062 C9.744157791137695 14.470962524414062 9.77902889251709 14.459552764892578 9.808095932006836 14.436782836914062 C9.837162971496582 14.413989067077637 9.85403060913086 14.38097095489502 9.858648300170898 14.337753295898438 L10.069650650024414 14.337753295898438 C10.063822746276855 14.384502410888672 10.050758361816406 14.42685604095459 10.03040885925293 14.464813232421875 C10.010059356689453 14.502796173095703 9.983634948730469 14.535517692565918 9.951086044311523 14.562979698181152 C9.918536186218262 14.590441703796387 9.881319046020508 14.611457824707031 9.839460372924805 14.626077651977539 C9.797624588012695 14.64067268371582 9.752876281738281 14.64798355102539 9.705212593078613 14.64798355102539 C9.650585174560547 14.64798355102539 9.601168632507324 14.638919830322266 9.556987762451172 14.620817184448242 A0.3169725835323334 0.3169725835323334 0.0 0 1 9.441904067993164 14.54018497467041 C9.409355163574219 14.504549026489258 9.384363174438477 14.45984935760498 9.366927146911621 14.406085968017578 C9.349492073059082 14.352348327636719 9.340774536132812 14.28984260559082 9.340774536132812 14.2185697555542 C9.340774536132812 14.147296905517578 9.349788665771484 14.08565616607666 9.367815971374512 14.033646583557129 C9.385844230651855 13.981661796569824 9.410812377929688 13.939011573791504 9.442792892456055 13.905721664428711 C9.474774360656738 13.872430801391602 9.51369571685791 13.847587585449219 9.559605598449707 13.83121395111084 C9.605539321899414 13.814865112304688 9.656413078308105 13.80669116973877 9.712177276611328 13.80669116973877 C9.817974090576172 13.80669116973877 9.902532577514648 13.834128379821777 9.965903282165527 13.88905143737793 C10.029248237609863 13.943975448608398 10.064414978027344 14.018754959106445 10.071379661560059 14.113414764404297 L9.86040210723877 14.113414764404297 M10.838608741760254 14.626941680908203 L10.639830589294434 14.626941680908203 L10.639830589294434 14.51477336883545 C10.5875244140625 14.6035795211792 10.505558967590332 14.64798355102539 10.393982887268066 14.64798355102539 C10.354469299316406 14.64798355102539 10.318117141723633 14.640970230102539 10.28499984741211 14.626941680908203 C10.25185775756836 14.6129150390625 10.223382949829102 14.59276294708252 10.199551582336426 14.566486358642578 C10.17572021484375 14.540210723876953 10.157123565673828 14.50921630859375 10.143738746643066 14.473580360412598 C10.130402565002441 14.437944412231445 10.123710632324219 14.397936820983887 10.123710632324219 14.353532791137695 L10.123710632324219 13.827707290649414 L10.332934379577637 13.827707290649414 L10.332934379577637 14.321971893310547 C10.332934379577637 14.42129898071289 10.377708435058594 14.470962524414062 10.467206001281738 14.470962524414062 C10.520672798156738 14.470962524414062 10.561371803283691 14.454021453857422 10.589278221130371 14.420138359069824 C10.61718463897705 14.38623046875 10.631113052368164 14.34242057800293 10.631113052368164 14.288681983947754 L10.631113052368164 13.827707290649414 L10.838608741760254 13.827707290649414 L10.838608741760254 14.626941680908203 M11.382660865783691 14.024040222167969 C11.362903594970703 14.020532608032227 11.34371566772461 14.018779754638672 11.325119018554688 14.018779754638672 C11.19608211517334 14.018779754638672 11.131551742553711 14.083038330078125 11.131551742553711 14.211581230163574 L11.131551742553711 14.62696647644043 L10.922327995300293 14.62696647644043 L10.922327995300293 13.827707290649414 L11.119377136230469 13.827707290649414 L11.119377136230469 13.92411994934082 C11.136812210083008 13.897226333618164 11.154840469360352 13.87621021270752 11.173436164855957 13.861021995544434 C11.192031860351562 13.845833778381348 11.211221694946289 13.834128379821777 11.230978012084961 13.825953483581543 C11.25073528289795 13.817779541015625 11.27108383178711 13.81281566619873 11.292001724243164 13.81106185913086 C11.312919616699219 13.809308052062988 11.333861351013184 13.808444023132324 11.354779243469238 13.808444023132324 L11.382684707641602 13.808444023132324 L11.382660865783691 14.024040222167969 M11.64073371887207 14.62696647644043 L11.43148422241211 14.62696647644043 L11.43148422241211 13.827707290649414 L11.640708923339844 13.827707290649414 L11.64073371887207 14.62696647644043 M11.64073371887207 13.733097076416016 L11.43148422241211 13.733097076416016 L11.43148422241211 13.536764144897461 L11.640708923339844 13.536764144897461 L11.64073371887207 13.733097076416016 M12.364349365234375 13.978475570678711 L11.926712989807129 13.978475570678711 L11.926712989807129 14.307969093322754 C11.926712989807129 14.35822582244873 11.93599796295166 14.397071838378906 11.954619407653809 14.42453384399414 C11.973215103149414 14.451995849609375 12.004011154174805 14.465726852416992 12.04703140258789 14.465726852416992 C12.088866233825684 14.465726852416992 12.119686126708984 14.452292442321777 12.139443397521973 14.425423622131348 C12.159200668334961 14.398529052734375 12.169078826904297 14.359978675842285 12.169078826904297 14.309722900390625 L12.169078826904297 14.101165771484375 L12.364374160766602 14.101165771484375 L12.364374160766602 14.330763816833496 A0.3983457386493683 0.3983457386493683 0.0 0 1 12.346075057983398 14.451700210571289 A0.2747672200202942 0.2747672200202942 0.0 0 1 12.288533210754395 14.553348541259766 C12.26235580444336 14.582563400268555 12.228940963745117 14.605951309204102 12.188267707824707 14.62348461151123 C12.14759349822998 14.641018867492676 12.099337577819824 14.649761199951172 12.043549537658691 14.649761199951172 C11.985414505004883 14.649761199951172 11.93599796295166 14.64099407196045 11.895323753356934 14.62346076965332 C11.85462474822998 14.605926513671875 11.821236610412598 14.582563400268555 11.795058250427246 14.553348541259766 A0.2747672200202942 0.2747672200202942 0.0 0 1 11.737517356872559 14.451700210571289 C11.725317001342773 14.413148880004883 11.719217300415039 14.37225341796875 11.719217300415039 14.329010009765625 L11.719217300415039 13.612160682678223 L11.926712989807129 13.612160682678223 L11.926712989807129 13.827756881713867 L12.364374160766602 13.827756881713867 L12.364349365234375 13.978475570678711 M13.162967681884766 14.64798355102539 C13.162967681884766 14.704092025756836 13.153656959533691 14.754323959350586 13.135061264038086 14.798727035522461 C13.116464614868164 14.843131065368652 13.090608596801758 14.880816459655762 13.057466506958008 14.911785125732422 A0.33055537939071655 0.33055537939071655 0.0 0 1 12.941518783569336 14.981897354125977 C12.897337913513184 14.99767780303955 12.849674224853516 15.005556106567383 12.798529624938965 15.005556106567383 C12.68228530883789 15.005556106567383 12.59478759765625 14.976341247558594 12.536109924316406 14.91793441772461 C12.477407455444336 14.859504699707031 12.448043823242188 14.777118682861328 12.448043823242188 14.670802116394043 L12.643340110778809 14.670802116394043 C12.643340110778809 14.719873428344727 12.656996726989746 14.757558822631836 12.684334754943848 14.783836364746094 C12.711648941040039 14.810136795043945 12.75318717956543 14.823275566101074 12.809000015258789 14.823275566101074 C12.827596664428711 14.823275566101074 12.845599174499512 14.819175720214844 12.863059997558594 14.81100082397461 C12.88051986694336 14.802826881408691 12.895905494689941 14.791441917419434 12.90924072265625 14.776822090148926 C12.922626495361328 14.762227058410645 12.933368682861328 14.744396209716797 12.941518783569336 14.723380088806152 C12.949667930603027 14.702339172363281 12.953718185424805 14.678383827209473 12.953718185424805 14.651515007019043 L12.953718185424805 14.521811485290527 C12.938604354858398 14.558040618896484 12.911291122436523 14.58607006072998 12.871777534484863 14.605951309204102 C12.832263946533203 14.62580680847168 12.788058280944824 14.635734558105469 12.73923397064209 14.635734558105469 C12.697399139404297 14.635734558105469 12.658724784851074 14.629016876220703 12.623286247253418 14.615582466125488 C12.587847709655762 14.602148056030273 12.557026863098145 14.582563400268555 12.530874252319336 14.556855201721191 A0.2726433575153351 0.2726433575153351 0.0 0 1 12.469850540161133 14.465726852416992 C12.455304145812988 14.430658340454102 12.448043823242188 14.390947341918945 12.448043823242188 14.34654426574707 L12.448043823242188 13.827707290649414 L12.657292366027832 13.827707290649414 L12.657292366027832 14.314958572387695 C12.657292366027832 14.414285659790039 12.702042579650879 14.463949203491211 12.79156494140625 14.463949203491211 C12.840388298034668 14.463949203491211 12.879606246948242 14.449921607971191 12.909265518188477 14.421892166137695 C12.9389009475708 14.393836975097656 12.953718185424805 14.358176231384277 12.953718185424805 14.314958572387695 L12.953718185424805 13.827707290649414 L13.162967681884766 13.827707290649414 L13.162967681884766 14.64798355102539 M13.865666389465332 14.430658340454102 L14.397493362426758 14.430658340454102 L14.397493362426758 14.626991271972656 L13.640735626220703 14.626991271972656 L13.640735626220703 13.549062728881836 L13.865666389465332 13.549062728881836 L13.865666389465332 14.430658340454102 M14.9293212890625 14.236128807067871 C14.908403396606445 14.253663063049316 14.87177848815918 14.26766586303711 14.819473266601562 14.278185844421387 C14.747410774230957 14.292213439941406 14.698586463928223 14.308858871459961 14.673026084899902 14.328145980834961 C14.647466659545898 14.347433090209961 14.634649276733398 14.374006271362305 14.634649276733398 14.407889366149902 C14.634649276733398 14.467480659484863 14.666011810302734 14.497288703918457 14.728814125061035 14.497288703918457 C14.755535125732422 14.497288703918457 14.781416893005371 14.493485450744629 14.806408882141113 14.485878944396973 C14.831401824951172 14.478272438049316 14.85318374633789 14.466888427734375 14.87177848815918 14.451700210571289 C14.890375137329102 14.436511993408203 14.905217170715332 14.417224884033203 14.916232109069824 14.393861770629883 C14.927295684814453 14.370499610900879 14.932827949523926 14.343629837036133 14.932827949523926 14.31322956085205 C14.932827949523926 14.30389404296875 14.932531356811523 14.291028022766113 14.931938171386719 14.274679183959961 A0.46381473541259766 0.46381473541259766 0.0 0 0 14.9293212890625 14.236128807067871 L14.9293212890625 14.236128807067871 M14.800284385681152 13.80671501159668 C14.913046836853027 13.80671501159668 14.997604370117188 13.833584785461426 15.054010391235352 13.887323379516602 C15.110416412353516 13.941061019897461 15.138569831848145 14.019372940063477 15.138569831848145 14.12218189239502 L15.138569831848145 14.62696647644043 L14.94327449798584 14.62696647644043 C14.94095230102539 14.617631912231445 14.938631057739258 14.607704162597656 14.936309814453125 14.597183227539062 A0.27985456585884094 0.27985456585884094 0.0 0 1 14.931074142456055 14.562114715576172 C14.905488967895508 14.589009284973145 14.872371673583984 14.609161376953125 14.831672668457031 14.62259578704834 C14.790998458862305 14.636030197143555 14.743904113769531 14.64274787902832 14.690437316894531 14.64274787902832 C14.610223770141602 14.64274787902832 14.546014785766602 14.622892379760742 14.497758865356445 14.58315658569336 C14.449527740478516 14.543420791625977 14.425399780273438 14.488521575927734 14.425399780273438 14.41840934753418 C14.425399780273438 14.363485336303711 14.43441390991211 14.31967544555664 14.452417373657227 14.28695297241211 C14.470420837402344 14.254230499267578 14.495734214782715 14.228522300720215 14.52828311920166 14.209827423095703 C14.560832023620605 14.191133499145508 14.599481582641602 14.177104949951172 14.644230842590332 14.167770385742188 A2.039243698120117 2.039243698120117 0.0 0 1 14.789837837219238 14.14322280883789 C14.831672668457031 14.137393951416016 14.864518165588379 14.128034591674805 14.888374328613281 14.115192413330078 C14.912181854248047 14.102351188659668 14.92408561706543 14.084223747253418 14.92408561706543 14.060861587524414 C14.92408561706543 14.030485153198242 14.910157203674316 14.007691383361816 14.88224983215332 13.99250316619873 C14.85434341430664 13.977290153503418 14.82354736328125 13.969709396362305 14.789837837219238 13.969709396362305 C14.752645492553711 13.969709396362305 14.721529006958008 13.980525970458984 14.696537017822266 14.002134323120117 C14.671544075012207 14.023743629455566 14.656726837158203 14.052661895751953 14.652084350585938 14.088891983032227 L14.451553344726562 14.088891983032227 C14.458541870117188 14.00008487701416 14.488744735717773 13.930837631225586 14.542236328125 13.88119888305664 C14.595703125 13.831535339355469 14.681718826293945 13.80671501159668 14.800309181213379 13.80671501159668 L14.800284385681152 13.80671501159668 M15.597173690795898 13.987242698669434 C15.479743957519531 13.987242698669434 15.421041488647461 14.073678970336914 15.421041488647461 14.246624946594238 C15.421041488647461 14.314414978027344 15.437613487243652 14.369609832763672 15.470754623413086 14.412260055541992 C15.50387191772461 14.454910278320312 15.54659652709961 14.47622299194336 15.598926544189453 14.47622299194336 C15.65125846862793 14.47622299194336 15.694229125976562 14.453749656677246 15.727938652038574 14.408753395080566 C15.761649131774902 14.363757133483887 15.778515815734863 14.305647850036621 15.778515815734863 14.234375 C15.778515815734863 14.06960391998291 15.718060493469238 13.987242698669434 15.597173690795898 13.987242698669434 L15.597173690795898 13.987242698669434 M15.42975902557373 13.93291187286377 L15.431512832641602 13.93291187286377 C15.488462448120117 13.848773002624512 15.56578540802002 13.80671501159668 15.663408279418945 13.80671501159668 L15.6651611328125 13.80671501159668 C15.7151460647583 13.80671501159668 15.760488510131836 13.816939353942871 15.801186561584473 13.837388038635254 A0.29617857933044434 0.29617857933044434 0.0 0 1 15.904045104980469 13.922391891479492 C15.931951522827148 13.958596229553223 15.953437805175781 14.002134323120117 15.968576431274414 14.052959442138672 C15.98369026184082 14.10378360748291 15.991247177124023 14.159571647644043 15.991247177124023 14.220348358154297 C15.991247177124023 14.28695297241211 15.982529640197754 14.347112655639648 15.965069770812988 14.400875091552734 C15.947608947753906 14.454638481140137 15.923827171325684 14.499906539916992 15.893598556518555 14.536703109741211 C15.863370895385742 14.57349967956543 15.827339172363281 14.601851463317871 15.785480499267578 14.62170696258545 C15.743620872497559 14.641562461853027 15.697710037231445 14.651515007019043 15.647726058959961 14.651515007019043 C15.548942565917969 14.651515007019043 15.475101470947266 14.610618591308594 15.426277160644531 14.528825759887695 L15.424548149108887 14.62696647644043 L15.222288131713867 14.62696647644043 L15.222288131713867 13.536788940429688 L15.42975902557373 13.536788940429688 L15.42975902557373 13.93291187286377 M16.533519744873047 14.06960391998291 C16.523075103759766 13.999491691589355 16.47597885131836 13.964448928833008 16.392284393310547 13.964448928833008 C16.35857391357422 13.964448928833008 16.329235076904297 13.971758842468262 16.304243087768555 13.986353874206543 C16.279251098632812 14.00097370147705 16.266754150390625 14.019940376281738 16.266754150390625 14.043327331542969 C16.266754150390625 14.074864387512207 16.309751510620117 14.099387168884277 16.395767211914062 14.116921424865723 C16.521320343017578 14.144975662231445 16.601533889770508 14.1671781539917 16.636404037475586 14.183526039123535 C16.72126007080078 14.225608825683594 16.763687133789062 14.288113594055176 16.763687133789062 14.37106704711914 C16.763687133789062 14.46219539642334 16.731433868408203 14.531739234924316 16.666927337646484 14.579649925231934 C16.602397918701172 14.627559661865234 16.517271041870117 14.651515007019043 16.41147232055664 14.651515007019043 C16.359167098999023 14.651515007019043 16.310047149658203 14.644797325134277 16.264137268066406 14.631362915039062 C16.21822738647461 14.617928504943848 16.178394317626953 14.598937034606934 16.144681930541992 14.574389457702637 C16.110973358154297 14.54984188079834 16.084226608276367 14.520354270935059 16.064470291137695 14.485878944396973 C16.044713973999023 14.451403617858887 16.034242630004883 14.413148880004883 16.033105850219727 14.37106704711914 L16.24929428100586 14.37106704711914 C16.24929428100586 14.408456802368164 16.26384162902832 14.437993049621582 16.29290771484375 14.459577560424805 C16.321975708007812 14.481162071228027 16.36089515686035 14.492003440856934 16.409719467163086 14.492003440856934 C16.449234008789062 14.492003440856934 16.483264923095703 14.484125137329102 16.511714935302734 14.468344688415527 C16.54021453857422 14.45258903503418 16.5544376373291 14.432412147521973 16.5544376373291 14.407889366149902 C16.5544376373291 14.393861770629883 16.543991088867188 14.379834175109863 16.523075103759766 14.36580753326416 C16.50215721130371 14.35177993774414 16.470176696777344 14.340123176574707 16.427154541015625 14.330763816833496 C16.302785873413086 14.30154800415039 16.223735809326172 14.278779029846191 16.190025329589844 14.262405395507812 C16.10516929626465 14.22266960144043 16.062742233276367 14.159595489501953 16.062742233276367 14.073110580444336 C16.062742233276367 14.038042068481445 16.069705963134766 14.00418472290039 16.083660125732422 13.97146224975586 C16.097612380981445 13.938739776611328 16.1185302734375 13.909821510314941 16.14643669128418 13.884705543518066 C16.17434310913086 13.859589576721191 16.20948600769043 13.839412689208984 16.25191307067871 13.824224472045898 C16.294340133666992 13.809037208557129 16.344621658325195 13.8014554977417 16.402755737304688 13.8014554977417 C16.449256896972656 13.8014554977417 16.492847442626953 13.807876586914062 16.533519744873047 13.820717811584473 C16.57421875 13.8335599899292 16.609386444091797 13.851686477661133 16.639020919799805 13.875049591064453 C16.668657302856445 13.898436546325684 16.692489624023438 13.926762580871582 16.71051788330078 13.960077285766602 C16.728544235229492 13.993367195129395 16.73869514465332 14.029892921447754 16.74104118347168 14.06960391998291 L16.533519744873047 14.06960391998291" fill="black" fill-opacity="1.0" filling="0"/>
<path animation_id="1" d="M13.483100891113281 10.416553497314453 C13.66293716430664 10.561518669128418 13.791825294494629 10.704212188720703 13.869765281677246 10.844633102416992 C13.949187278747559 10.988092422485352 13.988898277282715 11.148146629333496 13.988898277282715 11.324821472167969 C13.988898277282715 11.542269706726074 13.928961753845215 11.738553047180176 13.809062957763672 11.913721084594727 C13.69067096710205 12.088865280151367 13.528072357177734 12.21871566772461 13.321268081665039 12.303299903869629 C13.26431941986084 12.327452659606934 13.215594291687012 12.344048500061035 13.175142288208008 12.353111267089844 C13.118193626403809 12.366694450378418 13.06124496459961 12.3765230178833 13.00429630279541 12.382574081420898 C12.939839363098145 12.388599395751953 12.861924171447754 12.393143653869629 12.770499229431152 12.396156311035156 C12.527738571166992 12.225507736206055 12.355384826660156 12.103979110717773 12.253464698791504 12.031496047973633 A27.273866653442383 27.273866653442383 0.0 0 1 11.891545295715332 11.768755912780762 A11.76594352722168 11.76594352722168 0.0 0 1 11.235151290893555 11.2455472946167 C11.028347969055176 11.073416709899902 10.864218711853027 10.920153617858887 10.742837905883789 10.785758018493652 C10.622963905334473 10.657413482666016 10.537540435791016 10.544898986816406 10.486592292785645 10.448263168334961 C10.446115493774414 10.368247985839844 10.414652824401855 10.280652046203613 10.392155647277832 10.18552303314209 C10.368200302124023 10.090394020080566 10.35619831085205 10.001291275024414 10.35619831085205 9.91826343536377 C10.35619831085205 9.688738822937012 10.414652824401855 9.489418029785156 10.531538963317871 9.320300102233887 C10.648425102233887 9.149650573730469 10.812529563903809 9.021330833435059 11.023853302001953 8.93526554107666 C11.106263160705566 8.903555870056152 11.187932968139648 8.880885124206543 11.268861770629883 8.867301940917969 C11.348308563232422 8.855226516723633 11.452451705932617 8.848434448242188 11.581339836120605 8.846927642822266 L13.483100891113281 10.416553497314453 M10.340516090393066 12.432682037353516 L10.340516090393066 10.909831047058105 L12.268850326538086 12.432682037353516 L10.340516090393066 12.432682037353516 M13.814273834228516 10.265117645263672 L12.030385971069336 8.788497924804688 L13.814273834228516 8.788497924804688 L13.814273834228516 10.265117645263672" fill="black" fill-opacity="1.0" filling="0"/></svg>