<?xml version="1.0" encoding="iso-8859-1"?><svg height="200px" viewBox="0.0 0.0 24.0 24.0" width="200px" xmlns="http://www.w3.org/2000/svg"><path animation_id="0" d="M0.0 0.0 L24.0 0.0 L24.0 24.0 L0.0 24.0 L0.0 0.0" fill="black" fill-opacity="1.0" filling="0"/>
<path animation_id="1" d="M14.374773979187012 12.964826583862305 L13.569072723388672 12.964826583862305 L12.805702209472656 11.628961563110352 L13.166158676147461 10.992840766906738 L14.374773979187012 12.964826583862305 M12.551453590393066 12.074332237243652 L13.081367492675781 12.964826583862305 L12.063749313354492 12.985992431640625 L12.551453590393066 12.074332237243652 M11.38504695892334 12.985992431640625 L10.664011001586914 12.985992431640625 L10.70646858215332 12.964826583862305 L10.70646858215332 11.374463081359863 L9.985681533813477 11.374463081359863 L9.688850402832031 11.013882637023926 L9.688850402832031 10.992716789245605 L10.833842277526855 10.971549034118652 L11.385171890258789 11.946834564208984 L11.385171890258789 12.985992431640625 L11.38504695892334 12.985992431640625 M11.575920104980469 11.41692066192627 L11.342588424682617 10.971674919128418 L12.127249717712402 10.971674919128418 L12.381622314453125 11.3956298828125 L11.597086906433105 11.3956298828125 L11.575920104980469 11.41692066192627 L11.575920104980469 11.41692066192627 M9.349435806274414 12.328829765319824 L8.58619213104248 11.014007568359375 L9.349435806274414 10.992840766906738 L9.349435806274414 12.328829765319824 M9.222312927246094 13.007284164428711 L8.437776565551758 13.007284164428711 L7.31395149230957 11.014007568359375 L8.098487854003906 11.014007568359375 L9.222312927246094 13.007284164428711 M7.950071811676025 13.007284164428711 L7.31395149230957 13.007284164428711 L7.31395149230957 11.90462589263916 L7.950071811676025 13.007284164428711 M6.847537994384766 13.007284164428711 L6.063002109527588 13.028450965881348 L5.36325740814209 11.544170379638672 L5.681255340576172 11.035298347473145 L6.847537994384766 13.007284164428711 M5.596464157104492 13.028450965881348 L4.557430267333984 13.028450965881348 L5.108758926391602 12.01058292388916 L5.087592601776123 11.947083473205566 L5.596464157104492 13.028450965881348 M4.281765460968018 13.028450965881348 L3.5183963775634766 13.049616813659668 L2.903567314147949 11.7350435256958 L2.924734115600586 11.756210327148438 L3.3276472091674805 11.077631950378418 L4.281765460968018 13.028450965881348 L4.281765460968018 13.028450965881348 M3.051982879638672 13.049616813659668 L2.3099050521850586 13.049616813659668 L1.7161178588867188 11.756210327148438 L2.0342397689819336 11.077631950378418 L2.140322685241699 11.077631950378418 L3.051982879638672 13.049616813659668 L3.051982879638672 13.049616813659668 M1.8433666229248047 13.049616813659668 L1.0588302612304688 13.049616813659668 L1.4617443084716797 12.222747802734375 L1.8433666229248047 13.049616813659668 L1.8433666229248047 13.049616813659668 M15.943845748901367 10.950383186340332 L16.452842712402344 10.950383186340332 C16.495176315307617 10.950383186340332 16.516590118408203 10.992840766906738 16.516590118408203 11.035298347473145 L16.516590118408203 12.922369003295898 C16.516590118408203 12.964826583862305 16.495176315307617 12.985992431640625 16.452842712402344 12.985992431640625 L15.943845748901367 12.985992431640625 C15.901512145996094 12.985992431640625 15.880346298217773 12.964826583862305 15.880346298217773 12.922369003295898 L15.880346298217773 11.035298347473145 C15.880346298217773 10.992840766906738 15.901512145996094 10.950383186340332 15.943845748901367 10.950383186340332 M17.237253189086914 12.689162254333496 C17.34333610534668 12.689162254333496 17.406959533691406 12.774077415466309 17.406959533691406 12.858743667602539 C17.406959533691406 12.964826583862305 17.343212127685547 13.049492835998535 17.237253189086914 13.049492835998535 C17.13129425048828 13.049492835998535 17.046628952026367 12.964701652526855 17.046628952026367 12.858743667602539 C17.046628952026367 12.774077415466309 17.13129425048828 12.689162254333496 17.237253189086914 12.689162254333496 M18.658035278320312 10.992840766906738 L18.63686752319336 12.943534851074219 C17.852331161499023 12.964826583862305 17.576541900634766 12.265082359313965 18.33991241455078 11.862168312072754 C18.33991241455078 11.862168312072754 17.95841407775879 11.713752746582031 17.95841407775879 11.353296279907227 C17.95841407775879 10.992840766906738 18.658035278320312 10.992840766906738 18.658035278320312 10.992840766906738 L18.658035278320312 10.992840766906738 M19.124448776245117 10.992840766906738 L19.145614624023438 12.943534851074219 C19.93039894104004 12.964826583862305 20.20594024658203 12.265082359313965 19.442569732666016 11.862168312072754 C19.442569732666016 11.862168312072754 19.824316024780273 11.713752746582031 19.824316024780273 11.353296279907227 C19.824316024780273 10.992840766906738 19.124448776245117 10.992840766906738 19.124448776245117 10.992840766906738 L19.124448776245117 10.992840766906738 M22.241548538208008 10.971674919128418 L22.94116973876953 11.713752746582031 L22.94116973876953 10.992840766906738 L22.241548538208008 10.971674919128418 L22.241548538208008 10.971674919128418 M21.796302795410156 12.922369003295898 L21.096433639526367 12.201457023620605 L21.075267791748047 12.922369003295898 L21.796302795410156 12.922369003295898 M21.81747055053711 11.141257286071777 L22.792879104614258 12.116665840148926 A0.42507627606391907 0.42507627606391907 0.0 0 1 22.792879104614258 12.752660751342773 A0.42507627606391907 0.42507627606391907 0.0 0 1 22.156757354736328 12.752660751342773 L21.181346893310547 11.798418998718262 C20.990476608276367 11.607544898986816 20.990476608276367 11.310714721679688 21.181346893310547 11.141132354736328 C21.350929260253906 10.971674919128418 21.64763832092285 10.971674919128418 21.81747055053711 11.141257286071777 L21.81747055053711 11.141257286071777" fill="black" fill-opacity="1.0" filling="0"/></svg>