<?xml version="1.0" encoding="iso-8859-1"?><svg height="200px" viewBox="0.0 0.0 24.0 24.0" width="200px" xmlns="http://www.w3.org/2000/svg"><path animation_id="0" d="M15.906362533569336 14.556742668151855 C15.906414031982422 14.550737380981445 15.912254333496094 14.443699836730957 15.91932487487793 14.318872451782227 C15.92640495300293 14.19404411315918 15.934837341308594 13.971614837646484 15.938067436218262 13.824580192565918 L15.943950653076172 13.55724811553955 L16.03203582763672 13.540881156921387 C16.095455169677734 13.529096603393555 16.16046905517578 13.524513244628906 16.264156341552734 13.524513244628906 C16.403823852539062 13.524513244628906 16.40981101989746 13.525264739990234 16.461593627929688 13.54919147491455 C16.588516235351562 13.607851028442383 16.65146255493164 13.737847328186035 16.63593292236328 13.909244537353516 C16.62192153930664 14.063847541809082 16.556758880615234 14.180618286132812 16.455997467041016 14.231684684753418 C16.403989791870117 14.258047103881836 16.316852569580078 14.27359390258789 16.26061248779297 14.266566276550293 C16.200668334960938 14.259077072143555 16.11331558227539 14.215831756591797 16.082422256469727 14.17835807800293 L16.057193756103516 14.14775276184082 L16.051633834838867 14.194026947021484 C16.0485782623291 14.219481468200684 16.04599380493164 14.305123329162598 16.045881271362305 14.3843412399292 C16.0457763671875 14.463558197021484 16.043323516845703 14.537206649780273 16.04042625427246 14.548013687133789 C16.035572052001953 14.56613540649414 16.030168533325195 14.567654609680176 15.970714569091797 14.567654609680176 C15.924911499023438 14.567654609680176 15.906292915344238 14.564495086669922 15.906362533569336 14.556742668151855 L15.906362533569336 14.556742668151855 M16.35454559326172 14.154108047485352 C16.46096420288086 14.109642028808594 16.526573181152344 13.954357147216797 16.500516891479492 13.808588981628418 C16.483074188232422 13.710960388183594 16.42792510986328 13.64802360534668 16.338441848754883 13.62363338470459 C16.296714782714844 13.612259864807129 16.17198371887207 13.619050979614258 16.115758895874023 13.635766983032227 C16.077394485473633 13.647168159484863 16.07634735107422 13.648442268371582 16.070697784423828 13.690726280212402 C16.059350967407227 13.775713920593262 16.0627384185791 13.968717575073242 16.076398849487305 14.014702796936035 C16.105876922607422 14.113980293273926 16.1728572845459 14.166092872619629 16.270980834960938 14.166102409362793 C16.301151275634766 14.166102409362793 16.338747024536133 14.160707473754883 16.35454559326172 14.154108047485352 L16.35454559326172 14.154108047485352 M2.661134719848633 14.544373512268066 C2.657930374145508 14.541178703308105 2.655303955078125 14.404670715332031 2.655294418334961 14.241033554077148 L2.6552772521972656 13.94351577758789 L2.7556800842285156 13.946222305297852 L2.8560848236083984 13.948936462402344 L2.8560848236083984 14.550195693969727 L2.7615203857421875 14.550195693969727 C2.7095117568969727 14.550195693969727 2.664339065551758 14.547576904296875 2.661134719848633 14.544373512268066 M2.899730682373047 14.25094985961914 L2.899730682373047 13.949268341064453 L2.9586524963378906 13.94403076171875 C2.9910640716552734 13.941142082214355 3.034273147583008 13.93697738647461 3.0546741485595703 13.934768676757812 L3.09177303314209 13.930753707885742 L3.09177303314209 14.54146671295166 L3.0415802001953125 14.541544914245605 C3.013978958129883 14.541580200195312 2.970768928527832 14.54409408569336 2.945558547973633 14.547122955322266 L2.899730682373047 14.55262279510498 L2.899730682373047 14.25094985961914 M2.4239883422851562 14.52750015258789 C2.0402259826660156 14.483749389648438 1.645822525024414 14.368436813354492 1.280461311340332 14.193170547485352 C0.8126363754272461 13.968743324279785 0.3643045425415039 13.617453575134277 0.04150676727294922 13.222387313842773 L0.0014925003051757812 13.173398971557617 L0.0037441253662109375 12.676811218261719 L0.0059967041015625 12.180214881896973 L0.04004955291748047 12.24131965637207 C0.21742630004882812 12.559612274169922 0.4069032669067383 12.809887886047363 0.6455154418945312 13.041072845458984 C0.9015178680419922 13.289104461669922 1.1656990051269531 13.474477767944336 1.4899625778198242 13.633646011352539 C1.8162603378295898 13.79380989074707 2.136744499206543 13.88839054107666 2.4872751235961914 13.927968978881836 L2.6203956604003906 13.943000793457031 L2.6203956604003906 14.54146671295166 L2.5745677947998047 14.540453910827637 C2.5493650436401367 14.53990364074707 2.481600761413574 14.534072875976562 2.4239883422851562 14.527508735656738 L2.4239883422851562 14.52750015258789 M3.144148826599121 14.229423522949219 L3.144148826599121 13.924137115478516 L3.189976692199707 13.919048309326172 C3.2151870727539062 13.916245460510254 3.2544679641723633 13.911234855651855 3.2772693634033203 13.907909393310547 L3.3187332153320312 13.901860237121582 L3.3187332153320312 14.51327133178711 L3.2685394287109375 14.518989562988281 C3.240938186645508 14.522130966186523 3.2016563415527344 14.526958465576172 3.1812477111816406 14.529717445373535 L3.144148826599121 14.534719467163086 L3.144148826599121 14.229423522949219 M3.399364471435547 14.190430641174316 L3.4016599655151367 13.883049011230469 L3.467129707336426 13.867807388305664 C3.5031375885009766 13.859427452087402 3.53751277923584 13.852409362792969 3.5435104370117188 13.852216720581055 C3.5520381927490234 13.851937294006348 3.5544214248657227 13.919221878051758 3.5544214248657227 14.160550117492676 L3.5544214248657227 14.46924114227295 L3.482405662536621 14.483539581298828 C3.4428014755249023 14.491395950317383 3.407395362854004 14.49782943725586 3.4037294387817383 14.49782943725586 C3.4000625610351562 14.49782943725586 3.3981075286865234 14.3594970703125 3.399364471435547 14.190430641174316 L3.399364471435547 14.190430641174316 M3.641714096069336 14.132904052734375 L3.641714096069336 13.820381164550781 L3.7012557983398438 13.801203727722168 C3.7340078353881836 13.790658950805664 3.7654762268066406 13.782025337219238 3.77120304107666 13.782025337219238 C3.7791032791137695 13.782025337219238 3.7810487747192383 13.857952117919922 3.7793121337890625 14.097673416137695 L3.7770166397094727 14.413304328918457 L3.7202768325805664 14.429340362548828 C3.6890697479248047 14.438156127929688 3.65863037109375 14.445393562316895 3.65262508392334 14.445409774780273 C3.6440963745117188 14.445436477661133 3.641714096069336 14.3771390914917 3.641714096069336 14.132904052734375 M3.8948612213134766 14.054708480834961 L3.8948612213134766 13.73192024230957 L3.947812080383301 13.708961486816406 C3.9769325256347656 13.696331024169922 4.002466201782227 13.685995101928711 4.004551887512207 13.685995101928711 C4.006638526916504 13.685995101928711 4.008340358734131 13.832986831665039 4.008340358734131 14.012641906738281 L4.008340358734131 14.339289665222168 L3.9625120162963867 14.354347229003906 C3.9373111724853516 14.362640380859375 3.9117774963378906 14.37122917175293 3.9057722091674805 14.37344741821289 C3.897165298461914 14.376615524291992 3.8948612213134766 14.309243202209473 3.8948612213134766 14.054699897766113 L3.8948612213134766 14.054708480834961 M4.148007869720459 13.948622703552246 L4.148007869720459 13.617663383483887 L4.188389301300049 13.595088958740234 C4.210596084594727 13.582676887512207 4.230237007141113 13.572524070739746 4.232035160064697 13.572524070739746 C4.233833312988281 13.572524070739746 4.235300064086914 13.723678588867188 4.235300064086914 13.908424377441406 L4.235300064086914 14.244324684143066 L4.200732231140137 14.261957168579102 C4.18172025680542 14.271647453308105 4.162079334259033 14.279590606689453 4.157086372375488 14.279590606689453 C4.150967121124268 14.279590606689453 4.148007869720459 14.171897888183594 4.148007869720459 13.948622703552246 M7.089752674102783 14.265178680419922 C6.998357772827148 14.251359939575195 6.91378927230835 14.232094764709473 6.908595561981201 14.223915100097656 C6.899761199951172 14.210036277770996 6.89162540435791 14.105006217956543 6.899368762969971 14.105006217956543 C6.9029035568237305 14.105006217956543 6.925259590148926 14.112679481506348 6.949038028717041 14.122054100036621 C7.029887676239014 14.153916358947754 7.1279168128967285 14.168938636779785 7.187048435211182 14.158524513244629 C7.2579121589660645 14.146041870117188 7.290899753570557 14.125441551208496 7.315036296844482 14.078618049621582 C7.356037616729736 13.999076843261719 7.328217506408691 13.952070236206055 7.154811382293701 13.807933807373047 C6.966592311859131 13.6514892578125 6.933168411254883 13.605450630187988 6.932827949523926 13.502219200134277 C6.9322428703308105 13.331178665161133 7.075506687164307 13.248128890991211 7.323861122131348 13.275521278381348 C7.37339973449707 13.280994415283203 7.419009685516357 13.287419319152832 7.425207614898682 13.289793968200684 C7.4347920417785645 13.293468475341797 7.452661037445068 13.404574394226074 7.444918155670166 13.412307739257812 C7.44360876083374 13.413618087768555 7.417176723480225 13.406608581542969 7.386170387268066 13.396726608276367 C7.303618431091309 13.370416641235352 7.2024993896484375 13.370320320129395 7.148997783660889 13.396499633789062 C7.102287769317627 13.4193696975708 7.072294235229492 13.460572242736816 7.072294235229492 13.501887321472168 C7.072294235229492 13.561491012573242 7.121840953826904 13.621381759643555 7.264337062835693 13.734041213989258 C7.408516883850098 13.848026275634766 7.4635114669799805 13.920732498168945 7.471402645111084 14.007771492004395 C7.480428695678711 14.107284545898438 7.431571006774902 14.19021224975586 7.339120388031006 14.232338905334473 C7.272489547729492 14.262691497802734 7.166019916534424 14.276719093322754 7.089752674102783 14.26518726348877 L7.089752674102783 14.265178680419922 M13.099788665771484 14.261974334716797 C12.887066841125488 14.23526382446289 12.74516487121582 14.122133255004883 12.698202133178711 13.941831588745117 C12.681389808654785 13.877296447753906 12.68161678314209 13.73277473449707 12.698638916015625 13.660584449768066 C12.739858627319336 13.485686302185059 12.869522094726562 13.349274635314941 13.043075561523438 13.298199653625488 C13.160335540771484 13.263702392578125 13.348808288574219 13.262645721435547 13.510088920593262 13.295580863952637 L13.562463760375977 13.306282997131348 L13.567326545715332 13.367387771606445 C13.569997787475586 13.400995254516602 13.571778297424316 13.429330825805664 13.571280479431152 13.430351257324219 C13.570782661437988 13.431381225585938 13.550924301147461 13.426283836364746 13.527145385742188 13.419029235839844 C13.382694244384766 13.374981880187988 13.221762657165527 13.364428520202637 13.12600326538086 13.39273738861084 C12.971216201782227 13.438495635986328 12.869014739990234 13.543664932250977 12.833662033081055 13.693580627441406 C12.817879676818848 13.760517120361328 12.826330184936523 13.895330429077148 12.850238800048828 13.957901954650879 C12.917191505432129 14.133096694946289 13.126492500305176 14.200958251953125 13.407520294189453 14.138587951660156 L13.453349113464355 14.12841796875 L13.45339298248291 14.053424835205078 C13.453418731689453 14.01218032836914 13.455976486206055 13.94013786315918 13.459074974060059 13.893322944641113 L13.464714050292969 13.808213233947754 L13.243856430053711 13.808213233947754 L13.243856430053711 13.783116340637207 C13.243856430053711 13.769315719604492 13.24630069732666 13.745746612548828 13.249303817749023 13.730741500854492 L13.254758834838867 13.703462600708008 L13.604277610778809 13.703462600708008 L13.598628997802734 13.762384414672852 C13.595521926879883 13.794787406921387 13.590388298034668 13.911043167114258 13.58721923828125 14.020716667175293 C13.583439826965332 14.151453971862793 13.57818603515625 14.2213134765625 13.571961402893066 14.223592758178711 C13.566740989685059 14.225513458251953 13.517290115356445 14.23466968536377 13.462078094482422 14.24395751953125 C13.34000015258789 14.26448917388916 13.1823148727417 14.27232837677002 13.099788665771484 14.261974334716797 L13.099788665771484 14.261974334716797 M14.487760543823242 14.264768600463867 C14.348154067993164 14.246200561523438 14.242557525634766 14.154867172241211 14.207168579101562 14.022078514099121 C14.181573867797852 13.926031112670898 14.196772575378418 13.786651611328125 14.242713928222656 13.695963859558105 C14.271625518798828 13.63891887664795 14.349209785461426 13.569713592529297 14.411405563354492 13.545498847961426 C14.480585098266602 13.518568992614746 14.625768661499023 13.51219654083252 14.698378562927246 13.532902717590332 C14.849481582641602 13.575989723205566 14.928716659545898 13.692848205566406 14.928482055664062 13.872276306152344 C14.928315162658691 14.002779006958008 14.894899368286133 14.095762252807617 14.821897506713867 14.168834686279297 C14.744443893432617 14.246376037597656 14.619415283203125 14.282270431518555 14.487760543823242 14.264768600463867 L14.487760543823242 14.264768600463867 M14.662344932556152 14.145353317260742 C14.716754913330078 14.119697570800781 14.737703323364258 14.097149848937988 14.76877212524414 14.030781745910645 C14.791362762451172 13.982535362243652 14.793283462524414 13.970227241516113 14.793283462524414 13.873682022094727 C14.793283462524414 13.782234191894531 14.790830612182617 13.764339447021484 14.773948669433594 13.732766151428223 C14.733715057373047 13.657546997070312 14.659795761108398 13.616169929504395 14.565650939941406 13.616169929504395 C14.498000144958496 13.616169929504395 14.456929206848145 13.633340835571289 14.407774925231934 13.682198524475098 C14.352493286132812 13.737139701843262 14.32627010345459 13.809775352478027 14.32627010345459 13.907936096191406 C14.32627010345459 14.000823020935059 14.345386505126953 14.055118560791016 14.395868301391602 14.105599403381348 C14.444158554077148 14.153898239135742 14.47226619720459 14.164260864257812 14.557594299316406 14.165237426757812 C14.604670524597168 14.165779113769531 14.628719329833984 14.161213874816895 14.662344932556152 14.145360946655273 L14.662344932556152 14.145353317260742 M15.251566886901855 14.262673377990723 C15.118804931640625 14.23831844329834 15.057429313659668 14.166704177856445 15.056975364685059 14.035652160644531 C15.056844711303711 13.999382972717285 15.061942100524902 13.870513916015625 15.068288803100586 13.749290466308594 L15.079837799072266 13.528878211975098 L15.207921028137207 13.528878211975098 L15.207780838012695 13.570342063903809 C15.207710266113281 13.59314250946045 15.203879356384277 13.657206535339355 15.199278831481934 13.712706565856934 C15.18426513671875 13.893890380859375 15.185234069824219 14.04452133178711 15.201618194580078 14.075597763061523 C15.262792587280273 14.191635131835938 15.463600158691406 14.192079544067383 15.551852226257324 14.076383590698242 C15.598325729370117 14.0154447555542 15.612554550170898 13.932369232177734 15.623570442199707 13.657633781433105 L15.628738403320312 13.528878211975098 L15.759912490844727 13.528878211975098 L15.754465103149414 13.592164993286133 C15.746870994567871 13.6804780960083 15.733585357666016 13.923918724060059 15.726593017578125 14.102824211120605 L15.720718383789062 14.253402709960938 L15.600735664367676 14.253402709960938 L15.600735664367676 14.147273063659668 L15.561357498168945 14.186651229858398 C15.537002563476562 14.211005210876465 15.50379753112793 14.232828140258789 15.474345207214355 14.243852615356445 C15.420293807983398 14.264079093933105 15.310009002685547 14.273392677307129 15.251575469970703 14.262673377990723 L15.251566886901855 14.262673377990723 M7.539534091949463 14.159564018249512 C7.641639232635498 13.966936111450195 7.969744682312012 13.323017120361328 7.975418567657471 13.30410099029541 C7.98103141784668 13.28540325164795 7.985562324523926 13.284460067749023 8.070199966430664 13.284512519836426 L8.15908145904541 13.284573554992676 L8.205781936645508 13.421998023986816 C8.231464385986328 13.49759292602539 8.309049606323242 13.713055610656738 8.37818431854248 13.900812149047852 C8.447319030761719 14.088577270507812 8.503885269165039 14.244865417480469 8.503885269165039 14.248138427734375 C8.503885269165039 14.251412391662598 8.470364570617676 14.25294017791748 8.429398536682129 14.251561164855957 L8.354911804199219 14.249038696289062 L8.299429893493652 14.087547302246094 C8.268912315368652 13.998727798461914 8.238203048706055 13.910345077514648 8.231193542480469 13.89113998413086 L8.218448638916016 13.856224060058594 L8.030988693237305 13.853876113891602 L7.843546390533447 13.851527214050293 L7.74639892578125 14.052465438842773 L7.649260520935059 14.253402709960938 L7.489786148071289 14.253402709960938 L7.539534091949463 14.159564018249512 M8.180904388427734 13.740142822265625 C8.180904388427734 13.736310958862305 8.154253959655762 13.657930374145508 8.121685028076172 13.565959930419922 L8.062457084655762 13.398734092712402 L7.977653503417969 13.568613052368164 C7.931004524230957 13.6620512008667 7.892840385437012 13.74043083190918 7.892840385437012 13.742805480957031 C7.892840385437012 13.745170593261719 7.9576544761657715 13.747108459472656 8.036872863769531 13.747108459472656 C8.116089820861816 13.747108459472656 8.180904388427734 13.743974685668945 8.180904388427734 13.740142822265625 L8.180904388427734 13.740142822265625 M8.60340690612793 14.17265796661377 C8.611376762390137 14.057344436645508 8.624313354492188 13.742918968200684 8.63125228881836 13.496143341064453 L8.637188911437988 13.284460067749023 L9.239330291748047 13.284460067749023 L9.233865737915039 13.311738967895508 C9.230862617492676 13.326744079589844 9.228418350219727 13.351290702819824 9.228418350219727 13.366296768188477 L9.228426933288574 13.393575668334961 L9.002079010009766 13.390869140625 L8.775721549987793 13.388145446777344 L8.770946502685547 13.425777435302734 C8.768319129943848 13.446474075317383 8.765010833740234 13.519380569458008 8.763596534729004 13.587800025939941 L8.761030197143555 13.712191581726074 L8.969466209411621 13.712191581726074 C9.155948638916016 13.712191581726074 9.17734432220459 13.71364974975586 9.172603607177734 13.726000785827637 C9.16968822479248 13.733595848083496 9.167304992675781 13.757164001464844 9.167304992675781 13.778376579284668 L9.167304992675781 13.81694221496582 L8.759703636169434 13.81694221496582 L8.754037857055664 13.915145874023438 C8.750930786132812 13.96915340423584 8.748363494873047 14.067357063293457 8.748346328735352 14.133376121520996 L8.748303413391113 14.253402709960938 L8.59782886505127 14.253402709960938 L8.60340690612793 14.17265796661377 M9.336817741394043 14.194480895996094 C9.349283218383789 14.059160232543945 9.360020637512207 13.84580135345459 9.367938041687012 13.57589340209961 C9.372564315795898 13.418008804321289 9.376457214355469 13.28754997253418 9.376579284667969 13.285996437072754 C9.376702308654785 13.284442901611328 9.479925155639648 13.28467845916748 9.605948448181152 13.286511421203613 C9.867222785949707 13.290308952331543 9.892877578735352 13.295502662658691 9.957561492919922 13.357671737670898 C10.047506332397461 13.444090843200684 10.040907859802246 13.61548900604248 9.943899154663086 13.712496757507324 C9.904409408569336 13.751988410949707 9.850191116333008 13.778594970703125 9.780191421508789 13.792831420898438 L9.726000785827637 13.803848266601562 L9.866889953613281 14.025177001953125 L10.007780075073242 14.246506690979004 L10.046319961547852 14.173574447631836 C10.067514419555664 14.133463859558105 10.17927360534668 13.916996002197266 10.294683456420898 13.692550659179688 L10.504507064819336 13.284460067749023 L10.588805198669434 13.284538269042969 L10.673094749450684 13.284608840942383 L10.719970703125 13.42202377319336 C10.745756149291992 13.49759292602539 10.823332786560059 13.713055610656738 10.892372131347656 13.900812149047852 C10.961421012878418 14.088577270507812 11.017898559570312 14.244865417480469 11.017898559570312 14.248138427734375 C11.017898559570312 14.251412391662598 10.984291076660156 14.25294017791748 10.94320297241211 14.251561164855957 L10.86850643157959 14.249038696289062 L10.821647644042969 14.109371185302734 C10.795870780944824 14.032553672790527 10.765082359313965 13.944170951843262 10.753228187561035 13.9129638671875 L10.731667518615723 13.856224060058594 L10.544617652893066 13.853876113891602 L10.357550621032715 13.851527214050293 L10.260412216186523 14.052465438842773 L10.163272857666016 14.253402709960938 L9.84840202331543 14.253402709960938 L9.818687438964844 14.194480895996094 C9.802347183227539 14.162069320678711 9.733552932739258 14.043919563293457 9.66582202911377 13.931905746459961 C9.59808349609375 13.819910049438477 9.542661666870117 13.72758960723877 9.542661666870117 13.72676944732666 C9.542661666870117 13.725957870483398 9.58319091796875 13.725285530090332 9.632720947265625 13.725285530090332 C9.715692520141602 13.725285530090332 9.726847648620605 13.7232084274292 9.774282455444336 13.698966979980469 C9.843033790588379 13.663823127746582 9.876850128173828 13.611762046813965 9.877828598022461 13.539554595947266 C9.87870979309082 13.474608421325684 9.856651306152344 13.435195922851562 9.804677963256836 13.408851623535156 C9.769734382629395 13.39113998413086 9.753349304199219 13.38921070098877 9.638080596923828 13.38921070098877 L9.510232925415039 13.38921070098877 L9.505082130432129 13.439403533935547 C9.50224494934082 13.467005729675293 9.495043754577637 13.66144847869873 9.48906421661377 13.871500015258789 L9.478204727172852 14.253402709960938 L9.331388473510742 14.253402709960938 L9.336817741394043 14.194480895996094 M10.694917678833008 13.740142822265625 C10.694917678833008 13.736310958862305 10.668267250061035 13.657930374145508 10.635698318481445 13.565959930419922 L10.576471328735352 13.398734092712402 L10.491665840148926 13.568613052368164 C10.445016860961914 13.6620512008667 10.406853675842285 13.74043083190918 10.406853675842285 13.742805480957031 C10.406853675842285 13.745170593261719 10.471668243408203 13.747108459472656 10.550886154174805 13.747108459472656 C10.63010311126709 13.747108459472656 10.694917678833008 13.743974685668945 10.694917678833008 13.740142822265625 L10.694917678833008 13.740142822265625 M11.117499351501465 14.181386947631836 C11.128323554992676 14.043255805969238 11.139452934265137 13.820023536682129 11.144384384155273 13.64235782623291 C11.14710807800293 13.543935775756836 11.151569366455078 13.423141479492188 11.154292106628418 13.373934745788574 L11.159250259399414 13.284460067749023 L11.3320894241333 13.284460067749023 L11.36485767364502 13.338127136230469 C11.3828763961792 13.36764907836914 11.501715660095215 13.548327445983887 11.62894344329834 13.739653587341309 L11.860267639160156 14.087504386901855 L11.865845680236816 14.01550579071045 C11.868901252746582 13.975910186767578 11.876530647277832 13.7952241897583 11.882780075073242 13.613987922668457 L11.89416217803955 13.284460067749023 L12.028827667236328 13.284460067749023 L12.025249481201172 13.317194938659668 C12.0169038772583 13.393750190734863 12.003626823425293 13.658987045288086 11.99379825592041 13.945697784423828 L11.983253479003906 14.253402709960938 L11.895567893981934 14.252704620361328 L11.807891845703125 14.252015113830566 L11.54667854309082 13.859322547912598 C11.382780075073242 13.612922668457031 11.283248901367188 13.470915794372559 11.279496192932129 13.478117942810059 C11.273262977600098 13.490094184875488 11.253220558166504 13.966499328613281 11.253456115722656 14.097236633300781 C11.25352668762207 14.138578414916992 11.251091003417969 14.190630912780762 11.24804401397705 14.212899208068848 L11.242484092712402 14.253402709960938 L11.111860275268555 14.253402709960938 L11.117499351501465 14.181386947631836 M13.761978149414062 14.15519905090332 C13.76505184173584 14.10118293762207 13.770132064819336 13.938164710998535 13.773265838623047 13.792936325073242 L13.778983116149902 13.528878211975098 L13.907268524169922 13.528878211975098 L13.907268524169922 13.624951362609863 L13.94000244140625 13.588638305664062 C13.9862060546875 13.537398338317871 14.028141975402832 13.520576477050781 14.110221862792969 13.520340919494629 L14.177873611450195 13.520149230957031 L14.177873611450195 13.634885787963867 L14.13156509399414 13.629098892211914 C14.063547134399414 13.620595932006836 14.01485538482666 13.636579513549805 13.971558570861816 13.681604385375977 C13.908882141113281 13.7467679977417 13.890743255615234 13.843565940856934 13.890115737915039 14.115917205810547 L13.889809608459473 14.253402709960938 L13.756401062011719 14.253402709960938 L13.761978149414062 14.15519905090332 M4.4011549949646 13.817832946777344 L4.4011549949646 13.469196319580078 L4.4305548667907715 13.451030731201172 C4.446730613708496 13.441036224365234 4.462442874908447 13.432856559753418 4.4654717445373535 13.432856559753418 C4.468509674072266 13.432856559753418 4.470988750457764 13.589895248413086 4.470988750457764 13.781850814819336 L4.470988750457764 14.130845069885254 L4.436071872711182 14.148652076721191 L4.4011549949646 14.166460037231445 L4.4011549949646 13.817832946777344 M4.645573139190674 13.661998748779297 L4.645573139190674 13.297554016113281 L4.676125526428223 13.273173332214355 L4.706677436828613 13.248801231384277 L4.706677436828613 13.990339279174805 L4.681327819824219 14.008391380310059 C4.6673784255981445 14.018316268920898 4.653629779815674 14.026443481445312 4.650775909423828 14.026443481445312 C4.647921085357666 14.026443481445312 4.645573139190674 13.862438201904297 4.645573139190674 13.661998748779297 M4.889991283416748 13.473657608032227 L4.889991283416748 13.086743354797363 L4.910199165344238 13.067757606506348 C4.921311378479004 13.057317733764648 4.933095932006836 13.04878044128418 4.936387062072754 13.04878044128418 C4.939677715301514 13.04878044128418 4.942366123199463 13.225092887878418 4.942366123199463 13.440590858459473 L4.942366123199463 13.832401275634766 L4.920848846435547 13.8464994430542 C4.909020900726318 13.85425090789795 4.897236347198486 13.860596656799316 4.894660949707031 13.860596656799316 C4.892086029052734 13.860596656799316 4.889991283416748 13.68647575378418 4.889991283416748 13.473666191101074 L4.889991283416748 13.473657608032227 M5.158152103424072 13.383100509643555 C5.1529412269592285 13.098414421081543 5.139689922332764 12.979182243347168 5.091391086578369 12.782530784606934 C5.063501834869385 12.668963432312012 5.011650085449219 12.513007164001465 4.969513893127441 12.415903091430664 L4.942994594573975 12.354799270629883 L4.942680835723877 12.470321655273438 L4.942366123199463 12.585844039916992 L4.916440486907959 12.61435317993164 L4.890505790710449 12.642863273620605 L4.890244007110596 12.442998886108398 L4.889991283416748 12.243125915527344 L4.827873706817627 12.139240264892578 C4.727767467498779 11.971813201904297 4.620616436004639 11.835638046264648 4.471495151519775 11.686342239379883 C4.289700508117676 11.504321098327637 4.145345687866211 11.394646644592285 3.9341421127319336 11.278094291687012 C3.699580192565918 11.148639678955078 3.3981075286865234 11.048201560974121 3.144148826599121 11.014908790588379 C3.103339195251465 11.009557723999023 3.061115264892578 11.003351211547852 3.050309181213379 11.00112533569336 L3.030668258666992 10.997075080871582 L3.030668258666992 10.410035133361816 L3.10268497467041 10.415936470031738 C3.7879276275634766 10.472047805786133 4.471014976501465 10.81371784210205 4.9300055503845215 11.329936981201172 C5.318045616149902 11.766353607177734 5.55274772644043 12.276445388793945 5.628194808959961 12.847423553466797 L5.6432085037231445 12.961051940917969 L5.603517055511475 13.03870677947998 C5.55175256729126 13.140000343322754 5.4773359298706055 13.261754989624023 5.41064453125 13.354293823242188 C5.356104850769043 13.429976463317871 5.224276065826416 13.58690071105957 5.184776306152344 13.623153686523438 L5.162909984588623 13.643230438232422 L5.158152103424072 13.383100509643555 M2.572384834289551 13.575387954711914 C1.791224479675293 13.509735107421875 1.0787029266357422 13.131376266479492 0.5965805053710938 12.526188850402832 C0.2813854217529297 12.130545616149902 0.06647205352783203 11.613112449645996 0.010020256042480469 11.113967895507812 L-9.5367431640625e-07 11.025383949279785 L0.049205780029296875 10.929187774658203 C0.10483741760253906 10.82042121887207 0.24576187133789062 10.602478981018066 0.3155336380004883 10.51729965209961 C0.3672466278076172 10.454161643981934 0.49990367889404297 10.3165283203125 0.5090522766113281 10.3165283203125 C0.5122823715209961 10.3165283203125 0.5167951583862305 10.464811325073242 0.5190906524658203 10.646055221557617 C0.5234127044677734 10.987568855285645 0.5284748077392578 11.047285079956055 0.56927490234375 11.237460136413574 C0.5899896621704102 11.334039688110352 0.6644401550292969 11.565399169921875 0.6909608840942383 11.6156005859375 L0.7079296112060547 11.647732734680176 L0.70831298828125 11.519116401672363 L0.7086982727050781 11.390491485595703 L0.734623908996582 11.361990928649902 L0.7605676651000977 11.333480834960938 L0.7608194351196289 11.54684066772461 L0.7610816955566406 11.760199546813965 L0.7974653244018555 11.821810722351074 C0.9977302551269531 12.160897254943848 1.257547378540039 12.429652214050293 1.590348243713379 12.64198112487793 C1.7773714065551758 12.761309623718262 2.0901832580566406 12.889349937438965 2.3165931701660156 12.939263343811035 C2.405045509338379 12.958773612976074 2.5766096115112305 12.987030029296875 2.6094846725463867 12.987509727478027 C2.617995262145996 12.987631797790527 2.6203956604003906 13.052927017211914 2.6203956604003906 13.284460067749023 C2.6203956604003906 13.447696685791016 2.6174535751342773 13.58059024810791 2.6138486862182617 13.57978630065918 C2.6102523803710938 13.578975677490234 2.5915889739990234 13.576993942260742 2.572384834289551 13.575387954711914 M2.6553125381469727 13.283526420593262 C2.6553125381469727 13.015626907348633 2.65670108795166 12.98633098602295 2.6691226959228516 12.991097450256348 C2.6767168045043945 12.994012832641602 2.7218894958496094 12.9963960647583 2.7695083618164062 12.9963960647583 L2.8560848236083984 12.9963960647583 L2.8560848236083984 13.581253051757812 L2.6553125381469727 13.581253051757812 L2.6553125381469727 13.283526420593262 M2.899730682373047 13.291382789611816 L2.899730682373047 12.998953819274902 L2.966517448425293 12.993314743041992 C3.0032501220703125 12.990206718444824 3.046459197998047 12.987667083740234 3.0625391006469727 12.987667083740234 L3.0917816162109375 12.987667083740234 L3.0917816162109375 13.572524070739746 L3.0625391006469727 13.572524070739746 C3.046459197998047 13.572524070739746 3.0032501220703125 13.575064659118652 2.966517448425293 13.578171730041504 L2.8997392654418945 13.58381175994873 L2.899730682373047 13.291382789611816 M3.1462173461914062 13.27038860321045 L3.148512840270996 12.975733757019043 L3.2131786346435547 12.964839935302734 C3.248750686645508 12.95885181427002 3.2870540618896484 12.951641082763672 3.298288345336914 12.948822021484375 L3.3187332153320312 12.943689346313477 L3.3187332153320312 13.535477638244629 L3.2467164993286133 13.546048164367676 C3.2071123123168945 13.551861763000488 3.167778968811035 13.55852222442627 3.159311294555664 13.560835838317871 C3.144794464111328 13.564807891845703 3.1440439224243164 13.54826545715332 3.1462173461914062 13.27038860321045 L3.1462173461914062 13.27038860321045 M3.3972959518432617 13.224630355834961 L3.3972959518432617 12.927234649658203 L3.4343948364257812 12.917737007141113 C3.454803466796875 12.912508964538574 3.4888916015625 12.902539253234863 3.5101470947265625 12.895573616027832 C3.531402587890625 12.8886079788208 3.550065040588379 12.882916450500488 3.5516109466552734 12.882916450500488 C3.5531558990478516 12.882916450500488 3.5544214248657227 13.017721176147461 3.5544214248657227 13.182476997375488 L3.5544214248657227 13.482036590576172 L3.486769676208496 13.497923851013184 C3.449565887451172 13.506653785705566 3.414213180541992 13.515645027160645 3.4082069396972656 13.517914772033691 C3.399608612060547 13.521143913269043 3.3972959518432617 13.458905220031738 3.3972959518432617 13.224620819091797 L3.3972959518432617 13.224630355834961 M3.641714096069336 13.151986122131348 L3.641714096069336 12.851761817932129 L3.6788129806518555 12.837637901306152 C3.699221611022949 12.829869270324707 3.730647087097168 12.817185401916504 3.7486467361450195 12.80945110321045 L3.7813806533813477 12.795397758483887 L3.7813806533813477 13.405411720275879 L3.7337188720703125 13.423245429992676 C3.7075138092041016 13.433049201965332 3.676089286804199 13.443585395812988 3.663886070251465 13.446640014648438 L3.641714096069336 13.45220947265625 L3.641714096069336 13.151986122131348 M3.8969297409057617 13.046588897705078 L3.8992252349853516 12.738883972167969 L3.9537830352783203 12.710034370422363 L4.008340358734131 12.681184768676758 L4.008340358734131 13.309364318847656 L3.959282875061035 13.331833839416504 C3.932291030883789 13.344185829162598 3.906705856323242 13.354293823242188 3.90242862701416 13.354293823242188 C3.897968292236328 13.354293823242188 3.895620346069336 13.222770690917969 3.8969297409057617 13.046588897705078 M4.148287296295166 12.911286354064941 L4.148557662963867 12.590487480163574 L4.1679277420043945 12.576652526855469 A1.4003403186798096 1.4003403186798096 0.0 0 1 4.211294651031494 12.54727840423584 L4.235300064086914 12.531740188598633 L4.235300064086914 13.187705993652344 L4.197432518005371 13.209895133972168 C4.1766133308410645 13.222098350524902 4.156972885131836 13.232085227966309 4.153786659240723 13.232085227966309 C4.150600433349609 13.232085227966309 4.148129940032959 13.08772087097168 4.148287296295166 12.911286354064941 M4.401312351226807 12.732337951660156 L4.401469707489014 12.389716148376465 L4.436229228973389 12.360857009887695 L4.470988750457764 12.331989288330078 L4.470988750457764 13.029244422912598 L4.44102144241333 13.05209732055664 C4.424540996551514 13.064667701721191 4.408827781677246 13.074958801269531 4.406104564666748 13.074958801269531 C4.40338134765625 13.074958801269531 4.4012250900268555 12.920775413513184 4.401312351226807 12.732337951660156 M10.666460037231445 11.72847843170166 C10.664661407470703 11.016715049743652 10.660053253173828 10.425529479980469 10.656221389770508 10.414731979370117 L10.649237632751465 10.39509105682373 L11.006646156311035 10.39509105682373 L11.012215614318848 10.454012870788574 C11.015271186828613 10.48641586303711 11.017802238464355 10.549728393554688 11.017837524414062 10.594693183898926 L11.017898559570312 10.676450729370117 L11.053234100341797 10.60584831237793 C11.072674751281738 10.567012786865234 11.10838508605957 10.51356315612793 11.132600784301758 10.487070083618164 C11.237543106079102 10.372255325317383 11.422061920166016 10.333130836486816 11.585969924926758 10.390961647033691 C11.764359474182129 10.453899383544922 11.893412590026855 10.66462230682373 11.949366569519043 10.984313011169434 C11.961483001708984 11.053552627563477 11.964668273925781 11.123045921325684 11.964791297912598 11.32038688659668 C11.964921951293945 11.540512084960938 11.962696075439453 11.581565856933594 11.945412635803223 11.67679214477539 C11.885197639465332 12.008554458618164 11.741671562194824 12.216275215148926 11.540656089782715 12.262619018554688 C11.440113067626953 12.28580379486084 11.310554504394531 12.266878128051758 11.224510192871094 12.216458320617676 C11.173994064331055 12.186848640441895 11.101812362670898 12.107047080993652 11.070213317871094 12.045863151550293 L11.044923782348633 11.996901512145996 L11.04450511932373 12.509742736816406 L11.044086456298828 13.022583961486816 L10.66972541809082 13.022583961486816 L10.666460037231445 11.72847843170166 M11.41723346710205 11.915108680725098 C11.487356185913086 11.879327774047852 11.539111137390137 11.788395881652832 11.570379257202148 11.64603042602539 C11.587121963500977 11.569807052612305 11.589191436767578 11.533702850341797 11.589277267456055 11.316022872924805 C11.589356422424316 11.121326446533203 11.586318016052246 11.055307388305664 11.574350357055664 10.991470336914062 C11.535096168518066 10.782135009765625 11.469687461853027 10.704977989196777 11.331469535827637 10.704977989196777 C11.273158073425293 10.704977989196777 11.2603178024292 10.708085060119629 11.223139762878418 10.731164932250977 C11.148880004882812 10.777273178100586 11.102554321289062 10.864434242248535 11.067733764648438 11.02359390258789 C11.052352905273438 11.093881607055664 11.049498558044434 11.137772560119629 11.049017906188965 11.311657905578613 C11.048406600952148 11.530263900756836 11.055407524108887 11.593899726867676 11.093292236328125 11.714790344238281 C11.115839958190918 11.786754608154297 11.163965225219727 11.865867614746094 11.204283714294434 11.897256851196289 C11.263259887695312 11.9431734085083 11.348255157470703 11.950296401977539 11.41723346710205 11.91510009765625 L11.41723346710205 11.915108680725098 M4.645573139190674 12.50680923461914 L4.645573139190674 12.139423370361328 L4.673943042755127 12.09991455078125 L4.70231294631958 12.060406684875488 L4.704696178436279 12.447651863098145 L4.70707893371582 12.834905624389648 L4.682873249053955 12.85450267791748 C4.66956090927124 12.865283966064453 4.655725002288818 12.874116897583008 4.652120113372803 12.874143600463867 C4.648523807525635 12.87416934967041 4.645573139190674 12.708864212036133 4.645573139190674 12.50680923461914 M18.14966583251953 12.275642395019531 C18.137662887573242 12.273626327514648 18.100345611572266 12.267533302307129 18.06673812866211 12.26211166381836 C17.995716094970703 12.250641822814941 17.897356033325195 12.217025756835938 17.853090286254883 12.189083099365234 L17.822206497192383 12.16958236694336 L17.832115173339844 11.96718692779541 C17.837562561035156 11.85587215423584 17.84389877319336 11.762914657592773 17.846202850341797 11.760610580444336 C17.848506927490234 11.758305549621582 17.876842498779297 11.772499084472656 17.909183502197266 11.792140007019043 C18.087566375732422 11.900513648986816 18.301414489746094 11.9353609085083 18.422985076904297 11.875879287719727 C18.484237670898438 11.845911979675293 18.54405975341797 11.780425071716309 18.569984436035156 11.714964866638184 C18.58661460876465 11.672943115234375 18.58974838256836 11.64820384979248 18.590089797973633 11.556076049804688 C18.590456008911133 11.45756721496582 18.588420867919922 11.442718505859375 18.569137573242188 11.403314590454102 C18.533218383789062 11.329928398132324 18.44831657409668 11.255372047424316 18.24568748474121 11.119300842285156 C17.992948532104492 10.949579238891602 17.920331954956055 10.874673843383789 17.854312896728516 10.715627670288086 C17.813827514648438 10.618078231811523 17.79863929748535 10.529973983764648 17.798297882080078 10.390726089477539 C17.797748565673828 10.166909217834473 17.851457595825195 10.021061897277832 17.9835147857666 9.887836456298828 C18.111963272094727 9.758259773254395 18.250364303588867 9.705482482910156 18.461761474609375 9.705482482910156 C18.592506408691406 9.705482482910156 18.701980590820312 9.723552703857422 18.818470001220703 9.764361381530762 L18.887283325195312 9.788480758666992 L18.884071350097656 9.921321868896484 C18.882307052612305 9.994384765625 18.878379821777344 10.083562850952148 18.875343322753906 10.119474411010742 L18.86982536315918 10.184786796569824 L18.791786193847656 10.14948558807373 C18.683517456054688 10.100522994995117 18.598495483398438 10.079914093017578 18.49883460998535 10.078482627868652 C18.39943504333496 10.077058792114258 18.34349822998047 10.093243598937988 18.29021453857422 10.138853073120117 C18.196306228637695 10.219240188598633 18.16887855529785 10.38996696472168 18.229642868041992 10.51602554321289 C18.260534286499023 10.58011531829834 18.32404136657715 10.635074615478516 18.52065658569336 10.767863273620605 C18.736759185791016 10.913806915283203 18.80593490600586 10.969682693481445 18.86177635192871 11.043356895446777 C18.953269958496094 11.16409969329834 18.98688316345215 11.273685455322266 18.993867874145508 11.474021911621094 C19.000965118408203 11.677586555480957 18.978181838989258 11.803033828735352 18.909194946289062 11.940205574035645 C18.829391479492188 12.098875999450684 18.692501068115234 12.207056999206543 18.510147094726562 12.255565643310547 C18.45876693725586 12.269235610961914 18.40894889831543 12.274359703063965 18.306791305541992 12.276497840881348 C18.232376098632812 12.278051376342773 18.16166877746582 12.277667999267578 18.14966583251953 12.275642395019531 L18.14966583251953 12.275642395019531 M9.643047332763672 12.25951099395752 C9.555405616760254 12.242568016052246 9.479681015014648 12.221809387207031 9.433965682983398 12.202220916748047 L9.394265174865723 12.185199737548828 L9.394265174865723 12.13827133178711 C9.394265174865723 12.040128707885742 9.405936241149902 11.827319145202637 9.411846160888672 11.817760467529297 C9.416123390197754 11.810837745666504 9.43646240234375 11.817035675048828 9.478160858154297 11.837950706481934 C9.652815818786621 11.925592422485352 9.793913841247559 11.948087692260742 9.919797897338867 11.908343315124512 C10.01756477355957 11.877476692199707 10.057562828063965 11.763246536254883 10.005982398986816 11.662144660949707 C9.981889724731445 11.614911079406738 9.91250991821289 11.554068565368652 9.760891914367676 11.447196960449219 C9.53680419921875 11.289241790771484 9.440154075622559 11.177874565124512 9.407708168029785 11.040240287780762 C9.390318870544434 10.966461181640625 9.390510559082031 10.826793670654297 9.408100128173828 10.758609771728516 C9.452034950256348 10.588337898254395 9.588044166564941 10.44422721862793 9.756526947021484 10.38945198059082 C9.879190444946289 10.349576950073242 10.082947731018066 10.360445022583008 10.245598793029785 10.415552139282227 L10.30646800994873 10.436161994934082 L10.306022644042969 10.492011070251465 C10.305778503417969 10.522720336914062 10.302409172058105 10.602209091186523 10.298542022705078 10.668655395507812 C10.292343139648438 10.774933815002441 10.289777755737305 10.788891792297363 10.2771635055542 10.784814834594727 C10.269281387329102 10.782266616821289 10.221576690673828 10.765419006347656 10.171164512634277 10.747384071350098 C10.085897445678711 10.716867446899414 10.072515487670898 10.714545249938965 9.979122161865234 10.714143753051758 C9.891586303710938 10.713759422302246 9.874092102050781 10.7161865234375 9.842466354370117 10.733102798461914 C9.794315338134766 10.758854866027832 9.77260684967041 10.788219451904297 9.761232376098633 10.843012809753418 C9.749543190002441 10.899316787719727 9.765369415283203 10.960498809814453 9.803569793701172 11.006685256958008 C9.817728042602539 11.023786544799805 9.913853645324707 11.103597640991211 10.017189979553223 11.184037208557129 C10.235255241394043 11.353785514831543 10.308850288391113 11.42692756652832 10.35104751586914 11.515860557556152 C10.421842575073242 11.665042877197266 10.404706954956055 11.889898300170898 10.311477661132812 12.035187721252441 C10.248453140258789 12.133391380310059 10.131568908691406 12.216754913330078 10.009377479553223 12.250633239746094 C9.938688278198242 12.270238876342773 9.725250244140625 12.275406837463379 9.643047332763672 12.25951099395752 L9.643047332763672 12.25951099395752 M12.52023983001709 12.258062362670898 C12.447263717651367 12.23843002319336 12.38917064666748 12.20323371887207 12.327280044555664 12.141125679016113 C12.224651336669922 12.038138389587402 12.17888355255127 11.909669876098633 12.17888355255127 11.724532127380371 C12.17888355255127 11.589971542358398 12.195756912231445 11.503683090209961 12.240144729614258 11.411249160766602 C12.339091300964355 11.205214500427246 12.538493156433105 11.115835189819336 12.94161605834961 11.096840858459473 L13.0540132522583 11.09154224395752 L13.049683570861816 11.003010749816895 C13.044403076171875 10.895012855529785 13.021235466003418 10.82795524597168 12.969881057739258 10.772018432617188 C12.916501998901367 10.71386432647705 12.863096237182617 10.692075729370117 12.773736000061035 10.691970825195312 C12.648402214050293 10.69182300567627 12.522892951965332 10.737101554870605 12.411097526550293 10.822778701782227 L12.354750633239746 10.865970611572266 L12.350203514099121 10.842218399047852 C12.347698211669922 10.829151153564453 12.343324661254883 10.761499404907227 12.340470314025879 10.69188404083252 C12.337623596191406 10.622268676757812 12.333137512207031 10.550505638122559 12.330492973327637 10.532418251037598 L12.325691223144531 10.499526977539062 L12.415960311889648 10.45655345916748 C12.608527183532715 10.364861488342285 12.802995681762695 10.340873718261719 13.008158683776855 10.383489608764648 C13.18131160736084 10.419453620910645 13.292006492614746 10.515527725219727 13.351923942565918 10.681845664978027 C13.401086807250977 10.818291664123535 13.402308464050293 10.836020469665527 13.410279273986816 11.529888153076172 C13.414338111877441 11.882766723632812 13.420204162597656 12.18818473815918 13.42332935333252 12.208584785461426 L13.42900276184082 12.245683670043945 L13.258870124816895 12.245683670043945 C13.058954238891602 12.245683670043945 13.079521179199219 12.261309623718262 13.071847915649414 12.103571891784668 L13.066845893859863 12.000724792480469 L13.035943984985352 12.046823501586914 C12.99294376373291 12.110957145690918 12.907475471496582 12.193334579467773 12.854743957519531 12.221468925476074 C12.762675285339355 12.270597457885742 12.623488426208496 12.285820960998535 12.52023983001709 12.258062362670898 L12.52023983001709 12.258062362670898 M12.8694429397583 11.938921928405762 C12.988360404968262 11.887768745422363 13.041845321655273 11.756193161010742 13.04957103729248 11.495853424072266 L13.054075241088867 11.343973159790039 L12.941642761230469 11.349193572998047 C12.772749900817871 11.357032775878906 12.680953025817871 11.387837409973145 12.608771324157715 11.460892677307129 C12.553638458251953 11.516698837280273 12.53350830078125 11.575647354125977 12.533045768737793 11.682649612426758 C12.53270435333252 11.760932922363281 12.535280227661133 11.77562427520752 12.557992935180664 11.82504940032959 C12.6155366897583 11.950313568115234 12.738478660583496 11.995260238647461 12.8694429397583 11.938921928405762 M15.770955085754395 12.258978843688965 C15.656200408935547 12.233777046203613 15.571859359741211 12.190279960632324 15.49249267578125 12.1153564453125 C15.37285041809082 12.002427101135254 15.297945022583008 11.835585594177246 15.259021759033203 11.595357894897461 C15.243824005126953 11.501526832580566 15.243622779846191 11.138199806213379 15.258733749389648 11.045416831970215 C15.309494018554688 10.73359203338623 15.434182167053223 10.527434349060059 15.63071060180664 10.430418014526367 C15.728164672851562 10.382302284240723 15.801874160766602 10.366301536560059 15.92371654510498 10.36680793762207 C16.108776092529297 10.367576599121094 16.23648452758789 10.418389320373535 16.355812072753906 10.538721084594727 C16.439369201660156 10.622983932495117 16.487056732177734 10.703458786010742 16.529314041137695 10.831551551818848 C16.58003044128418 10.985238075256348 16.59076690673828 11.068662643432617 16.59115982055664 11.311657905578613 C16.591379165649414 11.449274063110352 16.587337493896484 11.551920890808105 16.57981300354004 11.599555969238281 C16.540565490722656 11.848268508911133 16.45233917236328 12.032673835754395 16.319856643676758 12.142923355102539 C16.262096405029297 12.191003799438477 16.151880264282227 12.241982460021973 16.07030487060547 12.2583589553833 C15.989603996276855 12.27455997467041 15.843294143676758 12.27486515045166 15.770955085754395 12.258978843688965 L15.770955085754395 12.258978843688965 M16.0067138671875 11.92836856842041 C16.121938705444336 11.874710083007812 16.18368148803711 11.723860740661621 16.20326042175293 11.448174476623535 C16.213464736938477 11.304526329040527 16.20392417907715 11.11274528503418 16.181087493896484 11.002311706542969 C16.137197494506836 10.790122985839844 16.054594039916992 10.692268371582031 15.919351577758789 10.692268371582031 C15.768956184387207 10.692268371582031 15.679271697998047 10.823991775512695 15.643753051757812 11.097084999084473 C15.628127098083496 11.217172622680664 15.637965202331543 11.53902816772461 15.660399436950684 11.641727447509766 C15.6925048828125 11.788674354553223 15.751104354858398 11.887262344360352 15.829597473144531 11.926386833190918 C15.888004302978516 11.955490112304688 15.947049140930176 11.95615291595459 16.0067138671875 11.92836856842041 L16.0067138671875 11.92836856842041 M19.63269805908203 12.259737968444824 C19.449907302856445 12.206960678100586 19.34222412109375 12.040355682373047 19.31122589111328 11.762399673461914 C19.305482864379883 11.710897445678711 19.301921844482422 11.43338680267334 19.301921844482422 11.037028312683105 L19.301921844482422 10.39509105682373 L19.67633628845215 10.39509105682373 L19.6795654296875 11.025775909423828 C19.68242835998535 11.582586288452148 19.684532165527344 11.662903785705566 19.69750213623047 11.711456298828125 C19.73261070251465 11.842839241027832 19.789579391479492 11.896716117858887 19.89298439025879 11.896323204040527 C19.98350715637207 11.895974159240723 20.048593521118164 11.849857330322266 20.091705322265625 11.755486488342285 C20.13791847229004 11.654349327087402 20.13992691040039 11.622217178344727 20.13992691040039 10.98354434967041 L20.13992691040039 10.39509105682373 L20.524011611938477 10.39509105682373 L20.524011611938477 11.27988338470459 C20.524011611938477 11.766529083251953 20.526517868041992 12.18291187286377 20.529563903808594 12.205180168151855 L20.535114288330078 12.245683670043945 L20.174842834472656 12.245683670043945 L20.174842834472656 12.190288543701172 C20.174842834472656 12.159823417663574 20.17230224609375 12.099024772644043 20.169185638427734 12.05518627166748 L20.163530349731445 11.975488662719727 L20.1260986328125 12.039447784423828 C20.06934356689453 12.13640308380127 20.010149002075195 12.196197509765625 19.933349609375 12.234152793884277 C19.87139892578125 12.264765739440918 19.863018035888672 12.266555786132812 19.770479202270508 12.268895149230957 C19.708101272583008 12.270465850830078 19.65841293334961 12.267166137695312 19.63269805908203 12.259737968444824 L19.63269805908203 12.259737968444824 M23.09131622314453 12.258052825927734 C23.018339157104492 12.23843002319336 22.960247039794922 12.20323371887207 22.898357391357422 12.141125679016113 C22.795726776123047 12.038138389587402 22.749961853027344 11.909669876098633 22.749961853027344 11.724532127380371 C22.749961853027344 11.589971542358398 22.766834259033203 11.503683090209961 22.811222076416016 11.411249160766602 C22.910072326660156 11.205414772033691 23.109745025634766 11.115800857543945 23.511585235595703 11.09691047668457 L23.622882843017578 11.091672897338867 L23.622882843017578 11.024545669555664 C23.622882843017578 10.870981216430664 23.56623077392578 10.761507987976074 23.46139144897461 10.712475776672363 C23.42664909362793 10.696213722229004 23.402889251708984 10.692041397094727 23.34481430053711 10.691962242126465 C23.219478607177734 10.69182300567627 23.093969345092773 10.737092971801758 22.982175827026367 10.822778701782227 L22.925827026367188 10.865970611572266 L22.921350479125977 10.842218399047852 C22.918880462646484 10.829151153564453 22.914541244506836 10.761499404907227 22.911705017089844 10.69188404083252 C22.90886688232422 10.622268676757812 22.904346466064453 10.550505638122559 22.90166473388672 10.532418251037598 L22.896778106689453 10.499526977539062 L22.987037658691406 10.45655345916748 C23.098045349121094 10.403697967529297 23.179367065429688 10.380722045898438 23.298171997070312 10.368632316589355 C23.448863983154297 10.353303909301758 23.597532272338867 10.374237060546875 23.70673370361328 10.42615795135498 C23.811939239501953 10.476167678833008 23.902820587158203 10.591402053833008 23.937387466430664 10.718656539916992 C23.972469329833984 10.847787857055664 23.97391700744629 10.874245643615723 23.981494903564453 11.525524139404297 C23.985572814941406 11.876001358032227 23.991403579711914 12.181419372558594 23.994449615478516 12.204219818115234 L24.0 12.245683670043945 L23.82992172241211 12.245683670043945 C23.630233764648438 12.245683670043945 23.651206970214844 12.26162338256836 23.643064498901367 12.10368537902832 L23.637765884399414 12.000968933105469 L23.60693359375 12.046945571899414 C23.564014434814453 12.110974311828613 23.478527069091797 12.193352699279785 23.42582893371582 12.221468925476074 C23.333751678466797 12.270597457885742 23.194576263427734 12.285820960998535 23.09131622314453 12.258062362670898 L23.09131622314453 12.258052825927734 M23.440519332885742 11.938921928405762 C23.559436798095703 11.887768745422363 23.6129207611084 11.756193161010742 23.620647430419922 11.495853424072266 L23.625152587890625 11.343973159790039 L23.512718200683594 11.349193572998047 C23.26901626586914 11.360507011413574 23.1524658203125 11.430742263793945 23.11149024963379 11.59099292755127 C23.09166717529297 11.668481826782227 23.09870147705078 11.756062507629395 23.130414962768555 11.826742172241211 C23.185714721679688 11.94996452331543 23.310176849365234 11.994989395141602 23.440519332885742 11.938921928405762 L23.440519332885742 11.938921928405762 M6.915168285369873 10.9930419921875 L6.915168285369873 9.740400314331055 L7.307982921600342 9.740400314331055 L7.307982921600342 10.752988815307617 L7.910298824310303 10.752988815307617 L7.910298824310303 9.740400314331055 L8.303112983703613 9.740400314331055 L8.303112983703613 12.245683670043945 L7.910298824310303 12.245683670043945 L7.910298824310303 11.145803451538086 L7.307982921600342 11.145803451538086 L7.307982921600342 12.245683670043945 L6.915168285369873 12.245683670043945 L6.915168285369873 10.9930419921875 M8.713386535644531 11.32038688659668 L8.713386535644531 10.39509105682373 L9.08874225616455 10.39509105682373 L9.08874225616455 12.245683670043945 L8.713386535644531 12.245683670043945 L8.713386535644531 11.32038688659668 M13.741413116455078 11.400294303894043 C13.741413116455078 10.935324668884277 13.738863945007324 10.518940925598145 13.735738754272461 10.474998474121094 L13.730064392089844 10.39509105682373 L14.079363822937012 10.39509105682373 L14.084978103637695 10.448749542236328 C14.088058471679688 10.478254318237305 14.09065055847168 10.54012680053711 14.090738296508789 10.586234092712402 L14.090895652770996 10.670061111450195 L14.131556510925293 10.600227355957031 C14.210040092468262 10.465404510498047 14.312215805053711 10.389504432678223 14.442927360534668 10.36894702911377 C14.50851821899414 10.35862922668457 14.600053787231445 10.36720085144043 14.663532257080078 10.389599800109863 C14.773371696472168 10.428366661071777 14.861039161682129 10.527748107910156 14.906238555908203 10.664735794067383 C14.956283569335938 10.816397666931152 14.956649780273438 10.82235050201416 14.960970878601074 11.562623023986816 L14.96496868133545 12.245683670043945 L14.57941722869873 12.245683670043945 L14.579357147216797 11.628091812133789 C14.579313278198242 11.244495391845703 14.575864791870117 10.98900032043457 14.570242881774902 10.953760147094727 C14.558414459228516 10.879606246948242 14.519193649291992 10.795936584472656 14.484766006469727 10.771424293518066 C14.440500259399414 10.73989486694336 14.374576568603516 10.730283737182617 14.317541122436523 10.747026443481445 C14.255057334899902 10.765366554260254 14.213689804077148 10.800597190856934 14.179662704467773 10.864442825317383 C14.122014999389648 10.9725980758667 14.12267017364502 10.964200973510742 14.119064331054688 11.636821746826172 L14.115800857543945 12.245683670043945 L13.741413116455078 12.245683670043945 L13.741413116455078 11.400294303894043 M20.881908416748047 11.32038688659668 L20.881908416748047 10.39509105682373 L21.257265090942383 10.39509105682373 L21.257265090942383 12.245683670043945 L20.881908416748047 12.245683670043945 L20.881908416748047 11.32038688659668 M21.536663055419922 12.047094345092773 L21.536712646484375 11.848505020141602 L21.859031677246094 11.29419994354248 L22.18134880065918 10.73989486694336 L21.867706298828125 10.737607955932617 L21.554065704345703 10.735311508178711 L21.554065704345703 10.39509105682373 L22.5666561126709 10.39509105682373 L22.5666561126709 10.778791427612305 L22.2493839263916 11.335471153259277 L21.93212127685547 11.89215087890625 L22.258113861083984 11.894437789916992 L22.5841064453125 11.896724700927734 L22.5841064453125 12.245683670043945 L21.53660011291504 12.245683670043945 L21.536663055419922 12.047094345092773 M0.9447536468505859 11.53036880493164 L0.9443864822387695 11.151119232177734 L0.9678421020507812 11.126642227172852 C0.9807443618774414 11.113173484802246 0.9944925308227539 11.102156639099121 0.9983949661254883 11.102156639099121 C1.0022964477539062 11.102156639099121 1.0054912567138672 11.268447875976562 1.0054912567138672 11.471691131591797 L1.0054912567138672 11.841233253479004 L0.9753055572509766 11.87541675567627 L0.9451112747192383 11.909608840942383 L0.9447536468505859 11.53036880493164 M5.607497215270996 11.758340835571289 C5.300490856170654 11.17031478881836 4.784123420715332 10.667808532714844 4.17508602142334 10.364398956298828 C3.8241710662841797 10.189570426940918 3.499898910522461 10.096464157104492 3.080862045288086 10.05020809173584 L3.030668258666992 10.044665336608887 L3.030668258666992 9.442559242248535 L3.0939559936523438 9.448119163513184 C3.831888198852539 9.513011932373047 4.490577220916748 9.779777526855469 5.08405876159668 10.254096984863281 C5.212552547454834 10.356786727905273 5.470675468444824 10.608983039855957 5.573968410491943 10.732745170593262 L5.6408514976501465 10.81287956237793 L5.6385908126831055 11.313238143920898 L5.636338710784912 11.813596725463867 L5.607497215270996 11.758340835571289 M1.180267333984375 11.296381950378418 L1.1804418563842773 10.949396133422852 L1.215184211730957 10.924822807312012 L1.2499094009399414 10.900250434875488 L1.2499094009399414 11.587571144104004 L1.2211294174194336 11.615469932556152 C1.2052946090698242 11.630815505981445 1.1895818710327148 11.643367767333984 1.1862125396728516 11.643367767333984 C1.1828346252441406 11.643367767333984 1.1801633834838867 11.48721981048584 1.180267333984375 11.296381950378418 L1.180267333984375 11.296381950378418 M1.4157648086547852 11.119720458984375 L1.4157648086547852 10.796853065490723 L1.4505062103271484 10.774925231933594 C1.4696235656738281 10.762861251831055 1.4892644882202148 10.752988815307617 1.4941520690917969 10.752988815307617 C1.500044822692871 10.752988815307617 1.503056526184082 10.860628128051758 1.503056526184082 11.070845603942871 L1.503056526184082 11.388710975646973 L1.4664201736450195 11.415657997131348 C1.446272850036621 11.430471420288086 1.4266319274902344 11.442596435546875 1.4227733612060547 11.442596435546875 C1.418914794921875 11.442596435546875 1.4157648086547852 11.297307014465332 1.4157648086547852 11.119729042053223 L1.4157648086547852 11.119720458984375 M16.840282440185547 11.224366188049316 L16.840282440185547 11.04105281829834 L17.529891967773438 11.04105281829834 L17.529891967773438 11.407679557800293 L16.840282440185547 11.407679557800293 L16.840282440185547 11.224366188049316 M1.6427240371704102 10.983832359313965 L1.6427240371704102 10.673465728759766 L1.6909866333007812 10.652122497558594 C1.717524528503418 10.640381813049316 1.7430572509765625 10.630779266357422 1.747727394104004 10.630779266357422 C1.7530527114868164 10.630779266357422 1.7562036514282227 10.744189262390137 1.7562036514282227 10.935647010803223 L1.7562036514282227 11.240514755249023 L1.7066478729248047 11.267356872558594 C1.6793861389160156 11.282118797302246 1.653853416442871 11.29419994354248 1.6499080657958984 11.29419994354248 C1.6459617614746094 11.29419994354248 1.6427240371704102 11.154532432556152 1.6427240371704102 10.983832359313965 M1.8717517852783203 10.878182411193848 L1.8740482330322266 10.575654983520508 L1.9346723556518555 10.555201530456543 C1.9680185317993164 10.54395866394043 1.9984560012817383 10.534757614135742 2.0023231506347656 10.534757614135742 C2.0061912536621094 10.534757614135742 2.0093507766723633 10.669371604919434 2.0093507766723633 10.83389949798584 L2.0093507766723633 11.133041381835938 L1.9460639953613281 11.157029151916504 C1.9112615585327148 11.17022705078125 1.8797826766967773 11.180947303771973 1.8761167526245117 11.180868148803711 C1.872450828552246 11.180781364440918 1.8704957962036133 11.04457950592041 1.8717517852783203 10.878182411193848 M2.09664249420166 10.8035306930542 L2.09664249420166 10.503036499023438 L2.1642942428588867 10.487646102905273 C2.201507568359375 10.479187965393066 2.238823890686035 10.470345497131348 2.2472219467163086 10.468006134033203 C2.261554718017578 10.464008331298828 2.262497901916504 10.48204231262207 2.262497901916504 10.759718894958496 L2.262497901916504 11.055700302124023 L2.1948461532592773 11.07390022277832 C2.157642364501953 11.08391284942627 2.1203250885009766 11.094780921936035 2.111919403076172 11.098063468933105 C2.097550392150879 11.103667259216309 2.09664249420166 11.086165428161621 2.09664249420166 10.8035306930542 L2.09664249420166 10.8035306930542 M2.332331657409668 10.746257781982422 L2.332331657409668 10.449586868286133 L2.3981590270996094 10.439802169799805 C2.4343671798706055 10.434415817260742 2.473649024963379 10.430007934570312 2.4854507446289062 10.430007934570312 L2.506924629211426 10.430007934570312 L2.506924629211426 11.011373519897461 L2.4328136444091797 11.02208423614502 C2.39206600189209 11.027976036071777 2.3527841567993164 11.035073280334473 2.3455209732055664 11.037858009338379 C2.333911895751953 11.042309761047363 2.3323402404785156 11.00737476348877 2.3323402404785156 10.746257781982422 L2.332331657409668 10.746257781982422 M2.559290885925293 10.712799072265625 L2.559290885925293 10.421609878540039 L2.5789318084716797 10.417637825012207 C2.589737892150879 10.415447235107422 2.6329479217529297 10.411422729492188 2.6749534606933594 10.408690452575684 L2.7513341903686523 10.403715133666992 L2.7513341903686523 10.987289428710938 L2.692411422729492 10.99252700805664 C2.660008430480957 10.995407104492188 2.6167993545532227 10.999160766601562 2.596390724182129 11.000880241394043 L2.559290885925293 11.003988265991211 L2.559290885925293 10.712799072265625 M2.8626317977905273 10.990911483764648 L2.794980049133301 10.987943649291992 L2.794980049133301 10.403261184692383 L2.8975486755371094 10.405722618103027 L3.0001163482666016 10.408184051513672 L3.0024213790893555 10.702795028686523 L3.0047168731689453 10.997406005859375 L2.9675045013427734 10.995652198791504 C2.9470338821411133 10.994691848754883 2.899844169616699 10.992552757263184 2.8626317977905273 10.990921020507812 L2.8626317977905273 10.990911483764648 M0.7086982727050781 10.539759635925293 L0.7086982727050781 10.151938438415527 L0.7327032089233398 10.133056640625 L0.756709098815918 10.114167213439941 L0.7589788436889648 10.504118919372559 L0.7612485885620117 10.894079208374023 L0.7415199279785156 10.91053295135498 C0.7306690216064453 10.919585227966309 0.7188501358032227 10.927118301391602 0.715245246887207 10.927284240722656 C0.7116403579711914 10.927450180053711 0.7086982727050781 10.753049850463867 0.7086982727050781 10.539759635925293 L0.7086982727050781 10.539759635925293 M0.9443864822387695 10.358803749084473 L0.9443864822387695 9.988579750061035 L0.9697360992431641 9.973609924316406 C0.9836854934692383 9.96536922454834 0.9974784851074219 9.958629608154297 1.0003852844238281 9.958629608154297 C1.003300666809082 9.958629608154297 1.0046625137329102 10.1221284866333 1.0034046173095703 10.3219575881958 L1.0011348724365234 10.685284614562988 L0.9727649688720703 10.707159996032715 L0.9443950653076172 10.729035377502441 L0.9443864822387695 10.358803749084473 M1.1800756454467773 10.200298309326172 L1.1800756454467773 9.848380088806152 L1.2109241485595703 9.833671569824219 C1.2278947830200195 9.825579643249512 1.2436065673828125 9.818962097167969 1.2458410263061523 9.818962097167969 C1.2480764389038086 9.818962097167969 1.249856948852539 9.975101470947266 1.2498044967651367 10.165948867797852 L1.2496910095214844 10.512935638427734 L1.2193737030029297 10.532575607299805 C1.202702522277832 10.543374061584473 1.187032699584961 10.552216529846191 1.1845626831054688 10.552216529846191 C1.1821012496948242 10.552216529846191 1.1800756454467773 10.393851280212402 1.1800756454467773 10.200298309326172 L1.1800756454467773 10.200298309326172 M1.4157648086547852 10.073445320129395 L1.4157648086547852 9.734045028686523 L1.4531593322753906 9.71976375579834 C1.4737262725830078 9.711907386779785 1.4933671951293945 9.705482482910156 1.4968061447143555 9.705482482910156 C1.5002450942993164 9.705482482910156 1.503056526184082 9.854682922363281 1.503056526184082 10.037044525146484 L1.503056526184082 10.368606567382812 L1.4594106674194336 10.390726089477539 L1.4157648086547852 10.412845611572266 L1.4157648086547852 10.073445320129395 M1.6427240371704102 9.973356246948242 L1.6427240371704102 9.645784378051758 L1.688551902770996 9.630717277526855 C1.713761329650879 9.622424125671387 1.7392950057983398 9.613834381103516 1.7452917098999023 9.611618041992188 C1.7538986206054688 9.60844898223877 1.7562036514282227 9.675812721252441 1.7562036514282227 9.930347442626953 L1.7562036514282227 10.253092765808105 L1.7103748321533203 10.272488594055176 A16.032657623291016 16.032657623291016 0.0 0 1 1.653635025024414 10.296406745910645 C1.64501953125 10.299985885620117 1.6427240371704102 10.232020378112793 1.6427240371704102 9.973356246948242 M1.871760368347168 9.887408256530762 L1.8740482330322266 9.571760177612305 L1.9307880401611328 9.555732727050781 C1.9619941711425781 9.546916961669922 1.9924421310424805 9.539680480957031 1.998438835144043 9.539663314819336 C2.006967544555664 9.539636611938477 2.0093507766723633 9.60793399810791 2.0093507766723633 9.852169036865234 L2.0093507766723633 10.164691925048828 L1.9498176574707031 10.183870315551758 C1.9170656204223633 10.194415092468262 1.8855886459350586 10.203047752380371 1.8798704147338867 10.203047752380371 C1.8719701766967773 10.203047752380371 1.8700151443481445 10.127120971679688 1.8717517852783203 9.887399673461914 L1.871760368347168 9.887408256530762 M2.09664249420166 9.824234962463379 L2.09664249420166 9.51525592803955 L2.173023223876953 9.501236915588379 C2.2150373458862305 9.493528366088867 2.252354621887207 9.487226486206055 2.255950927734375 9.487235069274902 C2.2595558166503906 9.48724365234375 2.262497901916504 9.624588966369629 2.262497901916504 9.792434692382812 L2.262497901916504 10.097625732421875 L2.2253990173339844 10.107244491577148 A14.264756202697754 14.264756202697754 0.0 0 0 2.157747268676758 10.124991416931152 C2.0912914276123047 10.142659187316895 2.09664249420166 10.168986320495605 2.09664249420166 9.824234962463379 L2.09664249420166 9.824234962463379 M2.332331657409668 9.778895378112793 L2.332331657409668 9.471845626831055 L2.3999834060668945 9.465778350830078 C2.437196731567383 9.462444305419922 2.47647762298584 9.457633972167969 2.4872751235961914 9.455085754394531 L2.506916046142578 9.450441360473633 L2.506916046142578 10.05946159362793 L2.419623374938965 10.07270336151123 L2.332331657409668 10.085945129394531 L2.332331657409668 9.778895378112793 M2.559290885925293 9.755571365356445 C2.559290885925293 9.488815307617188 2.560879707336426 9.453592300415039 2.573101043701172 9.448904991149902 C2.580695152282715 9.445989608764648 2.623904228210449 9.44360637664795 2.6691226959228516 9.44360637664795 L2.7513341903686523 9.44360637664795 L2.7513341903686523 10.04592227935791 L2.688047409057617 10.046018600463867 C2.6532440185546875 10.046070098876953 2.6100339889526367 10.04854965209961 2.5920257568359375 10.051517486572266 L2.559290885925293 10.056929588317871 L2.559290885925293 9.755571365356445 M8.704656600952148 9.832056045532227 L8.704656600952148 9.609461784362793 L9.097471237182617 9.609461784362793 L9.097471237182617 10.054651260375977 L8.704656600952148 10.054651260375977 L8.704656600952148 9.832056045532227 M20.873180389404297 9.832056045532227 L20.873180389404297 9.609461784362793 L21.265995025634766 9.609461784362793 L21.265995025634766 10.054651260375977 L20.873180389404297 10.054651260375977 L20.873180389404297 9.832056045532227 M2.8539018630981445 10.039444923400879 L2.794980049133301 10.03639030456543 L2.794980049133301 9.43234634399414 L2.8539018630981445 9.437914848327637 C2.8863134384155273 9.440970420837402 2.933450698852539 9.443510055541992 2.9586524963378906 9.4435453414917 L3.004481315612793 9.44360637664795 L3.004481315612793 10.04592227935791 L2.9586524963378906 10.044211387634277 C2.933450698852539 10.043268203735352 2.8863134384155273 10.041130065917969 2.8539018630981445 10.039444923400879 L2.8539018630981445 10.039444923400879" fill="black" fill-opacity="1.0" filling="0"/></svg>