<?xml version="1.0" encoding="iso-8859-1"?><svg height="200px" viewBox="0.0 0.0 24.0 24.0" width="200px" xmlns="http://www.w3.org/2000/svg"><path animation_id="0" d="M0.0 0.0 L24.0 0.0 L24.0 24.0 L0.0 24.0 L0.0 0.0" fill="black" fill-opacity="1.0" filling="0"/>
<path animation_id="1" d="M15.260662078857422 5.507688522338867 L14.585071563720703 5.900392532348633 L16.611467361450195 10.613334655761719 L14.64782428741455 12.561539649963379 L14.64782428741455 15.263525009155273 L13.642532348632812 15.263525009155273 L13.642532348632812 12.796862602233887 L15.873249053955078 10.330449104309082 L15.04052734375 8.539501190185547 L13.076885223388672 10.377886772155762 L13.076885223388672 15.263648986816406 L12.354105949401855 15.263648986816406 L12.354105949401855 12.451472282409668 L11.678640365600586 12.451472282409668 L11.678640365600586 15.23227310180664 L10.955986022949219 15.23227310180664 L10.955986022949219 10.377886772155762 L8.992342948913574 8.539749145507812 L8.144057273864746 10.377886772155762 L10.39058780670166 12.954367637634277 L10.39058780670166 15.200896263122559 L9.385170936584473 15.200896263122559 L9.385170936584473 12.844176292419434 L7.484156608581543 10.550581932067871 L9.385046005249023 5.617630481719971 L8.819522857666016 5.334868907928467 L6.635871410369873 10.72340202331543 L8.599638938903809 13.016995429992676 L8.599638938903809 15.986303329467773 L15.370603561401367 15.986303329467773 L15.370603561401367 12.844176292419434 L17.444189071655273 10.613334655761719 L15.260662078857422 5.507688522338867 M13.689722061157227 10.770590782165527 L14.757766723632812 9.655232429504395 L15.04052734375 10.440765380859375 L13.689597129821777 11.7290678024292 L13.689597129821777 10.770590782165527 L13.689722061157227 10.770590782165527 L13.689722061157227 10.770590782165527 M10.217643737792969 11.666065216064453 L8.929466247558594 10.377886772155762 L9.212226867675781 9.765174865722656 L10.217643737792969 10.723526000976562 L10.217643737792969 11.666065216064453" fill="black" fill-opacity="1.0" filling="0"/>
<path animation_id="2" d="M12.008715629577637 10.110814094543457 L14.695013999938965 7.408578872680664 L13.972359657287598 5.900516986846924 L13.406960487365723 6.466040134429932 L13.799664497375488 7.361514091491699 L11.977214813232422 9.199527740478516 L10.18626594543457 7.45576810836792 L10.610471725463867 6.356098175048828 L9.997758865356445 5.900516986846924 L9.212350845336914 7.361514091491699 L12.008715629577637 10.110814094543457 L12.008715629577637 10.110814094543457" fill="black" fill-opacity="1.0" filling="0"/>
<path animation_id="3" d="M6.321608543395996 16.03324317932129 L6.965697765350342 15.436469078063965 C7.012762546539307 15.389280319213867 7.091327667236328 15.483409881591797 7.107016563415527 15.499221801757812 L7.12270450592041 15.483409881591797 L6.745689392089844 15.090704917907715 L6.7300004959106445 15.090704917907715 C6.7300004959106445 15.090704917907715 6.7300004959106445 15.106518745422363 6.745689392089844 15.106518745422363 C6.745689392089844 15.106518745422363 6.839942932128906 15.200896263122559 6.79275369644165 15.24783706665039 L6.148664474487305 15.84486198425293 C6.101600170135498 15.892050743103027 6.007346153259277 15.7976713180542 6.007346153259277 15.7976713180542 L6.007346153259277 15.782108306884766 L5.9916582107543945 15.7976713180542 L6.368673801422119 16.206188201904297 L6.384361743927002 16.19037628173828 C6.384361743927002 16.19037628173828 6.368673801422119 16.19037628173828 6.368673801422119 16.17481231689453 C6.36879825592041 16.17481231689453 6.2745442390441895 16.080432891845703 6.321608543395996 16.03324317932129 M6.070223331451416 14.163980484008789 L5.347569465637207 14.635249137878418 C5.316192626953125 14.650812149047852 5.300379753112793 14.666625022888184 5.253315448760986 14.666625022888184 C5.206125736236572 14.666625022888184 5.174749851226807 14.635249137878418 5.143248558044434 14.603872299194336 L5.127560138702393 14.572247505187988 L5.11187219619751 14.58806037902832 L5.316068172454834 14.902196884155273 L5.331756114959717 14.88663387298584 L5.316068172454834 14.870820999145508 C5.28469181060791 14.82363224029541 5.269003391265869 14.776443481445312 5.300379753112793 14.729503631591797 C5.316068172454834 14.697876930236816 5.331756114959717 14.682313919067383 5.36325740814209 14.650688171386719 L5.787461757659912 14.368051528930664 L5.473323822021484 15.121957778930664 L5.661831378936768 15.404719352722168 L5.677519798278809 15.389155387878418 L5.661831378936768 15.373342514038086 C5.661831378936768 15.357778549194336 5.661831378936768 15.357778549194336 5.646143436431885 15.357778549194336 C5.61464262008667 15.279212951660156 5.661831378936768 15.184835433959961 5.7403974533081055 15.137645721435547 L6.2745442390441895 14.776318550109863 C6.305920600891113 14.76075553894043 6.321608543395996 14.744942665100098 6.36879825592041 14.744942665100098 C6.431675434112549 14.744942665100098 6.44736385345459 14.776318550109863 6.4945526123046875 14.823507308959961 L6.4945526123046875 14.839320182800293 L6.5102410316467285 14.823507308959961 L6.306045055389404 14.509368896484375 L6.290356636047363 14.525181770324707 L6.306045055389404 14.540745735168457 C6.337421417236328 14.587935447692871 6.353109836578369 14.635124206542969 6.321732997894287 14.682313919067383 C6.306045055389404 14.713689804077148 6.290356636047363 14.74506664276123 6.258856296539307 14.760879516601562 L5.7403974533081055 15.106393814086914 L6.101724624633789 14.211044311523438 L6.070223331451416 14.163980484008789 L6.070223331451416 14.163980484008789 M5.01774263381958 13.441201210021973 L5.002054691314697 13.441201210021973 L5.002054691314697 13.425637245178223 L4.6407270431518555 13.598331451416016 L4.797858715057373 13.614145278930664 C4.797858715057373 13.614145278930664 4.782170295715332 13.629708290100098 4.782170295715332 13.64552116394043 C4.625039100646973 13.943845748901367 4.8921122550964355 14.116789817810059 5.112121105194092 14.038225173950195 C5.410571098327637 13.943845748901367 5.347817897796631 13.614145278930664 5.347817897796631 13.598331451416016 C5.347817897796631 13.598331451416016 5.316442012786865 13.315569877624512 5.394882678985596 13.284193992614746 C5.614767074584961 13.158438682556152 5.709021091461182 13.394135475158691 5.6776442527771 13.504326820373535 C5.661955833435059 13.677021980285645 5.394882678985596 13.865405082702637 5.394882678985596 13.865405082702637 L5.834775447845459 13.676897048950195 L5.646267890930176 13.661334037780762 L5.661955833435059 13.614145278930664 C5.803399562835693 13.347070693969727 5.567702293395996 13.158438682556152 5.379194259643555 13.20562744140625 C5.033555030822754 13.268630027770996 5.033555030822754 13.519765853881836 5.049243927001953 13.661334037780762 C5.064931869506836 13.708273887634277 5.112121105194092 13.943970680236816 4.970678329467773 14.006848335266113 C4.845047473907471 14.054037094116211 4.750669002532959 13.912469863891602 4.750669002532959 13.771150588989258 C4.766357421875 13.629708290100098 5.002054691314697 13.441201210021973 5.01774263381958 13.441201210021973 L5.01774263381958 13.441201210021973 M5.26912784576416 12.231588363647461 C5.300504207611084 12.357343673706055 5.237751483917236 12.451472282409668 5.09630823135376 12.482848167419434 L4.389341831207275 12.655792236328125 C4.357965469360352 12.671606063842773 4.342277526855469 12.62441635131836 4.326589107513428 12.577227592468262 L4.326589107513428 12.54585075378418 L4.295212745666504 12.54585075378418 L4.420843124389648 13.032933235168457 L4.436531066894531 13.032933235168457 L4.436531066894531 13.001307487487793 C4.420843124389648 12.938554763793945 4.420843124389648 12.891366004943848 4.452219486236572 12.891366004943848 L5.143373012542725 12.718670845031738 C5.363381862640381 12.655668258666992 5.34769344329834 12.420096397399902 5.316192626953125 12.247152328491211 A0.2945900559425354 0.2945900559425354 0.0 0 0 4.970553874969482 12.04308032989502 L4.405030727386475 12.184399604797363 C4.326464653015137 12.200211524963379 4.247899055480957 12.168835639953613 4.216397762298584 12.090020179748535 C4.200709819793701 12.090020179748535 4.200709819793701 12.05864429473877 4.200709819793701 12.05864429473877 L4.18502140045166 12.074457168579102 L4.263587474822998 12.404407501220703 L4.279275417327881 12.404407501220703 L4.279275417327881 12.372782707214355 C4.279275417327881 12.29421615600586 4.326464653015137 12.231463432312012 4.405030727386475 12.200087547302246 L4.986241817474365 12.05851936340332 C5.080620288848877 12.043205261230469 5.237627029418945 12.090145111083984 5.26912784576416 12.231588363647461 L5.26912784576416 12.231588363647461 M4.6407270431518555 10.770590782165527 A0.3065429627895355 0.3065429627895355 0.0 0 0 4.562161445617676 10.911909103393555 C4.562161445617676 10.864845275878906 4.483595848083496 10.64483642578125 4.295087814331055 10.660524368286133 C4.1222686767578125 10.676213264465332 4.075079441070557 10.864720344543457 4.075079441070557 10.990350723266602 L4.1064558029174805 11.54018497467041 L4.122143745422363 11.524497032165527 C4.122143745422363 11.524497032165527 4.122143745422363 11.445932388305664 4.1378326416015625 11.414555549621582 C4.153520584106445 11.3988676071167 4.184896945953369 11.3988676071167 4.216273307800293 11.3988676071167 L4.986117362976074 11.351801872253418 L5.080371379852295 11.351801872253418 C5.127435684204102 11.367490768432617 5.127435684204102 11.477433204650879 5.127435684204102 11.477433204650879 L5.143124103546143 11.477433204650879 L5.111747741699219 10.927597999572754 L5.096059322357178 10.943285942077637 C5.096059322357178 10.943285942077637 5.111747741699219 11.068916320800781 5.064558029174805 11.084729194641113 C5.048870086669922 11.100417137145996 5.017493724822998 11.100417137145996 4.985992431640625 11.100417137145996 L4.577600955963135 11.131793975830078 L4.577600955963135 11.053228378295898 C4.577600955963135 11.021852493286133 4.577600955963135 10.974661827087402 4.593288898468018 10.943285942077637 C4.6246657371521 10.911909103393555 4.671854496002197 10.911909103393555 4.719044208526611 10.911909103393555 L4.938928127288818 10.896221160888672 C5.080371379852295 10.896221160888672 5.127435684204102 10.770590782165527 5.111747741699219 10.676213264465332 C5.111747741699219 10.503393173217773 4.860362529754639 10.56627082824707 4.860362529754639 10.56627082824707 L4.860362529754639 10.581958770751953 C4.860362529754639 10.581958770751953 5.064558029174805 10.550581932067871 5.064558029174805 10.629022598266602 C5.064558029174805 10.676088333129883 4.954616069793701 10.676088333129883 4.954616069793701 10.676088333129883 C4.9391770362854 10.676337242126465 4.734981060028076 10.692025184631348 4.6407270431518555 10.770590782165527 L4.6407270431518555 10.770590782165527 M4.1065802574157715 11.147605895996094 L4.1065802574157715 11.100542068481445 C4.090892314910889 10.9906005859375 4.153645038604736 10.896346092224121 4.342277526855469 10.896346092224121 C4.452219486236572 10.880657196044922 4.546597957611084 10.927721977233887 4.546597957611084 11.037789344787598 L4.562285900115967 11.13204288482666 L4.1065802574157715 11.147605895996094 M4.813546657562256 9.749361991882324 L5.111996650695801 9.686609268188477 C5.174749851226807 9.686609268188477 5.159061431884766 9.765050888061523 5.143373012542725 9.812239646911621 L5.143373012542725 9.843615531921387 L5.159061431884766 9.843615531921387 L5.237627029418945 9.309469223022461 L5.221938610076904 9.293780326843262 L5.221938610076904 9.309469223022461 C5.221938610076904 9.309469223022461 5.221938610076904 9.325157165527344 5.206250190734863 9.325157165527344 C5.206250190734863 9.387910842895508 5.1905622482299805 9.450787544250488 5.127684593200684 9.450787544250488 L4.1379570960998535 9.63929557800293 L4.1379570960998535 9.670671463012695 L4.954864978790283 10.016310691833496 C5.017618179321289 10.047687530517578 5.080495834350586 10.079188346862793 5.09630823135376 10.157753944396973 L5.09630823135376 10.22050666809082 L5.111996650695801 10.22050666809082 L5.159061431884766 9.890556335449219 L5.143373012542725 9.890556335449219 L5.127684593200684 9.9219331741333 L5.127684593200684 9.953433990478516 C5.111996650695801 10.016186714172363 5.049118995666504 10.047687530517578 4.954864978790283 10.016186714172363 L4.782045841217041 9.937746047973633 L4.813546657562256 9.749361991882324 L4.813546657562256 9.749361991882324 M4.483595848083496 9.796550750732422 L4.782045841217041 9.749361991882324 L4.766357421875 9.922182083129883 L4.483595848083496 9.796550750732422 M5.567577838897705 8.22548770904541 L4.750544548034668 7.958413600921631 C4.703480243682861 7.942725658416748 4.6877923011779785 7.927037715911865 4.672103404998779 7.895661354064941 C4.624914646148682 7.848471641540527 4.624914646148682 7.801407337188721 4.6407270431518555 7.754218101501465 L4.6564154624938965 7.738529682159424 L4.6407270431518555 7.722841739654541 L4.514972686767578 8.084169387817383 L4.530660629272461 8.084169387817383 L4.546473503112793 8.068480491638184 C4.562161445617676 8.021415710449219 4.577849388122559 7.974226474761963 4.6407270431518555 7.958538055419922 C4.672103404998779 7.958538055419922 4.703604698181152 7.958538055419922 4.734981060028076 7.974226474761963 L5.2220635414123535 8.13135814666748 L4.436531066894531 8.335678100585938 L4.326589107513428 8.665504455566406 L4.342277526855469 8.665504455566406 L4.3578410148620605 8.64969253540039 L4.3578410148620605 8.618315696716309 C4.405030727386475 8.555438041687012 4.499284267425537 8.52406120300293 4.593538284301758 8.555438041687012 L5.1905622482299805 8.759634017944336 C5.237627029418945 8.775321960449219 5.253439903259277 8.791010856628418 5.284816265106201 8.8223876953125 C5.316192626953125 8.869576454162598 5.316192626953125 8.916641235351562 5.300504207611084 8.963829040527344 L5.284816265106201 8.97951889038086 L5.300504207611084 8.995206832885742 L5.426259517669678 8.633879661560059 L5.410571098327637 8.633879661560059 L5.394882678985596 8.649567604064941 C5.379194259643555 8.696632385253906 5.363506317138672 8.743821144104004 5.300628662109375 8.743821144104004 A0.10023034363985062 0.10023034363985062 0.0 0 1 5.206374645233154 8.743821144104004 L4.609475135803223 8.53962516784668 L5.536325931549072 8.288240432739258 L5.567577838897705 8.22548770904541 L5.567577838897705 8.22548770904541 M5.049118995666504 6.921621322631836 C5.159061431884766 6.686048984527588 5.567577838897705 6.874556541442871 5.567577838897705 6.874556541442871 L5.583265781402588 6.858868598937988 L5.159061431884766 6.623171329498291 L5.159061431884766 6.638859748840332 L5.253315448760986 6.780303001403809 C5.143248558044434 6.795990943908691 5.064682483673096 6.843180179595947 5.017618179321289 6.93743371963501 C4.8919878005981445 7.157442569732666 5.03330659866333 7.377326965332031 5.300379753112793 7.518645763397217 C5.630331039428711 7.7071533203125 5.881591320037842 7.5813984870910645 5.9602813720703125 7.440080165863037 C6.164477348327637 7.078752517700195 5.7402729988098145 6.905932903289795 5.7402729988098145 6.905932903289795 L5.724584579467773 6.921621322631836 C5.724584579467773 6.921621322631836 6.132976531982422 7.094440937042236 5.928780555725098 7.408703327178955 C5.881591320037842 7.502956867218018 5.567453384399414 7.393014907836914 5.4260101318359375 7.314449310302734 C5.237627029418945 7.20438289642334 4.986241817474365 7.047251224517822 5.049118995666504 6.921621322631836 L5.049118995666504 6.921621322631836 M6.478740215301514 6.4817280769348145 L6.101724624633789 6.1989665031433105 L6.133100986480713 6.167590141296387 C6.164477348327637 6.12052583694458 6.227355003356934 6.10471248626709 6.305920600891113 6.10471248626709 C6.384361743927002 6.120400905609131 6.478740215301514 6.214654922485352 6.478740215301514 6.214654922485352 L6.4944281578063965 6.1989665031433105 L6.007346153259277 5.821950912475586 L5.9916582107543945 5.837639331817627 C6.007346153259277 5.837639331817627 6.101600170135498 5.900392532348633 6.133100986480713 5.9790825843811035 C6.164477348327637 6.041835784912109 6.164477348327637 6.10471248626709 6.11741304397583 6.151902198791504 L6.101724624633789 6.183278560638428 L5.787586688995361 5.9318928718566895 C5.7405219078063965 5.900516986846924 5.818963050842285 5.790450096130371 5.818963050842285 5.790450096130371 C5.9604058265686035 5.633318901062012 6.101724624633789 5.6491312980651855 6.290232181549072 5.774762153625488 L6.321608543395996 5.790450096130371 L6.321608543395996 5.774762153625488 L6.023159027099609 5.523376941680908 L5.473323822021484 6.1988420486450195 L5.489012241363525 6.2145304679870605 L5.489012241363525 6.1988420486450195 C5.504700183868408 6.1988420486450195 5.583265781402588 6.088900089263916 5.630331039428711 6.136089324951172 L6.321608543395996 6.670236110687256 C6.368673801422119 6.717300891876221 6.290232181549072 6.827367305755615 6.2745442390441895 6.827367305755615 L6.2745442390441895 6.843055725097656 L6.290232181549072 6.843055725097656 L6.855755805969238 6.136089324951172 L6.478740215301514 5.837639331817627 L6.463051795959473 5.853327751159668 L6.4944281578063965 5.884704113006592 C6.682936191558838 6.057523727416992 6.730125427246094 6.261719703674316 6.6043701171875 6.403162479400635 C6.6043701171875 6.418975353240967 6.525928974151611 6.5289177894592285 6.478740215301514 6.4817280769348145 L6.478740215301514 6.4817280769348145 M7.075764179229736 4.549461841583252 C7.28008508682251 4.392330169677734 7.5785346031188965 4.706592559814453 7.5785346031188965 4.706592559814453 L7.5942230224609375 4.69090461730957 L7.295773029327393 4.329577445983887 L7.327149391174316 4.502397060394287 C7.217207431793213 4.471020698547363 7.122828960418701 4.486708641052246 7.0443878173828125 4.549461841583252 C6.840067386627197 4.706592559814453 6.887256622314453 4.957978248596191 7.075764179229736 5.2093634605407715 C7.311461448669434 5.507812976837158 7.5785346031188965 5.476436614990234 7.704164981842041 5.382183074951172 C8.04967975616455 5.130797863006592 7.719852924346924 4.800971031188965 7.719852924346924 4.800971031188965 L7.704164981842041 4.816659927368164 C7.704164981842041 4.816659927368164 8.002614974975586 5.146610260009766 7.704164981842041 5.35080623626709 C7.60991096496582 5.413559436798096 7.374214172363281 5.1936750411987305 7.2642717361450195 5.052356243133545 C7.138517379760742 4.8792877197265625 6.965822219848633 4.643715858459473 7.075764179229736 4.549461841583252 L7.075764179229736 4.549461841583252 M8.096868515014648 3.8581838607788086 C7.609786510467529 4.1253814697265625 8.128244400024414 5.052231788635254 8.599638938903809 4.7850341796875 C9.086596488952637 4.51808500289917 8.568138122558594 3.5911102294921875 8.096868515014648 3.8581838607788086 M8.599638938903809 4.769345760345459 C8.395318984985352 4.8792877197265625 7.908360958099365 3.983814239501953 8.096868515014648 3.8738718032836914 C8.28537654876709 3.763930320739746 8.78814697265625 4.6750922203063965 8.599638938903809 4.769345760345459 M10.013446807861328 4.188134670257568 L9.746374130249023 3.371225357055664 C9.73068618774414 3.3398494720458984 9.73068618774414 3.3083486557006836 9.73068618774414 3.2769718170166016 C9.746374130249023 3.214095115661621 9.793437957763672 3.198406219482422 9.840627670288086 3.16702938079834 L9.856316566467285 3.16702938079834 L9.856316566467285 3.151341438293457 L9.494989395141602 3.261408805847168 L9.494989395141602 3.277096748352051 L9.526365280151367 3.277096748352051 C9.573430061340332 3.261408805847168 9.62061882019043 3.261408805847168 9.667684555053711 3.2927846908569336 C9.699060440063477 3.324160575866699 9.714873313903809 3.3398494720458984 9.714873313903809 3.3713512420654297 L9.872004508972168 3.8583078384399414 L9.243602752685547 3.355661392211914 L8.913777351379395 3.465603828430176 L8.929466247558594 3.481292724609375 L8.945154190063477 3.481292724609375 L8.96084213256836 3.465603828430176 C9.055095672607422 3.449915885925293 9.133661270141602 3.5284814834594727 9.165038108825684 3.6070470809936523 L9.353546142578125 4.219759464263916 C9.369234085083008 4.251136302947998 9.369234085083008 4.282637119293213 9.369234085083008 4.314013481140137 C9.353546142578125 4.376891136169434 9.306356430053711 4.392579078674316 9.259166717529297 4.42395544052124 L9.243478775024414 4.42395544052124 L9.243478775024414 4.4396443367004395 L9.604805946350098 4.329577445983887 L9.604805946350098 4.298076629638672 L9.573305130004883 4.313764572143555 C9.526241302490234 4.329452991485596 9.47905158996582 4.329452991485596 9.431986808776855 4.298076629638672 C9.400609970092773 4.266700267791748 9.400609970092773 4.251011371612549 9.38492202758789 4.219510555267334 L9.180726051330566 3.6224870681762695 L9.950445175170898 4.203822612762451 L10.013446807861328 4.188134670257568 L10.013446807861328 4.188134670257568 M10.987611770629883 3.3555383682250977 L10.940422058105469 2.962709426879883 L10.877544403076172 3.1041526794433594 L10.846168518066406 3.0727758407592773 C10.610471725463867 2.868579864501953 10.374773979187012 3.0727758407592773 10.374773979187012 3.2927846908569336 C10.390461921691895 3.6069231033325195 10.736101150512695 3.638298988342285 10.751789093017578 3.638298988342285 C10.751789093017578 3.638298988342285 11.018863677978516 3.685488700866699 11.034551620483398 3.7797422409057617 C11.097429275512695 4.015439510345459 10.846043586730957 4.046815872192383 10.736101150512695 3.984063148498535 C10.594658851623535 3.9211854934692383 10.484716415405273 3.6227359771728516 10.484716415405273 3.6070470809936523 L10.46902847290039 3.6070470809936523 L10.531905174255371 4.078316688537598 L10.610471725463867 3.905496597290039 L10.641847610473633 3.936873435974121 C10.861856460571289 4.141069412231445 11.113241195678711 3.968250274658203 11.113241195678711 3.7797422409057617 C11.14461898803711 3.4185400009155273 10.908921241760254 3.355661392211914 10.751914024353027 3.3398494720458984 C10.720538139343262 3.3398494720458984 10.469152450561523 3.324160575866699 10.45346450805664 3.16702938079834 C10.437776565551758 3.0413999557495117 10.594783782958984 2.978522300720215 10.736226081848145 3.0255861282348633 C10.877544403076172 3.0726518630981445 10.987611770629883 3.339724540710449 10.987611770629883 3.3555383682250977 L10.987611770629883 3.3555383682250977 M12.087157249450684 3.9367494583129883 C11.961526870727539 3.9367494583129883 11.88296127319336 3.8268070220947266 11.88296127319336 3.68536376953125 L11.914462089538574 2.962709426879883 C11.914462089538574 2.931332588195801 11.945838928222656 2.931332588195801 12.008715629577637 2.931332588195801 L12.040091514587402 2.931332588195801 L12.040091514587402 2.915644645690918 L11.537322044372559 2.899956703186035 L11.537322044372559 2.915644645690918 L11.56869888305664 2.915644645690918 C11.631575584411621 2.915644645690918 11.662952423095703 2.931332588195801 11.662952423095703 2.962709426879883 L11.647263526916504 3.68536376953125 C11.647263526916504 3.9053726196289062 11.898649215698242 3.9681262969970703 12.055655479431152 3.9681262969970703 C12.212786674499512 3.9681262969970703 12.354105949401855 3.8423709869384766 12.354105949401855 3.68536376953125 L12.369918823242188 3.1041526794433594 C12.369918823242188 3.0255861282348633 12.417107582092285 2.947021484375 12.495674133300781 2.947021484375 L12.527050018310547 2.947021484375 L12.527050018310547 2.915644645690918 L12.181534767150879 2.915644645690918 L12.181534767150879 2.931332588195801 L12.212911605834961 2.931332588195801 C12.291478157043457 2.947021484375 12.338666915893555 3.009899139404297 12.338666915893555 3.1041526794433594 L12.322854042053223 3.68536376953125 C12.322854042053223 3.7953062057495117 12.228724479675293 3.9367494583129883 12.087157249450684 3.9367494583129883 L12.087157249450684 3.9367494583129883 M12.841312408447266 3.999627113342285 L13.721097946166992 4.188134670257568 L13.815227508544922 3.716864585876465 L13.799664497375488 3.701176643371582 C13.799664497375488 3.716864585876465 13.768287658691406 3.905496597290039 13.689722061157227 3.983938217163086 C13.595343589782715 4.078192234039307 13.516777992248535 4.1253814697265625 13.39114761352539 4.1095685958862305 L13.39114761352539 4.093880653381348 C13.375335693359375 4.093880653381348 13.249829292297363 4.078192234039307 13.265392303466797 4.015315055847168 L13.438337326049805 3.151341438293457 C13.45414924621582 3.0884647369384766 13.595468521118164 3.119964599609375 13.595468521118164 3.119964599609375 L13.61128044128418 3.119964599609375 L13.61128044128418 3.104276657104492 L13.061197280883789 2.994335174560547 L13.061197280883789 3.0100221633911133 L13.077009201049805 3.0100221633911133 C13.077009201049805 3.0100221633911133 13.218328475952148 3.0413999557495117 13.202764511108398 3.104276657104492 L13.014256477355957 3.9525623321533203 C12.998444557189941 4.015315055847168 12.872689247131348 3.983938217163086 12.857125282287598 3.983938217163086 L12.841312408447266 3.999627113342285 L12.841312408447266 3.999627113342285 M14.14517879486084 4.329452991485596 L14.695013999938965 4.565149784088135 L14.710826873779297 4.549461841583252 C14.710826873779297 4.549461841583252 14.695013999938965 4.533772945404053 14.679201126098633 4.533772945404053 C14.616447448730469 4.502397060394287 14.537882804870605 4.486708641052246 14.569258689880371 4.43951940536499 L14.930585861206055 3.559734344482422 C14.946398735046387 3.559734344482422 14.946398735046387 3.559734344482422 14.961962699890137 3.5754213333129883 C15.119093894958496 3.6381750106811523 15.009151458740234 4.031002998352051 14.993338584899902 4.046691417694092 L15.009151458740234 4.062379360198975 L15.182095527648926 3.6539878845214844 L14.443503379821777 3.339724540710449 L14.270809173583984 3.7482404708862305 L14.286372184753418 3.763930320739746 C14.30218505859375 3.732553482055664 14.490694046020508 3.3869142532348633 14.663512229919434 3.44979190826416 C14.679076194763184 3.44979190826416 14.679076194763184 3.44979190826416 14.694889068603516 3.465479850769043 L14.333561897277832 4.3452653884887695 C14.30218505859375 4.376642227172852 14.239432334899902 4.360954284667969 14.176430702209473 4.329452991485596 C14.160866737365723 4.313764572143555 14.14505386352539 4.313764572143555 14.14505386352539 4.313764572143555 L14.14505386352539 4.329452991485596 L14.14517879486084 4.329452991485596 L14.14517879486084 4.329452991485596 M15.700429916381836 4.015315055847168 L15.244973182678223 4.76947021484375 C15.213597297668457 4.832347869873047 15.103654861450195 4.753782272338867 15.087841987609863 4.753782272338867 L15.087841987609863 4.738093852996826 L15.072029113769531 4.753782272338867 L15.543298721313477 5.036543846130371 L15.559110641479492 5.036543846130371 C15.559110641479492 5.036543846130371 15.559110641479492 5.02085542678833 15.543298721313477 5.02085542678833 C15.543298721313477 5.02085542678833 15.417793273925781 4.957978248596191 15.464982032775879 4.895225524902344 L15.90462589263916 4.141069412231445 C15.951815605163574 4.093880653381348 16.061756134033203 4.156633377075195 16.061756134033203 4.172321319580078 L16.07756996154785 4.172321319580078 L16.07756996154785 4.156633377075195 L15.606300354003906 3.8738718032836914 L15.606300354003906 3.889559745788574 C15.622113227844238 3.889559745788574 15.732054710388184 3.968250274658203 15.700429916381836 4.015315055847168 L15.700429916381836 4.015315055847168 M16.4544620513916 5.7590742111206055 L17.004297256469727 5.099172115325928 C17.03592300415039 5.067795753479004 17.051485061645508 5.052107334136963 17.098674774169922 5.03641939163208 C17.145862579345703 5.020730972290039 17.193052291870117 5.052107334136963 17.224428176879883 5.083483695983887 L17.25580596923828 5.099172115325928 L17.25580596923828 5.083483695983887 L16.97304344177246 4.832098484039307 L16.957481384277344 4.847786903381348 L16.97304344177246 4.863475322723389 C17.020233154296875 4.8949761390686035 17.05160903930664 4.942040920257568 17.03604507446289 4.989230155944824 C17.03604507446289 5.036294937133789 17.020233154296875 5.052107334136963 16.98885726928711 5.083483695983887 L16.674718856811523 5.460499286651611 L16.768848419189453 4.6592793464660645 L16.51758575439453 4.439394950866699 L16.501773834228516 4.455082893371582 L16.51758575439453 4.470771789550781 C16.51758575439453 4.486459732055664 16.51758575439453 4.486459732055664 16.53314971923828 4.486459732055664 C16.580339431762695 4.549212455749512 16.564775466918945 4.643590927124023 16.501773834228516 4.722032070159912 L16.093257904052734 5.2091145515441895 C16.06188201904297 5.240490913391113 16.04631805419922 5.256178855895996 16.01494026184082 5.271867275238037 C15.95193862915039 5.28755521774292 15.904749870300293 5.256178855895996 15.873373985290527 5.224802494049072 L15.841997146606445 5.224802494049072 L16.124759674072266 5.476187229156494 L16.140321731567383 5.460499286651611 L16.124759674072266 5.4448113441467285 C16.07756996154785 5.413310527801514 16.061756134033203 5.381933689117432 16.061756134033203 5.319056510925293 C16.061756134033203 5.271991729736328 16.07756996154785 5.256178855895996 16.108945846557617 5.224802494049072 L16.51746368408203 4.753533363342285 L16.407520294189453 5.7117600440979 L16.4544620513916 5.7590742111206055 L16.4544620513916 5.7590742111206055 M17.727075576782227 6.27753210067749 L17.742887496948242 6.293220520019531 L18.088401794433594 6.010458946228027 L18.072589874267578 6.010458946228027 L17.91545867919922 6.041835784912109 C17.91545867919922 6.02614688873291 17.97846031188965 5.853327751159668 17.868268966674805 5.743385314941406 C17.47556495666504 5.350681781768799 16.705846786499023 6.057523727416992 17.035797119140625 6.418975353240967 C17.161300659179688 6.544605731964111 17.287057876586914 6.4817280769348145 17.334121704101562 6.560293674468994 C17.349933624267578 6.591670513153076 17.318309783935547 6.623171329498291 17.28693199157715 6.654547691345215 L17.28693199157715 6.685924530029297 L17.616884231567383 6.418850898742676 C17.616884231567383 6.403162479400635 17.63269805908203 6.403162479400635 17.63269805908203 6.403162479400635 C17.679637908935547 6.356098175048828 17.742637634277344 6.450351715087891 17.742637634277344 6.450351715087891 L17.758201599121094 6.434663772583008 L17.522504806518555 6.151902198791504 L17.506940841674805 6.167590141296387 C17.506940841674805 6.167590141296387 17.585508346557617 6.246155738830566 17.53831672668457 6.27753210067749 C17.53831672668457 6.293220520019531 17.522504806518555 6.293220520019531 17.522504806518555 6.293220520019531 L17.365373611450195 6.418850898742676 C17.25543212890625 6.5131049156188965 17.114112854003906 6.481603622436523 17.067049026489258 6.418850898742676 C16.941293716430664 6.246031284332275 17.758201599121094 5.570566177368164 17.883956909179688 5.790450096130371 C17.962772369384766 5.9318928718566895 17.900020599365234 6.10471248626709 17.727075576782227 6.27753210067749 L17.727075576782227 6.27753210067749 M18.575483322143555 7.659964084625244 L18.575483322143555 7.675652027130127 L18.93656349182129 7.502832412719727 L18.795242309570312 7.487144470214844 L18.795242309570312 7.45576810836792 C18.93656349182129 7.157318115234375 18.66948890686035 7.000186920166016 18.465293884277344 7.0630645751953125 C18.166969299316406 7.173006534576416 18.245407104492188 7.518645763397217 18.229595184326172 7.518645763397217 C18.229595184326172 7.5343337059021 18.276784896850586 7.801407337188721 18.198219299316406 7.848471641540527 C17.993900299072266 7.958413600921631 17.884082794189453 7.754218101501465 17.89989471435547 7.62858772277832 C17.91545867919922 7.45576810836792 18.182655334472656 7.267260551452637 18.182655334472656 7.267260551452637 L18.182655334472656 7.251572132110596 L17.74276351928711 7.45576810836792 L17.931270599365234 7.471456527709961 L17.91545867919922 7.518520832061768 C17.789953231811523 7.785594463348389 18.025400161743164 7.974102020263672 18.214031219482422 7.927037715911865 C18.559547424316406 7.8327836990356445 18.559547424316406 7.597086429595947 18.52817153930664 7.439955711364746 C18.512359619140625 7.408578872680664 18.449604034423828 7.172882080078125 18.590923309326172 7.094316482543945 C18.716678619384766 7.047126770019531 18.81105613708496 7.188570022583008 18.81105613708496 7.330012798309326 C18.81105613708496 7.471456527709961 18.591047286987305 7.659964084625244 18.575483322143555 7.659964084625244 L18.575483322143555 7.659964084625244 M18.371288299560547 8.712569236755371 L18.826744079589844 8.571125984191895 L18.826744079589844 8.602502822875977 C18.842557907104492 8.665255546569824 18.826744079589844 8.728133201599121 18.779556274414062 8.791010856628418 C18.732616424560547 8.838075637817383 18.591047286987305 8.869576454162598 18.591047286987305 8.869576454162598 L18.606861114501953 8.88526439666748 L19.188072204589844 8.712444305419922 L19.172258377075195 8.696756362915039 C19.172258377075195 8.696756362915039 19.06231689453125 8.743821144104004 18.983753204345703 8.728133201599121 C18.90518569946289 8.696756362915039 18.857995986938477 8.665255546569824 18.842432022094727 8.602502822875977 L18.82662010192871 8.571125984191895 L19.219324111938477 8.46118450164795 C19.282325744628906 8.445496559143066 19.313701629638672 8.571125984191895 19.313701629638672 8.571125984191895 C19.376455307006836 8.775321960449219 19.26651382446289 8.88526439666748 19.06219482421875 8.963829040527344 L19.03081512451172 8.97951889038086 L19.03081512451172 8.995206832885742 L19.423519134521484 8.88526439666748 L19.17201042175293 8.052667617797852 L19.15644645690918 8.052667617797852 L19.15644645690918 8.06835651397705 C19.17201042175293 8.06835651397705 19.203636169433594 8.193985939025879 19.14063262939453 8.22548770904541 L18.307910919189453 8.46118450164795 C18.245159149169922 8.492560386657715 18.19797134399414 8.351117134094238 18.19797134399414 8.351117134094238 L18.19797134399414 8.335429191589355 L18.18240737915039 8.335429191589355 L18.43366813659668 9.21509075164795 L18.889373779296875 9.073772430419922 L18.889373779296875 9.058084487915039 L18.857746124267578 9.058084487915039 C18.590675354003906 9.12096118927002 18.402292251586914 9.04239559173584 18.3551025390625 8.853887557983398 C18.35547637939453 8.854012489318848 18.308286666870117 8.728257179260254 18.371288299560547 8.712569236755371 L18.371288299560547 8.712569236755371 M19.03106689453125 10.220755577087402 C19.109630584716797 10.157878875732422 19.109630584716797 10.063624382019043 19.109630584716797 10.063624382019043 C19.109630584716797 10.12650203704834 19.204010009765625 10.346385955810547 19.3767032623291 10.315010070800781 C19.56521224975586 10.283634185791016 19.596837997436523 10.110814094543457 19.581024169921875 9.96937084197998 L19.533836364746094 9.435223579406738 L19.502460479736328 9.435223579406738 C19.502460479736328 9.435223579406738 19.518272399902344 9.529478073120117 19.502460479736328 9.54529094696045 C19.48664665222168 9.576666831970215 19.47108268737793 9.576666831970215 19.42389488220215 9.576666831970215 L18.6541748046875 9.655232429504395 C18.622549057006836 9.655232429504395 18.59117317199707 9.670920372009277 18.57560920715332 9.655232429504395 C18.528419494628906 9.639544486999512 18.51260757446289 9.529603004455566 18.51260757446289 9.529603004455566 L18.49704360961914 9.54529094696045 L18.559795379638672 10.079437255859375 L18.57560920715332 10.079437255859375 C18.57560920715332 10.079437255859375 18.559795379638672 9.95380687713623 18.59117317199707 9.922306060791016 C18.622549057006836 9.906618118286133 18.6541748046875 9.906618118286133 18.685550689697266 9.906618118286133 L19.07825469970703 9.859552383422852 L19.09381866455078 9.938118934631348 C19.09381866455078 9.96949577331543 19.09381866455078 10.016559600830078 19.062442779541016 10.048060417175293 C19.046878814697266 10.079437255859375 18.99968719482422 10.079437255859375 18.952499389648438 10.079437255859375 L18.732616424560547 10.110814094543457 C18.591047286987305 10.12650203704834 18.55967140197754 10.252257347106934 18.55967140197754 10.330698013305664 C18.591047286987305 10.503518104553223 18.826744079589844 10.424951553344727 18.826744079589844 10.424951553344727 C18.826744079589844 10.424951553344727 18.62242317199707 10.456329345703125 18.62242317199707 10.377886772155762 C18.62242317199707 10.346510887145996 18.732616424560547 10.330698013305664 18.732616424560547 10.330698013305664 C18.732616424560547 10.330698013305664 18.952499389648438 10.315010070800781 19.030941009521484 10.236443519592285 L19.030941009521484 10.220755577087402 L19.03106689453125 10.220755577087402 L19.03106689453125 10.220755577087402 M19.549522399902344 9.812239646911621 L19.565086364746094 9.859304428100586 C19.565086364746094 9.969245910644531 19.518146514892578 10.079313278198242 19.329391479492188 10.095001220703125 C19.21944808959961 10.095001220703125 19.12531852722168 10.063499450683594 19.109506607055664 9.937870025634766 L19.109506607055664 9.859304428100586 L19.549522399902344 9.812239646911621 M19.565086364746094 11.336113929748535 L19.565086364746094 11.367490768432617 L19.580902099609375 11.367490768432617 L19.628089904785156 10.880409240722656 L19.61227798461914 10.880409240722656 L19.61227798461914 10.896097183227539 C19.59671401977539 10.95897388458252 19.61227798461914 10.974661827087402 19.470958709716797 11.006038665771484 L18.559795379638672 11.210235595703125 L18.559795379638672 11.288800239562988 L19.345327377319336 11.602938652038574 C19.533836364746094 11.681504249572754 19.533836364746094 11.728693008422852 19.533836364746094 11.807134628295898 L19.533836364746094 11.822823524475098 L19.54964828491211 11.83851146697998 L19.581024169921875 11.477184295654297 L19.56521224975586 11.477184295654297 C19.56521224975586 11.49287223815918 19.54964828491211 11.49287223815918 19.54964828491211 11.49287223815918 C19.533836364746094 11.587125778198242 19.533836364746094 11.665691375732422 19.329513549804688 11.587125778198242 L18.842681884765625 11.382804870605469 L19.48664665222168 11.25717544555664 C19.580902099609375 11.22617244720459 19.580902099609375 11.241860389709473 19.565086364746094 11.336113929748535 M19.329391479492188 12.435908317565918 L18.481231689453125 12.231588363647461 C18.418228149414062 12.215775489807129 18.465415954589844 12.074457168579102 18.465415954589844 12.074457168579102 L18.465415954589844 12.058768272399902 L18.449851989746094 12.058768272399902 L18.308286666870117 12.593040466308594 L18.324098587036133 12.593040466308594 C18.33991241455078 12.577227592468262 18.35547637939453 12.451472282409668 18.434040069580078 12.46728515625 L19.282451629638672 12.687170028686523 C19.345203399658203 12.702982902526855 19.298015594482422 12.828736305236816 19.298015594482422 12.844300270080566 L19.313827514648438 12.844300270080566 L19.45514488220215 12.31027889251709 L19.43958282470703 12.31027889251709 L19.43958282470703 12.32584285736084 C19.423768997192383 12.32571792602539 19.407957077026367 12.46728515625 19.329391479492188 12.435908317565918 L19.329391479492188 12.435908317565918 M19.01525115966797 13.676897048950195 C18.921123504638672 13.928406715393066 18.49704360961914 13.786839485168457 18.49704360961914 13.786839485168457 L18.49704360961914 13.802652359008789 L18.921123504638672 13.99116039276123 L18.936687469482422 13.97559642791748 L18.811182022094727 13.849842071533203 C18.936687469482422 13.818465232849121 18.99968719482422 13.771275520324707 19.046878814697266 13.661334037780762 C19.125444412231445 13.425637245178223 18.968311309814453 13.237005233764648 18.685550689697266 13.111498832702637 C18.340036392211914 12.969930648803711 18.119903564453125 13.111498832702637 18.05714988708496 13.252817153930664 C17.884204864501953 13.64552116394043 18.3242244720459 13.771275520324707 18.3242244720459 13.771275520324707 L18.340036392211914 13.755462646484375 C18.340036392211914 13.755462646484375 17.915706634521484 13.629708290100098 18.072837829589844 13.284193992614746 C18.12002944946289 13.1900634765625 18.434165954589844 13.268630027770996 18.591297149658203 13.331382751464844 C18.795368194580078 13.425637245178223 19.062442779541016 13.551142692565918 19.01525115966797 13.676897048950195 L19.01525115966797 13.676897048950195 M17.632946014404297 14.273921966552734 L18.04121208190918 14.525431632995605 L18.009836196899414 14.556808471679688 C17.97846031188965 14.603997230529785 17.91545867919922 14.63537311553955 17.852705001831055 14.619560241699219 C17.774139404296875 14.619560241699219 17.664196014404297 14.540995597839355 17.664196014404297 14.540995597839355 L17.64838409423828 14.556808471679688 L18.16684341430664 14.886758804321289 L18.182655334472656 14.87094497680664 C18.182655334472656 14.87094497680664 18.072465896606445 14.807944297790527 18.02527618408203 14.74519157409668 A0.20046068727970123 0.20046068727970123 0.0 0 1 18.02527618408203 14.556683540344238 L18.041088104248047 14.525306701660156 L18.3866024017334 14.74519157409668 C18.433792114257812 14.776567459106445 18.37103843688965 14.886758804321289 18.355226516723633 14.902322769165039 C18.245285034179688 15.059453010559082 18.103715896606445 15.059453010559082 17.899768829345703 14.965075492858887 L17.868144989013672 14.949511528015137 L17.852581024169922 14.965075492858887 L18.198095321655273 15.185208320617676 L18.66936492919922 14.44686508178711 L18.65380096435547 14.431053161621094 L18.63798713684082 14.44686508178711 C18.63798713684082 14.44686508178711 18.57523536682129 14.572371482849121 18.51223373413086 14.525431632995605 L17.77389144897461 14.069725036621094 C17.710887908935547 14.022537231445312 17.789703369140625 13.912593841552734 17.789703369140625 13.912593841552734 L17.805267333984375 13.8970308303833 L17.789703369140625 13.8970308303833 L17.302621841430664 14.6509370803833 L17.695323944091797 14.902446746826172 L17.710887908935547 14.886883735656738 L17.695323944091797 14.87106990814209 C17.47519302368164 14.713939666748047 17.41256332397461 14.525556564331055 17.506816864013672 14.352612495422363 C17.522754669189453 14.352363586425781 17.585758209228516 14.242545127868652 17.632946014404297 14.273921966552734 L17.632946014404297 14.273921966552734 M17.1772403717041 15.766295433044434 L17.1772403717041 15.782108306884766 L17.47556495666504 16.049182891845703 L17.428625106811523 15.892050743103027 L17.46000099182129 15.892050743103027 C17.789953231811523 15.90786361694336 17.83689308166504 15.593725204467773 17.695697784423828 15.436593055725098 C17.47556495666504 15.200896263122559 17.193052291870117 15.40496826171875 17.193052291870117 15.40496826171875 C17.1772403717041 15.40496826171875 16.94154167175293 15.530723571777344 16.863101959228516 15.48353385925293 C16.674592971801758 15.342215538024902 16.8472900390625 15.153831481933594 16.957481384277344 15.122206687927246 C17.13017463684082 15.07526683807373 17.397125244140625 15.247961044311523 17.41293716430664 15.247961044311523 L17.067420959472656 14.918259620666504 L17.11461067199707 15.090954780578613 L17.067420959472656 15.090954780578613 C16.768848419189453 15.090954780578613 16.690282821655273 15.373716354370117 16.800350189208984 15.530847549438477 C17.020233154296875 15.813610076904297 17.239992141723633 15.719355583190918 17.36574935913086 15.640789985656738 C17.397125244140625 15.609413146972656 17.601444244384766 15.468094825744629 17.711261749267578 15.578036308288574 C17.805641174316406 15.672414779663086 17.711261749267578 15.81373405456543 17.585758209228516 15.860798835754395 C17.444313049316406 15.923426628112793 17.193052291870117 15.782108306884766 17.1772403717041 15.766295433044434 L17.1772403717041 15.766295433044434" fill="black" fill-opacity="1.0" filling="0"/>
<path animation_id="4" d="M1.5301008224487305 18.782793045043945 L1.592977523803711 18.641223907470703 L1.860051155090332 19.819459915161133 C1.860051155090332 19.898027420043945 1.860051155090332 19.91383934020996 1.8286752700805664 19.91383934020996 L1.7501087188720703 19.91383934020996 L1.7501087188720703 19.961029052734375 L2.34700870513916 19.961029052734375 L2.34700870513916 19.91383934020996 L2.2999439239501953 19.91383934020996 C2.2371912002563477 19.898027420043945 2.2371912002563477 19.91383934020996 2.1900014877319336 19.803895950317383 C2.174313545227051 19.772520065307617 2.174313545227051 19.725330352783203 2.158625602722168 19.709518432617188 L1.797297477722168 18.15439224243164 L1.9544296264648438 17.79306411743164 C2.0173072814941406 17.651498794555664 2.111560821533203 17.447301864624023 2.2371912002563477 17.400362014770508 L2.2842559814453125 17.400362014770508 L2.2842559814453125 17.36898422241211 L1.7657976150512695 17.36898422241211 L1.7657976150512695 17.400362014770508 C1.7657976150512695 17.400362014770508 1.9543046951293945 17.400362014770508 1.9543046951293945 17.573055267333984 C1.9699926376342773 17.714622497558594 1.922928810119629 17.77737808227539 1.922928810119629 17.808753967285156 L1.5302248001098633 18.71991539001465 L1.5302248001098633 17.557493209838867 C1.5302248001098633 17.38454818725586 1.6716680526733398 17.400362014770508 1.6873559951782227 17.400362014770508 L1.6873559951782227 17.36898422241211 L1.0588302612304688 17.36898422241211 L1.0588302612304688 17.400362014770508 L1.074519157409668 17.400362014770508 C1.074519157409668 17.400362014770508 1.2316503524780273 17.38454818725586 1.2316503524780273 17.557493209838867 L1.2316503524780273 19.756832122802734 C1.2316503524780273 19.92977523803711 1.074519157409668 19.92977523803711 1.074519157409668 19.92977523803711 L1.0588302612304688 19.92977523803711 L1.0588302612304688 19.961153030395508 L1.6872320175170898 19.961153030395508 L1.6872320175170898 19.92977523803711 C1.671544075012207 19.92977523803711 1.5301008224487305 19.92977523803711 1.5301008224487305 19.756832122802734 L1.5301008224487305 18.782793045043945 L1.5301008224487305 18.782793045043945 M5.159185886383057 17.321670532226562 C4.467907428741455 17.321670532226562 4.467907428741455 20.007843017578125 5.159185886383057 20.007843017578125 C5.8504638671875 20.007843017578125 5.850339412689209 17.321670532226562 5.159185886383057 17.321670532226562 M5.159185886383057 19.96090316772461 C4.876424312591553 19.96090316772461 4.8921122550964355 17.368860244750977 5.159185886383057 17.368860244750977 C5.426259517669678 17.368860244750977 5.4419474601745605 19.96090316772461 5.159185886383057 19.96090316772461 M8.693892478942871 19.929527282714844 C8.536762237548828 19.929527282714844 8.426819801330566 19.67801856994629 8.426819801330566 19.31669044494629 L8.426819801330566 17.525991439819336 C8.426819801330566 17.44717788696289 8.489696502685547 17.415800094604492 8.552450180053711 17.415800094604492 L8.599638938903809 17.415800094604492 L8.599638938903809 17.368860244750977 L7.97123908996582 17.368860244750977 L7.97123908996582 17.415800094604492 L8.002614974975586 17.415800094604492 C8.081180572509766 17.415800094604492 8.128369331359863 17.44717788696289 8.128369331359863 17.525991439819336 L8.128369331359863 19.316816329956055 C8.128369331359863 19.882463455200195 8.44250774383545 20.00796890258789 8.662516593933105 20.00796890258789 C8.85102367401123 19.99240493774414 9.008030891418457 19.66245460510254 9.008030891418457 19.301002502441406 L9.008030891418457 17.840003967285156 C9.008030891418457 17.620121002197266 9.086596488952637 17.447301864624023 9.165162086486816 17.415925979614258 L9.212350845336914 17.415925979614258 L9.212350845336914 17.36898422241211 L8.772459030151367 17.36898422241211 L8.772459030151367 17.415925979614258 L8.819647789001465 17.415925979614258 C8.913902282714844 17.447301864624023 8.976655006408691 17.6202449798584 8.976655006408691 17.840003967285156 L8.976655006408691 19.301002502441406 C8.976655006408691 19.583765029907227 8.86658763885498 19.929527282714844 8.693892478942871 19.929527282714844 L8.693892478942871 19.929527282714844 M12.919878005981445 17.415800094604492 L12.951253890991211 17.415800094604492 L12.951253890991211 17.368860244750977 L12.432795524597168 17.368860244750977 L12.275665283203125 18.782669067382812 L12.071593284606934 17.368860244750977 L11.537446975708008 17.368860244750977 L11.537446975708008 17.415800094604492 L11.568822860717773 17.415800094604492 C11.663076400756836 17.415800094604492 11.757454872131348 17.604557037353516 11.757454872131348 17.839881896972656 L11.757454872131348 19.39525604248047 C11.757454872131348 19.709396362304688 11.694578170776367 19.89790153503418 11.584510803222656 19.929527282714844 L11.537446975708008 19.929527282714844 L11.537446975708008 19.96090316772461 L11.993027687072754 19.96090316772461 L11.993027687072754 19.929527282714844 L11.945962905883789 19.929527282714844 C11.836020469665527 19.89790153503418 11.773143768310547 19.709396362304688 11.773143768310547 19.39525604248047 L11.773143768310547 17.43161392211914 L11.78883171081543 17.43161392211914 L12.150283813476562 19.96090316772461 L12.181659698486328 19.96090316772461 L12.464422225952148 17.43161392211914 L12.464422225952148 19.7567081451416 C12.464422225952148 19.92965316772461 12.417231559753418 19.898027420043945 12.354229927062988 19.91383934020996 L12.307290077209473 19.91383934020996 L12.307290077209473 19.961029052734375 L12.951253890991211 19.961029052734375 L12.951253890991211 19.91383934020996 L12.904065132141113 19.91383934020996 C12.841312408447266 19.898027420043945 12.794122695922852 19.92965316772461 12.794122695922852 19.7567081451416 L12.794122695922852 17.57293128967285 C12.794122695922852 17.400236129760742 12.841312408447266 17.415800094604492 12.919878005981445 17.415800094604492 M16.328954696655273 18.01282501220703 C16.328954696655273 17.541555404663086 16.07744598388672 17.368860244750977 15.90462589263916 17.368860244750977 L15.260662078857422 17.368860244750977 L15.260662078857422 17.400236129760742 L15.292037963867188 17.400236129760742 C15.370603561401367 17.415800094604492 15.433357238769531 17.400236129760742 15.433357238769531 17.57293128967285 L15.433357238769531 19.7567081451416 C15.433357238769531 19.92965316772461 15.370603561401367 19.91383934020996 15.292037963867188 19.91383934020996 L15.260662078857422 19.91383934020996 L15.260662078857422 19.961029052734375 L15.951815605163574 19.961029052734375 C16.15613555908203 19.961029052734375 16.391706466674805 19.772520065307617 16.391706466674805 19.285438537597656 C16.391706466674805 18.594036102294922 15.98319149017334 18.562660217285156 15.98319149017334 18.562660217285156 C15.999004364013672 18.578472137451172 16.344518661499023 18.484094619750977 16.328954696655273 18.01282501220703 L16.328954696655273 18.01282501220703 M15.732054710388184 18.547096252441406 L15.732054710388184 17.510177612304688 C15.732054710388184 17.478801727294922 15.747618675231934 17.462989807128906 15.747618675231934 17.43161392211914 C15.763431549072266 17.400236129760742 15.794808387756348 17.400236129760742 15.81062126159668 17.400236129760742 L15.904749870300293 17.400236129760742 C15.999128341674805 17.400236129760742 16.06188201904297 17.66731071472168 16.04631805419922 17.99726104736328 C16.04631805419922 18.29558563232422 15.983315467834473 18.547096252441406 15.88918685913086 18.547096252441406 L15.732054710388184 18.547096252441406 L15.732054710388184 18.547096252441406 M15.732054710388184 19.7567081451416 L15.732054710388184 18.594036102294922 L15.88918685913086 18.594036102294922 C16.03050422668457 18.594036102294922 16.093257904052734 18.955364227294922 16.077693939208984 19.301002502441406 C16.077693939208984 19.615140914916992 16.01494026184082 19.92965316772461 15.936126708984375 19.92965316772461 L15.81062126159668 19.92965316772461 C15.794808387756348 19.92965316772461 15.778995513916016 19.91383934020996 15.763431549072266 19.882463455200195 C15.747618675231934 19.83527374267578 15.732054710388184 19.803895950317383 15.732054710388184 19.7567081451416 L15.732054710388184 19.7567081451416 M19.188072204589844 19.049741744995117 L19.313827514648438 19.772520065307617 L19.313827514648438 19.788084030151367 C19.329391479492188 19.92965316772461 19.21944808959961 19.92965316772461 19.156696319580078 19.92965316772461 L19.12531852722168 19.92965316772461 L19.12531852722168 19.961029052734375 L19.81647300720215 19.961029052734375 L19.81647300720215 19.92965316772461 L19.785097122192383 19.92965316772461 C19.70652961730957 19.91383934020996 19.62796401977539 19.91383934020996 19.596588134765625 19.7567081451416 L19.21944808959961 17.35304832458496 L19.172258377075195 17.35304832458496 L18.873933792114258 19.489635467529297 C18.842557907104492 19.678142547607422 18.811182022094727 19.83514976501465 18.732616424560547 19.89790153503418 C18.71680450439453 19.913715362548828 18.700990676879883 19.913715362548828 18.685426712036133 19.913715362548828 L18.63823699951172 19.913715362548828 L18.63823699951172 19.96090316772461 L19.06231689453125 19.96090316772461 L19.06231689453125 19.913715362548828 L19.01512908935547 19.913715362548828 L18.983753204345703 19.913715362548828 C18.90518569946289 19.882339477539062 18.857995986938477 19.740772247314453 18.889623641967773 19.521011352539062 L18.952375411987305 19.049741744995117 L19.188072204589844 19.049741744995117 M19.062442779541016 18.264209747314453 L19.188196182250977 19.002552032470703 L18.952499389648438 19.002552032470703 L19.062442779541016 18.264209747314453 M22.832969665527344 18.37415313720703 L22.848533630371094 18.37415313720703 L22.848533630371094 17.368860244750977 L22.73859214782715 17.698562622070312 L22.707216262817383 17.63580894470215 C22.455705642700195 17.007408142089844 22.125755310058594 17.431489944458008 22.094379425048828 17.981325149536133 C22.047191619873047 18.766855239868164 22.471519470214844 18.971050262451172 22.48708152770996 18.986614227294922 C22.48708152770996 18.986614227294922 22.817033767700195 19.206748962402344 22.817033767700195 19.44232177734375 C22.848411560058594 20.039344787597656 22.534271240234375 20.02353286743164 22.40851593017578 19.850587844848633 C22.235822677612305 19.630704879760742 22.157255172729492 18.829484939575195 22.157255172729492 18.813920974731445 L22.141441345214844 18.813920974731445 L22.141441345214844 20.007720947265625 L22.251386642456055 19.615015029907227 L22.29857635498047 19.709396362304688 C22.534271240234375 20.275043487548828 22.87978744506836 19.945091247558594 22.92697525024414 19.48950958251953 C23.00554084777832 18.59391212463379 22.738466262817383 18.3426513671875 22.55008316040039 18.248273849487305 C22.50289535522461 18.232709884643555 22.204320907592773 18.106952667236328 22.204320907592773 17.69843864440918 C22.204320907592773 17.368736267089844 22.424453735351562 17.30573272705078 22.581462860107422 17.462739944458008 C22.7541561126709 17.620121002197266 22.832969665527344 18.358341217041016 22.832969665527344 18.37415313720703 L22.832969665527344 18.37415313720703" fill="black" fill-opacity="1.0" filling="0"/>
<path animation_id="5" d="M12.008715629577637 8.319866180419922 C12.762746810913086 8.319866180419922 13.359771728515625 7.7071533203125 13.359771728515625 6.968810558319092 C13.359771728515625 6.230467796325684 12.762746810913086 5.617754936218262 12.008715629577637 5.617754936218262 C11.270248413085938 5.617754936218262 10.673348426818848 6.230467796325684 10.673348426818848 6.968810558319092 C10.673348426818848 7.7071533203125 11.270248413085938 8.319866180419922 12.008715629577637 8.319866180419922" fill="black" fill-opacity="1.0" filling="0"/></svg>