<?xml version="1.0" encoding="iso-8859-1"?><svg height="200px" viewBox="0.0 0.0 24.0 24.0" width="200px" xmlns="http://www.w3.org/2000/svg"><path animation_id="0" d="M2.100109100341797 0.0 C2.5068769454956055 12.536872863769531 5.259488582611084 20.317485809326172 12.000056266784668 24.0 C18.740623474121094 20.317485809326172 21.493234634399414 12.536872863769531 21.899890899658203 0.0 L2.100109100341797 0.0" fill="black" fill-opacity="1.0" filling="0"/>
<path animation_id="1" d="M2.514341354370117 0.39817333221435547 C2.5881853103637695 2.390625 2.7249059677124023 4.24613094329834 2.9263105392456055 5.973735809326172 L21.07402801513672 5.973735809326172 C21.275318145751953 4.246243000030518 21.41204071044922 2.390625 21.485998153686523 0.39817333221435547 L2.514341354370117 0.39817333221435547 L2.514341354370117 0.39817333221435547 M10.78868579864502 22.77471923828125 A14.799936294555664 14.799936294555664 0.0 0 0 12.000056266784668 23.540647506713867 A14.859193801879883 14.859193801879883 0.0 0 0 13.211313247680664 22.77471923828125 L13.211313247680664 8.796347618103027 L10.78868579864502 8.796347618103027 L10.78868579864502 22.77471923828125 M15.634055137634277 20.634918212890625 C16.55513572692871 19.617149353027344 17.360530853271484 18.440948486328125 18.056684494018555 17.096477508544922 L18.056684494018555 8.796347618103027 L15.634055137634277 8.796347618103027 L15.634055137634277 20.634918212890625 L15.634055137634277 20.634918212890625 M5.9433159828186035 17.096477508544922 C6.639582633972168 18.440948486328125 7.444976806640625 19.617149353027344 8.366057395935059 20.634918212890625 L8.366057395935059 8.796347618103027 L5.9433159828186035 8.796347618103027 L5.9433159828186035 17.096477508544922 L5.9433159828186035 17.096477508544922" fill="black" fill-opacity="1.0" filling="0"/>
<path animation_id="2" d="M11.841849327087402 2.3128223419189453 L12.284805297851562 2.3128223419189453 L12.284805297851562 2.7401723861694336 L11.841849327087402 2.7401723861694336 L11.841849327087402 2.3128223419189453 M6.001893997192383 5.225224018096924 C5.879083156585693 5.343963623046875 5.676547527313232 5.4033331871032715 5.394399642944336 5.4033331871032715 C5.078665256500244 5.4033331871032715 4.864254951477051 5.334012031555176 4.750943660736084 5.19548225402832 C4.637745380401611 5.056839466094971 4.580071449279785 4.906774997711182 4.577922344207764 4.744949817657471 L5.02755069732666 4.744949817657471 C5.02755069732666 4.817098617553711 5.053673267364502 4.884045124053955 5.106144905090332 4.945676803588867 C5.15850305557251 5.007308006286621 5.256661415100098 5.03806734085083 5.400392532348633 5.03806734085083 C5.622039794921875 5.03806734085083 5.732863903045654 4.9747395515441895 5.732863903045654 4.847970962524414 C5.732863903045654 4.798665523529053 5.718502521514893 4.757389545440674 5.6896653175354 4.724368572235107 A0.3008071482181549 0.3008071482181549 0.0 0 0 5.579746246337891 4.646113395690918 A0.7504346370697021 0.7504346370697021 0.0 0 0 5.463494777679443 4.605515480041504 C5.430586814880371 4.597599506378174 5.362735271453857 4.582446575164795 5.259828090667725 4.560168266296387 A2.9740326404571533 2.9740326404571533 0.0 0 1 5.010135650634766 4.495031356811523 A0.6796432137489319 0.6796432137489319 0.0 0 1 4.830103397369385 4.40501594543457 A0.42056456208229065 0.42056456208229065 0.0 0 1 4.692591667175293 4.242624759674072 C4.658552646636963 4.174434661865234 4.641702651977539 4.089394569396973 4.641702651977539 3.987504005432129 C4.641702651977539 3.830655097961426 4.700620651245117 3.6999282836914062 4.8187947273254395 3.595097541809082 C4.936742782592773 3.49038028717041 5.133285045623779 3.4380226135253906 5.408195495605469 3.4380226135253906 C5.562557220458984 3.4380226135253906 5.692718505859375 3.463240623474121 5.798905849456787 3.5134506225585938 C5.905092716217041 3.5637731552124023 5.984478950500488 3.6319637298583984 6.0370635986328125 3.7183609008789062 C6.089648246765137 3.8046445846557617 6.117127895355225 3.9008798599243164 6.119277000427246 4.007067680358887 L5.70108699798584 4.007067680358887 C5.688082218170166 3.87125301361084 5.581668853759766 3.803288459777832 5.381846904754639 3.803288459777832 C5.277582168579102 3.803288459777832 5.203624248504639 3.820476531982422 5.160312652587891 3.8548545837402344 C5.116775035858154 3.889232635498047 5.095062732696533 3.9308481216430664 5.095062732696533 3.9798145294189453 C5.095062732696533 4.051962852478027 5.127065181732178 4.102285861968994 5.1910719871521 4.130557060241699 C5.255078315734863 4.158941745758057 5.345320224761963 4.184611797332764 5.4616851806640625 4.207228660583496 C5.623623371124268 4.238327980041504 5.756159782409668 4.274514198303223 5.8595194816589355 4.315677165985107 C5.962879657745361 4.356954097747803 6.04317045211792 4.414967060089111 6.100278377532959 4.4899420738220215 C6.15749979019165 4.564918518066406 6.186110019683838 4.663415431976318 6.186110019683838 4.785660743713379 C6.186110019683838 4.959925651550293 6.124704837799072 5.106597423553467 6.001893997192383 5.225224018096924 L6.001893997192383 5.225224018096924 M10.738475799560547 5.35142707824707 L10.409624099731445 5.35142707824707 L10.409624099731445 5.1483259201049805 L10.404420852661133 5.1483259201049805 C10.342903137207031 5.243091106414795 10.265552520751953 5.309359550476074 10.172370910644531 5.3469038009643555 C10.079187393188477 5.384561061859131 9.968364715576172 5.4033331871032715 9.839673042297363 5.4033331871032715 C9.606943130493164 5.4033331871032715 9.422162055969238 5.3541412353515625 9.285215377807617 5.256208896636963 C9.148382186889648 5.158051013946533 9.053390502929688 5.035240173339844 9.000579833984375 4.887889862060547 C8.947769165039062 4.74053955078125 8.921306610107422 4.5828986167907715 8.921306610107422 4.4151930809021 C8.921306610107422 4.273384094238281 8.945393562316895 4.129878997802734 8.993568420410156 3.9845638275146484 C9.041629791259766 3.8393630981445312 9.138656616210938 3.711915969848633 9.284649848937988 3.602334976196289 C9.43041706085205 3.492755889892578 9.63702392578125 3.4379091262817383 9.904131889343262 3.4379091262817383 C10.025924682617188 3.4379091262817383 10.135051727294922 3.454533576965332 10.231287956237793 3.488006591796875 C10.327523231506348 3.5213661193847656 10.409509658813477 3.5678443908691406 10.477361679077148 3.6273279190063477 A0.6999985575675964 0.6999985575675964 0.0 0 1 10.640204429626465 3.836195945739746 C10.680914878845215 3.9156951904296875 10.708282470703125 4.000734806060791 10.72219181060791 4.091090679168701 L10.260915756225586 4.091090679168701 C10.255261421203613 4.018941879272461 10.225859642028809 3.952899932861328 10.172709465026855 3.892965316772461 C10.119446754455566 3.8330297470092773 10.029769897460938 3.8030624389648438 9.90345287322998 3.8030624389648438 C9.759042739868164 3.8030624389648438 9.649803161621094 3.8395891189575195 9.575505256652832 3.9126415252685547 C9.501094818115234 3.98569393157959 9.453372955322266 4.067907810211182 9.43233871459961 4.159393787384033 C9.411079406738281 4.250879764556885 9.400674819946289 4.340670108795166 9.400674819946289 4.428650379180908 C9.400674819946289 4.662850379943848 9.451224327087402 4.822865962982178 9.552436828613281 4.909037113189697 C9.653647422790527 4.995208263397217 9.765941619873047 5.038180351257324 9.889317512512207 5.038180351257324 C9.973114013671875 5.038180351257324 10.045940399169922 5.02223539352417 10.108138084411621 4.990231990814209 C10.170108795166016 4.9583420753479 10.21884822845459 4.914917469024658 10.253791809082031 4.860184192657471 C10.288735389709473 4.805450916290283 10.308863639831543 4.745176315307617 10.314065933227539 4.679586410522461 L9.946199417114258 4.679586410522461 L9.946199417114258 4.340330123901367 L10.738475799560547 4.340330123901367 L10.738475799560547 5.35142707824707 L10.738475799560547 5.35142707824707 M11.026844024658203 2.3957138061523438 C10.9783296585083 2.501222610473633 10.892950057983398 2.5932741165161133 10.770931243896484 2.671868324279785 C10.648798942565918 2.750462532043457 10.482224464416504 2.7898168563842773 10.270867347717285 2.7898168563842773 A1.288042664527893 1.288042664527893 0.0 0 1 9.937265396118164 2.7474098205566406 C9.831417083740234 2.7191381454467773 9.734503746032715 2.669833183288574 9.646636962890625 2.5992679595947266 C9.558769226074219 2.528702735900879 9.488768577575684 2.431222915649414 9.4365234375 2.3064889907836914 C9.384391784667969 2.1817569732666016 9.358268737792969 2.026942253112793 9.358268737792969 1.841935157775879 C9.358268737792969 1.6638250350952148 9.385295867919922 1.4986076354980469 9.43946361541748 1.3462820053100586 C9.493631362915039 1.193955421447754 9.587379455566406 1.068882942199707 9.720706939697266 0.9711771011352539 C9.854147911071777 0.8734712600708008 10.032031059265137 0.8246192932128906 10.254695892333984 0.8246192932128906 C10.446037292480469 0.8246192932128906 10.603677749633789 0.8574132919311523 10.72773265838623 0.9227771759033203 C10.851787567138672 0.9882535934448242 10.942708015441895 1.0728416442871094 11.00060749053955 1.1766538619995117 A0.7520178556442261 0.7520178556442261 0.0 0 1 11.095711708068848 1.5118389129638672 L10.6664400100708 1.5118389129638672 C10.638847351074219 1.2972030639648438 10.509929656982422 1.1897716522216797 10.279801368713379 1.1897716522216797 C10.105649948120117 1.1897716522216797 9.988380432128906 1.2559270858764648 9.928106307983398 1.3882369995117188 C9.867718696594238 1.5205459594726562 9.837636947631836 1.6663131713867188 9.837636947631836 1.8256502151489258 C9.837636947631836 1.9352302551269531 9.8536958694458 2.035310745239258 9.886037826538086 2.12589168548584 C9.918380737304688 2.2164735794067383 9.968816757202148 2.288961410522461 10.037346839904785 2.343242645263672 C10.105875968933105 2.397523880004883 10.191142082214355 2.424777030944824 10.29337215423584 2.424777030944824 C10.423985481262207 2.424777030944824 10.518524169921875 2.388589859008789 10.577102661132812 2.3162155151367188 C10.635794639587402 2.243840217590332 10.670963287353516 2.1646804809570312 10.682611465454102 2.0788488388061523 L11.11640739440918 2.0788488388061523 A1.0125666856765747 1.0125666856765747 0.0 0 1 11.026844024658203 2.3957138061523438 L11.026844024658203 2.3957138061523438 M12.975078582763672 5.35142707824707 L11.4761323928833 5.35142707824707 L11.4761323928833 3.4950170516967773 L12.948390007019043 3.4950170516967773 L12.948390007019043 3.8602828979492188 L11.919200897216797 3.8602828979492188 L11.919200897216797 4.2291669845581055 L12.826597213745117 4.2291669845581055 L12.826597213745117 4.573625564575195 L11.919200897216797 4.573625564575195 L11.919200897216797 4.986274242401123 L12.975078582763672 4.986274242401123 L12.975078582763672 5.35142707824707 M13.206563949584961 2.5819664001464844 C13.093365669250488 2.443436622619629 13.035578727722168 2.2932586669921875 13.033543586730957 2.131546974182129 L13.483170509338379 2.131546974182129 C13.483170509338379 2.203695297241211 13.509407043457031 2.2706422805786133 13.56176471710205 2.332273483276367 C13.61401081085205 2.393904685974121 13.712282180786133 2.4246644973754883 13.855900764465332 2.4246644973754883 C14.077548027038574 2.4246644973754883 14.188371658325195 2.3612232208251953 14.188371658325195 2.234567642211914 C14.188371658325195 2.1852617263793945 14.174009323120117 2.1439857482910156 14.145286560058594 2.110964775085449 C14.116449356079102 2.077944755554199 14.079809188842773 2.051821708679199 14.035253524780273 2.032710075378418 C13.99069881439209 2.0135984420776367 13.95202350616455 2.000028610229492 13.91911506652832 1.992112159729004 C13.886207580566406 1.984196662902832 13.818243026733398 1.9690437316894531 13.715448379516602 1.9466524124145508 A2.92529296875 2.92529296875 0.0 0 1 13.465755462646484 1.8816280364990234 A0.6782861948013306 0.6782861948013306 0.0 0 1 13.285724639892578 1.791499137878418 A0.4210169017314911 0.4210169017314911 0.0 0 1 13.148212432861328 1.629220962524414 C13.114173889160156 1.560917854309082 13.097210884094238 1.4758777618408203 13.097210884094238 1.373988151550293 C13.097210884094238 1.2172517776489258 13.1561279296875 1.086411476135254 13.274301528930664 0.981694221496582 C13.392363548278809 0.8770904541015625 13.588906288146973 0.8246192932128906 13.86381721496582 0.8246192932128906 C14.01817798614502 0.8246192932128906 14.14833927154541 0.8498373031616211 14.25452709197998 0.9000463485717773 C14.360713958740234 0.95025634765625 14.439987182617188 1.0185604095458984 14.492570877075195 1.1048450469970703 C14.545269012451172 1.1912412643432617 14.572635650634766 1.2874774932861328 14.574897766113281 1.3935508728027344 L14.156707763671875 1.3935508728027344 C14.143702507019043 1.2577362060546875 14.037176132202148 1.1897716522216797 13.837467193603516 1.1897716522216797 C13.7330904006958 1.1897716522216797 13.659245491027832 1.206960678100586 13.615819931030273 1.2413387298583984 C13.572395324707031 1.275716781616211 13.55068302154541 1.3173322677612305 13.55068302154541 1.366185188293457 C13.55068302154541 1.438333511352539 13.582686424255371 1.4886560440063477 13.646693229675293 1.516927719116211 C13.710699081420898 1.5453119277954102 13.800941467285156 1.5709819793701172 13.917305946350098 1.5936002731323242 C14.079244613647461 1.6246976852416992 14.211780548095703 1.6608848571777344 14.315139770507812 1.7020483016967773 C14.418387413024902 1.7433242797851562 14.498678207397461 1.8013372421264648 14.555898666381836 1.876312255859375 C14.613120079040527 1.9512882232666016 14.641731262207031 2.049785614013672 14.641731262207031 2.1719179153442383 C14.641731262207031 2.3464088439941406 14.580326080322266 2.4929676055908203 14.457514762878418 2.6117076873779297 C14.334590911865234 2.730447769165039 14.132168769836426 2.7898168563842773 13.850020408630371 2.7898168563842773 C13.534285545349121 2.7898168563842773 13.319762229919434 2.720608711242676 13.206563949584961 2.5819664001464844 L13.206563949584961 2.5819664001464844 M14.91573715209961 5.225224018096924 C14.792925834655762 5.343963623046875 14.590389251708984 5.4033331871032715 14.308242797851562 5.4033331871032715 C13.992507934570312 5.4033331871032715 13.777984619140625 5.334012031555176 13.664786338806152 5.19548225402832 C13.551474571228027 5.056839466094971 13.49380111694336 4.906774997711182 13.491765975952148 4.744949817657471 L13.94139289855957 4.744949817657471 C13.94139289855957 4.817098617553711 13.96751594543457 4.884045124053955 14.019987106323242 4.945676803588867 C14.072346687316895 5.007308006286621 14.170503616333008 5.03806734085083 14.31423568725586 5.03806734085083 C14.535996437072754 5.03806734085083 14.646706581115723 4.9747395515441895 14.646706581115723 4.847970962524414 C14.646706581115723 4.798665523529053 14.632231712341309 4.757389545440674 14.603621482849121 4.724368572235107 A0.30216413736343384 0.30216413736343384 0.0 0 0 14.493589401245117 4.646113395690918 A0.749643087387085 0.749643087387085 0.0 0 0 14.377450942993164 4.605515480041504 C14.344542503356934 4.597599506378174 14.276691436767578 4.582446575164795 14.173783302307129 4.560168266296387 A2.9740326404571533 2.9740326404571533 0.0 0 1 13.924091339111328 4.495031356811523 A0.6796432137489319 0.6796432137489319 0.0 0 1 13.744059562683105 4.40501594543457 A0.42056456208229065 0.42056456208229065 0.0 0 1 13.606547355651855 4.242624759674072 C13.572507858276367 4.174434661865234 13.555545806884766 4.089394569396973 13.555545806884766 3.987504005432129 C13.555545806884766 3.830655097961426 13.61457633972168 3.6999282836914062 13.732637405395508 3.595097541809082 C13.850698471069336 3.49038028717041 14.0472412109375 3.4380226135253906 14.322152137756348 3.4380226135253906 C14.476512908935547 3.4380226135253906 14.60678768157959 3.463240623474121 14.712861061096191 3.5134506225585938 C14.81893539428711 3.5637731552124023 14.898321151733398 3.6319637298583984 14.951019287109375 3.7183609008789062 C15.0036039352417 3.8046445846557617 15.031084060668945 3.9008798599243164 15.033231735229492 4.007067680358887 L14.61492919921875 4.007067680358887 C14.601924896240234 3.87125301361084 14.495512008666992 3.803288459777832 14.295689582824707 3.803288459777832 C14.191424369812012 3.803288459777832 14.117466926574707 3.820476531982422 14.074042320251465 3.8548545837402344 C14.03050422668457 3.889232635498047 14.00879192352295 3.9308481216430664 14.00879192352295 3.9798145294189453 C14.00879192352295 4.051962852478027 14.040794372558594 4.102285861968994 14.104801177978516 4.130557060241699 C14.168807983398438 4.158941745758057 14.259049415588379 4.184611797332764 14.375415802001953 4.207228660583496 C14.537353515625 4.238327980041504 14.669889450073242 4.274514198303223 14.773362159729004 4.315677165985107 C14.876609802246094 4.356954097747803 14.956899642944336 4.414967060089111 15.014121055603027 4.4899420738220215 C15.071342468261719 4.564918518066406 15.100066184997559 4.663415431976318 15.100066184997559 4.785660743713379 C15.099952697753906 4.959925651550293 15.03854751586914 5.106597423553467 14.91573715209961 5.225224018096924 L14.91573715209961 5.225224018096924 M17.074424743652344 5.225224018096924 C16.951614379882812 5.343963623046875 16.749189376831055 5.4033331871032715 16.466928482055664 5.4033331871032715 C16.151195526123047 5.4033331871032715 15.936784744262695 5.334012031555176 15.82347297668457 5.19548225402832 C15.710274696350098 5.056839466094971 15.652488708496094 4.906774997711182 15.650452613830566 4.744949817657471 L16.09996795654297 4.744949817657471 C16.09996795654297 4.817098617553711 16.126201629638672 4.884045124053955 16.17856216430664 4.945676803588867 C16.230806350708008 5.007308006286621 16.329078674316406 5.03806734085083 16.47269630432129 5.03806734085083 C16.69434356689453 5.03806734085083 16.805280685424805 4.9747395515441895 16.805280685424805 4.847970962524414 C16.805280685424805 4.798665523529053 16.790918350219727 4.757389545440674 16.762083053588867 4.724368572235107 C16.733245849609375 4.691347599029541 16.696720123291016 4.665338516235352 16.652050018310547 4.646113395690918 A0.7455719709396362 0.7455719709396362 0.0 0 0 16.535911560058594 4.605515480041504 C16.503002166748047 4.597599506378174 16.435152053833008 4.582446575164795 16.332244873046875 4.560168266296387 A2.9622716903686523 2.9622716903686523 0.0 0 1 16.082551956176758 4.495031356811523 A0.6796432137489319 0.6796432137489319 0.0 0 1 15.902520179748535 4.40501594543457 A0.42056456208229065 0.42056456208229065 0.0 0 1 15.765007972717285 4.242624759674072 C15.730969429016113 4.174434661865234 15.714006423950195 4.089394569396973 15.714006423950195 3.987504005432129 C15.714006423950195 3.830655097961426 15.772923469543457 3.6999282836914062 15.891098976135254 3.595097541809082 C16.009159088134766 3.49038028717041 16.20570182800293 3.4380226135253906 16.480613708496094 3.4380226135253906 C16.634973526000977 3.4380226135253906 16.765134811401367 3.463240623474121 16.871322631835938 3.5134506225585938 C16.977510452270508 3.5637731552124023 17.056781768798828 3.6319637298583984 17.109479904174805 3.7183609008789062 C17.162063598632812 3.8046445846557617 17.189544677734375 3.9008798599243164 17.191694259643555 4.007067680358887 L16.77350425720215 4.007067680358887 C16.760498046875 3.87125301361084 16.653972625732422 3.803288459777832 16.45426368713379 3.803288459777832 C16.349998474121094 3.803288459777832 16.276153564453125 3.820476531982422 16.232728958129883 3.8548545837402344 C16.189189910888672 3.889232635498047 16.16748046875 3.9308481216430664 16.16748046875 3.9798145294189453 C16.16748046875 4.051962852478027 16.199481964111328 4.102285861968994 16.26348876953125 4.130557060241699 C16.327495574951172 4.158941745758057 16.417736053466797 4.184611797332764 16.534101486206055 4.207228660583496 C16.696041107177734 4.238327980041504 16.828462600708008 4.274514198303223 16.931936264038086 4.315677165985107 C17.03518295288086 4.356954097747803 17.11558723449707 4.414967060089111 17.17269515991211 4.4899420738220215 C17.22980308532715 4.564918518066406 17.258527755737305 4.663415431976318 17.258527755737305 4.785660743713379 C17.25864028930664 4.959925651550293 17.197235107421875 5.106597423553467 17.074424743652344 5.225224018096924 L17.074424743652344 5.225224018096924 M19.422075271606445 5.35142707824707 L17.923242568969727 5.35142707824707 L17.923242568969727 3.4950170516967773 L19.395614624023438 3.4950170516967773 L19.395614624023438 3.8602828979492188 L18.366199493408203 3.8602828979492188 L18.366199493408203 4.2291669845581055 L19.27370834350586 4.2291669845581055 L19.27370834350586 4.573625564575195 L18.366199493408203 4.573625564575195 L18.366199493408203 4.986274242401123 L19.422075271606445 4.986274242401123 L19.422075271606445 5.35142707824707 M8.003392219543457 5.35142707824707 L7.882730007171631 5.0061774253845215 L7.2047834396362305 5.0061774253845215 L7.0875139236450195 5.35142707824707 L6.62261962890625 5.35142707824707 L7.3221659660339355 3.4950170516967773 L7.768061637878418 3.4950170516967773 L8.470887184143066 5.35142707824707 L8.003392219543457 5.35142707824707 M7.301245212554932 4.687729358673096 L7.786946773529053 4.687729358673096 L7.546301364898682 3.977327346801758 L7.301245212554932 4.687729358673096" fill="black" fill-opacity="1.0" filling="0"/></svg>