<?xml version="1.0" encoding="iso-8859-1"?><svg height="200px" viewBox="0.0 0.0 24.0 24.0" width="200px" xmlns="http://www.w3.org/2000/svg"><path animation_id="0" d="M19.258163452148438 9.156512260437012 C19.233928680419922 9.213058471679688 19.209693908691406 9.625041961669922 19.201614379882812 10.0693359375 L19.17738151550293 10.877144813537598 L18.894649505615234 10.852910995483398 C17.852575302124023 10.755973815917969 16.88320541381836 10.755973815917969 16.59239387512207 10.844833374023438 C15.954225540161133 11.046785354614258 15.558399200439453 11.256814956665039 15.219118118286133 11.596094131469727 C14.774824142456055 12.040389060974121 14.613262176513672 12.638168334960938 14.758667945861816 13.308650016784668 C14.904073715209961 14.01952075958252 15.356447219848633 14.479972839355469 16.236957550048828 14.79501724243164 C16.834735870361328 15.013127326965332 18.17569923400879 15.013127326965332 18.813867568969727 14.803096771240234 C19.250083923339844 14.649613380432129 19.258163452148438 14.649613380432129 19.395490646362305 14.803096771240234 C19.51666259765625 14.940422058105469 19.62167739868164 14.956579208374023 20.16291046142578 14.940422058105469 L20.792999267578125 14.916189193725586 L20.792999267578125 9.099966049194336 L20.041736602783203 9.07573127746582 C19.4924259185791 9.059575080871582 19.28239631652832 9.083809852600098 19.258163452148438 9.156512260437012 M18.369571685791016 11.765734672546387 C18.603836059570312 11.8384370803833 18.894649505615234 11.983842849731445 19.007741928100586 12.088858604431152 C19.193538665771484 12.258498191833496 19.217771530151367 12.339279174804688 19.217771530151367 12.848197937011719 C19.217771530151367 13.357117652893066 19.193538665771484 13.437898635864258 19.007741928100586 13.607539176940918 C18.894649505615234 13.712553977966309 18.587682723999023 13.866037368774414 18.321104049682617 13.938739776611328 C17.901044845581055 14.051834106445312 17.79602813720703 14.051834106445312 17.367889404296875 13.954896926879883 C16.802425384521484 13.825647354125977 16.535846710205078 13.639850616455078 16.358129501342773 13.276336669921875 C16.19656753540039 12.953213691711426 16.19656753540039 12.751260757446289 16.34197235107422 12.468527793884277 C16.519691467285156 12.12924861907959 16.802425384521484 11.911140441894531 17.23863983154297 11.781890869140625 C17.77179527282715 11.620328903198242 17.860654830932617 11.620328903198242 18.369571685791016 11.765734672546387 M22.343994140625 9.204980850219727 C21.940088272094727 9.455401420593262 21.948165893554688 9.972399711608887 22.36014747619629 10.214741706848145 C22.723661422729492 10.424771308898926 23.30528450012207 10.400538444519043 23.636486053466797 10.142038345336914 C24.0 9.86738395690918 24.0 9.544260025024414 23.636486053466797 9.26960563659668 C23.30528450012207 9.019185066223145 22.69942855834961 8.986872673034668 22.343994140625 9.204980850219727 L22.343994140625 9.204980850219727 M2.9081125259399414 9.616962432861328 C2.8111753463745117 9.74621295928955 2.7384729385375977 9.875462532043457 2.7384729385375977 9.907773971557617 C2.7384729385375977 9.940086364746094 2.5607547760009766 10.26321029663086 2.3345680236816406 10.63480281829834 C2.116459846496582 11.00639533996582 1.9306640625 11.32951831817627 1.9306640625 11.353752136230469 C1.9306640625 11.386064529418945 1.8418054580688477 11.547626495361328 1.7287120819091797 11.72534465789795 C1.6156187057495117 11.903061866760254 1.4217443466186523 12.242341041564941 1.2924957275390625 12.468527793884277 C1.1713237762451172 12.70279312133789 0.8724336624145508 13.244025230407715 0.6381702423095703 13.664085388183594 C0.016157150268554688 14.770784378051758 1.9073486328125e-06 14.81925106048584 0.04039192199707031 14.891955375671387 C0.06462478637695312 14.924267768859863 0.40390586853027344 14.956579208374023 0.8078098297119141 14.956579208374023 L1.526759147644043 14.956579208374023 L1.7933368682861328 14.528440475463867 C1.9306640625 14.302253723144531 2.1406936645507812 13.938739776611328 2.253787040710449 13.72063159942627 L2.455739974975586 13.340961456298828 L3.8209362030029297 13.357117652893066 L5.194211006164551 13.381352424621582 L5.67081880569458 14.164926528930664 L6.139348030090332 14.956579208374023 L6.906766414642334 14.956579208374023 C7.666106224060059 14.956579208374023 7.666106224060059 14.956579208374023 7.666106224060059 14.754627227783203 C7.666106224060059 14.641534805297852 7.63379430770874 14.552675247192383 7.585325241088867 14.552675247192383 C7.54493522644043 14.552675247192383 7.504544734954834 14.512284278869629 7.504544734954834 14.463815689086914 C7.504544734954834 14.415348052978516 7.342982769012451 14.100301742553711 7.141030788421631 13.7691011428833 C6.939078330993652 13.445977210998535 6.777516841888428 13.155165672302246 6.777516841888428 13.13093090057373 C6.777516841888428 13.106698036193848 6.583642959594727 12.751260757446289 6.3413004875183105 12.347356796264648 C5.493101119995117 10.885223388671875 5.242680072784424 10.44092845916748 5.242680072784424 10.400538444519043 C5.242680072784424 10.319757461547852 4.725682258605957 9.503870010375977 4.644901275634766 9.4473237991333 C4.596433162689209 9.415010452270508 4.224841117858887 9.382699012756348 3.8128585815429688 9.382699012756348 C3.0858306884765625 9.382699012756348 3.069674491882324 9.390777587890625 2.9081125259399414 9.616962432861328 L2.9081125259399414 9.616962432861328 M3.9259510040283203 11.062941551208496 C4.079435348510742 11.15987777709961 4.612588882446289 12.201951026916504 4.556042671203613 12.290810585021973 C4.531807899475098 12.339279174804688 4.200606346130371 12.371591567993164 3.8209362030029297 12.371591567993164 C3.1504554748535156 12.371591567993164 3.1423768997192383 12.371591567993164 3.1423768997192383 12.169639587402344 C3.1423768997192383 12.056546211242676 3.231236457824707 11.83035945892334 3.3362512588500977 11.66071891784668 C3.4331884384155273 11.499157905578613 3.5462818145751953 11.281049728393555 3.578594207763672 11.176033973693848 C3.6432180404663086 10.990238189697266 3.7563114166259766 10.957925796508789 3.9259510040283203 11.062941551208496 L3.9259510040283203 11.062941551208496 M8.288118362426758 10.812520027160645 C8.255806922912598 10.83675479888916 8.231572151184082 11.50723648071289 8.231572151184082 12.282732009887695 C8.231572151184082 13.607539176940918 8.24772834777832 13.728710174560547 8.41736888885498 14.043755531311035 C8.772804260253906 14.706157684326172 9.354426383972168 14.956579208374023 10.533827781677246 14.956579208374023 C11.107372283935547 14.956579208374023 11.47088623046875 14.908110618591309 11.785931587219238 14.803096771240234 C12.222146987915039 14.649613380432129 12.230225563049316 14.649613380432129 12.3675537109375 14.803096771240234 C12.488724708557129 14.940422058105469 12.59373950958252 14.956579208374023 13.134971618652344 14.940422058105469 L13.76506233215332 14.916189193725586 L13.789297103881836 13.09861946105957 C13.805453300476074 12.09693717956543 13.789297103881836 11.15987777709961 13.76506233215332 11.014472007751465 L13.716593742370605 10.755973815917969 L12.197914123535156 10.755973815917969 L12.17367935180664 12.121170043945312 C12.149445533752441 13.462133407592773 12.149445533752441 13.486368179321289 11.947492599487305 13.647929191589355 C11.575900077819824 13.954896926879883 10.881185531616211 14.059911727905273 10.30764102935791 13.89834976196289 C10.049141883850098 13.825647354125977 9.9764404296875 13.752944946289062 9.839111328125 13.445977210998535 C9.701784133911133 13.13093090057373 9.677549362182617 12.904745101928711 9.693706512451172 11.999999046325684 C9.693706512451172 11.410299301147461 9.677549362182617 10.885223388671875 9.645237922668457 10.844833374023438 C9.588691711425781 10.747895240783691 8.376977920532227 10.723661422729492 8.288118362426758 10.812520027160645 L8.288118362426758 10.812520027160645 M22.25513458251953 10.885223388671875 C22.142040252685547 10.990238189697266 22.125885009765625 11.281049728393555 22.125885009765625 12.848197937011719 C22.125885009765625 14.205316543579102 22.150115966796875 14.722314834594727 22.230897903442383 14.827329635620117 C22.31167984008789 14.940422058105469 22.440929412841797 14.956579208374023 23.01447296142578 14.940422058105469 L23.70111083984375 14.916189193725586 L23.725343704223633 13.017838478088379 C23.733421325683594 11.975765228271484 23.725343704223633 11.03870677947998 23.70111083984375 10.933691024780273 C23.660720825195312 10.772130012512207 23.61225128173828 10.755973815917969 23.022552490234375 10.755973815917969 C22.545944213867188 10.755973815917969 22.343994140625 10.788285255432129 22.25513458251953 10.885223388671875 L22.25513458251953 10.885223388671875" fill="black" fill-opacity="1.0" filling="0"/></svg>