<?xml version="1.0" encoding="iso-8859-1"?><svg height="200px" viewBox="0.0 0.0 24.0 24.0" width="200px" xmlns="http://www.w3.org/2000/svg"><path animation_id="0" d="M0.0 0.0 L24.0 0.0 L24.0 24.0 L0.0 24.0 L0.0 0.0" fill="black" fill-opacity="1.0" filling="0"/>
<path animation_id="1" d="M2.6519336700439453 6.849654674530029 L4.192616939544678 7.710639476776123 C3.5475311279296875 8.882275581359863 3.2050046920776367 10.10956859588623 3.1102542877197266 11.447799682617188 L6.132353782653809 11.447799682617188 L6.132353782653809 2.9700546264648438 C6.7388410568237305 2.5540685653686523 7.361763000488281 2.2125377655029297 8.001245498657227 1.945465087890625 L8.001245498657227 22.05851936340332 C7.361265182495117 21.778371810913086 6.736599922180176 21.441574096679688 6.132353782653809 21.03006935119629 L6.132353782653809 12.923364639282227 L3.1214590072631836 12.923364639282227 C3.2636489868164062 14.23432731628418 3.64676570892334 15.424516677856445 4.229596138000488 16.514225006103516 L2.822760581970215 17.45925521850586 C0.8897476196289062 14.019797325134277 0.8838949203491211 10.288863182067871 2.6519336700439453 6.849654674530029 M9.135529518127441 1.5332136154174805 C11.13204288482666 0.9353170394897461 13.136027336120605 0.8951005935668945 15.177738189697266 1.4543981552124023 L15.177738189697266 3.337857246398926 C13.74438190460205 2.8756771087646484 12.310900688171387 2.7781858444213867 10.877420425415039 2.982381820678711 L10.877420425415039 11.447674751281738 L15.177738189697266 11.447674751281738 L15.177738189697266 12.923115730285645 L10.877420425415039 12.923115730285645 L10.877420425415039 21.17238426208496 C12.327834129333496 21.39513397216797 13.761190414428711 21.276473999023438 15.177738189697266 20.817033767700195 L15.177738189697266 22.547470092773438 C13.14573860168457 23.125070571899414 11.133661270141602 23.03940773010254 9.135529518127441 22.47014808654785 L9.135529518127441 1.5332136154174805 L9.135529518127441 1.5332136154174805 M16.37552261352539 1.860548973083496 C19.05883026123047 2.972296714782715 21.12469482421875 4.899333953857422 22.43952178955078 7.876112937927246 L20.838199615478516 8.660773277282715 C20.202329635620117 7.167154312133789 19.2772216796875 5.919068813323975 18.06300163269043 4.9168901443481445 L18.06300163269043 19.241859436035156 C19.411441802978516 18.13123321533203 20.434539794921875 16.69426727294922 21.0650577545166 14.863350868225098 L22.650562286376953 15.49710464477539 C21.513416290283203 18.704477310180664 19.26203155517578 20.932952880859375 16.37552261352539 22.143558502197266 L16.37552261352539 1.860548973083496 L16.37552261352539 1.860548973083496" fill="black" fill-opacity="1.0" filling="0"/></svg>