<?xml version="1.0" encoding="iso-8859-1"?><svg height="200px" viewBox="0.0 0.0 24.0 24.0" width="200px" xmlns="http://www.w3.org/2000/svg"><path animation_id="0" d="M0.0 0.0 L24.0 0.0 L24.0 24.0 L0.0 24.0 L0.0 0.0" fill="black" fill-opacity="1.0" filling="0"/>
<path animation_id="1" d="M4.791508674621582 11.326651573181152 C4.924235820770264 11.326651573181152 5.019610404968262 11.356409072875977 5.077134132385254 11.415924072265625 C5.134782314300537 11.475564956665039 5.163668155670166 11.578161239624023 5.163792610168457 11.72408676147461 C5.163792610168457 11.860798835754395 5.135031223297119 11.960780143737793 5.077009677886963 12.024030685424805 C5.019112586975098 12.087531089782715 4.923737525939941 12.119155883789062 4.790885925292969 12.119155883789062 C4.720911502838135 12.119155883789062 4.6599016189575195 12.097989082336426 4.60773229598999 12.05590534210205 L4.607234001159668 11.407458305358887 C4.660897731781006 11.353670120239258 4.722405910491943 11.326651573181152 4.791508674621582 11.326651573181152 L4.791508674621582 11.326651573181152 M4.855631351470947 12.361950874328613 C5.043640613555908 12.361950874328613 5.192056655883789 12.307415008544922 5.300628662109375 12.198593139648438 C5.409201622009277 12.089771270751953 5.46348762512207 11.934009552001953 5.46323823928833 11.732054710388184 C5.462864875793457 11.299010276794434 5.266139507293701 11.082488059997559 4.873062610626221 11.082488059997559 C4.767851829528809 11.082488059997559 4.679201126098633 11.11784839630127 4.607109546661377 11.188446044921875 L4.607109546661377 11.105522155761719 L4.31924295425415 11.105522155761719 L4.320612907409668 12.822760581970215 L4.6084794998168945 12.822760581970215 L4.608105659484863 12.307912826538086 C4.682437896728516 12.34402084350586 4.764987945556641 12.361950874328613 4.855631351470947 12.361950874328613 M6.5038909912109375 11.127436637878418 L6.381996154785156 11.37384033203125 A0.3029322326183319 0.3029322326183319 0.0 0 0 6.212662696838379 11.323165893554688 C6.145925521850586 11.323165893554688 6.086658477783203 11.353545188903809 6.034862995147705 11.414056777954102 C5.983067035675049 11.474693298339844 5.957169055938721 11.548776626586914 5.957293510437012 11.636307716369629 L5.957791328430176 12.338915824890137 L5.669924736022949 12.338915824890137 L5.668928623199463 11.105398178100586 L5.9567952156066895 11.105398178100586 L5.9569196701049805 11.2182035446167 C6.037477970123291 11.12756061553955 6.144555568695068 11.082239151000977 6.2781548500061035 11.082239151000977 C6.3763933181762695 11.082488059997559 6.451597213745117 11.097429275512695 6.5038909912109375 11.127436637878418 L6.5038909912109375 11.127436637878418 M6.880906581878662 11.4235200881958 C6.933823108673096 11.352923393249512 7.005167484283447 11.3175630569458 7.09506368637085 11.3175630569458 C7.290045738220215 11.3175630569458 7.387660980224609 11.451534271240234 7.387909889221191 11.71947956085205 C7.388034820556641 11.84996509552002 7.361763000488281 11.950570106506348 7.309219837188721 12.021166801452637 C7.256677150726318 12.091763496398926 7.185581684112549 12.127124786376953 7.0956854820251465 12.127124786376953 C6.899956703186035 12.127124786376953 6.801843166351318 11.991159439086914 6.801718235015869 11.71947956085205 C6.801469326019287 11.592729568481445 6.8278656005859375 11.493992805480957 6.880906581878662 11.4235200881958 M6.658656597137451 12.18639087677002 C6.762746810913086 12.303555488586426 6.90842342376709 12.361950874328613 7.095810413360596 12.361950874328613 C7.2793378829956055 12.361950874328613 7.423893451690674 12.30405330657959 7.529353141784668 12.18813419342041 C7.63481330871582 12.072216033935547 7.687480926513672 11.915956497192383 7.687356472015381 11.71947956085205 C7.68723201751709 11.522256851196289 7.635311126708984 11.366744041442871 7.531594753265381 11.253066062927246 C7.427877902984619 11.139389038085938 7.282325744628906 11.082612991333008 7.094939231872559 11.082612991333008 C6.916765213012695 11.082612991333008 6.773454666137695 11.141754150390625 6.664882183074951 11.260038375854492 C6.556309700012207 11.378323554992676 6.502148151397705 11.531469345092773 6.502272605895996 11.71947956085205 C6.502397060394287 11.913714408874512 6.554441928863525 12.069476127624512 6.658656597137451 12.18639087677002 L6.658656597137451 12.18639087677002 M8.1806640625 10.627654075622559 C8.22673225402832 10.627654075622559 8.266077041625977 10.643964767456055 8.298699378967285 10.676586151123047 C8.331320762634277 10.709207534790039 8.347755432128906 10.748553276062012 8.347755432128906 10.794621467590332 C8.347755432128906 10.840690612792969 8.331445693969727 10.880159378051758 8.298823356628418 10.9126558303833 C8.266201972961426 10.94527816772461 8.226856231689453 10.961713790893555 8.180788040161133 10.961713790893555 C8.134719848632812 10.961713790893555 8.095250129699707 10.945402145385742 8.062752723693848 10.9126558303833 A0.16049306094646454 0.16049306094646454 0.0 0 1 8.013696670532227 10.794621467590332 C8.013696670532227 10.748553276062012 8.029882431030273 10.709207534790039 8.062503814697266 10.676586151123047 C8.095250129699707 10.643964767456055 8.134594917297363 10.627654075622559 8.1806640625 10.627654075622559 M7.6548590660095215 12.822760581970215 L7.6547346115112305 12.56577205657959 C7.808255195617676 12.56577205657959 7.9120965003967285 12.54759407043457 7.9661335945129395 12.511237144470215 C8.020295143127441 12.474756240844727 8.047188758850098 12.409139633178711 8.047188758850098 12.314760208129883 L8.046442031860352 11.3428373336792 L7.824068069458008 11.3428373336792 L7.823943614959717 11.105647087097168 L8.334059715270996 11.105647087097168 L8.33505630493164 12.31015396118164 C8.335180282592773 12.486709594726562 8.279773712158203 12.616323471069336 8.168960571289062 12.698748588562012 C8.058146476745605 12.781423568725586 7.8866963386535645 12.822760581970215 7.6548590660095215 12.822760581970215 L7.6548590660095215 12.822760581970215 M9.13029956817627 11.32328987121582 C9.309967041015625 11.32328987121582 9.409823417663574 11.413558959960938 9.429994583129883 11.593849182128906 L8.824254989624023 11.593849182128906 C8.863849639892578 11.413434982299805 8.965947151184082 11.32328987121582 9.13029956817627 11.32328987121582 M9.71910572052002 11.65037727355957 C9.718981742858887 11.48527717590332 9.664695739746094 11.34943675994873 9.556371688842773 11.242732048034668 C9.448049545288086 11.136027336120605 9.304488182067871 11.082612991333008 9.125568389892578 11.082612991333008 C8.957355499267578 11.082612991333008 8.813297271728516 11.142875671386719 8.693145751953125 11.263400077819824 C8.573119163513184 11.384050369262695 8.513229370117188 11.541430473327637 8.51335334777832 11.735665321350098 C8.51347827911377 11.932888984680176 8.568263053894043 12.086783409118652 8.677831649780273 12.196974754333496 C8.787275314331055 12.30716609954834 8.936063766479492 12.362074851989746 9.124198913574219 12.362074851989746 C9.325407028198242 12.362074851989746 9.476561546325684 12.3209867477417 9.577912330627441 12.239058494567871 L9.466102600097656 12.018925666809082 C9.397871017456055 12.087282180786133 9.298014640808105 12.12152099609375 9.166781425476074 12.12152099609375 C9.061570167541504 12.12152099609375 8.977899551391602 12.094254493713379 8.915645599365234 12.039594650268555 C8.853389739990234 11.98505973815918 8.819522857666016 11.908734321594238 8.814168930053711 11.81049633026123 L9.695199966430664 11.81049633026123 C9.711137771606445 11.73902702331543 9.71910572052002 11.685612678527832 9.71910572052002 11.65037727355957 L9.71910572052002 11.65037727355957 M10.963706016540527 11.203387260437012 L10.84056568145752 11.41878890991211 C10.772956848144531 11.355039596557617 10.682312965393066 11.323165893554688 10.568760871887207 11.323165893554688 C10.45969009399414 11.323165893554688 10.373529434204102 11.359397888183594 10.310277938842773 11.431986808776855 C10.247028350830078 11.504575729370117 10.215401649475098 11.604930877685547 10.215526580810547 11.733051300048828 C10.215775489807129 11.991907119750977 10.339040756225586 12.121272087097168 10.585569381713867 12.121272087097168 C10.69227409362793 12.121272087097168 10.78627872467041 12.085787773132324 10.867708206176758 12.015190124511719 L10.973915100097656 12.242047309875488 C10.890244483947754 12.294092178344727 10.817157745361328 12.327211380004883 10.754528999328613 12.341032028198242 C10.691901206970215 12.354852676391602 10.618066787719727 12.361701011657715 10.532901763916016 12.361701011657715 C10.34252643585205 12.361701011657715 10.192118644714355 12.306293487548828 10.081927299499512 12.195355415344238 C9.971611976623535 12.084417343139648 9.916454315185547 11.930274963378906 9.916204452514648 11.732927322387695 C9.916080474853516 11.538691520690918 9.976094245910645 11.381685256958008 10.096620559692383 11.261905670166016 C10.217020034790039 11.142127990722656 10.381248474121094 11.082239151000977 10.58942985534668 11.082239151000977 C10.732864379882812 11.082488059997559 10.857624053955078 11.12282943725586 10.963706016540527 11.203387260437012 M11.247587203979492 11.961153030395508 L11.247090339660645 11.33698558807373 L11.104401588439941 11.33698558807373 L11.10415267944336 11.105647087097168 L11.246965408325195 11.105647087097168 L11.246716499328613 10.854511260986328 L11.53458309173584 10.748553276062012 L11.534955978393555 11.105647087097168 L11.87349796295166 11.105647087097168 L11.87362289428711 11.33698558807373 L11.534955978393555 11.33698558807373 L11.535454750061035 11.877108573913574 C11.535454750061035 11.965510368347168 11.549399375915527 12.027765274047852 11.577040672302246 12.064247131347656 C11.604681968688965 12.100728034973145 11.653116226196289 12.11890697479248 11.722219467163086 12.11890697479248 C11.791322708129883 12.11890697479248 11.855693817138672 12.10023021697998 11.915582656860352 12.062503814697266 L11.915706634521484 12.327337265014648 C11.848970413208008 12.350495338439941 11.7537202835083 12.361824989318848 11.630206108093262 12.361824989318848 C11.507314682006836 12.361824989318848 11.412812232971191 12.327337265014648 11.346822738647461 12.257735252380371 C11.280707359313965 12.188383102416992 11.247587203979492 12.08964729309082 11.247587203979492 11.961153030395508 L11.247587203979492 11.961153030395508 M12.634875297546387 11.326651573181152 C12.767602920532227 11.326651573181152 12.862977027893066 11.356409072875977 12.920625686645508 11.415924072265625 C12.978273391723633 11.475564956665039 13.007160186767578 11.578161239624023 13.007160186767578 11.72408676147461 C13.007160186767578 11.860798835754395 12.978273391723633 11.960780143737793 12.92037582397461 12.024030685424805 C12.862479209899902 12.087531089782715 12.767229080200195 12.119155883789062 12.634377479553223 12.119155883789062 C12.564403533935547 12.119155883789062 12.503268241882324 12.097989082336426 12.451223373413086 12.05590534210205 L12.450725555419922 11.407458305358887 C12.504264831542969 11.353670120239258 12.56577205657959 11.326651573181152 12.634875297546387 11.326651573181152 L12.634875297546387 11.326651573181152 M12.698997497558594 12.361950874328613 C12.887007713317871 12.361950874328613 13.035299301147461 12.307415008544922 13.143996238708496 12.198593139648438 C13.252443313598633 12.08964729309082 13.306730270385742 11.934009552001953 13.30648136138916 11.732054710388184 C13.306232452392578 11.299010276794434 13.109506607055664 11.082488059997559 12.716554641723633 11.082488059997559 C12.611218452453613 11.082488059997559 12.522442817687988 11.11784839630127 12.45047664642334 11.188446044921875 L12.450227737426758 11.105522155761719 L12.162361145019531 11.105522155761719 L12.163854598999023 12.822760581970215 L12.45172119140625 12.822760581970215 L12.451223373413086 12.307912826538086 C12.52592945098877 12.34402084350586 12.608354568481445 12.361950874328613 12.698997497558594 12.361950874328613 M13.562597274780273 12.090394020080566 L13.561351776123047 10.64608097076416 L13.84921932220459 10.576977729797363 L13.8504638671875 11.963643074035645 C13.8504638671875 12.115669250488281 13.895910263061523 12.206063270568848 13.986429214477539 12.235322952270508 C13.941978454589844 12.319990158081055 13.86602783203125 12.362074851989746 13.758575439453125 12.362074851989746 C13.627965927124023 12.361950874328613 13.562846183776855 12.27155590057373 13.562597274780273 12.090394020080566 M14.608229637145996 12.132851600646973 C14.480109214782715 12.132851600646973 14.415863037109375 12.077693939208984 14.415863037109375 11.967004776000977 C14.415613174438477 11.81809139251709 14.529167175292969 11.743634223937988 14.756521224975586 11.743634223937988 C14.781049728393555 11.743634223937988 14.818029403686523 11.748615264892578 14.867210388183594 11.758576393127441 L14.867210388183594 11.873746871948242 C14.867459297180176 12.0465669631958 14.781173706054688 12.132851600646973 14.608229637145996 12.132851600646973 L14.608229637145996 12.132851600646973 M14.96208667755127 12.31600570678711 C14.995206832885742 12.346635818481445 15.032310485839844 12.361950874328613 15.073648452758789 12.361950874328613 C15.111373901367188 12.361950874328613 15.14461898803711 12.357343673706055 15.17387866973877 12.347631454467773 C15.203012466430664 12.33816909790039 15.229534149169922 12.312644004821777 15.253439903259277 12.271058082580566 C15.187324523925781 12.228974342346191 15.154205322265625 12.125630378723145 15.154205322265625 11.961277961730957 L15.153956413269043 11.697566032409668 C15.153707504272461 11.458880424499512 15.109880447387695 11.29664421081543 15.022100448608398 11.210982322692871 C14.9345703125 11.12531852722168 14.796613693237305 11.082612991333008 14.608728408813477 11.082612991333008 C14.472017288208008 11.082612991333008 14.354106903076172 11.106393814086914 14.255120277404785 11.154081344604492 L14.31762409210205 11.377450942993164 C14.390337944030762 11.34134292602539 14.480981826782227 11.32328987121582 14.589305877685547 11.32328987121582 C14.77270793914795 11.32328987121582 14.864596366882324 11.395878791809082 14.864845275878906 11.540932655334473 A0.502521276473999 0.502521276473999 0.0 0 0 14.744942665100098 11.523626327514648 C14.547718048095703 11.523626327514648 14.395442962646484 11.5638427734375 14.288490295410156 11.644525527954102 C14.181286811828613 11.725082397460938 14.127996444702148 11.83676815032959 14.127996444702148 11.97957992553711 C14.127996444702148 12.101600646972656 14.166220664978027 12.195979118347168 14.24229621887207 12.26234245300293 C14.318371772766113 12.328705787658691 14.422710418701172 12.361824989318848 14.555562973022461 12.361824989318848 C14.6262845993042 12.361824989318848 14.693893432617188 12.348254203796387 14.75888729095459 12.3209867477417 C14.823881149291992 12.293718338012695 14.8693265914917 12.258731842041016 14.895350456237793 12.215651512145996 C14.906929016113281 12.25175952911377 14.928967475891113 12.28537654876709 14.96208667755127 12.31600570678711 L14.96208667755127 12.31600570678711 M16.43192481994629 11.203387260437012 L16.308908462524414 11.41878890991211 C16.241300582885742 11.355039596557617 16.150657653808594 11.323165893554688 16.03697967529297 11.323165893554688 C15.928033828735352 11.323165893554688 15.841748237609863 11.359397888183594 15.778497695922852 11.431986808776855 C15.71524715423584 11.504575729370117 15.68362045288086 11.604930877685547 15.683869361877441 11.733051300048828 C15.683869361877441 11.991907119750977 15.807134628295898 12.121272087097168 16.053789138793945 12.121272087097168 C16.160493850708008 12.121272087097168 16.25437355041504 12.085787773132324 16.335926055908203 12.015190124511719 L16.44200897216797 12.242047309875488 C16.358339309692383 12.294092178344727 16.285377502441406 12.327211380004883 16.22287368774414 12.341032028198242 C16.160118103027344 12.354852676391602 16.08616065979004 12.361701011657715 16.001121520996094 12.361701011657715 C15.810745239257812 12.361701011657715 15.660462379455566 12.306293487548828 15.55002212524414 12.195355415344238 C15.439830780029297 12.084417343139648 15.384672164916992 11.930274963378906 15.384424209594727 11.732927322387695 C15.384174346923828 11.538691520690918 15.444437980651855 11.381685256958008 15.564839363098145 11.261905670166016 C15.685239791870117 11.142127990722656 15.849592208862305 11.082239151000977 16.057523727416992 11.082239151000977 C16.20108413696289 11.082488059997559 16.325841903686523 11.12282943725586 16.43192481994629 11.203387260437012 M17.113988876342773 11.32328987121582 C17.293407440185547 11.32328987121582 17.393390655517578 11.413558959960938 17.413558959960938 11.593849182128906 L16.807819366455078 11.593849182128906 C16.847537994384766 11.413434982299805 16.949634552001953 11.32328987121582 17.113988876342773 11.32328987121582 M17.702795028686523 11.65037727355957 C17.702545166015625 11.48527717590332 17.64826011657715 11.34943675994873 17.540061950683594 11.242732048034668 C17.43161392211914 11.136027336120605 17.28792953491211 11.082612991333008 17.109132766723633 11.082612991333008 C16.9407958984375 11.082612991333008 16.796863555908203 11.142875671386719 16.67671012878418 11.263400077819824 C16.55655860900879 11.384050369262695 16.496795654296875 11.541430473327637 16.49704360961914 11.735665321350098 C16.49704360961914 11.932888984680176 16.551952362060547 12.086783409118652 16.661396026611328 12.196974754333496 C16.770841598510742 12.30716609954834 16.919628143310547 12.362074851989746 17.107887268066406 12.362074851989746 C17.308971405029297 12.362074851989746 17.460250854492188 12.3209867477417 17.561477661132812 12.239058494567871 L17.44966697692871 12.018925666809082 C17.38131332397461 12.087282180786133 17.281578063964844 12.12152099609375 17.150344848632812 12.12152099609375 C17.045011520385742 12.12152099609375 16.961341857910156 12.094254493713379 16.899085998535156 12.039594650268555 C16.836830139160156 11.98505973815918 16.80308723449707 11.908734321594238 16.797733306884766 11.81049633026123 L17.67876434326172 11.81049633026123 C17.6947021484375 11.73902702331543 17.702795028686523 11.685612678527832 17.702795028686523 11.65037727355957 L17.702795028686523 11.65037727355957" fill="black" fill-opacity="1.0" filling="0"/>
<path animation_id="2" d="M17.742389678955078 12.18813419342041 C17.742389678955078 12.130486488342285 17.762561798095703 12.08167839050293 17.802900314331055 12.041213035583496 C17.842992782592773 12.000996589660645 17.891925811767578 11.980950355529785 17.949573516845703 11.980950355529785 C18.007221221923828 11.980950355529785 18.0560302734375 12.000996589660645 18.096494674682617 12.041213035583496 C18.136837005615234 12.08155345916748 18.157007217407227 12.130486488342285 18.157007217407227 12.18813419342041 A0.20046068727970123 0.20046068727970123 0.0 0 1 18.096744537353516 12.335554122924805 A0.19797049462795258 0.19797049462795258 0.0 0 1 17.950071334838867 12.396564483642578 A0.1992155909538269 0.1992155909538269 0.0 0 1 17.802900314331055 12.335554122924805 A0.20369794964790344 0.20369794964790344 0.0 0 1 17.742389678955078 12.18813419342041" fill="black" fill-opacity="1.0" filling="0"/>
<path animation_id="3" d="M19.294403076171875 11.203387260437012 L19.171388626098633 11.41878890991211 C19.103778839111328 11.355039596557617 19.01313591003418 11.323165893554688 18.899459838867188 11.323165893554688 C18.790512084960938 11.323165893554688 18.704227447509766 11.359397888183594 18.640975952148438 11.431986808776855 C18.57772445678711 11.504575729370117 18.546100616455078 11.604930877685547 18.546100616455078 11.733051300048828 C18.546348571777344 11.991907119750977 18.669864654541016 12.121272087097168 18.91626739501953 12.121272087097168 C19.022972106933594 12.121272087097168 19.116853713989258 12.085787773132324 19.198406219482422 12.015190124511719 L19.304489135742188 12.242047309875488 C19.22081756591797 12.294092178344727 19.147855758666992 12.327211380004883 19.085351943969727 12.341032028198242 C19.022598266601562 12.354852676391602 18.948640823364258 12.361701011657715 18.863601684570312 12.361701011657715 C18.67322540283203 12.361701011657715 18.52294158935547 12.306293487548828 18.41250228881836 12.195355415344238 C18.302309036254883 12.084417343139648 18.24715232849121 11.930274963378906 18.246902465820312 11.732927322387695 C18.246902465820312 11.538691520690918 18.306917190551758 11.381685256958008 18.427316665649414 11.261905670166016 C18.547718048095703 11.142127990722656 18.71207046508789 11.082239151000977 18.920249938964844 11.082239151000977 C19.063562393188477 11.082488059997559 19.18832015991211 11.12282943725586 19.294403076171875 11.203387260437012 L19.294403076171875 11.203387260437012 M19.738155364990234 11.4235200881958 C19.79094886779785 11.352923393249512 19.862415313720703 11.3175630569458 19.95218849182129 11.3175630569458 C20.147171020507812 11.3175630569458 20.245037078857422 11.451534271240234 20.245037078857422 11.71947956085205 C20.245285034179688 11.84996509552002 20.219013214111328 11.950570106506348 20.16646957397461 12.021166801452637 C20.11392593383789 12.091763496398926 20.042709350585938 12.127124786376953 19.95293617248535 12.127124786376953 C19.757205963134766 12.127124786376953 19.659217834472656 11.991159439086914 19.65896987915039 11.71947956085205 C19.658720016479492 11.592729568481445 19.685239791870117 11.493992805480957 19.738155364990234 11.4235200881958 M19.515907287597656 12.18639087677002 C19.619997024536133 12.303555488586426 19.76567268371582 12.361950874328613 19.953184127807617 12.361950874328613 C20.13658905029297 12.361950874328613 20.281017303466797 12.30405330657959 20.386478424072266 12.18813419342041 C20.4919376373291 12.072216033935547 20.544605255126953 11.915956497192383 20.544605255126953 11.71947956085205 C20.544357299804688 11.522256851196289 20.49256134033203 11.366744041442871 20.38871955871582 11.253066062927246 C20.28487777709961 11.139389038085938 20.139450073242188 11.082612991333008 19.951940536499023 11.082612991333008 C19.773889541625977 11.082612991333008 19.630455017089844 11.141754150390625 19.52200698852539 11.260038375854492 C19.413558959960938 11.378323554992676 19.359272003173828 11.531469345092773 19.359272003173828 11.71947956085205 C19.359521865844727 11.913714408874512 19.41181755065918 12.069476127624512 19.515907287597656 12.18639087677002" fill="black" fill-opacity="1.0" filling="0"/>
<path animation_id="4" d="M20.631389617919922 12.18813419342041 C20.631389617919922 12.130486488342285 20.651561737060547 12.08167839050293 20.691650390625 12.041213035583496 C20.73199462890625 12.000996589660645 20.780925750732422 11.980950355529785 20.838573455810547 11.980950355529785 C20.896221160888672 11.980950355529785 20.945030212402344 12.000996589660645 20.98549461364746 12.041213035583496 C21.025836944580078 12.08155345916748 21.04600715637207 12.130486488342285 21.04600715637207 12.18813419342041 C21.04600715637207 12.245781898498535 21.026084899902344 12.294839859008789 20.98574447631836 12.335554122924805 C20.945404052734375 12.37639331817627 20.89647102355957 12.396564483642578 20.838823318481445 12.396564483642578 A0.1992155909538269 0.1992155909538269 0.0 0 1 20.6919002532959 12.335554122924805 A0.20170578360557556 0.20170578360557556 0.0 0 1 20.631389617919922 12.18813419342041" fill="black" fill-opacity="1.0" filling="0"/>
<path animation_id="5" d="M22.252256393432617 12.340036392211914 L21.96438980102539 12.340036392211914 L21.96438980102539 12.236444473266602 C21.923799514770508 12.270933151245117 21.867647171020508 12.300691604614258 21.796302795410156 12.32521915435791 C21.724834442138672 12.349747657775879 21.65934181213379 12.361950874328613 21.599328994750977 12.361950874328613 C21.31283187866211 12.361950874328613 21.169645309448242 12.20992374420166 21.169395446777344 11.90599536895752 L21.168899536132812 11.105647087097168 L21.456764221191406 11.105647087097168 L21.45726203918457 11.884081840515137 C21.45751190185547 12.04220962524414 21.52848243713379 12.121397018432617 21.670547485351562 12.121397018432617 C21.735668182373047 12.121397018432617 21.796550750732422 12.104339599609375 21.852455139160156 12.070597648620605 C21.908361434936523 12.036855697631836 21.945589065551758 11.997634887695312 21.964017868041992 11.953184127807617 L21.963268280029297 11.105647087097168 L22.251136779785156 11.105647087097168 L22.252256393432617 12.340036392211914 M23.647140502929688 12.339164733886719 L23.30498504638672 12.339164733886719 L22.941917419433594 11.780488967895508 L22.8037109375 11.926788330078125 L22.803958892822266 12.339164733886719 L22.516094207763672 12.339164733886719 L22.514848709106445 10.64608097076416 L22.80259132385254 10.576977729797363 L22.8034610748291 11.578908920288086 L23.21422004699707 11.105647087097168 L23.560855865478516 11.105647087097168 L23.144245147705078 11.573180198669434 L23.647140502929688 12.339164733886719 L23.647140502929688 12.339164733886719" fill="black" fill-opacity="1.0" filling="0"/>
<path animation_id="6" d="M0.8607358932495117 10.99744701385498 L0.8607358932495117 10.493059158325195 L0.3528604507446289 10.493059158325195 L0.3528604507446289 10.99744701385498 L0.8607358932495117 10.99744701385498 M0.8607358932495117 11.633941650390625 L0.8607358932495117 11.12893009185791 L0.3528604507446289 11.12893009185791 L0.3528604507446289 11.633941650390625 L0.8607358932495117 11.633941650390625 M0.8607358932495117 12.271928787231445 L0.8607358932495117 11.769035339355469 L0.3528604507446289 11.769035339355469 L0.3528604507446289 12.271928787231445 L0.8607358932495117 12.271928787231445 M0.8607358932495117 12.908672332763672 L0.8607358932495117 12.403038024902344 L0.3528604507446289 12.403038024902344 L0.3528604507446289 12.908672332763672 L0.8607358932495117 12.908672332763672 L0.8607358932495117 12.908672332763672 M0.8607358932495117 13.544543266296387 L0.8607358932495117 13.036792755126953 L0.3528604507446289 13.036792755126953 L0.3528604507446289 13.544543266296387 L0.8607358932495117 13.544543266296387 M1.5312204360961914 12.271928787231445 L1.1198415756225586 12.271928787231445 C0.9867401123046875 11.986055374145508 0.9938373565673828 11.76891040802002 0.9938373565673828 11.76891040802002 L1.4720783233642578 11.76891040802002 C1.4720783233642578 11.769035339355469 1.4474258422851562 11.941854476928711 1.5312204360961914 12.271928787231445 M1.5657100677490234 12.908672332763672 C1.5657100677490234 12.908672332763672 1.3536701202392578 12.800224304199219 1.1959161758422852 12.62292194366455 C1.0381622314453125 12.445371627807617 1.043142318725586 12.403038024902344 1.043142318725586 12.403038024902344 L0.9938373565673828 12.403038024902344 L0.9938373565673828 12.908672332763672 L1.5657100677490234 12.908672332763672 L1.5657100677490234 12.908672332763672 M1.5015869140625 13.544543266296387 L1.5015869140625 13.036792755126953 L0.9938373565673828 13.036792755126953 L0.9938373565673828 13.544543266296387 L1.5015869140625 13.544543266296387 M1.205876350402832 12.403038024902344 L1.5658340454101562 12.403038024902344 C1.5658340454101562 12.403038024902344 1.6594667434692383 12.70659351348877 1.812239646911621 12.87916374206543 C1.812239646911621 12.87916374206543 1.353795051574707 12.683932304382324 1.205876350402832 12.403038024902344 L1.205876350402832 12.403038024902344 M1.5312204360961914 11.128556251525879 L1.1198415756225586 11.128556251525879 C0.9867401123046875 11.41443157196045 0.9938373565673828 11.633318901062012 0.9938373565673828 11.633318901062012 L1.4720783233642578 11.633318901062012 C1.4720783233642578 11.633318901062012 1.4474258422851562 11.458880424499512 1.5312204360961914 11.128556251525879 M1.5657100677490234 10.492561340332031 C1.5657100677490234 10.492561340332031 1.3536701202392578 10.601008415222168 1.1959161758422852 10.778434753417969 C1.0381622314453125 10.95586109161377 1.043142318725586 10.997323036193848 1.043142318725586 10.997323036193848 L0.9938373565673828 10.997323036193848 L0.9938373565673828 10.492435455322266 L1.5657100677490234 10.492435455322266 L1.5657100677490234 10.492561340332031 M1.205876350402832 10.99744701385498 L1.5658340454101562 10.99744701385498 C1.5658340454101562 10.99744701385498 1.6594667434692383 10.694639205932617 1.812239646911621 10.522193908691406 C1.812239646911621 10.522193908691406 1.353795051574707 10.716428756713867 1.205876350402832 10.99744701385498 L1.205876350402832 10.99744701385498 M2.900578498840332 12.271928787231445 L3.3119592666625977 12.271928787231445 C3.4450597763061523 11.986055374145508 3.4379634857177734 11.76891040802002 3.4379634857177734 11.76891040802002 L2.959845542907715 11.76891040802002 C2.959721565246582 11.769035339355469 2.9843740463256836 11.941854476928711 2.900578498840332 12.271928787231445 L2.900578498840332 12.271928787231445 M3.225923538208008 12.403038024902344 L2.8660898208618164 12.403038024902344 C2.8660898208618164 12.403038024902344 2.772458076477051 12.70659351348877 2.619561195373535 12.87916374206543 C2.619561195373535 12.87916374206543 3.078129768371582 12.683932304382324 3.225923538208008 12.403038024902344 M2.900578498840332 11.128556251525879 L3.3119592666625977 11.128556251525879 C3.4450597763061523 11.41443157196045 3.4379634857177734 11.633318901062012 3.4379634857177734 11.633318901062012 L2.959845542907715 11.633318901062012 C2.959721565246582 11.633318901062012 2.9843740463256836 11.458880424499512 2.900578498840332 11.128556251525879 L2.900578498840332 11.128556251525879 M3.225923538208008 10.99744701385498 L2.8660898208618164 10.99744701385498 C2.8660898208618164 10.99744701385498 2.772458076477051 10.694639205932617 2.619561195373535 10.522193908691406 C2.619561195373535 10.522193908691406 3.078129768371582 10.716428756713867 3.225923538208008 10.99744701385498 M1.605179786682129 11.769035339355469 L2.152400016784668 11.769035339355469 L2.152400016784668 12.272054672241211 L1.669301986694336 12.272054672241211 C1.669301986694336 12.271928787231445 1.6101598739624023 12.045072555541992 1.605179786682129 11.769035339355469 M1.713627815246582 12.403038024902344 L2.152400016784668 12.403038024902344 L2.152400016784668 12.943161964416504 C2.152400016784668 12.943161964416504 1.8763618469238281 12.905684471130371 1.713627815246582 12.403038024902344 L1.713627815246582 12.403038024902344 M1.605179786682129 11.633318901062012 L2.152400016784668 11.633318901062012 L2.152400016784668 11.127436637878418 L1.669301986694336 11.127436637878418 C1.669301986694336 11.127436637878418 1.6101598739624023 11.357155799865723 1.605179786682129 11.633318901062012 M1.713627815246582 10.99744701385498 L2.152400016784668 10.99744701385498 L2.152400016784668 10.455331802368164 C2.152400016784668 10.455331802368164 1.8763618469238281 10.494677543640137 1.713627815246582 10.99744701385498 L1.713627815246582 10.99744701385498 M2.8377017974853516 11.769035339355469 L2.2904815673828125 11.769035339355469 L2.2904815673828125 12.272054672241211 L2.7735795974731445 12.272054672241211 C2.7735795974731445 12.271928787231445 2.8327207565307617 12.045072555541992 2.8377017974853516 11.769035339355469 M2.7292537689208984 12.403038024902344 L2.2904815673828125 12.403038024902344 L2.2904815673828125 12.943161964416504 C2.2904815673828125 12.943161964416504 2.5665197372436523 12.905684471130371 2.7292537689208984 12.403038024902344 M2.8377017974853516 11.633318901062012 L2.2904815673828125 11.633318901062012 L2.2904815673828125 11.127436637878418 L2.7735795974731445 11.127436637878418 C2.7735795974731445 11.127436637878418 2.8327207565307617 11.357155799865723 2.8377017974853516 11.633318901062012 M2.7292537689208984 10.99744701385498 L2.2904815673828125 10.99744701385498 L2.2904815673828125 10.455331802368164 C2.2904815673828125 10.455331802368164 2.5665197372436523 10.494677543640137 2.7292537689208984 10.99744701385498" fill="black" fill-opacity="1.0" filling="0"/></svg>