<?xml version="1.0" encoding="iso-8859-1"?><svg height="200px" viewBox="0.0 0.0 24.0 24.0" width="200px" xmlns="http://www.w3.org/2000/svg"><path animation_id="0" d="M20.97062110900879 23.88248062133789 L3.0032644271850586 23.88248062133789 C1.3318815231323242 23.88248062133789 0.0 22.52448272705078 0.0 20.879215240478516 L0.0 3.120783805847168 C0.0 1.4494009017944336 1.3579978942871094 0.11751937866210938 3.0032644271850586 0.11751937866210938 L20.996734619140625 0.11751937866210938 C22.66811752319336 0.11751937866210938 24.0 1.4755172729492188 24.0 3.120783805847168 L24.0 20.879215240478516 C23.97388458251953 22.52448272705078 22.64200210571289 23.88248062133789 20.97062110900879 23.88248062133789" fill="black" fill-opacity="1.0" filling="0"/>
<path animation_id="1" d="M19.01197052001953 22.420021057128906 L4.961915016174316 22.420021057128906 C3.0293798446655273 22.420021057128906 1.462458610534668 20.85310173034668 1.462458610534668 18.92056655883789 L1.462458610534668 5.079433917999268 C1.462458610534668 3.1468982696533203 3.0293798446655273 1.5799779891967773 4.961915016174316 1.5799779891967773 L19.01197052001953 1.5799779891967773 C20.944503784179688 1.5799779891967773 22.511425018310547 3.1468982696533203 22.511425018310547 5.079433917999268 L22.511425018310547 18.92056655883789 C22.511425018310547 20.85310173034668 20.944503784179688 22.420021057128906 19.01197052001953 22.420021057128906 M4.961915016174316 2.076169967651367 C3.2905330657958984 2.076169967651367 1.9586505889892578 3.4341678619384766 1.9586505889892578 5.079433917999268 L1.9586505889892578 18.92056655883789 C1.9586505889892578 20.591949462890625 3.316648483276367 21.923830032348633 4.961915016174316 21.923830032348633 L19.01197052001953 21.923830032348633 C20.683349609375 21.923830032348633 22.015235900878906 20.565834045410156 22.015235900878906 18.92056655883789 L22.015235900878906 5.079433917999268 C22.015235900878906 3.4080514907836914 20.65723419189453 2.076169967651367 19.01197052001953 2.076169967651367 L4.961915016174316 2.076169967651367" fill="black" fill-opacity="1.0" filling="0"/>
<path animation_id="2" d="M7.155603408813477 12.0 L7.155603408813477 10.198040962219238 L5.823720932006836 10.198040962219238 L5.823720932006836 9.571273803710938 L7.9129486083984375 8.631120681762695 L7.9129486083984375 7.455930233001709 L10.472251892089844 7.455930233001709 L11.281827926635742 7.011969566345215 L15.251359939575195 8.866159439086914 L16.557126998901367 7.194777011871338 L15.408052444458008 6.359086036682129 L17.758432388305664 5.889009952545166 L18.150163650512695 8.108814239501953 L17.105548858642578 7.508160591125488 L15.460283279418945 9.701849937438965 L11.360174179077148 7.664853096008301 L9.923830032348633 8.396082878112793 L9.923830032348633 7.952121734619141 L8.487485885620117 7.952121734619141 L8.487485885620117 9.048966407775879 L7.312295913696289 9.571273803710938 L7.782371520996094 9.571273803710938 L7.782371520996094 12.182807922363281 L7.155603408813477 12.182807922363281 L7.155603408813477 12.0" fill="black" fill-opacity="1.0" filling="0"/>
<path animation_id="3" d="M8.304678916931152 12.182807922363281 L8.304678916931152 9.754080772399902 L9.453754425048828 9.179543495178223 L9.453754425048828 12.182807922363281 L8.304678916931152 12.182807922363281 M10.028291702270508 12.182807922363281 L10.028291702270508 8.944504737854004 L11.203482627868652 8.396082878112793 L11.203482627868652 12.182807922363281 L10.028291702270508 12.182807922363281 M11.778018951416016 12.182807922363281 L13.005440711975098 12.182807922363281 L13.005440711975098 9.179543495178223 L11.778018951416016 8.52665901184082 L11.778018951416016 12.182807922363281 M13.501632690429688 12.182807922363281 L13.501632690429688 9.362350463867188 L14.755168914794922 9.963003158569336 L14.755168914794922 12.182807922363281 L13.501632690429688 12.182807922363281 M15.251359939575195 12.182807922363281 L15.251359939575195 10.119694709777832 L15.616974830627441 10.35473346710205 L16.400434494018555 9.362350463867188 L16.400434494018555 12.182807922363281 L15.251359939575195 12.182807922363281 M16.974971771240234 12.182807922363281 L16.974971771240234 8.52665901184082 L17.236125946044922 8.187159538269043 L18.150163650512695 8.840044021606445 L18.150163650512695 12.182807922363281 L16.974971771240234 12.182807922363281" fill="black" fill-opacity="1.0" filling="0"/>
<path animation_id="4" d="M5.196952819824219 17.484222412109375 C4.8574538230896 17.066377639770508 4.674645900726318 16.491840362548828 4.674645900726318 15.786725044250488 C4.674645900726318 15.081609725952148 4.8574538230896 14.507072448730469 5.196952819824219 14.089227676391602 C5.536452770233154 13.671381950378418 6.032643795013428 13.462458610534668 6.633296489715576 13.462458610534668 C7.103373050689697 13.462458610534668 7.495103359222412 13.593035697937012 7.8346028327941895 13.854188919067383 C8.174101829528809 14.115342140197754 8.35690975189209 14.454842567443848 8.43525505065918 14.898802757263184 L7.860718250274658 14.898802757263184 C7.782371520996094 14.611534118652344 7.651794910430908 14.376495361328125 7.416757106781006 14.219803810119629 C7.207834243774414 14.063112258911133 6.920565605163574 13.958650588989258 6.633296489715576 13.958650588989258 C6.215451240539551 13.958650588989258 5.875951766967773 14.115342140197754 5.614798545837402 14.454842567443848 C5.353644847869873 14.76822566986084 5.249183654785156 15.212186813354492 5.249183654785156 15.786725044250488 C5.249183654785156 16.335145950317383 5.379760265350342 16.77910804748535 5.614798545837402 17.118606567382812 C5.875951766967773 17.431991577148438 6.215451240539551 17.61479949951172 6.633296489715576 17.61479949951172 C6.946681022644043 17.61479949951172 7.207834243774414 17.53645133972168 7.416757106781006 17.3797607421875 C7.625679969787598 17.223068237304688 7.782371520996094 17.04026222229004 7.860718250274658 16.77910804748535 L8.43525505065918 16.77910804748535 C8.35690975189209 17.19695281982422 8.174101829528809 17.510337829589844 7.8346028327941895 17.745376586914062 C7.521218299865723 17.98041343688965 7.103373050689697 18.110990524291992 6.633296489715576 18.110990524291992 C6.006528377532959 18.110990524291992 5.536452770233154 17.902067184448242 5.196952819824219 17.484222412109375 M10.211098670959473 18.006528854370117 L9.636561393737793 18.006528854370117 L9.636561393737793 13.566920280456543 L10.184983253479004 13.566920280456543 L10.211098670959473 18.006528854370117 M14.546245574951172 18.006528854370117 C14.467900276184082 17.745376586914062 14.38955307006836 17.53645133972168 14.31120777130127 17.3797607421875 C14.232861518859863 17.223068237304688 14.180630683898926 17.014144897460938 14.076169967651367 16.752992630004883 L12.300325393676758 16.752992630004883 L11.856366157531738 18.032644271850586 L11.281827926635742 18.032644271850586 L12.927094459533691 13.593035697937012 L13.475516319274902 13.593035697937012 L15.120783805847168 18.032644271850586 L14.546245574951172 18.006528854370117 L14.546245574951172 18.006528854370117 M13.188247680664062 14.272035598754883 C13.083786010742188 14.533188819885254 13.005440711975098 14.76822566986084 12.953208923339844 14.977149963378906 C12.874863624572754 15.18607234954834 12.822632789611816 15.368879318237305 12.74428653717041 15.577802658081055 C12.66594123840332 15.786725044250488 12.587594985961914 15.995647430419922 12.509249687194824 16.282917022705078 L13.945592880249023 16.282917022705078 L13.240478515625 14.298150062561035 L13.188247680664062 14.272035598754883 M16.008705139160156 16.83133888244629 L16.583242416381836 16.83133888244629 C16.609357833862305 17.066377639770508 16.739933013916016 17.249183654785156 16.9488582611084 17.3797607421875 C17.157779693603516 17.510337829589844 17.41893196105957 17.58868408203125 17.732318878173828 17.58868408203125 C18.01958656311035 17.58868408203125 18.280738830566406 17.510337829589844 18.463546752929688 17.3797607421875 C18.64635467529297 17.223068237304688 18.750816345214844 17.066377639770508 18.750816345214844 16.83133888244629 C18.750816345214844 16.648530960083008 18.672470092773438 16.491840362548828 18.541893005371094 16.361263275146484 C18.41131591796875 16.23068618774414 18.17627716064453 16.126224517822266 17.86289405822754 16.04787826538086 L17.28835678100586 15.891186714172363 C16.896625518798828 15.786725044250488 16.583242416381836 15.630033493041992 16.400434494018555 15.447225570678711 C16.217628479003906 15.26441764831543 16.1392822265625 15.003264427185059 16.1392822265625 14.68988037109375 C16.1392822265625 14.32426643371582 16.295974731445312 14.010881423950195 16.583242416381836 13.775842666625977 C16.87051010131836 13.54080581665039 17.26224136352539 13.436344146728516 17.70620346069336 13.436344146728516 C18.124048233032227 13.436344146728516 18.489662170410156 13.54080581665039 18.776931762695312 13.775842666625977 C19.064199447631836 14.010881423950195 19.22089195251465 14.298150062561035 19.247007369995117 14.663764953613281 L18.698585510253906 14.663764953613281 C18.672470092773438 14.428726196289062 18.541893005371094 14.245919227600098 18.38520050048828 14.141458511352539 C18.202392578125 14.010881423950195 17.993471145629883 13.958650588989258 17.70620346069336 13.958650588989258 C17.41893196105957 13.958650588989258 17.183895111083984 14.036996841430664 17.001087188720703 14.167572975158691 C16.818281173706055 14.298150062561035 16.739933013916016 14.48095703125 16.739933013916016 14.715995788574219 C16.739933013916016 14.898802757263184 16.818281173706055 15.029378890991211 16.9488582611084 15.133840560913086 C17.07943344116211 15.238303184509277 17.28835678100586 15.342763900756836 17.601741790771484 15.421109199523926 L18.071815490722656 15.55168628692627 C18.541893005371094 15.656147956848145 18.855276107788086 15.81283950805664 19.064199447631836 16.02176284790039 C19.27312469482422 16.204570770263672 19.351469039916992 16.465723037719727 19.351469039916992 16.80522346496582 C19.351469039916992 17.223068237304688 19.19477653503418 17.53645133972168 18.907508850097656 17.7714900970459 C18.6202392578125 18.006528854370117 18.202392578125 18.13710594177246 17.70620346069336 18.13710594177246 C17.236125946044922 18.13710594177246 16.844396591186523 18.032644271850586 16.557126998901367 17.797605514526367 C16.191513061523438 17.53645133972168 16.034820556640625 17.223068237304688 16.008705139160156 16.83133888244629 L16.008705139160156 16.83133888244629" fill="black" fill-opacity="1.0" filling="0"/></svg>