<?xml version="1.0" encoding="iso-8859-1"?><svg height="200px" viewBox="0.0 0.0 24.0 24.0" width="200px" xmlns="http://www.w3.org/2000/svg"><path animation_id="0" d="M0.0 0.0 L24.0 0.0 L24.0 24.0 L0.0 24.0 L0.0 0.0" fill="black" fill-opacity="1.0" filling="0"/>
<path animation_id="1" d="M8.079811096191406 14.30405330657959 C9.40496826171875 14.30405330657959 10.479238510131836 13.229658126831055 10.479238510131836 11.90462589263916 C10.479238510131836 10.579468727111816 9.40496826171875 9.505199432373047 8.079811096191406 9.505199432373047 C6.7545294761657715 9.505199432373047 5.680258750915527 10.579468727111816 5.680258750915527 11.90462589263916 C5.680258750915527 13.229658126831055 6.7545294761657715 14.30405330657959 8.079811096191406 14.30405330657959 M18.843801498413086 14.30405330657959 C20.169208526611328 14.30405330657959 21.24323081970215 13.229658126831055 21.24323081970215 11.90462589263916 C21.24323081970215 10.579468727111816 20.169086456298828 9.505199432373047 18.843801498413086 9.505199432373047 C17.518646240234375 9.505199432373047 16.44437599182129 10.579468727111816 16.44437599182129 11.90462589263916 C16.444252014160156 13.229658126831055 17.518646240234375 14.30405330657959 18.843801498413086 14.30405330657959 M5.268754482269287 12.693643569946289 C5.268754482269287 13.650127410888672 4.493308067321777 14.325220108032227 3.5369482040405273 14.325220108032227 C2.5804643630981445 14.325220108032227 1.805018424987793 13.650127410888672 1.805018424987793 12.693643569946289 L1.8037729263305664 11.849841117858887 L3.3015003204345703 11.849841117858887 L3.3015003204345703 13.122455596923828 A0.2354479283094406 0.2354479283094406 0.0 1 0 3.7723960876464844 13.122455596923828 L3.7723960876464844 9.605802536010742 L5.2701239585876465 9.605802536010742 L5.268754482269287 12.693643569946289" fill="black" fill-opacity="1.0" filling="0"/>
<path animation_id="2" d="M16.791507720947266 10.335430145263672 C16.351367950439453 9.826807022094727 15.701301574707031 9.505073547363281 14.975907325744629 9.505073547363281 C13.650751113891602 9.505073547363281 12.576480865478516 10.579343795776367 12.576480865478516 11.904500961303711 C12.576480865478516 13.229658126831055 13.650875091552734 14.303929328918457 14.975907325744629 14.303929328918457 A2.394695997238159 2.394695997238159 0.0 0 0 16.791507720947266 13.473697662353516 L15.477806091308594 12.142937660217285 L14.100231170654297 12.142937660217285 A0.23862291872501373 0.23862291872501373 0.0 1 1 14.100231170654297 11.665691375732422 L15.459628105163574 11.665691375732422 L16.791507720947266 10.335430145263672 L16.791507720947266 10.335430145263672 M12.312395095825195 14.239805221557617 L12.312395095825195 9.605802536010742 L10.814542770385742 9.605802536010742 L10.814542770385742 14.239805221557617 L12.312395095825195 14.239805221557617 M22.393699645996094 13.225798606872559 C22.646331787109375 13.225798606872559 22.841934204101562 13.427130699157715 22.841934204101562 13.68860149383545 C22.841934204101562 13.95567512512207 22.646453857421875 14.157007217407227 22.393699645996094 14.157007217407227 C22.138330459594727 14.157007217407227 21.942848205566406 13.95567512512207 21.942848205566406 13.68860149383545 C21.942848205566406 13.427130699157715 22.13845443725586 13.225798606872559 22.393699645996094 13.225798606872559 L22.393699645996094 13.145490646362305 C22.094627380371094 13.145490646362305 21.843616485595703 13.380439758300781 21.843616485595703 13.688477516174316 C21.843616485595703 14.002241134643555 22.094627380371094 14.237067222595215 22.393699645996094 14.237067222595215 C22.691652297973633 14.237067222595215 22.9410457611084 14.002117156982422 22.9410457611084 13.688477516174316 C22.9410457611084 13.380314826965332 22.691526412963867 13.145490646362305 22.393699645996094 13.145490646362305 L22.393699645996094 13.225798606872559" fill="black" fill-opacity="1.0" filling="0"/>
<path animation_id="3" d="M22.279897689819336 13.451908111572266 L22.4112548828125 13.451908111572266 C22.478614807128906 13.451908111572266 22.551578521728516 13.464981079101562 22.551578521728516 13.54964828491211 C22.551578521728516 13.650626182556152 22.471145629882812 13.654983520507812 22.38348960876465 13.654983520507812 L22.279897689819336 13.654983520507812 L22.279897689819336 13.735292434692383 L22.384984970092773 13.735292434692383 L22.558799743652344 14.009587287902832 L22.66525650024414 14.009587287902832 L22.48284912109375 13.727946281433105 C22.57772445678711 13.717737197875977 22.65068817138672 13.669551849365234 22.65068817138672 13.554130554199219 C22.65068817138672 13.431612968444824 22.579219818115234 13.371723175048828 22.42719268798828 13.371723175048828 L22.1806640625 13.371723175048828 L22.1806640625 14.009587287902832 L22.279897689819336 14.009587287902832 L22.279897689819336 13.451908111572266 L22.279897689819336 13.451908111572266" fill="black" fill-opacity="1.0" filling="0"/></svg>