<?xml version="1.0" encoding="iso-8859-1"?><svg height="200px" viewBox="0.0 0.0 24.0 24.0" width="200px" xmlns="http://www.w3.org/2000/svg"><path animation_id="0" d="M0.0 0.0 L24.0 0.0 L24.0 24.0 L0.0 24.0 L0.0 0.0" fill="black" fill-opacity="1.0" filling="0"/>
<path animation_id="1" d="M2.1519012451171875 18.837451934814453 L1.997136116027832 18.837451934814453 L1.997136116027832 19.287805557250977 L2.1519012451171875 19.287805557250977 L2.1519012451171875 19.350807189941406 L1.7553386688232422 19.350807189941406 L1.7553386688232422 19.287805557250977 L1.9101037979125977 19.287805557250977 L1.9101037979125977 18.837451934814453 L1.7553386688232422 18.837451934814453 L1.7553386688232422 18.76984405517578 L2.1519012451171875 18.76984405517578 L2.1519012451171875 18.837451934814453 L2.1519012451171875 18.837451934814453 M2.40814208984375 19.031314849853516 L2.40814208984375 19.350807189941406 L2.321110725402832 19.350807189941406 L2.321110725402832 18.861732482910156 L2.40814208984375 18.861732482910156 L2.40814208984375 18.958477020263672 C2.446866035461426 18.886011123657227 2.504887580871582 18.852020263671875 2.577352523803711 18.852020263671875 C2.664383888244629 18.852020263671875 2.7126941680908203 18.910165786743164 2.7126941680908203 19.011764526367188 L2.7126941680908203 19.350807189941406 L2.6256608963012695 19.350807189941406 L2.6256608963012695 19.036170959472656 C2.6256608963012695 18.99732208251953 2.6159496307373047 18.973167419433594 2.611093521118164 18.958600997924805 C2.601506233215332 18.93942642211914 2.577352523803711 18.9345703125 2.553071975708008 18.9345703125 C2.504887580871582 18.934446334838867 2.4564523696899414 18.963455200195312 2.40814208984375 19.031314849853516 L2.40814208984375 19.031314849853516 M3.278715133666992 18.63412857055664 L3.278715133666992 19.350807189941406 L3.191682815551758 19.350807189941406 L3.191682815551758 19.263525009155273 C3.148104667663574 19.326526641845703 3.0949392318725586 19.360519409179688 3.0272045135498047 19.360519409179688 C2.9740400314331055 19.360519409179688 2.930461883544922 19.336238861083984 2.9014511108398438 19.297517776489258 C2.867584228515625 19.253938674926758 2.8531408309936523 19.20077133178711 2.8531408309936523 19.12805938720703 C2.8531408309936523 19.036170959472656 2.867584228515625 18.973167419433594 2.9063072204589844 18.924734115600586 C2.9497604370117188 18.876298904418945 2.998194694519043 18.852020263671875 3.06107234954834 18.852020263671875 C3.119093894958496 18.852020263671875 3.157815933227539 18.876298904418945 3.191682815551758 18.915021896362305 L3.191682815551758 18.63412857055664 L3.278715133666992 18.63412857055664 L3.278715133666992 18.63412857055664 M3.0513601303100586 19.287805557250977 C3.0996694564819336 19.287805557250977 3.148104667663574 19.25406265258789 3.191558837890625 19.191059112548828 L3.191558837890625 18.982879638671875 C3.147979736328125 18.939300537109375 3.109257698059082 18.915021896362305 3.070659637451172 18.915021896362305 C3.0270814895629883 18.915021896362305 3.003049850463867 18.934446334838867 2.978771209716797 18.963455200195312 C2.9546165466308594 19.007034301757812 2.9497604370117188 19.055343627929688 2.9497604370117188 19.10863494873047 C2.9497604370117188 19.229658126831055 2.978771209716797 19.287805557250977 3.0513601303100586 19.287805557250977 L3.0513601303100586 19.287805557250977 M3.825063705444336 18.861732482910156 L3.825063705444336 19.350807189941406 L3.7380313873291016 19.350807189941406 L3.7380313873291016 19.263525009155273 C3.6993093490600586 19.326526641845703 3.6412878036499023 19.360519409179688 3.5688228607177734 19.360519409179688 C3.481790542602539 19.360519409179688 3.4333572387695312 19.302371978759766 3.4333572387695312 19.20077133178711 L3.4333572387695312 18.861732482910156 L3.5205135345458984 18.861732482910156 L3.5205135345458984 19.176368713378906 C3.5205135345458984 19.215091705322266 3.5302257537841797 19.239370346069336 3.5349559783935547 19.253938674926758 C3.544668197631836 19.273113250732422 3.5688228607177734 19.27796745300293 3.602688789367676 19.27796745300293 C3.6414127349853516 19.27796745300293 3.6897220611572266 19.249082565307617 3.7380313873291016 19.181224822998047 L3.7380313873291016 18.861732482910156 L3.825063705444336 18.861732482910156 M4.197347640991211 18.852020263671875 C4.245782375335693 18.852020263671875 4.3036789894104 18.861732482910156 4.356969356536865 18.866586685180664 L4.356969356536865 18.939300537109375 A0.6366183161735535 0.6366183161735535 0.0 0 0 4.197347640991211 18.915021896362305 C4.163605690002441 18.915021896362305 4.139326572418213 18.924734115600586 4.115171432495117 18.934446334838867 C4.1006035804748535 18.939300537109375 4.09101676940918 18.958477020263672 4.09101676940918 18.982879638671875 C4.09101676940918 19.006912231445312 4.115171432495117 19.031314849853516 4.158750057220459 19.045881271362305 L4.270061492919922 19.07962417602539 C4.308784008026123 19.094192504882812 4.342526435852051 19.108510971069336 4.357093811035156 19.132915496826172 A0.10956857353448868 0.10956857353448868 0.0 0 1 4.381248950958252 19.20562744140625 C4.381248950958252 19.25406265258789 4.366681098937988 19.297517776489258 4.328083515167236 19.321672439575195 C4.2845048904418945 19.345951080322266 4.236195087432861 19.360519409179688 4.173317909240723 19.360519409179688 C4.115295886993408 19.360519409179688 4.0524187088012695 19.350807189941406 3.9943971633911133 19.336238861083984 L3.9943971633911133 19.25406265258789 C4.062005996704102 19.278093338012695 4.115295886993408 19.29764175415039 4.173317909240723 19.29764175415039 C4.212039947509766 19.29764175415039 4.236195087432861 19.28792953491211 4.260349750518799 19.273361206054688 C4.2845048904418945 19.263648986816406 4.294216632843018 19.249330520629883 4.294216632843018 19.224925994873047 C4.294216632843018 19.191184997558594 4.270061492919922 19.16678237915039 4.212039947509766 19.152462005615234 L4.115295886993408 19.118471145629883 C4.0427069664001465 19.094440460205078 4.003983974456787 19.04600715637207 4.003983974456787 18.98786163330078 C4.003983974456787 18.949012756347656 4.018552303314209 18.91029167175293 4.0524187088012695 18.886260986328125 C4.09101676940918 18.861732482910156 4.139451026916504 18.852020263671875 4.197347640991211 18.852020263671875 L4.197347640991211 18.852020263671875 M4.656789302825928 18.876298904418945 L4.656789302825928 18.764863967895508 L4.743821144104004 18.764863967895508 L4.743821144104004 18.876298904418945 L4.9614644050598145 18.876298904418945 L4.9614644050598145 18.939300537109375 L4.743821144104004 18.939300537109375 L4.743821144104004 19.249082565307617 L4.7679762840271 19.27796745300293 C4.792130947113037 19.28767967224121 4.816410541534424 19.297391891479492 4.859864711761475 19.297391891479492 L4.9710516929626465 19.28767967224121 L4.9710516929626465 19.35068130493164 L4.840565204620361 19.360393524169922 C4.7679762840271 19.360393524169922 4.714810848236084 19.35068130493164 4.690655708312988 19.32640266418457 C4.666500568389893 19.302371978759766 4.656789302825928 19.249082565307617 4.656789302825928 19.176368713378906 L4.656789302825928 18.939300537109375 L4.526178359985352 18.939300537109375 L4.526178359985352 18.876298904418945 L4.656789302825928 18.876298904418945 M5.527236461639404 18.861732482910156 L5.527236461639404 18.99720001220703 L5.464359283447266 18.99720001220703 L5.464359283447266 18.934446334838867 L5.420780658721924 18.924734115600586 L5.333748817443848 18.94876480102539 C5.309593677520752 18.963333129882812 5.2854390144348145 18.98760986328125 5.251572132110596 19.03118896484375 L5.251572132110596 19.35068130493164 L5.164539813995361 19.35068130493164 L5.164539813995361 18.86160659790039 L5.251572132110596 18.86160659790039 L5.251572132110596 18.95835304260254 C5.30000638961792 18.885887145996094 5.367615222930908 18.85189437866211 5.440204620361328 18.85189437866211 L5.527236461639404 18.861732482910156 L5.527236461639404 18.861732482910156 M5.831912040710449 18.63412857055664 L5.938243389129639 18.63412857055664 L5.938243389129639 18.745563507080078 L5.831912040710449 18.745563507080078 L5.831912040710449 18.63412857055664 M5.928656101226807 18.861732482910156 L5.928656101226807 19.350807189941406 L5.841623783111572 19.350807189941406 L5.841623783111572 18.924734115600586 L5.662703037261963 18.924734115600586 L5.662703037261963 18.861732482910156 L5.928656101226807 18.861732482910156 L5.928656101226807 18.861732482910156 M6.300940036773682 19.060199737548828 L6.533026695251465 19.060199737548828 L6.533026695251465 19.055343627929688 C6.533026695251465 18.963455200195312 6.5040154457092285 18.915021896362305 6.431550979614258 18.915021896362305 C6.387972354888916 18.915021896362305 6.3638176918029785 18.934446334838867 6.339662551879883 18.958600997924805 C6.315507888793945 18.982879638671875 6.310651779174805 19.02147674560547 6.300940036773682 19.060199737548828 M6.204320907592773 19.10863494873047 C6.204320907592773 19.036170959472656 6.228475093841553 18.973167419433594 6.267198085784912 18.924734115600586 C6.310776710510254 18.876298904418945 6.3639421463012695 18.852020263671875 6.43640661239624 18.852020263671875 C6.5041399002075195 18.852020263671875 6.552449703216553 18.866586685180664 6.581460952758789 18.910165786743164 C6.61532735824585 18.948888778686523 6.629895210266113 19.011764526367188 6.629895210266113 19.103778839111328 L6.629895210266113 19.12805938720703 L6.301064491271973 19.12805938720703 C6.310776710510254 19.23949432373047 6.3639421463012695 19.297517776489258 6.479985237121582 19.297517776489258 A0.4108821451663971 0.4108821451663971 0.0 0 0 6.639606952667236 19.263525009155273 L6.639606952667236 19.336238861083984 C6.5767292976379395 19.350807189941406 6.518707752227783 19.360519409179688 6.47039794921875 19.360519409179688 C6.383365631103516 19.360519409179688 6.315632343292236 19.336238861083984 6.267322540283203 19.297517776489258 C6.228475093841553 19.25406265258789 6.204320907592773 19.191059112548828 6.204320907592773 19.10863494873047 M6.987736225128174 18.852020263671875 C7.036045551300049 18.852020263671875 7.089335918426514 18.861732482910156 7.14735746383667 18.866586685180664 L7.14735746383667 18.939300537109375 C7.089335918426514 18.924734115600586 7.036045551300049 18.915021896362305 6.987736225128174 18.915021896362305 C6.953868865966797 18.915021896362305 6.929714202880859 18.924734115600586 6.905559539794922 18.934446334838867 C6.890992164611816 18.939300537109375 6.881404876708984 18.958477020263672 6.881404876708984 18.982879638671875 C6.881404876708984 19.006912231445312 6.905559539794922 19.031314849853516 6.944282054901123 19.045881271362305 L7.0603251457214355 19.07962417602539 C7.099047660827637 19.094192504882812 7.132914066314697 19.108510971069336 7.14735746383667 19.132915496826172 C7.161924839019775 19.156944274902344 7.171512126922607 19.181346893310547 7.171512126922607 19.20562744140625 C7.171512126922607 19.25406265258789 7.156944751739502 19.297517776489258 7.113490581512451 19.321672439575195 C7.07476806640625 19.345951080322266 7.026458263397217 19.360519409179688 6.963581085205078 19.360519409179688 C6.905559539794922 19.360519409179688 6.842682361602783 19.350807189941406 6.784660816192627 19.336238861083984 L6.784660816192627 19.25406265258789 C6.847537994384766 19.278093338012695 6.905559539794922 19.29764175415039 6.963581085205078 19.29764175415039 C7.002303600311279 19.29764175415039 7.026458263397217 19.28792953491211 7.0506134033203125 19.273361206054688 C7.07476806640625 19.263648986816406 7.084479808807373 19.249330520629883 7.084479808807373 19.224925994873047 C7.084479808807373 19.191184997558594 7.0603251457214355 19.16678237915039 7.002179145812988 19.152462005615234 L6.905559539794922 19.118471145629883 C6.83297061920166 19.094440460205078 6.794248104095459 19.04600715637207 6.794248104095459 18.98786163330078 C6.794248104095459 18.949012756347656 6.8088154792785645 18.91029167175293 6.842682361602783 18.886260986328125 C6.881279945373535 18.861732482910156 6.929714202880859 18.852020263671875 6.987736225128174 18.852020263671875 L6.987736225128174 18.852020263671875 M8.099981307983398 19.297517776489258 C8.138703346252441 19.297517776489258 8.172571182250977 19.278093338012695 8.196725845336914 19.249082565307617 C8.220880508422852 19.215091705322266 8.235447883605957 19.166656494140625 8.235447883605957 19.108510971069336 C8.235447883605957 19.045757293701172 8.220880508422852 18.997074127197266 8.196725845336914 18.963333129882812 C8.172571182250977 18.934446334838867 8.138703346252441 18.914897918701172 8.099981307983398 18.914897918701172 C8.056403160095215 18.914897918701172 8.017680168151855 18.934322357177734 7.993525505065918 18.963333129882812 C7.969370365142822 18.997074127197266 7.959783554077148 19.045757293701172 7.959783554077148 19.108510971069336 C7.959783554077148 19.166656494140625 7.96949577331543 19.2149658203125 7.993525505065918 19.249082565307617 C8.017680168151855 19.278093338012695 8.056403160095215 19.297517776489258 8.099981307983398 19.297517776489258 M7.8629150390625 19.10863494873047 C7.8629150390625 19.031314849853516 7.887070178985596 18.963455200195312 7.930523872375488 18.915021896362305 C7.969245910644531 18.876298904418945 8.027267456054688 18.852020263671875 8.099857330322266 18.852020263671875 C8.172446250915527 18.852020263671875 8.22561264038086 18.876298904418945 8.269065856933594 18.915021896362305 C8.307787895202637 18.963455200195312 8.322356224060059 19.031314849853516 8.322356224060059 19.10863494873047 C8.322356224060059 19.181346893310547 8.307787895202637 19.24920654296875 8.269065856933594 19.29764175415039 C8.22561264038086 19.33636474609375 8.172446250915527 19.360641479492188 8.099857330322266 19.360641479492188 C8.027267456054688 19.360641479492188 7.969245910644531 19.33636474609375 7.930523872375488 19.29764175415039 C7.887194633483887 19.24920654296875 7.8629150390625 19.181346893310547 7.8629150390625 19.10863494873047 L7.8629150390625 19.10863494873047 M8.912407875061035 18.643840789794922 L8.912407875061035 18.716554641723633 L8.7817964553833 18.69227409362793 C8.743074417114258 18.69227409362793 8.709207534790039 18.69713020324707 8.685052871704102 18.721160888671875 C8.670485496520996 18.740585327148438 8.660897254943848 18.76984405517578 8.660897254943848 18.813297271728516 L8.660897254943848 18.876298904418945 L8.897839546203613 18.876298904418945 L8.897839546203613 18.939300537109375 L8.660897254943848 18.939300537109375 L8.660897254943848 19.350807189941406 L8.57386589050293 19.350807189941406 L8.57386589050293 18.939300537109375 L8.43852424621582 18.939300537109375 L8.43852424621582 18.876298904418945 L8.57386589050293 18.876298904418945 L8.57386589050293 18.818153381347656 C8.57386589050293 18.745439529418945 8.588308334350586 18.697004318237305 8.622175216674805 18.672725677490234 C8.656042098999023 18.643840789794922 8.704351425170898 18.624290466308594 8.77694034576416 18.624290466308594 C8.825250625610352 18.62441635131836 8.873684883117676 18.63412857055664 8.912407875061035 18.643840789794922 L8.912407875061035 18.643840789794922 M9.676399230957031 18.876298904418945 L9.676399230957031 18.764863967895508 L9.768287658691406 18.764863967895508 L9.768287658691406 18.876298904418945 L9.985931396484375 18.876298904418945 L9.985931396484375 18.939300537109375 L9.768287658691406 18.939300537109375 L9.768287658691406 19.249082565307617 L9.792442321777344 19.27796745300293 C9.816597938537598 19.28767967224121 9.840877532958984 19.297391891479492 9.879474639892578 19.297391891479492 L9.99066162109375 19.28767967224121 L9.99066162109375 19.35068130493164 L9.865032196044922 19.360393524169922 C9.792442321777344 19.360393524169922 9.734420776367188 19.35068130493164 9.71026611328125 19.32640266418457 C9.686111450195312 19.302371978759766 9.676399230957031 19.249082565307617 9.676399230957031 19.176368713378906 L9.676399230957031 18.939300537109375 L9.550644874572754 18.939300537109375 L9.550644874572754 18.876298904418945 L9.676399230957031 18.876298904418945 M10.218016624450684 18.958600997924805 C10.256738662719727 18.886137008666992 10.31463623046875 18.852144241333008 10.387226104736328 18.852144241333008 C10.474257469177246 18.852144241333008 10.522567749023438 18.91029167175293 10.522567749023438 19.011890411376953 L10.522567749023438 19.350933074951172 L10.435535430908203 19.350933074951172 L10.435535430908203 19.03629493713379 C10.435535430908203 18.997447967529297 10.425823211669922 18.97329330444336 10.420967102050781 18.958724975585938 C10.4112548828125 18.939552307128906 10.387101173400879 18.934696197509766 10.362946510314941 18.934696197509766 C10.314512252807617 18.934696197509766 10.266201972961426 18.963581085205078 10.21789264678955 19.03143882751465 L10.21789264678955 19.350933074951172 L10.130859375 19.350933074951172 L10.130859375 18.634252548217773 L10.21789264678955 18.634252548217773 L10.21789264678955 18.958600997924805 L10.218016624450684 18.958600997924805 M10.764490127563477 19.060199737548828 L11.001432418823242 19.060199737548828 L11.001432418823242 19.055343627929688 C11.001432418823242 18.963455200195312 10.967565536499023 18.915021896362305 10.895100593566895 18.915021896362305 C10.856378555297852 18.915021896362305 10.832223892211914 18.934446334838867 10.80806827545166 18.958600997924805 C10.783788681030273 18.982879638671875 10.774201393127441 19.02147674560547 10.764490127563477 19.060199737548828 L10.764490127563477 19.060199737548828 M10.667745590209961 19.10863494873047 C10.667745590209961 19.036170959472656 10.692025184631348 18.973167419433594 10.735479354858398 18.924734115600586 C10.774201393127441 18.876298904418945 10.832223892211914 18.852020263671875 10.904687881469727 18.852020263671875 C10.967565536499023 18.852020263671875 11.015999794006348 18.866586685180664 11.049866676330566 18.910165786743164 C11.078877449035645 18.948888778686523 11.098176002502441 19.011764526367188 11.098176002502441 19.103778839111328 L11.098176002502441 19.12805938720703 L10.764490127563477 19.12805938720703 C10.774201393127441 19.23949432373047 10.832223892211914 19.297517776489258 10.94340991973877 19.297517776489258 C10.991720199584961 19.297517776489258 11.049866676330566 19.287805557250977 11.103032112121582 19.263525009155273 L11.103032112121582 19.336238861083984 C11.040154457092285 19.350807189941406 10.982133865356445 19.360519409179688 10.933823585510254 19.360519409179688 C10.846790313720703 19.360519409179688 10.783913612365723 19.336238861083984 10.735603332519531 19.297517776489258 C10.692025184631348 19.25406265258789 10.667745590209961 19.191059112548828 10.667745590209961 19.10863494873047 L10.667745590209961 19.10863494873047 M12.239432334899902 18.866586685180664 A0.4108821451663971 0.4108821451663971 0.0 0 0 12.070099830627441 18.827865600585938 C12.01693344116211 18.827865600585938 11.968624114990234 18.85189437866211 11.925045013427734 18.8906192779541 C11.886322021484375 18.934446334838867 11.871879577636719 18.98760986328125 11.871879577636719 19.060075759887695 C11.871879577636719 19.1279354095459 11.896034240722656 19.181224822998047 11.9347562789917 19.229534149169922 C11.973479270935059 19.273113250732422 12.031500816345215 19.297391891479492 12.103965759277344 19.297391891479492 C12.142688751220703 19.297391891479492 12.190998077392578 19.28767967224121 12.249143600463867 19.26340103149414 L12.249143600463867 19.33611488342285 A0.42233705520629883 0.42233705520629883 0.0 0 1 12.079935073852539 19.369855880737305 C11.992778778076172 19.369855880737305 11.910602569580078 19.33611488342285 11.852581024169922 19.27796745300293 C11.79941463470459 19.22467803955078 11.775135040283203 19.15221405029297 11.775135040283203 19.060075759887695 C11.775135040283203 18.973045349121094 11.799290657043457 18.90032958984375 11.852581024169922 18.84218406677246 C11.910602569580078 18.788894653320312 11.98306655883789 18.755151748657227 12.070223808288574 18.755151748657227 C12.128369331359863 18.755151748657227 12.186266899108887 18.764863967895508 12.239557266235352 18.788894653320312 L12.239557266235352 18.866586685180664 L12.239432334899902 18.866586685180664 L12.239432334899902 18.866586685180664 M12.563282012939453 19.297517776489258 C12.602005004882812 19.297517776489258 12.635746955871582 19.278093338012695 12.660026550292969 19.249082565307617 C12.684057235717773 19.215091705322266 12.698748588562012 19.166656494140625 12.698748588562012 19.108510971069336 C12.698748588562012 19.045757293701172 12.684181213378906 18.997074127197266 12.660026550292969 18.963333129882812 C12.635746955871582 18.934446334838867 12.601880073547363 18.914897918701172 12.563282012939453 18.914897918701172 C12.52468490600586 18.914897918701172 12.48110580444336 18.934322357177734 12.456950187683105 18.963333129882812 C12.432671546936035 18.997074127197266 12.427816390991211 19.045757293701172 12.427816390991211 19.108510971069336 C12.427816390991211 19.166656494140625 12.432671546936035 19.2149658203125 12.456950187683105 19.249082565307617 C12.48110580444336 19.278093338012695 12.52468490600586 19.297517776489258 12.563282012939453 19.297517776489258 M12.331320762634277 19.10863494873047 C12.331320762634277 19.031314849853516 12.355351448059082 18.963455200195312 12.394073486328125 18.915021896362305 C12.432795524597168 18.876298904418945 12.49081802368164 18.852020263671875 12.563282012939453 18.852020263671875 C12.635746955871582 18.852020263671875 12.693892478942871 18.876298904418945 12.732491493225098 18.915021896362305 C12.77121353149414 18.963455200195312 12.790637016296387 19.031314849853516 12.790637016296387 19.10863494873047 C12.790637016296387 19.181346893310547 12.77121353149414 19.24920654296875 12.732491493225098 19.29764175415039 C12.693768501281738 19.33636474609375 12.635746955871582 19.360641479492188 12.563282012939453 19.360641479492188 C12.49081802368164 19.360641479492188 12.432671546936035 19.33636474609375 12.394073486328125 19.29764175415039 C12.355351448059082 19.24920654296875 12.331320762634277 19.181346893310547 12.331320762634277 19.10863494873047 M13.119467735290527 18.852020263671875 C13.182469367980957 18.852020263671875 13.225923538208008 18.861732482910156 13.250078201293945 18.886011123657227 C13.27410888671875 18.91004180908203 13.288800239562988 18.958477020263672 13.288800239562988 19.011764526367188 L13.288800239562988 19.224803924560547 C13.288800239562988 19.249082565307617 13.288800239562988 19.273237228393555 13.29851245880127 19.278093338012695 L13.337234497070312 19.297517776489258 L13.361265182495117 19.297517776489258 L13.370977401733398 19.345951080322266 C13.346946716308594 19.350807189941406 13.322542190551758 19.360519409179688 13.30336856842041 19.360519409179688 A0.09275975823402405 0.09275975823402405 0.0 0 1 13.216336250305176 19.297517776489258 C13.15818977355957 19.336238861083984 13.109880447387695 19.360519409179688 13.056838989257812 19.360519409179688 A0.19672539830207825 0.19672539830207825 0.0 0 1 12.940546989440918 19.321672439575195 A0.13571561872959137 0.13571561872959137 0.0 0 1 12.901824951171875 19.224925994873047 C12.901824951171875 19.176494598388672 12.926103591918945 19.133039474487305 12.964826583862305 19.103778839111328 C13.008403778076172 19.070035934448242 13.071157455444336 19.055343627929688 13.143871307373047 19.055343627929688 L13.201767921447754 19.055343627929688 L13.201767921447754 19.011764526367188 A0.1195293515920639 0.1195293515920639 0.0 0 0 13.17773723602295 18.939300537109375 A0.11890680342912674 0.11890680342912674 0.0 0 0 13.105024337768555 18.915021896362305 C13.047127723693848 18.915021896362305 12.998693466186523 18.934446334838867 12.94067096710205 18.958600997924805 L12.94067096710205 18.886137008666992 C13.008403778076172 18.861732482910156 13.061321258544922 18.852020263671875 13.119467735290527 18.852020263671875 L13.119467735290527 18.852020263671875 M13.177613258361816 19.10863494873047 C13.056714057922363 19.10863494873047 12.988856315612793 19.142627716064453 12.988856315612793 19.20562744140625 C12.988856315612793 19.229658126831055 12.998568534851074 19.25406265258789 13.01313591003418 19.273237228393555 C13.032310485839844 19.278093338012695 13.056714057922363 19.287805557250977 13.080744743347168 19.287805557250977 C13.119467735290527 19.287805557250977 13.158065795898438 19.273237228393555 13.201643943786621 19.239370346069336 L13.201643943786621 19.108510971069336 L13.177613258361816 19.108510971069336 L13.177613258361816 19.10863494873047 M13.68536376953125 18.852020263671875 C13.73379898071289 18.852020263671875 13.786714553833008 18.861732482910156 13.844861030578613 18.866586685180664 L13.844861030578613 18.939300537109375 C13.786714553833008 18.924734115600586 13.733674049377441 18.915021896362305 13.68536376953125 18.915021896362305 C13.65162181854248 18.915021896362305 13.627218246459961 18.924734115600586 13.603187561035156 18.934446334838867 C13.58862018585205 18.939300537109375 13.57890796661377 18.958477020263672 13.57890796661377 18.982879638671875 C13.57890796661377 19.006912231445312 13.603187561035156 19.031314849853516 13.641910552978516 19.045881271362305 L13.757953643798828 19.07962417602539 C13.796675682067871 19.094192504882812 13.830418586730957 19.108510971069336 13.844985961914062 19.132915496826172 C13.859553337097168 19.156944274902344 13.86901569366455 19.181346893310547 13.86901569366455 19.20562744140625 C13.86901569366455 19.25406265258789 13.854697227478027 19.297517776489258 13.811119079589844 19.321672439575195 C13.772396087646484 19.345951080322266 13.72408676147461 19.360519409179688 13.66108512878418 19.360519409179688 A0.7582643628120422 0.7582643628120422 0.0 0 1 13.482039451599121 19.336238861083984 L13.482039451599121 19.25406265258789 C13.545042037963867 19.278093338012695 13.603187561035156 19.29764175415039 13.66108512878418 19.29764175415039 C13.699807167053223 19.29764175415039 13.72408676147461 19.28792953491211 13.748117446899414 19.273361206054688 C13.772396087646484 19.263648986816406 13.781859397888184 19.249330520629883 13.781859397888184 19.224925994873047 C13.781859397888184 19.191184997558594 13.757828712463379 19.16678237915039 13.699682235717773 19.152462005615234 L13.603187561035156 19.118471145629883 C13.530473709106445 19.094440460205078 13.491751670837402 19.04600715637207 13.491751670837402 18.98786163330078 C13.491751670837402 18.949012756347656 13.506319046020508 18.91029167175293 13.540185928344727 18.886260986328125 C13.57890796661377 18.861732482910156 13.627218246459961 18.852020263671875 13.68536376953125 18.852020263671875 M14.144804954528809 18.876298904418945 L14.144804954528809 18.764863967895508 L14.231837272644043 18.764863967895508 L14.231837272644043 18.876298904418945 L14.449481010437012 18.876298904418945 L14.449481010437012 18.939300537109375 L14.231837272644043 18.939300537109375 L14.231837272644043 19.249082565307617 L14.255867958068848 19.27796745300293 C14.280147552490234 19.28767967224121 14.304302215576172 19.297391891479492 14.342900276184082 19.297391891479492 L14.458943367004395 19.28767967224121 L14.458943367004395 19.35068130493164 L14.328581809997559 19.360393524169922 C14.255867958068848 19.360393524169922 14.197970390319824 19.35068130493164 14.173690795898438 19.32640266418457 C14.149660110473633 19.302371978759766 14.144804954528809 19.249082565307617 14.144804954528809 19.176368713378906 L14.144804954528809 18.939300537109375 L14.01419448852539 18.939300537109375 L14.01419448852539 18.876298904418945 L14.144804954528809 18.876298904418945 M14.7974853515625 18.852020263671875 C14.86048698425293 18.852020263671875 14.899085998535156 18.861732482910156 14.923240661621094 18.886011123657227 C14.947519302368164 18.91004180908203 14.966818809509277 18.958477020263672 14.966818809509277 19.011764526367188 L14.966818809509277 19.224803924560547 C14.966818809509277 19.249082565307617 14.966818809509277 19.273237228393555 14.971674919128418 19.278093338012695 L15.015253067016602 19.297517776489258 L15.039531707763672 19.297517776489258 L15.044387817382812 19.345951080322266 C15.020109176635742 19.350807189941406 14.995954513549805 19.360519409179688 14.981386184692383 19.360519409179688 A0.09300877898931503 0.09300877898931503 0.0 0 1 14.894353866577148 19.297517776489258 C14.836207389831543 19.336238861083984 14.7880220413208 19.360519409179688 14.730001449584961 19.360519409179688 A0.19299009442329407 0.19299009442329407 0.0 0 1 14.618814468383789 19.321672439575195 A0.13471955060958862 0.13471955060958862 0.0 0 1 14.57996654510498 19.224925994873047 C14.57996654510498 19.176494598388672 14.604246139526367 19.133039474487305 14.642969131469727 19.103778839111328 C14.68169116973877 19.070035934448242 14.74942398071289 19.055343627929688 14.822013854980469 19.055343627929688 L14.875055313110352 19.055343627929688 L14.875055313110352 19.011764526367188 C14.875055313110352 18.982879638671875 14.870447158813477 18.958477020263672 14.851024627685547 18.939300537109375 C14.836456298828125 18.924734115600586 14.812301635742188 18.915021896362305 14.778559684753418 18.915021896362305 C14.725269317626953 18.915021896362305 14.676959991455078 18.934446334838867 14.619062423706055 18.958600997924805 L14.619062423706055 18.886137008666992 A0.47936251759529114 0.47936251759529114 0.0 0 1 14.7974853515625 18.852020263671875 L14.7974853515625 18.852020263671875 M14.850650787353516 19.10863494873047 C14.729751586914062 19.10863494873047 14.666749954223633 19.142627716064453 14.666749954223633 19.20562744140625 C14.666749954223633 19.229658126831055 14.676462173461914 19.25406265258789 14.691028594970703 19.273237228393555 C14.705596923828125 19.278093338012695 14.729751586914062 19.287805557250977 14.753782272338867 19.287805557250977 C14.797361373901367 19.287805557250977 14.835958480834961 19.273237228393555 14.87468147277832 19.239370346069336 L14.87468147277832 19.108510971069336 L14.850650787353516 19.108510971069336 L14.850650787353516 19.10863494873047 M15.42613410949707 18.63412857055664 L15.42613410949707 19.350807189941406 L15.334495544433594 19.350807189941406 L15.334495544433594 18.70684242248535 L15.150594711303711 18.70684242248535 L15.150594711303711 18.63412857055664 L15.42613410949707 18.63412857055664 L15.42613410949707 18.63412857055664 M16.68355941772461 18.837451934814453 L16.374027252197266 18.837451934814453 L16.374027252197266 19.011764526367188 L16.635250091552734 19.011764526367188 L16.635250091552734 19.07962417602539 L16.374027252197266 19.07962417602539 L16.374027252197266 19.287805557250977 L16.698001861572266 19.287805557250977 L16.698001861572266 19.350807189941406 L16.28699493408203 19.350807189941406 L16.28699493408203 18.76984405517578 L16.68368148803711 18.76984405517578 L16.68368148803711 18.837451934814453 L16.68355941772461 18.837451934814453 L16.68355941772461 18.837451934814453 M17.24435043334961 18.886137008666992 C17.25406265258789 18.910165786743164 17.263774871826172 18.93942642211914 17.263774871826172 18.987735748291016 L17.263774871826172 19.350807189941406 L17.181598663330078 19.350807189941406 L17.181598663330078 18.939300537109375 C17.171886444091797 18.934446334838867 17.167030334472656 18.924734115600586 17.157318115234375 18.924734115600586 C17.133289337158203 18.924734115600586 17.09942054748535 18.963455200195312 17.07053565979004 19.036170959472656 L17.07053565979004 19.350807189941406 L16.988359451293945 19.350807189941406 L16.988359451293945 19.011764526367188 C16.988359451293945 18.982879638671875 16.988359451293945 18.958477020263672 16.978647232055664 18.939300537109375 C16.973791122436523 18.934446334838867 16.964078903198242 18.924734115600586 16.954368591308594 18.924734115600586 C16.949512481689453 18.924734115600586 16.930335998535156 18.934446334838867 16.915645599365234 18.958477020263672 A0.19199402630329132 0.19199402630329132 0.0 0 0 16.867210388183594 19.03604507446289 L16.867210388183594 19.35068130493164 L16.7850341796875 19.35068130493164 L16.7850341796875 18.86160659790039 L16.867210388183594 18.86160659790039 L16.867210388183594 18.95835304260254 C16.905933380126953 18.885887145996094 16.939924240112305 18.85189437866211 16.978647232055664 18.85189437866211 C17.022226333618164 18.85189437866211 17.051111221313477 18.885887145996094 17.060823440551758 18.95835304260254 L17.07053565979004 18.95835304260254 C17.094566345214844 18.885887145996094 17.133289337158203 18.85189437866211 17.171886444091797 18.85189437866211 C17.205753326416016 18.852020263671875 17.230031967163086 18.861732482910156 17.24435043334961 18.886137008666992 L17.24435043334961 18.886137008666992 M17.47170639038086 18.861732482910156 L17.47170639038086 18.958477020263672 C17.510427474975586 18.886011123657227 17.568449020385742 18.852020263671875 17.631202697753906 18.852020263671875 C17.689350128173828 18.852020263671875 17.727947235107422 18.876298904418945 17.76181411743164 18.915021896362305 C17.795555114746094 18.958600997924805 17.81024742126465 19.02147674560547 17.81024742126465 19.094192504882812 C17.81024742126465 19.176368713378906 17.795679092407227 19.239370346069336 17.75210189819336 19.287805557250977 C17.71337890625 19.336238861083984 17.665069580078125 19.360519409179688 17.6071720123291 19.360519409179688 C17.55388069152832 19.360519409179688 17.510427474975586 19.336238861083984 17.47170639038086 19.297517776489258 L17.47170639038086 19.52997589111328 L17.384674072265625 19.52997589111328 L17.384674072265625 18.861732482910156 L17.47170639038086 18.861732482910156 L17.47170639038086 18.861732482910156 M17.47170639038086 19.229658126831055 C17.510427474975586 19.273237228393555 17.55388069152832 19.297517776489258 17.59260368347168 19.297517776489258 C17.63132667541504 19.297517776489258 17.665069580078125 19.278093338012695 17.689350128173828 19.249082565307617 C17.71337890625 19.205501556396484 17.72309112548828 19.156944274902344 17.72309112548828 19.103654861450195 C17.72309112548828 18.982757568359375 17.689350128173828 18.924610137939453 17.61676025390625 18.924610137939453 C17.558612823486328 18.924610137939453 17.510303497314453 18.95835304260254 17.471580505371094 19.02135467529297 L17.471580505371094 19.229658126831055 L17.47170639038086 19.229658126831055 L17.47170639038086 19.229658126831055 M18.11006736755371 18.63412857055664 L18.21141815185547 18.63412857055664 L18.21141815185547 18.745563507080078 L18.11006736755371 18.745563507080078 L18.11006736755371 18.63412857055664 M18.20693588256836 18.861732482910156 L18.20693588256836 19.350807189941406 L18.115047454833984 19.350807189941406 L18.115047454833984 18.924734115600586 L17.940982818603516 18.924734115600586 L17.940982818603516 18.861732482910156 L18.20693588256836 18.861732482910156 M18.922618865966797 18.861732482910156 L18.922618865966797 18.99720001220703 L18.859615325927734 18.99720001220703 L18.859615325927734 18.934446334838867 L18.816036224365234 18.924734115600586 L18.72900390625 18.94876480102539 C18.704975128173828 18.963333129882812 18.680570602416992 18.98760986328125 18.646827697753906 19.03118896484375 L18.646827697753906 19.35068130493164 L18.559795379638672 19.35068130493164 L18.559795379638672 18.86160659790039 L18.646827697753906 18.86160659790039 L18.646827697753906 18.95835304260254 C18.695262908935547 18.885887145996094 18.76287078857422 18.85189437866211 18.83558464050293 18.85189437866211 L18.922618865966797 18.861732482910156 L18.922618865966797 18.861732482910156 M19.140012741088867 19.060199737548828 L19.372222900390625 19.060199737548828 L19.372222900390625 19.055343627929688 C19.372222900390625 18.963455200195312 19.34333610534668 18.915021896362305 19.27062225341797 18.915021896362305 C19.227293014526367 18.915021896362305 19.203014373779297 18.934446334838867 19.17898178100586 18.958600997924805 C19.154579162597656 18.982879638671875 19.149723052978516 19.02147674560547 19.140012741088867 19.060199737548828 L19.140012741088867 19.060199737548828 M19.043392181396484 19.10863494873047 C19.043392181396484 19.036170959472656 19.06742286682129 18.973167419433594 19.10614585876465 18.924734115600586 C19.149723052978516 18.876298904418945 19.20288848876953 18.852020263671875 19.275352478027344 18.852020263671875 C19.343210220336914 18.852020263671875 19.391645431518555 18.866586685180664 19.4205322265625 18.910165786743164 C19.454273223876953 18.948888778686523 19.46896743774414 19.011764526367188 19.46896743774414 19.103778839111328 L19.46896743774414 19.12805938720703 L19.1398868560791 19.12805938720703 C19.149599075317383 19.23949432373047 19.20288848876953 19.297517776489258 19.318931579589844 19.297517776489258 C19.367366790771484 19.297517776489258 19.4205322265625 19.287805557250977 19.47842788696289 19.263525009155273 L19.47842788696289 19.336238861083984 C19.41567611694336 19.350807189941406 19.35753059387207 19.360519409179688 19.30946922302246 19.360519409179688 C19.222436904907227 19.360519409179688 19.154579162597656 19.336238861083984 19.10614585876465 19.297517776489258 C19.067546844482422 19.25406265258789 19.043392181396484 19.191059112548828 19.043392181396484 19.10863494873047 M20.566768646240234 18.837451934814453 L20.41187858581543 18.837451934814453 L20.41187858581543 19.287805557250977 L20.566768646240234 19.287805557250977 L20.566768646240234 19.350807189941406 L20.170082092285156 19.350807189941406 L20.170082092285156 19.287805557250977 L20.324722290039062 19.287805557250977 L20.324722290039062 18.837451934814453 L20.170082092285156 18.837451934814453 L20.170082092285156 18.76984405517578 L20.566768646240234 18.76984405517578 L20.566768646240234 18.837451934814453 M20.823009490966797 19.031314849853516 L20.823009490966797 19.350807189941406 L20.735977172851562 19.350807189941406 L20.735977172851562 18.861732482910156 L20.823009490966797 18.861732482910156 L20.823009490966797 18.958477020263672 C20.866588592529297 18.886011123657227 20.919506072998047 18.852020263671875 20.992218017578125 18.852020263671875 C21.083858489990234 18.852020263671875 21.132291793823242 18.910165786743164 21.132291793823242 19.011764526367188 L21.132291793823242 19.350807189941406 L21.040401458740234 19.350807189941406 L21.040401458740234 19.036170959472656 C21.040401458740234 18.99732208251953 21.035797119140625 18.973167419433594 21.026084899902344 18.958600997924805 C21.016372680664062 18.93942642211914 20.99234390258789 18.9345703125 20.967941284179688 18.9345703125 C20.91963005065918 18.934446334838867 20.871444702148438 18.963455200195312 20.823009490966797 19.031314849853516 M21.56770133972168 19.297517776489258 C21.60642433166504 19.297517776489258 21.654735565185547 19.287805557250977 21.712879180908203 19.263525009155273 L21.712879180908203 19.336238861083984 C21.654735565185547 19.350807189941406 21.60642433166504 19.360519409179688 21.548526763916016 19.360519409179688 C21.461246490478516 19.360519409179688 21.398494720458984 19.336238861083984 21.354915618896484 19.297517776489258 C21.306480407714844 19.253938674926758 21.28244972229004 19.191059112548828 21.28244972229004 19.108510971069336 C21.28244972229004 19.03118896484375 21.306480407714844 18.963333129882812 21.354915618896484 18.914897918701172 C21.398494720458984 18.876174926757812 21.461246490478516 18.85189437866211 21.543672561645508 18.85189437866211 L21.703170776367188 18.876174926757812 L21.703170776367188 18.948640823364258 A0.41175371408462524 0.41175371408462524 0.0 0 0 21.548526763916016 18.914897918701172 C21.4952392578125 18.914897918701172 21.4517822265625 18.934322357177734 21.427379608154297 18.963333129882812 C21.398494720458984 19.006912231445312 21.37894630432129 19.055221557617188 21.37894630432129 19.108510971069336 C21.37894630432129 19.166656494140625 21.39836883544922 19.2149658203125 21.427379608154297 19.249082565307617 C21.461122512817383 19.278093338012695 21.50955581665039 19.297517776489258 21.56770133972168 19.297517776489258 M21.97858428955078 19.215091705322266 L22.114051818847656 19.215091705322266 L22.114051818847656 19.350807189941406 L21.97858428955078 19.350807189941406 L21.97858428955078 19.215091705322266 M11.9347562789917 15.428998947143555 C11.668804168701172 15.428998947143555 11.475440979003906 15.559609413146973 11.354416847229004 15.825936317443848 C11.267385482788086 16.029508590698242 11.219075202941895 16.271432876586914 11.219075202941895 16.56689453125 C11.219075202941895 17.239744186401367 11.4172945022583 17.578784942626953 11.823569297790527 17.578784942626953 C12.113801956176758 17.578784942626953 12.384611129760742 17.399614334106445 12.645584106445312 17.036542892456055 L12.645584106445312 15.816473007202148 C12.403785705566406 15.559609413146973 12.16696834564209 15.428998947143555 11.9347562789917 15.428998947143555 L11.9347562789917 15.428998947143555 M13.15818977355957 13.80700969696045 L13.15818977355957 17.9564208984375 L12.645584106445312 17.9564208984375 L12.645584106445312 17.423892974853516 C12.394073486328125 17.820831298828125 12.079935073852539 18.019424438476562 11.707527160644531 18.019424438476562 C11.344829559326172 18.019424438476562 11.078877449035645 17.869140625 10.895100593566895 17.569072723388672 C10.740335464477539 17.31743812561035 10.667745590209961 17.00267791748047 10.667745590209961 16.62504005432129 C10.667745590209961 16.198719024658203 10.759634017944336 15.840503692626953 10.94340991973877 15.550146102905273 C11.161053657531738 15.211106300354004 11.465728759765625 15.041648864746094 11.862168312072754 15.041648864746094 C12.16696834564209 15.041648864746094 12.427816390991211 15.172508239746094 12.645584106445312 15.428998947143555 L12.645584106445312 13.80700969696045 L13.15818977355957 13.80700969696045 L13.15818977355957 13.80700969696045 M14.076947212219238 15.09967041015625 L14.463798522949219 17.336488723754883 L14.971549987792969 15.365997314453125 L15.474444389343262 15.365997314453125 L15.958165168762207 17.409202575683594 L15.963021278381348 17.409202575683594 L16.374027252197266 15.09967041015625 L16.78017807006836 15.09967041015625 L16.204818725585938 17.956298828125 L15.697068214416504 17.956298828125 L15.199028968811035 15.825811386108398 L15.189316749572754 15.825811386108398 L14.633132934570312 17.956298828125 L14.125381469726562 17.956298828125 L13.603311538696289 15.09967041015625 L14.076947212219238 15.09967041015625 L14.076947212219238 15.09967041015625 M17.341094970703125 15.09967041015625 L18.888751983642578 15.09967041015625 L18.888751983642578 17.956298828125 L18.376144409179688 17.956298828125 L18.376144409179688 15.487020492553711 L17.341218948364258 15.487020492553711 L17.341218948364258 15.09967041015625 L17.341094970703125 15.09967041015625 M19.68661117553711 13.80700969696045 L21.301624298095703 13.80700969696045 L21.301624298095703 17.9564208984375 L20.78441047668457 17.9564208984375 L20.78441047668457 14.19435977935791 L19.68673324584961 14.19435977935791 L19.68673324584961 13.80700969696045 L19.68661117553711 13.80700969696045 M18.308286666870117 13.80700969696045 L18.95635986328125 13.80700969696045 L18.95635986328125 14.455829620361328 L18.308286666870117 14.455829620361328 L18.308286666870117 13.80700969696045 M23.647140502929688 13.80700969696045 L23.647140502929688 17.9564208984375 L23.119964599609375 17.9564208984375 L23.119964599609375 14.19435977935791 L22.027141571044922 14.19435977935791 L22.027141571044922 13.80700969696045 L23.647140502929688 13.80700969696045 M2.4178543090820312 13.913466453552246 C2.7611284255981445 13.913466453552246 3.1432485580444336 13.971611976623535 3.5349559783935547 14.092635154724121 L3.5349559783935547 14.639856338500977 C3.1239500045776367 14.455705642700195 2.746685028076172 14.36381721496582 2.3936996459960938 14.36381721496582 C1.9632692337036133 14.36381721496582 1.624852180480957 14.528419494628906 1.3587751388549805 14.84803581237793 C1.1169767379760742 15.148104667663574 0.9960784912109375 15.511175155639648 0.9960784912109375 15.956671714782715 C0.9960784912109375 16.41673469543457 1.1411323547363281 16.803958892822266 1.4409513473510742 17.09942054748535 C1.7407712936401367 17.399490356445312 2.118035316467285 17.544668197631836 2.577352523803711 17.554380416870117 L2.9739151000976562 17.505945205688477 L2.9739151000976562 16.47002601623535 L2.2389345169067383 16.47002601623535 L2.2389345169067383 16.009960174560547 L3.583266258239746 16.009960174560547 L3.583266258239746 17.844985961914062 C3.172260284423828 17.980453491210938 2.7805519104003906 18.043453216552734 2.4178543090820312 18.043453216552734 C1.8036479949951172 18.038597106933594 1.3056097030639648 17.84984016418457 0.9236135482788086 17.472204208374023 C0.546473503112793 17.094566345214844 0.3529853820800781 16.600635528564453 0.3529853820800781 15.995392799377441 C0.3529853820800781 15.375707626342773 0.546473503112793 14.867210388183594 0.9236135482788086 14.484716415405273 C1.3056097030639648 14.097616195678711 1.7940616607666016 13.903754234313965 2.4178543090820312 13.913466453552246 L2.4178543090820312 13.913466453552246 M4.680943965911865 16.527921676635742 C4.680943965911865 16.83309555053711 4.7389655113220215 17.084854125976562 4.850152492523193 17.268878936767578 C4.985619068145752 17.510801315307617 5.198406219482422 17.631948471069336 5.47880220413208 17.631948471069336 C5.759198188781738 17.631948471069336 5.971985340118408 17.510801315307617 6.107451915740967 17.268878936767578 C6.213783264160156 17.08473014831543 6.26694917678833 16.83309555053711 6.26694917678833 16.527921676635742 C6.26694917678833 16.22785186767578 6.213783264160156 15.980950355529785 6.107451915740967 15.787212371826172 C5.971985340118408 15.550146102905273 5.759198188781738 15.428998947143555 5.47880220413208 15.428998947143555 C5.198406219482422 15.428998947143555 4.985619068145752 15.550146102905273 4.850152492523193 15.787212371826172 C4.7390899658203125 15.981075286865234 4.680943965911865 16.22785186767578 4.680943965911865 16.527921676635742 M5.478927135467529 15.041648864746094 C5.914212703704834 15.041648864746094 6.252630233764648 15.181970596313477 6.4848408699035645 15.462865829467773 C6.702484130859375 15.729191780090332 6.8185272216796875 16.082799911499023 6.8185272216796875 16.528045654296875 C6.8185272216796875 16.973541259765625 6.702484130859375 17.336612701416016 6.4848408699035645 17.60293960571289 C6.252755165100098 17.883832931518555 5.914212703704834 18.019548416137695 5.478927135467529 18.019548416137695 C5.043640613555908 18.019548416137695 4.705223560333252 17.883832931518555 4.463425159454346 17.60293960571289 C4.245782375335693 17.336612701416016 4.1344709396362305 16.973541259765625 4.1344709396362305 16.528045654296875 C4.1344709396362305 16.082799911499023 4.245782375335693 15.729191780090332 4.463425159454346 15.462865829467773 C4.705223560333252 15.181970596313477 5.043640613555908 15.041648864746094 5.478927135467529 15.041648864746094 M7.921061038970947 16.527921676635742 C7.921061038970947 16.83309555053711 7.9790825843811035 17.084854125976562 8.090269088745117 17.268878936767578 C8.22561264038086 17.510801315307617 8.438399314880371 17.631948471069336 8.71891975402832 17.631948471069336 C8.994584083557129 17.631948471069336 9.202515602111816 17.510801315307617 9.337857246398926 17.268878936767578 C9.453900337219238 17.08473014831543 9.507190704345703 16.83309555053711 9.507190704345703 16.527921676635742 C9.507190704345703 16.22785186767578 9.453900337219238 15.980950355529785 9.337857246398926 15.787212371826172 C9.202515602111816 15.550146102905273 8.994584083557129 15.428998947143555 8.71891975402832 15.428998947143555 C8.43852424621582 15.428998947143555 8.225736618041992 15.550146102905273 8.090269088745117 15.787212371826172 C7.9789581298828125 15.981075286865234 7.921061038970947 16.22785186767578 7.921061038970947 16.527921676635742 L7.921061038970947 16.527921676635742 M7.703417778015137 15.462740898132324 C7.945215702056885 15.181846618652344 8.283758163452148 15.041523933410645 8.71891975402832 15.041523933410645 C9.154081344604492 15.041523933410645 9.492622375488281 15.181846618652344 9.724834442138672 15.462740898132324 C9.942476272583008 15.729066848754883 10.058520317077637 16.082674026489258 10.058520317077637 16.527921676635742 C10.058520317077637 16.973419189453125 9.942352294921875 17.336488723754883 9.724834442138672 17.602813720703125 C9.49274730682373 17.88370704650879 9.154205322265625 18.019424438476562 8.71891975402832 18.019424438476562 C8.2836332321167 18.019424438476562 7.945215702056885 17.88370704650879 7.703417778015137 17.602813720703125 C7.485774993896484 17.336488723754883 7.374587535858154 16.973419189453125 7.374587535858154 16.527921676635742 C7.374587535858154 16.082674026489258 7.485774993896484 15.729066848754883 7.703417778015137 15.462740898132324 M10.977277755737305 4.8980889320373535 C10.977277755737305 5.09182596206665 10.904687881469727 5.261283874511719 10.750046730041504 5.40160608291626 C10.595281600952148 5.537197589874268 10.421216011047363 5.600074768066406 10.203573226928711 5.600074768066406 C9.985931396484375 5.600074768066406 9.80700969696045 5.537197589874268 9.652244567871094 5.40160608291626 C9.502334594726562 5.261283874511719 9.4297456741333 5.091701507568359 9.4297456741333 4.8980889320373535 C9.4297456741333 4.71406364440918 9.502334594726562 4.544730186462402 9.652244567871094 4.409139156341553 C9.80700969696045 4.2688164710998535 9.985931396484375 4.205814838409424 10.203573226928711 4.205814838409424 C10.421216011047363 4.205814838409424 10.595281600952148 4.2688164710998535 10.750046730041504 4.409139156341553 C10.904687881469727 4.544730186462402 10.977277755737305 4.714188098907471 10.977277755737305 4.8980889320373535 M8.85426139831543 7.144742488861084 L8.85426139831543 9.812612533569336 L14.981261253356934 9.812612533569336 L14.981261253356934 3.4892616271972656 L8.85426139831543 3.4892616271972656 L8.85426139831543 7.144742488861084 M9.628089904785156 10.708211898803711 L9.628089904785156 11.405466079711914 C9.589366912841797 11.744380950927734 9.362136840820312 11.942850112915039 8.960718154907227 12.001120567321777 L8.960718154907227 11.70080280303955 C9.217082977294922 11.70080280303955 9.333126068115234 11.603934288024902 9.299259185791016 11.405466079711914 L8.960718154907227 11.405466079711914 L8.960718154907227 10.708211898803711 L9.628089904785156 10.708211898803711 M9.187947273254395 10.872937202453613 L9.395878791809082 10.872937202453613 C9.468467712402344 10.969681739807129 9.468467712402344 11.066550254821777 9.395878791809082 11.163418769836426 L9.187947273254395 11.163418769836426 C9.105772018432617 11.066550254821777 9.105772018432617 10.969681739807129 9.187947273254395 10.872937202453613 M10.072962760925293 10.872937202453613 L10.305048942565918 10.872937202453613 C10.387226104736328 10.969681739807129 10.387226104736328 11.066550254821777 10.305048942565918 11.163418769836426 L10.072962760925293 11.163418769836426 C9.99066162109375 11.066550254821777 9.99066162109375 10.969681739807129 10.072962760925293 10.872937202453613 M10.735479354858398 10.708211898803711 L11.427006721496582 10.708211898803711 L11.427006721496582 11.405466079711914 L10.735479354858398 11.405466079711914 L10.735479354858398 10.708211898803711 M11.886322021484375 10.872937202453613 L12.09412956237793 10.872937202453613 C12.176305770874023 10.969681739807129 12.176305770874023 11.066550254821777 12.09412956237793 11.163418769836426 L11.886322021484375 11.163418769836426 C11.804146766662598 11.066550254821777 11.804146766662598 10.969681739807129 11.886322021484375 10.872937202453613 M11.001432418823242 11.163418769836426 C10.919255256652832 11.066550254821777 10.919255256652832 10.969681739807129 11.001432418823242 10.872937202453613 L11.185208320617676 10.872937202453613 C11.267385482788086 10.969681739807129 11.267385482788086 11.066550254821777 11.185208320617676 11.163418769836426 L11.001432418823242 11.163418769836426 M9.831040382385254 10.708211898803711 L10.532279014587402 10.708211898803711 L10.532279014587402 11.405466079711914 L9.831040382385254 11.405466079711914 L9.831040382385254 10.708211898803711 M11.610658645629883 11.405466079711914 L12.336176872253418 11.405466079711914 L12.336176872253418 10.316129684448242 L12.070099830627441 10.316129684448242 L12.070099830627441 10.708211898803711 L11.610782623291016 10.708211898803711 L11.610782623291016 11.405466079711914 L11.610658645629883 11.405466079711914 M12.756895065307617 11.163418769836426 L12.756895065307617 10.708335876464844 L12.514972686767578 10.708335876464844 L12.514972686767578 11.405590057373047 L13.69021987915039 11.405590057373047 L13.69021987915039 10.708335876464844 L13.433854103088379 10.708335876464844 L13.433854103088379 11.163418769836426 L13.216211318969727 11.163418769836426 L13.216211318969727 10.708335876464844 L12.988856315612793 10.708335876464844 L12.988856315612793 11.163418769836426 L12.756895065307617 11.163418769836426 M13.902758598327637 10.708211898803711 L14.110939025878906 10.708211898803711 L14.110939025878906 11.405466079711914 L13.902758598327637 11.405466079711914 L13.902758598327637 10.708211898803711 M13.902758598327637 10.316129684448242 L14.110939025878906 10.316129684448242 L14.110939025878906 10.563033103942871 L13.902758598327637 10.563033103942871 L13.902758598327637 10.316129684448242 M14.314013481140137 10.316129684448242 L14.570379257202148 10.316129684448242 L14.570379257202148 11.405466079711914 L14.314013481140137 11.405466079711914 L14.314013481140137 10.316129684448242 M14.753907203674316 10.316129684448242 L15.039407730102539 10.316129684448242 L15.039407730102539 11.405466079711914 L14.753907203674316 11.405466079711914 L14.753907203674316 10.316129684448242 M8.462553977966309 3.0583324432373047 L15.401979446411133 3.0583324432373047 L15.401979446411133 12.156010627746582 L8.462553977966309 12.156010627746582 L8.462553977966309 3.0583324432373047" fill="black" fill-opacity="1.0" filling="0"/>
<path animation_id="2" d="M10.977277755737305 4.8980889320373535 C10.977277755737305 5.09182596206665 10.904687881469727 5.261283874511719 10.750046730041504 5.40160608291626 C10.595281600952148 5.537197589874268 10.421216011047363 5.600074768066406 10.203573226928711 5.600074768066406 C9.985931396484375 5.600074768066406 9.80700969696045 5.537197589874268 9.652244567871094 5.40160608291626 C9.502334594726562 5.261283874511719 9.4297456741333 5.091701507568359 9.4297456741333 4.8980889320373535 C9.4297456741333 4.71406364440918 9.502334594726562 4.544730186462402 9.652244567871094 4.409139156341553 C9.80700969696045 4.2688164710998535 9.985931396484375 4.205814838409424 10.203573226928711 4.205814838409424 C10.421216011047363 4.205814838409424 10.595281600952148 4.2688164710998535 10.750046730041504 4.409139156341553 C10.904687881469727 4.544730186462402 10.977277755737305 4.714188098907471 10.977277755737305 4.8980889320373535 M10.13098430633545 6.747681140899658 C9.84560775756836 7.072029113769531 9.420158386230469 7.198032855987549 8.854385375976562 7.144742488861084 C9.420158386230469 7.198032855987549 9.84560775756836 7.072153568267822 10.13098430633545 6.747681140899658 M8.85426139831543 7.144742488861084 L8.85426139831543 8.766731262207031 L9.652244567871094 8.742576599121094 L8.85426139831543 8.766731262207031 L8.85426139831543 9.812612533569336 L14.981261253356934 9.812612533569336 L14.981261253356934 3.4892616271972656 L11.896034240722656 3.4892616271972656 L11.896034240722656 7.023719310760498 C11.70267105102539 8.142189979553223 10.952998161315918 8.718297004699707 9.652244567871094 8.742576599121094 C10.952998161315918 8.718421936035156 11.70267105102539 8.142314910888672 11.896034240722656 7.023719310760498 L11.896034240722656 3.4892616271972656 L8.85426139831543 3.4892616271972656 L8.85426139831543 7.144742488861084 M9.628089904785156 10.708211898803711 L9.628089904785156 11.405466079711914 C9.589366912841797 11.744380950927734 9.362136840820312 11.942850112915039 8.960718154907227 12.001120567321777 L8.960718154907227 11.70080280303955 C9.217082977294922 11.70080280303955 9.333126068115234 11.603934288024902 9.299259185791016 11.405466079711914 L8.960718154907227 11.405466079711914 L8.960718154907227 10.708211898803711 L9.628089904785156 10.708211898803711 M9.187947273254395 10.872937202453613 L9.395878791809082 10.872937202453613 C9.468467712402344 10.969681739807129 9.468467712402344 11.066550254821777 9.395878791809082 11.163418769836426 L9.187947273254395 11.163418769836426 C9.105772018432617 11.066550254821777 9.105772018432617 10.969681739807129 9.187947273254395 10.872937202453613 M10.072962760925293 10.872937202453613 L10.305048942565918 10.872937202453613 C10.387226104736328 10.969681739807129 10.387226104736328 11.066550254821777 10.305048942565918 11.163418769836426 L10.072962760925293 11.163418769836426 C9.99066162109375 11.066550254821777 9.99066162109375 10.969681739807129 10.072962760925293 10.872937202453613 M10.735479354858398 10.708211898803711 L11.427006721496582 10.708211898803711 L11.427006721496582 11.405466079711914 L10.735479354858398 11.405466079711914 L10.735479354858398 10.708211898803711 M11.886322021484375 10.872937202453613 L12.09412956237793 10.872937202453613 C12.176305770874023 10.969681739807129 12.176305770874023 11.066550254821777 12.09412956237793 11.163418769836426 L11.886322021484375 11.163418769836426 C11.804146766662598 11.066550254821777 11.804146766662598 10.969681739807129 11.886322021484375 10.872937202453613 M11.001432418823242 11.163418769836426 C10.919255256652832 11.066550254821777 10.919255256652832 10.969681739807129 11.001432418823242 10.872937202453613 L11.185208320617676 10.872937202453613 C11.267385482788086 10.969681739807129 11.267385482788086 11.066550254821777 11.185208320617676 11.163418769836426 L11.001432418823242 11.163418769836426 M9.831040382385254 10.708211898803711 L10.532279014587402 10.708211898803711 L10.532279014587402 11.405466079711914 L9.831040382385254 11.405466079711914 L9.831040382385254 10.708211898803711 M11.610658645629883 11.405466079711914 L12.336176872253418 11.405466079711914 L12.336176872253418 10.316129684448242 L12.070099830627441 10.316129684448242 L12.070099830627441 10.708211898803711 L11.610782623291016 10.708211898803711 L11.610782623291016 11.405466079711914 L11.610658645629883 11.405466079711914 M12.756895065307617 11.163418769836426 L12.756895065307617 10.708335876464844 L12.514972686767578 10.708335876464844 L12.514972686767578 11.405590057373047 L13.69021987915039 11.405590057373047 L13.69021987915039 10.708335876464844 L13.433854103088379 10.708335876464844 L13.433854103088379 11.163418769836426 L13.216211318969727 11.163418769836426 L13.216211318969727 10.708335876464844 L12.988856315612793 10.708335876464844 L12.988856315612793 11.163418769836426 L12.756895065307617 11.163418769836426 M13.902758598327637 10.708211898803711 L14.110939025878906 10.708211898803711 L14.110939025878906 11.405466079711914 L13.902758598327637 11.405466079711914 L13.902758598327637 10.708211898803711 M13.902758598327637 10.316129684448242 L14.110939025878906 10.316129684448242 L14.110939025878906 10.563033103942871 L13.902758598327637 10.563033103942871 L13.902758598327637 10.316129684448242 M14.314013481140137 10.316129684448242 L14.570379257202148 10.316129684448242 L14.570379257202148 11.405466079711914 L14.314013481140137 11.405466079711914 L14.314013481140137 10.316129684448242 M14.753907203674316 10.316129684448242 L15.039407730102539 10.316129684448242 L15.039407730102539 11.405466079711914 L14.753907203674316 11.405466079711914 L14.753907203674316 10.316129684448242" fill="black" fill-opacity="1.0" filling="0"/>
<path animation_id="3" d="M10.13098430633545 6.747681140899658 C9.84560775756836 7.072029113769531 9.420158386230469 7.198032855987549 8.854385375976562 7.144742488861084 M8.85426139831543 8.766731262207031 L9.652244567871094 8.742576599121094 C10.952998161315918 8.718421936035156 11.70267105102539 8.142314910888672 11.896034240722656 7.023719310760498 L11.896034240722656 3.4892616271972656" fill="none" filling="0" stroke="black" stroke-opacity="1.0" stroke-width=".3"/>
<path animation_id="4" d="M8.85426139831543 7.144742488861084 L8.85426139831543 9.812612533569336 L14.981261253356934 9.812612533569336 L14.981261253356934 3.4892616271972656 L8.85426139831543 3.4892616271972656 L8.85426139831543 7.144742488861084 M8.462553977966309 3.0583324432373047 L15.401979446411133 3.0583324432373047 L15.401979446411133 12.156010627746582 L8.462553977966309 12.156010627746582 L8.462553977966309 3.0583324432373047 L8.462553977966309 3.0583324432373047" fill="none" filling="0" stroke="black" stroke-opacity="1.0" stroke-width=".3"/>
<path animation_id="5" d="M15.015128135681152 12.451223373413086 C15.136027336120605 12.451223373413086 15.232771873474121 12.495050430297852 15.319803237915039 12.572371482849121 C15.401979446411133 12.654796600341797 15.440702438354492 12.751541137695312 15.440702438354492 12.872440338134766 C15.440702438354492 12.9935884475708 15.401979446411133 13.09033203125 15.319803237915039 13.172757148742676 C15.232771873474121 13.259790420532227 15.135902404785156 13.298761367797852 15.015128135681152 13.298761367797852 C14.894353866577148 13.298761367797852 14.7974853515625 13.25991439819336 14.71530818939209 13.172757148742676 C14.628276824951172 13.09033203125 14.584697723388672 12.9935884475708 14.584697723388672 12.872440338134766 C14.584697723388672 12.751541137695312 14.628276824951172 12.654796600341797 14.71530818939209 12.572371482849121 C14.7974853515625 12.495050430297852 14.894229888916016 12.451223373413086 15.015128135681152 12.451223373413086 M14.778186798095703 12.640229225158691 A0.3255929946899414 0.3255929946899414 0.0 0 0 14.681442260742188 12.872440338134766 C14.681442260742188 12.959721565246582 14.715184211730957 13.041897773742676 14.778186798095703 13.104899406433105 C14.850650787353516 13.172757148742676 14.923115730285645 13.201643943786621 15.01500415802002 13.201643943786621 C15.102035522460938 13.201643943786621 15.184212684631348 13.172757148742676 15.247214317321777 13.104899406433105 A0.32646453380584717 0.32646453380584717 0.0 0 0 15.343709945678711 12.872440338134766 C15.343709945678711 12.785407066345215 15.309967041015625 12.703231811523438 15.247214317321777 12.640229225158691 C15.184212684631348 12.572371482849121 15.102035522460938 12.543484687805176 15.01500415802002 12.543484687805176 C14.923115730285645 12.543360710144043 14.850650787353516 12.572371482849121 14.778186798095703 12.640229225158691 M14.942663192749023 12.688538551330566 L14.942663192749023 12.848285675048828 L14.981386184692383 12.848285675048828 C15.053850173950195 12.848285675048828 15.087717056274414 12.814542770385742 15.087717056274414 12.761252403259277 C15.087717056274414 12.712569236755371 15.053975105285645 12.688538551330566 14.991222381591797 12.688538551330566 L14.942663192749023 12.688538551330566 M14.990973472595215 12.615824699401855 C15.116728782653809 12.615824699401855 15.184337615966797 12.66425895690918 15.184337615966797 12.751541137695312 C15.184337615966797 12.814542770385742 15.150594711303711 12.862977027893066 15.087593078613281 12.896719932556152 L15.208741188049316 13.124322891235352 L15.092448234558105 13.124322891235352 L14.991098403930664 12.911287307739258 L14.942663192749023 12.911287307739258 L14.942663192749023 13.124322891235352 L14.850775718688965 13.124322891235352 L14.850775718688965 12.615824699401855 L14.990973472595215 12.615824699401855 L14.990973472595215 12.615824699401855" fill="black" fill-opacity="1.0" filling="0"/></svg>