<?xml version="1.0" encoding="iso-8859-1"?><svg height="200px" viewBox="0.0 0.0 24.0 24.0" width="200px" xmlns="http://www.w3.org/2000/svg"><path animation_id="0" d="M0.0 0.0 L24.0 0.0 L24.0 24.0 L0.0 24.0 L0.0 0.0" fill="black" fill-opacity="1.0" filling="0"/>
<path animation_id="1" d="M22.94116973876953 16.62566375732422 L22.94116973876953 15.687729835510254 L2.082674026489258 15.687729835510254 L2.082674026489258 16.62566375732422 L22.94116973876953 16.62566375732422 M19.359771728515625 11.72757339477539 C20.321359634399414 11.5979585647583 21.062816619873047 10.774201393127441 21.062816619873047 9.777252197265625 C21.062816619873047 8.690406799316406 20.181533813476562 7.809126853942871 19.094688415527344 7.809126853942871 L16.592790603637695 7.809126853942871 L16.592790603637695 13.863786697387695 L14.544107437133789 11.72757339477539 C15.505447387695312 11.5979585647583 16.246902465820312 10.774201393127441 16.246902465820312 9.777252197265625 C16.246902465820312 8.690406799316406 15.365622520446777 7.809126853942871 14.278778076171875 7.809126853942871 L11.777003288269043 7.809126853942871 L11.777003288269043 15.187200546264648 L12.74643611907959 15.187200546264648 L12.74643611907959 8.776442527770996 L14.278778076171875 8.782045364379883 A0.995081901550293 0.995081901550293 0.0 0 1 14.278778076171875 10.772209167480469 L13.184212684631348 10.772209167480469 L13.184212684631348 11.669053077697754 L16.56178855895996 15.1870756149292 L17.56247329711914 15.1870756149292 L17.56247329711914 8.776442527770996 L19.09481430053711 8.782045364379883 A0.995081901550293 0.995081901550293 0.0 0 1 19.09481430053711 10.772209167480469 L18.0002498626709 10.772209167480469 L18.0002498626709 11.669053077697754 L21.377574920654297 15.1870756149292 L22.691028594970703 15.1870756149292 L19.359771728515625 11.72757339477539 M3.051982879638672 14.220880508422852 L3.051982879638672 8.776691436767578 L4.670360565185547 8.776691436767578 A1.0005602836608887 1.0005602836608887 0.0 0 1 4.670360565185547 10.777812004089355 L3.4898834228515625 10.777812004089355 L3.4898834228515625 11.747369766235352 L4.709456920623779 11.744380950927734 C5.393388748168945 11.744380950927734 5.94770622253418 12.298823356628418 5.94770622253418 12.982630729675293 C5.94770622253418 13.666439056396484 5.393264293670654 14.220880508422852 4.709456920623779 14.220880508422852 L3.051982879638672 14.220880508422852 M2.082674026489258 15.187324523925781 L4.959721088409424 15.187324523925781 C5.5239996910095215 15.187324523925781 5.951441287994385 15.051112174987793 6.269688129425049 14.827367782592773 L6.069974422454834 15.187324523925781 L7.195791721343994 15.187324523925781 L9.103404998779297 11.7474946975708 L9.93214225769043 11.7474946975708 L9.93214225769043 10.778061866760254 L9.650751113891602 10.778061866760254 L10.463799476623535 9.261408805847168 L10.463799476623535 15.187324523925781 L11.433231353759766 15.187324523925781 L11.433231353759766 7.807134628295898 L10.16646957397461 7.807134628295898 L7.012388706207275 13.489136695861816 C7.037166595458984 13.321048736572266 7.0503644943237305 13.146734237670898 7.0503644943237305 12.967066764831543 C7.0503644943237305 12.207557678222656 6.6687421798706055 11.559734344482422 6.069849967956543 11.16889762878418 A1.9680010080337524 1.9680010080337524 0.0 0 0 6.643964767456055 9.777252197265625 C6.643964767456055 8.687294006347656 5.760318756103516 7.807134628295898 4.670360565185547 7.807134628295898 L2.082674026489258 7.807134628295898 L2.082674026489258 15.187324523925781" fill="black" fill-opacity="1.0" filling="0"/></svg>