<?xml version="1.0" encoding="iso-8859-1"?><svg height="200px" viewBox="0.0 0.0 24.0 24.0" width="200px" xmlns="http://www.w3.org/2000/svg"><path animation_id="0" d="M0.0 0.0 L24.0 0.0 L24.0 24.0 L0.0 24.0 L0.0 0.0" fill="black" fill-opacity="1.0" filling="0"/>
<path animation_id="1" d="M2.0424575805664062 16.668991088867188 C2.2114181518554688 16.77457618713379 2.348752021789551 16.83770179748535 2.49654483795166 16.83770179748535 C2.623295783996582 16.83770179748535 2.6866703033447266 16.795616149902344 2.6866703033447266 16.72165870666504 C2.6866703033447266 16.6476993560791 2.633878707885742 16.615825653076172 2.517711639404297 16.573741912841797 C2.1797914505004883 16.457448959350586 2.0214157104492188 16.351987838745117 2.0214157104492188 16.109071731567383 C2.0214157104492188 15.898026466369629 2.2114181518554688 15.72894287109375 2.517711639404297 15.72894287109375 C2.6656293869018555 15.72894287109375 2.813422203063965 15.771275520324707 2.961215019226074 15.845234870910645 L2.961215019226074 16.109071731567383 C2.7922563552856445 16.0246524810791 2.655045509338379 15.982319831848145 2.5388784408569336 15.982319831848145 C2.4121274948120117 15.982319831848145 2.3382930755615234 16.013944625854492 2.3382930755615234 16.087905883789062 C2.3382930755615234 16.140697479248047 2.4016685485839844 16.183029174804688 2.517711639404297 16.235820770263672 C2.633878707885742 16.278156280517578 2.750046730041504 16.30978012084961 2.845047950744629 16.373279571533203 C2.961215019226074 16.44723892211914 3.024590492248535 16.552698135375977 3.024590492248535 16.70061683654785 C3.024590492248535 16.94353485107422 2.8344640731811523 17.091203689575195 2.49654483795166 17.091203689575195 A0.8658407330513 0.8658407330513 0.0 0 1 2.0424575805664062 16.964452743530273 L2.0424575805664062 16.668991088867188 L2.0424575805664062 16.668991088867188 M3.742513656616211 16.2993221282959 L3.5841379165649414 16.2993221282959 L3.5841379165649414 16.003612518310547 L3.742513656616211 16.003612518310547 C3.8586816787719727 16.003612518310547 3.9219322204589844 16.05640411376953 3.9219322204589844 16.151527404785156 C3.9219322204589844 16.246654510498047 3.869264602661133 16.2993221282959 3.742513656616211 16.2993221282959 M3.2568016052246094 17.07028579711914 L3.5841379165649414 17.07028579711914 L3.5841379165649414 16.552824020385742 L3.7108888626098633 16.552824020385742 C4.080433368682861 16.552824020385742 4.259976387023926 16.415363311767578 4.259976387023926 16.151527404785156 C4.259976387023926 15.876984596252441 4.091141223907471 15.75023365020752 3.74263858795166 15.75023365020752 L3.256925582885742 15.75023365020752 L3.256925582885742 17.07028579711914 L3.2568016052246094 17.07028579711914 L3.2568016052246094 17.07028579711914 M4.449978351593018 15.75023365020752 L4.777314186096191 15.75023365020752 L4.777314186096191 16.278156280517578 L5.3687357902526855 16.278156280517578 L5.3687357902526855 15.75023365020752 L5.696072101593018 15.75023365020752 L5.696072101593018 17.07028579711914 L5.3687357902526855 17.07028579711914 L5.3687357902526855 16.531532287597656 L4.777314186096191 16.531532287597656 L4.777314186096191 17.07028579711914 L4.449978351593018 17.07028579711914 L4.449978351593018 15.75023365020752 L4.449978351593018 15.75023365020752 M6.414119243621826 16.584325790405273 L6.614704608917236 16.088027954101562 L6.804706573486328 16.584325790405273 L6.414119243621826 16.584325790405273 M5.864907264709473 17.07028579711914 L6.213409900665283 17.07028579711914 L6.318994045257568 16.816659927368164 L6.889248847961426 16.816659927368164 L6.984250068664551 17.07028579711914 L7.332752704620361 17.07028579711914 L6.8152899742126465 15.75023365020752 L6.435161590576172 15.75023365020752 L5.864907264709473 17.07028579711914 M7.491128921508789 15.75023365020752 L7.8290486335754395 15.75023365020752 L7.8290486335754395 16.8165340423584 L8.38871955871582 16.8165340423584 L8.38871955871582 17.07028579711914 L7.491128921508789 17.07028579711914 L7.491128921508789 15.75023365020752 L7.491128921508789 15.75023365020752 M8.758264541625977 16.003612518310547 L8.314760208129883 16.003612518310547 L8.314760208129883 15.75023365020752 L9.539687156677246 15.75023365020752 L9.539687156677246 16.003612518310547 L9.096183776855469 16.003612518310547 L9.096183776855469 17.07028579711914 L8.758264541625977 17.07028579711914 L8.758264541625977 16.003612518310547 M9.655731201171875 16.668991088867188 C9.824689865112305 16.77457618713379 9.962024688720703 16.83770179748535 10.109817504882812 16.83770179748535 C10.236568450927734 16.83770179748535 10.299943923950195 16.795616149902344 10.299943923950195 16.72165870666504 C10.299943923950195 16.6476993560791 10.247152328491211 16.615825653076172 10.13098430633545 16.573741912841797 C9.793190002441406 16.457448959350586 9.63481330871582 16.351987838745117 9.63481330871582 16.109071731567383 C9.63481330871582 15.898026466369629 9.824814796447754 15.72894287109375 10.13098430633545 15.72894287109375 C10.278902053833008 15.72894287109375 10.426694869995117 15.771275520324707 10.574488639831543 15.845234870910645 L10.574488639831543 16.109071731567383 C10.40552806854248 16.0246524810791 10.268194198608398 15.982319831848145 10.152027130126953 15.982319831848145 C10.025275230407715 15.982319831848145 9.951441764831543 16.013944625854492 9.951441764831543 16.087905883789062 C9.951441764831543 16.140697479248047 10.014816284179688 16.183029174804688 10.130859375 16.235820770263672 C10.247028350830078 16.278156280517578 10.363195419311523 16.30978012084961 10.458196640014648 16.373279571533203 C10.574363708496094 16.44723892211914 10.637739181518555 16.552698135375977 10.637739181518555 16.70061683654785 C10.637739181518555 16.94353485107422 10.447612762451172 17.091203689575195 10.10969352722168 17.091203689575195 A0.8658407330513 0.8658407330513 0.0 0 1 9.655607223510742 16.964452743530273 L9.655607223510742 16.668991088867188 L9.655731201171875 16.668991088867188 L9.655731201171875 16.668991088867188" fill="black" fill-opacity="1.0" filling="0"/>
<path animation_id="2" d="M13.129926681518555 17.091203689575195 C12.918632507324219 17.091203689575195 12.749797821044922 17.027952194213867 12.62292194366455 16.911785125732422 C12.496170997619629 16.7850341796875 12.42233657836914 16.605615615844727 12.42233657836914 16.415489196777344 C12.42233657836914 16.01419448852539 12.707589149475098 15.729191780090332 13.161676406860352 15.729191780090332 C13.330636024475098 15.729191780090332 13.489011764526367 15.771524429321289 13.65797233581543 15.845483779907227 L13.65797233581543 16.140945434570312 C13.47855281829834 16.04606819152832 13.319927215576172 16.003734588623047 13.182842254638672 16.003734588623047 C12.918758392333984 16.003734588623047 12.760381698608398 16.1619873046875 12.760381698608398 16.415489196777344 C12.760381698608398 16.658409118652344 12.90829849243164 16.816783905029297 13.161676406860352 16.816783905029297 C13.22492790222168 16.816783905029297 13.288426399230957 16.806324005126953 13.351802825927734 16.774700164794922 L13.351802825927734 16.616199493408203 L13.172134399414062 16.616199493408203 L13.172134399414062 16.362821578979492 L13.689597129821777 16.362821578979492 L13.689597129821777 16.911911010742188 C13.520512580871582 17.038410186767578 13.340970993041992 17.091203689575195 13.129926681518555 17.091203689575195 M14.576604843139648 17.091203689575195 C14.365311622619629 17.091203689575195 14.196227073669434 17.027952194213867 14.069601058959961 16.911785125732422 C13.942850112915039 16.7850341796875 13.86901569366455 16.605615615844727 13.86901569366455 16.415489196777344 C13.86901569366455 16.01419448852539 14.154268264770508 15.729191780090332 14.608355522155762 15.729191780090332 C14.77706527709961 15.729191780090332 14.935690879821777 15.771524429321289 15.10465145111084 15.845483779907227 L15.10465145111084 16.140945434570312 C14.924983978271484 16.04606819152832 14.766606330871582 16.003734588623047 14.629521369934082 16.003734588623047 C14.365436553955078 16.003734588623047 14.207059860229492 16.1619873046875 14.207059860229492 16.415489196777344 C14.207059860229492 16.658409118652344 14.35497760772705 16.816783905029297 14.608355522155762 16.816783905029297 C14.671606063842773 16.816783905029297 14.735105514526367 16.806324005126953 14.798232078552246 16.774700164794922 L14.798232078552246 16.616199493408203 L14.618814468383789 16.616199493408203 L14.618814468383789 16.362821578979492 L15.136276245117188 16.362821578979492 L15.136276245117188 16.911911010742188 C14.967191696166992 17.038410186767578 14.787773132324219 17.091203689575195 14.576604843139648 17.091203689575195 M15.80128288269043 16.28861427307129 L15.643031120300293 16.28861427307129 L15.643031120300293 15.982444763183594 L15.80128288269043 15.982444763183594 C15.917574882507324 15.982444763183594 15.980950355529785 16.045944213867188 15.980950355529785 16.140697479248047 C15.981075286865234 16.24652862548828 15.917574882507324 16.28861427307129 15.80128288269043 16.28861427307129 L15.80128288269043 16.28861427307129 M15.315694808959961 17.07028579711914 L15.643031120300293 17.07028579711914 L15.643031120300293 16.531658172607422 L15.67465591430664 16.531658172607422 C15.812115669250488 16.531658172607422 15.864782333374023 16.573989868164062 15.917574882507324 16.689908981323242 L16.08653450012207 17.07028579711914 L16.45620346069336 17.07028579711914 L16.244911193847656 16.616073608398438 C16.213285446166992 16.531658172607422 16.160493850708008 16.478866577148438 16.096994400024414 16.457822799682617 C16.244911193847656 16.383865356445312 16.318744659423828 16.278404235839844 16.318744659423828 16.13048553466797 C16.318744659423828 15.866401672363281 16.1497859954834 15.750358581542969 15.80128288269043 15.750358581542969 L15.315694808959961 15.750358581542969 L15.315694808959961 17.07028579711914 L15.315694808959961 17.07028579711914 M16.635622024536133 15.75023365020752 L17.522504806518555 15.75023365020752 L17.522504806518555 15.993152618408203 L16.973419189453125 15.993152618408203 L16.973419189453125 16.267446517944336 L17.491004943847656 16.267446517944336 L17.491004943847656 16.51049041748047 L16.973419189453125 16.51049041748047 L16.973419189453125 16.827241897583008 L17.533212661743164 16.827241897583008 L17.533212661743164 17.07028579711914 L16.635622024536133 17.07028579711914 L16.635622024536133 15.75023365020752 L16.635622024536133 15.75023365020752 M18.31463623046875 17.091203689575195 C18.114051818847656 17.091203689575195 17.93450927734375 17.027952194213867 17.807632446289062 16.911785125732422 C17.68088150024414 16.7850341796875 17.607295989990234 16.605615615844727 17.607295989990234 16.415489196777344 C17.607295989990234 16.01419448852539 17.89229965209961 15.729191780090332 18.356969833374023 15.729191780090332 C18.515220642089844 15.729191780090332 18.673599243164062 15.771524429321289 18.842557907104492 15.845483779907227 L18.842557907104492 16.140945434570312 C18.66313934326172 16.04606819152832 18.504514694213867 16.003734588623047 18.367429733276367 16.003734588623047 C18.103343963623047 16.003734588623047 17.94496726989746 16.1619873046875 17.94496726989746 16.415489196777344 C17.94496726989746 16.658409118652344 18.092884063720703 16.816783905029297 18.346263885498047 16.816783905029297 A0.4146174490451813 0.4146174490451813 0.0 0 0 18.536388397216797 16.774700164794922 L18.536388397216797 16.616199493408203 L18.356969833374023 16.616199493408203 L18.356969833374023 16.362821578979492 L18.874183654785156 16.362821578979492 L18.874183654785156 16.911911010742188 C18.70509910583496 17.038410186767578 18.536388397216797 17.091203689575195 18.31463623046875 17.091203689575195 L18.31463623046875 17.091203689575195 M19.486770629882812 16.584325790405273 L19.68735694885254 16.088027954101562 L19.877233505249023 16.584325790405273 L19.486770629882812 16.584325790405273 M18.92697525024414 17.07028579711914 L19.28618621826172 17.07028579711914 L19.391769409179688 16.816659927368164 L19.951316833496094 16.816659927368164 L20.046443939208984 17.07028579711914 L20.39494514465332 17.07028579711914 L19.8881893157959 15.75023365020752 L19.5078125 15.75023365020752 L18.92697525024414 17.07028579711914 L18.92697525024414 17.07028579711914 M20.65865707397461 16.003612518310547 L20.21527671813965 16.003612518310547 L20.21527671813965 15.75023365020752 L21.440204620361328 15.75023365020752 L21.440204620361328 16.003612518310547 L21.007160186767578 16.003612518310547 L21.007160186767578 17.07028579711914 L20.65865707397461 17.07028579711914 L20.65865707397461 16.003612518310547 L20.65865707397461 16.003612518310547 M21.57741355895996 15.75023365020752 L22.464296340942383 15.75023365020752 L22.464296340942383 15.993152618408203 L21.90475082397461 15.993152618408203 L21.90475082397461 16.267446517944336 L22.43267059326172 16.267446517944336 L22.43267059326172 16.51049041748047 L21.90475082397461 16.51049041748047 L21.90475082397461 16.827241897583008 L22.475004196166992 16.827241897583008 L22.475004196166992 17.07028579711914 L21.57741355895996 17.07028579711914 L21.57741355895996 15.75023365020752 L21.57741355895996 15.75023365020752 M22.665130615234375 16.668991088867188 C22.833843231201172 16.77457618713379 22.971302032470703 16.83770179748535 23.119094848632812 16.83770179748535 C23.245845794677734 16.83770179748535 23.308971405029297 16.795616149902344 23.308971405029297 16.72165870666504 C23.308971405029297 16.6476993560791 23.256179809570312 16.615825653076172 23.140010833740234 16.573741912841797 C22.802215576171875 16.457448959350586 22.643966674804688 16.351987838745117 22.643966674804688 16.109071731567383 C22.643966674804688 15.898026466369629 22.833843231201172 15.72894287109375 23.140010833740234 15.72894287109375 C23.28792953491211 15.72894287109375 23.43572235107422 15.771275520324707 23.583515167236328 15.845234870910645 L23.583515167236328 16.109071731567383 C23.414554595947266 16.0246524810791 23.277345657348633 15.982319831848145 23.161054611206055 15.982319831848145 C23.02384376525879 15.982319831848145 22.960468292236328 16.013944625854492 22.960468292236328 16.087905883789062 C22.960468292236328 16.140697479248047 23.023969650268555 16.183029174804688 23.139888763427734 16.235820770263672 C23.256179809570312 16.278156280517578 23.372344970703125 16.30978012084961 23.467472076416016 16.373279571533203 C23.583515167236328 16.44723892211914 23.64689064025879 16.552698135375977 23.64689064025879 16.70061683654785 C23.64689064025879 16.94353485107422 23.456764221191406 17.091203689575195 23.118968963623047 17.091203689575195 A0.8644711375236511 0.8644711375236511 0.0 0 1 22.665006637573242 16.964452743530273 L22.665006637573242 16.668991088867188 L22.665130615234375 16.668991088867188 L22.665130615234375 16.668991088867188" fill="black" fill-opacity="1.0" filling="0"/>
<path animation_id="3" d="M1.1766166687011719 15.697441101074219 L0.3528604507446289 17.07028579711914 L0.7753219604492188 17.07028579711914 L1.1766166687011719 16.404905319213867 L1.5883703231811523 17.07028579711914 L2.0108327865600586 17.07028579711914 L1.1766166687011719 15.697441101074219" fill="black" fill-opacity="1.0" filling="0"/>
<path animation_id="4" d="M11.672664642333984 15.68673324584961 L10.838449478149414 17.07028579711914 L11.271368980407715 17.07028579711914 L11.672664642333984 16.404905319213867 L12.084542274475098 17.07028579711914 L12.506878852844238 17.07028579711914 L11.672664642333984 15.68673324584961 L11.672664642333984 15.68673324584961" fill="black" fill-opacity="1.0" filling="0"/>
<path animation_id="5" d="M8.863849639892578 17.81970977783203 L8.863849639892578 18.527423858642578 C8.863849639892578 18.66463279724121 8.747681617736816 18.759634017944336 8.58930492401123 18.759634017944336 C8.483720779418945 18.759634017944336 8.409761428833008 18.717300415039062 8.346385955810547 18.654050827026367 C8.314760208129883 18.611717224121094 8.304177284240723 18.548465728759766 8.304177284240723 18.45346450805664 L8.304177284240723 17.81970977783203 L8.10346794128418 17.81970977783203 L8.10346794128418 18.463924407958984 C8.10346794128418 18.590675354003906 8.11405086517334 18.68567657470703 8.188010215759277 18.770092010498047 C8.283010482788086 18.88638687133789 8.420345306396484 18.94976043701172 8.58930492401123 18.94976043701172 C8.863849639892578 18.94976043701172 9.064434051513672 18.780799865722656 9.064434051513672 18.527299880981445 L9.064434051513672 17.8195858001709 L8.863849639892578 17.8195858001709 L8.863849639892578 17.81970977783203 L8.863849639892578 17.81970977783203 M9.940857887268066 18.2740478515625 L9.919815063476562 18.26333999633789 C9.803647994995117 18.18937873840332 9.750856399536133 18.157752990722656 9.750856399536133 18.094379425048828 C9.750856399536133 18.0311279296875 9.803647994995117 17.999502182006836 9.877607345581055 17.999502182006836 C9.951566696166992 17.999502182006836 10.025524139404297 18.020668029785156 10.109942436218262 18.094379425048828 L10.152151107788086 18.13671112060547 L10.152151107788086 17.88333511352539 L10.141568183898926 17.88333511352539 C10.057149887084961 17.830541610717773 9.972732543945312 17.79891586303711 9.888190269470215 17.79891586303711 C9.687604904174805 17.79891586303711 9.550271034240723 17.936126708984375 9.550271034240723 18.11554527282715 C9.550271034240723 18.28450584411621 9.655855178833008 18.358463287353516 9.824814796447754 18.464048385620117 C9.940982818603516 18.538005828857422 9.993650436401367 18.569631576538086 9.993650436401367 18.64346694946289 C9.993650436401367 18.706966400146484 9.940857887268066 18.74930191040039 9.856440544128418 18.74930191040039 C9.76144027709961 18.74930191040039 9.687480926513672 18.706966400146484 9.592355728149414 18.601383209228516 L9.55014705657959 18.54859161376953 L9.55014705657959 18.83359146118164 L9.560606002807617 18.844051361083984 C9.645147323608398 18.918010711669922 9.740148544311523 18.94988441467285 9.856316566467285 18.94988441467285 C10.056901931762695 18.94988441467285 10.204693794250488 18.82313346862793 10.204693794250488 18.64346694946289 C10.204818725585938 18.45346450805664 10.088775634765625 18.368799209594727 9.940857887268066 18.2740478515625 L9.940857887268066 18.2740478515625 M10.553321838378906 17.81970977783203 L10.553321838378906 18.020544052124023 L10.933448791503906 18.020544052124023 L10.933448791503906 18.928592681884766 L11.14461898803711 18.928592681884766 L11.14461898803711 18.020544052124023 L11.524870872497559 18.020544052124023 L11.524870872497559 17.81970977783203 L10.553321838378906 17.81970977783203 M12.390711784362793 18.4111328125 C12.507003784179688 18.358341217041016 12.570130348205566 18.273921966552734 12.570130348205566 18.136587142944336 C12.570130348205566 17.93600082397461 12.443379402160645 17.81970977783203 12.21116828918457 17.81970977783203 L11.873249053955078 17.81970977783203 L11.873249053955078 18.928592681884766 L12.084417343139648 18.928592681884766 L12.084417343139648 18.463924407958984 L12.094876289367676 18.463924407958984 C12.200709342956543 18.463924407958984 12.24279499053955 18.51671600341797 12.327337265014648 18.643341064453125 L12.517213821411133 18.928592681884766 L12.760132789611816 18.928592681884766 L12.475129127502441 18.506134033203125 C12.47525405883789 18.506256103515625 12.42233657836914 18.44275665283203 12.390711784362793 18.4111328125 M12.084542274475098 18.009836196899414 L12.179667472839355 18.009836196899414 C12.327585220336914 18.009836196899414 12.359086036682129 18.06262969970703 12.359086036682129 18.147294998168945 C12.359086036682129 18.21054458618164 12.337920188903809 18.28450584411621 12.179667472839355 18.28450584411621 L12.084542274475098 18.28450584411621 L12.084542274475098 18.009836196899414 L12.084542274475098 18.009836196899414 M13.531221389770508 17.81970977783203 L13.045384407043457 18.928592681884766 L13.267135620117188 18.928592681884766 C13.267135620117188 18.928592681884766 13.383427619934082 18.654050827026367 13.39388656616211 18.62242317199707 L13.805890083312988 18.62242317199707 C13.827056884765625 18.654050827026367 13.943099021911621 18.928592681884766 13.943099021911621 18.928592681884766 L14.164851188659668 18.928592681884766 L13.6792631149292 17.81970977783203 L13.531221389770508 17.81970977783203 L13.531221389770508 17.81970977783203 M13.721097946166992 18.43229866027832 L13.478428840637207 18.43229866027832 C13.499346733093262 18.379507064819336 13.573305130004883 18.22125244140625 13.605179786682129 18.147294998168945 C13.636680603027344 18.22125244140625 13.700180053710938 18.379507064819336 13.721097946166992 18.43229866027832 M14.808940887451172 17.81970977783203 L14.608355522155762 17.81970977783203 L14.608355522155762 18.928592681884766 L15.31581974029541 18.928592681884766 L15.31581974029541 18.738468170166016 L14.809064865112305 18.738468170166016 L14.808940887451172 17.81970977783203 L14.808940887451172 17.81970977783203 M15.959909439086914 18.928592681884766 L15.959909439086914 17.81970977783203 L15.759198188781738 17.81970977783203 L15.759198188781738 18.928592681884766 L15.959909439086914 18.928592681884766 M17.03691864013672 17.81970977783203 L16.888999938964844 17.81970977783203 L16.41387176513672 18.928592681884766 L16.624914169311523 18.928592681884766 C16.624914169311523 18.928592681884766 16.741207122802734 18.654050827026367 16.751665115356445 18.62242317199707 L17.17412757873535 18.62242317199707 C17.18483543395996 18.654050827026367 17.30087661743164 18.928592681884766 17.30087661743164 18.928592681884766 L17.52263069152832 18.928592681884766 L17.03691864013672 17.81970977783203 M17.07925033569336 18.43229866027832 L16.83633041381836 18.43229866027832 C16.857500076293945 18.379507064819336 16.93145751953125 18.22125244140625 16.963083267211914 18.147294998168945 C16.994585037231445 18.22125244140625 17.05808448791504 18.379507064819336 17.07925033569336 18.43229866027832 M7.184959411621094 17.80925178527832 L6.498537063598633 18.917884826660156 L6.741455554962158 18.917884826660156 L7.184959411621094 18.21054458618164 L7.617879390716553 18.917884826660156 L7.8712568283081055 18.917884826660156 L7.184959411621094 17.80925178527832 M11.197534561157227 10.3331880569458 C11.408702850341797 10.269813537597656 11.619871139526367 10.195854187011719 11.85220718383789 10.111435890197754 C12.095001220703125 10.026893615722656 12.327461242675781 9.942476272583008 12.538629531860352 9.84735107421875 L11.989541053771973 8.474632263183594 L11.197534561157227 10.3331880569458 L11.197534561157227 10.3331880569458 M17.84984016418457 14.261221885681152 L15.632448196411133 9.857934951782227 C15.410696029663086 10.12201976776123 15.136152267456055 10.407022476196289 14.808815002441406 10.734482765197754 A13.464483261108398 13.464483261108398 0.0 0 1 13.974475860595703 11.473697662353516 L14.61868953704834 12.983627319335938 L12.485713005065918 12.983627319335938 L12.306293487548828 12.571873664855957 C10.563904762268066 13.532715797424316 8.758264541625977 14.01855182647705 7.448920249938965 14.261221885681152 L17.84984016418457 14.261221885681152" fill="black" fill-opacity="1.0" filling="0"/>
<path animation_id="6" d="M10.373903274536133 10.576107025146484 L11.989541053771973 6.911909580230713 L13.151217460632324 9.551764488220215 C14.238685607910156 8.970927238464355 14.777190208435059 8.379631042480469 14.851024627685547 8.295212745666504 L12.000123977661133 3.638547897338867 L7.8712568283081055 10.987984657287598 C8.008466720581055 10.987984657287598 8.768848419189453 11.019485473632812 10.373903274536133 10.576107025146484 L10.373903274536133 10.576107025146484" fill="black" fill-opacity="1.0" filling="0"/></svg>