<?xml version="1.0" encoding="iso-8859-1"?><svg height="200px" viewBox="0.0 0.0 24.0 24.0" width="200px" xmlns="http://www.w3.org/2000/svg"><path animation_id="0" d="M15.345874786376953 16.76897430419922 C15.563005447387695 16.2587833404541 15.779864311218262 15.748592376708984 15.998088836669922 15.238401412963867 C15.343416213989258 15.23922061920166 14.689017295837402 15.243043899536133 14.034344673156738 15.254788398742676 C13.317947387695312 15.776450157165527 12.604827880859375 16.30248260498047 11.890341758728027 16.827421188354492 L5.417363166809082 17.12703514099121 L7.6342902183532715 15.541565895080566 C6.7067694664001465 15.740944862365723 6.206411361694336 15.495954513549805 6.206411361694336 15.495954513549805 C5.7410125732421875 15.290567398071289 5.293639183044434 15.049128532409668 4.818681240081787 14.865863800048828 L4.376497745513916 14.736404418945312 A4.9912943840026855 4.9912943840026855 0.0 0 0 3.7469520568847656 14.64627456665039 L3.530914306640625 14.635622024536133 C2.7787370681762695 14.621692657470703 2.0407629013061523 14.738042831420898 1.3006038665771484 14.858216285705566 L-9.5367431640625e-07 15.071523666381836 C0.4640331268310547 14.682052612304688 0.9258813858032227 14.290122985839844 1.3942842483520508 13.90611457824707 L5.646512031555176 10.630295753479004 C6.164350509643555 10.226622581481934 6.6734490394592285 9.816667556762695 7.166706085205078 9.384315490722656 L8.026493072509766 8.565771102905273 A10.700352668762207 10.700352668762207 0.0 0 0 8.852411270141602 7.593459129333496 L9.024751663208008 7.351746559143066 C9.696356773376465 7.256426811218262 10.36468505859375 7.143627643585205 11.041753768920898 7.09719705581665 C11.647263526916504 7.064149379730225 12.228466033935547 7.084360599517822 12.805571556091309 7.299853324890137 C13.053565979003906 7.432590007781982 13.302105903625488 7.565054416656494 13.550646781921387 7.6975178718566895 C13.806288719177246 7.8485541343688965 14.063841819763184 8.003686904907227 14.338329315185547 8.117852210998535 C14.675360679626465 7.857840538024902 14.931002616882324 7.5251784324646 15.421802520751953 7.247140884399414 C15.644668579101562 7.120685577392578 15.884197235107422 7.031647682189941 16.133010864257812 6.965006351470947 A3.7559661865234375 3.7559661865234375 0.0 0 1 16.999351501464844 6.872964382171631 C17.252262115478516 6.880884647369385 17.496158599853516 6.907924175262451 17.746065139770508 6.949711322784424 C18.03584861755371 7.004062652587891 18.319072723388672 7.074254989624023 18.6023006439209 7.156737327575684 C18.802499771118164 7.2143659591674805 19.002696990966797 7.2673516273498535 19.2097225189209 7.296302318572998 C19.328256607055664 7.311324119567871 22.53961944580078 7.362124919891357 24.0 7.385613441467285 L20.941587448120117 15.229660987854004 L20.283090591430664 16.933120727539062 A176.5874786376953 176.5874786376953 0.0 0 0 16.798879623413086 16.805299758911133 L15.345874786376953 16.76897430419922 L15.345874786376953 16.76897430419922" fill="black" fill-opacity="1.0" filling="0"/>
<path animation_id="1" d="M19.50851821899414 7.657369136810303 L23.5236759185791 7.704892158508301 L20.063228607177734 16.596088409423828 L15.83503532409668 16.454065322875977 L16.494895935058594 14.911747932434082 L13.924823760986328 14.929500579833984 L11.777815818786621 16.504318237304688 L8.636919021606445 16.643884658813477 L6.5106682777404785 16.746850967407227 L9.828274726867676 14.375337600708008 L8.65494441986084 14.587006568908691 C8.571916580200195 14.682599067687988 7.40213680267334 15.71581745147705 6.217336177825928 15.143081665039062 C5.780068397521973 14.94151782989502 5.36191987991333 14.718923568725586 4.891604423522949 14.543853759765625 C3.7199134826660156 14.133078575134277 2.4744796752929688 14.334915161132812 1.1219825744628906 14.556417465209961 C2.3879003524780273 13.489877700805664 3.7617006301879883 12.4768705368042 5.118295192718506 11.448294639587402 C6.679184436798096 10.256392478942871 8.235157012939453 9.052473068237305 9.209654808044434 7.655184268951416 C10.25871467590332 7.509064197540283 11.665563583374023 7.230480194091797 12.614659309387207 7.57324743270874 C13.252124786376953 7.841726303100586 13.718616485595703 8.246492385864258 14.389676094055176 8.48847770690918 A9.040593147277832 9.040593147277832 0.0 0 0 15.07002067565918 7.934041500091553 C15.302448272705078 7.725376605987549 15.361715316772461 7.643713474273682 15.671161651611328 7.484210014343262 C16.551158905029297 7.031101703643799 17.548599243164062 7.1906046867370605 18.47475242614746 7.459629535675049 C18.873783111572266 7.5765252113342285 19.154827117919922 7.641254901885986 19.52654457092285 7.644805431365967 L19.50851821899414 7.657369136810303 L19.50851821899414 7.657369136810303" fill="black" fill-opacity="1.0" filling="0"/>
<path animation_id="2" d="M6.097162246704102 14.99450397491455 C6.645317077636719 14.453996658325195 7.19811487197876 13.924687385559082 7.836400032043457 13.532211303710938 C8.146939277648926 13.799870491027832 8.608513832092285 13.90993881225586 9.124441146850586 13.962651252746582 A25.97821807861328 25.97821807861328 0.0 0 1 10.624970436096191 12.700010299682617 C10.229216575622559 12.604964256286621 9.877983093261719 12.471680641174316 9.584650039672852 12.276945114135742 C10.11996841430664 11.90003776550293 10.657744407653809 11.529138565063477 11.199071884155273 11.15386962890625 C11.54648208618164 11.291522979736328 11.906182289123535 11.390939712524414 12.27462387084961 11.456215858459473 C12.874125480651855 11.020040512084961 13.48646354675293 10.58796215057373 14.092519760131836 10.153972625732422 C13.706052780151367 10.098801612854004 13.317400932312012 10.037896156311035 12.91400146484375 9.909255981445312 C13.502577781677246 9.501484870910645 14.022872924804688 9.098630905151367 14.561469078063965 8.659997940063477 C14.536615371704102 8.652077674865723 14.508210182189941 8.648799896240234 14.47707462310791 8.639513969421387 C13.991191864013672 8.480283737182617 13.612372398376465 8.233108520507812 13.226725578308105 8.010515213012695 L11.707623481750488 9.309480667114258 C11.136252403259277 9.11392593383789 10.636713981628418 8.918916702270508 10.051961898803711 8.871394157409668 L11.487214088439941 7.509883880615234 C10.7547025680542 7.516984462738037 10.023283958435059 7.6396164894104 9.288586616516113 7.740398406982422 C8.981871604919434 8.187225341796875 8.611245155334473 8.609197616577148 8.19282341003418 9.022156715393066 C8.826192855834961 8.92711067199707 9.464750289916992 8.817862510681152 10.051961898803711 8.871394157409668 C9.546140670776367 9.367383003234863 9.044689178466797 9.85954761505127 8.536684036254883 10.35007381439209 C7.86890172958374 10.355809211730957 7.197295665740967 10.407702445983887 6.528421401977539 10.4814453125 C6.187565803527832 10.754566192626953 5.8398823738098145 11.02686882019043 5.497115135192871 11.294254302978516 A202.38299560546875 202.38299560546875 0.0 0 0 4.817588806152344 11.805810928344727 C5.438939571380615 11.765115737915039 6.0687575340271 11.731795310974121 6.710320472717285 11.72824478149414 A34.50343322753906 34.50343322753906 0.0 0 0 4.796831130981445 13.022566795349121 C4.202519416809082 13.035130500793457 3.6079330444335938 13.089481353759766 3.020723342895508 13.161858558654785 A48.42525100708008 48.42525100708008 0.0 0 0 1.446451187133789 14.417943954467773 C2.107677459716797 14.310335159301758 2.709090232849121 14.23167610168457 3.2831926345825195 14.223482131958008 C3.738485336303711 13.780205726623535 4.216721057891846 13.354410171508789 4.796831130981445 13.02284049987793 C5.412720680236816 12.995528221130371 6.012221813201904 13.011368751525879 6.589327335357666 13.066812515258789 C5.884674072265625 13.428971290588379 5.288176536560059 13.886723518371582 4.79874324798584 14.424772262573242 C4.922194004058838 14.462736129760742 5.041548252105713 14.504250526428223 5.163633346557617 14.552046775817871 C5.48236608505249 14.685876846313477 5.780068397521973 14.850568771362305 6.097162246704102 14.99450397491455 L6.097162246704102 14.99450397491455" fill="black" fill-opacity="1.0" filling="0"/>
<path animation_id="3" d="M15.58895206451416 10.433375358581543 L17.415042877197266 9.139053344726562 A14.991089820861816 14.991089820861816 0.0 0 0 16.647024154663086 8.98255443572998 C17.23287010192871 8.511146545410156 17.822538375854492 8.035369873046875 18.40838623046875 7.563688278198242 C18.110681533813477 7.483117580413818 17.81024932861328 7.396538257598877 17.478952407836914 7.3424601554870605 A5.032808780670166 5.032808780670166 0.0 0 0 17.064899444580078 7.299853324890137 L16.327472686767578 7.9299445152282715 C16.63910484313965 8.088081359863281 16.775117874145508 8.313406944274902 16.366802215576172 8.582158088684082 L16.06909942626953 8.8271484375 C16.021848678588867 8.859922409057617 15.977058410644531 8.898706436157227 15.926257133483887 8.935304641723633 L16.647024154663086 8.98255443572998 C16.025672912597656 9.390871047973633 15.452937126159668 9.840429306030273 14.903144836425781 10.307466506958008 A7.647946834564209 7.647946834564209 0.0 0 0 14.002662658691406 10.331501007080078 C13.332149505615234 10.80864429473877 12.654808044433594 11.283875465393066 11.998770713806152 11.770851135253906 C12.409273147583008 11.733707427978516 12.818135261535645 11.706395149230957 13.199959754943848 11.707759857177734 C12.540643692016602 12.131098747253418 11.94605827331543 12.636372566223145 11.380970001220703 13.161858558654785 C10.992319107055664 13.142467498779297 10.529924392700195 13.200915336608887 10.031204223632812 13.305248260498047 C9.50107479095459 13.752074241638184 9.348400115966797 13.9205904006958 8.898296356201172 14.391724586486816 L10.023283958435059 14.216107368469238 L11.380970001220703 13.161858558654785 L11.669659614562988 13.218667984008789 L13.751664161682129 11.739442825317383 C13.570038795471191 11.720870018005371 13.386774063110352 11.712130546569824 13.199959754943848 11.707487106323242 A37.54163360595703 37.54163360595703 0.0 0 0 14.903144836425781 10.307193756103516 C15.140213012695312 10.343518257141113 15.369634628295898 10.38721752166748 15.58895206451416 10.433375358581543 L15.58895206451416 10.433375358581543" fill="black" fill-opacity="1.0" filling="0"/>
<path animation_id="4" d="M10.335733413696289 10.496192932128906 C9.775289535522461 10.356355667114258 9.182069778442383 10.300911903381348 8.536684036254883 10.350346565246582 C7.83093786239624 10.738179206848145 7.279232501983643 11.2412691116333 6.710320472717285 11.728517532348633 C7.290703296661377 11.680174827575684 7.836946487426758 11.684545516967773 8.3031644821167 11.84814453125 C8.949369430541992 11.363353729248047 9.565531730651855 10.843330383300781 10.335733413696289 10.496192932128906 L10.335733413696289 10.496192932128906 M8.3031644821167 11.84814453125 C8.822094917297363 11.922980308532715 9.23887825012207 12.071285247802734 9.58492374420166 12.276945114135742 C8.992523193359375 12.604691505432129 8.490798950195312 13.138916015625 7.836400032043457 13.532211303710938 C7.558908939361572 13.321361541748047 7.126010894775391 13.173330307006836 6.589327335357666 13.066812515258789 C7.187190532684326 12.682804107666016 7.724693775177002 12.212215423583984 8.3031644821167 11.84814453125 L8.3031644821167 11.84814453125" fill="black" fill-opacity="1.0" filling="0"/>
<path animation_id="5" d="M12.91400146484375 9.909528732299805 C12.276262283325195 9.808746337890625 11.877504348754883 9.608275413513184 11.707623481750488 9.30975341796875 C11.268444061279297 9.71069622039795 10.817520141601562 10.108087539672852 10.335460662841797 10.496192932128906 C10.700078010559082 10.707589149475098 10.98603630065918 10.925813674926758 11.199071884155273 11.15386962890625 C11.769621849060059 10.740364074707031 12.34017276763916 10.326858520507812 12.91400146484375 9.909528732299805 L12.91400146484375 9.909528732299805" fill="black" fill-opacity="1.0" filling="0"/>
<path animation_id="6" d="M15.400772094726562 7.7726263999938965 C15.132840156555176 8.036734580993652 14.823119163513184 8.294014930725098 14.503294944763184 8.53736686706543 C15.001740455627441 8.700146675109863 16.133556365966797 8.852002143859863 16.432079315185547 8.355194091796875 C16.593765258789062 7.985115051269531 15.83421516418457 7.836810111999512 15.400772094726562 7.7726263999938965 L15.400772094726562 7.7726263999938965 M8.571642875671387 15.945786476135254 C10.411935806274414 14.628793716430664 12.255778312683105 13.314533233642578 14.088969230651855 12.007647514343262 C15.912054061889648 10.707589149475098 17.72940444946289 9.426922798156738 19.541839599609375 8.14980697631836 C20.607833862304688 8.147622108459473 21.65634536743164 8.165102005004883 22.711959838867188 8.183128356933594 C22.207504272460938 9.465705871582031 21.709331512451172 10.749103546142578 21.208152770996094 12.029224395751953 C20.708614349365234 13.305521011352539 20.216724395751953 14.591922760009766 19.721006393432617 15.873682022094727 C18.751697540283203 15.828617095947266 17.770919799804688 15.796661376953125 16.79014015197754 15.773173332214355 A119.93445587158203 119.93445587158203 0.0 0 1 17.46939468383789 14.210371971130371 C16.246082305908203 14.20627498626709 15.028233528137207 14.204090118408203 13.785531044006348 14.230036735534668 A466.6678771972656 466.6678771972656 0.0 0 0 11.631422996520996 15.80813217163086 C10.618961334228516 15.84609603881836 9.595848083496094 15.89498519897461 8.571642875671387 15.945786476135254 L8.571642875671387 15.945786476135254" fill="black" fill-opacity="1.0" filling="0"/>
<path animation_id="7" d="M16.185449600219727 10.90505599975586 L17.50926971435547 11.259840965270996 L19.3673152923584 9.86309814453125 L18.658018112182617 11.567648887634277 L20.60346221923828 12.089037895202637 L18.198352813720703 12.672971725463867 L17.713016510009766 13.839472770690918 L17.227407455444336 12.908401489257812 L14.413984298706055 13.58874797821045 L16.68935775756836 11.876276016235352 L16.185449600219727 10.90505599975586 L16.185449600219727 10.90505599975586" fill="black" fill-opacity="1.0" filling="0"/>
<path animation_id="8" d="M16.452835083007812 11.120002746582031 L17.53849220275879 11.410877227783203 L19.044483184814453 10.278515815734863 L18.469837188720703 11.660510063171387 L20.044654846191406 12.08248233795166 L18.09784698486328 12.55552864074707 L17.69908905029297 13.513365745544434 L17.300058364868164 12.748353004455566 L15.031511306762695 13.297054290771484 L16.86634063720703 11.916424751281738 L16.452835083007812 11.120002746582031 L16.452835083007812 11.120002746582031" fill="black" fill-opacity="1.0" filling="0"/>
<path animation_id="9" d="M17.0837459564209 11.587586402893066 L17.628076553344727 11.733707427978516 L18.172954559326172 11.324297904968262 L17.96510887145996 11.824382781982422 L18.509714126586914 11.96995735168457 L17.83701515197754 12.133283615112305 L17.628894805908203 12.633095741271973 L17.420778274536133 12.233792304992676 L16.746440887451172 12.396845817565918 L17.291044235229492 11.987163543701172 L17.0837459564209 11.587586402893066 L17.0837459564209 11.587586402893066" fill="black" fill-opacity="1.0" filling="0"/></svg>