<?xml version="1.0" encoding="iso-8859-1"?><svg height="200px" viewBox="0.0 0.0 24.0 24.0" width="200px" xmlns="http://www.w3.org/2000/svg"><path animation_id="0" d="M0.0 0.0 L24.0 0.0 L24.0 24.0 L0.0 24.0 L0.0 0.0" fill="black" fill-opacity="1.0" filling="0"/>
<path animation_id="1" d="M1.5436725616455078 11.994024276733398 C1.5436725616455078 6.289485454559326 6.188259124755859 1.6590919494628906 11.922057151794434 1.6590919494628906 C17.655855178833008 1.6590919494628906 22.30044174194336 6.289485454559326 22.30044174194336 11.994024276733398 C22.30044174194336 17.71051597595215 17.655855178833008 22.341033935546875 11.922057151794434 22.341033935546875 C6.188259124755859 22.341033935546875 1.5436725616455078 17.71051597595215 1.5436725616455078 11.994024276733398 L1.5436725616455078 11.994024276733398" fill="black" fill-opacity="1.0" filling="0"/>
<path animation_id="2" d="M1.615513801574707 11.994024276733398 C1.615513801574707 6.301438331604004 6.24827241897583 1.6828737258911133 11.958040237426758 1.6828737258911133 C17.667932510375977 1.6828737258911133 22.300565719604492 6.301438331604004 22.300565719604492 11.994024276733398 C22.300565719604492 17.698562622070312 17.667932510375977 22.317127227783203 11.958040237426758 22.317127227783203 C6.24827241897583 22.317127227783203 1.615513801574707 17.698562622070312 1.615513801574707 11.994024276733398 L1.615513801574707 11.994024276733398" fill="black" fill-opacity="1.0" filling="0"/>
<path animation_id="3" d="M1.6754035949707031 11.994024276733398 C1.6754035949707031 6.313266754150391 6.296084403991699 1.7187328338623047 11.994024276733398 1.7187328338623047 C17.692087173461914 1.7187328338623047 22.312768936157227 6.313391208648682 22.312768936157227 11.994024276733398 C22.312768936157227 17.674781799316406 17.692087173461914 22.28139305114746 11.994024276733398 22.28139305114746 C6.295959949493408 22.28139305114746 1.6754035949707031 17.674781799316406 1.6754035949707031 11.994024276733398" fill="black" fill-opacity="1.0" filling="0"/>
<path animation_id="4" d="M1.7472448348999023 11.994024276733398 C1.7472448348999023 6.337172508239746 6.355973720550537 1.7426385879516602 12.029882431030273 1.7426385879516602 C17.715869903564453 1.7426385879516602 22.312768936157227 6.337296962738037 22.312768936157227 11.994024276733398 C22.312768936157227 17.662826538085938 17.715869903564453 22.257610321044922 12.029882431030273 22.257610321044922 C6.355849266052246 22.257610321044922 1.7472448348999023 17.662826538085938 1.7472448348999023 11.994024276733398 L1.7472448348999023 11.994024276733398" fill="black" fill-opacity="1.0" filling="0"/>
<path animation_id="5" d="M1.8189630508422852 11.994024276733398 C1.8189630508422852 6.349125385284424 6.403660774230957 1.7783727645874023 12.065741539001465 1.7783727645874023 C17.727947235107422 1.7783727645874023 22.324596405029297 6.349125385284424 22.324596405029297 11.994024276733398 C22.324596405029297 17.63904571533203 17.727947235107422 22.221878051757812 12.065741539001465 22.221878051757812 C6.403660774230957 22.221878051757812 1.8189630508422852 17.63904571533203 1.8189630508422852 11.994024276733398 L1.8189630508422852 11.994024276733398" fill="black" fill-opacity="1.0" filling="0"/>
<path animation_id="6" d="M1.8788528442382812 11.994024276733398 C1.8788528442382812 6.3730316162109375 6.463549613952637 1.8022785186767578 12.101724624633789 1.8022785186767578 C17.751853942871094 1.8022785186767578 22.324596405029297 6.3730316162109375 22.324596405029297 11.994024276733398 C22.324596405029297 17.627094268798828 17.751728057861328 22.185768127441406 12.101724624633789 22.185768127441406 C6.463674068450928 22.185894012451172 1.8788528442382812 17.627094268798828 1.8788528442382812 11.994024276733398 L1.8788528442382812 11.994024276733398" fill="black" fill-opacity="1.0" filling="0"/>
<path animation_id="7" d="M1.9506940841674805 11.994024276733398 C1.9506940841674805 6.384984016418457 6.511486053466797 1.8380126953125 12.137707710266113 1.8380126953125 C17.775634765625 1.8380126953125 22.336549758911133 6.384984016418457 22.336549758911133 11.994024276733398 C22.336549758911133 17.615140914916992 17.775634765625 22.1619873046875 12.137707710266113 22.1619873046875 C6.511486053466797 22.1619873046875 1.9506940841674805 17.615264892578125 1.9506940841674805 11.994024276733398 L1.9506940841674805 11.994024276733398" fill="black" fill-opacity="1.0" filling="0"/>
<path animation_id="8" d="M2.0105838775634766 11.994024276733398 C2.0105838775634766 6.396936893463135 6.571250915527344 1.8619194030761719 12.173566818237305 1.8619194030761719 C17.787960052490234 1.8619194030761719 22.336673736572266 6.396936893463135 22.336673736572266 11.994024276733398 C22.336673736572266 17.591110229492188 17.787960052490234 22.126253128051758 12.173566818237305 22.126253128051758 C6.571250915527344 22.126253128051758 2.0105838775634766 17.591110229492188 2.0105838775634766 11.994024276733398 L2.0105838775634766 11.994024276733398" fill="black" fill-opacity="1.0" filling="0"/>
<path animation_id="9" d="M2.082301139831543 11.994024276733398 C2.082301139831543 6.420843124389648 6.619186878204346 1.8977775573730469 12.221378326416016 1.8977775573730469 C17.811616897583008 1.8977775573730469 22.34850311279297 6.420843124389648 22.34850311279297 11.994024276733398 C22.34850311279297 17.57915687561035 17.811616897583008 22.10247230529785 12.221378326416016 22.10247230529785 C6.619186878204346 22.10247230529785 2.082301139831543 17.579282760620117 2.082301139831543 11.994024276733398 L2.082301139831543 11.994024276733398" fill="black" fill-opacity="1.0" filling="0"/>
<path animation_id="10" d="M2.1541433334350586 11.994024276733398 C2.1541433334350586 6.432671546936035 6.667123317718506 1.9215583801269531 12.25736141204834 1.9215583801269531 C17.835771560668945 1.9215583801269531 22.360454559326172 6.432671546936035 22.360454559326172 11.994024276733398 C22.360454559326172 17.555376052856445 17.835771560668945 22.066612243652344 12.25736141204834 22.066612243652344 C6.667123317718506 22.06673812866211 2.1541433334350586 17.555376052856445 2.1541433334350586 11.994024276733398 L2.1541433334350586 11.994024276733398" fill="black" fill-opacity="1.0" filling="0"/>
<path animation_id="11" d="M2.2140321731567383 11.994024276733398 C2.2140321731567383 6.456577301025391 6.727012634277344 1.9574174880981445 12.293220520019531 1.9574174880981445 C17.84772491455078 1.9574174880981445 22.360454559326172 6.456577301025391 22.360454559326172 11.994024276733398 C22.360454559326172 17.54342269897461 17.84772491455078 22.042583465576172 12.293220520019531 22.042583465576172 C6.727012634277344 22.042583465576172 2.2140321731567383 17.54342269897461 2.2140321731567383 11.994024276733398 L2.2140321731567383 11.994024276733398" fill="black" fill-opacity="1.0" filling="0"/>
<path animation_id="12" d="M2.285874366760254 11.994024276733398 C2.285874366760254 6.468530178070068 6.774824142456055 1.9813241958618164 12.329204559326172 1.9813241958618164 C17.87162971496582 1.9813241958618164 22.372657775878906 6.468530178070068 22.372657775878906 11.994024276733398 C22.372657775878906 17.531593322753906 17.87162971496582 22.006847381591797 12.329204559326172 22.006847381591797 C6.774824142456055 22.006847381591797 2.285874366760254 17.531593322753906 2.285874366760254 11.994024276733398 L2.285874366760254 11.994024276733398" fill="black" fill-opacity="1.0" filling="0"/>
<path animation_id="13" d="M2.34576416015625 11.994024276733398 C2.34576416015625 6.480358600616455 6.834713459014893 2.0170583724975586 12.36518669128418 2.0170583724975586 C17.895662307739258 2.0170583724975586 22.372657775878906 6.480483055114746 22.372657775878906 11.994024276733398 C22.372657775878906 17.5076904296875 17.895662307739258 21.98306655883789 12.36518669128418 21.98306655883789 C6.834713459014893 21.98306655883789 2.34576416015625 17.5076904296875 2.34576416015625 11.994024276733398" fill="black" fill-opacity="1.0" filling="0"/>
<path animation_id="14" d="M2.417605400085449 11.994024276733398 C2.417605400085449 6.5042643547058105 6.882525444030762 2.052792549133301 12.400921821594238 2.052792549133301 C17.90761375427246 2.052792549133301 22.38460922241211 6.5042643547058105 22.38460922241211 11.994024276733398 C22.38460922241211 17.495861053466797 17.90761375427246 21.947208404541016 12.400921821594238 21.947208404541016 C6.882525444030762 21.94733428955078 2.417605400085449 17.495861053466797 2.417605400085449 11.994024276733398 L2.417605400085449 11.994024276733398" fill="black" fill-opacity="1.0" filling="0"/>
<path animation_id="15" d="M2.489323616027832 11.994024276733398 C2.489323616027832 6.516217231750488 6.942414283752441 2.0766983032226562 12.436904907226562 2.0766983032226562 C17.931396484375 2.0766983032226562 22.38460922241211 6.516217231750488 22.38460922241211 11.994024276733398 C22.38460922241211 17.471954345703125 17.931396484375 21.923179626464844 12.436904907226562 21.923179626464844 C6.942414283752441 21.923179626464844 2.489323616027832 17.471954345703125 2.489323616027832 11.994024276733398 L2.489323616027832 11.994024276733398" fill="black" fill-opacity="1.0" filling="0"/>
<path animation_id="16" d="M2.5492124557495117 11.994024276733398 C2.5492124557495117 6.540123462677002 6.990350723266602 2.1125574111938477 12.472888946533203 2.1125574111938477 C17.955425262451172 2.1125574111938477 22.396438598632812 6.540247917175293 22.396438598632812 11.994024276733398 C22.396438598632812 17.46000099182129 17.955425262451172 21.88744354248047 12.472888946533203 21.88744354248047 C6.990350723266602 21.88744354248047 2.5492124557495117 17.46000099182129 2.5492124557495117 11.994024276733398 L2.5492124557495117 11.994024276733398" fill="black" fill-opacity="1.0" filling="0"/>
<path animation_id="17" d="M2.6210546493530273 11.994024276733398 C2.6210546493530273 6.551951885223389 7.050115585327148 2.136338233947754 12.508871078491211 2.136338233947754 C17.967376708984375 2.136338233947754 22.396438598632812 6.551951885223389 22.396438598632812 11.994024276733398 C22.396438598632812 17.44792366027832 17.967376708984375 21.851709365844727 12.508871078491211 21.851709365844727 C7.0502400398254395 21.851709365844727 2.6210546493530273 17.44792366027832 2.6210546493530273 11.994024276733398 L2.6210546493530273 11.994024276733398" fill="black" fill-opacity="1.0" filling="0"/>
<path animation_id="18" d="M2.680943489074707 11.994024276733398 C2.680943489074707 6.564029693603516 7.09805154800415 2.1721973419189453 12.544605255126953 2.1721973419189453 C17.991409301757812 2.1721973419189453 22.40839385986328 6.563904762268066 22.40839385986328 11.994024276733398 C22.40839385986328 17.424142837524414 17.991409301757812 21.827802658081055 12.544605255126953 21.827802658081055 C7.09805154800415 21.82792854309082 2.680943489074707 17.42401695251465 2.680943489074707 11.994024276733398 L2.680943489074707 11.994024276733398" fill="black" fill-opacity="1.0" filling="0"/>
<path animation_id="19" d="M2.75266170501709 11.994024276733398 C2.75266170501709 6.587810516357422 7.157815933227539 2.196103096008301 12.580589294433594 2.196103096008301 C18.01519012451172 2.196103096008301 22.40839385986328 6.587810516357422 22.40839385986328 11.994024276733398 C22.40839385986328 17.412189483642578 18.015316009521484 21.792068481445312 12.580589294433594 21.792068481445312 C7.15794038772583 21.792068481445312 2.75266170501709 17.412189483642578 2.75266170501709 11.994024276733398 L2.75266170501709 11.994024276733398" fill="black" fill-opacity="1.0" filling="0"/>
<path animation_id="20" d="M2.824502944946289 11.994024276733398 C2.824502944946289 6.599763870239258 7.205752849578857 2.2318363189697266 12.616572380065918 2.2318363189697266 C18.027143478393555 2.2318363189697266 22.42021942138672 6.599763870239258 22.42021942138672 11.994024276733398 C22.42021942138672 17.38828468322754 18.027143478393555 21.768287658691406 12.616572380065918 21.768287658691406 C7.205877304077148 21.768287658691406 2.824502944946289 17.38828468322754 2.824502944946289 11.994024276733398 L2.824502944946289 11.994024276733398" fill="black" fill-opacity="1.0" filling="0"/>
<path animation_id="21" d="M2.884392738342285 11.994024276733398 C2.884392738342285 6.623669624328613 7.265641689300537 2.2557430267333984 12.652430534362793 2.2557430267333984 C18.051298141479492 2.2557430267333984 22.420345306396484 6.623669624328613 22.420345306396484 11.994024276733398 C22.420345306396484 17.37645721435547 18.051298141479492 21.732553482055664 12.652430534362793 21.732553482055664 C7.265641689300537 21.732553482055664 2.884392738342285 17.37645721435547 2.884392738342285 11.994024276733398 L2.884392738342285 11.994024276733398" fill="black" fill-opacity="1.0" filling="0"/>
<path animation_id="22" d="M2.956234931945801 11.994024276733398 C2.956234931945801 6.635622024536133 7.313577651977539 2.2914772033691406 12.688414573669434 2.2914772033691406 C18.075204849243164 2.2914772033691406 22.43254852294922 6.635622024536133 22.43254852294922 11.994024276733398 C22.43254852294922 17.364501953125 18.075204849243164 21.708396911621094 12.688414573669434 21.708396911621094 C7.313577651977539 21.70852279663086 2.956234931945801 17.364501953125 2.956234931945801 11.994024276733398 L2.956234931945801 11.994024276733398" fill="black" fill-opacity="1.0" filling="0"/>
<path animation_id="23" d="M3.0159997940063477 11.994024276733398 C3.0159997940063477 6.647575378417969 7.361265182495117 2.3155078887939453 12.724273681640625 2.3155078887939453 C18.087156295776367 2.3155078887939453 22.432422637939453 6.647575378417969 22.432422637939453 11.994024276733398 C22.432422637939453 17.340595245361328 18.087282180786133 21.672664642333984 12.724273681640625 21.672664642333984 C7.361389636993408 21.672664642333984 3.0159997940063477 17.340595245361328 3.0159997940063477 11.994024276733398" fill="black" fill-opacity="1.0" filling="0"/>
<path animation_id="24" d="M3.087841033935547 11.994024276733398 C3.087841033935547 6.671356678009033 7.421278953552246 2.3512420654296875 12.760007858276367 2.3512420654296875 C18.11106300354004 2.3512420654296875 22.444252014160156 6.671481132507324 22.444252014160156 11.994024276733398 C22.444252014160156 17.328767776489258 18.110937118530273 21.648883819580078 12.760007858276367 21.648883819580078 C7.421278953552246 21.648883819580078 3.087841033935547 17.328767776489258 3.087841033935547 11.994024276733398 L3.087841033935547 11.994024276733398" fill="black" fill-opacity="1.0" filling="0"/>
<path animation_id="25" d="M3.1598081588745117 11.994024276733398 C3.1598081588745117 6.683309555053711 7.469090461730957 2.37502384185791 12.79611587524414 2.37502384185791 C18.134967803955078 2.37502384185791 22.444374084472656 6.683309555053711 22.444374084472656 11.994024276733398 C22.444374084472656 17.304861068725586 18.134967803955078 21.613147735595703 12.79611587524414 21.613147735595703 C7.469090461730957 21.613147735595703 3.1598081588745117 17.304861068725586 3.1598081588745117 11.994024276733398 L3.1598081588745117 11.994024276733398" fill="black" fill-opacity="1.0" filling="0"/>
<path animation_id="26" d="M3.2195730209350586 11.994024276733398 C3.2195730209350586 6.707215309143066 7.528979778289795 2.410881996154785 12.843927383422852 2.410881996154785 C18.14679718017578 2.410881996154785 22.45620346069336 6.707215309143066 22.45620346069336 11.994024276733398 C22.45620346069336 17.292783737182617 18.14679718017578 21.588993072509766 12.843927383422852 21.588993072509766 C7.528979778289795 21.58911895751953 3.2195730209350586 17.292783737182617 3.2195730209350586 11.994024276733398 L3.2195730209350586 11.994024276733398" fill="black" fill-opacity="1.0" filling="0"/>
<path animation_id="27" d="M3.291415214538574 11.994024276733398 C3.291415214538574 6.719044208526611 7.576791763305664 2.4467411041259766 12.879661560058594 2.4467411041259766 C18.170825958251953 2.4467411041259766 22.45620346069336 6.719044208526611 22.45620346069336 11.994024276733398 C22.45620346069336 17.280832290649414 18.170825958251953 21.553258895874023 12.879661560058594 21.553258895874023 C7.576916217803955 21.553258895874023 3.291415214538574 17.280832290649414 3.291415214538574 11.994024276733398 L3.291415214538574 11.994024276733398" fill="black" fill-opacity="1.0" filling="0"/>
<path animation_id="28" d="M3.291415214538574 11.994024276733398 C3.291415214538574 6.719044208526611 7.576791763305664 2.4467411041259766 12.879661560058594 2.4467411041259766 C18.170825958251953 2.4467411041259766 22.45620346069336 6.719044208526611 22.45620346069336 11.994024276733398 C22.45620346069336 17.280832290649414 18.170825958251953 21.553258895874023 12.879661560058594 21.553258895874023 C7.576916217803955 21.553258895874023 3.291415214538574 17.280832290649414 3.291415214538574 11.994024276733398 L3.291415214538574 11.994024276733398" fill="black" fill-opacity="1.0" filling="0"/>
<path animation_id="29" d="M21.54653549194336 11.349685668945312 C21.54653549194336 11.242234230041504 21.630455017089844 11.15868854522705 21.738155364990234 11.15868854522705 C21.845857620239258 11.15868854522705 21.929527282714844 11.242234230041504 21.929527282714844 11.349685668945312 C21.929527282714844 11.445184707641602 21.845857620239258 11.528606414794922 21.738155364990234 11.528606414794922 C21.630455017089844 11.528606414794922 21.54653549194336 11.445059776306152 21.54653549194336 11.349685668945312 M21.390897750854492 12.149162292480469 C21.390897750854492 12.053539276123047 21.47481918334961 11.970117568969727 21.58251953125 11.970117568969727 C21.678390502929688 11.970117568969727 21.761938095092773 12.053539276123047 21.761938095092773 12.149162292480469 C21.761938095092773 12.244786262512207 21.678266525268555 12.328207969665527 21.58251953125 12.328207969665527 C21.47481918334961 12.328207969665527 21.390897750854492 12.244786262512207 21.390897750854492 12.149162292480469" fill="black" fill-opacity="1.0" filling="0"/>
<path animation_id="30" d="M13.083235740661621 12.041959762573242 C13.083235740661621 11.874743461608887 12.999564170837402 11.755338668823242 12.831974029541016 11.671916961669922 C12.975409507751465 11.588371276855469 13.023345947265625 11.49287223815918 13.023345947265625 11.337732315063477 C13.023345947265625 11.0870943069458 12.784038543701172 10.967689514160156 12.556683540344238 10.967689514160156 L12.05366325378418 10.967689514160156 L12.05366325378418 11.170516967773438 L12.149537086486816 11.170516967773438 L12.149537086486816 12.26856803894043 L12.05366325378418 12.26856803894043 L12.05366325378418 12.483346939086914 L12.556683540344238 12.483346939086914 C12.819896697998047 12.483346939086914 13.083235740661621 12.387972831726074 13.083235740661621 12.041959762573242 L13.083235740661621 12.041959762573242 M12.807943344116211 11.373467445373535 C12.807943344116211 11.516654014587402 12.688289642333984 11.600199699401855 12.508871078491211 11.600199699401855 L12.377015113830566 11.600199699401855 L12.377015113830566 11.170516967773438 L12.532652854919434 11.170516967773438 C12.676461219787598 11.170516967773438 12.807943344116211 11.230280876159668 12.807943344116211 11.373467445373535 M12.855879783630371 12.041959762573242 C12.855879783630371 12.256739616394043 12.688289642333984 12.28052043914795 12.508871078491211 12.28052043914795 C12.460935592651367 12.28052043914795 12.412999153137207 12.26856803894043 12.377015113830566 12.26856803894043 L12.377015113830566 11.791196823120117 L12.532652854919434 11.791196823120117 C12.676461219787598 11.791196823120117 12.855879783630371 11.862666130065918 12.855879783630371 12.041959762573242 L12.855879783630371 12.041959762573242 M17.763805389404297 12.483346939086914 L17.763805389404297 12.26856803894043 L17.656103134155273 12.26856803894043 L17.296894073486328 10.95573616027832 L17.03380584716797 10.95573616027832 L16.686548233032227 12.26856803894043 L16.578845977783203 12.26856803894043 L16.578845977783203 12.483346939086914 L16.854137420654297 12.483346939086914 L16.950010299682617 12.113429069519043 L17.380937576293945 12.113429069519043 L17.48863983154297 12.483346939086914 L17.763805389404297 12.483346939086914 L17.763805389404297 12.483346939086914 M17.33287811279297 11.910602569580078 L16.997821807861328 11.910602569580078 L17.1654109954834 11.301874160766602 L17.33287811279297 11.910602569580078 M22.40839385986328 12.483346939086914 C22.324722290039062 12.35198974609375 22.07333755493164 11.982195854187012 21.977462768554688 11.827055931091309 C22.169082641601562 11.743510246276855 22.264957427978516 11.600323677062988 22.264957427978516 11.433231353759766 C22.264957427978516 11.075141906738281 22.001617431640625 10.967689514160156 21.762062072753906 10.967689514160156 L21.27136993408203 10.967689514160156 L21.27136993408203 11.170516967773438 L21.36724090576172 11.170516967773438 L21.36724090576172 12.26856803894043 L21.27136993408203 12.26856803894043 L21.27136993408203 12.483346939086914 L21.678516387939453 12.483346939086914 L21.678516387939453 12.26856803894043 L21.59459686279297 12.26856803894043 L21.59459686279297 11.874619483947754 C21.618627548217773 11.886571884155273 21.70229721069336 11.886571884155273 21.750232696533203 11.886571884155273 C21.857934951782227 12.053539276123047 22.09724235534668 12.423582077026367 22.133224487304688 12.483222961425781 L22.40839385986328 12.483222961425781 L22.40839385986328 12.483346939086914 L22.40839385986328 12.483346939086914 M22.02527618408203 11.433231353759766 C22.02527618408203 11.588371276855469 21.941604614257812 11.695697784423828 21.666065216064453 11.695697784423828 C21.63033103942871 11.695697784423828 21.606300354003906 11.695697784423828 21.582395553588867 11.683745384216309 L21.582395553588867 11.170516967773438 L21.714000701904297 11.170516967773438 C21.8937931060791 11.170516967773438 22.02527618408203 11.218327522277832 22.02527618408203 11.433231353759766" fill="black" fill-opacity="1.0" filling="0"/>
<path animation_id="31" d="M12.173442840576172 11.278093338012695 C12.173442840576172 11.15868854522705 12.269314765930176 11.063188552856445 12.38884449005127 11.063188552856445 C12.49654483795166 11.063188552856445 12.59241771697998 11.15868854522705 12.59241771697998 11.278093338012695 C12.59241771697998 11.385419845581055 12.49654483795166 11.480918884277344 12.38884449005127 11.480918884277344 C12.269314765930176 11.480918884277344 12.173442840576172 11.385419845581055 12.173442840576172 11.278093338012695 M12.173442840576172 11.89852523803711 C12.173442840576172 11.791196823120117 12.269314765930176 11.695697784423828 12.38884449005127 11.695697784423828 C12.49654483795166 11.695697784423828 12.59241771697998 11.791196823120117 12.59241771697998 11.89852523803711 C12.59241771697998 12.017805099487305 12.49654483795166 12.113429069519043 12.38884449005127 12.113429069519043 C12.269314765930176 12.113429069519043 12.173442840576172 12.017805099487305 12.173442840576172 11.89852523803711" fill="black" fill-opacity="1.0" filling="0"/>
<path animation_id="32" d="M12.855879783630371 11.874743461608887 C12.855879783630371 11.695697784423828 12.772210121154785 11.576417922973633 12.604371070861816 11.5048246383667 C12.748054504394531 11.421278953552246 12.795991897583008 11.313826560974121 12.795991897583008 11.170516967773438 C12.795991897583008 10.919878005981445 12.556683540344238 10.788644790649414 12.317127227783203 10.788644790649414 L11.826309204101562 10.788644790649414 L11.826309204101562 11.003424644470215 L11.922057151794434 11.003424644470215 L11.922057151794434 12.101475715637207 L11.826309204101562 12.101475715637207 L11.826309204101562 12.316254615783691 L12.329079627990723 12.316254615783691 C12.59254264831543 12.316254615783691 12.855879783630371 12.22063159942627 12.855879783630371 11.874743461608887 L12.855879783630371 11.874743461608887 M12.568635940551758 11.206375122070312 C12.568635940551758 11.34956169128418 12.448982238769531 11.433107376098633 12.281143188476562 11.433107376098633 C12.233455657958984 11.433107376098633 12.185270309448242 11.421154022216797 12.149537086486816 11.421154022216797 L12.149537086486816 11.003424644470215 L12.305173873901367 11.003424644470215 C12.448982238769531 11.003548622131348 12.568635940551758 11.051236152648926 12.568635940551758 11.206375122070312 L12.568635940551758 11.206375122070312 M12.628525733947754 11.862666130065918 C12.628525733947754 12.089522361755371 12.460935592651367 12.101475715637207 12.281268119812012 12.101475715637207 L12.14966106414795 12.101475715637207 L12.14966106414795 11.612152099609375 L12.3052978515625 11.612152099609375 C12.448982238769531 11.612152099609375 12.628525733947754 11.683745384216309 12.628525733947754 11.862666130065918 L12.628525733947754 11.862666130065918 M17.524497985839844 12.304302215576172 L17.524497985839844 12.089522361755371 L17.428625106811523 12.089522361755371 L17.069414138793945 10.788644790649414 L16.806076049804688 10.788644790649414 L16.45906639099121 12.089522361755371 L16.351367950439453 12.089522361755371 L16.351367950439453 12.304302215576172 L16.626657485961914 12.304302215576172 L16.722530364990234 11.934383392333984 L17.153459548950195 11.934383392333984 L17.261157989501953 12.304302215576172 L17.524497985839844 12.304302215576172 L17.524497985839844 12.304302215576172 M17.10552215576172 11.731432914733887 L16.770217895507812 11.731432914733887 L16.93805694580078 11.134781837463379 L17.10552215576172 11.731432914733887 M22.180912017822266 12.304302215576172 C22.085041046142578 12.184897422790527 21.845857620239258 11.815102577209473 21.749984741210938 11.659964561462402 C21.941604614257812 11.564464569091797 22.037229537963867 11.421278953552246 22.037229537963867 11.26601505279541 C22.037229537963867 10.896097183227539 21.761938095092773 10.788644790649414 21.534584045410156 10.788644790649414 L21.04389190673828 10.788644790649414 L21.04389190673828 11.003424644470215 L21.13976287841797 11.003424644470215 L21.13976287841797 12.089522361755371 L21.04389190673828 12.101475715637207 L21.04389190673828 12.304302215576172 L21.450786590576172 12.304302215576172 L21.450786590576172 12.089522361755371 L21.354915618896484 12.089522361755371 L21.354915618896484 11.707651138305664 C21.390897750854492 11.707651138305664 21.46286392211914 11.7196044921875 21.522754669189453 11.7196044921875 C21.630455017089844 11.874743461608887 21.869762420654297 12.256739616394043 21.905746459960938 12.304426193237305 L22.180912017822266 12.304426193237305 L22.180912017822266 12.304302215576172 L22.180912017822266 12.304302215576172 M21.797922134399414 11.26601505279541 C21.797922134399414 11.409201622009277 21.714000701904297 11.516654014587402 21.438709259033203 11.516654014587402 L21.35478973388672 11.516654014587402 L21.35478973388672 10.991596221923828 L21.486648559570312 10.991596221923828 C21.666189193725586 10.991596221923828 21.797922134399414 11.051236152648926 21.797922134399414 11.26601505279541" fill="black" fill-opacity="1.0" filling="0"/></svg>