<?xml version="1.0" encoding="iso-8859-1"?><svg height="200px" viewBox="0.0 0.0 24.0 24.0" width="200px" xmlns="http://www.w3.org/2000/svg"><path animation_id="0" d="M0.0 24.0 L24.0 24.0 L24.0 0.0 L0.0 0.0 L0.0 24.0" fill="black" fill-opacity="1.0" filling="0"/>
<path animation_id="1" d="M2.899956703186035 12.05851936340332 L2.5494613647460938 12.844426155090332 L1.1472320556640625 12.844426155090332 L3.1022844314575195 8.319243431091309 L4.544854640960693 8.319243431091309 L6.459441184997559 12.844426155090332 L5.0503644943237305 12.844426155090332 L4.7200398445129395 12.05851936340332 L2.899956703186035 12.05851936340332 M3.8235692977905273 9.717611312866211 L3.810122489929199 9.717611312866211 L3.264023780822754 11.158064842224121 L4.362821578979492 11.158064842224121 L3.8235692977905273 9.717611312866211" fill="black" fill-opacity="1.0" filling="0"/>
<path animation_id="2" d="M6.637863636016846 12.844426155090332 L7.33711051940918 12.844426155090332 L7.33711051940918 8.3115234375 L6.637863636016846 8.3115234375 L6.637863636016846 12.844426155090332" fill="black" fill-opacity="1.0" filling="0"/>
<path animation_id="3" d="M9.481914520263672 11.275851249694824 C9.481914520263672 12.073086738586426 9.271991729736328 12.89472770690918 8.499035835266113 12.89472770690918 C7.726078510284424 12.89472770690918 7.516155242919922 12.072962760925293 7.516155242919922 11.275851249694824 C7.516155242919922 10.478740692138672 7.726078510284424 9.650751113891602 8.499035835266113 9.650751113891602 C9.271991729736328 9.650751113891602 9.481914520263672 10.478740692138672 9.481914520263672 11.275851249694824 L9.481914520263672 11.275851249694824 M8.249642372131348 11.287430763244629 C8.249642372131348 11.46660041809082 8.248272895812988 12.116416931152344 8.499159812927246 12.116416931152344 C8.750046730041504 12.116416931152344 8.7601318359375 11.455020904541016 8.7601318359375 11.275976181030273 C8.7601318359375 11.096931457519531 8.750046730041504 10.435535430908203 8.499159812927246 10.435535430908203 C8.248272895812988 10.435410499572754 8.249642372131348 11.108262062072754 8.249642372131348 11.287430763244629 M10.331819534301758 9.770279884338379 L10.331819534301758 11.654983520507812 C10.331819534301758 11.862666130065918 10.298574447631836 12.102222442626953 10.493059158325195 12.102222442626953 C10.687542915344238 12.102222442626953 10.672103881835938 11.850961685180664 10.672103881835938 11.661707878112793 L10.677332878112793 9.770279884338379 L11.394011497497559 9.770279884338379 L11.394011497497559 11.713627815246582 C11.394011497497559 12.436532020568848 11.112370491027832 12.89472770690918 10.472515106201172 12.89472770690918 C9.653489112854004 12.89472770690918 9.610034942626953 12.164726257324219 9.610034942626953 11.59634017944336 L9.610034942626953 9.770279884338379 L10.331819534301758 9.770279884338379 L10.331819534301758 9.770279884338379 M14.46554183959961 9.08983325958252 L14.46554183959961 9.81062126159668 L14.77395248413086 9.81062126159668 L14.77395248413086 10.440889358520508 L14.46554183959961 10.440889358520508 L14.46554183959961 12.844426155090332 L13.743759155273438 12.844426155090332 L13.743759155273438 10.440889358520508 L13.492871284484863 10.440889358520508 L13.492871284484863 9.81062126159668 L13.743759155273438 9.81062126159668 L13.743759155273438 9.08983325958252 L14.46554183959961 9.08983325958252 M15.940608024597168 9.08983325958252 L15.940608024597168 9.822200775146484 L16.23744010925293 9.822200775146484 L16.23744010925293 10.440889358520508 L15.940608024597168 10.440889358520508 L15.940608024597168 12.844426155090332 L15.218826293945312 12.844426155090332 L15.218826293945312 10.440889358520508 L14.933450698852539 10.440889358520508 L14.933450698852539 9.822200775146484 L15.218826293945312 9.822200775146484 L15.218826293945312 9.08983325958252 L15.940608024597168 9.08983325958252 M17.455020904541016 10.956235885620117 C17.455020904541016 10.668617248535156 17.40770721435547 10.346883773803711 17.182594299316406 10.346883773803711 C16.96233558654785 10.346883773803711 16.92797088623047 10.670734405517578 16.92797088623047 10.93768310546875 L16.92797088623047 11.030318260192871 L17.455020904541016 11.030318260192871 L17.455020904541016 10.956235885620117 L17.455020904541016 10.956235885620117 M18.052791595458984 11.521759033203125 L16.911287307739258 11.521759033203125 C16.916391372680664 11.750482559204102 16.90618133544922 12.337172508239746 17.182594299316406 12.337172508239746 C17.366744995117188 12.337172508239746 17.41293716430664 12.163979530334473 17.41293716430664 11.97870922088623 L18.027393341064453 11.97870922088623 C17.965885162353516 12.553321838378906 17.735416412353516 12.906182289123535 17.208242416381836 12.906182289123535 C16.476125717163086 12.906182289123535 16.215028762817383 12.219635009765625 16.215028762817383 11.447301864624023 C16.215028762817383 10.514971733093262 16.463424682617188 9.760318756103516 17.192928314208984 9.760318756103516 C17.874866485595703 9.760318756103516 18.105335235595703 10.365560531616211 18.06810760498047 11.255681037902832 L18.052791595458984 11.521759033203125 L18.052791595458984 11.521759033203125 M18.848037719726562 9.765921592712402 L18.848037719726562 9.285189628601074 C18.848037719726562 8.713565826416016 18.94527816772461 8.350122451782227 19.54404640197754 8.350122451782227 C19.651622772216797 8.350122451782227 19.840503692626953 8.392579078674316 19.9255428314209 8.418477058410645 L19.9255428314209 9.143497467041016 C19.885326385498047 9.095187187194824 19.837514877319336 9.067296981811523 19.774513244628906 9.065180778503418 C19.68113136291504 9.061943054199219 19.563968658447266 9.102783203125 19.563968658447266 9.28917407989502 L19.563968658447266 9.839507102966309 L19.91408920288086 9.839507102966309 L19.91408920288086 10.487081527709961 L19.563968658447266 10.487081527709961 L19.563968658447266 12.844426155090332 L18.848037719726562 12.844426155090332 L18.848037719726562 9.765921592712402 M20.796363830566406 10.20730972290039 L20.78926658630371 10.21303653717041 C20.9467716217041 9.910228729248047 21.087966918945312 9.789205551147461 21.39513397216797 9.789205551147461 C21.661334991455078 9.789205551147461 21.827802658081055 9.897902488708496 21.82904815673828 10.193861961364746 L21.839134216308594 10.193861961364746 C21.956920623779297 9.915706634521484 22.159000396728516 9.789205551147461 22.43541145324707 9.789205551147461 C22.90132713317871 9.789205551147461 22.924362182617188 10.240303993225098 22.924362182617188 10.688041687011719 L22.924362182617188 12.844426155090332 L22.202579498291016 12.844426155090332 L22.202579498291016 11.151466369628906 C22.202579498291016 10.840814590454102 22.226856231689453 10.533524513244629 22.02353286743164 10.533524513244629 C21.854572296142578 10.533524513244629 21.82904815673828 10.743572235107422 21.82904815673828 10.885762214660645 L21.82904815673828 12.844426155090332 L21.107141494750977 12.844426155090332 L21.107141494750977 11.095809936523438 C21.107141494750977 10.941418647766113 21.14287567138672 10.54585075378418 20.938304901123047 10.54585075378418 C20.78217124938965 10.54585075378418 20.76810073852539 10.697504043579102 20.76810073852539 10.904190063476562 L20.76810073852539 12.844426155090332 L20.04631805419922 12.844426155090332 L20.04631805419922 9.845233917236328 L20.796863555908203 9.845233917236328 L20.796363830566406 10.20730972290039 L20.796363830566406 10.20730972290039 M12.769346237182617 10.956235885620117 C12.769346237182617 10.660150527954102 12.745190620422363 10.32384967803955 12.519828796386719 10.32384967803955 C12.299570083618164 10.32384967803955 12.242171287536621 10.636120796203613 12.242171287536621 10.93768310546875 L12.242171287536621 11.030318260192871 L12.769346237182617 11.030318260192871 L12.769346237182617 10.956235885620117 L12.769346237182617 10.956235885620117 M13.36686897277832 11.521759033203125 L12.225363731384277 11.521759033203125 C12.230466842651367 11.750482559204102 12.231712341308594 12.337172508239746 12.508249282836914 12.337172508239746 C12.692399024963379 12.337172508239746 12.727012634277344 12.163979530334473 12.727012634277344 11.97870922088623 L13.341343879699707 11.97870922088623 C13.27983570098877 12.553321838378906 13.049492835998535 12.906182289123535 12.522317886352539 12.906182289123535 C11.790326118469238 12.906182289123535 11.529229164123535 12.219635009765625 11.529229164123535 11.447301864624023 C11.529229164123535 10.399552345275879 11.765921592712402 9.760318756103516 12.507003784179688 9.760318756103516 C13.246467590332031 9.760318756103516 13.423271179199219 10.273175239562988 13.382308006286621 11.255681037902832 L13.36686897277832 11.521759033203125 L13.36686897277832 11.521759033203125" fill="black" fill-opacity="1.0" filling="0"/>
<path animation_id="4" d="M1.0588302612304688 15.452779769897461 L22.94116973876953 15.452779769897461 L22.94116973876953 13.46796989440918 L1.0588302612304688 13.46796989440918 L1.0588302612304688 15.452779769897461" fill="black" fill-opacity="1.0" filling="0"/>
<path animation_id="5" d="M10.009089469909668 16.393451690673828 C9.999626159667969 16.400049209594727 9.818714141845703 16.335803985595703 9.755213737487793 16.295461654663086 C9.691713333129883 16.25511932373047 9.709020614624023 16.168460845947266 9.749361991882324 16.145427703857422 C10.10147476196289 15.949199676513672 10.493805885314941 15.268256187438965 10.493805885314941 15.268256187438965 C10.43043041229248 15.308597564697266 10.234203338623047 15.377949714660645 10.089896202087402 15.320301055908203 C9.945589065551758 15.262404441833496 9.853327751159668 15.095063209533691 9.830168724060059 15.048870086669922 C9.81447982788086 15.017244338989258 9.722841262817383 14.874556541442871 9.818714141845703 14.517960548400879 C9.922554969787598 14.13135814666748 10.216896057128906 13.90636920928955 10.332192420959473 13.84286880493164 C10.447612762451172 13.77936840057373 10.58619213104248 13.796675682067871 10.638236999511719 13.825562477111816 C10.672103881835938 13.844239234924316 10.834464073181152 13.952312469482422 10.89771556854248 14.027393341064453 C10.96121597290039 14.102596282958984 11.024839401245117 14.235323905944824 11.047750473022461 14.344767570495605 C11.16130256652832 14.814169883728027 10.803461074829102 15.839506149291992 10.009089469909668 16.393451690673828 M10.666998863220215 14.714312553405762 C10.707962036132812 14.618314743041992 10.665255546569824 14.22361946105957 10.67272663116455 14.258358001708984 C10.655420303344727 14.177675247192383 10.54572582244873 14.13135814666748 10.441884994506836 14.223868370056152 C10.344145774841309 14.310651779174805 10.222622871398926 14.466039657592773 10.159124374389648 14.800722122192383 C10.114175796508789 15.037789344787598 10.290606498718262 14.987237930297852 10.332192420959473 14.9624605178833 C10.331819534301758 14.962584495544434 10.602253913879395 14.86534309387207 10.666998863220215 14.714312553405762 L10.666998863220215 14.714312553405762" fill="black" fill-opacity="1.0" filling="0"/>
<path animation_id="6" d="M11.053601264953613 14.114051818847656 C11.03056812286377 14.142936706542969 10.995954513549805 14.165847778320312 11.047750473022461 14.22374439239502 C11.0997953414917 14.281392097473145 11.169022560119629 14.36207389831543 11.220943450927734 14.396937370300293 C11.272863388061523 14.431426048278809 11.330636024475098 14.420096397399902 11.359397888183594 14.391085624694824 C11.388283729553223 14.362198829650879 11.607544898986816 14.235448837280273 11.711386680603027 14.22374439239502 C11.815351486206055 14.212039947509766 11.86727237701416 14.258233070373535 11.83851146697998 14.437278747558594 C11.809624671936035 14.616074562072754 11.532590866088867 15.400983810424805 10.984498977661133 15.966382026672363 C10.920998573303223 16.0184268951416 10.87480640411377 16.070222854614258 10.909420013427734 16.151155471801758 C10.9440336227417 16.23183822631836 10.961339950561523 16.260848999023438 10.961339950561523 16.260848999023438 C10.967191696166992 16.28375816345215 10.990225791931152 16.329952239990234 11.099919319152832 16.312644958496094 C11.209487915039062 16.295337677001953 11.930896759033203 16.28375816345215 12.132851600646973 16.312644958496094 C12.207931518554688 16.324098587036133 12.334807395935059 16.25499725341797 12.300193786621094 16.162609100341797 C12.265704154968262 16.070222854614258 12.219511032104492 15.954927444458008 12.173192977905273 15.920188903808594 C11.930896759033203 15.983689308166504 11.636556625366211 15.995392799377441 11.463363647460938 15.960530281066895 C11.921683311462402 15.403597831726074 12.137707710266113 14.98997688293457 12.230965614318848 14.673846244812012 C12.294465065002441 14.458196640014648 12.277033805847168 14.125754356384277 12.075079917907715 13.958165168762207 C11.848222732543945 13.770279884338379 11.426508903503418 13.778995513916016 11.053601264953613 14.114051818847656 L11.053601264953613 14.114051818847656 M12.530784606933594 15.885700225830078 C12.444375038146973 15.885700225830078 12.432795524597168 15.903007507324219 12.432795524597168 16.0184268951416 C12.432795524597168 16.145427703857422 12.461682319641113 16.220256805419922 12.478864669799805 16.260848999023438 C12.496295928955078 16.301189422607422 12.502148628234863 16.34713363647461 12.628898620605469 16.34713363647461 L12.825125694274902 16.34713363647461 C12.825125694274902 16.34713363647461 12.864346504211426 16.32908058166504 12.854012489318848 16.272178649902344 C12.830729484558105 16.145427703857422 12.842308044433594 15.94895076751709 12.842308044433594 15.94895076751709 C12.848160743713379 15.92579174041748 12.807819366455078 15.885451316833496 12.75577449798584 15.885451316833496 C12.703977584838867 15.885700225830078 12.530784606933594 15.885700225830078 12.530784606933594 15.885700225830078 L12.530784606933594 15.885700225830078 M13.692834854125977 14.782419204711914 C13.846355438232422 14.578596115112305 14.000249862670898 14.330574035644531 14.008092880249023 14.212163925170898 C13.860176086425781 14.226234436035156 13.692461013793945 14.24229621887207 13.511922836303711 14.385358810424805 C13.390898704528809 14.481229782104492 13.457759857177734 14.620556831359863 13.535080909729004 14.673971176147461 C13.555624961853027 14.6882905960083 13.615763664245605 14.727385520935059 13.692834854125977 14.782419204711914 M13.948080062866211 14.981759071350098 C14.04669189453125 15.067546844482422 14.138704299926758 15.161676406860352 14.19261646270752 15.25094985961914 C14.3426513671875 15.498973846435547 14.25039005279541 15.850837707519531 14.054286003112793 16.11081314086914 C13.878229141235352 16.34377098083496 13.478801727294922 16.612960815429688 13.125194549560547 16.306793212890625 C12.738592147827148 15.9721097946167 13.188694953918457 15.348938941955566 13.379195213317871 15.100542068481445 C13.039407730102539 14.907426834106445 13.001431465148926 14.526427268981934 13.269376754760742 14.154268264770508 C13.552139282226562 13.761813163757324 14.048559188842773 13.848347663879395 14.100480079650879 13.854198455810547 C14.152400016784668 13.860051155090332 14.256240844726562 13.865653991699219 14.23308277130127 13.929403305053711 C14.206809997558594 14.001619338989258 14.181161880493164 14.061882019042969 14.134968757629395 14.15439224243164 C14.123514175415039 14.183030128479004 14.129240989685059 14.189130783081055 14.146547317504883 14.20058536529541 C14.169707298278809 14.215900421142578 14.375521659851074 14.326090812683105 14.262092590332031 14.552450180053711 C14.214903831481934 14.646953582763672 14.089397430419922 14.805703163146973 13.948080062866211 14.981759071350098 L13.948080062866211 14.981759071350098 M13.691091537475586 15.306232452392578 C13.555376052856445 15.483036041259766 13.440826416015625 15.649381637573242 13.40795612335205 15.758825302124023 C13.341343879699707 15.980826377868652 13.356035232543945 16.18589210510254 13.59260368347168 16.0127010345459 C13.829048156738281 15.839506149291992 13.852331161499023 15.735665321350098 13.869638442993164 15.706779479980469 C13.883583068847656 15.68362045288086 14.006973266601562 15.561975479125977 13.691091537475586 15.306232452392578 L13.691091537475586 15.306232452392578" fill="black" fill-opacity="1.0" filling="0"/></svg>