<?xml version="1.0" encoding="iso-8859-1"?><svg height="200px" viewBox="0.0 0.0 24.0 24.0" width="200px" xmlns="http://www.w3.org/2000/svg"><path animation_id="0" d="M0.0 0.0 L24.0 0.0 L24.0 24.0 L0.0 24.0 L0.0 0.0" fill="black" fill-opacity="1.0" filling="0"/>
<path animation_id="1" d="M12.034489631652832 12.433170318603516 L12.295088768005371 12.433170318603516 C12.359583854675293 12.433170318603516 12.388470649719238 12.45533275604248 12.388470649719238 12.49978256225586 L12.428563117980957 12.49978256225586 L12.428563117980957 11.93649959564209 L12.388470649719238 11.93649959564209 C12.388470649719238 11.983190536499023 12.359583854675293 12.007844924926758 12.295088768005371 12.007844924926758 L12.025525093078613 12.007844924926758 C12.045571327209473 11.885326385498047 12.076698303222656 11.742762565612793 12.192617416381836 11.678266525268555 C12.245906829833984 11.649255752563477 12.266077041625977 11.598082542419434 12.270435333251953 11.535703659057617 C12.294963836669922 11.546784400939941 12.306169509887695 11.5668306350708 12.306169509887695 11.595842361450195 L12.34389591217041 11.595842361450195 L12.34389591217041 11.052480697631836 C12.4642972946167 10.952250480651855 12.608977317810059 10.905434608459473 12.350744247436523 10.785283088684082 A2.069725275039673 2.069725275039673 0.0 0 1 12.1525239944458 10.676088333129883 L12.270435333251953 10.676088333129883 C12.335180282592773 10.676088333129883 12.364067077636719 10.702857971191406 12.364067077636719 10.75403118133545 L12.404158592224121 10.75403118133545 L12.404158592224121 10.59826946258545 L12.548839569091797 10.687294006347656 C12.548839569091797 10.687294006347656 12.568760871887207 10.607110023498535 12.784785270690918 10.486957550048828 C12.833966255187988 10.460187911987305 12.891738891601562 10.431302070617676 12.953993797302246 10.400050163269043 L12.953993797302246 12.301687240600586 C12.953993797302246 12.3396635055542 12.947394371032715 12.361950874328613 12.938429832458496 12.370790481567383 C12.929465293884277 12.386354446411133 12.905061721801758 12.390960693359375 12.869327545166016 12.390960693359375 L12.869327545166016 12.433294296264648 L13.535205841064453 12.433294296264648 L13.535205841064453 12.390960693359375 C13.510677337646484 12.390960693359375 13.492871284484863 12.388470649719238 13.481666564941406 12.381996154785156 A0.0415862537920475 0.0415862537920475 0.0 0 1 13.45738697052002 12.355226516723633 C13.454896926879883 12.34402084350586 13.450538635253906 12.326340675354004 13.450538635253906 12.301687240600586 L13.450538635253906 11.651497840881348 L13.996265411376953 11.651497840881348 L14.390213012695312 12.288240432739258 C14.414742469787598 12.326215744018555 14.430306434631348 12.350744247436523 14.430306434631348 12.368548393249512 C14.430306434631348 12.381871223449707 14.414742469787598 12.390960693359375 14.387972831726074 12.390960693359375 L14.387972831726074 12.433294296264648 L15.134035110473633 12.433294296264648 L15.134035110473633 12.390960693359375 C15.10265827178955 12.390960693359375 15.08273696899414 12.384112358093262 15.06717300415039 12.372906684875488 C15.053850173950195 12.364191055297852 15.029197692871094 12.341779708862305 15.004919052124023 12.301687240600586 L14.581833839416504 11.618128776550293 C14.822386741638184 11.58251953125 14.986988067626953 11.413186073303223 15.062814712524414 11.192803382873535 C15.138392448425293 11.31532096862793 15.189815521240234 11.370976448059082 15.176368713378906 11.460000991821289 C15.156197547912598 11.580278396606445 14.938056945800781 11.54018497467041 15.018115997314453 11.658221244812012 C15.096183776855469 11.778372764587402 15.234264373779297 11.758451461791992 15.234264373779297 11.758451461791992 C15.234264373779297 11.758451461791992 15.116105079650879 11.896408081054688 15.234264373779297 11.976593017578125 C15.35441780090332 12.056777000427246 15.274357795715332 11.896408081054688 15.43248462677002 11.83851146697998 C15.543671607971191 11.796177864074707 15.577165603637695 11.753844261169434 15.650625228881836 11.809624671936035 L15.430119514465332 12.243789672851562 C15.443441390991211 12.250638008117676 15.456888198852539 12.257112503051758 15.470211029052734 12.266201972961426 C15.472452163696289 12.263960838317871 15.492623329162598 12.239432334899902 15.49909782409668 12.232584953308105 C15.51466178894043 12.214778900146484 15.606050491333008 12.266201972961426 15.612649917602539 12.270560264587402 C15.750731468200684 12.346137046813965 15.946834564208984 12.40428352355957 16.167091369628906 12.437651634216309 C16.173940658569336 12.495549201965332 16.173940658569336 12.571125984191895 16.144929885864258 12.649194717407227 C16.084917068481445 12.807321548461914 15.808629035949707 13.045633316040039 15.846604347229004 13.245969772338867 C15.886696815490723 13.444188117980957 15.866525650024414 13.56209945678711 15.70852279663086 13.742514610290527 C15.550395011901855 13.920562744140625 15.492623329162598 13.99863052368164 15.392393112182617 14.098736763000488 C15.294403076171875 14.198966979980469 15.412313461303711 14.158750534057617 15.15632152557373 14.23656940460205 C14.900205612182617 14.316877365112305 14.860113143920898 14.316877365112305 14.860113143920898 14.47488021850586 C14.860113143920898 14.63537311553955 14.762124061584473 14.833593368530273 14.44599437713623 15.011642456054688 C14.129863739013672 15.189939498901367 13.891551971435547 15.508186340332031 13.575422286987305 15.646392822265625 C13.259291648864746 15.786714553833008 13.101163864135742 15.846729278564453 13.08099365234375 16.04494857788086 C13.063188552856445 16.243167877197266 13.063188552856445 16.323102951049805 12.963083267211914 16.579219818115234 C12.865093231201172 16.83770179748535 13.063313484191895 16.759634017944336 12.905186653137207 16.917762756347656 C12.747058868408203 17.075889587402344 12.410758018493652 17.15607452392578 12.430679321289062 16.917762756347656 C12.450850486755371 16.6794490814209 12.390835762023926 16.54161834716797 12.450850486755371 16.381000518798828 C12.508747100830078 16.22287368774414 12.528668403625488 15.884454727172852 12.686795234680176 15.706406593322754 C12.845047950744629 15.528107643127441 13.063188552856445 14.793500900268555 13.08099365234375 14.515097618103027 C13.101163864135742 14.236693382263184 13.201395034790039 13.760318756103516 12.983004570007324 13.602191925048828 C12.767105102539062 13.444064140319824 12.430679321289062 13.464110374450684 12.430679321289062 13.16565990447998 C12.430679321289062 12.867210388183594 12.034364700317383 12.847289085388184 12.074457168579102 12.709207534790039 C12.094752311706543 12.637988090515137 12.06350040435791 12.535640716552734 12.034489631652832 12.433170318603516 L12.034489631652832 12.433170318603516" fill="black" fill-opacity="1.0" filling="0"/>
<path animation_id="2" d="M11.883086204528809 10.676213264465332 L11.54018497467041 10.676213264465332 A4.187636375427246 4.187636375427246 0.0 0 0 11.96327018737793 10.889995574951172 C11.92765998840332 10.814168930053711 11.901015281677246 10.743074417114258 11.883086204528809 10.676213264465332 L11.883086204528809 10.676213264465332" fill="black" fill-opacity="1.0" filling="0"/>
<path animation_id="3" d="M10.856627464294434 10.250887870788574 L11.745128631591797 10.250887870788574 C11.67166805267334 10.135093688964844 11.613771438598633 10.005976676940918 11.511300086975098 9.992528915405273 C11.368735313415527 9.974724769592285 11.219573020935059 9.936873435974121 11.0592041015625 9.787711143493652 C11.09033203125 9.709768295288086 11.112743377685547 9.627342224121094 11.152710914611816 9.551640510559082 C11.261781692504883 9.344581604003906 11.123825073242188 9.268878936767578 10.983502388000488 9.353421211242676 C10.896595001220703 9.406960487365723 10.858867645263672 9.493743896484375 10.792007446289062 9.567203521728516 C10.671854972839355 9.702919960021973 10.540372848510742 9.658470153808594 10.431302070617676 9.678516387939453 C10.348875999450684 9.694080352783203 10.295462608337402 9.573802947998047 10.244288444519043 9.5048246383667 C10.193114280700684 9.435846328735352 10.19759750366211 9.328892707824707 10.135217666625977 9.268754959106445 C10.061756134033203 9.201892852783203 10.03722858428955 9.119466781616211 10.104090690612793 9.032683372497559 C10.166345596313477 8.954740524291992 10.315631866455078 8.836706161499023 10.244288444519043 8.765485763549805 C10.124135971069336 8.64296817779541 10.195356369018555 8.576231002807617 10.33779525756836 8.560543060302734 C10.451348304748535 8.549461364746094 10.555935859680176 8.438024520874023 10.667372703552246 8.467036247253418 C10.816534996032715 8.50712776184082 10.967938423156738 8.446990966796875 11.121583938598633 8.420345306396484 C11.255183219909668 8.395816802978516 11.411069869995117 8.364688873291016 11.526863098144531 8.435908317565918 C11.669426918029785 8.522815704345703 11.700553894042969 8.729751586914062 11.82294750213623 8.843429565429688 C11.854074478149414 8.872316360473633 11.94770622253418 8.870074272155762 11.94770622253418 8.827865600585938 C11.954305648803711 8.671979904174805 11.8474760055542 8.529540061950684 11.838635444641113 8.373653411865234 C11.818589210510254 8.066364288330078 12.050177574157715 8.02178955078125 12.183775901794434 7.901512622833252 C12.326340675354004 7.77015495300293 12.370790481567383 7.560853958129883 12.495549201965332 7.413808345794678 C12.573368072509766 7.322542667388916 12.660150527954102 7.217830181121826 12.778310775756836 7.193301200866699 C12.876299858093262 7.171014308929443 12.916391372680664 7.099794864654541 12.871692657470703 7.019610404968262 C12.838324546813965 6.957231044769287 12.693643569946289 6.9461493492126465 12.71580696105957 6.8792877197265625 C12.749424934387207 6.772458553314209 12.871692657470703 6.656540393829346 12.980887413024902 6.674345016479492 C13.188072204589844 6.705472469329834 13.27485466003418 6.594160556793213 13.136774063110352 6.469526290893555 C13.052107810974121 6.389342308044434 12.90966796875 6.418228626251221 12.79387378692627 6.40714693069458 C12.609101295471191 6.389342308044434 12.473137855529785 6.2690653800964355 12.230466842651367 6.547469139099121 C12.148042678833008 6.64321756362915 11.961029052734375 6.645458698272705 11.854199409484863 6.578596591949463 C11.751852989196777 6.516217231750488 11.66718578338623 6.393700122833252 11.448920249938965 6.42271089553833 C11.304240226745605 6.440515995025635 11.161675453186035 6.322480201721191 11.0592041015625 6.217767715454102 C10.889995574951172 6.044076442718506 10.774201393127441 5.995019435882568 10.544855117797852 5.879225730895996 C10.190749168395996 5.932764530181885 9.827802658081055 6.1064558029174805 9.471580505371094 6.260100841522217 C9.46485710144043 6.536139011383057 9.322418212890625 6.491689205169678 9.195417404174805 6.752163410186768 C9.146361351013184 6.854635238647461 9.112993240356445 6.9681878089904785 9.055095672607422 7.066176891326904 C8.954864501953125 7.2398681640625 8.821266174316406 7.393513202667236 8.725643157958984 7.5694451332092285 C8.629894256591797 7.7498602867126465 8.616572380065918 7.959160804748535 8.725643157958984 8.103840827941895 C8.836954116821289 8.250762939453125 8.792379379272461 8.442258834838867 8.805827140808105 8.62491512298584 C8.810310363769531 8.700615882873535 8.852518081665039 8.769594192504883 8.868206024169922 8.843055725097656 C8.910539627075195 9.059080123901367 9.122081756591797 9.419784545898438 9.117599487304688 9.22169017791748 C9.110876083374023 8.95449161529541 8.868206024169922 8.696134567260742 8.868206024169922 8.388843536376953 C8.868206024169922 8.330947875976562 9.02857494354248 8.330947875976562 9.039655685424805 8.388843536376953 C9.077507019042969 8.59814453125 9.146486282348633 8.881031036376953 9.384798049926758 9.206002235412598 C9.420408248901367 9.257299423217773 9.40932559967041 9.332877159118652 9.400361061096191 9.395256042480469 C9.375833511352539 9.553382873535156 9.491626739501953 9.595717430114746 9.66531753540039 9.724834442138672 C9.850090026855469 9.8629150390625 10.052791595458984 9.934135437011719 10.275415420532227 9.89852523803711 C10.43802547454834 9.871755599975586 10.55817699432373 10.065492630004883 10.698500633239746 10.15015983581543 C10.751914024353027 10.184025764465332 10.80321216583252 10.217517852783203 10.856627464294434 10.250887870788574 L10.856627464294434 10.250887870788574" fill="black" fill-opacity="1.0" filling="0"/>
<path animation_id="4" d="M12.034489631652832 12.433170318603516 L12.295088768005371 12.433170318603516 C12.359583854675293 12.433170318603516 12.388470649719238 12.45533275604248 12.388470649719238 12.49978256225586 L12.428563117980957 12.49978256225586 L12.428563117980957 11.93649959564209 L12.388470649719238 11.93649959564209 C12.388470649719238 11.983190536499023 12.359583854675293 12.007844924926758 12.295088768005371 12.007844924926758 L12.025525093078613 12.007844924926758 C12.045571327209473 11.885326385498047 12.076698303222656 11.742762565612793 12.192617416381836 11.678266525268555 C12.245906829833984 11.649255752563477 12.266077041625977 11.598082542419434 12.270435333251953 11.535703659057617 C12.294963836669922 11.546784400939941 12.306169509887695 11.5668306350708 12.306169509887695 11.595842361450195 L12.34389591217041 11.595842361450195 L12.34389591217041 11.052480697631836 C12.4642972946167 10.952250480651855 12.608977317810059 10.905434608459473 12.350744247436523 10.785283088684082 A2.069725275039673 2.069725275039673 0.0 0 1 12.1525239944458 10.676088333129883 L12.270435333251953 10.676088333129883 C12.335180282592773 10.676088333129883 12.364067077636719 10.702857971191406 12.364067077636719 10.75403118133545 L12.404158592224121 10.75403118133545 L12.404158592224121 10.59826946258545 L12.548839569091797 10.687294006347656 C12.548839569091797 10.687294006347656 12.568760871887207 10.607110023498535 12.784785270690918 10.486957550048828 C12.833966255187988 10.460187911987305 12.891738891601562 10.431302070617676 12.953993797302246 10.400050163269043 L12.953993797302246 12.301687240600586 C12.953993797302246 12.3396635055542 12.947394371032715 12.361950874328613 12.938429832458496 12.370790481567383 C12.929465293884277 12.386354446411133 12.905061721801758 12.390960693359375 12.869327545166016 12.390960693359375 L12.869327545166016 12.433294296264648 L13.535205841064453 12.433294296264648 L13.535205841064453 12.390960693359375 C13.510677337646484 12.390960693359375 13.492871284484863 12.388470649719238 13.481666564941406 12.381996154785156 A0.0415862537920475 0.0415862537920475 0.0 0 1 13.45738697052002 12.355226516723633 C13.454896926879883 12.34402084350586 13.450538635253906 12.326340675354004 13.450538635253906 12.301687240600586 L13.450538635253906 11.651497840881348 L13.996265411376953 11.651497840881348 L14.390213012695312 12.288240432739258 C14.414742469787598 12.326215744018555 14.430306434631348 12.350744247436523 14.430306434631348 12.368548393249512 C14.430306434631348 12.381871223449707 14.414742469787598 12.390960693359375 14.387972831726074 12.390960693359375 L14.387972831726074 12.433294296264648 L15.134035110473633 12.433294296264648 L15.134035110473633 12.390960693359375 C15.10265827178955 12.390960693359375 15.08273696899414 12.384112358093262 15.06717300415039 12.372906684875488 C15.053850173950195 12.364191055297852 15.029197692871094 12.341779708862305 15.004919052124023 12.301687240600586 L14.581833839416504 11.618128776550293 C14.822386741638184 11.58251953125 14.986988067626953 11.413186073303223 15.062814712524414 11.192803382873535 C15.138392448425293 11.31532096862793 15.189815521240234 11.370976448059082 15.176368713378906 11.460000991821289 C15.156197547912598 11.580278396606445 14.938056945800781 11.54018497467041 15.018115997314453 11.658221244812012 C15.096183776855469 11.778372764587402 15.234264373779297 11.758451461791992 15.234264373779297 11.758451461791992 C15.234264373779297 11.758451461791992 15.116105079650879 11.896408081054688 15.234264373779297 11.976593017578125 C15.35441780090332 12.056777000427246 15.274357795715332 11.896408081054688 15.43248462677002 11.83851146697998 C15.543671607971191 11.796177864074707 15.577165603637695 11.753844261169434 15.650625228881836 11.809624671936035 L15.430119514465332 12.243789672851562 C15.443441390991211 12.250638008117676 15.456888198852539 12.257112503051758 15.470211029052734 12.266201972961426 C15.472452163696289 12.263960838317871 15.492623329162598 12.239432334899902 15.49909782409668 12.232584953308105 C15.51466178894043 12.214778900146484 15.606050491333008 12.266201972961426 15.612649917602539 12.270560264587402 C15.750731468200684 12.346137046813965 15.946834564208984 12.40428352355957 16.167091369628906 12.437651634216309 C16.173940658569336 12.495549201965332 16.173940658569336 12.571125984191895 16.144929885864258 12.649194717407227 C16.084917068481445 12.807321548461914 15.808629035949707 13.045633316040039 15.846604347229004 13.245969772338867 C15.886696815490723 13.444188117980957 15.866525650024414 13.56209945678711 15.70852279663086 13.742514610290527 C15.550395011901855 13.920562744140625 15.492623329162598 13.99863052368164 15.392393112182617 14.098736763000488 C15.294403076171875 14.198966979980469 15.412313461303711 14.158750534057617 15.15632152557373 14.23656940460205 C14.900205612182617 14.316877365112305 14.860113143920898 14.316877365112305 14.860113143920898 14.47488021850586 C14.860113143920898 14.63537311553955 14.762124061584473 14.833593368530273 14.44599437713623 15.011642456054688 C14.129863739013672 15.189939498901367 13.891551971435547 15.508186340332031 13.575422286987305 15.646392822265625 C13.259291648864746 15.786714553833008 13.101163864135742 15.846729278564453 13.08099365234375 16.04494857788086 C13.063188552856445 16.243167877197266 13.063188552856445 16.323102951049805 12.963083267211914 16.579219818115234 C12.865093231201172 16.83770179748535 13.063313484191895 16.759634017944336 12.905186653137207 16.917762756347656 A0.5465977787971497 0.5465977787971497 0.0 0 1 12.762621879577637 17.017990112304688 C15.468094825744629 16.612836837768555 17.556745529174805 14.245657920837402 17.556745529174805 11.402104377746582 C17.556745529174805 8.275789260864258 15.033929824829102 5.726203441619873 11.940857887268066 5.726203441619873 C11.47108268737793 5.726203441619873 11.014629364013672 5.784100532531738 10.575858116149902 5.895411968231201 C10.785283088684082 6.002241611480713 10.896470069885254 6.053539276123047 11.059080123901367 6.218266010284424 C11.161551475524902 6.322978496551514 11.304115295410156 6.44088888168335 11.448795318603516 6.423208713531494 C11.667061805725098 6.394197940826416 11.751728057861328 6.5167155265808105 11.854074478149414 6.579094886779785 C11.960904121398926 6.645832061767578 12.147917747497559 6.643715858459473 12.230342864990234 6.547967433929443 C12.473012924194336 6.269563674926758 12.608977317810059 6.389840126037598 12.793749809265137 6.407645225524902 C12.909543991088867 6.418725967407227 13.051983833312988 6.389840126037598 13.136650085449219 6.470024585723877 C13.274730682373047 6.594658851623535 13.187947273254395 6.706094741821289 12.98076343536377 6.6748433113098145 C12.87156867980957 6.65703821182251 12.749300003051758 6.772831916809082 12.715682029724121 6.879786014556885 C12.693519592285156 6.946647644042969 12.838199615478516 6.957729339599609 12.87156867980957 7.020108699798584 C12.916267395019531 7.100292682647705 12.876174926757812 7.171512126922607 12.778185844421387 7.1937994956970215 C12.660026550292969 7.21832799911499 12.573243141174316 7.32304048538208 12.495424270629883 7.414306163787842 C12.37066650390625 7.561352252960205 12.326215744018555 7.770653247833252 12.1836519241333 7.902010917663574 C12.050052642822266 8.022287368774414 11.818465232849121 8.06673812866211 11.83851146697998 8.374152183532715 C11.84735107421875 8.529913902282715 11.954305648803711 8.672477722167969 11.94758129119873 8.828363418579102 C11.94758129119873 8.870697021484375 11.854074478149414 8.87293815612793 11.822823524475098 8.843927383422852 C11.700429916381836 8.730249404907227 11.669178009033203 8.5233154296875 11.526739120483398 8.436407089233398 C11.410944938659668 8.36518669128418 11.255058288574219 8.39631462097168 11.121459007263184 8.420843124389648 C10.967814445495605 8.447612762451172 10.816411018371582 8.5076265335083 10.667248725891113 8.467535018920898 C10.555811882019043 8.43852424621582 10.451223373413086 8.549959182739258 10.33767032623291 8.561040878295898 C10.195232391357422 8.576604843139648 10.124011993408203 8.643465995788574 10.244163513183594 8.765983581542969 C10.315507888793945 8.837203979492188 10.166220664978027 8.955239295959473 10.103965759277344 9.033182144165039 C10.037103652954102 9.119965553283691 10.06163215637207 9.202390670776367 10.135093688964844 9.26925277709961 C10.19747257232666 9.329390525817871 10.19299030303955 9.436220169067383 10.244163513183594 9.50532341003418 C10.295336723327637 9.574426651000977 10.34875202178955 9.694578170776367 10.431177139282227 9.679014205932617 C10.540247917175293 9.658967971801758 10.671730041503906 9.703417778015137 10.791882514953613 9.567702293395996 C10.858743667602539 9.494241714477539 10.896470069885254 9.407333374023438 10.983377456665039 9.35391902923584 C11.123700141906738 9.269376754760742 11.261656761169434 9.34507942199707 11.152586936950684 9.552139282226562 C11.112494468688965 9.627840042114258 11.09020709991455 9.71026611328125 11.059080123901367 9.788208961486816 C11.219449043273926 9.937371253967285 11.368611335754395 9.97522258758545 11.511175155639648 9.993027687072754 C11.613646507263184 10.006349563598633 11.67154312133789 10.135591506958008 11.745004653930664 10.251385688781738 L10.856502532958984 10.251385688781738 C10.803088188171387 10.218016624450684 10.751789093017578 10.184523582458496 10.698375701904297 10.151154518127441 C10.558052062988281 10.066488265991211 10.43790054321289 9.872751235961914 10.275291442871094 9.899520874023438 C10.052543640136719 9.93513011932373 9.849966049194336 9.863910675048828 9.665193557739258 9.725830078125 C9.49150276184082 9.596712112426758 9.37570858001709 9.5543794631958 9.400237083435059 9.396252632141113 C9.409076690673828 9.33387279510498 9.420282363891602 9.258296012878418 9.384673118591309 9.20699691772461 C9.146361351013184 8.881902694702148 9.077383041381836 8.599141120910645 9.039531707763672 8.389841079711914 C9.028450965881348 8.33194351196289 8.868082046508789 8.33194351196289 8.868082046508789 8.389841079711914 C8.868082046508789 8.69713020324707 9.110751152038574 8.955364227294922 9.117474555969238 9.222685813903809 C9.121957778930664 9.420906066894531 8.910415649414062 9.060075759887695 8.868082046508789 8.844051361083984 C8.852518081665039 8.770591735839844 8.810185432434082 8.701488494873047 8.805702209472656 8.625910758972168 C8.792379379272461 8.443254470825195 8.836830139160156 8.251758575439453 8.725519180297852 8.104837417602539 C8.616448402404785 7.9600324630737305 8.629770278930664 7.750731468200684 8.725519180297852 7.570441246032715 C8.821266174316406 7.394509315490723 8.954864501953125 7.240988731384277 9.054970741271973 7.067173004150391 C9.112868309020996 6.969183921813965 9.146236419677734 6.855631351470947 9.195293426513672 6.753159523010254 C9.315569877624512 6.510490417480469 9.446928024291992 6.532652854919434 9.469215393066406 6.307788372039795 C7.609786510467529 7.236382007598877 6.327336311340332 9.173629760742188 6.327336311340332 11.402603149414062 C6.327336311340332 14.528918266296387 8.850152969360352 17.078502655029297 11.940857887268066 17.078502655029297 C12.125755310058594 17.078502655029297 12.308411598205566 17.069786071777344 12.490942001342773 17.051982879638672 C12.448609352111816 17.029571533203125 12.424079895019531 16.98723793029785 12.430679321289062 16.918258666992188 C12.450850486755371 16.679946899414062 12.390835762023926 16.542116165161133 12.450850486755371 16.38149642944336 C12.508747100830078 16.223371505737305 12.528668403625488 15.884953498840332 12.686795234680176 15.706904411315918 C12.845047950744629 15.528606414794922 13.063188552856445 14.793998718261719 13.08099365234375 14.515595436096191 C13.101163864135742 14.237191200256348 13.201395034790039 13.76081657409668 12.983004570007324 13.602689743041992 C12.767105102539062 13.444562911987305 12.430679321289062 13.464608192443848 12.430679321289062 13.166158676147461 C12.430679321289062 12.867708206176758 12.034364700317383 12.847786903381348 12.074457168579102 12.70970630645752 C12.094752311706543 12.637988090515137 12.06350040435791 12.535640716552734 12.034489631652832 12.433170318603516 L12.034489631652832 12.433170318603516" fill="black" fill-opacity="1.0" filling="0"/>
<path animation_id="5" d="M1.5665817260742188 10.382245063781738 C1.5665817260742188 10.34875202178955 1.5733051300048828 10.324347496032715 1.5845108032226562 10.313142776489258 C1.5978336334228516 10.297578811645508 1.6201210021972656 10.293095588684082 1.653489112854004 10.293095588684082 L1.653489112854004 10.250762939453125 L1.0588302612304688 10.250762939453125 L1.0588302612304688 10.293095588684082 C1.0944404602050781 10.293095588684082 1.1167278289794922 10.297578811645508 1.125692367553711 10.310900688171387 C1.1367740631103516 10.324223518371582 1.141256332397461 10.34875202178955 1.141256332397461 10.382121086120605 L1.141256332397461 11.69594669342041 C1.141256332397461 11.880719184875488 1.183588981628418 12.029882431030273 1.2704973220825195 12.14343547821045 C1.3572807312011719 12.256988525390625 1.4797983169555664 12.3394136428833 1.6445245742797852 12.388346672058105 C1.809250831604004 12.439643859863281 2.0074710845947266 12.464173316955566 2.2435407638549805 12.464173316955566 C2.606487274169922 12.464173316955566 2.8825254440307617 12.404158592224121 3.0674219131469727 12.283757209777832 C3.2544355392456055 12.167963981628418 3.345701217651367 11.971985816955566 3.345701217651367 11.69594669342041 L3.345701217651367 10.382245063781738 C3.345701217651367 10.34875202178955 3.3524246215820312 10.324347496032715 3.361265182495117 10.311025619506836 C3.3745880126953125 10.29770278930664 3.39687442779541 10.293220520019531 3.4302425384521484 10.293220520019531 L3.4302425384521484 10.250887870788574 L2.8335933685302734 10.250887870788574 L2.8335933685302734 10.293220520019531 C2.8714447021484375 10.293220520019531 2.893731117248535 10.29770278930664 2.9070539474487305 10.311025619506836 C2.9158935546875 10.324347496032715 2.922616958618164 10.348875999450684 2.922616958618164 10.382245063781738 L2.922616958618164 11.62248706817627 C2.922616958618164 11.745004653930664 2.902571678161621 11.842992782592773 2.864720344543457 11.909730911254883 C2.8246278762817383 11.978833198547363 2.760007858276367 12.029882431030273 2.6597766876220703 12.061009407043457 C2.561788558959961 12.094627380371094 2.4237060546875 12.110191345214844 2.2434167861938477 12.110191345214844 C2.1098175048828125 12.110191345214844 1.9985065460205078 12.101226806640625 1.9115982055664062 12.08342170715332 C1.8225736618041992 12.065616607666016 1.7534704208374023 12.03672981262207 1.704538345336914 11.996638298034668 A0.29907241463661194 0.29907241463661194 0.0 0 1 1.5977096557617188 11.84735107421875 C1.5754222869873047 11.789453506469727 1.5665817260742188 11.713752746582031 1.5665817260742188 11.62248706817627 L1.5665817260742188 10.382245063781738 L1.5665817260742188 10.382245063781738 M6.017805099487305 10.382245063781738 C6.017805099487305 10.34875202178955 6.024528980255127 10.32883071899414 6.035609722137451 10.313142776489258 C6.046815395355225 10.297578811645508 6.066737174987793 10.293095588684082 6.093506813049316 10.293095588684082 L6.093506813049316 10.250762939453125 L5.592479705810547 10.250762939453125 L5.592479705810547 10.293095588684082 C5.623607158660889 10.293095588684082 5.646018981933594 10.297578811645508 5.6548590660095215 10.310900688171387 C5.66382360458374 10.321982383728027 5.665940761566162 10.346510887145996 5.665940761566162 10.382121086120605 L5.665940761566162 11.758326530456543 L4.450102806091309 10.375521659851074 C4.430057048797607 10.350993156433105 4.418975353240967 10.33767032623291 4.418975353240967 10.331071853637695 C4.418975353240967 10.304302215576172 4.4435038566589355 10.293220520019531 4.4946770668029785 10.293220520019531 L4.4946770668029785 10.250887870788574 L3.897902488708496 10.250887870788574 L3.897902488708496 10.293220520019531 C3.9290294647216797 10.293220520019531 3.9469594955444336 10.29770278930664 3.9535579681396484 10.311025619506836 C3.962397575378418 10.322107315063477 3.964639663696289 10.346634864807129 3.964639663696289 10.382245063781738 L3.964639663696289 12.301687240600586 C3.964639663696289 12.3396635055542 3.962397575378418 12.361950874328613 3.9535579681396484 12.372906684875488 C3.9468345642089844 12.386229515075684 3.9290294647216797 12.390960693359375 3.897902488708496 12.390960693359375 L3.897902488708496 12.433294296264648 L4.394446849822998 12.433294296264648 L4.394446849822998 12.390960693359375 C4.363319396972656 12.390960693359375 4.343273639678955 12.386354446411133 4.3321919441223145 12.370790481567383 C4.323227405548096 12.359583854675293 4.318869590759277 12.335305213928223 4.318869590759277 12.301687240600586 L4.318869590759277 10.838698387145996 L5.579281806945801 12.288240432739258 C5.592604160308838 12.301563262939453 5.6038103103637695 12.315009117126465 5.612774848937988 12.323974609375 C5.621615409851074 12.332939147949219 5.626097679138184 12.341779708862305 5.630579948425293 12.348503112792969 A0.048060763627290726 0.048060763627290726 0.0 0 1 5.632821083068848 12.368424415588379 C5.632821083068848 12.381747245788574 5.612774848937988 12.390835762023926 5.577165126800537 12.390835762023926 L5.577165126800537 12.433170318603516 L6.093756198883057 12.433170318603516 L6.093756198883057 12.390835762023926 C6.067111015319824 12.390835762023926 6.047064781188965 12.386229515075684 6.035859107971191 12.37066650390625 C6.024777412414551 12.3551025390625 6.018054008483887 12.335180282592773 6.018054008483887 12.301563262939453 L6.018054008483887 10.382245063781738 L6.017805099487305 10.382245063781738 L6.017805099487305 10.382245063781738 M7.124447822570801 10.382245063781738 C7.124447822570801 10.34875202178955 7.131170749664307 10.324347496032715 7.146734714508057 10.311025619506836 C7.160057544708252 10.29770278930664 7.191309452056885 10.293220520019531 7.235759258270264 10.293220520019531 L7.235759258270264 10.250887870788574 L6.592292785644531 10.250887870788574 L6.592292785644531 10.293220520019531 C6.636743068695068 10.293220520019531 6.6657538414001465 10.29770278930664 6.681317329406738 10.311025619506836 C6.69252347946167 10.324347496032715 6.699122428894043 10.348875999450684 6.699122428894043 10.382245063781738 L6.699122428894043 12.301687240600586 C6.699122428894043 12.3396635055542 6.69252347946167 12.361950874328613 6.681317329406738 12.370790481567383 C6.6657538414001465 12.386354446411133 6.636743068695068 12.390960693359375 6.592292785644531 12.390960693359375 L6.592292785644531 12.433294296264648 L7.235759258270264 12.433294296264648 L7.235759258270264 12.390960693359375 C7.191309452056885 12.390960693359375 7.160057544708252 12.386354446411133 7.146734714508057 12.370790481567383 C7.131170749664307 12.359583854675293 7.124447822570801 12.335305213928223 7.124447822570801 12.301687240600586 L7.124447822570801 10.382245063781738 M9.571686744689941 10.250887870788574 L9.571686744689941 10.293220520019531 C9.58949089050293 10.293220520019531 9.605179786682129 10.295462608337402 9.61613655090332 10.304302215576172 A0.04694017395377159 0.04694017395377159 0.0 0 1 9.63170051574707 10.33767032623291 A0.08852642774581909 0.08852642774581909 0.0 0 1 9.625101089477539 10.36879825592041 C9.6228609085083 10.382121086120605 9.61613655090332 10.395566940307617 9.609538078308105 10.411130905151367 C9.598455429077148 10.426694869995117 9.5917329788208 10.440017700195312 9.582767486572266 10.455581665039062 L8.903692245483398 11.863039016723633 L8.21116828918457 10.471269607543945 C8.171076774597168 10.391085624694824 8.151155471801758 10.346634864807129 8.151155471801758 10.33767032623291 C8.151155471801758 10.324347496032715 8.157877922058105 10.313142776489258 8.1712007522583 10.304302215576172 C8.18016529083252 10.295462608337402 8.19797134399414 10.293220520019531 8.21353530883789 10.293220520019531 L8.21353530883789 10.250887870788574 L7.521010875701904 10.250887870788574 L7.521010875701904 10.293220520019531 C7.563344478607178 10.29770278930664 7.596713066101074 10.306543350219727 7.616883754730225 10.322107315063477 C7.632447242736816 10.33767032623291 7.650252342224121 10.364439964294434 7.6702985763549805 10.404532432556152 L8.581087112426758 12.266201972961426 A0.07669800519943237 0.07669800519943237 0.0 0 0 8.594409942626953 12.29297161102295 C8.596651077270508 12.299570083618164 8.603374481201172 12.3085355758667 8.607732772827148 12.321857452392578 C8.609973907470703 12.333064079284668 8.612214088439941 12.34402084350586 8.612214088439941 12.355226516723633 C8.612214088439941 12.368548393249512 8.609973907470703 12.377638816833496 8.607732772827148 12.379755020141602 C8.598891258239746 12.381996154785156 8.585445404052734 12.388470649719238 8.563282012939453 12.390960693359375 L8.563282012939453 12.433294296264648 L9.206748962402344 12.433294296264648 L9.206748962402344 12.390960693359375 C9.16441535949707 12.390960693359375 9.139886856079102 12.377638816833496 9.139886856079102 12.348628044128418 C9.139886856079102 12.335305213928223 9.151092529296875 12.3085355758667 9.171013832092285 12.266201972961426 L10.06163215637207 10.409014701843262 C10.083919525146484 10.364563941955566 10.099483489990234 10.333312034606934 10.117288589477539 10.319990158081055 C10.132852554321289 10.3020601272583 10.159622192382812 10.293220520019531 10.19299030303955 10.293220520019531 L10.19299030303955 10.250887870788574 L9.571686744689941 10.250887870788574 L9.571686744689941 10.250887870788574 M10.482475280761719 12.433170318603516 L12.295088768005371 12.433170318603516 C12.359583854675293 12.433170318603516 12.388470649719238 12.45533275604248 12.388470649719238 12.49978256225586 L12.428563117980957 12.49978256225586 L12.428563117980957 11.93649959564209 L12.388470649719238 11.93649959564209 C12.388470649719238 11.983190536499023 12.359583854675293 12.007844924926758 12.295088768005371 12.007844924926758 L11.048123359680176 12.007844924926758 L11.048123359680176 11.524621963500977 L12.212662696838379 11.524621963500977 C12.274917602539062 11.524621963500977 12.306293487548828 11.549025535583496 12.306293487548828 11.595842361450195 L12.34402084350586 11.595842361450195 L12.34402084350586 11.048123359680176 L12.306293487548828 11.048123359680176 A0.09163916856050491 0.09163916856050491 0.0 0 1 12.283882141113281 11.11037826538086 C12.270560264587402 11.121459007263184 12.243789672851562 11.128183364868164 12.212662696838379 11.128183364868164 L11.048123359680176 11.128183364868164 L11.048123359680176 10.676088333129883 L12.270560264587402 10.676088333129883 C12.335305213928223 10.676088333129883 12.364191055297852 10.702857971191406 12.364191055297852 10.75403118133545 L12.40428352355957 10.75403118133545 L12.40428352355957 10.181784629821777 L12.364191055297852 10.181784629821777 C12.364191055297852 10.226234436035156 12.335305213928223 10.250762939453125 12.270560264587402 10.250762939453125 L10.482475280761719 10.250762939453125 L10.482475280761719 10.293095588684082 C10.511361122131348 10.293095588684082 10.531532287597656 10.297578811645508 10.540372848510742 10.310900688171387 C10.547096252441406 10.324223518371582 10.553695678710938 10.34875202178955 10.553695678710938 10.382121086120605 L10.553695678710938 12.301563262939453 C10.553695678710938 12.33953857421875 10.546971321105957 12.361824989318848 10.540372848510742 12.37066650390625 C10.531532287597656 12.386229515075684 10.511486053466797 12.390835762023926 10.482475280761719 12.390835762023926 L10.482475280761719 12.433170318603516 L10.482475280761719 12.433170318603516 M13.450663566589355 11.651497840881348 L13.996389389038086 11.651497840881348 L14.390337944030762 12.288240432739258 C14.414867401123047 12.326215744018555 14.43043041229248 12.350744247436523 14.43043041229248 12.368548393249512 C14.43043041229248 12.381871223449707 14.414867401123047 12.390960693359375 14.388096809387207 12.390960693359375 L14.388096809387207 12.433294296264648 L15.134160041809082 12.433294296264648 L15.134160041809082 12.390960693359375 C15.102782249450684 12.390960693359375 15.082860946655273 12.384112358093262 15.06729793548584 12.372906684875488 C15.053975105285645 12.364191055297852 15.029322624206543 12.341779708862305 15.005043029785156 12.301687240600586 L14.581958770751953 11.618128776550293 C14.929216384887695 11.56695556640625 15.116230010986328 11.239619255065918 15.109630584716797 10.876673698425293 C15.102782249450684 10.351118087768555 14.704227447509766 10.250887870788574 14.31463623046875 10.250887870788574 L12.869451522827148 10.250887870788574 L12.869451522827148 10.293220520019531 C12.905186653137207 10.293220520019531 12.929465293884277 10.29770278930664 12.938554763793945 10.311025619506836 C12.947643280029297 10.324347496032715 12.954118728637695 10.348875999450684 12.954118728637695 10.382245063781738 L12.954118728637695 12.301687240600586 C12.954118728637695 12.3396635055542 12.947519302368164 12.361950874328613 12.938554763793945 12.370790481567383 C12.929590225219727 12.386354446411133 12.905186653137207 12.390960693359375 12.869451522827148 12.390960693359375 L12.869451522827148 12.433294296264648 L13.535329818725586 12.433294296264648 L13.535329818725586 12.390960693359375 C13.510801315307617 12.390960693359375 13.492997169494629 12.388470649719238 13.481790542602539 12.381996154785156 A0.0415862537920475 0.0415862537920475 0.0 0 1 13.457510948181152 12.355226516723633 C13.455021858215332 12.34402084350586 13.450663566589355 12.326340675354004 13.450663566589355 12.301687240600586 L13.450663566589355 11.651497840881348 L13.450663566589355 11.651497840881348" fill="black" fill-opacity="1.0" filling="0"/>
<path animation_id="6" d="M13.461869239807129 10.649442672729492 L14.149785041809082 10.649442672729492 C14.328083038330078 10.649442672729492 14.53962516784668 10.707340240478516 14.53962516784668 10.921122550964355 C14.53962516784668 11.132665634155273 14.323725700378418 11.19504451751709 14.149785041809082 11.19504451751709 L13.461869239807129 11.19504451751709 L13.461869239807129 10.649442672729492" fill="black" fill-opacity="1.0" filling="0"/>
<path animation_id="7" d="M17.692834854125977 10.440141677856445 L17.643653869628906 10.42681884765625 C17.587997436523438 10.478116989135742 17.4765625 10.40241527557373 17.427753448486328 10.382369995117188 C17.03604507446289 10.217643737792969 16.610719680786133 10.179792404174805 16.194110870361328 10.262092590332031 C15.831289291381836 10.335554122924805 15.483782768249512 10.531532287597656 15.483782768249512 10.9345703125 C15.483782768249512 11.157194137573242 15.566207885742188 11.304240226745605 15.722095489501953 11.382058143615723 C16.127498626708984 11.58251953125 16.659526824951172 11.486770629882812 17.09830093383789 11.56695556640625 C17.29863739013672 11.602564811706543 17.33885383605957 11.818589210510254 17.20973777770996 11.945465087890625 C16.960220336914062 12.194857597351074 16.136337280273438 12.132354736328125 15.846978187561035 11.961029052734375 C15.740023612976074 11.89653205871582 15.737783432006836 11.856440544128418 15.737783432006836 11.758576393127441 C15.722219467163086 11.751852989196777 15.704414367675781 11.743012428283691 15.688850402832031 11.736289024353027 C15.601818084716797 11.905497550964355 15.517400741577148 12.074706077575684 15.430368423461914 12.243914604187012 C15.44369125366211 12.250762939453125 15.457137107849121 12.257237434387207 15.470459938049316 12.266325950622559 C15.472701072692871 12.26408576965332 15.49287223815918 12.239557266235352 15.499346733093262 12.232708930969238 C15.514910697937012 12.214903831481934 15.606300354003906 12.266325950622559 15.612898826599121 12.270684242248535 C16.171947479248047 12.582456588745117 17.750732421875 12.589056015014648 17.750732421875 11.763057708740234 C17.750732421875 11.266512870788574 17.363380432128906 11.1306734085083 16.915645599365234 11.114984512329102 A15.882462501525879 15.882462501525879 0.0 0 1 16.25200843811035 11.081616401672363 C15.76878547668457 11.050488471984863 15.871132850646973 10.709705352783203 16.22772789001465 10.616198539733887 C16.563779830932617 10.527174949645996 17.058208465576172 10.562784194946289 17.352176666259766 10.761003494262695 C17.410072326660156 10.801095962524414 17.416671752929688 10.807695388793945 17.405715942382812 10.865592002868652 C17.421279907226562 10.874556541442871 17.439083099365234 10.883397102355957 17.454647064208984 10.892361640930176 L17.692834854125977 10.440141677856445 L17.692834854125977 10.440141677856445 M18.518831253051758 12.433170318603516 L18.518831253051758 12.390835762023926 C18.485214233398438 12.388346672058105 18.46965217590332 12.372782707214355 18.46965217590332 12.348503112792969 C18.46965217590332 12.332939147949219 18.492061614990234 12.281641006469727 18.54336166381836 12.192617416381836 C18.590051651000977 12.10334300994873 18.64794921875 11.994397163391113 18.71480941772461 11.860673904418945 L19.861419677734375 11.860673904418945 C19.99950408935547 12.11890697479248 20.077571868896484 12.263836860656738 20.0931339263916 12.297080039978027 C20.110939025878906 12.330449104309082 20.117412567138672 12.350619316101074 20.117412567138672 12.361824989318848 C20.117412567138672 12.381747245788574 20.095251083374023 12.390711784362793 20.05739974975586 12.390711784362793 L20.05739974975586 12.433045387268066 L20.723278045654297 12.433045387268066 L20.723278045654297 12.390711784362793 C20.698749542236328 12.390711784362793 20.683185577392578 12.388221740722656 20.66973876953125 12.381747245788574 C20.651931762695312 12.377388954162598 20.642969131469727 12.36394214630127 20.63201141357422 12.350619316101074 C20.623046875 12.33505630493164 20.609600067138672 12.3082857131958 20.5919189453125 12.274792671203613 L19.620868682861328 10.413372993469238 C19.6009464263916 10.382245063781738 19.591981887817383 10.355475425720215 19.591981887817383 10.33767032623291 C19.591981887817383 10.313142776489258 19.614395141601562 10.297578811645508 19.66108512878418 10.293220520019531 L19.66108512878418 10.250887870788574 L18.930835723876953 10.250887870788574 L18.930835723876953 10.293220520019531 C18.97752571105957 10.293220520019531 19.002056121826172 10.315507888793945 19.002056121826172 10.346634864807129 C19.002056121826172 10.359957695007324 18.988731384277344 10.391209602355957 18.964078903198242 10.435660362243652 L18.05117416381836 12.274792671203613 C18.031002044677734 12.321733474731445 18.01108169555664 12.352860450744629 17.993276596069336 12.368424415588379 C17.977712631225586 12.381747245788574 17.953184127807617 12.388346672058105 17.92417335510254 12.390835762023926 L17.92417335510254 12.433170318603516 L18.518831253051758 12.433170318603516 M21.04625701904297 12.433170318603516 L22.52916717529297 12.433170318603516 C22.598270416259766 12.433170318603516 22.631513595581055 12.45533275604248 22.631513595581055 12.49978256225586 L22.671607971191406 12.49978256225586 L22.671607971191406 12.007844924926758 L22.631513595581055 12.007844924926758 C22.631513595581055 12.056777000427246 22.59814453125 12.07906436920166 22.52916717529297 12.07906436920166 L21.549400329589844 12.07906436920166 L21.549400329589844 10.382245063781738 C21.549400329589844 10.34875202178955 21.553756713867188 10.324347496032715 21.564964294433594 10.311025619506836 C21.576168060302734 10.29770278930664 21.600696563720703 10.293220520019531 21.640789031982422 10.293220520019531 L21.640789031982422 10.250887870788574 L21.04625701904297 10.250887870788574 L21.04625701904297 10.293220520019531 C21.07962417602539 10.293220520019531 21.101909637451172 10.29770278930664 21.108510971069336 10.311025619506836 C21.11971664428711 10.324347496032715 21.124074935913086 10.348875999450684 21.124074935913086 10.382245063781738 L21.124074935913086 12.301687240600586 C21.124074935913086 12.3396635055542 21.117473602294922 12.361950874328613 21.108510971069336 12.370790481567383 C21.099544525146484 12.384112358093262 21.07962417602539 12.390960693359375 21.04625701904297 12.390960693359375 L21.04625701904297 12.433170318603516 L21.04625701904297 12.433170318603516" fill="black" fill-opacity="1.0" filling="0"/>
<path animation_id="8" d="M3.958040237426758 18.26931381225586 L3.958040237426758 18.25811004638672 C3.9492006301879883 18.25811004638672 3.9469594955444336 18.25586700439453 3.9469594955444336 18.251510620117188 C3.9469594955444336 18.24715232849121 3.9469594955444336 18.24030303955078 3.9536819458007812 18.23158836364746 L3.9759693145751953 18.184648513793945 L4.136338233947754 18.184648513793945 L4.160866737365723 18.233829498291016 A0.06735977530479431 0.06735977530479431 0.0 0 1 4.165349006652832 18.25163459777832 C4.165349006652832 18.253875732421875 4.165349006652832 18.255992889404297 4.163107872009277 18.255992889404297 C4.160866737365723 18.25823402404785 4.158625602722168 18.25823402404785 4.156384468078613 18.25823402404785 L4.156384468078613 18.269439697265625 L4.269937038421631 18.269439697265625 L4.269937038421631 18.25823402404785 C4.258856296539307 18.253875732421875 4.252132415771484 18.2495174407959 4.24989128112793 18.2426700592041 L4.11405086517334 17.970989227294922 C4.107327461242676 17.960033416748047 4.102845191955566 17.953184127807617 4.102845191955566 17.948827743530273 C4.102845191955566 17.941978454589844 4.107327461242676 17.937620162963867 4.118408679962158 17.935504913330078 L4.118408679962158 17.922182083129883 L4.006972789764404 17.922182083129883 L4.006972789764404 17.935504913330078 C4.015937805175781 17.937746047973633 4.0202956199646 17.939861297607422 4.0202956199646 17.948827743530273 A0.06387349963188171 0.06387349963188171 0.0 0 1 4.009214401245117 17.975597381591797 L3.8889379501342773 18.233829498291016 C3.8800973892211914 18.249393463134766 3.8733739852905273 18.25811004638672 3.8644094467163086 18.25811004638672 L3.8644094467163086 18.26931381225586 L3.958040237426758 18.26931381225586 L3.958040237426758 18.26931381225586 M5.100417137145996 18.26931381225586 L5.100417137145996 18.25811004638672 C5.089335918426514 18.25811004638672 5.084853649139404 18.25374984741211 5.084853649139404 18.24715232849121 L5.084853649139404 18.02664566040039 L5.2986369132995605 18.23607063293457 C5.305360317230225 18.245037078857422 5.309842586517334 18.249393463134766 5.309842586517334 18.253875732421875 C5.309842586517334 18.256114959716797 5.307601451873779 18.25823402404785 5.300878047943115 18.25823402404785 L5.300878047943115 18.269439697265625 L5.414430618286133 18.269439697265625 L5.414430618286133 18.25823402404785 C5.405590534210205 18.25823402404785 5.401108264923096 18.253875732421875 5.401108264923096 18.247276306152344 L5.401108264923096 17.94671058654785 C5.401108264923096 17.94210433959961 5.401108264923096 17.939861297607422 5.40334939956665 17.937746047973633 C5.40783166885376 17.935504913330078 5.4100728034973145 17.935504913330078 5.414430618286133 17.935504913330078 L5.414430618286133 17.922182083129883 L5.307601451873779 17.922182083129883 L5.307601451873779 17.935504913330078 C5.320924282073975 17.935504913330078 5.325406551361084 17.937746047973633 5.325406551361084 17.94671058654785 L5.325406551361084 18.155887603759766 L5.125070095062256 17.960155487060547 C5.116230010986328 17.95119285583496 5.111747741699219 17.94434356689453 5.111747741699219 17.94210433959961 C5.111747741699219 17.937746047973633 5.113988876342773 17.935504913330078 5.116230010986328 17.935504913330078 L5.116230010986328 17.922182083129883 L4.995953559875488 17.922182083129883 L4.995953559875488 17.935504913330078 C5.000435829162598 17.935504913330078 5.004793643951416 17.935504913330078 5.004793643951416 17.937746047973633 C5.009275913238525 17.939987182617188 5.009275913238525 17.94210433959961 5.009275913238525 17.94671058654785 L5.009275913238525 18.247276306152344 C5.009275913238525 18.253875732421875 5.004793643951416 18.25823402404785 4.995953559875488 18.25823402404785 L4.995953559875488 18.269439697265625 L5.100417137145996 18.269439697265625 L5.100417137145996 18.26931381225586 M7.322667121887207 18.26931381225586 L7.322667121887207 18.25811004638672 C7.30934476852417 18.25811004638672 7.302621364593506 18.25374984741211 7.302621364593506 18.24715232849121 L7.302621364593506 18.02664566040039 L7.304862022399902 18.02664566040039 L7.447425842285156 18.26931381225586 L7.449666976928711 18.26931381225586 L7.598829746246338 18.02664566040039 L7.598829746246338 18.24715232849121 C7.598829746246338 18.25374984741211 7.592106342315674 18.25811004638672 7.5787835121154785 18.25811004638672 L7.5787835121154785 18.26931381225586 L7.694577693939209 18.26931381225586 L7.694577693939209 18.25811004638672 C7.6900954246521 18.25811004638672 7.687854290008545 18.25811004638672 7.6833720207214355 18.25586700439453 C7.681130886077881 18.25362777709961 7.681130886077881 18.251510620117188 7.681130886077881 18.24715232849121 L7.681130886077881 17.944095611572266 C7.681130886077881 17.937496185302734 7.685488700866699 17.935380935668945 7.694453239440918 17.935380935668945 L7.694453239440918 17.922056198120117 L7.558613300323486 17.922056198120117 L7.558613300323486 17.935380935668945 C7.565211772918701 17.935380935668945 7.569694519042969 17.937620162963867 7.569694519042969 17.941978454589844 C7.569694519042969 17.94422149658203 7.565211772918701 17.953184127807617 7.558613300323486 17.964391708374023 L7.451783657073975 18.13359832763672 L7.347071170806885 17.962148666381836 A0.04743821546435356 0.04743821546435356 0.0 0 1 7.340472221374512 17.950942993164062 C7.338231086730957 17.94658660888672 7.338231086730957 17.944095611572266 7.338231086730957 17.941978454589844 C7.338231086730957 17.939861297607422 7.340472221374512 17.937620162963867 7.342713356018066 17.937620162963867 C7.344954490661621 17.935380935668945 7.347195625305176 17.935380935668945 7.3494367599487305 17.935380935668945 L7.3494367599487305 17.922056198120117 L7.213596820831299 17.922056198120117 L7.213596820831299 17.935380935668945 C7.222436904907227 17.935380935668945 7.226919174194336 17.937620162963867 7.226919174194336 17.944095611572266 L7.226919174194336 18.24715232849121 C7.226919174194336 18.251510620117188 7.226919174194336 18.25374984741211 7.224678039550781 18.25586700439453 C7.220195293426514 18.25811004638672 7.217954635620117 18.25811004638672 7.213596820831299 18.25811004638672 L7.213596820831299 18.26931381225586 L7.322667121887207 18.26931381225586 M8.836954116821289 18.14704704284668 L8.825873374938965 18.153644561767578 C8.82811450958252 18.155887603759766 8.830355644226074 18.158002853393555 8.830355644226074 18.160493850708008 C8.830355644226074 18.169208526611328 8.821391105651855 18.176057815551758 8.80806827545166 18.184772491455078 A0.224989116191864 0.224989116191864 0.0 0 1 8.750171661376953 18.20494270324707 C8.727884292602539 18.211544036865234 8.705720901489258 18.213659286499023 8.685550689697266 18.213659286499023 C8.658781051635742 18.213659286499023 8.634377479553223 18.209300994873047 8.609848976135254 18.198095321655273 A0.12699992954730988 0.12699992954730988 0.0 0 1 8.554193496704102 18.158002853393555 A0.10583328455686569 0.10583328455686569 0.0 0 1 8.534147262573242 18.093505859375 C8.534147262573242 18.075702667236328 8.538629531860352 18.060138702392578 8.547470092773438 18.044574737548828 A0.08889995515346527 0.08889995515346527 0.0 0 1 8.580838203430176 18.00659942626953 C8.594161033630371 17.997634887695312 8.609724044799805 17.988794326782227 8.62752914428711 17.984188079833984 C8.645334243774414 17.977588653564453 8.665380477905273 17.97547149658203 8.685426712036133 17.97547149658203 C8.712196350097656 17.97547149658203 8.738965034484863 17.979829788208008 8.767851829528809 17.988794326782227 C8.7944974899292 17.997509002685547 8.810185432434082 18.00871467590332 8.812301635742188 18.017681121826172 C8.812301635742188 18.02203941345215 8.814542770385742 18.026397705078125 8.814542770385742 18.026397705078125 L8.821142196655273 18.031002044677734 L8.876797676086426 17.950695037841797 L8.865716934204102 17.941730499267578 C8.861233711242676 17.948577880859375 8.858993530273438 17.950695037841797 8.856876373291016 17.950695037841797 C8.854635238647461 17.950695037841797 8.850152969360352 17.948453903198242 8.839071273803711 17.94633674621582 A0.18576852977275848 0.18576852977275848 0.0 0 0 8.805578231811523 17.935131072998047 A0.4659154713153839 0.4659154713153839 0.0 0 0 8.685300827026367 17.919567108154297 C8.654173851013184 17.919567108154297 8.625164031982422 17.92180824279785 8.598518371582031 17.930524826049805 A0.2166469544172287 0.2166469544172287 0.0 0 0 8.522815704345703 17.964141845703125 A0.16597148776054382 0.16597148776054382 0.0 0 0 8.473884582519531 18.01979637145996 C8.460561752319336 18.041961669921875 8.456079483032227 18.06648826599121 8.456079483032227 18.095373153686523 C8.456079483032227 18.1242618560791 8.460561752319336 18.148914337158203 8.473884582519531 18.17095184326172 C8.484966278076172 18.193363189697266 8.50277042388916 18.213285446166992 8.525057792663574 18.228849411010742 C8.547345161437988 18.242170333862305 8.571748733520508 18.255619049072266 8.598518371582031 18.262466430664062 C8.625164031982422 18.269065856933594 8.654173851013184 18.273672103881836 8.685300827026367 18.273672103881836 C8.714187622070312 18.273672103881836 8.740958213806152 18.269065856933594 8.765485763549805 18.262466430664062 C8.790014266967773 18.255619049072266 8.814542770385742 18.246902465820312 8.836706161499023 18.235698699951172 C8.856752395629883 18.22673225402832 8.870074272155762 18.222373962402344 8.870074272155762 18.222373962402344 L8.878913879394531 18.222373962402344 L8.883397102355957 18.218015670776367 L8.836954116821289 18.14704704284668 M9.787711143493652 18.26931381225586 L9.787711143493652 18.25811004638672 C9.778871536254883 18.25811004638672 9.774388313293457 18.25586700439453 9.774388313293457 18.251510620117188 C9.774388313293457 18.24715232849121 9.776630401611328 18.24030303955078 9.781111717224121 18.23158836364746 L9.80564022064209 18.184648513793945 L9.963768005371094 18.184648513793945 L9.990537643432617 18.233829498291016 A0.06648819893598557 0.06648819893598557 0.0 0 1 9.994895935058594 18.25163459777832 C9.994895935058594 18.253875732421875 9.992653846740723 18.255992889404297 9.990537643432617 18.255992889404297 C9.988296508789062 18.25823402404785 9.986055374145508 18.25823402404785 9.983813285827637 18.25823402404785 L9.983813285827637 18.269439697265625 L10.099607467651367 18.269439697265625 L10.099607467651367 18.25823402404785 C10.088526725769043 18.253875732421875 10.081803321838379 18.2495174407959 10.077320098876953 18.2426700592041 L9.94148063659668 17.970989227294922 C9.934757232666016 17.960033416748047 9.932640075683594 17.953184127807617 9.932640075683594 17.948827743530273 C9.932640075683594 17.941978454589844 9.93699836730957 17.937620162963867 9.945962905883789 17.935504913330078 L9.945962905883789 17.922182083129883 L9.834650993347168 17.922182083129883 L9.834650993347168 17.935504913330078 C9.845731735229492 17.937746047973633 9.850214958190918 17.939861297607422 9.850214958190918 17.948827743530273 C9.850214958190918 17.951066970825195 9.845731735229492 17.962148666381836 9.839134216308594 17.975597381591797 L9.716615676879883 18.233829498291016 C9.710017204284668 18.249393463134766 9.70105266571045 18.25811004638672 9.694328308105469 18.25811004638672 L9.694328308105469 18.26931381225586 L9.787711143493652 18.26931381225586 L9.787711143493652 18.26931381225586 M12.301687240600586 18.14704704284668 L12.290481567382812 18.153644561767578 C12.29297161102295 18.155887603759766 12.295088768005371 18.158002853393555 12.295088768005371 18.160493850708008 C12.295088768005371 18.169208526611328 12.286124229431152 18.176057815551758 12.272676467895508 18.184772491455078 A0.19722343981266022 0.19722343981266022 0.0 0 1 12.214778900146484 18.20494270324707 C12.194857597351074 18.211544036865234 12.172446250915527 18.213659286499023 12.154766082763672 18.213659286499023 C12.127996444702148 18.213659286499023 12.10346794128418 18.209300994873047 12.079188346862793 18.198095321655273 A0.11928033828735352 0.11928033828735352 0.0 0 1 12.025649070739746 18.158002853393555 A0.10583328455686569 0.10583328455686569 0.0 0 1 12.005602836608887 18.093505859375 C12.005602836608887 18.075702667236328 12.010085105895996 18.060138702392578 12.018925666809082 18.044574737548828 A0.10284504294395447 0.10284504294395447 0.0 0 1 12.050052642822266 18.00659942626953 C12.06350040435791 17.997634887695312 12.07906436920166 17.988794326782227 12.096868515014648 17.984188079833984 A0.1593724638223648 0.1593724638223648 0.0 0 1 12.154766082763672 17.97547149658203 C12.17929458618164 17.97547149658203 12.206063270568848 17.979829788208008 12.232584953308105 17.988794326782227 C12.259353637695312 17.997509002685547 12.274917602539062 18.00871467590332 12.277283668518066 18.017681121826172 C12.277283668518066 18.02203941345215 12.279524803161621 18.026397705078125 12.279524803161621 18.026397705078125 L12.286124229431152 18.031002044677734 L12.3396635055542 17.950695037841797 L12.330698013305664 17.941730499267578 C12.326340675354004 17.948577880859375 12.321982383728027 17.950695037841797 12.31949234008789 17.950695037841797 C12.31949234008789 17.950695037841797 12.31289291381836 17.948453903198242 12.30392837524414 17.94633674621582 A0.1782979518175125 0.1782979518175125 0.0 0 0 12.270560264587402 17.935131072998047 A0.4469899833202362 0.4469899833202362 0.0 0 0 12.154766082763672 17.919567108154297 C12.123639106750488 17.919567108154297 12.094752311706543 17.92180824279785 12.06785774230957 17.930524826049805 A0.2252381294965744 0.2252381294965744 0.0 0 0 11.994397163391113 17.964141845703125 A0.1593724638223648 0.1593724638223648 0.0 0 0 11.94770622253418 18.01979637145996 C11.934383392333984 18.041961669921875 11.92765998840332 18.06648826599121 11.92765998840332 18.095373153686523 C11.92765998840332 18.1242618560791 11.934383392333984 18.148914337158203 11.94770622253418 18.17095184326172 C11.958786964416504 18.193363189697266 11.974350929260254 18.213285446166992 11.996638298034668 18.228849411010742 C12.018925666809082 18.242170333862305 12.041213035583496 18.255619049072266 12.06785774230957 18.262466430664062 C12.094627380371094 18.269065856933594 12.123639106750488 18.273672103881836 12.154766082763672 18.273672103881836 C12.181534767150879 18.273672103881836 12.206063270568848 18.269065856933594 12.230342864990234 18.262466430664062 C12.257112503051758 18.255619049072266 12.279524803161621 18.246902465820312 12.299446105957031 18.235698699951172 C12.321857452392578 18.22673225402832 12.332815170288086 18.222373962402344 12.335180282592773 18.222373962402344 L12.341779708862305 18.222373962402344 L12.348628044128418 18.218015670776367 L12.301687240600586 18.14704704284668 L12.301687240600586 18.14704704284668 M13.444188117980957 17.919940948486328 C13.410571098327637 17.919940948486328 13.377326965332031 17.92654037475586 13.343957901000977 17.939861297607422 C13.312582015991211 17.953184127807617 13.28606128692627 17.973480224609375 13.263649940490723 17.999874114990234 C13.243727684020996 18.02664566040039 13.232522010803223 18.05777359008789 13.232522010803223 18.095748901367188 C13.232522010803223 18.1246337890625 13.239121437072754 18.151405334472656 13.250327110290527 18.173816680908203 C13.263649940490723 18.195980072021484 13.279212951660156 18.213659286499023 13.30162525177002 18.229223251342773 C13.32154655456543 18.245037078857422 13.343957901000977 18.255992889404297 13.368237495422363 18.262840270996094 C13.392766952514648 18.269439697265625 13.419535636901855 18.2740478515625 13.444064140319824 18.2740478515625 C13.477433204650879 18.2740478515625 13.510677337646484 18.26719856262207 13.544294357299805 18.253875732421875 C13.575422286987305 18.24055290222168 13.602191925048828 18.22050666809082 13.624354362487793 18.19386100769043 C13.644524574279785 18.167091369628906 13.655731201171875 18.133848190307617 13.655731201171875 18.09587287902832 C13.655731201171875 18.057897567749023 13.644524574279785 18.026769638061523 13.624354362487793 18.0 A0.21241362392902374 0.21241362392902374 0.0 0 0 13.544294357299805 17.939987182617188 A0.2668243646621704 0.2668243646621704 0.0 0 0 13.444188117980957 17.919940948486328" fill="black" fill-opacity="1.0" filling="0"/>
<path animation_id="9" d="M13.444188117980957 17.97995376586914 C13.461994171142578 17.97995376586914 13.477558135986328 17.982194900512695 13.493121147155762 17.986553192138672 C13.510926246643066 17.9934024810791 13.5264892578125 17.999874114990234 13.539812088012695 18.01108169555664 A0.08342152833938599 0.08342152833938599 0.0 0 1 13.571188926696777 18.04681396484375 C13.579904556274414 18.0623779296875 13.582145690917969 18.07794189453125 13.582145690917969 18.095748901367188 C13.582145690917969 18.113554000854492 13.579904556274414 18.13148307800293 13.571188926696777 18.144929885864258 A0.1319803148508072 0.1319803148508072 0.0 0 1 13.539812088012695 18.182655334472656 A0.16945774853229523 0.16945774853229523 0.0 0 1 13.495362281799316 18.205068588256836 C13.477558135986328 18.211666107177734 13.459877014160156 18.213783264160156 13.444313049316406 18.213783264160156 C13.421900749206543 18.213783264160156 13.399863243103027 18.20942497253418 13.37745189666748 18.200462341308594 A0.14156757295131683 0.14156757295131683 0.0 0 1 13.323912620544434 18.15812873840332 A0.09935877472162247 0.09935877472162247 0.0 0 1 13.303990364074707 18.09587287902832 C13.303990364074707 18.07370948791504 13.310589790344238 18.051422119140625 13.323912620544434 18.033618927001953 C13.337234497070312 18.01556396484375 13.355039596557617 18.004730224609375 13.37745189666748 17.993526458740234 C13.399614334106445 17.984310150146484 13.42177677154541 17.97995376586914 13.444188117980957 17.97995376586914" fill="black" fill-opacity="1.0" filling="0"/>
<path animation_id="10" d="M14.630891799926758 18.26931381225586 L14.630891799926758 18.25811004638672 C14.617568969726562 18.25811004638672 14.610969543457031 18.25374984741211 14.610969543457031 18.24715232849121 L14.610969543457031 18.02664566040039 L14.613210678100586 18.02664566040039 L14.757890701293945 18.26931381225586 L14.7601318359375 18.26931381225586 L14.909420013427734 18.02664566040039 L14.909420013427734 18.24715232849121 C14.909420013427734 18.25374984741211 14.902571678161621 18.25811004638672 14.889248847961426 18.25811004638672 L14.889248847961426 18.26931381225586 L15.005291938781738 18.26931381225586 L15.005291938781738 18.25811004638672 C15.00068473815918 18.25811004638672 14.998443603515625 18.25811004638672 14.994086265563965 18.25586700439453 C14.991844177246094 18.25362777709961 14.991844177246094 18.251510620117188 14.991844177246094 18.24715232849121 L14.991844177246094 17.944095611572266 C14.991844177246094 17.937496185302734 14.99620246887207 17.935380935668945 15.005167007446289 17.935380935668945 L15.005167007446289 17.922056198120117 L14.869202613830566 17.922056198120117 L14.869202613830566 17.935380935668945 C14.875801086425781 17.935380935668945 14.878168106079102 17.937620162963867 14.878168106079102 17.941978454589844 C14.878168106079102 17.94422149658203 14.875677108764648 17.953184127807617 14.869202613830566 17.964391708374023 L14.762248992919922 18.13359832763672 L14.657660484313965 17.962148666381836 C14.655420303344727 17.95990753173828 14.653303146362305 17.955299377441406 14.65106201171875 17.950942993164062 C14.648571968078613 17.94658660888672 14.646455764770508 17.944095611572266 14.646455764770508 17.941978454589844 C14.646455764770508 17.939861297607422 14.648695945739746 17.937620162963867 14.65106201171875 17.937620162963867 C14.653303146362305 17.935380935668945 14.655420303344727 17.935380935668945 14.65977668762207 17.935380935668945 L14.65977668762207 17.922056198120117 L14.519454956054688 17.922056198120117 L14.519454956054688 17.935380935668945 C14.530660629272461 17.935380935668945 14.535018920898438 17.937620162963867 14.535018920898438 17.944095611572266 L14.535018920898438 18.24715232849121 C14.535018920898438 18.251510620117188 14.532777786254883 18.25374984741211 14.530660629272461 18.25586700439453 C14.528543472290039 18.257986068725586 14.526302337646484 18.25811004638672 14.519454956054688 18.25811004638672 L14.519454956054688 18.26931381225586 L14.630891799926758 18.26931381225586 M16.000497817993164 18.25823402404785 C15.987175941467285 18.25823402404785 15.980326652526855 18.253875732421875 15.980326652526855 18.247276306152344 L15.980326652526855 18.129117965698242 L16.11168670654297 18.129117965698242 C16.156383514404297 18.129117965698242 16.18975257873535 18.12040138244629 16.2119140625 18.10483741760254 C16.23432731628418 18.08927345275879 16.247650146484375 18.062503814697266 16.247650146484375 18.026769638061523 A0.11928033828735352 0.11928033828735352 0.0 0 0 16.232086181640625 17.96675682067871 A0.09114113450050354 0.09114113450050354 0.0 0 0 16.185394287109375 17.933387756347656 A0.2289734184741974 0.2289734184741974 0.0 0 0 16.11168670654297 17.922182083129883 L15.882338523864746 17.922182083129883 L15.882338523864746 17.935504913330078 C15.89790153503418 17.935504913330078 15.904749870300293 17.937746047973633 15.904749870300293 17.94671058654785 L15.904749870300293 18.247276306152344 C15.904749870300293 18.253875732421875 15.89790153503418 18.25823402404785 15.882338523864746 18.25823402404785 L15.882338523864746 18.269439697265625 L16.000497817993164 18.269439697265625 L16.000497817993164 18.25823402404785 L16.000497817993164 18.25823402404785 M17.280832290649414 18.26931381225586 L17.280832290649414 18.25811004638672 C17.271865844726562 18.25811004638672 17.26750946044922 18.25586700439453 17.26750946044922 18.251510620117188 C17.26750946044922 18.24715232849121 17.269750595092773 18.24030303955078 17.27410888671875 18.23158836364746 L17.296520233154297 18.184648513793945 L17.456764221191406 18.184648513793945 L17.481292724609375 18.233829498291016 A0.03585880622267723 0.03585880622267723 0.0 0 1 17.487892150878906 18.25163459777832 C17.487892150878906 18.253875732421875 17.48565101623535 18.255992889404297 17.483535766601562 18.255992889404297 C17.481292724609375 18.25823402404785 17.479175567626953 18.25823402404785 17.4766845703125 18.25823402404785 L17.4766845703125 18.269439697265625 L17.592729568481445 18.269439697265625 L17.592729568481445 18.25823402404785 C17.58152198791504 18.253875732421875 17.574674606323242 18.2495174407959 17.570316314697266 18.2426700592041 L17.434600830078125 17.970989227294922 C17.427753448486328 17.960033416748047 17.425636291503906 17.953184127807617 17.425636291503906 17.948827743530273 C17.425636291503906 17.941978454589844 17.429994583129883 17.937620162963867 17.438961029052734 17.935504913330078 L17.438961029052734 17.922182083129883 L17.32752227783203 17.922182083129883 L17.32752227783203 17.935504913330078 C17.338727951049805 17.937746047973633 17.34308624267578 17.939861297607422 17.34308624267578 17.948827743530273 A0.08678329735994339 0.08678329735994339 0.0 0 1 17.32976531982422 17.975597381591797 L17.209611892700195 18.233829498291016 C17.2027645111084 18.249393463134766 17.194047927856445 18.25811004638672 17.18720054626465 18.25811004638672 L17.18720054626465 18.26931381225586 L17.280832290649414 18.26931381225586 L17.280832290649414 18.26931381225586 M18.594533920288086 18.26931381225586 L18.594533920288086 18.25811004638672 C18.585819244384766 18.25811004638672 18.578969955444336 18.25374984741211 18.578969955444336 18.24715232849121 L18.578969955444336 18.02664566040039 L18.790512084960938 18.23607063293457 C18.79711151123047 18.245037078857422 18.79947853088379 18.249393463134766 18.79947853088379 18.253875732421875 C18.79947853088379 18.256114959716797 18.796987533569336 18.25823402404785 18.790512084960938 18.25823402404785 L18.790512084960938 18.269439697265625 L18.90406608581543 18.269439697265625 L18.90406608581543 18.25823402404785 C18.895099639892578 18.25823402404785 18.890743255615234 18.253875732421875 18.890743255615234 18.247276306152344 L18.890743255615234 17.94671058654785 C18.890743255615234 17.94210433959961 18.890743255615234 17.939861297607422 18.89298439025879 17.937746047973633 C18.895225524902344 17.93562889099121 18.89983367919922 17.935504913330078 18.904190063476562 17.935504913330078 L18.904190063476562 17.922182083129883 L18.799602508544922 17.922182083129883 L18.799602508544922 17.935504913330078 C18.810558319091797 17.935504913330078 18.817407608032227 17.937746047973633 18.817407608032227 17.94671058654785 L18.817407608032227 18.155887603759766 L18.619186401367188 17.960155487060547 C18.61022186279297 17.95119285583496 18.605865478515625 17.94434356689453 18.605865478515625 17.94210433959961 C18.605865478515625 17.937746047973633 18.60810661315918 17.935504913330078 18.61022186279297 17.935504913330078 L18.61022186279297 17.922182083129883 L18.494426727294922 17.922182083129883 L18.494426727294922 17.935504913330078 C18.49666976928711 17.935504913330078 18.501277923583984 17.935504913330078 18.503393173217773 17.937746047973633 C18.505510330200195 17.939987182617188 18.505634307861328 17.94210433959961 18.505634307861328 17.94671058654785 L18.505634307861328 18.247276306152344 C18.505634307861328 18.253875732421875 18.503393173217773 18.25823402404785 18.494426727294922 18.25823402404785 L18.494426727294922 18.269439697265625 L18.594533920288086 18.269439697265625 L18.594533920288086 18.26931381225586 M19.80825424194336 17.935504913330078 C19.812612533569336 17.935504913330078 19.819211959838867 17.935504913330078 19.826061248779297 17.939861297607422 C19.832658767700195 17.94210433959961 19.837265014648438 17.94671058654785 19.83938217163086 17.951066970825195 L19.96638298034668 18.129117965698242 L19.96638298034668 18.247276306152344 C19.96638298034668 18.253875732421875 19.95953369140625 18.25823402404785 19.95081901550293 18.25823402404785 L19.95081901550293 18.269439697265625 L20.05540657043457 18.269439697265625 L20.05540657043457 18.25823402404785 C20.044200897216797 18.25823402404785 20.03984260559082 18.253875732421875 20.03984260559082 18.247276306152344 L20.03984260559082 18.129117965698242 L20.15127944946289 17.9688720703125 C20.157878875732422 17.960155487060547 20.164600372314453 17.951066970825195 20.169086456298828 17.94671058654785 C20.173442840576172 17.94210433959961 20.178049087524414 17.937746047973633 20.18029022216797 17.937746047973633 C20.184650421142578 17.935504913330078 20.189006805419922 17.935504913330078 20.193613052368164 17.935504913330078 L20.193613052368164 17.922182083129883 L20.080059051513672 17.922182083129883 L20.080059051513672 17.935504913330078 C20.091266632080078 17.935504913330078 20.09786605834961 17.937746047973633 20.09786605834961 17.94210433959961 C20.09786605834961 17.94434356689453 20.093505859375 17.951066970825195 20.086658477783203 17.9622745513916 L20.008840560913086 18.068979263305664 C20.001991271972656 18.06026268005371 19.990787506103516 18.04009246826172 19.973106384277344 18.015438079833984 C19.95530128479004 17.98891830444336 19.94422149658203 17.970989227294922 19.937620162963867 17.962148666381836 C19.933013916015625 17.953184127807617 19.92865753173828 17.948827743530273 19.92865753173828 17.944095611572266 C19.92865753173828 17.937496185302734 19.933013916015625 17.935380935668945 19.94422149658203 17.935380935668945 L19.94422149658203 17.922056198120117 L19.808504104614258 17.922056198120117 L19.808504104614258 17.935504913330078 L19.80825424194336 17.935504913330078" fill="black" fill-opacity="1.0" filling="0"/>
<path animation_id="11" d="M18.87082290649414 11.515657424926758 L19.267135620117188 10.72962760925293 L19.667932510375977 11.515657424926758 L18.87082290649414 11.515657424926758 M4.0582709312438965 18.013322830200195 L4.111685276031494 18.135841369628906 L3.9958906173706055 18.135841369628906 L4.0582709312438965 18.013322830200195 M9.885700225830078 18.013322830200195 L9.941356658935547 18.135841369628906 L9.823321342468262 18.135841369628906 L9.885700225830078 18.013322830200195 L9.885700225830078 18.013322830200195 M15.980326652526855 17.984310150146484 L16.120651245117188 17.984310150146484 C16.15401840209961 17.984310150146484 16.171947479248047 17.997634887695312 16.171947479248047 18.02664566040039 C16.171947479248047 18.053415298461914 16.153894424438477 18.068979263305664 16.120651245117188 18.068979263305664 L15.980326652526855 18.068979263305664 L15.980326652526855 17.984310150146484 M17.378822326660156 18.013322830200195 L17.434476852416992 18.135841369628906 L17.31631851196289 18.135841369628906 L17.378822326660156 18.013322830200195" fill="black" fill-opacity="1.0" filling="0"/>
<path animation_id="12" d="M22.774078369140625 12.531034469604492 C22.729625701904297 12.531034469604492 22.689411163330078 12.546846389770508 22.658283233642578 12.575733184814453 C22.624916076660156 12.606860160827637 22.607234954833984 12.651310920715332 22.607234954833984 12.69588565826416 C22.607234954833984 12.738218307495117 22.625038146972656 12.78055191040039 22.656166076660156 12.81167984008789 C22.687294006347656 12.842806816101074 22.729625701904297 12.862977027893066 22.774078369140625 12.862977027893066 C22.816410064697266 12.862977027893066 22.860858917236328 12.842806816101074 22.892236709594727 12.81167984008789 C22.923362731933594 12.782793045043945 22.94116973876953 12.740459442138672 22.94116973876953 12.69588565826416 C22.94116973876953 12.651310920715332 22.923362731933594 12.609101295471191 22.892236709594727 12.577974319458008 A0.1751852035522461 0.1751852035522461 0.0 0 0 22.774078369140625 12.531034469604492" fill="black" fill-opacity="1.0" filling="0"/>
<path animation_id="13" d="M22.918758392333984 12.69588565826416 C22.918758392333984 12.735977172851562 22.903194427490234 12.771462440490723 22.876422882080078 12.79611587524414 A0.14480483531951904 0.14480483531951904 0.0 0 1 22.771835327148438 12.840564727783203 A0.13945090770721436 0.13945090770721436 0.0 0 1 22.671607971191406 12.79611587524414 C22.64483642578125 12.769346237182617 22.6292724609375 12.733860969543457 22.6292724609375 12.69588565826416 C22.6292724609375 12.657910346984863 22.64483642578125 12.620307922363281 22.673723220825195 12.591297149658203 C22.70049285888672 12.566768646240234 22.73622703552246 12.551204681396484 22.77395248413086 12.551204681396484 C22.814044952392578 12.551204681396484 22.849781036376953 12.566768646240234 22.876300811767578 12.593537330627441 C22.905683517456055 12.620182991027832 22.918758392333984 12.655792236328125 22.918758392333984 12.69588565826416" fill="black" fill-opacity="1.0" filling="0"/>
<path animation_id="14" d="M22.778684616088867 12.597895622253418 L22.70746421813965 12.597895622253418 L22.70746421813965 12.787275314331055 L22.742950439453125 12.787275314331055 L22.742950439453125 12.704850196838379 L22.778684616088867 12.704850196838379 L22.816410064697266 12.787275314331055 L22.856502532958984 12.787275314331055 L22.81416893005371 12.70024299621582 C22.840938568115234 12.69588565826416 22.856502532958984 12.675963401794434 22.856502532958984 12.649194717407227 C22.856502532958984 12.615575790405273 22.831974029541016 12.597895622253418 22.778684616088867 12.597895622253418" fill="black" fill-opacity="1.0" filling="0"/>
<path animation_id="15" d="M22.771961212158203 12.620182991027832 C22.805328369140625 12.620182991027832 22.82114028930664 12.628898620605469 22.82114028930664 12.653552055358887 C22.82114028930664 12.675963401794434 22.805328369140625 12.682437896728516 22.771961212158203 12.682437896728516 L22.743072509765625 12.682437896728516 L22.743072509765625 12.620182991027832 L22.771961212158203 12.620182991027832" fill="black" fill-opacity="1.0" filling="0"/></svg>