<?xml version="1.0" encoding="iso-8859-1"?><svg height="200px" viewBox="0.0 0.0 24.0 24.0" width="200px" xmlns="http://www.w3.org/2000/svg"><path animation_id="0" d="M6.164803981781006 12.061342239379883 C6.164803981781006 11.539996147155762 6.53285551071167 11.14133358001709 7.054201602935791 11.14133358001709 C7.468289852142334 11.14133358001709 7.6982316970825195 11.386701583862305 7.805730819702148 11.632068634033203 L7.514326572418213 11.77017879486084 C7.437679290771484 11.570847511291504 7.268959045410156 11.448163986206055 7.0390167236328125 11.448163986206055 C6.763038158416748 11.448163986206055 6.50224494934082 11.693531036376953 6.50224494934082 12.077008247375488 C6.50224494934082 12.445060729980469 6.763038158416748 12.705854415893555 7.0390167236328125 12.705854415893555 C7.284384250640869 12.705854415893555 7.4531049728393555 12.583169937133789 7.545177936553955 12.383838653564453 L7.836582660675049 12.506523132324219 C7.729324817657471 12.751890182495117 7.483956813812256 12.997258186340332 7.069868564605713 12.997258186340332 C6.53285551071167 12.98159122467041 6.164803981781006 12.582688331604004 6.164803981781006 12.061342239379883 L6.164803981781006 12.061342239379883 M8.38853931427002 11.202554702758789 L8.373113632202148 11.447922706604004 L8.38853931427002 11.447922706604004 C8.480612754821777 11.294628143310547 8.695128440856934 11.15651798248291 8.940496444702148 11.15651798248291 C9.385194778442383 11.15651798248291 9.59995174407959 11.447922706604004 9.59995174407959 11.877195358276367 L9.59995174407959 12.935314178466797 L9.277936935424805 12.935314178466797 L9.277936935424805 11.923473358154297 C9.277936935424805 11.570847511291504 9.094032287597656 11.448163986206055 8.848664283752441 11.448163986206055 C8.572685241699219 11.448163986206055 8.38853931427002 11.70895767211914 8.38853931427002 11.984935760498047 L8.38853931427002 12.935795783996582 L8.066524505615234 12.935795783996582 L8.066524505615234 10.420414924621582 L8.38853931427002 10.420414924621582 L8.38853931427002 11.202554702758789 L8.38853931427002 11.202554702758789 M9.937393188476562 12.935554504394531 L9.937393188476562 11.202554702758789 L10.243982315063477 11.202554702758789 L10.243982315063477 11.478533744812012 L10.259407997131348 11.478533744812012 C10.336054801940918 11.279202461242676 10.581422805786133 11.15651798248291 10.765569686889648 11.15651798248291 C10.872827529907227 11.15651798248291 10.934289932250977 11.171944618225098 11.010936737060547 11.202554702758789 L10.888253211975098 11.509143829345703 C10.842216491699219 11.493718147277832 10.780994415283203 11.478533744812012 10.719532012939453 11.478533744812012 C10.504775047302246 11.478533744812012 10.274833679199219 11.66243839263916 10.274833679199219 11.984694480895996 L10.274833679199219 12.935554504394531 L9.937393188476562 12.935554504394531 M12.789731979370117 12.061342239379883 C12.789731979370117 12.582688331604004 12.42168140411377 12.98134994506836 11.900334358215332 12.98134994506836 C11.378988265991211 12.98134994506836 11.010936737060547 12.582688331604004 11.010936737060547 12.061342239379883 C11.010936737060547 11.539996147155762 11.378988265991211 11.14133358001709 11.900334358215332 11.14133358001709 C12.42168140411377 11.14133358001709 12.789731979370117 11.539996147155762 12.789731979370117 12.061342239379883 L12.789731979370117 12.061342239379883 M12.467718124389648 12.061342239379883 C12.467718124389648 11.662679672241211 12.191739082336426 11.432497024536133 11.900334358215332 11.432497024536133 C11.608930587768555 11.432497024536133 11.332951545715332 11.66243839263916 11.332951545715332 12.061342239379883 C11.332951545715332 12.460245132446289 11.608930587768555 12.690187454223633 11.900334358215332 12.690187454223633 C12.191739082336426 12.690187454223633 12.467718124389648 12.460003852844238 12.467718124389648 12.061342239379883 L12.467718124389648 12.061342239379883 M13.050525665283203 11.202554702758789 L13.357115745544434 11.202554702758789 L13.357115745544434 11.447922706604004 L13.372541427612305 11.447922706604004 C13.464613914489746 11.279202461242676 13.69455623626709 11.15651798248291 13.90931224822998 11.15651798248291 C14.185291290283203 11.15651798248291 14.369438171386719 11.279202461242676 14.46126937866211 11.493959426879883 C14.583953857421875 11.294628143310547 14.798709869384766 11.15651798248291 15.059263229370117 11.15651798248291 C15.473352432250977 11.15651798248291 15.67268180847168 11.447922706604004 15.67268180847168 11.877195358276367 L15.67268180847168 12.935314178466797 L15.335241317749023 12.935314178466797 L15.335241317749023 11.923473358154297 C15.335241317749023 11.570847511291504 15.197132110595703 11.448163986206055 14.951764106750488 11.448163986206055 C14.690971374511719 11.448163986206055 14.507064819335938 11.70895767211914 14.507064819335938 11.984935760498047 L14.507064819335938 12.935795783996582 L14.185050964355469 12.935795783996582 L14.185050964355469 11.923473358154297 C14.185050964355469 11.570847511291504 14.046939849853516 11.448163986206055 13.801572799682617 11.448163986206055 C13.540779113769531 11.448163986206055 13.356874465942383 11.70895767211914 13.356874465942383 11.984935760498047 L13.356874465942383 12.935795783996582 L13.034858703613281 12.935795783996582 L13.034858703613281 11.20279598236084 L13.050525665283203 11.20279598236084 L13.050525665283203 11.202554702758789 M15.902865409851074 12.061342239379883 C15.902865409851074 11.570606231689453 16.240306854248047 11.14133358001709 16.746227264404297 11.14133358001709 C17.25238800048828 11.14133358001709 17.589588165283203 11.509385108947754 17.589588165283203 12.061342239379883 L17.589588165283203 12.122563362121582 L16.224639892578125 12.122563362121582 C16.24006462097168 12.490614891052246 16.50061798095703 12.689946174621582 16.776596069335938 12.689946174621582 C16.96050262451172 12.689946174621582 17.16007423400879 12.613298416137695 17.25190544128418 12.398541450500488 L17.543310165405273 12.521225929260254 C17.436052322387695 12.766593933105469 17.190685272216797 12.996535301208496 16.79178237915039 12.996535301208496 C16.255491256713867 12.98159122467041 15.902865409851074 12.582688331604004 15.902865409851074 12.061342239379883 L15.902865409851074 12.061342239379883 M16.746227264404297 11.447922706604004 C16.500858306884766 11.447922706604004 16.316953659057617 11.616642951965332 16.255491256713867 11.862010955810547 L17.25238800048828 11.862010955810547 C17.236961364746094 11.70871639251709 17.11427879333496 11.447922706604004 16.746227264404297 11.447922706604004 M17.77373504638672 12.061342239379883 C17.77373504638672 11.539996147155762 18.14178466796875 11.14133358001709 18.663131713867188 11.14133358001709 C19.077219009399414 11.14133358001709 19.307161331176758 11.386701583862305 19.414661407470703 11.632068634033203 L19.12325668334961 11.754753112792969 C19.04660987854004 11.555421829223633 18.87788963317871 11.432737350463867 18.647945404052734 11.432737350463867 C18.371967315673828 11.432737350463867 18.111175537109375 11.678105354309082 18.111175537109375 12.061583518981934 C18.111175537109375 12.429634094238281 18.371967315673828 12.690427780151367 18.647945404052734 12.690427780151367 C18.893314361572266 12.690427780151367 19.062034606933594 12.567744255065918 19.15410804748535 12.368412971496582 L19.445512771606445 12.491096496582031 C19.338254928588867 12.736464500427246 19.092885971069336 12.981832504272461 18.67879867553711 12.981832504272461 C18.14178466796875 12.98159122467041 17.77373504638672 12.582688331604004 17.77373504638672 12.061342239379883 L17.77373504638672 12.061342239379883 M19.61399269104004 12.41420841217041 C19.61399269104004 12.030731201171875 19.966617584228516 11.816215515136719 20.365520477294922 11.816215515136719 C20.595462799072266 11.816215515136719 20.764183044433594 11.877436637878418 20.825645446777344 11.923473358154297 L20.825645446777344 11.862010955810547 C20.825645446777344 11.601217269897461 20.610889434814453 11.447922706604004 20.38094711303711 11.447922706604004 C20.197040557861328 11.447922706604004 20.0283203125 11.539996147155762 19.96685791015625 11.693290710449219 L19.67545509338379 11.570606231689453 C19.736675262451172 11.417311668395996 19.936246871948242 11.15651798248291 20.38094711303711 11.15651798248291 C20.795034408569336 11.15651798248291 21.147661209106445 11.401885986328125 21.147661209106445 11.892621994018555 L21.147661209106445 12.935314178466797 L20.84107208251953 12.935314178466797 L20.84107208251953 12.689946174621582 L20.825645446777344 12.689946174621582 C20.733572006225586 12.828056335449219 20.549667358398438 12.98134994506836 20.258262634277344 12.98134994506836 C19.9053955078125 12.98159122467041 19.61399269104004 12.766834259033203 19.61399269104004 12.41420841217041 L19.61399269104004 12.41420841217041 M20.825645446777344 12.184025764465332 C20.825645446777344 12.184025764465332 20.687536239624023 12.076767921447754 20.411556243896484 12.076767921447754 C20.074115753173828 12.076767921447754 19.936246871948242 12.260673522949219 19.936246871948242 12.41420841217041 C19.936246871948242 12.598114013671875 20.12015151977539 12.690187454223633 20.28887176513672 12.690187454223633 C20.564849853515625 12.690187454223633 20.825645446777344 12.475430488586426 20.825645446777344 12.184025764465332 M21.34699058532715 12.490856170654297 L21.638397216796875 12.368171691894531 C21.73046875 12.582928657531738 21.899188995361328 12.690187454223633 22.098522186279297 12.690187454223633 C22.2978515625 12.690187454223633 22.435962677001953 12.598114013671875 22.435962677001953 12.444819450378418 C22.435962677001953 12.35274600982666 22.389925003051758 12.260913848876953 22.20602035522461 12.214877128601074 L21.8533935546875 12.138230323791504 C21.70009994506836 12.092193603515625 21.393268585205078 11.969510078430176 21.393268585205078 11.662920951843262 C21.393268585205078 11.356331825256348 21.715286254882812 11.156759262084961 22.067909240722656 11.156759262084961 C22.35931396484375 11.156759262084961 22.6198673248291 11.294869422912598 22.727365493774414 11.555421829223633 L22.451387405395508 11.678105354309082 C22.390167236328125 11.509385108947754 22.221446990966797 11.448163986206055 22.05272674560547 11.448163986206055 C21.868820190429688 11.448163986206055 21.715286254882812 11.524810791015625 21.715286254882812 11.662920951843262 C21.715286254882812 11.77017879486084 21.807357788085938 11.83164119720459 21.94522476196289 11.862251281738281 L22.282665252685547 11.938899040222168 C22.620107650756836 12.015546798706055 22.757976531982422 12.230303764343262 22.757976531982422 12.445060729980469 C22.757976531982422 12.751649856567383 22.481998443603516 12.981832504272461 22.083335876464844 12.981832504272461 C21.684673309326172 12.981832504272461 21.439064025878906 12.736223220825195 21.34699058532715 12.490856170654297 L21.34699058532715 12.490856170654297 M23.18724822998047 12.398782730102539 L23.18724822998047 11.493959426879883 L22.880661010742188 11.493959426879883 L22.880661010742188 11.202554702758789 L23.18724822998047 11.202554702758789 L23.18724822998047 10.681208610534668 L23.509265899658203 10.681208610534668 L23.509265899658203 11.202554702758789 L23.92335319519043 11.202554702758789 L23.92335319519043 11.493959426879883 L23.509265899658203 11.493959426879883 L23.509265899658203 12.368171691894531 C23.509265899658203 12.567502975463867 23.58591079711914 12.644150733947754 23.73920440673828 12.644150733947754 C23.80066680908203 12.644150733947754 23.84646224975586 12.644150733947754 23.892501831054688 12.613539695739746 L23.999759674072266 12.889518737792969 C23.923112869262695 12.92012882232666 23.84646224975586 12.935554504394531 23.73896598815918 12.935554504394531 C23.386581420898438 12.950739860534668 23.18724822998047 12.751408576965332 23.18724822998047 12.398782730102539 L23.18724822998047 12.398782730102539 M4.646561145782471 11.064685821533203 L2.9904489517211914 11.064685821533203 C3.2970380783081055 11.264017105102539 3.511795997619629 11.601458549499512 3.511795997619629 12.000120162963867 C3.511795997619629 12.076767921447754 3.496370315551758 12.168841361999512 3.481184959411621 12.245488166809082 L3.481184959411621 12.260913848876953 C3.46575927734375 12.383598327636719 3.4199628829956055 12.490856170654297 3.3585004806518555 12.598355293273926 L2.3158092498779297 14.423187255859375 L2.407881736755371 14.423187255859375 C3.741978645324707 14.423187255859375 4.830948352813721 13.349642753601074 4.830948352813721 12.000120162963867 C4.83070707321167 11.662679672241211 4.76924467086792 11.340664863586426 4.646561145782471 11.064685821533203 L4.646561145782471 11.064685821533203 M2.423067092895508 13.088849067687988 C2.1164779663085938 13.088849067687988 1.8250741958618164 12.950739860534668 1.625741958618164 12.751408576965332 C1.5490951538085938 12.674760818481445 1.4876327514648438 12.598114013671875 1.4264106750488281 12.506040573120117 L1.3958005905151367 12.475430488586426 L0.36805248260498047 10.711819648742676 C0.1381092071533203 11.07987117767334 0.0 11.524569511413574 0.0 12.000120162963867 C0.0 13.242384910583496 0.9200096130371094 14.254467010498047 2.116236686706543 14.392335891723633 L2.944413185119629 12.950739860534668 C2.791118621826172 13.04281234741211 2.6069726943969727 13.088849067687988 2.423067092895508 13.088849067687988 L2.423067092895508 13.088849067687988 M2.423067092895508 9.577054023742676 C1.625741958618164 9.577054023742676 0.9202489852905273 9.960531234741211 0.47555065155029297 10.558525085449219 L1.303727149963379 11.969268798828125 C1.31915283203125 11.984694480895996 1.31915283203125 12.015305519104004 1.31915283203125 12.030489921569824 L1.31915283203125 11.984453201293945 C1.31915283203125 11.447681427001953 1.7178153991699219 10.987556457519531 2.2239761352539062 10.910909652709961 L2.2394027709960938 10.910909652709961 C2.3314762115478516 10.880298614501953 2.423307418823242 10.880298614501953 2.515380859375 10.880298614501953 L4.5549702644348145 10.880298614501953 C4.155825614929199 10.113825798034668 3.3430747985839844 9.577054023742676 2.423067092895508 9.577054023742676 M3.2970380783081055 12.000120162963867 C3.2970380783081055 12.490856170654297 2.89837646484375 12.874333381652832 2.422825813293457 12.874333381652832 C1.9320907592773438 12.874333381652832 1.5486125946044922 12.47567081451416 1.5486125946044922 12.000120162963867 C1.5486125946044922 11.524569511413574 1.9475164413452148 11.125907897949219 2.423067092895508 11.125907897949219 C2.89837646484375 11.110482215881348 3.2970380783081055 11.509385108947754 3.2970380783081055 12.000120162963867" fill="black" fill-opacity="1.0" filling="0"/></svg>