<?xml version="1.0" encoding="iso-8859-1"?><svg height="200px" viewBox="0.0 0.0 24.0 24.0" width="200px" xmlns="http://www.w3.org/2000/svg"><path animation_id="0" d="M0.0 0.0 L24.0 0.0 L24.0 24.0 L0.0 24.0 L0.0 0.0" fill="black" fill-opacity="1.0" filling="0"/>
<path animation_id="1" d="M7.83365535736084 13.584884643554688 A0.4986615478992462 0.4986615478992462 0.0 0 0 7.6421589851379395 13.548901557922363 C7.414928913116455 13.548901557922363 7.259416103363037 13.75247573852539 7.259416103363037 13.991533279418945 C7.259416103363037 14.111186981201172 7.319180965423584 14.302558898925781 7.546535968780518 14.302558898925781 C7.618253231048584 14.302558898925781 7.666065216064453 14.290606498718262 7.725954055786133 14.266824722290039 L7.7498602867126465 14.386478424072266 A0.5988918542861938 0.5988918542861938 0.0 0 1 7.498599052429199 14.446243286132812 C7.175621032714844 14.446243286132812 7.068044662475586 14.194982528686523 7.068044662475586 13.991533279418945 C7.079997539520264 13.66855525970459 7.319305419921875 13.405466079711914 7.678142547607422 13.405466079711914 C7.761813163757324 13.405466079711914 7.869513988494873 13.441450119018555 7.905372619628906 13.47718334197998 L7.83365535736084 13.584884643554688 L7.83365535736084 13.584884643554688 M8.204444885253906 14.01556396484375 C8.204444885253906 13.71649169921875 8.348004341125488 13.548901557922363 8.503517150878906 13.548901557922363 C8.67098331451416 13.548901557922363 8.742700576782227 13.66855525970459 8.742700576782227 13.836145401000977 C8.742700576782227 13.955799102783203 8.68293571472168 14.314512252807617 8.419722557067871 14.314512252807617 C8.216398239135742 14.314512252807617 8.204444885253906 14.063499450683594 8.204444885253906 14.01556396484375 L8.204444885253906 14.01556396484375 M8.000996589660645 14.01556396484375 C8.000996589660645 14.302558898925781 8.204320907592773 14.446243286132812 8.407770156860352 14.446243286132812 C8.778558731079102 14.446243286132812 8.934072494506836 14.063499450683594 8.934072494506836 13.836145401000977 C8.934072494506836 13.5730562210083 8.766606330871582 13.405466079711914 8.527423858642578 13.405466079711914 C8.323974609375 13.405466079711914 8.000996589660645 13.5730562210083 8.000996589660645 14.01556396484375 M9.867023468017578 14.434165954589844 L9.735417366027832 14.434165954589844 C9.60381031036377 14.195107460021973 9.40048599243164 13.836145401000977 9.328768730163574 13.692709922790527 C9.316691398620605 13.848098754882812 9.256925582885742 14.195107460021973 9.209114074707031 14.434165954589844 L9.053601264953613 14.434165954589844 L9.244973182678223 13.429620742797852 L9.388532638549805 13.429620742797852 A15.75060749053955 15.75060749053955 0.0 0 1 9.783227920532227 14.159124374389648 C9.807134628295898 13.967752456665039 9.866899490356445 13.656726837158203 9.902883529663086 13.429620742797852 L10.058394432067871 13.429620742797852 L9.867023468017578 14.434165954589844 M10.78814697265625 13.548901557922363 L10.489073753356934 13.548901557922363 L10.417356491088867 13.895910263061523 L10.716304779052734 13.895910263061523 L10.692399024963379 14.027517318725586 L10.393326759338379 14.027517318725586 L10.321609497070312 14.434165954589844 L10.142190933227539 14.434165954589844 L10.333561897277832 13.429496765136719 L10.812052726745605 13.429496765136719 L10.78814697265625 13.548901557922363 L10.78814697265625 13.548901557922363 M11.517773628234863 13.548901557922363 L11.218701362609863 13.548901557922363 L11.158937454223633 13.836145401000977 L11.458009719848633 13.836145401000977 L11.434103012084961 13.967752456665039 L11.135030746459961 13.967752456665039 L11.075265884399414 14.302558898925781 L11.434103012084961 14.302558898925781 L11.410073280334473 14.434165954589844 L10.871817588806152 14.434165954589844 L11.051236152648926 13.429496765136719 L11.541679382324219 13.429496765136719 L11.517773628234863 13.548901557922363 L11.517773628234863 13.548901557922363 M11.996264457702637 13.537073135375977 L12.068107604980469 13.537073135375977 C12.163854598999023 13.537073135375977 12.199589729309082 13.620992660522461 12.199589729309082 13.692709922790527 C12.199589729309082 13.77638053894043 12.139824867248535 13.896035194396973 12.008217811584473 13.896035194396973 L11.924548149108887 13.896035194396973 L11.996264457702637 13.537073135375977 L11.996264457702637 13.537073135375977 M11.649380683898926 14.434165954589844 L11.82867431640625 14.434165954589844 L11.912469863891602 14.0156888961792 L12.008217811584473 14.0156888961792 L12.163854598999023 14.446367263793945 L12.343274116516113 14.398431777954102 L12.175683975219727 13.979704856872559 C12.283384323120117 13.93201732635498 12.390960693359375 13.812363624572754 12.390960693359375 13.668679237365723 C12.390960693359375 13.549026489257812 12.319243431091309 13.429620742797852 12.139699935913086 13.429620742797852 L11.840751647949219 13.429620742797852 L11.649380683898926 14.434165954589844 L11.649380683898926 14.434165954589844 M13.15644645690918 13.548901557922363 L12.857623100280762 13.548901557922363 L12.797734260559082 13.836145401000977 L13.096681594848633 13.836145401000977 L13.072776794433594 13.967752456665039 L12.773704528808594 13.967752456665039 L12.713814735412598 14.302558898925781 L13.072776794433594 14.302558898925781 L13.048995018005371 14.434165954589844 L12.510614395141602 14.434165954589844 L12.690032958984375 13.429496765136719 L13.180477142333984 13.429496765136719 L13.15644645690918 13.548901557922363 L13.15644645690918 13.548901557922363 M14.089523315429688 14.434165954589844 L13.946087837219238 14.434165954589844 C13.81447982788086 14.195107460021973 13.623109817504883 13.836145401000977 13.5513916015625 13.692709922790527 C13.539189338684082 13.848098754882812 13.467472076416016 14.195107460021973 13.431737899780273 14.434165954589844 L13.276100158691406 14.434165954589844 L13.467472076416016 13.429620742797852 L13.599079132080078 13.429620742797852 C13.730685234069824 13.656726837158203 13.910104751586914 13.967752456665039 14.005976676940918 14.159124374389648 C14.017929077148438 13.967752456665039 14.0776948928833 13.656726837158203 14.125630378723145 13.429620742797852 L14.281018257141113 13.429620742797852 L14.089523315429688 14.434165954589844 L14.089523315429688 14.434165954589844 M15.154205322265625 13.584884643554688 C15.094441413879395 13.561103820800781 15.046504974365234 13.548901557922363 14.974786758422852 13.548901557922363 C14.747432708740234 13.548901557922363 14.59204387664795 13.75247573852539 14.59204387664795 13.991533279418945 C14.59204387664795 14.111186981201172 14.651808738708496 14.302558898925781 14.867086410522461 14.302558898925781 C14.938804626464844 14.302558898925781 14.998692512512207 14.290606498718262 15.046504974365234 14.266824722290039 L15.082488059997559 14.386478424072266 C14.998568534851074 14.422212600708008 14.914897918701172 14.446243286132812 14.819149017333984 14.446243286132812 C14.508373260498047 14.446243286132812 14.38871955871582 14.194982528686523 14.40067195892334 13.991533279418945 C14.40067195892334 13.66855525970459 14.651933670043945 13.405466079711914 14.998692512512207 13.405466079711914 C15.094565391540527 13.405466079711914 15.202017784118652 13.441450119018555 15.238000869750977 13.47718334197998 L15.154205322265625 13.584884643554688 M15.943596839904785 13.548901557922363 L15.644400596618652 13.548901557922363 L15.596837997436523 13.836145401000977 L15.883708000183105 13.836145401000977 L15.859926223754883 13.967752456665039 L15.57268238067627 13.967752456665039 L15.500965118408203 14.302558898925781 L15.859926223754883 14.302558898925781 L15.835895538330078 14.434165954589844 L15.297640800476074 14.434165954589844 L15.489012718200684 13.429496765136719 L15.967628479003906 13.429496765136719 L15.943596839904785 13.548901557922363 L15.943596839904785 13.548901557922363 M16.673349380493164 13.584884643554688 C16.637365341186523 13.561103820800781 16.58942985534668 13.536948204040527 16.5417423248291 13.536948204040527 C16.46977424621582 13.536948204040527 16.39805793762207 13.584884643554688 16.39805793762207 13.656601905822754 C16.39805793762207 13.692585945129395 16.39805793762207 13.740273475646973 16.517711639404297 13.872004508972168 C16.625411987304688 13.991409301757812 16.66114616394043 14.075328826904297 16.66114616394043 14.1589994430542 C16.66114616394043 14.278653144836426 16.553695678710938 14.446243286132812 16.314388275146484 14.446243286132812 C16.218515396118164 14.446243286132812 16.099109649658203 14.410260200500488 16.03934669494629 14.350370407104492 L16.123016357421875 14.230716705322266 C16.182781219482422 14.278653144836426 16.230716705322266 14.314388275146484 16.30243492126465 14.314388275146484 C16.422088623046875 14.314388275146484 16.46977424621582 14.230716705322266 16.46977424621582 14.1589994430542 C16.46977424621582 14.063375473022461 16.386104583740234 13.979580879211426 16.326339721679688 13.91969108581543 C16.2426700592041 13.812239646911621 16.218639373779297 13.764303207397461 16.218639373779297 13.656601905822754 C16.218639373779297 13.524995803833008 16.338293075561523 13.405342102050781 16.5296630859375 13.405342102050781 C16.637365341186523 13.405342102050781 16.709083557128906 13.441325187683105 16.75701904296875 13.48926067352295 L16.673349380493164 13.584884643554688 L16.673349380493164 13.584884643554688 M2.5225677490234375 10.726140975952148 C3.3718490600585938 10.068231582641602 4.2689409255981445 9.73330020904541 4.855008602142334 9.781111717224121 C4.699495792388916 9.697442054748535 4.543982982635498 9.625598907470703 4.364689350128174 9.577788352966309 C3.0249643325805664 9.14710807800293 1.6015691757202148 9.888813018798828 1.1828422546386719 11.228537559509277 C1.039407730102539 11.659092903137207 1.027329444885254 12.089896202087402 1.1111259460449219 12.496419906616211 C1.290543556213379 11.946211814880371 1.7690343856811523 11.30025577545166 2.5225677490234375 10.726140975952148 L2.5225677490234375 10.726140975952148" fill="black" fill-opacity="1.0" filling="0"/>
<path animation_id="2" d="M5.489012241363525 10.295462608337402 C5.596713066101074 10.881653785705566 5.046380043029785 11.874370574951172 4.017805576324463 12.616073608398438 C3.1565704345703125 13.225923538208008 2.3670549392700195 13.094440460205078 2.1159181594848633 12.903068542480469 C2.486708641052246 12.98698902130127 2.9651994705200195 13.082488059997559 3.718857765197754 12.556309700012207 C4.675838947296143 11.862417221069336 4.938928127288818 10.750046730041504 4.568138122558594 10.379257202148438 C4.209300994873047 10.008342742919922 3.2284135818481445 10.391209602355957 2.391209602355957 11.216585159301758 C1.6615829467773438 11.934258460998535 1.2309036254882812 12.771586418151855 1.3744630813598633 13.22604751586914 C1.3983697891235352 13.2739839553833 1.4342269897460938 13.321920394897461 1.4702110290527344 13.381684303283691 C1.4702110290527344 13.381684303283691 1.4702110290527344 13.393637657165527 1.4821643829345703 13.393637657165527 L1.4702110290527344 13.393637657165527 A3.115980863571167 3.115980863571167 0.0 0 0 1.8290481567382812 13.82431697845459 C2.5827064514160156 14.075576782226562 3.2404909133911133 13.656726837158203 4.030006408691406 13.202265739440918 C3.671170234680176 13.561227798461914 2.9774017333984375 14.099358558654785 2.295586585998535 14.183030128479004 C2.4630517959594727 14.278902053833008 2.642470359802246 14.362447738647461 2.8338422775268555 14.422337532043457 C4.173566818237305 14.853015899658203 5.608914852142334 14.111311912536621 6.027516841888428 12.771586418151855 C6.314387321472168 11.874370574951172 6.075203895568848 10.941418647766113 5.489012241363525 10.295462608337402 L5.489012241363525 10.295462608337402" fill="black" fill-opacity="1.0" filling="0"/>
<path animation_id="3" d="M7.761813163757324 11.503580093383789 C7.869513988494873 11.132789611816406 8.108696937561035 10.857624053955078 8.32409954071045 10.857624053955078 C8.455705642700195 10.857624053955078 8.527423858642578 10.905434608459473 8.515470504760742 11.036916732788086 C8.503393173217773 11.30025577545166 8.144556045532227 11.479673385620117 7.761813163757324 11.503580093383789 L7.761813163757324 11.503580093383789 M8.575235366821289 12.137458801269531 C8.395816802978516 12.269065856933594 8.19249153137207 12.328829765319824 8.060885429382324 12.328829765319824 C7.702048301696777 12.316877365112305 7.689970970153809 11.958040237426758 7.714001655578613 11.80252742767334 C8.168586730957031 11.778621673583984 8.969930648803711 11.50345516204834 8.969930648803711 10.96519947052002 C8.969930648803711 10.666252136230469 8.682811737060547 10.534645080566406 8.455581665039062 10.534645080566406 C7.6421589851379395 10.534645080566406 7.18757438659668 11.31220817565918 7.18757438659668 11.886322021484375 C7.18757438659668 12.376766204833984 7.450787544250488 12.68779182434082 7.833530902862549 12.68779182434082 C8.048807144165039 12.68779182434082 8.383739471435547 12.651808738708496 8.718670845031738 12.400547981262207 L8.575235366821289 12.137458801269531 M11.170889854431152 10.127996444702148 L10.309656143188477 10.127996444702148 L10.118284225463867 11.120837211608887 L10.979517936706543 11.120837211608887 L10.895723342895508 11.479673385620117 L10.046442985534668 11.479673385620117 L9.831165313720703 12.63998031616211 L9.316815376281738 12.63998031616211 L9.855071067810059 9.769159317016602 L11.242607116699219 9.769159317016602 L11.170889854431152 10.127996444702148 L11.170889854431152 10.127996444702148 M12.103965759277344 10.594533920288086 L11.721098899841309 12.63998031616211 L11.230653762817383 12.63998031616211 L11.601445198059082 10.594533920288086 L12.103965759277344 10.594533920288086 L12.103965759277344 10.594533920288086 M11.685239791870117 9.97248363494873 C11.709145545959473 9.816970825195312 11.852705001831055 9.661458015441895 12.02004623413086 9.661458015441895 C12.199464797973633 9.661458015441895 12.295212745666504 9.816970825195312 12.2711820602417 9.97248363494873 C12.235447883605957 10.151902198791504 12.092012405395508 10.319367408752441 11.912469863891602 10.319367408752441 C11.733051300048828 10.319367408752441 11.649380683898926 10.151902198791504 11.685239791870117 9.97248363494873 L11.685239791870117 9.97248363494873 M13.072776794433594 10.977277755737305 L13.072776794433594 10.989230155944824 C13.395753860473633 10.642345428466797 13.646890640258789 10.534645080566406 13.9219331741333 10.534645080566406 C14.209177017211914 10.534645080566406 14.364564895629883 10.666252136230469 14.364564895629883 11.01313591003418 C14.364564895629883 11.132665634155273 14.352612495422363 11.276225090026855 14.316877365112305 11.455642700195312 L14.065616607666016 12.63985538482666 L13.575172424316406 12.63985538482666 L13.81447982788086 11.467596054077148 C13.838261604309082 11.347942352294922 13.850214958190918 11.2523193359375 13.850214958190918 11.180477142333984 C13.862168312072754 10.9532470703125 13.766544342041016 10.90531063079834 13.63493824005127 10.90531063079834 C13.3956298828125 10.90531063079834 13.012887001037598 11.371849060058594 12.905186653137207 11.958040237426758 L12.785781860351562 12.63985538482666 L12.295337677001953 12.63985538482666 L12.678079605102539 10.594408988952637 L13.15644645690918 10.594408988952637 L13.072776794433594 10.977277755737305 L13.072776794433594 10.977277755737305 M16.20668601989746 11.037041664123535 C16.11106300354004 12.089896202087402 15.740272521972656 12.34078311920166 15.500965118408203 12.34078311920166 C15.309593200683594 12.34078311920166 15.177987098693848 12.161614418029785 15.177987098693848 11.886322021484375 C15.177987098693848 11.168647766113281 15.596713066101074 10.869576454162598 15.811990737915039 10.869576454162598 C16.01531410217285 10.869576454162598 16.063251495361328 10.893606185913086 16.20668601989746 11.037041664123535 M16.780799865722656 10.594533920288086 L16.290481567382812 10.594533920288086 L16.254497528076172 10.726140975952148 C16.15887451171875 10.606487274169922 15.96750259399414 10.534645080566406 15.788084983825684 10.534645080566406 C15.154081344604492 10.534645080566406 14.651684761047363 11.276350021362305 14.651684761047363 11.934134483337402 C14.651684761047363 12.376766204833984 14.878789901733398 12.68779182434082 15.249704360961914 12.68779182434082 C15.56072998046875 12.68779182434082 15.811990737915039 12.520201683044434 15.871755599975586 12.448484420776367 L15.967628479003906 12.328829765319824 L15.97957992553711 12.34078311920166 L15.90786361694336 12.63985538482666 L16.398181915283203 12.63985538482666 L16.780799865722656 10.594533920288086 L16.780799865722656 10.594533920288086 M17.749736785888672 10.977277755737305 L17.749736785888672 10.989230155944824 C18.060760498046875 10.642345428466797 18.324098587036133 10.534645080566406 18.587312698364258 10.534645080566406 C18.886137008666992 10.534645080566406 19.04177474975586 10.666252136230469 19.04177474975586 11.01313591003418 C19.04177474975586 11.132665634155273 19.02981948852539 11.276225090026855 18.98200798034668 11.455642700195312 L18.742700576782227 12.63985538482666 L18.25225830078125 12.63985538482666 L18.491565704345703 11.467596054077148 C18.515594482421875 11.347942352294922 18.52754783630371 11.2523193359375 18.52754783630371 11.180477142333984 C18.539501190185547 10.9532470703125 18.44363021850586 10.90531063079834 18.31214714050293 10.90531063079834 C18.073087692260742 10.90531063079834 17.690345764160156 11.371849060058594 17.582643508911133 11.958040237426758 L17.462989807128906 12.63985538482666 L16.96059226989746 12.63985538482666 L17.355289459228516 10.594408988952637 L17.833904266357422 10.594408988952637 L17.749736785888672 10.977277755737305 L17.749736785888672 10.977277755737305 M20.8597412109375 12.460436820983887 C20.620681762695312 12.628026962280273 20.441261291503906 12.68779182434082 20.213783264160156 12.68779182434082 C19.67565155029297 12.68779182434082 19.35267448425293 12.316877365112305 19.35267448425293 11.79057502746582 C19.35267448425293 11.192429542541504 19.795305252075195 10.534645080566406 20.512855529785156 10.534645080566406 C20.740211486816406 10.534645080566406 20.931333541870117 10.630393028259277 21.063190460205078 10.773828506469727 L20.84778594970703 11.036916732788086 C20.77606964111328 10.989106178283691 20.66836929321289 10.90531063079834 20.48907470703125 10.90531063079834 C20.15401840209961 10.90531063079834 19.878976821899414 11.264147758483887 19.878976821899414 11.778621673583984 C19.878976821899414 12.089771270751953 20.022411346435547 12.328705787658691 20.29770278930664 12.328705787658691 C20.512981414794922 12.328705787658691 20.596527099609375 12.245035171508789 20.70435333251953 12.185270309448242 L20.8597412109375 12.460436820983887 L20.8597412109375 12.460436820983887 M21.733051300048828 11.503580093383789 C21.84075164794922 11.132789611816406 22.080059051513672 10.857624053955078 22.295337677001953 10.857624053955078 C22.426944732666016 10.857624053955078 22.498661041259766 10.905434608459473 22.486709594726562 11.036916732788086 C22.474754333496094 11.30025577545166 22.115795135498047 11.479673385620117 21.733051300048828 11.503580093383789 M22.54647445678711 12.137458801269531 C22.3551025390625 12.269065856933594 22.16373062133789 12.328829765319824 22.032123565673828 12.328829765319824 C21.673160552978516 12.316877365112305 21.661209106445312 11.958040237426758 21.685115814208984 11.80252742767334 C22.13982391357422 11.778621673583984 22.94116973876953 11.50345516204834 22.94116973876953 10.96519947052002 C22.94116973876953 10.666252136230469 22.6541748046875 10.534645080566406 22.42681884765625 10.534645080566406 C21.6133975982666 10.534645080566406 21.1588134765625 11.31220817565918 21.1588134765625 11.886322021484375 C21.1588134765625 12.376766204833984 21.410072326660156 12.68779182434082 21.792816162109375 12.68779182434082 C22.020170211791992 12.68779182434082 22.3551025390625 12.651808738708496 22.68990707397461 12.400547981262207 L22.54647445678711 12.137458801269531 L22.54647445678711 12.137458801269531" fill="black" fill-opacity="1.0" filling="0"/></svg>