<?xml version="1.0" encoding="iso-8859-1"?><svg height="200px" viewBox="0.0 0.0 24.0 24.0" width="200px" xmlns="http://www.w3.org/2000/svg"><path animation_id="0" d="M0.0 0.0 L24.0 0.0 L24.0 24.0 L0.0 24.0 L0.0 0.0" fill="black" fill-opacity="1.0" filling="0"/>
<path animation_id="1" d="M5.39587926864624 20.71343994140625 L11.999876022338867 12.55817699432373 L5.77189826965332 20.249143600463867 L5.27074670791626 20.031749725341797 L5.453775882720947 19.104400634765625 L11.999876022338867 12.55817699432373 L5.453775882720947 19.104400634765625 L4.909916877746582 18.942039489746094 L5.0412750244140625 18.193239212036133 L11.999876022338867 12.55817699432373 L5.0412750244140625 18.193239212036133 L4.4431304931640625 18.048559188842773 L4.543111324310303 17.400611877441406 L12.0 12.55817699432373 L4.543111324310303 17.400611877441406 L3.8640356063842773 17.25543212890625 L3.9337615966796875 16.668119430541992 L11.999876022338867 12.55817699432373 L3.9337615966796875 16.668119430541992 L3.1224546432495117 16.510740280151367 L3.1468591690063477 15.956546783447266 L11.999876022338867 12.55817699432373 L3.1468591690063477 15.956296920776367 L2.4809818267822266 15.651124954223633 L2.8403167724609375 15.012762069702148 L12.0 12.55817699432373 L2.8401918411254883 15.012513160705566 L2.4946775436401367 14.578596115112305 L3.058457374572754 13.974350929260254 L12.0 12.55817699432373 L3.058457374572754 13.974350929260254 L2.6567888259887695 13.540185928344727 L3.1209611892700195 13.023469924926758 L12.0 12.55817699432373 L3.1209611892700195 13.023469924926758 L2.6591548919677734 12.55817699432373 L3.0580835342407227 12.089522361755371 L12.0 12.55817699432373 L3.0580835342407227 12.089522361755371 L2.511610984802246 11.560853958129883 L2.8562536239624023 11.109879493713379 L12.0 12.55817699432373 L2.8562536239624023 11.109879493713379 L2.1629838943481445 10.467161178588867 L2.4406394958496094 9.996763229370117 L12.0 12.55817699432373 L1.863661766052246 9.842121124267578 L1.4231462478637695 9.1214599609375 L2.203075408935547 8.79736042022705 L12.0 12.55817699432373 L2.7608795166015625 9.011517524719238 L2.8126754760742188 8.467658996582031 L3.751354217529297 8.355226516723633 L12.0 12.558053016662598 L3.7512292861938477 8.355226516723633 L3.7375335693359375 7.787835597991943 L4.490443706512451 7.681379795074463 L12.0 12.558053016662598 L4.490443706512451 7.681379795074463 L4.4431304931640625 7.067795753479004 L5.090207576751709 6.962709426879883 L12.0 12.55817699432373 L5.090207576751709 6.962709426879883 L5.018489837646484 6.271929740905762 L5.598705291748047 6.1567583084106445 L12.0 12.558053016662598 L5.598580837249756 6.1567583084106445 L5.497727870941162 5.336487770080566 L6.032248497009277 5.188570022583008 L12.0 12.558053016662598 L6.032372951507568 5.188321113586426 L6.117039680480957 4.460686206817627 L6.835086822509766 4.605117321014404 L12.0 12.558053016662598 L6.835335731506348 4.605117321014404 L7.14113187789917 4.142314910888672 L7.8900580406188965 4.491813659667969 L12.0 12.558053016662598 L7.8899335861206055 4.491813659667969 L8.178796768188477 3.9757204055786133 L8.813671112060547 4.257361888885498 L11.999876022338867 12.558053016662598 L8.813671112060547 4.257361888885498 L9.11349105834961 3.6744070053100586 L9.682500839233398 3.9089832305908203 L12.0 12.558053016662598 L9.682500839233398 3.9089832305908203 L10.016435623168945 3.225923538208008 L10.551827430725098 3.414306640625 L11.999876022338867 12.558053016662598 L10.551827430725098 3.414306640625 L10.948763847351074 2.55643367767334 L11.482040405273438 2.6750917434692383 L12.0 12.558053016662598 L11.450788497924805 2.078441619873047 L11.999876022338867 1.436966896057129 L12.549212455749512 2.078441619873047 L12.0 12.558053016662598 L12.517960548400879 2.6750917434692383 L13.051236152648926 2.55643367767334 L13.448297500610352 3.414306640625 L12.0 12.558053016662598 L13.448297500610352 3.414306640625 L13.983689308166504 3.225923538208008 L14.317499160766602 3.9089832305908203 L12.0 12.558053016662598 L14.317499160766602 3.9089832305908203 L14.88650894165039 3.6744070053100586 L15.186328887939453 4.257361888885498 L12.000123977661133 12.558053016662598 L15.186328887939453 4.257361888885498 L15.821080207824707 3.9757204055786133 L16.109941482543945 4.491813659667969 L12.0 12.558053016662598 L16.11006736755371 4.491813659667969 L16.85874366760254 4.142314910888672 L17.16478729248047 4.605117321014404 L12.000123977661133 12.558053016662598 L17.164913177490234 4.605241775512695 L17.883087158203125 4.460810661315918 L17.967628479003906 5.188321113586426 L12.0 12.558053016662598 L17.96775245666504 5.188570022583008 L18.502397537231445 5.336487770080566 L18.40142059326172 6.1567583084106445 L12.0 12.558053016662598 L18.40142059326172 6.1567583084106445 L18.98163604736328 6.271929740905762 L18.909791946411133 6.962709426879883 L12.0 12.55817699432373 L18.909791946411133 6.962709426879883 L19.556869506835938 7.067795753479004 L19.50955581665039 7.681379795074463 L12.0 12.558053016662598 L19.50955581665039 7.681379795074463 L20.26234245300293 7.787835597991943 L20.248645782470703 8.355226516723633 L12.0 12.558053016662598 L20.24877166748047 8.355226516723633 L21.18732452392578 8.467658996582031 L21.239120483398438 9.011517524719238 L12.0 12.55817699432373 L21.796924591064453 8.79736042022705 L22.576854705810547 9.1214599609375 L22.136337280273438 9.842121124267578 L12.0 12.55817699432373 L21.559234619140625 9.996763229370117 L21.836891174316406 10.467161178588867 L21.14374542236328 11.109879493713379 L12.0 12.55817699432373 L21.14374542236328 11.109879493713379 L21.488264083862305 11.560853958129883 L20.941917419433594 12.089522361755371 L12.0 12.55817699432373 L20.941917419433594 12.089522361755371 L21.34084701538086 12.55817699432373 L20.87891387939453 13.023469924926758 L12.000123977661133 12.55817699432373 L20.87891387939453 13.023469924926758 L21.343212127685547 13.540185928344727 L20.941543579101562 13.974350929260254 L12.0 12.55817699432373 L20.941543579101562 13.974350929260254 L21.50532341003418 14.578596115112305 L21.159809112548828 15.012513160705566 L12.0 12.55817699432373 L21.159683227539062 15.012762069702148 L21.519020080566406 15.650999069213867 L20.85314178466797 15.956296920776367 L12.0 12.55817699432373 L20.853015899658203 15.956546783447266 L20.87742042541504 16.5106143951416 L20.066238403320312 16.668119430541992 L12.0 12.558053016662598 L20.066238403320312 16.668119430541992 L20.13596534729004 17.25543212890625 L19.456764221191406 17.400611877441406 L11.999876022338867 12.55817699432373 L19.456764221191406 17.400611877441406 L19.556869506835938 18.048559188842773 L18.958600997924805 18.193115234375 L12.0 12.55817699432373 L18.958600997924805 18.193115234375 L19.08995819091797 18.942039489746094 L18.546100616455078 19.104278564453125 L12.0 12.55817699432373 L18.546100616455078 19.104278564453125 L18.729129791259766 20.031875610351562 L18.227977752685547 20.249143600463867 L12.0 12.55817699432373 L18.60399627685547 20.713565826416016 L18.536762237548828 21.555252075195312 L17.71537208557129 21.359149932861328 L12.0 12.55817699432373 L17.390026092529297 20.858121871948242 L17.0283260345459 21.267635345458984 L16.20282554626465 20.80694580078125 L12.0 12.55817699432373 L16.202951431274414 20.80694580078125 L15.880470275878906 21.273983001708984 L15.208866119384766 20.91763687133789 L12.0 12.55830192565918 L15.208866119384766 20.91763687133789 L14.886384963989258 21.441823959350586 L14.301189422607422 21.146484375 L12.0 12.55830192565918 L14.301189422607422 21.146484375 L13.953309059143066 21.747493743896484 L13.416173934936523 21.49972152709961 L12.0 12.55830192565918 L13.416173934936523 21.49972152709961 L13.015750885009766 22.222623825073242 L12.496295928955078 22.028141021728516 L12.0 12.55830192565918 L12.496047019958496 22.028141021728516 L12.0 22.567142486572266 L11.503952980041504 22.02801513671875 L12.0 12.55817699432373 L11.503704071044922 22.02801513671875 L10.98425006866455 22.222623825073242 L10.583826065063477 21.49972152709961 L12.0 12.55817699432373 L10.583826065063477 21.49972152709961 L10.04669189453125 21.747493743896484 L9.698811531066895 21.146484375 L12.0 12.55817699432373 L9.698811531066895 21.146484375 L9.11349105834961 21.441823959350586 L8.791010856628418 20.91763687133789 L12.0 12.55817699432373 L8.791135787963867 20.91763687133789 L8.119404792785645 21.273983001708984 L7.797049522399902 20.80682373046875 L12.0 12.55817699432373 L7.797049522399902 20.80694580078125 L6.9715495109558105 21.267635345458984 L6.609973430633545 20.857995986938477 L12.0 12.55817699432373 L6.2845048904418945 21.359149932861328 L5.463113784790039 21.555374145507812 L5.39587926864624 20.71343994140625" fill="black" fill-opacity="1.0" filling="0"/>
<path animation_id="2" d="M12.0 12.557928085327148 L10.986740112304688 2.6332569122314453 L10.551703453063965 3.414306640625 L11.999876022338867 12.55817699432373 L10.050426483154297 3.3085975646972656 L9.682624816894531 3.9089832305908203 L12.000123977661133 12.557928085327148 L9.144991874694824 3.7595720291137695 L8.813796043395996 4.257361888885498 L12.0 12.55817699432373 L8.207557678222656 4.061383247375488 L7.8900580406188965 4.491813659667969 L12.000123977661133 12.55817699432373 L7.165162563323975 4.227230548858643 L6.835335731506348 4.605117321014404 L12.0 12.55817699432373 L6.174936771392822 4.540496826171875 L6.032497406005859 5.188321113586426 L12.0 12.55817699432373 L5.571063995361328 5.385544776916504 L5.598705291748047 6.1567583084106445 L12.0 12.55817699432373 L5.091203212738037 6.325592994689941 L5.090207576751709 6.962709426879883 L11.999876022338867 12.55817699432373 L4.514349937438965 7.1238250732421875 L4.490443706512451 7.681379795074463 L12.0 12.557928085327148 L3.805765151977539 7.845608234405518 L3.751354217529297 8.355226516723633 L11.999876022338867 12.55817699432373 L2.874058723449707 8.527547836303711 L2.7607545852661133 9.011517524719238 L11.999876022338867 12.55817699432373 L1.5206375122070312 9.153209686279297 L1.863661766052246 9.842121124267578 L12.0 12.55817699432373 L2.247899055480957 10.45495891571045 L2.8562536239624023 11.109879493713379 L11.999876022338867 12.55817699432373 L2.600635528564453 11.554130554199219 L3.0580835342407227 12.089522361755371 L11.999876022338867 12.55817699432373 L2.749797821044922 12.554691314697266 L3.1209611892700195 13.023469924926758 L11.999876022338867 12.55817699432373 L2.7471837997436523 13.539562225341797 L3.058457374572754 13.974350929260254 L11.999876022338867 12.55817699432373 L2.582829475402832 14.581958770751953 L2.8401918411254883 15.012513160705566 L12.0 12.55830192565918 L2.574737548828125 15.62061882019043 L3.1468591690063477 15.956296920776367 L11.999876022338867 12.55817699432373 L3.191682815551758 16.45620346069336 L3.9337615966796875 16.668119430541992 L12.0 12.55830192565918 L3.9373722076416016 17.20288848876953 L4.543111324310303 17.400611877441406 L12.0 12.55830192565918 L4.518458843231201 17.998132705688477 L5.0412750244140625 18.193239212036133 L12.0 12.55830192565918 L4.985867977142334 18.895099639892578 L5.453775882720947 19.104278564453125 L12.0 12.55830192565918 L5.346573352813721 19.99203109741211 L5.77189826965332 20.249143600463867 L11.999876022338867 12.55817699432373 L5.523501396179199 21.472328186035156 L6.2845048904418945 21.359149932861328 L12.0 12.55830192565918 L6.985992908477783 21.18309211730957 L7.797049522399902 20.80682373046875 L12.0 12.55830192565918 L8.14069652557373 21.187198638916016 L8.791135787963867 20.91763687133789 L12.0 12.55830192565918 L9.138267517089844 21.354665756225586 L9.698811531066895 21.146484375 L12.0 12.55830192565918 L10.073958396911621 21.661334991455078 L10.583826065063477 21.49972152709961 L12.0 12.55830192565918 L11.014629364013672 22.139949798583984 L11.503704071044922 22.02801513671875 L12.0 12.557928085327148" fill="black" fill-opacity="1.0" filling="0"/>
<path animation_id="3" d="M12.0 12.557928085327148 L12.0 1.539438247680664 L12.549212455749512 2.0785655975341797 L12.000123977661133 12.558053016662598 L11.999876022338867 22.468528747558594 L11.503952980041504 22.028141021728516 L12.0 12.557928085327148" fill="black" fill-opacity="1.0" filling="0"/>
<path animation_id="4" d="M12.0 12.557928085327148 L13.013259887695312 2.6332569122314453 L13.448173522949219 3.414306640625 L12.000123977661133 12.55817699432373 L13.949698448181152 3.3085975646972656 L14.317499160766602 3.9089832305908203 L12.0 12.557928085327148 L14.855133056640625 3.7595720291137695 L15.186328887939453 4.257361888885498 L12.000123977661133 12.55817699432373 L15.792566299438477 4.061383247375488 L16.11006736755371 4.491813659667969 L12.0 12.55817699432373 L16.834962844848633 4.227230548858643 L17.16478729248047 4.605117321014404 L12.000123977661133 12.55817699432373 L17.82518768310547 4.540496826171875 L17.96750259399414 5.188321113586426 L12.0 12.55817699432373 L18.429061889648438 5.385544776916504 L18.40142059326172 6.1567583084106445 L12.0 12.55817699432373 L18.908796310424805 6.325592994689941 L18.90966796875 6.962709426879883 L12.0 12.55817699432373 L19.48552703857422 7.1238250732421875 L19.50955581665039 7.681379795074463 L12.0 12.557928085327148 L20.194236755371094 7.845608234405518 L20.248645782470703 8.355226516723633 L12.0 12.55817699432373 L21.125816345214844 8.527547836303711 L21.239120483398438 9.011517524719238 L12.0 12.55817699432373 L22.47924041748047 9.153209686279297 L22.136337280273438 9.842121124267578 L12.0 12.55817699432373 L21.75210189819336 10.45495891571045 L21.14374542236328 11.109879493713379 L12.0 12.55817699432373 L21.399240493774414 11.554130554199219 L20.941791534423828 12.089522361755371 L12.0 12.55817699432373 L21.250202178955078 12.554691314697266 L20.87891387939453 13.023469924926758 L12.000123977661133 12.55817699432373 L21.252817153930664 13.539562225341797 L20.941543579101562 13.974350929260254 L12.0 12.55817699432373 L21.41716957092285 14.581958770751953 L21.159683227539062 15.012513160705566 L12.0 12.55830192565918 L21.425140380859375 15.62061882019043 L20.85314178466797 15.956296920776367 L12.0 12.55817699432373 L20.808317184448242 16.45620346069336 L20.066238403320312 16.668119430541992 L12.0 12.55830192565918 L20.062503814697266 17.20288848876953 L19.456764221191406 17.400611877441406 L11.999876022338867 12.55830192565918 L19.481542587280273 17.998132705688477 L18.958600997924805 18.193239212036133 L12.0 12.55830192565918 L19.014007568359375 18.895099639892578 L18.546222686767578 19.104278564453125 L12.0 12.55830192565918 L18.653301239013672 19.99203109741211 L18.22810173034668 20.249143600463867 L12.0 12.55817699432373 L18.476497650146484 21.472328186035156 L17.71537208557129 21.359149932861328 L12.0 12.55830192565918 L17.013883590698242 21.18309211730957 L16.20282554626465 20.80682373046875 L12.0 12.55830192565918 L15.859304428100586 21.187198638916016 L15.208866119384766 20.91763687133789 L12.0 12.55830192565918 L14.861732482910156 21.354665756225586 L14.301189422607422 21.146484375 L12.0 12.55830192565918 L13.92591667175293 21.661334991455078 L13.416173934936523 21.49972152709961 L12.0 12.55830192565918 L12.985370635986328 22.139949798583984 L12.496295928955078 22.02801513671875 L12.0 12.557928085327148" fill="black" fill-opacity="1.0" filling="0"/>
<path animation_id="5" d="M5.39587926864624 20.71343994140625 L11.999876022338867 12.55817699432373 L5.77189826965332 20.249143600463867 L5.27074670791626 20.031749725341797 L5.453775882720947 19.104400634765625 L11.999876022338867 12.55817699432373 L5.453775882720947 19.104400634765625 L4.909916877746582 18.942039489746094 L5.0412750244140625 18.193239212036133 L11.999876022338867 12.55817699432373 L5.0412750244140625 18.193239212036133 L4.4431304931640625 18.048559188842773 L4.543111324310303 17.400611877441406 L12.0 12.55817699432373 L4.543111324310303 17.400611877441406 L3.8640356063842773 17.25543212890625 L3.9337615966796875 16.668119430541992 L11.999876022338867 12.55817699432373 L3.9337615966796875 16.668119430541992 L3.1224546432495117 16.510740280151367 L3.1468591690063477 15.956546783447266 L11.999876022338867 12.55817699432373 L3.1468591690063477 15.956296920776367 L2.4809818267822266 15.651124954223633 L2.8403167724609375 15.012762069702148 L12.0 12.55817699432373 L2.8401918411254883 15.012513160705566 L2.4946775436401367 14.578596115112305 L3.058457374572754 13.974350929260254 L12.0 12.55817699432373 L3.058457374572754 13.974350929260254 L2.6567888259887695 13.540185928344727 L3.1209611892700195 13.023469924926758 L12.0 12.55817699432373 L3.1209611892700195 13.023469924926758 L2.6591548919677734 12.55817699432373 L3.0580835342407227 12.089522361755371 L12.0 12.55817699432373 L3.0580835342407227 12.089522361755371 L2.511610984802246 11.560853958129883 L2.8562536239624023 11.109879493713379 L12.0 12.55817699432373 L2.8562536239624023 11.109879493713379 L2.1629838943481445 10.467161178588867 L2.4406394958496094 9.996763229370117 L12.0 12.55817699432373 L1.863661766052246 9.842121124267578 L1.4231462478637695 9.1214599609375 L2.203075408935547 8.79736042022705 L12.0 12.55817699432373 L2.7608795166015625 9.011517524719238 L2.8126754760742188 8.467658996582031 L3.751354217529297 8.355226516723633 L12.0 12.558053016662598 L3.7512292861938477 8.355226516723633 L3.7375335693359375 7.787835597991943 L4.490443706512451 7.681379795074463 L12.0 12.558053016662598 L4.490443706512451 7.681379795074463 L4.4431304931640625 7.067795753479004 L5.090207576751709 6.962709426879883 L12.0 12.55817699432373 L5.090207576751709 6.962709426879883 L5.018489837646484 6.271929740905762 L5.598705291748047 6.1567583084106445 L12.0 12.558053016662598 L5.598580837249756 6.1567583084106445 L5.497727870941162 5.336487770080566 L6.032248497009277 5.188570022583008 L12.0 12.558053016662598 L6.032372951507568 5.188321113586426 L6.117039680480957 4.460686206817627 L6.835086822509766 4.605117321014404 L12.0 12.558053016662598 L6.835335731506348 4.605117321014404 L7.14113187789917 4.142314910888672 L7.8900580406188965 4.491813659667969 L12.0 12.558053016662598 L7.8899335861206055 4.491813659667969 L8.178796768188477 3.9757204055786133 L8.813671112060547 4.257361888885498 L11.999876022338867 12.558053016662598 L8.813671112060547 4.257361888885498 L9.11349105834961 3.6744070053100586 L9.682500839233398 3.9089832305908203 L12.0 12.558053016662598 L9.682500839233398 3.9089832305908203 L10.016435623168945 3.225923538208008 L10.551827430725098 3.414306640625 L11.999876022338867 12.558053016662598 L10.551827430725098 3.414306640625 L10.948763847351074 2.55643367767334 L11.482040405273438 2.6750917434692383 L12.0 12.558053016662598 L11.450788497924805 2.078441619873047 L11.999876022338867 1.436966896057129 L12.549212455749512 2.078441619873047 L12.0 12.558053016662598 L12.517960548400879 2.6750917434692383 L13.051236152648926 2.55643367767334 L13.448297500610352 3.414306640625 L12.0 12.558053016662598 L13.448297500610352 3.414306640625 L13.983689308166504 3.225923538208008 L14.317499160766602 3.9089832305908203 L12.0 12.558053016662598 L14.317499160766602 3.9089832305908203 L14.88650894165039 3.6744070053100586 L15.186328887939453 4.257361888885498 L12.000123977661133 12.558053016662598 L15.186328887939453 4.257361888885498 L15.821080207824707 3.9757204055786133 L16.109941482543945 4.491813659667969 L12.0 12.558053016662598 L16.11006736755371 4.491813659667969 L16.85874366760254 4.142314910888672 L17.16478729248047 4.605117321014404 L12.000123977661133 12.558053016662598 L17.164913177490234 4.605241775512695 L17.883087158203125 4.460810661315918 L17.967628479003906 5.188321113586426 L12.0 12.558053016662598 L17.96775245666504 5.188570022583008 L18.502397537231445 5.336487770080566 L18.40142059326172 6.1567583084106445 L12.0 12.558053016662598 L18.40142059326172 6.1567583084106445 L18.98163604736328 6.271929740905762 L18.909791946411133 6.962709426879883 L12.0 12.55817699432373 L18.909791946411133 6.962709426879883 L19.556869506835938 7.067795753479004 L19.50955581665039 7.681379795074463 L12.0 12.558053016662598 L19.50955581665039 7.681379795074463 L20.26234245300293 7.787835597991943 L20.248645782470703 8.355226516723633 L12.0 12.558053016662598 L20.24877166748047 8.355226516723633 L21.18732452392578 8.467658996582031 L21.239120483398438 9.011517524719238 L12.0 12.55817699432373 L21.796924591064453 8.79736042022705 L22.576854705810547 9.1214599609375 L22.136337280273438 9.842121124267578 L12.0 12.55817699432373 L21.559234619140625 9.996763229370117 L21.836891174316406 10.467161178588867 L21.14374542236328 11.109879493713379 L12.0 12.55817699432373 L21.14374542236328 11.109879493713379 L21.488264083862305 11.560853958129883 L20.941917419433594 12.089522361755371 L12.0 12.55817699432373 L20.941917419433594 12.089522361755371 L21.34084701538086 12.55817699432373 L20.87891387939453 13.023469924926758 L12.000123977661133 12.55817699432373 L20.87891387939453 13.023469924926758 L21.343212127685547 13.540185928344727 L20.941543579101562 13.974350929260254 L12.0 12.55817699432373 L20.941543579101562 13.974350929260254 L21.50532341003418 14.578596115112305 L21.159809112548828 15.012513160705566 L12.0 12.55817699432373 L21.159683227539062 15.012762069702148 L21.519020080566406 15.650999069213867 L20.85314178466797 15.956296920776367 L12.0 12.55817699432373 L20.853015899658203 15.956546783447266 L20.87742042541504 16.5106143951416 L20.066238403320312 16.668119430541992 L12.0 12.558053016662598 L20.066238403320312 16.668119430541992 L20.13596534729004 17.25543212890625 L19.456764221191406 17.400611877441406 L11.999876022338867 12.55817699432373 L19.456764221191406 17.400611877441406 L19.556869506835938 18.048559188842773 L18.958600997924805 18.193115234375 L12.0 12.55817699432373 L18.958600997924805 18.193115234375 L19.08995819091797 18.942039489746094 L18.546100616455078 19.104278564453125 L12.0 12.55817699432373 L18.546100616455078 19.104278564453125 L18.729129791259766 20.031875610351562 L18.227977752685547 20.249143600463867 L12.0 12.55817699432373 L18.60399627685547 20.713565826416016 L18.536762237548828 21.555252075195312 L17.71537208557129 21.359149932861328 L12.0 12.55817699432373 L17.390026092529297 20.858121871948242 L17.0283260345459 21.267635345458984 L16.20282554626465 20.80694580078125 L12.0 12.55817699432373 L16.202951431274414 20.80694580078125 L15.880470275878906 21.273983001708984 L15.208866119384766 20.91763687133789 L12.0 12.55830192565918 L15.208866119384766 20.91763687133789 L14.886384963989258 21.441823959350586 L14.301189422607422 21.146484375 L12.0 12.55830192565918 L14.301189422607422 21.146484375 L13.953309059143066 21.747493743896484 L13.416173934936523 21.49972152709961 L12.0 12.55830192565918 L13.416173934936523 21.49972152709961 L13.015750885009766 22.222623825073242 L12.496295928955078 22.028141021728516 L12.0 12.55830192565918 L12.496047019958496 22.028141021728516 L12.0 22.567142486572266 L11.503952980041504 22.02801513671875 L12.0 12.55817699432373 L11.503704071044922 22.02801513671875 L10.98425006866455 22.222623825073242 L10.583826065063477 21.49972152709961 L12.0 12.55817699432373 L10.583826065063477 21.49972152709961 L10.04669189453125 21.747493743896484 L9.698811531066895 21.146484375 L12.0 12.55817699432373 L9.698811531066895 21.146484375 L9.11349105834961 21.441823959350586 L8.791010856628418 20.91763687133789 L12.0 12.55817699432373 L8.791135787963867 20.91763687133789 L8.119404792785645 21.273983001708984 L7.797049522399902 20.80682373046875 L12.0 12.55817699432373 L7.797049522399902 20.80694580078125 L6.9715495109558105 21.267635345458984 L6.609973430633545 20.857995986938477 L12.0 12.55817699432373 L6.2845048904418945 21.359149932861328 L5.463113784790039 21.555374145507812 L5.39587926864624 20.71343994140625" fill="none" filling="0" stroke="black" stroke-opacity="1.0" stroke-width=".3"/>
<path animation_id="6" d="M12.0 7.887070178985596 L13.64726448059082 10.290606498718262 L16.442258834838867 11.114486694335938 L14.665380477905273 13.423893928527832 L14.745440483093262 16.336673736572266 L12.0 15.360517501831055 L9.254560470581055 16.336673736572266 L9.334620475769043 13.423893928527832 L7.557741641998291 11.114486694335938 L10.352736473083496 10.290606498718262 L12.0 7.887070178985596" fill="black" fill-opacity="1.0" filling="0"/>
<path animation_id="7" d="M12.0 12.558053016662598 L12.0 7.887194633483887 L13.64726448059082 10.290730476379395 L12.0 12.558053016662598 L16.442258834838867 11.114611625671387 L14.665380477905273 13.424018859863281 L12.0 12.55830192565918 L14.745440483093262 16.33679962158203 L12.0 15.36064338684082 L9.254560470581055 16.33679962158203 L12.0 12.558425903320312 L9.334620475769043 13.424018859863281 L7.557741641998291 11.114486694335938 L12.0 12.558053016662598" fill="black" fill-opacity="1.0" filling="0"/>
<path animation_id="8" d="M12.0 7.887070178985596 L13.64726448059082 10.290606498718262 L16.442258834838867 11.114486694335938 L14.665380477905273 13.423893928527832 L14.745440483093262 16.336673736572266 L12.0 15.360517501831055 L9.254560470581055 16.336673736572266 L9.334620475769043 13.423893928527832 L7.557741641998291 11.114486694335938 L10.352736473083496 10.290606498718262 L12.0 7.887070178985596" fill="none" filling="0" stroke="black" stroke-opacity="1.0" stroke-width=".3"/>
<path animation_id="9" d="M5.848471641540527 11.107887268066406 L6.016808986663818 10.506505966186523 L6.294466018676758 10.584199905395508 L6.2269816398620605 10.824877738952637 L6.490070343017578 10.89858627319336 L6.553072452545166 10.673224449157715 L6.817032814025879 10.747058868408203 L6.753906726837158 10.972421646118164 L7.058955669403076 11.05783462524414 L7.1330389976501465 10.793127059936523 L7.410571098327637 10.870820999145508 L7.235385894775391 11.496109008789062 L5.848471641540527 11.107887268066406 M7.308722019195557 8.968437194824219 L7.118221759796143 9.259415626525879 L7.028824329376221 9.200897216796875 C6.966320514678955 9.159933090209961 6.966320514678955 9.159933090209961 6.941916465759277 9.159809112548828 C6.9175124168396 9.159809112548828 6.9175124168396 9.159809112548828 6.900454998016357 9.185955047607422 C6.881778240203857 9.214219093322754 6.881778240203857 9.214219093322754 6.895225524902344 9.244226455688477 C6.908921241760254 9.273486137390137 6.908921241760254 9.273486137390137 6.955861568450928 9.304115295410156 C7.0161237716674805 9.343708992004395 7.0161237716674805 9.343708992004395 7.057336807250977 9.347319602966309 C7.098176002502441 9.351677894592285 7.098176002502441 9.351677894592285 7.189067840576172 9.306979179382324 C7.450414180755615 9.179356575012207 7.450414180755615 9.179356575012207 7.565585613250732 9.177240371704102 C7.68075704574585 9.174999237060547 7.68075704574585 9.174999237060547 7.857934474945068 9.29104232788086 C7.986552715301514 9.375459671020508 7.986552715301514 9.375459671020508 8.027641296386719 9.445931434631348 C8.069103240966797 9.515657424926758 8.069103240966797 9.515657424926758 8.05428695678711 9.629334449768066 C8.03859806060791 9.742389678955078 8.03859806060791 9.742389678955078 7.9635186195373535 9.857063293457031 C7.881093502044678 9.982818603515625 7.881093502044678 9.982818603515625 7.77501106262207 10.040839195251465 C7.669302463531494 10.098113059997559 7.669302463531494 10.098113059997559 7.577662944793701 10.077445030212402 C7.485899448394775 10.056777000427246 7.485899448394775 10.056777000427246 7.350557327270508 9.967876434326172 L7.271618366241455 9.916329383850098 L7.462242603302002 9.625349998474121 L7.608914852142334 9.721471786499023 C7.676523685455322 9.765796661376953 7.676523685455322 9.765796661376953 7.703667163848877 9.766544342041016 C7.731308460235596 9.766544342041016 7.731308460235596 9.766544342041016 7.751852035522461 9.735417366027832 C7.772272109985352 9.70404052734375 7.772272109985352 9.70404052734375 7.757579803466797 9.673162460327148 C7.743260860443115 9.641411781311035 7.743260860443115 9.641411781311035 7.694826602935791 9.609662055969238 C7.5883708000183105 9.539937019348145 7.5883708000183105 9.539937019348145 7.536699295043945 9.547532081604004 C7.484405517578125 9.55587387084961 7.484405517578125 9.55587387084961 7.331258296966553 9.622486114501953 C7.177239894866943 9.688477516174316 7.177239894866943 9.688477516174316 7.117475509643555 9.703542709350586 C7.05771017074585 9.718607902526855 7.05771017074585 9.718607902526855 6.979269504547119 9.703542709350586 C6.9014506340026855 9.687604904174805 6.9014506340026855 9.687604904174805 6.805453777313232 9.624603271484375 C6.666998863220215 9.533960342407227 6.666998863220215 9.533960342407227 6.625910758972168 9.457013130187988 C6.585320472717285 9.379444122314453 6.585320472717285 9.379444122314453 6.601382255554199 9.27709674835205 C6.616572380065918 9.174375534057617 6.616572380065918 9.174375534057617 6.689784049987793 9.062690734863281 C6.769719123840332 8.94067096710205 6.769719123840332 8.94067096710205 6.865218639373779 8.88090705871582 C6.961091041564941 8.82051944732666 6.961091041564941 8.82051944732666 7.039531707763672 8.832347869873047 C7.1175994873046875 8.843180656433105 7.1175994873046875 8.843180656433105 7.261159420013428 8.937309265136719 L7.308722019195557 8.968437194824219 M7.79368782043457 7.805515766143799 L8.08964729309082 7.571686744689941 C8.209798812866211 7.476809978485107 8.209798812866211 7.476809978485107 8.288862228393555 7.444935321807861 C8.368673324584961 7.412563323974609 8.368673324584961 7.412563323974609 8.428936004638672 7.422773361206055 C8.489945411682129 7.4324846267700195 8.489945411682129 7.4324846267700195 8.541243553161621 7.474569320678711 C8.592790603637695 7.515408515930176 8.592790603637695 7.515408515930176 8.67671012878418 7.621490955352783 L8.754404067993164 7.719977378845215 C8.839942932128906 7.828301429748535 8.839942932128906 7.828301429748535 8.856752395629883 7.895411968231201 C8.873559951782227 7.962646961212158 8.873559951782227 7.962646961212158 8.834465026855469 8.036605834960938 C8.79611587524414 8.110067367553711 8.79611587524414 8.110067367553711 8.699745178222656 8.186017990112305 L8.620929718017578 8.248397827148438 L8.980389595031738 8.703479766845703 L8.686546325683594 8.935690879821777 L7.79368782043457 7.805515766143799 M8.240303993225098 7.766793727874756 L8.467535018920898 8.054410934448242 C8.480731964111328 8.045072555541992 8.480731964111328 8.045072555541992 8.489696502685547 8.037975311279297 C8.53028678894043 8.005976676940918 8.53028678894043 8.005976676940918 8.530162811279297 7.974226474761963 C8.530162811279297 7.9413557052612305 8.530162811279297 7.9413557052612305 8.480607986450195 7.87847900390625 L8.407147407531738 7.7857184410095215 C8.361452102661133 7.727697372436523 8.361452102661133 7.727697372436523 8.329577445983887 7.7247090339660645 C8.297578811645508 7.721471786499023 8.297578811645508 7.721471786499023 8.240303993225098 7.766793727874756 L8.240303993225098 7.766793727874756 M9.464235305786133 6.734981060028076 L10.047064781188965 6.510863780975342 L10.150532722473145 6.779929161071777 L9.917201042175293 6.869576454162598 L10.015190124511719 7.124572277069092 L10.233580589294434 7.040652751922607 L10.33194351196289 7.296395778656006 L10.113553047180176 7.38031530380249 L10.227106094360352 7.675900936126709 L10.483719825744629 7.577289581298828 L10.587063789367676 7.846230506896973 L9.980950355529785 8.079313278198242 L9.464235305786133 6.734981060028076 M11.240242004394531 6.239432334899902 L11.504949569702148 6.224615573883057 C11.769657135009766 6.20992374420166 11.769657135009766 6.20992374420166 11.864035606384277 6.225113868713379 C11.959285736083984 6.240428447723389 11.959285736083984 6.240428447723389 12.022660255432129 6.321484088897705 C12.086783409118652 6.401668548583984 12.086783409118652 6.401668548583984 12.096993446350098 6.585444927215576 C12.106331825256348 6.753533363342285 12.106331825256348 6.753533363342285 12.06785774230957 6.813422203063965 C12.02925968170166 6.873560905456543 12.02925968170166 6.873560905456543 11.907240867614746 6.8918633460998535 C12.019922256469727 6.913279056549072 12.019922256469727 6.913279056549072 12.060636520385742 6.957355499267578 C12.101475715637207 7.001431941986084 12.101475715637207 7.001431941986084 12.112556457519531 7.040030002593994 C12.124384880065918 7.077632427215576 12.124384880065918 7.077632427215576 12.1340970993042 7.251696586608887 L12.155263900756836 7.631077766418457 L11.807881355285645 7.650376796722412 L11.78123664855957 7.172508239746094 C11.774886131286621 7.0569634437561035 11.774886131286621 7.0569634437561035 11.754715919494629 7.030567169189453 C11.735416412353516 7.003921985626221 11.735416412353516 7.003921985626221 11.658097267150879 7.008155345916748 L11.694204330444336 7.656602382659912 L11.32017707824707 7.677395343780518 L11.240242004394531 6.239432334899902 M11.627840995788574 6.464670658111572 L11.645645141601562 6.784411430358887 C11.708771705627441 6.780925273895264 11.708771705627441 6.780925273895264 11.732678413391113 6.762622356414795 C11.757454872131348 6.743447780609131 11.757454872131348 6.743447780609131 11.75210189819336 6.648447036743164 L11.747743606567383 6.569383144378662 C11.74400806427002 6.500903129577637 11.74400806427002 6.500903129577637 11.71786117553711 6.48098087310791 C11.692710876464844 6.4610595703125 11.692710876464844 6.4610595703125 11.627840995788574 6.464670658111572 L11.627840995788574 6.464670658111572 M13.94758129119873 6.506257057189941 L13.770030975341797 7.951565742492676 L13.40048599243164 7.849218845367432 L13.45153522491455 7.59472131729126 L13.32204532623291 7.558986663818359 L13.231650352478027 7.802527904510498 L12.857748031616211 7.699059963226318 L13.425512313842773 6.361701011657715 L13.94758129119873 6.506257057189941 M13.509307861328125 7.345826148986816 C13.547158241271973 7.102409362792969 13.547158241271973 7.102409362792969 13.61563777923584 6.7484283447265625 C13.450663566589355 7.131170749664307 13.450663566589355 7.131170749664307 13.385918617248535 7.311710357666016 L13.509307861328125 7.345826148986816 M15.912469863891602 7.539064884185791 L15.10091495513916 8.728880882263184 L14.829733848571777 8.543859481811523 L15.037664413452148 7.8931708335876465 L14.668741226196289 8.434041023254395 L14.410011291503906 8.257610321044922 L15.221814155578613 7.067795753479004 L15.48042106628418 7.244225978851318 L15.288427352905273 7.898275852203369 L15.653862953186035 7.3625102043151855 L15.912469863891602 7.539064884185791 M17.270748138427734 9.006163597106934 L17.04189682006836 9.18134880065918 L16.906679153442383 9.004793167114258 L15.992032051086426 9.70528507232666 L15.764179229736328 9.407831192016602 L16.678951263427734 8.707464218139648 L16.544231414794922 8.531532287597656 L16.773080825805664 8.35634708404541 L17.270748138427734 9.006163597106934 M17.320798873901367 11.13515567779541 C17.115856170654297 11.206499099731445 17.115856170654297 11.206499099731445 17.02670669555664 11.22617244720459 C16.938556671142578 11.24659252166748 16.938556671142578 11.24659252166748 16.85015296936035 11.21994686126709 C16.761999130249023 11.194048881530762 16.761999130249023 11.194048881530762 16.694141387939453 11.120588302612305 C16.62615966796875 11.04725170135498 16.62615966796875 11.04725170135498 16.58606719970703 10.932205200195312 C16.548091888427734 10.822885513305664 16.548091888427734 10.822885513305664 16.552947998046875 10.72327709197998 C16.558923721313477 10.624168395996094 16.558923721313477 10.624168395996094 16.611967086791992 10.546473503112793 C16.66488265991211 10.468530654907227 16.66488265991211 10.468530654907227 16.745439529418945 10.42918586730957 C16.825998306274414 10.389965057373047 16.825998306274414 10.389965057373047 17.03592300415039 10.316753387451172 L17.268754959106445 10.235821723937988 C17.473697662353516 10.164353370666504 17.473697662353516 10.164353370666504 17.561725616455078 10.144058227539062 C17.6510009765625 10.124385833740234 17.6510009765625 10.124385833740234 17.739152908325195 10.150283813476562 C17.82755470275879 10.176928520202637 17.82755470275879 10.176928520202637 17.89541244506836 10.250264167785645 C17.963394165039062 10.323725700378418 17.963394165039062 10.323725700378418 18.00348663330078 10.438772201538086 C18.041461944580078 10.547967910766602 18.041461944580078 10.547967910766602 18.035486221313477 10.647077560424805 C18.03050422668457 10.746685028076172 18.03050422668457 10.746685028076172 17.977588653564453 10.824502944946289 C17.924673080444336 10.902321815490723 17.924673080444336 10.902321815490723 17.844114303588867 10.941542625427246 C17.763681411743164 10.981012344360352 17.763681411743164 10.981012344360352 17.553632736206055 11.054099082946777 L17.320798873901367 11.13515567779541 M17.644649505615234 10.625910758972168 C17.73965072631836 10.592790603637695 17.73965072631836 10.592790603637695 17.761938095092773 10.572745323181152 C17.785221099853516 10.553321838378906 17.785221099853516 10.553321838378906 17.77389144897461 10.520451545715332 C17.764179229736328 10.492810249328613 17.764179229736328 10.492810249328613 17.737035751342773 10.485339164733887 C17.711135864257812 10.47836685180664 17.711135864257812 10.47836685180664 17.60605239868164 10.514847755432129 L16.970928192138672 10.735977172851562 C16.85251808166504 10.777314186096191 16.85251808166504 10.777314186096191 16.827991485595703 10.79611587524414 C16.8037109375 10.815912246704102 16.8037109375 10.815912246704102 16.816036224365234 10.85114860534668 C16.828489303588867 10.887256622314453 16.828489303588867 10.887256622314453 16.863971710205078 10.886260032653809 C16.899457931518555 10.885265350341797 16.899457931518555 10.885265350341797 17.019609451293945 10.843428611755371 L17.644649505615234 10.625910758972168" fill="black" fill-opacity="1.0" filling="0"/>
<path animation_id="10" d="M5.327273845672607 12.557928085327148 A6.672726154327393 6.672726154327393 0.0 1 0 18.672725677490234 12.557928085327148 A6.672726154327393 6.672726154327393 0.0 1 0 5.327273845672607 12.557928085327148" fill="black" fill-opacity="1.0" filling="0"/>
<path animation_id="11" d="M7.329141616821289 12.557928085327148 A4.670858383178711 4.670858383178711 0.0 1 0 16.67085838317871 12.557928085327148 A4.670858383178711 4.670858383178711 0.0 1 0 7.329141616821289 12.557928085327148" fill="black" fill-opacity="1.0" filling="0"/></svg>