<?xml version="1.0" encoding="iso-8859-1"?><svg height="200px" viewBox="0.0 0.0 24.0 24.0" width="200px" xmlns="http://www.w3.org/2000/svg"><path animation_id="0" d="M7.482342720031738 9.348257064819336 L7.482342720031738 14.53345775604248 L12.065571784973145 17.201229095458984 L16.5175724029541 14.608543395996094 L16.5175724029541 9.34757137298584 L12.006686210632324 6.714428424835205 L7.482342720031738 9.348257064819336 L7.482342720031738 9.348257064819336 M20.824628829956055 4.4048566818237305 L18.43894386291504 3.028885841369629 L13.86299991607666 5.656885623931885 L18.453857421875 8.28488540649414 L18.453857421875 13.556743621826172 L22.97142791748047 10.926856994628906 L22.97142791748047 8.160343170166016 C22.97142791748047 6.608913898468018 22.173770904541016 5.176114082336426 20.82471466064453 4.4048566818237305 L20.824628829956055 4.4048566818237305 M16.602001190185547 1.9709138870239258 L14.156229019165039 0.57257080078125 A4.345971584320068 4.345971584320068 0.0 0 0 9.843770980834961 0.57257080078125 L7.411799907684326 1.9629430770874023 L12.007800102233887 4.597628593444824 L16.602001190185547 1.9709138870239258 L16.602001190185547 1.9709138870239258 M18.453771591186523 20.905885696411133 L20.831571578979492 19.522886276245117 C22.18062973022461 18.75145721435547 22.97142791748047 17.31865692138672 22.97142791748047 15.767400741577148 L22.97142791748047 13.042799949645996 L18.453771591186523 15.672943115234375 L18.453771591186523 20.905885696411133 M7.482342720031738 16.649658203125 L7.482342720031738 21.957942962646484 L9.885085105895996 23.355087280273438 C11.220600128173828 24.118629455566406 12.800057411193848 24.118629455566406 14.135570526123047 23.355087280273438 L16.5175724029541 21.957942962646484 L16.5175724029541 16.724742889404297 L12.065571784973145 19.317001342773438 L7.482428073883057 16.64957046508789 L7.482342720031738 16.649658203125 M5.558914661407471 3.0203142166137695 L3.1735715866088867 4.4048566818237305 C1.824514389038086 5.176114082336426 1.0285711288452148 6.608828067779541 1.0285711288452148 8.160343170166016 L1.0285711288452148 10.851428031921387 L5.546228408813477 13.481400489807129 L5.546228408813477 8.284029006958008 L10.151657104492188 5.654999732971191 L5.558914661407471 3.0203142166137695 L5.558914661407471 3.0203142166137695 M1.0285711288452148 15.767400741577148 C1.0285711288452148 17.318828582763672 1.819371223449707 18.751628875732422 3.168428421020508 19.522886276245117 L5.546143054962158 20.905885696411133 L5.546143054962158 15.597599983215332 L1.0285711288452148 12.967628479003906 L1.0285711288452148 15.767485618591309 L1.0285711288452148 15.767400741577148" fill="black" fill-opacity="1.0" filling="0"/></svg>