<?xml version="1.0" encoding="iso-8859-1"?><svg height="200px" viewBox="0.0 0.0 24.0 24.0" width="200px" xmlns="http://www.w3.org/2000/svg"><path animation_id="0" d="M0.0 0.0 L24.0 0.0 L24.0 24.0 L0.0 24.0 L0.0 0.0" fill="black" fill-opacity="1.0" filling="0"/>
<path animation_id="1" d="M0.3528604507446289 23.63692855834961 L23.647140502929688 23.63692855834961 L23.647140502929688 0.3630704879760742 L0.3528604507446289 0.3630704879760742 L0.3528604507446289 23.63692855834961" fill="black" fill-opacity="1.0" filling="0"/>
<path animation_id="2" d="M14.949387550354004 4.409761428833008 C14.788396835327148 4.792255401611328 14.526676177978516 5.1143622398376465 14.144182205200195 5.396252632141113 C13.781859397888184 5.698312759399414 13.379070281982422 5.8995208740234375 12.936064720153809 6.060636043548584 C12.473012924194336 6.221627712249756 12.009961128234863 6.3223557472229 11.506692886352539 6.3223557472229 C11.003299713134766 6.3223557472229 10.500031471252441 6.261968612670898 10.057025909423828 6.100852966308594 C9.614145278930664 5.91969108581543 9.211480140686035 5.718358993530273 8.889372825622559 5.456639766693115 C8.547096252441406 5.154578685760498 8.28537654876709 4.85264253616333 8.084044456481934 4.490194797515869 A2.883272171020508 2.883272171020508 0.0 0 1 7.782107830047607 3.2016429901123047 C7.782107830047607 2.597646713256836 8.084044456481934 2.0339908599853516 8.64782428741455 1.4702110290527344 C9.211605072021484 0.8863849639892578 9.855817794799805 0.5239372253417969 10.620930671691895 0.3628215789794922 L12.332316398620605 0.3628215789794922 C13.177862167358398 0.5239372253417969 13.842247009277344 0.8660898208618164 14.426072120666504 1.3896541595458984 C14.989727973937988 1.9734792709350586 15.251447677612305 2.5774755477905273 15.251447677612305 3.2016429901123047 C15.251447677612305 3.6447744369506836 15.150843620300293 4.047438144683838 14.949387550354004 4.409761428833008 L14.949387550354004 4.409761428833008 M12.674468994140625 1.0878419876098633 C12.412750244140625 0.7857809066772461 12.010085105895996 0.6247892379760742 11.42625904083252 0.6247892379760742 C10.862478256225586 0.6650066375732422 10.45981502532959 0.8663387298583984 10.198095321655273 1.2287874221801758 C9.956546783447266 1.6314506530761719 9.815601348876953 2.235447883605957 9.815601348876953 3.08099365234375 C9.815601348876953 4.993587970733643 10.39942741394043 5.9600324630737305 11.567204475402832 5.9600324630737305 C11.828923225402832 5.9600324630737305 12.070472717285156 5.919815540313721 12.231588363647461 5.859303951263428 C12.432921409606934 5.798917293548584 12.614082336425781 5.698312759399414 12.734731674194336 5.517026901245117 C13.036792755126953 5.1143622398376465 13.217954635620117 4.389466762542725 13.217954635620117 3.342588424682617 C13.217954635620117 2.2756643295288086 13.036792755126953 1.5307226181030273 12.674468994140625 1.0878419876098633 L12.674468994140625 1.0878419876098633" fill="black" fill-opacity="1.0" filling="0"/>
<path animation_id="3" d="M4.862852573394775 0.7657356262207031 L4.862852573394775 13.44979190826416 L4.017182350158691 13.44979190826416 L4.017182350158691 13.872502326965332 L7.480047702789307 13.872502326965332 L7.480047702789307 13.44979190826416 L6.594160556793213 13.44979190826416 L6.5741143226623535 9.54379653930664 C6.735230445861816 9.281951904296875 7.077383041381836 9.020357131958008 7.500217914581299 8.7384672164917 C7.94322395324707 8.516963958740234 8.345888137817383 8.376020431518555 8.708211898803711 8.376020431518555 C8.949760437011719 8.376020431518555 9.110876083374023 8.4767484664917 9.292037963867188 8.637739181518555 C9.453028678894043 8.819025039672852 9.553757667541504 9.040403366088867 9.553757667541504 9.342463493347168 L9.553757667541504 13.44979190826416 L8.748428344726562 13.44979190826416 L8.748428344726562 13.872502326965332 L12.231588363647461 13.872502326965332 L12.231588363647461 13.44979190826416 L11.305360794067383 13.44979190826416 L11.305360794067383 9.040403366088867 C11.265143394470215 8.718297004699707 11.16441535949707 8.416236877441406 10.963083267211914 8.174687385559082 C10.661147117614746 7.832409858703613 10.258481979370117 7.6714186668396 9.6947021484375 7.631077766418457 C9.090580940246582 7.610907077789307 8.446367263793945 7.7720232009887695 7.802154064178467 8.114299774169922 C7.399489879608154 8.315632820129395 7.077383041381836 8.537135124206543 6.775322437286377 8.819025039672852 C6.694764614105225 8.839195251464844 6.674593925476074 8.879412651062012 6.634377479553223 8.839195251464844 C6.594036102294922 8.839195251464844 6.5739898681640625 8.819025039672852 6.5739898681640625 8.738592147827148 L6.594160556793213 0.3630704879760742 L3.9165782928466797 0.3630704879760742 L3.9165782928466797 0.7657356262207031 L4.862852573394775 0.7657356262207031 M15.452779769897461 0.3630704879760742 L18.11031723022461 0.3630704879760742 L18.11031723022461 10.288738250732422 L18.15065574645996 10.389342308044434 C18.170825958251953 10.429683685302734 18.251384735107422 10.389342308044434 18.271556854248047 10.349125862121582 L21.0900821685791 8.114299774169922 L20.123638153076172 8.114299774169922 L20.123638153076172 7.6714186668396 L23.043018341064453 7.6714186668396 L23.043018341064453 8.114299774169922 L22.237564086914062 8.114299774169922 C21.79468536376953 8.114299774169922 21.190685272216797 8.436407089233398 20.4862117767334 9.12096118927002 L23.18408966064453 13.449667930603027 L23.647140502929688 13.449667930603027 L23.647140502929688 13.872377395629883 L20.184274673461914 13.872377395629883 L20.184274673461914 13.449667930603027 L21.07016372680664 13.449667930603027 L19.076759338378906 10.248396873474121 L18.11031723022461 11.033679962158203 L18.11031723022461 13.44979190826416 L19.016372680664062 13.44979190826416 L19.016372680664062 13.872502326965332 L15.533212661743164 13.872502326965332 L15.533212661743164 13.44979190826416 L16.398929595947266 13.44979190826416 L16.398929595947266 0.7657356262207031 L15.452655792236328 0.7657356262207031 L15.452655792236328 0.3630704879760742 L15.452779769897461 0.3630704879760742 L15.452779769897461 0.3630704879760742" fill="black" fill-opacity="1.0" filling="0"/>
<path animation_id="4" d="M13.640913963317871 13.812114715576172 L14.023407936096191 13.812114715576172 L14.023407936096191 11.557119369506836 L15.855568885803223 11.557119369506836 L15.855568885803223 10.59067440032959 L14.023407936096191 10.59067440032959 L14.023407936096191 6.362697124481201 L13.640913963317871 6.362697124481201 L13.640913963317871 10.59067440032959 L11.808753967285156 10.59067440032959 L11.808753967285156 11.557119369506836 L13.640913963317871 11.557119369506836 L13.640913963317871 13.812114715576172" fill="black" fill-opacity="1.0" filling="0"/></svg>