<?xml version="1.0" encoding="iso-8859-1"?><svg height="200px" viewBox="0.0 0.0 24.0 24.0" width="200px" xmlns="http://www.w3.org/2000/svg"><path animation_id="0" d="M0.0 0.0 L24.0 0.0 L24.0 24.0 L0.0 24.0 L0.0 0.0" fill="black" fill-opacity="1.0" filling="0"/>
<path animation_id="1" d="M19.49673080444336 18.672103881835938 L19.49673080444336 15.767043113708496 L18.297828674316406 15.767043113708496 L18.297828674316406 18.672103881835938 L19.49673080444336 18.672103881835938 M13.149599075317383 17.465852737426758 L13.149599075317383 15.810994148254395 L11.987548828125 15.810994148254395 L11.987548828125 17.076013565063477 C11.987548828125 17.44369125366211 11.972857475280762 17.546785354614258 11.95081901550293 17.642410278320312 C11.869887351989746 17.907241821289062 11.590362548828125 18.0246524810791 11.303617477416992 18.0246524810791 C10.906556129455566 18.0246524810791 10.722655296325684 17.87026023864746 10.649069786071777 17.627592086791992 C10.627031326293945 17.54690933227539 10.619685173034668 17.45863151550293 10.61233901977539 17.37035369873047 C10.60499382019043 17.274730682373047 10.61233901977539 17.1716365814209 10.61233901977539 17.061569213867188 L10.61233901977539 15.811119079589844 L9.43559741973877 15.811119079589844 L9.43559741973877 17.473323822021484 C9.43559741973877 17.848596572875977 9.56072998046875 18.12799644470215 9.766544342041016 18.31911849975586 C10.119529724121094 18.66488265991211 10.71530818939209 18.767850875854492 11.266886711120605 18.767850875854492 C11.936126708984375 18.767850875854492 12.450974464416504 18.672229766845703 12.818652153015137 18.31189727783203 C13.01002311706543 18.127870559692383 13.149599075317383 17.885202407836914 13.149599075317383 17.465852737426758 L13.149599075317383 17.465852737426758 M7.442445278167725 17.25991439819336 A0.9886074066162109 0.9886074066162109 0.0 0 0 7.26601505279541 17.245346069335938 L5.942227363586426 17.245346069335938 C5.875988483428955 17.245346069335938 5.802403450012207 17.25269317626953 5.76567268371582 17.25991439819336 C5.787711143493652 17.23775291442871 5.831912040710449 17.193798065185547 5.875988483428955 17.134906768798828 L6.471642971038818 16.149288177490234 C6.552574157714844 16.017059326171875 6.5893049240112305 15.928780555725098 6.603997230529785 15.892050743103027 C6.618689060211182 15.928780555725098 6.65541934967041 16.017059326171875 6.736351013183594 16.156883239746094 L7.346822261810303 17.14984703063965 C7.376330852508545 17.193798065185547 7.420407295227051 17.23775291442871 7.442445278167725 17.25991439819336 L7.442445278167725 17.25991439819336 M9.66357421875 18.672103881835938 L7.015874862670898 14.700740814208984 L5.530349254608154 14.700740814208984 L5.920064926147461 15.164041519165039 C5.92741060256958 15.171387672424316 5.942227363586426 15.178608894348145 5.9567952156066895 15.18620491027832 C5.942102909088135 15.193550109863281 5.92741060256958 15.200772285461426 5.920064926147461 15.208118438720703 L3.6107826232910156 18.672103881835938 L4.949262619018555 18.672103881835938 L5.309718132019043 18.076324462890625 C5.324410438537598 18.046939849853516 5.331756114959717 18.017431259155273 5.331756114959717 18.00286293029785 C5.3464484214782715 18.00286293029785 5.383303165435791 18.017431259155273 5.4200334548950195 18.017431259155273 L7.810247421264648 18.017431259155273 C7.846977710723877 18.017431259155273 7.876361846923828 18.010086059570312 7.891054153442383 18.00286293029785 A0.09960779547691345 0.09960779547691345 0.0 0 0 7.905745983123779 18.061758041381836 L8.28089427947998 18.672103881835938 L9.66357421875 18.672103881835938 L9.66357421875 18.672103881835938 M17.974349975585938 17.17923355102539 C17.974349975585938 16.855506896972656 17.841873168945312 16.480358123779297 17.43012046813965 15.958165168762207 L16.437152862548828 14.700616836547852 L15.054473876953125 14.700616836547852 L15.841375350952148 15.583141326904297 C15.973854064941406 15.73031234741211 16.14293670654297 15.862541198730469 16.14293670654297 15.862541198730469 C15.951815605163574 15.75210189819336 15.709145545959473 15.708149909973145 15.517898559570312 15.708149909973145 C15.061944007873535 15.708149909973145 14.598394393920898 15.803772926330566 14.186765670776367 16.03187370300293 C13.745378494262695 16.274295806884766 13.451160430908203 16.678951263427734 13.451160430908203 17.21596336364746 C13.451160430908203 17.627716064453125 13.635062217712402 17.944095611572266 13.870386123657227 18.186765670776367 C14.400050163269043 18.7161808013916 15.36325740814209 18.76772689819336 15.7163667678833 18.76772689819336 C16.23843765258789 18.76772689819336 17.054847717285156 18.65006446838379 17.51839828491211 18.23084259033203 C17.790573120117188 17.980701446533203 17.974349975585938 17.63518524169922 17.974349975585938 17.17923355102539 L17.974349975585938 17.17923355102539 M16.826993942260742 17.21596336364746 C16.826993942260742 17.51752471923828 16.628276824951172 17.745378494262695 16.37826156616211 17.870386123657227 C16.172321319580078 17.980825424194336 15.92952823638916 18.010210037231445 15.7163667678833 18.010210037231445 C15.503206253051758 18.010210037231445 15.253066062927246 17.96601104736328 15.047126770019531 17.863039016723633 C14.797111511230469 17.7380313873291 14.60573959350586 17.495363235473633 14.60573959350586 17.23052978515625 C14.60573959350586 16.914400100708008 14.848409652709961 16.664134979248047 15.135404586791992 16.539127349853516 C15.311959266662598 16.458446502685547 15.52524471282959 16.428936004638672 15.694204330444336 16.428936004638672 C15.856191635131836 16.428936004638672 16.091514587402344 16.450849533081055 16.27541732788086 16.524559020996094 C16.606487274169922 16.664134979248047 16.826993942260742 16.928966522216797 16.826993942260742 17.21596336364746 M19.11585807800293 5.232273101806641 A3.8080060482025146 3.8080060482025146 0.0 0 0 16.743820190429688 6.056402683258057 A3.8075079917907715 3.8075079917907715 0.0 0 0 14.371786117553711 5.232273101806641 A3.808379650115967 3.808379650115967 0.0 0 0 11.999876022338867 6.056402683258057 A3.806760787963867 3.806760787963867 0.0 0 0 9.627965927124023 5.232273101806641 A3.808379650115967 3.808379650115967 0.0 0 0 7.256054401397705 6.056402683258057 A3.8081305027008057 3.8081305027008057 0.0 0 0 4.884143829345703 5.232273101806641 C2.771089553833008 5.232273101806641 1.058706283569336 6.944531440734863 1.058706283569336 9.057710647583008 C1.058706283569336 11.17064094543457 2.770963668823242 12.883148193359375 4.884143829345703 12.883148193359375 A3.8085038661956787 3.8085038661956787 0.0 0 0 7.256054401397705 12.059017181396484 A3.8081305027008057 3.8081305027008057 0.0 0 0 9.627965927124023 12.883148193359375 A3.8070099353790283 3.8070099353790283 0.0 0 0 11.999876022338867 12.059017181396484 A3.808379650115967 3.808379650115967 0.0 0 0 14.371786117553711 12.883148193359375 A3.8076324462890625 3.8076324462890625 0.0 0 0 16.743820190429688 12.059017181396484 A3.8076324462890625 3.8076324462890625 0.0 0 0 19.11585807800293 12.883148193359375 C21.228912353515625 12.883148193359375 22.94116973876953 11.17076587677002 22.94116973876953 9.057710647583008 C22.94116973876953 6.944655895233154 21.228912353515625 5.232273101806641 19.11585807800293 5.232273101806641 M6.630144119262695 11.434103012084961 C6.142688274383545 11.789703369140625 5.533710956573486 12.006723403930664 4.884143829345703 12.006723403930664 C3.2540626525878906 12.006723403930664 1.9350061416625977 10.68779182434082 1.9350061416625977 9.057710647583008 C1.9350061416625977 7.427628517150879 3.2540626525878906 6.108572959899902 4.884143829345703 6.108572959899902 C5.533710956573486 6.108572959899902 6.142314910888672 6.325717449188232 6.630144119262695 6.681441783905029 A3.802901029586792 3.802901029586792 0.0 0 0 5.802652359008789 9.057710647583008 A3.831164836883545 3.831164836883545 0.0 0 0 6.630144119262695 11.434103012084961 M7.256178855895996 10.8099365234375 A2.93133282661438 2.93133282661438 0.0 0 1 6.679076671600342 9.057710647583008 A2.9263525009155273 2.9263525009155273 0.0 0 1 7.256178855895996 7.305484771728516 A2.9274730682373047 2.9274730682373047 0.0 0 1 7.833281517028809 9.057710647583008 A2.931955575942993 2.931955575942993 0.0 0 1 7.256178855895996 10.8099365234375 M11.374089241027832 11.434103012084961 A2.9365622997283936 2.9365622997283936 0.0 0 1 9.625972747802734 12.005852699279785 A2.927597761154175 2.927597761154175 0.0 0 1 7.881965160369873 11.434103012084961 A3.8300442695617676 3.8300442695617676 0.0 0 0 8.709456443786621 9.05783462524414 A3.802901029586792 3.802901029586792 0.0 0 0 7.881965160369873 6.68156623840332 A2.9266014099121094 2.9266014099121094 0.0 0 1 9.625972747802734 6.1096930503845215 C10.280271530151367 6.1096930503845215 10.884765625 6.321359634399414 11.374089241027832 6.68156623840332 A3.802901029586792 3.802901029586792 0.0 0 0 10.546598434448242 9.05783462524414 A3.8302934169769287 3.8302934169769287 0.0 0 0 11.374089241027832 11.434103012084961 M11.999876022338867 10.8099365234375 A2.93133282661438 2.93133282661438 0.0 0 1 11.422772407531738 9.057710647583008 A2.9272241592407227 2.9272241592407227 0.0 0 1 11.999876022338867 7.305484771728516 A2.9267261028289795 2.9267261028289795 0.0 0 1 12.577102661132812 9.057710647583008 A2.931208372116089 2.931208372116089 0.0 0 1 11.999876022338867 10.8099365234375 M16.11791229248047 11.434103012084961 C15.62858772277832 11.794434547424316 15.024092674255371 12.005852699279785 14.369918823242188 12.005852699279785 C13.715744018554688 12.005852699279785 13.11510944366455 11.794060707092285 12.625785827636719 11.434103012084961 A3.8292970657348633 3.8292970657348633 0.0 0 0 13.453278541564941 9.05783462524414 A3.802901029586792 3.802901029586792 0.0 0 0 12.625785827636719 6.68156623840332 C13.11510944366455 6.321484088897705 13.715744018554688 6.1096930503845215 14.369918823242188 6.1096930503845215 C15.024092674255371 6.1096930503845215 15.62858772277832 6.321359634399414 16.11791229248047 6.68156623840332 A3.8037726879119873 3.8037726879119873 0.0 0 0 15.290419578552246 9.05783462524414 A3.831164836883545 3.831164836883545 0.0 0 0 16.11791229248047 11.434103012084961 M16.743946075439453 10.8099365234375 A2.93133282661438 2.93133282661438 0.0 0 1 16.16684341430664 9.057710647583008 A2.925605535507202 2.925605535507202 0.0 0 1 16.743946075439453 7.305484771728516 A2.9274730682373047 2.9274730682373047 0.0 0 1 17.321048736572266 9.057710647583008 A2.9327025413513184 2.9327025413513184 0.0 0 1 16.743946075439453 10.8099365234375 M19.11585807800293 12.006723403930664 C18.466039657592773 12.006723403930664 17.857187271118164 11.789703369140625 17.369855880737305 11.434103012084961 A3.8307912349700928 3.8307912349700928 0.0 0 0 18.19734764099121 9.05783462524414 A3.8037726879119873 3.8037726879119873 0.0 0 0 17.369855880737305 6.68156623840332 C17.857685089111328 6.3259663581848145 18.46616554260254 6.108696937561035 19.11585807800293 6.108696937561035 C20.745689392089844 6.108696937561035 22.06499481201172 7.42775297164917 22.06499481201172 9.05783462524414 C22.06499481201172 10.687666893005371 20.745689392089844 12.006723403930664 19.11585807800293 12.006723403930664" fill="black" fill-opacity="1.0" filling="0"/></svg>