<?xml version="1.0" encoding="iso-8859-1"?><svg height="200px" viewBox="0.0 0.0 24.0 24.0" width="200px" xmlns="http://www.w3.org/2000/svg"><path animation_id="0" d="M0.0 23.999065399169922 L24.0 23.999065399169922 L24.0 0.0009336471557617188 L0.0 0.0009336471557617188 L0.0 23.999065399169922" fill="black" fill-opacity="1.0" filling="0"/>
<path animation_id="1" d="M7.879225730895996 20.197036743164062 L8.255619049072266 20.197036743164062 L8.301064491271973 20.36587142944336 L8.826620101928711 20.36587142944336 L8.339912414550781 18.99651336669922 L7.788333415985107 18.99651336669922 L7.314449310302734 20.36587142944336 L7.840254306793213 20.36587142944336 L7.879225730895996 20.197036743164062 L7.879225730895996 20.197036743164062 M7.970118045806885 19.8725643157959 L8.060885429382324 19.450725555419922 L8.073834419250488 19.450725555419922 C8.086783409118652 19.509244918823242 8.093381881713867 19.567638397216797 8.106331825256348 19.626035690307617 L8.164726257324219 19.872440338134766 L7.970118045806885 19.872440338134766 L7.970118045806885 19.8725643157959 L7.970118045806885 19.8725643157959 M8.852643013000488 20.365997314453125 L9.767664909362793 20.365997314453125 L9.767664909362793 19.924610137939453 L9.352300643920898 19.924610137939453 L9.352300643920898 18.99651336669922 L8.852643013000488 18.99651336669922 L8.852643013000488 20.365997314453125 M10.838449478149414 19.029010772705078 C10.727884292602539 18.99651336669922 10.611218452453613 18.97709083557129 10.50090217590332 18.97709083557129 C10.098611831665039 18.97709083557129 9.787088394165039 19.295087814331055 9.787088394165039 19.690780639648438 C9.787088394165039 20.086721420288086 10.092137336730957 20.38517189025879 10.48147964477539 20.38517189025879 C10.572371482849121 20.38517189025879 10.75403118133545 20.372222900390625 10.838449478149414 20.333250045776367 L10.851397514343262 19.820518493652344 C10.766980171203613 19.89846420288086 10.676088333129883 19.95050811767578 10.565773010253906 19.95050811767578 C10.416609764099121 19.95050811767578 10.28674602508545 19.833717346191406 10.28674602508545 19.677955627441406 C10.28674602508545 19.535144805908203 10.410135269165039 19.41187858581543 10.559297561645508 19.41187858581543 C10.6696138381958 19.41187858581543 10.766980171203613 19.476747512817383 10.851397514343262 19.5545654296875 L10.838449478149414 19.029010772705078 L10.838449478149414 19.029010772705078 M11.396501541137695 20.197036743164062 L11.772894859313965 20.197036743164062 L11.818340301513672 20.36587142944336 L12.34402084350586 20.36587142944336 L11.85718822479248 18.99651336669922 L11.305609703063965 18.99651336669922 L10.831850051879883 20.36587142944336 L11.35753059387207 20.36587142944336 L11.396501541137695 20.197036743164062 L11.396501541137695 20.197036743164062 M11.487393379211426 19.8725643157959 L11.578161239624023 19.450725555419922 L11.591110229492188 19.450725555419922 C11.604059219360352 19.509244918823242 11.610658645629883 19.567638397216797 11.623607635498047 19.626035690307617 L11.682002067565918 19.872440338134766 L11.487393379211426 19.872440338134766 L11.487393379211426 19.8725643157959 L11.487393379211426 19.8725643157959 M11.591110229492188 18.568201065063477 L11.35753059387207 18.86665153503418 L11.519766807556152 18.983440399169922 L11.818340301513672 18.717363357543945 L11.591110229492188 18.568201065063477 L11.591110229492188 18.568201065063477 M12.363443374633789 20.365997314453125 L12.84367847442627 20.365997314453125 L12.84367847442627 19.918010711669922 C12.84367847442627 19.82724380493164 12.824254989624023 19.742950439453125 12.811056137084961 19.645584106445312 L12.824130058288574 19.645584106445312 L13.265268325805664 20.365997314453125 L13.739027976989746 20.365997314453125 L13.739027976989746 18.99663734436035 L13.265268325805664 18.99663734436035 L13.265268325805664 19.40540313720703 C13.265268325805664 19.522193908691406 13.28469181060791 19.63898468017578 13.304115295410156 19.755773544311523 L13.291166305541992 19.755773544311523 L12.843429565429688 18.99651336669922 L12.363194465637207 18.99651336669922 L12.363194465637207 20.365997314453125 L12.363443374633789 20.365997314453125 L12.363443374633789 20.365997314453125 M13.784598350524902 19.44437599182129 L14.057149887084961 19.43130111694336 L14.057149887084961 20.365997314453125 L14.556683540344238 20.365997314453125 L14.556683540344238 19.43130111694336 L14.82935905456543 19.44437599182129 L14.82935905456543 18.99651336669922 L13.784598350524902 18.99651336669922 L13.784598350524902 19.44437599182129 M15.186328887939453 20.197036743164062 L15.562721252441406 20.197036743164062 L15.608168601989746 20.36587142944336 L16.14019775390625 20.36587142944336 L15.647014617919922 18.99651336669922 L15.09518814086914 18.99651336669922 L14.621428489685059 20.36587142944336 L15.147233009338379 20.36587142944336 L15.186328887939453 20.197036743164062 L15.186328887939453 20.197036743164062 M15.276971817016602 19.8725643157959 L15.367864608764648 19.450725555419922 L15.387288093566895 19.450725555419922 C15.39388656616211 19.509244918823242 15.40671157836914 19.567638397216797 15.419909477233887 19.626035690307617 L15.478304862976074 19.872440338134766 L15.276971817016602 19.872440338134766 L15.276971817016602 19.8725643157959 M16.166343688964844 20.365997314453125 L16.652929306030273 20.365997314453125 L16.652929306030273 19.924610137939453 L16.659526824951172 19.924610137939453 L16.880035400390625 20.365997314453125 L17.451038360595703 20.365997314453125 L17.1527099609375 19.918010711669922 C17.12668800354004 19.879161834716797 17.094316482543945 19.859615325927734 17.074892044067383 19.840192794799805 L17.074892044067383 19.82724380493164 C17.25655174255371 19.768600463867188 17.334369659423828 19.677955627441406 17.334369659423828 19.470272064208984 C17.334369659423828 19.12637710571289 17.074892044067383 18.99651336669922 16.76972007751465 18.99651336669922 L16.166343688964844 18.99651336669922 L16.166343688964844 20.365997314453125 L16.166343688964844 20.365997314453125 M16.652929306030273 19.372905731201172 L16.691776275634766 19.372905731201172 C16.776195526123047 19.372905731201172 16.8476619720459 19.38585662841797 16.8476619720459 19.489696502685547 C16.8476619720459 19.586938858032227 16.769594192504883 19.600013732910156 16.685176849365234 19.600013732910156 L16.652803421020508 19.600013732910156 L16.652803421020508 19.372905731201172 L16.652929306030273 19.372905731201172 L16.652929306030273 19.372905731201172" fill="black" fill-opacity="1.0" filling="0"/>
<path animation_id="2" d="M17.911846160888672 20.197036743164062 L18.288240432739258 20.197036743164062 L18.33368682861328 20.36587142944336 L18.859241485595703 20.36587142944336 L18.366058349609375 18.99651336669922 L17.820831298828125 18.99651336669922 L17.340845108032227 20.36587142944336 L17.86640167236328 20.36587142944336 L17.911846160888672 20.197036743164062 L17.911846160888672 20.197036743164062 M17.996265411376953 19.8725643157959 L18.087032318115234 19.450725555419922 L18.106704711914062 19.450725555419922 C18.119653701782227 19.509244918823242 18.125879287719727 19.567638397216797 18.13907814025879 19.626035690307617 L18.197471618652344 19.872440338134766 L17.996265411376953 19.872440338134766 L17.996265411376953 19.8725643157959 L17.996265411376953 19.8725643157959 M5.62086820602417 21.79997444152832 A1.1537072658538818 1.1537072658538818 0.0 0 0 5.562472820281982 22.163419723510742 A0.7728319764137268 0.7728319764137268 0.0 0 0 6.341281414031982 22.94210433959961 C6.76947021484375 22.94210433959961 7.100417137145996 22.611156463623047 7.100417137145996 22.182844161987305 C7.100417137145996 22.08547592163086 7.08099365234375 21.8843936920166 7.035547733306885 21.79997444152832 L6.477494716644287 21.78702735900879 C6.568387508392334 21.871318817138672 6.620307922363281 21.968687057495117 6.620307922363281 22.091827392578125 C6.620307922363281 22.254188537597656 6.490443706512451 22.396875381469727 6.328207969665527 22.396875381469727 A0.2907302677631378 0.2907302677631378 0.0 0 1 6.0362324714660645 22.104900360107422 C6.0362324714660645 21.981510162353516 6.107576847076416 21.87119483947754 6.185519695281982 21.786901473999023 L5.62086820602417 21.79997444152832 L5.62086820602417 21.79997444152832 M5.562472820281982 20.884952545166016 C5.562472820281982 21.339038848876953 5.861047267913818 21.708959579467773 6.334681987762451 21.708959579467773 C6.808441638946533 21.708959579467773 7.100417137145996 21.339038848876953 7.100417137145996 20.884952545166016 C7.100417137145996 20.430742263793945 6.808441638946533 20.060821533203125 6.334681987762451 20.060821533203125 C5.861047267913818 20.060821533203125 5.562472820281982 20.430742263793945 5.562472820281982 20.884952545166016 M6.0491814613342285 20.884952545166016 C6.0491814613342285 20.709766387939453 6.178920745849609 20.605926513671875 6.341281414031982 20.605926513671875 C6.5099921226501465 20.605926513671875 6.626781940460205 20.72271728515625 6.626781940460205 20.884952545166016 C6.626781940460205 21.047189712524414 6.5099921226501465 21.163978576660156 6.341281414031982 21.163978576660156 C6.185519695281982 21.164104461669922 6.0491814613342285 21.053665161132812 6.0491814613342285 20.884952545166016 L6.0491814613342285 20.884952545166016 M6.964203357696533 20.00890350341797 C7.048496723175049 19.840192794799805 7.100417137145996 19.626035690307617 7.100417137145996 19.437652587890625 C7.100417137145996 19.113304138183594 6.918757438659668 18.78883171081543 6.568387508392334 18.78883171081543 C6.315258979797363 18.78883171081543 6.1919941902160645 18.957542419433594 6.140073299407959 19.184772491455078 L6.11405086517334 19.30803680419922 C6.101101875305176 19.34688377380371 6.094627857208252 19.418354034423828 6.0362324714660645 19.418354034423828 C5.977837562561035 19.418354034423828 5.95828914642334 19.347009658813477 5.95828914642334 19.301563262939453 C5.95828914642334 19.184772491455078 6.010210037231445 19.081056594848633 6.068729877471924 18.983564376831055 L5.692212104797363 18.840877532958984 C5.601444244384766 18.983564376831055 5.562472820281982 19.139328002929688 5.562472820281982 19.31463623046875 C5.562472820281982 19.63898468017578 5.757205963134766 19.957107543945312 6.11405086517334 19.957107543945312 C6.341281414031982 19.957107543945312 6.471020698547363 19.78192138671875 6.5035176277160645 19.567764282226562 L6.529415607452393 19.457324981689453 C6.535890102386475 19.412002563476562 6.542364120483398 19.340534210205078 6.607358932495117 19.340534210205078 C6.6787028312683105 19.340534210205078 6.698126316070557 19.424827575683594 6.698126316070557 19.476747512817383 C6.698126316070557 19.600013732910156 6.639730930328369 19.71680450439453 6.561788082122803 19.814170837402344 L6.542364120483398 19.846790313720703 L6.964203357696533 20.00890350341797 L6.964203357696533 20.00890350341797 M7.074519157409668 18.743511199951172 L7.074519157409668 18.22430419921875 L6.438523292541504 18.159435272216797 A1.7132540941238403 1.7132540941238403 0.0 0 0 6.256863594055176 18.146484375 L6.256863594055176 18.127063751220703 C6.321732997894287 18.120588302612305 6.380128383636475 18.10763931274414 6.444997787475586 18.094566345214844 L7.074519157409668 17.89995574951172 L7.074519157409668 17.581958770751953 L6.406150817871094 17.367801666259766 A1.027080774307251 1.027080774307251 0.0 0 0 6.256863594055176 17.335304260253906 L6.256863594055176 17.322357177734375 L7.074519157409668 17.251012802124023 L7.074519157409668 16.725332260131836 L5.582021236419678 16.971860885620117 L5.582021236419678 17.523563385009766 L6.165971755981445 17.692150115966797 C6.230841159820557 17.705097198486328 6.302309989929199 17.71817398071289 6.3671793937683105 17.72477149963379 L6.3671793937683105 17.744070053100586 L5.582021236419678 17.94527816772461 L5.582021236419678 18.503206253051758 L7.074519157409668 18.743511199951172 L7.074519157409668 18.743511199951172 M7.074519157409668 16.621366500854492 L7.074519157409668 15.602378845214844 L6.6656293869018555 15.602378845214844 L6.6656293869018555 16.076261520385742 L6.5229411125183105 16.076261520385742 L6.5229411125183105 15.654298782348633 L6.133599281311035 15.654298782348633 L6.133599281311035 16.076261520385742 L5.990786552429199 16.076261520385742 L5.990786552429199 15.615575790405273 L5.582021236419678 15.615575790405273 L5.582021236419678 16.621366500854492 L7.074519157409668 16.621366500854492 M5.12121057510376 16.1087589263916 L5.445682525634766 16.368362426757812 L5.5689473152160645 16.193052291870117 L5.283446311950684 15.86223030090332 L5.12121057510376 16.1087589263916 L5.12121057510376 16.1087589263916 M6.068729877471924 15.544107437133789 L6.0556559562683105 15.245658874511719 L7.074519157409668 15.245658874511719 L7.074519157409668 14.700553894042969 L6.0556559562683105 14.700553894042969 L6.068729877471924 14.40198040008545 L5.582021236419678 14.40198040008545 L5.582021236419678 15.544107437133789 L6.068729877471924 15.544107437133789" fill="black" fill-opacity="1.0" filling="0"/>
<path animation_id="3" d="M5.582021236419678 14.317687034606934 L7.074519157409668 14.317687034606934 L7.074519157409668 13.779057502746582 L5.582021236419678 13.779057502746582 L5.582021236419678 14.317687034606934" fill="black" fill-opacity="1.0" filling="0"/>
<path animation_id="4" d="M5.62086820602417 12.49411678314209 A1.1542054414749146 1.1542054414749146 0.0 0 0 5.562472820281982 12.857561111450195 A0.7729564905166626 0.7729564905166626 0.0 0 0 6.341281414031982 13.636369705200195 C6.76947021484375 13.636369705200195 7.100417137145996 13.30542278289795 7.100417137145996 12.876984596252441 C7.100417137145996 12.786216735839844 7.08099365234375 12.578534126281738 7.035547733306885 12.49411678314209 L6.477494716644287 12.481167793273926 C6.568387508392334 12.565461158752441 6.620307922363281 12.662827491760254 6.620307922363281 12.786216735839844 C6.620307922363281 12.948452949523926 6.490443706512451 13.09101676940918 6.328207969665527 13.09101676940918 A0.2907302677631378 0.2907302677631378 0.0 0 1 6.0362324714660645 12.799041748046875 C6.0362324714660645 12.675651550292969 6.107576847076416 12.565337181091309 6.185519695281982 12.481043815612793 L5.62086820602417 12.49411678314209 L5.62086820602417 12.49411678314209 M6.886384963989258 11.864720344543457 L6.886384963989258 11.455830574035645 L7.074519157409668 11.410384178161621 L7.074519157409668 10.832908630371094 L5.582021236419678 11.364937782287598 L5.582021236419678 11.968561172485352 L7.074519157409668 12.481167793273926 L7.074519157409668 11.910041809082031 L6.886384963989258 11.864720344543457 L6.886384963989258 11.864720344543457 M6.535890102386475 11.767354011535645 L6.081678867340088 11.669987678527832 L6.081678867340088 11.650564193725586 C6.140073299407959 11.643964767456055 6.2049431800842285 11.631014823913574 6.26981258392334 11.618066787719727 L6.535890102386475 11.553196907043457 L6.535890102386475 11.767354011535645 M5.62086820602417 8.983315467834473 A1.1542054414749146 1.1542054414749146 0.0 0 0 5.562472820281982 9.346759796142578 C5.562472820281982 9.788022994995117 5.906493186950684 10.125444412231445 6.341281414031982 10.125444412231445 C6.76947021484375 10.125444412231445 7.100417137145996 9.794496536254883 7.100417137145996 9.372907638549805 C7.100417137145996 9.275540351867676 7.08099365234375 9.074332237243652 7.035547733306885 8.983440399169922 L6.477494716644287 8.970491409301758 C6.568387508392334 9.054908752441406 6.620307922363281 9.152151107788086 6.620307922363281 9.282014846801758 C6.620307922363281 9.44425106048584 6.490443706512451 9.580465316772461 6.328207969665527 9.580465316772461 A0.2907302677631378 0.2907302677631378 0.0 0 1 6.0362324714660645 9.28848934173584 C6.0362324714660645 9.165224075317383 6.107576847076416 9.054908752441406 6.185519695281982 8.970491409301758 L5.62086820602417 8.983315467834473 L5.62086820602417 8.983315467834473 M6.886384963989258 8.35391902923584 L6.886384963989258 7.945029258728027 L7.074519157409668 7.899582862854004 L7.074519157409668 7.322106838226318 L5.582021236419678 7.85426139831543 L5.582021236419678 8.457759857177734 L7.074519157409668 8.970367431640625 L7.074519157409668 8.399365425109863 L6.886384963989258 8.35391902923584 M6.535890102386475 8.26302719116211 L6.081678867340088 8.159186363220215 L6.081678867340088 8.139761924743652 C6.140073299407959 8.133288383483887 6.2049431800842285 8.120214462280273 6.26981258392334 8.10726547241211 L6.535890102386475 8.04239559173584 L6.535890102386475 8.26302719116211 M7.074519157409668 7.276660919189453 L7.074519157409668 6.757454872131348 L6.626781940460205 6.757454872131348 L6.626781940460205 6.478428363800049 C6.626781940460205 6.173379898071289 6.432048797607422 5.985245704650879 6.133599281311035 5.985245704650879 C5.763680458068848 5.985245704650879 5.582021236419678 6.244848251342773 5.582021236419678 6.588744640350342 L5.582021236419678 7.276660919189453 L7.074519157409668 7.276660919189453 M5.990786552429199 6.757454872131348 L5.990786552429199 6.7055344581604 C5.990786552429199 6.614767074584961 5.997261047363281 6.504451751708984 6.11405086517334 6.504451751708984 C6.230841159820557 6.504451751708984 6.250389099121094 6.608168125152588 6.250389099121094 6.699060440063477 L6.250389099121094 6.757454872131348 L5.990786552429199 6.757454872131348" fill="black" fill-opacity="1.0" filling="0"/>
<path animation_id="5" d="M5.582021236419678 5.89435338973999 L7.074519157409668 5.89435338973999 L7.074519157409668 5.355724334716797 L5.582021236419678 5.355724334716797 L5.582021236419678 5.89435338973999" fill="black" fill-opacity="1.0" filling="0"/>
<path animation_id="6" d="M7.074519157409668 5.161115646362305 L7.074519157409668 4.161675930023193 L6.594285488128662 4.161675930023193 L6.594285488128662 4.622486591339111 L5.582021236419678 4.622486591339111 L5.582021236419678 5.161115646362305 L7.074519157409668 5.161115646362305" fill="black" fill-opacity="1.0" filling="0"/>
<path animation_id="7" d="M6.886384963989258 3.5971479415893555 L6.886384963989258 3.1882591247558594 L7.074519157409668 3.136338233947754 L7.074519157409668 2.565336227416992 L5.582021236419678 3.0974912643432617 L5.582021236419678 3.6945152282714844 L7.074519157409668 4.213596343994141 L7.074519157409668 3.636119842529297 L6.886384963989258 3.5971479415893555 M6.535890102386475 3.499781608581543 L6.081678867340088 3.4024152755737305 L6.081678867340088 3.3765172958374023 C6.140073299407959 3.3700428009033203 6.2049431800842285 3.3569698333740234 6.26981258392334 3.344019889831543 L6.535890102386475 3.27915096282959 L6.535890102386475 3.499781608581543 M7.074519157409668 2.513416290283203 L7.074519157409668 1.9877357482910156 L6.594285488128662 1.9877357482910156 L6.594285488128662 1.9747867584228516 L7.074519157409668 1.7344837188720703 L7.074519157409668 1.111684799194336 L6.587810516357422 1.4361581802368164 A0.5116105675697327 0.5116105675697327 0.0 0 0 6.5035176277160645 1.5270500183105469 L6.490443706512451 1.5270500183105469 C6.419099807739258 1.3258419036865234 6.328207969665527 1.241424560546875 6.101101875305176 1.241424560546875 C5.7247090339660645 1.241424560546875 5.582021236419678 1.5270500183105469 5.582021236419678 1.857996940612793 L5.582021236419678 2.513416290283203 L7.074519157409668 2.513416290283203 L7.074519157409668 2.513416290283203 M5.990786552429199 1.9877357482910156 L5.990786552429199 1.9422903060913086 C5.990786552429199 1.851522445678711 6.003735542297363 1.767104148864746 6.120650291442871 1.767104148864746 C6.230841159820557 1.767104148864746 6.243914604187012 1.857996940612793 6.243914604187012 1.9488897323608398 L6.243914604187012 1.9877357482910156 L5.990786552429199 1.9877357482910156 L5.990786552429199 1.9877357482910156 M18.113056182861328 22.156944274902344 L17.820955276489258 22.156944274902344 L17.963642120361328 21.715557098388672 L18.113056182861328 22.156944274902344 L18.113056182861328 22.156944274902344 M18.21054458618164 22.429372787475586 L18.301313400268555 22.66307830810547 L18.677705764770508 22.66307830810547 L18.16510009765625 21.29384422302246 L17.775758743286133 21.29384422302246 L17.249954223632812 22.66307830810547 L17.626346588134766 22.66307830810547 L17.723588943481445 22.429372787475586 L18.21054458618164 22.429372787475586 L18.21054458618164 22.429372787475586 M15.536699295043945 21.10558319091797 C15.543298721313477 21.07308578491211 15.556123733520508 21.040714263916016 15.595094680786133 21.040714263916016 C15.679512023925781 21.040714263916016 15.777003288269043 21.10558319091797 15.874245643615723 21.10558319091797 C16.029882431030273 21.10558319091797 16.09475326538086 20.9498233795166 16.10795021057129 20.820083618164062 L15.952064514160156 20.820083618164062 C15.939114570617676 20.859054565429688 15.926290512084961 20.884952545166016 15.880595207214355 20.884952545166016 C15.809375762939453 20.884952545166016 15.679512023925781 20.826433181762695 15.588495254516602 20.826433181762695 C15.5172758102417 20.826433181762695 15.458880424499512 20.87187957763672 15.426259994506836 20.930274963378906 C15.39388656616211 20.975719451904297 15.387412071228027 21.02764129638672 15.387412071228027 21.086158752441406 L15.387412071228027 21.10546112060547 L15.536699295043945 21.10546112060547 L15.536699295043945 21.10558319091797 L15.536699295043945 21.10558319091797 M15.063063621520996 22.66307830810547 L15.420034408569336 22.66307830810547 L15.420034408569336 21.82587432861328 L16.07545280456543 22.66307830810547 L16.432422637939453 22.66307830810547 L16.432422637939453 21.29384422302246 L16.07545280456543 21.29384422302246 L16.07545280456543 22.131046295166016 L15.420034408569336 21.29384422302246 L15.063063621520996 21.29384422302246 L15.063063621520996 22.66307830810547 M13.680757522583008 22.156944274902344 L13.382431983947754 22.156944274902344 L13.53147029876709 21.715557098388672 L13.680757522583008 22.156944274902344 M13.771649360656738 22.429372787475586 L13.862417221069336 22.66307830810547 L14.24540901184082 22.66307830810547 L13.726202964782715 21.29384422302246 L13.336860656738281 21.29384422302246 L12.811056137084961 22.66307830810547 L13.18744945526123 22.66307830810547 L13.28469181060791 22.429372787475586 L13.771649360656738 22.429372787475586 M11.51329231262207 21.579345703125 L11.571686744689941 21.579345703125 C11.708024978637695 21.579345703125 11.831290245056152 21.5859432220459 11.831290245056152 21.75452995300293 C11.831290245056152 21.923240661621094 11.70142650604248 21.923240661621094 11.571686744689941 21.923240661621094 L11.51329231262207 21.923240661621094 L11.51329231262207 21.579345703125 M11.15632152557373 22.66307830810547 L11.51329231262207 22.66307830810547 L11.51329231262207 22.2089900970459 L11.714499473571777 22.2089900970459 C12.025897979736328 22.2089900970459 12.201208114624023 22.066177368164062 12.201208114624023 21.748178482055664 C12.201208114624023 21.430179595947266 11.993525505065918 21.293968200683594 11.70142650604248 21.293968200683594 L11.15632152557373 21.293968200683594 L11.15632152557373 22.66307830810547 L11.15632152557373 22.66307830810547 M10.22187614440918 21.37178611755371 C10.098611831665039 21.300315856933594 9.929901123046875 21.2613468170166 9.793562889099121 21.2613468170166 C9.51453685760498 21.2613468170166 9.319803237915039 21.44300651550293 9.319803237915039 21.715557098388672 C9.319803237915039 21.98163414001465 9.462615966796875 22.039905548095703 9.689722061157227 22.105026245117188 C9.767664909362793 22.124324798583984 9.903878211975098 22.163419723510742 9.903878211975098 22.260786056518555 C9.903878211975098 22.358028411865234 9.813111305236816 22.39699935913086 9.73516845703125 22.39699935913086 C9.611903190612793 22.39699935913086 9.508062362670898 22.338603973388672 9.417170524597168 22.260786056518555 L9.261408805847168 22.546287536621094 C9.404096603393555 22.643653869628906 9.572807312011719 22.702049255371094 9.748117446899414 22.702049255371094 C9.884454727172852 22.702049255371094 10.027143478393555 22.66307830810547 10.13098430633545 22.572185516357422 C10.241299629211426 22.481292724609375 10.273797035217285 22.338603973388672 10.273797035217285 22.202266693115234 C10.273797035217285 21.98163414001465 10.13098430633545 21.884267807006836 9.936375617980957 21.832347869873047 L9.845483779907227 21.799850463867188 C9.787088394165039 21.780426025390625 9.689722061157227 21.754404067993164 9.689722061157227 21.67011070251465 C9.689722061157227 21.5921688079834 9.774139404296875 21.559547424316406 9.839009284973145 21.559547424316406 C9.929901123046875 21.559547424316406 10.01419448852539 21.5921688079834 10.079063415527344 21.650440216064453 L10.22187614440918 21.37178611755371 L10.22187614440918 21.37178611755371 M8.39183235168457 21.598766326904297 L8.39183235168457 21.29384422302246 L7.613148212432861 21.29384422302246 L7.613148212432861 22.66307830810547 L8.39183235168457 22.66307830810547 L8.39183235168457 22.364627838134766 L7.970118045806885 22.364627838134766 L7.970118045806885 22.124446868896484 L8.372283935546875 22.124446868896484 L8.372283935546875 21.82599639892578 L7.970118045806885 21.82599639892578 L7.970118045806885 21.598892211914062 L8.39183235168457 21.598892211914062 L8.39183235168457 21.598766326904297 M7.327647686004639 20.65137481689453 L18.8787899017334 20.65137481689453 L18.8787899017334 22.890058517456055 L7.327647686004639 22.890058517456055 L7.327647686004639 20.65137481689453 L7.327647686004639 20.65137481689453 M7.327647686004639 12.734295845031738 L7.327647686004639 1.0597648620605469 L18.8787899017334 1.0597648620605469 L18.8787899017334 18.503332138061523 L7.327647686004639 18.503332138061523 L7.327647686004639 12.734295845031738 M16.66625213623047 11.08292293548584 C16.572620391845703 10.789454460144043 16.348129272460938 10.3677396774292 15.913092613220215 9.943784713745117 C14.738468170166016 8.801655769348145 13.44045352935791 10.04115104675293 13.44045352935791 10.04115104675293 C13.44045352935791 10.04115104675293 12.538505554199219 11.170330047607422 13.1746244430542 11.806200981140137 C13.93388557434082 12.571935653686523 14.77743911743164 11.44288158416748 14.77743911743164 11.44288158416748 C15.6730375289917 10.87175464630127 15.679388046264648 11.643964767456055 15.679388046264648 11.643964767456055 C15.812115669250488 12.440328598022461 15.735791206359863 13.453713417053223 15.355911254882812 14.180850982666016 C14.978771209716797 14.9032564163208 14.081180572509766 15.853763580322266 13.135653495788574 15.673971176147461 C11.565088272094727 15.375521659851074 11.740272521972656 13.240428924560547 11.740272521972656 13.246903419494629 C11.720849990844727 13.078316688537598 11.707900047302246 12.9094820022583 11.714374542236328 12.734295845031738 C11.740272521972656 11.332690238952637 12.53838062286377 9.775073051452637 12.53838062286377 9.775073051452637 C12.53838062286377 9.775073051452637 13.168025970458984 8.412314414978027 14.809686660766602 8.07476806640625 C17.736412048339844 7.471269607543945 18.83969497680664 1.6307659149169922 18.612586975097656 1.2025775909423828 C18.599637985229492 1.1766796112060547 14.478740692138672 1.2025775909423828 14.478740692138672 1.2025775909423828 C14.478740692138672 1.2025775909423828 16.172571182250977 3.9345703125 15.140633583068848 6.108510494232178 C14.666873931884766 7.0364813804626465 14.037352561950684 6.465479373931885 14.245285034179688 5.738592147827148 C14.245285034179688 5.738592147827148 14.731868743896484 1.7800540924072266 11.610533714294434 1.533524513244629 C8.534520149230957 1.299818992614746 8.307415008544922 5.368797779083252 8.307415008544922 5.368797779083252 C8.26844310760498 8.269500732421875 11.409326553344727 8.775757789611816 11.409326553344727 8.775757789611816 C12.032248497009277 8.834153175354004 11.675403594970703 9.541492462158203 11.675403594970703 9.541492462158203 C11.675403594970703 9.541492462158203 10.903194427490234 11.085911750793457 10.377513885498047 12.734295845031738 C10.143933296203613 13.474008560180664 9.95567512512207 14.226794242858887 9.903754234313965 14.875740051269531 C9.70267105102539 17.575483322143555 12.272303581237793 18.016746520996094 12.272303581237793 18.016746520996094 C15.324286460876465 17.745315551757812 16.393573760986328 14.915956497192383 16.64832305908203 13.72340202331543 C16.81753158569336 12.931768417358398 16.92460823059082 11.892735481262207 16.66625213623047 11.08292293548584 L16.66625213623047 11.08292293548584 M11.902633666992188 7.568635940551758 C11.902633666992188 6.89379358291626 12.194733619689941 6.770403861999512 12.551702499389648 6.770403861999512 C12.908672332763672 6.770403861999512 13.161551475524902 7.0300068855285645 13.135778427124023 7.432422637939453 C13.103156089782715 8.035921096801758 12.791633605957031 8.237129211425781 12.434663772583008 8.237129211425781 C11.935131072998047 8.237129211425781 11.902633666992188 7.769844055175781 11.902633666992188 7.568635940551758" fill="black" fill-opacity="1.0" filling="0"/></svg>