<?xml version="1.0" encoding="iso-8859-1"?><svg height="200px" viewBox="0.0 0.0 24.0 24.0" width="200px" xmlns="http://www.w3.org/2000/svg"><path animation_id="0" d="M2.863025665283203 0.0 L21.136974334716797 0.0 L21.136974334716797 24.0 L2.863025665283203 24.0 L2.863025665283203 0.0" fill="black" fill-opacity="1.0" filling="0"/>
<path animation_id="1" d="M3.250790596008301 0.38776493072509766 L20.749095916748047 0.38776493072509766 L20.749095916748047 23.61223602294922 L3.250790596008301 23.61223602294922 L3.250790596008301 0.38776493072509766" fill="black" fill-opacity="1.0" filling="0"/>
<path animation_id="2" d="M5.084787845611572 1.5026168823242188 L4.520725250244141 1.5026168823242188 L4.254689693450928 2.2523937225341797 L4.254689693450928 1.5026168823242188 L3.690627098083496 1.5026168823242188 L3.690627098083496 3.4501752853393555 L4.254689693450928 3.4501752853393555 L4.254689693450928 2.7003984451293945 L4.520725250244141 3.4501752853393555 L5.084787845611572 3.4501752853393555 L4.739339351654053 2.4764528274536133 L5.084787845611572 1.5026168823242188 M12.526511192321777 1.513279914855957 L11.323850631713867 1.513279914855957 L11.323850631713867 2.1092214584350586 L11.637874603271484 2.1092214584350586 L11.637874603271484 3.439511299133301 L12.212601661682129 3.439511299133301 L12.212601661682129 2.1092214584350586 L12.526511192321777 2.1092214584350586 L12.526511192321777 1.513279914855957 M16.53598403930664 1.491952896118164 L15.950592994689941 1.491952896118164 L15.727214813232422 2.33577823638916 L15.503722190856934 1.491952896118164 L14.918331146240234 1.491952896118164 L15.434405326843262 3.440646171569824 L15.429186820983887 3.46083927154541 L16.02524185180664 3.46083927154541 L16.019908905029297 3.440646171569824 L16.53598403930664 1.491952896118164 M20.44437599182129 1.491952896118164 L19.858983993530273 1.491952896118164 L19.635604858398438 2.33577823638916 L19.412113189697266 1.491952896118164 L18.826723098754883 1.491952896118164 L19.342910766601562 3.440646171569824 L19.33757781982422 3.46083927154541 L19.933631896972656 3.46083927154541 L19.928300857543945 3.440646171569824 L20.44437599182129 1.491952896118164 M7.609228610992432 2.904264450073242 L8.080377578735352 2.8338136672973633 C8.099550247192383 2.921168327331543 8.126891136169434 2.9835643768310547 8.162400245666504 3.021115303039551 C8.197909355163574 3.0586671829223633 8.244649887084961 3.0774993896484375 8.30239486694336 3.0774993896484375 C8.3661527633667 3.0774993896484375 8.415502548217773 3.056398391723633 8.45033073425293 3.0143089294433594 C8.478012084960938 2.9832239151000977 8.491966247558594 2.944085121154785 8.491966247558594 2.897231101989746 C8.491966247558594 2.8443641662597656 8.473814964294434 2.8034095764160156 8.43762493133545 2.7745933532714844 C8.412212371826172 2.754286766052246 8.344257354736328 2.728987693786621 8.233985900878906 2.6989240646362305 C8.069486618041992 2.654452323913574 7.955245018005371 2.6133832931518555 7.891146659851074 2.5753793716430664 C7.826935291290283 2.5374879837036133 7.7729339599609375 2.4733896255493164 7.729143142700195 2.383084297180176 C7.685238838195801 2.2928943634033203 7.663456916809082 2.189883232116699 7.663456916809082 2.074167251586914 C7.663456916809082 1.9477853775024414 7.687053680419922 1.8387622833251953 7.73436164855957 1.747323989868164 C7.7816691398620605 1.6558847427368164 7.846674919128418 1.5875892639160156 7.929378509521484 1.542323112487793 C8.011968612670898 1.4971704483032227 8.123373985290527 1.474595069885254 8.26370906829834 1.474595069885254 C8.410964965820312 1.474595069885254 8.519647598266602 1.4920663833618164 8.589757919311523 1.5271215438842773 C8.659982681274414 1.562063217163086 8.718294143676758 1.6165180206298828 8.765034675598145 1.6901464462280273 C8.811775207519531 1.763772964477539 8.850687980651855 1.8633813858032227 8.88188648223877 1.988966941833496 L8.432405471801758 2.0539722442626953 C8.421514511108398 1.9937314987182617 8.402456283569336 1.9494876861572266 8.375001907348633 1.9211254119873047 A0.18208375573158264 0.18208375573158264 0.0 0 0 8.240224838256836 1.8644018173217773 C8.186338424682617 1.8644018173217773 8.147197723388672 1.8791494369506836 8.122579574584961 1.9086456298828125 A0.16200348734855652 0.16200348734855652 0.0 0 0 8.085823059082031 2.0158538818359375 C8.085823059082031 2.0627079010009766 8.101478576660156 2.0982179641723633 8.132904052734375 2.1222686767578125 C8.164215087890625 2.1462059020996094 8.232171058654785 2.167874336242676 8.33665657043457 2.1871604919433594 C8.493894577026367 2.214841842651367 8.611085891723633 2.253300666809082 8.688570976257324 2.302536964416504 C8.765942573547363 2.351773262023926 8.824708938598633 2.4219980239868164 8.864869117736816 2.513209342956543 C8.905029296875 2.604421615600586 8.925223350524902 2.704710006713867 8.925223350524902 2.8138465881347656 A0.8474552035331726 0.8474552035331726 0.0 0 1 8.861239433288574 3.136265754699707 A0.536494791507721 0.536494791507721 0.0 0 1 8.657600402832031 3.3856239318847656 C8.564459800720215 3.4474525451660156 8.437965393066406 3.4783105850219727 8.278230667114258 3.4783105850219727 C8.050994873046875 3.4783105850219727 7.889444828033447 3.4286203384399414 7.793354511260986 3.329012870788574 C7.696924209594727 3.2294063568115234 7.6355485916137695 3.087822914123535 7.609228610992432 2.904264450073242 L7.609228610992432 2.904264450073242 M16.319866180419922 4.044187545776367 C16.36206817626953 4.033977508544922 16.41425323486328 4.04169225692749 16.460086822509766 4.016166687011719 C16.631732940673828 4.221848011016846 16.631393432617188 4.508756637573242 16.48754119873047 4.72578239440918 C16.47665023803711 4.742118835449219 16.442956924438477 4.789313316345215 16.443864822387695 4.786477565765381 C16.396102905273438 4.934980392456055 16.458499908447266 5.073953628540039 16.63831329345703 5.154274940490723 C16.82607078552246 5.13453483581543 17.093353271484375 5.15189266204834 17.255016326904297 5.353035926818848 C17.319795608520508 5.433470249176025 17.40363311767578 5.504374980926514 17.432109832763672 5.607726097106934 A0.19172683358192444 0.19172683358192444 0.0 0 1 17.388092041015625 5.791171073913574 A0.7683820724487305 0.7683820724487305 0.0 0 0 17.208616256713867 5.700413227081299 A1.4557623863220215 1.4557623863220215 0.0 0 1 17.070323944091797 5.982217311859131 C17.04547882080078 6.020902633666992 17.059432983398438 6.092261791229248 17.10810089111328 6.101564407348633 C17.31310272216797 6.1410441398620605 17.53318977355957 6.11234188079834 17.720718383789062 6.004452705383301 C17.792078018188477 5.963384628295898 17.88385772705078 5.94296407699585 17.955556869506836 5.973935604095459 C18.00229835510254 5.994129180908203 18.01228141784668 6.0660552978515625 18.002410888671875 6.126069068908691 C17.968603134155273 6.119035243988037 17.925151824951172 6.100883960723877 17.90155601501465 6.113022327423096 C17.82259750366211 6.153636932373047 17.758272171020508 6.214558124542236 17.667966842651367 6.255626201629639 C17.661727905273438 6.258462905883789 17.59036636352539 6.255626201629639 17.568584442138672 6.255626201629639 C17.566997528076172 6.304862976074219 17.533416748046875 6.363401889801025 17.484067916870117 6.364422798156738 C17.312761306762695 6.368166923522949 17.122283935546875 6.345363616943359 16.978317260742188 6.474921226501465 C16.959712982177734 6.44054651260376 16.919891357421875 6.403903007507324 16.888580322265625 6.416041851043701 C16.830608367919922 6.438390731811523 16.802927017211914 6.5029425621032715 16.79135513305664 6.566019535064697 C16.74586296081543 6.5532002449035645 16.7010498046875 6.569990158081055 16.682559967041016 6.606861114501953 L16.52520751953125 6.9376749992370605 C16.43524169921875 6.938582420349121 16.397804260253906 7.056000709533691 16.357303619384766 7.058043003082275 C16.178850173950195 7.066551685333252 16.035451889038086 7.082207202911377 15.910773277282715 7.138136863708496 C15.650296211242676 7.254875183105469 15.38789176940918 7.373881816864014 15.146815299987793 7.521363258361816 A0.2608165442943573 0.2608165442943573 0.0 0 0 15.038585662841797 7.479615211486816 C14.995816230773926 7.609625816345215 14.920146942138672 7.7237548828125 14.838804244995117 7.836181163787842 C14.790816307067871 7.817689895629883 14.744756698608398 7.850022315979004 14.732844352722168 7.889388561248779 C14.703461647033691 7.985138893127441 14.610434532165527 8.02779483795166 14.583319664001465 8.11787223815918 L14.371740341186523 8.781882286071777 A0.7140406370162964 0.7140406370162964 0.0 0 0 14.684175491333008 9.208333015441895 C14.924798011779785 9.619354248046875 15.403888702392578 9.766950607299805 15.846334457397461 9.715331077575684 C16.02490234375 9.694570541381836 16.220712661743164 9.698087692260742 16.371484756469727 9.577378273010254 C16.66179656982422 9.344924926757812 16.991931915283203 9.154558181762695 17.224159240722656 8.857666015625 C17.804672241210938 8.115716934204102 18.05357551574707 7.198151111602783 18.260164260864258 6.295673370361328 C18.289432525634766 6.16793155670166 18.312917709350586 6.037693500518799 18.32233428955078 5.905526638031006 L18.38166618347168 5.245713710784912 C18.456769943237305 5.22608757019043 18.52290916442871 5.213381290435791 18.575889587402344 5.236978530883789 C18.653940200805664 5.271693229675293 18.698753356933594 5.3592753410339355 18.700342178344727 5.446063041687012 L18.7215576171875 6.189940452575684 L18.61196517944336 6.899896621704102 C18.647022247314453 7.04499626159668 18.644752502441406 7.1871466636657715 18.60402488708496 7.286299705505371 C18.582128524780273 7.339507102966309 18.650651931762695 7.369003772735596 18.680147171020508 7.3460869789123535 C18.728363037109375 7.308535575866699 18.73687171936035 7.238765239715576 18.698640823364258 7.184990882873535 C18.847257614135742 6.914191246032715 18.94675064086914 6.61627721786499 18.938241958618164 6.325056552886963 C18.98736572265625 6.21569299697876 19.001205444335938 6.114497184753418 18.986570358276367 6.018520355224609 C19.02434730529785 6.007175922393799 19.067686080932617 6.01035213470459 19.08084487915039 6.03270149230957 C19.153112411499023 6.155452251434326 19.199851989746094 6.2853498458862305 19.196788787841797 6.419785499572754 C19.188392639160156 6.770565986633301 19.12021255493164 7.117943286895752 19.015501022338867 7.4431986808776855 C19.072904586791992 7.475871562957764 19.112951278686523 7.451366424560547 19.136322021484375 7.419714450836182 C19.17115020751953 7.37274694442749 19.205524444580078 7.3218092918396 19.20768165588379 7.262362480163574 C19.20881462097168 7.23037052154541 19.202007293701172 7.129401683807373 19.210969924926758 7.116241931915283 A0.7385453581809998 0.7385453581809998 0.0 0 0 19.341548919677734 6.6941022872924805 C19.341890335083008 6.62580680847168 19.41324806213379 6.549910068511963 19.45499610900879 6.442021369934082 L19.634244918823242 6.933023452758789 C19.71240997314453 6.905115604400635 19.777301788330078 6.940397262573242 19.809520721435547 7.000071048736572 C19.88167381286621 7.1333723068237305 19.899484634399414 7.287888050079346 19.880084991455078 7.437865734100342 C19.766071319580078 8.316972732543945 19.571735382080078 9.182353973388672 19.30660629272461 10.05113697052002 C19.468950271606445 10.412354469299316 19.507183074951172 10.86365032196045 19.23944664001465 11.200703620910645 C19.136775970458984 11.330034255981445 19.09207534790039 11.491924285888672 19.05974578857422 11.651318550109863 C19.024234771728516 11.825800895690918 19.033538818359375 12.005956649780273 18.996326446533203 12.180665969848633 C18.918500900268555 12.547669410705566 18.857467651367188 12.918304443359375 18.765575408935547 13.282244682312012 C18.75320816040039 13.331027030944824 18.71440887451172 13.37175464630127 18.710779190063477 13.385141372680664 C18.551612854003906 13.972234725952148 18.296239852905273 14.509408950805664 17.85300064086914 14.922586441040039 C17.80535125732422 14.967058181762695 17.668872833251953 14.9769287109375 17.655487060546875 15.033426284790039 C17.621793746948242 15.174099922180176 17.514131546020508 15.269168853759766 17.398414611816406 15.279946327209473 A1.422068476676941 1.422068476676941 0.0 0 0 17.009174346923828 15.587163925170898 L16.88506317138672 15.558121681213379 C16.849666595458984 15.689493179321289 16.725894927978516 15.748146057128906 16.563777923583984 15.785017013549805 C16.56400489807129 15.785017013549805 16.51181983947754 15.80248737335205 16.487089157104492 15.844236373901367 A0.7126792073249817 0.7126792073249817 0.0 0 1 16.426393508911133 15.934200286865234 C16.384984970092773 15.891883850097656 16.33665657043457 15.933746337890625 16.264049530029297 15.98037338256836 C16.138349533081055 16.06137466430664 15.966702461242676 16.10993194580078 15.797099113464355 16.139541625976562 C15.793241500854492 16.21816062927246 15.74400520324707 16.251285552978516 15.687848091125488 16.267736434936523 C15.631691932678223 16.28418731689453 15.565892219543457 16.30801010131836 15.499411582946777 16.29473876953125 A0.3556589186191559 0.3556589186191559 0.0 0 1 15.427031517028809 16.416126251220703 A0.13545669615268707 0.13545669615268707 0.0 0 0 15.255611419677734 16.500873565673828 C15.191854476928711 16.501667022705078 15.14670181274414 16.550222396850586 15.123218536376953 16.60819435119629 C15.090885162353516 16.688629150390625 15.08385181427002 16.788917541503906 15.148290634155273 16.848134994506836 C15.642582893371582 17.30192756652832 16.132904052734375 17.774890899658203 16.734291076660156 18.08233642578125 C17.012351989746094 18.378774642944336 17.36608123779297 18.623706817626953 17.785839080810547 18.627225875854492 C17.841995239257812 18.62767791748047 17.89021110534668 18.588653564453125 17.904617309570312 18.533742904663086 C17.92481231689453 18.456600189208984 17.99129295349121 18.371173858642578 17.973594665527344 18.300382614135742 C17.948637008666992 18.20054817199707 17.980289459228516 18.081653594970703 18.051532745361328 17.96775245666504 C18.198562622070312 18.087553024291992 18.292724609375 18.24774169921875 18.38836097717285 18.402372360229492 C18.398117065429688 18.418027877807617 18.44270133972168 18.465787887573242 18.458356857299805 18.46624183654785 A0.30040982365608215 0.30040982365608215 0.0 0 0 18.743793487548828 18.284046173095703 C18.847257614135742 18.376619338989258 18.863252639770508 18.52115249633789 18.790191650390625 18.623027801513672 L18.788148880004883 19.056283950805664 C18.85565185546875 19.150787353515625 18.960250854492188 19.192195892333984 19.06337547302246 19.172908782958984 C19.158557891845703 19.15509796142578 19.279266357421875 19.217607498168945 19.26395034790039 19.323226928710938 C19.248180389404297 19.430662155151367 19.1486873626709 19.52255630493164 19.030929565429688 19.518131256103516 C19.003021240234375 19.58846664428711 18.94005584716797 19.598112106323242 18.897628784179688 19.545812606811523 C18.749011993408203 19.69647216796875 18.564090728759766 19.789838790893555 18.411502838134766 19.93958854675293 C18.366579055786133 20.115432739257812 18.435781478881836 20.305118560791016 18.580541610717773 20.421401977539062 C18.635677337646484 20.465648651123047 18.651899337768555 20.543472290039062 18.634654998779297 20.616872787475586 L18.148191452026367 20.527816772460938 C18.080463409423828 20.51544952392578 17.97586441040039 20.459522247314453 17.92991828918457 20.428550720214844 C17.81329345703125 20.349817276000977 17.71380043029785 20.26892852783203 17.592636108398438 20.173404693603516 C17.503353118896484 20.261781692504883 17.38525390625 20.28900909423828 17.273054122924805 20.277549743652344 C17.235504150390625 20.273693084716797 17.206119537353516 20.237844467163086 17.189556121826172 20.234439849853516 C17.029369354248047 20.200973510742188 16.877347946166992 20.19666290283203 16.733610153198242 20.225704193115234 C16.69980239868164 20.177602767944336 16.669511795043945 20.128366470336914 16.679155349731445 20.092971801757812 C16.69991683959961 20.01571273803711 16.753463745117188 19.949800491333008 16.822895050048828 19.92257308959961 C16.851482391357422 19.911340713500977 16.89629364013672 19.90317153930664 16.91716957092285 19.86777687072754 C16.9902286529541 19.742645263671875 17.075315475463867 19.622730255126953 17.185245513916016 19.52618408203125 C17.159038543701172 19.458229064941406 17.13362693786621 19.406383514404297 17.092445373535156 19.37042236328125 A3.711332082748413 3.711332082748413 0.0 0 1 16.591007232666016 18.83710479736328 C16.545513153076172 18.777996063232422 16.4280948638916 18.71242332458496 16.37590980529785 18.704824447631836 C16.181005477905273 18.676801681518555 16.055532455444336 18.509239196777344 16.002212524414062 18.372535705566406 L15.41614055633545 17.961286544799805 C15.374505043029785 17.930767059326172 15.372349739074707 17.865081787109375 15.339902877807617 17.82900619506836 C15.288285255432129 17.851696014404297 15.233376502990723 17.820270538330078 15.215110778808594 17.78215217590332 C15.188791275024414 17.72735595703125 15.133655548095703 17.712268829345703 15.086688041687012 17.728492736816406 C14.949529647827148 17.57771873474121 14.783102035522461 17.457237243652344 14.602492332458496 17.407546997070312 L14.210758209228516 17.045875549316406 C14.198164939880371 17.034191131591797 14.073598861694336 17.045875549316406 14.017782211303711 17.045875549316406 A1.976261019706726 1.976261019706726 0.0 0 1 13.903087615966797 17.356494903564453 C13.965256690979004 18.110584259033203 14.193286895751953 18.854232788085938 14.330331802368164 19.613426208496094 L14.327609062194824 19.957059860229492 C14.299814224243164 19.96137046813965 14.210304260253906 19.96477508544922 14.189315795898438 19.978843688964844 C14.132705688476562 20.016735076904297 14.042287826538086 20.07175636291504 14.037408828735352 20.14697265625 C14.008139610290527 20.60779571533203 14.188522338867188 21.05727767944336 14.259540557861328 21.526382446289062 C14.269750595092773 21.593772888183594 14.267027854919434 21.67329978942871 14.217451095581055 21.719585418701172 C14.182395935058594 21.75225830078125 14.12215518951416 21.7723388671875 14.07280445098877 21.76190185546875 C14.03253173828125 21.75350570678711 13.971383094787598 21.729455947875977 13.930994987487793 21.77483367919922 C13.894691467285156 21.8157901763916 13.826963424682617 21.845172882080078 13.731667518615723 21.78992462158203 A1.8371740579605103 1.8371740579605103 0.0 0 0 13.675850868225098 22.342300415039062 A0.8009416460990906 0.8009416460990906 0.0 0 0 13.417757987976074 22.367599487304688 C13.418891906738281 22.326984405517578 13.379979133605957 22.301345825195312 13.34639835357666 22.318023681640625 C13.277536392211914 22.352283477783203 13.199370384216309 22.362607955932617 13.163747787475586 22.372817993164062 C13.068338394165039 22.40049934387207 13.005374908447266 22.400951385498047 12.951146125793457 22.365671157836914 C12.896238327026367 22.443721771240234 12.822269439697266 22.506118774414062 12.731965065002441 22.502376556396484 C12.692598342895508 22.500675201416016 12.633039474487305 22.483543395996094 12.551810264587402 22.524951934814453 C12.543869018554688 22.318702697753906 12.520952224731445 22.126296997070312 12.345788955688477 21.98630142211914 C12.234269142150879 22.025894165039062 12.0858793258667 22.026687622070312 11.947360038757324 21.979267120361328 C11.862387657165527 22.086475372314453 11.839470863342285 22.233617782592773 11.790008544921875 22.377243041992188 C11.68506908416748 22.34366226196289 11.570145606994629 22.442703247070312 11.52295207977295 22.430450439453125 L11.028658866882324 22.302932739257812 C10.99666690826416 22.36045265197754 10.912942886352539 22.362380981445312 10.859735488891602 22.368732452392578 C10.762965202331543 22.380191802978516 10.62160873413086 22.380191802978516 10.609469413757324 22.276161193847656 C10.599599838256836 22.1915283203125 10.574641227722168 22.08159828186035 10.596309661865234 21.973594665527344 C10.606406211853027 21.923110961914062 10.549002647399902 21.830425262451172 10.543442726135254 21.756343841552734 C10.541400909423828 21.728660583496094 10.49783706665039 21.72174072265625 10.462895393371582 21.734786987304688 C10.458243370056152 21.776649475097656 10.41218376159668 21.803537368774414 10.365557670593262 21.79786491394043 C10.289773941040039 21.788562774658203 10.214217185974121 21.77358627319336 10.139455795288086 21.735015869140625 C10.171674728393555 21.70755958557129 10.127089500427246 21.667285919189453 10.105761528015137 21.699050903320312 C10.085794448852539 21.728660583496094 10.040529251098633 21.753620147705078 10.021356582641602 21.730815887451172 C9.963725090026855 21.662296295166016 9.93933391571045 21.549301147460938 9.980742454528809 21.463647842407227 L10.183700561523438 20.997943878173828 C10.244735717773438 20.77626609802246 10.3320894241333 20.55742645263672 10.331522941589355 20.322021484375 C10.331409454345703 20.24850845336914 10.275592803955078 20.190195083618164 10.236907005310059 20.134492874145508 C10.178482055664062 20.050086975097656 10.089765548706055 19.981224060058594 10.005813598632812 19.927335739135742 C9.963044166564941 19.7758846282959 9.992426872253418 19.63123893737793 10.055730819702148 19.503154754638672 C10.229986190795898 19.150787353515625 10.322787284851074 18.764610290527344 10.364989280700684 18.373554229736328 C10.404696464538574 18.005189895629883 10.431469917297363 17.635236740112305 10.429882049560547 17.264488220214844 C10.42954158782959 17.17611312866211 10.364195823669434 17.08751106262207 10.250635147094727 17.112356185913086 C10.18653678894043 17.126422882080078 10.116198539733887 17.227733612060547 10.00989818572998 17.187345504760742 C9.994242668151855 17.232383728027344 9.98255729675293 17.287633895874023 9.959867477416992 17.304990768432617 C9.864798545837402 17.37816619873047 9.766778945922852 17.416282653808594 9.654125213623047 17.426265716552734 C9.668079376220703 17.498191833496094 9.598082542419434 17.534156799316406 9.557580947875977 17.49127197265625 C9.350879669189453 17.784648895263672 9.016322135925293 17.930767059326172 8.76900577545166 18.17207145690918 C8.60870361328125 18.32851791381836 8.452713012695312 18.487117767333984 8.284357070922852 18.602947235107422 C8.208232879638672 18.65524673461914 8.11531925201416 18.667272567749023 8.068012237548828 18.72252082824707 C8.043052673339844 18.751789093017578 7.997673988342285 18.745098114013672 7.98201847076416 18.756668090820312 C7.888083457946777 18.82496452331543 7.812981128692627 18.907100677490234 7.772026538848877 18.989124298095703 C7.464809417724609 19.15146827697754 7.239956378936768 19.420337677001953 7.184934139251709 19.739694595336914 C7.238481521606445 19.863466262817383 7.336613655090332 19.943559646606445 7.45391845703125 19.970335006713867 C7.561467170715332 19.99483871459961 7.6448516845703125 20.079923629760742 7.671398162841797 20.199724197387695 C7.610363483428955 20.24090576171875 7.529588222503662 20.265071868896484 7.441893100738525 20.263710021972656 C7.425103187561035 20.338924407958984 7.338995933532715 20.3558292388916 7.284200668334961 20.36127471923828 C7.118453502655029 20.377613067626953 6.967681407928467 20.39394760131836 6.818497657775879 20.4280948638916 C6.785484313964844 20.43569564819336 6.740559101104736 20.368988037109375 6.7233147621154785 20.366493225097656 C6.510146141052246 20.335407257080078 6.349164009094238 20.440574645996094 6.174454212188721 20.529632568359375 C6.169121742248535 20.53223991394043 6.153012275695801 20.621070861816406 6.144617557525635 20.65272331237793 C6.050001621246338 20.665203094482422 5.982387065887451 20.735652923583984 5.93541955947876 20.792037963867188 C5.903994560241699 20.829586029052734 5.855098724365234 20.805423736572266 5.840009689331055 20.771503448486328 C5.800076484680176 20.682218551635742 5.815618991851807 20.583404541015625 5.84806489944458 20.49310302734375 C5.933377265930176 20.256336212158203 5.845682621002197 19.991207122802734 5.620601654052734 19.860855102539062 C5.4124250411987305 19.740262985229492 5.247925758361816 19.557950973510742 5.083086013793945 19.38335418701172 C5.0147905349731445 19.31097412109375 5.095905780792236 19.14556884765625 5.221719264984131 19.18402862548828 C5.3448100090026855 19.22169303894043 5.519406318664551 19.1125545501709 5.556617259979248 18.948963165283203 C5.600975513458252 18.75394630432129 5.614588737487793 18.550762176513672 5.589176654815674 18.37900161743164 C5.58225679397583 18.331806182861328 5.631946563720703 18.3095703125 5.669270992279053 18.298566818237305 C5.757646560668945 18.392955780029297 5.911141872406006 18.41201400756836 6.004736423492432 18.32091522216797 C6.0943603515625 18.233787536621094 6.144731044769287 18.11444091796875 6.240707874298096 18.035140991210938 C6.267821788787842 18.01279067993164 6.338272571563721 18.053518295288086 6.340655326843262 18.097990036010742 L6.379000663757324 18.422338485717773 C6.560176849365234 18.649913787841797 6.811463832855225 18.698129653930664 7.017144680023193 18.589107513427734 C7.166554927825928 18.50980567932129 7.319029331207275 18.425289154052734 7.437808990478516 18.296977996826172 C7.461973190307617 18.270999908447266 7.559311866760254 18.264419555664062 7.596068859100342 18.205312728881836 C7.718138694763184 18.008140563964844 7.900222301483154 17.863834381103516 8.085709571838379 17.72951316833496 C8.368988990783691 17.524625778198242 8.674957275390625 17.349462509155273 8.925223350524902 17.10350799560547 C9.031637191772461 16.99890899658203 9.164484977722168 16.916772842407227 9.224839210510254 16.798446655273438 C9.236411094665527 16.66366958618164 9.174808502197266 16.56304168701172 9.0648775100708 16.505298614501953 C9.002481460571289 16.472396850585938 8.914445877075195 16.439836502075195 8.865777015686035 16.359628677368164 C8.767757415771484 16.391056060791016 8.669625282287598 16.331382751464844 8.653061866760254 16.23200035095215 C8.622430801391602 16.22394561767578 8.522483825683594 16.2119197845459 8.516584396362305 16.197738647460938 C8.473928451538086 16.09620475769043 8.370122909545898 16.042316436767578 8.267339706420898 16.06477928161621 L6.850376129150391 15.078462600708008 C6.736247539520264 14.987591743469238 6.588084697723389 14.9295072555542 6.525915145874023 14.7898530960083 C6.4963059425354 14.723372459411621 6.421657085418701 14.686956405639648 6.374690055847168 14.635222434997559 C5.917154312133789 14.130833625793457 5.434320449829102 13.597516059875488 5.330402374267578 12.902420997619629 L5.283321380615234 12.230469703674316 C5.2767415046691895 12.116455078125 5.209807395935059 12.014691352844238 5.140830993652344 11.978841781616211 C4.789143085479736 11.3406982421875 4.651984214782715 10.64106559753418 4.770537376403809 9.95413875579834 C4.768949031829834 9.684473037719727 4.625664710998535 9.45077133178711 4.550561904907227 9.199824333190918 C4.370066165924072 8.595941543579102 4.153494834899902 7.985592365264893 4.203298568725586 7.341208457946777 C4.215323448181152 7.1851043701171875 4.234042644500732 7.025369644165039 4.307557106018066 6.884240627288818 C4.37494421005249 6.895586013793945 4.4165802001953125 6.94221305847168 4.428038120269775 6.998369216918945 C4.438702583312988 7.051236152648926 4.468766212463379 7.104783535003662 4.5202717781066895 7.124183177947998 C4.545570373535156 7.1337127685546875 4.580625534057617 7.113405227661133 4.636896133422852 7.076194763183594 C4.606605529785156 6.788037300109863 4.566898345947266 6.4820685386657715 4.6390509605407715 6.184267997741699 C4.651303768157959 6.133556365966797 4.697136402130127 6.095324993133545 4.7489824295043945 6.087723731994629 C4.8325934410095215 6.075357913970947 4.910872459411621 6.150914192199707 4.889770984649658 6.2322564125061035 C4.860501766204834 6.344229221343994 4.857325077056885 6.461421012878418 4.8683295249938965 6.5764570236206055 C4.900661945343018 6.9161200523376465 4.954209327697754 7.2562360763549805 5.1004438400268555 7.555171489715576 C5.13606595993042 7.628004550933838 5.29228401184082 7.5778608322143555 5.268686771392822 7.5161452293396 C5.159890651702881 7.231958866119385 5.112128734588623 6.916460037231445 5.050753593444824 6.609016418457031 C5.015811443328857 6.434306621551514 4.945133686065674 6.259030342102051 4.957839488983154 6.081370830535889 C4.975424289703369 5.8356428146362305 5.131415367126465 5.628940582275391 5.328020095825195 5.473970890045166 L5.5717058181762695 5.2145161628723145 C5.614929676055908 5.1718597412109375 5.6841325759887695 5.209751129150391 5.71056604385376 5.250705718994141 C5.733936309814453 5.286895751953125 5.768764495849609 5.325014114379883 5.766949653625488 5.370620250701904 C5.753903388977051 5.699618816375732 5.7885050773620605 6.034403324127197 5.840009689331055 6.365444183349609 C5.968773365020752 7.193499565124512 6.186252593994141 8.029723167419434 6.711402893066406 8.697931289672852 C6.836421966552734 8.856871604919434 7.00693416595459 8.988017082214355 7.0730743408203125 9.190975189208984 C7.11663818359375 9.179404258728027 7.167235851287842 9.1571683883667 7.18130350112915 9.167037963867188 C7.366336822509766 9.29568862915039 7.538550853729248 9.422749519348145 7.732546806335449 9.4977388381958 C8.219804763793945 9.68606185913086 8.77672004699707 9.708524703979492 9.257625579833984 9.454514503479004 C9.51651382446289 9.317583084106445 9.663087844848633 9.065956115722656 9.810003280639648 8.830098152160645 C9.8333740234375 8.792546272277832 9.83643627166748 8.739453315734863 9.831785202026367 8.696115493774414 C9.777557373046875 8.186509132385254 9.534551620483398 7.71059513092041 9.138845443725586 7.383864879608154 C9.052511215209961 7.312619686126709 8.937362670898438 7.341548919677734 8.845470428466797 7.387381553649902 C8.800204277038574 7.409958362579346 8.744160652160645 7.390672206878662 8.71806812286377 7.347108364105225 C8.698667526245117 7.314774990081787 8.668830871582031 7.257257461547852 8.633549690246582 7.263723850250244 C8.508302688598633 7.286299705505371 8.369556427001953 7.2156219482421875 8.281974792480469 7.1136322021484375 C8.090021133422852 7.035693645477295 7.926996231079102 6.918161869049072 7.752740383148193 6.838521480560303 C7.678658962249756 6.686614513397217 7.607980728149414 6.547981262207031 7.527432918548584 6.425230979919434 C7.484322547912598 6.35954475402832 7.357714653015137 6.308152675628662 7.302352428436279 6.3249430656433105 C7.14216423034668 6.373498916625977 6.984131336212158 6.393692493438721 6.86671257019043 6.410142421722412 C6.6129302978515625 6.305543899536133 6.375937461853027 6.242239475250244 6.2024760246276855 6.073996543884277 C6.165151596069336 6.037806987762451 6.155735492706299 5.980062007904053 6.167760372161865 5.91664457321167 L6.8430023193359375 6.063105583190918 C6.969042778015137 6.084774017333984 7.0890703201293945 6.031113147735596 7.171546936035156 5.978359699249268 C7.251981735229492 5.926968097686768 7.182097434997559 5.775742053985596 7.095196723937988 5.761674404144287 C6.970631122589111 5.741594314575195 6.848901271820068 5.70358943939209 6.725243091583252 5.654693603515625 C6.6695404052734375 5.524341583251953 6.733638286590576 5.385481834411621 6.84311580657959 5.3051605224609375 C7.079654216766357 5.131585597991943 7.373144149780273 5.075428485870361 7.629082202911377 4.938497066497803 C7.73436164855957 4.926471710205078 7.819901466369629 4.848987102508545 7.849625110626221 4.709559440612793 C7.788022518157959 4.5530009269714355 7.752172946929932 4.35809850692749 7.747748374938965 4.161493301391602 C7.746273517608643 4.095466136932373 7.844973564147949 4.011742115020752 7.880369186401367 4.0466837882995605 L8.150374412536621 4.311811923980713 C8.310790061950684 4.290709972381592 8.495256423950195 4.3668341636657715 8.522710800170898 4.5498247146606445 C8.524979591369629 4.565026760101318 8.567522048950195 4.522257328033447 8.552660942077637 4.495937824249268 C8.510684967041016 4.421061992645264 8.61369514465332 4.3627495765686035 8.664179801940918 4.432633399963379 C8.766850471496582 4.350157260894775 8.895727157592773 4.357077121734619 8.97695541381836 4.437851428985596 C9.027780532836914 4.4884490966796875 9.041053771972656 4.589078426361084 9.094034194946289 4.615397930145264 C9.261483192443848 4.699122905731201 9.431087493896484 4.75720739364624 9.584468841552734 4.8068976402282715 C9.667058944702148 4.833558082580566 9.760313034057617 4.798842906951904 9.841314315795898 4.815179347991943 C9.852091789245605 4.874512672424316 9.883857727050781 4.9397454261779785 9.879206657409668 4.975594997406006 C9.861167907714844 5.116610527038574 9.782662391662598 5.216104030609131 9.678743362426758 5.255697250366211 C9.624176025390625 5.386049270629883 9.665243148803711 5.523888111114502 9.773699760437012 5.590141773223877 L10.057433128356934 5.741481304168701 C10.112455368041992 5.768594741821289 10.106555938720703 5.914375305175781 10.097139358520508 5.984940052032471 C10.089311599731445 6.043932914733887 10.029297828674316 6.077059745788574 9.981308937072754 6.054369926452637 C9.960434913635254 6.044613361358643 9.943758010864258 6.011260032653809 9.924585342407227 5.990952491760254 C9.890323638916016 6.0015034675598145 9.849143028259277 6.008650779724121 9.843243598937988 6.027142524719238 C9.819419860839844 6.102017879486084 9.805351257324219 6.210474491119385 9.845739364624023 6.253697872161865 C10.022377014160156 6.442134857177734 10.244508743286133 6.5646586418151855 10.482748985290527 6.649063587188721 C10.596196174621582 6.6892242431640625 10.679240226745605 6.786448955535889 10.72042179107666 6.915666103363037 A0.691804826259613 0.691804826259613 0.0 0 0 10.527787208557129 6.9782891273498535 L10.643277168273926 7.025937080383301 C10.659273147583008 7.112951755523682 10.710551261901855 7.1781840324401855 10.783159255981445 7.203823566436768 C10.935178756713867 7.257710933685303 11.060311317443848 7.3641252517700195 11.148346900939941 7.501737594604492 C11.172057151794434 7.538721084594727 11.154812812805176 7.598621368408203 11.138816833496094 7.644341945648193 C11.08742618560791 7.647177219390869 11.042840003967285 7.638669013977051 10.97726821899414 7.608151912689209 C10.957867622375488 7.900506496429443 11.109435081481934 8.140676498413086 11.219819068908691 8.382659912109375 C11.373086929321289 8.7186918258667 11.549271583557129 9.04508113861084 11.788079261779785 9.32246208190918 C12.018945693969727 9.412425994873047 12.250832557678223 9.459620475769043 12.480224609375 9.43488883972168 C12.659358024597168 9.415602684020996 12.788461685180664 9.256207466125488 12.801849365234375 9.132096290588379 C13.023299217224121 8.784945487976074 13.136632919311523 8.451068878173828 13.27038860321045 8.12785530090332 C13.299430847167969 8.057744979858398 13.270161628723145 7.978331089019775 13.209466934204102 7.932158470153809 A0.40432801842689514 0.40432801842689514 0.0 0 0 13.001290321350098 7.8494553565979 C12.999248504638672 7.901981353759766 12.949331283569336 7.939646244049072 12.905540466308594 7.917637348175049 C12.858686447143555 7.894040107727051 12.804571151733398 7.916275501251221 12.790050506591797 7.935561656951904 C12.742969512939453 7.99727725982666 12.675922393798828 7.988202095031738 12.649715423583984 7.9436163902282715 C12.605470657348633 7.867946624755859 12.612618446350098 7.743608474731445 12.69509506225586 7.714565277099609 C12.951032638549805 7.624374866485596 13.20492935180664 7.5032124519348145 13.474027633666992 7.428564071655273 C13.506246566772461 7.4196014404296875 13.529389381408691 7.372973918914795 13.517251014709473 7.342116355895996 C13.507835388183594 7.318406105041504 13.483898162841797 7.292994022369385 13.460527420043945 7.284031391143799 C13.438063621520996 7.275295257568359 13.357516288757324 7.2915191650390625 13.335393905639648 7.284031391143799 C13.318943977355957 7.278471946716309 13.27991771697998 7.231504917144775 13.265850067138672 7.218117713928223 C13.252009391784668 7.248408317565918 13.240665435791016 7.283123016357422 13.226143836975098 7.294581890106201 A0.06931661814451218 0.06931661814451218 0.0 0 1 13.114850997924805 7.261568546295166 C13.09522533416748 7.196789741516113 13.087057113647461 7.073245048522949 13.133684158325195 7.064055442810059 C13.446459770202637 7.003360748291016 13.775571823120117 6.953217506408691 14.072124481201172 6.7999491691589355 C14.251825332641602 6.7069220542907715 14.444686889648438 6.59120512008667 14.502091407775879 6.414906978607178 C14.517406463623047 6.367826461791992 14.58229923248291 6.3391242027282715 14.555525779724121 6.304749488830566 C14.502318382263184 6.236227035522461 14.389664649963379 6.230554103851318 14.299699783325195 6.166569709777832 C14.271793365478516 6.254605293273926 14.183757781982422 6.313485145568848 14.106839179992676 6.269467353820801 C14.079157829284668 6.253471374511719 14.06463623046875 6.176326751708984 14.094813346862793 6.139342784881592 C14.223464012145996 5.980969429016113 14.408269882202148 5.885673522949219 14.580824851989746 5.833373546600342 C14.680885314941406 5.7114176750183105 14.682473182678223 5.551455497741699 14.57957649230957 5.451622009277344 C14.540436744689941 5.413617134094238 14.49891471862793 5.3249006271362305 14.441283226013184 5.284853458404541 C14.382631301879883 5.2441253662109375 14.3666353225708 5.147695064544678 14.40157699584961 5.094601631164551 C14.486322402954102 4.965497970581055 14.62869930267334 4.9012861251831055 14.780152320861816 4.896748065948486 C14.881120681762695 4.893685817718506 14.979025840759277 4.861466407775879 15.093268394470215 4.814044952392578 C15.118227005004883 4.625380992889404 15.215564727783203 4.431158542633057 15.428166389465332 4.335862636566162 C15.54773998260498 4.423558235168457 15.708269119262695 4.470071315765381 15.85767936706543 4.420721054077148 C15.978275299072266 4.380788326263428 16.07833480834961 4.300466537475586 16.175559997558594 4.2086873054504395 C16.22207260131836 4.16512393951416 16.246578216552734 4.061885833740234 16.319866180419922 4.044187545776367 L16.319866180419922 4.044187545776367" fill="black" fill-opacity="1.0" filling="0"/>
<path animation_id="3" d="M12.014408111572266 18.143369674682617 C12.09427547454834 18.160953521728516 12.199668884277344 18.13565444946289 12.239941596984863 18.16163444519043 C12.384134292602539 18.254436492919922 12.438135147094727 18.392501831054688 12.423501014709473 18.535898208618164 C12.336031913757324 19.388914108276367 12.409660339355469 20.246692657470703 12.396841049194336 21.094942092895508 C12.396045684814453 21.146900177001953 12.311755180358887 21.155975341796875 12.285548210144043 21.11456871032715 C12.240509033203125 21.042869567871094 12.18389892578125 20.96856117248535 12.172667503356934 20.886425018310547 C12.162457466125488 20.81234359741211 12.16030216217041 20.72203826904297 12.101195335388184 20.662137985229492 C12.087014198303223 20.67926788330078 12.06103515625 20.685623168945312 12.062623023986816 20.68947982788086 C11.959158897399902 20.457477569580078 11.915480613708496 20.223663330078125 11.952352523803711 19.995519638061523 C12.01769733428955 19.591758728027344 12.027908325195312 19.179943084716797 11.959498405456543 18.795696258544922 C11.985478401184082 18.576854705810547 11.99262523651123 18.376731872558594 11.983209609985352 18.179672241210938 C11.982869148254395 18.172412872314453 12.002949714660645 18.156644821166992 12.014408111572266 18.143369674682617 L12.014408111572266 18.143369674682617 M11.161507606506348 18.513324737548828 C11.224471092224121 18.50390625 11.289815902709961 18.519451141357422 11.318859100341797 18.577987670898438 C11.356183052062988 18.65320587158203 11.342683792114258 18.742374420166016 11.357771873474121 18.83948516845703 C11.381595611572266 18.993549346923828 11.352326393127441 19.171886444091797 11.320106506347656 19.345123291015625 C11.243643760681152 19.755462646484375 11.235815048217773 20.175559997558594 11.149481773376465 20.584199905395508 A1.448501706123352 1.448501706123352 0.0 0 1 10.984074592590332 21.01121711730957 C10.899442672729492 20.980587005615234 10.85962200164795 20.89255142211914 10.8186674118042 20.829586029052734 C10.792346954345703 20.789087295532227 10.661883354187012 20.7541446685791 10.631478309631348 20.73077392578125 C10.566246032714844 20.680517196655273 10.537202835083008 20.57830047607422 10.592906951904297 20.52532196044922 C10.632160186767578 20.488222122192383 10.704652786254883 20.511138916015625 10.746514320373535 20.540863037109375 C10.848617553710938 20.475971221923828 10.873689651489258 20.35424041748047 10.812881469726562 20.265071868896484 C10.766254425048828 20.196548461914062 10.682303428649902 20.127117156982422 10.681282043457031 20.066198348999023 C10.677538871765137 19.814117431640625 10.746627807617188 19.581207275390625 10.86881160736084 19.363388061523438 C10.868471145629883 19.14091682434082 10.875391006469727 18.916175842285156 10.906816482543945 18.69790267944336 C10.961158752441406 18.59840965270996 11.054299354553223 18.529319763183594 11.161507606506348 18.513324737548828 M13.453039169311523 18.512643814086914 C13.46926212310791 18.480195999145508 13.535402297973633 18.532949447631836 13.541642189025879 18.585023880004883 C13.591672897338867 19.002851486206055 13.694003105163574 19.411035537719727 13.760823249816895 19.82591438293457 C13.79338264465332 20.027965545654297 13.747209548950195 20.23602867126465 13.618219375610352 20.39145278930664 L13.721003532409668 20.793058395385742 C13.728377342224121 20.822101593017578 13.625593185424805 20.86248779296875 13.603470802307129 20.85329818725586 C13.409475326538086 20.77161407470703 13.342541694641113 20.58953094482422 13.325297355651855 20.41686248779297 A22.626033782958984 22.626033782958984 0.0 0 1 13.230682373046875 18.99933433532715 C13.295801162719727 18.821107864379883 13.37464714050293 18.669879913330078 13.453039169311523 18.512643814086914 M10.6950101852417 12.756526947021484 C10.71497631072998 12.72079086303711 10.769658088684082 12.736559867858887 10.76954460144043 12.736332893371582 C10.877320289611816 13.008721351623535 11.02139949798584 13.256945610046387 11.275861740112305 13.31945514678955 C11.353914260864258 13.338627815246582 11.36491870880127 13.461719512939453 11.325439453125 13.534666061401367 C11.255668640136719 13.663769721984863 11.140632629394531 13.75770378112793 11.051802635192871 13.874896049499512 C10.97624683380127 13.865025520324707 10.87108039855957 13.909724235534668 10.825928688049316 13.877278327941895 C10.590410232543945 13.708014488220215 10.401633262634277 13.473403930664062 10.341279029846191 13.154274940490723 C10.432831764221191 13.050243377685547 10.585986137390137 13.000893592834473 10.668008804321289 12.86521053314209 C10.682076454162598 12.84195327758789 10.675270080566406 12.792037010192871 10.6950101852417 12.756526947021484 L10.6950101852417 12.756526947021484 M6.910617351531982 11.993364334106445 C6.941020965576172 11.960124015808105 7.015556335449219 11.946283340454102 7.073641777038574 12.038289070129395 C7.235758304595947 12.295361518859863 7.071259498596191 12.635364532470703 6.905284881591797 12.892436981201172 C6.780038833618164 12.893685340881348 6.6764607429504395 12.877008438110352 6.579916477203369 12.860332489013672 C6.516613006591797 12.849554061889648 6.481103420257568 12.771615982055664 6.456371784210205 12.707971572875977 C6.4013495445251465 12.716026306152344 6.367315292358398 12.770028114318848 6.3853535652160645 12.820284843444824 C6.401690483093262 12.865777015686035 6.373781681060791 12.919892311096191 6.327155113220215 12.919550895690918 C6.266460418701172 12.919097900390625 6.22902250289917 12.86055850982666 6.216429710388184 12.800091743469238 C6.1712775230407715 12.581817626953125 6.1629958152771 12.358665466308594 6.172298431396484 12.1373291015625 C6.173546314239502 12.10828685760498 6.2434306144714355 12.08400821685791 6.275990009307861 12.100004196166992 C6.343945026397705 12.133584976196289 6.406001091003418 12.187246322631836 6.440035343170166 12.25281810760498 C6.4571661949157715 12.28571891784668 6.4659013748168945 12.356283187866211 6.482691764831543 12.35299301147461 C6.612022399902344 12.3276948928833 6.703120708465576 12.249981880187988 6.733525276184082 12.135514259338379 C6.8003458976745605 12.155707359313965 6.862287998199463 12.133925437927246 6.880099773406982 12.077428817749023 C6.887587070465088 12.053717613220215 6.888721466064453 12.017415046691895 6.910617351531982 11.993364334106445 L6.910617351531982 11.993364334106445 M12.749321937561035 14.366918563842773 C12.801054954528809 14.346611976623535 12.8456392288208 14.399818420410156 12.882737159729004 14.439865112304688 C12.919721603393555 14.479686737060547 12.98779010772705 14.500787734985352 13.045308113098145 14.546279907226562 A0.5901556015014648 0.5901556015014648 0.0 0 1 12.844618797302246 14.879249572753906 C12.825900077819824 14.894905090332031 12.712224960327148 14.879249572753906 12.67138385772705 14.879249572753906 C12.637917518615723 14.947657585144043 12.619085311889648 15.027185440063477 12.582895278930664 15.096047401428223 A0.3961597979068756 0.3961597979068756 0.0 0 1 12.136250495910645 15.29537582397461 C11.983323097229004 15.118850708007812 11.793865203857422 14.983847618103027 11.67088794708252 14.789626121520996 C11.627209663391113 14.720649719238281 11.671114921569824 14.62773609161377 11.752456665039062 14.624105453491211 C11.84707260131836 14.620134353637695 11.932724952697754 14.569764137268066 12.016109466552734 14.539926528930664 C12.070337295532227 14.520526885986328 12.126267433166504 14.580768585205078 12.148162841796875 14.638967514038086 C12.178680419921875 14.719968795776367 12.199668884277344 14.804826736450195 12.23483657836914 14.889573097229004 C12.248336791992188 14.921906471252441 12.304153442382812 14.919636726379395 12.332515716552734 14.887191772460938 A1.5186125040054321 1.5186125040054321 0.0 0 0 12.525944709777832 14.609469413757324 L12.642114639282227 14.66086196899414 C12.650736808776855 14.610605239868164 12.661173820495605 14.453025817871094 12.684657096862793 14.411730766296387 C12.695661544799805 14.392444610595703 12.729242324829102 14.374860763549805 12.749321937561035 14.366918563842773 L12.749321937561035 14.366918563842773 M11.847752571105957 10.839032173156738 C11.851269721984863 10.823149681091309 11.897442817687988 10.821334838867188 11.92126750946045 10.839372634887695 A0.4645688235759735 0.4645688235759735 0.0 0 1 12.103804588317871 11.158841133117676 C12.112199783325195 11.236893653869629 12.176411628723145 11.286809921264648 12.236425399780273 11.329580307006836 C12.262290954589844 11.348072052001953 12.28271198272705 11.465718269348145 12.311300277709961 11.485797882080078 C12.358267784118652 11.518811225891113 12.433597564697266 11.503155708312988 12.49066162109375 11.518357276916504 C12.519136428833008 11.525845527648926 12.544890403747559 11.575762748718262 12.533544540405273 11.602763175964355 C12.515393257141113 11.645986557006836 12.46241283416748 11.670150756835938 12.408185005187988 11.702030181884766 C12.42837905883789 11.888877868652344 12.339662551879883 12.104315757751465 12.107888221740723 12.120084762573242 C11.885984420776367 11.939135551452637 11.703787803649902 11.6498441696167 11.804529190063477 11.336954116821289 C11.800671577453613 11.176765441894531 11.808612823486328 11.012267112731934 11.847752571105957 10.839032173156738 L11.847752571105957 10.839032173156738 M13.988966941833496 12.842180252075195 C14.011428833007812 12.817221641540527 14.055901527404785 12.835372924804688 14.072463989257812 12.867138862609863 C14.119318962097168 12.95710277557373 14.14654541015625 13.056142807006836 14.152559280395508 13.155523300170898 C14.153806686401367 13.176397323608398 14.08970832824707 13.239928245544434 14.070762634277344 13.265113830566406 A0.3511210083961487 0.3511210083961487 0.0 0 0 13.870413780212402 13.261256217956543 C13.859296798706055 13.320590019226074 13.849653244018555 13.475218772888184 13.825035095214844 13.503581047058105 A0.7385453581809998 0.7385453581809998 0.0 0 1 13.633875846862793 13.659344673156738 C13.570685386657715 13.693946838378906 13.48117446899414 13.689748764038086 13.41832447052002 13.650836944580078 C13.35831069946289 13.61351203918457 13.31735610961914 13.53750228881836 13.269821166992188 13.47555923461914 C13.178155899047852 13.355871200561523 13.221945762634277 13.196364402770996 13.325410842895508 13.101068496704102 C13.416963577270508 13.016776084899902 13.534381866455078 12.960960388183594 13.610052108764648 12.850461959838867 C13.69831371307373 12.857608795166016 13.754356384277344 12.937589645385742 13.810173988342285 12.982401847839355 A0.0797538235783577 0.0797538235783577 0.0 0 0 13.917835235595703 12.975255012512207 C13.938936233520508 12.951430320739746 13.969114303588867 12.864302635192871 13.988966941833496 12.842180252075195 L13.988966941833496 12.842180252075195 M9.728094100952148 13.993788719177246 C9.887941360473633 14.055391311645508 10.03576374053955 14.148645401000977 10.108597755432129 14.298055648803711 C10.124820709228516 14.33129596710205 10.211834907531738 14.308266639709473 10.255626678466797 14.283308029174805 C10.286029815673828 14.304636001586914 10.302366256713867 14.327779769897461 10.309741020202637 14.353872299194336 C10.339804649353027 14.329708099365234 10.360224723815918 14.280131340026855 10.374292373657227 14.277748107910156 C10.501921653747559 14.256647109985352 10.617071151733398 14.331976890563965 10.647247314453125 14.449735641479492 C10.664152145385742 14.51610279083252 10.684572219848633 14.592567443847656 10.744132995605469 14.634428024291992 C10.788717269897461 14.665740013122559 10.885601997375488 14.653148651123047 10.915665626525879 14.69534969329834 C10.972616195678711 14.775218963623047 10.934611320495605 14.894792556762695 10.846689224243164 14.931095123291016 C10.618772506713867 15.025257110595703 10.401065826416016 14.877547264099121 10.295332908630371 14.72382640838623 C10.064693450927734 14.547640800476074 9.842788696289062 14.406739234924316 9.747833251953125 14.166910171508789 C9.728094100952148 14.117673873901367 9.709829330444336 14.065147399902344 9.728094100952148 13.993788719177246 L9.728094100952148 13.993788719177246 M12.0 13.040599822998047 C12.018718719482422 13.032092094421387 12.081568717956543 13.021767616271973 12.111064910888672 13.015074729919434 C12.188776969909668 13.141228675842285 12.31368350982666 13.2334623336792 12.397407531738281 13.254902839660645 C12.563722610473633 13.377427101135254 12.585050582885742 13.53750228881836 12.508700370788574 13.658778190612793 C12.435412406921387 13.77551555633545 12.323892593383789 13.863210678100586 12.259682655334473 13.96815013885498 C12.231433868408203 14.014436721801758 12.147708892822266 14.006268501281738 12.116511344909668 13.970531463623047 L11.873392105102539 13.664449691772461 C11.847639083862305 13.631549835205078 11.84468936920166 13.547598838806152 11.858304023742676 13.503581047058105 C11.903796195983887 13.356892585754395 11.931818008422852 13.22064208984375 11.943842887878418 13.0977783203125 C11.946226119995117 13.074067115783691 11.988882064819336 13.045591354370117 12.0 13.040599822998047 L12.0 13.040599822998047 M10.329026222229004 9.432165145874023 A0.5065445303916931 0.5065445303916931 0.0 0 0 10.569990158081055 9.42603874206543 C10.581220626831055 9.455422401428223 10.59608268737793 9.488889694213867 10.621949195861816 9.495128631591797 C10.66528606414795 9.505680084228516 10.808116912841797 9.495128631591797 10.873689651489258 9.495128631591797 C10.876072883605957 9.588043212890625 10.970006942749023 9.654863357543945 11.05724811553955 9.622077941894531 C11.10909366607666 9.602677345275879 11.158102989196777 9.57045841217041 11.192364692687988 9.568303108215332 C11.264290809631348 9.563652038574219 11.304337501525879 9.616631507873535 11.299232482910156 9.669611930847168 C11.287887573242188 9.787370681762695 11.229576110839844 9.898776054382324 11.133031845092773 9.967865943908691 C11.05736255645752 10.022208213806152 10.95843505859375 10.1384916305542 10.874597549438477 10.098670959472656 A1.1804245710372925 1.1804245710372925 0.0 0 1 10.289433479309082 9.47856616973877 L10.329026222229004 9.432165145874023 L10.329026222229004 9.432165145874023 M13.955387115478516 10.184325218200684 A0.3133428990840912 0.3133428990840912 0.0 0 1 14.266006469726562 10.233675003051758 C14.302877426147461 10.264078140258789 14.39023208618164 10.258633613586426 14.404753684997559 10.290058135986328 C14.493242263793945 10.480877876281738 14.476566314697266 10.706411361694336 14.34088134765625 10.877490043640137 C14.30412483215332 10.92377758026123 14.23310661315918 10.925365447998047 14.174454689025879 10.906646728515625 C14.147340774536133 10.898024559020996 14.060325622558594 10.884410858154297 14.049888610839844 10.876015663146973 C13.924641609191895 10.775274276733398 13.806883811950684 10.66568374633789 13.792588233947754 10.51128101348877 C13.781356811523438 10.390459060668945 13.838308334350586 10.272701263427734 13.934171676635742 10.19635009765625 C13.9378023147583 10.193286895751953 13.950848579406738 10.186140060424805 13.955387115478516 10.184325218200684 L13.955387115478516 10.184325218200684 M9.062495231628418 12.293999671936035 C9.112525939941406 12.350610733032227 9.166753768920898 12.404044151306152 9.230738639831543 12.427641868591309 C9.253655433654785 12.436037063598633 9.324106216430664 12.424124717712402 9.337833404541016 12.431158065795898 C9.397393226623535 12.461222648620605 9.458314895629883 12.527703285217285 9.4390287399292 12.583972930908203 C9.408058166503906 12.674163818359375 9.37946891784668 12.777969360351562 9.409305572509766 12.869634628295898 C9.478622436523438 12.878710746765137 9.528765678405762 12.853865623474121 9.572216033935547 12.828680038452148 C9.600578308105469 12.812116622924805 9.637107849121094 12.836053848266602 9.6502685546875 12.867252349853516 A0.5391040444374084 0.5391040444374084 0.0 0 0 9.792191505432129 13.064537048339844 C9.825545310974121 13.053079605102539 9.864344596862793 13.067374229431152 9.891345024108887 13.112186431884766 C9.79094409942627 13.215537071228027 9.712664604187012 13.350199699401855 9.58151912689209 13.434491157531738 C9.566543579101562 13.444133758544922 9.487470626831055 13.431314468383789 9.495979309082031 13.43551254272461 C9.259214401245117 13.31764030456543 9.159947395324707 13.055349349975586 9.251272201538086 12.874399185180664 C9.299827575683594 12.777969360351562 9.195682525634766 12.672234535217285 9.121034622192383 12.610405921936035 C9.067827224731445 12.566161155700684 9.057730674743652 12.488450050354004 9.081440925598145 12.417998313903809 C9.032885551452637 12.397237777709961 9.020406723022461 12.341875076293945 9.062495231628418 12.293999671936035 M10.082618713378906 10.121475219726562 C10.144220352172852 10.08539867401123 10.230554580688477 10.08970832824707 10.272075653076172 10.14541244506836 C10.348767280578613 10.24819564819336 10.43226432800293 10.349164009094238 10.541061401367188 10.424493789672852 C10.519392013549805 10.5135498046875 10.523136138916016 10.612589836120605 10.47049617767334 10.667498588562012 C10.395621299743652 10.745664596557617 10.307358741760254 10.820086479187012 10.195158004760742 10.895869255065918 C10.197994232177734 10.893940925598145 10.13321590423584 10.901995658874512 10.12277889251709 10.893827438354492 C10.001502990722656 10.798644065856934 9.925039291381836 10.652637481689453 9.936724662780762 10.517974853515625 C9.944098472595215 10.433002471923828 9.889643669128418 10.34848403930664 9.917664527893066 10.280755996704102 C9.94659423828125 10.211212158203125 10.01488971710205 10.161181449890137 10.082618713378906 10.121475219726562 L10.082618713378906 10.121475219726562 M11.084929466247559 15.578882217407227 C11.082660675048828 15.551313400268555 11.149481773376465 15.548137664794922 11.164684295654297 15.594991683959961 C11.177390098571777 15.634243965148926 11.222087860107422 15.678603172302246 11.278131484985352 15.670095443725586 C11.391579627990723 15.653190612792969 11.506842613220215 15.652281761169434 11.623239517211914 15.66884708404541 A0.09427513927221298 0.09427513927221298 0.0 0 1 11.734644889831543 15.629138946533203 C11.829033851623535 15.663854598999023 11.945657730102539 15.751436233520508 11.930456161499023 15.823362350463867 C11.903342247009277 15.952466011047363 11.875547409057617 16.085201263427734 11.778549194335938 16.170625686645508 C11.684842109680176 16.25333023071289 11.520569801330566 16.22076988220215 11.468610763549805 16.12672233581543 C11.424138069152832 16.046287536621094 11.310236930847168 16.00465202331543 11.253059387207031 15.928982734680176 C11.174213409423828 15.824496269226074 11.09559440612793 15.714225769042969 11.084929466247559 15.578882217407227 M10.921564102172852 11.687280654907227 A0.11276713758707047 0.11276713758707047 0.0 0 1 11.051349639892578 11.730278015136719 C11.090715408325195 11.787569046020508 11.12962818145752 11.84497356414795 11.171716690063477 11.919962882995605 C11.239218711853027 11.843158721923828 11.3463134765625 11.823305130004883 11.404852867126465 11.879008293151855 C11.445466995239258 11.917580604553223 11.4378662109375 11.975212097167969 11.40961742401123 12.014351844787598 C11.323738098144531 12.132904052734375 11.206771850585938 12.220939636230469 11.087652206420898 12.285151481628418 C11.00211238861084 12.331324577331543 10.899102210998535 12.257583618164062 10.82638168334961 12.197229385375977 C10.73403549194336 12.1204252243042 10.659613609313965 12.025809288024902 10.59404182434082 11.930173873901367 C10.558531761169434 11.878440856933594 10.583149909973145 11.802090644836426 10.616503715515137 11.745593070983887 L10.76829719543457 11.796418190002441 A0.3067629039287567 0.3067629039287567 0.0 0 1 10.921564102172852 11.687280654907227 L10.921564102172852 11.687280654907227 M14.374576568603516 15.785697937011719 C14.39919376373291 15.785810470581055 14.433908462524414 15.810542106628418 14.436178207397461 15.844576835632324 C14.447296142578125 16.016902923583984 14.352340698242188 16.17856788635254 14.202476501464844 16.288724899291992 C14.127260208129883 16.425315856933594 13.984996795654297 16.51460075378418 13.835245132446289 16.545345306396484 C13.755151748657227 16.56179428100586 13.718734741210938 16.43427848815918 13.669270515441895 16.354978561401367 C13.618900299072266 16.273977279663086 13.650324821472168 16.155424118041992 13.730759620666504 16.066368103027344 C13.762866020202637 16.03097152709961 13.874271392822266 16.008508682250977 13.894464492797852 15.927054405212402 L14.200547218322754 15.927392959594727 C14.183302879333496 15.975268363952637 14.214841842651367 16.023937225341797 14.283477783203125 16.024845123291016 C14.289377212524414 16.024845123291016 14.319554328918457 16.006694793701172 14.327268600463867 15.977424621582031 C14.33464241027832 15.94940185546875 14.323638916015625 15.8458251953125 14.33089828491211 15.81406021118164 C14.332714080810547 15.807138442993164 14.362664222717285 15.78558349609375 14.374576568603516 15.785697937011719 L14.374576568603516 15.785697937011719 M16.81733512878418 5.386049270629883 C16.843769073486328 5.356325626373291 16.94609832763672 5.3769731521606445 16.982742309570312 5.390473365783691 C17.081327438354492 5.426436424255371 17.089609146118164 5.552590370178223 16.998397827148438 5.609994888305664 C16.973325729370117 5.625877857208252 16.937475204467773 5.662294387817383 16.91546630859375 5.706198692321777 C16.81064224243164 5.915056228637695 16.667922973632812 6.125275135040283 16.430931091308594 6.164868354797363 C16.364337921142578 6.1760993003845215 16.28435707092285 6.097366809844971 16.286624908447266 6.040756702423096 C16.290937423706055 5.932073593139648 16.36762809753418 5.8519792556762695 16.443071365356445 5.777897834777832 A8.131145477294922 8.131145477294922 0.0 0 0 16.81733512878418 5.386049270629883 L16.81733512878418 5.386049270629883 M15.097352981567383 12.806330680847168 C15.126848220825195 12.79419231414795 15.166214942932129 12.797142028808594 15.204447746276855 12.800885200500488 C15.19627857208252 12.844789505004883 15.219648361206055 12.895613670349121 15.270359992980957 12.902534484863281 C15.304961204528809 12.907299995422363 15.340357780456543 12.940993309020996 15.331622123718262 12.985238075256348 A3.799367666244507 3.799367666244507 0.0 0 1 15.21908187866211 13.410213470458984 C15.12979793548584 13.472609519958496 15.032687187194824 13.55066204071045 14.970291137695312 13.640398979187012 C14.937844276428223 13.687026977539062 14.84084701538086 13.637676239013672 14.788433074951172 13.597743034362793 C14.670448303222656 13.507779121398926 14.670902252197266 13.334657669067383 14.778450012207031 13.224725723266602 C14.79750919342041 13.205327033996582 14.805450439453125 13.154842376708984 14.831884384155273 13.12182903289795 C14.886906623840332 13.147808074951172 14.935009002685547 13.159720420837402 14.998085975646973 13.162670135498047 C15.033254623413086 13.058638572692871 15.059006690979004 12.948368072509766 15.070805549621582 12.839344024658203 C15.071825981140137 12.830608367919922 15.087141990661621 12.810527801513672 15.097352981567383 12.806330680847168 L15.097352981567383 12.806330680847168 M7.129344463348389 14.105535507202148 C7.147269248962402 14.085908889770508 7.223392963409424 14.065828323364258 7.246082305908203 14.110300064086914 C7.410014629364014 14.431584358215332 7.656536102294922 14.736759185791016 7.918374061584473 15.070749282836914 C7.938000679016113 15.095707893371582 7.974870681762695 15.175575256347656 7.917806625366211 15.239105224609375 C7.8440656661987305 15.207000732421875 7.781102180480957 15.156856536865234 7.718705654144287 15.107393264770508 C7.4766082763671875 14.915327072143555 7.270586967468262 14.678106307983398 7.140008449554443 14.396302223205566 A0.42588311433792114 0.42588311433792114 0.0 0 1 7.106995105743408 14.164527893066406 C7.108242988586426 14.153863906860352 7.117092132568359 14.119149208068848 7.129344463348389 14.105535507202148 L7.129344463348389 14.105535507202148 M10.324488639831543 8.500418663024902 L10.641802787780762 8.635648727416992 C10.709077835083008 8.810017585754395 10.859508514404297 8.946382522583008 10.946636199951172 9.122566223144531 C10.978742599487305 9.187458992004395 10.974998474121094 9.275039672851562 10.915552139282227 9.32007884979248 C10.902731895446777 9.32972240447998 10.808797836303711 9.331878662109375 10.797340393066406 9.32007884979248 L10.262092590332031 8.755789756774902 C10.227604866027832 8.716196060180664 10.222272872924805 8.64279556274414 10.23373031616211 8.590950012207031 C10.238155364990234 8.571663856506348 10.298623085021973 8.52617073059082 10.324488639831543 8.500418663024902 L10.324488639831543 8.500418663024902 M12.408185005187988 15.643434524536133 C12.603769302368164 15.593517303466797 12.780180931091309 15.702879905700684 12.920969009399414 15.832324981689453 C12.979394912719727 15.885871887207031 13.058582305908203 15.979806900024414 12.99743366241455 16.019399642944336 C12.885005950927734 16.092233657836914 12.773260116577148 16.203752517700195 12.620786666870117 16.208858489990234 C12.486236572265625 16.116512298583984 12.393095970153809 15.98684024810791 12.32638931274414 15.841512680053711 C12.299955368041992 15.78354263305664 12.352596282958984 15.657615661621094 12.408185005187988 15.643434524536133 L12.408185005187988 15.643434524536133 M11.23660945892334 10.333395004272461 C11.302522659301758 10.304693222045898 11.409730911254883 10.366294860839844 11.378645896911621 10.409064292907715 C11.308308601379395 10.505722045898438 11.293219566345215 10.662847518920898 11.420167922973633 10.726945877075195 C11.454201698303223 10.744190216064453 11.47916030883789 10.787639617919922 11.442063331604004 10.824057579040527 C11.39225959777832 10.872953414916992 11.329523086547852 10.942723274230957 11.294920921325684 10.968249320983887 C11.17160415649414 11.059121131896973 11.051009178161621 11.032914161682129 10.988725662231445 10.940227508544922 C10.897626876831055 10.804317474365234 10.841584205627441 10.59738826751709 11.002906799316406 10.491768836975098 C11.079371452331543 10.441851615905762 11.14880084991455 10.371513366699219 11.23660945892334 10.333395004272461 M17.30005645751953 14.461761474609375 C17.356664657592773 14.44463062286377 17.422237396240234 14.520641326904297 17.398300170898438 14.538225173950195 C17.249570846557617 14.648155212402344 17.167888641357422 14.815945625305176 17.0672607421875 14.987138748168945 C16.89912986755371 15.1141996383667 16.764240264892578 15.301275253295898 16.624927520751953 15.448984146118164 C16.57149314880371 15.505594253540039 16.52305030822754 15.439228057861328 16.531219482421875 15.393167495727539 C16.538026809692383 15.35516357421875 16.504104614257812 15.314775466918945 16.51681137084961 15.287435531616211 C16.53178596496582 15.254987716674805 16.632640838623047 15.179431915283203 16.641490936279297 15.14154052734375 C16.65805435180664 15.069842338562012 16.701391220092773 14.993492126464844 16.78091812133789 14.975454330444336 A0.5252634286880493 0.5252634286880493 0.0 0 1 16.960960388183594 14.71112060546875 C16.93509292602539 14.679014205932617 16.97162437438965 14.643845558166504 17.004297256469727 14.662450790405273 C17.030731201171875 14.677538871765137 17.074066162109375 14.668462753295898 17.079967498779297 14.635336875915527 C17.08892822265625 14.58439826965332 17.11910629272461 14.522682189941406 17.181161880493164 14.51065731048584 C17.226314544677734 14.501922607421875 17.265338897705078 14.472198486328125 17.30005645751953 14.461761474609375 L17.30005645751953 14.461761474609375 M13.103620529174805 9.569550514221191 C13.139583587646484 9.55083179473877 13.195172309875488 9.550151824951172 13.220699310302734 9.57862663269043 C13.244523048400879 9.605400085449219 13.251895904541016 9.642271041870117 13.271749496459961 9.674603462219238 L13.364096641540527 9.628657341003418 C13.381454467773438 9.668931007385254 13.419572830200195 9.692414283752441 13.456783294677734 9.673015594482422 C13.48979663848877 9.655771255493164 13.540054321289062 9.657699584960938 13.567395210266113 9.695477485656738 C13.640795707702637 9.796900749206543 13.681636810302734 9.913751602172852 13.702624320983887 10.000652313232422 C13.733368873596191 10.128395080566406 13.57862663269043 10.193286895751953 13.483216285705566 10.146432876586914 C13.324956893920898 10.06849479675293 13.152402877807617 9.979778289794922 13.095111846923828 9.800304412841797 C13.074464797973633 9.735865592956543 13.074124336242676 9.665640830993652 13.08251953125 9.595757484436035 A0.06931661814451218 0.06931661814451218 0.0 0 1 13.103620529174805 9.569550514221191 L13.103620529174805 9.569550514221191 M5.32416296005249 5.879206657409668 C5.329834938049316 5.855609893798828 5.352071285247803 5.835415840148926 5.380886554718018 5.845058917999268 C5.425471305847168 5.859920501708984 5.435908794403076 5.90847635269165 5.437383651733398 5.941829681396484 C5.459166049957275 6.435441493988037 5.548222064971924 6.915098667144775 5.683225154876709 7.382503509521484 C5.695250511169434 7.424139499664307 5.645106792449951 7.476212024688721 5.595529556274414 7.428449630737305 C5.517251014709473 7.352894306182861 5.476069450378418 7.21437406539917 5.503297328948975 7.123729228973389 C5.34639835357666 6.714522838592529 5.27220344543457 6.3193840980529785 5.282867908477783 5.929236888885498 C5.283207893371582 5.912446975708008 5.321099758148193 5.892593860626221 5.32416296005249 5.879206657409668 L5.32416296005249 5.879206657409668 M13.360239028930664 14.68264389038086 C13.363868713378906 14.651900291442871 13.388940811157227 14.630912780761719 13.41832447052002 14.64089584350586 C13.539259910583496 14.682304382324219 13.664392471313477 14.709872245788574 13.786689758300781 14.723258972167969 C13.829686164855957 14.727910041809082 13.876880645751953 14.823887825012207 13.888452529907227 14.853157043457031 C13.943473815917969 14.992243766784668 13.895031929016113 15.12838077545166 13.779882431030273 15.175801277160645 C13.724066734313965 15.19871711730957 13.658493041992188 15.235363006591797 13.605513572692871 15.196223258972168 C13.444076538085938 15.077215194702148 13.335053443908691 14.887530326843262 13.360239028930664 14.68264389038086 L13.360239028930664 14.68264389038086 M14.967567443847656 11.256633758544922 C15.019866943359375 11.249600410461426 15.072052955627441 11.284995079040527 15.079654693603516 11.313923835754395 C15.117319107055664 11.456981658935547 15.062864303588867 11.59062385559082 14.968021392822266 11.6434907913208 C14.885544776916504 11.803338050842285 14.747479438781738 11.880823135375977 14.605215072631836 11.934257507324219 C14.547016143798828 11.853368759155273 14.615426063537598 11.756370544433594 14.624048233032227 11.67525577545166 C14.637434959411621 11.551143646240234 14.685763359069824 11.422380447387695 14.729667663574219 11.29747486114502 C14.822240829467773 11.293390274047852 14.898591041564941 11.265935897827148 14.967567443847656 11.256633758544922 M6.947260856628418 19.16610336303711 C7.00965690612793 19.20274543762207 7.072847843170166 19.243019104003906 7.118680477142334 19.29985809326172 C7.174156188964844 19.36871910095215 7.123898983001709 19.45357894897461 7.048456192016602 19.513593673706055 C6.966547012329102 19.578824996948242 6.85491418838501 19.623865127563477 6.743735313415527 19.66164207458496 C6.6538848876953125 19.69215965270996 6.560744285583496 19.607526779174805 6.539188861846924 19.511436462402344 C6.523192882537842 19.43939781188965 6.56993293762207 19.37700080871582 6.624274730682373 19.312562942504883 C6.6764607429504395 19.250507354736328 6.776181221008301 19.194236755371094 6.860586643218994 19.244155883789062 L6.947260856628418 19.16610336303711 L6.947260856628418 19.16610336303711 M10.588254928588867 15.710254669189453 C10.649177551269531 15.69947624206543 10.696370124816895 15.763574600219727 10.712594032287598 15.828353881835938 C10.75014591217041 15.977764129638672 10.687748908996582 16.135570526123047 10.547867774963379 16.228031158447266 C10.321084976196289 16.205795288085938 10.198107719421387 15.997503280639648 10.149552345275879 15.802146911621094 C10.140135765075684 15.764710426330566 10.21092700958252 15.743041038513184 10.246664047241211 15.759832382202148 C10.326871871948242 15.797155380249023 10.42137336730957 15.820866584777832 10.5022611618042 15.783428192138672 C10.528922080993652 15.771289825439453 10.549796104431152 15.717174530029297 10.588254928588867 15.710254669189453 M19.653076171875 6.974431991577148 C19.676673889160156 7.025823593139648 19.618473052978516 7.101379871368408 19.631975173950195 7.144376754760742 C19.67270278930664 7.274728298187256 19.643774032592773 7.430492401123047 19.595558166503906 7.570146083831787 C19.516372680664062 7.799651145935059 19.431739807128906 8.027228355407715 19.33043098449707 8.241416931152344 C19.31534194946289 8.273409843444824 19.264404296875 8.284414291381836 19.2468204498291 8.256278991699219 C19.205297470092773 8.189798355102539 19.230255126953125 8.091439247131348 19.265424728393555 8.007488250732422 C19.37445068359375 7.747125148773193 19.431400299072266 7.469177722930908 19.54235076904297 7.209949970245361 C19.568784713745117 7.148460865020752 19.582172393798828 7.081980228424072 19.574684143066406 7.017882347106934 L19.653076171875 6.974431991577148 M12.652551651000977 10.519222259521484 C12.708595275878906 10.470553398132324 12.790844917297363 10.52273941040039 12.834749221801758 10.585929870605469 C12.915977478027344 10.702781677246094 12.967143058776855 10.833019256591797 13.037593841552734 10.948509216308594 C13.067770004272461 10.99797248840332 13.192337036132812 10.87635612487793 13.223875045776367 10.815208435058594 C13.25484561920166 10.755420684814453 13.314859390258789 10.80409049987793 13.31361198425293 10.847539901733398 C13.311116218566895 10.927634239196777 13.322914123535156 11.007501602172852 13.294325828552246 11.069557189941406 C13.263355255126953 11.13671875 13.184621810913086 11.152602195739746 13.11882209777832 11.129798889160156 C12.910985946655273 11.057872772216797 12.744104385375977 10.900520324707031 12.64869499206543 10.703575134277344 C12.618176460266113 10.640725135803223 12.609101295471191 10.55688762664795 12.652551651000977 10.519222259521484 L12.652551651000977 10.519222259521484 M6.822808265686035 13.353376388549805 C6.91458797454834 13.380149841308594 7.005232810974121 13.419403076171875 7.039493560791016 13.49654769897461 C7.062183380126953 13.547712326049805 7.050498008728027 13.619638442993164 7.0626373291015625 13.68033218383789 C6.899045467376709 13.794120788574219 6.657628536224365 13.835415840148926 6.532835960388184 13.647660255432129 C6.4897260665893555 13.582880973815918 6.5161590576171875 13.492576599121094 6.576059341430664 13.439482688903809 C6.627451419830322 13.393877029418945 6.693024158477783 13.368010520935059 6.770395755767822 13.367897033691406 C6.763134479522705 13.413843154907227 6.833018779754639 13.413276672363281 6.822808265686035 13.353376388549805 L6.822808265686035 13.353376388549805 M9.818851470947266 11.531290054321289 C9.820780754089355 11.506104469299316 9.903143882751465 11.493285179138184 9.911652565002441 11.516201972961426 C9.957144737243652 11.637137413024902 10.032020568847656 11.752967834472656 10.116992950439453 11.85790729522705 A0.07907313853502274 0.07907313853502274 0.0 0 1 10.109505653381348 11.964207649230957 C9.995149612426758 12.071075439453125 9.832239151000977 12.083667755126953 9.688273429870605 12.00981330871582 C9.639150619506836 11.984627723693848 9.626444816589355 11.824666976928711 9.680899620056152 11.78915786743164 C9.757363319396973 11.73935317993164 9.811137199401855 11.633166313171387 9.818851470947266 11.531290054321289 L9.818851470947266 11.531290054321289 M8.192804336547852 15.01595401763916 C8.23092269897461 14.981012344360352 8.293432235717773 14.984527587890625 8.32429027557373 15.025824546813965 C8.468936920166016 15.219480514526367 8.597246170043945 15.424593925476074 8.732248306274414 15.625282287597656 C8.763106346130371 15.671340942382812 8.763106346130371 15.731241226196289 8.723966598510742 15.786151885986328 C8.612447738647461 15.743494033813477 8.516470909118652 15.66147232055664 8.452486038208008 15.556418418884277 C8.361841201782227 15.4073486328125 8.227519035339355 15.28641414642334 8.166824340820312 15.11941909790039 A0.09688443690538406 0.09688443690538406 0.0 0 1 8.192804336547852 15.01595401763916 L8.192804336547852 15.01595401763916 M7.364294528961182 5.287916660308838 C7.436447620391846 5.285080432891846 7.500659465789795 5.3537163734436035 7.528794288635254 5.430520534515381 C7.587900638580322 5.409419059753418 7.641448020935059 5.436533451080322 7.667654514312744 5.485315799713135 C7.729937553405762 5.601259708404541 7.782690525054932 5.725371360778809 7.750584602355957 5.85697078704834 C7.740488052368164 5.898606300354004 7.6532464027404785 5.87705135345459 7.610249996185303 5.847781658172607 A1.1848491430282593 1.1848491430282593 0.0 0 1 7.301445007324219 5.5396575927734375 C7.278641700744629 5.506303787231445 7.297246932983398 5.384687423706055 7.305642127990723 5.3516740798950195 C7.308818817138672 5.338173866271973 7.347391128540039 5.288597106933594 7.364294528961182 5.287916660308838 L7.364294528961182 5.287916660308838 M11.166385650634766 17.72576904296875 C11.186124801635742 17.695363998413086 11.229689598083496 17.69570541381836 11.246479988098145 17.727924346923828 C11.32623291015625 17.88062286376953 11.312505722045898 18.057037353515625 11.242735862731934 18.181941986083984 C11.21028995513916 18.240028381347656 11.130082130432129 18.252735137939453 11.093324661254883 18.300155639648438 C11.022987365722656 18.270204544067383 10.98498249053955 18.202136993408203 10.95571231842041 18.134180068969727 A0.3275238871574402 0.3275238871574402 0.0 0 1 11.007671356201172 17.795879364013672 C11.062127113342285 17.834678649902344 11.120098114013672 17.815391540527344 11.141766548156738 17.76842498779297 C11.145964622497559 17.759235382080078 11.161052703857422 17.733936309814453 11.166385650634766 17.72576904296875 L11.166385650634766 17.72576904296875 M8.62061595916748 14.880156517028809 C8.640356063842773 14.845102310180664 8.719655990600586 14.846576690673828 8.727371215820312 14.87766170501709 C8.792716979980469 15.138704299926758 8.980359077453613 15.33825969696045 9.089836120605469 15.576159477233887 C9.110257148742676 15.620404243469238 9.113320350646973 15.67088794708252 9.121941566467285 15.730108261108398 C9.040940284729004 15.737255096435547 8.972417831420898 15.690629005432129 8.934185981750488 15.621992111206055 C8.830381393432617 15.43582534790039 8.684487342834473 15.272912979125977 8.619935035705566 15.066892623901367 C8.60098934173584 15.00631046295166 8.58907699584961 14.935860633850098 8.62061595916748 14.880156517028809 L8.62061595916748 14.880156517028809 M10.36306095123291 7.713771820068359 C10.37588119506836 7.711615562438965 10.435781478881836 7.720578193664551 10.477530479431152 7.752116680145264 C10.579405784606934 7.829261302947998 10.667781829833984 7.933292865753174 10.65167236328125 8.060355186462402 C10.645206451416016 8.11163330078125 10.565679550170898 8.127742767333984 10.520299911499023 8.111745834350586 L10.132648468017578 7.963243007659912 C10.084887504577637 7.9432759284973145 10.082958221435547 7.880766868591309 10.098840713500977 7.856828689575195 C10.147963523864746 7.782407283782959 10.233957290649414 7.736007213592529 10.36306095123291 7.713771820068359 L10.36306095123291 7.713771820068359 M13.343108177185059 8.872867584228516 C13.408454895019531 8.85119915008545 13.482876777648926 8.840194702148438 13.550264358520508 8.874795913696289 C13.582483291625977 8.891359329223633 13.622984886169434 8.936399459838867 13.667228698730469 8.929591178894043 C13.71374225616455 8.922445297241211 13.763092994689941 8.930839538574219 13.787938117980957 8.971794128417969 C13.8157320022583 9.017400741577148 13.801324844360352 9.071514129638672 13.76127815246582 9.104982376098633 C13.636597633361816 9.209467887878418 13.458712577819824 9.202887535095215 13.349348068237305 9.113944053649902 C13.281506538391113 9.058921813964844 13.285591125488281 8.966121673583984 13.304876327514648 8.894536018371582 C13.30589771270752 8.891246795654297 13.33369255065918 8.876044273376465 13.343108177185059 8.872867584228516 L13.343108177185059 8.872867584228516 M14.630400657653809 14.564205169677734 C14.697221755981445 14.552291870117188 14.755534172058105 14.589163780212402 14.809648513793945 14.64940357208252 C14.849808692932129 14.694215774536133 14.916743278503418 14.74277114868164 14.925138473510742 14.787810325622559 C14.946466445922852 14.903074264526367 14.910050392150879 15.00165843963623 14.838690757751465 15.042387008666992 C14.792291641235352 15.068933486938477 14.719571113586426 15.069387435913086 14.693477630615234 15.040345191955566 A0.4282655417919159 0.4282655417919159 0.0 0 1 14.59228229522705 14.832395553588867 C14.583319664001465 14.77714729309082 14.621779441833496 14.622516632080078 14.630400657653809 14.564205169677734 M18.26787757873535 18.91742515563965 C18.322107315063477 18.91118621826172 18.35988426208496 18.969951629638672 18.37417984008789 19.02395248413086 C18.414226531982422 19.17597198486328 18.43737030029297 19.331623077392578 18.453594207763672 19.487159729003906 C18.459606170654297 19.54558563232422 18.406967163085938 19.594141006469727 18.347179412841797 19.60321617126465 C18.30508804321289 19.609683990478516 18.23202896118164 19.58143424987793 18.245189666748047 19.511436462402344 C18.27332305908203 19.362592697143555 18.24802589416504 19.169960021972656 18.188125610351562 19.001489639282227 C18.215011596679688 18.973127365112305 18.25301742553711 18.919126510620117 18.26787757873535 18.91742515563965 L18.26787757873535 18.91742515563965 M13.313726425170898 11.785527229309082 C13.352070808410645 11.75671100616455 13.4141263961792 11.788476943969727 13.442034721374512 11.836691856384277 C13.480607032775879 11.90328598022461 13.52802848815918 11.970787048339844 13.528709411621094 12.03885555267334 C13.529275894165039 12.119630813598633 13.46109390258789 12.177943229675293 13.38610553741455 12.197002410888672 C13.34095287322998 12.208460807800293 13.268460273742676 12.232284545898438 13.244068145751953 12.199612617492676 C13.160911560058594 12.08820629119873 13.187911987304688 11.936299324035645 13.2808256149292 11.847469329833984 C13.29625415802002 11.832721710205078 13.300338745117188 11.795623779296875 13.313726425170898 11.785527229309082 L13.313726425170898 11.785527229309082 M13.791340827941895 7.998525142669678 L13.97648811340332 7.990356922149658 C13.993391990661621 8.054681777954102 14.048641204833984 8.125813484191895 14.042627334594727 8.176298141479492 C14.03184986114502 8.26626205444336 13.941092491149902 8.332515716552734 13.862699508666992 8.357020378112793 C13.832862854003906 8.366323471069336 13.737452507019043 8.359175682067871 13.709318161010742 8.350554466247559 C13.629450798034668 8.32638931274414 13.603243827819824 8.22133731842041 13.661669731140137 8.161323547363281 C13.683338165283203 8.139086723327637 13.7739839553833 8.097679138183594 13.791454315185547 8.075782775878906 C13.79928207397461 8.065572738647461 13.791340827941895 8.019853591918945 13.791340827941895 7.998525142669678 L13.791340827941895 7.998525142669678 M6.624047756195068 10.977551460266113 C6.693251132965088 10.95781135559082 6.766197681427002 10.990711212158203 6.804997444152832 11.05163288116455 C6.859111785888672 11.136832237243652 6.877150058746338 11.24063777923584 6.85491418838501 11.33922290802002 C6.846859455108643 11.374619483947754 6.8124847412109375 11.392884254455566 6.777656078338623 11.382674217224121 C6.633350849151611 11.34024429321289 6.534764766693115 11.217947959899902 6.507990837097168 11.072507858276367 C6.500843524932861 11.032914161682129 6.573677062988281 10.991846084594727 6.624047756195068 10.977551460266113 M9.340215682983398 14.4943208694458 C9.447877883911133 14.45779037475586 9.546463966369629 14.470270156860352 9.644369125366211 14.505891799926758 C9.706539154052734 14.528581619262695 9.719697952270508 14.690925598144531 9.656054496765137 14.720422744750977 C9.56370735168457 14.7633056640625 9.44050407409668 14.76716423034668 9.371980667114258 14.673455238342285 C9.347249031066895 14.639761924743652 9.280655860900879 14.600507736206055 9.299488067626953 14.543557167053223 C9.306748390197754 14.521321296691895 9.32887077331543 14.498177528381348 9.340215682983398 14.4943208694458 M12.043904304504395 17.28695297241211 L12.146687507629395 17.28695297241211 C12.16109561920166 17.31656265258789 12.19286060333252 17.33879852294922 12.20431900024414 17.366477966308594 C12.216458320617676 17.395750045776367 12.207155227661133 17.502277374267578 12.20431900024414 17.51089859008789 C12.180268287658691 17.587020874023438 12.122182846069336 17.750274658203125 12.103578567504883 17.805749893188477 C12.038004875183105 17.79758071899414 11.991491317749023 17.7522029876709 11.98729419708252 17.695363998413086 C11.982982635498047 17.637392044067383 11.977423667907715 17.460866928100586 11.985478401184082 17.403690338134766 C11.988995552062988 17.37918472290039 12.032218933105469 17.31020736694336 12.043904304504395 17.28695297241211 L12.043904304504395 17.28695297241211 M5.902179718017578 18.79955291748047 C5.9423394203186035 18.773460388183594 5.993505001068115 18.77901840209961 6.0303754806518555 18.80942153930664 C6.100826740264893 18.867507934570312 6.14302921295166 18.953842163085938 6.131457328796387 19.04403305053711 C6.1188645362854 19.141822814941406 6.004622936248779 19.19106101989746 5.925776481628418 19.131839752197266 A0.22235773503780365 0.22235773503780365 0.0 0 1 5.868598937988281 18.84164047241211 C5.877901554107666 18.825984954833984 5.88629674911499 18.80976104736328 5.902179718017578 18.79955291748047 M17.29132080078125 18.80284309387207 C17.332500457763672 18.785259246826172 17.375043869018555 18.794673919677734 17.397506713867188 18.823944091796875 C17.46126365661621 18.90653419494629 17.493711471557617 19.0067081451416 17.497453689575195 19.096445083618164 C17.499723434448242 19.148630142211914 17.42530059814453 19.196392059326172 17.385141372680664 19.167123794555664 L17.16119384765625 18.99343490600586 C17.10946273803711 18.95077896118164 17.179006576538086 18.865467071533203 17.229717254638672 18.852872848510742 C17.251953125 18.847427368164062 17.284400939941406 18.80579376220703 17.29132080078125 18.80284309387207 L17.29132080078125 18.80284309387207 M16.233985900878906 15.168540954589844 C16.2673397064209 15.15696907043457 16.296382904052734 15.20756721496582 16.286739349365234 15.251245498657227 C16.265411376953125 15.348810195922852 16.183956146240234 15.411999702453613 16.11338996887207 15.460895538330078 C16.038856506347656 15.5125150680542 15.98156452178955 15.579790115356445 15.905895233154297 15.617227554321289 C15.883091926574707 15.586596488952637 15.853822708129883 15.55222225189209 15.860969543457031 15.527717590332031 C15.898974418640137 15.396571159362793 16.012195587158203 15.305131912231445 16.134492874145508 15.294807434082031 C16.15445899963379 15.232413291931152 16.18282127380371 15.186238288879395 16.233985900878906 15.168540954589844 L16.233985900878906 15.168540954589844 M9.458882331848145 16.939800262451172 C9.529219627380371 16.917339324951172 9.601940155029297 16.90917205810547 9.670008659362793 16.925281524658203 C9.732064247131348 16.93991470336914 9.745110511779785 17.023073196411133 9.695420265197754 17.065048217773438 C9.62939453125 17.120750427246094 9.540224075317383 17.170555114746094 9.471588134765625 17.14105796813965 C9.410893440246582 17.114965438842773 9.412141799926758 17.021371841430664 9.44674301147461 16.958860397338867 C9.449352264404297 16.95421028137207 9.457747459411621 16.940141677856445 9.458882331848145 16.939800262451172 L9.458882331848145 16.939800262451172 M17.939332962036133 19.705659866333008 C18.005813598632812 19.70838165283203 18.05698013305664 19.767602920532227 18.067302703857422 19.8338565826416 C18.075584411621094 19.887062072753906 18.07195472717285 19.9412899017334 18.054824829101562 19.9927978515625 C17.970077514648438 20.004592895507812 17.876708984375 19.982131958007812 17.84800910949707 19.911226272583008 C17.82497787475586 19.854503631591797 17.865365982055664 19.78836441040039 17.9072265625 19.739240646362305 C17.913352966308594 19.73232078552246 17.932979583740234 19.705320358276367 17.939332962036133 19.705659866333008 L17.939332962036133 19.705659866333008 M7.192988872528076 11.24789810180664 A0.07827899605035782 0.07827899605035782 0.0 0 1 7.298949241638184 11.269792556762695 C7.346597194671631 11.337181091308594 7.364294528961182 11.427713394165039 7.325382232666016 11.48318862915039 C7.290894031524658 11.532424926757812 7.231561183929443 11.526185035705566 7.193328857421875 11.496121406555176 A0.15757903456687927 0.15757903456687927 0.0 0 1 7.171206474304199 11.269566535949707 C7.1754045486450195 11.264688491821289 7.187769889831543 11.251188278198242 7.192988872528076 11.24789810180664 L7.192988872528076 11.24789810180664 M15.775997161865234 15.632542610168457 C15.81275463104248 15.634697914123535 15.857452392578125 15.699932098388672 15.832154273986816 15.720010757446289 C15.742870330810547 15.790915489196777 15.66708755493164 15.887687683105469 15.60230827331543 15.975723266601562 C15.578938484191895 16.007373809814453 15.518016815185547 15.960067749023438 15.515634536743164 15.914007186889648 C15.621821403503418 15.87747573852539 15.707701683044434 15.774693489074707 15.714394569396973 15.667144775390625 C15.715529441833496 15.650580406188965 15.763858795166016 15.63186264038086 15.775997161865234 15.632542610168457 L15.775997161865234 15.632542610168457 M14.744302749633789 17.062551498413086 C14.787753105163574 17.030332565307617 14.847766876220703 17.055519104003906 14.8740873336792 17.109859466552734 C14.95248031616211 17.10838508605957 15.010337829589844 17.18065071105957 14.990711212158203 17.261653900146484 C14.890763282775879 17.243389129638672 14.79172420501709 17.223194122314453 14.737608909606934 17.16851234436035 C14.704822540283203 17.135272979736328 14.717414855957031 17.08251953125 14.744302749633789 17.062551498413086 L14.744302749633789 17.062551498413086 M9.184905052185059 15.272686004638672 C9.168342590332031 15.22764778137207 9.241743087768555 15.213581085205078 9.239020347595215 15.259639739990234 C9.303685188293457 15.27257251739502 9.352128028869629 15.30649471282959 9.373115539550781 15.356637954711914 C9.395237922668457 15.409391403198242 9.382644653320312 15.47065258026123 9.342597961425781 15.522045135498047 A0.2742033898830414 0.2742033898830414 0.0 0 1 9.207935333251953 15.367414474487305 C9.201468467712402 15.348922729492188 9.191485404968262 15.290950775146484 9.184905052185059 15.272686004638672 L9.184905052185059 15.272686004638672 M6.188521862030029 19.881845474243164 C6.209963321685791 19.863239288330078 6.265893459320068 19.871179580688477 6.284839153289795 19.905441284179688 C6.313200950622559 19.956832885742188 6.283931255340576 20.016735076904297 6.232539653778076 20.033864974975586 C6.187500953674316 20.048839569091797 6.148587703704834 20.005502700805664 6.153693199157715 19.957401275634766 C6.156075477600098 19.933917999267578 6.157777309417725 19.90827751159668 6.188521862030029 19.881845474243164 M8.616305351257324 5.3373799324035645 C8.671781539916992 5.31162691116333 8.742572784423828 5.311853885650635 8.778308868408203 5.35031270980835 C8.807578086853027 5.38173770904541 8.782279014587402 5.425755500793457 8.74540901184082 5.429726600646973 A0.12082193791866302 0.12082193791866302 0.0 0 1 8.616305351257324 5.3373799324035645 M15.44393539428711 15.519662857055664 C15.43531322479248 15.50207805633545 15.44393539428711 15.42788314819336 15.44393539428711 15.404513359069824 L15.552051544189453 15.404513359069824 C15.558517456054688 15.455791473388672 15.546492576599121 15.512968063354492 15.503835678100586 15.541784286499023 C15.489314079284668 15.551654815673828 15.454032897949219 15.540535926818848 15.44393539428711 15.519662857055664 L15.44393539428711 15.519662857055664 M8.220826148986816 5.12409782409668 C8.198817253112793 5.0820088386535645 8.270856857299805 5.047974109649658 8.313399314880371 5.0767903327941895 C8.350383758544922 5.101748943328857 8.349702835083008 5.162102699279785 8.29422664642334 5.16505241394043 C8.276982307434082 5.165846824645996 8.234553337097168 5.1500773429870605 8.220826148986816 5.12409782409668 L8.220826148986816 5.12409782409668 M8.616305351257324 5.3373799324035645 C8.569677352905273 5.361771106719971 8.501495361328125 5.340443134307861 8.503311157226562 5.283492088317871 C8.504332542419434 5.249344348907471 8.57274055480957 5.255129814147949 8.599174499511719 5.294610023498535 C8.604393005371094 5.302210807800293 8.612447738647461 5.327509880065918 8.616305351257324 5.3373799324035645 M15.181190490722656 15.281989097595215 C15.205127716064453 15.270870208740234 15.242679595947266 15.26905632019043 15.24143123626709 15.285846710205078 C15.237119674682617 15.340527534484863 15.179601669311523 15.375471115112305 15.145907402038574 15.352099418640137 C15.121176719665527 15.335195541381836 15.149425506591797 15.296509742736816 15.181190490722656 15.281989097595215 L15.181190490722656 15.281989097595215 M10.191755294799805 9.369996070861816 C10.172922134399414 9.338003158569336 10.2084321975708 9.302608489990234 10.24065113067627 9.321213722229004 C10.271282196044922 9.339024543762207 10.292383193969727 9.379071235656738 10.27071475982666 9.400286674499512 C10.249500274658203 9.42104721069336 10.209567070007324 9.400286674499512 10.191755294799805 9.369996070861816" fill="black" fill-opacity="1.0" filling="0"/></svg>