<?xml version="1.0" encoding="iso-8859-1"?><svg height="200px" viewBox="0.0 0.0 24.0 24.0" width="200px" xmlns="http://www.w3.org/2000/svg"><path animation_id="0" d="M0.0 0.0 L24.0 0.0 L24.0 24.0 L0.0 24.0 L0.0 0.0" fill="black" fill-opacity="1.0" filling="0"/>
<path animation_id="1" d="M1.0588302612304688 13.157940864562988 L22.94116973876953 13.157940864562988 L22.94116973876953 14.211418151855469 L1.0588302612304688 14.211418151855469 L1.0588302612304688 13.157940864562988" fill="black" fill-opacity="1.0" filling="0"/>
<path animation_id="2" d="M22.929466247558594 14.211418151855469 L21.968624114990234 13.25057601928711 L22.94116973876953 13.25057601928711 L22.94116973876953 9.788581848144531 L2.4019174575805664 9.788581848144531 L2.4019174575805664 13.25057601928711 L10.309656143188477 13.25057601928711 L11.283571243286133 14.211418151855469 L12.011579513549805 14.211418151855469 L11.050613403320312 13.25057601928711 L12.13895320892334 13.25057601928711 L13.106393814086914 14.211418151855469 L13.829297065734863 14.211418151855469 L12.868330955505371 13.25057601928711 L13.956795692443848 13.25057601928711 L14.924111366271973 14.211418151855469 L15.655357360839844 14.211418151855469 L14.68604850769043 13.25057601928711 L15.774264335632324 13.25057601928711 L16.741952896118164 14.211418151855469 L17.472949981689453 14.211418151855469 L16.503890991210938 13.25057601928711 L17.592105865478516 13.25057601928711 L18.559547424316406 14.211418151855469 L19.290794372558594 14.211418151855469 L18.32160758972168 13.25057601928711 L19.409950256347656 13.25057601928711 L20.38386344909668 14.211418151855469 L21.111997604370117 14.211418151855469 L20.15090560913086 13.25057601928711 L21.239120483398438 13.25057601928711 L22.206811904907227 14.211418151855469 L22.929466247558594 14.211418151855469 L22.929466247558594 14.211418151855469" fill="black" fill-opacity="1.0" filling="0"/>
<path animation_id="3" d="M12.127249717712402 14.211418151855469 L12.127249717712402 9.788581848144531 L1.0588302612304688 9.788581848144531 L1.0588302612304688 14.211418151855469 L12.127249717712402 14.211418151855469 L12.127249717712402 14.211418151855469 M14.118782043457031 10.795990943908691 L14.026147842407227 10.946398735046387 C13.852456092834473 10.84230899810791 13.748490333557129 10.795990943908691 13.597957611083984 10.795990943908691 C13.377824783325195 10.795990943908691 13.238996505737305 10.911785125732422 13.238996505737305 11.08547592163086 C13.238996505737305 11.235883712768555 13.331631660461426 11.31706428527832 13.540061950683594 11.374961853027344 L13.736786842346191 11.444437980651855 C13.899022102355957 11.490756034851074 13.97995376586914 11.537073135375977 14.04930591583252 11.618128776550293 C14.130486488342285 11.69918441772461 14.165349006652832 11.81497859954834 14.165349006652832 11.93077278137207 C14.165349006652832 12.09276008605957 14.084168434143066 12.254996299743652 13.922182083129883 12.358962059020996 C13.806387901306152 12.428563117980957 13.690717697143555 12.463300704956055 13.528481483459473 12.463300704956055 C13.320053100585938 12.463300704956055 13.134781837463379 12.417107582092285 12.961091041564941 12.301064491271973 L13.053726196289062 12.139078140258789 C13.204258918762207 12.243167877197266 13.343087196350098 12.289609909057617 13.52835750579834 12.289609909057617 C13.655731201171875 12.289609909057617 13.736786842346191 12.266450881958008 13.806262969970703 12.208678245544434 C13.887194633483887 12.15078067779541 13.933387756347656 12.069601058959961 13.933387756347656 11.965510368347168 C13.933387756347656 11.803400039672852 13.829297065734863 11.69918441772461 13.620868682861328 11.629708290100098 L13.43559741973877 11.583266258239746 C13.273611068725586 11.525369644165039 13.19243049621582 11.490631103515625 13.123078346252441 11.421278953552246 C13.053476333618164 11.34022331237793 13.007284164428711 11.24746322631836 13.007284164428711 11.131793975830078 C13.007284164428711 10.830853462219238 13.238748550415039 10.634003639221191 13.586005210876465 10.634003639221191 C13.771400451660156 10.633878707885742 13.956795692443848 10.680072784423828 14.118782043457031 10.795990943908691 L14.118782043457031 10.795990943908691 M15.612401008605957 12.173691749572754 L15.69333267211914 12.30081558227539 A0.634999692440033 0.634999692440033 0.0 0 1 15.265143394470215 12.463051795959473 C14.906182289123535 12.463051795959473 14.686174392700195 12.196725845336914 14.686174392700195 11.779991149902344 C14.686174392700195 11.559983253479004 14.73261547088623 11.421154022216797 14.848409652709961 11.293656349182129 C14.952500343322754 11.177862167358398 15.079873085021973 11.119964599609375 15.230405807495117 11.119964599609375 C15.369234085083008 11.119964599609375 15.485027313232422 11.166282653808594 15.57766342163086 11.258918762207031 C15.693456649780273 11.36313247680664 15.71649169921875 11.490507125854492 15.728195190429688 11.791446685791016 L15.728195190429688 11.82618522644043 L14.91763687133789 11.82618522644043 L14.91763687133789 11.849468231201172 C14.91763687133789 11.976716995239258 14.941044807434082 12.069352149963379 14.987237930297852 12.13895320892334 C15.056838989257812 12.243043899536133 15.172508239746094 12.289485931396484 15.29975700378418 12.289485931396484 C15.427006721496582 12.289485931396484 15.53134536743164 12.25474739074707 15.612401008605957 12.173691749572754 L15.612401008605957 12.173691749572754 M14.91763687133789 11.675777435302734 L15.508062362670898 11.675777435302734 C15.508062362670898 11.536823272705078 15.484903335571289 11.444189071655273 15.450164794921875 11.38629150390625 C15.403972625732422 11.316815376281738 15.323040962219238 11.27049732208252 15.218701362609863 11.27049732208252 C15.033306121826172 11.270621299743652 14.929216384887695 11.409575462341309 14.91763687133789 11.675777435302734 L14.91763687133789 11.675777435302734 M16.307165145874023 11.166407585144043 L16.503890991210938 11.120089530944824 C16.503890991210938 11.120089530944824 16.55008316040039 11.212724685668945 16.55008316040039 11.328518867492676 C16.642719268798828 11.189566612243652 16.770217895507812 11.108510971069336 16.909046173095703 11.108510971069336 C16.943784713745117 11.108510971069336 16.978647232055664 11.120089530944824 16.978647232055664 11.120089530944824 L16.897716522216797 11.340099334716797 C16.886011123657227 11.340099334716797 16.86297607421875 11.328518867492676 16.83981704711914 11.328518867492676 C16.758638381958008 11.328518867492676 16.677581787109375 11.36325740814209 16.619686126708984 11.421154022216797 C16.56178855895996 11.47905158996582 16.55008316040039 11.52524471282959 16.55008316040039 11.629583358764648 L16.55008316040039 12.428438186645508 L16.35335922241211 12.428438186645508 L16.35335922241211 11.444313049316406 C16.35335922241211 11.259042739868164 16.307165145874023 11.166407585144043 16.307165145874023 11.166407585144043 L16.307165145874023 11.166407585144043 M17.268007278442383 11.154827117919922 L17.464982986450195 11.120089530944824 L17.765798568725586 12.0 C17.800535202026367 12.104214668273926 17.835397720336914 12.220008850097656 17.835397720336914 12.220008850097656 C17.835397720336914 12.220008850097656 17.858556747436523 12.115918159484863 17.893295288085938 12.0 L18.194360733032227 11.154827117919922 L18.402790069580078 11.154827117919922 L17.928157806396484 12.440017700195312 L17.731433868408203 12.440017700195312 L17.268007278442383 11.154827117919922 L17.268007278442383 11.154827117919922 M18.92348861694336 11.154827117919922 L19.131919860839844 11.120089530944824 L19.131919860839844 12.428314208984375 L18.92348861694336 12.428314208984375 L18.92348861694336 11.154827117919922 M19.039531707763672 10.599016189575195 C19.12046241760254 10.599016189575195 19.189815521240234 10.668493270874023 19.189815521240234 10.74954891204834 C19.189815521240234 10.842184066772461 19.12046241760254 10.911661148071289 19.039531707763672 10.911661148071289 C18.946895599365234 10.911661148071289 18.877296447753906 10.842184066772461 18.877296447753906 10.761128425598145 C18.877296447753906 10.668493270874023 18.946895599365234 10.599016189575195 19.039531707763672 10.599016189575195 M20.63724136352539 11.259042739868164 L20.532901763916016 11.397994995117188 C20.440265655517578 11.31706428527832 20.382369995117188 11.293781280517578 20.27828025817871 11.293781280517578 C20.185644149780273 11.293781280517578 20.08130645751953 11.351677894592285 20.035112380981445 11.432733535766602 C19.988670349121094 11.525369644165039 19.965511322021484 11.664321899414062 19.965511322021484 11.849592208862305 C19.965511322021484 12.139078140258789 20.08130645751953 12.300939559936523 20.28973388671875 12.300939559936523 C20.394073486328125 12.300939559936523 20.486709594726562 12.25474739074707 20.556060791015625 12.16211223602295 L20.672103881835938 12.289485931396484 C20.556060791015625 12.405280113220215 20.440391540527344 12.463176727294922 20.278404235839844 12.463176727294922 C20.0931339263916 12.463176727294922 19.96563720703125 12.393575668334961 19.873001098632812 12.266450881958008 C19.780364990234375 12.139078140258789 19.74587631225586 12.0 19.74587631225586 11.81485366821289 C19.74587631225586 11.525369644165039 19.826807022094727 11.374961853027344 19.942602157592773 11.270747184753418 C20.035236358642578 11.166531562805176 20.151031494140625 11.120213508605957 20.289857864379883 11.120213508605957 C20.451969146728516 11.120089530944824 20.544605255126953 11.177987098693848 20.63724136352539 11.259042739868164 L20.63724136352539 11.259042739868164 M22.061384201049805 12.173691749572754 L22.142314910888672 12.30081558227539 C22.026521682739258 12.405155181884766 21.875988006591797 12.463051795959473 21.702421188354492 12.463051795959473 C21.354915618896484 12.463051795959473 21.135032653808594 12.196725845336914 21.135032653808594 11.779991149902344 C21.135032653808594 11.559983253479004 21.181224822998047 11.421154022216797 21.285564422607422 11.293656349182129 C21.389652252197266 11.177862167358398 21.517026901245117 11.119964599609375 21.679264068603516 11.119964599609375 C21.818092346191406 11.119964599609375 21.93388557434082 11.166282653808594 22.026521682739258 11.258918762207031 C22.130611419677734 11.36313247680664 22.165348052978516 11.490507125854492 22.165348052978516 11.791446685791016 L22.165348052978516 11.82618522644043 L21.366493225097656 11.82618522644043 L21.366493225097656 11.849468231201172 C21.366493225097656 11.976716995239258 21.37820053100586 12.069352149963379 21.424392700195312 12.13895320892334 C21.49399185180664 12.243043899536133 21.62136459350586 12.289485931396484 21.748615264892578 12.289485931396484 C21.875988006591797 12.289485931396484 21.968624114990234 12.25474739074707 22.061384201049805 12.173691749572754 L22.061384201049805 12.173691749572754 M21.366493225097656 11.675777435302734 L21.956920623779297 11.675777435302734 C21.956920623779297 11.536823272705078 21.933761596679688 11.444189071655273 21.899023056030273 11.38629150390625 C21.852828979492188 11.316815376281738 21.760194778442383 11.27049732208252 21.667558670043945 11.27049732208252 C21.482288360595703 11.270621299743652 21.37820053100586 11.409575462341309 21.366493225097656 11.675777435302734 L21.366493225097656 11.675777435302734" fill="black" fill-opacity="1.0" filling="0"/>
<path animation_id="4" d="M3.3744630813598633 12.49791431427002 L3.224055290222168 12.220008850097656 C3.096682548522949 12.0 3.0156259536743164 11.884330749511719 2.911412239074707 11.780116081237793 C2.8766727447509766 11.745377540588379 2.8535146713256836 11.733798027038574 2.79561710357666 11.722219467163086 L2.79561710357666 12.49791431427002 L2.506132125854492 12.49791431427002 L2.506132125854492 10.714810371398926 L3.0503644943237305 10.714810371398926 C3.4555187225341797 10.714810371398926 3.6292104721069336 10.946398735046387 3.6292104721069336 11.224305152893066 C3.6292104721069336 11.50208568572998 3.4555187225341797 11.710515022277832 3.189192771911621 11.710515022277832 C3.258669853210449 11.745253562927246 3.3744630813598633 11.918944358825684 3.4670982360839844 12.069352149963379 L3.7334251403808594 12.497790336608887 L3.3744630813598633 12.497790336608887 L3.3744630813598633 12.49791431427002 L3.3744630813598633 12.49791431427002 M2.7954931259155273 10.957978248596191 L2.7954931259155273 11.513665199279785 L2.946025848388672 11.513665199279785 C3.1081361770629883 11.513665199279785 3.189192771911621 11.50208568572998 3.246964454650879 11.444189071655273 C3.293283462524414 11.397871017456055 3.3280200958251953 11.316939353942871 3.3280200958251953 11.224180221557617 C3.3280200958251953 11.050488471984863 3.2239303588867188 10.957854270935059 2.95760440826416 10.957854270935059 L2.7954931259155273 10.957854270935059 L2.7954931259155273 10.957978248596191 L2.7954931259155273 10.957978248596191 M4.184896945953369 11.606300354003906 C4.184896945953369 11.015874862670898 4.485961437225342 10.691652297973633 4.925854682922363 10.691652297973633 C5.4353485107421875 10.691652297973633 5.678391456604004 11.08535099029541 5.678391456604004 11.606300354003906 C5.678391456604004 12.1619873046875 5.412065029144287 12.52094841003418 4.949013710021973 12.52094841003418 C4.4396443367004395 12.52094841003418 4.184896945953369 12.13895320892334 4.184896945953369 11.606300354003906 M5.342713356018066 11.629583358764648 C5.342713356018066 11.189566612243652 5.250078201293945 10.923240661621094 4.925854682922363 10.923240661621094 C4.624914646148682 10.923240661621094 4.520699501037598 11.166407585144043 4.520699501037598 11.583141326904297 C4.520699501037598 12.046318054199219 4.636493682861328 12.300939559936523 4.93743371963501 12.300939559936523 C5.203760147094727 12.300939559936523 5.342713356018066 12.104214668273926 5.342713356018066 11.629583358764648 L5.342713356018066 11.629583358764648 M7.21832799911499 12.49791431427002 L7.067795753479004 12.023283958435059 L6.488950252532959 12.023283958435059 L6.349997043609619 12.49791431427002 L6.037353038787842 12.49791431427002 L6.627902507781982 10.714810371398926 L6.963705539703369 10.714810371398926 L7.542551040649414 12.49791431427002 L7.21832799911499 12.49791431427002 L7.21832799911499 12.49791431427002 M6.789890289306641 11.027454376220703 C6.789890289306641 11.027454376220703 6.604619026184082 11.664321899414062 6.55830192565918 11.779991149902344 L6.998319149017334 11.779991149902344 C6.986739635467529 11.745377540588379 6.801469326019287 11.096931457519531 6.789890289306641 11.027454376220703 M9.093942642211914 12.243043899536133 C8.943534851074219 12.440017700195312 8.79300308227539 12.49791431427002 8.457200050354004 12.49791431427002 L8.017182350158691 12.49791431427002 L8.017182350158691 10.714810371398926 L8.387722969055176 10.714810371398926 C8.723401069641113 10.714810371398926 8.920251846313477 10.784411430358887 9.093942642211914 10.96955680847168 C9.221315383911133 11.120089530944824 9.290793418884277 11.340099334716797 9.290793418884277 11.606300354003906 C9.290793418884277 11.88420581817627 9.221315383911133 12.092511177062988 9.093942642211914 12.243043899536133 L9.093942642211914 12.243043899536133 M8.839195251464844 11.108510971069336 C8.758140563964844 10.992716789245605 8.665504455566406 10.946398735046387 8.503393173217773 10.946398735046387 L8.318246841430664 10.946398735046387 L8.318246841430664 12.25474739074707 L8.514972686767578 12.25474739074707 C8.827616691589355 12.25474739074707 8.954989433288574 12.046318054199219 8.954989433288574 11.64116382598877 C8.954989433288574 11.409575462341309 8.931831359863281 11.235883712768555 8.839195251464844 11.108510971069336 L8.839195251464844 11.108510971069336 M10.34439468383789 12.532652854919434 A1.1483533382415771 1.1483533382415771 0.0 0 1 9.765548706054688 12.370416641235352 L9.869762420654297 12.13895320892334 C10.031874656677246 12.231588363647461 10.17082691192627 12.289485931396484 10.356098175048828 12.289485931396484 C10.576107025146484 12.289485931396484 10.703479766845703 12.18514633178711 10.703479766845703 12.011579513549805 C10.703479766845703 11.872751235961914 10.622425079345703 11.791571617126465 10.437153816223145 11.745377540588379 L10.251882553100586 11.687479972839355 C10.08977222442627 11.64116382598877 9.973978042602539 11.571686744689941 9.904500961303711 11.47905158996582 C9.858183860778809 11.409575462341309 9.8350248336792 11.316939353942871 9.8350248336792 11.212724685668945 C9.8350248336792 10.900205612182617 10.078192710876465 10.691776275634766 10.437028884887695 10.691776275634766 C10.645459175109863 10.691776275634766 10.842184066772461 10.749672889709473 11.004295349121094 10.853887557983398 L10.86534309387207 11.06231689453125 C10.703230857849121 10.969681739807129 10.58756160736084 10.934943199157715 10.448484420776367 10.934943199157715 C10.27479362487793 10.934943199157715 10.1589994430542 11.027579307556152 10.1589994430542 11.17811107635498 C10.1589994430542 11.282325744628906 10.216896057128906 11.34022331237793 10.39058780670166 11.386540412902832 L10.599016189575195 11.45601749420166 C10.86534309387207 11.525493621826172 11.038908958435059 11.687605857849121 11.038908958435059 11.95393180847168 C11.039034843444824 12.25474739074707 10.807446479797363 12.532652854919434 10.34439468383789 12.532652854919434 L10.34439468383789 12.532652854919434" fill="black" fill-opacity="1.0" filling="0"/></svg>