<?xml version="1.0" encoding="iso-8859-1"?><svg height="200px" viewBox="0.0 0.0 24.0 24.0" width="200px" xmlns="http://www.w3.org/2000/svg"><path animation_id="0" d="M0.0 4.39994478225708 L24.0 4.39994478225708 L24.0 19.600055694580078 L0.0 19.600055694580078 L0.0 4.39994478225708" fill="black" fill-opacity="1.0" filling="0"/>
<path animation_id="1" d="M0.0 4.407944679260254 L23.992000579833984 4.407944679260254 L23.992000579833984 5.959944725036621 L0.0 5.959944725036621 L0.0 4.407944679260254 M0.0 18.047945022583008 L23.992000579833984 18.047945022583008 L23.992000579833984 19.600055694580078 L0.0 19.600055694580078 L0.0 18.047945022583008 L0.0 18.047945022583008" fill="black" fill-opacity="1.0" filling="0"/>
<path animation_id="2" d="M12.0 7.311944484710693 C14.583999633789062 7.311944484710693 16.696001052856445 9.415945053100586 16.696001052856445 11.999944686889648 C16.696001052856445 14.575944900512695 14.583999633789062 16.679832458496094 12.0 16.679832458496094 C9.432000160217285 16.679832458496094 7.319999694824219 14.575833320617676 7.319999694824219 11.999944686889648 C7.319999694824219 9.415945053100586 9.432000160217285 7.311944484710693 12.0 7.311944484710693 L12.0 7.311944484710693" fill="black" fill-opacity="1.0" filling="0"/>
<path animation_id="3" d="M9.15999984741211 9.135944366455078 C10.72800064086914 7.5679450035095215 13.279999732971191 7.5679450035095215 14.84811019897461 9.135944366455078 C16.424110412597656 10.711944580078125 16.424110412597656 13.263833999633789 14.84811019897461 14.832056045532227 C13.279999732971191 16.408056259155273 10.72800064086914 16.408056259155273 9.15999984741211 14.832056045532227 C7.5839996337890625 13.263833999633789 7.5839996337890625 10.711944580078125 9.15999984741211 9.135944366455078 L9.15999984741211 9.135944366455078" fill="black" fill-opacity="1.0" filling="0"/>
<path animation_id="4" d="M15.343998908996582 13.70394515991211 C15.392000198364258 13.951945304870605 14.447999954223633 13.967833518981934 14.168000221252441 13.896055221557617 C13.51200008392334 13.72005558013916 12.887999534606934 14.207944869995117 12.128110885620117 14.159944534301758 C11.376111030578613 14.12005615234375 11.06399917602539 13.824055671691895 10.632111549377441 13.824055671691895 C10.248111724853516 13.824055671691895 9.264110565185547 14.07205581665039 8.896111488342285 13.944056510925293 C8.448110580444336 13.735944747924805 9.296111106872559 13.360055923461914 9.536110877990723 13.319944381713867 C11.32800006866455 13.023833274841309 15.280000686645508 13.255833625793457 15.343998908996582 13.70394515991211" fill="black" fill-opacity="1.0" filling="0"/>
<path animation_id="5" d="M11.007999420166016 10.127944946289062 C11.191999435424805 10.127944946289062 11.967999458312988 10.071945190429688 11.967999458312988 9.783945083618164 C11.535999298095703 9.783945083618164 11.055999755859375 9.599945068359375 10.607999801635742 9.719944953918457 C10.5600004196167 9.719944953918457 10.504000663757324 9.783945083618164 10.455999374389648 9.783945083618164 C10.640000343322754 10.00794506072998 10.799999237060547 10.127944946289062 11.007999420166016 10.127944946289062 L11.007999420166016 10.127944946289062 M11.911999702453613 10.5439453125 C11.62399959564209 10.415945053100586 10.871999740600586 10.223944664001465 10.871999740600586 10.855944633483887 C11.303999900817871 10.975944519042969 11.48799991607666 10.63194465637207 11.855999946594238 10.63194465637207 C11.855999946594238 10.599945068359375 11.887999534606934 10.567944526672363 11.911999702453613 10.5439453125 M12.711999893188477 10.695944786071777 C12.887999534606934 10.67994499206543 13.079999923706055 10.70394515991211 13.144110679626465 10.79194450378418 C13.144110679626465 10.951944351196289 12.383889198303223 11.111945152282715 12.192111015319824 10.887944221496582 C12.271888732910156 10.671944618225098 12.488110542297363 10.687944412231445 12.711999893188477 10.695944786071777 L12.711999893188477 10.695944786071777 M12.711999893188477 10.5439453125 L12.944000244140625 10.591944694519043 C13.256111145019531 10.63194465637207 13.496110916137695 10.479945182800293 13.711999893188477 10.359944343566895 C13.343999862670898 10.351944923400879 12.960110664367676 10.071945190429688 12.711999893188477 10.5439453125 M12.112000465393066 10.351944923400879 C12.248111724853516 10.415945053100586 12.808000564575195 10.567944526672363 12.86400032043457 10.263944625854492 L12.86400032043457 10.192055702209473 C12.86400032043457 10.128055572509766 12.616222381591797 10.07205581665039 12.567999839782715 10.07205581665039 C12.567999839782715 10.008055686950684 12.544111251831055 9.944055557250977 12.51200008392334 9.912055969238281 C12.352110862731934 10.040056228637695 12.144110679626465 10.07205581665039 12.01611042022705 10.224056243896484 C12.06399917602539 10.287944793701172 12.144110679626465 10.3279447555542 12.112000465393066 10.351944923400879 L12.112000465393066 10.351944923400879 M12.992000579833984 10.127944946289062 C13.256111145019531 10.071945190429688 13.527999877929688 9.719944953918457 13.792110443115234 9.719944953918457 C13.927999496459961 9.023944854736328 12.887999534606934 9.343944549560547 12.679889678955078 9.439833641052246 C12.592000007629395 9.463833808898926 12.464000701904297 9.719944953918457 12.48799991607666 9.815834045410156 C12.567889213562012 10.071945190429688 12.86388874053955 10.00794506072998 12.992000579833984 10.127944946289062 L12.992000579833984 10.127944946289062 M12.383889198303223 8.959944725036621 C12.488110542297363 8.959944725036621 13.184000015258789 8.871944427490234 13.0958890914917 9.14394474029541 C13.015999794006348 9.463944435119629 12.592000007629395 9.30394458770752 12.544000625610352 9.11994457244873 C12.544000625610352 9.047945022583008 12.327888488769531 9.023944854736328 12.383889198303223 8.959944725036621 M11.32800006866455 9.343944549560547 C11.35200023651123 9.463944435119629 12.0 9.399944305419922 12.079999923706055 9.399944305419922 C12.168000221252441 9.399944305419922 12.296000480651855 9.367944717407227 12.343889236450195 9.343944549560547 C12.343889236450195 8.871944427490234 11.623888969421387 8.895944595336914 11.407888412475586 9.023944854736328 C11.32800006866455 9.103944778442383 11.279999732971191 9.223944664001465 11.32800006866455 9.343944549560547 M10.95199966430664 9.11994457244873 C10.768000602722168 9.11994457244873 10.079999923706055 9.087944984436035 10.184000015258789 9.527944564819336 C10.24000072479248 9.751944541931152 11.095999717712402 9.559944152832031 11.191999435424805 9.49594497680664 C11.399999618530273 9.399944305419922 11.06399917602539 9.11994457244873 10.95199966430664 9.11994457244873" fill="black" fill-opacity="1.0" filling="0"/>
<path animation_id="6" d="M11.687999725341797 11.239944458007812 C11.616000175476074 10.951944351196289 12.007999420166016 10.70394515991211 11.967999458312988 10.479945182800293 C11.944000244140625 10.3279447555542 11.592000007629395 10.231945037841797 11.520000457763672 10.135944366455078 C11.567999839782715 10.135944366455078 11.656000137329102 10.071945190429688 11.680000305175781 10.071945190429688 C11.75999927520752 10.159944534301758 11.86400032043457 10.231945037841797 11.967999458312988 10.287944793701172 C12.055999755859375 9.855944633483887 12.079999923706055 9.735944747924805 12.039999961853027 9.399944305419922 L12.144110679626465 9.399944305419922 C12.168000221252441 9.615944862365723 12.112000465393066 10.175945281982422 12.223999977111816 10.60794448852539 L12.576000213623047 10.391944885253906 L12.62399959564209 10.455945014953613 C12.384222030639648 10.639945030212402 11.992111206054688 10.799944877624512 12.168000221252441 11.239944458007812 L11.687999725341797 11.239944458007812 L11.687999725341797 11.239944458007812" fill="black" fill-opacity="1.0" filling="0"/>
<path animation_id="7" d="M10.343999862670898 14.488056182861328 C10.824000358581543 14.360055923461914 11.696000099182129 14.76805591583252 12.095999717712402 14.76805591583252 C12.631999969482422 14.76805591583252 13.080111503601074 14.424056053161621 13.9041109085083 14.424056053161621 C13.927999496459961 14.343944549560547 14.008111000061035 14.207944869995117 14.008111000061035 14.136055946350098 C12.992000579833984 14.240055084228516 12.704111099243164 14.503944396972656 12.120111465454102 14.503944396972656 C11.552111625671387 14.503944396972656 11.096111297607422 14.207944869995117 10.240111351013184 14.207944869995117 L10.343999862670898 14.488056182861328" fill="black" fill-opacity="1.0" filling="0"/>
<path animation_id="8" d="M11.191999435424805 14.567944526672363 C11.104000091552734 14.648056030273438 11.168000221252441 14.743945121765137 11.231999397277832 14.832056045532227 C11.423999786376953 14.983943939208984 11.656000137329102 14.96005630493164 11.84000015258789 14.96005630493164 C11.904000282287598 14.871944427490234 11.815999984741211 14.735834121704102 11.72800064086914 14.70394515991211 L11.191999435424805 14.567944526672363 L11.191999435424805 14.567944526672363 M13.184000015258789 14.527944564819336 C13.271888732910156 14.599945068359375 13.208110809326172 14.695944786071777 13.151888847351074 14.791833877563477 C12.95199966430664 14.943944931030273 12.728111267089844 14.91983413696289 12.544000625610352 14.91983413696289 C12.472000122070312 14.831944465637207 12.560111045837402 14.695834159851074 12.656000137329102 14.663944244384766 L13.184000015258789 14.527944564819336 L13.184000015258789 14.527944564819336" fill="black" fill-opacity="1.0" filling="0"/>
<path animation_id="9" d="M10.48799991607666 11.487944602966309 C10.631999969482422 11.70394515991211 10.680000305175781 12.199832916259766 10.680000305175781 12.70394515991211 C10.696000099182129 13.127944946289062 10.751999855041504 13.21583366394043 10.751999855041504 13.51994514465332 C10.640000343322754 13.551833152770996 10.583999633789062 13.559833526611328 10.455999374389648 13.536055564880371 C10.455999374389648 13.375944137573242 10.312000274658203 12.936055183410645 10.392000198364258 12.807944297790527 C10.256000518798828 12.615833282470703 10.231999397277832 12.248056411743164 10.215999603271484 12.008055686950684 C10.200000762939453 12.271944999694824 10.072000503540039 12.607833862304688 10.0 12.847833633422852 C9.95199966430664 13.016056060791016 9.97599983215332 13.27994441986084 9.984000205993652 13.455944061279297 C9.824000358581543 13.511944770812988 9.791999816894531 13.463944435119629 9.67199993133545 13.36805534362793 C9.720000267028809 13.023833274841309 9.616000175476074 12.81594467163086 9.751999855041504 12.63194465637207 C9.72800064086914 12.12005615234375 9.75999927520752 11.63194465637207 9.84000015258789 11.511944770812988 L10.48799991607666 11.487944602966309 L10.48799991607666 11.487944602966309" fill="black" fill-opacity="1.0" filling="0"/>
<path animation_id="10" d="M10.824000358581543 11.239944458007812 L13.175999641418457 11.231945037841797 L13.184000015258789 13.056056022644043 C13.079999923706055 13.656055450439453 12.44011116027832 13.76805591583252 12.039999961853027 13.98405647277832 C11.62399959564209 13.752056121826172 10.911999702453613 13.600167274475098 10.815999984741211 13.1361665725708 L10.824000358581543 11.239944458007812 L10.824000358581543 11.239944458007812" fill="black" fill-opacity="1.0" filling="0"/>
<path animation_id="11" d="M11.992000579833984 12.527944564819336 L10.904000282287598 13.319833755493164 C11.15999984741211 13.671833038330078 11.67199993133545 13.7679443359375 12.032000541687012 13.983943939208984 C12.39988899230957 13.783833503723145 12.86388874053955 13.679944038391113 13.079999923706055 13.335945129394531 L11.992000579833984 12.527944564819336" fill="black" fill-opacity="1.0" filling="0"/>
<path animation_id="12" d="M10.815999984741211 11.247944831848145 L10.815999984741211 13.136055946350098 C10.831999778747559 13.207834243774414 10.86400032043457 13.271944999694824 10.904000282287598 13.3279447555542 L12.0 12.536055564880371 L12.0 11.247944831848145 L10.815999984741211 11.247944831848145" fill="black" fill-opacity="1.0" filling="0"/>
<path animation_id="13" d="M9.312000274658203 10.895944595336914 C9.432000160217285 10.799944877624512 9.296000480651855 10.67994499206543 9.263999938964844 10.719944953918457 C9.208000183105469 10.719944953918457 9.151999473571777 10.743945121765137 9.144000053405762 10.807945251464844 C9.095999717712402 10.831944465637207 9.119999885559082 10.903944969177246 9.168000221252441 10.92794418334961 C9.263999938964844 11.09594440460205 9.407999992370605 11.239944458007812 9.5600004196167 11.295944213867188 C9.631999969482422 11.271944999694824 9.64799976348877 11.271944999694824 9.687999725341797 11.247944831848145 C9.72800064086914 11.21594524383545 9.768000602722168 11.127944946289062 9.776000022888184 11.039944648742676 C9.75999927520752 11.191944122314453 9.831999778747559 11.311944961547852 9.848000526428223 11.511944770812988 L10.48799991607666 11.487944602966309 C10.447999954223633 11.175945281982422 10.5600004196167 11.023944854736328 10.504000663757324 10.943944931030273 C10.616000175476074 11.103944778442383 10.687999725341797 11.231945037841797 10.815999984741211 11.295944213867188 L10.815999984741211 11.239944458007812 L11.04800033569336 11.239944458007812 C10.824000358581543 11.151945114135742 10.848000526428223 11.063944816589355 10.743999481201172 10.991944313049316 C10.680000305175781 10.951944351196289 10.751999855041504 10.567944526672363 10.576000213623047 10.439945220947266 C10.504000663757324 10.343944549560547 10.383999824523926 10.407944679260254 10.303999900817871 10.375945091247559 C10.312000274658203 10.191944122314453 10.4399995803833 10.135944366455078 10.392000198364258 9.951944351196289 C10.184000015258789 9.695944786071777 10.06399917602539 9.743945121765137 9.95199966430664 9.879944801330566 C9.927999496459961 9.879944801330566 9.911999702453613 9.919944763183594 9.904000282287598 9.975944519042969 C9.88788890838623 10.103944778442383 9.895999908447266 10.191944122314453 9.927999496459961 10.287944793701172 C10.02400016784668 10.359944343566895 10.007999420166016 10.25594425201416 10.015999794006348 10.391944885253906 C9.848000526428223 10.423944473266602 9.703999519348145 10.359944343566895 9.640000343322754 10.551944732666016 C9.576000213623047 10.647944450378418 9.631999969482422 10.919944763183594 9.5600004196167 11.079944610595703 C9.479999542236328 11.079944610595703 9.343999862670898 10.951944351196289 9.312000274658203 10.895944595336914 L9.312000274658203 10.895944595336914" fill="black" fill-opacity="1.0" filling="0"/>
<path animation_id="14" d="M9.904000282287598 11.063944816589355 C10.015999794006348 11.079944610595703 10.063888549804688 11.14394474029541 10.128000259399414 11.09594440460205 C10.215999603271484 11.14394474029541 10.231999397277832 11.055944442749023 10.35200023651123 11.055944442749023 C10.359999656677246 11.287944793701172 10.368000030517578 11.503944396972656 10.151999473571777 11.487944602966309 C9.95199966430664 11.51994514465332 9.880000114440918 11.287944793701172 9.904000282287598 11.063944816589355 L9.904000282287598 11.063944816589355" fill="black" fill-opacity="1.0" filling="0"/>
<path animation_id="15" d="M9.696000099182129 13.391944885253906 C9.696000099182129 13.408055305480957 9.680000305175781 13.488056182861328 9.703999519348145 13.536055564880371 C9.84000015258789 13.600055694580078 9.831999778747559 13.776056289672852 10.007999420166016 13.751944541931152 C10.151999473571777 13.727832794189453 10.072000503540039 13.567944526672363 9.984000205993652 13.463944435119629 C9.808000564575195 13.503944396972656 9.808000564575195 13.455944061279297 9.696000099182129 13.391944885253906 L9.696000099182129 13.391944885253906 M10.464000701904297 13.536055564880371 C10.479999542236328 13.592055320739746 10.423999786376953 13.648056030273438 10.527999877929688 13.695944786071777 C10.616000175476074 13.712055206298828 10.687999725341797 13.751944541931152 10.72800064086914 13.791833877563477 C10.86400032043457 13.896055221557617 11.072000503540039 13.727832794189453 10.855999946594238 13.623833656311035 C10.808000564575195 13.615833282470703 10.784000396728516 13.543944358825684 10.75999927520752 13.5198335647583 C10.687999725341797 13.544055938720703 10.583999633789062 13.551833152770996 10.464000701904297 13.536055564880371 L10.464000701904297 13.536055564880371 M9.895999908447266 9.991944313049316 C9.920000076293945 9.975944519042969 9.93600082397461 9.967945098876953 9.95199966430664 9.951944351196289 C9.960000038146973 9.951944351196289 9.967999458312988 9.9839448928833 9.984000205993652 9.9839448928833 C9.944000244140625 10.031944274902344 10.079999923706055 10.031944274902344 10.128000259399414 10.031944274902344 C10.088000297546387 10.015944480895996 10.02400016784668 9.959944725036621 10.06399917602539 9.967945098876953 C10.095999717712402 9.999944686889648 10.15999984741211 10.016056060791016 10.208000183105469 9.991944313049316 C10.208000183105469 10.00794506072998 10.263999938964844 10.063944816589355 10.231999397277832 10.111945152282715 C10.279999732971191 10.127944946289062 10.248000144958496 10.159944534301758 10.296000480651855 10.151945114135742 C10.32800006866455 10.231945037841797 10.319999694824219 10.191944122314453 10.32800006866455 10.287944793701172 C10.359999656677246 10.447944641113281 10.392000198364258 10.183944702148438 10.407999992370605 10.135944366455078 C10.423999786376953 10.071945190429688 10.416000366210938 9.839944839477539 10.312000274658203 9.839944839477539 C10.184000015258789 9.687944412231445 10.112000465393066 9.751944541931152 10.007999420166016 9.799944877624512 C9.984000205993652 9.839944839477539 9.880000114440918 9.871944427490234 9.895999908447266 9.991944313049316 L9.895999908447266 9.991944313049316" fill="black" fill-opacity="1.0" filling="0"/>
<path animation_id="16" d="M13.080111503601074 9.70394515991211 L15.327889442443848 11.111945152282715 C15.391887664794922 11.151945114135742 15.519999504089355 11.015944480895996 15.48799991607666 11.175945281982422 C15.48799991607666 11.175945281982422 15.423999786376953 11.359944343566895 15.368000030517578 11.335945129394531 C15.279888153076172 11.30394458770752 15.351889610290527 11.239944458007812 15.312000274658203 11.21594524383545 L12.935888290405273 9.92794418334961 C12.703999519348145 9.799944877624512 12.880000114440918 9.583944320678711 13.080111503601074 9.70394515991211 L13.080111503601074 9.70394515991211" fill="black" fill-opacity="1.0" filling="0"/>
<path animation_id="17" d="M14.368000030517578 11.855944633483887 C14.37600040435791 11.639945030212402 14.384111404418945 11.71994400024414 14.39988899230957 11.591944694519043 C14.432000160217285 11.431944847106934 14.455888748168945 11.359944343566895 14.471888542175293 11.159944534301758 C14.591888427734375 11.247944831848145 14.607999801635742 11.447944641113281 14.767888069152832 11.511944770812988 C14.927778244018555 11.399944305419922 15.135890007019043 11.271944999694824 15.256000518798828 11.159944534301758 C15.351889610290527 10.951944351196289 15.095890045166016 10.887944221496582 15.095890045166016 10.887944221496582 C15.055999755859375 10.879944801330566 14.88800048828125 10.975944519042969 14.975889205932617 11.14394474029541 L14.784000396728516 11.199944496154785 C14.69588851928711 11.111945152282715 14.59999942779541 10.60794448852539 14.368000030517578 10.591944694519043 L14.175889015197754 10.5439453125 C14.29588794708252 10.199944496154785 14.415888786315918 9.959944725036621 13.879888534545898 9.959944725036621 C13.567777633666992 10.079944610595703 13.69588851928711 10.399944305419922 13.79977798461914 10.527944564819336 C13.607889175415039 10.63205623626709 13.791999816894531 10.544055938720703 13.511777877807617 10.599945068359375 C13.383999824523926 10.623944282531738 13.383999824523926 10.831944465637207 13.255888938903809 10.999944686889648 C13.127888679504395 11.175945281982422 12.77588939666748 11.151945114135742 12.58377742767334 11.239944458007812 L13.175777435302734 11.239944458007812 L13.183777809143066 11.375945091247559 C13.367777824401855 11.30394458770752 13.391666412353516 11.223944664001465 13.487777709960938 11.151945114135742 L13.559778213500977 11.559945106506348 L13.559778213500977 11.855944633483887 L14.368000030517578 11.855944633483887 L14.368000030517578 11.855944633483887" fill="black" fill-opacity="1.0" filling="0"/>
<path animation_id="18" d="M14.416000366210938 13.63194465637207 C14.312000274658203 13.791833877563477 14.416000366210938 13.776056289672852 14.368000030517578 13.96005630493164 C14.327889442443848 14.064055442810059 14.111888885498047 14.07205581665039 14.06399917602539 13.967833518981934 C14.015999794006348 13.855833053588867 14.031888961791992 13.72005558013916 14.080111503601074 13.63194465637207 C14.168000221252441 13.671833038330078 14.312111854553223 13.70394515991211 14.416000366210938 13.63194465637207 M13.711999893188477 13.615833282470703 C13.703999519348145 13.687833786010742 13.711999893188477 13.70394515991211 13.64799976348877 13.823945045471191 C13.488110542297363 13.823945045471191 13.447888374328613 13.92794418334961 13.327888488769531 13.895944595336914 C13.13599967956543 13.879833221435547 13.13599967956543 13.951945304870605 13.159889221191406 13.879833221435547 C13.175999641418457 13.70383358001709 13.327888488769531 13.639833450317383 13.39988899230957 13.61572265625 L13.711999893188477 13.61572265625 L13.711999893188477 13.615833282470703 L13.711999893188477 13.615833282470703 M13.86388874053955 10.071945190429688 C13.895999908447266 10.135944366455078 14.031888961791992 10.223944664001465 14.0958890914917 10.191944122314453 C14.08811092376709 10.183944702148438 14.04788875579834 10.127944946289062 14.04788875579834 10.103944778442383 C14.055889129638672 10.103944778442383 14.103888511657715 10.151945114135742 14.119889259338379 10.151945114135742 C14.103777885437012 10.103944778442383 14.127888679504395 10.087944984436035 14.159778594970703 10.111945152282715 C14.207777976989746 10.159944534301758 14.207777976989746 10.263944625854492 14.239888191223145 10.359944343566895 C14.37600040435791 10.223944664001465 14.327777862548828 10.071945190429688 14.18388843536377 9.9839448928833 C14.088000297546387 9.935944557189941 13.951889038085938 9.911945343017578 13.839888572692871 9.951944351196289 C13.695777893066406 10.015944480895996 13.623777389526367 10.16794490814209 13.703777313232422 10.367944717407227 C13.727889060974121 10.3279447555542 13.751777648925781 10.231945037841797 13.751777648925781 10.175833702087402 C13.77588939666748 10.175833702087402 13.82377815246582 10.183834075927734 13.847888946533203 10.183834075927734 C13.807888984680176 10.111945152282715 13.807888984680176 10.063944816589355 13.86388874053955 10.071945190429688 L13.86388874053955 10.071945190429688" fill="black" fill-opacity="1.0" filling="0"/>
<path animation_id="19" d="M14.368000030517578 11.847944259643555 C14.407889366149902 11.935944557189941 14.455888748168945 12.119945526123047 14.432000160217285 12.287944793701172 C14.39988899230957 12.759944915771484 14.368000030517578 13.183944702148438 14.415888786315918 13.43183422088623 C14.463889122009277 13.687945365905762 14.359889030456543 13.735834121704102 14.175889015197754 13.664055824279785 C13.855777740478516 13.647945404052734 14.04788875579834 12.567944526672363 13.967999458312988 12.38394546508789 C13.647889137268066 12.760055541992188 13.720000267028809 13.176055908203125 13.720000267028809 13.615944862365723 L13.343889236450195 13.60794448852539 C13.312000274658203 13.375944137573242 13.383999824523926 13.048055648803711 13.39988899230957 12.79194450378418 C13.407888412475586 12.431944847106934 13.4399995803833 12.079944610595703 13.5600004196167 11.848055839538574 L14.368000030517578 11.848055839538574 L14.368000030517578 11.847944259643555 L14.368000030517578 11.847944259643555" fill="black" fill-opacity="1.0" filling="0"/>
<path animation_id="20" d="M13.98388957977295 12.447944641113281 C13.967999458312988 12.343944549560547 13.912111282348633 12.16794490814209 13.944000244140625 12.064055442810059 C13.960110664367676 12.039944648742676 14.031888961791992 11.975944519042969 14.04800033569336 12.000056266784668 C14.072111129760742 12.008055686950684 14.055999755859375 12.224056243896484 14.072111129760742 12.288055419921875 C14.104000091552734 12.439945220947266 14.095999717712402 12.656055450439453 13.992000579833984 12.776166915893555 C13.992000579833984 12.671833038330078 13.992000579833984 12.51994514465332 13.98388957977295 12.447944641113281 L13.98388957977295 12.447944641113281" fill="black" fill-opacity="1.0" filling="0"/>
<path animation_id="21" d="M13.696000099182129 11.399944305419922 C13.815999984741211 11.407944679260254 13.920000076293945 11.375945091247559 13.97599983215332 11.311944961547852 C14.039999961853027 11.383944511413574 14.13611125946045 11.423944473266602 14.264223098754883 11.423944473266602 C14.232111930847168 11.551944732666016 14.192222595214844 11.743945121765137 13.960222244262695 11.751944541931152 C13.768000602722168 11.727945327758789 13.720000267028809 11.551944732666016 13.696000099182129 11.399944305419922 L13.696000099182129 11.399944305419922" fill="black" fill-opacity="1.0" filling="0"/>
<path animation_id="22" d="M11.48799991607666 13.687945365905762 C11.552000045776367 13.656055450439453 11.600000381469727 13.592055320739746 11.663999557495117 13.583944320678711 C11.72800064086914 13.575833320617676 11.784000396728516 13.63194465637207 11.84000015258789 13.63194465637207 C11.920000076293945 13.63194465637207 11.992000579833984 13.592055320739746 12.055999755859375 13.592055320739746 C12.119999885559082 13.592055320739746 12.184000015258789 13.640056610107422 12.248000144958496 13.63194465637207 C12.319999694824219 13.63194465637207 12.37600040435791 13.583944320678711 12.44011116027832 13.592055320739746 C12.503889083862305 13.600055694580078 12.544111251831055 13.648056030273438 12.600000381469727 13.679944038391113 C12.544000625610352 13.664055824279785 12.48799991607666 13.640056610107422 12.423999786376953 13.640056610107422 C12.359999656677246 13.640056610107422 12.312000274658203 13.688055992126465 12.248000144958496 13.688055992126465 C12.175999641418457 13.68005657196045 12.119999885559082 13.632055282592773 12.055999755859375 13.632055282592773 C11.992000579833984 13.632055282592773 11.919888496398926 13.671944618225098 11.847888946533203 13.671944618225098 C11.783888816833496 13.679944038391113 11.727889060974121 13.640056610107422 11.67188835144043 13.640056610107422 C11.607999801635742 13.639945030212402 11.552000045776367 13.664055824279785 11.48799991607666 13.687945365905762 L11.48799991607666 13.687945365905762" fill="black" fill-opacity="1.0" filling="0"/>
<path animation_id="23" d="M12.208110809326172 12.776056289672852 C12.271888732910156 12.76805591583252 12.327888488769531 12.855944633483887 12.399999618530273 12.88005542755127 C12.343999862670898 12.911945343017578 12.256111145019531 12.824055671691895 12.208110809326172 12.903944969177246 L12.208110809326172 12.776056289672852 L12.208110809326172 12.776056289672852 M12.02400016784668 12.687945365905762 C12.055999755859375 12.727832794189453 12.159889221191406 12.687945365905762 12.167888641357422 12.751944541931152 C12.111888885498047 12.72005558013916 12.079889297485352 12.81594467163086 12.02400016784668 12.823945045471191 L12.02400016784668 12.687945365905762 L12.02400016784668 12.687945365905762 M11.799999237060547 12.847833633422852 C11.84000015258789 12.7679443359375 11.887999534606934 12.823945045471191 11.960000038146973 12.791833877563477 C11.880000114440918 12.7679443359375 11.880000114440918 12.695944786071777 11.799999237060547 12.727832794189453 L11.799999237060547 12.847833633422852" fill="black" fill-opacity="1.0" filling="0"/>
<path animation_id="24" d="M11.368000030517578 13.360055923461914 C11.680000305175781 13.455944061279297 12.151888847351074 13.528056144714355 12.552111625671387 13.464056015014648 C12.535999298095703 13.512056350708008 12.496110916137695 13.576055526733398 12.44011116027832 13.592055320739746 C12.359999656677246 13.60794448852539 11.711999893188477 13.63194465637207 11.583999633789062 13.575944900512695 C11.51200008392334 13.544055938720703 11.4399995803833 13.43183422088623 11.368000030517578 13.360055923461914 L11.368000030517578 13.360055923461914" fill="black" fill-opacity="1.0" filling="0"/>
<path animation_id="25" d="M11.784000396728516 12.712055206298828 L11.784000396728516 12.871944427490234 M12.0 12.679944038391113 L12.0 12.888055801391602 M12.192111015319824 12.735834121704102 L12.192111015319824 12.935944557189941" fill="none" filling="0" stroke="black" stroke-opacity="1.0" stroke-width=".3"/>
<path animation_id="26" d="M11.663999557495117 12.879944801330566 C11.72800064086914 12.855833053588867 11.799999237060547 12.855833053588867 11.855999946594238 12.879944801330566 C11.84000015258789 12.935944557189941 11.831999778747559 13.016056060791016 11.848000526428223 13.055944442749023 C11.791999816894531 13.07205581665039 11.720000267028809 13.079833984375 11.656000137329102 13.055944442749023 C11.64799976348877 13.008055686950684 11.64799976348877 12.92794418334961 11.663999557495117 12.879944801330566 M11.656000137329102 13.07205581665039 A0.7702222466468811 0.7702222466468811 0.0 0 1 11.848000526428223 13.07205581665039 C11.831999778747559 13.128055572509766 11.824000358581543 13.199832916259766 11.848000526428223 13.255833625793457 C11.784000396728516 13.255833625793457 11.72800064086914 13.263833999633789 11.656000137329102 13.255833625793457 C11.640000343322754 13.207834243774414 11.64799976348877 13.119945526123047 11.656000137329102 13.07205581665039 M11.656000137329102 13.263833999633789 C11.720000267028809 13.255833625793457 11.791999816894531 13.263833999633789 11.848000526428223 13.263833999633789 C11.831999778747559 13.30394458770752 11.848000526428223 13.43183422088623 11.855999946594238 13.463944435119629 C11.799999237060547 13.455944061279297 11.736000061035156 13.439833641052246 11.663999557495117 13.43183422088623 C11.64799976348877 13.391944885253906 11.640000343322754 13.304056167602539 11.656000137329102 13.263833999633789 M11.927999496459961 12.903834342956543 C11.992000579833984 12.871944427490234 12.04800033569336 12.871944427490234 12.104000091552734 12.903834342956543 C12.06399917602539 12.952055931091309 12.072000503540039 13.039944648742676 12.088000297546387 13.079833984375 C12.031888961791992 13.09594440460205 11.967888832092285 13.103944778442383 11.911999702453613 13.079833984375 C11.887999534606934 13.008055686950684 11.887999534606934 12.96005630493164 11.927999496459961 12.903834342956543 M11.920000076293945 13.103944778442383 C11.984000205993652 13.09594440460205 12.032000541687012 13.087833404541016 12.095999717712402 13.103944778442383 C12.056110382080078 13.16794490814209 12.056110382080078 13.223944664001465 12.08811092376709 13.27994441986084 C12.032000541687012 13.304056167602539 11.984000205993652 13.304056167602539 11.912111282348633 13.27994441986084 C11.887999534606934 13.21594524383545 11.880000114440918 13.159944534301758 11.920000076293945 13.103944778442383 M11.911999702453613 13.295945167541504 C11.967999458312988 13.287944793701172 12.032000541687012 13.295945167541504 12.088000297546387 13.295945167541504 C12.07188892364502 13.335833549499512 12.079999923706055 13.455833435058594 12.0958890914917 13.488056182861328 C12.031888961791992 13.480055809020996 11.98388957977295 13.463944435119629 11.919888496398926 13.463944435119629 C11.904000282287598 13.424056053161621 11.895999908447266 13.335945129394531 11.911999702453613 13.295945167541504 M11.64799976348877 13.039944648742676 C11.616000175476074 13.111944198608398 11.631999969482422 13.3279447555542 11.656000137329102 13.399944305419922 C11.583999633789062 13.391944885253906 11.4399995803833 13.360055923461914 11.368000030517578 13.343944549560547 C11.504000663757324 13.27994441986084 11.544000625610352 13.079833984375 11.64799976348877 13.039944648742676 L11.64799976348877 13.039944648742676 M12.343999862670898 13.192055702209473 C12.383889198303223 13.16794490814209 12.407999992370605 13.09594440460205 12.432110786437988 13.064055442810059 C12.407999992370605 13.176055908203125 12.552111625671387 13.288055419921875 12.567999839782715 13.399944305419922 C12.536110877990723 13.407944679260254 12.392000198364258 13.488056182861328 12.336000442504883 13.471944808959961 L12.343999862670898 13.192055702209473 L12.343999862670898 13.192055702209473 M12.144110679626465 12.935944557189941 C12.208110809326172 12.911833763122559 12.279999732971191 12.91983413696289 12.336000442504883 12.935944557189941 C12.320110321044922 12.991945266723633 12.320110321044922 13.047945022583008 12.336000442504883 13.087833404541016 C12.279999732971191 13.095833778381348 12.208222389221191 13.103944778442383 12.144110679626465 13.087833404541016 A0.48366668820381165 0.48366668820381165 0.0 0 1 12.144110679626465 12.935944557189941 M12.144110679626465 13.103944778442383 C12.208110809326172 13.087833404541016 12.279999732971191 13.087833404541016 12.336000442504883 13.103944778442383 C12.320110321044922 13.151944160461426 12.312110900878906 13.18405532836914 12.336000442504883 13.240055084228516 A0.7693333029747009 0.7693333029747009 0.0 0 1 12.144110679626465 13.240055084228516 C12.128000259399414 13.192055702209473 12.13611125946045 13.14383316040039 12.144110679626465 13.103944778442383 M12.144110679626465 13.248056411743164 C12.215888977050781 13.248056411743164 12.271888732910156 13.240055084228516 12.336000442504883 13.248056411743164 C12.320110321044922 13.287944793701172 12.32800006866455 13.343944549560547 12.336000442504883 13.375833511352539 C12.279999732971191 13.391944885253906 12.223999977111816 13.391944885253906 12.144110679626465 13.375833511352539 C12.128000259399414 13.335945129394531 12.128000259399414 13.27994441986084 12.144110679626465 13.248056411743164 M12.144110679626465 13.383833885192871 C12.208110809326172 13.375833511352539 12.279999732971191 13.383833885192871 12.336000442504883 13.383833885192871 C12.320110321044922 13.43183422088623 12.320110321044922 13.439833641052246 12.336000442504883 13.471944808959961 C12.27199935913086 13.488056182861328 12.208222389221191 13.479945182800293 12.144110679626465 13.471944808959961 C12.128000259399414 13.43183422088623 12.128000259399414 13.424056053161621 12.144110679626465 13.383833885192871" fill="black" fill-opacity="1.0" filling="0"/>
<path animation_id="27" d="M12.960110664367676 11.679944038391113 L12.455999374389648 12.360055923461914 L12.104000091552734 12.360055923461914 L12.112000465393066 12.439833641052246 L12.496110916137695 12.447944641113281 L13.04800033569336 11.687945365905762 L12.86388874053955 11.311944961547852 L12.799888610839844 11.383944511413574 L12.960110664367676 11.679944038391113 L12.960110664367676 11.679944038391113" fill="black" fill-opacity="1.0" filling="0"/>
<path animation_id="28" d="M11.64799976348877 12.480055809020996 L10.95199966430664 11.58405590057373 C10.831999778747559 11.424056053161621 11.015999794006348 11.352055549621582 11.079999923706055 11.488056182861328 L11.720000267028809 12.431944847106934 C11.93600082397461 12.383833885192871 11.583999633789062 12.687945365905762 11.64799976348877 12.480055809020996 L11.64799976348877 12.480055809020996" fill="black" fill-opacity="1.0" filling="0"/>
<path animation_id="29" d="M12.831999778747559 11.415945053100586 L12.159889221191406 12.351944923400879" fill="none" filling="0" stroke="black" stroke-opacity="1.0" stroke-width=".3"/>
<path animation_id="30" d="M12.279999732971191 11.463944435119629 L13.055999755859375 12.439833641052246 C13.112000465393066 12.511834144592285 13.072111129760742 12.559833526611328 12.992000579833984 12.479945182800293 L12.208110809326172 11.511944770812988 L12.279999732971191 11.463944435119629 L12.279999732971191 11.463944435119629" fill="black" fill-opacity="1.0" filling="0"/>
<path animation_id="31" d="M12.032000541687012 11.687945365905762 L12.320110321044922 11.503944396972656 L12.423999786376953 11.623944282531738 L12.192111015319824 11.855944633483887 L12.032000541687012 11.687945365905762" fill="black" fill-opacity="1.0" filling="0"/>
<path animation_id="32" d="M11.680000305175781 11.51994514465332 L10.911999702453613 12.463944435119629 L11.0 12.527944564819336 L11.75999927520752 11.60794448852539 L11.680000305175781 11.51994514465332 L11.680000305175781 11.51994514465332" fill="black" fill-opacity="1.0" filling="0"/>
<path animation_id="33" d="M11.527999877929688 11.447944641113281 L11.855999946594238 11.711944580078125 L11.960000038146973 11.559945106506348 L11.75999927520752 11.407944679260254 L11.567999839782715 11.407944679260254 L11.527999877929688 11.447944641113281 L11.527999877929688 11.447944641113281" fill="black" fill-opacity="1.0" filling="0"/>
<path animation_id="34" d="M13.567889213562012 11.11994457244873 C13.69588851928711 11.207944869995117 13.855889320373535 11.207944869995117 13.98388957977295 11.127944946289062 C14.128000259399414 11.247944831848145 14.327889442443848 11.199944496154785 14.440000534057617 11.09594440460205" fill="none" filling="0" stroke="black" stroke-opacity="1.0" stroke-width=".3"/>
<path animation_id="35" d="M9.799999237060547 10.895944595336914 C9.84000015258789 10.951944351196289 10.032000541687012 10.951944351196289 10.104000091552734 10.887944221496582 C10.191999435424805 10.943944931030273 10.368000030517578 10.951944351196289 10.479999542236328 10.887944221496582 M9.631999969482422 10.671944618225098 L10.0 10.423944473266602" fill="none" filling="0" stroke="black" stroke-opacity="1.0" stroke-width=".3"/>
<path animation_id="36" d="M9.191999435424805 10.903944969177246 C9.208000183105469 10.863945007324219 9.184000015258789 10.81594467163086 9.13599967956543 10.823945045471191 L8.871999740600586 10.951944351196289 C8.824000358581543 11.023944854736328 8.911999702453613 11.087944984436035 8.960000038146973 11.071945190429688 L9.191999435424805 10.903944969177246 L9.191999435424805 10.903944969177246 M9.319999694824219 10.719944953918457 C9.359999656677246 10.751944541931152 9.359999656677246 10.775944709777832 9.368000030517578 10.81594467163086 L10.02400016784668 10.407944679260254 L10.015999794006348 10.335945129394531 L9.319999694824219 10.719944953918457 M10.407999992370605 10.127944946289062 L10.552000045776367 10.055944442749023 L10.583999633789062 10.103944778442383 L10.399999618530273 10.191944122314453 L10.407999992370605 10.127944946289062" fill="black" fill-opacity="1.0" filling="0"/>
<path animation_id="37" d="M10.5600004196167 10.11994457244873 L10.736000061035156 10.25594425201416 C10.743999481201172 10.311944961547852 10.631999969482422 10.431944847106934 10.567999839782715 10.431944847106934 C10.544000625610352 10.399944305419922 10.504000663757324 10.383944511413574 10.447999954223633 10.383944511413574 L10.447999954223633 10.16794490814209 L10.423999786376953 10.127944946289062 L10.520000457763672 10.071945190429688 L10.5600004196167 10.11994457244873 L10.5600004196167 10.11994457244873" fill="black" fill-opacity="1.0" filling="0"/>
<path animation_id="38" d="M10.791999816894531 11.25594425201416 C10.743999481201172 11.231945037841797 10.703999519348145 11.207944869995117 10.663999557495117 11.14394474029541 L10.479999542236328 10.903944969177246 L10.495999336242676 10.9839448928833 C10.51200008392334 11.079944610595703 10.472000122070312 11.191944122314453 10.464000701904297 11.295944213867188 M9.432000160217285 11.207944869995117 C9.472000122070312 11.247944831848145 9.51200008392334 11.271944999694824 9.567999839782715 11.287944793701172 C9.607999801635742 11.27994441986084 9.687999725341797 11.247944831848145 9.703999519348145 11.223944664001465 C9.751999855041504 11.14394474029541 9.776000022888184 11.00794506072998 9.784000396728516 10.919944763183594 A1.1564444303512573 1.1564444303512573 0.0 0 0 9.824000358581543 11.295944213867188 M10.039999961853027 10.3279447555542 L10.079999923706055 10.319944381713867 L10.191999435424805 10.247944831848145 L10.231999397277832 10.151945114135742" fill="none" filling="0" stroke="black" stroke-opacity="1.0" stroke-width=".3"/>
<path animation_id="39" d="M8.904000282287598 10.951944351196289 C8.927999496459961 10.951944351196289 8.960000038146973 11.00794506072998 8.960000038146973 11.039944648742676 L9.191999435424805 10.879944801330566 M10.67199993133545 10.239944458007812 C10.64799976348877 10.311944961547852 10.576000213623047 10.359944343566895 10.479999542236328 10.367944717407227" fill="none" filling="0" stroke="black" stroke-opacity="1.0" stroke-width=".3"/>
<path animation_id="40" d="M10.119999885559082 12.424056053161621 C10.175999641418457 12.27994441986084 10.191999435424805 12.14394474029541 10.215999603271484 12.000056266784668 C10.231999397277832 12.159944534301758 10.248000144958496 12.28005599975586 10.27199935913086 12.447944641113281 C10.27199935913086 12.312055587768555 10.288111686706543 12.16794490814209 10.288111686706543 12.03194522857666 L10.288111686706543 11.839944839477539 C10.184000015258789 11.943944931030273 10.248111724853516 11.903944969177246 10.160111427307129 11.967833518981934 A1.6679999828338623 1.6679999828338623 0.0 0 0 10.119999885559082 12.424056053161621 L10.119999885559082 12.424056053161621" fill="black" fill-opacity="1.0" filling="0"/>
<path animation_id="41" d="M13.383889198303223 16.095945358276367 C13.0958890914917 16.22394561767578 12.98388957977295 16.064056396484375 12.640000343322754 15.936055183410645 C12.887999534606934 15.656055450439453 12.927999496459961 15.47205638885498 13.208110809326172 15.439945220947266 C13.0241117477417 15.855944633483887 13.0241117477417 15.855944633483887 13.383889198303223 16.095945358276367 L13.383889198303223 16.095945358276367 M14.391887664794922 15.567944526672363 C14.144110679626465 15.76805591583252 13.991888999938965 15.648056030273438 13.639888763427734 15.607833862304688 C13.79977798461914 15.27994441986084 13.784000396728516 15.087833404541016 14.04788875579834 14.983943939208984 C13.98388957977295 15.439833641052246 13.98388957977295 15.439833641052246 14.391887664794922 15.567944526672363 M15.256110191345215 14.807944297790527 C15.072111129760742 15.07205581665039 14.896111488342285 14.991945266723633 14.544111251831055 15.047945022583008 C14.608112335205078 14.687945365905762 14.55211067199707 14.503944396972656 14.776111602783203 14.335945129394531 C14.832000732421875 14.783833503723145 14.832000732421875 14.783833503723145 15.256110191345215 14.807944297790527 M15.919889450073242 13.847833633422852 C15.80788803100586 14.14383316040039 15.616110801696777 14.119945526123047 15.296000480651855 14.263833999633789 C15.264110565185547 13.895944595336914 15.15988826751709 13.735834121704102 15.335887908935547 13.51994514465332 C15.503889083862305 13.935944557189941 15.503889083862305 13.935944557189941 15.919889450073242 13.847833633422852 L15.919889450073242 13.847833633422852 M16.288000106811523 12.671833038330078 C16.25611114501953 12.991945266723633 16.064001083374023 13.016056060791016 15.784111976623535 13.231945037841797 C15.656110763549805 12.896055221557617 15.519999504089355 12.7679443359375 15.631999969482422 12.511944770812988 C15.904109954833984 12.863945007324219 15.904109954833984 12.863945007324219 16.288000106811523 12.671833038330078 L16.288000106811523 12.671833038330078 M16.303998947143555 11.527944564819336 C16.360000610351562 11.839944839477539 16.18400001525879 11.911945343017578 15.968111038208008 12.18405532836914 C15.75200080871582 11.903944969177246 15.60011100769043 11.816056251525879 15.639999389648438 11.535944938659668 C15.983888626098633 11.807944297790527 15.983888626098633 11.807944297790527 16.303998947143555 11.527944564819336 M16.071998596191406 10.511944770812988 C16.207889556884766 10.79194450378418 16.047889709472656 10.903944969177246 15.919889450073242 11.239944458007812 C15.639888763427734 11.00794506072998 15.472000122070312 10.967945098876953 15.423999786376953 10.687944412231445 C15.84011173248291 10.863945007324219 15.84011173248291 10.863945007324219 16.071998596191406 10.511944770812988 L16.071998596191406 10.511944770812988 M15.567888259887695 9.535944938659668 C15.75999927520752 9.7679443359375 15.639888763427734 9.919944763183594 15.59999942779541 10.27994441986084 C15.271889686584473 10.127944946289062 15.095890045166016 10.127944946289062 14.983888626098633 9.871944427490234 C15.423999786376953 9.935944557189941 15.423999786376953 9.935944557189941 15.567888259887695 9.535944938659668 M14.784111976623535 8.67994499206543 C15.024110794067383 8.855944633483887 14.95211124420166 9.031944274902344 15.008111000061035 9.383944511413574 C14.648110389709473 9.3279447555542 14.480111122131348 9.383944511413574 14.30411148071289 9.159944534301758 C14.743889808654785 9.103944778442383 14.743889808654785 9.103944778442383 14.784111976623535 8.67994499206543 L14.784111976623535 8.67994499206543 M13.807888984680176 8.031944274902344 C14.088000297546387 8.14394474029541 14.06399917602539 8.319944381713867 14.207889556884766 8.65594482421875 C13.848111152648926 8.687944412231445 13.696000099182129 8.783945083618164 13.464000701904297 8.615944862365723 C13.880000114440918 8.447944641113281 13.880000114440918 8.447944641113281 13.807888984680176 8.031944274902344 M12.743888854980469 7.695944786071777 C13.04788875579834 7.735944747924805 13.072000503540039 7.919944763183594 13.296000480651855 8.199944496154785 C12.95199966430664 8.3279447555542 12.831999778747559 8.455945014953613 12.567889213562012 8.351944923400879 C12.927999496459961 8.087944984436035 12.927999496459961 8.087944984436035 12.743888854980469 7.695944786071777 L12.743888854980469 7.695944786071777 M11.592000007629395 7.695944786071777 C11.911999702453613 7.639944553375244 11.984000205993652 7.823945045471191 12.264110565185547 8.031944274902344 C11.967999458312988 8.239944458007812 11.887999534606934 8.407944679260254 11.592000007629395 8.375945091247559 C11.887999534606934 8.00794506072998 11.887999534606934 8.00794506072998 11.592000007629395 7.695944786071777 L11.592000007629395 7.695944786071777 M10.535999298095703 7.91194486618042 C10.81611156463623 7.783944606781006 10.93600082397461 7.943944454193115 11.27199935913086 8.063944816589355 C11.0241117477417 8.343944549560547 10.992000579833984 8.527944564819336 10.703999519348145 8.567944526672363 C10.887999534606934 8.14394474029541 10.887999534606934 8.14394474029541 10.535999298095703 7.91194486618042 M9.5600004196167 8.399944305419922 C9.808000564575195 8.199944496154785 9.95199966430664 8.319944381713867 10.312000274658203 8.359944343566895 C10.151999473571777 8.687944412231445 10.15999984741211 8.879944801330566 9.895999908447266 8.9839448928833 C9.960000038146973 8.527944564819336 9.960000038146973 8.527944564819336 9.5600004196167 8.399944305419922 M8.72800064086914 9.071945190429688 C8.911999702453613 8.81594467163086 9.095999717712402 8.887944221496582 9.447888374328613 8.831944465637207 C9.37600040435791 9.191944122314453 9.439888954162598 9.375945091247559 9.215888977050781 9.5439453125 C9.151999473571777 9.09594440460205 9.151999473571777 9.09594440460205 8.72800064086914 9.071945190429688 L8.72800064086914 9.071945190429688 M8.144000053405762 10.031944274902344 C8.256000518798828 9.735944747924805 8.447999954223633 9.759944915771484 8.776000022888184 9.615944862365723 C8.808000564575195 9.9839448928833 8.904000282287598 10.14394474029541 8.72800064086914 10.359944343566895 C8.5600004196167 9.943944931030273 8.5600004196167 9.943944931030273 8.144000053405762 10.031944274902344 M7.759999752044678 11.047945022583008 C7.791999816894531 10.735944747924805 7.984000205993652 10.711944580078125 8.263999938964844 10.487944602966309 C8.392000198364258 10.831944465637207 8.527999877929688 10.951944351196289 8.416000366210938 11.21594524383545 C8.144000053405762 10.855944633483887 8.144000053405762 10.855944633483887 7.759999752044678 11.047945022583008 M7.703999996185303 12.119945526123047 C7.648000240325928 11.823833465576172 7.831999778747559 11.751944541931152 8.039999961853027 11.463944435119629 C8.256000518798828 11.759944915771484 8.407999992370605 11.847944259643555 8.368000030517578 12.111944198608398 C8.02400016784668 11.847944259643555 8.02400016784668 11.847944259643555 7.703999996185303 12.119945526123047 M7.87999963760376 13.16794490814209 C7.751999855041504 12.879944801330566 7.904000282287598 12.7679443359375 8.039999961853027 12.439833641052246 C8.319999694824219 12.671833038330078 8.48799991607666 12.70394515991211 8.527999877929688 12.983833312988281 C8.119999885559082 12.81594467163086 8.119999885559082 12.81594467163086 7.87999963760376 13.16794490814209 M8.319999694824219 14.192055702209473 C8.119999885559082 13.96005630493164 8.231999397277832 13.807944297790527 8.279999732971191 13.455944061279297 C8.607999801635742 13.600055694580078 8.784000396728516 13.592055320739746 8.895999908447266 13.847833633422852 C8.455999374389648 13.791833877563477 8.455999374389648 13.791833877563477 8.319999694824219 14.192055702209473 M9.079999923706055 15.159944534301758 C8.831999778747559 14.983943939208984 8.904000282287598 14.807944297790527 8.855999946594238 14.447944641113281 C9.215999603271484 14.511944770812988 9.383999824523926 14.455944061279297 9.5600004196167 14.671944618225098 C9.119999885559082 14.735834121704102 9.119999885559082 14.735834121704102 9.079999923706055 15.159944534301758 M10.039999961853027 15.81594467163086 C9.75999927520752 15.70394515991211 9.784000396728516 15.51994514465332 9.640000343322754 15.192055702209473 C10.0 15.151944160461426 10.151888847351074 15.055944442749023 10.383999824523926 15.223944664001465 C9.967999458312988 15.391944885253906 9.967999458312988 15.391944885253906 10.039999961853027 15.81594467163086 L10.039999961853027 15.81594467163086 M11.06399917602539 16.159944534301758 C10.75999927520752 16.128055572509766 10.728111267089844 15.944056510925293 10.51200008392334 15.664055824279785 C10.855999946594238 15.536055564880371 10.97599983215332 15.399944305419922 11.231999397277832 15.511944770812988 C10.880000114440918 15.7679443359375 10.880000114440918 15.7679443359375 11.06399917602539 16.159944534301758 M12.223999977111816 16.295944213867188 C11.920000076293945 16.351943969726562 11.84000015258789 16.167945861816406 11.552111625671387 15.96005630493164 C11.864110946655273 15.759944915771484 11.944110870361328 15.583944320678711 12.223999977111816 15.623944282531738 C11.944000244140625 15.983943939208984 11.944000244140625 15.983943939208984 12.223999977111816 16.295944213867188" fill="black" fill-opacity="1.0" filling="0"/></svg>