<?xml version="1.0" encoding="iso-8859-1"?><svg height="200px" viewBox="0.0 0.0 24.0 24.0" width="200px" xmlns="http://www.w3.org/2000/svg"><path animation_id="0" d="M0.0 24.0 L24.0 24.0 L24.0 0.0 L0.0 0.0 L0.0 24.0" fill="black" fill-opacity="1.0" filling="0"/>
<path animation_id="1" d="M11.811616897583008 11.650128364562988 L11.155574798583984 11.74089527130127 L11.811616897583008 11.835149765014648 L11.545663833618164 12.29272174835205 L11.91583251953125 11.96625804901123 L11.989914894104004 12.659652709960938 L12.063873291015625 11.96625804901123 L12.55830192565918 12.474382400512695 L12.168211936950684 11.835149765014648 L12.702982902526855 11.737533569335938 L12.168211936950684 11.650128364562988 L12.430554389953613 11.195916175842285 L12.063873291015625 11.51889419555664 L11.989914894104004 10.398431777954102 L11.91583251953125 11.51889419555664 L11.55587387084961 11.219449043273926 L11.811616897583008 11.650128364562988 L11.811616897583008 11.650128364562988" fill="black" fill-opacity="1.0" filling="0"/>
<path animation_id="2" d="M8.914897918701172 10.973791122436523 L9.012514114379883 10.85600471496582 L7.327024936676025 10.85600471496582 L7.098300457000732 11.131917953491211 L7.098300457000732 10.539750099182129 L6.83583402633667 10.852767944335938 L5.96451473236084 10.852767944335938 L5.786216735839844 11.068044662475586 L5.786216735839844 10.85600471496582 L5.271493911743164 10.85600471496582 L4.396687984466553 11.90910816192627 L4.396687984466553 13.012762069702148 L4.817281723022461 12.508124351501465 L5.167154312133789 12.508124351501465 L5.167154312133789 12.696632385253906 L6.203324317932129 12.696632385253906 L6.203324317932129 12.363443374633789 L6.314387321472168 12.363443374633789 L6.475876808166504 12.174936294555664 L6.475876808166504 12.696507453918457 L7.098300457000732 12.696507453918457 L7.098300457000732 12.346386909484863 L7.653364658355713 13.012762069702148 L7.653364658355713 11.919318199157715 L7.5053229331970215 11.737533569335938 L7.579530715942383 11.643404006958008 L7.784598350524902 11.643404006958008 L7.784598350524902 12.696507453918457 L8.353109359741211 12.696507453918457 L8.353109359741211 13.012638092041016 L9.385918617248535 11.777874946594238 L9.385918617248535 12.696383476257324 L10.008342742919922 12.696383476257324 L10.008342742919922 12.363194465637207 L10.119405746459961 12.363194465637207 L10.48608684539795 11.932640075683594 L10.48608684539795 11.444686889648438 L10.984001159667969 10.852643013000488 C10.401917457580566 10.852643013000488 9.816597938537598 10.855880737304688 9.234514236450195 10.855880737304688 L9.022598266601562 11.108262062072754 L8.914897918701172 10.973791122436523 L8.914897918701172 10.973791122436523 M8.403535842895508 11.851958274841309 L8.403535842895508 11.586130142211914 L8.460811614990234 11.51889419555664 L8.564901351928711 11.656851768493652 L8.403535842895508 11.851958274841309 L8.403535842895508 11.851958274841309" fill="black" fill-opacity="1.0" filling="0"/>
<path animation_id="3" d="M8.52468490600586 12.501276016235352 L9.712257385253906 11.081491470336914 L9.301874160766602 11.081491470336914 L9.022598266601562 11.414555549621582 L8.723152160644531 11.051236152648926 L8.528170585632324 11.286684036254883 L8.814168930053711 11.660213470458984 L8.524808883666992 12.01693344116211 L8.524808883666992 12.501276016235352 L8.52468490600586 12.501276016235352 L8.52468490600586 12.501276016235352 M7.956172943115234 11.414555549621582 L7.956172943115234 12.467658996582031 L8.231961250305176 12.467658996582031 L8.231961250305176 11.414555549621582 L8.289236068725586 11.414555549621582 L8.568387031555176 11.081491470336914 L7.942725658416748 11.081491470336914 L7.663450241088867 11.414555549621582 L7.956172943115234 11.414555549621582 M6.926726341247559 11.650128364562988 L6.926726341247559 11.054597854614258 L6.647450923919678 11.38766098022461 L6.647450923919678 12.46778392791748 L6.926726341247559 12.46778392791748 L6.926726341247559 12.138081550598145 L7.051111698150635 11.986553192138672 L7.481790542602539 12.5014009475708 L7.481790542602539 12.020171165466309 L7.253066062927246 11.74089527130127 L7.771151542663574 11.081491470336914 L7.390898704528809 11.081491470336914 L6.926726341247559 11.650128364562988 L6.926726341247559 11.650128364562988 M5.338728904724121 11.081491470336914 L4.568262577056885 12.010085105895996 L4.568262577056885 12.501276016235352 L5.338728904724121 11.576044082641602 L5.338728904724121 11.942850112915039 L5.120090007781982 11.942850112915039 L4.840814590454102 12.282637596130371 L5.338728904724121 12.282637596130371 L5.338728904724121 12.467658996582031 L5.61464262008667 12.467658996582031 L5.61464262008667 11.081491470336914 L5.338728904724121 11.081491470336914 M6.731370449066162 11.081491470336914 L6.031625747680664 11.081491470336914 L5.755836486816406 11.414555549621582 L5.755836486816406 12.467658996582031 L6.031625747680664 12.467658996582031 L6.031625747680664 11.414555549621582 L6.294092178344727 11.414555549621582 L6.294092178344727 11.677021026611328 L6.193114757537842 11.801530838012695 L6.09562349319458 11.801530838012695 L6.09562349319458 12.134594917297363 L6.250389099121094 12.134594917297363 L6.509493827819824 11.828425407409668 L6.509493827819824 11.343958854675293 L6.731370449066162 11.081491470336914 L6.731370449066162 11.081491470336914 M10.533150672912598 11.081491470336914 L9.836767196655273 11.081491470336914 L9.557493209838867 11.414555549621582 L9.557493209838867 12.467658996582031 L9.836767196655273 12.467658996582031 L9.836767196655273 11.414555549621582 L10.099234580993652 11.414555549621582 L10.09587287902832 11.677021026611328 L9.994895935058594 11.801530838012695 L9.900641441345215 11.801530838012695 L9.900641441345215 12.134594917297363 L10.055407524108887 12.134594917297363 L10.314512252807617 11.828425407409668 L10.314512252807617 11.343958854675293 L10.533150672912598 11.081491470336914 L10.533150672912598 11.081491470336914" fill="black" fill-opacity="1.0" filling="0"/>
<path animation_id="4" d="M17.022846221923828 10.849281311035156 L17.022846221923828 10.539750099182129 L16.605615615844727 11.031064987182617 L16.605615615844727 10.849281311035156 L16.137956619262695 10.849281311035156 L15.91259479522705 11.115110397338867 L15.91259479522705 10.543111801147461 L15.65349006652832 10.849281311035156 L14.785531997680664 10.849281311035156 L14.51646614074707 11.162299156188965 L14.250638961791992 10.849281311035156 L13.40621280670166 10.849281311035156 L13.40621280670166 12.598892211914062 L15.02110481262207 12.598892211914062 L15.02110481262207 12.286124229431152 L15.12531852722168 12.286124229431152 L15.303742408752441 12.080806732177734 L15.303742408752441 12.898462295532227 L15.9967622756958 12.090767860412598 L15.9967622756958 12.598892211914062 L18.24740219116211 12.598892211914062 L18.24740219116211 11.549150466918945 L18.842805862426758 10.849281311035156 L17.022846221923828 10.849281311035156 L17.022846221923828 10.849281311035156" fill="black" fill-opacity="1.0" filling="0"/>
<path animation_id="5" d="M17.80999755859375 11.384299278259277 L17.80999755859375 12.376766204833984 L18.07582664489746 12.376766204833984 L18.07582664489746 11.384299278259277 L18.132976531982422 11.384299278259277 L18.398805618286133 11.071406364440918 L17.796550750732422 11.071406364440918 L17.530847549438477 11.384299278259277 L17.80999755859375 11.384299278259277 M16.851274490356445 11.565958976745605 L16.851274490356445 11.04115104675293 L16.585445404052734 11.354043960571289 L16.585445404052734 12.376766204833984 L16.851274490356445 12.376766204833984 L16.851274490356445 11.882213592529297 L17.19106101989746 11.882213592529297 L17.19106101989746 12.376766204833984 L17.456890106201172 12.376766204833984 L17.456890106201172 11.071406364440918 L17.19106101989746 11.071406364440918 L17.19106101989746 11.565958976745605 L16.851274490356445 11.565958976745605 L16.851274490356445 11.565958976745605 M15.475192070007324 11.357405662536621 L15.475192070007324 12.400299072265625 L16.168212890625 11.589366912841797 L16.168212890625 12.376766204833984 L16.433916091918945 12.376766204833984 L16.433916091918945 11.071406364440918 L16.20519256591797 11.071406364440918 L15.744380950927734 11.619871139526367 L15.744380950927734 11.044512748718262 L15.475192070007324 11.357405662536621 M15.522380828857422 11.071406364440918 L14.849530220031738 11.071406364440918 L14.583702087402344 11.384299278259277 L14.583702087402344 12.376766204833984 L14.849530220031738 12.376766204833984 L14.849530220031738 11.384299278259277 L15.101787567138672 11.384299278259277 L15.101787567138672 11.633318901062012 L15.00429630279541 11.747618675231934 L14.913403511047363 11.747618675231934 L14.913403511047363 12.063873291015625 L15.061446189880371 12.063873291015625 L15.310465812683105 11.774637222290039 L15.310465812683105 11.31706428527832 L15.522380828857422 11.071406364440918 L15.522380828857422 11.071406364440918 M14.186640739440918 11.071406364440918 L14.452467918395996 11.384299278259277 L14.452467918395996 12.376766204833984 L14.186640739440918 12.376766204833984 L14.186640739440918 11.384299278259277 L13.843491554260254 11.384299278259277 L13.843491554260254 12.376766204833984 L13.57766342163086 12.376766204833984 L13.57766342163086 11.071406364440918 L14.186640739440918 11.071406364440918 L14.186640739440918 11.071406364440918" fill="black" fill-opacity="1.0" filling="0"/>
<path animation_id="6" d="M0.3527364730834961 13.601444244384766 L23.647014617919922 13.601444244384766 L23.647014617919922 13.487144470214844 L0.3527364730834961 13.487144470214844 L0.3527364730834961 13.601444244384766" fill="black" fill-opacity="1.0" filling="0"/></svg>