<?xml version="1.0" encoding="iso-8859-1"?><svg height="200px" viewBox="0.0 0.0 24.0 24.0" width="200px" xmlns="http://www.w3.org/2000/svg"><path animation_id="0" d="M0.0 0.0 L24.0 0.0 L24.0 24.0 L0.0 24.0 L0.0 0.0" fill="black" fill-opacity="1.0" filling="0"/>
<path animation_id="1" d="M14.658407211303711 11.761190414428711 L13.379319190979004 11.761190414428711 C13.486770629882812 11.05173397064209 14.142563819885254 10.471269607543945 14.927224159240723 10.471269607543945 C15.206748962402344 10.471269607543945 15.389528274536133 10.514225006103516 15.625972747802734 10.632509231567383 C15.174376487731934 10.858245849609375 14.819523811340332 11.299010276794434 14.658407211303711 11.761190414428711 M14.92710018157959 10.27778148651123 C15.916080474853516 10.27778148651123 16.733112335205078 11.04102611541748 16.733112335205078 11.954678535461426 L16.733112335205078 11.965510368347168 L13.357778549194336 11.965510368347168 C13.368611335754395 12.83620834350586 14.121024131774902 13.373716354370117 14.851895332336426 13.34146785736084 C14.61545181274414 13.008155822753906 14.561664581298828 12.513727188110352 14.63686752319336 12.255743026733398 L17.109256744384766 12.255743026733398 C17.109256744384766 12.556683540344238 17.292037963867188 12.911535263061523 17.496109008789062 13.137147903442383 A34.28376007080078 34.28376007080078 0.0 0 1 16.292224884033203 12.900703430175781 C15.969744682312012 13.373716354370117 15.561227798461914 13.577912330627441 14.92697525024414 13.577912330627441 C13.938118934631348 13.577912330627441 13.131918907165527 12.87916374206543 13.131918907165527 11.954678535461426 C13.13204288482666 11.04102611541748 13.938118934631348 10.27778148651123 14.92710018157959 10.27778148651123 L14.92710018157959 10.27778148651123 M9.294404029846191 11.782731056213379 L7.929278373718262 11.782731056213379 C8.03672981262207 11.083982467651367 8.692523956298828 10.524932861328125 9.488016128540039 10.524932861328125 C9.767539978027344 10.524932861328125 10.036232948303223 10.600137710571289 10.261968612670898 10.71842098236084 C9.810371398925781 10.944157600402832 9.455643653869629 11.331258773803711 9.294404029846191 11.782731056213379 M9.487892150878906 10.310029983520508 C10.476747512817383 10.310029983520508 11.293781280517578 11.0624418258667 11.293781280517578 11.987051010131836 L11.293781280517578 11.997758865356445 L7.918446063995361 11.997758865356445 C7.918446063995361 12.868454933166504 8.746187210083008 13.470460891723633 9.487892150878906 13.448920249938965 C9.251447677612305 13.115607261657715 9.133038520812988 12.696383476257324 9.186952590942383 12.287991523742676 L11.756085395812988 12.287991523742676 L11.73466968536377 13.115607261657715 L10.982133865356445 12.922119140625 C10.659652709960938 13.384300231933594 10.122143745422363 13.674531936645508 9.488016128540039 13.674531936645508 C8.488327980041504 13.674531936645508 7.682126998901367 12.91141128540039 7.682126998901367 11.986927032470703 C7.682002544403076 11.0624418258667 8.488202095031738 10.310029983520508 9.487892150878906 10.310029983520508 M17.636058807373047 10.492685317993164 L20.44163703918457 10.492685317993164 L21.151092529296875 10.697006225585938 L18.861358642578125 10.697006225585938 L18.861358642578125 13.061819076538086 C18.904438018798828 13.158563613891602 18.93656349182129 13.201643943786621 18.979642868041992 13.287555694580078 C18.366806030273438 13.287555694580078 17.721843719482422 12.825250625610352 17.646642684936523 12.201830863952637 C17.61439323425293 11.997509956359863 17.635934829711914 11.761066436767578 17.635934829711914 11.556870460510254 L17.635934829711914 10.492685317993164 L17.636058807373047 10.492685317993164 M17.636058807373047 8.106331825256348 L18.861482620239258 8.37502384185791 L18.861482620239258 9.9658842086792 L20.2803955078125 9.9658842086792 L20.2803955078125 10.277656555175781 L17.636058807373047 10.277656555175781 L17.636058807373047 8.106331825256348 M5.252568244934082 10.524932861328125 C5.532092571258545 10.524932861328125 5.800784587860107 10.600137710571289 6.026520729064941 10.71842098236084 C5.39226770401001 11.040902137756348 4.951503753662109 11.675153732299805 4.951503753662109 12.384611129760742 C4.951503753662109 12.782295227050781 5.080495834350586 13.147730827331543 5.306356430053711 13.448795318603516 C4.467907428741455 13.470335006713867 3.6831226348876953 12.857623100280762 3.6831226348876953 11.986927032470703 C3.6832475662231445 11.191433906555176 4.381871700286865 10.524932861328125 5.252568244934082 10.524932861328125 L5.252568244934082 10.524932861328125 M4.865591526031494 7.117475509643555 L19.10863494873047 7.117475509643555 C21.538070678710938 7.117475509643555 23.645023345947266 9.09531307220459 23.645023345947266 11.5140380859375 C23.645023345947266 13.9219331741333 21.538070678710938 15.899893760681152 19.10863494873047 15.899893760681152 L4.865591526031494 15.899893760681152 C2.4361581802368164 15.899893760681152 0.35074424743652344 13.9219331741333 0.35074424743652344 11.5140380859375 C0.35074424743652344 9.09531307220459 2.4361581802368164 7.117475509643555 4.865591526031494 7.117475509643555 L4.865591526031494 7.117475509643555 M5.112868309020996 7.644151210784912 L18.8721923828125 7.590363502502441 C21.02210235595703 7.590363502502441 22.279647827148438 9.374836921691895 22.279647827148438 11.5140380859375 C22.279647827148438 12.126751899719238 22.16149139404297 12.728755950927734 21.92491912841797 13.244599342346191 L20.624290466308594 12.868454933166504 C20.237316131591797 13.29838752746582 19.646142959594727 13.491875648498535 18.92585563659668 13.502708435058594 C18.098114013671875 13.481168746948242 17.388656616210938 12.83620834350586 17.43161392211914 12.030007362365723 L17.43161392211914 8.052667617797852 L17.109132766723633 7.988047122955322 L17.109132766723633 10.439022064208984 C15.163419723510742 9.794061660766602 14.55070686340332 9.643528938293457 13.508062362670898 10.406773567199707 L13.508062362670898 8.353608131408691 L12.239557266235352 8.084915161132812 L12.239557266235352 13.620868682861328 L12.035237312316895 13.620868682861328 L12.035237312316895 8.041834831237793 L11.734296798706055 7.988047122955322 L11.734296798706055 10.352985382080078 C10.981759071350098 10.116540908813477 10.326090812683105 9.91222095489502 9.562847137451172 9.91222095489502 C9.014630317687988 9.91222095489502 8.702857971191406 10.062752723693848 8.219137191772461 10.385232925415039 C8.057897567749023 10.492685317993164 7.724584579467773 10.428189277648926 7.445184707641602 10.342277526855469 C7.1011643409729 10.234701156616211 6.101475715637207 9.998257637023926 5.811243534088135 9.998257637023926 L4.962087154388428 9.998257637023926 L4.962087154388428 8.299819946289062 L3.6829986572265625 7.945091247558594 L3.6829986572265625 11.169893264770508 C3.983938217163086 10.653800964355469 4.575234889984131 10.309905052185059 5.252318859100342 10.309905052185059 C6.252007961273193 10.309905052185059 7.058208465576172 11.06231689453125 7.058208465576172 11.986927032470703 C7.058208465576172 12.91141128540039 6.252007961273193 13.674531936645508 5.252318859100342 13.674531936645508 C4.263338565826416 13.674531936645508 3.4572620391845703 12.922119140625 3.446430206298828 12.008342742919922 L3.446430206298828 8.063251495361328 C3.919567108154297 7.794683456420898 4.478615760803223 7.6548590660095215 5.112868309020996 7.644151210784912 M21.11872100830078 14.427068710327148 C20.506134033203125 15.007533073425293 19.678390502929688 15.362261772155762 18.710948944091797 15.373093605041504 L5.32777214050293 15.4267578125 C3.1671552658081055 15.4267578125 1.6299562454223633 13.64240837097168 1.6299562454223633 11.5140380859375 C1.6299562454223633 10.138081550598145 2.178173065185547 8.944905281066895 3.134906768798828 8.256864547729492 L3.134906768798828 11.997634887695312 C3.134906768798828 13.319803237915039 4.328083515167236 13.868019104003906 5.317063808441162 13.964763641357422 C5.908360958099365 14.083047866821289 6.477993011474609 14.298076629638672 7.069165229797363 14.27653694152832 C7.660462379455566 14.254996299743652 8.111934661865234 14.093755722045898 8.713814735412598 13.749859809875488 C9.466226577758789 13.954180717468262 10.444499969482422 14.28724479675293 11.046380043029785 14.27653694152832 C11.605428695678711 14.265828132629395 12.164352416992188 14.093755722045898 12.62665843963623 13.69607162475586 C12.916765213012695 13.760567665100098 13.217829704284668 13.814231872558594 13.508062362670898 13.878852844238281 L13.508062362670898 13.448920249938965 C14.55070686340332 13.857312202453613 15.647263526916504 14.265953063964844 16.4426326751709 14.255120277404785 C17.066051483154297 14.244412422180176 17.700305938720703 13.954180717468262 18.173192977905273 13.620868682861328 C19.15159034729004 13.88956069946289 20.140695571899414 14.158376693725586 21.11872100830078 14.427068710327148 L21.11872100830078 14.427068710327148" fill="black" fill-opacity="1.0" filling="0"/>
<path animation_id="2" d="M22.45022964477539 7.962646961212158 C22.031002044677734 7.962646961212158 21.73006248474121 7.543422698974609 21.902135848999023 7.145614147186279 C22.10633087158203 6.672726154327393 22.794248580932617 6.672726154327393 22.99856948852539 7.145614147186279 C23.170516967773438 7.532590866088867 22.86945152282715 7.962646961212158 22.45022964477539 7.962646961212158 L22.45022964477539 7.962646961212158 M21.977214813232422 7.371350288391113 C21.977214813232422 7.758327007293701 22.36419105529785 7.984063148498535 22.686670303344727 7.8012824058532715 C23.019983291625977 7.607794761657715 22.998443603515625 7.070410251617432 22.632883071899414 6.919878005981445 C22.32111167907715 6.780178546905518 21.977214813232422 7.027329921722412 21.977214813232422 7.371350288391113 L21.977214813232422 7.371350288391113 M22.36419105529785 7.3498101234436035 L22.450103759765625 7.3498101234436035 C22.493183135986328 7.3498101234436035 22.525306701660156 7.339102268218994 22.54684829711914 7.328394889831543 C22.56838607788086 7.317686557769775 22.57909393310547 7.296146392822266 22.57909393310547 7.2638983726501465 C22.57909393310547 7.210110664367676 22.5361385345459 7.188694477081299 22.460811614990234 7.188694477081299 L22.36419105529785 7.188694477081299 L22.36419105529785 7.3498101234436035 L22.36419105529785 7.3498101234436035 M22.36419105529785 7.414430618286133 L22.36419105529785 7.629459381103516 L22.28898811340332 7.629459381103516 L22.28898811340332 7.1241984367370605 L22.47176742553711 7.1241984367370605 C22.536388397216797 7.1241984367370605 22.579219818115234 7.134906768798828 22.611469268798828 7.156446933746338 C22.643840789794922 7.177862167358398 22.65454864501953 7.220942497253418 22.65454864501953 7.2638983726501465 C22.65454864501953 7.296146392822266 22.65454864501953 7.317686557769775 22.643840789794922 7.339102268218994 C22.633007049560547 7.360518455505371 22.611469268798828 7.371350288391113 22.59005355834961 7.382058620452881 C22.568511962890625 7.392765998840332 22.54697036743164 7.403473854064941 22.52543067932129 7.403473854064941 L22.665130615234375 7.629209995269775 L22.579219818115234 7.629209995269775 L22.45022964477539 7.414181709289551 L22.36419105529785 7.414181709289551 L22.36419105529785 7.414430618286133 M5.520139694213867 17.199277877807617 L5.520139694213867 16.392953872680664 L5.681379795074463 16.392953872680664 L5.8748674392700195 16.973419189453125 C5.885575771331787 17.027206420898438 5.896407604217529 17.0594539642334 5.907115936279297 17.091575622558594 C5.917823791503906 17.0594539642334 5.928656101226807 17.016374588012695 5.950196266174316 16.96270751953125 L6.143684387207031 16.392953872680664 L6.294216632843018 16.392953872680664 L6.294216632843018 17.199277877807617 L6.18664026260376 17.199277877807617 L6.18664026260376 16.532777786254883 L5.950196266174316 17.199277877807617 L5.853452205657959 17.199277877807617 L5.617008209228516 16.522069931030273 L5.617008209228516 17.199277877807617 L5.520139694213867 17.199277877807617 L5.520139694213867 17.199277877807617 M6.3478803634643555 17.199277877807617 L6.6596527099609375 16.392953872680664 L6.777812480926514 16.392953872680664 L7.1111249923706055 17.199277877807617 L6.982132911682129 17.199277877807617 L6.896097183227539 16.962833404541016 L6.55207633972168 16.962833404541016 L6.455332279205322 17.199277877807617 L6.3478803634643555 17.199277877807617 L6.3478803634643555 17.199277877807617 M6.58444881439209 16.876672744750977 L6.853140830993652 16.876672744750977 L6.767104625701904 16.65106201171875 C6.745689392089844 16.586565017700195 6.724148750305176 16.522069931030273 6.713316440582275 16.479114532470703 C6.702608585357666 16.532901763916016 6.691900730133057 16.586565017700195 6.670361042022705 16.640228271484375 L6.58444881439209 16.876672744750977 M7.164913177490234 17.199277877807617 L7.164913177490234 16.392953872680664 L7.272365093231201 16.392953872680664 L7.702297210693359 17.027206420898438 L7.702297210693359 16.392953872680664 L7.809749126434326 16.392953872680664 L7.809749126434326 17.199277877807617 L7.691464900970459 17.199277877807617 L7.26140832901001 16.575733184814453 L7.26140832901001 17.199277877807617 L7.164913177490234 17.199277877807617 M7.971113681793213 17.199277877807617 L7.971113681793213 16.392953872680664 L8.078690528869629 16.392953872680664 L8.078690528869629 17.199277877807617 L7.971113681793213 17.199277877807617 M8.239806175231934 17.199277877807617 L8.239806175231934 16.392953872680664 L8.551578521728516 16.392953872680664 C8.605365753173828 16.392953872680664 8.637615203857422 16.403785705566406 8.669862747192383 16.403785705566406 C8.712818145751953 16.414491653442383 8.74506664276123 16.425201416015625 8.77743911743164 16.446741104125977 C8.79885482788086 16.45757293701172 8.820395469665527 16.489822387695312 8.841935157775879 16.52194595336914 C8.852643013000488 16.5541934967041 8.86347484588623 16.586565017700195 8.86347484588623 16.629398345947266 C8.86347484588623 16.704601287841797 8.841935157775879 16.75838851928711 8.798978805541992 16.801467895507812 C8.756023406982422 16.85525894165039 8.669987678527832 16.876672744750977 8.551702499389648 16.876672744750977 L8.347506523132324 16.876672744750977 L8.347506523132324 17.199277877807617 L8.239806175231934 17.199277877807617 L8.239806175231934 17.199277877807617 M8.347382545471191 16.780054092407227 L8.562410354614258 16.780054092407227 C8.626907348632812 16.780054092407227 8.680694580078125 16.769222259521484 8.702235221862793 16.747804641723633 C8.73448371887207 16.71543312072754 8.756023406982422 16.683185577392578 8.756023406982422 16.629520416259766 C8.756023406982422 16.597272872924805 8.745315551757812 16.575733184814453 8.723775863647461 16.543609619140625 C8.712942123413086 16.522069931030273 8.680694580078125 16.51136016845703 8.659154891967773 16.500530242919922 C8.637739181518555 16.500530242919922 8.605490684509277 16.489822387695312 8.551702499389648 16.489822387695312 L8.347506523132324 16.489822387695312 L8.347506523132324 16.780054092407227 L8.347382545471191 16.780054092407227 M9.508186340332031 16.392953872680664 L9.615762710571289 16.392953872680664 L9.615762710571289 16.865964889526367 C9.615762710571289 16.94116973876953 9.60505485534668 17.005664825439453 9.583515167236328 17.05957794189453 C9.56209945678711 17.1025333404541 9.5297269821167 17.145488739013672 9.486770629882812 17.177738189697266 C9.4329833984375 17.199277877807617 9.368486404418945 17.209985733032227 9.293282508850098 17.209985733032227 C9.218079566955566 17.209985733032227 9.153582572937012 17.199277877807617 9.099794387817383 17.177738189697266 C9.056714057922363 17.15619659423828 9.024591445922852 17.113117218017578 9.003050804138184 17.07028579711914 C8.981510162353516 17.016498565673828 8.970803260803223 16.952001571655273 8.970803260803223 16.865964889526367 L8.970803260803223 16.392953872680664 L9.078254699707031 16.392953872680664 L9.078254699707031 16.865964889526367 C9.078254699707031 16.930585861206055 9.08896255493164 16.984249114990234 9.099794387817383 17.016498565673828 C9.110502243041992 17.04874610900879 9.13204288482666 17.08099365234375 9.164290428161621 17.09170150756836 C9.196538925170898 17.113243103027344 9.239494323730469 17.124073028564453 9.282575607299805 17.124073028564453 C9.357778549194336 17.124073028564453 9.42227554321289 17.1025333404541 9.454523086547852 17.07028579711914 C9.486770629882812 17.037912368774414 9.508310317993164 16.962833404541016 9.508310317993164 16.865964889526367 L9.508310317993164 16.392953872680664 L9.508186340332031 16.392953872680664 L9.508186340332031 16.392953872680664 M9.755462646484375 17.199277877807617 L9.755462646484375 16.392953872680664 L9.863039016723633 16.392953872680664 L9.863039016723633 17.113117218017578 L10.260723114013672 17.113117218017578 L10.260723114013672 17.199153900146484 L9.755462646484375 17.199153900146484 L9.755462646484375 17.199277877807617 L9.755462646484375 17.199277877807617 M10.271431922912598 17.199277877807617 L10.58320426940918 16.392953872680664 L10.70148754119873 16.392953872680664 L11.034676551818848 17.199277877807617 L10.91639232635498 17.199277877807617 L10.819647789001465 16.962833404541016 L10.475627899169922 16.962833404541016 L10.389715194702148 17.199277877807617 L10.271431922912598 17.199277877807617 M10.507999420166016 16.876672744750977 L10.787524223327637 16.876672744750977 L10.70148754119873 16.65106201171875 A0.8830230832099915 0.8830230832099915 0.0 0 1 10.636991500854492 16.479114532470703 C10.6262845993042 16.532901763916016 10.61545181274414 16.586565017700195 10.594036102294922 16.640228271484375 L10.507999420166016 16.876672744750977 M11.668929100036621 16.919754028320312 L11.77638053894043 16.952001571655273 C11.754839897155762 17.037912368774414 11.711885452270508 17.1025333404541 11.658097267150879 17.145614624023438 C11.593600273132324 17.19940185546875 11.529104232788086 17.210111618041992 11.44306755065918 17.210111618041992 C11.35703182220459 17.210111618041992 11.281827926635742 17.19940185546875 11.228039741516113 17.167030334472656 C11.174251556396484 17.134780883789062 11.131420135498047 17.081117630004883 11.099047660827637 17.01662254333496 C11.077507972717285 16.941417694091797 11.05609130859375 16.876798629760742 11.05609130859375 16.7910099029541 C11.05609130859375 16.715682983398438 11.077507972717285 16.64035415649414 11.109879493713379 16.575857162475586 A0.29359397292137146 0.29359397292137146 0.0 0 1 11.249704360961914 16.4361572265625 A0.3710390329360962 0.3710390329360962 0.0 0 1 11.443192481994629 16.382369995117188 C11.529229164123535 16.382369995117188 11.593600273132324 16.40390968322754 11.647512435913086 16.44686508178711 C11.701176643371582 16.489944458007812 11.744256973266602 16.543609619140625 11.76579761505127 16.618938446044922 L11.658221244812012 16.64035415649414 C11.636805534362793 16.58669090270996 11.615264892578125 16.54373550415039 11.572184562683105 16.511486053466797 C11.539936065673828 16.489944458007812 11.496980667114258 16.479238510131836 11.443192481994629 16.479238510131836 C11.37869644165039 16.479238510131836 11.324908256530762 16.489944458007812 11.281952857971191 16.522193908691406 C11.238996505737305 16.554443359375 11.217456817626953 16.586814880371094 11.195916175842285 16.64035415649414 C11.174376487731934 16.69426727294922 11.174376487731934 16.737096786499023 11.174376487731934 16.7910099029541 C11.174376487731934 16.866214752197266 11.174376487731934 16.919878005981445 11.195916175842285 16.97366714477539 C11.217456817626953 17.027454376220703 11.249704360961914 17.059701919555664 11.292659759521484 17.091825485229492 C11.335616111755371 17.113365173339844 11.378572463989258 17.12419891357422 11.432360649108887 17.12419891357422 C11.496855735778809 17.12419891357422 11.539812088012695 17.113365173339844 11.582892417907715 17.070409774780273 C11.625972747802734 17.037912368774414 11.658097267150879 16.984249114990234 11.668929100036621 16.919754028320312 L11.668929100036621 16.919754028320312 M11.443192481994629 16.296207427978516 L11.507689476013184 16.199588775634766 L11.615140914916992 16.199588775634766 L11.486148834228516 16.349998474121094 L11.389404296875 16.349998474121094 L11.26041316986084 16.199588775634766 L11.37869644165039 16.199588775634766 L11.443192481994629 16.296207427978516 M11.883832931518555 17.199277877807617 L11.883832931518555 16.392953872680664 L11.991408348083496 16.392953872680664 L12.421340942382812 17.027206420898438 L12.421340942382812 16.392953872680664 L12.518085479736328 16.392953872680664 L12.518085479736328 17.199277877807617 L12.41063404083252 17.199277877807617 L11.980701446533203 16.575733184814453 L11.980701446533203 17.199277877807617 L11.883832931518555 17.199277877807617 M12.690156936645508 17.199277877807617 L12.690156936645508 16.392953872680664 L12.797609329223633 16.392953872680664 L12.797609329223633 17.199277877807617 L12.690156936645508 17.199277877807617 M12.657910346984863 16.349872589111328 L12.733113288879395 16.199464797973633 L12.862106323242188 16.199464797973633 L12.743945121765137 16.349872589111328 L12.657910346984863 16.349872589111328 M13.872502326965332 17.199277877807617 L13.872502326965332 16.489822387695312 L13.60381031036377 16.489822387695312 L13.60381031036377 16.393077850341797 L14.248895645141602 16.393077850341797 L14.248895645141602 16.489822387695312 L13.980202674865723 16.489822387695312 L13.980202674865723 17.199277877807617 L13.872502326965332 17.199277877807617 M14.323974609375 17.199277877807617 L14.323974609375 16.392953872680664 L14.915271759033203 16.392953872680664 L14.915271759033203 16.489696502685547 L14.431426048278809 16.489696502685547 L14.431426048278809 16.736848831176758 L14.883023262023926 16.736848831176758 L14.883023262023926 16.833593368530273 L14.431426048278809 16.833593368530273 L14.431426048278809 17.112991333007812 L14.936811447143555 17.112991333007812 L14.936811447143555 17.19902992248535 L14.323974609375 17.19902992248535 L14.323974609375 17.199277877807617 M15.635435104370117 16.919754028320312 L15.742887496948242 16.952001571655273 C15.72134780883789 17.037912368774414 15.678391456604004 17.1025333404541 15.624727249145508 17.145614624023438 C15.560107231140137 17.19940185546875 15.484903335571289 17.210111618041992 15.409575462341309 17.210111618041992 C15.312955856323242 17.210111618041992 15.248459815979004 17.19940185546875 15.194547653198242 17.167030334472656 C15.130050659179688 17.134780883789062 15.09792709350586 17.081117630004883 15.06555461883545 17.01662254333496 C15.033306121826172 16.941417694091797 15.022598266601562 16.876798629760742 15.022598266601562 16.7910099029541 C15.022598266601562 16.715682983398438 15.033306121826172 16.64035415649414 15.06555461883545 16.575857162475586 C15.09792709350586 16.51136016845703 15.151591300964355 16.468406677246094 15.205379486083984 16.4361572265625 C15.269874572753906 16.40390968322754 15.334246635437012 16.382369995117188 15.409575462341309 16.382369995117188 C15.484903335571289 16.382369995117188 15.560107231140137 16.40390968322754 15.613895416259766 16.44686508178711 C15.667683601379395 16.489944458007812 15.710639953613281 16.543609619140625 15.732179641723633 16.618938446044922 L15.624727249145508 16.64035415649414 A0.38747432827949524 0.38747432827949524 0.0 0 0 15.538692474365234 16.511486053466797 C15.506443977355957 16.489944458007812 15.46348762512207 16.479238510131836 15.398992538452148 16.479238510131836 C15.345203399658203 16.479238510131836 15.291540145874023 16.489944458007812 15.248584747314453 16.522193908691406 C15.205503463745117 16.554443359375 15.173255920410156 16.586814880371094 15.162548065185547 16.64035415649414 C15.141008377075195 16.69426727294922 15.13029956817627 16.737096786499023 15.13029956817627 16.7910099029541 C15.13029956817627 16.866214752197266 15.141008377075195 16.919878005981445 15.162548065185547 16.97366714477539 C15.184087753295898 17.027454376220703 15.21633529663086 17.059701919555664 15.259291648864746 17.091825485229492 C15.302371978759766 17.113365173339844 15.345203399658203 17.12419891357422 15.398992538452148 17.12419891357422 C15.452779769897461 17.12419891357422 15.506443977355957 17.113365173339844 15.549524307250977 17.070409774780273 C15.592355728149414 17.037912368774414 15.624727249145508 16.984249114990234 15.635435104370117 16.919754028320312 L15.635435104370117 16.919754028320312 M15.8504638671875 17.199277877807617 L15.8504638671875 16.392953872680664 L15.957916259765625 16.392953872680664 L15.957916259765625 16.726266860961914 L16.377140045166016 16.726266860961914 L16.377140045166016 16.392953872680664 L16.48459243774414 16.392953872680664 L16.48459243774414 17.199277877807617 L16.377140045166016 17.199277877807617 L16.377140045166016 16.823009490966797 L15.957916259765625 16.823009490966797 L15.957916259765625 17.199277877807617 L15.8504638671875 17.199277877807617 M16.63512420654297 17.199277877807617 L16.63512420654297 16.392953872680664 L16.742576599121094 16.392953872680664 L17.172508239746094 17.027206420898438 L17.172508239746094 16.392953872680664 L17.27996063232422 16.392953872680664 L17.27996063232422 17.199277877807617 L17.161800384521484 17.199277877807617 L16.742576599121094 16.575733184814453 L16.742576599121094 17.199277877807617 L16.63512420654297 17.199277877807617 M17.441326141357422 17.199277877807617 L17.441326141357422 16.392953872680664 L17.548776626586914 16.392953872680664 L17.548776626586914 17.199277877807617 L17.441326141357422 17.199277877807617 M17.710018157958984 17.199277877807617 L17.710018157958984 16.392953872680664 L17.817594528198242 16.392953872680664 L17.817594528198242 16.801467895507812 L18.21527862548828 16.392953872680664 L18.365684509277344 16.392953872680664 L18.021663665771484 16.726266860961914 L18.37651824951172 17.199277877807617 L18.2366943359375 17.199277877807617 L17.946460723876953 16.801593780517578 L17.817594528198242 16.919754028320312 L17.817594528198242 17.199277877807617 L17.710018157958984 17.199277877807617 L17.710018157958984 17.199277877807617 M18.3551025390625 17.199277877807617 L18.666873931884766 16.392953872680664 L18.77432632446289 16.392953872680664 L19.107515335083008 17.199277877807617 L18.989355087280273 17.199277877807617 L18.892608642578125 16.962833404541016 L18.54859161376953 16.962833404541016 L18.462678909301758 17.199277877807617 L18.3551025390625 17.199277877807617 L18.3551025390625 17.199277877807617 M18.58071517944336 16.876672744750977 L18.86023712158203 16.876672744750977 L18.77432632446289 16.65106201171875 A2.8415615558624268 2.8415615558624268 0.0 0 1 18.720413208007812 16.479114532470703 C18.709705352783203 16.532901763916016 18.688289642333984 16.586565017700195 18.677457809448242 16.640228271484375 L18.58071517944336 16.876672744750977 L18.58071517944336 16.876672744750977" fill="black" fill-opacity="1.0" filling="0"/></svg>