<?xml version="1.0" encoding="iso-8859-1"?><svg height="200px" viewBox="0.0 0.0 24.0 24.0" width="200px" xmlns="http://www.w3.org/2000/svg"><path animation_id="0" d="M58.5337028503418 32.51158905029297 L41.782066345214844 32.51158905029297 C39.780433654785156 32.51158905029297 38.15788269042969 34.13414001464844 38.15788269042969 36.13567352294922 L38.15788269042969 52.88557052612305 C38.15788269042969 54.88710403442383 39.780433654785156 56.509544372558594 41.782066345214844 56.509544372558594 L58.5337028503418 56.509544372558594 C60.535335540771484 56.509544372558594 62.15788269042969 54.88699722290039 62.15788269042969 52.88557052612305 L62.15788269042969 36.135772705078125 C62.15788269042969 34.13424301147461 60.53523635864258 32.51158905029297 58.5337028503418 32.51158905029297 L58.5337028503418 32.51158905029297" fill="black" fill-opacity="1.0" filling="0"/>
<path animation_id="1" d="M55.81699752807617 33.53752899169922 L44.49867248535156 33.53752899169922 C41.502655029296875 33.53752899169922 39.0906867980957 35.96910858154297 39.0906867980957 38.98943328857422 L39.0906867980957 50.03181457519531 C39.18770217895508 52.38944625854492 39.56076431274414 50.898948669433594 40.270729064941406 48.28804397583008 C41.09599685668945 45.25362777709961 43.78339385986328 42.6015625 47.056373596191406 40.613922119140625 C49.5544319152832 39.096866607666016 52.35049057006836 38.128116607666016 57.44036102294922 38.03589630126953 C60.32679748535156 37.98371124267578 60.07209777832031 34.289676666259766 55.81699752807617 33.53752899169922" fill="black" fill-opacity="1.0" filling="0"/>
<path animation_id="2" d="M43.55351257324219 36.8721923828125 C45.0644416809082 35.52016830444336 46.83599090576172 34.56888198852539 49.54544448852539 35.06071472167969 L49.54544448852539 43.76996612548828 C49.42932891845703 44.18796157836914 49.08098220825195 44.28089141845703 48.77910614013672 44.04866027832031 L43.55351257324219 36.8721923828125 M54.36713790893555 40.04222869873047 C55.58098602294922 40.80039978027344 56.9394416809082 42.315818786621094 57.324344635009766 44.54753875732422 L51.48968505859375 45.4921875 C51.1531867980957 45.364227294921875 50.900123596191406 45.15303421020508 50.932395935058594 44.656097412109375 L54.36713790893555 40.04222869873047 L54.36713790893555 40.04222869873047 M51.66401290893555 47.51271438598633 C51.28757858276367 47.59727096557617 51.08854293823242 47.82347869873047 51.17626953125 48.27915573120117 L54.127349853515625 53.27486801147461 C55.43964767456055 52.67274475097656 56.74949264526367 51.267311096191406 57.342220306396484 49.184898376464844 L51.66401290893555 47.51271438598633 M48.63317108154297 48.209407806396484 C49.02348709106445 48.15885543823242 49.3880729675293 48.151302337646484 49.504085540771484 48.55775451660156 L49.67831039428711 54.13168716430664 C47.76102828979492 54.27354049682617 46.162174224853516 53.778541564941406 45.07986068725586 52.25046157836914 L48.63317108154297 48.209407806396484 L48.63317108154297 48.209407806396484 M47.866729736328125 45.63148880004883 C48.14552688598633 45.966556549072266 48.30198287963867 46.319087982177734 47.93648147583008 46.74626922607422 L42.57158660888672 48.62750244140625 C41.93913269042969 46.88117980957031 41.997039794921875 45.24116516113281 42.57158660888672 43.68070983886719 L47.866729736328125 45.63148880004883 L47.866729736328125 45.63148880004883" fill="black" fill-opacity="1.0" filling="0"/></svg>