<?xml version="1.0" encoding="iso-8859-1"?><svg height="200px" viewBox="0.0 0.0 24.0 24.0" width="200px" xmlns="http://www.w3.org/2000/svg"><path animation_id="0" d="M0.0 0.0 L24.0 0.0 L24.0 24.0 L0.0 24.0 L0.0 0.0" fill="black" fill-opacity="1.0" filling="0"/>
<path animation_id="1" d="M20.290481567382812 15.356782913208008 C22.14430809020996 15.356782913208008 23.647140502929688 13.853950500488281 23.647140502929688 12.0 C23.647140502929688 10.146174430847168 22.14430809020996 8.643342018127441 20.290481567382812 8.643342018127441 L3.7093944549560547 8.643342018127441 C1.8556928634643555 8.643342018127441 0.3528604507446289 10.146174430847168 0.3528604507446289 12.0 C0.3528604507446289 13.853950500488281 1.8556928634643555 15.356782913208008 3.7093944549560547 15.356782913208008 L20.290481567382812 15.356782913208008 M4.555313587188721 10.887505531311035 L2.8274917602539062 10.887505531311035 L2.8274917602539062 11.427877426147461 L4.400423526763916 11.427877426147461 L4.400423526763916 12.202951431274414 L2.8276166915893555 12.202951431274414 L2.8276166915893555 12.785158157348633 L4.55518913269043 12.785158157348633 L4.55518913269043 13.5608549118042 L1.9922800064086914 13.5608549118042 L1.9922800064086914 10.107327461242676 L4.555313587188721 10.107327461242676 L4.555313587188721 10.887505531311035 L4.555313587188721 10.887505531311035 M10.47537899017334 10.107327461242676 L11.400859832763672 10.107327461242676 L10.247774124145508 11.85805892944336 L11.471456527709961 13.561601638793945 L10.43229866027832 13.561601638793945 L9.480793952941895 12.057025909423828 L9.480793952941895 13.561601638793945 L8.587063789367676 13.561601638793945 L8.587063789367676 10.107327461242676 L9.481043815612793 10.107327461242676 L9.481043815612793 11.668181419372559 L10.47537899017334 10.107327461242676 L10.47537899017334 10.107327461242676 M17.296396255493164 12.804831504821777 L18.14194107055664 12.804831504821777 L18.14194107055664 10.117786407470703 L19.969743728637695 10.117786407470703 C20.901824951171875 10.117786407470703 21.539688110351562 10.896718978881836 21.539688110351562 11.824939727783203 C21.539688110351562 12.969432830810547 20.916889190673828 13.569196701049805 19.774639129638672 13.56571102142334 L18.14194107055664 13.56571102142334 L18.14194107055664 12.81255054473877 L17.48950958251953 13.70702838897705 L18.196975708007812 14.796737670898438 L17.318309783935547 14.797236442565918 L17.024341583251953 14.34439468383789 L16.69438934326172 14.796737670898438 L15.842992782592773 14.796737670898438 L16.62342071533203 13.72719955444336 L15.824814796447754 12.498163223266602 L15.397497177124023 12.498163223266602 L15.39699935913086 13.561601638793945 L14.550955772399902 13.561601638793945 L14.550955772399902 10.107701301574707 L16.493928909301758 10.107701301574707 C17.204755783081055 10.107701301574707 17.823944091796875 10.480981826782227 17.823944091796875 11.252817153930664 C17.823944091796875 11.924921035766602 17.49735450744629 12.39494514465332 16.7043514251709 12.49791431427002 L17.08858871459961 13.089584350585938 L17.296396255493164 12.804831504821777 L17.296396255493164 12.804831504821777 M14.207059860229492 10.8880033493042 L12.47923755645752 10.8880033493042 L12.47923755645752 11.428376197814941 L14.052169799804688 11.428376197814941 L14.052169799804688 12.203449249267578 L12.479486465454102 12.203449249267578 L12.479486465454102 12.785905838012695 L14.207059860229492 12.785905838012695 L14.207059860229492 13.561601638793945 L11.644026756286621 13.561601638793945 L11.644026756286621 10.10782527923584 L14.206934928894043 10.10782527923584 L14.206934928894043 10.8880033493042 L14.207059860229492 10.8880033493042 L14.207059860229492 10.8880033493042 M8.295710563659668 12.26856803894043 C8.098237991333008 13.048995018005371 7.381311416625977 13.627467155456543 6.527174472808838 13.627467155456543 C5.520637512207031 13.627467155456543 4.70472526550293 12.824254989624023 4.70472526550293 11.833779335021973 C4.70472526550293 10.843179702758789 5.520637512207031 10.040216445922852 6.527174472808838 10.040216445922852 C7.393264293670654 10.040216445922852 8.118159294128418 10.634751319885254 8.303679466247559 11.431737899780273 L7.363132953643799 11.431737899780273 C7.200896739959717 11.027205467224121 6.8820271492004395 10.824130058288574 6.517462730407715 10.824130058288574 C6.006848335266113 10.824130058288574 5.592977523803711 11.280956268310547 5.592977523803711 11.84423828125 C5.592977523803711 12.407645225524902 6.006848335266113 12.864595413208008 6.517462730407715 12.864595413208008 C6.890867710113525 12.864595413208008 7.212475776672363 12.620182991027832 7.358401298522949 12.26856803894043 L8.295710563659668 12.26856803894043 M21.597335815429688 10.697006225585938 A0.4576978385448456 0.4576978385448456 0.0 1 1 22.05478286743164 10.239432334899902 A0.4575732946395874 0.4575732946395874 0.0 0 1 21.597335815429688 10.697006225585938" fill="black" fill-opacity="1.0" filling="0"/>
<path animation_id="2" d="M21.597335815429688 10.614580154418945 A0.37502336502075195 0.37502336502075195 0.0 0 0 21.97235870361328 10.239307403564453 A0.37514784932136536 0.37514784932136536 0.0 1 0 21.597335815429688 10.614580154418945 M21.502708435058594 10.278280258178711 L21.502708435058594 10.504388809204102 L21.42364501953125 10.504388809204102 L21.42364501953125 9.982568740844727 L21.622364044189453 9.982568740844727 C21.74562644958496 9.982568740844727 21.806636810302734 10.028139114379883 21.806636810302734 10.13098430633545 C21.806636810302734 10.224366188049316 21.74799346923828 10.265081405639648 21.671419143676758 10.274543762207031 L21.81970977783203 10.504388809204102 L21.731182098388672 10.504388809204102 L21.59360122680664 10.278280258178711 L21.502708435058594 10.278280258178711" fill="black" fill-opacity="1.0" filling="0"/>
<path animation_id="3" d="M21.502708435058594 10.21129322052002 L21.597335815429688 10.21129322052002 C21.66419792175293 10.21129322052002 21.72408676147461 10.206437110900879 21.72408676147461 10.126253128051758 C21.72408676147461 10.06163215637207 21.665443420410156 10.049678802490234 21.61053466796875 10.049678802490234 L21.502832412719727 10.049678802490234 L21.502832412719727 10.21129322052002 L21.502708435058594 10.21129322052002 L21.502708435058594 10.21129322052002 M16.472515106201172 11.719106674194336 C16.743946075439453 11.719106674194336 16.970054626464844 11.588994026184082 16.970054626464844 11.312333106994629 C16.970054626464844 11.032933235168457 16.772830963134766 10.903194427490234 16.521198272705078 10.903194427490234 L15.397249221801758 10.903194427490234 L15.397249221801758 11.719106674194336 L16.472515106201172 11.719106674194336 L16.472515106201172 11.719106674194336 M19.79269027709961 12.801344871520996 C20.390214920043945 12.801344871520996 20.65068817138672 12.39494514465332 20.65068817138672 11.862293243408203 C20.65068817138672 11.308721542358398 20.4111328125 10.901700019836426 19.810745239257812 10.901700019836426 L19.02695655822754 10.901700019836426 L19.02695655822754 12.801344871520996 L19.79269027709961 12.801344871520996" fill="black" fill-opacity="1.0" filling="0"/></svg>