<?xml version="1.0" encoding="iso-8859-1"?><svg height="200px" viewBox="0.0 0.0 24.0 24.0" width="200px" xmlns="http://www.w3.org/2000/svg"><path animation_id="0" d="M0.0 0.0 L24.0 0.0 L24.0 24.0 L0.0 24.0 L0.0 0.0" fill="black" fill-opacity="1.0" filling="0"/>
<path animation_id="1" d="M17.7878360748291 13.243727684020996 L19.87225341796875 12.059017181396484 L20.61881446838379 9.930150032043457 L20.61881446838379 7.955301284790039 L19.653114318847656 7.955301284790039 L17.7878360748291 13.243727684020996 L17.7878360748291 13.243727684020996 M23.647140502929688 13.243727684020996 L21.56209945678711 12.059017181396484 L20.81578826904297 9.930150032043457 L20.81578826904297 7.955301284790039 L21.78148651123047 7.955301284790039 L23.647140502929688 13.243727684020996 L23.647140502929688 13.243727684020996" fill="black" fill-opacity="1.0" filling="0"/>
<path animation_id="2" d="M17.831663131713867 13.397871017456055 L23.60306167602539 13.397871017456055 L21.40857696533203 12.147046089172363 L19.982070922851562 12.147046089172363 L17.831663131713867 13.397871017456055 L17.831663131713867 13.397871017456055 M0.6455831527709961 15.115483283996582 L0.6523065567016602 15.115483283996582 C0.7257680892944336 14.927473068237305 0.8927345275878906 14.827615737915039 1.093195915222168 14.827615737915039 C1.3266515731811523 14.827615737915039 1.577911376953125 14.936562538146973 1.577911376953125 15.25493335723877 L1.577911376953125 15.687854766845703 C1.577911376953125 15.862666130065918 1.5933513641357422 15.955301284790039 1.6465167999267578 15.98182201385498 C1.6709203720092773 15.994894981384277 1.6886014938354492 16.00174331665039 1.6886014938354492 16.006099700927734 C1.6886014938354492 16.0127010345459 1.6754035949707031 16.015066146850586 1.6664390563964844 16.015066146850586 C1.6421594619750977 16.015066146850586 1.5601072311401367 16.012203216552734 1.4891366958618164 16.012203216552734 C1.4177923202514648 16.012203216552734 1.3354911804199219 16.015066146850586 1.304488182067871 16.015066146850586 C1.2956485748291016 16.015066146850586 1.288924217224121 16.015066146850586 1.288924217224121 16.006099700927734 C1.288924217224121 15.994894981384277 1.3088464736938477 15.992778778076172 1.3266515731811523 15.98182201385498 C1.3890304565429688 15.939987182617188 1.4001121520996094 15.862666130065918 1.4001121520996094 15.789454460144043 L1.4001121520996094 15.356534004211426 C1.4001121520996094 14.980514526367188 1.2376270294189453 14.883273124694824 1.0486211776733398 14.883273124694824 C0.8104343414306641 14.883273124694824 0.6457071304321289 15.099919319152832 0.6457071304321289 15.360892295837402 L0.6457071304321289 15.701051712036133 C0.6457071304321289 15.862541198730469 0.6567888259887695 15.9376220703125 0.7258920669555664 15.981697082519531 C0.7480554580688477 15.994771957397461 0.766108512878418 16.003860473632812 0.766108512878418 16.00821876525879 C0.766108512878418 16.015066146850586 0.7590112686157227 16.015066146850586 0.7480554580688477 16.015066146850586 C0.7103281021118164 16.015066146850586 0.6280269622802734 16.012203216552734 0.5639047622680664 16.012203216552734 C0.5000314712524414 16.012203216552734 0.41797924041748047 16.015066146850586 0.3802528381347656 16.015066146850586 C0.369171142578125 16.015066146850586 0.36033058166503906 16.012575149536133 0.36033058166503906 16.003860473632812 C0.36033058166503906 15.997011184692383 0.3802528381347656 15.9905366897583 0.4024162292480469 15.977340698242188 C0.4710197448730469 15.937745094299316 0.4822263717651367 15.862541198730469 0.4822263717651367 15.789329528808594 L0.4822263717651367 14.623295783996582 C0.4822263717651367 14.563282012939453 0.46442222595214844 14.514349937438965 0.4024162292480469 14.503144264221191 C0.3934516906738281 14.50090217590332 0.3824939727783203 14.498785972595215 0.3824939727783203 14.489821434020996 C0.3824939727783203 14.48546314239502 0.3958168029785156 14.4764986038208 0.4024162292480469 14.4764986038208 L0.6455831527709961 14.405776977539062 L0.6455831527709961 15.115483283996582 L0.6455831527709961 15.115483283996582 M2.5155954360961914 15.225424766540527 C2.5644025802612305 15.011143684387207 2.688539505004883 14.883273124694824 2.923489570617676 14.883273124694824 C3.1335363388061523 14.883273124694824 3.291290283203125 15.011143684387207 3.291290283203125 15.225424766540527 L2.5155954360961914 15.225424766540527 M3.5044517517089844 15.281330108642578 C3.477931022644043 14.982755661010742 3.2001495361328125 14.827491760253906 2.911163330078125 14.827491760253906 C2.5221939086914062 14.827491760253906 2.2843799591064453 15.130549430847168 2.2843799591064453 15.42040729522705 C2.2843799591064453 15.756458282470703 2.539999008178711 16.044448852539062 2.884641647338867 16.044448852539062 C3.1810998916625977 16.044448852539062 3.4317378997802734 15.891054153442383 3.5140380859375 15.630331039428711 C3.5206375122070312 15.612525939941406 3.525120735168457 15.592604637145996 3.525120735168457 15.575422286987305 C3.525120735168457 15.564215660095215 3.5206375122070312 15.555500030517578 3.507439613342285 15.555500030517578 C3.4893856048583984 15.555500030517578 3.480545997619629 15.5730562210083 3.478179931640625 15.586130142211914 C3.464982032775879 15.659341812133789 3.3052358627319336 15.979331016540527 2.9701805114746094 15.979331016540527 C2.619810104370117 15.979331016540527 2.497915267944336 15.714499473571777 2.497915267944336 15.389902114868164 C2.497915267944336 15.35441780090332 2.504513740539551 15.314325332641602 2.511237144470215 15.281455039978027 L3.5044517517089844 15.281455039978027 L3.5044517517089844 15.281330108642578 L3.5044517517089844 15.281330108642578 M5.062192916870117 15.355538368225098 L5.062192916870117 15.452779769897461 C5.062192916870117 15.722966194152832 5.013260364532471 15.988794326782227 4.681441783905029 15.988794326782227 C4.502272605895996 15.988794326782227 4.35174036026001 15.888813018798828 4.35174036026001 15.694079399108887 C4.35174036026001 15.399863243103027 4.663761615753174 15.355538368225098 4.898462295532227 15.355538368225098 L5.062192916870117 15.355538368225098 L5.062192916870117 15.355538368225098 M5.239494800567627 15.257549285888672 C5.239494800567627 15.002179145812988 5.10427713394165 14.827615737915039 4.701363563537598 14.827615737915039 C4.557928085327148 14.827615737915039 4.3765177726745605 14.858743667602539 4.203573703765869 14.933948516845703 L4.263463020324707 15.143373489379883 C4.2655792236328125 15.149972915649414 4.267820835113525 15.149972915649414 4.272303104400635 15.149972915649414 C4.278902053833008 15.149972915649414 4.283633232116699 15.147980690002441 4.283633232116699 15.141256332397461 C4.3033061027526855 14.967440605163574 4.553445816040039 14.883522033691406 4.708086967468262 14.883522033691406 C4.988981246948242 14.883522033691406 5.062192916870117 15.042021751403809 5.062192916870117 15.300130844116211 L4.893855571746826 15.300130844116211 C4.643590927124023 15.300130844116211 4.138579368591309 15.351180076599121 4.138579368591309 15.689970970153809 C4.138579368591309 15.93127155303955 4.396065711975098 16.044822692871094 4.61084508895874 16.044822692871094 C4.814044952392578 16.044822692871094 4.982381820678711 15.980077743530273 5.077631950378418 15.789703369140625 L5.0821146965026855 15.789703369140625 C5.0887131690979 15.851709365844727 5.119840621948242 15.942726135253906 5.119840621948242 15.997883796691895 C5.119840621948242 16.00448226928711 5.128681182861328 16.015439987182617 5.146361351013184 16.015439987182617 C5.170764923095703 16.015439987182617 5.199651718139648 16.012575149536133 5.228413105010986 16.012575149536133 C5.252817153930664 16.012575149536133 5.305983066558838 16.015439987182617 5.314947605133057 16.015439987182617 C5.325904369354248 16.015439987182617 5.334868907928467 16.008590698242188 5.334868907928467 16.000125885009766 C5.334868907928467 15.993525505065918 5.328269958496094 15.987175941467285 5.317063808441162 15.982568740844727 C5.257299423217773 15.962646484375 5.239494800567627 15.818714141845703 5.239494800567627 15.678890228271484 L5.239494800567627 15.257549285888672 L5.239494800567627 15.257549285888672 M6.247027397155762 15.689722061157227 C6.247027397155762 15.817842483520508 6.258109092712402 15.948452949523926 6.329079627990723 15.977463722229004 C6.351366996765137 15.986180305480957 6.375646114349365 15.995019912719727 6.375646114349365 16.006099700927734 C6.375646114349365 16.0127010345459 6.349000930786133 16.015066146850586 6.338044166564941 16.015066146850586 C6.311398983001709 16.015066146850586 6.229346752166748 16.012203216552734 6.165349006652832 16.012203216552734 C6.101350784301758 16.012203216552734 6.019672870635986 16.015066146850586 5.981945991516113 16.015066146850586 C5.941729545593262 16.015066146850586 5.932764530181885 16.012575149536133 5.932764530181885 16.006099700927734 C5.932764530181885 15.994894981384277 5.96165132522583 15.986180305480957 5.993027687072754 15.972732543945312 C6.072838306427002 15.937247276306152 6.083919525146484 15.744630813598633 6.083919525146484 15.51453685760498 L6.083919525146484 14.728631019592285 C6.083919525146484 14.562784194946289 6.066239356994629 14.5138521194458 6.006350517272949 14.491813659667969 C5.990786552429199 14.48770523071289 5.984187602996826 14.483098030090332 5.984187602996826 14.478864669799805 C5.984187602996826 14.472017288208008 5.994894981384277 14.467658996582031 6.004108905792236 14.46554183959961 L6.247027397155762 14.405776977539062 L6.247027397155762 15.689722061157227 L6.247027397155762 15.689722061157227 M7.007159233093262 14.981261253356934 C6.97603178024292 14.981261253356934 6.9650750160217285 14.981261253356934 6.9650750160217285 14.967938423156738 C6.9650750160217285 14.95897388458252 6.971798419952393 14.952374458312988 7.000560283660889 14.936811447143555 C7.1179728507995605 14.877046585083008 7.226296424865723 14.77121353149414 7.2636494636535645 14.623544692993164 C7.268131732940674 14.60573959350586 7.2768473625183105 14.592416763305664 7.288053512573242 14.592416763305664 C7.29689359664917 14.592416763305664 7.299010276794434 14.59677505493164 7.299010276794434 14.62130355834961 L7.299010276794434 14.92523193359375 L7.49411678314209 14.92523193359375 C7.516404151916504 14.92523193359375 7.525244235992432 14.927473068237305 7.525244235992432 14.934446334838867 C7.525244235992432 14.936686515808105 7.523003578186035 14.941044807434082 7.523003578186035 14.945402145385742 L7.516404151916504 14.981136322021484 L7.299010276794434 14.981136322021484 L7.299010276794434 15.369731903076172 C7.299010276794434 15.688974380493164 7.319056510925293 15.955551147460938 7.456515312194824 15.991036415100098 C7.46971321105957 15.993276596069336 7.471954345703125 15.99514389038086 7.471954345703125 15.999253273010254 C7.471954345703125 16.005603790283203 7.463113784790039 16.007719039916992 7.434352397918701 16.007719039916992 C7.387660980224609 16.00971221923828 7.341218948364258 16.011829376220703 7.294652462005615 16.011829376220703 C7.181846618652344 16.011829376220703 7.135653495788574 15.993152618408203 7.135653495788574 15.762062072753906 L7.135653495788574 14.981012344360352 L7.007159233093262 14.981012344360352 L7.007159233093262 14.981261253356934 L7.007159233093262 14.981261253356934 M8.392330169677734 15.115483283996582 L8.398929595947266 15.115483283996582 C8.472390174865723 14.927473068237305 8.639357566833496 14.827615737915039 8.839570045471191 14.827615737915039 C9.073149681091309 14.827615737915039 9.32453441619873 14.936562538146973 9.32453441619873 15.25493335723877 L9.32453441619873 15.687854766845703 C9.32453441619873 15.862666130065918 9.34009838104248 15.955301284790039 9.393139839172363 15.98182201385498 C9.417543411254883 15.994894981384277 9.435348510742188 16.00174331665039 9.435348510742188 16.006099700927734 C9.435348510742188 16.0127010345459 9.422025680541992 16.015066146850586 9.413061141967773 16.015066146850586 C9.388656616210938 16.015066146850586 9.306356430053711 16.012203216552734 9.23538589477539 16.012203216552734 C9.16441535949707 16.012203216552734 9.082114219665527 16.015066146850586 9.050987243652344 16.015066146850586 C9.042271614074707 16.015066146850586 9.035174369812012 16.015066146850586 9.035174369812012 16.006099700927734 C9.035174369812012 15.994894981384277 9.055468559265137 15.992778778076172 9.073149681091309 15.98182201385498 C9.135529518127441 15.939987182617188 9.146734237670898 15.862666130065918 9.146734237670898 15.789454460144043 L9.146734237670898 15.356534004211426 C9.146734237670898 14.980514526367188 8.984249114990234 14.883273124694824 8.795119285583496 14.883273124694824 C8.55693244934082 14.883273124694824 8.392330169677734 15.099919319152832 8.392330169677734 15.360892295837402 L8.392330169677734 15.701051712036133 C8.392330169677734 15.862541198730469 8.403286933898926 15.9376220703125 8.472390174865723 15.981697082519531 C8.494552612304688 15.994771957397461 8.512357711791992 16.003860473632812 8.512357711791992 16.00821876525879 C8.512357711791992 16.015066146850586 8.505759239196777 16.015066146850586 8.494552612304688 16.015066146850586 C8.45657730102539 16.015066146850586 8.374526023864746 16.012203216552734 8.310651779174805 16.012203216552734 C8.246529579162598 16.012203216552734 8.164477348327637 16.015066146850586 8.126750946044922 16.015066146850586 C8.11579418182373 16.015066146850586 8.106829643249512 16.012575149536133 8.106829643249512 16.003860473632812 C8.106829643249512 15.997011184692383 8.126750946044922 15.9905366897583 8.148913383483887 15.977340698242188 C8.217643737792969 15.937745094299316 8.228724479675293 15.862541198730469 8.228724479675293 15.789329528808594 L8.228724479675293 14.623295783996582 C8.228724479675293 14.563282012939453 8.211044311523438 14.514349937438965 8.148913383483887 14.503144264221191 C8.14019775390625 14.50090217590332 8.128992080688477 14.498785972595215 8.128992080688477 14.489821434020996 C8.128992080688477 14.48546314239502 8.142314910888672 14.4764986038208 8.148913383483887 14.4764986038208 L8.392330169677734 14.405776977539062 L8.392330169677734 15.115483283996582 L8.392330169677734 15.115483283996582 M12.188383102416992 15.097055435180664 C12.181534767150879 15.116728782653809 12.175060272216797 15.125568389892578 12.168461799621582 15.125568389892578 C12.157256126403809 15.125568389892578 12.152898788452148 15.110254287719727 12.14194107055664 15.075016975402832 C12.101848602294922 14.940546989440918 11.910602569580078 14.883397102355957 11.766419410705566 14.883397102355957 C11.613273620605469 14.883397102355957 11.446554183959961 14.951752662658691 11.446554183959961 15.112245559692383 C11.446554183959961 15.330387115478516 11.69968318939209 15.336986541748047 11.864035606384277 15.350309371948242 C12.05055046081543 15.367864608764648 12.301687240600586 15.392641067504883 12.301687240600586 15.638921737670898 C12.301687240600586 15.924423217773438 11.984063148498535 16.044574737548828 11.74400806427002 16.044574737548828 C11.548527717590332 16.044574737548828 11.346447944641113 16.024154663085938 11.173503875732422 15.926664352416992 L11.220070838928223 15.782979965209961 C11.237876892089844 15.72533130645752 11.246716499328613 15.707651138305664 11.25991439819336 15.707651138305664 C11.27099609375 15.707651138305664 11.275477409362793 15.725456237792969 11.28656005859375 15.754093170166016 C11.348566055297852 15.937994003295898 11.56832504272461 15.989043235778809 11.739401817321777 15.989043235778809 C11.903754234313965 15.989043235778809 12.123763084411621 15.937994003295898 12.123763084411621 15.734172821044922 C12.123763084411621 15.517524719238281 11.874868392944336 15.515283584594727 11.697192192077637 15.504327774047852 C11.515159606933594 15.486148834228516 11.268630027770996 15.403847694396973 11.268630027770996 15.18309211730957 C11.268630027770996 14.91464900970459 11.57940673828125 14.827740669250488 11.799539566040039 14.827740669250488 C11.950446128845215 14.827740669250488 12.10832405090332 14.861358642578125 12.245781898498535 14.921123504638672 L12.188383102416992 15.097055435180664 L12.188383102416992 15.097055435180664 M13.167403221130371 15.225424766540527 C13.216086387634277 15.011143684387207 13.340347290039062 14.883273124694824 13.575172424316406 14.883273124694824 C13.785346031188965 14.883273124694824 13.942850112915039 15.011143684387207 13.942850112915039 15.225424766540527 L13.167403221130371 15.225424766540527 L13.167403221130371 15.225424766540527 M14.156135559082031 15.281330108642578 C14.12961483001709 14.982755661010742 13.851709365844727 14.827491760253906 13.562971115112305 14.827491760253906 C13.173877716064453 14.827491760253906 12.936064720153809 15.130549430847168 12.936064720153809 15.42040729522705 C12.936064720153809 15.756458282470703 13.191682815551758 16.044448852539062 13.536201477050781 16.044448852539062 C13.832658767700195 16.044448852539062 14.083172798156738 15.891054153442383 14.16559886932373 15.630331039428711 A0.16559796035289764 0.16559796035289764 0.0 0 0 14.176555633544922 15.575422286987305 C14.176555633544922 15.564215660095215 14.172197341918945 15.555500030517578 14.1589994430542 15.555500030517578 C14.140820503234863 15.555500030517578 14.131980895996094 15.5730562210083 14.129863739013672 15.586130142211914 C14.116540908813477 15.659341812133789 13.95691967010498 15.979331016540527 13.621864318847656 15.979331016540527 C13.271492958068848 15.979331016540527 13.149599075317383 15.714499473571777 13.149599075317383 15.389902114868164 C13.149599075317383 15.35441780090332 13.156197547912598 15.314325332641602 13.162672996520996 15.281455039978027 L14.156135559082031 15.281455039978027 L14.156135559082031 15.281330108642578 M15.431862831115723 15.048123359680176 C15.405341148376465 15.025960922241211 15.37209701538086 14.99047565460205 15.312209129333496 14.99047565460205 C15.12594223022461 14.99047565460205 15.066052436828613 15.214468002319336 15.066052436828613 15.562971115112305 L15.066052436828613 15.6979398727417 C15.066052436828613 15.86154556274414 15.08597469329834 15.965386390686035 15.174749374389648 15.976591110229492 C15.199028968811035 15.978833198547363 15.21247673034668 15.987550735473633 15.21247673034668 16.003612518310547 C15.21247673034668 16.014568328857422 15.205628395080566 16.014568328857422 15.194671630859375 16.014568328857422 C15.15694522857666 16.014568328857422 15.07476806640625 16.012325286865234 14.997447967529297 16.012325286865234 C14.92037582397461 16.012325286865234 14.838199615478516 16.014568328857422 14.800474166870117 16.014568328857422 C14.78951644897461 16.014568328857422 14.77395248413086 16.010210037231445 14.77395248413086 16.003612518310547 C14.77395248413086 15.994646072387695 14.78951644897461 15.98319149017334 14.811678886413574 15.974474906921387 C14.882649421691895 15.93899154663086 14.902571678161621 15.861669540405273 14.902571678161621 15.658346176147461 L14.902571678161621 15.017120361328125 C14.902571678161621 14.97266960144043 14.864845275878906 14.943410873413086 14.827242851257324 14.930336952209473 C14.809438705444336 14.925978660583496 14.793874740600586 14.917014122009277 14.793874740600586 14.912158966064453 C14.793874740600586 14.907800674438477 14.807197570800781 14.9034423828125 14.822761535644531 14.899085998535156 L15.052604675292969 14.83658218383789 L15.052604675292969 15.147605895996094 L15.057212829589844 15.147605895996094 C15.15694522857666 14.93145751953125 15.287803649902344 14.827367782592773 15.507314682006836 14.827367782592773 L15.431862831115723 15.048123359680176 L15.431862831115723 15.048123359680176 M16.732240676879883 15.805143356323242 L16.938430786132812 15.401979446411133 C17.022598266601562 15.240242004394531 17.095809936523438 15.078254699707031 17.095809936523438 15.01438045501709 C17.095809936523438 14.95897388458252 17.078006744384766 14.916890144348145 17.038162231445312 14.896967887878418 C17.00927734375 14.881404876708984 16.982755661010742 14.870199203491211 16.982755661010742 14.86359977722168 C16.982755661010742 14.857000350952148 16.984996795654297 14.84803581237793 16.996078491210938 14.84803581237793 C17.01599884033203 14.84803581237793 17.095809936523438 14.859989166259766 17.159934997558594 14.859989166259766 C17.24646759033203 14.859989166259766 17.295150756835938 14.84803581237793 17.31507110595703 14.84803581237793 C17.32839584350586 14.84803581237793 17.334993362426758 14.852643013000488 17.334993362426758 14.861358642578125 C17.334993362426758 14.872564315795898 17.324037551879883 14.876922607421875 17.313079833984375 14.885638236999512 C17.23750114440918 14.938928604125977 17.146486282348633 15.098176956176758 17.042396545410156 15.306605339050293 L16.72091293334961 15.947208404541016 C16.67671012878418 16.03809928894043 16.669862747192383 16.044700622558594 16.66326332092285 16.044700622558594 L16.658906936645508 16.044700622558594 C16.652305603027344 16.044700622558594 16.630268096923828 15.991409301757812 16.60785675048828 15.947208404541016 L16.202205657958984 15.151466369628906 C16.13123321533203 15.01189136505127 16.082300186157227 14.923364639282227 16.0246524810791 14.887879371643066 C16.007097244262695 14.876922607421875 15.996015548706055 14.870074272155762 15.996015548706055 14.86359977722168 C15.996015548706055 14.852643013000488 16.00908851623535 14.84803581237793 16.03150177001953 14.84803581237793 C16.060138702392578 14.84803581237793 16.126874923706055 14.859989166259766 16.193239212036133 14.859989166259766 C16.26209259033203 14.859989166259766 16.321857452392578 14.84803581237793 16.348379135131836 14.84803581237793 C16.37726402282715 14.84803581237793 16.3928279876709 14.852643013000488 16.3928279876709 14.861358642578125 C16.3928279876709 14.870074272155762 16.379505157470703 14.876922607421875 16.357341766357422 14.892237663269043 C16.32845687866211 14.910290718078613 16.321857452392578 14.93021297454834 16.321857452392578 14.967813491821289 C16.321857452392578 15.003050804138184 16.35958480834961 15.091577529907227 16.404033660888672 15.180352210998535 L16.732240676879883 15.805143356323242 L16.732240676879883 15.805143356323242 M18.17618179321289 15.616510391235352 C18.17618179321289 15.862417221069336 18.21602439880371 15.972732543945312 18.269563674926758 15.988296508789062 C18.289485931396484 15.992654800415039 18.305049896240234 15.994894981384277 18.305049896240234 16.006099700927734 C18.305049896240234 16.0127010345459 18.289485931396484 16.015066146850586 18.27828025817871 16.015066146850586 C18.24030303955078 16.015066146850586 18.158626556396484 16.012203216552734 18.094627380371094 16.012203216552734 C17.981822967529297 16.012203216552734 17.935380935668945 16.015066146850586 17.910728454589844 16.015066146850586 C17.899768829345703 16.015066146850586 17.892921447753906 16.015066146850586 17.892921447753906 16.006099700927734 C17.892921447753906 15.994894981384277 17.908485412597656 15.988296508789062 17.930648803710938 15.979331016540527 C18.0062255859375 15.94409465789795 18.01282501220703 15.862417221069336 18.01282501220703 15.66544246673584 L18.01282501220703 15.01936149597168 C18.01282501220703 14.9749116897583 17.975099563598633 14.968561172485352 17.939613342285156 14.948639869689941 C17.92865753173828 14.944282531738281 17.91969108581543 14.942041397094727 17.91969108581543 14.935317993164062 C17.91969108581543 14.928718566894531 17.926292419433594 14.926602363586426 17.93525505065918 14.924360275268555 L18.176057815551758 14.860113143920898 L18.176057815551758 15.616510391235352 L18.17618179321289 15.616510391235352 L18.17618179321289 15.616510391235352 M18.197097778320312 14.586814880371094 A0.1057087704539299 0.1057087704539299 0.0 0 1 18.093008041381836 14.693146705627441 A0.10558426380157471 0.10558426380157471 0.0 0 1 17.989166259765625 14.586814880371094 C17.989166259765625 14.519952774047852 18.044326782226562 14.480109214782715 18.093008041381836 14.480109214782715 C18.14194107055664 14.480109214782715 18.197097778320312 14.519952774047852 18.197097778320312 14.586814880371094 M20.006973266601562 15.148602485656738 C20.002614974975586 15.164166450500488 19.99825668334961 15.168523788452148 19.991409301757812 15.168523788452148 C19.98269271850586 15.168523788452148 19.971487045288086 15.150718688964844 19.94036102294922 15.079998016357422 C19.893917083740234 14.936562538146973 19.69183921813965 14.887630462646484 19.56097984313965 14.883273124694824 C19.228290557861328 14.883273124694824 19.12419891357422 15.148602485656738 19.12419891357422 15.446928024291992 C19.12419891357422 15.729689598083496 19.270374298095703 15.988794326782227 19.578659057617188 15.988794326782227 C19.844985961914062 15.988794326782227 19.998132705688477 15.774015426635742 20.037853240966797 15.714499473571777 C20.046815872192383 15.696694374084473 20.055904388427734 15.690468788146973 20.0623779296875 15.690468788146973 C20.073335647583008 15.690468788146973 20.080184936523438 15.714499473571777 20.080184936523438 15.721097946166992 C20.080184936523438 15.729814529418945 20.075576782226562 15.738903045654297 20.07122039794922 15.745377540588379 C19.933761596679688 15.950818061828613 19.76504898071289 16.044448852539062 19.5389404296875 16.044448852539062 C19.197534561157227 16.044448852539062 18.91103744506836 15.79617691040039 18.91103744506836 15.44481086730957 C18.91103744506836 15.073772430419922 19.19068717956543 14.827615737915039 19.56110382080078 14.827615737915039 C19.80725860595703 14.836332321166992 20.011455535888672 14.912034034729004 20.062503814697266 14.96084213256836 L20.006973266601562 15.148602485656738 L20.006973266601562 15.148602485656738 M20.913776397705078 15.225424766540527 C20.962459564208984 15.011143684387207 21.086971282958984 14.883273124694824 21.322044372558594 14.883273124694824 C21.53196907043457 14.883273124694824 21.689224243164062 15.011143684387207 21.689224243164062 15.225424766540527 L20.913776397705078 15.225424766540527 M21.902509689331055 15.281330108642578 C21.875988006591797 14.982755661010742 21.598331451416016 14.827491760253906 21.309345245361328 14.827491760253906 C20.920499801635742 14.827491760253906 20.682687759399414 15.130549430847168 20.682687759399414 15.42040729522705 C20.682687759399414 15.756458282470703 20.938304901123047 16.044448852539062 21.282575607299805 16.044448852539062 C21.57903289794922 16.044448852539062 21.829919815063477 15.891054153442383 21.912221908569336 15.630331039428711 C21.918819427490234 15.612525939941406 21.92342758178711 15.592604637145996 21.92342758178711 15.575422286987305 C21.92342758178711 15.564215660095215 21.918819427490234 15.555500030517578 21.905620574951172 15.555500030517578 C21.8875675201416 15.555500030517578 21.878604888916016 15.5730562210083 21.876487731933594 15.586130142211914 C21.86341094970703 15.659341812133789 21.703540802001953 15.979331016540527 21.368488311767578 15.979331016540527 C21.018115997314453 15.979331016540527 20.895973205566406 15.714499473571777 20.895973205566406 15.389902114868164 C20.895973205566406 15.35441780090332 20.902570724487305 15.314325332641602 20.909046173095703 15.281455039978027 L21.902509689331055 15.281455039978027 L21.902509689331055 15.281330108642578 M23.51877212524414 15.097055435180664 C23.512170791625977 15.116728782653809 23.505447387695312 15.125568389892578 23.49884796142578 15.125568389892578 C23.487892150878906 15.125568389892578 23.48328399658203 15.110254287719727 23.472328186035156 15.075016975402832 C23.432235717773438 14.940546989440918 23.241111755371094 14.883397102355957 23.0965576171875 14.883397102355957 C22.943410873413086 14.883397102355957 22.776817321777344 14.951752662658691 22.776817321777344 15.112245559692383 C22.776817321777344 15.330387115478516 23.030193328857422 15.336986541748047 23.19454574584961 15.350309371948242 C23.381061553955078 15.367864608764648 23.631824493408203 15.392641067504883 23.631824493408203 15.638921737670898 C23.631824493408203 15.924423217773438 23.314449310302734 16.044574737548828 23.07439613342285 16.044574737548828 C22.87891387939453 16.044574737548828 22.676834106445312 16.024154663085938 22.503890991210938 15.926664352416992 L22.550582885742188 15.782979965209961 C22.568138122558594 15.72533130645752 22.577102661132812 15.707651138305664 22.590425491333008 15.707651138305664 C22.601381301879883 15.707651138305664 22.605987548828125 15.725456237792969 22.616945266723633 15.754093170166016 C22.678951263427734 15.937994003295898 22.898836135864258 15.989043235778809 23.070037841796875 15.989043235778809 C23.234390258789062 15.989043235778809 23.45452308654785 15.937994003295898 23.45452308654785 15.734172821044922 C23.45452308654785 15.517524719238281 23.205503463745117 15.515283584594727 23.0277042388916 15.504327774047852 C22.845794677734375 15.486148834228516 22.599266052246094 15.403847694396973 22.599266052246094 15.18309211730957 C22.599266052246094 14.91464900970459 22.91004180908203 14.827740669250488 23.130176544189453 14.827740669250488 C23.280956268310547 14.827740669250488 23.43883514404297 14.861358642578125 23.576419830322266 14.921123504638672 L23.51877212524414 15.097055435180664 M2.0632505416870117 12.157007217407227 L1.2575483322143555 12.157007217407227 L1.6567268371582031 11.367240905761719 L2.0632505416870117 12.157007217407227 L2.0632505416870117 12.157007217407227 M2.1126813888549805 12.252008438110352 L2.3293285369873047 12.701114654541016 C2.4205942153930664 12.879910469055176 2.5004053115844727 13.066426277160645 2.5004053115844727 13.13465690612793 C2.5004053115844727 13.230031967163086 2.4813547134399414 13.302247047424316 2.3940744400024414 13.33262825012207 C2.3636932373046875 13.340347290039062 2.3446435928344727 13.347943305969238 2.3446435928344727 13.363008499145508 C2.3446435928344727 13.370354652404785 2.3636932373046875 13.374214172363281 2.3827428817749023 13.374214172363281 C2.4055280685424805 13.374214172363281 2.5309104919433594 13.362510681152344 2.842557907104492 13.362510681152344 C3.0629396438598633 13.362510681152344 3.241610527038574 13.374214172363281 3.268132209777832 13.374214172363281 C3.3023719787597656 13.374214172363281 3.321422576904297 13.366619110107422 3.321422576904297 13.355537414550781 C3.321422576904297 13.336612701416016 3.275851249694824 13.321297645568848 3.2340164184570312 13.290793418884277 C3.119964599609375 13.203511238098145 3.0440139770507812 13.092822074890137 2.97939395904541 12.975160598754883 L1.8620433807373047 10.88090705871582 C1.854323387145996 10.865715980529785 1.8429937362670898 10.850400924682617 1.831538200378418 10.850400924682617 L1.8240680694580078 10.850400924682617 C1.816472053527832 10.850400924682617 1.8087530136108398 10.861856460571289 1.7974224090576172 10.88090705871582 L0.8662147521972656 12.693270683288574 C0.7825431823730469 12.856876373291016 0.5773515701293945 13.172882080078125 0.4253253936767578 13.294652938842773 C0.3986806869506836 13.313577651977539 0.35310935974121094 13.328892707824707 0.35310935974121094 13.355413436889648 C0.35310935974121094 13.366619110107422 0.3645648956298828 13.374090194702148 0.4025402069091797 13.374090194702148 C0.44811058044433594 13.374090194702148 0.546971321105957 13.362385749816895 0.6989974975585938 13.362385749816895 C0.9080495834350586 13.362385749816895 1.0448856353759766 13.374090194702148 1.0715312957763672 13.374090194702148 C1.0980510711669922 13.374090194702148 1.1172256469726562 13.370230674743652 1.1172256469726562 13.355413436889648 C1.1172256469726562 13.343957901000977 1.1057710647583008 13.336487770080566 1.0753908157348633 13.328892707824707 C0.9727954864501953 13.290668487548828 0.8701982498168945 13.249082565307617 0.8701982498168945 13.085227012634277 C0.8701982498168945 12.929091453552246 0.9349441528320312 12.784660339355469 1.0032997131347656 12.651434898376465 L1.2084922790527344 12.251883506774902 L2.1126813888549805 12.251883506774902 L2.1126813888549805 12.252008438110352 L2.1126813888549805 12.252008438110352 M5.2667622566223145 11.850837707519531 C5.247712135314941 11.911971092224121 5.232522487640381 11.953681945800781 5.221066951751709 11.953681945800781 C5.2096123695373535 11.953681945800781 5.205752849578857 11.930896759033203 5.198281764984131 11.908111572265625 C5.103156566619873 11.633193969726562 4.8979644775390625 11.397000312805176 4.50277042388916 11.397000312805176 C4.004856109619141 11.397000312805176 3.8261852264404297 11.908111572265625 3.8224496841430664 12.373404502868652 C3.8224496841430664 13.063562393188477 4.206312656402588 13.326651573181152 4.556060314178467 13.326651573181152 C4.8791632652282715 13.326651573181152 5.179356575012207 13.10589599609375 5.319928169250488 12.823507308959961 L5.380813121795654 12.884268760681152 C5.175621032714844 13.235136032104492 4.9170145988464355 13.421651840209961 4.5066304206848145 13.421651840209961 C3.860424041748047 13.421651840209961 3.3831796646118164 12.983627319335938 3.3831796646118164 12.37328052520752 C3.3831796646118164 11.763057708740234 3.860424041748047 11.325531005859375 4.5066304206848145 11.325531005859375 C4.723277568817139 11.325531005859375 5.168025970458984 11.415800094604492 5.354167938232422 11.553258895874023 L5.2667622566223145 11.850837707519531 L5.2667622566223145 11.850837707519531 M5.848596096038818 11.067546844482422 C5.848596096038818 10.862354278564453 5.806761264801025 10.79001522064209 5.723215103149414 10.778684616088867 C5.696694374084473 10.774949073791504 5.662454128265381 10.77083969116211 5.662454128265381 10.759385108947754 C5.662454128265381 10.74382209777832 5.692834377288818 10.740086555480957 5.727075099945068 10.7322416305542 A11.677270889282227 11.677270889282227 0.0 0 0 6.240179538726807 10.607110023498535 L6.240179538726807 11.850961685180664 L6.247774600982666 11.850961685180664 C6.3541059494018555 11.470211029052734 6.61246395111084 11.325779914855957 6.98063850402832 11.325779914855957 C7.39874267578125 11.325779914855957 7.790201187133789 11.542427062988281 7.790201187133789 12.147544860839844 L7.790201187133789 12.882400512695312 C7.78260612487793 13.244226455688477 7.83203649520874 13.297266960144043 7.942352294921875 13.33574104309082 C7.968872547149658 13.34333610534668 7.991657733917236 13.354666709899902 7.991657733917236 13.362260818481445 C7.991657733917236 13.374214172363281 7.972607612609863 13.374214172363281 7.934632778167725 13.374214172363281 C7.900516986846924 13.374214172363281 7.801656246185303 13.363258361816406 7.592604160308838 13.363258361816406 C7.387412071228027 13.363258361816406 7.250576019287109 13.374214172363281 7.201145648956299 13.374214172363281 C7.178360462188721 13.374214172363281 7.159310340881348 13.374214172363281 7.159310340881348 13.362260818481445 C7.159310340881348 13.354666709899902 7.166905403137207 13.34333610534668 7.1935505867004395 13.339351654052734 C7.330386638641357 13.324285507202148 7.39874267578125 13.221441268920898 7.39874267578125 12.882400512695312 L7.39874267578125 12.143808364868164 C7.39874267578125 11.793811798095703 7.242856502532959 11.420656204223633 6.84044075012207 11.420656204223633 C6.388345718383789 11.420656204223633 6.240179538726807 11.884953498840332 6.240179538726807 12.41810417175293 L6.240179538726807 12.882400512695312 C6.240179538726807 13.122206687927246 6.251509666442871 13.301127433776855 6.422586441040039 13.33200454711914 C6.44885778427124 13.335617065429688 6.46417236328125 13.34321117401123 6.46417236328125 13.354666709899902 C6.46417236328125 13.370230674743652 6.4528422355651855 13.374090194702148 6.4303059577941895 13.374090194702148 C6.403785228729248 13.374090194702148 6.247899055480957 13.36313247680664 6.0427069664001465 13.36313247680664 C5.837514877319336 13.36313247680664 5.662578582763672 13.374090194702148 5.6359333992004395 13.374090194702148 C5.613148212432861 13.374090194702148 5.601818084716797 13.370230674743652 5.601818084716797 13.354666709899902 C5.601818084716797 13.34321117401123 5.617132663726807 13.33574104309082 5.643653392791748 13.33200454711914 C5.833779811859131 13.301127433776855 5.8488450050354 13.122081756591797 5.8488450050354 12.882400512695312 L5.8488450050354 11.067546844482422 L5.848596096038818 11.067546844482422 L5.848596096038818 11.067546844482422 M8.775197982788086 11.85494613647461 L8.782793045043945 11.85494613647461 C8.908174514770508 11.492996215820312 9.17811107635498 11.325654983520508 9.547158241271973 11.325654983520508 C9.900641441345215 11.325654983520508 10.170578002929688 11.515657424926758 10.231338500976562 11.85494613647461 L10.238934516906738 11.85494613647461 C10.34526538848877 11.492996215820312 10.61545181274414 11.325654983520508 10.984125137329102 11.325654983520508 C11.330262184143066 11.325654983520508 11.691465377807617 11.481541633605957 11.691465377807617 12.19000244140625 L11.691465377807617 12.99757194519043 C11.691465377807617 13.226171493530273 11.721969604492188 13.294776916503906 11.839631080627441 13.33262825012207 C11.862417221069336 13.340347290039062 11.888937950134277 13.347943305969238 11.888937950134277 13.363008499145508 C11.888937950134277 13.370354652404785 11.858556747436523 13.374214172363281 11.835771560668945 13.374214172363281 C11.812986373901367 13.374214172363281 11.702795028686523 13.362510681152344 11.493742942810059 13.362510681152344 C11.288551330566406 13.362510681152344 11.132665634155273 13.374214172363281 11.113241195678711 13.374214172363281 C11.090456008911133 13.374214172363281 11.08286190032959 13.363008499145508 11.08286190032959 13.355537414550781 C11.08286190032959 13.344082832336426 11.094315528869629 13.340471267700195 11.109381675720215 13.33262825012207 C11.280707359313965 13.283321380615234 11.29975700378418 13.123451232910156 11.29975700378418 12.795493125915527 L11.29975700378418 12.02614688873291 C11.29975700378418 11.721471786499023 11.17811107635498 11.4205322265625 10.82811450958252 11.4205322265625 C10.367925643920898 11.4205322265625 10.253874778747559 11.98443603515625 10.253874778747559 12.346012115478516 L10.253874778747559 12.993837356567383 C10.253874778747559 13.184212684631348 10.276660919189453 13.302247047424316 10.413745880126953 13.325032234191895 C10.44425106048584 13.328892707824707 10.45931625366211 13.343957901000977 10.45931625366211 13.359272956848145 C10.45931625366211 13.370230674743652 10.432796478271484 13.374090194702148 10.41760540008545 13.374090194702148 C10.390960693359375 13.374090194702148 10.265205383300781 13.362385749816895 10.056278228759766 13.362385749816895 C9.851086616516113 13.362385749816895 9.725580215454102 13.374090194702148 9.683745384216309 13.374090194702148 C9.672290802001953 13.374090194702148 9.653365135192871 13.370230674743652 9.653365135192871 13.362883567810059 C9.653365135192871 13.3552885055542 9.66096019744873 13.343957901000977 9.676149368286133 13.34022331237793 C9.828300476074219 13.294528007507324 9.862541198730469 13.123327255249023 9.862541198730469 12.883023262023926 L9.862541198730469 12.025897979736328 C9.862541198730469 11.721222877502441 9.740771293640137 11.420282363891602 9.39114761352539 11.420282363891602 C8.93095874786377 11.420282363891602 8.816908836364746 11.984187126159668 8.816908836364746 12.346261024475098 L8.816908836364746 12.883148193359375 C8.816908836364746 13.12320327758789 8.84367847442627 13.298263549804688 8.995580673217773 13.332254409790039 C9.010770797729492 13.336114883422852 9.018489837646484 13.351180076599121 9.018489837646484 13.362634658813477 C9.018489837646484 13.373841285705566 8.999439239501953 13.373841285705566 8.96519947052002 13.373841285705566 C8.938678741455078 13.373841285705566 8.828363418579102 13.362136840820312 8.619436264038086 13.362136840820312 C8.414244651794434 13.362136840820312 8.353358268737793 13.373841285705566 8.322978973388672 13.373841285705566 C8.296333312988281 13.373841285705566 8.281143188476562 13.373841285705566 8.281143188476562 13.362634658813477 C8.281143188476562 13.34756851196289 8.292472839355469 13.339974403381348 8.307787895202637 13.332254409790039 C8.421838760375977 13.29041862487793 8.42557430267334 13.042893409729004 8.42557430267334 12.753782272338867 L8.42557430267334 11.828176498413086 C8.42557430267334 11.721844673156738 8.42557430267334 11.56558609008789 8.300068855285645 11.538941383361816 C8.273548126220703 11.535204887390137 8.23930835723877 11.531594276428223 8.23930835723877 11.520637512207031 C8.23930835723877 11.498847961425781 8.26968765258789 11.494988441467285 8.296333312988281 11.491501808166504 C8.475005149841309 11.45726203918457 8.634626388549805 11.419286727905273 8.775321960449219 11.366744041442871 L8.775321960449219 11.85494613647461 L8.775197982788086 11.85494613647461 L8.775197982788086 11.85494613647461 M12.594658851623535 12.038349151611328 C12.636493682861328 11.708024978637695 12.823009490966797 11.397000312805176 13.169520378112793 11.397000312805176 C13.565461158752441 11.397000312805176 13.74438190460205 11.661831855773926 13.74438190460205 12.038349151611328 L12.594658851623535 12.038349151611328 L12.594658851623535 12.038349151611328 M14.224491119384766 12.109569549560547 C14.170952796936035 11.577414512634277 13.668306350708008 11.325779914855957 13.253439903259277 11.325779914855957 C12.60611343383789 11.325779914855957 12.128743171691895 11.76567268371582 12.128743171691895 12.375645637512207 C12.128743171691895 12.984623908996582 12.60611343383789 13.42177677154541 13.253439903259277 13.42177677154541 C13.770901679992676 13.42177677154541 14.152027130126953 13.106393814086914 14.274045944213867 12.58133602142334 L14.193737030029297 12.58133602142334 C14.064123153686523 13.026084899902344 13.740397453308105 13.326651573181152 13.302745819091797 13.326651573181152 C12.933574676513672 13.326651573181152 12.568138122558594 13.064558982849121 12.568138122558594 12.356595993041992 C12.568138122558594 12.276784896850586 12.571748733520508 12.197098731994629 12.579343795776367 12.109569549560547 L14.224491119384766 12.109569549560547 L14.224491119384766 12.109569549560547 M16.082923889160156 12.4889497756958 C16.082923889160156 12.854510307312012 15.945963859558105 13.326775550842285 15.497354507446289 13.326775550842285 C15.227168083190918 13.326775550842285 15.02558708190918 13.125194549560547 15.02558708190918 12.846915245056152 C15.02558708190918 12.344269752502441 15.447799682617188 12.22237491607666 15.858307838439941 12.22237491607666 L16.083049774169922 12.22237491607666 L16.083049774169922 12.4889497756958 L16.082923889160156 12.4889497756958 M16.474382400512695 11.963643074035645 C16.474382400512695 11.481167793273926 16.018177032470703 11.325654983520508 15.584635734558105 11.325654983520508 C15.24609375 11.325654983520508 14.999065399169922 11.351926803588867 14.6882905960083 11.515283584594727 L14.78677749633789 11.859926223754883 C14.794496536254883 11.883086204528809 14.798232078552246 11.90201187133789 14.805703163146973 11.90201187133789 C14.813173294067383 11.90201187133789 14.82101821899414 11.871257781982422 14.836082458496094 11.837141036987305 C14.972296714782715 11.50021743774414 15.177489280700684 11.39687442779541 15.527485847473145 11.39687442779541 C15.911972045898438 11.39687442779541 16.082923889160156 11.657224655151367 16.082923889160156 12.024652481079102 L16.082923889160156 12.151155471801758 L15.86602783203125 12.151155471801758 C15.46672534942627 12.151155471801758 14.585943222045898 12.207557678222656 14.585943222045898 12.786154747009277 C14.585943222045898 13.239494323730469 14.991596221923828 13.42177677154541 15.38679027557373 13.42177677154541 C15.721471786499023 13.42177677154541 15.94222640991211 13.285064697265625 16.090518951416016 12.976530075073242 L16.098114013671875 12.976530075073242 A1.1134905815124512 1.1134905815124512 0.0 0 0 16.189254760742188 13.36275863647461 L16.599763870239258 13.36275863647461 C16.62653350830078 13.36275863647461 16.64906883239746 13.359148025512695 16.64906883239746 13.348441123962402 C16.64906883239746 13.337733268737793 16.634002685546875 13.337733268737793 16.611095428466797 13.326775550842285 C16.493431091308594 13.273735046386719 16.474382400512695 13.159684181213379 16.474382400512695 13.034177780151367 L16.474382400512695 11.963643074035645 L16.474382400512695 11.963643074035645" fill="black" fill-opacity="1.0" filling="0"/></svg>