<?xml version="1.0" encoding="iso-8859-1"?><svg height="200px" viewBox="0.0 0.0 24.0 24.0" width="200px" xmlns="http://www.w3.org/2000/svg"><path animation_id="0" d="M0.0 0.0 L24.0 0.0 L24.0 24.0 L0.0 24.0 L0.0 0.0" fill="black" fill-opacity="1.0" filling="0"/>
<path animation_id="1" d="M1.8458566665649414 10.600635528564453 C1.7259540557861328 10.499034881591797 1.5726823806762695 10.431053161621094 1.4126873016357422 10.431053161621094 C1.2927846908569336 10.431053161621094 1.1327896118164062 10.502272605895996 1.1327896118164062 10.6447114944458 C1.1327896118164062 10.793749809265137 1.3093442916870117 10.851522445678711 1.4227733612060547 10.888751029968262 L1.5892419815063477 10.939550399780273 C1.9392385482788086 11.044636726379395 2.209177017211914 11.224305152893066 2.209177017211914 11.637801170349121 C2.209177017211914 11.89217472076416 2.149163246154785 12.15314769744873 1.9491996765136719 12.326091766357422 C1.752598762512207 12.495549201965332 1.4892606735229492 12.566892623901367 1.236008644104004 12.566892623901367 C0.9195051193237305 12.566892623901367 0.6094751358032227 12.458195686340332 0.3528604507446289 12.275041580200195 L0.6328830718994141 11.73965072631836 C0.7962398529052734 11.885326385498047 0.9894790649414062 12.003985404968262 1.2127246856689453 12.003985404968262 C1.3659963607788086 12.003985404968262 1.5292282104492188 11.926040649414062 1.5292282104492188 11.746499061584473 C1.5292282104492188 11.559858322143555 1.2726144790649414 11.495736122131348 1.1326656341552734 11.454771995544434 C0.7227792739868164 11.336113929748535 0.45284175872802734 11.227790832519531 0.45284175872802734 10.732739448547363 C0.45284175872802734 10.214157104492188 0.8160371780395508 9.875116348266602 1.3191804885864258 9.875116348266602 C1.5724334716796875 9.875116348266602 1.882338523864746 9.956546783447266 2.1055850982666016 10.085289001464844 L1.8458566665649414 10.600635528564453 L1.8458566665649414 10.600635528564453 M2.1091957092285156 9.942975044250488 L2.892361640930176 9.942975044250488 L3.3622608184814453 10.637988090515137 L3.8321609497070312 9.942975044250488 L4.61532735824585 9.942975044250488 L3.6888504028320312 11.271742820739746 L3.6888504028320312 12.498910903930664 L3.035673141479492 12.498910903930664 L3.035673141479492 11.271742820739746 L2.1091957092285156 9.942975044250488 M6.011579513549805 10.600635528564453 C5.891676902770996 10.499034881591797 5.738405227661133 10.431053161621094 5.5784101486206055 10.431053161621094 C5.458507061004639 10.431053161621094 5.2985124588012695 10.502272605895996 5.2985124588012695 10.6447114944458 C5.2985124588012695 10.793749809265137 5.475067138671875 10.851522445678711 5.5883708000183105 10.888751029968262 L5.754964828491211 10.939550399780273 C6.104836940765381 11.044636726379395 6.37477445602417 11.224305152893066 6.37477445602417 11.637801170349121 C6.37477445602417 11.89217472076416 6.315010070800781 12.15314769744873 6.114922523498535 12.326091766357422 C5.9183220863342285 12.495549201965332 5.6551079750061035 12.566892623901367 5.401854991912842 12.566892623901367 C5.085227012634277 12.566892623901367 4.775322437286377 12.458195686340332 4.518707752227783 12.275041580200195 L4.798730373382568 11.73965072631836 C4.961962699890137 11.885326385498047 5.155325889587402 12.003985404968262 5.378572463989258 12.003985404968262 C5.531843662261963 12.003985404968262 5.695200443267822 11.926040649414062 5.695200443267822 11.746499061584473 C5.695200443267822 11.559858322143555 5.4385857582092285 11.495736122131348 5.2986369132995605 11.454771995544434 C4.8887505531311035 11.336113929748535 4.618813514709473 11.227790832519531 4.618813514709473 10.732739448547363 C4.618813514709473 10.214157104492188 4.982008457183838 9.875116348266602 5.485276699066162 9.875116348266602 C5.738529682159424 9.875116348266602 6.048434257507324 9.956546783447266 6.2716803550720215 10.085289001464844 L6.011579513549805 10.600635528564453 L6.011579513549805 10.600635528564453 M7.144618034362793 10.976903915405273 L7.151341915130615 10.976903915405273 C7.294652462005615 10.78366470336914 7.471083164215088 10.702484130859375 7.691091537475586 10.702484130859375 C7.937745094299316 10.702484130859375 8.151029586791992 10.804084777832031 8.274295806884766 11.034551620483398 C8.390960693359375 10.817530632019043 8.620929718017578 10.702484130859375 8.85426139831543 10.702484130859375 C9.287431716918945 10.702484130859375 9.437464714050293 10.990474700927734 9.437464714050293 11.390400886535645 L9.437464714050293 12.498910903930664 L8.830854415893555 12.498910903930664 L8.830854415893555 11.66855525970459 C8.830854415893555 11.488763809204102 8.837451934814453 11.194048881530762 8.580838203430176 11.194048881530762 C8.300939559936523 11.194048881530762 8.290854454040527 11.461620330810547 8.290854454040527 11.66855525970459 L8.290854454040527 12.498910903930664 L7.684243202209473 12.498910903930664 L7.684243202209473 11.66855525970459 C7.684243202209473 11.475440979003906 7.684243202209473 11.180228233337402 7.414430618286133 11.180228233337402 C7.144493579864502 11.180228233337402 7.144493579864502 11.475440979003906 7.144493579864502 11.66855525970459 L7.144493579864502 12.498910903930664 L6.53800630569458 12.498910903930664 L6.53800630569458 10.760007858276367 L7.144493579864502 10.760007858276367 L7.144493579864502 10.976903915405273 L7.144618034362793 10.976903915405273 M10.59378719329834 11.237876892089844 C10.840316772460938 11.237876892089844 10.983626365661621 11.417793273925781 10.983626365661621 11.631202697753906 C10.983626365661621 11.851584434509277 10.840316772460938 12.021291732788086 10.59378719329834 12.021291732788086 C10.347132682800293 12.021291732788086 10.203947067260742 11.851584434509277 10.203947067260742 11.631202697753906 C10.203947067260742 11.417793273925781 10.347132682800293 11.237876892089844 10.59378719329834 11.237876892089844 M11.57019329071045 10.760007858276367 L10.963706016540527 10.760007858276367 L10.963706016540527 10.929465293884277 C10.836955070495605 10.776941299438477 10.630393028259277 10.702360153198242 10.433792114257812 10.702360153198242 C9.927287101745605 10.702360153198242 9.577413558959961 11.129427909851074 9.577413558959961 11.627840995788574 C9.577413558959961 12.126004219055176 9.93388557434082 12.556683540344238 10.440390586853027 12.556683540344238 C10.64035415649414 12.556683540344238 10.850400924682617 12.478615760803223 10.956981658935547 12.305671691894531 L10.963706016540527 12.305671691894531 L10.963706016540527 12.498786926269531 L11.57019329071045 12.498786926269531 L11.57019329071045 10.760007858276367 L11.57019329071045 10.760007858276367 M12.446616172790527 11.044761657714844 L12.45346450805664 11.044761657714844 C12.570006370544434 10.83122730255127 12.769844055175781 10.736226081848145 13.006412506103516 10.736226081848145 L13.122954368591309 10.736226081848145 L13.122954368591309 11.329390525817871 C13.039780616760254 11.282076835632324 12.959970474243164 11.271742820739746 12.866338729858398 11.271742820739746 C12.530038833618164 11.271742820739746 12.446616172790527 11.49909782409668 12.446616172790527 11.797298431396484 L12.446616172790527 12.498910903930664 L11.840129852294922 12.498910903930664 L11.840129852294922 10.760007858276367 L12.446616172790527 10.760007858276367 L12.446616172790527 11.044761657714844 L12.446616172790527 11.044761657714844 M13.889435768127441 11.387163162231445 L14.519206047058105 10.760007858276367 L15.349187850952148 10.760007858276367 L14.492685317993164 11.563468933105469 L15.402229309082031 12.498910903930664 L14.552823066711426 12.498910903930664 L13.889435768127441 11.790450096130371 L13.889435768127441 12.498910903930664 L13.28294849395752 12.498910903930664 L13.28294849395752 9.68536376953125 L13.889435768127441 9.68536376953125 L13.889435768127441 11.387163162231445 L13.889435768127441 11.387163162231445 M17.438711166381836 11.936126708984375 L17.438711166381836 12.498910903930664 L15.419286727905273 12.498910903930664 L16.44549560546875 11.36325740814209 C16.592166900634766 11.200523376464844 16.732240676879883 10.97018051147461 16.732240676879883 10.736226081848145 C16.732240676879883 10.573492050170898 16.618938446044922 10.404033660888672 16.44549560546875 10.404033660888672 C16.26894187927246 10.404033660888672 16.172447204589844 10.542987823486328 16.172447204589844 10.71593189239502 C16.172447204589844 10.749797821044922 16.175559997558594 10.787026405334473 16.182157516479492 10.824378967285156 L15.462367057800293 10.824378967285156 C15.482538223266602 10.237937927246094 15.848970413208008 9.8412504196167 16.4421329498291 9.8412504196167 C16.968685150146484 9.8412504196167 17.412189483642578 10.193737983703613 17.412189483642578 10.749797821044922 C17.412189483642578 11.115856170654297 17.26190757751465 11.329390525817871 17.00554084777832 11.566706657409668 L16.61545181274414 11.936126708984375 L17.438711166381836 11.936126708984375 L17.438711166381836 11.936126708984375 M18.60810661315918 10.427691459655762 C18.944904327392578 10.427691459655762 19.02496337890625 10.97018051147461 19.02496337890625 11.217580795288086 C19.02496337890625 11.465106010437012 18.944904327392578 12.014193534851074 18.60810661315918 12.014193534851074 C18.271556854248047 12.014193534851074 18.191495895385742 11.465106010437012 18.191495895385742 11.217580795288086 C18.191495895385742 10.97018051147461 18.271556854248047 10.427691459655762 18.60810661315918 10.427691459655762 M18.60810661315918 9.841375350952148 C17.861793518066406 9.841375350952148 17.54180335998535 10.556683540344238 17.54180335998535 11.22119140625 C17.54180335998535 11.885575294494629 17.85868263244629 12.600884437561035 18.60810661315918 12.600884437561035 C19.358028411865234 12.600884437561035 19.67465591430664 11.885575294494629 19.67465591430664 11.22119140625 C19.674781799316406 10.556683540344238 19.354915618896484 9.841375350952148 18.60810661315918 9.841375350952148" fill="black" fill-opacity="1.0" filling="0"/>
<path animation_id="2" d="M20.594409942626953 10.427691459655762 C20.930957794189453 10.427691459655762 21.01102066040039 10.97018051147461 21.01102066040039 11.217580795288086 C21.01102066040039 11.465106010437012 20.930957794189453 12.014193534851074 20.594409942626953 12.014193534851074 C20.25786018371582 12.014193534851074 20.177799224853516 11.465106010437012 20.177799224853516 11.217580795288086 C20.17792510986328 10.97018051147461 20.25786018371582 10.427691459655762 20.594409942626953 10.427691459655762 M20.594409942626953 9.841375350952148 C19.848098754882812 9.841375350952148 19.52785873413086 10.556683540344238 19.52785873413086 11.22119140625 C19.52785873413086 11.885575294494629 19.844486236572266 12.600884437561035 20.594409942626953 12.600884437561035 C21.34433364868164 12.600884437561035 21.66071128845215 11.885575294494629 21.66071128845215 11.22119140625 C21.66083526611328 10.556683540344238 21.34096908569336 9.841375350952148 20.594409942626953 9.841375350952148" fill="black" fill-opacity="1.0" filling="0"/>
<path animation_id="3" d="M22.580463409423828 10.427691459655762 C22.917015075683594 10.427691459655762 22.997074127197266 10.97018051147461 22.997074127197266 11.217580795288086 C22.997074127197266 11.465106010437012 22.917015075683594 12.014193534851074 22.580463409423828 12.014193534851074 C22.243913650512695 12.014193534851074 22.164104461669922 11.465106010437012 22.164104461669922 11.217580795288086 C22.164226531982422 10.97018051147461 22.243913650512695 10.427691459655762 22.580463409423828 10.427691459655762 M22.580463409423828 9.841375350952148 C21.834152221679688 9.841375350952148 21.514163970947266 10.556683540344238 21.514163970947266 11.22119140625 C21.514163970947266 11.885575294494629 21.830791473388672 12.600884437561035 22.580463409423828 12.600884437561035 C23.330387115478516 12.600884437561035 23.647014617919922 11.885575294494629 23.647014617919922 11.22119140625 C23.647140502929688 10.556683540344238 23.327150344848633 9.841375350952148 22.580463409423828 9.841375350952148 M14.968437194824219 10.594160079956055 C14.798979759216309 10.594160079956055 14.672477722167969 10.468530654907227 14.672477722167969 10.29297161102295 C14.672477722167969 10.115670204162598 14.798979759216309 9.990039825439453 14.968437194824219 9.990039825439453 C15.135030746459961 9.990039825439453 15.264396667480469 10.115670204162598 15.264396667480469 10.29297161102295 C15.264396667480469 10.468530654907227 15.135030746459961 10.594160079956055 14.968437194824219 10.594160079956055 M14.968437194824219 10.68779182434082 C15.184087753295898 10.68779182434082 15.356534004211426 10.511361122131348 15.356534004211426 10.2928466796875 C15.356534004211426 10.072464942932129 15.184087753295898 9.896035194396973 14.968437194824219 9.896035194396973 C14.751789093017578 9.896035194396973 14.580339431762695 10.072464942932129 14.580339431762695 10.2928466796875 C14.580339431762695 10.511361122131348 14.751789093017578 10.68779182434082 14.968437194824219 10.68779182434082 M15.05671501159668 10.319866180419922 C15.128183364868164 10.3147611618042 15.166407585144043 10.28400707244873 15.166407585144043 10.20818042755127 C15.166407585144043 10.099483489990234 15.10265827178955 10.082550048828125 15.009525299072266 10.082550048828125 L14.813547134399414 10.082550048828125 L14.813547134399414 10.493183135986328 L14.903816223144531 10.493183135986328 L14.903816223144531 10.319741249084473 L14.966569900512695 10.319741249084473 L15.056838989257812 10.493183135986328 L15.154829025268555 10.493183135986328 L15.05671501159668 10.319866180419922 M14.903691291809082 10.258233070373535 L14.903691291809082 10.15439224243164 L14.990973472595215 10.15439224243164 C15.030069351196289 10.15439224243164 15.082115173339844 10.15439224243164 15.082115173339844 10.196352005004883 C15.082115173339844 10.248147964477539 15.05659008026123 10.258233070373535 15.011642456054688 10.258233070373535 L14.903691291809082 10.258233070373535 L14.903691291809082 10.258233070373535" fill="black" fill-opacity="1.0" filling="0"/></svg>