<?xml version="1.0" encoding="iso-8859-1"?><svg height="200px" viewBox="0.0 0.0 24.0 24.0" width="200px" xmlns="http://www.w3.org/2000/svg"><path animation_id="0" d="M0.0 0.0 L24.0 0.0 L24.0 24.0 L0.0 24.0 L0.0 0.0" fill="black" fill-opacity="1.0" filling="0"/>
<path animation_id="1" d="M23.419036865234375 13.525368690490723 C23.130176544189453 14.33779525756836 22.353857040405273 14.861234664916992 21.07227897644043 14.861234664916992 C20.007097244262695 14.861234664916992 18.95996856689453 14.247650146484375 19.23090362548828 12.821391105651855 C19.429370880126953 11.612028121948242 20.53066062927246 10.817656517028809 21.7943115234375 10.817656517028809 C23.202392578125 10.817656517028809 23.834152221679688 11.774389266967773 23.59945297241211 12.911535263061523 L23.545166015625 13.16441535949707 L20.89161491394043 13.16441535949707 C20.89161491394043 13.200398445129395 20.85563087463379 13.326900482177734 20.85563087463379 13.453028678894043 C20.85563087463379 13.796177864074707 21.03604507446289 13.922430992126465 21.25269317626953 13.922430992126465 C21.487394332885742 13.922430992126465 21.70404052734375 13.77824878692627 21.812240600585938 13.525368690490723 L23.419036865234375 13.525368690490723 L23.419036865234375 13.525368690490723 M22.06499481201172 12.370291709899902 L22.083171844482422 12.279773712158203 C22.137210845947266 11.972857475280762 21.99265480041504 11.75633430480957 21.686111450195312 11.75633430480957 C21.397249221801758 11.75633430480957 21.144245147705078 11.954927444458008 21.07227897644043 12.370291709899902 L22.06499481201172 12.370291709899902 M18.978273391723633 10.88974666595459 C18.562908172607422 10.88974666595459 18.23806381225586 11.106393814086914 18.021291732788086 11.413310050964355 L17.985309600830078 11.413310050964355 L18.057525634765625 10.925854682922363 L16.3426513671875 10.925854682922363 L16.234203338623047 11.431364059448242 L17.172882080078125 11.323040962219238 L17.154829025268555 11.413434982299805 L16.198095321655273 11.575920104980469 L15.53010082244873 14.753034591674805 L17.371475219726562 14.753034591674805 C17.371475219726562 14.753034591674805 17.551889419555664 13.83228588104248 17.678390502929688 13.308722496032715 C17.858806610107422 12.442258834838867 18.328208923339844 12.261844635009766 18.63512420654297 12.261844635009766 C18.906057357788086 12.261844635009766 19.068416595458984 12.370291709899902 19.10452651977539 12.406275749206543 L19.411441802978516 10.998194694519043 C19.375335693359375 10.980140686035156 19.23090362548828 10.88974666595459 18.978273391723633 10.88974666595459 M2.225860595703125 12.514474868774414 C1.4857749938964844 12.279773712158203 0.9261035919189453 11.846604347229004 0.9261035919189453 11.01624870300293 C0.9261035919189453 9.806760787963867 2.135591506958008 9.120712280273438 3.7603187561035156 9.102659225463867 C5.1142377853393555 9.102659225463867 6.034862995147705 9.680383682250977 5.872377872467041 10.817656517028809 L3.9226789474487305 10.817656517028809 C3.9948949813842773 10.51073932647705 3.814356803894043 10.3302001953125 3.4713315963745117 10.3302001953125 C3.218576431274414 10.3302001953125 3.0199832916259766 10.45657730102539 2.9838762283325195 10.619062423706055 C2.9477672576904297 10.835709571838379 3.0921993255615234 10.980015754699707 3.4352245330810547 11.07041072845459 C3.724085807800293 11.160679817199707 3.9226789474487305 11.214841842651367 4.2114176750183105 11.287057876586914 C5.041773319244385 11.539812088012695 5.438959121704102 12.027143478393555 5.529228687286377 12.532776832580566 L3.0921993255615234 12.785407066345215 L2.225860595703125 12.514474868774414 L2.225860595703125 12.514474868774414 M2.298076629638672 13.83228588104248 L2.460561752319336 13.056092262268066 L0.36655712127685547 13.056092262268066 C0.22212505340576172 14.355849266052246 1.2510738372802734 14.897466659545898 2.5869388580322266 14.897466659545898 C3.8504629135131836 14.897466659545898 5.20438289642334 14.46417236328125 5.493370056152344 13.308722496032715 L2.298076629638672 13.83228588104248 M13.147481918334961 11.196663856506348 C13.291664123535156 11.088339805603027 13.652867317199707 10.817656517028809 14.19435977935791 10.817656517028809 C14.753907203674316 10.817656517028809 15.187324523925781 11.052356719970703 15.385669708251953 11.503580093383789 L11.125443458557129 11.954927444458008 L11.685114860534668 9.247089385986328 L13.526365280151367 9.247089385986328 L13.111249923706055 11.196663856506348 L13.147481918334961 11.196663856506348 L13.147481918334961 11.196663856506348 M13.039033889770508 12.081304550170898 C12.930834770202637 12.243789672851562 12.8223876953125 12.47836685180664 12.750171661376953 12.821266174316406 C12.587686538696289 13.579530715942383 12.768350601196289 13.77824878692627 12.985121726989746 13.77824878692627 C13.291788101196289 13.77824878692627 13.544668197631836 13.489385604858398 13.670920372009277 12.83932113647461 C13.743136405944824 12.424205780029297 13.725207328796387 12.117288589477539 13.616883277893066 11.991035461425781 L15.458009719848633 11.702173233032227 C15.54827880859375 11.991035461425781 15.566457748413086 12.370291709899902 15.476187705993652 12.785407066345215 C15.205254554748535 14.157256126403809 14.374773979187012 14.861234664916992 13.454398155212402 14.861234664916992 C13.039033889770508 14.861234664916992 12.569757461547852 14.753034591674805 12.389217376708984 14.301687240600586 L12.334931373596191 14.301687240600586 L12.190499305725098 14.753034591674805 L10.529788970947266 14.753034591674805 L11.017245292663574 12.406275749206543 L13.039033889770508 12.081304550170898 M8.435659408569336 13.399115562438965 C8.381498336791992 13.687729835510254 8.183029174804688 13.922430992126465 7.9122209548950195 13.922430992126465 C7.641412258148193 13.922430992126465 7.533088684082031 13.706032752990723 7.5691962242126465 13.471331596374512 C7.623358249664307 13.272614479064941 7.821950912475586 13.074021339416504 8.201083183288574 13.074021339416504 L8.507875442504883 13.074021339416504 L8.435659408569336 13.399115562438965 M7.9663825035095215 12.081304550170898 C8.020544052124023 11.846604347229004 8.201083183288574 11.666065216064453 8.435784339904785 11.666065216064453 C8.652430534362793 11.666065216064453 8.760754585266113 11.86465835571289 8.70659351348877 12.063375473022461 L8.688538551330566 12.207557678222656 L10.403411865234375 12.027143478393555 C10.277034759521484 11.14262580871582 9.464733123779297 10.763493537902832 8.507875442504883 10.763493537902832 C7.081740856170654 10.763493537902832 6.395816802978516 11.467472076416016 6.25138521194458 12.099359512329102 L6.233331203460693 12.189504623413086 L7.948328971862793 12.189504623413086 L7.9663825035095215 12.081304550170898 L7.9663825035095215 12.081304550170898 M5.854323863983154 13.254685401916504 A1.3783228397369385 1.3783228397369385 0.0 0 0 5.764053821563721 13.742016792297363 C5.764053821563721 14.33779525756836 6.215401649475098 14.861109733581543 6.973541736602783 14.861109733581543 C7.659465789794922 14.861109733581543 8.056652069091797 14.57249641418457 8.237191200256348 14.373778343200684 L8.255245208740234 14.373778343200684 L8.219137191772461 14.752910614013672 L9.952188491821289 14.752910614013672 L10.367303848266602 12.74905014038086 C10.385358810424805 12.676836013793945 10.403411865234375 12.586565017700195 10.421464920043945 12.514349937438965 L5.854323863983154 13.254685401916504 L5.854323863983154 13.254685401916504" fill="black" fill-opacity="1.0" filling="0"/></svg>