<?xml version="1.0" encoding="iso-8859-1"?><svg height="200px" viewBox="0.0 0.0 24.0 24.0" width="200px" xmlns="http://www.w3.org/2000/svg"><path animation_id="0" d="M0.0 0.0 L24.0 0.0 L24.0 24.0 L0.0 24.0 L0.0 0.0" fill="black" fill-opacity="1.0" filling="0"/>
<path animation_id="1" d="M11.94770622253418 18.8101863861084 C19.49112892150879 18.8101863861084 23.647140502929688 16.086036682128906 23.647140502929688 12.000123977661133 C23.647140502929688 8.05366325378418 18.827491760253906 5.189939498901367 11.94770622253418 5.189939498901367 C5.032808780670166 5.189939498901367 0.3529853820800781 7.913963794708252 0.3529853820800781 12.000123977661133 C0.3528604507446289 16.086036682128906 4.648571491241455 18.8101863861084 11.94770622253418 18.8101863861084" fill="black" fill-opacity="1.0" filling="0"/>
<path animation_id="2" d="M18.618066787719727 6.866214275360107 C17.849592208862305 5.713752269744873 16.871816635131836 5.853452205657959 15.754342079162598 5.95828914642334 C14.636618614196777 6.097989559173584 9.991783142089844 7.0758891105651855 6.324846267700195 11.19691276550293 C2.657909393310547 15.317935943603516 4.019922256469727 19.19454574584961 9.607669830322266 17.79742431640625 C13.484155654907227 16.85463523864746 14.846292495727539 15.632074356079102 17.220943450927734 13.29216194152832 C19.875242233276367 10.742825508117676 17.884578704833984 8.682313919067383 15.789080619812012 9.10141372680664 C13.588993072509766 9.520512580871582 11.633318901062012 10.637988090515137 10.550581932067871 11.581025123596191 C9.502832412719727 12.52406120300293 8.76947021484375 13.711511611938477 8.629770278930664 14.444748878479004 C8.490071296691895 15.17823600769043 8.944032669067383 15.07339859008789 9.153582572937012 14.54958724975586 C9.36313247680664 13.990785598754883 9.817095756530762 12.943161964416504 10.934694290161133 12.139824867248535 C12.087282180786133 11.336612701416016 13.414430618286133 10.638113021850586 14.671606063842773 10.53339958190918 C15.928780555725098 10.428688049316406 16.522441864013672 11.406462669372559 15.649505615234375 12.52406120300293 C14.776443481445312 13.606673240661621 12.541119575500488 15.806761741638184 9.572683334350586 16.78466033935547 C7.128058433532715 17.55313491821289 4.159497261047363 17.727697372436523 5.277096271514893 14.444748878479004 C6.359708786010742 11.197036743164062 11.772894859313965 8.472888946533203 13.449169158935547 8.053788185119629 C15.125693321228027 7.634688854217529 17.290916442871094 7.460001468658447 17.989416122436523 7.494988441467285 C18.687915802001953 7.494863986968994 18.618066787719727 6.866214275360107 18.618066787719727 6.866214275360107 L18.618066787719727 6.866214275360107" fill="black" fill-opacity="1.0" filling="0"/>
<path animation_id="3" d="M17.221067428588867 13.606549263000488 C17.36089324951172 12.908173561096191 18.86260223388672 9.660088539123535 18.89759063720703 9.52038860321045 C18.932327270507812 9.3458251953125 18.44363021850586 9.101288795471191 18.164104461669922 9.3458251953125 C18.059267044067383 9.275976181030273 17.745128631591797 10.183900833129883 17.430618286132812 10.777688026428223 C17.18620491027832 10.288738250732422 16.80196762084961 10.393575668334961 16.80196762084961 10.393575668334961 C16.69713020324707 10.358713150024414 16.59229278564453 10.393575668334961 16.487829208374023 10.393575668334961 C15.579779624938965 10.568262100219727 14.776567459106445 11.511175155639648 14.636743545532227 12.419224739074707 C14.531906127929688 12.97802448272705 14.741580963134766 13.466849327087402 15.230653762817383 13.746249198913574 C15.544792175292969 13.920811653137207 16.2432918548584 13.676399230957031 16.48795509338379 13.36201286315918 C16.62752914428711 13.187698364257812 16.48795509338379 13.39699935913086 16.59254264831543 13.641411781311035 C16.697254180908203 13.85096263885498 16.90680503845215 13.78123664855957 17.221067428588867 13.606549263000488 L17.221067428588867 13.606549263000488 M16.871816635131836 11.89528751373291 C16.76698112487793 12.174811363220215 16.487829208374023 12.698624610900879 16.41785430908203 12.838199615478516 C16.278278350830078 13.152586936950684 16.13845443725586 13.432110786437988 15.649629592895508 13.466849327087402 C15.30038070678711 13.257423400878906 15.509805679321289 12.838199615478516 15.579779624938965 12.628898620605469 C15.684617042541504 12.3145112991333 15.89391803741455 11.755712509155273 16.103591918945312 11.371599197387695 C16.173442840576172 11.23189926147461 16.382991790771484 10.952499389648438 16.557554244995117 10.812800407409668 C16.662391662597656 10.603250503540039 17.011518478393555 10.638236999511719 17.08136749267578 10.987486839294434 C17.15121841430664 11.336488723754883 16.94154167175293 11.685737609863281 16.871816635131836 11.89528751373291 L16.871816635131836 11.89528751373291 M14.462056159973145 10.917387962341309 C14.462056159973145 10.917387962341309 14.42731761932373 10.603124618530273 14.077818870544434 10.393450736999512 C13.9032564163208 10.253750801086426 13.519268035888672 10.288738250732422 13.519268035888672 10.288738250732422 C13.414430618286133 10.253750801086426 13.30959415435791 10.323600769042969 13.204880714416504 10.323600769042969 C12.296831130981445 10.49828815460205 11.493618965148926 11.406213760375977 11.353919982910156 12.314262390136719 C11.24920654296875 12.873062133789062 11.458756446838379 13.396875381469727 11.94770622253418 13.641286849975586 C12.541243553161621 13.95567512512207 13.2398681640625 13.676275253295898 13.693955421447754 13.257299423217773 C14.39233112335205 12.66351318359375 14.741456031799316 11.790450096130371 14.462056159973145 10.917387962341309 L14.462056159973145 10.917387962341309 M13.589118003845215 11.825437545776367 C13.484281539916992 12.06985092163086 13.13515567779541 12.69849967956543 13.065305709838867 12.838075637817383 C12.925480842590332 13.15246295928955 12.7509183883667 13.571561813354492 12.262093544006348 13.431986808776855 C11.912718772888184 13.222311973571777 12.122268676757812 12.803337097167969 12.192118644714355 12.628774642944336 C12.296956062316895 12.314387321472168 12.611343383789062 11.650874137878418 12.820768356323242 11.30150032043457 C12.890742301940918 11.126937866210938 13.100168228149414 10.847537994384766 13.274730682373047 10.70783805847168 C13.414555549621582 10.49828815460205 13.728693962097168 10.568138122558594 13.798791885375977 10.917387962341309 C13.9032564163208 11.231775283813477 13.658843040466309 11.580900192260742 13.589118003845215 11.825437545776367 L13.589118003845215 11.825437545776367 M7.896407604217529 8.71717643737793 C7.9662580490112305 8.891738891601562 8.036108016967773 9.101288795471191 7.931395530700684 9.275976181030273 C7.896407604217529 9.310962677001953 7.8265581130981445 9.310962677001953 7.7916951179504395 9.275976181030273 C7.617008209228516 9.136276245117188 7.756708145141602 8.787025451660156 7.477432727813721 8.71717643737793 C6.953495979309082 8.542613983154297 6.534395694732666 9.031438827514648 6.185270309448242 9.41567611694336 L5.8011579513549805 9.90462589263916 L5.312208652496338 10.6728515625 L4.962958335876465 11.266637802124023 L4.718545913696289 11.930150032043457 C4.613832950592041 12.314262390136719 4.439146041870117 12.873187065124512 4.788395881652832 13.152586936950684 C5.102783203125 13.327150344848633 5.417045593261719 13.117599487304688 5.6265950202941895 12.908173561096191 L5.940982341766357 12.523937225341797 L6.429932117462158 11.755587577819824 L7.09344482421875 10.568262100219727 C7.442694664001465 10.04432487487793 7.931643962860107 9.310962677001953 8.630144119262695 9.241113662719727 C8.699994087219238 9.275976181030273 8.734856605529785 9.275976181030273 8.769844055175781 9.310962677001953 C8.734856605529785 9.485526084899902 8.5951566696167 9.590363502502441 8.525306701660156 9.764925956726074 L8.106206893920898 10.777688026428223 L7.19815731048584 12.977899551391602 C6.709207534790039 14.025525093078613 5.696445465087891 15.212974548339844 4.40428352355957 15.177987098693848 A1.3251571655273438 1.3251571655273438 0.0 0 1 3.11212158203125 14.409762382507324 C2.937434196472168 14.095375061035156 2.8327207565307617 13.676275253295898 3.007284164428711 13.292037963867188 C3.042146682739258 13.222187995910645 3.11212158203125 13.222187995910645 3.1818466186523438 13.222187995910645 C3.3913965225219727 13.361763954162598 3.2516965866088867 13.606424331665039 3.2866830825805664 13.780987739562988 C3.3215465545654297 14.165224075317383 3.5660839080810547 14.549212455749512 3.9501962661743164 14.689037322998047 C4.264458656311035 14.86359977722168 4.683683395385742 14.75888729095459 4.962958335876465 14.549212455749512 C5.382058620452881 14.165224075317383 5.661458492279053 13.746000289916992 5.8360209465026855 13.291913032531738 L5.8011579513549805 13.257174491882324 C5.416921138763428 13.57131290435791 4.99782133102417 13.746000289916992 4.474008560180664 13.641162872314453 C4.124758720397949 13.536575317382812 3.7755088806152344 13.187325477600098 3.6706724166870117 12.803213119506836 C3.321422576904297 11.406213760375977 4.089771747589111 10.21876335144043 5.032683849334717 9.240988731384277 C5.661334037780762 8.68218994140625 6.429683208465576 8.298076629638672 7.302745819091797 8.367926597595215 C7.547282695770264 8.402914047241211 7.756708145141602 8.50775146484375 7.896407604217529 8.71717643737793 L7.896407604217529 8.71717643737793 M19.945091247558594 10.637988090515137 L19.910104751586914 10.777688026428223 L18.967315673828125 12.977899551391602 C18.967315673828125 13.08273696899414 18.897464752197266 13.222311973571777 18.967315673828125 13.36188793182373 C19.037166595458984 13.431861877441406 19.14188003540039 13.396875381469727 19.211729049682617 13.396875381469727 C19.5261173248291 13.292037963867188 19.73554229736328 12.977899551391602 19.8753662109375 12.69849967956543 L20.189502716064453 12.104837417602539 L20.783414840698242 10.812551498413086 C20.818153381347656 10.742700576782227 20.818153381347656 10.60300064086914 20.922990798950195 10.568138122558594 C21.167404174804688 10.568138122558594 21.51665496826172 10.463301658630371 21.691463470458984 10.6728515625 L21.656478881835938 10.777688026428223 L20.783414840698242 12.873187065124512 L20.259601593017578 13.99066162109375 C19.910104751586914 14.584573745727539 19.456140518188477 15.387785911560059 18.652929306030273 15.492498397827148 C18.19896697998047 15.527236938476562 17.77986717224121 15.422648429870605 17.53545379638672 15.038536071777344 C17.395877838134766 14.863972663879395 17.32577896118164 14.619312286376953 17.395877838134766 14.409886360168457 C17.430618286132812 14.340036392211914 17.465728759765625 14.305048942565918 17.53545379638672 14.340036392211914 C17.675029754638672 14.47961139678955 17.605304718017578 14.724023818969727 17.710018157958984 14.863848686218262 C17.884578704833984 15.038411140441895 18.059267044067383 15.143248558044434 18.268815994262695 15.143248558044434 C18.932205200195312 15.003423690795898 19.211605072021484 14.235198974609375 19.491004943847656 13.711386680603027 L19.491004943847656 13.676399230957031 C19.141754150390625 13.88607406616211 18.68779182434082 13.955799102783203 18.30355453491211 13.78123664855957 C18.05914306640625 13.606673240661621 18.024154663085938 13.29216194152832 18.05914306640625 12.97802448272705 L18.16398048400879 12.628774642944336 L19.07202911376953 10.637988090515137 C19.211605072021484 10.393575668334961 19.560853958129883 10.533275604248047 19.80551528930664 10.533275604248047 C19.8753662109375 10.533275604248047 19.945091247558594 10.568138122558594 19.945091247558594 10.637988090515137 L19.945091247558594 10.637988090515137 M11.109506607055664 10.917387962341309 C11.109506607055664 10.917387962341309 11.039656639099121 10.603124618530273 10.725393295288086 10.393450736999512 C10.550830841064453 10.253750801086426 10.131607055664062 10.253750801086426 10.131607055664062 10.253750801086426 C10.026893615722656 10.253750801086426 9.95704460144043 10.288738250732422 9.85220718383789 10.288738250732422 C8.909295082092285 10.463301658630371 8.10608196258545 11.40633773803711 7.9663825035095215 12.279524803161621 C7.8965325355529785 12.838075637817383 8.071094512939453 13.36188793182373 8.560169219970703 13.606549263000488 C9.153831481933594 13.920687675476074 9.852331161499023 13.641286849975586 10.34128189086914 13.222311973571777 C11.004669189453125 12.628774642944336 11.353919982910156 11.755587577819824 11.109506607055664 10.917387962341309 L11.109506607055664 10.917387962341309 M10.201457023620605 11.790450096130371 C10.096744537353516 12.034862518310547 9.782357215881348 12.66351318359375 9.712507247924805 12.803337097167969 C9.572807312011719 13.117474555969238 9.398244857788086 13.536824226379395 8.874307632446289 13.39699935913086 C8.525057792663574 13.222436904907227 8.769594192504883 12.803337097167969 8.839445114135742 12.59378719329834 C8.944157600402832 12.279648780822754 9.258544921875 11.615887641906738 9.433231353759766 11.266637802124023 C9.537943840026855 11.09207534790039 9.712632179260254 10.812675476074219 9.88719367980957 10.6728515625 C10.026893615722656 10.49828815460205 10.341156959533691 10.533150672912598 10.445870399475098 10.882400512695312 C10.515844345092773 11.231775283813477 10.306169509887695 11.580900192260742 10.201457023620605 11.790450096130371 L10.201457023620605 11.790450096130371 M21.691463470458984 11.930150032043457 A0.6259104609489441 0.6259104609489441 0.0 0 1 22.32011604309082 11.30150032043457 A0.6260349750518799 0.6260349750518799 0.0 0 1 22.94876480102539 11.930150032043457 C22.94876480102539 12.314262390136719 22.66936492919922 12.59378719329834 22.32011604309082 12.59378719329834 C21.97061538696289 12.593663215637207 21.691463470458984 12.314262390136719 21.691463470458984 11.930150032043457 M22.32011604309082 12.733611106872559 C22.739089965820312 12.733611106872559 23.123327255249023 12.384112358093262 23.123327255249023 11.930150032043457 C23.123327255249023 11.476187705993652 22.739089965820312 11.161925315856934 22.32011604309082 11.161925315856934 C21.900890350341797 11.161925315856934 21.51665496826172 11.476187705993652 21.51665496826172 11.930150032043457 C21.51665496826172 12.384112358093262 21.90076446533203 12.733611106872559 22.32011604309082 12.733611106872559 M22.145177841186523 12.000123977661133 L22.319990158081055 12.000123977661133 L22.564403533935547 12.384112358093262 L22.7039794921875 12.384112358093262 L22.459566116333008 12.000123977661133 C22.59914207458496 11.965137481689453 22.669239044189453 11.89528751373291 22.669239044189453 11.755587577819824 C22.669239044189453 11.581025123596191 22.564403533935547 11.476187705993652 22.3548526763916 11.476187705993652 L22.005603790283203 11.476187705993652 L22.005603790283203 12.384112358093262 L22.145177841186523 12.384112358093262 L22.145177841186523 12.000123977661133 M22.145177841186523 11.89528751373291 L22.145177841186523 11.615887641906738 L22.3548526763916 11.615887641906738 C22.42470359802246 11.615887641906738 22.529417037963867 11.615887641906738 22.529417037963867 11.755587577819824 C22.529417037963867 11.860424995422363 22.424577713012695 11.89528751373291 22.319990158081055 11.89528751373291 L22.145177841186523 11.89528751373291" fill="black" fill-opacity="1.0" filling="0"/></svg>