<?xml version="1.0" encoding="iso-8859-1"?><svg height="200px" viewBox="0.0 0.0 24.0 24.0" width="200px" xmlns="http://www.w3.org/2000/svg"><path animation_id="0" d="M0.0 0.0 L24.0 0.0 L24.0 24.0 L0.0 24.0 L0.0 0.0" fill="black" fill-opacity="1.0" filling="0"/>
<path animation_id="1" d="M20.414493560791016 11.82307243347168 L21.157939910888672 11.82307243347168 L21.535579681396484 10.678329467773438 C20.50887107849121 10.6076078414917 19.529354095458984 10.77270793914795 18.868579864501953 12.023781776428223 L18.726764678955078 10.713689804077148 L17.381561279296875 10.713689804077148 L15.257299423217773 13.652369499206543 L16.508249282836914 13.652369499206543 L16.697006225585938 13.3926420211792 L17.617753982543945 13.3926420211792 L17.605802536010742 13.675901412963867 L18.892236709594727 13.675901412963867 L18.892236709594727 13.25107479095459 C18.974912643432617 13.345452308654785 19.258047103881836 13.79381275177002 20.50887107849121 13.687604904174805 L20.874805450439453 12.660897254943848 L20.249393463134766 12.625661849975586 C19.90699005126953 12.590051651000977 19.71823501586914 12.070845603942871 20.414493560791016 11.82307243347168 L20.414493560791016 11.82307243347168 M17.58214569091797 12.719916343688965 L17.157318115234375 12.719916343688965 L17.58214569091797 12.176929473876953 L17.58214569091797 12.719916343688965 M15.906368255615234 10.690032958984375 L15.16267204284668 11.634190559387207 L15.16267204284668 10.7135648727417 L13.699434280395508 10.7135648727417 L13.73466968536377 11.150345802307129 C13.62858772277832 10.890618324279785 13.121086120605469 10.619187355041504 12.743448257446289 10.60748291015625 C12.294963836669922 10.583826065063477 11.78746223449707 10.890618324279785 11.78746223449707 10.890618324279785 L11.917201042175293 10.690032958984375 L10.56004524230957 10.690032958984375 L9.958290100097656 11.362759590148926 L9.793065071105957 10.690157890319824 L7.007781982421875 10.690157890319824 L5.3910231590271 12.920625686645508 L5.320301532745361 12.448484420776367 C6.158127307891846 12.1652250289917 6.842682361602783 10.819772720336914 5.15507698059082 10.7135648727417 L3.538193702697754 10.7135648727417 L2.464297294616699 13.675901412963867 L3.7152462005615234 13.675901412963867 L4.199215888977051 12.259602546691895 L4.317250728607178 13.675901412963867 L6.1347198486328125 13.675901412963867 L6.347133636474609 13.3926420211792 L7.1615519523620605 13.3926420211792 L7.185083866119385 13.664072036743164 L9.757829666137695 13.664072036743164 L10.123762130737305 12.566643714904785 L10.701986312866211 11.988295555114746 C10.58395004272461 12.61370849609375 10.395194053649902 13.605179786682129 11.49274730682373 13.782233238220215 C12.9562349319458 14.018178939819336 13.617008209228516 12.779057502746582 13.8412504196167 12.27155590057373 L13.994647026062012 13.664072036743164 L14.9624605178833 13.664072036743164 L17.228164672851562 10.690157890319824 L15.906368255615234 10.690157890319824 L15.906368255615234 10.690032958984375 M4.565025329589844 12.011828422546387 L4.269937038421631 12.011828422546387 L4.423333168029785 11.646018981933594 L4.753782272338867 11.646018981933594 C4.978024005889893 11.716864585876465 4.8247528076171875 12.011828422546387 4.565025329589844 12.011828422546387 L4.565025329589844 12.011828422546387 M7.208616256713867 12.719916343688965 L6.783789157867432 12.719916343688965 L7.208616256713867 12.153520584106445 L7.208616256713867 12.719916343688965 M8.53028678894043 13.534333229064941 L8.435908317565918 10.937807083129883 L8.896096229553223 12.530909538269043 L8.53028678894043 13.534333229064941" fill="black" fill-opacity="1.0" filling="0"/>
<path animation_id="2" d="M13.475316047668457 9.734171867370605 L11.398119926452637 12.059017181396484 L11.964639663696289 12.059017181396484 L11.457137107849121 12.802589416503906 L12.082550048828125 12.802589416503906 L11.126688957214355 14.265828132629395 L13.20388412475586 12.059017181396484 L12.61370849609375 12.059017181396484 L13.01487922668457 11.398119926452637 L12.460187911987305 11.398119926452637 L13.475316047668457 9.734171867370605 L13.475316047668457 9.734171867370605" fill="black" fill-opacity="1.0" filling="0"/></svg>