<?xml version="1.0" encoding="iso-8859-1"?><svg height="200px" viewBox="0.0 0.0 24.0 24.0" width="200px" xmlns="http://www.w3.org/2000/svg"><path animation_id="0" d="M7.4708147048950195 20.171220779418945 L5.96864652633667 20.171220779418945 C5.616330146789551 20.171220779418945 5.32935905456543 20.458112716674805 5.32935905456543 20.810787200927734 L5.32935905456543 23.935348510742188 L6.030670166015625 23.935348510742188 L6.034215927124023 20.87301254272461 L7.4708147048950195 20.871929168701172 C7.914702892303467 20.871929168701172 8.27534008026123 21.232891082763672 8.27534008026123 21.675704956054688 L8.27534008026123 23.935348510742188 L8.97563362121582 23.935348510742188 L8.97563362121582 21.675704956054688 C8.97563362121582 20.8464412689209 8.300939559936523 20.171220779418945 7.4708147048950195 20.171220779418945 M2.836459159851074 20.107486724853516 C1.7798900604248047 20.107486724853516 0.8868694305419922 20.988460540771484 0.8868694305419922 22.031341552734375 C0.8868694305419922 23.13521957397461 1.742995262145996 24.0 2.836459159851074 24.0 C3.864645004272461 24.0 4.766590118408203 23.101043701171875 4.766590118408203 22.07626724243164 C4.766590118408203 21.00916290283203 3.8824825286865234 20.107486724853516 2.836459159851074 20.107486724853516 M2.836459159851074 23.32817840576172 C2.1342649459838867 23.32817840576172 1.5844345092773438 22.767044067382812 1.5844345092773438 22.050275802612305 C1.5844345092773438 21.361289978027344 2.1579513549804688 20.77931785583496 2.836459159851074 20.77931785583496 C3.5082244873046875 20.77931785583496 4.075075149536133 21.352432250976562 4.075075149536133 22.031341552734375 C4.075075149536133 22.758743286132812 3.531172752380371 23.32817840576172 2.836459159851074 23.32817840576172" fill="black" fill-opacity="1.0" filling="0"/>
<path animation_id="1" d="M13.13461971282959 20.171220779418945 L13.826055526733398 20.171220779418945 L13.826055526733398 23.935070037841797 L13.13461971282959 23.935070037841797 L13.13461971282959 20.171220779418945 M16.289005279541016 22.917911529541016 L15.174226760864258 20.239017486572266 L15.145350456237793 20.171220779418945 L14.386923789978027 20.171220779418945 L15.850419044494629 23.686153411865234 C15.928569793701172 23.889171600341797 16.127099990844727 23.979455947875977 16.289676666259766 23.979455947875977 C16.482223510742188 23.979455947875977 16.654865264892578 23.864398956298828 16.72881317138672 23.686031341552734 L18.19134521484375 20.171232223510742 L17.431957244873047 20.171232223510742 L16.289005279541016 22.917911529541016 M21.059789657592773 22.87923812866211 C20.828323364257812 23.14640235900879 20.459308624267578 23.31890869140625 20.119976043701172 23.31890869140625 C19.500450134277344 23.31890869140625 18.97104263305664 22.890533447265625 18.881696701049805 22.331443786621094 L22.048877716064453 22.322193145751953 L22.045623779296875 22.21025848388672 C22.03336524963379 21.715438842773438 21.959564208984375 21.41302490234375 21.774925231933594 21.094402313232422 C21.422250747680664 20.49051284790039 20.782817840576172 20.115514755249023 20.10717010498047 20.115514755249023 C19.0268611907959 20.115514755249023 18.180452346801758 20.96722412109375 18.180452346801758 22.055038452148438 C18.180452346801758 23.1389102935791 19.03217315673828 23.988033294677734 20.119976043701172 23.988033294677734 C20.788150787353516 23.988033294677734 21.439414978027344 23.602277755737305 21.778179168701172 23.005477905273438 L21.871471405029297 22.841123580932617 L21.091506958007812 22.841123580932617 L21.059789657592773 22.87923812866211 M18.910696029663086 21.69474983215332 C19.067153930664062 21.14696502685547 19.540454864501953 20.78476333618164 20.113983154296875 20.78476333618164 C20.652103424072266 20.78476333618164 21.110149383544922 21.139606475830078 21.301734924316406 21.69474983215332 L18.910696029663086 21.69474983215332 M10.239904403686523 22.63251495361328 L10.239904403686523 20.171220779418945 L9.53920841217041 20.171220779418945 L9.53920841217041 22.63251495361328 C9.53920841217041 23.350914001464844 10.12341594696045 23.93533706665039 10.841547966003418 23.93533706665039 L12.571592330932617 23.93533706665039 L12.571592330932617 23.234092712402344 L10.841547966003418 23.234092712402344 C10.50999927520752 23.234092712402344 10.239904403686523 22.96462631225586 10.239904403686523 22.63251495361328 L10.239904403686523 22.63251495361328 M22.889705657958984 20.488601684570312 C22.889705657958984 20.44516372680664 22.87540054321289 20.407730102539062 22.84857177734375 20.380634307861328 C22.81277084350586 20.345495223999023 22.762659072875977 20.32752227783203 22.699337005615234 20.32752227783203 L22.485149383544922 20.32752227783203 L22.485149383544922 20.80681800842285 L22.609333038330078 20.80681800842285 L22.609333038330078 20.660179138183594 L22.670618057250977 20.660179138183594 L22.76714324951172 20.80681800842285 L22.913246154785156 20.80681800842285 L22.797786712646484 20.63689422607422 C22.857418060302734 20.610076904296875 22.889705657958984 20.558597564697266 22.889705657958984 20.488601684570312 M22.60932159423828 20.440265655517578 L22.695669174194336 20.440265655517578 C22.726837158203125 20.440265655517578 22.76401138305664 20.44952392578125 22.76401138305664 20.49678611755371 C22.76401138305664 20.530136108398438 22.73921775817871 20.549617767333984 22.69782829284668 20.549617767333984 L22.60932159423828 20.549617767333984 L22.60932159423828 20.440265655517578" fill="black" fill-opacity="1.0" filling="0"/>
<path animation_id="2" d="M22.674419403076172 20.139616012573242 C22.431503295898438 20.139616012573242 22.2335205078125 20.337051391601562 22.2335205078125 20.582015991210938 C22.2335205078125 20.823156356811523 22.43014907836914 21.019372940063477 22.67197036743164 21.019372940063477 C22.91514778137207 21.019372940063477 23.113130569458008 20.822072982788086 23.113130569458008 20.57697296142578 C23.113130569458008 20.335966110229492 22.91638946533203 20.139616012573242 22.674419403076172 20.139616012573242 L22.674419403076172 20.139616012573242 M22.67197036743164 20.94815444946289 C22.467044830322266 20.94815444946289 22.30704116821289 20.787078857421875 22.30704116821289 20.579421997070312 C22.30704116821289 20.372861862182617 22.46826171875 20.210968017578125 22.674419403076172 20.210968017578125 C22.879215240478516 20.210968017578125 23.039609909057617 20.37164306640625 23.039609909057617 20.579421997070312 C23.039609909057617 20.786128997802734 22.878252029418945 20.94815444946289 22.67197036743164 20.94815444946289 L22.67197036743164 20.94815444946289" fill="black" fill-opacity="1.0" filling="0"/>
<path animation_id="3" d="M14.37820053100586 0.5379753112792969 C13.47489070892334 0.1904897689819336 12.493699073791504 0.0 11.46804141998291 0.0 C6.992335796356201 0.0 3.363832473754883 3.6282243728637695 3.363832473754883 8.104074478149414 C3.363832473754883 8.532585144042969 3.3972606658935547 8.95319938659668 3.4612646102905273 9.363593101501465 C4.066363334655762 13.241143226623535 7.420444011688232 16.208160400390625 11.46804141998291 16.208160400390625 C13.399468421936035 16.208160400390625 15.17313003540039 15.532514572143555 16.565553665161133 14.404393196105957 C18.399551391601562 12.918988227844238 19.572059631347656 10.648173332214355 19.572059631347656 8.104074478149414 C19.572059631347656 4.654083728790283 17.416288375854492 1.7074995040893555 14.37820053100586 0.5379753112792969 L14.37820053100586 0.5379753112792969 M13.81000804901123 12.15632438659668 C12.409955978393555 12.965008735656738 9.36472225189209 14.549678802490234 8.150273323059082 13.848983764648438 C7.975239276885986 13.748096466064453 7.82259464263916 13.587286949157715 7.688950538635254 13.38153076171875 C6.895721435546875 12.159187316894531 6.7861104011535645 9.351614952087402 6.7861104011535645 8.10163688659668 C6.7861104011535645 6.48442268371582 6.935836315155029 3.0543041229248047 8.149938583374023 2.3533287048339844 C8.324972152709961 2.2524423599243164 8.540379524230957 2.200695037841797 8.785210609436035 2.1877565383911133 C10.240530967712402 2.112177848815918 12.726820945739746 3.4208574295043945 13.809593200683594 4.045987129211426 C15.213044166564941 4.855891227722168 18.1058349609375 6.699013710021973 18.1058349609375 8.10122299194336 C18.1058349609375 8.303008079528809 18.04267120361328 8.51597785949707 17.931549072265625 8.734113693237305 C17.26924705505371 10.032426834106445 14.892644882202148 11.531330108642578 13.81000804901123 12.15632438659668 L13.81000804901123 12.15632438659668" fill="black" fill-opacity="1.0" filling="0"/>
<path animation_id="4" d="M7.688950538635254 13.381519317626953 C6.895721435546875 12.159175872802734 6.7861104011535645 9.351604461669922 6.7861104011535645 8.101625442504883 C6.7861104011535645 6.484411716461182 6.935836315155029 3.054293632507324 8.149938583374023 2.353318214416504 C8.324972152709961 2.2524309158325195 8.540379524230957 2.2006845474243164 8.785210609436035 2.187744140625 C7.079747200012207 2.243159294128418 2.860224723815918 4.598937034606934 3.4612531661987305 9.363593101501465 C4.066352367401123 13.241143226623535 7.420433044433594 16.208160400390625 11.468029975891113 16.208160400390625 C13.399457931518555 16.208160400390625 15.17311954498291 15.532514572143555 16.56554412841797 14.404393196105957 C12.739615440368652 17.30740737915039 8.589397430419922 14.831405639648438 7.688950538635254 13.381519317626953 L7.688950538635254 13.381519317626953" fill="black" fill-opacity="1.0" filling="0"/>
<path animation_id="5" d="M17.931549072265625 8.734113693237305 C17.26924705505371 10.032438278198242 14.892644882202148 11.531330108642578 13.81000804901123 12.15632438659668 C12.409955978393555 12.965008735656738 9.36472225189209 14.549678802490234 8.150273323059082 13.848983764648438 C7.975239276885986 13.748096466064453 7.82259464263916 13.587286949157715 7.688950538635254 13.38153076171875 C8.589408874511719 14.831416130065918 12.739615440368652 17.307416915893555 16.565553665161133 14.404393196105957 C18.399551391601562 12.918988227844238 19.572059631347656 10.648173332214355 19.572059631347656 8.104074478149414 C19.572059631347656 4.654094696044922 17.416288375854492 1.7074995040893555 14.37820053100586 0.5379867553710938 C18.805179595947266 2.4001550674438477 18.736835479736328 7.229763984680176 17.931549072265625 8.734113693237305 L17.931549072265625 8.734113693237305" fill="black" fill-opacity="1.0" filling="0"/></svg>