<?xml version="1.0" encoding="iso-8859-1"?><svg height="200px" viewBox="0.0 0.0 24.0 24.0" width="200px" xmlns="http://www.w3.org/2000/svg"><path animation_id="0" d="M1.2910432815551758 9.111368179321289 L0.8491735458374023 8.624046325683594 C0.30830860137939453 9.54911994934082 0.0 10.62187671661377 0.0 11.712578773498535 L0.30448436737060547 11.712578773498535 C0.3059558868408203 10.69233512878418 0.6607456207275391 9.764171600341797 1.2910432815551758 9.111368179321289" fill="black" fill-opacity="1.0" filling="0"/>
<path animation_id="1" d="M1.2123479843139648 13.89663028717041 C0.6589813232421875 13.373122215270996 0.30448436737060547 12.663982391357422 0.30448436737060547 11.71757984161377 L0.30448436737060547 11.712578773498535 L0.0 11.712578773498535 C0.0 12.82181453704834 0.19798851013183594 13.852943420410156 0.5886697769165039 14.75183391571045 L1.2123479843139648 13.89663028717041" fill="black" fill-opacity="1.0" filling="0"/>
<path animation_id="2" d="M10.904812812805176 10.925625801086426 L10.339088439941406 11.509882926940918 C11.12251091003418 11.521208763122559 11.604096412658691 12.126059532165527 11.587034225463867 12.897714614868164 L11.891518592834473 12.897714614868164 C11.8916654586792 12.136356353759766 11.534815788269043 11.44369125366211 10.904812812805176 10.925625801086426 L10.904812812805176 10.925625801086426" fill="black" fill-opacity="1.0" filling="0"/>
<path animation_id="3" d="M11.8916654586792 12.897567749023438 L11.587181091308594 12.897567749023438 C11.572176933288574 13.532424926757812 11.232978820800781 14.0654935836792 10.48029899597168 14.461470603942871 L11.274900436401367 15.555703163146973 C11.662640571594238 14.839649200439453 11.8916654586792 13.96135139465332 11.8916654586792 12.897567749023438 L11.8916654586792 12.897567749023438" fill="black" fill-opacity="1.0" filling="0"/>
<path animation_id="4" d="M1.6089134216308594 10.823394775390625 C1.587143898010254 10.940629005432129 1.5750818252563477 11.061834335327148 1.5750818252563477 11.187600135803223 C1.5750818252563477 13.006122589111328 2.930553436279297 14.167283058166504 4.641697406768799 14.167283058166504 C7.894680976867676 14.167283058166504 8.860058784484863 11.509294509887695 10.316877365112305 11.509294509887695 C10.324084281921387 11.509294509887695 10.331586837768555 11.510029792785645 10.33923625946045 11.510029792785645 L10.904959678649902 10.925772666931152 C10.202291488647461 10.347399711608887 9.159688949584961 9.984959602355957 7.894680976867676 9.984959602355957 C5.319359302520752 9.984959602355957 3.9475603103637695 12.13591480255127 2.778310775756836 12.13591480255127 C2.2698068618774414 12.13591480255127 1.8803014755249023 11.577251434326172 1.8803014755249023 11.035505294799805 C1.8803014755249023 10.979167938232422 1.8839788436889648 10.92444896697998 1.8897161483764648 10.871495246887207 L1.6089134216308594 10.823394775390625" fill="black" fill-opacity="1.0" filling="0"/>
<path animation_id="5" d="M3.6251306533813477 8.15628719329834 C5.505138874053955 8.15628719329834 6.810009956359863 9.578392028808594 8.487322807312012 9.578392028808594 C10.498979568481445 9.578392028808594 11.612187385559082 8.598451614379883 11.891813278198242 6.683288097381592 L11.58732795715332 6.6328349113464355 C11.502307891845703 7.1400146484375 11.171640396118164 7.749866485595703 10.578998565673828 7.749866485595703 C10.019895553588867 7.749866485595703 9.426958084106445 7.258719444274902 8.563959121704102 6.784783363342285 C7.699193000793457 6.293783187866211 6.708073616027832 5.8198466300964355 5.471160411834717 5.8198466300964355 C3.482008934020996 5.8198466300964355 1.803666114807129 6.991890907287598 0.8491735458374023 8.623899459838867 L1.2910432815551758 9.111221313476562 C1.8619146347045898 8.520197868347168 2.6591644287109375 8.15628719329834 3.6251306533813477 8.15628719329834 L3.6251306533813477 8.15628719329834" fill="black" fill-opacity="1.0" filling="0"/>
<path animation_id="6" d="M5.590159893035889 15.2340087890625 C4.134223461151123 15.2340087890625 2.2931957244873047 14.91849136352539 1.2123479843139648 13.89663028717041 L0.5886697769165039 14.751687049865723 C1.4859428405761719 16.815563201904297 3.4000768661499023 18.180152893066406 6.267821311950684 18.180152893066406 C8.163421630859375 18.180152893066406 10.260686874389648 17.429386138916016 11.27475357055664 15.555703163146973 L10.480152130126953 14.461470603942871 C9.545811653137207 14.953352928161621 7.973523139953613 15.2340087890625 5.590159893035889 15.2340087890625 L5.590159893035889 15.2340087890625" fill="black" fill-opacity="1.0" filling="0"/>
<path animation_id="7" d="M16.888742446899414 15.068086624145508 C15.005792617797852 15.068086624145508 13.965250015258789 13.830437660217285 13.965250015258789 11.999853134155273 C13.965250015258789 10.15911865234375 15.091989517211914 8.912644386291504 16.9234561920166 8.912644386291504 C17.654071807861328 8.912644386291504 18.264217376708984 9.084449768066406 18.73741912841797 9.351278305053711 L18.53972625732422 10.632025718688965 C18.0924129486084 10.348722457885742 17.56816864013672 10.126169204711914 16.957286834716797 10.126169204711914 C15.933955192565918 10.126169204711914 15.436336517333984 10.881791114807129 15.436336517333984 11.99073314666748 C15.436336517333984 13.108352661132812 15.952047348022461 13.89118766784668 16.974498748779297 13.89118766784668 C17.301782608032227 13.89118766784668 17.533601760864258 13.830584526062012 17.77410125732422 13.701582908630371 L17.77410125732422 12.644271850585938 L16.74238395690918 12.644271850585938 L16.569990158081055 11.55224609375 L19.05529022216797 11.55224609375 L19.05529022216797 14.441024780273438 C18.43617057800293 14.845680236816406 17.705554962158203 15.068086624145508 16.888742446899414 15.068086624145508 M21.87596321105957 15.025575637817383 C21.075626373291016 15.025575637817383 20.405906677246094 14.85377025604248 19.80370330810547 14.578557014465332 L20.018314361572266 13.323404312133789 C20.628459930419922 13.650394439697266 21.308326721191406 13.873830795288086 21.90155792236328 13.873830795288086 C22.32268714904785 13.873830795288086 22.615257263183594 13.692904472351074 22.615257263183594 13.340909004211426 C22.615257263183594 13.005387306213379 22.443157196044922 12.850202560424805 21.608840942382812 12.532186508178711 C20.42267608642578 12.076488494873047 19.90666961669922 11.689778327941895 19.90666961669922 10.709250450134277 C19.90666961669922 9.566183090209961 20.800704956054688 8.955595970153809 21.93524169921875 8.955595970153809 C22.71086883544922 8.955595970153809 23.209075927734375 9.10210132598877 23.7244930267334 9.351131439208984 L23.500911712646484 10.589075088500977 C22.969165802001953 10.27914810180664 22.408884048461914 10.10837173461914 21.953041076660156 10.10837173461914 C21.50602149963379 10.10837173461914 21.291118621826172 10.296504974365234 21.291118621826172 10.572011947631836 C21.291118621826172 10.872818946838379 21.454246520996094 11.019030570983887 22.193540573120117 11.302922248840332 C23.485172271728516 11.775239944458008 24.0 12.222553253173828 24.0 13.168367385864258 C23.999855041503906 14.458528518676758 23.054039001464844 15.025575637817383 21.87596321105957 15.025575637817383" fill="black" fill-opacity="1.0" filling="0"/></svg>