<?xml version="1.0" encoding="iso-8859-1"?><svg height="200px" viewBox="0.0 0.0 24.0 24.0" width="200px" xmlns="http://www.w3.org/2000/svg"><path animation_id="0" d="M0.0 7.199999809265137 L24.0 7.199999809265137 L24.0 16.799999237060547 L0.0 16.799999237060547 L0.0 7.199999809265137" fill="black" fill-opacity="1.0" filling="0"/>
<path animation_id="1" d="M13.853759765625 10.887840270996094 C14.36736011505127 10.125120162963867 15.504959106445312 9.916319847106934 16.267681121826172 10.42080020904541 C16.924320220947266 10.81920051574707 17.245920181274414 11.678400039672852 17.013120651245117 12.410400390625 C16.91419219970703 12.756959915161133 16.700639724731445 13.065119743347168 16.42272186279297 13.293120384216309 C16.164958953857422 12.948959350585938 15.74779224395752 12.722928047180176 15.314399719238281 12.730560302734375 C14.879951477050781 12.727680206298828 14.466720581054688 12.959088325500488 14.212271690368652 13.3056001663208 C13.488959312438965 12.753600120544434 13.310447692871094 11.623680114746094 13.853759765625 10.887840270996094 L13.853759765625 10.887840270996094 M18.29136085510254 10.281599998474121 C18.773279190063477 10.079999923706055 19.342079162597656 10.104959487915039 19.805278778076172 10.34496021270752 C20.000640869140625 10.442399978637695 20.202239990234375 10.58351993560791 20.260318756103516 10.806719779968262 C20.344799041748047 11.105279922485352 20.12063980102539 11.437919616699219 19.816801071166992 11.485440254211426 C19.54751968383789 11.557920455932617 19.349279403686523 11.306879997253418 19.09819221496582 11.266511917114258 C18.75119972229004 11.177231788635254 18.391632080078125 11.457072257995605 18.33888053894043 11.799311637878418 C18.263952255249023 12.168911933898926 18.5841121673584 12.551952362060547 18.959041595458984 12.55339241027832 C19.094398498535156 12.566351890563965 19.219200134277344 12.505871772766113 19.340112686157227 12.454031944274902 C19.174560546875 12.439151763916016 18.990720748901367 12.450191497802734 18.853391647338867 12.340271949768066 C18.675792694091797 12.18619155883789 18.670991897583008 11.860271453857422 18.8677921295166 11.719152450561523 C19.036272048950195 11.603471755981445 19.24847984313965 11.62987232208252 19.441390991210938 11.627471923828125 C19.65691375732422 11.631312370300293 19.87963104248047 11.619312286376953 20.08795166015625 11.68507194519043 C20.31648063659668 11.784432411193848 20.39472198486328 12.05947208404541 20.37696075439453 12.289872169494629 C20.358240127563477 12.569711685180664 20.43695831298828 12.8994722366333 20.240161895751953 13.133184432983398 C19.958879470825195 13.458191871643066 19.534032821655273 13.6420316696167 19.110191345214844 13.676544189453125 C18.4573917388916 13.728864669799805 17.794559478759766 13.388544082641602 17.459041595458984 12.825551986694336 C17.18160057067871 12.375311851501465 17.12928009033203 11.79691219329834 17.310720443725586 11.301551818847656 C17.477279663085938 10.845120429992676 17.84160041809082 10.465439796447754 18.29136085510254 10.281599998474121 L18.29136085510254 10.281599998474121 M2.952479362487793 10.755359649658203 C2.9481124877929688 10.509119987487793 3.1224002838134766 10.268640518188477 3.3676319122314453 10.218719482421875 C3.564480781555176 10.162559509277344 3.789072036743164 10.22208023071289 3.91915225982666 10.383840560913086 C4.224431991577148 10.750080108642578 4.519631862640381 11.124959945678711 4.824431896209717 11.491680145263672 C4.827311992645264 11.227680206298828 4.816223621368408 10.963680267333984 4.829232215881348 10.700160026550293 C4.8465118408203125 10.371840476989746 5.206992149353027 10.125120162963867 5.519951820373535 10.21776008605957 C5.7604804039001465 10.275360107421875 5.93563175201416 10.50767993927002 5.937551975250244 10.752960205078125 C5.94379186630249 11.490240097045898 5.937551975250244 12.227999687194824 5.9404802322387695 12.965231895446777 C5.943359851837158 13.151040077209473 5.906400203704834 13.355999946594238 5.75663948059082 13.481760025024414 C5.53439998626709 13.684319496154785 5.146031856536865 13.666080474853516 4.9608001708984375 13.421759605407715 C4.660800457000732 13.042560577392578 4.365119934082031 12.65999984741211 4.067951679229736 12.27791976928711 C4.064112186431885 12.563519477844238 4.074192047119141 12.849072456359863 4.064639568328857 13.13424015045166 C4.045872211456299 13.446240425109863 3.710399627685547 13.677120208740234 3.410400390625 13.610928535461426 C3.1501922607421875 13.570560455322266 2.943791389465332 13.322400093078613 2.9529600143432617 13.05840015411377 C2.9515199661254883 12.29092788696289 2.9515199661254883 11.522879600524902 2.952479362487793 10.755359649658203 L2.952479362487793 10.755359649658203 M6.095999717712402 10.78656005859375 C6.09119987487793 10.530719757080078 6.2765278816223145 10.28548812866211 6.532847881317139 10.24176025390625 C6.833807945251465 10.204319953918457 7.138607501983643 10.232640266418457 7.441007614135742 10.223999977111816 C7.700687885284424 10.230239868164062 8.000160217285156 10.18175983428955 8.212847709655762 10.36847972869873 C8.489327430725098 10.611359596252441 8.38800048828125 11.138879776000977 8.028528213500977 11.242079734802246 C7.761600017547607 11.305439949035645 7.483680248260498 11.27184009552002 7.211999893188477 11.279999732971191 C7.211520195007324 11.35200023651123 7.211520195007324 11.423999786376953 7.211999893188477 11.496479988098145 C7.4476799964904785 11.51471996307373 7.70736026763916 11.44320011138916 7.923360347747803 11.563680648803711 C8.18783950805664 11.717280387878418 8.145120620727539 12.167519569396973 7.8614397048950195 12.274080276489258 C7.649759769439697 12.328800201416016 7.4284796714782715 12.307680130004883 7.211999893188477 12.312000274658203 C7.211999893188477 12.387840270996094 7.211520195007324 12.464159965515137 7.211999893188477 12.539999961853027 C7.4721598625183105 12.543840408325195 7.735680103302002 12.52507209777832 7.993439674377441 12.570768356323242 C8.28816032409668 12.641759872436523 8.447039604187012 12.99892807006836 8.328479766845703 13.272000312805176 C8.265552520751953 13.442399978637695 8.10763168334961 13.576319694519043 7.922879695892334 13.585439682006836 C7.586400032043457 13.609439849853516 7.248960018157959 13.588751792907715 6.911951541900635 13.596431732177734 C6.716639518737793 13.592592239379883 6.500112056732178 13.612272262573242 6.330719947814941 13.494720458984375 C6.155520439147949 13.381440162658691 6.094031810760498 13.160592079162598 6.09552001953125 12.96235179901123 C6.096479892730713 12.237071990966797 6.09552001953125 11.511839866638184 6.095999717712402 10.78656005859375 L6.095999717712402 10.78656005859375 M8.595359802246094 11.083200454711914 C8.326080322265625 10.79520034790039 8.533919334411621 10.251840591430664 8.93280029296875 10.236000061035156 C9.474191665649414 10.208640098571777 10.017120361328125 10.232159614562988 10.558560371398926 10.223520278930664 C10.769280433654785 10.218719482421875 11.012112617492676 10.216320037841797 11.169551849365234 10.380959510803223 C11.412479400634766 10.601280212402344 11.343791961669922 11.0414400100708 11.065872192382812 11.201279640197754 C10.879152297973633 11.292960166931152 10.665071487426758 11.26416015625 10.463951110839844 11.267999649047852 C10.461071968078613 11.863679885864258 10.469231605529785 12.459839820861816 10.460112571716309 13.055520057678223 C10.457712173461914 13.309920310974121 10.278719902038574 13.56383991241455 10.020959854125977 13.609919548034668 C9.71183967590332 13.68239974975586 9.3580322265625 13.449071884155273 9.350879669189453 13.120319366455078 C9.344112396240234 12.503087997436523 9.3503999710083 11.885279655456543 9.347951889038086 11.267999649047852 C9.09216022491455 11.264639854431152 8.772480010986328 11.317440032958984 8.595359802246094 11.083200454711914 L8.595359802246094 11.083200454711914 M11.638080596923828 10.339200019836426 C11.877120018005371 10.11023998260498 12.323087692260742 10.17024040222168 12.488161087036133 10.458239555358887 C12.570767402648926 10.58687973022461 12.573600769042969 10.745280265808105 12.57652759552002 10.893119812011719 C12.575519561767578 11.441760063171387 12.576000213623047 11.990880012512207 12.576000213623047 12.539999961853027 C12.91919994354248 12.56879997253418 13.35792064666748 12.441072463989258 13.612319946289062 12.742560386657715 C13.869600296020508 13.034927368164062 13.661759376525879 13.577759742736816 13.26144027709961 13.588800430297852 C12.842447280883789 13.602767944335938 12.42244815826416 13.596479415893555 12.003360748291016 13.592639923095703 C11.719200134277344 13.596479415893555 11.459039688110352 13.348800659179688 11.465279579162598 13.061759948730469 C11.452800750732422 12.323040008544922 11.464272499084473 11.584320068359375 11.45952033996582 10.845600128173828 C11.452800750732422 10.663200378417969 11.50271987915039 10.4683198928833 11.638080596923828 10.339200019836426 L11.638080596923828 10.339200019836426 M20.401439666748047 10.260479927062988 C20.512800216674805 10.259519577026367 20.62420654296875 10.26095962524414 20.735519409179688 10.270560264587402 C20.700000762939453 10.295040130615234 20.629440307617188 10.343999862670898 20.59444808959961 10.36847972869873 C20.592527389526367 10.463520050048828 20.59012794494629 10.558079719543457 20.582447052001953 10.653120040893555 C20.457599639892578 10.59984016418457 20.524368286132812 10.447680473327637 20.506128311157227 10.345439910888672 C20.479198455810547 10.343999862670898 20.425968170166016 10.341119766235352 20.399520874023438 10.339200019836426 L20.401439666748047 10.260479927062988 L20.401439666748047 10.260479927062988 M20.68943977355957 10.601280212402344 C20.706287384033203 10.473599433898926 20.715839385986328 10.329120635986328 20.811359405517578 10.232640266418457 C20.838720321655273 10.295040130615234 20.8656005859375 10.357919692993164 20.891040802001953 10.421279907226562 C20.91312026977539 10.372320175170898 20.957759857177734 10.273920059204102 20.98031997680664 10.224479675292969 C21.05712127685547 10.343999862670898 21.092639923095703 10.485119819641113 21.097393035888672 10.626239776611328 L21.026399612426758 10.627679824829102 C21.013919830322266 10.591680526733398 20.98896026611328 10.518719673156738 20.97648048400879 10.482239723205566 C20.9476318359375 10.54319953918457 20.91744041442871 10.603679656982422 20.88912010192871 10.664159774780273 C20.85887908935547 10.602239608764648 20.830127716064453 10.539360046386719 20.8022403717041 10.476480484008789 C20.775840759277344 10.526880264282227 20.769119262695312 10.737119674682617 20.68943977355957 10.601280212402344 L20.68943977355957 10.601280212402344" fill="black" fill-opacity="1.0" filling="0"/>
<path animation_id="2" d="M15.094560623168945 11.30735969543457 C15.45695972442627 11.161919593811035 15.90287971496582 11.428319931030273 15.957119941711426 11.812799453735352 C16.03343963623047 12.208319664001465 15.668111801147461 12.60576057434082 15.268800735473633 12.56879997253418 C14.947680473327637 12.548640251159668 14.673120498657227 12.263567924499512 14.662559509277344 11.942879676818848 C14.642447471618652 11.663999557495117 14.833439826965332 11.397600173950195 15.094560623168945 11.30735969543457 L15.094560623168945 11.30735969543457" fill="black" fill-opacity="1.0" filling="0"/></svg>