<?xml version="1.0" encoding="iso-8859-1"?><svg height="200px" viewBox="0.0 0.0 24.0 24.0" width="200px" xmlns="http://www.w3.org/2000/svg"><path animation_id="0" d="M0.0 0.0 L24.0 0.0 L24.0 24.0 L0.0 24.0 L0.0 0.0" fill="black" fill-opacity="1.0" filling="0"/>
<path animation_id="1" d="M2.2329578399658203 11.029197692871094 L2.2329578399658203 11.653241157531738 L2.337421417236328 11.653241157531738 C2.4054040908813477 11.653241157531738 2.461557388305664 11.650501251220703 2.50588321685791 11.644898414611816 A0.47189193964004517 0.47189193964004517 0.0 0 0 2.6411008834838867 11.605802536010742 C2.762871742248535 11.552014350891113 2.823756217956543 11.456390380859375 2.823756217956543 11.318682670593262 C2.823756217956543 11.212724685668945 2.7897653579711914 11.138019561767578 2.721782684326172 11.094441413879395 C2.6538009643554688 11.050986289978027 2.55332088470459 11.029197692871094 2.4204702377319336 11.029197692871094 L2.2329578399658203 11.029197692871094 L2.2329578399658203 11.029197692871094 M2.2329578399658203 11.745626449584961 L2.2329578399658203 12.469277381896973 L2.470273971557617 12.469277381896973 C2.587312698364258 12.469277381896973 2.683060646057129 12.435286521911621 2.7573928833007812 12.367303848266602 C2.83172607421875 12.29919719696045 2.8689537048339844 12.210670471191406 2.8689537048339844 12.101600646972656 C2.8689537048339844 11.970242500305176 2.823009490966797 11.876113891601562 2.7313709259033203 11.819211959838867 C2.65230655670166 11.77015495300293 2.534396171569824 11.745626449584961 2.3778867721557617 11.745626449584961 L2.2329578399658203 11.745626449584961 M2.0241546630859375 12.557181358337402 L2.0241546630859375 10.941293716430664 L2.5010271072387695 10.941293716430664 C2.6829357147216797 10.941293716430664 2.816659927368164 10.965822219848633 2.9020729064941406 11.01487922668457 C2.987485885620117 11.063936233520508 3.030193328857422 11.148602485656738 3.030193328857422 11.268754005432129 C3.030193328857422 11.374712944030762 2.99495792388916 11.464484214782715 2.924485206604004 11.538068771362305 C2.8541364669799805 11.611654281616211 2.7643661499023438 11.661831855773926 2.6551713943481445 11.688725471496582 C2.764240264892578 11.688725471496582 2.859241485595703 11.71649169921875 2.9399242401123047 11.771773338317871 C3.0395326614379883 11.839756965637207 3.089336395263672 11.936250686645508 3.089336395263672 12.061259269714355 C3.089336395263672 12.230466842651367 3.018115997314453 12.364191055297852 2.8758020401000977 12.462305068969727 C2.814168930053711 12.505011558532715 2.734233856201172 12.532527923583984 2.636244773864746 12.545228958129883 C2.5761070251464844 12.553071975708008 2.489198684692383 12.557181358337402 2.375272750854492 12.557181358337402 L2.0241546630859375 12.557181358337402 L2.0241546630859375 12.557181358337402 M5.0572123527526855 11.024341583251953 L5.0572123527526855 11.683869361877441 L5.17823600769043 11.683869361877441 C5.2129740715026855 11.683869361877441 5.245471477508545 11.683122634887695 5.275477886199951 11.681504249572754 C5.305484771728516 11.679885864257812 5.334744453430176 11.675901412963867 5.36325740814209 11.669550895690918 C5.451783657073975 11.650625228881836 5.524621963500977 11.611405372619629 5.5815229415893555 11.552138328552246 C5.638548374176025 11.49274730682373 5.66693639755249 11.418912887573242 5.66693639755249 11.330387115478516 C5.66693639755249 11.159435272216797 5.579904079437256 11.05982780456543 5.405963897705078 11.031438827514648 A0.8972172141075134 0.8972172141075134 0.0 0 0 5.282574653625488 11.024341583251953 L5.0572123527526855 11.024341583251953 L5.0572123527526855 11.024341583251953 M4.848409175872803 12.564153671264648 L4.848409175872803 10.941293716430664 L5.351428985595703 10.941293716430664 C5.531719207763672 10.941293716430664 5.6646952629089355 10.970927238464355 5.7501091957092285 11.030318260192871 C5.835522651672363 11.089585304260254 5.87822961807251 11.180228233337402 5.87822961807251 11.30199909210205 C5.87822961807251 11.430119514465332 5.827678680419922 11.53445816040039 5.726327896118164 11.615140914916992 C5.642532825469971 11.681628227233887 5.531096458435059 11.727448463439941 5.391770362854004 11.752723693847656 L5.879350185394287 12.371164321899414 L5.994770526885986 12.504388809204102 L6.0394697189331055 12.5640287399292 L5.901886463165283 12.55693244934082 L5.766668796539307 12.5640287399292 L5.617257595062256 12.35771656036377 L5.337608337402344 11.994646072387695 L5.14735746383667 11.771649360656738 L5.0572123527526855 11.771649360656738 L5.0572123527526855 12.5640287399292 L4.952873229980469 12.55693244934082 L4.848409175872803 12.564153671264648 L4.848409175872803 12.564153671264648 M9.2647705078125 11.736164093017578 C9.2647705078125 11.62871265411377 9.254436492919922 11.533337593078613 9.233892440795898 11.450289726257324 A0.623295783996582 0.623295783996582 0.0 0 0 9.115234375 11.214219093322754 A0.5814605355262756 0.5814605355262756 0.0 0 0 8.898088455200195 11.043267250061035 A0.6557928323745728 0.6557928323745728 0.0 0 0 8.62167739868164 10.984001159667969 C8.414493560791016 10.984001159667969 8.25113582611084 11.056341171264648 8.131731033325195 11.201021194458008 C8.01232624053955 11.345826148986816 7.952686786651611 11.539190292358398 7.952686786651611 11.781112670898438 C7.952686786651611 12.013571739196777 8.015936851501465 12.196352005004883 8.142439842224121 12.329204559326172 C8.261096954345703 12.452592849731445 8.413620948791504 12.514101028442383 8.600385665893555 12.514101028442383 C8.823383331298828 12.514101028442383 8.996576309204102 12.417730331420898 9.119965553283691 12.224740028381348 A0.8862603902816772 0.8862603902816772 0.0 0 0 9.2647705078125 11.736164093017578 L9.2647705078125 11.736164093017578 M8.59328842163086 12.592790603637695 C8.329078674316406 12.592790603637695 8.117537498474121 12.516467094421387 7.958538055419922 12.363818168640137 C7.79966402053833 12.211044311523438 7.720102310180664 12.007471084594727 7.720102310180664 11.752847671508789 C7.720102310180664 11.498226165771484 7.8047685623168945 11.291789054870605 7.973977565765381 11.133536338806152 C8.136960983276367 10.981759071350098 8.344892501831055 10.905808448791504 8.598020553588867 10.905808448791504 C8.844675064086914 10.905808448791504 9.05036449432373 10.969931602478027 9.214841842651367 11.09792709350586 C9.403100967407227 11.245098114013672 9.49722957611084 11.451534271240234 9.49722957611084 11.717238426208496 C9.49722957611084 11.979704856872559 9.413434028625488 12.191495895385742 9.245720863342285 12.35198974609375 C9.078130722045898 12.512357711791992 8.860611915588379 12.592790603637695 8.59328842163086 12.592790603637695 L8.59328842163086 12.592790603637695 M12.641847610473633 12.308036804199219 L12.629894256591797 12.457448959350586 A0.7084604501724243 0.7084604501724243 0.0 0 1 12.387972831726074 12.560667037963867 A1.238373875617981 1.238373875617981 0.0 0 1 12.105584144592285 12.592790603637695 C11.846105575561523 12.592790603637695 11.642034530639648 12.516093254089355 11.493370056152344 12.36257266998291 C11.344705581665039 12.209052085876465 11.270248413085938 12.002739906311035 11.270248413085938 11.743261337280273 C11.270248413085938 11.483907699584961 11.356409072875977 11.277469635009766 11.528855323791504 11.123950004577637 C11.69333267211914 10.978397369384766 11.905247688293457 10.905683517456055 12.164851188659668 10.905683517456055 C12.24852180480957 10.905683517456055 12.334309577941895 10.915146827697754 12.422087669372559 10.934196472167969 C12.509867668151855 10.9532470703125 12.594036102294922 10.980140686035156 12.674717903137207 11.01487922668457 C12.665255546569824 11.038536071777344 12.655792236328125 11.068293571472168 12.64620590209961 11.103778839111328 A1.2027641534805298 1.2027641534805298 0.0 0 0 12.62479019165039 11.197534561157227 L12.608230590820312 11.20002555847168 C12.590923309326172 11.177738189697266 12.56004524230957 11.150843620300293 12.515844345092773 11.119342803955078 C12.400299072265625 11.037041664123535 12.279897689819336 10.995954513549805 12.155263900756836 10.995954513549805 C11.94633674621582 10.995954513549805 11.783477783203125 11.071157455444336 11.666438102722168 11.22131633758545 C11.557368278503418 11.360517501831055 11.502708435058594 11.53769588470459 11.502708435058594 11.752847671508789 C11.502708435058594 11.978958129882812 11.561227798461914 12.160120010375977 11.678266525268555 12.2960844039917 C11.795306205749512 12.432173728942871 11.948702812194824 12.500280380249023 12.13845443725586 12.500280380249023 C12.223869323730469 12.500280380249023 12.311897277832031 12.483222961425781 12.401793479919434 12.449231147766113 A0.7927535772323608 0.7927535772323608 0.0 0 0 12.641847610473633 12.308036804199219 L12.641847610473633 12.308036804199219 M15.15520191192627 10.905808448791504 L15.867023468017578 12.564153671264648 L15.743759155273438 12.557056427001953 L15.618003845214844 12.564153671264648 A10.854386329650879 10.854386329650879 0.0 0 0 15.473323822021484 12.170330047607422 A8.693643569946289 8.693643569946289 0.0 0 0 15.368735313415527 11.923675537109375 L14.766109466552734 11.923675537109375 C14.674469947814941 12.153022766113281 14.622922897338867 12.28350830078125 14.611966133117676 12.315258979797363 A3.682624578475952 3.682624578475952 0.0 0 0 14.531283378601074 12.564278602600098 L14.443503379821777 12.557181358337402 L14.360580444335938 12.564278602600098 L15.100790023803711 10.905933380126953 L15.15520191192627 10.905933380126953 L15.15520191192627 10.905808448791504 L15.15520191192627 10.905808448791504 M15.332752227783203 11.823943138122559 L15.06991195678711 11.216585159301758 L14.809188842773438 11.823943138122559 L15.332752227783203 11.823943138122559 M17.83938217163086 11.048123359680176 L17.83938217163086 11.707651138305664 L17.96053123474121 11.707651138305664 C17.995269775390625 11.707651138305664 18.02764129638672 11.706904411315918 18.05777359008789 11.705286026000977 C18.08790397644043 11.703666687011719 18.117162704467773 11.69968318939209 18.145551681518555 11.69333267211914 C18.234079360961914 11.674407005310059 18.306793212890625 11.635186195373535 18.363693237304688 11.575920104980469 C18.42084503173828 11.516529083251953 18.449356079101562 11.442694664001465 18.449356079101562 11.354167938232422 C18.449356079101562 11.183341026306152 18.362323760986328 11.083608627319336 18.188135147094727 11.055220603942871 A0.8939799666404724 0.8939799666404724 0.0 0 0 18.064868927001953 11.048123359680176 L17.83938217163086 11.048123359680176 L17.83938217163086 11.048123359680176 M17.630828857421875 12.588059425354004 L17.630828857421875 10.965075492858887 L18.133724212646484 10.965075492858887 C18.313888549804688 10.965075492858887 18.446990966796875 10.994709014892578 18.53227996826172 11.053975105285645 C18.617692947387695 11.113241195678711 18.660400390625 11.203885078430176 18.660400390625 11.325654983520508 C18.660400390625 11.453775405883789 18.609848022460938 11.558239936828613 18.508621215820312 11.63879680633545 C18.424701690673828 11.705286026000977 18.313142776489258 11.751105308532715 18.173940658569336 11.77638053894043 L18.661521911621094 12.394821166992188 L18.77706527709961 12.528170585632324 L18.821514129638672 12.587810516357422 L18.684057235717773 12.580589294433594 L18.54859161376953 12.587810516357422 L18.399303436279297 12.381373405456543 L18.119653701782227 12.018302917480469 L17.929529190063477 11.795306205749512 L17.839258193969727 11.795306205749512 L17.839258193969727 12.587810516357422 L17.734920501708984 12.580589294433594 L17.630828857421875 12.588059425354004 L17.630828857421875 12.588059425354004 M20.706344604492188 11.036294937133789 L20.706344604492188 12.450352668762207 C20.754032135009766 12.450352668762207 20.817283630371094 12.4515962600708 20.896221160888672 12.453838348388672 L21.017120361328125 12.457324981689453 C21.107391357421875 12.457324981689453 21.18097686767578 12.45346450805664 21.237876892089844 12.445371627807617 A0.49953311681747437 0.49953311681747437 0.0 0 0 21.40148162841797 12.393202781677246 C21.52163314819336 12.3331880569458 21.610408782958984 12.239930152893066 21.667308807373047 12.113304138183594 C21.71786117553711 12.000996589660645 21.74313735961914 11.86727237701416 21.74313735961914 11.712258338928223 C21.74313735961914 11.462367057800293 21.687480926513672 11.285563468933105 21.575794219970703 11.181970596313477 C21.464359283447266 11.078378677368164 21.274232864379883 11.026582717895508 21.005290985107422 11.026582717895508 C20.971923828125 11.026582717895508 20.915769577026367 11.02820110321045 20.836706161499023 11.0313138961792 C20.757640838623047 11.034427642822266 20.714313507080078 11.036294937133789 20.706344604492188 11.036294937133789 M20.497665405273438 12.557181358337402 L20.497665405273438 10.941293716430664 L21.19753646850586 10.941293716430664 C21.346073150634766 10.941293716430664 21.45925521850586 10.953993797302246 21.53682518005371 10.979269027709961 A0.5403723120689392 0.5403723120689392 0.0 0 1 21.721845626831055 11.083608627319336 A0.6393575668334961 0.6393575668334961 0.0 0 1 21.912967681884766 11.344705581665039 C21.954803466796875 11.449045181274414 21.97572135925293 11.559858322143555 21.97572135925293 11.676773071289062 C21.97572135925293 11.833406448364258 21.947954177856445 11.971860885620117 21.892797470092773 12.092012405395508 C21.843616485595703 12.19797134399414 21.771648406982422 12.292847633361816 21.676898956298828 12.376642227172852 C21.60879135131836 12.435161590576172 21.523876190185547 12.47986125946045 21.421775817871094 12.510614395141602 C21.319927215576172 12.541492462158203 21.165908813476562 12.55693244934082 20.96021842956543 12.55693244934082 L20.497665405273438 12.55693244934082 L20.497665405273438 12.557181358337402 L20.497665405273438 12.557181358337402 M6.985494613647461 12.949885368347168 L6.985494613647461 13.08896255493164 L6.965946674346924 13.087593078613281 L6.946523189544678 13.08896255493164 L6.946523189544678 12.785905838012695 L7.025835990905762 12.785905838012695 C7.068915843963623 12.785905838012695 7.098798751831055 12.791259765625 7.115233898162842 12.80184268951416 C7.13179349899292 12.81255054473877 7.140011310577393 12.831352233886719 7.140011310577393 12.858619689941406 C7.140011310577393 12.884517669677734 7.132042407989502 12.90481185913086 7.116105556488037 12.9191312789917 C7.101288795471191 12.932453155517578 7.077632427215576 12.942414283752441 7.045259475708008 12.948888778686523 A0.08715681731700897 0.08715681731700897 0.0 0 1 7.029819965362549 12.950632095336914 A0.26757141947746277 0.26757141947746277 0.0 0 1 7.000560283660889 12.950632095336914 C6.995330810546875 12.950508117675781 6.990350723266602 12.95013427734375 6.985494613647461 12.949885368347168 L6.985494613647461 12.949885368347168 M6.985494613647461 12.802838325500488 L6.985494613647461 12.932578086853027 A0.0798107460141182 0.0798107460141182 0.0 0 0 6.997447967529297 12.933076858520508 A0.08939799666404724 0.08939799666404724 0.0 0 0 7.005789756774902 12.933449745178223 L7.021727085113525 12.933449745178223 A0.04781174287199974 0.04781174287199974 0.0 0 1 7.029322147369385 12.932578086853027 C7.051111698150635 12.930460929870605 7.068294048309326 12.922990798950195 7.080744743347168 12.909916877746582 C7.093195915222168 12.896843910217285 7.099297046661377 12.880533218383789 7.099297046661377 12.860735893249512 A0.06138330325484276 0.06138330325484276 0.0 0 0 7.087841510772705 12.822138786315918 C7.079250335693359 12.81118106842041 7.069663047790527 12.805204391479492 7.059080123901367 12.804083824157715 A0.28301066160202026 0.28301066160202026 0.0 0 0 7.034053325653076 12.802589416503906 L7.001556873321533 12.802589416503906 L6.985494613647461 12.802838325500488 L6.985494613647461 12.802838325500488 M8.690156936645508 12.779306411743164 L8.823009490966797 13.08896255493164 L8.799975395202637 13.087593078613281 L8.776567459106445 13.08896255493164 A2.0307538509368896 2.0307538509368896 0.0 0 0 8.74954891204834 13.015377044677734 A1.6954491138458252 1.6954491138458252 0.0 0 0 8.730000495910645 12.969308853149414 L8.617568016052246 12.969308853149414 C8.600510597229004 13.012140274047852 8.590923309326172 13.036419868469238 8.588807106018066 13.04239559173584 C8.58444881439209 13.054224014282227 8.579343795776367 13.069787979125977 8.57374095916748 13.08896255493164 L8.557305335998535 13.087593078613281 L8.541741371154785 13.08896255493164 L8.679947853088379 12.779306411743164 L8.690156936645508 12.779306411743164 L8.690156936645508 12.779306411743164 M8.72327709197998 12.950757026672363 L8.67409610748291 12.83732795715332 L8.625412940979004 12.950757026672363 L8.72327709197998 12.950757026672363 M10.24366569519043 12.801469802856445 L10.24366569519043 12.924485206604004 L10.266201972961426 12.924485206604004 C10.27280044555664 12.924485206604004 10.278778076171875 12.924361228942871 10.284379959106445 12.924112319946289 A0.10296956449747086 0.10296956449747086 0.0 0 0 10.300691604614258 12.921745300292969 C10.317126274108887 12.918259620666504 10.330822944641113 12.910913467407227 10.341405868530273 12.899832725524902 C10.351988792419434 12.888751029968262 10.357342720031738 12.874930381774902 10.357342720031738 12.858495712280273 C10.357342720031738 12.826496124267578 10.341156959533691 12.807943344116211 10.308659553527832 12.802714347839355 A0.15103033185005188 0.15103033185005188 0.0 0 0 10.285501480102539 12.801344871520996 L10.263835906982422 12.801344871520996 L10.24366569519043 12.801469802856445 L10.24366569519043 12.801469802856445 M10.204693794250488 13.08896255493164 L10.204693794250488 12.785905838012695 L10.298574447631836 12.785905838012695 C10.332317352294922 12.785905838012695 10.357093811035156 12.791508674621582 10.373030662536621 12.802589416503906 C10.388969421386719 12.813672065734863 10.396937370300293 12.830605506896973 10.396937370300293 12.853265762329102 A0.07184212654829025 0.07184212654829025 0.0 0 1 10.368673324584961 12.911784172058105 C10.352985382080078 12.924236297607422 10.332192420959473 12.932703018188477 10.306169509887695 12.937434196472168 L10.397186279296875 13.052854537963867 L10.418726921081543 13.07775592803955 L10.427068710327148 13.08896255493164 L10.40129566192627 13.087593078613281 L10.376019477844238 13.08896255493164 L10.348129272460938 13.05036449432373 L10.295960426330566 12.982630729675293 L10.260350227355957 12.940919876098633 L10.243541717529297 12.940919876098633 L10.243541717529297 13.088838577270508 L10.223993301391602 13.087468147277832 L10.204693794250488 13.08896255493164 L10.204693794250488 13.08896255493164 M11.876113891601562 13.08896255493164 L11.876113891601562 12.785905838012695 L12.033369064331055 12.785905838012695 L12.031999588012695 12.79872989654541 L12.033369064331055 12.81167984008789 A0.287742018699646 0.287742018699646 0.0 0 0 12.011579513549805 12.807819366455078 A0.13795679807662964 0.13795679807662964 0.0 0 0 11.993400573730469 12.80682373046875 L11.91520881652832 12.80682373046875 L11.91520881652832 12.918010711669922 L11.983814239501953 12.918010711669922 C11.98941707611084 12.918010711669922 11.99688720703125 12.91763687133789 12.0062255859375 12.916765213012695 C12.01556396484375 12.91601848602295 12.021166801452637 12.915769577026367 12.023283958435059 12.915769577026367 L12.0219144821167 12.927224159240723 L12.023283958435059 12.939675331115723 C12.018054008483887 12.939675331115723 12.01058292388916 12.939301490783691 12.001120567321777 12.938554763793945 A0.3324410319328308 0.3324410319328308 0.0 0 0 11.983814239501953 12.937434196472168 L11.91520881652832 12.937434196472168 L11.91520881652832 13.08896255493164 L11.895661354064941 13.087593078613281 L11.876113891601562 13.08896255493164 L11.876113891601562 13.08896255493164 M13.495735168457031 12.785905838012695 L13.495735168457031 12.955488204956055 C13.495735168457031 12.99620246887207 13.502583503723145 13.02558708190918 13.516155242919922 13.043641090393066 C13.531221389770508 13.06368637084961 13.556995391845703 13.073772430419922 13.593476295471191 13.073772430419922 C13.627093315124512 13.073772430419922 13.65162181854248 13.062317848205566 13.667684555053711 13.039655685424805 C13.682002067565918 13.018987655639648 13.689348220825195 12.989479064941406 13.689348220825195 12.951129913330078 L13.689348220825195 12.785905838012695 L13.701799392700195 12.787275314331055 L13.714250564575195 12.785905838012695 L13.714250564575195 12.962211608886719 C13.714250564575195 13.00504207611084 13.702547073364258 13.037664413452148 13.679512023925781 13.060324668884277 C13.656352996826172 13.082860946655273 13.624852180480957 13.094067573547363 13.584884643554688 13.094067573547363 C13.543547630310059 13.094067573547363 13.51142406463623 13.083732604980469 13.488887786865234 13.063064575195312 A0.09101662039756775 0.09101662039756775 0.0 0 1 13.462615966796875 13.017120361328125 A0.23133911192417145 0.23133911192417145 0.0 0 1 13.457013130187988 12.962958335876465 L13.457013130187988 12.785781860351562 L13.476436614990234 12.787150382995605 L13.495735168457031 12.785905838012695 L13.495735168457031 12.785905838012695 M15.487394332885742 12.785905838012695 L15.496606826782227 12.785905838012695 A15.065678596496582 15.065678596496582 0.0 0 0 15.508062362670898 12.893980026245117 C15.512918472290039 12.937434196472168 15.516777992248535 12.971052169799805 15.520015716552734 12.99508285522461 C15.522878646850586 13.019112586975098 15.527360916137695 13.05036449432373 15.532465934753418 13.088838577270508 L15.511797904968262 13.087468147277832 L15.490880012512207 13.088838577270508 L15.48353385925293 13.004171371459961 A2.6692397594451904 2.6692397594451904 0.0 0 0 15.468219757080078 12.860114097595215 C15.450164794921875 12.892610549926758 15.434600830078125 12.92087459564209 15.421278953552246 12.94527816772461 A1.8067609071731567 1.8067609071731567 0.0 0 0 15.352176666259766 13.083857536315918 L15.347320556640625 13.083857536315918 L15.323040962219238 13.033804893493652 A2.520824432373047 2.520824432373047 0.0 0 0 15.294528007507324 12.97640609741211 A2.613584041595459 2.613584041595459 0.0 0 0 15.264147758483887 12.91776180267334 A3.229782819747925 3.229782819747925 0.0 0 1 15.233518600463867 12.860114097595215 C15.228662490844727 12.902322769165039 15.223557472229004 12.945029258728027 15.218951225280762 12.988109588623047 A1.0207308530807495 1.0207308530807495 0.0 0 0 15.211853981018066 13.088713645935059 L15.196290016174316 13.0873441696167 L15.180477142333984 13.088713645935059 C15.186578750610352 13.050240516662598 15.194547653198242 12.995704650878906 15.204755783081055 12.9251070022583 C15.214716911315918 12.854385375976562 15.220818519592285 12.807943344116211 15.222810745239258 12.785781860351562 L15.234514236450195 12.785781860351562 C15.249828338623047 12.815912246704102 15.262529373168945 12.840564727783203 15.271991729736328 12.859739303588867 A3.762061834335327 3.762061834335327 0.0 0 0 15.359770774841309 13.01799201965332 L15.487394332885742 12.785905838012695 L15.487394332885742 12.785905838012695 M16.98312759399414 13.029197692871094 L16.987735748291016 13.029197692871094 A0.11367739737033844 0.11367739737033844 0.0 0 0 17.017120361328125 13.062939643859863 A0.07346074283123016 0.07346074283123016 0.0 0 0 17.059951782226562 13.075390815734863 C17.077756881713867 13.075390815734863 17.092575073242188 13.069040298461914 17.10415267944336 13.05659008026123 C17.115732192993164 13.04413890838623 17.121707916259766 13.02869987487793 17.121707916259766 13.010770797729492 C17.121707916259766 12.988234519958496 17.109756469726562 12.970927238464355 17.085973739624023 12.958476066589355 C17.06356430053711 12.94876480102539 17.041275024414062 12.938803672790527 17.01911163330078 12.928842544555664 A0.07022349536418915 0.07022349536418915 0.0 0 1 16.98312759399414 12.864595413208008 C16.98312759399414 12.83732795715332 16.992839813232422 12.816161155700684 17.012514114379883 12.800722122192383 A0.10869701206684113 0.10869701206684113 0.0 0 1 17.081615447998047 12.779431343078613 C17.093320846557617 12.779431343078613 17.105024337768555 12.781298637390137 17.116106033325195 12.78490924835205 A0.07470584660768509 0.07470584660768509 0.0 0 1 17.144742965698242 12.800722122192383 A0.2983253300189972 0.2983253300189972 0.0 0 0 17.139389038085938 12.814044952392578 L17.132789611816406 12.837079048156738 L17.128433227539062 12.837079048156738 A0.055531349033117294 0.055531349033117294 0.0 0 0 17.073524475097656 12.798605918884277 A0.05789703130722046 0.05789703130722046 0.0 0 0 17.03392791748047 12.8129243850708 A0.0485587976872921 0.0485587976872921 0.0 0 0 17.01761817932129 12.850401878356934 C17.01761817932129 12.87293815612793 17.02981948852539 12.890244483947754 17.05360221862793 12.902695655822754 C17.076013565063477 12.91278076171875 17.098548889160156 12.92261791229248 17.120962142944336 12.932329177856445 A0.06723526120185852 0.06723526120185852 0.0 0 1 17.157194137573242 12.993463516235352 A0.09450289607048035 0.09450289607048035 0.0 0 1 17.125320434570312 13.067920684814453 A0.11330386996269226 0.11330386996269226 0.0 0 1 17.04775047302246 13.094440460205078 C17.035797119140625 13.094440460205078 17.02247428894043 13.09207534790039 17.007905960083008 13.0873441696167 A0.07570192217826843 0.07570192217826843 0.0 0 1 16.975784301757812 13.068791389465332 C16.97777557373047 13.062317848205566 16.979145050048828 13.0562162399292 16.980140686035156 13.050862312316895 C16.981260299682617 13.045010566711426 16.982257843017578 13.038037300109863 16.98312759399414 13.029197692871094 L16.98312759399414 13.029197692871094 M2.0241546630859375 12.738343238830566 L6.004108905792236 12.738343238830566 L6.004108905792236 12.784536361694336 L2.0241546630859375 12.784536361694336 L2.0241546630859375 12.738343238830566 M17.99576759338379 12.738343238830566 L21.97572135925293 12.738343238830566 L21.97572135925293 12.784536361694336 L17.99576759338379 12.784536361694336 L17.99576759338379 12.738343238830566" fill="black" fill-opacity="1.0" filling="0"/></svg>