<?xml version="1.0" encoding="iso-8859-1"?><svg height="200px" viewBox="0.0 0.0 24.0 24.0" width="200px" xmlns="http://www.w3.org/2000/svg"><path animation_id="0" d="M0.0 0.0 L24.0 0.0 L24.0 24.0 L0.0 24.0 L0.0 0.0" fill="black" fill-opacity="1.0" filling="0"/>
<path animation_id="1" d="M12.740334510803223 10.640851974487305 L11.79368782043457 10.695013999938965 C11.773392677307129 10.546224594116211 11.712507247924805 10.43802547454834 11.638050079345703 10.3705415725708 C11.556994438171387 10.309656143188477 11.45551872253418 10.275789260864258 11.306729316711426 10.275789260864258 C11.184959411621094 10.275789260864258 11.103903770446777 10.302807807922363 11.049866676330566 10.356844902038574 C10.995704650878906 10.39058780670166 10.961962699890137 10.444873809814453 10.961962699890137 10.52592945098877 C10.961962699890137 10.58009147644043 10.982257843017578 10.62740421295166 11.029571533203125 10.661147117614746 C11.070161819458008 10.694889068603516 11.185084342956543 10.742202758789062 11.367615699768066 10.782917022705078 C11.793562889099121 10.877544403076172 12.097989082336426 10.965448379516602 12.28711986541748 11.066924095153809 C12.483346939086914 11.168274879455566 12.625412940979004 11.28332233428955 12.706344604492188 11.418540000915527 A0.9183838367462158 0.9183838367462158 0.0 0 1 12.841561317443848 11.898649215698242 C12.841561317443848 12.101600646972656 12.787525177001953 12.297577857971191 12.659154891967773 12.473386764526367 A1.2392455339431763 1.2392455339431763 0.0 0 1 12.18564510345459 12.872191429138184 C11.976094245910645 12.96021842956543 11.712383270263672 13.007658004760742 11.4080810546875 13.007658004760742 C10.86036205291748 13.007658004760742 10.488451957702637 12.906057357788086 10.272053718566895 12.689784049987793 C10.055656433105469 12.473386764526367 9.93401050567627 12.216273307800293 9.913715362548828 11.891801834106445 L10.86036205291748 11.824193000793457 C10.867210388183594 11.979704856872559 10.914525032043457 12.101475715637207 10.995579719543457 12.18240737915039 C11.097055435180664 12.304302215576172 11.23227310180664 12.371786117553711 11.421527862548828 12.371786117553711 C11.570317268371582 12.371786117553711 11.67166805267334 12.338044166564941 11.746000289916992 12.283757209777832 C11.827180862426758 12.202827453613281 11.861047744750977 12.128369331359863 11.861047744750977 12.047189712524414 C11.861047744750977 11.966134071350098 11.827180862426758 11.891676902770996 11.75957202911377 11.824067115783691 C11.678391456604004 11.75645923614502 11.509431838989258 11.688850402832031 11.252443313598633 11.627964973449707 C10.8129243850708 11.526613235473633 10.4951753616333 11.391396522521973 10.30579662322998 11.222312927246094 C10.116416931152344 11.080370903015137 10.02178955078125 10.877420425415039 10.02178955078125 10.6138334274292 C10.02178955078125 10.444748878479004 10.082674026489258 10.289236068725586 10.184025764465332 10.140447616577148 C10.271929740905762 9.998381614685059 10.420719146728516 9.869887351989746 10.610097885131836 9.795555114746094 C10.799477577209473 9.714375495910645 11.069787979125977 9.667060852050781 11.401232719421387 9.667060852050781 C11.81360912322998 9.667060852050781 12.131607055664062 9.748241424560547 12.35460376739502 9.8970308303833 C12.557928085327148 10.052667617797852 12.686422348022461 10.302807807922363 12.740334510803223 10.640851974487305 L12.740334510803223 10.640851974487305 M14.511984825134277 12.405777931213379 C14.633878707885742 12.405777931213379 14.735230445861816 12.35149097442627 14.816162109375 12.250140190124512 C14.904190063476562 12.148789405822754 14.951627731323242 11.993400573730469 14.951627731323242 11.776878356933594 C14.951627731323242 11.574052810668945 14.904190063476562 11.425263404846191 14.816162109375 11.323911666870117 C14.735230445861816 11.222436904907227 14.63375473022461 11.181846618652344 14.511984825134277 11.181846618652344 C14.383615493774414 11.181846618652344 14.275415420532227 11.222436904907227 14.194110870361328 11.323911666870117 C14.113179206848145 11.425263404846191 14.072464942932129 11.574052810668945 14.072464942932129 11.790450096130371 C14.072464942932129 12.0 14.113055229187012 12.148664474487305 14.194110870361328 12.250140190124512 C14.275291442871094 12.35149097442627 14.3767671585083 12.405777931213379 14.511984825134277 12.405777931213379 M14.498537063598633 10.559795379638672 C14.95810317993164 10.559795379638672 15.323413848876953 10.695013999938965 15.559983253479004 10.979020118713379 C15.749237060546875 11.188694953918457 15.850837707519531 11.459129333496094 15.850837707519531 11.776878356933594 C15.850837707519531 12.13534164428711 15.735791206359863 12.432795524597168 15.499221801757812 12.669363975524902 C15.262404441833496 12.892610549926758 14.924360275268555 13.007658004760742 14.498537063598633 13.007658004760742 C14.12650203704834 13.007658004760742 13.822200775146484 12.91278076171875 13.585631370544434 12.723650932312012 C13.30162525177002 12.487082481384277 13.166407585144043 12.169208526611328 13.166407585144043 11.790450096130371 C13.166407585144043 11.438835144042969 13.294776916503906 11.134532928466797 13.53147029876709 10.89784049987793 C13.768287658691406 10.674718856811523 14.09276008605957 10.559795379638672 14.498537063598633 10.559795379638672 M17.203262329101562 9.667184829711914 L17.879350662231445 9.728070259094238 L17.777999877929688 10.269065856933594 L17.527734756469727 10.235323905944824 C17.439956665039062 10.235323905944824 17.385669708251953 10.242047309875488 17.351926803588867 10.27591323852539 L17.284318923950195 10.411130905151367 L17.27099609375 10.614082336425781 L17.689970016479492 10.614082336425781 L17.689970016479492 11.269999504089355 L17.27099609375 11.269999504089355 L17.27099609375 12.946772575378418 L16.371662139892578 12.946772575378418 L16.371662139892578 11.269750595092773 L16.04021644592285 11.269750595092773 L16.04021644592285 10.6138334274292 L16.371662139892578 10.6138334274292 L16.371662139892578 10.512357711791992 L16.40540313720703 10.187760353088379 C16.412002563476562 10.07283878326416 16.459442138671875 9.98493480682373 16.51335334777832 9.917325973510742 C16.574363708496094 9.836145401000977 16.648818969726562 9.782108306884766 16.750171661376953 9.748241424560547 L17.203262329101562 9.667184829711914 L17.203262329101562 9.667184829711914 M17.879350662231445 10.613958358764648 L18.203947067260742 10.613958358764648 L18.203947067260742 10.187885284423828 L19.096433639526367 9.728070259094238 L19.096433639526367 10.613958358764648 L19.603437423706055 10.613958358764648 L19.603437423706055 11.269874572753906 L19.096433639526367 11.269874572753906 L19.096433639526367 12.101600646972656 C19.096433639526367 12.202951431274414 19.110004425048828 12.263836860656738 19.13017463684082 12.297577857971191 C19.163917541503906 12.351615905761719 19.21135711669922 12.372035026550293 19.285812377929688 12.372035026550293 L19.569570541381836 12.304426193237305 L19.63718032836914 12.940049171447754 L19.008529663085938 13.007658004760742 C18.792131423950195 13.007658004760742 18.623046875 12.973915100097656 18.521696090698242 12.91278076171875 A0.5490879416465759 0.5490879416465759 0.0 0 1 18.28487777709961 12.669363975524902 C18.23084259033203 12.540994644165039 18.203947067260742 12.36518669128418 18.203947067260742 12.101475715637207 L18.203947067260742 11.269750595092773 L17.879350662231445 11.269750595092773 L17.879350662231445 10.613958358764648 M20.955862045288086 10.235198974609375 L21.76741600036621 9.694204330444336 L21.9500732421875 10.09985637664795 L22.565275192260742 9.694204330444336 L22.747928619384766 10.09985637664795 L23.390151977539062 9.694204330444336 L23.647140502929688 10.309532165527344 L23.478179931640625 10.377140045166016 L23.302371978759766 9.964763641357422 L22.659900665283203 10.377140045166016 L22.490942001342773 9.964763641357422 L21.85531997680664 10.377140045166016 L21.67976188659668 9.964763641357422 L21.05746078491211 10.377140045166016 L20.955862045288086 10.235198974609375 L20.955862045288086 10.235198974609375 M21.145240783691406 12.385357856750488 C21.294029235839844 12.385357856750488 21.44269371032715 12.419349670410156 21.577911376953125 12.486957550048828 A0.9757828712463379 0.9757828712463379 0.0 0 1 21.882339477539062 12.804581642150879 C21.956546783447266 12.926477432250977 21.99028968811035 13.075265884399414 21.99028968811035 13.2306547164917 A0.8441761136054993 0.8441761136054993 0.0 0 1 21.882339477539062 13.64987850189209 A1.0813671350479126 1.0813671350479126 0.0 0 1 21.577911376953125 13.954055786132812 C21.44269371032715 14.028512954711914 21.29415512084961 14.062255859375 21.145240783691406 14.07595157623291 C21.003173828125 14.062379837036133 20.854385375976562 14.028512954711914 20.732864379882812 13.954055786132812 A0.9783975481987 0.9783975481987 0.0 0 1 20.41499137878418 13.64987850189209 C20.333812713623047 13.514660835266113 20.299945831298828 13.379444122314453 20.299945831298828 13.2306547164917 C20.299945831298828 13.075265884399414 20.33368682861328 12.926477432250977 20.41499137878418 12.804581642150879 A0.8941044807434082 0.8941044807434082 0.0 0 1 20.732864379882812 12.486957550048828 C20.854385375976562 12.419349670410156 21.003299713134766 12.385357856750488 21.145240783691406 12.385357856750488 M20.955862045288086 11.357654571533203 L21.76741600036621 10.8099365234375 L21.9500732421875 11.222436904907227 L22.565275192260742 10.8099365234375 L22.747928619384766 11.222436904907227 L23.390151977539062 10.8099365234375 L23.647140502929688 11.438835144042969 L23.478179931640625 11.506443977355957 L23.302371978759766 11.08049488067627 L22.659900665283203 11.506443977355957 L22.490942001342773 11.08049488067627 L21.85531997680664 11.506443977355957 L21.67976188659668 11.08049488067627 L21.05746078491211 11.506443977355957 L20.955862045288086 11.357654571533203 L20.955862045288086 11.357654571533203 M21.496856689453125 13.027828216552734 C21.496856689453125 13.081865310668945 21.476436614990234 13.142874717712402 21.442569732666016 13.183465957641602 C21.395381927490234 13.2306547164917 21.327774047851562 13.264396667480469 21.246591567993164 13.278092384338379 L21.327774047851562 13.332130432128906 L21.395381927490234 13.420158386230469 L21.543920516967773 13.670422554016113 L21.28033447265625 13.670422554016113 L21.10452651977539 13.365996360778809 C21.070783615112305 13.332254409790039 21.043766021728516 13.318807601928711 21.009899139404297 13.318807601928711 L20.989479064941406 13.318807601928711 L20.989479064941406 13.670422554016113 L20.766481399536133 13.670422554016113 L20.766481399536133 12.77083969116211 L21.158687591552734 12.77083969116211 C21.28033447265625 12.77083969116211 21.361515045166016 12.791259765625 21.415428161621094 12.838448524475098 C21.476436614990234 12.892610549926758 21.496856689453125 12.946523666381836 21.496856689453125 13.027828216552734 L21.496856689453125 13.027828216552734 M21.61850357055664 12.743821144104004 C21.496856689453125 12.601755142211914 21.341217041015625 12.534147262573242 21.145240783691406 12.534147262573242 C20.955862045288086 12.534147262573242 20.800350189208984 12.601755142211914 20.66525650024414 12.743821144104004 C20.53003692626953 12.879039764404297 20.46242904663086 13.041523933410645 20.46242904663086 13.2306547164917 C20.46242904663086 13.42003345489502 20.53003692626953 13.582269668579102 20.66525650024414 13.717487335205078 C20.800474166870117 13.839383125305176 20.955862045288086 13.906867027282715 21.145240783691406 13.906867027282715 C21.341217041015625 13.906867027282715 21.496856689453125 13.839258193969727 21.61850357055664 13.717487335205078 C21.753719329833984 13.582269668579102 21.821327209472656 13.42003345489502 21.83489990234375 13.2306547164917 C21.821327209472656 13.041399002075195 21.753719329833984 12.879039764404297 21.61850357055664 12.743821144104004 M21.091079711914062 12.940049171447754 L20.989727020263672 12.940049171447754 L20.989727020263672 13.149474143981934 L21.077754974365234 13.149474143981934 L21.226547241210938 13.115731239318848 L21.26028823852539 13.04812240600586 L21.226547241210938 12.960344314575195 L21.091079711914062 12.940049171447754 M1.2927846908569336 9.728070259094238 L2.496419906616211 11.506443977355957 L2.496419906616211 9.728070259094238 L3.4430675506591797 9.728070259094238 L3.4430675506591797 12.946647644042969 L2.496419906616211 12.946647644042969 L1.2927846908569336 11.181970596313477 L1.2927846908569336 12.946647644042969 L0.3528604507446289 12.946647644042969 L0.3528604507446289 9.728070259094238 L1.2927846908569336 9.728070259094238 L1.2927846908569336 9.728070259094238 M5.201021194458008 10.559795379638672 L5.856938362121582 10.607110023498535 C6.012451171875 10.640851974487305 6.147668838500977 10.695013999938965 6.262591361999512 10.796488761901855 C6.330199718475342 10.864097595214844 6.384361743927002 10.952001571655273 6.438398838043213 11.08049488067627 C6.472140789031982 11.202141761779785 6.499284267425537 11.31706428527832 6.499284267425537 11.418540000915527 L6.499284267425537 12.453215599060059 L6.5195794105529785 12.709955215454102 L6.607483386993408 12.946523666381836 L5.775758266448975 12.946523666381836 L5.708149433135986 12.811305046081543 L5.687854290008545 12.66923999786377 L5.322791576385498 12.912656784057617 C5.167154312133789 12.973666191101074 4.984623432159424 13.007533073425293 4.775073528289795 13.007533073425293 C4.4910664558410645 13.007533073425293 4.288240432739258 12.939924240112305 4.139451026916504 12.811305046081543 C3.9973859786987305 12.68966007232666 3.929777145385742 12.520699501037598 3.929777145385742 12.331320762634277 C3.929777145385742 12.162361145019531 3.9703664779663086 12.013446807861328 4.071842193603516 11.89852523803711 C4.173192977905273 11.776754379272461 4.376019477844238 11.695697784423828 4.66015100479126 11.641536712646484 L5.316068172454834 11.49287223815918 L5.620369911193848 11.391520500183105 C5.620369911193848 11.28332233428955 5.593351364135742 11.202141761779785 5.559484958648682 11.154827117919922 C5.518894672393799 11.114237785339355 5.437714099884033 11.08721923828125 5.316068172454834 11.08721923828125 C5.16727876663208 11.08721923828125 5.065927982330322 11.114362716674805 4.984747886657715 11.168399810791016 C4.930585861206055 11.202141761779785 4.883396625518799 11.269874572753906 4.849530220031738 11.37122631072998 L3.997509002685547 11.28332233428955 C4.031251907348633 11.12096118927002 4.071966648101807 10.999316215515137 4.13272762298584 10.918135643005371 L4.389591217041016 10.708459854125977 L4.727759838104248 10.593538284301758 L5.201021194458008 10.559795379638672 L5.201021194458008 10.559795379638672 M4.896843433380127 12.439518928527832 C4.944157600402832 12.486957550048828 5.011765956878662 12.50712776184082 5.113241672515869 12.50712776184082 C5.214592933654785 12.50712776184082 5.302621364593506 12.486957550048828 5.390524864196777 12.432671546936035 C5.471580505371094 12.385232925415039 5.539189338684082 12.331320762634277 5.573056221008301 12.250016212463379 C5.60679817199707 12.18240737915039 5.620369911193848 12.094627380371094 5.620369911193848 11.97957992553711 L5.620369911193848 11.844487190246582 L5.234887599945068 11.959410667419434 C5.052356243133545 11.999876022338867 4.944157600402832 12.047189712524414 4.896843433380127 12.101475715637207 C4.842682361602783 12.148664474487305 4.815788269042969 12.202827453613281 4.815788269042969 12.263711929321289 C4.8156633377075195 12.33816909790039 4.842682361602783 12.405777931213379 4.896843433380127 12.439518928527832 L4.896843433380127 12.439518928527832 M7.919317722320557 10.613958358764648 L7.919317722320557 11.898649215698242 C7.919317722320557 12.047314643859863 7.939612865447998 12.162361145019531 7.993774890899658 12.216398239135742 C8.054535865783691 12.270684242248535 8.128992080688477 12.304426193237305 8.230342864990234 12.304426193237305 C8.331693649291992 12.304426193237305 8.426445960998535 12.263836860656738 8.494054794311523 12.182531356811523 C8.561663627624512 12.101600646972656 8.595405578613281 11.959534645080566 8.595405578613281 11.74313735961914 L8.595405578613281 10.613958358764648 L9.481168746948242 10.613958358764648 L9.481168746948242 12.946647644042969 L8.649443626403809 12.946647644042969 L8.649443626403809 12.574862480163574 C8.527671813964844 12.73709774017334 8.399303436279297 12.845296859741211 8.277532577514648 12.906057357788086 C8.155885696411133 12.973915100097656 7.993649482727051 13.007658004760742 7.8042707443237305 13.007658004760742 C7.554131031036377 13.007658004760742 7.364751815795898 12.926477432250977 7.229533672332764 12.77756404876709 C7.080744743347168 12.635498046875 7.01313591003418 12.405777931213379 7.01313591003418 12.101475715637207 L7.01313591003418 10.613958358764648 L7.919317722320557 10.613958358764648 L7.919317722320557 10.613958358764648 M13.227168083190918 13.521509170532227 L13.2677583694458 13.514660835266113 L13.34893798828125 13.501089096069336 L13.504326820373535 13.521509170532227 L13.484155654907227 13.656726837158203 L13.416546821594238 13.656726837158203 L13.382805824279785 13.67029857635498 C13.369234085083008 13.67029857635498 13.362385749816895 13.683621406555176 13.362385749816895 13.690469741821289 L13.362385749816895 13.737907409667969 L13.463737487792969 13.737907409667969 L13.463737487792969 13.906867027282715 L13.362385749816895 13.906867027282715 L13.362385749816895 14.326090812683105 L13.132540702819824 14.326090812683105 L13.132540702819824 13.906867027282715 L13.058083534240723 13.906867027282715 L13.058083534240723 13.737907409667969 L13.132540702819824 13.737907409667969 L13.132540702819824 13.636306762695312 L13.16628360748291 13.568697929382324 L13.227168083190918 13.521509170532227 L13.227168083190918 13.521509170532227 M14.349748611450195 13.521509170532227 L14.349748611450195 13.737907409667969 L14.484965324401855 13.737907409667969 L14.484965324401855 13.906867027282715 L14.349748611450195 13.906867027282715 L14.349748611450195 14.10969352722168 L14.36307144165039 14.16373062133789 C14.376642227172852 14.177301406860352 14.383490562438965 14.177301406860352 14.41050910949707 14.177301406860352 L14.478116989135742 14.177301406860352 L14.484965324401855 14.326090812683105 L14.329328536987305 14.332690238952637 L14.207682609558105 14.326090812683105 L14.14692211151123 14.258481979370117 L14.140073776245117 14.10969352722168 L14.140073776245117 13.906867027282715 L14.045446395874023 13.906867027282715 L14.045446395874023 13.737907409667969 L14.140073776245117 13.737907409667969 L14.140073776245117 13.636306762695312 L14.349748611450195 13.521509170532227 L14.349748611450195 13.521509170532227 M19.704912185668945 14.062255859375 L19.704912185668945 14.095996856689453 L19.265518188476562 14.095996856689453 L19.299259185791016 14.177177429199219 A0.11243230104446411 0.11243230104446411 0.0 0 0 19.38043975830078 14.210920333862305 L19.434476852416992 14.190749168395996 L19.481914520263672 14.163480758666992 L19.704912185668945 14.177053451538086 L19.583267211914062 14.298698425292969 L19.38043975830078 14.332441329956055 L19.197784423828125 14.312270164489746 C19.143747329711914 14.29210090637207 19.110004425048828 14.258233070373535 19.08273696899414 14.210920333862305 C19.048995971679688 14.156633377075195 19.042394638061523 14.09587287902832 19.042394638061523 14.041959762573242 C19.042394638061523 13.940608978271484 19.06256675720215 13.873000144958496 19.11660385131836 13.818714141845703 C19.1776123046875 13.757953643798828 19.265392303466797 13.72408676147461 19.366867065429688 13.72408676147461 L19.55624771118164 13.757828712463379 L19.67104721069336 13.886198043823242 C19.691463470458984 13.927038192749023 19.704912185668945 13.987922668457031 19.704912185668945 14.062255859375 L19.704912185668945 14.062255859375 M19.38043975830078 13.859428405761719 C19.346696853637695 13.859428405761719 19.31943130493164 13.873000144958496 19.285812377929688 13.906867027282715 L19.265392303466797 13.987798690795898 L19.48179054260254 13.987798690795898 L19.448049545288086 13.893171310424805 C19.434476852416992 13.873124122619629 19.414306640625 13.859428405761719 19.38043975830078 13.859428405761719 L19.38043975830078 13.859428405761719 M18.474382400512695 13.758077621459961 L18.40677261352539 13.92031478881836 L18.33916473388672 13.906991958618164 C18.305423736572266 13.906991958618164 18.28487777709961 13.92031478881836 18.271556854248047 13.940732955932617 C18.251136779785156 13.974475860595703 18.23781394958496 14.042084693908691 18.23781394958496 14.129988670349121 L18.23781394958496 14.326215744018555 L18.014568328857422 14.326215744018555 L18.014568328857422 13.737907409667969 L18.23096466064453 13.737907409667969 L18.23096466064453 13.839258193969727 C18.23781394958496 13.79181957244873 18.264707565307617 13.771649360656738 18.285003662109375 13.758077621459961 L18.366182327270508 13.724335670471191 L18.474382400512695 13.758077621459961 L18.474382400512695 13.758077621459961 M17.324909210205078 13.859428405761719 L17.33847999572754 13.954055786132812 L17.33847999572754 14.211044311523438 L17.35865020751953 14.326090812683105 L17.155824661254883 14.326090812683105 L17.13565444946289 14.292348861694336 L17.13565444946289 14.258606910705566 L17.047624588012695 14.326215744018555 L16.89883804321289 14.332815170288086 C16.831226348876953 14.332815170288086 16.784038543701172 14.326215744018555 16.750295639038086 14.292473793029785 C16.716554641723633 14.2587308883667 16.696008682250977 14.224864959716797 16.696008682250977 14.1774263381958 C16.696008682250977 14.129988670349121 16.70958137512207 14.096245765686035 16.74344825744629 14.062379837036133 C16.76361846923828 14.028636932373047 16.811058044433594 14.008342742919922 16.878665924072266 13.994771003723145 L17.047624588012695 13.961028099060059 L17.122081756591797 13.940858840942383 L17.101911544799805 13.886571884155273 L17.047624588012695 13.859553337097168 L16.952999114990234 13.886571884155273 L16.932579040527344 13.940858840942383 L16.716428756713867 13.907115936279297 L16.74344825744629 13.825935363769531 L16.811058044433594 13.758326530456543 L16.885513305664062 13.73815631866455 L17.02073097229004 13.724584579467773 L17.16927146911621 13.73815631866455 L17.284318923950195 13.785346031188965 L17.324909210205078 13.859428405761719 L17.324909210205078 13.859428405761719 M16.919254302978516 14.16373062133789 L16.946273803710938 14.19747257232666 L16.98686408996582 14.224740982055664 L17.06779670715332 14.19747257232666 L17.115234375 14.156882286071777 L17.122081756591797 14.089273452758789 L17.122081756591797 14.042084693908691 L17.02073097229004 14.075826644897461 C16.980140686035156 14.089149475097656 16.953121185302734 14.095996856689453 16.946273803710938 14.10956859588623 L16.919254302978516 14.16373062133789 M15.904874801635742 14.326215744018555 L15.715496063232422 14.326215744018555 L15.593849182128906 13.974599838256836 L15.478802680969238 14.326215744018555 L15.275976181030273 14.326215744018555 L15.059577941894531 13.737907409667969 L15.275976181030273 13.737907409667969 L15.377326965332031 14.10969352722168 L15.492374420166016 13.737907409667969 L15.695199966430664 13.737907409667969 L15.817095756530762 14.10969352722168 L15.904874801635742 13.737907409667969 L16.121273040771484 13.737907409667969 L15.904874801635742 14.326215744018555 L15.904874801635742 14.326215744018555 M12.050800323486328 13.927038192749023 C12.030505180358887 13.954055786132812 12.01693344116211 13.987798690795898 12.01693344116211 14.042084693908691 C12.01693344116211 14.089273452758789 12.030505180358887 14.123016357421875 12.050800323486328 14.156882286071777 C12.064247131347656 14.177301406860352 12.084542274475098 14.190874099731445 12.118285179138184 14.190874099731445 C12.152026176452637 14.190874099731445 12.179045677185059 14.177301406860352 12.212911605834961 14.156882286071777 L12.233331680297852 14.042084693908691 A0.39967629313468933 0.39967629313468933 0.0 0 0 12.212911605834961 13.92018985748291 L12.118285179138184 13.886446952819824 C12.084542274475098 13.886446952819824 12.064247131347656 13.893295288085938 12.050800323486328 13.927038192749023 M12.382120132446289 13.82568645477295 C12.4361572265625 13.886446952819824 12.456328392028809 13.954055786132812 12.456328392028809 14.028512954711914 C12.456328392028809 14.129863739013672 12.4361572265625 14.19747257232666 12.382120132446289 14.258606910705566 C12.321110725402832 14.312644958496094 12.233331680297852 14.332815170288086 12.118285179138184 14.332815170288086 C12.030381202697754 14.332815170288086 11.949324607849121 14.312644958496094 11.895163536071777 14.278778076171875 C11.827553749084473 14.21116828918457 11.793811798095703 14.129988670349121 11.793811798095703 14.042208671569824 C11.793811798095703 13.954180717468262 11.827553749084473 13.873249053955078 11.881715774536133 13.818963050842285 C11.942601203918457 13.75820255279541 12.01693344116211 13.724335670471191 12.118285179138184 13.724335670471191 C12.246903419494629 13.724335670471191 12.321110725402832 13.758077621459961 12.382120132446289 13.82568645477295 L12.382120132446289 13.82568645477295 M11.164913177490234 14.143560409545898 L11.137770652770996 14.231339454650879 L11.036418914794922 14.312519073486328 L10.867459297180176 14.332690238952637 C10.759261131286621 14.332690238952637 10.678080558776855 14.326090812683105 10.64433765411377 14.292348861694336 C10.590176582336426 14.258606910705566 10.563157081604004 14.224740982055664 10.55643367767334 14.16373062133789 L10.766108512878418 14.143560409545898 L10.813422203063965 14.19759750366211 L10.881031036376953 14.224864959716797 L10.948639869689941 14.19759750366211 L10.968935012817383 14.16385555267334 L10.935192108154297 14.12326431274414 L10.847289085388184 14.109941482543945 L10.766233444213867 14.089523315429688 L10.678329467773438 14.062503814697266 L10.597148895263672 14.008466720581055 L10.57685375213623 13.920438766479492 C10.57685375213623 13.873249053955078 10.590300559997559 13.839507102966309 10.610595703125 13.819087028503418 L10.691652297973633 13.751479148864746 L10.860610961914062 13.724459648132324 L11.01624870300293 13.751479148864746 C11.0499906539917 13.758326530456543 11.070286750793457 13.77189826965332 11.097429275512695 13.792069435119629 L11.151466369628906 13.89341926574707 L10.935068130493164 13.906991958618164 L10.914773941040039 13.873249053955078 L10.84716510772705 13.852829933166504 L10.793002128601074 13.859678268432617 L10.765984535217285 13.89341926574707 L10.799726486206055 13.927162170410156 L10.894353866577148 13.954180717468262 L11.063438415527344 13.987922668457031 C11.097304344177246 13.994771003723145 11.131047248840332 14.008342742919922 11.137770652770996 14.042208671569824 L11.164913177490234 14.143560409545898 M2.171823501586914 13.589118003845215 L2.4489822387695312 14.326215744018555 L2.2055654525756836 14.326215744018555 L2.171823501586914 14.21116828918457 L1.908111572265625 14.21116828918457 L1.8743696212768555 14.326215744018555 L1.6376771926879883 14.326215744018555 L1.9216833114624023 13.589118003845215 L2.171823501586914 13.589118003845215 M1.1102533340454102 13.589118003845215 L1.1102533340454102 14.326215744018555 L0.8938560485839844 14.326215744018555 L0.6234197616577148 13.927162170410156 L0.6234197616577148 14.326215744018555 L0.4137458801269531 14.326215744018555 L0.4137458801269531 13.589118003845215 L0.6234197616577148 13.589118003845215 L0.8938560485839844 13.994771003723145 L0.8938560485839844 13.589118003845215 L1.1102533340454102 13.589118003845215 L1.1102533340454102 13.589118003845215 M3.666189193725586 13.589118003845215 L3.666189193725586 14.028512954711914 L3.659465789794922 14.156882286071777 L3.5918569564819336 14.258481979370117 L3.49722957611084 14.312519073486328 L3.328145980834961 14.332690238952637 L3.21994686126709 14.326090812683105 L3.1050233840942383 14.298824310302734 L3.03741455078125 14.23121452331543 L2.9901018142700195 14.156757354736328 L2.9563589096069336 14.028388023376465 L2.9563589096069336 13.588993072509766 L3.193052291870117 13.588993072509766 L3.193052291870117 14.042084693908691 L3.2267942428588867 14.129863739013672 C3.2538137435913086 14.163605690002441 3.287679672241211 14.177301406860352 3.321422576904297 14.177301406860352 C3.35516357421875 14.177301406860352 3.389031410217285 14.16373062133789 3.40932559967041 14.129863739013672 C3.4296207427978516 14.123016357421875 3.4430675506591797 14.089273452758789 3.4430675506591797 14.042084693908691 L3.4430675506591797 13.588993072509766 L3.666189193725586 13.588993072509766 L3.666189193725586 13.589118003845215 L3.666189193725586 13.589118003845215 M5.5053229331970215 13.589118003845215 L5.7284440994262695 13.589118003845215 L5.7284440994262695 14.326215744018555 L5.5053229331970215 14.326215744018555 L5.5053229331970215 13.589118003845215 M4.930585861206055 13.589118003845215 L4.930585861206055 13.758077621459961 L4.69401741027832 13.758077621459961 L4.69401741027832 14.326090812683105 L4.457324504852295 14.326090812683105 L4.457324504852295 13.758077621459961 L4.234202861785889 13.758077621459961 L4.234202861785889 13.589118003845215 L4.930585861206055 13.589118003845215 L4.930585861206055 13.589118003845215 M7.723215103149414 13.589118003845215 L7.723215103149414 14.042208671569824 L7.756957054138184 14.129988670349121 C7.770528793334961 14.16373062133789 7.8042707443237305 14.1774263381958 7.8515849113464355 14.1774263381958 L7.953060150146484 14.129988670349121 C7.959783554077148 14.123140335083008 7.973355293273926 14.089397430419922 7.973355293273926 14.042208671569824 L7.973355293273926 13.589118003845215 L8.196476936340332 13.589118003845215 L8.196476936340332 14.028512954711914 L8.17618179321289 14.156882286071777 L8.108572959899902 14.258481979370117 L8.027517318725586 14.312519073486328 L7.871879577636719 14.332690238952637 L7.750233173370361 14.326090812683105 L7.6487579345703125 14.298824310302734 L7.554131031036377 14.23121452331543 L7.513540744781494 14.156757354736328 L7.500093460083008 14.028388023376465 L7.500093460083008 13.588993072509766 L7.723215103149414 13.588993072509766 L7.723215103149414 13.589118003845215 L7.723215103149414 13.589118003845215 M6.5873122215271 13.589118003845215 L6.5873122215271 14.143560409545898 L6.945651531219482 14.143560409545898 L6.945651531219482 14.326215744018555 L6.364191055297852 14.326215744018555 L6.364191055297852 13.589118003845215 L6.5873122215271 13.589118003845215 M9.339227676391602 13.6228609085083 C9.393388748168945 13.656601905822754 9.413683891296387 13.717487335205078 9.427130699157715 13.79181957244873 L9.210732460021973 13.818838119506836 C9.204009056091309 13.785096168518066 9.190563201904297 13.751230239868164 9.176990509033203 13.737907409667969 C9.156695365905762 13.724335670471191 9.13640022277832 13.717487335205078 9.102534294128418 13.717487335205078 L9.03492546081543 13.724335670471191 L9.007905960083008 13.758077621459961 L9.03492546081543 13.80551528930664 L9.109382629394531 13.82568645477295 L9.210732460021973 13.852705955505371 L9.325779914855957 13.893295288085938 L9.427130699157715 13.974475860595703 L9.447425842285156 14.089273452758789 C9.447425842285156 14.143560409545898 9.440577507019043 14.190874099731445 9.413683891296387 14.224740982055664 L9.291913032531738 14.312519073486328 L9.122953414916992 14.332690238952637 C9.001182556152344 14.332690238952637 8.90655517578125 14.312519073486328 8.866089820861816 14.265081405639648 C8.818777084350586 14.224740982055664 8.798480987548828 14.16373062133789 8.78490924835205 14.089273452758789 L9.001307487487793 14.062255859375 L9.021602630615234 14.156882286071777 C9.055468559265137 14.190874099731445 9.089211463928223 14.19747257232666 9.123078346252441 14.19747257232666 L9.19068717956543 14.177301406860352 C9.210857391357422 14.16373062133789 9.2244291305542 14.143560409545898 9.2244291305542 14.10969352722168 L9.204133987426758 14.062255859375 C9.19068717956543 14.055407524108887 9.143248558044434 14.028512954711914 9.075639724731445 14.0216646194458 L9.008030891418457 14.008342742919922 C8.940422058105469 13.987922668457031 8.899831771850586 13.960904121398926 8.866089820861816 13.940732955932617 A0.2149038165807724 0.2149038165807724 0.0 0 1 8.805204391479492 13.79194450378418 L8.838946342468262 13.683745384216309 L8.940298080444336 13.61613655090332 L9.122828483581543 13.58239459991455 C9.210732460021973 13.582269668579102 9.278465270996094 13.589118003845215 9.339227676391602 13.6228609085083 L9.339227676391602 13.6228609085083 M2.124508857727051 14.042084693908691 L2.043330192565918 13.771649360656738 L1.9689979553222656 14.042084693908691 L2.124508857727051 14.042084693908691" fill="black" fill-opacity="1.0" filling="0"/></svg>