<?xml version="1.0" encoding="iso-8859-1"?><svg height="200px" viewBox="0.0 0.0 24.0 24.0" width="200px" xmlns="http://www.w3.org/2000/svg"><path animation_id="0" d="M0.0 0.0 L24.0 0.0 L24.0 24.0 L0.0 24.0 L0.0 0.0" fill="black" fill-opacity="1.0" filling="0"/>
<path animation_id="1" d="M9.709270477294922 14.992467880249023 L19.499595642089844 14.992467880249023 C19.499595642089844 14.992467880249023 20.10321807861328 15.059577941894531 20.50538444519043 14.6571626663208 C20.891117095947266 14.254996299743652 20.824005126953125 14.020295143127441 20.857498168945312 13.835647583007812 C20.891117095947266 13.668057441711426 20.84069061279297 12.84666633605957 20.84069061279297 12.84666633605957 L9.709270477294922 12.84666633605957 L9.709270477294922 14.992467880249023" fill="black" fill-opacity="1.0" filling="0"/>
<path animation_id="2" d="M11.519766807556152 13.36637020111084 L11.519766807556152 14.405776977539062 L11.922057151794434 14.405776977539062 C12.039469718933105 14.405776977539062 12.089771270751953 14.388969421386719 12.156882286071777 14.355475425720215 C12.22374439239502 14.288614273071289 12.25736141204834 14.204693794250488 12.25736141204834 14.103965759277344 C12.25736141204834 13.986802101135254 12.207059860229492 13.902883529663086 12.089771270751953 13.869264602661133 C12.190250396728516 13.835647583007812 12.24055290222168 13.752100944519043 12.24055290222168 13.634563446044922 C12.24055290222168 13.550644874572754 12.190250396728516 13.466974258422852 12.123390197753906 13.416671752929688 C12.056154251098633 13.383054733276367 12.005976676940918 13.36637020111084 11.87175464630127 13.36637020111084 L11.519766807556152 13.36637020111084 L11.519766807556152 13.36637020111084 M11.72097396850586 13.802153587341309 L11.72097396850586 13.500591278076172 L11.855070114135742 13.500591278076172 C11.905372619628906 13.500591278076172 11.938865661621094 13.517151832580566 11.95567512512207 13.517151832580566 C12.005976676940918 13.533960342407227 12.039469718933105 13.584261894226074 12.039469718933105 13.651372909545898 C12.039469718933105 13.701674461364746 12.022660255432129 13.752100944519043 11.972358703613281 13.76878547668457 C11.938741683959961 13.785594940185547 11.922057151794434 13.802153587341309 11.838262557983398 13.802153587341309 L11.72097396850586 13.802153587341309 L11.72097396850586 13.802153587341309 M11.72097396850586 14.254871368408203 L11.72097396850586 13.936251640319824 L11.855070114135742 13.936251640319824 C11.922057151794434 13.936251640319824 11.95567512512207 13.936251640319824 11.989168167114258 13.953060150146484 C12.039469718933105 13.969868659973145 12.072962760925293 14.036730766296387 12.072962760925293 14.103841781616211 C12.072962760925293 14.154143333435059 12.039469718933105 14.204569816589355 12.005852699279785 14.238061904907227 C11.972358703613281 14.254871368408203 11.955551147460938 14.254871368408203 11.855070114135742 14.254871368408203 L11.72097396850586 14.254871368408203 L11.72097396850586 14.254871368408203 M12.860984802246094 13.36637020111084 L12.860984802246094 14.42246150970459 L13.045259475708008 14.42246150970459 L13.045259475708008 13.953060150146484 L13.196290016174316 13.953060150146484 L13.38056468963623 14.42246150970459 L13.581647872924805 14.42246150970459 L13.363755226135254 13.919567108154297 C13.481168746948242 13.869264602661133 13.548029899597168 13.785594940185547 13.548029899597168 13.668057441711426 C13.548029899597168 13.550519943237305 13.481168746948242 13.450165748596191 13.380439758300781 13.399863243103027 C13.313329696655273 13.36624526977539 13.296520233154297 13.36624526977539 13.16254711151123 13.36624526977539 L12.860984802246094 13.36624526977539 L12.860984802246094 13.36637020111084 L12.860984802246094 13.36637020111084 M13.045259475708008 13.802153587341309 L13.045259475708008 13.517151832580566 L13.162672996520996 13.517151832580566 C13.212974548339844 13.517151832580566 13.26340103149414 13.533960342407227 13.27983570098877 13.533960342407227 C13.330137252807617 13.550768852233887 13.363755226135254 13.60107135772705 13.363755226135254 13.668182373046875 C13.363755226135254 13.718483924865723 13.330137252807617 13.76891040802002 13.29664421081543 13.785594940185547 C13.27983570098877 13.802153587341309 13.246591567993164 13.802153587341309 13.17948055267334 13.802153587341309 L13.045259475708008 13.802153587341309 M14.386478424072266 14.154268264770508 L14.705098152160645 14.154268264770508 L14.789018630981445 14.42246150970459 L14.990100860595703 14.42246150970459 L14.6882905960083 13.383054733276367 L14.420096397399902 13.383054733276367 L14.118284225463867 14.42246150970459 L14.319367408752441 14.42246150970459 L14.386478424072266 14.154268264770508 L14.386478424072266 14.154268264770508 M14.419971466064453 14.003486633300781 L14.537384986877441 13.617755889892578 L14.537384986877441 13.567453384399414 C14.537384986877441 13.550768852233887 14.554192543029785 13.550644874572754 14.554192543029785 13.517151832580566 C14.554192543029785 13.550768852233887 14.554192543029785 13.550768852233887 14.571002006530762 13.60107135772705 L14.671481132507324 14.003486633300781 L14.419971466064453 14.003486633300781 L14.419971466064453 14.003486633300781 M16.98512077331543 13.36637020111084 L16.98512077331543 14.42246150970459 L17.236631393432617 14.42246150970459 C17.387413024902344 14.42246150970459 17.45452308654785 14.40565299987793 17.521385192871094 14.355350494384766 C17.638797760009766 14.27168083190918 17.705907821655273 14.103841781616211 17.705907821655273 13.902758598327637 C17.705907821655273 13.684866905212402 17.638797760009766 13.517026901245117 17.521385192871094 13.433356285095215 C17.437713623046875 13.383054733276367 17.42090606689453 13.36624526977539 17.21982192993164 13.36624526977539 L16.98512077331543 13.36624526977539 L16.98512077331543 13.36637020111084 L16.98512077331543 13.36637020111084 M17.1527099609375 13.517026901245117 L17.21982192993164 13.517026901245117 C17.30349349975586 13.517026901245117 17.370601654052734 13.533835411071777 17.404098510742188 13.567329406738281 C17.48801612854004 13.617630958557129 17.521259307861328 13.718358993530273 17.521259307861328 13.88594913482666 C17.521259307861328 14.154143333435059 17.437589645385742 14.27168083190918 17.23650550842285 14.27168083190918 L17.152587890625 14.27168083190918 L17.152587890625 13.517026901245117 L17.1527099609375 13.517026901245117 L17.1527099609375 13.517026901245117 M18.963207244873047 13.617755889892578 C18.929590225219727 13.450165748596191 18.81242561340332 13.34956169128418 18.644588470458984 13.34956169128418 C18.426694869995117 13.34956169128418 18.292722702026367 13.483782768249512 18.292722702026367 13.668182373046875 C18.292722702026367 13.76891040802002 18.326339721679688 13.852456092834473 18.40988540649414 13.902883529663086 C18.460187911987305 13.936500549316406 18.493806838989258 13.936500549316406 18.61096954345703 13.969992637634277 C18.74519157409668 14.003610610961914 18.79549217224121 14.053664207458496 18.79549217224121 14.137582778930664 C18.79549217224121 14.221503257751465 18.728382110595703 14.271804809570312 18.627655029296875 14.271804809570312 C18.543983459472656 14.271804809570312 18.47687339782715 14.204693794250488 18.460063934326172 14.103965759277344 L18.25897979736328 14.137582778930664 C18.275789260864258 14.321857452392578 18.409761428833008 14.422586441040039 18.627655029296875 14.422586441040039 C18.845794677734375 14.422586441040039 18.9965763092041 14.288614273071289 18.9965763092041 14.103965759277344 C18.9965763092041 13.986802101135254 18.94627571105957 13.902883529663086 18.845794677734375 13.852456092834473 C18.79549217224121 13.818838119506836 18.745065689086914 13.802153587341309 18.661272048950195 13.76878547668457 C18.51049041748047 13.73516845703125 18.493680953979492 13.718483924865723 18.493680953979492 13.634563446044922 C18.493680953979492 13.550644874572754 18.543983459472656 13.500591278076172 18.627655029296875 13.500591278076172 C18.711572647094727 13.500591278076172 18.778684616088867 13.550644874572754 18.778684616088867 13.651372909545898 L18.963207244873047 13.617755889892578 L18.963207244873047 13.617755889892578 M16.348003387451172 13.36637020111084 L16.16373062133789 13.36637020111084 L16.16373062133789 13.902883529663086 C16.16373062133789 13.969992637634277 16.180538177490234 14.053664207458496 16.180538177490234 14.137582778930664 C16.16373062133789 14.03685474395752 16.146923065185547 13.986802101135254 16.113428115844727 13.91969108581543 L15.845234870910645 13.366494178771973 L15.577040672302246 13.366494178771973 L15.577040672302246 14.422586441040039 L15.744630813598633 14.422586441040039 L15.744630813598633 13.735292434692383 L15.744630813598633 13.567453384399414 C15.761439323425293 13.617755889892578 15.761439323425293 13.634563446044922 15.794933319091797 13.701674461364746 L16.163856506347656 14.42246150970459 L16.348129272460938 14.42246150970459 L16.348129272460938 13.36637020111084 L16.348003387451172 13.36637020111084 L16.348003387451172 13.36637020111084" fill="black" fill-opacity="1.0" filling="0"/>
<path animation_id="3" d="M22.38311767578125 12.896968841552734 C22.38311767578125 12.896968841552734 23.070533752441406 9.476934432983398 22.919628143310547 8.65554428100586 C22.83595848083496 8.202951431274414 22.618066787719727 7.934632778167725 22.467037200927734 7.800535678863525 C22.28276252746582 7.649629592895508 22.11492156982422 7.414928913116455 20.958351135253906 7.414928913116455 C19.801530838012695 7.414928913116455 10.899582862854004 7.850837707519531 10.899582862854004 7.850837707519531 L1.0588302612304688 8.286622047424316 L1.0588302612304688 12.880159378051758 L22.38311767578125 12.896968841552734 L22.38311767578125 12.896968841552734" fill="black" fill-opacity="1.0" filling="0"/>
<path animation_id="4" d="M3.942352294921875 9.644649505615234 L4.210546493530273 9.644649505615234 C4.5290422439575195 9.644649505615234 4.6631388664245605 9.694951057434082 4.612837314605713 9.96314525604248 C4.562535285949707 10.248147964477539 4.428438186645508 10.298325538635254 4.160119533538818 10.298325538635254 L3.824939727783203 10.298325538635254 L3.942352294921875 9.644649505615234 L3.942352294921875 9.644649505615234 M2.9699316024780273 11.220444679260254 C2.9532470703125 11.304240226745605 2.9029455184936523 11.37135124206543 2.8191490173339844 11.37135124206543 L2.60125732421875 11.37135124206543 L2.534147262573242 11.6730375289917 L3.590362548828125 11.689846992492676 C3.590362548828125 11.689846992492676 3.640665054321289 11.287555694580078 3.6573495864868164 11.203636169433594 L3.7579526901245117 10.616945266723633 L4.0429558753967285 10.616945266723633 C4.327958583831787 10.616945266723633 4.361576080322266 10.667248725891113 4.327958583831787 10.86845588684082 L4.260848045349121 11.170267105102539 C4.177052974700928 11.589366912841797 4.378261089324951 11.756957054138184 4.713440895080566 11.756957054138184 C5.166158676147461 11.756957054138184 5.333748817443848 11.488763809204102 5.4008588790893555 11.136650085449219 L5.434476852416992 11.01936149597168 L5.1997761726379395 11.01936149597168 L5.166282653808594 11.170267105102539 C5.149474143981934 11.27087116241455 5.099172115325928 11.388158798217773 4.998568058013916 11.388158798217773 C4.914772987365723 11.388158798217773 4.8979644775390625 11.337857246398926 4.914772987365723 11.27087116241455 L4.981759548187256 10.885265350341797 C5.032061576843262 10.600261688232422 4.8979644775390625 10.51646614074707 4.663263320922852 10.432547569274902 C4.9650750160217285 10.382245063781738 5.233268737792969 10.231464385986328 5.300379753112793 9.896159172058105 C5.367490768432617 9.527360916137695 5.115981101989746 9.326153755187988 4.612961769104004 9.326153755187988 L2.9867401123046875 9.326153755187988 L2.9364376068115234 9.644649505615234 L3.154330253601074 9.644649505615234 C3.2381248474121094 9.644649505615234 3.2549333572387695 9.711759567260742 3.2381248474121094 9.795430183410645 L2.9699316024780273 11.220444679260254 L2.9699316024780273 11.220444679260254" fill="black" fill-opacity="1.0" filling="0"/>
<path animation_id="5" d="M6.9933390617370605 10.969058990478516 C7.110751628875732 10.399053573608398 6.859241962432861 9.97995376586914 6.255743026733398 9.97995376586914 C5.736164093017578 9.97995376586914 5.266637802124023 10.315134048461914 5.166158676147461 10.885265350341797 C5.048870086669922 11.455269813537598 5.283446311950684 11.79057502746582 5.903754234313965 11.79057502746582 C6.306045055389404 11.79057502746582 6.775571346282959 11.606175422668457 6.90966796875 11.170267105102539 L6.6749677658081055 11.170267105102539 C6.607856750488281 11.388158798217773 6.339662551879883 11.472079277038574 6.205565929412842 11.472079277038574 C5.937371730804443 11.472079277038574 5.769781589508057 11.220568656921387 5.8199591636657715 10.969058990478516 L6.9933390617370605 10.969058990478516 L6.9933390617370605 10.969058990478516 M5.853452205657959 10.684056282043457 L5.870136260986328 10.583328247070312 C5.903629779815674 10.39892864227295 6.037726879119873 10.264832496643066 6.205441474914551 10.264832496643066 C6.389840126037598 10.264832496643066 6.456951141357422 10.39892864227295 6.423333168029785 10.583328247070312 L6.406524181365967 10.683932304382324 L5.853452205657959 10.683932304382324 L5.853452205657959 10.684056282043457 L5.853452205657959 10.684056282043457 M11.21807861328125 11.186951637268066 C11.20127010345459 11.337732315063477 11.05036449432373 11.471954345703125 10.882774353027344 11.455145835876465 C10.782170295715332 11.438336372375488 10.715184211730957 11.38803482055664 10.748677253723145 11.253937721252441 C10.782295227050781 11.01923656463623 11.083982467651367 10.968935012817383 11.268381118774414 10.868330955505371 L11.21807861328125 11.186951637268066 L11.21807861328125 11.186951637268066 M11.871879577636719 11.421652793884277 C11.821578025817871 11.421652793884277 11.737783432006836 11.4048433303833 11.75459098815918 11.304364204406738 L11.855195045471191 10.616945266723633 C11.955799102783203 10.114051818847656 11.704289436340332 9.996763229370117 11.2182035446167 9.996763229370117 C10.9500093460083 9.996763229370117 10.413496971130371 10.047064781188965 10.329577445983887 10.432547569274902 C10.312893867492676 10.600261688232422 10.430180549621582 10.700740814208984 10.581087112426758 10.700740814208984 C10.731868743896484 10.700740814208984 10.882774353027344 10.63375473022461 10.899582862854004 10.48284912109375 C10.93320083618164 10.34875202178955 10.83247184753418 10.298449516296387 10.731868743896484 10.281641960144043 C10.81566333770752 10.231338500976562 10.916267395019531 10.214530944824219 11.016871452331543 10.214530944824219 C11.20127010345459 10.214530944824219 11.335492134094238 10.281641960144043 11.285065650939941 10.516342163085938 C11.20127010345459 10.98574447631836 10.245657920837402 10.600137710571289 10.111560821533203 11.270747184753418 C10.044449806213379 11.622859954833984 10.228849411010742 11.756957054138184 10.564153671264648 11.756957054138184 C10.7820463180542 11.756957054138184 11.01674747467041 11.689846992492676 11.20127010345459 11.522256851196289 C11.18446159362793 11.689970970153809 11.20127010345459 11.689970970153809 11.20127010345459 11.689970970153809 C11.18446159362793 11.689970970153809 11.888564109802246 11.706780433654785 11.87175464630127 11.689970970153809 C11.871879577636719 11.689846992492676 11.888564109802246 11.421652793884277 11.871879577636719 11.421652793884277 L11.871879577636719 11.421652793884277 M7.043765068054199 11.069539070129395 L6.926477432250977 11.6730375289917 L7.194671154022217 11.6730375289917 L7.261657238006592 11.55574893951416 C7.412563323974609 11.689846992492676 7.630455493927002 11.706655502319336 7.848347187042236 11.706655502319336 C8.217145919799805 11.706655502319336 8.619560241699219 11.572558403015137 8.70335578918457 11.136650085449219 C8.837451934814453 10.449231147766113 7.714250564575195 10.667248725891113 7.764427661895752 10.365560531616211 C7.798045635223389 10.248271942138672 7.9824442863464355 10.231464385986328 8.066238403320312 10.231464385986328 C8.16684341430664 10.231464385986328 8.267447471618652 10.248271942138672 8.334433555603027 10.298449516296387 C8.401543617248535 10.34875202178955 8.45172119140625 10.415863037109375 8.468530654907227 10.51646614074707 L8.736723899841309 10.51646614074707 L8.83732795715332 9.97995376586914 L8.58581829071045 9.97995376586914 L8.535516738891602 10.09724235534668 C8.384735107421875 9.996639251708984 8.200212478637695 9.94633674621582 8.015812873840332 9.94633674621582 C7.663699150085449 9.94633674621582 7.211106300354004 10.080432891845703 7.1273112297058105 10.499533653259277 C6.9932146072387695 11.153334617614746 8.116415977478027 10.968935012817383 8.06611442565918 11.270621299743652 C8.03249740600586 11.438336372375488 7.831413745880127 11.438336372375488 7.730810165405273 11.438336372375488 C7.546411514282227 11.438336372375488 7.311710357666016 11.270621299743652 7.328519344329834 11.069539070129395 L7.043765068054199 11.069539070129395 L7.043765068054199 11.069539070129395 M9.508062362670898 9.393139839172363 C9.424266815185547 9.678142547607422 9.273361206054688 10.046940803527832 8.921372413635254 10.046940803527832 L8.871070861816406 10.33194351196289 L9.105772018432617 10.33194351196289 L8.938180923461914 11.220444679260254 C8.871070861816406 11.572558403015137 9.021976470947266 11.756957054138184 9.39077377319336 11.756957054138184 C9.893669128417969 11.756957054138184 10.010956764221191 11.522256851196289 10.078067779541016 11.170267105102539 L9.826557159423828 11.170267105102539 C9.809749603271484 11.337857246398926 9.709270477294922 11.438460350036621 9.575048446655273 11.438460350036621 C9.50793743133545 11.438460350036621 9.474445343017578 11.37135124206543 9.491252899169922 11.304364204406738 L9.675652503967285 10.33194351196289 L10.094751358032227 10.33194351196289 L10.16186237335205 10.046940803527832 L9.725954055786133 10.046940803527832 L9.860051155090332 9.393139839172363 L9.508062362670898 9.393139839172363 L9.508062362670898 9.393139839172363 M13.816473007202148 11.706655502319336 L13.866775512695312 11.4048433303833 L13.799664497375488 11.421652793884277 C13.69918441772461 11.421652793884277 13.715993881225586 11.37135124206543 13.732802391052246 11.270747184753418 L13.91707706451416 10.030256271362305 L13.062067985534668 10.030256271362305 L13.01176643371582 10.315258979797363 L13.162796974182129 10.315258979797363 C13.263525009155273 10.315258979797363 13.263525009155273 10.365560531616211 13.246716499328613 10.466164588928223 L13.129302978515625 11.119964599609375 C13.112495422363281 11.27087116241455 12.978522300720215 11.438586235046387 12.827491760253906 11.438586235046387 C12.575982093811035 11.438586235046387 12.592790603637695 11.337981224060059 12.643217086791992 11.086472511291504 L12.827491760253906 10.030380249023438 L12.056279182434082 10.030380249023438 L12.005976676940918 10.315382957458496 L12.106704711914062 10.315382957458496 C12.207184791564941 10.315382957458496 12.223869323730469 10.36568546295166 12.207184791564941 10.466288566589355 L12.073086738586426 11.187200546264648 C12.005976676940918 11.572807312011719 12.089896202087402 11.757205963134766 12.475378036499023 11.757205963134766 C12.743572235107422 11.757205963134766 12.91141128540039 11.65660285949707 13.095685958862305 11.42190170288086 L13.112495422363281 11.42190170288086 L13.062192916870117 11.706904411315918 L13.816473007202148 11.706904411315918 L13.816473007202148 11.706655502319336 L13.816473007202148 11.706655502319336 M14.134968757629395 10.315134048461914 L14.269189834594727 10.315134048461914 C14.369669914245605 10.315134048461914 14.336051940917969 10.382245063781738 14.319242477416992 10.48284912109375 L14.185270309448242 11.253937721252441 C14.168461799621582 11.354541778564453 14.168461799621582 11.421652793884277 14.084543228149414 11.421652793884277 L13.950570106506348 11.421652793884277 L13.900267601013184 11.706655502319336 L14.906057357788086 11.706655502319336 L14.95635986328125 11.421652793884277 L14.822386741638184 11.421652793884277 C14.738468170166016 11.421652793884277 14.721658706665039 11.354541778564453 14.738468170166016 11.253937721252441 L14.855880737304688 10.63375473022461 C14.889248847961426 10.449356079101562 15.023470878601074 10.214654922485352 15.190935134887695 10.214654922485352 C15.241238594055176 10.214654922485352 15.25804615020752 10.214654922485352 15.291664123535156 10.248271942138672 C15.174251556396484 10.281765937805176 15.090580940246582 10.348875999450684 15.056962966918945 10.482973098754883 C15.040154457092285 10.633878707885742 15.157443046569824 10.700865745544434 15.291664123535156 10.700865745544434 C15.442445755004883 10.700865745544434 15.593475341796875 10.600261688232422 15.626969337463379 10.449356079101562 C15.660337448120117 10.181161880493164 15.49274730682373 10.030256271362305 15.25804615020752 10.030256271362305 C15.073772430419922 10.030256271362305 14.973043441772461 10.147543907165527 14.889123916625977 10.315258979797363 L14.93942642211914 10.030256271362305 L14.185022354125977 10.030256271362305 L14.134968757629395 10.315134048461914 L14.134968757629395 10.315134048461914 M16.582706451416016 11.203636169433594 A0.342650830745697 0.342650830745697 0.0 0 1 16.247400283813477 11.471954345703125 C16.146923065185547 11.455145835876465 16.063127517700195 11.4048433303833 16.09661865234375 11.253937721252441 C16.146923065185547 11.036046028137207 16.448734283447266 10.98574447631836 16.633132934570312 10.885140419006348 L16.582706451416016 11.203636169433594 L16.582706451416016 11.203636169433594 M17.25306510925293 11.438460350036621 C17.203014373779297 11.438460350036621 17.102283477783203 11.421652793884277 17.119094848632812 11.321173667907715 L17.21982192993164 10.63375473022461 C17.320301055908203 10.114051818847656 17.051982879638672 9.996763229370117 16.582706451416016 9.996763229370117 C16.29770278930664 9.996763229370117 15.761190414428711 10.063749313354492 15.694079399108887 10.449356079101562 C15.660462379455566 10.617071151733398 15.777999877929688 10.717550277709961 15.945589065551758 10.717550277709961 C16.079811096191406 10.717550277709961 16.230592727661133 10.650564193725586 16.264209747314453 10.48284912109375 C16.28101921081543 10.365560531616211 16.180538177490234 10.315134048461914 16.07993507385254 10.298449516296387 L16.07993507385254 10.281765937805176 A0.6387349963188171 0.6387349963188171 0.0 0 1 16.36493682861328 10.214654922485352 C16.566020965576172 10.214654922485352 16.68355941772461 10.298449516296387 16.649940490722656 10.533150672912598 C16.549211502075195 11.002552032470703 15.610533714294434 10.600261688232422 15.476311683654785 11.270747184753418 C15.409201622009277 11.639544486999512 15.593725204467773 11.773765563964844 15.912345886230469 11.773765563964844 C16.147045135498047 11.773765563964844 16.38174819946289 11.706655502319336 16.549211502075195 11.522256851196289 C16.53240394592285 11.689970970153809 16.549211502075195 11.706655502319336 16.549211502075195 11.706655502319336 L17.219947814941406 11.706655502319336 L17.25306510925293 11.438460350036621 L17.25306510925293 11.438460350036621 M17.5884952545166 10.046940803527832 L17.538192749023438 10.33194351196289 L17.622112274169922 10.33194351196289 C17.722843170166016 10.33194351196289 17.739526748657227 10.415738105773926 17.722843170166016 10.516342163085938 L17.588619232177734 11.270747184753418 C17.57181167602539 11.37135124206543 17.57181167602539 11.421652793884277 17.47145652770996 11.421652793884277 L17.337234497070312 11.421652793884277 L17.28693199157715 11.706655502319336 L18.091638565063477 11.706655502319336 C18.091638565063477 11.706655502319336 18.158748626708984 11.37135124206543 18.175559997558594 11.270747184753418 L18.292972564697266 10.616945266723633 C18.326589584350586 10.466039657592773 18.44375228881836 10.315134048461914 18.611343383789062 10.315134048461914 C18.829484939575195 10.315134048461914 18.84629249572754 10.449231147766113 18.795866012573242 10.650439262390137 L18.71194839477539 11.220444679260254 C18.69513702392578 11.321048736572266 18.64483642578125 11.706655502319336 18.64483642578125 11.706655502319336 L19.415924072265625 11.706655502319336 L19.466228485107422 11.421652793884277 L19.33225440979004 11.421652793884277 C19.248334884643555 11.421652793884277 19.248334884643555 11.321048736572266 19.26514434814453 11.220444679260254 L19.36587142944336 10.600137710571289 C19.432735443115234 10.231338500976562 19.349061965942383 9.996639251708984 18.963455200195312 9.996639251708984 C18.695262908935547 9.996639251708984 18.527671813964844 10.080432891845703 18.326589584350586 10.315134048461914 L18.37664222717285 10.046940803527832 L17.5884952545166 10.046940803527832 L17.5884952545166 10.046940803527832 M20.153522491455078 9.42663288116455 C20.06960105895996 9.71163558959961 19.918819427490234 10.080432891845703 19.56670570373535 10.080432891845703 L19.51640510559082 10.365436553955078 L19.7511043548584 10.365436553955078 L19.583515167236328 11.253937721252441 C19.499595642089844 11.606051445007324 19.667186737060547 11.790450096130371 20.019298553466797 11.790450096130371 C20.539003372192383 11.790450096130371 20.723526000976562 11.505447387695312 20.773704528808594 11.01923656463623 L20.522193908691406 11.01923656463623 C20.488576889038086 11.186951637268066 20.47214126586914 11.471954345703125 20.304302215576172 11.471954345703125 C20.220382690429688 11.488638877868652 20.153522491455078 11.421652793884277 20.170330047607422 11.337732315063477 L20.321109771728516 10.365436553955078 L20.74033546447754 10.365436553955078 L20.790388107299805 10.080432891845703 L20.371414184570312 10.080432891845703 L20.50538444519043 9.42663288116455 L20.153522491455078 9.42663288116455 L20.153522491455078 9.42663288116455" fill="black" fill-opacity="1.0" filling="0"/>
<path animation_id="6" d="M2.0143184661865234 15.86428451538086 L2.232335090637207 16.33368682861328 L2.232335090637207 15.86428451538086 L2.3664331436157227 15.86428451538086 L2.3664331436157227 16.585071563720703 L2.215526580810547 16.585071563720703 L1.9473323822021484 15.998257637023926 L1.9473323822021484 16.585071563720703 L1.796426773071289 16.585071563720703 L1.796426773071289 15.86428451538086 L2.0143184661865234 15.86428451538086 M3.7244606018066406 15.981447219848633 L3.4394569396972656 15.981447219848633 L3.4394569396972656 16.149288177490234 L3.6740341186523438 16.149288177490234 L3.6740341186523438 16.283260345458984 L3.4394569396972656 16.283260345458984 L3.4394569396972656 16.450849533081055 L3.741145133972168 16.450849533081055 L3.741145133972168 16.585071563720703 L3.2885513305664062 16.585071563720703 L3.2885513305664062 15.86428451538086 L3.7244606018066406 15.86428451538086 L3.7244606018066406 15.981447219848633 M5.233144283294678 16.585071563720703 L5.082238674163818 16.585071563720703 L4.998443603515625 16.082176208496094 L4.8978400230407715 16.585071563720703 L4.746933937072754 16.585071563720703 L4.5961527824401855 15.86428451538086 L4.746933937072754 15.86428451538086 L4.830853462219238 16.36717987060547 L4.914648532867432 15.86428451538086 L5.065554141998291 15.86428451538086 L5.166158676147461 16.36717987060547 L5.249953746795654 15.86428451538086 L5.400734901428223 15.86428451538086 L5.233144283294678 16.585071563720703 M8.099857330322266 15.981447219848633 L7.814854145050049 16.450849533081055 L8.099857330322266 16.450849533081055 L8.099857330322266 16.585071563720703 L7.647264003753662 16.585071563720703 L7.647264003753662 16.46765899658203 L7.948951244354248 15.981447219848633 L7.647264003753662 15.981447219848633 L7.647264003753662 15.86428451538086 L8.099857330322266 15.86428451538086 L8.099857330322266 15.981447219848633 M9.441075325012207 15.981447219848633 L9.139264106750488 15.981447219848633 L9.139264106750488 16.149288177490234 L9.39077377319336 16.149288177490234 L9.39077377319336 16.283260345458984 L9.139264106750488 16.283260345458984 L9.139264106750488 16.450849533081055 L9.457759857177734 16.450849533081055 L9.457759857177734 16.585071563720703 L9.005167007446289 16.585071563720703 L9.005167007446289 15.86428451538086 L9.441075325012207 15.86428451538086 L9.441075325012207 15.981447219848633 L9.441075325012207 15.981447219848633 M10.698375701904297 16.283260345458984 L10.53078556060791 16.283260345458984 L10.614580154418945 15.981447219848633 L10.698375701904297 16.283260345458984 M10.715184211730957 15.86428451538086 L10.513976097106934 15.86428451538086 L10.312768936157227 16.585071563720703 L10.463550567626953 16.585071563720703 L10.5138521194458 16.400798797607422 L10.715059280395508 16.400798797607422 L10.765361785888672 16.585071563720703 L10.916267395019531 16.585071563720703 L10.715184211730957 15.86428451538086 M11.922057151794434 16.450849533081055 L12.207059860229492 16.450849533081055 L12.207059860229492 16.585071563720703 L11.771275520324707 16.585071563720703 L11.771275520324707 15.86428451538086 L11.922057151794434 15.86428451538086 L11.922057151794434 16.450849533081055 M13.581771850585938 16.283260345458984 L13.41418170928955 16.283260345458984 L13.498102188110352 15.981447219848633 L13.581771850585938 16.283260345458984 M13.598581314086914 15.86428451538086 L13.397497177124023 15.86428451538086 L13.19641399383545 16.585071563720703 L13.347195625305176 16.585071563720703 L13.397497177124023 16.400798797607422 L13.598581314086914 16.400798797607422 L13.648882865905762 16.585071563720703 L13.799664497375488 16.585071563720703 L13.598581314086914 15.86428451538086 M14.872564315795898 15.86428451538086 L15.073897361755371 16.33368682861328 L15.073897361755371 15.86428451538086 L15.224678039550781 15.86428451538086 L15.224678039550781 16.585071563720703 L15.073897361755371 16.585071563720703 L14.805703163146973 15.998257637023926 L14.805703163146973 16.585071563720703 L14.654672622680664 16.585071563720703 L14.654672622680664 15.86428451538086 L14.872564315795898 15.86428451538086 L14.872564315795898 15.86428451538086 M16.280893325805664 16.450849533081055 L16.280893325805664 15.981447219848633 L16.331195831298828 15.981447219848633 C16.46516990661621 15.981447219848633 16.53227996826172 16.048559188842773 16.53227996826172 16.1993408203125 C16.53227996826172 16.383865356445312 16.46516990661621 16.450849533081055 16.348003387451172 16.450849533081055 L16.280893325805664 16.450849533081055 L16.280893325805664 16.450849533081055 M16.146923065185547 15.86428451538086 L16.146923065185547 16.585071563720703 L16.36481475830078 16.585071563720703 C16.582706451416016 16.585071563720703 16.683433532714844 16.41748046875 16.683433532714844 16.216150283813477 C16.683433532714844 16.015066146850586 16.582706451416016 15.86428451538086 16.314512252807617 15.86428451538086 L16.146923065185547 15.86428451538086 L16.146923065185547 15.86428451538086 M19.063810348510742 16.450849533081055 L19.348814010620117 16.450849533081055 L19.348814010620117 16.585071563720703 L18.91278076171875 16.585071563720703 L18.91278076171875 15.86428451538086 L19.063810348510742 15.86428451538086 L19.063810348510742 16.450849533081055 L19.063810348510742 16.450849533081055 M20.656414031982422 15.981447219848633 L20.47214126586914 15.981447219848633 L20.47214126586914 16.585071563720703 L20.321109771728516 16.585071563720703 L20.321109771728516 15.981447219848633 L20.136837005615234 15.981447219848633 L20.136837005615234 15.86428451538086 L20.656414031982422 15.86428451538086 L20.656414031982422 15.981447219848633 L20.656414031982422 15.981447219848633 M21.67901611328125 16.450849533081055 L21.67901611328125 15.981447219848633 L21.72931671142578 15.981447219848633 C21.86328887939453 15.981447219848633 21.930400848388672 16.048559188842773 21.930400848388672 16.1993408203125 C21.930400848388672 16.383865356445312 21.86328887939453 16.450849533081055 21.746126174926758 16.450849533081055 L21.67901611328125 16.450849533081055 L21.67901611328125 16.450849533081055 M21.52823257446289 15.86428451538086 L21.52823257446289 16.585071563720703 L21.7629337310791 16.585071563720703 C21.964017868041992 16.585071563720703 22.06474494934082 16.41748046875 22.06474494934082 16.216150283813477 C22.06474494934082 16.015066146850586 21.98082733154297 15.86428451538086 21.712631225585938 15.86428451538086 L21.52823257446289 15.86428451538086 L21.52823257446289 15.86428451538086" fill="black" fill-opacity="1.0" filling="0"/></svg>