<?xml version="1.0" encoding="iso-8859-1"?><svg height="200px" viewBox="0.0 0.0 24.0 24.0" width="200px" xmlns="http://www.w3.org/2000/svg"><path animation_id="0" d="M0.0 0.0 L24.0 0.0 L24.0 24.0 L0.0 24.0 L0.0 0.0" fill="black" fill-opacity="1.0" filling="0"/>
<path animation_id="1" d="M11.062690734863281 15.527734756469727 C10.48459243774414 15.527734756469727 10.202951431274414 15.068168640136719 10.366058349609375 14.460437774658203 C10.529167175292969 13.852705955505371 11.018239974975586 13.48216438293457 11.61128044128418 13.48216438293457 C12.293220520019531 13.48216438293457 12.456328392028809 14.0156888961792 12.33767032623291 14.490194320678711 C12.1744384765625 15.17201042175293 11.670547485351562 15.527734756469727 11.062690734863281 15.527734756469727 L11.062690734863281 15.527734756469727 M11.477806091308594 14.000747680664062 C11.299881935119629 14.000747680664062 11.062690734863281 14.149038314819336 10.973791122436523 14.490070343017578 C10.899582862854004 14.756895065307617 10.944157600402832 15.008777618408203 11.196165084838867 15.008777618408203 C11.418540000915527 15.008777618408203 11.61128044128418 14.830978393554688 11.700181007385254 14.504887580871582 C11.789080619812012 14.17879581451416 11.68536376953125 14.000747680664062 11.477806091308594 14.000747680664062 M13.419784545898438 15.498101234436035 L12.812052726745605 15.498101234436035 L12.619186401367188 13.52661418914795 L13.25680160522461 13.52661418914795 L13.315943717956543 14.223370552062988 C13.315943717956543 14.371413230895996 13.330760955810547 14.549461364746094 13.315943717956543 14.756895065307617 L13.330760955810547 14.756895065307617 C13.419784545898438 14.564278602600098 13.508810043334961 14.386229515075684 13.59758472442627 14.238186836242676 L14.027517318725586 13.52661418914795 L14.679698944091797 13.52661418914795 L13.419784545898438 15.498101234436035 L13.419784545898438 15.498101234436035 M15.287679672241211 13.333747863769531 C15.079998016357422 13.333747863769531 14.961588859558105 13.170764923095703 15.020606994628906 12.97802448272705 C15.065056800842285 12.770590782165527 15.27273941040039 12.622300148010254 15.480172157287598 12.622300148010254 C15.687605857849121 12.622300148010254 15.806262969970703 12.770590782165527 15.74699592590332 12.97802448272705 C15.702546119689941 13.170764923095703 15.495113372802734 13.333747863769531 15.287679672241211 13.333747863769531 L15.287679672241211 13.333747863769531 M14.412999153137207 15.498101234436035 L14.93195629119873 13.52661418914795 L15.539688110351562 13.52661418914795 L15.005913734436035 15.498101234436035 L14.412999153137207 15.498101234436035 M16.058645248413086 15.557367324829102 C15.880595207214355 15.557367324829102 15.62871265411377 15.512918472290039 15.465479850769043 15.468343734741211 L15.643528938293457 14.920002937316895 C15.776754379272461 14.97939395904541 15.954803466796875 15.023594856262207 16.14742088317871 15.023594856262207 C16.429059982299805 15.023594856262207 16.606985092163086 14.934819221496582 16.651559829711914 14.786528587341309 C16.755151748657227 14.371413230895996 15.70267105102539 14.282388687133789 15.880720138549805 13.52661418914795 C15.99937629699707 13.007658004760742 16.429059982299805 12.770590782165527 17.03704071044922 12.770590782165527 C17.18508529663086 12.770590782165527 17.452157974243164 12.800224304199219 17.615140914916992 12.859366416931152 L17.437341690063477 13.348690032958984 A1.4933699369430542 1.4933699369430542 0.0 0 0 16.97777557373047 13.274481773376465 C16.71095085144043 13.274481773376465 16.59229278564453 13.37832260131836 16.562660217285156 13.496980667114258 C16.44400405883789 13.911848068237305 17.467098236083984 13.926663398742676 17.333499908447266 14.712445259094238 C17.259166717529297 15.201643943786621 16.87368392944336 15.557367324829102 16.058645248413086 15.557367324829102 L16.058645248413086 15.557367324829102 M18.133974075317383 15.527734756469727 C17.718856811523438 15.527734756469727 17.570566177368164 15.27585220336914 17.689224243164062 14.816162109375 L17.911474227905273 13.985931396484375 L17.61501693725586 13.985931396484375 L17.748489379882812 13.52661418914795 L18.04494857788086 13.52661418914795 L18.193239212036133 12.948266983032227 L18.845420837402344 12.785283088684082 L18.637739181518555 13.5264892578125 L19.067670822143555 13.5264892578125 L18.949260711669922 13.985806465148926 L18.519330978393555 13.985806465148926 L18.311649322509766 14.771587371826172 C18.26719856262207 14.964202880859375 18.311649322509766 15.038411140441895 18.45993995666504 15.038411140441895 C18.53414535522461 15.038411140441895 18.593164443969727 15.023594856262207 18.667373657226562 15.008777618408203 L18.54871368408203 15.468343734741211 C18.415489196777344 15.512918472290039 18.282014846801758 15.527734756469727 18.133974075317383 15.527734756469727 L18.133974075317383 15.527734756469727 M19.957294464111328 15.498101234436035 C19.986927032470703 15.39426040649414 20.00174331665039 15.305484771728516 20.046070098876953 15.201643943786621 C19.898027420043945 15.409077644348145 19.660587310791016 15.527734756469727 19.39388656616211 15.527734756469727 C19.023221969604492 15.527734756469727 18.84554672241211 15.231277465820312 18.934322357177734 14.90518569946289 C19.06779670715332 14.401046752929688 19.571935653686523 14.223246574401855 20.224117279052734 14.223246574401855 L20.238933563232422 14.16385555267334 C20.28338623046875 14.030380249023438 20.209300994873047 13.911723136901855 20.001869201660156 13.911723136901855 C19.82381820678711 13.911723136901855 19.527360916137695 13.971114158630371 19.349437713623047 14.060013771057129 L19.42364501953125 13.600448608398438 C19.61651039123535 13.5264892578125 19.927783966064453 13.482039451599121 20.16485023498535 13.482039451599121 C20.758014678955078 13.482039451599121 20.950632095336914 13.808131217956543 20.817033767700195 14.267571449279785 L20.62441635131836 15.023594856262207 C20.579965591430664 15.17188549041748 20.535390853881836 15.334869384765625 20.505760192871094 15.498101234436035 L19.957294464111328 15.498101234436035 L19.957294464111328 15.498101234436035 M20.135093688964844 14.579095840454102 C19.71997833251953 14.579095840454102 19.542179107666016 14.727136611938477 19.497726440429688 14.875553131103516 C19.482912063598633 14.97939395904541 19.527360916137695 15.082985877990723 19.646018981933594 15.082985877990723 C19.853452682495117 15.082985877990723 20.031251907348633 14.920002937316895 20.105335235595703 14.682687759399414 L20.135093688964844 14.579095840454102 M22.4921875 14.074954986572266 C22.165847778320312 14.000747680664062 21.899023056030273 14.238186836242676 21.750980377197266 14.801344871520996 L21.572933197021484 15.498101234436035 L20.965200424194336 15.498101234436035 L21.49872589111328 13.52661418914795 L22.047313690185547 13.52661418914795 C22.03249740600586 13.615388870239258 21.958290100097656 13.837888717651367 21.913841247558594 13.971114158630371 C22.106704711914062 13.630206108093262 22.37340545654297 13.482039451599121 22.669862747192383 13.511796951293945 L22.4921875 14.074954986572266" fill="black" fill-opacity="1.0" filling="0"/>
<path animation_id="2" d="M16.547592163085938 11.806885719299316 C16.517961502075195 11.629085540771484 16.577226638793945 11.362260818481445 16.621801376342773 11.25841999053955 C16.75502586364746 10.81379508972168 16.947893142700195 10.3394136428833 17.08136749267578 10.072589874267578 C17.021976470947266 10.028139114379883 16.87368392944336 9.983689308166504 16.725643157958984 9.983689308166504 C16.236318588256836 9.968873023986816 15.717363357543945 10.19124698638916 15.361886978149414 10.81379508972168 C15.332254409790039 10.873063087463379 15.287679672241211 10.947145462036133 15.25804615020752 11.021353721618652 C15.213597297668457 11.080620765686035 15.139389038085938 11.169644355773926 15.09481430053711 11.214095115661621 C14.946771621704102 11.377202033996582 14.724149703979492 11.569818496704102 14.516716003417969 11.569818496704102 C14.39805793762207 11.569818496704102 14.338666915893555 11.495736122131348 14.338666915893555 11.37707805633545 C14.338666915893555 10.873063087463379 14.783415794372559 10.11703872680664 15.094690322875977 10.11703872680664 C15.16889762878418 10.11703872680664 15.213347434997559 10.161364555358887 15.213347434997559 10.220755577087402 C15.213347434997559 10.309656143188477 15.153956413269043 10.413496971130371 15.079873085021973 10.487580299377441 L15.109506607055664 10.517213821411133 C15.317188262939453 10.443130493164062 15.494988441467285 10.309656143188477 15.494988441467285 10.161364555358887 C15.494988441467285 9.998257637023926 15.332005500793457 9.968748092651367 15.154081344604492 9.968748092651367 C14.887256622314453 9.968748092651367 14.575983047485352 10.102222442626953 14.338666915893555 10.354104995727539 C14.146049499511719 10.561662673950195 14.012575149536133 10.79885482788086 13.938616752624512 11.006412506103516 C13.775384902954102 11.288053512573242 13.493867874145508 11.554878234863281 13.360269546508789 11.554878234863281 C13.315818786621094 11.569694519042969 13.28606128692627 11.540060997009277 13.28606128692627 11.480794906616211 C13.271244049072266 11.436344146728516 13.300877571105957 11.317687034606934 13.345452308654785 11.184337615966797 C13.464110374450684 10.858121871948242 13.641910552978516 10.472764015197754 13.864408493041992 9.998381614685059 C13.864408493041992 9.998381614685059 13.508685111999512 10.057772636413574 13.464110374450684 10.057772636413574 C13.404719352722168 10.072589874267578 13.360269546508789 10.11716365814209 13.345452308654785 10.161489486694336 C13.197410583496094 10.472764015197754 13.034177780151367 10.828612327575684 12.945154190063477 11.095437049865723 C12.870945930480957 11.273361206054688 12.841312408447266 11.421527862548828 12.841312408447266 11.525369644165039 C12.841312408447266 11.643901824951172 12.915520668029785 11.732927322387695 13.01936149597168 11.777376174926758 L12.39681339263916 11.777376174926758 C12.39681339263916 11.747743606567383 12.39681339263916 11.717985153198242 12.381996154785156 11.673660278320312 C12.381996154785156 11.436469078063965 12.51522159576416 11.169644355773926 12.589428901672363 11.006661415100098 C12.693270683288574 10.754653930664062 12.900703430175781 10.383988380432129 12.885886192321777 10.19124698638916 C12.871070861816406 10.087530136108398 12.811928749084473 9.998506546020508 12.648819923400879 9.998506546020508 C12.337545394897461 9.998506546020508 12.011330604553223 10.324721336364746 11.744630813598633 10.724896430969238 C11.848347663879395 10.48770523071289 11.937247276306152 10.235696792602539 11.937247276306152 10.131855964660645 C11.937247276306152 10.042956352233887 11.877981185913086 9.998381614685059 11.75944709777832 9.998381614685059 C11.67042350769043 9.998381614685059 11.551889419555664 10.02801513671875 11.448172569274902 10.057772636413574 C11.285065650939941 10.102222442626953 11.062690734863281 10.146672248840332 10.869950294494629 10.176430702209473 C10.766233444213867 10.19124698638916 10.721658706665039 10.220880508422852 10.721658706665039 10.250514030456543 C10.75129222869873 10.873063087463379 10.33630084991455 11.584635734558105 10.039718627929688 11.584635734558105 C9.921185493469238 11.584635734558105 9.90636920928955 11.495736122131348 9.90636920928955 11.37707805633545 C9.891551971435547 10.947145462036133 10.24727725982666 10.235696792602539 10.603124618530273 10.11703872680664 C10.632759094238281 10.102222442626953 10.647575378417969 10.102222442626953 10.677332878112793 10.102222442626953 L10.721658706665039 9.983564376831055 C10.632759094238281 9.998381614685059 10.469775199890137 9.998381614685059 10.365934371948242 9.998381614685059 C10.276909828186035 9.998381614685059 9.506194114685059 10.013197898864746 9.506194114685059 10.013197898864746 C9.698811531066895 9.538816452026367 9.995268821716309 9.22754192352295 10.41050910949707 9.212724685668945 C10.677332878112793 9.197908401489258 10.84044075012207 9.30162525177002 10.855257034301758 9.435099601745605 C10.870074272155762 9.568449020385742 10.84044075012207 9.657474517822266 10.736599922180176 9.761190414428711 L10.766233444213867 9.790823936462402 C11.003424644470215 9.68710708618164 11.151715278625488 9.509182929992676 11.151715278625488 9.39064884185791 C11.151715278625488 9.197908401489258 10.914525032043457 9.079374313354492 10.543983459472656 9.079374313354492 C10.069601058959961 9.094191551208496 9.476561546325684 9.198033332824707 9.076387405395508 10.013197898864746 C8.95772933959961 10.042831420898438 8.839195251464844 10.087406158447266 8.750295639038086 10.17630672454834 L8.76511287689209 10.220755577087402 C8.839195251464844 10.191122055053711 8.913278579711914 10.191122055053711 9.002304077148438 10.191122055053711 C8.942912101745605 10.324596405029297 8.839195251464844 10.621054649353027 8.720663070678711 10.917511940002441 C8.379755020141602 11.362260818481445 7.994397163391113 11.584635734558105 7.742264747619629 11.584635734558105 C7.608914852142334 11.584635734558105 7.549523830413818 11.510552406311035 7.549523830413818 11.37707805633545 C7.549523830413818 11.302994728088379 7.564340591430664 11.18446159362793 7.57915735244751 11.125069618225098 C7.860798358917236 10.991720199584961 8.127622604370117 10.843428611755371 8.364813804626465 10.591422080993652 C8.49828815460205 10.4580717086792 8.602005004882812 10.30978012084961 8.602005004882812 10.161489486694336 C8.602005004882812 10.013322830200195 8.513105392456055 9.954055786132812 8.33505630493164 9.939239501953125 C8.068231582641602 9.939239501953125 7.756957054138184 10.11716365814209 7.564216136932373 10.324596405029297 C7.297267436981201 10.606237411499023 7.1047749519348145 11.006537437438965 7.1047749519348145 11.347444534301758 C7.1047749519348145 11.555002212524414 7.1936750411987305 11.732927322387695 7.430866241455078 11.777376174926758 C7.164041519165039 11.777376174926758 6.912034034729004 11.777376174926758 6.6748433113098145 11.792193412780762 C6.660026550292969 11.732927322387695 6.645209312438965 11.6884765625 6.645209312438965 11.629210472106934 C6.66015100479126 11.406835556030273 6.689659595489502 11.317935943603516 6.808317184448242 11.006661415100098 C7.0603251457214355 10.398804664611816 7.416049480438232 9.702048301696777 7.564340591430664 9.287056922912598 L7.178858757019043 9.361140251159668 C7.134408473968506 9.375957489013672 7.089958667755127 9.420408248901367 7.075141906738281 9.450040817260742 C6.897217273712158 9.83552360534668 6.704476356506348 10.235696792602539 6.482101917266846 10.769346237182617 A0.5470958352088928 0.5470958352088928 0.0 0 0 6.408018589019775 10.932454109191895 C6.15601110458374 11.273361206054688 5.800286293029785 11.584759712219238 5.503704071044922 11.584759712219238 C5.385046482086182 11.584759712219238 5.325779438018799 11.525493621826172 5.325779438018799 11.392019271850586 C5.325779438018799 11.303118705749512 5.355413436889648 11.18446159362793 5.370229721069336 11.125194549560547 C5.637053966522217 10.991844177246094 5.918694972991943 10.84355354309082 6.155886650085449 10.591546058654785 C6.289236545562744 10.458196640014648 6.378261089324951 10.309905052185059 6.378261089324951 10.161613464355469 C6.393077373504639 10.013446807861328 6.289361000061035 9.954180717468262 6.111436367034912 9.939364433288574 C5.859428882598877 9.939364433288574 5.548154354095459 10.117288589477539 5.340596675872803 10.324721336364746 C5.0887131690979 10.606362342834473 4.881155490875244 11.006661415100098 4.881155490875244 11.362386703491211 C4.881155490875244 11.569944381713867 4.97005558013916 11.747743606567383 5.192430019378662 11.792193412780762 C4.97005558013916 11.807010650634766 4.747805595397949 11.807010650634766 4.540247917175293 11.807010650634766 C4.525431156158447 11.821826934814453 4.525431156158447 11.821826934814453 4.525431156158447 11.83664321899414 C4.495798110961914 11.896034240722656 4.48098087310791 11.940360069274902 4.451223373413086 11.98493480682373 C5.563095569610596 11.999751091003418 6.897341728210449 12.014568328857422 8.290730476379395 12.014568328857422 C8.231463432312012 12.147793769836426 8.172073364257812 12.236817359924316 8.06835651397705 12.311025619506836 L8.097990036010742 12.340658187866211 C8.572371482849121 12.370291709899902 8.750295639038086 12.044201850891113 8.942912101745605 11.510552406311035 C9.135653495788574 10.976903915405273 9.298761367797852 10.502521514892578 9.432110786437988 10.191122055053711 C9.639668464660645 10.191122055053711 10.025026321411133 10.191122055053711 10.18813419342041 10.146672248840332 C9.77314281463623 10.3394136428833 9.387661933898926 11.006537437438965 9.432110786437988 11.451286315917969 C9.446928024291992 11.599576950073242 9.53582763671875 11.733051300048828 9.713751792907715 11.777502059936523 L9.120712280273438 11.777502059936523 C9.091078758239746 11.866401672363281 9.046628952026367 11.940485000610352 9.002179145812988 12.014692306518555 L10.26221752166748 12.014692306518555 C15.613771438598633 12.014692306518555 20.416610717773438 11.98505973815918 20.416610717773438 11.896034240722656 C20.41673469543457 11.836519241333008 18.875179290771484 11.821702003479004 16.547592163085938 11.806885719299316 L16.547592163085938 11.806885719299316 M8.216522216796875 10.131731986999512 C8.275914192199707 10.131731986999512 8.290730476379395 10.161364555358887 8.290730476379395 10.22063159942627 C8.290730476379395 10.4578218460083 7.994272708892822 10.754280090332031 7.62373161315918 10.976654052734375 C7.712507247924805 10.60611343383789 7.9793314933776855 10.116914749145508 8.216522216796875 10.131731986999512 M5.992903232574463 10.131731986999512 C6.0521697998046875 10.131731986999512 6.081803321838379 10.161364555358887 6.081803321838379 10.22063159942627 C6.081803321838379 10.4578218460083 5.785345554351807 10.754280090332031 5.399863243103027 10.976654052734375 C5.503704071044922 10.60611343383789 5.755836486816406 10.116914749145508 5.992903232574463 10.131731986999512 M6.2746686935424805 11.317687034606934 C6.2746686935424805 11.347320556640625 6.259727478027344 11.391769409179688 6.259727478027344 11.436220169067383 C6.259727478027344 11.584510803222656 6.319118499755859 11.703043937683105 6.437651634216309 11.79194450378418 L5.474071025848389 11.79194450378418 C5.785345554351807 11.732802391052246 6.111436367034912 11.495611190795898 6.2746686935424805 11.317687034606934 L6.2746686935424805 11.317687034606934 M7.712507247924805 11.777252197265625 C8.023781776428223 11.732802391052246 8.33505630493164 11.540060997009277 8.587063789367676 11.288053512573242 A12.26844310760498 12.26844310760498 0.0 0 0 8.423955917358398 11.732802391052246 C8.409139633178711 11.747618675231934 8.409139633178711 11.762435913085938 8.394322395324707 11.777252197265625 L7.712507247924805 11.777252197265625 M16.32534408569336 11.806885719299316 C16.088027954101562 11.792068481445312 15.850837707519531 11.792068481445312 15.613771438598633 11.792068481445312 C15.806386947631836 11.747618675231934 16.014070510864258 11.584510803222656 16.176929473876953 11.347444534301758 L16.19174575805664 11.347444534301758 C16.176929473876953 11.391895294189453 16.176929473876953 11.421527862548828 16.176929473876953 11.480794906616211 C16.177051544189453 11.614144325256348 16.236318588256836 11.732802391052246 16.32534408569336 11.806885719299316 M16.354976654052734 10.190998077392578 C16.473386764526367 10.131731986999512 16.562410354614258 10.131731986999512 16.636619567871094 10.146547317504883 C16.606985092163086 10.205939292907715 16.473386764526367 10.472764015197754 16.369792938232422 10.724771499633789 C16.206562042236328 11.095312118530273 15.954678535461426 11.495611190795898 15.717363357543945 11.554878234863281 C15.643404006958008 11.569694519042969 15.584137916564941 11.540060997009277 15.584137916564941 11.465977668762207 C15.598954200744629 11.124945640563965 15.969619750976562 10.354104995727539 16.354976654052734 10.190998077392578 L16.354976654052734 10.190998077392578 M15.154205322265625 11.332503318786621 C15.154205322265625 11.376953125 15.139389038085938 11.436220169067383 15.139389038085938 11.465852737426758 C15.154205322265625 11.614144325256348 15.198780059814453 11.7474946975708 15.332254409790039 11.79194450378418 L14.442632675170898 11.79194450378418 C14.739089965820312 11.732802391052246 14.991222381591797 11.540060997009277 15.154205322265625 11.332503318786621 L15.154205322265625 11.332503318786621 M13.879474639892578 11.332503318786621 L13.879474639892578 11.362136840820312 C13.879474639892578 11.569694519042969 13.968250274658203 11.732802391052246 14.161115646362305 11.777127265930176 L13.2864351272583 11.777127265930176 C13.508810043334961 11.71786117553711 13.716242790222168 11.540060997009277 13.879474639892578 11.332503318786621 M12.382120132446289 10.265205383300781 C12.426570892333984 10.265205383300781 12.441512107849121 10.294838905334473 12.441512107849121 10.354104995727539 C12.411877632141113 10.53203010559082 12.011455535888672 11.139886856079102 12.026395797729492 11.495611190795898 C12.041213035583496 11.614269256591797 12.085787773132324 11.703169822692871 12.159746170043945 11.777252197265625 L11.181472778320312 11.777252197265625 C11.300131797790527 11.747618675231934 11.359397888183594 11.688352584838867 11.389031410217285 11.629085540771484 A8.479113578796387 8.479113578796387 0.0 0 1 11.730062484741211 10.97677993774414 C11.892921447753906 10.695013999938965 12.233829498291016 10.265205383300781 12.382120132446289 10.265205383300781 M10.26221752166748 11.777252197265625 L9.995268821716309 11.777252197265625 C10.440017700195312 11.673535346984863 10.795866966247559 11.199028968811035 10.929216384887695 10.858121871948242 C11.018115997314453 10.635746955871582 11.077507972717285 10.443130493164062 11.077507972717285 10.265205383300781 C11.196040153503418 10.235572814941406 11.3739652633667 10.220755577087402 11.433231353759766 10.205815315246582 C11.536948204040527 10.190998077392578 11.52213191986084 10.309532165527344 11.492498397827148 10.413372993469238 C11.29975700378418 10.917387962341309 10.988482475280762 11.643777847290039 10.9440336227417 11.777252197265625 L10.26221752166748 11.777252197265625" fill="black" fill-opacity="1.0" filling="0"/>
<path animation_id="3" d="M13.849717140197754 9.701799392700195 C13.968125343322754 9.701799392700195 14.071966171264648 9.598082542419434 14.086783409118652 9.494241714477539 C14.101600646972656 9.37570858001709 14.042333602905273 9.271867752075195 13.923800468444824 9.271867752075195 C13.81995964050293 9.286684036254883 13.716118812561035 9.37558364868164 13.686484336853027 9.494241714477539 C13.671792984008789 9.612899780273438 13.74587631225586 9.701799392700195 13.849717140197754 9.701799392700195 L13.849717140197754 9.701799392700195 M5.385046482086182 9.316441535949707 L6.066986560821533 9.316441535949707 C6.437651634216309 9.316441535949707 6.600759506225586 9.212724685668945 6.704476356506348 9.07925033569336 L6.689659595489502 9.049617767333984 C6.585943222045898 9.093942642211914 6.39320182800293 9.10888385772705 6.215277194976807 9.10888385772705 L4.525306701660156 9.10888385772705 C3.5765419006347656 9.10888385772705 2.998443603515625 9.405342102050781 2.909543991088867 9.864907264709473 C2.8650941848754883 10.072464942932129 2.983626365661621 10.324472427368164 3.265268325805664 10.339289665222168 L3.2800846099853516 10.324472427368164 C3.2504520416259766 10.265205383300781 3.2356348037719727 10.161364555358887 3.2356348037719727 10.10209846496582 C3.2504520416259766 9.612899780273438 3.784099578857422 9.316316604614258 4.643964767456055 9.316316604614258 L5.103529930114746 9.316316604614258 C4.836581230163574 9.479425430297852 4.614331245422363 9.686983108520508 4.43640661239624 10.072340965270996 C4.36232328414917 10.235447883605957 4.0214152336120605 11.110005378723145 3.8731250762939453 11.510303497314453 C3.8434906005859375 11.628961563110352 3.798916816711426 11.732678413391113 3.754467010498047 11.821578025817871 C2.2424211502075195 11.836394309997559 1.4270057678222656 11.86602783203125 1.4270057678222656 11.895785331726074 C1.4270057678222656 11.925418853759766 2.2276039123535156 11.955052375793457 3.6802587509155273 11.984684944152832 C3.606175422668457 12.147668838500977 3.532093048095703 12.236568450927734 3.4430675506591797 12.281143188476562 L3.472701072692871 12.325592994689941 C3.873000144958496 12.355226516723633 4.110191345214844 12.147544860839844 4.273174285888672 11.777127265930176 C4.421465873718262 11.421278953552246 4.599390029907227 10.887630462646484 4.688290119171143 10.635622024536133 C4.999688625335693 9.835273742675781 5.1331634521484375 9.494241714477539 5.385046482086182 9.316441535949707 L5.385046482086182 9.316441535949707" fill="black" fill-opacity="1.0" filling="0"/>
<path animation_id="4" d="M9.254186630249023 15.498101234436035 L9.372720718383789 14.401046752929688 C9.402477264404297 14.17879581451416 9.432110786437988 13.985931396484375 9.46174430847168 13.778497695922852 L9.446928024291992 13.778497695922852 A12.165597915649414 12.165597915649414 0.0 0 1 9.135653495788574 14.401046752929688 L8.513105392456055 15.498101234436035 L7.920064926147461 15.498101234436035 L7.875614643096924 14.504887580871582 C7.860798358917236 14.267571449279785 7.860798358917236 14.01556396484375 7.890431880950928 13.778497695922852 C7.801531791687012 14.030380249023438 7.712631702423096 14.223246574401855 7.623607158660889 14.44549560546875 L7.208491802215576 15.497977256774902 L6.585943222045898 15.497977256774902 L7.72732400894165 12.829483985900879 L8.438897132873535 12.829483985900879 L8.49828815460205 14.000622749328613 C8.513105392456055 14.178671836853027 8.49828815460205 14.371288299560547 8.483471870422363 14.578970909118652 L8.49828815460205 14.578970909118652 C8.587188720703125 14.35647201538086 8.676212310791016 14.193489074707031 8.794746398925781 13.985806465148926 L9.49150276184082 12.829483985900879 L10.18825912475586 12.829483985900879 L9.891800880432129 15.497977256774902 L9.254186630249023 15.497977256774902 L9.254186630249023 15.498101234436035 L9.254186630249023 15.498101234436035" fill="black" fill-opacity="1.0" filling="0"/></svg>