<?xml version="1.0" encoding="iso-8859-1"?><svg height="200px" viewBox="0.0 0.0 24.0 24.0" width="200px" xmlns="http://www.w3.org/2000/svg"><path animation_id="0" d="M0.0 0.0 L24.0 0.0 L24.0 24.0 L0.0 24.0 L0.0 0.0" fill="black" fill-opacity="1.0" filling="0"/>
<path animation_id="1" d="M13.694826126098633 8.302807807922363 L14.027268409729004 8.302807807922363 L14.037976264953613 9.311087608337402 L14.456453323364258 9.311087608337402 L14.456453323364258 9.557866096496582 L13.694826126098633 9.557866096496582 L13.694826126098633 8.302807807922363 M11.881964683532715 8.302807807922363 L12.643590927124023 8.302807807922363 L12.643590927124023 8.5387544631958 L12.225363731384277 8.5387544631958 L12.225363731384277 8.79611587524414 L12.611467361450195 8.79611587524414 L12.611467361450195 9.032186508178711 L12.225363731384277 9.032186508178711 L12.225363731384277 9.311087608337402 L12.643590927124023 9.311087608337402 L12.643590927124023 9.557866096496582 L11.881964683532715 9.557866096496582 L11.881964683532715 8.302807807922363 L11.881964683532715 8.302807807922363 M12.772210121154785 8.302807807922363 L13.544543266296387 8.302807807922363 L13.544543266296387 8.5387544631958 L13.12631607055664 8.5387544631958 L13.12631607055664 8.79611587524414 L13.512420654296875 8.79611587524414 L13.512420654296875 9.032186508178711 L13.12631607055664 9.032186508178711 L13.12631607055664 9.311087608337402 L13.544543266296387 9.311087608337402 L13.544543266296387 9.557866096496582 L12.772210121154785 9.557866096496582 L12.772210121154785 8.302807807922363 L12.772210121154785 8.302807807922363 M6.540123462677002 8.292099952697754 L6.540123462677002 8.549461364746094 L6.1861419677734375 8.549461364746094 C6.1861419677734375 8.549461364746094 6.08964729309082 8.5387544631958 6.08964729309082 8.624665260314941 C6.08964729309082 8.699745178222656 6.1861419677734375 8.721160888671875 6.1861419677734375 8.721160888671875 L6.400672912597656 8.828363418579102 C6.400672912597656 8.828363418579102 6.658033847808838 8.935565948486328 6.615202903747559 9.225300788879395 C6.572371482849121 9.493494987487793 6.389964580535889 9.557866096496582 6.164726734161377 9.557866096496582 C6.164726734161377 9.568573951721191 5.767789840698242 9.557866096496582 5.767789840698242 9.557866096496582 L5.767789840698242 9.289671897888184 L6.078939437866211 9.300379753112793 C6.078939437866211 9.300379753112793 6.218390464782715 9.321795463562012 6.229097843170166 9.225300788879395 C6.239806175231934 9.13951301574707 6.132603168487549 9.0965576171875 6.132603168487549 9.0965576171875 C6.132603168487549 9.0965576171875 5.8965325355529785 8.978522300720215 5.88594913482666 8.978522300720215 C5.63929557800293 8.84977912902832 5.7250823974609375 8.549461364746094 5.7250823974609375 8.549461364746094 C5.7250823974609375 8.549461364746094 5.768038272857666 8.292099952697754 6.143435478210449 8.292099952697754 L6.540123462677002 8.292099952697754 L6.540123462677002 8.292099952697754 M4.577103137969971 9.568573951721191 L4.984747886657715 9.568573951721191 L5.167029857635498 8.667496681213379 L5.327896595001221 9.568573951721191 L5.735541343688965 9.568573951721191 L5.424391746520996 8.292099952697754 L5.156197547912598 8.292099952697754 C4.952375411987305 8.292099952697754 4.909543991088867 8.324348449707031 4.855880260467529 8.506629943847656 L4.577103137969971 9.568573951721191 L4.577103137969971 9.568573951721191 M6.59378719329834 9.568573951721191 L7.012139797210693 9.568573951721191 L7.194422245025635 8.667496681213379 L7.34458065032959 9.568573951721191 L7.762933731079102 9.568573951721191 L7.451908111572266 8.292099952697754 L7.173006534576416 8.292099952697754 C6.969183921813965 8.292099952697754 6.937060356140137 8.324348449707031 6.883396625518799 8.506629943847656 L6.59378719329834 9.568573951721191 M3.1613025665283203 8.281392097473145 L3.5152835845947266 8.281392097473145 L3.6333189010620117 9.075141906738281 L3.7620620727539062 8.281392097473145 L4.062503814697266 8.281392097473145 L4.18041467666626 9.075141906738281 L4.298449993133545 8.281392097473145 L4.652431488037109 8.281392097473145 L4.416360855102539 9.557866096496582 L4.15887451171875 9.557866096496582 C4.040839195251465 9.557866096496582 3.9980077743530273 9.53645133972168 3.9765920639038086 9.386167526245117 C3.9872989654541016 9.386167526245117 3.90151309967041 8.882026672363281 3.90151309967041 8.882026672363281 L3.7941856384277344 9.557866096496582 L3.536823272705078 9.557866096496582 C3.4510374069213867 9.557866096496582 3.375957489013672 9.557866096496582 3.343709945678711 9.386167526245117 L3.1613025665283203 8.281392097473145 L3.1613025665283203 8.281392097473145 M1.0588302612304688 8.281392097473145 L1.4449357986450195 8.281392097473145 L1.4449357986450195 8.796239852905273 L1.7560853958129883 8.281392097473145 L2.174313545227051 8.281392097473145 L1.8096256256103516 8.84990406036377 L2.1099424362182617 9.34321117401123 L2.356595993041992 8.495798110961914 C2.4102602005004883 8.313514709472656 2.453091621398926 8.281268119812012 2.6569128036499023 8.281268119812012 L2.925107955932617 8.281268119812012 L3.2254247665405273 9.557741165161133 L2.8070716857910156 9.557741165161133 L2.6676206588745117 8.66737174987793 L2.4746313095092773 9.557741165161133 L1.7880849838256836 9.557741165161133 L1.4448108673095703 8.956982612609863 L1.4448108673095703 9.557741165161133 L1.0588302612304688 9.557741165161133 L1.0588302612304688 8.281392097473145 L1.0588302612304688 8.281392097473145 M8.996451377868652 9.557866096496582 L8.545975685119629 9.557866096496582 L8.21353530883789 8.957106590270996 L8.21353530883789 9.557866096496582 L7.816596984863281 9.557866096496582 L7.816596984863281 8.281392097473145 L8.21353530883789 8.281392097473145 L8.21353530883789 8.79611587524414 L8.513851165771484 8.281392097473145 L8.932204246520996 8.281392097473145 L8.545975685119629 8.84990406036377 L8.996451377868652 9.557866096496582 L8.996451377868652 9.557866096496582 M9.039407730102539 9.54703426361084 L9.414928436279297 9.54703426361084 L9.414928436279297 8.281392097473145 L9.039407730102539 8.281392097473145 L9.039407730102539 9.54703426361084 L9.039407730102539 9.54703426361084 M11.806885719299316 8.292099952697754 L10.584074974060059 8.292099952697754 C10.208678245544434 8.292099952697754 10.165722846984863 8.5387544631958 10.165722846984863 8.5387544631958 C10.165722846984863 8.5387544631958 10.090642929077148 8.839071273803711 10.337297439575195 8.967814445495605 C10.337297439575195 8.978522300720215 10.573243141174316 9.0965576171875 10.573243141174316 9.0965576171875 C10.573243141174316 9.0965576171875 10.691277503967285 9.128681182861328 10.680570602416992 9.225300788879395 C10.65903091430664 9.311087608337402 10.53028678894043 9.300379753112793 10.53028678894043 9.300379753112793 L10.17630672454834 9.289671897888184 L10.17630672454834 9.557866096496582 L10.616074562072754 9.557866096496582 C10.841436386108398 9.557866096496582 11.023719787597656 9.482662200927734 11.055842399597168 9.214592933654785 C11.098798751831055 8.924983024597168 10.841312408447266 8.828363418579102 10.841312408447266 8.828363418579102 L10.637489318847656 8.721160888671875 C10.637489318847656 8.721160888671875 10.540995597839355 8.688913345336914 10.540995597839355 8.6138334274292 C10.540995597839355 8.5387544631958 10.637489318847656 8.5387544631958 10.637489318847656 8.5387544631958 L11.195169448852539 8.5387544631958 L11.195169448852539 9.557866096496582 L11.570690155029297 9.557866096496582 L11.570690155029297 8.5387544631958 L11.806635856628418 8.5387544631958 L11.806635856628418 8.292099952697754 L11.806885719299316 8.292099952697754 L11.806885719299316 8.292099952697754" fill="black" fill-opacity="1.0" filling="0"/>
<path animation_id="2" d="M20.527549743652344 8.302807807922363 L22.630144119262695 8.302807807922363 L20.96744155883789 10.952250480651855 L22.94116973876953 14.223868370056152 L20.624168395996094 14.223868370056152 L18.99383544921875 11.02733039855957 L20.527549743652344 8.302807807922363 L20.527549743652344 8.302807807922363" fill="black" fill-opacity="1.0" filling="0"/>
<path animation_id="3" d="M17.095062255859375 15.543298721313477 C17.095062255859375 15.575546264648438 17.073646545410156 15.618377685546875 17.073646545410156 15.629085540771484 C17.073646545410156 15.650501251220703 17.084354400634766 15.71474838256836 17.084354400634766 15.725581169128418 C17.073646545410156 15.74699592590332 17.06294059753418 15.768536567687988 17.04152488708496 15.75770378112793 C16.987735748291016 15.725581169128418 16.998443603515625 15.661209106445312 16.9343204498291 15.629085540771484 C16.901948928833008 15.607544898986816 16.86982536315918 15.639793395996094 16.827117919921875 15.607544898986816 C16.79474449157715 15.586130142211914 16.79474449157715 15.532341957092285 16.827117919921875 15.48963451385498 C16.859241485595703 15.446678161621094 16.90207290649414 15.45738697052002 16.90207290649414 15.45738697052002 C16.90207290649414 15.45738697052002 16.966567993164062 15.478926658630371 16.98786163330078 15.478926658630371 C17.009525299072266 15.478926658630371 17.030941009521484 15.511051177978516 17.041648864746094 15.521759033203125 C17.06294059753418 15.532465934753418 17.084354400634766 15.521759033203125 17.095062255859375 15.543298721313477 L17.095062255859375 15.543298721313477 M15.518272399902344 17.05571746826172 C15.518272399902344 17.05571746826172 15.550643920898438 17.077133178710938 15.572060585021973 17.077133178710938 C15.593475341796875 17.087841033935547 15.636556625366211 17.087841033935547 15.647263526916504 17.098674774169922 C15.65797233581543 17.098674774169922 15.679388046264648 17.13079833984375 15.679388046264648 17.141630172729492 C15.679388046264648 17.1523380279541 15.625848770141602 17.19516944885254 15.61489200592041 17.20600128173828 C15.61489200592041 17.21670913696289 15.593475341796875 17.248958587646484 15.582768440246582 17.259666442871094 C15.572060585021973 17.270374298095703 15.528980255126953 17.29178810119629 15.518272399902344 17.29178810119629 L15.518272399902344 17.05571746826172 L15.518272399902344 17.05571746826172 M15.518272399902344 16.583702087402344 C15.518272399902344 16.583702087402344 15.550643920898438 16.583702087402344 15.561352729797363 16.594409942626953 C15.572060585021973 16.605117797851562 15.625848770141602 16.648073196411133 15.625848770141602 16.648073196411133 C15.625848770141602 16.648073196411133 15.679388046264648 16.680320739746094 15.690095901489258 16.691028594970703 C15.690095901489258 16.712570190429688 15.679388046264648 16.755525588989258 15.668680191040039 16.77681541442871 C15.647263526916504 16.78752326965332 15.61489200592041 16.83047866821289 15.582892417907715 16.83047866821289 C15.550893783569336 16.83047866821289 15.518396377563477 16.819772720336914 15.518396377563477 16.819772720336914 L15.518396377563477 16.583702087402344 L15.518272399902344 16.583702087402344 L15.518272399902344 16.583702087402344 M16.08678436279297 17.291664123535156 C16.08678436279297 17.323911666870117 16.06536865234375 17.34545135498047 16.054658889770508 17.356159210205078 C16.0439510345459 17.356159210205078 15.990163803100586 17.33462142944336 15.979456901550293 17.323911666870117 C15.968749046325684 17.3024959564209 15.947332382202148 17.280956268310547 15.958041191101074 17.24883270263672 C15.979456901550293 17.216583251953125 16.011579513549805 17.227291107177734 16.011579513549805 17.227291107177734 C16.011579513549805 17.227291107177734 16.0439510345459 17.227291107177734 16.06536865234375 17.24883270263672 C16.07607650756836 17.259540557861328 16.08678436279297 17.3024959564209 16.08678436279297 17.291664123535156 L16.08678436279297 17.291664123535156 M16.01170539855957 16.530162811279297 C16.01170539855957 16.562410354614258 15.990287780761719 16.583826065063477 15.990287780761719 16.583826065063477 L15.947457313537598 16.626781463623047 C15.936749458312988 16.637489318847656 15.936749458312988 16.691152572631836 15.904376983642578 16.691152572631836 C15.87225341796875 16.691152572631836 15.829421997070312 16.6481990814209 15.818589210510254 16.616073608398438 C15.807881355285645 16.583826065063477 15.775758743286133 16.508747100830078 15.786466598510742 16.47662353515625 C15.786466598510742 16.43366813659668 15.829546928405762 16.401418685913086 15.850961685180664 16.401418685913086 C15.872377395629883 16.401418685913086 15.91520881652832 16.43366813659668 15.92591667175293 16.43366813659668 C15.947580337524414 16.44437599182129 15.958290100097656 16.43366813659668 15.979705810546875 16.44437599182129 C16.000995635986328 16.455081939697266 16.01170539855957 16.497915267944336 16.01170539855957 16.530162811279297 L16.01170539855957 16.530162811279297 M16.365684509277344 16.873435974121094 C16.365684509277344 16.894851684570312 16.322853088378906 16.916391372680664 16.322853088378906 16.916391372680664 C16.322853088378906 16.916391372680664 16.290481567382812 16.916391372680664 16.279773712158203 16.927099227905273 C16.269065856933594 16.927099227905273 16.21527862548828 16.970054626464844 16.183279037475586 16.970054626464844 C16.14044761657715 16.959346771240234 16.097492218017578 16.916391372680664 16.097492218017578 16.88426971435547 C16.097492218017578 16.85214614868164 16.14057159423828 16.809188842773438 16.15127944946289 16.798480987548828 C16.17269515991211 16.798480987548828 16.226482391357422 16.82002067565918 16.25848388671875 16.82002067565918 C16.290481567382812 16.82002067565918 16.322978973388672 16.82002067565918 16.33368682861328 16.83072853088379 C16.354976654052734 16.8411865234375 16.376392364501953 16.8411865234375 16.365684509277344 16.873435974121094 L16.365684509277344 16.873435974121094 M16.515968322753906 15.811367988586426 C16.515968322753906 15.843616485595703 16.494304656982422 15.854324340820312 16.483596801757812 15.865156173706055 C16.483596801757812 15.875864028930664 16.472888946533203 15.961527824401855 16.462181091308594 15.972358703613281 C16.451473236083984 15.98306655883789 16.408641815185547 16.01519203186035 16.365684509277344 15.9937744140625 C16.333560943603516 15.972358703613281 16.31189727783203 15.929403305053711 16.301189422607422 15.918570518493652 C16.290481567382812 15.90786361694336 16.236942291259766 15.89715576171875 16.226234436035156 15.875739097595215 C16.21527862548828 15.865031242370605 16.21527862548828 15.843491554260254 16.247650146484375 15.832783699035645 C16.269065856933594 15.821950912475586 16.301189422607422 15.800535202026367 16.31189727783203 15.789828300476074 C16.322853088378906 15.779120445251465 16.344268798828125 15.768411636352539 16.354976654052734 15.757579803466797 C16.365684509277344 15.757579803466797 16.397809982299805 15.768411636352539 16.41947364807129 15.768411636352539 C16.440889358520508 15.768411636352539 16.451597213745117 15.757579803466797 16.462303161621094 15.757579803466797 C16.473011016845703 15.757579803466797 16.526676177978516 15.768661499023438 16.515968322753906 15.811367988586426 L16.515968322753906 15.811367988586426 M16.301313400268555 16.14393424987793 C16.301313400268555 16.16547393798828 16.290605545043945 16.17618179321289 16.279897689819336 16.1868896484375 C16.269189834594727 16.1868896484375 16.23706817626953 16.19759750366211 16.226360321044922 16.19759750366211 C16.204692840576172 16.20830535888672 16.193984985351562 16.219013214111328 16.183279037475586 16.229846954345703 C16.161863327026367 16.229846954345703 16.151155471801758 16.229846954345703 16.14044761657715 16.219013214111328 C16.12973976135254 16.19759750366211 16.14044761657715 16.17618179321289 16.14044761657715 16.17618179321289 C16.14044761657715 16.17618179321289 16.183279037475586 16.12251853942871 16.183279037475586 16.11168670654297 C16.193984985351562 16.10097885131836 16.193984985351562 16.07956314086914 16.204692840576172 16.06885528564453 C16.21540069580078 16.058021545410156 16.24777603149414 16.058021545410156 16.25848388671875 16.06885528564453 C16.279897689819336 16.09027099609375 16.279897689819336 16.11168670654297 16.279897689819336 16.11168670654297 C16.279897689819336 16.11168670654297 16.301313400268555 16.12251853942871 16.301313400268555 16.14393424987793 L16.301313400268555 16.14393424987793 M16.494428634643555 16.326339721679688 C16.494428634643555 16.358463287353516 16.462303161621094 16.39071273803711 16.462303161621094 16.39071273803711 C16.462303161621094 16.39071273803711 16.462303161621094 16.43366813659668 16.451597213745117 16.44437599182129 C16.440889358520508 16.45520782470703 16.33368682861328 16.47662353515625 16.33368682861328 16.47662353515625 C16.33368682861328 16.47662353515625 16.279897689819336 16.47662353515625 16.269189834594727 16.44437599182129 C16.25848388671875 16.41225242614746 16.279897689819336 16.36929702758789 16.279897689819336 16.36929702758789 L16.301313400268555 16.347755432128906 C16.301313400268555 16.347755432128906 16.322978973388672 16.304800033569336 16.34439468383789 16.294092178344727 C16.36581039428711 16.283384323120117 16.451597213745117 16.294092178344727 16.462303161621094 16.294092178344727 C16.473011016845703 16.304800033569336 16.494428634643555 16.315631866455078 16.494428634643555 16.326339721679688 L16.494428634643555 16.326339721679688 M16.816410064697266 16.680320739746094 C16.816410064697266 16.733985900878906 16.80570411682129 16.733985900878906 16.80570411682129 16.733985900878906 C16.80570411682129 16.733985900878906 16.80570411682129 16.776941299438477 16.784038543701172 16.787649154663086 C16.773330688476562 16.798357009887695 16.741207122802734 16.798357009887695 16.709083557128906 16.776941299438477 C16.67671012878418 16.755525588989258 16.67671012878418 16.712570190429688 16.67671012878418 16.712570190429688 L16.67671012878418 16.680320739746094 C16.67671012878418 16.680320739746094 16.66600227355957 16.658906936645508 16.67671012878418 16.648073196411133 C16.67671012878418 16.626657485961914 16.730499267578125 16.583702087402344 16.741207122802734 16.583702087402344 C16.751914978027344 16.572994232177734 16.784038543701172 16.615951538085938 16.784038543701172 16.615951538085938 C16.784038543701172 16.615951538085938 16.79474449157715 16.615951538085938 16.80570411682129 16.637365341186523 C16.816410064697266 16.658906936645508 16.816410064697266 16.669614791870117 16.816410064697266 16.680320739746094 L16.816410064697266 16.680320739746094 M16.912906646728516 15.940110206604004 C16.912906646728516 15.98306655883789 16.88053321838379 16.047313690185547 16.80570411682129 16.047313690185547 C16.762622833251953 16.036605834960938 16.762622833251953 15.993650436401367 16.71991539001465 15.972234725952148 C16.666128158569336 15.96140193939209 16.601757049560547 15.993650436401367 16.601757049560547 15.939987182617188 C16.601757049560547 15.886322975158691 16.69824981689453 15.886322975158691 16.69824981689453 15.886322975158691 C16.69824981689453 15.886322975158691 16.75204086303711 15.886322975158691 16.773454666137695 15.875614166259766 C16.794870376586914 15.875614166259766 16.827241897583008 15.854074478149414 16.84865951538086 15.864907264709473 C16.859119415283203 15.875864028930664 16.912906646728516 15.886571884155273 16.912906646728516 15.940110206604004 L16.912906646728516 15.940110206604004 M17.04152488708496 16.283384323120117 C17.04152488708496 16.337047576904297 17.03081703186035 16.358463287353516 16.987735748291016 16.369171142578125 C16.955612182617188 16.369171142578125 16.912782669067383 16.326213836669922 16.8912410736084 16.293968200683594 C16.88053321838379 16.261844635009766 16.8912410736084 16.208179473876953 16.901948928833008 16.197471618652344 C16.923612594604492 16.186763763427734 16.966445922851562 16.176055908203125 16.977153778076172 16.176055908203125 C16.998443603515625 16.17618179321289 17.05223274230957 16.240554809570312 17.04152488708496 16.283384323120117 L17.04152488708496 16.283384323120117 M17.470458984375 16.14393424987793 C17.470458984375 16.16547393798828 17.44904327392578 16.20830535888672 17.438337326049805 16.20830535888672 C17.406213760375977 16.219013214111328 17.36313247680664 16.19759750366211 17.352550506591797 16.17618179321289 C17.331134796142578 16.16547393798828 17.331134796142578 16.14393424987793 17.341842651367188 16.13322639465332 C17.341842651367188 16.12251853942871 17.373966217041016 16.12251853942871 17.373966217041016 16.11168670654297 C17.384674072265625 16.11168670654297 17.3956298828125 16.10097885131836 17.40633773803711 16.10097885131836 C17.427753448486328 16.10097885131836 17.470458984375 16.11168670654297 17.470458984375 16.14393424987793 L17.470458984375 16.14393424987793 M17.2774715423584 15.865156173706055 C17.2774715423584 15.897279739379883 17.256053924560547 15.94023609161377 17.234638214111328 15.950818061828613 C17.2025146484375 15.961527824401855 17.180850982666016 15.972358703613281 17.170141220092773 15.950818061828613 C17.159435272216797 15.918570518493652 17.170141220092773 15.865156173706055 17.180850982666016 15.854324340820312 C17.191558837890625 15.843616485595703 17.234638214111328 15.822074890136719 17.256053924560547 15.832908630371094 C17.2774715423584 15.843616485595703 17.2774715423584 15.843616485595703 17.2774715423584 15.865156173706055 L17.2774715423584 15.865156173706055 M17.963891983032227 15.907987594604492 C17.953184127807617 15.92952823638916 17.942476272583008 15.961650848388672 17.942476272583008 15.961650848388672 C17.942476272583008 15.961650848388672 17.888938903808594 15.961650848388672 17.877981185913086 15.92952823638916 C17.856563568115234 15.897279739379883 17.888938903808594 15.854324340820312 17.888938903808594 15.843740463256836 C17.899768829345703 15.843616485595703 17.963891983032227 15.854324340820312 17.963891983032227 15.907987594604492 L17.963891983032227 15.907987594604492 M17.652868270874023 15.768661499023438 C17.652868270874023 15.790077209472656 17.631450653076172 15.800785064697266 17.599327087402344 15.800785064697266 C17.57766342163086 15.790077209472656 17.524124145507812 15.768661499023438 17.50283432006836 15.757828712463379 C17.49212646484375 15.757828712463379 17.48116683959961 15.73641300201416 17.48116683959961 15.725706100463867 C17.49212646484375 15.704164505004883 17.556371688842773 15.68274974822998 17.556371688842773 15.68274974822998 C17.556371688842773 15.68274974822998 17.5884952545166 15.693456649780273 17.59945297241211 15.704164505004883 L17.631576538085938 15.73641300201416 C17.631576538085938 15.73641300201416 17.652868270874023 15.74712085723877 17.652868270874023 15.768661499023438 M17.963891983032227 15.468094825744629 C17.963891983032227 15.48963451385498 17.92106056213379 15.511051177978516 17.91035270690918 15.511051177978516 C17.899646759033203 15.511051177978516 17.877981185913086 15.511051177978516 17.856563568115234 15.521759033203125 C17.845855712890625 15.532465934753418 17.82444190979004 15.554006576538086 17.80302619934082 15.543298721313477 C17.781360626220703 15.521759033203125 17.781360626220703 15.50034236907959 17.770654678344727 15.48963451385498 C17.770654678344727 15.478926658630371 17.727821350097656 15.4359712600708 17.738529205322266 15.41443157196045 C17.738529205322266 15.403722763061523 17.770654678344727 15.371475219726562 17.79231834411621 15.382307052612305 C17.81373405456543 15.382307052612305 17.835147857666016 15.41443157196045 17.856563568115234 15.41443157196045 C17.867273330688477 15.41443157196045 17.888938903808594 15.403722763061523 17.899646759033203 15.403722763061523 C17.921186447143555 15.414555549621582 17.963891983032227 15.446803092956543 17.963891983032227 15.468094825744629 L17.963891983032227 15.468094825744629 M17.545663833618164 15.436095237731934 C17.545663833618164 15.457511901855469 17.50283432006836 15.468219757080078 17.50283432006836 15.468219757080078 C17.50283432006836 15.468219757080078 17.48116683959961 15.468219757080078 17.45975112915039 15.47905158996582 C17.44904327392578 15.48975944519043 17.427629470825195 15.521883010864258 17.406213760375977 15.521883010864258 C17.38454818725586 15.521883010864258 17.35242462158203 15.500467300415039 17.341716766357422 15.48975944519043 C17.341716766357422 15.47905158996582 17.331008911132812 15.446803092956543 17.341716766357422 15.436095237731934 C17.35242462158203 15.414555549621582 17.416921615600586 15.393138885498047 17.416921615600586 15.393138885498047 C17.416921615600586 15.393138885498047 17.545663833618164 15.403847694396973 17.545663833618164 15.436095237731934 M17.792442321777344 14.974786758422852 C17.824565887451172 14.974786758422852 17.86739730834961 15.017742156982422 17.86739730834961 15.017742156982422 C17.86739730834961 15.017742156982422 17.931894302368164 15.0499906539917 17.921186447143555 15.082239151000977 C17.931894302368164 15.103654861450195 17.84598159790039 15.146610260009766 17.84598159790039 15.146610260009766 C17.84598159790039 15.146610260009766 17.781484603881836 15.200274467468262 17.77077865600586 15.200274467468262 C17.74936294555664 15.210982322692871 17.69582176208496 15.200274467468262 17.68498992919922 15.200274467468262 L17.599327087402344 15.200274467468262 C17.58837127685547 15.189566612243652 17.55624771118164 15.168025970458984 17.57766342163086 15.135778427124023 C17.599327087402344 15.103654861450195 17.652868270874023 15.114362716674805 17.684865951538086 15.071406364440918 C17.706531524658203 15.028450012207031 17.684865951538086 15.017742156982422 17.727947235107422 14.99632740020752 C17.74948501586914 14.974786758422852 17.781484603881836 14.974786758422852 17.792442321777344 14.974786758422852 L17.792442321777344 14.974786758422852 M17.61016082763672 14.567142486572266 C17.663700103759766 14.577850341796875 17.68511390686035 14.620805740356445 17.695947647094727 14.652929306030273 C17.717363357543945 14.674345016479492 17.7816104888916 14.674345016479492 17.792442321777344 14.685052871704102 C17.813858032226562 14.685052871704102 17.824565887451172 14.706592559814453 17.824565887451172 14.717301368713379 C17.824565887451172 14.74954891204834 17.76007080078125 14.760255813598633 17.73877716064453 14.770964622497559 C17.717363357543945 14.792505264282227 17.728069305419922 14.792505264282227 17.717363357543945 14.80321216583252 C17.706655502319336 14.80321216583252 17.695947647094727 14.792505264282227 17.674283981323242 14.824628829956055 C17.652868270874023 14.867584228515625 17.652868270874023 14.899831771850586 17.64215850830078 14.910415649414062 C17.631450653076172 14.931831359863281 17.556371688842773 14.921123504638672 17.524248123168945 14.899707794189453 C17.50283432006836 14.888999938964844 17.49212646484375 14.845919609069824 17.49212646484375 14.80321216583252 C17.49212646484375 14.770964622497559 17.50283432006836 14.706717491149902 17.50283432006836 14.706717491149902 C17.50283432006836 14.706717491149902 17.524248123168945 14.567142486572266 17.61016082763672 14.567142486572266 L17.61016082763672 14.567142486572266 M18.23221206665039 13.666190147399902 C18.285999298095703 13.666190147399902 18.339412689208984 13.687604904174805 18.371536254882812 13.698312759399414 C18.393203735351562 13.709145545959473 18.425325393676758 13.698312759399414 18.446741104125977 13.709145545959473 C18.468156814575195 13.719853401184082 18.47911262512207 13.7412691116333 18.489822387695312 13.76268482208252 C18.489822387695312 13.773517608642578 18.47911262512207 13.816473007202148 18.489822387695312 13.848471641540527 C18.489822387695312 13.870012283325195 18.52194595336914 13.902135848999023 18.52194595336914 13.934259414672852 C18.52194595336914 13.977214813232422 18.489822387695312 13.987922668457031 18.489822387695312 13.987922668457031 C18.489822387695312 13.987922668457031 18.41461753845215 14.030879020690918 18.425325393676758 14.116665840148926 C18.436033248901367 14.20245361328125 18.500530242919922 14.21316146850586 18.511112213134766 14.223868370056152 C18.532527923583984 14.223868370056152 18.564651489257812 14.223868370056152 18.58631706237793 14.245285034179688 C18.60773277282715 14.266824722290039 18.650564193725586 14.30978012084961 18.629146575927734 14.341778755187988 C18.618438720703125 14.384735107421875 18.564651489257812 14.395566940307617 18.51123809814453 14.363319396972656 C18.457448959350586 14.341778755187988 18.436033248901367 14.298824310302734 18.35024642944336 14.298824310302734 C18.275043487548828 14.298824310302734 18.285999298095703 14.331071853637695 18.26445770263672 14.341778755187988 C18.2430419921875 14.352612495422363 18.178796768188477 14.341778755187988 18.189504623413086 14.26669979095459 C18.200212478637695 14.234451293945312 18.23233413696289 14.22374439239502 18.2430419921875 14.180912017822266 C18.25374984741211 14.148665428161621 18.2430419921875 14.127248764038086 18.25374984741211 14.105833053588867 C18.26445770263672 14.084293365478516 18.328954696655273 14.062877655029297 18.318246841430664 13.998506546020508 C18.307538986206055 13.934134483337402 18.2430419921875 13.923426628112793 18.221752166748047 13.923426628112793 C18.200336456298828 13.912718772888184 18.146549224853516 13.934134483337402 18.12525749206543 13.923426628112793 C18.0931339263916 13.912718772888184 18.018054962158203 13.837639808654785 18.018054962158203 13.805391311645508 C18.018054962158203 13.783975601196289 18.028762817382812 13.751728057861328 18.039470672607422 13.741020202636719 C18.05017852783203 13.741020202636719 18.093257904052734 13.73031234741211 18.114673614501953 13.7196044921875 C18.135591506958008 13.698312759399414 18.178672790527344 13.676897048950195 18.23221206665039 13.666190147399902 L18.23221206665039 13.666190147399902 M18.006973266601562 14.416983604431152 C18.02838897705078 14.438398361206055 18.060510635375977 14.406275749206543 18.082176208496094 14.406275749206543 C18.103591918945312 14.406275749206543 18.14642333984375 14.427691459655762 18.14642333984375 14.449106216430664 C18.14642333984375 14.481354713439941 18.12500762939453 14.50289535522461 18.12500762939453 14.50289535522461 C18.12500762939453 14.50289535522461 18.114299774169922 14.556558609008789 18.092884063720703 14.577974319458008 C18.060510635375977 14.59951400756836 17.996389389038086 14.59951400756836 17.996389389038086 14.59951400756836 C17.996389389038086 14.59951400756836 17.942602157592773 14.588682174682617 17.921186447143555 14.577974319458008 C17.899768829345703 14.577974319458008 17.856689453125 14.59951400756836 17.835397720336914 14.588682174682617 C17.813982009887695 14.577974319458008 17.749610900878906 14.535018920898438 17.749610900878906 14.503020286560059 C17.738903045654297 14.470771789550781 17.771026611328125 14.44923210144043 17.771026611328125 14.427815437316895 C17.771026611328125 14.406400680541992 17.70677947998047 14.374152183532715 17.685239791870117 14.352736473083496 C17.6638240814209 14.331195831298828 17.65311622619629 14.288240432739258 17.6638240814209 14.277532577514648 C17.674531936645508 14.25611686706543 17.73902702331543 14.223868370056152 17.760318756103516 14.223868370056152 C17.79269027709961 14.223868370056152 17.82481575012207 14.20245361328125 17.846105575561523 14.20245361328125 C17.86739730834961 14.20245361328125 17.89989471435547 14.234576225280762 17.89989471435547 14.234576225280762 C17.89989471435547 14.234576225280762 17.974849700927734 14.245285034179688 17.985557556152344 14.266824722290039 C18.017681121826172 14.30978012084961 17.985309600830078 14.406275749206543 18.006973266601562 14.416983604431152 L18.006973266601562 14.416983604431152 M18.500404357910156 14.470646858215332 C18.511112213134766 14.470646858215332 18.543235778808594 14.49206256866455 18.553945541381836 14.50289535522461 C18.553945541381836 14.513603210449219 18.521820068359375 14.577974319458008 18.532527923583984 14.599390029907227 C18.532527923583984 14.620805740356445 18.553945541381836 14.653053283691406 18.553945541381836 14.663762092590332 C18.543235778808594 14.685176849365234 18.532527923583984 14.717426300048828 18.521820068359375 14.717426300048828 C18.511112213134766 14.728133201599121 18.468032836914062 14.717426300048828 18.457324981689453 14.728133201599121 C18.446617126464844 14.728133201599121 18.425201416015625 14.749672889709473 18.403785705566406 14.728133201599121 C18.371414184570312 14.717426300048828 18.371414184570312 14.674469947814941 18.360706329345703 14.663762092590332 C18.349998474121094 14.642221450805664 18.296457290649414 14.631513595581055 18.296457290649414 14.599390029907227 C18.285749435424805 14.577850341796875 18.328580856323242 14.556434631347656 18.328580856323242 14.556434631347656 C18.328580856323242 14.556434631347656 18.403785705566406 14.534893989562988 18.425077438354492 14.513479232788086 C18.446617126464844 14.50277042388916 18.478988647460938 14.470646858215332 18.500404357910156 14.470646858215332 L18.500404357910156 14.470646858215332 M18.25362777709961 14.845919609069824 C18.25362777709961 14.867459297180176 18.23221206665039 14.878168106079102 18.23221206665039 14.888999938964844 C18.22150230407715 14.910415649414062 18.23221206665039 14.931831359863281 18.22150230407715 14.953371047973633 C18.21079444885254 14.964078903198242 18.20008659362793 14.99632740020752 18.178672790527344 14.99632740020752 C18.157007217407227 14.99632740020752 18.082176208496094 14.964078903198242 18.07122039794922 14.942663192749023 C18.07122039794922 14.921123504638672 18.082176208496094 14.899707794189453 18.082176208496094 14.888999938964844 C18.092884063720703 14.888999938964844 18.12500762939453 14.878168106079102 18.14642333984375 14.867459297180176 C18.15713119506836 14.845919609069824 18.189504623413086 14.81379508972168 18.210920333862305 14.81379508972168 C18.23233413696289 14.81379508972168 18.25362777709961 14.835211753845215 18.25362777709961 14.845919609069824 L18.25362777709961 14.845919609069824 M18.360828399658203 15.28593635559082 C18.393203735351562 15.28593635559082 18.403911590576172 15.328767776489258 18.403911590576172 15.328767776489258 C18.403911590576172 15.328767776489258 18.41461753845215 15.339599609375 18.41461753845215 15.350309371948242 C18.41461753845215 15.361016273498535 18.393203735351562 15.382555961608887 18.393203735351562 15.382555961608887 C18.393203735351562 15.382555961608887 18.371536254882812 15.403972625732422 18.350120544433594 15.403972625732422 C18.328706741333008 15.403972625732422 18.30729103088379 15.382555961608887 18.30729103088379 15.371724128723145 C18.29658317565918 15.350184440612793 18.328706741333008 15.28593635559082 18.360828399658203 15.28593635559082 L18.360828399658203 15.28593635559082 M18.511112213134766 14.974786758422852 C18.521820068359375 14.964078903198242 18.58631706237793 14.985494613647461 18.58631706237793 15.007035255432129 C18.59702491760254 15.028450012207031 18.58631706237793 15.039283752441406 18.58631706237793 15.039283752441406 C18.58631706237793 15.039283752441406 18.564651489257812 15.0499906539917 18.553945541381836 15.0499906539917 C18.543235778808594 15.060698509216309 18.532527923583984 15.082239151000977 18.511112213134766 15.082239151000977 C18.489696502685547 15.082239151000977 18.478988647460938 15.0499906539917 18.478988647460938 15.0499906539917 C18.478988647460938 15.0499906539917 18.489696502685547 14.985370635986328 18.511112213134766 14.974786758422852 L18.511112213134766 14.974786758422852 M18.972421646118164 14.921123504638672 L18.972421646118164 14.99632740020752 C18.972421646118164 14.99632740020752 18.940048217773438 15.017742156982422 18.91863441467285 15.017742156982422 A0.07993526011705399 0.07993526011705399 0.0 0 1 18.88650894165039 14.985494613647461 C18.88650894165039 14.985494613647461 18.88650894165039 14.942663192749023 18.897216796875 14.931831359863281 C18.91863441467285 14.910415649414062 18.972421646118164 14.921123504638672 18.972421646118164 14.921123504638672 L18.972421646118164 14.921123504638672 M18.800722122192383 14.545601844787598 C18.8221378326416 14.545601844787598 18.88650894165039 14.620805740356445 18.875926971435547 14.642097473144531 C18.875926971435547 14.663637161254883 18.865219116210938 14.663637161254883 18.85426139831543 14.663637161254883 C18.84355354309082 14.663637161254883 18.8221378326416 14.652929306030273 18.8221378326416 14.652929306030273 C18.8221378326416 14.652929306030273 18.800722122192383 14.685052871704102 18.779308319091797 14.674345016479492 C18.746932983398438 14.663637161254883 18.736225128173828 14.652929306030273 18.72551727294922 14.631389617919922 L18.72551727294922 14.609972953796387 C18.72551727294922 14.609972953796387 18.790014266967773 14.545601844787598 18.800722122192383 14.545601844787598 L18.800722122192383 14.545601844787598 M18.972421646118164 14.191620826721191 L18.972421646118164 14.406275749206543 C18.972421646118164 14.406275749206543 18.961463928222656 14.416983604431152 18.940048217773438 14.416983604431152 C18.91863441467285 14.406275749206543 18.87580108642578 14.395566940307617 18.897216796875 14.395566940307617 C18.90792465209961 14.406275749206543 18.854137420654297 14.395566940307617 18.832721710205078 14.374027252197266 C18.82201385498047 14.363319396972656 18.832721710205078 14.352612495422363 18.832721710205078 14.320363998413086 C18.82201385498047 14.288115501403809 18.78989028930664 14.288115501403809 18.77918243408203 14.255992889404297 C18.77918243408203 14.234451293945312 18.80059814453125 14.21303653717041 18.81130599975586 14.2023286819458 C18.82201385498047 14.2023286819458 18.854137420654297 14.21303653717041 18.87580108642578 14.2023286819458 C18.897216796875 14.2023286819458 18.91863441467285 14.170080184936523 18.940048217773438 14.170080184936523 C18.961463928222656 14.170080184936523 18.972421646118164 14.191620826721191 18.972421646118164 14.191620826721191 L18.972421646118164 14.191620826721191 M18.972421646118164 13.687604904174805 L18.972421646118164 13.902135848999023 C18.972421646118164 13.902135848999023 18.950756072998047 13.891427993774414 18.92934226989746 13.902135848999023 C18.91863441467285 13.912967681884766 18.90792465209961 13.923676490783691 18.897216796875 13.923676490783691 C18.87580108642578 13.934383392333984 18.832721710205078 13.912967681884766 18.800722122192383 13.923676490783691 C18.779308319091797 13.934383392333984 18.757640838623047 13.977339744567871 18.704227447509766 13.977339744567871 C18.639732360839844 13.98804759979248 18.618438720703125 13.966630935668945 18.618438720703125 13.934383392333984 C18.629146575927734 13.891427993774414 18.650564193725586 13.859179496765137 18.671979904174805 13.859179496765137 C18.682937622070312 13.848471641540527 18.736474990844727 13.848471641540527 18.757766723632812 13.816349029541016 C18.779430389404297 13.784100532531738 18.768722534179688 13.719853401184082 18.790138244628906 13.698312759399414 C18.811555862426758 13.666190147399902 18.854385375976562 13.666190147399902 18.86534309387207 13.666190147399902 C18.886634826660156 13.666190147399902 18.972421646118164 13.687604904174805 18.972421646118164 13.687604904174805 L18.972421646118164 13.687604904174805 M18.972421646118164 13.333623886108398 L18.972421646118164 13.494490623474121 C18.972421646118164 13.494490623474121 18.92934226989746 13.50519847869873 18.91863441467285 13.50519847869873 C18.90792465209961 13.516031265258789 18.843429565429688 13.50519847869873 18.811429977416992 13.526739120483398 C18.790014266967773 13.5481538772583 18.768600463867188 13.601818084716797 18.736225128173828 13.623233795166016 C18.704103469848633 13.633941650390625 18.618316650390625 13.666190147399902 18.607608795166016 13.666190147399902 C18.607608795166016 13.655356407165527 18.56452751159668 13.655356407165527 18.55381965637207 13.612401962280273 C18.54311180114746 13.580277442932129 18.55381965637207 13.537322044372559 18.55381965637207 13.537322044372559 C18.55381965637207 13.537322044372559 18.586191177368164 13.51590633392334 18.607608795166016 13.51590633392334 C18.629024505615234 13.51590633392334 18.639732360839844 13.494365692138672 18.639732360839844 13.47282600402832 C18.650440216064453 13.451410293579102 18.629024505615234 13.440702438354492 18.618316650390625 13.419286727905273 C18.618316650390625 13.397746086120605 18.650440216064453 13.344082832336426 18.67185401916504 13.322792053222656 C18.682811737060547 13.311959266662598 18.725643157958984 13.27983570098877 18.747058868408203 13.27983570098877 C18.768722534179688 13.269003868103027 18.85426139831543 13.27983570098877 18.865219116210938 13.27983570098877 C18.886634826660156 13.290543556213379 18.908050537109375 13.311959266662598 18.929466247558594 13.322792053222656 C18.950756072998047 13.322916030883789 18.972421646118164 13.333623886108398 18.972421646118164 13.333623886108398 L18.972421646118164 13.333623886108398" fill="black" fill-opacity="1.0" filling="0"/>
<path animation_id="4" d="M15.518272399902344 8.302807807922363 L15.518272399902344 16.44437599182129 C15.518272399902344 16.44437599182129 15.539936065673828 16.44437599182129 15.550643920898438 16.43366813659668 C15.550643920898438 16.42296028137207 15.550643920898438 16.401418685913086 15.572060585021973 16.3800048828125 C15.593475341796875 16.347755432128906 15.647263526916504 16.347755432128906 15.647263526916504 16.347755432128906 C15.647263526916504 16.347755432128906 15.70080280303955 16.337047576904297 15.71151065826416 16.304800033569336 C15.733176231384277 16.272676467895508 15.70080280303955 16.251136779785156 15.70080280303955 16.240428924560547 C15.70080280303955 16.218887329101562 15.722468376159668 16.176055908203125 15.690095901489258 16.14393424987793 C15.679388046264648 16.14393424987793 15.625848770141602 16.11168670654297 15.625848770141602 16.05814552307129 C15.625848770141602 15.9937744140625 15.690095901489258 15.94023609161377 15.690095901489258 15.94023609161377 C15.690095901489258 15.94023609161377 15.733176231384277 15.950942993164062 15.74388313293457 15.961650848388672 C15.765299797058105 15.98319149017334 15.786714553833008 16.026147842407227 15.786714553833008 16.026147842407227 C15.786714553833008 16.026147842407227 15.872503280639648 16.090518951416016 15.872503280639648 16.122642517089844 C15.883210182189941 16.144058227539062 15.851086616516113 16.197721481323242 15.851086616516113 16.197721481323242 C15.851086616516113 16.197721481323242 15.851086616516113 16.219139099121094 15.872503280639648 16.240676879882812 C15.89391803741455 16.262218475341797 15.93699836730957 16.240676879882812 15.958290100097656 16.219139099121094 C15.968997955322266 16.20842933654785 15.979705810546875 16.154766082763672 15.979705810546875 16.144058227539062 C15.990413665771484 16.122642517089844 16.022785186767578 16.10110092163086 16.044200897216797 16.058271408081055 C16.05491065979004 16.01531410217285 16.022785186767578 15.972607612609863 16.033493041992188 15.92965316772461 C16.044200897216797 15.886696815490723 16.097740173339844 15.865280151367188 16.129989624023438 15.822324752807617 C16.151405334472656 15.76878547668457 16.097614288330078 15.747245788574219 16.097614288330078 15.747245788574219 C16.097614288330078 15.747245788574219 15.979705810546875 15.693581581115723 15.936874389648438 15.693581581115723 C15.883086204528809 15.693581581115723 15.872377395629883 15.757952690124512 15.872377395629883 15.757952690124512 C15.872377395629883 15.757952690124512 15.850961685180664 15.811616897583008 15.797174453735352 15.800909042358398 C15.743635177612305 15.77949333190918 15.711385726928711 15.704414367675781 15.711385726928711 15.67216682434082 C15.711385726928711 15.640042304992676 15.786590576171875 15.543546676635742 15.797174453735352 15.511300086975098 C15.818589210510254 15.489883422851562 15.861669540405273 15.489883422851562 15.915084838867188 15.52200698852539 C15.9688720703125 15.543546676635742 15.936749458312988 15.586503028869629 15.958165168762207 15.597210884094238 C15.990287780761719 15.618627548217773 16.054658889770508 15.618627548217773 16.07607650756836 15.586503028869629 C16.097492218017578 15.554255485534668 16.07607650756836 15.500717163085938 16.07607650756836 15.479300498962402 C16.07607650756836 15.447052955627441 16.097492218017578 15.436344146728516 16.119155883789062 15.425512313842773 C16.14057159423828 15.414804458618164 16.204818725585938 15.447052955627441 16.226360321044922 15.393388748168945 C16.25848388671875 15.350433349609375 16.23706817626953 15.318184852600098 16.226360321044922 15.296894073486328 C16.226360321044922 15.26464557647705 16.269189834594727 15.221689224243164 16.21540069580078 15.211106300354004 C16.183279037475586 15.178983688354492 16.14044761657715 15.25406265258789 16.119155883789062 15.2647705078125 C16.08678436279297 15.2647705078125 16.01170539855957 15.25406265258789 16.000995635986328 15.232522010803223 C15.97957992553711 15.221814155578613 15.9688720703125 15.189691543579102 15.97957992553711 15.146860122680664 C15.990287780761719 15.10402774810791 16.033369064331055 15.061071395874023 16.06536865234375 15.061071395874023 C16.08678436279297 15.061071395874023 16.161863327026367 15.093320846557617 16.23706817626953 15.10402774810791 C16.312021255493164 15.11473560333252 16.344268798828125 15.082612991333008 16.365684509277344 15.082612991333008 C16.376392364501953 15.082612991333008 16.440889358520508 15.10402774810791 16.462181091308594 15.125444412231445 C16.483596801757812 15.157691955566406 16.472888946533203 15.200647354125977 16.440765380859375 15.232646942138672 C16.408641815185547 15.264894485473633 16.333560943603516 15.264894485473633 16.333560943603516 15.30785083770752 C16.322853088378906 15.35080623626709 16.376392364501953 15.383054733276367 16.376392364501953 15.383054733276367 C16.376392364501953 15.383054733276367 16.440889358520508 15.436718940734863 16.41947364807129 15.500965118408203 C16.397809982299805 15.586751937866211 16.33368682861328 15.57616901397705 16.33368682861328 15.57616901397705 C16.33368682861328 15.57616901397705 16.301313400268555 15.58687686920166 16.312021255493164 15.619000434875488 C16.322978973388672 15.651248931884766 16.4301815032959 15.672664642333984 16.4301815032959 15.672664642333984 C16.4301815032959 15.672664642333984 16.548091888427734 15.661956787109375 16.569507598876953 15.651248931884766 C16.590923309326172 15.64054012298584 16.634002685546875 15.597585678100586 16.65529441833496 15.565461158752441 C16.68741798400879 15.533212661743164 16.719791412353516 15.458258628845215 16.6981258392334 15.404594421386719 C16.66600227355957 15.350931167602539 16.612464904785156 15.372346878051758 16.580215454101562 15.286684036254883 C16.569507598876953 15.232895851135254 16.66600227355957 15.093568801879883 16.68741798400879 15.061321258544922 C16.709083557128906 15.029073715209961 16.719791412353516 14.996949195861816 16.709083557128906 14.975534439086914 C16.68741798400879 14.943410873413086 16.65529441833496 14.932578086853027 16.623294830322266 14.932578086853027 C16.590923309326172 14.932578086853027 16.580215454101562 14.943410873413086 16.548091888427734 14.943410873413086 C16.515968322753906 14.943410873413086 16.494304656982422 14.932578086853027 16.462303161621094 14.921870231628418 C16.4301815032959 14.921870231628418 16.387102127075195 14.932578086853027 16.387102127075195 14.932578086853027 C16.387102127075195 14.932578086853027 16.354976654052734 14.932578086853027 16.344268798828125 14.9004545211792 C16.333560943603516 14.868206977844238 16.376392364501953 14.84666633605957 16.397809982299805 14.835958480834961 C16.40876579284668 14.825250625610352 16.473011016845703 14.814542770385742 16.494304656982422 14.80383586883545 C16.50501251220703 14.782295227050781 16.526676177978516 14.739338874816895 16.537384033203125 14.728631019592285 C16.548091888427734 14.717923164367676 16.569507598876953 14.685674667358398 16.633880615234375 14.717923164367676 C16.6981258392334 14.739338874816895 16.67671012878418 14.793127059936523 16.68741798400879 14.81441879272461 C16.6981258392334 14.846541404724121 16.719791412353516 14.85737419128418 16.751914978027344 14.878789901733398 C16.773330688476562 14.90032958984375 16.80570411682129 14.90032958984375 16.816410064697266 14.90032958984375 C16.827117919921875 14.88962173461914 16.837825775146484 14.868082046508789 16.848533630371094 14.868082046508789 C16.869949340820312 14.868082046508789 16.95573616027832 14.846541404724121 16.98786163330078 14.868082046508789 C17.020233154296875 14.878789901733398 17.030941009521484 14.911038398742676 17.041648864746094 14.932453155517578 C17.052356719970703 14.953993797302246 17.063064575195312 15.018241882324219 17.063064575195312 15.050488471984863 C17.063064575195312 15.071905136108398 17.041648864746094 15.10415267944336 16.99856948852539 15.125568389892578 C16.966445922851562 15.14710807800293 16.90207290649414 15.125568389892578 16.89136505126953 15.125568389892578 C16.869949340820312 15.125568389892578 16.80570411682129 15.14710807800293 16.80570411682129 15.200772285461426 C16.80570411682129 15.254435539245605 16.848533630371094 15.243728637695312 16.880657196044922 15.27585220336914 C16.91303062438965 15.297391891479492 16.89136505126953 15.318807601928711 16.923738479614258 15.351055145263672 C16.955862045288086 15.37247085571289 16.99869155883789 15.37247085571289 17.020233154296875 15.37247085571289 C17.041648864746094 15.38330364227295 17.073772430419922 15.404719352722168 17.09518814086914 15.404719352722168 C17.116851806640625 15.404719352722168 17.213346481323242 15.38330364227295 17.245471954345703 15.361763000488281 C17.27759552001953 15.340347290039062 17.320674896240234 15.286684036254883 17.33125877380371 15.275976181030273 C17.34196662902832 15.254560470581055 17.384798049926758 15.233020782470703 17.384798049926758 15.211604118347168 C17.374088287353516 15.190189361572266 17.34196662902832 15.168649673461914 17.33125877380371 15.168649673461914 C17.309843063354492 15.168649673461914 17.256053924560547 15.211604118347168 17.256053924560547 15.211604118347168 C17.256053924560547 15.211604118347168 17.191558837890625 15.265268325805664 17.127437591552734 15.243852615356445 C17.073646545410156 15.233020782470703 17.073646545410156 15.190189361572266 17.095062255859375 15.147356986999512 C17.116729736328125 15.104401588439941 17.17026710510254 15.104401588439941 17.21322250366211 15.093693733215332 C17.245346069335938 15.093693733215332 17.320425033569336 15.07215404510498 17.331134796142578 15.040029525756836 C17.352550506591797 15.018489837646484 17.331134796142578 14.932703018188477 17.341842651367188 14.911287307739258 C17.341842651367188 14.87903881072998 17.363258361816406 14.846790313720703 17.363258361816406 14.81479263305664 C17.363258361816406 14.782543182373047 17.320425033569336 14.72900390625 17.288053512573242 14.718297004699707 C17.266637802124023 14.707589149475098 17.213098526000977 14.72900390625 17.191558837890625 14.72900390625 C17.159435272216797 14.718297004699707 17.159435272216797 14.707589149475098 17.12731170654297 14.68604850769043 C17.10589599609375 14.67534065246582 17.084232330322266 14.68604850769043 17.062814712524414 14.67534065246582 C17.052106857299805 14.664632797241211 16.998319625854492 14.63238525390625 16.998319625854492 14.610969543457031 C16.998319625854492 14.58942985534668 17.030691146850586 14.568013191223145 17.041399002075195 14.557306289672852 C17.073524475097656 14.546473503112793 17.084232330322266 14.514349937438965 17.127187728881836 14.514349937438965 C17.159311294555664 14.514349937438965 17.19143295288086 14.5357666015625 17.19143295288086 14.5357666015625 C17.19143295288086 14.5357666015625 17.277219772338867 14.568013191223145 17.320301055908203 14.568013191223145 C17.37384033203125 14.568013191223145 17.42750358581543 14.5357666015625 17.42750358581543 14.482227325439453 A0.10907053202390671 0.10907053202390671 0.0 0 0 17.3523006439209 14.37502384185791 C17.32017707824707 14.37502384185791 17.245098114013672 14.407271385192871 17.245098114013672 14.407271385192871 C17.245098114013672 14.407271385192871 17.212974548339844 14.41797924041748 17.148603439331055 14.38573169708252 C17.09481430053711 14.342775344848633 17.09481430053711 14.299943923950195 17.09481430053711 14.257112503051758 C17.09481430053711 14.224864959716797 17.116477966308594 14.149785041809082 17.105770111083984 14.106954574584961 C17.0841064453125 14.063998222351074 17.030567169189453 14.096121788024902 17.030567169189453 14.010458946228027 C17.030567169189453 13.97821044921875 17.0841064453125 13.93525505065918 17.105770111083984 13.924671173095703 C17.137895584106445 13.91396427154541 17.202266693115234 13.892424583435059 17.234390258789062 13.91396427154541 C17.26651382446289 13.946087837219238 17.234390258789062 14.021166801452637 17.234390258789062 14.031874656677246 C17.223682403564453 14.053291320800781 17.19131088256836 14.12837028503418 17.212974548339844 14.160493850708008 C17.234390258789062 14.214282035827637 17.26651382446289 14.203573226928711 17.28792953491211 14.214282035827637 C17.309593200683594 14.22498893737793 17.331008911132812 14.257238388061523 17.373716354370117 14.278653144836426 C17.41679573059082 14.300067901611328 17.49187469482422 14.300067901611328 17.51329231262207 14.300067901611328 C17.53470802307129 14.289361000061035 17.588245391845703 14.257238388061523 17.588245391845703 14.21440601348877 C17.588245391845703 14.171574592590332 17.556121826171875 14.107203483581543 17.52400016784668 14.096370697021484 C17.49187469482422 14.085662841796875 17.470211029052734 14.096370697021484 17.459503173828125 14.096370697021484 A0.0588931068778038 0.0588931068778038 0.0 0 1 17.427379608154297 14.042706489562988 C17.438087463378906 14.010583877563477 17.470211029052734 13.935503959655762 17.523874282836914 13.946212768554688 C17.577415466308594 13.946212768554688 17.577415466308594 13.999876022338867 17.609663009643555 14.031998634338379 C17.641786575317383 14.064247131347656 17.706157684326172 14.096370697021484 17.759695053100586 14.096370697021484 C17.81348419189453 14.085662841796875 17.802776336669922 14.053415298461914 17.845483779907227 14.064247131347656 C17.88856315612793 14.074954986572266 17.90997886657715 14.128618240356445 17.941978454589844 14.149909973144531 C17.974102020263672 14.16061782836914 18.0064754486084 14.149909973144531 18.02776527404785 14.107078552246094 C18.049182891845703 14.053291320800781 18.02776527404785 13.999752044677734 18.006349563598633 13.96762752532959 C17.98468589782715 13.935379028320312 17.920562744140625 13.946087837219238 17.909854888916016 13.946087837219238 C17.899147033691406 13.946087837219238 17.86677360534668 13.935379028320312 17.86677360534668 13.924671173095703 C17.85606575012207 13.903131484985352 17.888439178466797 13.849468231201172 17.845359802246094 13.817468643188477 C17.813236236572266 13.785221099853516 17.77015495300293 13.828176498413086 17.738157272338867 13.817468643188477 C17.71674156188965 13.806636810302734 17.706031799316406 13.774513244628906 17.71674156188965 13.731681823730469 C17.727449417114258 13.688850402832031 17.79194450378418 13.699434280395508 17.834651947021484 13.602938652038574 C17.86677360534668 13.559982299804688 17.823944091796875 13.47419548034668 17.823944091796875 13.452779769897461 C17.823944091796875 13.442071914672852 17.834651947021484 13.409823417663574 17.85606575012207 13.377700805664062 C17.87748146057129 13.356160163879395 17.909854888916016 13.36686897277832 17.97397804260254 13.399115562438965 C18.02776527404785 13.431364059448242 18.006349563598633 13.538567543029785 18.02776527404785 13.570816040039062 C18.059890747070312 13.613646507263184 18.092262268066406 13.602938652038574 18.134967803955078 13.592230796813965 C18.167091369628906 13.592230796813965 18.22075653076172 13.602938652038574 18.22075653076172 13.602938652038574 C18.22075653076172 13.602938652038574 18.327959060668945 13.570816040039062 18.370790481567383 13.538567543029785 C18.403162002563477 13.506319046020508 18.392454147338867 13.452779769897461 18.370790481567383 13.431364059448242 C18.349374771118164 13.409823417663574 18.274295806884766 13.431364059448242 18.21004867553711 13.377700805664062 C18.156261444091797 13.324036598205566 18.231464385986328 13.259665489196777 18.1993408203125 13.22754192352295 C18.17792510986328 13.195293426513672 18.124135971069336 13.22754192352295 18.070472717285156 13.21670913696289 C17.97397804260254 13.195293426513672 17.94185447692871 13.077258110046387 17.94185447692871 13.055843353271484 C17.94185447692871 13.045135498046875 17.995641708374023 13.002179145812988 18.017057418823242 12.991471290588379 C18.038475036621094 12.98076343536377 18.092262268066406 12.991471290588379 18.113554000854492 12.991471290588379 C18.145675659179688 12.991471290588379 18.18875503540039 12.98076343536377 18.22075653076172 12.98076343536377 C18.252880096435547 12.991471290588379 18.263587951660156 13.012887001037598 18.274295806884766 13.02371883392334 C18.29595947265625 13.03442668914795 18.328083038330078 13.03442668914795 18.338790893554688 13.055843353271484 C18.36020851135254 13.109506607055664 18.31737518310547 13.141630172729492 18.31737518310547 13.17375373840332 C18.328083038330078 13.238249778747559 18.349498748779297 13.21670913696289 18.370914459228516 13.248956680297852 C18.403287887573242 13.291913032531738 18.403287887573242 13.324161529541016 18.456703186035156 13.313329696655273 C18.51049041748047 13.313329696655273 18.521198272705078 13.281205177307129 18.55319595336914 13.259665489196777 C18.57486343383789 13.248956680297852 18.628400802612305 13.21670913696289 18.628400802612305 13.21670913696289 C18.628400802612305 13.21670913696289 18.68218994140625 13.152338027954102 18.68218994140625 13.088090896606445 C18.68218994140625 13.023843765258789 18.639108657836914 13.002304077148438 18.639108657836914 12.95934772491455 C18.639108657836914 12.916391372680664 18.68218994140625 12.852145195007324 18.74631118774414 12.852145195007324 C18.810806274414062 12.852145195007324 18.83209991455078 12.927224159240723 18.83209991455078 12.97005558013916 C18.83209991455078 13.023843765258789 18.799976348876953 13.034551620483398 18.799976348876953 13.077258110046387 C18.799976348876953 13.109506607055664 18.83209991455078 13.120338439941406 18.864471435546875 13.131046295166016 C18.885887145996094 13.15246295928955 18.875179290771484 13.15246295928955 18.918010711669922 13.184710502624512 C18.95013427734375 13.20612621307373 18.982505798339844 13.173877716064453 18.982505798339844 13.173877716064453 L18.982505798339844 8.302807807922363 L15.518272399902344 8.302807807922363 L15.518272399902344 8.302807807922363 M16.526676177978516 13.279959678649902 C16.537384033203125 13.279959678649902 16.569507598876953 13.312084197998047 16.569507598876953 13.333623886108398 C16.569507598876953 13.355039596557617 16.515968322753906 13.408703804016113 16.494304656982422 13.397995948791504 C16.462181091308594 13.376579284667969 16.462181091308594 13.31220817565918 16.483596801757812 13.30150032043457 C16.494428634643555 13.279959678649902 16.505136489868164 13.279959678649902 16.526676177978516 13.279959678649902 L16.526676177978516 13.279959678649902 M16.4301815032959 12.657785415649414 C16.440889358520508 12.657785415649414 16.515968322753906 12.657785415649414 16.505136489868164 12.700740814208984 C16.505136489868164 12.722156524658203 16.494428634643555 12.754404067993164 16.473011016845703 12.76511287689209 C16.462303161621094 12.76511287689209 16.41947364807129 12.754404067993164 16.41947364807129 12.732989311218262 C16.40876579284668 12.71144962310791 16.41947364807129 12.668493270874023 16.4301815032959 12.657785415649414 M16.34439468383789 13.773392677307129 C16.37651824951172 13.71972942352295 16.419597625732422 13.730436325073242 16.451597213745117 13.741144180297852 C16.473011016845703 13.76255989074707 16.494428634643555 13.773392677307129 16.483722686767578 13.816349029541016 C16.483722686767578 13.859179496765137 16.462303161621094 13.912842750549316 16.397933959960938 13.902010917663574 C16.34439468383789 13.880596160888672 16.322978973388672 13.827056884765625 16.34439468383789 13.773392677307129 M15.904376983642578 13.633941650390625 C15.958165168762207 13.601693153381348 15.947457313537598 13.655356407165527 15.9688720703125 13.666190147399902 C15.97957992553711 13.687604904174805 16.022661209106445 13.666190147399902 16.022661209106445 13.709145545959473 C16.022661209106445 13.730561256408691 15.9688720703125 13.80551528930664 15.904500961303711 13.794808387756348 C15.850961685180664 13.784100532531738 15.893793106079102 13.741144180297852 15.893793106079102 13.730436325073242 C15.893669128417969 13.709020614624023 15.872377395629883 13.644649505615234 15.904376983642578 13.633941650390625 L15.904376983642578 13.633941650390625 M15.786466598510742 15.307228088378906 C15.754342079162598 15.317935943603516 15.689970970153809 15.264272689819336 15.6792631149292 15.221441268920898 C15.65784740447998 15.167777061462402 15.668556213378906 15.082115173339844 15.6792631149292 15.060574531555176 C15.700678825378418 15.049866676330566 15.754467010498047 15.028326034545898 15.775758743286133 15.049866676330566 C15.807881355285645 15.071281433105469 15.818589210510254 15.092823028564453 15.818589210510254 15.124945640563965 C15.818589210510254 15.146486282348633 15.807881355285645 15.200149536132812 15.807881355285645 15.221441268920898 C15.807881355285645 15.232148170471191 15.818589210510254 15.296520233154297 15.786466598510742 15.307228088378906 M15.97957992553711 14.878168106079102 A0.15152835845947266 0.15152835845947266 0.0 0 1 15.829546928405762 14.867459297180176 C15.765049934387207 14.81379508972168 15.754342079162598 14.770964622497559 15.743759155273438 14.717301368713379 C15.743759155273438 14.674345016479492 15.743759155273438 14.610097885131836 15.786590576171875 14.610097885131836 C15.840378761291504 14.599390029907227 15.883086204528809 14.685176849365234 15.91520881652832 14.695884704589844 C15.92591667175293 14.706592559814453 15.979705810546875 14.728009223937988 16.000995635986328 14.74954891204834 C16.022661209106445 14.770964622497559 16.022661209106445 14.781672477722168 16.022661209106445 14.792505264282227 C16.03324317932129 14.845919609069824 16.000995635986328 14.856751441955566 15.97957992553711 14.878168106079102 L15.97957992553711 14.878168106079102 M16.0439510345459 14.223868370056152 C16.03324317932129 14.234576225280762 16.0439510345459 14.288240432739258 16.022537231445312 14.298948287963867 C16.011579513549805 14.30978012084961 15.968749046325684 14.341903686523438 15.936749458312988 14.320487976074219 C15.915084838867188 14.298948287963867 15.92579174041748 14.266824722290039 15.92579174041748 14.266824722290039 C15.92579174041748 14.266824722290039 15.936749458312988 14.245285034179688 15.936749458312988 14.223868370056152 C15.936749458312988 14.21316146850586 15.92579174041748 14.170205116271973 15.958165168762207 14.148665428161621 C15.97957992553711 14.137957572937012 16.06536865234375 14.084293365478516 16.07607650756836 14.084293365478516 C16.097492218017578 14.095001220703125 16.097492218017578 14.116540908813477 16.097492218017578 14.127248764038086 C16.097492218017578 14.137957572937012 16.0439510345459 14.20245361328125 16.0439510345459 14.223868370056152 M16.462303161621094 14.642221450805664 C16.40876579284668 14.653053283691406 16.312021255493164 14.674469947814941 16.279897689819336 14.653053283691406 C16.24777603149414 14.620805740356445 16.23706817626953 14.588558197021484 16.23706817626953 14.588558197021484 C16.23706817626953 14.588558197021484 16.15127944946289 14.534893989562988 16.172571182250977 14.470646858215332 C16.183279037475586 14.438398361206055 16.21540069580078 14.449106216430664 16.24777603149414 14.449106216430664 C16.279897689819336 14.449106216430664 16.312021255493164 14.438398361206055 16.333560943603516 14.427691459655762 C16.365684509277344 14.416983604431152 16.494304656982422 14.449106216430664 16.494304656982422 14.449106216430664 C16.494304656982422 14.449106216430664 16.537384033203125 14.49206256866455 16.537384033203125 14.534893989562988 C16.526676177978516 14.567142486572266 16.505136489868164 14.631513595581055 16.462303161621094 14.642221450805664 L16.462303161621094 14.642221450805664 M16.623294830322266 14.170329093933105 C16.569507598876953 14.170329093933105 16.52680206298828 14.148789405822754 16.516094207763672 14.127372741699219 C16.494428634643555 14.105957984924316 16.505136489868164 14.06300163269043 16.516094207763672 14.041586875915527 C16.52680206298828 14.030879020690918 16.623294830322266 13.977214813232422 16.623294830322266 13.977214813232422 C16.623294830322266 13.977214813232422 16.676836013793945 13.95567512512207 16.687543869018555 13.987922668457031 C16.70920753479004 14.020170211791992 16.71991539001465 14.030879020690918 16.70920753479004 14.073709487915039 C16.709083557128906 14.116665840148926 16.67671012878418 14.170329093933105 16.623294830322266 14.170329093933105 M16.8912410736084 14.449106216430664 C16.8912410736084 14.449106216430664 16.805578231811523 14.534893989562988 16.762622833251953 14.545601844787598 C16.719791412353516 14.545601844787598 16.6981258392334 14.524186134338379 16.6981258392334 14.4705228805542 C16.6981258392334 14.427566528320312 16.719791412353516 14.384735107421875 16.730499267578125 14.374027252197266 C16.741207122802734 14.363319396972656 16.784038543701172 14.363319396972656 16.79474449157715 14.331071853637695 C16.80570411682129 14.309656143188477 16.79474449157715 14.298824310302734 16.80570411682129 14.288115501403809 C16.816410064697266 14.2774076461792 16.859241485595703 14.255992889404297 16.89136505126953 14.288115501403809 C16.923738479614258 14.309656143188477 16.934446334838867 14.309656143188477 16.934446334838867 14.341778755187988 C16.94502830505371 14.374027252197266 16.8912410736084 14.449106216430664 16.8912410736084 14.449106216430664 L16.8912410736084 14.449106216430664 M16.923612594604492 13.655356407165527 L16.88053321838379 13.687604904174805 C16.88053321838379 13.687604904174805 16.86982536315918 13.709145545959473 16.848407745361328 13.698312759399414 C16.816286087036133 13.698312759399414 16.794620513916016 13.655356407165527 16.78391456604004 13.644649505615234 C16.75179100036621 13.601693153381348 16.77320671081543 13.537446022033691 16.805578231811523 13.516031265258789 C16.83770179748535 13.50519847869873 16.944904327392578 13.569694519042969 16.944904327392578 13.612401962280273 L16.923612594604492 13.655356407165527 M16.977153778076172 13.001058578491211 C16.966445922851562 13.01176643371582 16.923612594604492 13.033307075500488 16.923612594604492 13.05472183227539 C16.912906646728516 13.0654296875 16.9343204498291 13.097678184509277 16.912906646728516 13.108386039733887 C16.8912410736084 13.119217872619629 16.816410064697266 13.076138496398926 16.79474449157715 13.05472183227539 C16.773330688476562 13.022599220275879 16.773330688476562 12.990350723266602 16.784038543701172 12.958227157592773 C16.784038543701172 12.925979614257812 16.80570411682129 12.904562950134277 16.827117919921875 12.893856048583984 C16.848533630371094 12.893856048583984 16.99856948852539 12.893856048583984 16.99856948852539 12.936811447143555 C16.998443603515625 12.958102226257324 16.977153778076172 13.001058578491211 16.977153778076172 13.001058578491211 L16.977153778076172 13.001058578491211 M17.256053924560547 13.322916030883789 A0.08242545276880264 0.08242545276880264 0.0 0 1 17.234638214111328 13.376579284667969 C17.234638214111328 13.387287139892578 17.170141220092773 13.397995948791504 17.159435272216797 13.397995948791504 C17.148727416992188 13.408703804016113 17.06294059753418 13.408703804016113 17.05223274230957 13.397995948791504 C17.03081703186035 13.387287139892578 17.020109176635742 13.355039596557617 17.020109176635742 13.333623886108398 C17.020109176635742 13.322916030883789 17.03081703186035 13.26912784576416 17.095062255859375 13.25841999053955 C17.15955924987793 13.25841999053955 17.22393035888672 13.26912784576416 17.234638214111328 13.279959678649902 C17.256053924560547 13.290668487548828 17.256053924560547 13.312084197998047 17.256053924560547 13.322916030883789 M17.266761779785156 12.604122161865234 C17.256053924560547 12.614830017089844 17.22393035888672 12.614830017089844 17.2025146484375 12.604122161865234 C17.170141220092773 12.593413352966309 17.170141220092773 12.571873664855957 17.170141220092773 12.571873664855957 C17.170141220092773 12.571873664855957 17.159435272216797 12.518209457397461 17.170141220092773 12.507502555847168 C17.180850982666016 12.496793746948242 17.245346069335938 12.47525405883789 17.245346069335938 12.47525405883789 C17.245346069335938 12.47525405883789 17.266761779785156 12.4859619140625 17.266761779785156 12.496793746948242 L17.266761779785156 12.550457954406738 C17.266761779785156 12.561165809631348 17.2774715423584 12.593537330627441 17.266761779785156 12.604122161865234 L17.266761779785156 12.604122161865234 M17.5884952545166 13.526739120483398 C17.577787399291992 13.537446022033691 17.438461303710938 13.623233795166016 17.438461303710938 13.623233795166016 C17.438461303710938 13.623233795166016 17.3956298828125 13.644649505615234 17.373966217041016 13.590985298156738 C17.341842651367188 13.548029899597168 17.373966217041016 13.494490623474121 17.384674072265625 13.483782768249512 C17.3956298828125 13.46224308013916 17.41704559326172 13.440826416015625 17.427753448486328 13.419411659240723 C17.427753448486328 13.397871017456055 17.427753448486328 13.344207763671875 17.438461303710938 13.322916030883789 C17.449169158935547 13.312084197998047 17.50295639038086 13.25841999053955 17.545663833618164 13.279959678649902 C17.577787399291992 13.290668487548828 17.61016082763672 13.312084197998047 17.61016082763672 13.365623474121094 C17.61016082763672 13.365623474121094 17.631576538085938 13.376455307006836 17.631576538085938 13.419411659240723 C17.631450653076172 13.472949981689453 17.5884952545166 13.516031265258789 17.5884952545166 13.526739120483398 M17.813858032226562 12.947394371032715 C17.813858032226562 12.968810081481934 17.792442321777344 12.990350723266602 17.792442321777344 12.990350723266602 C17.792442321777344 12.990350723266602 17.663576126098633 13.022599220275879 17.620742797851562 13.01176643371582 C17.58837127685547 13.001058578491211 17.50283432006836 12.904562950134277 17.50283432006836 12.904562950134277 C17.50283432006836 12.904562950134277 17.48116683959961 12.883148193359375 17.49212646484375 12.861607551574707 C17.49212646484375 12.840191841125488 17.556371688842773 12.7758207321167 17.58837127685547 12.7758207321167 C17.620742797851562 12.7758207321167 17.663576126098633 12.80806827545166 17.684865951538086 12.829608917236328 C17.69582176208496 12.85102367401123 17.74936294555664 12.893980026245117 17.74936294555664 12.893980026245117 C17.74936294555664 12.893980026245117 17.781484603881836 12.893980026245117 17.792442321777344 12.904687881469727 C17.803150177001953 12.925854682922363 17.813858032226562 12.925854682922363 17.813858032226562 12.947394371032715 M17.84598159790039 12.51833438873291 C17.83527374267578 12.52904224395752 17.77077865600586 12.561290740966797 17.74948501586914 12.561290740966797 C17.73877716064453 12.561290740966797 17.706655502319336 12.539874076843262 17.68498992919922 12.52904224395752 C17.674283981323242 12.52904224395752 17.652868270874023 12.52904224395752 17.64215850830078 12.5076265335083 C17.620742797851562 12.496918678283691 17.610034942626953 12.464670181274414 17.610034942626953 12.443255424499512 C17.610034942626953 12.421714782714844 17.69582176208496 12.368050575256348 17.727947235107422 12.368050575256348 C17.74936294555664 12.368050575256348 17.877981185913086 12.400299072265625 17.877981185913086 12.453838348388672 C17.86739730834961 12.496918678283691 17.856689453125 12.5076265335083 17.84598159790039 12.51833438873291 M18.500404357910156 11.220444679260254 C18.521820068359375 11.231152534484863 18.553945541381836 11.252568244934082 18.553945541381836 11.28481674194336 C18.553945541381836 11.306231498718262 18.553945541381836 11.327771186828613 18.532527923583984 11.327771186828613 C18.500404357910156 11.327771186828613 18.436033248901367 11.31706428527832 18.436033248901367 11.295524597167969 C18.4359073638916 11.28481674194336 18.478988647460938 11.220444679260254 18.500404357910156 11.220444679260254 M18.264209747314453 11.75683307647705 C18.28587532043457 11.746124267578125 18.371414184570312 11.735292434692383 18.382369995117188 11.746124267578125 C18.393077850341797 11.75683307647705 18.414493560791016 11.75683307647705 18.414493560791016 11.788955688476562 C18.414493560791016 11.82120418548584 18.414493560791016 11.853327751159668 18.328706741333008 11.864160537719727 C18.242919921875 11.874868392944336 18.22150230407715 11.83191204071045 18.22150230407715 11.81049633026123 C18.22150230407715 11.799663543701172 18.23221206665039 11.75683307647705 18.264209747314453 11.75683307647705 L18.264209747314453 11.75683307647705 M18.017681121826172 11.670921325683594 L17.963891983032227 11.670921325683594 C17.963891983032227 11.670921325683594 17.92106056213379 11.681628227233887 17.91035270690918 11.660213470458984 C17.888938903808594 11.63879680633545 17.91035270690918 11.56371784210205 17.91035270690918 11.56371784210205 C17.91035270690918 11.56371784210205 17.92106056213379 11.542303085327148 17.953184127807617 11.553010940551758 C17.97460174560547 11.56371784210205 18.038972854614258 11.57442569732666 18.038972854614258 11.649505615234375 C18.03909683227539 11.670921325683594 18.02838897705078 11.670921325683594 18.017681121826172 11.670921325683594 M18.20008659362793 12.228724479675293 C18.178672790527344 12.218016624450684 18.135591506958008 12.218016624450684 18.114299774169922 12.185769081115723 C18.092884063720703 12.164352416992188 18.114299774169922 12.132105827331543 18.12500762939453 12.121397018432617 C18.14642333984375 12.110689163208008 18.200212478637695 12.099857330322266 18.21079444885254 12.099857330322266 C18.22150230407715 12.110689163208008 18.29658317565918 12.142937660217285 18.285999298095703 12.196476936340332 C18.285999298095703 12.228599548339844 18.275043487548828 12.260848045349121 18.25362777709961 12.260848045349121 C18.23221206665039 12.260848045349121 18.21079444885254 12.228724479675293 18.20008659362793 12.228724479675293 L18.20008659362793 12.228724479675293 M18.553945541381836 12.818652153015137 C18.553945541381836 12.829483985900879 18.521820068359375 12.872315406799316 18.521820068359375 12.883148193359375 C18.511112213134766 12.893856048583984 18.500404357910156 12.915270805358887 18.478988647460938 12.915270805358887 C18.457324981689453 12.915270805358887 18.403785705566406 12.904562950134277 18.382495880126953 12.883148193359375 C18.371536254882812 12.872315406799316 18.328706741333008 12.732989311218262 18.3179988861084 12.71144962310791 C18.29658317565918 12.700740814208984 18.274917602539062 12.71144962310791 18.253501892089844 12.679201126098633 C18.232086181640625 12.647076606750488 18.232086181640625 12.5827054977417 18.242794036865234 12.57199764251709 C18.264209747314453 12.550582885742188 18.3179988861084 12.51833438873291 18.339290618896484 12.51833438873291 C18.382369995117188 12.539874076843262 18.371414184570312 12.5827054977417 18.403785705566406 12.604122161865234 C18.4359073638916 12.625536918640137 18.500282287597656 12.614830017089844 18.53240394592285 12.636369705200195 C18.55381965637207 12.647076606750488 18.575483322143555 12.657785415649414 18.575483322143555 12.690032958984375 C18.586191177368164 12.722156524658203 18.564651489257812 12.807943344116211 18.553945541381836 12.818652153015137 L18.553945541381836 12.818652153015137 M18.607608795166016 12.099981307983398 C18.586191177368164 12.078566551208496 18.607608795166016 11.960654258728027 18.607608795166016 11.949822425842285 C18.618316650390625 11.939114570617676 18.639732360839844 11.906991004943848 18.661148071289062 11.906991004943848 C18.693519592285156 11.896283149719238 18.746932983398438 11.896283149719238 18.768600463867188 11.917699813842773 C18.790014266967773 11.928407669067383 18.800722122192383 11.928407669067383 18.800722122192383 11.949822425842285 C18.800722122192383 11.97123908996582 18.746932983398438 12.014193534851074 18.746932983398438 12.02490234375 C18.736225128173828 12.03561019897461 18.71480941772461 12.078566551208496 18.693395614624023 12.099981307983398 C18.67185401916504 12.11081314086914 18.629024505615234 12.11081314086914 18.607608795166016 12.099981307983398 L18.607608795166016 12.099981307983398 M18.790014266967773 12.57199764251709 C18.768600463867188 12.5827054977417 18.72551727294922 12.614953994750977 18.693519592285156 12.5827054977417 C18.661148071289062 12.539874076843262 18.629024505615234 12.49704360961914 18.629024505615234 12.475502967834473 C18.629024505615234 12.454087257385254 18.650440216064453 12.389716148376465 18.661148071289062 12.36829948425293 C18.67185401916504 12.357592582702637 18.725643157958984 12.31463623046875 18.746932983398438 12.31463623046875 C18.768600463867188 12.32534408569336 18.832721710205078 12.36829948425293 18.8221378326416 12.432671546936035 C18.8221378326416 12.453963279724121 18.811429977416992 12.550582885742188 18.790014266967773 12.57199764251709 L18.790014266967773 12.57199764251709" fill="black" fill-opacity="1.0" filling="0"/></svg>