<?xml version="1.0" encoding="iso-8859-1"?><svg height="200px" viewBox="0.0 0.0 24.0 24.0" width="200px" xmlns="http://www.w3.org/2000/svg"><path animation_id="0" d="M0.0 0.0 L24.0 0.0 L24.0 24.0 L0.0 24.0 L0.0 0.0" fill="black" fill-opacity="1.0" filling="0"/>
<path animation_id="1" d="M7.458009243011475 1.0588302612304688 L16.652929306030273 1.0588302612304688 L16.652929306030273 15.184337615966797 L7.458009243011475 15.184337615966797 L7.458009243011475 1.0588302612304688" fill="black" fill-opacity="1.0" filling="0"/>
<path animation_id="2" d="M16.652929306030273 9.689597129821777 L16.36033058166504 9.439457893371582 L15.986801147460938 9.147730827331543 L15.603312492370605 8.886137008666992 L15.209611892700195 8.624540328979492 L14.805952072143555 8.39307689666748 L14.392081260681152 8.171823501586914 L13.958040237426758 7.980700969696045 L13.524249076843262 7.809624671936035 L13.080246925354004 7.6486334800720215 L12.635995864868164 7.507812976837158 L12.182032585144043 7.387038707733154 L11.71773624420166 7.286434650421143 L11.263525009155273 7.205877304077148 L10.789142608642578 7.155575275421143 L10.324846267700195 7.115358352661133 L9.8504638671875 7.105273246765137 L9.386167526245117 7.105273246765137 L8.921870231628418 7.135404109954834 L8.447488784790039 7.185706615447998 L7.983191013336182 7.256054401397705 L7.529104232788086 7.336612224578857 L7.458507061004639 7.353420734405518 M9.163792610168457 9.932516098022461 L9.27485466003418 10.254498481750488 L9.295025825500488 10.666873931884766 L9.2244291305542 11.029073715209961 L9.042769432067871 11.46174430847168 L8.82064437866211 11.803772926330566 L8.457324981689453 12.1961030960083 L8.023408889770508 12.53825569152832 L7.5389404296875 12.819896697998047 L7.458258152008057 12.850276947021484 M7.458009243011475 9.021976470947266 L7.9122209548950195 9.06717300415039 L8.295710563659668 9.167776107788086 L8.689411163330078 9.368985176086426 L8.941667556762695 9.600448608398438 L9.163792610168457 9.932516098022461 M9.27485466003418 10.425450325012207 L10.203449249267578 10.385232925415039 L11.303617477416992 10.415365219116211 L12.373404502868652 10.515968322753906 L13.069912910461426 10.626657485961914 L13.746249198913574 10.767477989196777 L14.735230445861816 11.049242973327637 L15.673909187316895 11.401357650756836 L16.531906127929688 11.823943138122559 L16.653053283691406 11.893170356750488 M9.02247428894043 11.501960754394531 L9.194048881530762 11.552263259887695 L10.516217231750488 12.07545280456543 L11.818216323852539 12.709207534790039 L13.089959144592285 13.433605194091797 L14.281018257141113 14.238561630249023 L15.401357650756836 15.113739967346191 L15.479175567626953 15.184212684631348 M8.134346008300781 12.457822799682617 L8.24540901184082 12.57872200012207 L9.11349105834961 13.594720840454102 L10.22374439239502 14.962834358215332 L10.389715194702148 15.184337615966797 M7.881965160369873 9.057211875915527 L8.325966835021973 8.574363708496094 L8.699496269226074 8.24229621887207 L9.083109855651855 7.9505696296691895 L9.456514358520508 7.709145545959473 L9.840129852294922 7.5180230140686035 L10.415489196777344 7.306729793548584 L10.970553398132324 7.226296424865723 L11.344082832336426 7.236382007598877 L11.586254119873047 7.266513347625732 M8.881155967712402 9.540185928344727 L9.648260116577148 9.208118438720703 L10.274045944213867 8.986740112304688 L11.20263957977295 8.745315551757812 L11.808130264282227 8.634626388549805 L12.403785705566406 8.574363708496094 L12.99931526184082 8.544107437133789 L13.564465522766113 8.564277648925781 L14.391956329345703 8.685052871704102 L14.906805038452148 8.815788269042969 L15.401481628417969 8.98686408996582 L16.087779998779297 9.318931579589844 L16.511611938476562 9.60069751739502 M14.230592727661133 9.670920372009277 L14.42246150970459 10.184025764465332 L14.543609619140625 10.727261543273926 L14.58395004272461 11.099546432495117 L14.573741912841797 11.6730375289917 L14.493059158325195 12.256739616394043 L14.33156967163086 12.850152969360352 L14.099607467651367 13.443815231323242 L13.786590576171875 14.027517318725586 L13.544418334960938 14.409762382507324 L13.120587348937988 14.973169326782227 L12.932578086853027 15.18446159362793 M7.458009243011475 7.364626884460449 L7.488265037536621 7.356907367706299 L8.22498893737793 7.226047515869141 L8.951627731323242 7.155699729919434 L9.658221244812012 7.155699729919434 L10.13260269165039 7.175869941711426 L10.798730850219727 7.276474475860596 L11.434600830078125 7.43734073638916 L11.838262557983398 7.578160762786865 L12.393326759338379 7.819585800170898 L12.908173561096191 8.131482124328613 L13.35217571258545 8.493681907653809 L13.735666275024414 8.906181335449219 L13.957666397094727 9.198033332824707 L14.230218887329102 9.670796394348145 M16.239307403564453 9.34893798828125 L15.986927032470703 9.147730827331543 L15.875739097595215 9.067296981811523" fill="none" filling="0" stroke="black" stroke-opacity="1.0" stroke-width=".3"/>
<path animation_id="3" d="M9.41604995727539 4.932328701019287 C9.41604995727539 5.1939239501953125 9.395878791809082 5.354915142059326 9.37570858001709 5.425263404846191 C9.355537414550781 5.495611190795898 9.305110931396484 5.535952568054199 9.22430419921875 5.535952568054199 C9.153707504272461 5.535952568054199 9.103156089782715 5.505696773529053 9.082985877990723 5.445309162139893 C9.06281566619873 5.384922027587891 9.042644500732422 5.223930835723877 9.042644500732422 4.962460517883301 L9.042644500732422 2.8797855377197266 C9.042644500732422 2.648447036743164 9.06281566619873 2.5075016021728516 9.093070983886719 2.467410087585449 C9.123327255249023 2.417107582092285 9.17375373840332 2.396937370300293 9.234390258789062 2.396937370300293 C9.304986953735352 2.396937370300293 9.355537414550781 2.417107582092285 9.37570858001709 2.477370262145996 C9.395878791809082 2.5376338958740234 9.41604995727539 2.6684932708740234 9.41604995727539 2.8797855377197266 L9.41604995727539 4.932328701019287 L9.41604995727539 4.932328701019287 M10.586938858032227 3.5841379165649414 C10.586938858032227 3.121335029602051 10.566768646240234 2.7993526458740234 10.546598434448242 2.608229637145996 C10.526427268981934 2.4271926879882812 10.455829620361328 2.2561168670654297 10.344767570495605 2.105210304260254 C10.22361946105957 1.9442195892333984 10.072340965270996 1.8234453201293945 9.880471229553223 1.7530975341796875 C9.68860149383545 1.672663688659668 9.46660041809082 1.6323232650756836 9.2244291305542 1.6323232650756836 C8.972047805786133 1.6323232650756836 8.750046730041504 1.6725397109985352 8.558177947998047 1.7530975341796875 A1.1346572637557983 1.1346572637557983 0.0 0 0 8.104089736938477 2.1152963638305664 C7.993027687072754 2.2662010192871094 7.932515621185303 2.4371538162231445 7.9123454093933105 2.6284008026123047 C7.882089614868164 2.8095626831054688 7.87200403213501 3.131545066833496 7.87200403213501 3.5841379165649414 L7.87200403213501 4.348876476287842 C7.87200403213501 4.801593780517578 7.89217472076416 5.1235761642456055 7.9123454093933105 5.314698696136475 C7.932515621185303 5.4957356452941895 8.00311279296875 5.666811943054199 8.114175796508789 5.827803134918213 C8.235322952270508 5.9787092208862305 8.386603355407715 6.099483489990234 8.578473091125488 6.1799163818359375 C8.770341873168945 6.250265121459961 8.992342948913574 6.290605545043945 9.2244291305542 6.290605545043945 C9.486770629882812 6.290605545043945 9.70889663696289 6.250389099121094 9.900641441345215 6.1698317527771 A1.1359024047851562 1.1359024047851562 0.0 0 0 10.354852676391602 5.807632923126221 C10.46591567993164 5.656726837158203 10.526427268981934 5.485774517059326 10.546598434448242 5.30461311340332 C10.566768646240234 5.113490581512451 10.586938858032227 4.791508674621582 10.586938858032227 4.348876476287842 L10.586938858032227 3.5841379165649414 L10.586938858032227 3.5841379165649414 M13.574426651000977 3.3728437423706055 L12.403785705566406 3.3728437423706055 L12.403785705566406 2.9704294204711914 C12.403785705566406 2.708834648132324 12.393575668334961 2.5478429794311523 12.363443374633789 2.4874563217163086 C12.343274116516113 2.4271926879882812 12.29272174835205 2.396937370300293 12.211915969848633 2.396937370300293 C12.141443252563477 2.396937370300293 12.090767860412598 2.417107582092285 12.070721626281738 2.477370262145996 C12.0403413772583 2.52767276763916 12.030256271362305 2.6684932708740234 12.030256271362305 2.899956703186035 L12.030256271362305 5.042893409729004 C12.030256271362305 5.244101524353027 12.0403413772583 5.374960899353027 12.070721626281738 5.4352240562438965 C12.090892791748047 5.495486736297607 12.141443252563477 5.53582763671875 12.222126007080078 5.53582763671875 C12.302807807922363 5.53582763671875 12.363443374633789 5.495486736297607 12.393575668334961 5.425138473510742 C12.423955917358398 5.354790687561035 12.433916091918945 5.213845729827881 12.433916091918945 5.002552509307861 L12.433916091918945 4.469277381896973 L12.20195484161377 4.469277381896973 L12.20195484161377 3.795182228088379 L13.574426651000977 3.795182228088379 L13.574426651000977 6.199713706970215 L12.837577819824219 6.199713706970215 L12.726638793945312 5.877856254577637 C12.645956993103027 6.0186767578125 12.544979095458984 6.1192803382873535 12.42383098602295 6.189628601074219 C12.302682876586914 6.260100841522217 12.161489486694336 6.290232181549072 11.999876022338867 6.290232181549072 C11.797920227050781 6.290232181549072 11.616260528564453 6.250015735626221 11.44481086730957 6.149411678314209 C11.273237228393555 6.058893203735352 11.142003059387207 5.938118934631348 11.061196327209473 5.797298431396484 C10.970429420471191 5.656477928161621 10.90979290008545 5.515657424926758 10.88962173461914 5.354666233062744 C10.869451522827148 5.203760147094727 10.859366416931152 4.972296714782715 10.859366416931152 4.660524368286133 L10.859366416931152 3.332627296447754 C10.859366416931152 2.9100418090820312 10.879536628723145 2.598269462585449 10.93008804321289 2.407022476196289 C10.970429420471191 2.215775489807129 11.111747741699219 2.034738540649414 11.323662757873535 1.8737478256225586 C11.545788764953613 1.7127561569213867 11.828425407409668 1.6323232650756836 12.181783676147461 1.6323232650756836 C12.514723777770996 1.6323232650756836 12.807445526123047 1.7027959823608398 13.029571533203125 1.8436155319213867 C13.251572608947754 1.98443603515625 13.403100967407227 2.145427703857422 13.473572731018066 2.336549758911133 C13.53408432006836 2.52767276763916 13.57455062866211 2.809438705444336 13.57455062866211 3.181722640991211 L13.57455062866211 3.3728437423706055 L13.574426651000977 3.3728437423706055 M15.320799827575684 2.5579280853271484 C15.361141204833984 2.608229637145996 15.391271591186523 2.708834648132324 15.391271591186523 2.8597402572631836 L15.391271591186523 3.2320241928100586 C15.391271591186523 3.393014907836914 15.371101379394531 3.503704071044922 15.33076000213623 3.5540056228637695 C15.290419578552246 3.6043081283569336 15.209611892700195 3.634439468383789 15.108759880065918 3.634439468383789 L15.01799201965332 3.634439468383789 L15.01799201965332 2.4975404739379883 C15.169271469116211 2.4975404739379883 15.270248413085938 2.517711639404297 15.320799827575684 2.5579280853271484 L15.320799827575684 2.5579280853271484 M13.847102165222168 6.199838161468506 L15.01799201965332 6.199838161468506 L15.01799201965332 4.399054050445557 L15.33076000213623 4.399054050445557 C15.583141326904297 4.399054050445557 15.79505729675293 4.36879825592041 15.94646167755127 4.298449993133545 C16.10795021057129 4.228102207183838 16.219013214111328 4.127373218536377 16.27964973449707 3.996638298034668 C16.329952239990234 3.8657779693603516 16.36033058166504 3.6544857025146484 16.36033058166504 3.3728437423706055 L16.36033058166504 2.980513572692871 C16.36033058166504 2.698873519897461 16.350120544433594 2.487579345703125 16.319992065429688 2.3567209243774414 C16.289609909057617 2.225985527038574 16.229097366333008 2.105210304260254 16.148292541503906 2.0145673751831055 C16.05739974975586 1.9240493774414062 15.926290512084961 1.8537015914916992 15.75459098815918 1.8032751083374023 C15.583141326904297 1.7529726028442383 15.340970039367676 1.7228412628173828 15.027952194213867 1.7228412628173828 L13.847102165222168 1.7228412628173828 L13.847102165222168 6.199838161468506 L13.847102165222168 6.199838161468506" fill="black" fill-opacity="1.0" filling="0"/>
<path animation_id="4" d="M7.4479241371154785 16.150033950805664 L7.690219879150391 16.150033950805664 L7.690219879150391 17.12594223022461 L7.4479241371154785 17.12594223022461 L7.4479241371154785 16.150033950805664 M8.154516220092773 16.562660217285156 C8.225112915039062 16.4921875 8.285749435424805 16.461933135986328 8.366432189941406 16.461933135986328 C8.467409133911133 16.461933135986328 8.608603477478027 16.51223373413086 8.608603477478027 16.71343994140625 L8.608603477478027 17.125818252563477 L8.40677261352539 17.125818252563477 L8.40677261352539 16.723649978637695 C8.40677261352539 16.632884979248047 8.35634708404541 16.592790603637695 8.295710563659668 16.592790603637695 C8.245284080505371 16.592790603637695 8.204943656921387 16.622922897338867 8.15439224243164 16.703481674194336 L8.15439224243164 17.12594223022461 L7.942476749420166 17.12594223022461 L7.942476749420166 16.472015380859375 L8.15439224243164 16.472015380859375 L8.15439224243164 16.562660217285156 L8.154516220092773 16.562660217285156 L8.154516220092773 16.562660217285156 M9.315196990966797 16.612836837768555 L9.073025703430176 16.612836837768555 L9.073025703430176 16.884517669677734 C9.073025703430176 16.94502830505371 9.11336612701416 16.985246658325195 9.174002647399902 16.985246658325195 C9.214343070983887 16.985246658325195 9.254685401916504 16.97528648376465 9.31532096862793 16.945154190063477 L9.31532096862793 17.095935821533203 C9.234638214111328 17.126066207885742 9.184087753295898 17.136276245117188 9.123576164245605 17.136276245117188 C8.982257843017578 17.136276245117188 8.861109733581543 17.076013565063477 8.861109733581543 16.894851684570312 L8.861109733581543 16.612960815429688 L8.770341873168945 16.612960815429688 L8.770341873168945 16.57286834716797 L9.042893409729004 16.260848999023438 L9.073149681091309 16.260848999023438 L9.073149681091309 16.47214126586914 L9.31532096862793 16.47214126586914 L9.31532096862793 16.612836837768555 L9.315196990966797 16.612836837768555 M10.122642517089844 17.055593490600586 C10.001494407653809 17.136028289794922 9.880346298217773 17.136028289794922 9.829919815063477 17.136028289794922 C9.597833633422852 17.136028289794922 9.446304321289062 17.00516700744629 9.446304321289062 16.80408477783203 C9.446304321289062 16.602752685546875 9.587623596191406 16.461933135986328 9.789454460144043 16.461933135986328 C9.9813232421875 16.461933135986328 10.142687797546387 16.592790603637695 10.13260269165039 16.83421516418457 L9.658221244812012 16.83421516418457 C9.668306350708008 16.944904327392578 9.74898910522461 17.01512908935547 9.880221366882324 17.01512908935547 C9.961029052734375 17.01512908935547 10.021540641784668 16.99520492553711 10.122518539428711 16.92460823059082 L10.122518539428711 17.055593490600586 L10.122642517089844 17.055593490600586 M9.951066970825195 16.723649978637695 C9.940982818603516 16.632884979248047 9.89043140411377 16.58258056640625 9.809749603271484 16.58258056640625 C9.72894287109375 16.58258056640625 9.66843032836914 16.632884979248047 9.658345222473145 16.723649978637695 L9.951066970825195 16.723649978637695 M10.53651237487793 16.66313934326172 C10.607110023498535 16.522319793701172 10.667745590209961 16.462055206298828 10.748553276062012 16.462055206298828 C10.788893699645996 16.462055206298828 10.829235076904297 16.472015380859375 10.889871597290039 16.512357711791992 L10.82935905456543 16.703481674194336 C10.778932571411133 16.66313934326172 10.738592147827148 16.653179168701172 10.708211898803711 16.653179168701172 C10.627530097961426 16.653179168701172 10.587063789367676 16.723649978637695 10.536637306213379 16.844301223754883 L10.536637306213379 17.12594223022461 L10.334806442260742 17.12594223022461 L10.334806442260742 16.472015380859375 L10.536637306213379 16.472015380859375 L10.536637306213379 16.66313934326172 L10.53651237487793 16.66313934326172 L10.53651237487793 16.66313934326172 M11.232895851135254 16.562660217285156 C11.293407440185547 16.4921875 11.364129066467285 16.461933135986328 11.44481086730957 16.461933135986328 C11.545788764953613 16.461933135986328 11.68710708618164 16.51223373413086 11.68710708618164 16.71343994140625 L11.68710708618164 17.125818252563477 L11.475067138671875 17.125818252563477 L11.475067138671875 16.723649978637695 C11.475067138671875 16.632884979248047 11.434725761413574 16.592790603637695 11.374089241027832 16.592790603637695 C11.323662757873535 16.592790603637695 11.28332233428955 16.622922897338867 11.232771873474121 16.703481674194336 L11.232771873474121 17.12594223022461 L11.020730972290039 17.12594223022461 L11.020730972290039 16.472015380859375 L11.232771873474121 16.472015380859375 L11.232771873474121 16.562660217285156 L11.232895851135254 16.562660217285156 L11.232895851135254 16.562660217285156 M12.585445404052734 17.08584976196289 C12.534894943237305 17.11598014831543 12.454087257385254 17.136150360107422 12.393575668334961 17.136150360107422 C12.323102951049805 17.136150360107422 12.292597770690918 17.11598014831543 12.282637596130371 17.0656795501709 C12.20195484161377 17.11598014831543 12.131109237670898 17.136150360107422 12.060511589050293 17.136150360107422 C11.959534645080566 17.136150360107422 11.878851890563965 17.0656795501709 11.878851890563965 16.975160598754883 C11.878851890563965 16.82413101196289 11.989914894104004 16.79399871826172 12.272427558898926 16.703481674194336 C12.272427558898926 16.643217086791992 12.24229621887207 16.592790603637695 12.15127944946289 16.592790603637695 C12.070597648620605 16.592790603637695 11.979704856872559 16.64309310913086 11.90910816192627 16.703481674194336 L11.90910816192627 16.53227996826172 C11.999876022338867 16.482227325439453 12.090767860412598 16.462055206298828 12.20195484161377 16.462055206298828 C12.363443374633789 16.462055206298828 12.474382400512695 16.512357711791992 12.474382400512695 16.653179168701172 L12.474382400512695 16.95499038696289 C12.474382400512695 16.98512077331543 12.484591484069824 17.005292892456055 12.514723777770996 17.005292892456055 C12.524933815002441 17.005292892456055 12.545103073120117 16.995330810546875 12.585445404052734 16.964950561523438 L12.585445404052734 17.08584976196289 M12.272427558898926 16.81416893005371 C12.141319274902344 16.854263305664062 12.090767860412598 16.88439178466797 12.090767860412598 16.94502830505371 C12.090767860412598 16.98512077331543 12.121148109436035 17.0152530670166 12.15127944946289 17.0152530670166 C12.191620826721191 17.0152530670166 12.231961250305176 16.995330810546875 12.272427558898926 16.964950561523438 L12.272427558898926 16.81416893005371 L12.272427558898926 16.81416893005371 M13.21110725402832 16.612836837768555 L12.968935012817383 16.612836837768555 L12.968935012817383 16.884517669677734 C12.968935012817383 16.94502830505371 12.99931526184082 16.985246658325195 13.069912910461426 16.985246658325195 C13.11025333404541 16.985246658325195 13.150594711303711 16.97528648376465 13.211231231689453 16.945154190063477 L13.211231231689453 17.095935821533203 C13.130548477172852 17.126066207885742 13.080121994018555 17.136276245117188 13.019610404968262 17.136276245117188 C12.878292083740234 17.136276245117188 12.75701904296875 17.076013565063477 12.75701904296875 16.894851684570312 L12.75701904296875 16.612960815429688 L12.666251182556152 16.612960815429688 L12.666251182556152 16.57286834716797 L12.938803672790527 16.260848999023438 L12.968935012817383 16.260848999023438 L12.968935012817383 16.47214126586914 L13.21110725402832 16.47214126586914 L13.21110725402832 16.612836837768555 L13.21110725402832 16.612836837768555 M13.37259578704834 16.472015380859375 L13.584635734558105 16.472015380859375 L13.584635734558105 17.12594223022461 L13.37259578704834 17.12594223022461 L13.37259578704834 16.472015380859375 M13.594720840454102 16.260725021362305 C13.594720840454102 16.32123565673828 13.544418334960938 16.37141227722168 13.473572731018066 16.37141227722168 A0.11168524622917175 0.11168524622917175 0.0 0 1 13.362634658813477 16.260725021362305 C13.362634658813477 16.190500259399414 13.412936210632324 16.140073776245117 13.473572731018066 16.140073776245117 C13.544294357299805 16.140073776245117 13.594720840454102 16.19037628173828 13.594720840454102 16.260725021362305 M14.160120010375977 17.136150360107422 C13.937870025634766 17.136150360107422 13.786590576171875 17.005292892456055 13.786590576171875 16.79399871826172 C13.786590576171875 16.57274627685547 13.958040237426758 16.462055206298828 14.160120010375977 16.462055206298828 C14.321609497070312 16.462055206298828 14.523438453674316 16.54248809814453 14.523438453674316 16.804208755493164 C14.523438453674316 17.065553665161133 14.301313400268555 17.136150360107422 14.160120010375977 17.136150360107422 M14.160120010375977 16.582706451416016 C14.069228172302246 16.582706451416016 14.008591651916504 16.653179168701172 14.008591651916504 16.79399871826172 C14.008591651916504 16.964950561523438 14.079313278198242 17.0152530670166 14.160120010375977 17.0152530670166 C14.250887870788574 17.0152530670166 14.301438331604004 16.934818267822266 14.301438331604004 16.79399871826172 C14.301313400268555 16.66313934326172 14.26097297668457 16.582706451416016 14.160120010375977 16.582706451416016 M14.92710018157959 16.562660217285156 C14.997821807861328 16.4921875 15.05845832824707 16.461933135986328 15.149100303649902 16.461933135986328 C15.250078201293945 16.461933135986328 15.391271591186523 16.51223373413086 15.391271591186523 16.71343994140625 L15.391271591186523 17.125818252563477 L15.179481506347656 17.125818252563477 L15.179481506347656 16.723649978637695 C15.179481506347656 16.632884979248047 15.139139175415039 16.592790603637695 15.078502655029297 16.592790603637695 C15.027952194213867 16.592790603637695 14.987611770629883 16.622922897338867 14.92697525024414 16.703481674194336 L14.92697525024414 17.12594223022461 L14.72514533996582 17.12594223022461 L14.72514533996582 16.472015380859375 L14.92697525024414 16.472015380859375 L14.92697525024414 16.562660217285156 L14.92710018157959 16.562660217285156 L14.92710018157959 16.562660217285156 M16.289609909057617 17.08584976196289 C16.229097366333008 17.11598014831543 16.148292541503906 17.136150360107422 16.097990036010742 17.136150360107422 C16.02726936340332 17.136150360107422 15.997011184692383 17.11598014831543 15.97684097290039 17.0656795501709 C15.895910263061523 17.11598014831543 15.835273742675781 17.136150360107422 15.764801025390625 17.136150360107422 C15.653614044189453 17.136150360107422 15.572931289672852 17.0656795501709 15.572931289672852 16.975160598754883 C15.572931289672852 16.82413101196289 15.694079399108887 16.79399871826172 15.966630935668945 16.703481674194336 C15.97684097290039 16.643217086791992 15.94646167755127 16.592790603637695 15.85544490814209 16.592790603637695 C15.774762153625488 16.592790603637695 15.673785209655762 16.64309310913086 15.613273620605469 16.703481674194336 L15.613273620605469 16.53227996826172 C15.693954467773438 16.482227325439453 15.794933319091797 16.462055206298828 15.895910263061523 16.462055206298828 C16.067607879638672 16.462055206298828 16.17867088317871 16.512357711791992 16.17867088317871 16.653179168701172 L16.17867088317871 16.95499038696289 C16.17867088317871 16.98512077331543 16.18863296508789 17.005292892456055 16.208803176879883 17.005292892456055 C16.228973388671875 17.005292892456055 16.23918342590332 16.995330810546875 16.289485931396484 16.964950561523438 L16.289485931396484 17.08584976196289 L16.289609909057617 17.08584976196289 M15.966630935668945 16.81416893005371 C15.845483779907227 16.854263305664062 15.784972190856934 16.88439178466797 15.784972190856934 16.94502830505371 C15.784972190856934 16.98512077331543 15.815102577209473 17.0152530670166 15.85544490814209 17.0152530670166 C15.895785331726074 17.0152530670166 15.936126708984375 16.995330810546875 15.966630935668945 16.964950561523438 L15.966630935668945 16.81416893005371 L15.966630935668945 16.81416893005371 M16.441137313842773 16.150033950805664 L16.642969131469727 16.150033950805664 L16.642969131469727 17.12594223022461 L16.441137313842773 17.12594223022461 L16.441137313842773 16.150033950805664 M8.437029838562012 19.057710647583008 L8.174687385559082 19.057710647583008 L8.094005584716797 18.866586685180664 L7.659964084625244 18.866586685180664 L7.589242458343506 19.057710647583008 L7.326900482177734 19.057710647583008 L7.720600128173828 18.091764450073242 L8.0032377243042 18.091764450073242 L8.437029838562012 19.057710647583008 M7.871879577636719 18.323352813720703 L7.730561256408691 18.69538688659668 L8.023283958435059 18.69538688659668 L7.871879577636719 18.323352813720703 L7.871879577636719 18.323352813720703 M9.153707504272461 18.584823608398438 C9.06294059753418 18.534521102905273 8.982132911682129 18.514598846435547 8.9315824508667 18.514598846435547 C8.91141128540039 18.514598846435547 8.860984802246094 18.514598846435547 8.860984802246094 18.56490135192871 C8.860984802246094 18.63512420654297 9.194048881530762 18.64520835876465 9.194048881530762 18.856502532958984 C9.194048881530762 18.99732208251953 9.093070983886719 19.077756881713867 8.921497344970703 19.077756881713867 C8.810558319091797 19.077756881713867 8.709580421447754 19.03766441345215 8.679325103759766 19.0277042388916 L8.679325103759766 18.87667465209961 C8.749922752380371 18.90680503845215 8.82064437866211 18.936935424804688 8.901326179504395 18.936935424804688 C8.961837768554688 18.936935424804688 9.002304077148438 18.917015075683594 9.002304077148438 18.886634826660156 C9.002304077148438 18.79611587524414 8.66923999786377 18.806201934814453 8.66923999786377 18.59503173828125 C8.66923999786377 18.474132537841797 8.780302047729492 18.393699645996094 8.941667556762695 18.393699645996094 C9.02247428894043 18.393699645996094 9.082985877990723 18.403911590576172 9.153707504272461 18.444002151489258 L9.153707504272461 18.584823608398438 L9.153707504272461 18.584823608398438 M9.940982818603516 18.584823608398438 C9.850090026855469 18.534521102905273 9.759323120117188 18.514598846435547 9.718856811523438 18.514598846435547 C9.68860149383545 18.514598846435547 9.648260116577148 18.514598846435547 9.648260116577148 18.56490135192871 C9.648260116577148 18.63512420654297 9.971238136291504 18.64520835876465 9.971238136291504 18.856502532958984 C9.971238136291504 18.99732208251953 9.880346298217773 19.077756881713867 9.698686599731445 19.077756881713867 C9.597833633422852 19.077756881713867 9.496856689453125 19.03766441345215 9.46660041809082 19.0277042388916 L9.46660041809082 18.87667465209961 C9.53719711303711 18.90680503845215 9.597833633422852 18.936935424804688 9.678516387939453 18.936935424804688 C9.739027976989746 18.936935424804688 9.77949333190918 18.917015075683594 9.77949333190918 18.886634826660156 C9.77949333190918 18.79611587524414 9.456514358520508 18.806201934814453 9.456514358520508 18.59503173828125 C9.456514358520508 18.474132537841797 9.567578315734863 18.393699645996094 9.72894287109375 18.393699645996094 C9.809749603271484 18.393699645996094 9.870261192321777 18.403911590576172 9.940982818603516 18.444002151489258 L9.940982818603516 18.584823608398438 L9.940982818603516 18.584823608398438 M10.607110023498535 19.077756881713867 C10.395194053649902 19.077756881713867 10.233705520629883 18.936935424804688 10.233705520629883 18.73585319519043 C10.233705520629883 18.5043888092041 10.415365219116211 18.393699645996094 10.607110023498535 18.393699645996094 C10.768598556518555 18.393699645996094 10.980639457702637 18.484466552734375 10.980639457702637 18.73585319519043 C10.980514526367188 18.99720001220703 10.758513450622559 19.077756881713867 10.607110023498535 19.077756881713867 M10.607110023498535 18.514474868774414 C10.516342163085938 18.514474868774414 10.455705642700195 18.584697723388672 10.455705642700195 18.735729217529297 C10.455705642700195 18.896718978881836 10.526302337646484 18.947021484375 10.607110023498535 18.947021484375 C10.708086967468262 18.947021484375 10.758513450622559 18.876548767089844 10.758513450622559 18.72551727294922 C10.758513450622559 18.59503173828125 10.718172073364258 18.514474868774414 10.607110023498535 18.514474868774414 M11.868766784667969 19.02758026123047 C11.788084983825684 19.057710647583008 11.717363357543945 19.077632904052734 11.646641731262207 19.077632904052734 C11.414555549621582 19.077632904052734 11.263151168823242 18.936811447143555 11.263151168823242 18.735729217529297 C11.263151168823242 18.534395217895508 11.414555549621582 18.39357566833496 11.636556625366211 18.39357566833496 C11.70727825164795 18.39357566833496 11.787960052490234 18.403785705566406 11.858680725097656 18.433917999267578 L11.858680725097656 18.584697723388672 C11.808130264282227 18.5545654296875 11.737533569335938 18.544605255126953 11.68710708618164 18.544605255126953 C11.565958976745605 18.544605255126953 11.485152244567871 18.614830017089844 11.485152244567871 18.735729217529297 C11.485152244567871 18.846418380737305 11.565834999084473 18.926851272583008 11.68710708618164 18.926851272583008 C11.727448463439941 18.926851272583008 11.777874946594238 18.916889190673828 11.868766784667969 18.876548767089844 L11.868766784667969 19.02758026123047 M12.181783676147461 18.403911590576172 L12.393575668334961 18.403911590576172 L12.393575668334961 19.05783462524414 L12.181783676147461 19.05783462524414 L12.181783676147461 18.403911590576172 M12.403785705566406 18.192493438720703 C12.403785705566406 18.25275421142578 12.35323429107666 18.303180694580078 12.282637596130371 18.303180694580078 A0.11205876618623734 0.11205876618623734 0.0 0 1 12.171449661254883 18.192493438720703 C12.171449661254883 18.122018814086914 12.222001075744629 18.07159423828125 12.282637596130371 18.07159423828125 C12.35323429107666 18.071718215942383 12.403785705566406 18.122018814086914 12.403785705566406 18.192493438720703 M13.413061141967773 19.017370223999023 C13.35254955291748 19.047500610351562 13.271742820739746 19.077632904052734 13.221441268920898 19.077632904052734 C13.15071964263916 19.077632904052734 13.120463371276855 19.057710647583008 13.100292205810547 18.99720001220703 C13.019610404968262 19.057710647583008 12.958974838256836 19.077632904052734 12.888253211975098 19.077632904052734 C12.777066230773926 19.077632904052734 12.696383476257324 18.99720001220703 12.696383476257324 18.916889190673828 C12.696383476257324 18.75589942932129 12.81753158569336 18.72551727294922 13.090083122253418 18.635000228881836 C13.100292205810547 18.574737548828125 13.069912910461426 18.524311065673828 12.979144096374512 18.524311065673828 C12.898462295532227 18.524311065673828 12.797235488891602 18.574613571166992 12.736723899841309 18.635000228881836 L12.736723899841309 18.474008560180664 C12.81740665435791 18.413745880126953 12.918632507324219 18.39357566833496 13.019486427307129 18.39357566833496 C13.190936088562012 18.39357566833496 13.302123069763184 18.443878173828125 13.302123069763184 18.594907760620117 L13.302123069763184 18.88650894165039 C13.302123069763184 18.926851272583008 13.312084197998047 18.936811447143555 13.332254409790039 18.936811447143555 C13.352424621582031 18.936811447143555 13.362634658813477 18.936811447143555 13.412936210632324 18.896718978881836 L13.412936210632324 19.017370223999023 L13.413061141967773 19.017370223999023 M13.090083122253418 18.74581527709961 C12.968935012817383 18.78615379333496 12.90842342376709 18.816286087036133 12.90842342376709 18.87667465209961 C12.90842342376709 18.917015075683594 12.938803672790527 18.947145462036133 12.979144096374512 18.947145462036133 C13.019486427307129 18.947145462036133 13.059826850891113 18.936935424804688 13.090083122253418 18.8968448638916 L13.090083122253418 18.74581527709961 M14.149909973144531 18.544605255126953 L13.907737731933594 18.544605255126953 L13.907737731933594 18.816286087036133 C13.907737731933594 18.876548767089844 13.937870025634766 18.917015075683594 14.008716583251953 18.917015075683594 C14.049057006835938 18.917015075683594 14.089397430419922 18.90680503845215 14.15003490447998 18.886634826660156 L14.15003490447998 19.03766441345215 C14.069352149963379 19.06779670715332 14.018925666809082 19.077756881713867 13.958165168762207 19.077756881713867 C13.817095756530762 19.077756881713867 13.695822715759277 19.007532119750977 13.695822715759277 18.826248168945312 L13.695822715759277 18.544605255126953 L13.60505485534668 18.544605255126953 L13.60505485534668 18.50426483154297 L13.877607345581055 18.192493438720703 L13.907737731933594 18.192493438720703 L13.907737731933594 18.403785705566406 L14.149909973144531 18.403785705566406 L14.149909973144531 18.544605255126953 L14.149909973144531 18.544605255126953 M14.432422637939453 18.403911590576172 L14.63425350189209 18.403911590576172 L14.63425350189209 19.05783462524414 L14.432422637939453 19.05783462524414 L14.432422637939453 18.403911590576172 M14.644462585449219 18.192493438720703 C14.644462585449219 18.25275421142578 14.593911170959473 18.303180694580078 14.533275604248047 18.303180694580078 C14.472639083862305 18.303180694580078 14.412127494812012 18.252880096435547 14.412127494812012 18.192493438720703 C14.412127494812012 18.122018814086914 14.472639083862305 18.07159423828125 14.533275604248047 18.07159423828125 C14.593911170959473 18.07159423828125 14.644462585449219 18.122018814086914 14.644462585449219 18.192493438720703 M15.320799827575684 19.077756881713867 C15.108759880065918 19.077756881713867 14.947271347045898 18.936935424804688 14.947271347045898 18.73585319519043 C14.947271347045898 18.5043888092041 15.128931045532227 18.393699645996094 15.320799827575684 18.393699645996094 C15.482288360595703 18.393699645996094 15.694079399108887 18.484466552734375 15.694079399108887 18.73585319519043 C15.694079399108887 18.99720001220703 15.472079277038574 19.077756881713867 15.320799827575684 19.077756881713867 M15.320799827575684 18.514474868774414 C15.229907989501953 18.514474868774414 15.169271469116211 18.584697723388672 15.169271469116211 18.735729217529297 C15.169271469116211 18.896718978881836 15.249954223632812 18.947021484375 15.320799827575684 18.947021484375 C15.42177677154541 18.947021484375 15.472079277038574 18.876548767089844 15.472079277038574 18.72551727294922 C15.472079277038574 18.59503173828125 15.43161392211914 18.514474868774414 15.320799827575684 18.514474868774414 M16.19896697998047 18.494304656982422 C16.259477615356445 18.423830032348633 16.330074310302734 18.39357566833496 16.410757064819336 18.39357566833496 C16.511734008789062 18.39357566833496 16.652929306030273 18.453838348388672 16.652929306030273 18.645084381103516 L16.652929306030273 19.057710647583008 L16.441137313842773 19.057710647583008 L16.441137313842773 18.66525650024414 C16.441137313842773 18.564775466918945 16.400798797607422 18.524436950683594 16.340160369873047 18.524436950683594 C16.289609909057617 18.524436950683594 16.249267578125 18.5545654296875 16.198841094970703 18.63512420654297 L16.198841094970703 19.05783462524414 L15.986801147460938 19.05783462524414 L15.986801147460938 18.403911590576172 L16.198841094970703 18.403911590576172 L16.198841094970703 18.494304656982422 L16.19896697998047 18.494304656982422 L16.19896697998047 18.494304656982422 M7.750731468200684 21.009525299072266 C7.538815975189209 21.009525299072266 7.37720251083374 20.868703842163086 7.37720251083374 20.667373657226562 C7.37720251083374 20.446117401123047 7.558862209320068 20.325469970703125 7.750731468200684 20.325469970703125 C7.9122209548950195 20.325469970703125 8.124260902404785 20.415985107421875 8.124260902404785 20.667373657226562 C8.124260902404785 20.929092407226562 7.902135372161865 21.009525299072266 7.750731468200684 21.009525299072266 M7.750731468200684 20.446117401123047 C7.659964084625244 20.446117401123047 7.59932804107666 20.516592025756836 7.59932804107666 20.667373657226562 C7.59932804107666 20.83832550048828 7.670049667358398 20.888626098632812 7.750731468200684 20.888626098632812 C7.851709365844727 20.888626098632812 7.902135372161865 20.80819320678711 7.902135372161865 20.657413482666016 C7.902135372161865 20.53651237487793 7.8617939949035645 20.446117401123047 7.750731468200684 20.446117401123047 L7.750731468200684 20.446117401123047 M8.709580421447754 20.335430145263672 L8.709580421447754 20.47624969482422 L8.618813514709473 20.47624969482422 L8.618813514709473 20.999317169189453 L8.40677261352539 20.999317169189453 L8.40677261352539 20.47624969482422 L8.31600570678711 20.47624969482422 L8.31600570678711 20.335430145263672 L8.40677261352539 20.335430145263672 L8.40677261352539 20.3052978515625 C8.40677261352539 20.11417579650879 8.527920722961426 20.013446807861328 8.699496269226074 20.013446807861328 C8.739837646484375 20.013446807861328 8.790263175964355 20.013446807861328 8.82064437866211 20.023406982421875 L8.82064437866211 20.184398651123047 L8.729875564575195 20.184398651123047 C8.669364929199219 20.184398651123047 8.618813514709473 20.20456886291504 8.618813514709473 20.295089721679688 L8.618813514709473 20.335430145263672 L8.709580421447754 20.335430145263672 L8.709580421447754 20.335430145263672 M9.98144817352295 21.009525299072266 C9.618128776550293 21.009525299072266 9.416173934936523 20.758014678955078 9.416173934936523 20.50638198852539 C9.416173934936523 20.275165557861328 9.608043670654297 20.013446807861328 9.98144817352295 20.013446807861328 C10.344767570495605 20.013446807861328 10.53651237487793 20.275165557861328 10.53651237487793 20.50638198852539 C10.53651237487793 20.758140563964844 10.324472427368164 21.009525299072266 9.98144817352295 21.009525299072266 M9.98144817352295 20.214656829833984 C9.789578437805176 20.214656829833984 9.66843032836914 20.325592041015625 9.66843032836914 20.506505966186523 C9.66843032836914 20.687667846679688 9.789578437805176 20.808317184448242 9.98144817352295 20.808317184448242 C10.163107872009277 20.808317184448242 10.284255981445312 20.687667846679688 10.284255981445312 20.506505966186523 C10.284131050109863 20.325469970703125 10.163107872009277 20.214656829833984 9.98144817352295 20.214656829833984 M10.808939933776855 20.335430145263672 L11.020855903625488 20.335430145263672 L11.020855903625488 20.999317169189453 L10.808939933776855 20.999317169189453 L10.808939933776855 20.335430145263672 M11.031064987182617 20.124135971069336 C11.031064987182617 20.184398651123047 10.970553398132324 20.234825134277344 10.909917831420898 20.234825134277344 C10.849281311035156 20.234825134277344 10.79885482788086 20.184524536132812 10.79885482788086 20.124135971069336 C10.79885482788086 20.063749313354492 10.849281311035156 20.013446807861328 10.909917831420898 20.013446807861328 C10.970553398132324 20.013446807861328 11.031064987182617 20.063873291015625 11.031064987182617 20.124135971069336 M11.313702583312988 20.023406982421875 L11.515532493591309 20.023406982421875 L11.515532493591309 20.999317169189453 L11.313702583312988 20.999317169189453 L11.313702583312988 20.023406982421875 M13.271742820739746 20.4862117767334 C13.221441268920898 20.617069244384766 13.16080379486084 20.707714080810547 13.080121994018555 20.778060913085938 L13.271742820739746 20.999317169189453 L12.979144096374512 20.999317169189453 L12.90842342376709 20.918880462646484 C12.807445526123047 20.979393005371094 12.716554641723633 21.0096492767334 12.605615615844727 21.0096492767334 C12.423955917358398 21.0096492767334 12.292597770690918 20.89896011352539 12.292597770690918 20.747928619384766 C12.292597770690918 20.63724136352539 12.363319396972656 20.556808471679688 12.514598846435547 20.47624969482422 C12.454087257385254 20.395816802978516 12.42383098602295 20.335430145263672 12.42383098602295 20.264957427978516 C12.42383098602295 20.11417579650879 12.544979095458984 20.013446807861328 12.726638793945312 20.013446807861328 C12.888128280639648 20.013446807861328 12.999191284179688 20.103965759277344 12.999191284179688 20.244911193847656 C12.999191284179688 20.335430145263672 12.938678741455078 20.415863037109375 12.817282676696777 20.4862117767334 L12.958849906921387 20.647201538085938 C12.999191284179688 20.597148895263672 13.039531707763672 20.546722412109375 13.069787979125977 20.4862117767334 L13.271742820739746 20.4862117767334 L13.271742820739746 20.4862117767334 M12.81740665435791 20.254995346069336 C12.81740665435791 20.204694747924805 12.777066230773926 20.174562454223633 12.726638793945312 20.174562454223633 C12.66612720489502 20.174562454223633 12.635746955871582 20.204694747924805 12.635746955871582 20.245037078857422 C12.635746955871582 20.275165557861328 12.66612720489502 20.335554122924805 12.716429710388184 20.375646591186523 C12.787275314331055 20.335430145263672 12.81740665435791 20.295089721679688 12.81740665435791 20.254995346069336 L12.81740665435791 20.254995346069336 M12.625785827636719 20.597148895263672 C12.55506420135498 20.647201538085938 12.524808883666992 20.687667846679688 12.524808883666992 20.727760314941406 C12.524808883666992 20.798233032226562 12.575111389160156 20.84865951538086 12.645956993103027 20.84865951538086 C12.686297416687012 20.84865951538086 12.746933937072754 20.828487396240234 12.797235488891602 20.78839683532715 L12.625785827636719 20.597148895263672 M14.97765064239502 20.3052978515625 C14.856253623962402 20.245037078857422 14.735230445861816 20.21453094482422 14.614082336425781 20.21453094482422 C14.351739883422852 20.21453094482422 14.250762939453125 20.37552261352539 14.250762939453125 20.516592025756836 C14.250762939453125 20.687541961669922 14.392081260681152 20.80819320678711 14.593911170959473 20.80819320678711 C14.654422760009766 20.80819320678711 14.68480396270752 20.798233032226562 14.755401611328125 20.76810073852539 L14.755401611328125 20.657413482666016 L14.614082336425781 20.657413482666016 L14.614082336425781 20.47624969482422 L14.997821807861328 20.47624969482422 L14.997821807861328 20.878665924072266 C14.92710018157959 20.949138641357422 14.745440483093262 21.009525299072266 14.58395004272461 21.009525299072266 C14.250762939453125 21.009525299072266 14.008591651916504 20.798233032226562 14.008591651916504 20.50638198852539 C14.008591651916504 20.21453094482422 14.240801811218262 20.013446807861328 14.593911170959473 20.013446807861328 C14.735230445861816 20.013446807861328 14.876548767089844 20.0435791015625 14.97765064239502 20.083919525146484 L14.97765064239502 20.3052978515625 L14.97765064239502 20.3052978515625 M15.97684097290039 20.949262619018555 C15.916080474853516 20.979393005371094 15.835273742675781 21.009525299072266 15.784972190856934 21.009525299072266 C15.714250564575195 21.009525299072266 15.683995246887207 20.989355087280273 15.663824081420898 20.929092407226562 C15.583141326904297 20.989355087280273 15.522504806518555 21.009525299072266 15.451784133911133 21.009525299072266 C15.340845108032227 21.009525299072266 15.260162353515625 20.929092407226562 15.260162353515625 20.848535537719727 C15.260162353515625 20.687541961669922 15.381311416625977 20.657413482666016 15.653614044189453 20.576854705810547 C15.663824081420898 20.50638198852539 15.633443832397461 20.466163635253906 15.542675971984863 20.466163635253906 C15.461993217468262 20.466163635253906 15.361016273498535 20.506256103515625 15.300504684448242 20.576854705810547 L15.300504684448242 20.405902862548828 A0.543734073638916 0.543734073638916 0.0 0 1 15.583141326904297 20.325469970703125 C15.75459098815918 20.325469970703125 15.865778923034668 20.37552261352539 15.865778923034668 20.52655029296875 L15.865778923034668 20.828365325927734 C15.865778923034668 20.85849380493164 15.875739097595215 20.868703842163086 15.895910263061523 20.868703842163086 C15.916080474853516 20.868703842163086 15.926290512084961 20.868703842163086 15.97684097290039 20.828365325927734 L15.97684097290039 20.949262619018555 L15.97684097290039 20.949262619018555 M15.653738021850586 20.677581787109375 C15.532590866088867 20.717674255371094 15.472079277038574 20.747806549072266 15.472079277038574 20.818403244018555 C15.472079277038574 20.85849380493164 15.502459526062012 20.888626098632812 15.542800903320312 20.888626098632812 C15.583141326904297 20.888626098632812 15.623483657836914 20.868703842163086 15.653738021850586 20.83832550048828 L15.653738021850586 20.677581787109375 M16.63275909423828 20.516592025756836 C16.541990280151367 20.466289520263672 16.451099395751953 20.446117401123047 16.410757064819336 20.446117401123047 C16.380626678466797 20.446117401123047 16.340286254882812 20.456079483032227 16.340286254882812 20.496421813964844 C16.340286254882812 20.56664276123047 16.66326332092285 20.576854705810547 16.66326332092285 20.798233032226562 C16.66326332092285 20.929092407226562 16.562286376953125 21.009525299072266 16.39071273803711 21.009525299072266 C16.28973388671875 21.009525299072266 16.188880920410156 20.979393005371094 16.158750534057617 20.959224700927734 L16.158750534057617 20.818403244018555 C16.229223251342773 20.83832550048828 16.289859771728516 20.868703842163086 16.370540618896484 20.868703842163086 C16.431053161621094 20.868703842163086 16.471519470214844 20.848535537719727 16.471519470214844 20.818403244018555 C16.471519470214844 20.72763442993164 16.148540496826172 20.73797035217285 16.148540496826172 20.52655029296875 C16.148540496826172 20.405902862548828 16.259727478027344 20.325469970703125 16.421092987060547 20.325469970703125 C16.501773834228516 20.325469970703125 16.562410354614258 20.335430145263672 16.632884979248047 20.37552261352539 L16.632884979248047 20.516592025756836 L16.63275909423828 20.516592025756836 M7.881965160369873 21.95530128479004 C8.103965759277344 21.95530128479004 8.204943656921387 22.106082916259766 8.204943656921387 22.246902465820312 C8.204943656921387 22.377763748168945 8.103965759277344 22.538753509521484 7.881965160369873 22.538753509521484 L7.6900954246521 22.538753509521484 L7.6900954246521 22.931209564208984 L7.4477996826171875 22.931209564208984 L7.4477996826171875 21.95530128479004 L7.881965160369873 21.95530128479004 M7.690219879150391 22.357715606689453 L7.8012824058532715 22.357715606689453 C7.9123454093933105 22.357715606689453 7.952686786651611 22.31737518310547 7.952686786651611 22.246780395507812 C7.952686786651611 22.16646957397461 7.902259826660156 22.136089324951172 7.771026611328125 22.136089324951172 L7.690344333648682 22.136089324951172 L7.690344333648682 22.357715606689453 L7.690219879150391 22.357715606689453 M8.881155967712402 22.45819664001465 C8.941667556762695 22.31737518310547 9.012389183044434 22.257112503051758 9.093194961547852 22.257112503051758 C9.133537292480469 22.257112503051758 9.173877716064453 22.27728271484375 9.234514236450195 22.31737518310547 L9.174002647399902 22.498538970947266 C9.123576164245605 22.468406677246094 9.083234786987305 22.44823455810547 9.052854537963867 22.44823455810547 C8.972047805786133 22.44823455810547 8.921621322631836 22.518707275390625 8.881280899047852 22.64931869506836 L8.881280899047852 22.931209564208984 L8.669364929199219 22.931209564208984 L8.669364929199219 22.267074584960938 L8.881280899047852 22.267074584960938 L8.881280899047852 22.45819664001465 L8.881155967712402 22.45819664001465 L8.881155967712402 22.45819664001465 M9.961153030395508 22.94116973876953 C9.749113082885742 22.94116973876953 9.587623596191406 22.81031036376953 9.587623596191406 22.599016189575195 C9.587623596191406 22.377763748168945 9.769283294677734 22.257112503051758 9.961153030395508 22.257112503051758 C10.122642517089844 22.257112503051758 10.33455753326416 22.347631454467773 10.33455753326416 22.599016189575195 C10.33455753326416 22.860610961914062 10.112557411193848 22.94116973876953 9.961153030395508 22.94116973876953 M9.961153030395508 22.377763748168945 C9.870261192321777 22.377763748168945 9.809749603271484 22.44823455810547 9.809749603271484 22.599016189575195 C9.809749603271484 22.770217895507812 9.89043140411377 22.820520401000977 9.961153030395508 22.820520401000977 C10.06213092803955 22.820520401000977 10.112432479858398 22.74008560180664 10.112432479858398 22.599016189575195 C10.112557411193848 22.468406677246094 10.07221508026123 22.377763748168945 9.961153030395508 22.377763748168945 M11.454896926879883 22.931209564208984 L11.24298095703125 22.931209564208984 L11.24298095703125 22.870946884155273 C11.18246841430664 22.920997619628906 11.131917953491211 22.94116973876953 11.061321258544922 22.94116973876953 C10.88974666595459 22.94116973876953 10.758513450622559 22.800350189208984 10.758513450622559 22.599016189575195 C10.758513450622559 22.397933959960938 10.88974666595459 22.257112503051758 11.071406364440918 22.257112503051758 C11.13204288482666 22.257112503051758 11.192554473876953 22.267074584960938 11.24298095703125 22.297204971313477 L11.24298095703125 21.95530128479004 L11.454896926879883 21.95530128479004 L11.454896926879883 22.931209564208984 L11.454896926879883 22.931209564208984 M11.24298095703125 22.438274383544922 C11.212724685668945 22.418102264404297 11.172384262084961 22.397933959960938 11.131917953491211 22.397933959960938 C11.020855903625488 22.397933959960938 10.960344314575195 22.468406677246094 10.960344314575195 22.599016189575195 C10.960344314575195 22.71991729736328 11.020855903625488 22.800350189208984 11.121832847595215 22.800350189208984 C11.172260284423828 22.800350189208984 11.202515602111816 22.790388107299805 11.24298095703125 22.750045776367188 L11.24298095703125 22.438274383544922 M12.393575668334961 22.830482482910156 C12.333064079284668 22.91091537475586 12.262466430664062 22.94116973876953 12.181783676147461 22.94116973876953 C12.05055046081543 22.94116973876953 11.939488410949707 22.860736846923828 11.939488410949707 22.689659118652344 L11.939488410949707 22.266948699951172 L12.15140438079834 22.266948699951172 L12.15140438079834 22.679574966430664 C12.15140438079834 22.77009391784668 12.20195484161377 22.80022430419922 12.252381324768066 22.80022430419922 C12.31289291381836 22.80022430419922 12.373529434204102 22.749923706054688 12.393699645996094 22.689537048339844 L12.393699645996094 22.26682472229004 L12.60573959350586 22.26682472229004 L12.60573959350586 22.930959701538086 L12.393699645996094 22.930959701538086 L12.393699645996094 22.830482482910156 L12.393575668334961 22.830482482910156 L12.393575668334961 22.830482482910156 M13.66544246673584 22.901077270507812 A0.613085925579071 0.613085925579071 0.0 0 1 13.443441390991211 22.94116973876953 C13.211231231689453 22.94116973876953 13.059951782226562 22.81031036376953 13.059951782226562 22.599016189575195 C13.059951782226562 22.397933959960938 13.211231231689453 22.257112503051758 13.433231353759766 22.257112503051758 C13.50395393371582 22.257112503051758 13.584760665893555 22.27728271484375 13.655232429504395 22.297204971313477 L13.655232429504395 22.45819664001465 C13.604930877685547 22.428064346313477 13.53408432006836 22.407894134521484 13.483782768249512 22.407894134521484 C13.362634658813477 22.407894134521484 13.281952857971191 22.488327026367188 13.281952857971191 22.599016189575195 C13.281952857971191 22.71991729736328 13.362634658813477 22.790388107299805 13.483782768249512 22.790388107299805 C13.53408432006836 22.790388107299805 13.57455062866211 22.78017807006836 13.66544246673584 22.750045776367188 L13.66544246673584 22.901077270507812 L13.66544246673584 22.901077270507812 M14.765609741210938 22.850650787353516 C14.644462585449219 22.94116973876953 14.523438453674316 22.94116973876953 14.472763061523438 22.94116973876953 C14.240801811218262 22.94116973876953 14.089273452758789 22.81031036376953 14.089273452758789 22.599016189575195 C14.089273452758789 22.397933959960938 14.230592727661133 22.257112503051758 14.432422637939453 22.257112503051758 C14.624292373657227 22.257112503051758 14.785780906677246 22.397933959960938 14.7755708694458 22.629398345947266 L14.301313400268555 22.629398345947266 C14.311274528503418 22.750045776367188 14.392081260681152 22.820520401000977 14.523314476013184 22.820520401000977 C14.603997230529785 22.820520401000977 14.664632797241211 22.790388107299805 14.765485763549805 22.719791412353516 L14.765485763549805 22.850650787353516 L14.765609741210938 22.850650787353516 M14.593911170959473 22.528667449951172 C14.58395004272461 22.43815040588379 14.53339958190918 22.37763786315918 14.452592849731445 22.37763786315918 C14.371786117553711 22.37763786315918 14.311274528503418 22.43815040588379 14.301313400268555 22.528667449951172 L14.593911170959473 22.528667449951172 L14.593911170959473 22.528667449951172 M15.441823959350586 22.45819664001465 C15.502335548400879 22.31737518310547 15.572931289672852 22.257112503051758 15.653614044189453 22.257112503051758 C15.693954467773438 22.257112503051758 15.724335670471191 22.27728271484375 15.784972190856934 22.31737518310547 L15.734420776367188 22.498538970947266 C15.673909187316895 22.468406677246094 15.64365291595459 22.44823455810547 15.613273620605469 22.44823455810547 C15.532590866088867 22.44823455810547 15.48216438293457 22.518707275390625 15.441823959350586 22.64931869506836 L15.441823959350586 22.931209564208984 L15.229783058166504 22.931209564208984 L15.229783058166504 22.267074584960938 L15.441823959350586 22.267074584960938 L15.441823959350586 22.45819664001465 L15.441823959350586 22.45819664001465 M16.63275909423828 22.44823455810547 C16.541990280151367 22.397933959960938 16.4613094329834 22.377763748168945 16.410757064819336 22.377763748168945 C16.390588760375977 22.377763748168945 16.340286254882812 22.38797378540039 16.340286254882812 22.428064346313477 C16.340286254882812 22.50849723815918 16.6732234954834 22.50849723815918 16.6732234954834 22.729875564575195 C16.6732234954834 22.860736846923828 16.572248458862305 22.94116973876953 16.400798797607422 22.94116973876953 C16.289609909057617 22.94116973876953 16.188756942749023 22.91103744506836 16.158626556396484 22.890869140625 L16.158626556396484 22.750045776367188 C16.229097366333008 22.78017807006836 16.299943923950195 22.800350189208984 16.380626678466797 22.800350189208984 C16.441137313842773 22.800350189208984 16.481603622436523 22.78017807006836 16.481603622436523 22.750045776367188 C16.481603622436523 22.659528732299805 16.148414611816406 22.679824829101562 16.148414611816406 22.45819664001465 C16.148414611816406 22.337547302246094 16.25960350036621 22.257112503051758 16.42096710205078 22.257112503051758 C16.501651763916016 22.257112503051758 16.562286376953125 22.267074584960938 16.63275909423828 22.307415008544922 L16.63275909423828 22.44823455810547 L16.63275909423828 22.44823455810547" fill="black" fill-opacity="1.0" filling="0"/></svg>