<?xml version="1.0" encoding="iso-8859-1"?><svg height="200px" viewBox="0.0 0.0 24.0 24.0" width="200px" xmlns="http://www.w3.org/2000/svg"><path animation_id="0" d="M12.133116722106934 23.92593765258789 A0.5266433954238892 0.5266433954238892 0.0 0 1 11.659165382385254 23.630992889404297 A0.5002971887588501 0.5002971887588501 0.0 0 1 11.70653247833252 23.104347229003906 L17.31023597717285 15.388840675354004 L7.498617649078369 19.396730422973633 A0.5398164987564087 0.5398164987564087 0.0 0 1 7.287940979003906 19.441482543945312 A0.5266433954238892 0.5266433954238892 0.0 0 1 6.784934997558594 19.06226348876953 A0.5056225061416626 0.5056225061416626 0.0 0 1 7.000842571258545 18.485637664794922 L15.630151748657227 13.390174865722656 L0.4360647201538086 12.515985488891602 A0.5266433954238892 0.5266433954238892 0.0 0 1 0.4360647201538086 11.478394508361816 L15.638092994689941 10.606727600097656 L7.006167888641357 5.51145076751709 A0.5056225061416626 0.5056225061416626 0.0 0 1 6.790259838104248 4.9347310066223145 A0.5266433954238892 0.5266433954238892 0.0 0 1 7.290556907653809 4.555514335632324 C7.363429069519043 4.555234432220459 7.435367584228516 4.571396827697754 7.5012335777282715 4.602881908416748 L17.315467834472656 8.616003036499023 L11.711764335632324 0.9032049179077148 A0.5002971887588501 0.5002971887588501 0.0 0 1 11.664397239685059 0.3764677047729492 A0.5266433954238892 0.5266433954238892 0.0 0 1 12.135825157165527 0.07367324829101562 C12.27409553527832 0.07460784912109375 12.406200408935547 0.13159847259521484 12.501776695251465 0.2316570281982422 L23.669567108154297 11.396926879882812 A0.8479360342025757 0.8479360342025757 0.0 0 1 23.669567108154297 12.595024108886719 L12.49654483795166 23.77328109741211 A0.5084252953529358 0.5084252953529358 0.0 0 1 12.133116722106934 23.92593765258789" fill="black" fill-opacity="1.0" filling="0"/></svg>