<?xml version="1.0" encoding="iso-8859-1"?><svg height="200px" viewBox="0.0 0.0 24.0 24.0" width="200px" xmlns="http://www.w3.org/2000/svg"><path animation_id="0" d="M0.0 0.0 L24.0 0.0 L24.0 24.0 L0.0 24.0 L0.0 0.0" fill="black" fill-opacity="1.0" filling="0"/>
<path animation_id="1" d="M6.886509418487549 9.176990509033203 C6.488700866699219 9.243354797363281 6.107451915740967 9.309593200683594 5.726203441619873 9.39251708984375 C5.726203441619873 11.083234786987305 5.709643363952637 12.69102954864502 5.726203441619873 14.365062713623047 C6.190375328063965 14.28213882446289 6.621179580688477 14.19921588897705 7.06879186630249 14.116540908813477 L7.06879186630249 9.143871307373047 C7.002552509307861 9.143871307373047 6.952748775482178 9.160430908203125 6.886509418487549 9.176990509033203" fill="black" fill-opacity="1.0" filling="0"/>
<path animation_id="2" d="M5.9086103439331055 14.149660110473633 C6.240179538726807 14.083297729492188 6.555064678192139 14.017183303833008 6.886509418487549 13.967254638671875 L6.886509418487549 9.359397888183594 C6.554940223693848 9.425762176513672 6.240055084228516 9.47544002532959 5.9086103439331055 9.541680335998535 L5.9086103439331055 14.149660110473633" fill="black" fill-opacity="1.0" filling="0"/>
<path animation_id="3" d="M8.245657920837402 8.9781494140625 L8.195978164672852 8.9781494140625 C7.79817008972168 9.027828216552734 7.549648284912109 9.25991439819336 7.483160495758057 9.624479293823242 C7.483160495758057 9.657723426818848 7.46660041809082 9.690842628479004 7.46660041809082 9.740522384643555 L7.46660041809082 9.72396183013916 C7.450040340423584 9.806885719299316 7.433356285095215 10.10521125793457 7.433356285095215 10.38697624206543 C7.433356285095215 10.602378845214844 7.450040340423584 10.801344871520996 7.483035564422607 10.917387962341309 C7.66544246673584 11.36500072479248 8.030132293701172 11.464484214782715 8.345016479492188 11.530723571777344 C8.361576080322266 11.530723571777344 8.378260612487793 11.530723571777344 8.378260612487793 11.547282218933105 L8.394820213317871 11.547282218933105 C8.394820213317871 12.0278902053833 8.411380767822266 12.49206256866455 8.411380767822266 12.989354133605957 C8.113055229187012 13.02247428894043 7.831289291381836 13.055718421936035 7.549523830413818 13.10539722442627 L7.549523830413818 14.033617973327637 C7.980452060699463 13.967254638671875 8.394820213317871 13.917574882507324 8.842308044433594 13.867770195007324 C9.289920806884766 13.801655769348145 9.604805946350098 13.569445610046387 9.737409591674805 13.204880714416504 C9.753968238830566 13.15507698059082 9.770528793334961 13.121957778930664 9.770528793334961 13.072402000427246 L9.770528793334961 13.055843353271484 L9.770528793334961 13.02247428894043 L9.770528793334961 12.956358909606934 L9.770528793334961 12.889995574951172 L9.770528793334961 12.857001304626465 L9.770528793334961 11.91209602355957 C9.770528793334961 11.431364059448242 9.770528793334961 11.149598121643066 9.753968238830566 11.016996383666992 C9.753968238830566 10.851273536682129 9.671045303344727 10.718669891357422 9.521883010864258 10.619187355041504 C9.472203254699707 10.569507598876953 9.422524452209473 10.536263465881348 9.339600563049316 10.503144264221191 C9.273361206054688 10.486583709716797 9.223557472229004 10.45346450805664 9.157318115234375 10.436904907226562 C9.140758514404297 10.436904907226562 9.140758514404297 10.436904907226562 9.140758514404297 10.420345306396484 C8.8755521774292 10.32086181640625 8.709830284118652 10.254498481750488 8.709830284118652 10.039095878601074 L8.709830284118652 9.939613342285156 C8.92523193359375 9.906494140625 9.140758514404297 9.889933586120605 9.356284141540527 9.873373031616211 C9.604930877685547 9.840253829956055 9.770652770996094 9.724210739135742 9.886695861816406 9.508685111999512 C9.953060150146484 9.376081466674805 9.98617935180664 9.243478775024414 9.98617935180664 9.210359573364258 L9.98617935180664 9.193799018859863 L9.98617935180664 9.094316482543945 L9.98617935180664 8.978273391723633 C9.98617935180664 8.911909103393555 9.969619750976562 8.86223030090332 9.969619750976562 8.795989990234375 C9.919939994812012 8.81255054473877 9.870137214660645 8.81255054473877 9.803772926330566 8.81255054473877 C9.173877716064453 8.862106323242188 8.411380767822266 8.944905281066895 8.245657920837402 8.9781494140625 L8.245657920837402 8.9781494140625" fill="black" fill-opacity="1.0" filling="0"/>
<path animation_id="4" d="M8.195978164672852 9.160430908203125 C7.897653102874756 9.210110664367676 7.7153706550598145 9.359272956848145 7.665567398071289 9.624479293823242 C7.6490068435668945 9.674158096313477 7.6490068435668945 9.707401275634766 7.6490068435668945 9.707401275634766 C7.6490068435668945 9.72396183013916 7.582643508911133 10.585943222045898 7.665567398071289 10.81790542602539 C7.79817008972168 11.165909767150879 8.063375473022461 11.282076835632324 8.411380767822266 11.348316192626953 C8.428065299987793 11.348316192626953 8.4610595703125 11.348316192626953 8.494303703308105 11.364875793457031 C8.527423858642578 11.381436347961426 8.560543060302734 11.381436347961426 8.593788146972656 11.43111515045166 L8.593788146972656 13.154828071594238 C8.31202220916748 13.188196182250977 8.030256271362305 13.22119140625 7.73180627822876 13.271120071411133 L7.73180627822876 13.818092346191406 C8.113055229187012 13.768287658691406 8.444623947143555 13.718607902526855 8.825873374938965 13.685613632202148 C9.157318115234375 13.635808944702148 9.455768585205078 13.469962120056152 9.555126190185547 13.154953002929688 C9.571686744689941 13.121832847595215 9.571686744689941 13.088838577270508 9.588247299194336 13.088838577270508 C9.571686744689941 13.072278022766113 9.571686744689941 13.055718421936035 9.571686744689941 13.039033889770508 C9.588247299194336 13.005914688110352 9.588247299194336 12.972919464111328 9.588247299194336 12.93955135345459 C9.588247299194336 12.93955135345459 9.588247299194336 11.398119926452637 9.571686744689941 11.050115585327148 C9.555126190185547 10.917511940002441 9.505447387695312 10.85114860534668 9.405963897705078 10.76822566986084 C9.356284141540527 10.735105514526367 9.30648136138916 10.701986312866211 9.240241050720215 10.685426712036133 C9.173877716064453 10.652182579040527 9.10763931274414 10.635746955871582 9.05795955657959 10.602502822875977 C8.792754173278809 10.503020286560059 8.527547836303711 10.403535842895508 8.5108642578125 10.072091102600098 L8.5108642578125 9.773765563964844 L9.356284141540527 9.67428207397461 C9.555251121520996 9.657723426818848 9.654609680175781 9.558238983154297 9.72097396850586 9.425637245178223 C9.787338256835938 9.309593200683594 9.8038969039917 9.193550109863281 9.8038969039917 9.193550109863281 L9.8038969039917 9.011268615722656 C9.505572319030762 9.027828216552734 8.444748878479004 9.127311706542969 8.245781898498535 9.160430908203125 L8.195978164672852 9.160430908203125 L8.195978164672852 9.160430908203125" fill="black" fill-opacity="1.0" filling="0"/>
<path animation_id="5" d="M13.897902488708496 8.862106323242188 C13.301127433776855 8.9781494140625 13.019237518310547 9.342838287353516 13.019237518310547 10.005851745605469 L13.019237518310547 12.790512084960938 C13.03604507446289 13.801655769348145 13.980826377868652 13.834775924682617 14.444748878479004 13.884330749511719 C15.489012718200684 13.95069408416748 16.036109924316406 13.685613632202148 16.05266761779785 13.005914688110352 C16.05266761779785 12.972795486450195 16.05266761779785 12.922990798950195 16.06922721862793 12.889871597290039 L16.06922721862793 10.10521125793457 C16.036109924316406 8.994708061218262 15.339974403381348 8.911785125732422 14.610595703125 8.845420837402344 C14.345390319824219 8.828986167907715 14.113428115844727 8.812301635742188 13.897902488708496 8.862106323242188 M14.478116989135742 9.873124122619629 C14.643715858459473 9.889684677124023 14.643715858459473 9.92280387878418 14.643715858459473 9.939364433288574 C14.693519592285156 10.022287368774414 14.693519592285156 10.237689018249512 14.693519592285156 10.486459732055664 L14.693519592285156 12.4423828125 C14.693519592285156 12.491938591003418 14.67671012878418 12.54186725616455 14.67671012878418 12.60798168182373 L14.67671012878418 12.641349792480469 L14.610595703125 12.641349792480469 C14.52767276763916 12.624540328979492 14.478116989135742 12.60798168182373 14.444748878479004 12.591546058654785 A0.734483003616333 0.734483003616333 0.0 0 1 14.411629676818848 12.376144409179688 L14.411629676818848 12.293220520019531 L14.411629676818848 10.337421417236328 L14.411629676818848 10.2711820602417 L14.411629676818848 10.039095878601074 C14.411629676818848 9.972856521606445 14.42818832397461 9.923052787780762 14.42818832397461 9.873373031616211 C14.444873809814453 9.873124122619629 14.461309432983398 9.873124122619629 14.478116989135742 9.873124122619629 L14.478116989135742 9.873124122619629" fill="black" fill-opacity="1.0" filling="0"/>
<path animation_id="6" d="M14.61072063446045 9.027828216552734 C14.345390319824219 9.011268615722656 14.129988670349121 9.011268615722656 13.931021690368652 9.044387817382812 C13.500093460083008 9.127311706542969 13.2182035446167 9.375957489013672 13.201767921447754 10.005727767944336 L13.201767921447754 12.790388107299805 C13.218328475952148 13.469837188720703 13.666065216064453 13.619125366210938 14.444873809814453 13.6854887008667 C15.240614891052246 13.751603126525879 15.87038516998291 13.602564811706543 15.87038516998291 12.972670555114746 L15.87038516998291 12.856627464294434 L15.87038516998291 10.088401794433594 C15.87038516998291 9.160430908203125 15.339974403381348 9.094191551208496 14.61072063446045 9.027828216552734 L14.61072063446045 9.027828216552734 M14.875801086425781 12.458943367004395 L14.875801086425781 12.624540328979492 C14.85924243927002 12.69090461730957 14.85924243927002 12.740833282470703 14.842681884765625 12.806947708129883 C14.842681884765625 12.806947708129883 14.826122283935547 12.823507308959961 14.809562683105469 12.823507308959961 C14.743199348449707 12.840067863464355 14.676835060119629 12.823507308959961 14.610595703125 12.823507308959961 C14.212787628173828 12.790388107299805 14.212787628173828 12.54186725616455 14.229347229003906 12.276535987854004 L14.229347229003906 10.3207368850708 C14.229347229003906 10.221254348754883 14.212787628173828 10.121770858764648 14.229347229003906 10.022412300109863 C14.229347229003906 9.90636920928955 14.245906829833984 9.80700969696045 14.262467384338379 9.72408676147461 L14.295835494995117 9.690967559814453 C14.361949920654297 9.690967559814453 14.41187858581543 9.674407005310059 14.478241920471191 9.690967559814453 C14.875801086425781 9.72408676147461 14.875801086425781 9.85681438446045 14.875801086425781 10.503144264221191 L14.875801086425781 12.458943367004395 L14.875801086425781 12.458943367004395" fill="black" fill-opacity="1.0" filling="0"/>
<path animation_id="7" d="M16.50015640258789 9.077507019042969 L16.351118087768555 9.077507019042969 L16.351118087768555 14.033617973327637 C16.782047271728516 14.099982261657715 17.229534149169922 14.166096687316895 17.676897048950195 14.249019622802734 L17.676897048950195 13.088838577270508 C17.875865936279297 13.652244567871094 18.108074188232422 14.348503112792969 18.108074188232422 14.348503112792969 C18.55556297302246 14.431426048278809 18.96993064880371 14.53091049194336 19.41741943359375 14.630393028259277 L19.41741943359375 9.657723426818848 C18.953371047973633 9.541680335998535 18.522443771362305 9.442195892333984 18.058271408081055 9.359397888183594 L18.058271408081055 10.420345306396484 C18.058271408081055 10.370665550231934 18.041709899902344 10.337421417236328 18.041709899902344 10.304178237915039 C17.726825714111328 9.293033599853516 16.898088455200195 9.060948371887207 16.50015640258789 9.077507019042969 L16.50015640258789 9.077507019042969" fill="black" fill-opacity="1.0" filling="0"/>
<path animation_id="8" d="M16.533275604248047 9.25991439819336 L16.533275604248047 13.867770195007324 C16.86496925354004 13.917574882507324 17.146610260009766 13.967254638671875 17.478303909301758 14.033617973327637 L17.478303909301758 12.011455535888672 C17.743385314941406 12.740833282470703 17.991907119750977 13.436842918395996 18.240676879882812 14.182655334472656 C18.588682174682617 14.249019622802734 18.887006759643555 14.315382957458496 19.218578338623047 14.39805793762207 L19.218578338623047 9.806760787963867 C18.88713264465332 9.723837852478027 18.588682174682617 9.657598495483398 18.25723648071289 9.574674606323242 L18.25723648071289 11.795804023742676 C18.224117279052734 11.69644546508789 18.207683563232422 11.596961975097656 18.174312591552734 11.5140380859375 A25.206377029418945 25.206377029418945 0.0 0 0 17.85942840576172 10.320612907409668 C17.494863510131836 9.210110664367676 16.533275604248047 9.25991439819336 16.533275604248047 9.25991439819336 L16.533275604248047 9.25991439819336" fill="black" fill-opacity="1.0" filling="0"/>
<path animation_id="9" d="M20.428564071655273 9.922928810119629 L20.44512176513672 9.939488410949707 C20.047313690185547 9.823446273803711 19.7822322845459 9.956172943115234 19.732303619384766 10.287617683410645 C19.732303619384766 10.32086181640625 19.715744018554688 10.353857040405273 19.715744018554688 10.387101173400879 L19.715744018554688 10.3705415725708 C19.715744018554688 10.470024108886719 19.68262481689453 10.751789093017578 19.68262481689453 11.033555030822754 C19.68262481689453 11.248957633972168 19.69918441772461 11.44792366027832 19.732179641723633 11.580527305603027 C19.914587020874023 12.094254493713379 20.279399871826172 12.359583854675293 20.594284057617188 12.558550834655762 C20.610843658447266 12.558550834655762 20.62740707397461 12.558550834655762 20.62740707397461 12.575111389160156 L20.643964767456055 12.575111389160156 C20.660524368286133 12.724148750305176 20.660524368286133 13.735292434692383 20.660524368286133 14.017183303833008 C20.362199783325195 13.934259414672852 20.097118377685547 13.867895126342773 19.798667907714844 13.785221099853516 L19.798667907714844 14.713191986083984 C20.24615478515625 14.829483985900879 20.643964767456055 14.945402145385742 21.091453552246094 15.094441413879395 C21.555749893188477 15.210484504699707 21.854074478149414 15.111000061035156 21.986553192138672 14.79611587524414 C22.00311279296875 14.746560096740723 22.00311279296875 14.713191986083984 22.019672393798828 14.663637161254883 L22.019672393798828 13.669053077697754 C22.019672393798828 13.205005645751953 22.019672393798828 12.774077415466309 22.00311279296875 12.608230590820312 C22.00311279296875 12.442631721496582 21.920188903808594 12.276784896850586 21.771150588989258 12.11093807220459 C21.72134780883789 12.04482364654541 21.671669006347656 11.994894981384277 21.5887451171875 11.928656578063965 C21.522628784179688 11.878976821899414 21.456266403198242 11.82929801940918 21.40633773803711 11.77949333190918 L21.38977813720703 11.762933731079102 C21.12469482421875 11.547532081604004 20.95884895324707 11.414929389953613 20.95884895324707 11.19940185546875 L20.95884895324707 11.099919319152832 L21.605180740356445 11.298761367797852 C21.837390899658203 11.381685256958008 22.002986907958984 11.331880569458008 22.11903190612793 11.166158676147461 C22.201955795288086 11.066675186157227 22.21851348876953 10.950756072998047 22.23507308959961 10.90095329284668 L22.23507308959961 10.884392738342285 L22.23507308959961 10.486583709716797 C22.168960571289062 10.470024108886719 22.102596282958984 10.453340530395508 22.036108016967773 10.420345306396484 C21.555749893188477 10.254373550415039 20.461681365966797 9.939488410949707 20.428564071655273 9.922928810119629 L20.428564071655273 9.922928810119629" fill="black" fill-opacity="1.0" filling="0"/>
<path animation_id="10" d="M19.914710998535156 10.3705415725708 C19.898151397705078 10.403660774230957 19.898151397705078 10.436779975891113 19.898151397705078 10.436779975891113 C19.898151397705078 10.453340530395508 19.831789016723633 11.298637390136719 19.914710998535156 11.563966751098633 C20.047189712524414 11.961775779724121 20.312519073486328 12.177177429199219 20.660524368286133 12.392704010009766 C20.677082061767578 12.392704010009766 20.710329055786133 12.42607307434082 20.743446350097656 12.44250774383545 C20.776569366455078 12.458943367004395 20.809810638427734 12.49206256866455 20.84292984008789 12.541991233825684 L20.84292984008789 14.265703201293945 C20.56104278564453 14.182780265808105 20.26271629333496 14.100106239318848 19.981075286865234 14.03374195098877 L19.981075286865234 14.580714225769043 C20.362199783325195 14.680196762084961 20.710329055786133 14.779680252075195 21.074893951416016 14.895599365234375 C21.423145294189453 14.978523254394531 21.704788208007812 14.945402145385742 21.80414581298828 14.663637161254883 C21.837514877319336 14.63051700592041 21.837514877319336 14.597272872924805 21.837514877319336 14.597272872924805 C21.837514877319336 14.46479606628418 21.837514877319336 12.906681060791016 21.820707321166992 12.558674812316895 A0.5752350091934204 0.5752350091934204 0.0 0 0 21.655109405517578 12.2272310256958 C21.605304718017578 12.160866737365723 21.539066314697266 12.11093807220459 21.489261627197266 12.061384201049805 C21.423145294189453 12.011704444885254 21.356781005859375 11.961899757385254 21.306854248046875 11.912220001220703 C21.041772842407227 11.696819305419922 20.776443481445312 11.481292724609375 20.759883880615234 11.149724006652832 C20.776443481445312 11.050239562988281 20.759883880615234 10.950756072998047 20.759883880615234 10.851397514343262 C21.041772842407227 10.934321403503418 21.323537826538086 11.017120361328125 21.605180740356445 11.116602897644043 C21.787586212158203 11.166282653808594 21.887069702148438 11.100044250488281 21.969993591308594 11.017120361328125 C22.019550323486328 10.934196472167969 22.05291748046875 10.834837913513184 22.05291748046875 10.818278312683105 C22.05291748046875 10.751914024353027 22.036108016967773 10.685674667358398 22.036108016967773 10.619312286376953 C21.704662322998047 10.50326919555664 20.461559295654297 10.12201976776123 20.444997787475586 10.12201976776123 C20.14679718017578 10.038846969604492 19.96438980102539 10.10521125793457 19.914710998535156 10.3705415725708" fill="black" fill-opacity="1.0" filling="0"/>
<path animation_id="11" d="M12.803834915161133 8.746063232421875 C11.94197940826416 8.72950267791748 11.113241195678711 8.746063232421875 10.251385688781738 8.79574203491211 L10.251385688781738 9.840004920959473 C10.483346939086914 9.823446273803711 10.698873519897461 9.806885719299316 10.947519302368164 9.806885719299316 L10.947519302368164 13.751728057861328 C11.411691665649414 13.718607902526855 11.859179496765137 13.718607902526855 12.323351860046387 13.718607902526855 L12.323351860046387 9.773641586303711 A0.7811741828918457 0.7811741828918457 0.0 0 0 12.754280090332031 9.59135913848877 C12.986242294311523 9.375957489013672 13.002801895141602 9.077507019042969 13.002801895141602 8.961463928222656 L13.002801895141602 8.9283447265625 C13.002801895141602 8.87866497039795 13.002801895141602 8.812301635742188 12.986242294311523 8.762497901916504 C12.936562538146973 8.762621879577637 12.870198249816895 8.746063232421875 12.803834915161133 8.746063232421875 L12.803834915161133 8.746063232421875" fill="black" fill-opacity="1.0" filling="0"/>
<path animation_id="12" d="M12.803834915161133 8.944905281066895 C12.008342742919922 8.911785125732422 11.245844841003418 8.9283447265625 10.433542251586914 8.9781494140625 L10.433542251586914 9.641162872314453 C10.682188987731934 9.624603271484375 10.89771556854248 9.608043670654297 11.129801750183105 9.608043670654297 L11.129801750183105 13.552885055541992 C11.477806091308594 13.53632640838623 11.792815208435059 13.53632640838623 12.140945434570312 13.53632640838623 L12.140945434570312 9.59135913848877 C12.870198249816895 9.641162872314453 12.803834915161133 8.944905281066895 12.803834915161133 8.944905281066895 L12.803834915161133 8.944905281066895" fill="black" fill-opacity="1.0" filling="0"/>
<path animation_id="13" d="M6.886509418487549 9.176990509033203 C6.488700866699219 9.243354797363281 6.107451915740967 9.309593200683594 5.726203441619873 9.39251708984375 C5.726203441619873 11.083234786987305 5.709643363952637 12.69102954864502 5.726203441619873 14.365062713623047 C6.190375328063965 14.28213882446289 6.621179580688477 14.19921588897705 7.06879186630249 14.116540908813477 L7.06879186630249 9.143871307373047 C7.002552509307861 9.143871307373047 6.952748775482178 9.160430908203125 6.886509418487549 9.176990509033203" fill="black" fill-opacity="1.0" filling="0"/>
<path animation_id="14" d="M5.9086103439331055 14.149660110473633 C6.240179538726807 14.083297729492188 6.555064678192139 14.017183303833008 6.886509418487549 13.967254638671875 L6.886509418487549 9.359397888183594 C6.554940223693848 9.425762176513672 6.240055084228516 9.47544002532959 5.9086103439331055 9.541680335998535 L5.9086103439331055 14.149660110473633" fill="black" fill-opacity="1.0" filling="0"/>
<path animation_id="15" d="M8.245657920837402 8.9781494140625 L8.195978164672852 8.9781494140625 C7.79817008972168 9.027828216552734 7.549648284912109 9.25991439819336 7.483160495758057 9.624479293823242 C7.483160495758057 9.657723426818848 7.46660041809082 9.690842628479004 7.46660041809082 9.740522384643555 L7.46660041809082 9.72396183013916 C7.450040340423584 9.806885719299316 7.433356285095215 10.10521125793457 7.433356285095215 10.38697624206543 C7.433356285095215 10.602378845214844 7.450040340423584 10.801344871520996 7.483035564422607 10.917387962341309 C7.66544246673584 11.36500072479248 8.030132293701172 11.464484214782715 8.345016479492188 11.530723571777344 C8.361576080322266 11.530723571777344 8.378260612487793 11.530723571777344 8.378260612487793 11.547282218933105 L8.394820213317871 11.547282218933105 C8.394820213317871 12.0278902053833 8.411380767822266 12.49206256866455 8.411380767822266 12.989354133605957 C8.113055229187012 13.02247428894043 7.831289291381836 13.055718421936035 7.549523830413818 13.10539722442627 L7.549523830413818 14.033617973327637 C7.980452060699463 13.967254638671875 8.394820213317871 13.917574882507324 8.842308044433594 13.867770195007324 C9.289920806884766 13.801655769348145 9.604805946350098 13.569445610046387 9.737409591674805 13.204880714416504 C9.753968238830566 13.15507698059082 9.770528793334961 13.121957778930664 9.770528793334961 13.072402000427246 L9.770528793334961 13.055843353271484 L9.770528793334961 13.02247428894043 L9.770528793334961 12.956358909606934 L9.770528793334961 12.889995574951172 L9.770528793334961 12.857001304626465 L9.770528793334961 11.91209602355957 C9.770528793334961 11.431364059448242 9.770528793334961 11.149598121643066 9.753968238830566 11.016996383666992 C9.753968238830566 10.851273536682129 9.671045303344727 10.718669891357422 9.521883010864258 10.619187355041504 C9.472203254699707 10.569507598876953 9.422524452209473 10.536263465881348 9.339600563049316 10.503144264221191 C9.273361206054688 10.486583709716797 9.223557472229004 10.45346450805664 9.157318115234375 10.436904907226562 C9.140758514404297 10.436904907226562 9.140758514404297 10.436904907226562 9.140758514404297 10.420345306396484 C8.8755521774292 10.32086181640625 8.709830284118652 10.254498481750488 8.709830284118652 10.039095878601074 L8.709830284118652 9.939613342285156 C8.92523193359375 9.906494140625 9.140758514404297 9.889933586120605 9.356284141540527 9.873373031616211 C9.604930877685547 9.840253829956055 9.770652770996094 9.724210739135742 9.886695861816406 9.508685111999512 C9.953060150146484 9.376081466674805 9.98617935180664 9.243478775024414 9.98617935180664 9.210359573364258 L9.98617935180664 9.193799018859863 L9.98617935180664 9.094316482543945 L9.98617935180664 8.978273391723633 C9.98617935180664 8.911909103393555 9.969619750976562 8.86223030090332 9.969619750976562 8.795989990234375 C9.919939994812012 8.81255054473877 9.870137214660645 8.81255054473877 9.803772926330566 8.81255054473877 C9.173877716064453 8.862106323242188 8.411380767822266 8.944905281066895 8.245657920837402 8.9781494140625 L8.245657920837402 8.9781494140625" fill="black" fill-opacity="1.0" filling="0"/>
<path animation_id="16" d="M8.195978164672852 9.160430908203125 C7.897653102874756 9.210110664367676 7.7153706550598145 9.359272956848145 7.665567398071289 9.624479293823242 C7.6490068435668945 9.674158096313477 7.6490068435668945 9.707401275634766 7.6490068435668945 9.707401275634766 C7.6490068435668945 9.72396183013916 7.582643508911133 10.585943222045898 7.665567398071289 10.81790542602539 C7.79817008972168 11.165909767150879 8.063375473022461 11.282076835632324 8.411380767822266 11.348316192626953 C8.428065299987793 11.348316192626953 8.4610595703125 11.348316192626953 8.494303703308105 11.364875793457031 C8.527423858642578 11.381436347961426 8.560543060302734 11.381436347961426 8.593788146972656 11.43111515045166 L8.593788146972656 13.154828071594238 C8.31202220916748 13.188196182250977 8.030256271362305 13.22119140625 7.73180627822876 13.271120071411133 L7.73180627822876 13.818092346191406 C8.113055229187012 13.768287658691406 8.444623947143555 13.718607902526855 8.825873374938965 13.685613632202148 C9.157318115234375 13.635808944702148 9.455768585205078 13.469962120056152 9.555126190185547 13.154953002929688 C9.571686744689941 13.121832847595215 9.571686744689941 13.088838577270508 9.588247299194336 13.088838577270508 C9.571686744689941 13.072278022766113 9.571686744689941 13.055718421936035 9.571686744689941 13.039033889770508 C9.588247299194336 13.005914688110352 9.588247299194336 12.972919464111328 9.588247299194336 12.93955135345459 C9.588247299194336 12.93955135345459 9.588247299194336 11.398119926452637 9.571686744689941 11.050115585327148 C9.555126190185547 10.917511940002441 9.505447387695312 10.85114860534668 9.405963897705078 10.76822566986084 C9.356284141540527 10.735105514526367 9.30648136138916 10.701986312866211 9.240241050720215 10.685426712036133 C9.173877716064453 10.652182579040527 9.10763931274414 10.635746955871582 9.05795955657959 10.602502822875977 C8.792754173278809 10.503020286560059 8.527547836303711 10.403535842895508 8.5108642578125 10.072091102600098 L8.5108642578125 9.773765563964844 L9.356284141540527 9.67428207397461 C9.555251121520996 9.657723426818848 9.654609680175781 9.558238983154297 9.72097396850586 9.425637245178223 C9.787338256835938 9.309593200683594 9.8038969039917 9.193550109863281 9.8038969039917 9.193550109863281 L9.8038969039917 9.011268615722656 C9.505572319030762 9.027828216552734 8.444748878479004 9.127311706542969 8.245781898498535 9.160430908203125 L8.195978164672852 9.160430908203125 L8.195978164672852 9.160430908203125" fill="black" fill-opacity="1.0" filling="0"/>
<path animation_id="17" d="M13.897902488708496 8.862106323242188 C13.301127433776855 8.9781494140625 13.019237518310547 9.342838287353516 13.019237518310547 10.005851745605469 L13.019237518310547 12.790512084960938 C13.03604507446289 13.801655769348145 13.980826377868652 13.834775924682617 14.444748878479004 13.884330749511719 C15.489012718200684 13.95069408416748 16.036109924316406 13.685613632202148 16.05266761779785 13.005914688110352 C16.05266761779785 12.972795486450195 16.05266761779785 12.922990798950195 16.06922721862793 12.889871597290039 L16.06922721862793 10.10521125793457 C16.036109924316406 8.994708061218262 15.339974403381348 8.911785125732422 14.610595703125 8.845420837402344 C14.345390319824219 8.828986167907715 14.113428115844727 8.812301635742188 13.897902488708496 8.862106323242188 M14.478116989135742 9.873124122619629 C14.643715858459473 9.889684677124023 14.643715858459473 9.92280387878418 14.643715858459473 9.939364433288574 C14.693519592285156 10.022287368774414 14.693519592285156 10.237689018249512 14.693519592285156 10.486459732055664 L14.693519592285156 12.4423828125 C14.693519592285156 12.491938591003418 14.67671012878418 12.54186725616455 14.67671012878418 12.60798168182373 L14.67671012878418 12.641349792480469 L14.610595703125 12.641349792480469 C14.52767276763916 12.624540328979492 14.478116989135742 12.60798168182373 14.444748878479004 12.591546058654785 A0.734483003616333 0.734483003616333 0.0 0 1 14.411629676818848 12.376144409179688 L14.411629676818848 12.293220520019531 L14.411629676818848 10.337421417236328 L14.411629676818848 10.2711820602417 L14.411629676818848 10.039095878601074 C14.411629676818848 9.972856521606445 14.42818832397461 9.923052787780762 14.42818832397461 9.873373031616211 C14.444873809814453 9.873124122619629 14.461309432983398 9.873124122619629 14.478116989135742 9.873124122619629 L14.478116989135742 9.873124122619629" fill="black" fill-opacity="1.0" filling="0"/>
<path animation_id="18" d="M14.61072063446045 9.027828216552734 C14.345390319824219 9.011268615722656 14.129988670349121 9.011268615722656 13.931021690368652 9.044387817382812 C13.500093460083008 9.127311706542969 13.2182035446167 9.375957489013672 13.201767921447754 10.005727767944336 L13.201767921447754 12.790388107299805 C13.218328475952148 13.469837188720703 13.666065216064453 13.619125366210938 14.444873809814453 13.6854887008667 C15.240614891052246 13.751603126525879 15.87038516998291 13.602564811706543 15.87038516998291 12.972670555114746 L15.87038516998291 12.856627464294434 L15.87038516998291 10.088401794433594 C15.87038516998291 9.160430908203125 15.339974403381348 9.094191551208496 14.61072063446045 9.027828216552734 L14.61072063446045 9.027828216552734 M14.875801086425781 12.458943367004395 L14.875801086425781 12.624540328979492 C14.85924243927002 12.69090461730957 14.85924243927002 12.740833282470703 14.842681884765625 12.806947708129883 C14.842681884765625 12.806947708129883 14.826122283935547 12.823507308959961 14.809562683105469 12.823507308959961 C14.743199348449707 12.840067863464355 14.676835060119629 12.823507308959961 14.610595703125 12.823507308959961 C14.212787628173828 12.790388107299805 14.212787628173828 12.54186725616455 14.229347229003906 12.276535987854004 L14.229347229003906 10.3207368850708 C14.229347229003906 10.221254348754883 14.212787628173828 10.121770858764648 14.229347229003906 10.022412300109863 C14.229347229003906 9.90636920928955 14.245906829833984 9.80700969696045 14.262467384338379 9.72408676147461 L14.295835494995117 9.690967559814453 C14.361949920654297 9.690967559814453 14.41187858581543 9.674407005310059 14.478241920471191 9.690967559814453 C14.875801086425781 9.72408676147461 14.875801086425781 9.85681438446045 14.875801086425781 10.503144264221191 L14.875801086425781 12.458943367004395 L14.875801086425781 12.458943367004395" fill="black" fill-opacity="1.0" filling="0"/>
<path animation_id="19" d="M16.50015640258789 9.077507019042969 L16.351118087768555 9.077507019042969 L16.351118087768555 14.033617973327637 C16.782047271728516 14.099982261657715 17.229534149169922 14.166096687316895 17.676897048950195 14.249019622802734 L17.676897048950195 13.088838577270508 C17.875865936279297 13.652244567871094 18.108074188232422 14.348503112792969 18.108074188232422 14.348503112792969 C18.55556297302246 14.431426048278809 18.96993064880371 14.53091049194336 19.41741943359375 14.630393028259277 L19.41741943359375 9.657723426818848 C18.953371047973633 9.541680335998535 18.522443771362305 9.442195892333984 18.058271408081055 9.359397888183594 L18.058271408081055 10.420345306396484 C18.058271408081055 10.370665550231934 18.041709899902344 10.337421417236328 18.041709899902344 10.304178237915039 C17.726825714111328 9.293033599853516 16.898088455200195 9.060948371887207 16.50015640258789 9.077507019042969 L16.50015640258789 9.077507019042969" fill="black" fill-opacity="1.0" filling="0"/>
<path animation_id="20" d="M16.533275604248047 9.25991439819336 L16.533275604248047 13.867770195007324 C16.86496925354004 13.917574882507324 17.146610260009766 13.967254638671875 17.478303909301758 14.033617973327637 L17.478303909301758 12.011455535888672 C17.743385314941406 12.740833282470703 17.991907119750977 13.436842918395996 18.240676879882812 14.182655334472656 C18.588682174682617 14.249019622802734 18.887006759643555 14.315382957458496 19.218578338623047 14.39805793762207 L19.218578338623047 9.806760787963867 C18.88713264465332 9.723837852478027 18.588682174682617 9.657598495483398 18.25723648071289 9.574674606323242 L18.25723648071289 11.795804023742676 C18.224117279052734 11.69644546508789 18.207683563232422 11.596961975097656 18.174312591552734 11.5140380859375 A25.206377029418945 25.206377029418945 0.0 0 0 17.85942840576172 10.320612907409668 C17.494863510131836 9.210110664367676 16.533275604248047 9.25991439819336 16.533275604248047 9.25991439819336 L16.533275604248047 9.25991439819336" fill="black" fill-opacity="1.0" filling="0"/>
<path animation_id="21" d="M20.428564071655273 9.922928810119629 L20.44512176513672 9.939488410949707 C20.047313690185547 9.823446273803711 19.7822322845459 9.956172943115234 19.732303619384766 10.287617683410645 C19.732303619384766 10.32086181640625 19.715744018554688 10.353857040405273 19.715744018554688 10.387101173400879 L19.715744018554688 10.3705415725708 C19.715744018554688 10.470024108886719 19.68262481689453 10.751789093017578 19.68262481689453 11.033555030822754 C19.68262481689453 11.248957633972168 19.69918441772461 11.44792366027832 19.732179641723633 11.580527305603027 C19.914587020874023 12.094254493713379 20.279399871826172 12.359583854675293 20.594284057617188 12.558550834655762 C20.610843658447266 12.558550834655762 20.62740707397461 12.558550834655762 20.62740707397461 12.575111389160156 L20.643964767456055 12.575111389160156 C20.660524368286133 12.724148750305176 20.660524368286133 13.735292434692383 20.660524368286133 14.017183303833008 C20.362199783325195 13.934259414672852 20.097118377685547 13.867895126342773 19.798667907714844 13.785221099853516 L19.798667907714844 14.713191986083984 C20.24615478515625 14.829483985900879 20.643964767456055 14.945402145385742 21.091453552246094 15.094441413879395 C21.555749893188477 15.210484504699707 21.854074478149414 15.111000061035156 21.986553192138672 14.79611587524414 C22.00311279296875 14.746560096740723 22.00311279296875 14.713191986083984 22.019672393798828 14.663637161254883 L22.019672393798828 13.669053077697754 C22.019672393798828 13.205005645751953 22.019672393798828 12.774077415466309 22.00311279296875 12.608230590820312 C22.00311279296875 12.442631721496582 21.920188903808594 12.276784896850586 21.771150588989258 12.11093807220459 C21.72134780883789 12.04482364654541 21.671669006347656 11.994894981384277 21.5887451171875 11.928656578063965 C21.522628784179688 11.878976821899414 21.456266403198242 11.82929801940918 21.40633773803711 11.77949333190918 L21.38977813720703 11.762933731079102 C21.12469482421875 11.547532081604004 20.95884895324707 11.414929389953613 20.95884895324707 11.19940185546875 L20.95884895324707 11.099919319152832 L21.605180740356445 11.298761367797852 C21.837390899658203 11.381685256958008 22.002986907958984 11.331880569458008 22.11903190612793 11.166158676147461 C22.201955795288086 11.066675186157227 22.21851348876953 10.950756072998047 22.23507308959961 10.90095329284668 L22.23507308959961 10.884392738342285 L22.23507308959961 10.486583709716797 C22.168960571289062 10.470024108886719 22.102596282958984 10.453340530395508 22.036108016967773 10.420345306396484 C21.555749893188477 10.254373550415039 20.461681365966797 9.939488410949707 20.428564071655273 9.922928810119629 L20.428564071655273 9.922928810119629" fill="black" fill-opacity="1.0" filling="0"/>
<path animation_id="22" d="M19.914710998535156 10.3705415725708 C19.898151397705078 10.403660774230957 19.898151397705078 10.436779975891113 19.898151397705078 10.436779975891113 C19.898151397705078 10.453340530395508 19.831789016723633 11.298637390136719 19.914710998535156 11.563966751098633 C20.047189712524414 11.961775779724121 20.312519073486328 12.177177429199219 20.660524368286133 12.392704010009766 C20.677082061767578 12.392704010009766 20.710329055786133 12.42607307434082 20.743446350097656 12.44250774383545 C20.776569366455078 12.458943367004395 20.809810638427734 12.49206256866455 20.84292984008789 12.541991233825684 L20.84292984008789 14.265703201293945 C20.56104278564453 14.182780265808105 20.26271629333496 14.100106239318848 19.981075286865234 14.03374195098877 L19.981075286865234 14.580714225769043 C20.362199783325195 14.680196762084961 20.710329055786133 14.779680252075195 21.074893951416016 14.895599365234375 C21.423145294189453 14.978523254394531 21.704788208007812 14.945402145385742 21.80414581298828 14.663637161254883 C21.837514877319336 14.63051700592041 21.837514877319336 14.597272872924805 21.837514877319336 14.597272872924805 C21.837514877319336 14.46479606628418 21.837514877319336 12.906681060791016 21.820707321166992 12.558674812316895 A0.5752350091934204 0.5752350091934204 0.0 0 0 21.655109405517578 12.2272310256958 C21.605304718017578 12.160866737365723 21.539066314697266 12.11093807220459 21.489261627197266 12.061384201049805 C21.423145294189453 12.011704444885254 21.356781005859375 11.961899757385254 21.306854248046875 11.912220001220703 C21.041772842407227 11.696819305419922 20.776443481445312 11.481292724609375 20.759883880615234 11.149724006652832 C20.776443481445312 11.050239562988281 20.759883880615234 10.950756072998047 20.759883880615234 10.851397514343262 C21.041772842407227 10.934321403503418 21.323537826538086 11.017120361328125 21.605180740356445 11.116602897644043 C21.787586212158203 11.166282653808594 21.887069702148438 11.100044250488281 21.969993591308594 11.017120361328125 C22.019550323486328 10.934196472167969 22.05291748046875 10.834837913513184 22.05291748046875 10.818278312683105 C22.05291748046875 10.751914024353027 22.036108016967773 10.685674667358398 22.036108016967773 10.619312286376953 C21.704662322998047 10.50326919555664 20.461559295654297 10.12201976776123 20.444997787475586 10.12201976776123 C20.14679718017578 10.038846969604492 19.96438980102539 10.10521125793457 19.914710998535156 10.3705415725708" fill="black" fill-opacity="1.0" filling="0"/>
<path animation_id="23" d="M12.803834915161133 8.746063232421875 C11.94197940826416 8.72950267791748 11.113241195678711 8.746063232421875 10.251385688781738 8.79574203491211 L10.251385688781738 9.840004920959473 C10.483346939086914 9.823446273803711 10.698873519897461 9.806885719299316 10.947519302368164 9.806885719299316 L10.947519302368164 13.751728057861328 C11.411691665649414 13.718607902526855 11.859179496765137 13.718607902526855 12.323351860046387 13.718607902526855 L12.323351860046387 9.773641586303711 A0.7811741828918457 0.7811741828918457 0.0 0 0 12.754280090332031 9.59135913848877 C12.986242294311523 9.375957489013672 13.002801895141602 9.077507019042969 13.002801895141602 8.961463928222656 L13.002801895141602 8.9283447265625 C13.002801895141602 8.87866497039795 13.002801895141602 8.812301635742188 12.986242294311523 8.762497901916504 C12.936562538146973 8.762621879577637 12.870198249816895 8.746063232421875 12.803834915161133 8.746063232421875 L12.803834915161133 8.746063232421875" fill="black" fill-opacity="1.0" filling="0"/>
<path animation_id="24" d="M12.803834915161133 8.944905281066895 C12.008342742919922 8.911785125732422 11.245844841003418 8.9283447265625 10.433542251586914 8.9781494140625 L10.433542251586914 9.641162872314453 C10.682188987731934 9.624603271484375 10.89771556854248 9.608043670654297 11.129801750183105 9.608043670654297 L11.129801750183105 13.552885055541992 C11.477806091308594 13.53632640838623 11.792815208435059 13.53632640838623 12.140945434570312 13.53632640838623 L12.140945434570312 9.59135913848877 C12.870198249816895 9.641162872314453 12.803834915161133 8.944905281066895 12.803834915161133 8.944905281066895 L12.803834915161133 8.944905281066895" fill="black" fill-opacity="1.0" filling="0"/>
<path animation_id="25" d="M4.615700721740723 9.641162872314453 C3.6874799728393555 9.873249053955078 2.8089399337768555 10.138455390930176 1.8807201385498047 10.453340530395508 C1.8641595840454102 10.486583709716797 1.847599983215332 10.503020286560059 1.831040382385254 10.536263465881348 C1.7813606262207031 10.585943222045898 1.7646760940551758 10.668866157531738 1.7646760940551758 10.751665115356445 C1.7646760940551758 10.90082836151123 1.8143558502197266 11.033431053161621 1.847599983215332 11.0997953414917 C1.9139642715454102 11.215838432312012 2.0630016326904297 11.36500072479248 2.394571304321289 11.298637390136719 L2.394571304321289 15.260162353515625 C2.858743667602539 15.110876083374023 3.3227920532226562 14.978273391723633 3.7869644165039062 14.845794677734375 L3.7869644165039062 12.856752395629883 L4.532901763916016 12.657785415649414 C5.112992763519287 12.508498191833496 5.4445624351501465 12.077569961547852 5.4445624351501465 11.43111515045166 L5.4445624351501465 11.364875793457031 L5.4445624351501465 11.265392303466797 C5.4445624351501465 10.022287368774414 5.461122035980225 9.541555404663086 4.63238525390625 9.64103889465332 C4.648944854736328 9.64103889465332 4.63238525390625 9.64103889465332 4.63238525390625 9.64103889465332 L4.615700721740723 9.64103889465332 L4.615700721740723 9.641162872314453 L4.615700721740723 9.641162872314453 M3.7704038619995117 10.884268760681152 C3.7869644165039062 10.884268760681152 3.8200836181640625 10.884268760681152 3.836644172668457 10.867708206176758 C3.869887351989746 10.867708206176758 3.919567108154297 10.85114860534668 3.9692459106445312 10.85114860534668 C4.018925666809082 10.834589004516602 4.018925666809082 10.85114860534668 4.052169322967529 10.90082836151123 L4.052169322967529 11.862168312072754 C3.952686309814453 11.89528751373291 3.869887351989746 11.911847114562988 3.7704038619995117 11.945091247558594 L3.7704038619995117 10.884268760681152 L3.7704038619995117 10.884268760681152" fill="black" fill-opacity="1.0" filling="0"/>
<path animation_id="26" d="M5.262155532836914 11.298637390136719 C5.262155532836914 9.97260856628418 5.212475776672363 9.757205963134766 4.615700721740723 9.840004920959473 C3.7207250595092773 10.05553150177002 2.858743667602539 10.3207368850708 1.963644027709961 10.619062423706055 C1.963644027709961 10.619062423706055 1.8641595840454102 11.31519603729248 2.593538284301758 11.066550254821777 C2.593538284301758 12.392579078674316 2.5769777297973633 13.685613632202148 2.593538284301758 15.011393547058105 A10.159995079040527 10.159995079040527 0.0 0 1 3.6046810150146484 14.713068008422852 L3.6046810150146484 12.724024772644043 C3.919567108154297 12.624540328979492 4.217892169952393 12.558425903320312 4.532901763916016 12.475502967834473 C4.96382999420166 12.35945987701416 5.245595932006836 12.044574737548828 5.262155532836914 11.480918884277344 C5.262155532836914 11.447799682617188 5.245595932006836 11.431239128112793 5.245595932006836 11.397994995117188 C5.245595932006836 11.364751815795898 5.262155532836914 11.348440170288086 5.262155532836914 11.298637390136719 M4.234451770782471 11.928531646728516 L4.234451770782471 12.011455535888672 C4.184772491455078 12.011455535888672 4.151528358459473 12.028014183044434 4.10184907913208 12.044698715209961 C3.936126708984375 12.094254493713379 3.7704038619995117 12.144183158874512 3.5879974365234375 12.193737030029297 L3.5879974365234375 10.751665115356445 C3.6542367935180664 10.735105514526367 3.720600128173828 10.701986312866211 3.8034000396728516 10.685426712036133 C3.8697633743286133 10.668866157531738 3.936001777648926 10.652182579040527 3.985806465148926 10.652182579040527 C4.1349687576293945 10.635622024536133 4.201208114624023 10.701862335205078 4.234451770782471 10.801344871520996 C4.234451770782471 10.851024627685547 4.251011371612549 10.917387962341309 4.251011371612549 10.96706771850586 L4.251011371612549 11.132914543151855 C4.251011371612549 11.132914543151855 4.251011371612549 11.69644546508789 4.234451770782471 11.928531646728516 L4.234451770782471 11.928531646728516 M5.9086103439331055 14.149660110473633 C6.240179538726807 14.083297729492188 6.555064678192139 14.017183303833008 6.886509418487549 13.967254638671875 L6.886509418487549 9.359397888183594 C6.554940223693848 9.425762176513672 6.240055084228516 9.47544002532959 5.9086103439331055 9.541680335998535 L5.9086103439331055 14.149660110473633 M8.195978164672852 9.160430908203125 C7.897653102874756 9.210110664367676 7.7153706550598145 9.359272956848145 7.665567398071289 9.624479293823242 C7.6490068435668945 9.674158096313477 7.6490068435668945 9.707401275634766 7.6490068435668945 9.707401275634766 C7.6490068435668945 9.72396183013916 7.582643508911133 10.585943222045898 7.665567398071289 10.81790542602539 C7.79817008972168 11.165909767150879 8.063375473022461 11.282076835632324 8.411380767822266 11.348316192626953 C8.428065299987793 11.348316192626953 8.4610595703125 11.348316192626953 8.494303703308105 11.364875793457031 C8.527423858642578 11.381436347961426 8.560543060302734 11.381436347961426 8.593788146972656 11.43111515045166 L8.593788146972656 13.154828071594238 C8.31202220916748 13.188196182250977 8.030256271362305 13.22119140625 7.73180627822876 13.271120071411133 L7.73180627822876 13.818092346191406 C8.113055229187012 13.768287658691406 8.444623947143555 13.718607902526855 8.825873374938965 13.685613632202148 C9.157318115234375 13.635808944702148 9.455768585205078 13.469962120056152 9.555126190185547 13.154953002929688 C9.571686744689941 13.121832847595215 9.571686744689941 13.088838577270508 9.588247299194336 13.088838577270508 C9.571686744689941 13.072278022766113 9.571686744689941 13.055718421936035 9.571686744689941 13.039033889770508 C9.588247299194336 13.005914688110352 9.588247299194336 12.972919464111328 9.588247299194336 12.93955135345459 C9.588247299194336 12.93955135345459 9.588247299194336 11.398119926452637 9.571686744689941 11.050115585327148 C9.555126190185547 10.917511940002441 9.505447387695312 10.85114860534668 9.405963897705078 10.76822566986084 C9.356284141540527 10.735105514526367 9.30648136138916 10.701986312866211 9.240241050720215 10.685426712036133 C9.173877716064453 10.652182579040527 9.10763931274414 10.635746955871582 9.05795955657959 10.602502822875977 C8.792754173278809 10.503020286560059 8.527547836303711 10.403535842895508 8.5108642578125 10.072091102600098 L8.5108642578125 9.773765563964844 L9.356284141540527 9.67428207397461 C9.555251121520996 9.657723426818848 9.654609680175781 9.558238983154297 9.72097396850586 9.425637245178223 C9.787338256835938 9.309593200683594 9.8038969039917 9.193550109863281 9.8038969039917 9.193550109863281 L9.8038969039917 9.011268615722656 C9.505572319030762 9.027828216552734 8.444748878479004 9.127311706542969 8.245781898498535 9.160430908203125 L8.195978164672852 9.160430908203125 L8.195978164672852 9.160430908203125 M14.61072063446045 9.027828216552734 C14.345390319824219 9.011268615722656 14.129988670349121 9.011268615722656 13.931021690368652 9.044387817382812 C13.500093460083008 9.127311706542969 13.2182035446167 9.375957489013672 13.201767921447754 10.005727767944336 L13.201767921447754 12.790388107299805 C13.218328475952148 13.469837188720703 13.666065216064453 13.619125366210938 14.444873809814453 13.6854887008667 C15.240614891052246 13.751603126525879 15.87038516998291 13.602564811706543 15.87038516998291 12.972670555114746 L15.87038516998291 12.856627464294434 L15.87038516998291 10.088401794433594 C15.87038516998291 9.160430908203125 15.339974403381348 9.094191551208496 14.61072063446045 9.027828216552734 L14.61072063446045 9.027828216552734 M14.875801086425781 12.458943367004395 L14.875801086425781 12.624540328979492 C14.85924243927002 12.69090461730957 14.85924243927002 12.740833282470703 14.842681884765625 12.806947708129883 C14.842681884765625 12.806947708129883 14.826122283935547 12.823507308959961 14.809562683105469 12.823507308959961 C14.743199348449707 12.840067863464355 14.676835060119629 12.823507308959961 14.610595703125 12.823507308959961 C14.212787628173828 12.790388107299805 14.212787628173828 12.54186725616455 14.229347229003906 12.276535987854004 L14.229347229003906 10.3207368850708 C14.229347229003906 10.221254348754883 14.212787628173828 10.121770858764648 14.229347229003906 10.022412300109863 C14.229347229003906 9.90636920928955 14.245906829833984 9.80700969696045 14.262467384338379 9.72408676147461 L14.295835494995117 9.690967559814453 C14.361949920654297 9.690967559814453 14.41187858581543 9.674407005310059 14.478241920471191 9.690967559814453 C14.875801086425781 9.72408676147461 14.875801086425781 9.85681438446045 14.875801086425781 10.503144264221191 L14.875801086425781 12.458943367004395 L14.875801086425781 12.458943367004395 M16.533275604248047 9.25991439819336 L16.533275604248047 13.867770195007324 C16.86496925354004 13.917574882507324 17.146610260009766 13.967254638671875 17.478303909301758 14.033617973327637 L17.478303909301758 12.011455535888672 C17.743385314941406 12.740833282470703 17.991907119750977 13.436842918395996 18.240676879882812 14.182655334472656 C18.588682174682617 14.249019622802734 18.887006759643555 14.315382957458496 19.218578338623047 14.39805793762207 L19.218578338623047 9.806760787963867 C18.88713264465332 9.723837852478027 18.588682174682617 9.657598495483398 18.25723648071289 9.574674606323242 L18.25723648071289 11.795804023742676 C18.224117279052734 11.69644546508789 18.207683563232422 11.596961975097656 18.174312591552734 11.5140380859375 A25.206377029418945 25.206377029418945 0.0 0 0 17.85942840576172 10.320612907409668 C17.494863510131836 9.210110664367676 16.533275604248047 9.25991439819336 16.533275604248047 9.25991439819336 L16.533275604248047 9.25991439819336 M19.914710998535156 10.3705415725708 C19.898151397705078 10.403660774230957 19.898151397705078 10.436779975891113 19.898151397705078 10.436779975891113 C19.898151397705078 10.453340530395508 19.831789016723633 11.298637390136719 19.914710998535156 11.563966751098633 C20.047189712524414 11.961775779724121 20.312519073486328 12.177177429199219 20.660524368286133 12.392704010009766 C20.677082061767578 12.392704010009766 20.710329055786133 12.42607307434082 20.743446350097656 12.44250774383545 C20.776569366455078 12.458943367004395 20.809810638427734 12.49206256866455 20.84292984008789 12.541991233825684 L20.84292984008789 14.265703201293945 C20.56104278564453 14.182780265808105 20.26271629333496 14.100106239318848 19.981075286865234 14.03374195098877 L19.981075286865234 14.580714225769043 C20.362199783325195 14.680196762084961 20.710329055786133 14.779680252075195 21.074893951416016 14.895599365234375 C21.423145294189453 14.978523254394531 21.704788208007812 14.945402145385742 21.80414581298828 14.663637161254883 C21.837514877319336 14.63051700592041 21.837514877319336 14.597272872924805 21.837514877319336 14.597272872924805 C21.837514877319336 14.46479606628418 21.837514877319336 12.906681060791016 21.820707321166992 12.558674812316895 A0.5752350091934204 0.5752350091934204 0.0 0 0 21.655109405517578 12.2272310256958 C21.605304718017578 12.160866737365723 21.539066314697266 12.11093807220459 21.489261627197266 12.061384201049805 C21.423145294189453 12.011704444885254 21.356781005859375 11.961899757385254 21.306854248046875 11.912220001220703 C21.041772842407227 11.696819305419922 20.776443481445312 11.481292724609375 20.759883880615234 11.149724006652832 C20.776443481445312 11.050239562988281 20.759883880615234 10.950756072998047 20.759883880615234 10.851397514343262 C21.041772842407227 10.934321403503418 21.323537826538086 11.017120361328125 21.605180740356445 11.116602897644043 C21.787586212158203 11.166282653808594 21.887069702148438 11.100044250488281 21.969993591308594 11.017120361328125 C22.019550323486328 10.934196472167969 22.05291748046875 10.834837913513184 22.05291748046875 10.818278312683105 C22.05291748046875 10.751914024353027 22.036108016967773 10.685674667358398 22.036108016967773 10.619312286376953 C21.704662322998047 10.50326919555664 20.461559295654297 10.12201976776123 20.444997787475586 10.12201976776123 C20.14679718017578 10.038846969604492 19.96438980102539 10.10521125793457 19.914710998535156 10.3705415725708 M12.803834915161133 8.944905281066895 C12.008342742919922 8.911785125732422 11.245844841003418 8.9283447265625 10.433542251586914 8.9781494140625 L10.433542251586914 9.641162872314453 C10.682188987731934 9.624603271484375 10.89771556854248 9.608043670654297 11.129801750183105 9.608043670654297 L11.129801750183105 13.552885055541992 C11.477806091308594 13.53632640838623 11.792815208435059 13.53632640838623 12.140945434570312 13.53632640838623 L12.140945434570312 9.59135913848877 C12.870198249816895 9.641162872314453 12.803834915161133 8.944905281066895 12.803834915161133 8.944905281066895 L12.803834915161133 8.944905281066895" fill="black" fill-opacity="1.0" filling="0"/>
<path animation_id="27" d="M5.9086103439331055 14.149660110473633 C6.240179538726807 14.083297729492188 6.555064678192139 14.017183303833008 6.886509418487549 13.967254638671875 L6.886509418487549 9.359397888183594 C6.554940223693848 9.425762176513672 6.240055084228516 9.47544002532959 5.9086103439331055 9.541680335998535 L5.9086103439331055 14.149660110473633 M8.195978164672852 9.160430908203125 C7.897653102874756 9.210110664367676 7.7153706550598145 9.359272956848145 7.665567398071289 9.624479293823242 C7.6490068435668945 9.674158096313477 7.6490068435668945 9.707401275634766 7.6490068435668945 9.707401275634766 C7.6490068435668945 9.72396183013916 7.582643508911133 10.585943222045898 7.665567398071289 10.81790542602539 C7.79817008972168 11.165909767150879 8.063375473022461 11.282076835632324 8.411380767822266 11.348316192626953 C8.428065299987793 11.348316192626953 8.4610595703125 11.348316192626953 8.494303703308105 11.364875793457031 C8.527423858642578 11.381436347961426 8.560543060302734 11.381436347961426 8.593788146972656 11.43111515045166 L8.593788146972656 13.154828071594238 C8.31202220916748 13.188196182250977 8.030256271362305 13.22119140625 7.73180627822876 13.271120071411133 L7.73180627822876 13.818092346191406 C8.113055229187012 13.768287658691406 8.444623947143555 13.718607902526855 8.825873374938965 13.685613632202148 C9.157318115234375 13.635808944702148 9.455768585205078 13.469962120056152 9.555126190185547 13.154953002929688 C9.571686744689941 13.121832847595215 9.571686744689941 13.088838577270508 9.588247299194336 13.088838577270508 C9.571686744689941 13.072278022766113 9.571686744689941 13.055718421936035 9.571686744689941 13.039033889770508 C9.588247299194336 13.005914688110352 9.588247299194336 12.972919464111328 9.588247299194336 12.93955135345459 C9.588247299194336 12.93955135345459 9.588247299194336 11.398119926452637 9.571686744689941 11.050115585327148 C9.555126190185547 10.917511940002441 9.505447387695312 10.85114860534668 9.405963897705078 10.76822566986084 C9.356284141540527 10.735105514526367 9.30648136138916 10.701986312866211 9.240241050720215 10.685426712036133 C9.173877716064453 10.652182579040527 9.10763931274414 10.635746955871582 9.05795955657959 10.602502822875977 C8.792754173278809 10.503020286560059 8.527547836303711 10.403535842895508 8.5108642578125 10.072091102600098 L8.5108642578125 9.773765563964844 L9.356284141540527 9.67428207397461 C9.555251121520996 9.657723426818848 9.654609680175781 9.558238983154297 9.72097396850586 9.425637245178223 C9.787338256835938 9.309593200683594 9.8038969039917 9.193550109863281 9.8038969039917 9.193550109863281 L9.8038969039917 9.011268615722656 C9.505572319030762 9.027828216552734 8.444748878479004 9.127311706542969 8.245781898498535 9.160430908203125 L8.195978164672852 9.160430908203125 L8.195978164672852 9.160430908203125 M14.61072063446045 9.027828216552734 C14.345390319824219 9.011268615722656 14.129988670349121 9.011268615722656 13.931021690368652 9.044387817382812 C13.500093460083008 9.127311706542969 13.2182035446167 9.375957489013672 13.201767921447754 10.005727767944336 L13.201767921447754 12.790388107299805 C13.218328475952148 13.469837188720703 13.666065216064453 13.619125366210938 14.444873809814453 13.6854887008667 C15.240614891052246 13.751603126525879 15.87038516998291 13.602564811706543 15.87038516998291 12.972670555114746 L15.87038516998291 12.856627464294434 L15.87038516998291 10.088401794433594 C15.87038516998291 9.160430908203125 15.339974403381348 9.094191551208496 14.61072063446045 9.027828216552734 L14.61072063446045 9.027828216552734 M14.875801086425781 12.458943367004395 L14.875801086425781 12.624540328979492 C14.85924243927002 12.69090461730957 14.85924243927002 12.740833282470703 14.842681884765625 12.806947708129883 C14.842681884765625 12.806947708129883 14.826122283935547 12.823507308959961 14.809562683105469 12.823507308959961 C14.743199348449707 12.840067863464355 14.676835060119629 12.823507308959961 14.610595703125 12.823507308959961 C14.212787628173828 12.790388107299805 14.212787628173828 12.54186725616455 14.229347229003906 12.276535987854004 L14.229347229003906 10.3207368850708 C14.229347229003906 10.221254348754883 14.212787628173828 10.121770858764648 14.229347229003906 10.022412300109863 C14.229347229003906 9.90636920928955 14.245906829833984 9.80700969696045 14.262467384338379 9.72408676147461 L14.295835494995117 9.690967559814453 C14.361949920654297 9.690967559814453 14.41187858581543 9.674407005310059 14.478241920471191 9.690967559814453 C14.875801086425781 9.72408676147461 14.875801086425781 9.85681438446045 14.875801086425781 10.503144264221191 L14.875801086425781 12.458943367004395 L14.875801086425781 12.458943367004395 M16.533275604248047 9.25991439819336 L16.533275604248047 13.867770195007324 C16.86496925354004 13.917574882507324 17.146610260009766 13.967254638671875 17.478303909301758 14.033617973327637 L17.478303909301758 12.011455535888672 C17.743385314941406 12.740833282470703 17.991907119750977 13.436842918395996 18.240676879882812 14.182655334472656 C18.588682174682617 14.249019622802734 18.887006759643555 14.315382957458496 19.218578338623047 14.39805793762207 L19.218578338623047 9.806760787963867 C18.88713264465332 9.723837852478027 18.588682174682617 9.657598495483398 18.25723648071289 9.574674606323242 L18.25723648071289 11.795804023742676 C18.224117279052734 11.69644546508789 18.207683563232422 11.596961975097656 18.174312591552734 11.5140380859375 A25.206377029418945 25.206377029418945 0.0 0 0 17.85942840576172 10.320612907409668 C17.494863510131836 9.210110664367676 16.533275604248047 9.25991439819336 16.533275604248047 9.25991439819336 L16.533275604248047 9.25991439819336 M19.914710998535156 10.3705415725708 C19.898151397705078 10.403660774230957 19.898151397705078 10.436779975891113 19.898151397705078 10.436779975891113 C19.898151397705078 10.453340530395508 19.831789016723633 11.298637390136719 19.914710998535156 11.563966751098633 C20.047189712524414 11.961775779724121 20.312519073486328 12.177177429199219 20.660524368286133 12.392704010009766 C20.677082061767578 12.392704010009766 20.710329055786133 12.42607307434082 20.743446350097656 12.44250774383545 C20.776569366455078 12.458943367004395 20.809810638427734 12.49206256866455 20.84292984008789 12.541991233825684 L20.84292984008789 14.265703201293945 C20.56104278564453 14.182780265808105 20.26271629333496 14.100106239318848 19.981075286865234 14.03374195098877 L19.981075286865234 14.580714225769043 C20.362199783325195 14.680196762084961 20.710329055786133 14.779680252075195 21.074893951416016 14.895599365234375 C21.423145294189453 14.978523254394531 21.704788208007812 14.945402145385742 21.80414581298828 14.663637161254883 C21.837514877319336 14.63051700592041 21.837514877319336 14.597272872924805 21.837514877319336 14.597272872924805 C21.837514877319336 14.46479606628418 21.837514877319336 12.906681060791016 21.820707321166992 12.558674812316895 A0.5752350091934204 0.5752350091934204 0.0 0 0 21.655109405517578 12.2272310256958 C21.605304718017578 12.160866737365723 21.539066314697266 12.11093807220459 21.489261627197266 12.061384201049805 C21.423145294189453 12.011704444885254 21.356781005859375 11.961899757385254 21.306854248046875 11.912220001220703 C21.041772842407227 11.696819305419922 20.776443481445312 11.481292724609375 20.759883880615234 11.149724006652832 C20.776443481445312 11.050239562988281 20.759883880615234 10.950756072998047 20.759883880615234 10.851397514343262 C21.041772842407227 10.934321403503418 21.323537826538086 11.017120361328125 21.605180740356445 11.116602897644043 C21.787586212158203 11.166282653808594 21.887069702148438 11.100044250488281 21.969993591308594 11.017120361328125 C22.019550323486328 10.934196472167969 22.05291748046875 10.834837913513184 22.05291748046875 10.818278312683105 C22.05291748046875 10.751914024353027 22.036108016967773 10.685674667358398 22.036108016967773 10.619312286376953 C21.704662322998047 10.50326919555664 20.461559295654297 10.12201976776123 20.444997787475586 10.12201976776123 C20.14679718017578 10.038846969604492 19.96438980102539 10.10521125793457 19.914710998535156 10.3705415725708 M12.803834915161133 8.944905281066895 C12.008342742919922 8.911785125732422 11.245844841003418 8.9283447265625 10.433542251586914 8.9781494140625 L10.433542251586914 9.641162872314453 C10.682188987731934 9.624603271484375 10.89771556854248 9.608043670654297 11.129801750183105 9.608043670654297 L11.129801750183105 13.552885055541992 C11.477806091308594 13.53632640838623 11.792815208435059 13.53632640838623 12.140945434570312 13.53632640838623 L12.140945434570312 9.59135913848877 C12.870198249816895 9.641162872314453 12.803834915161133 8.944905281066895 12.803834915161133 8.944905281066895 L12.803834915161133 8.944905281066895 M5.262155532836914 11.298637390136719 C5.262155532836914 9.97260856628418 5.212475776672363 9.757205963134766 4.615700721740723 9.840004920959473 C3.7207250595092773 10.05553150177002 2.858743667602539 10.3207368850708 1.963644027709961 10.619062423706055 C1.963644027709961 10.619062423706055 1.8641595840454102 11.31519603729248 2.593538284301758 11.066550254821777 C2.593538284301758 12.392579078674316 2.5769777297973633 13.685613632202148 2.593538284301758 15.011393547058105 A10.159995079040527 10.159995079040527 0.0 0 1 3.6046810150146484 14.713068008422852 L3.6046810150146484 12.724024772644043 C3.919567108154297 12.624540328979492 4.217892169952393 12.558425903320312 4.532901763916016 12.475502967834473 C4.96382999420166 12.35945987701416 5.245595932006836 12.044574737548828 5.262155532836914 11.480918884277344 C5.262155532836914 11.447799682617188 5.245595932006836 11.431239128112793 5.245595932006836 11.397994995117188 C5.245595932006836 11.364751815795898 5.262155532836914 11.348440170288086 5.262155532836914 11.298637390136719 M4.234451770782471 11.928531646728516 L4.234451770782471 12.011455535888672 C4.184772491455078 12.011455535888672 4.151528358459473 12.028014183044434 4.10184907913208 12.044698715209961 C3.936126708984375 12.094254493713379 3.7704038619995117 12.144183158874512 3.5879974365234375 12.193737030029297 L3.5879974365234375 10.751665115356445 C3.6542367935180664 10.735105514526367 3.720600128173828 10.701986312866211 3.8034000396728516 10.685426712036133 C3.8697633743286133 10.668866157531738 3.936001777648926 10.652182579040527 3.985806465148926 10.652182579040527 C4.1349687576293945 10.635622024536133 4.201208114624023 10.701862335205078 4.234451770782471 10.801344871520996 C4.234451770782471 10.851024627685547 4.251011371612549 10.917387962341309 4.251011371612549 10.96706771850586 L4.251011371612549 11.132914543151855 C4.251011371612549 11.132914543151855 4.251011371612549 11.69644546508789 4.234451770782471 11.928531646728516 L4.234451770782471 11.928531646728516" fill="black" fill-opacity="1.0" filling="0"/></svg>