<?xml version="1.0" encoding="iso-8859-1"?><svg height="200px" viewBox="0.0 0.0 24.0 24.0" width="200px" xmlns="http://www.w3.org/2000/svg"><path animation_id="0" d="M0.0 0.0 L24.0 0.0 L24.0 24.0 L0.0 24.0 L0.0 0.0" fill="black" fill-opacity="1.0" filling="0"/>
<path animation_id="1" d="M0.3528604507446289 9.589366912841797 L0.3528604507446289 14.410881996154785 L11.999876022338867 14.410881996154785 L11.999876022338867 9.589366912841797 L0.3528604507446289 9.589366912841797 M2.9130306243896484 11.863785743713379 C2.9130306243896484 11.940608978271484 2.8273677825927734 12.041834831237793 2.7394628524780273 12.04619312286377 L2.680072784423828 12.04619312286377 L2.680072784423828 12.076947212219238 L2.7394628524780273 12.076947212219238 C2.8273677825927734 12.081304550170898 2.9130306243896484 12.184523582458496 2.9130306243896484 12.261469841003418 L2.9130306243896484 12.865840911865234 C2.8954734802246094 13.107514381408691 2.655917167663574 13.120712280273438 2.480109214782715 13.129551887512207 L1.016622543334961 13.129551887512207 L1.0430183410644531 12.971301078796387 L1.0430183410644531 11.204506874084473 L1.016622543334961 11.046256065368652 L2.480234146118164 11.046256065368652 C2.6560420989990234 11.055095672607422 2.895599365234375 11.07041072845459 2.913153648376465 11.309967041015625 L2.913153648376465 11.863785743713379 L2.9130306243896484 11.863785743713379 M4.704102516174316 13.131793975830078 L3.1657848358154297 13.131793975830078 L3.192180633544922 12.973541259765625 L3.192180633544922 11.206624031066895 L3.1657848358154297 11.048372268676758 L4.800722122192383 11.048372268676758 L4.701861381530762 11.248334884643555 L3.6712942123413086 11.248334884643555 L3.6712942123413086 11.991159439086914 L4.675589561462402 11.991159439086914 L4.5767292976379395 12.199962615966797 L3.671419143676758 12.199962615966797 L3.671419143676758 12.931706428527832 L4.803088188171387 12.931706428527832 L4.704102516174316 13.131793975830078 L4.704102516174316 13.131793975830078 M6.673099994659424 13.131793975830078 L4.998568058013916 13.131793975830078 L5.024964332580566 12.973541259765625 L5.024964332580566 11.206624031066895 L4.998568058013916 11.048372268676758 L5.523750305175781 11.048372268676758 L5.503953456878662 11.248334884643555 L5.503953456878662 12.931706428527832 L6.771960735321045 12.931706428527832 L6.673099994659424 13.131793975830078 L6.673099994659424 13.131793975830078 M6.840191841125488 12.79561710357666 L5.76567268371582 12.79561710357666 L5.8645339012146 12.59565544128418 L6.941293716430664 12.59565544128418 L6.840191841125488 12.79561710357666 M6.99620246887207 12.481229782104492 L5.921558856964111 12.481229782104492 L6.020419597625732 12.281268119812012 L7.09506368637085 12.281268119812012 L6.99620246887207 12.481229782104492 M7.613646030426025 13.131793975830078 L7.1390156745910645 12.169333457946777 L6.07545280456543 12.169333457946777 L6.1765546798706055 11.96937084197998 L7.040278911590576 11.96937084197998 L6.58756160736084 11.04862117767334 L7.0819902420043945 11.04862117767334 L8.125879287719727 13.131918907165527 L7.613646030426025 13.131918907165527 L7.613646030426025 13.131793975830078 L7.613646030426025 13.131793975830078 M8.664011001586914 13.131793975830078 L8.143186569213867 13.131793975830078 L8.16958236694336 12.973541259765625 L8.16958236694336 11.206624031066895 L8.143186569213867 11.048372268676758 L8.664011001586914 11.048372268676758 L8.637739181518555 11.206624031066895 L8.637739181518555 12.973541259765625 L8.664011001586914 13.131793975830078 L8.664011001586914 13.131793975830078 M10.406773567199707 13.131793975830078 L9.938741683959961 12.19124698638916 L9.47282600402832 12.19124698638916 L9.571686744689941 11.984684944152832 L10.224366188049316 11.984684944152832 C10.312270164489746 11.982443809509277 10.33642578125 11.896781921386719 10.329826354980469 11.837389945983887 L10.329826354980469 11.340721130371094 C10.329826354980469 11.268256187438965 10.250638961791992 11.246217727661133 10.187013626098633 11.246217727661133 L9.42003345489502 11.246217727661133 L9.42003345489502 12.964701652526855 L9.446304321289062 13.129551887512207 L8.91452407836914 13.131793975830078 L8.9407958984375 12.97142505645752 L8.9407958984375 11.204506874084473 L8.91452407836914 11.046256065368652 L10.378135681152344 11.046256065368652 C10.55381965637207 11.055095672607422 10.79113483428955 11.068293571472168 10.808815002441406 11.309967041015625 L10.808815002441406 11.975845336914062 C10.808815002441406 12.050676345825195 10.683558464050293 12.189130783081055 10.518708229064941 12.193488121032715 L10.437403678894043 12.19124698638916 L10.819772720336914 12.9624605178833 L10.9253568649292 13.131669998168945 L10.406773567199707 13.131669998168945 L10.406773567199707 13.131793975830078 L10.406773567199707 13.131793975830078" fill="black" fill-opacity="1.0" filling="0"/>
<path animation_id="2" d="M2.3285818099975586 11.984684944152832 C2.416484832763672 11.982443809509277 2.4406394958496094 11.896781921386719 2.434041976928711 11.837389945983887 L2.434041976928711 11.342962265014648 C2.434041976928711 11.268256187438965 2.354977607727051 11.246342658996582 2.2912282943725586 11.246342658996582 L1.5220069885253906 11.246342658996582 L1.5220069885253906 12.92971420288086 L2.2912282943725586 12.92971420288086 C2.354977607727051 12.92971420288086 2.434041976928711 12.910041809082031 2.434041976928711 12.835211753845215 L2.434041976928711 12.34078311920166 C2.4406394958496094 12.281268119812012 2.416484832763672 12.193488121032715 2.3285818099975586 12.193488121032715 L1.5747995376586914 12.193488121032715 L1.6759014129638672 11.984684944152832 L2.3285818099975586 11.984684944152832 L2.3285818099975586 11.984684944152832" fill="black" fill-opacity="1.0" filling="0"/>
<path animation_id="3" d="M14.49206256866455 11.488016128540039 C14.362447738647461 11.50345516204834 14.219511032104492 11.626470565795898 14.096370697021484 11.767167091369629 A2.7783102989196777 2.7783102989196777 0.0 0 0 13.894291877746582 12.035237312316895 C13.848098754882812 12.10346794128418 13.294404029846191 12.931831359863281 13.637303352355957 12.931831359863281 C13.771275520324707 12.931831359863281 13.951441764831543 12.78242015838623 14.096495628356934 12.633007049560547 C14.186765670776367 12.538505554199219 14.265703201293945 12.446243286132812 14.311897277832031 12.386852264404297 A3.3332502841949463 3.3332502841949463 0.0 0 0 14.604246139526367 11.932018280029297 C14.703105926513672 11.742888450622559 14.703105926513672 11.48353385925293 14.49206256866455 11.488016128540039 L14.49206256866455 11.488016128540039 M19.48042106628418 11.470459938049316 C19.3398494720459 11.470459938049316 19.225549697875977 11.606674194335938 19.133163452148438 11.734171867370605 C19.106891632080078 11.773765563964844 19.08061981201172 11.81323528289795 19.056339263916016 11.846230506896973 C19.012264251708984 11.90773868560791 18.950756072998047 12.01108169555664 18.876174926757812 12.158252716064453 C18.95088005065918 12.142937660217285 19.04326629638672 12.109942436218262 19.133163452148438 12.063749313354492 C19.350807189941406 11.95828914642334 19.568449020385742 11.77812385559082 19.568449020385742 11.553881645202637 C19.568449020385742 11.49897289276123 19.539813995361328 11.470459938049316 19.48042106628418 11.470459938049316 L19.48042106628418 11.470459938049316" fill="black" fill-opacity="1.0" filling="0"/>
<path animation_id="4" d="M12.0 9.589366912841797 L12.0 14.410881996154785 L23.647140502929688 14.410881996154785 L23.647140502929688 9.589366912841797 L12.0 9.589366912841797 M15.483283996582031 10.215526580810547 L14.678827285766602 12.53838062286377 C14.674469947814941 12.545103073120117 14.546971321105957 12.82176399230957 14.626035690307617 12.82176399230957 C14.722779273986816 12.82176399230957 14.804084777832031 12.804208755493164 14.992965698242188 12.55817699432373 C15.015128135681152 12.531781196594238 15.061071395874023 12.454833984375 15.100666046142578 12.454833984375 C15.146860122680664 12.454833984375 15.129303932189941 12.509742736816406 15.118221282958984 12.534022331237793 C15.091950416564941 12.591172218322754 15.02820110321045 12.681317329406738 14.924859046936035 12.797734260559082 C14.71406364440918 13.041648864746094 14.595405578613281 13.10103988647461 14.447986602783203 13.10103988647461 C14.232708930969238 13.10103988647461 14.324971199035645 12.863724708557129 14.360206604003906 12.7384672164917 L14.474506378173828 12.329702377319336 L14.474506378173828 12.32521915435791 L14.476747512817383 12.32086181640625 L14.465790748596191 12.327461242675781 L14.342775344848633 12.492311477661133 A2.7812986373901367 2.7812986373901367 0.0 0 1 14.096370697021484 12.777936935424805 C13.918322563171387 12.951628684997559 13.703168869018555 13.103156089782715 13.481168746948242 13.103156089782715 C13.092324256896973 13.103156089782715 13.336238861083984 12.424079895019531 13.408703804016113 12.257112503051758 C13.536076545715332 11.962647438049316 13.790948867797852 11.652742385864258 14.096370697021484 11.490132331848145 C14.230592727661133 11.417543411254883 14.373405456542969 11.375832557678223 14.520451545715332 11.375832557678223 C14.64807415008545 11.375832557678223 14.687542915344238 11.389031410217285 14.76461410522461 11.481292724609375 L15.133785247802734 10.42420482635498 C15.155699729919434 10.334059715270996 15.087593078613281 10.259354591369629 15.03480052947998 10.23744010925293 C14.98425006866455 10.23295783996582 14.957978248596191 10.217643737792969 14.95573616027832 10.189130783081055 C14.953495979309082 10.1495361328125 15.036916732788086 10.147419929504395 15.083110809326172 10.1495361328125 L15.39077377319336 10.096869468688965 C15.52038860321045 10.096993446350098 15.524871826171875 10.081554412841797 15.483283996582031 10.215526580810547 L15.483283996582031 10.215526580810547 M16.37078857421875 11.481416702270508 L15.959783554077148 12.55817699432373 L15.957541465759277 12.564776420593262 C15.93127155303955 12.621926307678223 15.904998779296875 12.683433532714844 15.874120712280273 12.736226081848145 C15.865405082702637 12.753782272338867 15.823570251464844 12.841686248779297 15.867522239685059 12.841686248779297 C15.889434814453125 12.841686248779297 15.918072700500488 12.830729484558105 15.959657669067383 12.806574821472168 C15.983938217163086 12.793500900268555 16.012451171875 12.7758207321167 16.043331146240234 12.751666069030762 A1.5578659772872925 1.5578659772872925 0.0 0 0 16.291601181030273 12.534147262573242 C16.31351661682129 12.509991645812988 16.357467651367188 12.514349937438965 16.357467651367188 12.551827430725098 C16.357467651367188 12.60449504852295 16.26097297668457 12.70783805847168 16.067359924316406 12.861607551574707 C16.030132293701172 12.892361640930176 15.992654800415039 12.918758392333984 15.959657669067383 12.945029258728027 C15.810372352600098 13.050613403320312 15.698188781738281 13.103281021118164 15.621365547180176 13.103281021118164 C15.509307861328125 13.103281021118164 15.520264625549316 12.982381820678711 15.566457748413086 12.841686248779297 L15.959657669067383 11.914338111877441 L16.03672981262207 11.72757339477539 C16.060760498046875 11.668181419372559 16.06960105895996 11.619871139526367 16.03449058532715 11.619871139526367 C16.010210037231445 11.619871139526367 15.990413665771484 11.62871265411377 15.959534645080566 11.648385047912598 C15.9157075881958 11.676897048950195 15.854199409484863 11.73193073272705 15.74213981628418 11.826434135437012 C15.726825714111328 11.839631080627441 15.704663276672363 11.86602783203125 15.68274974822998 11.86602783203125 C15.658470153808594 11.86602783203125 15.645271301269531 11.852829933166504 15.645271301269531 11.82867431640625 C15.645271301269531 11.789080619812012 15.663076400756836 11.73641300201416 15.851958274841309 11.59135913848877 C15.880470275878906 11.569445610046387 15.917823791503906 11.54080867767334 15.959409713745117 11.514411926269531 C16.06711196899414 11.439705848693848 16.20108413696289 11.362759590148926 16.302310943603516 11.362759590148926 C16.330947875976562 11.362759590148926 16.3551025390625 11.378198623657227 16.37041664123535 11.40011215209961 A0.07993526011705399 0.07993526011705399 0.0 0 1 16.383739471435547 11.446305274963379 L16.37078857421875 11.481416702270508 L16.37078857421875 11.481416702270508 M16.557554244995117 10.586938858032227 C16.522567749023438 10.672601699829102 16.447860717773438 10.747432708740234 16.37078857421875 10.780303001403809 A0.23768910765647888 0.23768910765647888 0.0 0 1 16.287368774414062 10.797858238220215 C16.184024810791016 10.797858238220215 16.13808250427246 10.70335578918457 16.184024810791016 10.586938858032227 C16.217145919799805 10.503393173217773 16.29172706604004 10.428688049316406 16.37078857421875 10.395816802978516 C16.39731216430664 10.384859085083008 16.42569923400879 10.378135681152344 16.452220916748047 10.378135681152344 C16.555437088012695 10.378260612487793 16.60163116455078 10.472639083862305 16.557554244995117 10.586938858032227 L16.557554244995117 10.586938858032227 M18.150907516479492 11.863785743713379 C17.964141845703125 11.852705001831055 18.098114013671875 11.619871139526367 17.992652893066406 11.619871139526367 C17.937746047973633 11.619871139526367 17.891677856445312 11.659465789794922 17.830169677734375 11.738530158996582 C17.742141723632812 11.846230506896973 17.667434692382812 11.960530281066895 17.597211837768555 12.076947212219238 C17.41704559326172 12.384611129760742 17.280832290649414 12.716429710388184 17.144371032714844 13.043889999389648 L17.124696731567383 13.087841987609863 C17.120338439941406 13.096681594848633 17.113740921020508 13.103281021118164 17.1025333404541 13.103281021118164 C17.095935821533203 13.103281021118164 17.089460372924805 13.10103988647461 17.078502655029297 13.098923683166504 L16.951129913330078 13.05932903289795 C16.929216384887695 13.046255111694336 16.920501708984375 13.035299301147461 16.922616958618164 13.02869987487793 L16.929216384887695 13.011019706726074 C17.032310485839844 12.674717903137207 17.14885139465332 12.353981018066406 17.236881256103516 12.01556396484375 C17.24783706665039 11.978086471557617 17.26750946044922 11.894664764404297 17.300628662109375 11.773890495300293 C17.36001968383789 11.562846183776855 17.351181030273438 11.534334182739258 17.168773651123047 11.655108451843262 C17.13565444946289 11.6792631149292 17.074146270751953 11.776007652282715 17.047874450683594 11.813360214233398 L16.968563079833984 11.773890495300293 C17.00379753112793 11.721098899841309 17.047874450683594 11.659589767456055 17.100666046142578 11.587125778198242 C17.26962661743164 11.354167938232422 17.351181030273438 11.351926803588867 17.46759605407715 11.351926803588867 C17.535703659057617 11.351926803588867 17.570690155029297 11.393638610839844 17.570690155029297 11.477184295654297 C17.570690155029297 11.743012428283691 17.45203399658203 11.995766639709473 17.372970581054688 12.250762939453125 C17.372970581054688 12.255121231079102 17.3707275390625 12.259478569030762 17.3707275390625 12.261719703674316 C17.3707275390625 12.270435333251953 17.375085830688477 12.274792671203613 17.381685256958008 12.274792671203613 C17.386043548583984 12.274792671203613 17.39040184020996 12.272552490234375 17.394758224487305 12.266077041625977 A3.993151903152466 3.993151903152466 0.0 0 1 17.59708595275879 11.899147033691406 C17.651996612548828 11.811243057250977 17.71138572692871 11.723339080810547 17.783851623535156 11.619996070861816 C17.91346549987793 11.442072868347168 18.025524139404297 11.351926803588867 18.126750946044922 11.351926803588867 C18.22772789001465 11.351926803588867 18.271678924560547 11.435473442077637 18.271678924560547 11.529975891113281 C18.271804809570312 11.619871139526367 18.241174697875977 11.85058879852295 18.150907516479492 11.863785743713379 L18.150907516479492 11.863785743713379 M19.133163452148438 12.178049087524414 C19.03006935119629 12.213160514831543 18.926725387573242 12.239557266235352 18.834341049194336 12.254996299743652 C18.7728328704834 12.430803298950195 18.605989456176758 12.885637283325195 18.961963653564453 12.885637283325195 C19.018863677978516 12.885637283325195 19.076013565063477 12.870198249816895 19.133163452148438 12.841561317443848 C19.212474822998047 12.802091598510742 19.291414260864258 12.736102104187012 19.370479583740234 12.6417236328125 C19.42987060546875 12.573492050170898 19.493494033813477 12.624042510986328 19.44754981994629 12.698748588562012 C19.394758224487305 12.77569580078125 19.344207763671875 12.837203025817871 19.295772552490234 12.881279945373535 A0.8796613216400146 0.8796613216400146 0.0 0 1 19.133039474487305 13.010894775390625 C19.032062530517578 13.072402000427246 18.92660140991211 13.103156089782715 18.816659927368164 13.103156089782715 C18.344144821166992 13.103156089782715 18.447486877441406 12.531781196594238 18.55518913269043 12.265828132629395 A1.7067795991897583 1.7067795991897583 0.0 0 1 18.805702209472656 11.832908630371094 C18.893482208251953 11.720849990844727 19.00342559814453 11.599950790405273 19.133039474487305 11.507689476013184 C19.253938674926758 11.424142837524414 19.390275955200195 11.364875793457031 19.537445068359375 11.364875793457031 C19.68013572692871 11.364875793457031 19.80128288269043 11.459379196166992 19.80128288269043 11.588994026184082 C19.808006286621094 11.85718822479248 19.469465255737305 12.063749313354492 19.133163452148438 12.178049087524414 L19.133163452148438 12.178049087524414 M21.42327117919922 11.696694374084473 C21.403350830078125 11.734046936035156 21.339601516723633 11.797796249389648 21.23401641845703 11.797796249389648 C21.080371856689453 11.793313980102539 21.154953002929688 11.49897289276123 21.025339126586914 11.49897289276123 C20.939674377441406 11.49897289276123 20.849529266357422 11.564963340759277 20.761751174926758 11.668181419372559 C20.636493682861328 11.817593574523926 20.522193908691406 12.044076919555664 20.453838348388672 12.261594772338867 C20.350746154785156 12.589056015014648 20.357343673706055 12.894477844238281 20.51534652709961 12.894477844238281 C20.590301513671875 12.894477844238281 20.680198669433594 12.872440338134766 20.761751174926758 12.83297061920166 C20.845172882080078 12.793500900268555 20.91763687133789 12.74070930480957 20.95075798034668 12.679201126098633 C20.99483299255371 12.604371070861816 21.10004425048828 12.61545181274414 21.012264251708984 12.767105102539062 C20.96607208251953 12.855009078979492 20.871444702148438 12.93407154083252 20.761751174926758 12.993339538574219 C20.638734817504883 13.061570167541504 20.49567222595215 13.103281021118164 20.372657775878906 13.103281021118164 C19.95953369140625 13.103281021118164 20.089149475097656 12.492436408996582 20.166221618652344 12.255121231079102 C20.253999710083008 11.993525505065918 20.476001739501953 11.663948059082031 20.761751174926758 11.488140106201172 C20.889123916625977 11.409077644348145 21.027578353881836 11.360767364501953 21.170269012451172 11.360767364501953 C21.462615966796875 11.360517501831055 21.453901290893555 11.611031532287598 21.42327117919922 11.696694374084473 L21.42327117919922 11.696694374084473 M22.849281311035156 11.624229431152344 L22.385730743408203 11.628586769104004 L22.306419372558594 11.89229965209961 L22.110939025878906 12.529664993286133 C22.102222442626953 12.547221183776855 21.996639251708984 12.841686248779297 22.062503814697266 12.841686248779297 C22.095623016357422 12.841686248779297 22.152774810791016 12.813173294067383 22.236194610595703 12.751541137695312 C22.260475158691406 12.736226081848145 22.284629821777344 12.714187622070312 22.306419372558594 12.694391250610352 C22.36581039428711 12.63499927520752 22.41847801208496 12.564776420593262 22.4735107421875 12.50538444519043 C22.495424270629883 12.481229782104492 22.53937530517578 12.485588073730469 22.53937530517578 12.522941589355469 C22.53937530517578 12.571375846862793 22.46691131591797 12.68779182434082 22.306419372558594 12.826371192932129 C22.291105270385742 12.83732795715332 22.27790641784668 12.850525856018066 22.262592315673828 12.861482620239258 C22.058021545410156 13.021851539611816 21.91097640991211 13.103156089782715 21.814105987548828 13.103156089782715 C21.704166412353516 13.103156089782715 21.71300506591797 12.982257843017578 21.759199142456055 12.841561317443848 L22.124011993408203 11.630704879760742 L21.818588256835938 11.635062217712402 L21.847227096557617 11.52524471282959 L22.198841094970703 11.46361255645752 L22.306293487548828 11.252692222595215 L22.398681640625 11.063687324523926 L22.565773010253906 11.061445236206055 L22.435909271240234 11.467970848083496 L22.8843936920166 11.474568367004395 L22.849281311035156 11.624229431152344 L22.849281311035156 11.624229431152344" fill="black" fill-opacity="1.0" filling="0"/></svg>