<?xml version="1.0" encoding="iso-8859-1"?><svg height="200px" viewBox="0.0 0.0 24.0 24.0" width="200px" xmlns="http://www.w3.org/2000/svg"><path animation_id="0" d="M0.0 0.0 L24.0 0.0 L24.0 24.0 L0.0 24.0 L0.0 0.0" fill="black" fill-opacity="1.0" filling="0"/>
<path animation_id="1" d="M14.558177947998047 15.616510391235352 L14.242794036865234 15.616510391235352 L14.242794036865234 15.57181167602539 L14.558177947998047 15.119466781616211 L14.558177947998047 15.616510391235352 L14.558177947998047 15.616510391235352 M14.111684799194336 14.524062156677246 L13.468717575073242 15.452779769897461 L13.468717575073242 17.098674774169922 L14.242794036865234 17.098674774169922 L14.242794036865234 16.006349563598633 L14.558177947998047 16.006349563598633 L14.558177947998047 17.098674774169922 L15.32901668548584 17.098674774169922 L15.32901668548584 14.524062156677246 L14.111684799194336 14.524062156677246 M15.462740898132324 14.524062156677246 L15.462740898132324 17.098674774169922 L16.239805221557617 17.098674774169922 L16.239805221557617 15.812986373901367 L16.805204391479492 17.098674774169922 L17.58500862121582 17.098674774169922 L17.58500862121582 14.524062156677246 L16.805204391479492 14.524062156677246 L16.805204391479492 15.812986373901367 L16.239805221557617 14.524062156677246 L15.462740898132324 14.524062156677246 L15.462740898132324 14.524062156677246 M17.703914642333984 14.524062156677246 L17.703914642333984 17.098674774169922 L19.498600006103516 17.098674774169922 L19.498600006103516 14.524062156677246 L17.703914642333984 14.524062156677246 M18.78154754638672 16.458818435668945 L18.472017288208008 16.458818435668945 L18.472017288208008 15.095561027526855 L18.78154754638672 15.095561027526855 L18.78154754638672 16.458818435668945 M19.614891052246094 15.967628479003906 L20.674468994140625 15.967628479003906 L20.674468994140625 16.39320182800293 L19.614891052246094 16.39320182800293 L19.614891052246094 17.098674774169922 L20.882648468017578 17.098674774169922 L21.44506072998047 16.548091888427734 L21.44506072998047 15.574674606323242 L20.358837127685547 15.574674606323242 L20.358837127685547 15.163917541503906 L21.222064971923828 15.163917541503906 L21.222064971923828 14.524062156677246 L20.091014862060547 14.524062156677246 L19.614891052246094 15.000310897827148 L19.614891052246094 15.967628479003906 L19.614891052246094 15.967628479003906 M7.340721130371094 10.765111923217773 L6.304924488067627 10.765111923217773 L6.304924488067627 14.196725845336914 L7.340721130371094 14.196725845336914 L7.340721130371094 10.765111923217773 M9.534209251403809 13.443690299987793 L8.572869300842285 13.443690299987793 L8.572869300842285 10.759136199951172 L7.534084320068359 10.759136199951172 L7.534084320068359 14.190749168395996 L9.534209251403809 14.190749168395996 L9.534209251403809 13.443690299987793 L9.534209251403809 13.443690299987793 M5.346573352813721 14.524062156677246 L5.346573352813721 17.098674774169922 L7.14424467086792 17.098674774169922 L7.14424467086792 14.524062156677246 L6.423955917358398 14.524062156677246 L6.423955917358398 16.458818435668945 L6.111311912536621 16.458818435668945 L6.111311912536621 14.524062156677246 L5.346573352813721 14.524062156677246 M9.668182373046875 16.53302764892578 L9.668182373046875 14.529912948608398 L8.888253211975098 14.529912948608398 L8.888253211975098 17.098674774169922 L10.388470649719238 17.098674774169922 L10.388470649719238 16.53302764892578 L9.668182373046875 16.53302764892578 M8.054908752441406 16.53302764892578 L8.054908752441406 14.529912948608398 L7.278217315673828 14.529912948608398 L7.278217315673828 17.098674774169922 L8.775197982788086 17.098674774169922 L8.775197982788086 16.53302764892578 L8.054908752441406 16.53302764892578 M11.31096363067627 14.533150672912598 L10.531283378601074 14.533150672912598 L10.531283378601074 17.10452651977539 L11.31096363067627 17.10452651977539 L11.31096363067627 14.533150672912598 M12.197846412658691 15.095561027526855 L13.224802017211914 15.095561027526855 L13.224802017211914 14.524062156677246 L11.715744972229004 14.524062156677246 L11.433107376098633 14.806947708129883 L11.433107376098633 16.809810638427734 L11.715744972229004 17.098674774169922 L13.040155410766602 17.098674774169922 L13.323040008544922 16.809810638427734 L13.323040008544922 15.440951347351074 L12.376517295837402 15.440951347351074 L12.376517295837402 15.91408920288086 L12.54896354675293 15.91408920288086 L12.54896354675293 16.458818435668945 L12.197846412658691 16.458818435668945 L12.197846412658691 15.095561027526855 L12.197846412658691 15.095561027526855 M6.090643405914307 14.190749168395996 L6.090643405914307 10.759136199951172 L4.75726842880249 10.759136199951172 L4.346510887145996 12.43491268157959 L3.894166946411133 10.759136199951172 L2.5548152923583984 10.759136199951172 L2.5548152923583984 14.190749168395996 L3.596464157104492 14.190749168395996 L3.596464157104492 12.024154663085938 L4.12338924407959 14.190749168395996 L4.534022331237793 14.190749168395996 L5.05484676361084 12.024154663085938 L5.05484676361084 14.190749168395996 L6.090643405914307 14.190749168395996 M2.5548152923583984 14.524062156677246 L2.5548152923583984 17.098674774169922 L3.3374834060668945 17.098674774169922 L3.3374834060668945 15.476686477661133 L3.730436325073242 17.098674774169922 L4.036979675292969 17.098674774169922 L4.435784339904785 15.476686477661133 L4.435784339904785 17.098674774169922 L5.2096123695373535 17.098674774169922 L5.2096123695373535 14.524062156677246 L4.206686019897461 14.524062156677246 L3.9001426696777344 15.780116081237793 L3.56072998046875 14.524062156677246 L2.5548152923583984 14.524062156677246 L2.5548152923583984 14.524062156677246 M14.855755805969238 8.199589729309082 C14.870572090148926 8.095499038696289 14.861607551574707 7.9972615242004395 14.831974029541016 7.892921447753906 A0.9774014949798584 0.9774014949798584 0.0 0 0 14.659278869628906 7.583515167236328 C14.570005416870117 7.479300498962402 14.454087257385254 7.3811869621276855 14.319990158081055 7.297889709472656 L16.141443252563477 7.461370944976807 L15.278341293334961 9.96451473236084 L14.037103652954102 10.074706077575684 L14.534147262573242 9.410943984985352 L13.468467712402344 9.946585655212402 L12.352487564086914 8.631139755249023 L12.873435974121094 9.681753158569336 L11.492374420166016 8.640104293823242 L10.447612762451172 5.080495834350586 L12.605490684509277 6.601382255554199 C12.444748878479004 6.568636417388916 12.316877365112305 6.571624279022217 12.212786674499512 6.607234477996826 C12.117412567138672 6.63699197769165 12.054908752441406 6.690655708312988 12.013322830200195 6.776940822601318 C11.974600791931152 6.854385852813721 11.965635299682617 6.9554877281188965 11.980452537536621 7.068542957305908 C11.995393753051758 7.181722164154053 12.028139114379883 7.306729793548584 12.087779998779297 7.440577507019043 A2.565647840499878 2.565647840499878 0.0 0 0 12.316877365112305 7.848347187042236 A3.0606985092163086 3.0606985092163086 0.0 0 0 12.638360977172852 8.238187789916992 C12.7633695602417 8.369047164916992 12.89734172821045 8.476250648498535 13.031064987182617 8.571500778198242 A1.786590337753296 1.786590337753296 0.0 0 0 13.468591690063477 8.80358600616455 C13.611529350280762 8.854137420654297 13.751354217529297 8.878043174743652 13.885451316833496 8.884018898010254 C14.007471084594727 8.889871597290039 14.132478713989258 8.878043174743652 14.245657920837402 8.845296859741211 A0.9599701166152954 0.9599701166152954 0.0 0 0 14.543111801147461 8.696507453918457 A0.8612338900566101 0.8612338900566101 0.0 0 0 14.751541137695312 8.473386764526367 A0.6879163384437561 0.6879163384437561 0.0 0 0 14.855755805969238 8.199589729309082 M15.323165893554688 11.860424995422363 A1.4084542989730835 1.4084542989730835 0.0 0 1 15.293283462524414 12.390213966369629 C15.248584747314453 12.595406532287598 15.168274879455566 12.792006492614746 15.046256065368652 12.99134635925293 C14.912282943725586 13.208740234375 14.742700576782227 13.416921615600586 14.534396171569824 13.616385459899902 L16.504638671875 12.982630729675293 L15.174127578735352 10.262092590332031 L13.462864875793457 10.393077850341797 L11.60866641998291 9.056714057922363 L9.91209602355957 11.116353988647461 L12.311149597167969 13.065803527832031 C12.058021545410156 12.714685440063477 11.855568885803223 12.372533798217773 11.6979398727417 12.04806137084961 C11.552263259887695 11.75633430480957 11.459877014160156 11.488389015197754 11.403348922729492 11.241487503051758 C11.349685668945312 11.012264251708984 11.340845108032227 10.81865119934082 11.370603561401367 10.655045509338379 C11.400361061096191 10.500280380249023 11.462865829467773 10.387226104736328 11.558115005493164 10.312768936157227 C11.653365135192871 10.244288444519043 11.7723970413208 10.217517852783203 11.909233093261719 10.238311767578125 C12.055033683776855 10.259105682373047 12.212911605834961 10.327585220336914 12.376517295837402 10.446617126464844 C12.55506420135498 10.571499824523926 12.733736991882324 10.738219261169434 12.906182289123535 10.958600997924805 C13.099794387817383 11.190686225891113 13.284317970275879 11.464484214782715 13.456764221191406 11.786092758178711 C13.62061882019043 11.583639144897461 13.790201187133789 11.422897338867188 13.968873023986816 11.309843063354492 C14.132478713989258 11.205628395080566 14.290108680725098 11.140260696411133 14.444997787475586 11.122331619262695 C14.59378719329834 11.101537704467773 14.733612060546875 11.122331619262695 14.855755805969238 11.181846618652344 C14.98076343536377 11.23538589477539 15.079002380371094 11.324784278869629 15.165037155151367 11.437838554382324 C15.248584747314453 11.556745529174805 15.299135208129883 11.696694374084473 15.323165893554688 11.860424995422363 L15.323165893554688 11.860424995422363" fill="black" fill-opacity="1.0" filling="0"/></svg>