<?xml version="1.0" encoding="iso-8859-1"?><svg height="200px" viewBox="0.0 0.0 24.0 24.0" width="200px" xmlns="http://www.w3.org/2000/svg"><path animation_id="0" d="M0.0 0.0 L24.0 0.0 L24.0 24.0 L0.0 24.0 L0.0 0.0" fill="black" fill-opacity="1.0" filling="0"/>
<path animation_id="1" d="M23.647140502929688 14.564278602600098 L23.647140502929688 6.839569091796875 L0.3528604507446289 6.839569091796875 L0.3528604507446289 14.564278602600098 L23.647140502929688 14.564278602600098" fill="black" fill-opacity="1.0" filling="0"/>
<path animation_id="2" d="M5.322418212890625 13.528979301452637 L6.3575921058654785 13.528979301452637 L4.623544692993164 9.12893009185791 L3.5882463455200195 9.12893009185791 L2.5736160278320312 11.66544246673584 L1.747370719909668 11.66544246673584 L1.410944938659668 12.390213966369629 L2.2837581634521484 12.390213966369629 L1.828176498413086 13.528979301452637 L2.8118038177490234 13.528979301452637 L3.2220630645751953 12.390213966369629 L4.235323429107666 12.390213966369629 L4.571748733520508 11.66544246673584 L3.4831600189208984 11.66544246673584 L4.080060005187988 10.008964538574219 L5.322418212890625 13.528979301452637 M9.46361255645752 13.473572731018066 L8.655170440673828 13.473572731018066 L8.655170440673828 13.166656494140625 L8.643714904785156 13.166656494140625 C8.255619049072266 13.546161651611328 7.979704856872559 13.546161651611328 7.720724582672119 13.546161651611328 C6.461184501647949 13.546161651611328 6.258482456207275 12.625785827636719 6.258482456207275 11.6697998046875 C6.258482456207275 10.914897918701172 6.745813846588135 10.138455390930176 7.605926990509033 10.138455390930176 C8.098984718322754 10.138455390930176 8.402291297912598 10.31961727142334 8.592044830322266 10.578472137451172 L8.603623390197754 10.578472137451172 L8.603623390197754 8.776567459106445 L9.46361255645752 8.776567459106445 L9.46361255645752 13.473572731018066 L9.46361255645752 13.473572731018066 M7.869638919830322 10.863101959228516 C7.4101972579956055 10.863101959228516 7.220444679260254 11.312333106994629 7.220444679260254 11.898399353027344 C7.220444679260254 12.595406532287598 7.599950313568115 12.884891510009766 7.875614643096924 12.884891510009766 C8.359210968017578 12.884891510009766 8.618066787719727 12.39008903503418 8.618066787719727 11.950071334838867 C8.618066787719727 11.458382606506348 8.514474868774414 10.863101959228516 7.869638919830322 10.863101959228516 L7.869638919830322 10.863101959228516 M12.707589149475098 13.270124435424805 C12.457324981689453 13.47718334197998 11.877981185913086 13.55002212524414 11.434476852416992 13.55002212524414 C10.43790054321289 13.55002212524414 9.844114303588867 12.845296859741211 9.844114303588867 11.824565887451172 C9.844114303588867 10.932205200195312 10.390461921691895 10.135466575622559 11.347942352294922 10.135466575622559 C12.364937782287598 10.135466575622559 12.924236297607422 10.77270793914795 12.924236297607422 11.710639953613281 C12.924236297607422 11.845358848571777 12.908173561096191 11.98007869720459 12.897217750549316 12.10969352722168 L10.69725513458252 12.10969352722168 C10.707962036132812 12.66923999786377 11.1057710647583 12.90082836151123 11.679139137268066 12.90082836151123 C11.948204040527344 12.90082836151123 12.301812171936035 12.8129243850708 12.707464218139648 12.586316108703613 L12.707464218139648 13.270124435424805 L12.707589149475098 13.270124435424805 M12.112183570861816 11.487767219543457 C12.09587287902832 11.057710647583008 11.79680061340332 10.81130599975586 11.391022682189941 10.81130599975586 C11.017867088317871 10.81130599975586 10.752288818359375 11.073273658752441 10.714312553405762 11.487767219543457 L12.112183570861816 11.487767219543457 L12.112183570861816 11.487767219543457 M15.623483657836914 10.949387550354004 L15.701051712036133 10.267821311950684 C15.701051712036133 10.267821311950684 15.209362983703613 10.138455390930176 14.863723754882812 10.138455390930176 C14.517960548400879 10.138455390930176 13.25094985961914 10.285127639770508 13.25094985961914 11.803524017333984 C13.25094985961914 13.321920394897461 14.165349006652832 13.528979301452637 14.99308967590332 13.528979301452637 C15.588869094848633 13.528979301452637 15.735541343688965 13.399614334106445 15.735541343688965 13.399614334106445 L15.683745384216309 12.743821144104004 C15.683745384216309 12.743821144104004 15.468094825744629 12.873187065124512 15.062690734863281 12.873187065124512 C14.657038688659668 12.873187065124512 14.182655334472656 12.674717903137207 14.182655334472656 11.88109302520752 C14.182655334472656 11.087469100952148 14.691652297973633 10.845794677734375 14.993712425231934 10.845794677734375 C15.356036186218262 10.845794677734375 15.623483657836914 10.949387550354004 15.623483657836914 10.949387550354004 L15.623483657836914 10.949387550354004 M18.263587951660156 10.949387550354004 L18.341157913208008 10.267821311950684 C18.341157913208008 10.267821311950684 17.849468231201172 10.138455390930176 17.503829956054688 10.138455390930176 C17.158063888549805 10.138455390930176 15.891054153442383 10.285127639770508 15.891054153442383 11.803524017333984 C15.891054153442383 13.321920394897461 16.80545425415039 13.528979301452637 17.633193969726562 13.528979301452637 C18.228973388671875 13.528979301452637 18.375646591186523 13.399614334106445 18.375646591186523 13.399614334106445 L18.323850631713867 12.743821144104004 C18.323850631713867 12.743821144104004 18.108200073242188 12.873187065124512 17.702795028686523 12.873187065124512 C17.297142028808594 12.873187065124512 16.82276153564453 12.674717903137207 16.82276153564453 11.88109302520752 C16.82276153564453 11.087469100952148 17.331756591796875 10.845794677734375 17.633817672729492 10.845794677734375 C17.996017456054688 10.845794677734375 18.263587951660156 10.949387550354004 18.263587951660156 10.949387550354004 L18.263587951660156 10.949387550354004 M21.507314682006836 10.845794677734375 C21.507314682006836 10.845794677734375 21.81373405456543 11.143497467041016 21.81373405456543 12.023407936096191 C21.81373405456543 12.985494613647461 20.971797943115234 13.528979301452637 20.247154235839844 13.528979301452637 C20.247154235839844 13.528979301452637 18.47039794921875 13.727448463439941 18.47039794921875 11.94148063659668 C18.47039794921875 10.155637741088867 20.118160247802734 10.164228439331055 20.118160247802734 10.164228439331055 L22.551204681396484 10.164228439331055 L22.300941467285156 10.837203979492188 L21.507314682006836 10.845794677734375 L21.507314682006836 10.845794677734375 M19.367862701416016 11.950196266174316 C19.367862701416016 12.718047142028809 19.842370986938477 12.873311042785645 20.170082092285156 12.873311042785645 C20.497791290283203 12.873311042785645 20.946521759033203 12.588682174682617 20.946521759033203 11.872501373291016 C20.946521759033203 11.15632152557373 20.506629943847656 10.845794677734375 20.20456886291504 10.845794677734375 C19.68710708618164 10.845794677734375 19.367862701416016 11.182344436645508 19.367862701416016 11.950196266174316 L19.367862701416016 11.950196266174316" fill="black" fill-opacity="1.0" filling="0"/>
<path animation_id="3" d="M0.4493560791015625 15.7103910446167 L0.644587516784668 15.7103910446167 L0.644587516784668 17.160430908203125 L0.4493560791015625 17.160430908203125 L0.4493560791015625 15.7103910446167 L0.4493560791015625 15.7103910446167 M3.862417221069336 15.7103910446167 L4.043578624725342 15.7103910446167 L4.429558753967285 16.717798233032227 L4.429558753967285 15.7103910446167 L4.614580154418945 15.7103910446167 L4.614580154418945 17.160430908203125 L4.431550979614258 17.160430908203125 L4.047562599182129 16.144929885864258 L4.047562599182129 17.160430908203125 L3.862417221069336 17.160430908203125 L3.862417221069336 15.7103910446167 L3.862417221069336 15.7103910446167 M7.987424850463867 15.892547607421875 L7.719106197357178 15.892547607421875 L7.719106197357178 15.710639953613281 L8.453963279724121 15.710639953613281 L8.453963279724121 15.892547607421875 L8.185644149780273 15.892547607421875 L8.185644149780273 17.160430908203125 L7.987424850463867 17.160430908203125 L7.987424850463867 15.892547607421875 L7.987424850463867 15.892547607421875 M11.557866096496582 15.710639953613281 L12.13720989227295 15.710639953613281 L12.13720989227295 15.886073112487793 L11.752972602844238 15.886073112487793 L11.752972602844238 16.316505432128906 L12.104713439941406 16.316505432128906 L12.104713439941406 16.489198684692383 L11.752972602844238 16.489198684692383 L11.752972602844238 16.978271484375 L12.13720989227295 16.978271484375 L12.13720989227295 17.16018295288086 L11.557866096496582 17.16018295288086 L11.557866096496582 15.710639953613281 M15.498973846435547 16.342527389526367 L15.498973846435547 15.87984848022461 L15.553632736206055 15.87984848022461 C15.715620040893555 15.87984848022461 15.77638053894043 15.922804832458496 15.77638053894043 16.088651657104492 C15.77638053894043 16.26682472229004 15.727697372436523 16.342527389526367 15.559734344482422 16.342527389526367 L15.498973846435547 16.342527389526367 M15.498973846435547 16.453340530395508 L15.505073547363281 16.453340530395508 L15.835522651672363 17.160554885864258 L16.045696258544922 17.160554885864258 L15.701550483703613 16.447364807128906 C15.882711410522461 16.42507553100586 15.974600791931152 16.30567169189453 15.974600791931152 16.088651657104492 C15.974600791931152 15.807134628295898 15.841873168945312 15.7103910446167 15.539314270019531 15.7103910446167 L15.303617477416992 15.7103910446167 L15.303617477416992 17.160430908203125 L15.498847961425781 17.160430908203125 L15.498847961425781 16.453340530395508 L15.498973846435547 16.453340530395508 L15.498973846435547 16.453340530395508 M19.146984100341797 15.7103910446167 L19.34234046936035 15.7103910446167 L19.34234046936035 17.160430908203125 L19.146984100341797 17.160430908203125 L19.146984100341797 15.7103910446167 L19.146984100341797 15.7103910446167 M22.628650665283203 15.7103910446167 L22.805702209472656 15.7103910446167 L23.002925872802734 16.715682983398438 L23.20425796508789 15.7103910446167 L23.375211715698242 15.7103910446167 L23.50121307373047 17.160430908203125 L23.320301055908203 17.160430908203125 L23.261159896850586 16.14293670654297 L23.068044662475586 17.160430908203125 L22.935815811157227 17.160430908203125 L22.74270248413086 16.14293670654297 L22.683685302734375 17.160430908203125 L22.504638671875 17.160430908203125 L22.628650665283203 15.7103910446167 L22.628650665283203 15.7103910446167" fill="black" fill-opacity="1.0" filling="0"/></svg>