<?xml version="1.0" encoding="iso-8859-1"?><svg height="200px" viewBox="0.0 0.0 24.0 24.0" width="200px" xmlns="http://www.w3.org/2000/svg"><path animation_id="0" d="M0.0 0.0 L24.0 0.0 L24.0 24.0 L0.0 24.0 L0.0 0.0" fill="black" fill-opacity="1.0" filling="0"/>
<path animation_id="1" d="M8.137832641601562 12.840814590454102 L8.82226276397705 12.840814590454102 L9.037415504455566 11.628462791442871 L10.054286003112793 11.628462791442871 L10.269438743591309 12.840814590454102 L10.953868865966797 12.840814590454102 L9.917449951171875 7.365373611450195 L9.174375534057617 7.365373611450195 L8.137832641601562 12.840814590454102 L8.137832641601562 12.840814590454102 M9.154703140258789 10.983128547668457 L9.526241302490234 8.714685440063477 L9.545788764953613 8.714685440063477 L9.936873435974121 10.983128547668457 L9.154703140258789 10.983128547668457 L9.154703140258789 10.983128547668457 M11.462242126464844 12.840814590454102 L12.107576370239258 12.840814590454102 L12.107576370239258 11.413434982299805 C12.107576370239258 10.983253479003906 12.303056716918945 9.84909439086914 12.811554908752441 9.84909439086914 C12.909295082092285 9.84909439086914 12.987361907958984 9.868642807006836 13.085351943969727 9.927287101745605 L13.124198913574219 9.281951904296875 C13.026458740234375 9.203760147094727 12.928718566894531 9.184087753295898 12.811429977416992 9.184087753295898 C12.498412132263184 9.184087753295898 12.38124942779541 9.340471267700195 12.126875877380371 10.200959205627441 L12.107451438903809 10.200959205627441 L12.107451438903809 9.242732048034668 L11.462118148803711 9.242732048034668 L11.462118148803711 12.840814590454102 L11.462242126464844 12.840814590454102 L11.462242126464844 12.840814590454102 M15.803524017333984 12.175932884216309 C15.686360359191895 12.273672103881836 15.58824634552002 12.35198974609375 15.549400329589844 12.35198974609375 C15.490507125854492 12.35198974609375 15.451659202575684 12.29334545135498 15.451659202575684 12.136712074279785 L15.451659202575684 10.103218078613281 C15.451659202575684 9.438337326049805 14.943161010742188 9.144991874694824 14.473760604858398 9.144991874694824 C14.1216459274292 9.144991874694824 13.886944770812988 9.242732048034668 13.49586009979248 9.594720840454102 L13.49586009979248 10.33779525756836 C13.886944770812988 9.907613754272461 14.16074275970459 9.73155689239502 14.434539794921875 9.73155689239502 C14.688663482666016 9.73155689239502 14.806076049804688 9.887941360473633 14.806076049804688 10.200959205627441 L14.806076049804688 10.552947998046875 C13.80875301361084 11.139513969421387 13.417792320251465 11.43285846710205 13.417792320251465 12.019548416137695 C13.417792320251465 12.508373260498047 13.75023365020752 12.938554763793945 14.121521949768066 12.938554763793945 C14.375894546508789 12.938554763793945 14.590923309326172 12.782171249389648 14.825499534606934 12.469402313232422 C14.903816223144531 12.762621879577637 15.079873085021973 12.919007301330566 15.294901847839355 12.919007301330566 C15.451534271240234 12.919007301330566 15.58812141418457 12.840689659118652 15.803400039672852 12.645209312438965 L15.803400039672852 12.175932884216309 L15.803524017333984 12.175932884216309 M14.806200981140137 11.921808242797852 C14.688788414001465 12.175932884216309 14.532403945922852 12.332566261291504 14.35634708404541 12.332566261291504 C14.18053913116455 12.332566261291504 14.0435791015625 12.175932884216309 14.0435791015625 11.921808242797852 C14.0435791015625 11.589366912841797 14.278280258178711 11.315569877624512 14.806200981140137 10.983128547668457 L14.806200981140137 11.921808242797852 M16.057647705078125 12.840814590454102 L16.742202758789062 12.840814590454102 L17.231029510498047 11.589366912841797 L17.798046112060547 12.840814590454102 L18.462928771972656 12.840814590454102 L17.583141326904297 11.002676963806152 L18.38486099243164 9.242732048034668 L17.7199764251709 9.242732048034668 L17.231029510498047 10.376891136169434 L16.742202758789062 9.242732048034668 L16.057647705078125 9.242732048034668 L16.89858627319336 11.002676963806152 L16.057647705078125 12.840814590454102 M19.049741744995117 12.840814590454102 L19.694950103759766 12.840814590454102 L19.694950103759766 9.242732048034668 L19.049741744995117 9.242732048034668 L19.049741744995117 12.840814590454102 M19.01064682006836 7.69781494140625 C19.01064682006836 7.8934197425842285 19.167030334472656 8.069352149963379 19.382183074951172 8.069352149963379 C19.57766342163086 8.069352149963379 19.753719329833984 7.8932952880859375 19.753719329833984 7.69781494140625 C19.753719329833984 7.502335071563721 19.57766342163086 7.326277732849121 19.382183074951172 7.326277732849121 C19.16690444946289 7.326277732849121 19.01064682006836 7.502335071563721 19.01064682006836 7.69781494140625 L19.01064682006836 7.69781494140625 M20.379505157470703 12.645334243774414 C20.633628845214844 12.840814590454102 20.848907470703125 12.938554763793945 21.083484649658203 12.938554763793945 C21.591732025146484 12.938554763793945 21.963268280029297 12.547470092773438 21.963268280029297 12.0 C21.963268280029297 11.139513969421387 21.005168914794922 10.494304656982422 21.005168914794922 9.98580551147461 C21.005168914794922 9.809749603271484 21.102909088134766 9.71200942993164 21.259292602539062 9.71200942993164 C21.435348510742188 9.71200942993164 21.591732025146484 9.790201187133789 21.826433181762695 9.96625804901123 L21.826433181762695 9.360020637512207 C21.611406326293945 9.203636169433594 21.415924072265625 9.144866943359375 21.20077133178711 9.144866943359375 C20.75116729736328 9.144866943359375 20.418725967407227 9.496856689453125 20.418725967407227 9.985681533813477 C20.418725967407227 10.787399291992188 21.337732315063477 11.471830368041992 21.337732315063477 12.019423484802246 C21.337732315063477 12.195480346679688 21.20077133178711 12.332440376281738 21.005290985107422 12.332440376281738 C20.809810638427734 12.332440376281738 20.63375473022461 12.234701156616211 20.37963104248047 11.941231727600098 L20.37963104248047 12.645334243774414 L20.379505157470703 12.645334243774414 L20.379505157470703 12.645334243774414" fill="black" fill-opacity="1.0" filling="0"/>
<path animation_id="2" d="M4.265953063964844 11.139513969421387 C3.9726076126098633 11.667559623718262 3.757579803466797 12.273672103881836 3.640167236328125 12.840814590454102 L6.612588405609131 12.840814590454102 L6.612588405609131 9.340471267700195 A3.1239495277404785 3.1239495277404785 0.0 0 0 5.869513988494873 9.536076545715332 C5.400112152099609 9.751105308532715 4.793874263763428 10.200959205627441 4.265953063964844 11.139513969421387 L4.265953063964844 11.139513969421387" fill="black" fill-opacity="1.0" filling="0"/>
<path animation_id="3" d="M1.0588302612304688 7.287181854248047 L1.0588302612304688 12.840814590454102 L2.271306037902832 12.840814590454102 C2.642843246459961 11.706655502319336 3.405466079711914 10.670235633850098 4.285501003265381 10.08354663848877 C4.989479064941406 9.594720840454102 5.8107452392578125 9.203636169433594 6.612588405609131 8.968935012817383 L6.612588405609131 7.287181854248047 L1.0588302612304688 7.287181854248047 M2.9361886978149414 9.653365135192871 C2.6623926162719727 9.653365135192871 2.44736385345459 9.418664932250977 2.44736385345459 9.16441535949707 C2.44736385345459 8.890618324279785 2.6625165939331055 8.675590515136719 2.9361886978149414 8.675590515136719 C3.2098608016967773 8.675590515136719 3.4251394271850586 8.890742301940918 3.4251394271850586 9.16441535949707 C3.4250144958496094 9.418664932250977 3.2098608016967773 9.653365135192871 2.9361886978149414 9.653365135192871" fill="black" fill-opacity="1.0" filling="0"/>
<path animation_id="4" d="M1.6455202102661133 16.712818145751953 L1.7432613372802734 16.712818145751953 L2.0952491760253906 15.500467300415039 L2.4472389221191406 16.712818145751953 L2.5449790954589844 16.712818145751953 L3.0925731658935547 14.659528732299805 L2.740584373474121 14.659528732299805 L2.4863357543945312 15.73516845703125 L2.466787338256836 15.73516845703125 L2.1735668182373047 14.659528732299805 L2.0170583724975586 14.659528732299805 L1.7237129211425781 15.73516845703125 L1.7041654586791992 15.73516845703125 L1.449915885925293 14.659528732299805 L1.0979270935058594 14.659528732299805 L1.6455202102661133 16.712818145751953 M3.7379074096679688 16.712818145751953 L3.8356475830078125 16.712818145751953 L4.187636375427246 15.500467300415039 L4.53962516784668 16.712818145751953 L4.6374897956848145 16.712818145751953 L5.184959411621094 14.659528732299805 L4.83297061920166 14.659528732299805 L4.578721046447754 15.73516845703125 L4.559298038482666 15.73516845703125 L4.246280193328857 14.659528732299805 L4.1094441413879395 14.659528732299805 L3.816099166870117 15.73516845703125 L3.796550750732422 15.73516845703125 L3.5423030853271484 14.659528732299805 L3.170764923095703 14.659528732299805 L3.7379074096679688 16.712818145751953 M5.83029317855835 16.712818145751953 L5.928033351898193 16.712818145751953 L6.280022621154785 15.500467300415039 L6.63213586807251 16.712818145751953 L6.7298760414123535 16.712818145751953 L7.277470111846924 14.659528732299805 L6.92548131942749 14.659528732299805 L6.651559829711914 15.73516845703125 L6.3387908935546875 14.659528732299805 L6.2018303871154785 14.659528732299805 L5.9086103439331055 15.73516845703125 L5.888937473297119 15.73516845703125 L5.634688854217529 14.659528732299805 L5.2631516456604 14.659528732299805 L5.83029317855835 16.712818145751953 L5.83029317855835 16.712818145751953 M7.746747016906738 16.204444885253906 C7.609786510467529 16.204444885253906 7.492498397827148 16.321609497070312 7.492498397827148 16.458568572998047 C7.492498397827148 16.595531463623047 7.609786510467529 16.69327163696289 7.746747016906738 16.69327163696289 C7.8835835456848145 16.69327163696289 8.000871658325195 16.595531463623047 8.000871658325195 16.458568572998047 C8.000871658325195 16.321609497070312 7.8835835456848145 16.204444885253906 7.746747016906738 16.204444885253906 M9.663076400756836 16.282512664794922 C9.584884643554688 16.360828399658203 9.545788764953613 16.380252838134766 9.526241302490234 16.380252838134766 C9.487144470214844 16.380252838134766 9.467472076416016 16.360828399658203 9.467472076416016 16.263090133666992 L9.467472076416016 15.148353576660156 C9.467472076416016 14.776816368103027 9.174251556396484 14.62043285369873 8.920001983642578 14.62043285369873 C8.724397659301758 14.62043285369873 8.58756160736084 14.679076194763184 8.372407913208008 14.874556541442871 L8.372407913208008 15.265891075134277 C8.58756160736084 15.031189918518066 8.743946075439453 14.952873229980469 8.880781173706055 14.952873229980469 C9.037166595458984 14.952873229980469 9.095934867858887 15.031189918518066 9.095934867858887 15.206997871398926 L9.095934867858887 15.402727127075195 C8.548465728759766 15.715496063232422 8.313764572143555 15.8721284866333 8.313764572143555 16.204444885253906 C8.313764572143555 16.47799301147461 8.509244918823242 16.71269416809082 8.724397659301758 16.71269416809082 C8.861233711242676 16.71269416809082 8.978647232055664 16.634626388549805 9.115482330322266 16.458568572998047 C9.154579162597656 16.614952087402344 9.252443313598633 16.71269416809082 9.369731903076172 16.71269416809082 C9.467472076416016 16.71269416809082 9.545788764953613 16.654050827026367 9.663076400756836 16.55630874633789 L9.663076400756836 16.282512664794922 L9.663076400756836 16.282512664794922 M9.096059799194336 16.145675659179688 C9.037415504455566 16.302310943603516 8.939675331115723 16.38037872314453 8.861358642578125 16.38037872314453 C8.744070053100586 16.38037872314453 8.685426712036133 16.282638549804688 8.685426712036133 16.145675659179688 C8.685426712036133 15.969867706298828 8.802714347839355 15.81323528289795 9.096059799194336 15.637428283691406 L9.096059799194336 16.145675659179688 M9.976094245910645 16.6541748046875 L10.328083038330078 16.6541748046875 L10.328083038330078 15.8721284866333 C10.328083038330078 15.637428283691406 10.445371627807617 15.011517524719238 10.719168663024902 15.011517524719238 C10.777812004089355 15.011517524719238 10.816908836364746 15.011517524719238 10.875553131103516 15.050613403320312 L10.895100593566895 14.698749542236328 C10.836332321166992 14.659652709960938 10.777812004089355 14.639856338500977 10.719043731689453 14.639856338500977 C10.542987823486328 14.639856338500977 10.484343528747559 14.737844467163086 10.34750747680664 15.206997871398926 L10.328083038330078 15.206997871398926 L10.328083038330078 14.659652709960938 L9.976094245910645 14.659652709960938 L9.976094245910645 16.6541748046875 L9.976094245910645 16.6541748046875 M12.400921821594238 16.282512664794922 C12.32260513305664 16.360828399658203 12.283757209777832 16.380252838134766 12.263960838317871 16.380252838134766 C12.224864959716797 16.380252838134766 12.205316543579102 16.360828399658203 12.205316543579102 16.263090133666992 L12.205316543579102 15.148353576660156 C12.205316543579102 14.776816368103027 11.911971092224121 14.62043285369873 11.657722473144531 14.62043285369873 C11.462242126464844 14.62043285369873 11.325282096862793 14.679076194763184 11.110254287719727 14.874556541442871 L11.110254287719727 15.265891075134277 C11.325406074523926 15.031189918518066 11.481791496276855 14.952873229980469 11.618627548217773 14.952873229980469 C11.77501106262207 14.952873229980469 11.833779335021973 15.031189918518066 11.833779335021973 15.206997871398926 L11.833779335021973 15.402727127075195 C11.286311149597168 15.715496063232422 11.051609992980957 15.8721284866333 11.051609992980957 16.204444885253906 C11.051609992980957 16.47799301147461 11.247090339660645 16.71269416809082 11.462242126464844 16.71269416809082 C11.599203109741211 16.71269416809082 11.71649169921875 16.634626388549805 11.853327751159668 16.458568572998047 C11.892423629760742 16.614952087402344 11.990288734436035 16.71269416809082 12.107576370239258 16.71269416809082 C12.185893058776855 16.71269416809082 12.263960838317871 16.654050827026367 12.400796890258789 16.55630874633789 L12.400796890258789 16.282512664794922 L12.400921821594238 16.282512664794922 L12.400921821594238 16.282512664794922 M11.833779335021973 16.145675659179688 C11.775135040283203 16.302310943603516 11.677395820617676 16.38037872314453 11.599203109741211 16.38037872314453 C11.481791496276855 16.38037872314453 11.423147201538086 16.282638549804688 11.423147201538086 16.145675659179688 C11.423147201538086 15.969867706298828 11.540433883666992 15.81323528289795 11.833779335021973 15.637428283691406 L11.833779335021973 16.145675659179688 M12.537757873535156 16.6541748046875 L12.928842544555664 16.6541748046875 L13.202640533447266 15.969867706298828 L13.515657424926758 16.6541748046875 L13.886944770812988 16.6541748046875 L13.398120880126953 15.637428283691406 L13.848098754882812 14.659528732299805 L13.476436614990234 14.659528732299805 L13.202640533447266 15.304986953735352 L12.928842544555664 14.659528732299805 L12.537757873535156 14.659528732299805 L13.007160186767578 15.637428283691406 L12.537757873535156 16.6541748046875 M14.21938705444336 16.6541748046875 L14.571499824523926 16.6541748046875 L14.571499824523926 14.659528732299805 L14.21938705444336 14.659528732299805 L14.21938705444336 16.6541748046875 M14.18053913116455 13.81859016418457 C14.18053913116455 13.936002731323242 14.278280258178711 14.014070510864258 14.395566940307617 14.014070510864258 C14.512979507446289 14.014070510864258 14.610845565795898 13.936002731323242 14.610845565795898 13.81859016418457 C14.610845565795898 13.701425552368164 14.513104438781738 13.603311538696289 14.395566940307617 13.603311538696289 A0.21726951003074646 0.21726951003074646 0.0 0 0 14.18053913116455 13.81859016418457 M14.962584495544434 16.556434631347656 C15.099546432495117 16.6541748046875 15.216958045959473 16.712818145751953 15.353670120239258 16.712818145751953 C15.647139549255371 16.712818145751953 15.842743873596191 16.49778938293457 15.842743873596191 16.204570770263672 C15.842743873596191 15.715496063232422 15.314823150634766 15.363630294799805 15.314823150634766 15.07041072845459 C15.314823150634766 14.992094039916992 15.373467445373535 14.933450698852539 15.451784133911133 14.933450698852539 C15.549524307250977 14.933450698852539 15.647263526916504 14.972545623779297 15.764552116394043 15.07041072845459 L15.764552116394043 14.737968444824219 C15.647388458251953 14.659652709960938 15.529850959777832 14.620556831359863 15.412688255310059 14.620556831359863 C15.15831470489502 14.620556831359863 14.98250675201416 14.81603717803955 14.98250675201416 15.07041072845459 C14.98250675201416 15.520015716552734 15.490755081176758 15.911100387573242 15.490755081176758 16.204570770263672 C15.490755081176758 16.302310943603516 15.412688255310059 16.38037872314453 15.314947128295898 16.38037872314453 C15.197534561157227 16.38037872314453 15.09967041015625 16.321733474731445 14.962834358215332 16.16534996032715 L14.962834358215332 16.556434631347656 L14.962584495544434 16.556434631347656 M16.409761428833008 16.204444885253906 C16.272802352905273 16.204444885253906 16.155637741088867 16.321609497070312 16.155637741088867 16.458568572998047 C16.155637741088867 16.595531463623047 16.272802352905273 16.69327163696289 16.409761428833008 16.69327163696289 C16.546722412109375 16.69327163696289 16.66388702392578 16.595531463623047 16.66388702392578 16.458568572998047 C16.66388702392578 16.321609497070312 16.546722412109375 16.204444885253906 16.409761428833008 16.204444885253906 M18.091638565063477 16.263090133666992 C17.993650436401367 16.341405868530273 17.93500518798828 16.380252838134766 17.837265014648438 16.380252838134766 C17.544044494628906 16.380252838134766 17.36786460876465 16.106704711914062 17.36786460876465 15.676275253295898 C17.36786460876465 15.226670265197754 17.543922424316406 14.952749252319336 17.798046112060547 14.952749252319336 C17.876361846923828 14.952749252319336 17.93500518798828 14.972421646118164 18.052419662475586 15.050488471984863 L18.052419662475586 14.678951263427734 C17.93500518798828 14.639856338500977 17.837142944335938 14.620307922363281 17.73940086364746 14.620307922363281 C17.309219360351562 14.620307922363281 16.996204376220703 15.050488471984863 16.996204376220703 15.67615032196045 C16.996204376220703 16.28238868713379 17.309219360351562 16.712570190429688 17.73940086364746 16.712570190429688 C17.856815338134766 16.712570190429688 17.974102020263672 16.673721313476562 18.091514587402344 16.59540557861328 L18.091514587402344 16.263090133666992 L18.091638565063477 16.263090133666992 M18.30654525756836 15.656851768493652 C18.30654525756836 16.321733474731445 18.5606689453125 16.71269416809082 18.952001571655273 16.71269416809082 C19.362510681152344 16.71269416809082 19.597211837768555 16.321609497070312 19.597211837768555 15.656851768493652 C19.597211837768555 15.011393547058105 19.362510681152344 14.62043285369873 18.952001571655273 14.62043285369873 C18.5606689453125 14.62043285369873 18.30654525756836 15.011393547058105 18.30654525756836 15.656851768493652 M18.678205490112305 15.656851768493652 C18.678205490112305 15.206997871398926 18.775943756103516 14.952873229980469 18.952001571655273 14.952873229980469 C19.127809524536133 14.952873229980469 19.225549697875977 15.187573432922363 19.225549697875977 15.656851768493652 C19.225549697875977 16.126129150390625 19.127809524536133 16.38037872314453 18.971426010131836 16.38037872314453 C18.775943756103516 16.38037872314453 18.678205490112305 16.126253128051758 18.678205490112305 15.656851768493652 L18.678205490112305 15.656851768493652 M22.04158592224121 16.6541748046875 L22.04158592224121 15.226670265197754 C22.04158592224121 14.796488761901855 21.806884765625 14.639856338500977 21.591732025146484 14.639856338500977 C21.415924072265625 14.639856338500977 21.337608337402344 14.698749542236328 21.16155242919922 14.933324813842773 C21.044387817382812 14.718048095703125 20.926851272583008 14.639856338500977 20.75104331970215 14.639856338500977 C20.57498550415039 14.639856338500977 20.477245330810547 14.698749542236328 20.359708786010742 14.874556541442871 L20.359708786010742 14.659528732299805 L19.988422393798828 14.659528732299805 L19.988422393798828 16.6541748046875 L20.359708786010742 16.6541748046875 L20.359708786010742 15.187573432922363 C20.457698822021484 15.011517524719238 20.5357666015625 14.952873229980469 20.633506774902344 14.952873229980469 C20.790138244628906 14.952873229980469 20.8289852142334 15.050613403320312 20.8289852142334 15.24609375 L20.8289852142334 16.6541748046875 L21.200523376464844 16.6541748046875 L21.200523376464844 15.187573432922363 C21.298263549804688 15.011517524719238 21.35715675354004 14.952873229980469 21.474319458007812 14.952873229980469 C21.630704879760742 14.952873229980469 21.6697998046875 15.07028579711914 21.6697998046875 15.24609375 L21.6697998046875 16.6541748046875 L22.04158592224121 16.6541748046875 M22.139326095581055 7.776131629943848 L22.21764373779297 7.776131629943848 L22.21764373779297 7.345826148986816 L22.393451690673828 7.345826148986816 L22.393451690673828 7.287181854248047 L21.982942581176758 7.287181854248047 L21.982942581176758 7.345826148986816 L22.139326095581055 7.345826148986816 L22.139326095581055 7.776131629943848 M22.43267059326172 7.776131629943848 L22.510988235473633 7.776131629943848 L22.510988235473633 7.345826148986816 L22.64794921875 7.776131629943848 L22.726016998291016 7.776131629943848 L22.843429565429688 7.365498065948486 L22.86285400390625 7.365498065948486 L22.86285400390625 7.776131629943848 L22.94116973876953 7.776131629943848 L22.94116973876953 7.287181854248047 L22.80420684814453 7.287181854248047 L22.68704605102539 7.678391456604004 L22.56963348388672 7.287181854248047 L22.43267059326172 7.287181854248047 L22.43267059326172 7.776131629943848" fill="black" fill-opacity="1.0" filling="0"/></svg>