<?xml version="1.0" encoding="iso-8859-1"?><svg height="200px" viewBox="0.0 0.0 24.0 24.0" width="200px" xmlns="http://www.w3.org/2000/svg"><path animation_id="0" d="M0.0 0.0 L24.0 0.0 L24.0 24.0 L0.0 24.0 L0.0 0.0" fill="black" fill-opacity="1.0" filling="0"/>
<path animation_id="1" d="M9.536699295043945 22.935815811157227 C9.536699295043945 21.29241180419922 9.633941650390625 19.64925765991211 9.59621524810791 18.059764862060547 C9.325904846191406 17.91383934020996 9.09344482421875 17.848970413208008 8.871816635131836 17.703044891357422 C8.320487976074219 17.249080657958984 8.185270309448242 16.53551483154297 8.455581665039062 15.919318199157715 A0.15202638506889343 0.15202638506889343 0.0 0 0 8.40689754486084 15.908360481262207 C8.715060234069824 13.843491554260254 9.71512222290039 11.88109302520752 9.152960777282715 9.837763786315918 C8.974538803100586 8.913403511047363 8.979891777038574 8.605241775512695 9.850339889526367 8.194360733032227 C8.49343204498291 8.194360733032227 8.217643737792969 9.962024688720703 6.941916465759277 10.281018257141113 C7.006786346435547 12.859490394592285 7.087841510772705 15.443317413330078 7.104152679443359 18.08142852783203 C7.11498498916626 18.18962860107422 7.098798751831055 22.027517318725586 7.087965965270996 22.04918098449707 C6.996078014373779 22.060138702392578 6.898711681365967 22.070846557617188 6.839320182800293 22.027517318725586 C6.817655563354492 20.47064781188965 6.817655563354492 18.91938018798828 6.8123016357421875 17.394882202148438 A0.10272053629159927 0.10272053629159927 0.0 0 1 6.855631351470947 17.384174346923828 C6.698873043060303 14.962335586547852 6.720538139343262 12.540496826171875 6.65566873550415 10.162111282348633 C6.6503143310546875 10.140447616577148 6.644835948944092 10.124261856079102 6.639482498168945 10.107950210571289 C6.266450881958008 9.799788475036621 6.04482364654541 8.718670845031738 6.093506813049316 8.40515422821045 C6.169209003448486 8.394322395324707 6.244910717010498 8.383490562438965 6.3259663581848145 8.372657775878906 C6.4178547859191895 8.778060913085938 6.5097432136535645 9.183589935302734 6.606985092163086 9.59434700012207 C6.617817401885986 9.59434700012207 6.628649711608887 9.599700927734375 6.644835948944092 9.605179786682129 C6.606985092163086 8.232086181640625 6.634003639221191 6.7455644607543945 6.493432521820068 5.437340259552002 C6.520450592041016 5.4103217124938965 6.661022663116455 5.421154499053955 6.742077827453613 5.421154499053955 C6.844798564910889 5.5238752365112305 6.915146827697754 9.453776359558105 6.925979137420654 9.918695449829102 C7.223308563232422 10.291726112365723 8.612462997436523 8.329453468322754 9.093694686889648 8.091639518737793 C9.385543823242188 8.015936851501465 10.304551124572754 7.8861985206604 10.466787338256836 7.724086284637451 C10.466787338256836 6.253751277923584 10.374898910522461 6.918632984161377 9.742389678955078 6.21589994430542 C9.31532096862793 5.405092716217041 9.180228233337402 4.372533321380615 9.872129440307617 3.7509803771972656 C9.872129440307617 3.659092903137207 8.926103591918945 2.9076766967773438 8.796364784240723 2.8266210556030273 C8.158500671386719 2.8266210556030273 8.272053718566895 2.8373279571533203 7.839507102966309 2.426569938659668 C7.304364204406738 2.123887062072754 7.088090896606445 2.54012393951416 6.828612804412842 1.7563352584838867 C6.947519302368164 1.637303352355957 7.088090896606445 2.0481863021850586 7.244848728179932 2.2050676345825195 C7.8233208656311035 2.3455142974853516 7.725954055786133 2.1348447799682617 8.190874099731445 2.6374902725219727 C8.423333168029785 2.794247627258301 8.63412857055664 2.669862747192383 8.915145874023438 2.7618751525878906 C9.293656349182129 3.0753917694091797 9.73143196105957 3.724085807800293 10.282761573791504 3.6375532150268555 C10.488203048706055 3.4322357177734375 10.055780410766602 1.9779624938964844 10.682811737060547 2.1834030151367188 C10.726140975952148 2.2266082763671875 10.866588592529297 2.4050302505493164 11.007159233093262 2.3778867721557617 C11.142251968383789 2.17257022857666 10.969308853149414 1.637303352355957 11.147605895996094 1.459005355834961 C11.158439636230469 1.4643592834472656 11.353047370910645 2.8157873153686523 10.742202758789062 2.3778867721557617 C10.650314331054688 2.2751665115356445 10.585444450378418 2.2266082763671875 10.509742736816406 2.2374401092529297 C10.385358810424805 2.4915647506713867 10.347631454467773 3.3402233123779297 10.412376403808594 3.6158876419067383 C10.444873809814453 3.6158876419067383 10.606985092163086 3.6429061889648438 10.682686805725098 3.605055809020996 C10.807071685791016 2.7834157943725586 11.607047080993652 3.0105209350585938 11.936749458312988 2.2752914428710938 C12.120650291442871 1.9510679244995117 12.444872856140137 2.0266456604003906 12.682686805725098 1.740147590637207 C12.785531997680664 1.0860986709594727 12.73697280883789 1.1239500045776367 13.423395156860352 1.0590791702270508 C13.423395156860352 1.0806198120117188 13.428749084472656 1.1076393127441406 13.434103965759277 1.1346569061279297 C13.08273696899414 1.4860239028930664 12.915146827697754 0.7941226959228516 12.785531997680664 1.6969432830810547 C12.677332878112793 2.075328826904297 12.207059860229492 2.0266456604003906 11.963768005371094 2.432048797607422 C11.758326530456543 2.886136054992676 10.563655853271484 3.172633171081543 10.801593780517578 3.6537389755249023 C11.720601081848145 4.0644965171813965 11.82867431640625 5.853825569152832 11.05036449432373 6.491689205169678 C10.94216537475586 6.545726299285889 10.839445114135742 6.599763870239258 10.736724853515625 6.65392541885376 C10.81242561340332 7.751229763031006 10.55830192565918 7.708024978637695 11.585382461547852 7.8107452392578125 C12.347506523132324 7.924298286437988 12.590923309326172 7.929776668548584 13.180228233337402 8.459441184997559 C13.48838996887207 8.756771087646484 14.83434009552002 10.491937637329102 15.012638092041016 9.118844985961914 C14.998568534851074 8.49156379699707 14.984622955322266 7.864284515380859 14.973915100097656 7.240615367889404 C15.067795753479004 7.332129955291748 15.230031967163086 7.315072059631348 15.300504684448242 7.202515125274658 C15.34769344329834 7.912968158721924 15.34458065032959 9.02857494354248 15.212724685668945 9.5297269821167 C14.455954551696777 11.048746109008789 12.5640287399292 7.6701741218566895 12.050301551818848 8.1836519241333 C12.947768211364746 8.680944442749023 12.428812026977539 9.653987884521484 12.34215259552002 10.56751537322998 C12.34215259552002 12.28101921081543 12.985370635986328 14.135342597961426 13.374711990356445 15.854324340820312 C13.374711990356445 16.36792755126953 13.601568222045898 16.79499626159668 13.401731491088867 17.405839920043945 C13.039655685424805 17.848970413208008 12.807196617126465 17.90313148498535 12.277283668518066 18.065366744995117 C12.250265121459961 18.11940574645996 12.244911193847656 18.157007217407227 12.234203338623047 18.249019622802734 C12.336798667907715 19.795181274414062 12.4610595703125 21.346698760986328 12.504388809204102 22.941295623779297 L12.158376693725586 22.941295623779297 C12.126004219055176 22.108821868896484 12.120650291442871 18.206064224243164 11.736786842346191 18.081554412841797 C11.152959823608398 18.108572006225586 10.585320472717285 18.173442840576172 10.039344787597656 18.14642333984375 C9.936624526977539 18.249019622802734 9.969121932983398 18.357219696044922 9.952810287475586 18.503143310546875 L9.871755599975586 22.93593978881836 L9.536699295043945 22.93593978881836 L9.536699295043945 22.935815811157227 L9.536699295043945 22.935815811157227 M10.417854309082031 17.848970413208008 C10.16373062133789 17.832908630371094 9.909729957580566 17.81659698486328 9.655607223510742 17.805889129638672 C9.612276077270508 17.71400260925293 10.22860050201416 16.313764572143555 10.331320762634277 16.249019622802734 C10.396190643310547 16.28139305114746 11.066550254821777 17.595094680786133 11.066550254821777 17.784225463867188 C10.850400924682617 17.876113891601562 10.617817878723145 17.848970413208008 10.417854309082031 17.848970413208008 L10.417854309082031 17.848970413208008 M10.201581001281738 17.778621673583984 C10.033990859985352 17.767913818359375 9.871879577636719 17.757205963134766 9.709643363952637 17.74625015258789 C9.877233505249023 17.351552963256836 10.098860740661621 16.697628021240234 10.320487976074219 16.400175094604492 C10.401544570922852 16.438148498535156 10.871817588806152 17.427379608154297 11.001556396484375 17.729938507080078 C10.753034591674805 17.811243057250977 10.401668548583984 17.73554039001465 10.201581001281738 17.778621673583984 L10.201581001281738 17.778621673583984 M11.844985961914062 17.724584579467773 L11.785470008850098 17.66519546508789 C11.812488555908203 17.394758224487305 12.147668838500977 16.23258399963379 12.250265121459961 16.129989624023438 C12.271928787231445 16.157007217407227 13.1746244430542 17.18931770324707 13.05036449432373 17.313827514648438 C12.645085334777832 17.41119384765625 12.234328269958496 17.594968795776367 11.844985961914062 17.724584579467773 L11.844985961914062 17.724584579467773 M11.439456939697266 17.71400260925293 C11.234140396118164 17.611156463623047 10.61233901977539 16.28139305114746 10.601631164550781 16.23806381225586 C10.726016998291016 16.113801956176758 11.644898414611816 16.135465621948242 11.98007869720459 16.119155883789062 C11.98007869720459 16.373279571533203 11.866525650024414 16.670486450195312 11.76928424835205 16.962459564208984 C11.763930320739746 16.962459564208984 11.482786178588867 17.757205963134766 11.439456939697266 17.71400260925293 L11.439456939697266 17.71400260925293 M10.471892356872559 17.670671463012695 C10.331320762634277 17.66531753540039 10.088153839111328 17.66531753540039 10.001619338989258 17.621990203857422 C10.001619338989258 17.335491180419922 10.207059860229492 16.973169326782227 10.293469429016113 16.719043731689453 L10.331320762634277 16.719043731689453 C10.4610595703125 17.000186920166016 10.661022186279297 17.292285919189453 10.763867378234863 17.654361724853516 C10.639481544494629 17.681379318237305 10.563780784606934 17.670671463012695 10.471892356872559 17.670671463012695 M9.239494323730469 17.64900779724121 C9.120588302612305 17.443567276000977 8.606985092163086 16.297578811645508 8.661022186279297 16.151527404785156 C9.050114631652832 16.108448028564453 9.758326530456543 16.130111694335938 10.13135814666748 16.25437355041504 C10.152897834777832 16.303056716918945 9.304239273071289 17.627342224121094 9.239494323730469 17.64900779724121 M11.888191223144531 17.616384506225586 C11.888191223144531 17.373218536376953 12.163979530334473 16.557056427001953 12.228724479675293 16.319242477416992 C12.245035171508789 16.319242477416992 12.26669979095459 16.24341583251953 12.26669979095459 16.23806381225586 C12.439643859863281 16.45421028137207 12.899209022521973 16.95710563659668 12.985494613647461 17.259666442871094 C12.985494613647461 17.259666442871094 12.039594650268555 17.616384506225586 11.888191223144531 17.616384506225586 L11.888191223144531 17.616384506225586 M10.498910903930664 17.578784942626953 C10.36381721496582 17.57343101501465 10.234078407287598 17.568077087402344 10.104339599609375 17.568077087402344 C10.104339599609375 17.330013275146484 10.271929740905762 17.10315704345703 10.325966835021973 16.886882781982422 C10.331320762634277 16.886882781982422 10.66650104522705 17.459877014160156 10.628649711608887 17.584138870239258 C10.585444450378418 17.578784942626953 10.542115211486816 17.578784942626953 10.498910903930664 17.578784942626953 L10.498910903930664 17.578784942626953 M11.41256332397461 17.56247329711914 C11.212600708007812 17.27062225341797 10.709705352783203 16.524559020996094 10.709705352783203 16.29235076904297 C11.06107234954834 16.25437355041504 11.515159606933594 16.097614288330078 11.909854888916016 16.19485855102539 C11.909854888916016 16.35161590576172 11.509805679321289 17.55176544189453 11.41256332397461 17.56247329711914 L11.41256332397461 17.56247329711914 M9.2772216796875 17.513790130615234 C9.12581729888916 17.232646942138672 8.758264541625977 16.475875854492188 8.758264541625977 16.23806381225586 C9.147481918334961 16.23806381225586 9.558363914489746 16.28139305114746 9.996139526367188 16.313640594482422 C9.996139526367188 16.319242477416992 10.001494407653809 16.324596405029297 10.006973266601562 16.329952239990234 C9.812363624572754 16.724647521972656 9.525867462158203 17.097679138183594 9.298761367797852 17.513790130615234 L9.2772216796875 17.513790130615234 M12.26669979095459 17.28693199157715 C12.25599193572998 17.281330108642578 12.250389099121094 17.275976181030273 12.245035171508789 17.275976181030273 C12.207059860229492 17.124696731567383 12.261345863342285 16.584075927734375 12.33156967163086 16.530162811279297 C12.58009147644043 16.751665115356445 13.023469924926758 17.28693199157715 12.26669979095459 17.28693199157715 L12.26669979095459 17.28693199157715 M11.40173053741455 17.20039939880371 C11.20176887512207 17.00031089782715 11.077383041381836 16.686796188354492 11.039532661437988 16.47599983215332 C11.207122802734375 16.395069122314453 11.44493579864502 16.395069122314453 11.655730247497559 16.395069122314453 C11.666563034057617 16.411130905151367 11.677395820617676 16.427440643310547 11.693706512451172 16.449106216430664 C11.634190559387207 16.676212310791016 11.472079277038574 16.968063354492188 11.439581871032715 17.205875396728516 C11.423271179199219 17.20039939880371 11.41256332397461 17.20039939880371 11.40173053741455 17.20039939880371 L11.40173053741455 17.20039939880371 M12.342277526855469 17.16242218017578 L12.342277526855469 16.681442260742188 L12.358588218688965 16.665130615234375 C12.423333168029785 16.762372970581055 12.558425903320312 16.919254302978516 12.596402168273926 17.08684539794922 C12.509867668151855 17.108386993408203 12.423209190368652 17.135404586791992 12.342277526855469 17.16242218017578 M9.239494323730469 17.1463623046875 C9.179978370666504 16.99483299255371 8.963829040527344 16.513851165771484 8.985370635986328 16.411006927490234 C9.152960777282715 16.470645904541016 9.434103012084961 16.362323760986328 9.655731201171875 16.50849723815918 C9.623233795166016 16.573118209838867 9.342090606689453 17.178733825683594 9.239494323730469 17.1463623046875 L9.239494323730469 17.1463623046875 M11.385419845581055 17.076013565063477 C11.309718132019043 16.929840087890625 11.093568801879883 16.611095428466797 11.126066207885742 16.513729095458984 C11.271991729736328 16.502771377563477 11.450289726257324 16.454086303710938 11.617879867553711 16.443504333496094 C11.617879867553711 16.557056427001953 11.471954345703125 16.908424377441406 11.417917251586914 17.076013565063477 L11.385419845581055 17.076013565063477 L11.385419845581055 17.076013565063477 M9.250202178955078 17.05982780456543 C9.212350845336914 16.935565948486328 9.07178020477295 16.567890167236328 9.09344482421875 16.497541427612305 C9.233892440795898 16.50849723815918 9.379941940307617 16.51920509338379 9.525867462158203 16.530162811279297 C9.525867462158203 16.64906883239746 9.358277320861816 16.908546447753906 9.288053512573242 17.07053565979004 C9.271867752075195 17.065181732177734 9.26103401184082 17.05982780456543 9.250202178955078 17.05982780456543 M9.412314414978027 15.929901123046875 C9.282575607299805 15.800287246704102 9.196165084838867 14.891988754272461 9.196165084838867 14.64346694946289 C9.342090606689453 14.411006927490234 9.47730827331543 14.173192977905273 9.585382461547852 13.951316833496094 C9.558363914489746 13.610907554626465 9.352922439575195 13.237875938415527 9.401606559753418 12.98375129699707 C9.590861320495605 12.924361228942871 9.801656723022461 13.681255340576172 9.801656723022461 13.913715362548828 C9.704290390014648 14.118907928466797 9.607047080993652 14.324472427368164 9.515158653259277 14.535266876220703 C9.277345657348633 14.713814735412598 9.53134536743164 15.54080867767334 9.53134536743164 15.881342887878418 C9.49897289276123 15.913714408874512 9.444811820983887 15.919193267822266 9.412314414978027 15.929901123046875 L9.412314414978027 15.929901123046875 M10.093507766723633 15.919193267822266 C9.888190269470215 15.87051010131836 9.720476150512695 14.80009937286377 9.720476150512695 14.67048454284668 C9.888066291809082 14.43802547454834 9.985307693481445 14.178546905517578 10.082674026489258 13.940732955932617 C9.996139526367188 13.616385459899902 9.796177864074707 13.22169017791748 9.833904266357422 12.98375129699707 C10.082674026489258 12.935068130493164 10.352861404418945 13.82170295715332 10.352861404418945 14.037976264953613 C9.844736099243164 14.729876518249512 9.947456359863281 14.870447158813477 10.223121643066406 15.746124267578125 C10.223246574401855 15.848970413208008 10.180041313171387 15.886696815490723 10.093507766723633 15.919193267822266 L10.093507766723633 15.919193267822266 M10.742202758789062 15.903007507324219 C10.715184211730957 15.886696815490723 10.688165664672852 15.875988960266113 10.661147117614746 15.865031242370605 C10.077445030212402 14.794745445251465 10.336923599243164 14.80009937286377 10.655793190002441 13.967752456665039 C10.655793190002441 13.643404960632324 10.288240432739258 13.232646942138672 10.33144474029541 12.967814445495605 C10.536886215209961 12.843304634094238 10.936935424804688 13.735292434692383 10.936935424804688 13.951441764831543 L10.547718048095703 14.794745445251465 C10.547718048095703 15.086596488952637 10.974786758422852 15.584137916564941 10.818029403686523 15.897528648376465 C10.790885925292969 15.897653579711914 10.763867378234863 15.897653579711914 10.742202758789062 15.903007507324219 L10.742202758789062 15.903007507324219 M11.396252632141113 15.903007507324219 C11.093568801879883 15.751479148864746 10.985495567321777 14.989355087280273 10.958352088928223 14.740833282470703 C11.093568801879883 14.508373260498047 11.261159896850586 14.254249572753906 11.2988862991333 14.02178955078125 C11.201643943786621 13.92454719543457 10.909668922424316 13.146112442016602 10.909668922424316 12.98387622833252 C11.158439636230469 12.73535442352295 11.504327774047852 13.902883529663086 11.525991439819336 14.08665943145752 C11.428750038146973 14.324472427368164 11.31519603729248 14.605615615844727 11.17997932434082 14.843428611755371 C11.17997932434082 15.03791332244873 11.580028533935547 15.670547485351562 11.49897289276123 15.881342887878418 C11.455768585205078 15.89229965209961 11.450289726257324 15.903007507324219 11.396252632141113 15.903007507324219 M12.0341157913208 15.881342887878418 C11.39077377319336 15.346075057983398 11.607047080993652 14.735479354858398 11.877357482910156 14.145925521850586 C11.877357482910156 13.80551528930664 11.24484920501709 12.95137882232666 11.617879867553711 12.913527488708496 C11.672041893005371 12.946149826049805 12.126128196716309 13.978459358215332 12.174687385559082 14.22187614440918 C11.407084465026855 14.989355087280273 12.207059860229492 15.135279655456543 12.120650291442871 15.854324340820312 C12.06661319732666 15.881342887878418 12.077445030212402 15.881342887878418 12.0341157913208 15.881342887878418 M12.7260160446167 15.848970413208008 C12.515470504760742 15.638175010681152 12.190998077392578 14.962335586547852 12.234328269958496 14.713814735412598 C12.73697280883789 13.994771003723145 12.190998077392578 13.611032485961914 12.028761863708496 12.956857681274414 C12.207059860229492 12.600136756896973 12.639731407165527 13.929776191711426 12.677332878112793 14.167715072631836 C12.655668258666992 14.292224884033203 12.574737548828125 14.58942985534668 12.477495193481445 14.708335876464844 C12.477495193481445 15.02733039855957 12.936811447143555 15.492125511169434 12.877545356750488 15.805765151977539 C12.807196617126465 15.848970413208008 12.774699211120605 15.843367576599121 12.7260160446167 15.848970413208008 L12.7260160446167 15.848970413208008 M9.871879577636719 12.908173561096191 C9.050239562988281 12.745938301086426 9.796302795410156 11.729814529418945 10.201581001281738 12.43790054321289 C10.201581001281738 12.724273681640625 10.152897834777832 12.832472801208496 9.871879577636719 12.908173561096191 M9.823321342468262 12.772956848144531 C9.412439346313477 12.637988090515137 9.709768295288086 12.205316543579102 9.996265411376953 12.421838760375977 C10.066488265991211 12.60001277923584 10.028636932373047 12.7352294921875 9.823321342468262 12.772956848144531 M10.861109733581543 12.772956848144531 C10.158376693725586 12.573119163513184 10.855755805969238 11.64863395690918 11.255805969238281 12.35149097442627 C11.271991729736328 12.643342018127441 11.147605895996094 12.772956848144531 10.861109733581543 12.772956848144531 M11.817967414855957 12.762248992919922 C11.120588302612305 12.454087257385254 11.88283634185791 11.621614456176758 12.234328269958496 12.324223518371582 C12.234328269958496 12.60001277923584 12.115171432495117 12.762248992919922 11.817967414855957 12.762248992919922 M10.915146827697754 12.643342018127441 C10.477246284484863 12.497416496276855 11.007035255432129 11.945962905883789 11.120588302612305 12.47039794921875 C11.066550254821777 12.616323471069336 11.034178733825684 12.616323471069336 10.915146827697754 12.643342018127441 M9.817842483520508 12.60001277923584 C9.785470008850098 12.60001277923584 9.801656723022461 12.53514289855957 9.807134628295898 12.508124351501465 C9.823321342468262 12.50277042388916 9.839507102966309 12.50277042388916 9.86117172241211 12.50277042388916 C9.88283634185791 12.53514289855957 9.88283634185791 12.53514289855957 9.88283634185791 12.578348159790039 C9.86104679107666 12.60001277923584 9.828675270080566 12.60001277923584 9.817842483520508 12.60001277923584 M11.86117172241211 12.60001277923584 C11.374588012695312 12.437776565551758 11.920686721801758 11.88644790649414 12.120650291442871 12.362199783325195 C12.120774269104004 12.529789924621582 12.012575149536133 12.58930492401123 11.86117172241211 12.60001277923584 M10.90979290008545 12.48110580444336 C10.850400924682617 12.47039794921875 10.877420425415039 12.421714782714844 10.882774353027344 12.400175094604492 C10.904438972473145 12.394571304321289 10.925978660583496 12.394571304321289 10.952998161315918 12.394571304321289 C10.974661827087402 12.41623592376709 10.974661827087402 12.432546615600586 10.974661827087402 12.459441184997559 C10.952998161315918 12.48110580444336 10.920500755310059 12.48110580444336 10.90979290008545 12.48110580444336 M11.86117172241211 12.421838760375977 C11.82867431640625 12.389217376708984 11.834153175354004 12.38386344909668 11.82867431640625 12.346012115478516 C11.86117172241211 12.313640594482422 11.855693817138672 12.329951286315918 11.91520881652832 12.318994522094727 C11.958414077758789 12.362199783325195 11.936874389648438 12.421838760375977 11.86117172241211 12.421838760375977 M10.255743980407715 12.03249740600586 C10.012451171875 11.983814239501953 9.899023056030273 11.79455852508545 9.899023056030273 11.616260528564453 C10.098860740661621 10.810808181762695 11.163917541503906 11.773018836975098 10.255743980407715 12.03249740600586 M11.304489135742188 11.908111572265625 C10.471892356872559 11.681131362915039 11.309843063354492 10.724273681640625 11.661209106445312 11.486397743225098 C11.661209106445312 11.724335670471191 11.580028533935547 11.908111572265625 11.304489135742188 11.908111572265625 M10.239432334899902 11.88109302520752 C9.812363624572754 11.71350383758545 10.179917335510254 11.221689224243164 10.444873809814453 11.556745529174805 C10.51522159576416 11.76754093170166 10.385482788085938 11.859553337097168 10.239432334899902 11.88109302520752 M11.293656349182129 11.745875358581543 C10.915146827697754 11.621614456176758 11.217954635620117 11.162174224853516 11.488265037536621 11.432360649108887 C11.542303085327148 11.594596862792969 11.450289726257324 11.708148956298828 11.293656349182129 11.745875358581543 M10.212413787841797 11.691838264465332 C10.136837005615234 11.61613655090332 10.239432334899902 11.599950790405273 10.293469429016113 11.599950790405273 C10.298823356628418 11.621614456176758 10.304302215576172 11.643155097961426 10.315134048461914 11.670173645019531 C10.288115501403809 11.697317123413086 10.255743980407715 11.697317123413086 10.212413787841797 11.691838264465332 M11.266512870788574 11.600074768066406 C11.219324111938477 11.529229164123535 11.254186630249023 11.51901912689209 11.33138370513916 11.51901912689209 C11.33138370513916 11.54068374633789 11.33138370513916 11.562223434448242 11.336736679077148 11.589242935180664 C11.309718132019043 11.589242935180664 11.288178443908691 11.594596862792969 11.266512870788574 11.600074768066406 L11.266512870788574 11.600074768066406 M10.790885925292969 11.059453010559082 C10.088153839111328 10.918882369995117 10.639481544494629 9.989167213439941 11.099047660827637 10.540496826171875 C11.17997932434082 10.75129222869873 11.066550254821777 11.059453010559082 10.790885925292969 11.059453010559082 M10.763867378234863 10.908049583435059 C10.325966835021973 10.799975395202637 10.96382999420166 10.113428115844727 10.96382999420166 10.826993942260742 C10.882774353027344 10.891862869262695 10.839445114135742 10.902571678161621 10.763867378234863 10.908049583435059 M10.769221305847168 10.75129222869873 C10.742202758789062 10.724273681640625 10.742202758789062 10.69713020324707 10.742202758789062 10.681068420410156 C10.763867378234863 10.659403800964355 10.753034591674805 10.659403800964355 10.828737258911133 10.659403800964355 C10.834091186523438 10.670235633850098 10.84492301940918 10.686422348022461 10.855755805969238 10.702733039855957 C10.823259353637695 10.75129222869873 10.796239852905273 10.75129222869873 10.769221305847168 10.75129222869873 M10.255743980407715 10.362074851989746 C9.899023056030273 10.362074851989746 9.74761962890625 9.545788764953613 10.374650001525879 9.605303764343262 C10.828737258911133 9.735042572021484 10.720538139343262 10.362074851989746 10.255743980407715 10.362074851989746 M11.358526229858398 10.248645782470703 C11.039532661437988 10.210795402526855 10.936811447143555 9.880969047546387 11.05036449432373 9.64850902557373 C11.574674606323242 9.021478652954102 12.196352005004883 10.167466163635254 11.358526229858398 10.248645782470703 M10.30978012084961 10.19448471069336 C9.958414077758789 10.097118377685547 10.061134338378906 9.756584167480469 10.428688049316406 9.767416000366211 C10.596277236938477 9.935006141662598 10.531408309936523 10.124261856079102 10.30978012084961 10.19448471069336 M11.369233131408691 10.086410522460938 C10.969183921813965 9.913466453552246 11.320549964904785 9.475564956665039 11.5855073928833 9.740397453308105 C11.607172012329102 9.951191902160645 11.574674606323242 10.048559188842773 11.369233131408691 10.086410522460938 M10.255743980407715 10.03237247467041 C10.234078407287598 9.989167213439941 10.228724479675293 9.989167213439941 10.228724479675293 9.951316833496094 C10.261221885681152 9.91882038116455 10.33144474029541 9.891800880432129 10.33144474029541 10.010832786560059 C10.304302215576172 10.037726402282715 10.271929740905762 10.03237247467041 10.255743980407715 10.03237247467041 M11.374588012695312 9.886322975158691 A0.12214405834674835 0.12214405834674835 0.0 0 1 11.347569465637207 9.870137214660645 C11.347569465637207 9.794559478759766 11.363879203796387 9.816099166870117 11.423271179199219 9.816099166870117 C11.428750038146973 9.821453094482422 11.434103012084961 9.83228588104248 11.439456939697266 9.843117713928223 L11.423271179199219 9.875490188598633 C11.407084465026855 9.875490188598633 11.390898704528809 9.880969047546387 11.374588012695312 9.886322975158691 L11.374588012695312 9.886322975158691 M9.850214958190918 9.399863243103027 C8.942041397094727 9.04849624633789 10.304302215576172 8.037602424621582 10.271804809570312 9.215961456298828 C10.120525360107422 9.389030456542969 10.071842193603516 9.399863243103027 9.850214958190918 9.399863243103027 M11.736910820007324 9.329639434814453 C11.039532661437988 9.124198913574219 11.515283584594727 8.340410232543945 11.942352294921875 8.707962989807129 C12.136836051940918 8.951129913330078 12.09911060333252 9.270124435424805 11.736910820007324 9.329639434814453 M9.904252052307129 9.253937721252441 C9.396127700805664 9.086347579956055 9.958414077758789 8.48098087310791 10.136712074279785 9.016124725341797 C10.136837005615234 9.205254554748535 10.061134338378906 9.23227310180664 9.904252052307129 9.253937721252441 M11.682873725891113 9.172757148742676 C11.342339515686035 9.005167007446289 11.693706512451172 8.432173728942871 11.953060150146484 8.951129913330078 C11.888191223144531 9.135030746459961 11.86117172241211 9.156571388244629 11.682873725891113 9.172757148742676 M10.671854972839355 9.129552841186523 C10.033990859985352 8.767354011535645 10.850276947021484 8.01058292388916 11.120588302612305 8.740334510803223 C11.120588302612305 9.021478652954102 10.904438972473145 9.129552841186523 10.671854972839355 9.129552841186523 M9.898898124694824 9.075515747070312 C9.867521286010742 9.059826850891113 9.866400718688965 9.02110481262207 9.866400718688965 8.988981246948242 C9.928655624389648 8.947519302368164 9.998132705688477 8.97005558013916 9.974475860595703 9.064682960510254 A0.32123512029647827 0.32123512029647827 0.0 0 0 9.898898124694824 9.075515747070312 L9.898898124694824 9.075515747070312 M11.720601081848145 9.005290985107422 C11.71524715423584 8.913403511047363 11.688103675842285 8.924236297607422 11.774637222290039 8.924236297607422 C11.79630184173584 8.945900917053223 11.790823936462402 8.978273391723633 11.785470008850098 8.999937057495117 A0.2543734014034271 0.2543734014034271 0.0 0 0 11.720601081848145 9.005290985107422 L11.720601081848145 9.005290985107422 M10.715184211730957 8.9781494140625 C10.423333168029785 8.832222938537598 10.61246395111084 8.507875442504883 10.882774353027344 8.626782417297363 C11.02869987487793 8.77270793914795 10.952998161315918 8.9781494140625 10.715184211730957 8.9781494140625 M10.726016998291016 8.832222938537598 C10.715184211730957 8.805204391479492 10.709705352783203 8.778185844421387 10.704351425170898 8.756646156311035 C10.73137092590332 8.745813369750977 10.75838851928711 8.740459442138672 10.790761947631836 8.734981536865234 C10.817780494689941 8.76200008392334 10.817780494689941 8.799851417541504 10.796239852905273 8.832222938537598 L10.726016998291016 8.832222938537598" fill="black" fill-opacity="1.0" filling="0"/>
<path animation_id="2" d="M12.951005935668945 6.4911909103393555 C13.101786613464355 6.4911909103393555 13.222436904907227 6.611841201782227 13.222436904907227 6.762622356414795 A0.26968809962272644 0.26968809962272644 0.0 0 1 12.951005935668945 7.031314373016357 A0.26919007301330566 0.26919007301330566 0.0 0 1 12.682313919067383 6.762622356414795 A0.26956358551979065 0.26956358551979065 0.0 0 1 12.951005935668945 6.4911909103393555 M15.089212417602539 6.343149185180664 C15.319554328918457 6.343149185180664 15.506070137023926 6.5322794914245605 15.506070137023926 6.762622356414795 C15.506070137023926 6.990225791931152 15.319554328918457 7.179356575012207 15.089212417602539 7.179356575012207 C14.858867645263672 7.179356575012207 14.672601699829102 6.990225791931152 14.672601699829102 6.762622356414795 C14.67272663116455 6.5322794914245605 14.858992576599121 6.343149185180664 15.089212417602539 6.343149185180664" fill="black" fill-opacity="1.0" filling="0"/>
<path animation_id="3" d="M15.089212417602539 5.380937576293945 C15.84872055053711 5.380937576293945 16.468280792236328 6.000498294830322 16.468280792236328 6.762622356414795 C16.470895767211914 7.52213191986084 15.848596572875977 8.141692161560059 15.089212417602539 8.141692161560059 C14.329826354980469 8.141692161560059 13.7101411819458 7.52213191986084 13.7101411819458 6.762622356414795 C13.7101411819458 6.000498294830322 14.329826354980469 5.380937576293945 15.089212417602539 5.380937576293945 M15.089212417602539 5.32328987121582 C15.88146686553955 5.32328987121582 16.525680541992188 5.970242500305176 16.525680541992188 6.762622356414795 C16.525680541992188 7.552138328552246 15.88146686553955 8.199214935302734 15.089212417602539 8.199214935302734 C14.296955108642578 8.199214935302734 13.652742385864258 7.552138328552246 13.652742385864258 6.762622356414795 C13.652742385864258 5.970366954803467 14.296955108642578 5.32328987121582 15.089212417602539 5.32328987121582 L15.089212417602539 5.32328987121582" fill="black" fill-opacity="1.0" filling="0"/>
<path animation_id="4" d="M15.889809608459473 6.587187767028809 C15.98580551147461 6.587187767028809 16.062503814697266 6.666749477386475 16.062503814697266 6.762622356414795 C16.062503814697266 6.855880260467529 15.985931396484375 6.935317516326904 15.889809608459473 6.935317516326904 C15.79368782043457 6.935317516326904 15.714250564575195 6.855880260467529 15.714250564575195 6.762622356414795 A0.1768038272857666 0.1768038272857666 0.0 0 1 15.889809608459473 6.587187767028809 M16.471019744873047 6.543235778808594 C16.591670989990234 6.543235778808594 16.690406799316406 6.641972541809082 16.690406799316406 6.762622356414795 C16.690406799316406 6.880533218383789 16.591670989990234 6.979269504547119 16.471019744873047 6.979269504547119 C16.350370407104492 6.979269504547119 16.25437355041504 6.88065767288208 16.25437355041504 6.762622356414795 C16.25437355041504 6.641972541809082 16.350370407104492 6.543235778808594 16.471019744873047 6.543235778808594 M16.978023529052734 6.587187767028809 C17.07402229309082 6.587187767028809 17.153583526611328 6.666749477386475 17.153583526611328 6.762622356414795 C17.153583526611328 6.855880260467529 17.07402229309082 6.935317516326904 16.978023529052734 6.935317516326904 A0.17555873095989227 0.17555873095989227 0.0 0 1 16.805328369140625 6.762622356414795 C16.80545425415039 6.666625022888184 16.884889602661133 6.587187767028809 16.978023529052734 6.587187767028809 M17.77326774597168 6.414493083953857 A0.3486272692680359 0.3486272692680359 0.0 0 1 18.12152099609375 6.762622356414795 C18.12152099609375 6.951877117156982 17.965137481689453 7.108012676239014 17.77326774597168 7.108012676239014 A0.34750667214393616 0.34750667214393616 0.0 0 1 17.427753448486328 6.762622356414795 C17.427753448486328 6.5707526206970215 17.584138870239258 6.414493083953857 17.77326774597168 6.414493083953857 M18.074581146240234 1.9412307739257812 C18.074581146240234 2.092013359069824 17.95393180847168 2.2126636505126953 17.803150177001953 2.2126636505126953 A0.26956358551979065 0.26956358551979065 0.0 0 1 17.53470802307129 1.9412307739257812 C17.53470802307129 1.7931890487670898 17.655357360839844 1.6725397109985352 17.803150177001953 1.6725397109985352 C17.95393180847168 1.6725397109985352 18.074581146240234 1.7931890487670898 18.074581146240234 1.9412307739257812 L18.074581146240234 1.9412307739257812 M18.222623825073242 4.079686164855957 C18.222623825073242 4.31002950668335 18.033369064331055 4.496420383453369 17.803150177001953 4.496420383453369 C17.575796127319336 4.496420383453369 17.38654136657715 4.31002950668335 17.38654136657715 4.079686164855957 C17.38654136657715 3.8493432998657227 17.575796127319336 3.662952423095703 17.803150177001953 3.662952423095703 C18.033493041992188 3.662827491760254 18.222623825073242 3.8493432998657227 18.222623825073242 4.079686164855957" fill="black" fill-opacity="1.0" filling="0"/>
<path animation_id="5" d="M19.184959411621094 4.079686164855957 C19.184959411621094 4.839071273803711 18.56527328491211 5.45863151550293 17.803150177001953 5.45863151550293 C17.04388999938965 5.461370944976807 16.42432975769043 4.839071273803711 16.42432975769043 4.079686164855957 C16.42432975769043 3.320301055908203 17.044015884399414 2.7007408142089844 17.803150177001953 2.7007408142089844 C18.56527328491211 2.7006168365478516 19.184959411621094 3.320301055908203 19.184959411621094 4.079686164855957 L19.184959411621094 4.079686164855957 M19.24260711669922 4.079686164855957 C19.24260711669922 4.871942043304443 18.595531463623047 5.516279697418213 17.803150177001953 5.516279697418213 C17.013757705688477 5.516279697418213 16.366682052612305 4.871942043304443 16.366682052612305 4.079686164855957 C16.366682052612305 3.287430763244629 17.013757705688477 2.6430931091308594 17.803150177001953 2.6430931091308594 C18.595531463623047 2.6430931091308594 19.24260711669922 3.287306785583496 19.24260711669922 4.079686164855957 L19.24260711669922 4.079686164855957" fill="black" fill-opacity="1.0" filling="0"/>
<path animation_id="6" d="M17.978708267211914 4.880159378051758 C17.978708267211914 4.976156234741211 17.899147033691406 5.052854537963867 17.803150177001953 5.052854537963867 C17.710018157958984 5.052854537963867 17.630455017089844 4.97603178024292 17.630455017089844 4.880159378051758 C17.630455017089844 4.784286975860596 17.710018157958984 4.70472526550293 17.803150177001953 4.70472526550293 C17.89927101135254 4.70472526550293 17.978708267211914 4.784162521362305 17.978708267211914 4.880159378051758 M18.022537231445312 5.461370944976807 C18.022537231445312 5.582021236419678 17.92380142211914 5.68075704574585 17.803150177001953 5.68075704574585 C17.685489654541016 5.68075704574585 17.58675193786621 5.582021236419678 17.58675193786621 5.461370944976807 C17.58675193786621 5.340721130371094 17.685489654541016 5.244848728179932 17.803150177001953 5.244848728179932 C17.92380142211914 5.244848728179932 18.022537231445312 5.340721130371094 18.022537231445312 5.461370944976807 M17.978708267211914 5.968499183654785 A0.1768038272857666 0.1768038272857666 0.0 0 1 17.803150177001953 6.1439337730407715 C17.710018157958984 6.1439337730407715 17.630455017089844 6.064496040344238 17.630455017089844 5.968499183654785 A0.17555873095989227 0.17555873095989227 0.0 0 1 17.803150177001953 5.795804023742676 C17.89927101135254 5.795804023742676 17.978708267211914 5.875365734100342 17.978708267211914 5.968499183654785 M18.151405334472656 6.763617992401123 A0.3486272692680359 0.3486272692680359 0.0 0 1 17.803150177001953 7.111747741699219 C17.613895416259766 7.111747741699219 17.457883834838867 6.9554877281188965 17.457883834838867 6.763617992401123 A0.34738218784332275 0.34738218784332275 0.0 0 1 17.803150177001953 6.418228626251221 C17.995018005371094 6.41810417175293 18.151405334472656 6.5743632316589355 18.151405334472656 6.763617992401123 M6.5988922119140625 3.7525997161865234 C6.985121250152588 3.7525997161865234 7.30000638961792 4.067608833312988 7.30000638961792 4.453713893890381 C7.30000638961792 4.839818000793457 6.984996318817139 5.154703617095947 6.5988922119140625 5.154703617095947 C6.21278715133667 5.154703617095947 5.897777557373047 4.839818000793457 5.897777557373047 4.453713893890381 C5.897777557373047 4.067608833312988 6.212662696838379 3.7525997161865234 6.5988922119140625 3.7525997161865234 L6.5988922119140625 3.7525997161865234" fill="black" fill-opacity="1.0" filling="0"/></svg>