<?xml version="1.0" encoding="iso-8859-1"?><svg height="200px" viewBox="0.0 0.0 24.0 24.0" width="200px" xmlns="http://www.w3.org/2000/svg"><path animation_id="0" d="M0.0 0.0 L24.0 0.0 L24.0 24.0 L0.0 24.0 L0.0 0.0" fill="black" fill-opacity="1.0" filling="0"/>
<path animation_id="1" d="M2.3740272521972656 7.47905158996582 L2.2572364807128906 7.47905158996582 L2.2572364807128906 8.179916381835938 L2.011953353881836 7.560853958129883 L1.9885454177856445 7.47905158996582 L0.3529853820800781 7.47905158996582 L0.3529853820800781 11.404221534729004 L1.9300251007080078 11.404221534729004 L1.9300251007080078 10.4112548828125 L2.257112503051758 11.322418212890625 L2.2921009063720703 11.404221534729004 L3.834153175354004 11.404221534729004 L3.834153175354004 7.47905158996582 L2.3740272521972656 7.47905158996582 M1.9184455871582031 9.698686599731445 L1.6847410202026367 9.73379898071289 L1.6847410202026367 11.158937454223633 L0.5865650177001953 11.158937454223633 L0.5865650177001953 7.724460124969482 L1.824814796447754 7.724460124969482 L2.257112503051758 8.88090705871582 L2.4906930923461914 8.834216117858887 L2.4906930923461914 7.724460124969482 L3.588869094848633 7.724460124969482 L3.588869094848633 11.158937454223633 L2.4557056427001953 11.158937454223633 L1.9184455871582031 9.698686599731445 L1.9184455871582031 9.698686599731445 M7.654361248016357 7.47905158996582 L7.572558403015137 7.47905158996582 L7.549150466918945 7.560853958129883 L7.268754482269287 8.238311767578125 L7.000062465667725 7.560853958129883 L6.976654529571533 7.47905158996582 L5.294528007507324 7.47905158996582 L5.364626884460449 7.654236316680908 L6.4276909828186035 9.920562744140625 L6.4276909828186035 11.404221534729004 L8.098237991333008 11.404221534729004 L8.098237991333008 9.920562744140625 L9.16142749786377 7.654236316680908 L9.243104934692383 7.47905158996582 L7.654361248016357 7.47905158996582 L7.654361248016357 7.47905158996582 M5.668306350708008 7.724460124969482 L6.813173294067383 7.724460124969482 L7.163543701171875 8.600634574890137 L7.268754482269287 8.88090705871582 L7.385544776916504 8.600634574890137 L7.735915184020996 7.724460124969482 L8.869078636169434 7.724460124969482 L7.86440896987915 9.838885307312012 L7.86440896987915 11.159061431884766 L6.661271572113037 11.159061431884766 L6.661271572113037 9.862167358398438 L6.649567127227783 9.838759422302246 L5.668306350708008 7.724460124969482 L5.668306350708008 7.724460124969482 M12.362199783325195 10.3177490234375 L12.362199783325195 7.47905158996582 L10.691652297973633 7.47905158996582 L10.691652297973633 11.404221534729004 L13.238373756408691 11.404221534729004 L13.238373756408691 10.3177490234375 L12.362199783325195 10.3177490234375 M12.245284080505371 10.563033103942871 L13.004793167114258 10.563033103942871 L13.004793167114258 11.158812522888184 L10.92523193359375 11.158812522888184 L10.92523193359375 7.724460124969482 L12.128494262695312 7.724460124969482 L12.128494262695312 10.563157081604004 L12.245284080505371 10.563157081604004 L12.245284080505371 10.563033103942871 L12.245284080505371 10.563033103942871 M17.28033447265625 7.47905158996582 L15.703293800354004 7.47905158996582 C15.0841064453125 7.47905158996582 14.768722534179688 7.794435024261475 14.768722534179688 8.413620948791504 L14.768722534179688 10.45794677734375 C14.768722534179688 10.773454666137695 14.838698387145996 10.995330810546875 14.990724563598633 11.147233009338379 C15.16578483581543 11.310714721679688 15.422898292541504 11.404221534729004 15.808255195617676 11.404221534729004 L17.210235595703125 11.404221534729004 C17.572309494018555 11.404221534729004 17.829421997070312 11.322418212890625 17.992778778076172 11.147233009338379 C18.144804000854492 10.995330810546875 18.214780807495117 10.773454666137695 18.214780807495117 10.45794677734375 L18.214780807495117 8.401918411254883 C18.214780807495117 8.109817504882812 18.144804000854492 7.876237392425537 17.992778778076172 7.724460124969482 C17.829421997070312 7.560853958129883 17.595718383789062 7.47905158996582 17.28033447265625 7.47905158996582 M17.981199264526367 10.45794677734375 C17.981199264526367 10.960344314575195 17.771026611328125 11.158812522888184 17.210359573364258 11.158812522888184 L15.808379173278809 11.158812522888184 C15.492996215820312 11.158812522888184 15.282574653625488 11.100417137145996 15.165909767150879 10.983626365661621 C15.049243927001953 10.866836547851562 15.002552032470703 10.703230857849121 15.002552032470703 10.45794677734375 L15.002552032470703 8.413620948791504 C15.002552032470703 8.168336868286133 15.06094741821289 8.004732131958008 15.165909767150879 7.887941360473633 C15.282699584960938 7.782855033874512 15.458009719848633 7.724460124969482 15.703293800354004 7.724460124969482 L17.28033447265625 7.724460124969482 C17.525741577148438 7.724460124969482 17.712507247924805 7.782855033874512 17.817718505859375 7.887941360473633 C17.922805786132812 8.004732131958008 17.9810733795166 8.168336868286133 17.9810733795166 8.401918411254883 L17.9810733795166 10.45794677734375 L17.981199264526367 10.45794677734375 L17.981199264526367 10.45794677734375" fill="black" fill-opacity="1.0" filling="0"/>
<path animation_id="2" d="M16.485837936401367 8.320114135742188 C16.193737030029297 8.320114135742188 16.193737030029297 8.600510597229004 16.193737030029297 8.717300415039062 L16.193737030029297 10.165847778320312 C16.193737030029297 10.282637596130371 16.205442428588867 10.411130905151367 16.287368774414062 10.492934226989746 C16.33405876159668 10.53962516784668 16.404159545898438 10.562908172607422 16.485837936401367 10.562908172607422 C16.579469680786133 10.562908172607422 16.649442672729492 10.539501190185547 16.696134567260742 10.492934226989746 C16.777812957763672 10.411130905151367 16.78951644897461 10.282637596130371 16.78951644897461 10.165847778320312 L16.78951644897461 8.717300415039062 C16.78951644897461 8.612214088439941 16.777812957763672 8.472016334533691 16.696134567260742 8.401918411254883 C16.649566650390625 8.343523025512695 16.579469680786133 8.320114135742188 16.485837936401367 8.320114135742188 L16.485837936401367 8.320114135742188 M16.54448127746582 10.165847778320312 C16.54448127746582 10.294341087341309 16.532777786254883 10.3177490234375 16.532777786254883 10.3177490234375 C16.521072387695312 10.3177490234375 16.521072387695312 10.329452514648438 16.485837936401367 10.329452514648438 C16.46242904663086 10.329452514648438 16.450849533081055 10.3177490234375 16.450849533081055 10.3177490234375 C16.450849533081055 10.3177490234375 16.43914794921875 10.294341087341309 16.43914794921875 10.165847778320312 L16.43914794921875 8.717300415039062 C16.43914794921875 8.588807106018066 16.450849533081055 8.565399169921875 16.450849533081055 8.565399169921875 L16.532777786254883 8.565399169921875 C16.532777786254883 8.565399169921875 16.54448127746582 8.588807106018066 16.54448127746582 8.717300415039062 L16.54448127746582 10.165847778320312 L16.54448127746582 10.165847778320312 M23.29664421081543 7.47905158996582 L21.83626937866211 7.47905158996582 L21.83626937866211 8.179916381835938 L21.60256576538086 7.560853958129883 L21.567577362060547 7.47905158996582 L19.932144165039062 7.47905158996582 L19.932144165039062 11.404221534729004 L21.509183883666992 11.404221534729004 L21.509183883666992 10.4112548828125 L21.847972869873047 11.322418212890625 L21.871381759643555 11.404221534729004 L23.413434982299805 11.404221534729004 L23.413434982299805 7.47905158996582 L23.29664421081543 7.47905158996582 M21.497604370117188 9.698686599731445 L21.263900756835938 9.73379898071289 L21.263900756835938 11.158937454223633 L20.165721893310547 11.158937454223633 L20.165721893310547 7.724460124969482 L21.403972625732422 7.724460124969482 L21.847972869873047 8.88090705871582 L22.069976806640625 8.834216117858887 L22.069976806640625 7.724460124969482 L23.179607391357422 7.724460124969482 L23.179607391357422 11.158937454223633 L22.034738540649414 11.158937454223633 L21.497604370117188 9.698686599731445 L21.497604370117188 9.698686599731445 M0.4347877502441406 15.831663131713867 L0.4347877502441406 12.630890846252441 L0.8669614791870117 12.54896354675293 L0.8669614791870117 15.773391723632812 L0.4347877502441406 15.831663131713867 M2.8063249588012695 15.843367576599121 L2.8063249588012695 15.527983665466309 L2.794621467590332 15.527983665466309 C2.6661272048950195 15.784972190856934 2.397435188293457 15.843367576599121 2.1170387268066406 15.843367576599121 C1.5913591384887695 15.843367576599121 1.2642717361450195 15.457884788513184 1.2642717361450195 14.955488204956055 C1.2642717361450195 14.441636085510254 1.7081499099731445 14.137957572937012 2.175434112548828 14.137957572937012 C2.397435188293457 14.137957572937012 2.607731819152832 14.196352005004883 2.759510040283203 14.359708786010742 L2.759510040283203 14.184648513793945 C2.759510040283203 13.834278106689453 2.5609169006347656 13.810869216918945 2.210421562194824 13.810869216918945 C2.023531913757324 13.810869216918945 1.7781238555908203 13.8225736618042 1.5445432662963867 13.939239501953125 L1.6613340377807617 13.48353385925293 C1.824814796447754 13.460126876831055 2.070223808288574 13.40185546875 2.2921009063720703 13.40185546875 C2.9112863540649414 13.40185546875 3.2032623291015625 13.64726448059082 3.2032623291015625 14.266326904296875 L3.2032623291015625 15.773391723632812 L2.8063249588012695 15.843367576599121 L2.8063249588012695 15.843367576599121 M1.6964454650878906 14.955488204956055 C1.6964454650878906 15.27087116241455 1.8833341598510742 15.434600830078125 2.1988420486450195 15.434600830078125 C2.502645492553711 15.434600830078125 2.759634017944336 15.317687034606934 2.759634017944336 14.955488204956055 C2.759634017944336 14.663387298583984 2.502645492553711 14.523314476013184 2.233954429626465 14.523314476013184 C1.9652624130249023 14.523314476013184 1.6964454650878906 14.651808738708496 1.6964454650878906 14.955488204956055 L1.6964454650878906 14.955488204956055 M3.6706724166870117 15.843367576599121 L3.6706724166870117 13.471829414367676 L4.091265678405762 13.40185546875 L4.091265678405762 13.705533981323242 L4.102969646453857 13.705533981323242 C4.184772491455078 13.5421781539917 4.406648635864258 13.40185546875 4.687045097351074 13.40185546875 C4.9557366371154785 13.40185546875 5.177613258361816 13.471829414367676 5.2828240394592285 13.72894287109375 C5.376206398010254 13.553881645202637 5.656602382659912 13.40185546875 5.972109794616699 13.40185546875 C6.38100004196167 13.40185546875 6.731370449066162 13.623855590820312 6.731370449066162 14.126253128051758 L6.731370449066162 15.773391723632812 L6.299196720123291 15.843367576599121 L6.299196720123291 14.207931518554688 C6.299196720123291 13.950942993164062 6.194110870361328 13.787213325500488 5.925418853759766 13.787213325500488 C5.726825714111328 13.787213325500488 5.4231462478637695 13.892548561096191 5.4231462478637695 14.254622459411621 L5.4231462478637695 15.77326774597168 L4.990848541259766 15.843242645263672 L4.990848541259766 14.207807540893555 C4.990848541259766 13.95081901550293 4.8856377601623535 13.787088394165039 4.61707067489624 13.787088394165039 C4.418477535247803 13.787088394165039 4.114673614501953 13.892424583435059 4.114673614501953 14.254498481750488 L4.114673614501953 15.773143768310547 L3.6706724166870117 15.843367576599121 L3.6706724166870117 15.843367576599121 M7.257174968719482 15.843367576599121 L7.257174968719482 13.471829414367676 L7.701052665710449 13.40185546875 L7.701052665710449 15.773391723632812 L7.257174968719482 15.843367576599121 M7.47905158996582 12.513976097106934 L7.771151542663574 12.864346504211426 L7.490879535675049 13.203386306762695 L7.198780059814453 12.864346504211426 L7.47905158996582 12.513976097106934 L7.47905158996582 12.513976097106934 M8.22673225402832 15.843367576599121 L8.22673225402832 13.471829414367676 L8.670609474182129 13.40185546875 L8.670609474182129 13.740646362304688 L8.682313919067383 13.740646362304688 C8.810808181762695 13.507190704345703 9.091203689575195 13.40185546875 9.359895706176758 13.40185546875 C9.827180862426758 13.40185546875 10.27105712890625 13.623855590820312 10.27105712890625 14.196352005004883 L10.27105712890625 15.773391723632812 L9.827180862426758 15.843367576599121 L9.827180862426758 14.231339454650879 C9.827180862426758 13.892548561096191 9.59360122680664 13.787338256835938 9.324783325195312 13.787338256835938 C8.974413871765137 13.787338256835938 8.670609474182129 13.997633934020996 8.670609474182129 14.488451957702637 L8.670609474182129 15.773391723632812 L8.22673225402832 15.843367576599121 L8.22673225402832 15.843367576599121 M13.15644645690918 14.6168212890625 C13.15644645690918 15.317687034606934 12.595904350280762 15.843491554260254 11.906493186950684 15.843491554260254 C11.229035377502441 15.843491554260254 10.656539916992188 15.317687034606934 10.656539916992188 14.6168212890625 C10.656539916992188 13.92765998840332 11.229035377502441 13.40185546875 11.906493186950684 13.40185546875 C12.595904350280762 13.40185546875 13.15644645690918 13.927536010742188 13.15644645690918 14.6168212890625 M11.906493186950684 13.810869216918945 C11.450912475585938 13.810869216918945 11.088837623596191 14.172945022583008 11.088837623596191 14.6168212890625 A0.8125506043434143 0.8125506043434143 0.0 0 0 11.906493186950684 15.434600830078125 A0.8126751184463501 0.8126751184463501 0.0 0 0 12.724273681640625 14.6168212890625 C12.724273681640625 14.172945022583008 12.362199783325195 13.810869216918945 11.906493186950684 13.810869216918945 L11.906493186950684 13.810869216918945 M14.219635963439941 15.843367576599121 L13.226670265197754 13.471829414367676 L13.647139549255371 13.40185546875 L14.254622459411621 14.885513305664062 L15.025835990905762 13.40185546875 L15.037415504455566 13.40185546875 L15.808379173278809 14.885513305664062 L16.427566528320312 13.40185546875 L16.859865188598633 13.471829414367676 L15.843367576599121 15.843367576599121 L15.831663131713867 15.843367576599121 L15.037415504455566 14.266326904296875 L14.219635963439941 15.843367576599121 L14.219635963439941 15.843367576599121 M18.40191650390625 15.843367576599121 L18.40191650390625 15.527983665466309 L18.390214920043945 15.527983665466309 C18.261594772338867 15.784972190856934 17.981199264526367 15.843367576599121 17.712507247924805 15.843367576599121 C17.186952590942383 15.843367576599121 16.84803581237793 15.457884788513184 16.84803581237793 14.955488204956055 C16.84803581237793 14.441636085510254 17.303741455078125 14.137957572937012 17.77115249633789 14.137957572937012 C17.992902755737305 14.137957572937012 18.203323364257812 14.196352005004883 18.354976654052734 14.359708786010742 L18.354976654052734 14.184648513793945 C18.354976654052734 13.834278106689453 18.144804000854492 13.810869216918945 17.806137084960938 13.810869216918945 C17.619125366210938 13.810869216918945 17.373716354370117 13.8225736618042 17.128433227539062 13.939239501953125 L17.257051467895508 13.48353385925293 C17.408828735351562 13.460126876831055 17.665815353393555 13.40185546875 17.876237869262695 13.40185546875 C18.495426177978516 13.40185546875 18.78740119934082 13.64726448059082 18.78740119934082 14.266326904296875 L18.78740119934082 15.773391723632812 L18.40191650390625 15.843367576599121 L18.40191650390625 15.843367576599121 M17.292037963867188 14.955488204956055 C17.292037963867188 15.27087116241455 17.47905158996582 15.434600830078125 17.79443359375 15.434600830078125 C18.086532592773438 15.434600830078125 18.354976654052734 15.317687034606934 18.354976654052734 14.955488204956055 C18.354976654052734 14.663387298583984 18.09823989868164 14.523314476013184 17.817842483520508 14.523314476013184 C17.56072998046875 14.523438453674316 17.292037963867188 14.651808738708496 17.292037963867188 14.955488204956055 M19.26613998413086 15.843367576599121 L19.26613998413086 13.471829414367676 L19.710142135620117 13.40185546875 L19.710142135620117 13.740646362304688 L19.721845626831055 13.740646362304688 C19.850215911865234 13.507190704345703 20.130611419677734 13.40185546875 20.399303436279297 13.40185546875 C20.866714477539062 13.40185546875 21.31046485900879 13.623855590820312 21.31046485900879 14.196352005004883 L21.31046485900879 15.773391723632812 L20.866714477539062 15.843367576599121 L20.866714477539062 14.231339454650879 C20.866714477539062 13.892548561096191 20.633007049560547 13.787338256835938 20.364315032958984 13.787338256835938 C20.013946533203125 13.787338256835938 19.710142135620117 13.997633934020996 19.710142135620117 14.488451957702637 L19.710142135620117 15.773391723632812 L19.26613998413086 15.843367576599121 L19.26613998413086 15.843367576599121 M21.485898971557617 13.471829414367676 L21.871381759643555 13.40185546875 L22.59565544128418 14.815414428710938 L23.261409759521484 13.40185546875 L23.647140502929688 13.471829414367676 L22.186763763427734 16.520950317382812 L21.789703369140625 16.415863037109375 L22.385482788085938 15.259291648864746 L21.485898971557617 13.471829414367676 L21.485898971557617 13.471829414367676 M0.37639331817626953 12.186888694763184 L23.518522262573242 12.186888694763184 L23.518522262573242 12.070099830627441 L0.37639331817626953 12.070099830627441 L0.37639331817626953 12.186888694763184" fill="black" fill-opacity="1.0" filling="0"/></svg>