<?xml version="1.0" encoding="iso-8859-1"?><svg height="200px" viewBox="0.0 0.0 24.0 24.0" width="200px" xmlns="http://www.w3.org/2000/svg"><path animation_id="0" d="M0.0 0.0 L24.0 0.0 L24.0 24.0 L0.0 24.0 L0.0 0.0" fill="black" fill-opacity="1.0" filling="0"/>
<path animation_id="1" d="M7.989043712615967 11.243478775024414 L7.989043712615967 11.800411224365234 C7.989043712615967 11.800411224365234 8.500778198242188 11.890182495117188 8.500778198242188 11.41418170928955 C8.500778198242188 10.938180923461914 7.989043712615967 11.027952194213867 7.989043712615967 11.027952194213867 L7.989043712615967 11.243478775024414 L7.989043712615967 11.243478775024414 M7.6833720207214355 10.85301685333252 L7.6833720207214355 12.698375701904297 L7.418539524078369 12.859989166259766 L7.9976348876953125 12.859989166259766 L7.9976348876953125 11.962024688720703 C7.9976348876953125 11.962024688720703 8.31202220916748 11.894664764404297 8.554566383361816 12.361701011657715 C8.807943344116211 12.84990406036377 8.796987533569336 12.855755805969238 8.796987533569336 12.855755805969238 L9.272987365722656 12.855755805969238 L9.048372268676758 12.729875564575195 C9.048372268676758 12.729875564575195 8.805952072143555 11.948452949523926 8.383988380432129 11.885700225830078 C8.603872299194336 11.845234870910645 8.850774765014648 11.72408676147461 8.850774765014648 11.382929801940918 C8.850774765014648 11.041523933410645 8.545601844787598 10.85301685333252 8.271679878234863 10.85301685333252 L7.6833720207214355 10.85301685333252 L7.6833720207214355 10.85301685333252" fill="black" fill-opacity="1.0" filling="0"/>
<path animation_id="2" d="M7.6833720207214355 10.85301685333252 L7.6833720207214355 12.698375701904297 L7.418539524078369 12.859989166259766 L7.9976348876953125 12.859989166259766 L7.9976348876953125 11.962024688720703 C7.9976348876953125 11.962024688720703 8.31202220916748 11.894664764404297 8.554566383361816 12.361701011657715 C8.807943344116211 12.84990406036377 8.796987533569336 12.855755805969238 8.796987533569336 12.855755805969238 L9.272987365722656 12.855755805969238 L9.048372268676758 12.729875564575195 C9.048372268676758 12.729875564575195 8.805952072143555 11.948452949523926 8.383988380432129 11.885700225830078 C8.603872299194336 11.845234870910645 8.850774765014648 11.72408676147461 8.850774765014648 11.382929801940918 C8.850774765014648 11.041523933410645 8.545601844787598 10.85301685333252 8.271679878234863 10.85301685333252 L7.6833720207214355 10.85301685333252 L7.6833720207214355 10.85301685333252 M7.989043712615967 11.243478775024414 L7.989043712615967 11.800411224365234 C7.989043712615967 11.800411224365234 8.500778198242188 11.890182495117188 8.500778198242188 11.41418170928955 C8.500778198242188 10.938180923461914 7.989043712615967 11.027952194213867 7.989043712615967 11.027952194213867 L7.989043712615967 11.243478775024414 L7.989043712615967 11.243478775024414 M1.0684185028076172 10.958476066589355 C1.0325593948364258 11.335492134094238 1.0379133224487305 12.489946365356445 2.2000865936279297 13.409823417663574 C2.8913650512695312 12.072091102600098 4.202577114105225 10.078316688537598 6.546224594116211 8.587686538696289 C5.055593967437744 8.605615615844727 2.7207870483398438 9.099421501159668 1.0684185028076172 10.958476066589355 L1.0684185028076172 10.958476066589355" fill="black" fill-opacity="1.0" filling="0"/>
<path animation_id="3" d="M6.025400161743164 11.856440544128418 C5.675278663635254 11.892423629760742 3.780488967895508 12.215651512145996 2.160991668701172 13.618253707885742 C2.160991668701172 13.957168579101562 2.0672359466552734 14.625536918640137 2.9810123443603516 15.412439346313477 C3.3382301330566406 14.680072784423828 4.247276306152344 13.16752815246582 6.025400161743164 11.856440544128418" fill="black" fill-opacity="1.0" filling="0"/>
<path animation_id="4" d="M9.717611312866211 11.872252464294434 C9.717611312866211 11.378572463989258 10.0311279296875 10.978647232055664 10.41797924041748 10.978647232055664 C10.80495548248291 10.978647232055664 11.118471145629883 11.378572463989258 11.118471145629883 11.872252464294434 C11.118471145629883 12.365561485290527 10.80495548248291 12.765734672546387 10.41797924041748 12.765734672546387 C10.0311279296875 12.765734672546387 9.717611312866211 12.365561485290527 9.717611312866211 11.872252464294434 M9.335989952087402 11.858806610107422 C9.335989952087402 11.273486137390137 9.820457458496094 10.798979759216309 10.41797924041748 10.798979759216309 C11.015750885009766 10.798979759216309 11.500093460083008 11.273486137390137 11.500093460083008 11.858806610107422 C11.500093460083008 12.444002151489258 11.015625953674316 12.918508529663086 10.41797924041748 12.918508529663086 C9.820457458496094 12.918508529663086 9.335989952087402 12.444002151489258 9.335989952087402 11.858806610107422" fill="black" fill-opacity="1.0" filling="0"/>
<path animation_id="5" d="M7.131295680999756 10.85301685333252 L6.031127452850342 10.85301685333252 L6.031127452850342 12.693892478942871 L5.748241424560547 12.859989166259766 L6.633131980895996 12.859989166259766 L6.3410325050354 12.693892478942871 L6.3410325050354 11.939737319946289 L6.834962368011475 11.939737319946289 L6.834962368011475 11.773392677307129 L6.3410325050354 11.773392677307129 L6.3410325050354 11.014629364013672 L6.9650750160217285 11.014629364013672 L7.131295680999756 11.27273941040039 L7.131295680999756 10.85301685333252 M11.958165168762207 12.855755805969238 L11.958165168762207 10.673348426818848 L13.439955711364746 12.370540618896484 L13.439955711364746 10.996451377868652 L13.170516014099121 10.85301685333252 L13.637428283691406 10.85301685333252 L13.637428283691406 13.04426383972168 L12.146797180175781 11.32901668548584 L12.146797180175781 12.702857971191406 L12.425200462341309 12.855755805969238 L11.958165168762207 12.855755805969238 M14.80495548248291 11.086347579956055 L14.311025619506836 11.086347579956055 L14.122393608093262 11.32901668548584 L14.122393608093262 10.85301685333252 L15.80128288269043 10.85301685333252 L15.80128288269043 11.32901668548584 L15.612649917602539 11.086347579956055 L15.127685546875 11.086347579956055 L15.127685546875 12.855755805969238 L14.80495548248291 12.855755805969238 L14.80495548248291 11.086347579956055 M16.17892074584961 10.861981391906738 L16.726638793945312 10.861981391906738 L16.726638793945312 12.702857971191406 L17.400236129760742 12.702857971191406 L17.579654693603516 12.433419227600098 L17.579654693603516 12.855755805969238 L16.14293670654297 12.855755805969238 L16.403411865234375 12.702857971191406 L16.403411865234375 11.014629364013672 L16.17892074584961 10.861981391906738 L16.17892074584961 10.861981391906738 M18.54510498046875 10.85301685333252 L18.226608276367188 11.126812934875488 L18.226608276367188 12.702857971191406 L17.948078155517578 12.855755805969238 L18.8101863861084 12.855755805969238 L18.54510498046875 12.702857971191406 L18.54510498046875 10.85301685333252 L18.54510498046875 10.85301685333252 M19.344955444335938 12.855755805969238 L19.344955444335938 10.673348426818848 L20.826745986938477 12.370540618896484 L20.826745986938477 10.996451377868652 L20.557180404663086 10.85301685333252 L21.024093627929688 10.85301685333252 L21.024093627929688 13.04426383972168 L19.533462524414062 11.32901668548584 L19.533462524414062 12.702857971191406 L19.811866760253906 12.855755805969238 L19.344955444335938 12.855755805969238 M21.80962371826172 10.866463661193848 L21.80962371826172 12.702857971191406 L21.531219482421875 12.855755805969238 L22.94116973876953 12.855755805969238 L22.94116973876953 12.424578666687012 L22.779430389404297 12.702857971191406 L22.119403839111328 12.702857971191406 L22.119403839111328 11.908111572265625 L22.608978271484375 11.908111572265625 L22.608978271484375 11.759944915771484 L22.119403839111328 11.759944915771484 L22.119403839111328 11.014629364013672 L22.74830436706543 11.014629364013672 L22.92784881591797 11.297391891479492 L22.92784881591797 10.866463661193848 L21.80962371826172 10.866463661193848 L21.80962371826172 10.866463661193848 M9.335989952087402 11.858806610107422 C9.335989952087402 11.273486137390137 9.820457458496094 10.798979759216309 10.41797924041748 10.798979759216309 C11.015750885009766 10.798979759216309 11.500093460083008 11.273486137390137 11.500093460083008 11.858806610107422 C11.500093460083008 12.444002151489258 11.015625953674316 12.918508529663086 10.41797924041748 12.918508529663086 C9.820457458496094 12.918508529663086 9.335989952087402 12.444002151489258 9.335989952087402 11.858806610107422" fill="black" fill-opacity="1.0" filling="0"/>
<path animation_id="6" d="M9.717611312866211 11.872252464294434 C9.717611312866211 11.378572463989258 10.0311279296875 10.978647232055664 10.41797924041748 10.978647232055664 C10.80495548248291 10.978647232055664 11.118471145629883 11.378572463989258 11.118471145629883 11.872252464294434 C11.118471145629883 12.365561485290527 10.80495548248291 12.765734672546387 10.41797924041748 12.765734672546387 C10.0311279296875 12.765734672546387 9.717611312866211 12.365561485290527 9.717611312866211 11.872252464294434" fill="black" fill-opacity="1.0" filling="0"/>
<path animation_id="7" d="M6.028886795043945 14.216024398803711 L6.140820503234863 14.216024398803711 L6.178297996520996 14.089523315429688 L6.33455753326416 14.089523315429688 L6.372159957885742 14.216024398803711 L6.487082481384277 14.216024398803711 L6.319118499755859 13.682002067565918 L6.203449249267578 13.682002067565918 L6.028886795043945 14.216024398803711 L6.028886795043945 14.216024398803711 M6.23295783996582 13.901762008666992 L6.258233547210693 13.799041748046875 C6.258233547210693 13.799041748046875 6.274294853210449 13.86901569366455 6.279524326324463 13.89354419708252 C6.291228294372559 13.944842338562012 6.308784008026123 14.000747680664062 6.308784008026123 14.000747680664062 L6.2045698165893555 14.000747680664062 C6.21589994430542 13.965386390686035 6.222748279571533 13.94011116027832 6.23295783996582 13.901762008666992 M6.8119282722473145 13.667434692382812 C6.699246883392334 13.667434692382812 6.621054649353027 13.734794616699219 6.621054649353027 13.832160949707031 C6.621054649353027 13.862043380737305 6.628649711608887 13.88956069946289 6.64321756362915 13.913341522216797 C6.662516117095947 13.945465087890625 6.695262432098389 13.96625804901123 6.7481794357299805 13.980826377868652 L6.807197093963623 13.9970121383667 C6.854759693145752 14.009089469909668 6.877171516418457 14.031251907348633 6.877171516418457 14.065866470336914 C6.877171516418457 14.113553047180176 6.844798564910889 14.138704299926758 6.783539772033691 14.138704299926758 C6.7300004959106445 14.138704299926758 6.687169551849365 14.1216459274292 6.637240886688232 14.095747947692871 L6.597397804260254 14.179293632507324 C6.651061534881592 14.210047721862793 6.718545913696289 14.227478981018066 6.779057502746582 14.227478981018066 C6.911411285400391 14.227478981018066 6.998941898345947 14.156384468078613 6.998941898345947 14.048310279846191 C6.998941898345947 13.969494819641113 6.951379299163818 13.913466453552246 6.864098072052002 13.889684677124023 L6.7996015548706055 13.872004508972168 C6.755151748657227 13.85980224609375 6.740584373474121 13.84598159790039 6.740584373474121 13.818465232849121 C6.740584373474121 13.782357215881348 6.771213531494141 13.757081985473633 6.814916610717773 13.757081985473633 C6.854884147644043 13.757081985473633 6.890742778778076 13.768661499023438 6.939052581787109 13.797672271728516 L6.989603519439697 13.721097946166992 C6.942788124084473 13.687355995178223 6.877171516418457 13.667434692382812 6.8119282722473145 13.667434692382812 L6.8119282722473145 13.667434692382812 M7.194795608520508 14.216024398803711 L7.306605339050293 14.216024398803711 L7.306605339050293 13.683372497558594 L7.194795608520508 13.683372497558594 L7.194795608520508 14.216024398803711 M7.462740421295166 14.216024398803711 L7.574550151824951 14.216024398803711 L7.612028121948242 14.089523315429688 L7.768411636352539 14.089523315429688 L7.80588960647583 14.216024398803711 L7.920936584472656 14.216024398803711 L7.7530975341796875 13.682002067565918 L7.637303352355957 13.682002067565918 L7.462740421295166 14.216024398803711 L7.462740421295166 14.216024398803711 M7.666563034057617 13.901762008666992 C7.676523685455322 13.862043380737305 7.69183874130249 13.799041748046875 7.69183874130249 13.799041748046875 C7.69183874130249 13.799041748046875 7.707900047302246 13.86901569366455 7.713254451751709 13.89354419708252 C7.7248334884643555 13.944842338562012 7.742513656616211 14.000747680664062 7.742513656616211 14.000747680664062 L7.638299465179443 14.000747680664062 C7.649629592895508 13.965386390686035 7.656602382659912 13.94011116027832 7.666563034057617 13.901762008666992 L7.666563034057617 13.901762008666992 M8.155885696411133 13.76305866241455 C8.155885696411133 13.709394454956055 8.123638153076172 13.671170234680176 8.079188346862793 13.671170234680176 A0.06536760926246643 0.06536760926246643 0.0 0 0 8.012699127197266 13.737035751342773 C8.012699127197266 13.761564254760742 8.02178955078125 13.778497695922852 8.042582511901855 13.790823936462402 C8.05777359008789 13.79991340637207 8.062503814697266 13.805391311645508 8.062503814697266 13.815227508544922 C8.062503814697266 13.83353042602539 8.040216445922852 13.850587844848633 8.007221221923828 13.859054565429688 L8.047811508178711 13.901264190673828 C8.11230754852295 13.885077476501465 8.155885696411133 13.82917308807373 8.155885696411133 13.76305866241455 L8.155885696411133 13.76305866241455 M8.521198272705078 13.667434692382812 C8.408515930175781 13.667434692382812 8.330324172973633 13.734794616699219 8.330324172973633 13.832160949707031 C8.330324172973633 13.862043380737305 8.33816909790039 13.88956069946289 8.352611541748047 13.913341522216797 C8.371662139892578 13.945465087890625 8.404656410217285 13.96625804901123 8.457697868347168 13.980826377868652 L8.51659107208252 13.9970121383667 C8.564153671264648 14.009089469909668 8.586441040039062 14.031251907348633 8.586441040039062 14.065866470336914 C8.586441040039062 14.113553047180176 8.554069519042969 14.138704299926758 8.492934226989746 14.138704299926758 C8.4393949508667 14.138704299926758 8.39631462097168 14.1216459274292 8.346510887145996 14.095747947692871 L8.30666732788086 14.179293632507324 C8.360331535339355 14.210047721862793 8.427690505981445 14.227478981018066 8.488202095031738 14.227478981018066 C8.620805740356445 14.227478981018066 8.708335876464844 14.156384468078613 8.708335876464844 14.048310279846191 C8.708335876464844 13.969494819641113 8.660648345947266 13.913466453552246 8.573368072509766 13.889684677124023 L8.508995056152344 13.872004508972168 C8.464546203613281 13.85980224609375 8.44997787475586 13.84598159790039 8.44997787475586 13.818465232849121 C8.44997787475586 13.782357215881348 8.480483055114746 13.757081985473633 8.524186134338379 13.757081985473633 C8.564153671264648 13.757081985473633 8.600136756896973 13.768661499023438 8.648447036743164 13.797672271728516 L8.698873519897461 13.721097946166992 C8.65230655670166 13.687355995178223 8.586316108703613 13.667434692382812 8.521198272705078 13.667434692382812 L8.521198272705078 13.667434692382812 M9.25991439819336 14.216024398803711 L9.367241859436035 14.216024398803711 L9.367241859436035 14.01992130279541 L9.426135063171387 14.01992130279541 C9.48527717590332 14.01992130279541 9.508062362670898 14.013696670532227 9.53258991241455 14.002241134643555 C9.590861320495605 13.974599838256836 9.624603271484375 13.916329383850098 9.624603271484375 13.845857620239258 C9.624603271484375 13.784722328186035 9.597833633422852 13.735541343688965 9.5481538772583 13.708148956298828 C9.518272399902344 13.691091537475586 9.490506172180176 13.682002067565918 9.40011215209961 13.682002067565918 L9.25991439819336 13.682002067565918 L9.25991439819336 14.216024398803711 L9.25991439819336 14.216024398803711 M9.435348510742188 13.768536567687988 C9.480545043945312 13.768536567687988 9.507315635681152 13.798294067382812 9.507315635681152 13.848347663879395 C9.507315635681152 13.873498916625977 9.503456115722656 13.89043140411377 9.494241714477539 13.904999732971191 C9.479798316955566 13.927038192749023 9.466724395751953 13.93264102935791 9.423022270202637 13.93264102935791 L9.367116928100586 13.93264102935791 L9.367116928100586 13.768661499023438 L9.435348510742188 13.768661499023438 L9.435348510742188 13.768536567687988 M9.80738353729248 14.216024398803711 L9.912469863891602 14.216024398803711 L9.912469863891602 13.9937744140625 C9.920936584472656 13.994647026062012 9.923925399780273 13.996265411376953 9.929154396057129 13.998506546020508 C9.94770622253418 14.007719039916992 9.96451473236084 14.03287124633789 10.017431259155273 14.128743171691895 C10.037976264953613 14.166220664978027 10.046442985534668 14.180788040161133 10.067235946655273 14.216024398803711 L10.193737983703613 14.216024398803711 C10.193737983703613 14.216024398803711 10.096245765686035 14.047438621520996 10.065617561340332 14.009089469909668 A0.10882151871919632 0.10882151871919632 0.0 0 0 10.0435791015625 13.986927032470703 C10.109444618225098 13.985432624816895 10.162236213684082 13.919442176818848 10.162236213684082 13.83975601196289 C10.162236213684082 13.746374130249023 10.100106239318848 13.683372497558594 10.005976676940918 13.683372497558594 L9.80738353729248 13.682748794555664 L9.80738353729248 14.216024398803711 L9.80738353729248 14.216024398803711 M9.95081901550293 13.769407272338867 C9.97684097290039 13.769407272338867 9.999128341674805 13.772396087646484 10.011330604553223 13.777003288269043 C10.036605834960938 13.786839485168457 10.049678802490234 13.809375762939453 10.049678802490234 13.842121124267578 A0.07246467471122742 0.07246467471122742 0.0 0 1 10.028885841369629 13.895785331726074 C10.014318466186523 13.908734321594238 9.994397163391113 13.913466453552246 9.948452949523926 13.913466453552246 L9.912469863891602 13.913466453552246 L9.913091659545898 13.769532203674316 L9.95081901550293 13.769532203674316 L9.95081901550293 13.769407272338867 L9.95081901550293 13.769407272338867 M10.362821578979492 14.216024398803711 L10.673224449157715 14.216024398803711 L10.673224449157715 14.124136924743652 L10.47164249420166 14.124136924743652 L10.47164249420166 13.981573104858398 L10.622549057006836 13.981573104858398 L10.622549057006836 13.894291877746582 L10.470024108886719 13.894291877746582 L10.470024108886719 13.770777702331543 L10.65243148803711 13.770777702331543 L10.666252136230469 13.683372497558594 L10.362821578979492 13.683372497558594 L10.362821578979492 14.216024398803711 L10.362821578979492 14.216024398803711 M10.837701797485352 14.216024398803711 L10.94577693939209 14.216024398803711 L10.964202880859375 13.937994003295898 C10.966569900512695 13.904999732971191 10.968063354492188 13.875242233276367 10.968063354492188 13.843615531921387 C10.968063354492188 13.843615531921387 10.98263168334961 13.910353660583496 10.989479064941406 13.936375617980957 L11.065305709838867 14.216024398803711 L11.15955924987793 14.216024398803711 L11.243852615356445 13.924921035766602 C11.252941131591797 13.89267349243164 11.256926536560059 13.877482414245605 11.26302719116211 13.846604347229004 C11.26302719116211 13.875117301940918 11.265143394470215 13.898027420043945 11.267509460449219 13.931768417358398 L11.287430763244629 14.216024398803711 L11.393388748168945 14.216024398803711 L11.345701217651367 13.683496475219727 L11.205503463745117 13.683496475219727 L11.133536338806152 13.947831153869629 A1.1375210285186768 1.1375210285186768 0.0 0 0 11.114486694335938 14.031376838684082 A0.8281143307685852 0.8281143307685852 0.0 0 0 11.09605884552002 13.950321197509766 L11.026333808898926 13.683496475219727 L10.887630462646484 13.683496475219727 L10.837701797485352 14.216024398803711 L10.837701797485352 14.216024398803711 M11.590861320495605 14.216024398803711 L11.702795028686523 14.216024398803711 L11.702795028686523 13.683372497558594 L11.590861320495605 13.683372497558594 L11.590861320495605 14.216024398803711 M11.920811653137207 14.216024398803711 L12.231090545654297 14.216024398803711 L12.231090545654297 14.124136924743652 L12.029757499694824 14.124136924743652 L12.029757499694824 13.981573104858398 L12.180540084838867 13.981573104858398 L12.180540084838867 13.894291877746582 L12.028139114379883 13.894291877746582 L12.028139114379883 13.770777702331543 L12.210421562194824 13.770777702331543 L12.224367141723633 13.683372497558594 L11.920811653137207 13.683372497558594 L11.920811653137207 14.216024398803711 L11.920811653137207 14.216024398803711 M12.412750244140625 14.216024398803711 L12.517836570739746 14.216024398803711 L12.517836570739746 13.9937744140625 C12.526053428649902 13.994647026062012 12.529291152954102 13.996265411376953 12.534645080566406 13.998506546020508 C12.552824020385742 14.007719039916992 12.569881439208984 14.03287124633789 12.622673034667969 14.128743171691895 C12.643342018127441 14.166220664978027 12.651808738708496 14.180788040161133 12.672477722167969 14.216024398803711 L12.798978805541992 14.216024398803711 C12.798978805541992 14.216024398803711 12.701737403869629 14.047438621520996 12.670858383178711 14.009089469909668 A0.10085289180278778 0.10085289180278778 0.0 0 0 12.648695945739746 13.986927032470703 C12.714811325073242 13.985432624816895 12.767354011535645 13.919442176818848 12.767354011535645 13.83975601196289 C12.767354011535645 13.746374130249023 12.705348014831543 13.683372497558594 12.611218452453613 13.683372497558594 L12.412750244140625 13.682748794555664 L12.412750244140625 14.216024398803711 L12.412750244140625 14.216024398803711 M12.556060791015625 13.769407272338867 C12.582083702087402 13.769407272338867 12.60449504852295 13.772396087646484 12.616572380065918 13.777003288269043 C12.641847610473633 13.786839485168457 12.654796600341797 13.809375762939453 12.654796600341797 13.842121124267578 A0.07321172952651978 0.07321172952651978 0.0 0 1 12.634377479553223 13.895785331726074 C12.619810104370117 13.908734321594238 12.59988784790039 13.913466453552246 12.55394458770752 13.913466453552246 L12.517960548400879 13.913466453552246 L12.518707275390625 13.769532203674316 L12.556060791015625 13.769532203674316 L12.556060791015625 13.769407272338867 L12.556060791015625 13.769407272338867 M13.329390525817871 14.216024398803711 L13.440951347351074 14.216024398803711 L13.440951347351074 13.683372497558594 L13.329390525817871 13.683372497558594 L13.329390525817871 14.216024398803711 M13.612401962280273 13.772396087646484 L13.74276351928711 13.772396087646484 L13.74276351928711 14.216024398803711 L13.851709365844727 14.216024398803711 L13.851709365844727 13.772396087646484 L13.978708267211914 13.772396087646484 L13.996389389038086 13.683372497558594 L13.612401962280273 13.683372497558594 L13.612401962280273 13.772396087646484 L13.612401962280273 13.772396087646484 M14.685550689697266 13.667434692382812 C14.572745323181152 13.667434692382812 14.494677543640137 13.734794616699219 14.494677543640137 13.832160949707031 C14.494677543640137 13.862043380737305 14.502396583557129 13.88956069946289 14.516839981079102 13.913341522216797 C14.536264419555664 13.945465087890625 14.569134712219238 13.96625804901123 14.621926307678223 13.980826377868652 L14.681068420410156 13.9970121383667 C14.728755950927734 14.009089469909668 14.750669479370117 14.031251907348633 14.750669479370117 14.065866470336914 C14.750669479370117 14.113553047180176 14.718794822692871 14.138704299926758 14.65728759765625 14.138704299926758 C14.603748321533203 14.138704299926758 14.560791969299316 14.1216459274292 14.510863304138184 14.095747947692871 L14.471269607543945 14.179293632507324 C14.524808883666992 14.210047721862793 14.592168807983398 14.227478981018066 14.652680397033691 14.227478981018066 C14.78515911102295 14.227478981018066 14.87281322479248 14.156384468078613 14.87281322479248 14.048310279846191 C14.87281322479248 13.969494819641113 14.825126647949219 13.913466453552246 14.737844467163086 13.889684677124023 L14.673349380493164 13.872004508972168 C14.628898620605469 13.85980224609375 14.614206314086914 13.84598159790039 14.614206314086914 13.818465232849121 C14.614206314086914 13.782357215881348 14.645085334777832 13.757081985473633 14.688912391662598 13.757081985473633 C14.728755950927734 13.757081985473633 14.764739036560059 13.768661499023438 14.8129243850708 13.797672271728516 L14.863475799560547 13.721097946166992 C14.816411018371582 13.687355995178223 14.750545501708984 13.667434692382812 14.685550689697266 13.667434692382812 L14.685550689697266 13.667434692382812 M15.066177368164062 14.216024398803711 L15.376455307006836 14.216024398803711 L15.376455307006836 14.124136924743652 L15.174874305725098 14.124136924743652 L15.174874305725098 13.981573104858398 L15.32590389251709 13.981573104858398 L15.32590389251709 13.894291877746582 L15.173379898071289 13.894291877746582 L15.173379898071289 13.770777702331543 L15.35578727722168 13.770777702331543 L15.369607925415039 13.683372497558594 L15.066177368164062 13.683372497558594 L15.066177368164062 14.216024398803711 L15.066177368164062 14.216024398803711 M15.557867050170898 14.216024398803711 L15.662952423095703 14.216024398803711 L15.662952423095703 13.9937744140625 C15.671170234680176 13.994647026062012 15.674407005310059 13.996265411376953 15.679760932922363 13.998506546020508 C15.698188781738281 14.007719039916992 15.714997291564941 14.03287124633789 15.767789840698242 14.128743171691895 C15.78870677947998 14.166220664978027 15.797174453735352 14.180788040161133 15.817593574523926 14.216024398803711 L15.94409465789795 14.216024398803711 C15.94409465789795 14.216024398803711 15.846853256225586 14.047438621520996 15.816224098205566 14.009089469909668 A0.10645583271980286 0.10645583271980286 0.0 0 0 15.794060707092285 13.986927032470703 C15.859926223754883 13.985432624816895 15.912718772888184 13.919442176818848 15.912718772888184 13.83975601196289 C15.912718772888184 13.746374130249023 15.850712776184082 13.683372497558594 15.75633430480957 13.683372497558594 L15.557867050170898 13.682748794555664 L15.557867050170898 14.216024398803711 L15.557867050170898 14.216024398803711 M15.701301574707031 13.769407272338867 C15.727324485778809 13.769407272338867 15.749485969543457 13.772396087646484 15.761564254760742 13.777003288269043 C15.787088394165039 13.786839485168457 15.800037384033203 13.809375762939453 15.800037384033203 13.842121124267578 A0.07209113985300064 0.07209113985300064 0.0 0 1 15.779120445251465 13.895785331726074 C15.764801025390625 13.908734321594238 15.744879722595215 13.913466453552246 15.698810577392578 13.913466453552246 L15.662827491760254 13.913466453552246 L15.663575172424316 13.769532203674316 L15.701301574707031 13.769532203674316 L15.701301574707031 13.769407272338867 L15.701301574707031 13.769407272338867 M16.222997665405273 14.219759941101074 L16.320240020751953 14.219759941101074 L16.505508422851562 13.682873725891113 L16.392953872680664 13.683496475219727 L16.30243492126465 13.947208404541016 C16.293968200683594 13.973854064941406 16.28936195373535 13.986927032470703 16.28101921081543 14.015439987182617 C16.276411056518555 14.033617973327637 16.274917602539062 14.038349151611328 16.271804809570312 14.053664207458496 C16.26894187927246 14.039220809936523 16.267196655273438 14.03374195098877 16.26408576965332 14.020668983459473 C16.257984161376953 13.997633934020996 16.249767303466797 13.970117568969727 16.247276306152344 13.961028099060059 L16.15924835205078 13.683496475219727 L16.042083740234375 13.683496475219727 L16.222997665405273 14.219759941101074 M16.6669979095459 14.216024398803711 L16.778932571411133 14.216024398803711 L16.778932571411133 13.683372497558594 L16.6669979095459 13.683372497558594 L16.6669979095459 14.216024398803711 M17.20836639404297 13.672040939331055 C17.122703552246094 13.672040939331055 17.045883178710938 13.717986106872559 17.004545211791992 13.795430183410645 C16.980016708374023 13.8412504196167 16.968563079833984 13.894291877746582 16.968563079833984 13.960904121398926 C16.968563079833984 14.039095878601074 16.98997688293457 14.10346794128418 17.033056259155273 14.151528358459473 C17.076885223388672 14.201457023620605 17.13353729248047 14.225238800048828 17.20687484741211 14.225238800048828 C17.267385482788086 14.225238800048828 17.31295394897461 14.210047721862793 17.35478973388672 14.175559043884277 L17.305858612060547 14.107950210571289 A0.13720974326133728 0.13720974326133728 0.0 0 1 17.2147159576416 14.142438888549805 A0.110813669860363 0.110813669860363 0.0 0 1 17.11212158203125 14.082799911499023 C17.096059799194336 14.053664207458496 17.089710235595703 14.013072967529297 17.089710235595703 13.94011116027832 C17.089710235595703 13.878105163574219 17.098922729492188 13.83365535736084 17.119592666625977 13.802901268005371 A0.110813669860363 0.110813669860363 0.0 0 1 17.210111618041992 13.756957054138184 C17.239992141723633 13.756957054138184 17.268505096435547 13.766918182373047 17.29527473449707 13.786714553833008 L17.343460083007812 13.714125633239746 C17.314449310302734 13.688850402832031 17.26140785217285 13.672040939331055 17.20836639404297 13.672040939331055 L17.20836639404297 13.672040939331055 M17.520139694213867 14.216024398803711 L17.83041763305664 14.216024398803711 L17.83041763305664 14.124136924743652 L17.629085540771484 14.124136924743652 L17.629085540771484 13.981573104858398 L17.780115127563477 13.981573104858398 L17.780115127563477 13.894291877746582 L17.627592086791992 13.894291877746582 L17.627592086791992 13.770777702331543 L17.809749603271484 13.770777702331543 L17.823570251464844 13.683372497558594 L17.520139694213867 13.683372497558594 L17.520139694213867 14.216024398803711 L17.520139694213867 14.216024398803711 M18.187389373779297 13.667434692382812 C18.074831008911133 13.667434692382812 17.996763229370117 13.734794616699219 17.996763229370117 13.832160949707031 C17.996763229370117 13.862043380737305 18.004358291625977 13.88956069946289 18.018924713134766 13.913341522216797 C18.038101196289062 13.945465087890625 18.07122039794922 13.96625804901123 18.124011993408203 13.980826377868652 L18.182905197143555 13.9970121383667 C18.230592727661133 14.009089469909668 18.25275421142578 14.031251907348633 18.25275421142578 14.065866470336914 C18.25275421142578 14.113553047180176 18.220632553100586 14.138704299926758 18.159372329711914 14.138704299926758 C18.10558319091797 14.138704299926758 18.062877655029297 14.1216459274292 18.012950897216797 14.095747947692871 L17.973106384277344 14.179293632507324 C18.02689552307129 14.210047721862793 18.094255447387695 14.227478981018066 18.154766082763672 14.227478981018066 C18.287242889404297 14.227478981018066 18.374650955200195 14.156384468078613 18.374650955200195 14.048310279846191 C18.374650955200195 13.969494819641113 18.327213287353516 13.913466453552246 18.239931106567383 13.889684677124023 L18.175434112548828 13.872004508972168 C18.130985260009766 13.85980224609375 18.11629295349121 13.84598159790039 18.11629295349121 13.818465232849121 C18.11629295349121 13.782357215881348 18.146921157836914 13.757081985473633 18.190750122070312 13.757081985473633 C18.230592727661133 13.757081985473633 18.26657485961914 13.768661499023438 18.314762115478516 13.797672271728516 L18.365312576293945 13.721097946166992 C18.318496704101562 13.687355995178223 18.25263023376465 13.667434692382812 18.187389373779297 13.667434692382812 L18.187389373779297 13.667434692382812 M19.138517379760742 13.672040939331055 C19.052730560302734 13.672040939331055 18.976032257080078 13.717986106872559 18.934696197509766 13.795430183410645 C18.910165786743164 13.8412504196167 18.898712158203125 13.894291877746582 18.898712158203125 13.960904121398926 C18.898712158203125 14.039095878601074 18.920127868652344 14.10346794128418 18.96295738220215 14.151528358459473 C19.006786346435547 14.201457023620605 19.063438415527344 14.225238800048828 19.13702392578125 14.225238800048828 C19.197534561157227 14.225238800048828 19.24260711669922 14.210047721862793 19.284940719604492 14.175559043884277 L19.235759735107422 14.107950210571289 A0.13720974326133728 0.13720974326133728 0.0 0 1 19.144617080688477 14.142438888549805 A0.110813669860363 0.110813669860363 0.0 0 1 19.042022705078125 14.082799911499023 C19.02596092224121 14.053664207458496 19.019859313964844 14.013072967529297 19.019859313964844 13.94011116027832 C19.019859313964844 13.878105163574219 19.028823852539062 13.83365535736084 19.049741744995117 13.802901268005371 A0.11031562834978104 0.11031562834978104 0.0 0 1 19.140012741088867 13.756957054138184 C19.169893264770508 13.756957054138184 19.198158264160156 13.766918182373047 19.225175857543945 13.786714553833008 L19.273361206054688 13.714125633239746 C19.24435043334961 13.688850402832031 19.191558837890625 13.672040939331055 19.138517379760742 13.672040939331055 L19.138517379760742 13.672040939331055 M19.539064407348633 13.702547073364258 C19.463237762451172 13.744754791259766 19.418663024902344 13.83664321899414 19.418663024902344 13.951690673828125 C19.418663024902344 14.029882431030273 19.43958282470703 14.097366333007812 19.479923248291016 14.149287223815918 C19.5205135345459 14.20245361328125 19.57280731201172 14.224491119384766 19.653364181518555 14.224491119384766 C19.69781494140625 14.224491119384766 19.72757339477539 14.217519760131836 19.75982093811035 14.200212478637695 C19.836393356323242 14.157132148742676 19.87847900390625 14.067733764648438 19.87847900390625 13.947332382202148 C19.87847900390625 13.780241012573242 19.79119873046875 13.676773071289062 19.64937973022461 13.676773071289062 A0.2355724275112152 0.2355724275112152 0.0 0 0 19.539064407348633 13.702547073364258 L19.539064407348633 13.702547073364258 M19.741392135620117 13.826683044433594 C19.75035858154297 13.856689453125 19.75521469116211 13.895785331726074 19.75521469116211 13.950196266174316 C19.75521469116211 14.085786819458008 19.723838806152344 14.142438888549805 19.64937973022461 14.142438888549805 A0.10707838088274002 0.10707838088274002 0.0 0 1 19.58563232421875 14.124136924743652 C19.554256439208984 14.100480079650879 19.53819465637207 14.043703079223633 19.53819465637207 13.951690673828125 C19.53819465637207 13.887319564819336 19.546411514282227 13.840377807617188 19.564964294433594 13.80613899230957 C19.579532623291016 13.777626037597656 19.61190414428711 13.759448051452637 19.647886276245117 13.759448051452637 C19.704662322998047 13.759448051452637 19.73280143737793 13.79991340637207 19.741392135620117 13.826683044433594 M20.046815872192383 14.216024398803711 L20.155014038085938 14.216024398803711 L20.173192977905273 13.937994003295898 C20.175683975219727 13.904999732971191 20.177053451538086 13.875242233276367 20.177053451538086 13.843615531921387 C20.177053451538086 13.843615531921387 20.191621780395508 13.910353660583496 20.198469161987305 13.936375617980957 L20.274293899536133 14.216024398803711 L20.368675231933594 14.216024398803711 L20.452842712402344 13.924921035766602 C20.462055206298828 13.89267349243164 20.46591567993164 13.877482414245605 20.472017288208008 13.846604347229004 C20.472017288208008 13.875117301940918 20.474258422851562 13.898027420043945 20.47662353515625 13.931768417358398 L20.496543884277344 14.216024398803711 L20.602378845214844 14.216024398803711 L20.554691314697266 13.683496475219727 L20.41436767578125 13.683496475219727 L20.342403411865234 13.947831153869629 C20.334182739257812 13.979455947875977 20.32883071899414 14.003735542297363 20.323474884033203 14.031376838684082 A0.7931270599365234 0.7931270599365234 0.0 0 0 20.305049896240234 13.950321197509766 L20.235198974609375 13.683496475219727 L20.096620559692383 13.683496475219727 L20.046815872192383 14.216024398803711 L20.046815872192383 14.216024398803711 M20.796737670898438 14.216024398803711 L20.904190063476562 14.216024398803711 L20.904190063476562 14.01992130279541 L20.963085174560547 14.01992130279541 C21.02222442626953 14.01992130279541 21.04500961303711 14.013696670532227 21.069538116455078 14.002241134643555 C21.127685546875 13.974599838256836 21.161426544189453 13.916329383850098 21.161426544189453 13.845857620239258 C21.161426544189453 13.784722328186035 21.13465690612793 13.735541343688965 21.084854125976562 13.708148956298828 C21.055219650268555 13.691091537475586 21.027454376220703 13.682002067565918 20.936935424804688 13.682002067565918 L20.796613693237305 13.682002067565918 L20.796613693237305 14.216024398803711 L20.796737670898438 14.216024398803711 L20.796737670898438 14.216024398803711 M20.97229766845703 13.768536567687988 C21.017494201660156 13.768536567687988 21.044261932373047 13.798294067382812 21.044261932373047 13.848347663879395 C21.044261932373047 13.873498916625977 21.040653228759766 13.89043140411377 21.03118896484375 13.904999732971191 C21.01687240600586 13.927038192749023 21.003673553466797 13.93264102935791 20.96021842956543 13.93264102935791 L20.904315948486328 13.93264102935791 L20.904315948486328 13.768661499023438 L20.97229766845703 13.768661499023438 L20.97229766845703 13.768536567687988 M21.230403900146484 14.216024398803711 L21.34221649169922 14.216024398803711 L21.37969207763672 14.089523315429688 L21.536075592041016 14.089523315429688 L21.57355499267578 14.216024398803711 L21.688602447509766 14.216024398803711 L21.520761489868164 13.682002067565918 L21.40496826171875 13.682002067565918 L21.230403900146484 14.216024398803711 L21.230403900146484 14.216024398803711 M21.43410301208496 13.901762008666992 C21.44406509399414 13.862043380737305 21.459379196166992 13.799041748046875 21.459379196166992 13.799041748046875 C21.459379196166992 13.799041748046875 21.475440979003906 13.86901569366455 21.480792999267578 13.89354419708252 C21.49250030517578 13.944842338562012 21.509929656982422 14.000747680664062 21.509929656982422 14.000747680664062 L21.40559196472168 14.000747680664062 C21.41741943359375 13.965386390686035 21.42414093017578 13.94011116027832 21.43410301208496 13.901762008666992 L21.43410301208496 13.901762008666992 M21.84386444091797 14.216024398803711 L21.947208404541016 14.216024398803711 L21.944095611572266 13.988545417785645 C21.943347930908203 13.94409465789795 21.94260025024414 13.881341934204102 21.93899154663086 13.837514877319336 C21.94870376586914 13.87051010131836 21.981821060180664 13.945465087890625 22.010957717895508 14.012202262878418 L22.10209846496582 14.216024398803711 L22.21390724182129 14.216024398803711 L22.21390724182129 13.683496475219727 L22.112060546875 13.683496475219727 L22.114299774169922 13.901264190673828 C22.115047454833984 13.937994003295898 22.118907928466797 14.00610065460205 22.12251853942871 14.047438621520996 A0.9937122464179993 0.9937122464179993 0.0 0 0 22.064620971679688 13.89665699005127 L21.962522506713867 13.683496475219727 L21.84386444091797 13.683496475219727 L21.84386444091797 14.216024398803711 L21.84386444091797 14.216024398803711 M22.540870666503906 13.9970121383667 L22.540870666503906 14.216024398803711 L22.652679443359375 14.216024398803711 L22.652679443359375 13.9970121383667 L22.822885513305664 13.682873725891113 L22.696382522583008 13.682873725891113 L22.627281188964844 13.83054256439209 A1.7244600057601929 1.7244600057601929 0.0 0 0 22.599016189575195 13.897403717041016 A0.6462056040763855 0.6462056040763855 0.0 0 0 22.571998596191406 13.829297065734863 L22.50289535522461 13.682002067565918 L22.374277114868164 13.682002067565918 L22.540870666503906 13.9970121383667 L22.540870666503906 13.9970121383667" fill="black" fill-opacity="1.0" filling="0"/></svg>