<?xml version="1.0" encoding="iso-8859-1"?><svg height="200px" viewBox="0.0 0.0 24.0 24.0" width="200px" xmlns="http://www.w3.org/2000/svg"><path animation_id="0" d="M0.0 0.0 L24.0 0.0 L24.0 24.0 L0.0 24.0 L0.0 0.0" fill="black" fill-opacity="1.0" filling="0"/>
<path animation_id="1" d="M4.020171165466309 9.8599271774292 C4.069476127624512 9.671916961669922 4.162609577178955 9.53134536743164 4.310278415679932 9.405963897705078 C4.462553977966309 9.29091739654541 4.634253025054932 9.205254554748535 4.803586006164551 9.118098258972168 C5.013758659362793 9.012389183044434 5.226296424865723 8.909543991088867 5.459129810333252 8.865218162536621 A0.8688290119171143 0.8688290119171143 0.0 0 1 5.674905300140381 8.864595413208008 L5.783477783203125 8.905808448791504 L5.881840705871582 8.985121726989746 L5.946211814880371 9.086846351623535 L5.975969314575195 9.186952590942383 C5.9823198318481445 9.271867752075195 5.98007869720459 9.33399772644043 5.9637675285339355 9.417045593261719 C5.902508735656738 9.668306350708008 5.840503215789795 9.91882038116455 5.778621673583984 10.169831275939941 C5.846604347229004 10.141568183898926 5.925045490264893 10.127872467041016 5.997261047363281 10.115047454833984 C6.277781009674072 10.081305503845215 6.585694313049316 10.08777904510498 6.8245038986206055 10.257735252380371 C6.887629985809326 10.310526847839355 6.927224636077881 10.360206604003906 6.97291898727417 10.429309844970703 L7.009898662567139 10.511984825134277 L7.043765068054199 10.681318283081055 A1.0995455980300903 1.0995455980300903 0.0 0 1 7.0024285316467285 10.995704650878906 A0.8674594163894653 0.8674594163894653 0.0 0 1 6.897341728210449 11.195791244506836 L6.842308521270752 11.255308151245117 L6.776816368103027 11.306480407714844 L6.618689060211182 11.375459671020508 L6.524932861328125 11.425387382507324 L6.330573558807373 11.57579517364502 C6.3447675704956055 11.704788208007812 6.373903274536133 11.833904266357422 6.402166366577148 11.960780143737793 C6.457822799682617 12.204943656921387 6.515719890594482 12.453714370727539 6.587934970855713 12.693519592285156 C6.610346794128418 12.760879516601562 6.654423236846924 12.813423156738281 6.697752475738525 12.868829727172852 C6.669738292694092 12.434788703918457 6.758264541625977 12.005228996276855 6.904937267303467 11.598456382751465 C7.154703617095947 10.942663192749023 7.629459381103516 10.27429485321045 8.34713363647461 10.099732398986816 C8.525182723999023 10.064123153686523 8.685300827026367 10.062255859375 8.864346504211426 10.096869468688965 L8.98375129699707 10.13148307800293 C9.23675537109375 10.232460021972656 9.416173934936523 10.40129566192627 9.533337593078613 10.648198127746582 C9.659839630126953 10.528419494628906 9.830168724060059 10.43005657196045 9.984685897827148 10.349125862121582 A3.4414491653442383 3.4414491653442383 0.0 0 1 10.438896179199219 10.160866737365723 C10.564900398254395 10.120649337768555 10.668866157531738 10.095375061035156 10.80321216583252 10.108572006225586 C10.905683517456055 10.139699935913086 10.985245704650879 10.180290222167969 11.047999382019043 10.270933151245117 C11.274232864379883 10.106954574584961 11.528731346130371 10.063749313354492 11.795804023742676 10.14206600189209 C11.933013916015625 10.192865371704102 12.029757499694824 10.259852409362793 12.127498626708984 10.369171142578125 A1.0722780227661133 1.0722780227661133 0.0 0 1 12.338541984558105 10.81566333770752 C12.493183135986328 10.58942985534668 12.73585319519043 10.464670181274414 12.97329330444336 10.341903686523438 C13.25543212890625 10.203947067260742 13.557119369506836 10.079562187194824 13.877233505249023 10.113926887512207 L13.984436988830566 10.154641151428223 L14.068355560302734 10.222001075744629 C14.207433700561523 10.141817092895508 14.352113723754883 10.089273452758789 14.512606620788574 10.075576782226562 C14.594285011291504 10.072962760925293 14.663637161254883 10.082674026489258 14.744070053100586 10.09898567199707 L14.834589004516602 10.131108283996582 L14.919754028320312 10.175559043884277 L15.065679550170898 10.294092178344727 C15.117226600646973 10.354354858398438 15.16130256652832 10.411504745483398 15.201892852783203 10.480109214782715 C15.291913986206055 10.645459175109863 15.342464447021484 10.814791679382324 15.371849060058594 11.00055980682373 C15.617008209228516 10.616074562072754 15.949699401855469 10.267073631286621 16.392953872680664 10.12338924407959 C16.55008316040039 10.080060005187988 16.68667221069336 10.068979263305664 16.849157333374023 10.084293365478516 L16.98263168334961 10.110689163208008 C17.169893264770508 10.168959617614746 17.301252365112305 10.251758575439453 17.438337326049805 10.391334533691406 C17.58911895751953 10.565896987915039 17.688600540161133 10.75403118133545 17.74276351928711 10.977775573730469 L17.811368942260742 10.877793312072754 C18.059640884399414 10.540745735168457 18.365062713623047 10.26856803894043 18.767850875854492 10.135466575622559 L18.874557495117188 10.107203483581543 C19.120712280273438 10.058270454406738 19.345077514648438 10.069352149963379 19.58077621459961 10.161240577697754 C19.80228042602539 10.264084815979004 19.974475860595703 10.423458099365234 20.085912704467773 10.64296817779541 C20.186389923095703 10.399801254272461 20.313018798828125 10.167715072631836 20.455333709716797 9.946958541870117 C20.77071762084961 9.474818229675293 21.175373077392578 9.03791332244873 21.720104217529297 8.838448524475098 C21.92902946472168 8.76947021484375 22.121646881103516 8.746561050415039 22.340660095214844 8.773080825805664 C22.456451416015625 8.79300308227539 22.555438995361328 8.823631286621094 22.661396026611328 8.874432563781738 C22.762123107910156 8.926103591918945 22.852767944335938 8.984374046325684 22.943286895751953 9.052107810974121 A0.7410820126533508 0.7410820126533508 0.0 0 1 23.109878540039062 9.010147094726562 L23.244598388671875 9.029571533203125 L23.36549949645996 9.08721923828125 L23.458633422851562 9.170516014099121 L23.523502349853516 9.26290225982666 L23.59745979309082 9.452157974243164 C23.67938804626465 9.832908630371094 23.651248931884766 10.222622871398926 23.57118797302246 10.601381301879883 C23.525493621826172 10.799477577209473 23.457138061523438 10.97752571105957 23.34532928466797 11.148229598999023 C23.304737091064453 11.20612621307373 23.261905670166016 11.25717544555664 23.213720321655273 11.309096336364746 A1.0198593139648438 1.0198593139648438 0.0 0 1 23.004295349121094 11.456515312194824 L22.832847595214844 11.507314682006836 L22.676712036132812 11.50968074798584 A0.6811928153038025 0.6811928153038025 0.0 0 1 22.467782974243164 11.44045352935791 L22.40291404724121 11.392890930175781 L22.346511840820312 11.333499908447266 A0.7424516081809998 0.7424516081809998 0.0 0 1 22.24466323852539 11.110502243041992 C22.186763763427734 10.906556129455566 22.15613555908203 10.693893432617188 22.086410522460938 10.494178771972656 C22.071096420288086 10.453340530395508 22.053539276123047 10.403411865234375 22.027019500732422 10.368673324584961 C21.956296920776367 10.341032028198242 21.917327880859375 10.383615493774414 21.873123168945312 10.433542251586914 C21.757827758789062 10.57498550415039 21.700679779052734 10.75266170501709 21.6569766998291 10.927349090576172 C21.56670570373535 11.319679260253906 21.524747848510742 11.766668319702148 21.65871810913086 12.154642105102539 C21.684242248535156 12.217144966125488 21.714126586914062 12.286870956420898 21.775882720947266 12.321982383728027 C21.850337982177734 12.354852676391602 21.95467758178711 12.336549758911133 22.026145935058594 12.30081558227539 C22.120277404785156 12.248770713806152 22.206314086914062 12.175310134887695 22.283632278442383 12.101351737976074 C22.35024642944336 12.036855697631836 22.413497924804688 11.979331016540527 22.491565704345703 11.928656578063965 L22.558177947998047 11.89665699005127 L22.656414031982422 11.875988960266113 L22.757766723632812 11.886571884155273 L22.838947296142578 11.912469863891602 L22.911909103393555 11.954429626464844 L22.97154998779297 12.0062255859375 C23.01599884033203 12.061135292053223 23.044761657714844 12.105957984924316 23.073646545410156 12.170827865600586 C23.12419891357422 12.317997932434082 23.129552841186523 12.445371627807617 23.11012840270996 12.598892211914062 C23.05472183227539 12.917014122009277 22.920501708984375 13.213223457336426 22.738842010498047 13.478926658630371 C22.660274505615234 13.57890796661377 22.588558197021484 13.652120590209961 22.4859619140625 13.72719955444336 C22.42395782470703 13.761937141418457 22.368549346923828 13.788208961486816 22.301687240600586 13.810620307922363 C22.243043899536133 13.833780288696289 22.187885284423828 13.861421585083008 22.132478713989258 13.890681266784668 C21.99066162109375 13.967752456665039 21.852828979492188 14.047562599182129 21.704912185668945 14.112432479858398 C21.439083099365234 14.221378326416016 21.1647891998291 14.228475570678711 20.88738250732422 14.160367965698242 L20.761375427246094 14.118035316467285 C20.520078659057617 14.013696670532227 20.348751068115234 13.868268966674805 20.18726348876953 13.663076400756836 L20.10869789123535 13.550271034240723 C19.861919403076172 13.146859169006348 19.768287658691406 12.692025184631348 19.761938095092773 12.224864959716797 C19.712383270263672 12.272552490234375 19.62161636352539 12.32210636138916 19.556495666503906 12.34402084350586 C19.656726837158203 12.398929595947266 19.718982696533203 12.493307113647461 19.761066436767578 12.596651077270508 C19.869264602661133 12.915270805358887 19.755712509155273 13.261781692504883 19.570940017700195 13.527610778808594 C19.292037963867188 13.908734321594238 18.870073318481445 14.168336868286133 18.392704010009766 14.18863296508789 C18.239681243896484 14.190376281738281 18.111560821533203 14.166967391967773 17.968624114990234 14.114922523498535 L17.82904815673828 14.043205261230469 C17.689224243164062 13.947831153869629 17.59459686279297 13.84909439086914 17.498598098754883 13.710515022277832 A1.7997883558273315 1.7997883558273315 0.0 0 1 17.315196990966797 13.311461448669434 A1.2243043184280396 1.2243043184280396 0.0 0 1 17.244474411010742 13.431612968444824 A1.8565648794174194 1.8565648794174194 0.0 0 1 16.387474060058594 14.100604057312012 C16.187387466430664 14.164353370666504 15.998132705688477 14.191122055053711 15.789204597473145 14.162858963012695 L15.688974380493164 14.140695571899414 C15.37135124206543 14.042706489562988 15.165909767150879 13.826309204101562 15.022848129272461 13.53321361541748 A1.876237392425537 1.876237392425537 0.0 0 1 14.906307220458984 13.17773723602295 C14.721036911010742 13.50532341003418 14.491689682006836 13.807882308959961 14.171449661254883 14.01382064819336 L14.033990859985352 14.084543228149414 C13.855941772460938 14.153146743774414 13.690593719482422 14.184772491455078 13.502832412719727 14.140447616577148 C13.518895149230957 14.166718482971191 13.534459114074707 14.193489074707031 13.549274444580078 14.22113037109375 C13.676399230957031 14.466538429260254 13.57940673828125 14.75564956665039 13.428376197814941 14.966693878173828 A1.0695387125015259 1.0695387125015259 0.0 0 1 13.252569198608398 15.127933502197266 L13.112993240356445 15.202141761779785 C12.768350601196289 15.328892707824707 12.38124942779541 15.306480407714844 12.048683166503906 15.154703140258789 C11.86117172241211 15.057960510253906 11.718482971191406 14.938304901123047 11.608292579650879 14.757392883300781 L11.561352729797363 14.6571626663208 C11.48975944519043 14.44686508178711 11.501338958740234 14.256614685058594 11.588122367858887 14.052791595458984 C11.453402519226074 14.099483489990234 11.298138618469238 14.114051818847656 11.156570434570312 14.122766494750977 C10.888501167297363 14.13633918762207 10.547469139099121 14.142936706542969 10.34837818145752 13.936251640319824 C10.113926887512207 14.103841781616211 9.780613899230957 14.125630378723145 9.502459526062012 14.117911338806152 L9.346075057983398 14.10209846496582 C9.205503463745117 14.074333190917969 9.105647087097168 14.038349151611328 8.986116409301758 13.958911895751953 L8.92261791229248 13.902508735656738 L8.867335319519043 13.83539867401123 L8.823009490966797 13.759073257446289 L8.793251991271973 13.680508613586426 C8.529664039611816 13.945589065551758 8.182656288146973 14.112183570861816 7.8078813552856445 14.12824535369873 C7.657722473144531 14.129739761352539 7.53296422958374 14.10658073425293 7.392890453338623 14.053789138793945 L7.257174968719482 13.981821060180664 C7.121086120605469 13.886446952819824 7.02994441986084 13.787960052490234 6.938180923461914 13.650127410888672 A1.8890618085861206 1.8890618085861206 0.0 0 1 6.81429386138916 13.398866653442383 L6.777936935424805 13.52337646484375 C6.714561939239502 13.6792631149292 6.639358043670654 13.783103942871094 6.508373260498047 13.88956069946289 C6.428313732147217 13.943596839904785 6.358961582183838 13.977339744567871 6.267073631286621 14.006474494934082 A1.0309406518936157 1.0309406518936157 0.0 0 1 6.075951099395752 14.031003952026367 C5.852206707000732 14.029509544372559 5.62858772277832 14.028388023376465 5.40496826171875 14.027393341064453 L5.3368611335754395 14.020793914794922 L5.255929946899414 13.99863052368164 L5.179232120513916 13.96140193939209 L5.110751628875732 13.911100387573242 L5.016746520996094 13.79680061340332 C4.7998504638671875 14.027766227722168 4.516839981079102 14.081554412841797 4.213658809661865 14.089149475097656 C4.113552570343018 14.08964729309082 4.013820648193359 14.090642929077148 3.913839340209961 14.088651657104492 C3.7398996353149414 14.083047866821289 3.6116533279418945 14.052667617797852 3.4643592834472656 13.956421852111816 L3.3525495529174805 13.843117713928223 L3.279336929321289 13.703292846679688 L3.2475881576538086 13.5576171875 C3.24111270904541 13.415302276611328 3.2582950592041016 13.295648574829102 3.3082237243652344 13.162423133850098 A0.8889995813369751 0.8889995813369751 0.0 0 1 3.5182714462280273 12.876921653747559 C3.570815086364746 12.827118873596191 3.592853546142578 12.778185844421387 3.6158876419067383 12.710328102111816 C3.6355600357055664 12.647326469421387 3.6546096801757812 12.58432388305664 3.6729135513305664 12.521323204040527 C3.370105743408203 13.12394905090332 2.9205007553100586 13.659963607788086 2.3001928329467773 13.950072288513184 C2.0169334411621094 14.069725036621094 1.7225923538208008 14.129490852355957 1.4172945022583008 14.06798267364502 C1.2479619979858398 14.026147842407227 1.1093816757202148 13.956546783447266 0.9709262847900391 13.850587844848633 C0.8939800262451172 13.79007625579834 0.8106832504272461 13.717362403869629 0.7191686630249023 13.679636001586914 L0.6463308334350586 13.643653869628906 L0.5655231475830078 13.578783988952637 L0.5030193328857422 13.504077911376953 L0.42171478271484375 13.344581604003906 C0.3494987487792969 13.109382629394531 0.3395376205444336 12.872564315795898 0.3676776885986328 12.629894256591797 C0.40627574920654297 12.347257614135742 0.48720741271972656 12.081803321838379 0.7164287567138672 11.89541244506836 A0.6147046089172363 0.6147046089172363 0.0 0 1 0.9016990661621094 11.814480781555176 L1.0003118515014648 11.805143356323242 C1.0630645751953125 11.819958686828613 1.1110000610351562 11.833904266357422 1.1683998107910156 11.861794471740723 C1.379568099975586 11.972857475280762 1.5792818069458008 12.106331825256348 1.8014068603515625 12.196352005004883 C1.8622922897338867 12.219511032104492 1.9216833114624023 12.235697746276855 1.986678123474121 12.240801811218262 C2.0816783905029297 12.245160102844238 2.167591094970703 12.130611419677734 2.1863908767700195 12.046442031860352 C2.0799360275268555 12.047438621520996 1.974848747253418 12.054908752441406 1.8680191040039062 12.047189712524414 L1.7938117980957031 12.029135704040527 L1.720102310180664 11.996264457702637 L1.653116226196289 11.948576927185059 L1.5979576110839844 11.890680313110352 A0.6432173252105713 0.6432173252105713 0.0 0 1 1.5105514526367188 11.704788208007812 A0.87430739402771 0.87430739402771 0.0 0 1 1.4998445510864258 11.448795318603516 C1.3734664916992188 11.485526084899902 1.2721166610717773 11.47593879699707 1.1454896926879883 11.4421968460083 L1.0570878982543945 11.399116516113281 L0.979517936706543 11.339849472045898 L0.9165163040161133 11.269874572753906 L0.833343505859375 11.117101669311523 L0.7987298965454102 10.999190330505371 C0.7281332015991211 10.645956039428711 0.8418102264404297 10.27591323852539 0.9604682922363281 9.945962905883789 C1.061819076538086 9.680383682250977 1.183091163635254 9.4297456741333 1.3722219467163086 9.213845252990723 L1.4429435729980469 9.149101257324219 L1.5273609161376953 9.091452598571777 L1.6321983337402344 9.047002792358398 C1.736288070678711 9.031314849853516 1.811990737915039 9.021228790283203 1.9092321395874023 9.064682960510254 C2.050924301147461 8.981635093688965 2.193737030029297 8.907800674438477 2.3477563858032227 8.850276947021484 C2.679947853088379 8.743572235107422 3.039158821105957 8.766108512878418 3.352175712585449 8.92074966430664 L3.458009719848633 8.982630729675293 C3.649380683898926 9.119217872619629 3.7743892669677734 9.267882347106934 3.881466865539551 9.476312637329102 C3.939986228942871 9.601444244384766 3.9855575561523438 9.726577758789062 4.020171165466309 9.8599271774292 L4.020171165466309 9.8599271774292 M4.114673614501953 10.752412796020508 C4.142439365386963 10.634502410888672 4.168461799621582 10.517337799072266 4.1893792152404785 10.398306846618652 C4.159247875213623 10.380377769470215 4.117910861968994 10.338168144226074 4.0971174240112305 10.30841064453125 C4.111809730529785 10.455829620361328 4.118408679962158 10.603997230529785 4.114673614501953 10.752412796020508 L4.114673614501953 10.752412796020508 M9.164665222167969 12.53701114654541 C9.200772285461426 12.39942741394043 9.233393669128418 12.260475158691406 9.265642166137695 12.12214469909668 C9.199153900146484 12.191495895385742 9.122206687927246 12.243291854858398 9.037664413452148 12.287742614746094 L8.985370635986328 12.310402870178223 C9.064807891845703 12.352487564086914 9.13328742980957 12.45346450805664 9.164665222167969 12.53701114654541 M12.06985092163086 13.081117630004883 C12.130486488342285 12.822636604309082 12.194608688354492 12.564403533935547 12.247152328491211 12.304426193237305 C12.28413200378418 12.120152473449707 12.322356224060059 11.935877799987793 12.357094764709473 11.751604080200195 L12.289983749389648 11.682002067565918 C12.215277671813965 12.073461532592773 12.135591506958008 12.464795112609863 12.05727481842041 12.85600471496582 C12.049554824829102 12.896595001220703 12.02627182006836 12.980016708374023 12.044325828552246 13.019859313964844 C12.053165435791016 13.039780616760254 12.062005996704102 13.060200691223145 12.06985092163086 13.081117630004883 L12.06985092163086 13.081117630004883 M2.127995491027832 10.60573959350586 C2.2083053588867188 10.60175609588623 2.285127639770508 10.607856750488281 2.364813804626465 10.613709449768066 C2.361328125 10.531532287597656 2.3542299270629883 10.44288158416748 2.3260908126831055 10.365187644958496 C2.2998199462890625 10.374401092529297 2.2817649841308594 10.390337944030762 2.2625913619995117 10.411006927490234 C2.210545539855957 10.47039794921875 2.167963981628418 10.537135124206543 2.127995491027832 10.60573959350586 M8.547967910766602 12.313390731811523 C8.440391540527344 12.263338088989258 8.356719970703125 12.198344230651855 8.304426193237305 12.08964729309082 C8.299819946289062 12.202701568603516 8.31289291381836 12.323102951049805 8.360705375671387 12.4269437789917 A0.11977837234735489 0.11977837234735489 0.0 0 0 8.40117073059082 12.414244651794434 C8.449231147766113 12.380003929138184 8.495674133300781 12.34078311920166 8.547967910766602 12.313390731811523 M16.556434631347656 12.578099250793457 C16.509244918823242 12.577849388122559 16.462553024291992 12.577600479125977 16.415863037109375 12.577600479125977 C16.423208236694336 12.596277236938477 16.431425094604492 12.614830017089844 16.444997787475586 12.63064193725586 C16.483722686767578 12.621926307678223 16.523563385009766 12.600261688232422 16.556434631347656 12.578099250793457 L16.556434631347656 12.578099250793457 M19.13602638244629 12.352985382080078 C19.02907371520996 12.32260513305664 18.950260162353516 12.239432334899902 18.887256622314453 12.153271675109863 L18.85662841796875 12.092511177062988 C18.85002899169922 12.220880508422852 18.868579864501953 12.352487564086914 18.92548179626465 12.468903541564941 L18.927722930908203 12.472016334533691 C18.948143005371094 12.470024108886719 18.96781349182129 12.466413497924805 18.98611831665039 12.455954551696777 C19.035921096801758 12.421340942382812 19.082862854003906 12.382867813110352 19.13602638244629 12.352985382080078 M1.9392385482788086 11.726700782775879 C1.8189630508422852 11.726451873779297 1.7873382568359375 11.595966339111328 1.8488454818725586 11.335367202758789 C1.8778562545776367 11.212102890014648 1.9280338287353516 11.11349105834961 1.9967632293701172 11.039283752441406 C2.0654916763305664 10.965075492858887 2.129988670349121 10.92523193359375 2.1900014877319336 10.927721977233887 C2.2932205200195312 10.931831359863281 2.3960647583007812 10.943658828735352 2.4972915649414062 10.946523666381836 C2.610720634460449 10.949760437011719 2.6699867248535156 10.921995162963867 2.6816911697387695 10.873063087463379 L2.687417984008789 10.848160743713379 C2.700366973876953 10.584449768066406 2.680943489074707 10.38249397277832 2.6272802352905273 10.242794036865234 C2.573367118835449 10.102720260620117 2.4921865463256836 10.032746315002441 2.381000518798828 10.032746315002441 C2.2410507202148438 10.032746315002441 2.129988670349121 10.08030891418457 2.0384740829467773 10.175185203552246 C1.9475812911987305 10.269314765930176 1.8498420715332031 10.422212600708008 1.7452526092529297 10.634377479553223 C1.640665054321289 10.846292495727539 1.564340591430664 10.984498977661133 1.519765853881836 11.050737380981445 C1.4751911163330078 11.116852760314941 1.4139328002929688 11.149100303649902 1.331507682800293 11.14885139465332 C1.2269182205200195 11.148727416992188 1.1566953659057617 11.084356307983398 1.121708869934082 10.953868865966797 C1.0870952606201172 10.824502944946289 1.0948143005371094 10.66475772857666 1.1396379470825195 10.476000785827637 C1.2099857330322266 10.180788040161133 1.3061065673828125 9.920438766479492 1.4299945831298828 9.694328308105469 C1.5532588958740234 9.469091415405273 1.6634502410888672 9.356907844543457 1.7568330764770508 9.356782913208008 C1.7723960876464844 9.356782913208008 1.8038969039916992 9.372844696044922 1.8561906814575195 9.405714988708496 A0.09338230639696121 0.09338230639696121 0.0 0 1 1.8835830688476562 9.412065505981445 C1.895909309387207 9.416422843933105 1.9053726196289062 9.42227554321289 1.914088249206543 9.4235200881958 C1.9316444396972656 9.42625904083252 1.9926538467407227 9.39251708984375 2.1008529663085938 9.328892707824707 A2.4090144634246826 2.4090144634246826 0.0 0 1 2.4154891967773438 9.171886444091797 A0.8603622913360596 0.8603622913360596 0.0 0 1 2.743074417114258 9.10913372039795 C2.931706428527832 9.109007835388184 3.093568801879883 9.14760684967041 3.2290353775024414 9.223433494567871 C3.364253044128418 9.299010276794434 3.481167793273926 9.415302276611328 3.568075180053711 9.576915740966797 C3.688601493835449 9.801406860351562 3.7572059631347656 10.08977222442627 3.782731056213379 10.437776565551758 C3.808255195617676 10.78690242767334 3.775135040283203 11.149474143981934 3.6874799728393555 11.526240348815918 C3.5929784774780273 11.932640075683594 3.440951347351074 12.307415008544922 3.2287864685058594 12.652057647705078 C3.0167465209960938 12.996451377868652 2.7697200775146484 13.269500732421875 2.4855880737304688 13.470086097717285 C2.2014570236206055 13.670920372009277 1.922928810119629 13.770403861999512 1.6457700729370117 13.76891040802002 C1.4736976623535156 13.767914772033691 1.3150720596313477 13.709519386291504 1.170018196105957 13.594098091125488 C1.0252132415771484 13.47905158996582 0.91900634765625 13.40758228302002 0.8530158996582031 13.383801460266113 C0.766606330871582 13.352673530578613 0.7097053527832031 13.243478775024414 0.6879167556762695 13.052107810974121 C0.6663761138916016 12.861732482910156 0.6784534454345703 12.67857837677002 0.7196664810180664 12.50538444519043 C0.7453155517578125 12.397684097290039 0.7820453643798828 12.308411598205566 0.8322229385375977 12.238311767578125 C0.8824005126953125 12.168211936950684 0.9308347702026367 12.133225440979004 0.9776506423950195 12.133225440979004 C0.9932136535644531 12.133225440979004 1.0704107284545898 12.17580795288086 1.217331886291504 12.261345863342285 C1.3625106811523438 12.346261024475098 1.501338005065918 12.419598579406738 1.6328210830688477 12.477495193481445 C1.7661705017089844 12.536138534545898 1.891179084777832 12.565523147583008 2.0115795135498047 12.566021919250488 C2.1098175048828125 12.566519737243652 2.2117910385131836 12.52319049835205 2.310029983520508 12.43665599822998 C2.4088897705078125 12.34962272644043 2.4726390838623047 12.247899055480957 2.4997825622558594 12.131980895996094 C2.536637306213379 11.974849700927734 2.5453529357910156 11.86727237701416 2.531033515930176 11.808629035949707 C2.5168399810791016 11.751105308532715 2.464421272277832 11.721844673156738 2.375272750854492 11.721595764160156 A8.807321548461914 8.807321548461914 0.0 0 0 2.078192710876465 11.723712921142578 C2.0308780670166016 11.725456237792969 1.9860544204711914 11.726825714111328 1.9392385482788086 11.726700782775879 L1.9392385482788086 11.726700782775879 M5.106144428253174 12.841063499450684 C5.0504889488220215 12.577974319458008 5.009275913238525 12.446866035461426 4.984623432159424 12.446616172790527 C4.96233606338501 12.446616172790527 4.942538738250732 12.49044418334961 4.920998573303223 12.577476501464844 C4.908672332763672 12.62752914428711 4.8921122550964355 12.676711082458496 4.879910469055176 12.727510452270508 C4.84666633605957 12.864969253540039 4.846790790557861 12.981635093688965 4.877420425415039 13.07837963104248 C4.9076762199401855 13.17375373840332 4.914275169372559 13.257548332214355 4.8980889320373535 13.328393936157227 C4.862354278564453 13.48353385925293 4.789267539978027 13.594223022460938 4.673473358154297 13.663450241088867 C4.560791969299316 13.731059074401855 4.392579078674316 13.765548706054688 4.166842937469482 13.76442813873291 C4.073087692260742 13.76392936706543 3.9790821075439453 13.766918182373047 3.8874435424804688 13.762933731079102 C3.62423038482666 13.751976013183594 3.526365280151367 13.612152099609375 3.586379051208496 13.353670120239258 C3.6066741943359375 13.266388893127441 3.6573495864868164 13.186328887939453 3.7403974533081055 13.11336612701416 C3.8229475021362305 13.041150093078613 3.884579658508301 12.93955135345459 3.9245471954345703 12.810807228088379 C4.033369064331055 12.4610595703125 4.1541428565979 12.012701034545898 4.2808942794799805 11.465479850769043 C4.336549758911133 11.225424766540527 4.392827987670898 10.98561954498291 4.449978351593018 10.745315551757812 A5.30286979675293 5.30286979675293 0.0 0 0 4.51833438873291 10.401668548583984 C4.534395694732666 10.308286666870117 4.535267353057861 10.247650146484375 4.5229411125183105 10.21876335144043 C4.510739326477051 10.190251350402832 4.483969688415527 10.175185203552246 4.442507743835449 10.163232803344727 C4.342153072357178 10.1340970993042 4.305920600891113 10.061383247375488 4.329826831817627 9.959036827087402 C4.352860450744629 9.860176086425781 4.395442962646484 9.77513599395752 4.458942890167236 9.708646774291992 C4.52455997467041 9.639793395996094 4.619062423706055 9.58388900756836 4.7358527183532715 9.520512580871582 C5.142376899719238 9.300006866455078 5.418290615081787 9.180228233337402 5.573678493499756 9.18010425567627 C5.646890640258789 9.18010425567627 5.6734113693237305 9.2366304397583 5.646392345428467 9.346821784973145 C5.562597274780273 9.68897533416748 5.47730827331543 10.031376838684082 5.394509315490723 10.373778343200684 C5.385419845581055 10.411380767822266 5.369731903076172 10.476000785827637 5.345203399658203 10.569009780883789 C5.320301532745361 10.662516593933105 5.297516345977783 10.749921798706055 5.277719020843506 10.833219528198242 C5.2228102684021 11.065056800842285 5.1974101066589355 11.211480140686035 5.194671154022217 11.271120071411133 C5.192056655883789 11.33138370513916 5.214094638824463 11.3615140914917 5.256427764892578 11.361639022827148 C5.2830729484558105 11.361639022827148 5.359771251678467 11.31270694732666 5.493494510650635 11.212600708007812 C5.5695695877075195 11.155574798583984 5.612152576446533 11.103157043457031 5.622611045837402 11.05746078491211 C5.627342224121094 11.036667823791504 5.625599384307861 10.995330810546875 5.615389347076416 10.93282699584961 C5.60530424118042 10.870697021484375 5.605926513671875 10.819149017333984 5.615389347076416 10.778061866760254 C5.669551372528076 10.542240142822266 5.8746185302734375 10.423458099365234 6.228102207183838 10.423707008361816 C6.426072597503662 10.423831939697266 6.5647759437561035 10.458569526672363 6.6406025886535645 10.527423858642578 C6.715930938720703 10.595779418945312 6.738218307495117 10.70460033416748 6.704227447509766 10.853763580322266 C6.677831172943115 10.969931602478027 6.621926307678223 11.037664413452148 6.541866779327393 11.059080123901367 C6.451347827911377 11.083234786987305 6.31749963760376 11.159185409545898 6.150158882141113 11.301002502441406 C6.057648181915283 11.379443168640137 6.013696193695068 11.440079689025879 6.006972312927246 11.469588279724121 C5.981448173522949 11.580900192260742 6.056900978088379 11.957542419433594 6.226234436035156 12.6013822555542 C6.259105205535889 12.726140975952148 6.280645370483398 12.813672065734863 6.305422306060791 12.861857414245605 C6.330199718475342 12.91029167175293 6.3609538078308105 12.97005558013916 6.410508632659912 13.02869987487793 C6.489945888519287 13.122330665588379 6.521820545196533 13.217455863952637 6.496171474456787 13.330760955810547 C6.470771789550781 13.443317413330078 6.419971466064453 13.535703659057617 6.3448920249938965 13.60381031036377 C6.267820835113525 13.673784255981445 6.176056861877441 13.706904411315918 6.07097053527832 13.706406593322754 L5.420531749725342 13.70279598236084 C5.351304531097412 13.702298164367676 5.289796829223633 13.655606269836426 5.2636494636535645 13.556620597839355 C5.20127010345459 13.31967830657959 5.156571388244629 13.07962417602539 5.106144428253174 12.841063499450684 L5.106144428253174 12.841063499450684 M8.605863571166992 12.667123794555664 C8.686422348022461 12.603872299194336 8.740833282470703 12.573243141174316 8.767477989196777 12.573243141174316 C8.800971031188965 12.573243141174316 8.828239440917969 12.590550422668457 8.847661972045898 12.62429141998291 C8.86671257019043 12.657661437988281 8.88040828704834 12.702609062194824 8.884517669677734 12.759758949279785 C8.888626098632812 12.816161155700684 8.882275581359863 12.879910469055176 8.866338729858398 12.951628684997559 C8.83558464050293 13.089709281921387 8.760754585266113 13.22567367553711 8.64483642578125 13.362883567810059 C8.530162811279297 13.498600006103516 8.39631462097168 13.608043670654297 8.239433288574219 13.686858177185059 C8.081180572509766 13.7661714553833 7.926539421081543 13.804520606994629 7.77015495300293 13.803647994995117 C7.479549407958984 13.802153587341309 7.265018939971924 13.638050079345703 7.129179000854492 13.311710357666016 C6.993961334228516 12.98686408996582 6.981385707855225 12.591421127319336 7.086098670959473 12.128369331359863 C7.1615519523620605 11.794933319091797 7.2794623374938965 11.496980667114258 7.43734073638916 11.235634803771973 C7.595841407775879 10.97329330444336 7.778621673583984 10.767602920532227 7.98605489730835 10.618938446044922 C8.195106506347656 10.469152450561523 8.403661727905273 10.394696235656738 8.614953994750977 10.394820213317871 C8.86845588684082 10.39494514465332 9.059205055236816 10.494553565979004 9.187076568603516 10.691776275634766 C9.315943717956543 10.890494346618652 9.353048324584961 11.126315116882324 9.291664123535156 11.401979446411133 A1.090705394744873 1.090705394744873 0.0 0 1 9.168523788452148 11.71474838256836 C9.112868309020996 11.810372352600098 9.05048942565918 11.887816429138184 8.979393005371094 11.943347930908203 C8.907302856445312 11.999876022338867 8.833468437194824 12.02751636505127 8.759883880615234 12.027267456054688 C8.670734405517578 12.027018547058105 8.613335609436035 11.994148254394531 8.587686538696289 11.929402351379395 C8.561912536621094 11.86465835571289 8.549711227416992 11.764925956726074 8.551702499389648 11.631575584411621 C8.55381965637207 11.498226165771484 8.547221183776855 11.398119926452637 8.534271240234375 11.331008911132812 C8.52144718170166 11.2647705078125 8.48098087310791 11.231277465820312 8.409637451171875 11.231152534484863 C8.338418006896973 11.23102855682373 8.262715339660645 11.283820152282715 8.1868896484375 11.389528274536133 C8.110315322875977 11.496357917785645 8.056652069091797 11.625848770141602 8.021166801452637 11.780364990234375 C7.962522983551025 12.034738540649414 7.965510845184326 12.260226249694824 8.025151252746582 12.457573890686035 C8.084667205810547 12.65429973602295 8.18203353881836 12.75403118133545 8.318246841430664 12.75452995300293 C8.436532020568848 12.754902839660645 8.53215503692627 12.724771499633789 8.605863571166992 12.667123794555664 M11.967378616333008 11.639918327331543 C11.892672538757324 12.02490234375 11.815601348876953 12.409388542175293 11.738654136657715 12.794122695922852 C11.71163558959961 12.929091453552246 11.703418731689453 13.035174369812012 11.73018741607666 13.11025333404541 C11.73965072631836 13.136774063110352 11.756085395812988 13.165908813476562 11.768287658691406 13.201892852783203 C11.780613899230957 13.237627029418945 11.788955688476562 13.270995140075684 11.793190002441406 13.303243637084961 C11.797422409057617 13.334869384765625 11.796052932739258 13.371849060058594 11.786964416503906 13.413932800292969 C11.764925956726074 13.515034675598145 11.723464012145996 13.593600273132324 11.664570808410645 13.648384094238281 C11.605926513671875 13.70267105102539 11.518770217895508 13.742265701293945 11.399365425109863 13.766793251037598 C11.282076835632324 13.791072845458984 11.129552841186523 13.804021835327148 10.9440336227417 13.80302619934082 C10.771960258483887 13.802029609680176 10.65230655670166 13.772893905639648 10.587187767028809 13.715495109558105 C10.52281665802002 13.658843040466309 10.505012512207031 13.570068359375 10.53091049194336 13.452157020568848 C10.542862892150879 13.397248268127441 10.559671401977539 13.35566234588623 10.578721046447754 13.325904846191406 C10.597272872924805 13.296769142150879 10.63064193725586 13.247089385986328 10.682064056396484 13.180726051330566 C10.711946487426758 13.142252922058105 10.754777908325195 13.043142318725586 10.805952072143555 12.881404876708984 C10.85724925994873 12.71891975402832 10.909294128417969 12.511983871459961 10.964452743530273 12.260350227355957 C11.032559394836426 11.949947357177734 11.062939643859863 11.729938507080078 11.05347728729248 11.599701881408691 C11.044137954711914 11.46971321105957 10.986988067626953 11.405466079711914 10.89111614227295 11.405217170715332 C10.804333686828613 11.40496826171875 10.734233856201172 11.453277587890625 10.679076194763184 11.548527717590332 C10.622922897338867 11.645147323608398 10.568885803222656 11.816473007202148 10.514473915100098 12.064122200012207 L10.369047164916992 12.72464656829834 C10.3302001953125 12.900952339172363 10.318994522094727 13.033679962158203 10.337421417236328 13.122455596923828 C10.360206604003906 13.231900215148926 10.361825942993164 13.326775550842285 10.344145774841309 13.407209396362305 C10.286870956420898 13.667684555053711 10.034489631652832 13.797796249389648 9.587374687194824 13.795306205749512 C9.21185302734375 13.793065071105957 9.051360130310059 13.669551849365234 9.10539722442627 13.425886154174805 C9.12133502960205 13.354416847229004 9.138143539428711 13.305484771728516 9.15333366394043 13.280956268310547 C9.169395446777344 13.254934310913086 9.203386306762695 13.213347434997559 9.257922172546387 13.161800384521484 C9.313827514648438 13.108758926391602 9.369109153747559 12.998444557189941 9.422025680541992 12.825250625610352 C9.475316047668457 12.65043830871582 9.5576171875 12.314262390136719 9.668057441711426 11.816224098205566 C9.703292846679688 11.657100677490234 9.71337890625 11.5513916015625 9.70267105102539 11.49897289276123 C9.69208812713623 11.447550773620605 9.66594123840332 11.391271591186523 9.626595497131348 11.330138206481934 C9.588122367858887 11.27037239074707 9.577164649963379 11.201643943786621 9.593725204467773 11.126564025878906 C9.617755889892578 11.018115997314453 9.70852279663086 10.909668922424316 9.861794471740723 10.801469802856445 A2.4090144634246826 2.4090144634246826 0.0 0 1 10.364191055297852 10.533524513244629 C10.542364120483398 10.463176727294922 10.663387298583984 10.427068710327148 10.727884292602539 10.427068710327148 C10.761253356933594 10.427068710327148 10.787773132324219 10.4518461227417 10.807071685791016 10.502521514892578 C10.825873374938965 10.552325248718262 10.827491760253906 10.611218452453613 10.8129243850708 10.677706718444824 L10.796363830566406 10.753034591674805 C10.764366149902344 10.898961067199707 10.770465850830078 10.972047805786133 10.814916610717773 10.972047805786133 C10.830480575561523 10.972047805786133 10.880533218383789 10.917387962341309 10.966444969177246 10.809313774108887 C11.052729606628418 10.700865745544434 11.14138126373291 10.609972953796387 11.233144760131836 10.537882804870605 C11.326776504516602 10.46417236328125 11.430617332458496 10.427566528320312 11.546286582946777 10.427566528320312 C11.717487335205078 10.427691459655762 11.84560775756836 10.504637718200684 11.933013916015625 10.654298782348633 C11.994646072387695 10.759882926940918 12.03424072265625 10.87916374206543 12.03909683227539 11.01487922668457 C12.043828010559082 11.150718688964844 12.02178955078125 11.359521865844727 11.967378616333008 11.639918327331543 L11.967378616333008 11.639918327331543 M12.53389835357666 12.52468490600586 C12.621926307678223 12.087157249450684 12.677083969116211 11.816099166870117 12.694391250610352 11.711012840270996 C12.71144962310791 11.606425285339355 12.695635795593262 11.561227798461914 12.651808738708496 11.546784400939941 C12.515096664428711 11.50171184539795 12.469900131225586 11.389280319213867 12.502521514892578 11.238872528076172 C12.541617393493652 11.058582305908203 12.64794921875 10.904563903808594 12.830605506896973 10.793002128601074 C13.237751960754395 10.544231414794922 13.55898666381836 10.429060935974121 13.77687931060791 10.429309844970703 C13.848098754882812 10.429309844970703 13.872875213623047 10.484716415405273 13.855195045471191 10.593040466308594 C13.837390899658203 10.702235221862793 13.840129852294922 10.756770133972168 13.86901569366455 10.756770133972168 C13.857810974121094 10.756770133972168 13.939239501953125 10.696382522583008 14.112183570861816 10.577476501464844 C14.286248207092285 10.4578218460083 14.432920455932617 10.398679733276367 14.555314064025879 10.398804664611816 C14.697876930236816 10.398804664611816 14.815289497375488 10.4705228805542 14.90356731414795 10.612836837768555 C14.992591857910156 10.756272315979004 15.04849624633789 10.94689655303955 15.066551208496094 11.186826705932617 C15.084729194641113 11.42663288116455 15.062690734863281 11.687729835510254 15.002801895141602 11.970491409301758 C14.891862869262695 12.49355697631836 14.707091331481934 12.93643856048584 14.44611930847168 13.297018051147461 C14.184398651123047 13.658843040466309 13.921558380126953 13.838885307312012 13.66232967376709 13.837390899658203 C13.59758472442627 13.836892127990723 13.522505760192871 13.809873580932617 13.43783950805664 13.756708145141602 C13.352923393249512 13.703168869018555 13.296271324157715 13.676025390625 13.26925277709961 13.676025390625 C13.235883712768555 13.675776481628418 13.203386306762695 13.743884086608887 13.174126625061035 13.879350662231445 C13.13528060913086 14.061010360717773 13.141754150390625 14.187013626098633 13.189939498901367 14.255369186401367 C13.225923538208008 14.30666732788086 13.251447677612305 14.35024642944336 13.26925277709961 14.386229515075684 C13.287431716918945 14.422710418701172 13.288426399230957 14.474506378173828 13.273859024047852 14.542613983154297 C13.213845252990723 14.82375717163086 13.004669189453125 14.961588859558105 12.646454811096191 14.95897388458252 C12.393575668334961 14.956981658935547 12.186141967773438 14.890119552612305 12.028637886047363 14.757890701293945 C11.869389533996582 14.623918533325195 11.810994148254395 14.46902847290039 11.849592208862305 14.29147720336914 C11.872627258300781 14.185644149780273 11.918570518493652 14.10956859588623 11.98630428314209 14.063126564025879 C12.052668571472168 14.017681121826172 12.11467456817627 13.953185081481934 12.166220664978027 13.873747825622559 C12.218764305114746 13.792816162109375 12.284380912780762 13.586503982543945 12.363194465637207 13.252443313598633 C12.420096397399902 13.010272026062012 12.476997375488281 12.767851829528809 12.53389835357666 12.52468490600586 L12.53389835357666 12.52468490600586 M13.643030166625977 11.694578170776367 C13.569321632385254 12.00136947631836 13.479798316955566 12.303804397583008 13.406462669372559 12.610719680786133 C13.35217571258545 12.837079048156738 13.399863243103027 12.95312213897705 13.533835411071777 12.953620910644531 C13.723464012145996 12.954367637634277 13.871131896972656 12.692399024963379 13.982942581176758 12.168835639953613 C14.035236358642578 11.925169944763184 14.052916526794434 11.732553482055664 14.030879020690918 11.591110229492188 C14.008716583251953 11.449915885925293 13.94895076751709 11.3801908493042 13.853327751159668 11.379941940307617 C13.759820938110352 11.379817962646484 13.693582534790039 11.48527717590332 13.643030166625977 11.694578170776367 L13.643030166625977 11.694578170776367 M17.126937866210938 12.255494117736816 C16.8034610748291 12.25424861907959 16.48247528076172 12.25300407409668 16.165847778320312 12.252132415771484 C16.12326431274414 12.252132415771484 16.097492218017578 12.2803955078125 16.086036682128906 12.33505630493164 C16.062877655029297 12.444998741149902 16.066364288330078 12.548589706420898 16.09624481201172 12.646827697753906 C16.125879287719727 12.743821144104004 16.16995620727539 12.820270538330078 16.231464385986328 12.875926971435547 C16.291975021362305 12.930834770202637 16.350120544433594 12.959098815917969 16.41287612915039 12.95934772491455 C16.553447723388672 12.960094451904297 16.71468734741211 12.889497756958008 16.880285263061523 12.732491493225098 C16.93768310546875 12.677955627441406 16.97466278076172 12.643714904785156 17.008155822753906 12.643964767456055 C17.048248291015625 12.643964767456055 17.078128814697266 12.682686805725098 17.091327667236328 12.75876235961914 A0.6138330101966858 0.6138330101966858 0.0 0 1 17.088464736938477 12.988358497619629 C17.054847717285156 13.150096893310547 16.959596633911133 13.298885345458984 16.809810638427734 13.445807456970215 C16.535266876220703 13.714499473571777 16.250762939453125 13.85220718383789 15.944594383239746 13.8504638671875 C15.756584167480469 13.849468231201172 15.596090316772461 13.773890495300293 15.464109420776367 13.623855590820312 C15.332503318786621 13.474569320678711 15.245471000671387 13.27049732208252 15.206624984741211 13.012015342712402 C15.16752815246582 12.752786636352539 15.179107666015625 12.475502967834473 15.24161148071289 12.179792404174805 A3.0783791542053223 3.0783791542053223 0.0 0 1 15.573803901672363 11.294900894165039 C15.72844409942627 11.021727561950684 15.908485412597656 10.803337097167969 16.107826232910156 10.64309310913086 C16.31015396118164 10.480484008789062 16.512481689453125 10.400299072265625 16.712570190429688 10.400423049926758 C16.975160598754883 10.400547981262207 17.17512321472168 10.526925086975098 17.317562103271484 10.774076461791992 C17.38903045654297 10.898088455200195 17.437713623046875 11.046628952026367 17.457138061523438 11.22617244720459 C17.4765625 11.405466079711914 17.468841552734375 11.577912330627441 17.434476852416992 11.742513656616211 C17.402851104736328 11.894664764404297 17.359148025512695 12.019049644470215 17.303617477416992 12.113926887512207 C17.248085021972656 12.208803176879883 17.189441680908203 12.255494117736816 17.126937866210938 12.255494117736816 L17.126937866210938 12.255494117736816 M16.35087013244629 11.62559986114502 L16.562410354614258 11.626221656799316 C16.649194717407227 11.626346588134766 16.706344604492188 11.55637264251709 16.735355377197266 11.417917251586914 C16.759136199951172 11.303742408752441 16.757516860961914 11.206873893737793 16.73174285888672 11.126191139221191 C16.706466674804688 11.046504974365234 16.65903091430664 11.006537437438965 16.589927673339844 11.006412506103516 C16.5230655670166 11.006412506103516 16.459566116333008 11.051361083984375 16.392953872680664 11.138641357421875 C16.32434844970703 11.228413581848145 16.278654098510742 11.321671485900879 16.257488250732422 11.422897338867188 C16.241674423217773 11.498226165771484 16.23943328857422 11.551267623901367 16.253128051757812 11.58077621459961 C16.267196655273438 11.610533714294434 16.299571990966797 11.62559986114502 16.35087013244629 11.62559986114502 L16.35087013244629 11.62559986114502 M19.189815521240234 12.70970630645752 C19.271991729736328 12.646454811096191 19.325531005859375 12.6138334274292 19.352298736572266 12.6138334274292 C19.387784957885742 12.614082336425781 19.413806915283203 12.632509231567383 19.435222625732422 12.666377067565918 C19.4578857421875 12.701363563537598 19.471704483032227 12.745938301086426 19.476560592651367 12.803959846496582 C19.481416702270508 12.861358642578125 19.476062774658203 12.925854682922363 19.46149444580078 12.998069763183594 C19.432857513427734 13.138891220092773 19.36176300048828 13.278467178344727 19.24646759033203 13.416297912597656 A1.2853140830993652 1.2853140830993652 0.0 0 1 18.832595825195312 13.744630813598633 C18.6731014251709 13.824939727783203 18.514972686767578 13.865032196044922 18.353981018066406 13.864035606384277 C18.052169799804688 13.862292289733887 17.826309204101562 13.695698738098145 17.68088150024414 13.364253044128418 C17.53620147705078 13.034302711486816 17.512794494628906 12.632759094238281 17.610408782958984 12.161738395690918 C17.680633544921875 11.82307243347168 17.794933319091797 11.521260261535645 17.952314376831055 11.255681037902832 C18.109941482543945 10.989852905273438 18.293718338012695 10.781423568725586 18.504886627197266 10.6292724609375 C18.714561462402344 10.478241920471191 18.929962158203125 10.401544570922852 19.148103713989258 10.401668548583984 C19.4083309173584 10.401793479919434 19.605802536010742 10.502521514892578 19.744630813598633 10.703230857849121 C19.884204864501953 10.904563903808594 19.923675537109375 11.144369125366211 19.865032196044922 11.424391746520996 C19.841249465942383 11.537944793701172 19.804271697998047 11.644525527954102 19.74873924255371 11.741518020629883 C19.693082809448242 11.839009284973145 19.630329132080078 11.91583251953125 19.556621551513672 11.97372817993164 C19.484405517578125 12.030256271362305 19.409700393676758 12.059640884399414 19.333873748779297 12.059391975402832 C19.24024200439453 12.059142112731934 19.181598663330078 12.026022911071777 19.153457641601562 11.959410667419434 C19.12594223022461 11.894042015075684 19.113117218017578 11.792442321777344 19.110626220703125 11.657598495483398 C19.10838508605957 11.521510124206543 19.099172592163086 11.420780181884766 19.0841064453125 11.352176666259766 C19.069290161132812 11.285189628601074 19.02695655822754 11.25094985961914 18.9534969329834 11.250824928283691 C18.877918243408203 11.250700950622559 18.802963256835938 11.304364204406738 18.728755950927734 11.411691665649414 C18.65380096435547 11.519766807556152 18.598892211914062 11.652119636535645 18.566768646240234 11.808006286621094 C18.513229370117188 12.067234992980957 18.520824432373047 12.295337677001953 18.585693359375 12.496419906616211 C18.650440216064453 12.696258544921875 18.754032135009766 12.797484397888184 18.89236068725586 12.797983169555664 C19.01525115966797 12.798978805541992 19.112991333007812 12.768848419189453 19.189815521240234 12.70970630645752 L19.189815521240234 12.70970630645752 M22.979644775390625 9.388781547546387 C23.057212829589844 9.354791641235352 23.102907180786133 9.338106155395508 23.11174774169922 9.338106155395508 C23.21845245361328 9.338106155395508 23.284194946289062 9.454523086547852 23.310714721679688 9.689224243164062 C23.337482452392578 9.924671173095703 23.32217025756836 10.192367553710938 23.262527465820312 10.493805885314941 C23.223182678222656 10.693020820617676 23.154579162597656 10.858992576599121 23.059452056884766 10.990848541259766 C22.96432876586914 11.122206687927246 22.8597412109375 11.187948226928711 22.74407196044922 11.187698364257812 C22.659404754638672 11.187573432922363 22.601757049560547 11.153458595275879 22.577476501464844 11.085102081298828 C22.55319595336914 11.017245292663574 22.517837524414062 10.876673698425293 22.470523834228516 10.661893844604492 C22.423084259033203 10.447612762451172 22.36618423461914 10.29035758972168 22.298076629638672 10.187760353088379 C22.231216430664062 10.08665943145752 22.12177276611328 10.035734176635742 21.972980499267578 10.035734176635742 C21.828548431396484 10.035734176635742 21.69893455505371 10.11703872680664 21.581398010253906 10.280022621154785 C21.4642333984375 10.442508697509766 21.376455307006836 10.668368339538574 21.318557739257812 10.956110954284668 C21.2271671295166 11.410322189331055 21.2274169921875 11.80738353729248 21.317062377929688 12.148415565490723 C21.407085418701172 12.490071296691895 21.58700180053711 12.66176986694336 21.8569393157959 12.663015365600586 C21.99066162109375 12.66351318359375 22.113304138183594 12.629396438598633 22.218017578125 12.56452751159668 A1.6568511724472046 1.6568511724472046 0.0 0 0 22.50912094116211 12.33468246459961 C22.597896575927734 12.247401237487793 22.653553009033203 12.203822135925293 22.673473358154297 12.203822135925293 C22.722654342651367 12.204071044921875 22.758886337280273 12.241300582885742 22.780675888061523 12.316130638122559 C22.80259132385254 12.390835762023926 22.803586959838867 12.482226371765137 22.782421112060547 12.589179992675781 C22.745939254760742 12.772831916809082 22.670360565185547 12.962211608886719 22.5604190826416 13.156571388244629 C22.45022964477539 13.351055145263672 22.337173461914062 13.458632469177246 22.227479934692383 13.492871284484863 C22.132104873657227 13.522505760192871 22.01730728149414 13.58115005493164 21.881465911865234 13.65797233581543 C21.745254516601562 13.7350435256958 21.63369369506836 13.79194450378418 21.54342269897461 13.82742977142334 C21.45128631591797 13.863412857055664 21.344703674316406 13.880221366882324 21.219696044921875 13.879474639892578 C20.944656372070312 13.87798023223877 20.71095085144043 13.769782066345215 20.516218185424805 13.5513916015625 C20.322355270385742 13.334495544433594 20.191871643066406 13.043392181396484 20.12737274169922 12.678328514099121 C20.062877655029297 12.313017845153809 20.07582664489746 11.920811653137207 20.161115646362305 11.50084114074707 A3.882711887359619 3.882711887359619 0.0 0 1 20.467037200927734 10.586689949035645 C20.607357025146484 10.295212745666504 20.771713256835938 10.035236358642578 20.963581085205078 9.804145812988281 C21.15370750427246 9.575422286987305 21.35167694091797 9.396501541137695 21.557493209838867 9.272738456726074 C21.766170501708984 9.14710807800293 21.968002319335938 9.084853172302246 22.163230895996094 9.084604263305664 C22.28525161743164 9.084480285644531 22.39208221435547 9.106019973754883 22.483470916748047 9.148353576660156 C22.574861526489258 9.190563201904297 22.66176986694336 9.243976593017578 22.746559143066406 9.309593200683594 C22.830978393554688 9.374960899353027 22.887130737304688 9.40932559967041 22.909046173095703 9.406835556030273 C22.92386245727539 9.4050931930542 22.937559127807617 9.399116516113281 22.951627731323242 9.394883155822754 C22.9656982421875 9.39114761352539 22.974910736083984 9.388781547546387 22.979644775390625 9.388781547546387 L22.979644775390625 9.388781547546387" fill="black" fill-opacity="1.0" filling="0"/>
<path animation_id="2" d="M6.245533466339111 9.729315757751465 C6.262964725494385 9.729315757751465 6.278777599334717 9.722716331481934 6.29309606552124 9.709768295288086 C6.307290554046631 9.696694374084473 6.333188533782959 9.661955833435059 6.370665550231934 9.60567855834961 L6.5067548751831055 9.411816596984863 C6.556558609008789 9.343708992004395 6.591670513153076 9.290294647216797 6.612090110778809 9.251821517944336 C6.632509708404541 9.213348388671875 6.646579265594482 9.177862167358398 6.654423236846924 9.145364761352539 C6.680321216583252 9.038412094116211 6.74045991897583 8.984747886657715 6.834837913513184 8.984747886657715 C6.900579452514648 8.984747886657715 6.94988489151001 9.018863677978516 6.982631206512451 9.086970329284668 C6.997323513031006 9.117973327636719 7.014380931854248 9.166157722473145 7.033928871154785 9.231525421142578 C7.0534772872924805 9.296894073486328 7.070410251617432 9.363382339477539 7.085102558135986 9.430741310119629 L7.143622398376465 9.690094947814941 C7.146984100341797 9.709144592285156 7.153831958770752 9.720227241516113 7.164166450500488 9.723340034484863 C7.1843366622924805 9.724958419799805 7.196165561676025 9.725830078125 7.199277877807617 9.725830078125 C7.227043628692627 9.725830078125 7.245222091674805 9.747743606567383 7.253564357757568 9.79181957244873 C7.261906623840332 9.835896492004395 7.261906623840332 9.875242233276367 7.253564357757568 9.910104751586914 A0.11903131008148193 0.11903131008148193 0.0 0 1 7.220320224761963 9.97074031829834 A0.07744506001472473 0.07744506001472473 0.0 0 1 7.165535926818848 9.993401527404785 C7.14573860168457 9.993401527404785 7.132042407989502 9.98630428314209 7.12432336807251 9.97198486328125 C7.102783203125 9.936375617980957 7.081740856170654 9.910726547241211 7.061445713043213 9.89528751373291 C7.0410261154174805 9.87984848022461 7.011765956878662 9.871755599975586 6.9739155769348145 9.87088394165039 A0.523812472820282 0.523812472820282 0.0 0 0 6.935193061828613 9.868517875671387 L6.447488307952881 9.868517875671387 C6.426072597503662 9.868517875671387 6.406399726867676 9.869264602661133 6.388595104217529 9.87088394165039 C6.350370407104492 9.871755599975586 6.318122386932373 9.879225730895996 6.292099952697754 9.89354419708252 C6.266077518463135 9.907862663269043 6.231712818145752 9.93401050567627 6.1892547607421875 9.972110748291016 A0.07121957838535309 0.07121957838535309 0.0 0 1 6.135342121124268 9.993525505065918 C6.114673614501953 9.993525505065918 6.1004791259765625 9.985931396484375 6.092635154724121 9.970865249633789 C6.08479118347168 9.955799102783203 6.083919525146484 9.935627937316895 6.090020656585693 9.910228729248047 C6.098487377166748 9.8753662109375 6.117537498474121 9.835896492004395 6.147170543670654 9.79194450378418 C6.176928520202637 9.747867584228516 6.205192565917969 9.725954055786133 6.232211112976074 9.725954055786133 C6.238934516906738 9.727323532104492 6.243416786193848 9.728569030761719 6.245533466339111 9.729315757751465 L6.245533466339111 9.729315757751465 M6.4689040184021 9.730561256408691 C6.468156814575195 9.733674049377441 6.469775676727295 9.73641300201416 6.474008560180664 9.738903045654297 A0.052418604493141174 0.052418604493141174 0.0 0 0 6.484716892242432 9.743634223937988 L6.768972396850586 9.743634223937988 C6.772085189819336 9.743634223937988 6.778310298919678 9.741144180297852 6.787524223327637 9.735915184020996 C6.796738147735596 9.73068618774414 6.801718235015869 9.726577758789062 6.802465438842773 9.723340034484863 C6.807321548461914 9.703542709350586 6.799103260040283 9.633194923400879 6.778061389923096 9.512295722961426 C6.757019519805908 9.391396522521973 6.740086078643799 9.33088493347168 6.727385997772217 9.33088493347168 C6.7107014656066895 9.33088493347168 6.69401741027832 9.34595012664795 6.677208423614502 9.376081466674805 C6.6656293869018555 9.39114761352539 6.628899097442627 9.450662612915039 6.566893100738525 9.55450439453125 C6.504762649536133 9.658345222473145 6.472140789031982 9.716989517211914 6.4689040184021 9.730561256408691 L6.4689040184021 9.730561256408691 M8.889995574951172 9.87088394165039 C8.864595413208008 9.87088394165039 8.830106735229492 9.869264602661133 8.78640365600586 9.866275787353516 L8.666874885559082 9.87088394165039 L8.578597068786621 9.874494552612305 C8.559422492980957 9.8753662109375 8.54024887084961 9.875740051269531 8.521198272705078 9.875740051269531 C8.494303703308105 9.875740051269531 8.474507331848145 9.869513511657715 8.462055206298828 9.857312202453613 C8.449604988098145 9.844985961914062 8.445745468139648 9.828924179077148 8.45047664642334 9.809125900268555 C8.454710006713867 9.791570663452148 8.466538429260254 9.777003288269043 8.486085891723633 9.765050888061523 C8.514598846435547 9.749113082885742 8.533400535583496 9.733175277709961 8.542986869812012 9.716865539550781 C8.552574157714844 9.700678825378418 8.563406944274902 9.673784255981445 8.57560920715332 9.636556625366211 C8.613210678100586 9.530349731445312 8.649567604064941 9.404594421386719 8.684555053710938 9.259415626525879 C8.697503089904785 9.206375122070312 8.702484130859375 9.171636581420898 8.699745178222656 9.155450820922852 C8.697005271911621 9.139140129089355 8.684430122375488 9.126315116882324 8.662142753601074 9.116727828979492 C8.637615203857422 9.106393814086914 8.628275871276855 9.08983325958252 8.63375473022461 9.06679916381836 C8.637988090515137 9.049367904663086 8.649567604064941 9.034675598144531 8.668742179870605 9.022724151611328 C8.68791675567627 9.010770797729492 8.71095085144043 9.004793167114258 8.737845420837402 9.004793167114258 C8.756895065307617 9.004793167114258 8.783539772033691 9.005167007446289 8.817904472351074 9.006038665771484 L8.913154602050781 9.008403778076172 L9.05472183227539 9.006038665771484 C9.10527229309082 9.005290985107422 9.143996238708496 9.004793167114258 9.171013832092285 9.004793167114258 C9.366121292114258 9.004793167114258 9.447799682617188 9.07028579711914 9.416173934936523 9.201146125793457 A0.22312146425247192 0.22312146425247192 0.0 0 1 9.376331329345703 9.287306785583496 A0.4244537055492401 0.4244537055492401 0.0 0 1 9.316691398620605 9.349685668945312 C9.295150756835938 9.367864608764648 9.283695220947266 9.380314826965332 9.282201766967773 9.386540412902832 C9.279586791992188 9.396875381469727 9.285937309265137 9.405217170715332 9.301127433776855 9.411566734313965 C9.339102745056152 9.428251266479492 9.366369247436523 9.453776359558105 9.383054733276367 9.488265037536621 C9.399613380432129 9.522754669189453 9.403100967407227 9.56023120880127 9.393264770507812 9.60069751739502 A0.32970181107521057 0.32970181107521057 0.0 0 1 9.254436492919922 9.801158905029297 C9.182096481323242 9.850712776184082 9.096805572509766 9.875615119934082 8.998444557189941 9.875615119934082 A0.9496358036994934 0.9496358036994934 0.0 0 1 8.889995574951172 9.87088394165039 L8.889995574951172 9.87088394165039 M8.995206832885742 9.180974960327148 L8.963207244873047 9.313079833984375 C8.958227157592773 9.333747863769531 8.957355499267578 9.347818374633789 8.960718154907227 9.3552885055542 C8.964078903198242 9.36275863647461 8.972420692443848 9.366619110107422 8.985992431640625 9.366619110107422 C9.047874450683594 9.366619110107422 9.087965965270996 9.328518867492676 9.106393814086914 9.252443313598633 C9.11660385131836 9.21048355102539 9.11647891998291 9.178858757019043 9.106144905090332 9.157940864562988 C9.095810890197754 9.1368989944458 9.076263427734375 9.126440048217773 9.047749519348145 9.126440048217773 C9.021478652954102 9.126190185546875 9.003922462463379 9.14449405670166 8.995206832885742 9.180974960327148 L8.995206832885742 9.180974960327148 M8.906431198120117 9.547407150268555 L8.892361640930176 9.60567855834961 C8.87916374206543 9.66046142578125 8.874805450439453 9.697068214416504 8.879412651062012 9.715744018554688 C8.884018898010254 9.734420776367188 8.898587226867676 9.743759155273438 8.923239707946777 9.743759155273438 C8.987486839294434 9.743759155273438 9.02869987487793 9.706157684326172 9.047002792358398 9.630828857421875 C9.057710647583008 9.58637809753418 9.056714057922363 9.552512168884277 9.043641090393066 9.529104232788086 C9.030691146850586 9.505696296691895 9.007034301757812 9.49411678314209 8.973043441772461 9.49411678314209 C8.952499389648438 9.49411678314209 8.937433242797852 9.497852325439453 8.928095817565918 9.50532341003418 C8.918508529663086 9.51266860961914 8.91141128540039 9.526739120483398 8.906431198120117 9.547407150268555 M11.202515602111816 8.990599632263184 C11.263525009155273 8.990599632263184 11.316815376281738 8.997945785522461 11.362510681152344 9.012638092041016 C11.408205032348633 9.02733039855957 11.44792366027832 9.050114631652832 11.48166561126709 9.08099365234375 C11.525742530822754 9.124571800231934 11.556870460510254 9.179854393005371 11.574799537658691 9.246965408325195 C11.592729568481445 9.314075469970703 11.592853546142578 9.383676528930664 11.575422286987305 9.455768585205078 A0.48919877409935 0.48919877409935 0.0 0 1 11.457635879516602 9.672290802001953 A0.6555438041687012 0.6555438041687012 0.0 0 1 11.240988731384277 9.827554702758789 A0.6290232539176941 0.6290232539176941 0.0 0 1 10.979020118713379 9.885202407836914 C10.895723342895508 9.885202407836914 10.824254035949707 9.865405082702637 10.764366149902344 9.82568645477295 A0.308784157037735 0.308784157037735 0.0 0 1 10.639607429504395 9.662703514099121 C10.616323471069336 9.593725204467773 10.61507797241211 9.516404151916504 10.635746955871582 9.430741310119629 A0.5216958522796631 0.5216958522796631 0.0 0 1 10.71269416809082 9.260039329528809 A0.6252878904342651 0.6252878904342651 0.0 0 1 11.015999794006348 9.023843765258789 A0.5474693179130554 0.5474693179130554 0.0 0 1 11.202515602111816 8.990599632263184 L11.202515602111816 8.990599632263184 M11.112868309020996 9.169146537780762 A0.10446367412805557 0.10446367412805557 0.0 0 0 11.056838989257812 9.187076568603516 A0.16509991884231567 0.16509991884231567 0.0 0 0 11.006661415100098 9.237004280090332 A0.21353422105312347 0.21353422105312347 0.0 0 0 10.97628116607666 9.30598258972168 C10.966693878173828 9.345577239990234 10.963083267211914 9.39737319946289 10.965448379516602 9.461246490478516 C10.967938423156738 9.52511978149414 10.978647232055664 9.581024169921875 10.99807071685791 9.628961563110352 C11.017494201660156 9.676897048950195 11.047624588012695 9.700927734375 11.088837623596191 9.700927734375 C11.120588302612305 9.700927734375 11.14897632598877 9.68897533416748 11.174251556396484 9.665193557739258 C11.1995267868042 9.641411781311035 11.216833114624023 9.609289169311523 11.226670265197754 9.568946838378906 C11.234764099121094 9.535578727722168 11.23999309539795 9.496109008789062 11.242234230041504 9.450538635253906 C11.244474411010742 9.40496826171875 11.242358207702637 9.3615140914917 11.235634803771973 9.32030200958252 C11.229035377502441 9.27896499633789 11.21558952331543 9.243602752685547 11.195418357849121 9.213845252990723 C11.175247192382812 9.184087753295898 11.147730827331543 9.169146537780762 11.112868309020996 9.169146537780762 L11.112868309020996 9.169146537780762 M13.442943572998047 9.198780059814453 C13.446554183959961 9.183714866638184 13.44680404663086 9.172384262084961 13.443441390991211 9.164913177490234 C13.440079689025879 9.157442092895508 13.433481216430664 9.1493501663208 13.4237699508667 9.140634536743164 C13.40820598602295 9.129552841186523 13.398493766784668 9.120588302612305 13.394135475158691 9.113863945007324 C13.389778137207031 9.10714054107666 13.389030456542969 9.098176002502441 13.391521453857422 9.087095260620117 C13.406587600708008 9.025213241577148 13.493867874145508 8.994335174560547 13.653240203857422 8.994335174560547 C13.80302619934082 8.994335174560547 13.871131896972656 9.023221969604492 13.857063293457031 9.081242561340332 C13.853203773498535 9.09792709350586 13.847600936889648 9.109007835388184 13.840752601623535 9.114611625671387 A0.38187137246131897 0.38187137246131897 0.0 0 1 13.797423362731934 9.140758514404297 C13.775508880615234 9.152586936950684 13.761688232421875 9.163792610168457 13.756086349487305 9.174126625061035 C13.742016792297363 9.199402809143066 13.724709510803223 9.251821517944336 13.703790664672852 9.331133842468262 L13.655606269836426 9.5297269821167 L13.653614044189453 9.538069725036621 C13.636805534362793 9.607918739318848 13.627093315124512 9.655855178833008 13.624728202819824 9.682003021240234 C13.622486114501953 9.708148956298828 13.626969337463379 9.724335670471191 13.638050079345703 9.730810165405273 C13.653116226196289 9.743509292602539 13.66357421875 9.75322151184082 13.669426918029785 9.7599458694458 C13.675527572631836 9.766669273376465 13.676773071289062 9.77687931060791 13.673535346984863 9.790325164794922 C13.65871810913086 9.851460456848145 13.572807312011719 9.881964683532715 13.415800094604492 9.881964683532715 C13.341343879699707 9.881964683532715 13.288177490234375 9.874992370605469 13.256054878234863 9.86117172241211 C13.224180221557617 9.8472261428833 13.211605072021484 9.826433181762695 13.218328475952148 9.798667907714844 A0.08715681731700897 0.08715681731700897 0.0 0 1 13.256303787231445 9.746871948242188 C13.276723861694336 9.733051300048828 13.295150756835938 9.714624404907227 13.311461448669434 9.69158935546875 C13.32777214050293 9.66855525970459 13.343833923339844 9.624229431152344 13.35964584350586 9.558363914489746 C13.372968673706055 9.503704071044922 13.373217582702637 9.476312637329102 13.360642433166504 9.476312637329102 C13.350183486938477 9.476312637329102 13.326900482177734 9.485774993896484 13.290668487548828 9.5048246383667 C13.26103401184082 9.522380828857422 13.223806381225586 9.54653549194336 13.178609848022461 9.577413558959961 C13.13341236114502 9.608416557312012 13.1090087890625 9.630952835083008 13.105647087097168 9.645147323608398 C13.094440460205078 9.691963195800781 13.099794387817383 9.720476150512695 13.121957778930664 9.730810165405273 C13.145365715026855 9.74898910522461 13.154330253601074 9.76891040802002 13.149225234985352 9.790325164794922 C13.14188003540039 9.819709777832031 13.116106033325195 9.842246055603027 13.071406364440918 9.858183860778809 C13.026707649230957 9.87399673461914 12.965822219848633 9.881964683532715 12.888999938964844 9.881964683532715 C12.815290451049805 9.881964683532715 12.760381698608398 9.874618530273438 12.724397659301758 9.860051155090332 C12.688165664672852 9.845233917236328 12.673349380493164 9.824440956115723 12.679947853088379 9.797548294067383 A0.06026271730661392 0.06026271730661392 0.0 0 1 12.694515228271484 9.769034385681152 C12.70161247253418 9.761813163757324 12.710079193115234 9.755462646484375 12.720538139343262 9.749984741210938 L12.749922752380371 9.734420776367188 C12.771088600158691 9.72570514678955 12.788768768310547 9.703542709350586 12.803462028503418 9.667932510375977 C12.818029403686523 9.632198333740234 12.836830139160156 9.567578315734863 12.859366416931152 9.473945617675781 C12.86546802520752 9.448546409606934 12.873435974121094 9.414057731628418 12.883148193359375 9.370479583740234 L12.91016674041748 9.2490816116333 C12.92037582397461 9.20699691772461 12.922119140625 9.180477142333984 12.915021896362305 9.169395446777344 C12.908173561096191 9.15831470489502 12.896346092224121 9.148228645324707 12.879039764404297 9.139015197753906 C12.861732482910156 9.129800796508789 12.855506896972656 9.116230010986328 12.859864234924316 9.09792709350586 C12.86982536315918 9.056714057922363 12.90705394744873 9.029072761535645 12.97142505645752 9.015252113342285 A0.8790388107299805 0.8790388107299805 0.0 0 1 13.157193183898926 8.99445915222168 C13.220693588256836 8.99445915222168 13.267633438110352 9.001431465148926 13.298014640808105 9.015252113342285 C13.328393936157227 9.029072761535645 13.34009838104248 9.049617767333984 13.333747863769531 9.07651138305664 A0.07196663320064545 0.07196663320064545 0.0 0 1 13.313329696655273 9.111623764038086 A0.17543423175811768 0.17543423175811768 0.0 0 1 13.267135620117188 9.140758514404297 A0.10471269488334656 0.10471269488334656 0.0 0 0 13.223557472229004 9.187200546264648 A0.492062509059906 0.492062509059906 0.0 0 0 13.194173812866211 9.279960632324219 C13.179605484008789 9.34022331237793 13.179854393005371 9.370479583740234 13.19491958618164 9.370479583740234 C13.220942497253418 9.370479583740234 13.267633438110352 9.347818374633789 13.334993362426758 9.302620887756348 A0.5901761651039124 0.5901761651039124 0.0 0 0 13.413559913635254 9.24609375 A0.09774015098810196 0.09774015098810196 0.0 0 0 13.442943572998047 9.198780059814453 L13.442943572998047 9.198780059814453 M13.415178298950195 8.826496124267578 C13.443815231323242 8.826496124267578 13.468717575073242 8.818153381347656 13.489635467529297 8.801593780517578 C13.510801315307617 8.7850341796875 13.524124145507812 8.768723487854004 13.529478073120117 8.752785682678223 C13.537694931030273 8.728257179260254 13.560606002807617 8.715930938720703 13.597833633422852 8.715930938720703 C13.63120174407959 8.715930938720703 13.640416145324707 8.746809959411621 13.625349998474121 8.808691024780273 C13.615887641906738 8.848409652709961 13.588869094848633 8.882650375366211 13.544668197631836 8.911535263061523 C13.500467300415039 8.940546989440918 13.448173522949219 8.954989433288574 13.387785911560059 8.954989433288574 C13.327398300170898 8.954989433288574 13.282450675964355 8.94067096710205 13.252569198608398 8.912158966064453 A0.10110191255807877 0.10110191255807877 0.0 0 1 13.222187995910645 8.80856704711914 C13.230903625488281 8.772085189819336 13.240615844726562 8.747556686401367 13.250825881958008 8.734856605529785 A0.04830978065729141 0.04830978065729141 0.0 0 1 13.29091739654541 8.71580696105957 C13.329764366149902 8.71580696105957 13.34632396697998 8.728133201599121 13.34022331237793 8.752660751342773 A0.08030878007411957 0.08030878007411957 0.0 0 0 13.357280731201172 8.802589416503906 C13.368985176086426 8.818527221679688 13.388408660888672 8.826496124267578 13.415178298950195 8.826496124267578 L13.415178298950195 8.826496124267578 M15.409575462341309 9.34507942199707 L15.483036041259766 9.34507942199707 C15.538692474365234 9.34507942199707 15.572309494018555 9.340347290039062 15.584137916564941 9.33088493347168 L15.589740753173828 9.317811012268066 A0.08964701741933823 0.08964701741933823 0.0 0 0 15.594596862792969 9.302371978759766 L15.597210884094238 9.291788101196289 C15.609413146972656 9.240988731384277 15.615638732910156 9.205254554748535 15.615887641906738 9.184710502624512 C15.61613655090332 9.164165496826172 15.609786987304688 9.149474143981934 15.596713066101074 9.140758514404297 C15.581149101257324 9.129676818847656 15.57143783569336 9.120712280273438 15.567079544067383 9.113988876342773 C15.562721252441406 9.10726547241211 15.561975479125977 9.09830093383789 15.564590454101562 9.08721923828125 C15.57940673828125 9.025338172912598 15.666687965393066 8.99445915222168 15.82606029510498 8.99445915222168 C15.976094245910645 8.99445915222168 16.0439510345459 9.023345947265625 16.029882431030273 9.081366539001465 C16.02602195739746 9.098051071166992 16.02042007446289 9.10913372039795 16.013572692871094 9.114736557006836 C16.006723403930664 9.120338439941406 15.992403984069824 9.12893009185791 15.970242500305176 9.14088249206543 C15.948328971862793 9.152711868286133 15.934507369995117 9.163917541503906 15.928905487060547 9.174251556396484 C15.914834976196289 9.199527740478516 15.897528648376465 9.251945495605469 15.876611709594727 9.331258773803711 L15.828425407409668 9.529851913452148 L15.826433181762695 9.538193702697754 C15.809624671936035 9.608043670654297 15.79991340637207 9.655980110168457 15.797547340393066 9.682126998901367 C15.795306205749512 9.708273887634277 15.799789428710938 9.724459648132324 15.810870170593262 9.730934143066406 C15.825936317443848 9.743634223937988 15.836395263671875 9.75334644317627 15.84249496459961 9.760069847106934 C15.848347663879395 9.766793251037598 15.849592208862305 9.777003288269043 15.846354484558105 9.790451049804688 C15.831539154052734 9.851584434509277 15.745626449584961 9.882088661193848 15.588619232177734 9.882088661193848 C15.51416301727295 9.882088661193848 15.46099853515625 9.875116348266602 15.429122924804688 9.861295700073242 C15.39699935913086 9.84735107421875 15.384424209594727 9.826557159423828 15.39114761352539 9.798791885375977 A0.0796862319111824 0.0796862319111824 0.0 0 1 15.428625106811523 9.749984741210938 C15.448546409606934 9.737284660339355 15.466849327087402 9.719230651855469 15.483283996582031 9.695823669433594 C15.499595642089844 9.672414779663086 15.516155242919922 9.626595497131348 15.532590866088867 9.558363914489746 C15.539936065673828 9.52823257446289 15.540559768676758 9.509929656982422 15.535079956054688 9.503704071044922 C15.529478073120117 9.497354507446289 15.509556770324707 9.494241714477539 15.475440979003906 9.494241714477539 C15.38492202758789 9.494241714477539 15.332752227783203 9.500467300415039 15.318557739257812 9.513291358947754 C15.311461448669434 9.519641876220703 15.301251411437988 9.550519943237305 15.287679672241211 9.606051445007324 C15.270124435424805 9.679014205932617 15.27236557006836 9.720724105834961 15.294528007507324 9.730934143066406 C15.317935943603516 9.749113082885742 15.326900482177734 9.769034385681152 15.321795463562012 9.790451049804688 C15.314699172973633 9.819833755493164 15.288676261901855 9.842370986938477 15.243976593017578 9.858308792114258 C15.1995267868042 9.874120712280273 15.138641357421875 9.882088661193848 15.06157112121582 9.882088661193848 C14.987860679626465 9.882088661193848 14.932950973510742 9.874743461608887 14.896967887878418 9.860176086425781 C14.860735893249512 9.845358848571777 14.845919609069824 9.824565887451172 14.852519035339355 9.797672271728516 A0.05839507281780243 0.05839507281780243 0.0 0 1 14.867334365844727 9.769159317016602 A0.10122642666101456 0.10122642666101456 0.0 0 1 14.893108367919922 9.75010871887207 C14.90356731414795 9.744630813598633 14.913528442382812 9.73952579498291 14.922492980957031 9.73454475402832 C14.943658828735352 9.725830078125 14.961339950561523 9.703666687011719 14.976032257080078 9.668057441711426 C14.9906005859375 9.632322311401367 15.009400367736816 9.567702293395996 15.031936645507812 9.474071502685547 C15.03803825378418 9.448671340942383 15.04600715637207 9.41418170928955 15.055718421936035 9.370603561401367 L15.08273696899414 9.24920654296875 C15.092947006225586 9.207121849060059 15.094690322875977 9.180601119995117 15.087841987609863 9.169519424438477 A0.09375584125518799 0.09375584125518799 0.0 0 0 15.051609992980957 9.139140129089355 C15.034551620483398 9.130050659179688 15.028077125549316 9.116354942321777 15.032435417175293 9.098051071166992 C15.042396545410156 9.056838989257812 15.07962417602539 9.029197692871094 15.14399528503418 9.015377044677734 A0.8796613216400146 0.8796613216400146 0.0 0 1 15.330013275146484 8.994584083557129 C15.393263816833496 8.994584083557129 15.440204620361328 9.001556396484375 15.470584869384766 9.015377044677734 C15.500965118408203 9.029197692871094 15.512918472290039 9.049741744995117 15.506319046020508 9.07663631439209 A0.07009898871183395 0.07009898871183395 0.0 0 1 15.485898971557617 9.111747741699219 A0.1713254153728485 0.1713254153728485 0.0 0 1 15.439705848693848 9.14088249206543 C15.425885200500488 9.148726463317871 15.415426254272461 9.157069206237793 15.4080810546875 9.16578483581543 C15.400734901428223 9.174500465393066 15.394011497497559 9.18757438659668 15.387909889221191 9.205005645751953 C15.381560325622559 9.222436904907227 15.374588012695312 9.24746322631836 15.366743087768555 9.279960632324219 C15.36064338684082 9.305360794067383 15.360393524169922 9.322542190551758 15.366743087768555 9.331756591796875 C15.373093605041504 9.340596199035645 15.387163162231445 9.34507942199707 15.409575462341309 9.34507942199707 L15.409575462341309 9.34507942199707 M17.70889663696289 8.990599632263184 C17.76990509033203 8.990599632263184 17.823196411132812 8.997945785522461 17.868892669677734 9.012638092041016 C17.914337158203125 9.02733039855957 17.954055786132812 9.050114631652832 17.987796783447266 9.08099365234375 C18.031999588012695 9.124571800231934 18.06300163269043 9.179854393005371 18.080930709838867 9.246965408325195 C18.098735809326172 9.314075469970703 18.09898567199707 9.383676528930664 18.08142852783203 9.455768585205078 C18.062503814697266 9.535080909729004 18.023035049438477 9.60729694366455 17.963768005371094 9.672290802001953 A0.6555438041687012 0.6555438041687012 0.0 0 1 17.747119903564453 9.827554702758789 A0.6282761693000793 0.6282761693000793 0.0 0 1 17.485153198242188 9.885202407836914 C17.401981353759766 9.885202407836914 17.33051109313965 9.865405082702637 17.27062225341797 9.82568645477295 C17.210857391357422 9.786092758178711 17.16927146911621 9.731806755065918 17.145862579345703 9.662703514099121 C17.122455596923828 9.59360122680664 17.12108612060547 9.516404151916504 17.14200210571289 9.430741310119629 C17.156322479248047 9.371225357055664 17.181846618652344 9.314325332641602 17.218826293945312 9.260039329528809 A0.6257860064506531 0.6257860064506531 0.0 0 1 17.522254943847656 9.023843765258789 A0.5482164025306702 0.5482164025306702 0.0 0 1 17.70889663696289 8.990599632263184 L17.70889663696289 8.990599632263184 M17.619125366210938 9.169146537780762 A0.10371661931276321 0.10371661931276321 0.0 0 0 17.563220977783203 9.187076568603516 A0.16547344624996185 0.16547344624996185 0.0 0 0 17.51291847229004 9.237004280090332 A0.21565087139606476 0.21565087139606476 0.0 0 0 17.482786178588867 9.30598258972168 C17.47307586669922 9.345577239990234 17.469463348388672 9.39737319946289 17.47182846069336 9.461246490478516 C17.47419548034668 9.52511978149414 17.485153198242188 9.581024169921875 17.504451751708984 9.628961563110352 C17.52375030517578 9.676897048950195 17.554006576538086 9.700927734375 17.59534454345703 9.700927734375 A0.12189503759145737 0.12189503759145737 0.0 0 0 17.680757522583008 9.665193557739258 C17.70578384399414 9.641411781311035 17.723339080810547 9.609289169311523 17.733051300048828 9.568946838378906 C17.74102020263672 9.535578727722168 17.746374130249023 9.496109008789062 17.748615264892578 9.450538635253906 A0.5951566100120544 0.5951566100120544 0.0 0 0 17.742015838623047 9.32030200958252 C17.735416412353516 9.27896499633789 17.722095489501953 9.243602752685547 17.701923370361328 9.213845252990723 C17.681753158569336 9.184087753295898 17.654111862182617 9.169146537780762 17.619125366210938 9.169146537780762 M19.949325561523438 9.198780059814453 C19.95293617248535 9.183714866638184 19.95293617248535 9.172384262084961 19.9498233795166 9.164913177490234 A0.07669800519943237 0.07669800519943237 0.0 0 0 19.930150985717773 9.140634536743164 A0.12201955169439316 0.12201955169439316 0.0 0 1 19.900266647338867 9.113863945007324 C19.896160125732422 9.10714054107666 19.89516258239746 9.098176002502441 19.897777557373047 9.087095260620117 C19.912841796875 9.025213241577148 19.999876022338867 8.994335174560547 20.159496307373047 8.994335174560547 C20.309282302856445 8.994335174560547 20.37738800048828 9.023221969604492 20.363319396972656 9.081242561340332 C20.359210968017578 9.09792709350586 20.353857040405273 9.109007835388184 20.347009658813477 9.114611625671387 A0.38187137246131897 0.38187137246131897 0.0 0 1 20.303680419921875 9.140758514404297 C20.281766891479492 9.152586936950684 20.2679443359375 9.163792610168457 20.26234245300293 9.174126625061035 C20.248271942138672 9.199402809143066 20.230716705322266 9.251821517944336 20.21004867553711 9.331133842468262 L20.161861419677734 9.5297269821167 L20.159870147705078 9.538069725036621 C20.142810821533203 9.607918739318848 20.133350372314453 9.655855178833008 20.130985260009766 9.682003021240234 C20.128494262695312 9.708148956298828 20.132976531982422 9.724335670471191 20.144058227539062 9.730810165405273 C20.15912437438965 9.743509292602539 20.169832229614258 9.75322151184082 20.175683975219727 9.7599458694458 C20.181533813476562 9.766669273376465 20.183029174804688 9.77687931060791 20.17954444885254 9.790325164794922 C20.164976119995117 9.851460456848145 20.078815460205078 9.881964683532715 19.92205810546875 9.881964683532715 C19.84735107421875 9.881964683532715 19.794185638427734 9.874992370605469 19.762310028076172 9.86117172241211 C19.730436325073242 9.8472261428833 19.71786117553711 9.826433181762695 19.724584579467773 9.798667907714844 C19.729440689086914 9.777998924255371 19.742141723632812 9.76081657409668 19.762561798095703 9.746871948242188 C19.782978057861328 9.732926368713379 19.801406860351562 9.714624404907227 19.817468643188477 9.69158935546875 C19.833778381347656 9.66855525970459 19.85009002685547 9.624229431152344 19.865901947021484 9.558363914489746 C19.879226684570312 9.503704071044922 19.879474639892578 9.476312637329102 19.86665153503418 9.476312637329102 C19.856441497802734 9.476312637329102 19.833032608032227 9.485774993896484 19.79680061340332 9.5048246383667 C19.767166137695312 9.522380828857422 19.729690551757812 9.54653549194336 19.684741973876953 9.577413558959961 C19.639545440673828 9.608416557312012 19.615140914916992 9.630952835083008 19.611778259277344 9.645147323608398 C19.600322723388672 9.691963195800781 19.605926513671875 9.720476150512695 19.62784194946289 9.730810165405273 C19.651248931884766 9.74898910522461 19.66046142578125 9.76891040802002 19.655109405517578 9.790325164794922 C19.64801025390625 9.819709777832031 19.622236251831055 9.842246055603027 19.577537536621094 9.858183860778809 C19.532840728759766 9.87399673461914 19.471954345703125 9.881964683532715 19.395132064819336 9.881964683532715 C19.321420669555664 9.881964683532715 19.26651382446289 9.874618530273438 19.230281829833984 9.860051155090332 C19.194297790527344 9.845233917236328 19.179479598999023 9.824440956115723 19.186080932617188 9.797548294067383 A0.06026271730661392 0.06026271730661392 0.0 0 1 19.20064926147461 9.769034385681152 C19.207496643066406 9.761813163757324 19.21621322631836 9.755462646484375 19.22667121887207 9.749984741210938 L19.256053924560547 9.734420776367188 C19.2769718170166 9.72570514678955 19.29490089416504 9.703542709350586 19.309595108032227 9.667932510375977 C19.324161529541016 9.632198333740234 19.34296226501465 9.567578315734863 19.365497589111328 9.473945617675781 C19.371599197387695 9.448546409606934 19.379568099975586 9.414057731628418 19.389280319213867 9.370479583740234 L19.416297912597656 9.2490816116333 C19.426259994506836 9.20699691772461 19.428001403808594 9.180477142333984 19.421154022216797 9.169395446777344 C19.414306640625 9.15831470489502 19.402477264404297 9.148228645324707 19.38517189025879 9.139015197753906 C19.367862701416016 9.129800796508789 19.36163902282715 9.116230010986328 19.365995407104492 9.09792709350586 C19.375957489013672 9.056714057922363 19.41318702697754 9.029072761535645 19.477558135986328 9.015252113342285 A0.8772956728935242 0.8772956728935242 0.0 0 1 19.663326263427734 8.99445915222168 C19.726825714111328 8.99445915222168 19.773765563964844 9.001431465148926 19.804147720336914 9.015252113342285 C19.834278106689453 9.029072761535645 19.84623146057129 9.049617767333984 19.839630126953125 9.07651138305664 A0.06972545385360718 0.06972545385360718 0.0 0 1 19.819459915161133 9.111623764038086 A0.1733175665140152 0.1733175665140152 0.0 0 1 19.773019790649414 9.140758514404297 A0.10558426380157471 0.10558426380157471 0.0 0 0 19.729690551757812 9.187200546264648 A0.5076262354850769 0.5076262354850769 0.0 0 0 19.700056076049805 9.279960632324219 C19.685489654541016 9.34022331237793 19.68573760986328 9.370479583740234 19.700803756713867 9.370479583740234 C19.727075576782227 9.370479583740234 19.773765563964844 9.347818374633789 19.84112548828125 9.302620887756348 C19.877607345581055 9.279586791992188 19.903629302978516 9.260786056518555 19.919443130493164 9.24609375 C19.93525505065918 9.231401443481445 19.945091247558594 9.21546459197998 19.949325561523438 9.198780059814453 L19.949325561523438 9.198780059814453 M19.921558380126953 8.826496124267578 C19.9500732421875 8.826496124267578 19.97509765625 8.818153381347656 19.996017456054688 8.801593780517578 C20.017183303833008 8.7850341796875 20.030256271362305 8.768723487854004 20.035858154296875 8.752785682678223 C20.04407501220703 8.728257179260254 20.066986083984375 8.715930938720703 20.10421371459961 8.715930938720703 C20.137584686279297 8.715930938720703 20.14679718017578 8.746809959411621 20.131732940673828 8.808691024780273 C20.122268676757812 8.848409652709961 20.095251083374023 8.882650375366211 20.051048278808594 8.911535263061523 C20.006847381591797 8.940546989440918 19.954553604125977 8.954989433288574 19.894166946411133 8.954989433288574 C19.833778381347656 8.954989433288574 19.788833618164062 8.94067096710205 19.75870132446289 8.912158966064453 A0.10147543996572495 0.10147543996572495 0.0 0 1 19.72856903076172 8.80856704711914 C19.737285614013672 8.772085189819336 19.746746063232422 8.747556686401367 19.757081985473633 8.734856605529785 A0.04868331179022789 0.04868331179022789 0.0 0 1 19.79742431640625 8.71580696105957 C19.83626937866211 8.71580696105957 19.852828979492188 8.728133201599121 19.846729278564453 8.752660751342773 A0.08030878007411957 0.08030878007411957 0.0 0 0 19.863786697387695 8.802589416503906 C19.8753662109375 8.818527221679688 19.894540786743164 8.826496124267578 19.921558380126953 8.826496124267578 L19.921558380126953 8.826496124267578" fill="black" fill-opacity="1.0" filling="0"/></svg>