<?xml version="1.0" encoding="iso-8859-1"?><svg height="200px" viewBox="0.0 0.0 24.0 24.0" width="200px" xmlns="http://www.w3.org/2000/svg"><path animation_id="0" d="M0.0 0.0 L24.0 0.0 L24.0 24.0 L0.0 24.0 L0.0 0.0" fill="black" fill-opacity="1.0" filling="0"/>
<path animation_id="1" d="M11.359272956848145 17.71537208557129 C12.246529579162598 17.123201370239258 13.502459526062012 16.166719436645508 14.26533031463623 15.558612823486328 C14.216896057128906 15.95032024383545 14.193861961364746 16.89273452758789 14.322853088378906 17.443567276000977 C14.442756652832031 17.646392822265625 14.723899841308594 17.653488159179688 14.970429420471191 17.597957611083984 C16.75179100036621 17.178483963012695 17.696693420410156 16.821516036987305 19.143997192382812 15.961776733398438 C19.468841552734375 15.814107894897461 20.10483741760254 15.2864351272583 19.43435287475586 15.180477142333984 C19.641660690307617 14.811803817749023 19.899768829345703 14.369420051574707 19.975845336914062 13.740397453308105 C18.72688865661621 13.622735977172852 17.21048355102539 13.475316047668457 16.562908172607422 13.231152534484863 C17.3834285736084 12.170827865600586 18.22673225402832 11.115483283996582 19.019487380981445 9.99551773071289 C19.063312530517578 10.511735916137695 19.59322738647461 10.4610595703125 19.67391014099121 9.901140213012695 C19.747743606567383 9.511672973632812 19.650875091552734 7.801780700683594 19.222312927246094 7.483658313751221 C18.11392593383789 7.239370346069336 15.788582801818848 10.295212745666504 14.87605094909668 12.802465438842773 C14.449729919433594 12.654796600341797 13.66855525970459 12.39681339263916 13.285937309265137 12.21253776550293 C14.007222175598145 11.18246841430664 14.733114242553711 10.198468208312988 15.274730682373047 9.04849624633789 C15.415302276611328 9.223557472229004 15.530598640441895 9.396501541137695 15.793190002441406 9.163667678833008 C15.963768005371094 8.953869819641113 16.07433319091797 8.758014678955078 16.106704711914062 8.301812171936035 C16.14816665649414 7.483658313751221 16.136587142944336 7.299259185791016 16.07433319091797 6.796987056732178 C16.06511688232422 6.230093955993652 15.85544490814209 5.965137481689453 15.203262329101562 6.398306846618652 C13.945091247558594 7.315445899963379 13.196041107177734 8.599141120910645 12.384860038757324 9.921807289123535 C12.082923889160156 10.576355934143066 11.843242645263672 11.097055435180664 11.589740753173828 11.698686599731445 C11.089709281921387 11.514411926269531 8.905061721801758 11.362260818481445 8.967316627502441 11.369233131408691 C9.14710807800293 10.903691291809082 9.257673263549805 10.558052062988281 9.416671752929688 10.228475570678711 C10.412251472473145 9.35964584350586 10.776318550109863 8.889622688293457 11.532217025756836 7.638175010681152 C11.834153175354004 7.018240928649902 12.12214469909668 6.5988922119140625 12.12214469909668 5.919068813323975 C12.036855697631836 5.70242166519165 11.894042015075684 5.7530975341796875 11.682002067565918 5.826931476593018 C10.983752250671387 6.251011848449707 10.409886360168457 7.108261585235596 9.967378616333008 7.7374091148376465 L9.299010276794434 8.829732894897461 C9.00865364074707 9.357405662536621 8.782793045043945 9.880471229553223 8.515594482421875 10.410633087158203 C7.840378761291504 10.546598434448242 7.863412857055664 10.560419082641602 7.3586506843566895 10.684928894042969 C7.8264336585998535 9.124821662902832 8.649194717407227 7.845732688903809 9.418913841247559 6.504638195037842 C9.518022537231445 6.320239543914795 9.672414779663086 6.175060749053955 9.7852201461792 6.004482269287109 C9.7852201461792 5.997509956359863 9.716117858886719 5.96762752532959 9.695449829101562 5.953807353973389 C9.370479583740234 5.963020324707031 9.273735046386719 6.124260902404785 8.951005935668945 6.294838905334473 C8.172073364257812 6.5990166664123535 7.692709922790527 6.700367450714111 6.768723011016846 6.836456775665283 C6.024404048919678 6.933200359344482 5.10253381729126 7.262778282165527 4.461931228637695 7.689099311828613 C4.270684242248535 7.815974712371826 3.952686309814453 8.000248908996582 4.180788040161133 8.274419784545898 C4.3697943687438965 8.329702377319336 4.588682174682617 8.341280937194824 4.807694911956787 8.336674690246582 C5.5751729011535645 8.309033393859863 6.492311954498291 8.131607055664062 7.169769287109375 7.75820255279541 C7.384174823760986 7.661458492279053 7.856564521789551 7.41717004776001 7.621490955352783 7.1520891189575195 C6.568387508392334 7.103654861450195 6.019921779632568 7.288053512573242 5.187947750091553 7.5944719314575195 L5.224802494049072 7.693581581115723 C5.969121932983398 7.4101972579956055 6.466911792755127 7.340970039367676 7.218203544616699 7.315694808959961 C7.255058288574219 7.315694808959961 7.310340881347656 7.405590534210205 7.289672374725342 7.447052478790283 C6.568387508392334 7.926414966583252 5.7157440185546875 8.05777359008789 5.017369270324707 8.133848190307617 C4.86534309387207 8.170702934265137 4.376766681671143 8.172944068908691 4.358339309692383 7.974849700927734 C4.512731075286865 7.785843372344971 4.828363418579102 7.682126998901367 5.054224014282227 7.539313793182373 C6.7388410568237305 6.725767612457275 7.851833820343018 7.043889999389648 8.994956970214844 6.5322794914245605 C9.015625953674316 6.5322794914245605 9.03181266784668 6.5322794914245605 9.038784980773926 6.553072452545166 C8.008590698242188 8.022785186767578 7.096059322357178 9.186577796936035 6.464545726776123 11.016372680664062 C5.593351364135742 11.373591423034668 4.607234001159668 11.604059219360352 3.821329116821289 12.205565452575684 C3.8097496032714844 12.226234436035156 3.689846992492676 12.311647415161133 3.777501106262207 12.33903980255127 L6.213409900665283 11.735292434692383 C6.079686164855957 12.285999298095703 5.542799949645996 14.272551536560059 5.217830181121826 15.540060997009277 C5.054224014282227 16.097740173339844 4.8698248863220215 16.035486221313477 4.701612949371338 15.814107894897461 C4.358214378356934 15.30025577545166 4.29595947265625 15.17823600769043 4.153146743774414 14.608853340148926 C4.72464656829834 14.761128425598145 4.699371337890625 13.98891830444336 4.466538429260254 13.560481071472168 C4.395069599151611 13.461246490478516 4.279898166656494 13.40359878540039 4.130113124847412 13.424266815185547 C3.6737852096557617 13.719230651855469 3.9665069580078125 14.578845977783203 4.109319686889648 15.13652515411377 C4.2845048904418945 15.532963752746582 4.706095218658447 16.215028762817383 4.625537395477295 16.088401794433594 C4.89285945892334 16.36493682861328 5.065803527832031 16.268070220947266 5.259291648864746 16.012325286865234 C5.934507846832275 15.016996383666992 6.508373260498047 12.889871597290039 6.992342948913574 11.59932804107666 C7.473946571350098 11.564839363098145 7.851833820343018 11.562472343444824 8.132976531982422 11.601694107055664 C7.692834377288818 12.945154190063477 7.411691665649414 14.173442840576172 7.331133842468262 15.540060997009277 C7.331133842468262 16.417978286743164 7.342588901519775 16.526426315307617 7.457884788513184 17.146238327026367 C7.529353141784668 17.21770477294922 7.635311126708984 17.272987365722656 7.7344207763671875 17.245223999023438 C8.856752395629883 16.630020141601562 9.711759567260742 15.95032024383545 10.730374336242676 15.102035522460938 C10.638236999511719 15.99863052368164 10.58756160736084 16.832721710205078 10.702733039855957 17.44344139099121 C10.799352645874023 17.900020599365234 11.015999794006348 17.874494552612305 11.359272956848145 17.71537208557129 L11.359272956848145 17.71537208557129 M11.062068939208984 17.577289581298828 C11.345577239990234 17.579530715942383 13.265144348144531 16.14617347717285 14.288365364074707 15.256551742553711 C14.357467651367188 14.5951566696167 14.622549057006836 13.70578384399414 14.790761947631836 13.02122974395752 C14.834589004516602 12.977401733398438 13.447176933288574 12.507377624511719 13.13839340209961 12.429059982299805 C12.566768646240234 13.253937721252441 11.993027687072754 13.867023468017578 11.363879203796387 14.588308334350586 C11.244101524353027 15.528482437133789 10.992840766906738 16.468904495239258 10.969805717468262 17.505821228027344 C10.97677993774414 17.54030990600586 11.011393547058105 17.570194244384766 11.062068939208984 17.577289581298828 M17.40633773803711 16.685550689697266 C17.878726959228516 16.514848709106445 18.99408531188965 15.924921035766602 19.408950805664062 15.558612823486328 C19.482662200927734 15.44792366027832 19.482662200927734 15.339475631713867 19.26377296447754 15.362634658813477 C19.019487380981445 15.75683307647705 17.968748092651367 16.293842315673828 17.17823600769043 16.625537872314453 C16.832595825195312 16.715559005737305 16.244911193847656 16.906679153442383 16.07196807861328 16.673973083496094 C16.00062370300293 16.50127601623535 16.23333168029785 16.256864547729492 16.514474868774414 16.088651657104492 C17.13677406311035 15.607172012329102 18.48259925842285 15.277595520019531 19.14162826538086 15.153085708618164 C19.3582763671875 14.917886734008789 19.56807518005371 14.43179988861084 19.660213470458984 13.931519508361816 C18.588682174682617 13.79555606842041 17.43858528137207 13.737907409667969 16.387847900390625 13.438337326049805 C15.963892936706543 13.904003143310547 15.207868576049805 14.712818145751953 14.850650787353516 15.136774063110352 C14.751541137695312 15.825936317443848 14.541991233825684 16.49418067932129 14.541991233825684 17.273113250732422 C14.523438453674316 17.616384506225586 15.491252899169922 17.26165771484375 17.40633773803711 16.685550689697266 L17.40633773803711 16.685550689697266 M7.789703369140625 16.991968154907227 C9.23227310180664 16.072463989257812 9.709270477294922 15.729066848754883 10.74643611907959 14.761253356933594 A14.20058536529541 14.20058536529541 0.0 0 1 11.516155242919922 11.931270599365234 C10.739587783813477 11.68237590789795 9.50656795501709 11.66407299041748 8.88215160369873 11.613273620605469 C8.052543640136719 13.72408676147461 7.766793727874756 14.860238075256348 7.656104564666748 16.918258666992188 L7.789703369140625 16.991968154907227 L7.789703369140625 16.991968154907227 M17.125194549560547 16.427318572998047 C17.76119041442871 16.134719848632812 18.37651824951172 15.941230773925781 18.957231521606445 15.385793685913086 C18.34202766418457 15.44804859161377 17.08833885192871 15.878976821899414 16.636619567871094 16.33057403564453 C16.650564193725586 16.503393173217773 17.08124351501465 16.427318572998047 17.125194549560547 16.427318572998047 M15.378323554992676 13.180228233337402 C15.249330520629883 13.590487480163574 15.060325622558594 14.247276306152344 14.963581085205078 14.6758394241333 C15.300006866455078 14.417854309082031 15.781610488891602 13.807134628295898 16.185022354125977 13.389902114868164 C15.85544490814209 13.34146785736084 15.696321487426758 13.2493314743042 15.378323554992676 13.180228233337402 L15.378323554992676 13.180228233337402 M12.898711204528809 12.359832763671875 C12.617692947387695 12.201083183288574 12.371039390563965 12.168710708618164 12.12214469909668 12.113304138183594 C11.956296920776367 12.643465995788574 11.62671947479248 13.512295722961426 11.493121147155762 14.040092468261719 C12.076075553894043 13.43372917175293 12.518458366394043 12.899209022521973 12.898711204528809 12.359832763671875 L12.898711204528809 12.359832763671875 M16.355350494384766 13.20562744140625 C16.599763870239258 12.899209022521973 18.309656143188477 10.73074722290039 19.005542755126953 9.652120590209961 C19.164539337158203 9.271867752075195 19.30050277709961 9.064434051513672 19.454896926879883 9.301874160766602 C19.507936477661133 8.965448379516602 19.413434982299805 8.541492462158203 19.37657928466797 8.223370552062988 C19.31669044494629 7.794683456420898 19.1529598236084 7.5089335441589355 18.523813247680664 7.93525505065918 C16.880783081054688 9.472328186035156 16.274669647216797 11.039407730102539 15.46348762512207 12.947519302368164 C15.758576393127441 13.058208465576172 16.0374755859375 13.094938278198242 16.355350494384766 13.20562744140625 L16.355350494384766 13.20562744140625 M13.069290161132812 12.104214668273926 C13.410322189331055 11.84598159790039 15.366868019104004 8.384611129760742 15.224056243896484 8.688787460327148 C15.475316047668457 8.048185348510742 15.671045303344727 7.926041603088379 15.880720138549805 8.20942497253418 C15.940608024597168 7.764676570892334 15.952188491821289 7.386789798736572 15.84162425994873 6.870572090148926 C15.72408676147461 6.199962615966797 15.263151168823242 6.718421459197998 14.97752571105957 7.004295825958252 C14.45670223236084 7.695573806762695 12.59241771697998 10.534770011901855 12.221378326416016 11.859926223754883 L13.069290161132812 12.104214668273926 L13.069290161132812 12.104214668273926 M4.588682174682617 11.95654582977295 C5.150968074798584 11.81373405456543 5.676399230957031 11.61314868927002 6.275540351867676 11.527983665466309 L6.409264087677002 11.207620620727539 C5.466724872589111 11.523377418518066 5.151092529296875 11.650128364562988 4.588682174682617 11.95654582977295 M8.218265533447266 11.332130432128906 L8.416484832763672 10.790513038635254 C8.285127639770508 10.778932571411133 7.347195625305176 10.944904327392578 7.1974101066589355 11.08547592163086 L7.118968963623047 11.359770774841309 C7.43709135055542 11.332130432128906 7.8265581130981445 11.306729316711426 8.218265533447266 11.332130432128906 L8.218265533447266 11.332130432128906 M11.578285217285156 7.165535926818848 C11.852581024169922 6.674718856811523 12.078317642211914 5.987922668457031 11.801780700683594 6.031750202178955 C11.451534271240234 6.266824722290039 9.942102432250977 8.746561050415039 9.587250709533691 9.762683868408203 C10.1495361328125 9.495362281799316 11.39388656616211 7.5689473152160645 11.578285217285156 7.165535926818848 L11.578285217285156 7.165535926818848" fill="black" fill-opacity="1.0" filling="0"/>
<path animation_id="2" d="M12.01058292388916 2.8190250396728516 C17.069040298461914 2.8190250396728516 21.194795608520508 6.944780349731445 21.194795608520508 12.003361701965332 C21.194795608520508 17.061819076538086 17.069040298461914 21.187450408935547 12.01058292388916 21.187450408935547 C6.9521260261535645 21.187450408935547 2.8263721466064453 17.061695098876953 2.8263721466064453 12.0032377243042 C2.8263721466064453 6.944780349731445 6.9521260261535645 2.8190250396728516 12.01058292388916 2.8190250396728516 L12.01058292388916 2.8190250396728516" fill="none" filling="0" stroke="black" stroke-opacity="1.0" stroke-width=".3"/>
<path animation_id="3" d="M12.0 0.3528604507446289 C18.414867401123047 0.3528604507446289 23.647014617919922 5.5848846435546875 23.647014617919922 11.999876022338867 C23.647014617919922 18.414867401123047 18.414989471435547 23.647014617919922 12.0 23.647014617919922 C5.5850090980529785 23.647014617919922 0.3529853820800781 18.414989471435547 0.3529853820800781 11.999876022338867 C0.3528604507446289 5.5850090980529785 5.5850090980529785 0.3528604507446289 12.0 0.3528604507446289" fill="none" filling="0" stroke="black" stroke-opacity="1.0" stroke-width=".3"/>
<path animation_id="4" d="M2.3831167221069336 12.850028038024902 L1.0783796310424805 12.411628723144531 L1.068293571472168 11.8410005569458 L2.356844902038574 11.359148979187012 L2.3664331436157227 11.890680313110352 L2.178049087524414 11.945962905883789 L2.183900833129883 12.269688606262207 L2.3737783432006836 12.318371772766113 L2.3831167221069336 12.850028038024902 M1.8586816787719727 12.20369815826416 L1.8555688858032227 12.023656845092773 L1.5268630981445312 12.118409156799316 L1.8586816787719727 12.20369815826416 M2.604619026184082 10.020793914794922 C2.5771026611328125 10.130361557006836 2.5357656478881836 10.226483345031738 2.4804840087890625 10.308908462524414 A0.675714373588562 0.675714373588562 0.0 0 1 2.282139778137207 10.506256103515625 A0.6252878904342651 0.6252878904342651 0.0 0 1 2.031998634338379 10.599763870239258 A0.7082114219665527 0.7082114219665527 0.0 0 1 1.755213737487793 10.584324836730957 A0.7100790739059448 0.7100790739059448 0.0 0 1 1.5032062530517578 10.468156814575195 A0.6307663917541504 0.6307663917541504 0.0 0 1 1.3267755508422852 10.26856803894043 A0.6879163384437561 0.6879163384437561 0.0 0 1 1.2445993423461914 10.002366065979004 C1.2341413497924805 9.903754234313965 1.242732048034668 9.799166679382324 1.2704973220825195 9.687978744506836 C1.2983875274658203 9.576791763305664 1.3397254943847656 9.480172157287598 1.3950071334838867 9.398493766784668 A0.6897839903831482 0.6897839903831482 0.0 0 1 1.5917329788208008 9.20301342010498 A0.6240428686141968 0.6240428686141968 0.0 0 1 1.8410015106201172 9.110004425048828 A0.7084604501724243 0.7084604501724243 0.0 0 1 2.1189069747924805 9.125692367553711 A0.7050986886024475 0.7050986886024475 0.0 0 1 2.3709144592285156 9.242233276367188 A0.6287742257118225 0.6287742257118225 0.0 0 1 2.5478429794311523 9.44182300567627 A0.6798232197761536 0.6798232197761536 0.0 0 1 2.630019187927246 9.708148956298828 C2.6404781341552734 9.806512832641602 2.632136344909668 9.910602569580078 2.604619026184082 10.020793914794922 L2.604619026184082 10.020793914794922 M2.2015810012817383 9.920064926147461 C2.219510078430176 9.848471641540527 2.20992374420166 9.783602714538574 2.1734418869018555 9.725207328796387 C2.136712074279785 9.666936874389648 2.0783166885375977 9.627965927124023 1.9986305236816406 9.60816764831543 C1.9185714721679688 9.588122367858887 1.8490943908691406 9.595219612121582 1.7898273468017578 9.629209518432617 C1.7301883697509766 9.663201332092285 1.69158935546875 9.716367721557617 1.6736602783203125 9.788581848144531 A0.25898024439811707 0.25898024439811707 0.0 0 0 1.6742820739746094 9.925168991088867 C1.6869831085205078 9.968374252319336 1.710515022277832 10.005478858947754 1.7450037002563477 10.036356925964355 C1.7794933319091797 10.067484855651855 1.8231964111328125 10.089397430419922 1.8753662109375 10.102471351623535 C1.9275360107421875 10.115545272827148 1.9760942459106445 10.116416931152344 2.0214157104492188 10.10521125793457 C2.066737174987793 10.09400463104248 2.105086326599121 10.072713851928711 2.136587142944336 10.0403413772583 C2.167963981628418 10.008092880249023 2.1895036697387695 9.968374252319336 2.2015810012817383 9.920064926147461 L2.2015810012817383 9.920064926147461 M3.560978889465332 7.309593677520752 L2.473385810852051 6.603250026702881 L2.756023406982422 6.168337345123291 L3.1304235458374023 6.411380290985107 L3.271493911743164 6.193986415863037 L2.897216796875 5.9508185386657715 L3.1794815063476562 5.515657424926758 L4.267073631286621 6.222001075744629 L3.984684944152832 6.657162666320801 L3.58687686920166 6.398680210113525 L3.445683479309082 6.616199016571045 L3.843616485595703 6.874307155609131 L3.560978889465332 7.309593677520752 L3.560978889465332 7.309593677520752 M3.8995208740234375 4.6374897956848145 L4.260349750518799 4.301064491271973 L4.701114654541016 4.773952484130859 L4.525680065155029 4.053788185119629 L4.867210388183594 3.735043525695801 L5.751852035522461 4.683558940887451 L5.3910231590271 5.019859790802002 L4.966693878173828 4.5646514892578125 L5.125443935394287 5.26763391494751 L4.784162521362305 5.586005210876465 L3.8995208740234375 4.6374897956848145 L3.8995208740234375 4.6374897956848145 M7.41741943359375 3.5416793823242188 L7.008778095245361 3.768038749694824 L6.769719123840332 3.3368606567382812 L6.770590782165527 3.8998937606811523 L6.248895168304443 4.1893792152404785 L6.330448627471924 3.372969627380371 L5.649380683898926 3.038784980773926 L6.159621715545654 2.755899429321289 L6.60910177230835 3.0467538833618164 L6.380128383636475 2.633878707885742 L6.788769245147705 2.4073963165283203 L7.01774263381958 2.820394515991211 L7.009027004241943 2.285127639770508 L7.519392490386963 2.0022411346435547 L7.4418230056762695 2.757143020629883 L8.177177429199219 3.1203384399414062 L7.655481815338135 3.4094505310058594 L7.178360462188721 3.1105031967163086 L7.41741943359375 3.5416793823242188 L7.41741943359375 3.5416793823242188 M8.81603717803955 2.873933792114258 L8.480234146118164 1.6211166381835938 L9.357529640197754 1.3860416412353516 L9.454895973205566 1.748988151550293 L9.078876495361328 1.849966049194336 L9.107390403747559 1.9557991027832031 L9.445558547973633 1.8650312423706055 L9.526116371154785 2.165597915649414 L9.187947273254395 2.256490707397461 L9.220071792602539 2.3768911361694336 L9.595966339111328 2.2759132385253906 L9.69333267211914 2.638859748840332 L8.81603717803955 2.873933792114258 M10.44549560546875 2.4822263717651367 L10.287368774414062 1.195169448852539 L11.188321113586426 1.0844802856445312 L11.234389305114746 1.4577598571777344 L10.848160743713379 1.5049495697021484 L10.960344314575195 2.418850898742676 L10.44549560546875 2.4822263717651367 M12.765734672546387 2.4435033798217773 C12.653054237365723 2.4357833862304688 12.551329612731934 2.411754608154297 12.460561752319336 2.3715381622314453 A0.6768349409103394 0.6768349409103394 0.0 0 1 12.231712341308594 2.210296630859375 A0.6287742257118225 0.6287742257118225 0.0 0 1 12.096121788024902 1.980576515197754 A0.7103281021118164 0.7103281021118164 0.0 0 1 12.063375473022461 1.7054100036621094 A0.7180477380752563 0.7180477380752563 0.0 0 1 12.133973121643066 1.4373407363891602 A0.6300193071365356 0.6300193071365356 0.0 0 1 12.299944877624512 1.2289113998413086 A0.6885389089584351 0.6885389089584351 0.0 0 1 12.54759407043457 1.1016626358032227 C12.642719268798828 1.074519157409668 12.747307777404785 1.064558982849121 12.861607551574707 1.0726509094238281 C12.975908279418945 1.080744743347168 13.07775592803955 1.1047754287719727 13.167778015136719 1.1452407836914062 A0.6813173294067383 0.6813173294067383 0.0 0 1 13.39438533782959 1.3049869537353516 A0.6224242448806763 0.6224242448806763 0.0 0 1 13.529104232788086 1.5344581604003906 A0.7084604501724243 0.7084604501724243 0.0 0 1 13.561849594116211 1.8102474212646484 A0.7097055315971375 0.7097055315971375 0.0 0 1 13.491128921508789 2.078939437866211 C13.450787544250488 2.1607418060302734 13.395380973815918 2.230343818664551 13.325282096862793 2.2877426147460938 C13.255183219909668 2.3451414108276367 13.172632217407227 2.3874740600585938 13.077881813049316 2.4149913787841797 C12.982880592346191 2.442009925842285 12.878913879394531 2.451597213745117 12.765734672546387 2.4435033798217773 L12.765734672546387 2.4435033798217773 M12.794870376586914 2.0293846130371094 C12.868454933166504 2.034613609313965 12.930834770202637 2.013944625854492 12.981760025024414 1.9678764343261719 C13.032683372497559 1.9215583801269531 13.061197280883789 1.8576850891113281 13.067048072814941 1.7755088806152344 C13.072650909423828 1.6933326721191406 13.053851127624512 1.6259727478027344 13.00989818572998 1.573430061340332 C12.965947151184082 1.521010398864746 12.90705394744873 1.4920005798339844 12.83297061920166 1.4866466522216797 A0.25935378670692444 0.25935378670692444 0.0 0 0 12.69849967956543 1.5114240646362305 A0.2358214557170868 0.2358214557170868 0.0 0 0 12.601258277893066 1.6003236770629883 C12.57697868347168 1.6395444869995117 12.562660217285156 1.6861114501953125 12.558923721313477 1.739898681640625 C12.555313110351562 1.793313980102539 12.562660217285156 1.8414993286132812 12.581585884094238 1.884455680847168 C12.600385665893555 1.927037239074707 12.628150939941406 1.9610280990600586 12.665255546569824 1.9863042831420898 C12.702235221862793 2.0118284225463867 12.745315551757812 2.026021957397461 12.794870376586914 2.0293846130371094 L12.794870376586914 2.0293846130371094 M14.253750801086426 2.6378631591796875 L14.58942985534668 1.3850469589233398 L15.242731094360352 1.5598583221435547 C15.35890007019043 1.5909852981567383 15.449045181274414 1.637054443359375 15.513042449951172 1.697566032409668 C15.577040672302246 1.758077621459961 15.617133140563965 1.8254375457763672 15.633193969726562 1.8998947143554688 A0.4726389944553375 0.4726389944553375 0.0 0 1 15.62671947479248 2.1250076293945312 A0.4748801589012146 0.4748801589012146 0.0 0 1 15.51889419555664 2.3248462677001953 C15.46796989440918 2.381000518798828 15.399365425109863 2.419722557067871 15.313577651977539 2.4400177001953125 C15.22791576385498 2.4606857299804688 15.126937866210938 2.4554567337036133 15.011143684387207 2.4243297576904297 L14.858867645263672 2.383864402770996 L14.755026817321777 2.772085189819336 L14.253750801086426 2.6378631591796875 M15.003299713134766 1.8449859619140625 L14.946273803710938 2.058394432067871 L15.001805305480957 2.073211669921875 C15.081491470336914 2.0945024490356445 15.130922317504883 2.0692272186279297 15.150345802307129 1.9975099563598633 C15.169022560119629 1.9271612167358398 15.138517379760742 1.8810930252075195 15.058955192565918 1.85980224609375 L15.003299713134766 1.8449859619140625 M16.680694580078125 3.6280899047851562 C16.58183479309082 3.5731801986694336 16.499656677246094 3.5085601806640625 16.43441390991211 3.4336061477661133 A0.6818153262138367 0.6818153262138367 0.0 0 1 16.295211791992188 3.1910600662231445 A0.6310153603553772 0.6310153603553772 0.0 0 1 16.269189834594727 2.925480842590332 A0.7118222117424011 0.7118222117424011 0.0 0 1 16.355974197387695 2.662017822265625 A0.7134408354759216 0.7134408354759216 0.0 0 1 16.533275604248047 2.448857307434082 A0.6250389218330383 0.6250389218330383 0.0 0 1 16.771711349487305 2.330324172973633 A0.6880408525466919 0.6880408525466919 0.0 0 1 17.049991607666016 2.319491386413574 C17.147857666015625 2.3349313735961914 17.246715545654297 2.3704166412353516 17.34682273864746 2.426072120666504 C17.447301864624023 2.4817285537719727 17.529726028442383 2.546473503112793 17.594223022460938 2.6213035583496094 A0.6869202852249146 0.6869202852249146 0.0 0 1 17.731931686401367 2.8619813919067383 C17.75944709777832 2.9477672576904297 17.76766586303711 3.0357961654663086 17.757205963134766 3.1265640258789062 A0.7206624150276184 0.7206624150276184 0.0 0 1 17.67017364501953 3.3906497955322266 A0.7016124129295349 0.7016124129295349 0.0 0 1 17.49212646484375 3.6040592193603516 C17.421154022216797 3.6612091064453125 17.341468811035156 3.700678825378418 17.25368881225586 3.723339080810547 C17.166034698486328 3.745875358581543 17.07339859008789 3.749237060546875 16.975784301757812 3.733798027038574 C16.8781681060791 3.7183589935302734 16.779804229736328 3.6831226348876953 16.680694580078125 3.6280899047851562 L16.680694580078125 3.6280899047851562 M16.88202667236328 3.264894485473633 C16.94664764404297 3.300753593444824 17.01176643371582 3.3084726333618164 17.07750701904297 3.288053512573242 C17.14324951171875 3.2676334381103516 17.196041107177734 3.221689224243164 17.235883712768555 3.149724006652832 C17.275726318359375 3.077756881713867 17.286808013916016 3.0085296630859375 17.26962661743164 2.9424142837524414 C17.25194549560547 2.8762998580932617 17.210609436035156 2.825375556945801 17.14573860168457 2.789142608642578 A0.2583577334880829 0.2583577334880829 0.0 0 0 17.01350975036621 2.7545289993286133 C16.96881103515625 2.755525588989258 16.926727294921875 2.768723487854004 16.887754440307617 2.794123649597168 C16.848783493041992 2.8195228576660156 16.816410064697266 2.8558807373046875 16.79014015197754 2.902820587158203 A0.30430182814598083 0.30430182814598083 0.0 0 0 16.749797821044922 3.043018341064453 C16.748802185058594 3.0899581909179688 16.759634017944336 3.1325416564941406 16.782543182373047 3.1708898544311523 C16.805828094482422 3.2096118927001953 16.838699340820312 3.2407398223876953 16.88202667236328 3.264894485473633 L16.88202667236328 3.264894485473633 M18.88850212097168 3.5227537155151367 L19.76355743408203 4.256863594055176 L19.171388626098633 4.96233606338501 L19.290668487548828 5.062441825866699 L18.88265037536621 5.548901557922363 L18.54473114013672 5.265392780303955 L18.711200714111328 5.066799640655518 L18.19448471069336 4.633131980895996 L18.02801513671875 4.831725120544434 L17.690095901489258 4.548216342926025 L18.098114013671875 4.0617570877075195 C18.160120010375977 4.107825756072998 18.221004486083984 4.1253814697265625 18.2803955078125 4.113926410675049 A0.3262155055999756 0.3262155055999756 0.0 0 0 18.435409545898438 4.041088581085205 C18.4793643951416 4.003361701965332 18.522817611694336 3.958911895751953 18.566022872924805 3.907613754272461 L18.88850212097168 3.5227537155151367 L18.88850212097168 3.5227537155151367 M19.005416870117188 4.11118745803833 L18.887006759643555 4.252007961273193 C18.82276153564453 4.3285813331604 18.765113830566406 4.381497859954834 18.713815689086914 4.410134792327881 C18.662517547607422 4.439146041870117 18.612462997436523 4.453091144561768 18.563655853271484 4.452095031738281 L18.77395248413086 4.628774166107178 L19.124448776245117 4.21116828918457 L19.005416870117188 4.11118745803833 L19.005416870117188 4.11118745803833 M20.496047973632812 6.455581188201904 L20.12812042236328 6.722779273986816 C20.025026321411133 6.671107292175293 19.935007095336914 6.5930399894714355 19.85917854309082 6.487954139709473 C19.771400451660156 6.367552757263184 19.720474243164062 6.244910717010498 19.706031799316406 6.120400905609131 C19.69121551513672 5.995891094207764 19.709644317626953 5.879848003387451 19.760942459106445 5.7720232009887695 A0.7097055315971375 0.7097055315971375 0.0 0 1 19.99041175842285 5.4993462562561035 C20.074831008911133 5.438211917877197 20.162860870361328 5.397746562957764 20.254497528076172 5.378198623657227 A0.6411007046699524 0.6411007046699524 0.0 0 1 20.523189544677734 5.376953601837158 A0.6997447609901428 0.6997447609901428 0.0 0 1 20.76909828186035 5.482039451599121 A0.7875241041183472 0.7875241041183472 0.0 0 1 20.966819763183594 5.6737847328186035 C20.98785972595215 5.702795028686523 21.00790786743164 5.735541343688965 21.026958465576172 5.772644996643066 C21.046131134033203 5.809749126434326 21.062191009521484 5.850214958190918 21.075515747070312 5.894415855407715 C21.088712692260742 5.938243389129639 21.095935821533203 5.979954242706299 21.0965576171875 6.019548416137695 L20.72900390625 6.286372184753418 A0.3623233735561371 0.3623233735561371 0.0 0 0 20.734233856201172 6.119903087615967 A0.3722841441631317 0.3722841441631317 0.0 0 0 20.671232223510742 5.973479747772217 C20.614704132080078 5.895661354064941 20.550085067749023 5.853950023651123 20.477493286132812 5.848720550537109 C20.4049072265625 5.843118190765381 20.336673736572266 5.863911151885986 20.27305030822754 5.910228252410889 C20.210920333862305 5.955301284790039 20.175060272216797 6.012451171875 20.166095733642578 6.081429481506348 C20.156883239746094 6.150656700134277 20.178298950195312 6.2207560539245605 20.22984504699707 6.291975498199463 C20.29247283935547 6.377762794494629 20.381000518798828 6.432422161102295 20.496047973632812 6.455581188201904 L20.496047973632812 6.455581188201904 M20.494304656982422 7.383427619934082 L21.669551849365234 6.835460186004639 L21.888813018798828 7.305484771728516 L21.465978622436523 7.502956867218018 L22.010208129882812 7.5659589767456055 L22.25051498413086 8.081180572509766 L21.50669288635254 7.94148063659668 L21.080869674682617 8.641100883483887 L20.8287353515625 8.10023021697998 L21.160430908203125 7.6452717781066895 L20.713565826416016 7.853452205657959 L20.494304656982422 7.383427619934082 M22.524185180664062 8.986116409301758 L22.64346694946289 9.464608192443848 L22.01581382751465 9.62111759185791 L22.731121063232422 9.81672191619873 L22.844301223754883 10.270061492919922 L21.58563232421875 10.58395004272461 L21.466350555419922 10.105460166931152 L22.07022476196289 9.954803466796875 L21.37832260131836 9.753097534179688 L21.265640258789062 9.299881935119629 L22.524185180664062 8.986116409301758 L22.524185180664062 8.986116409301758 M22.962711334228516 11.420034408569336 L22.954242706298828 11.912967681884766 L22.307788848876953 11.90151309967041 L22.947893142700195 12.275665283203125 L22.939800262451172 12.742576599121094 L21.64315414428711 12.719916343688965 L21.651744842529297 12.226981163024902 L22.273921966552734 12.23793888092041 L21.65797233581543 11.864160537719727 L21.666065216064453 11.39749813079834 L22.962711334228516 11.420034408569336 L22.962711334228516 11.420034408569336 M2.126999855041504 15.851210594177246 L1.6948270797729492 15.99128532409668 C1.6126508712768555 15.91035270690918 1.5515155792236328 15.808130264282227 1.5112991333007812 15.684865951538086 C1.4656047821044922 15.543546676635742 1.4547719955444336 15.411317825317383 1.4795494079589844 15.288178443908691 C1.5039539337158203 15.165411949157715 1.557368278503418 15.060574531555176 1.6395444869995117 14.973791122436523 A0.7156820297241211 0.7156820297241211 0.0 0 1 1.9422273635864258 14.785531997680664 C2.041088104248047 14.753408432006836 2.1370859146118164 14.742202758789062 2.230343818664551 14.751789093017578 C2.3236007690429688 14.761751174926758 2.4092636108398438 14.789267539978027 2.486708641052246 14.833966255187988 C2.5641536712646484 14.878665924072266 2.6312646865844727 14.937559127807617 2.6877918243408203 15.009775161743164 C2.744692802429199 15.081989288330078 2.7872753143310547 15.163169860839844 2.816659927368164 15.252693176269531 C2.8277406692504883 15.286932945251465 2.836456298828125 15.324410438537598 2.843179702758789 15.365498542785645 C2.8499040603637695 15.406586647033691 2.8527679443359375 15.450164794921875 2.851771354675293 15.496109008789062 A0.4562036991119385 0.4562036991119385 0.0 0 1 2.8329696655273438 15.621614456176758 L2.4014196395874023 15.761938095092773 A0.3660586476325989 0.3660586476325989 0.0 0 0 2.457697868347168 15.605304718017578 A0.3721596300601959 0.3721596300601959 0.0 0 0 2.4431304931640625 15.446554183959961 C2.4131240844726562 15.35516357421875 2.3646888732910156 15.295524597167969 2.2973289489746094 15.268007278442383 C2.229969024658203 15.240490913391113 2.158625602722168 15.238872528076172 2.0836706161499023 15.263400077819824 C2.010457992553711 15.286932945251465 1.9589118957519531 15.330262184143066 1.9289045333862305 15.393263816833496 C1.8985252380371094 15.45601749420166 1.8974037170410156 15.529229164123535 1.9245471954345703 15.612898826599121 C1.9574174880981445 15.714250564575195 2.025026321411133 15.793562889099121 2.126999855041504 15.851210594177246 L2.126999855041504 15.851210594177246 M2.0963706970214844 16.90680503845215 L2.9167652130126953 16.48882484436035 L2.793002128601074 16.246280670166016 L3.128058433532715 16.075576782226562 L3.6107826232910156 17.022846221923828 L3.275726318359375 17.193798065185547 L3.1520891189575195 16.951129913330078 L2.331819534301758 17.369110107421875 L2.0963706970214844 16.90680503845215 L2.0963706970214844 16.90680503845215 M2.870448112487793 18.282760620117188 L3.89217472076416 17.484405517578125 L4.308535099029541 18.017431259155273 C4.382369518280029 18.112058639526367 4.426819801330566 18.203201293945312 4.441636085510254 18.289859771728516 C4.456203937530518 18.37664222717285 4.447488307952881 18.45446014404297 4.415738105773926 18.523563385009766 A0.4731370210647583 0.4731370210647583 0.0 0 1 4.2749176025390625 18.699621200561523 A0.47612524032592773 0.47612524032592773 0.0 0 1 4.068854331970215 18.794496536254883 C3.9943971633911133 18.808319091796875 3.9165782928466797 18.79785919189453 3.8356475830078125 18.76287078857422 C3.754715919494629 18.72763442993164 3.6775197982788086 18.662891387939453 3.6036853790283203 18.568138122558594 L3.506692886352539 18.44412612915039 L3.189814567565918 18.6919002532959 L2.870448112487793 18.282760620117188 M3.945962905883789 18.100852966308594 L3.7723960876464844 18.236568450927734 L3.8076324462890625 18.282014846801758 C3.8585567474365234 18.346759796142578 3.9132165908813477 18.356721878051758 3.971611976623535 18.310901641845703 C4.029011249542236 18.266202926635742 4.032123565673828 18.21116828918457 3.981199264526367 18.14605140686035 L3.945962905883789 18.100852966308594 L3.945962905883789 18.100852966308594 M4.06013822555542 19.738903045654297 L5.258918285369873 19.063064575195312 L5.689472675323486 19.437339782714844 L5.18570613861084 20.71717643737793 L4.784411430358887 20.368175506591797 L4.869078159332275 20.191621780395508 L4.624790191650391 19.979084014892578 L4.461433410644531 20.087779998779297 L4.06013822555542 19.738903045654297 M4.8917388916015625 19.781734466552734 L5.027703762054443 19.899646759033203 L5.176866054534912 19.592479705810547 L4.8917388916015625 19.781734466552734 M6.488576412200928 21.207496643066406 L6.169209003448486 21.397621154785156 L5.675029754638672 21.112369537353516 L6.415364742279053 20.752784729003906 L6.3638176918029785 20.012699127197266 L6.875303745269775 20.30803680419922 L6.851522445678711 20.578845977783203 L7.074145793914795 20.422710418701172 L7.56533670425415 20.706344604492188 L6.924983024597168 21.025588989257812 L6.975907802581787 21.863662719726562 L6.47064733505249 21.572059631347656 L6.488576412200928 21.207496643066406 L6.488576412200928 21.207496643066406 M8.290481567382812 22.45745086669922 C8.1836519241333 22.420719146728516 8.091265678405762 22.37141227722168 8.014069557189941 22.308908462524414 A0.6796987056732178 0.6796987056732178 0.0 0 1 7.83489990234375 22.093881607055664 A0.6306418776512146 0.6306418776512146 0.0 0 1 7.763182640075684 21.837141036987305 A0.7078378796577454 0.7078378796577454 0.0 0 1 7.803025722503662 21.562847137451172 A0.7090830206871033 0.7090830206871033 0.0 0 1 7.940733432769775 21.321796417236328 A0.6205565929412842 0.6205565929412842 0.0 0 1 8.154766082763672 21.16329574584961 A0.6889123916625977 0.6889123916625977 0.0 0 1 8.4269437789917 21.104650497436523 C8.526053428649902 21.102909088134766 8.629521369934082 21.120464324951172 8.738094329833984 21.157939910888672 C8.846542358398438 21.19516944885254 8.938803672790527 21.244972229003906 9.015128135681152 21.307228088378906 C9.09170150756836 21.369483947753906 9.150968551635742 21.440454483032227 9.192679405212402 21.520015716552734 A0.6225486993789673 0.6225486993789673 0.0 0 1 9.26340103149414 21.776630401611328 A0.7097055315971375 0.7097055315971375 0.0 0 1 9.223931312561035 22.052169799804688 A0.706717312335968 0.706717312335968 0.0 0 1 9.08584976196289 22.292972564697266 A0.6237938404083252 0.6237938404083252 0.0 0 1 8.87156867980957 22.45172119140625 A0.6760879158973694 0.6760879158973694 0.0 0 1 8.599390029907227 22.510366439819336 C8.500530242919922 22.51223373413086 8.397684097290039 22.494678497314453 8.290481567382812 22.45745086669922 L8.290481567382812 22.45745086669922 M8.42544937133789 22.06499481201172 C8.495549201965332 22.089025497436523 8.561040878295898 22.08541488647461 8.622175216674805 22.053787231445312 C8.683433532714844 22.022411346435547 8.727510452270508 21.968002319335938 8.754155158996582 21.890182495117188 C8.780925750732422 21.812114715576172 8.78005313873291 21.742265701293945 8.75141716003418 21.680011749267578 C8.723028182983398 21.618003845214844 8.673349380493164 21.574674606323242 8.602876663208008 21.550395965576172 A0.26122143864631653 0.26122143864631653 0.0 0 0 8.466662406921387 21.5391902923584 A0.2390587031841278 0.2390587031841278 0.0 0 0 8.349872589111328 21.59994888305664 A0.3015625774860382 0.3015625774860382 0.0 0 0 8.272676467895508 21.724210739135742 A0.3035547435283661 0.3035547435283661 0.0 0 0 8.257237434387207 21.869638442993164 C8.26408576965332 21.91558265686035 8.28226375579834 21.95592498779297 8.311647415161133 21.989789962768555 C8.34090805053711 22.023906707763672 8.378883361816406 22.048931121826172 8.42544937133789 22.06499481201172 L8.42544937133789 22.06499481201172 M9.830915451049805 22.85874366760254 L10.011579513549805 21.57455062866211 L10.736226081848145 21.676151275634766 C10.825499534606934 21.68885040283203 10.896595001220703 21.711387634277344 10.949387550354004 21.743759155273438 C11.002179145812988 21.776132583618164 11.039532661437988 21.812114715576172 11.061445236206055 21.851709365844727 C11.083359718322754 21.891551971435547 11.095685958862305 21.92902946472168 11.098798751831055 21.964017868041992 C11.101787567138672 21.999004364013672 11.101537704467773 22.0308780670166 11.097553253173828 22.060014724731445 C11.08858871459961 22.123512268066406 11.059577941894531 22.176305770874023 11.010769844055176 22.218143463134766 A0.34240180253982544 0.34240180253982544 0.0 0 1 10.836332321166992 22.296459197998047 L10.836082458496094 22.299819946289062 C10.88489055633545 22.315631866455078 10.929092407226562 22.340660095214844 10.968561172485352 22.37514877319336 C11.008155822753906 22.40938949584961 11.037540435791016 22.452219009399414 11.057212829589844 22.502521514892578 C11.076635360717773 22.55282211303711 11.082239151000977 22.608104705810547 11.073897361755371 22.667871475219727 A0.3707900047302246 0.3707900047302246 0.0 0 1 11.008155822753906 22.83222198486328 C10.972545623779297 22.882526397705078 10.919878005981445 22.920997619628906 10.84977912902832 22.947269439697266 C10.779680252075195 22.973541259765625 10.693146705627441 22.979644775390625 10.590923309326172 22.965076446533203 L9.830915451049805 22.85874366760254 L9.830915451049805 22.85874366760254 M10.45657730102539 22.134469985961914 L10.50413990020752 22.141319274902344 C10.58009147644043 22.151779174804688 10.622175216674805 22.127248764038086 10.63051700592041 22.067359924316406 C10.638859748840332 22.00759506225586 10.605242729187012 21.97223472595215 10.529540061950684 21.96127700805664 L10.481977462768555 21.95467758178711 L10.45657730102539 22.134469985961914 M10.388096809387207 22.622299194335938 L10.45047664642334 22.631263732910156 C10.536014556884766 22.64346694946289 10.583577156066895 22.616945266723633 10.592541694641113 22.552202224731445 C10.601507186889648 22.488452911376953 10.563157081604004 22.450599670410156 10.477246284484863 22.438648223876953 L10.415116310119629 22.429931640625 L10.388096809387207 22.622299194335938 L10.388096809387207 22.622299194335938 M12.532901763916016 23.093944549560547 C12.41984748840332 23.097801208496094 12.31600570678711 23.084728240966797 12.221877098083496 23.054100036621094 A0.6755898594856262 0.6755898594856262 0.0 0 1 11.977214813232422 22.91788673400879 A0.631886899471283 0.631886899471283 0.0 0 1 11.818465232849121 22.703353881835938 A0.7088339328765869 0.7088339328765869 0.0 0 1 11.757330894470215 22.433170318603516 A0.7120712399482727 0.7120712399482727 0.0 0 1 11.799290657043457 22.15887451171875 A0.6240428686141968 0.6240428686141968 0.0 0 1 11.942601203918457 21.934383392333984 A0.6833094954490662 0.6833094954490662 0.0 0 1 12.17580795288086 21.78160858154297 C12.26719856262207 21.744630813598633 12.370416641235352 21.723960876464844 12.484966278076172 21.719852447509766 C12.599266052246094 21.715993881225586 12.70335578918457 21.729564666748047 12.797235488891602 21.759944915771484 A0.676336944103241 0.676336944103241 0.0 0 1 13.039033889770508 21.89541244506836 A0.6235448122024536 0.6235448122024536 0.0 0 1 13.197286605834961 22.109445571899414 C13.234638214111328 22.192617416381836 13.2553071975708 22.28313446044922 13.258668899536133 22.380626678466797 C13.262030601501465 22.478118896484375 13.24783706665039 22.56963348388672 13.216086387634277 22.655170440673828 A0.6267820596694946 0.6267820596694946 0.0 0 1 13.073149681091309 22.880157470703125 A0.676336944103241 0.676336944103241 0.0 0 1 12.840191841125488 23.03243637084961 C12.748552322387695 23.069290161132812 12.64620590209961 23.08995819091797 12.532901763916016 23.093944549560547 L12.532901763916016 23.093944549560547 M12.51833438873291 22.678829193115234 C12.592168807983398 22.676212310791016 12.652057647705078 22.649442672729492 12.697752952575684 22.59814453125 C12.743821144104004 22.54684829711914 12.76511287689209 22.480236053466797 12.762372970581055 22.39805793762207 C12.759634017944336 22.315631866455078 12.733736991882324 22.25063705444336 12.684555053710938 22.20282745361328 C12.635374069213867 22.15538787841797 12.573616981506348 22.132850646972656 12.499284744262695 22.13521957397461 A0.2582331895828247 0.2582331895828247 0.0 0 0 12.36829948425293 22.173938751220703 A0.23320674896240234 0.23320674896240234 0.0 0 0 12.281143188476562 22.27242660522461 A0.3000684976577759 0.3000684976577759 0.0 0 0 12.253377914428711 22.41561508178711 C12.255245208740234 22.469650268554688 12.267820358276367 22.516590118408203 12.291104316711426 22.55718231201172 C12.314262390136719 22.59777069091797 12.345514297485352 22.628650665283203 12.384984970092773 22.649818420410156 C12.424454689025879 22.670982360839844 12.46902847290039 22.68044662475586 12.51833438873291 22.678829193115234 M13.792069435119629 21.61090660095215 L14.270559310913086 21.491750717163086 L14.427193641662598 22.119155883789062 L14.622673034667969 21.403972625732422 L15.07613754272461 21.290916442871094 L15.389902114868164 22.549585342407227 L14.91153621673584 22.66874122619629 L14.760879516601562 22.06499481201172 L14.559048652648926 22.756771087646484 L14.105957984924316 22.869701385498047 L13.792069435119629 21.61090660095215 L13.792069435119629 21.61090660095215 M18.47836685180664 20.33156967163086 L18.745563507080078 20.69949722290039 C18.694019317626953 20.802589416503906 18.615825653076172 20.892610549926758 18.510740280151367 20.96843719482422 C18.390338897705078 21.056217193603516 18.267696380615234 21.10701560974121 18.143186569213867 21.121583938598633 C18.018802642822266 21.136402130126953 17.902633666992188 21.11797332763672 17.794809341430664 21.06667709350586 A0.7089584469795227 0.7089584469795227 0.0 0 1 17.522132873535156 20.837078094482422 C17.46099853515625 20.752662658691406 17.4205322265625 20.664634704589844 17.400983810424805 20.572994232177734 C17.38143539428711 20.481355667114258 17.381187438964844 20.391830444335938 17.399738311767578 20.304302215576172 A0.7026085257530212 0.7026085257530212 0.0 0 1 17.504825592041016 20.058395385742188 A0.7917574644088745 0.7917574644088745 0.0 0 1 17.696571350097656 19.860673904418945 A0.755276083946228 0.755276083946228 0.0 0 1 17.917200088500977 19.751976013183594 A0.4614331126213074 0.4614331126213074 0.0 0 1 18.042333602905273 19.731060028076172 L18.309282302856445 20.098487854003906 A0.36107826232910156 0.36107826232910156 0.0 0 0 18.142688751220703 20.0933837890625 A0.3705410063266754 0.3705410063266754 0.0 0 0 17.996265411376953 20.156383514404297 C17.918445587158203 20.212787628173828 17.87673568725586 20.277530670166016 17.871505737304688 20.34999656677246 C17.865903854370117 20.422710418701172 17.886573791503906 20.49081802368164 17.933013916015625 20.5545654296875 C17.977962493896484 20.616573333740234 18.035112380981445 20.652557373046875 18.104089736938477 20.66152000427246 C18.173316955566406 20.670734405517578 18.2432918548584 20.64931869506836 18.31463623046875 20.59777069091797 C18.40054702758789 20.535140991210938 18.45520782470703 20.446617126464844 18.47836685180664 20.33156967163086 L18.47836685180664 20.33156967163086 M19.930274963378906 19.75521469116211 C19.853452682495117 19.8376407623291 19.770652770996094 19.901885986328125 19.6822509765625 19.947084426879883 A0.6784535646438599 0.6784535646438599 0.0 0 1 19.41293716430664 20.02315902709961 A0.6245408654212952 0.6245408654212952 0.0 0 1 19.14922523498535 19.98406219482422 A0.705970287322998 0.705970287322998 0.0 0 1 18.91477394104004 19.836393356323242 A0.7052232027053833 0.7052232027053833 0.0 0 1 18.75079345703125 19.612401962280273 A0.6246654391288757 0.6246654391288757 0.0 0 1 18.69301986694336 19.35267448425293 C18.69264793395996 19.261905670166016 18.711572647094727 19.170764923095703 18.750171661376953 19.07987403869629 C18.788768768310547 18.98897933959961 18.846790313720703 18.901325225830078 18.924983978271484 18.81753158569336 C19.00342559814453 18.73386001586914 19.086223602294922 18.66948890686035 19.174251556396484 18.625164031982422 A0.6880408525466919 0.6880408525466919 0.0 0 1 19.441200256347656 18.54933738708496 A0.6230467557907104 0.6230467557907104 0.0 0 1 19.70429039001465 18.58917999267578 A0.7111996412277222 0.7111996412277222 0.0 0 1 19.93936538696289 18.737472534179688 A0.6998692750930786 0.6998692750930786 0.0 0 1 20.103591918945312 18.961713790893555 C20.141693115234375 19.044387817382812 20.160743713378906 19.13117027282715 20.161365509033203 19.221689224243164 C20.162113189697266 19.312580108642578 20.143186569213867 19.403348922729492 20.10458755493164 19.494239807128906 C20.065990447998047 19.585134506225586 20.007843017578125 19.672042846679688 19.930274963378906 19.75521469116211 L19.930274963378906 19.75521469116211 M19.626720428466797 19.471954345703125 C19.67739486694336 19.417917251586914 19.7005558013916 19.356409072875977 19.696569442749023 19.287805557250977 C19.69295883178711 19.218950271606445 19.660837173461914 19.15644645690918 19.60082244873047 19.100791931152344 C19.54030990600586 19.044139862060547 19.47593879699707 19.016620635986328 19.407333374023438 19.017620086669922 C19.33910369873047 19.01861572265625 19.279586791992188 19.046255111694336 19.228538513183594 19.100542068481445 A0.2564900517463684 0.2564900517463684 0.0 0 0 19.16341781616211 19.22044563293457 C19.153457641601562 19.264522552490234 19.155948638916016 19.308223724365234 19.171388626098633 19.35205078125 C19.186452865600586 19.396127700805664 19.213970184326172 19.43647003173828 19.253190994262695 19.47319984436035 C19.29241180419922 19.509681701660156 19.334745407104492 19.534210205078125 19.379817962646484 19.546411514282227 C19.42501449584961 19.558862686157227 19.468841552734375 19.55861473083496 19.511796951293945 19.545665740966797 C19.55475425720215 19.53271484375 19.59297752380371 19.50818634033203 19.626720428466797 19.471954345703125 L19.626720428466797 19.471954345703125 M20.515968322753906 17.713504791259766 L20.57498550415039 17.60679817199707 A0.596152663230896 0.596152663230896 0.0 0 1 20.429433822631836 17.431987762451172 A0.5590487122535706 0.5590487122535706 0.0 0 1 20.36406707763672 17.222312927246094 A0.6986241936683655 0.6986241936683655 0.0 0 1 20.381122589111328 16.988109588623047 C20.39980125427246 16.906679153442383 20.43229866027832 16.82487678527832 20.477371215820312 16.743200302124023 C20.533523559570312 16.64209747314453 20.599390029907227 16.559049606323242 20.67471694946289 16.493928909301758 C20.75041961669922 16.429059982299805 20.83110237121582 16.383241653442383 20.917139053344727 16.35647201538086 A0.6190624833106995 0.6190624833106995 0.0 0 1 21.179607391357422 16.33268928527832 C21.269004821777344 16.34339714050293 21.35641098022461 16.372533798217773 21.442195892333984 16.419971466064453 C21.556495666503906 16.483470916748047 21.644773483276367 16.56689453125 21.70752716064453 16.669986724853516 C21.76990509033203 16.773080825805664 21.79916763305664 16.88887596130371 21.795555114746094 17.017494201660156 C21.792194366455078 17.145614624023438 21.75322151184082 17.276721954345703 21.67876625061035 17.41119384765625 C21.628463745117188 17.501712799072266 21.571561813354492 17.577041625976562 21.507564544677734 17.637554168701172 C21.443565368652344 17.69781494140625 21.37657928466797 17.742887496948242 21.306232452392578 17.771774291992188 A0.5636556148529053 0.5636556148529053 0.0 0 1 21.092823028564453 17.816970825195312 A0.5914213061332703 0.5914213061332703 0.0 0 1 20.879287719726562 17.779245376586914 L20.821889877319336 17.883087158203125 L21.24323081970215 18.11654281616211 L20.991596221923828 18.57037925720215 L19.857437133789062 17.941730499267578 L20.10906982421875 17.487892150878906 L20.515968322753906 17.713504791259766 L20.515968322753906 17.713504791259766 M21.31905746459961 17.203760147094727 A0.25026458501815796 0.25026458501815796 0.0 0 0 21.342838287353516 17.01898956298828 C21.3273983001709 16.95287322998047 21.28008460998535 16.897838592529297 21.201271057128906 16.854385375976562 C21.12257957458496 16.810808181762695 21.05086326599121 16.799726486206055 20.986989974975586 16.821516036987305 C20.922616958618164 16.843677520751953 20.874805450439453 16.882774353027344 20.843303680419922 16.939924240112305 A0.26595279574394226 0.26595279574394226 0.0 0 0 20.815166473388672 17.131793975830078 C20.82998275756836 17.198904037475586 20.87667465209961 17.254560470581055 20.95536231994629 17.298137664794922 C21.03355598449707 17.341716766357422 21.10552215576172 17.351926803588867 21.17064094543457 17.328767776489258 A0.2655792832374573 0.2655792832374573 0.0 0 0 21.31905746459961 17.203760147094727 L21.31905746459961 17.203760147094727 M21.49262237548828 15.617257118225098 L21.162424087524414 15.665940284729004 C21.135528564453125 15.485774993896484 21.15159034729004 15.304364204406738 21.210609436035156 15.122455596923828 C21.24808692932129 15.007657051086426 21.29627227783203 14.915021896362305 21.354915618896484 14.845171928405762 C21.41393280029297 14.775321960449219 21.4763126373291 14.72962760925293 21.54242706298828 14.707340240478516 C21.608417510986328 14.685426712036133 21.672414779663086 14.684181213378906 21.734172821044922 14.704476356506348 A0.291352778673172 0.291352778673172 0.0 0 1 21.88433074951172 14.817780494689941 C21.923799514770508 14.873933792114258 21.943347930908203 14.937932014465332 21.942726135253906 15.009899139404297 L21.947704315185547 15.011642456054688 C21.985057830810547 14.956235885620117 22.034738540649414 14.911661148071289 22.096744537353516 14.877918243408203 C22.15887451171875 14.844301223754883 22.233081817626953 14.841188430786133 22.319244384765625 14.869452476501465 A0.33156946301460266 0.33156946301460266 0.0 0 1 22.488079071044922 14.993962287902832 C22.532527923583984 15.054473876953125 22.558799743652344 15.1306734085083 22.56689453125 15.222063064575195 C22.575111389160156 15.313453674316406 22.561290740966797 15.414680480957031 22.52543067932129 15.524621963500977 A1.2443504333496094 1.2443504333496094 0.0 0 1 22.443628311157227 15.722841262817383 C22.413745880126953 15.778745651245117 22.378509521484375 15.830044746398926 22.338294982910156 15.875988960266113 C22.298200607299805 15.922430038452148 22.247276306152344 15.971986770629883 22.185396194458008 16.025524139404297 L21.96538543701172 15.755836486816406 A0.6224242448806763 0.6224242448806763 0.0 0 0 22.094131469726562 15.646890640258789 C22.132976531982422 15.604308128356934 22.159000396728516 15.562721252441406 22.17169952392578 15.522878646850586 C22.202205657958984 15.428749084472656 22.18402671813965 15.371101379394531 22.11703872680664 15.349063873291016 A0.07694701850414276 0.07694701850414276 0.0 0 0 22.0435791015625 15.36001968383789 C22.02216339111328 15.376331329345703 22.00273895263672 15.411567687988281 21.985057830810547 15.466351509094238 L21.92205810546875 15.660213470458984 L21.613771438598633 15.559983253479004 L21.672788619995117 15.378572463989258 C21.688602447509766 15.329390525817871 21.695449829101562 15.290543556213379 21.692834854125977 15.26165771484375 C21.690343856811523 15.232522010803223 21.67154312133789 15.212102890014648 21.636680603027344 15.20114517211914 C21.577911376953125 15.181970596313477 21.533214569091797 15.21982192993164 21.502086639404297 15.314947128295898 A0.5353919267654419 0.5353919267654419 0.0 0 0 21.47867774963379 15.462989807128906 C21.476810455322266 15.517773628234863 21.48141860961914 15.569320678710938 21.49262237548828 15.617257118225098 L21.49262237548828 15.617257118225098" fill="black" fill-opacity="1.0" filling="0"/>
<path animation_id="5" d="M2.425201416015625 7.7659220695495605 C2.512357711791992 7.7659220695495605 2.5834531784057617 7.871755123138428 2.5834531784057617 8.001494407653809 C2.5834531784057617 8.131233215332031 2.512357711791992 8.237066268920898 2.425201416015625 8.237066268920898 C2.3380441665649414 8.237066268920898 2.266948699951172 8.131233215332031 2.266948699951172 8.001494407653809 C2.266948699951172 7.871755123138428 2.337919235229492 7.7659220695495605 2.425201416015625 7.7659220695495605 L2.425201416015625 7.7659220695495605 M1.8804702758789062 13.323787689208984 C1.9676275253295898 13.323787689208984 2.0387229919433594 13.429620742797852 2.0387229919433594 13.559484481811523 C2.0387229919433594 13.689099311828613 1.9676275253295898 13.79493236541748 1.8804702758789062 13.79493236541748 C1.793313980102539 13.79493236541748 1.7222185134887695 13.689099311828613 1.7222185134887695 13.559484481811523 C1.7222185134887695 13.429496765136719 1.7931890487670898 13.323787689208984 1.8804702758789062 13.323787689208984 L1.8804702758789062 13.323787689208984 M22.183277130126953 13.478428840637207 C22.270309448242188 13.478428840637207 22.341529846191406 13.584261894226074 22.341529846191406 13.713876724243164 C22.341529846191406 13.843740463256836 22.270435333251953 13.94957447052002 22.183277130126953 13.94957447052002 C22.09612274169922 13.94957447052002 22.025026321411133 13.843740463256836 22.025026321411133 13.713876724243164 C22.025026321411133 13.584261894226074 22.09612274169922 13.478428840637207 22.183277130126953 13.478428840637207" fill="black" fill-opacity="1.0" filling="0"/></svg>