<?xml version="1.0" encoding="iso-8859-1"?><svg height="200px" viewBox="0.0 0.0 24.0 24.0" width="200px" xmlns="http://www.w3.org/2000/svg"><path animation_id="0" d="M0.0 0.0 L24.0 0.0 L24.0 24.0 L0.0 24.0 L0.0 0.0" fill="black" fill-opacity="1.0" filling="0"/>
<path animation_id="1" d="M2.9543676376342773 13.52076244354248 L2.9543676376342773 6.311025619506836 L21.36898422241211 6.311897277832031 L21.36898422241211 11.613397598266602 C21.889686584472656 11.594347953796387 22.41399574279785 11.586627960205078 22.94116973876953 11.58998966217041 L20.856128692626953 14.290730476379395 C15.407334327697754 14.225860595703125 10.57560920715332 15.469589233398438 5.634066104888916 17.68910026550293 C4.406150817871094 15.935131072998047 3.0578346252441406 15.434849739074707 1.0588302612304688 14.905434608459473 L2.9543676376342773 13.52076244354248 L2.9543676376342773 13.52076244354248" fill="black" fill-opacity="1.0" filling="0"/>
<path animation_id="2" d="M3.2433547973632812 6.600136756896973 L3.2433547973632812 13.54641056060791 C4.540123462677002 14.0465669631958 5.452406406402588 14.921621322631836 6.18664026260376 15.95256233215332 C9.201892852783203 14.124759674072266 15.002677917480469 11.909854888916016 21.079872131347656 11.691091537475586 L21.079872131347656 6.601008415222168 L3.2433547973632812 6.600136756896973 L3.2433547973632812 6.600136756896973" fill="black" fill-opacity="1.0" filling="0"/>
<path animation_id="3" d="M3.109257698059082 13.765548706054688 C4.4057769775390625 14.093880653381348 5.390027046203613 15.171636581420898 6.17107629776001 16.26520538330078 C11.623482704162598 13.109506607055664 17.450164794921875 11.844114303588867 22.35584831237793 11.87524127960205 L20.715309143066406 13.999752044677734 C15.481790542602539 13.937496185302734 10.4984130859375 15.187200546264648 5.733673572540283 17.3273983001709 C4.85886812210083 16.07756996154785 3.5465354919433594 15.265268325805664 1.7188568115234375 14.781049728393555 L3.109257698059082 13.765548706054688 L3.109257698059082 13.765548706054688" fill="black" fill-opacity="1.0" filling="0"/>
<path animation_id="4" d="M17.400236129760742 9.76629638671875 C17.400236129760742 11.19504451751709 16.474010467529297 11.997137069702148 15.308847427368164 11.997137069702148 C14.159995079040527 11.979829788208008 13.25107479095459 11.177987098693848 13.25107479095459 9.76629638671875 C13.25107479095459 8.356719970703125 14.125256538391113 7.552387714385986 15.307476997375488 7.535080909729004 C16.509992599487305 7.5181474685668945 17.400236129760742 8.342028617858887 17.400236129760742 9.76629638671875 M17.03106689453125 9.76629638671875 C17.03106689453125 8.534769058227539 16.296707153320312 7.8903069496154785 15.31270694732666 7.904003143310547 C14.339040756225586 7.9183220863342285 13.619872093200684 8.551329612731934 13.619872093200684 9.76629638671875 C13.619872093200684 10.979020118713379 14.367179870605469 11.614020347595215 15.311461448669434 11.628089904785156 C16.270933151245117 11.628213882446289 17.03106689453125 10.99321460723877 17.03106689453125 9.76629638671875 M16.06300163269043 9.76629638671875 C16.06300163269043 9.079998016357422 15.685612678527832 8.775321960449219 15.304239273071289 8.763245582580566 C14.940173149108887 8.766108512878418 14.58880615234375 9.055219650268555 14.58880615234375 9.76629638671875 C14.58880615234375 10.466912269592285 14.945528030395508 10.768972396850586 15.310091018676758 10.768972396850586 C15.695822715759277 10.768972396850586 16.06300163269043 10.460437774658203 16.06300163269043 9.76629638671875 L16.06300163269043 9.76629638671875 M16.432174682617188 9.76629638671875 C16.432174682617188 10.603374481201172 15.955799102783203 11.137894630432129 15.310091018676758 11.137894630432129 C14.675091743469238 11.137894630432129 14.219884872436523 10.596776008605957 14.219884872436523 9.76629638671875 C14.219884872436523 8.918259620666504 14.679201126098633 8.394447326660156 15.312955856323242 8.394447326660156 C15.931893348693848 8.413869857788086 16.432174682617188 8.921497344970703 16.432174682617188 9.76629638671875 M8.164104461669922 10.2147798538208 C8.07669734954834 10.272053718566895 8.021166801452637 10.34700870513916 8.021166801452637 10.475876808166504 C8.021166801452637 10.626408576965332 8.072464942932129 10.7755708694458 8.385232925415039 10.7755708694458 C8.630890846252441 10.7755708694458 8.904687881469727 10.549336433410645 8.908049583435059 10.49031925201416 L8.928468704223633 10.003735542297363 L8.854883193969727 10.02004623413086 C8.649940490722656 10.063375473022461 8.33592700958252 10.101849555969238 8.164104461669922 10.2147798538208 L8.164104461669922 10.2147798538208 M7.961402416229248 9.906244277954102 C8.293718338012695 9.687978744506836 8.699121475219727 9.727697372436523 9.052605628967285 9.580278396606445 L9.319927215576172 9.468841552734375 L9.27672290802002 10.508623123168945 C9.254934310913086 10.882400512695312 8.678079605102539 11.14449405670166 8.385232925415039 11.14449405670166 C7.83651876449585 11.14449405670166 7.651995658874512 10.796488761901855 7.651995658874512 10.475751876831055 C7.652120113372803 10.20058536529541 7.790201187133789 10.018675804138184 7.961402416229248 9.906244277954102 L7.961402416229248 9.906244277954102 M6.6536760330200195 10.60262680053711 C6.6536760330200195 9.859304428100586 7.205628395080566 9.397995948791504 7.828799247741699 9.238248825073242 C8.024652481079102 9.187947273254395 9.033928871154785 9.090580940246582 9.033928871154785 8.814168930053711 C9.033928871154785 8.751168251037598 8.97889518737793 8.623420715332031 8.709456443786621 8.623420715332031 C8.192242622375488 8.623420715332031 8.172197341918945 9.272489547729492 7.576169013977051 9.272489547729492 C7.1425018310546875 9.272489547729492 6.923862457275391 8.917014122009277 6.923862457275391 8.6571626663208 C6.907177925109863 8.165846824645996 7.230156421661377 7.846853256225586 7.633318901062012 7.689223766326904 C7.915707111358643 7.572807312011719 8.20506763458252 7.5055718421936035 8.477245330810547 7.488638877868652 L8.623669624328613 7.48838996887207 C9.076760292053223 7.48838996887207 9.471456527709961 7.553881645202637 9.805017471313477 7.729315757751465 C10.135466575622559 7.913092613220215 10.385980606079102 8.300566673278809 10.385980606079102 8.64309310913086 C10.370292663574219 9.516901969909668 10.385855674743652 10.397186279296875 10.385855674743652 11.27087116241455 C10.365809440612793 11.651123046875 10.145925521850586 11.923924446105957 9.735666275024414 11.965137481689453 C9.414555549621582 11.997137069702148 9.223931312561035 11.830168724060059 9.097553253173828 11.655855178833008 C8.886384963989258 11.820083618164062 8.597646713256836 11.959410667419434 8.062254905700684 11.959410667419434 C7.439457416534424 11.959534645080566 6.6536760330200195 11.55313491821289 6.6536760330200195 10.60262680053711 L6.6536760330200195 10.60262680053711 M7.022723197937012 10.60262680053711 C7.022723197937012 11.280582427978516 7.566955089569092 11.590487480163574 8.062254905700684 11.590487480163574 C8.654173851013184 11.590487480163574 8.802589416503906 11.437963485717773 9.183714866638184 11.081242561340332 C9.293656349182129 11.27361011505127 9.422399520874023 11.62559986114502 9.699060440063477 11.598082542419434 C9.910353660583496 11.576916694641113 10.003486633300781 11.473323822021484 10.017058372497559 11.26613998413086 C10.017058372497559 10.39008903503418 10.00136947631836 9.515782356262207 10.017058372497559 8.63985538482666 C10.017058372497559 8.451223373413086 9.861421585083008 8.182905197143555 9.629583358764648 8.053913116455078 C9.36935806274414 7.916952133178711 9.04550838470459 7.857436180114746 8.623794555664062 7.857436180114746 L8.49480152130127 7.857062816619873 C8.266823768615723 7.871381759643555 8.019547462463379 7.929403305053711 7.770902156829834 8.031625747680664 C7.4572625160217285 8.154142379760742 7.281454086303711 8.36742877960205 7.292909622192383 8.653427124023438 C7.292909622192383 8.744941711425781 7.380190372467041 8.903443336486816 7.576293468475342 8.903443336486816 C7.943472862243652 8.903443336486816 7.987175941467285 8.254373550415039 8.709580421447754 8.254373550415039 C9.100915908813477 8.254373550415039 9.403100967407227 8.474008560180664 9.403100967407227 8.814168930053711 C9.403100967407227 9.863910675048828 7.022723197937012 9.099421501159668 7.022723197937012 10.60262680053711 L7.022723197937012 10.60262680053711 M12.088401794433594 7.8421220779418945 C12.297577857971191 7.690344333648682 12.504762649536133 7.629085540771484 12.768350601196289 7.629085540771484 C13.209487915039062 7.64987850189209 13.432485580444336 8.001494407653809 13.432485580444336 8.303306579589844 C13.410073280334473 8.683060646057129 13.160305976867676 8.857125282287598 12.825749397277832 8.944905281066895 C12.461433410644531 9.03928279876709 12.245284080505371 9.309469223022461 12.245284080505371 9.562224388122559 L12.260599136352539 11.343086242675781 C12.260599136352539 11.712756156921387 11.90275764465332 11.947208404541016 11.565834999084473 11.9658842086792 C11.267634391784668 11.9658842086792 10.845171928405762 11.831788063049316 10.845171928405762 11.343958854675293 L10.845171928405762 8.329204559326172 C10.845171928405762 7.907364845275879 11.169644355773926 7.629085540771484 11.544917106628418 7.629085540771484 C11.76891040802002 7.628961086273193 11.950943946838379 7.71026611328125 12.088401794433594 7.8421220779418945 L12.088401794433594 7.8421220779418945 M11.54504108428955 7.998007774353027 C11.358526229858398 7.998007774353027 11.214219093322754 8.125755310058594 11.214219093322754 8.329078674316406 L11.214219093322754 11.343958854675293 C11.214219093322754 11.511300086975098 11.325779914855957 11.59571647644043 11.555500030517578 11.597086906433105 C11.77812385559082 11.582643508911133 11.891552925109863 11.443192481994629 11.891552925109863 11.344829559326172 L11.876237869262695 9.56396770477295 C11.876237869262695 9.098424911499023 12.253252983093262 8.712320327758789 12.732242584228516 8.587934494018555 C12.986117362976074 8.52144718170166 13.05223274230957 8.44250774383545 13.06368637084961 8.297951698303223 C13.06368637084961 8.16373062133789 12.972919464111328 8.011704444885254 12.763618469238281 7.998007774353027 C12.417357444763184 7.998007774353027 12.26806926727295 8.169706344604492 12.012077331542969 8.361949920654297 C11.889933586120605 8.169955253601074 11.80999755859375 7.998007774353027 11.54504108428955 7.998007774353027 L11.54504108428955 7.998007774353027" fill="black" fill-opacity="1.0" filling="0"/>
<path animation_id="5" d="M17.30809783935547 9.76629638671875 C17.30809783935547 11.14461898803711 16.423458099365234 11.904998779296875 15.309345245361328 11.904998779296875 C14.211915969848633 11.888440132141113 13.34321117401123 11.128183364868164 13.34321117401123 9.76629638671875 C13.34321117401123 8.405280113220215 14.17879581451416 7.643777847290039 15.308847427368164 7.627342224121094 C16.456701278686523 7.611280918121338 17.30809783935547 8.390338897705078 17.30809783935547 9.76629638671875 L17.30809783935547 9.76629638671875 M17.123451232910156 9.76629638671875 C17.123451232910156 8.486584663391113 16.350120544433594 7.797298431396484 15.311461448669434 7.811990737915039 C14.285501480102539 7.826807022094727 13.527734756469727 8.50277042388916 13.527734756469727 9.76629638671875 C13.527734756469727 11.02869987487793 14.315134048461914 11.70541000366211 15.310465812683105 11.720352172851562 C16.321733474731445 11.720476150512695 17.123451232910156 11.0437650680542 17.123451232910156 9.76629638671875 M16.155139923095703 9.76629638671875 C16.155139923095703 9.040403366088867 15.749237060546875 8.684927940368652 15.308597564697266 8.671107292175293 C14.875677108764648 8.671107292175293 14.49666976928711 9.018365859985352 14.49666976928711 9.76629638671875 C14.49666976928711 10.499283790588379 14.877918243408203 10.861234664916992 15.310091018676758 10.861234664916992 C15.760941505432129 10.861234664916992 16.155139923095703 10.496171951293945 16.155139923095703 9.76629638671875 L16.155139923095703 9.76629638671875 M16.339412689208984 9.76629638671875 C16.339412689208984 10.56751537322998 15.890680313110352 11.045757293701172 15.309967041015625 11.045757293701172 C14.742576599121094 11.045757293701172 14.31164836883545 10.564278602600098 14.31164836883545 9.76629638671875 C14.31164836883545 8.951753616333008 14.74456787109375 8.486584663391113 15.311336517333984 8.486584663391113 C15.87088394165039 8.504264831542969 16.339412689208984 8.96121597290039 16.339412689208984 9.76629638671875 M8.113553047180176 10.137582778930664 C8.005105018615723 10.208678245544434 7.92902946472168 10.310402870178223 7.92902946472168 10.475876808166504 C7.92902946472168 10.668991088867188 8.013696670532227 10.867834091186523 8.385482788085938 10.867834091186523 C8.642844200134277 10.867834091186523 8.992466926574707 10.632509231567383 9.000436782836914 10.494802474975586 L9.025959968566895 9.882587432861328 C8.746933937072754 9.965635299682617 8.348004341125488 9.983440399169922 8.113553047180176 10.137582778930664 M8.012077331542969 9.983316421508789 C8.3331880569458 9.772396087646484 8.742825508117676 9.809500694274902 9.088214874267578 9.66544246673584 L9.221939086914062 9.609662055969238 L9.184585571289062 10.50401496887207 C9.167403221130371 10.79922866821289 8.666376113891602 11.052231788635254 8.385357856750488 11.052231788635254 C7.895536422729492 11.052231788635254 7.744381904602051 10.753907203674316 7.744381904602051 10.475751876831055 C7.744381904602051 10.237191200256348 7.8617939949035645 10.082052230834961 8.012077331542969 9.983316421508789 L8.012077331542969 9.983316421508789 M6.745813846588135 10.60262680053711 C6.745813846588135 9.91533374786377 7.254062652587891 9.480793952941895 7.851833820343018 9.327648162841797 C8.131109237670898 9.256053924560547 8.466413497924805 9.220319747924805 8.731494903564453 9.145240783691406 C8.998817443847656 9.069539070129395 9.126190185546875 8.971673965454102 9.126190185546875 8.814168930053711 C9.126190185546875 8.681940078735352 9.009401321411133 8.531282424926758 8.709456443786621 8.531282424926758 C8.120774269104004 8.531282424926758 8.136711120605469 9.180353164672852 7.576169013977051 9.180353164672852 C7.201892375946045 9.180353164672852 7.0161237716674805 8.876797676086426 7.0161237716674805 8.658905029296875 C6.998194694519043 8.216148376464844 7.2854390144348145 7.924173831939697 7.6676836013793945 7.774762153625488 C7.941605091094971 7.661955833435059 8.219013214111328 7.597086429595947 8.480110168457031 7.58065128326416 L8.623669624328613 7.580526828765869 C9.068916320800781 7.580526828765869 9.445931434631348 7.644524574279785 9.761190414428711 7.810247421264648 C10.067110061645508 7.980327606201172 10.293593406677246 8.338293075561523 10.293593406677246 8.642221450805664 C10.278030395507812 9.516404151916504 10.293593406677246 10.394073486328125 10.293593406677246 11.268505096435547 C10.275664329528809 11.60692310333252 10.087655067443848 11.837017059326172 9.726451873779297 11.873249053955078 C9.405591011047363 11.905247688293457 9.236257553100586 11.710639953613281 9.117474555969238 11.519890785217285 C8.910664558410645 11.700429916381836 8.64047908782959 11.867148399353027 8.062129974365234 11.867148399353027 C7.471207618713379 11.86727237701416 6.745813846588135 11.485027313232422 6.745813846588135 10.60262680053711 L6.745813846588135 10.60262680053711 M6.930461406707764 10.60262680053711 C6.930461406707764 11.348814964294434 7.534955978393555 11.68274974822998 8.062254905700684 11.68274974822998 C8.612214088439941 11.68274974822998 8.799103736877441 11.567577362060547 9.161551475524902 11.228288650512695 C9.283821105957031 11.4421968460083 9.401357650756836 11.720352172851562 9.708398818969727 11.689846992492676 C9.970117568969727 11.663451194763184 10.094751358032227 11.518396377563477 10.109319686889648 11.26613998413086 C10.109319686889648 10.390711784362793 10.093755722045898 9.516031265258789 10.109319686889648 8.640727996826172 C10.109319686889648 8.413745880126953 9.930025100708008 8.115421295166016 9.67353630065918 7.972856521606445 C9.395008087158203 7.8264336585998535 9.053476333618164 7.765299320220947 8.623794555664062 7.765299320220947 L8.4889497756958 7.765050411224365 C8.24989128112793 7.779991626739502 7.993525505065918 7.840254306793213 7.736537933349609 7.94608736038208 C7.399987697601318 8.077569961547852 7.187076091766357 8.317001342773438 7.200647830963135 8.655294418334961 C7.200647830963135 8.789017677307129 7.320799827575684 8.995704650878906 7.576293468475342 8.995704650878906 C8.014692306518555 8.995704650878906 8.023656845092773 8.346759796142578 8.709580421447754 8.346759796142578 C9.07028579711914 8.346759796142578 9.31083869934082 8.543484687805176 9.31083869934082 8.814168930053711 C9.31083869934082 9.378820419311523 8.276784896850586 9.409201622009277 7.897653102874756 9.50644302368164 C7.350931167602539 9.646516799926758 6.930461406707764 10.027517318725586 6.930461406707764 10.60262680053711 L6.930461406707764 10.60262680053711 M11.54504108428955 7.721347332000732 C11.774264335632324 7.721347332000732 11.954056739807129 7.814356327056885 12.079437255859375 7.964265823364258 L12.142688751220703 7.916703224182129 C12.33816909790039 7.774886608123779 12.518209457397461 7.721347332000732 12.765983581542969 7.721347332000732 C13.15071964263916 7.73952579498291 13.340347290039062 8.040340423583984 13.340347290039062 8.300691604614258 C13.32142162322998 8.623296737670898 13.118596076965332 8.772831916809082 12.802465438842773 8.855630874633789 C12.409761428833008 8.95760440826416 12.15314769744873 9.25680160522461 12.15314769744873 9.562722206115723 L12.168461799621582 11.343709945678711 C12.168461799621582 11.645645141601562 11.872627258300781 11.85656452178955 11.563468933105469 11.873871803283691 C11.281455039978027 11.873871803283691 10.93768310546875 11.75210189819336 10.93768310546875 11.344082832336426 L10.93768310546875 8.329204559326172 C10.937559127807617 7.961900234222412 11.216833114624023 7.721347332000732 11.54504108428955 7.721347332000732 M11.54504108428955 7.90587043762207 C11.311336517333984 7.90587043762207 11.122082710266113 8.071094512939453 11.122082710266113 8.329078674316406 L11.122082710266113 11.343958854675293 C11.122082710266113 11.590737342834473 11.308721542358398 11.688103675842285 11.55574893951416 11.689349174499512 C11.809375762939453 11.675278663635254 11.983938217163086 11.511175155639648 11.983938217163086 11.344456672668457 L11.968499183654785 9.563592910766602 C11.968499183654785 9.151217460632324 12.3052978515625 8.793998718261719 12.75564956665039 8.677083969116211 C13.031936645507812 8.604619979858398 13.142252922058105 8.50289535522461 13.155699729919434 8.297951698303223 C13.155699729919434 8.121397018432617 13.032933235168457 7.920313835144043 12.76374340057373 7.90587043762207 C12.409139633178711 7.90587043762207 12.289983749389648 8.037851333618164 12.036605834960938 8.228350639343262 C11.912345886230469 8.033244132995605 11.800909042358398 7.90587043762207 11.54504108428955 7.90587043762207 L11.54504108428955 7.90587043762207" fill="black" fill-opacity="1.0" filling="0"/>
<path animation_id="6" d="M15.310091018676758 7.719728469848633 C16.403411865234375 7.704164981842041 17.215713500976562 8.438399314880371 17.215713500976562 9.766420364379883 C17.215713500976562 11.094441413879395 16.372407913208008 11.812862396240234 15.310091018676758 11.812862396240234 C14.263463020324707 11.797173500061035 13.435348510742188 11.078627586364746 13.435348510742188 9.766420364379883 C13.435348510742188 8.454087257385254 14.232086181640625 7.735416889190674 15.310091018676758 7.719728469848633 L15.310091018676758 7.719728469848633 M15.310091018676758 10.953619956970215 C15.825936317443848 10.953619956970215 16.247526168823242 10.531905174255371 16.247526168823242 9.766420364379883 C16.247526168823242 9.000934600830078 15.80999755859375 8.594658851623535 15.310091018676758 8.578969955444336 C14.810060501098633 8.578969955444336 14.40428352355957 8.985245704650879 14.40428352355957 9.766420364379883 C14.40428352355957 10.531905174255371 14.810060501098633 10.953619956970215 15.310091018676758 10.953619956970215 M8.483471870422363 9.90599536895752 C8.223993301391602 9.962273597717285 7.836643218994141 10.071717262268066 7.836643218994141 10.475876808166504 C7.836643218994141 10.711573600769043 7.954554080963135 10.960094451904297 8.385357856750488 10.960094451904297 C8.654548645019531 10.960094451904297 9.079874038696289 10.71593189239502 9.092449188232422 10.499533653259277 L9.123701095581055 9.750732421875 C8.936189651489258 9.8287992477417 8.705845832824707 9.857685089111328 8.483471870422363 9.90599536895752 L8.483471870422363 9.90599536895752 M8.062254905700684 11.774886131286621 C7.503206253051758 11.774886131286621 6.838075160980225 11.41692066192627 6.838075160980225 10.602502822875977 C6.838075160980225 9.971363067626953 7.302371978759766 9.563592910766602 7.8746185302734375 9.417045593261719 C8.43491268157959 9.273361206054688 9.218452453613281 9.273361206054688 9.218452453613281 8.814168930053711 C9.218452453613281 8.612587928771973 9.039655685424805 8.439022064208984 8.709456443786621 8.439022064208984 C8.066364288330078 8.439022064208984 8.08030891418457 9.087965965270996 7.576169013977051 9.087965965270996 C7.261283874511719 9.087965965270996 7.108261585235596 8.832845687866211 7.108261585235596 8.6571626663208 C7.092573165893555 8.26657485961914 7.342588901519775 8.000871658325195 7.702048301696777 7.860424995422363 C7.967503070831299 7.751104831695557 8.23295783996582 7.688601016998291 8.482973098754883 7.672913074493408 L8.623669624328613 7.672913074493408 C9.06107234954834 7.672913074493408 9.420282363891602 7.735416889190674 9.717238426208496 7.891552448272705 C9.998381614685059 8.04793643951416 10.201457023620605 8.376020431518555 10.201457023620605 8.641473770141602 C10.185768127441406 9.516404151916504 10.201457023620605 10.391209602355957 10.201457023620605 11.26613998413086 C10.185768127441406 11.562970161437988 10.029633522033691 11.750358581542969 9.717238426208496 11.781734466552734 C9.404718399047852 11.812862396240234 9.264147758483887 11.594223022460938 9.139264106750488 11.37558364868164 C8.929839134216309 11.571686744689941 8.692399024963379 11.774886131286621 8.062254905700684 11.774886131286621 M11.029695510864258 8.329204559326172 C11.029695510864258 8.016560554504395 11.264023780822754 7.8136091232299805 11.54504108428955 7.8136091232299805 C11.779369354248047 7.8136091232299805 11.951440811157227 7.922928333282471 12.060760498046875 8.094752311706543 C12.248147964477539 7.9540557861328125 12.38871955871582 7.8136091232299805 12.76374340057373 7.8136091232299805 C13.09207534790039 7.8290486335754395 13.248210906982422 8.079188346862793 13.248210906982422 8.297951698303223 C13.232646942138672 8.563406944274902 13.076262474060059 8.688538551330566 12.779057502746582 8.766481399536133 C12.357343673706055 8.875802040100098 12.060760498046875 9.204009056091309 12.060760498046875 9.563095092773438 L12.075950622558594 11.343958854675293 C12.075950622558594 11.578410148620605 11.842122077941895 11.765921592712402 11.56072998046875 11.781610488891602 C11.295026779174805 11.781610488891602 11.029695510864258 11.672290802001953 11.029695510864258 11.343958854675293 L11.029695510864258 8.329204559326172 L11.029695510864258 8.329204559326172" fill="black" fill-opacity="1.0" filling="0"/></svg>