<?xml version="1.0" encoding="iso-8859-1"?><svg height="200px" viewBox="0.0 0.0 24.0 24.0" width="200px" xmlns="http://www.w3.org/2000/svg"><path animation_id="0" d="M6.591760158538818 19.820226669311523 L3.2958803176879883 23.116107940673828 L-9.5367431640625e-07 19.820226669311523 L6.591760158538818 19.820226669311523" fill="black" fill-opacity="1.0" filling="0"/>
<path animation_id="1" d="M11.415730476379395 12.329588890075684 C10.726592063903809 11.520599365234375 10.756553649902344 11.071161270141602 11.176030158996582 10.651686668395996 C11.685393333435059 10.142322540283203 12.224719047546387 10.35206127166748 12.823969841003418 10.921348571777344 L11.415730476379395 12.329588890075684 M18.486892700195312 3.3408241271972656 C18.996253967285156 2.831460952758789 19.535581588745117 3.04119873046875 20.13483238220215 3.610487937927246 L18.726591110229492 5.018726825714111 C18.007492065429688 4.209738731384277 18.03745460510254 3.790262222290039 18.486892700195312 3.3408241271972656 L18.486892700195312 3.3408241271972656 M22.741573333740234 4.779026985168457 C22.11236000061035 5.737828254699707 20.97378158569336 7.2958807945251465 19.80524444580078 6.127341270446777 L22.771533966064453 3.1610488891601562 C22.501873016357422 2.891386032104492 22.322097778320312 2.6516857147216797 22.142322540283203 2.501873016357422 C20.554309844970703 0.9138584136962891 18.756555557250977 0.8838949203491211 17.34831428527832 2.292135238647461 C16.419475555419922 3.220974922180176 16.149812698364258 4.299625873565674 16.419475555419922 5.318352222442627 L15.490636825561523 4.2696638107299805 C15.250936508178711 4.3895134925842285 14.112360000610352 5.40824031829834 14.951311111450195 6.906367778778076 L13.902621269226074 6.037453651428223 L12.494382858276367 7.445693492889404 L14.411985397338867 9.363296508789062 C12.94382095336914 8.194757461547852 11.355804443359375 8.314607620239258 10.097378730773926 9.573034286499023 C8.749063491821289 10.921348571777344 8.838951110839844 12.569289207458496 9.857677459716797 13.917603492736816 L9.647940635681152 13.707866668701172 C8.299625396728516 12.359552383422852 6.831460475921631 12.83895206451416 6.112359523773193 13.558053970336914 C5.5430707931518555 14.127342224121094 5.213482856750488 14.876405715942383 5.363295555114746 15.415731430053711 L2.456928253173828 12.50936508178711 L0.8988761901855469 14.067416191101074 L6.651684761047363 19.820226669311523 L9.73782730102539 19.820226669311523 L7.670411586761475 17.752811431884766 C6.591760158538818 16.644195556640625 6.561797618865967 16.074907302856445 7.101123332977295 15.535581588745117 C7.6104865074157715 15.02621841430664 8.209736824035645 15.355806350708008 9.258426666259766 16.37453269958496 L11.295880317687988 18.411985397338867 L12.823969841003418 16.883895874023438 L10.876404762268066 14.936330795288086 C12.28464412689209 15.98501968383789 13.962546348571777 16.044944763183594 15.460674285888672 14.546817779541016 L15.490636825561523 14.516854286193848 C16.419475555419922 13.677903175354004 16.68914031982422 12.83895206451416 16.68914031982422 12.83895206451416 L15.520599365234375 12.05992603302002 C14.891386032104492 13.01872730255127 13.782772064208984 14.576780319213867 12.614232063293457 13.408241271972656 L15.580524444580078 10.441947937011719 L17.438201904296875 12.299626350402832 L19.056180953979492 10.681648254394531 L16.74906349182129 8.374532699584961 C15.670412063598633 7.2958807945251465 16.299625396728516 6.277154445648193 16.74906349182129 5.887640953063965 C16.95880126953125 6.337079048156738 17.258426666259766 6.756555080413818 17.647939682006836 7.146068096160889 C19.146068572998047 8.644195556640625 21.063671112060547 8.94382095336914 22.771533966064453 7.265918254852295 L22.801498413085938 7.235955238342285 C23.73033905029297 6.397004127502441 24.000001907348633 5.558053016662598 24.000001907348633 5.558053016662598 L22.741573333740234 4.779026985168457" fill="black" fill-opacity="1.0" filling="0"/></svg>