<?xml version="1.0" encoding="iso-8859-1"?><svg height="200px" viewBox="0.0 0.0 24.0 24.0" width="200px" xmlns="http://www.w3.org/2000/svg"><path animation_id="0" d="M0.0 0.0 L24.0 0.0 L24.0 24.0 L0.0 24.0 L0.0 0.0" fill="black" fill-opacity="1.0" filling="0"/>
<path animation_id="1" d="M13.473074913024902 8.822760581970215 C15.544792175292969 8.822760581970215 17.43235969543457 9.022224426269531 18.936187744140625 9.329141616821289 C17.708398818969727 8.761377334594727 15.71350383758545 8.377762794494629 13.473074913024902 8.377762794494629 C11.217331886291504 8.377762794494629 9.222436904907227 8.761377334594727 7.994894981384277 9.329141616821289 C9.498723983764648 9.022224426269531 11.401481628417969 8.822760581970215 13.473074913024902 8.822760581970215 L13.473074913024902 8.822760581970215" fill="black" fill-opacity="1.0" filling="0"/>
<path animation_id="2" d="M9.283821105957031 9.927536010742188 C10.941169738769531 9.927536010742188 12.460436820983887 9.774139404296875 13.657349586486816 9.513166427612305 C12.675092697143555 9.973479270935059 11.079126358032227 10.280396461486816 9.283821105957031 10.280396461486816 C7.488514423370361 10.280396461486816 5.892548084259033 9.973479270935059 4.910415172576904 9.513166427612305 C6.107327461242676 9.774139404296875 7.6265950202941895 9.927536010742188 9.283821105957031 9.927536010742188 L9.283821105957031 9.927536010742188" fill="black" fill-opacity="1.0" filling="0"/>
<path animation_id="3" d="M1.3963775634765625 11.554130554199219 L1.580526351928711 11.554130554199219 C1.6725397109985352 11.554130554199219 1.7492380142211914 11.538691520690918 1.841374397277832 11.538691520690918 C2.1022233963012695 11.538691520690918 2.4091386795043945 11.554130554199219 2.6086034774780273 11.73828125 C2.6853017807006836 11.81497859954834 2.80806827545166 11.968499183654785 2.80806827545166 12.229223251342773 C2.80806827545166 12.39805793762207 2.7619991302490234 12.551578521728516 2.639357566833496 12.68966007232666 C2.393824577331543 13.011890411376953 2.0562782287597656 13.011890411376953 1.3963775634765625 13.011890411376953 L1.3963775634765625 11.554130554199219 M1.4271306991577148 14.561788558959961 C1.411691665649414 14.070846557617188 1.411691665649414 13.917325973510742 1.411691665649414 13.257423400878906 L1.5191431045532227 13.257423400878906 C1.9795808792114258 13.257423400878906 2.4398927688598633 13.242109298706055 2.7621240615844727 12.996451377868652 C2.9308347702026367 12.858495712280273 3.115109443664551 12.612961769104004 3.115109443664551 12.229223251342773 C3.115109443664551 11.906991004943848 2.9617137908935547 11.692212104797363 2.8388214111328125 11.554130554199219 C2.56265926361084 11.308597564697266 2.2403039932250977 11.308597564697266 1.8720035552978516 11.293283462524414 L1.703293800354004 11.308597564697266 L1.0894603729248047 11.324036598205566 L1.058706283569336 11.339475631713867 C1.0894603729248047 11.799788475036621 1.0894603729248047 11.83041763305664 1.0894603729248047 12.44425106048584 C1.0894603729248047 12.659154891967773 1.1047754287719727 13.641162872314453 1.1047754287719727 13.825437545776367 L1.1047754287719727 14.561912536621094 L1.1200895309448242 14.592666625976562 L1.411691665649414 14.592666625976562 L1.4271306991577148 14.561788558959961 L1.4271306991577148 14.561788558959961 M4.419473171234131 13.211356163024902 L4.419473171234131 14.147543907165527 C4.2813920974731445 14.270186424255371 4.1125569343566895 14.393077850341797 3.8209543228149414 14.393077850341797 C3.43734073638916 14.393077850341797 3.268505096435547 14.116789817810059 3.268505096435547 13.871381759643555 C3.268505096435547 13.625972747802734 3.452655792236328 13.487767219543457 3.4834089279174805 13.472453117370605 C3.621490478515625 13.36512565612793 3.774886131286621 13.334371566772461 4.173940181732178 13.257548332214355 L4.419473171234131 13.211356163024902 L4.419473171234131 13.211356163024902 M3.2378759384155273 12.567017555236816 L3.268630027770996 12.582332611083984 C3.4835338592529297 12.475005149841309 3.621490478515625 12.398181915283203 3.928407669067383 12.398181915283203 C4.250638008117676 12.398181915283203 4.358089923858643 12.566892623901367 4.388844013214111 12.613086700439453 C4.419473171234131 12.689784049987793 4.419473171234131 12.797235488891602 4.419473171234131 12.920002937316895 L4.419473171234131 12.98126220703125 L4.020544052124023 13.042644500732422 C3.7596960067749023 13.088713645935059 3.422025680541992 13.13465690612793 3.2225608825683594 13.318931579589844 C3.0691652297973633 13.472328186035156 2.9770278930664062 13.671916961669922 2.9770278930664062 13.886695861816406 C2.9770278930664062 14.34700870513916 3.2992591857910156 14.63861083984375 3.7750110626220703 14.63861083984375 C4.005229473114014 14.63861083984375 4.220008850097656 14.561912536621094 4.419473171234131 14.408391952514648 L4.434788227081299 14.577227592468262 L4.465542316436768 14.607856750488281 L4.711075305938721 14.592541694641113 L4.741828918457031 14.546473503112793 C4.711075305938721 14.116789817810059 4.695760726928711 13.994023323059082 4.711075305938721 13.36500072479248 L4.711075305938721 13.07339859008789 C4.711075305938721 12.628400802612305 4.711075305938721 12.520824432373047 4.572994232177734 12.382743835449219 C4.465666770935059 12.260101318359375 4.2813920974731445 12.1525239944458 3.959160804748535 12.1525239944458 C3.6522445678710938 12.1525239944458 3.452779769897461 12.229223251342773 3.268630027770996 12.305920600891113 L3.253190040588379 12.336674690246582 L3.2378759384155273 12.567017555236816 L3.2378759384155273 12.567017555236816 M6.061383247375488 12.490195274353027 L6.030629634857178 12.520824432373047 C5.9692463874816895 12.47488021850586 5.907863140106201 12.459566116333008 5.831040382385254 12.459566116333008 C5.708273887634277 12.459566116333008 5.616261005401611 12.505510330200195 5.554877758026123 12.582207679748535 C5.386167049407959 12.735604286193848 5.3707275390625 12.9811372756958 5.3707275390625 13.426135063171387 C5.3707275390625 13.763805389404297 5.386042594909668 14.224117279052734 5.386042594909668 14.561664581298828 L5.3707275390625 14.592416763305664 L5.079125881195068 14.592416763305664 L5.063686847686768 14.561664581298828 L5.063686847686768 13.779119491577148 C5.063686847686768 13.272738456726074 5.063686847686768 12.72028923034668 5.032933235168457 12.259977340698242 L5.063686847686768 12.229223251342773 L5.324534893035889 12.198593139648438 L5.355288982391357 12.229223251342773 L5.355288982391357 12.582207679748535 C5.3707275390625 12.520824432373047 5.401357173919678 12.459566116333008 5.447425842285156 12.413496971130371 C5.5241241455078125 12.290730476379395 5.6776442527771 12.167963981628418 5.861669540405273 12.167963981628418 C5.93836784362793 12.167963981628418 5.999751091003418 12.18327808380127 6.076573848724365 12.213908195495605 L6.107203006744385 12.244662284851074 L6.061383247375488 12.490195274353027 M6.951503753662109 12.44412612915039 L6.951503753662109 14.024653434753418 C6.966818332672119 14.239557266235352 7.012887001037598 14.362323760986328 7.24298095703125 14.362323760986328 C7.334993362426758 14.362323760986328 7.396376609802246 14.346883773803711 7.457760334014893 14.316255569458008 L7.488514423370361 14.346883773803711 L7.473074913024902 14.546473503112793 L7.442320823669434 14.592541694641113 C7.350308418273926 14.607856750488281 7.2889251708984375 14.623170852661133 7.1967878341674805 14.623170852661133 C6.6597771644592285 14.623170852661133 6.6597771644592285 14.239557266235352 6.6597771644592285 13.855941772460938 L6.6597771644592285 12.44412612915039 L6.291477203369141 12.459566116333008 L6.26072359085083 12.428812026977539 L6.27603816986084 12.229223251342773 L6.291477203369141 12.198593139648438 L6.6597771644592285 12.213908195495605 L6.6443376541137695 11.646143913269043 L6.675091743469238 11.615389823913574 L6.951379299163818 11.55400562286377 L6.982008457183838 11.584759712219238 L6.951379299163818 12.213908195495605 L7.48838996887207 12.198593139648438 L7.503704071044922 12.229223251342773 L7.503704071044922 12.428812026977539 L7.472950458526611 12.459566116333008 L6.951503753662109 12.44412612915039 L6.951503753662109 12.44412612915039 M8.040964126586914 14.592541694641113 L7.764801025390625 14.592541694641113 L7.749361991882324 14.561788558959961 C7.749361991882324 14.316255569458008 7.764801025390625 14.193489074707031 7.764801025390625 13.994023323059082 C7.764801025390625 13.763805389404297 7.749361991882324 13.518396377563477 7.749361991882324 13.272738456726074 C7.749361991882324 12.73572826385498 7.7340474128723145 12.628276824951172 7.703293323516846 12.259977340698242 L7.7340474128723145 12.229223251342773 L8.010334014892578 12.18327808380127 L8.040964126586914 12.213908195495605 L8.025649070739746 12.459566116333008 C8.209798812866211 12.336798667907715 8.4859619140625 12.1525239944458 8.85426139831543 12.1525239944458 C8.946273803710938 12.1525239944458 9.22256088256836 12.1525239944458 9.422025680541992 12.382743835449219 C9.590736389160156 12.551578521728516 9.590736389160156 12.7817964553833 9.590736389160156 13.13465690612793 L9.590736389160156 13.610408782958984 C9.606176376342773 14.101350784301758 9.606176376342773 14.162858963012695 9.621490478515625 14.561788558959961 L9.590736389160156 14.592541694641113 L9.314573287963867 14.592541694641113 L9.299134254455566 14.561788558959961 L9.299134254455566 14.040092468261719 C9.299134254455566 13.855941772460938 9.299134254455566 13.211480140686035 9.283821105957031 12.965947151184082 C9.283821105957031 12.858619689941406 9.268506050109863 12.689784049987793 9.17636775970459 12.567017555236816 C9.09967041015625 12.475005149841309 8.946149826049805 12.413620948791504 8.77743911743164 12.413620948791504 C8.439767837524414 12.413620948791504 8.163606643676758 12.628525733947754 8.025525093078613 12.720538139343262 C8.040840148925781 13.503081321716309 8.040840148925781 13.687355995178223 8.07159423828125 14.561912536621094 L8.040964126586914 14.592541694641113 L8.040964126586914 14.592541694641113 M13.166158676147461 12.490195274353027 L13.120214462280273 12.520824432373047 C13.058956146240234 12.47488021850586 13.012762069702148 12.459566116333008 12.936064720153809 12.459566116333008 C12.813298225402832 12.459566116333008 12.721035957336426 12.505510330200195 12.644462585449219 12.582207679748535 C12.491065979003906 12.735604286193848 12.460311889648438 12.9811372756958 12.460311889648438 13.426135063171387 C12.460311889648438 13.763805389404297 12.475626945495605 14.224117279052734 12.490942001342773 14.561664581298828 L12.460311889648438 14.592416763305664 L12.184025764465332 14.592416763305664 L12.153396606445312 14.561664581298828 C12.168710708618164 14.25474739074707 12.168710708618164 14.101350784301758 12.168710708618164 13.779119491577148 C12.168710708618164 13.272738456726074 12.168710708618164 12.72028923034668 12.122517585754395 12.259977340698242 L12.153396606445312 12.229223251342773 L12.429434776306152 12.198593139648438 L12.460311889648438 12.229223251342773 L12.444998741149902 12.582207679748535 C12.475626945495605 12.520824432373047 12.506257057189941 12.459566116333008 12.536886215209961 12.413496971130371 C12.61370849609375 12.290730476379395 12.767229080200195 12.167963981628418 12.966568946838379 12.167963981628418 C13.027828216552734 12.167963981628418 13.089335441589355 12.18327808380127 13.166033744812012 12.213908195495605 L13.196662902832031 12.244662284851074 L13.166158676147461 12.490195274353027 L13.166158676147461 12.490195274353027 M18.306793212890625 13.34956169128418 C18.306793212890625 13.733175277709961 18.260848999023438 14.147543907165527 17.861793518066406 14.147543907165527 C17.75459098815918 14.147543907165527 17.662328720092773 14.10147476196289 17.616384506225586 14.040092468261719 C17.524248123168945 13.963519096374512 17.447673797607422 13.809873580932617 17.447673797607422 13.36500072479248 C17.447673797607422 13.226919174194336 17.447673797607422 12.920002937316895 17.53956413269043 12.766481399536133 C17.601072311401367 12.643714904785156 17.723712921142578 12.551578521728516 17.877357482910156 12.551578521728516 C17.999874114990234 12.551578521728516 18.107452392578125 12.628276824951172 18.168710708618164 12.704974174499512 C18.27616310119629 12.827740669250488 18.306793212890625 13.104028701782227 18.306793212890625 13.34956169128418 L18.306793212890625 13.34956169128418 M19.10489845275879 13.34956169128418 C19.10489845275879 13.165410995483398 19.10489845275879 12.428812026977539 18.460187911987305 12.16808795928955 C18.260723114013672 12.091265678405762 18.01519012451172 12.075950622558594 17.892547607421875 12.075950622558594 C17.079126358032227 12.075950622558594 16.63412857055664 12.505634307861328 16.63412857055664 13.36512565612793 C16.63412857055664 13.656601905822754 16.680320739746094 13.963644027709961 16.849157333374023 14.209052085876465 C16.971923828125 14.39320182800293 17.20201873779297 14.63861083984375 17.861793518066406 14.63861083984375 C18.844051361083984 14.6384859085083 19.10489845275879 14.055407524108887 19.10489845275879 13.34956169128418 L19.10489845275879 13.34956169128418 M22.219884872436523 14.592541694641113 C21.851709365844727 14.577227592468262 21.7136287689209 14.592541694641113 21.360767364501953 14.607856750488281 L21.32988929748535 14.561788558959961 L21.14573860168457 13.564340591430664 L21.069164276123047 13.226795196533203 L21.007659912109375 12.873809814453125 L20.884891510009766 13.42625904083252 L20.746810913085938 13.994148254394531 L20.639606475830078 14.546598434448242 L20.608978271484375 14.592666625976562 C20.17929458618164 14.577352523803711 20.0564022064209 14.592666625976562 19.749610900878906 14.607980728149414 L19.718982696533203 14.577352523803711 C19.580902099609375 14.009462356567383 19.519268035888672 13.733301162719727 19.07427215576172 12.198718070983887 L19.105148315429688 12.16808795928955 L19.85706329345703 12.106704711914062 L19.887691497802734 12.137334823608398 L20.041088104248047 12.904687881469727 L20.148540496826172 13.3956298828125 L20.240428924560547 13.855941772460938 L20.332565307617188 13.42625904083252 L20.439769744873047 12.920002937316895 L20.593164443969727 12.16808795928955 L20.624042510986328 12.137334823608398 L21.5140380859375 12.12201976776123 L21.544666290283203 12.15264892578125 L21.69806480407715 12.950632095336914 L21.805267333984375 13.42625904083252 L21.882089614868164 13.840627670288086 L21.974225997924805 13.410943984985352 L22.096744537353516 12.858495712280273 L22.234825134277344 12.167963981628418 L22.265703201293945 12.13720989227295 L22.87953758239746 12.121895790100098 L22.894851684570312 12.1525239944458 C22.84865951538086 12.336674690246582 22.802715301513672 12.536138534545898 22.741455078125 12.720414161682129 C22.465167999267578 13.71786117553711 22.434539794921875 13.840627670288086 22.25026512145996 14.546473503112793 L22.219884872436523 14.592541694641113 L22.219884872436523 14.592541694641113 M10.864471435546875 12.15264892578125 C10.189254760742188 12.15264892578125 9.77501106262207 12.674345016479492 9.77501106262207 13.410943984985352 C9.77501106262207 14.10147476196289 10.189379692077637 14.6384859085083 10.941293716430664 14.6384859085083 C11.34022331237793 14.6384859085083 11.555127143859863 14.515844345092773 11.739275932312012 14.408267974853516 L11.77003002166748 14.362323760986328 L11.785345077514648 14.101350784301758 L11.75459098815918 14.070722579956055 C11.631824493408203 14.178049087524414 11.40173053741455 14.37763786315918 10.972047805786133 14.37763786315918 C10.77245807647705 14.37763786315918 10.373529434204102 14.316255569458008 10.174064636230469 13.871256828308105 C10.081927299499512 13.671792984008789 10.081927299499512 13.518396377563477 10.081927299499512 13.36500072479248 L11.831290245056152 13.36500072479248 L11.862043380737305 13.334246635437012 C11.862043380737305 13.104028701782227 11.846604347229004 12.7817964553833 11.647139549255371 12.505634307861328 C11.432235717773438 12.229347229003906 11.156072616577148 12.15264892578125 10.864471435546875 12.15264892578125 L10.864471435546875 12.15264892578125 M10.097118377685547 13.13465690612793 C10.112557411193848 13.012015342712402 10.14318561553955 12.812426567077637 10.296707153320312 12.628400802612305 C10.43478775024414 12.45969009399414 10.649567604064941 12.382743835449219 10.864471435546875 12.382743835449219 C10.971923828125 12.382743835449219 11.248085021972656 12.382743835449219 11.432235717773438 12.674345016479492 C11.539688110351562 12.843180656433105 11.539688110351562 12.996576309204102 11.555002212524414 13.13465690612793 L10.097118377685547 13.13465690612793 M22.833717346191406 14.607856750488281 L22.803089141845703 14.607856750488281 L22.757144927978516 14.423707008361816 L22.74182891845703 14.37763786315918 L22.74182891845703 14.607731819152832 L22.71095085144043 14.607731819152832 L22.71095085144043 14.346759796142578 L22.757144927978516 14.346759796142578 L22.818403244018555 14.561664581298828 L22.895225524902344 14.346759796142578 L22.94116973876953 14.346759796142578 L22.94116973876953 14.607731819152832 L22.910539627075195 14.607731819152832 L22.910539627075195 14.37763786315918 L22.895225524902344 14.423707008361816 L22.833717346191406 14.607856750488281 L22.833717346191406 14.607856750488281 M22.603622436523438 14.607856750488281 L22.572994232177734 14.607856750488281 L22.572994232177734 14.37763786315918 L22.48085594177246 14.37763786315918 L22.48085594177246 14.346883773803711 L22.680320739746094 14.346883773803711 L22.680320739746094 14.37763786315918 L22.603748321533203 14.37763786315918 L22.603748321533203 14.607856750488281 L22.603622436523438 14.607856750488281 L22.603622436523438 14.607856750488281 M16.450103759765625 11.324036598205566 L16.43478775024414 11.293283462524414 C16.1431884765625 11.308597564697266 16.051048278808594 11.324036598205566 15.77501106262207 11.308597564697266 L15.744132995605469 11.339351654052734 L15.77501106262207 11.968499183654785 L15.805641174316406 12.613086700439453 L15.820955276489258 13.36500072479248 C15.682873725891113 13.149971961975098 15.652244567871094 13.104028701782227 15.42190170288086 12.751043319702148 L15.007533073425293 12.13720989227295 C14.654672622680664 11.615513801574707 14.578099250793457 11.508062362670898 14.470646858215332 11.323911666870117 L14.440017700195312 11.293157577514648 C14.071593284606934 11.323911666870117 14.010334968566895 11.323911666870117 13.672788619995117 11.308472633361816 L13.641910552978516 11.339226722717285 C13.672788619995117 12.075701713562012 13.672788619995117 12.582083702087402 13.688102722167969 12.888999938964844 L14.22498893737793 12.888999938964844 C14.22498893737793 12.904438972473145 14.240303993225098 12.904438972473145 14.240303993225098 12.919754028320312 L14.240303993225098 12.935068130493164 L14.16373062133789 13.103778839111328 L14.16373062133789 13.11909294128418 L14.148416519165039 13.134407997131348 L13.104899406433105 13.134407997131348 L13.089584350585938 13.149723052978516 L13.012762069702148 13.333873748779297 C13.012762069702148 13.349187850952148 13.028077125549316 13.36462688446045 13.043392181396484 13.36462688446045 L13.688102722167969 13.36462688446045 C13.688102722167969 13.748241424560547 13.672788619995117 14.208553314208984 13.672788619995117 14.57685375213623 L13.688102722167969 14.60748291015625 C14.010334968566895 14.592168807983398 14.102222442626953 14.592168807983398 14.363195419311523 14.592168807983398 L14.393823623657227 14.56141471862793 L14.347880363464355 13.471954345703125 L14.301936149597168 12.351740837097168 C14.516716003417969 12.720040321350098 14.593538284301758 12.827367782592773 14.915769577026367 13.28780460357666 L15.376081466674805 13.978459358215332 L15.790450096130371 14.576977729797363 L15.821080207824707 14.6076078414917 C16.097366333007812 14.592292785644531 16.189254760742188 14.592292785644531 16.434911727905273 14.592292785644531 L16.450225830078125 14.561538696289062 L16.450225830078125 12.873559951782227 L16.450103759765625 11.324036598205566 L16.450103759765625 11.324036598205566" fill="black" fill-opacity="1.0" filling="0"/></svg>