<?xml version="1.0" encoding="iso-8859-1"?><svg height="200px" viewBox="0.0 0.0 24.0 24.0" width="200px" xmlns="http://www.w3.org/2000/svg"><path animation_id="0" d="M0.0 0.0 L24.0 0.0 L24.0 24.0 L0.0 24.0 L0.0 0.0" fill="black" fill-opacity="1.0" filling="0"/>
<path animation_id="1" d="M0.3529853820800781 15.540185928344727 L0.7146854400634766 15.540185928344727 C1.437713623046875 12.601258277893066 2.1194047927856445 9.862167358398438 2.2015810012817383 9.602938652038574 C2.2741708755493164 9.373841285705566 2.4285621643066406 9.15507698059082 2.624415397644043 8.997323036193848 C2.8113059997558594 8.84679126739502 3.037165641784668 8.750295639038086 3.268630027770996 8.750295639038086 L8.918882369995117 8.750295639038086 C8.952624320983887 8.567017555236816 8.963456153869629 8.461309432983398 8.943659782409668 8.461309432983398 L2.8824005126953125 8.461309432983398 C2.4553327560424805 8.461309432983398 2.0446996688842773 8.834837913513184 1.9133405685424805 9.242109298706055 C1.7326774597167969 9.8193359375 0.3201141357421875 15.540185928344727 0.3529853820800781 15.540185928344727 L0.3529853820800781 15.540185928344727 M0.9257297515869141 15.540185928344727 L1.2737350463867188 15.540185928344727 C1.9518156051635742 12.787400245666504 2.565896987915039 10.323725700378418 2.6435909271240234 10.07856559753418 C2.7161808013916016 9.849468231201172 2.870572090148926 9.630703926086426 3.0664262771606445 9.472949981689453 C3.253190040588379 9.322418212890625 3.479175567626953 9.225923538208008 3.7106399536132812 9.225923538208008 L8.819896697998047 9.225923538208008 C8.841686248779297 9.127933502197266 8.861233711242676 9.037664413452148 8.878292083740234 8.955737113952637 L3.268505096435547 8.955737113952637 C3.0860986709594727 8.955737113952637 2.9049367904663086 9.034302711486816 2.75266170501709 9.157069206237793 C2.5876855850219727 9.289920806884766 2.45794677734375 9.473447799682617 2.397310256958008 9.664819717407227 C2.31588077545166 9.921807289123535 1.6426572799682617 12.6260347366333 0.9257297515869141 15.540185928344727 L0.9257297515869141 15.540185928344727 M1.4847793579101562 15.540185928344727 L1.866525650024414 15.540185928344727 C2.496793746948242 12.984872817993164 3.046006202697754 10.78515911102295 3.1192188262939453 10.554192543029785 C3.191807746887207 10.324971199035645 3.3460750579833984 10.106330871582031 3.54205322265625 9.948577880859375 C3.728817939758301 9.79804515838623 3.954803466796875 9.701550483703613 4.186266899108887 9.701550483703613 L8.710204124450684 9.701550483703613 C8.732491493225098 9.607545852661133 8.753533363342285 9.517400741577148 8.773329734802246 9.431364059448242 L3.710515022277832 9.431364059448242 C3.5281076431274414 9.431364059448242 3.3469467163085938 9.510053634643555 3.1946706771850586 9.632696151733398 C3.029695510864258 9.765548706054688 2.899956703186035 9.94895076751709 2.839320182800293 10.140447616577148 C2.7622480392456055 10.383365631103516 2.156508445739746 12.813298225402832 1.4847793579101562 15.540185928344727 L1.4847793579101562 15.540185928344727 M2.077569007873535 15.540185928344727 L2.4427566528320312 15.540185928344727 C3.0225982666015625 13.192554473876953 3.5094308853149414 11.246217727661133 3.578036308288574 11.029695510864258 C3.6506261825561523 10.80059814453125 3.8050174713134766 10.581833839416504 4.0008721351623535 10.424080848693848 C4.187760829925537 10.273548126220703 4.41362190246582 10.177177429199219 4.645084857940674 10.177177429199219 L8.59565544128418 10.177177429199219 L8.661272048950195 9.906991958618164 L4.186391353607178 9.906991958618164 C4.003983974456787 9.906991958618164 3.8228225708007812 9.985556602478027 3.6704225540161133 10.108323097229004 C3.5054473876953125 10.241175651550293 3.37570858001709 10.424577713012695 3.3150720596313477 10.616074562072754 C3.2423582077026367 10.844674110412598 2.7012386322021484 13.01176643371582 2.077569007873535 15.540185928344727 L2.077569007873535 15.540185928344727 M2.6536760330200195 15.540185928344727 L6.413870811462402 15.540185928344727 C6.955986022949219 15.540185928344727 7.185831069946289 15.200647354125977 7.366494655609131 14.759385108947754 C7.478304386138916 14.475627899169922 8.112805366516113 12.128619194030762 8.544855117797852 10.38249397277832 L4.644960403442383 10.38249397277832 C4.462553977966309 10.38249397277832 4.2813920974731445 10.4610595703125 4.129116535186768 10.583702087402344 C3.9641408920288086 10.716678619384766 3.834402084350586 10.900080680847168 3.7737655639648438 11.091452598571777 C3.7057838439941406 11.305858612060547 3.226670265197754 13.220693588256836 2.6536760330200195 15.540185928344727 L2.6536760330200195 15.540185928344727" fill="black" fill-opacity="1.0" filling="0"/>
<path animation_id="2" d="M3.723464012145996 8.974662780761719 L4.012077331542969 9.263276100158691 C4.487331390380859 9.806512832641602 4.759011745452881 10.519454956054688 4.8948516845703125 10.80806827545166 C4.8948516845703125 10.80806827545166 5.064558029174805 11.181597709655762 5.234389781951904 11.673785209655762 C5.234389781951904 11.690841674804688 5.302247524261475 11.826558113098145 5.302247524261475 12.098237991333008 C5.302247524261475 12.369918823242188 5.2513227462768555 12.692275047302246 5.2513227462768555 12.675341606140137 C5.2513227462768555 12.692399024963379 5.2003984451293945 12.981013298034668 5.183465480804443 13.116727828979492 C5.166531562805176 13.252693176269531 5.098549842834473 13.388408660888672 5.064682483673096 13.558115005493164 C4.979767322540283 13.846728324890137 4.844051361083984 14.152151107788086 4.844051361083984 14.135466575622559 C4.844051361083984 14.152276039123535 4.606362342834473 14.729503631591797 4.606362342834473 14.712570190429688 C4.606362342834473 14.72962760925293 4.521446704864502 14.95013427734375 4.504513740539551 15.171014785766602 C4.504513740539551 15.171014785766602 4.436655521392822 15.391520500183105 4.521446704864502 15.493494033813477 C4.538504600524902 15.527485847473145 4.759136199951172 15.595343589782715 4.860984802246094 15.544544219970703 C4.996700763702393 15.442694664001465 5.064682483673096 15.289921760559082 5.166531562805176 15.171014785766602 L5.675776481628418 14.508871078491211 L6.35485315322876 13.507439613342285 L6.7453155517578125 12.811429977416992 L6.932079792022705 12.318994522094727 C6.965946674346924 12.166220664978027 6.983004570007324 12.013571739196777 6.999938011169434 11.860798835754395 C7.016870975494385 11.606175422668457 6.949013710021973 11.351552963256836 6.7453155517578125 10.978023529052734 L6.490693092346191 10.621552467346191 L5.981448173522949 10.044449806213379 L5.234514236450195 9.382431983947754 L4.368673801422119 8.601507186889648 C4.181909084320068 8.533649444580078 3.9103527069091797 8.31289291381836 3.621739387512207 8.533649444580078 C3.621614456176758 8.533275604248047 3.468841552734375 8.872814178466797 3.723464012145996 8.974662780761719 L3.723464012145996 8.974662780761719" fill="black" fill-opacity="1.0" filling="0"/>
<path animation_id="3" d="M7.74425745010376 15.523377418518066 L8.282512664794922 13.835647583007812 L8.858993530273438 13.835647583007812 C8.984374046325684 13.835647583007812 9.071157455444336 13.839507102966309 9.120338439941406 13.846853256225586 C9.202016830444336 13.858806610107422 9.269750595092773 13.881590843200684 9.323787689208984 13.916204452514648 C9.37745189666748 13.95069408416748 9.415925025939941 13.996638298034668 9.439955711364746 14.054534912109375 C9.46348762512207 14.111684799194336 9.471456527709961 14.175434112548828 9.463861465454102 14.24540901184082 A0.43777626752853394 0.43777626752853394 0.0 0 1 9.359024047851562 14.48907470703125 C9.299384117126465 14.557430267333984 9.213098526000977 14.609724044799805 9.099919319152832 14.644960403442383 C9.184212684631348 14.668493270874023 9.247213363647461 14.711075782775879 9.289299011230469 14.771960258483887 C9.331258773803711 14.833219528198242 9.34819221496582 14.90207290649414 9.339725494384766 14.978647232055664 C9.328643798828125 15.079998016357422 9.289422988891602 15.176368713378906 9.222187995910645 15.267010688781738 A0.56826251745224 0.56826251745224 0.0 0 1 8.962211608886719 15.46348762512207 C8.856502532958984 15.503082275390625 8.715930938720703 15.523252487182617 8.54024887084961 15.523252487182617 L7.74425745010376 15.523252487182617 L7.74425745010376 15.523377418518066 L7.74425745010376 15.523377418518066 M8.411504745483398 14.516839981079102 L8.676336288452148 14.516839981079102 C8.795493125915527 14.516839981079102 8.882026672363281 14.508871078491211 8.935690879821777 14.491813659667969 C8.989852905273438 14.475004196166992 9.032061576843262 14.447362899780273 9.06231689453125 14.408889770507812 A0.23532341420650482 0.23532341420650482 0.0 0 0 9.114984512329102 14.285874366760254 C9.11971664428711 14.242794036865234 9.111498832702637 14.20730972290039 9.089709281921387 14.179792404174805 C9.068418502807617 14.152276039123535 9.035299301147461 14.133848190307617 8.990848541259766 14.124385833740234 C8.966196060180664 14.12027645111084 8.905435562133789 14.117786407470703 8.808815002441406 14.117786407470703 L8.539251327514648 14.117786407470703 L8.411504745483398 14.516839981079102 L8.411504745483398 14.516839981079102 M8.178297996520996 15.251697540283203 L8.513105392456055 15.251697540283203 C8.653800964355469 15.251697540283203 8.748677253723145 15.242731094360352 8.798480987548828 15.224678039550781 A0.27989789843559265 0.27989789843559265 0.0 0 0 8.923364639282227 15.135404586791992 C8.956982612609863 15.093818664550781 8.975907325744629 15.0499906539917 8.980887413024902 15.004046440124512 C8.98698902130127 14.947893142700195 8.971176147460938 14.901451110839844 8.934072494506836 14.865467071533203 C8.896719932556152 14.828986167907715 8.829608917236328 14.810808181762695 8.732864379882812 14.810808181762695 L8.318246841430664 14.810808181762695 L8.178297996520996 15.251697540283203 M9.630952835083008 14.861109733581543 C9.641786575317383 14.761626243591309 9.668680191040039 14.656291007995605 9.710638999938965 14.545974731445312 C9.76567268371582 14.397933959960938 9.839507102966309 14.269189834594727 9.931644439697266 14.159995079040527 A1.0233455896377563 1.0233455896377563 0.0 0 1 10.263214111328125 13.901762008666992 C10.392455101013184 13.838261604309082 10.534645080566406 13.806885719299316 10.690655708312988 13.806885719299316 C10.899333953857422 13.806885719299316 11.060823440551758 13.871631622314453 11.17512321472168 14.00124454498291 C11.289796829223633 14.131109237670898 11.335118293762207 14.303305625915527 11.311710357666016 14.516839981079102 C11.29216194152832 14.69538688659668 11.231775283813477 14.867459297180176 11.129801750183105 15.034053802490234 C11.027952194213867 15.200647354125977 10.90032958984375 15.328767776489258 10.747058868408203 15.418291091918945 A0.9754093289375305 0.9754093289375305 0.0 0 1 10.245035171508789 15.553258895874023 C10.08777904510498 15.553258895874023 9.9596586227417 15.517524719238281 9.860548973083496 15.446305274963379 C9.761938095092773 15.374836921691895 9.696196556091309 15.28656005859375 9.66282844543457 15.180727005004883 A0.7773143649101257 0.7773143649101257 0.0 0 1 9.630952835083008 14.861109733581543 L9.630952835083008 14.861109733581543 M9.974724769592285 14.854635238647461 C9.962024688720703 14.970429420471191 9.986802101135254 15.067421913146973 10.048933029174805 15.14573860168457 C10.111186981201172 15.224056243896484 10.199588775634766 15.263151168823242 10.3147611618042 15.263151168823242 C10.408267974853516 15.263151168823242 10.501649856567383 15.232024192810059 10.594907760620117 15.170516967773438 C10.688165664672852 15.108759880065918 10.76947021484375 15.015377044677734 10.839818000793457 14.889373779296875 C10.90979290008545 14.764117240905762 10.951379776000977 14.641847610473633 10.964327812194824 14.522941589355469 C10.978896141052246 14.390213012695312 10.954492568969727 14.285874366760254 10.891613960266113 14.210421562194824 C10.828363418579102 14.13459587097168 10.741704940795898 14.096868515014648 10.630891799926758 14.096868515014648 C10.46155834197998 14.096868515014648 10.315010070800781 14.175931930541992 10.19124698638916 14.334184646606445 C10.06785774230957 14.492311477661133 9.995393753051758 14.665380477905273 9.974724769592285 14.854635238647461 L9.974724769592285 14.854635238647461 M11.46485710144043 14.861109733581543 C11.475689888000488 14.761626243591309 11.502584457397461 14.656291007995605 11.544543266296387 14.545974731445312 C11.599576950073242 14.397933959960938 11.673410415649414 14.269189834594727 11.765548706054688 14.159995079040527 A1.0233455896377563 1.0233455896377563 0.0 0 1 12.09711742401123 13.901762008666992 C12.226358413696289 13.838261604309082 12.368548393249512 13.806885719299316 12.52455997467041 13.806885719299316 C12.733238220214844 13.806885719299316 12.89472770690918 13.871631622314453 13.009151458740234 14.00124454498291 C13.123825073242188 14.131109237670898 13.169021606445312 14.303305625915527 13.14573860168457 14.516839981079102 C13.126190185546875 14.69538688659668 13.065678596496582 14.867459297180176 12.963705062866211 15.034053802490234 C12.861857414245605 15.200647354125977 12.734233856201172 15.328767776489258 12.581087112426758 15.418291091918945 A0.9751603007316589 0.9751603007316589 0.0 0 1 12.07906436920166 15.553258895874023 C11.921932220458984 15.553258895874023 11.79368782043457 15.517524719238281 11.6947021484375 15.446305274963379 C11.596091270446777 15.374836921691895 11.53022575378418 15.28656005859375 11.496980667114258 15.180727005004883 A0.7712133526802063 0.7712133526802063 0.0 0 1 11.46485710144043 14.861109733581543 L11.46485710144043 14.861109733581543 M11.808629035949707 14.854635238647461 C11.795928955078125 14.970429420471191 11.820706367492676 15.067421913146973 11.88283634185791 15.14573860168457 C11.945091247558594 15.224056243896484 12.033369064331055 15.263151168823242 12.148540496826172 15.263151168823242 C12.242047309875488 15.263151168823242 12.335554122924805 15.232024192810059 12.42868709564209 15.170516967773438 C12.521944999694824 15.108759880065918 12.603249549865723 15.015377044677734 12.673598289489746 14.889373779296875 C12.743572235107422 14.764117240905762 12.785158157348633 14.641847610473633 12.798232078552246 14.522941589355469 C12.812675476074219 14.390213012695312 12.788395881652832 14.285874366760254 12.725519180297852 14.210421562194824 C12.662267684936523 14.13459587097168 12.575608253479004 14.096868515014648 12.464795112609863 14.096868515014648 C12.295461654663086 14.096868515014648 12.148789405822754 14.175931930541992 12.02502727508545 14.334184646606445 C11.901762008666992 14.492311477661133 11.82929801940918 14.665380477905273 11.808629035949707 14.854635238647461 L11.808629035949707 14.854635238647461 M14.087779998779297 15.523377418518066 L13.758451461791992 15.523377418518066 L13.851709365844727 14.112930297851562 L13.428998947143555 15.523377418518066 L13.115981101989746 15.523377418518066 L13.65299129486084 13.835647583007812 L14.147668838500977 13.835647583007812 L14.070222854614258 15.01799201965332 L14.775197982788086 13.835647583007812 L15.276225090026855 13.835647583007812 L14.737968444824219 15.523377418518066 L14.421340942382812 15.523377418518066 L14.907302856445312 14.123140335083008 L14.087779998779297 15.523377418518066 L14.087779998779297 15.523377418518066 M15.0811185836792 15.523377418518066 L15.618253707885742 13.835647583007812 L16.869325637817383 13.835647583007812 L16.780054092407227 14.117786407470703 L15.876113891601562 14.117786407470703 L15.7537202835083 14.500778198242188 L16.627281188964844 14.500778198242188 L16.537757873535156 14.783042907714844 L15.663948059082031 14.783042907714844 L15.508062362670898 15.240988731384277 L16.489944458007812 15.240988731384277 L16.399551391601562 15.523377418518066 L15.0811185836792 15.523377418518066 M17.008155822753906 15.523377418518066 L16.66077423095703 15.523377418518066 L17.198654174804688 13.835647583007812 L17.948078155517578 13.835647583007812 C18.076946258544922 13.835647583007812 18.176057815551758 13.848969459533691 18.244787216186523 13.875242233276367 C18.313766479492188 13.901762008666992 18.366680145263672 13.950196266174316 18.402912139892578 14.020917892456055 C18.43927001953125 14.091140747070312 18.45197105407715 14.177053451538086 18.440889358520508 14.277532577514648 C18.425201416015625 14.420967102050781 18.36941909790039 14.53962516784668 18.273174285888672 14.632883071899414 C18.176929473876953 14.726140975952148 18.040592193603516 14.783913612365723 17.864036560058594 14.80632495880127 C17.904003143310547 14.845919609069824 17.940359115600586 14.898462295532227 17.972110748291016 14.96395492553711 C18.035486221313477 15.096059799194336 18.10110092163086 15.282574653625488 18.17020606994629 15.5235013961792 L17.796924591064453 15.5235013961792 C17.77750015258789 15.428376197814941 17.73516845703125 15.27983570098877 17.669675827026367 15.077756881713867 C17.63406753540039 14.969058990478516 17.591360092163086 14.895599365234375 17.54167938232422 14.858121871948242 C17.51117515563965 14.835709571838379 17.455020904541016 14.824752807617188 17.372970581054688 14.824752807617188 L17.231401443481445 14.824752807617188 L17.008155822753906 15.523377418518066 L17.008155822753906 15.523377418518066 M17.31146240234375 14.571250915527344 L17.49573516845703 14.571250915527344 C17.682376861572266 14.571250915527344 17.807384490966797 14.56004524230957 17.870759963989258 14.537633895874023 A0.3436468839645386 0.3436468839645386 0.0 0 0 18.02564811706543 14.43304443359375 C18.06499481201172 14.385108947753906 18.087779998779297 14.335803031921387 18.093505859375 14.283509254455566 C18.100229263305664 14.221752166748047 18.08055877685547 14.17580795288086 18.03386688232422 14.14517879486084 C18.005353927612305 14.126750946044922 17.939861297607422 14.11766242980957 17.83763885498047 14.11766242980957 L17.455768585205078 14.11766242980957 L17.31146240234375 14.571250915527344 L17.31146240234375 14.571250915527344 M19.502582550048828 15.150345802307129 L18.83346939086914 15.150345802307129 L18.590301513671875 15.523377418518066 L18.233455657958984 15.523377418518066 L19.372222900390625 13.835647583007812 L19.758203506469727 13.835647583007812 L19.847475051879883 15.523377418518066 L19.518146514892578 15.523377418518066 L19.502582550048828 15.150345802307129 L19.502582550048828 15.150345802307129 M19.49050521850586 14.869452476501465 L19.46697425842285 14.19000244140625 L18.985244750976562 14.869452476501465 L19.49050521850586 14.869452476501465 M21.40845489501953 15.523377418518066 L21.084728240966797 15.523377418518066 L20.752910614013672 14.389093399047852 L20.391830444335938 15.523377418518066 L20.068605422973633 15.523377418518066 L20.605241775512695 13.835647583007812 L20.929840087890625 13.835647583007812 L21.263275146484375 14.964950561523438 L21.622983932495117 13.835647583007812 L21.94521713256836 13.835647583007812 L21.40845489501953 15.523377418518066 L21.40845489501953 15.523377418518066 M22.799976348876953 14.621926307678223 L23.555126190185547 14.621926307678223 L23.32391357421875 15.346075057983398 C23.22841453552246 15.403473854064941 23.11386489868164 15.452157020568848 22.980140686035156 15.492249488830566 C22.846542358398438 15.531844139099121 22.712696075439453 15.552013397216797 22.578224182128906 15.552013397216797 C22.369544982910156 15.552013397216797 22.214778900146484 15.504825592041016 22.11355209350586 15.410446166992188 C21.97609519958496 15.28157901763916 21.920188903808594 15.094565391540527 21.946958541870117 14.849655151367188 A1.2734856605529785 1.2734856605529785 0.0 0 1 22.096370697021484 14.377886772155762 C22.19485855102539 14.196475982666016 22.321483612060547 14.056402206420898 22.476499557495117 13.956421852111816 C22.63163948059082 13.856689453125 22.806947708129883 13.806885719299316 23.00180435180664 13.806885719299316 C23.19666290283203 13.806885719299316 23.348190307617188 13.85183334350586 23.456016540527344 13.942850112915039 C23.563716888427734 14.033120155334473 23.62746810913086 14.16510009765625 23.647014617919922 14.338542938232422 L23.31955337524414 14.375521659851074 C23.301376342773438 14.280396461486816 23.263648986816406 14.208429336547852 23.205629348754883 14.160120010375977 C23.147109985351562 14.111684799194336 23.070409774780273 14.08790397644043 22.97466278076172 14.08790397644043 C22.86223030090332 14.08790397644043 22.756521224975586 14.11703872680664 22.656166076660156 14.175185203552246 C22.55618667602539 14.233580589294434 22.473262786865234 14.323476791381836 22.406898498535156 14.445869445800781 A1.0706592798233032 1.0706592798233032 0.0 0 0 22.28388214111328 14.845171928405762 C22.268320083618164 14.98748779296875 22.28898811340332 15.092199325561523 22.34613800048828 15.160306930541992 C22.403038024902344 15.228164672851562 22.493804931640625 15.261905670166016 22.618316650390625 15.261905670166016 C22.69264793395996 15.261905670166016 22.77009391784668 15.251447677612305 22.85089874267578 15.230031967163086 A1.0983004570007324 1.0983004570007324 0.0 0 0 23.061447143554688 15.154703140258789 L23.140758514404297 14.903940200805664 L22.710079193115234 14.903940200805664 L22.799976348876953 14.621926307678223" fill="black" fill-opacity="1.0" filling="0"/></svg>