<?xml version="1.0" encoding="iso-8859-1"?><svg height="200px" viewBox="0.0 0.0 24.0 24.0" width="200px" xmlns="http://www.w3.org/2000/svg"><path animation_id="0" d="M0.0 0.0 L24.0 0.0 L24.0 24.0 L0.0 24.0 L0.0 0.0" fill="black" fill-opacity="1.0" filling="0"/>
<path animation_id="1" d="M1.0588302612304688 6.529913425445557 L22.94116973876953 6.529913425445557 L22.94116973876953 17.4700870513916 L1.0588302612304688 17.4700870513916 L1.0588302612304688 6.529913425445557" fill="black" fill-opacity="1.0" filling="0"/>
<path animation_id="2" d="M4.804083824157715 11.851086616516113 C4.804083824157715 11.851086616516113 5.492249488830566 12.113304138183594 5.742015838623047 12.174189567565918 C5.993650436401367 12.23308277130127 6.9170145988464355 12.390337944030762 6.9170145988464355 12.390337944030762 C6.9170145988464355 12.390337944030762 6.621179580688477 13.04911994934082 6.593911647796631 13.137271881103516 C6.5645270347595215 13.223308563232422 6.340035915374756 13.846479415893555 6.350495338439941 13.903131484985352 C6.363070487976074 13.959783554077148 5.84896993637085 13.898898124694824 5.714748382568359 13.932392120361328 C5.578285217285156 13.966009140014648 5.181722164154053 13.993276596069336 5.068418502807617 13.989043235778809 C4.955114364624023 13.982817649841309 4.105459690093994 13.942975044250488 4.002490997314453 13.829670906066895 C3.901762008666992 13.718358993530273 4.182905197143555 13.267260551452637 4.229097843170166 13.030194282531738 C4.273174285888672 12.793127059936523 4.4116291999816895 12.470024108886719 4.474631309509277 12.36082935333252 C4.535516262054443 12.253875732421875 4.804083824157715 11.851086616516113 4.804083824157715 11.851086616516113 L4.804083824157715 11.851086616516113" fill="black" fill-opacity="1.0" filling="0"/>
<path animation_id="3" d="M4.864969730377197 11.733549118041992 C4.864969730377197 11.733549118041992 5.723090648651123 12.021041870117188 5.840627670288086 12.037851333618164 C5.958040714263916 12.054659843444824 6.373529434204102 12.132229804992676 6.4910664558410645 12.161614418029785 C6.610720634460449 12.193115234375 6.950632095336914 12.270684242248535 6.950632095336914 12.270684242248535 C6.950632095336914 12.270684242248535 7.3493123054504395 11.658097267150879 7.4667253494262695 11.511175155639648 C7.586379051208496 11.364253997802734 8.19485855102539 10.688663482666016 8.19485855102539 10.688663482666016 C8.19485855102539 10.688663482666016 7.85071325302124 10.518708229064941 7.640913963317871 10.512357711791992 C7.433231830596924 10.508125305175781 7.2002739906311035 10.445246696472168 7.091203212738037 10.411629676818848 C6.984250068664551 10.378011703491211 6.40092134475708 10.172445297241211 6.40092134475708 10.172445297241211 C6.40092134475708 10.172445297241211 6.00647497177124 10.380127906799316 5.708522796630859 10.70958137512207 C5.410571098327637 11.04102611541748 5.332877159118652 11.0997953414917 5.255307197570801 11.20263957977295 C5.175496578216553 11.307601928710938 4.864969730377197 11.733549118041992 4.864969730377197 11.733549118041992" fill="black" fill-opacity="1.0" filling="0"/>
<path animation_id="4" d="M6.524683952331543 10.10533618927002 C6.524683952331543 10.10533618927002 7.099545955657959 10.304676055908203 7.259042739868164 10.338168144226074 C7.4164228439331055 10.371786117553711 7.689223766326904 10.382245063781738 7.8296709060668945 10.422088623046875 C7.972358703613281 10.461931228637695 8.312271118164062 10.59204387664795 8.312271118164062 10.59204387664795 C8.312271118164062 10.59204387664795 8.761252403259277 10.359086036682129 8.88924789428711 10.279399871826172 C9.01936149597168 10.199588775634766 9.395008087158203 9.901762008666992 9.395008087158203 9.901762008666992 C9.395008087158203 9.901762008666992 9.008903503417969 9.706655502319336 8.906057357788086 9.633194923400879 C8.805329322814941 9.559733390808105 8.526302337646484 9.36462688446045 8.42557430267334 9.345701217651367 C8.322729110717773 9.326775550842285 7.607296466827393 9.555500984191895 7.607296466827393 9.555500984191895 C7.607296466827393 9.555500984191895 7.02396821975708 9.765298843383789 6.940048694610596 9.828300476074219 C6.856129169464111 9.88918685913086 6.524683952331543 10.10533618927002 6.524683952331543 10.10533618927002 L6.524683952331543 10.10533618927002" fill="black" fill-opacity="1.0" filling="0"/>
<path animation_id="5" d="M9.025711059570312 9.599700927734375 C8.954367637634277 9.566083908081055 8.59988784790039 9.316441535949707 8.59988784790039 9.316441535949707 C8.59988784790039 9.316441535949707 9.413932800292969 9.24298095703125 9.661458015441895 9.259790420532227 C9.911224365234375 9.27659797668457 10.546971321105957 9.385668754577637 10.721036911010742 9.520014762878418 C10.721036911010742 9.520014762878418 10.1587495803833 9.645895004272461 10.070597648620605 9.683621406555176 C9.9845609664917 9.723464012145996 9.512420654296875 9.861919403076172 9.512420654296875 9.861919403076172 C9.512420654296875 9.861919403076172 9.094938278198242 9.633194923400879 9.025711059570312 9.599700927734375 L9.025711059570312 9.599700927734375" fill="black" fill-opacity="1.0" filling="0"/>
<path animation_id="6" d="M10.947768211364746 9.53258991241455 C10.947768211364746 9.53258991241455 11.237378120422363 9.442320823669434 11.696819305419922 9.610159873962402 C12.15626049041748 9.780116081237793 12.51522159576416 9.968997955322266 12.51522159576416 9.968997955322266 C12.51522159576416 9.968997955322266 12.128992080688477 9.975346565246582 12.055655479431152 9.992156028747559 C11.982195854187012 10.008964538574219 11.61924934387207 10.076075553894043 11.61924934387207 10.076075553894043 C11.61924934387207 10.076075553894043 11.457635879516602 9.88719367980957 11.350682258605957 9.809625625610352 C11.243603706359863 9.729813575744629 10.947768211364746 9.53258991241455 10.947768211364746 9.53258991241455 L10.947768211364746 9.53258991241455" fill="black" fill-opacity="1.0" filling="0"/>
<path animation_id="7" d="M11.730311393737793 10.159870147705078 C11.730311393737793 10.159870147705078 12.05553150177002 10.107452392578125 12.17929458618164 10.092635154724121 C12.326215744018555 10.075826644897461 12.575982093811035 10.031874656677246 12.599017143249512 10.025524139404297 C12.622175216674805 10.019299507141113 12.9345703125 10.151403427124023 13.10265827178955 10.36120319366455 C13.27236557006836 10.568885803222656 13.450912475585938 10.894104957580566 13.450912475585938 10.894104957580566 L12.399676322937012 10.910913467407227 C12.399676322937012 10.910913467407227 12.202452659606934 10.61507797241211 12.089149475097656 10.52904224395752 C11.975845336914062 10.445122718811035 11.787088394165039 10.216398239135742 11.730436325073242 10.199588775634766 C11.673660278320312 10.183030128479004 11.730311393737793 10.159870147705078 11.730311393737793 10.159870147705078 L11.730311393737793 10.159870147705078" fill="black" fill-opacity="1.0" filling="0"/>
<path animation_id="8" d="M7.185581684112549 13.827554702758789 C7.185581684112549 13.827554702758789 7.535952568054199 12.442756652832031 8.3269624710083 11.647512435913086 C9.12009048461914 10.850276947021484 9.841873168945312 10.514473915100098 10.5889310836792 10.42420482635498 L9.997261047363281 13.869513511657715 L9.250327110290527 13.869513511657715 L9.489509582519531 12.68604850769043 C9.489509582519531 12.68604850769043 8.893606185913086 12.480483055114746 8.883148193359375 12.004109382629395 L9.686734199523926 12.004109382629395 C9.686734199523926 12.004109382629395 10.003486633300781 10.957106590270996 10.173566818237305 10.791259765625 C10.173566818237305 10.791259765625 9.267135620117188 11.143871307373047 8.62292194366455 12.153022766113281 C7.980825424194336 13.162174224853516 7.922181606292725 13.82730484008789 7.922181606292725 13.82730484008789 L7.185581684112549 13.82730484008789 L7.185581684112549 13.827554702758789 M11.025338172912598 11.11037826538086 A0.33704787492752075 0.33704787492752075 0.0 0 1 11.36313247680664 10.774700164794922 A0.33667436242103577 0.33667436242103577 0.0 0 1 11.698811531066895 11.11037826538086 C11.698811531066895 11.29714298248291 11.547780990600586 11.446056365966797 11.36313247680664 11.446056365966797 A0.335927277803421 0.335927277803421 0.0 0 1 11.025338172912598 11.11037826538086 M10.509244918823242 13.869638442993164 L10.809313774108887 12.102970123291016 C10.809313774108887 12.102970123291016 10.865964889526367 11.637178421020508 11.480794906616211 11.597210884094238 L11.105273246765137 13.869638442993164 L10.509244918823242 13.869638442993164 L10.509244918823242 13.869638442993164 M11.610782623291016 13.877856254577637 L11.91085147857666 12.163606643676758 C11.91085147857666 12.163606643676758 11.938117980957031 11.687355995178223 12.55506420135498 11.616011619567871 L12.523439407348633 11.874120712280273 C12.523439407348633 11.874120712280273 12.750046730041504 11.616011619567871 12.90966796875 11.607544898986816 C13.071157455444336 11.597086906433105 13.220195770263672 11.632696151733398 13.241113662719727 11.842619895935059 C13.260039329528809 12.052543640136719 13.081616401672363 12.163606643676758 13.081616401672363 12.163606643676758 C13.081616401672363 12.163606643676758 12.957853317260742 12.220258712768555 12.90966796875 12.209799766540527 C12.863475799560547 12.199339866638184 12.733362197875977 12.09848690032959 12.61370849609375 12.249642372131348 C12.494054794311523 12.398555755615234 12.431302070617676 12.513976097106934 12.414493560791016 12.63985538482666 C12.397684097290039 12.765859603881836 12.187885284423828 13.877731323242188 12.187885284423828 13.877731323242188 L11.610782623291016 13.877731323242188 L11.610782623291016 13.877856254577637 L11.610782623291016 13.877856254577637 M14.093009948730469 11.616011619567871 L14.223121643066406 10.839694023132324 C14.223121643066406 10.839694023132324 13.627342224121094 10.770465850830078 13.52661418914795 11.437714576721191 L13.180353164672852 13.521260261535645 C13.180353164672852 13.521260261535645 13.123701095581055 13.77936840057373 13.320923805236816 13.888439178466797 C13.51590633392334 13.997509956359863 13.717611312866211 13.928282737731934 13.717611312866211 13.928282737731934 C13.717611312866211 13.928282737731934 13.973479270935059 13.802278518676758 14.07408332824707 13.59260368347168 L13.797298431396484 13.582145690917969 L14.0341157913208 12.02315902709961 L14.349000930786133 12.02315902709961 L14.420221328735352 11.61613655090332 L14.093009948730469 11.61613655090332 L14.093009948730469 11.616011619567871 L14.093009948730469 11.616011619567871 M14.995206832885742 12.63998031616211 C14.995206832885742 12.63998031616211 15.25543212890625 12.669363975524902 15.542800903320312 12.579219818115234 C15.828301429748535 12.4889497756958 15.958414077758789 12.36518669128418 15.90786361694336 12.20992374420166 C15.857561111450195 12.052543640136719 15.521883010864258 12.096619606018066 15.391770362854004 12.142812728881836 C15.26165771484375 12.188880920410156 15.035049438476562 12.480607986450195 15.01624870300293 12.560418128967285 L14.995206832885742 12.63998031616211 M15.12531852722168 13.036543846130371 C15.12531852722168 13.036543846130371 15.922679901123047 12.921123504638672 16.128244400024414 12.736474990844727 C16.333934783935547 12.549710273742676 16.333934783935547 12.549710273742676 16.365312576293945 12.430181503295898 C16.394695281982422 12.310527801513672 16.438772201538086 12.050301551818848 16.128244400024414 11.792193412780762 C15.81796646118164 11.536325454711914 15.291166305541992 11.69781494140625 15.291166305541992 11.69781494140625 C15.293158531188965 11.69781494140625 14.774949073791504 11.863661766052246 14.519081115722656 12.430181503295898 C14.262965202331543 12.99670124053955 14.330076217651367 13.34507942199707 14.428812026977539 13.542302131652832 C14.529540061950684 13.73952579498291 14.739338874816895 13.909357070922852 15.026832580566406 13.968250274658203 C15.31208324432373 14.029011726379395 15.712881088256836 13.859054565429688 15.712881088256836 13.859054565429688 C15.712881088256836 13.859054565429688 16.037975311279297 13.651372909545898 16.088651657104492 13.492000579833984 C16.138952255249023 13.332503318786621 15.947831153869629 13.401606559753418 15.947831153869629 13.401606559753418 C15.947831153869629 13.401606559753418 15.668929100036621 13.642906188964844 15.381436347961426 13.571561813354492 C15.095934867858887 13.502334594726562 14.995206832885742 13.439332962036133 14.944904327392578 13.242109298706055 L14.915519714355469 13.065803527832031 L15.12531852722168 13.036543846130371 L15.12531852722168 13.036543846130371 M17.456390380859375 11.616011619567871 L17.586503982543945 10.839694023132324 C17.586503982543945 10.839694023132324 16.990724563598633 10.770465850830078 16.891986846923828 11.437714576721191 L16.54373550415039 13.521260261535645 C16.54373550415039 13.521260261535645 16.48907470703125 13.77936840057373 16.68430519104004 13.888439178466797 C16.881528854370117 13.997509956359863 17.08099365234375 13.928282737731934 17.08099365234375 13.928282737731934 C17.08099365234375 13.928282737731934 17.33686065673828 13.802278518676758 17.43746566772461 13.59260368347168 L17.160430908203125 13.582145690917969 L17.397497177124023 12.02315902709961 L17.456390380859375 11.616011619567871" fill="black" fill-opacity="1.0" filling="0"/>
<path animation_id="9" d="M4.0969929695129395 15.109630584716797 L4.315258979797363 15.109630584716797 L4.185145854949951 15.720227241516113 L4.342526435852051 15.720227241516113 L4.472639083862305 15.109630584716797 L4.690780162811279 15.109630584716797 L4.716055393218994 14.987860679626465 L4.122143745422363 14.987860679626465 L4.0969929695129395 15.109630584716797 L4.0969929695129395 15.109630584716797 M4.63213586807251 15.720227241516113 L5.135653495788574 15.720227241516113 L5.160804748535156 15.598456382751465 L4.816783905029297 15.598456382751465 L4.858619213104248 15.401232719421387 L5.171387672424316 15.401232719421387 L5.196538925170898 15.279586791992188 L4.883894443511963 15.279586791992188 L4.919504642486572 15.109630584716797 L5.253190994262695 15.109630584716797 L5.280458450317383 14.987860679626465 L4.789391994476318 14.987860679626465 L4.63213586807251 15.720227241516113 L4.63213586807251 15.720227241516113 M5.739899158477783 15.720227241516113 L5.765049934387207 15.598456382751465 L5.448297500610352 15.598456382751465 L5.5784101486206055 14.987860679626465 L5.421030044555664 14.987860679626465 L5.2636494636535645 15.720227241516113 L5.739899158477783 15.720227241516113 L5.739899158477783 15.720227241516113 M5.817593097686768 15.720227241516113 L6.321235179901123 15.720227241516113 L6.346386432647705 15.598456382751465 L6.000124454498291 15.598456382751465 L6.042084693908691 15.401232719421387 L6.3547282218933105 15.401232719421387 L6.381996154785156 15.279586791992188 L6.06947660446167 15.279586791992188 L6.105086326599121 15.109630584716797 L6.438648223876953 15.109630584716797 L6.463923454284668 14.987860679626465 L5.9728569984436035 14.987860679626465 L5.817593097686768 15.720227241516113 L5.817593097686768 15.720227241516113 M6.606487274169922 15.720227241516113 L6.673722267150879 15.407459259033203 L6.967316150665283 15.407459259033203 L6.992591857910156 15.28593635559082 L6.698873043060303 15.28593635559082 L6.736599922180176 15.109630584716797 L7.051360130310059 15.109630584716797 L7.078628063201904 14.987860679626465 L6.6043701171875 14.987860679626465 L6.4491071701049805 15.720227241516113 L6.606487274169922 15.720227241516113 L6.606487274169922 15.720227241516113 M7.334619998931885 15.734794616699219 C7.578036308288574 15.734794616699219 7.722841739654541 15.569071769714355 7.768909931182861 15.353047370910645 C7.815103054046631 15.136898040771484 7.739650249481201 14.971176147460938 7.498225688934326 14.971176147460938 C7.2548089027404785 14.971176147460938 7.110128879547119 15.136898040771484 7.063936233520508 15.353047370910645 C7.01774263381958 15.569071769714355 7.093320369720459 15.734794616699219 7.334619998931885 15.734794616699219 M7.473074913024902 15.084356307983398 C7.62833833694458 15.084356307983398 7.62833833694458 15.227043151855469 7.601070880889893 15.352922439575195 C7.573802947998047 15.478802680969238 7.5150346755981445 15.621490478515625 7.359771251678467 15.621490478515625 C7.204507350921631 15.621490478515625 7.204507350921631 15.478802680969238 7.231775283813477 15.352922439575195 C7.259042739868164 15.227043151855469 7.317811012268066 15.084356307983398 7.473074913024902 15.084356307983398 M8.463425636291504 15.720227241516113 L8.618688583374023 14.987860679626465 L8.471892356872559 14.987860679626465 L8.348004341125488 15.56072998046875 L8.345888137817383 15.562721252441406 L8.190624237060547 14.987860679626465 L7.955674648284912 14.987860679626465 L7.800410747528076 15.720227241516113 L7.947332382202148 15.720227241516113 L8.077445030212402 15.113739967346191 L8.079437255859375 15.111623764038086 L8.238933563232422 15.720227241516113 L8.463425636291504 15.720227241516113 L8.463425636291504 15.720227241516113 M8.89148998260498 14.7633695602417 L8.776069641113281 14.910290718078613 L8.857872009277344 14.910290718078613 L9.027828216552734 14.7633695602417 L8.89148998260498 14.7633695602417 L8.89148998260498 14.7633695602417 M8.899831771850586 14.987860679626465 L8.742450714111328 14.987860679626465 L8.587188720703125 15.720227241516113 L8.744568824768066 15.720227241516113 L8.899831771850586 14.987860679626465 M8.969184875488281 15.720227241516113 L9.057336807250977 15.564963340759277 L9.346946716308594 15.564963340759277 L9.367864608764648 15.720227241516113 L9.52524471282959 15.720227241516113 L9.42663288116455 14.987860679626465 L9.2398681640625 14.987860679626465 L8.818153381347656 15.720227241516113 L8.969184875488281 15.720227241516113 L8.969184875488281 15.720227241516113 M9.124322891235352 15.443192481994629 L9.29851245880127 15.130549430847168 L9.300628662109375 15.130549430847168 L9.334246635437012 15.443192481994629 L9.124322891235352 15.443192481994629 L9.124322891235352 15.443192481994629 M10.693893432617188 15.090704917907715 L10.696009635925293 15.092823028564453 L10.563780784606934 15.720227241516113 L10.710577964782715 15.720227241516113 L10.865964889526367 14.987860679626465 L10.618315696716309 14.987860679626465 L10.337172508239746 15.52076244354248 L10.335055351257324 15.52076244354248 L10.295212745666504 14.987860679626465 L10.037103652954102 14.987860679626465 L9.881839752197266 15.720227241516113 L10.028636932373047 15.720227241516113 L10.162983894348145 15.092823028564453 L10.16510009765625 15.090704917907715 L10.225860595703125 15.720227241516113 L10.355974197387695 15.720227241516113 L10.693893432617188 15.090704917907715 L10.693893432617188 15.090704917907715 M11.400983810424805 14.7633695602417 L11.285563468933105 14.910290718078613 L11.367490768432617 14.910290718078613 L11.537446975708008 14.7633695602417 L11.400983810424805 14.7633695602417 L11.400983810424805 14.7633695602417 M11.172260284423828 15.734794616699219 C11.413558959960938 15.734794616699219 11.558363914489746 15.569071769714355 11.604557991027832 15.353047370910645 C11.650750160217285 15.136898040771484 11.575173377990723 14.971176147460938 11.33387279510498 14.971176147460938 C11.090456008911133 14.971176147460938 10.94565200805664 15.136898040771484 10.899458885192871 15.353047370910645 C10.853265762329102 15.569071769714355 10.928842544555664 15.734794616699219 11.172260284423828 15.734794616699219 L11.172260284423828 15.734794616699219 M11.308597564697266 15.084356307983398 C11.463861465454102 15.084356307983398 11.463861465454102 15.227043151855469 11.436593055725098 15.352922439575195 C11.409326553344727 15.478802680969238 11.350557327270508 15.621490478515625 11.195293426513672 15.621490478515625 C11.040029525756836 15.621490478515625 11.040029525756836 15.478802680969238 11.06729793548584 15.352922439575195 C11.094565391540527 15.227043151855469 11.153334617614746 15.084356307983398 11.308597564697266 15.084356307983398 M11.84996509552002 15.720227241516113 L12.022038459777832 15.720227241516113 L12.448110580444336 14.987860679626465 L12.29272174835205 14.987860679626465 L11.977961540222168 15.564963340759277 L11.975845336914062 15.564963340759277 L11.908734321594238 14.987860679626465 L11.736661911010742 14.987860679626465 L11.84996509552002 15.720227241516113 L11.84996509552002 15.720227241516113 M12.678827285766602 14.987860679626465 L12.52144718170166 14.987860679626465 L12.366059303283691 15.720227241516113 L12.523439407348633 15.720227241516113 L12.678827285766602 14.987860679626465 M13.129926681518555 15.720227241516113 L13.154953002929688 15.598456382751465 L12.838075637817383 15.598456382751465 L12.968188285827637 14.987860679626465 L12.810932159423828 14.987860679626465 L12.655792236328125 15.720227241516113 L13.129926681518555 15.720227241516113 L13.129926681518555 15.720227241516113 M13.784598350524902 15.109630584716797 L13.866276741027832 15.109630584716797 C14.053041458129883 15.107514381408691 14.053041458129883 15.237627029418945 14.02801513671875 15.353047370910645 C14.002738952636719 15.470459938049316 13.948204040527344 15.60057258605957 13.76144027709961 15.598580360412598 L13.679512023925781 15.598580360412598 L13.784598350524902 15.109630584716797 L13.784598350524902 15.109630584716797 M13.497105598449707 15.720227241516113 L13.746871948242188 15.720227241516113 C13.975472450256348 15.722343444824219 14.141318321228027 15.608915328979492 14.19572925567627 15.353047370910645 C14.250264167785645 15.09917163848877 14.130610466003418 14.985868453979492 13.902010917663574 14.987860679626465 L13.652244567871094 14.987860679626465 L13.497105598449707 15.720227241516113 L13.497105598449707 15.720227241516113 M14.539875030517578 14.987860679626465 L14.38261890411377 14.987860679626465 L14.227230072021484 15.720227241516113 L14.384486198425293 15.720227241516113 L14.539875030517578 14.987860679626465 M15.06231689453125 15.451659202575684 L15.02869987487793 15.604681968688965 A0.686795711517334 0.686795711517334 0.0 0 1 14.879911422729492 15.621614456176758 C14.741331100463867 15.621614456176758 14.695138931274414 15.518770217895508 14.73087215423584 15.353047370910645 C14.766606330871582 15.187200546264648 14.854635238647461 15.084480285644531 14.99321460723877 15.084480285644531 C15.079002380371094 15.084480285644531 15.133785247802734 15.115981101989746 15.114860534667969 15.210359573364258 L15.282699584960938 15.210359573364258 C15.31843376159668 15.036294937133789 15.201021194458008 14.971176147460938 14.988981246948242 14.971176147460938 C14.844301223754883 14.971176147460938 14.62615966796875 15.061446189880371 14.563157081604004 15.353047370910645 C14.502396583557129 15.644649505615234 14.680570602416992 15.734794616699219 14.825250625610352 15.734794616699219 C14.921746253967285 15.734794616699219 14.959721565246582 15.73068618774414 14.995206832885742 15.728569030761719 A0.9724211096763611 0.9724211096763611 0.0 0 0 15.167404174804688 15.694952011108398 L15.244973182678223 15.329764366149902 L14.944904327392578 15.329764366149902 L14.919878005981445 15.451534271240234 L15.06231689453125 15.451534271240234 L15.06231689453125 15.451659202575684 L15.06231689453125 15.451659202575684 M15.612152099609375 14.987860679626465 L15.454771995544434 14.987860679626465 L15.299384117126465 15.720227241516113 L15.456764221191406 15.720227241516113 L15.612152099609375 14.987860679626465 M15.662454605102539 15.109630584716797 L15.880595207214355 15.109630584716797 L15.750482559204102 15.720227241516113 L15.90786361694336 15.720227241516113 L16.037975311279297 15.109630584716797 L16.256240844726562 15.109630584716797 L16.28139305114746 14.987860679626465 L15.687729835510254 14.987860679626465 L15.662454605102539 15.109630584716797 L15.662454605102539 15.109630584716797 M16.245906829833984 15.720227241516113 L16.333934783935547 15.564963340759277 L16.625537872314453 15.564963340759277 L16.64446258544922 15.720227241516113 L16.803958892822266 15.720227241516113 L16.70298194885254 14.987860679626465 L16.51646614074707 14.987860679626465 L16.096744537353516 15.720227241516113 L16.245906829833984 15.720227241516113 M16.401046752929688 15.443192481994629 L16.575111389160156 15.130549430847168 L16.57735252380371 15.130549430847168 L16.61096954345703 15.443192481994629 L16.401046752929688 15.443192481994629 M17.362010955810547 15.720227241516113 L17.387163162231445 15.598456382751465 L17.07028579711914 15.598456382751465 L17.20039939880371 14.987860679626465 L17.043018341064453 14.987860679626465 L16.885639190673828 15.720227241516113 L17.362010955810547 15.720227241516113 L17.362010955810547 15.720227241516113" fill="black" fill-opacity="1.0" filling="0"/>
<path animation_id="10" d="M19.556747436523438 15.24173641204834 L19.556747436523438 15.080121994018555 C19.556747436523438 15.080121994018555 19.552637100219727 15.038162231445312 19.521011352539062 15.000435829162598 C19.49598503112793 14.971051216125488 19.453901290893555 14.964702606201172 19.453901290893555 14.964702606201172 L18.76150131225586 14.964702606201172 C18.76150131225586 14.964702606201172 18.70261001586914 14.962584495544434 18.66911506652832 14.99620246887207 C18.635622024536133 15.02981948852539 18.6292724609375 15.080121994018555 18.6292724609375 15.080121994018555 L18.6292724609375 15.585881233215332 C18.6292724609375 15.585881233215332 18.637739181518555 15.646766662597656 18.66911506652832 15.678142547607422 C18.715309143066406 15.722219467163086 18.759384155273438 15.724335670471191 18.759384155273438 15.724335670471191 L19.451784133911133 15.724335670471191 C19.451784133911133 15.724335670471191 19.50644302368164 15.705534934997559 19.52960205078125 15.678142547607422 C19.554628372192383 15.650875091552734 19.556869506835938 15.60692310333252 19.556869506835938 15.60692310333252 L19.556869506835938 15.334121704101562 L19.061695098876953 15.334121704101562 L19.061695098876953 15.481042861938477 L19.424514770507812 15.481042861938477 C19.424514770507812 15.481042861938477 19.428625106811523 15.55450439453125 19.420408248901367 15.562846183776855 C19.399490356445312 15.581646919250488 19.36375617980957 15.57753849029541 19.36375617980957 15.57753849029541 L18.814170837402344 15.579779624938965 C18.814170837402344 15.579779624938965 18.776193618774414 15.581771850585938 18.776193618774414 15.512544631958008 L18.776193618774414 15.153707504272461 C18.776193618774414 15.153707504272461 18.774202346801758 15.109630584716797 18.828739166259766 15.109630584716797 L19.384674072265625 15.109630584716797 C19.384674072265625 15.109630584716797 19.409950256347656 15.109630584716797 19.409950256347656 15.157940864562988 L19.409950256347656 15.241860389709473 L19.556747436523438 15.241860389709473 L19.556747436523438 15.24173641204834 L19.556747436523438 15.24173641204834 M19.735042572021484 15.480918884277344 L19.735042572021484 15.587873458862305 C19.735042572021484 15.587873458862305 19.741392135620117 15.648757934570312 19.773019790649414 15.680258750915527 C19.81896209716797 15.724335670471191 19.865156173706055 15.724335670471191 19.865156173706055 15.724335670471191 L20.482101440429688 15.724335670471191 C20.482101440429688 15.724335670471191 20.536636352539062 15.707527160644531 20.55967140197754 15.680258750915527 C20.58494758605957 15.650875091552734 20.589054107666016 15.60679817199707 20.589054107666016 15.60679817199707 L20.589054107666016 15.394882202148438 C20.589054107666016 15.394882202148438 20.58494758605957 15.355039596557617 20.553321838378906 15.317188262939453 C20.528295516967773 15.28792953491211 20.4862117767334 15.28157901763916 20.4862117767334 15.28157901763916 L20.370914459228516 15.28157901763916 L19.925918579101562 15.279462814331055 C19.925918579101562 15.279462814331055 19.8881893157959 15.28157901763916 19.8881893157959 15.21235179901123 L19.8881893157959 15.166158676147461 C19.8881893157959 15.155699729919434 19.890432357788086 15.109506607055664 19.944841384887695 15.109506607055664 L20.41910171508789 15.109506607055664 C20.41910171508789 15.109506607055664 20.446367263793945 15.111623764038086 20.446367263793945 15.159808158874512 L20.446367263793945 15.243728637695312 L20.591049194335938 15.24161148071289 L20.591049194335938 15.079998016357422 C20.591049194335938 15.079998016357422 20.586938858032227 15.03803825378418 20.555561065673828 15.00242805480957 A0.13222935795783997 0.13222935795783997 0.0 0 0 20.49044418334961 14.964577674865723 L19.877857208251953 14.964577674865723 C19.877857208251953 14.964577674865723 19.817094802856445 14.964577674865723 19.783477783203125 14.998194694519043 C19.749860763549805 15.031936645507812 19.745502471923828 15.079998016357422 19.745502471923828 15.079998016357422 L19.743511199951172 15.285687446594238 C19.743511199951172 15.285687446594238 19.751728057861328 15.346447944641113 19.783353805541992 15.377949714660645 C19.827430725097656 15.422025680541992 19.87362289428711 15.424017906188965 19.87362289428711 15.424017906188965 L20.41698455810547 15.424017906188965 C20.41698455810547 15.424017906188965 20.4422607421875 15.426259994506836 20.4422607421875 15.474319458007812 L20.4422607421875 15.549897193908691 C20.4422607421875 15.583515167236328 20.39382553100586 15.577165603637695 20.39382553100586 15.577165603637695 L19.91545867919922 15.57940673828125 C19.91545867919922 15.57940673828125 19.879972457885742 15.581398010253906 19.879972457885742 15.512170791625977 L19.879972457885742 15.480669975280762 L19.735042572021484 15.480669975280762 L19.735042572021484 15.480918884277344 L19.735042572021484 15.480918884277344 M22.003236770629883 15.717985153198242 L22.003236770629883 15.080121994018555 C22.003236770629883 15.080121994018555 21.99688720703125 15.02981948852539 21.963394165039062 14.99620246887207 C21.932018280029297 14.962584495544434 21.871257781982422 14.964702606201172 21.871257781982422 14.964702606201172 L20.914276123046875 14.964702606201172 C20.914276123046875 14.964702606201172 20.853515625 14.962584495544434 20.822139739990234 14.99620246887207 C20.78852081298828 15.02981948852539 20.78229522705078 15.080121994018555 20.78229522705078 15.080121994018555 L20.78229522705078 15.717985153198242 L20.92697525024414 15.717985153198242 L20.92697525024414 15.153583526611328 C20.92697525024414 15.153583526611328 20.92697525024414 15.109506607055664 20.981510162353516 15.109506607055664 L21.29427719116211 15.109506607055664 C21.29427719116211 15.109506607055664 21.321548461914062 15.109506607055664 21.321548461914062 15.157815933227539 L21.321548461914062 15.720227241516113 L21.4642333984375 15.717985153198242 L21.4642333984375 15.153583526611328 C21.4642333984375 15.153583526611328 21.461994171142578 15.109506607055664 21.51677703857422 15.109506607055664 L21.82929801940918 15.109506607055664 C21.82929801940918 15.109506607055664 21.856565475463867 15.109506607055664 21.856565475463867 15.157815933227539 L21.856565475463867 15.720227241516113 L22.003236770629883 15.717985153198242 L22.003236770629883 15.717985153198242" fill="black" fill-opacity="1.0" filling="0"/>
<path animation_id="11" d="M21.042396545410156 15.237627029418945 L21.207992553710938 15.237627029418945 L21.207992553710938 15.405466079711914 L21.042396545410156 15.405466079711914 L21.042396545410156 15.237627029418945 M21.042396545410156 15.552263259887695 L21.207992553710938 15.552263259887695 L21.207992553710938 15.717985153198242 L21.042396545410156 15.717985153198242 L21.042396545410156 15.552263259887695 M21.579280853271484 15.552263259887695 L21.745128631591797 15.552263259887695 L21.745128631591797 15.717985153198242 L21.579280853271484 15.717985153198242 L21.579280853271484 15.552263259887695" fill="black" fill-opacity="1.0" filling="0"/>
<path animation_id="12" d="M22.068355560302734 14.981634140014648 L22.284381866455078 14.981634140014648 L22.284381866455078 15.197783470153809 L22.068355560302734 15.197783470153809 L22.068355560302734 14.981634140014648" fill="black" fill-opacity="1.0" filling="0"/></svg>