<?xml version="1.0" encoding="iso-8859-1"?><svg height="200px" viewBox="0.0 0.0 24.0 24.0" width="200px" xmlns="http://www.w3.org/2000/svg"><path animation_id="0" d="M0.0 0.0 L24.0 0.0 L24.0 24.0 L0.0 24.0 L0.0 0.0" fill="black" fill-opacity="1.0" filling="0"/>
<path animation_id="1" d="M18.073087692260742 12.349125862121582 C17.9937744140625 12.351117134094238 17.623233795166016 12.349125862121582 17.58214569091797 12.349125862121582 C17.522504806518555 12.349125862121582 17.491004943847656 12.332815170288086 17.45377540588379 12.274917602539062 C17.45377540588379 12.26719856262207 17.360393524169922 12.084044456481934 17.360393524169922 12.084044456481934 C17.209611892700195 11.777127265930176 17.08609962463379 11.601445198059082 16.88987159729004 11.601445198059082 L16.693893432617188 11.601445198059082 C16.693893432617188 11.601445198059082 16.695138931274414 12.15264892578125 16.695138931274414 12.235821723937988 C16.695138931274414 12.318745613098145 16.667123794555664 12.349125862121582 16.582082748413086 12.349125862121582 L16.085289001464844 12.349125862121582 C16.001867294311523 12.349125862121582 15.973854064941406 12.317002296447754 15.973854064941406 12.237689971923828 L15.973105430603027 10.671232223510742 C15.973105430603027 10.588184356689453 16.002988815307617 10.559795379638672 16.08404541015625 10.559795379638672 L17.14673614501953 10.559795379638672 C17.701675415039062 10.559795379638672 17.939987182617188 10.790637016296387 17.939987182617188 11.071281433105469 C17.939987182617188 11.260287284851074 17.828426361083984 11.401979446411133 17.608043670654297 11.485899925231934 C17.75596046447754 11.540932655334473 17.843242645263672 11.664321899414062 17.954803466796875 11.87673568725586 C17.954803466796875 11.87673568725586 18.11703872680664 12.188010215759277 18.148664474487305 12.251261711120605 C18.180166244506836 12.314760208129883 18.152400970458984 12.347382545471191 18.073087692260742 12.349125862121582 L18.073087692260742 12.349125862121582 M16.889745712280273 11.32590389251709 C17.12220573425293 11.32590389251709 17.25792121887207 11.241985321044922 17.25792121887207 11.084480285644531 C17.25792121887207 10.92697525024414 17.13117218017578 10.848409652709961 16.905059814453125 10.848409652709961 L16.693769454956055 10.848409652709961 L16.693769454956055 11.32590389251709 L16.889745712280273 11.32590389251709 M21.148229598999023 10.559795379638672 L21.888439178466797 10.559795379638672 C21.936874389648438 10.559795379638672 21.97086524963379 10.60449504852295 22.016063690185547 10.67048454284668 C22.034488677978516 10.688912391662598 22.348007202148438 11.089834213256836 22.348007202148438 11.089834213256836 C22.348007202148438 11.089834213256836 22.67559051513672 10.690530776977539 22.701614379882812 10.664383888244629 C22.776317596435547 10.570379257202148 22.80856704711914 10.56128978729248 22.855506896972656 10.559920310974121 C22.902446746826172 10.558550834655762 23.39289093017578 10.559920310974121 23.468093872070312 10.559920310974121 C23.538816452026367 10.559920310974121 23.528854370117188 10.606362342834473 23.470958709716797 10.67098331451416 C23.412811279296875 10.73572826385498 22.73697280883789 11.4048433303833 22.73697280883789 11.4048433303833 C22.73697280883789 11.4048433303833 23.45066261291504 12.15887451171875 23.52997589111328 12.237813949584961 C23.609039306640625 12.317127227783203 23.56496238708496 12.349374771118164 23.50469970703125 12.349374771118164 C23.444936752319336 12.349374771118164 22.840068817138672 12.350868225097656 22.809188842773438 12.349125862121582 C22.72240447998047 12.344269752502441 22.72651481628418 12.318246841430664 22.646453857421875 12.238187789916992 C22.630393981933594 12.222126007080078 22.275415420532227 11.782357215881348 22.275415420532227 11.782357215881348 L21.8878173828125 12.234825134277344 C21.8878173828125 12.234825134277344 21.80339813232422 12.349374771118164 21.733922958374023 12.349374771118164 C21.66220474243164 12.349374771118164 21.661457061767578 12.349125862121582 21.145862579345703 12.349125862121582 C21.048870086669922 12.345763206481934 21.049118041992188 12.296582221984863 21.10701560974121 12.238436698913574 C21.16541290283203 12.180540084838867 21.89229965209961 11.462367057800293 21.89229965209961 11.462367057800293 C21.89229965209961 11.462367057800293 21.214344024658203 10.741829872131348 21.146984100341797 10.674593925476074 C21.079872131347656 10.606985092163086 21.06057357788086 10.559795379638672 21.148229598999023 10.559795379638672 L21.148229598999023 10.559795379638672 M20.815288543701172 10.626906394958496 L20.044448852539062 11.39114761352539 C20.044448852539062 11.39114761352539 20.84380340576172 12.263960838317871 20.859615325927734 12.279773712158203 C20.87542724609375 12.295586585998535 20.888254165649414 12.348628044128418 20.826745986938477 12.348628044128418 L20.139450073242188 12.348628044128418 C20.076200485229492 12.348628044128418 20.055034637451172 12.335678100585938 20.016433715820312 12.29732894897461 C19.97771453857422 12.258482933044434 19.308473587036133 11.511921882629395 19.308473587036133 11.511921882629395 L19.302371978759766 11.511921882629395 L19.303119659423828 12.23557186126709 C19.303119659423828 12.32260513305664 19.288053512573242 12.348628044128418 19.189067840576172 12.348628044128418 L18.689783096313477 12.348628044128418 C18.606611251831055 12.348628044128418 18.578224182128906 12.32845687866211 18.578224182128906 12.23557186126709 C18.578224182128906 12.207806587219238 18.581335067749023 10.726265907287598 18.581335067749023 10.655170440673828 C18.581335067749023 10.570005416870117 18.60810661315918 10.559671401977539 18.69289779663086 10.559671401977539 L19.188072204589844 10.559671401977539 C19.281082153320312 10.559671401977539 19.302371978759766 10.582082748413086 19.302371978759766 10.673224449157715 L19.302371978759766 11.370354652404785 L20.081056594848633 10.603872299194336 C20.081056594848633 10.603872299194336 20.120899200439453 10.55830192565918 20.188011169433594 10.559795379638672 C20.19896697998047 10.558799743652344 20.75029754638672 10.559671401977539 20.802093505859375 10.559671401977539 C20.843679428100586 10.559422492980957 20.83110237121582 10.611093521118164 20.815288543701172 10.626906394958496 L20.815288543701172 10.626906394958496 M11.36811351776123 10.617817878723145 L10.590923309326172 11.388283729553223 C10.590923309326172 11.388283729553223 11.396625518798828 12.26806926727295 11.41256332397461 12.28413200378418 C11.428625106811523 12.299944877624512 11.441325187683105 12.35373306274414 11.379568099975586 12.35373306274414 L10.687045097351074 12.35373306274414 C10.622922897338867 12.35373306274414 10.601507186889648 12.340658187866211 10.562784194946289 12.301438331604004 C10.523813247680664 12.262591361999512 9.84909439086914 11.510054588317871 9.84909439086914 11.510054588317871 L9.84299373626709 11.510054588317871 L9.843989372253418 12.239432334899902 C9.843989372253418 12.3269624710083 9.828675270080566 12.35373306274414 9.7288179397583 12.35373306274414 L9.229782104492188 12.35373306274414 C9.146112442016602 12.35373306274414 9.117101669311523 12.333064079284668 9.117101669311523 12.239432334899902 L9.116354942321777 10.662267684936523 C9.116354942321777 10.576604843139648 9.142999649047852 10.550084114074707 9.228787422180176 10.550084114074707 L9.727821350097656 10.550084114074707 C9.82170295715332 10.550084114074707 9.84299373626709 10.572745323181152 9.84299373626709 10.664383888244629 L9.84299373626709 11.367240905761719 L10.62790298461914 10.594285011291504 C10.62790298461914 10.594285011291504 10.66799545288086 10.548465728759766 10.735852241516113 10.549960136413574 C10.746685028076172 10.548839569091797 11.30286979675293 10.549711227416992 11.354541778564453 10.549711227416992 C11.396625518798828 10.549711227416992 11.383926391601562 10.60188102722168 11.36811351776123 10.617817878723145 L11.36811351776123 10.617817878723145 M13.238373756408691 12.35373306274414 L11.925169944763184 12.35373306274414 C11.831414222717285 12.35373306274414 11.812239646911621 12.336923599243164 11.812239646911621 12.241175651550293 C11.811243057250977 12.229223251342773 11.811243057250977 10.739213943481445 11.811243057250977 10.662267684936523 C11.811243057250977 10.570504188537598 11.832409858703613 10.550084114074707 11.924173355102539 10.550084114074707 L12.423209190368652 10.550084114074707 C12.519081115722656 10.550084114074707 12.538006782531738 10.568511009216309 12.538006782531738 10.662267684936523 L12.539252281188965 11.90151309967041 L13.238373756408691 11.90151309967041 C13.336362838745117 11.90151309967041 13.354167938232422 11.920064926147461 13.354167938232422 12.01382064819336 L13.354167938232422 12.239432334899902 C13.354167938232422 12.334931373596191 13.336362838745117 12.35373306274414 13.238373756408691 12.35373306274414 L13.238373756408691 12.35373306274414 M0.9734172821044922 12.360207557678223 L0.45819568634033203 12.360207557678223 C0.45819568634033203 12.360207557678223 0.35198974609375 12.368673324584961 0.3528604507446289 12.26221752166748 L0.3528604507446289 10.640975952148438 C0.3528604507446289 10.548714637756348 0.4462432861328125 10.548714637756348 0.4462432861328125 10.548714637756348 L1.427628517150879 10.549212455749512 C2.032247543334961 10.549212455749512 2.254871368408203 10.82798957824707 2.254871368408203 11.120089530944824 C2.254871368408203 11.401481628417969 2.047313690185547 11.714872360229492 1.3877859115600586 11.714872360229492 L1.0827369689941406 11.714872360229492 L1.0732746124267578 12.260101318359375 C1.0732746124267578 12.260101318359375 1.0677947998046875 12.360207557678223 0.9734172821044922 12.360207557678223 L0.9734172821044922 12.360207557678223 M1.2629022598266602 11.377699851989746 C1.4917516708374023 11.377699851989746 1.5833911895751953 11.282076835632324 1.5833911895751953 11.128183364868164 C1.5833911895751953 10.971549034118652 1.4949884414672852 10.88650894165039 1.2599143981933594 10.88650894165039 L1.0827369689941406 10.88650894165039 L1.0827369689941406 11.377699851989746 L1.2629022598266602 11.377699851989746 L1.2629022598266602 11.377699851989746 M3.24111270904541 12.355351448059082 L2.741082191467285 12.355351448059082 C2.6571617126464844 12.355351448059082 2.6281518936157227 12.326713562011719 2.6281518936157227 12.240801811218262 L2.6281518936157227 10.660773277282715 C2.6281518936157227 10.576728820800781 2.6630144119262695 10.547967910766602 2.741082191467285 10.547967910766602 L3.24111270904541 10.547967910766602 C3.325282096862793 10.547967910766602 3.3564090728759766 10.576728820800781 3.3564090728759766 10.65853214263916 L3.3564090728759766 12.240801811218262 C3.356534004211426 12.324721336364746 3.3231658935546875 12.355351448059082 3.24111270904541 12.355351448059082 M7.775135517120361 11.002179145812988 L7.243105411529541 11.002179145812988 C7.243105411529541 11.002179145812988 7.240242004394531 12.139451026916504 7.240242004394531 12.239432334899902 C7.240242004394531 12.339164733886719 7.219323635101318 12.35373306274414 7.1234517097473145 12.35373306274414 L6.638361930847168 12.35373306274414 C6.542489051818848 12.35373306274414 6.525431156158447 12.339164733886719 6.525431156158447 12.239432334899902 L6.525431156158447 11.002179145812988 L5.989665508270264 11.002179145812988 C5.91371488571167 11.002179145812988 5.877607345581055 10.97366714477539 5.877607345581055 10.887879371643066 L5.877607345581055 10.662267684936523 C5.877607345581055 10.562535285949707 5.8899335861206055 10.550084114074707 5.987673759460449 10.550084114074707 L7.775135517120361 10.550084114074707 C7.878976345062256 10.550084114074707 7.888937473297119 10.566643714904785 7.890929698944092 10.662267684936523 L7.890929698944092 10.887879371643066 C7.890929698944092 10.969681739807129 7.857062816619873 11.002179145812988 7.775135517120361 11.002179145812988 M15.57143783569336 11.974102020263672 C15.400734901428223 12.208803176879883 15.137395858764648 12.364191055297852 14.808566093444824 12.42233657836914 C14.152027130126953 12.538130760192871 13.639793395996094 12.178173065185547 13.541804313659668 11.62248706817627 C13.443068504333496 11.063063621520996 13.791321754455566 10.570005416870117 14.354479789733887 10.470771789550781 C14.915021896362305 10.37203598022461 15.434725761413574 10.727385520935059 15.50034236907959 11.358899116516113 C15.50034236907959 11.358899116516113 15.509556770324707 11.42812728881836 15.43248462677002 11.44169807434082 L14.260599136352539 11.648260116577148 C14.298574447631836 11.842370986938477 14.571126937866211 11.984312057495117 14.859989166259766 11.933387756347656 C15.037041664123535 11.90201187133789 15.290916442871094 11.714250564575195 15.351927757263184 11.676773071289062 C15.413186073303223 11.639171600341797 15.451659202575684 11.658719062805176 15.469090461730957 11.681131362915039 C15.480545997619629 11.695075988769531 15.564215660095215 11.80564022064209 15.582892417907715 11.834153175354004 C15.627716064453125 11.901637077331543 15.57143783569336 11.974102020263672 15.57143783569336 11.974102020263672 L15.57143783569336 11.974102020263672 M14.839071273803711 11.20438289642334 C14.785531997680664 10.975285530090332 14.652057647705078 10.849903106689453 14.43541145324707 10.8880033493042 C14.240677833557129 10.922492980957031 14.111186981201172 11.07539176940918 14.182282447814941 11.320052146911621 L14.839071273803711 11.20438289642334 M5.8291730880737305 11.988421440124512 C5.6584696769714355 12.223121643066406 5.395256519317627 12.378509521484375 5.0664262771606445 12.43665599822998 C4.409637451171875 12.552450180053711 3.897528648376465 12.192492485046387 3.79941463470459 11.636929512023926 C3.700927734375 11.077507972717285 4.0493059158325195 10.584449768066406 4.612090110778809 10.485214233398438 C5.172882080078125 10.386478424072266 5.692212104797363 10.741829872131348 5.75795316696167 11.373342514038086 C5.75795316696167 11.373342514038086 5.767042636871338 11.44232177734375 5.690344333648682 11.456141471862793 L4.518209457397461 11.662703514099121 C4.556309700012207 11.856938362121582 4.829110622406006 11.998754501342773 5.1175994873046875 11.947830200195312 C5.295025825500488 11.916454315185547 5.548403263092041 11.7288179397583 5.609662055969238 11.691216468811035 C5.670795917510986 11.653738975524902 5.709394454956055 11.673161506652832 5.727075099945068 11.695573806762695 C5.738155841827393 11.709518432617188 5.821950912475586 11.820083618164062 5.840876579284668 11.848596572875977 C5.885451316833496 11.916080474853516 5.8291730880737305 11.988421440124512 5.8291730880737305 11.988421440124512 M5.096557140350342 11.218701362609863 C5.043391704559326 10.989603996276855 4.909792423248291 10.864221572875977 4.693145751953125 10.902321815490723 C4.498412609100342 10.936811447143555 4.369047164916992 11.089709281921387 4.4398932456970215 11.334495544433594 L5.096557140350342 11.218701362609863" fill="black" fill-opacity="1.0" filling="0"/>
<path animation_id="2" d="M23.55936050415039 13.545539855957031 A0.08777936547994614 0.08777936547994614 0.0 0 0 23.647140502929688 13.457510948181152 L23.647140502929688 13.03604507446289 A0.08777936547994614 0.08777936547994614 0.0 0 0 23.55936050415039 12.948017120361328 L0.4408893585205078 12.948017120361328 A0.08790387213230133 0.08790387213230133 0.0 0 0 0.3529853820800781 13.03604507446289 L0.3529853820800781 13.457510948181152 C0.3529853820800781 13.506194114685059 0.3923301696777344 13.545539855957031 0.4408893585205078 13.545539855957031 L23.55936050415039 13.545539855957031 L23.55936050415039 13.545539855957031" fill="black" fill-opacity="1.0" filling="0"/></svg>