<?xml version="1.0" encoding="iso-8859-1"?><svg height="200px" viewBox="0.0 0.0 24.0 24.0" width="200px" xmlns="http://www.w3.org/2000/svg"><path animation_id="0" d="M23.257572174072266 15.989953994750977 L0.7424278259277344 15.989953994750977 C0.33242130279541016 15.989953994750977 0.0 15.657532691955566 0.0 15.247526168823242 L0.0 8.752474784851074 C0.0 8.34246826171875 0.33242130279541016 8.010046005249023 0.7424278259277344 8.010046005249023 L23.257572174072266 8.010046005249023 C23.667579650878906 8.010046005249023 24.0 8.34246826171875 24.0 8.752474784851074 L24.0 15.247526168823242 C24.0 15.657532691955566 23.667579650878906 15.989953994750977 23.257572174072266 15.989953994750977" fill="black" fill-opacity="1.0" filling="0"/>
<path animation_id="1" d="M21.65633773803711 9.38210678100586 L22.675086975097656 10.518427848815918 L22.64226531982422 10.547670364379883 L22.435169219970703 10.348934173583984 C22.435169219970703 10.348934173583984 22.234046936035156 10.152584075927734 22.009647369384766 10.390113830566406 C21.785249710083008 10.628239631652832 19.969161987304688 12.764808654785156 19.883222579956055 12.870444297790527 C19.797283172607422 12.976078987121582 19.628387451171875 13.042323112487793 19.61465835571289 12.758244514465332 C19.601531982421875 12.474164009094238 19.585416793823242 11.945393562316895 19.584819793701172 11.759785652160645 C19.583627700805664 11.4404935836792 19.657033920288086 11.33784294128418 19.85995101928711 11.002437591552734 C20.028249740600586 10.724325180053711 20.874523162841797 9.610682487487793 21.129356384277344 9.39881706237793 C21.36688804626465 9.200675964355469 21.527427673339844 9.23588752746582 21.65633773803711 9.38210678100586 L21.65633773803711 9.38210678100586" fill="black" fill-opacity="1.0" filling="0"/>
<path animation_id="2" d="M22.963346481323242 12.96056079864502 C22.832048416137695 12.806585311889648 21.44208526611328 11.165963172912598 21.44208526611328 11.165963172912598 L22.013227462768555 10.502909660339355 C22.013227462768555 10.502909660339355 22.237627029418945 10.264784812927246 22.476348876953125 10.458746910095215 C22.73118782043457 10.665241241455078 23.047494888305664 11.129557609558105 23.13105010986328 11.341423034667969 C23.214599609375 11.553290367126465 23.194908142089844 11.64877986907959 23.194908142089844 11.75262451171875 C23.194908142089844 11.856468200683594 23.191326141357422 12.751083374023438 23.18893814086914 12.838813781738281 C23.186552047729492 12.927140235900879 23.123291015625 13.14855670928955 22.963346481323242 12.96056079864502 L22.963346481323242 12.96056079864502 M0.07400321960449219 14.127915382385254 L0.07400321960449219 10.049336433410645 C0.07400321960449219 10.049336433410645 1.0826082229614258 11.610583305358887 2.0386924743652344 12.379868507385254 C2.994776725769043 13.149152755737305 4.2271833419799805 13.828916549682617 5.646390438079834 14.187596321105957 C7.06559944152832 14.54627799987793 7.707762718200684 14.486597061157227 7.707762718200684 14.486597061157227 L23.909881591796875 14.486597061157227 L23.909881591796875 14.87511920928955 L5.071666717529297 14.87511920928955 C5.071666717529297 14.87511920928955 1.1124486923217773 14.927041053771973 0.07400321960449219 14.127915382385254 L0.07400321960449219 14.127915382385254" fill="black" fill-opacity="1.0" filling="0"/>
<path animation_id="3" d="M0.07400321960449219 14.52479362487793 L5.3432135581970215 15.254687309265137 L23.910480499267578 15.254687309265137 L23.910480499267578 15.459989547729492 A0.14204008877277374 0.14204008877277374 0.0 0 1 23.76844024658203 15.602029800415039 L0.25304508209228516 15.602029800415039 C0.1545724868774414 15.602029800415039 0.0746002197265625 15.52205753326416 0.0746002197265625 15.423584938049316 L0.0746002197265625 14.52479362487793 L0.07400321960449219 14.52479362487793" fill="black" fill-opacity="1.0" filling="0"/>
<path animation_id="4" d="M4.538121223449707 12.251553535461426 L4.16929292678833 12.251553535461426 L4.16929292678833 10.397871017456055 L4.606753826141357 10.397871017456055 C4.735664367675781 10.397871017456055 4.989902973175049 10.472472190856934 5.050180912017822 10.698064804077148 C5.110458850860596 10.92425537109375 5.035858154296875 11.201770782470703 4.852637767791748 11.287115097045898 C5.018549919128418 11.352762222290039 5.192818641662598 11.570598602294922 5.08419942855835 11.913763046264648 C4.976177215576172 12.256926536560059 4.5894455909729 12.251553535461426 4.538121223449707 12.251553535461426 M4.381160736083984 11.184464454650879 L4.585865020751953 11.184464454650879 C4.738051891326904 11.184464454650879 4.862186908721924 11.060924530029297 4.862186908721924 10.90814208984375 L4.862186908721924 10.876511573791504 C4.862186908721924 10.724325180053711 4.7386474609375 10.600190162658691 4.585865020751953 10.600190162658691 L4.381160736083984 10.600190162658691 L4.381160736083984 11.184464454650879 M4.381160736083984 12.042671203613281 L4.602575778961182 12.042671203613281 C4.767892360687256 12.042671203613281 4.901576519012451 11.906599998474121 4.901576519012451 11.738301277160645 L4.901576519012451 11.703685760498047 C4.901576519012451 11.535385131835938 4.767892360687256 11.399313926696777 4.602575778961182 11.399313926696777 L4.381160736083984 11.399313926696777 L4.381160736083984 12.042671203613281 M5.759785175323486 10.846671104431152 C6.062962532043457 10.846671104431152 6.311831951141357 11.066893577575684 6.311831951141357 11.5562744140625 C6.311831951141357 12.045656204223633 6.080270290374756 12.288557052612305 5.774107933044434 12.288557052612305 C5.467945575714111 12.288557052612305 5.230417728424072 12.051027297973633 5.230417728424072 11.56761360168457 C5.230417728424072 11.084199905395508 5.490624904632568 10.846671104431152 5.759785175323486 10.846671104431152 M5.433927536010742 11.553290367126465 C5.433927536010742 11.905406951904297 5.596856117248535 12.091014862060547 5.791416168212891 12.091014862060547 C5.985973834991455 12.091014862060547 6.11190128326416 11.836176872253418 6.11190128326416 11.535983085632324 C6.11190128326416 11.23578929901123 5.934649467468262 11.044214248657227 5.7717204093933105 11.044214248657227 C5.639826774597168 11.044214248657227 5.433927536010742 11.201770782470703 5.433927536010742 11.553290367126465 L5.433927536010742 11.553290367126465 M7.195703029632568 10.259413719177246 L7.195703029632568 11.0155668258667 C7.107972145080566 10.908738136291504 7.0017409324646 10.846671104431152 6.908638954162598 10.846671104431152 C6.6394782066345215 10.846671104431152 6.379271507263184 11.084199905395508 6.379271507263184 11.56761360168457 C6.379271507263184 12.051027297973633 6.616799354553223 12.288557052612305 6.922961711883545 12.288557052612305 C7.020241737365723 12.288557052612305 7.117521286010742 12.225892066955566 7.195703029632568 12.122645378112793 L7.195703029632568 12.251553535461426 L7.372954845428467 12.251553535461426 L7.372954845428467 10.259413719177246 L7.195703029632568 10.259413719177246 M6.940269470214844 12.091014862060547 C6.7457098960876465 12.091014862060547 6.582780838012695 11.90480899810791 6.582780838012695 11.553290367126465 C6.582780838012695 11.20117473602295 6.788680076599121 11.044214248657227 6.920574188232422 11.044214248657227 C7.083502769470215 11.044214248657227 7.196298599243164 11.227434158325195 7.196298599243164 11.527628898620605 C7.196298599243164 11.8278226852417 7.134827613830566 12.091014862060547 6.940269470214844 12.091014862060547 L6.940269470214844 12.091014862060547 M8.017505645751953 10.8383150100708 C8.230566024780273 10.8383150100708 8.501517295837402 10.983339309692383 8.489580154418945 11.630874633789062 L7.735215187072754 11.630874633789062 C7.735215187072754 11.630874633789062 7.727458477020264 11.966279983520508 7.9560346603393555 12.065350532531738 C8.184612274169922 12.164421081542969 8.401849746704102 11.969862937927246 8.401849746704102 11.969862937927246 L8.401849746704102 12.209778785705566 C8.401849746704102 12.209778785705566 8.27234172821045 12.288557052612305 8.04018497467041 12.288557052612305 C7.80802583694458 12.288557052612305 7.522156715393066 12.141145706176758 7.522156715393066 11.56761360168457 C7.522156715393066 10.9940824508667 7.842044353485107 10.8383150100708 8.017505645751953 10.8383150100708 L8.017505645751953 10.8383150100708 M8.28010082244873 11.428558349609375 C8.28010082244873 11.428558349609375 8.257421493530273 11.044214248657227 8.021086692810059 11.044214248657227 C7.7847514152526855 11.044214248657227 7.728054046630859 11.428558349609375 7.728054046630859 11.428558349609375 L8.28010082244873 11.428558349609375 M9.366290092468262 10.967823028564453 L9.366290092468262 10.868753433227539 L9.568011283874512 10.868753433227539 L9.568011283874512 12.156065940856934 C9.568011283874512 12.156065940856934 9.5984468460083 12.582782745361328 9.293479919433594 12.758244514465332 C8.988510131835938 12.933706283569336 8.729496002197266 12.79226303100586 8.66504192352295 12.758244514465332 L8.66504192352295 12.506989479064941 C8.66504192352295 12.506989479064941 8.943154335021973 12.659173965454102 9.141294479370117 12.594717979431152 C9.339432716369629 12.52966594696045 9.377629280090332 12.243797302246094 9.373451232910156 12.091609954833984 C9.243945121765137 12.240812301635742 9.186650276184082 12.267071723937988 9.053564071655273 12.267071723937988 C8.920475006103516 12.267071723937988 8.565971374511719 12.140548706054688 8.565971374511719 11.563435554504395 C8.565971374511719 10.986921310424805 8.825582504272461 10.8383150100708 9.067289352416992 10.8383150100708 C9.270800590515137 10.8383150100708 9.366290092468262 10.967823028564453 9.366290092468262 10.967823028564453 L9.366290092468262 10.967823028564453 M8.771870613098145 11.552693367004395 C8.771870613098145 11.794401168823242 8.863182067871094 12.061174392700195 9.067289352416992 12.061174392700195 C9.271398544311523 12.061174392700195 9.373451232910156 11.848114013671875 9.373451232910156 11.520464897155762 C9.373451232910156 11.192818641662598 9.224846839904785 11.044214248657227 9.067289352416992 11.044214248657227 C8.852437973022461 11.044214248657227 8.771870613098145 11.31098747253418 8.771870613098145 11.552693367004395 L8.771870613098145 11.552693367004395 M9.829412460327148 11.177898406982422 L9.829412460327148 10.949322700500488 C9.829412460327148 10.949322700500488 9.954740524291992 10.852640151977539 10.203012466430664 10.852640151977539 C10.451284408569336 10.852640151977539 10.5986967086792 11.0101957321167 10.5986967086792 11.270999908447266 L10.5986967086792 12.259312629699707 L10.418460845947266 12.259312629699707 L10.418460845947266 12.124435424804688 C10.418460845947266 12.124435424804688 10.299099922180176 12.29154109954834 10.096781730651855 12.29154109954834 C9.894464492797852 12.29154109954834 9.691551208496094 12.163228034973145 9.691551208496094 11.897647857666016 C9.691551208496094 11.63206958770752 9.83657455444336 11.491819381713867 10.08723258972168 11.406476974487305 C10.248371124267578 11.351570129394531 10.392799377441406 11.374248504638672 10.392799377441406 11.374248504638672 L10.392799377441406 11.261451721191406 C10.392799377441406 11.261451721191406 10.40234661102295 11.058537483215332 10.1898832321167 11.044214248657227 C9.97741985321045 11.029891967773438 9.829412460327148 11.177898406982422 9.829412460327148 11.177898406982422 M9.972646713256836 11.701894760131836 C9.890884399414062 11.774107933044434 9.874173164367676 11.911972045898438 9.936240196228027 12.003283500671387 C9.978614807128906 12.065947532653809 10.05440902709961 12.085641860961914 10.126026153564453 12.085641860961914 C10.389814376831055 12.085641860961914 10.396379470825195 11.74785041809082 10.396379470825195 11.74785041809082 L10.396379470825195 11.590292930603027 C10.256725311279297 11.591485023498535 10.08245849609375 11.604020118713379 9.972646713256836 11.701894760131836 L9.972646713256836 11.701894760131836 M6.586958885192871 13.143183708190918 L6.714676856994629 13.143183708190918 L6.714676856994629 13.62062931060791 L6.938479423522949 13.62062931060791 L6.938479423522949 13.732830047607422 L6.586958885192871 13.732830047607422 L6.586958885192871 13.143183708190918 M7.245237350463867 13.732234001159668 L7.237478256225586 13.689264297485352 L7.235092639923096 13.689264297485352 C7.208235263824463 13.72327995300293 7.1664581298828125 13.741781234741211 7.118116855621338 13.741781234741211 C7.035161972045898 13.741781234741211 6.986223220825195 13.679117202758789 6.986223220825195 13.610485076904297 C6.986223220825195 13.49947738647461 7.08171272277832 13.446362495422363 7.226139068603516 13.44696044921875 L7.226139068603516 13.44099235534668 C7.226139068603516 13.418313026428223 7.214203834533691 13.38608455657959 7.151537895202637 13.38608455657959 C7.109762668609619 13.38608455657959 7.06559944152832 13.401004791259766 7.038742542266846 13.418313026428223 L7.015466213226318 13.332372665405273 C7.044113636016846 13.315662384033203 7.099616050720215 13.29477310180664 7.174217224121094 13.29477310180664 C7.310288906097412 13.29477310180664 7.353856563568115 13.378923416137695 7.353856563568115 13.47918701171875 L7.353856563568115 13.627792358398438 C7.353856563568115 13.668971061706543 7.355647087097168 13.70836067199707 7.359825134277344 13.731637001037598 L7.245237350463867 13.731637001037598 L7.245237350463867 13.732234001159668 M7.230317115783691 13.529915809631348 C7.163475036621094 13.529317855834961 7.111553192138672 13.545433044433594 7.111553192138672 13.597354888916016 C7.111553192138672 13.631373405456543 7.133037090301514 13.648083686828613 7.161684513092041 13.648083686828613 C7.193315505981445 13.648083686828613 7.219574928283691 13.626002311706543 7.22792911529541 13.599145889282227 C7.229721546173096 13.591983795166016 7.230317115783691 13.584224700927734 7.230317115783691 13.57646656036377 L7.230317115783691 13.529915809631348 M7.929177761077881 13.721489906311035 C7.906500339508057 13.732234001159668 7.864125728607178 13.740588188171387 7.815784454345703 13.740588188171387 C7.6838908195495605 13.740588188171387 7.599740982055664 13.656438827514648 7.599740982055664 13.522156715393066 C7.599740982055664 13.397424697875977 7.681502819061279 13.29477310180664 7.833690166473389 13.29477310180664 C7.8671112060546875 13.29477310180664 7.904112815856934 13.300742149353027 7.93037223815918 13.311483383178711 L7.910081386566162 13.410553932189941 C7.895161151885986 13.403392791748047 7.872481822967529 13.397424697875977 7.8390607833862305 13.397424697875977 C7.772218704223633 13.397424697875977 7.728651523590088 13.44696044921875 7.729844093322754 13.517383575439453 C7.729844093322754 13.596161842346191 7.779975891113281 13.637340545654297 7.842044353485107 13.637340545654297 C7.871884822845459 13.637340545654297 7.895756721496582 13.631969451904297 7.914855003356934 13.624210357666016 L7.929177761077881 13.721489906311035 M8.235340118408203 13.732234001159668 L8.227581024169922 13.689264297485352 L8.225194931030273 13.689264297485352 C8.198338508605957 13.72327995300293 8.156562805175781 13.741781234741211 8.108219146728516 13.741781234741211 C8.025861740112305 13.741781234741211 7.976325988769531 13.679117202758789 7.976325988769531 13.610485076904297 C7.976325988769531 13.49947738647461 8.071815490722656 13.446362495422363 8.216243743896484 13.44696044921875 L8.216243743896484 13.44099235534668 C8.216243743896484 13.418313026428223 8.204306602478027 13.38608455657959 8.141642570495605 13.38608455657959 C8.099864959716797 13.38608455657959 8.055702209472656 13.401004791259766 8.028844833374023 13.418313026428223 L8.005570411682129 13.332372665405273 C8.034215927124023 13.315662384033203 8.08971881866455 13.29477310180664 8.16431999206543 13.29477310180664 C8.300392150878906 13.29477310180664 8.34395980834961 13.378923416137695 8.34395980834961 13.47918701171875 L8.34395980834961 13.627792358398438 C8.34395980834961 13.668971061706543 8.345749855041504 13.70836067199707 8.34992790222168 13.731637001037598 L8.235340118408203 13.731637001037598 L8.235340118408203 13.732234001159668 M8.219823837280273 13.529915809631348 C8.15298080444336 13.529317855834961 8.101058006286621 13.545433044433594 8.101058006286621 13.597354888916016 C8.101058006286621 13.631373405456543 8.122544288635254 13.648083686828613 8.151189804077148 13.648083686828613 C8.182820320129395 13.648083686828613 8.20907974243164 13.626002311706543 8.217436790466309 13.599145889282227 C8.219226837158203 13.591983795166016 8.219823837280273 13.584224700927734 8.219823837280273 13.57646656036377 L8.219823837280273 13.529915809631348 M8.444222450256348 13.44099235534668 C8.444222450256348 13.3878755569458 8.442432403564453 13.34192180633545 8.440641403198242 13.304322242736816 L8.547471046447754 13.304322242736816 L8.553439140319824 13.362213134765625 L8.555825233459473 13.362213134765625 C8.57313346862793 13.335355758666992 8.609539031982422 13.29477310180664 8.679364204406738 13.29477310180664 C8.731884002685547 13.29477310180664 8.773660659790039 13.322823524475098 8.79156494140625 13.367584228515625 L8.793354988098145 13.367584228515625 C8.80827522277832 13.345502853393555 8.826776504516602 13.328194618225098 8.845874786376953 13.316259384155273 C8.868553161621094 13.302532196044922 8.893617630004883 13.295371055603027 8.923458099365234 13.295371055603027 C9.002237319946289 13.295371055603027 9.061321258544922 13.35326099395752 9.061321258544922 13.480977058410645 L9.061321258544922 13.732830047607422 L8.937783241271973 13.732830047607422 L8.937783241271973 13.500075340270996 C8.937783241271973 13.438006401062012 8.918684959411621 13.402199745178223 8.877504348754883 13.402199745178223 C8.848261833190918 13.402199745178223 8.827373504638672 13.423086166381836 8.81901741027832 13.448750495910645 C8.815436363220215 13.458297729492188 8.81424331665039 13.472622871398926 8.81424331665039 13.482767105102539 L8.81424331665039 13.732830047607422 L8.690704345703125 13.732830047607422 L8.690704345703125 13.493511199951172 C8.690704345703125 13.439201354980469 8.672203063964844 13.402795791625977 8.632218360900879 13.402795791625977 C8.599392890930176 13.402795791625977 8.580294609069824 13.429055213928223 8.57313346862793 13.451136589050293 C8.568954467773438 13.461880683898926 8.568359375 13.47381591796875 8.568359375 13.48455810546875 L8.568359375 13.733427047729492 L8.444819450378418 13.733427047729492 L8.444819450378418 13.44099235534668 L8.444222450256348 13.44099235534668 M9.162778854370117 13.448153495788574 C9.162778854370117 13.392053604125977 9.160987854003906 13.34430980682373 9.159197807312012 13.304920196533203 L9.269607543945312 13.304920196533203 L9.275575637817383 13.364601135253906 L9.277366638183594 13.364601135253906 C9.307207107543945 13.319242477416992 9.354352951049805 13.295371055603027 9.41343879699707 13.295371055603027 C9.502959251403809 13.295371055603027 9.582931518554688 13.376535415649414 9.582931518554688 13.513204574584961 C9.582931518554688 13.668971061706543 9.488635063171387 13.742378234863281 9.397323608398438 13.742378234863281 C9.347789764404297 13.742378234863281 9.309593200683594 13.721489906311035 9.291091918945312 13.693440437316895 L9.289300918579102 13.693440437316895 L9.289300918579102 13.905902862548828 L9.16218090057373 13.905902862548828 L9.16218090057373 13.448153495788574 L9.162778854370117 13.448153495788574 M9.289300918579102 13.548416137695312 C9.289300918579102 13.559158325195312 9.289898872375488 13.568707466125488 9.291688919067383 13.57646656036377 C9.300043106079102 13.612275123596191 9.329288482666016 13.639130592346191 9.366290092468262 13.639130592346191 C9.421195030212402 13.639130592346191 9.454020500183105 13.590788841247559 9.454020500183105 13.518575668334961 C9.454020500183105 13.450540542602539 9.42477798461914 13.398616790771484 9.368080139160156 13.398616790771484 C9.332271575927734 13.398616790771484 9.300641059875488 13.426667213439941 9.29228687286377 13.466056823730469 C9.290496826171875 13.473217964172363 9.289898872375488 13.481574058532715 9.289898872375488 13.489928245544434 L9.289898872375488 13.548416137695312 L9.289300918579102 13.548416137695312 M9.762569427490234 13.560949325561523 C9.766746520996094 13.615856170654297 9.818669319152832 13.642115592956543 9.877754211425781 13.642115592956543 C9.921319961547852 13.642115592956543 9.956531524658203 13.636147499084473 9.99055004119873 13.624807357788086 L10.0072603225708 13.714925765991211 C9.965484619140625 13.732234001159668 9.914755821228027 13.741186141967773 9.8592529296875 13.741186141967773 C9.720793724060059 13.741186141967773 9.641417503356934 13.657035827636719 9.641417503356934 13.523351669311523 C9.641417503356934 13.414731979370117 9.705873489379883 13.295371055603027 9.84791374206543 13.295371055603027 C9.97980785369873 13.295371055603027 10.029939651489258 13.402795791625977 10.029939651489258 13.508431434631348 C10.029939651489258 13.531108856201172 10.027551651000977 13.551401138305664 10.025760650634766 13.560949325561523 L9.762569427490234 13.560949325561523 M9.911770820617676 13.469636917114258 C9.911770820617676 13.437411308288574 9.898640632629395 13.383101463317871 9.840154647827148 13.383101463317871 C9.786442756652832 13.383101463317871 9.7649564743042 13.433830261230469 9.76137638092041 13.469636917114258 L9.911770820617676 13.469636917114258 M10.509175300598145 13.513802528381348 C10.509175300598145 13.670166015625 10.40294361114502 13.741781234741211 10.293728828430176 13.741781234741211 C10.174367904663086 13.741781234741211 10.08245849609375 13.659423828125 10.08245849609375 13.521560668945312 C10.08245849609375 13.383697509765625 10.169591903686523 13.295371055603027 10.30029296875 13.295371055603027 C10.425622940063477 13.29477310180664 10.509175300598145 13.384891510009766 10.509175300598145 13.513802528381348 L10.509175300598145 13.513802528381348 M10.213159561157227 13.51797866821289 C10.213159561157227 13.591386795043945 10.242402076721191 13.646293640136719 10.296711921691895 13.646293640136719 C10.346246719360352 13.646293640136719 10.37787914276123 13.594966888427734 10.37787914276123 13.51797866821289 C10.37787914276123 13.454121589660645 10.354602813720703 13.389665603637695 10.296711921691895 13.389665603637695 C10.235837936401367 13.389665603637695 10.213159561157227 13.454717636108398 10.213159561157227 13.51797866821289 M10.5879545211792 13.44099235534668 C10.5879545211792 13.3878755569458 10.586163520812988 13.34192180633545 10.584373474121094 13.304322242736816 L10.694783210754395 13.304322242736816 L10.700750350952148 13.362810134887695 L10.703137397766113 13.362810134887695 C10.719847679138184 13.335952758789062 10.761625289916992 13.29477310180664 10.829065322875977 13.29477310180664 C10.912617683410645 13.29477310180664 10.975281715393066 13.35266399383545 10.975281715393066 13.478590965270996 L10.975281715393066 13.732234001159668 L10.848161697387695 13.732234001159668 L10.848161697387695 13.495301246643066 C10.848161697387695 13.440394401550293 10.829660415649414 13.402795791625977 10.783706665039062 13.402795791625977 C10.748495101928711 13.402795791625977 10.727606773376465 13.427862167358398 10.719250679016113 13.45233154296875 C10.715669631958008 13.460088729858398 10.7144775390625 13.473217964172363 10.7144775390625 13.48575210571289 L10.7144775390625 13.732234001159668 L10.587356567382812 13.732234001159668 L10.587356567382812 13.44099235534668 L10.5879545211792 13.44099235534668 M11.309494018554688 13.732234001159668 L11.301734924316406 13.689264297485352 L11.299346923828125 13.689264297485352 C11.272492408752441 13.72327995300293 11.230714797973633 13.741781234741211 11.182374000549316 13.741781234741211 C11.100013732910156 13.741781234741211 11.050479888916016 13.679117202758789 11.050479888916016 13.610485076904297 C11.050479888916016 13.49947738647461 11.145371437072754 13.446362495422363 11.290395736694336 13.44696044921875 L11.290395736694336 13.44099235534668 C11.290395736694336 13.418313026428223 11.278460502624512 13.38608455657959 11.215794563293457 13.38608455657959 C11.174018859863281 13.38608455657959 11.129854202270508 13.401004791259766 11.102998733520508 13.418313026428223 L11.07972240447998 13.332372665405273 C11.108369827270508 13.315662384033203 11.163872718811035 13.29477310180664 11.238473892211914 13.29477310180664 C11.374545097351074 13.29477310180664 11.418112754821777 13.378923416137695 11.418112754821777 13.47918701171875 L11.418112754821777 13.627792358398438 C11.418112754821777 13.668971061706543 11.419903755187988 13.70836067199707 11.424081802368164 13.731637001037598 L11.309494018554688 13.731637001037598 L11.309494018554688 13.732234001159668 M11.294573783874512 13.529915809631348 C11.227731704711914 13.529317855834961 11.175809860229492 13.545433044433594 11.175809860229492 13.597354888916016 C11.175809860229492 13.631373405456543 11.197294235229492 13.648083686828613 11.225940704345703 13.648083686828613 C11.257572174072266 13.648083686828613 11.283831596374512 13.626002311706543 11.29218578338623 13.599145889282227 C11.293975830078125 13.591983795166016 11.294573783874512 13.584224700927734 11.294573783874512 13.57646656036377 L11.294573783874512 13.529915809631348 M12.082955360412598 13.111553192138672 L12.082955360412598 13.60451602935791 C12.082955360412598 13.652857780456543 12.084745407104492 13.70358657836914 12.086536407470703 13.732234001159668 L11.973740577697754 13.732234001159668 L11.967771530151367 13.669568061828613 L11.965981483459473 13.669568061828613 C11.940319061279297 13.71790885925293 11.890783309936523 13.742378234863281 11.838263511657715 13.742378234863281 C11.741581916809082 13.742378234863281 11.663997650146484 13.655842781066895 11.663997650146484 13.522753715515137 C11.663399696350098 13.378326416015625 11.749340057373047 13.295371055603027 11.846620559692383 13.295371055603027 C11.896751403808594 13.295371055603027 11.936141014099121 13.313871383666992 11.954044342041016 13.343711853027344 L11.955835342407227 13.343711853027344 L11.955835342407227 13.112150192260742 L12.082955360412598 13.112150192260742 L12.082955360412598 13.111553192138672 M11.955835342407227 13.48575210571289 C11.955835342407227 13.478590965270996 11.955239295959473 13.46904182434082 11.954044342041016 13.461880683898926 C11.946288108825684 13.426071166992188 11.91883373260498 13.396231651306152 11.879444122314453 13.396231651306152 C11.821553230285645 13.396231651306152 11.791712760925293 13.450540542602539 11.791712760925293 13.51797866821289 C11.791712760925293 13.590788841247559 11.82573127746582 13.636147499084473 11.8788480758667 13.636147499084473 C11.915849685668945 13.636147499084473 11.945093154907227 13.60988712310791 11.952254295349121 13.572288513183594 C11.954642295837402 13.562739372253418 11.955835342407227 13.553192138671875 11.955835342407227 13.541851997375488 L11.955835342407227 13.48575210571289 M12.282885551452637 13.560949325561523 C12.287063598632812 13.615856170654297 12.33898639678955 13.642115592956543 12.398069381713867 13.642115592956543 C12.44163703918457 13.642115592956543 12.476848602294922 13.636147499084473 12.51086711883545 13.624807357788086 L12.527575492858887 13.714925765991211 C12.485801696777344 13.732234001159668 12.435070991516113 13.741186141967773 12.379568099975586 13.741186141967773 C12.241108894348145 13.741186141967773 12.161734580993652 13.657035827636719 12.161734580993652 13.523351669311523 C12.161734580993652 13.414731979370117 12.226188659667969 13.295371055603027 12.368228912353516 13.295371055603027 C12.50012493133545 13.295371055603027 12.550254821777344 13.402795791625977 12.550254821777344 13.508431434631348 C12.550254821777344 13.531108856201172 12.547868728637695 13.551401138305664 12.546075820922852 13.560949325561523 L12.282885551452637 13.560949325561523 M12.432087898254395 13.469636917114258 C12.432087898254395 13.437411308288574 12.418957710266113 13.383101463317871 12.360469818115234 13.383101463317871 C12.306757926940918 13.383101463317871 12.285273551940918 13.433830261230469 12.281693458557129 13.469636917114258 L12.432087898254395 13.469636917114258 M12.794947624206543 13.111553192138672 L12.922067642211914 13.111553192138672 L12.922067642211914 13.732234001159668 L12.794947624206543 13.732234001159668 L12.794947624206543 13.111553192138672 M13.4281587600708 13.513802528381348 C13.4281587600708 13.670166015625 13.321925163269043 13.741781234741211 13.212712287902832 13.741781234741211 C13.093351364135742 13.741781234741211 13.001440048217773 13.659423828125 13.001440048217773 13.521560668945312 C13.001440048217773 13.383697509765625 13.08857536315918 13.295371055603027 13.219276428222656 13.295371055603027 C13.3446044921875 13.29477310180664 13.4281587600708 13.384891510009766 13.4281587600708 13.513802528381348 M13.13214111328125 13.51797866821289 C13.13214111328125 13.591386795043945 13.161388397216797 13.646293640136719 13.21569538116455 13.646293640136719 C13.26523208618164 13.646293640136719 13.296860694885254 13.594966888427734 13.296860694885254 13.51797866821289 C13.296860694885254 13.454121589660645 13.273584365844727 13.389665603637695 13.21569538116455 13.389665603637695 C13.154820442199707 13.389665603637695 13.13214111328125 13.454717636108398 13.13214111328125 13.51797866821289 M13.505743026733398 13.615856170654297 C13.529019355773926 13.630776405334473 13.577360153198242 13.648083686828613 13.614959716796875 13.648083686828613 C13.653156280517578 13.648083686828613 13.669267654418945 13.634356498718262 13.669267654418945 13.612275123596191 C13.669267654418945 13.590193748474121 13.656737327575684 13.580047607421875 13.608993530273438 13.563336372375488 C13.52484130859375 13.533495903015137 13.49201774597168 13.48575210571289 13.493212699890137 13.435023307800293 C13.493212699890137 13.355647087097168 13.55826187133789 13.295371055603027 13.659122467041016 13.295371055603027 C13.706867218017578 13.295371055603027 13.74924087524414 13.306710243225098 13.774306297302246 13.319840431213379 L13.751626968383789 13.411746978759766 C13.733126640319824 13.401004791259766 13.697916984558105 13.387279510498047 13.663301467895508 13.387279510498047 C13.6322660446167 13.387279510498047 13.614959716796875 13.400407791137695 13.614959716796875 13.422491073608398 C13.614959716796875 13.442782402038574 13.631074905395508 13.452926635742188 13.681204795837402 13.471427917480469 C13.7587890625 13.49947738647461 13.791616439819336 13.540657997131348 13.79220962524414 13.603322982788086 C13.79220962524414 13.682698249816895 13.731935501098633 13.741186141967773 13.614959716796875 13.741186141967773 C13.561245918273926 13.741186141967773 13.51409912109375 13.72865104675293 13.483064651489258 13.711345672607422 L13.505743026733398 13.615856170654297 M14.038093566894531 13.448153495788574 C14.038093566894531 13.392053604125977 14.03630542755127 13.34430980682373 14.034513473510742 13.304920196533203 L14.144925117492676 13.304920196533203 L14.150891304016113 13.364601135253906 L14.15268325805664 13.364601135253906 C14.182523727416992 13.319242477416992 14.229670524597168 13.295371055603027 14.288753509521484 13.295371055603027 C14.378274917602539 13.295371055603027 14.458248138427734 13.376535415649414 14.458248138427734 13.513204574584961 C14.458248138427734 13.668971061706543 14.363951683044434 13.742378234863281 14.272642135620117 13.742378234863281 C14.223106384277344 13.742378234863281 14.18490982055664 13.721489906311035 14.16640853881836 13.693440437316895 L14.164620399475098 13.693440437316895 L14.164620399475098 13.905902862548828 L14.037500381469727 13.905902862548828 L14.037500381469727 13.448153495788574 L14.038093566894531 13.448153495788574 M14.164620399475098 13.548416137695312 C14.164620399475098 13.559158325195312 14.165214538574219 13.568707466125488 14.167006492614746 13.57646656036377 C14.175362586975098 13.612275123596191 14.204605102539062 13.639130592346191 14.241607666015625 13.639130592346191 C14.296512603759766 13.639130592346191 14.329336166381836 13.590788841247559 14.329336166381836 13.518575668334961 C14.329336166381836 13.450540542602539 14.300092697143555 13.398616790771484 14.243395805358887 13.398616790771484 C14.207589149475098 13.398616790771484 14.175959587097168 13.426667213439941 14.167603492736816 13.466056823730469 C14.165811538696289 13.473217964172363 14.165214538574219 13.481574058532715 14.165214538574219 13.489928245544434 L14.165214538574219 13.548416137695312 L14.164620399475098 13.548416137695312 M14.53762435913086 13.445168495178223 C14.53762435913086 13.3825044631958 14.535832405090332 13.341323852539062 14.53404426574707 13.304322242736816 L14.643257141113281 13.304322242736816 L14.647435188293457 13.383101463317871 L14.651016235351562 13.383101463317871 C14.671906471252441 13.321033477783203 14.722036361694336 13.29477310180664 14.76142692565918 13.29477310180664 C14.773361206054688 13.29477310180664 14.778733253479004 13.29477310180664 14.788280487060547 13.296564102172852 L14.788280487060547 13.421296119689941 C14.77933120727539 13.419506072998047 14.76858901977539 13.417715072631836 14.754262924194336 13.417715072631836 C14.70771312713623 13.417715072631836 14.675487518310547 13.443975448608398 14.667131423950195 13.48515510559082 C14.665338516235352 13.49410629272461 14.664741516113281 13.504253387451172 14.664741516113281 13.514995574951172 L14.664741516113281 13.731637001037598 L14.53762435913086 13.731637001037598 L14.53762435913086 13.445168495178223 M14.945838928222656 13.560949325561523 C14.950016975402832 13.615856170654297 15.001938819885254 13.642115592956543 15.06102180480957 13.642115592956543 C15.104591369628906 13.642115592956543 15.139801025390625 13.636147499084473 15.173819541931152 13.624807357788086 L15.190531730651855 13.714925765991211 C15.148755073547363 13.732234001159668 15.098024368286133 13.741186141967773 15.042521476745605 13.741186141967773 C14.904061317443848 13.741186141967773 14.824688911437988 13.657035827636719 14.824688911437988 13.523351669311523 C14.824688911437988 13.414731979370117 14.889141082763672 13.295371055603027 15.031181335449219 13.295371055603027 C15.163077354431152 13.295371055603027 15.213207244873047 13.402795791625977 15.213207244873047 13.508431434631348 C15.213207244873047 13.531108856201172 15.210821151733398 13.551401138305664 15.209033012390137 13.560949325561523 L14.945838928222656 13.560949325561523 M15.095638275146484 13.469636917114258 C15.095638275146484 13.437411308288574 15.08250617980957 13.383101463317871 15.024020195007324 13.383101463317871 C14.97031021118164 13.383101463317871 14.948822021484375 13.433830261230469 14.945241928100586 13.469636917114258 L15.095638275146484 13.469636917114258 M15.595762252807617 13.721489906311035 C15.573083877563477 13.732234001159668 15.530709266662598 13.740588188171387 15.482367515563965 13.740588188171387 C15.350475311279297 13.740588188171387 15.266324043273926 13.656438827514648 15.266324043273926 13.522156715393066 C15.266324043273926 13.397424697875977 15.3480863571167 13.29477310180664 15.50027084350586 13.29477310180664 C15.533696174621582 13.29477310180664 15.570100784301758 13.300742149353027 15.596957206726074 13.311483383178711 L15.576663970947266 13.410553932189941 C15.561744689941406 13.403392791748047 15.53906536102295 13.397424697875977 15.505643844604492 13.397424697875977 C15.438801765441895 13.397424697875977 15.395236015319824 13.44696044921875 15.396427154541016 13.517383575439453 C15.396427154541016 13.596161842346191 15.446560859680176 13.637340545654297 15.508626937866211 13.637340545654297 C15.538467407226562 13.637340545654297 15.562341690063477 13.631969451904297 15.581439971923828 13.624210357666016 L15.595762252807617 13.721489906311035 M15.797483444213867 13.185558319091797 C15.797483444213867 13.222559928894043 15.77062702178955 13.251803398132324 15.728849411010742 13.251803398132324 C15.688864707946777 13.251803398132324 15.662007331848145 13.221962928771973 15.662605285644531 13.185558319091797 C15.662007331848145 13.147361755371094 15.68826675415039 13.118119239807129 15.729446411132812 13.118119239807129 C15.77062702178955 13.118119239807129 15.796289443969727 13.147361755371094 15.797483444213867 13.185558319091797 M15.66618537902832 13.732234001159668 L15.66618537902832 13.304920196533203 L15.793305397033691 13.304920196533203 L15.793305397033691 13.732234001159668 L15.66618537902832 13.732234001159668 M16.298206329345703 13.513802528381348 C16.298206329345703 13.670166015625 16.191972732543945 13.741781234741211 16.08275604248047 13.741781234741211 C15.963394165039062 13.741781234741211 15.87148666381836 13.659423828125 15.87148666381836 13.521560668945312 C15.87148666381836 13.383697509765625 15.958621978759766 13.295371055603027 16.089323043823242 13.295371055603027 C16.214651107788086 13.29477310180664 16.298206329345703 13.384891510009766 16.298206329345703 13.513802528381348 M16.002784729003906 13.51797866821289 C16.002784729003906 13.591386795043945 16.032028198242188 13.646293640136719 16.086336135864258 13.646293640136719 C16.13587188720703 13.646293640136719 16.167505264282227 13.594966888427734 16.167505264282227 13.51797866821289 C16.167505264282227 13.454121589660645 16.144227981567383 13.389665603637695 16.086336135864258 13.389665603637695 C16.02546501159668 13.389665603637695 16.002784729003906 13.454717636108398 16.002784729003906 13.51797866821289 M16.376386642456055 13.615856170654297 C16.399660110473633 13.630776405334473 16.448001861572266 13.648083686828613 16.485599517822266 13.648083686828613 C16.52379608154297 13.648083686828613 16.5399112701416 13.634356498718262 16.5399112701416 13.612275123596191 C16.5399112701416 13.590193748474121 16.52737808227539 13.580047607421875 16.479633331298828 13.563336372375488 C16.39548110961914 13.533495903015137 16.362659454345703 13.48575210571289 16.363853454589844 13.435023307800293 C16.363853454589844 13.355647087097168 16.428905487060547 13.295371055603027 16.52976417541504 13.295371055603027 C16.577510833740234 13.295371055603027 16.619882583618164 13.306710243225098 16.64495086669922 13.319840431213379 L16.622272491455078 13.411746978759766 C16.603771209716797 13.401004791259766 16.568557739257812 13.387279510498047 16.5339412689209 13.387279510498047 C16.502910614013672 13.387279510498047 16.485599517822266 13.400407791137695 16.485599517822266 13.422491073608398 C16.485599517822266 13.442782402038574 16.5017147064209 13.452926635742188 16.551849365234375 13.471427917480469 C16.629432678222656 13.49947738647461 16.662256240844727 13.540657997131348 16.662853240966797 13.603322982788086 C16.662853240966797 13.682698249816895 16.602575302124023 13.741186141967773 16.485599517822266 13.741186141967773 C16.4318904876709 13.741186141967773 16.38473892211914 13.72865104675293 16.353708267211914 13.711345672607422 L16.376386642456055 13.615856170654297 M16.9051570892334 13.732234001159668 C16.906946182250977 13.704183578491211 16.908737182617188 13.652857780456543 16.908737182617188 13.60451602935791 L16.908737182617188 13.111553192138672 L17.035858154296875 13.111553192138672 L17.035858154296875 13.355647087097168 L17.037647247314453 13.355647087097168 C17.062118530273438 13.318645477294922 17.104488372802734 13.295371055603027 17.16118621826172 13.295371055603027 C17.259063720703125 13.295371055603027 17.33068084716797 13.38011646270752 17.3300838470459 13.511414527893066 C17.3300838470459 13.665390014648438 17.236385345458984 13.742378234863281 17.14328384399414 13.742378234863281 C17.095539093017578 13.742378234863281 17.049583435058594 13.723877906799316 17.020339965820312 13.673149108886719 L17.0185489654541 13.673149108886719 L17.013776779174805 13.732830047607422 L16.9051570892334 13.732830047607422 L16.9051570892334 13.732234001159668 M17.035261154174805 13.550207138061523 C17.035261154174805 13.559158325195312 17.035858154296875 13.566917419433594 17.037647247314453 13.574078559875488 C17.046003341674805 13.60988712310791 17.075244903564453 13.636744499206543 17.112247467041016 13.636744499206543 C17.16655921936035 13.636744499206543 17.199979782104492 13.59317684173584 17.199979782104492 13.516188621520996 C17.199979782104492 13.449943542480469 17.17133140563965 13.397424697875977 17.112247467041016 13.397424697875977 C17.078229904174805 13.397424697875977 17.046003341674805 13.424281120300293 17.037647247314453 13.46307373046875 C17.035858154296875 13.470831871032715 17.035261154174805 13.478590965270996 17.035261154174805 13.487543106079102 L17.035261154174805 13.550207138061523 M17.639827728271484 13.732234001159668 L17.632068634033203 13.689264297485352 L17.629682540893555 13.689264297485352 C17.602825164794922 13.72327995300293 17.56104850769043 13.741781234741211 17.512706756591797 13.741781234741211 C17.430347442626953 13.741781234741211 17.38081169128418 13.679117202758789 17.38081169128418 13.610485076904297 C17.38081169128418 13.49947738647461 17.475704193115234 13.446362495422363 17.6207275390625 13.44696044921875 L17.6207275390625 13.44099235534668 C17.6207275390625 13.418313026428223 17.60879135131836 13.38608455657959 17.546127319335938 13.38608455657959 C17.504350662231445 13.38608455657959 17.460187911987305 13.401004791259766 17.433330535888672 13.418313026428223 L17.410053253173828 13.332372665405273 C17.438703536987305 13.315662384033203 17.494205474853516 13.29477310180664 17.568805694580078 13.29477310180664 C17.704875946044922 13.29477310180664 17.748445510864258 13.378923416137695 17.748445510864258 13.47918701171875 L17.748445510864258 13.627792358398438 C17.748445510864258 13.668971061706543 17.750234603881836 13.70836067199707 17.754413604736328 13.731637001037598 L17.639827728271484 13.731637001037598 L17.639827728271484 13.732234001159668 M17.624906539916992 13.529915809631348 C17.558063507080078 13.529317855834961 17.506141662597656 13.545433044433594 17.506141662597656 13.597354888916016 C17.506141662597656 13.631373405456543 17.527626037597656 13.648083686828613 17.556272506713867 13.648083686828613 C17.587905883789062 13.648083686828613 17.614164352416992 13.626002311706543 17.622520446777344 13.599145889282227 C17.624309539794922 13.591983795166016 17.624906539916992 13.584224700927734 17.624906539916992 13.57646656036377 L17.624906539916992 13.529915809631348 M17.764556884765625 13.81101131439209 C17.797977447509766 13.808625221252441 17.823644638061523 13.80026912689209 17.83975601196289 13.782960891723633 C17.858257293701172 13.762669563293457 17.864824295043945 13.72865104675293 17.864824295043945 13.643905639648438 L17.864824295043945 13.304920196533203 L17.992538452148438 13.304920196533203 L17.992538452148438 13.675537109375 C17.992538452148438 13.769235610961914 17.97284698486328 13.825931549072266 17.93524742126465 13.862337112426758 C17.897647857666016 13.898741722106934 17.838565826416016 13.914856910705566 17.77768898010254 13.914856910705566 L17.764556884765625 13.81101131439209 M17.996118545532227 13.185558319091797 C17.996118545532227 13.222559928894043 17.970457077026367 13.251803398132324 17.927488327026367 13.251803398132324 C17.887500762939453 13.251803398132324 17.861244201660156 13.221962928771973 17.861244201660156 13.185558319091797 C17.861244201660156 13.147361755371094 17.886905670166016 13.118119239807129 17.928680419921875 13.118119239807129 C17.969860076904297 13.118119239807129 17.99492835998535 13.147361755371094 17.996118545532227 13.185558319091797 M18.49564552307129 13.513802528381348 C18.49564552307129 13.670166015625 18.389415740966797 13.741781234741211 18.28019905090332 13.741781234741211 C18.160839080810547 13.741781234741211 18.068931579589844 13.659423828125 18.068931579589844 13.521560668945312 C18.068931579589844 13.383697509765625 18.156063079833984 13.295371055603027 18.28676414489746 13.295371055603027 C18.41209602355957 13.29477310180664 18.49564552307129 13.384891510009766 18.49564552307129 13.513802528381348 M18.19963264465332 13.51797866821289 C18.19963264465332 13.591386795043945 18.22887420654297 13.646293640136719 18.283184051513672 13.646293640136719 C18.332717895507812 13.646293640136719 18.364351272583008 13.594966888427734 18.364351272583008 13.51797866821289 C18.364351272583008 13.454121589660645 18.341075897216797 13.389665603637695 18.283184051513672 13.389665603637695 C18.22231101989746 13.389665603637695 18.19963264465332 13.454717636108398 18.19963264465332 13.51797866821289 M18.57323455810547 13.615856170654297 C18.596506118774414 13.630776405334473 18.644847869873047 13.648083686828613 18.68244743347168 13.648083686828613 C18.720643997192383 13.648083686828613 18.736759185791016 13.634356498718262 18.736759185791016 13.612275123596191 C18.736759185791016 13.590193748474121 18.724224090576172 13.580047607421875 18.67647933959961 13.563336372375488 C18.59233283996582 13.533495903015137 18.559505462646484 13.48575210571289 18.560699462890625 13.435023307800293 C18.560699462890625 13.355647087097168 18.62575340270996 13.295371055603027 18.726613998413086 13.295371055603027 C18.774356842041016 13.295371055603027 18.816728591918945 13.306710243225098 18.841796875 13.319840431213379 L18.81911849975586 13.411746978759766 C18.800617218017578 13.401004791259766 18.765403747558594 13.387279510498047 18.730789184570312 13.387279510498047 C18.699756622314453 13.387279510498047 18.68244743347168 13.400407791137695 18.68244743347168 13.422491073608398 C18.68244743347168 13.442782402038574 18.698562622070312 13.452926635742188 18.748695373535156 13.471427917480469 C18.826278686523438 13.49947738647461 18.85910415649414 13.540657997131348 18.85970115661621 13.603322982788086 C18.85970115661621 13.682698249816895 18.799423217773438 13.741186141967773 18.68244743347168 13.741186141967773 C18.62873649597168 13.741186141967773 18.581586837768555 13.72865104675293 18.550556182861328 13.711345672607422 L18.57323455810547 13.615856170654297 M11.298751831054688 11.84990406036377 L11.183568000793457 12.259910583496094 L10.755657196044922 12.259910583496094 L11.313074111938477 10.455761909484863 L11.854378700256348 10.455761909484863 L12.420150756835938 12.259910583496094 L11.976127624511719 12.259910583496094 L11.851393699645996 11.848709106445312 L11.298751831054688 11.84990406036377 M11.77619743347168 11.517481803894043 L11.662206649780273 11.10866928100586 C11.629979133605957 11.00184154510498 11.597155570983887 10.867560386657715 11.570298194885254 10.760730743408203 L11.564927101135254 10.760730743408203 C11.538069725036621 10.867560386657715 11.51061725616455 11.004227638244629 11.4807767868042 11.10866928100586 L11.373948097229004 11.517481803894043 L11.77619743347168 11.517481803894043 M13.675835609436035 11.815885543823242 C13.675835609436035 11.995525360107422 13.681204795837402 12.141145706176758 13.685979843139648 12.256329536437988 L13.344010353088379 12.256329536437988 L13.326103210449219 12.06296443939209 L13.318345069885254 12.06296443939209 C13.26881217956543 12.147112846374512 13.15004825592041 12.287363052368164 12.921470642089844 12.287363052368164 C12.664843559265137 12.287363052368164 12.475653648376465 12.113691329956055 12.475653648376465 11.689960479736328 L12.475653648376465 10.884865760803223 L12.87253189086914 10.884865760803223 L12.877904891967773 11.572388648986816 C12.877904891967773 11.771722793579102 12.93758487701416 11.892276763916016 13.074850082397461 11.892276763916016 C13.183469772338867 11.892276763916016 13.246133804321289 11.811111450195312 13.271795272827148 11.743672370910645 C13.281940460205078 11.718605995178223 13.284923553466797 11.684587478637695 13.284923553466797 11.651165962219238 L13.27955436706543 10.884865760803223 L13.67642879486084 10.884865760803223 L13.67642879486084 11.815885543823242 L13.675835609436035 11.815885543823242 M13.86681079864502 11.361716270446777 C13.86681079864502 11.15880012512207 13.861441612243652 11.025713920593262 13.85606861114502 10.90754508972168 L14.20997428894043 10.90754508972168 L14.223703384399414 11.161785125732422 L14.234445571899414 11.161785125732422 C14.301885604858398 10.961256980895996 14.463617324829102 10.876511573791504 14.590738296508789 10.876511573791504 C14.628336906433105 10.876511573791504 14.647435188293457 10.876511573791504 14.677275657653809 10.881882667541504 L14.677275657653809 11.285325050354004 C14.647435188293457 11.279952049255371 14.612225532531738 11.273985862731934 14.56627082824707 11.273985862731934 C14.415276527404785 11.273985862731934 14.312627792358398 11.358731269836426 14.285770416259766 11.491222381591797 C14.280401229858398 11.519271850585938 14.277414321899414 11.553290367126465 14.277414321899414 11.587308883666992 L14.277414321899414 12.287363052368164 L13.86681079864502 12.287363052368164 L13.86681079864502 11.361716270446777 M14.76082992553711 11.351570129394531 C14.76082992553711 11.148655891418457 14.755456924438477 11.0155668258667 14.75008773803711 10.89739990234375 L15.103994369506836 10.89739990234375 L15.117719650268555 11.151638984680176 L15.128461837768555 11.151638984680176 C15.195900917053223 10.951112747192383 15.357637405395508 10.866365432739258 15.484757423400879 10.866365432739258 C15.522356033325195 10.866365432739258 15.541451454162598 10.866365432739258 15.571290969848633 10.871736526489258 L15.571290969848633 11.275178909301758 C15.541451454162598 11.269807815551758 15.506241798400879 11.263838768005371 15.460286140441895 11.263838768005371 C15.309295654296875 11.263838768005371 15.206643104553223 11.348586082458496 15.179786682128906 11.481077194213867 C15.174417495727539 11.509127616882324 15.171433448791504 11.543144226074219 15.171433448791504 11.577162742614746 L15.171433448791504 12.277217864990234 L14.76082992553711 12.277217864990234 L14.76082992553711 11.351570129394531 M16.874122619628906 11.351570129394531 C16.874122619628906 11.148655891418457 16.86875343322754 11.0155668258667 16.863380432128906 10.89739990234375 L17.217287063598633 10.89739990234375 L17.23101234436035 11.151638984680176 L17.241756439208984 11.151638984680176 C17.30919647216797 10.951112747192383 17.470930099487305 10.866365432739258 17.59804916381836 10.866365432739258 C17.635648727416992 10.866365432739258 17.654747009277344 10.866365432739258 17.684587478637695 10.871736526489258 L17.684587478637695 11.275178909301758 C17.654747009277344 11.269807815551758 17.61953353881836 11.263838768005371 17.57358169555664 11.263838768005371 C17.422588348388672 11.263838768005371 17.31993865966797 11.348586082458496 17.29308319091797 11.481077194213867 C17.287708282470703 11.509127616882324 17.284725189208984 11.543144226074219 17.284725189208984 11.577162742614746 L17.284725189208984 12.277217864990234 L16.874122619628906 12.277217864990234 L16.874122619628906 11.351570129394531 M15.934150695800781 11.71980094909668 C15.946685791015625 11.897647857666016 16.10245132446289 11.98239517211914 16.280298233032227 11.98239517211914 C16.410999298095703 11.98239517211914 16.516036987304688 11.962699890136719 16.618690490722656 11.925698280334473 L16.668819427490234 12.21634292602539 C16.543493270874023 12.273039817810059 16.390708923339844 12.301090240478516 16.224796295166016 12.301090240478516 C15.808225631713867 12.301090240478516 15.570100784301758 12.030138969421387 15.570100784301758 11.598051071166992 C15.570100784301758 11.248321533203125 15.76346492767334 10.861591339111328 16.189586639404297 10.861591339111328 C16.58586311340332 10.861591339111328 16.73625946044922 11.20893383026123 16.73625946044922 11.550305366516113 C16.73625946044922 11.623713493347168 16.728500366210938 11.688765525817871 16.723726272583008 11.71980094909668 L15.934150695800781 11.71980094909668 M16.382951736450195 11.426170349121094 C16.382951736450195 11.32172966003418 16.342966079711914 11.146864891052246 16.167505264282227 11.146864891052246 C16.0069637298584 11.146864891052246 15.941909790039062 11.310389518737793 15.93176555633545 11.426170349121094 L16.382951736450195 11.426170349121094 M18.509374618530273 12.259312629699707 L18.486099243164062 12.123838424682617 L18.47834014892578 12.123838424682617 C18.396577835083008 12.231860160827637 18.26885986328125 12.289750099182129 18.120256423950195 12.289750099182129 C17.867210388183594 12.289750099182129 17.716217041015625 12.09041690826416 17.716217041015625 11.874968528747559 C17.716217041015625 11.52345085144043 18.007457733154297 11.35455322265625 18.450292587280273 11.357538223266602 L18.450292587280273 11.33843994140625 C18.450292587280273 11.266226768493652 18.41448211669922 11.164173126220703 18.22290802001953 11.164173126220703 C18.095191955566406 11.164173126220703 17.959714889526367 11.211319923400879 17.877952575683594 11.266226768493652 L17.80633544921875 10.995275497436523 C17.893470764160156 10.942756652832031 18.06475257873535 10.876511573791504 18.292137145996094 10.876511573791504 C18.70870590209961 10.876511573791504 18.841796875 11.14208984375 18.841796875 11.460188865661621 L18.841796875 11.930473327636719 C18.841796875 12.060576438903809 18.847166061401367 12.184711456298828 18.85970115661621 12.259910583496094 L18.509374618530273 12.259910583496094 L18.509374618530273 12.259312629699707 M18.463420867919922 11.620132446289062 C18.258716583251953 11.617149353027344 18.10055923461914 11.66966724395752 18.10055923461914 11.8331937789917 C18.10055923461914 11.941215515136719 18.16680908203125 11.993734359741211 18.25394058227539 11.993734359741211 C18.351219177246094 11.993734359741211 18.43059539794922 11.924505233764648 18.45566177368164 11.8385648727417 C18.46103286743164 11.816482543945312 18.463420867919922 11.79141616821289 18.463420867919922 11.766351699829102 L18.463420867919922 11.620132446289062" fill="black" fill-opacity="1.0" filling="0"/></svg>