<?xml version="1.0" encoding="iso-8859-1"?><svg height="200px" viewBox="0.0 0.0 24.0 24.0" width="200px" xmlns="http://www.w3.org/2000/svg"><path animation_id="0" d="M0.0 0.0 L24.0 0.0 L24.0 24.0 L0.0 24.0 L0.0 0.0" fill="black" fill-opacity="1.0" filling="0"/>
<path animation_id="1" d="M1.0915765762329102 11.950943946838379 L12.016311645507812 1.0588302612304688 L22.90854835510254 11.950943946838379 L11.918197631835938 22.94116973876953 L1.0915765762329102 11.950943946838379" fill="black" fill-opacity="1.0" filling="0"/>
<path animation_id="2" d="M3.675652503967285 14.731245994567871 L3.675652503967285 9.268754959106445 L5.147481918334961 7.796924591064453 L8.418353080749512 12.081803321838379 L8.418353080749512 7.8296709060668945 L9.89030647277832 7.8296709060668945 L9.89030647277832 14.69849967956543 L8.451099395751953 14.69849967956543 L5.474569320678711 10.773454666137695 L5.474569320678711 14.731245994567871 L3.675652503967285 14.731245994567871 M10.381000518798828 14.731245994567871 L10.381000518798828 7.8296709060668945 L14.07719612121582 7.8296709060668945 L14.07719612121582 9.138019561767578 L11.852829933166504 9.138019561767578 L11.852829933166504 10.446368217468262 L14.04432487487793 10.446368217468262 L14.04432487487793 11.787337303161621 L11.852829933166504 11.787337303161621 L11.852829933166504 13.390151023864746 L14.07719612121582 13.390151023864746 L14.07719612121582 14.69849967956543 L10.381000518798828 14.731245994567871 L10.381000518798828 14.731245994567871 M15.777999877929688 11.296769142150879 C15.777999877929688 11.296769142150879 15.974225997924805 10.87156867980957 17.413434982299805 10.87156867980957 L17.413434982299805 9.17064094543457 L18.721782684326172 9.17064094543457 L18.721782684326172 7.76417875289917 L14.469775199890137 7.76417875289917 L14.469775199890137 9.138019561767578 L15.77812385559082 9.138019561767578 L15.77812385559082 11.296769142150879 L15.777999877929688 11.296769142150879 L15.777999877929688 11.296769142150879" fill="black" fill-opacity="1.0" filling="0"/>
<path animation_id="3" d="M16.399303436279297 18.460063934326172 L16.693769454956055 18.165847778320312 C16.562908172607422 18.165847778320312 16.432048797607422 18.198467254638672 16.301313400268555 18.198467254638672 C15.647139549255371 18.198467254638672 15.15644645690918 18.100479125976562 14.862105369567871 17.904253005981445 C14.56764030456543 17.708024978637695 14.404158592224121 17.511547088623047 14.404158592224121 17.282699584960938 C14.404158592224121 17.086471557617188 14.469526290893555 16.922740936279297 14.633008003234863 16.792007446289062 C14.796613693237305 16.62864875793457 15.058333396911621 16.49778938293457 15.483409881591797 16.366931915283203 C15.67963695526123 16.399551391601562 15.908735275268555 16.464920043945312 16.202951431274414 16.53028678894043 C16.824504852294922 16.66114616394043 17.282451629638672 16.792007446289062 17.51129913330078 16.89024543762207 C17.60953712463379 16.955612182617188 17.70752716064453 17.05360221862793 17.773019790649414 17.119094848632812 L18.85251808166504 16.039844512939453 C18.656291961669922 15.843616485595703 18.362075805664062 15.679885864257812 18.002117156982422 15.581896781921387 C17.74039649963379 15.483658790588379 17.151714324951172 15.352798461914062 16.268444061279297 15.189441680908203 A1.6527423858642578 1.6527423858642578 0.0 0 1 15.745128631591797 15.025835990905762 C15.679760932922363 14.960468292236328 15.647139549255371 14.927846908569336 15.647139549255371 14.862478256225586 C15.647139549255371 14.797111511230469 15.679760932922363 14.764241218566895 15.745128631591797 14.698873519897461 C15.810497283935547 14.633505821228027 15.974225997924805 14.535516738891602 16.268444061279297 14.404657363891602 C16.464670181274414 14.437278747558594 16.628400802612305 14.470025062561035 16.791759490966797 14.502645492553711 L17.249704360961914 14.502645492553711 C17.773019790649414 14.502645492553711 18.23121452331543 14.437278747558594 18.656291961669922 14.273797035217285 C19.081615447998047 14.110191345214844 19.37583351135254 13.881341934204102 19.604930877685547 13.619623184204102 C19.801158905029297 13.32515811920166 19.932018280029297 13.030816078186035 19.932018280029297 12.703604698181152 C19.932018280029297 12.540247917175293 19.86665153503418 12.34389591217041 19.70292091369629 12.114798545837402 L20.618690490722656 12.114798545837402 L20.814916610717773 11.526116371154785 L19.081493377685547 11.526116371154785 C18.885265350341797 11.42800235748291 18.721534729003906 11.329889297485352 18.558177947998047 11.29714298248291 C18.29620933532715 11.231775283813477 17.969371795654297 11.199028968811035 17.57666778564453 11.199028968811035 C17.02073097229004 11.199028968811035 16.49741554260254 11.29714298248291 16.039470672607422 11.460747718811035 C15.614144325256348 11.656975746154785 15.287057876586914 11.853202819824219 15.058208465576172 12.147668838500977 C14.829110145568848 12.409388542175293 14.698251724243164 12.703604698181152 14.698251724243164 13.030941009521484 C14.698251724243164 13.32515811920166 14.796488761901855 13.58687686920166 14.992716789245605 13.783103942871094 C15.188943862915039 14.012202262878418 15.483160018920898 14.175559043884277 15.908485412597656 14.306418418884277 C15.352300643920898 14.502645492553711 14.959846496582031 14.666376113891602 14.730997085571289 14.862604141235352 C14.501898765563965 15.025960922241211 14.403909683227539 15.255059242248535 14.403909683227539 15.483907699584961 C14.403909683227539 15.614767074584961 14.436531066894531 15.778372764587402 14.567266464233398 15.909233093261719 C14.665505409240723 16.007221221923828 14.861732482910156 16.105459213256836 15.123451232910156 16.236318588256836 C14.338417053222656 16.36717987060547 13.815103530883789 16.530536651611328 13.586005210876465 16.726764678955078 C13.356907844543457 16.890369415283203 13.22604751586914 17.086719512939453 13.22604751586914 17.315570831298828 C13.22604751586914 17.610034942626953 13.422524452209473 17.83913230895996 13.782233238220215 18.03536033630371 C14.272926330566406 18.329578399658203 15.057960510253906 18.460437774658203 16.10458755493164 18.460437774658203 C16.203075408935547 18.460063934326172 16.301313400268555 18.460063934326172 16.399303436279297 18.460063934326172 L16.399303436279297 18.460063934326172 M16.562908172607422 12.506878852844238 C16.759136199951172 12.081803321838379 16.955364227294922 11.820083618164062 17.18421173095703 11.623856544494629 C17.31507110595703 11.525742530822754 17.51129913330078 11.46037483215332 17.70752716064453 11.46037483215332 C17.871131896972656 11.46037483215332 18.03461456298828 11.525742530822754 18.13285255432129 11.591235160827637 C18.26371192932129 11.689349174499512 18.32908058166504 11.820207595825195 18.32908058166504 11.983689308166504 C18.32908058166504 12.343647003173828 18.231090545654297 12.703231811523438 18.03461456298828 13.128557205200195 C17.871257781982422 13.586503982543945 17.64215850830078 13.880969047546387 17.413311004638672 14.07719612121582 C17.282451629638672 14.175185203552246 17.118844985961914 14.24055290222168 16.955364227294922 14.24055290222168 C16.759136199951172 14.24055290222168 16.628276824951172 14.175185203552246 16.49741554260254 14.07719612121582 C16.36655616760254 13.978958129882812 16.301189422607422 13.848098754882812 16.301189422607422 13.651870727539062 C16.301313400268555 13.29216194152832 16.399303436279297 12.899706840515137 16.562908172607422 12.506878852844238 L16.562908172607422 12.506878852844238" fill="black" fill-opacity="1.0" filling="0"/></svg>