<?xml version="1.0" encoding="iso-8859-1"?><svg height="200px" viewBox="0.0 0.0 24.0 24.0" width="200px" xmlns="http://www.w3.org/2000/svg"><path animation_id="0" d="M0.0 0.0 L24.0 0.0 L24.0 24.0 L0.0 24.0 L0.0 0.0" fill="black" fill-opacity="1.0" filling="0"/>
<path animation_id="1" d="M5.170018196105957 11.977214813232422 L5.164913177490234 8.59826946258545 L6.336923599243164 8.59826946258545 L6.336923599243164 11.271866798400879 L8.911660194396973 11.266761779785156 L8.911660194396973 11.971985816955566 L5.170018196105957 11.977214813232422 L5.170018196105957 11.977214813232422 M0.4772462844848633 11.989914894104004 L0.4772462844848633 8.61109447479248 L4.454709529876709 8.605989456176758 L4.454709529876709 9.308597564697266 L1.6415367126464844 9.308597564697266 L1.6415367126464844 9.945340156555176 L3.5237503051757812 9.945340156555176 L3.5237503051757812 10.655668258666992 L1.6415367126464844 10.663263320922852 L1.6415367126464844 11.29228687286377 L4.459814548492432 11.28469181060791 L4.459814548492432 11.984809875488281 L0.4772462844848633 11.989914894104004 L0.4772462844848633 11.989914894104004 M19.514909744262695 11.939114570617676 L19.514909744262695 8.605989456176758 L22.10720443725586 8.605989456176758 C22.830230712890625 8.585694313049316 23.659713745117188 9.197036743164062 23.621490478515625 9.795680046081543 C23.641910552978516 10.407022476196289 22.929092407226562 10.868704795837402 22.363445281982422 10.911785125732422 L23.573305130004883 11.934009552001953 L22.170578002929688 11.939114570617676 L20.691776275634766 10.637864112854004 L20.699371337890625 11.939114570617676 L19.514909744262695 11.939114570617676 L19.514909744262695 11.939114570617676 M20.692026138305664 10.275042533874512 L21.919567108154297 10.269937515258789 C22.137706756591797 10.269937515258789 22.411754608154297 10.125381469726562 22.419349670410156 9.813360214233398 C22.424453735351562 9.465853691101074 22.163230895996094 9.260412216186523 21.919567108154297 9.260412216186523 L20.692026138305664 9.260412216186523 L20.692026138305664 10.275042533874512 M10.768474578857422 8.598394393920898 L10.738093376159668 10.044200897216797 L12.252381324768066 8.59826946258545 L13.62995719909668 8.59826946258545 L11.658843994140625 10.282637596130371 L13.62995719909668 11.964390754699707 L12.252256393432617 11.964390754699707 L10.773579597473145 10.698749542236328 L10.773579597473145 11.964515686035156 L9.601568222045898 11.972234725952148 L9.601568222045898 8.598394393920898 L10.768474578857422 8.598394393920898 L10.768474578857422 8.598394393920898 M16.19697380065918 8.418228149414062 C16.902198791503906 8.418228149414062 17.51354217529297 8.59826946258545 18.030879974365234 8.966071128845215 C18.535764694213867 9.359272956848145 18.784536361694336 9.808255195617676 18.784536361694336 10.295212745666504 C18.784536361694336 10.8253755569458 18.535764694213867 11.254186630249023 18.030879974365234 11.596589088439941 C17.544044494628906 11.964390754699707 16.927597045898438 12.152026176452637 16.19697380065918 12.152026176452637 C15.468841552734375 12.152026176452637 14.870199203491211 11.964390754699707 14.390836715698242 11.604183197021484 C13.88594913482666 11.261781692504883 13.63481330871582 10.825499534606934 13.63481330871582 10.300317764282227 C13.62995719909668 9.808255195617676 13.88607406616211 9.36686897277832 14.383365631103516 8.966071128845215 C14.887879371643066 8.598394393920898 15.48664665222168 8.418228149414062 16.19697380065918 8.418228149414062 L16.19697380065918 8.418228149414062 M16.209674835205078 9.158936500549316 C17.000934600830078 9.158936500549316 17.64278221130371 9.663824081420898 17.64278221130371 10.282637596130371 C17.64278221130371 10.89908504486084 17.001060485839844 11.403846740722656 16.209674835205078 11.403846740722656 C15.418166160583496 11.411567687988281 14.77121353149414 10.9066801071167 14.77121353149414 10.287742614746094 C14.77121353149414 9.663824081420898 15.418042182922363 9.158936500549316 16.209674835205078 9.158936500549316 M6.9964518547058105 12.601258277893066 C7.047126770019531 12.601258277893066 7.0725274085998535 12.619062423706055 7.0725274085998535 12.662018775939941 C7.0725274085998535 12.695137977600098 7.047126770019531 12.725519180297852 6.9837517738342285 12.776318550109863 C6.927970886230469 12.819398880004883 6.84666633605957 12.844675064086914 6.752910614013672 12.844675064086914 C6.623420238494873 12.85737419128418 6.448484420776367 12.869949340820312 6.222748279571533 12.887755393981934 C6.166967391967773 12.892860412597656 6.1187825202941895 12.900703430175781 6.0679826736450195 12.900703430175781 C6.029882431030273 12.905559539794922 5.974102020263672 12.913403511047363 5.905621528625488 12.918508529663086 C5.87511682510376 12.926103591918945 5.819336414337158 12.931208610534668 5.750855922698975 12.938678741455078 C5.636680603027344 12.9437837600708 5.5809006690979 12.95137882232666 5.575795650482178 12.95137882232666 C5.532715320587158 12.95137882232666 5.512419700622559 12.931208610534668 5.512419700622559 12.892984390258789 C5.512419700622559 12.870074272155762 5.520015239715576 12.84990406036377 5.537820339202881 12.83732795715332 C5.550519943237305 12.832222938537598 5.568325042724609 12.819522857666016 5.606300354003906 12.812052726745605 C5.717861175537109 12.789143562316895 5.948702335357666 12.743448257446289 6.311398983001709 12.687542915344238 C6.666625022888184 12.631637573242188 6.89746618270874 12.601258277893066 6.9964518547058105 12.601258277893066 L6.9964518547058105 12.601258277893066 M5.926041603088379 13.785843849182129 C5.926041603088379 13.760567665100098 5.918446063995361 13.747867584228516 5.887941360473633 13.747867584228516 C5.849841594696045 13.747867584228516 5.794061183929443 13.76567268371582 5.705285549163818 13.803524017333984 C5.606424808502197 13.841748237609863 5.525119781494141 13.879599571228027 5.456639766693115 13.922679901123047 C5.383054733276367 13.960904121398926 5.2891740798950195 14.016559600830078 5.182593822479248 14.090270042419434 A4.185644149780273 4.185644149780273 0.0 0 0 4.89597225189209 14.321110725402832 C4.80968713760376 14.409886360168457 4.728506565093994 14.483595848083496 4.665131092071533 14.56452751159668 C4.571250915527344 14.671232223510742 4.523065567016602 14.739587783813477 4.523065567016602 14.777812957763672 C4.523065567016602 14.795618057250977 4.533275604248047 14.800474166870117 4.566145896911621 14.800474166870117 C4.609350681304932 14.800474166870117 4.695511817932129 14.770092964172363 4.832596778869629 14.709332466125488 C5.109132766723633 14.577476501464844 5.370354175567627 14.397311210632324 5.618875503540039 14.158750534057617 C5.776131629943848 14.016683578491211 5.8675217628479 13.905123710632324 5.913092613220215 13.824068069458008 C5.926041603088379 13.811119079589844 5.926041603088379 13.798418998718262 5.926041603088379 13.785843849182129 L5.926041603088379 13.785843849182129 M6.522069454193115 13.897403717041016 C6.615950107574463 13.846604347229004 6.692025661468506 13.803524017333984 6.747805595397949 13.760442733764648 C6.808690547943115 13.717113494873047 6.859366416931152 13.674158096313477 6.89746618270874 13.628338813781738 C6.935566425323486 13.580153465270996 6.978646755218506 13.516777992248535 7.021727085113525 13.43061637878418 C7.064807415008545 13.349437713623047 7.115607261657715 13.311461448669434 7.158687591552734 13.311461448669434 C7.2094879150390625 13.311461448669434 7.252568244934082 13.329266548156738 7.29066801071167 13.374711990356445 C7.321172714233398 13.410198211669922 7.338853359222412 13.460997581481934 7.338853359222412 13.511922836303711 C7.338853359222412 13.555002212524414 7.315943717956543 13.623482704162598 7.2703728675842285 13.709643363952637 C7.153707504272461 13.915084838867188 7.0598273277282715 14.090270042419434 6.9837517738342285 14.227106094360352 C6.84666633605957 14.483470916748047 6.747805595397949 14.70161247253418 6.692025661468506 14.881529808044434 C6.803586006164551 14.80806827545166 6.935566425323486 14.696508407592773 7.0725274085998535 14.56440258026123 C7.1967878341674805 14.440141677856445 7.303368091583252 14.32845687866211 7.402228832244873 14.222001075744629 C7.496109485626221 14.115545272827148 7.594970226287842 14.003860473632812 7.6838698387146 13.892298698425293 L8.038971900939941 13.435847282409668 C8.107452392578125 13.354666709899902 8.155637741088867 13.311586380004883 8.188632011413574 13.311586380004883 C8.219137191772461 13.311586380004883 8.257112503051758 13.336860656738281 8.292597770690918 13.39251708984375 C8.330698013305664 13.443317413330078 8.348379135131836 13.49897289276123 8.348379135131836 13.555002212524414 C8.348379135131836 13.598082542419434 8.325592994689941 13.64103889465332 8.279897689819336 13.686858177185059 L8.231712341308594 13.7350435256958 C8.193613052368164 13.773268699645996 8.082052230834961 13.867148399353027 7.907115936279297 14.009089469909668 C7.894291400909424 14.02178955078125 7.881715774536133 14.029260635375977 7.876611232757568 14.042208671569824 C7.869016170501709 14.047313690185547 7.856316089630127 14.054909706115723 7.8385114669799805 14.072589874267578 C7.82581090927124 14.085289001464844 7.808130264282227 14.090394020080566 7.800535678863525 14.1029691696167 C7.787835597991943 14.110565185546875 7.775135517120361 14.123140335083008 7.7624359130859375 14.12824535369873 C7.731930732727051 14.158624649047852 7.706655025482178 14.179044723510742 7.693954944610596 14.19174575805664 C7.595094680786133 14.278030395507812 7.496109485626221 14.359335899353027 7.407333850860596 14.445371627807617 A6.860611438751221 6.860611438751221 0.0 0 0 7.115607261657715 14.719417572021484 C6.910166263580322 14.932453155517578 6.765486240386963 15.094939231872559 6.684305667877197 15.206250190734863 C6.648820400238037 15.257051467895508 6.615825176239014 15.287430763244629 6.590425491333008 15.312955856323242 A0.16024403274059296 0.16024403274059296 0.0 0 1 6.5042643547058105 15.338231086730957 C6.453464984893799 15.338231086730957 6.405279159545898 15.312955856323242 6.349498748779297 15.249455451965332 C6.286123275756836 15.175745964050293 6.255743026733398 15.120089530944824 6.255743026733398 15.077010154724121 C6.255743026733398 15.051485061645508 6.2684431076049805 15.005789756774902 6.291228294372559 14.9500093460083 L6.522069454193115 14.46554183959961 L6.567764759063721 14.359086036682129 A1.1844611167907715 1.1844611167907715 0.0 0 0 6.342028617858887 14.432546615600586 C6.222748279571533 14.483346939086914 6.123887062072754 14.539002418518066 6.037602424621582 14.6076078414917 C5.943846225738525 14.67596435546875 5.86266565322876 14.764739036560059 5.781360626220703 14.863723754882812 A2.9452781677246094 2.9452781677246094 0.0 0 0 5.537820339202881 15.24435043334961 A0.2530038058757782 0.2530038058757782 0.0 0 1 5.487020015716553 15.317811965942383 C5.464234828948975 15.33076000213623 5.443939685821533 15.34333610534668 5.418539524078369 15.34333610534668 C5.383054733276367 15.34333610534668 5.344954490661621 15.317811965942383 5.306979179382324 15.282325744628906 C5.238498687744141 15.219075202941895 5.208117961883545 15.155574798583984 5.208117961883545 15.09481430053711 C5.208117961883545 15.044013977050781 5.238498687744141 14.962709426879883 5.301874160766602 14.85114860534668 C5.362759113311768 14.726887702941895 5.464234828948975 14.56440258026123 5.593600273132324 14.364066123962402 L5.644400119781494 14.283134460449219 L5.568325042724609 14.359210968017578 C5.37545919418335 14.551827430725098 5.208117961883545 14.714312553405762 5.0634379386901855 14.846044540405273 C4.9137773513793945 14.975409507751465 4.7768168449401855 15.09481430053711 4.647450923919678 15.193550109863281 C4.523065567016602 15.287430763244629 4.434414863586426 15.338231086730957 4.386105060577393 15.338231086730957 C4.322729110717773 15.338231086730957 4.266824722290039 15.294901847839355 4.211043834686279 15.20127010345459 C4.160368919372559 15.112494468688965 4.129863739013672 15.018365859985352 4.129863739013672 14.91963005065918 C4.129863739013672 14.782419204711914 4.211043834686279 14.6076078414917 4.3734049797058105 14.409637451171875 C4.533151149749756 14.209300994873047 4.746311187744141 14.016435623168945 5.007532596588135 13.828675270080566 A3.802901029586792 3.802901029586792 0.0 0 1 5.636680603027344 13.468467712402344 C5.854821681976318 13.36201286315918 6.017182350158691 13.3113374710083 6.123762607574463 13.3113374710083 C6.199838161468506 13.3113374710083 6.255743026733398 13.336612701416016 6.298823833465576 13.379693031311035 C6.336923599243164 13.430492401123047 6.362198829650879 13.486148834228516 6.362198829650879 13.559858322143555 C6.362198829650879 13.615513801574707 6.324223518371582 13.691713333129883 6.248023509979248 13.772893905639648 C6.2810187339782715 13.803275108337402 6.298823833465576 13.83365535736084 6.298823833465576 13.859179496765137 C6.298823833465576 13.897154808044434 6.2810187339782715 13.935006141662598 6.243042945861816 13.9783353805542 L6.0679826736450195 14.214282035827637 A3.4065866470336914 3.4065866470336914 0.0 0 0 5.900641441345215 14.46554183959961 C6.073087692260742 14.36394214630127 6.2811431884765625 14.290481567382812 6.511983871459961 14.239681243896484 C6.560169219970703 14.226981163024902 6.603250026702881 14.22187614440918 6.636369228363037 14.21440601348877 L6.753035068511963 13.9658842086792 C6.765735149383545 13.948080062866211 6.778435230255127 13.915084838867188 6.803710460662842 13.872004508972168 L6.74793004989624 13.879599571228027 C6.671730041503906 13.892298698425293 6.598269462585449 13.897403717041016 6.522069454193115 13.897403717041016 L6.522069454193115 13.897403717041016 M9.510303497314453 13.77824878692627 C9.510303497314453 13.755338668823242 9.497603416442871 13.747867584228516 9.472203254699707 13.747867584228516 C9.434228897094727 13.747867584228516 9.3707275390625 13.76567268371582 9.29216194152832 13.798418998718262 C9.19068717956543 13.833904266357422 9.109506607055664 13.879599571228027 9.04102611541748 13.915209770202637 C8.96744155883789 13.953185081481934 8.873559951782227 14.016559600830078 8.767105102539062 14.090270042419434 C8.673223495483398 14.153770446777344 8.579343795776367 14.234701156616211 8.480483055114746 14.321110725402832 C8.386603355407715 14.402290344238281 8.313017845153809 14.483595848083496 8.244537353515625 14.559671401977539 C8.150656700134277 14.663512229919434 8.107576370239258 14.732117652893066 8.107576370239258 14.769968032836914 C8.107576370239258 14.787773132324219 8.120277404785156 14.800349235534668 8.143061637878418 14.800349235534668 C8.193737030029297 14.800349235534668 8.280022621154785 14.769968032836914 8.416982650756836 14.709207534790039 C8.685800552368164 14.577352523803711 8.947145462036133 14.397186279296875 9.203262329101562 14.158624649047852 C9.352922439575195 14.016559600830078 9.451908111572266 13.904999732971191 9.497478485107422 13.823943138122559 C9.502708435058594 13.811119079589844 9.510303497314453 13.790948867797852 9.510303497314453 13.77824878692627 L9.510303497314453 13.77824878692627 M12.077445030212402 13.940484046936035 C12.189130783081055 13.892298698425293 12.300691604614258 13.81622314453125 12.414742469787598 13.730188369750977 A3.004046678543091 3.004046678543091 0.0 0 0 12.74954891204834 13.3926420211792 C12.800349235534668 13.329390525817871 12.850899696350098 13.306605339050293 12.886509895324707 13.306605339050293 C12.924734115600586 13.306605339050293 12.96258544921875 13.324410438537598 12.992964744567871 13.367366790771484 C13.018489837646484 13.418166160583496 13.036293983459473 13.468717575073242 13.036293983459473 13.516901969909668 C13.036293983459473 13.547532081604004 13.031190872192383 13.567702293395996 13.031190872192383 13.5855073928833 C13.026084899902344 13.598206520080566 13.013384819030762 13.615887641906738 12.992964744567871 13.641162872314453 C12.975160598754883 13.679387092590332 12.937309265136719 13.730188369750977 12.881404876708984 13.790948867797852 C12.830854415893555 13.854448318481445 12.762248992919922 13.935379028320312 12.681068420410156 14.034364700317383 C12.539003372192383 14.209425926208496 12.414742469787598 14.364066123962402 12.32086181640625 14.51397705078125 C12.221877098083496 14.658407211303711 12.17132568359375 14.752288818359375 12.17132568359375 14.795618057250977 C12.17132568359375 14.820892333984375 12.184025764465332 14.825997352600098 12.201705932617188 14.825997352600098 C12.221877098083496 14.825997352600098 12.239681243896484 14.820892333984375 12.265206336975098 14.800474166870117 C12.32086181640625 14.770092964172363 12.394571304321289 14.719542503356934 12.483346939086914 14.658407211303711 C12.544107437133789 14.615327835083008 12.620307922363281 14.551952362060547 12.70659351348877 14.478490829467773 C12.830854415893555 14.377140045166016 12.919629096984863 14.303430557250977 12.962709426879883 14.26034927368164 C13.005789756774902 14.214654922485352 13.081865310668945 14.140945434570312 13.175745964050293 14.042208671569824 C13.27983570098877 13.935503959655762 13.368611335754395 13.841872215270996 13.429620742797852 13.760567665100098 C13.505447387695312 13.67428207397461 13.604433059692383 13.547532081604004 13.736536979675293 13.3926420211792 C13.784722328186035 13.329390525817871 13.8225736618042 13.306605339050293 13.860797882080078 13.306605339050293 C13.898773193359375 13.306605339050293 13.941978454589844 13.32951545715332 13.985058784484863 13.374960899353027 C14.028139114379883 13.430866241455078 14.048559188842773 13.473946571350098 14.048559188842773 13.524746894836426 C14.048559188842773 13.547656059265137 14.03561019897461 13.5855073928833 14.010334968566895 13.62373161315918 C14.010334968566895 13.62858772277832 13.959783554077148 13.69208812713623 13.860797882080078 13.811244010925293 C13.860797882080078 13.816349029541016 13.848098754882812 13.829048156738281 13.840377807617188 13.841872215270996 C13.830418586730957 13.854573249816895 13.817468643188477 13.867148399353027 13.804893493652344 13.884952545166016 C13.792194366455078 13.897653579711914 13.766918182373047 13.928033828735352 13.7288179397583 13.973729133605957 C13.716118812561035 13.991533279418945 13.690842628479004 14.01680850982666 13.668057441711426 14.054909706115723 C13.531097412109375 14.222249984741211 13.404220581054688 14.384611129760742 13.300130844116211 14.546847343444824 C13.498102188110352 14.40241527557373 13.716242790222168 14.303430557250977 13.967378616333008 14.247526168823242 C14.078939437866211 14.214654922485352 14.165349006652832 14.202079772949219 14.233705520629883 14.202079772949219 C14.276785850524902 14.202079772949219 14.3023099899292 14.222249984741211 14.3023099899292 14.26047420501709 C14.3023099899292 14.29595947265625 14.284504890441895 14.316130638122559 14.233705520629883 14.32883071899414 L14.18552017211914 14.333935737609863 C13.7288179397583 14.410011291503906 13.34333610534668 14.701862335205078 13.026209831237793 15.206499099731445 C12.987985610961914 15.262404441833496 12.962709426879883 15.29527473449707 12.95013427734375 15.305484771728516 C12.932329177856445 15.32590389251709 12.912158966064453 15.331008911132812 12.881528854370117 15.331008911132812 C12.84355354309082 15.331008911132812 12.80806827545166 15.305484771728516 12.762372970581055 15.257299423217773 C12.706717491149902 15.201643943786621 12.681192398071289 15.14573860168457 12.681192398071289 15.0873441696167 C12.681192398071289 15.039158821105957 12.719417572021484 14.937807083129883 12.80059814453125 14.7880220413208 C12.868953704833984 14.65106201171875 12.975409507751465 14.491315841674805 13.104775428771973 14.290979385375977 C13.061695098876953 14.334059715270996 13.031314849853516 14.35958480834961 13.018738746643066 14.364439964294434 L12.714312553405762 14.676462173461914 C12.607856750488281 14.782917022705078 12.501276016235352 14.881902694702148 12.389716148376465 14.988482475280762 A10.705348014831543 10.705348014831543 0.0 0 1 12.077693939208984 15.257424354553223 C12.014193534851074 15.305609703063965 11.958414077758789 15.331134796142578 11.922928810119629 15.331134796142578 C11.864533424377441 15.331134796142578 11.8163480758667 15.29539966583252 11.773143768310547 15.219573020935059 C11.722468376159668 15.150968551635742 11.697068214416504 15.077507972717285 11.697068214416504 15.00118350982666 C11.697068214416504 14.950632095336914 11.70976734161377 14.89472770690918 11.740148544311523 14.833842277526855 C11.773143768310547 14.770341873168945 11.828923225402832 14.671606063842773 11.91520881652832 14.534521102905273 C11.945713996887207 14.483969688415527 11.983689308166504 14.4331693649292 12.014069557189941 14.384984016418457 C11.927909851074219 14.415365219116211 11.84162425994873 14.445745468139648 11.760443687438965 14.491439819335938 C11.610782623291016 14.570005416870117 11.478926658630371 14.676462173461914 11.354541778564453 14.800722122192383 A2.05092453956604 2.05092453956604 0.0 0 0 11.037540435791016 15.24472427368164 C11.017245292663574 15.275104522705078 10.99944019317627 15.30038070678711 10.979269027709961 15.318184852600098 C10.969058990478516 15.331134796142578 10.943658828735352 15.338604927062988 10.918384552001953 15.338604927062988 C10.862603187561035 15.338604927062988 10.824502944946289 15.313328742980957 10.78640365600586 15.269999504089355 C10.7509183883667 15.219449043273926 10.730623245239258 15.163543701171875 10.730623245239258 15.107763290405273 C10.730623245239258 15.001058578491211 10.794123649597168 14.833717346191406 10.918384552001953 14.61557674407959 C11.05036449432373 14.389965057373047 11.167030334472656 14.209674835205078 11.268505096435547 14.085413932800293 C11.2988862991333 14.042333602905273 11.316690444946289 14.00933837890625 11.316690444946289 14.004233360290527 C11.316690444946289 13.984063148498535 11.311585426330566 13.978958129882812 11.2988862991333 13.978958129882812 C11.27361011505127 13.978958129882812 11.2304048538208 14.004233360290527 11.161925315856934 14.042457580566406 C11.012264251708984 14.133599281311035 10.824628829956055 14.283509254455566 10.619062423706055 14.496420860290527 C10.464421272277832 14.65106201171875 10.281765937805176 14.876798629760742 10.063624382019043 15.163419723510742 C9.982444763183594 15.282574653625488 9.926663398742676 15.338479995727539 9.896159172058105 15.338479995727539 C9.845358848571777 15.338479995727539 9.80738353729248 15.313203811645508 9.77687931060791 15.257299423217773 A0.24466165900230408 0.24466165900230408 0.0 0 1 9.71599292755127 15.095063209533691 C9.71599292755127 15.031562805175781 9.738903045654297 14.962959289550781 9.789578437805176 14.881778717041016 C9.883334159851074 14.714437484741211 9.995019912719727 14.539377212524414 10.114175796508789 14.364315032958984 C10.045695304870605 14.384735107421875 9.982318878173828 14.40254020690918 9.92143440246582 14.427815437316895 C9.807258605957031 14.478616714477539 9.708398818969727 14.534271240234375 9.622113227844238 14.602875709533691 A1.4648572206497192 1.4648572206497192 0.0 0 0 9.365872383117676 14.864097595214844 C9.28469181060791 14.963083267211914 9.203511238098145 15.0873441696167 9.117350578308105 15.24472427368164 C9.097055435180664 15.282699584960938 9.07925033569336 15.305484771728516 9.066551208496094 15.313328742980957 A0.08404407650232315 0.08404407650232315 0.0 0 1 9.003174781799316 15.338604927062988 C8.967690467834473 15.338604927062988 8.929590225219727 15.318184852600098 8.89161491394043 15.275104522705078 C8.82313346862793 15.219449043273926 8.792754173278809 15.155948638916016 8.792754173278809 15.0873441696167 C8.792754173278809 15.04426383972168 8.823258399963379 14.963083267211914 8.886509895324707 14.846292495727539 C8.947395324707031 14.727136611938477 9.048870086669922 14.564651489257812 9.173255920410156 14.364315032958984 L9.229036331176758 14.283384323120117 L9.147855758666992 14.35945987701416 C8.960094451904297 14.55207633972168 8.792754173278809 14.714561462402344 8.64309310913086 14.846292495727539 A8.071219444274902 8.071219444274902 0.0 0 1 8.232210159301758 15.188694953918457 C8.107950210571289 15.287679672241211 8.019174575805664 15.331008911132812 7.970864772796631 15.331008911132812 C7.90748929977417 15.331008911132812 7.8515849113464355 15.287679672241211 7.795804023742676 15.201643943786621 C7.740024089813232 15.107763290405273 7.714623928070068 15.013883590698242 7.714623928070068 14.914897918701172 C7.714623928070068 14.777936935424805 7.795804023742676 14.607980728149414 7.958164691925049 14.410011291503906 C8.112805366516113 14.209674835205078 8.325966835021973 14.01680850982666 8.592292785644531 13.82419204711914 C8.792754173278809 13.686983108520508 8.998194694519043 13.560357093811035 9.221440315246582 13.461370468139648 C9.442071914672852 13.362385749816895 9.60194206237793 13.306730270385742 9.70852279663086 13.306730270385742 C9.777003288269043 13.306730270385742 9.832783699035645 13.329639434814453 9.878478050231934 13.380189895629883 C9.921558380126953 13.423271179199219 9.939364433288574 13.47917652130127 9.939364433288574 13.555252075195312 C9.939364433288574 13.616012573242188 9.90898323059082 13.68710708618164 9.832908630371094 13.773392677307129 C9.8659029006958 13.798667907714844 9.878602981567383 13.829048156738281 9.878602981567383 13.854573249816895 C9.878602981567383 13.897653579711914 9.8659029006958 13.935503959655762 9.827802658081055 13.973729133605957 L9.652867317199707 14.209674835205078 C9.614767074584961 14.265579223632812 9.55898666381836 14.346634864807129 9.485401153564453 14.466039657592773 C9.660337448120117 14.35958480834961 9.8659029006958 14.283384323120117 10.096744537353516 14.235074996948242 C10.144928932189941 14.227478981018066 10.18813419342041 14.214903831481934 10.226109504699707 14.209798812866211 C10.29458999633789 14.110814094543457 10.375770568847656 14.009462356567383 10.456951141357422 13.910477638244629 C10.350494384765625 13.928282737731934 10.269189834594727 13.93575382232666 10.20071029663086 13.93575382232666 L10.119529724121094 13.93575382232666 C10.30218505859375 13.8599271774292 10.464546203613281 13.755837440490723 10.619187355041504 13.611156463623047 L10.83732795715332 13.398120880126953 C10.8880033493042 13.355039596557617 10.923489570617676 13.329764366149902 10.9437837600708 13.329764366149902 C10.97939395904541 13.329764366149902 11.017369270324707 13.349935531616211 11.042645454406738 13.387910842895508 C11.068044662475586 13.423395156860352 11.080744743347168 13.47419548034668 11.080744743347168 13.530224800109863 C11.080744743347168 13.560606002807617 11.073149681091309 13.598581314086914 11.060449600219727 13.628960609436035 C11.05036449432373 13.654485702514648 11.017369270324707 13.697566032409668 10.969183921813965 13.74836540222168 C10.849903106689453 13.885326385498047 10.705348014831543 14.065492630004883 10.538006782531738 14.278528213500977 C10.507501602172852 14.329079627990723 10.45172119140625 14.410384178161621 10.3705415725708 14.527050018310547 C10.520201683044434 14.384984016418457 10.662267684936523 14.247899055480957 10.7942476272583 14.133848190307617 C10.923613548278809 14.022287368774414 11.080869674682617 13.885326385498047 11.273735046386719 13.722841262817383 C11.392890930175781 13.628960609436035 11.466476440429688 13.56820011138916 11.496855735778809 13.548029899597168 L11.666812896728516 13.410820007324219 A0.8777937293052673 0.8777937293052673 0.0 0 1 11.796177864074707 13.324783325195312 C11.821578025817871 13.312084197998047 11.846978187561035 13.306979179382324 11.86465835571289 13.306979179382324 C11.91035270690918 13.306979179382324 11.945838928222656 13.324783325195312 11.991533279418945 13.3677396774292 C12.022038459777832 13.418540000915527 12.039718627929688 13.46161937713623 12.039718627929688 13.517276763916016 C12.039718627929688 13.555500984191895 12.0219144821167 13.606051445007324 11.97123908996582 13.661955833435059 L11.684617042541504 14.022163391113281 A4.502023220062256 4.502023220062256 0.0 0 0 11.354914665222168 14.534521102905273 C11.5730562210083 14.377388954162598 11.79630184173584 14.283509254455566 12.014443397521973 14.235198974609375 C12.0652437210083 14.227603912353516 12.103219032287598 14.222498893737793 12.141443252563477 14.215028762817383 C12.214903831481934 14.123638153076172 12.290979385375977 14.02975845336914 12.369544982910156 13.928282737731934 C12.278404235839844 13.940982818603516 12.214903831481934 13.948701858520508 12.184523582458496 13.948701858520508 C12.17182445526123 13.948701858520508 12.159248352050781 13.948701858520508 12.141443252563477 13.940982818603516 C12.120525360107422 13.940484046936035 12.102721214294434 13.940484046936035 12.077445030212402 13.940484046936035 L12.077445030212402 13.940484046936035 M18.129737854003906 13.773143768310547 C18.129737854003906 13.747867584228516 18.11703872680664 13.734918594360352 18.091764450073242 13.734918594360352 C18.056278228759766 13.734918594360352 17.992778778076172 13.755338668823242 17.911598205566406 13.790823936462402 C17.812612533569336 13.8287992477417 17.73168182373047 13.866899490356445 17.663076400756836 13.909979820251465 C17.58700180053711 13.948204040527344 17.49573516845703 14.003860473632812 17.38903045654297 14.077569961547852 A4.095872402191162 4.095872402191162 0.0 0 0 17.1025333404541 14.30841064453125 A5.26140832901001 5.26140832901001 0.0 0 0 16.863971710205078 14.551827430725098 C16.770092010498047 14.658283233642578 16.727012634277344 14.726887702941895 16.727012634277344 14.764863967895508 C16.727012634277344 14.782668113708496 16.739713668823242 14.787773132324219 16.76498794555664 14.787773132324219 C16.81578826904297 14.787773132324219 16.902198791503906 14.757392883300781 17.039033889770508 14.696632385253906 C17.30797576904297 14.569631576538086 17.569194793701172 14.384611129760742 17.817718505859375 14.153894424438477 C17.975099563598633 14.004108428955078 18.07408332824707 13.892424583435059 18.11703872680664 13.816349029541016 C18.1246337890625 13.798418998718262 18.129737854003906 13.785843849182129 18.129737854003906 13.773143768310547 M22.18340301513672 14.115545272827148 C22.226482391357422 14.184149742126465 22.274791717529297 14.222001075744629 22.33057403564453 14.222001075744629 C22.406648635864258 14.222001075744629 22.500530242919922 14.184025764465332 22.60710906982422 14.123016357421875 A1.5516403913497925 1.5516403913497925 0.0 0 0 22.911537170410156 13.88470458984375 C22.992717742919922 13.803524017333984 23.035797119140625 13.74263858795166 23.035797119140625 13.704538345336914 C23.035797119140625 13.6792631149292 23.02309799194336 13.666563034057617 22.992717742919922 13.666563034057617 C22.916641235351562 13.666563034057617 22.792129516601562 13.717113494873047 22.62479019165039 13.803524017333984 A2.9071781635284424 2.9071781635284424 0.0 0 0 22.18340301513672 14.115545272827148 L22.18340301513672 14.115545272827148 M22.05640411376953 14.234701156616211 A1.6608355045318604 1.6608355045318604 0.0 0 0 21.833404541015625 14.526552200317383 C21.777502059936523 14.62790298461914 21.744380950927734 14.709207534790039 21.744380950927734 14.769968032836914 C21.744380950927734 14.825873374938965 21.777502059936523 14.858743667602539 21.838260650634766 14.858743667602539 C21.858680725097656 14.858743667602539 21.883956909179688 14.85114860534668 21.914337158203125 14.846044540405273 C21.982942581176758 14.825873374938965 22.11977767944336 14.764863967895508 22.32534408569336 14.650812149047852 C22.5485897064209 14.539252281188965 22.723651885986328 14.452842712402344 22.868080139160156 14.397186279296875 C23.017868041992188 14.333686828613281 23.15993309020996 14.283134460449219 23.284194946289062 14.252506256103516 C23.428874969482422 14.214530944824219 23.52785873413086 14.196850776672363 23.583515167236328 14.196850776672363 C23.62921142578125 14.196850776672363 23.647014617919922 14.214654922485352 23.647014617919922 14.252506256103516 C23.647014617919922 14.272926330566406 23.641910552978516 14.290730476379395 23.62921142578125 14.303305625915527 C23.61650848388672 14.31588077545166 23.590984344482422 14.321110725402832 23.55313491821289 14.328581809997559 A2.4634251594543457 2.4634251594543457 0.0 0 0 23.078628540039062 14.47836685180664 A2.8313515186309814 2.8313515186309814 0.0 0 0 22.606861114501953 14.752163887023926 C22.573741912841797 14.769968032836914 22.54336166381836 14.795493125915527 22.505510330200195 14.825873374938965 C22.47002410888672 14.85114860534668 22.41922378540039 14.889373779296875 22.35062026977539 14.945029258728027 C22.282264709472656 14.995829582214355 22.231464385986328 15.038909912109375 22.20108413696289 15.06418514251709 C22.170703887939453 15.0870943069458 22.10209846496582 15.145364761352539 22.00821876525879 15.226670265197754 C21.92728614807129 15.287430763244629 21.858680725097656 15.325654983520508 21.802776336669922 15.325654983520508 C21.764801025390625 15.325654983520508 21.726701736450195 15.312955856323242 21.688724517822266 15.287430763244629 C21.65834617614746 15.262155532836914 21.615264892578125 15.231775283813477 21.571937561035156 15.180974960327148 C21.452781677246094 15.06418514251709 21.396875381469727 14.945029258728027 21.396875381469727 14.833468437194824 C21.396875381469727 14.696508407592773 21.452781677246094 14.539252281188965 21.56446647644043 14.359210968017578 C21.366493225097656 14.402290344238281 21.183837890625 14.470646858215332 21.029197692871094 14.56440258026123 C20.84903335571289 14.67596435546875 20.6790771484375 14.838449478149414 20.529415130615234 15.038909912109375 C20.443130493164062 15.155699729919434 20.3924560546875 15.226670265197754 20.379878997802734 15.2368803024292 L20.34925079345703 15.269750595092773 C20.31886863708496 15.30523681640625 20.293594360351562 15.325654983520508 20.263214111328125 15.325654983520508 C20.217517852783203 15.325654983520508 20.1744384765625 15.295026779174805 20.12600326538086 15.226670265197754 C20.088029861450195 15.180974960327148 20.062753677368164 15.132789611816406 20.062753677368164 15.081989288330078 C20.062753677368164 15.000808715820312 20.12600326538086 14.85114860534668 20.25537109375 14.645708084106445 C20.379878997802734 14.427566528320312 20.504138946533203 14.234701156616211 20.630891799926758 14.064993858337402 C20.69949722290039 13.966009140014648 20.81105613708496 13.828924179077148 20.960594177246094 13.653987884521484 L20.97329330444336 13.63618278503418 L20.84143829345703 13.648882865905762 L20.816162109375 13.648882865905762 C20.81105613708496 13.653987884521484 20.8034610748291 13.653987884521484 20.798358917236328 13.653987884521484 C20.78055191040039 13.653987884521484 20.76772689819336 13.661582946777344 20.74245262145996 13.661582946777344 C20.71207046508789 13.666687965393066 20.699371337890625 13.666687965393066 20.70447540283203 13.666687965393066 C20.699371337890625 13.67428207397461 20.678951263427734 13.67428207397461 20.653676986694336 13.67428207397461 A0.07869016379117966 0.07869016379117966 0.0 0 1 20.598020553588867 13.654112815856934 C20.598020553588867 13.661706924438477 20.592914581298828 13.6668119430542 20.58531951904297 13.67428207397461 L20.4177303314209 13.854448318481445 C20.311275482177734 13.983813285827637 20.237564086914062 14.0776948928833 20.19448471069336 14.146049499511719 C20.148788452148438 14.214654922485352 20.130985260009766 14.278155326843262 20.130985260009766 14.341529846191406 C20.130985260009766 14.37191104888916 20.136089324951172 14.397186279296875 20.143932342529297 14.427566528320312 C20.057647705078125 14.409762382507324 19.986553192138672 14.377016067504883 19.930648803710938 14.328581809997559 C19.87499237060547 14.278030395507812 19.84461212158203 14.227230072021484 19.84461212158203 14.171449661254883 C19.84461212158203 14.13322639465332 19.882587432861328 14.05988883972168 19.963768005371094 13.948204040527344 A2.8254997730255127 2.8254997730255127 0.0 0 0 19.395503997802734 14.320985794067383 C19.276348114013672 14.42744255065918 19.152090072631836 14.55954647064209 19.027828216552734 14.70161247253418 C18.908672332763672 14.846044540405273 18.784412384033203 15.00068473815918 18.667621612548828 15.168274879455566 C18.59154510498047 15.274730682373047 18.5355167388916 15.33076000213623 18.497665405273438 15.33076000213623 C18.459442138671875 15.33076000213623 18.4239559173584 15.300130844116211 18.378259658813477 15.2368803024292 C18.335180282592773 15.188446044921875 18.317501068115234 15.137895584106445 18.317501068115234 15.081989288330078 C18.317501068115234 15.031438827514648 18.335304260253906 14.970429420471191 18.386104583740234 14.90207290649414 A5.779244422912598 5.779244422912598 0.0 0 1 18.736103057861328 14.359335899353027 C18.66774559020996 14.377140045166016 18.604246139526367 14.397311210632324 18.540870666503906 14.420096397399902 C18.429309844970703 14.470646858215332 18.322729110717773 14.526552200317383 18.24155044555664 14.5951566696167 C18.150407791137695 14.663512229919434 18.06163215637207 14.757392883300781 17.980327606201172 14.858743667602539 C17.906618118286133 14.95772933959961 17.825687408447266 15.081989288330078 17.736661911010742 15.231775283813477 C17.718856811523438 15.269750595092773 17.7011775970459 15.295026779174805 17.6884765625 15.30523681640625 C17.668306350708008 15.317935943603516 17.64278221130371 15.33076000213623 17.624977111816406 15.33076000213623 C17.58700180053711 15.33076000213623 17.551515579223633 15.30523681640625 17.51354217529297 15.269750595092773 C17.444934844970703 15.206250190734863 17.4145565032959 15.145489692687988 17.4145565032959 15.081989288330078 C17.4145565032959 15.038909912109375 17.444934844970703 14.95013427734375 17.50569725036621 14.838573455810547 C17.569194793701172 14.714312553405762 17.663076400756836 14.559671401977539 17.792442321777344 14.35149097442627 L17.85083770751953 14.272926330566406 L17.769657135009766 14.35149097442627 C17.58189582824707 14.539252281188965 17.406835556030273 14.70161247253418 17.2647705078125 14.833468437194824 C17.120338439941406 14.962834358215332 16.98312759399414 15.081989288330078 16.84629249572754 15.180974960327148 C16.727136611938477 15.274855613708496 16.640851974487305 15.325654983520508 16.590177536010742 15.325654983520508 C16.52916717529297 15.325654983520508 16.47077178955078 15.282325744628906 16.415115356445312 15.188446044921875 A0.5167154669761658 0.5167154669761658 0.0 0 1 16.333934783935547 14.907052993774414 C16.333934783935547 14.795493125915527 16.384735107421875 14.663387298583984 16.483722686767578 14.521322250366211 C16.366931915283203 14.589927673339844 16.260473251342773 14.67596435546875 16.153770446777344 14.795368194580078 C16.03461456298828 14.914525032043457 15.922928810119629 15.06406021118164 15.816473007202148 15.249330520629883 C15.786092758178711 15.299880981445312 15.755712509155273 15.330511093139648 15.717487335205078 15.330511093139648 C15.656726837158203 15.330511093139648 15.605926513671875 15.299880981445312 15.555251121520996 15.236631393432617 A0.32160866260528564 0.32160866260528564 0.0 0 1 15.48664665222168 15.038660049438477 C15.48664665222168 14.919504165649414 15.494241714477539 14.751914978027344 15.507065773010254 14.521198272705078 C15.511921882629395 14.371662139892578 15.519766807556152 14.247152328491211 15.519766807556152 14.140571594238281 L15.519766807556152 14.110191345214844 L15.507065773010254 14.133101463317871 A5.810122966766357 5.810122966766357 0.0 0 0 15.169520378112793 14.645458221435547 C15.070535659790039 14.825624465942383 14.969183921813965 15.013385772705078 14.882774353027344 15.193302154541016 C14.857499122619629 15.25680160522461 14.839693069458008 15.294651985168457 14.827117919921875 15.304862022399902 C14.806947708129883 15.317562103271484 14.788893699645996 15.330387115478516 14.763618469238281 15.330387115478516 C14.713068008422852 15.330387115478516 14.669737815856934 15.304862022399902 14.63425350189209 15.25667667388916 C14.588558197021484 15.213597297668457 14.57075309753418 15.155326843261719 14.57075309753418 15.099296569824219 C14.57075309753418 15.04364013671875 14.596277236938477 14.962335586547852 14.644462585449219 14.863350868225098 C14.690157890319824 14.76947021484375 14.77121353149414 14.627405166625977 14.887879371643066 14.43976879119873 C14.96395492553711 14.320612907409668 15.05036449432373 14.201457023620605 15.144244194030762 14.07719612121582 C15.23812484741211 13.952686309814453 15.34458065032959 13.823570251464844 15.448670387268066 13.696569442749023 C15.661707878112793 13.44804859161377 15.534707069396973 13.53408432006836 15.808877944946289 13.280458450317383 L15.851958274841309 13.242483139038086 L15.778497695922852 13.242483139038086 C15.714997291564941 13.242483139038086 15.62871265411377 13.234888076782227 15.534832000732422 13.224678039550781 C15.709893226623535 13.16628360748291 15.839258193969727 13.1182222366333 15.920562744140625 13.067296981811523 C16.00933837890625 13.016746520996094 16.126005172729492 12.92523193359375 16.275665283203125 12.78055191040039 L16.356843948364258 12.707091331481934 C16.399925231933594 12.668866157531738 16.432920455932617 12.648695945739746 16.463302612304688 12.648695945739746 C16.50152587890625 12.648695945739746 16.531906127929688 12.668866157531738 16.562286376953125 12.712196350097656 C16.587562561035156 12.750171661376953 16.605365753173828 12.793375968933105 16.605365753173828 12.844051361083984 C16.605365753173828 12.879537582397461 16.595155715942383 12.91776180267334 16.569881439208984 12.948141098022461 C16.544607162475586 12.973417282104492 16.531906127929688 12.993837356567383 16.519330978393555 13.006536483764648 C16.514225006103516 13.011641502380371 16.50638198852539 13.016746520996094 16.48870086669922 13.029447555541992 C16.47599983215332 13.049616813659668 16.455829620361328 13.062317848205566 16.438148498535156 13.087841987609863 C16.41262435913086 13.110502243041992 16.38735008239746 13.136027336120605 16.356969833374023 13.156197547912598 C16.331693649291992 13.179107666015625 16.313888549804688 13.20438289642334 16.283260345458984 13.229907035827637 C16.257984161376953 13.255183219909668 16.227603912353516 13.280458450317383 16.202327728271484 13.30598258972168 C16.176803588867188 13.328892707824707 16.151527404785156 13.354167938232422 16.126253128051758 13.379444122314453 C15.940982818603516 13.55450439453125 16.141319274902344 13.379444122314453 15.999253273010254 13.536824226379395 A7.97385311126709 7.97385311126709 0.0 0 0 15.62373161315918 13.965511322021484 L15.649255752563477 13.960406303405762 C15.841873168945312 13.859054565429688 16.02452850341797 13.772644996643066 16.18452262878418 13.678765296936035 A6.887878894805908 6.887878894805908 0.0 0 0 16.68430519104004 13.37433910369873 C16.765235900878906 13.323787689208984 16.821266174316406 13.298263549804688 16.86422348022461 13.298263549804688 C16.940298080444336 13.298263549804688 16.97852325439453 13.361763954162598 16.97852325439453 13.478428840637207 C16.97852325439453 13.584884643554688 16.952999114990234 13.678765296936035 16.889497756958008 13.765174865722656 A0.17369109392166138 0.17369109392166138 0.0 0 0 16.790760040283203 13.72968864440918 C16.722156524658203 13.72968864440918 16.572620391845703 13.772769927978516 16.33405876159668 13.866650581359863 C16.328954696655273 13.871755599975586 16.298572540283203 13.879350662231445 16.24777603149414 13.90462589263916 A0.1714499145746231 0.1714499145746231 0.0 0 0 16.18452262878418 13.927536010742188 C16.16161346435547 13.93513011932373 16.136089324951172 13.947955131530762 16.098237991333008 13.960655212402344 C15.986678123474121 14.003735542297363 15.910478591918945 14.029011726379395 15.86739730834961 14.04183578491211 C15.849592208862305 14.239557266235352 15.841873168945312 14.452592849731445 15.841873168945312 14.683558464050293 L15.841873168945312 14.744319915771484 C16.103343963623047 14.526178359985352 16.35933494567871 14.371538162231445 16.620807647705078 14.29035758972168 C16.640975952148438 14.282761573791504 16.66625213623047 14.277656555175781 16.68430519104004 14.272551536560059 C16.828737258911133 14.115171432495117 17.001182556152344 13.965635299682617 17.214468002319336 13.815850257873535 A3.7534706592559814 3.7534706592559814 0.0 0 1 17.838512420654297 13.455643653869629 C18.061758041381836 13.349187850952148 18.2239933013916 13.298263549804688 18.330448150634766 13.298263549804688 C18.39905548095703 13.298263549804688 18.454708099365234 13.323787689208984 18.49803924560547 13.36686897277832 C18.541118621826172 13.417668342590332 18.561538696289062 13.473323822021484 18.561538696289062 13.54703426361084 C18.561538696289062 13.610284805297852 18.5233154296875 13.678889274597168 18.454833984375 13.760069847106934 C18.485464096069336 13.790451049804688 18.4981632232666 13.823570251464844 18.4981632232666 13.84610652923584 C18.4981632232666 13.884330749511719 18.480358123779297 13.927287101745605 18.447364807128906 13.965511322021484 L18.274917602539062 14.201457023620605 C18.2366943359375 14.252007484436035 18.18103790283203 14.341032028198242 18.104961395263672 14.452467918395996 C18.28002166748047 14.351118087768555 18.48558807373047 14.277656555175781 18.716304779052734 14.22685718536377 C18.766855239868164 14.214157104492188 18.8101863861084 14.209052085876465 18.840564727783203 14.201581001281738 C18.90406608581543 14.127872467041016 18.959720611572266 14.046940803527832 19.015625 13.973230361938477 L19.066177368164062 13.909730911254883 C18.97229766845703 13.927536010742188 18.89136505126953 13.935006141662598 18.827865600585938 13.935006141662598 L18.754154205322266 13.935006141662598 C19.028202056884766 13.79057502746582 19.24123764038086 13.615513801574707 19.400983810424805 13.40994930267334 C19.439208984375 13.361763954162598 19.4644832611084 13.329017639160156 19.482162475585938 13.318807601928711 C19.494863510131836 13.306106567382812 19.515283584594727 13.29838752746582 19.540559768676758 13.29838752746582 C19.5887451171875 13.29838752746582 19.62684440612793 13.318807601928711 19.657350540161133 13.36188793182373 C19.68262481689453 13.39737319946289 19.700429916381836 13.455768585205078 19.700429916381836 13.524373054504395 C19.700429916381836 13.58513355255127 19.670047760009766 13.64863395690918 19.619251251220703 13.709394454956055 L19.322542190551758 14.054410934448242 C19.22119140625 14.165971755981445 19.114362716674805 14.308037757873535 18.99794578552246 14.50090217590332 C19.05870819091797 14.439892768859863 19.165287017822266 14.341156959533691 19.309967041015625 14.209052085876465 C19.33287811279297 14.18377685546875 19.40110969543457 14.122766494750977 19.515409469604492 14.028885841369629 L19.91857147216797 13.69158935546875 C20.11380386352539 13.524249076843262 20.243167877197266 13.417792320251465 20.3117733001709 13.374463081359863 C20.387847900390625 13.323912620544434 20.448732376098633 13.29838752746582 20.499534606933594 13.29838752746582 C20.542613983154297 13.29838752746582 20.58071517944336 13.318807601928711 20.611093521118164 13.36188793182373 C20.643964767456055 13.40496826171875 20.661643981933594 13.455768585205078 20.661643981933594 13.516529083251953 L20.661643981933594 13.529478073120117 C20.71755027770996 13.516529083251953 20.84940528869629 13.491253852844238 21.042272567749023 13.455768585205078 L21.098175048828125 13.448173522949219 L21.153831481933594 13.43547248840332 C21.179107666015625 13.404844284057617 21.209735870361328 13.374463081359863 21.23501205444336 13.349187850952148 C21.252817153930664 13.323912620544434 21.272987365722656 13.311211585998535 21.278093338012695 13.306106567382812 C21.285686492919922 13.29838752746582 21.29079246520996 13.293407440185547 21.298513412475586 13.280583381652832 C21.38454818725586 13.186701774597168 21.44057846069336 13.123451232910156 21.46585464477539 13.100666999816895 C21.483657836914062 13.075141906738281 21.49112892150879 13.054970741271973 21.49112892150879 13.029696464538574 C21.49112892150879 13.024591445922852 21.49112892150879 13.011890411376953 21.48353385925293 12.994210243225098 C21.584884643554688 12.925604820251465 21.709144592285156 12.862106323242188 21.846355438232422 12.806449890136719 C21.988422393798828 12.750544548034668 22.089771270751953 12.72527027130127 22.15078353881836 12.720165252685547 C22.188756942749023 12.720165252685547 22.201332092285156 12.737969398498535 22.201332092285156 12.763245582580566 C22.201332092285156 12.788768768310547 22.176055908203125 12.8191499710083 22.12525749206543 12.86223030090332 L21.76504898071289 13.225051879882812 C21.75745391845703 13.230156898498535 21.752349853515625 13.237751960754395 21.739774703979492 13.247961044311523 A0.11990288645029068 0.11990288645029068 0.0 0 1 21.714248657226562 13.273236274719238 C21.70155143737793 13.280832290649414 21.69644546508789 13.293656349182129 21.68387222290039 13.306356430053711 C21.6762752532959 13.311461448669434 21.666065216064453 13.324161529541016 21.65349006652832 13.336736679077148 L21.640789031982422 13.354541778564453 C21.640789031982422 13.349437713623047 21.65859603881836 13.349437713623047 21.68387222290039 13.341841697692871 C21.709144592285156 13.336736679077148 21.726951599121094 13.336736679077148 21.734668731689453 13.336736679077148 C21.757579803466797 13.329141616821289 21.777751922607422 13.329141616821289 21.79543113708496 13.324036598205566 L21.952810287475586 13.29851245880127 C22.000995635986328 13.293656349182129 22.033992767333984 13.293656349182129 22.051795959472656 13.293656349182129 C22.11255645751953 13.293656349182129 22.14567756652832 13.311461448669434 22.14567756652832 13.354416847229004 C22.14567756652832 13.387287139892578 22.11255645751953 13.422773361206055 22.038970947265625 13.473572731018066 A0.10620681196451187 0.10620681196451187 0.0 0 1 21.97061538696289 13.516653060913086 C21.940235137939453 13.529603004455566 21.914710998535156 13.537073135375977 21.88433074951172 13.537073135375977 C21.82593536376953 13.5421781539917 21.714374542236328 13.554877281188965 21.547033309936523 13.567453384399414 C21.526615142822266 13.567453384399414 21.496234893798828 13.572558403015137 21.448047637939453 13.580153465270996 L21.422775268554688 13.580153465270996 C21.366867065429688 13.63605785369873 21.290668487548828 13.729938507080078 21.196910858154297 13.846479415893555 A8.407271385192871 8.407271385192871 0.0 0 0 20.930587768554688 14.191495895385742 A5.586503028869629 5.586503028869629 0.0 0 0 20.704975128173828 14.551703453063965 C20.97366714477539 14.402166366577148 21.217330932617188 14.303181648254395 21.44817352294922 14.252382278442383 C21.552263259887695 14.227106094360352 21.628337860107422 14.209300994873047 21.671419143676758 14.209300994873047 A2.2147793769836426 2.2147793769836426 0.0 0 1 22.163606643676758 13.729938507080078 C22.338417053222656 13.597833633422852 22.500904083251953 13.49897289276123 22.668243408203125 13.417917251586914 C22.843305587768555 13.329141616821289 22.967567443847656 13.285812377929688 23.048870086669922 13.285812377929688 C23.091949462890625 13.285812377929688 23.135154724121094 13.306232452392578 23.185829162597656 13.341716766357422 C23.224056243896484 13.374588012695312 23.261905670166016 13.417792320251465 23.292287826538086 13.468467712402344 C23.31781005859375 13.516653060913086 23.33051109313965 13.572558403015137 23.33051109313965 13.623357772827148 C23.33051109313965 13.755213737487793 23.241737365722656 13.90475082397461 23.066673278808594 14.06474494934082 A1.8910539150238037 1.8910539150238037 0.0 0 1 22.698997497558594 14.34128189086914 C22.58220863342285 14.409637451171875 22.480606079101562 14.445122718811035 22.402042388916016 14.445122718811035 C22.331073760986328 14.445122718811035 22.270187377929688 14.42731761932373 22.21938705444336 14.396937370300293 C22.170703887939453 14.364066123962402 22.119903564453125 14.31600570678711 22.05640411376953 14.234701156616211 L22.05640411376953 14.234701156616211" fill="black" fill-opacity="1.0" filling="0"/>
<path animation_id="2" d="M1.4487953186035156 14.521446228027344 L1.2610349655151367 14.777812957763672 C1.2255496978759766 14.825997352600098 1.2001495361328125 14.863848686218262 1.179854393005371 14.889373779296875 C1.1620492935180664 14.907177925109863 1.157069206237793 14.927349090576172 1.1494741439819336 14.932453155517578 C1.1062698364257812 15.000808715820312 1.08099365234375 15.031438827514648 1.0758886337280273 15.038909912109375 L1.0252132415771484 15.09967041015625 C0.9871139526367188 15.051485061645508 0.9694337844848633 14.988109588623047 0.9694337844848633 14.901948928833008 C0.9694337844848633 14.813173294067383 0.9998130798339844 14.709083557128906 1.055593490600586 14.595032691955566 C0.9008283615112305 14.640478134155273 0.7765674591064453 14.70148754119873 0.6750917434692383 14.777687072753906 C0.5812110900878906 14.85114860534668 0.5330257415771484 14.932329177856445 0.5330257415771484 15.013633728027344 C0.5330257415771484 15.0870943069458 0.576106071472168 15.150594711303711 0.6623916625976562 15.180974960327148 C0.7511672973632812 15.219200134277344 0.8932332992553711 15.2368803024292 1.0885896682739258 15.2368803024292 C1.2991342544555664 15.2368803024292 1.5172758102416992 15.213970184326172 1.7354164123535156 15.175870895385742 C1.9662580490112305 15.132789611816406 2.1895036697387695 15.077134132385254 2.410135269165039 14.995954513549805 C2.6332569122314453 14.914773941040039 2.8388214111328125 14.825997352600098 3.0316877365112305 14.719417572021484 C3.2320241928100586 14.607856750488281 3.412189483642578 14.491066932678223 3.5694456100463867 14.359210968017578 L3.5821447372436523 14.346261978149414 L3.5618505477905273 14.341405868530273 A4.782917499542236 4.782917499542236 0.0 0 0 3.0062875747680664 14.308286666870117 C2.7576417922973633 14.308286666870117 2.496419906616211 14.32845687866211 2.222498893737793 14.36394214630127 C1.9408578872680664 14.402166366577148 1.7050361633300781 14.452717781066895 1.5121707916259766 14.508623123168945 C1.4740705490112305 14.5138521194458 1.4487953186035156 14.521446228027344 1.4487953186035156 14.521446228027344 L1.4487953186035156 14.521446228027344 M1.2991342544555664 14.234701156616211 C1.3371095657348633 14.184149742126465 1.3852958679199219 14.12824535369873 1.43609619140625 14.05988883972168 C1.4868955612182617 13.99128532409668 1.5248708724975586 13.948328971862793 1.535080909729004 13.922679901123047 C1.6111564636230469 13.8287992477417 1.6847410202026367 13.81622314453125 1.7659215927124023 13.709643363952637 C1.885202407836914 13.567578315734863 1.9713630676269531 13.461121559143066 2.0297584533691406 13.39251708984375 C2.077943801879883 13.341965675354004 2.1413183212280273 13.260661125183105 2.2276039123535156 13.169270515441895 C2.291104316711426 13.100915908813477 2.3341846466064453 13.067920684814453 2.372283935546875 13.067920684814453 C2.415365219116211 13.067920684814453 2.4660396575927734 13.093194961547852 2.521944999694824 13.143996238708496 C2.5574302673339844 13.17948055267334 2.5777244567871094 13.212600708007812 2.5777244567871094 13.24298095703125 C2.5777244567871094 13.268257141113281 2.5650253295898438 13.30648136138916 2.521944999694824 13.341965675354004 L2.488949775695801 13.379941940307617 C2.3216094970703125 13.547532081604004 2.1896286010742188 13.60555362701416 2.0907678604125977 13.722343444824219 C1.99688720703125 13.8287992477417 1.8726263046264648 13.983813285827637 1.7101411819458008 14.184149742126465 L1.6974420547485352 14.196850776672363 L1.7101411819458008 14.196850776672363 C2.133848190307617 14.146049499511719 2.4585695266723633 14.12824535369873 2.684305191040039 14.12824535369873 C2.813671112060547 14.12824535369873 2.9329519271850586 14.12824535369873 3.0319366455078125 14.133350372314453 C3.1332874298095703 14.140945434570312 3.2449731826782227 14.153770446777344 3.3616390228271484 14.16646957397461 C3.4809188842773438 14.179169654846191 3.5873756408691406 14.196850776672363 3.681255340576172 14.214654922485352 L3.7192306518554688 14.222249984741211 L3.7294397354125977 14.209549903869629 C3.8231964111328125 14.115670204162598 3.891800880432129 14.02178955078125 3.95517635345459 13.935503959655762 C4.010956764221191 13.841872215270996 4.0617570877075195 13.834153175354004 4.092137336730957 13.747992515563965 C4.1226420402526855 13.661706924438477 4.142812728881836 13.572932243347168 4.142812728881836 13.491626739501953 C4.142812728881836 13.298761367797852 4.041461944580078 13.149225234985352 3.8434906005859375 13.055344581604004 C3.643155097961426 12.961463928222656 3.338728904724121 12.918383598327637 2.92523193359375 12.918383598327637 C2.7197914123535156 12.918383598327637 2.521944999694824 12.931084632873535 2.3290796279907227 12.956358909606934 C2.121023178100586 12.981635093688965 1.9282827377319336 13.0122652053833 1.7532215118408203 13.055344581604004 C1.7786216735839844 13.080619812011719 1.8116168975830078 13.111001014709473 1.8292970657348633 13.13652515411377 C1.8419971466064453 13.156695365905762 1.8546972274780273 13.179605484008789 1.85980224609375 13.212600708007812 C1.7786216735839844 13.169270515441895 1.6974420547485352 13.143996238708496 1.6111564636230469 13.143996238708496 C1.5248708724975586 13.143996238708496 1.4233951568603516 13.161800384521484 1.3169403076171875 13.192181587219238 C1.2687549591064453 13.204880714416504 1.2306547164916992 13.217455863952637 1.205378532409668 13.217455863952637 C1.1749992370605469 13.217455863952637 1.1444940567016602 13.199651718139648 1.1114988327026367 13.169270515441895 C1.08099365234375 13.13640022277832 1.0684185028076172 13.106019973754883 1.0684185028076172 13.067920684814453 C1.0684185028076172 13.042644500732422 1.0760126113891602 13.019735336303711 1.0887136459350586 12.999564170837402 C1.1065187454223633 12.981511116027832 1.1368980407714844 12.961339950561523 1.179978370666504 12.938554763793945 C1.2992591857910156 12.887755393981934 1.4616193771362305 12.832098007202148 1.6797609329223633 12.781174659729004 C1.8800973892211914 12.732989311218262 2.098362922668457 12.695137977600098 2.3292036056518555 12.662018775939941 C2.552450180053711 12.639108657836914 2.7654857635498047 12.626533508300781 2.9582271575927734 12.626533508300781 C3.3869142532348633 12.626533508300781 3.7243356704711914 12.720414161682129 3.9678773880004883 12.900579452514648 C4.092137336730957 12.999564170837402 4.1987175941467285 13.110876083374023 4.267198085784912 13.248085975646973 C4.3356781005859375 13.39251708984375 4.373778343200684 13.542302131652832 4.373778343200684 13.696944236755371 C4.373778343200684 13.816099166870117 4.353483200073242 13.846479415893555 4.310278415679932 13.9658842086792 C4.267198085784912 14.072340965270996 4.1987175941467285 14.191495895385742 4.1099419593811035 14.31588077545166 L4.09724235534668 14.333686828613281 L4.1099419593811035 14.333686828613281 L4.117537498474121 14.341405868530273 C4.191122531890869 14.371786117553711 4.241922378540039 14.409762382507324 4.279898166656494 14.432546615600586 C4.310278415679932 14.4705228805542 4.328083515167236 14.508623123168945 4.328083515167236 14.551703453063965 C4.328083515167236 14.559422492980957 4.322978496551514 14.577227592468262 4.315383434295654 14.6076078414917 C4.279898166656494 14.551703453063965 4.178422451019287 14.496047973632812 4.028636932373047 14.445122718811035 L4.010833263397217 14.440017700195312 L3.9981327056884766 14.452717781066895 C3.71151065826416 14.764739036560059 3.3310089111328125 15.026084899902344 2.8464174270629883 15.226545333862305 C2.6510610580444336 15.305110931396484 2.4710206985473633 15.368611335754395 2.2909793853759766 15.419411659240723 C2.0906429290771484 15.475067138671875 1.910477638244629 15.51329231262207 1.7303123474121094 15.5359525680542 A3.004669189453125 3.004669189453125 0.0 0 1 1.1926794052124023 15.581646919250488 C1.0430183410644531 15.581646919250488 0.9262285232543945 15.568947792053223 0.8323478698730469 15.543671607971191 C0.7435722351074219 15.523252487182617 0.6623916625976562 15.487767219543457 0.6015071868896484 15.432111740112305 C0.5254316329956055 15.368611335754395 0.4696512222290039 15.282325744628906 0.4214658737182617 15.175745964050293 A0.8284878134727478 0.8284878134727478 0.0 0 1 0.3529853820800781 14.85114860534668 C0.3529853820800781 14.676088333129883 0.4214658737182617 14.546722412109375 0.5711259841918945 14.452842712402344 C0.713191032409668 14.359210968017578 0.9567327499389648 14.290606498718262 1.2991342544555664 14.234701156616211 L1.2991342544555664 14.234701156616211" fill="black" fill-opacity="1.0" filling="0"/></svg>