<?xml version="1.0" encoding="iso-8859-1"?><svg height="200px" viewBox="0.0 0.0 24.0 24.0" width="200px" xmlns="http://www.w3.org/2000/svg"><path animation_id="0" d="M0.0 0.0 L24.0 0.0 L24.0 24.0 L0.0 24.0 L0.0 0.0" fill="black" fill-opacity="1.0" filling="0"/>
<path animation_id="1" d="M0.3528604507446289 10.764490127563477 L1.3591480255126953 10.764490127563477 L1.3591480255126953 12.11977767944336 C1.3591480255126953 12.592044830322266 1.52337646484375 12.739214897155762 1.8383865356445312 12.739214897155762 C2.153146743774414 12.739214897155762 2.317500114440918 12.592044830322266 2.317500114440918 12.11977767944336 L2.317500114440918 10.764490127563477 L3.303243637084961 10.764490127563477 L3.303243637084961 12.208803176879883 C3.303243637084961 12.599141120910645 3.227914810180664 12.763245582580566 3.067049026489258 12.931084632873535 C2.817281723022461 13.191060066223145 2.3859806060791016 13.300752639770508 1.8280515670776367 13.300752639770508 C1.2701234817504883 13.300752639770508 0.8389463424682617 13.191060066223145 0.5890560150146484 12.931084632873535 C0.4281892776489258 12.763245582580566 0.3528604507446289 12.599141120910645 0.3528604507446289 12.208803176879883 L0.3528604507446289 10.764490127563477 L0.3528604507446289 10.764490127563477 M5.938616752624512 11.517400741577148 C5.924920558929443 11.452406883239746 5.8839569091796875 11.37707805633545 5.808628559112549 11.318931579589844 C5.73330020904541 11.260786056518555 5.620369911193848 11.219697952270508 5.456017017364502 11.219697952270508 C5.011144161224365 11.219697952270508 4.764739036560059 11.517400741577148 4.764739036560059 11.962397575378418 C4.764739036560059 12.438026428222656 4.9837517738342285 12.78017807006836 5.50059175491333 12.78017807006836 C5.726452350616455 12.78017807006836 5.890805244445801 12.746187210083008 5.98319149017334 12.694765090942383 L5.98319149017334 12.318122863769531 L5.380813121795654 12.318122863769531 L5.380813121795654 11.79804515838623 L7.023594856262207 11.79804515838623 L7.023594856262207 13.101911544799805 C6.537633419036865 13.214966773986816 5.894166946411133 13.300628662109375 5.3499345779418945 13.300628662109375 C4.107576847076416 13.300628662109375 3.7242116928100586 12.759758949279785 3.7242116928100586 12.030754089355469 C3.7242116928100586 11.103281021118164 4.37788724899292 10.699371337890625 5.466227054595947 10.699371337890625 C6.362946033477783 10.699371337890625 7.006412506103516 10.894477844238281 7.023470401763916 11.517400741577148 L5.938616752624512 11.517400741577148 L5.938616752624512 11.517400741577148 M10.429060935974121 12.872689247131348 C10.162111282348633 13.129427909851074 9.734296798706055 13.300752639770508 9.097678184509277 13.300752639770508 C7.889560222625732 13.300752639770508 7.4445624351501465 12.739214897155762 7.4445624351501465 12.000123977661133 C7.4445624351501465 11.521011352539062 7.636307239532471 11.175247192382812 7.920313835144043 10.97329330444336 C8.156509399414062 10.805578231811523 8.4610595703125 10.699495315551758 9.097678184509277 10.699495315551758 C10.30579662322998 10.699495315551758 10.750669479370117 11.260786056518555 10.750669479370117 12.000123977661133 C10.750669479370117 12.380003929138184 10.634377479553223 12.677581787109375 10.429060935974121 12.872689247131348 M9.097678184509277 11.260662078857422 C8.755400657653809 11.260662078857422 8.505634307861328 11.493370056152344 8.505634307861328 12.0 C8.505634307861328 12.506381034851074 8.755400657653809 12.739214897155762 9.097678184509277 12.739214897155762 C9.439955711364746 12.739214897155762 9.689722061157227 12.506505966186523 9.689722061157227 12.0 C9.689722061157227 11.493494033813477 9.439955711364746 11.260662078857422 9.097678184509277 11.260662078857422 M14.313764572143555 11.681753158569336 C14.286248207092285 11.37707805633545 14.156135559082031 11.240242004394531 13.875490188598633 11.240242004394531 C13.471580505371094 11.240242004394531 13.334620475769043 11.589366912841797 13.334620475769043 12.0 C13.334620475769043 12.41063404083252 13.471580505371094 12.759883880615234 13.875490188598633 12.759883880615234 C14.190376281738281 12.759883880615234 14.34439468383789 12.612712860107422 14.354604721069336 12.294465065002441 L15.41555118560791 12.294465065002441 C15.408702850341797 12.51696491241455 15.38492202758789 12.732491493225098 15.193302154541016 12.917263984680176 C14.916017532348633 13.18433666229248 14.429931640625 13.300752639770508 13.899520874023438 13.300752639770508 C12.660524368286133 13.300752639770508 12.253129005432129 12.79076099395752 12.253129005432129 12.000123977661133 C12.253129005432129 11.414804458618164 12.516716003417969 10.699495315551758 13.899520874023438 10.699495315551758 C14.518957138061523 10.699495315551758 14.95013427734375 10.815912246704102 15.16578483581543 11.021228790283203 C15.319679260253906 11.168399810791016 15.370977401733398 11.319055557250977 15.374712944030762 11.681877136230469 L14.313764572143555 11.681877136230469 L14.313764572143555 11.681753158569336 L14.313764572143555 11.681753158569336 M18.701488494873047 12.872689247131348 C18.43441390991211 13.129427909851074 18.0064754486084 13.300752639770508 17.370105743408203 13.300752639770508 C16.1619873046875 13.300752639770508 15.716989517211914 12.739214897155762 15.716989517211914 12.000123977661133 C15.716989517211914 11.521011352539062 15.908609390258789 11.175247192382812 16.192615509033203 10.97329330444336 C16.428688049316406 10.805578231811523 16.733488082885742 10.699495315551758 17.370105743408203 10.699495315551758 C18.578224182128906 10.699495315551758 19.022972106933594 11.260786056518555 19.022972106933594 12.000123977661133 C19.022972106933594 12.380003929138184 18.90680503845215 12.677581787109375 18.701488494873047 12.872689247131348 M17.370105743408203 11.260662078857422 C17.02770233154297 11.260662078857422 16.777936935424805 11.493370056152344 16.777936935424805 12.0 C16.777936935424805 12.506381034851074 17.02770233154297 12.739214897155762 17.370105743408203 12.739214897155762 C17.712257385253906 12.739214897155762 17.9622745513916 12.506505966186523 17.9622745513916 12.0 C17.9622745513916 11.493494033813477 17.712257385253906 11.260662078857422 17.370105743408203 11.260662078857422 M19.461246490478516 10.764490127563477 L21.03903579711914 10.764490127563477 L21.555749893188477 12.42109203338623 L21.562847137451172 12.42109203338623 L22.062503814697266 10.764490127563477 L23.647140502929688 10.764490127563477 L23.647140502929688 13.23551082611084 L22.68194007873535 13.23551082611084 L22.68194007873535 11.37707805633545 L22.675092697143555 11.37707805633545 L21.997385025024414 13.23551082611084 L20.99109649658203 13.23551082611084 L20.35472869873047 11.37707805633545 L20.344270706176758 11.37707805633545 L20.344270706176758 13.23551082611084 L19.461246490478516 13.23551082611084 L19.461246490478516 10.764490127563477 L19.461246490478516 10.764490127563477 M11.792317390441895 12.835460662841797 A0.3467596471309662 0.3467596471309662 0.0 1 1 11.098798751831055 12.835460662841797 A0.3467596471309662 0.3467596471309662 0.0 0 1 11.792317390441895 12.835460662841797 L11.792317390441895 12.835460662841797" fill="black" fill-opacity="1.0" filling="0"/></svg>