<?xml version="1.0" encoding="iso-8859-1"?><svg height="200px" viewBox="0.0 0.0 24.0 24.0" width="200px" xmlns="http://www.w3.org/2000/svg"><path animation_id="0" d="M0.0 0.0 L24.0 0.0 L24.0 24.0 L0.0 24.0 L0.0 0.0" fill="black" fill-opacity="1.0" filling="0"/>
<path animation_id="1" d="M9.849717140197754 14.109443664550781 L9.778621673583984 14.37016773223877 L9.814231872558594 14.37016773223877 C9.849842071533203 14.29919719696045 9.873498916625977 14.263463020324707 9.897154808044434 14.239805221557617 C9.9564208984375 14.180414199829102 10.003735542297363 14.168834686279297 10.181535720825195 14.168834686279297 L10.193363189697266 14.168834686279297 L9.968250274658203 15.021727561950684 C9.94459342956543 15.10465145111084 9.897154808044434 15.140384674072266 9.814231872558594 15.140384674072266 L9.79057502746582 15.15208911895752 L9.79057502746582 15.175870895385742 L10.264459609985352 15.175870895385742 L10.264459609985352 15.15208911895752 L10.228973388671875 15.15208911895752 C10.146049499511719 15.140384674072266 10.110441207885742 15.128556251525879 10.110441207885742 15.0811185836792 C10.110441207885742 15.057585716247559 10.122268676757812 15.033679962158203 10.122268676757812 15.010148048400879 L10.359210014343262 14.168959617614746 L10.406524658203125 14.168959617614746 C10.57249641418457 14.168959617614746 10.619810104370117 14.204444885253906 10.619810104370117 14.311025619506836 C10.619810104370117 14.334806442260742 10.619810104370117 14.346510887145996 10.607980728149414 14.382245063781738 L10.64346694946289 14.382245063781738 L10.714561462402344 14.10969352722168 L9.849717140197754 14.10969352722168 L9.849717140197754 14.109443664550781 L9.849717140197754 14.109443664550781 M11.034427642822266 14.073959350585938 L11.022598266601562 14.062005996704102 L10.998941421508789 14.073959350585938 C10.892361640930176 14.097491264343262 10.856751441955566 14.097491264343262 10.785780906677246 14.109443664550781 L10.761999130249023 14.109443664550781 L10.761999130249023 14.13322639465332 L10.809438705444336 14.13322639465332 C10.845046997070312 14.13322639465332 10.868704795837402 14.144929885864258 10.868704795837402 14.168710708618164 L10.868704795837402 14.180414199829102 C10.868704795837402 14.192367553710938 10.868704795837402 14.227853775024414 10.856876373291016 14.263338088989258 L10.61993408203125 15.175745964050293 L10.738468170166016 15.175745964050293 L10.797734260559082 14.986117362976074 C10.821391105651855 14.879661560058594 10.857000350952148 14.808566093444824 10.927970886230469 14.713689804077148 C11.022723197937012 14.595281600952148 11.093942642211914 14.547843933105469 11.141132354736328 14.547843933105469 C11.164913177490234 14.547843933105469 11.188570022583008 14.55954647064209 11.188570022583008 14.583328247070312 C11.188570022583008 14.595281600952148 11.188570022583008 14.606861114501953 11.176741600036621 14.618814468383789 L11.070161819458008 15.04538345336914 C11.058208465576172 15.080869674682617 11.058208465576172 15.104525566101074 11.058208465576172 15.128307342529297 C11.058208465576172 15.163793563842773 11.081865310668945 15.187699317932129 11.129303932189941 15.187699317932129 C11.212226867675781 15.187699317932129 11.28332233428955 15.128307342529297 11.366246223449707 14.99807071685791 L11.342588424682617 14.986117362976074 L11.33076000213623 14.99807071685791 L11.28332233428955 15.05746078491211 C11.247712135314941 15.092947006225586 11.224056243896484 15.116602897644043 11.212226867675781 15.116602897644043 C11.188570022583008 15.116602897644043 11.188570022583008 15.093070983886719 11.188570022583008 15.0811185836792 L11.188570022583008 15.033679962158203 L11.271493911743164 14.737471580505371 C11.307104110717773 14.63101577758789 11.318931579589844 14.595405578613281 11.318931579589844 14.571624755859375 C11.318931579589844 14.500654220581055 11.271493911743164 14.453215599060059 11.200523376464844 14.453215599060059 C11.176741600036621 14.453215599060059 11.141132354736328 14.465168952941895 11.117475509643555 14.476747512817383 C11.058208465576172 14.524186134338379 10.975285530090332 14.595405578613281 10.927970886230469 14.666376113891602 L10.856876373291016 14.772832870483398 L10.845046997070312 14.784785270690918 L11.034427642822266 14.073959350585938 L11.034427642822266 14.073959350585938 M11.603063583374023 14.867709159851074 L11.62671947479248 14.867709159851074 C11.792691230773926 14.844176292419434 11.851834297180176 14.820270538330078 11.946585655212402 14.761253356933594 C12.017680168151855 14.701862335205078 12.065118789672852 14.630891799926758 12.065118789672852 14.571624755859375 C12.065118789672852 14.500654220581055 12.017680168151855 14.453215599060059 11.9347562789917 14.453215599060059 C11.816224098205566 14.453215599060059 11.674034118652344 14.536139488220215 11.5792818069458 14.654547691345215 C11.496357917785645 14.74942398071289 11.449045181274414 14.867834091186523 11.449045181274414 14.974288940429688 C11.449045181274414 15.10465145111084 11.531968116760254 15.187823295593262 11.662205696105957 15.187823295593262 C11.78073787689209 15.187823295593262 11.911100387573242 15.12843132019043 11.994024276733398 15.021727561950684 L11.982070922851562 14.998194694519043 C11.88731861114502 15.0811185836792 11.816224098205566 15.116602897644043 11.745253562927246 15.116602897644043 C11.65037727355957 15.116602897644043 11.591235160827637 15.069165229797363 11.591235160827637 14.974288940429688 C11.591235160827637 14.938679695129395 11.591235160827637 14.915146827697754 11.603063583374023 14.867709159851074 L11.603063583374023 14.867709159851074 M11.61501693725586 14.832223892211914 C11.650501251220703 14.749300003051758 11.66232967376709 14.713814735412598 11.6979398727417 14.666376113891602 C11.757205963134766 14.559671401977539 11.840129852294922 14.500529289245605 11.899395942687988 14.500529289245605 C11.935006141662598 14.500529289245605 11.958662986755371 14.524062156677246 11.958662986755371 14.559671401977539 C11.958662986755371 14.619062423706055 11.923053741455078 14.690032958984375 11.863911628723145 14.737471580505371 C11.792691230773926 14.784785270690918 11.73342514038086 14.808691024780273 11.61501693725586 14.832223892211914 M12.645708084106445 14.109443664550781 L12.645708084106445 14.144929885864258 L12.66923999786377 14.144929885864258 C12.74021053314209 14.156882286071777 12.75216293334961 14.168710708618164 12.764116287231445 14.28724479675293 L12.870573043823242 15.19940185546875 L12.906057357788086 15.19940185546875 L13.273486137390137 14.453091621398926 L13.356410026550293 15.19940185546875 L13.379941940307617 15.19940185546875 L13.818340301513672 14.37016773223877 L13.877482414245605 14.239805221557617 C13.913217544555664 14.180414199829102 13.936873435974121 14.156882286071777 13.996140480041504 14.144929885864258 L13.996140480041504 14.109443664550781 L13.699931144714355 14.109443664550781 L13.699931144714355 14.144929885864258 L13.71163558959961 14.144929885864258 C13.782855033874512 14.144929885864258 13.794559478759766 14.168710708618164 13.794559478759766 14.204320907592773 C13.806511878967285 14.227853775024414 13.794559478759766 14.275291442871094 13.759073257446289 14.322729110717773 L13.462864875793457 14.903194427490234 L13.403722763061523 14.251758575439453 L13.403722763061523 14.227977752685547 C13.403722763061523 14.168834686279297 13.427255630493164 14.14505386352539 13.51017951965332 14.14505386352539 L13.51017951965332 14.10956859588623 L13.119342803955078 14.10956859588623 L13.119342803955078 14.14505386352539 L13.142874717712402 14.14505386352539 C13.190313339233398 14.14505386352539 13.213845252990723 14.157007217407227 13.225798606872559 14.168834686279297 C13.237751960754395 14.192367553710938 13.237751960754395 14.21627426147461 13.261283874511719 14.33468246459961 L12.977027893066406 14.915146827697754 L12.905808448791504 14.227853775024414 C12.905808448791504 14.180414199829102 12.941543579101562 14.156882286071777 13.00068473815918 14.144929885864258 L13.024466514587402 14.144929885864258 L13.024466514587402 14.109443664550781 L12.645708084106445 14.109443664550781 L12.645708084106445 14.109443664550781 M14.328083038330078 14.073959350585938 L14.316130638122559 14.062005996704102 L14.292598724365234 14.073959350585938 C14.185893058776855 14.097491264343262 14.150283813476562 14.097491264343262 14.079313278198242 14.109443664550781 L14.05553150177002 14.109443664550781 L14.05553150177002 14.13322639465332 L14.09101676940918 14.13322639465332 C14.138455390930176 14.13322639465332 14.162237167358398 14.144929885864258 14.162237167358398 14.168710708618164 L14.162237167358398 14.180414199829102 C14.162237167358398 14.192367553710938 14.162237167358398 14.227853775024414 14.150283813476562 14.263338088989258 L13.913466453552246 15.175745964050293 L14.031874656677246 15.175745964050293 L14.079313278198242 14.986117362976074 C14.114797592163086 14.879661560058594 14.150283813476562 14.808566093444824 14.221378326416016 14.713689804077148 C14.316255569458008 14.595281600952148 14.387226104736328 14.547843933105469 14.434663772583008 14.547843933105469 C14.45844554901123 14.547843933105469 14.470149040222168 14.55954647064209 14.470149040222168 14.583328247070312 L14.470149040222168 14.618814468383789 L14.363693237304688 15.04538345336914 C14.351739883422852 15.080869674682617 14.340160369873047 15.104525566101074 14.340160369873047 15.128307342529297 C14.340160369873047 15.163793563842773 14.375646591186523 15.187699317932129 14.422835350036621 15.187699317932129 C14.506007194519043 15.187699317932129 14.565150260925293 15.128307342529297 14.65990161895752 14.99807071685791 L14.636120796203613 14.986117362976074 L14.62441635131836 14.99807071685791 L14.576977729797363 15.05746078491211 C14.54149341583252 15.092947006225586 14.517587661743164 15.116602897644043 14.494054794311523 15.116602897644043 C14.482102394104004 15.116602897644043 14.470273971557617 15.093070983886719 14.470273971557617 15.0811185836792 C14.470273971557617 15.069165229797363 14.482227325439453 15.057585716247559 14.482227325439453 15.033679962158203 L14.565150260925293 14.737471580505371 C14.600635528564453 14.63101577758789 14.600635528564453 14.595405578613281 14.600635528564453 14.571624755859375 C14.600635528564453 14.500654220581055 14.565150260925293 14.453215599060059 14.494179725646973 14.453215599060059 C14.47039794921875 14.453215599060059 14.43478775024414 14.465168952941895 14.411256790161133 14.476747512817383 A0.7246467471122742 0.7246467471122742 0.0 0 0 14.221628189086914 14.666376113891602 L14.150657653808594 14.772832870483398 L14.126875877380371 14.784785270690918 L14.328083038330078 14.073959350585938 M15.311336517333984 14.547967910766602 C15.287803649902344 14.48857593536377 15.252195358276367 14.453091621398926 15.181224822998047 14.453091621398926 C15.050862312316895 14.453091621398926 14.896718978881836 14.571499824523926 14.790139198303223 14.749300003051758 C14.742700576782227 14.844176292419434 14.718918800354004 14.92710018157959 14.718918800354004 15.01002311706543 C14.718918800354004 15.12843132019043 14.778310775756836 15.19940185546875 14.873063087463379 15.19940185546875 C14.932205200195312 15.19940185546875 14.991471290588379 15.175870895385742 15.050862312316895 15.12843132019043 C15.086347579956055 15.10465145111084 15.098052024841309 15.08099365234375 15.192928314208984 14.962584495544434 L15.204880714416504 14.950632095336914 L15.204880714416504 14.974164962768555 C15.18134880065918 15.021602630615234 15.18134880065918 15.057336807250977 15.169395446777344 15.080869674682617 L15.169395446777344 15.116353988647461 C15.169395446777344 15.163793563842773 15.192928314208984 15.187573432922363 15.240365982055664 15.187573432922363 C15.29975700378418 15.187573432922363 15.346822738647461 15.151840209960938 15.453651428222656 15.033431053161621 L15.465603828430176 15.009899139404297 L15.441823959350586 14.997945785522461 C15.40633773803711 15.033431053161621 15.382680892944336 15.057336807250977 15.35890007019043 15.080869674682617 C15.335367202758789 15.092823028564453 15.323413848876953 15.104401588439941 15.311461448669434 15.104401588439941 C15.29975700378418 15.104401588439941 15.28792953491211 15.092698097229004 15.28792953491211 15.080869674682617 C15.28792953491211 15.06904125213623 15.299880981445312 15.057336807250977 15.299880981445312 15.04538345336914 L15.335367202758789 14.879536628723145 L15.441823959350586 14.464920043945312 L15.430119514465332 14.452966690063477 L15.382680892944336 14.464920043945312 L15.346946716308594 14.464920043945312 L15.323413848876953 14.47662353515625 L15.311336517333984 14.547967910766602 L15.311336517333984 14.547967910766602 M15.181224822998047 14.500529289245605 C15.252195358276367 14.500529289245605 15.287679672241211 14.536014556884766 15.287679672241211 14.595405578613281 C15.287679672241211 14.690032958984375 15.240242004394531 14.808691024780273 15.181224822998047 14.92710018157959 C15.110004425048828 15.04550838470459 15.027081489562988 15.11647891998291 14.955986022949219 15.11647891998291 C14.896595001220703 15.11647891998291 14.861109733581543 15.06904125213623 14.861109733581543 15.01002311706543 C14.861109733581543 14.891613960266113 14.920500755310059 14.725518226623535 15.003423690795898 14.607110023498535 C15.062566757202148 14.547967910766602 15.121832847595215 14.500529289245605 15.181224822998047 14.500529289245605 M15.868144989013672 14.453091621398926 L15.619373321533203 14.500529289245605 L15.619373321533203 14.536014556884766 C15.65485954284668 14.524062156677246 15.666812896728516 14.524062156677246 15.678765296936035 14.524062156677246 C15.714250564575195 14.524062156677246 15.726203918457031 14.536014556884766 15.726203918457031 14.571499824523926 C15.726203918457031 14.583452224731445 15.726203918457031 14.654422760009766 15.702421188354492 14.701862335205078 L15.690468788146973 14.761253356933594 L15.572060585021973 15.175870895385742 L15.702421188354492 15.175870895385742 L15.702421188354492 15.15208911895752 C15.773391723632812 14.950757026672363 15.797298431396484 14.891613960266113 15.832783699035645 14.808691024780273 C15.856315612792969 14.749300003051758 15.903754234313965 14.678329467773438 15.92765998840332 14.642594337463379 C15.975098609924316 14.583452224731445 15.986801147460938 14.571624755859375 16.010583877563477 14.571624755859375 L16.034114837646484 14.571624755859375 L16.034114837646484 14.583577156066895 A0.06549213081598282 0.06549213081598282 0.0 0 0 16.093507766723633 14.619062423706055 C16.140945434570312 14.619062423706055 16.17643165588379 14.59553050994873 16.17643165588379 14.536139488220215 C16.17643165588379 14.488700866699219 16.140945434570312 14.465168952941895 16.093507766723633 14.465168952941895 C16.058021545410156 14.465168952941895 16.034114837646484 14.476873397827148 15.99863052368164 14.500654220581055 C15.951192855834961 14.548091888427734 15.89217472076416 14.607110023498535 15.868268966674805 14.66650104522705 L15.797298431396484 14.784910202026367 L15.88022232055664 14.488700866699219 L15.88022232055664 14.465168952941895 L15.868144989013672 14.453091621398926 L15.868144989013672 14.453091621398926 M16.484468460083008 14.476747512817383 L16.531658172607422 14.310901641845703 C16.531658172607422 14.29919719696045 16.531658172607422 14.287368774414062 16.51995086669922 14.287368774414062 C16.507999420166016 14.287368774414062 16.507999420166016 14.287368774414062 16.496171951293945 14.299322128295898 L16.448734283447266 14.358463287353516 C16.40154457092285 14.417854309082031 16.30666732788086 14.476873397827148 16.235448837280273 14.500778198242188 L16.223743438720703 14.536264419555664 L16.342153549194336 14.536264419555664 L16.19983673095703 15.093195915222168 L16.19983673095703 15.128681182861328 C16.19983673095703 15.164166450500488 16.22361946105957 15.188072204589844 16.27105712890625 15.188072204589844 C16.342029571533203 15.188072204589844 16.413124084472656 15.140633583068848 16.484342575073242 15.021976470947266 L16.50787353515625 14.998443603515625 L16.484342575073242 14.986490249633789 L16.47239112854004 14.998443603515625 L16.42495346069336 15.05783462524414 C16.401418685913086 15.093320846557617 16.36556053161621 15.11697769165039 16.353981018066406 15.11697769165039 C16.342029571533203 15.11697769165039 16.3302001953125 15.105024337768555 16.3302001953125 15.09344482421875 L16.3302001953125 15.057960510253906 L16.472515106201172 14.53651237487793 L16.614580154418945 14.53651237487793 L16.614580154418945 14.477121353149414 L16.484468460083008 14.477121353149414 L16.484468460083008 14.476747512817383 L16.484468460083008 14.476747512817383 M17.10041618347168 14.453091621398926 C17.017494201660156 14.465044021606445 16.9345703125 14.48857593536377 16.875179290771484 14.536014556884766 C16.721284866333008 14.642470359802246 16.62640953063965 14.808566093444824 16.62640953063965 14.962584495544434 C16.62640953063965 15.10465145111084 16.733112335205078 15.187823295593262 16.875179290771484 15.187823295593262 C17.029321670532227 15.187823295593262 17.183340072631836 15.092947006225586 17.278091430664062 14.915271759033203 C17.325531005859375 14.832347869873047 17.349063873291016 14.772956848144531 17.349063873291016 14.690032958984375 C17.349063873291016 14.547967910766602 17.254186630249023 14.453215599060059 17.112245559692383 14.453215599060059 L17.10041618347168 14.453091621398926 M16.910663604736328 15.163917541503906 C16.83969497680664 15.163917541503906 16.768598556518555 15.08099365234375 16.768598556518555 14.99807071685791 C16.768598556518555 14.903194427490234 16.80408477783203 14.784785270690918 16.86322593688965 14.678329467773438 C16.934446334838867 14.559671401977539 17.017370223999023 14.488700866699219 17.100292205810547 14.488700866699219 C17.159435272216797 14.488700866699219 17.206748962402344 14.559671401977539 17.206748962402344 14.642594337463379 C17.206748962402344 14.749300003051758 17.171262741088867 14.879661560058594 17.11212158203125 14.986242294311523 C17.06493377685547 15.08099365234375 16.970054626464844 15.163917541503906 16.910663604736328 15.163917541503906 L16.910663604736328 15.163917541503906 M17.740148544311523 14.453091621398926 L17.47942543029785 14.512481689453125 L17.47942543029785 14.536014556884766 C17.550395965576172 14.536014556884766 17.57430076599121 14.547967910766602 17.57430076599121 14.571499824523926 L17.57430076599121 14.618938446044922 L17.550519943237305 14.689908981323242 L17.42015838623047 15.175745964050293 L17.53856658935547 15.175745964050293 L17.550519943237305 15.15196418762207 C17.58600616455078 15.033555030822754 17.609912872314453 14.962584495544434 17.621490478515625 14.92697525024414 L17.68088150024414 14.808566093444824 C17.775758743286133 14.654422760009766 17.882213592529297 14.536014556884766 17.941606521606445 14.536014556884766 C17.965137481689453 14.536014556884766 17.977088928222656 14.55954647064209 17.977088928222656 14.583452224731445 C17.977088928222656 14.606985092163086 17.977088928222656 14.642594337463379 17.965137481689453 14.689908981323242 L17.953432083129883 14.749300003051758 L17.89404296875 14.974288940429688 L17.87051010131836 15.04550838470459 C17.858556747436523 15.06904125213623 17.858556747436523 15.092947006225586 17.858556747436523 15.11647891998291 C17.858556747436523 15.163917541503906 17.89404296875 15.187699317932129 17.94148063659668 15.187699317932129 C18.012451171875 15.187699317932129 18.059890747070312 15.15196418762207 18.154766082763672 15.021602630615234 L18.166719436645508 15.009899139404297 L18.14293670654297 14.986117362976074 C18.07196807861328 15.08099365234375 18.036481857299805 15.11647891998291 18.012575149536133 15.11647891998291 C18.000873565673828 15.11647891998291 17.989044189453125 15.104525566101074 17.989044189453125 15.08099365234375 L17.989044189453125 15.05746078491211 C17.989044189453125 15.04550838470459 17.989044189453125 15.033679962158203 18.000995635986328 15.021727561950684 L18.095624923706055 14.678329467773438 C18.107576370239258 14.642594337463379 18.11940574645996 14.583452224731445 18.11940574645996 14.559671401977539 A0.10620681196451187 0.10620681196451187 0.0 0 0 18.0127010345459 14.453215599060059 C17.977214813232422 14.453215599060059 17.95355796813965 14.465168952941895 17.929777145385742 14.476747512817383 C17.858806610107422 14.512481689453125 17.78746223449707 14.595405578613281 17.728445053100586 14.666376113891602 L17.657472610473633 14.784785270690918 L17.64552116394043 14.796737670898438 L17.74039649963379 14.465044021606445 L17.74039649963379 14.453091621398926 L17.740148544311523 14.453091621398926 L17.740148544311523 14.453091621398926 M19.446182250976562 14.085911750793457 L19.39874267578125 14.085911750793457 C19.39874267578125 14.097616195678711 19.39874267578125 14.097616195678711 19.387039184570312 14.097616195678711 C19.375083923339844 14.133350372314453 19.363258361816406 14.133350372314453 19.327648162841797 14.133350372314453 C19.31569480895996 14.133350372314453 19.30386734008789 14.133350372314453 19.280208587646484 14.121397018432617 C19.221065521240234 14.097616195678711 19.17375373840332 14.097616195678711 19.114362716674805 14.097616195678711 C18.948514938354492 14.097616195678711 18.83010482788086 14.204320907592773 18.83010482788086 14.37016773223877 C18.83010482788086 14.44113826751709 18.853639602661133 14.500529289245605 18.924983978271484 14.583452224731445 L19.114362716674805 14.772832870483398 C19.14984893798828 14.820270538330078 19.17375373840332 14.867709159851074 19.17375373840332 14.92697525024414 C19.17375373840332 15.057336807250977 19.078876495361328 15.15196418762207 18.960468292236328 15.15196418762207 C18.83010482788086 15.15196418762207 18.7352294921875 15.033555030822754 18.7352294921875 14.89148998260498 L18.7352294921875 14.844051361083984 L18.699745178222656 14.832098960876465 L18.64035415649414 15.199277877807617 L18.675838470458984 15.199277877807617 C18.68779182434082 15.163793563842773 18.699621200561523 15.140135765075684 18.7352294921875 15.140135765075684 L18.747182846069336 15.140135765075684 L18.877546310424805 15.187573432922363 C18.913028717041016 15.199277877807617 18.948514938354492 15.199277877807617 18.98400115966797 15.199277877807617 C19.173629760742188 15.199277877807617 19.31569480895996 15.057212829589844 19.31569480895996 14.879536628723145 C19.31569480895996 14.784660339355469 19.280208587646484 14.713689804077148 19.197284698486328 14.630766868591309 L19.03143882751465 14.452966690063477 A0.19647637009620667 0.19647637009620667 0.0 0 1 18.9720458984375 14.310651779174805 C18.9720458984375 14.216024398803711 19.04326629638672 14.144804954528809 19.14984893798828 14.144804954528809 C19.221065521240234 14.144804954528809 19.280208587646484 14.180290222167969 19.303741455078125 14.227727890014648 C19.339475631713867 14.28711986541748 19.339475631713867 14.310651779174805 19.339475631713867 14.40552806854248 L19.374961853027344 14.417481422424316 L19.446182250976562 14.085911750793457 L19.446182250976562 14.085911750793457 M19.896282196044922 14.99807071685791 C19.8133602142334 15.104525566101074 19.742389678955078 15.12843132019043 19.671295166015625 15.12843132019043 C19.576417922973633 15.12843132019043 19.51740074157715 15.06904125213623 19.51740074157715 14.950632095336914 C19.51740074157715 14.713814735412598 19.671295166015625 14.48857593536377 19.84909439086914 14.48857593536377 C19.87262725830078 14.48857593536377 19.90823745727539 14.512357711791992 19.90823745727539 14.524062156677246 L19.90823745727539 14.536014556884766 L19.88470458984375 14.583452224731445 L19.88470458984375 14.595405578613281 C19.88470458984375 14.642594337463379 19.90823745727539 14.666376113891602 19.94384765625 14.666376113891602 A0.08093132823705673 0.08093132823705673 0.0 0 0 20.026769638061523 14.583452224731445 C20.026769638061523 14.512481689453125 19.94384765625 14.453091621398926 19.849220275878906 14.453091621398926 C19.612152099609375 14.453091621398926 19.37520980834961 14.689908981323242 19.37520980834961 14.938679695129395 C19.37520980834961 15.104525566101074 19.47008514404297 15.187699317932129 19.623981475830078 15.187699317932129 C19.742389678955078 15.187699317932129 19.825313568115234 15.140260696411133 19.932144165039062 15.021602630615234 L19.896282196044922 14.99807071685791 L19.896282196044922 14.99807071685791 M20.50052833557129 14.073959350585938 L20.488576889038086 14.062005996704102 L20.465045928955078 14.073959350585938 C20.35833740234375 14.097491264343262 20.322729110717773 14.097491264343262 20.251758575439453 14.109443664550781 L20.228225708007812 14.109443664550781 L20.228225708007812 14.13322639465332 L20.275415420532227 14.13322639465332 C20.31114959716797 14.13322639465332 20.346635818481445 14.144929885864258 20.346635818481445 14.168710708618164 L20.346635818481445 14.180414199829102 C20.33468246459961 14.192367553710938 20.33468246459961 14.227853775024414 20.32285499572754 14.263338088989258 L20.086036682128906 15.175745964050293 L20.204444885253906 15.175745964050293 L20.263835906982422 14.986117362976074 C20.287368774414062 14.879661560058594 20.322978973388672 14.808566093444824 20.39419937133789 14.713689804077148 C20.488826751708984 14.595281600952148 20.560047149658203 14.547843933105469 20.60748291015625 14.547843933105469 C20.63101577758789 14.547843933105469 20.654672622680664 14.55954647064209 20.654672622680664 14.583328247070312 C20.654672622680664 14.595281600952148 20.654672622680664 14.606861114501953 20.642969131469727 14.618814468383789 L20.53626251220703 15.04538345336914 C20.524311065673828 15.080869674682617 20.524311065673828 15.104525566101074 20.524311065673828 15.128307342529297 C20.524311065673828 15.163793563842773 20.548091888427734 15.187699317932129 20.595529556274414 15.187699317932129 C20.67845344543457 15.187699317932129 20.74942398071289 15.128307342529297 20.832347869873047 14.99807071685791 L20.80881690979004 14.986117362976074 L20.796863555908203 14.99807071685791 L20.74942398071289 15.05746078491211 C20.713939666748047 15.092947006225586 20.69028091430664 15.116602897644043 20.67845344543457 15.116602897644043 C20.6666259765625 15.116602897644043 20.654672622680664 15.093070983886719 20.654672622680664 15.0811185836792 C20.654672622680664 15.069165229797363 20.654672622680664 15.057585716247559 20.6666259765625 15.033679962158203 L20.749547958374023 14.737471580505371 C20.773330688476562 14.63101577758789 20.7850341796875 14.595405578613281 20.7850341796875 14.571624755859375 C20.7850341796875 14.500654220581055 20.73759651184082 14.453215599060059 20.6666259765625 14.453215599060059 C20.64309310913086 14.453215599060059 20.60748291015625 14.465168952941895 20.583702087402344 14.476747512817383 C20.524311065673828 14.524186134338379 20.44163703918457 14.595405578613281 20.39432144165039 14.666376113891602 L20.323104858398438 14.772832870483398 L20.311397552490234 14.784785270690918 L20.50052833557129 14.073959350585938 L20.50052833557129 14.073959350585938 M21.377201080322266 14.453091621398926 C21.306232452392578 14.465044021606445 21.223308563232422 14.48857593536377 21.15221405029297 14.536014556884766 C20.998069763183594 14.642470359802246 20.903194427490234 14.808566093444824 20.903194427490234 14.962584495544434 C20.903194427490234 15.10465145111084 21.009899139404297 15.187823295593262 21.15221405029297 15.187823295593262 C21.306106567382812 15.187823295593262 21.460124969482422 15.092947006225586 21.566831588745117 14.915271759033203 C21.602313995361328 14.832347869873047 21.625972747802734 14.772956848144531 21.625972747802734 14.690032958984375 C21.625972747802734 14.547967910766602 21.543048858642578 14.453215599060059 21.389156341552734 14.453215599060059 L21.377201080322266 14.453215599060059 L21.377201080322266 14.453091621398926 L21.377201080322266 14.453091621398926 M21.187824249267578 15.163917541503906 C21.11660385131836 15.163917541503906 21.05746078491211 15.08099365234375 21.05746078491211 14.99807071685791 C21.05746078491211 14.903194427490234 21.092947006225586 14.784785270690918 21.15233612060547 14.678329467773438 C21.21147918701172 14.559671401977539 21.294403076171875 14.488700866699219 21.37732696533203 14.488700866699219 C21.44854736328125 14.488700866699219 21.484031677246094 14.559671401977539 21.484031677246094 14.642594337463379 C21.484031677246094 14.749300003051758 21.44854736328125 14.879661560058594 21.389156341552734 14.986242294311523 C21.341716766357422 15.08099365234375 21.246967315673828 15.163917541503906 21.187824249267578 15.163917541503906 L21.187824249267578 15.163917541503906 M22.19485855102539 14.453091621398926 C22.111934661865234 14.465044021606445 22.029010772705078 14.48857593536377 21.95804214477539 14.536014556884766 C21.815725326538086 14.642470359802246 21.72097396850586 14.808566093444824 21.72097396850586 14.962584495544434 C21.72097396850586 15.10465145111084 21.81585121154785 15.187823295593262 21.95804214477539 15.187823295593262 C22.111934661865234 15.187823295593262 22.277782440185547 15.092947006225586 22.372657775878906 14.915271759033203 C22.41984748840332 14.832347869873047 22.431800842285156 14.772956848144531 22.431800842285156 14.690032958984375 C22.43167495727539 14.547967910766602 22.348752975463867 14.453091621398926 22.19485855102539 14.453091621398926 L22.19485855102539 14.453091621398926 M22.005104064941406 15.163917541503906 C21.93413543701172 15.163917541503906 21.863040924072266 15.08099365234375 21.863040924072266 14.99807071685791 C21.863040924072266 14.903194427490234 21.89852523803711 14.784785270690918 21.957916259765625 14.678329467773438 C22.028886795043945 14.559671401977539 22.1118106842041 14.488700866699219 22.194732666015625 14.488700866699219 C22.253875732421875 14.488700866699219 22.301189422607422 14.559671401977539 22.301189422607422 14.642594337463379 C22.301189422607422 14.749300003051758 22.265703201293945 14.879661560058594 22.206562042236328 14.986242294311523 C22.159374237060547 15.08099365234375 22.064495086669922 15.163917541503906 22.005104064941406 15.163917541503906 L22.005104064941406 15.163917541503906 M22.94116973876953 14.073959350585938 L22.929218292236328 14.062005996704102 C22.88202667236328 14.085786819458008 22.787151336669922 14.097491264343262 22.68044662475586 14.109443664550781 L22.68044662475586 14.13322639465332 L22.692398071289062 14.13322639465332 C22.763370513916016 14.13322639465332 22.787277221679688 14.144929885864258 22.787277221679688 14.180414199829102 C22.787277221679688 14.180414199829102 22.787277221679688 14.20419692993164 22.77532196044922 14.263338088989258 L22.55008316040039 15.080869674682617 L22.55008316040039 15.104401588439941 C22.55008316040039 15.163793563842773 22.585819244384766 15.187573432922363 22.633007049560547 15.187573432922363 C22.715930938720703 15.187573432922363 22.787151336669922 15.140135765075684 22.88202667236328 14.985992431640625 L22.858245849609375 14.974040031433105 C22.858245849609375 14.985992431640625 22.846294403076172 14.985992431640625 22.846294403076172 14.985992431640625 C22.77532196044922 15.080869674682617 22.739837646484375 15.128307342529297 22.704227447509766 15.128307342529297 C22.692276000976562 15.128307342529297 22.68044662475586 15.104525566101074 22.68044662475586 15.092823028564453 C22.68044662475586 15.080869674682617 22.68044662475586 15.06904125213623 22.692398071289062 15.057336807250977 L22.94116973876953 14.073959350585938 L22.94116973876953 14.073959350585938 M2.089522361755371 16.005104064941406 C2.0184268951416016 16.005104064941406 1.9355039596557617 16.040590286254883 1.8644084930419922 16.088027954101562 C1.7222185134887695 16.19448471069336 1.6275911331176758 16.360580444335938 1.6275911331176758 16.514598846435547 C1.6275911331176758 16.644962310791016 1.7223434448242188 16.739837646484375 1.8644084930419922 16.739837646484375 C2.0184268951416016 16.739837646484375 2.17257022857666 16.633132934570312 2.27915096282959 16.455331802368164 C2.3265886306762695 16.384361267089844 2.3384170532226562 16.31326675415039 2.3384170532226562 16.242046356201172 C2.3384170532226562 16.088153839111328 2.2554941177368164 16.005229949951172 2.101475715637207 16.005229949951172 L2.089522361755371 16.005229949951172 L2.089522361755371 16.005104064941406 M1.9118480682373047 16.7039794921875 C1.8289241790771484 16.7039794921875 1.7696571350097656 16.633007049560547 1.7696571350097656 16.538131713867188 C1.7696571350097656 16.443504333496094 1.8051424026489258 16.324848175048828 1.8644084930419922 16.2183895111084 C1.9355039596557617 16.09998321533203 2.0184268951416016 16.040590286254883 2.089522361755371 16.040590286254883 C2.1606178283691406 16.040590286254883 2.2080564498901367 16.09998321533203 2.2080564498901367 16.182907104492188 C2.2080564498901367 16.28936195373535 2.17257022857666 16.419723510742188 2.1133041381835938 16.53825569152832 C2.054037094116211 16.621055603027344 1.9592857360839844 16.7039794921875 1.9118480682373047 16.7039794921875 L1.9118480682373047 16.7039794921875 M2.741206169128418 16.028884887695312 L2.741206169128418 16.005104064941406 C2.7886438369750977 15.768287658691406 2.847911834716797 15.649629592895508 2.930710792541504 15.649629592895508 C2.9543676376342773 15.649629592895508 2.966320037841797 15.661582946777344 2.966320037841797 15.673410415649414 L2.95449161529541 15.70889663696289 L2.95449161529541 15.720849990844727 C2.95449161529541 15.768287658691406 2.9781484603881836 15.791820526123047 3.013758659362793 15.791820526123047 C3.049367904663086 15.791820526123047 3.084853172302246 15.75633430480957 3.084853172302246 15.720849990844727 C3.084853172302246 15.661458969116211 3.0255861282348633 15.614144325256348 2.94266414642334 15.614144325256348 C2.871567726135254 15.614144325256348 2.8124256134033203 15.649629592895508 2.7649879455566406 15.697068214416504 C2.741331100463867 15.720849990844727 2.7176742553710938 15.7445068359375 2.705721855163574 15.779991149902344 C2.6820640563964844 15.827428817749023 2.658407211303711 15.874868392944336 2.6464548110961914 15.922306060791016 C2.6464548110961914 15.922306060791016 2.6346254348754883 15.95779037475586 2.6109695434570312 16.005229949951172 L2.6109695434570312 16.029010772705078 L2.456951141357422 16.029010772705078 L2.445122718811035 16.076200485229492 L2.5991411209106445 16.076200485229492 L2.456951141357422 16.71605682373047 C2.4332942962646484 16.869949340820312 2.409512519836426 16.917387008666992 2.3740272521972656 16.97677993774414 C2.350370407104492 17.00031089782715 2.326714515686035 17.024215698242188 2.291104316711426 17.024215698242188 C2.2792749404907227 17.024215698242188 2.267446517944336 17.012264251708984 2.267446517944336 16.988733291625977 C2.2792749404907227 16.97677993774414 2.2792749404907227 16.964950561523438 2.2792749404907227 16.9532470703125 C2.2792749404907227 16.917512893676758 2.2436656951904297 16.88202667236328 2.2200088500976562 16.88202667236328 C2.184398651123047 16.88202667236328 2.148914337158203 16.917512893676758 2.148914337158203 16.9532470703125 C2.148914337158203 17.012388229370117 2.2081804275512695 17.059701919555664 2.27915096282959 17.059701919555664 C2.4213409423828125 17.059701919555664 2.539750099182129 16.90580940246582 2.5990161895751953 16.645084381103516 L2.7293777465820312 16.076324462890625 L2.8952245712280273 16.076324462890625 L2.9071779251098633 16.029136657714844 L2.741206169128418 16.029136657714844 L2.741206169128418 16.028884887695312 L2.741206169128418 16.028884887695312 M3.606051445007324 16.028884887695312 L3.6416616439819336 15.862791061401367 C3.6534900665283203 15.862791061401367 3.6534900665283203 15.851086616516113 3.6534900665283203 15.851086616516113 A0.025524497032165527 0.025524497032165527 0.0 0 0 3.6297082901000977 15.82730484008789 L3.617879867553711 15.839258193969727 L3.558612823486328 15.910228729248047 C3.5111751556396484 15.957667350769043 3.4164228439331055 16.028884887695312 3.3453283309936523 16.05254364013672 L3.3453283309936523 16.07607650756836 L3.4637365341186523 16.07607650756836 L3.3215465545654297 16.633007049560547 C3.309718132019043 16.656789779663086 3.309718132019043 16.668493270874023 3.309718132019043 16.668493270874023 C3.309718132019043 16.7039794921875 3.3453283309936523 16.739713668823242 3.392765998840332 16.739713668823242 C3.4637365341186523 16.739713668823242 3.5230026245117188 16.680320739746094 3.605926513671875 16.561912536621094 L3.6177549362182617 16.538131713867188 L3.5940980911254883 16.526426315307617 L3.582270622253418 16.538131713867188 L3.534832000732422 16.609350204467773 C3.5111751556396484 16.632884979248047 3.487393379211426 16.656789779663086 3.4637365341186523 16.656789779663086 C3.4519081115722656 16.656789779663086 3.440079689025879 16.64483642578125 3.440079689025879 16.633007049560547 C3.440079689025879 16.621179580688477 3.4519081115722656 16.60947608947754 3.4519081115722656 16.597522735595703 L3.582270622253418 16.07607650756836 L3.7244606018066406 16.07607650756836 L3.7362890243530273 16.028884887695312 L3.606051445007324 16.028884887695312 L3.606051445007324 16.028884887695312 M4.151030540466309 15.625972747802734 L4.139202117919922 15.614019393920898 L4.115545272827148 15.614019393920898 C4.008965492248535 15.637802124023438 3.973355293273926 15.649505615234375 3.9023847579956055 15.649505615234375 L3.878727912902832 15.661458969116211 L3.878727912902832 15.685239791870117 L3.914337158203125 15.685239791870117 C3.961650848388672 15.685239791870117 3.985431671142578 15.696943283081055 3.985431671142578 15.720725059509277 C3.985431671142578 15.744256973266602 3.985431671142578 15.768162727355957 3.973604202270508 15.803648948669434 L3.736661911010742 16.71580696105957 L3.855070114135742 16.71580696105957 L3.9025096893310547 16.538005828857422 C3.9381189346313477 16.431550979614258 3.973604202270508 16.3486270904541 4.044699192047119 16.265579223632812 C4.139451026916504 16.147171020507812 4.210670471191406 16.087779998779297 4.257984638214111 16.087779998779297 C4.281641006469727 16.087779998779297 4.2935943603515625 16.0997314453125 4.2935943603515625 16.135217666625977 L4.2935943603515625 16.158750534057617 L4.187013626098633 16.5853214263916 C4.175185203552246 16.620807647705078 4.163356781005859 16.644712448120117 4.163356781005859 16.668243408203125 C4.163356781005859 16.7037296295166 4.1989665031433105 16.739463806152344 4.246280193328857 16.739463806152344 C4.329204082489014 16.739463806152344 4.38847017288208 16.680072784423828 4.483222484588623 16.549835205078125 L4.45956563949585 16.526302337646484 L4.447737216949463 16.549835205078125 L4.400423526763916 16.597272872924805 C4.364813804626465 16.644712448120117 4.341156959533691 16.656665802001953 4.31749963760376 16.656665802001953 C4.30554723739624 16.656665802001953 4.2938432693481445 16.644712448120117 4.2938432693481445 16.632884979248047 C4.2938432693481445 16.621055603027344 4.305671691894531 16.59739875793457 4.305671691894531 16.573741912841797 L4.38871955871582 16.289236068725586 C4.4243292808532715 16.170827865600586 4.4243292808532715 16.147171020507812 4.4243292808532715 16.11168670654297 C4.4243292808532715 16.04046630859375 4.38871955871582 16.004981994628906 4.3177490234375 16.004981994628906 C4.294092178344727 16.004981994628906 4.258482456207275 16.01693344116211 4.234701156616211 16.028762817382812 C4.163605690002441 16.064247131347656 4.09251070022583 16.135217666625977 4.045197010040283 16.20631217956543 L3.974102020263672 16.313018798828125 L3.950446128845215 16.336549758911133 L4.151030540466309 15.625972747802734 L4.151030540466309 15.625972747802734 M4.719666004180908 16.419723510742188 L4.74332332611084 16.419723510742188 C4.909170627593994 16.396190643310547 4.9684367179870605 16.372283935546875 5.0631890296936035 16.301313400268555 C5.134284019470215 16.253875732421875 5.181597709655762 16.182907104492188 5.181597709655762 16.111934661865234 C5.181597709655762 16.040714263916016 5.134284019470215 16.005229949951172 5.051360130310059 16.005229949951172 C4.932826995849609 16.005229949951172 4.790637016296387 16.076200485229492 4.696009635925293 16.194608688354492 C4.613086223602295 16.301313400268555 4.565647602081299 16.40814208984375 4.565647602081299 16.514598846435547 C4.565647602081299 16.644962310791016 4.648571491241455 16.739837646484375 4.778933048248291 16.739837646484375 C4.897341728210449 16.739837646484375 5.027703762054443 16.668617248535156 5.110627174377441 16.56203842163086 L5.098798751831055 16.53825569152832 C5.004046440124512 16.621179580688477 4.921123027801514 16.668617248535156 4.861856460571289 16.668617248535156 C4.767104625701904 16.668617248535156 4.70783805847168 16.60947608947754 4.70783805847168 16.514724731445312 C4.70783805847168 16.479114532470703 4.70783805847168 16.467159271240234 4.719666004180908 16.419723510742188 L4.719666004180908 16.419723510742188 M4.731494903564453 16.38423728942871 C4.767104625701904 16.301313400268555 4.778933048248291 16.26582908630371 4.814418315887451 16.206438064575195 C4.873685359954834 16.09998321533203 4.956608295440674 16.040590286254883 5.015874862670898 16.040590286254883 C5.05148458480835 16.040590286254883 5.075141906738281 16.06437110900879 5.075141906738281 16.09998321533203 C5.075141906738281 16.159122467041016 5.027828216552734 16.230342864990234 4.9803900718688965 16.277782440185547 C4.909295082092285 16.324848175048828 4.850028038024902 16.348751068115234 4.731494903564453 16.38423728942871 L4.731494903564453 16.38423728942871 M5.845234394073486 15.661458969116211 L5.845234394073486 15.685239791870117 L5.868891716003418 15.685239791870117 L5.892548084259033 15.696943283081055 C5.951814651489258 15.696943283081055 5.9754719734191895 15.70889663696289 5.9754719734191895 15.744380950927734 L5.9754719734191895 15.75633430480957 C5.9754719734191895 15.779867172241211 5.9636430740356445 15.815726280212402 5.951814651489258 15.851210594177246 L5.857062816619873 16.182907104492188 C5.833406448364258 16.301313400268555 5.809624671936035 16.419723510742188 5.809624671936035 16.479114532470703 C5.809624671936035 16.633007049560547 5.951814651489258 16.751541137695312 6.153271198272705 16.751541137695312 C6.366432189941406 16.751541137695312 6.508747100830078 16.633132934570312 6.579717636108398 16.396190643310547 L6.7455644607543945 15.815726280212402 C6.769345760345459 15.732802391052246 6.793002605438232 15.709020614624023 6.887754440307617 15.68536376953125 L6.887754440307617 15.661582946777344 L6.555935859680176 15.661582946777344 L6.555935859680176 15.68536376953125 C6.638984203338623 15.697068214416504 6.674469470977783 15.70889663696289 6.674469470977783 15.75633430480957 C6.674469470977783 15.779867172241211 6.65081262588501 15.851210594177246 6.638984203338623 15.922181129455566 L6.627155780792236 15.957667350769043 L6.508747100830078 16.372283935546875 C6.46130895614624 16.561912536621094 6.330946922302246 16.680444717407227 6.1888813972473145 16.680444717407227 C6.046691417694092 16.680444717407227 5.951939582824707 16.60947608947754 5.951939582824707 16.50264549255371 C5.951939582824707 16.479114532470703 5.9637675285339355 16.443504333496094 5.9637675285339355 16.40802001953125 C5.987424850463867 16.33679962158203 6.011081695556641 16.241924285888672 6.023034572601318 16.19448471069336 L6.117785930633545 15.851086616516113 C6.153396129608154 15.720725059509277 6.177052974700928 15.696943283081055 6.295461654663086 15.685239791870117 L6.295461654663086 15.661458969116211 L5.845234394073486 15.661458969116211 L5.845234394073486 15.661458969116211 M7.02994441986084 16.005104064941406 L6.757517337799072 16.05254364013672 L6.757517337799072 16.07607650756836 L6.769345760345459 16.07607650756836 C6.84044075012207 16.07607650756836 6.864098072052002 16.088027954101562 6.864098072052002 16.12351417541504 C6.864098072052002 16.135465621948242 6.864098072052002 16.147294998168945 6.852144718170166 16.17095184326172 L6.840316295623779 16.241924285888672 L6.709954738616943 16.715930938720703 L6.828487873077393 16.715930938720703 L6.840316295623779 16.7039794921875 C6.8758015632629395 16.585569381713867 6.899583339691162 16.50264549255371 6.911411285400391 16.478988647460938 C6.923239707946777 16.443504333496094 6.947021007537842 16.40802001953125 6.970678329467773 16.3486270904541 C7.0537261962890625 16.19448471069336 7.172134876251221 16.087905883789062 7.231276988983154 16.087905883789062 C7.254933834075928 16.087905883789062 7.2668867111206055 16.11168670654297 7.2668867111206055 16.13534164428711 C7.2668867111206055 16.147294998168945 7.2668867111206055 16.19448471069336 7.255058288574219 16.241798400878906 L7.231401443481445 16.301189422607422 L7.172134876251221 16.526426315307617 L7.160306453704834 16.585569381713867 C7.148477554321289 16.621055603027344 7.148477554321289 16.633007049560547 7.148477554321289 16.656789779663086 C7.148477554321289 16.7039794921875 7.172134876251221 16.739713668823242 7.231401443481445 16.739713668823242 C7.302496910095215 16.739713668823242 7.337982177734375 16.7039794921875 7.4446868896484375 16.561912536621094 L7.456515312194824 16.54996109008789 L7.432857990264893 16.526426315307617 C7.361763000488281 16.621055603027344 7.32615327835083 16.656789779663086 7.302496910095215 16.656789779663086 C7.278839588165283 16.656789779663086 7.278839588165283 16.64483642578125 7.278839588165283 16.633007049560547 L7.278839588165283 16.60947608947754 L7.278839588165283 16.573989868164062 L7.385420322418213 16.230342864990234 C7.397248268127441 16.182907104492188 7.397248268127441 16.123638153076172 7.397248268127441 16.111934661865234 C7.397248268127441 16.040714263916016 7.36163854598999 16.005229949951172 7.290543556213379 16.005229949951172 C7.2668867111206055 16.005229949951172 7.231276988983154 16.017181396484375 7.207620143890381 16.029010772705078 C7.148353576660156 16.064496994018555 7.077258586883545 16.135465621948242 7.018116474151611 16.2183895111084 L6.947021007537842 16.324848175048828 L6.923364162445068 16.3486270904541 L7.02994441986084 16.005104064941406 L7.02994441986084 16.005104064941406 M7.847476005554199 15.661458969116211 C7.800037384033203 15.661458969116211 7.764552116394043 15.696943283081055 7.764552116394043 15.744380950927734 C7.764552116394043 15.791820526123047 7.800037384033203 15.82730484008789 7.847476005554199 15.82730484008789 C7.894914150238037 15.82730484008789 7.930399417877197 15.791820526123047 7.930399417877197 15.744380950927734 C7.930399417877197 15.696943283081055 7.894914150238037 15.661458969116211 7.847476005554199 15.661458969116211 M7.8711323738098145 16.005104064941406 L7.859304428100586 16.005104064941406 C7.776256561279297 16.017059326171875 7.669800281524658 16.040590286254883 7.598705291748047 16.040590286254883 L7.598705291748047 16.07607650756836 L7.646018981933594 16.07607650756836 C7.681628704071045 16.07607650756836 7.705285549163818 16.088027954101562 7.705285549163818 16.11180877685547 L7.705285549163818 16.147294998168945 L7.681628704071045 16.206438064575195 L7.598705291748047 16.514598846435547 C7.598705291748047 16.526552200317383 7.598705291748047 16.538131713867188 7.586751937866211 16.56203842163086 C7.586751937866211 16.597522735595703 7.574923992156982 16.633007049560547 7.574923992156982 16.65691375732422 C7.574923992156982 16.7041015625 7.610409259796143 16.739837646484375 7.646018981933594 16.739837646484375 C7.729066848754883 16.739837646484375 7.800037384033203 16.680444717407227 7.882960796356201 16.550209045410156 L7.859304428100586 16.53825569152832 L7.847476005554199 16.550209045410156 C7.788208961486816 16.621179580688477 7.752723693847656 16.65691375732422 7.717113971710205 16.65691375732422 C7.705285549163818 16.65691375732422 7.705285549163818 16.65691375732422 7.705285549163818 16.633132934570312 L7.705285549163818 16.597646713256836 L7.729066848754883 16.502771377563477 L7.8711323738098145 16.005104064941406 L7.8711323738098145 16.005104064941406 M8.202825546264648 16.005104064941406 L8.190998077392578 16.005104064941406 C8.131731033325195 16.017059326171875 8.036979675292969 16.040590286254883 7.977837085723877 16.040590286254883 L7.977837085723877 16.06437110900879 L8.013322830200195 16.06437110900879 C8.096246719360352 16.06437110900879 8.108075141906738 16.087905883789062 8.119902610778809 16.19448471069336 C8.131731033325195 16.2302188873291 8.143559455871582 16.27765655517578 8.143559455871582 16.301189422607422 C8.143559455871582 16.313140869140625 8.155387878417969 16.39606475830078 8.167217254638672 16.538005828857422 L8.167217254638672 16.692150115966797 C8.167217254638672 16.739587783813477 8.167217254638672 16.751291275024414 8.179045677185059 16.751291275024414 C8.202701568603516 16.751291275024414 8.238311767578125 16.71580696105957 8.285625457763672 16.656665802001953 L8.404158592224121 16.538005828857422 C8.439767837524414 16.502521514892578 8.47525405883789 16.44338035583496 8.52269172668457 16.384113311767578 C8.605615615844727 16.253751754760742 8.641100883483887 16.170827865600586 8.641100883483887 16.099857330322266 C8.641100883483887 16.04046630859375 8.605615615844727 16.004981994628906 8.546348571777344 16.004981994628906 C8.510738372802734 16.004981994628906 8.487082481384277 16.028762817382812 8.487082481384277 16.052419662475586 C8.487082481384277 16.07607650756836 8.498910903930664 16.099857330322266 8.510738372802734 16.11180877685547 L8.546348571777344 16.147294998168945 C8.546348571777344 16.147294998168945 8.558177947998047 16.170827865600586 8.558177947998047 16.182781219482422 C8.558177947998047 16.265705108642578 8.439767837524414 16.45520782470703 8.285749435424805 16.59739875793457 L8.285749435424805 16.585445404052734 C8.274045944213867 16.360580444335938 8.250265121459961 16.159000396728516 8.202825546264648 16.005104064941406 L8.202825546264648 16.005104064941406 M8.878167152404785 16.419723510742188 L8.901824951171875 16.419723510742188 C9.055843353271484 16.396190643310547 9.126937866210938 16.372283935546875 9.22169017791748 16.301313400268555 C9.29278564453125 16.253875732421875 9.34022331237793 16.182907104492188 9.34022331237793 16.111934661865234 C9.34022331237793 16.040714263916016 9.280956268310547 16.005229949951172 9.209861755371094 16.005229949951172 C9.091452598571777 16.005229949951172 8.949262619018555 16.076200485229492 8.842556953430176 16.194608688354492 C8.759634017944336 16.301313400268555 8.724148750305176 16.40814208984375 8.724148750305176 16.514598846435547 C8.724148750305176 16.644962310791016 8.807072639465332 16.739837646484375 8.937309265136719 16.739837646484375 C9.043889999389648 16.739837646484375 9.174251556396484 16.668617248535156 9.26912784576416 16.56203842163086 L9.245471000671387 16.53825569152832 C9.16254711151123 16.621179580688477 9.07962417602539 16.668617248535156 9.008528709411621 16.668617248535156 C8.925480842590332 16.668617248535156 8.866338729858398 16.60947608947754 8.866338729858398 16.514724731445312 C8.866338729858398 16.479114532470703 8.866338729858398 16.467159271240234 8.878167152404785 16.419723510742188 L8.878167152404785 16.419723510742188 M8.889995574951172 16.38423728942871 C8.913652420043945 16.301313400268555 8.937309265136719 16.26582908630371 8.972919464111328 16.206438064575195 C9.032186508178711 16.09998321533203 9.11510944366455 16.040590286254883 9.174375534057617 16.040590286254883 C9.209861755371094 16.040590286254883 9.233642578125 16.06437110900879 9.233642578125 16.09998321533203 C9.233642578125 16.159122467041016 9.18620491027832 16.230342864990234 9.127062797546387 16.277782440185547 C9.067795753479004 16.324848175048828 9.008528709411621 16.348751068115234 8.889995574951172 16.38423728942871 M9.754964828491211 16.005104064941406 L9.506070137023926 16.05254364013672 L9.506070137023926 16.07607650756836 C9.541680335998535 16.06437110900879 9.553507804870605 16.06437110900879 9.565336227416992 16.06437110900879 C9.600822448730469 16.06437110900879 9.624603271484375 16.087905883789062 9.624603271484375 16.11180877685547 C9.624603271484375 16.13534164428711 9.612774848937988 16.19448471069336 9.588993072509766 16.253875732421875 L9.577164649963379 16.301313400268555 L9.458632469177246 16.715930938720703 L9.588869094848633 16.715930938720703 L9.60069751739502 16.692398071289062 C9.659963607788086 16.49081802368164 9.683745384216309 16.43167495727539 9.719230651855469 16.348751068115234 C9.742887496948242 16.28936195373535 9.790325164794922 16.2183895111084 9.813982009887695 16.182907104492188 C9.861295700073242 16.12351417541504 9.873249053955078 16.111934661865234 9.896905899047852 16.111934661865234 L9.920562744140625 16.111934661865234 L9.920562744140625 16.135465621948242 A0.06561663746833801 0.06561663746833801 0.0 0 0 9.97995376586914 16.17095184326172 C10.027267456054688 16.17095184326172 10.062877655029297 16.135465621948242 10.062877655029297 16.088027954101562 C10.062877655029297 16.040590286254883 10.027267456054688 16.005104064941406 9.97995376586914 16.005104064941406 C9.956172943115234 16.005104064941406 9.920562744140625 16.017059326171875 9.885077476501465 16.040590286254883 C9.837639808654785 16.088027954101562 9.778497695922852 16.159000396728516 9.754840850830078 16.206438064575195 L9.683745384216309 16.324848175048828 L9.766669273376465 16.028884887695312 L9.766669273376465 16.005104064941406 L9.754964828491211 16.005104064941406 M10.607980728149414 16.005104064941406 C10.596028327941895 16.028884887695312 10.584324836730957 16.028884887695312 10.560543060302734 16.028884887695312 L10.525057792663574 16.028884887695312 L10.430180549621582 16.005104064941406 L10.406524658203125 16.005104064941406 C10.288115501403809 16.005104064941406 10.205191612243652 16.07607650756836 10.205191612243652 16.182907104492188 C10.205191612243652 16.2183895111084 10.228849411010742 16.26582908630371 10.252506256103516 16.301313400268555 L10.359086036682129 16.45520782470703 C10.394696235656738 16.50264549255371 10.406400680541992 16.538131713867188 10.406400680541992 16.57386589050293 C10.406400680541992 16.656789779663086 10.359086036682129 16.7039794921875 10.28799057006836 16.7039794921875 C10.20506763458252 16.7039794921875 10.15762996673584 16.64483642578125 10.13397216796875 16.526426315307617 L10.122143745422363 16.478988647460938 L10.08653450012207 16.478988647460938 L10.062877655029297 16.739713668823242 L10.08653450012207 16.739713668823242 C10.098362922668457 16.715930938720703 10.110191345214844 16.7039794921875 10.122143745422363 16.7039794921875 C10.13397216796875 16.7039794921875 10.145801544189453 16.7039794921875 10.16958236694336 16.715930938720703 L10.228849411010742 16.72788429260254 C10.252506256103516 16.739837646484375 10.276162147521973 16.739837646484375 10.288115501403809 16.739837646484375 C10.430306434631348 16.739837646484375 10.525057792663574 16.644962310791016 10.525057792663574 16.526552200317383 C10.525057792663574 16.479114532470703 10.513104438781738 16.43167495727539 10.477619171142578 16.38423728942871 L10.371039390563965 16.230342864990234 C10.347382545471191 16.194608688354492 10.335554122924805 16.159122467041016 10.335554122924805 16.135465621948242 C10.335554122924805 16.07607650756836 10.359210014343262 16.040590286254883 10.418478012084961 16.040590286254883 C10.5014009475708 16.040590286254883 10.560667991638184 16.11180877685547 10.57249641418457 16.2302188873291 L10.596152305603027 16.2302188873291 L10.619810104370117 16.004981994628906 L10.607980728149414 16.004981994628906 L10.607980728149414 16.005104064941406 M10.998817443847656 15.661458969116211 C10.95150375366211 15.661458969116211 10.927721977233887 15.696943283081055 10.927721977233887 15.744380950927734 C10.927721977233887 15.791820526123047 10.963332176208496 15.82730484008789 10.998817443847656 15.82730484008789 C11.046256065368652 15.82730484008789 11.081740379333496 15.791820526123047 11.081740379333496 15.744380950927734 C11.081740379333496 15.696943283081055 11.046256065368652 15.661458969116211 10.998817443847656 15.661458969116211 M11.022598266601562 16.005104064941406 C10.939675331115723 16.017059326171875 10.833094596862793 16.040590286254883 10.76187515258789 16.040590286254883 L10.76187515258789 16.07607650756836 L10.809313774108887 16.07607650756836 C10.84492301940918 16.07607650756836 10.856751441955566 16.088027954101562 10.856751441955566 16.11180877685547 L10.856751441955566 16.147294998168945 L10.84492301940918 16.206438064575195 L10.750170707702637 16.514598846435547 L10.750170707702637 16.56203842163086 C10.738343238830566 16.597522735595703 10.72651481628418 16.633007049560547 10.72651481628418 16.65691375732422 C10.72651481628418 16.7041015625 10.761999130249023 16.739837646484375 10.809438705444336 16.739837646484375 C10.880533218383789 16.739837646484375 10.963457107543945 16.680444717407227 11.034551620483398 16.550209045410156 L11.010894775390625 16.53825569152832 L10.998941421508789 16.550209045410156 C10.951627731323242 16.621179580688477 10.904190063476562 16.65691375732422 10.880533218383789 16.65691375732422 C10.868704795837402 16.65691375732422 10.856876373291016 16.65691375732422 10.856876373291016 16.633132934570312 C10.856876373291016 16.633132934570312 10.856876373291016 16.621179580688477 10.868704795837402 16.597646713256836 L10.892361640930176 16.502771377563477 L11.022598266601562 16.005104064941406 L11.022598266601562 16.005104064941406 M11.460872650146484 16.028884887695312 L11.496482849121094 15.862791061401367 C11.50831127166748 15.862791061401367 11.50831127166748 15.851086616516113 11.50831127166748 15.851086616516113 C11.50831127166748 15.839133262634277 11.496482849121094 15.82730484008789 11.484654426574707 15.82730484008789 L11.47282600402832 15.839258193969727 L11.413558959960938 15.910228729248047 C11.366246223449707 15.957667350769043 11.271368980407715 16.028884887695312 11.200398445129395 16.05254364013672 L11.200398445129395 16.07607650756836 L11.318807601928711 16.07607650756836 L11.176617622375488 16.633007049560547 C11.164788246154785 16.656789779663086 11.164788246154785 16.668493270874023 11.164788246154785 16.668493270874023 C11.164788246154785 16.7039794921875 11.200398445129395 16.739713668823242 11.247712135314941 16.739713668823242 C11.318807601928711 16.739713668823242 11.378074645996094 16.680320739746094 11.460997581481934 16.561912536621094 L11.47282600402832 16.538131713867188 L11.449169158935547 16.526426315307617 L11.449169158935547 16.538131713867188 L11.389902114868164 16.609350204467773 C11.366246223449707 16.632884979248047 11.342464447021484 16.656789779663086 11.318807601928711 16.656789779663086 C11.306978225708008 16.656789779663086 11.295150756835938 16.64483642578125 11.295150756835938 16.633007049560547 C11.295150756835938 16.621179580688477 11.306978225708008 16.60947608947754 11.306978225708008 16.597522735595703 L11.449169158935547 16.07607650756836 L11.57940673828125 16.07607650756836 L11.591235160827637 16.028884887695312 L11.460872650146484 16.028884887695312 L11.460872650146484 16.028884887695312" fill="black" fill-opacity="1.0" filling="0"/>
<path animation_id="2" d="M11.982195854187012 16.597522735595703 L11.982195854187012 16.573989868164062 C11.946709632873535 16.36070442199707 11.899271965026855 16.171077728271484 11.840005874633789 16.029010772705078 C11.828176498413086 16.005229949951172 11.8163480758667 16.005229949951172 11.8163480758667 16.005229949951172 C11.792691230773926 16.005229949951172 11.76891040802002 16.005229949951172 11.745253562927246 16.017181396484375 C11.709643363952637 16.017181396484375 11.685986518859863 16.029136657714844 11.603063583374023 16.040714263916016 L11.57940673828125 16.040714263916016 L11.57940673828125 16.076200485229492 C11.603063583374023 16.064496994018555 11.61501693725586 16.064496994018555 11.62671947479248 16.064496994018555 C11.674158096313477 16.064496994018555 11.70976734161377 16.076200485229492 11.721595764160156 16.09998321533203 C11.757081985473633 16.14742088317871 11.8163480758667 16.348751068115234 11.851834297180176 16.526552200317383 L11.875490188598633 16.633007049560547 C11.88731861114502 16.668493270874023 11.88731861114502 16.692398071289062 11.88731861114502 16.715930938720703 C11.88731861114502 16.739713668823242 11.85170841217041 16.79885482788086 11.792566299438477 16.86982536315918 C11.73330020904541 16.941043853759766 11.69781494140625 16.964702606201172 11.685986518859863 16.964702606201172 C11.674158096313477 16.964702606201172 11.674158096313477 16.964702606201172 11.66232967376709 16.952999114990234 C11.62671947479248 16.929216384887695 11.603063583374023 16.91726303100586 11.57940673828125 16.91726303100586 C11.54379653930664 16.91726303100586 11.520139694213867 16.941043853759766 11.520139694213867 16.976655960083008 C11.520139694213867 17.024093627929688 11.55574893951416 17.05957794189453 11.591235160827637 17.05957794189453 C11.66232967376709 17.05957794189453 11.76891040802002 16.976655960083008 11.887443542480469 16.810808181762695 C12.005976676940918 16.65691375732422 12.088900566101074 16.526552200317383 12.17182445526123 16.348751068115234 C12.23121452331543 16.2183895111084 12.25474739074707 16.159122467041016 12.25474739074707 16.09998321533203 A0.09338230639696121 0.09338230639696121 0.0 0 0 12.159871101379395 16.005104064941406 C12.124384880065918 16.005104064941406 12.088900566101074 16.028884887695312 12.088900566101074 16.064496994018555 C12.088900566101074 16.076200485229492 12.10085391998291 16.09998321533203 12.124384880065918 16.111934661865234 L12.159871101379395 16.135465621948242 C12.17182445526123 16.14742088317871 12.1836519241333 16.17095184326172 12.1836519241333 16.182907104492188 C12.1836519241333 16.2183895111084 12.171699523925781 16.253875732421875 12.14816665649414 16.31326675415039 C12.10085391998291 16.40802001953125 12.041461944580078 16.514598846435547 11.982195854187012 16.597522735595703 L11.982195854187012 16.597522735595703 M13.19068717956543 16.005104064941406 C13.11971664428711 16.005104064941406 13.036543846130371 16.040590286254883 12.965449333190918 16.088027954101562 C12.823382377624512 16.19448471069336 12.728631973266602 16.360580444335938 12.728631973266602 16.514598846435547 C12.728631973266602 16.644962310791016 12.823507308959961 16.739837646484375 12.965449333190918 16.739837646484375 C13.119592666625977 16.739837646484375 13.285189628601074 16.633132934570312 13.38006591796875 16.455331802368164 C13.427504539489746 16.384361267089844 13.439457893371582 16.31326675415039 13.439457893371582 16.242046356201172 C13.439457893371582 16.088153839111328 13.356534004211426 16.005229949951172 13.202391624450684 16.005229949951172 L13.19068717956543 16.005104064941406 L13.19068717956543 16.005104064941406 M13.013011932373047 16.7039794921875 C12.942041397094727 16.7039794921875 12.870697021484375 16.633007049560547 12.870697021484375 16.538131713867188 C12.870697021484375 16.443504333496094 12.906182289123535 16.324848175048828 12.96557331085205 16.2183895111084 C13.036543846130371 16.09998321533203 13.11971664428711 16.040590286254883 13.202391624450684 16.040590286254883 C13.261781692504883 16.040590286254883 13.30909538269043 16.09998321533203 13.30909538269043 16.182907104492188 C13.30909538269043 16.28936195373535 13.273611068725586 16.419723510742188 13.214219093322754 16.53825569152832 C13.166905403137207 16.621055603027344 13.072278022766113 16.7039794921875 13.013011932373047 16.7039794921875 M13.842247009277344 16.028884887695312 L13.842247009277344 16.005104064941406 C13.889684677124023 15.768287658691406 13.94895076751709 15.649629592895508 14.031874656677246 15.649629592895508 C14.055407524108887 15.649629592895508 14.067359924316406 15.661582946777344 14.067359924316406 15.673410415649414 L14.055407524108887 15.70889663696289 L14.055407524108887 15.720849990844727 C14.055407524108887 15.768287658691406 14.07918930053711 15.791820526123047 14.114797592163086 15.791820526123047 C14.150407791137695 15.791820526123047 14.185768127441406 15.75633430480957 14.185768127441406 15.720849990844727 C14.185768127441406 15.661458969116211 14.126378059387207 15.614144325256348 14.043703079223633 15.614144325256348 C13.97248363494873 15.614144325256348 13.913341522216797 15.649629592895508 13.8659029006958 15.697068214416504 C13.842121124267578 15.720849990844727 13.830418586730957 15.7445068359375 13.806511878967285 15.779991149902344 C13.782979965209961 15.827428817749023 13.759073257446289 15.874868392944336 13.747369766235352 15.922306060791016 C13.747369766235352 15.922306060791016 13.735417366027832 15.95779037475586 13.723588943481445 16.005229949951172 L13.71163558959961 16.029010772705078 L13.557741165161133 16.029010772705078 L13.545788764953613 16.076200485229492 L13.699931144714355 16.076200485229492 L13.5576171875 16.71605682373047 C13.53408432006836 16.869949340820312 13.51017951965332 16.917387008666992 13.474693298339844 16.97677993774414 C13.451160430908203 17.00031089782715 13.427255630493164 17.024215698242188 13.391770362854004 17.024215698242188 C13.379817008972168 17.024215698242188 13.368237495422363 17.012264251708984 13.368237495422363 16.988733291625977 C13.379941940307617 16.97677993774414 13.379941940307617 16.964950561523438 13.379941940307617 16.9532470703125 C13.379941940307617 16.917512893676758 13.356410026550293 16.88202667236328 13.320799827575684 16.88202667236328 C13.285064697265625 16.88202667236328 13.261408805847168 16.917512893676758 13.261408805847168 16.9532470703125 C13.261408805847168 17.012388229370117 13.308846473693848 17.059701919555664 13.379817008972168 17.059701919555664 C13.522130966186523 17.059701919555664 13.640541076660156 16.90580940246582 13.699807167053223 16.645084381103516 L13.830169677734375 16.076324462890625 L14.007719039916992 16.076324462890625 L14.019672393798828 16.029136657714844 L13.842247009277344 16.029136657714844 L13.842247009277344 16.028884887695312 L13.842247009277344 16.028884887695312 M14.58880615234375 15.661458969116211 L14.58880615234375 15.685239791870117 L14.61233901977539 15.685239791870117 C14.683309555053711 15.696943283081055 14.707216262817383 15.708772659301758 14.707216262817383 15.756210327148438 C14.707216262817383 15.779742240905762 14.695262908935547 15.815601348876953 14.68343448638916 15.886571884155273 L14.482102394104004 16.585445404052734 C14.470149040222168 16.64483642578125 14.446617126464844 16.680320739746094 14.399179458618164 16.680320739746094 L14.375646591186523 16.69227409362793 L14.3518648147583 16.69227409362793 L14.3518648147583 16.71580696105957 L14.754777908325195 16.71580696105957 L14.754777908325195 16.69227409362793 L14.74282455444336 16.69227409362793 C14.65990161895752 16.680320739746094 14.636120796203613 16.668493270874023 14.636120796203613 16.621055603027344 C14.636120796203613 16.609350204467773 14.64807415008545 16.597522735595703 14.64807415008545 16.585569381713867 L14.742949485778809 16.2183895111084 C14.802092552185059 16.230342864990234 14.825873374938965 16.230342864990234 14.896843910217285 16.230342864990234 C15.015253067016602 16.230342864990234 15.110129356384277 16.206562042236328 15.18134880065918 16.17095184326172 C15.275976181030273 16.11180877685547 15.335243225097656 16.017059326171875 15.335243225097656 15.89852523803711 C15.335243225097656 15.756210327148438 15.216833114624023 15.661458969116211 15.015253067016602 15.661458969116211 L14.58880615234375 15.661458969116211 L14.58880615234375 15.661458969116211 M14.766357421875 16.159000396728516 L14.849281311035156 15.851086616516113 L14.873063087463379 15.756210327148438 C14.885015487670898 15.720725059509277 14.908547401428223 15.708772659301758 14.9440336227417 15.708772659301758 C15.109880447387695 15.708772659301758 15.169271469116211 15.768162727355957 15.169271469116211 15.910103797912598 C15.169271469116211 16.075950622558594 15.062566757202148 16.15887451171875 14.861109733581543 16.15887451171875 L14.766357421875 16.159000396728516 M15.358774185180664 16.419723510742188 L15.382555961608887 16.419723510742188 C15.548402786254883 16.396190643310547 15.607544898986816 16.372283935546875 15.70229721069336 16.301313400268555 C15.77326774597168 16.253875732421875 15.820706367492676 16.182907104492188 15.820706367492676 16.111934661865234 C15.820706367492676 16.040714263916016 15.77326774597168 16.005229949951172 15.690343856811523 16.005229949951172 C15.571935653686523 16.005229949951172 15.42987060546875 16.076200485229492 15.334993362426758 16.194608688354492 C15.252070426940918 16.301313400268555 15.204631805419922 16.40814208984375 15.204631805419922 16.514598846435547 C15.204631805419922 16.644962310791016 15.287555694580078 16.739837646484375 15.417917251586914 16.739837646484375 C15.536325454711914 16.739837646484375 15.666687965393066 16.668617248535156 15.749610900878906 16.56203842163086 L15.737658500671387 16.53825569152832 C15.642782211303711 16.621179580688477 15.560107231140137 16.668617248535156 15.50084114074707 16.668617248535156 C15.405963897705078 16.668617248535156 15.346697807312012 16.60947608947754 15.346697807312012 16.514724731445312 C15.346822738647461 16.479114532470703 15.346822738647461 16.467159271240234 15.358774185180664 16.419723510742188 L15.358774185180664 16.419723510742188 M15.370603561401367 16.38423728942871 C15.406088829040527 16.301313400268555 15.418042182922363 16.26582908630371 15.453526496887207 16.206438064575195 C15.512918472290039 16.09998321533203 15.595842361450195 16.040590286254883 15.65485954284668 16.040590286254883 C15.690343856811523 16.040590286254883 15.714250564575195 16.06437110900879 15.714250564575195 16.09998321533203 C15.714250564575195 16.159122467041016 15.666812896728516 16.230342864990234 15.619373321533203 16.277782440185547 C15.548402786254883 16.324848175048828 15.489012718200684 16.348751068115234 15.370603561401367 16.38423728942871 M16.2117919921875 16.005104064941406 L15.951066970825195 16.05254364013672 L15.951066970825195 16.07607650756836 L15.963021278381348 16.07607650756836 C16.02216339111328 16.07607650756836 16.05789566040039 16.088027954101562 16.05789566040039 16.12351417541504 C16.05789566040039 16.135465621948242 16.045944213867188 16.147294998168945 16.045944213867188 16.17095184326172 L16.02216339111328 16.241924285888672 L15.892050743103027 16.715930938720703 L16.02216339111328 16.715930938720703 L16.02216339111328 16.7039794921875 C16.05789566040039 16.585569381713867 16.081554412841797 16.50264549255371 16.093381881713867 16.478988647460938 C16.105335235595703 16.443504333496094 16.128868103027344 16.40802001953125 16.152524948120117 16.3486270904541 C16.247400283813477 16.19448471069336 16.354106903076172 16.087905883789062 16.42507553100586 16.087905883789062 C16.4486083984375 16.087905883789062 16.460561752319336 16.11168670654297 16.460561752319336 16.13534164428711 C16.460561752319336 16.147294998168945 16.4486083984375 16.19448471069336 16.437030792236328 16.241798400878906 L16.42507553100586 16.301189422607422 L16.365684509277344 16.526426315307617 L16.353981018066406 16.585569381713867 C16.342029571533203 16.621055603027344 16.342029571533203 16.633007049560547 16.342029571533203 16.656789779663086 C16.342029571533203 16.7039794921875 16.36556053161621 16.739713668823242 16.41299819946289 16.739713668823242 C16.48421859741211 16.739713668823242 16.531408309936523 16.7039794921875 16.626283645629883 16.561912536621094 L16.63823699951172 16.54996109008789 L16.614456176757812 16.526426315307617 C16.543485641479492 16.621055603027344 16.507999420166016 16.656789779663086 16.484342575073242 16.656789779663086 C16.47239112854004 16.656789779663086 16.460561752319336 16.64483642578125 16.460561752319336 16.633007049560547 L16.460561752319336 16.60947608947754 C16.472515106201172 16.597522735595703 16.472515106201172 16.585693359375 16.472515106201172 16.573989868164062 L16.567142486572266 16.230342864990234 C16.57909393310547 16.182907104492188 16.590923309326172 16.123638153076172 16.590923309326172 16.111934661865234 C16.590923309326172 16.040714263916016 16.555437088012695 16.005229949951172 16.484468460083008 16.005229949951172 C16.448734283447266 16.005229949951172 16.42507553100586 16.017181396484375 16.40154457092285 16.029010772705078 C16.342153549194336 16.064496994018555 16.25922966003418 16.135465621948242 16.2119140625 16.2183895111084 L16.128992080688477 16.324848175048828 L16.11703872680664 16.3486270904541 L16.223743438720703 16.004981994628906 L16.2117919921875 16.004981994628906 L16.2117919921875 16.005104064941406 M17.029321670532227 16.005104064941406 L16.756771087646484 16.05254364013672 L16.756771087646484 16.07607650756836 L16.768722534179688 16.07607650756836 C16.83969497680664 16.07607650756836 16.863351821899414 16.088027954101562 16.863351821899414 16.12351417541504 L16.863351821899414 16.17095184326172 L16.83981704711914 16.241924285888672 L16.709457397460938 16.715930938720703 L16.827865600585938 16.715930938720703 L16.83981704711914 16.7039794921875 C16.875303268432617 16.585569381713867 16.89920997619629 16.50264549255371 16.910789489746094 16.478988647460938 C16.922740936279297 16.443504333496094 16.946523666381836 16.40802001953125 16.97018051147461 16.3486270904541 C17.06505584716797 16.19448471069336 17.171512603759766 16.087905883789062 17.23090362548828 16.087905883789062 C17.25443458557129 16.087905883789062 17.266389846801758 16.11168670654297 17.266389846801758 16.13534164428711 C17.266389846801758 16.147294998168945 17.266389846801758 16.19448471069336 17.25443458557129 16.241798400878906 L17.23090362548828 16.301189422607422 L17.1834659576416 16.526426315307617 L17.159683227539062 16.585569381713867 C17.147979736328125 16.621055603027344 17.147979736328125 16.633007049560547 17.147979736328125 16.656789779663086 C17.147979736328125 16.7039794921875 17.1834659576416 16.739713668823242 17.23090362548828 16.739713668823242 C17.301876068115234 16.739713668823242 17.34931182861328 16.7039794921875 17.444189071655273 16.561912536621094 L17.455894470214844 16.54996109008789 L17.43235969543457 16.526426315307617 C17.36138916015625 16.621055603027344 17.325904846191406 16.656789779663086 17.301998138427734 16.656789779663086 C17.29004669189453 16.656789779663086 17.278467178344727 16.64483642578125 17.278467178344727 16.633007049560547 L17.278467178344727 16.60947608947754 C17.278467178344727 16.597522735595703 17.278467178344727 16.585693359375 17.29016876220703 16.573989868164062 L17.385047912597656 16.230342864990234 C17.39699935913086 16.182907104492188 17.408828735351562 16.123638153076172 17.408828735351562 16.111934661865234 C17.408828735351562 16.040714263916016 17.36138916015625 16.005229949951172 17.3021240234375 16.005229949951172 C17.266637802124023 16.005229949951172 17.231151580810547 16.017181396484375 17.207246780395508 16.029010772705078 C17.14810562133789 16.064496994018555 17.076885223388672 16.135465621948242 17.017868041992188 16.2183895111084 L16.946895599365234 16.324848175048828 L16.93494415283203 16.3486270904541 L17.029321670532227 16.005104064941406 L17.029321670532227 16.005104064941406 M18.083547592163086 16.005104064941406 C18.071842193603516 16.028884887695312 18.060012817382812 16.028884887695312 18.03635597229004 16.028884887695312 L18.000873565673828 16.028884887695312 L17.905994415283203 16.005104064941406 L17.882213592529297 16.005104064941406 C17.763805389404297 16.005104064941406 17.68088150024414 16.07607650756836 17.68088150024414 16.182907104492188 C17.68088150024414 16.2183895111084 17.70466423034668 16.26582908630371 17.72831916809082 16.301313400268555 L17.834775924682617 16.45520782470703 C17.87051010131836 16.50264549255371 17.882213592529297 16.538131713867188 17.882213592529297 16.57386589050293 C17.882213592529297 16.656789779663086 17.834775924682617 16.7039794921875 17.763805389404297 16.7039794921875 C17.68088150024414 16.7039794921875 17.63344383239746 16.64483642578125 17.609912872314453 16.526426315307617 L17.597957611083984 16.478988647460938 L17.56247329711914 16.478988647460938 L17.538692474365234 16.739713668823242 L17.56247329711914 16.739713668823242 C17.574426651000977 16.715930938720703 17.58600616455078 16.7039794921875 17.597957611083984 16.7039794921875 C17.609912872314453 16.7039794921875 17.621490478515625 16.7039794921875 17.645395278930664 16.715930938720703 L17.704788208007812 16.72788429260254 C17.72831916809082 16.739837646484375 17.751976013183594 16.739837646484375 17.763931274414062 16.739837646484375 C17.9062442779541 16.739837646484375 18.000995635986328 16.644962310791016 18.000995635986328 16.526552200317383 C18.000995635986328 16.479114532470703 17.989044189453125 16.43167495727539 17.95355796813965 16.38423728942871 L17.84685516357422 16.230342864990234 C17.823320388793945 16.194608688354492 17.811368942260742 16.159122467041016 17.811368942260742 16.135465621948242 C17.811368942260742 16.07607650756836 17.83489990234375 16.040590286254883 17.894290924072266 16.040590286254883 C17.977214813232422 16.040590286254883 18.036605834960938 16.11180877685547 18.048185348510742 16.2302188873291 L18.07196807861328 16.2302188873291 L18.09549903869629 16.004981994628906 L18.083547592163086 16.004981994628906 L18.083547592163086 16.005104064941406 M18.557554244995117 16.597522735595703 L18.557554244995117 16.573989868164062 C18.52206802368164 16.36070442199707 18.474632263183594 16.171077728271484 18.403661727905273 16.029010772705078 C18.391708374023438 16.005229949951172 18.391708374023438 16.005229949951172 18.379878997802734 16.005229949951172 C18.368175506591797 16.005229949951172 18.344392776489258 16.005229949951172 18.320737838745117 16.017181396484375 C18.28525161743164 16.017181396484375 18.2613468170166 16.029136657714844 18.178422927856445 16.040714263916016 L18.154891967773438 16.040714263916016 L18.154891967773438 16.076200485229492 C18.178422927856445 16.064496994018555 18.19037437438965 16.064496994018555 18.202327728271484 16.064496994018555 C18.23781394958496 16.064496994018555 18.273298263549805 16.076200485229492 18.297204971313477 16.09998321533203 C18.332691192626953 16.14742088317871 18.39183235168457 16.348751068115234 18.427316665649414 16.526552200317383 L18.451099395751953 16.633007049560547 C18.46280288696289 16.668493270874023 18.46280288696289 16.692398071289062 18.46280288696289 16.715930938720703 C18.46280288696289 16.739713668823242 18.427316665649414 16.79885482788086 18.368175506591797 16.86982536315918 C18.30878448486328 16.941043853759766 18.273298263549805 16.964702606201172 18.249767303466797 16.964702606201172 L18.23781394958496 16.952999114990234 C18.202327728271484 16.929216384887695 18.178422927856445 16.91726303100586 18.154891967773438 16.91726303100586 C18.11940574645996 16.91726303100586 18.09549903869629 16.941043853759766 18.09549903869629 16.976655960083008 C18.09549903869629 17.024093627929688 18.119279861450195 17.05957794189453 18.166719436645508 17.05957794189453 C18.237689971923828 17.05957794189453 18.33256721496582 16.976655960083008 18.462678909301758 16.810808181762695 C18.56938362121582 16.65691375732422 18.652307510375977 16.526552200317383 18.7352294921875 16.348751068115234 C18.79462242126465 16.2183895111084 18.818153381347656 16.159122467041016 18.818153381347656 16.09998321533203 C18.818153381347656 16.040590286254883 18.782669067382812 16.005104064941406 18.7352294921875 16.005104064941406 C18.68779182434082 16.005104064941406 18.66425895690918 16.028884887695312 18.66425895690918 16.064496994018555 C18.66425895690918 16.076200485229492 18.67596435546875 16.09998321533203 18.68779182434082 16.111934661865234 L18.7352294921875 16.135465621948242 C18.747182846069336 16.14742088317871 18.75876235961914 16.17095184326172 18.75876235961914 16.182907104492188 C18.75876235961914 16.2183895111084 18.747058868408203 16.253875732421875 18.711572647094727 16.31326675415039 A1.322916030883789 1.322916030883789 0.0 0 1 18.557554244995117 16.597522735595703 L18.557554244995117 16.597522735595703 M19.30386734008789 15.625972747802734 L19.292163848876953 15.614019393920898 C19.24472427368164 15.625972747802734 19.14984893798828 15.637802124023438 19.043392181396484 15.661458969116211 L19.043392181396484 15.685239791870117 C19.12631607055664 15.685239791870117 19.14984893798828 15.696943283081055 19.14984893798828 15.720725059509277 C19.14984893798828 15.732678413391113 19.14984893798828 15.756210327148438 19.12631607055664 15.815601348876953 L18.913028717041016 16.621055603027344 L18.913028717041016 16.64483642578125 C18.913028717041016 16.7039794921875 18.948514938354492 16.739713668823242 18.995952606201172 16.739713668823242 C19.078876495361328 16.739713668823242 19.14984893798828 16.680320739746094 19.24472427368164 16.538131713867188 L19.22119140625 16.514598846435547 C19.209239959716797 16.526552200317383 19.209239959716797 16.538131713867188 19.209239959716797 16.538131713867188 C19.138019561767578 16.633007049560547 19.1025333404541 16.668493270874023 19.066925048828125 16.668493270874023 C19.054969787597656 16.668493270874023 19.043392181396484 16.656789779663086 19.043392181396484 16.633007049560547 C19.043392181396484 16.633007049560547 19.043392181396484 16.60947608947754 19.055095672607422 16.597522735595703 L19.30386734008789 15.625972747802734 M19.56458854675293 16.005104064941406 L19.541057586669922 16.005104064941406 C19.481666564941406 16.017059326171875 19.387161254882812 16.040590286254883 19.339725494384766 16.040590286254883 L19.339725494384766 16.06437110900879 L19.363258361816406 16.06437110900879 C19.446182250976562 16.06437110900879 19.458133697509766 16.087905883789062 19.481666564941406 16.19448471069336 C19.481666564941406 16.2302188873291 19.493619918823242 16.27765655517578 19.493619918823242 16.301189422607422 C19.493619918823242 16.313140869140625 19.505571365356445 16.39606475830078 19.51740074157715 16.538005828857422 L19.51740074157715 16.692150115966797 C19.51740074157715 16.739587783813477 19.52910614013672 16.751291275024414 19.540931701660156 16.751291275024414 C19.55276107788086 16.751291275024414 19.58837127685547 16.71580696105957 19.647388458251953 16.656665802001953 L19.754093170166016 16.538005828857422 C19.789579391479492 16.502521514892578 19.82506561279297 16.44338035583496 19.87250328063965 16.384113311767578 C19.955425262451172 16.253751754760742 19.99091148376465 16.170827865600586 19.99091148376465 16.099857330322266 C19.99091148376465 16.04046630859375 19.955425262451172 16.004981994628906 19.907989501953125 16.004981994628906 C19.86054801940918 16.004981994628906 19.837017059326172 16.028762817382812 19.837017059326172 16.052419662475586 C19.837017059326172 16.07607650756836 19.848970413208008 16.099857330322266 19.86054801940918 16.11180877685547 L19.896034240722656 16.147294998168945 C19.907989501953125 16.147294998168945 19.907989501953125 16.170827865600586 19.907989501953125 16.182781219482422 C19.907989501953125 16.265705108642578 19.789579391479492 16.45520782470703 19.635560989379883 16.59739875793457 L19.635560989379883 16.585445404052734 C19.63580894470215 16.360580444335938 19.600074768066406 16.159000396728516 19.56458854675293 16.005104064941406 M20.642845153808594 16.088027954101562 C20.630891799926758 16.028884887695312 20.583452224731445 16.005104064941406 20.512481689453125 16.005104064941406 C20.382122039794922 16.005104064941406 20.228225708007812 16.12351417541504 20.121397018432617 16.28936195373535 C20.073959350585938 16.38423728942871 20.050426483154297 16.467159271240234 20.050426483154297 16.55008316040039 C20.050426483154297 16.668493270874023 20.109569549560547 16.739713668823242 20.20431900024414 16.739713668823242 C20.26371192932129 16.739713668823242 20.322729110717773 16.715930938720703 20.382122039794922 16.680320739746094 C20.417606353759766 16.64483642578125 20.42955780029297 16.632884979248047 20.524185180664062 16.514474868774414 L20.53614044189453 16.490694046020508 L20.53614044189453 16.514474868774414 C20.524185180664062 16.57386589050293 20.51260757446289 16.609350204467773 20.51260757446289 16.620929718017578 C20.500654220581055 16.632884979248047 20.500654220581055 16.644712448120117 20.500654220581055 16.668367385864258 C20.500654220581055 16.71580696105957 20.524185180664062 16.739587783813477 20.571624755859375 16.739587783813477 C20.63101577758789 16.739587783813477 20.678329467773438 16.703853607177734 20.784910202026367 16.573741912841797 L20.796863555908203 16.56178855895996 L20.773330688476562 16.538005828857422 L20.690406799316406 16.620929718017578 C20.6666259765625 16.644712448120117 20.654672622680664 16.656665802001953 20.642969131469727 16.656665802001953 C20.63101577758789 16.656665802001953 20.619186401367188 16.644712448120117 20.619186401367188 16.620929718017578 C20.619186401367188 16.620929718017578 20.631141662597656 16.60922622680664 20.631141662597656 16.585445404052734 L20.6666259765625 16.431550979614258 L20.773330688476562 16.004981994628906 L20.713939666748047 16.004981994628906 L20.67845344543457 16.01693344116211 L20.666500091552734 16.01693344116211 L20.642845153808594 16.088027954101562 M20.512481689453125 16.040590286254883 L20.524185180664062 16.040590286254883 C20.58357810974121 16.040590286254883 20.619064331054688 16.07607650756836 20.619064331054688 16.147294998168945 C20.619064331054688 16.2302188873291 20.571624755859375 16.3486270904541 20.51260757446289 16.467037200927734 C20.44163703918457 16.585445404052734 20.358463287353516 16.656665802001953 20.287368774414062 16.656665802001953 C20.228225708007812 16.656665802001953 20.19249153137207 16.60922622680664 20.19249153137207 16.54996109008789 C20.19249153137207 16.431550979614258 20.25188446044922 16.265705108642578 20.334808349609375 16.147294998168945 C20.394073486328125 16.088027954101562 20.453216552734375 16.040590286254883 20.512481689453125 16.040590286254883 M21.175870895385742 16.005104064941406 L20.915145874023438 16.05254364013672 L20.915145874023438 16.07607650756836 L20.927101135253906 16.07607650756836 C20.98649024963379 16.07607650756836 21.010025024414062 16.088027954101562 21.010025024414062 16.12351417541504 L21.010025024414062 16.17095184326172 L20.98649024963379 16.241924285888672 L20.856128692626953 16.715930938720703 L20.98649024963379 16.715930938720703 L20.98649024963379 16.7039794921875 C21.021976470947266 16.585569381713867 21.04563331604004 16.50264549255371 21.05746078491211 16.478988647460938 C21.069414138793945 16.443504333496094 21.092947006225586 16.40802001953125 21.11660385131836 16.3486270904541 C21.21147918701172 16.19448471069336 21.31818389892578 16.087905883789062 21.37732696533203 16.087905883789062 A0.051048994064331055 0.051048994064331055 0.0 0 1 21.42476463317871 16.13534164428711 C21.42476463317871 16.147294998168945 21.412813186645508 16.19448471069336 21.401233673095703 16.241798400878906 L21.389278411865234 16.301189422607422 L21.32988929748535 16.526426315307617 L21.306354522705078 16.585569381713867 C21.306354522705078 16.621055603027344 21.294403076171875 16.633007049560547 21.294403076171875 16.656789779663086 C21.294403076171875 16.7039794921875 21.32988929748535 16.739713668823242 21.37732696533203 16.739713668823242 C21.44854736328125 16.739713668823242 21.49573516845703 16.7039794921875 21.590612411499023 16.561912536621094 L21.60256576538086 16.54996109008789 L21.578784942626953 16.526426315307617 C21.507814407348633 16.621055603027344 21.472328186035156 16.656789779663086 21.448671340942383 16.656789779663086 C21.436717987060547 16.656789779663086 21.424890518188477 16.64483642578125 21.424890518188477 16.633007049560547 L21.424890518188477 16.60947608947754 C21.424890518188477 16.597522735595703 21.436843872070312 16.585693359375 21.436843872070312 16.573989868164062 L21.531719207763672 16.230342864990234 C21.54342269897461 16.182907104492188 21.555252075195312 16.123638153076172 21.555252075195312 16.111934661865234 C21.555252075195312 16.040714263916016 21.519765853881836 16.005229949951172 21.448795318603516 16.005229949951172 C21.413063049316406 16.005229949951172 21.389404296875 16.017181396484375 21.365873336791992 16.029010772705078 C21.294652938842773 16.064496994018555 21.223556518554688 16.135465621948242 21.164291381835938 16.2183895111084 L21.093318939208984 16.324848175048828 L21.08136749267578 16.3486270904541 L21.188072204589844 16.004981994628906 L21.175870895385742 16.004981994628906 L21.175870895385742 16.005104064941406 M21.993526458740234 15.661458969116211 C21.946086883544922 15.661458969116211 21.922306060791016 15.696943283081055 21.922306060791016 15.744380950927734 C21.922306060791016 15.791820526123047 21.946086883544922 15.82730484008789 21.993526458740234 15.82730484008789 C22.040714263916016 15.82730484008789 22.07645034790039 15.791820526123047 22.07645034790039 15.744380950927734 C22.07645034790039 15.696943283081055 22.040714263916016 15.661458969116211 21.993526458740234 15.661458969116211 M22.017059326171875 16.005104064941406 C21.93413543701172 16.017059326171875 21.827678680419922 16.040590286254883 21.756332397460938 16.040590286254883 L21.756332397460938 16.07607650756836 L21.803773880004883 16.07607650756836 C21.839256286621094 16.07607650756836 21.851211547851562 16.088027954101562 21.851211547851562 16.11180877685547 L21.851211547851562 16.147294998168945 L21.827678680419922 16.206438064575195 L21.7445068359375 16.514598846435547 C21.7445068359375 16.526552200317383 21.7445068359375 16.538131713867188 21.732803344726562 16.56203842163086 C21.732803344726562 16.597522735595703 21.720849990844727 16.633007049560547 21.720849990844727 16.65691375732422 C21.720849990844727 16.7041015625 21.756332397460938 16.739837646484375 21.803773880004883 16.739837646484375 C21.874744415283203 16.739837646484375 21.946086883544922 16.680444717407227 22.029010772705078 16.550209045410156 L22.005229949951172 16.53825569152832 L21.993526458740234 16.550209045410156 C21.946086883544922 16.621179580688477 21.898649215698242 16.65691375732422 21.874868392944336 16.65691375732422 C21.863162994384766 16.65691375732422 21.851333618164062 16.65691375732422 21.851333618164062 16.633132934570312 L21.851333618164062 16.597646713256836 L21.886821746826172 16.502771377563477 L22.017059326171875 16.005104064941406 L22.017059326171875 16.005104064941406 M22.715930938720703 16.088027954101562 C22.704227447509766 16.028884887695312 22.656789779663086 16.005104064941406 22.585819244384766 16.005104064941406 C22.455455780029297 16.005104064941406 22.301315307617188 16.12351417541504 22.20668601989746 16.28936195373535 C22.147296905517578 16.38423728942871 22.123512268066406 16.467159271240234 22.123512268066406 16.55008316040039 C22.123512268066406 16.668493270874023 22.182905197143555 16.739713668823242 22.289609909057617 16.739713668823242 C22.348752975463867 16.739713668823242 22.40802001953125 16.715930938720703 22.455455780029297 16.680320739746094 C22.490942001342773 16.64483642578125 22.50289535522461 16.632884979248047 22.597522735595703 16.514474868774414 L22.609474182128906 16.490694046020508 L22.609474182128906 16.514474868774414 C22.597522735595703 16.57386589050293 22.5859432220459 16.609350204467773 22.5859432220459 16.620929718017578 C22.5859432220459 16.632884979248047 22.573989868164062 16.644712448120117 22.573989868164062 16.668367385864258 C22.573989868164062 16.71580696105957 22.597522735595703 16.739587783813477 22.644962310791016 16.739587783813477 C22.70435333251953 16.739587783813477 22.751665115356445 16.703853607177734 22.858245849609375 16.573741912841797 L22.870201110839844 16.56178855895996 L22.846416473388672 16.538005828857422 C22.810932159423828 16.573741912841797 22.787277221679688 16.59739875793457 22.763492584228516 16.620929718017578 C22.751789093017578 16.644712448120117 22.728008270263672 16.656665802001953 22.71605682373047 16.656665802001953 C22.70435333251953 16.656665802001953 22.70435333251953 16.644712448120117 22.70435333251953 16.620929718017578 L22.70435333251953 16.585445404052734 L22.739837646484375 16.431550979614258 L22.858245849609375 16.004981994628906 L22.787151336669922 16.004981994628906 L22.763370513916016 16.01693344116211 L22.739837646484375 16.01693344116211 L22.715930938720703 16.088027954101562 M22.585819244384766 16.040590286254883 L22.597522735595703 16.040590286254883 C22.65691375732422 16.040590286254883 22.692398071289062 16.07607650756836 22.692398071289062 16.147294998168945 C22.692398071289062 16.2302188873291 22.65691375732422 16.3486270904541 22.5859432220459 16.467037200927734 C22.51472282409668 16.585445404052734 22.431800842285156 16.656665802001953 22.36070442199707 16.656665802001953 C22.301315307617188 16.656665802001953 22.26582908630371 16.60922622680664 22.26582908630371 16.54996109008789 C22.26582908630371 16.431550979614258 22.325218200683594 16.265705108642578 22.419723510742188 16.147294998168945 C22.4671630859375 16.088027954101562 22.52655029296875 16.040590286254883 22.585819244384766 16.040590286254883 M1.0588302612304688 13.161800384521484 L22.905683517456055 13.161800384521484 L22.905683517456055 13.315694808959961 L1.0588302612304688 13.315694808959961 L1.0588302612304688 13.161800384521484 M1.0588302612304688 10.460437774658203 L1.0588302612304688 7.557866096496582 L2.527921676635742 7.557866096496582 L2.527921676635742 10.460437774658203 L3.6146421432495117 12.372657775878906 L3.863661766052246 11.999378204345703 L2.94266414642334 10.413124084472656 L2.94266414642334 7.557866096496582 L4.399925708770752 7.557866096496582 L4.399925708770752 10.377513885498047 L5.570690631866455 12.371164321899414 L5.778870582580566 12.05864429473877 L4.814542770385742 10.412999153137207 L4.814542770385742 7.557866096496582 L6.283633232116699 7.557866096496582 L6.283633232116699 10.460437774658203 L7.515781402587891 12.6168212890625 L6.105833530426025 12.6168212890625 L5.923052787780762 12.304551124572754 L5.71487283706665 12.6168212890625 L4.22212553024292 12.6168212890625 L4.007096767425537 12.246156692504883 L3.7600698471069336 12.6168212890625 L3.753345489501953 12.6168212890625 L3.7600698471069336 12.628525733947754 L2.3028078079223633 12.628525733947754 L1.0588302612304688 10.460437774658203 M21.827678680419922 12.6168212890625 L21.827678680419922 9.216461181640625 A0.15688227117061615 0.15688227117061615 0.0 0 0 21.673534393310547 9.062442779541016 C21.580402374267578 9.062442779541016 21.52126121520996 9.131420135498047 21.519641876220703 9.212724685668945 L21.519641876220703 12.6168212890625 L20.429683685302734 12.6168212890625 L20.429683685302734 8.529291152954102 L21.519641876220703 8.529291152954102 L21.519641876220703 8.601507186889648 A0.8780426979064941 0.8780426979064941 0.0 0 1 22.017181396484375 8.446367263793945 C22.503021240234375 8.446367263793945 22.90580940246582 8.849156379699707 22.90580940246582 9.334869384765625 L22.90580940246582 12.616697311401367 L21.827678680419922 12.616697311401367 L21.827678680419922 12.6168212890625 L21.827678680419922 12.6168212890625 M18.687915802001953 11.94135570526123 C18.687915802001953 12.024279594421387 18.74730682373047 12.09537410736084 18.842060089111328 12.09537410736084 C18.924983978271484 12.09537410736084 18.995952606201172 12.024279594421387 18.995952606201172 11.94135570526123 L18.995952606201172 9.251945495605469 C18.995952606201172 9.16889762878418 18.924983978271484 9.09792709350586 18.842060089111328 9.09792709350586 C18.747182846069336 9.09792709350586 18.687915802001953 9.16889762878418 18.687915802001953 9.251945495605469 L18.687915802001953 11.94135570526123 M17.57430076599121 9.145364761352539 A0.6118409037590027 0.6118409037590027 0.0 0 1 18.190250396728516 8.529291152954102 L19.493494033813477 8.529291152954102 C19.82518768310547 8.529291152954102 20.10944366455078 8.801718711853027 20.10944366455078 9.145364761352539 L20.10944366455078 12.000622749328613 C20.10944366455078 12.344269752502441 19.82518768310547 12.6168212890625 19.493494033813477 12.6168212890625 L18.190250396728516 12.6168212890625 A0.6117163896560669 0.6117163896560669 0.0 0 1 17.57430076599121 12.000622749328613 L17.57430076599121 9.145364761352539 L17.57430076599121 9.145364761352539 M15.797174453735352 12.059889793395996 L15.797174453735352 7.593351364135742 L16.910663604736328 7.593351364135742 L16.910663604736328 8.529415130615234 L17.455644607543945 8.529415130615234 L17.455644607543945 8.991470336914062 L16.910663604736328 8.991470336914062 L16.910663604736328 11.657100677490234 L17.491376876831055 12.628525733947754 L16.140697479248047 12.628525733947754 L15.797174453735352 12.059889793395996 L15.797174453735352 12.059889793395996 M13.273611068725586 12.6168212890625 L13.273611068725586 8.529291152954102 L14.979517936706543 8.529291152954102 A0.6118409037590027 0.6118409037590027 0.0 0 1 15.595717430114746 9.145364761352539 L15.595717430114746 9.998381614685059 L14.671606063842773 10.377513885498047 L14.671606063842773 9.216461181640625 C14.671606063842773 9.133537292480469 14.600386619567871 9.062442779541016 14.517462730407715 9.062442779541016 C14.434539794921875 9.062442779541016 14.363569259643555 9.133537292480469 14.363569259643555 9.216461181640625 L14.363569259643555 12.628525733947754 L13.273611068725586 12.6168212890625 L13.273611068725586 12.6168212890625 M11.922928810119629 9.97435188293457 L10.821142196655273 10.567017555236816 C10.596028327941895 10.685426712036133 10.453838348388672 10.922368049621582 10.453838348388672 11.18309211730957 L10.453838348388672 11.775383949279785 C10.453838348388672 12.284753799438477 10.868579864501953 12.699620246887207 11.377949714660645 12.699620246887207 A0.9412936568260193 0.9412936568260193 0.0 0 0 11.922928810119629 12.527671813964844 L11.922928810119629 12.628400802612305 L13.083982467651367 12.628400802612305 L13.083982467651367 9.216461181640625 C13.083982467651367 8.83732795715332 12.776069641113281 8.529291152954102 12.385108947753906 8.529291152954102 L11.152959823608398 8.529291152954102 C10.76187515258789 8.529291152954102 10.453962326049805 8.83732795715332 10.453962326049805 9.216461181640625 L10.453962326049805 10.188009262084961 L11.61501693725586 9.571935653686523 L11.61501693725586 9.180974960327148 C11.61501693725586 9.098051071166992 11.686111450195312 9.026956558227539 11.769035339355469 9.026956558227539 C11.851958274841309 9.026956558227539 11.923053741455078 9.098051071166992 11.923053741455078 9.180974960327148 L11.923053741455078 9.97435188293457 L11.922928810119629 9.97435188293457 L11.922928810119629 9.97435188293457 M11.922928810119629 11.846604347229004 C11.922928810119629 11.929527282714844 11.851834297180176 12.000622749328613 11.76891040802002 12.000622749328613 C11.685986518859863 12.000622749328613 11.61489200592041 11.929527282714844 11.61489200592041 11.846604347229004 L11.61489200592041 10.732989311218262 L11.922928810119629 10.578969955444336 L11.922928810119629 11.846604347229004 L11.922928810119629 11.846604347229004 M9.138766288757324 12.6168212890625 L9.138766288757324 9.216461181640625 A0.15688227117061615 0.15688227117061615 0.0 0 0 8.984747886657715 9.062442779541016 C8.903068542480469 9.062442779541016 8.832845687866211 9.131420135498047 8.830729484558105 9.212724685668945 L8.830729484558105 12.6168212890625 L7.669800281524658 12.6168212890625 L7.669800281524658 7.64078950881958 L8.830854415893555 7.64078950881958 L8.830854415893555 8.606611251831055 A0.9145240187644958 0.9145240187644958 0.0 0 1 9.292909622192383 8.481977462768555 A0.9305858016014099 0.9305858016014099 0.0 0 1 10.228973388671875 9.418041229248047 L10.228973388671875 12.61694622039795 L9.138766288757324 12.61694622039795 L9.138766288757324 12.6168212890625" fill="black" fill-opacity="1.0" filling="0"/></svg>