<?xml version="1.0" encoding="iso-8859-1"?><svg height="200px" viewBox="0.0 0.0 24.0 24.0" width="200px" xmlns="http://www.w3.org/2000/svg"><path animation_id="0" d="M0.0 0.0 L24.0 0.0 L24.0 24.0 L0.0 24.0 L0.0 0.0" fill="black" fill-opacity="1.0" filling="0"/>
<path animation_id="1" d="M2.957479476928711 4.5040154457092285 C2.727884292602539 4.0176801681518555 2.511734962463379 3.5180225372314453 2.282139778137207 3.018239974975586 L2.0930089950561523 3.018239974975586 C1.9444684982299805 3.3693580627441406 1.795928955078125 3.6800098419189453 1.6608352661132812 3.977214813232422 C1.5258665084838867 4.2745442390441895 1.444685935974121 4.449978351593018 1.4042205810546875 4.517462730407715 L1.6203699111938477 4.625537395477295 C1.6338167190551758 4.585071563720703 1.6608352661132812 4.531033992767334 1.7013015747070312 4.43640661239624 C1.7417669296264648 4.3417792320251465 1.795928955078125 4.220257759094238 1.8768596649169922 4.058145999908447 L2.4845924377441406 4.058145999908447 C2.5520763397216797 4.206810474395752 2.60623836517334 4.328332424163818 2.646702766418457 4.422835350036621 C2.687169075012207 4.530909538269043 2.714188575744629 4.584947109222412 2.72775936126709 4.625412464141846 L2.957479476928711 4.5040154457092285 L2.957479476928711 4.5040154457092285 M2.4172325134277344 3.855693817138672 L1.9580402374267578 3.855693817138672 C2.025524139404297 3.6935815811157227 2.1065807342529297 3.5314693450927734 2.1740646362304688 3.3693580627441406 C2.2145309448242188 3.4638614654541016 2.255120277404785 3.545041084289551 2.282139778137207 3.6125259399414062 C2.336176872253418 3.7071533203125 2.3631954193115234 3.8016557693481445 2.4172325134277344 3.855693817138672 M3.997509002685547 4.598518371582031 L3.984063148498535 4.247400760650635 L3.984063148498535 3.82867431640625 C3.984063148498535 3.5180225372314453 3.997509002685547 3.20749568939209 3.997509002685547 2.9102907180786133 L3.7543420791625977 2.9102907180786133 L3.7543420791625977 3.4100732803344727 C3.376206398010254 3.423520088195801 2.9709272384643555 3.5856313705444336 2.9709272384643555 4.031376361846924 C2.9709272384643555 4.247400760650635 3.106019973754883 4.409512996673584 3.2951507568359375 4.5041399002075195 C3.484280586242676 4.598642826080322 3.6598386764526367 4.598642826080322 3.862417221069336 4.598642826080322 L3.997509002685547 4.598642826080322 L3.997509002685547 4.598518371582031 M3.7543420791625977 3.8016557693481445 L3.7543420791625977 4.395941257476807 C3.5247459411621094 4.395941257476807 3.214095115661621 4.301313877105713 3.214095115661621 4.031251907348633 C3.214095115661621 3.720600128173828 3.4977283477783203 3.6260976791381836 3.7543420791625977 3.6260976791381836 L3.7543420791625977 3.8016557693481445 L3.7543420791625977 3.8016557693481445 M5.321172714233398 3.4639854431152344 L5.118595600128174 3.383053779602051 C5.118595600128174 3.383053779602051 4.821390628814697 4.098860740661621 4.7674784660339355 4.260972499847412 L4.389217376708984 3.36948299407959 L4.159621715545654 3.4775571823120117 C4.2811431884765625 3.7476186752319336 4.389217376708984 3.977214813232422 4.4972920417785645 4.206934928894043 C4.591794967651367 4.436531066894531 4.645832061767578 4.558053016662598 4.6594038009643555 4.585071563720703 L4.834962368011475 4.585071563720703 C4.848409175872803 4.558053016662598 4.902446746826172 4.436531066894531 5.010521411895752 4.1797919273376465 L5.321172714233398 3.4639854431152344 L5.321172714233398 3.4639854431152344 M6.320488452911377 4.368922710418701 C6.334060192108154 4.247276306152344 6.320488452911377 4.09873628616333 6.320488452911377 3.923053741455078 C6.320488452911377 3.8151025772094727 6.320488452911377 3.7340469360351562 6.2934699058532715 3.666438102722168 C6.212538242340088 3.436717987060547 5.982817649841309 3.396376609802246 5.766793727874756 3.396376609802246 L5.537197589874268 3.396376609802246 L5.510179042816162 3.612401008605957 C5.59123420715332 3.612401008605957 5.658719062805176 3.598954200744629 5.726327896118164 3.598954200744629 C5.888439178466797 3.598954200744629 6.063998222351074 3.612401008605957 6.0910162925720215 3.8015308380126953 C5.834402084350586 3.828550338745117 5.388781547546387 3.882587432861328 5.388781547546387 4.220257759094238 C5.388781547546387 4.517337799072266 5.712880611419678 4.598518371582031 5.956048011779785 4.598518371582031 C6.077569961547852 4.598518371582031 6.199215888977051 4.598518371582031 6.320612907409668 4.585071563720703 L6.320612907409668 4.368922710418701 L6.320488452911377 4.368922710418701 M6.090892314910889 4.409512996673584 L6.009836673736572 4.409512996673584 C5.8747429847717285 4.409512996673584 5.631575584411621 4.396065711975098 5.631575584411621 4.220382213592529 C5.631575584411621 4.031376361846924 5.9692463874816895 4.004358291625977 6.090767860412598 4.004358291625977 L6.090767860412598 4.409512996673584 L6.090892314910889 4.409512996673584 M7.617257595062256 4.585071563720703 L7.617257595062256 4.395941257476807 L7.617257595062256 4.139202117919922 L7.617257595062256 3.7340469360351562 C7.617257595062256 3.5314693450927734 7.482163906097412 3.382929801940918 7.26601505279541 3.382929801940918 C7.144369125366211 3.382929801940918 6.9553632736206055 3.450413703918457 6.874307155609131 3.545041084289551 L6.874307155609131 3.4099483489990234 L6.6312642097473145 3.4099483489990234 C6.644835948944092 3.5584888458251953 6.644835948944092 3.666563034057617 6.644835948944092 3.761066436767578 L6.644835948944092 4.409388542175293 L6.6312642097473145 4.584947109222412 L6.874307155609131 4.584947109222412 L6.874307155609131 4.355350971221924 L6.874307155609131 4.058145999908447 L6.874307155609131 3.720600128173828 C6.9554877281188965 3.6800098419189453 7.104028224945068 3.598954200744629 7.211977958679199 3.598954200744629 C7.2795867919921875 3.598954200744629 7.320052623748779 3.612401008605957 7.333499431610107 3.6395444869995117 C7.387660980224609 3.707029342651367 7.37408971786499 3.882711410522461 7.387660980224609 3.9636430740356445 L7.387660980224609 4.139202117919922 C7.387660980224609 4.2877421379089355 7.387660980224609 4.43640661239624 7.37408971786499 4.584947109222412 L7.617257595062256 4.584947109222412 L7.617257595062256 4.585071563720703 L7.617257595062256 4.585071563720703 M8.19797134399414 3.261408805847168 L8.19797134399414 3.004794120788574 L7.927908897399902 3.004794120788574 L7.927908897399902 3.261408805847168 L8.19797134399414 3.261408805847168 M8.184399604797363 4.585071563720703 L8.184399604797363 4.395941257476807 C8.170951843261719 4.287866592407227 8.170951843261719 4.152773857116699 8.170951843261719 3.977214813232422 C8.170951843261719 3.7882080078125 8.184399604797363 3.5990781784057617 8.184399604797363 3.4099483489990234 L7.9412312507629395 3.4099483489990234 L7.9412312507629395 4.585071563720703 L8.184399604797363 4.585071563720703 M9.967254638671875 4.139326572418213 C9.967254638671875 3.8961591720581055 9.77812385559082 3.7746381759643555 9.575546264648438 3.693706512451172 C9.48091983795166 3.639669418334961 9.318931579589844 3.5720605850219727 9.318931579589844 3.4505386352539062 C9.318931579589844 3.2884273529052734 9.521385192871094 3.2479610443115234 9.643030166625977 3.2479610443115234 C9.737658500671387 3.2479610443115234 9.832160949707031 3.261408805847168 9.926663398742676 3.261408805847168 L9.913091659545898 3.045259475708008 C9.832036972045898 3.0318117141723633 9.737533569335938 3.0318117141723633 9.656477928161621 3.0318117141723633 C9.575422286987305 3.0318117141723633 9.494365692138672 3.0318117141723633 9.426881790161133 3.058831214904785 C9.22430419921875 3.112868309020996 9.075763702392578 3.261408805847168 9.075763702392578 3.4639854431152344 C9.075763702392578 3.545041084289551 9.089336395263672 3.6125259399414062 9.129800796508789 3.666563034057617 C9.22430419921875 3.828550338745117 9.427005767822266 3.882711410522461 9.575546264648438 3.977214813232422 C9.656601905822754 4.017805576324463 9.710638999938965 4.071842193603516 9.710638999938965 4.166345119476318 C9.710638999938965 4.247400760650635 9.670049667358398 4.301438331604004 9.60256576538086 4.328456878662109 C9.535080909729004 4.369047164916992 9.386540412902832 4.382369518280029 9.318931579589844 4.382369518280029 C9.22430419921875 4.382369518280029 9.129800796508789 4.382369518280029 9.035299301147461 4.369047164916992 L9.048870086669922 4.585071563720703 C9.129800796508789 4.598518371582031 9.2244291305542 4.598518371582031 9.305484771728516 4.598518371582031 C9.521509170532227 4.598518371582031 9.77812385559082 4.54448127746582 9.913216590881348 4.355350971221924 C9.940235137939453 4.287866592407227 9.967254638671875 4.220382213592529 9.967254638671875 4.139326572418213 L9.967254638671875 4.139326572418213 M11.209860801696777 4.585071563720703 C11.196414947509766 4.436531066894531 11.196414947509766 4.287866592407227 11.196414947509766 4.139326572418213 L11.196414947509766 3.7341718673706055 C11.196414947509766 3.5315942764282227 11.07476806640625 3.383053779602051 10.858743667602539 3.383053779602051 C10.723650932312012 3.383053779602051 10.561538696289062 3.4505386352539062 10.467036247253418 3.5315942764282227 L10.467036247253418 2.9102907180786133 L10.223868370056152 2.9102907180786133 L10.223868370056152 3.383053779602051 C10.23744010925293 3.5180225372314453 10.23744010925293 3.6262216567993164 10.23744010925293 3.707278251647949 C10.23744010925293 4.004358291625977 10.23744010925293 4.287991046905518 10.223868370056152 4.585196018218994 L10.467036247253418 4.585196018218994 L10.467036247253418 3.7208499908447266 C10.54809284210205 3.6802587509155273 10.696632385253906 3.599203109741211 10.791259765625 3.599203109741211 C10.872190475463867 3.599203109741211 10.912781715393066 3.612649917602539 10.926352500915527 3.6397933959960938 C10.980390548706055 3.707278251647949 10.966818809509277 3.882960319519043 10.966818809509277 3.9638919830322266 L10.966818809509277 4.585196018218994 L11.209860801696777 4.585196018218994 L11.209860801696777 4.585071563720703 L11.209860801696777 4.585071563720703 M12.344518661499023 4.368922710418701 L12.344518661499023 3.923053741455078 C12.344518661499023 3.8151025772094727 12.344518661499023 3.7340469360351562 12.317500114440918 3.666438102722168 C12.222872734069824 3.436717987060547 12.006848335266113 3.396376609802246 11.790699005126953 3.396376609802246 L11.560978889465332 3.396376609802246 L11.533960342407227 3.612401008605957 C11.601569175720215 3.612401008605957 11.682500839233398 3.598954200744629 11.750109672546387 3.598954200744629 C11.898774147033691 3.598954200744629 12.07420825958252 3.612401008605957 12.114923477172852 3.8015308380126953 C11.858183860778809 3.828550338745117 11.41243839263916 3.882587432861328 11.41243839263916 4.220257759094238 C11.41243839263916 4.517337799072266 11.736661911010742 4.598518371582031 11.979704856872559 4.598518371582031 C12.101226806640625 4.598518371582031 12.222872734069824 4.598518371582031 12.344393730163574 4.585071563720703 L12.344393730163574 4.368922710418701 L12.344518661499023 4.368922710418701 L12.344518661499023 4.368922710418701 M12.114923477172852 4.409512996673584 L12.020171165466309 4.409512996673584 C11.898649215698242 4.409512996673584 11.655481338500977 4.396065711975098 11.655481338500977 4.220382213592529 C11.655481338500977 4.031376361846924 11.993027687072754 4.004358291625977 12.114798545837402 4.004358291625977 L12.114798545837402 4.409512996673584 L12.114923477172852 4.409512996673584 L12.114923477172852 4.409512996673584 M13.370977401733398 3.585507392883301 L13.330387115478516 3.3693580627441406 C13.208740234375 3.4099483489990234 12.979269027709961 3.490880012512207 12.898214340209961 3.571934700012207 L12.898214340209961 3.4098243713378906 L12.655046463012695 3.4098243713378906 C12.668617248535156 3.6259727478027344 12.668617248535156 3.8419971466064453 12.668617248535156 4.071593284606934 C12.668617248535156 4.247151851654053 12.655046463012695 4.409263610839844 12.655046463012695 4.584822654724121 L12.898214340209961 4.584822654724121 L12.898214340209961 4.044574737548828 L12.898214340209961 3.7743892669677734 C13.046753883361816 3.693706512451172 13.208740234375 3.6262216567993164 13.370977401733398 3.585507392883301 M14.43802547454834 3.9906625747680664 C14.43802547454834 3.855693817138672 14.424453735351562 3.7746381759643555 14.397436141967773 3.6935815811157227 C14.329826354980469 3.477433204650879 14.167839050292969 3.382929801940918 13.951690673828125 3.382929801940918 C13.614145278930664 3.382929801940918 13.411317825317383 3.666563034057617 13.411317825317383 3.977090835571289 C13.411317825317383 4.071717739105225 13.42488956451416 4.152773857116699 13.451908111572266 4.220257759094238 C13.587125778198242 4.5040154457092285 13.843615531921387 4.584947109222412 14.127248764038086 4.584947109222412 C14.194857597351074 4.584947109222412 14.26221752166748 4.584947109222412 14.329826354980469 4.571499824523926 L14.356844902038574 4.368922710418701 C14.289484977722168 4.368922710418701 14.22187614440918 4.382245063781738 14.140695571899414 4.382245063781738 C14.073336601257324 4.382245063781738 14.005727767944336 4.368922710418701 13.951690673828125 4.355350971221924 C13.776131629943848 4.314760684967041 13.654485702514648 4.1796674728393555 13.641162872314453 3.9906625747680664 L14.43802547454834 3.9906625747680664 M14.194857597351074 3.8016557693481445 L13.668182373046875 3.8016557693481445 C13.708771705627441 3.66668701171875 13.789827346801758 3.5720605850219727 13.93836784362793 3.5720605850219727 C14.019299507141113 3.5720605850219727 14.073336601257324 3.5990781784057617 14.113926887512207 3.6395444869995117 C14.154268264770508 3.6801347732543945 14.181161880493164 3.7341718673706055 14.194857597351074 3.8016557693481445 M16.396438598632812 4.112308025360107 C16.396438598632812 3.923177719116211 16.27479362487793 3.7882080078125 16.085662841796875 3.7341718673706055 C16.193862915039062 3.66668701171875 16.274917602539062 3.558612823486328 16.274917602539062 3.423520088195801 C16.274917602539062 3.0858497619628906 15.910103797912598 3.0318117141723633 15.653614044189453 3.0318117141723633 C15.531968116760254 3.0318117141723633 15.410446166992188 3.045259475708008 15.28904914855957 3.045259475708008 L15.28904914855957 3.274855613708496 C15.302371978759766 3.3965015411376953 15.302371978759766 3.5720605850219727 15.302371978759766 3.7882080078125 C15.302371978759766 4.04482364654541 15.302371978759766 4.314885139465332 15.28904914855957 4.571624279022217 C15.424017906188965 4.585071563720703 15.54566478729248 4.585071563720703 15.680633544921875 4.585071563720703 C15.775259971618652 4.585071563720703 15.869887351989746 4.585071563720703 15.950818061828613 4.558053016662598 C16.180166244506836 4.517462730407715 16.396438598632812 4.382369518280029 16.396438598632812 4.112308025360107 M16.153146743774414 4.125755310058594 C16.153146743774414 4.368922710418701 15.815601348876953 4.368922710418701 15.639793395996094 4.368922710418701 C15.612774848937988 4.368922710418701 15.585756301879883 4.382245063781738 15.572433471679688 4.368922710418701 L15.531844139099121 4.368922710418701 L15.531844139099121 4.193239212036133 L15.531844139099121 3.8151025772094727 L15.531844139099121 3.558363914489746 C15.531844139099121 3.450289726257324 15.531844139099121 3.3422155380249023 15.545414924621582 3.2477121353149414 L15.653365135192871 3.2477121353149414 C15.801905632019043 3.2477121353149414 16.018177032470703 3.261159896850586 16.018177032470703 3.450289726257324 C16.018177032470703 3.490756034851074 16.004608154296875 3.5177736282348633 15.990911483764648 3.558363914489746 C15.923551559448242 3.6798858642578125 15.77501106262207 3.69345760345459 15.653365135192871 3.69345760345459 L15.680383682250977 3.882587432861328 L15.855942726135254 3.882587432861328 C15.977588653564453 3.882587432861328 16.08553695678711 3.923053741455078 16.126129150390625 4.031127452850342 C16.13982391357422 4.0582709312438965 16.153146743774414 4.085289478302002 16.153146743774414 4.125755310058594 L16.153146743774414 4.125755310058594 M17.368860244750977 3.585507392883301 L17.328269958496094 3.3693580627441406 C17.20662498474121 3.4099483489990234 16.977153778076172 3.490880012512207 16.89609718322754 3.571934700012207 L16.89609718322754 3.4098243713378906 L16.666500091552734 3.4098243713378906 L16.666500091552734 4.584822654724121 L16.89609718322754 4.584822654724121 L16.89609718322754 4.044574737548828 L16.89609718322754 3.7743892669677734 C17.044761657714844 3.693706512451172 17.20662498474121 3.6262216567993164 17.368860244750977 3.585507392883301 M18.55730628967285 3.9906625747680664 C18.55730628967285 3.653116226196289 18.341407775878906 3.382929801940918 17.989913940429688 3.382929801940918 C17.90898323059082 3.382929801940918 17.827926635742188 3.396376609802246 17.760318756103516 3.423396110534668 C17.530723571777344 3.5178985595703125 17.409202575683594 3.747494697570801 17.409202575683594 3.9906625747680664 C17.409202575683594 4.328332424163818 17.625350952148438 4.612090110778809 17.976593017578125 4.612090110778809 C18.21976089477539 4.612090110778809 18.42233657836914 4.476996898651123 18.503267288208008 4.247400760650635 C18.543983459472656 4.166220664978027 18.55730628967285 4.085289478302002 18.55730628967285 3.9906625747680664 M18.314138412475586 4.004232883453369 C18.314138412475586 4.206810474395752 18.206188201904297 4.409388542175293 17.976593017578125 4.409388542175293 C17.76044464111328 4.409388542175293 17.652368545532227 4.193239212036133 17.652368545532227 3.9906625747680664 C17.652368545532227 3.923177719116211 17.66594123840332 3.869140625 17.67938804626465 3.815227508544922 C17.73342514038086 3.6801347732543945 17.827926635742188 3.585507392883301 17.989913940429688 3.585507392883301 C18.125133514404297 3.585507392883301 18.233081817626953 3.6800098419189453 18.287120819091797 3.815227508544922 C18.300689697265625 3.869264602661133 18.314138412475586 3.9367494583129883 18.314138412475586 4.004232883453369 M19.8133602142334 4.531033992767334 C19.6513729095459 4.355475425720215 19.52985191345215 4.220382213592529 19.421775817871094 4.112308025360107 C19.421775817871094 4.112308025360107 19.313579559326172 3.9906625747680664 19.273237228393555 3.9637680053710938 L19.435222625732422 3.8153514862060547 L19.73242950439453 3.5181474685668945 L19.58388900756836 3.3696069717407227 C19.47593879699707 3.477682113647461 19.36798858642578 3.599203109741211 19.232770919799805 3.7342958450317383 C19.097803115844727 3.869389533996582 19.016620635986328 3.950320243835449 18.98960304260254 3.977339744567871 L18.98960304260254 4.004358291625977 C19.21944808959961 4.220382213592529 19.44891929626465 4.450102806091309 19.665193557739258 4.666127681732178 L19.8133602142334 4.531033992767334 L19.8133602142334 4.531033992767334 M19.016372680664062 4.585071563720703 L19.016372680664062 4.166345119476318 L19.016372680664062 3.3965015411376953 L19.016372680664062 2.9102907180786133 L18.773456573486328 2.9102907180786133 L18.773456573486328 3.36948299407959 C18.773456573486328 3.504575729370117 18.787025451660156 3.5990781784057617 18.787025451660156 3.6801347732543945 C18.787025451660156 3.882711410522461 18.787025451660156 4.071842193603516 18.773456573486328 4.247400760650635 L18.773456573486328 4.585071563720703 L19.016372680664062 4.585071563720703 M20.867084503173828 3.9906625747680664 C20.867084503173828 3.855693817138672 20.853515625 3.7746381759643555 20.826496124267578 3.6935815811157227 C20.758888244628906 3.477433204650879 20.596900939941406 3.382929801940918 20.380752563476562 3.382929801940918 C20.04320526123047 3.382929801940918 19.84037971496582 3.666563034057617 19.84037971496582 3.977090835571289 C19.84037971496582 4.071717739105225 19.85395050048828 4.152773857116699 19.894664764404297 4.220257759094238 C20.016311645507812 4.5040154457092285 20.27280044555664 4.584947109222412 20.556310653686523 4.584947109222412 C20.623920440673828 4.584947109222412 20.6915283203125 4.584947109222412 20.758888244628906 4.571499824523926 L20.799476623535156 4.368922710418701 C20.71854591369629 4.368922710418701 20.650936126708984 4.382245063781738 20.569881439208984 4.382245063781738 A0.5960281491279602 0.5960281491279602 0.0 0 1 20.39432144165039 4.355350971221924 C20.205066680908203 4.314760684967041 20.083545684814453 4.1796674728393555 20.070098876953125 3.9906625747680664 L20.867084503173828 3.9906625747680664 M20.623920440673828 3.8016557693481445 L20.097240447998047 3.8016557693481445 C20.137832641601562 3.66668701171875 20.232210159301758 3.5720605850219727 20.367427825927734 3.5720605850219727 C20.448360443115234 3.5720605850219727 20.502395629882812 3.5990781784057617 20.54273796081543 3.6395444869995117 C20.583202362060547 3.6801347732543945 20.61022186279297 3.7341718673706055 20.623920440673828 3.8016557693481445 L20.623920440673828 3.8016557693481445 M21.78534507751465 3.585507392883301 L21.745004653930664 3.3693580627441406 C21.62335968017578 3.4099483489990234 21.39388656616211 3.490880012512207 21.31258201599121 3.571934700012207 L21.31258201599121 3.4098243713378906 L21.069664001464844 3.4098243713378906 C21.08298683166504 3.6259727478027344 21.08298683166504 3.8419971466064453 21.08298683166504 4.071593284606934 C21.08298683166504 4.247151851654053 21.069664001464844 4.409263610839844 21.069664001464844 4.584822654724121 L21.31258201599121 4.584822654724121 L21.31258201599121 4.044574737548828 L21.31258201599121 3.7743892669677734 C21.461122512817383 3.693706512451172 21.62335968017578 3.6262216567993164 21.78534507751465 3.585507392883301 L21.78534507751465 3.585507392883301 M22.595905303955078 4.233829498291016 C22.595905303955078 4.044699192047119 22.447362899780273 3.9636430740356445 22.312145233154297 3.8961591720581055 C22.24478530883789 3.869264602661133 22.109569549560547 3.815227508544922 22.109569549560547 3.7341718673706055 C22.109569549560547 3.6262216567993164 22.25811004638672 3.5990781784057617 22.339414596557617 3.5990781784057617 C22.420345306396484 3.5990781784057617 22.48770523071289 3.6125259399414062 22.56900978088379 3.6125259399414062 L22.555438995361328 3.3965015411376953 L22.366432189941406 3.3965015411376953 C22.312145233154297 3.3965015411376953 22.25823211669922 3.3965015411376953 22.204195022583008 3.4099483489990234 C22.041959762573242 3.436842918395996 21.866649627685547 3.545041084289551 21.866649627685547 3.7341718673706055 C21.866649627685547 3.8016557693481445 21.879974365234375 3.8558177947998047 21.92068862915039 3.8961591720581055 C22.001617431640625 4.04482364654541 22.163606643676758 4.0582709312438965 22.28525161743164 4.139326572418213 C22.325841903686523 4.166345119476318 22.352859497070312 4.193363666534424 22.352859497070312 4.247400760650635 C22.352859497070312 4.369047164916992 22.177303314208984 4.382369518280029 22.082674026489258 4.382369518280029 C22.00174331665039 4.382369518280029 21.92068862915039 4.382369518280029 21.83975601196289 4.369047164916992 L21.853078842163086 4.585071563720703 C21.92068862915039 4.585071563720703 21.988048553466797 4.598518371582031 22.05565643310547 4.598518371582031 C22.231216430664062 4.598518371582031 22.447362899780273 4.558053016662598 22.555438995361328 4.395941257476807 C22.58220863342285 4.341904163360596 22.595905303955078 4.287866592407227 22.595905303955078 4.233829498291016 M12.952126502990723 13.107514381408691 C12.952126502990723 12.850899696350098 12.74954891204834 12.634750366210938 12.479362487792969 12.634750366210938 C12.236444473266602 12.634750366210938 12.020171165466309 12.850899696350098 12.020171165466309 13.107514381408691 C12.020171165466309 13.377700805664062 12.236444473266602 13.580277442932129 12.479362487792969 13.580277442932129 C12.74954891204834 13.580277442932129 12.952126502990723 13.377700805664062 12.952126502990723 13.107514381408691 M17.93600082397461 20.846664428710938 L17.93600082397461 14.606861114501953 L17.93600082397461 11.797547340393066 C17.93600082397461 7.164788722991943 13.384300231933594 6.462429523468018 11.763681411743164 6.462429523468018 C9.156944274902344 6.462429523468018 6.401668548583984 8.74506664276123 6.401668548583984 10.122642517089844 C6.401668548583984 10.689908981323242 6.969059467315674 10.838449478149414 7.158065319061279 10.838449478149414 C7.158065319061279 10.838449478149414 8.468156814575195 10.838449478149414 8.562660217285156 11.851335525512695 C8.589677810668945 12.202577590942383 8.792255401611328 12.202577590942383 8.792255401611328 12.202577590942383 C8.792255401611328 12.202577590942383 8.994832992553711 12.202577590942383 8.9407958984375 11.851335525512695 L8.9407958984375 10.797983169555664 C8.9407958984375 10.662890434265137 8.886758804321289 10.122642517089844 9.156944274902344 9.825437545776367 C9.602689743041992 9.36624526977539 10.5076265335083 9.123078346252441 10.57511043548584 9.096059799194336 C10.696632385253906 9.055594444274902 10.9532470703125 8.961091041564941 10.9532470703125 8.569382667541504 C10.9532470703125 8.204694747924805 10.6696138381958 7.96165132522583 10.6696138381958 7.79941463470459 C10.6696138381958 7.556371688842773 10.993836402893066 7.3402228355407715 11.263898849487305 7.178111553192139 L11.33138370513916 7.178111553192139 C11.601569175720215 7.3402228355407715 11.925667762756348 7.5564961433410645 11.925667762756348 7.79941463470459 C11.925667762756348 7.961526870727539 11.642034530639648 8.204694747924805 11.642034530639648 8.569382667541504 C11.642034530639648 8.961091041564941 11.885202407836914 9.096059799194336 12.020171165466309 9.096059799194336 C12.573989868164062 9.096059799194336 13.397871017456055 9.36624526977539 13.992156028747559 9.933511734008789 C14.289361000061035 10.230592727661133 14.31637954711914 10.568387031555176 14.31637954711914 11.797422409057617 L14.31637954711914 20.846542358398438 L17.93600082397461 20.846542358398438 L17.93600082397461 20.846664428710938 L17.93600082397461 20.846664428710938 M10.142812728881836 13.107514381408691 C10.142812728881836 12.850899696350098 9.940235137939453 12.634750366210938 9.670049667358398 12.634750366210938 C9.427005767822266 12.634750366210938 9.210857391357422 12.850899696350098 9.210857391357422 13.107514381408691 C9.210857391357422 13.377700805664062 9.427005767822266 13.580277442932129 9.670049667358398 13.580277442932129 C9.940235137939453 13.580277442932129 10.142812728881836 13.377700805664062 10.142812728881836 13.107514381408691 M13.316940307617188 17.159435272216797 C13.316940307617188 15.876361846923828 12.3580904006958 15.214468002319336 11.69607162475586 15.214468002319336 C10.899209976196289 15.214468002319336 10.61557674407959 15.714250564575195 10.61557674407959 16.132976531982422 C10.61557674407959 16.727262496948242 10.9532470703125 17.064807891845703 11.426010131835938 17.064807891845703 C11.831165313720703 17.064807891845703 11.912220001220703 16.740583419799805 11.912220001220703 16.605615615844727 C11.912220001220703 16.389467239379883 11.831165313720703 16.22747802734375 11.696196556091309 16.22747802734375 C11.588122367858887 16.22747802734375 11.561102867126465 16.349124908447266 11.331507682800293 16.349124908447266 C11.155948638916016 16.254497528076172 11.155948638916016 16.132976531982422 11.155948638916016 16.132976531982422 C11.155948638916016 15.98443603515625 11.223432540893555 15.7412691116333 11.696196556091309 15.7412691116333 C11.80427074432373 15.7412691116333 12.736102104187012 15.876486778259277 12.736102104187012 17.091951370239258 C12.736102104187012 18.17244529724121 11.615264892578125 18.95598602294922 10.804830551147461 18.95598602294922 C9.008528709411621 18.95598602294922 8.427690505981445 17.308223724365234 8.427690505981445 16.51123809814453 C8.427690505981445 15.20127010345459 9.724335670471191 14.080184936523438 8.049554824829102 14.080184936523438 C6.523314476013184 14.080184936523438 4.699994087219238 15.322792053222656 4.699994087219238 17.5513916015625 C4.699994087219238 19.3205509185791 6.6313886642456055 21.08995819091797 8.77893352508545 21.08995819091797 C10.845171928405762 21.089832305908203 13.316940307617188 19.46896743774414 13.316940307617188 17.159435272216797" fill="black" fill-opacity="1.0" filling="0"/></svg>