<?xml version="1.0" encoding="iso-8859-1"?><svg height="200px" viewBox="0.0 0.0 24.0 24.0" width="200px" xmlns="http://www.w3.org/2000/svg"><path animation_id="0" d="M0.0 0.0 L24.0 0.0 L24.0 24.0 L0.0 24.0 L0.0 0.0" fill="black" fill-opacity="1.0" filling="0"/>
<path animation_id="1" d="M6.208678722381592 9.841001510620117 C6.432173252105713 9.89976978302002 5.959534168243408 11.369856834411621 5.572433948516846 11.740023612976074 C5.383054733276367 11.381560325622559 5.7346696853637695 9.716117858886719 6.208678722381592 9.841001510620117 M21.231525421142578 11.449666976928711 L21.385669708251953 12.412999153137207 C21.111125946044922 12.93145751953125 20.82387924194336 13.32341480255127 20.65218162536621 13.371475219726562 C20.201208114624023 13.498102188110352 20.553321838378906 12.032746315002441 21.231525421142578 11.449666976928711 M3.1265640258789062 11.449666976928711 L3.280956268310547 12.412999153137207 C3.0062875747680664 12.93145751953125 2.719167709350586 13.32341480255127 2.5473451614379883 13.371475219726562 C2.096245765686035 13.498102188110352 2.448235511779785 12.032746315002441 3.1265640258789062 11.449666976928711 M17.409948348999023 13.76268482208252 L17.409202575683594 12.489821434020996 L17.010894775390625 12.48160457611084 L17.164539337158203 12.20942497253418 L17.421279907226562 12.139078140258789 L17.424640655517578 10.820643424987793 L18.086532592773438 10.844799041748047 L18.086532592773438 12.175435066223145 L18.758888244628906 12.18190860748291 L18.754528045654297 10.808691024780273 L19.416921615600586 10.84492301940918 L19.416921615600586 12.175559043884277 L19.743511199951172 12.175559043884277 L19.62261199951172 12.47799301147461 L19.419784545898438 12.53838062286377 L19.416921615600586 13.784224510192871 L18.775943756103516 13.784224510192871 L18.775943756103516 12.502023696899414 L18.06511878967285 12.502023696899414 L18.06437110900879 13.760069847106934 L17.409948348999023 13.76268482208252 M14.468156814575195 13.76268482208252 L14.46741008758545 12.489821434020996 L14.069103240966797 12.48160457611084 L14.222748756408691 12.20942497253418 L14.479487419128418 12.139078140258789 L14.483098030090332 10.820643424987793 L15.144742965698242 10.844799041748047 L15.144742965698242 12.175435066223145 L15.817095756530762 12.18190860748291 L15.812737464904785 10.808691024780273 L16.475130081176758 10.84492301940918 L16.475130081176758 12.175559043884277 L16.80171775817871 12.175559043884277 L16.68082046508789 12.47799301147461 L16.47799301147461 12.53838062286377 L16.475130081176758 13.784224510192871 L15.834153175354004 13.784224510192871 L15.834153175354004 12.502023696899414 L15.123327255249023 12.502023696899414 L15.122580528259277 13.760069847106934 L14.468156814575195 13.76268482208252 L14.468156814575195 13.76268482208252 M4.781423091888428 12.695510864257812 C4.382245063781738 12.877046585083008 4.382245063781738 12.877046585083008 4.29757833480835 12.852766990661621 C4.454833984375 12.562535285949707 4.503143787384033 12.526178359985352 4.757143974304199 12.332690238952637 C4.890244960784912 11.195667266845703 5.2986369132995605 9.328021049499512 6.680321216583252 9.369234085083008 C6.96233606338501 9.377575874328613 6.898462295532227 9.96438980102539 6.861732006072998 10.2400541305542 C6.753035068511963 11.0562162399292 6.015066146850586 11.848845481872559 5.325654983520508 12.296333312988281 C5.325654983520508 12.743945121765137 5.422399520874023 13.046255111694336 5.652244567871094 13.505945205688477 C5.7248334884643555 13.505945205688477 5.797422885894775 13.505945205688477 5.870011806488037 13.518147468566895 C5.870011806488037 12.94963550567627 5.821577548980713 12.780302047729492 5.591856956481934 12.29645824432373 C6.196601390838623 12.29645824432373 6.269190311431885 12.139202117919922 6.535267353057861 12.744070053100586 C6.490693092346191 13.224055290222168 6.273423194885254 13.88769245147705 5.741517543792725 13.855817794799805 C5.157815933227539 13.820955276489258 4.8917388916015625 13.185707092285156 4.781423091888428 12.695510864257812 L4.781423091888428 12.695510864257812 M8.893980026245117 13.965511322021484 C8.156135559082031 13.675278663635254 8.10782527923584 13.167279243469238 7.986802577972412 12.502023696899414 C7.93836784362793 12.489821434020996 7.8900580406188965 12.489821434020996 7.853701114654541 12.489821434020996 L6.801344871520996 13.62684440612793 L6.680321216583252 13.62684440612793 L6.8375773429870605 10.808566093444824 L7.527112007141113 10.808566093444824 L7.527112007141113 12.259977340698242 L8.942289352416992 10.76025676727295 C8.978647232055664 10.772334098815918 9.01487922668457 10.784411430358887 9.063188552856445 10.796488761901855 C8.664011001586914 11.59484577178955 8.482599258422852 13.179356575012207 9.135778427124023 13.94148063659668 C9.051111221313477 13.94148063659668 8.966444969177246 13.953433990478516 8.893980026245117 13.965511322021484 L8.893980026245117 13.965511322021484 M21.134782791137695 11.086721420288086 C21.025836944580078 10.627155303955078 20.929092407226562 10.167466163635254 20.83222198486328 9.719853401184082 L21.558115005493164 9.852954864501953 L22.561912536621094 13.832409858703613 L21.742889404296875 13.805391311645508 L21.50818634033203 12.893233299255371 C20.842557907104492 13.652493476867676 20.467906951904297 14.133474349975586 20.127124786376953 14.076822280883789 C19.766918182373047 14.01680850982666 19.73516845703125 13.765174865722656 19.737533569335938 13.438337326049805 C19.744754791259766 12.597646713256836 20.72751235961914 11.248085021972656 21.134782791137695 11.086721420288086 L21.134782791137695 11.086721420288086 M3.029820442199707 11.086721420288086 C2.9208736419677734 10.627155303955078 2.824254035949707 10.167466163635254 2.7273855209350586 9.719853401184082 L3.453153610229492 9.852954864501953 L4.457075595855713 13.832409858703613 L3.638050079345703 13.805391311645508 L3.4032249450683594 12.893233299255371 C2.737720489501953 13.652493476867676 2.3629465103149414 14.133474349975586 2.022287368774414 14.076822280883789 C1.6619558334350586 14.01680850982666 1.630082130432129 13.765174865722656 1.6328210830688477 13.438337326049805 C1.6397933959960938 12.597646713256836 2.622425079345703 11.248085021972656 3.029820442199707 11.086721420288086 L3.029820442199707 11.086721420288086 M11.841873168945312 12.479612350463867 L11.588495254516602 12.46541690826416 L11.607793807983398 12.251385688781738 L11.841997146606445 12.211915969848633 C12.051547050476074 11.578660011291504 12.155512809753418 10.97453784942627 13.227914810180664 10.832098960876465 C13.538691520690918 10.790761947631836 14.114299774169922 10.901700019836426 14.13447093963623 11.278093338012695 C14.143933296203613 11.458009719848633 13.966630935668945 11.522753715515137 13.85681438446045 11.539563179016113 C13.615388870239258 11.576417922973633 13.375833511352539 11.296146392822266 13.234514236450195 11.0965576171875 C12.726264953613281 11.193302154541016 12.631388664245605 11.703542709350586 12.571125984191895 12.175435066223145 L13.614394187927246 12.175435066223145 L13.450289726257324 12.46728515625 L12.561912536621094 12.468405723571777 C12.731369972229004 13.339351654052734 13.248458862304688 13.71163558959961 14.179792404174805 13.905123710632324 C14.016559600830078 14.069477081298828 13.739649772644043 14.160367965698242 13.504451751708984 14.154766082763672 C12.478241920471191 14.130486488342285 11.954678535461426 13.452903747558594 11.841873168945312 12.479612350463867 L11.841873168945312 12.479612350463867 M11.071157455444336 14.594534873962402 L11.11959171295166 13.784100532531738 L9.256925582885742 13.747867584228516 L9.278465270996094 13.559609413146973 L9.474569320678711 13.512544631958008 L9.500343322753906 10.844799041748047 L10.18825912475586 10.844799041748047 L10.151902198791504 13.505821228027344 L10.72589111328125 13.494864463806152 L10.756770133972168 10.844799041748047 L11.434103012084961 10.844799041748047 L11.397747039794922 13.5421781539917 L11.760692596435547 13.5421781539917 C11.496855735778809 13.831165313720703 11.281952857971191 14.198593139648438 11.107514381408691 14.630766868591309 L11.071157455444336 14.594534873962402 L11.071157455444336 14.594534873962402 M0.7546529769897461 11.705534934997559 C0.9757823944091797 11.705534934997559 1.1561975479125977 11.88594913482666 1.1561975479125977 12.107202529907227 C1.1561975479125977 12.32845687866211 0.9757823944091797 12.508871078491211 0.7546529769897461 12.508871078491211 C0.5333995819091797 12.508871078491211 0.3529853820800781 12.32845687866211 0.3529853820800781 12.107202529907227 C0.3529853820800781 11.88594913482666 0.5333995819091797 11.705534934997559 0.7546529769897461 11.705534934997559 M23.24534797668457 11.705534934997559 C23.46660041809082 11.705534934997559 23.647140502929688 11.88594913482666 23.647140502929688 12.107202529907227 C23.647140502929688 12.32845687866211 23.466726303100586 12.508871078491211 23.24534797668457 12.508871078491211 C23.023969650268555 12.508871078491211 22.84380340576172 12.32845687866211 22.84380340576172 12.107202529907227 C22.84380340576172 11.88594913482666 23.024093627929688 11.705534934997559 23.24534797668457 11.705534934997559" fill="black" fill-opacity="1.0" filling="0"/></svg>