<?xml version="1.0" encoding="iso-8859-1"?><svg height="200px" viewBox="0.0 0.0 24.0 24.0" width="200px" xmlns="http://www.w3.org/2000/svg"><path animation_id="0" d="M10.078364372253418 12.669506072998047 C10.078364372253418 13.078365325927734 10.160136222839355 13.303236961364746 10.211243629455566 13.385008811950684 L9.209539413452148 13.385008811950684 C9.148211479187012 13.252129554748535 9.127768516540527 13.109028816223145 9.127768516540527 12.965928077697754 C8.770017623901367 13.262351036071777 8.310050964355469 13.425894737243652 7.850085258483887 13.425894737243652 C7.103918075561523 13.425894737243652 6.511072635650635 12.955707550048828 6.511072635650635 12.18909740447998 C6.511072635650635 11.422487258911133 7.12436056137085 11.074957847595215 7.706984519958496 10.972743034362793 L8.105622291564941 10.880749702453613 C8.45315170288086 10.81942081451416 8.790459632873535 10.747870445251465 9.127768516540527 10.64565658569336 L9.127768516540527 10.533220291137695 C9.127768516540527 10.144804000854492 8.790459632873535 10.032367706298828 8.381601333618164 10.032367706298828 C7.829641819000244 10.032367706298828 7.655877590179443 10.257240295410156 7.655877590179443 10.625213623046875 L6.705280780792236 10.625213623046875 C6.705280780792236 9.705281257629395 7.379897594451904 9.265758514404297 8.381601333618164 9.306644439697266 C9.22998332977295 9.337308883666992 10.078364372253418 9.480409622192383 10.078364372253418 10.594549179077148 L10.078364372253418 12.669506072998047 M9.13798999786377 11.36115837097168 C8.994889259338379 11.432708740234375 8.841567039489746 11.473594665527344 8.68824577331543 11.50425910949707 L8.166950225830078 11.616695404052734 C7.809199333190918 11.68824577331543 7.512776851654053 11.790459632873535 7.512776851654053 12.158432960510254 C7.512776851654053 12.454854965209961 7.788755893707275 12.649063110351562 8.12606430053711 12.649063110351562 C8.565587997436523 12.649063110351562 9.13798999786377 12.434412956237793 9.13798999786377 11.92333984375 L9.13798999786377 11.36115837097168 M13.471891403198242 10.55366325378418 C12.95059585571289 10.216354370117188 12.817717552185059 10.124361038208008 12.388415336608887 10.083475112915039 C11.959114074707031 10.04258918762207 11.662691116333008 10.22657585144043 11.662691116333008 10.461669921875 C11.662691116333008 11.14650821685791 14.136285781860352 10.563884735107422 14.136285781860352 12.04599666595459 C14.136285781860352 12.996593475341797 13.287904739379883 13.41567325592041 12.388415336608887 13.41567325592041 C11.468482971191406 13.41567325592041 10.834753036499023 13.098808288574219 10.487222671508789 12.700170516967773 L11.080068588256836 12.240204811096191 C11.509368896484375 12.567291259765625 11.826234817504883 12.63884162902832 12.327086448669434 12.63884162902832 C12.776830673217773 12.63884162902832 13.083475112915039 12.393527030944824 13.083475112915039 12.178875923156738 C13.083475112915039 11.514480590820312 10.650766372680664 12.066439628601074 10.650766372680664 10.574106216430664 C10.650766372680664 9.68483829498291 11.417375564575195 9.296422958374023 12.388415336608887 9.296422958374023 C13.328789710998535 9.296422958374023 13.829642295837402 9.77683162689209 14.013628959655762 10.01192569732666 L13.471891403198242 10.55366325378418 M18.010221481323242 12.669506072998047 C18.010221481323242 13.078365325927734 18.11243438720703 13.293015480041504 18.163543701171875 13.374787330627441 L17.172061920166016 13.374787330627441 C17.11073112487793 13.252129554748535 17.069847106933594 13.109028816223145 17.069847106933594 12.965928077697754 C16.712095260620117 13.262351036071777 16.25212860107422 13.425894737243652 15.792163848876953 13.425894737243652 C15.045995712280273 13.425894737243652 14.453150749206543 12.955707550048828 14.453150749206543 12.18909740447998 C14.453150749206543 11.422487258911133 15.066438674926758 11.074957847595215 15.649063110351562 10.972743034362793 L16.047698974609375 10.890971183776855 C16.39522933959961 10.829642295837402 16.7325382232666 10.758091926574707 17.069847106933594 10.655878067016602 L17.069847106933594 10.533220291137695 C17.069847106933594 10.144804000854492 16.7325382232666 10.032367706298828 16.323678970336914 10.032367706298828 C15.771720886230469 10.032367706298828 15.597955703735352 10.267461776733398 15.597955703735352 10.64565658569336 L14.647359848022461 10.64565658569336 C14.647359848022461 9.725724220275879 15.342419624328613 9.275979995727539 16.323678970336914 9.316865921020508 C17.172061920166016 9.347530364990234 18.020442962646484 9.490631103515625 18.020442962646484 10.60477066040039 L18.010221481323242 12.669506072998047 M17.069847106933594 11.36115837097168 C16.926746368408203 11.432708740234375 16.77342414855957 11.473594665527344 16.620101928710938 11.50425910949707 L16.09880828857422 11.616695404052734 C15.741056442260742 11.68824577331543 15.444634437561035 11.790459632873535 15.444634437561035 12.158432960510254 C15.444634437561035 12.454854965209961 15.720613479614258 12.649063110351562 16.05792236328125 12.649063110351562 C16.49744415283203 12.649063110351562 17.069847106933594 12.434412956237793 17.069847106933594 11.92333984375 L17.069847106933594 11.36115837097168 M19.410560607910156 11.586030960083008 C19.42078399658203 12.168654441833496 19.921634674072266 12.526405334472656 20.432708740234375 12.54684829711914 C21.158432006835938 12.577512741088867 21.475299835205078 12.321976661682129 21.720611572265625 12.076661109924316 L22.364566802978516 12.454854965209961 C22.06814193725586 12.904600143432617 21.505962371826172 13.41567325592041 20.432708740234375 13.41567325592041 C19.155025482177734 13.41567325592041 18.419078826904297 12.526405334472656 18.419078826904297 11.36115837097168 C18.419078826904297 10.195911407470703 19.155025482177734 9.306644439697266 20.432708740234375 9.306644439697266 C21.74105453491211 9.306644439697266 22.323678970336914 10.185689926147461 22.323678970336914 11.586030960083008 L19.410560607910156 11.586030960083008 M21.321975708007812 10.860306739807129 C21.26064682006836 10.410562515258789 20.88245391845703 10.083475112915039 20.432708740234375 10.083475112915039 C19.952299118041992 10.063033103942871 19.522998809814453 10.390119552612305 19.410560607910156 10.860306739807129 L21.321975708007812 10.860306739807129 M24.0 9.817717552185059 C24.0 10.114139556884766 23.76490592956543 10.349233627319336 23.468482971191406 10.349233627319336 C23.172061920166016 10.349233627319336 22.936965942382812 10.114139556884766 22.936965942382812 9.817717552185059 C22.936965942382812 9.521294593811035 23.172061920166016 9.286201477050781 23.468482971191406 9.286201477050781 C23.754684448242188 9.286201477050781 24.0 9.511073112487793 24.0 9.807496070861816 L24.0 9.817717552185059 M23.01873779296875 9.817717552185059 C23.01873779296875 10.063033103942871 23.223167419433594 10.267461776733398 23.47870445251465 10.257240295410156 C23.724021911621094 10.257240295410156 23.928449630737305 10.052810668945312 23.918228149414062 9.797274589538574 C23.918228149414062 9.551959991455078 23.71379852294922 9.357751846313477 23.468482971191406 9.357751846313477 C23.223167419433594 9.357751846313477 23.01873779296875 9.551959991455078 23.01873779296875 9.797274589538574 L23.01873779296875 9.817717552185059 M23.356048583984375 10.124361038208008 L23.284496307373047 10.124361038208008 L23.284496307373047 9.511073112487793 L23.51959228515625 9.511073112487793 C23.662691116333008 9.511073112487793 23.724021911621094 9.572402000427246 23.724021911621094 9.68483829498291 C23.724021911621094 9.77683162689209 23.662691116333008 9.858603477478027 23.570697784423828 9.858603477478027 L23.754684448242188 10.13458251953125 L23.662691116333008 10.13458251953125 L23.48892593383789 9.858603477478027 L23.356048583984375 9.858603477478027 L23.356048583984375 10.124361038208008 M23.448040008544922 9.787053108215332 C23.540035247802734 9.787053108215332 23.63202667236328 9.787053108215332 23.63202667236328 9.674616813659668 C23.63202667236328 9.59284496307373 23.560476303100586 9.572402000427246 23.48892593383789 9.572402000427246 L23.3458251953125 9.572402000427246 L23.3458251953125 9.787053108215332 L23.448040008544922 9.787053108215332" fill="black" fill-opacity="1.0" filling="0"/>
<path animation_id="1" d="M6.143100261688232 9.582623481750488 L3.9250431060791016 9.582623481750488 C3.7001705169677734 9.224872589111328 3.3833045959472656 8.928449630737305 3.0255537033081055 8.713799476623535 L3.250425338745117 8.059625625610352 L2.902895927429199 8.652470588684082 L2.3509368896484375 9.59284496307373 L0.0 9.582623481750488 L2.2180585861206055 9.797274589538574 L2.003406524658203 10.195911407470703 C1.1550254821777344 9.807496070861816 0.0 9.582623481750488 0.0 9.582623481750488 C0.6337308883666992 9.838160514831543 1.247018814086914 10.144804000854492 1.8398637771606445 10.482112884521484 L0.26575756072998047 13.395230293273926 L3.117547035217285 11.555366516113281 C3.7001705169677734 12.270869255065918 4.436115741729736 13.374787330627441 4.436115741729736 13.374787330627441 C4.620102405548096 12.49574089050293 4.599659442901611 11.586030960083008 4.395229816436768 10.727428436279297 L6.143100261688232 9.582623481750488 M3.005110740661621 8.744463920593262 C3.209540367126465 9.0 3.3730831146240234 9.275979995727539 3.4855194091796875 9.582623481750488 L2.71890926361084 9.582623481750488 L3.005110740661621 8.744463920593262 M1.8296422958374023 11.821125030517578 L2.258943557739258 10.758091926574707 C2.4122657775878906 10.860306739807129 2.5553665161132812 10.96252155303955 2.6882448196411133 11.085179328918457 C2.7291316986083984 11.115843772888184 2.770016670227051 11.156729698181152 2.8109025955200195 11.197614669799805 L1.8296422958374023 11.821125030517578 M2.3918228149414062 10.390119552612305 L2.6371374130249023 9.8279390335083 L3.5877342224121094 9.879046440124512 C3.679727554321289 10.093696594238281 3.76149845123291 10.31856918334961 3.833049774169922 10.55366325378418 L3.1993179321289062 10.901192665100098 C2.933561325073242 10.717206954956055 2.667801856994629 10.543441772460938 2.3918228149414062 10.390119552612305 L2.3918228149414062 10.390119552612305 M3.976149559020996 11.729131698608398 C3.976149559020996 11.729131698608398 3.904600143432617 11.545145034790039 3.5877342224121094 11.248722076416016 L3.914820671081543 11.034071922302246 C3.955707550048828 11.2691650390625 3.976149559020996 11.494037628173828 3.976149559020996 11.729131698608398 L3.976149559020996 11.729131698608398 M4.18057918548584 10.103918075561523 C4.149914741516113 10.032367706298828 4.129471778869629 9.971038818359375 4.098807334899902 9.909710884094238 L4.804088592529297 9.940375328063965 L4.252129077911377 10.287904739379883 C4.241908073425293 10.216354370117188 4.22146463394165 10.155025482177734 4.18057918548584 10.103918075561523" fill="black" fill-opacity="1.0" filling="0"/>
<path animation_id="2" d="M0.42930126190185547 14.867120742797852 L0.14310073852539062 14.867120742797852 L0.17376422882080078 14.754684448242188 L0.8892669677734375 14.754684448242188 L0.8688249588012695 14.867120742797852 L0.5724020004272461 14.867120742797852 L0.37819385528564453 15.715502738952637 L0.22487163543701172 15.715502738952637 L0.42930126190185547 14.867120742797852 M1.0119247436523438 14.76490592956543 L1.0936965942382812 14.76490592956543 C1.13458251953125 14.76490592956543 1.1448040008544922 14.775128364562988 1.13458251953125 14.85689926147461 L1.0732536315917969 15.112436294555664 C1.1550254821777344 15.040885925292969 1.2572402954101562 15.0 1.3696765899658203 15.0 C1.4821128845214844 15.0 1.543440818786621 15.081771850585938 1.512777328491211 15.224872589111328 L1.4003400802612305 15.725724220275879 L1.3083477020263672 15.725724220275879 C1.2674617767333984 15.725724220275879 1.2572402954101562 15.715502738952637 1.2674617767333984 15.654173851013184 L1.3696765899658203 15.224872589111328 C1.3901195526123047 15.14310073852539 1.3594551086425781 15.102214813232422 1.298126220703125 15.102214813232422 C1.2061328887939453 15.112436294555664 1.1243610382080078 15.14310073852539 1.052811622619629 15.204429626464844 L0.9403743743896484 15.715502738952637 L0.7870521545410156 15.715502738952637 L1.0119247436523438 14.76490592956543 M1.6047706604003906 15.439523696899414 C1.6047706604003906 15.204429626464844 1.7580928802490234 14.989778518676758 1.9931859970092773 14.989778518676758 C2.1158437728881836 14.979557037353516 2.2180585861206055 15.061328887939453 2.2385005950927734 15.18398666381836 L2.2385005950927734 15.23509407043457 C2.2385005950927734 15.286201477050781 2.2282791137695312 15.337308883666992 2.2180585861206055 15.388416290283203 L1.7478704452514648 15.388416290283203 L1.7478704452514648 15.439523696899414 C1.7478704452514648 15.562180519104004 1.7989778518676758 15.623509407043457 1.9216346740722656 15.623509407043457 C1.9931859970092773 15.623509407043457 2.0647363662719727 15.603066444396973 2.1158437728881836 15.562180519104004 L2.1669511795043945 15.562180519104004 L2.1465072631835938 15.664395332336426 C2.0749568939208984 15.705281257629395 1.9931859970092773 15.725724220275879 1.9114141464233398 15.725724220275879 C1.7683134078979492 15.746167182922363 1.6354341506958008 15.643953323364258 1.6149911880493164 15.490631103515625 C1.6047706604003906 15.480408668518066 1.6047706604003906 15.459966659545898 1.6047706604003906 15.439523696899414 M1.7683134078979492 15.296422958374023 L2.105621337890625 15.296422958374023 C2.1158437728881836 15.275979995727539 2.1158437728881836 15.245315551757812 2.1158437728881836 15.224872589111328 C2.1158437728881836 15.132879257202148 2.0647363662719727 15.081771850585938 1.9931859970092773 15.081771850585938 C1.8705272674560547 15.09199333190918 1.7989778518676758 15.173765182495117 1.7683134078979492 15.296422958374023 L1.7683134078979492 15.296422958374023 M2.647359848022461 15.357751846313477 C2.647359848022461 15.061328887939453 2.841567039489746 14.76490592956543 3.1993179321289062 14.76490592956543 C3.2913122177124023 14.754684448242188 3.3833045959472656 14.78534984588623 3.454854965209961 14.836457252502441 L3.4344120025634766 14.938671112060547 L3.3730831146240234 14.938671112060547 C3.3219757080078125 14.887563705444336 3.250425338745117 14.867120742797852 3.1890974044799805 14.87734317779541 C2.9233388900756836 14.87734317779541 2.8006811141967773 15.153322219848633 2.8006811141967773 15.367973327636719 C2.8006811141967773 15.551959991455078 2.892674446105957 15.6337308883667 3.0459957122802734 15.6337308883667 C3.1277685165405273 15.6337308883667 3.209540367126465 15.613287925720215 3.270869255065918 15.562180519104004 L3.3321971893310547 15.562180519104004 L3.3117551803588867 15.664395332336426 C3.229982376098633 15.715502738952637 3.1379899978637695 15.735945701599121 3.0459957122802734 15.735945701599121 C2.8109025955200195 15.725724220275879 2.647359848022461 15.603066444396973 2.647359848022461 15.357751846313477 L2.647359848022461 15.357751846313477 M3.465076446533203 15.439523696899414 C3.465076446533203 15.204429626464844 3.618398666381836 14.989778518676758 3.8534927368164062 14.989778518676758 C3.976149559020996 14.979557037353516 4.078364849090576 15.061328887939453 4.098807334899902 15.18398666381836 L4.098807334899902 15.23509407043457 C4.098807334899902 15.286201477050781 4.08858585357666 15.337308883666992 4.078364849090576 15.388416290283203 L3.6081762313842773 15.388416290283203 L3.6081762313842773 15.439523696899414 C3.6081762313842773 15.562180519104004 3.6592836380004883 15.623509407043457 3.781942367553711 15.623509407043457 C3.8534927368164062 15.623509407043457 3.9250431060791016 15.603066444396973 3.976149559020996 15.562180519104004 L4.027257442474365 15.562180519104004 L4.006814956665039 15.664395332336426 C3.9352636337280273 15.705281257629395 3.8534927368164062 15.725724220275879 3.7717208862304688 15.725724220275879 C3.628620147705078 15.746167182922363 3.495741844177246 15.6337308883667 3.4752979278564453 15.490631103515625 C3.465076446533203 15.480408668518066 3.465076446533203 15.459966659545898 3.465076446533203 15.439523696899414 L3.465076446533203 15.439523696899414 M3.628620147705078 15.296422958374023 L3.965928077697754 15.296422958374023 C3.976149559020996 15.275979995727539 3.976149559020996 15.245315551757812 3.976149559020996 15.224872589111328 C3.976149559020996 15.132879257202148 3.9250431060791016 15.081771850585938 3.8534927368164062 15.081771850585938 C3.7308349609375 15.09199333190918 3.6592836380004883 15.173765182495117 3.628620147705078 15.296422958374023 L3.628620147705078 15.296422958374023 M4.3134589195251465 15.0 L4.354343891143799 15.0 C4.425893783569336 15.0 4.436115741729736 15.040885925292969 4.425893783569336 15.112436294555664 C4.507666110992432 15.040885925292969 4.609880447387695 15.0 4.722317218780518 14.989778518676758 C4.834752559661865 14.989778518676758 4.896081924438477 15.071550369262695 4.865417003631592 15.214651107788086 L4.752981185913086 15.715502738952637 L4.660987854003906 15.715502738952637 C4.620102405548096 15.715502738952637 4.609880447387695 15.705281257629395 4.620102405548096 15.643953323364258 L4.722317218780518 15.214651107788086 C4.742759704589844 15.132879257202148 4.712095260620117 15.09199333190918 4.650766372680664 15.09199333190918 C4.558773040771484 15.102214813232422 4.477001190185547 15.132879257202148 4.40545129776001 15.194208145141602 L4.282793998718262 15.705281257629395 L4.139693260192871 15.705281257629395 L4.3134589195251465 15.0 M4.98807430267334 15.511073112487793 L5.080068588256836 15.102214813232422 L4.98807430267334 15.102214813232422 L5.008517742156982 15.0 L5.090289115905762 15.0 L5.131175994873047 14.805791854858398 L5.274275779724121 14.805791854858398 L5.2333903312683105 15.0 L5.386712551116943 15.0 L5.366269111633301 15.102214813232422 L5.22316837310791 15.102214813232422 L5.131175994873047 15.521294593811035 C5.110732555389404 15.592845916748047 5.141396522521973 15.6337308883667 5.212946891784668 15.6337308883667 L5.264054298400879 15.6337308883667 L5.243610858917236 15.715502738952637 C5.212946891784668 15.725724220275879 5.172060966491699 15.725724220275879 5.141396522521973 15.725724220275879 C5.008517742156982 15.725724220275879 4.9574103355407715 15.654173851013184 4.98807430267334 15.511073112487793 L4.98807430267334 15.511073112487793 M5.4071550369262695 15.439523696899414 C5.4071550369262695 15.204429626464844 5.560477256774902 14.989778518676758 5.7955708503723145 14.989778518676758 C5.9182281494140625 14.979557037353516 6.020442962646484 15.061328887939453 6.0408854484558105 15.18398666381836 L6.0408854484558105 15.23509407043457 C6.0408854484558105 15.286201477050781 6.0408854484558105 15.337308883666992 6.020442962646484 15.388416290283203 L5.550255298614502 15.388416290283203 L5.550255298614502 15.439523696899414 C5.550255298614502 15.562180519104004 5.601362705230713 15.623509407043457 5.724020481109619 15.623509407043457 C5.7955708503723145 15.623509407043457 5.86712121963501 15.603066444396973 5.9182281494140625 15.562180519104004 L5.969335556030273 15.562180519104004 L5.948892593383789 15.664395332336426 C5.877342224121094 15.705281257629395 5.7955708503723145 15.725724220275879 5.713798999786377 15.725724220275879 C5.570698261260986 15.746167182922363 5.437819957733154 15.643953323364258 5.417376518249512 15.500852584838867 C5.4071550369262695 15.480408668518066 5.396933078765869 15.459966659545898 5.4071550369262695 15.439523696899414 L5.4071550369262695 15.439523696899414 M5.560477256774902 15.296422958374023 L5.897785186767578 15.296422958374023 C5.90800666809082 15.275979995727539 5.90800666809082 15.245315551757812 5.90800666809082 15.224872589111328 C5.90800666809082 15.132879257202148 5.856899261474609 15.081771850585938 5.785348892211914 15.081771850585938 C5.672913074493408 15.09199333190918 5.591141223907471 15.173765182495117 5.560477256774902 15.296422958374023 L5.560477256774902 15.296422958374023 M6.245315074920654 15.0 L6.286201000213623 15.0 C6.357751369476318 15.0 6.367972373962402 15.051107406616211 6.357751369476318 15.122657775878906 C6.408858776092529 15.051107406616211 6.490630149841309 15.0 6.582623481750488 15.0 L6.623509407043457 15.0 L6.5928449630737305 15.122657775878906 L6.572402477264404 15.122657775878906 C6.480409145355225 15.122657775878906 6.398636817932129 15.163543701171875 6.337308406829834 15.23509407043457 L6.22487211227417 15.725724220275879 L6.0817718505859375 15.725724220275879 L6.245315074920654 15.0 M7.063032150268555 15.102214813232422 L6.971038818359375 15.102214813232422 L6.991482257843018 15.0 L7.083475589752197 15.0 L7.093696594238281 14.928450584411621 C7.103918075561523 14.81601333618164 7.206132888793945 14.73424243927002 7.318568706512451 14.744463920593262 C7.35945463180542 14.744463920593262 7.390119552612305 14.744463920593262 7.420783519744873 14.754684448242188 L7.410562038421631 14.846677780151367 L7.35945463180542 14.846677780151367 C7.298126220703125 14.846677780151367 7.257240295410156 14.867120742797852 7.236797332763672 14.938671112060547 L7.2265753746032715 15.0 L7.369676113128662 15.0 L7.349233627319336 15.102214813232422 L7.206132888793945 15.102214813232422 L7.063032150268555 15.725724220275879 L6.919931411743164 15.725724220275879 L7.063032150268555 15.102214813232422 M7.35945463180542 15.439523696899414 C7.35945463180542 15.18398666381836 7.533219337463379 15.0 7.747870922088623 15.0 C7.901192665100098 14.979557037353516 8.03407096862793 15.09199333190918 8.05451488494873 15.245315551757812 L8.05451488494873 15.296422958374023 C8.05451488494873 15.551959991455078 7.890970706939697 15.735945701599121 7.666098594665527 15.735945701599121 C7.512776851654053 15.756388664245605 7.379897594451904 15.643953323364258 7.369676113128662 15.500852584838867 C7.35945463180542 15.470187187194824 7.35945463180542 15.449745178222656 7.35945463180542 15.439523696899414 L7.35945463180542 15.439523696899414 M7.91141414642334 15.286201477050781 C7.91141414642334 15.153322219848633 7.850085258483887 15.09199333190918 7.747870922088623 15.09199333190918 C7.59454870223999 15.09199333190918 7.5025553703308105 15.255537033081055 7.5025553703308105 15.439523696899414 C7.5025553703308105 15.572402000427246 7.563884258270264 15.6337308883667 7.666098594665527 15.6337308883667 C7.81942081451416 15.623509407043457 7.91141414642334 15.459966659545898 7.91141414642334 15.286201477050781 M8.2691650390625 15.0 L8.310050964355469 15.0 C8.381601333618164 15.0 8.391822814941406 15.051107406616211 8.381601333618164 15.122657775878906 C8.432708740234375 15.051107406616211 8.514480590820312 15.0 8.606472969055176 15.0 L8.647358894348145 15.0 L8.616695404052734 15.122657775878906 L8.59625244140625 15.122657775878906 C8.50425910949707 15.122657775878906 8.422487258911133 15.163543701171875 8.36115837097168 15.23509407043457 L8.248722076416016 15.725724220275879 L8.105622291564941 15.725724220275879 L8.2691650390625 15.0 M8.872232437133789 15.674616813659668 L9.393526077270508 14.754684448242188 L9.557069778442383 14.754684448242188 L9.679727554321289 15.674616813659668 L9.679727554321289 15.715502738952637 L9.536626815795898 15.715502738952637 L9.505962371826172 15.449745178222656 L9.13798999786377 15.449745178222656 L8.994889259338379 15.725724220275879 L8.872232437133789 15.725724220275879 L8.872232437133789 15.674616813659668 M9.199317932128906 15.337308883666992 L9.485519409179688 15.337308883666992 L9.434412002563477 14.90800666809082 L9.199317932128906 15.337308883666992 M9.781941413879395 15.654173851013184 L9.802385330200195 15.551959991455078 L9.853492736816406 15.551959991455078 C9.894378662109375 15.603066444396973 9.955707550048828 15.623509407043457 10.027256965637207 15.623509407043457 C10.129471778869629 15.623509407043457 10.18057918548584 15.582623481750488 10.18057918548584 15.511073112487793 C10.18057918548584 15.459966659545898 10.139693260192871 15.439523696899414 10.068142890930176 15.408859252929688 C9.955707550048828 15.367973327636719 9.884156227111816 15.327086448669434 9.884156227111816 15.214651107788086 C9.884156227111816 15.071550369262695 9.986371040344238 14.989778518676758 10.160136222839355 14.989778518676758 C10.241907119750977 14.989778518676758 10.313458442687988 15.010221481323242 10.374787330627441 15.051107406616211 L10.354344367980957 15.14310073852539 L10.303236961364746 15.14310073852539 C10.262351036071777 15.102214813232422 10.201022148132324 15.081771850585938 10.149914741516113 15.081771850585938 C10.057921409606934 15.081771850585938 10.006814002990723 15.122657775878906 10.006814002990723 15.18398666381836 C10.006814002990723 15.245315551757812 10.03747844696045 15.255537033081055 10.129471778869629 15.286201477050781 C10.241907119750977 15.327086448669434 10.313458442687988 15.357751846313477 10.313458442687988 15.470187187194824 C10.313458442687988 15.613287925720215 10.211243629455566 15.715502738952637 10.027256965637207 15.715502738952637 C9.935263633728027 15.735945701599121 9.853492736816406 15.705281257629395 9.781941413879395 15.654173851013184 L9.781941413879395 15.654173851013184 M10.385007858276367 15.654173851013184 L10.405451774597168 15.551959991455078 L10.456559181213379 15.551959991455078 C10.497444152832031 15.603066444396973 10.5587739944458 15.623509407043457 10.63032341003418 15.623509407043457 C10.732538223266602 15.623509407043457 10.783645629882812 15.582623481750488 10.783645629882812 15.511073112487793 C10.783645629882812 15.459966659545898 10.742759704589844 15.439523696899414 10.671209335327148 15.408859252929688 C10.5587739944458 15.367973327636719 10.487222671508789 15.327086448669434 10.487222671508789 15.214651107788086 C10.487222671508789 15.071550369262695 10.589437484741211 14.989778518676758 10.763202667236328 14.989778518676758 C10.844974517822266 14.989778518676758 10.916524887084961 15.010221481323242 10.977853775024414 15.051107406616211 L10.957409858703613 15.14310073852539 L10.906302452087402 15.14310073852539 C10.86541748046875 15.102214813232422 10.804088592529297 15.081771850585938 10.752981185913086 15.081771850585938 C10.660987854003906 15.081771850585938 10.609880447387695 15.122657775878906 10.609880447387695 15.18398666381836 C10.609880447387695 15.245315551757812 10.640544891357422 15.255537033081055 10.732538223266602 15.286201477050781 C10.844974517822266 15.327086448669434 10.916524887084961 15.357751846313477 10.916524887084961 15.470187187194824 C10.916524887084961 15.613287925720215 10.814310073852539 15.715502738952637 10.63032341003418 15.715502738952637 C10.538330078125 15.725724220275879 10.456559181213379 15.705281257629395 10.385007858276367 15.654173851013184 L10.385007858276367 15.654173851013184 M11.03918170928955 15.439523696899414 C11.03918170928955 15.18398666381836 11.212946891784668 15.0 11.427597999572754 15.0 C11.580920219421387 14.989778518676758 11.713798522949219 15.102214813232422 11.724020004272461 15.255537033081055 L11.724020004272461 15.296422958374023 C11.724020004272461 15.551959991455078 11.560476303100586 15.735945701599121 11.335604667663574 15.735945701599121 C11.182282447814941 15.746167182922363 11.049403190612793 15.643953323364258 11.03918170928955 15.490631103515625 L11.03918170928955 15.439523696899414 M11.580920219421387 15.286201477050781 C11.580920219421387 15.153322219848633 11.519590377807617 15.09199333190918 11.417375564575195 15.09199333190918 C11.264054298400879 15.09199333190918 11.172061920166016 15.255537033081055 11.172061920166016 15.439523696899414 C11.172061920166016 15.572402000427246 11.233389854431152 15.6337308883667 11.335604667663574 15.6337308883667 C11.488926887512207 15.623509407043457 11.580920219421387 15.459966659545898 11.580920219421387 15.286201477050781 M11.826234817504883 15.439523696899414 C11.81601333618164 15.204429626464844 11.989778518676758 15.010221481323242 12.224871635437012 14.989778518676758 L12.245315551757812 14.989778518676758 C12.316864967346191 14.989778518676758 12.388415336608887 15.010221481323242 12.44974422454834 15.061328887939453 L12.429301261901855 15.153322219848633 L12.367972373962402 15.153322219848633 C12.337307929992676 15.112436294555664 12.286200523376465 15.09199333190918 12.235093116760254 15.102214813232422 C12.061328887939453 15.102214813232422 11.959114074707031 15.255537033081055 11.959114074707031 15.439523696899414 C11.959114074707031 15.562180519104004 12.010221481323242 15.623509407043457 12.12265682220459 15.623509407043457 C12.183985710144043 15.623509407043457 12.245315551757812 15.603066444396973 12.296422958374023 15.572402000427246 L12.347530364990234 15.572402000427246 L12.327086448669434 15.674616813659668 C12.26575756072998 15.715502738952637 12.183985710144043 15.735945701599121 12.112436294555664 15.735945701599121 C11.969335556030273 15.746167182922363 11.836456298828125 15.643953323364258 11.826234817504883 15.500852584838867 L11.826234817504883 15.439523696899414 M12.6337308883667 15.0 L12.705281257629395 15.0 C12.756388664245605 15.0 12.776830673217773 15.010221481323242 12.756388664245605 15.102214813232422 L12.613287925720215 15.715502738952637 L12.470187187194824 15.715502738952637 L12.6337308883667 15.0 M12.654173851013184 14.846677780151367 C12.654173851013184 14.805791854858398 12.695058822631836 14.76490592956543 12.735944747924805 14.76490592956543 C12.776830673217773 14.76490592956543 12.817717552185059 14.795570373535156 12.817717552185059 14.836457252502441 C12.817717552185059 14.87734317779541 12.776830673217773 14.918228149414062 12.735944747924805 14.918228149414062 C12.684837341308594 14.928450584411621 12.654173851013184 14.887563705444336 12.654173851013184 14.846677780151367 M13.185689926147461 15.643953323364258 C13.13458251953125 15.695059776306152 13.063032150268555 15.725724220275879 12.991482734680176 15.725724220275879 C12.89948844909668 15.735945701599121 12.807496070861816 15.664395332336426 12.797273635864258 15.572402000427246 L12.797273635864258 15.541738510131836 C12.797273635864258 15.388416290283203 12.919931411743164 15.296422958374023 13.103918075561523 15.296422958374023 C13.155025482177734 15.296422958374023 13.206132888793945 15.306644439697266 13.247018814086914 15.316865921020508 L13.25723934173584 15.255537033081055 C13.287904739379883 15.14310073852539 13.236797332763672 15.09199333190918 13.144804954528809 15.09199333190918 C13.07325267791748 15.09199333190918 13.011924743652344 15.112436294555664 12.95059585571289 15.14310073852539 L12.909710884094238 15.14310073852539 L12.930152893066406 15.040885925292969 C13.001703262329102 15.010221481323242 13.083475112915039 14.989778518676758 13.165246963500977 14.989778518676758 C13.339012145996094 14.989778518676758 13.4412260055542 15.071550369262695 13.400341033935547 15.275979995727539 L13.298126220703125 15.725724220275879 L13.25723934173584 15.725724220275879 C13.216354370117188 15.725724220275879 13.185689926147461 15.705281257629395 13.175467491149902 15.664395332336426 C13.185689926147461 15.654173851013184 13.185689926147461 15.654173851013184 13.185689926147461 15.643953323364258 L13.185689926147461 15.643953323364258 M13.206132888793945 15.551959991455078 L13.236797332763672 15.398637771606445 C13.195911407470703 15.388416290283203 13.155025482177734 15.378193855285645 13.114139556884766 15.378193855285645 C12.991482734680176 15.378193855285645 12.930152893066406 15.429301261901855 12.930152893066406 15.531516075134277 C12.930152893066406 15.582623481750488 12.971038818359375 15.6337308883667 13.022146224975586 15.6337308883667 L13.042590141296387 15.6337308883667 C13.103918075561523 15.6337308883667 13.165246963500977 15.603066444396973 13.206132888793945 15.551959991455078 M13.543440818786621 15.511073112487793 L13.635433197021484 15.102214813232422 L13.55366325378418 15.102214813232422 L13.574106216430664 15.0 L13.655878067016602 15.0 L13.696763038635254 14.805791854858398 L13.839862823486328 14.805791854858398 L13.798977851867676 15.0 L13.94207763671875 15.0 L13.921634674072266 15.102214813232422 L13.768312454223633 15.102214813232422 L13.67632007598877 15.521294593811035 C13.655878067016602 15.592845916748047 13.686540603637695 15.6337308883667 13.758092880249023 15.6337308883667 L13.809200286865234 15.6337308883667 L13.788755416870117 15.715502738952637 C13.758092880249023 15.725724220275879 13.717206001281738 15.725724220275879 13.686540603637695 15.725724220275879 C13.563883781433105 15.725724220275879 13.512776374816895 15.654173851013184 13.543440818786621 15.511073112487793 L13.543440818786621 15.511073112487793 M14.105621337890625 15.0 L14.17717170715332 15.0 C14.228279113769531 15.0 14.248722076416016 15.010221481323242 14.228279113769531 15.102214813232422 L14.085179328918457 15.715502738952637 L13.94207763671875 15.715502738952637 L14.105621337890625 15.0 M14.136285781860352 14.846677780151367 C14.136285781860352 14.805791854858398 14.17717170715332 14.76490592956543 14.218058586120605 14.76490592956543 C14.258943557739258 14.76490592956543 14.29982852935791 14.795570373535156 14.29982852935791 14.836457252502441 C14.29982852935791 14.87734317779541 14.258943557739258 14.918228149414062 14.218058586120605 14.918228149414062 C14.166951179504395 14.928450584411621 14.136285781860352 14.887563705444336 14.136285781860352 14.846677780151367 M14.310050964355469 15.439523696899414 C14.310050964355469 15.18398666381836 14.48381519317627 15.0 14.698467254638672 15.0 C14.851788520812988 14.989778518676758 14.984668731689453 15.102214813232422 14.994888305664062 15.255537033081055 L14.994888305664062 15.296422958374023 C14.994888305664062 15.551959991455078 14.83134651184082 15.735945701599121 14.606472969055176 15.735945701599121 C14.453150749206543 15.746167182922363 14.320272445678711 15.643953323364258 14.310050964355469 15.490631103515625 L14.310050964355469 15.439523696899414 M14.862009048461914 15.286201477050781 C14.862009048461914 15.153322219848633 14.800682067871094 15.09199333190918 14.698467254638672 15.09199333190918 C14.545145034790039 15.09199333190918 14.453150749206543 15.255537033081055 14.453150749206543 15.439523696899414 C14.453150749206543 15.572402000427246 14.514480590820312 15.6337308883667 14.616695404052734 15.6337308883667 C14.77001667022705 15.623509407043457 14.862009048461914 15.459966659545898 14.862009048461914 15.286201477050781 M15.229982376098633 15.0 L15.270868301391602 15.0 C15.342419624328613 15.0 15.352640151977539 15.040885925292969 15.342419624328613 15.112436294555664 C15.424190521240234 15.040885925292969 15.52640438079834 15.0 15.63884162902832 14.989778518676758 C15.751277923583984 14.989778518676758 15.812605857849121 15.071550369262695 15.781941413879395 15.214651107788086 L15.669506072998047 15.715502738952637 L15.57751178741455 15.715502738952637 C15.536626815795898 15.715502738952637 15.52640438079834 15.705281257629395 15.536626815795898 15.643953323364258 L15.63884162902832 15.214651107788086 C15.659283638000488 15.132879257202148 15.628619194030762 15.09199333190918 15.567291259765625 15.09199333190918 C15.475296974182129 15.102214813232422 15.393527030944824 15.132879257202148 15.321975708007812 15.194208145141602 L15.199317932128906 15.705281257629395 L15.056218147277832 15.705281257629395 L15.229982376098633 15.0 M16.374786376953125 14.76490592956543 L16.528108596801758 14.76490592956543 L16.333900451660156 15.613287925720215 L16.77342414855957 15.613287925720215 L16.742759704589844 15.725724220275879 L16.160137176513672 15.725724220275879 L16.374786376953125 14.76490592956543 M16.875638961791992 15.439523696899414 C16.875638961791992 15.204429626464844 17.028961181640625 14.989778518676758 17.264053344726562 14.989778518676758 C17.3867130279541 14.979557037353516 17.488927841186523 15.061328887939453 17.509368896484375 15.18398666381836 L17.509368896484375 15.23509407043457 C17.509368896484375 15.286201477050781 17.499147415161133 15.337308883666992 17.488927841186523 15.388416290283203 L17.018739700317383 15.388416290283203 L17.018739700317383 15.439523696899414 C17.018739700317383 15.562180519104004 17.069847106933594 15.623509407043457 17.1925048828125 15.623509407043457 C17.264053344726562 15.623509407043457 17.33560562133789 15.603066444396973 17.3867130279541 15.562180519104004 L17.437820434570312 15.562180519104004 L17.417375564575195 15.664395332336426 C17.3458251953125 15.705281257629395 17.264053344726562 15.725724220275879 17.182283401489258 15.725724220275879 C17.039180755615234 15.746167182922363 16.90630340576172 15.6337308883667 16.896081924438477 15.490631103515625 C16.86541748046875 15.480408668518066 16.86541748046875 15.459966659545898 16.875638961791992 15.439523696899414 L16.875638961791992 15.439523696899414 M17.028961181640625 15.296422958374023 L17.366268157958984 15.296422958374023 C17.37649154663086 15.275979995727539 17.37649154663086 15.245315551757812 17.37649154663086 15.224872589111328 C17.37649154663086 15.132879257202148 17.325382232666016 15.081771850585938 17.253833770751953 15.081771850585938 C17.141395568847656 15.09199333190918 17.05962371826172 15.173765182495117 17.028961181640625 15.296422958374023 L17.028961181640625 15.296422958374023 M17.938671112060547 15.643953323364258 C17.887563705444336 15.695059776306152 17.81601333618164 15.725724220275879 17.744464874267578 15.725724220275879 C17.652469635009766 15.735945701599121 17.56047821044922 15.664395332336426 17.550254821777344 15.572402000427246 L17.550254821777344 15.541738510131836 C17.550254821777344 15.388416290283203 17.67291259765625 15.296422958374023 17.85689926147461 15.296422958374023 C17.90800666809082 15.296422958374023 17.95911407470703 15.306644439697266 18.0 15.316865921020508 L18.010221481323242 15.255537033081055 C18.04088592529297 15.14310073852539 17.989778518676758 15.09199333190918 17.897785186767578 15.09199333190918 C17.826234817504883 15.09199333190918 17.76490592956543 15.112436294555664 17.703577041625977 15.14310073852539 L17.662691116333008 15.14310073852539 L17.683134078979492 15.040885925292969 C17.754684448242188 15.010221481323242 17.836456298828125 14.989778518676758 17.918228149414062 14.989778518676758 C18.09199333190918 14.989778518676758 18.1942081451416 15.071550369262695 18.153322219848633 15.275979995727539 L18.05110740661621 15.725724220275879 L18.010221481323242 15.725724220275879 C17.969335556030273 15.725724220275879 17.938671112060547 15.705281257629395 17.928447723388672 15.664395332336426 C17.938671112060547 15.654173851013184 17.938671112060547 15.654173851013184 17.938671112060547 15.643953323364258 L17.938671112060547 15.643953323364258 M17.95911407470703 15.551959991455078 L17.989778518676758 15.398637771606445 C17.94889259338379 15.388416290283203 17.90800666809082 15.378193855285645 17.86712074279785 15.378193855285645 C17.744464874267578 15.378193855285645 17.683134078979492 15.429301261901855 17.683134078979492 15.531516075134277 C17.683134078979492 15.582623481750488 17.72402000427246 15.6337308883667 17.775127410888672 15.6337308883667 L17.795570373535156 15.6337308883667 C17.85689926147461 15.6337308883667 17.918228149414062 15.603066444396973 17.95911407470703 15.551959991455078 M18.725723266601562 15.623509407043457 C18.664396286010742 15.68483829498291 18.582622528076172 15.725724220275879 18.490629196166992 15.735945701599121 C18.36797332763672 15.735945701599121 18.265758514404297 15.664395332336426 18.265758514404297 15.480408668518066 C18.265758514404297 15.224872589111328 18.429302215576172 15.0 18.664396286010742 15.0 C18.735946655273438 14.989778518676758 18.8074951171875 15.020442962646484 18.84838104248047 15.071550369262695 L18.919933319091797 14.76490592956543 L18.99148178100586 14.76490592956543 C19.04258918762207 14.76490592956543 19.052810668945312 14.775128364562988 19.032367706298828 14.85689926147461 L18.827938079833984 15.725724220275879 L18.8074951171875 15.725724220275879 C18.735946655273438 15.725724220275879 18.725723266601562 15.674616813659668 18.725723266601562 15.623509407043457 M18.746166229248047 15.531516075134277 L18.827938079833984 15.163543701171875 C18.797273635864258 15.122657775878906 18.735946655273438 15.102214813232422 18.684837341308594 15.102214813232422 C18.51107406616211 15.102214813232422 18.408859252929688 15.275979995727539 18.408859252929688 15.470187187194824 C18.408859252929688 15.582623481750488 18.449745178222656 15.623509407043457 18.531517028808594 15.623509407043457 C18.62350845336914 15.623509407043457 18.695058822631836 15.582623481750488 18.746166229248047 15.531516075134277 M19.073253631591797 15.439523696899414 C19.073253631591797 15.204429626464844 19.22657585144043 14.989778518676758 19.461668014526367 14.989778518676758 C19.584327697753906 14.979557037353516 19.686542510986328 15.061328887939453 19.706985473632812 15.18398666381836 L19.706985473632812 15.23509407043457 C19.706985473632812 15.286201477050781 19.696762084960938 15.337308883666992 19.686542510986328 15.388416290283203 L19.216354370117188 15.388416290283203 L19.216354370117188 15.439523696899414 C19.216354370117188 15.562180519104004 19.2674617767334 15.623509407043457 19.390117645263672 15.623509407043457 C19.461668014526367 15.623509407043457 19.533220291137695 15.603066444396973 19.584327697753906 15.562180519104004 L19.635435104370117 15.562180519104004 L19.614990234375 15.664395332336426 C19.543441772460938 15.705281257629395 19.461668014526367 15.725724220275879 19.379898071289062 15.725724220275879 C19.236797332763672 15.746167182922363 19.10391616821289 15.643953323364258 19.08347511291504 15.490631103515625 C19.073253631591797 15.480408668518066 19.073253631591797 15.459966659545898 19.073253631591797 15.439523696899414 L19.073253631591797 15.439523696899414 M19.22657585144043 15.296422958374023 L19.56388282775879 15.296422958374023 C19.57410430908203 15.275979995727539 19.57410430908203 15.245315551757812 19.57410430908203 15.224872589111328 C19.57410430908203 15.132879257202148 19.522998809814453 15.081771850585938 19.451448440551758 15.081771850585938 C19.339012145996094 15.09199333190918 19.257240295410156 15.173765182495117 19.22657585144043 15.296422958374023 L19.22657585144043 15.296422958374023 M19.911415100097656 15.0 L19.952299118041992 15.0 C20.023849487304688 15.0 20.03407096862793 15.051107406616211 20.023849487304688 15.122657775878906 C20.0749568939209 15.051107406616211 20.156728744506836 15.0 20.248722076416016 15.0 L20.289608001708984 15.0 L20.258943557739258 15.122657775878906 L20.238500595092773 15.122657775878906 C20.146507263183594 15.122657775878906 20.064735412597656 15.163543701171875 20.003406524658203 15.23509407043457 L19.890972137451172 15.725724220275879 L19.74786949157715 15.725724220275879 L19.911415100097656 15.0 M20.238500595092773 15.654173851013184 L20.258943557739258 15.551959991455078 L20.31005096435547 15.551959991455078 C20.350936889648438 15.603066444396973 20.41226577758789 15.623509407043457 20.483814239501953 15.623509407043457 C20.586029052734375 15.623509407043457 20.63713836669922 15.582623481750488 20.63713836669922 15.511073112487793 C20.63713836669922 15.459966659545898 20.59625244140625 15.439523696899414 20.524702072143555 15.408859252929688 C20.41226577758789 15.367973327636719 20.340715408325195 15.327086448669434 20.340715408325195 15.214651107788086 C20.340715408325195 15.071550369262695 20.442930221557617 14.989778518676758 20.616695404052734 14.989778518676758 C20.698467254638672 14.989778518676758 20.770015716552734 15.010221481323242 20.831344604492188 15.051107406616211 L20.810903549194336 15.14310073852539 L20.759796142578125 15.14310073852539 C20.718910217285156 15.102214813232422 20.657581329345703 15.081771850585938 20.606473922729492 15.081771850585938 C20.514480590820312 15.081771850585938 20.46337127685547 15.122657775878906 20.46337127685547 15.18398666381836 C20.46337127685547 15.245315551757812 20.494037628173828 15.255537033081055 20.586029052734375 15.286201477050781 C20.698467254638672 15.327086448669434 20.770015716552734 15.357751846313477 20.770015716552734 15.470187187194824 C20.770015716552734 15.613287925720215 20.667800903320312 15.715502738952637 20.483814239501953 15.715502738952637 C20.40204429626465 15.735945701599121 20.31005096435547 15.705281257629395 20.238500595092773 15.654173851013184 L20.238500595092773 15.654173851013184 M21.086883544921875 14.76490592956543 L21.168655395507812 14.76490592956543 C21.20953941345215 14.76490592956543 21.21976089477539 14.775128364562988 21.20953941345215 14.85689926147461 L21.148210525512695 15.112436294555664 C21.229982376098633 15.040885925292969 21.332197189331055 15.0 21.44463348388672 15.0 C21.55706787109375 15.0 21.618398666381836 15.081771850585938 21.58773422241211 15.224872589111328 L21.475299835205078 15.725724220275879 L21.383304595947266 15.725724220275879 C21.342418670654297 15.725724220275879 21.332197189331055 15.715502738952637 21.342418670654297 15.654173851013184 L21.44463348388672 15.224872589111328 C21.465076446533203 15.14310073852539 21.434412002563477 15.102214813232422 21.373085021972656 15.102214813232422 C21.281089782714844 15.112436294555664 21.199317932128906 15.14310073852539 21.12776756286621 15.204429626464844 L21.015331268310547 15.715502738952637 L20.872230529785156 15.715502738952637 L21.086883544921875 14.76490592956543 M21.812606811523438 15.0 L21.884157180786133 15.0 C21.935264587402344 15.0 21.955707550048828 15.010221481323242 21.935264587402344 15.102214813232422 L21.792163848876953 15.715502738952637 L21.649063110351562 15.715502738952637 L21.812606811523438 15.0 M21.833049774169922 14.846677780151367 C21.833049774169922 14.805791854858398 21.87393569946289 14.76490592956543 21.91482162475586 14.76490592956543 C21.955707550048828 14.76490592956543 21.986371994018555 14.805791854858398 21.986371994018555 14.846677780151367 C21.986371994018555 14.887563705444336 21.945484161376953 14.928450584411621 21.904600143432617 14.928450584411621 C21.87393569946289 14.928450584411621 21.833049774169922 14.887563705444336 21.833049774169922 14.846677780151367 M22.149913787841797 15.0 L22.190799713134766 15.0 C22.25212860107422 15.0 22.272571563720703 15.040885925292969 22.262351989746094 15.102214813232422 C22.323678970336914 15.030664443969727 22.415672302246094 14.989778518676758 22.507665634155273 14.989778518676758 C22.620101928710938 14.989778518676758 22.712093353271484 15.061328887939453 22.712093353271484 15.245315551757812 C22.712093353271484 15.521294593811035 22.558773040771484 15.715502738952637 22.333900451660156 15.715502738952637 C22.262351989746094 15.715502738952637 22.190799713134766 15.695059776306152 22.139694213867188 15.643953323364258 L22.06814193725586 15.940374374389648 L21.92504119873047 15.940374374389648 L22.149913787841797 15.0 M22.24190902709961 15.204429626464844 L22.160137176513672 15.562180519104004 C22.201021194458008 15.603066444396973 22.25212860107422 15.623509407043457 22.313457489013672 15.623509407043457 C22.48722267150879 15.623509407043457 22.57921600341797 15.459966659545898 22.57921600341797 15.255537033081055 C22.57921600341797 15.14310073852539 22.528106689453125 15.102214813232422 22.456558227539062 15.102214813232422 C22.374786376953125 15.112436294555664 22.30323600769043 15.14310073852539 22.24190902709961 15.204429626464844" fill="black" fill-opacity="1.0" filling="0"/></svg>