<?xml version="1.0" encoding="iso-8859-1"?><svg height="200px" viewBox="0.0 0.0 24.0 24.0" width="200px" xmlns="http://www.w3.org/2000/svg"><path animation_id="0" d="M0.0 0.0 L24.0 0.0 L24.0 24.0 L0.0 24.0 L0.0 0.0" fill="black" fill-opacity="1.0" filling="0"/>
<path animation_id="1" d="M12.148913383483887 5.153458118438721 A0.5807134509086609 0.5807134509086609 0.0 0 0 11.048746109008789 5.132540702819824 L10.122268676757812 8.072962760925293 L7.157691478729248 8.07159423828125 C6.842184066772461 8.077445030212402 6.588308811187744 8.338790893554688 6.588308811187744 8.65554428100586 C6.588308811187744 8.846542358398438 6.680445671081543 9.030567169189453 6.822760581970215 9.136276245117188 L9.217082977294922 10.931208610534668 L8.317376136779785 13.78883171081543 C8.293967247009277 13.85183334350586 8.273796081542969 13.919939994812012 8.273796081542969 13.99116039276123 A0.5802153944969177 0.5802153944969177 0.0 0 0 8.85426139831543 14.571374893188477 C8.99445915222168 14.571374893188477 9.156073570251465 14.503517150878906 9.256427764892578 14.420594215393066 L11.573305130004883 12.693768501281738 L13.924298286437988 14.457075119018555 A0.5803399085998535 0.5803399085998535 0.0 0 0 14.819896697998047 13.804145812988281 L13.933013916015625 10.938554763793945 L16.39382553100586 9.111249923706055 C16.533899307250977 9.005290985107422 16.60225486755371 8.844550132751465 16.60225486755371 8.65554428100586 A0.5803399085998535 0.5803399085998535 0.0 0 0 16.022037506103516 8.075079917907715 L13.053726196289062 8.075079917907715 L12.148913383483887 5.153458118438721" fill="black" fill-opacity="1.0" filling="0"/>
<path animation_id="2" d="M7.015626430511475 8.830355644226074 A0.22474008798599243 0.22474008798599243 0.0 0 1 6.932578086853027 8.655668258666992 C6.932578086853027 8.535516738891602 7.030069351196289 8.43441390991211 7.15022087097168 8.43441390991211 L10.385980606079102 8.43441390991211 L11.394384384155273 5.253937721252441 C11.468841552734375 5.170392036437988 11.501214027404785 5.110751628875732 11.595343589782715 5.110751628875732 C11.691465377807617 5.110751628875732 11.773018836975098 5.173006534576416 11.801905632019043 5.259540557861328 L12.782669067382812 8.439518928527832 L16.02216339111328 8.438024520874023 C16.142314910888672 8.438024520874023 16.250762939453125 8.524435043334961 16.250762939453125 8.6447114944458 C16.250762939453125 8.709580421447754 16.229846954345703 8.782419204711914 16.18489646911621 8.82226276397705 L13.512046813964844 10.8066987991333 L14.471892356872559 13.917823791503906 C14.479860305786133 13.940982818603516 14.488203048706055 13.965511322021484 14.488203048706055 13.99128532409668 C14.488203048706055 14.11143684387207 14.390711784362793 14.208928108215332 14.270559310913086 14.208928108215332 C14.21876335144043 14.208928108215332 14.164104461669922 14.190874099731445 14.126875877380371 14.16074275970459 L11.573430061340332 12.246903419494629 L9.013259887695312 14.154268264770508 C8.9749116897583 14.18825912475586 8.90966796875 14.208928108215332 8.85426139831543 14.208928108215332 A0.21776753664016724 0.21776753664016724 0.0 0 1 8.64969253540039 13.916828155517578 L9.642159461975098 10.799352645874023 L7.015626430511475 8.830355644226074 L7.015626430511475 8.830355644226074" fill="black" fill-opacity="1.0" filling="0"/>
<path animation_id="3" d="M10.415365219116211 8.76200008392334 C10.301687240600586 8.76200008392334 10.243167877197266 8.850028991699219 10.243167877197266 8.919629096984863 C10.243167877197266 8.989230155944824 10.283509254455566 9.07352352142334 10.40440845489502 9.040528297424316 C10.525306701660156 9.007533073425293 10.690157890319824 9.033182144165039 10.767229080200195 9.047874450683594 C10.816162109375 9.057211875915527 10.906556129455566 8.974662780761719 10.80383586883545 8.893980026245117 C10.701114654541016 8.813297271728516 10.591297149658203 8.765610694885254 10.415365219116211 8.76200008392334 C10.415365219116211 8.76200008392334 10.591297149658203 8.765610694885254 10.415365219116211 8.76200008392334 M10.37514877319336 9.593849182128906 C10.279772758483887 9.579156875610352 10.235821723937988 9.645147323608398 10.254124641418457 9.740397453308105 C10.272427558898926 9.835647583007812 10.411754608154297 9.934633255004883 10.572994232177734 9.820955276489258 C10.734233856201172 9.707277297973633 10.831850051879883 9.721471786499023 10.906556129455566 9.751354217529297 C10.99807071685791 9.787960052490234 11.144742965698242 9.795306205749512 11.177738189697266 9.667060852050781 C11.210733413696289 9.538816452026367 11.155699729919434 9.476561546325684 11.027454376220703 9.476561546325684 C10.899209976196289 9.476561546325684 10.866214752197266 9.428873062133789 10.829607963562012 9.406835556030273 C10.793002128601074 9.38492202758789 10.66475772857666 9.355537414550781 10.565773010253906 9.476561546325684 C10.466787338256836 9.59758472442627 10.415365219116211 9.593849182128906 10.37514877319336 9.593849182128906 C10.37514877319336 9.593849182128906 10.415365219116211 9.593849182128906 10.37514877319336 9.593849182128906 M12.738716125488281 8.76200008392334 C12.852269172668457 8.76200008392334 12.910913467407227 8.850028991699219 12.910913467407227 8.919629096984863 C12.910913467407227 8.989230155944824 12.870573043823242 9.07352352142334 12.749673843383789 9.040528297424316 C12.628774642944336 9.007533073425293 12.463923454284668 9.033182144165039 12.386852264404297 9.047874450683594 C12.337920188903809 9.057211875915527 12.247774124145508 8.974662780761719 12.350370407104492 8.893980026245117 C12.452966690063477 8.813297271728516 12.562784194946289 8.765610694885254 12.738716125488281 8.76200008392334 C12.738716125488281 8.76200008392334 12.562784194946289 8.765610694885254 12.738716125488281 8.76200008392334 L12.738716125488281 8.76200008392334 M12.779057502746582 9.593849182128906 C12.874432563781738 9.579156875610352 12.918134689331055 9.645147323608398 12.899956703186035 9.740397453308105 C12.8817777633667 9.835647583007812 12.742326736450195 9.934633255004883 12.581087112426758 9.820955276489258 C12.41984748840332 9.707277297973633 12.322356224060059 9.721471786499023 12.247650146484375 9.751354217529297 C12.156010627746582 9.787960052490234 12.00933837890625 9.795306205749512 11.976468086242676 9.667060852050781 C11.943472862243652 9.538816452026367 11.998381614685059 9.476561546325684 12.126875877380371 9.476561546325684 C12.254996299743652 9.476561546325684 12.288115501403809 9.428873062133789 12.324597358703613 9.406835556030273 C12.361327171325684 9.38492202758789 12.489447593688965 9.355537414550781 12.588432312011719 9.476561546325684 C12.687418937683105 9.59758472442627 12.738716125488281 9.593849182128906 12.779057502746582 9.593849182128906 C12.779057502746582 9.593849182128906 12.738716125488281 9.593849182128906 12.779057502746582 9.593849182128906 L12.779057502746582 9.593849182128906 M11.214219093322754 10.191122055053711 C11.214219093322754 10.102347373962402 11.376580238342285 10.030380249023438 11.577040672302246 10.030380249023438 C11.777376174926758 10.030380249023438 11.939861297607422 10.102347373962402 11.939861297607422 10.191122055053711 C11.939861297607422 10.279772758483887 11.777376174926758 10.351739883422852 11.577040672302246 10.351739883422852 C11.376704216003418 10.351739883422852 11.214219093322754 10.279772758483887 11.214219093322754 10.191122055053711 M11.573430061340332 11.499346733093262 C12.254996299743652 11.499346733093262 12.548091888427734 11.063313484191895 12.683683395385742 10.883770942687988 C12.833966255187988 10.956981658935547 12.969432830810547 10.971674919128418 13.009774208068848 10.898338317871094 C13.050114631652832 10.825126647949219 12.987859725952148 10.744443893432617 12.940173149108887 10.73709774017334 C12.892485618591309 10.729751586914062 12.826620101928711 10.70783805847168 12.793500900268555 10.663887023925781 C12.738592147827148 10.597895622253418 12.738592147827148 10.579468727111816 12.72028923034668 10.520949363708496 C12.701861381530762 10.462305068969727 12.610346794128418 10.363444328308105 12.540621757507324 10.447737693786621 C12.471020698547363 10.53203010559082 12.511486053466797 10.682188987731934 12.544232368469238 10.755525588989258 C12.412376403808594 10.938803672790527 12.056900978088379 11.250203132629395 11.573305130004883 11.250203132629395 C11.089709281921387 11.250203132629395 10.734109878540039 10.938803672790527 10.602128982543945 10.755525588989258 C10.635124206542969 10.682188987731934 10.67546558380127 10.53203010559082 10.605864524841309 10.447737693786621 C10.536263465881348 10.363444328308105 10.444624900817871 10.46242904663086 10.426321029663086 10.520949363708496 C10.408019065856934 10.579593658447266 10.408019065856934 10.597895622253418 10.352985382080078 10.663887023925781 C10.319990158081055 10.70783805847168 10.254000663757324 10.729751586914062 10.206437110900879 10.73709774017334 C10.15887451171875 10.744443893432617 10.096494674682617 10.825126647949219 10.136837005615234 10.898338317871094 C10.177053451538086 10.971674919128418 10.312768936157227 10.956981658935547 10.462926864624023 10.883770942687988 C10.59864330291748 11.063188552856445 10.891738891601562 11.499346733093262 11.573430061340332 11.499346733093262 C11.573430061340332 11.499346733093262 10.891738891601562 11.499346733093262 11.573430061340332 11.499346733093262 L11.573430061340332 11.499346733093262 M3.1456146240234375 15.205005645751953 C3.3595218658447266 15.205005645751953 3.5059452056884766 15.351428985595703 3.5059452056884766 15.565461158752441 C3.5059452056884766 15.75683307647705 3.4608726501464844 15.942352294921875 3.4608726501464844 16.133724212646484 C3.4608726501464844 16.285749435424805 3.5059452056884766 16.437652587890625 3.5059452056884766 16.589679718017578 C3.5059452056884766 16.84865951538086 3.351801872253418 16.978023529052734 3.1210861206054688 16.978023529052734 C2.817157745361328 16.978023529052734 2.676337242126465 16.837451934814453 2.693270683288574 16.533523559570312 C2.698873519897461 16.37029266357422 2.7046003341674805 16.291351318359375 2.592043876647949 16.1619873046875 C2.4681568145751953 16.02701759338379 2.200211524963379 15.98767375946045 2.025649070739746 15.98767375946045 C1.53271484375 15.98767375946045 1.433730125427246 16.691152572631836 1.433730125427246 17.23712921142578 C1.433730125427246 17.816844940185547 1.53271484375 18.45309066772461 2.0536632537841797 18.45309066772461 C2.205690383911133 18.45309066772461 2.4624290466308594 18.430431365966797 2.57511043548584 18.323474884033203 C2.710203170776367 18.19971466064453 2.7158069610595703 18.075950622558594 2.7158069610595703 17.90686798095703 C2.710203170776367 17.77750015258789 2.7046003341674805 17.676025390625 2.7890186309814453 17.563718795776367 C2.8678321838378906 17.451160430908203 2.9973230361938477 17.405839920043945 3.132415771484375 17.405839920043945 C3.4982261657714844 17.405839920043945 3.573554039001465 17.670421600341797 3.573554039001465 18.008216857910156 C3.573554039001465 18.858121871948242 2.768723487854004 19.252071380615234 2.0144433975219727 19.252071380615234 C1.5023345947265625 19.252071380615234 1.1974096298217773 19.105648040771484 0.8372030258178711 18.717300415039062 C0.49953365325927734 18.351490020751953 0.35310935974121094 17.7380313873291 0.35310935974121094 17.248210906982422 C0.35310935974121094 16.8037109375 0.44885826110839844 16.22947120666504 0.696507453918457 15.85233211517334 C0.9892301559448242 15.419037818908691 1.2996320724487305 15.182594299316406 1.8230714797973633 15.182594299316406 C2.2058143615722656 15.182594299316406 2.5266761779785156 15.25680160522461 2.7968626022338867 15.538068771362305 C2.768474578857422 15.312955856323242 2.9837512969970703 15.205005645751953 3.1456146240234375 15.205005645751953 C3.1456146240234375 15.205005645751953 2.9837512969970703 15.205005645751953 3.1456146240234375 15.205005645751953 L3.1456146240234375 15.205005645751953 M8.467409133911133 16.496545791625977 C8.634501457214355 16.293468475341797 8.886758804321289 16.18452262878418 9.193799018859863 16.18452262878418 C9.587747573852539 16.18452262878418 9.81946086883545 16.541492462158203 9.81946086883545 16.94664764404297 C9.81946086883545 17.2338924407959 9.639419555664062 17.498226165771484 9.335367202758789 17.498226165771484 C9.1214599609375 17.498226165771484 8.941293716430664 17.357654571533203 8.941293716430664 17.132415771484375 C8.941293716430664 17.05360221862793 8.933574676513672 16.908174514770508 9.008903503417969 16.912782669067383 C8.465790748596191 16.8787899017334 8.478864669799805 17.664695739746094 8.478864669799805 18.115047454833984 C8.478864669799805 18.18825912475586 8.456328392028809 18.508995056152344 8.58009147644043 18.508995056152344 C8.636369705200195 18.508995056152344 8.8099365234375 18.46965217590332 8.883148193359375 18.46965217590332 C9.068916320800781 18.46965217590332 9.130797386169434 18.62167739868164 9.130797386169434 18.790386199951172 C9.130797386169434 19.00442123413086 9.035049438476562 19.178733825683594 8.849405288696289 19.178733825683594 C8.545477867126465 19.17313003540039 8.203075408935547 19.12257957458496 7.97223424911499 19.12257957458496 C7.758327007293701 19.12257957458496 7.500467300415039 19.17313003540039 7.297765254974365 19.178733825683594 C7.111996650695801 19.178733825683594 7.016373157501221 19.00442123413086 7.016373157501221 18.790386199951172 C7.016373157501221 18.62167739868164 7.078254222869873 18.46965217590332 7.2640228271484375 18.46965217590332 C7.33711051940918 18.46965217590332 7.437465190887451 18.508995056152344 7.493743419647217 18.508995056152344 C7.617630481719971 18.508995056152344 7.595094680786133 18.18825912475586 7.595094680786133 18.115047454833984 L7.595094680786133 17.304489135742188 C7.595094680786133 17.231277465820312 7.617630481719971 16.910539627075195 7.493743419647217 16.910539627075195 C7.437465190887451 16.910539627075195 7.322542667388916 16.94988441467285 7.249455451965332 16.94988441467285 C7.063686847686768 16.94988441467285 7.001805782318115 16.79785919189453 7.001805782318115 16.62889862060547 C7.001805782318115 16.415115356445312 7.097553730010986 16.240554809570312 7.283197402954102 16.240554809570312 C7.44642972946167 16.246156692504883 7.617630481719971 16.29695701599121 7.73018741607666 16.29695701599121 C7.853950023651123 16.29695701599121 7.97223424911499 16.246156692504883 8.101600646972656 16.240554809570312 C8.26483154296875 16.240554809570312 8.27603816986084 16.35310935974121 8.27603816986084 16.482723236083984 C8.275291442871094 16.614952087402344 8.395816802978516 16.58320426940918 8.467409133911133 16.496545791625977 C8.467409133911133 16.496545791625977 8.395816802978516 16.58320426940918 8.467409133911133 16.496545791625977 L8.467409133911133 16.496545791625977" fill="black" fill-opacity="1.0" filling="0"/>
<path animation_id="4" d="M11.171138763427734 18.11517333984375 C11.171138763427734 18.188383102416992 11.148602485656738 18.50912094116211 11.272364616394043 18.50912094116211 C11.328643798828125 18.50912094116211 11.443565368652344 18.469776153564453 11.516777992248535 18.469776153564453 C11.702422142028809 18.469776153564453 11.76442813873291 18.621803283691406 11.76442813873291 18.790512084960938 C11.76442813873291 19.00454330444336 11.668804168701172 19.17885971069336 11.432360649108887 19.17885971069336 C11.190313339233398 19.173255920410156 10.906431198120117 19.122703552246094 10.675714492797852 19.122703552246094 C10.461807250976562 19.122703552246094 10.145303726196289 19.173255920410156 9.999004364013672 19.17885971069336 C9.700678825378418 19.17885971069336 9.604930877685547 19.00454330444336 9.604930877685547 18.790512084960938 C9.604930877685547 18.621803283691406 9.6668119430542 18.469776153564453 9.852580070495605 18.469776153564453 C9.925792694091797 18.469776153564453 10.084667205810547 18.50912094116211 10.140945434570312 18.50912094116211 C10.264832496643066 18.50912094116211 10.24229621887207 18.188383102416992 10.24229621887207 18.11517333984375 L10.24229621887207 16.383739471435547 C10.24229621887207 16.310775756835938 10.264832496643066 15.989789962768555 10.140945434570312 15.989789962768555 C10.084667205810547 15.989789962768555 9.969743728637695 16.029136657714844 9.89665699005127 16.029136657714844 C9.710887908935547 16.029136657714844 9.649007797241211 15.877108573913574 9.649007797241211 15.708398818969727 C9.649007797241211 15.494365692138672 9.744754791259766 15.320052146911621 10.042956352233887 15.320052146911621 C10.194982528686523 15.325654983520508 10.394323348999023 15.37620735168457 10.535018920898438 15.37620735168457 C10.687045097351074 15.37620735168457 10.833344459533691 15.325654983520508 10.990973472595215 15.320052146911621 C11.154205322265625 15.320052146911621 11.171014785766602 15.483283996582031 11.171014785766602 15.601444244384766 L11.171014785766602 18.11517333984375 L11.171138763427734 18.11517333984375 L11.171138763427734 18.11517333984375 M14.533648490905762 16.42096710205078 C14.545104026794434 16.22399139404297 14.586441040039062 16.179044723510742 14.766606330871582 16.179044723510742 C14.901823997497559 16.179044723510742 15.047998428344727 16.207061767578125 15.047998428344727 16.381622314453125 C15.047998428344727 16.505386352539062 15.00865364074707 16.61794090270996 15.00865364074707 16.753158569335938 C15.020109176635742 16.831974029541016 15.031314849853516 16.910789489746094 15.047998428344727 16.98375129699707 C15.0873441696167 17.158315658569336 14.929838180541992 17.28767967224121 14.721658706665039 17.28767967224121 C14.23744010925293 17.28767967224121 14.387723922729492 16.8037109375 13.937122344970703 16.8037109375 C13.863910675048828 16.8037109375 13.79069995880127 16.80931282043457 13.723091125488281 16.854263305664062 C13.666936874389648 16.888004302978516 13.627467155456543 16.96121597290039 13.627467155456543 17.034427642822266 C13.627467155456543 17.220195770263672 13.8412504196167 17.253814697265625 13.982070922851562 17.281951904296875 L14.223993301391602 17.326900482177734 C14.792505264282227 17.428253173828125 15.299135208129883 17.54653549194336 15.299135208129883 18.244413375854492 C15.299135208129883 18.880535125732422 14.702608108520508 19.25194549560547 14.111684799194336 19.25194549560547 C13.77949333190918 19.25194549560547 13.441699028015137 19.14499282836914 13.188570976257324 18.92560577392578 C13.199775695800781 19.099918365478516 13.081616401672363 19.20139503479004 12.906929016113281 19.20139503479004 C12.73261547088623 19.20139503479004 12.580589294433594 19.15644645690918 12.580589294433594 18.948017120361328 C12.580589294433594 18.835460662841797 12.60885238647461 18.7286319732666 12.60885238647461 18.61022186279297 C12.60885238647461 18.497913360595703 12.58619213104248 18.39083480834961 12.580589294433594 18.27828025817871 C12.58619213104248 18.098114013671875 12.760505676269531 18.019298553466797 12.918383598327637 18.019298553466797 C13.126564979553223 18.019298553466797 13.210981369018555 18.0869083404541 13.323538780212402 18.250141143798828 C13.39114761352539 18.346012115478516 13.452903747558594 18.447114944458008 13.559858322143555 18.497913360595703 A0.9586005210876465 0.9586005210876465 0.0 0 0 13.970865249633789 18.593538284301758 C14.122891426086426 18.593538284301758 14.370416641235352 18.537384033203125 14.370416641235352 18.340408325195312 C14.370416641235352 18.109569549560547 14.032622337341309 18.087032318115234 13.863910675048828 18.053165435791016 C13.284193992614746 17.940608978271484 12.743821144104004 17.861793518066406 12.743821144104004 17.13565444946289 C12.743821144104004 16.522069931030273 13.199775695800781 16.156383514404297 13.796302795410156 16.156383514404297 C14.049678802490234 16.156383514404297 14.348005294799805 16.240802764892578 14.533648490905762 16.42096710205078 C14.533648490905762 16.42096710205078 14.348005294799805 16.240802764892578 14.533648490905762 16.42096710205078 L14.533648490905762 16.42096710205078 M18.606239318847656 16.538131713867188 C18.606239318847656 16.425575256347656 18.634252548217773 16.076574325561523 18.465415954589844 16.076574325561523 C18.375396728515625 16.076574325561523 18.120525360107422 16.11591911315918 18.036231994628906 16.11591911315918 C17.844860076904297 16.11591911315918 17.743633270263672 15.907489776611328 17.743633270263672 15.738779067993164 C17.743633270263672 15.491004943847656 17.884204864501953 15.334620475769043 18.137582778930664 15.334620475769043 C18.424579620361328 15.334620475769043 18.88202667236328 15.391022682189941 19.16889762878418 15.391022682189941 C19.371723175048828 15.391022682189941 19.653114318847656 15.334620475769043 19.939985275268555 15.334620475769043 C20.193363189697266 15.334620475769043 20.333934783935547 15.491004943847656 20.333934783935547 15.738779067993164 C20.333934783935547 15.907489776611328 20.232833862304688 16.11591911315918 20.041337966918945 16.11591911315918 C19.956920623779297 16.11591911315918 19.87810516357422 16.076574325561523 19.787960052490234 16.076574325561523 C19.619251251220703 16.076574325561523 19.57392692565918 16.425575256347656 19.57392692565918 16.538131713867188 L19.57392692565918 17.771774291992188 C19.57392692565918 18.244537353515625 19.52337646484375 18.55967140197754 19.13503074645996 18.874805450439453 C18.797237396240234 19.14499282836914 18.45408821105957 19.25194549560547 18.026397705078125 19.25194549560547 C17.31706428527832 19.25194549560547 16.53476905822754 18.863601684570312 16.53476905822754 18.058643341064453 C16.53476905822754 17.518272399902344 16.97366714477539 17.06816864013672 17.50843620300293 17.06816864013672 C17.857437133789062 17.06816864013672 18.201953887939453 17.31009292602539 18.201953887939453 17.69295883178711 C18.201953887939453 17.946086883544922 18.06574249267578 18.19386100769043 17.795555114746094 18.19386100769043 C17.615388870239258 18.19386100769043 17.542177200317383 18.13185691833496 17.46896743774414 17.974227905273438 C17.42962074279785 18.036231994628906 17.401357650756836 18.075576782226562 17.401357650756836 18.14293670654297 C17.401357650756836 18.407520294189453 17.694202423095703 18.503393173217773 17.913713455200195 18.503393173217773 C18.105085372924805 18.503393173217773 18.307662963867188 18.446990966796875 18.437028884887695 18.294963836669922 C18.61719512939453 18.081180572509766 18.605989456176758 17.8504638671875 18.605989456176758 17.585880279541016 L18.605989456176758 16.538131713867188 L18.606239318847656 16.538131713867188 L18.606239318847656 16.538131713867188 M23.647140502929688 18.661148071289062 C23.647140502929688 18.98748779296875 23.382556915283203 19.24646759033203 23.055967330932617 19.24646759033203 C22.735231399536133 19.24646759033203 22.47064781188965 18.98748779296875 22.47064781188965 18.661148071289062 C22.47064781188965 18.334806442260742 22.735231399536133 18.07582664489746 23.055967330932617 18.07582664489746 C23.382556915283203 18.07582664489746 23.647140502929688 18.334806442260742 23.647140502929688 18.661148071289062 C23.647140502929688 18.661148071289062 23.647140502929688 18.334806442260742 23.647140502929688 18.661148071289062 M11.661333084106445 15.457013130187988 C11.514785766601562 15.60368537902832 11.39749813079834 16.160493850708008 11.807881355285645 16.336549758911133 C11.910477638244629 16.409761428833008 11.98182201385498 16.598892211914062 11.851834297180176 16.776195526123047 C11.690592765808105 16.996078491210938 11.499471664428711 17.185956954956055 11.661333084106445 17.347942352294922 C11.866525650024414 17.55313491821289 12.057149887084961 17.406585693359375 12.159622192382812 17.27448272705078 C12.224491119384766 17.19106101989746 12.643342018127441 16.585569381713867 12.643342018127441 15.940608024597168 C12.643342018127441 15.295648574829102 11.939861297607422 15.149100303649902 11.661333084106445 15.457013130187988 C11.661333084106445 15.457013130187988 11.939861297607422 15.149100303649902 11.661333084106445 15.457013130187988 L11.661333084106445 15.457013130187988" fill="black" fill-opacity="1.0" filling="0"/>
<path animation_id="5" d="M21.513168334960938 16.496545791625977 C21.680011749267578 16.293468475341797 21.932392120361328 16.18452262878418 22.239307403564453 16.18452262878418 C22.633506774902344 16.18452262878418 22.86496925354004 16.541492462158203 22.86496925354004 16.94664764404297 C22.86496925354004 17.2338924407959 22.685054779052734 17.498226165771484 22.381000518798828 17.498226165771484 C22.166967391967773 17.498226165771484 21.98705291748047 17.357654571533203 21.98705291748047 17.132415771484375 C21.98705291748047 17.05360221862793 21.979082107543945 16.908174514770508 22.054412841796875 16.912782669067383 C21.511425018310547 16.8787899017334 21.524497985839844 17.664695739746094 21.524497985839844 18.115047454833984 C21.524497985839844 18.18825912475586 21.5018367767334 18.508995056152344 21.625598907470703 18.508995056152344 C21.682003021240234 18.508995056152344 21.855693817138672 18.46965217590332 21.92865562438965 18.46965217590332 C22.114425659179688 18.46965217590332 22.176429748535156 18.62167739868164 22.176429748535156 18.790386199951172 C22.176429748535156 19.00442123413086 22.08055877685547 19.178733825683594 21.895038604736328 19.178733825683594 C21.591110229492188 19.17313003540039 21.248706817626953 19.12257957458496 21.017866134643555 19.12257957458496 C20.803834915161133 19.12257957458496 20.546100616455078 19.17313003540039 20.343524932861328 19.178733825683594 C20.15775489807129 19.178733825683594 20.06188201904297 19.00442123413086 20.06188201904297 18.790386199951172 C20.06188201904297 18.62167739868164 20.123886108398438 18.46965217590332 20.309656143188477 18.46965217590332 C20.38286781311035 18.46965217590332 20.483097076416016 18.508995056152344 20.53925323486328 18.508995056152344 C20.663265228271484 18.508995056152344 20.640602111816406 18.18825912475586 20.640602111816406 18.115047454833984 L20.640602111816406 17.304489135742188 C20.640602111816406 17.231277465820312 20.663265228271484 16.910539627075195 20.53925323486328 16.910539627075195 C20.483097076416016 16.910539627075195 20.36804962158203 16.94988441467285 20.29483985900879 16.94988441467285 C20.10931968688965 16.94988441467285 20.047313690185547 16.79785919189453 20.047313690185547 16.62889862060547 C20.047313690185547 16.415115356445312 20.14293670654297 16.240554809570312 20.328706741333008 16.240554809570312 C20.492061614990234 16.246156692504883 20.663387298583984 16.29695701599121 20.77569580078125 16.29695701599121 C20.899707794189453 16.29695701599121 21.017866134643555 16.246156692504883 21.147232055664062 16.240554809570312 C21.31046485900879 16.240554809570312 21.321796417236328 16.35310935974121 21.321796417236328 16.482723236083984 C21.32080078125 16.614952087402344 21.441450119018555 16.58320426940918 21.513168334960938 16.496545791625977 C21.513168334960938 16.496545791625977 21.441450119018555 16.58320426940918 21.513168334960938 16.496545791625977 L21.513168334960938 16.496545791625977 M5.526987552642822 18.01382064819336 L6.455705642700195 18.250141143798828 L6.455705642700195 17.19205665588379 C6.455705642700195 16.843055725097656 6.4275665283203125 16.522069931030273 6.095375061035156 16.325096130371094 C5.847724437713623 16.18452262878418 5.46510648727417 16.156383514404297 5.183589935302734 16.156383514404297 C4.755774021148682 16.156383514404297 3.956545829772949 16.25200843811035 3.956545829772949 16.831974029541016 C3.956545829772949 17.118968963623047 4.1985931396484375 17.31594467163086 4.474382400512695 17.31594467163086 C4.7108259201049805 17.31594467163086 4.9584760665893555 17.197782516479492 4.9584760665893555 16.938804626464844 L4.9584760665893555 16.83770179748535 C4.9584760665893555 16.72514533996582 5.048496723175049 16.708086013793945 5.14424467086792 16.708086013793945 C5.330012798309326 16.708086013793945 5.526987552642822 16.809438705444336 5.526987552642822 17.023221969604492 C5.526987552642822 17.76641845703125 3.7821083068847656 17.07402229309082 3.7821083068847656 18.407894134521484 C3.7821083068847656 18.98200798034668 4.2718048095703125 19.252193450927734 4.783913612365723 19.252193450927734 C5.138641834259033 19.252193450927734 5.48191499710083 19.145240783691406 5.746373653411865 18.89198875427246 C5.8421220779418945 19.156572341918945 5.997261047363281 19.252193450927734 6.256241321563721 19.252193450927734 C6.520699501037598 19.252193450927734 6.835958480834961 19.134035110473633 6.835958480834961 18.81890106201172 C6.835958480834961 18.655668258666992 6.734607696533203 18.503767013549805 6.554566860198975 18.503767013549805 C6.509618759155273 18.503767013549805 6.596401691436768 18.509370803833008 6.551453590393066 18.509370803833008 C6.438897132873535 18.509370803833008 6.455705642700195 18.32360076904297 6.455705642700195 18.250389099121094 L5.526987552642822 18.01382064819336 C5.526987552642822 18.346012115478516 5.363755226135254 18.542985916137695 5.0315632820129395 18.542985916137695 C4.868330955505371 18.542985916137695 4.7107014656066895 18.475378036499023 4.7107014656066895 18.278404235839844 C4.7107014656066895 17.980077743530273 5.363630771636963 18.06437110900879 5.526863098144531 17.890058517456055 L5.526863098144531 18.01382064819336 L5.526987552642822 18.01382064819336 M9.736164093017578 14.554566383361816 C9.736164093017578 14.375396728515625 9.887443542480469 14.228724479675293 10.074084281921387 14.228724479675293 L10.074084281921387 14.292722702026367 C9.921807289123535 14.292722702026367 9.800161361694336 14.409637451171875 9.800161361694336 14.554691314697266 C9.800161361694336 14.703978538513184 9.921807289123535 14.820021629333496 10.074084281921387 14.820021629333496 C10.224491119384766 14.820021629333496 10.346137046813965 14.703978538513184 10.346137046813965 14.554691314697266 C10.346137046813965 14.409762382507324 10.224491119384766 14.292722702026367 10.074084281921387 14.292722702026367 L10.074084281921387 14.228724479675293 C10.259727478027344 14.228724479675293 10.410135269165039 14.375396728515625 10.410135269165039 14.554566383361816 C10.410135269165039 14.737471580505371 10.259727478027344 14.88401985168457 10.074084281921387 14.88401985168457 C9.887443542480469 14.88401985168457 9.736164093017578 14.737346649169922 9.736164093017578 14.554566383361816 C9.736164093017578 14.554566383361816 9.736164093017578 14.737346649169922 9.736164093017578 14.554566383361816" fill="black" fill-opacity="1.0" filling="0"/>
<path animation_id="6" d="M10.004358291625977 14.414243698120117 L10.101849555969238 14.414243698120117 C10.149163246154785 14.414243698120117 10.190998077392578 14.420843124389648 10.190998077392578 14.468281745910645 C10.190998077392578 14.534147262573242 10.11853313446045 14.524683952331543 10.065617561340332 14.524683952331543 L10.004358291625977 14.524683952331543 L10.004358291625977 14.570379257202148 L10.070347785949707 14.570379257202148 L10.178049087524414 14.739089965820312 L10.242172241210938 14.739089965820312 L10.127996444702148 14.570379257202148 C10.194857597351074 14.568387031555176 10.246902465820312 14.54149341583252 10.246902465820312 14.46902847290039 C10.246902465820312 14.438398361206055 10.23295783996582 14.406026840209961 10.205191612243652 14.390213012695312 C10.176430702209473 14.374401092529297 10.144804954528809 14.372408866882324 10.113304138183594 14.372408866882324 L9.94895076751709 14.372408866882324 L9.94895076751709 14.739089965820312 L10.004606246948242 14.739089965820312 L10.004606246948242 14.414243698120117 L10.004358291625977 14.414243698120117 L10.004358291625977 14.414243698120117" fill="black" fill-opacity="1.0" filling="0"/></svg>