<?xml version="1.0" encoding="iso-8859-1"?><svg height="200px" viewBox="0.0 0.0 24.0 24.0" width="200px" xmlns="http://www.w3.org/2000/svg"><path animation_id="0" d="M0.0 0.0 L24.0 0.0 L24.0 24.0 L0.0 24.0 L0.0 0.0" fill="black" fill-opacity="1.0" filling="0"/>
<path animation_id="1" d="M7.159185886383057 14.577850341796875 L1.0588302612304688 14.577850341796875 L1.0588302612304688 9.422150611877441 L7.159185886383057 9.422150611877441 L7.159185886383057 14.577850341796875 L7.159185886383057 14.577850341796875" fill="black" fill-opacity="1.0" filling="0"/>
<path animation_id="2" d="M3.7354164123535156 13.427130699157715 C4.552325248718262 13.427130699157715 5.205503463745117 12.787773132324219 5.205503463745117 12.017431259155273 C5.205503463745117 11.230653762817383 4.552325248718262 10.607731819152832 3.7354164123535156 10.607731819152832 C2.918508529663086 10.607731819152832 2.2649574279785156 11.230653762817383 2.2649574279785156 12.017431259155273 C2.2650814056396484 12.787773132324219 2.918508529663086 13.427130699157715 3.7354164123535156 13.427130699157715 L3.7354164123535156 13.427130699157715" fill="none" filling="0" stroke="black" stroke-opacity="1.0" stroke-width=".3"/>
<path animation_id="3" d="M3.3814353942871094 12.361950874328613 L4.143808841705322 12.361950874328613 L4.143808841705322 11.640416145324707 L3.3814353942871094 11.640416145324707 L3.3814353942871094 12.361950874328613 L3.3814353942871094 12.361950874328613 M3.3814353942871094 13.246965408325195 L4.143808841705322 13.246965408325195 L4.143808841705322 12.509369850158691 L3.3814353942871094 12.509369850158691 L3.3814353942871094 13.246965408325195 L3.3814353942871094 13.246965408325195 M4.211915493011475 12.361950874328613 L4.987985134124756 12.361950874328613 L4.987985134124756 11.640416145324707 L4.211915493011475 11.640416145324707 L4.211915493011475 12.361950874328613 M2.5102415084838867 12.361950874328613 L3.2726144790649414 12.361950874328613 L3.2726144790649414 11.640416145324707 L2.5102415084838867 11.640416145324707 L2.5102415084838867 12.361950874328613" fill="black" fill-opacity="1.0" filling="0"/>
<path animation_id="4" d="M5.354541778564453 11.393139839172363 A1.7184834480285645 1.7184834480285645 0.0 0 0 4.7205376625061035 10.637864112854004 C4.446242809295654 10.45844554901123 4.11118745803833 10.353857040405273 3.735541343688965 10.353857040405273 C3.229783058166504 10.353857040405273 2.7870264053344727 10.545601844787598 2.4726390838623047 10.855880737304688 A1.6258481740951538 1.6258481740951538 0.0 0 0 1.9863042831420898 12.017431259155273 C1.9863042831420898 12.46902847290039 2.1697072982788086 12.880035400390625 2.4726390838623047 13.179107666015625 C2.7870264053344727 13.489635467529297 3.229659080505371 13.681255340576172 3.735541343688965 13.681255340576172 C4.246404647827148 13.681255340576172 4.687667369842529 13.49087905883789 5.000311374664307 13.182220458984375 A1.6258481740951538 1.6258481740951538 0.0 0 0 5.459129810333252 12.307787895202637 L5.459129810333252 11.666936874389648 L6.81740665435791 11.666936874389648 L6.81740665435791 12.44997787475586 L6.032995223999023 12.44997787475586 C5.946211814880371 12.946523666381836 5.7117600440979 13.38815975189209 5.370603084564209 13.725207328796387 C4.956483840942383 14.134221076965332 4.384859561920166 14.386478424072266 3.7354164123535156 14.386478424072266 C3.0912036895751953 14.386478424072266 2.5183334350585938 14.13260269165039 2.1018495559692383 13.721845626831055 C1.6651935577392578 13.290668487548828 1.4004859924316406 12.687542915344238 1.4004859924316406 12.017431259155273 C1.4004859924316406 11.347320556640625 1.6651935577392578 10.74456787109375 2.1018495559692383 10.31326675415039 C2.518209457397461 9.902135848999023 3.0912036895751953 9.648384094238281 3.7354164123535156 9.648384094238281 C4.209300994873047 9.648384094238281 4.640104293823242 9.785594940185547 4.999688625335693 10.020793914794922 C5.3847975730896 10.27280044555664 5.686733722686768 10.637489318847656 5.873622894287109 11.068044662475586 L5.354541778564453 11.393139839172363 L5.354541778564453 11.393139839172363" fill="black" fill-opacity="1.0" filling="0"/>
<path animation_id="5" d="M22.94116973876953 14.577850341796875 L7.159185886383057 14.577850341796875 L7.159185886383057 9.422150611877441 L22.94116973876953 9.422150611877441 L22.94116973876953 14.577850341796875 L22.94116973876953 14.577850341796875" fill="black" fill-opacity="1.0" filling="0"/>
<path animation_id="6" d="M9.674407005310059 14.162982940673828 L9.641536712646484 13.80240249633789 L9.625101089477539 13.80240249633789 C9.428375244140625 14.146797180175781 9.198904037475586 14.261594772338867 8.789017677307129 14.261594772338867 C7.969370365142822 14.261594772338867 7.707028388977051 13.687729835510254 7.707028388977051 12.95013427734375 L7.707028388977051 11.261407852172852 C7.707028388977051 10.359708786010742 8.116914749145508 9.949823379516602 9.002179145812988 9.949823379516602 C9.821826934814453 9.949823379516602 10.313640594482422 10.294217109680176 10.313640594482422 11.13029956817627 L10.313640594482422 11.441574096679688 L9.346572875976562 11.441574096679688 L9.346572875976562 11.212102890014648 C9.346572875976562 10.867958068847656 9.297266960144043 10.687666893005371 9.051360130310059 10.687666893005371 C8.739961624145508 10.687666893005371 8.674345016479492 10.851522445678711 8.674345016479492 11.11386489868164 L8.674345016479492 13.146610260009766 C8.674345016479492 13.376206398010254 8.7725830078125 13.5235013961792 9.03492546081543 13.5235013961792 C9.362883567810059 13.5235013961792 9.362883567810059 13.261159896850586 9.362883567810059 12.998942375183105 L9.362883567810059 12.670858383178711 L9.018489837646484 12.670858383178711 L9.018489837646484 11.933387756347656 L10.329950332641602 11.933387756347656 L10.329950332641602 14.162858963012695 L9.674407005310059 14.162858963012695 L9.674407005310059 14.162982940673828 M10.887505531311035 14.162982940673828 L10.887505531311035 10.048310279846191 L11.85482120513916 10.048310279846191 L11.85482120513916 13.343460083007812 L13.035049438476562 13.343460083007812 L13.035049438476562 14.162982940673828 L10.887505531311035 14.162982940673828 M14.248147964477539 11.39251708984375 L14.264583587646484 11.39251708984375 L14.756397247314453 10.048310279846191 L15.723464012145996 10.048310279846191 L14.723526000976562 12.425200462341309 L14.723526000976562 14.162982940673828 L13.75633430480957 14.162982940673828 L13.75633430480957 12.425200462341309 L12.789017677307129 10.048310279846191 L13.75633430480957 10.048310279846191 L14.248147964477539 11.39251708984375 M17.74002456665039 11.491004943847656 L17.74002456665039 11.212102890014648 C17.74002456665039 10.867958068847656 17.625226974487305 10.687666893005371 17.44506072998047 10.687666893005371 C17.133289337158203 10.687666893005371 17.067920684814453 10.851522445678711 17.067920684814453 11.11386489868164 L17.067920684814453 13.146610260009766 C17.067920684814453 13.376206398010254 17.14984703063965 13.5235013961792 17.412315368652344 13.5235013961792 C17.740148544311523 13.5235013961792 17.756458282470703 13.179356575012207 17.756458282470703 12.933324813842773 L17.756458282470703 12.556434631347656 L18.723899841308594 12.556434631347656 L18.723899841308594 13.064434051513672 C18.723899841308594 13.769407272338867 18.330448150634766 14.261346817016602 17.330263137817383 14.261346817016602 C16.445369720458984 14.261346817016602 16.10097885131836 13.785967826843262 16.10097885131836 12.949885368347168 L16.10097885131836 11.261407852172852 C16.10097885131836 10.359708786010742 16.510740280151367 9.949823379516602 17.395877838134766 9.949823379516602 C18.21565055847168 9.949823379516602 18.707340240478516 10.294217109680176 18.707340240478516 11.13029956817627 L18.707340240478516 11.490880012512207 L17.74002456665039 11.490880012512207 L17.74002456665039 11.491004943847656 L17.74002456665039 11.491004943847656 M20.57598114013672 9.949823379516602 C19.739898681640625 9.949823379516602 19.264522552490234 10.392580032348633 19.264522552490234 11.179481506347656 L19.264522552490234 12.851398468017578 C19.264522552490234 13.769407272338867 19.608665466308594 14.261346817016602 20.57598114013672 14.261346817016602 C21.55961036682129 14.261346817016602 21.88744354248047 13.769407272338867 21.88744354248047 12.851398468017578 L21.88744354248047 11.179605484008789 C21.88744354248047 10.392580032348633 21.428627014160156 9.949823379516602 20.57598114013672 9.949823379516602 M20.920127868652344 12.933449745178223 C20.920127868652344 13.163045883178711 20.88750457763672 13.523625373840332 20.57598114013672 13.523625373840332 C20.26445770263672 13.523625373840332 20.231590270996094 13.163045883178711 20.231590270996094 12.933449745178223 L20.231590270996094 11.244973182678223 C20.231590270996094 10.98263168334961 20.26445770263672 10.687666893005371 20.57598114013672 10.687666893005371 C20.88750457763672 10.687666893005371 20.920127868652344 10.98263168334961 20.920127868652344 11.244973182678223 L20.920127868652344 12.933449745178223 M22.28413200378418 9.843366622924805 C22.4298095703125 9.843366622924805 22.55207633972168 9.969993591308594 22.55207633972168 10.121148109436035 C22.55207633972168 10.276785850524902 22.430679321289062 10.399801254272461 22.279525756835938 10.399801254272461 C22.127498626708984 10.399801254272461 22.006473541259766 10.27591323852539 22.006473541259766 10.121148109436035 A0.27454397082328796 0.27454397082328796 0.0 0 1 22.28413200378418 9.843366622924805 L22.28413200378418 9.843366622924805 M21.951940536499023 10.127497673034668 C21.951940536499023 10.303056716918945 22.101226806640625 10.449604988098145 22.279525756835938 10.449604988098145 A0.32671359181404114 0.32671359181404114 0.0 0 0 22.608104705810547 10.121148109436035 A0.3259665071964264 0.3259665071964264 0.0 0 0 22.279525756835938 9.793562889099121 C22.093881607055664 9.793562889099121 21.951940536499023 9.938243865966797 21.951940536499023 10.127497673034668 M22.142812728881836 9.932765007019043 L22.142812728881836 10.298449516296387 L22.231586456298828 10.298449516296387 L22.231586456298828 10.149163246154785 L22.275165557861328 10.149163246154785 L22.344768524169922 10.298449516296387 L22.444252014160156 10.298449516296387 L22.362075805664062 10.135591506958008 C22.38735008239746 10.127497673034668 22.39731216430664 10.122143745422363 22.409263610839844 10.112183570861816 A0.09637054055929184 0.09637054055929184 0.0 0 0 22.44188690185547 10.036232948303223 C22.44188690185547 9.97198486328125 22.39108657836914 9.932889938354492 22.309654235839844 9.932889938354492 L22.142812728881836 9.932889938354492 L22.142812728881836 9.932765007019043 L22.142812728881836 9.932765007019043 M22.231586456298828 10.095747947692871 L22.231586456298828 9.989790916442871 L22.272178649902344 9.989790916442871 C22.323974609375 9.989790916442871 22.35024642944336 10.006973266601562 22.35024642944336 10.042333602905273 C22.35024642944336 10.079437255859375 22.326465606689453 10.095747947692871 22.272178649902344 10.095747947692871 L22.231586456298828 10.095747947692871" fill="black" fill-opacity="1.0" filling="0"/></svg>