<?xml version="1.0" encoding="iso-8859-1"?><svg height="200px" viewBox="0.0 0.0 24.0 24.0" width="200px" xmlns="http://www.w3.org/2000/svg"><path animation_id="0" d="M0.0 0.0 L24.0 0.0 L24.0 24.0 L0.0 24.0 L0.0 0.0" fill="black" fill-opacity="1.0" filling="0"/>
<path animation_id="1" d="M1.0588302612304688 14.47039794921875 L2.295586585998535 14.47039794921875 L2.295586585998535 13.502708435058594 L2.8042078018188477 13.143747329711914 L4.080807209014893 14.47039794921875 L5.6069231033325195 14.47039794921875 L3.6420345306396484 12.555313110351562 L5.3874125480651855 11.308597564697266 L3.8614206314086914 11.308597564697266 L2.295586585998535 12.525431632995605 L2.295586585998535 11.308597564697266 L1.0588302612304688 11.308597564697266 L1.0588302612304688 14.47039794921875 M5.985805988311768 14.47039794921875 L9.825811386108398 14.47039794921875 L9.825811386108398 13.762186050415039 L7.222561359405518 13.762186050415039 L7.222561359405518 13.163792610168457 L9.54641056060791 13.163792610168457 L9.54641056060791 12.525431632995605 L7.222561359405518 12.525431632995605 L7.222561359405518 11.966755867004395 L9.765921592712402 11.966755867004395 L9.765921592712402 11.308597564697266 L5.985805988311768 11.308597564697266 L5.985805988311768 14.47039794921875 M10.533897399902344 14.47039794921875 L14.373778343200684 14.47039794921875 L14.373778343200684 13.762186050415039 L11.77065372467041 13.762186050415039 L11.77065372467041 13.163792610168457 L14.094378471374512 13.163792610168457 L14.094378471374512 12.525431632995605 L11.77065372467041 12.525431632995605 L11.77065372467041 11.966755867004395 L14.314013481140137 11.966755867004395 L14.314013481140137 11.308597564697266 L10.533897399902344 11.308597564697266 L10.533897399902344 14.47039794921875 M15.081989288330078 14.47039794921875 L18.53277587890625 14.47039794921875 L18.53277587890625 13.762186050415039 L16.318496704101562 13.762186050415039 L16.318496704101562 11.308597564697266 L15.081989288330078 11.308597564697266 L15.081989288330078 14.47039794921875 L15.081989288330078 14.47039794921875 M19.091327667236328 14.47039794921875 L22.94116973876953 14.47039794921875 L22.94116973876953 13.762186050415039 L20.328208923339844 13.762186050415039 L20.328208923339844 13.163792610168457 L22.652057647705078 13.163792610168457 L22.652057647705078 12.525431632995605 L20.328208923339844 12.525431632995605 L20.328208923339844 11.966755867004395 L22.871318817138672 11.966755867004395 L22.871318817138672 11.308597564697266 L19.091327667236328 11.308597564697266 L19.091327667236328 14.47039794921875 L19.091327667236328 14.47039794921875" fill="black" fill-opacity="1.0" filling="0"/>
<path animation_id="2" d="M16.87717056274414 11.308597564697266 L18.53277587890625 11.308597564697266 L18.53277587890625 12.96432876586914 L16.87717056274414 12.96432876586914 L16.87717056274414 11.308597564697266" fill="black" fill-opacity="1.0" filling="0"/>
<path animation_id="3" d="M16.87717056274414 9.224055290222168 L18.53277587890625 9.224055290222168 L18.53277587890625 10.879661560058594 L16.87717056274414 10.879661560058594 L16.87717056274414 9.224055290222168" fill="black" fill-opacity="1.0" filling="0"/>
<path animation_id="4" d="M16.87717056274414 7.149598598480225 L18.53277587890625 7.149598598480225 L18.53277587890625 8.795244216918945 L16.87717056274414 8.795244216918945 L16.87717056274414 7.149598598480225" fill="black" fill-opacity="1.0" filling="0"/>
<path animation_id="5" d="M3.761688232421875 15.976343154907227 C3.6319494247436523 16.056154251098633 3.522256851196289 16.095996856689453 3.402602195739746 16.095996856689453 C3.173130989074707 16.095996856689453 3.0135087966918945 15.936500549316406 3.0135087966918945 15.726825714111328 C3.0135087966918945 15.507439613342285 3.173130989074707 15.347942352294922 3.412562370300293 15.347942352294922 C3.522256851196289 15.347942352294922 3.6319494247436523 15.377825736999512 3.7517271041870117 15.447675704956055 L3.7517271041870117 15.298138618469238 C3.661956787109375 15.248334884643555 3.552138328552246 15.218327522277832 3.412562370300293 15.218327522277832 C3.252941131591797 15.218327522277832 3.1233272552490234 15.268132209777832 3.023594856262207 15.357903480529785 C2.9238624572753906 15.457635879516602 2.8639726638793945 15.587250709533691 2.8639726638793945 15.716865539550781 C2.8639726638793945 15.89653205871582 2.953744888305664 16.046194076538086 3.093320846557617 16.145801544189453 C3.1830921173095703 16.19560432434082 3.2927846908569336 16.235572814941406 3.4024782180786133 16.235572814941406 C3.52213191986084 16.235572814941406 3.6417856216430664 16.195730209350586 3.761563301086426 16.135841369628906 L3.761563301086426 15.976343154907227 L3.761688232421875 15.976343154907227 L3.761688232421875 15.976343154907227 M4.479736328125 15.88644790649414 A0.3364253044128418 0.3364253044128418 0.0 0 0 4.8189005851745605 16.225736618041992 C4.918632984161377 16.225736618041992 4.998443603515625 16.19585418701172 5.068169593811035 16.126005172729492 C5.127933979034424 16.066238403320312 5.167901515960693 15.976468086242676 5.167901515960693 15.88644790649414 C5.167901515960693 15.796676635742188 5.127933979034424 15.716989517211914 5.068169593811035 15.647139549255371 C4.998319149017334 15.58737564086914 4.918632984161377 15.547407150268555 4.8189005851745605 15.547407150268555 A0.3363008201122284 0.3363008201122284 0.0 0 0 4.479736328125 15.88644790649414 L4.479736328125 15.88644790649414 M4.609475135803223 15.88644790649414 C4.609475135803223 15.766793251037598 4.709207534790039 15.677022933959961 4.8189005851745605 15.677022933959961 C4.938554763793945 15.677022933959961 5.028326034545898 15.766793251037598 5.028326034545898 15.88644790649414 C5.028326034545898 16.006349563598633 4.938554763793945 16.106082916259766 4.8189005851745605 16.106082916259766 C4.709207534790039 16.10595703125 4.609475135803223 16.006349563598633 4.609475135803223 15.88644790649414 M5.9061198234558105 16.21565055847168 L6.035859107971191 16.21565055847168 L6.035859107971191 15.746747970581055 C6.085662841796875 15.686982154846191 6.13559103012085 15.656975746154785 6.20531702041626 15.656975746154785 C6.295087814331055 15.656975746154785 6.335055828094482 15.706779479980469 6.335055828094482 15.816473007202148 L6.335055828094482 16.215526580810547 L6.464670658111572 16.215526580810547 L6.464670658111572 15.786590576171875 C6.464670658111572 15.637054443359375 6.384859561920166 15.557243347167969 6.245160102844238 15.557243347167969 C6.165349006652832 15.557243347167969 6.105584144592285 15.587126731872559 6.0357346534729 15.647014617919922 L6.0357346534729 15.567204475402832 L5.905994892120361 15.567204475402832 L5.905994892120361 16.21565055847168 L5.9061198234558105 16.21565055847168 L5.9061198234558105 16.21565055847168 M7.412065029144287 16.21565055847168 L7.412065029144287 15.677022933959961 L7.501836776733398 15.677022933959961 L7.501836776733398 15.567328453063965 L7.412065029144287 15.567328453063965 L7.412065029144287 15.487518310546875 C7.412065029144287 15.387785911560059 7.4419474601745605 15.337981224060059 7.521758079528809 15.337981224060059 C7.541679859161377 15.337981224060059 7.57156229019165 15.337981224060059 7.601568698883057 15.347942352294922 L7.601568698883057 15.238249778747559 C7.561725616455078 15.228288650512695 7.531719207763672 15.218327522277832 7.501836776733398 15.218327522277832 C7.42202615737915 15.218327522277832 7.35230016708374 15.258171081542969 7.312332630157471 15.318059921264648 C7.282450199127197 15.367864608764648 7.282450199127197 15.427753448486328 7.282450199127197 15.507439613342285 L7.282450199127197 15.567204475402832 L7.192679405212402 15.567204475402832 L7.192679405212402 15.676897048950195 L7.282450199127197 15.676897048950195 L7.282450199127197 16.215526580810547 L7.412065029144287 16.215526580810547 L7.412065029144287 16.21565055847168 L7.412065029144287 16.21565055847168 M8.34962272644043 15.816596984863281 C8.369544982910156 15.716865539550781 8.429433822631836 15.657100677490234 8.529166221618652 15.657100677490234 C8.618938446044922 15.657100677490234 8.688787460327148 15.726949691772461 8.688787460327148 15.816596984863281 L8.34962272644043 15.816596984863281 M8.828363418579102 16.145925521850586 L8.828363418579102 16.01630973815918 C8.728631019592285 16.07607650756836 8.638984680175781 16.106082916259766 8.559048652648926 16.106082916259766 C8.429309844970703 16.106082916259766 8.35958480834961 16.036231994628906 8.34962272644043 15.906618118286133 L8.838324546813965 15.906618118286133 L8.838324546813965 15.896657943725586 C8.838324546813965 15.677022933959961 8.718670845031738 15.547407150268555 8.529166221618652 15.547407150268555 C8.3396635055542 15.547407150268555 8.21004867553711 15.686982154846191 8.21004867553711 15.87673568725586 C8.21004867553711 16.08616065979004 8.339787483215332 16.225736618041992 8.549213409423828 16.225736618041992 C8.648819923400879 16.225610733032227 8.738592147827148 16.195730209350586 8.828363418579102 16.145925521850586 M9.576417922973633 16.21565055847168 L9.706157684326172 16.21565055847168 L9.706157684326172 15.846480369567871 C9.736039161682129 15.736786842346191 9.785967826843262 15.677022933959961 9.855817794799805 15.677022933959961 C9.905621528625488 15.677022933959961 9.935627937316895 15.696943283081055 9.975471496582031 15.726825714111328 L10.045321464538574 15.617133140563965 C9.99551773071289 15.577289581298828 9.945589065551758 15.557367324829102 9.905621528625488 15.557367324829102 C9.825811386108398 15.557367324829102 9.776006698608398 15.607172012329102 9.706157684326172 15.706904411315918 L9.706157684326172 15.567328453063965 L9.576417922973633 15.567328453063965 L9.576417922973633 16.21565055847168 M10.833094596862793 15.816596984863281 C10.85301685333252 15.716865539550781 10.9129056930542 15.657100677490234 11.012638092041016 15.657100677490234 C11.102409362792969 15.657100677490234 11.172260284423828 15.726949691772461 11.182219505310059 15.816596984863281 L10.833094596862793 15.816596984863281 L10.833094596862793 15.816596984863281 M11.311834335327148 16.145925521850586 L11.311834335327148 16.01630973815918 C11.212102890014648 16.07607650756836 11.122331619262695 16.106082916259766 11.042520523071289 16.106082916259766 C10.922865867614746 16.106082916259766 10.843055725097656 16.036231994628906 10.833094596862793 15.906618118286133 L11.321795463562012 15.906618118286133 L11.321795463562012 15.896657943725586 C11.321795463562012 15.677022933959961 11.202141761779785 15.547407150268555 11.022598266601562 15.547407150268555 C10.823134422302246 15.547407150268555 10.703479766845703 15.686982154846191 10.703479766845703 15.87673568725586 C10.703479766845703 16.08616065979004 10.833219528198242 16.225736618041992 11.032684326171875 16.225736618041992 C11.132291793823242 16.225610733032227 11.222063064575195 16.195730209350586 11.311834335327148 16.145925521850586 M12.06985092163086 16.21565055847168 L12.199589729309082 16.21565055847168 L12.199589729309082 15.746747970581055 C12.239432334899902 15.686982154846191 12.289361000061035 15.656975746154785 12.359086036682129 15.656975746154785 C12.448858261108398 15.656975746154785 12.498661994934082 15.706779479980469 12.498661994934082 15.816473007202148 L12.498661994934082 16.215526580810547 L12.628276824951172 16.215526580810547 L12.628276824951172 15.786590576171875 C12.628276824951172 15.637054443359375 12.538505554199219 15.557243347167969 12.398929595947266 15.557243347167969 C12.31911849975586 15.557243347167969 12.259353637695312 15.587126731872559 12.199464797973633 15.647014617919922 L12.199464797973633 15.567204475402832 L12.06972599029541 15.567204475402832 L12.06972599029541 16.21565055847168 L12.06985092163086 16.21565055847168 M13.914960861206055 16.056154251098633 C13.855195045471191 16.086036682128906 13.795306205749512 16.10595703125 13.735541343688965 16.10595703125 C13.586005210876465 16.10595703125 13.506194114685059 16.016185760498047 13.506194114685059 15.886322975158691 C13.506194114685059 15.766668319702148 13.586005210876465 15.676897048950195 13.725580215454102 15.676897048950195 C13.785346031188965 15.676897048950195 13.845233917236328 15.696819305419922 13.904999732971191 15.726700782775879 L13.904999732971191 15.587126731872559 C13.845233917236328 15.567204475402832 13.785346031188965 15.547282218933105 13.725580215454102 15.547282218933105 C13.516155242919922 15.547282218933105 13.36637020111084 15.696819305419922 13.36637020111084 15.886322975158691 C13.36637020111084 16.086036682128906 13.516155242919922 16.225610733032227 13.725580215454102 16.225610733032227 C13.785346031188965 16.225610733032227 13.855195045471191 16.21565055847168 13.914960861206055 16.195730209350586 L13.914960861206055 16.056154251098633 M14.762622833251953 15.816596984863281 C14.772583961486816 15.716865539550781 14.842432975769043 15.657100677490234 14.942290306091309 15.657100677490234 C15.032061576843262 15.657100677490234 15.091825485229492 15.726949691772461 15.101787567138672 15.816596984863281 L14.762622833251953 15.816596984863281 M15.231526374816895 16.145925521850586 L15.231526374816895 16.01630973815918 C15.141754150390625 16.07607650756836 15.052106857299805 16.106082916259766 14.962335586547852 16.106082916259766 C14.842432975769043 16.106082916259766 14.762622833251953 16.036231994628906 14.762622833251953 15.906618118286133 L15.241487503051758 15.906618118286133 L15.241487503051758 15.896657943725586 C15.241487503051758 15.677022933959961 15.121832847595215 15.547407150268555 14.942415237426758 15.547407150268555 C14.752786636352539 15.547407150268555 14.623170852661133 15.686982154846191 14.623170852661133 15.87673568725586 C14.623170852661133 16.08616065979004 14.752786636352539 16.225736618041992 14.9624605178833 16.225736618041992 C15.052106857299805 16.225610733032227 15.151715278625488 16.195730209350586 15.231526374816895 16.145925521850586 L15.231526374816895 16.145925521850586 M16.996824264526367 16.21565055847168 L17.13640022277832 16.21565055847168 L17.13640022277832 15.786714553833008 L17.306108474731445 15.786714553833008 C17.515531539916992 15.786714553833008 17.63518524169922 15.686982154846191 17.63518524169922 15.507564544677734 C17.63518524169922 15.338107109069824 17.515531539916992 15.228413581848145 17.306108474731445 15.228413581848145 L16.996824264526367 15.228413581848145 L16.996824264526367 16.21565055847168 M17.13640022277832 15.667060852050781 L17.13640022277832 15.358028411865234 L17.28618621826172 15.358028411865234 C17.425762176513672 15.358028411865234 17.48565101623535 15.397871017456055 17.48565101623535 15.507564544677734 C17.48565101623535 15.617257118225098 17.425884246826172 15.667060852050781 17.28618621826172 15.667060852050781 L17.13640022277832 15.667060852050781 M18.65243148803711 16.155885696411133 C18.65243148803711 16.205690383911133 18.672351837158203 16.225736618041992 18.7224063873291 16.225736618041992 C18.77220916748047 16.225736618041992 18.8221378326416 16.205814361572266 18.8719425201416 16.165971755981445 L18.8719425201416 16.08616065979004 C18.842060089111328 16.106082916259766 18.8221378326416 16.126005172729492 18.802093505859375 16.126005172729492 C18.782047271728516 16.126005172729492 18.77220916748047 16.106082916259766 18.77220916748047 16.056154251098633 L18.77220916748047 15.786714553833008 C18.77220916748047 15.627218246459961 18.712196350097656 15.547407150268555 18.542613983154297 15.547407150268555 C18.442880630493164 15.547407150268555 18.36319351196289 15.577289581298828 18.293346405029297 15.637178421020508 L18.293346405029297 15.75683307647705 C18.37315559387207 15.697068214416504 18.452842712402344 15.667060852050781 18.52269172668457 15.667060852050781 C18.612462997436523 15.667060852050781 18.642345428466797 15.706904411315918 18.642345428466797 15.776754379272461 L18.642345428466797 15.806635856628418 L18.492809295654297 15.856689453125 C18.343273162841797 15.906493186950684 18.27342414855957 15.976343154907227 18.27342414855957 16.066116333007812 C18.27342414855957 16.165847778320312 18.343273162841797 16.225610733032227 18.46280288696289 16.225610733032227 C18.53277587890625 16.225610733032227 18.58258056640625 16.205690383911133 18.65243148803711 16.155885696411133 M18.642471313476562 16.07607650756836 C18.60262680053711 16.11591911315918 18.552698135375977 16.125879287719727 18.512855529785156 16.125879287719727 C18.45309066772461 16.125879287719727 18.413124084472656 16.095996856689453 18.413124084472656 16.04606819152832 C18.413124084472656 15.976219177246094 18.492935180664062 15.936375617980957 18.642471313476562 15.886322975158691 L18.642471313476562 16.07607650756836 L18.642471313476562 16.07607650756836 M19.570192337036133 16.21565055847168 L19.699806213378906 16.21565055847168 L19.699806213378906 15.846480369567871 C19.719728469848633 15.736786842346191 19.779617309570312 15.677022933959961 19.849342346191406 15.677022933959961 C19.88918685913086 15.677022933959961 19.929155349731445 15.696943283081055 19.968997955322266 15.726825714111328 L20.038848876953125 15.617133140563965 C19.989044189453125 15.577289581298828 19.939115524291992 15.557367324829102 19.889310836791992 15.557367324829102 C19.819459915161133 15.557367324829102 19.769657135009766 15.607172012329102 19.699932098388672 15.706904411315918 L19.699932098388672 15.567328453063965 L19.570316314697266 15.567328453063965 L19.570316314697266 16.21565055847168 L19.570192337036133 16.21565055847168 L19.570192337036133 16.21565055847168 M20.73697280883789 16.21565055847168 L20.866588592529297 16.21565055847168 L20.866588592529297 15.228288650512695 L20.73697280883789 15.228288650512695 L20.73697280883789 16.21565055847168 M21.305484771728516 15.567328453063965 L21.14598846435547 15.567328453063965 L20.866588592529297 15.866401672363281 L21.185832977294922 16.21565055847168 L21.365249633789062 16.21565055847168 L21.036170959472656 15.856689453125 L21.305484771728516 15.567328453063965" fill="black" fill-opacity="1.0" filling="0"/></svg>