<?xml version="1.0" encoding="iso-8859-1"?><svg height="200px" viewBox="0.0 0.0 24.0 24.0" width="200px" xmlns="http://www.w3.org/2000/svg"><path animation_id="0" d="M0.0 0.0 L24.0 0.0 L24.0 24.0 L0.0 24.0 L0.0 0.0" fill="black" fill-opacity="1.0" filling="0"/>
<path animation_id="1" d="M2.7822952270507812 12.227355003356934 L4.081305027008057 12.227355003356934 L3.5725584030151367 14.198966979980469 L4.8759260177612305 14.198966979980469 L4.606860637664795 15.229035377502441 L2.008716583251953 15.229035377502441 L2.7822952270507812 12.227355003356934 M8.205316543579102 14.451223373413086 C8.053913116455078 15.001930236816406 7.574674606323242 15.317188262939453 6.5194549560546875 15.317188262939453 C6.090643405914307 15.317188262939453 5.140509128570557 15.30038070678711 5.140509128570557 14.682313919067383 C5.140509128570557 14.44686508178711 5.233019828796387 14.13584041595459 5.291788578033447 13.925667762756348 L5.636556148529053 12.685550689697266 L6.8851399421691895 12.685550689697266 L6.51522159576416 14.02664566040039 C6.485836982727051 14.140198707580566 6.452219486236572 14.270435333251953 6.452219486236572 14.324971199035645 C6.452219486236572 14.463798522949219 6.569880962371826 14.51845932006836 6.70024299621582 14.51845932006836 C6.8851399421691895 14.51845932006836 6.9776506423950195 14.425948143005371 7.02396821975708 14.261968612670898 L7.461122035980225 12.685550689697266 L8.69713020324707 12.685550689697266 L8.205316543579102 14.451223373413086 L8.205316543579102 14.451223373413086 M8.638236999511719 14.619436264038086 L9.979331970214844 13.610408782958984 L9.979331970214844 13.602067947387695 L8.873684883117676 13.602067947387695 L9.104899406433105 12.685675621032715 L11.803897857666016 12.685675621032715 L11.610533714294434 13.421278953552246 L10.231588363647461 14.421839714050293 L10.231588363647461 14.430181503295898 L11.383428573608398 14.430181503295898 L11.160679817199707 15.229035377502441 L8.478615760803223 15.229035377502441 L8.638236999511719 14.619436264038086 M12.261968612670898 12.64782428741455 C12.409139633178711 12.668742179870605 12.648819923400879 12.685675621032715 12.88837718963623 12.685675621032715 L12.896843910217285 12.685675621032715 C13.161676406860352 12.685675621032715 13.342339515686035 12.668742179870605 13.489510536193848 12.64782428741455 L12.800100326538086 15.228910446166992 L11.572558403015137 15.228910446166992 L12.261968612670898 12.64782428741455 L12.261968612670898 12.64782428741455 M13.45166015625 11.891054153442383 C13.599079132080078 11.891054153442383 13.674656867980957 11.920437812805176 13.674656867980957 11.979331016540527 C13.674656867980957 12.013073921203613 13.624105453491211 12.214778900146484 13.586379051208496 12.336674690246582 C13.5484037399292 12.458569526672363 13.350930213928223 12.46280288696289 12.989354133605957 12.46280288696289 L12.795991897583008 12.46280288696289 C12.493183135986328 12.46280288696289 12.337545394897461 12.458569526672363 12.337545394897461 12.361824989318848 C12.337545394897461 12.298823356628418 12.358713150024414 12.185270309448242 12.388097763061523 12.088650703430176 C12.446990966796875 11.920437812805176 12.467907905578613 11.891054153442383 12.896843910217285 11.891054153442383 L13.45166015625 11.891054153442383 M14.179044723510742 12.088650703430176 L15.406586647033691 12.088650703430176 L14.565648078918457 15.229035377502441 L13.33835506439209 15.229035377502441 L14.179044723510742 12.088650703430176 L14.179044723510742 12.088650703430176 M16.52916717529297 14.215900421142578 C16.512109756469727 14.270435333251953 16.507999420166016 14.312519073486328 16.507999420166016 14.350370407104492 C16.507999420166016 14.623668670654297 16.848407745361328 14.632135391235352 17.117599487304688 14.632135391235352 C17.512794494628906 14.632135391235352 17.899396896362305 14.543733596801758 18.273672103881836 14.463923454284668 L17.94559097290039 15.132291793823242 C17.491626739501953 15.249954223632812 17.01662254333496 15.317188262939453 16.54585075378418 15.317188262939453 C15.969744682312012 15.317188262939453 15.25094985961914 15.262529373168945 15.25094985961914 14.51845932006836 C15.25094985961914 13.963519096374512 15.498973846435547 13.341343879699707 15.734420776367188 13.05970287322998 C16.10869598388672 12.614082336425781 16.562660217285156 12.597148895263672 17.109132766723633 12.597148895263672 C18.235820770263672 12.597148895263672 18.668865203857422 12.794870376586914 18.668865203857422 13.480047225952148 C18.668865203857422 13.627218246459961 18.53414535522461 14.047687530517578 18.458568572998047 14.215776443481445 L16.52916717529297 14.215776443481445 L16.52916717529297 14.215900421142578 M17.575796127319336 13.682002067565918 C17.5884952545166 13.606300354003906 17.601072311401367 13.543298721313477 17.601072311401367 13.480172157287598 C17.601072311401367 13.29091739654541 17.39077377319336 13.24472427368164 17.281578063964844 13.24472427368164 C16.987363815307617 13.24472427368164 16.823383331298828 13.328768730163574 16.697254180908203 13.682002067565918 L17.575796127319336 13.682002067565918 M20.342029571533203 14.468031883239746 L19.782978057861328 15.229035377502441 L18.43329429626465 15.229035377502441 L19.505447387695312 14.009961128234863 L19.02621078491211 12.685675621032715 L20.312644958496094 12.685675621032715 L20.501773834228516 13.484405517578125 L21.069164276123047 12.685675621032715 L22.45234489440918 12.685675621032715 L21.29627227783203 13.9845609664917 L21.7629337310791 15.229035377502441 L20.539501190185547 15.229035377502441 L20.342029571533203 14.468031883239746 L20.342029571533203 14.468031883239746" fill="black" fill-opacity="1.0" filling="0"/>
<path animation_id="2" d="M22.93730926513672 15.759198188781738 C22.968936920166016 15.881840705871582 22.809188842773438 15.986180305480957 22.58245849609375 15.99066162109375 L1.4771833419799805 16.19485855102539 L1.0588302612304688 16.19485855102539 L1.4648571014404297 16.18377685546875 L22.467782974243164 15.550271034240723 C22.694515228271484 15.542924880981445 22.905683517456055 15.636680603027344 22.93730926513672 15.759198188781738 M10.524062156677246 8.696383476257324 C10.662267684936523 8.810434341430664 10.667745590209961 9.003174781799316 10.536014556884766 9.124571800231934 L8.042956352233887 11.425387382507324 C7.911224842071533 11.54690933227539 7.950196266174316 11.647637367248535 8.129241943359375 11.649380683898926 L11.4985990524292 11.68100643157959 L11.83938217163086 11.68411922454834 C11.847599983215332 11.684244155883789 11.708398818969727 11.671419143676758 11.529850959777832 11.655730247497559 L9.164165496826172 11.447799682617188 C8.98561954498291 11.432111740112305 8.943659782409668 11.316068649291992 9.070907592773438 11.189940452575684 L11.141007423400879 9.137521743774414 C11.268256187438965 9.011392593383789 11.2490816116333 8.828861236572266 11.098424911499023 8.731992721557617 L9.019237518310547 7.394633769989014 C8.868579864501953 7.297640800476074 8.790512084960938 7.258171081542969 8.845794677734375 7.306729793548584 C8.901077270507812 7.355288982391357 9.059453964233398 7.48838996887207 9.197659492492676 7.602440357208252 L10.524062156677246 8.696383476257324" fill="black" fill-opacity="1.0" filling="0"/>
<path animation_id="3" d="M6.113677501678467 11.803025245666504 C5.934507846832275 11.801406860351562 5.894166946411133 11.69918441772461 6.024155139923096 11.57579517364502 L8.572744369506836 9.156944274902344 C8.702733993530273 9.03355598449707 8.696756362915039 8.838448524475098 8.559422492980957 8.723401069641113 L7.168150424957275 7.556745529174805 C7.030816078186035 7.441573619842529 7.008902549743652 7.462864875793457 7.119218349456787 7.6039347648620605 L7.958662509918213 8.676959991455078 C8.069103240966797 8.818029403686523 8.0527925491333 9.034177780151367 7.922306060791016 9.157069206237793 L4.970428943634033 11.940857887268066 C4.840067386627197 12.063749313354492 4.879910469055176 12.157878875732422 5.058831214904785 12.15003490447998 L11.428376197814941 11.868890762329102 C11.607420921325684 11.861047744750977 11.607295989990234 11.853202819824219 11.42812728881836 11.851584434509277 L6.113677501678467 11.803025245666504 L6.113677501678467 11.803025245666504" fill="black" fill-opacity="1.0" filling="0"/>
<path animation_id="4" d="M8.204568862915039 10.787151336669922 C8.383739471435547 10.78690242767334 8.639108657836914 10.6882905960083 8.772085189819336 10.568138122558594 L10.28662109375 9.135902404785156 C10.41673469543457 9.012638092041016 10.411130905151367 8.817282676696777 10.274169921875 8.701737403869629 L8.833219528198242 7.494490623474121 C8.698873519897461 7.375957489013672 8.44250774383545 7.284193515777588 8.263338088989258 7.290419101715088 L7.46348762512207 7.318807125091553 C7.284442901611328 7.325157642364502 7.249829292297363 7.425138473510742 7.386291980743408 7.541057586669922 L8.781672477722168 8.724024772644043 C8.918383598327637 8.839942932128906 8.921745300292969 9.033431053161621 8.789392471313477 9.154205322265625 L7.236506462097168 10.569756507873535 C7.104152679443359 10.690406799316406 7.142376899719238 10.789018630981445 7.32154655456543 10.788644790649414 L8.204568862915039 10.787151336669922 M8.2649564743042 11.026333808898926 C8.344768524169922 10.951379776000977 8.263338088989258 10.8880033493042 8.084169387817383 10.88538932800293 L7.241611003875732 10.873187065124512 C7.062441825866699 10.870572090148926 6.852518081665039 10.931831359863281 6.775197982788086 11.009275436401367 C6.697752475738525 11.086845397949219 6.781050205230713 11.151341438293457 6.960343837738037 11.152835845947266 L7.794435024261475 11.159808158874512 C7.973604202270508 11.161426544189453 8.185394287109375 11.101289749145508 8.2649564743042 11.026333808898926 M7.934881687164307 11.329514503479004 C7.988171577453613 11.27846622467041 7.885202407836914 11.235509872436523 7.7061567306518555 11.234016418457031 L6.85264253616333 11.226794242858887 C6.673473358154297 11.225424766540527 6.487580299377441 11.265642166137695 6.4396443367004395 11.316192626953125 C6.391707897186279 11.366744041442871 6.499159812927246 11.409575462341309 6.6783294677734375 11.411317825317383 L7.512295246124268 11.419286727905273 C7.691340446472168 11.420905113220215 7.881591320037842 11.380563735961914 7.934881687164307 11.329514503479004 L7.934881687164307 11.329514503479004 M7.709021091461182 11.545663833618164 C7.751354217529297 11.507439613342285 7.63929557800293 11.475192070007324 7.460125923156738 11.473697662353516 L6.606736183166504 11.467347145080566 C6.4275665283203125 11.465977668762207 6.250762462615967 11.49586009979248 6.213783264160156 11.533711433410645 C6.176928520202637 11.571686744689941 6.293220520019531 11.60381031036377 6.472390174865723 11.605428695678711 L7.306480884552002 11.612525939941406 C7.485525608062744 11.613895416259766 7.666687488555908 11.58388900756836 7.709021091461182 11.545663833618164 L7.709021091461182 11.545663833618164" fill="black" fill-opacity="1.0" filling="0"/></svg>