<?xml version="1.0" encoding="iso-8859-1"?><svg height="200px" viewBox="0.0 0.0 24.0 24.0" width="200px" xmlns="http://www.w3.org/2000/svg"><path animation_id="0" d="M0.0 0.0 L24.0 0.0 L24.0 24.0 L0.0 24.0 L0.0 0.0" fill="black" fill-opacity="1.0" filling="0"/>
<path animation_id="1" d="M3.4633636474609375 11.598207473754883 C3.4633636474609375 10.579593658447266 2.0717172622680664 10.794745445251465 2.0717172622680664 10.206562042236328 C2.0717172622680664 9.976964950561523 2.258233070373535 9.804769515991211 2.6312646865844727 9.804769515991211 C2.832098960876465 9.804769515991211 3.03305721282959 9.84784984588623 3.2195730209350586 9.8908052444458 L3.2482099533081055 9.345701217651367 C3.061695098876953 9.302620887756348 2.8464174270629883 9.288302421569824 2.6599016189575195 9.288302421569824 C1.8707590103149414 9.288302421569824 1.411691665649414 9.689970016479492 1.411691665649414 10.263835906982422 C1.411691665649414 11.354292869567871 2.7890186309814453 11.06729793548584 2.7890186309814453 11.684244155883789 C2.7890186309814453 11.985557556152344 2.5307846069335938 12.129117012023926 2.2151527404785156 12.129117012023926 C1.971238136291504 12.129117012023926 1.7130050659179688 12.071718215942383 1.5264902114868164 11.999876022338867 L1.4835338592529297 12.588059425354004 C1.6986865997314453 12.645458221435547 1.9282827377319336 12.67409610748291 2.157878875732422 12.67409610748291 C2.961215019226074 12.674220085144043 3.4633636474609375 12.215028762817383 3.4633636474609375 11.598207473754883 L3.4633636474609375 11.598207473754883 M6.921123504638672 11.641287803649902 L6.921123504638672 10.091764450073242 L6.304177284240723 10.091764450073242 L6.304177284240723 11.56956958770752 C6.304177284240723 11.928282737731934 6.146298885345459 12.143559455871582 5.7590742111206055 12.143559455871582 C5.414679527282715 12.143559455871582 5.2281646728515625 11.97123908996582 5.2281646728515625 11.58388900756836 L5.2281646728515625 10.091764450073242 L4.596899509429932 10.091764450073242 L4.596899509429932 11.727324485778809 C4.596899509429932 12.301064491271973 4.9556121826171875 12.659777641296387 5.730436325073242 12.659777641296387 C6.562410831451416 12.65990161895752 6.921123504638672 12.200958251953125 6.921123504638672 11.641287803649902 L6.921123504638672 11.641287803649902 M10.177925109863281 10.92398738861084 C10.177925109863281 10.378759384155273 9.79057502746582 10.077445030212402 9.130548477172852 10.077445030212402 C8.814916610717773 10.077445030212402 8.45620346069336 10.077445030212402 8.22673225402832 10.091764450073242 L8.22673225402832 12.6168212890625 L8.857995986938477 12.6168212890625 L8.857995986938477 11.842122077941895 L9.073149681091309 11.842122077941895 C9.718856811523438 11.842122077941895 10.177925109863281 11.497852325439453 10.177925109863281 10.92398738861084 M9.503580093383789 10.952624320983887 C9.503580093383789 11.210857391357422 9.331382751464844 11.354416847229004 9.058830261230469 11.354416847229004 C9.001431465148926 11.354416847229004 8.915395736694336 11.339974403381348 8.857995986938477 11.339974403381348 L8.857995986938477 10.579593658447266 L9.087593078613281 10.579593658447266 C9.36014461517334 10.579593658447266 9.503580093383789 10.751789093017578 9.503580093383789 10.952624320983887 L9.503580093383789 10.952624320983887 M13.21944808959961 10.92398738861084 C13.21944808959961 10.378759384155273 12.832098007202148 10.077445030212402 12.172322273254395 10.077445030212402 C11.85656452178955 10.077445030212402 11.497852325439453 10.077445030212402 11.268381118774414 10.091764450073242 L11.268381118774414 12.6168212890625 L11.89964485168457 12.6168212890625 L11.89964485168457 11.842122077941895 L12.114923477172852 11.842122077941895 C12.745938301086426 11.842122077941895 13.21944808959961 11.497852325439453 13.21944808959961 10.92398738861084 M12.545103073120117 10.952624320983887 C12.545103073120117 11.210857391357422 12.37315559387207 11.354416847229004 12.100604057312012 11.354416847229004 C12.028761863708496 11.354416847229004 11.942601203918457 11.339974403381348 11.89964485168457 11.339974403381348 L11.89964485168457 10.579593658447266 L12.129365921020508 10.579593658447266 C12.401793479919434 10.579593658447266 12.545103073120117 10.751789093017578 12.545103073120117 10.952624320983887 L12.545103073120117 10.952624320983887 M16.734607696533203 11.325654983520508 C16.734607696533203 10.45047664642334 16.175060272216797 10.048683166503906 15.457635879516602 10.048683166503906 C14.74021053314209 10.048683166503906 14.108946800231934 10.550830841064453 14.108946800231934 11.38305377960205 C14.108946800231934 12.157878875732422 14.539377212524414 12.659777641296387 15.371599197387695 12.659777641296387 C16.103343963623047 12.65990161895752 16.734607696533203 12.157878875732422 16.734607696533203 11.325654983520508 M16.060264587402344 11.354416847229004 C16.060264587402344 11.87088394165039 15.758949279785156 12.114923477172852 15.400236129760742 12.114923477172852 C14.969806671142578 12.114923477172852 14.768972396850586 11.784847259521484 14.768972396850586 11.339974403381348 C14.768972396850586 10.852270126342773 15.07028579711914 10.593911170959473 15.414680480957031 10.593911170959473 C15.802029609680176 10.593911170959473 16.060264587402344 10.852270126342773 16.060264587402344 11.354416847229004 M19.89093017578125 12.6168212890625 L19.331382751464844 11.799165725708008 C19.259666442871094 11.698686599731445 19.18794822692871 11.598331451416016 19.144866943359375 11.526613235473633 C19.50358009338379 11.44057846069336 19.761812210083008 11.196663856506348 19.761812210083008 10.809189796447754 C19.761812210083008 10.32136058807373 19.38878059387207 10.077445030212402 18.77183723449707 10.077445030212402 C18.441884994506836 10.077445030212402 18.05466079711914 10.077445030212402 17.85382652282715 10.091764450073242 L17.85382652282715 12.6168212890625 L18.484840393066406 12.6168212890625 L18.484840393066406 11.626969337463379 L18.513477325439453 11.626969337463379 L19.13042449951172 12.6168212890625 L19.89093017578125 12.6168212890625 L19.89093017578125 12.6168212890625 M19.087467193603516 10.866588592529297 C19.087467193603516 11.081865310668945 18.929590225219727 11.225300788879395 18.68567657470703 11.225300788879395 C18.628276824951172 11.225300788879395 18.542240142822266 11.225300788879395 18.484840393066406 11.210982322692871 L18.484840393066406 10.565275192260742 C18.542240142822266 10.550955772399902 18.599637985229492 10.550955772399902 18.671356201171875 10.550955772399902 C18.929590225219727 10.550955772399902 19.087467193603516 10.665754318237305 19.087467193603516 10.866588592529297 M22.588308334350586 10.622673988342285 L22.588308334350586 10.091764450073242 L20.636993408203125 10.091764450073242 L20.636993408203125 10.622673988342285 L21.29701805114746 10.622673988342285 L21.29701805114746 12.6168212890625 L21.92828369140625 12.6168212890625 L21.92828369140625 10.622673988342285 L22.588308334350586 10.622673988342285 L22.588308334350586 10.622673988342285" fill="black" fill-opacity="1.0" filling="0"/>
<path animation_id="2" d="M12.76025676727295 12.789017677307129 L12.817655563354492 12.65990161895752 L12.918134689331055 12.602502822875977 L13.032933235168457 12.645458221435547 L13.104650497436523 12.774699211120605 L13.004171371459961 13.09033203125 L12.875054359436035 13.405963897705078 L12.703106880187988 13.678516387939453 L12.487704277038574 13.936873435974121 L12.229721069335938 14.152027130126953 L11.942601203918457 14.338542938232422 L11.626969337463379 14.496420860290527 L11.297018051147461 14.611218452453613 L10.92398738861084 14.682936668395996 L10.550955772399902 14.711572647094727 L10.149163246154785 14.69725513458252 L9.733051300048828 14.625536918640137 L9.30274486541748 14.496420860290527 L8.872316360473633 14.324223518371582 L8.441884994506836 14.08030891418457 L7.997136116027832 13.778995513916016 L7.853701114654541 13.66419792175293 L7.8106207847595215 13.60679817199707 L7.853701114654541 13.592479705810547 L7.968499183654785 13.635560035705566 L8.513603210449219 13.879474639892578 L9.030193328857422 14.05154800415039 L9.517898559570312 14.152027130126953 L9.962647438049316 14.195107460021973 L10.393077850341797 14.195107460021973 L10.794870376586914 14.152027130126953 L11.153583526611328 14.08030891418457 L11.469090461730957 13.965511322021484 L11.770403861999512 13.836394309997559 L12.028637886047363 13.678516387939453 L12.244038581848145 13.52076244354248 L12.430305480957031 13.348565101623535 L12.57374095916748 13.19068717956543 L12.674468994140625 13.032933235168457 L12.745938301086426 12.903816223144531 L12.76025676727295 12.789017677307129 L12.76025676727295 12.789017677307129" fill="black" fill-opacity="1.0" filling="0"/>
<path animation_id="3" d="M12.65990161895752 12.51659107208252 L12.961215019226074 12.51659107208252 L13.17636775970459 12.545352935791016 L13.276847839355469 12.645458221435547 L13.23376750946045 12.860735893249512 L13.21944808959961 12.903816223144531 L13.205129623413086 12.946772575378418 L13.19068717956543 12.875054359436035 L13.09033203125 12.774699211120605 L12.903816223144531 12.674220085144043 L12.674468994140625 12.645458221435547 L12.631139755249023 12.57374095916748 L12.65990161895752 12.51659107208252 L12.65990161895752 12.51659107208252" fill="black" fill-opacity="1.0" filling="0"/></svg>