<?xml version="1.0" encoding="iso-8859-1"?><svg height="200px" viewBox="0.0 0.0 24.0 24.0" width="200px" xmlns="http://www.w3.org/2000/svg"><path animation_id="0" d="M0.0 0.0 L24.0 0.0 L24.0 24.0 L0.0 24.0 L0.0 0.0" fill="black" fill-opacity="1.0" filling="0"/>
<path animation_id="1" d="M1.0588302612304688 16.741329193115234 L22.937808990478516 16.765735626220703 L17.543048858642578 13.593725204467773 L12.01232624053955 4.095499515533447 L6.355849266052246 13.593725204467773 C6.355724811553955 13.593849182128906 1.0832347869873047 16.765735626220703 1.0588302612304688 16.741329193115234 L1.0588302612304688 16.741329193115234" fill="black" fill-opacity="1.0" filling="0"/>
<path animation_id="2" d="M7.214219570159912 13.40198040008545 L12.012202262878418 5.407582759857178 L16.635622024536133 13.40198040008545 L11.96327018737793 16.123638153076172 L7.214219570159912 13.40198040008545 L7.214219570159912 13.40198040008545" fill="black" fill-opacity="1.0" filling="0"/>
<path animation_id="3" d="M3.3967504501342773 16.0748291015625 L6.976903438568115 13.974226951599121 L10.602502822875977 16.0748291015625 L3.3967504501342773 16.0748291015625 M13.296271324157715 16.0993595123291 L16.921871185302734 13.974226951599121 L20.526302337646484 16.0993595123291 L13.296271324157715 16.0993595123291 L13.296271324157715 16.0993595123291" fill="black" fill-opacity="1.0" filling="0"/>
<path animation_id="4" d="M1.0588302612304688 19.24335479736328 L1.0588302612304688 17.069414138793945 L2.8523941040039062 17.069414138793945 C3.2327709197998047 17.069414138793945 3.46298885345459 17.07277488708496 3.532839775085449 17.076387405395508 C3.696819305419922 17.08684539794922 3.815476417541504 17.111249923706055 3.8922996520996094 17.15308380126953 C3.9830665588378906 17.20201873779297 4.038846969604492 17.26837921142578 4.066737174987793 17.355539321899414 C4.091141223907471 17.43584632873535 4.101724624633789 17.52997589111328 4.101724624633789 17.631202697753906 C4.101724624633789 17.760318756103516 4.087779521942139 17.854572296142578 4.059889316558838 17.920812606811523 C4.014568328857422 18.025524139404297 3.9168272018432617 18.098859786987305 3.7667932510375977 18.1370849609375 C3.8749923706054688 18.151031494140625 3.958786964416504 18.175559997558594 4.011082172393799 18.21042251586914 C4.133225440979004 18.280271530151367 4.19597864151001 18.43030548095703 4.19597864151001 18.65703773498535 C4.19597864151001 18.835086822509766 4.164602279663086 18.967689514160156 4.10184907913208 19.051361083984375 C4.0459442138671875 19.124698638916016 3.958786964416504 19.176990509033203 3.843616485595703 19.20488166809082 C3.745875358581543 19.225799560546875 3.5853824615478516 19.239744186401367 3.355039596557617 19.239744186401367 L2.8596153259277344 19.24323081970215 L1.0588302612304688 19.24323081970215 L1.0588302612304688 19.24335479736328 M1.781111717224121 17.924297332763672 L2.8558807373046875 17.924297332763672 C3.0897092819213867 17.924297332763672 3.2292842864990234 17.917200088500977 3.2746057510375977 17.89989471435547 C3.3339977264404297 17.88233757019043 3.3653736114501953 17.83004379272461 3.3653736114501953 17.746374130249023 C3.3653736114501953 17.659217834472656 3.3269004821777344 17.606924057006836 3.257174491882324 17.592979431152344 C3.2292842864990234 17.585880279541016 3.093195915222168 17.58251953125 2.8558807373046875 17.57903289794922 L1.781111717224121 17.57903289794922 L1.781111717224121 17.924297332763672 L1.781111717224121 17.924297332763672 M1.781111717224121 18.71991539001465 L2.8593664169311523 18.71991539001465 C3.058208465576172 18.71991539001465 3.1768665313720703 18.716428756713867 3.211729049682617 18.716428756713867 C3.3234148025512695 18.71294403076172 3.393263816833496 18.692026138305664 3.424640655517578 18.660648345947266 C3.4455575942993164 18.63275909423828 3.459503173828125 18.590797424316406 3.459503173828125 18.531532287597656 C3.459503173828125 18.440763473510742 3.4210290908813477 18.388595581054688 3.344331741333008 18.37103843688965 C3.316317558288574 18.36406707763672 3.1558237075805664 18.360580444335938 2.859241485595703 18.360580444335938 L1.7809877395629883 18.360580444335938 L1.7809877395629883 18.71991539001465 L1.781111717224121 18.71991539001465 L1.781111717224121 18.71991539001465 M5.895163059234619 17.069414138793945 L8.938056945800781 17.069414138793945 L8.938056945800781 17.578907012939453 L6.722156524658203 17.578907012939453 L6.722156524658203 17.89279556274414 L8.826371192932129 17.89279556274414 L8.826371192932129 18.370914459228516 L6.722156524658203 18.370914459228516 L6.722156524658203 18.71991539001465 L8.955488204956055 18.71991539001465 L8.955488204956055 19.24335479736328 L5.895163059234619 19.24335479736328 L5.895163059234619 17.069414138793945 M10.675714492797852 17.09033203125 L11.652742385864258 17.09033203125 L11.652742385864258 18.709457397460938 L13.81622314453125 18.709457397460938 L13.81622314453125 19.264148712158203 L10.675714492797852 19.264148712158203 L10.675714492797852 17.09033203125 M19.78683853149414 18.500030517578125 L20.54722023010254 18.500030517578125 C20.54722023010254 18.608230590820312 20.571748733520508 18.678081512451172 20.624042510986328 18.709457397460938 C20.652057647705078 18.72340202331543 20.683433532714844 18.73386001586914 20.718421936035156 18.737346649169922 C20.753158569335938 18.74444580078125 20.8159122467041 18.7479305267334 20.903194427490234 18.751291275024414 L21.335865020751953 18.751291275024414 C21.670921325683594 18.751291275024414 21.862791061401367 18.751291275024414 21.918819427490234 18.7479305267334 C22.016559600830078 18.740833282470703 22.082674026489258 18.73037338256836 22.114051818847656 18.716428756713867 C22.15613555908203 18.692026138305664 22.180416107177734 18.639732360839844 22.180416107177734 18.55942153930664 C22.180416107177734 18.503643035888672 22.16634750366211 18.465167999267578 22.138580322265625 18.44412612915039 C22.10010528564453 18.412750244140625 22.009462356567383 18.39531898498535 21.869888305664062 18.39183235168457 C21.76878547668457 18.39183235168457 21.566207885742188 18.38486099243164 21.252193450927734 18.374401092529297 C20.93120765686035 18.360456466674805 20.721782684326172 18.35335922241211 20.627655029296875 18.35335922241211 C20.376144409179688 18.346385955810547 20.201831817626953 18.321983337402344 20.100727081298828 18.276660919189453 C19.968250274658203 18.224367141723633 19.88433074951172 18.13011360168457 19.84249496459961 18.000995635986328 C19.821578979492188 17.927783966064453 19.811119079589844 17.833406448364258 19.811119079589844 17.718358993530273 C19.811119079589844 17.470584869384766 19.863414764404297 17.2960205078125 19.974973678588867 17.198406219482422 C20.05889320373535 17.12158203125 20.184398651123047 17.069290161132812 20.351863861083984 17.044885635375977 C20.505260467529297 17.023967742919922 20.868331909179688 17.01350975036621 21.44057846069336 17.01350975036621 C21.813858032226562 17.01350975036621 22.075576782226562 17.023967742919922 22.22922134399414 17.041399002075195 C22.431550979614258 17.06580352783203 22.578224182128906 17.107763290405273 22.66525650024414 17.167030334472656 C22.787525177001953 17.250825881958008 22.84691619873047 17.400859832763672 22.84691619873047 17.620742797851562 L22.84691619873047 17.72894287109375 L22.086284637451172 17.72894287109375 C22.082674026489258 17.680009841918945 22.079187393188477 17.641660690307617 22.072216033935547 17.620742797851562 C22.05466079711914 17.56135368347168 21.995393753051758 17.52997589111328 21.897903442382812 17.52300262451172 C21.810619354248047 17.516029357910156 21.6011962890625 17.512542724609375 21.26613998413086 17.512542724609375 C20.931333541870117 17.512542724609375 20.735729217529297 17.519641876220703 20.672975540161133 17.536949157714844 C20.606611251831055 17.55450439453125 20.571874618530273 17.603187561035156 20.571874618530273 17.68362045288086 C20.571874618530273 17.760318756103516 20.606611251831055 17.805641174316406 20.680072784423828 17.823196411132812 C20.74282455444336 17.837142944335938 21.01861572265625 17.85108757019043 21.51055145263672 17.865032196044922 C21.957294464111328 17.875490188598633 22.24329376220703 17.889434814453125 22.365310668945312 17.903507232666016 C22.491065979003906 17.920936584472656 22.59217071533203 17.945341110229492 22.665380477905273 17.976716995239258 C22.738842010498047 18.008094787597656 22.794498443603516 18.053539276123047 22.839942932128906 18.11280632019043 C22.906307220458984 18.19659996032715 22.9410457611084 18.3361759185791 22.9410457611084 18.52817153930664 C22.9410457611084 18.74095916748047 22.906307220458984 18.898088455200195 22.843305587768555 18.995704650878906 C22.777191162109375 19.0968074798584 22.668991088867188 19.163169860839844 22.522319793701172 19.198158264160156 C22.375646591186523 19.236629486083984 21.974475860595703 19.253938674926758 21.3149471282959 19.253938674926758 C20.917388916015625 19.253938674926758 20.627655029296875 19.243478775024414 20.449729919433594 19.225921630859375 C20.23333168029785 19.205005645751953 20.076200485229492 19.16304588317871 19.982070922851562 19.10029411315918 C19.88096809387207 19.03741455078125 19.821578979492188 18.943161010742188 19.800661087036133 18.824628829956055 A1.728195309638977 1.728195309638977 0.0 0 1 19.78683853149414 18.615201950073242 L19.78683853149414 18.500030517578125 L19.78683853149414 18.500030517578125 M16.54161834716797 17.058956146240234 C17.030193328857422 17.058956146240234 17.368736267089844 17.069414138793945 17.556869506835938 17.09381866455078 C17.82929801940918 17.128681182861328 17.99651336669922 17.247339248657227 18.055906295776367 17.456640243530273 C18.097740173339844 17.596216201782227 18.118907928466797 17.837142944335938 18.118907928466797 18.179046630859375 C18.118907928466797 18.517587661743164 18.097740173339844 18.758264541625977 18.055906295776367 18.89784049987793 C17.99651336669922 19.10726547241211 17.82929801940918 19.225799560546875 17.556869506835938 19.260662078857422 C17.36861228942871 19.285064697265625 17.023096084594727 19.29552459716797 16.520700454711914 19.29552459716797 C16.021663665771484 19.29552459716797 15.67615032196045 19.285064697265625 15.487642288208008 19.260662078857422 C15.21546459197998 19.225799560546875 15.047998428344727 19.10726547241211 14.985245704650879 18.89784049987793 C14.943410873413086 18.758264541625977 14.922492980957031 18.51746368408203 14.922492980957031 18.179046630859375 C14.922492980957031 17.837142944335938 14.943410873413086 17.596216201782227 14.985245704650879 17.456640243530273 C15.047998428344727 17.247339248657227 15.21558952331543 17.128681182861328 15.487642288208008 17.09381866455078 C15.676025390625 17.069414138793945 16.028636932373047 17.058956146240234 16.54161834716797 17.058956146240234 M16.496047973632812 17.624229431152344 C16.140321731567383 17.624229431152344 15.923799514770508 17.631202697753906 15.846978187561035 17.652118682861328 C15.756210327148438 17.673036575317383 15.696943283081055 17.72545623779297 15.669178009033203 17.802154541015625 C15.644649505615234 17.878976821899414 15.634190559387207 18.02203941345215 15.634190559387207 18.231340408325195 C15.634190559387207 18.363943099975586 15.641287803649902 18.461681365966797 15.655108451843262 18.520950317382812 C15.683122634887695 18.632633209228516 15.770404815673828 18.69538688659668 15.913341522216797 18.712820053100586 C16.017929077148438 18.72340202331543 16.22050666809082 18.73037338256836 16.52057456970215 18.73037338256836 C16.82064437866211 18.73037338256836 17.02633285522461 18.72340202331543 17.13117218017578 18.712820053100586 C17.27410888671875 18.69538688659668 17.358028411865234 18.632633209228516 17.385793685913086 18.520950317382812 C17.403348922729492 18.461559295654297 17.410320281982422 18.367429733276367 17.410320281982422 18.23818588256836 C17.410320281982422 18.08479118347168 17.40671157836914 17.97298240661621 17.396251678466797 17.906742095947266 C17.382431030273438 17.798667907714844 17.34395980834961 17.725330352783203 17.28830337524414 17.690467834472656 C17.235759735107422 17.65560531616211 17.13117218017578 17.634687423706055 16.96706771850586 17.627592086791992 C16.907800674438477 17.624229431152344 16.750919342041016 17.624229431152344 16.496047973632812 17.624229431152344 L16.496047973632812 17.624229431152344" fill="black" fill-opacity="1.0" filling="0"/></svg>