<?xml version="1.0" encoding="iso-8859-1"?><svg height="200px" viewBox="0.0 0.0 24.0 24.0" width="200px" xmlns="http://www.w3.org/2000/svg"><path animation_id="0" d="M0.0 0.0 L24.0 0.0 L24.0 24.0 L0.0 24.0 L0.0 0.0" fill="black" fill-opacity="1.0" filling="0"/>
<path animation_id="1" d="M14.767976760864258 21.29315948486328 C12.185395240783691 22.046815872192383 11.365124702453613 21.110252380371094 10.694639205932617 20.927349090576172 C9.68050765991211 19.724834442138672 7.8960347175598145 18.59988784790039 6.166967391967773 18.228473663330078 C6.166967391967773 20.412002563476562 4.4213409423828125 19.087345123291016 3.8393821716308594 17.95679473876953 C3.828301429748535 17.99016571044922 3.601071357727051 17.43024444580078 3.612277030944824 17.41941261291504 C3.612277030944824 16.46616554260254 2.969308853149414 15.679139137268066 2.043828010559082 14.908796310424805 C0.32596683502197266 11.860922813415527 1.2458438873291016 10.503144264221191 1.8777313232421875 7.4385857582092285 C1.8777313232421875 7.4385857582092285 2.0328712463378906 6.767975807189941 2.043828010559082 6.756770133972168 C3.789578437805176 3.830791473388672 6.449604511260986 3.7752599716186523 9.514287948608398 5.232895374298096 C10.450849533081055 4.928095817565918 9.126315116882324 3.0272045135498047 10.389840126037598 2.5284194946289062 C12.285127639770508 2.7722091674804688 14.911909103393555 1.7469959259033203 16.447114944458008 3.287679672241211 C16.67422103881836 4.534644603729248 17.516653060913086 4.279649257659912 18.768972396850586 4.861607551574707 C19.234390258789062 5.249455451965332 20.049057006835938 6.418850898742676 20.664384841918945 6.64608097076416 C21.368112564086914 6.540870666503906 21.384674072265625 11.184835433959961 20.952499389648438 11.279088020324707 C22.215774536132812 12.387474060058594 22.476499557495117 13.385046005249023 21.229534149169922 14.79262924194336 C21.229534149169922 15.524124145507812 22.493059158325195 15.507564544677734 22.930835723876953 16.299819946289062 C22.919876098632812 16.316627502441406 23.318683624267578 17.341842651367188 20.06026268005371 17.14225196838379 C19.77214813232422 17.34196662902832 19.63904571533203 17.823944091796875 19.20114517211914 18.151031494140625 C18.808069229125977 18.012327194213867 15.139389038085938 21.62024688720703 14.767976760864258 21.29315948486328 L14.767976760864258 21.29315948486328" fill="black" fill-opacity="1.0" filling="0"/>
<path animation_id="2" d="M12.867086410522461 20.988357543945312 C11.58687686920166 20.761005401611328 10.195854187011719 20.240055084228516 9.675029754638672 19.187076568603516 L9.968748092651367 19.187076568603516 C9.968748092651367 19.236881256103516 9.985307693481445 19.28145408630371 10.001992225646973 19.34781837463379 C10.013072967529297 19.314449310302734 10.046317100524902 19.298015594482422 10.079562187194824 19.28145408630371 C10.129490852355957 19.3145751953125 10.855381965637207 20.07931137084961 11.248957633972168 20.173690795898438 C11.282201766967773 20.112682342529297 11.309967041015625 20.062753677368164 11.359770774841309 20.01294708251953 C11.7976713180542 20.04631805419922 11.991533279418945 19.963146209716797 12.268692970275879 20.57809829711914 C12.51260757446289 20.339786529541016 12.51260757446289 20.190250396728516 12.545726776123047 19.92977523803711 C12.75627326965332 19.86876678466797 12.96694278717041 19.81884002685547 13.194297790527344 19.769033432006836 C13.205254554748535 20.01294708251953 13.271618843078613 20.112682342529297 13.515533447265625 20.467161178588867 C13.598705291748047 20.467161178588867 13.676275253295898 20.467161178588867 13.759448051452637 20.483970642089844 C13.792816162109375 20.289857864379883 13.842619895935059 20.112682342529297 13.886820793151855 19.92977523803711 L14.441014289855957 19.92977523803711 C14.457572937011719 20.095870971679688 14.518583297729492 20.156883239746094 14.49081802368164 20.206809997558594 C14.61819076538086 20.28998374938965 14.701363563537598 20.28998374938965 15.039407730102539 20.256614685058594 C14.989603996276855 20.206809997558594 14.956235885620117 20.156883239746094 14.922865867614746 20.129241943359375 C14.956235885620117 20.062877655029297 14.989479064941406 20.01294708251953 15.039407730102539 19.963146209716797 C15.249954223632812 19.94633674621582 15.460623741149902 19.92977523803711 15.687729835510254 19.92977523803711 C14.989603996276855 20.988357543945312 14.0032377243042 20.988357543945312 12.867086410522461 20.988357543945312 L12.867086410522461 20.988357543945312" fill="black" fill-opacity="1.0" filling="0"/>
<path animation_id="3" d="M11.686609268188477 19.641660690307617 C11.005043029785156 19.431116104125977 10.550581932067871 19.070907592773438 10.22361946105957 18.716054916381836 C8.588807106018066 18.605365753173828 8.588807106018066 18.605365753173828 8.394820213317871 18.522193908691406 C8.394820213317871 18.244911193847656 8.522317886352539 18.211915969848633 8.705099105834961 18.034364700317383 C8.084417343139648 17.95679473876953 7.1810994148254395 17.99016571044922 7.081367492675781 17.452407836914062 C9.458881378173828 17.020233154296875 12.240801811218262 16.189128875732422 10.240180015563965 13.711759567260742 C9.608416557312012 13.079998016357422 9.287056922912598 12.946897506713867 8.621926307678223 12.736599922180176 C8.621926307678223 12.381747245788574 9.336860656738281 11.766544342041016 9.514163970947266 11.328767776489258 C9.447674751281738 11.328767776489258 9.397746086120605 11.345328330993652 9.353421211242676 11.362011909484863 C8.411255836486816 12.298574447631836 7.762933731079102 12.36518669128418 6.549212455749512 12.459317207336426 L6.549212455749512 12.137832641601562 C5.70690393447876 12.137832641601562 4.942040920257568 12.104713439941406 4.216148853302002 12.021540641784668 C4.604121685028076 12.475751876831055 5.119467258453369 12.642097473144531 5.784473896026611 12.896968841552734 C5.817717552185059 13.046504020690918 5.867646217346191 13.19068717956543 5.917450428009033 13.334744453430176 C5.119467258453369 14.049678802490234 4.925480842590332 13.695199966430664 4.227230548858643 13.224055290222168 C4.227230548858643 13.124322891235352 4.243790149688721 13.029945373535156 4.260599136352539 12.946772575378418 C3.5845108032226562 12.653303146362305 3.0802459716796875 12.459192276000977 3.1743764877319336 11.766419410705566 C5.540808200836182 10.857624053955078 7.602315902709961 11.278715133666992 9.076387405395508 8.734981536865234 C12.318495750427246 5.493370056152344 12.512482643127441 10.065367698669434 16.05914306640625 10.065367698669434 C16.286495208740234 9.83813762664795 16.707714080810547 9.189815521240234 17.0345516204834 8.8129243850708 C17.09556007385254 8.829483985900879 17.178733825683594 8.846168518066406 17.26190757751465 8.862852096557617 C17.42239761352539 9.189815521240234 17.64975357055664 9.494614601135254 17.71063995361328 9.982318878173828 C17.06231689453125 10.353607177734375 16.691028594970703 11.001930236816406 16.175682067871094 11.617133140563965 C15.782232284545898 11.522878646850586 15.848596572875977 11.406586647033691 15.737658500671387 11.245844841003418 C15.316690444946289 11.362260818481445 15.704538345336914 11.960780143737793 15.992778778076172 12.204694747924805 C16.934818267822266 11.79455852508545 16.840566635131836 10.630765914916992 17.843616485595703 10.758139610290527 C18.020917892456055 11.750109672546387 18.331445693969727 13.22430419921875 17.68287467956543 14.26047420501709 C17.599950790405273 14.194110870361328 17.68287467956543 11.994024276733398 17.68287467956543 11.810994148254395 C16.56353187561035 11.994024276733398 15.81547737121582 12.492809295654297 15.704538345336914 13.711884498596191 C16.192119598388672 14.454586029052734 17.583141326904297 14.116540908813477 17.810497283935547 15.069538116455078 C16.774076461791992 15.457635879516602 15.28332233428955 14.360206604003906 15.089336395263672 15.396625518798828 C15.671294212341309 15.440827369689941 16.59677505493164 15.801033020019531 17.195293426513672 15.801033020019531 C17.339475631713867 15.590487480163574 17.921186447143555 15.36325740814209 18.331445693969727 15.36325740814209 C18.58631706237793 15.651372909545898 18.636119842529297 15.651372909545898 18.68604850769043 16.205690383911133 C17.095685958862305 16.139326095581055 12.302061080932617 16.04494857788086 12.218888282775879 18.472389221191406 C14.114299774169922 16.82064437866211 16.774202346801758 15.978584289550781 19.301376342773438 16.870820999145508 C19.301376342773438 17.69644546508789 19.040653228759766 17.763057708740234 18.33156967163086 17.663326263427734 C18.33156967163086 17.763057708740234 18.342525482177734 17.87362289428711 18.359336853027344 17.99016571044922 C16.868331909179688 19.33125877380371 15.687978744506836 19.492000579833984 13.75957202911377 19.44754981994629 C13.809375762939453 19.02633285522461 13.92031478881836 18.682937622070312 13.886944770812988 18.588682174682617 C13.027828216552734 19.22044563293457 12.62317180633545 19.641660690307617 11.686609268188477 19.641660690307617 L11.686609268188477 19.641660690307617" fill="black" fill-opacity="1.0" filling="0"/>
<path animation_id="4" d="M11.082612991333008 18.76598358154297 C10.483969688415527 18.06785774230957 10.871942520141602 17.763057708740234 11.409575462341309 17.292037963867188 C11.26551628112793 17.873746871948242 11.132416725158691 18.799226760864258 11.082612991333008 18.76598358154297" fill="black" fill-opacity="1.0" filling="0"/>
<path animation_id="5" d="M5.346822261810303 18.57212257385254 C5.252692699432373 18.488950729370117 5.152835845947266 18.411380767822266 5.075390815734863 18.328208923339844 C5.186204433441162 18.228473663330078 5.186204433441162 18.228473663330078 5.463363170623779 18.167465209960938 C5.5242486000061035 18.245037078857422 5.5907368659973145 18.328208923339844 5.6737847328186035 18.411380767822266 C5.574052333831787 18.555313110351562 5.46323823928833 18.588682174682617 5.346822261810303 18.57212257385254 M4.393699645996094 17.17549705505371 C4.814791679382324 14.825873374938965 7.425014019012451 12.431675910949707 9.36462688446045 14.958600997924805 C9.625101089477539 14.958600997924805 9.952064514160156 14.809064865112305 10.273548126220703 14.68156623840332 C9.514287948608398 14.471020698547363 9.220569610595703 14.42109203338623 9.142999649047852 13.872502326965332 C9.270373344421387 13.789329528808594 9.414555549621582 13.722966194152832 9.564091682434082 13.661955833435059 L6.970678329467773 13.661955833435059 C7.391770362854004 11.960654258728027 12.606611251831055 14.293719291687012 10.001992225646973 16.316505432128906 C10.001992225646973 16.044822692871094 10.06300163269043 15.945215225219727 10.162734985351562 15.701301574707031 C9.547656059265137 15.767913818359375 9.43124008178711 16.283260345458984 9.026707649230957 16.643342971801758 C8.295212745666504 16.981386184692383 6.028512954711914 17.386043548583984 5.88445520401001 16.48284912109375 C7.990413188934326 16.964826583862305 8.865965843200684 16.70995330810547 8.865965843200684 14.68156623840332 C8.05677604675293 14.48770523071289 7.846355438232422 14.404532432556152 7.081491947174072 14.471020698547363 C7.131295680999756 14.537633895874023 7.1812238693237305 14.598394393920898 7.242233753204346 14.68156623840332 C7.198032855987549 14.764739036560059 7.198032855987549 14.764739036560059 6.045197010040283 15.052854537963867 C6.1892547607421875 15.202390670776367 6.1892547607421875 15.185831069946289 6.23918342590332 15.440702438354492 C5.901139259338379 15.750980377197266 5.6737847328186035 15.834153175354004 5.297018051147461 15.928531646728516 C5.557492256164551 16.061260223388672 5.557492256164551 16.061260223388672 5.6737847328186035 16.20556640625 C5.446678638458252 16.609973907470703 5.152835845947266 16.609973907470703 4.909045696258545 16.903690338134766 C4.975533962249756 16.981260299682617 4.975533962249756 16.981260299682617 5.46323823928833 17.064434051513672 C5.441075801849365 17.08124351501465 6.011828422546387 18.33916473388672 5.075266361236572 17.779369354248047 C5.075390815734863 18.699621200561523 4.504513740539551 17.319805145263672 4.393699645996094 17.17549705505371" fill="black" fill-opacity="1.0" filling="0"/>
<path animation_id="6" d="M16.219884872436523 18.117660522460938 C15.671294212341309 17.807384490966797 15.560356140136719 17.940359115600586 15.089336395263672 17.99028778076172 L15.089336395263672 17.823944091796875 C15.621365547180176 17.663450241088867 16.84044075012207 17.241985321044922 17.472328186035156 17.552513122558594 C17.211727142333984 17.679885864257812 16.386104583740234 18.117660522460938 16.219884872436523 18.117660522460938 L16.219884872436523 18.117660522460938" fill="black" fill-opacity="1.0" filling="0"/>
<path animation_id="7" d="M21.262901306152344 16.660276412963867 C20.664384841918945 16.560543060302734 19.982818603515625 16.54373550415039 19.866275787353516 16.045072555541992 C21.229534149169922 15.297018051147461 20.59777069091797 15.213846206665039 22.282512664794922 16.122642517089844 C22.282512664794922 16.283384323120117 22.2491455078125 16.416362762451172 22.12177276611328 16.61022186279297 C21.828052520751953 16.626907348632812 21.539936065673828 16.64346694946289 21.262901306152344 16.660276412963867 L21.262901306152344 16.660276412963867 M6.322106838226318 16.333187103271484 C5.961900234222412 15.607295989990234 7.01487922668457 15.330013275146484 7.519268035888672 15.230405807495117 C7.646641731262207 15.768038749694824 7.646641731262207 15.768038749694824 7.646641731262207 16.08927345275879 C7.147980213165283 16.416362762451172 6.821017742156982 16.316627502441406 6.322106838226318 16.333187103271484 L6.322106838226318 16.333187103271484 M3.7784976959228516 15.801033020019531 C3.096806526184082 15.540559768676758 2.642345428466797 14.388096809387207 2.3155078887939453 14.310277938842773 C0.7304983139038086 11.328892707824707 1.7003049850463867 8.214529991149902 5.29689359664917 7.926290512084961 C5.252568244934082 7.516155242919922 5.219324111938477 7.128182888031006 5.186079978942871 6.740334987640381 C4.714935302734375 7.277719020843506 4.714935302734375 7.277719020843506 4.377015590667725 7.809873580932617 C4.133225440979004 7.48838996887207 4.133225440979004 7.48838996887207 4.016808986663818 7.161427021026611 C3.9558000564575195 7.144866943359375 3.889310836791992 7.128182888031006 3.8393821716308594 7.128182888031006 C3.567826271057129 7.405341625213623 3.48477840423584 7.759945392608643 3.357280731201172 8.164477348327637 C3.030318260192871 8.164477348327637 2.96382999420166 7.942850112915039 2.8030881881713867 7.892921447753906 C2.6757144927978516 8.136711120605469 2.5426130294799805 8.391708374023438 2.4319238662719727 8.652181625366211 C2.060635566711426 8.47488021850586 2.559297561645508 6.5131049156188965 3.6787643432617188 6.5131049156188965 C3.8727502822875977 6.0586442947387695 3.9724836349487305 5.88134241104126 4.4879536628723145 5.814854145050049 C4.504638195037842 5.914586067199707 4.52119779586792 6.025400161743164 4.537757873535156 6.14181661605835 C5.186204433441162 5.814854145050049 4.831476211547852 5.493370056152344 5.784722805023193 5.377078056335449 C5.690593242645264 5.814854145050049 5.690593242645264 5.814854145050049 5.723713397979736 5.981198787689209 C6.011952877044678 5.753969192504883 6.011952877044678 5.753969192504883 6.920749664306641 5.316192626953125 C6.272427082061768 5.183091640472412 5.751478672027588 5.138766288757324 5.236133098602295 5.105522155761719 C5.252692699432373 5.039033889770508 5.269376754760742 4.989105701446533 5.28593635559082 4.944780349731445 C6.67695951461792 4.7453155517578125 8.39494514465332 4.861732006072998 9.564091682434082 6.025400161743164 C9.575297355651855 6.014318943023682 9.608416557312012 5.997634410858154 9.641786575317383 5.981074333190918 C10.012948989868164 6.285874366760254 10.389840126037598 6.596277236938477 10.777812004089355 6.901076793670654 C10.761253356933594 6.951005458831787 10.761253356933594 7.017369270324707 10.761253356933594 7.083857536315918 C9.126440048217773 7.3555378913879395 8.539003372192383 9.577662467956543 7.197908401489258 9.577662467956543 C3.2576732635498047 6.529664516448975 0.6640110015869141 10.774700164794922 3.0470027923583984 14.581958770751953 C3.3074769973754883 14.858992576599121 3.856191635131836 15.186080932617188 3.856191635131836 15.767913818359375 A0.11330386996269226 0.11330386996269226 0.0 0 0 3.7784976959228516 15.801033020019531 L3.7784976959228516 15.801033020019531 M19.0905818939209 15.62373161315918 C18.76909637451172 15.102782249450684 18.39220428466797 14.875677108764648 18.087406158447266 14.581958770751953 C18.164976119995117 13.88918685913086 18.214780807495117 14.116540908813477 18.979642868041992 14.066364288330078 C19.0905818939209 14.42121696472168 19.217954635620117 14.792505264282227 19.350933074951172 15.169395446777344 C19.461868286132812 15.069414138793945 19.57803726196289 14.991844177246094 19.705533981323242 14.908672332763672 C19.705533981323242 14.404532432556152 19.367490768432617 14.31015396118164 19.30112648010254 13.983315467834473 C22.02216339111328 13.30162525177002 18.12077522277832 12.703231811523438 20.01581382751465 11.600199699401855 C22.703853607177734 11.600448608398438 21.47357177734375 15.230280876159668 19.0905818939209 15.62373161315918 L19.0905818939209 15.62373161315918" fill="black" fill-opacity="1.0" filling="0"/>
<path animation_id="8" d="M4.099981307983398 15.036543846130371 C3.8393821716308594 14.809188842773438 3.567951202392578 14.487954139709473 3.451535224914551 14.310402870178223 C3.4182910919189453 14.327211380004883 3.38504695892334 14.343771934509277 3.3684864044189453 14.360206604003906 C3.1910600662231445 13.856067657470703 3.096806526184082 13.950196266174316 3.096806526184082 13.501338005065918 C3.739774703979492 12.952624320983887 5.35230016708374 13.789454460144043 4.099981307983398 15.036543846130371 L4.099981307983398 15.036543846130371" fill="black" fill-opacity="1.0" filling="0"/>
<path animation_id="9" d="M12.590051651000977 14.598518371582031 C10.79437255859375 14.277283668518066 10.583826065063477 11.827678680419922 10.921870231628418 10.63064193725586 C12.074581146240234 11.556123733520508 13.953309059143066 12.897217750549316 14.324722290039062 13.27410888671875 C13.548652648925781 13.595343589782715 13.853452682495117 14.310402870178223 12.590051651000977 14.598518371582031 L12.590051651000977 14.598518371582031" fill="black" fill-opacity="1.0" filling="0"/>
<path animation_id="10" d="M12.867086410522461 14.26047420501709 C12.933698654174805 13.90587043762207 12.983627319335938 13.484779357910156 12.867086410522461 13.301874160766602 C12.606611251831055 13.301874160766602 12.429309844970703 13.418166160583496 12.141194343566895 13.385046005249023 L12.141194343566895 13.22430419921875 A2.9298388957977295 2.9298388957977295 0.0 0 1 12.512482643127441 12.853015899658203 C12.301936149597168 12.221254348754883 11.553632736206055 12.398555755615234 11.248957633972168 12.415240287780762 C11.248957633972168 12.071593284606934 11.199028968811035 12.088152885437012 11.32652759552002 11.877606391906738 C12.20195484161377 11.877606391906738 14.551827430725098 13.418166160583496 12.867086410522461 14.26047420501709 L12.867086410522461 14.26047420501709 M17.195293426513672 13.983564376831055 L17.195293426513672 13.501338005065918 C17.017990112304688 13.512544631958008 16.84044075012207 13.529104232788086 16.65765953063965 13.545788764953613 C16.65765953063965 13.22430419921875 16.93494415283203 13.27410888671875 16.868207931518555 13.013757705688477 C16.75726890563965 12.963705062866211 16.641101837158203 12.930585861206055 16.546972274780273 12.897217750549316 C16.641101837158203 12.509369850158691 16.918010711669922 12.476000785827637 17.32266616821289 12.52592945098877 C17.439208984375 12.897217750549316 17.549774169921875 13.368361473083496 17.32266616821289 13.933760643005371 C17.272863388061523 13.950196266174316 17.228538513183594 13.966756820678711 17.195293426513672 13.983564376831055 L17.195293426513672 13.983564376831055" fill="black" fill-opacity="1.0" filling="0"/>
<path animation_id="11" d="M20.614580154418945 13.711884498596191 C20.614580154418945 13.091327667236328 20.193363189697266 12.415240287780762 20.226484298706055 12.248894691467285 C20.708709716796875 12.575733184814453 21.31283187866211 13.12457275390625 20.664508819580078 13.772893905639648 C20.647701263427734 13.739649772644043 20.631141662597656 13.723091125488281 20.614580154418945 13.711884498596191" fill="black" fill-opacity="1.0" filling="0"/>
<path animation_id="12" d="M18.652681350708008 13.678516387939453 C18.569507598876953 13.645397186279297 18.491939544677734 13.628711700439453 18.409015655517578 13.612152099609375 C18.425575256347656 13.141132354736328 18.409015655517578 12.642346382141113 18.552947998046875 12.332067489624023 C18.99097442626953 12.415240287780762 19.544918060302734 12.997199058532715 20.01593780517578 13.385046005249023 C19.655731201171875 13.739649772644043 19.04052734375 13.678516387939453 18.652681350708008 13.678516387939453 L18.652681350708008 13.678516387939453 M2.686796188354492 13.141132354736328 C2.1380815505981445 11.95517635345459 2.5038909912109375 9.821578025817871 3.8671483993530273 11.001930236816406 C3.7064056396484375 11.134906768798828 3.7064056396484375 11.134906768798828 2.991596221923828 11.389902114868164 C2.7643661499023438 12.348628044128418 3.7730188369750977 13.046753883361816 2.686796188354492 13.141132354736328" fill="black" fill-opacity="1.0" filling="0"/>
<path animation_id="13" d="M14.324722290039062 12.542613983154297 C12.916889190673828 12.204569816589355 12.867086410522461 9.671916961669922 10.761253356933594 9.671916961669922 C10.323352813720703 9.899147033691406 10.323352813720703 9.899147033691406 10.22374439239502 9.871381759643555 C10.711448669433594 6.950881004333496 14.097366333007812 11.943970680236816 14.71269416809082 11.943970680236816 C14.812426567077637 11.84423828125 14.812426567077637 11.84423828125 14.922990798950195 11.439705848693848 C15.28332233428955 11.977214813232422 14.989603996276855 12.542613983154297 14.324722290039062 12.542613983154297 L14.324722290039062 12.542613983154297" fill="black" fill-opacity="1.0" filling="0"/>
<path animation_id="14" d="M19.04052734375 12.01058292388916 C18.66948890686035 11.506319046020508 21.06891632080078 9.527859687805176 19.899646759033203 7.77662992477417 C18.42544937133789 7.632571697235107 18.76909637451172 8.718794822692871 17.79368782043457 9.106642723083496 C17.433481216430664 8.06486988067627 17.904624938964844 7.876361846923828 18.61956024169922 7.228039741516113 C18.552947998046875 5.848098278045654 18.491939544677734 5.898026466369629 17.51677894592285 5.105522155761719 C17.533336639404297 5.055717945098877 17.549896240234375 5.02247428894043 17.583141326904297 4.989105701446533 C18.181659698486328 5.055717945098877 18.458818435668945 5.510054588317871 19.0905818939209 5.814854145050049 L19.0905818939209 5.981074333190918 C19.234514236450195 6.025400161743164 19.351055145263672 6.175060749053955 19.578161239624023 6.463176250457764 C19.123699188232422 6.917636871337891 18.896469116210938 6.1251325607299805 18.70273208618164 5.864658355712891 C18.70273208618164 6.158376216888428 19.007408142089844 6.707090854644775 19.14051055908203 7.227915287017822 C19.301252365112305 6.984125137329102 19.672290802001953 7.083733081817627 20.01593780517578 7.083733081817627 C22.188507080078125 8.103591918945312 19.334247589111328 12.204569816589355 19.04052734375 12.01058292388916 L19.04052734375 12.01058292388916" fill="black" fill-opacity="1.0" filling="0"/>
<path animation_id="15" d="M18.602752685546875 11.134906768798828 C18.525182723999023 11.118346214294434 18.458818435668945 11.118346214294434 18.39220428466797 11.118346214294434 C18.359086990356445 10.9686861038208 18.342403411865234 10.824628829956055 18.331445693969727 10.680570602416992 C18.76922035217285 10.724771499633789 18.76922035217285 10.724771499633789 18.979766845703125 10.841312408447266 C18.880035400390625 11.001930236816406 18.79686164855957 11.134906768798828 18.602752685546875 11.134906768798828 M5.29689359664917 10.741455078125 C5.363506317138672 10.419971466064453 5.479798793792725 10.303679466247559 5.590612411499023 10.032123565673828 C5.7346696853637695 9.998879432678223 5.8843302726745605 9.965760231018066 6.045072555541992 9.932392120361328 C5.8290486335754395 10.486583709716797 5.707028388977051 10.608479499816895 5.29689359664917 10.741455078125 M3.7286930084228516 10.597522735595703 C1.866525650024414 9.932392120361328 4.454709529876709 8.020544052124023 5.042022228240967 9.383801460266113 C4.909045696258545 10.464421272277832 4.487829208374023 10.597522735595703 3.7286930084228516 10.597522735595703 L3.7286930084228516 10.597522735595703 M18.652681350708008 10.242670059204102 C18.552947998046875 10.159622192382812 18.552947998046875 10.159622192382812 18.331445693969727 10.142936706542969 C18.331445693969727 9.367116928100586 18.946399688720703 8.05366325378418 19.805641174316406 8.751914978027344 C19.838634490966797 9.68860149383545 19.705659866333008 10.303679466247559 18.652681350708008 10.242670059204102" fill="black" fill-opacity="1.0" filling="0"/>
<path animation_id="16" d="M7.452779769897461 9.07339859008789 C6.793251991271973 8.668742179870605 7.147980213165283 7.876361846923828 7.729814052581787 7.760069847106934 C7.486023902893066 8.197846412658691 7.552512168884277 8.44163703918457 7.619000434875488 9.056838989257812 C7.552512168884277 9.056838989257812 7.5025835037231445 9.056838989257812 7.452779769897461 9.07339859008789" fill="black" fill-opacity="1.0" filling="0"/>
<path animation_id="17" d="M15.133785247802734 9.023594856262207 C13.58202075958252 7.926414966583252 15.166906356811523 6.23607063293457 16.579967498779297 7.228039741516113 L16.579967498779297 7.59932804107666 C16.44723892211914 7.732304573059082 16.336301803588867 7.809873580932617 16.175559997558594 7.809873580932617 C15.587997436523438 6.934196949005127 14.68480396270752 7.970615863800049 15.344331741333008 8.458320617675781 C15.621365547180176 8.54136848449707 15.621365547180176 8.54136848449707 15.687729835510254 8.619062423706055 C15.587997436523438 8.752038955688477 15.493868827819824 8.879537582397461 15.410696029663086 9.023594856262207 L15.133785247802734 9.023594856262207 L15.133785247802734 9.023594856262207" fill="black" fill-opacity="1.0" filling="0"/>
<path animation_id="18" d="M10.22361946105957 8.574736595153809 C10.30666732788086 7.715744495391846 11.038162231445312 7.876486301422119 11.686609268188477 8.347506523132324 C11.021727561950684 8.347382545471191 10.694764137268066 8.347382545471191 10.22361946105957 8.574736595153809 M6.272303104400635 8.214529991149902 C6.078192234039307 8.120277404785156 5.901014804840088 8.020544052124023 5.723588943481445 7.926414966583252 C5.917574882507324 7.388781547546387 6.078192234039307 7.211479663848877 6.416236400604248 6.840191841125488 C6.416236400604248 7.277967929840088 6.416236400604248 7.732429027557373 6.432920455932617 8.181285858154297 C6.366432189941406 8.181285858154297 6.322106838226318 8.197721481323242 6.272303104400635 8.214529991149902" fill="black" fill-opacity="1.0" filling="0"/>
<path animation_id="19" d="M13.74276351928711 8.05366325378418 C13.205129623413086 7.632571697235107 13.432485580444336 7.000809669494629 13.404719352722168 6.463176250457764 C13.16080379486084 6.740334987640381 12.933698654174805 7.033928871154785 12.706344604492188 7.322168827056885 C12.301936149597168 7.094939231872559 12.26856803894043 7.0506134033203125 12.235322952270508 6.840067386627197 C12.573368072509766 6.435535430908203 13.254934310913086 5.3493123054504395 13.74276351928711 5.233019828796387 C14.130610466003418 5.543298244476318 14.0032377243042 6.23607063293457 14.0032377243042 6.840067386627197 C14.307912826538086 6.529664516448975 14.49081802368164 6.2083048820495605 14.878665924072266 6.108572959899902 C14.939675331115723 6.175060749053955 15.022848129272461 6.235946178436279 15.106019973754883 6.302558898925781 C15.056217193603516 6.673847198486328 14.147171020507812 8.05366325378418 13.74276351928711 8.05366325378418" fill="black" fill-opacity="1.0" filling="0"/>
<path animation_id="20" d="M8.167590141296387 7.06729793548584 C8.167590141296387 6.479860782623291 9.237129211425781 6.1251325607299805 9.741518020629883 6.7901387214660645 C9.20388412475586 6.7901387214660645 8.522317886352539 6.856626987457275 8.167590141296387 7.06729793548584" fill="black" fill-opacity="1.0" filling="0"/>
<path animation_id="21" d="M17.51677894592285 7.034053325653076 C17.272863388061523 6.690406799316406 16.142314910888672 6.4022908210754395 15.754467010498047 6.14181661605835 C15.737658500671387 6.0586442947387695 15.737658500671387 5.981074333190918 15.737658500671387 5.914586067199707 C16.319616317749023 6.191745281219482 17.017990112304688 6.6627655029296875 17.793811798095703 6.756895065307617 C17.91035270690918 6.64608097076416 17.91035270690918 6.64608097076416 17.921186447143555 6.418975353240967 C17.599950790405273 6.0586442947387695 17.306232452392578 5.78721284866333 17.26190757751465 5.493370056152344 C17.843616485595703 5.604308128356934 18.198345184326172 6.108572959899902 18.248273849487305 6.840067386627197 C18.08753204345703 7.083857536315918 17.74388313293457 7.017369270324707 17.51677894592285 7.034053325653076 L17.51677894592285 7.034053325653076 M11.52038860321045 6.546349048614502 C10.062877655029297 5.898026466369629 11.071406364440918 4.22984504699707 12.00809383392334 4.0525431632995605 A10.878292083740234 10.878292083740234 0.0 0 0 12.37950611114502 4.340658664703369 C12.057897567749023 4.811679363250732 11.731059074401855 5.2826995849609375 11.409575462341309 5.753719806671143 C11.52038860321045 5.864658355712891 11.52038860321045 5.881217956542969 11.686609268188477 5.881217956542969 A53.876861572265625 53.876861572265625 0.0 0 1 12.706219673156738 4.700865745544434 C14.147171020507812 4.972545623779297 12.218764305114746 6.49654483795166 11.52038860321045 6.546349048614502 L11.52038860321045 6.546349048614502" fill="black" fill-opacity="1.0" filling="0"/>
<path animation_id="22" d="M6.92062520980835 6.302558898925781 C7.081367492675781 5.720724582672119 8.040092468261719 5.460250377655029 8.538878440856934 5.96451473236084 C7.907115936279297 6.042084693908691 7.452779769897461 6.14181661605835 6.92062520980835 6.302558898925781" fill="black" fill-opacity="1.0" filling="0"/>
<path animation_id="23" d="M16.546846389770508 5.88134241104126 C15.57143783569336 5.559982776641846 13.9032564163208 4.263089179992676 13.354541778564453 3.6480112075805664 C13.32142162322998 3.675652503967285 13.288177490234375 3.7088966369628906 13.271368980407715 3.7588253021240234 C12.983502388000488 3.54827880859375 12.706219673156738 3.354292869567871 12.589926719665527 3.160305976867676 C14.518333435058594 2.578348159790039 14.291228294372559 3.6922121047973633 16.175434112548828 4.213285446166992 C16.430307388305664 4.5070037841796875 16.790388107299805 5.199651718139648 16.790388107299805 5.814854145050049 C16.707714080810547 5.88134241104126 16.707714080810547 5.88134241104126 16.546846389770508 5.88134241104126 M15.527236938476562 3.675652503967285 C15.106019973754883 3.3044891357421875 15.022848129272461 3.2711191177368164 14.973043441772461 2.9497604370117188 C15.233518600463867 2.983004570007324 16.02602195739746 2.9995641708374023 15.898401260375977 3.675652503967285 L15.527236938476562 3.675652503967285 L15.527236938476562 3.675652503967285" fill="black" fill-opacity="1.0" filling="0"/></svg>