<?xml version="1.0" encoding="iso-8859-1"?><svg height="200px" viewBox="0.0 0.0 24.0 24.0" width="200px" xmlns="http://www.w3.org/2000/svg"><path animation_id="0" d="M0.0 0.0 L24.0 0.0 L24.0 24.0 L0.0 24.0 L0.0 0.0" fill="black" fill-opacity="1.0" filling="0"/>
<path animation_id="1" d="M4.427441596984863 12.534147262573242 L23.294029235839844 12.534147262573242 L23.294029235839844 10.97005558013916 L4.427441596984863 10.97005558013916 L4.427441596984863 12.534147262573242 L4.427441596984863 12.534147262573242 M1.7218456268310547 11.891801834106445 L1.7497358322143555 11.808006286621094 L1.6800107955932617 11.755587577819824 L1.767167091369629 11.755587577819824 L1.7950572967529297 11.671792030334473 L1.8230714797973633 11.755587577819824 L1.910353660583496 11.755587577819824 L1.8405027389526367 11.808006286621094 L1.8683929443359375 11.891801834106445 L1.7950572967529297 11.83938217163086 L1.7218456268310547 11.891801834106445 M1.910353660583496 11.458880424499512 L1.9382438659667969 11.371599197387695 L1.8649063110351562 11.319305419921875 L1.952188491821289 11.319305419921875 L1.9802026748657227 11.23538589477539 L2.0080928802490234 11.319305419921875 L2.098860740661621 11.319305419921875 L2.025524139404297 11.371599197387695 L2.0535402297973633 11.458880424499512 L1.9802026748657227 11.406462669372559 L1.910353660583496 11.458880424499512 L1.910353660583496 11.458880424499512 M2.249018669128418 11.162050247192383 L2.276909828186035 11.078254699707031 L2.207059860229492 11.025960922241211 L2.2943410873413086 11.025960922241211 L2.3223562240600586 10.94216537475586 L2.350245475769043 11.025960922241211 L2.437527656555176 11.025960922241211 L2.367677688598633 11.078254699707031 L2.3956918716430664 11.162050247192383 L2.3223562240600586 11.109755516052246 L2.249018669128418 11.162050247192383 L2.249018669128418 11.162050247192383 M2.7098302841186523 11.099296569824219 L2.734233856201172 11.015501976013184 L2.664383888244629 10.963083267211914 L2.7516651153564453 10.963083267211914 L2.7796802520751953 10.879287719726562 L2.807570457458496 10.963083267211914 L2.8983383178710938 10.963083267211914 L2.8250017166137695 11.015501976013184 L2.8530168533325195 11.099296569824219 L2.7796802520751953 11.04687786102295 L2.7098302841186523 11.099296569824219 L2.7098302841186523 11.099296569824219 M3.142749786376953 11.263276100158691 L3.1706409454345703 11.179605484008789 L3.097304344177246 11.12718677520752 L3.1880722045898438 11.12718677520752 L3.2160873413085938 11.043392181396484 L3.243976593017578 11.12718677520752 L3.3312578201293945 11.12718677520752 L3.2579221725463867 11.179605484008789 L3.2859363555908203 11.263276100158691 L3.2160873413085938 11.210982322692871 L3.142749786376953 11.263276100158691 L3.142749786376953 11.263276100158691 M3.4045944213867188 11.612525939941406 L3.4324846267700195 11.528731346130371 L3.3626346588134766 11.476311683654785 L3.449915885925293 11.476311683654785 L3.477931022644043 11.39251708984375 L3.5058202743530273 11.476311683654785 L3.5965890884399414 11.476311683654785 L3.523252487182617 11.528731346130371 L3.551142692565918 11.612525939941406 L3.477931022644043 11.560107231140137 L3.4045944213867188 11.612525939941406 L3.4045944213867188 11.612525939941406 M3.484903335571289 12.094254493713379 L3.51279354095459 12.010458946228027 L3.439581871032715 11.958040237426758 L3.5267391204833984 11.958040237426758 L3.554629325866699 11.870759010314941 L3.582643508911133 11.958040237426758 L3.673410415649414 11.958040237426758 L3.6000747680664062 12.010458946228027 L3.627964973449707 12.094254493713379 L3.554629325866699 12.041959762573242 L3.484903335571289 12.094254493713379 L3.484903335571289 12.094254493713379 M3.3277721405029297 12.506132125854492 L3.355661392211914 12.418850898742676 L3.2859363555908203 12.366557121276855 L3.3730926513671875 12.366557121276855 L3.401108741760254 12.282637596130371 L3.4289989471435547 12.366557121276855 L3.5162792205810547 12.366557121276855 L3.446430206298828 12.418850898742676 L3.4744443893432617 12.506132125854492 L3.401108741760254 12.453838348388672 L3.3277721405029297 12.506132125854492 L3.3277721405029297 12.506132125854492 M2.95760440826416 12.799477577209473 L2.9856185913085938 12.71580696105957 L2.912282943725586 12.663264274597168 L2.9995641708374023 12.663264274597168 L3.0275793075561523 12.575982093811035 L3.055469512939453 12.663264274597168 L3.1462364196777344 12.663264274597168 L3.0729007720947266 12.71580696105957 L3.1007909774780273 12.799477577209473 L3.0275793075561523 12.747182846069336 L2.95760440826416 12.799477577209473 L2.95760440826416 12.799477577209473 M2.5073776245117188 12.883397102355957 L2.5352678298950195 12.799477577209473 L2.4619312286376953 12.747182846069336 L2.552699089050293 12.747182846069336 L2.5771026611328125 12.663264274597168 L2.605116844177246 12.747182846069336 L2.6958847045898438 12.747182846069336 L2.6225481033325195 12.799477577209473 L2.650564193725586 12.883397102355957 L2.5771026611328125 12.830854415893555 L2.5073776245117188 12.883397102355957 L2.5073776245117188 12.883397102355957" fill="black" fill-opacity="1.0" filling="0"/>
<path animation_id="2" d="M5.394509315490723 11.717238426208496 C5.583016872406006 11.699807167053223 5.803025722503662 11.619498252868652 5.879848003387451 11.514785766601562 C5.914710998535156 11.469339370727539 5.925169944763184 11.430990219116211 5.90773868560791 11.406586647033691 C5.872875690460205 11.34022331237793 5.705285549163818 11.322792053222656 5.60057258605957 11.329764366149902 C5.583016872406006 11.34022331237793 5.530722618103027 11.406586647033691 5.509805202484131 11.430990219116211 C5.513291358947754 11.430990219116211 5.513291358947754 11.427504539489746 5.513291358947754 11.427504539489746 C5.513291358947754 11.430990219116211 5.509805202484131 11.430990219116211 5.509805202484131 11.434476852416992 C5.485401153564453 11.458880424499512 5.405092716217041 11.581149101257324 5.314324855804443 11.720725059509277 C5.33524227142334 11.720725059509277 5.363132953643799 11.717238426208496 5.394509315490723 11.717238426208496 L5.394509315490723 11.717238426208496 M5.631949424743652 11.42040729522705 C5.659964084625244 11.389031410217285 5.8134846687316895 11.409948348999023 5.820457458496094 11.441325187683105 C5.820457458496094 11.455269813537598 5.8169708251953125 11.469215393066406 5.750607013702393 11.521634101867676 C5.719230651855469 11.54255199432373 5.677270889282227 11.570566177368164 5.61439323425293 11.598456382751465 C5.544543266296387 11.62983226776123 5.481790542602539 11.626346588134766 5.481790542602539 11.626346588134766 C5.481790542602539 11.60194206237793 5.565585613250732 11.490257263183594 5.631949424743652 11.42040729522705 L5.631949424743652 11.42040729522705 M5.485276699066162 11.399489402770996 C5.481790542602539 11.399489402770996 5.481790542602539 11.402976036071777 5.478304386138916 11.402976036071777 C5.481790542602539 11.402976036071777 5.481790542602539 11.399489402770996 5.485276699066162 11.399489402770996" fill="black" fill-opacity="1.0" filling="0"/>
<path animation_id="3" d="M6.019423961639404 11.343585014343262 C5.925169944763184 11.172508239746094 5.593600273132324 11.20749568939209 5.58998966217041 11.20749568939209 C5.541057109832764 11.210982322692871 5.50968074798584 11.242358207702637 5.460748672485352 11.298262596130371 C5.439830780029297 11.322792053222656 5.4258856773376465 11.34022331237793 5.415426731109619 11.354167938232422 C5.352549076080322 11.427504539489746 5.146610260009766 11.748615264892578 5.122206211090088 11.790450096130371 C5.055966854095459 11.895163536071777 5.000062465667725 12.0 4.958102703094482 12.06985092163086 C4.881279945373535 12.2023286819458 4.856875896453857 12.212786674499512 4.923239707946777 12.237441062927246 C4.940670967102051 12.247899055480957 4.951129913330078 12.251261711120605 4.958102703094482 12.25474739074707 C4.958102703094482 12.230466842651367 4.9930901527404785 12.157256126403809 5.188570022583008 11.84286880493164 C5.307352542877197 11.6543607711792 5.446928024291992 11.441325187683105 5.478304386138916 11.406462669372559 L5.478304386138916 11.402976036071777 C5.4992218017578125 11.374961853027344 5.565585613250732 11.294651985168457 5.593600273132324 11.291290283203125 C5.684367656707764 11.280831336975098 5.8903069496154785 11.291290283203125 5.942725658416748 11.385544776916504 C5.967129230499268 11.427504539489746 5.9601569175720215 11.479798316955566 5.914835453033447 11.539190292358398 C5.851958274841309 11.622984886169434 5.705285549163818 11.692834854125977 5.555251598358154 11.731184005737305 C5.621615409851074 11.745128631591797 5.677395343780518 11.766046524047852 5.701923370361328 11.811491966247559 C5.726327896118164 11.84996509552002 5.71935510635376 11.902260780334473 5.6740336418151855 11.965137481689453 C5.583265781402588 12.094254493713379 5.454024791717529 12.178173065185547 5.3212971687316895 12.188632011413574 C5.227043628692627 12.19572925567627 5.143248558044434 12.171076774597168 5.077009677886963 12.111809730529785 C5.0350494384765625 12.181659698486328 5.003673076629639 12.233829498291016 5.000186920166016 12.251385688781738 A0.026645084843039513 0.026645084843039513 0.0 0 1 4.9932146072387695 12.268941879272461 C5.0315632820129395 12.28276252746582 5.077009677886963 12.310776710510254 5.083981990814209 12.272303581237793 C5.091078758239746 12.261844635009766 5.097927093505859 12.248023986816406 5.108386039733887 12.227106094360352 C5.174749851226807 12.261844635009766 5.251572132110596 12.27603816986084 5.331881046295166 12.268941879272461 C5.489012241363525 12.25487232208252 5.635560035705566 12.157380104064941 5.750855922698975 12.014069557189941 C5.838137626647949 11.909357070922852 5.806761264801025 11.815102577209473 5.778746128082275 11.766170501708984 C5.775259971618652 11.759074211120605 5.771773815155029 11.752225875854492 5.764801025390625 11.748615264892578 C5.855568885803223 11.706780433654785 5.935877799987793 11.6543607711792 5.984809875488281 11.587997436523438 C6.071842193603516 11.47282600402832 6.043951988220215 11.385544776916504 6.019423961639404 11.343585014343262 L6.019423961639404 11.343585014343262" fill="black" fill-opacity="1.0" filling="0"/>
<path animation_id="4" d="M5.317686557769775 12.146797180175781 C5.439830780029297 12.136089324951172 5.555127143859863 12.062877655029297 5.64240837097168 11.940733909606934 C5.6737847328186035 11.89528751373291 5.68075704574585 11.856938362121582 5.666811943054199 11.829048156738281 C5.635435581207275 11.773143768310547 5.502832412719727 11.759074211120605 5.394509315490723 11.759074211120605 C5.359646797180176 11.76255989074707 5.321172714233398 11.766170501708984 5.289796829223633 11.766170501708984 A4.793749809265137 4.793749809265137 0.0 0 0 5.097802639007568 12.076823234558105 C5.157069206237793 12.129240989685059 5.234015941619873 12.153520584106445 5.317686557769775 12.146797180175781 L5.317686557769775 12.146797180175781 M5.377078056335449 11.832409858703613 C5.377078056335449 11.832409858703613 5.527236461639404 11.829048156738281 5.5690717697143555 11.84996509552002 C5.618003845214844 11.874370574951172 5.481790542602539 12.021166801452637 5.3526740074157715 12.05590534210205 C5.2793378829956055 12.076823234558105 5.234015941619873 12.069974899291992 5.234015941619873 12.045445442199707 C5.234015941619873 12.010458946228027 5.342215061187744 11.821950912475586 5.377078056335449 11.832409858703613 M7.154080867767334 11.951067924499512 L6.962087154388428 11.961526870727539 L6.801469326019287 11.9721097946167 L6.752537250518799 11.975471496582031 L6.735105514526367 11.975471496582031 C6.6443376541137695 12.08703327178955 6.557056427001953 12.198966979980469 6.518583297729492 12.258234024047852 C6.616323471069336 12.317625045776367 6.633754730224609 12.25113582611084 6.6407270431518555 12.244413375854492 C6.686173439025879 12.188508033752441 6.707090854644775 12.139575958251953 6.773330211639404 12.06611442565918 C6.773330211639404 12.06611442565918 6.783789157867432 12.048559188842773 6.801344871520996 12.041834831237793 C6.822262287139893 12.031375885009766 6.853638648986816 12.027765274047852 6.902571201324463 12.027765274047852 C6.916516304016113 12.027765274047852 7.01774263381958 12.01730728149414 7.01774263381958 12.031375885009766 C7.01774263381958 12.05229377746582 6.965324401855469 12.15003490447998 6.9583516120910645 12.188508033752441 C6.951254367828369 12.219883918762207 6.979269504547119 12.251261711120605 7.021228790283203 12.268816947937012 C7.073771953582764 12.129240989685059 7.1296772956848145 12.006972312927246 7.154080867767334 11.951067924499512 L7.154080867767334 11.951067924499512" fill="black" fill-opacity="1.0" filling="0"/>
<path animation_id="5" d="M7.604432582855225 11.298262596130371 C7.590487957000732 11.287803649902344 7.408952713012695 11.217954635620117 7.3530473709106445 11.200523376464844 C7.265766143798828 11.172633171081543 7.220320224761963 11.235509872436523 7.195916175842285 11.263400077819824 C6.996825218200684 11.476436614990234 6.595405578613281 11.926788330078125 6.483720779418945 12.101351737976074 C6.466289043426514 12.129365921020508 6.417356967926025 12.178173065185547 6.483720779418945 12.233829498291016 C6.588433265686035 12.073336601257324 6.97939395904541 11.619498252868652 6.996949672698975 11.598456382751465 C7.091203212738037 11.49722957611084 7.154080867767334 11.427379608154297 7.196040630340576 11.375085830688477 C7.300753593444824 11.252941131591797 7.311212539672852 11.242483139038086 7.412438869476318 11.294776916503906 L7.426383972167969 11.301749229431152 C7.433480739593506 11.305234909057617 7.440329074859619 11.308721542358398 7.447425842285156 11.308721542358398 C7.468343257904053 11.319181442260742 7.489261150360107 11.326153755187988 7.496233940124512 11.350557327270508 C7.506692886352539 11.374961853027344 7.496233940124512 11.409948348999023 7.443939685821533 11.49722957611084 L7.429994583129883 11.521634101867676 C7.384673118591309 11.60194206237793 7.262404441833496 11.807881355285645 7.2064995765686035 11.93712329864502 C7.2064995765686035 11.940608978271484 7.1298017501831055 12.09412956237793 7.0634379386901855 12.279275894165039 C7.0634379386901855 12.279275894165039 7.066924095153809 12.279275894165039 7.070534706115723 12.282637596130371 C7.189192771911621 12.289734840393066 7.178733825683594 12.237441062927246 7.192679405212402 12.198966979980469 C7.22766637802124 12.111685752868652 7.391645908355713 11.773018836975098 7.580153465270996 11.448297500610352 C7.6673102378845215 11.298262596130371 7.62547492980957 11.315694808959961 7.604432582855225 11.298262596130371 L7.604432582855225 11.298262596130371" fill="black" fill-opacity="1.0" filling="0"/>
<path animation_id="6" d="M7.408952713012695 11.476311683654785 C7.4228973388671875 11.451783180236816 7.464732646942139 11.378447532653809 7.457760334014893 11.36462688446045 C7.457760334014893 11.357654571533203 7.443815231323242 11.354167938232422 7.433356285095215 11.347071647644043 A0.03710390627384186 0.03710390627384186 0.0 0 1 7.408952713012695 11.336612701416016 L7.395007610321045 11.32964038848877 C7.318184852600098 11.294776916503906 7.318184852600098 11.294776916503906 7.227417469024658 11.402976036071777 C7.181971073150635 11.455269813537598 7.122580051422119 11.525120735168457 7.028326511383057 11.626346588134766 A17.680383682250977 17.680383682250977 0.0 0 0 6.769968509674072 11.933636665344238 L7.174874305725098 11.909233093261719 C7.234265327453613 11.776629447937012 7.3494367599487305 11.57753849029541 7.394882678985596 11.500715255737305 L7.408952713012695 11.476311683654785 L7.408952713012695 11.476311683654785 M7.2763495445251465 11.542675971984863 C7.244848728179932 11.602066993713379 7.1366496086120605 11.801033020019531 7.12270450592041 11.829048156738281 C7.105273246765137 11.860424995422363 7.080869197845459 11.860424995422363 7.024964332580566 11.860424995422363 C7.000435829162598 11.856938362121582 6.909792423248291 11.86739730834961 6.9586005210876465 11.8255615234375 C6.972545623779297 11.815102577209473 7.087717056274414 11.68586254119873 7.168025970458984 11.591608047485352 C7.220320224761963 11.528855323791504 7.258793830871582 11.465977668762207 7.293656349182129 11.469463348388672 C7.318184852600098 11.47282600402832 7.293781280517578 11.504202842712402 7.2763495445251465 11.542675971984863 L7.2763495445251465 11.542675971984863 M6.616447925567627 11.186577796936035 C6.543111324310303 11.193551063537598 6.487206935882568 11.214468002319336 6.476747989654541 11.235509872436523 C6.459316253662109 11.27037239074707 6.347506999969482 11.437963485717773 6.309157848358154 11.497354507446289 C6.274294853210449 11.55313491821289 6.2079315185546875 11.654485702514648 6.117164134979248 11.794060707092285 C6.02639627456665 11.937247276306152 5.956546306610107 12.08043384552002 5.949573516845703 12.097616195678711 C5.897154808044434 12.19560432434082 5.94608736038208 12.237441062927246 5.973977565765381 12.247899055480957 C5.977463722229004 12.247899055480957 5.980949878692627 12.251261711120605 5.987922668457031 12.251261711120605 C6.036979675292969 12.087157249450684 6.476872444152832 11.39251708984375 6.616447925567627 11.186577796936035 L6.616447925567627 11.186577796936035 M6.756147861480713 11.193551063537598 C6.724771022796631 11.186577796936035 6.693394660949707 11.186577796936035 6.661893844604492 11.186577796936035 C6.661893844604492 11.190064430236816 6.658407688140869 11.197036743164062 6.658407688140869 11.200523376464844 C6.518707752227783 11.399614334106445 6.068356037139893 12.115171432495117 6.026520729064941 12.26545524597168 C6.054535388946533 12.275914192199707 6.057897090911865 12.28276252746582 6.068356037139893 12.28276252746582 C6.120774745941162 12.296831130981445 6.1382060050964355 12.25474739074707 6.159123420715332 12.216647148132324 C6.302309989929199 11.951192855834961 6.330199718475342 11.916205406188965 6.375646114349365 11.842992782592773 C6.515346050262451 11.622984886169434 6.627030849456787 11.459005355834961 6.644462585449219 11.427628517150879 C6.693270206451416 11.347071647644043 6.794497013092041 11.204009056091309 6.756147861480713 11.193551063537598 L6.756147861480713 11.193551063537598 M8.260848045349121 11.636929512023926 C8.260848045349121 11.633442878723145 8.260848045349121 11.62995719909668 8.264334678649902 11.62995719909668 C8.397062301635742 11.413558959960938 8.376020431518555 11.343709945678711 8.358589172363281 11.322792053222656 C8.334183692932129 11.294776916503906 8.281765937805176 11.301874160766602 8.264334678649902 11.308847427368164 C8.117786407470703 11.364751815795898 7.7721476554870605 11.860424995422363 7.733673572540283 11.94770622253418 C7.698811054229736 12.0278902053833 7.698811054229736 12.097740173339844 7.726701259613037 12.139699935913086 C7.7441325187683105 12.163979530334473 7.768536567687988 12.178173065185547 7.800037384033203 12.178173065185547 C7.971113681793213 12.171076774597168 8.135217666625977 11.958040237426758 8.187512397766113 11.8848295211792 C8.184025764465332 11.8848295211792 8.180540084838867 11.881342887878418 8.173566818237305 11.881342887878418 C8.145675659179688 11.87088394165039 8.114299774169922 11.846479415893555 8.044325828552246 11.926788330078125 C8.030380249023438 11.944219589233398 7.897777557373047 12.0839204788208 7.807010173797607 12.108448028564453 C7.7441325187683105 12.129365921020508 7.807010173797607 12.007097244262695 7.897777557373047 11.864035606384277 C7.91520881652832 11.832533836364746 7.978085994720459 11.73828125 8.082798957824707 11.619623184204102 C8.177053451538086 11.507938385009766 8.212039947509766 11.465977668762207 8.225985527038574 11.465977668762207 C8.243416786193848 11.462491035461426 8.260848045349121 11.452032089233398 8.229471206665039 11.525369644165039 C8.211915969848633 11.563593864440918 8.190998077392578 11.612525939941406 8.260848045349121 11.636929512023926 L8.260848045349121 11.636929512023926" fill="black" fill-opacity="1.0" filling="0"/>
<path animation_id="7" d="M8.498163223266602 11.322668075561523 C8.480731964111328 11.294651985168457 8.470149040222168 11.252817153930664 8.372533798217773 11.200398445129395 C8.32708740234375 11.179481506347656 8.229347229003906 11.148104667663574 8.149162292480469 11.217954635620117 C8.093257904052734 11.263276100158691 8.037477493286133 11.301749229431152 7.932640075683594 11.41692066192627 C7.8488450050354 11.507689476013184 7.737159729003906 11.643901824951172 7.646392345428467 11.797422409057617 C7.482413291931152 12.06985092163086 7.552138328552246 12.178049087524414 7.737159729003906 12.258358001708984 C7.79655122756958 12.282637596130371 7.894291400909424 12.33156967163086 8.072216033935547 12.178049087524414 C8.173441886901855 12.097616195678711 8.309656143188477 11.951067924499512 8.250265121459961 11.923177719116211 C8.239806175231934 11.919692039489746 8.232833862304688 11.912718772888184 8.22237491607666 11.905746459960938 L8.22237491607666 11.909233093261719 L8.218888282775879 11.912718772888184 C8.163106918334961 11.985930442810059 7.992032051086426 12.212911605834961 7.803399085998535 12.219883918762207 C7.754467010498047 12.219883918762207 7.716117858886719 12.198966979980469 7.691714286804199 12.163979530334473 C7.656851291656494 12.10832405090332 7.656851291656494 12.02440357208252 7.695200443267822 11.933636665344238 C7.730062961578369 11.856813430786133 8.082674980163574 11.333126068115234 8.250265121459961 11.270248413085938 C8.285127639770508 11.256303787231445 8.354976654052734 11.252817153930664 8.389965057373047 11.298138618469238 C8.438897132873535 11.35753059387207 8.40739631652832 11.472701072692871 8.29919719696045 11.647263526916504 C8.330698013305664 11.654236793518066 8.372533798217773 11.657722473144531 8.397062301635742 11.622859954833984 C8.414493560791016 11.60194206237793 8.466911315917969 11.535578727722168 8.484342575073242 11.493618965148926 C8.501773834228516 11.451908111572266 8.512232780456543 11.350682258605957 8.498163223266602 11.322668075561523 L8.498163223266602 11.322668075561523" fill="black" fill-opacity="1.0" filling="0"/>
<path animation_id="8" d="M4.427441596984863 12.523688316345215 L23.294029235839844 12.523688316345215 L23.294029235839844 12.551702499389648 L4.427441596984863 12.551702499389648 L4.427441596984863 12.523688316345215" fill="black" fill-opacity="1.0" filling="0"/>
<path animation_id="9" d="M4.49031925201416 12.900579452514648 L4.560169219970703 12.900579452514648 C4.6021294593811035 12.900579452514648 4.612588405609131 12.904190063476562 4.612588405609131 12.9251070022583 C4.612588405609131 12.942663192749023 4.6021294593811035 12.946024894714355 4.560169219970703 12.946024894714355 L4.49031925201416 12.946024894714355 L4.49031925201416 12.900579452514648 L4.49031925201416 12.900579452514648 M4.416983127593994 13.096183776855469 C4.416983127593994 13.099794387817383 4.416983127593994 13.103281021118164 4.403038024902344 13.103281021118164 L4.403038024902344 13.11037826538086 L4.595032215118408 13.11037826538086 C4.664882183074951 13.11037826538086 4.692772388458252 13.075390815734863 4.692772388458252 13.036917686462402 C4.692772388458252 12.998444557189941 4.668368339538574 12.98126220703125 4.636867523193359 12.974164962768555 L4.636867523193359 12.970803260803223 C4.664882183074951 12.967192649841309 4.685799598693848 12.946273803710938 4.685799598693848 12.918259620666504 C4.685799598693848 12.869327545166016 4.643964767456055 12.848409652709961 4.591545581817627 12.848409652709961 L4.403038024902344 12.848409652709961 L4.403038024902344 12.855506896972656 C4.416983127593994 12.855506896972656 4.416983127593994 12.858868598937988 4.416983127593994 12.865965843200684 L4.416983127593994 13.096183776855469 M4.49031925201416 12.998319625854492 L4.5741143226623535 12.998319625854492 C4.60910177230835 12.998319625854492 4.623046875 13.005416870117188 4.623046875 13.026334762573242 C4.623046875 13.050862312316895 4.60910177230835 13.057710647583008 4.5741143226623535 13.057710647583008 L4.49031925201416 13.057710647583008 L4.49031925201416 12.998319625854492 L4.49031925201416 12.998319625854492 M5.024466514587402 12.904314041137695 L5.108261585235596 12.904314041137695 C5.136275768280029 12.904314041137695 5.146734714508057 12.918134689331055 5.146734714508057 12.932329177856445 C5.146734714508057 12.946149826049805 5.136275768280029 12.960344314575195 5.108261585235596 12.960344314575195 L5.024466514587402 12.960344314575195 L5.024466514587402 12.904314041137695 L5.024466514587402 12.904314041137695 M5.024466514587402 13.012514114379883 L5.073398590087891 13.012514114379883 C5.080371379852295 13.022972106933594 5.132789611816406 13.089335441589355 5.132789611816406 13.096183776855469 C5.132789611816406 13.099794387817383 5.12581729888916 13.103281021118164 5.118844509124756 13.103281021118164 L5.118844509124756 13.11037826538086 L5.223557472229004 13.11037826538086 L5.223557472229004 13.103281021118164 C5.2165846824646 13.103281021118164 5.213098526000977 13.099919319152832 5.2096123695373535 13.096183776855469 L5.15022087097168 13.012514114379883 C5.192056655883789 13.002055168151855 5.220070838928223 12.97752571105957 5.220070838928223 12.932204246520996 C5.220070838928223 12.876299858093262 5.188694477081299 12.848285675048828 5.115358352661133 12.848285675048828 L4.937309265136719 12.848285675048828 L4.937309265136719 12.855381965637207 C4.947768211364746 12.855381965637207 4.951254367828369 12.858743667602539 4.951254367828369 12.865840911865234 L4.951254367828369 13.096183776855469 C4.951254367828369 13.099794387817383 4.947768211364746 13.103281021118164 4.937309265136719 13.103281021118164 L4.937309265136719 13.11037826538086 L5.0385355949401855 13.11037826538086 L5.0385355949401855 13.103281021118164 C5.024590969085693 13.103281021118164 5.024590969085693 13.099919319152832 5.024590969085693 13.096183776855469 L5.024590969085693 13.012514114379883 L5.024466514587402 13.012514114379883 M5.68075704574585 12.865840911865234 C5.68075704574585 12.858743667602539 5.68075704574585 12.855381965637207 5.666811943054199 12.855381965637207 L5.666811943054199 12.848285675048828 L5.768038272857666 12.848285675048828 L5.768038272857666 12.855381965637207 C5.757579803466797 12.855381965637207 5.754093647003174 12.858743667602539 5.754093647003174 12.865840911865234 L5.754093647003174 12.998319625854492 C5.754093647003174 13.085600852966309 5.6947021484375 13.113615036010742 5.617879390716553 13.113615036010742 C5.544543266296387 13.113615036010742 5.481790542602539 13.085600852966309 5.481790542602539 12.998319625854492 L5.481790542602539 12.865840911865234 C5.481790542602539 12.858743667602539 5.481790542602539 12.855381965637207 5.467845439910889 12.855381965637207 L5.467845439910889 12.848285675048828 L5.5689473152160645 12.848285675048828 L5.5689473152160645 12.855381965637207 C5.558488845825195 12.855381965637207 5.555002689361572 12.858743667602539 5.555002689361572 12.865840911865234 L5.555002689361572 12.998319625854492 C5.555002689361572 13.036792755126953 5.579406261444092 13.050862312316895 5.617754936218262 13.050862312316895 C5.659715175628662 13.050862312316895 5.680632591247559 13.036792755126953 5.680632591247559 12.998319625854492 L5.680632591247559 12.865840911865234 L5.68075704574585 12.865840911865234 L5.68075704574585 12.865840911865234 M6.040465831756592 13.005416870117188 L6.047438144683838 13.009027481079102 C6.043951988220215 13.012389183044434 6.043951988220215 13.015875816345215 6.043951988220215 13.019486427307129 C6.043951988220215 13.033307075500488 6.096370697021484 13.054224014282227 6.148788928985596 13.054224014282227 C6.197597026824951 13.054224014282227 6.222001075744629 13.043766021728516 6.222001075744629 13.022848129272461 C6.222001075744629 12.984374046325684 6.016061782836914 13.026209831237793 6.016061782836914 12.92846965789795 C6.016061782836914 12.879537582397461 6.064993858337402 12.844799041748047 6.1382060050964355 12.844799041748047 C6.2045698165893555 12.844799041748047 6.253377437591553 12.865716934204102 6.267447471618652 12.865716934204102 C6.274419784545898 12.865716934204102 6.2779059410095215 12.86235523223877 6.2813920974731445 12.858619689941406 L6.288364887237549 12.86223030090332 L6.253501892089844 12.9283447265625 L6.2465291023254395 12.9283447265625 L6.2465291023254395 12.921496391296387 C6.2465291023254395 12.911038398742676 6.190624713897705 12.896968841552734 6.145302772521973 12.896968841552734 C6.099856853485107 12.896968841552734 6.085912227630615 12.907426834106445 6.085912227630615 12.917885780334473 C6.085912227630615 12.963332176208496 6.291851043701172 12.907426834106445 6.291851043701172 13.022723197937012 C6.291851043701172 13.064558982849121 6.256863594055176 13.11349105834961 6.152151107788086 13.11349105834961 C6.068356037139893 13.11349105834961 6.0334930419921875 13.089211463928223 6.019548416137695 13.089211463928223 C6.016061782836914 13.089211463928223 6.012575626373291 13.092573165893555 6.009089469909668 13.096059799194336 L6.005603313446045 13.092697143554688 L6.040465831756592 13.005416870117188 L6.040465831756592 13.005416870117188 M6.543111324310303 13.005416870117188 L6.550084114074707 13.009027481079102 C6.546597957611084 13.012389183044434 6.546597957611084 13.015875816345215 6.546597957611084 13.019486427307129 C6.546597957611084 13.033307075500488 6.6023783683776855 13.054224014282227 6.651310443878174 13.054224014282227 C6.703729152679443 13.054224014282227 6.72464656829834 13.043766021728516 6.72464656829834 13.022848129272461 C6.72464656829834 12.984374046325684 6.522193908691406 13.026209831237793 6.522193908691406 12.92846965789795 C6.522193908691406 12.879537582397461 6.567515850067139 12.844799041748047 6.6408514976501465 12.844799041748047 C6.707215309143066 12.844799041748047 6.756023406982422 12.865716934204102 6.770092964172363 12.865716934204102 C6.777065277099609 12.865716934204102 6.780551910400391 12.86235523223877 6.784038066864014 12.858619689941406 L6.79101037979126 12.86223030090332 L6.756147861480713 12.9283447265625 L6.749175548553467 12.9283447265625 L6.749175548553467 12.921496391296387 C6.749175548553467 12.911038398742676 6.693394660949707 12.896968841552734 6.64794921875 12.896968841552734 C6.602502822875977 12.896968841552734 6.588557720184326 12.907426834106445 6.588557720184326 12.917885780334473 C6.588557720184326 12.963332176208496 6.794497013092041 12.907426834106445 6.794497013092041 13.022723197937012 C6.794497013092041 13.064558982849121 6.763120651245117 13.11349105834961 6.654921531677246 13.11349105834961 C6.571126461029053 13.11349105834961 6.536139011383057 13.089211463928223 6.522318363189697 13.089211463928223 C6.518832206726074 13.089211463928223 6.515346050262451 13.092573165893555 6.515346050262451 13.096059799194336 L6.508373260498047 13.092697143554688 L6.543111324310303 13.005416870117188 L6.543111324310303 13.005416870117188 M7.230903625488281 13.015875816345215 L7.227417469024658 13.015875816345215 C7.223930835723877 13.009027481079102 7.220320224761963 13.002055168151855 7.2098612785339355 13.002055168151855 L7.119093418121338 13.002055168151855 L7.119093418121338 13.04725170135498 L7.2762250900268555 13.04725170135498 C7.283197402954102 13.04725170135498 7.286559104919434 13.04725170135498 7.286559104919434 13.033431053161621 L7.293531894683838 13.033431053161621 L7.293531894683838 13.120712280273438 L7.286559104919434 13.120712280273438 C7.286559104919434 13.113615036010742 7.2830729484558105 13.11025333404541 7.2762250900268555 13.11025333404541 L7.03181266784668 13.11025333404541 L7.03181266784668 13.103156089782715 C7.042271614074707 13.103156089782715 7.04575777053833 13.099794387817383 7.04575777053833 13.096059799194336 L7.04575777053833 12.865716934204102 C7.04575777053833 12.858619689941406 7.042271614074707 12.855257987976074 7.03181266784668 12.855257987976074 L7.03181266784668 12.848160743713379 L7.2762250900268555 12.848160743713379 C7.283197402954102 12.848160743713379 7.286559104919434 12.848160743713379 7.286559104919434 12.83434009552002 L7.293531894683838 12.83434009552002 L7.293531894683838 12.921621322631836 L7.286559104919434 12.921621322631836 C7.286559104919434 12.911162376403809 7.2830729484558105 12.907551765441895 7.2762250900268555 12.907551765441895 L7.119093418121338 12.907551765441895 L7.119093418121338 12.949386596679688 L7.2098612785339355 12.949386596679688 C7.220320224761963 12.949386596679688 7.223806381225586 12.94253921508789 7.227417469024658 12.935565948486328 L7.230903625488281 12.935565948486328 L7.230903625488281 13.015875816345215 L7.230903625488281 13.015875816345215 M7.621864318847656 13.04725170135498 L7.792940616607666 13.04725170135498 C7.796426773071289 13.04725170135498 7.799912929534912 13.04725170135498 7.799912929534912 13.036792755126953 L7.806885719299316 13.036792755126953 L7.806885719299316 13.120712280273438 L7.799912929534912 13.120712280273438 C7.799912929534912 13.113615036010742 7.796426773071289 13.11025333404541 7.792940616607666 13.11025333404541 L7.534582614898682 13.11025333404541 L7.534582614898682 13.103156089782715 C7.545041561126709 13.103156089782715 7.548527717590332 13.099794387817383 7.548527717590332 13.096059799194336 L7.548527717590332 12.865716934204102 C7.548527717590332 12.858619689941406 7.545041561126709 12.855257987976074 7.534582614898682 12.855257987976074 L7.534582614898682 12.848160743713379 L7.635808944702148 12.848160743713379 L7.635808944702148 12.855257987976074 C7.625350475311279 12.855257987976074 7.621864318847656 12.858619689941406 7.621864318847656 12.865716934204102 L7.621864318847656 13.04725170135498 M8.054784774780273 13.005416870117188 L8.058271408081055 13.009027481079102 L8.058271408081055 13.019486427307129 C8.058271408081055 13.033307075500488 8.110689163208008 13.054224014282227 8.163106918334961 13.054224014282227 C8.211915969848633 13.054224014282227 8.23295783996582 13.043766021728516 8.23295783996582 13.022848129272461 C8.23295783996582 12.984374046325684 8.030505180358887 13.026209831237793 8.030505180358887 12.92846965789795 C8.030505180358887 12.879537582397461 8.079437255859375 12.844799041748047 8.149287223815918 12.844799041748047 C8.219137191772461 12.844799041748047 8.267945289611816 12.865716934204102 8.281889915466309 12.865716934204102 C8.288862228393555 12.865716934204102 8.292348861694336 12.86235523223877 8.295835494995117 12.858619689941406 L8.299321174621582 12.86223030090332 L8.264458656311035 12.9283447265625 L8.26097297668457 12.9283447265625 L8.26097297668457 12.921496391296387 C8.26097297668457 12.911038398742676 8.20506763458252 12.896968841552734 8.15626049041748 12.896968841552734 C8.114423751831055 12.896968841552734 8.100479125976562 12.907426834106445 8.100479125976562 12.917885780334473 C8.100479125976562 12.963332176208496 8.302931785583496 12.907426834106445 8.302931785583496 13.022723197937012 C8.302931785583496 13.064558982849121 8.27155590057373 13.11349105834961 8.16335678100586 13.11349105834961 C8.082923889160156 13.11349105834961 8.044574737548828 13.089211463928223 8.0341157913208 13.089211463928223 C8.030630111694336 13.089211463928223 8.027143478393555 13.092573165893555 8.023656845092773 13.096059799194336 L8.016684532165527 13.092697143554688 L8.054784774780273 13.005416870117188 L8.054784774780273 13.005416870117188 M8.871692657470703 13.11025333404541 L8.871692657470703 13.103156089782715 C8.88215160369873 13.103156089782715 8.885637283325195 13.099794387817383 8.885637283325195 13.096059799194336 L8.885637283325195 12.865716934204102 C8.885637283325195 12.858619689941406 8.88215160369873 12.855257987976074 8.871692657470703 12.855257987976074 L8.871692657470703 12.848160743713379 L8.972919464111328 12.848160743713379 L8.972919464111328 12.855257987976074 C8.958974838256836 12.855257987976074 8.958974838256836 12.858619689941406 8.958974838256836 12.865716934204102 L8.958974838256836 13.096059799194336 C8.958974838256836 13.09967041015625 8.958974838256836 13.103156089782715 8.972919464111328 13.103156089782715 L8.972919464111328 13.11025333404541 L8.871692657470703 13.11025333404541 M9.245346069335938 12.865840911865234 C9.245346069335938 12.858743667602539 9.241860389709473 12.855381965637207 9.231401443481445 12.855381965637207 L9.231401443481445 12.848285675048828 L9.350183486938477 12.848285675048828 L9.350183486938477 12.855381965637207 C9.339725494384766 12.855381965637207 9.336238861083984 12.858743667602539 9.336238861083984 12.862479209899902 C9.336238861083984 12.865840911865234 9.42003345489502 12.956607818603516 9.454895973205566 12.99495792388916 L9.454895973205566 12.865840911865234 C9.454895973205566 12.858743667602539 9.451410293579102 12.855381965637207 9.444437026977539 12.855381965637207 L9.444437026977539 12.848285675048828 L9.535205841064453 12.848285675048828 L9.535205841064453 12.855381965637207 C9.524746894836426 12.855381965637207 9.521260261535645 12.858743667602539 9.521260261535645 12.865840911865234 L9.521260261535645 13.096183776855469 C9.521260261535645 13.099794387817383 9.524746894836426 13.103281021118164 9.535205841064453 13.103281021118164 L9.535205841064453 13.11037826538086 L9.440951347351074 13.11037826538086 L9.440951347351074 13.103281021118164 C9.451410293579102 13.103281021118164 9.454895973205566 13.103281021118164 9.454895973205566 13.099919319152832 C9.454895973205566 13.092822074890137 9.440951347351074 13.08584976196289 9.311835289001465 12.939176559448242 L9.311835289001465 13.096308708190918 C9.311835289001465 13.099919319152832 9.311835289001465 13.103404998779297 9.325779914855957 13.103404998779297 L9.325779914855957 13.110502243041992 L9.231525421142578 13.110502243041992 L9.231525421142578 13.103404998779297 C9.241984367370605 13.103404998779297 9.245471000671387 13.100043296813965 9.245471000671387 13.096308708190918 L9.245471000671387 12.865840911865234 L9.245346069335938 12.865840911865234 L9.245346069335938 12.865840911865234 M9.849218368530273 13.11025333404541 L9.849218368530273 13.103156089782715 C9.859678268432617 13.103156089782715 9.863164901733398 13.099794387817383 9.863164901733398 13.096059799194336 L9.863164901733398 12.911287307739258 L9.775882720947266 12.911287307739258 C9.772396087646484 12.911287307739258 9.76878547668457 12.911287307739258 9.76878547668457 12.9251070022583 L9.761813163757324 12.9251070022583 L9.761813163757324 12.83434009552002 L9.76878547668457 12.83434009552002 C9.76878547668457 12.848160743713379 9.772272109985352 12.848160743713379 9.775882720947266 12.848160743713379 L10.020170211791992 12.848160743713379 C10.027143478393555 12.848160743713379 10.027143478393555 12.848160743713379 10.03062915802002 12.83434009552002 L10.0341157913208 12.83434009552002 L10.0341157913208 12.9251070022583 L10.03062915802002 12.9251070022583 C10.027143478393555 12.911287307739258 10.027143478393555 12.911287307739258 10.020170211791992 12.911287307739258 L9.936375617980957 12.911287307739258 L9.936375617980957 13.096059799194336 C9.936375617980957 13.09967041015625 9.936375617980957 13.103156089782715 9.950321197509766 13.103156089782715 L9.950321197509766 13.11025333404541 L9.849218368530273 13.11025333404541 M10.463799476623535 13.015875816345215 L10.460312843322754 13.015875816345215 C10.456826210021973 13.009027481079102 10.453340530395508 13.002055168151855 10.44288158416748 13.002055168151855 L10.352113723754883 13.002055168151855 L10.352113723754883 13.04725170135498 L10.509244918823242 13.04725170135498 C10.516217231750488 13.04725170135498 10.51970386505127 13.04725170135498 10.51970386505127 13.033431053161621 L10.526676177978516 13.033431053161621 L10.526676177978516 13.120712280273438 L10.51970386505127 13.120712280273438 C10.51970386505127 13.113615036010742 10.516217231750488 13.11025333404541 10.509244918823242 13.11025333404541 L10.264832496643066 13.11025333404541 L10.264832496643066 13.103156089782715 C10.275291442871094 13.103156089782715 10.278778076171875 13.099794387817383 10.278778076171875 13.096059799194336 L10.278778076171875 12.865716934204102 C10.278778076171875 12.858619689941406 10.275291442871094 12.855257987976074 10.264832496643066 12.855257987976074 L10.264832496643066 12.848160743713379 L10.509244918823242 12.848160743713379 C10.516217231750488 12.848160743713379 10.51970386505127 12.848160743713379 10.51970386505127 12.83434009552002 L10.526676177978516 12.83434009552002 L10.526676177978516 12.921621322631836 L10.51970386505127 12.921621322631836 C10.51970386505127 12.911162376403809 10.516217231750488 12.907551765441895 10.509244918823242 12.907551765441895 L10.352113723754883 12.907551765441895 L10.352113723754883 12.949386596679688 L10.44288158416748 12.949386596679688 C10.453340530395508 12.949386596679688 10.456826210021973 12.94253921508789 10.460312843322754 12.935565948486328 L10.463799476623535 12.935565948486328 L10.463799476623535 13.015875816345215 L10.463799476623535 13.015875816345215 M10.854759216308594 12.904314041137695 L10.938554763793945 12.904314041137695 C10.966444969177246 12.904314041137695 10.977028846740723 12.918134689331055 10.977028846740723 12.932329177856445 C10.977028846740723 12.946149826049805 10.966569900512695 12.960344314575195 10.938554763793945 12.960344314575195 L10.854759216308594 12.960344314575195 L10.854759216308594 12.904314041137695 L10.854759216308594 12.904314041137695 M10.854759216308594 13.012514114379883 L10.903691291809082 13.012514114379883 C10.910664558410645 13.022972106933594 10.963083267211914 13.089335441589355 10.963083267211914 13.096183776855469 C10.963083267211914 13.099794387817383 10.95959758758545 13.103281021118164 10.952624320983887 13.103281021118164 L10.952624320983887 13.11037826538086 L11.053850173950195 13.11037826538086 L11.053850173950195 13.103281021118164 A0.024901948869228363 0.024901948869228363 0.0 0 1 11.039905548095703 13.096183776855469 L10.980514526367188 13.012514114379883 C11.022350311279297 13.002055168151855 11.053850173950195 12.97752571105957 11.053850173950195 12.932204246520996 C11.053850173950195 12.876299858093262 11.02247428894043 12.848285675048828 10.949138641357422 12.848285675048828 L10.767602920532227 12.848285675048828 L10.767602920532227 12.855381965637207 C10.781548500061035 12.855381965637207 10.781548500061035 12.858743667602539 10.781548500061035 12.865840911865234 L10.781548500061035 13.096183776855469 C10.781548500061035 13.099794387817383 10.781548500061035 13.103281021118164 10.767602920532227 13.103281021118164 L10.767602920532227 13.11037826538086 L10.868828773498535 13.11037826538086 L10.868828773498535 13.103281021118164 C10.858369827270508 13.103281021118164 10.854884147644043 13.099919319152832 10.854884147644043 13.096183776855469 L10.854884147644043 13.012514114379883 L10.854759216308594 13.012514114379883 M11.31208324432373 12.865840911865234 C11.31208324432373 12.858743667602539 11.308597564697266 12.855381965637207 11.298138618469238 12.855381965637207 L11.298138618469238 12.848285675048828 L11.416796684265137 12.848285675048828 L11.416796684265137 12.855381965637207 C11.40633773803711 12.855381965637207 11.402851104736328 12.858743667602539 11.402851104736328 12.862479209899902 C11.402851104736328 12.865840911865234 11.490132331848145 12.956607818603516 11.524995803833008 12.99495792388916 L11.524995803833008 12.865840911865234 C11.524995803833008 12.858743667602539 11.517897605895996 12.855381965637207 11.514535903930664 12.855381965637207 L11.514535903930664 12.848285675048828 L11.605304718017578 12.848285675048828 L11.605304718017578 12.855381965637207 C11.59135913848877 12.855381965637207 11.59135913848877 12.858743667602539 11.59135913848877 12.865840911865234 L11.59135913848877 13.096183776855469 C11.59135913848877 13.099794387817383 11.59135913848877 13.103281021118164 11.605304718017578 13.103281021118164 L11.605304718017578 13.11037826538086 L11.5110502243042 13.11037826538086 L11.5110502243042 13.103281021118164 C11.518023490905762 13.103281021118164 11.521510124206543 13.103281021118164 11.521510124206543 13.099919319152832 C11.521510124206543 13.092822074890137 11.507563591003418 13.08584976196289 11.378447532653809 12.939176559448242 L11.378447532653809 13.096308708190918 C11.378447532653809 13.099919319152832 11.378447532653809 13.103404998779297 11.392393112182617 13.103404998779297 L11.392393112182617 13.110502243041992 L11.298138618469238 13.110502243041992 L11.298138618469238 13.103404998779297 C11.308597564697266 13.103404998779297 11.31208324432373 13.100043296813965 11.31208324432373 13.096308708190918 L11.31208324432373 12.865840911865234 L11.31208324432373 12.865840911865234 M11.985930442810059 12.897217750549316 L12.034738540649414 13.012514114379883 L11.943970680236816 13.012514114379883 L11.985930442810059 12.897217750549316 M12.048807144165039 13.054348945617676 C12.048807144165039 13.061445236206055 12.066240310668945 13.096183776855469 12.066240310668945 13.096183776855469 C12.066240310668945 13.099794387817383 12.062753677368164 13.103281021118164 12.055780410766602 13.103281021118164 L12.055780410766602 13.11037826538086 L12.153645515441895 13.11037826538086 L12.153645515441895 13.103281021118164 C12.1465482711792 13.103281021118164 12.143186569213867 13.099919319152832 12.139575958251953 13.089460372924805 C12.108199119567871 13.012638092041016 12.048807144165039 12.865965843200684 12.048807144165039 12.862604141235352 C12.048807144165039 12.855506896972656 12.05229377746582 12.855506896972656 12.055780410766602 12.855506896972656 L12.055780410766602 12.848409652709961 L11.926539421081543 12.848409652709961 L11.926539421081543 12.855506896972656 C11.930026054382324 12.855506896972656 11.93699836730957 12.855506896972656 11.93699836730957 12.858868598937988 C11.93699836730957 12.862479209899902 11.853202819824219 13.08236312866211 11.849716186523438 13.092822074890137 C11.846230506896973 13.099919319152832 11.842743873596191 13.103281021118164 11.835771560668945 13.103281021118164 L11.835771560668945 13.11037826538086 L11.923053741455078 13.11037826538086 L11.923053741455078 13.103281021118164 C11.916080474853516 13.103281021118164 11.916080474853516 13.103281021118164 11.916080474853516 13.099919319152832 C11.916080474853516 13.096308708190918 11.916080474853516 13.089460372924805 11.930026054382324 13.054472923278809 L12.048807144165039 13.054472923278809 L12.048807144165039 13.054348945617676 M12.408391952514648 13.11025333404541 L12.408391952514648 13.103156089782715 C12.422212600708008 13.103156089782715 12.422212600708008 13.099794387817383 12.422212600708008 13.096059799194336 L12.422212600708008 12.911287307739258 L12.338541984558105 12.911287307739258 C12.331445693969727 12.911287307739258 12.331445693969727 12.911287307739258 12.328083038330078 12.9251070022583 L12.324472427368164 12.9251070022583 L12.324472427368164 12.83434009552002 L12.328083038330078 12.83434009552002 C12.331445693969727 12.848160743713379 12.331445693969727 12.848160743713379 12.338541984558105 12.848160743713379 L12.5827054977417 12.848160743713379 C12.586316108703613 12.848160743713379 12.589802742004395 12.848160743713379 12.589802742004395 12.83434009552002 L12.59689998626709 12.83434009552002 L12.59689998626709 12.9251070022583 L12.589802742004395 12.9251070022583 C12.589802742004395 12.911287307739258 12.586441040039062 12.911287307739258 12.5827054977417 12.911287307739258 L12.495674133300781 12.911287307739258 L12.495674133300781 13.096059799194336 C12.495674133300781 13.09967041015625 12.499035835266113 13.103156089782715 12.509493827819824 13.103156089782715 L12.509493827819824 13.11025333404541 L12.408391952514648 13.11025333404541 L12.408391952514648 13.11025333404541 M12.830854415893555 13.11025333404541 L12.830854415893555 13.103156089782715 C12.844675064086914 13.103156089782715 12.844675064086914 13.099794387817383 12.844675064086914 13.096059799194336 L12.844675064086914 12.865716934204102 C12.844675064086914 12.858619689941406 12.844675064086914 12.855257987976074 12.830854415893555 12.855257987976074 L12.830854415893555 12.848160743713379 L12.931955337524414 12.848160743713379 L12.931955337524414 12.855257987976074 C12.921496391296387 12.855257987976074 12.918134689331055 12.858619689941406 12.918134689331055 12.865716934204102 L12.918134689331055 13.096059799194336 C12.918134689331055 13.09967041015625 12.921496391296387 13.103156089782715 12.931955337524414 13.103156089782715 L12.931955337524414 13.11025333404541 L12.830854415893555 13.11025333404541 M13.330137252807617 12.907675743103027 C13.371973037719727 12.907675743103027 13.410447120666504 12.932204246520996 13.410447120666504 12.9811372756958 C13.410447120666504 13.026334762573242 13.371973037719727 13.050987243652344 13.330137252807617 13.050987243652344 C13.288302421569824 13.050987243652344 13.249829292297363 13.026458740234375 13.249829292297363 12.9811372756958 C13.249829292297363 12.932204246520996 13.288302421569824 12.907675743103027 13.330137252807617 12.907675743103027 M13.330137252807617 12.84492301940918 C13.24621868133545 12.84492301940918 13.176492691040039 12.893856048583984 13.176492691040039 12.9811372756958 C13.176492691040039 13.064807891845703 13.246342658996582 13.113615036010742 13.330137252807617 13.113615036010742 C13.413808822631836 13.113615036010742 13.48353385925293 13.064682960510254 13.48353385925293 12.9811372756958 C13.48353385925293 12.893856048583984 13.413683891296387 12.84492301940918 13.330137252807617 12.84492301940918 L13.330137252807617 12.84492301940918 M13.734918594360352 12.865840911865234 C13.734918594360352 12.858743667602539 13.734918594360352 12.855381965637207 13.721097946166992 12.855381965637207 L13.721097946166992 12.848285675048828 L13.83975601196289 12.848285675048828 L13.83975601196289 12.855381965637207 C13.829297065734863 12.855381965637207 13.82568645477295 12.858743667602539 13.82568645477295 12.862479209899902 C13.82568645477295 12.865840911865234 13.912967681884766 12.956607818603516 13.947955131530762 12.99495792388916 L13.947955131530762 12.865840911865234 C13.947955131530762 12.858743667602539 13.944344520568848 12.855381965637207 13.937496185302734 12.855381965637207 L13.937496185302734 12.848285675048828 L14.028264045715332 12.848285675048828 L14.028264045715332 12.855381965637207 C14.014443397521973 12.855381965637207 14.014443397521973 12.858743667602539 14.014443397521973 12.865840911865234 L14.014443397521973 13.096183776855469 C14.014443397521973 13.099794387817383 14.014443397521973 13.103281021118164 14.028264045715332 13.103281021118164 L14.028264045715332 13.11037826538086 L13.93388557434082 13.11037826538086 L13.93388557434082 13.103281021118164 C13.940982818603516 13.103281021118164 13.944344520568848 13.103281021118164 13.944344520568848 13.099919319152832 C13.944344520568848 13.092822074890137 13.930523872375488 13.08584976196289 13.801406860351562 12.939176559448242 L13.801406860351562 13.096308708190918 C13.801406860351562 13.099919319152832 13.804769515991211 13.103404998779297 13.815227508544922 13.103404998779297 L13.815227508544922 13.110502243041992 L13.721097946166992 13.110502243041992 L13.721097946166992 13.103404998779297 C13.734918594360352 13.103404998779297 13.734918594360352 13.100043296813965 13.734918594360352 13.096308708190918 L13.734918594360352 12.865840911865234 L13.734918594360352 12.865840911865234 M14.412252426147461 12.897217750549316 L14.457697868347168 13.012514114379883 L14.36693000793457 13.012514114379883 L14.412252426147461 12.897217750549316 M14.47164249420166 13.054348945617676 C14.47525405883789 13.061445236206055 14.4891996383667 13.096183776855469 14.4891996383667 13.096183776855469 C14.4891996383667 13.099794387817383 14.485837936401367 13.103281021118164 14.478740692138672 13.103281021118164 L14.478740692138672 13.11037826538086 L14.5764799118042 13.11037826538086 L14.5764799118042 13.103281021118164 C14.56938362121582 13.103281021118164 14.566020965576172 13.099919319152832 14.562410354614258 13.089460372924805 C14.531034469604492 13.012638092041016 14.47164249420166 12.865965843200684 14.47164249420166 12.862604141235352 C14.47164249420166 12.855506896972656 14.47525405883789 12.855506896972656 14.478740692138672 12.855506896972656 L14.478740692138672 12.848409652709961 L14.349623680114746 12.848409652709961 L14.349623680114746 12.855506896972656 C14.35647201538086 12.855506896972656 14.360082626342773 12.855506896972656 14.360082626342773 12.858868598937988 C14.360082626342773 12.862479209899902 14.276162147521973 13.08236312866211 14.272801399230957 13.092822074890137 C14.269439697265625 13.099919319152832 14.265703201293945 13.103281021118164 14.258980751037598 13.103281021118164 L14.258980751037598 13.11037826538086 L14.346013069152832 13.11037826538086 L14.346013069152832 13.103281021118164 C14.339164733886719 13.103281021118164 14.339164733886719 13.103281021118164 14.339164733886719 13.099919319152832 C14.339164733886719 13.096308708190918 14.34252643585205 13.089460372924805 14.352985382080078 13.054472923278809 L14.47164249420166 13.054472923278809 L14.47164249420166 13.054348945617676 M14.897590637207031 13.04725170135498 L15.068543434143066 13.04725170135498 C15.071905136108398 13.04725170135498 15.075639724731445 13.04725170135498 15.075639724731445 13.036792755126953 L15.08273696899414 13.036792755126953 L15.08273696899414 13.120712280273438 L15.075639724731445 13.120712280273438 C15.075639724731445 13.113615036010742 15.072029113769531 13.11025333404541 15.068543434143066 13.11025333404541 L14.810309410095215 13.11025333404541 L14.810309410095215 13.103156089782715 C14.820768356323242 13.103156089782715 14.824130058288574 13.099794387817383 14.824130058288574 13.096059799194336 L14.824130058288574 12.865716934204102 C14.824130058288574 12.858619689941406 14.820768356323242 12.855257987976074 14.810309410095215 12.855257987976074 L14.810309410095215 12.848160743713379 L14.91141128540039 12.848160743713379 L14.91141128540039 12.855257987976074 C14.90095329284668 12.855257987976074 14.897590637207031 12.858619689941406 14.897590637207031 12.865716934204102 L14.897590637207031 13.04725170135498 M15.766793251037598 12.897217750549316 L15.815726280212402 13.012514114379883 L15.724958419799805 13.012514114379883 L15.766793251037598 12.897217750549316 M15.829795837402344 13.054348945617676 C15.829795837402344 13.061445236206055 15.84735107421875 13.096183776855469 15.84735107421875 13.096183776855469 C15.84735107421875 13.099794387817383 15.843740463256836 13.103281021118164 15.836893081665039 13.103281021118164 L15.836893081665039 13.11037826538086 L15.934632301330566 13.11037826538086 L15.934632301330566 13.103281021118164 C15.927535057067871 13.103281021118164 15.923924446105957 13.099919319152832 15.920562744140625 13.089460372924805 C15.88918685913086 13.012638092041016 15.829795837402344 12.865965843200684 15.829795837402344 12.862604141235352 C15.829795837402344 12.855506896972656 15.833157539367676 12.855506896972656 15.836893081665039 12.855506896972656 L15.836893081665039 12.848409652709961 L15.707527160644531 12.848409652709961 L15.707527160644531 12.855506896972656 C15.71462345123291 12.855506896972656 15.717985153198242 12.855506896972656 15.717985153198242 12.858868598937988 C15.717985153198242 12.862479209899902 15.634315490722656 13.08236312866211 15.630704879760742 13.092822074890137 C15.627342224121094 13.099919319152832 15.623856544494629 13.103281021118164 15.616884231567383 13.103281021118164 L15.616884231567383 13.11037826538086 L15.704164505004883 13.11037826538086 L15.704164505004883 13.103281021118164 C15.697068214416504 13.103281021118164 15.697068214416504 13.103281021118164 15.697068214416504 13.099919319152832 C15.697068214416504 13.096308708190918 15.700678825378418 13.089460372924805 15.711137771606445 13.054472923278809 L15.829795837402344 13.054472923278809 L15.829795837402344 13.054348945617676 M16.171947479248047 13.11025333404541 L16.171947479248047 13.103156089782715 C16.185768127441406 13.103156089782715 16.185768127441406 13.099794387817383 16.185768127441406 13.096059799194336 L16.185768127441406 12.865716934204102 C16.185768127441406 12.858619689941406 16.185768127441406 12.855257987976074 16.171947479248047 12.855257987976074 L16.171947479248047 12.848160743713379 L16.27653694152832 12.848160743713379 L16.27653694152832 12.855257987976074 C16.26271629333496 12.855257987976074 16.26271629333496 12.858619689941406 16.26271629333496 12.865716934204102 L16.26271629333496 13.096059799194336 C16.26271629333496 13.09967041015625 16.26271629333496 13.103156089782715 16.27653694152832 13.103156089782715 L16.27653694152832 13.11025333404541 L16.171947479248047 13.11025333404541 M16.622299194335938 12.904314041137695 L16.705970764160156 12.904314041137695 C16.733985900878906 12.904314041137695 16.740957260131836 12.918134689331055 16.740957260131836 12.932329177856445 C16.740957260131836 12.946149826049805 16.73386001586914 12.960344314575195 16.705970764160156 12.960344314575195 L16.622299194335938 12.960344314575195 L16.622299194335938 12.904314041137695 L16.622299194335938 12.904314041137695 M16.622299194335938 13.012514114379883 L16.671232223510742 13.012514114379883 C16.67807960510254 13.022972106933594 16.730623245239258 13.089335441589355 16.730623245239258 13.096183776855469 C16.730623245239258 13.099794387817383 16.723526000976562 13.103281021118164 16.716554641723633 13.103281021118164 L16.716554641723633 13.11037826538086 L16.82139015197754 13.11037826538086 L16.82139015197754 13.103281021118164 C16.814294815063477 13.103281021118164 16.810932159423828 13.099919319152832 16.807571411132812 13.096183776855469 L16.7479305267334 13.012514114379883 C16.790014266967773 13.002055168151855 16.81790542602539 12.97752571105957 16.81790542602539 12.932204246520996 C16.81790542602539 12.876299858093262 16.786279678344727 12.848285675048828 16.71306800842285 12.848285675048828 L16.535018920898438 12.848285675048828 L16.535018920898438 12.855381965637207 C16.54547691345215 12.855381965637207 16.548839569091797 12.858743667602539 16.548839569091797 12.865840911865234 L16.548839569091797 13.096183776855469 C16.548839569091797 13.099794387817383 16.54547691345215 13.103281021118164 16.535018920898438 13.103281021118164 L16.535018920898438 13.11037826538086 L16.63612174987793 13.11037826538086 L16.63612174987793 13.103281021118164 C16.622299194335938 13.103281021118164 16.622299194335938 13.099919319152832 16.622299194335938 13.096183776855469 L16.622299194335938 13.012514114379883 L16.622299194335938 13.012514114379883 M17.15296173095703 12.904314041137695 L17.226173400878906 12.904314041137695 C17.254186630249023 12.904314041137695 17.26825714111328 12.91141128540039 17.26825714111328 12.932329177856445 C17.26825714111328 12.953246116638184 17.254186630249023 12.960344314575195 17.226173400878906 12.960344314575195 L17.15296173095703 12.960344314575195 L17.15296173095703 12.904314041137695 L17.15296173095703 12.904314041137695 M17.15296173095703 13.012514114379883 L17.24024200439453 13.012514114379883 C17.302993774414062 13.012514114379883 17.334369659423828 12.97752571105957 17.334369659423828 12.932204246520996 C17.334369659423828 12.886758804321289 17.302993774414062 12.848285675048828 17.24024200439453 12.848285675048828 L17.0656795501709 12.848285675048828 L17.0656795501709 12.855381965637207 C17.07613754272461 12.855381965637207 17.07613754272461 12.858743667602539 17.07613754272461 12.865840911865234 L17.07613754272461 13.096183776855469 C17.07613754272461 13.099794387817383 17.07613754272461 13.103281021118164 17.0656795501709 13.103281021118164 L17.0656795501709 13.11037826538086 L17.166780471801758 13.11037826538086 L17.166780471801758 13.103281021118164 C17.15296173095703 13.103281021118164 17.15296173095703 13.099919319152832 17.15296173095703 13.096183776855469 L17.15296173095703 13.012514114379883 L17.15296173095703 13.012514114379883 M17.70441436767578 12.907675743103027 C17.749858856201172 12.907675743103027 17.788333892822266 12.932204246520996 17.788333892822266 12.9811372756958 C17.788333892822266 13.026334762573242 17.749858856201172 13.050987243652344 17.70441436767578 13.050987243652344 C17.662578582763672 13.050987243652344 17.62410545349121 13.026458740234375 17.62410545349121 12.9811372756958 C17.624229431152344 12.932204246520996 17.662578582763672 12.907675743103027 17.70441436767578 12.907675743103027 M17.70441436767578 12.84492301940918 C17.620742797851562 12.84492301940918 17.550769805908203 12.893856048583984 17.550769805908203 12.9811372756958 C17.550769805908203 13.064807891845703 17.620742797851562 13.113615036010742 17.70441436767578 13.113615036010742 C17.788333892822266 13.113615036010742 17.85805892944336 13.064682960510254 17.85805892944336 12.9811372756958 C17.858182907104492 12.893856048583984 17.788333892822266 12.84492301940918 17.70441436767578 12.84492301940918 L17.70441436767578 12.84492301940918 M18.186141967773438 12.904314041137695 L18.270061492919922 12.904314041137695 C18.298076629638672 12.904314041137695 18.304800033569336 12.918134689331055 18.304800033569336 12.932329177856445 C18.30841064453125 12.946149826049805 18.29795265197754 12.960344314575195 18.270061492919922 12.960344314575195 L18.186141967773438 12.960344314575195 L18.186141967773438 12.904314041137695 L18.186141967773438 12.904314041137695 M18.186141967773438 13.012514114379883 L18.235074996948242 13.012514114379883 C18.242170333862305 13.022972106933594 18.294466018676758 13.089335441589355 18.294466018676758 13.096183776855469 C18.294466018676758 13.099794387817383 18.287616729736328 13.103281021118164 18.2806453704834 13.103281021118164 L18.2806453704834 13.11037826538086 L18.38523292541504 13.11037826538086 L18.38523292541504 13.103281021118164 C18.378385543823242 13.103281021118164 18.375022888183594 13.099919319152832 18.371414184570312 13.096183776855469 L18.312021255493164 13.012514114379883 C18.353857040405273 13.002055168151855 18.381872177124023 12.97752571105957 18.381872177124023 12.932204246520996 C18.381872177124023 12.876299858093262 18.350496292114258 12.848285675048828 18.277284622192383 12.848285675048828 L18.09898567199707 12.848285675048828 L18.09898567199707 12.855381965637207 C18.10944366455078 12.855381965637207 18.113056182861328 12.858743667602539 18.113056182861328 12.865840911865234 L18.113056182861328 13.096183776855469 C18.113056182861328 13.099794387817383 18.10944366455078 13.103281021118164 18.09898567199707 13.103281021118164 L18.09898567199707 13.11037826538086 L18.200336456298828 13.11037826538086 L18.200336456298828 13.103281021118164 C18.186267852783203 13.103281021118164 18.186267852783203 13.099919319152832 18.186267852783203 13.096183776855469 L18.186267852783203 13.012514114379883 L18.186141967773438 13.012514114379883 L18.186141967773438 13.012514114379883 M18.688913345336914 13.11025333404541 L18.688913345336914 13.103156089782715 C18.699621200561523 13.103156089782715 18.70298194885254 13.099794387817383 18.70298194885254 13.096059799194336 L18.70298194885254 12.911287307739258 L18.615699768066406 12.911287307739258 C18.61233901977539 12.911287307739258 18.608604431152344 12.911287307739258 18.608604431152344 12.9251070022583 L18.601755142211914 12.9251070022583 L18.601755142211914 12.83434009552002 L18.608604431152344 12.83434009552002 C18.608604431152344 12.848160743713379 18.612213134765625 12.848160743713379 18.615699768066406 12.848160743713379 L18.86011505126953 12.848160743713379 C18.867210388183594 12.848160743713379 18.867210388183594 12.848160743713379 18.870573043823242 12.83434009552002 L18.873933792114258 12.83434009552002 L18.873933792114258 12.9251070022583 L18.870573043823242 12.9251070022583 C18.867210388183594 12.911287307739258 18.867210388183594 12.911287307739258 18.86011505126953 12.911287307739258 L18.776193618774414 12.911287307739258 L18.776193618774414 13.096059799194336 C18.776193618774414 13.09967041015625 18.776193618774414 13.103156089782715 18.790264129638672 13.103156089782715 L18.790264129638672 13.11025333404541 L18.688913345336914 13.11025333404541 M19.670047760009766 12.946149826049805 L19.662952423095703 12.942787170410156 C19.66631317138672 12.939176559448242 19.66631317138672 12.939176559448242 19.66631317138672 12.935690879821777 C19.66631317138672 12.92523193359375 19.62784194946289 12.91141128540039 19.58600425720215 12.91141128540039 C19.544170379638672 12.91141128540039 19.491626739501953 12.928718566894531 19.491626739501953 12.98126220703125 C19.491626739501953 13.030194282531738 19.544170379638672 13.04737663269043 19.58600425720215 13.04737663269043 C19.603561401367188 13.04737663269043 19.669925689697266 13.03355598449707 19.669925689697266 13.019610404968262 C19.669925689697266 13.015999794006348 19.66631317138672 13.015999794006348 19.66631317138672 13.012514114379883 L19.669925689697266 13.009151458740234 L19.722219467163086 13.085724830627441 L19.71512222290039 13.089335441589355 C19.71512222290039 13.085724830627441 19.711761474609375 13.085724830627441 19.708274841308594 13.085724830627441 C19.697566986083984 13.085724830627441 19.652368545532227 13.113739967346191 19.578908920288086 13.113739967346191 C19.498600006103516 13.113739967346191 19.415054321289062 13.06854248046875 19.415054321289062 12.98126220703125 C19.415054321289062 12.890369415283203 19.49872398376465 12.845047950744629 19.578908920288086 12.845047950744629 C19.617382049560547 12.845047950744629 19.645273208618164 12.851896286010742 19.66619110107422 12.855506896972656 C19.68710708618164 12.862604141235352 19.694204330444336 12.865965843200684 19.701175689697266 12.865965843200684 C19.704540252685547 12.865965843200684 19.704540252685547 12.865965843200684 19.708274841308594 12.862604141235352 L19.71512222290039 12.862604141235352 L19.670047760009766 12.946149826049805 L19.670047760009766 12.946149826049805 M20.095870971679688 12.907675743103027 C20.137706756591797 12.907675743103027 20.17618179321289 12.932204246520996 20.17618179321289 12.9811372756958 C20.17618179321289 13.026334762573242 20.137706756591797 13.050987243652344 20.095870971679688 13.050987243652344 C20.05403709411621 13.050987243652344 20.01556396484375 13.026458740234375 20.01556396484375 12.9811372756958 C20.015687942504883 12.932204246520996 20.05403709411621 12.907675743103027 20.095870971679688 12.907675743103027 M20.095870971679688 12.84492301940918 C20.012203216552734 12.84492301940918 19.942228317260742 12.893856048583984 19.942228317260742 12.9811372756958 C19.942228317260742 13.064807891845703 20.012203216552734 13.113615036010742 20.095870971679688 13.113615036010742 C20.179794311523438 13.113615036010742 20.24951934814453 13.064682960510254 20.24951934814453 12.9811372756958 C20.24964141845703 12.893856048583984 20.179794311523438 12.84492301940918 20.095870971679688 12.84492301940918 L20.095870971679688 12.84492301940918 M20.724273681640625 13.11025333404541 L20.724273681640625 13.103156089782715 C20.73473358154297 13.103156089782715 20.73834228515625 13.099794387817383 20.73834228515625 13.096059799194336 L20.73834228515625 12.911287307739258 L20.73473358154297 12.911287307739258 L20.647451400756836 13.103156089782715 L20.560169219970703 12.911287307739258 L20.560169219970703 13.096059799194336 C20.560169219970703 13.09967041015625 20.560169219970703 13.103156089782715 20.57423973083496 13.103156089782715 L20.57423973083496 13.11025333404541 L20.486957550048828 13.11025333404541 L20.486957550048828 13.103156089782715 C20.497417449951172 13.103156089782715 20.500778198242188 13.099794387817383 20.500778198242188 13.096059799194336 L20.500778198242188 12.865716934204102 C20.500778198242188 12.858619689941406 20.497417449951172 12.855257987976074 20.486957550048828 12.855257987976074 L20.486957550048828 12.848160743713379 L20.616073608398438 12.848160743713379 L20.616073608398438 12.855257987976074 C20.608978271484375 12.855257987976074 20.602252960205078 12.858619689941406 20.602252960205078 12.865716934204102 C20.602252960205078 12.869078636169434 20.644088745117188 12.956483840942383 20.651185989379883 12.970553398132324 C20.672103881835938 12.921621322631836 20.700119018554688 12.869202613830566 20.700119018554688 12.865716934204102 C20.700119018554688 12.858619689941406 20.69650650024414 12.855257987976074 20.689661026000977 12.855257987976074 L20.689661026000977 12.848160743713379 L20.822139739990234 12.848160743713379 L20.822139739990234 12.855257987976074 C20.808317184448242 12.855257987976074 20.808317184448242 12.858619689941406 20.808317184448242 12.865716934204102 L20.808317184448242 13.096059799194336 C20.808317184448242 13.09967041015625 20.808317184448242 13.103156089782715 20.822139739990234 13.103156089782715 L20.822139739990234 13.11025333404541 L20.724273681640625 13.11025333404541 L20.724273681640625 13.11025333404541 M21.160804748535156 12.904314041137695 L21.237628936767578 12.904314041137695 C21.261905670166016 12.904314041137695 21.276100158691406 12.91141128540039 21.276100158691406 12.932329177856445 C21.276100158691406 12.953246116638184 21.26203155517578 12.960344314575195 21.237628936767578 12.960344314575195 L21.160804748535156 12.960344314575195 L21.160804748535156 12.904314041137695 L21.160804748535156 12.904314041137695 M21.160804748535156 13.012514114379883 L21.25157356262207 13.012514114379883 C21.3143253326416 13.012514114379883 21.345951080322266 12.97752571105957 21.345951080322266 12.932204246520996 C21.345951080322266 12.886758804321289 21.3143253326416 12.848285675048828 21.25157356262207 12.848285675048828 L21.073524475097656 12.848285675048828 L21.073524475097656 12.855381965637207 C21.087345123291016 12.855381965637207 21.087345123291016 12.858743667602539 21.087345123291016 12.865840911865234 L21.087345123291016 13.096183776855469 C21.087345123291016 13.099794387817383 21.087345123291016 13.103281021118164 21.073524475097656 13.103281021118164 L21.073524475097656 13.11037826538086 L21.174625396728516 13.11037826538086 L21.174625396728516 13.103281021118164 C21.164165496826172 13.103281021118164 21.160804748535156 13.099919319152832 21.160804748535156 13.096183776855469 L21.160804748535156 13.012514114379883 L21.160804748535156 13.012514114379883 M21.681005477905273 12.897217750549316 L21.729938507080078 13.012514114379883 L21.635560989379883 13.012514114379883 L21.681005477905273 12.897217750549316 M21.740272521972656 13.054348945617676 C21.743635177612305 13.061445236206055 21.757827758789062 13.096183776855469 21.757827758789062 13.096183776855469 C21.757827758789062 13.099794387817383 21.757827758789062 13.103281021118164 21.750732421875 13.103281021118164 L21.750732421875 13.11037826538086 L21.848472595214844 13.11037826538086 L21.848472595214844 13.103281021118164 C21.84137535095215 13.103281021118164 21.8380126953125 13.099919319152832 21.83440399169922 13.089460372924805 C21.803024291992188 13.012638092041016 21.740272521972656 12.865965843200684 21.740272521972656 12.862604141235352 C21.740272521972656 12.855506896972656 21.743635177612305 12.855506896972656 21.750732421875 12.855506896972656 L21.750732421875 12.848409652709961 L21.62161636352539 12.848409652709961 L21.62161636352539 12.855506896972656 C21.624977111816406 12.855506896972656 21.632076263427734 12.855506896972656 21.632076263427734 12.858868598937988 C21.632076263427734 12.862479209899902 21.548152923583984 13.08236312866211 21.541181564331055 13.092822074890137 C21.541181564331055 13.099919319152832 21.53782081604004 13.103281021118164 21.53097152709961 13.103281021118164 L21.53097152709961 13.11037826538086 L21.618003845214844 13.11037826538086 L21.618003845214844 13.103281021118164 C21.611156463623047 13.103281021118164 21.607545852661133 13.103281021118164 21.607545852661133 13.099919319152832 C21.607545852661133 13.096308708190918 21.611156463623047 13.089460372924805 21.625102996826172 13.054472923278809 L21.740272521972656 13.054472923278809 L21.740272521972656 13.054348945617676 L21.740272521972656 13.054348945617676 M22.092884063720703 12.865840911865234 C22.092884063720703 12.858743667602539 22.092884063720703 12.855381965637207 22.078815460205078 12.855381965637207 L22.078815460205078 12.848285675048828 L22.20108413696289 12.848285675048828 L22.20108413696289 12.855381965637207 C22.187015533447266 12.855381965637207 22.187015533447266 12.858743667602539 22.187015533447266 12.862479209899902 C22.187015533447266 12.865840911865234 22.27093505859375 12.956607818603516 22.305919647216797 12.99495792388916 L22.305919647216797 12.865840911865234 C22.305919647216797 12.858743667602539 22.302310943603516 12.855381965637207 22.295211791992188 12.855381965637207 L22.295211791992188 12.848285675048828 L22.386104583740234 12.848285675048828 L22.386104583740234 12.855381965637207 C22.37203598022461 12.855381965637207 22.37203598022461 12.858743667602539 22.37203598022461 12.865840911865234 L22.37203598022461 13.096183776855469 C22.37203598022461 13.099794387817383 22.37203598022461 13.103281021118164 22.386104583740234 13.103281021118164 L22.386104583740234 13.11037826538086 L22.291725158691406 13.11037826538086 L22.291725158691406 13.103281021118164 C22.30218505859375 13.103281021118164 22.30218505859375 13.103281021118164 22.30218505859375 13.099919319152832 C22.30218505859375 13.092822074890137 22.291725158691406 13.08584976196289 22.15924835205078 12.939176559448242 L22.15924835205078 13.096308708190918 C22.15924835205078 13.099919319152832 22.162609100341797 13.103404998779297 22.17306900024414 13.103404998779297 L22.17306900024414 13.110502243041992 L22.078689575195312 13.110502243041992 L22.078689575195312 13.103404998779297 C22.09276008605957 13.103404998779297 22.09276008605957 13.100043296813965 22.09276008605957 13.096308708190918 L22.09276008605957 12.865840911865234 L22.092884063720703 12.865840911865234 L22.092884063720703 12.865840911865234 M22.815664291381836 12.848285675048828 L22.909793853759766 12.848285675048828 L22.909793853759766 12.855381965637207 C22.902694702148438 12.855381965637207 22.899333953857422 12.858743667602539 22.895973205566406 12.865840911865234 L22.801593780517578 12.998319625854492 L22.801593780517578 13.096059799194336 C22.801593780517578 13.09967041015625 22.804956436157227 13.103156089782715 22.815664291381836 13.103156089782715 L22.815664291381836 13.11025333404541 L22.714311599731445 13.11025333404541 L22.714311599731445 13.103156089782715 C22.728382110595703 13.103156089782715 22.728382110595703 13.099794387817383 22.728382110595703 13.096059799194336 L22.728382110595703 13.009027481079102 L22.634004592895508 12.87281322479248 C22.623546600341797 12.855257987976074 22.623546600341797 12.855257987976074 22.61644744873047 12.855257987976074 L22.61644744873047 12.848160743713379 L22.724647521972656 12.848160743713379 L22.724647521972656 12.855257987976074 C22.721282958984375 12.855257987976074 22.714187622070312 12.855257987976074 22.714187622070312 12.86235523223877 C22.714187622070312 12.865716934204102 22.752662658691406 12.921745300292969 22.77009391784668 12.946024894714355 C22.773454666137695 12.935565948486328 22.82599639892578 12.865716934204102 22.82599639892578 12.86235523223877 C22.82599639892578 12.855257987976074 22.81890106201172 12.855257987976074 22.81553840637207 12.855257987976074 L22.81553840637207 12.848285675048828 L22.815664291381836 12.848285675048828 L22.815664291381836 12.848285675048828 M0.8560047149658203 12.680819511413574 L3.062441825866699 11.731307983398438 L2.8948516845703125 11.930274963378906 L2.210545539855957 12.18502140045166 L2.1861419677734375 12.164103507995605 L0.8664636611938477 12.694765090942383 L0.8560047149658203 12.680819511413574 L0.8560047149658203 12.680819511413574 M1.6206188201904297 12.785656929016113 L2.30841064453125 12.603996276855469 L2.1862668991088867 12.747182846069336 L2.12338924407959 12.747182846069336 L2.1164169311523438 12.712196350097656 L1.6312017440795898 12.799477577209473 L1.6206188201904297 12.785656929016113 L1.6206188201904297 12.785656929016113 M1.0689163208007812 12.694640159606934 L2.8598642349243164 11.958040237426758 L2.6922740936279297 12.157256126403809 L2.308286666870117 12.286373138427734 L2.29782772064209 12.258358001708984 L1.0793752670288086 12.712196350097656 L1.0689163208007812 12.694640159606934 L1.0689163208007812 12.694640159606934 M2.765610694885254 11.165535926818848 L2.7900142669677734 11.671792030334473 L2.5072526931762695 11.790450096130371 L2.765610694885254 11.165535926818848 M1.8964080810546875 12.820395469665527 L2.1477928161621094 12.77519702911377 L2.0709714889526367 12.87293815612793 L2.0674848556518555 12.834465026855469 L1.8894357681274414 12.841312408447266 L1.8964080810546875 12.820395469665527 M1.2504510879516602 12.722654342651367 L2.660898208618164 12.188632011413574 L2.4933080673217773 12.387598991394043 L2.2419233322143555 12.446990966796875 L2.249018669128418 12.412252426147461 L1.2575483322143555 12.736848831176758 L1.2504510879516602 12.722654342651367 L1.2504510879516602 12.722654342651367 M0.705845832824707 12.645708084106445 L3.2544355392456055 11.490257263183594 L3.09033203125 11.692710876464844 L2.08840274810791 12.101226806640625 L2.0605125427246094 12.076698303222656 L0.7164287567138672 12.65990161895752 L0.705845832824707 12.645708084106445 M1.414555549621582 12.754280090332031 L2.468904495239258 12.408515930175781 L2.304800033569336 12.586565017700195 L2.1896286010742188 12.604122161865234 L2.17568302154541 12.565648078918457 L1.4251384735107422 12.768224716186523 L1.414555549621582 12.754280090332031 L1.414555549621582 12.754280090332031 M2.807570457458496 12.055780410766602 L2.5351428985595703 12.377015113830566 L2.842432975769043 12.55506420135498 L2.807570457458496 12.055780410766602" fill="black" fill-opacity="1.0" filling="0"/></svg>