<?xml version="1.0" encoding="iso-8859-1"?><svg height="200px" viewBox="0.0 0.0 24.0 24.0" width="200px" xmlns="http://www.w3.org/2000/svg"><path animation_id="0" d="M12.000019073486328 24.0 L20.81719970703125 18.824363708496094 L20.81719970703125 18.810028076171875 L18.677410125732422 6.655923843383789 L20.766983032226562 4.530472755432129 L20.766983032226562 -9.5367431640625e-07 L3.2329797744750977 -9.5367431640625e-07 L3.2329797744750977 4.530472755432129 L5.322588920593262 6.655923843383789 L3.1828012466430664 18.81006622314453 L3.1828012466430664 18.824363708496094 L12.000019073486328 24.0" fill="black" fill-opacity="1.0" filling="0"/>
<path animation_id="1" d="M20.229347229003906 0.5376348495483398 L20.229347229003906 4.31043815612793 L18.099897384643555 6.4764485359191895 C18.099897384643555 6.4764485359191895 20.107521057128906 17.87959861755371 20.225234985351562 18.54845428466797 L12.000019073486328 23.376605987548828 C11.507922172546387 23.08775520324707 4.349751949310303 18.88601303100586 3.774765968322754 18.54845428466797 L5.90010404586792 6.4764485359191895 C5.90010404586792 6.4764485359191895 4.035244941711426 4.5796332359313965 3.7706527709960938 4.31043815612793 L3.7706527709960938 0.5376348495483398 L20.229347229003906 0.5376348495483398" fill="black" fill-opacity="1.0" filling="0"/>
<path animation_id="2" d="M17.261638641357422 5.1362080574035645 L6.738361835479736 5.1362080574035645 L4.437283039093018 18.229381561279297 L12.000019073486328 22.66421127319336 L19.56271743774414 18.229381561279297 L17.261638641357422 5.1362080574035645 L17.261638641357422 5.1362080574035645" fill="black" fill-opacity="1.0" filling="0"/>
<path animation_id="3" d="M7.157680034637451 5.645169734954834 L16.842283248901367 5.645169734954834 L17.806480407714844 11.146970748901367 L6.193558216094971 11.146970748901367 L7.157680034637451 5.645169734954834 M14.820812225341797 20.430139541625977 C14.731205940246582 19.179241180419922 14.566293716430664 18.053754806518555 14.326188087463379 17.02869987487793 L9.673851013183594 17.02869987487793 C9.433706283569336 18.053754806518555 9.268832206726074 19.179241180419922 9.17922592163086 20.430139541625977 L6.333343505859375 18.749095916748047 C7.157718181610107 16.193572998046875 8.293920516967773 13.827940940856934 9.749156951904297 11.65230941772461 L14.2509183883667 11.65230941772461 C15.706117630004883 13.827940940856934 16.842321395874023 16.19353675842285 17.666656494140625 18.749095916748047 L14.820812225341797 20.430139541625977" fill="black" fill-opacity="1.0" filling="0"/>
<path animation_id="4" d="M10.204279899597168 15.232998847961426 L13.849408149719238 15.232998847961426 C13.379911422729492 13.978516578674316 12.774138450622559 12.942634582519531 12.028616905212402 12.143350601196289 C11.279550552368164 12.942634582519531 10.67385196685791 13.978516578674316 10.204279899597168 15.232998847961426 L10.204279899597168 15.232998847961426" fill="black" fill-opacity="1.0" filling="0"/>
<path animation_id="5" d="M16.584218978881836 6.021514415740967 L7.473130226135254 6.021514415740967 L6.6487555503845215 10.76704216003418 L17.408592224121094 10.76704216003418 L16.584218978881836 6.021514415740967" fill="black" fill-opacity="1.0" filling="0"/>
<path animation_id="6" d="M12.15410327911377 10.57707691192627 C12.103961944580078 10.37277603149414 12.215035438537598 10.207901000976562 12.508942604064941 10.071700096130371 C12.79926586151123 9.931915283203125 12.724034309387207 9.881697654724121 12.293889045715332 9.931915283203125 C11.863818168640137 9.967757225036621 11.634427070617676 10.032273292541504 11.598546981811523 10.096789360046387 C11.039405822753906 10.25808048248291 10.824352264404297 10.222238540649414 10.9641752243042 9.95700454711914 C11.07887077331543 9.691771507263184 11.179229736328125 9.476716995239258 11.254498481750488 9.31184196472168 C11.319014549255371 9.132630348205566 11.39432144165039 8.942666053771973 11.48388957977295 8.752701759338379 C11.559158325195312 8.551984786987305 11.623674392700195 8.387109756469727 11.673853874206543 8.261661529541016 C11.709695816040039 8.132628440856934 11.734786033630371 8.04660701751709 11.749122619628906 8.007180213928223 L11.749122619628906 7.906822204589844 C11.759875297546387 7.781373500823975 11.774211883544922 7.652303695678711 11.784964561462402 7.526893138885498 C11.799302101135254 7.401444911956787 11.82439136505127 7.2724127769470215 11.863818168640137 7.146964073181152 C11.874570846557617 7.111121654510498 11.888908386230469 7.071695327758789 11.913997650146484 7.032268524169922 C11.924750328063965 7.00714111328125 11.9390869140625 6.982089519500732 11.94983959197998 6.946208953857422 C11.974929809570312 6.84226655960083 12.000019073486328 6.7311930656433105 12.028655052185059 6.591370105743408 C12.014355659484863 6.577033519744873 12.000019073486328 6.566280364990234 11.989266395568848 6.551981449127197 C11.724032402038574 6.716818332672119 11.544820785522461 6.896030426025391 11.433710098266602 7.111084461212158 C11.319014549255371 7.311800956726074 11.179229736328125 7.487428665161133 11.028691291809082 7.64158821105957 C10.86381721496582 7.792126655578613 10.68460464477539 7.946249008178711 10.483925819396973 8.082449913024902 C10.268871307373047 8.222234725952148 10.129048347473145 8.336930274963379 10.03944206237793 8.412199020385742 C9.953420639038086 8.476715087890625 9.838763236999512 8.526894569396973 9.69894027709961 8.562699317932129 C9.559155464172363 8.602163314819336 9.433706283569336 8.677433013916016 9.333385467529297 8.792128562927246 C9.218652725219727 8.906824111938477 9.093242645263672 8.957002639770508 8.939120292663574 8.967756271362305 C8.77420711517334 8.982054710388184 8.638044357299805 8.99284553527832 8.509012222290039 9.021519660949707 C8.397900581359863 9.057361602783203 8.308294296264648 9.09678840637207 8.258115768432617 9.132630348205566 C8.193599700927734 9.172019958496094 8.139835357666016 9.182809829711914 8.078903198242188 9.19710922241211 C8.014387130737305 9.20786190032959 7.903275966644287 9.286714553833008 7.724064350128174 9.43725299835205 C7.6882219314575195 9.462342262268066 7.562774181365967 9.512521743774414 7.3584723472595215 9.602127075195312 C7.218687057495117 9.65230655670166 7.043097496032715 9.691733360290527 6.828005313873291 9.702486038208008 L6.648793697357178 10.767004013061523 L12.154141426086426 10.767004013061523 A0.5659318566322327 0.5659318566322327 0.0 0 0 12.15410327911377 10.57707691192627 L12.15410327911377 10.57707691192627" fill="black" fill-opacity="1.0" filling="0"/>
<path animation_id="7" d="M14.189949035644531 9.741950035095215 C14.050164222717285 9.551985740661621 13.896041870117188 9.31184196472168 13.709699630737305 8.99284553527832 C13.519735336303711 8.677470207214355 13.329732894897461 8.437289237976074 13.164896011352539 8.297503471374512 C13.000020027160645 8.146965980529785 12.835145950317383 7.946249008178711 12.695398330688477 7.702483177185059 C12.54486083984375 7.462376594543457 12.43016529083252 7.261621952056885 12.344067573547363 7.096747398376465 C12.268836975097656 6.931872367858887 12.16485595703125 6.766997337341309 12.028693199157715 6.591370105743408 A10.14504623413086 10.14504623413086 0.0 0 1 11.949877738952637 6.946208953857422 C11.9390869140625 6.982089519500732 11.924787521362305 7.00714111328125 11.91403579711914 7.032268524169922 C11.888945579528809 7.071695327758789 11.874608993530273 7.111084461212158 11.863856315612793 7.146964073181152 C11.824429512023926 7.2724127769470215 11.799339294433594 7.401444911956787 11.785002708435059 7.526893138885498 C11.774250030517578 7.652303695678711 11.759913444519043 7.781373500823975 11.749159812927246 7.906822204589844 L11.749159812927246 8.007180213928223 C11.734823226928711 8.04660701751709 11.709733963012695 8.132628440856934 11.673891067504883 8.261661529541016 A24.27802276611328 24.27802276611328 0.0 0 0 11.483926773071289 8.752701759338379 C11.39432144165039 8.942666053771973 11.319051742553711 9.132630348205566 11.254535675048828 9.31184196472168 C11.179266929626465 9.476716995239258 11.07890796661377 9.691771507263184 10.964213371276855 9.95700454711914 C10.824427604675293 10.222200393676758 11.039482116699219 10.25804328918457 11.59858512878418 10.096789360046387 C11.634427070617676 10.032273292541504 11.863818168640137 9.967757225036621 12.293926239013672 9.931915283203125 C12.724072456359863 9.881697654724121 12.799341201782227 9.931915283203125 12.508980751037598 10.071700096130371 C12.215072631835938 10.207901000976562 12.103999137878418 10.372737884521484 12.154141426086426 10.57707691192627 A0.565214991569519 0.565214991569519 0.0 0 1 12.154141426086426 10.76704216003418 L14.935545921325684 10.76704216003418 C14.555540084838867 10.232991218566895 14.304644584655762 9.892488479614258 14.189949035644531 9.741950035095215 L14.189949035644531 9.741950035095215" fill="black" fill-opacity="1.0" filling="0"/>
<path animation_id="8" d="M4.372766971588135 1.1397857666015625 L4.372766971588135 4.050185203552246 L5.992803573608398 5.731191158294678 L6.207894802093506 4.5017991065979 L17.792104721069336 4.5017991065979 L18.007160186767578 5.731191158294678 L19.627233505249023 4.050185203552246 L19.627233505249023 1.1397857666015625 L4.372766971588135 1.1397857666015625" fill="black" fill-opacity="1.0" filling="0"/>
<path animation_id="9" d="M12.634428977966309 1.7455224990844727 L13.379911422729492 1.7455224990844727 L13.379911422729492 2.0358448028564453 L13.154105186462402 2.0358448028564453 L13.154105186462402 4.010758399963379 L12.87457275390625 4.010758399963379 L12.87457275390625 2.0358448028564453 L12.634428977966309 2.0358448028564453 L12.634428977966309 1.7455224990844727 M13.73478889465332 2.0501813888549805 L13.73478889465332 2.620075225830078 L14.06450080871582 2.620075225830078 L14.06450080871582 2.9211511611938477 L13.73478889465332 2.9211511611938477 L13.73478889465332 3.695307731628418 L14.075254440307617 3.695307731628418 L14.075254440307617 4.010758399963379 L13.465970993041992 4.010758399963379 L13.465970993041992 1.7455224990844727 L14.075254440307617 1.7455224990844727 L14.075254440307617 2.0501813888549805 L13.73478889465332 2.0501813888549805 L13.73478889465332 2.0501813888549805 M9.724029541015625 2.0501813888549805 L9.724029541015625 2.620075225830078 L10.053779602050781 2.620075225830078 L10.053779602050781 2.9211511611938477 L9.724029541015625 2.9211511611938477 L9.724029541015625 3.695307731628418 L10.064532279968262 3.695307731628418 L10.064532279968262 4.010758399963379 L9.458796501159668 4.010758399963379 L9.458796501159668 1.7455224990844727 L10.064532279968262 1.7455224990844727 L10.064532279968262 2.0501813888549805 L9.724029541015625 2.0501813888549805 L9.724029541015625 2.0501813888549805 M6.878147602081299 1.7455224990844727 L7.157718181610107 1.7455224990844727 L7.157718181610107 3.6308298110961914 C7.157718181610107 3.7706146240234375 7.118290901184082 3.870973587036133 7.053774833679199 3.946242332458496 C6.992842674255371 4.021511077880859 6.9032368659973145 4.060938358306885 6.788541793823242 4.060938358306885 C6.677430152893066 4.060938358306885 6.58782434463501 4.021511077880859 6.537644863128662 3.946242332458496 C6.473128318786621 3.870973587036133 6.43370246887207 3.7706146240234375 6.43370246887207 3.6308298110961914 L6.43370246887207 1.7455224990844727 L6.7132720947265625 1.7455224990844727 L6.7132720947265625 3.6415815353393555 C6.7132720947265625 3.695307731628418 6.727609634399414 3.7311878204345703 6.738361835479736 3.7454872131347656 C6.738361835479736 3.7562780380249023 6.75269889831543 3.7706146240234375 6.788541793823242 3.7706146240234375 C6.813631057739258 3.7706146240234375 6.83875846862793 3.7562780380249023 6.853057384490967 3.7454872131347656 C6.8638105392456055 3.72039794921875 6.878147602081299 3.681009292602539 6.878147602081299 3.6415815353393555 L6.878147602081299 1.7455224990844727 M5.727607727050781 1.7455224990844727 L5.992803573608398 1.7455224990844727 L5.992803573608398 3.695307731628418 L6.333305835723877 3.695307731628418 L6.333305835723877 4.010758399963379 L5.727607727050781 4.010758399963379 L5.727607727050781 1.7455224990844727 L5.727607727050781 1.7455224990844727 M5.247320175170898 1.695343017578125 C5.358431816101074 1.695343017578125 5.448037624359131 1.734731674194336 5.512553691864014 1.8100385665893555 C5.573485851287842 1.8709697723388672 5.598575115203857 1.985666275024414 5.598575115203857 2.1362409591674805 L5.598575115203857 2.580648422241211 L5.322588920593262 2.580648422241211 L5.322588920593262 2.1146974563598633 C5.322588920593262 2.0501813888549805 5.322588920593262 2.0107545852661133 5.308251857757568 2.000002861022949 C5.297499656677246 1.9748754501342773 5.272409915924072 1.960576057434082 5.247320175170898 1.960576057434082 C5.222230434417725 1.960576057434082 5.197140693664551 1.9749126434326172 5.182803630828857 2.000002861022949 C5.168467044830322 2.0107545852661133 5.157714366912842 2.0501813888549805 5.157714366912842 2.1146974563598633 L5.157714366912842 3.6415815353393555 C5.157714366912842 3.695307731628418 5.168467044830322 3.7311878204345703 5.182803630828857 3.7454872131347656 C5.197140693664551 3.7562780380249023 5.222230434417725 3.7706146240234375 5.247320175170898 3.7706146240234375 C5.272409915924072 3.7706146240234375 5.297499656677246 3.7562780380249023 5.308251857757568 3.7454872131347656 C5.322588920593262 3.7311878204345703 5.322588920593262 3.695307731628418 5.322588920593262 3.6415815353393555 L5.322588920593262 3.1254520416259766 L5.598575115203857 3.1254520416259766 L5.598575115203857 3.6308298110961914 C5.598575115203857 3.7706146240234375 5.573485851287842 3.870973587036133 5.512553691864014 3.946242332458496 C5.448075294494629 4.021511077880859 5.358469486236572 4.060938358306885 5.247320175170898 4.060938358306885 C5.132624626159668 4.060938358306885 5.043018341064453 4.021511077880859 4.982087135314941 3.946242332458496 C4.9175705909729 3.870973587036133 4.892480850219727 3.7706146240234375 4.892480850219727 3.6308298110961914 L4.892480850219727 2.1362037658691406 C4.892480850219727 1.985666275024414 4.9175705909729 1.8709697723388672 4.982087135314941 1.8100004196166992 C5.043018341064453 1.734731674194336 5.132624626159668 1.695343017578125 5.247320175170898 1.695343017578125 L5.247320175170898 1.695343017578125 M17.13619041442871 1.7455224990844727 L17.40500831604004 1.7455224990844727 L17.40500831604004 4.010758399963379 L17.13619041442871 4.010758399963379 L17.13619041442871 1.7455224990844727 L17.13619041442871 1.7455224990844727 M17.566299438476562 2.1362037658691406 C17.566299438476562 1.985666275024414 17.594970703125 1.8709697723388672 17.65590476989746 1.8100004196166992 C17.706083297729492 1.734731674194336 17.79568862915039 1.6953048706054688 17.921138763427734 1.6953048706054688 C18.03583335876465 1.6953048706054688 18.125438690185547 1.7346935272216797 18.18633270263672 1.8100004196166992 C18.240097045898438 1.870931625366211 18.265186309814453 1.9856281280517578 18.27593994140625 2.1362037658691406 L18.27593994140625 2.580611228942871 L17.996368408203125 2.580611228942871 L17.996368408203125 2.1146974563598633 C17.985652923583984 2.0501813888549805 17.985652923583984 2.0107545852661133 17.985652923583984 2.000002861022949 C17.97127914428711 1.9748754501342773 17.946226119995117 1.960576057434082 17.921138763427734 1.960576057434082 C17.885295867919922 1.960576057434082 17.870922088623047 1.9749126434326172 17.860204696655273 2.000002861022949 C17.8458309173584 2.0107545852661133 17.83511734008789 2.0501813888549805 17.83511734008789 2.1146974563598633 L17.83511734008789 3.6415815353393555 C17.83511734008789 3.695307731628418 17.8458309173584 3.7311878204345703 17.860204696655273 3.7454872131347656 C17.870922088623047 3.7562780380249023 17.885295867919922 3.7706146240234375 17.921138763427734 3.7706146240234375 C17.946226119995117 3.7706146240234375 17.97127914428711 3.7562780380249023 17.985652923583984 3.7454872131347656 C17.985652923583984 3.7311878204345703 17.985652923583984 3.695307731628418 17.996368408203125 3.6415815353393555 L17.996368408203125 3.1254520416259766 L18.27593994140625 3.1254520416259766 L18.27593994140625 3.6308298110961914 C18.265186309814453 3.7706146240234375 18.240097045898438 3.870973587036133 18.18633270263672 3.946242332458496 C18.125438690185547 4.021511077880859 18.03583335876465 4.060938358306885 17.921138763427734 4.060938358306885 C17.79568862915039 4.060938358306885 17.706083297729492 4.021511077880859 17.65590476989746 3.946242332458496 C17.594970703125 3.870973587036133 17.566299438476562 3.7706146240234375 17.566299438476562 3.6308298110961914 L17.566299438476562 2.1362037658691406 M14.569877624511719 2.000002861022949 C14.555503845214844 1.9748754501342773 14.530451774597168 1.960576057434082 14.505361557006836 1.960576057434082 C14.48027229309082 1.960576057434082 14.455182075500488 1.9749126434326172 14.444430351257324 2.000002861022949 C14.430092811584473 2.0107545852661133 14.419340133666992 2.0501813888549805 14.430092811584473 2.1146974563598633 L14.430092811584473 2.2652368545532227 C14.430092811584473 2.315415382385254 14.430092811584473 2.35122013092041 14.444430351257324 2.390684127807617 C14.444430351257324 2.4301109313964844 14.455182075500488 2.4552001953125 14.469518661499023 2.4910430908203125 L14.770557403564453 2.9856672286987305 C14.81002140045166 3.0501832962036133 14.824321746826172 3.100362777709961 14.835073471069336 3.161294937133789 C14.849448204040527 3.2114744186401367 14.860162734985352 3.265237808227539 14.860162734985352 3.326169967651367 L14.860162734985352 3.6308298110961914 C14.860162734985352 3.7706146240234375 14.835073471069336 3.870973587036133 14.770557403564453 3.946242332458496 C14.709625244140625 4.021511077880859 14.620019912719727 4.060938358306885 14.505361557006836 4.060938358306885 C14.394288063049316 4.060938358306885 14.304644584655762 4.021511077880859 14.240128517150879 3.9605798721313477 C14.179197311401367 3.870973587036133 14.150522232055664 3.7706146240234375 14.164896011352539 3.6308298110961914 L14.164896011352539 3.1254520416259766 L14.430092811584473 3.1254520416259766 L14.430092811584473 3.6415815353393555 C14.419340133666992 3.695307731628418 14.430092811584473 3.7311878204345703 14.444430351257324 3.7454872131347656 C14.455182075500488 3.7562780380249023 14.48027229309082 3.7706146240234375 14.505361557006836 3.7706146240234375 C14.530451774597168 3.7706146240234375 14.555503845214844 3.7562780380249023 14.569877624511719 3.7454872131347656 C14.5806303024292 3.72039794921875 14.5806303024292 3.681009292602539 14.5806303024292 3.6415815353393555 L14.5806303024292 3.405022621154785 C14.5806303024292 3.3655967712402344 14.5806303024292 3.3405065536499023 14.569877624511719 3.3154172897338867 C14.555503845214844 3.2903270721435547 14.555503845214844 3.265237808227539 14.544788360595703 3.225811004638672 L14.240128517150879 2.6953439712524414 C14.204285621643066 2.64516544342041 14.179197311401367 2.5949478149414062 14.164896011352539 2.5555219650268555 A0.4238075017929077 0.4238075017929077 0.0 0 1 14.164896011352539 2.3655567169189453 L14.164896011352539 2.1362037658691406 C14.150522232055664 1.985666275024414 14.179197311401367 1.8709697723388672 14.240128517150879 1.8100004196166992 C14.304644584655762 1.734731674194336 14.394288063049316 1.6953048706054688 14.505361557006836 1.6953048706054688 C14.620019912719727 1.6953048706054688 14.709625244140625 1.7346935272216797 14.770557403564453 1.8100004196166992 C14.835073471069336 1.870931625366211 14.860162734985352 1.9856281280517578 14.860162734985352 2.1362037658691406 L14.860162734985352 2.580611228942871 L14.580668449401855 2.580611228942871 L14.580668449401855 2.1146974563598633 C14.580668449401855 2.0501813888549805 14.580668449401855 2.0107545852661133 14.569877624511719 2.000002861022949 M11.344103813171387 1.695343017578125 C11.458799362182617 1.695343017578125 11.544820785522461 1.734731674194336 11.60933780670166 1.8100385665893555 C11.673853874206543 1.8709697723388672 11.698943138122559 1.985666275024414 11.698943138122559 2.1362409591674805 L11.698943138122559 3.6308670043945312 C11.698943138122559 3.7706527709960938 11.673853874206543 3.8710107803344727 11.60933780670166 3.9462804794311523 C11.544820785522461 4.021549224853516 11.458799362182617 4.060975551605225 11.344103813171387 4.060975551605225 C11.229408264160156 4.060975551605225 11.139802932739258 4.021549224853516 11.07887077331543 3.9462804794311523 C11.014354705810547 3.8710107803344727 10.978511810302734 3.7706527709960938 10.989265441894531 3.6308670043945312 L10.989265441894531 2.1362037658691406 C10.978511810302734 1.985666275024414 11.014354705810547 1.8709697723388672 11.07887077331543 1.8100004196166992 C11.139802932739258 1.734731674194336 11.229408264160156 1.695343017578125 11.344103813171387 1.695343017578125 L11.344103813171387 1.695343017578125 M11.41937255859375 2.1146974563598633 C11.41937255859375 2.0501813888549805 11.41937255859375 2.0107545852661133 11.40861988067627 2.000002861022949 C11.39432144165039 1.9748754501342773 11.369194030761719 1.960576057434082 11.344103813171387 1.960576057434082 C11.304677963256836 1.960576057434082 11.2938871383667 1.9749126434326172 11.279587745666504 2.000002861022949 C11.268835067749023 2.0107545852661133 11.254498481750488 2.0501813888549805 11.268835067749023 2.1146974563598633 L11.268835067749023 3.6415815353393555 C11.254498481750488 3.695307731628418 11.268835067749023 3.7311878204345703 11.279587745666504 3.7454872131347656 C11.293924331665039 3.7562780380249023 11.304715156555176 3.7706146240234375 11.344103813171387 3.7706146240234375 C11.369194030761719 3.7706146240234375 11.39432144165039 3.7562780380249023 11.40861988067627 3.7454872131347656 C11.41937255859375 3.72039794921875 11.41937255859375 3.681009292602539 11.41937255859375 3.6415815353393555 L11.41937255859375 2.1146974563598633 L11.41937255859375 2.1146974563598633 M8.913992881774902 1.7455224990844727 C9.042987823486328 1.734731674194336 9.143345832824707 1.7706117630004883 9.204277992248535 1.8458805084228516 C9.268795013427734 1.9103975296020508 9.29388427734375 2.0107545852661133 9.29388427734375 2.1648778915405273 L9.29388427734375 3.591403007507324 C9.29388427734375 3.7311878204345703 9.268795013427734 3.845883369445801 9.204277992248535 3.924698829650879 C9.143345832824707 3.9856691360473633 9.042987823486328 4.010720729827881 8.913992881774902 4.010720729827881 L8.584242820739746 4.010720729827881 L8.584242820739746 1.7454843521118164 L8.913992881774902 1.7454843521118164 L8.913992881774902 1.7455224990844727 M8.913992881774902 2.000002861022949 L8.853060722351074 2.000002861022949 L8.853060722351074 3.7311878204345703 L8.913992881774902 3.7311878204345703 C8.953381538391113 3.7311878204345703 8.978471755981445 3.72039794921875 8.989261627197266 3.695307731628418 C9.014350891113281 3.6702184677124023 9.028688430786133 3.6308298110961914 9.028688430786133 3.591403007507324 L9.028688430786133 2.150540351867676 C9.028688430786133 2.100360870361328 9.014350891113281 2.0609350204467773 8.989261627197266 2.0358448028564453 C8.978508949279785 2.0107545852661133 8.953418731689453 2.000002861022949 8.913992881774902 2.000002861022949 M7.637967109680176 1.7455224990844727 C7.763453483581543 1.734731674194336 7.863774299621582 1.7706117630004883 7.924705982208252 1.8458805084228516 C7.992806434631348 1.9103975296020508 8.014312744140625 2.0107545852661133 8.014312744140625 2.1648778915405273 L8.014312744140625 2.4659528732299805 C8.014312744140625 2.5555591583251953 7.992806434631348 2.620075225830078 7.953417778015137 2.6810073852539062 C7.903200626373291 2.745485305786133 7.838684558868408 2.7813663482666016 7.752700328826904 2.810002326965332 L7.752700328826904 2.8207921981811523 C7.838722229003906 2.8207921981811523 7.903238296508789 2.849466323852539 7.953417778015137 2.910398483276367 C7.992806434631348 2.960577964782715 8.014312744140625 3.035846710205078 8.014312744140625 3.1254520416259766 L8.014312744140625 3.591403007507324 C8.014312744140625 3.7311878204345703 7.992806434631348 3.845883369445801 7.924705982208252 3.924698829650879 C7.863774299621582 3.9856691360473633 7.763453483581543 4.010720729827881 7.637967109680176 4.010720729827881 L7.308217525482178 4.010720729827881 L7.308217525482178 1.7454843521118164 L7.637967109680176 1.7454843521118164 L7.637967109680176 1.7455224990844727 M7.637967109680176 2.000002861022949 L7.573451042175293 2.000002861022949 L7.573451042175293 2.670254707336426 L7.637967109680176 2.670254707336426 C7.67380952835083 2.670254707336426 7.698899269104004 2.655917167663574 7.713274002075195 2.6344118118286133 A0.16329020261764526 0.16329020261764526 0.0 0 0 7.752700328826904 2.5304698944091797 L7.752700328826904 2.150540351867676 C7.752700328826904 2.100360870361328 7.738363742828369 2.0609350204467773 7.713274002075195 2.0358448028564453 C7.698936939239502 2.0107545852661133 7.673847675323486 2.000002861022949 7.637967109680176 2.000002861022949 M7.637967109680176 2.9462404251098633 L7.573451042175293 2.9462404251098633 L7.573451042175293 3.7311878204345703 L7.637967109680176 3.7311878204345703 C7.67380952835083 3.7311878204345703 7.698899269104004 3.72039794921875 7.713274002075195 3.695307731628418 C7.738363742828369 3.6702184677124023 7.752700328826904 3.6308298110961914 7.752700328826904 3.591403007507324 L7.752700328826904 3.086026191711426 C7.752700328826904 3.0501832962036133 7.738363742828369 3.0107574462890625 7.713274002075195 2.9856672286987305 C7.698936939239502 2.960577964782715 7.673847675323486 2.9462404251098633 7.637967109680176 2.9462404251098633 M19.03583526611328 1.7455224990844727 L19.236589431762695 4.010758399963379 L18.94622802734375 4.010758399963379 L18.896087646484375 3.39068603515625 L18.731212615966797 3.39068603515625 L18.67028045654297 4.010758399963379 L18.40146255493164 4.010758399963379 L18.616479873657227 1.7455224990844727 L19.03583526611328 1.7455224990844727 L19.03583526611328 1.7455224990844727 M18.820781707763672 2.086024284362793 L18.806482315063477 2.086024284362793 C18.795652389526367 2.1254501342773438 18.795652389526367 2.204303741455078 18.795652389526367 2.329751968383789 C18.781352996826172 2.419358253479004 18.781352996826172 2.4802894592285156 18.781352996826172 2.544769287109375 L18.745512008666992 3.100362777709961 L18.8852596282959 3.100362777709961 L18.845870971679688 2.544769287109375 L18.845870971679688 2.3655567169189453 C18.831533432006836 2.3010778427124023 18.831533432006836 2.204303741455078 18.820781707763672 2.086024284362793 M15.580632209777832 1.7455224990844727 L15.985650062561035 1.7455224990844727 L16.189990997314453 4.010758399963379 L15.910343170166016 4.010758399963379 L15.845865249633789 3.39068603515625 L15.684575080871582 3.39068603515625 L15.620058059692383 4.010758399963379 L15.354825019836426 4.010758399963379 L15.580632209777832 1.7455224990844727 L15.580632209777832 1.7455224990844727 M15.770671844482422 2.086024284362793 C15.759919166564941 2.1254501342773438 15.759919166564941 2.204303741455078 15.74554443359375 2.329751968383789 C15.74554443359375 2.419358253479004 15.74554443359375 2.4802894592285156 15.734792709350586 2.544769287109375 L15.709739685058594 3.100362777709961 L15.835150718688965 3.100362777709961 L15.795723915100098 2.544769287109375 L15.795723915100098 2.3655567169189453 C15.784934043884277 2.3010778427124023 15.784934043884277 2.204303741455078 15.784934043884277 2.086024284362793 L15.770671844482422 2.086024284362793 M12.179193496704102 1.7455224990844727 C12.318978309631348 1.734731674194336 12.419336318969727 1.7706117630004883 12.480268478393555 1.8458805084228516 C12.534070014953613 1.9103975296020508 12.55908489227295 2.0107545852661133 12.55908489227295 2.1648778915405273 L12.55908489227295 2.419358253479004 C12.55908489227295 2.5304317474365234 12.544785499572754 2.620075225830078 12.508942604064941 2.6810073852539062 C12.469478607177734 2.745485305786133 12.390663146972656 2.7813663482666016 12.293889045715332 2.810002326965332 L12.293889045715332 2.8207921981811523 C12.37987232208252 2.8207921981811523 12.458763122558594 2.849466323852539 12.49456787109375 2.910398483276367 C12.534070014953613 2.9462404251098633 12.55908489227295 3.0250940322875977 12.55908489227295 3.1254520416259766 L12.55908489227295 3.591403007507324 C12.55908489227295 3.695307731628418 12.56987476348877 3.781367301940918 12.584174156188965 3.845883369445801 C12.594926834106445 3.9103994369506836 12.605716705322266 3.9605798721313477 12.620054244995117 4.010758399963379 L12.329730987548828 4.010758399963379 C12.318978309631348 3.971369743347168 12.304678916931152 3.9354896545410156 12.293889045715332 3.8853111267089844 L12.293889045715332 3.086026191711426 C12.293889045715332 3.0501832962036133 12.27955150604248 3.0107574462890625 12.254424095153809 2.9856672286987305 C12.22937297821045 2.960577964782715 12.189945220947266 2.9462404251098633 12.139766693115234 2.9462404251098633 L12.129014015197754 2.9462404251098633 L12.129014015197754 4.010758399963379 L11.863818168640137 4.010758399963379 L11.863818168640137 1.7455224990844727 L12.179193496704102 1.7455224990844727 L12.179193496704102 1.7455224990844727 M12.189945220947266 2.000002861022949 L12.129014015197754 2.000002861022949 L12.129014015197754 2.670254707336426 L12.189945220947266 2.670254707336426 C12.22937297821045 2.670254707336426 12.254424095153809 2.655917167663574 12.268798828125 2.6344118118286133 C12.27955150604248 2.605738639831543 12.293889045715332 2.566311836242676 12.293889045715332 2.5304698944091797 L12.293889045715332 2.150540351867676 C12.293889045715332 2.100360870361328 12.27955150604248 2.0609350204467773 12.268798828125 2.0358448028564453 C12.254424095153809 2.0107545852661133 12.22937297821045 2.000002861022949 12.189945220947266 2.000002861022949 M16.605722427368164 1.7455224990844727 C16.745508193969727 1.734731674194336 16.845867156982422 1.7706117630004883 16.910383224487305 1.8458805084228516 C16.960561752319336 1.9103975296020508 16.985614776611328 2.0107545852661133 16.999988555908203 2.1648778915405273 L16.999988555908203 2.419358253479004 C16.985614776611328 2.5304317474365234 16.974863052368164 2.620075225830078 16.935474395751953 2.6810073852539062 C16.896007537841797 2.745485305786133 16.820777893066406 2.7813663482666016 16.72041893005371 2.810002326965332 L16.72041893005371 2.8207921981811523 C16.81002426147461 2.8207921981811523 16.885257720947266 2.849466323852539 16.921098709106445 2.910398483276367 C16.960561752319336 2.9462404251098633 16.985614776611328 3.0250940322875977 16.999988555908203 3.1254520416259766 L16.999988555908203 3.591403007507324 C16.985614776611328 3.695307731628418 16.999988555908203 3.781367301940918 17.0107421875 3.845883369445801 C17.02507972717285 3.9103994369506836 17.03579330444336 3.9605798721313477 17.050167083740234 4.010758399963379 L16.759845733642578 4.010758399963379 C16.745508193969727 3.971369743347168 16.731170654296875 3.9354896545410156 16.72041893005371 3.8853111267089844 L16.72041893005371 3.086026191711426 C16.72041893005371 3.0501832962036133 16.706045150756836 3.0107574462890625 16.680953979492188 2.9856672286987305 C16.655941009521484 2.960577964782715 16.620059967041016 2.9462404251098633 16.569881439208984 2.9462404251098633 L16.555505752563477 2.9462404251098633 L16.555505752563477 4.010758399963379 L16.29030990600586 4.010758399963379 L16.29030990600586 1.7455224990844727 L16.605722427368164 1.7455224990844727 L16.605722427368164 1.7455224990844727 M16.72041893005371 2.150540351867676 C16.72041893005371 2.100360870361328 16.706045150756836 2.0609350204467773 16.69536590576172 2.0358448028564453 C16.680953979492188 2.0107545852661133 16.655941009521484 2.000002861022949 16.620059967041016 2.000002861022949 L16.555505752563477 2.000002861022949 L16.555505752563477 2.670254707336426 L16.620059967041016 2.670254707336426 C16.655941009521484 2.670254707336426 16.680953979492188 2.655917167663574 16.69536590576172 2.6344118118286133 C16.706045150756836 2.605738639831543 16.72041893005371 2.566311836242676 16.72041893005371 2.5304698944091797 L16.72041893005371 2.150540351867676 M10.799300193786621 1.8458805084228516 C10.849479675292969 1.9103975296020508 10.874568939208984 2.0107545852661133 10.874568939208984 2.150540351867676 L10.874568939208984 2.7060976028442383 C10.874568939208984 2.8602190017700195 10.849479675292969 2.960577964782715 10.799300193786621 3.0250940322875977 C10.734784126281738 3.086026191711426 10.634387969970703 3.1254520416259766 10.494640350341797 3.1254520416259766 L10.44446086883545 3.1254520416259766 L10.44446086883545 4.010758399963379 L10.179227828979492 4.010758399963379 L10.179227828979492 1.7455224990844727 L10.494640350341797 1.7455224990844727 C10.634387969970703 1.734731674194336 10.734784126281738 1.7706117630004883 10.799300193786621 1.8458805084228516 M10.609335899353027 2.150540351867676 C10.609335899353027 2.100360870361328 10.598583221435547 2.0609350204467773 10.584246635437012 2.0358448028564453 C10.573493957519531 2.0107545852661133 10.5484037399292 2.000002861022949 10.508976936340332 2.000002861022949 L10.44446086883545 2.000002861022949 L10.44446086883545 2.8602190017700195 L10.508976936340332 2.8602190017700195 C10.5484037399292 2.8602190017700195 10.573493957519531 2.849466323852539 10.584246635437012 2.8207921981811523 C10.598583221435547 2.7956647872924805 10.609335899353027 2.7598228454589844 10.609335899353027 2.706059455871582 L10.609335899353027 2.150540351867676" fill="black" fill-opacity="1.0" filling="0"/></svg>